<?xml version="1.0" encoding="utf-8" standalone="no"?>
<!DOCTYPE svg PUBLIC "-//W3C//DTD SVG 1.1//EN"
  "http://www.w3.org/Graphics/SVG/1.1/DTD/svg11.dtd">
<svg xmlns:xlink="http://www.w3.org/1999/xlink" width="934.976pt" height="358.843487pt" viewBox="0 0 934.976 358.843487" xmlns="http://www.w3.org/2000/svg" version="1.1">
 <metadata>
  <rdf:RDF xmlns:dc="http://purl.org/dc/elements/1.1/" xmlns:cc="http://creativecommons.org/ns#" xmlns:rdf="http://www.w3.org/1999/02/22-rdf-syntax-ns#">
   <cc:Work>
    <dc:type rdf:resource="http://purl.org/dc/dcmitype/StillImage"/>
    <dc:date>2023-07-31T21:50:30.996415</dc:date>
    <dc:format>image/svg+xml</dc:format>
    <dc:creator>
     <cc:Agent>
      <dc:title>Matplotlib v3.7.2, https://matplotlib.org/</dc:title>
     </cc:Agent>
    </dc:creator>
   </cc:Work>
  </rdf:RDF>
 </metadata>
 <defs>
  <style type="text/css">*{stroke-linejoin: round; stroke-linecap: butt}</style>
 </defs>
 <g id="figure_1">
  <g id="patch_1">
   <path d="M 0 358.843487 
L 934.976 358.843487 
L 934.976 0 
L 0 0 
z
" style="fill: #373e4b"/>
  </g>
  <g id="axes_1">
   <g id="patch_2">
    <path d="M 34.976 301.512794 
L 927.776 301.512794 
L 927.776 7.752794 
L 34.976 7.752794 
z
" style="fill: #373e4b"/>
   </g>
   <g id="matplotlib.axis_1">
    <g id="xtick_1">
     <g id="line2d_1">
      <path d="M 149.661405 301.512794 
L 149.661405 7.752794 
" clip-path="url(#p35ec483dde)" style="fill: none; stroke: #546379; stroke-width: 1.12; stroke-linecap: square"/>
     </g>
     <g id="line2d_2"/>
     <g id="text_1">
      <!-- 2012 -->
      <g style="fill: #b1bed6" transform="translate(120.580365 331.437649) rotate(-30) scale(0.126 -0.126)">
       <defs>
        <path id="DejaVuSans-32" d="M 1228 531 
L 3431 531 
L 3431 0 
L 469 0 
L 469 531 
Q 828 903 1448 1529 
Q 2069 2156 2228 2338 
Q 2531 2678 2651 2914 
Q 2772 3150 2772 3378 
Q 2772 3750 2511 3984 
Q 2250 4219 1831 4219 
Q 1534 4219 1204 4116 
Q 875 4013 500 3803 
L 500 4441 
Q 881 4594 1212 4672 
Q 1544 4750 1819 4750 
Q 2544 4750 2975 4387 
Q 3406 4025 3406 3419 
Q 3406 3131 3298 2873 
Q 3191 2616 2906 2266 
Q 2828 2175 2409 1742 
Q 1991 1309 1228 531 
z
" transform="scale(0.015625)"/>
        <path id="DejaVuSans-30" d="M 2034 4250 
Q 1547 4250 1301 3770 
Q 1056 3291 1056 2328 
Q 1056 1369 1301 889 
Q 1547 409 2034 409 
Q 2525 409 2770 889 
Q 3016 1369 3016 2328 
Q 3016 3291 2770 3770 
Q 2525 4250 2034 4250 
z
M 2034 4750 
Q 2819 4750 3233 4129 
Q 3647 3509 3647 2328 
Q 3647 1150 3233 529 
Q 2819 -91 2034 -91 
Q 1250 -91 836 529 
Q 422 1150 422 2328 
Q 422 3509 836 4129 
Q 1250 4750 2034 4750 
z
" transform="scale(0.015625)"/>
        <path id="DejaVuSans-31" d="M 794 531 
L 1825 531 
L 1825 4091 
L 703 3866 
L 703 4441 
L 1819 4666 
L 2450 4666 
L 2450 531 
L 3481 531 
L 3481 0 
L 794 0 
L 794 531 
z
" transform="scale(0.015625)"/>
       </defs>
       <use xlink:href="#DejaVuSans-32"/>
       <use xlink:href="#DejaVuSans-30" x="63.623047"/>
       <use xlink:href="#DejaVuSans-31" x="127.246094"/>
       <use xlink:href="#DejaVuSans-32" x="190.869141"/>
      </g>
     </g>
    </g>
    <g id="xtick_2">
     <g id="line2d_3">
      <path d="M 277.119574 301.512794 
L 277.119574 7.752794 
" clip-path="url(#p35ec483dde)" style="fill: none; stroke: #546379; stroke-width: 1.12; stroke-linecap: square"/>
     </g>
     <g id="line2d_4"/>
     <g id="text_2">
      <!-- 2014 -->
      <g style="fill: #b1bed6" transform="translate(248.038534 331.437649) rotate(-30) scale(0.126 -0.126)">
       <defs>
        <path id="DejaVuSans-34" d="M 2419 4116 
L 825 1625 
L 2419 1625 
L 2419 4116 
z
M 2253 4666 
L 3047 4666 
L 3047 1625 
L 3713 1625 
L 3713 1100 
L 3047 1100 
L 3047 0 
L 2419 0 
L 2419 1100 
L 313 1100 
L 313 1709 
L 2253 4666 
z
" transform="scale(0.015625)"/>
       </defs>
       <use xlink:href="#DejaVuSans-32"/>
       <use xlink:href="#DejaVuSans-30" x="63.623047"/>
       <use xlink:href="#DejaVuSans-31" x="127.246094"/>
       <use xlink:href="#DejaVuSans-34" x="190.869141"/>
      </g>
     </g>
    </g>
    <g id="xtick_3">
     <g id="line2d_5">
      <path d="M 404.403382 301.512794 
L 404.403382 7.752794 
" clip-path="url(#p35ec483dde)" style="fill: none; stroke: #546379; stroke-width: 1.12; stroke-linecap: square"/>
     </g>
     <g id="line2d_6"/>
     <g id="text_3">
      <!-- 2016 -->
      <g style="fill: #b1bed6" transform="translate(375.322342 331.437649) rotate(-30) scale(0.126 -0.126)">
       <defs>
        <path id="DejaVuSans-36" d="M 2113 2584 
Q 1688 2584 1439 2293 
Q 1191 2003 1191 1497 
Q 1191 994 1439 701 
Q 1688 409 2113 409 
Q 2538 409 2786 701 
Q 3034 994 3034 1497 
Q 3034 2003 2786 2293 
Q 2538 2584 2113 2584 
z
M 3366 4563 
L 3366 3988 
Q 3128 4100 2886 4159 
Q 2644 4219 2406 4219 
Q 1781 4219 1451 3797 
Q 1122 3375 1075 2522 
Q 1259 2794 1537 2939 
Q 1816 3084 2150 3084 
Q 2853 3084 3261 2657 
Q 3669 2231 3669 1497 
Q 3669 778 3244 343 
Q 2819 -91 2113 -91 
Q 1303 -91 875 529 
Q 447 1150 447 2328 
Q 447 3434 972 4092 
Q 1497 4750 2381 4750 
Q 2619 4750 2861 4703 
Q 3103 4656 3366 4563 
z
" transform="scale(0.015625)"/>
       </defs>
       <use xlink:href="#DejaVuSans-32"/>
       <use xlink:href="#DejaVuSans-30" x="63.623047"/>
       <use xlink:href="#DejaVuSans-31" x="127.246094"/>
       <use xlink:href="#DejaVuSans-36" x="190.869141"/>
      </g>
     </g>
    </g>
    <g id="xtick_4">
     <g id="line2d_7">
      <path d="M 531.861551 301.512794 
L 531.861551 7.752794 
" clip-path="url(#p35ec483dde)" style="fill: none; stroke: #546379; stroke-width: 1.12; stroke-linecap: square"/>
     </g>
     <g id="line2d_8"/>
     <g id="text_4">
      <!-- 2018 -->
      <g style="fill: #b1bed6" transform="translate(502.780511 331.437649) rotate(-30) scale(0.126 -0.126)">
       <defs>
        <path id="DejaVuSans-38" d="M 2034 2216 
Q 1584 2216 1326 1975 
Q 1069 1734 1069 1313 
Q 1069 891 1326 650 
Q 1584 409 2034 409 
Q 2484 409 2743 651 
Q 3003 894 3003 1313 
Q 3003 1734 2745 1975 
Q 2488 2216 2034 2216 
z
M 1403 2484 
Q 997 2584 770 2862 
Q 544 3141 544 3541 
Q 544 4100 942 4425 
Q 1341 4750 2034 4750 
Q 2731 4750 3128 4425 
Q 3525 4100 3525 3541 
Q 3525 3141 3298 2862 
Q 3072 2584 2669 2484 
Q 3125 2378 3379 2068 
Q 3634 1759 3634 1313 
Q 3634 634 3220 271 
Q 2806 -91 2034 -91 
Q 1263 -91 848 271 
Q 434 634 434 1313 
Q 434 1759 690 2068 
Q 947 2378 1403 2484 
z
M 1172 3481 
Q 1172 3119 1398 2916 
Q 1625 2713 2034 2713 
Q 2441 2713 2670 2916 
Q 2900 3119 2900 3481 
Q 2900 3844 2670 4047 
Q 2441 4250 2034 4250 
Q 1625 4250 1398 4047 
Q 1172 3844 1172 3481 
z
" transform="scale(0.015625)"/>
       </defs>
       <use xlink:href="#DejaVuSans-32"/>
       <use xlink:href="#DejaVuSans-30" x="63.623047"/>
       <use xlink:href="#DejaVuSans-31" x="127.246094"/>
       <use xlink:href="#DejaVuSans-38" x="190.869141"/>
      </g>
     </g>
    </g>
    <g id="xtick_5">
     <g id="line2d_9">
      <path d="M 659.145358 301.512794 
L 659.145358 7.752794 
" clip-path="url(#p35ec483dde)" style="fill: none; stroke: #546379; stroke-width: 1.12; stroke-linecap: square"/>
     </g>
     <g id="line2d_10"/>
     <g id="text_5">
      <!-- 2020 -->
      <g style="fill: #b1bed6" transform="translate(630.064319 331.437649) rotate(-30) scale(0.126 -0.126)">
       <use xlink:href="#DejaVuSans-32"/>
       <use xlink:href="#DejaVuSans-30" x="63.623047"/>
       <use xlink:href="#DejaVuSans-32" x="127.246094"/>
       <use xlink:href="#DejaVuSans-30" x="190.869141"/>
      </g>
     </g>
    </g>
    <g id="xtick_6">
     <g id="line2d_11">
      <path d="M 786.603527 301.512794 
L 786.603527 7.752794 
" clip-path="url(#p35ec483dde)" style="fill: none; stroke: #546379; stroke-width: 1.12; stroke-linecap: square"/>
     </g>
     <g id="line2d_12"/>
     <g id="text_6">
      <!-- 2022 -->
      <g style="fill: #b1bed6" transform="translate(757.522488 331.437649) rotate(-30) scale(0.126 -0.126)">
       <use xlink:href="#DejaVuSans-32"/>
       <use xlink:href="#DejaVuSans-30" x="63.623047"/>
       <use xlink:href="#DejaVuSans-32" x="127.246094"/>
       <use xlink:href="#DejaVuSans-32" x="190.869141"/>
      </g>
     </g>
    </g>
    <g id="xtick_7">
     <g id="line2d_13">
      <path d="M 913.887335 301.512794 
L 913.887335 7.752794 
" clip-path="url(#p35ec483dde)" style="fill: none; stroke: #546379; stroke-width: 1.12; stroke-linecap: square"/>
     </g>
     <g id="line2d_14"/>
     <g id="text_7">
      <!-- 2024 -->
      <g style="fill: #b1bed6" transform="translate(884.806295 331.437649) rotate(-30) scale(0.126 -0.126)">
       <use xlink:href="#DejaVuSans-32"/>
       <use xlink:href="#DejaVuSans-30" x="63.623047"/>
       <use xlink:href="#DejaVuSans-32" x="127.246094"/>
       <use xlink:href="#DejaVuSans-34" x="190.869141"/>
      </g>
     </g>
    </g>
    <g id="text_8">
     <!-- Date -->
     <g style="fill: #b1bed6" transform="translate(464.166875 348.648737) scale(0.144 -0.144)">
      <defs>
       <path id="DejaVuSans-44" d="M 1259 4147 
L 1259 519 
L 2022 519 
Q 2988 519 3436 956 
Q 3884 1394 3884 2338 
Q 3884 3275 3436 3711 
Q 2988 4147 2022 4147 
L 1259 4147 
z
M 628 4666 
L 1925 4666 
Q 3281 4666 3915 4102 
Q 4550 3538 4550 2338 
Q 4550 1131 3912 565 
Q 3275 0 1925 0 
L 628 0 
L 628 4666 
z
" transform="scale(0.015625)"/>
       <path id="DejaVuSans-61" d="M 2194 1759 
Q 1497 1759 1228 1600 
Q 959 1441 959 1056 
Q 959 750 1161 570 
Q 1363 391 1709 391 
Q 2188 391 2477 730 
Q 2766 1069 2766 1631 
L 2766 1759 
L 2194 1759 
z
M 3341 1997 
L 3341 0 
L 2766 0 
L 2766 531 
Q 2569 213 2275 61 
Q 1981 -91 1556 -91 
Q 1019 -91 701 211 
Q 384 513 384 1019 
Q 384 1609 779 1909 
Q 1175 2209 1959 2209 
L 2766 2209 
L 2766 2266 
Q 2766 2663 2505 2880 
Q 2244 3097 1772 3097 
Q 1472 3097 1187 3025 
Q 903 2953 641 2809 
L 641 3341 
Q 956 3463 1253 3523 
Q 1550 3584 1831 3584 
Q 2591 3584 2966 3190 
Q 3341 2797 3341 1997 
z
" transform="scale(0.015625)"/>
       <path id="DejaVuSans-74" d="M 1172 4494 
L 1172 3500 
L 2356 3500 
L 2356 3053 
L 1172 3053 
L 1172 1153 
Q 1172 725 1289 603 
Q 1406 481 1766 481 
L 2356 481 
L 2356 0 
L 1766 0 
Q 1100 0 847 248 
Q 594 497 594 1153 
L 594 3053 
L 172 3053 
L 172 3500 
L 594 3500 
L 594 4494 
L 1172 4494 
z
" transform="scale(0.015625)"/>
       <path id="DejaVuSans-65" d="M 3597 1894 
L 3597 1613 
L 953 1613 
Q 991 1019 1311 708 
Q 1631 397 2203 397 
Q 2534 397 2845 478 
Q 3156 559 3463 722 
L 3463 178 
Q 3153 47 2828 -22 
Q 2503 -91 2169 -91 
Q 1331 -91 842 396 
Q 353 884 353 1716 
Q 353 2575 817 3079 
Q 1281 3584 2069 3584 
Q 2775 3584 3186 3129 
Q 3597 2675 3597 1894 
z
M 3022 2063 
Q 3016 2534 2758 2815 
Q 2500 3097 2075 3097 
Q 1594 3097 1305 2825 
Q 1016 2553 972 2059 
L 3022 2063 
z
" transform="scale(0.015625)"/>
      </defs>
      <use xlink:href="#DejaVuSans-44"/>
      <use xlink:href="#DejaVuSans-61" x="77.001953"/>
      <use xlink:href="#DejaVuSans-74" x="138.28125"/>
      <use xlink:href="#DejaVuSans-65" x="177.490234"/>
     </g>
    </g>
   </g>
   <g id="matplotlib.axis_2">
    <g id="ytick_1">
     <g id="line2d_15">
      <path d="M 34.976 254.287862 
L 927.776 254.287862 
" clip-path="url(#p35ec483dde)" style="fill: none; stroke: #546379; stroke-width: 1.12; stroke-linecap: square"/>
     </g>
     <g id="line2d_16"/>
     <g id="text_9">
      <!-- $\mathdefault{10^{0}}$ -->
      <g style="fill: #b1bed6" transform="translate(7.2 259.074878) scale(0.126 -0.126)">
       <use xlink:href="#DejaVuSans-31" transform="translate(0 0.765625)"/>
       <use xlink:href="#DejaVuSans-30" transform="translate(63.623047 0.765625)"/>
       <use xlink:href="#DejaVuSans-30" transform="translate(128.203125 39.046875) scale(0.7)"/>
      </g>
     </g>
    </g>
    <g id="ytick_2">
     <g id="line2d_17">
      <path d="M 34.976 205.827693 
L 927.776 205.827693 
" clip-path="url(#p35ec483dde)" style="fill: none; stroke: #546379; stroke-width: 1.12; stroke-linecap: square"/>
     </g>
     <g id="line2d_18"/>
     <g id="text_10">
      <!-- $\mathdefault{10^{1}}$ -->
      <g style="fill: #b1bed6" transform="translate(7.2 210.614709) scale(0.126 -0.126)">
       <use xlink:href="#DejaVuSans-31" transform="translate(0 0.684375)"/>
       <use xlink:href="#DejaVuSans-30" transform="translate(63.623047 0.684375)"/>
       <use xlink:href="#DejaVuSans-31" transform="translate(128.203125 38.965625) scale(0.7)"/>
      </g>
     </g>
    </g>
    <g id="ytick_3">
     <g id="line2d_19">
      <path d="M 34.976 157.367524 
L 927.776 157.367524 
" clip-path="url(#p35ec483dde)" style="fill: none; stroke: #546379; stroke-width: 1.12; stroke-linecap: square"/>
     </g>
     <g id="line2d_20"/>
     <g id="text_11">
      <!-- $\mathdefault{10^{2}}$ -->
      <g style="fill: #b1bed6" transform="translate(7.2 162.154539) scale(0.126 -0.126)">
       <use xlink:href="#DejaVuSans-31" transform="translate(0 0.765625)"/>
       <use xlink:href="#DejaVuSans-30" transform="translate(63.623047 0.765625)"/>
       <use xlink:href="#DejaVuSans-32" transform="translate(128.203125 39.046875) scale(0.7)"/>
      </g>
     </g>
    </g>
    <g id="ytick_4">
     <g id="line2d_21">
      <path d="M 34.976 108.907354 
L 927.776 108.907354 
" clip-path="url(#p35ec483dde)" style="fill: none; stroke: #546379; stroke-width: 1.12; stroke-linecap: square"/>
     </g>
     <g id="line2d_22"/>
     <g id="text_12">
      <!-- $\mathdefault{10^{3}}$ -->
      <g style="fill: #b1bed6" transform="translate(7.2 113.69437) scale(0.126 -0.126)">
       <defs>
        <path id="DejaVuSans-33" d="M 2597 2516 
Q 3050 2419 3304 2112 
Q 3559 1806 3559 1356 
Q 3559 666 3084 287 
Q 2609 -91 1734 -91 
Q 1441 -91 1130 -33 
Q 819 25 488 141 
L 488 750 
Q 750 597 1062 519 
Q 1375 441 1716 441 
Q 2309 441 2620 675 
Q 2931 909 2931 1356 
Q 2931 1769 2642 2001 
Q 2353 2234 1838 2234 
L 1294 2234 
L 1294 2753 
L 1863 2753 
Q 2328 2753 2575 2939 
Q 2822 3125 2822 3475 
Q 2822 3834 2567 4026 
Q 2313 4219 1838 4219 
Q 1578 4219 1281 4162 
Q 984 4106 628 3988 
L 628 4550 
Q 988 4650 1302 4700 
Q 1616 4750 1894 4750 
Q 2613 4750 3031 4423 
Q 3450 4097 3450 3541 
Q 3450 3153 3228 2886 
Q 3006 2619 2597 2516 
z
" transform="scale(0.015625)"/>
       </defs>
       <use xlink:href="#DejaVuSans-31" transform="translate(0 0.765625)"/>
       <use xlink:href="#DejaVuSans-30" transform="translate(63.623047 0.765625)"/>
       <use xlink:href="#DejaVuSans-33" transform="translate(128.203125 39.046875) scale(0.7)"/>
      </g>
     </g>
    </g>
    <g id="ytick_5">
     <g id="line2d_23">
      <path d="M 34.976 60.447185 
L 927.776 60.447185 
" clip-path="url(#p35ec483dde)" style="fill: none; stroke: #546379; stroke-width: 1.12; stroke-linecap: square"/>
     </g>
     <g id="line2d_24"/>
     <g id="text_13">
      <!-- $\mathdefault{10^{4}}$ -->
      <g style="fill: #b1bed6" transform="translate(7.2 65.234201) scale(0.126 -0.126)">
       <use xlink:href="#DejaVuSans-31" transform="translate(0 0.684375)"/>
       <use xlink:href="#DejaVuSans-30" transform="translate(63.623047 0.684375)"/>
       <use xlink:href="#DejaVuSans-34" transform="translate(128.203125 38.965625) scale(0.7)"/>
      </g>
     </g>
    </g>
    <g id="ytick_6">
     <g id="line2d_25">
      <path d="M 34.976 11.987016 
L 927.776 11.987016 
" clip-path="url(#p35ec483dde)" style="fill: none; stroke: #546379; stroke-width: 1.12; stroke-linecap: square"/>
     </g>
     <g id="line2d_26"/>
     <g id="text_14">
      <!-- $\mathdefault{10^{5}}$ -->
      <g style="fill: #b1bed6" transform="translate(7.2 16.774031) scale(0.126 -0.126)">
       <defs>
        <path id="DejaVuSans-35" d="M 691 4666 
L 3169 4666 
L 3169 4134 
L 1269 4134 
L 1269 2991 
Q 1406 3038 1543 3061 
Q 1681 3084 1819 3084 
Q 2600 3084 3056 2656 
Q 3513 2228 3513 1497 
Q 3513 744 3044 326 
Q 2575 -91 1722 -91 
Q 1428 -91 1123 -41 
Q 819 9 494 109 
L 494 744 
Q 775 591 1075 516 
Q 1375 441 1709 441 
Q 2250 441 2565 725 
Q 2881 1009 2881 1497 
Q 2881 1984 2565 2268 
Q 2250 2553 1709 2553 
Q 1456 2553 1204 2497 
Q 953 2441 691 2322 
L 691 4666 
z
" transform="scale(0.015625)"/>
       </defs>
       <use xlink:href="#DejaVuSans-31" transform="translate(0 0.684375)"/>
       <use xlink:href="#DejaVuSans-30" transform="translate(63.623047 0.684375)"/>
       <use xlink:href="#DejaVuSans-35" transform="translate(128.203125 38.965625) scale(0.7)"/>
      </g>
     </g>
    </g>
    <g id="ytick_7">
     <g id="line2d_27"/>
    </g>
    <g id="ytick_8">
     <g id="line2d_28"/>
    </g>
    <g id="ytick_9">
     <g id="line2d_29"/>
    </g>
    <g id="ytick_10">
     <g id="line2d_30"/>
    </g>
    <g id="ytick_11">
     <g id="line2d_31"/>
    </g>
    <g id="ytick_12">
     <g id="line2d_32"/>
    </g>
    <g id="ytick_13">
     <g id="line2d_33"/>
    </g>
    <g id="ytick_14">
     <g id="line2d_34"/>
    </g>
    <g id="ytick_15">
     <g id="line2d_35"/>
    </g>
    <g id="ytick_16">
     <g id="line2d_36"/>
    </g>
    <g id="ytick_17">
     <g id="line2d_37"/>
    </g>
    <g id="ytick_18">
     <g id="line2d_38"/>
    </g>
    <g id="ytick_19">
     <g id="line2d_39"/>
    </g>
    <g id="ytick_20">
     <g id="line2d_40"/>
    </g>
    <g id="ytick_21">
     <g id="line2d_41"/>
    </g>
    <g id="ytick_22">
     <g id="line2d_42"/>
    </g>
    <g id="ytick_23">
     <g id="line2d_43"/>
    </g>
    <g id="ytick_24">
     <g id="line2d_44"/>
    </g>
    <g id="ytick_25">
     <g id="line2d_45"/>
    </g>
    <g id="ytick_26">
     <g id="line2d_46"/>
    </g>
    <g id="ytick_27">
     <g id="line2d_47"/>
    </g>
    <g id="ytick_28">
     <g id="line2d_48"/>
    </g>
    <g id="ytick_29">
     <g id="line2d_49"/>
    </g>
    <g id="ytick_30">
     <g id="line2d_50"/>
    </g>
    <g id="ytick_31">
     <g id="line2d_51"/>
    </g>
    <g id="ytick_32">
     <g id="line2d_52"/>
    </g>
    <g id="ytick_33">
     <g id="line2d_53"/>
    </g>
    <g id="ytick_34">
     <g id="line2d_54"/>
    </g>
    <g id="ytick_35">
     <g id="line2d_55"/>
    </g>
    <g id="ytick_36">
     <g id="line2d_56"/>
    </g>
    <g id="ytick_37">
     <g id="line2d_57"/>
    </g>
    <g id="ytick_38">
     <g id="line2d_58"/>
    </g>
    <g id="ytick_39">
     <g id="line2d_59"/>
    </g>
    <g id="ytick_40">
     <g id="line2d_60"/>
    </g>
    <g id="ytick_41">
     <g id="line2d_61"/>
    </g>
    <g id="ytick_42">
     <g id="line2d_62"/>
    </g>
    <g id="ytick_43">
     <g id="line2d_63"/>
    </g>
    <g id="ytick_44">
     <g id="line2d_64"/>
    </g>
    <g id="ytick_45">
     <g id="line2d_65"/>
    </g>
    <g id="ytick_46">
     <g id="line2d_66"/>
    </g>
    <g id="ytick_47">
     <g id="line2d_67"/>
    </g>
    <g id="ytick_48">
     <g id="line2d_68"/>
    </g>
    <g id="ytick_49">
     <g id="line2d_69"/>
    </g>
    <g id="ytick_50">
     <g id="line2d_70"/>
    </g>
    <g id="ytick_51">
     <g id="line2d_71"/>
    </g>
    <g id="ytick_52">
     <g id="line2d_72"/>
    </g>
    <g id="ytick_53">
     <g id="line2d_73"/>
    </g>
    <g id="ytick_54">
     <g id="line2d_74"/>
    </g>
   </g>
   <g id="line2d_75">
    <path d="M 75.557818 288.160067 
L 75.557818 283.463791 
L 76.255264 283.463791 
L 76.255264 278.268378 
L 76.952709 278.268378 
L 76.952709 279.626655 
L 77.650155 279.626655 
L 77.650155 281.078678 
L 78.3476 281.078678 
L 78.3476 280.340146 
L 79.045046 280.340146 
L 79.045046 281.078678 
L 80.439937 281.078678 
L 80.439937 282.638353 
L 81.137382 282.638353 
L 81.137382 285.218639 
L 82.532273 285.218639 
L 82.532273 283.463791 
L 83.229719 283.463791 
L 83.229719 282.638353 
L 83.927164 282.638353 
L 83.927164 283.463791 
L 84.62461 283.463791 
L 84.62461 281.844071 
L 85.322055 281.844071 
L 85.322055 279.626655 
L 86.716947 279.626655 
L 86.716947 278.268378 
L 87.414392 278.268378 
L 87.414392 275.789518 
L 88.111838 275.789518 
L 88.111838 273.572103 
L 88.809283 273.572103 
L 88.809283 274.65162 
L 89.506729 274.65162 
L 89.506729 271.566206 
L 90.204174 271.566206 
L 90.204174 271.093243 
L 90.90162 271.093243 
L 90.90162 256.04271 
L 92.296511 256.04271 
L 92.296511 254.928906 
L 92.993956 254.928906 
L 92.993956 252.668141 
L 93.691402 252.668141 
L 93.691402 253.261025 
L 94.388847 253.261025 
L 94.388847 256.978241 
L 95.086293 256.978241 
L 95.086293 254.287862 
L 95.783738 254.287862 
L 95.783738 254.928906 
L 96.481184 254.928906 
L 96.481184 256.04271 
L 97.178629 256.04271 
L 97.178629 256.978241 
L 97.876075 256.978241 
L 97.876075 256.272723 
L 98.57352 256.272723 
L 98.57352 257.21877 
L 99.270966 257.21877 
L 99.270966 259.248871 
L 99.968411 259.248871 
L 99.968411 256.740431 
L 100.665857 256.740431 
L 100.665857 258.984138 
L 102.060748 258.984138 
L 102.060748 260.342415 
L 102.758194 260.342415 
L 102.758194 260.063656 
L 103.455639 260.063656 
L 103.455639 254.713048 
L 104.153085 254.713048 
L 104.153085 250.450726 
L 104.85053 250.450726 
L 104.85053 247.509298 
L 105.547976 247.509298 
L 105.547976 242.152467 
L 106.245421 242.152467 
L 106.245421 224.387921 
L 106.942867 224.387921 
L 106.942867 227.564502 
L 107.640312 227.564502 
L 107.640312 225.590876 
L 108.337758 225.590876 
L 108.337758 214.732671 
L 109.035203 214.732671 
L 109.035203 209.322475 
L 109.732649 209.322475 
L 109.732649 213.394486 
L 110.430094 213.394486 
L 110.430094 212.537759 
L 111.12754 212.537759 
L 111.12754 208.807038 
L 111.824985 208.807038 
L 111.824985 206.533929 
L 112.522431 206.533929 
L 112.522431 192.263935 
L 113.219876 192.263935 
L 113.219876 181.125606 
L 113.917322 181.125606 
L 113.917322 187.702875 
L 114.614767 187.702875 
L 114.614767 192.46374 
L 115.312213 192.46374 
L 115.312213 196.754078 
L 116.009658 196.754078 
L 116.009658 193.954037 
L 116.707104 193.954037 
L 116.707104 194.2312 
L 117.404549 194.2312 
L 117.404549 196.280811 
L 118.101995 196.280811 
L 118.101995 195.804876 
L 118.799441 195.804876 
L 118.799441 197.196295 
L 119.496886 197.196295 
L 119.496886 198.373799 
L 120.194332 198.373799 
L 120.194332 197.949794 
L 120.891777 197.949794 
L 120.891777 198.851798 
L 121.589223 198.851798 
L 121.589223 198.59651 
L 122.286668 198.59651 
L 122.286668 197.891976 
L 122.984114 197.891976 
L 122.984114 202.886265 
L 123.681559 202.886265 
L 123.681559 206.555704 
L 124.379005 206.555704 
L 124.379005 205.975533 
L 125.07645 205.975533 
L 125.07645 203.14405 
L 125.773896 203.14405 
L 125.773896 202.433646 
L 126.471341 202.433646 
L 126.471341 203.255503 
L 127.168787 203.255503 
L 127.168787 206.951565 
L 127.866232 206.951565 
L 127.866232 209.347338 
L 128.563678 209.347338 
L 128.563678 209.82539 
L 129.261123 209.82539 
L 129.261123 214.068505 
L 129.958569 214.068505 
L 129.958569 215.922399 
L 130.656014 215.922399 
L 130.656014 220.331642 
L 131.35346 220.331642 
L 131.35346 215.956427 
L 132.050905 215.956427 
L 132.050905 218.448061 
L 132.748351 218.448061 
L 132.748351 220.669737 
L 133.445796 220.669737 
L 133.445796 220.164609 
L 134.143242 220.164609 
L 134.143242 221.318688 
L 134.840688 221.318688 
L 134.840688 224.286495 
L 135.538133 224.286495 
L 135.538133 225.059384 
L 136.235579 225.059384 
L 136.235579 234.259286 
L 136.933024 234.259286 
L 136.933024 229.033423 
L 137.63047 229.033423 
L 137.63047 230.476391 
L 138.327915 230.476391 
L 138.327915 228.656469 
L 139.025361 228.656469 
L 139.025361 229.677081 
L 139.722806 229.677081 
L 139.722806 229.874081 
L 140.420252 229.874081 
L 140.420252 230.40861 
L 141.117697 230.40861 
L 141.117697 234.178184 
L 141.815143 234.178184 
L 141.815143 235.428808 
L 142.512588 235.428808 
L 142.512588 235.172667 
L 143.210034 235.172667 
L 143.210034 233.856865 
L 143.907479 233.856865 
L 143.907479 230.206567 
L 144.604925 230.206567 
L 144.604925 230.74972 
L 145.30237 230.74972 
L 145.30237 230.341047 
L 145.999816 230.341047 
L 145.999816 229.417251 
L 146.697261 229.417251 
L 146.697261 228.781372 
L 147.394707 228.781372 
L 147.394707 225.217427 
L 148.092152 225.217427 
L 148.092152 223.836028 
L 148.789598 223.836028 
L 148.789598 222.77385 
L 149.487043 222.77385 
L 149.487043 218.913185 
L 150.184489 218.913185 
L 150.184489 213.154643 
L 150.881935 213.154643 
L 150.881935 213.035739 
L 151.57938 213.035739 
L 151.57938 213.214348 
L 152.276826 213.214348 
L 152.276826 215.319129 
L 152.974271 215.319129 
L 152.974271 214.991304 
L 153.671717 214.991304 
L 153.671717 217.658039 
L 154.369162 217.658039 
L 154.369162 217.843467 
L 155.066608 217.843467 
L 155.066608 216.613627 
L 155.764053 216.613627 
L 155.764053 217.147366 
L 157.158944 217.219565 
L 157.158944 221.539529 
L 157.85639 221.539529 
L 157.85639 222.633073 
L 158.553835 222.633073 
L 158.553835 219.71199 
L 159.251281 219.71199 
L 159.251281 220.50001 
L 159.948726 220.50001 
L 159.948726 221.230996 
L 160.646172 221.230996 
L 160.646172 220.206243 
L 161.343617 220.206243 
L 161.343617 220.50001 
L 162.041063 220.50001 
L 162.041063 218.640615 
L 162.738508 218.640615 
L 162.738508 219.469149 
L 163.435954 219.469149 
L 163.435954 221.230996 
L 164.133399 221.230996 
L 164.133399 221.406747 
L 164.830845 221.406747 
L 164.830845 220.669737 
L 166.225736 220.584703 
L 166.225736 221.274797 
L 166.923182 221.274797 
L 166.923182 220.542314 
L 168.318073 220.457792 
L 168.318073 219.428946 
L 169.015518 219.428946 
L 169.015518 219.630731 
L 169.712964 219.630731 
L 169.712964 220.040199 
L 170.410409 220.040199 
L 170.410409 219.671321 
L 171.107855 219.671321 
L 171.107855 219.998892 
L 172.502746 219.998892 
L 172.502746 220.206243 
L 173.200191 220.206243 
L 173.200191 219.875455 
L 175.292528 219.793563 
L 175.292528 219.671321 
L 175.989973 219.671321 
L 175.989973 219.308798 
L 176.687419 219.308798 
L 176.687419 218.181412 
L 178.08231 218.105843 
L 178.08231 215.652142 
L 178.779755 215.652142 
L 178.779755 214.700564 
L 179.477201 214.700564 
L 179.477201 214.445458 
L 180.174646 214.445458 
L 180.174646 214.636497 
L 180.872092 214.636497 
L 180.872092 214.224749 
L 181.569537 214.224749 
L 181.569537 214.068505 
L 182.266983 214.068505 
L 182.266983 213.394486 
L 182.964428 213.394486 
L 182.964428 210.922327 
L 183.661874 210.922327 
L 183.661874 206.973777 
L 184.35932 206.973777 
L 184.35932 206.840855 
L 185.056765 206.840855 
L 185.056765 208.518072 
L 185.754211 208.518072 
L 185.754211 208.162357 
L 186.451656 208.162357 
L 186.451656 205.576644 
L 187.149102 205.576644 
L 187.149102 203.386281 
L 187.846547 203.386281 
L 187.846547 202.704048 
L 188.543993 202.704048 
L 188.543993 201.470876 
L 189.241438 201.470876 
L 189.241438 198.036821 
L 189.938884 198.036821 
L 189.938884 205.28749 
L 190.636329 205.28749 
L 190.636329 203.840938 
L 191.333775 203.840938 
L 191.333775 203.994699 
L 192.03122 203.994699 
L 192.03122 204.760807 
L 192.728666 204.760807 
L 192.728666 203.311451 
L 194.123557 203.367549 
L 194.123557 202.273057 
L 194.821002 202.273057 
L 194.821002 200.913669 
L 195.518448 200.913669 
L 195.518448 201.505125 
L 196.215893 201.505125 
L 196.215893 201.198872 
L 196.913339 201.198872 
L 196.913339 200.997152 
L 197.610784 200.997152 
L 197.610784 200.354603 
L 198.30823 200.354603 
L 198.30823 201.470876 
L 199.005675 201.470876 
L 199.005675 201.8159 
L 199.703121 201.8159 
L 199.703121 202.025662 
L 200.400567 202.025662 
L 200.400567 202.344279 
L 201.098012 202.344279 
L 201.098012 202.776746 
L 201.795458 202.776746 
L 201.795458 203.956153 
L 202.492903 203.956153 
L 202.492903 203.707312 
L 203.190349 203.707312 
L 203.190349 203.879273 
L 204.58524 203.917678 
L 204.58524 203.688292 
L 205.282685 203.688292 
L 205.282685 202.308638 
L 205.980131 202.308638 
L 205.980131 201.436683 
L 206.677576 201.436683 
L 206.677576 200.93034 
L 208.072467 200.863738 
L 208.072467 200.160778 
L 208.769913 200.160778 
L 208.769913 199.433892 
L 209.467358 199.433892 
L 209.467358 199.049129 
L 210.164804 199.049129 
L 210.164804 199.310001 
L 211.559695 199.202191 
L 211.559695 199.589789 
L 212.25714 199.589789 
L 212.25714 199.279142 
L 212.954586 199.279142 
L 212.954586 199.48054 
L 214.349477 199.44943 
L 214.349477 198.761342 
L 215.046922 198.761342 
L 215.046922 198.28537 
L 215.744368 198.28537 
L 215.744368 196.563492 
L 216.441814 196.563492 
L 216.441814 194.499772 
L 217.139259 194.499772 
L 217.139259 192.83505 
L 217.836705 192.83505 
L 217.836705 191.472517 
L 218.53415 191.472517 
L 218.53415 190.212891 
L 219.231596 190.212891 
L 219.231596 189.688323 
L 219.929041 189.688323 
L 219.929041 187.428916 
L 220.626487 187.428916 
L 220.626487 184.76841 
L 221.323932 184.76841 
L 221.323932 184.939327 
L 222.021378 184.939327 
L 222.021378 182.344645 
L 222.718823 182.344645 
L 222.718823 181.880878 
L 223.416269 181.880878 
L 223.416269 179.917951 
L 224.113714 179.917951 
L 224.113714 175.624927 
L 224.81116 175.624927 
L 224.81116 173.894145 
L 225.508605 173.894145 
L 225.508605 173.320501 
L 226.206051 173.320501 
L 226.206051 171.081538 
L 226.903496 171.081538 
L 226.903496 164.799069 
L 227.600942 164.799069 
L 227.600942 162.384552 
L 228.298387 162.384552 
L 228.298387 159.008301 
L 228.995833 159.008301 
L 228.995833 151.684537 
L 229.693278 151.684537 
L 229.693278 147.046177 
L 230.390724 147.046177 
L 230.390724 152.688092 
L 231.088169 152.688092 
L 231.088169 165.453243 
L 231.785615 165.453243 
L 231.785615 153.720658 
L 232.483061 153.720658 
L 232.483061 149.913629 
L 233.180506 149.913629 
L 233.180506 152.09006 
L 233.877952 152.09006 
L 233.877952 154.063225 
L 234.575397 154.063225 
L 234.575397 154.247508 
L 235.272843 154.247508 
L 235.272843 154.853149 
L 235.970288 154.853149 
L 235.970288 153.885893 
L 236.667734 153.885893 
L 236.667734 152.956024 
L 238.062625 153.062101 
L 238.062625 151.526085 
L 239.457516 151.476713 
L 239.457516 153.110183 
L 240.154961 153.110183 
L 240.154961 153.711811 
L 240.852407 153.711811 
L 240.852407 156.121352 
L 241.549852 156.121352 
L 241.549852 157.371733 
L 242.247298 157.371733 
L 242.247298 155.867011 
L 242.944743 155.867011 
L 242.944743 155.679709 
L 243.642189 155.679709 
L 243.642189 156.542085 
L 244.339634 156.542085 
L 244.339634 157.954395 
L 245.03708 157.954395 
L 245.03708 162.053279 
L 245.734525 162.053279 
L 245.734525 163.008061 
L 246.431971 163.008061 
L 246.431971 158.671991 
L 247.129416 158.671991 
L 247.129416 157.997722 
L 247.826862 157.997722 
L 247.826862 159.72807 
L 248.524308 159.72807 
L 248.524308 158.555875 
L 249.221753 158.555875 
L 249.221753 157.642915 
L 249.919199 157.642915 
L 249.919199 156.416991 
L 250.616644 156.416991 
L 250.616644 155.998727 
L 251.31409 155.998727 
L 251.31409 156.786335 
L 252.011535 156.786335 
L 252.011535 155.486359 
L 252.708981 155.486359 
L 252.708981 157.428646 
L 253.406426 157.428646 
L 253.406426 155.279517 
L 254.103872 155.279517 
L 254.103872 154.743248 
L 254.801317 154.743248 
L 254.801317 153.79512 
L 255.498763 153.79512 
L 255.498763 151.831244 
L 256.196208 151.831244 
L 256.196208 153.953783 
L 256.893654 153.953783 
L 256.893654 153.179062 
L 257.591099 153.179062 
L 257.591099 152.831808 
L 258.288545 152.831808 
L 258.288545 152.317301 
L 258.98599 152.317301 
L 258.98599 153.022688 
L 259.683436 153.022688 
L 259.683436 152.730259 
L 260.380881 152.730259 
L 260.380881 152.461834 
L 261.078327 152.461834 
L 261.078327 153.192865 
L 261.775772 153.192865 
L 261.775772 152.819936 
L 262.473218 152.819936 
L 262.473218 152.239631 
L 263.170663 152.239631 
L 263.170663 150.560003 
L 263.868109 150.560003 
L 263.868109 144.293307 
L 264.565555 144.293307 
L 264.565555 143.276811 
L 265.263 143.276811 
L 265.263 142.065717 
L 265.960446 142.065717 
L 265.960446 142.466214 
L 266.657891 142.466214 
L 266.657891 137.866369 
L 267.355337 137.866369 
L 267.355337 132.24025 
L 268.052782 132.24025 
L 268.052782 128.56316 
L 268.750228 128.56316 
L 268.750228 124.574837 
L 269.447673 124.574837 
L 269.447673 115.915673 
L 270.145119 115.915673 
L 270.145119 113.224037 
L 270.842564 113.224037 
L 270.842564 106.261724 
L 271.54001 106.261724 
L 271.54001 107.876309 
L 272.237455 107.876309 
L 272.237455 116.236987 
L 272.934901 116.236987 
L 272.934901 111.672484 
L 273.632346 111.672484 
L 273.632346 112.00877 
L 274.329792 112.00877 
L 274.329792 116.860602 
L 275.027237 116.860602 
L 275.027237 117.652605 
L 275.724683 117.652605 
L 275.724683 115.705029 
L 276.422128 115.705029 
L 276.422128 115.47317 
L 277.119574 115.47317 
L 277.119574 112.860817 
L 277.817019 112.860817 
L 277.817019 112.999422 
L 278.514465 112.999422 
L 278.514465 112.475814 
L 279.21191 112.475814 
L 279.21191 113.157225 
L 279.909356 113.157225 
L 279.909356 112.884448 
L 280.606802 112.884448 
L 280.606802 114.135929 
L 281.304247 114.135929 
L 281.304247 113.985909 
L 282.001693 113.985909 
L 282.001693 113.159028 
L 282.699138 113.159028 
L 282.699138 114.109503 
L 283.396584 114.109503 
L 283.396584 116.797127 
L 284.094029 116.797127 
L 284.094029 119.310307 
L 284.791475 119.310307 
L 284.791475 118.632682 
L 285.48892 118.632682 
L 285.48892 120.389825 
L 286.186366 120.389825 
L 286.186366 121.128252 
L 286.883811 121.128252 
L 286.883811 120.830952 
L 287.581257 120.830952 
L 287.581257 117.313822 
L 288.278702 117.313822 
L 288.278702 118.303194 
L 289.673593 118.266719 
L 289.673593 118.808811 
L 290.371039 118.808811 
L 290.371039 120.631263 
L 291.068484 120.631263 
L 291.068484 120.162619 
L 291.76593 120.162619 
L 291.76593 123.920505 
L 292.463375 123.920505 
L 292.463375 126.227832 
L 293.160821 126.227832 
L 293.160821 125.341871 
L 293.858266 125.341871 
L 293.858266 129.88933 
L 294.555712 129.88933 
L 294.555712 125.266644 
L 295.253157 125.266644 
L 295.253157 124.262146 
L 295.950603 124.262146 
L 295.950603 123.984168 
L 296.648049 123.984168 
L 296.648049 125.182562 
L 297.345494 125.182562 
L 297.345494 125.618007 
L 298.04294 125.618007 
L 298.04294 126.341728 
L 299.437831 126.300328 
L 299.437831 126.068835 
L 300.135276 126.068835 
L 300.135276 125.753932 
L 300.832722 125.753932 
L 300.832722 124.001408 
L 301.530167 124.001408 
L 301.530167 122.352149 
L 302.227613 122.352149 
L 302.227613 120.335419 
L 302.925058 120.335419 
L 302.925058 118.60764 
L 303.622504 118.60764 
L 303.622504 117.605145 
L 304.319949 117.605145 
L 304.319949 118.01217 
L 305.017395 118.01217 
L 305.017395 119.956687 
L 305.71484 119.956687 
L 305.71484 119.379423 
L 306.412286 119.379423 
L 306.412286 119.977688 
L 307.109731 119.977688 
L 307.109731 121.081662 
L 307.807177 121.081662 
L 307.807177 119.658533 
L 308.504622 119.658533 
L 308.504622 118.124706 
L 309.202068 118.124706 
L 309.202068 118.820942 
L 309.899513 118.820942 
L 309.899513 118.498142 
L 310.596959 118.498142 
L 310.596959 118.830383 
L 311.294404 118.830383 
L 311.294404 118.631345 
L 311.99185 118.631345 
L 311.99185 118.953497 
L 312.689296 118.953497 
L 312.689296 119.881042 
L 313.386741 119.881042 
L 313.386741 120.29778 
L 314.084187 120.29778 
L 314.084187 120.06548 
L 315.479078 120.048321 
L 315.479078 120.774285 
L 316.176523 120.774285 
L 316.176523 122.513428 
L 316.873969 122.513428 
L 316.873969 122.717693 
L 317.571414 122.717693 
L 317.571414 123.160006 
L 318.966305 123.218914 
L 318.966305 124.514665 
L 319.663751 124.514665 
L 319.663751 124.096912 
L 320.361196 124.096912 
L 320.361196 124.648071 
L 321.058642 124.648071 
L 321.058642 124.489938 
L 321.756087 124.489938 
L 321.756087 125.531122 
L 322.453533 125.531122 
L 322.453533 128.131174 
L 323.150978 128.131174 
L 323.150978 127.662163 
L 323.848424 127.662163 
L 323.848424 129.613386 
L 324.545869 129.613386 
L 324.545869 130.473416 
L 325.243315 130.473416 
L 325.243315 131.982901 
L 325.94076 131.982901 
L 325.94076 130.295319 
L 326.638206 130.295319 
L 326.638206 128.464854 
L 327.335651 128.464854 
L 327.335651 128.754674 
L 328.033097 128.754674 
L 328.033097 130.573341 
L 328.730542 130.573341 
L 328.730542 130.947845 
L 329.427988 130.947845 
L 329.427988 131.749211 
L 330.125434 131.749211 
L 330.125434 132.225587 
L 330.822879 132.225587 
L 330.822879 131.186705 
L 331.520325 131.186705 
L 331.520325 127.155239 
L 332.21777 127.155239 
L 332.21777 128.731449 
L 332.915216 128.731449 
L 332.915216 130.616396 
L 333.612661 130.616396 
L 333.612661 129.573456 
L 334.310107 129.573456 
L 334.310107 129.439041 
L 335.007552 129.439041 
L 335.007552 129.292169 
L 335.704998 129.292169 
L 335.704998 129.547065 
L 336.402443 129.547065 
L 336.402443 131.074779 
L 337.099889 131.074779 
L 337.099889 130.538019 
L 337.797334 130.538019 
L 337.797334 133.403177 
L 338.49478 133.403177 
L 338.49478 132.114352 
L 339.192225 132.114352 
L 339.192225 132.244077 
L 339.889671 132.244077 
L 339.889671 133.488272 
L 340.587116 133.488272 
L 340.587116 135.31902 
L 341.284562 135.31902 
L 341.284562 134.387629 
L 341.982007 134.387629 
L 341.982007 136.488521 
L 342.679453 136.488521 
L 342.679453 141.731687 
L 343.376898 141.731687 
L 343.376898 141.158864 
L 344.074344 141.158864 
L 344.074344 139.501359 
L 344.771789 139.501359 
L 344.771789 136.974826 
L 345.469235 136.974826 
L 345.469235 140.845533 
L 346.166681 140.845533 
L 346.166681 140.141354 
L 346.864126 140.141354 
L 346.864126 140.401023 
L 347.561572 140.401023 
L 347.561572 140.551939 
L 348.259017 140.551939 
L 348.259017 139.430339 
L 348.956463 139.430339 
L 348.956463 138.441572 
L 349.653908 138.441572 
L 349.653908 138.947685 
L 350.351354 138.947685 
L 350.351354 137.790683 
L 351.048799 137.790683 
L 351.048799 136.458886 
L 351.746245 136.458886 
L 351.746245 136.077387 
L 352.44369 136.077387 
L 352.44369 134.607005 
L 353.141136 134.607005 
L 353.141136 135.011955 
L 353.838581 135.011955 
L 353.838581 137.088541 
L 354.536027 137.088541 
L 354.536027 138.508469 
L 355.233472 138.508469 
L 355.233472 137.835563 
L 355.930918 137.835563 
L 355.930918 138.380863 
L 356.628363 138.380863 
L 356.628363 137.215795 
L 357.325809 137.215795 
L 357.325809 138.680978 
L 358.023254 138.680978 
L 358.023254 140.487667 
L 359.418145 140.522614 
L 359.418145 139.309526 
L 360.115591 139.309526 
L 360.115591 140.18038 
L 361.510482 140.242786 
L 361.510482 138.98895 
L 362.207928 138.98895 
L 362.207928 139.192952 
L 362.905373 139.192952 
L 362.905373 138.85928 
L 363.602819 138.85928 
L 363.602819 139.174324 
L 364.300264 139.174324 
L 364.300264 139.710414 
L 364.99771 139.710414 
L 364.99771 139.139774 
L 365.695155 139.139774 
L 365.695155 139.357768 
L 366.392601 139.357768 
L 366.392601 139.990579 
L 367.090046 139.990579 
L 367.090046 140.499939 
L 367.787492 140.499939 
L 367.787492 140.053348 
L 368.484937 140.053348 
L 368.484937 139.874765 
L 369.182383 139.874765 
L 369.182383 138.084967 
L 369.879828 138.084967 
L 369.879828 138.529956 
L 370.577274 138.529956 
L 370.577274 138.924891 
L 371.274719 138.924891 
L 371.274719 138.204012 
L 371.972165 138.204012 
L 371.972165 137.692945 
L 372.66961 137.692945 
L 372.66961 136.578459 
L 373.367056 136.578459 
L 373.367056 135.331573 
L 374.064501 135.331573 
L 374.064501 135.111133 
L 374.761947 135.111133 
L 374.761947 135.944643 
L 376.156838 135.851309 
L 376.156838 134.755973 
L 376.854283 134.755973 
L 376.854283 135.072427 
L 377.551729 135.072427 
L 377.551729 135.614154 
L 378.249175 135.614154 
L 378.249175 135.749344 
L 378.94662 135.749344 
L 378.94662 136.387312 
L 379.644066 136.387312 
L 379.644066 137.142409 
L 380.341511 137.142409 
L 380.341511 140.184101 
L 381.038957 140.184101 
L 381.038957 140.009021 
L 381.736402 140.009021 
L 381.736402 140.290413 
L 382.433848 140.290413 
L 382.433848 139.815268 
L 383.828739 139.771439 
L 383.828739 138.576442 
L 384.526184 138.576442 
L 384.526184 139.409707 
L 385.22363 139.409707 
L 385.22363 139.991501 
L 385.921075 139.991501 
L 385.921075 139.823496 
L 386.618521 139.823496 
L 386.618521 139.475261 
L 387.315966 139.475261 
L 387.315966 139.017973 
L 388.013412 139.017973 
L 388.013412 139.138889 
L 388.710857 139.138889 
L 388.710857 138.354411 
L 390.105748 138.446711 
L 390.105748 137.87637 
L 390.803194 137.87637 
L 390.803194 137.173829 
L 391.500639 137.173829 
L 391.500639 136.127191 
L 392.198085 136.127191 
L 392.198085 135.201234 
L 392.89553 135.201234 
L 392.89553 132.357285 
L 393.592976 132.357285 
L 393.592976 127.956149 
L 394.290422 127.956149 
L 394.290422 128.885863 
L 394.987867 128.885863 
L 394.987867 133.625415 
L 395.685313 133.625415 
L 395.685313 132.955721 
L 396.382758 132.955721 
L 396.382758 132.503369 
L 397.080204 132.503369 
L 397.080204 132.660231 
L 397.777649 132.660231 
L 397.777649 130.526258 
L 398.475095 130.526258 
L 398.475095 130.258719 
L 399.17254 130.258719 
L 399.17254 128.88967 
L 399.869986 128.88967 
L 399.869986 127.341381 
L 400.567431 127.341381 
L 400.567431 126.504265 
L 401.264877 126.504265 
L 401.264877 125.407224 
L 401.962322 125.407224 
L 401.962322 126.264769 
L 402.659768 126.264769 
L 402.659768 125.457065 
L 403.357213 125.457065 
L 403.357213 126.512036 
L 404.752104 126.534881 
L 404.752104 126.705785 
L 405.44955 126.705785 
L 405.44955 125.78629 
L 406.146995 125.78629 
L 406.146995 126.691571 
L 406.844441 126.691571 
L 406.844441 128.969229 
L 407.541886 128.969229 
L 407.541886 129.1882 
L 408.239332 129.1882 
L 408.239332 128.635042 
L 408.936777 128.635042 
L 408.936777 129.460266 
L 409.634223 129.460266 
L 409.634223 129.920151 
L 410.331669 129.920151 
L 410.331669 129.549871 
L 411.029114 129.549871 
L 411.029114 129.38106 
L 411.72656 129.38106 
L 411.72656 128.233201 
L 412.424005 128.233201 
L 412.424005 127.16576 
L 413.818896 127.202373 
L 413.818896 126.591857 
L 414.516342 126.591857 
L 414.516342 127.039855 
L 415.213787 127.039855 
L 415.213787 127.894325 
L 415.911233 127.894325 
L 415.911233 127.366156 
L 417.306124 127.417315 
L 417.306124 127.776892 
L 418.003569 127.776892 
L 418.003569 127.346435 
L 419.39846 127.317644 
L 419.39846 127.480804 
L 420.095906 127.480804 
L 420.095906 127.239553 
L 421.490797 127.167263 
L 421.490797 127.03338 
L 422.188242 127.03338 
L 422.188242 126.696472 
L 422.885688 126.696472 
L 422.885688 126.380314 
L 423.583133 126.380314 
L 423.583133 125.623129 
L 424.280579 125.623129 
L 424.280579 125.934177 
L 424.978024 125.934177 
L 424.978024 125.572894 
L 425.67547 125.572894 
L 425.67547 125.74222 
L 426.372916 125.74222 
L 426.372916 125.219992 
L 427.070361 125.219992 
L 427.070361 125.442285 
L 427.767807 125.442285 
L 427.767807 125.569177 
L 428.465252 125.569177 
L 428.465252 126.032715 
L 429.162698 126.032715 
L 429.162698 125.773622 
L 429.860143 125.773622 
L 429.860143 123.024975 
L 430.557589 123.024975 
L 430.557589 121.953691 
L 431.255034 121.953691 
L 431.255034 120.23712 
L 431.95248 120.23712 
L 431.95248 120.446192 
L 432.649925 120.446192 
L 432.649925 116.86398 
L 433.347371 116.86398 
L 433.347371 114.906978 
L 434.044816 114.906978 
L 434.044816 119.911907 
L 434.742262 119.911907 
L 434.742262 118.624999 
L 435.439707 118.624999 
L 435.439707 117.400292 
L 436.137153 117.400292 
L 436.137153 116.962809 
L 436.834598 116.962809 
L 436.834598 117.556839 
L 438.926935 117.610236 
L 438.926935 117.414475 
L 439.62438 117.414475 
L 439.62438 117.605145 
L 440.321826 117.605145 
L 440.321826 117.794988 
L 441.019271 117.794988 
L 441.019271 119.464054 
L 441.716717 119.464054 
L 441.716717 120.637509 
L 442.414163 120.637509 
L 442.414163 120.19174 
L 443.809054 120.250826 
L 443.809054 120.703759 
L 444.506499 120.703759 
L 444.506499 120.472063 
L 445.90139 120.526458 
L 445.90139 120.682389 
L 447.296281 120.663984 
L 447.296281 119.373886 
L 447.993727 119.373886 
L 447.993727 118.912153 
L 448.691172 118.912153 
L 448.691172 119.345182 
L 450.086063 119.403321 
L 450.086063 119.866867 
L 450.783509 119.866867 
L 450.783509 119.421349 
L 452.875845 119.407827 
L 452.875845 119.156989 
L 453.573291 119.156989 
L 453.573291 118.459671 
L 454.270736 118.459671 
L 454.270736 118.333804 
L 454.968182 118.333804 
L 454.968182 118.668459 
L 455.665627 118.668459 
L 455.665627 118.171065 
L 456.363073 118.171065 
L 456.363073 116.841877 
L 457.060518 116.841877 
L 457.060518 115.629003 
L 457.757964 115.629003 
L 457.757964 116.30956 
L 458.45541 116.30956 
L 458.45541 115.777246 
L 459.152855 115.777246 
L 459.152855 116.402508 
L 459.850301 116.402508 
L 459.850301 115.334472 
L 461.942637 115.327903 
L 461.942637 115.530175 
L 462.640083 115.530175 
L 462.640083 114.601063 
L 464.034974 114.504464 
L 464.034974 114.457563 
L 464.732419 114.457563 
L 464.732419 114.247929 
L 465.429865 114.247929 
L 465.429865 113.840941 
L 466.12731 113.840941 
L 466.12731 110.80152 
L 466.824756 110.80152 
L 466.824756 110.426983 
L 467.522201 110.426983 
L 467.522201 109.660653 
L 468.219647 109.660653 
L 468.219647 106.726928 
L 468.917092 106.726928 
L 468.917092 110.880886 
L 469.614538 110.880886 
L 469.614538 113.458911 
L 470.311983 113.458911 
L 470.311983 112.814649 
L 471.009429 112.814649 
L 471.009429 111.226974 
L 471.706874 111.226974 
L 471.706874 111.51205 
L 472.40432 111.51205 
L 472.40432 110.693795 
L 473.101765 110.693795 
L 473.101765 109.259222 
L 473.799211 109.259222 
L 473.799211 108.675447 
L 474.496656 108.675447 
L 474.496656 109.218172 
L 475.194102 109.218172 
L 475.194102 108.882114 
L 475.891548 108.882114 
L 475.891548 107.789515 
L 476.588993 107.789515 
L 476.588993 106.428494 
L 477.286439 106.428494 
L 477.286439 105.959156 
L 477.983884 105.959156 
L 477.983884 104.636608 
L 478.68133 104.636608 
L 478.68133 103.859781 
L 479.378775 103.859781 
L 479.378775 105.209405 
L 480.076221 105.209405 
L 480.076221 104.367907 
L 480.773666 104.367907 
L 480.773666 107.516876 
L 481.471112 107.516876 
L 481.471112 106.654191 
L 482.168557 106.654191 
L 482.168557 109.72685 
L 482.866003 109.72685 
L 482.866003 108.086571 
L 483.563448 108.086571 
L 483.563448 107.287828 
L 484.260894 107.287828 
L 484.260894 105.180471 
L 484.958339 105.180471 
L 484.958339 104.895735 
L 485.655785 104.895735 
L 485.655785 105.596581 
L 486.35323 105.596581 
L 486.35323 105.049182 
L 487.050676 105.049182 
L 487.050676 104.495172 
L 487.748121 104.495172 
L 487.748121 103.580486 
L 488.445567 103.580486 
L 488.445567 102.51666 
L 489.143012 102.51666 
L 489.143012 99.857958 
L 489.840458 99.857958 
L 489.840458 98.35402 
L 490.537903 98.35402 
L 490.537903 97.828091 
L 491.235349 97.828091 
L 491.235349 97.628758 
L 491.932795 97.628758 
L 491.932795 94.226571 
L 492.63024 94.226571 
L 492.63024 90.294643 
L 493.327686 90.294643 
L 493.327686 92.531004 
L 494.025131 92.531004 
L 494.025131 90.395355 
L 494.722577 90.395355 
L 494.722577 88.010254 
L 495.420022 88.010254 
L 495.420022 87.049881 
L 496.117468 87.049881 
L 496.117468 87.956676 
L 496.814913 87.956676 
L 496.814913 88.558148 
L 497.512359 88.558148 
L 497.512359 88.327886 
L 498.209804 88.327886 
L 498.209804 89.606032 
L 498.90725 89.606032 
L 498.90725 89.275045 
L 500.302141 89.206926 
L 500.302141 89.599051 
L 500.999586 89.599051 
L 500.999586 91.278185 
L 501.697032 91.278185 
L 501.697032 94.613021 
L 502.394477 94.613021 
L 502.394477 91.698738 
L 503.091923 91.698738 
L 503.091923 87.629772 
L 503.789368 87.629772 
L 503.789368 88.344991 
L 504.486814 88.344991 
L 504.486814 86.77045 
L 505.881705 86.817403 
L 505.881705 83.097703 
L 506.57915 83.097703 
L 506.57915 80.434832 
L 507.276596 80.434832 
L 507.276596 77.841601 
L 507.974042 77.841601 
L 507.974042 79.446091 
L 508.671487 79.446091 
L 508.671487 78.054442 
L 509.368933 78.054442 
L 509.368933 77.837465 
L 510.066378 77.837465 
L 510.066378 75.424245 
L 510.763824 75.424245 
L 510.763824 77.797303 
L 511.461269 77.797303 
L 511.461269 78.058815 
L 512.158715 78.058815 
L 512.158715 80.452792 
L 512.85616 80.452792 
L 512.85616 81.494682 
L 513.553606 81.494682 
L 513.553606 81.943463 
L 514.251051 81.943463 
L 514.251051 80.09239 
L 514.948497 80.09239 
L 514.948497 78.884395 
L 515.645942 78.884395 
L 515.645942 78.168635 
L 516.343388 78.168635 
L 516.343388 77.537626 
L 517.040833 77.537626 
L 517.040833 75.797306 
L 517.738279 75.797306 
L 517.738279 72.308236 
L 519.13317 72.288019 
L 519.13317 71.549631 
L 519.830615 71.549631 
L 519.830615 72.021047 
L 520.528061 72.021047 
L 520.528061 69.786957 
L 521.225506 69.786957 
L 521.225506 66.881187 
L 521.922952 66.881187 
L 521.922952 66.590486 
L 522.620397 66.590486 
L 522.620397 71.587151 
L 523.317843 71.587151 
L 523.317843 65.491557 
L 524.015289 65.491557 
L 524.015289 64.514191 
L 525.41018 64.591005 
L 525.41018 60.618352 
L 526.107625 60.618352 
L 526.107625 58.608655 
L 526.805071 58.608655 
L 526.805071 53.601731 
L 527.502516 53.601731 
L 527.502516 51.817253 
L 528.199962 51.817253 
L 528.199962 50.025359 
L 528.897407 50.025359 
L 528.897407 47.036675 
L 529.594853 47.036675 
L 529.594853 53.704322 
L 530.292298 53.704322 
L 530.292298 50.98338 
L 530.989744 50.98338 
L 530.989744 55.562276 
L 531.687189 55.562276 
L 531.687189 51.858788 
L 532.384635 51.858788 
L 532.384635 50.303265 
L 533.08208 50.303265 
L 533.08208 54.468192 
L 533.779526 54.468192 
L 533.779526 54.046955 
L 534.476971 54.046955 
L 534.476971 57.493847 
L 535.174417 57.493847 
L 535.174417 58.766189 
L 535.871862 58.766189 
L 535.871862 57.631732 
L 536.569308 57.631732 
L 536.569308 60.022167 
L 537.266753 60.022167 
L 537.266753 64.618494 
L 538.661644 64.508396 
L 538.661644 62.909877 
L 539.35909 62.909877 
L 539.35909 60.074704 
L 540.056536 60.074704 
L 540.056536 57.975847 
L 540.753981 57.975847 
L 540.753981 61.08875 
L 541.451427 61.08875 
L 541.451427 59.759521 
L 542.148872 59.759521 
L 542.148872 57.47498 
L 542.846318 57.47498 
L 542.846318 61.919136 
L 543.543763 61.919136 
L 543.543763 62.362778 
L 544.241209 62.362778 
L 544.241209 64.374025 
L 544.938654 64.374025 
L 544.938654 62.876238 
L 545.6361 62.876238 
L 545.6361 63.784132 
L 546.333545 63.784132 
L 546.333545 65.273796 
L 547.030991 65.273796 
L 547.030991 68.478767 
L 547.728436 68.478767 
L 547.728436 68.605159 
L 549.123327 68.612138 
L 549.123327 65.420851 
L 550.518218 65.389048 
L 550.518218 62.827518 
L 551.215664 62.827518 
L 551.215664 62.970483 
L 551.913109 62.970483 
L 551.913109 61.752996 
L 552.610555 61.752996 
L 552.610555 60.972793 
L 553.308 60.972793 
L 553.308 61.818576 
L 554.005446 61.818576 
L 554.005446 64.124567 
L 554.702891 64.124567 
L 554.702891 63.939333 
L 555.400337 63.939333 
L 555.400337 64.51608 
L 556.097783 64.51608 
L 556.097783 66.468343 
L 556.795228 66.468343 
L 556.795228 66.942506 
L 557.492674 66.942506 
L 557.492674 66.530773 
L 558.887565 66.514453 
L 558.887565 66.179989 
L 559.58501 66.179989 
L 559.58501 69.342526 
L 560.282456 69.342526 
L 560.282456 69.55012 
L 560.979901 69.55012 
L 560.979901 68.685413 
L 561.677347 68.685413 
L 561.677347 70.654255 
L 562.374792 70.654255 
L 562.374792 71.629857 
L 563.072238 71.629857 
L 563.072238 69.107973 
L 564.467129 69.101146 
L 564.467129 70.073622 
L 565.164574 70.073622 
L 565.164574 70.34278 
L 565.86202 70.34278 
L 565.86202 66.866563 
L 567.256911 66.765305 
L 567.256911 65.302404 
L 567.954356 65.302404 
L 567.954356 64.697081 
L 568.651802 64.697081 
L 568.651802 66.742273 
L 569.349247 66.742273 
L 569.349247 68.818443 
L 570.046693 68.818443 
L 570.046693 70.413593 
L 570.744138 70.413593 
L 570.744138 70.269385 
L 571.441584 70.269385 
L 571.441584 69.556932 
L 572.13903 69.556932 
L 572.13903 69.429548 
L 572.836475 69.429548 
L 572.836475 68.252742 
L 573.533921 68.252742 
L 573.533921 67.897372 
L 574.231366 67.897372 
L 574.231366 66.900625 
L 574.928812 66.900625 
L 574.928812 70.562097 
L 575.626257 70.562097 
L 575.626257 70.084365 
L 576.323703 70.084365 
L 576.323703 69.521953 
L 577.718594 69.526326 
L 577.718594 69.244957 
L 578.416039 69.244957 
L 578.416039 69.100924 
L 579.113485 69.100924 
L 579.113485 69.44455 
L 579.81093 69.44455 
L 579.81093 69.276405 
L 581.205821 69.252567 
L 581.205821 70.287887 
L 581.903267 70.287887 
L 581.903267 69.482343 
L 583.298158 69.533228 
L 583.298158 69.603738 
L 583.995603 69.603738 
L 583.995603 70.165798 
L 584.693049 70.165798 
L 584.693049 69.967385 
L 585.390494 69.967385 
L 585.390494 69.394522 
L 586.08794 69.394522 
L 586.08794 69.811705 
L 586.785385 69.811705 
L 586.785385 72.430465 
L 587.482831 72.430465 
L 587.482831 75.681488 
L 588.180277 75.681488 
L 588.180277 77.951644 
L 588.877722 77.951644 
L 588.877722 80.653962 
L 589.575168 80.653962 
L 589.575168 78.764353 
L 590.272613 78.764353 
L 590.272613 81.117894 
L 590.970059 81.117894 
L 590.970059 82.016531 
L 591.667504 82.016531 
L 591.667504 83.728422 
L 592.36495 83.728422 
L 592.36495 82.204459 
L 593.062395 82.204459 
L 593.062395 80.265181 
L 593.759841 80.265181 
L 593.759841 80.692093 
L 594.457286 80.692093 
L 594.457286 80.975745 
L 595.154732 80.975745 
L 595.154732 80.095977 
L 595.852177 80.095977 
L 595.852177 79.357155 
L 596.549623 79.357155 
L 596.549623 81.680181 
L 597.247068 81.680181 
L 597.247068 81.472095 
L 597.944514 81.472095 
L 597.944514 81.798956 
L 598.641959 81.798956 
L 598.641959 82.022924 
L 600.03685 82.087852 
L 600.03685 82.722896 
L 601.431741 82.807858 
L 601.431741 83.184257 
L 602.129187 83.184257 
L 602.129187 81.777258 
L 602.826632 81.777258 
L 602.826632 81.900957 
L 603.524078 81.900957 
L 603.524078 80.121581 
L 604.221524 80.121581 
L 604.221524 79.009447 
L 604.918969 79.009447 
L 604.918969 80.627701 
L 606.31386 80.730347 
L 606.31386 80.335508 
L 607.708751 80.366558 
L 607.708751 80.068211 
L 608.406197 80.068211 
L 608.406197 79.578818 
L 610.498533 79.477725 
L 610.498533 79.139184 
L 611.195979 79.139184 
L 611.195979 75.412114 
L 611.893424 75.412114 
L 611.893424 73.933442 
L 612.59087 73.933442 
L 612.59087 74.730722 
L 613.288315 74.730722 
L 613.288315 74.223274 
L 613.985761 74.223274 
L 613.985761 73.772005 
L 614.683206 73.772005 
L 614.683206 73.282596 
L 615.380652 73.282596 
L 615.380652 73.803701 
L 616.078097 73.803701 
L 616.078097 73.453814 
L 616.775543 73.453814 
L 616.775543 72.33495 
L 617.472988 72.33495 
L 617.472988 70.011367 
L 618.170434 70.011367 
L 618.170434 65.1627 
L 618.867879 65.1627 
L 618.867879 67.171586 
L 619.565325 67.171586 
L 619.565325 66.151295 
L 620.26277 66.151295 
L 620.26277 63.27091 
L 620.960216 63.27091 
L 620.960216 64.438623 
L 621.657662 64.438623 
L 621.657662 64.79148 
L 622.355107 64.79148 
L 622.355107 65.14796 
L 623.052553 65.14796 
L 623.052553 65.361412 
L 623.749998 65.361412 
L 623.749998 62.995815 
L 624.447444 62.995815 
L 624.447444 62.01596 
L 625.144889 62.01596 
L 625.144889 58.799266 
L 625.842335 58.799266 
L 625.842335 58.188633 
L 626.53978 58.188633 
L 626.53978 59.263152 
L 627.237226 59.263152 
L 627.237226 58.527255 
L 627.934671 58.527255 
L 627.934671 55.605305 
L 628.632117 55.605305 
L 628.632117 57.709699 
L 629.329562 57.709699 
L 629.329562 61.144107 
L 630.027008 61.144107 
L 630.027008 59.24587 
L 630.724453 59.24587 
L 630.724453 60.711556 
L 631.421899 60.711556 
L 631.421899 61.523757 
L 632.119344 61.523757 
L 632.119344 59.361202 
L 632.81679 59.361202 
L 632.81679 57.568678 
L 633.514235 57.568678 
L 633.514235 57.908136 
L 634.211681 57.908136 
L 634.211681 60.411521 
L 634.909126 60.411521 
L 634.909126 59.78916 
L 635.606572 59.78916 
L 635.606572 60.212822 
L 636.304017 60.212822 
L 636.304017 59.70228 
L 637.001463 59.70228 
L 637.001463 61.354632 
L 637.698909 61.354632 
L 637.698909 59.17863 
L 638.396354 59.17863 
L 638.396354 59.446 
L 639.0938 59.446 
L 639.0938 60.114523 
L 639.791245 60.114523 
L 639.791245 59.80379 
L 641.186136 59.874433 
L 641.186136 61.12432 
L 641.883582 61.12432 
L 641.883582 64.639442 
L 642.581027 64.639442 
L 642.581027 64.310637 
L 643.278473 64.310637 
L 643.278473 64.758468 
L 643.975918 64.758468 
L 643.975918 63.650984 
L 644.673364 63.650984 
L 644.673364 64.409894 
L 645.370809 64.409894 
L 645.370809 64.942435 
L 646.068255 64.942435 
L 646.068255 64.56606 
L 646.7657 64.56606 
L 646.7657 63.458584 
L 647.463146 63.458584 
L 647.463146 61.674877 
L 648.160591 61.674877 
L 648.160591 61.971836 
L 649.555482 61.876656 
L 649.555482 62.577976 
L 650.252928 62.577976 
L 650.252928 63.542456 
L 650.950373 63.542456 
L 650.950373 64.685494 
L 651.647819 64.685494 
L 651.647819 67.109972 
L 652.345264 67.109972 
L 652.345264 67.467457 
L 653.04271 67.467457 
L 653.04271 66.340387 
L 653.740156 66.340387 
L 653.740156 67.381787 
L 654.437601 67.381787 
L 654.437601 66.439002 
L 655.135047 66.439002 
L 655.135047 67.392586 
L 655.832492 67.392586 
L 655.832492 68.319084 
L 656.529938 68.319084 
L 656.529938 67.38963 
L 657.227383 67.38963 
L 657.227383 67.213226 
L 657.924829 67.213226 
L 657.924829 67.067498 
L 658.622274 67.067498 
L 658.622274 67.432085 
L 659.31972 67.432085 
L 659.31972 66.922428 
L 660.017165 66.922428 
L 660.017165 65.628002 
L 660.714611 65.628002 
L 660.714611 64.868406 
L 661.412056 64.868406 
L 661.412056 62.89895 
L 662.109502 62.89895 
L 662.109502 63.324312 
L 662.806947 63.324312 
L 662.806947 64.299413 
L 663.504393 64.299413 
L 663.504393 62.020246 
L 664.899284 61.941583 
L 664.899284 60.967809 
L 665.596729 60.967809 
L 665.596729 60.755034 
L 666.294175 60.755034 
L 666.294175 59.685527 
L 666.99162 59.685527 
L 666.99162 60.070383 
L 667.689066 60.070383 
L 667.689066 61.154226 
L 668.386511 61.154226 
L 668.386511 63.172223 
L 669.083957 63.172223 
L 669.083957 63.783121 
L 669.781403 63.783121 
L 669.781403 62.5076 
L 670.478848 62.5076 
L 670.478848 65.323275 
L 671.176294 65.323275 
L 671.176294 72.616127 
L 671.873739 72.616127 
L 671.873739 73.581292 
L 672.571185 73.581292 
L 672.571185 70.542401 
L 673.26863 70.542401 
L 673.26863 68.880467 
L 673.966076 68.880467 
L 673.966076 71.603844 
L 674.663521 71.603844 
L 674.663521 68.535655 
L 675.360967 68.535655 
L 675.360967 66.946403 
L 676.058412 66.946403 
L 676.058412 68.338366 
L 677.453303 68.342316 
L 677.453303 67.188075 
L 678.150749 67.188075 
L 678.150749 67.563569 
L 678.848194 67.563569 
L 678.848194 65.949859 
L 679.54564 65.949859 
L 679.54564 63.551112 
L 680.243085 63.551112 
L 680.243085 62.933052 
L 680.940531 62.933052 
L 680.940531 60.825606 
L 681.637976 60.825606 
L 681.637976 63.102843 
L 682.335422 63.102843 
L 682.335422 61.781455 
L 683.032867 61.781455 
L 683.032867 61.503078 
L 683.730313 61.503078 
L 683.730313 63.303885 
L 684.427758 63.303885 
L 684.427758 61.373933 
L 685.125204 61.373933 
L 685.125204 60.021693 
L 685.82265 60.021693 
L 685.82265 61.254321 
L 686.520095 61.254321 
L 686.520095 60.925805 
L 687.217541 60.925805 
L 687.217541 61.585492 
L 688.612432 61.627054 
L 688.612432 62.008978 
L 690.007323 62.108791 
L 690.007323 62.235573 
L 690.704768 62.235573 
L 690.704768 62.495928 
L 691.402214 62.495928 
L 691.402214 62.073792 
L 692.797105 62.119931 
L 692.797105 62.216885 
L 694.191996 62.168523 
L 694.191996 61.277603 
L 694.889441 61.277603 
L 694.889441 58.360322 
L 695.586887 58.360322 
L 695.586887 57.793427 
L 696.284332 57.793427 
L 696.284332 58.072879 
L 696.981778 58.072879 
L 696.981778 57.021637 
L 697.679223 57.021637 
L 697.679223 57.372383 
L 698.376669 57.372383 
L 698.376669 56.761403 
L 699.77156 56.846703 
L 699.77156 57.028202 
L 700.469005 57.028202 
L 700.469005 57.442258 
L 701.166451 57.442258 
L 701.166451 56.745087 
L 701.863897 56.745087 
L 701.863897 60.113902 
L 702.561342 60.113902 
L 702.561342 59.973075 
L 703.258788 59.973075 
L 703.258788 59.762312 
L 703.956233 59.762312 
L 703.956233 58.548917 
L 704.653679 58.548917 
L 704.653679 59.560196 
L 705.351124 59.560196 
L 705.351124 59.03733 
L 706.04857 59.03733 
L 706.04857 58.748107 
L 706.746015 58.748107 
L 706.746015 59.316836 
L 707.443461 59.316836 
L 707.443461 59.080755 
L 708.140906 59.080755 
L 708.140906 57.732792 
L 708.838352 57.732792 
L 708.838352 57.498932 
L 709.535797 57.498932 
L 709.535797 57.038527 
L 710.233243 57.038527 
L 710.233243 55.015481 
L 710.930688 55.015481 
L 710.930688 53.896367 
L 711.628134 53.896367 
L 711.628134 53.652888 
L 712.325579 53.652888 
L 712.325579 53.13319 
L 713.023025 53.13319 
L 713.023025 51.236446 
L 713.72047 51.236446 
L 713.72047 50.170258 
L 714.417916 50.170258 
L 714.417916 49.622636 
L 715.115361 49.622636 
L 715.115361 47.287824 
L 715.812807 47.287824 
L 715.812807 46.748503 
L 716.510252 46.748503 
L 716.510252 48.391845 
L 717.207698 48.391845 
L 717.207698 46.688817 
L 717.905144 46.688817 
L 717.905144 46.524514 
L 718.602589 46.524514 
L 718.602589 47.788925 
L 719.300035 47.788925 
L 719.300035 46.634573 
L 719.99748 46.634573 
L 719.99748 42.780264 
L 720.694926 42.780264 
L 720.694926 42.176115 
L 721.392371 42.176115 
L 721.392371 39.981769 
L 722.089817 39.981769 
L 722.089817 38.143634 
L 722.787262 38.143634 
L 722.787262 35.319414 
L 723.484708 35.319414 
L 723.484708 31.543428 
L 724.182153 31.543428 
L 724.182153 33.7564 
L 724.879599 33.7564 
L 724.879599 33.0098 
L 725.577044 33.0098 
L 725.577044 33.476907 
L 726.27449 33.476907 
L 726.27449 35.902036 
L 726.971935 35.902036 
L 726.971935 37.033782 
L 727.669381 37.033782 
L 727.669381 35.233063 
L 728.366826 35.233063 
L 728.366826 32.910844 
L 729.064272 32.910844 
L 729.064272 28.16381 
L 729.761717 28.16381 
L 729.761717 27.667174 
L 730.459163 27.667174 
L 730.459163 26.931514 
L 731.156608 26.931514 
L 731.156608 24.189415 
L 731.854054 24.189415 
L 731.854054 26.313603 
L 732.551499 26.313603 
L 732.551499 28.739184 
L 733.248945 28.739184 
L 733.248945 27.238206 
L 733.946391 27.238206 
L 733.946391 25.628741 
L 734.643836 25.628741 
L 734.643836 23.724051 
L 735.341282 23.724051 
L 735.341282 23.864535 
L 736.038727 23.864535 
L 736.038727 23.420225 
L 736.736173 23.420225 
L 736.736173 25.544844 
L 737.433618 25.544844 
L 737.433618 24.27131 
L 738.131064 24.27131 
L 738.131064 23.185619 
L 738.828509 23.185619 
L 738.828509 23.072277 
L 739.525955 23.072277 
L 739.525955 23.414146 
L 740.2234 23.414146 
L 740.2234 21.526599 
L 740.920846 21.526599 
L 740.920846 22.707318 
L 741.618291 22.707318 
L 741.618291 25.02991 
L 742.315737 25.02991 
L 742.315737 26.967729 
L 743.013182 26.967729 
L 743.013182 25.11796 
L 743.710628 25.11796 
L 743.710628 23.738741 
L 745.105519 23.677421 
L 745.105519 23.909871 
L 745.802964 23.909871 
L 745.802964 27.995497 
L 746.50041 27.995497 
L 746.50041 32.932367 
L 747.197855 32.932367 
L 747.197855 34.229674 
L 747.895301 34.229674 
L 747.895301 32.105587 
L 748.592746 32.105587 
L 748.592746 32.736132 
L 749.290192 32.736132 
L 749.290192 32.977257 
L 749.987637 32.977257 
L 749.987637 35.034741 
L 750.685083 35.034741 
L 750.685083 33.78605 
L 751.382529 33.78605 
L 751.382529 32.171612 
L 752.079974 32.171612 
L 752.079974 33.728348 
L 752.77742 33.728348 
L 752.77742 34.299526 
L 753.474865 34.299526 
L 753.474865 34.41083 
L 754.172311 34.41083 
L 754.172311 34.780417 
L 754.869756 34.780417 
L 754.869756 34.561415 
L 755.567202 34.561415 
L 755.567202 34.993645 
L 756.264647 34.993645 
L 756.264647 35.438479 
L 756.962093 35.438479 
L 756.962093 36.110411 
L 757.659538 36.110411 
L 757.659538 35.772519 
L 758.356984 35.772519 
L 758.356984 32.731845 
L 759.054429 32.731845 
L 759.054429 30.137382 
L 759.751875 30.137382 
L 759.751875 32.274482 
L 760.44932 32.274482 
L 760.44932 28.964209 
L 761.146766 28.964209 
L 761.146766 28.508349 
L 761.844211 28.508349 
L 761.844211 27.851964 
L 762.541657 27.851964 
L 762.541657 27.996366 
L 763.239102 27.996366 
L 763.239102 26.77651 
L 763.936548 26.77651 
L 763.936548 26.975758 
L 764.633993 26.975758 
L 764.633993 27.807528 
L 765.331439 27.807528 
L 765.331439 26.597141 
L 766.028884 26.597141 
L 766.028884 28.293998 
L 767.423776 28.302797 
L 767.423776 27.528485 
L 768.121221 27.528485 
L 768.121221 29.797432 
L 769.516112 29.839663 
L 769.516112 30.745848 
L 770.213558 30.745848 
L 770.213558 27.554116 
L 770.911003 27.554116 
L 770.911003 24.437952 
L 771.608449 24.437952 
L 771.608449 24.712785 
L 772.305894 24.712785 
L 772.305894 23.671015 
L 773.00334 23.671015 
L 773.00334 22.057396 
L 773.700785 22.057396 
L 773.700785 22.494748 
L 774.398231 22.494748 
L 774.398231 22.617116 
L 775.095676 22.617116 
L 775.095676 22.139162 
L 775.793122 22.139162 
L 775.793122 21.726092 
L 776.490567 21.726092 
L 776.490567 21.61328 
L 777.188013 21.61328 
L 777.188013 21.105522 
L 777.885458 21.105522 
L 777.885458 21.51673 
L 778.582904 21.51673 
L 778.582904 23.403123 
L 779.280349 23.403123 
L 779.280349 23.604942 
L 779.977795 23.604942 
L 779.977795 24.645312 
L 780.67524 24.645312 
L 780.67524 23.732698 
L 781.372686 23.732698 
L 781.372686 26.837399 
L 782.070131 26.837399 
L 782.070131 27.583867 
L 782.767577 27.583867 
L 782.767577 27.986263 
L 783.465023 27.986263 
L 783.465023 28.250593 
L 784.162468 28.250593 
L 784.162468 27.028288 
L 784.859914 27.028288 
L 784.859914 26.377701 
L 785.557359 26.377701 
L 785.557359 28.143588 
L 786.254805 28.143588 
L 786.254805 27.730903 
L 786.95225 27.730903 
L 786.95225 29.690238 
L 787.649696 29.690238 
L 787.649696 30.32022 
L 788.347141 30.32022 
L 788.347141 29.700617 
L 789.044587 29.700617 
L 789.044587 30.054124 
L 789.742032 30.054124 
L 789.742032 34.038647 
L 790.439478 34.038647 
L 790.439478 33.012668 
L 791.136923 33.012668 
L 791.136923 32.395894 
L 791.834369 32.395894 
L 791.834369 32.859541 
L 792.531814 32.859541 
L 792.531814 29.344901 
L 793.22926 29.344901 
L 793.22926 30.044299 
L 793.926705 30.044299 
L 793.926705 29.010435 
L 794.624151 29.010435 
L 794.624151 31.210809 
L 795.321596 31.210809 
L 795.321596 32.746886 
L 796.019042 32.746886 
L 796.019042 32.51504 
L 796.716487 32.51504 
L 796.716487 30.012987 
L 797.413933 30.012987 
L 797.413933 32.332782 
L 798.111378 32.332782 
L 798.111378 31.944305 
L 798.808824 31.944305 
L 798.808824 31.631675 
L 799.50627 31.631675 
L 799.50627 30.133309 
L 800.203715 30.133309 
L 800.203715 29.795715 
L 800.901161 29.795715 
L 800.901161 27.940653 
L 801.598606 27.940653 
L 801.598606 28.541708 
L 802.296052 28.541708 
L 802.296052 28.052006 
L 802.993497 28.052006 
L 802.993497 30.105106 
L 803.690943 30.105106 
L 803.690943 31.217552 
L 804.388388 31.217552 
L 804.388388 31.067687 
L 805.085834 31.067687 
L 805.085834 30.559555 
L 805.783279 30.559555 
L 805.783279 31.554341 
L 806.480725 31.554341 
L 806.480725 31.392598 
L 807.17817 31.392598 
L 807.17817 32.069838 
L 807.875616 32.069838 
L 807.875616 33.481055 
L 808.573061 33.481055 
L 808.573061 36.633046 
L 809.270507 36.633046 
L 809.270507 37.273532 
L 809.967952 37.273532 
L 809.967952 38.27211 
L 810.665398 38.27211 
L 810.665398 37.131027 
L 811.362843 37.131027 
L 811.362843 37.899036 
L 812.060289 37.899036 
L 812.060289 36.155427 
L 812.757734 36.155427 
L 812.757734 37.550257 
L 813.45518 37.550257 
L 813.45518 36.555871 
L 814.152625 36.555871 
L 814.152625 38.52047 
L 814.850071 38.52047 
L 814.850071 43.332906 
L 815.547517 43.332906 
L 815.547517 45.298125 
L 816.244962 45.298125 
L 816.244962 44.744076 
L 816.942408 44.744076 
L 816.942408 45.132941 
L 817.639853 45.132941 
L 817.639853 46.689113 
L 818.337299 46.689113 
L 818.337299 45.668662 
L 819.034744 45.668662 
L 819.034744 44.25646 
L 819.73219 44.25646 
L 819.73219 45.625138 
L 820.429635 45.625138 
L 820.429635 45.059873 
L 821.127081 45.059873 
L 821.127081 42.777264 
L 821.824526 42.777264 
L 821.824526 44.533142 
L 822.521972 44.533142 
L 822.521972 42.205277 
L 823.219417 42.205277 
L 823.219417 42.934481 
L 824.614308 42.966172 
L 824.614308 42.05726 
L 825.311754 42.05726 
L 825.311754 41.747748 
L 826.009199 41.747748 
L 826.009199 42.741028 
L 826.706645 42.741028 
L 826.706645 44.432396 
L 827.40409 44.432396 
L 827.40409 45.615119 
L 828.101536 45.615119 
L 828.101536 46.07816 
L 829.496427 46.033634 
L 829.496427 46.630763 
L 830.193872 46.630763 
L 830.193872 44.050817 
L 830.891318 44.050817 
L 830.891318 46.182975 
L 831.588764 46.182975 
L 831.588764 46.346562 
L 832.286209 46.346562 
L 832.286209 46.630217 
L 832.983655 46.630217 
L 832.983655 46.822873 
L 833.6811 46.822873 
L 833.6811 46.593017 
L 834.378546 46.593017 
L 834.378546 45.683392 
L 835.075991 45.683392 
L 835.075991 46.45488 
L 836.470882 46.518357 
L 836.470882 46.339272 
L 837.168328 46.339272 
L 837.168328 46.749798 
L 837.865773 46.749798 
L 837.865773 45.752923 
L 838.563219 45.752923 
L 838.563219 45.017437 
L 839.260664 45.017437 
L 839.260664 45.697797 
L 839.95811 45.697797 
L 839.95811 44.91238 
L 840.655555 44.91238 
L 840.655555 48.609199 
L 841.353001 48.609199 
L 841.353001 49.79598 
L 842.050446 49.79598 
L 842.050446 49.675464 
L 842.747892 49.675464 
L 842.747892 50.300873 
L 843.445337 50.300873 
L 843.445337 49.96731 
L 844.142783 49.96731 
L 844.142783 49.069417 
L 846.932565 49.025032 
L 846.932565 49.733093 
L 847.630011 49.733093 
L 847.630011 49.397979 
L 849.024902 49.480984 
L 849.024902 49.857834 
L 850.419793 49.763335 
L 850.419793 49.4956 
L 851.117238 49.4956 
L 851.117238 49.043142 
L 851.814684 49.043142 
L 851.814684 45.929463 
L 852.512129 45.929463 
L 852.512129 44.687386 
L 853.209575 44.687386 
L 853.209575 43.127001 
L 853.90702 43.127001 
L 853.90702 42.835837 
L 854.604466 42.835837 
L 854.604466 42.237279 
L 855.301911 42.237279 
L 855.301911 42.506042 
L 855.999357 42.506042 
L 855.999357 43.135099 
L 856.696802 43.135099 
L 856.696802 44.201972 
L 857.394248 44.201972 
L 857.394248 43.651678 
L 858.091693 43.651678 
L 858.091693 41.466553 
L 858.789139 41.466553 
L 858.789139 41.859893 
L 859.486584 41.859893 
L 859.486584 42.40873 
L 860.881475 42.494425 
L 860.881475 43.464131 
L 861.578921 43.464131 
L 861.578921 45.623931 
L 862.276366 45.623931 
L 862.276366 41.359622 
L 862.973812 41.359622 
L 862.973812 39.562416 
L 863.671258 39.562416 
L 863.671258 39.305798 
L 864.368703 39.305798 
L 864.368703 38.777951 
L 865.763594 38.752996 
L 865.763594 38.927011 
L 867.158485 38.833865 
L 867.158485 37.161604 
L 868.553376 37.102979 
L 868.553376 38.16335 
L 869.250822 38.16335 
L 869.250822 39.087863 
L 869.948267 39.087863 
L 869.948267 37.693554 
L 870.645713 37.693554 
L 870.645713 38.712802 
L 871.343158 38.712802 
L 871.343158 37.654305 
L 872.040604 37.654305 
L 872.040604 39.050108 
L 872.738049 39.050108 
L 872.738049 39.710745 
L 873.435495 39.710745 
L 873.435495 39.235047 
L 874.13294 39.235047 
L 874.13294 39.733834 
L 874.830386 39.733834 
L 874.830386 39.954662 
L 875.527831 39.954662 
L 875.527831 38.970636 
L 876.225277 38.970636 
L 876.225277 39.34776 
L 877.620168 39.354163 
L 877.620168 40.456981 
L 878.317613 40.456981 
L 878.317613 41.056268 
L 879.015059 41.056268 
L 879.015059 40.066407 
L 879.712505 40.066407 
L 879.712505 37.393453 
L 880.40995 37.393453 
L 880.40995 37.139536 
L 881.107396 37.139536 
L 881.107396 36.997608 
L 881.804841 36.997608 
L 881.804841 36.789113 
L 882.502287 36.789113 
L 882.502287 37.17583 
L 883.199732 37.17583 
L 883.199732 37.052838 
L 884.594623 37.157915 
L 884.594623 37.464967 
L 885.292069 37.464967 
L 885.292069 37.910213 
L 887.194182 37.889904 
L 887.194182 37.889904 
" clip-path="url(#p35ec483dde)" style="fill: none; stroke: #3572c6; stroke-width: 1.2; stroke-linecap: square"/>
   </g>
   <g id="line2d_76">
    <path d="M 75.557818 21.105522 
L 887.194182 21.105522 
L 887.194182 21.105522 
" clip-path="url(#p35ec483dde)" style="fill: none; stroke: #83a83b; stroke-width: 1.2; stroke-linecap: square"/>
   </g>
   <g id="line2d_77">
    <path d="M 75.557818 50.300873 
L 887.194182 50.300873 
L 887.194182 50.300873 
" clip-path="url(#p35ec483dde)" style="fill: none; stroke: #c44e52; stroke-width: 1.2; stroke-linecap: square"/>
   </g>
   <g id="line2d_78">
    <path d="M 777.885458 301.512794 
L 777.885458 7.752794 
" clip-path="url(#p35ec483dde)" style="fill: none; stroke: #83a83b; stroke-width: 1.2; stroke-linecap: square"/>
   </g>
   <g id="line2d_79">
    <path d="M 843.445337 301.512794 
L 843.445337 7.752794 
" clip-path="url(#p35ec483dde)" style="fill: none; stroke: #c44e52; stroke-width: 1.2; stroke-linecap: square"/>
   </g>
   <g id="patch_3">
    <path d="M 34.976 301.512794 
L 34.976 7.752794 
" style="fill: none; stroke: #899ab8; stroke-width: 1.12; stroke-linejoin: miter; stroke-linecap: square"/>
   </g>
   <g id="patch_4">
    <path d="M 927.776 301.512794 
L 927.776 7.752794 
" style="fill: none; stroke: #899ab8; stroke-width: 1.12; stroke-linejoin: miter; stroke-linecap: square"/>
   </g>
   <g id="patch_5">
    <path d="M 34.976 301.512794 
L 927.776 301.512794 
" style="fill: none; stroke: #899ab8; stroke-width: 1.12; stroke-linejoin: miter; stroke-linecap: square"/>
   </g>
   <g id="patch_6">
    <path d="M 34.976 7.752794 
L 927.776 7.752794 
" style="fill: none; stroke: #899ab8; stroke-width: 1.12; stroke-linejoin: miter; stroke-linecap: square"/>
   </g>
   <g id="text_15">
    <!-- 64838.81 -->
    <g style="fill: #83a83b" transform="translate(202.841626 21.105522) scale(0.132 -0.132)">
     <defs>
      <path id="DejaVuSans-2e" d="M 684 794 
L 1344 794 
L 1344 0 
L 684 0 
L 684 794 
z
" transform="scale(0.015625)"/>
     </defs>
     <use xlink:href="#DejaVuSans-36"/>
     <use xlink:href="#DejaVuSans-34" x="63.623047"/>
     <use xlink:href="#DejaVuSans-38" x="127.246094"/>
     <use xlink:href="#DejaVuSans-33" x="190.869141"/>
     <use xlink:href="#DejaVuSans-38" x="254.492188"/>
     <use xlink:href="#DejaVuSans-2e" x="318.115234"/>
     <use xlink:href="#DejaVuSans-38" x="349.902344"/>
     <use xlink:href="#DejaVuSans-31" x="413.525391"/>
    </g>
   </g>
   <g id="text_16">
    <!-- 16194.75 -->
    <g style="fill: #c44e52" transform="translate(202.841626 50.300873) scale(0.132 -0.132)">
     <defs>
      <path id="DejaVuSans-39" d="M 703 97 
L 703 672 
Q 941 559 1184 500 
Q 1428 441 1663 441 
Q 2288 441 2617 861 
Q 2947 1281 2994 2138 
Q 2813 1869 2534 1725 
Q 2256 1581 1919 1581 
Q 1219 1581 811 2004 
Q 403 2428 403 3163 
Q 403 3881 828 4315 
Q 1253 4750 1959 4750 
Q 2769 4750 3195 4129 
Q 3622 3509 3622 2328 
Q 3622 1225 3098 567 
Q 2575 -91 1691 -91 
Q 1453 -91 1209 -44 
Q 966 3 703 97 
z
M 1959 2075 
Q 2384 2075 2632 2365 
Q 2881 2656 2881 3163 
Q 2881 3666 2632 3958 
Q 2384 4250 1959 4250 
Q 1534 4250 1286 3958 
Q 1038 3666 1038 3163 
Q 1038 2656 1286 2365 
Q 1534 2075 1959 2075 
z
" transform="scale(0.015625)"/>
      <path id="DejaVuSans-37" d="M 525 4666 
L 3525 4666 
L 3525 4397 
L 1831 0 
L 1172 0 
L 2766 4134 
L 525 4134 
L 525 4666 
z
" transform="scale(0.015625)"/>
     </defs>
     <use xlink:href="#DejaVuSans-31"/>
     <use xlink:href="#DejaVuSans-36" x="63.623047"/>
     <use xlink:href="#DejaVuSans-31" x="127.246094"/>
     <use xlink:href="#DejaVuSans-39" x="190.869141"/>
     <use xlink:href="#DejaVuSans-34" x="254.492188"/>
     <use xlink:href="#DejaVuSans-2e" x="318.115234"/>
     <use xlink:href="#DejaVuSans-37" x="349.902344"/>
     <use xlink:href="#DejaVuSans-35" x="413.525391"/>
    </g>
   </g>
   <g id="legend_1">
    <g id="patch_7">
     <path d="M 432.207453 295.212794 
L 530.544547 295.212794 
Q 533.064547 295.212794 533.064547 292.692794 
L 533.064547 238.119044 
Q 533.064547 235.599044 530.544547 235.599044 
L 432.207453 235.599044 
Q 429.687453 235.599044 429.687453 238.119044 
L 429.687453 292.692794 
Q 429.687453 295.212794 432.207453 295.212794 
z
" style="fill: #373e4b; opacity: 0.8; stroke: #cccccc; stroke-width: 0.16; stroke-linejoin: miter"/>
    </g>
    <g id="line2d_80">
     <path d="M 434.727453 245.803076 
L 434.727453 245.803076 
L 447.327453 245.803076 
L 447.327453 245.803076 
L 459.927453 245.803076 
" style="fill: none; stroke: #3572c6; stroke-width: 1.2; stroke-linecap: square"/>
    </g>
    <g id="text_17">
     <!-- USD/BTC -->
     <g style="fill: #b1bed6" transform="translate(470.007453 250.213076) scale(0.126 -0.126)">
      <defs>
       <path id="DejaVuSans-55" d="M 556 4666 
L 1191 4666 
L 1191 1831 
Q 1191 1081 1462 751 
Q 1734 422 2344 422 
Q 2950 422 3222 751 
Q 3494 1081 3494 1831 
L 3494 4666 
L 4128 4666 
L 4128 1753 
Q 4128 841 3676 375 
Q 3225 -91 2344 -91 
Q 1459 -91 1007 375 
Q 556 841 556 1753 
L 556 4666 
z
" transform="scale(0.015625)"/>
       <path id="DejaVuSans-53" d="M 3425 4513 
L 3425 3897 
Q 3066 4069 2747 4153 
Q 2428 4238 2131 4238 
Q 1616 4238 1336 4038 
Q 1056 3838 1056 3469 
Q 1056 3159 1242 3001 
Q 1428 2844 1947 2747 
L 2328 2669 
Q 3034 2534 3370 2195 
Q 3706 1856 3706 1288 
Q 3706 609 3251 259 
Q 2797 -91 1919 -91 
Q 1588 -91 1214 -16 
Q 841 59 441 206 
L 441 856 
Q 825 641 1194 531 
Q 1563 422 1919 422 
Q 2459 422 2753 634 
Q 3047 847 3047 1241 
Q 3047 1584 2836 1778 
Q 2625 1972 2144 2069 
L 1759 2144 
Q 1053 2284 737 2584 
Q 422 2884 422 3419 
Q 422 4038 858 4394 
Q 1294 4750 2059 4750 
Q 2388 4750 2728 4690 
Q 3069 4631 3425 4513 
z
" transform="scale(0.015625)"/>
       <path id="DejaVuSans-2f" d="M 1625 4666 
L 2156 4666 
L 531 -594 
L 0 -594 
L 1625 4666 
z
" transform="scale(0.015625)"/>
       <path id="DejaVuSans-42" d="M 1259 2228 
L 1259 519 
L 2272 519 
Q 2781 519 3026 730 
Q 3272 941 3272 1375 
Q 3272 1813 3026 2020 
Q 2781 2228 2272 2228 
L 1259 2228 
z
M 1259 4147 
L 1259 2741 
L 2194 2741 
Q 2656 2741 2882 2914 
Q 3109 3088 3109 3444 
Q 3109 3797 2882 3972 
Q 2656 4147 2194 4147 
L 1259 4147 
z
M 628 4666 
L 2241 4666 
Q 2963 4666 3353 4366 
Q 3744 4066 3744 3513 
Q 3744 3084 3544 2831 
Q 3344 2578 2956 2516 
Q 3422 2416 3680 2098 
Q 3938 1781 3938 1306 
Q 3938 681 3513 340 
Q 3088 0 2303 0 
L 628 0 
L 628 4666 
z
" transform="scale(0.015625)"/>
       <path id="DejaVuSans-54" d="M -19 4666 
L 3928 4666 
L 3928 4134 
L 2272 4134 
L 2272 0 
L 1638 0 
L 1638 4134 
L -19 4134 
L -19 4666 
z
" transform="scale(0.015625)"/>
       <path id="DejaVuSans-43" d="M 4122 4306 
L 4122 3641 
Q 3803 3938 3442 4084 
Q 3081 4231 2675 4231 
Q 1875 4231 1450 3742 
Q 1025 3253 1025 2328 
Q 1025 1406 1450 917 
Q 1875 428 2675 428 
Q 3081 428 3442 575 
Q 3803 722 4122 1019 
L 4122 359 
Q 3791 134 3420 21 
Q 3050 -91 2638 -91 
Q 1578 -91 968 557 
Q 359 1206 359 2328 
Q 359 3453 968 4101 
Q 1578 4750 2638 4750 
Q 3056 4750 3426 4639 
Q 3797 4528 4122 4306 
z
" transform="scale(0.015625)"/>
      </defs>
      <use xlink:href="#DejaVuSans-55"/>
      <use xlink:href="#DejaVuSans-53" x="73.193359"/>
      <use xlink:href="#DejaVuSans-44" x="136.669922"/>
      <use xlink:href="#DejaVuSans-2f" x="213.671875"/>
      <use xlink:href="#DejaVuSans-42" x="247.363281"/>
      <use xlink:href="#DejaVuSans-54" x="315.966797"/>
      <use xlink:href="#DejaVuSans-43" x="371.175781"/>
     </g>
    </g>
    <g id="line2d_81">
     <path d="M 434.727453 264.297513 
L 434.727453 264.297513 
L 447.327453 264.297513 
L 447.327453 264.297513 
L 459.927453 264.297513 
" style="fill: none; stroke: #83a83b; stroke-width: 1.2; stroke-linecap: square"/>
    </g>
    <g id="text_18">
     <!-- Max -->
     <g style="fill: #b1bed6" transform="translate(470.007453 268.707513) scale(0.126 -0.126)">
      <defs>
       <path id="DejaVuSans-4d" d="M 628 4666 
L 1569 4666 
L 2759 1491 
L 3956 4666 
L 4897 4666 
L 4897 0 
L 4281 0 
L 4281 4097 
L 3078 897 
L 2444 897 
L 1241 4097 
L 1241 0 
L 628 0 
L 628 4666 
z
" transform="scale(0.015625)"/>
       <path id="DejaVuSans-78" d="M 3513 3500 
L 2247 1797 
L 3578 0 
L 2900 0 
L 1881 1375 
L 863 0 
L 184 0 
L 1544 1831 
L 300 3500 
L 978 3500 
L 1906 2253 
L 2834 3500 
L 3513 3500 
z
" transform="scale(0.015625)"/>
      </defs>
      <use xlink:href="#DejaVuSans-4d"/>
      <use xlink:href="#DejaVuSans-61" x="86.279297"/>
      <use xlink:href="#DejaVuSans-78" x="147.558594"/>
     </g>
    </g>
    <g id="line2d_82">
     <path d="M 434.727453 282.791951 
L 434.727453 282.791951 
L 447.327453 282.791951 
L 447.327453 282.791951 
L 459.927453 282.791951 
" style="fill: none; stroke: #c44e52; stroke-width: 1.2; stroke-linecap: square"/>
    </g>
    <g id="text_19">
     <!-- local_Min -->
     <g style="fill: #b1bed6" transform="translate(470.007453 287.201951) scale(0.126 -0.126)">
      <defs>
       <path id="DejaVuSans-6c" d="M 603 4863 
L 1178 4863 
L 1178 0 
L 603 0 
L 603 4863 
z
" transform="scale(0.015625)"/>
       <path id="DejaVuSans-6f" d="M 1959 3097 
Q 1497 3097 1228 2736 
Q 959 2375 959 1747 
Q 959 1119 1226 758 
Q 1494 397 1959 397 
Q 2419 397 2687 759 
Q 2956 1122 2956 1747 
Q 2956 2369 2687 2733 
Q 2419 3097 1959 3097 
z
M 1959 3584 
Q 2709 3584 3137 3096 
Q 3566 2609 3566 1747 
Q 3566 888 3137 398 
Q 2709 -91 1959 -91 
Q 1206 -91 779 398 
Q 353 888 353 1747 
Q 353 2609 779 3096 
Q 1206 3584 1959 3584 
z
" transform="scale(0.015625)"/>
       <path id="DejaVuSans-63" d="M 3122 3366 
L 3122 2828 
Q 2878 2963 2633 3030 
Q 2388 3097 2138 3097 
Q 1578 3097 1268 2742 
Q 959 2388 959 1747 
Q 959 1106 1268 751 
Q 1578 397 2138 397 
Q 2388 397 2633 464 
Q 2878 531 3122 666 
L 3122 134 
Q 2881 22 2623 -34 
Q 2366 -91 2075 -91 
Q 1284 -91 818 406 
Q 353 903 353 1747 
Q 353 2603 823 3093 
Q 1294 3584 2113 3584 
Q 2378 3584 2631 3529 
Q 2884 3475 3122 3366 
z
" transform="scale(0.015625)"/>
       <path id="DejaVuSans-5f" d="M 3263 -1063 
L 3263 -1509 
L -63 -1509 
L -63 -1063 
L 3263 -1063 
z
" transform="scale(0.015625)"/>
       <path id="DejaVuSans-69" d="M 603 3500 
L 1178 3500 
L 1178 0 
L 603 0 
L 603 3500 
z
M 603 4863 
L 1178 4863 
L 1178 4134 
L 603 4134 
L 603 4863 
z
" transform="scale(0.015625)"/>
       <path id="DejaVuSans-6e" d="M 3513 2113 
L 3513 0 
L 2938 0 
L 2938 2094 
Q 2938 2591 2744 2837 
Q 2550 3084 2163 3084 
Q 1697 3084 1428 2787 
Q 1159 2491 1159 1978 
L 1159 0 
L 581 0 
L 581 3500 
L 1159 3500 
L 1159 2956 
Q 1366 3272 1645 3428 
Q 1925 3584 2291 3584 
Q 2894 3584 3203 3211 
Q 3513 2838 3513 2113 
z
" transform="scale(0.015625)"/>
      </defs>
      <use xlink:href="#DejaVuSans-6c"/>
      <use xlink:href="#DejaVuSans-6f" x="27.783203"/>
      <use xlink:href="#DejaVuSans-63" x="88.964844"/>
      <use xlink:href="#DejaVuSans-61" x="143.945312"/>
      <use xlink:href="#DejaVuSans-6c" x="205.224609"/>
      <use xlink:href="#DejaVuSans-5f" x="233.007812"/>
      <use xlink:href="#DejaVuSans-4d" x="283.007812"/>
      <use xlink:href="#DejaVuSans-69" x="369.287109"/>
      <use xlink:href="#DejaVuSans-6e" x="397.070312"/>
     </g>
    </g>
   </g>
  </g>
 </g>
 <defs>
  <clipPath id="p35ec483dde">
   <rect x="34.976" y="7.752794" width="892.8" height="293.76"/>
  </clipPath>
 </defs>
</svg>
