<?xml version="1.0" encoding="utf-8" standalone="no"?>
<!DOCTYPE svg PUBLIC "-//W3C//DTD SVG 1.1//EN"
  "http://www.w3.org/Graphics/SVG/1.1/DTD/svg11.dtd">
<svg xmlns:xlink="http://www.w3.org/1999/xlink" width="934.976pt" height="358.470384pt" viewBox="0 0 934.976 358.470384" xmlns="http://www.w3.org/2000/svg" version="1.1">
 <metadata>
  <rdf:RDF xmlns:dc="http://purl.org/dc/elements/1.1/" xmlns:cc="http://creativecommons.org/ns#" xmlns:rdf="http://www.w3.org/1999/02/22-rdf-syntax-ns#">
   <cc:Work>
    <dc:type rdf:resource="http://purl.org/dc/dcmitype/StillImage"/>
    <dc:date>2022-09-22T15:58:39.113467</dc:date>
    <dc:format>image/svg+xml</dc:format>
    <dc:creator>
     <cc:Agent>
      <dc:title>Matplotlib v3.6.0, https://matplotlib.org/</dc:title>
     </cc:Agent>
    </dc:creator>
   </cc:Work>
  </rdf:RDF>
 </metadata>
 <defs>
  <style type="text/css">*{stroke-linejoin: round; stroke-linecap: butt}</style>
 </defs>
 <g id="figure_1">
  <g id="patch_1">
   <path d="M 0 358.470384 
L 934.976 358.470384 
L 934.976 0 
L 0 0 
z
" style="fill: #373e4b"/>
  </g>
  <g id="axes_1">
   <g id="patch_2">
    <path d="M 34.976 301.139691 
L 927.776 301.139691 
L 927.776 7.379691 
L 34.976 7.379691 
z
" style="fill: #373e4b"/>
   </g>
   <g id="matplotlib.axis_1">
    <g id="xtick_1">
     <g id="line2d_1">
      <path d="M 154.820911 301.139691 
L 154.820911 7.379691 
" clip-path="url(#p58b2806130)" style="fill: none; stroke: #546379; stroke-width: 1.12; stroke-linecap: square"/>
     </g>
     <g id="line2d_2"/>
     <g id="text_1">
      <!-- 2012 -->
      <g style="fill: #b1bed6" transform="translate(125.739871 331.064545) rotate(-30) scale(0.126 -0.126)">
       <defs>
        <path id="DejaVuSans-32" d="M 1228 531 
L 3431 531 
L 3431 0 
L 469 0 
L 469 531 
Q 828 903 1448 1529 
Q 2069 2156 2228 2338 
Q 2531 2678 2651 2914 
Q 2772 3150 2772 3378 
Q 2772 3750 2511 3984 
Q 2250 4219 1831 4219 
Q 1534 4219 1204 4116 
Q 875 4013 500 3803 
L 500 4441 
Q 881 4594 1212 4672 
Q 1544 4750 1819 4750 
Q 2544 4750 2975 4387 
Q 3406 4025 3406 3419 
Q 3406 3131 3298 2873 
Q 3191 2616 2906 2266 
Q 2828 2175 2409 1742 
Q 1991 1309 1228 531 
z
" transform="scale(0.015625)"/>
        <path id="DejaVuSans-30" d="M 2034 4250 
Q 1547 4250 1301 3770 
Q 1056 3291 1056 2328 
Q 1056 1369 1301 889 
Q 1547 409 2034 409 
Q 2525 409 2770 889 
Q 3016 1369 3016 2328 
Q 3016 3291 2770 3770 
Q 2525 4250 2034 4250 
z
M 2034 4750 
Q 2819 4750 3233 4129 
Q 3647 3509 3647 2328 
Q 3647 1150 3233 529 
Q 2819 -91 2034 -91 
Q 1250 -91 836 529 
Q 422 1150 422 2328 
Q 422 3509 836 4129 
Q 1250 4750 2034 4750 
z
" transform="scale(0.015625)"/>
        <path id="DejaVuSans-31" d="M 794 531 
L 1825 531 
L 1825 4091 
L 703 3866 
L 703 4441 
L 1819 4666 
L 2450 4666 
L 2450 531 
L 3481 531 
L 3481 0 
L 794 0 
L 794 531 
z
" transform="scale(0.015625)"/>
       </defs>
       <use xlink:href="#DejaVuSans-32"/>
       <use xlink:href="#DejaVuSans-30" x="63.623047"/>
       <use xlink:href="#DejaVuSans-31" x="127.246094"/>
       <use xlink:href="#DejaVuSans-32" x="190.869141"/>
      </g>
     </g>
    </g>
    <g id="xtick_2">
     <g id="line2d_3">
      <path d="M 291.47497 301.139691 
L 291.47497 7.379691 
" clip-path="url(#p58b2806130)" style="fill: none; stroke: #546379; stroke-width: 1.12; stroke-linecap: square"/>
     </g>
     <g id="line2d_4"/>
     <g id="text_2">
      <!-- 2014 -->
      <g style="fill: #b1bed6" transform="translate(262.39393 331.064545) rotate(-30) scale(0.126 -0.126)">
       <defs>
        <path id="DejaVuSans-34" d="M 2419 4116 
L 825 1625 
L 2419 1625 
L 2419 4116 
z
M 2253 4666 
L 3047 4666 
L 3047 1625 
L 3713 1625 
L 3713 1100 
L 3047 1100 
L 3047 0 
L 2419 0 
L 2419 1100 
L 313 1100 
L 313 1709 
L 2253 4666 
z
" transform="scale(0.015625)"/>
       </defs>
       <use xlink:href="#DejaVuSans-32"/>
       <use xlink:href="#DejaVuSans-30" x="63.623047"/>
       <use xlink:href="#DejaVuSans-31" x="127.246094"/>
       <use xlink:href="#DejaVuSans-34" x="190.869141"/>
      </g>
     </g>
    </g>
    <g id="xtick_3">
     <g id="line2d_5">
      <path d="M 427.942087 301.139691 
L 427.942087 7.379691 
" clip-path="url(#p58b2806130)" style="fill: none; stroke: #546379; stroke-width: 1.12; stroke-linecap: square"/>
     </g>
     <g id="line2d_6"/>
     <g id="text_3">
      <!-- 2016 -->
      <g style="fill: #b1bed6" transform="translate(398.861048 331.064545) rotate(-30) scale(0.126 -0.126)">
       <defs>
        <path id="DejaVuSans-36" d="M 2113 2584 
Q 1688 2584 1439 2293 
Q 1191 2003 1191 1497 
Q 1191 994 1439 701 
Q 1688 409 2113 409 
Q 2538 409 2786 701 
Q 3034 994 3034 1497 
Q 3034 2003 2786 2293 
Q 2538 2584 2113 2584 
z
M 3366 4563 
L 3366 3988 
Q 3128 4100 2886 4159 
Q 2644 4219 2406 4219 
Q 1781 4219 1451 3797 
Q 1122 3375 1075 2522 
Q 1259 2794 1537 2939 
Q 1816 3084 2150 3084 
Q 2853 3084 3261 2657 
Q 3669 2231 3669 1497 
Q 3669 778 3244 343 
Q 2819 -91 2113 -91 
Q 1303 -91 875 529 
Q 447 1150 447 2328 
Q 447 3434 972 4092 
Q 1497 4750 2381 4750 
Q 2619 4750 2861 4703 
Q 3103 4656 3366 4563 
z
" transform="scale(0.015625)"/>
       </defs>
       <use xlink:href="#DejaVuSans-32"/>
       <use xlink:href="#DejaVuSans-30" x="63.623047"/>
       <use xlink:href="#DejaVuSans-31" x="127.246094"/>
       <use xlink:href="#DejaVuSans-36" x="190.869141"/>
      </g>
     </g>
    </g>
    <g id="xtick_4">
     <g id="line2d_7">
      <path d="M 564.596146 301.139691 
L 564.596146 7.379691 
" clip-path="url(#p58b2806130)" style="fill: none; stroke: #546379; stroke-width: 1.12; stroke-linecap: square"/>
     </g>
     <g id="line2d_8"/>
     <g id="text_4">
      <!-- 2018 -->
      <g style="fill: #b1bed6" transform="translate(535.515106 331.064545) rotate(-30) scale(0.126 -0.126)">
       <defs>
        <path id="DejaVuSans-38" d="M 2034 2216 
Q 1584 2216 1326 1975 
Q 1069 1734 1069 1313 
Q 1069 891 1326 650 
Q 1584 409 2034 409 
Q 2484 409 2743 651 
Q 3003 894 3003 1313 
Q 3003 1734 2745 1975 
Q 2488 2216 2034 2216 
z
M 1403 2484 
Q 997 2584 770 2862 
Q 544 3141 544 3541 
Q 544 4100 942 4425 
Q 1341 4750 2034 4750 
Q 2731 4750 3128 4425 
Q 3525 4100 3525 3541 
Q 3525 3141 3298 2862 
Q 3072 2584 2669 2484 
Q 3125 2378 3379 2068 
Q 3634 1759 3634 1313 
Q 3634 634 3220 271 
Q 2806 -91 2034 -91 
Q 1263 -91 848 271 
Q 434 634 434 1313 
Q 434 1759 690 2068 
Q 947 2378 1403 2484 
z
M 1172 3481 
Q 1172 3119 1398 2916 
Q 1625 2713 2034 2713 
Q 2441 2713 2670 2916 
Q 2900 3119 2900 3481 
Q 2900 3844 2670 4047 
Q 2441 4250 2034 4250 
Q 1625 4250 1398 4047 
Q 1172 3844 1172 3481 
z
" transform="scale(0.015625)"/>
       </defs>
       <use xlink:href="#DejaVuSans-32"/>
       <use xlink:href="#DejaVuSans-30" x="63.623047"/>
       <use xlink:href="#DejaVuSans-31" x="127.246094"/>
       <use xlink:href="#DejaVuSans-38" x="190.869141"/>
      </g>
     </g>
    </g>
    <g id="xtick_5">
     <g id="line2d_9">
      <path d="M 701.063263 301.139691 
L 701.063263 7.379691 
" clip-path="url(#p58b2806130)" style="fill: none; stroke: #546379; stroke-width: 1.12; stroke-linecap: square"/>
     </g>
     <g id="line2d_10"/>
     <g id="text_5">
      <!-- 2020 -->
      <g style="fill: #b1bed6" transform="translate(671.982224 331.064545) rotate(-30) scale(0.126 -0.126)">
       <use xlink:href="#DejaVuSans-32"/>
       <use xlink:href="#DejaVuSans-30" x="63.623047"/>
       <use xlink:href="#DejaVuSans-32" x="127.246094"/>
       <use xlink:href="#DejaVuSans-30" x="190.869141"/>
      </g>
     </g>
    </g>
    <g id="xtick_6">
     <g id="line2d_11">
      <path d="M 837.717322 301.139691 
L 837.717322 7.379691 
" clip-path="url(#p58b2806130)" style="fill: none; stroke: #546379; stroke-width: 1.12; stroke-linecap: square"/>
     </g>
     <g id="line2d_12"/>
     <g id="text_6">
      <!-- 2022 -->
      <g style="fill: #b1bed6" transform="translate(808.636282 331.064545) rotate(-30) scale(0.126 -0.126)">
       <use xlink:href="#DejaVuSans-32"/>
       <use xlink:href="#DejaVuSans-30" x="63.623047"/>
       <use xlink:href="#DejaVuSans-32" x="127.246094"/>
       <use xlink:href="#DejaVuSans-32" x="190.869141"/>
      </g>
     </g>
    </g>
    <g id="text_7">
     <!-- Date -->
     <g style="fill: #b1bed6" transform="translate(464.166875 348.275634) scale(0.144 -0.144)">
      <defs>
       <path id="DejaVuSans-44" d="M 1259 4147 
L 1259 519 
L 2022 519 
Q 2988 519 3436 956 
Q 3884 1394 3884 2338 
Q 3884 3275 3436 3711 
Q 2988 4147 2022 4147 
L 1259 4147 
z
M 628 4666 
L 1925 4666 
Q 3281 4666 3915 4102 
Q 4550 3538 4550 2338 
Q 4550 1131 3912 565 
Q 3275 0 1925 0 
L 628 0 
L 628 4666 
z
" transform="scale(0.015625)"/>
       <path id="DejaVuSans-61" d="M 2194 1759 
Q 1497 1759 1228 1600 
Q 959 1441 959 1056 
Q 959 750 1161 570 
Q 1363 391 1709 391 
Q 2188 391 2477 730 
Q 2766 1069 2766 1631 
L 2766 1759 
L 2194 1759 
z
M 3341 1997 
L 3341 0 
L 2766 0 
L 2766 531 
Q 2569 213 2275 61 
Q 1981 -91 1556 -91 
Q 1019 -91 701 211 
Q 384 513 384 1019 
Q 384 1609 779 1909 
Q 1175 2209 1959 2209 
L 2766 2209 
L 2766 2266 
Q 2766 2663 2505 2880 
Q 2244 3097 1772 3097 
Q 1472 3097 1187 3025 
Q 903 2953 641 2809 
L 641 3341 
Q 956 3463 1253 3523 
Q 1550 3584 1831 3584 
Q 2591 3584 2966 3190 
Q 3341 2797 3341 1997 
z
" transform="scale(0.015625)"/>
       <path id="DejaVuSans-74" d="M 1172 4494 
L 1172 3500 
L 2356 3500 
L 2356 3053 
L 1172 3053 
L 1172 1153 
Q 1172 725 1289 603 
Q 1406 481 1766 481 
L 2356 481 
L 2356 0 
L 1766 0 
Q 1100 0 847 248 
Q 594 497 594 1153 
L 594 3053 
L 172 3053 
L 172 3500 
L 594 3500 
L 594 4494 
L 1172 4494 
z
" transform="scale(0.015625)"/>
       <path id="DejaVuSans-65" d="M 3597 1894 
L 3597 1613 
L 953 1613 
Q 991 1019 1311 708 
Q 1631 397 2203 397 
Q 2534 397 2845 478 
Q 3156 559 3463 722 
L 3463 178 
Q 3153 47 2828 -22 
Q 2503 -91 2169 -91 
Q 1331 -91 842 396 
Q 353 884 353 1716 
Q 353 2575 817 3079 
Q 1281 3584 2069 3584 
Q 2775 3584 3186 3129 
Q 3597 2675 3597 1894 
z
M 3022 2063 
Q 3016 2534 2758 2815 
Q 2500 3097 2075 3097 
Q 1594 3097 1305 2825 
Q 1016 2553 972 2059 
L 3022 2063 
z
" transform="scale(0.015625)"/>
      </defs>
      <use xlink:href="#DejaVuSans-44"/>
      <use xlink:href="#DejaVuSans-61" x="77.001953"/>
      <use xlink:href="#DejaVuSans-74" x="138.28125"/>
      <use xlink:href="#DejaVuSans-65" x="177.490234"/>
     </g>
    </g>
   </g>
   <g id="matplotlib.axis_2">
    <g id="ytick_1">
     <g id="line2d_13">
      <path d="M 34.976 254.863557 
L 927.776 254.863557 
" clip-path="url(#p58b2806130)" style="fill: none; stroke: #546379; stroke-width: 1.12; stroke-linecap: square"/>
     </g>
     <g id="line2d_14"/>
     <g id="text_8">
      <!-- $\mathdefault{10^{0}}$ -->
      <g style="fill: #b1bed6" transform="translate(7.2 259.650573) scale(0.126 -0.126)">
       <use xlink:href="#DejaVuSans-31" transform="translate(0 0.765625)"/>
       <use xlink:href="#DejaVuSans-30" transform="translate(63.623047 0.765625)"/>
       <use xlink:href="#DejaVuSans-30" transform="translate(128.203125 39.046875) scale(0.7)"/>
      </g>
     </g>
    </g>
    <g id="ytick_2">
     <g id="line2d_15">
      <path d="M 34.976 206.288249 
L 927.776 206.288249 
" clip-path="url(#p58b2806130)" style="fill: none; stroke: #546379; stroke-width: 1.12; stroke-linecap: square"/>
     </g>
     <g id="line2d_16"/>
     <g id="text_9">
      <!-- $\mathdefault{10^{1}}$ -->
      <g style="fill: #b1bed6" transform="translate(7.2 211.075264) scale(0.126 -0.126)">
       <use xlink:href="#DejaVuSans-31" transform="translate(0 0.684375)"/>
       <use xlink:href="#DejaVuSans-30" transform="translate(63.623047 0.684375)"/>
       <use xlink:href="#DejaVuSans-31" transform="translate(128.203125 38.965625) scale(0.7)"/>
      </g>
     </g>
    </g>
    <g id="ytick_3">
     <g id="line2d_17">
      <path d="M 34.976 157.71294 
L 927.776 157.71294 
" clip-path="url(#p58b2806130)" style="fill: none; stroke: #546379; stroke-width: 1.12; stroke-linecap: square"/>
     </g>
     <g id="line2d_18"/>
     <g id="text_10">
      <!-- $\mathdefault{10^{2}}$ -->
      <g style="fill: #b1bed6" transform="translate(7.2 162.499956) scale(0.126 -0.126)">
       <use xlink:href="#DejaVuSans-31" transform="translate(0 0.765625)"/>
       <use xlink:href="#DejaVuSans-30" transform="translate(63.623047 0.765625)"/>
       <use xlink:href="#DejaVuSans-32" transform="translate(128.203125 39.046875) scale(0.7)"/>
      </g>
     </g>
    </g>
    <g id="ytick_4">
     <g id="line2d_19">
      <path d="M 34.976 109.137632 
L 927.776 109.137632 
" clip-path="url(#p58b2806130)" style="fill: none; stroke: #546379; stroke-width: 1.12; stroke-linecap: square"/>
     </g>
     <g id="line2d_20"/>
     <g id="text_11">
      <!-- $\mathdefault{10^{3}}$ -->
      <g style="fill: #b1bed6" transform="translate(7.2 113.924648) scale(0.126 -0.126)">
       <defs>
        <path id="DejaVuSans-33" d="M 2597 2516 
Q 3050 2419 3304 2112 
Q 3559 1806 3559 1356 
Q 3559 666 3084 287 
Q 2609 -91 1734 -91 
Q 1441 -91 1130 -33 
Q 819 25 488 141 
L 488 750 
Q 750 597 1062 519 
Q 1375 441 1716 441 
Q 2309 441 2620 675 
Q 2931 909 2931 1356 
Q 2931 1769 2642 2001 
Q 2353 2234 1838 2234 
L 1294 2234 
L 1294 2753 
L 1863 2753 
Q 2328 2753 2575 2939 
Q 2822 3125 2822 3475 
Q 2822 3834 2567 4026 
Q 2313 4219 1838 4219 
Q 1578 4219 1281 4162 
Q 984 4106 628 3988 
L 628 4550 
Q 988 4650 1302 4700 
Q 1616 4750 1894 4750 
Q 2613 4750 3031 4423 
Q 3450 4097 3450 3541 
Q 3450 3153 3228 2886 
Q 3006 2619 2597 2516 
z
" transform="scale(0.015625)"/>
       </defs>
       <use xlink:href="#DejaVuSans-31" transform="translate(0 0.765625)"/>
       <use xlink:href="#DejaVuSans-30" transform="translate(63.623047 0.765625)"/>
       <use xlink:href="#DejaVuSans-33" transform="translate(128.203125 39.046875) scale(0.7)"/>
      </g>
     </g>
    </g>
    <g id="ytick_5">
     <g id="line2d_21">
      <path d="M 34.976 60.562324 
L 927.776 60.562324 
" clip-path="url(#p58b2806130)" style="fill: none; stroke: #546379; stroke-width: 1.12; stroke-linecap: square"/>
     </g>
     <g id="line2d_22"/>
     <g id="text_12">
      <!-- $\mathdefault{10^{4}}$ -->
      <g style="fill: #b1bed6" transform="translate(7.2 65.34934) scale(0.126 -0.126)">
       <use xlink:href="#DejaVuSans-31" transform="translate(0 0.684375)"/>
       <use xlink:href="#DejaVuSans-30" transform="translate(63.623047 0.684375)"/>
       <use xlink:href="#DejaVuSans-34" transform="translate(128.203125 38.965625) scale(0.7)"/>
      </g>
     </g>
    </g>
    <g id="ytick_6">
     <g id="line2d_23">
      <path d="M 34.976 11.987016 
L 927.776 11.987016 
" clip-path="url(#p58b2806130)" style="fill: none; stroke: #546379; stroke-width: 1.12; stroke-linecap: square"/>
     </g>
     <g id="line2d_24"/>
     <g id="text_13">
      <!-- $\mathdefault{10^{5}}$ -->
      <g style="fill: #b1bed6" transform="translate(7.2 16.774031) scale(0.126 -0.126)">
       <defs>
        <path id="DejaVuSans-35" d="M 691 4666 
L 3169 4666 
L 3169 4134 
L 1269 4134 
L 1269 2991 
Q 1406 3038 1543 3061 
Q 1681 3084 1819 3084 
Q 2600 3084 3056 2656 
Q 3513 2228 3513 1497 
Q 3513 744 3044 326 
Q 2575 -91 1722 -91 
Q 1428 -91 1123 -41 
Q 819 9 494 109 
L 494 744 
Q 775 591 1075 516 
Q 1375 441 1709 441 
Q 2250 441 2565 725 
Q 2881 1009 2881 1497 
Q 2881 1984 2565 2268 
Q 2250 2553 1709 2553 
Q 1456 2553 1204 2497 
Q 953 2441 691 2322 
L 691 4666 
z
" transform="scale(0.015625)"/>
       </defs>
       <use xlink:href="#DejaVuSans-31" transform="translate(0 0.684375)"/>
       <use xlink:href="#DejaVuSans-30" transform="translate(63.623047 0.684375)"/>
       <use xlink:href="#DejaVuSans-35" transform="translate(128.203125 38.965625) scale(0.7)"/>
      </g>
     </g>
    </g>
    <g id="ytick_7">
     <g id="line2d_25"/>
    </g>
    <g id="ytick_8">
     <g id="line2d_26"/>
    </g>
    <g id="ytick_9">
     <g id="line2d_27"/>
    </g>
    <g id="ytick_10">
     <g id="line2d_28"/>
    </g>
    <g id="ytick_11">
     <g id="line2d_29"/>
    </g>
    <g id="ytick_12">
     <g id="line2d_30"/>
    </g>
    <g id="ytick_13">
     <g id="line2d_31"/>
    </g>
    <g id="ytick_14">
     <g id="line2d_32"/>
    </g>
    <g id="ytick_15">
     <g id="line2d_33"/>
    </g>
    <g id="ytick_16">
     <g id="line2d_34"/>
    </g>
    <g id="ytick_17">
     <g id="line2d_35"/>
    </g>
    <g id="ytick_18">
     <g id="line2d_36"/>
    </g>
    <g id="ytick_19">
     <g id="line2d_37"/>
    </g>
    <g id="ytick_20">
     <g id="line2d_38"/>
    </g>
    <g id="ytick_21">
     <g id="line2d_39"/>
    </g>
    <g id="ytick_22">
     <g id="line2d_40"/>
    </g>
    <g id="ytick_23">
     <g id="line2d_41"/>
    </g>
    <g id="ytick_24">
     <g id="line2d_42"/>
    </g>
    <g id="ytick_25">
     <g id="line2d_43"/>
    </g>
    <g id="ytick_26">
     <g id="line2d_44"/>
    </g>
    <g id="ytick_27">
     <g id="line2d_45"/>
    </g>
    <g id="ytick_28">
     <g id="line2d_46"/>
    </g>
    <g id="ytick_29">
     <g id="line2d_47"/>
    </g>
    <g id="ytick_30">
     <g id="line2d_48"/>
    </g>
    <g id="ytick_31">
     <g id="line2d_49"/>
    </g>
    <g id="ytick_32">
     <g id="line2d_50"/>
    </g>
    <g id="ytick_33">
     <g id="line2d_51"/>
    </g>
    <g id="ytick_34">
     <g id="line2d_52"/>
    </g>
    <g id="ytick_35">
     <g id="line2d_53"/>
    </g>
    <g id="ytick_36">
     <g id="line2d_54"/>
    </g>
    <g id="ytick_37">
     <g id="line2d_55"/>
    </g>
    <g id="ytick_38">
     <g id="line2d_56"/>
    </g>
    <g id="ytick_39">
     <g id="line2d_57"/>
    </g>
    <g id="ytick_40">
     <g id="line2d_58"/>
    </g>
    <g id="ytick_41">
     <g id="line2d_59"/>
    </g>
    <g id="ytick_42">
     <g id="line2d_60"/>
    </g>
    <g id="ytick_43">
     <g id="line2d_61"/>
    </g>
    <g id="ytick_44">
     <g id="line2d_62"/>
    </g>
    <g id="ytick_45">
     <g id="line2d_63"/>
    </g>
    <g id="ytick_46">
     <g id="line2d_64"/>
    </g>
    <g id="ytick_47">
     <g id="line2d_65"/>
    </g>
    <g id="ytick_48">
     <g id="line2d_66"/>
    </g>
    <g id="ytick_49">
     <g id="line2d_67"/>
    </g>
    <g id="ytick_50">
     <g id="line2d_68"/>
    </g>
    <g id="ytick_51">
     <g id="line2d_69"/>
    </g>
    <g id="ytick_52">
     <g id="line2d_70"/>
    </g>
    <g id="ytick_53">
     <g id="line2d_71"/>
    </g>
    <g id="ytick_54">
     <g id="line2d_72"/>
    </g>
   </g>
   <g id="line2d_73">
    <path d="M 75.557818 287.786964 
L 75.557818 284.108807 
L 76.118642 284.108807 
L 76.118642 276.4163 
L 76.679466 276.4163 
L 76.679466 284.969987 
L 77.240289 284.969987 
L 77.240289 280.262553 
L 77.801113 280.262553 
L 77.801113 281.718026 
L 78.361937 281.718026 
L 78.361937 280.97774 
L 80.044408 280.97774 
L 80.044408 281.718026 
L 80.605232 281.718026 
L 80.605232 284.108807 
L 81.166056 284.108807 
L 81.166056 285.867824 
L 81.72688 285.867824 
L 81.72688 284.108807 
L 82.287703 284.108807 
L 82.287703 285.867824 
L 83.409351 285.867824 
L 83.409351 284.108807 
L 83.970175 284.108807 
L 83.970175 282.485237 
L 84.530999 282.485237 
L 84.530999 284.108807 
L 85.091822 284.108807 
L 85.091822 282.485237 
L 85.652646 282.485237 
L 85.652646 280.262553 
L 87.335117 280.262553 
L 87.335117 278.901049 
L 87.895941 278.901049 
L 87.895941 278.251891 
L 88.456765 278.251891 
L 88.456765 273.164339 
L 89.017589 273.164339 
L 89.017589 274.193616 
L 89.578412 274.193616 
L 89.578412 277.010592 
L 90.139236 277.010592 
L 90.139236 272.66794 
L 91.260884 272.66794 
L 91.260884 271.708866 
L 91.821708 271.708866 
L 91.821708 265.291226 
L 92.382531 265.291226 
L 92.382531 260.105095 
L 92.943355 260.105095 
L 92.943355 256.622574 
L 93.504179 256.622574 
L 93.504179 255.506124 
L 94.065003 255.506124 
L 94.065003 253.045553 
L 94.625826 253.045553 
L 94.625826 253.239988 
L 95.18665 253.239988 
L 95.18665 254.036157 
L 95.747474 254.036157 
L 95.747474 257.560328 
L 96.308298 257.560328 
L 96.308298 255.724737 
L 97.429945 255.724737 
L 97.429945 255.94564 
L 97.990769 255.94564 
L 97.990769 256.622574 
L 98.551593 256.622574 
L 98.551593 257.086241 
L 99.112417 257.086241 
L 99.112417 256.394508 
L 99.67324 256.394508 
L 99.67324 257.086241 
L 100.234064 257.086241 
L 100.234064 257.801428 
L 100.794888 257.801428 
L 100.794888 259.836353 
L 101.355712 259.836353 
L 101.355712 258.045315 
L 101.916535 258.045315 
L 101.916535 257.086241 
L 102.477359 257.086241 
L 102.477359 259.570991 
L 103.599007 259.570991 
L 103.599007 260.377305 
L 104.15983 260.377305 
L 104.15983 260.105095 
L 104.720654 260.105095 
L 104.720654 260.653074 
L 105.281478 260.653074 
L 105.281478 255.075579 
L 105.842302 255.075579 
L 105.842302 253.045553 
L 106.403126 253.045553 
L 106.403126 251.19384 
L 106.963949 251.19384 
L 106.963949 248.068887 
L 107.524773 248.068887 
L 107.524773 243.545699 
L 108.085597 243.545699 
L 108.085597 234.224801 
L 108.646421 234.224801 
L 108.646421 225.883669 
L 109.207244 225.883669 
L 109.207244 228.076703 
L 109.768068 228.076703 
L 109.768068 226.979811 
L 110.328892 226.979811 
L 110.328892 219.248274 
L 110.889716 219.248274 
L 110.889716 209.568356 
L 111.450539 209.568356 
L 111.450539 209.791334 
L 112.011363 209.791334 
L 112.011363 212.98526 
L 112.572187 212.98526 
L 112.572187 214.393179 
L 113.133011 214.393179 
L 113.133011 211.127946 
L 113.693835 211.127946 
L 113.693835 209.274672 
L 114.254658 209.274672 
L 114.254658 207.437056 
L 114.815482 207.437056 
L 114.815482 197.664359 
L 115.376306 197.664359 
L 115.376306 192.537795 
L 115.93713 192.537795 
L 115.93713 181.52747 
L 116.497953 181.52747 
L 116.497953 187.068176 
L 117.058777 187.068176 
L 117.058777 191.676175 
L 117.619601 191.676175 
L 117.619601 194.362395 
L 118.180425 194.362395 
L 118.180425 197.193075 
L 118.741249 197.193075 
L 118.741249 195.15626 
L 119.302072 195.15626 
L 119.302072 194.017624 
L 119.862896 194.017624 
L 119.862896 194.627757 
L 120.42372 194.627757 
L 120.42372 196.718683 
L 120.984544 196.718683 
L 120.984544 195.800752 
L 121.545367 195.800752 
L 121.545367 197.510729 
L 122.106191 197.510729 
L 122.106191 198.42067 
L 122.667015 198.42067 
L 122.667015 198.816644 
L 123.227839 198.816644 
L 123.227839 199.295779 
L 124.349486 199.28064 
L 124.349486 198.950305 
L 125.471134 199.039884 
L 125.471134 199.099816 
L 126.031958 199.099816 
L 126.031958 200.161377 
L 126.592781 200.161377 
L 126.592781 203.4871 
L 127.153605 203.4871 
L 127.153605 207.017989 
L 127.714429 207.017989 
L 127.714429 205.562517 
L 128.275253 205.562517 
L 128.275253 203.524078 
L 129.3969 203.542591 
L 129.3969 202.886138 
L 129.957724 202.886138 
L 129.957724 203.394937 
L 130.518548 203.394937 
L 130.518548 206.267163 
L 131.079371 206.267163 
L 131.079371 207.593572 
L 131.640195 207.593572 
L 131.640195 209.816256 
L 132.201019 209.816256 
L 132.201019 209.568356 
L 132.761843 209.568356 
L 132.761843 212.272971 
L 133.322667 212.272971 
L 133.322667 215.40852 
L 133.88349 215.40852 
L 133.88349 216.40694 
L 134.444314 216.40694 
L 134.444314 220.164769 
L 135.005138 220.164769 
L 135.005138 217.454969 
L 135.565962 217.454969 
L 135.565962 217.779807 
L 136.126785 217.779807 
L 136.126785 218.938602 
L 136.687609 218.938602 
L 136.687609 221.122895 
L 137.248433 221.122895 
L 137.248433 219.801384 
L 137.809257 219.801384 
L 137.809257 220.784676 
L 138.37008 220.784676 
L 138.37008 221.81605 
L 138.930904 221.81605 
L 138.930904 224.438881 
L 139.491728 224.438881 
L 139.491728 223.751974 
L 140.052552 223.751974 
L 140.052552 226.315316 
L 140.613376 226.315316 
L 140.613376 234.787394 
L 141.174199 234.787394 
L 141.174199 229.612752 
L 141.735023 229.612752 
L 141.735023 231.687245 
L 142.295847 231.687245 
L 142.295847 229.108943 
L 143.417494 229.171265 
L 143.417494 229.804826 
L 143.978318 229.804826 
L 143.978318 231.407824 
L 144.539142 231.407824 
L 144.539142 231.063673 
L 145.099966 231.063673 
L 145.099966 230.927569 
L 145.660789 230.927569 
L 145.660789 234.145641 
L 146.221613 234.145641 
L 146.221613 236.660041 
L 146.782437 236.660041 
L 146.782437 237.292516 
L 147.343261 237.292516 
L 147.343261 235.702945 
L 147.904085 235.702945 
L 147.904085 235.449283 
L 148.464908 235.449283 
L 148.464908 231.687245 
L 149.025732 231.687245 
L 149.025732 230.995511 
L 149.586556 230.995511 
L 149.586556 231.269489 
L 150.14738 231.269489 
L 150.14738 231.407824 
L 150.708203 231.407824 
L 150.708203 229.485667 
L 151.269027 229.485667 
L 151.269027 230.325741 
L 151.829851 230.325741 
L 151.829851 229.296464 
L 152.390675 229.296464 
L 152.390675 225.200551 
L 154.073146 225.148909 
L 154.073146 223.274669 
L 154.63397 223.274669 
L 154.63397 219.09287 
L 155.194794 219.09287 
L 155.194794 215.053958 
L 155.755617 215.053958 
L 155.755617 213.218367 
L 156.316441 213.218367 
L 156.316441 213.51342 
L 156.877265 213.51342 
L 156.877265 214.393179 
L 157.438089 214.393179 
L 157.438089 213.903265 
L 157.998912 213.903265 
L 157.998912 215.150067 
L 158.559736 215.150067 
L 158.559736 215.473632 
L 159.12056 215.473632 
L 159.12056 216.785199 
L 159.681384 216.785199 
L 159.681384 218.072811 
L 160.242208 218.072811 
L 160.242208 217.889207 
L 160.803031 217.889207 
L 160.803031 217.099809 
L 161.363855 217.099809 
L 161.363855 217.999178 
L 161.924679 217.999178 
L 161.924679 217.276642 
L 162.485503 217.276642 
L 162.485503 218.183746 
L 163.046326 218.183746 
L 163.046326 222.037416 
L 163.60715 222.037416 
L 163.60715 223.703754 
L 164.167974 223.703754 
L 164.167974 222.532755 
L 164.728798 222.532755 
L 164.728798 220.700962 
L 165.289621 220.700962 
L 165.289621 220.995427 
L 165.850445 220.995427 
L 165.850445 221.165557 
L 166.411269 221.165557 
L 166.411269 220.742777 
L 166.972093 220.742777 
L 166.972093 220.953108 
L 168.09374 220.995427 
L 168.09374 219.09287 
L 168.654564 219.09287 
L 168.654564 219.287304 
L 169.215388 219.287304 
L 169.215388 221.122895 
L 169.776212 221.122895 
L 169.776212 221.72815 
L 170.337035 221.72815 
L 170.337035 222.037416 
L 170.897859 222.037416 
L 170.897859 221.553441 
L 171.458683 221.553441 
L 171.458683 221.037831 
L 172.58033 221.08032 
L 172.58033 221.165557 
L 173.141154 221.165557 
L 173.141154 221.33707 
L 173.701978 221.33707 
L 173.701978 221.037831 
L 174.823626 220.953108 
L 174.823626 220.124082 
L 175.384449 220.124082 
L 175.384449 219.681633 
L 175.945273 219.681633 
L 175.945273 220.246378 
L 176.506097 220.246378 
L 176.506097 220.534523 
L 177.066921 220.534523 
L 177.066921 220.742777 
L 177.627744 220.742777 
L 177.627744 220.287301 
L 178.188568 220.287301 
L 178.188568 220.493118 
L 179.310216 220.493118 
L 179.310216 220.868724 
L 179.871039 220.868724 
L 179.871039 220.493118 
L 180.431863 220.493118 
L 180.431863 220.328304 
L 182.675158 220.246378 
L 182.675158 220.042944 
L 183.235982 220.042944 
L 183.235982 219.801384 
L 183.796806 219.801384 
L 183.796806 218.977064 
L 184.35763 218.977064 
L 184.35763 218.220854 
L 184.918453 218.220854 
L 184.918453 217.9258 
L 185.479277 217.9258 
L 185.479277 216.13604 
L 186.040101 216.13604 
L 186.040101 215.441051 
L 186.600925 215.441051 
L 186.600925 214.42418 
L 187.161748 214.42418 
L 187.161748 215.182201 
L 188.283396 215.117982 
L 188.283396 214.768229 
L 189.405044 214.705256 
L 189.405044 214.611147 
L 189.965867 214.611147 
L 189.965867 213.87302 
L 190.526691 213.87302 
L 190.526691 212.469999 
L 191.087515 212.469999 
L 191.087515 211.529787 
L 191.648339 211.529787 
L 191.648339 207.661007 
L 192.209162 207.661007 
L 192.209162 207.303818 
L 192.769986 207.303818 
L 192.769986 208.722955 
L 193.891634 208.62846 
L 193.891634 208.001455 
L 194.452458 208.001455 
L 194.452458 206.036604 
L 195.013281 206.036604 
L 195.013281 203.878641 
L 195.574105 203.878641 
L 195.574105 203.616808 
L 196.134929 203.616808 
L 196.134929 203.084562 
L 196.695753 203.084562 
L 196.695753 201.92108 
L 197.256576 201.92108 
L 197.256576 197.220508 
L 197.8174 197.220508 
L 197.8174 205.359669 
L 198.378224 205.359669 
L 198.378224 205.767334 
L 198.939048 205.767334 
L 198.939048 204.296773 
L 199.499871 204.296773 
L 199.499871 204.010786 
L 200.060695 204.010786 
L 200.060695 205.542144 
L 200.621519 205.542144 
L 200.621519 205.07892 
L 201.182343 205.07892 
L 201.182343 203.766029 
L 201.743167 203.766029 
L 201.743167 204.010786 
L 202.30399 204.010786 
L 202.30399 203.376553 
L 202.864814 203.376553 
L 202.864814 202.477185 
L 203.425638 202.477185 
L 203.425638 201.36255 
L 203.986462 201.36255 
L 203.986462 201.750262 
L 204.547285 201.750262 
L 204.547285 202.024239 
L 205.108109 202.024239 
L 205.108109 201.64843 
L 205.668933 201.64843 
L 205.668933 201.446231 
L 206.229757 201.446231 
L 206.229757 200.640126 
L 206.79058 200.640126 
L 206.79058 201.446231 
L 207.351404 201.446231 
L 207.351404 202.162574 
L 208.473052 202.266924 
L 208.473052 202.459583 
L 209.594699 202.54774 
L 209.594699 202.689562 
L 210.155523 202.689562 
L 210.155523 203.230053 
L 210.716347 203.230053 
L 210.716347 204.880648 
L 211.277171 204.880648 
L 211.277171 203.954051 
L 211.837994 203.954051 
L 211.837994 205.019242 
L 212.398818 205.019242 
L 212.398818 204.335199 
L 212.959642 204.335199 
L 212.959642 204.201013 
L 213.520466 204.201013 
L 213.520466 203.954051 
L 214.081289 203.954051 
L 214.081289 203.747318 
L 214.642113 203.747318 
L 214.642113 202.760832 
L 215.202937 202.760832 
L 215.202937 202.618532 
L 215.763761 202.618532 
L 215.763761 201.64843 
L 216.885408 201.580815 
L 216.885408 201.3125 
L 217.446232 201.3125 
L 217.446232 201.163059 
L 218.007056 201.163059 
L 218.007056 199.662409 
L 218.56788 199.662409 
L 218.56788 199.910418 
L 219.128703 199.910418 
L 219.128703 199.493579 
L 220.250351 199.570153 
L 220.250351 200.114094 
L 220.811175 200.114094 
L 220.811175 199.755071 
L 221.371998 199.755071 
L 221.371998 200.035524 
L 222.493646 199.941625 
L 222.493646 199.848142 
L 223.05447 199.848142 
L 223.05447 200.082631 
L 223.615294 200.082631 
L 223.615294 199.894832 
L 224.176117 199.894832 
L 224.176117 199.43252 
L 224.736941 199.43252 
L 224.736941 198.728006 
L 225.858589 198.683825 
L 225.858589 197.002036 
L 226.419412 197.002036 
L 226.419412 196.176204 
L 226.980236 196.176204 
L 226.980236 193.923497 
L 227.54106 193.923497 
L 227.54106 194.230956 
L 228.101884 194.230956 
L 228.101884 191.898966 
L 228.662708 191.898966 
L 228.662708 190.386688 
L 229.223531 190.386688 
L 229.223531 190.646395 
L 229.784355 190.646395 
L 229.784355 189.511613 
L 230.345179 189.511613 
L 230.345179 187.845757 
L 230.906003 187.845757 
L 230.906003 187.557305 
L 231.466826 187.557305 
L 231.466826 185.032081 
L 232.02765 185.032081 
L 232.02765 183.480807 
L 232.588474 183.480807 
L 232.588474 182.749406 
L 233.710121 182.832516 
L 233.710121 180.872382 
L 234.270945 180.872382 
L 234.270945 180.316946 
L 234.831769 180.316946 
L 234.831769 176.013722 
L 235.392593 176.013722 
L 235.392593 173.672331 
L 235.953417 173.672331 
L 235.953417 174.879466 
L 236.51424 174.879466 
L 236.51424 173.685821 
L 237.075064 173.685821 
L 237.075064 171.459539 
L 237.635888 171.459539 
L 237.635888 165.162142 
L 238.196712 165.162142 
L 238.196712 164.663578 
L 238.757535 164.663578 
L 238.757535 160.218797 
L 239.318359 160.218797 
L 239.318359 159.357616 
L 239.879183 159.357616 
L 239.879183 154.339576 
L 240.440007 154.339576 
L 240.440007 150.300636 
L 241.00083 150.300636 
L 241.00083 144.512664 
L 241.561654 144.512664 
L 241.561654 153.02239 
L 242.122478 153.02239 
L 242.122478 157.71294 
L 242.683302 157.71294 
L 242.683302 159.040718 
L 243.244126 159.040718 
L 243.244126 152.587751 
L 243.804949 152.587751 
L 243.804949 150.241336 
L 244.365773 150.241336 
L 244.365773 151.071697 
L 244.926597 151.071697 
L 244.926597 149.941472 
L 245.487421 149.941472 
L 245.487421 157.028013 
L 246.048244 157.028013 
L 246.048244 154.585511 
L 246.609068 154.585511 
L 246.609068 155.069398 
L 247.169892 155.069398 
L 247.169892 154.64015 
L 247.730716 154.64015 
L 247.730716 155.32216 
L 248.291539 155.32216 
L 248.291539 153.290959 
L 248.852363 153.290959 
L 248.852363 153.514527 
L 249.413187 153.514527 
L 249.413187 152.720535 
L 249.974011 152.720535 
L 249.974011 151.617649 
L 250.534835 151.617649 
L 250.534835 151.808134 
L 251.095658 151.808134 
L 251.095658 152.292008 
L 251.656482 152.292008 
L 251.656482 153.618517 
L 252.217306 153.618517 
L 252.217306 155.416549 
L 252.77813 155.416549 
L 252.77813 156.463808 
L 253.338953 156.463808 
L 253.338953 156.905835 
L 253.899777 156.905835 
L 253.899777 157.734047 
L 254.460601 157.734047 
L 254.460601 156.151971 
L 255.021425 156.151971 
L 255.021425 156.021115 
L 255.582248 156.021115 
L 255.582248 156.907866 
L 256.143072 156.907866 
L 256.143072 158.872889 
L 256.703896 158.872889 
L 256.703896 160.650811 
L 257.26472 160.650811 
L 257.26472 162.409829 
L 257.825544 162.409829 
L 257.825544 163.781878 
L 258.386367 163.781878 
L 258.386367 160.433698 
L 258.947191 160.433698 
L 258.947191 158.139137 
L 259.508015 158.139137 
L 259.508015 158.344636 
L 260.068839 158.344636 
L 260.068839 159.471958 
L 261.190486 159.474251 
L 261.190486 158.355508 
L 261.75131 158.355508 
L 261.75131 157.988987 
L 262.312134 157.988987 
L 262.312134 156.443934 
L 262.872957 156.443934 
L 262.872957 156.693712 
L 263.433781 156.693712 
L 263.433781 156.372543 
L 263.994605 156.372543 
L 263.994605 157.130371 
L 264.555429 157.130371 
L 264.555429 156.356711 
L 265.116253 156.356711 
L 265.116253 158.121922 
L 265.677076 158.121922 
L 265.677076 157.861132 
L 266.2379 157.861132 
L 266.2379 155.619973 
L 266.798724 155.619973 
L 266.798724 155.887197 
L 267.359548 155.887197 
L 267.359548 154.271368 
L 267.920371 154.271368 
L 267.920371 153.032527 
L 268.481195 153.032527 
L 268.481195 152.163507 
L 269.042019 152.163507 
L 269.042019 153.409327 
L 269.602843 153.409327 
L 269.602843 154.189094 
L 270.163667 154.189094 
L 270.163667 152.747192 
L 270.72449 152.747192 
L 270.72449 153.166449 
L 271.285314 153.166449 
L 271.285314 150.743199 
L 271.846138 150.743199 
L 271.846138 153.338913 
L 272.967785 153.405887 
L 272.967785 153.064658 
L 273.528609 153.064658 
L 273.528609 152.668982 
L 274.089433 152.668982 
L 274.089433 156.91599 
L 274.650257 156.91599 
L 274.650257 153.656775 
L 275.21108 153.656775 
L 275.21108 153.154548 
L 275.771904 153.154548 
L 275.771904 152.602647 
L 276.332728 152.602647 
L 276.332728 151.355389 
L 276.893552 151.355389 
L 276.893552 150.029225 
L 277.454376 150.029225 
L 277.454376 144.60766 
L 278.015199 144.60766 
L 278.015199 142.703606 
L 278.576023 142.703606 
L 278.576023 145.364631 
L 279.136847 145.364631 
L 279.136847 141.466746 
L 279.697671 141.466746 
L 279.697671 142.776226 
L 280.258494 142.776226 
L 280.258494 140.146486 
L 280.819318 140.146486 
L 280.819318 135.177746 
L 281.380142 135.177746 
L 281.380142 132.654209 
L 281.940966 132.654209 
L 281.940966 128.840139 
L 282.501789 128.840139 
L 282.501789 126.589775 
L 283.062613 126.589775 
L 283.062613 121.864979 
L 283.623437 121.864979 
L 283.623437 113.97733 
L 284.184261 113.97733 
L 284.184261 113.464571 
L 284.745085 113.464571 
L 284.745085 108.842256 
L 285.305908 108.842256 
L 285.305908 110.108754 
L 285.866732 110.108754 
L 285.866732 106.430906 
L 286.427556 106.430906 
L 286.427556 116.48468 
L 286.98838 116.48468 
L 286.98838 109.590538 
L 287.549203 109.590538 
L 287.549203 111.714879 
L 288.110027 111.714879 
L 288.110027 116.965587 
L 288.670851 116.965587 
L 288.670851 117.109776 
L 289.231675 117.109776 
L 289.231675 119.42364 
L 289.792498 119.42364 
L 289.792498 117.303988 
L 290.353322 117.303988 
L 290.353322 116.214761 
L 290.914146 116.214761 
L 290.914146 115.719048 
L 291.47497 115.719048 
L 291.47497 113.651086 
L 292.035794 113.651086 
L 292.035794 110.995712 
L 292.596617 110.995712 
L 292.596617 113.163202 
L 293.157441 113.163202 
L 293.157441 112.714571 
L 294.279089 112.76988 
L 294.279089 113.55177 
L 294.839912 113.55177 
L 294.839912 113.201534 
L 295.400736 113.201534 
L 295.400736 114.378629 
L 295.96156 114.378629 
L 295.96156 115.275032 
L 296.522384 115.275032 
L 296.522384 113.845066 
L 297.083207 113.845066 
L 297.083207 113.47027 
L 297.644031 113.47027 
L 297.644031 114.352141 
L 298.204855 114.352141 
L 298.204855 117.248759 
L 298.765679 117.248759 
L 298.765679 117.426129 
L 299.326503 117.426129 
L 299.326503 117.576973 
L 299.887326 117.576973 
L 299.887326 118.886066 
L 300.44815 118.886066 
L 300.44815 121.256764 
L 301.008974 121.256764 
L 301.008974 119.52902 
L 301.569798 119.52902 
L 301.569798 120.440536 
L 302.130621 120.440536 
L 302.130621 121.08956 
L 302.691445 121.08956 
L 302.691445 117.483078 
L 303.252269 117.483078 
L 303.252269 118.818195 
L 304.373917 118.907174 
L 304.373917 118.519234 
L 304.93474 118.519234 
L 304.93474 118.718292 
L 305.495564 118.718292 
L 305.495564 119.523842 
L 306.056388 119.523842 
L 306.056388 121.256389 
L 306.617212 121.256389 
L 306.617212 120.419638 
L 307.178035 120.419638 
L 307.178035 123.777141 
L 307.738859 123.777141 
L 307.738859 125.6347 
L 308.299683 125.6347 
L 308.299683 126.043033 
L 308.860507 126.043033 
L 308.860507 125.611196 
L 309.42133 125.611196 
L 309.42133 126.364696 
L 309.982154 126.364696 
L 309.982154 127.269819 
L 310.542978 127.269819 
L 310.542978 122.811499 
L 311.103802 122.811499 
L 311.103802 124.528906 
L 311.664626 124.528906 
L 311.664626 123.828719 
L 312.225449 123.828719 
L 312.225449 123.669739 
L 312.786273 123.669739 
L 312.786273 126.514641 
L 313.347097 126.514641 
L 313.347097 125.887989 
L 313.907921 125.887989 
L 313.907921 126.457028 
L 314.468744 126.457028 
L 314.468744 127.039872 
L 315.029568 127.039872 
L 315.029568 126.029873 
L 315.590392 126.029873 
L 315.590392 126.339888 
L 316.151216 126.339888 
L 316.151216 126.146245 
L 317.272863 126.129244 
L 317.272863 124.016221 
L 317.833687 124.016221 
L 317.833687 122.614371 
L 318.394511 122.614371 
L 318.394511 120.896394 
L 318.955335 120.896394 
L 318.955335 119.178083 
L 319.516158 119.178083 
L 319.516158 117.839511 
L 320.637806 117.856088 
L 320.637806 117.995919 
L 321.19863 117.995919 
L 321.19863 119.053836 
L 321.759453 119.053836 
L 321.759453 120.911871 
L 322.320277 120.911871 
L 322.320277 119.634582 
L 322.881101 119.634582 
L 322.881101 120.144501 
L 323.441925 120.144501 
L 323.441925 120.331232 
L 324.002748 120.331232 
L 324.002748 120.726163 
L 324.563572 120.726163 
L 324.563572 119.914355 
L 325.124396 119.914355 
L 325.124396 118.209526 
L 325.68522 118.209526 
L 325.68522 118.851268 
L 326.246044 118.851268 
L 326.246044 119.053836 
L 326.806867 119.053836 
L 326.806867 118.751208 
L 327.367691 118.751208 
L 327.367691 119.181139 
L 327.928515 119.181139 
L 327.928515 119.025838 
L 329.050162 118.985424 
L 329.050162 119.207644 
L 329.610986 119.207644 
L 329.610986 120.058654 
L 330.17181 120.058654 
L 330.17181 120.430085 
L 330.732634 120.430085 
L 330.732634 120.063611 
L 331.293457 120.063611 
L 331.293457 120.322269 
L 331.854281 120.322269 
L 331.854281 120.447387 
L 332.415105 120.447387 
L 332.415105 120.242124 
L 332.975929 120.242124 
L 332.975929 121.750362 
L 333.536753 121.750362 
L 333.536753 122.776033 
L 334.097576 122.776033 
L 334.097576 124.186453 
L 334.6584 124.186453 
L 334.6584 123.108439 
L 335.219224 123.108439 
L 335.219224 123.694961 
L 335.780048 123.694961 
L 335.780048 123.483195 
L 336.340871 123.483195 
L 336.340871 124.671159 
L 336.901695 124.671159 
L 336.901695 124.864558 
L 337.462519 124.864558 
L 337.462519 124.639465 
L 338.023343 124.639465 
L 338.023343 124.915748 
L 339.14499 124.859223 
L 339.14499 125.028358 
L 339.705814 125.028358 
L 339.705814 127.160976 
L 340.266638 127.160976 
L 340.266638 128.407127 
L 340.827462 128.407127 
L 340.827462 127.254378 
L 341.388285 127.254378 
L 341.388285 128.447132 
L 341.949109 128.447132 
L 341.949109 128.992061 
L 342.509933 128.992061 
L 342.509933 130.754934 
L 343.070757 130.754934 
L 343.070757 132.679308 
L 343.63158 132.679308 
L 343.63158 130.479883 
L 344.192404 130.479883 
L 344.192404 129.505408 
L 344.753228 129.505408 
L 344.753228 128.7416 
L 345.314052 128.7416 
L 345.314052 128.947772 
L 345.874876 128.947772 
L 345.874876 129.225294 
L 346.435699 129.225294 
L 346.435699 130.779047 
L 346.996523 130.779047 
L 346.996523 131.23049 
L 347.557347 131.23049 
L 347.557347 131.569876 
L 348.118171 131.569876 
L 348.118171 132.889632 
L 348.678994 132.889632 
L 348.678994 131.981364 
L 349.239818 131.981364 
L 349.239818 131.469918 
L 349.800642 131.469918 
L 349.800642 130.146033 
L 350.361466 130.146033 
L 350.361466 128.514682 
L 350.922289 128.514682 
L 350.922289 129.063008 
L 351.483113 129.063008 
L 351.483113 130.898254 
L 352.043937 130.898254 
L 352.043937 130.277216 
L 353.165585 130.292161 
L 353.165585 129.79603 
L 353.726408 129.79603 
L 353.726408 129.57088 
L 354.287232 129.57088 
L 354.287232 129.773014 
L 354.848056 129.773014 
L 354.848056 130.515885 
L 355.40888 130.515885 
L 355.40888 131.346842 
L 355.969703 131.346842 
L 355.969703 130.81969 
L 356.530527 130.81969 
L 356.530527 133.08697 
L 357.091351 133.08697 
L 357.091351 132.42902 
L 357.652175 132.42902 
L 357.652175 132.086286 
L 358.212998 132.086286 
L 358.212998 132.529802 
L 358.773822 132.529802 
L 358.773822 133.614779 
L 359.89547 133.52008 
L 359.89547 137.299829 
L 360.456294 137.299829 
L 360.456294 134.678447 
L 361.017117 134.678447 
L 361.017117 136.297939 
L 361.577941 136.297939 
L 361.577941 140.888738 
L 362.138765 140.888738 
L 362.138765 142.249735 
L 362.699589 142.249735 
L 362.699589 141.46577 
L 363.260412 141.46577 
L 363.260412 139.822388 
L 363.821236 139.822388 
L 363.821236 138.021457 
L 364.38206 138.021457 
L 364.38206 139.580755 
L 364.942884 139.580755 
L 364.942884 141.151694 
L 365.503707 141.151694 
L 365.503707 140.369677 
L 366.064531 140.369677 
L 366.064531 140.854556 
L 366.625355 140.854556 
L 366.625355 141.086367 
L 367.186179 141.086367 
L 367.186179 140.857402 
L 367.747003 140.857402 
L 367.747003 139.761945 
L 368.307826 139.761945 
L 368.307826 139.470295 
L 368.86865 139.470295 
L 368.86865 138.773804 
L 369.429474 138.773804 
L 369.429474 139.249337 
L 369.990298 139.249337 
L 369.990298 138.205579 
L 370.551121 138.205579 
L 370.551121 136.305585 
L 371.111945 136.305585 
L 371.111945 136.517707 
L 371.672769 136.517707 
L 371.672769 136.372219 
L 372.233593 136.372219 
L 372.233593 134.779927 
L 372.794416 134.779927 
L 372.794416 135.826995 
L 373.35524 135.826995 
L 373.35524 135.657237 
L 373.916064 135.657237 
L 373.916064 137.385776 
L 374.476888 137.385776 
L 374.476888 137.074977 
L 375.037712 137.074977 
L 375.037712 138.447958 
L 375.598535 138.447958 
L 375.598535 139.039373 
L 376.159359 139.039373 
L 376.159359 138.681168 
L 376.720183 138.681168 
L 376.720183 138.075444 
L 377.84183 138.056325 
L 377.84183 139.598625 
L 378.402654 139.598625 
L 378.402654 140.792978 
L 378.963478 140.792978 
L 378.963478 140.372459 
L 379.524302 140.372459 
L 379.524302 140.830851 
L 380.085126 140.830851 
L 380.085126 139.815162 
L 380.645949 139.815162 
L 380.645949 140.484961 
L 381.767597 140.586822 
L 381.767597 140.053116 
L 382.328421 140.053116 
L 382.328421 139.398451 
L 384.010892 139.322439 
L 384.010892 139.601307 
L 385.132539 139.542384 
L 385.132539 140.013878 
L 385.693363 140.013878 
L 385.693363 139.349807 
L 386.254187 139.349807 
L 386.254187 139.635307 
L 387.375835 139.55933 
L 387.375835 140.294709 
L 387.936658 140.294709 
L 387.936658 140.568095 
L 389.058306 140.606504 
L 389.058306 140.244879 
L 390.179953 140.17862 
L 390.179953 139.598625 
L 390.740777 139.598625 
L 390.740777 138.530223 
L 391.301601 138.530223 
L 391.301601 138.934303 
L 391.862425 138.934303 
L 391.862425 139.22649 
L 392.423248 139.22649 
L 392.423248 138.281024 
L 392.984072 138.281024 
L 392.984072 137.359231 
L 393.544896 137.359231 
L 393.544896 137.872672 
L 394.10572 137.872672 
L 394.10572 136.874482 
L 395.227367 136.837591 
L 395.227367 133.8075 
L 395.788191 133.8075 
L 395.788191 135.569914 
L 396.349015 135.569914 
L 396.349015 136.23916 
L 397.470662 136.237635 
L 397.470662 135.324686 
L 398.031486 135.324686 
L 398.031486 134.967848 
L 398.59231 134.967848 
L 398.59231 135.364872 
L 399.153134 135.364872 
L 399.153134 135.82251 
L 400.274781 135.916893 
L 400.274781 137.37612 
L 400.835605 137.37612 
L 400.835605 136.682881 
L 401.396429 136.682881 
L 401.396429 137.079736 
L 401.957253 137.079736 
L 401.957253 137.82824 
L 402.518076 137.82824 
L 402.518076 139.660394 
L 403.0789 139.660394 
L 403.0789 140.313195 
L 403.639724 140.313195 
L 403.639724 140.601816 
L 404.200548 140.601816 
L 404.200548 140.175864 
L 404.761371 140.175864 
L 404.761371 140.328921 
L 405.322195 140.328921 
L 405.322195 140.075049 
L 405.883019 140.075049 
L 405.883019 139.20279 
L 406.443843 139.20279 
L 406.443843 139.348923 
L 407.004666 139.348923 
L 407.004666 140.141899 
L 407.56549 140.141899 
L 407.56549 140.295633 
L 408.126314 140.295633 
L 408.126314 140.118981 
L 409.247962 140.103411 
L 409.247962 139.668464 
L 409.808785 139.668464 
L 409.808785 139.319792 
L 411.491257 139.385173 
L 411.491257 138.981129 
L 412.05208 138.981129 
L 412.05208 138.747172 
L 412.612904 138.747172 
L 412.612904 138.38457 
L 413.173728 138.38457 
L 413.173728 137.372902 
L 414.295376 137.266188 
L 414.295376 136.422142 
L 414.856199 136.422142 
L 414.856199 135.782189 
L 415.417023 135.782189 
L 415.417023 134.202457 
L 415.977847 134.202457 
L 415.977847 133.832649 
L 416.538671 133.832649 
L 416.538671 128.231686 
L 417.099494 128.231686 
L 417.099494 129.903019 
L 417.660318 129.903019 
L 417.660318 129.515382 
L 418.221142 129.515382 
L 418.221142 131.84599 
L 418.781966 131.84599 
L 418.781966 133.243137 
L 419.342789 133.243137 
L 419.342789 132.29328 
L 419.903613 132.29328 
L 419.903613 132.763186 
L 420.464437 132.763186 
L 420.464437 133.198871 
L 421.025261 133.198871 
L 421.025261 130.807902 
L 421.586085 130.807902 
L 421.586085 129.701879 
L 422.146908 129.701879 
L 422.146908 130.604408 
L 422.707732 130.604408 
L 422.707732 129.148352 
L 423.268556 129.148352 
L 423.268556 127.615457 
L 423.82938 127.615457 
L 423.82938 126.640012 
L 424.390203 126.640012 
L 424.390203 125.337533 
L 425.511851 125.382139 
L 425.511851 126.536287 
L 426.072675 126.536287 
L 426.072675 125.70352 
L 426.633498 125.70352 
L 426.633498 127.31721 
L 427.194322 127.31721 
L 427.194322 127.029031 
L 427.755146 127.029031 
L 427.755146 126.807041 
L 428.876794 126.823134 
L 428.876794 125.85954 
L 429.437617 125.85954 
L 429.437617 126.077852 
L 429.998441 126.077852 
L 429.998441 126.964104 
L 430.559265 126.964104 
L 430.559265 129.540893 
L 431.120089 129.540893 
L 431.120089 127.420841 
L 431.680912 127.420841 
L 431.680912 129.269074 
L 432.241736 129.269074 
L 432.241736 128.912192 
L 432.80256 128.912192 
L 432.80256 129.651055 
L 433.363384 129.651055 
L 433.363384 129.999208 
L 433.924207 129.999208 
L 433.924207 129.110258 
L 434.485031 129.110258 
L 434.485031 129.829195 
L 435.045855 129.829195 
L 435.045855 129.597571 
L 435.606679 129.597571 
L 435.606679 129.008287 
L 436.167503 129.008287 
L 436.167503 128.101704 
L 436.728326 128.101704 
L 436.728326 127.439419 
L 437.28915 127.439419 
L 437.28915 126.612946 
L 437.849974 126.612946 
L 437.849974 127.265335 
L 438.410798 127.265335 
L 438.410798 126.849494 
L 438.971621 126.849494 
L 438.971621 127.313215 
L 439.532445 127.313215 
L 439.532445 128.51151 
L 440.093269 128.51151 
L 440.093269 127.836439 
L 440.654093 127.836439 
L 440.654093 127.43289 
L 441.214916 127.43289 
L 441.214916 127.691572 
L 441.77574 127.691572 
L 441.77574 127.514396 
L 442.336564 127.514396 
L 442.336564 127.85385 
L 442.897388 127.85385 
L 442.897388 127.54113 
L 446.26233 127.440926 
L 446.26233 127.400776 
L 446.823154 127.400776 
L 446.823154 127.24492 
L 447.383978 127.24492 
L 447.383978 126.913579 
L 447.944802 126.913579 
L 447.944802 126.652107 
L 448.505625 126.652107 
L 448.505625 126.091042 
L 449.066449 126.091042 
L 449.066449 125.404933 
L 449.627273 125.404933 
L 449.627273 125.983879 
L 450.188097 125.983879 
L 450.188097 125.842768 
L 450.748921 125.842768 
L 450.748921 126.131605 
L 451.309744 126.131605 
L 451.309744 125.564266 
L 451.870568 125.564266 
L 451.870568 125.946407 
L 452.431392 125.946407 
L 452.431392 125.711849 
L 453.553039 125.79625 
L 453.553039 126.647268 
L 454.113863 126.647268 
L 454.113863 126.530513 
L 454.674687 126.530513 
L 454.674687 126.043973 
L 455.235511 126.043973 
L 455.235511 122.665183 
L 455.796335 122.665183 
L 455.796335 122.452749 
L 456.357158 122.452749 
L 456.357158 121.074695 
L 456.917982 121.074695 
L 456.917982 120.494317 
L 457.478806 120.494317 
L 457.478806 120.836804 
L 458.03963 120.836804 
L 458.03963 117.717178 
L 458.600453 117.717178 
L 458.600453 116.847293 
L 459.161277 116.847293 
L 459.161277 115.151511 
L 459.722101 115.151511 
L 459.722101 117.761263 
L 460.843748 117.744125 
L 460.843748 118.165466 
L 461.404572 118.165466 
L 461.404572 117.650749 
L 461.965396 117.650749 
L 461.965396 118.000414 
L 462.52622 118.000414 
L 462.52622 117.468044 
L 463.087044 117.468044 
L 463.087044 118.309651 
L 463.647867 118.309651 
L 463.647867 117.759993 
L 464.769515 117.801623 
L 464.769515 117.477439 
L 465.330339 117.477439 
L 465.330339 117.775873 
L 466.451986 117.856088 
L 466.451986 118.051854 
L 467.573634 118.074077 
L 467.573634 122.501583 
L 468.134457 122.501583 
L 468.134457 120.895657 
L 468.695281 120.895657 
L 468.695281 120.208225 
L 469.256105 120.208225 
L 469.256105 120.411717 
L 469.816929 120.411717 
L 469.816929 121.094765 
L 470.377753 121.094765 
L 470.377753 120.962064 
L 470.938576 120.962064 
L 470.938576 120.719587 
L 471.4994 120.719587 
L 471.4994 120.557296 
L 472.060224 120.557296 
L 472.060224 120.710457 
L 472.621048 120.710457 
L 472.621048 120.940643 
L 473.742695 120.959108 
L 473.742695 119.775577 
L 474.303519 119.775577 
L 474.303519 119.381772 
L 474.864343 119.381772 
L 474.864343 119.166202 
L 475.425166 119.166202 
L 475.425166 119.60615 
L 477.107638 119.611695 
L 477.107638 120.123184 
L 477.668462 120.123184 
L 477.668462 119.949897 
L 478.229285 119.949897 
L 478.229285 119.77907 
L 478.790109 119.77907 
L 478.790109 119.462493 
L 479.350933 119.462493 
L 479.350933 119.663053 
L 479.911757 119.663053 
L 479.911757 119.402009 
L 481.033404 119.40098 
L 481.033404 118.750542 
L 481.594228 118.750542 
L 481.594228 118.586478 
L 482.155052 118.586478 
L 482.155052 118.961213 
L 482.715875 118.961213 
L 482.715875 118.120206 
L 483.837523 118.178416 
L 483.837523 117.091007 
L 484.398347 117.091007 
L 484.398347 116.752346 
L 484.959171 116.752346 
L 484.959171 117.159396 
L 485.519994 117.159396 
L 485.519994 116.363992 
L 486.080818 116.363992 
L 486.080818 116.023846 
L 486.641642 116.023846 
L 486.641642 116.593442 
L 487.202466 116.593442 
L 487.202466 116.311463 
L 487.763289 116.311463 
L 487.763289 115.23528 
L 488.324113 115.23528 
L 488.324113 115.576299 
L 489.445761 115.614405 
L 489.445761 115.854647 
L 490.006585 115.854647 
L 490.006585 115.431381 
L 490.567408 115.431381 
L 490.567408 114.844868 
L 491.689056 114.955203 
L 491.689056 114.676601 
L 492.24988 114.676601 
L 492.24988 114.433603 
L 493.371527 114.490896 
L 493.371527 114.145974 
L 493.932351 114.145974 
L 493.932351 112.942494 
L 494.493175 112.942494 
L 494.493175 111.534489 
L 495.053998 111.534489 
L 495.053998 110.660872 
L 495.614822 110.660872 
L 495.614822 110.040166 
L 496.175646 110.040166 
L 496.175646 108.856407 
L 496.73647 108.856407 
L 496.73647 109.145017 
L 497.297294 109.145017 
L 497.297294 111.115853 
L 497.858117 111.115853 
L 497.858117 114.354302 
L 498.418941 114.354302 
L 498.418941 113.335731 
L 498.979765 113.335731 
L 498.979765 111.206177 
L 499.540589 111.206177 
L 499.540589 111.462763 
L 500.101412 111.462763 
L 500.101412 110.897338 
L 500.662236 110.897338 
L 500.662236 111.010462 
L 501.783884 111.076501 
L 501.783884 109.490336 
L 502.344707 109.490336 
L 502.344707 108.430864 
L 502.905531 108.430864 
L 502.905531 108.051373 
L 503.466355 108.051373 
L 503.466355 109.188535 
L 504.588003 109.112332 
L 504.588003 108.407824 
L 505.148826 108.407824 
L 505.148826 108.090883 
L 505.70965 108.090883 
L 505.70965 106.559144 
L 506.270474 106.559144 
L 506.270474 106.18243 
L 506.831298 106.18243 
L 506.831298 105.452143 
L 507.392121 105.452143 
L 507.392121 103.81482 
L 507.952945 103.81482 
L 507.952945 103.938117 
L 508.513769 103.938117 
L 508.513769 105.430897 
L 509.074593 105.430897 
L 509.074593 104.810292 
L 509.635416 104.810292 
L 509.635416 104.31239 
L 510.19624 104.31239 
L 510.19624 109.830498 
L 510.757064 109.830498 
L 510.757064 106.879115 
L 511.317888 106.879115 
L 511.317888 110.715591 
L 511.878712 110.715591 
L 511.878712 108.289147 
L 512.439535 108.289147 
L 512.439535 108.4172 
L 513.000359 108.4172 
L 513.000359 107.514258 
L 513.561183 107.514258 
L 513.561183 106.493532 
L 514.122007 106.493532 
L 514.122007 105.574016 
L 514.68283 105.574016 
L 514.68283 104.958418 
L 515.243654 104.958418 
L 515.243654 105.818993 
L 515.804478 105.818993 
L 515.804478 105.700181 
L 516.365302 105.700181 
L 516.365302 104.657057 
L 517.486949 104.585359 
L 517.486949 103.798108 
L 518.047773 103.798108 
L 518.047773 103.073969 
L 518.608597 103.073969 
L 518.608597 101.334807 
L 519.169421 101.334807 
L 519.169421 100.32188 
L 519.730244 100.32188 
L 519.730244 98.559223 
L 520.291068 98.559223 
L 520.291068 96.400521 
L 520.851892 96.400521 
L 520.851892 96.973403 
L 521.973539 96.926286 
L 521.973539 94.421969 
L 522.534363 94.421969 
L 522.534363 91.971085 
L 523.095187 91.971085 
L 523.095187 91.752502 
L 524.216835 91.658328 
L 524.216835 90.581649 
L 524.777658 90.581649 
L 524.777658 89.559848 
L 525.338482 89.559848 
L 525.338482 88.317015 
L 525.899306 88.317015 
L 525.899306 86.686475 
L 526.46013 86.686475 
L 526.46013 88.137176 
L 527.020953 88.137176 
L 527.020953 89.994551 
L 527.581777 89.994551 
L 527.581777 88.980174 
L 528.142601 88.980174 
L 528.142601 88.078943 
L 528.703425 88.078943 
L 528.703425 89.790451 
L 529.264248 89.790451 
L 529.264248 89.321264 
L 529.825072 89.321264 
L 529.825072 90.482701 
L 530.385896 90.482701 
L 530.385896 88.989182 
L 530.94672 88.989182 
L 530.94672 89.783454 
L 531.507544 89.783454 
L 531.507544 91.319569 
L 532.629191 91.216476 
L 532.629191 95.475749 
L 533.190015 95.475749 
L 533.190015 91.888129 
L 533.750839 91.888129 
L 533.750839 87.225464 
L 534.311662 87.225464 
L 534.311662 89.271845 
L 534.872486 89.271845 
L 534.872486 87.531626 
L 535.43331 87.531626 
L 535.43331 86.948131 
L 535.994134 86.948131 
L 535.994134 87.492271 
L 536.554957 87.492271 
L 536.554957 84.53268 
L 537.115781 84.53268 
L 537.115781 83.694718 
L 537.676605 83.694718 
L 537.676605 80.59746 
L 538.237429 80.59746 
L 538.237429 78.963954 
L 538.798253 78.963954 
L 538.798253 79.347247 
L 539.359076 79.347247 
L 539.359076 79.964866 
L 539.9199 79.964866 
L 539.9199 78.211415 
L 541.041548 78.17599 
L 541.041548 77.024284 
L 542.163195 77.010247 
L 542.163195 77.953665 
L 542.724019 77.953665 
L 542.724019 78.306644 
L 543.284843 78.306644 
L 543.284843 78.870189 
L 543.845666 78.870189 
L 543.845666 84.491779 
L 544.40649 84.491779 
L 544.40649 81.659829 
L 544.967314 81.659829 
L 544.967314 80.456367 
L 545.528138 80.456367 
L 545.528138 81.099077 
L 546.088962 81.099077 
L 546.088962 80.529513 
L 546.649785 80.529513 
L 546.649785 79.04334 
L 547.210609 79.04334 
L 547.210609 77.910171 
L 547.771433 77.910171 
L 547.771433 78.275749 
L 548.332257 78.275749 
L 548.332257 76.918025 
L 548.89308 76.918025 
L 548.89308 75.948916 
L 549.453904 75.948916 
L 549.453904 71.959561 
L 550.014728 71.959561 
L 550.014728 72.814294 
L 550.575552 72.814294 
L 550.575552 71.386426 
L 551.136375 71.386426 
L 551.136375 71.691149 
L 552.258023 71.729689 
L 552.258023 70.864174 
L 552.818847 70.864174 
L 552.818847 68.847759 
L 553.379671 68.847759 
L 553.379671 67.011613 
L 553.940494 67.011613 
L 553.940494 67.70257 
L 554.501318 67.70257 
L 554.501318 69.426647 
L 555.062142 69.426647 
L 555.062142 69.670799 
L 555.622966 69.670799 
L 555.622966 65.618681 
L 556.183789 65.618681 
L 556.183789 65.139052 
L 556.744613 65.139052 
L 556.744613 64.654585 
L 557.305437 64.654585 
L 557.305437 63.334023 
L 557.866261 63.334023 
L 557.866261 60.733897 
L 558.427084 60.733897 
L 558.427084 58.783297 
L 558.987908 58.783297 
L 558.987908 57.447231 
L 559.548732 57.447231 
L 559.548732 49.541546 
L 560.109556 49.541546 
L 560.109556 51.911888 
L 560.67038 51.911888 
L 560.67038 50.317058 
L 561.231203 50.317058 
L 561.231203 46.713271 
L 561.792027 46.713271 
L 561.792027 48.898264 
L 562.352851 48.898264 
L 562.352851 53.803441 
L 563.474498 53.858133 
L 563.474498 53.144067 
L 564.035322 53.144067 
L 564.035322 53.77377 
L 564.596146 53.77377 
L 564.596146 51.953522 
L 565.15697 51.953522 
L 565.15697 49.175554 
L 565.717794 49.175554 
L 565.717794 52.815068 
L 566.278617 52.815068 
L 566.278617 53.781126 
L 566.839441 53.781126 
L 566.839441 54.146887 
L 567.400265 54.146887 
L 567.400265 58.219025 
L 567.961089 58.219025 
L 567.961089 57.589304 
L 568.521912 57.589304 
L 568.521912 57.812907 
L 569.64356 57.740182 
L 569.64356 60.388954 
L 570.204384 60.388954 
L 570.204384 63.133064 
L 570.765207 63.133064 
L 570.765207 68.312581 
L 571.326031 68.312581 
L 571.326031 64.633184 
L 571.886855 64.633184 
L 571.886855 65.091147 
L 572.447679 65.091147 
L 572.447679 61.707478 
L 573.008503 61.707478 
L 573.008503 58.387694 
L 573.569326 58.387694 
L 573.569326 58.085114 
L 574.13015 58.085114 
L 574.13015 60.20401 
L 574.690974 60.20401 
L 574.690974 59.898932 
L 575.251798 59.898932 
L 575.251798 58.684176 
L 575.812621 58.684176 
L 575.812621 57.583057 
L 576.373445 57.583057 
L 576.373445 60.730792 
L 576.934269 60.730792 
L 576.934269 63.313415 
L 577.495093 63.313415 
L 577.495093 62.428146 
L 578.055916 62.428146 
L 578.055916 64.498494 
L 578.61674 64.498494 
L 578.61674 63.730251 
L 579.177564 63.730251 
L 579.177564 63.438767 
L 579.738388 63.438767 
L 579.738388 64.095419 
L 580.299212 64.095419 
L 580.299212 65.400403 
L 580.860035 65.400403 
L 580.860035 68.275755 
L 581.420859 68.275755 
L 581.420859 66.839079 
L 581.981683 66.839079 
L 581.981683 69.217473 
L 582.542507 69.217473 
L 582.542507 68.746676 
L 583.10333 68.746676 
L 583.10333 65.424695 
L 583.664154 65.424695 
L 583.664154 64.320748 
L 584.224978 64.320748 
L 584.224978 64.810781 
L 584.785802 64.810781 
L 584.785802 62.948312 
L 585.346625 62.948312 
L 585.346625 61.296193 
L 585.907449 61.296193 
L 585.907449 62.953155 
L 586.468273 62.953155 
L 586.468273 62.230846 
L 587.029097 62.230846 
L 587.029097 61.089181 
L 587.589921 61.089181 
L 587.589921 61.354528 
L 588.150744 61.354528 
L 588.150744 62.069764 
L 588.711568 62.069764 
L 588.711568 64.081555 
L 589.833216 64.06277 
L 589.833216 64.648541 
L 590.394039 64.648541 
L 590.394039 64.248946 
L 590.954863 64.248946 
L 590.954863 66.416393 
L 591.515687 66.416393 
L 591.515687 67.073077 
L 592.076511 67.073077 
L 592.076511 66.952326 
L 592.637334 66.952326 
L 592.637334 66.248999 
L 594.319806 66.308749 
L 594.319806 68.453631 
L 594.88063 68.453631 
L 594.88063 69.208795 
L 595.441453 69.208795 
L 595.441453 69.826794 
L 596.002277 69.826794 
L 596.002277 68.820126 
L 596.563101 68.820126 
L 596.563101 70.747714 
L 597.123925 70.747714 
L 597.123925 70.998779 
L 597.684748 70.998779 
L 597.684748 70.567898 
L 598.245572 70.567898 
L 598.245572 69.24369 
L 598.806396 69.24369 
L 598.806396 69.47072 
L 599.36722 69.47072 
L 599.36722 68.935236 
L 599.928044 68.935236 
L 599.928044 69.966712 
L 600.488867 69.966712 
L 600.488867 70.481431 
L 601.049691 70.481431 
L 601.049691 67.139072 
L 602.171339 67.100583 
L 602.171339 66.034742 
L 602.732162 66.034742 
L 602.732162 65.429079 
L 603.292986 65.429079 
L 603.292986 64.695116 
L 603.85381 64.695116 
L 603.85381 66.330478 
L 604.414634 66.330478 
L 604.414634 68.052767 
L 604.975457 68.052767 
L 604.975457 68.953472 
L 605.536281 68.953472 
L 605.536281 70.855684 
L 606.097105 70.855684 
L 606.097105 70.470327 
L 606.657929 70.470327 
L 606.657929 70.266767 
L 607.218753 70.266767 
L 607.218753 69.693715 
L 607.779576 69.693715 
L 607.779576 70.127474 
L 608.3404 70.127474 
L 608.3404 68.890638 
L 608.901224 68.890638 
L 608.901224 67.852399 
L 609.462048 67.852399 
L 609.462048 68.030213 
L 610.022871 68.030213 
L 610.022871 67.302614 
L 610.583695 67.302614 
L 610.583695 69.646253 
L 611.144519 69.646253 
L 611.144519 70.507983 
L 611.705343 70.507983 
L 611.705343 70.222402 
L 612.266166 70.222402 
L 612.266166 69.577573 
L 612.82699 69.577573 
L 612.82699 70.167948 
L 613.387814 70.167948 
L 613.387814 68.834827 
L 613.948638 68.834827 
L 613.948638 69.380999 
L 614.509462 69.380999 
L 614.509462 69.054669 
L 615.070285 69.054669 
L 615.070285 69.292838 
L 615.631109 69.292838 
L 615.631109 69.702986 
L 616.191933 69.702986 
L 616.191933 69.412522 
L 616.752757 69.412522 
L 616.752757 69.242385 
L 617.31358 69.242385 
L 617.31358 70.487643 
L 617.874404 70.487643 
L 617.874404 69.330686 
L 618.435228 69.330686 
L 618.435228 69.618949 
L 620.117699 69.683343 
L 620.117699 69.789451 
L 620.678523 69.789451 
L 620.678523 70.304028 
L 621.239347 70.304028 
L 621.239347 70.008793 
L 621.800171 70.008793 
L 621.800171 69.853091 
L 623.482642 69.949093 
L 623.482642 72.211709 
L 624.043466 72.211709 
L 624.043466 72.898247 
L 624.604289 72.898247 
L 624.604289 77.445264 
L 625.165113 77.445264 
L 625.165113 78.108373 
L 625.725937 78.108373 
L 625.725937 81.011416 
L 626.286761 81.011416 
L 626.286761 78.47112 
L 626.847584 78.47112 
L 626.847584 79.163593 
L 627.408408 79.163593 
L 627.408408 81.282146 
L 627.969232 81.282146 
L 627.969232 82.990536 
L 628.530056 82.990536 
L 628.530056 83.275758 
L 629.09088 83.275758 
L 629.09088 84.322 
L 629.651703 84.322 
L 629.651703 82.371292 
L 630.212527 82.371292 
L 630.212527 79.191175 
L 630.773351 79.191175 
L 630.773351 79.917871 
L 631.334175 79.917871 
L 631.334175 80.708507 
L 631.894998 80.708507 
L 631.894998 81.139659 
L 632.455822 81.139659 
L 632.455822 80.666502 
L 633.57747 80.662454 
L 633.57747 79.722978 
L 634.138294 79.722978 
L 634.138294 81.845768 
L 634.699117 81.845768 
L 634.699117 82.517597 
L 635.259941 82.517597 
L 635.259941 81.989859 
L 635.820765 81.989859 
L 635.820765 81.514378 
L 636.381589 81.514378 
L 636.381589 82.189326 
L 637.503236 82.24562 
L 637.503236 83.021589 
L 639.185707 82.976125 
L 639.185707 83.285543 
L 639.746531 83.285543 
L 639.746531 81.741134 
L 640.307355 81.741134 
L 640.307355 81.925936 
L 640.868179 81.925936 
L 640.868179 82.067069 
L 641.429003 82.067069 
L 641.429003 80.368148 
L 641.989826 80.368148 
L 641.989826 80.185107 
L 642.55065 80.185107 
L 642.55065 81.159083 
L 643.111474 81.159083 
L 643.111474 80.790788 
L 644.233121 80.800642 
L 644.233121 80.577129 
L 646.476416 80.506641 
L 646.476416 79.919191 
L 647.03724 79.919191 
L 647.03724 79.597007 
L 647.598064 79.597007 
L 647.598064 79.82961 
L 648.158888 79.82961 
L 648.158888 80.169818 
L 648.719712 80.169818 
L 648.719712 79.291608 
L 649.280535 79.291608 
L 649.280535 79.102898 
L 649.841359 79.102898 
L 649.841359 75.562809 
L 650.402183 75.562809 
L 650.402183 74.400637 
L 650.963007 74.400637 
L 650.963007 73.915227 
L 651.52383 73.915227 
L 651.52383 74.914051 
L 652.084654 74.914051 
L 652.084654 74.371144 
L 652.645478 74.371144 
L 652.645478 74.047296 
L 653.206302 74.047296 
L 653.206302 73.650679 
L 653.767125 73.650679 
L 653.767125 74.375366 
L 654.327949 74.375366 
L 654.327949 73.950574 
L 655.449597 73.849818 
L 655.449597 72.159334 
L 656.571244 72.215557 
L 656.571244 70.14923 
L 657.132068 70.14923 
L 657.132068 65.741451 
L 657.692892 65.741451 
L 657.692892 65.572645 
L 658.253716 65.572645 
L 658.253716 64.765057 
L 658.814539 64.765057 
L 658.814539 66.279987 
L 659.375363 66.279987 
L 659.375363 65.082181 
L 659.936187 65.082181 
L 659.936187 63.452044 
L 660.497011 63.452044 
L 660.497011 63.857692 
L 661.057834 63.857692 
L 661.057834 64.916941 
L 661.618658 64.916941 
L 661.618658 65.795128 
L 662.179482 65.795128 
L 662.179482 66.239416 
L 662.740306 66.239416 
L 662.740306 64.818265 
L 663.30113 64.818265 
L 663.30113 63.117009 
L 663.861953 63.117009 
L 663.861953 62.607194 
L 664.422777 62.607194 
L 664.422777 60.125177 
L 664.983601 60.125177 
L 664.983601 58.518126 
L 665.544425 58.518126 
L 665.544425 58.298406 
L 666.105248 58.298406 
L 666.105248 59.060741 
L 666.666072 59.060741 
L 666.666072 56.742879 
L 667.226896 56.742879 
L 667.226896 58.11128 
L 667.78772 58.11128 
L 667.78772 55.708939 
L 668.348543 55.708939 
L 668.348543 57.063537 
L 668.909367 57.063537 
L 668.909367 58.795671 
L 669.470191 58.795671 
L 669.470191 59.256481 
L 670.591839 59.358155 
L 670.591839 61.048514 
L 671.152662 61.048514 
L 671.152662 61.702244 
L 671.713486 61.702244 
L 671.713486 61.447405 
L 672.27431 61.447405 
L 672.27431 59.47376 
L 672.835134 59.47376 
L 672.835134 57.092116 
L 673.395957 57.092116 
L 673.395957 56.722383 
L 673.956781 56.722383 
L 673.956781 57.491649 
L 674.517605 57.491649 
L 674.517605 60.526575 
L 675.078429 60.526575 
L 675.078429 60.114559 
L 675.639253 60.114559 
L 675.639253 59.015935 
L 676.200076 59.015935 
L 676.200076 59.723142 
L 677.321724 59.815649 
L 677.321724 61.678743 
L 677.882548 61.678743 
L 677.882548 61.053652 
L 678.443371 61.053652 
L 678.443371 59.364632 
L 679.004195 59.364632 
L 679.004195 59.55876 
L 679.565019 59.55876 
L 679.565019 60.350261 
L 680.125843 60.350261 
L 680.125843 59.808279 
L 680.686666 59.808279 
L 680.686666 60.009265 
L 681.808314 59.988211 
L 681.808314 60.492717 
L 682.369138 60.492717 
L 682.369138 64.159693 
L 682.929962 64.159693 
L 682.929962 64.684623 
L 683.490785 64.684623 
L 683.490785 64.434955 
L 684.051609 64.434955 
L 684.051609 64.86369 
L 684.612433 64.86369 
L 684.612433 64.717942 
L 685.173257 64.717942 
L 685.173257 63.776241 
L 685.73408 63.776241 
L 685.73408 64.534448 
L 686.294904 64.534448 
L 686.294904 65.26314 
L 686.855728 65.26314 
L 686.855728 65.375396 
L 687.416552 65.375396 
L 687.416552 65.199309 
L 687.977375 65.199309 
L 687.977375 63.580877 
L 688.538199 63.580877 
L 688.538199 62.278368 
L 689.099023 62.278368 
L 689.099023 62.440964 
L 689.659847 62.440964 
L 689.659847 62.307221 
L 690.220671 62.307221 
L 690.220671 61.995191 
L 690.781494 61.995191 
L 690.781494 63.236549 
L 691.903142 63.255452 
L 691.903142 64.096092 
L 692.463966 64.096092 
L 692.463966 64.810703 
L 693.024789 64.810703 
L 693.024789 66.304511 
L 693.585613 66.304511 
L 693.585613 68.367666 
L 694.146437 68.367666 
L 694.146437 66.564339 
L 695.268084 66.469528 
L 695.268084 67.210794 
L 695.828908 67.210794 
L 695.828908 66.498941 
L 696.389732 66.498941 
L 696.389732 67.093596 
L 696.950556 67.093596 
L 696.950556 67.524227 
L 697.51138 67.524227 
L 697.51138 67.754422 
L 698.072203 67.754422 
L 698.072203 67.246907 
L 698.633027 67.246907 
L 698.633027 67.659526 
L 699.193851 67.659526 
L 699.193851 67.344441 
L 700.876322 67.435092 
L 700.876322 68.255178 
L 701.437146 68.255178 
L 701.437146 67.052952 
L 701.99797 67.052952 
L 701.99797 65.157588 
L 703.119617 65.213165 
L 703.119617 63.157647 
L 703.680441 63.157647 
L 703.680441 63.019914 
L 704.241265 63.019914 
L 704.241265 63.67925 
L 704.802089 63.67925 
L 704.802089 64.270363 
L 705.362912 64.270363 
L 705.362912 63.772507 
L 705.923736 63.772507 
L 705.923736 62.139123 
L 706.48456 62.139123 
L 706.48456 61.916876 
L 707.045384 61.916876 
L 707.045384 62.408335 
L 707.606207 62.408335 
L 707.606207 60.972295 
L 708.727855 60.870905 
L 708.727855 60.056995 
L 709.288679 60.056995 
L 709.288679 60.694227 
L 709.849503 60.694227 
L 709.849503 61.413135 
L 710.410326 61.413135 
L 710.410326 61.271045 
L 710.97115 61.271045 
L 710.97115 62.072529 
L 711.531974 62.072529 
L 711.531974 63.470269 
L 712.092798 63.470269 
L 712.092798 62.990354 
L 712.653621 62.990354 
L 712.653621 62.627635 
L 713.214445 62.627635 
L 713.214445 65.166167 
L 713.775269 65.166167 
L 713.775269 65.437476 
L 714.336093 65.437476 
L 714.336093 74.494876 
L 714.896916 74.494876 
L 714.896916 73.727636 
L 715.45774 73.727636 
L 715.45774 70.557189 
L 716.018564 70.557189 
L 716.018564 69.643106 
L 716.579388 69.643106 
L 716.579388 68.811016 
L 717.140212 68.811016 
L 717.140212 71.745491 
L 717.701035 71.745491 
L 717.701035 69.159714 
L 718.261859 69.159714 
L 718.261859 68.477012 
L 718.822683 68.477012 
L 718.822683 67.476187 
L 719.383507 67.476187 
L 719.383507 68.472254 
L 720.505154 68.520128 
L 720.505154 67.75107 
L 722.187625 67.695616 
L 722.187625 66.49243 
L 722.748449 66.49243 
L 722.748449 65.89784 
L 723.309273 65.89784 
L 723.309273 63.200061 
L 723.870097 63.200061 
L 723.870097 63.054097 
L 724.430921 63.054097 
L 724.430921 60.557093 
L 724.991744 60.557093 
L 724.991744 63.36855 
L 725.552568 63.36855 
L 725.552568 62.079827 
L 726.113392 62.079827 
L 726.113392 61.899764 
L 726.674216 61.899764 
L 726.674216 61.019239 
L 727.235039 61.019239 
L 727.235039 62.396549 
L 727.795863 62.396549 
L 727.795863 63.021526 
L 728.356687 63.021526 
L 728.356687 61.491274 
L 728.917511 61.491274 
L 728.917511 61.753856 
L 729.478334 61.753856 
L 729.478334 61.296345 
L 730.599982 61.269299 
L 730.599982 61.042081 
L 731.160806 61.042081 
L 731.160806 61.733486 
L 732.282453 61.80781 
L 732.282453 61.912512 
L 732.843277 61.912512 
L 732.843277 62.127828 
L 733.964925 62.146467 
L 733.964925 62.775095 
L 734.525748 62.775095 
L 734.525748 62.473297 
L 735.086572 62.473297 
L 735.086572 62.615935 
L 735.647396 62.615935 
L 735.647396 61.982618 
L 736.20822 61.982618 
L 736.20822 62.234294 
L 736.769043 62.234294 
L 736.769043 62.102577 
L 737.329867 62.102577 
L 737.329867 62.336228 
L 738.451515 62.379412 
L 738.451515 61.884126 
L 739.012339 61.884126 
L 739.012339 61.530839 
L 739.573162 61.530839 
L 739.573162 58.470502 
L 740.133986 58.470502 
L 740.133986 58.33239 
L 741.255634 58.403038 
L 741.255634 57.15971 
L 742.377281 57.128637 
L 742.377281 57.812166 
L 742.938105 57.812166 
L 742.938105 57.116486 
L 743.498929 57.116486 
L 743.498929 56.205929 
L 744.059753 56.205929 
L 744.059753 56.953288 
L 744.620576 56.953288 
L 744.620576 57.335054 
L 745.1814 57.335054 
L 745.1814 57.67385 
L 746.303048 57.647615 
L 746.303048 56.85143 
L 746.863871 56.85143 
L 746.863871 59.59766 
L 747.424695 59.59766 
L 747.424695 59.800464 
L 749.107166 59.875824 
L 749.107166 58.650796 
L 749.66799 58.650796 
L 749.66799 58.396069 
L 750.228814 58.396069 
L 750.228814 59.468412 
L 750.789638 59.468412 
L 750.789638 59.149119 
L 751.911285 59.150125 
L 751.911285 59.294827 
L 753.593757 59.192647 
L 753.593757 57.979038 
L 754.15458 57.979038 
L 754.15458 57.745959 
L 754.715404 57.745959 
L 754.715404 57.932614 
L 755.276228 57.932614 
L 755.276228 57.145568 
L 755.837052 57.145568 
L 755.837052 55.043318 
L 756.958699 54.967905 
L 756.958699 54.563647 
L 757.519523 54.563647 
L 757.519523 53.751884 
L 758.080347 53.751884 
L 758.080347 53.429014 
L 758.641171 53.429014 
L 758.641171 51.186958 
L 759.201994 51.186958 
L 759.201994 51.55158 
L 759.762818 51.55158 
L 759.762818 50.26098 
L 760.323642 50.26098 
L 760.323642 50.689156 
L 760.884466 50.689156 
L 760.884466 48.399932 
L 761.445289 48.399932 
L 761.445289 47.357816 
L 762.006113 47.357816 
L 762.006113 46.831095 
L 762.566937 46.831095 
L 762.566937 49.196567 
L 763.127761 49.196567 
L 763.127761 46.248119 
L 763.688584 46.248119 
L 763.688584 46.523041 
L 764.810232 46.606573 
L 764.810232 47.522717 
L 765.371056 47.522717 
L 765.371056 47.241162 
L 765.93188 47.241162 
L 765.93188 46.539085 
L 766.492703 46.539085 
L 766.492703 42.853427 
L 767.053527 42.853427 
L 767.053527 43.226034 
L 767.614351 43.226034 
L 767.614351 42.344988 
L 768.175175 42.344988 
L 768.175175 40.205737 
L 768.735998 40.205737 
L 768.735998 38.205781 
L 769.296822 38.205781 
L 769.296822 35.896043 
L 769.857646 35.896043 
L 769.857646 34.716634 
L 770.41847 34.716634 
L 770.41847 30.966513 
L 770.979293 30.966513 
L 770.979293 33.808123 
L 771.540117 33.808123 
L 771.540117 31.765632 
L 772.100941 31.765632 
L 772.100941 33.661405 
L 772.661765 33.661405 
L 772.661765 33.811661 
L 773.222589 33.811661 
L 773.222589 35.958857 
L 773.783412 35.958857 
L 773.783412 35.670317 
L 774.344236 35.670317 
L 774.344236 34.551478 
L 774.90506 34.551478 
L 774.90506 35.043695 
L 775.465884 35.043695 
L 775.465884 32.960558 
L 776.026707 32.960558 
L 776.026707 31.890107 
L 776.587531 31.890107 
L 776.587531 28.889516 
L 777.148355 28.889516 
L 777.148355 27.832004 
L 777.709179 27.832004 
L 777.709179 26.967021 
L 778.270002 26.967021 
L 778.270002 24.250339 
L 778.830826 24.250339 
L 778.830826 24.937918 
L 779.39165 24.937918 
L 779.39165 28.004736 
L 779.952474 28.004736 
L 779.952474 28.778986 
L 780.513298 28.778986 
L 780.513298 26.409046 
L 781.074121 26.409046 
L 781.074121 27.086877 
L 781.634945 27.086877 
L 781.634945 24.644472 
L 782.195769 24.644472 
L 782.195769 23.751937 
L 782.756593 23.751937 
L 782.756593 24.311463 
L 783.317416 24.311463 
L 783.317416 23.600445 
L 784.439064 23.69384 
L 784.439064 25.577057 
L 784.999888 25.577057 
L 784.999888 24.270182 
L 785.560712 24.270182 
L 785.560712 23.214666 
L 786.682359 23.106754 
L 786.682359 23.098615 
L 787.243183 23.098615 
L 787.243183 23.460908 
L 787.804007 23.460908 
L 787.804007 22.775742 
L 788.36483 22.775742 
L 788.36483 21.744453 
L 788.925654 21.744453 
L 788.925654 22.732788 
L 789.486478 22.732788 
L 789.486478 24.028385 
L 790.047302 24.028385 
L 790.047302 26.128638 
L 790.608125 26.128638 
L 790.608125 24.963955 
L 791.168949 24.963955 
L 791.168949 25.149159 
L 791.729773 25.149159 
L 791.729773 23.990135 
L 792.290597 23.990135 
L 792.290597 23.671048 
L 792.851421 23.671048 
L 792.851421 23.14342 
L 793.412244 23.14342 
L 793.412244 23.9382 
L 793.973068 23.9382 
L 793.973068 26.642356 
L 794.533892 26.642356 
L 794.533892 29.50089 
L 795.094716 29.50089 
L 795.094716 30.907427 
L 795.655539 30.907427 
L 795.655539 34.282521 
L 796.216363 34.282521 
L 796.216363 31.70776 
L 796.777187 31.70776 
L 796.777187 34.347491 
L 797.338011 34.347491 
L 797.338011 33.154982 
L 797.898834 33.154982 
L 797.898834 33.027129 
L 798.459658 33.027129 
L 798.459658 35.048749 
L 799.020482 35.048749 
L 799.020482 33.130869 
L 799.581306 33.130869 
L 799.581306 31.815065 
L 800.14213 31.815065 
L 800.14213 32.219569 
L 800.702953 32.219569 
L 800.702953 33.820454 
L 801.263777 33.820454 
L 801.263777 35.731479 
L 801.824601 35.731479 
L 801.824601 36.262796 
L 802.385425 36.262796 
L 802.385425 34.464108 
L 802.946248 34.464108 
L 802.946248 35.034899 
L 803.507072 35.034899 
L 803.507072 33.948442 
L 804.067896 33.948442 
L 804.067896 34.84568 
L 804.62872 34.84568 
L 804.62872 35.048308 
L 805.189543 35.048308 
L 805.189543 35.576681 
L 805.750367 35.576681 
L 805.750367 36.409541 
L 806.311191 36.409541 
L 806.311191 36.819907 
L 806.872015 36.819907 
L 806.872015 35.829033 
L 807.432839 35.829033 
L 807.432839 33.91507 
L 807.993662 33.91507 
L 807.993662 31.31574 
L 808.554486 31.31574 
L 808.554486 30.459746 
L 809.11531 30.459746 
L 809.11531 32.322684 
L 809.676134 32.322684 
L 809.676134 29.876961 
L 810.236957 29.876961 
L 810.236957 28.216282 
L 810.797781 28.216282 
L 810.797781 29.10705 
L 811.358605 29.10705 
L 811.358605 27.889659 
L 811.919429 27.889659 
L 811.919429 28.936722 
L 812.480252 28.936722 
L 812.480252 27.065124 
L 813.041076 27.065124 
L 813.041076 27.583378 
L 813.6019 27.583378 
L 813.6019 27.011371 
L 814.162724 27.011371 
L 814.162724 27.881429 
L 814.723548 27.881429 
L 814.723548 26.894661 
L 815.284371 26.894661 
L 815.284371 25.87614 
L 815.845195 25.87614 
L 815.845195 28.332743 
L 816.406019 28.332743 
L 816.406019 28.764556 
L 816.966843 28.764556 
L 816.966843 27.882617 
L 818.08849 27.796977 
L 818.08849 29.839749 
L 818.649314 29.839749 
L 818.649314 28.884445 
L 819.210138 28.884445 
L 819.210138 29.701989 
L 819.770962 29.701989 
L 819.770962 30.529074 
L 820.331785 30.529074 
L 820.331785 27.591103 
L 820.892609 27.591103 
L 820.892609 25.98368 
L 821.453433 25.98368 
L 821.453433 25.037976 
L 822.014257 25.037976 
L 822.014257 23.678838 
L 823.135904 23.698775 
L 823.135904 22.226627 
L 823.696728 22.226627 
L 823.696728 20.732418 
L 824.257552 20.732418 
L 824.257552 22.319009 
L 824.818375 22.319009 
L 824.818375 22.642373 
L 825.379199 22.642373 
L 825.379199 21.987038 
L 825.940023 21.987038 
L 825.940023 22.404485 
L 826.500847 22.404485 
L 826.500847 22.262435 
L 827.061671 22.262435 
L 827.061671 21.636151 
L 827.622494 21.636151 
L 827.622494 21.082361 
L 828.183318 21.082361 
L 828.183318 21.263585 
L 828.744142 21.263585 
L 828.744142 22.702907 
L 829.304966 22.702907 
L 829.304966 23.430247 
L 829.865789 23.430247 
L 829.865789 24.105578 
L 830.426613 24.105578 
L 830.426613 23.141043 
L 830.987437 23.141043 
L 830.987437 23.737572 
L 832.109084 23.760605 
L 832.109084 26.926824 
L 832.669908 26.926824 
L 832.669908 26.339072 
L 833.230732 26.339072 
L 833.230732 27.853354 
L 833.791556 27.853354 
L 833.791556 28.024276 
L 834.35238 28.024276 
L 834.35238 27.6215 
L 834.913203 27.6215 
L 834.913203 28.054893 
L 835.474027 28.054893 
L 835.474027 27.196453 
L 836.034851 27.196453 
L 836.034851 26.411892 
L 836.595675 26.411892 
L 836.595675 27.646799 
L 837.156498 27.646799 
L 837.156498 28.254517 
L 838.278146 28.166925 
L 838.278146 29.7323 
L 838.83897 29.7323 
L 838.83897 30.355997 
L 839.399793 30.355997 
L 839.399793 29.341921 
L 839.960617 29.341921 
L 839.960617 29.719632 
L 840.521441 29.719632 
L 840.521441 30.097051 
L 841.082265 30.097051 
L 841.082265 33.259846 
L 841.643089 33.259846 
L 841.643089 33.145674 
L 842.203912 33.145674 
L 842.203912 32.878187 
L 842.764736 32.878187 
L 842.764736 32.444384 
L 843.32556 32.444384 
L 843.32556 33.011595 
L 843.886384 33.011595 
L 843.886384 30.573296 
L 844.447207 30.573296 
L 844.447207 29.242607 
L 845.008031 29.242607 
L 845.008031 30.087202 
L 846.129679 29.997999 
L 846.129679 31.020819 
L 846.690502 31.020819 
L 846.690502 32.18797 
L 847.251326 32.18797 
L 847.251326 32.79621 
L 847.81215 32.79621 
L 847.81215 31.795046 
L 848.372974 31.795046 
L 848.372974 29.106552 
L 848.933798 29.106552 
L 848.933798 31.774911 
L 849.494621 31.774911 
L 849.494621 32.381122 
L 850.055445 32.381122 
L 850.055445 31.615634 
L 850.616269 31.615634 
L 850.616269 32.499105 
L 851.177093 32.499105 
L 851.177093 30.727796 
L 851.737916 30.727796 
L 851.737916 30.176424 
L 852.859564 30.101436 
L 852.859564 29.146722 
L 853.420388 29.146722 
L 853.420388 27.862992 
L 853.981212 27.862992 
L 853.981212 28.581041 
L 854.542035 28.581041 
L 854.542035 28.174408 
L 855.102859 28.174408 
L 855.102859 29.698301 
L 855.663683 29.698301 
L 855.663683 29.895817 
L 856.224507 29.895817 
L 856.224507 31.263243 
L 856.78533 31.263243 
L 856.78533 31.020554 
L 857.346154 31.020554 
L 857.346154 30.896361 
L 857.906978 30.896361 
L 857.906978 31.047712 
L 858.467802 31.047712 
L 858.467802 31.600832 
L 859.028625 31.600832 
L 859.028625 31.716766 
L 859.589449 31.716766 
L 859.589449 32.588093 
L 860.711097 32.551156 
L 860.711097 33.532124 
L 861.271921 33.532124 
L 861.271921 37.262813 
L 861.832744 37.262813 
L 861.832744 38.15135 
L 862.393568 38.15135 
L 862.393568 36.506322 
L 862.954392 36.506322 
L 862.954392 38.334562 
L 863.515216 38.334562 
L 863.515216 37.805091 
L 864.076039 37.805091 
L 864.076039 37.64456 
L 864.636863 37.64456 
L 864.636863 38.40978 
L 865.197687 38.40978 
L 865.197687 36.21285 
L 865.758511 36.21285 
L 865.758511 37.085866 
L 866.319334 37.085866 
L 866.319334 37.455497 
L 866.880158 37.455497 
L 866.880158 37.253349 
L 867.440982 37.253349 
L 867.440982 38.583512 
L 868.001806 38.583512 
L 868.001806 43.748301 
L 868.56263 43.748301 
L 868.56263 45.486038 
L 869.123453 45.486038 
L 869.123453 45.334271 
L 869.684277 45.334271 
L 869.684277 44.821905 
L 870.805925 44.8903 
L 870.805925 45.849254 
L 871.366748 45.849254 
L 871.366748 46.773703 
L 871.927572 46.773703 
L 871.927572 45.748688 
L 872.488396 45.748688 
L 872.488396 44.28056 
L 873.04922 44.28056 
L 873.04922 45.996407 
L 873.610043 45.996407 
L 873.610043 45.348 
L 874.170867 45.348 
L 874.170867 45.138452 
L 874.731691 45.138452 
L 874.731691 42.783895 
L 875.292515 42.783895 
L 875.292515 43.49089 
L 875.853339 43.49089 
L 875.853339 44.643565 
L 876.414162 44.643565 
L 876.414162 42.277074 
L 876.974986 42.277074 
L 876.974986 42.718857 
L 877.53581 42.718857 
L 877.53581 43.353651 
L 878.096634 43.353651 
L 878.096634 42.83206 
L 878.657457 42.83206 
L 878.657457 42.128705 
L 879.218281 42.128705 
L 879.218281 41.704035 
L 879.779105 41.704035 
L 879.779105 42.202468 
L 880.339929 42.202468 
L 880.339929 45.06851 
L 880.900752 45.06851 
L 880.900752 44.509485 
L 881.461576 44.509485 
L 881.461576 44.318152 
L 882.0224 44.318152 
L 882.0224 46.419705 
L 882.583224 46.419705 
L 882.583224 45.889466 
L 883.144048 45.889466 
L 883.144048 46.114527 
L 883.704871 46.114527 
L 883.704871 47.237505 
L 884.265695 47.237505 
L 884.265695 44.52462 
L 884.826519 44.52462 
L 884.826519 43.555785 
L 885.387343 43.555785 
L 885.387343 46.264223 
L 885.948166 46.264223 
L 885.948166 46.565027 
L 886.50899 46.565027 
L 886.50899 47.575984 
L 887.069814 47.575984 
L 887.069814 47.045791 
L 887.194182 47.045791 
L 887.194182 47.045791 
" clip-path="url(#p58b2806130)" style="fill: none; stroke: #3572c6; stroke-width: 1.2; stroke-linecap: square"/>
   </g>
   <g id="line2d_74">
    <path d="M 75.557818 20.732418 
L 887.194182 20.732418 
L 887.194182 20.732418 
" clip-path="url(#p58b2806130)" style="fill: none; stroke: #83a83b; stroke-width: 1.2; stroke-linecap: square"/>
   </g>
   <g id="line2d_75">
    <path d="M 75.557818 47.575984 
L 887.194182 47.575984 
L 887.194182 47.575984 
" clip-path="url(#p58b2806130)" style="fill: none; stroke: #c44e52; stroke-width: 1.2; stroke-linecap: square"/>
   </g>
   <g id="line2d_76">
    <path d="M 824.257552 301.139691 
L 824.257552 7.379691 
" clip-path="url(#p58b2806130)" style="fill: none; stroke: #83a83b; stroke-width: 1.2; stroke-linecap: square"/>
   </g>
   <g id="line2d_77">
    <path d="M 887.069814 301.139691 
L 887.069814 7.379691 
" clip-path="url(#p58b2806130)" style="fill: none; stroke: #c44e52; stroke-width: 1.2; stroke-linecap: square"/>
   </g>
   <g id="patch_3">
    <path d="M 34.976 301.139691 
L 34.976 7.379691 
" style="fill: none; stroke: #899ab8; stroke-width: 1.12; stroke-linejoin: miter; stroke-linecap: square"/>
   </g>
   <g id="patch_4">
    <path d="M 927.776 301.139691 
L 927.776 7.379691 
" style="fill: none; stroke: #899ab8; stroke-width: 1.12; stroke-linejoin: miter; stroke-linecap: square"/>
   </g>
   <g id="patch_5">
    <path d="M 34.976 301.139691 
L 927.776 301.139691 
" style="fill: none; stroke: #899ab8; stroke-width: 1.12; stroke-linejoin: miter; stroke-linecap: square"/>
   </g>
   <g id="patch_6">
    <path d="M 34.976 7.379691 
L 927.776 7.379691 
" style="fill: none; stroke: #899ab8; stroke-width: 1.12; stroke-linejoin: miter; stroke-linecap: square"/>
   </g>
   <g id="text_14">
    <!-- 66063.56 -->
    <g style="fill: #83a83b" transform="translate(211.837994 20.732418) scale(0.132 -0.132)">
     <defs>
      <path id="DejaVuSans-2e" d="M 684 794 
L 1344 794 
L 1344 0 
L 684 0 
L 684 794 
z
" transform="scale(0.015625)"/>
     </defs>
     <use xlink:href="#DejaVuSans-36"/>
     <use xlink:href="#DejaVuSans-36" x="63.623047"/>
     <use xlink:href="#DejaVuSans-30" x="127.246094"/>
     <use xlink:href="#DejaVuSans-36" x="190.869141"/>
     <use xlink:href="#DejaVuSans-33" x="254.492188"/>
     <use xlink:href="#DejaVuSans-2e" x="318.115234"/>
     <use xlink:href="#DejaVuSans-35" x="349.902344"/>
     <use xlink:href="#DejaVuSans-36" x="413.525391"/>
    </g>
   </g>
   <g id="text_15">
    <!-- 18507.36 -->
    <g style="fill: #c44e52" transform="translate(211.837994 47.575984) scale(0.132 -0.132)">
     <defs>
      <path id="DejaVuSans-37" d="M 525 4666 
L 3525 4666 
L 3525 4397 
L 1831 0 
L 1172 0 
L 2766 4134 
L 525 4134 
L 525 4666 
z
" transform="scale(0.015625)"/>
     </defs>
     <use xlink:href="#DejaVuSans-31"/>
     <use xlink:href="#DejaVuSans-38" x="63.623047"/>
     <use xlink:href="#DejaVuSans-35" x="127.246094"/>
     <use xlink:href="#DejaVuSans-30" x="190.869141"/>
     <use xlink:href="#DejaVuSans-37" x="254.492188"/>
     <use xlink:href="#DejaVuSans-2e" x="318.115234"/>
     <use xlink:href="#DejaVuSans-33" x="349.902344"/>
     <use xlink:href="#DejaVuSans-36" x="413.525391"/>
    </g>
   </g>
   <g id="legend_1">
    <g id="patch_7">
     <path d="M 432.207453 294.839691 
L 530.544547 294.839691 
Q 533.064547 294.839691 533.064547 292.319691 
L 533.064547 237.745941 
Q 533.064547 235.225941 530.544547 235.225941 
L 432.207453 235.225941 
Q 429.687453 235.225941 429.687453 237.745941 
L 429.687453 292.319691 
Q 429.687453 294.839691 432.207453 294.839691 
z
" style="fill: #373e4b; opacity: 0.8; stroke: #cccccc; stroke-width: 0.16; stroke-linejoin: miter"/>
    </g>
    <g id="line2d_78">
     <path d="M 434.727453 245.429972 
L 434.727453 245.429972 
L 447.327453 245.429972 
L 447.327453 245.429972 
L 459.927453 245.429972 
" style="fill: none; stroke: #3572c6; stroke-width: 1.2; stroke-linecap: square"/>
    </g>
    <g id="text_16">
     <!-- USD/BTC -->
     <g style="fill: #b1bed6" transform="translate(470.007453 249.839972) scale(0.126 -0.126)">
      <defs>
       <path id="DejaVuSans-55" d="M 556 4666 
L 1191 4666 
L 1191 1831 
Q 1191 1081 1462 751 
Q 1734 422 2344 422 
Q 2950 422 3222 751 
Q 3494 1081 3494 1831 
L 3494 4666 
L 4128 4666 
L 4128 1753 
Q 4128 841 3676 375 
Q 3225 -91 2344 -91 
Q 1459 -91 1007 375 
Q 556 841 556 1753 
L 556 4666 
z
" transform="scale(0.015625)"/>
       <path id="DejaVuSans-53" d="M 3425 4513 
L 3425 3897 
Q 3066 4069 2747 4153 
Q 2428 4238 2131 4238 
Q 1616 4238 1336 4038 
Q 1056 3838 1056 3469 
Q 1056 3159 1242 3001 
Q 1428 2844 1947 2747 
L 2328 2669 
Q 3034 2534 3370 2195 
Q 3706 1856 3706 1288 
Q 3706 609 3251 259 
Q 2797 -91 1919 -91 
Q 1588 -91 1214 -16 
Q 841 59 441 206 
L 441 856 
Q 825 641 1194 531 
Q 1563 422 1919 422 
Q 2459 422 2753 634 
Q 3047 847 3047 1241 
Q 3047 1584 2836 1778 
Q 2625 1972 2144 2069 
L 1759 2144 
Q 1053 2284 737 2584 
Q 422 2884 422 3419 
Q 422 4038 858 4394 
Q 1294 4750 2059 4750 
Q 2388 4750 2728 4690 
Q 3069 4631 3425 4513 
z
" transform="scale(0.015625)"/>
       <path id="DejaVuSans-2f" d="M 1625 4666 
L 2156 4666 
L 531 -594 
L 0 -594 
L 1625 4666 
z
" transform="scale(0.015625)"/>
       <path id="DejaVuSans-42" d="M 1259 2228 
L 1259 519 
L 2272 519 
Q 2781 519 3026 730 
Q 3272 941 3272 1375 
Q 3272 1813 3026 2020 
Q 2781 2228 2272 2228 
L 1259 2228 
z
M 1259 4147 
L 1259 2741 
L 2194 2741 
Q 2656 2741 2882 2914 
Q 3109 3088 3109 3444 
Q 3109 3797 2882 3972 
Q 2656 4147 2194 4147 
L 1259 4147 
z
M 628 4666 
L 2241 4666 
Q 2963 4666 3353 4366 
Q 3744 4066 3744 3513 
Q 3744 3084 3544 2831 
Q 3344 2578 2956 2516 
Q 3422 2416 3680 2098 
Q 3938 1781 3938 1306 
Q 3938 681 3513 340 
Q 3088 0 2303 0 
L 628 0 
L 628 4666 
z
" transform="scale(0.015625)"/>
       <path id="DejaVuSans-54" d="M -19 4666 
L 3928 4666 
L 3928 4134 
L 2272 4134 
L 2272 0 
L 1638 0 
L 1638 4134 
L -19 4134 
L -19 4666 
z
" transform="scale(0.015625)"/>
       <path id="DejaVuSans-43" d="M 4122 4306 
L 4122 3641 
Q 3803 3938 3442 4084 
Q 3081 4231 2675 4231 
Q 1875 4231 1450 3742 
Q 1025 3253 1025 2328 
Q 1025 1406 1450 917 
Q 1875 428 2675 428 
Q 3081 428 3442 575 
Q 3803 722 4122 1019 
L 4122 359 
Q 3791 134 3420 21 
Q 3050 -91 2638 -91 
Q 1578 -91 968 557 
Q 359 1206 359 2328 
Q 359 3453 968 4101 
Q 1578 4750 2638 4750 
Q 3056 4750 3426 4639 
Q 3797 4528 4122 4306 
z
" transform="scale(0.015625)"/>
      </defs>
      <use xlink:href="#DejaVuSans-55"/>
      <use xlink:href="#DejaVuSans-53" x="73.193359"/>
      <use xlink:href="#DejaVuSans-44" x="136.669922"/>
      <use xlink:href="#DejaVuSans-2f" x="213.671875"/>
      <use xlink:href="#DejaVuSans-42" x="247.363281"/>
      <use xlink:href="#DejaVuSans-54" x="315.966797"/>
      <use xlink:href="#DejaVuSans-43" x="371.175781"/>
     </g>
    </g>
    <g id="line2d_79">
     <path d="M 434.727453 263.92441 
L 434.727453 263.92441 
L 447.327453 263.92441 
L 447.327453 263.92441 
L 459.927453 263.92441 
" style="fill: none; stroke: #83a83b; stroke-width: 1.2; stroke-linecap: square"/>
    </g>
    <g id="text_17">
     <!-- Max -->
     <g style="fill: #b1bed6" transform="translate(470.007453 268.33441) scale(0.126 -0.126)">
      <defs>
       <path id="DejaVuSans-4d" d="M 628 4666 
L 1569 4666 
L 2759 1491 
L 3956 4666 
L 4897 4666 
L 4897 0 
L 4281 0 
L 4281 4097 
L 3078 897 
L 2444 897 
L 1241 4097 
L 1241 0 
L 628 0 
L 628 4666 
z
" transform="scale(0.015625)"/>
       <path id="DejaVuSans-78" d="M 3513 3500 
L 2247 1797 
L 3578 0 
L 2900 0 
L 1881 1375 
L 863 0 
L 184 0 
L 1544 1831 
L 300 3500 
L 978 3500 
L 1906 2253 
L 2834 3500 
L 3513 3500 
z
" transform="scale(0.015625)"/>
      </defs>
      <use xlink:href="#DejaVuSans-4d"/>
      <use xlink:href="#DejaVuSans-61" x="86.279297"/>
      <use xlink:href="#DejaVuSans-78" x="147.558594"/>
     </g>
    </g>
    <g id="line2d_80">
     <path d="M 434.727453 282.418847 
L 434.727453 282.418847 
L 447.327453 282.418847 
L 447.327453 282.418847 
L 459.927453 282.418847 
" style="fill: none; stroke: #c44e52; stroke-width: 1.2; stroke-linecap: square"/>
    </g>
    <g id="text_18">
     <!-- local_Min -->
     <g style="fill: #b1bed6" transform="translate(470.007453 286.828847) scale(0.126 -0.126)">
      <defs>
       <path id="DejaVuSans-6c" d="M 603 4863 
L 1178 4863 
L 1178 0 
L 603 0 
L 603 4863 
z
" transform="scale(0.015625)"/>
       <path id="DejaVuSans-6f" d="M 1959 3097 
Q 1497 3097 1228 2736 
Q 959 2375 959 1747 
Q 959 1119 1226 758 
Q 1494 397 1959 397 
Q 2419 397 2687 759 
Q 2956 1122 2956 1747 
Q 2956 2369 2687 2733 
Q 2419 3097 1959 3097 
z
M 1959 3584 
Q 2709 3584 3137 3096 
Q 3566 2609 3566 1747 
Q 3566 888 3137 398 
Q 2709 -91 1959 -91 
Q 1206 -91 779 398 
Q 353 888 353 1747 
Q 353 2609 779 3096 
Q 1206 3584 1959 3584 
z
" transform="scale(0.015625)"/>
       <path id="DejaVuSans-63" d="M 3122 3366 
L 3122 2828 
Q 2878 2963 2633 3030 
Q 2388 3097 2138 3097 
Q 1578 3097 1268 2742 
Q 959 2388 959 1747 
Q 959 1106 1268 751 
Q 1578 397 2138 397 
Q 2388 397 2633 464 
Q 2878 531 3122 666 
L 3122 134 
Q 2881 22 2623 -34 
Q 2366 -91 2075 -91 
Q 1284 -91 818 406 
Q 353 903 353 1747 
Q 353 2603 823 3093 
Q 1294 3584 2113 3584 
Q 2378 3584 2631 3529 
Q 2884 3475 3122 3366 
z
" transform="scale(0.015625)"/>
       <path id="DejaVuSans-5f" d="M 3263 -1063 
L 3263 -1509 
L -63 -1509 
L -63 -1063 
L 3263 -1063 
z
" transform="scale(0.015625)"/>
       <path id="DejaVuSans-69" d="M 603 3500 
L 1178 3500 
L 1178 0 
L 603 0 
L 603 3500 
z
M 603 4863 
L 1178 4863 
L 1178 4134 
L 603 4134 
L 603 4863 
z
" transform="scale(0.015625)"/>
       <path id="DejaVuSans-6e" d="M 3513 2113 
L 3513 0 
L 2938 0 
L 2938 2094 
Q 2938 2591 2744 2837 
Q 2550 3084 2163 3084 
Q 1697 3084 1428 2787 
Q 1159 2491 1159 1978 
L 1159 0 
L 581 0 
L 581 3500 
L 1159 3500 
L 1159 2956 
Q 1366 3272 1645 3428 
Q 1925 3584 2291 3584 
Q 2894 3584 3203 3211 
Q 3513 2838 3513 2113 
z
" transform="scale(0.015625)"/>
      </defs>
      <use xlink:href="#DejaVuSans-6c"/>
      <use xlink:href="#DejaVuSans-6f" x="27.783203"/>
      <use xlink:href="#DejaVuSans-63" x="88.964844"/>
      <use xlink:href="#DejaVuSans-61" x="143.945312"/>
      <use xlink:href="#DejaVuSans-6c" x="205.224609"/>
      <use xlink:href="#DejaVuSans-5f" x="233.007812"/>
      <use xlink:href="#DejaVuSans-4d" x="283.007812"/>
      <use xlink:href="#DejaVuSans-69" x="369.287109"/>
      <use xlink:href="#DejaVuSans-6e" x="397.070312"/>
     </g>
    </g>
   </g>
  </g>
 </g>
 <defs>
  <clipPath id="p58b2806130">
   <rect x="34.976" y="7.379691" width="892.8" height="293.76"/>
  </clipPath>
 </defs>
</svg>
