<?xml version="1.0" encoding="utf-8" standalone="no"?>
<!DOCTYPE svg PUBLIC "-//W3C//DTD SVG 1.1//EN"
  "http://www.w3.org/Graphics/SVG/1.1/DTD/svg11.dtd">
<svg xmlns:xlink="http://www.w3.org/1999/xlink" width="934.976pt" height="358.290693pt" viewBox="0 0 934.976 358.290693" xmlns="http://www.w3.org/2000/svg" version="1.1">
 <metadata>
  <rdf:RDF xmlns:dc="http://purl.org/dc/elements/1.1/" xmlns:cc="http://creativecommons.org/ns#" xmlns:rdf="http://www.w3.org/1999/02/22-rdf-syntax-ns#">
   <cc:Work>
    <dc:type rdf:resource="http://purl.org/dc/dcmitype/StillImage"/>
    <dc:date>2024-11-04T11:08:44.151917</dc:date>
    <dc:format>image/svg+xml</dc:format>
    <dc:creator>
     <cc:Agent>
      <dc:title>Matplotlib v3.9.2, https://matplotlib.org/</dc:title>
     </cc:Agent>
    </dc:creator>
   </cc:Work>
  </rdf:RDF>
 </metadata>
 <defs>
  <style type="text/css">*{stroke-linejoin: round; stroke-linecap: butt}</style>
 </defs>
 <g id="figure_1">
  <g id="patch_1">
   <path d="M 0 358.290693 
L 934.976 358.290693 
L 934.976 0 
L 0 0 
z
" style="fill: #373e4b"/>
  </g>
  <g id="axes_1">
   <g id="patch_2">
    <path d="M 34.976 300.96 
L 927.776 300.96 
L 927.776 7.2 
L 34.976 7.2 
z
" style="fill: #373e4b"/>
   </g>
   <g id="matplotlib.axis_1">
    <g id="xtick_1">
     <g id="line2d_1">
      <path d="M 142.976537 300.96 
L 142.976537 7.2 
" clip-path="url(#pf3035a7a84)" style="fill: none; stroke: #546379; stroke-width: 1.12; stroke-linecap: square"/>
     </g>
     <g id="line2d_2"/>
     <g id="text_1">
      <!-- 2012 -->
      <g style="fill: #b1bed6" transform="translate(113.895497 330.884854) rotate(-30) scale(0.126 -0.126)">
       <defs>
        <path id="DejaVuSans-32" d="M 1228 531 
L 3431 531 
L 3431 0 
L 469 0 
L 469 531 
Q 828 903 1448 1529 
Q 2069 2156 2228 2338 
Q 2531 2678 2651 2914 
Q 2772 3150 2772 3378 
Q 2772 3750 2511 3984 
Q 2250 4219 1831 4219 
Q 1534 4219 1204 4116 
Q 875 4013 500 3803 
L 500 4441 
Q 881 4594 1212 4672 
Q 1544 4750 1819 4750 
Q 2544 4750 2975 4387 
Q 3406 4025 3406 3419 
Q 3406 3131 3298 2873 
Q 3191 2616 2906 2266 
Q 2828 2175 2409 1742 
Q 1991 1309 1228 531 
z
" transform="scale(0.015625)"/>
        <path id="DejaVuSans-30" d="M 2034 4250 
Q 1547 4250 1301 3770 
Q 1056 3291 1056 2328 
Q 1056 1369 1301 889 
Q 1547 409 2034 409 
Q 2525 409 2770 889 
Q 3016 1369 3016 2328 
Q 3016 3291 2770 3770 
Q 2525 4250 2034 4250 
z
M 2034 4750 
Q 2819 4750 3233 4129 
Q 3647 3509 3647 2328 
Q 3647 1150 3233 529 
Q 2819 -91 2034 -91 
Q 1250 -91 836 529 
Q 422 1150 422 2328 
Q 422 3509 836 4129 
Q 1250 4750 2034 4750 
z
" transform="scale(0.015625)"/>
        <path id="DejaVuSans-31" d="M 794 531 
L 1825 531 
L 1825 4091 
L 703 3866 
L 703 4441 
L 1819 4666 
L 2450 4666 
L 2450 531 
L 3481 531 
L 3481 0 
L 794 0 
L 794 531 
z
" transform="scale(0.015625)"/>
       </defs>
       <use xlink:href="#DejaVuSans-32"/>
       <use xlink:href="#DejaVuSans-30" x="63.623047"/>
       <use xlink:href="#DejaVuSans-31" x="127.246094"/>
       <use xlink:href="#DejaVuSans-32" x="190.869141"/>
      </g>
     </g>
    </g>
    <g id="xtick_2">
     <g id="line2d_3">
      <path d="M 258.936734 300.96 
L 258.936734 7.2 
" clip-path="url(#pf3035a7a84)" style="fill: none; stroke: #546379; stroke-width: 1.12; stroke-linecap: square"/>
     </g>
     <g id="line2d_4"/>
     <g id="text_2">
      <!-- 2014 -->
      <g style="fill: #b1bed6" transform="translate(229.855694 330.884854) rotate(-30) scale(0.126 -0.126)">
       <defs>
        <path id="DejaVuSans-34" d="M 2419 4116 
L 825 1625 
L 2419 1625 
L 2419 4116 
z
M 2253 4666 
L 3047 4666 
L 3047 1625 
L 3713 1625 
L 3713 1100 
L 3047 1100 
L 3047 0 
L 2419 0 
L 2419 1100 
L 313 1100 
L 313 1709 
L 2253 4666 
z
" transform="scale(0.015625)"/>
       </defs>
       <use xlink:href="#DejaVuSans-32"/>
       <use xlink:href="#DejaVuSans-30" x="63.623047"/>
       <use xlink:href="#DejaVuSans-31" x="127.246094"/>
       <use xlink:href="#DejaVuSans-34" x="190.869141"/>
      </g>
     </g>
    </g>
    <g id="xtick_3">
     <g id="line2d_5">
      <path d="M 374.738298 300.96 
L 374.738298 7.2 
" clip-path="url(#pf3035a7a84)" style="fill: none; stroke: #546379; stroke-width: 1.12; stroke-linecap: square"/>
     </g>
     <g id="line2d_6"/>
     <g id="text_3">
      <!-- 2016 -->
      <g style="fill: #b1bed6" transform="translate(345.657259 330.884854) rotate(-30) scale(0.126 -0.126)">
       <defs>
        <path id="DejaVuSans-36" d="M 2113 2584 
Q 1688 2584 1439 2293 
Q 1191 2003 1191 1497 
Q 1191 994 1439 701 
Q 1688 409 2113 409 
Q 2538 409 2786 701 
Q 3034 994 3034 1497 
Q 3034 2003 2786 2293 
Q 2538 2584 2113 2584 
z
M 3366 4563 
L 3366 3988 
Q 3128 4100 2886 4159 
Q 2644 4219 2406 4219 
Q 1781 4219 1451 3797 
Q 1122 3375 1075 2522 
Q 1259 2794 1537 2939 
Q 1816 3084 2150 3084 
Q 2853 3084 3261 2657 
Q 3669 2231 3669 1497 
Q 3669 778 3244 343 
Q 2819 -91 2113 -91 
Q 1303 -91 875 529 
Q 447 1150 447 2328 
Q 447 3434 972 4092 
Q 1497 4750 2381 4750 
Q 2619 4750 2861 4703 
Q 3103 4656 3366 4563 
z
" transform="scale(0.015625)"/>
       </defs>
       <use xlink:href="#DejaVuSans-32"/>
       <use xlink:href="#DejaVuSans-30" x="63.623047"/>
       <use xlink:href="#DejaVuSans-31" x="127.246094"/>
       <use xlink:href="#DejaVuSans-36" x="190.869141"/>
      </g>
     </g>
    </g>
    <g id="xtick_4">
     <g id="line2d_7">
      <path d="M 490.698495 300.96 
L 490.698495 7.2 
" clip-path="url(#pf3035a7a84)" style="fill: none; stroke: #546379; stroke-width: 1.12; stroke-linecap: square"/>
     </g>
     <g id="line2d_8"/>
     <g id="text_4">
      <!-- 2018 -->
      <g style="fill: #b1bed6" transform="translate(461.617455 330.884854) rotate(-30) scale(0.126 -0.126)">
       <defs>
        <path id="DejaVuSans-38" d="M 2034 2216 
Q 1584 2216 1326 1975 
Q 1069 1734 1069 1313 
Q 1069 891 1326 650 
Q 1584 409 2034 409 
Q 2484 409 2743 651 
Q 3003 894 3003 1313 
Q 3003 1734 2745 1975 
Q 2488 2216 2034 2216 
z
M 1403 2484 
Q 997 2584 770 2862 
Q 544 3141 544 3541 
Q 544 4100 942 4425 
Q 1341 4750 2034 4750 
Q 2731 4750 3128 4425 
Q 3525 4100 3525 3541 
Q 3525 3141 3298 2862 
Q 3072 2584 2669 2484 
Q 3125 2378 3379 2068 
Q 3634 1759 3634 1313 
Q 3634 634 3220 271 
Q 2806 -91 2034 -91 
Q 1263 -91 848 271 
Q 434 634 434 1313 
Q 434 1759 690 2068 
Q 947 2378 1403 2484 
z
M 1172 3481 
Q 1172 3119 1398 2916 
Q 1625 2713 2034 2713 
Q 2441 2713 2670 2916 
Q 2900 3119 2900 3481 
Q 2900 3844 2670 4047 
Q 2441 4250 2034 4250 
Q 1625 4250 1398 4047 
Q 1172 3844 1172 3481 
z
" transform="scale(0.015625)"/>
       </defs>
       <use xlink:href="#DejaVuSans-32"/>
       <use xlink:href="#DejaVuSans-30" x="63.623047"/>
       <use xlink:href="#DejaVuSans-31" x="127.246094"/>
       <use xlink:href="#DejaVuSans-38" x="190.869141"/>
      </g>
     </g>
    </g>
    <g id="xtick_5">
     <g id="line2d_9">
      <path d="M 606.500059 300.96 
L 606.500059 7.2 
" clip-path="url(#pf3035a7a84)" style="fill: none; stroke: #546379; stroke-width: 1.12; stroke-linecap: square"/>
     </g>
     <g id="line2d_10"/>
     <g id="text_5">
      <!-- 2020 -->
      <g style="fill: #b1bed6" transform="translate(577.41902 330.884854) rotate(-30) scale(0.126 -0.126)">
       <use xlink:href="#DejaVuSans-32"/>
       <use xlink:href="#DejaVuSans-30" x="63.623047"/>
       <use xlink:href="#DejaVuSans-32" x="127.246094"/>
       <use xlink:href="#DejaVuSans-30" x="190.869141"/>
      </g>
     </g>
    </g>
    <g id="xtick_6">
     <g id="line2d_11">
      <path d="M 722.460256 300.96 
L 722.460256 7.2 
" clip-path="url(#pf3035a7a84)" style="fill: none; stroke: #546379; stroke-width: 1.12; stroke-linecap: square"/>
     </g>
     <g id="line2d_12"/>
     <g id="text_6">
      <!-- 2022 -->
      <g style="fill: #b1bed6" transform="translate(693.379216 330.884854) rotate(-30) scale(0.126 -0.126)">
       <use xlink:href="#DejaVuSans-32"/>
       <use xlink:href="#DejaVuSans-30" x="63.623047"/>
       <use xlink:href="#DejaVuSans-32" x="127.246094"/>
       <use xlink:href="#DejaVuSans-32" x="190.869141"/>
      </g>
     </g>
    </g>
    <g id="xtick_7">
     <g id="line2d_13">
      <path d="M 838.261821 300.96 
L 838.261821 7.2 
" clip-path="url(#pf3035a7a84)" style="fill: none; stroke: #546379; stroke-width: 1.12; stroke-linecap: square"/>
     </g>
     <g id="line2d_14"/>
     <g id="text_7">
      <!-- 2024 -->
      <g style="fill: #b1bed6" transform="translate(809.180781 330.884854) rotate(-30) scale(0.126 -0.126)">
       <use xlink:href="#DejaVuSans-32"/>
       <use xlink:href="#DejaVuSans-30" x="63.623047"/>
       <use xlink:href="#DejaVuSans-32" x="127.246094"/>
       <use xlink:href="#DejaVuSans-34" x="190.869141"/>
      </g>
     </g>
    </g>
    <g id="text_8">
     <!-- Date -->
     <g style="fill: #b1bed6" transform="translate(464.166875 348.095943) scale(0.144 -0.144)">
      <defs>
       <path id="DejaVuSans-44" d="M 1259 4147 
L 1259 519 
L 2022 519 
Q 2988 519 3436 956 
Q 3884 1394 3884 2338 
Q 3884 3275 3436 3711 
Q 2988 4147 2022 4147 
L 1259 4147 
z
M 628 4666 
L 1925 4666 
Q 3281 4666 3915 4102 
Q 4550 3538 4550 2338 
Q 4550 1131 3912 565 
Q 3275 0 1925 0 
L 628 0 
L 628 4666 
z
" transform="scale(0.015625)"/>
       <path id="DejaVuSans-61" d="M 2194 1759 
Q 1497 1759 1228 1600 
Q 959 1441 959 1056 
Q 959 750 1161 570 
Q 1363 391 1709 391 
Q 2188 391 2477 730 
Q 2766 1069 2766 1631 
L 2766 1759 
L 2194 1759 
z
M 3341 1997 
L 3341 0 
L 2766 0 
L 2766 531 
Q 2569 213 2275 61 
Q 1981 -91 1556 -91 
Q 1019 -91 701 211 
Q 384 513 384 1019 
Q 384 1609 779 1909 
Q 1175 2209 1959 2209 
L 2766 2209 
L 2766 2266 
Q 2766 2663 2505 2880 
Q 2244 3097 1772 3097 
Q 1472 3097 1187 3025 
Q 903 2953 641 2809 
L 641 3341 
Q 956 3463 1253 3523 
Q 1550 3584 1831 3584 
Q 2591 3584 2966 3190 
Q 3341 2797 3341 1997 
z
" transform="scale(0.015625)"/>
       <path id="DejaVuSans-74" d="M 1172 4494 
L 1172 3500 
L 2356 3500 
L 2356 3053 
L 1172 3053 
L 1172 1153 
Q 1172 725 1289 603 
Q 1406 481 1766 481 
L 2356 481 
L 2356 0 
L 1766 0 
Q 1100 0 847 248 
Q 594 497 594 1153 
L 594 3053 
L 172 3053 
L 172 3500 
L 594 3500 
L 594 4494 
L 1172 4494 
z
" transform="scale(0.015625)"/>
       <path id="DejaVuSans-65" d="M 3597 1894 
L 3597 1613 
L 953 1613 
Q 991 1019 1311 708 
Q 1631 397 2203 397 
Q 2534 397 2845 478 
Q 3156 559 3463 722 
L 3463 178 
Q 3153 47 2828 -22 
Q 2503 -91 2169 -91 
Q 1331 -91 842 396 
Q 353 884 353 1716 
Q 353 2575 817 3079 
Q 1281 3584 2069 3584 
Q 2775 3584 3186 3129 
Q 3597 2675 3597 1894 
z
M 3022 2063 
Q 3016 2534 2758 2815 
Q 2500 3097 2075 3097 
Q 1594 3097 1305 2825 
Q 1016 2553 972 2059 
L 3022 2063 
z
" transform="scale(0.015625)"/>
      </defs>
      <use xlink:href="#DejaVuSans-44"/>
      <use xlink:href="#DejaVuSans-61" x="77.001953"/>
      <use xlink:href="#DejaVuSans-74" x="138.28125"/>
      <use xlink:href="#DejaVuSans-65" x="177.490234"/>
     </g>
    </g>
   </g>
   <g id="matplotlib.axis_2">
    <g id="ytick_1">
     <g id="line2d_15">
      <path d="M 34.976 254.024427 
L 927.776 254.024427 
" clip-path="url(#pf3035a7a84)" style="fill: none; stroke: #546379; stroke-width: 1.12; stroke-linecap: square"/>
     </g>
     <g id="line2d_16"/>
     <g id="text_9">
      <!-- $\mathdefault{10^{0}}$ -->
      <g style="fill: #b1bed6" transform="translate(7.2 258.811443) scale(0.126 -0.126)">
       <use xlink:href="#DejaVuSans-31" transform="translate(0 0.765625)"/>
       <use xlink:href="#DejaVuSans-30" transform="translate(63.623047 0.765625)"/>
       <use xlink:href="#DejaVuSans-30" transform="translate(128.203125 39.046875) scale(0.7)"/>
      </g>
     </g>
    </g>
    <g id="ytick_2">
     <g id="line2d_17">
      <path d="M 34.976 205.978237 
L 927.776 205.978237 
" clip-path="url(#pf3035a7a84)" style="fill: none; stroke: #546379; stroke-width: 1.12; stroke-linecap: square"/>
     </g>
     <g id="line2d_18"/>
     <g id="text_10">
      <!-- $\mathdefault{10^{1}}$ -->
      <g style="fill: #b1bed6" transform="translate(7.2 210.765253) scale(0.126 -0.126)">
       <use xlink:href="#DejaVuSans-31" transform="translate(0 0.684375)"/>
       <use xlink:href="#DejaVuSans-30" transform="translate(63.623047 0.684375)"/>
       <use xlink:href="#DejaVuSans-31" transform="translate(128.203125 38.965625) scale(0.7)"/>
      </g>
     </g>
    </g>
    <g id="ytick_3">
     <g id="line2d_19">
      <path d="M 34.976 157.932048 
L 927.776 157.932048 
" clip-path="url(#pf3035a7a84)" style="fill: none; stroke: #546379; stroke-width: 1.12; stroke-linecap: square"/>
     </g>
     <g id="line2d_20"/>
     <g id="text_11">
      <!-- $\mathdefault{10^{2}}$ -->
      <g style="fill: #b1bed6" transform="translate(7.2 162.719063) scale(0.126 -0.126)">
       <use xlink:href="#DejaVuSans-31" transform="translate(0 0.765625)"/>
       <use xlink:href="#DejaVuSans-30" transform="translate(63.623047 0.765625)"/>
       <use xlink:href="#DejaVuSans-32" transform="translate(128.203125 39.046875) scale(0.7)"/>
      </g>
     </g>
    </g>
    <g id="ytick_4">
     <g id="line2d_21">
      <path d="M 34.976 109.885858 
L 927.776 109.885858 
" clip-path="url(#pf3035a7a84)" style="fill: none; stroke: #546379; stroke-width: 1.12; stroke-linecap: square"/>
     </g>
     <g id="line2d_22"/>
     <g id="text_12">
      <!-- $\mathdefault{10^{3}}$ -->
      <g style="fill: #b1bed6" transform="translate(7.2 114.672873) scale(0.126 -0.126)">
       <defs>
        <path id="DejaVuSans-33" d="M 2597 2516 
Q 3050 2419 3304 2112 
Q 3559 1806 3559 1356 
Q 3559 666 3084 287 
Q 2609 -91 1734 -91 
Q 1441 -91 1130 -33 
Q 819 25 488 141 
L 488 750 
Q 750 597 1062 519 
Q 1375 441 1716 441 
Q 2309 441 2620 675 
Q 2931 909 2931 1356 
Q 2931 1769 2642 2001 
Q 2353 2234 1838 2234 
L 1294 2234 
L 1294 2753 
L 1863 2753 
Q 2328 2753 2575 2939 
Q 2822 3125 2822 3475 
Q 2822 3834 2567 4026 
Q 2313 4219 1838 4219 
Q 1578 4219 1281 4162 
Q 984 4106 628 3988 
L 628 4550 
Q 988 4650 1302 4700 
Q 1616 4750 1894 4750 
Q 2613 4750 3031 4423 
Q 3450 4097 3450 3541 
Q 3450 3153 3228 2886 
Q 3006 2619 2597 2516 
z
" transform="scale(0.015625)"/>
       </defs>
       <use xlink:href="#DejaVuSans-31" transform="translate(0 0.765625)"/>
       <use xlink:href="#DejaVuSans-30" transform="translate(63.623047 0.765625)"/>
       <use xlink:href="#DejaVuSans-33" transform="translate(128.203125 39.046875) scale(0.7)"/>
      </g>
     </g>
    </g>
    <g id="ytick_5">
     <g id="line2d_23">
      <path d="M 34.976 61.839668 
L 927.776 61.839668 
" clip-path="url(#pf3035a7a84)" style="fill: none; stroke: #546379; stroke-width: 1.12; stroke-linecap: square"/>
     </g>
     <g id="line2d_24"/>
     <g id="text_13">
      <!-- $\mathdefault{10^{4}}$ -->
      <g style="fill: #b1bed6" transform="translate(7.2 66.626683) scale(0.126 -0.126)">
       <use xlink:href="#DejaVuSans-31" transform="translate(0 0.684375)"/>
       <use xlink:href="#DejaVuSans-30" transform="translate(63.623047 0.684375)"/>
       <use xlink:href="#DejaVuSans-34" transform="translate(128.203125 38.965625) scale(0.7)"/>
      </g>
     </g>
    </g>
    <g id="ytick_6">
     <g id="line2d_25">
      <path d="M 34.976 13.793478 
L 927.776 13.793478 
" clip-path="url(#pf3035a7a84)" style="fill: none; stroke: #546379; stroke-width: 1.12; stroke-linecap: square"/>
     </g>
     <g id="line2d_26"/>
     <g id="text_14">
      <!-- $\mathdefault{10^{5}}$ -->
      <g style="fill: #b1bed6" transform="translate(7.2 18.580494) scale(0.126 -0.126)">
       <defs>
        <path id="DejaVuSans-35" d="M 691 4666 
L 3169 4666 
L 3169 4134 
L 1269 4134 
L 1269 2991 
Q 1406 3038 1543 3061 
Q 1681 3084 1819 3084 
Q 2600 3084 3056 2656 
Q 3513 2228 3513 1497 
Q 3513 744 3044 326 
Q 2575 -91 1722 -91 
Q 1428 -91 1123 -41 
Q 819 9 494 109 
L 494 744 
Q 775 591 1075 516 
Q 1375 441 1709 441 
Q 2250 441 2565 725 
Q 2881 1009 2881 1497 
Q 2881 1984 2565 2268 
Q 2250 2553 1709 2553 
Q 1456 2553 1204 2497 
Q 953 2441 691 2322 
L 691 4666 
z
" transform="scale(0.015625)"/>
       </defs>
       <use xlink:href="#DejaVuSans-31" transform="translate(0 0.684375)"/>
       <use xlink:href="#DejaVuSans-30" transform="translate(63.623047 0.684375)"/>
       <use xlink:href="#DejaVuSans-35" transform="translate(128.203125 38.965625) scale(0.7)"/>
      </g>
     </g>
    </g>
    <g id="ytick_7">
     <g id="line2d_27"/>
    </g>
    <g id="ytick_8">
     <g id="line2d_28"/>
    </g>
    <g id="ytick_9">
     <g id="line2d_29"/>
    </g>
    <g id="ytick_10">
     <g id="line2d_30"/>
    </g>
    <g id="ytick_11">
     <g id="line2d_31"/>
    </g>
    <g id="ytick_12">
     <g id="line2d_32"/>
    </g>
    <g id="ytick_13">
     <g id="line2d_33"/>
    </g>
    <g id="ytick_14">
     <g id="line2d_34"/>
    </g>
    <g id="ytick_15">
     <g id="line2d_35"/>
    </g>
    <g id="ytick_16">
     <g id="line2d_36"/>
    </g>
    <g id="ytick_17">
     <g id="line2d_37"/>
    </g>
    <g id="ytick_18">
     <g id="line2d_38"/>
    </g>
    <g id="ytick_19">
     <g id="line2d_39"/>
    </g>
    <g id="ytick_20">
     <g id="line2d_40"/>
    </g>
    <g id="ytick_21">
     <g id="line2d_41"/>
    </g>
    <g id="ytick_22">
     <g id="line2d_42"/>
    </g>
    <g id="ytick_23">
     <g id="line2d_43"/>
    </g>
    <g id="ytick_24">
     <g id="line2d_44"/>
    </g>
    <g id="ytick_25">
     <g id="line2d_45"/>
    </g>
    <g id="ytick_26">
     <g id="line2d_46"/>
    </g>
    <g id="ytick_27">
     <g id="line2d_47"/>
    </g>
    <g id="ytick_28">
     <g id="line2d_48"/>
    </g>
    <g id="ytick_29">
     <g id="line2d_49"/>
    </g>
    <g id="ytick_30">
     <g id="line2d_50"/>
    </g>
    <g id="ytick_31">
     <g id="line2d_51"/>
    </g>
    <g id="ytick_32">
     <g id="line2d_52"/>
    </g>
    <g id="ytick_33">
     <g id="line2d_53"/>
    </g>
    <g id="ytick_34">
     <g id="line2d_54"/>
    </g>
    <g id="ytick_35">
     <g id="line2d_55"/>
    </g>
    <g id="ytick_36">
     <g id="line2d_56"/>
    </g>
    <g id="ytick_37">
     <g id="line2d_57"/>
    </g>
    <g id="ytick_38">
     <g id="line2d_58"/>
    </g>
    <g id="ytick_39">
     <g id="line2d_59"/>
    </g>
    <g id="ytick_40">
     <g id="line2d_60"/>
    </g>
    <g id="ytick_41">
     <g id="line2d_61"/>
    </g>
    <g id="ytick_42">
     <g id="line2d_62"/>
    </g>
    <g id="ytick_43">
     <g id="line2d_63"/>
    </g>
    <g id="ytick_44">
     <g id="line2d_64"/>
    </g>
    <g id="ytick_45">
     <g id="line2d_65"/>
    </g>
    <g id="ytick_46">
     <g id="line2d_66"/>
    </g>
    <g id="ytick_47">
     <g id="line2d_67"/>
    </g>
    <g id="ytick_48">
     <g id="line2d_68"/>
    </g>
    <g id="ytick_49">
     <g id="line2d_69"/>
    </g>
    <g id="ytick_50">
     <g id="line2d_70"/>
    </g>
    <g id="ytick_51">
     <g id="line2d_71"/>
    </g>
    <g id="ytick_52">
     <g id="line2d_72"/>
    </g>
    <g id="ytick_53">
     <g id="line2d_73"/>
    </g>
    <g id="ytick_54">
     <g id="line2d_74"/>
    </g>
   </g>
   <g id="line2d_75">
    <path d="M 75.557818 287.607273 
L 75.557818 282.951116 
L 76.192347 282.951116 
L 76.192347 277.800085 
L 76.826876 277.800085 
L 76.826876 279.146759 
L 77.461406 279.146759 
L 77.461406 280.586377 
L 78.095935 280.586377 
L 78.095935 279.854155 
L 78.730464 279.854155 
L 78.730464 280.586377 
L 79.999522 280.586377 
L 79.999522 282.132729 
L 80.634051 282.132729 
L 80.634051 284.690973 
L 81.903109 284.690973 
L 81.903109 282.951116 
L 82.537639 282.951116 
L 82.537639 282.132729 
L 83.172168 282.132729 
L 83.172168 282.951116 
L 83.806697 282.951116 
L 83.806697 281.345232 
L 84.441226 281.345232 
L 84.441226 279.146759 
L 85.710284 279.146759 
L 85.710284 277.800085 
L 86.344813 277.800085 
L 86.344813 275.342401 
L 86.979342 275.342401 
L 86.979342 273.143928 
L 87.613871 273.143928 
L 87.613871 274.214224 
L 88.248401 274.214224 
L 88.248401 271.155168 
L 88.88293 271.155168 
L 88.88293 270.686245 
L 89.517459 270.686245 
L 89.517459 255.764284 
L 90.786517 255.764284 
L 90.786517 254.659995 
L 91.421046 254.659995 
L 91.421046 252.418543 
L 92.055575 252.418543 
L 92.055575 253.006362 
L 92.690104 253.006362 
L 92.690104 256.691823 
L 93.324634 256.691823 
L 93.324634 254.024427 
L 93.959163 254.024427 
L 93.959163 254.659995 
L 94.593692 254.659995 
L 94.593692 255.764284 
L 95.228221 255.764284 
L 95.228221 256.691823 
L 95.86275 256.691823 
L 95.86275 255.992332 
L 96.497279 255.992332 
L 96.497279 256.930297 
L 97.131808 256.930297 
L 97.131808 258.943055 
L 97.766337 258.943055 
L 97.766337 256.456045 
L 98.400867 256.456045 
L 98.400867 258.680584 
L 99.669925 258.680584 
L 99.669925 260.027257 
L 100.304454 260.027257 
L 100.304454 259.75088 
L 100.938983 259.75088 
L 100.938983 254.445981 
L 101.573512 254.445981 
L 101.573512 250.22007 
L 102.208041 250.22007 
L 102.208041 247.30377 
L 102.84257 247.30377 
L 102.84257 241.9927 
L 103.477099 241.9927 
L 103.477099 224.379912 
L 104.111629 224.379912 
L 104.111629 227.529356 
L 104.746158 227.529356 
L 104.746158 225.57259 
L 105.380687 225.57259 
L 105.380687 214.807143 
L 106.015216 214.807143 
L 106.015216 209.443165 
L 106.649745 209.443165 
L 106.649745 213.480389 
L 107.284274 213.480389 
L 107.284274 212.630981 
L 107.918803 212.630981 
L 107.918803 208.93213 
L 108.553332 208.93213 
L 108.553332 206.67844 
L 109.187862 206.67844 
L 109.187862 192.53035 
L 109.822391 192.53035 
L 109.822391 181.487172 
L 110.45692 181.487172 
L 110.45692 188.008254 
L 111.091449 188.008254 
L 111.091449 192.728448 
L 111.725978 192.728448 
L 111.725978 196.982135 
L 112.360507 196.982135 
L 112.360507 194.206014 
L 112.995036 194.206014 
L 112.995036 194.480809 
L 113.629565 194.480809 
L 113.629565 196.512911 
L 114.264095 196.512911 
L 114.264095 196.041042 
L 114.898624 196.041042 
L 114.898624 197.420574 
L 115.533153 197.420574 
L 115.533153 198.588019 
L 116.167682 198.588019 
L 116.167682 198.167637 
L 116.802211 198.167637 
L 116.802211 199.061935 
L 117.43674 199.061935 
L 117.43674 198.808828 
L 118.071269 198.808828 
L 118.071269 198.110312 
L 118.705798 198.110312 
L 118.705798 203.061937 
L 119.340327 203.061937 
L 119.340327 206.700029 
L 119.974857 206.700029 
L 119.974857 206.124814 
L 120.609386 206.124814 
L 120.609386 203.31752 
L 121.243915 203.31752 
L 121.243915 202.613185 
L 121.878444 202.613185 
L 121.878444 203.42802 
L 122.512973 203.42802 
L 122.512973 207.092508 
L 123.147502 207.092508 
L 123.147502 209.467815 
L 123.782031 209.467815 
L 123.782031 209.941783 
L 124.41656 209.941783 
L 124.41656 214.148651 
L 125.05109 214.148651 
L 125.05109 215.986708 
L 125.685619 215.986708 
L 125.685619 220.358283 
L 126.320148 220.358283 
L 126.320148 216.020445 
L 126.954677 216.020445 
L 126.954677 218.490794 
L 127.589206 218.490794 
L 127.589206 220.693491 
L 128.223735 220.693491 
L 128.223735 220.192678 
L 128.858264 220.192678 
L 128.858264 221.336898 
L 129.492793 221.336898 
L 129.492793 224.279352 
L 130.127323 224.279352 
L 130.127323 225.045638 
L 130.761852 225.045638 
L 130.761852 234.166948 
L 131.396381 234.166948 
L 131.396381 228.985728 
L 132.03091 228.985728 
L 132.03091 230.41637 
L 132.665439 230.41637 
L 132.665439 228.611995 
L 133.299968 228.611995 
L 133.299968 229.623888 
L 133.934497 229.623888 
L 133.934497 229.819204 
L 134.569026 229.819204 
L 134.569026 230.349168 
L 135.203555 230.349168 
L 135.203555 234.086539 
L 135.838085 234.086539 
L 135.838085 235.32648 
L 136.472614 235.32648 
L 136.472614 235.072527 
L 137.107143 235.072527 
L 137.107143 233.767965 
L 137.741672 233.767965 
L 137.741672 230.148851 
L 138.376201 230.148851 
L 138.376201 230.687363 
L 139.01073 230.687363 
L 139.01073 230.282182 
L 139.645259 230.282182 
L 139.645259 229.366277 
L 140.279788 229.366277 
L 140.279788 228.73583 
L 140.914318 228.73583 
L 140.914318 225.202331 
L 141.548847 225.202331 
L 141.548847 223.832733 
L 142.183376 223.832733 
L 142.183376 222.779629 
L 142.817905 222.779629 
L 142.817905 218.951944 
L 143.452434 218.951944 
L 143.452434 213.242595 
L 144.086963 213.242595 
L 144.086963 213.124707 
L 144.721492 213.124707 
L 144.721492 213.30179 
L 145.356021 213.30179 
L 145.356021 215.388591 
L 145.990551 215.388591 
L 145.990551 215.063566 
L 146.62508 215.063566 
L 146.62508 217.70752 
L 147.259609 217.70752 
L 147.259609 217.891365 
L 147.894138 217.891365 
L 147.894138 216.672031 
L 148.528667 216.672031 
L 148.528667 217.20121 
L 149.797725 217.272792 
L 149.797725 221.555853 
L 150.432254 221.555853 
L 150.432254 222.640055 
L 151.066783 222.640055 
L 151.066783 219.743925 
L 151.701313 219.743925 
L 151.701313 220.525214 
L 152.335842 220.525214 
L 152.335842 221.249955 
L 152.970371 221.249955 
L 152.970371 220.233956 
L 153.6049 220.233956 
L 153.6049 220.525214 
L 154.239429 220.525214 
L 154.239429 218.681703 
L 154.873958 218.681703 
L 154.873958 219.503159 
L 155.508487 219.503159 
L 155.508487 221.249955 
L 156.143016 221.249955 
L 156.143016 221.424204 
L 156.777546 221.424204 
L 156.777546 220.693491 
L 158.046604 220.609183 
L 158.046604 221.293381 
L 158.681133 221.293381 
L 158.681133 220.567156 
L 159.950191 220.483356 
L 159.950191 219.4633 
L 160.58472 219.4633 
L 160.58472 219.663361 
L 161.219249 219.663361 
L 161.219249 220.06933 
L 161.853779 220.06933 
L 161.853779 219.703604 
L 162.488308 219.703604 
L 162.488308 220.028376 
L 163.757366 220.028376 
L 163.757366 220.233956 
L 164.391895 220.233956 
L 164.391895 219.905993 
L 166.295482 219.824802 
L 166.295482 219.703604 
L 166.930011 219.703604 
L 166.930011 219.344177 
L 167.564541 219.344177 
L 167.564541 218.226422 
L 168.833599 218.151499 
L 168.833599 215.71876 
L 169.468128 215.71876 
L 169.468128 214.77531 
L 170.102657 214.77531 
L 170.102657 214.522384 
L 170.737186 214.522384 
L 170.737186 214.711791 
L 171.371715 214.711791 
L 171.371715 214.30356 
L 172.006244 214.30356 
L 172.006244 214.148651 
L 172.640774 214.148651 
L 172.640774 213.480389 
L 173.275303 213.480389 
L 173.275303 211.02935 
L 173.909832 211.02935 
L 173.909832 207.114531 
L 174.544361 207.114531 
L 174.544361 206.982744 
L 175.17889 206.982744 
L 175.17889 208.645633 
L 175.813419 208.645633 
L 175.813419 208.292957 
L 176.447948 208.292957 
L 176.447948 205.729333 
L 177.082477 205.729333 
L 177.082477 203.557682 
L 177.717007 203.557682 
L 177.717007 202.881277 
L 178.351536 202.881277 
L 178.351536 201.658639 
L 178.986065 201.658639 
L 178.986065 198.253921 
L 179.620594 198.253921 
L 179.620594 205.442649 
L 180.255123 205.442649 
L 180.255123 204.008454 
L 180.889652 204.008454 
L 180.889652 204.160902 
L 181.524181 204.160902 
L 181.524181 204.920465 
L 182.15871 204.920465 
L 182.15871 203.483491 
L 183.427769 203.53911 
L 183.427769 202.453968 
L 184.062298 202.453968 
L 184.062298 201.106193 
L 184.696827 201.106193 
L 184.696827 201.692596 
L 185.331356 201.692596 
L 185.331356 201.388959 
L 185.965885 201.388959 
L 185.965885 201.188962 
L 186.600414 201.188962 
L 186.600414 200.551902 
L 187.234943 200.551902 
L 187.234943 201.658639 
L 187.869472 201.658639 
L 187.869472 202.000716 
L 188.504002 202.000716 
L 188.504002 202.208686 
L 189.138531 202.208686 
L 189.138531 202.524581 
L 189.77306 202.524581 
L 189.77306 202.953353 
L 190.407589 202.953353 
L 190.407589 204.122686 
L 191.042118 204.122686 
L 191.042118 203.87597 
L 191.676647 203.87597 
L 191.676647 204.046462 
L 192.945705 204.084539 
L 192.945705 203.857112 
L 193.580235 203.857112 
L 193.580235 202.489244 
L 194.214764 202.489244 
L 194.214764 201.624738 
L 194.849293 201.624738 
L 194.849293 201.12272 
L 196.118351 201.056688 
L 196.118351 200.359733 
L 196.75288 200.359733 
L 196.75288 199.639057 
L 197.387409 199.639057 
L 197.387409 199.25758 
L 198.021938 199.25758 
L 198.021938 199.516224 
L 199.290997 199.409335 
L 199.290997 199.793622 
L 199.925526 199.793622 
L 199.925526 199.485628 
L 200.560055 199.485628 
L 200.560055 199.685306 
L 201.829113 199.654462 
L 201.829113 198.972252 
L 202.463642 198.972252 
L 202.463642 198.500346 
L 203.098171 198.500346 
L 203.098171 196.793177 
L 203.7327 196.793177 
L 203.7327 194.747087 
L 204.36723 194.747087 
L 204.36723 193.096586 
L 205.001759 193.096586 
L 205.001759 191.745693 
L 205.636288 191.745693 
L 205.636288 190.496828 
L 206.270817 190.496828 
L 206.270817 189.976741 
L 206.905346 189.976741 
L 206.905346 187.736635 
L 207.539875 187.736635 
L 207.539875 185.098857 
L 208.174404 185.098857 
L 208.174404 185.268314 
L 208.808933 185.268314 
L 208.808933 182.695797 
L 209.443463 182.695797 
L 209.443463 182.235992 
L 210.077992 182.235992 
L 210.077992 180.289834 
L 210.712521 180.289834 
L 210.712521 176.033484 
L 211.34705 176.033484 
L 211.34705 174.317487 
L 211.981579 174.317487 
L 211.981579 173.748743 
L 212.616108 173.748743 
L 212.616108 171.528908 
L 213.250637 171.528908 
L 213.250637 165.300107 
L 213.885166 165.300107 
L 213.885166 162.906217 
L 214.519695 162.906217 
L 214.519695 159.558808 
L 215.154225 159.558808 
L 215.154225 152.297609 
L 215.788754 152.297609 
L 215.788754 147.698873 
L 216.423283 147.698873 
L 216.423283 153.29259 
L 217.057812 153.29259 
L 217.057812 165.948693 
L 217.692341 165.948693 
L 217.692341 154.316336 
L 218.32687 154.316336 
L 218.32687 150.541829 
L 218.961399 150.541829 
L 218.961399 152.699667 
L 219.595928 152.699667 
L 219.595928 154.655977 
L 220.230458 154.655977 
L 220.230458 154.838685 
L 220.864987 154.838685 
L 220.864987 155.439153 
L 221.499516 155.439153 
L 221.499516 154.480159 
L 222.134045 154.480159 
L 222.134045 153.558234 
L 223.403103 153.663405 
L 223.403103 152.14051 
L 224.672161 152.09156 
L 224.672161 153.711076 
L 225.306691 153.711076 
L 225.306691 154.307565 
L 225.94122 154.307565 
L 225.94122 156.696521 
L 226.575749 156.696521 
L 226.575749 157.936221 
L 227.210278 157.936221 
L 227.210278 156.444353 
L 227.844807 156.444353 
L 227.844807 156.258651 
L 228.479336 156.258651 
L 228.479336 157.11366 
L 229.113865 157.11366 
L 229.113865 158.513906 
L 229.748394 158.513906 
L 229.748394 162.577774 
L 230.382923 162.577774 
L 230.382923 163.5244 
L 231.017453 163.5244 
L 231.017453 159.225372 
L 231.651982 159.225372 
L 231.651982 158.556862 
L 232.286511 158.556862 
L 232.286511 160.272429 
L 232.92104 160.272429 
L 232.92104 159.110248 
L 233.555569 159.110248 
L 233.555569 158.205087 
L 234.190098 158.205087 
L 234.190098 156.989635 
L 234.824627 156.989635 
L 234.824627 156.574944 
L 235.459156 156.574944 
L 235.459156 157.355824 
L 236.093686 157.355824 
L 236.093686 156.066953 
L 236.728215 156.066953 
L 236.728215 157.992647 
L 237.362744 157.992647 
L 237.362744 155.861878 
L 237.997273 155.861878 
L 237.997273 155.330191 
L 238.631802 155.330191 
L 238.631802 154.390162 
L 239.266331 154.390162 
L 239.266331 152.443063 
L 239.90086 152.443063 
L 239.90086 154.54747 
L 240.535389 154.54747 
L 240.535389 153.779366 
L 241.169919 153.779366 
L 241.169919 153.435079 
L 241.804448 153.435079 
L 241.804448 152.924967 
L 242.438977 152.924967 
L 242.438977 153.624328 
L 243.073506 153.624328 
L 243.073506 153.334398 
L 243.708035 153.334398 
L 243.708035 153.068265 
L 244.342564 153.068265 
L 244.342564 153.793051 
L 244.977093 153.793051 
L 244.977093 153.423308 
L 245.611622 153.423308 
L 245.611622 152.847961 
L 246.246152 152.847961 
L 246.246152 151.182681 
L 246.880681 151.182681 
L 246.880681 144.96952 
L 247.51521 144.96952 
L 247.51521 143.961707 
L 248.149739 143.961707 
L 248.149739 142.760959 
L 248.784268 142.760959 
L 248.784268 143.158035 
L 249.418797 143.158035 
L 249.418797 138.597485 
L 250.053326 138.597485 
L 250.053326 133.019428 
L 250.687855 133.019428 
L 250.687855 129.37375 
L 251.322384 129.37375 
L 251.322384 125.419498 
L 251.956914 125.419498 
L 251.956914 116.834306 
L 252.591443 116.834306 
L 252.591443 114.165664 
L 253.225972 114.165664 
L 253.225972 107.262829 
L 253.860501 107.262829 
L 253.860501 108.86362 
L 254.49503 108.86362 
L 254.49503 117.152876 
L 255.129559 117.152876 
L 255.129559 112.627365 
L 255.764088 112.627365 
L 255.764088 112.960779 
L 256.398617 112.960779 
L 256.398617 117.771163 
L 257.033147 117.771163 
L 257.033147 118.5564 
L 257.667676 118.5564 
L 257.667676 116.625462 
L 258.302205 116.625462 
L 258.302205 116.395584 
L 258.936734 116.395584 
L 258.936734 113.805548 
L 259.571263 113.805548 
L 259.571263 113.942969 
L 260.205792 113.942969 
L 260.205792 113.423834 
L 260.840321 113.423834 
L 260.840321 114.099423 
L 261.47485 114.099423 
L 261.47485 113.828976 
L 262.10938 113.828976 
L 262.10938 115.069766 
L 262.743909 115.069766 
L 262.743909 114.921028 
L 263.378438 114.921028 
L 263.378438 114.10121 
L 264.012967 114.10121 
L 264.012967 115.043567 
L 264.647496 115.043567 
L 264.647496 117.70823 
L 265.282025 117.70823 
L 265.282025 120.199941 
L 265.916554 120.199941 
L 265.916554 119.528105 
L 266.551083 119.528105 
L 266.551083 121.270237 
L 267.185612 121.270237 
L 267.185612 122.002357 
L 267.820142 122.002357 
L 267.820142 121.707596 
L 268.454671 121.707596 
L 268.454671 118.220512 
L 269.0892 118.220512 
L 269.0892 119.201432 
L 270.358258 119.165268 
L 270.358258 119.702729 
L 270.992787 119.702729 
L 270.992787 121.509613 
L 271.627316 121.509613 
L 271.627316 121.044972 
L 272.261845 121.044972 
L 272.261845 124.770756 
L 272.896375 124.770756 
L 272.896375 127.058372 
L 273.530904 127.058372 
L 273.530904 126.179979 
L 274.165433 126.179979 
L 274.165433 130.688591 
L 274.799962 130.688591 
L 274.799962 126.105395 
L 275.434491 126.105395 
L 275.434491 125.109478 
L 276.06902 125.109478 
L 276.06902 124.833875 
L 276.703549 124.833875 
L 276.703549 126.022032 
L 277.338078 126.022032 
L 277.338078 126.453757 
L 277.972608 126.453757 
L 277.972608 127.171295 
L 279.241666 127.130248 
L 279.241666 126.900734 
L 279.876195 126.900734 
L 279.876195 126.58852 
L 280.510724 126.58852 
L 280.510724 124.850968 
L 281.145253 124.850968 
L 281.145253 123.215798 
L 281.779782 123.215798 
L 281.779782 121.216296 
L 282.414311 121.216296 
L 282.414311 119.503277 
L 283.04884 119.503277 
L 283.04884 118.509346 
L 283.68337 118.509346 
L 283.68337 118.912894 
L 284.317899 118.912894 
L 284.317899 120.840799 
L 284.952428 120.840799 
L 284.952428 120.268467 
L 285.586957 120.268467 
L 285.586957 120.861621 
L 286.221486 120.861621 
L 286.221486 121.956164 
L 286.856015 121.956164 
L 286.856015 120.545193 
L 287.490544 120.545193 
L 287.490544 119.024468 
L 288.125073 119.024468 
L 288.125073 119.714757 
L 288.759603 119.714757 
L 288.759603 119.394715 
L 289.394132 119.394715 
L 289.394132 119.724117 
L 290.028661 119.724117 
L 290.028661 119.52678 
L 290.66319 119.52678 
L 290.66319 119.846179 
L 291.297719 119.846179 
L 291.297719 120.765801 
L 291.932248 120.765801 
L 291.932248 121.178979 
L 292.566777 121.178979 
L 292.566777 120.948663 
L 293.835836 120.93165 
L 293.835836 121.651414 
L 294.470365 121.651414 
L 294.470365 123.375699 
L 295.104894 123.375699 
L 295.104894 123.578219 
L 295.739423 123.578219 
L 295.739423 124.016753 
L 297.008481 124.075158 
L 297.008481 125.35984 
L 297.64301 125.35984 
L 297.64301 124.945655 
L 298.277539 124.945655 
L 298.277539 125.492107 
L 298.912068 125.492107 
L 298.912068 125.335325 
L 299.546598 125.335325 
L 299.546598 126.367614 
L 300.181127 126.367614 
L 300.181127 128.945455 
L 300.815656 128.945455 
L 300.815656 128.480451 
L 301.450185 128.480451 
L 301.450185 130.415004 
L 302.084714 130.415004 
L 302.084714 131.267687 
L 302.719243 131.267687 
L 302.719243 132.764277 
L 303.353772 132.764277 
L 303.353772 131.091112 
L 303.988301 131.091112 
L 303.988301 129.276284 
L 304.622831 129.276284 
L 304.622831 129.563628 
L 305.25736 129.563628 
L 305.25736 131.366759 
L 305.891889 131.366759 
L 305.891889 131.738064 
L 306.526418 131.738064 
L 306.526418 132.532584 
L 307.160947 132.532584 
L 307.160947 133.00489 
L 307.795476 133.00489 
L 307.795476 131.974883 
L 308.430005 131.974883 
L 308.430005 127.977856 
L 309.064534 127.977856 
L 309.064534 129.540602 
L 309.699064 129.540602 
L 309.699064 131.409446 
L 310.333593 131.409446 
L 310.333593 130.375416 
L 310.968122 130.375416 
L 310.968122 130.242149 
L 311.602651 130.242149 
L 311.602651 130.096531 
L 312.23718 130.096531 
L 312.23718 130.34925 
L 312.871709 130.34925 
L 312.871709 131.863913 
L 313.506238 131.863913 
L 313.506238 131.331739 
L 314.140767 131.331739 
L 314.140767 134.172421 
L 314.775296 134.172421 
L 314.775296 132.894605 
L 315.409826 132.894605 
L 315.409826 133.023223 
L 316.044355 133.023223 
L 316.044355 134.256788 
L 316.678884 134.256788 
L 316.678884 136.071897 
L 317.313413 136.071897 
L 317.313413 135.148463 
L 317.947942 135.148463 
L 317.947942 137.231407 
L 318.582471 137.231407 
L 318.582471 142.429782 
L 319.217 142.429782 
L 319.217 141.861853 
L 319.851529 141.861853 
L 319.851529 140.218508 
L 320.486059 140.218508 
L 320.486059 137.713558 
L 321.120588 137.713558 
L 321.120588 141.551199 
L 321.755117 141.551199 
L 321.755117 140.853036 
L 322.389646 140.853036 
L 322.389646 141.110486 
L 323.024175 141.110486 
L 323.024175 141.260112 
L 323.658704 141.260112 
L 323.658704 140.148094 
L 324.293233 140.148094 
L 324.293233 139.167774 
L 324.927762 139.167774 
L 324.927762 139.669563 
L 325.562292 139.669563 
L 325.562292 138.522446 
L 326.196821 138.522446 
L 326.196821 137.202026 
L 326.83135 137.202026 
L 326.83135 136.823786 
L 327.465879 136.823786 
L 327.465879 135.365964 
L 328.100408 135.365964 
L 328.100408 135.767456 
L 328.734937 135.767456 
L 328.734937 137.826302 
L 329.369466 137.826302 
L 329.369466 139.2341 
L 330.003995 139.2341 
L 330.003995 138.566942 
L 330.638524 138.566942 
L 330.638524 139.107584 
L 331.273054 139.107584 
L 331.273054 137.952469 
L 331.907583 137.952469 
L 331.907583 139.405135 
L 332.542112 139.405135 
L 332.542112 141.19639 
L 333.81117 141.231039 
L 333.81117 140.028313 
L 334.445699 140.028313 
L 334.445699 140.891728 
L 335.714757 140.953601 
L 335.714757 139.710477 
L 336.349287 139.710477 
L 336.349287 139.912735 
L 336.983816 139.912735 
L 336.983816 139.581914 
L 337.618345 139.581914 
L 337.618345 139.894267 
L 338.252874 139.894267 
L 338.252874 140.425777 
L 338.887403 140.425777 
L 338.887403 139.860012 
L 339.521932 139.860012 
L 339.521932 140.076143 
L 340.156461 140.076143 
L 340.156461 140.703549 
L 340.79099 140.703549 
L 340.79099 141.208557 
L 341.42552 141.208557 
L 341.42552 140.765781 
L 342.060049 140.765781 
L 342.060049 140.588724 
L 342.694578 140.588724 
L 342.694578 138.814216 
L 343.329107 138.814216 
L 343.329107 139.255403 
L 343.963636 139.255403 
L 343.963636 139.646965 
L 344.598165 139.646965 
L 344.598165 138.932244 
L 345.232694 138.932244 
L 345.232694 138.425542 
L 345.867223 138.425542 
L 345.867223 137.320577 
L 346.501752 137.320577 
L 346.501752 136.084343 
L 347.136282 136.084343 
L 347.136282 135.865786 
L 347.770811 135.865786 
L 347.770811 136.692175 
L 349.039869 136.599639 
L 349.039869 135.51366 
L 349.674398 135.51366 
L 349.674398 135.827411 
L 350.308927 135.827411 
L 350.308927 136.36451 
L 350.943456 136.36451 
L 350.943456 136.498545 
L 351.577985 136.498545 
L 351.577985 137.131063 
L 352.212515 137.131063 
L 352.212515 137.87971 
L 352.847044 137.87971 
L 352.847044 140.895417 
L 353.481573 140.895417 
L 353.481573 140.721833 
L 354.116102 140.721833 
L 354.116102 141.000821 
L 354.750631 141.000821 
L 354.750631 140.529735 
L 356.019689 140.486281 
L 356.019689 139.301492 
L 356.654218 139.301492 
L 356.654218 140.127638 
L 357.288748 140.127638 
L 357.288748 140.704463 
L 357.923277 140.704463 
L 357.923277 140.537893 
L 358.557806 140.537893 
L 358.557806 140.192632 
L 359.192335 140.192632 
L 359.192335 139.739251 
L 359.826864 139.739251 
L 359.826864 139.859134 
L 360.461393 139.859134 
L 360.461393 139.081358 
L 361.730451 139.172869 
L 361.730451 138.6074 
L 362.36498 138.6074 
L 362.36498 137.910861 
L 362.99951 137.910861 
L 362.99951 136.873164 
L 363.634039 136.873164 
L 363.634039 135.955118 
L 364.268568 135.955118 
L 364.268568 133.135463 
L 364.903097 133.135463 
L 364.903097 128.771925 
L 365.537626 128.771925 
L 365.537626 129.693697 
L 366.172155 129.693697 
L 366.172155 134.39276 
L 366.806684 134.39276 
L 366.806684 133.728787 
L 367.441213 133.728787 
L 367.441213 133.280299 
L 368.075743 133.280299 
L 368.075743 133.435821 
L 368.710272 133.435821 
L 368.710272 131.320078 
L 369.344801 131.320078 
L 369.344801 131.054824 
L 369.97933 131.054824 
L 369.97933 129.697471 
L 370.613859 129.697471 
L 370.613859 128.162408 
L 371.248388 128.162408 
L 371.248388 127.332444 
L 371.882917 127.332444 
L 371.882917 126.244774 
L 372.517446 126.244774 
L 372.517446 127.094993 
L 373.151976 127.094993 
L 373.151976 126.29419 
L 373.786505 126.29419 
L 373.786505 127.340149 
L 375.055563 127.362798 
L 375.055563 127.532242 
L 375.690092 127.532242 
L 375.690092 126.620602 
L 376.324621 126.620602 
L 376.324621 127.51815 
L 376.95915 127.51815 
L 376.95915 129.77635 
L 377.593679 129.77635 
L 377.593679 129.99345 
L 378.228208 129.99345 
L 378.228208 129.445019 
L 378.862738 129.445019 
L 378.862738 130.263193 
L 379.497267 130.263193 
L 379.497267 130.719149 
L 380.131796 130.719149 
L 380.131796 130.352032 
L 380.766325 130.352032 
L 380.766325 130.184663 
L 381.400854 130.184663 
L 381.400854 129.04661 
L 382.035383 129.04661 
L 382.035383 127.988287 
L 383.304441 128.024588 
L 383.304441 127.419288 
L 383.938971 127.419288 
L 383.938971 127.863458 
L 384.5735 127.863458 
L 384.5735 128.710629 
L 385.208029 128.710629 
L 385.208029 128.186972 
L 386.477087 128.237694 
L 386.477087 128.594199 
L 387.111616 128.594199 
L 387.111616 128.167419 
L 388.380674 128.138875 
L 388.380674 128.300641 
L 389.015204 128.300641 
L 389.015204 128.061451 
L 390.284262 127.989778 
L 390.284262 127.857039 
L 390.918791 127.857039 
L 390.918791 127.523008 
L 391.55332 127.523008 
L 391.55332 127.209551 
L 392.187849 127.209551 
L 392.187849 126.458835 
L 392.822378 126.458835 
L 392.822378 126.767226 
L 393.456907 126.767226 
L 393.456907 126.409029 
L 394.091436 126.409029 
L 394.091436 126.576908 
L 394.725966 126.576908 
L 394.725966 126.059142 
L 395.360495 126.059142 
L 395.360495 126.279536 
L 395.995024 126.279536 
L 395.995024 126.405344 
L 396.629553 126.405344 
L 396.629553 126.864922 
L 397.264082 126.864922 
L 397.264082 126.608042 
L 397.898611 126.608042 
L 397.898611 123.882876 
L 398.53314 123.882876 
L 398.53314 122.820744 
L 399.167669 122.820744 
L 399.167669 121.118837 
L 399.802199 121.118837 
L 399.802199 121.326123 
L 400.436728 121.326123 
L 400.436728 117.774513 
L 401.071257 117.774513 
L 401.071257 115.834229 
L 401.705786 115.834229 
L 401.705786 120.796402 
L 402.340315 120.796402 
L 402.340315 119.520488 
L 402.974844 119.520488 
L 402.974844 118.306243 
L 403.609373 118.306243 
L 403.609373 117.872497 
L 404.243902 117.872497 
L 404.243902 118.461453 
L 406.14749 118.514393 
L 406.14749 118.320305 
L 406.782019 118.320305 
L 406.782019 118.509346 
L 407.416548 118.509346 
L 407.416548 118.697568 
L 408.051077 118.697568 
L 408.051077 120.352375 
L 408.685606 120.352375 
L 408.685606 121.515806 
L 409.320135 121.515806 
L 409.320135 121.073845 
L 410.589194 121.132425 
L 410.589194 121.581489 
L 411.223723 121.581489 
L 411.223723 121.351773 
L 412.492781 121.405703 
L 412.492781 121.560302 
L 413.761839 121.542054 
L 413.761839 120.262977 
L 414.396368 120.262977 
L 414.396368 119.805189 
L 415.030897 119.805189 
L 415.030897 120.234519 
L 416.299956 120.292161 
L 416.299956 120.751747 
L 416.934485 120.751747 
L 416.934485 120.310035 
L 418.838072 120.296628 
L 418.838072 120.047934 
L 419.472601 120.047934 
L 419.472601 119.356572 
L 420.10713 119.356572 
L 420.10713 119.23178 
L 420.74166 119.23178 
L 420.74166 119.563576 
L 421.376189 119.563576 
L 421.376189 119.070432 
L 422.010718 119.070432 
L 422.010718 117.752598 
L 422.645247 117.752598 
L 422.645247 116.550086 
L 423.279776 116.550086 
L 423.279776 117.224829 
L 423.914305 117.224829 
L 423.914305 116.697062 
L 424.548834 116.697062 
L 424.548834 117.316982 
L 425.183363 117.316982 
L 425.183363 116.25807 
L 427.086951 116.251558 
L 427.086951 116.452102 
L 427.72148 116.452102 
L 427.72148 115.530927 
L 428.990538 115.435153 
L 428.990538 115.388653 
L 429.625067 115.388653 
L 429.625067 115.180809 
L 430.259596 115.180809 
L 430.259596 114.777298 
L 430.894125 114.777298 
L 430.894125 111.763842 
L 431.528655 111.763842 
L 431.528655 111.392505 
L 432.163184 111.392505 
L 432.163184 110.632721 
L 432.797713 110.632721 
L 432.797713 107.724058 
L 433.432242 107.724058 
L 433.432242 111.84253 
L 434.066771 111.84253 
L 434.066771 114.398532 
L 434.7013 114.398532 
L 434.7013 113.759773 
L 435.335829 113.759773 
L 435.335829 112.185662 
L 435.970358 112.185662 
L 435.970358 112.468302 
L 436.604888 112.468302 
L 436.604888 111.657037 
L 437.239417 111.657037 
L 437.239417 110.234719 
L 437.873946 110.234719 
L 437.873946 109.655932 
L 438.508475 109.655932 
L 438.508475 110.194021 
L 439.143004 110.194021 
L 439.143004 109.860833 
L 439.777533 109.860833 
L 439.777533 108.777568 
L 440.412062 108.777568 
L 440.412062 107.428174 
L 441.046591 107.428174 
L 441.046591 106.962845 
L 441.681121 106.962845 
L 441.681121 105.651595 
L 442.31565 105.651595 
L 442.31565 104.881404 
L 442.950179 104.881404 
L 442.950179 106.219499 
L 443.584708 106.219499 
L 443.584708 105.385189 
L 444.219237 105.385189 
L 444.219237 108.507257 
L 444.853766 108.507257 
L 444.853766 107.651942 
L 445.488295 107.651942 
L 445.488295 110.698353 
L 446.122824 110.698353 
L 446.122824 109.072086 
L 446.757353 109.072086 
L 446.757353 108.280167 
L 447.391883 108.280167 
L 447.391883 106.190812 
L 448.026412 106.190812 
L 448.026412 105.908509 
L 448.660941 105.908509 
L 448.660941 106.603367 
L 449.29547 106.603367 
L 449.29547 106.060645 
L 449.929999 106.060645 
L 449.929999 105.511367 
L 450.564528 105.511367 
L 450.564528 104.604495 
L 451.199057 104.604495 
L 451.199057 103.549757 
L 451.833586 103.549757 
L 451.833586 100.913767 
L 452.468116 100.913767 
L 452.468116 99.422677 
L 453.102645 99.422677 
L 453.102645 98.901241 
L 453.737174 98.901241 
L 453.737174 98.70361 
L 454.371703 98.70361 
L 454.371703 95.330488 
L 455.006232 95.330488 
L 455.006232 91.432148 
L 455.640761 91.432148 
L 455.640761 93.649406 
L 456.27529 93.649406 
L 456.27529 91.532 
L 456.909819 91.532 
L 456.909819 89.167274 
L 457.544349 89.167274 
L 457.544349 88.215105 
L 458.178878 88.215105 
L 458.178878 89.114155 
L 458.813407 89.114155 
L 458.813407 89.710488 
L 459.447936 89.710488 
L 459.447936 89.482193 
L 460.082465 89.482193 
L 460.082465 90.74942 
L 460.716994 90.74942 
L 460.716994 90.421261 
L 461.986052 90.353724 
L 461.986052 90.742499 
L 462.620581 90.742499 
L 462.620581 92.407289 
L 463.255111 92.407289 
L 463.255111 95.713636 
L 463.88964 95.713636 
L 463.88964 92.824249 
L 464.524169 92.824249 
L 464.524169 88.790043 
L 465.158698 88.790043 
L 465.158698 89.499152 
L 465.793227 89.499152 
L 465.793227 87.938061 
L 467.062285 87.984614 
L 467.062285 84.29669 
L 467.696814 84.29669 
L 467.696814 81.656566 
L 468.331344 81.656566 
L 468.331344 79.085489 
L 468.965873 79.085489 
L 468.965873 80.676272 
L 469.600402 80.676272 
L 469.600402 79.296512 
L 470.234931 79.296512 
L 470.234931 79.081389 
L 470.86946 79.081389 
L 470.86946 76.688783 
L 471.503989 76.688783 
L 471.503989 79.041569 
L 472.138518 79.041569 
L 472.138518 79.300847 
L 472.773047 79.300847 
L 472.773047 81.674374 
L 473.407577 81.674374 
L 473.407577 82.707363 
L 474.042106 82.707363 
L 474.042106 83.15231 
L 474.676635 83.15231 
L 474.676635 81.31705 
L 475.311164 81.31705 
L 475.311164 80.119375 
L 475.945693 80.119375 
L 475.945693 79.409729 
L 476.580222 79.409729 
L 476.580222 78.784111 
L 477.214751 78.784111 
L 477.214751 77.058658 
L 477.84928 77.058658 
L 477.84928 73.599394 
L 479.118339 73.57935 
L 479.118339 72.847269 
L 479.752868 72.847269 
L 479.752868 73.314658 
L 480.387397 73.314658 
L 480.387397 71.099654 
L 481.021926 71.099654 
L 481.021926 68.218706 
L 481.656455 68.218706 
L 481.656455 67.930488 
L 482.290984 67.930488 
L 482.290984 72.884469 
L 482.925513 72.884469 
L 482.925513 66.840947 
L 483.560042 66.840947 
L 483.560042 65.87193 
L 484.829101 65.948088 
L 484.829101 62.009372 
L 485.46363 62.009372 
L 485.46363 60.016844 
L 486.098159 60.016844 
L 486.098159 55.052692 
L 486.732688 55.052692 
L 486.732688 53.283459 
L 487.367217 53.283459 
L 487.367217 51.506873 
L 488.001746 51.506873 
L 488.001746 48.543719 
L 488.636275 48.543719 
L 488.636275 55.154407 
L 489.270805 55.154407 
L 489.270805 52.456709 
L 489.905334 52.456709 
L 489.905334 56.996489 
L 490.539863 56.996489 
L 490.539863 53.324639 
L 491.174392 53.324639 
L 491.174392 51.782404 
L 491.808921 51.782404 
L 491.808921 55.911751 
L 492.44345 55.911751 
L 492.44345 55.494113 
L 493.077979 55.494113 
L 493.077979 58.911559 
L 493.712508 58.911559 
L 493.712508 60.173032 
L 494.347037 60.173032 
L 494.347037 59.048267 
L 494.981567 59.048267 
L 494.981567 61.418281 
L 495.616096 61.418281 
L 495.616096 65.975343 
L 496.885154 65.866185 
L 496.885154 64.281322 
L 497.519683 64.281322 
L 497.519683 61.470368 
L 498.154212 61.470368 
L 498.154212 59.389442 
L 498.788741 59.389442 
L 498.788741 62.475752 
L 499.42327 62.475752 
L 499.42327 61.157879 
L 500.0578 61.157879 
L 500.0578 58.892853 
L 500.692329 58.892853 
L 500.692329 63.299044 
L 501.326858 63.299044 
L 501.326858 63.738896 
L 501.961387 63.738896 
L 501.961387 65.732962 
L 502.595916 65.732962 
L 502.595916 64.24797 
L 503.230445 64.24797 
L 503.230445 65.148108 
L 503.864974 65.148108 
L 503.864974 66.625047 
L 504.499503 66.625047 
L 504.499503 69.802639 
L 505.134033 69.802639 
L 505.134033 69.927951 
L 506.403091 69.93487 
L 506.403091 66.770846 
L 507.672149 66.739314 
L 507.672149 64.199666 
L 508.306678 64.199666 
L 508.306678 64.34141 
L 508.941207 64.34141 
L 508.941207 63.134324 
L 509.575736 63.134324 
L 509.575736 62.360786 
L 510.210265 62.360786 
L 510.210265 63.199344 
L 510.844795 63.199344 
L 510.844795 65.485636 
L 511.479324 65.485636 
L 511.479324 65.301984 
L 512.113853 65.301984 
L 512.113853 65.873804 
L 512.748382 65.873804 
L 512.748382 67.809389 
L 513.382911 67.809389 
L 513.382911 68.279501 
L 514.01744 68.279501 
L 514.01744 67.871286 
L 515.286498 67.855105 
L 515.286498 67.523498 
L 515.921028 67.523498 
L 515.921028 70.659018 
L 516.555557 70.659018 
L 516.555557 70.864839 
L 517.190086 70.864839 
L 517.190086 70.007519 
L 517.824615 70.007519 
L 517.824615 71.959542 
L 518.459144 71.959542 
L 518.459144 72.92681 
L 519.093673 72.92681 
L 519.093673 70.42647 
L 520.362731 70.419701 
L 520.362731 71.383869 
L 520.997261 71.383869 
L 520.997261 71.650728 
L 521.63179 71.650728 
L 521.63179 68.204208 
L 522.900848 68.103814 
L 522.900848 66.65341 
L 523.535377 66.65341 
L 523.535377 66.053258 
L 524.169906 66.053258 
L 524.169906 68.080979 
L 524.804435 68.080979 
L 524.804435 70.139413 
L 525.438964 70.139413 
L 525.438964 71.720936 
L 526.073493 71.720936 
L 526.073493 71.57796 
L 526.708023 71.57796 
L 526.708023 70.871593 
L 527.342552 70.871593 
L 527.342552 70.745298 
L 527.977081 70.745298 
L 527.977081 69.578545 
L 528.61161 69.578545 
L 528.61161 69.226211 
L 529.246139 69.226211 
L 529.246139 68.237978 
L 529.880668 68.237978 
L 529.880668 71.868172 
L 530.515197 71.868172 
L 530.515197 71.394521 
L 531.149726 71.394521 
L 531.149726 70.836913 
L 532.418785 70.841249 
L 532.418785 70.562283 
L 533.053314 70.562283 
L 533.053314 70.41948 
L 533.687843 70.41948 
L 533.687843 70.760171 
L 534.322372 70.760171 
L 534.322372 70.593463 
L 535.59143 70.569828 
L 535.59143 71.596304 
L 536.225959 71.596304 
L 536.225959 70.797641 
L 537.495018 70.848092 
L 537.495018 70.917999 
L 538.129547 70.917999 
L 538.129547 71.475258 
L 538.764076 71.475258 
L 538.764076 71.27854 
L 539.398605 71.27854 
L 539.398605 70.710571 
L 540.033134 70.710571 
L 540.033134 71.124189 
L 540.667663 71.124189 
L 540.667663 73.720579 
L 541.302192 73.720579 
L 541.302192 76.943829 
L 541.936721 76.943829 
L 541.936721 79.194592 
L 542.571251 79.194592 
L 542.571251 81.873825 
L 543.20578 81.873825 
L 543.20578 80.000359 
L 543.840309 80.000359 
L 543.840309 82.333794 
L 544.474838 82.333794 
L 544.474838 83.224754 
L 545.109367 83.224754 
L 545.109367 84.922021 
L 545.743896 84.922021 
L 545.743896 83.411076 
L 546.378425 83.411076 
L 546.378425 81.488365 
L 547.012954 81.488365 
L 547.012954 81.91163 
L 547.647484 81.91163 
L 547.647484 82.192859 
L 548.282013 82.192859 
L 548.282013 81.320606 
L 548.916542 81.320606 
L 548.916542 80.588096 
L 549.551071 80.588096 
L 549.551071 82.891277 
L 550.1856 82.891277 
L 550.1856 82.684969 
L 550.820129 82.684969 
L 550.820129 83.009037 
L 551.454658 83.009037 
L 551.454658 83.231093 
L 552.723717 83.295465 
L 552.723717 83.925085 
L 553.992775 84.009321 
L 553.992775 84.382504 
L 554.627304 84.382504 
L 554.627304 82.987525 
L 555.261833 82.987525 
L 555.261833 83.110168 
L 555.896362 83.110168 
L 555.896362 81.345992 
L 556.530891 81.345992 
L 556.530891 80.243358 
L 557.16542 80.243358 
L 557.16542 81.847789 
L 558.434479 81.949558 
L 558.434479 81.558092 
L 559.703537 81.588876 
L 559.703537 81.293077 
L 560.338066 81.293077 
L 560.338066 80.807865 
L 562.241653 80.707636 
L 562.241653 80.371988 
L 562.876182 80.371988 
L 562.876182 76.676756 
L 563.510712 76.676756 
L 563.510712 75.210716 
L 564.145241 75.210716 
L 564.145241 76.001185 
L 564.77977 76.001185 
L 564.77977 75.498072 
L 565.414299 75.498072 
L 565.414299 75.050658 
L 566.048828 75.050658 
L 566.048828 74.565431 
L 566.683357 74.565431 
L 566.683357 75.082084 
L 567.317886 75.082084 
L 567.317886 74.735186 
L 567.952415 74.735186 
L 567.952415 73.62588 
L 568.586945 73.62588 
L 568.586945 71.322146 
L 569.221474 71.322146 
L 569.221474 66.5149 
L 569.856003 66.5149 
L 569.856003 68.506624 
L 570.490532 68.506624 
L 570.490532 67.49505 
L 571.125061 67.49505 
L 571.125061 64.639271 
L 571.75959 64.639271 
L 571.75959 65.797008 
L 572.394119 65.797008 
L 572.394119 66.146851 
L 573.028648 66.146851 
L 573.028648 66.500285 
L 573.663177 66.500285 
L 573.663177 66.711914 
L 574.297707 66.711914 
L 574.297707 64.366525 
L 574.932236 64.366525 
L 574.932236 63.395042 
L 575.566765 63.395042 
L 575.566765 60.205826 
L 576.201294 60.205826 
L 576.201294 59.60041 
L 576.835823 59.60041 
L 576.835823 60.665749 
L 577.470352 60.665749 
L 577.470352 59.936139 
L 578.104881 59.936139 
L 578.104881 57.03915 
L 578.73941 57.03915 
L 578.73941 59.125567 
L 579.37394 59.125567 
L 579.37394 62.530637 
L 580.008469 62.530637 
L 580.008469 60.648616 
L 580.642998 60.648616 
L 580.642998 62.10178 
L 581.277527 62.10178 
L 581.277527 62.907043 
L 581.912056 62.907043 
L 581.912056 60.762962 
L 582.546585 60.762962 
L 582.546585 58.985751 
L 583.181114 58.985751 
L 583.181114 59.322309 
L 583.815643 59.322309 
L 583.815643 61.804309 
L 584.450173 61.804309 
L 584.450173 61.187264 
L 585.084702 61.187264 
L 585.084702 61.607307 
L 585.719231 61.607307 
L 585.719231 61.101126 
L 586.35376 61.101126 
L 586.35376 62.739363 
L 586.988289 62.739363 
L 586.988289 60.58195 
L 587.622818 60.58195 
L 587.622818 60.847035 
L 588.257347 60.847035 
L 588.257347 61.509848 
L 588.891876 61.509848 
L 588.891876 61.201769 
L 590.160935 61.271809 
L 590.160935 62.511018 
L 590.795464 62.511018 
L 590.795464 65.996112 
L 591.429993 65.996112 
L 591.429993 65.670116 
L 592.064522 65.670116 
L 592.064522 66.114121 
L 592.699051 66.114121 
L 592.699051 65.016098 
L 593.33358 65.016098 
L 593.33358 65.768525 
L 593.968109 65.768525 
L 593.968109 66.296516 
L 594.602638 66.296516 
L 594.602638 65.923357 
L 595.237168 65.923357 
L 595.237168 64.825341 
L 595.871697 64.825341 
L 595.871697 63.056873 
L 596.506226 63.056873 
L 596.506226 63.351295 
L 597.775284 63.256927 
L 597.775284 63.952256 
L 598.409813 63.952256 
L 598.409813 64.908497 
L 599.044342 64.908497 
L 599.044342 66.041771 
L 599.678871 66.041771 
L 599.678871 68.445537 
L 600.313401 68.445537 
L 600.313401 68.799968 
L 600.94793 68.799968 
L 600.94793 67.682527 
L 601.582459 67.682527 
L 601.582459 68.715029 
L 602.216988 68.715029 
L 602.216988 67.780298 
L 602.851517 67.780298 
L 602.851517 68.725737 
L 603.486046 68.725737 
L 603.486046 69.64432 
L 604.120575 69.64432 
L 604.120575 68.722805 
L 604.755104 68.722805 
L 604.755104 68.547909 
L 605.389634 68.547909 
L 605.389634 68.403425 
L 606.024163 68.403425 
L 606.024163 68.764899 
L 606.658692 68.764899 
L 606.658692 68.259595 
L 607.293221 68.259595 
L 607.293221 66.976227 
L 607.92775 66.976227 
L 607.92775 66.22312 
L 608.562279 66.22312 
L 608.562279 64.270488 
L 609.196808 64.270488 
L 609.196808 64.692217 
L 609.831337 64.692217 
L 609.831337 65.658987 
L 610.465866 65.658987 
L 610.465866 63.399291 
L 611.734925 63.3213 
L 611.734925 62.355845 
L 612.369454 62.355845 
L 612.369454 62.144887 
L 613.003983 62.144887 
L 613.003983 61.084517 
L 613.638512 61.084517 
L 613.638512 61.466084 
L 614.273041 61.466084 
L 614.273041 62.540669 
L 614.90757 62.540669 
L 614.90757 64.541427 
L 615.542099 64.541427 
L 615.542099 65.147106 
L 616.176629 65.147106 
L 616.176629 63.882482 
L 616.811158 63.882482 
L 616.811158 66.674103 
L 617.445687 66.674103 
L 617.445687 73.904654 
L 618.080216 73.904654 
L 618.080216 74.861574 
L 618.714745 74.861574 
L 618.714745 71.848644 
L 619.349274 71.848644 
L 619.349274 70.200908 
L 619.983803 70.200908 
L 619.983803 72.901019 
L 620.618332 72.901019 
L 620.618332 69.859041 
L 621.252862 69.859041 
L 621.252862 68.283365 
L 621.887391 68.283365 
L 621.887391 69.663437 
L 623.156449 69.667354 
L 623.156449 68.522973 
L 623.790978 68.522973 
L 623.790978 68.895259 
L 624.425507 68.895259 
L 624.425507 67.295334 
L 625.060036 67.295334 
L 625.060036 64.91708 
L 625.694565 64.91708 
L 625.694565 64.304299 
L 626.329094 64.304299 
L 626.329094 62.214856 
L 626.963624 62.214856 
L 626.963624 64.472639 
L 627.598153 64.472639 
L 627.598153 63.16254 
L 628.232682 63.16254 
L 628.232682 62.886541 
L 628.867211 62.886541 
L 628.867211 64.671964 
L 629.50174 64.671964 
L 629.50174 62.758499 
L 630.136269 62.758499 
L 630.136269 61.417811 
L 630.770798 61.417811 
L 630.770798 62.639909 
L 631.405327 62.639909 
L 631.405327 62.314199 
L 632.039857 62.314199 
L 632.039857 62.968251 
L 633.308915 63.009458 
L 633.308915 63.388119 
L 634.577973 63.487079 
L 634.577973 63.612778 
L 635.212502 63.612778 
L 635.212502 63.87091 
L 635.847031 63.87091 
L 635.847031 63.45238 
L 637.11609 63.498124 
L 637.11609 63.59425 
L 638.385148 63.546301 
L 638.385148 62.662992 
L 639.019677 62.662992 
L 639.019677 59.770632 
L 639.654206 59.770632 
L 639.654206 59.208581 
L 640.288735 59.208581 
L 640.288735 59.485645 
L 640.923264 59.485645 
L 640.923264 58.443384 
L 641.557793 58.443384 
L 641.557793 58.791133 
L 642.192322 58.791133 
L 642.192322 58.185373 
L 643.461381 58.269944 
L 643.461381 58.449892 
L 644.09591 58.449892 
L 644.09591 58.860411 
L 644.730439 58.860411 
L 644.730439 58.169196 
L 645.364968 58.169196 
L 645.364968 61.509232 
L 645.999497 61.509232 
L 645.999497 61.369608 
L 646.634026 61.369608 
L 646.634026 61.160646 
L 647.268555 61.160646 
L 647.268555 59.957616 
L 647.903085 59.957616 
L 647.903085 60.960256 
L 648.537614 60.960256 
L 648.537614 60.441857 
L 649.172143 60.441857 
L 649.172143 60.155104 
L 649.806672 60.155104 
L 649.806672 60.718975 
L 650.441201 60.718975 
L 650.441201 60.48491 
L 651.07573 60.48491 
L 651.07573 59.148463 
L 651.710259 59.148463 
L 651.710259 58.916601 
L 652.344788 58.916601 
L 652.344788 58.460129 
L 652.979318 58.460129 
L 652.979318 56.454365 
L 653.613847 56.454365 
L 653.613847 55.344812 
L 654.248376 55.344812 
L 654.248376 55.103412 
L 654.882905 55.103412 
L 654.882905 54.588154 
L 655.517434 54.588154 
L 655.517434 52.707613 
L 656.151963 52.707613 
L 656.151963 51.650534 
L 656.786492 51.650534 
L 656.786492 51.107589 
L 657.421021 51.107589 
L 657.421021 48.792723 
L 658.05555 48.792723 
L 658.05555 48.258009 
L 658.69008 48.258009 
L 658.69008 49.887313 
L 659.324609 49.887313 
L 659.324609 48.198833 
L 659.959138 48.198833 
L 659.959138 48.035934 
L 660.593667 48.035934 
L 660.593667 49.289544 
L 661.228196 49.289544 
L 661.228196 48.145052 
L 661.862725 48.145052 
L 661.862725 44.323669 
L 662.497254 44.323669 
L 662.497254 43.724682 
L 663.131783 43.724682 
L 663.131783 41.549081 
L 663.766313 41.549081 
L 663.766313 39.726649 
L 664.400842 39.726649 
L 664.400842 36.926555 
L 665.035371 36.926555 
L 665.035371 33.182826 
L 665.6699 33.182826 
L 665.6699 35.376894 
L 666.304429 35.376894 
L 666.304429 34.636671 
L 666.938958 34.636671 
L 666.938958 35.099788 
L 667.573487 35.099788 
L 667.573487 37.5042 
L 668.208016 37.5042 
L 668.208016 38.626278 
L 668.842546 38.626278 
L 668.842546 36.840942 
L 669.477075 36.840942 
L 669.477075 34.538561 
L 670.111604 34.538561 
L 670.111604 29.832079 
L 670.746133 29.832079 
L 670.746133 29.339686 
L 671.380662 29.339686 
L 671.380662 28.61031 
L 672.015191 28.61031 
L 672.015191 25.891637 
L 672.64972 25.891637 
L 672.64972 27.997678 
L 673.284249 27.997678 
L 673.284249 30.402538 
L 673.918778 30.402538 
L 673.918778 28.914382 
L 674.553308 28.914382 
L 674.553308 27.318667 
L 675.187837 27.318667 
L 675.187837 25.430247 
L 675.822366 25.430247 
L 675.822366 25.569532 
L 676.456895 25.569532 
L 676.456895 25.129017 
L 677.091424 25.129017 
L 677.091424 27.235487 
L 677.725953 27.235487 
L 677.725953 25.972832 
L 678.360482 25.972832 
L 678.360482 24.896416 
L 678.995011 24.896416 
L 678.995011 24.784041 
L 679.629541 24.784041 
L 679.629541 25.12299 
L 680.26407 25.12299 
L 680.26407 23.251568 
L 680.898599 23.251568 
L 680.898599 24.4222 
L 681.533128 24.4222 
L 681.533128 26.724951 
L 682.167657 26.724951 
L 682.167657 28.646216 
L 682.802186 28.646216 
L 682.802186 26.812249 
L 683.436715 26.812249 
L 683.436715 25.444812 
L 684.705774 25.384017 
L 684.705774 25.614481 
L 685.340303 25.614481 
L 685.340303 29.665204 
L 685.974832 29.665204 
L 685.974832 34.5599 
L 686.609361 34.5599 
L 686.609361 35.846124 
L 687.24389 35.846124 
L 687.24389 33.740183 
L 687.878419 33.740183 
L 687.878419 34.365341 
L 688.512948 34.365341 
L 688.512948 34.604407 
L 689.147477 34.604407 
L 689.147477 36.644314 
L 689.782006 36.644314 
L 689.782006 35.40629 
L 690.416536 35.40629 
L 690.416536 33.805644 
L 691.051065 33.805644 
L 691.051065 35.349081 
L 691.685594 35.349081 
L 691.685594 35.91538 
L 692.954652 36.025733 
L 692.954652 36.392163 
L 693.589181 36.392163 
L 693.589181 36.175032 
L 694.22371 36.175032 
L 694.22371 36.60357 
L 694.858239 36.60357 
L 694.858239 37.044603 
L 695.492769 37.044603 
L 695.492769 37.710795 
L 696.127298 37.710795 
L 696.127298 37.37579 
L 696.761827 37.37579 
L 696.761827 34.361091 
L 697.396356 34.361091 
L 697.396356 31.788792 
L 698.030885 31.788792 
L 698.030885 33.907635 
L 698.665414 33.907635 
L 698.665414 30.62564 
L 699.299943 30.62564 
L 699.299943 30.173675 
L 699.934472 30.173675 
L 699.934472 29.522898 
L 700.569002 29.522898 
L 700.569002 29.666066 
L 701.203531 29.666066 
L 701.203531 28.456631 
L 701.83806 28.456631 
L 701.83806 28.654177 
L 702.472589 28.654177 
L 702.472589 29.478841 
L 703.107118 29.478841 
L 703.107118 28.278794 
L 703.741647 28.278794 
L 703.741647 29.961155 
L 705.010705 29.969879 
L 705.010705 29.202182 
L 705.645234 29.202182 
L 705.645234 31.451746 
L 706.914293 31.493616 
L 706.914293 32.392059 
L 707.548822 32.392059 
L 707.548822 29.227594 
L 708.183351 29.227594 
L 708.183351 26.13805 
L 708.81788 26.13805 
L 708.81788 26.410536 
L 709.452409 26.410536 
L 709.452409 25.377665 
L 710.086938 25.377665 
L 710.086938 23.77783 
L 710.721467 23.77783 
L 710.721467 24.211446 
L 711.355997 24.211446 
L 711.355997 24.332769 
L 711.990526 24.332769 
L 711.990526 23.858898 
L 712.625055 23.858898 
L 712.625055 23.449356 
L 713.259584 23.449356 
L 713.259584 23.337508 
L 713.894113 23.337508 
L 713.894113 22.834088 
L 714.528642 22.834088 
L 714.528642 23.241783 
L 715.163171 23.241783 
L 715.163171 25.112061 
L 715.7977 25.112061 
L 715.7977 25.312156 
L 716.43223 25.312156 
L 716.43223 26.343639 
L 717.066759 26.343639 
L 717.066759 25.438821 
L 717.701288 25.438821 
L 717.701288 28.516999 
L 718.335817 28.516999 
L 718.335817 29.25709 
L 718.970346 29.25709 
L 718.970346 29.656049 
L 719.604875 29.656049 
L 719.604875 29.918121 
L 720.239404 29.918121 
L 720.239404 28.706257 
L 720.873933 28.706257 
L 720.873933 28.061228 
L 721.508462 28.061228 
L 721.508462 29.81203 
L 722.142992 29.81203 
L 722.142992 29.40287 
L 722.777521 29.40287 
L 722.777521 31.345467 
L 723.41205 31.345467 
L 723.41205 31.970068 
L 724.046579 31.970068 
L 724.046579 31.355758 
L 724.681108 31.355758 
L 724.681108 31.706245 
L 725.315637 31.706245 
L 725.315637 35.65673 
L 725.950166 35.65673 
L 725.950166 34.639516 
L 726.584695 34.639516 
L 726.584695 34.02801 
L 727.219225 34.02801 
L 727.219225 34.487696 
L 727.853754 34.487696 
L 727.853754 31.00308 
L 728.488283 31.00308 
L 728.488283 31.696504 
L 729.122812 31.696504 
L 729.122812 30.671472 
L 729.757341 30.671472 
L 729.757341 32.853049 
L 730.39187 32.853049 
L 730.39187 34.376004 
L 731.026399 34.376004 
L 731.026399 34.146138 
L 731.660928 34.146138 
L 731.660928 31.66546 
L 732.295458 31.66546 
L 732.295458 33.965437 
L 732.929987 33.965437 
L 732.929987 33.580279 
L 733.564516 33.580279 
L 733.564516 33.270319 
L 734.199045 33.270319 
L 734.199045 31.784754 
L 734.833574 31.784754 
L 734.833574 31.450044 
L 735.468103 31.450044 
L 735.468103 29.610829 
L 736.102632 29.610829 
L 736.102632 30.206749 
L 736.737161 30.206749 
L 736.737161 29.72123 
L 737.37169 29.72123 
L 737.37169 31.756791 
L 738.00622 31.756791 
L 738.00622 32.859734 
L 738.640749 32.859734 
L 738.640749 32.71115 
L 739.275278 32.71115 
L 739.275278 32.207358 
L 739.909807 32.207358 
L 739.909807 33.193646 
L 740.544336 33.193646 
L 740.544336 33.033285 
L 741.178865 33.033285 
L 741.178865 33.704739 
L 741.813394 33.704739 
L 741.813394 35.103901 
L 742.447923 35.103901 
L 742.447923 38.228966 
L 743.082453 38.228966 
L 743.082453 38.86398 
L 743.716982 38.86398 
L 743.716982 39.854028 
L 744.351511 39.854028 
L 744.351511 38.722692 
L 744.98604 38.722692 
L 744.98604 39.48414 
L 745.620569 39.48414 
L 745.620569 37.755427 
L 746.255098 37.755427 
L 746.255098 39.13834 
L 746.889627 39.13834 
L 746.889627 38.152449 
L 747.524156 38.152449 
L 747.524156 40.100266 
L 748.158686 40.100266 
L 748.158686 44.871591 
L 748.793215 44.871591 
L 748.793215 46.820022 
L 749.427744 46.820022 
L 749.427744 46.270705 
L 750.062273 46.270705 
L 750.062273 46.656249 
L 750.696802 46.656249 
L 750.696802 48.199126 
L 751.331331 48.199126 
L 751.331331 47.187393 
L 751.96586 47.187393 
L 751.96586 45.787255 
L 752.600389 45.787255 
L 752.600389 47.144241 
L 753.234919 47.144241 
L 753.234919 46.583805 
L 753.869448 46.583805 
L 753.869448 44.320695 
L 754.503977 44.320695 
L 754.503977 46.061574 
L 755.138506 46.061574 
L 755.138506 43.753595 
L 755.773035 43.753595 
L 755.773035 44.476569 
L 757.042093 44.507989 
L 757.042093 43.606842 
L 757.676622 43.606842 
L 757.676622 43.299974 
L 758.311151 43.299974 
L 758.311151 44.284769 
L 758.945681 44.284769 
L 758.945681 45.961688 
L 759.58021 45.961688 
L 759.58021 47.134307 
L 760.214739 47.134307 
L 760.214739 47.593393 
L 761.483797 47.549247 
L 761.483797 48.141275 
L 762.118326 48.141275 
L 762.118326 45.583369 
L 762.752855 45.583369 
L 762.752855 47.697313 
L 763.387384 47.697313 
L 763.387384 47.859502 
L 764.021914 47.859502 
L 764.021914 48.140734 
L 764.656443 48.140734 
L 764.656443 48.331744 
L 765.290972 48.331744 
L 765.290972 48.103851 
L 765.925501 48.103851 
L 765.925501 47.201997 
L 766.56003 47.201997 
L 766.56003 47.966895 
L 767.829088 48.029829 
L 767.829088 47.852275 
L 768.463617 47.852275 
L 768.463617 48.259294 
L 769.098147 48.259294 
L 769.098147 47.270934 
L 769.732676 47.270934 
L 769.732676 46.541731 
L 770.367205 46.541731 
L 770.367205 47.21628 
L 771.001734 47.21628 
L 771.001734 46.437571 
L 771.636263 46.437571 
L 771.636263 50.102809 
L 772.270792 50.102809 
L 772.270792 51.279453 
L 772.905321 51.279453 
L 772.905321 51.159967 
L 773.53985 51.159967 
L 773.53985 51.780033 
L 774.174379 51.780033 
L 774.174379 51.449319 
L 774.808909 51.449319 
L 774.808909 50.559096 
L 777.347025 50.515091 
L 777.347025 51.217103 
L 777.981554 51.217103 
L 777.981554 50.884852 
L 779.250612 50.967147 
L 779.250612 51.340778 
L 780.519671 51.247087 
L 780.519671 50.981639 
L 781.1542 50.981639 
L 781.1542 50.533046 
L 781.788729 50.533046 
L 781.788729 47.445966 
L 782.423258 47.445966 
L 782.423258 46.2145 
L 783.057787 46.2145 
L 783.057787 44.667445 
L 783.692316 44.667445 
L 783.692316 44.378768 
L 784.326845 44.378768 
L 784.326845 43.785324 
L 784.961375 43.785324 
L 784.961375 44.051791 
L 785.595904 44.051791 
L 785.595904 44.675473 
L 786.230433 44.675473 
L 786.230433 45.733232 
L 786.864962 45.733232 
L 786.864962 45.187639 
L 787.499491 45.187639 
L 787.499491 43.021181 
L 788.13402 43.021181 
L 788.13402 43.411161 
L 788.768549 43.411161 
L 788.768549 43.955309 
L 790.037607 44.040273 
L 790.037607 45.001695 
L 790.672137 45.001695 
L 790.672137 47.143044 
L 791.306666 47.143044 
L 791.306666 42.915164 
L 791.941195 42.915164 
L 791.941195 41.13331 
L 792.575724 41.13331 
L 792.575724 40.878885 
L 793.210253 40.878885 
L 793.210253 40.355547 
L 794.479311 40.330806 
L 794.479311 40.503334 
L 795.74837 40.410984 
L 795.74837 38.753008 
L 797.017428 38.694883 
L 797.017428 39.746196 
L 797.651957 39.746196 
L 797.651957 40.662812 
L 798.286486 40.662812 
L 798.286486 39.280414 
L 798.921015 39.280414 
L 798.921015 40.290955 
L 799.555544 40.290955 
L 799.555544 39.2415 
L 800.190073 39.2415 
L 800.190073 40.62538 
L 800.824603 40.62538 
L 800.824603 41.280372 
L 801.459132 41.280372 
L 801.459132 40.808739 
L 802.093661 40.808739 
L 802.093661 41.303264 
L 802.72819 41.303264 
L 802.72819 41.522206 
L 803.362719 41.522206 
L 803.362719 40.546586 
L 803.997248 40.546586 
L 803.997248 40.920488 
L 805.266306 40.926837 
L 805.266306 42.020234 
L 805.900835 42.020234 
L 805.900835 42.614402 
L 806.535365 42.614402 
L 806.535365 41.632996 
L 807.169894 41.632996 
L 807.169894 38.982877 
L 807.804423 38.982877 
L 807.804423 38.731129 
L 808.438952 38.731129 
L 808.438952 38.590413 
L 809.073481 38.590413 
L 809.073481 38.383699 
L 809.70801 38.383699 
L 809.70801 38.767113 
L 810.342539 38.767113 
L 810.342539 38.645171 
L 811.611598 38.749351 
L 811.611598 39.05378 
L 812.246127 39.05378 
L 812.246127 39.495222 
L 813.515185 39.396981 
L 813.515185 39.13704 
L 814.149714 39.13704 
L 814.149714 39.58869 
L 814.784243 39.58869 
L 814.784243 39.220006 
L 815.418772 39.220006 
L 815.418772 39.419969 
L 816.053301 39.419969 
L 816.053301 41.377106 
L 816.687831 41.377106 
L 816.687831 41.802972 
L 817.956889 41.862155 
L 817.956889 40.556689 
L 818.591418 40.556689 
L 818.591418 42.007106 
L 820.495005 42.036382 
L 820.495005 41.475973 
L 821.129534 41.475973 
L 821.129534 41.297657 
L 821.764063 41.297657 
L 821.764063 41.439959 
L 822.398593 41.439959 
L 822.398593 41.731677 
L 823.033122 41.731677 
L 823.033122 41.137147 
L 823.667651 41.137147 
L 823.667651 40.506839 
L 824.936709 40.402296 
L 824.936709 41.301634 
L 825.571238 41.301634 
L 825.571238 39.973428 
L 826.205767 39.973428 
L 826.205767 39.13775 
L 826.840296 39.13775 
L 826.840296 36.363961 
L 827.474826 36.363961 
L 827.474826 36.248554 
L 828.109355 36.248554 
L 828.109355 35.438288 
L 828.743884 35.438288 
L 828.743884 35.670466 
L 829.378413 35.670466 
L 829.378413 34.711747 
L 830.012942 34.711747 
L 830.012942 34.825153 
L 831.282 34.752699 
L 831.282 35.222483 
L 831.916529 35.222483 
L 831.916529 34.092868 
L 833.185588 34.056231 
L 833.185588 32.925482 
L 833.820117 32.925482 
L 833.820117 31.259476 
L 834.454646 31.259476 
L 834.454646 32.276806 
L 835.089175 32.276806 
L 835.089175 31.927376 
L 835.723704 31.927376 
L 835.723704 31.764847 
L 836.358233 31.764847 
L 836.358233 31.046773 
L 836.992762 31.046773 
L 836.992762 31.176722 
L 837.627291 31.176722 
L 837.627291 31.771232 
L 838.261821 31.771232 
L 838.261821 30.834261 
L 838.89635 30.834261 
L 838.89635 29.560175 
L 839.530879 29.560175 
L 839.530879 31.47977 
L 840.165408 31.47977 
L 840.165408 31.339772 
L 840.799937 31.339772 
L 840.799937 32.064819 
L 841.434466 32.064819 
L 841.434466 32.877282 
L 842.068995 32.877282 
L 842.068995 31.879613 
L 842.703524 31.879613 
L 842.703524 31.374265 
L 843.338054 31.374265 
L 843.338054 31.572849 
L 843.972583 31.572849 
L 843.972583 29.488281 
L 844.607112 29.488281 
L 844.607112 28.365928 
L 845.241641 28.365928 
L 845.241641 27.565079 
L 847.145228 27.547965 
L 847.145228 24.048641 
L 847.779757 24.048641 
L 847.779757 21.725217 
L 849.048816 21.746824 
L 849.048816 20.796664 
L 849.683345 20.796664 
L 849.683345 22.685022 
L 850.317874 22.685022 
L 850.317874 21.884658 
L 850.952403 21.884658 
L 850.952403 22.079553 
L 851.586932 22.079553 
L 851.586932 21.012167 
L 852.221461 21.012167 
L 852.221461 21.325157 
L 852.85599 21.325157 
L 852.85599 21.884584 
L 853.490519 21.884584 
L 853.490519 21.493343 
L 854.125049 21.493343 
L 854.125049 23.099357 
L 854.759578 23.099357 
L 854.759578 24.011828 
L 855.394107 24.011828 
L 855.394107 22.798403 
L 856.028636 22.798403 
L 856.028636 22.947844 
L 856.663165 22.947844 
L 856.663165 23.160402 
L 857.297694 23.160402 
L 857.297694 23.472434 
L 857.932223 23.472434 
L 857.932223 23.659715 
L 858.566752 23.659715 
L 858.566752 24.174104 
L 859.201282 24.174104 
L 859.201282 22.388239 
L 860.47034 22.379754 
L 860.47034 21.858521 
L 861.104869 21.858521 
L 861.104869 21.423319 
L 861.739398 21.423319 
L 861.739398 21.99944 
L 862.373927 21.99944 
L 862.373927 21.071661 
L 863.008456 21.071661 
L 863.008456 21.446263 
L 863.642985 21.446263 
L 863.642985 21.767335 
L 864.277515 21.767335 
L 864.277515 22.263327 
L 864.912044 22.263327 
L 864.912044 22.83683 
L 865.546573 22.83683 
L 865.546573 24.355475 
L 866.815631 24.342972 
L 866.815631 23.758717 
L 867.45016 23.758717 
L 867.45016 25.064652 
L 868.084689 25.064652 
L 868.084689 25.252486 
L 868.719218 25.252486 
L 868.719218 24.176719 
L 869.353747 24.176719 
L 869.353747 23.116029 
L 869.988277 23.116029 
L 869.988277 21.964737 
L 871.257335 21.866929 
L 871.257335 22.406874 
L 871.891864 22.406874 
L 871.891864 24.218453 
L 872.526393 24.218453 
L 872.526393 26.255367 
L 873.160922 26.255367 
L 873.160922 24.903494 
L 873.795451 24.903494 
L 873.795451 25.332007 
L 874.42998 25.332007 
L 874.42998 24.635529 
L 875.06451 24.635529 
L 875.06451 23.079058 
L 875.699039 23.079058 
L 875.699039 24.638718 
L 876.333568 24.638718 
L 876.333568 24.814164 
L 876.968097 24.814164 
L 876.968097 25.171813 
L 877.602626 25.171813 
L 877.602626 26.32232 
L 878.237155 26.32232 
L 878.237155 25.110812 
L 879.506213 25.089833 
L 879.506213 23.363909 
L 880.140743 23.363909 
L 880.140743 23.015013 
L 880.775272 23.015013 
L 880.775272 22.498985 
L 881.409801 22.498985 
L 881.409801 24.231253 
L 882.04433 24.231253 
L 882.04433 23.495787 
L 882.678859 23.495787 
L 882.678859 24.359041 
L 883.313388 24.359041 
L 883.313388 22.448358 
L 883.947917 22.448358 
L 883.947917 21.710413 
L 884.582446 21.710413 
L 884.582446 22.035564 
L 885.851505 22.144073 
L 885.851505 20.552727 
L 886.486034 20.552727 
L 886.486034 21.642917 
L 887.194182 21.642917 
L 887.194182 21.642917 
" clip-path="url(#pf3035a7a84)" style="fill: none; stroke: #3572c6; stroke-width: 1.2; stroke-linecap: square"/>
   </g>
   <g id="line2d_76">
    <path d="M 75.557818 20.552727 
L 887.194182 20.552727 
L 887.194182 20.552727 
" clip-path="url(#pf3035a7a84)" style="fill: none; stroke: #83a83b; stroke-width: 1.2; stroke-linecap: square"/>
   </g>
   <g id="line2d_77">
    <path d="M 75.557818 21.642917 
L 887.194182 21.642917 
L 887.194182 21.642917 
" clip-path="url(#pf3035a7a84)" style="fill: none; stroke: #c44e52; stroke-width: 1.2; stroke-linecap: square"/>
   </g>
   <g id="line2d_78">
    <path d="M 886.486034 300.96 
L 886.486034 7.2 
" clip-path="url(#pf3035a7a84)" style="fill: none; stroke: #83a83b; stroke-width: 1.2; stroke-linecap: square"/>
   </g>
   <g id="line2d_79">
    <path d="M 887.194182 300.96 
L 887.194182 7.2 
" clip-path="url(#pf3035a7a84)" style="fill: none; stroke: #c44e52; stroke-width: 1.2; stroke-linecap: square"/>
   </g>
   <g id="patch_3">
    <path d="M 34.976 300.96 
L 34.976 7.2 
" style="fill: none; stroke: #899ab8; stroke-width: 1.12; stroke-linejoin: miter; stroke-linecap: square"/>
   </g>
   <g id="patch_4">
    <path d="M 927.776 300.96 
L 927.776 7.2 
" style="fill: none; stroke: #899ab8; stroke-width: 1.12; stroke-linejoin: miter; stroke-linecap: square"/>
   </g>
   <g id="patch_5">
    <path d="M 34.976 300.96 
L 927.776 300.96 
" style="fill: none; stroke: #899ab8; stroke-width: 1.12; stroke-linejoin: miter; stroke-linecap: square"/>
   </g>
   <g id="patch_6">
    <path d="M 34.976 7.2 
L 927.776 7.2 
" style="fill: none; stroke: #899ab8; stroke-width: 1.12; stroke-linejoin: miter; stroke-linecap: square"/>
   </g>
   <g id="text_15">
    <!-- 72329.87 -->
    <g style="fill: #83a83b" transform="translate(191.359383 20.552727) scale(0.132 -0.132)">
     <defs>
      <path id="DejaVuSans-37" d="M 525 4666 
L 3525 4666 
L 3525 4397 
L 1831 0 
L 1172 0 
L 2766 4134 
L 525 4134 
L 525 4666 
z
" transform="scale(0.015625)"/>
      <path id="DejaVuSans-39" d="M 703 97 
L 703 672 
Q 941 559 1184 500 
Q 1428 441 1663 441 
Q 2288 441 2617 861 
Q 2947 1281 2994 2138 
Q 2813 1869 2534 1725 
Q 2256 1581 1919 1581 
Q 1219 1581 811 2004 
Q 403 2428 403 3163 
Q 403 3881 828 4315 
Q 1253 4750 1959 4750 
Q 2769 4750 3195 4129 
Q 3622 3509 3622 2328 
Q 3622 1225 3098 567 
Q 2575 -91 1691 -91 
Q 1453 -91 1209 -44 
Q 966 3 703 97 
z
M 1959 2075 
Q 2384 2075 2632 2365 
Q 2881 2656 2881 3163 
Q 2881 3666 2632 3958 
Q 2384 4250 1959 4250 
Q 1534 4250 1286 3958 
Q 1038 3666 1038 3163 
Q 1038 2656 1286 2365 
Q 1534 2075 1959 2075 
z
" transform="scale(0.015625)"/>
      <path id="DejaVuSans-2e" d="M 684 794 
L 1344 794 
L 1344 0 
L 684 0 
L 684 794 
z
" transform="scale(0.015625)"/>
     </defs>
     <use xlink:href="#DejaVuSans-37"/>
     <use xlink:href="#DejaVuSans-32" x="63.623047"/>
     <use xlink:href="#DejaVuSans-33" x="127.246094"/>
     <use xlink:href="#DejaVuSans-32" x="190.869141"/>
     <use xlink:href="#DejaVuSans-39" x="254.492188"/>
     <use xlink:href="#DejaVuSans-2e" x="318.115234"/>
     <use xlink:href="#DejaVuSans-38" x="349.902344"/>
     <use xlink:href="#DejaVuSans-37" x="413.525391"/>
    </g>
   </g>
   <g id="text_16">
    <!-- 68647.897 -->
    <g style="fill: #c44e52" transform="translate(191.359383 21.642917) scale(0.132 -0.132)">
     <use xlink:href="#DejaVuSans-36"/>
     <use xlink:href="#DejaVuSans-38" x="63.623047"/>
     <use xlink:href="#DejaVuSans-36" x="127.246094"/>
     <use xlink:href="#DejaVuSans-34" x="190.869141"/>
     <use xlink:href="#DejaVuSans-37" x="254.492188"/>
     <use xlink:href="#DejaVuSans-2e" x="318.115234"/>
     <use xlink:href="#DejaVuSans-38" x="349.902344"/>
     <use xlink:href="#DejaVuSans-39" x="413.525391"/>
     <use xlink:href="#DejaVuSans-37" x="477.148438"/>
    </g>
   </g>
   <g id="legend_1">
    <g id="patch_7">
     <path d="M 432.207453 294.66 
L 530.544547 294.66 
Q 533.064547 294.66 533.064547 292.14 
L 533.064547 237.56625 
Q 533.064547 235.04625 530.544547 235.04625 
L 432.207453 235.04625 
Q 429.687453 235.04625 429.687453 237.56625 
L 429.687453 292.14 
Q 429.687453 294.66 432.207453 294.66 
z
" style="fill: #373e4b; opacity: 0.8; stroke: #cccccc; stroke-width: 0.16; stroke-linejoin: miter"/>
    </g>
    <g id="line2d_80">
     <path d="M 434.727453 245.250281 
L 434.727453 245.250281 
L 447.327453 245.250281 
L 447.327453 245.250281 
L 459.927453 245.250281 
" style="fill: none; stroke: #3572c6; stroke-width: 1.2; stroke-linecap: square"/>
    </g>
    <g id="text_17">
     <!-- USD/BTC -->
     <g style="fill: #b1bed6" transform="translate(470.007453 249.660281) scale(0.126 -0.126)">
      <defs>
       <path id="DejaVuSans-55" d="M 556 4666 
L 1191 4666 
L 1191 1831 
Q 1191 1081 1462 751 
Q 1734 422 2344 422 
Q 2950 422 3222 751 
Q 3494 1081 3494 1831 
L 3494 4666 
L 4128 4666 
L 4128 1753 
Q 4128 841 3676 375 
Q 3225 -91 2344 -91 
Q 1459 -91 1007 375 
Q 556 841 556 1753 
L 556 4666 
z
" transform="scale(0.015625)"/>
       <path id="DejaVuSans-53" d="M 3425 4513 
L 3425 3897 
Q 3066 4069 2747 4153 
Q 2428 4238 2131 4238 
Q 1616 4238 1336 4038 
Q 1056 3838 1056 3469 
Q 1056 3159 1242 3001 
Q 1428 2844 1947 2747 
L 2328 2669 
Q 3034 2534 3370 2195 
Q 3706 1856 3706 1288 
Q 3706 609 3251 259 
Q 2797 -91 1919 -91 
Q 1588 -91 1214 -16 
Q 841 59 441 206 
L 441 856 
Q 825 641 1194 531 
Q 1563 422 1919 422 
Q 2459 422 2753 634 
Q 3047 847 3047 1241 
Q 3047 1584 2836 1778 
Q 2625 1972 2144 2069 
L 1759 2144 
Q 1053 2284 737 2584 
Q 422 2884 422 3419 
Q 422 4038 858 4394 
Q 1294 4750 2059 4750 
Q 2388 4750 2728 4690 
Q 3069 4631 3425 4513 
z
" transform="scale(0.015625)"/>
       <path id="DejaVuSans-2f" d="M 1625 4666 
L 2156 4666 
L 531 -594 
L 0 -594 
L 1625 4666 
z
" transform="scale(0.015625)"/>
       <path id="DejaVuSans-42" d="M 1259 2228 
L 1259 519 
L 2272 519 
Q 2781 519 3026 730 
Q 3272 941 3272 1375 
Q 3272 1813 3026 2020 
Q 2781 2228 2272 2228 
L 1259 2228 
z
M 1259 4147 
L 1259 2741 
L 2194 2741 
Q 2656 2741 2882 2914 
Q 3109 3088 3109 3444 
Q 3109 3797 2882 3972 
Q 2656 4147 2194 4147 
L 1259 4147 
z
M 628 4666 
L 2241 4666 
Q 2963 4666 3353 4366 
Q 3744 4066 3744 3513 
Q 3744 3084 3544 2831 
Q 3344 2578 2956 2516 
Q 3422 2416 3680 2098 
Q 3938 1781 3938 1306 
Q 3938 681 3513 340 
Q 3088 0 2303 0 
L 628 0 
L 628 4666 
z
" transform="scale(0.015625)"/>
       <path id="DejaVuSans-54" d="M -19 4666 
L 3928 4666 
L 3928 4134 
L 2272 4134 
L 2272 0 
L 1638 0 
L 1638 4134 
L -19 4134 
L -19 4666 
z
" transform="scale(0.015625)"/>
       <path id="DejaVuSans-43" d="M 4122 4306 
L 4122 3641 
Q 3803 3938 3442 4084 
Q 3081 4231 2675 4231 
Q 1875 4231 1450 3742 
Q 1025 3253 1025 2328 
Q 1025 1406 1450 917 
Q 1875 428 2675 428 
Q 3081 428 3442 575 
Q 3803 722 4122 1019 
L 4122 359 
Q 3791 134 3420 21 
Q 3050 -91 2638 -91 
Q 1578 -91 968 557 
Q 359 1206 359 2328 
Q 359 3453 968 4101 
Q 1578 4750 2638 4750 
Q 3056 4750 3426 4639 
Q 3797 4528 4122 4306 
z
" transform="scale(0.015625)"/>
      </defs>
      <use xlink:href="#DejaVuSans-55"/>
      <use xlink:href="#DejaVuSans-53" x="73.193359"/>
      <use xlink:href="#DejaVuSans-44" x="136.669922"/>
      <use xlink:href="#DejaVuSans-2f" x="213.671875"/>
      <use xlink:href="#DejaVuSans-42" x="247.363281"/>
      <use xlink:href="#DejaVuSans-54" x="315.966797"/>
      <use xlink:href="#DejaVuSans-43" x="371.175781"/>
     </g>
    </g>
    <g id="line2d_81">
     <path d="M 434.727453 263.744719 
L 434.727453 263.744719 
L 447.327453 263.744719 
L 447.327453 263.744719 
L 459.927453 263.744719 
" style="fill: none; stroke: #83a83b; stroke-width: 1.2; stroke-linecap: square"/>
    </g>
    <g id="text_18">
     <!-- Max -->
     <g style="fill: #b1bed6" transform="translate(470.007453 268.154719) scale(0.126 -0.126)">
      <defs>
       <path id="DejaVuSans-4d" d="M 628 4666 
L 1569 4666 
L 2759 1491 
L 3956 4666 
L 4897 4666 
L 4897 0 
L 4281 0 
L 4281 4097 
L 3078 897 
L 2444 897 
L 1241 4097 
L 1241 0 
L 628 0 
L 628 4666 
z
" transform="scale(0.015625)"/>
       <path id="DejaVuSans-78" d="M 3513 3500 
L 2247 1797 
L 3578 0 
L 2900 0 
L 1881 1375 
L 863 0 
L 184 0 
L 1544 1831 
L 300 3500 
L 978 3500 
L 1906 2253 
L 2834 3500 
L 3513 3500 
z
" transform="scale(0.015625)"/>
      </defs>
      <use xlink:href="#DejaVuSans-4d"/>
      <use xlink:href="#DejaVuSans-61" x="86.279297"/>
      <use xlink:href="#DejaVuSans-78" x="147.558594"/>
     </g>
    </g>
    <g id="line2d_82">
     <path d="M 434.727453 282.239156 
L 434.727453 282.239156 
L 447.327453 282.239156 
L 447.327453 282.239156 
L 459.927453 282.239156 
" style="fill: none; stroke: #c44e52; stroke-width: 1.2; stroke-linecap: square"/>
    </g>
    <g id="text_19">
     <!-- local_Min -->
     <g style="fill: #b1bed6" transform="translate(470.007453 286.649156) scale(0.126 -0.126)">
      <defs>
       <path id="DejaVuSans-6c" d="M 603 4863 
L 1178 4863 
L 1178 0 
L 603 0 
L 603 4863 
z
" transform="scale(0.015625)"/>
       <path id="DejaVuSans-6f" d="M 1959 3097 
Q 1497 3097 1228 2736 
Q 959 2375 959 1747 
Q 959 1119 1226 758 
Q 1494 397 1959 397 
Q 2419 397 2687 759 
Q 2956 1122 2956 1747 
Q 2956 2369 2687 2733 
Q 2419 3097 1959 3097 
z
M 1959 3584 
Q 2709 3584 3137 3096 
Q 3566 2609 3566 1747 
Q 3566 888 3137 398 
Q 2709 -91 1959 -91 
Q 1206 -91 779 398 
Q 353 888 353 1747 
Q 353 2609 779 3096 
Q 1206 3584 1959 3584 
z
" transform="scale(0.015625)"/>
       <path id="DejaVuSans-63" d="M 3122 3366 
L 3122 2828 
Q 2878 2963 2633 3030 
Q 2388 3097 2138 3097 
Q 1578 3097 1268 2742 
Q 959 2388 959 1747 
Q 959 1106 1268 751 
Q 1578 397 2138 397 
Q 2388 397 2633 464 
Q 2878 531 3122 666 
L 3122 134 
Q 2881 22 2623 -34 
Q 2366 -91 2075 -91 
Q 1284 -91 818 406 
Q 353 903 353 1747 
Q 353 2603 823 3093 
Q 1294 3584 2113 3584 
Q 2378 3584 2631 3529 
Q 2884 3475 3122 3366 
z
" transform="scale(0.015625)"/>
       <path id="DejaVuSans-5f" d="M 3263 -1063 
L 3263 -1509 
L -63 -1509 
L -63 -1063 
L 3263 -1063 
z
" transform="scale(0.015625)"/>
       <path id="DejaVuSans-69" d="M 603 3500 
L 1178 3500 
L 1178 0 
L 603 0 
L 603 3500 
z
M 603 4863 
L 1178 4863 
L 1178 4134 
L 603 4134 
L 603 4863 
z
" transform="scale(0.015625)"/>
       <path id="DejaVuSans-6e" d="M 3513 2113 
L 3513 0 
L 2938 0 
L 2938 2094 
Q 2938 2591 2744 2837 
Q 2550 3084 2163 3084 
Q 1697 3084 1428 2787 
Q 1159 2491 1159 1978 
L 1159 0 
L 581 0 
L 581 3500 
L 1159 3500 
L 1159 2956 
Q 1366 3272 1645 3428 
Q 1925 3584 2291 3584 
Q 2894 3584 3203 3211 
Q 3513 2838 3513 2113 
z
" transform="scale(0.015625)"/>
      </defs>
      <use xlink:href="#DejaVuSans-6c"/>
      <use xlink:href="#DejaVuSans-6f" x="27.783203"/>
      <use xlink:href="#DejaVuSans-63" x="88.964844"/>
      <use xlink:href="#DejaVuSans-61" x="143.945312"/>
      <use xlink:href="#DejaVuSans-6c" x="205.224609"/>
      <use xlink:href="#DejaVuSans-5f" x="233.007812"/>
      <use xlink:href="#DejaVuSans-4d" x="283.007812"/>
      <use xlink:href="#DejaVuSans-69" x="369.287109"/>
      <use xlink:href="#DejaVuSans-6e" x="397.070312"/>
     </g>
    </g>
   </g>
  </g>
 </g>
 <defs>
  <clipPath id="pf3035a7a84">
   <rect x="34.976" y="7.2" width="892.8" height="293.76"/>
  </clipPath>
 </defs>
</svg>
