<?xml version="1.0" encoding="utf-8" standalone="no"?>
<!DOCTYPE svg PUBLIC "-//W3C//DTD SVG 1.1//EN"
  "http://www.w3.org/Graphics/SVG/1.1/DTD/svg11.dtd">
<svg xmlns:xlink="http://www.w3.org/1999/xlink" width="952.88375pt" height="358.290693pt" viewBox="0 0 952.88375 358.290693" xmlns="http://www.w3.org/2000/svg" version="1.1">
 <metadata>
  <rdf:RDF xmlns:dc="http://purl.org/dc/elements/1.1/" xmlns:cc="http://creativecommons.org/ns#" xmlns:rdf="http://www.w3.org/1999/02/22-rdf-syntax-ns#">
   <cc:Work>
    <dc:type rdf:resource="http://purl.org/dc/dcmitype/StillImage"/>
    <dc:date>2024-02-08T05:59:46.294871</dc:date>
    <dc:format>image/svg+xml</dc:format>
    <dc:creator>
     <cc:Agent>
      <dc:title>Matplotlib v3.8.2, https://matplotlib.org/</dc:title>
     </cc:Agent>
    </dc:creator>
   </cc:Work>
  </rdf:RDF>
 </metadata>
 <defs>
  <style type="text/css">*{stroke-linejoin: round; stroke-linecap: butt}</style>
 </defs>
 <g id="figure_1">
  <g id="patch_1">
   <path d="M 0 358.290693 
L 952.88375 358.290693 
L 952.88375 0 
L 0 0 
z
" style="fill: #373e4b"/>
  </g>
  <g id="axes_1">
   <g id="patch_2">
    <path d="M 52.88375 300.96 
L 945.68375 300.96 
L 945.68375 7.2 
L 52.88375 7.2 
z
" style="fill: #373e4b"/>
   </g>
   <g id="matplotlib.axis_1">
    <g id="xtick_1">
     <g id="line2d_1">
      <path d="M 99.60817 300.96 
L 99.60817 7.2 
" clip-path="url(#p408025f04b)" style="fill: none; stroke: #546379; stroke-width: 1.12; stroke-linecap: square"/>
     </g>
     <g id="line2d_2"/>
     <g id="text_1">
      <!-- 2018 -->
      <g style="fill: #b1bed6" transform="translate(70.527131 330.884854) rotate(-30) scale(0.126 -0.126)">
       <defs>
        <path id="DejaVuSans-32" d="M 1228 531 
L 3431 531 
L 3431 0 
L 469 0 
L 469 531 
Q 828 903 1448 1529 
Q 2069 2156 2228 2338 
Q 2531 2678 2651 2914 
Q 2772 3150 2772 3378 
Q 2772 3750 2511 3984 
Q 2250 4219 1831 4219 
Q 1534 4219 1204 4116 
Q 875 4013 500 3803 
L 500 4441 
Q 881 4594 1212 4672 
Q 1544 4750 1819 4750 
Q 2544 4750 2975 4387 
Q 3406 4025 3406 3419 
Q 3406 3131 3298 2873 
Q 3191 2616 2906 2266 
Q 2828 2175 2409 1742 
Q 1991 1309 1228 531 
z
" transform="scale(0.015625)"/>
        <path id="DejaVuSans-30" d="M 2034 4250 
Q 1547 4250 1301 3770 
Q 1056 3291 1056 2328 
Q 1056 1369 1301 889 
Q 1547 409 2034 409 
Q 2525 409 2770 889 
Q 3016 1369 3016 2328 
Q 3016 3291 2770 3770 
Q 2525 4250 2034 4250 
z
M 2034 4750 
Q 2819 4750 3233 4129 
Q 3647 3509 3647 2328 
Q 3647 1150 3233 529 
Q 2819 -91 2034 -91 
Q 1250 -91 836 529 
Q 422 1150 422 2328 
Q 422 3509 836 4129 
Q 1250 4750 2034 4750 
z
" transform="scale(0.015625)"/>
        <path id="DejaVuSans-31" d="M 794 531 
L 1825 531 
L 1825 4091 
L 703 3866 
L 703 4441 
L 1819 4666 
L 2450 4666 
L 2450 531 
L 3481 531 
L 3481 0 
L 794 0 
L 794 531 
z
" transform="scale(0.015625)"/>
        <path id="DejaVuSans-38" d="M 2034 2216 
Q 1584 2216 1326 1975 
Q 1069 1734 1069 1313 
Q 1069 891 1326 650 
Q 1584 409 2034 409 
Q 2484 409 2743 651 
Q 3003 894 3003 1313 
Q 3003 1734 2745 1975 
Q 2488 2216 2034 2216 
z
M 1403 2484 
Q 997 2584 770 2862 
Q 544 3141 544 3541 
Q 544 4100 942 4425 
Q 1341 4750 2034 4750 
Q 2731 4750 3128 4425 
Q 3525 4100 3525 3541 
Q 3525 3141 3298 2862 
Q 3072 2584 2669 2484 
Q 3125 2378 3379 2068 
Q 3634 1759 3634 1313 
Q 3634 634 3220 271 
Q 2806 -91 2034 -91 
Q 1263 -91 848 271 
Q 434 634 434 1313 
Q 434 1759 690 2068 
Q 947 2378 1403 2484 
z
M 1172 3481 
Q 1172 3119 1398 2916 
Q 1625 2713 2034 2713 
Q 2441 2713 2670 2916 
Q 2900 3119 2900 3481 
Q 2900 3844 2670 4047 
Q 2441 4250 2034 4250 
Q 1625 4250 1398 4047 
Q 1172 3844 1172 3481 
z
" transform="scale(0.015625)"/>
       </defs>
       <use xlink:href="#DejaVuSans-32"/>
       <use xlink:href="#DejaVuSans-30" x="63.623047"/>
       <use xlink:href="#DejaVuSans-31" x="127.246094"/>
       <use xlink:href="#DejaVuSans-38" x="190.869141"/>
      </g>
     </g>
    </g>
    <g id="xtick_2">
     <g id="line2d_3">
      <path d="M 231.493451 300.96 
L 231.493451 7.2 
" clip-path="url(#p408025f04b)" style="fill: none; stroke: #546379; stroke-width: 1.12; stroke-linecap: square"/>
     </g>
     <g id="line2d_4"/>
     <g id="text_2">
      <!-- 2019 -->
      <g style="fill: #b1bed6" transform="translate(202.412412 330.884854) rotate(-30) scale(0.126 -0.126)">
       <defs>
        <path id="DejaVuSans-39" d="M 703 97 
L 703 672 
Q 941 559 1184 500 
Q 1428 441 1663 441 
Q 2288 441 2617 861 
Q 2947 1281 2994 2138 
Q 2813 1869 2534 1725 
Q 2256 1581 1919 1581 
Q 1219 1581 811 2004 
Q 403 2428 403 3163 
Q 403 3881 828 4315 
Q 1253 4750 1959 4750 
Q 2769 4750 3195 4129 
Q 3622 3509 3622 2328 
Q 3622 1225 3098 567 
Q 2575 -91 1691 -91 
Q 1453 -91 1209 -44 
Q 966 3 703 97 
z
M 1959 2075 
Q 2384 2075 2632 2365 
Q 2881 2656 2881 3163 
Q 2881 3666 2632 3958 
Q 2384 4250 1959 4250 
Q 1534 4250 1286 3958 
Q 1038 3666 1038 3163 
Q 1038 2656 1286 2365 
Q 1534 2075 1959 2075 
z
" transform="scale(0.015625)"/>
       </defs>
       <use xlink:href="#DejaVuSans-32"/>
       <use xlink:href="#DejaVuSans-30" x="63.623047"/>
       <use xlink:href="#DejaVuSans-31" x="127.246094"/>
       <use xlink:href="#DejaVuSans-39" x="190.869141"/>
      </g>
     </g>
    </g>
    <g id="xtick_3">
     <g id="line2d_5">
      <path d="M 363.378732 300.96 
L 363.378732 7.2 
" clip-path="url(#p408025f04b)" style="fill: none; stroke: #546379; stroke-width: 1.12; stroke-linecap: square"/>
     </g>
     <g id="line2d_6"/>
     <g id="text_3">
      <!-- 2020 -->
      <g style="fill: #b1bed6" transform="translate(334.297693 330.884854) rotate(-30) scale(0.126 -0.126)">
       <use xlink:href="#DejaVuSans-32"/>
       <use xlink:href="#DejaVuSans-30" x="63.623047"/>
       <use xlink:href="#DejaVuSans-32" x="127.246094"/>
       <use xlink:href="#DejaVuSans-30" x="190.869141"/>
      </g>
     </g>
    </g>
    <g id="xtick_4">
     <g id="line2d_7">
      <path d="M 495.625343 300.96 
L 495.625343 7.2 
" clip-path="url(#p408025f04b)" style="fill: none; stroke: #546379; stroke-width: 1.12; stroke-linecap: square"/>
     </g>
     <g id="line2d_8"/>
     <g id="text_4">
      <!-- 2021 -->
      <g style="fill: #b1bed6" transform="translate(466.544303 330.884854) rotate(-30) scale(0.126 -0.126)">
       <use xlink:href="#DejaVuSans-32"/>
       <use xlink:href="#DejaVuSans-30" x="63.623047"/>
       <use xlink:href="#DejaVuSans-32" x="127.246094"/>
       <use xlink:href="#DejaVuSans-31" x="190.869141"/>
      </g>
     </g>
    </g>
    <g id="xtick_5">
     <g id="line2d_9">
      <path d="M 627.510624 300.96 
L 627.510624 7.2 
" clip-path="url(#p408025f04b)" style="fill: none; stroke: #546379; stroke-width: 1.12; stroke-linecap: square"/>
     </g>
     <g id="line2d_10"/>
     <g id="text_5">
      <!-- 2022 -->
      <g style="fill: #b1bed6" transform="translate(598.429584 330.884854) rotate(-30) scale(0.126 -0.126)">
       <use xlink:href="#DejaVuSans-32"/>
       <use xlink:href="#DejaVuSans-30" x="63.623047"/>
       <use xlink:href="#DejaVuSans-32" x="127.246094"/>
       <use xlink:href="#DejaVuSans-32" x="190.869141"/>
      </g>
     </g>
    </g>
    <g id="xtick_6">
     <g id="line2d_11">
      <path d="M 759.395905 300.96 
L 759.395905 7.2 
" clip-path="url(#p408025f04b)" style="fill: none; stroke: #546379; stroke-width: 1.12; stroke-linecap: square"/>
     </g>
     <g id="line2d_12"/>
     <g id="text_6">
      <!-- 2023 -->
      <g style="fill: #b1bed6" transform="translate(730.314865 330.884854) rotate(-30) scale(0.126 -0.126)">
       <defs>
        <path id="DejaVuSans-33" d="M 2597 2516 
Q 3050 2419 3304 2112 
Q 3559 1806 3559 1356 
Q 3559 666 3084 287 
Q 2609 -91 1734 -91 
Q 1441 -91 1130 -33 
Q 819 25 488 141 
L 488 750 
Q 750 597 1062 519 
Q 1375 441 1716 441 
Q 2309 441 2620 675 
Q 2931 909 2931 1356 
Q 2931 1769 2642 2001 
Q 2353 2234 1838 2234 
L 1294 2234 
L 1294 2753 
L 1863 2753 
Q 2328 2753 2575 2939 
Q 2822 3125 2822 3475 
Q 2822 3834 2567 4026 
Q 2313 4219 1838 4219 
Q 1578 4219 1281 4162 
Q 984 4106 628 3988 
L 628 4550 
Q 988 4650 1302 4700 
Q 1616 4750 1894 4750 
Q 2613 4750 3031 4423 
Q 3450 4097 3450 3541 
Q 3450 3153 3228 2886 
Q 3006 2619 2597 2516 
z
" transform="scale(0.015625)"/>
       </defs>
       <use xlink:href="#DejaVuSans-32"/>
       <use xlink:href="#DejaVuSans-30" x="63.623047"/>
       <use xlink:href="#DejaVuSans-32" x="127.246094"/>
       <use xlink:href="#DejaVuSans-33" x="190.869141"/>
      </g>
     </g>
    </g>
    <g id="xtick_7">
     <g id="line2d_13">
      <path d="M 891.281186 300.96 
L 891.281186 7.2 
" clip-path="url(#p408025f04b)" style="fill: none; stroke: #546379; stroke-width: 1.12; stroke-linecap: square"/>
     </g>
     <g id="line2d_14"/>
     <g id="text_7">
      <!-- 2024 -->
      <g style="fill: #b1bed6" transform="translate(862.200146 330.884854) rotate(-30) scale(0.126 -0.126)">
       <defs>
        <path id="DejaVuSans-34" d="M 2419 4116 
L 825 1625 
L 2419 1625 
L 2419 4116 
z
M 2253 4666 
L 3047 4666 
L 3047 1625 
L 3713 1625 
L 3713 1100 
L 3047 1100 
L 3047 0 
L 2419 0 
L 2419 1100 
L 313 1100 
L 313 1709 
L 2253 4666 
z
" transform="scale(0.015625)"/>
       </defs>
       <use xlink:href="#DejaVuSans-32"/>
       <use xlink:href="#DejaVuSans-30" x="63.623047"/>
       <use xlink:href="#DejaVuSans-32" x="127.246094"/>
       <use xlink:href="#DejaVuSans-34" x="190.869141"/>
      </g>
     </g>
    </g>
    <g id="text_8">
     <!-- Date -->
     <g style="fill: #b1bed6" transform="translate(482.074625 348.095943) scale(0.144 -0.144)">
      <defs>
       <path id="DejaVuSans-44" d="M 1259 4147 
L 1259 519 
L 2022 519 
Q 2988 519 3436 956 
Q 3884 1394 3884 2338 
Q 3884 3275 3436 3711 
Q 2988 4147 2022 4147 
L 1259 4147 
z
M 628 4666 
L 1925 4666 
Q 3281 4666 3915 4102 
Q 4550 3538 4550 2338 
Q 4550 1131 3912 565 
Q 3275 0 1925 0 
L 628 0 
L 628 4666 
z
" transform="scale(0.015625)"/>
       <path id="DejaVuSans-61" d="M 2194 1759 
Q 1497 1759 1228 1600 
Q 959 1441 959 1056 
Q 959 750 1161 570 
Q 1363 391 1709 391 
Q 2188 391 2477 730 
Q 2766 1069 2766 1631 
L 2766 1759 
L 2194 1759 
z
M 3341 1997 
L 3341 0 
L 2766 0 
L 2766 531 
Q 2569 213 2275 61 
Q 1981 -91 1556 -91 
Q 1019 -91 701 211 
Q 384 513 384 1019 
Q 384 1609 779 1909 
Q 1175 2209 1959 2209 
L 2766 2209 
L 2766 2266 
Q 2766 2663 2505 2880 
Q 2244 3097 1772 3097 
Q 1472 3097 1187 3025 
Q 903 2953 641 2809 
L 641 3341 
Q 956 3463 1253 3523 
Q 1550 3584 1831 3584 
Q 2591 3584 2966 3190 
Q 3341 2797 3341 1997 
z
" transform="scale(0.015625)"/>
       <path id="DejaVuSans-74" d="M 1172 4494 
L 1172 3500 
L 2356 3500 
L 2356 3053 
L 1172 3053 
L 1172 1153 
Q 1172 725 1289 603 
Q 1406 481 1766 481 
L 2356 481 
L 2356 0 
L 1766 0 
Q 1100 0 847 248 
Q 594 497 594 1153 
L 594 3053 
L 172 3053 
L 172 3500 
L 594 3500 
L 594 4494 
L 1172 4494 
z
" transform="scale(0.015625)"/>
       <path id="DejaVuSans-65" d="M 3597 1894 
L 3597 1613 
L 953 1613 
Q 991 1019 1311 708 
Q 1631 397 2203 397 
Q 2534 397 2845 478 
Q 3156 559 3463 722 
L 3463 178 
Q 3153 47 2828 -22 
Q 2503 -91 2169 -91 
Q 1331 -91 842 396 
Q 353 884 353 1716 
Q 353 2575 817 3079 
Q 1281 3584 2069 3584 
Q 2775 3584 3186 3129 
Q 3597 2675 3597 1894 
z
M 3022 2063 
Q 3016 2534 2758 2815 
Q 2500 3097 2075 3097 
Q 1594 3097 1305 2825 
Q 1016 2553 972 2059 
L 3022 2063 
z
" transform="scale(0.015625)"/>
      </defs>
      <use xlink:href="#DejaVuSans-44"/>
      <use xlink:href="#DejaVuSans-61" x="77.001953"/>
      <use xlink:href="#DejaVuSans-74" x="138.28125"/>
      <use xlink:href="#DejaVuSans-65" x="177.490234"/>
     </g>
    </g>
   </g>
   <g id="matplotlib.axis_2">
    <g id="ytick_1">
     <g id="line2d_15">
      <path d="M 52.88375 258.56324 
L 945.68375 258.56324 
" clip-path="url(#p408025f04b)" style="fill: none; stroke: #546379; stroke-width: 1.12; stroke-linecap: square"/>
     </g>
     <g id="line2d_16"/>
     <g id="text_9">
      <!-- 10000 -->
      <g style="fill: #b1bed6" transform="translate(7.2 263.350256) scale(0.126 -0.126)">
       <use xlink:href="#DejaVuSans-31"/>
       <use xlink:href="#DejaVuSans-30" x="63.623047"/>
       <use xlink:href="#DejaVuSans-30" x="127.246094"/>
       <use xlink:href="#DejaVuSans-30" x="190.869141"/>
       <use xlink:href="#DejaVuSans-30" x="254.492188"/>
      </g>
     </g>
    </g>
    <g id="ytick_2">
     <g id="line2d_17">
      <path d="M 52.88375 215.161403 
L 945.68375 215.161403 
" clip-path="url(#p408025f04b)" style="fill: none; stroke: #546379; stroke-width: 1.12; stroke-linecap: square"/>
     </g>
     <g id="line2d_18"/>
     <g id="text_10">
      <!-- 20000 -->
      <g style="fill: #b1bed6" transform="translate(7.2 219.948418) scale(0.126 -0.126)">
       <use xlink:href="#DejaVuSans-32"/>
       <use xlink:href="#DejaVuSans-30" x="63.623047"/>
       <use xlink:href="#DejaVuSans-30" x="127.246094"/>
       <use xlink:href="#DejaVuSans-30" x="190.869141"/>
       <use xlink:href="#DejaVuSans-30" x="254.492188"/>
      </g>
     </g>
    </g>
    <g id="ytick_3">
     <g id="line2d_19">
      <path d="M 52.88375 171.759565 
L 945.68375 171.759565 
" clip-path="url(#p408025f04b)" style="fill: none; stroke: #546379; stroke-width: 1.12; stroke-linecap: square"/>
     </g>
     <g id="line2d_20"/>
     <g id="text_11">
      <!-- 30000 -->
      <g style="fill: #b1bed6" transform="translate(7.2 176.546581) scale(0.126 -0.126)">
       <use xlink:href="#DejaVuSans-33"/>
       <use xlink:href="#DejaVuSans-30" x="63.623047"/>
       <use xlink:href="#DejaVuSans-30" x="127.246094"/>
       <use xlink:href="#DejaVuSans-30" x="190.869141"/>
       <use xlink:href="#DejaVuSans-30" x="254.492188"/>
      </g>
     </g>
    </g>
    <g id="ytick_4">
     <g id="line2d_21">
      <path d="M 52.88375 128.357727 
L 945.68375 128.357727 
" clip-path="url(#p408025f04b)" style="fill: none; stroke: #546379; stroke-width: 1.12; stroke-linecap: square"/>
     </g>
     <g id="line2d_22"/>
     <g id="text_12">
      <!-- 40000 -->
      <g style="fill: #b1bed6" transform="translate(7.2 133.144743) scale(0.126 -0.126)">
       <use xlink:href="#DejaVuSans-34"/>
       <use xlink:href="#DejaVuSans-30" x="63.623047"/>
       <use xlink:href="#DejaVuSans-30" x="127.246094"/>
       <use xlink:href="#DejaVuSans-30" x="190.869141"/>
       <use xlink:href="#DejaVuSans-30" x="254.492188"/>
      </g>
     </g>
    </g>
    <g id="ytick_5">
     <g id="line2d_23">
      <path d="M 52.88375 84.95589 
L 945.68375 84.95589 
" clip-path="url(#p408025f04b)" style="fill: none; stroke: #546379; stroke-width: 1.12; stroke-linecap: square"/>
     </g>
     <g id="line2d_24"/>
     <g id="text_13">
      <!-- 50000 -->
      <g style="fill: #b1bed6" transform="translate(7.2 89.742905) scale(0.126 -0.126)">
       <defs>
        <path id="DejaVuSans-35" d="M 691 4666 
L 3169 4666 
L 3169 4134 
L 1269 4134 
L 1269 2991 
Q 1406 3038 1543 3061 
Q 1681 3084 1819 3084 
Q 2600 3084 3056 2656 
Q 3513 2228 3513 1497 
Q 3513 744 3044 326 
Q 2575 -91 1722 -91 
Q 1428 -91 1123 -41 
Q 819 9 494 109 
L 494 744 
Q 775 591 1075 516 
Q 1375 441 1709 441 
Q 2250 441 2565 725 
Q 2881 1009 2881 1497 
Q 2881 1984 2565 2268 
Q 2250 2553 1709 2553 
Q 1456 2553 1204 2497 
Q 953 2441 691 2322 
L 691 4666 
z
" transform="scale(0.015625)"/>
       </defs>
       <use xlink:href="#DejaVuSans-35"/>
       <use xlink:href="#DejaVuSans-30" x="63.623047"/>
       <use xlink:href="#DejaVuSans-30" x="127.246094"/>
       <use xlink:href="#DejaVuSans-30" x="190.869141"/>
       <use xlink:href="#DejaVuSans-30" x="254.492188"/>
      </g>
     </g>
    </g>
    <g id="ytick_6">
     <g id="line2d_25">
      <path d="M 52.88375 41.554052 
L 945.68375 41.554052 
" clip-path="url(#p408025f04b)" style="fill: none; stroke: #546379; stroke-width: 1.12; stroke-linecap: square"/>
     </g>
     <g id="line2d_26"/>
     <g id="text_14">
      <!-- 60000 -->
      <g style="fill: #b1bed6" transform="translate(7.2 46.341068) scale(0.126 -0.126)">
       <defs>
        <path id="DejaVuSans-36" d="M 2113 2584 
Q 1688 2584 1439 2293 
Q 1191 2003 1191 1497 
Q 1191 994 1439 701 
Q 1688 409 2113 409 
Q 2538 409 2786 701 
Q 3034 994 3034 1497 
Q 3034 2003 2786 2293 
Q 2538 2584 2113 2584 
z
M 3366 4563 
L 3366 3988 
Q 3128 4100 2886 4159 
Q 2644 4219 2406 4219 
Q 1781 4219 1451 3797 
Q 1122 3375 1075 2522 
Q 1259 2794 1537 2939 
Q 1816 3084 2150 3084 
Q 2853 3084 3261 2657 
Q 3669 2231 3669 1497 
Q 3669 778 3244 343 
Q 2819 -91 2113 -91 
Q 1303 -91 875 529 
Q 447 1150 447 2328 
Q 447 3434 972 4092 
Q 1497 4750 2381 4750 
Q 2619 4750 2861 4703 
Q 3103 4656 3366 4563 
z
" transform="scale(0.015625)"/>
       </defs>
       <use xlink:href="#DejaVuSans-36"/>
       <use xlink:href="#DejaVuSans-30" x="63.623047"/>
       <use xlink:href="#DejaVuSans-30" x="127.246094"/>
       <use xlink:href="#DejaVuSans-30" x="190.869141"/>
       <use xlink:href="#DejaVuSans-30" x="254.492188"/>
      </g>
     </g>
    </g>
   </g>
   <g id="line2d_27">
    <path d="M 93.465568 230.750692 
L 93.465568 219.884434 
L 94.910886 219.884434 
L 94.910886 242.172059 
L 96.356204 242.172059 
L 96.356204 233.91972 
L 97.801523 233.91972 
L 97.801523 247.224337 
L 99.246841 247.224337 
L 99.246841 236.692013 
L 100.692159 236.692013 
L 100.692159 231.684873 
L 102.137477 231.684873 
L 102.137477 244.30335 
L 103.582795 244.30335 
L 103.582795 243.13762 
L 105.028113 243.13762 
L 105.028113 252.02471 
L 106.473432 252.02471 
L 106.473432 254.954421 
L 107.91875 254.954421 
L 107.91875 252.350832 
L 109.364068 252.350832 
L 109.364068 257.677843 
L 110.809386 257.677843 
L 110.809386 266.36663 
L 112.254704 266.36663 
L 112.254704 266.179916 
L 113.700022 266.179916 
L 113.700022 263.356018 
L 115.14534 263.356018 
L 115.14534 257.788257 
L 116.590659 257.788257 
L 116.590659 253.155458 
L 118.035977 253.155458 
L 118.035977 259.866337 
L 119.481295 259.866337 
L 119.481295 257.121692 
L 120.926613 257.121692 
L 120.926613 251.979919 
L 122.371931 251.979919 
L 122.371931 261.495034 
L 123.817249 261.495034 
L 123.817249 262.3392 
L 125.262567 262.3392 
L 125.262567 265.950711 
L 126.707886 265.950711 
L 126.707886 263.294258 
L 128.153204 263.294258 
L 128.153204 264.926991 
L 129.598522 264.926991 
L 129.598522 267.45797 
L 131.04384 267.45797 
L 131.04384 272.3323 
L 132.489158 272.3323 
L 132.489158 272.509726 
L 135.379794 272.519492 
L 135.379794 267.698242 
L 138.270431 267.64642 
L 138.270431 263.204633 
L 139.715749 263.204633 
L 139.715749 263.46704 
L 141.161067 263.46704 
L 141.161067 261.174295 
L 142.606385 261.174295 
L 142.606385 259.633747 
L 144.051703 259.633747 
L 144.051703 261.301202 
L 145.497022 261.301202 
L 145.497022 265.521293 
L 146.94234 265.521293 
L 146.94234 265.199121 
L 148.387658 265.199121 
L 148.387658 266.19298 
L 149.832976 266.19298 
L 149.832976 269.362008 
L 151.278294 269.362008 
L 151.278294 270.088338 
L 152.723612 270.088338 
L 152.723612 269.458577 
L 155.614249 269.433361 
L 155.614249 268.912235 
L 157.059567 268.912235 
L 157.059567 273.523854 
L 158.504885 273.523854 
L 158.504885 273.803014 
L 159.950203 273.803014 
L 159.950203 272.621833 
L 161.395521 272.621833 
L 161.395521 275.242393 
L 162.840839 275.242393 
L 162.840839 276.45287 
L 164.286157 276.45287 
L 164.286157 273.205111 
L 167.176794 273.195779 
L 167.176794 274.494883 
L 168.622112 274.494883 
L 168.622112 274.843964 
L 170.06743 274.843964 
L 170.06743 269.973106 
L 171.512748 269.973106 
L 171.512748 269.818813 
L 172.958066 269.818813 
L 172.958066 267.504844 
L 174.403384 267.504844 
L 174.403384 266.49931 
L 175.848703 266.49931 
L 175.848703 269.783614 
L 177.294021 269.783614 
L 177.294021 272.806725 
L 178.739339 272.806725 
L 178.739339 274.935065 
L 180.184657 274.935065 
L 180.184657 274.749218 
L 181.629975 274.749218 
L 181.629975 273.812129 
L 183.075293 273.812129 
L 183.075293 273.641212 
L 184.520611 273.641212 
L 184.520611 272.012341 
L 185.96593 272.012341 
L 185.96593 271.502283 
L 187.411248 271.502283 
L 187.411248 270.024841 
L 188.856566 270.024841 
L 188.856566 275.125121 
L 190.301884 275.125121 
L 190.301884 274.508902 
L 191.747202 274.508902 
L 191.747202 273.765298 
L 194.637839 273.771157 
L 194.637839 273.391695 
L 196.083157 273.391695 
L 196.083157 273.195476 
L 197.528475 273.195476 
L 197.528475 273.661394 
L 198.973793 273.661394 
L 198.973793 273.434359 
L 201.864429 273.402025 
L 201.864429 274.773132 
L 203.309747 274.773132 
L 203.309747 273.712174 
L 206.200384 273.780402 
L 206.200384 273.874671 
L 207.645702 273.874671 
L 207.645702 274.614933 
L 209.09102 274.614933 
L 209.09102 274.355867 
L 210.536338 274.355867 
L 210.536338 273.594035 
L 211.981656 273.594035 
L 211.981656 274.15088 
L 213.426974 274.15088 
L 213.426974 277.40515 
L 214.872293 277.40515 
L 214.872293 280.920482 
L 216.317611 280.920482 
L 216.317611 283.072345 
L 217.762929 283.072345 
L 217.762929 285.348902 
L 219.208247 285.348902 
L 219.208247 283.787998 
L 220.653565 283.787998 
L 220.653565 285.711177 
L 222.098883 285.711177 
L 222.098883 286.390589 
L 223.544201 286.390589 
L 223.544201 287.607273 
L 224.98952 287.607273 
L 224.98952 286.529041 
L 226.434838 286.529041 
L 226.434838 285.039099 
L 227.880156 285.039099 
L 227.880156 285.378979 
L 229.325474 285.378979 
L 229.325474 285.601023 
L 230.770792 285.601023 
L 230.770792 284.90247 
L 232.21611 284.90247 
L 232.21611 284.292848 
L 233.661429 284.292848 
L 233.661429 286.139683 
L 235.106747 286.139683 
L 235.106747 285.982438 
L 236.552065 285.982438 
L 236.552065 286.228744 
L 237.997383 286.228744 
L 237.997383 286.39532 
L 240.888019 286.443279 
L 240.888019 286.90464 
L 243.778656 286.965316 
L 243.778656 287.231196 
L 245.223974 287.231196 
L 245.223974 286.212511 
L 248.11461 286.304827 
L 248.11461 284.923216 
L 249.559928 284.923216 
L 249.559928 283.998453 
L 251.005246 283.998453 
L 251.005246 285.328155 
L 253.895883 285.4091 
L 253.895883 285.095565 
L 256.786519 285.120434 
L 256.786519 284.879945 
L 258.231837 284.879945 
L 258.231837 284.478 
L 262.567791 284.393801 
L 262.567791 284.108868 
L 264.01311 284.108868 
L 264.01311 280.649394 
L 265.458428 280.649394 
L 265.458428 279.097908 
L 266.903746 279.097908 
L 266.903746 279.947977 
L 268.349064 279.947977 
L 268.349064 279.410662 
L 269.794382 279.410662 
L 269.794382 278.921827 
L 271.2397 278.921827 
L 271.2397 278.379695 
L 272.685019 278.379695 
L 272.685019 278.956505 
L 274.130337 278.956505 
L 274.130337 278.570793 
L 275.575655 278.570793 
L 275.575655 277.293434 
L 277.020973 277.293434 
L 277.020973 274.413505 
L 278.466291 274.413505 
L 278.466291 267.275335 
L 279.911609 267.275335 
L 279.911609 270.433426 
L 281.356927 270.433426 
L 281.356927 268.86714 
L 282.802246 268.86714 
L 282.802246 264.012688 
L 284.247564 264.012688 
L 284.247564 266.061081 
L 285.692882 266.061081 
L 285.692882 266.65803 
L 287.1382 266.65803 
L 287.1382 267.25103 
L 288.583518 267.25103 
L 288.583518 267.601326 
L 290.028836 267.601326 
L 290.028836 263.51335 
L 291.474154 263.51335 
L 291.474154 261.680794 
L 292.919473 261.680794 
L 292.919473 255.028247 
L 294.364791 255.028247 
L 294.364791 253.646463 
L 295.810109 253.646463 
L 295.810109 256.051489 
L 297.255427 256.051489 
L 297.255427 254.41767 
L 298.700745 254.41767 
L 298.700745 247.33614 
L 300.146063 247.33614 
L 300.146063 252.534291 
L 301.591381 252.534291 
L 301.591381 259.976925 
L 303.0367 259.976925 
L 303.0367 256.013773 
L 304.482018 256.013773 
L 304.482018 259.105026 
L 305.927336 259.105026 
L 305.927336 260.72756 
L 307.372654 260.72756 
L 307.372654 256.264896 
L 308.817972 256.264896 
L 308.817972 252.201963 
L 310.26329 252.201963 
L 310.26329 252.99817 
L 311.708608 252.99817 
L 311.708608 258.489631 
L 313.153927 258.489631 
L 313.153927 257.184798 
L 314.599245 257.184798 
L 314.599245 258.077227 
L 316.044563 258.077227 
L 316.044563 256.999559 
L 317.489881 256.999559 
L 317.489881 260.394841 
L 318.935199 260.394841 
L 318.935199 255.866728 
L 320.380517 255.866728 
L 320.380517 256.448659 
L 321.825836 256.448659 
L 321.825836 257.871762 
L 323.271154 257.871762 
L 323.271154 257.215917 
L 324.716472 257.215917 
L 324.716472 257.36587 
L 326.16179 257.36587 
L 326.16179 259.937429 
L 327.607108 259.937429 
L 327.607108 266.402046 
L 329.052426 266.402046 
L 329.052426 265.842076 
L 330.497744 265.842076 
L 330.497744 266.602606 
L 331.943063 266.602606 
L 331.943063 264.691927 
L 333.388381 264.691927 
L 333.388381 266.012037 
L 334.833699 266.012037 
L 334.833699 266.910369 
L 336.279017 266.910369 
L 336.279017 266.27783 
L 337.724335 266.27783 
L 337.724335 264.349617 
L 339.169653 264.349617 
L 339.169653 261.022605 
L 340.614971 261.022605 
L 340.614971 261.596248 
L 342.06029 261.596248 
L 342.06029 261.413265 
L 343.505608 261.413265 
L 343.505608 262.742317 
L 344.950926 262.742317 
L 344.950926 264.499223 
L 346.396244 264.499223 
L 346.396244 266.479779 
L 347.841562 266.479779 
L 347.841562 270.34098 
L 349.28688 270.34098 
L 349.28688 270.873607 
L 350.732198 270.873607 
L 350.732198 269.163184 
L 352.177517 269.163184 
L 352.177517 270.746787 
L 353.622835 270.746787 
L 353.622835 269.316523 
L 355.068153 269.316523 
L 355.068153 270.762803 
L 356.513471 270.762803 
L 356.513471 272.10661 
L 357.958789 272.10661 
L 357.958789 270.758419 
L 359.404107 270.758419 
L 359.404107 270.495751 
L 360.849426 270.495751 
L 360.849426 270.277093 
L 362.294744 270.277093 
L 362.294744 270.821308 
L 363.740062 270.821308 
L 363.740062 270.057913 
L 365.18538 270.057913 
L 365.18538 268.033869 
L 366.630698 268.033869 
L 366.630698 266.786847 
L 368.076016 266.786847 
L 368.076016 263.335967 
L 369.521334 263.335967 
L 369.521334 264.108867 
L 370.966653 264.108867 
L 370.966653 265.822805 
L 372.411971 265.822805 
L 372.411971 261.688997 
L 373.857289 261.688997 
L 373.857289 261.538176 
L 375.302607 261.538176 
L 375.302607 259.623721 
L 376.747925 259.623721 
L 376.747925 259.193478 
L 378.193243 259.193478 
L 378.193243 256.963752 
L 379.638561 256.963752 
L 379.638561 257.779186 
L 381.08388 257.779186 
L 381.08388 259.997107 
L 382.529198 259.997107 
L 382.529198 263.834307 
L 383.974516 263.834307 
L 383.974516 264.925212 
L 385.419834 264.925212 
L 385.419834 262.610939 
L 386.865152 262.610939 
L 386.865152 267.539001 
L 388.31047 267.539001 
L 388.31047 277.620857 
L 389.755788 277.620857 
L 389.755788 278.712066 
L 391.201107 278.712066 
L 391.201107 275.099992 
L 392.646425 275.099992 
L 392.646425 272.892531 
L 394.091743 272.892531 
L 394.091743 276.421317 
L 395.537061 276.421317 
L 395.537061 272.412289 
L 396.982379 272.412289 
L 396.982379 270.094241 
L 398.427697 270.094241 
L 398.427697 272.133953 
L 401.318334 272.139552 
L 401.318334 270.458122 
L 402.763652 270.458122 
L 402.763652 271.015271 
L 404.20897 271.015271 
L 404.20897 268.548831 
L 405.654288 268.548831 
L 405.654288 264.514631 
L 407.099606 264.514631 
L 407.099606 263.398509 
L 408.544924 263.398509 
L 408.544924 259.336661 
L 409.990243 259.336661 
L 409.990243 263.708398 
L 411.435561 263.708398 
L 411.435561 261.229415 
L 412.880879 261.229415 
L 412.880879 260.687022 
L 414.326197 260.687022 
L 414.326197 264.072105 
L 415.771515 264.072105 
L 415.771515 260.432948 
L 417.216833 260.432948 
L 417.216833 257.676845 
L 418.662151 257.676845 
L 418.662151 260.196235 
L 420.10747 260.196235 
L 420.10747 259.539131 
L 421.552788 259.539131 
L 421.552788 260.848347 
L 424.443424 260.929465 
L 424.443424 261.667427 
L 425.888742 261.667427 
L 425.888742 261.858091 
L 427.33406 261.858091 
L 427.33406 262.098971 
L 428.779378 262.098971 
L 428.779378 262.589108 
L 430.224697 262.589108 
L 430.224697 261.791339 
L 433.115333 261.879314 
L 433.115333 262.063555 
L 436.005969 261.97176 
L 436.005969 260.242414 
L 437.451287 260.242414 
L 437.451287 254.039033 
L 438.896606 254.039033 
L 438.896606 252.730554 
L 440.341924 252.730554 
L 440.341924 253.379976 
L 441.787242 253.379976 
L 441.787242 250.891532 
L 443.23256 250.891532 
L 443.23256 251.735654 
L 444.677878 251.735654 
L 444.677878 250.256085 
L 446.123196 250.256085 
L 446.123196 250.465239 
L 447.568514 250.465239 
L 447.568514 250.90746 
L 449.013833 250.90746 
L 449.013833 251.902143 
L 450.459151 251.902143 
L 450.459151 250.215982 
L 451.904469 250.215982 
L 451.904469 257.87046 
L 453.349787 257.87046 
L 453.349787 257.574416 
L 454.795105 257.574416 
L 454.795105 257.127638 
L 456.240423 257.127638 
L 456.240423 254.466584 
L 457.685741 254.466584 
L 457.685741 256.694965 
L 459.13106 256.694965 
L 459.13106 255.556187 
L 460.576378 255.556187 
L 460.576378 254.914014 
L 462.021696 254.914014 
L 462.021696 256.168457 
L 463.467014 256.168457 
L 463.467014 255.651845 
L 464.912332 255.651845 
L 464.912332 252.5885 
L 466.35765 252.5885 
L 466.35765 252.036776 
L 467.802968 252.036776 
L 467.802968 250.932503 
L 469.248287 250.932503 
L 469.248287 245.783482 
L 470.693605 245.783482 
L 470.693605 242.71519 
L 472.138923 242.71519 
L 472.138923 242.025751 
L 473.584241 242.025751 
L 473.584241 240.527216 
L 475.029559 240.527216 
L 475.029559 234.733027 
L 476.474877 234.733027 
L 476.474877 231.23931 
L 477.920195 231.23931 
L 477.920195 229.374853 
L 479.365514 229.374853 
L 479.365514 220.858111 
L 480.810832 220.858111 
L 480.810832 218.752818 
L 482.25615 218.752818 
L 482.25615 225.003117 
L 483.701468 225.003117 
L 483.701468 218.516495 
L 485.146786 218.516495 
L 485.146786 217.862473 
L 486.592104 217.862473 
L 486.592104 222.766446 
L 488.037423 222.766446 
L 488.037423 218.301135 
L 489.482741 218.301135 
L 489.482741 201.486395 
L 490.928059 201.486395 
L 490.928059 198.560243 
L 492.373377 198.560243 
L 492.373377 187.196687 
L 493.818695 187.196687 
L 493.818695 176.722175 
L 495.264013 176.722175 
L 495.264013 158.735628 
L 496.709331 158.735628 
L 496.709331 130.588408 
L 498.15465 130.588408 
L 498.15465 147.693506 
L 499.599968 147.693506 
L 499.599968 142.122533 
L 501.045286 142.122533 
L 501.045286 145.631094 
L 502.490604 145.631094 
L 502.490604 162.646308 
L 503.935922 162.646308 
L 503.935922 169.94029 
L 505.38124 169.94029 
L 505.38124 158.146752 
L 506.826558 158.146752 
L 506.826558 141.369208 
L 508.271877 141.369208 
L 508.271877 100.735496 
L 509.717195 100.735496 
L 509.717195 95.930478 
L 511.162513 95.930478 
L 511.162513 88.60121 
L 512.607831 88.60121 
L 512.607831 58.909579 
L 514.053149 58.909579 
L 514.053149 82.243969 
L 515.498467 82.243969 
L 515.498467 106.162375 
L 516.943785 106.162375 
L 516.943785 91.687905 
L 518.389104 91.687905 
L 518.389104 74.976375 
L 519.834422 74.976375 
L 519.834422 53.475321 
L 521.27974 53.475321 
L 521.27974 55.128497 
L 522.725058 55.128497 
L 522.725058 49.862032 
L 524.170376 49.862032 
L 524.170376 74.06971 
L 525.615694 74.06971 
L 525.615694 59.853525 
L 527.061013 59.853525 
L 527.061013 47.036051 
L 528.506331 47.036051 
L 528.506331 45.659432 
L 529.951649 45.659432 
L 529.951649 49.789203 
L 531.396967 49.789203 
L 531.396967 26.127129 
L 532.842285 26.127129 
L 532.842285 41.176065 
L 534.287603 41.176065 
L 534.287603 68.424998 
L 535.732921 68.424998 
L 535.732921 88.968042 
L 537.17824 88.968042 
L 537.17824 69.40002 
L 538.623558 69.40002 
L 538.623558 53.648712 
L 540.068876 53.648712 
L 540.068876 52.924162 
L 541.514194 52.924162 
L 541.514194 55.659649 
L 542.959512 55.659649 
L 542.959512 99.119732 
L 544.40483 99.119732 
L 544.40483 141.533353 
L 545.850148 141.533353 
L 545.850148 151.123988 
L 547.295467 151.123988 
L 547.295467 135.105454 
L 548.740785 135.105454 
L 548.740785 140.030478 
L 550.186103 140.030478 
L 550.186103 141.875186 
L 551.631421 141.875186 
L 551.631421 156.785106 
L 553.076739 156.785106 
L 553.076739 147.910689 
L 554.522057 147.910689 
L 554.522057 135.628099 
L 555.967375 135.628099 
L 555.967375 147.487738 
L 557.412694 147.487738 
L 557.412694 151.623803 
L 558.858012 151.623803 
L 558.858012 152.416798 
L 560.30333 152.416798 
L 560.30333 155.020084 
L 561.748648 155.020084 
L 561.748648 153.483008 
L 563.193966 153.483008 
L 563.193966 156.501345 
L 564.639284 156.501345 
L 564.639284 159.54364 
L 566.084603 159.54364 
L 566.084603 164.018891 
L 567.529921 164.018891 
L 567.529921 161.7863 
L 568.975239 161.7863 
L 568.975239 139.997493 
L 570.420557 139.997493 
L 570.420557 118.747909 
L 571.865875 118.747909 
L 571.865875 136.439149 
L 573.311193 136.439149 
L 573.311193 108.244751 
L 574.756511 108.244751 
L 574.756511 104.00296 
L 576.20183 104.00296 
L 576.20183 97.731611 
L 577.647148 97.731611 
L 577.647148 99.128109 
L 579.092466 99.128109 
L 579.092466 87.023987 
L 580.537784 87.023987 
L 580.537784 89.049291 
L 581.983102 89.049291 
L 581.983102 97.299936 
L 583.42842 97.299936 
L 583.42842 85.18427 
L 584.873738 85.18427 
L 584.873738 101.976441 
L 587.764375 102.060033 
L 587.764375 94.568268 
L 589.209693 94.568268 
L 589.209693 115.764424 
L 590.655011 115.764424 
L 590.655011 116.137679 
L 592.100329 116.137679 
L 592.100329 123.969107 
L 593.545647 123.969107 
L 593.545647 94.820693 
L 594.990965 94.820693 
L 594.990965 61.762989 
L 596.436284 61.762989 
L 596.436284 64.879328 
L 597.881602 64.879328 
L 597.881602 52.848339 
L 599.32692 52.848339 
L 599.32692 32.996989 
L 600.772238 32.996989 
L 600.772238 38.528683 
L 602.217556 38.528683 
L 602.217556 40.055951 
L 603.662874 40.055951 
L 603.662874 34.039935 
L 605.108193 34.039935 
L 605.108193 28.729416 
L 606.553511 28.729416 
L 606.553511 27.260872 
L 607.998829 27.260872 
L 607.998829 20.552727 
L 609.444147 20.552727 
L 609.444147 25.997748 
L 610.889465 25.997748 
L 610.889465 49.657088 
L 612.334783 49.657088 
L 612.334783 52.065022 
L 613.780101 52.065022 
L 613.780101 64.118016 
L 615.22542 64.118016 
L 615.22542 53.577403 
L 616.670738 53.577403 
L 616.670738 87.644937 
L 618.116056 87.644937 
L 618.116056 95.113308 
L 619.561374 95.113308 
L 619.561374 99.030715 
L 621.006692 99.030715 
L 621.006692 101.563559 
L 622.45201 101.563559 
L 622.45201 89.580052 
L 623.897328 89.580052 
L 623.897328 82.91214 
L 625.342647 82.91214 
L 625.342647 100.542054 
L 626.787965 100.542054 
L 626.787965 96.553425 
L 628.233283 96.553425 
L 628.233283 114.81362 
L 629.678601 114.81362 
L 629.678601 120.332727 
L 631.123919 120.332727 
L 631.123919 114.905892 
L 632.569237 114.905892 
L 632.569237 118.021666 
L 634.014555 118.021666 
L 634.014555 149.748627 
L 635.459874 149.748627 
L 635.459874 142.144321 
L 636.905192 142.144321 
L 636.905192 137.391299 
L 638.35051 137.391299 
L 638.35051 140.977246 
L 639.795828 140.977246 
L 639.795828 111.717376 
L 641.241146 111.717376 
L 641.241146 117.935774 
L 642.686464 117.935774 
L 642.686464 108.669786 
L 644.131782 108.669786 
L 644.131782 127.858389 
L 645.577101 127.858389 
L 645.577101 140.113202 
L 647.022419 140.113202 
L 647.022419 138.320359 
L 648.467737 138.320359 
L 648.467737 117.661778 
L 649.913055 117.661778 
L 649.913055 136.897039 
L 651.358373 136.897039 
L 651.358373 133.821845 
L 652.803691 133.821845 
L 652.803691 131.305493 
L 654.24901 131.305493 
L 654.24901 118.71245 
L 655.694328 118.71245 
L 655.694328 115.749233 
L 657.139646 115.749233 
L 657.139646 98.590447 
L 658.584964 98.590447 
L 658.584964 104.316495 
L 660.030282 104.316495 
L 660.030282 99.663644 
L 661.4756 99.663644 
L 661.4756 118.466709 
L 662.920918 118.466709 
L 662.920918 127.914161 
L 664.366237 127.914161 
L 664.366237 126.670351 
L 665.811555 126.670351 
L 665.811555 122.386546 
L 667.256873 122.386546 
L 667.256873 130.677252 
L 668.702191 130.677252 
L 668.702191 129.355796 
L 670.147509 129.355796 
L 670.147509 134.82178 
L 671.592827 134.82178 
L 671.592827 145.66191 
L 673.038145 145.66191 
L 673.038145 167.402324 
L 674.483464 167.402324 
L 674.483464 171.435744 
L 675.928782 171.435744 
L 675.928782 177.484398 
L 677.3741 177.484398 
L 677.3741 170.548914 
L 678.819418 170.548914 
L 678.819418 175.2581 
L 680.264736 175.2581 
L 680.264736 164.313633 
L 681.710054 164.313633 
L 681.710054 173.140785 
L 683.155372 173.140785 
L 683.155372 166.907977 
L 684.600691 166.907977 
L 684.600691 178.944739 
L 686.046009 178.944739 
L 686.046009 204.090505 
L 687.491327 204.090505 
L 687.491327 212.816054 
L 688.936645 212.816054 
L 688.936645 210.437981 
L 690.381963 210.437981 
L 690.381963 212.113595 
L 691.827281 212.113595 
L 691.827281 218.517667 
L 693.2726 218.517667 
L 693.2726 214.37188 
L 694.717918 214.37188 
L 694.717918 208.292628 
L 696.163236 208.292628 
L 696.163236 214.190547 
L 697.608554 214.190547 
L 697.608554 211.801102 
L 699.053872 211.801102 
L 699.053872 201.472072 
L 700.49919 201.472072 
L 700.49919 209.516039 
L 701.944508 209.516039 
L 701.944508 198.703426 
L 703.389827 198.703426 
L 703.389827 202.219973 
L 704.835145 202.219973 
L 704.835145 202.370056 
L 706.280463 202.370056 
L 706.280463 197.974622 
L 707.725781 197.974622 
L 707.725781 196.433987 
L 709.171099 196.433987 
L 709.171099 201.298899 
L 710.616417 201.298899 
L 710.616417 209.072429 
L 712.061735 209.072429 
L 712.061735 214.148751 
L 713.507054 214.148751 
L 713.507054 216.059734 
L 714.952372 216.059734 
L 714.952372 215.877793 
L 716.39769 215.877793 
L 716.39769 218.285988 
L 717.843008 218.285988 
L 717.843008 207.372856 
L 719.288326 207.372856 
L 719.288326 216.486504 
L 720.733644 216.486504 
L 720.733644 217.148339 
L 722.178962 217.148339 
L 722.178962 218.283818 
L 723.624281 218.283818 
L 723.624281 219.046345 
L 725.069599 219.046345 
L 725.069599 218.135774 
L 726.514917 218.135774 
L 726.514917 214.433163 
L 727.960235 214.433163 
L 727.960235 217.583746 
L 729.405553 217.583746 
L 729.405553 217.837864 
L 730.850871 217.837864 
L 730.850871 217.118956 
L 732.29619 217.118956 
L 732.29619 218.757939 
L 733.741508 218.757939 
L 733.741508 214.721872 
L 735.186826 214.721872 
L 735.186826 211.619118 
L 736.632144 211.619118 
L 736.632144 214.493058 
L 738.077462 214.493058 
L 738.077462 211.167001 
L 739.52278 211.167001 
L 739.52278 225.793855 
L 740.968098 225.793855 
L 740.968098 229.970283 
L 742.413417 229.970283 
L 742.413417 229.556837 
L 743.858735 229.556837 
L 743.858735 231.676887 
L 745.304053 231.676887 
L 745.304053 230.553995 
L 746.749371 230.553995 
L 746.749371 227.441432 
L 748.194689 227.441432 
L 748.194689 227.671679 
L 749.640007 227.671679 
L 749.640007 227.163834 
L 751.085325 227.163834 
L 751.085325 227.2841 
L 752.530644 227.2841 
L 752.530644 229.754837 
L 753.975962 229.754837 
L 753.975962 228.595834 
L 755.42128 228.595834 
L 755.42128 228.88463 
L 756.866598 228.88463 
L 756.866598 230.181563 
L 758.311916 230.181563 
L 758.311916 229.858524 
L 759.757234 229.858524 
L 759.757234 228.935366 
L 761.202552 228.935366 
L 761.202552 227.348335 
L 762.647871 227.348335 
L 762.647871 215.450633 
L 764.093189 215.450633 
L 764.093189 210.191111 
L 765.538507 210.191111 
L 765.538507 203.128243 
L 766.983825 203.128243 
L 766.983825 201.751363 
L 768.429143 201.751363 
L 768.429143 198.860323 
L 769.874461 198.860323 
L 769.874461 200.168628 
L 771.319779 200.168628 
L 771.319779 203.166263 
L 772.765098 203.166263 
L 772.765098 208.049795 
L 774.210416 208.049795 
L 774.210416 205.561784 
L 775.655734 205.561784 
L 775.655734 195.01453 
L 777.101052 195.01453 
L 777.101052 196.994826 
L 778.54637 196.994826 
L 778.54637 199.69685 
L 779.991688 199.69685 
L 779.991688 200.112423 
L 781.437007 200.112423 
L 781.437007 204.698869 
L 782.882325 204.698869 
L 782.882325 214.185512 
L 784.327643 214.185512 
L 784.327643 194.46975 
L 785.772961 194.46975 
L 785.772961 184.886928 
L 787.218279 184.886928 
L 787.218279 183.450631 
L 788.663597 183.450631 
L 788.663597 180.440627 
L 790.108915 180.440627 
L 790.108915 180.296446 
L 791.554234 180.296446 
L 791.554234 181.298291 
L 792.999552 181.298291 
L 792.999552 180.763059 
L 794.44487 180.763059 
L 794.44487 170.739709 
L 795.890188 170.739709 
L 795.890188 170.373657 
L 797.335506 170.373657 
L 797.335506 176.839446 
L 798.780824 176.839446 
L 798.780824 182.217021 
L 800.226142 182.217021 
L 800.226142 174.014941 
L 801.671461 174.014941 
L 801.671461 180.063856 
L 803.116779 180.063856 
L 803.116779 173.776101 
L 804.562097 173.776101 
L 804.562097 182.002008 
L 806.007415 182.002008 
L 806.007415 185.709176 
L 807.452733 185.709176 
L 807.452733 183.051551 
L 808.898051 183.051551 
L 808.898051 185.836647 
L 810.343369 185.836647 
L 810.343369 187.048774 
L 811.788688 187.048774 
L 811.788688 181.548155 
L 813.234006 181.548155 
L 813.234006 183.686694 
L 816.124642 183.722674 
L 816.124642 189.759088 
L 817.56996 189.759088 
L 817.56996 192.909107 
L 819.015278 192.909107 
L 819.015278 187.657311 
L 820.460597 187.657311 
L 820.460597 172.177394 
L 821.905915 172.177394 
L 821.905915 170.602038 
L 823.351233 170.602038 
L 823.351233 169.713168 
L 824.796551 169.713168 
L 824.796551 168.396487 
L 826.241869 168.396487 
L 826.241869 170.828379 
L 827.687187 170.828379 
L 827.687187 170.059775 
L 829.132505 170.059775 
L 829.132505 170.716706 
L 830.577824 170.716706 
L 830.577824 172.617663 
L 832.023142 172.617663 
L 832.023142 175.325373 
L 833.46846 175.325373 
L 833.46846 174.72773 
L 834.913778 174.72773 
L 834.913778 173.132756 
L 836.359096 173.132756 
L 836.359096 175.891377 
L 837.804414 175.891377 
L 837.804414 173.643986 
L 839.249732 173.643986 
L 839.249732 174.867831 
L 840.695051 174.867831 
L 840.695051 186.246881 
L 842.140369 186.246881 
L 842.140369 188.584678 
L 843.585687 188.584678 
L 843.585687 188.905808 
L 845.031005 188.905808 
L 845.031005 181.606444 
L 846.476323 181.606444 
L 846.476323 189.688474 
L 847.921641 189.688474 
L 847.921641 190.19098 
L 849.366959 190.19098 
L 849.366959 189.845892 
L 850.812278 189.845892 
L 850.812278 186.793875 
L 852.257596 186.793875 
L 852.257596 185.805441 
L 853.702914 185.805441 
L 853.702914 186.594921 
L 855.148232 186.594921 
L 855.148232 188.196622 
L 856.59355 188.196622 
L 856.59355 184.908456 
L 858.038868 184.908456 
L 858.038868 181.318559 
L 859.484187 181.318559 
L 859.484187 180.712583 
L 860.929505 180.712583 
L 860.929505 185.827576 
L 862.374823 185.827576 
L 862.374823 178.194669 
L 863.820141 178.194669 
L 863.820141 173.137139 
L 865.265459 173.137139 
L 865.265459 154.821347 
L 866.710777 154.821347 
L 866.710777 154.005262 
L 868.156095 154.005262 
L 868.156095 148.146752 
L 869.601414 148.146752 
L 869.601414 149.848798 
L 871.046732 149.848798 
L 871.046732 142.696609 
L 872.49205 142.696609 
L 872.49205 143.559872 
L 873.937368 143.559872 
L 873.937368 143.008886 
L 875.382686 143.008886 
L 875.382686 146.547654 
L 876.828004 146.547654 
L 876.828004 137.902052 
L 878.273322 137.902052 
L 878.273322 137.613733 
L 879.718641 137.613733 
L 879.718641 128.461718 
L 881.163959 128.461718 
L 881.163959 114.040763 
L 882.609277 114.040763 
L 882.609277 122.983234 
L 884.054595 122.983234 
L 884.054595 119.96073 
L 885.499913 119.96073 
L 885.499913 118.537541 
L 886.945231 118.537541 
L 886.945231 112.115327 
L 888.390549 112.115327 
L 888.390549 113.293991 
L 889.835868 113.293991 
L 889.835868 118.593659 
L 891.281186 118.593659 
L 891.281186 110.171923 
L 892.726504 110.171923 
L 892.726504 98.096143 
L 894.171822 98.096143 
L 894.171822 116.014331 
L 895.61714 116.014331 
L 895.61714 114.762536 
L 897.062458 114.762536 
L 897.062458 121.155626 
L 898.507777 121.155626 
L 898.507777 128.060468 
L 899.953095 128.060468 
L 899.953095 119.543639 
L 901.398413 119.543639 
L 901.398413 115.07173 
L 902.843731 115.07173 
L 902.843731 116.841961 
L 904.289049 116.841961 
L 904.289049 108.625676 
L 905.101932 108.625676 
L 905.101932 108.625676 
" clip-path="url(#p408025f04b)" style="fill: none; stroke: #3572c6; stroke-width: 1.2; stroke-linecap: square"/>
   </g>
   <g id="patch_3">
    <path d="M 52.88375 300.96 
L 52.88375 7.2 
" style="fill: none; stroke: #899ab8; stroke-width: 1.12; stroke-linejoin: miter; stroke-linecap: square"/>
   </g>
   <g id="patch_4">
    <path d="M 945.68375 300.96 
L 945.68375 7.2 
" style="fill: none; stroke: #899ab8; stroke-width: 1.12; stroke-linejoin: miter; stroke-linecap: square"/>
   </g>
   <g id="patch_5">
    <path d="M 52.88375 300.96 
L 945.68375 300.96 
" style="fill: none; stroke: #899ab8; stroke-width: 1.12; stroke-linejoin: miter; stroke-linecap: square"/>
   </g>
   <g id="patch_6">
    <path d="M 52.88375 7.2 
L 945.68375 7.2 
" style="fill: none; stroke: #899ab8; stroke-width: 1.12; stroke-linejoin: miter; stroke-linecap: square"/>
   </g>
  </g>
 </g>
 <defs>
  <clipPath id="p408025f04b">
   <rect x="52.88375" y="7.2" width="892.8" height="293.76"/>
  </clipPath>
 </defs>
</svg>
