<?xml version="1.0" encoding="utf-8" standalone="no"?>
<!DOCTYPE svg PUBLIC "-//W3C//DTD SVG 1.1//EN"
  "http://www.w3.org/Graphics/SVG/1.1/DTD/svg11.dtd">
<svg xmlns:xlink="http://www.w3.org/1999/xlink" width="952.88375pt" height="358.290693pt" viewBox="0 0 952.88375 358.290693" xmlns="http://www.w3.org/2000/svg" version="1.1">
 <metadata>
  <rdf:RDF xmlns:dc="http://purl.org/dc/elements/1.1/" xmlns:cc="http://creativecommons.org/ns#" xmlns:rdf="http://www.w3.org/1999/02/22-rdf-syntax-ns#">
   <cc:Work>
    <dc:type rdf:resource="http://purl.org/dc/dcmitype/StillImage"/>
    <dc:date>2023-10-06T18:30:37.112370</dc:date>
    <dc:format>image/svg+xml</dc:format>
    <dc:creator>
     <cc:Agent>
      <dc:title>Matplotlib v3.8.0, https://matplotlib.org/</dc:title>
     </cc:Agent>
    </dc:creator>
   </cc:Work>
  </rdf:RDF>
 </metadata>
 <defs>
  <style type="text/css">*{stroke-linejoin: round; stroke-linecap: butt}</style>
 </defs>
 <g id="figure_1">
  <g id="patch_1">
   <path d="M 0 358.290693 
L 952.88375 358.290693 
L 952.88375 0 
L 0 0 
z
" style="fill: #373e4b"/>
  </g>
  <g id="axes_1">
   <g id="patch_2">
    <path d="M 52.88375 300.96 
L 945.68375 300.96 
L 945.68375 7.2 
L 52.88375 7.2 
z
" style="fill: #373e4b"/>
   </g>
   <g id="matplotlib.axis_1">
    <g id="xtick_1">
     <g id="line2d_1">
      <path d="M 99.968541 300.96 
L 99.968541 7.2 
" clip-path="url(#pa0e5007d09)" style="fill: none; stroke: #546379; stroke-width: 1.12; stroke-linecap: square"/>
     </g>
     <g id="line2d_2"/>
     <g id="text_1">
      <!-- 2018 -->
      <g style="fill: #b1bed6" transform="translate(70.887501 330.884854) rotate(-30) scale(0.126 -0.126)">
       <defs>
        <path id="DejaVuSans-32" d="M 1228 531 
L 3431 531 
L 3431 0 
L 469 0 
L 469 531 
Q 828 903 1448 1529 
Q 2069 2156 2228 2338 
Q 2531 2678 2651 2914 
Q 2772 3150 2772 3378 
Q 2772 3750 2511 3984 
Q 2250 4219 1831 4219 
Q 1534 4219 1204 4116 
Q 875 4013 500 3803 
L 500 4441 
Q 881 4594 1212 4672 
Q 1544 4750 1819 4750 
Q 2544 4750 2975 4387 
Q 3406 4025 3406 3419 
Q 3406 3131 3298 2873 
Q 3191 2616 2906 2266 
Q 2828 2175 2409 1742 
Q 1991 1309 1228 531 
z
" transform="scale(0.015625)"/>
        <path id="DejaVuSans-30" d="M 2034 4250 
Q 1547 4250 1301 3770 
Q 1056 3291 1056 2328 
Q 1056 1369 1301 889 
Q 1547 409 2034 409 
Q 2525 409 2770 889 
Q 3016 1369 3016 2328 
Q 3016 3291 2770 3770 
Q 2525 4250 2034 4250 
z
M 2034 4750 
Q 2819 4750 3233 4129 
Q 3647 3509 3647 2328 
Q 3647 1150 3233 529 
Q 2819 -91 2034 -91 
Q 1250 -91 836 529 
Q 422 1150 422 2328 
Q 422 3509 836 4129 
Q 1250 4750 2034 4750 
z
" transform="scale(0.015625)"/>
        <path id="DejaVuSans-31" d="M 794 531 
L 1825 531 
L 1825 4091 
L 703 3866 
L 703 4441 
L 1819 4666 
L 2450 4666 
L 2450 531 
L 3481 531 
L 3481 0 
L 794 0 
L 794 531 
z
" transform="scale(0.015625)"/>
        <path id="DejaVuSans-38" d="M 2034 2216 
Q 1584 2216 1326 1975 
Q 1069 1734 1069 1313 
Q 1069 891 1326 650 
Q 1584 409 2034 409 
Q 2484 409 2743 651 
Q 3003 894 3003 1313 
Q 3003 1734 2745 1975 
Q 2488 2216 2034 2216 
z
M 1403 2484 
Q 997 2584 770 2862 
Q 544 3141 544 3541 
Q 544 4100 942 4425 
Q 1341 4750 2034 4750 
Q 2731 4750 3128 4425 
Q 3525 4100 3525 3541 
Q 3525 3141 3298 2862 
Q 3072 2584 2669 2484 
Q 3125 2378 3379 2068 
Q 3634 1759 3634 1313 
Q 3634 634 3220 271 
Q 2806 -91 2034 -91 
Q 1263 -91 848 271 
Q 434 634 434 1313 
Q 434 1759 690 2068 
Q 947 2378 1403 2484 
z
M 1172 3481 
Q 1172 3119 1398 2916 
Q 1625 2713 2034 2713 
Q 2441 2713 2670 2916 
Q 2900 3119 2900 3481 
Q 2900 3844 2670 4047 
Q 2441 4250 2034 4250 
Q 1625 4250 1398 4047 
Q 1172 3844 1172 3481 
z
" transform="scale(0.015625)"/>
       </defs>
       <use xlink:href="#DejaVuSans-32"/>
       <use xlink:href="#DejaVuSans-30" x="63.623047"/>
       <use xlink:href="#DejaVuSans-31" x="127.246094"/>
       <use xlink:href="#DejaVuSans-38" x="190.869141"/>
      </g>
     </g>
    </g>
    <g id="xtick_2">
     <g id="line2d_3">
      <path d="M 239.591194 300.96 
L 239.591194 7.2 
" clip-path="url(#pa0e5007d09)" style="fill: none; stroke: #546379; stroke-width: 1.12; stroke-linecap: square"/>
     </g>
     <g id="line2d_4"/>
     <g id="text_2">
      <!-- 2019 -->
      <g style="fill: #b1bed6" transform="translate(210.510154 330.884854) rotate(-30) scale(0.126 -0.126)">
       <defs>
        <path id="DejaVuSans-39" d="M 703 97 
L 703 672 
Q 941 559 1184 500 
Q 1428 441 1663 441 
Q 2288 441 2617 861 
Q 2947 1281 2994 2138 
Q 2813 1869 2534 1725 
Q 2256 1581 1919 1581 
Q 1219 1581 811 2004 
Q 403 2428 403 3163 
Q 403 3881 828 4315 
Q 1253 4750 1959 4750 
Q 2769 4750 3195 4129 
Q 3622 3509 3622 2328 
Q 3622 1225 3098 567 
Q 2575 -91 1691 -91 
Q 1453 -91 1209 -44 
Q 966 3 703 97 
z
M 1959 2075 
Q 2384 2075 2632 2365 
Q 2881 2656 2881 3163 
Q 2881 3666 2632 3958 
Q 2384 4250 1959 4250 
Q 1534 4250 1286 3958 
Q 1038 3666 1038 3163 
Q 1038 2656 1286 2365 
Q 1534 2075 1959 2075 
z
" transform="scale(0.015625)"/>
       </defs>
       <use xlink:href="#DejaVuSans-32"/>
       <use xlink:href="#DejaVuSans-30" x="63.623047"/>
       <use xlink:href="#DejaVuSans-31" x="127.246094"/>
       <use xlink:href="#DejaVuSans-39" x="190.869141"/>
      </g>
     </g>
    </g>
    <g id="xtick_3">
     <g id="line2d_5">
      <path d="M 379.213847 300.96 
L 379.213847 7.2 
" clip-path="url(#pa0e5007d09)" style="fill: none; stroke: #546379; stroke-width: 1.12; stroke-linecap: square"/>
     </g>
     <g id="line2d_6"/>
     <g id="text_3">
      <!-- 2020 -->
      <g style="fill: #b1bed6" transform="translate(350.132807 330.884854) rotate(-30) scale(0.126 -0.126)">
       <use xlink:href="#DejaVuSans-32"/>
       <use xlink:href="#DejaVuSans-30" x="63.623047"/>
       <use xlink:href="#DejaVuSans-32" x="127.246094"/>
       <use xlink:href="#DejaVuSans-30" x="190.869141"/>
      </g>
     </g>
    </g>
    <g id="xtick_4">
     <g id="line2d_7">
      <path d="M 519.219028 300.96 
L 519.219028 7.2 
" clip-path="url(#pa0e5007d09)" style="fill: none; stroke: #546379; stroke-width: 1.12; stroke-linecap: square"/>
     </g>
     <g id="line2d_8"/>
     <g id="text_4">
      <!-- 2021 -->
      <g style="fill: #b1bed6" transform="translate(490.137988 330.884854) rotate(-30) scale(0.126 -0.126)">
       <use xlink:href="#DejaVuSans-32"/>
       <use xlink:href="#DejaVuSans-30" x="63.623047"/>
       <use xlink:href="#DejaVuSans-32" x="127.246094"/>
       <use xlink:href="#DejaVuSans-31" x="190.869141"/>
      </g>
     </g>
    </g>
    <g id="xtick_5">
     <g id="line2d_9">
      <path d="M 658.841681 300.96 
L 658.841681 7.2 
" clip-path="url(#pa0e5007d09)" style="fill: none; stroke: #546379; stroke-width: 1.12; stroke-linecap: square"/>
     </g>
     <g id="line2d_10"/>
     <g id="text_5">
      <!-- 2022 -->
      <g style="fill: #b1bed6" transform="translate(629.760641 330.884854) rotate(-30) scale(0.126 -0.126)">
       <use xlink:href="#DejaVuSans-32"/>
       <use xlink:href="#DejaVuSans-30" x="63.623047"/>
       <use xlink:href="#DejaVuSans-32" x="127.246094"/>
       <use xlink:href="#DejaVuSans-32" x="190.869141"/>
      </g>
     </g>
    </g>
    <g id="xtick_6">
     <g id="line2d_11">
      <path d="M 798.464334 300.96 
L 798.464334 7.2 
" clip-path="url(#pa0e5007d09)" style="fill: none; stroke: #546379; stroke-width: 1.12; stroke-linecap: square"/>
     </g>
     <g id="line2d_12"/>
     <g id="text_6">
      <!-- 2023 -->
      <g style="fill: #b1bed6" transform="translate(769.383294 330.884854) rotate(-30) scale(0.126 -0.126)">
       <defs>
        <path id="DejaVuSans-33" d="M 2597 2516 
Q 3050 2419 3304 2112 
Q 3559 1806 3559 1356 
Q 3559 666 3084 287 
Q 2609 -91 1734 -91 
Q 1441 -91 1130 -33 
Q 819 25 488 141 
L 488 750 
Q 750 597 1062 519 
Q 1375 441 1716 441 
Q 2309 441 2620 675 
Q 2931 909 2931 1356 
Q 2931 1769 2642 2001 
Q 2353 2234 1838 2234 
L 1294 2234 
L 1294 2753 
L 1863 2753 
Q 2328 2753 2575 2939 
Q 2822 3125 2822 3475 
Q 2822 3834 2567 4026 
Q 2313 4219 1838 4219 
Q 1578 4219 1281 4162 
Q 984 4106 628 3988 
L 628 4550 
Q 988 4650 1302 4700 
Q 1616 4750 1894 4750 
Q 2613 4750 3031 4423 
Q 3450 4097 3450 3541 
Q 3450 3153 3228 2886 
Q 3006 2619 2597 2516 
z
" transform="scale(0.015625)"/>
       </defs>
       <use xlink:href="#DejaVuSans-32"/>
       <use xlink:href="#DejaVuSans-30" x="63.623047"/>
       <use xlink:href="#DejaVuSans-32" x="127.246094"/>
       <use xlink:href="#DejaVuSans-33" x="190.869141"/>
      </g>
     </g>
    </g>
    <g id="xtick_7">
     <g id="line2d_13">
      <path d="M 938.086987 300.96 
L 938.086987 7.2 
" clip-path="url(#pa0e5007d09)" style="fill: none; stroke: #546379; stroke-width: 1.12; stroke-linecap: square"/>
     </g>
     <g id="line2d_14"/>
     <g id="text_7">
      <!-- 2024 -->
      <g style="fill: #b1bed6" transform="translate(909.005947 330.884854) rotate(-30) scale(0.126 -0.126)">
       <defs>
        <path id="DejaVuSans-34" d="M 2419 4116 
L 825 1625 
L 2419 1625 
L 2419 4116 
z
M 2253 4666 
L 3047 4666 
L 3047 1625 
L 3713 1625 
L 3713 1100 
L 3047 1100 
L 3047 0 
L 2419 0 
L 2419 1100 
L 313 1100 
L 313 1709 
L 2253 4666 
z
" transform="scale(0.015625)"/>
       </defs>
       <use xlink:href="#DejaVuSans-32"/>
       <use xlink:href="#DejaVuSans-30" x="63.623047"/>
       <use xlink:href="#DejaVuSans-32" x="127.246094"/>
       <use xlink:href="#DejaVuSans-34" x="190.869141"/>
      </g>
     </g>
    </g>
    <g id="text_8">
     <!-- Date -->
     <g style="fill: #b1bed6" transform="translate(482.074625 348.095943) scale(0.144 -0.144)">
      <defs>
       <path id="DejaVuSans-44" d="M 1259 4147 
L 1259 519 
L 2022 519 
Q 2988 519 3436 956 
Q 3884 1394 3884 2338 
Q 3884 3275 3436 3711 
Q 2988 4147 2022 4147 
L 1259 4147 
z
M 628 4666 
L 1925 4666 
Q 3281 4666 3915 4102 
Q 4550 3538 4550 2338 
Q 4550 1131 3912 565 
Q 3275 0 1925 0 
L 628 0 
L 628 4666 
z
" transform="scale(0.015625)"/>
       <path id="DejaVuSans-61" d="M 2194 1759 
Q 1497 1759 1228 1600 
Q 959 1441 959 1056 
Q 959 750 1161 570 
Q 1363 391 1709 391 
Q 2188 391 2477 730 
Q 2766 1069 2766 1631 
L 2766 1759 
L 2194 1759 
z
M 3341 1997 
L 3341 0 
L 2766 0 
L 2766 531 
Q 2569 213 2275 61 
Q 1981 -91 1556 -91 
Q 1019 -91 701 211 
Q 384 513 384 1019 
Q 384 1609 779 1909 
Q 1175 2209 1959 2209 
L 2766 2209 
L 2766 2266 
Q 2766 2663 2505 2880 
Q 2244 3097 1772 3097 
Q 1472 3097 1187 3025 
Q 903 2953 641 2809 
L 641 3341 
Q 956 3463 1253 3523 
Q 1550 3584 1831 3584 
Q 2591 3584 2966 3190 
Q 3341 2797 3341 1997 
z
" transform="scale(0.015625)"/>
       <path id="DejaVuSans-74" d="M 1172 4494 
L 1172 3500 
L 2356 3500 
L 2356 3053 
L 1172 3053 
L 1172 1153 
Q 1172 725 1289 603 
Q 1406 481 1766 481 
L 2356 481 
L 2356 0 
L 1766 0 
Q 1100 0 847 248 
Q 594 497 594 1153 
L 594 3053 
L 172 3053 
L 172 3500 
L 594 3500 
L 594 4494 
L 1172 4494 
z
" transform="scale(0.015625)"/>
       <path id="DejaVuSans-65" d="M 3597 1894 
L 3597 1613 
L 953 1613 
Q 991 1019 1311 708 
Q 1631 397 2203 397 
Q 2534 397 2845 478 
Q 3156 559 3463 722 
L 3463 178 
Q 3153 47 2828 -22 
Q 2503 -91 2169 -91 
Q 1331 -91 842 396 
Q 353 884 353 1716 
Q 353 2575 817 3079 
Q 1281 3584 2069 3584 
Q 2775 3584 3186 3129 
Q 3597 2675 3597 1894 
z
M 3022 2063 
Q 3016 2534 2758 2815 
Q 2500 3097 2075 3097 
Q 1594 3097 1305 2825 
Q 1016 2553 972 2059 
L 3022 2063 
z
" transform="scale(0.015625)"/>
      </defs>
      <use xlink:href="#DejaVuSans-44"/>
      <use xlink:href="#DejaVuSans-61" x="77.001953"/>
      <use xlink:href="#DejaVuSans-74" x="138.28125"/>
      <use xlink:href="#DejaVuSans-65" x="177.490234"/>
     </g>
    </g>
   </g>
   <g id="matplotlib.axis_2">
    <g id="ytick_1">
     <g id="line2d_15">
      <path d="M 52.88375 258.56324 
L 945.68375 258.56324 
" clip-path="url(#pa0e5007d09)" style="fill: none; stroke: #546379; stroke-width: 1.12; stroke-linecap: square"/>
     </g>
     <g id="line2d_16"/>
     <g id="text_9">
      <!-- 10000 -->
      <g style="fill: #b1bed6" transform="translate(7.2 263.350256) scale(0.126 -0.126)">
       <use xlink:href="#DejaVuSans-31"/>
       <use xlink:href="#DejaVuSans-30" x="63.623047"/>
       <use xlink:href="#DejaVuSans-30" x="127.246094"/>
       <use xlink:href="#DejaVuSans-30" x="190.869141"/>
       <use xlink:href="#DejaVuSans-30" x="254.492188"/>
      </g>
     </g>
    </g>
    <g id="ytick_2">
     <g id="line2d_17">
      <path d="M 52.88375 215.161403 
L 945.68375 215.161403 
" clip-path="url(#pa0e5007d09)" style="fill: none; stroke: #546379; stroke-width: 1.12; stroke-linecap: square"/>
     </g>
     <g id="line2d_18"/>
     <g id="text_10">
      <!-- 20000 -->
      <g style="fill: #b1bed6" transform="translate(7.2 219.948418) scale(0.126 -0.126)">
       <use xlink:href="#DejaVuSans-32"/>
       <use xlink:href="#DejaVuSans-30" x="63.623047"/>
       <use xlink:href="#DejaVuSans-30" x="127.246094"/>
       <use xlink:href="#DejaVuSans-30" x="190.869141"/>
       <use xlink:href="#DejaVuSans-30" x="254.492188"/>
      </g>
     </g>
    </g>
    <g id="ytick_3">
     <g id="line2d_19">
      <path d="M 52.88375 171.759565 
L 945.68375 171.759565 
" clip-path="url(#pa0e5007d09)" style="fill: none; stroke: #546379; stroke-width: 1.12; stroke-linecap: square"/>
     </g>
     <g id="line2d_20"/>
     <g id="text_11">
      <!-- 30000 -->
      <g style="fill: #b1bed6" transform="translate(7.2 176.546581) scale(0.126 -0.126)">
       <use xlink:href="#DejaVuSans-33"/>
       <use xlink:href="#DejaVuSans-30" x="63.623047"/>
       <use xlink:href="#DejaVuSans-30" x="127.246094"/>
       <use xlink:href="#DejaVuSans-30" x="190.869141"/>
       <use xlink:href="#DejaVuSans-30" x="254.492188"/>
      </g>
     </g>
    </g>
    <g id="ytick_4">
     <g id="line2d_21">
      <path d="M 52.88375 128.357727 
L 945.68375 128.357727 
" clip-path="url(#pa0e5007d09)" style="fill: none; stroke: #546379; stroke-width: 1.12; stroke-linecap: square"/>
     </g>
     <g id="line2d_22"/>
     <g id="text_12">
      <!-- 40000 -->
      <g style="fill: #b1bed6" transform="translate(7.2 133.144743) scale(0.126 -0.126)">
       <use xlink:href="#DejaVuSans-34"/>
       <use xlink:href="#DejaVuSans-30" x="63.623047"/>
       <use xlink:href="#DejaVuSans-30" x="127.246094"/>
       <use xlink:href="#DejaVuSans-30" x="190.869141"/>
       <use xlink:href="#DejaVuSans-30" x="254.492188"/>
      </g>
     </g>
    </g>
    <g id="ytick_5">
     <g id="line2d_23">
      <path d="M 52.88375 84.95589 
L 945.68375 84.95589 
" clip-path="url(#pa0e5007d09)" style="fill: none; stroke: #546379; stroke-width: 1.12; stroke-linecap: square"/>
     </g>
     <g id="line2d_24"/>
     <g id="text_13">
      <!-- 50000 -->
      <g style="fill: #b1bed6" transform="translate(7.2 89.742905) scale(0.126 -0.126)">
       <defs>
        <path id="DejaVuSans-35" d="M 691 4666 
L 3169 4666 
L 3169 4134 
L 1269 4134 
L 1269 2991 
Q 1406 3038 1543 3061 
Q 1681 3084 1819 3084 
Q 2600 3084 3056 2656 
Q 3513 2228 3513 1497 
Q 3513 744 3044 326 
Q 2575 -91 1722 -91 
Q 1428 -91 1123 -41 
Q 819 9 494 109 
L 494 744 
Q 775 591 1075 516 
Q 1375 441 1709 441 
Q 2250 441 2565 725 
Q 2881 1009 2881 1497 
Q 2881 1984 2565 2268 
Q 2250 2553 1709 2553 
Q 1456 2553 1204 2497 
Q 953 2441 691 2322 
L 691 4666 
z
" transform="scale(0.015625)"/>
       </defs>
       <use xlink:href="#DejaVuSans-35"/>
       <use xlink:href="#DejaVuSans-30" x="63.623047"/>
       <use xlink:href="#DejaVuSans-30" x="127.246094"/>
       <use xlink:href="#DejaVuSans-30" x="190.869141"/>
       <use xlink:href="#DejaVuSans-30" x="254.492188"/>
      </g>
     </g>
    </g>
    <g id="ytick_6">
     <g id="line2d_25">
      <path d="M 52.88375 41.554052 
L 945.68375 41.554052 
" clip-path="url(#pa0e5007d09)" style="fill: none; stroke: #546379; stroke-width: 1.12; stroke-linecap: square"/>
     </g>
     <g id="line2d_26"/>
     <g id="text_14">
      <!-- 60000 -->
      <g style="fill: #b1bed6" transform="translate(7.2 46.341068) scale(0.126 -0.126)">
       <defs>
        <path id="DejaVuSans-36" d="M 2113 2584 
Q 1688 2584 1439 2293 
Q 1191 2003 1191 1497 
Q 1191 994 1439 701 
Q 1688 409 2113 409 
Q 2538 409 2786 701 
Q 3034 994 3034 1497 
Q 3034 2003 2786 2293 
Q 2538 2584 2113 2584 
z
M 3366 4563 
L 3366 3988 
Q 3128 4100 2886 4159 
Q 2644 4219 2406 4219 
Q 1781 4219 1451 3797 
Q 1122 3375 1075 2522 
Q 1259 2794 1537 2939 
Q 1816 3084 2150 3084 
Q 2853 3084 3261 2657 
Q 3669 2231 3669 1497 
Q 3669 778 3244 343 
Q 2819 -91 2113 -91 
Q 1303 -91 875 529 
Q 447 1150 447 2328 
Q 447 3434 972 4092 
Q 1497 4750 2381 4750 
Q 2619 4750 2861 4703 
Q 3103 4656 3366 4563 
z
" transform="scale(0.015625)"/>
       </defs>
       <use xlink:href="#DejaVuSans-36"/>
       <use xlink:href="#DejaVuSans-30" x="63.623047"/>
       <use xlink:href="#DejaVuSans-30" x="127.246094"/>
       <use xlink:href="#DejaVuSans-30" x="190.869141"/>
       <use xlink:href="#DejaVuSans-30" x="254.492188"/>
      </g>
     </g>
    </g>
   </g>
   <g id="line2d_27">
    <path d="M 93.465568 230.750692 
L 93.465568 219.884434 
L 94.995679 219.884434 
L 94.995679 242.172059 
L 96.525791 242.172059 
L 96.525791 233.91972 
L 98.055902 233.91972 
L 98.055902 247.224337 
L 99.586013 247.224337 
L 99.586013 236.692013 
L 101.116125 236.692013 
L 101.116125 231.684873 
L 102.646236 231.684873 
L 102.646236 244.30335 
L 104.176347 244.30335 
L 104.176347 243.13762 
L 105.706458 243.13762 
L 105.706458 252.02471 
L 107.23657 252.02471 
L 107.23657 254.954421 
L 108.766681 254.954421 
L 108.766681 252.350832 
L 110.296792 252.350832 
L 110.296792 257.677843 
L 111.826903 257.677843 
L 111.826903 266.36663 
L 113.357015 266.36663 
L 113.357015 266.179916 
L 114.887126 266.179916 
L 114.887126 263.356018 
L 116.417237 263.356018 
L 116.417237 257.788257 
L 117.947348 257.788257 
L 117.947348 253.155458 
L 119.47746 253.155458 
L 119.47746 259.866337 
L 121.007571 259.866337 
L 121.007571 257.121692 
L 122.537682 257.121692 
L 122.537682 251.979919 
L 124.067793 251.979919 
L 124.067793 261.495034 
L 125.597905 261.495034 
L 125.597905 262.3392 
L 127.128016 262.3392 
L 127.128016 265.950711 
L 128.658127 265.950711 
L 128.658127 263.294258 
L 130.188239 263.294258 
L 130.188239 264.926991 
L 131.71835 264.926991 
L 131.71835 267.45797 
L 133.248461 267.45797 
L 133.248461 272.3323 
L 134.778572 272.3323 
L 134.778572 272.509726 
L 137.838795 272.519492 
L 137.838795 267.698242 
L 140.899017 267.64642 
L 140.899017 263.204633 
L 142.429129 263.204633 
L 142.429129 263.46704 
L 143.95924 263.46704 
L 143.95924 261.174295 
L 145.489351 261.174295 
L 145.489351 259.633747 
L 147.019462 259.633747 
L 147.019462 261.301202 
L 148.549574 261.301202 
L 148.549574 265.521293 
L 150.079685 265.521293 
L 150.079685 265.199121 
L 151.609796 265.199121 
L 151.609796 266.19298 
L 153.139908 266.19298 
L 153.139908 269.362008 
L 154.670019 269.362008 
L 154.670019 270.088338 
L 156.20013 270.088338 
L 156.20013 269.458577 
L 159.260353 269.433361 
L 159.260353 268.912235 
L 160.790464 268.912235 
L 160.790464 273.523854 
L 162.320575 273.523854 
L 162.320575 273.803014 
L 163.850686 273.803014 
L 163.850686 272.621833 
L 165.380798 272.621833 
L 165.380798 275.242393 
L 166.910909 275.242393 
L 166.910909 276.45287 
L 168.44102 276.45287 
L 168.44102 273.205111 
L 171.501243 273.195779 
L 171.501243 274.494883 
L 173.031354 274.494883 
L 173.031354 274.843964 
L 174.561465 274.843964 
L 174.561465 269.973106 
L 176.091577 269.973106 
L 176.091577 269.818813 
L 177.621688 269.818813 
L 177.621688 267.504844 
L 179.151799 267.504844 
L 179.151799 266.49931 
L 180.68191 266.49931 
L 180.68191 269.783614 
L 182.212022 269.783614 
L 182.212022 272.806725 
L 183.742133 272.806725 
L 183.742133 274.935065 
L 185.272244 274.935065 
L 185.272244 274.749218 
L 186.802355 274.749218 
L 186.802355 273.812129 
L 188.332467 273.812129 
L 188.332467 273.641212 
L 189.862578 273.641212 
L 189.862578 272.012341 
L 191.392689 272.012341 
L 191.392689 271.502283 
L 192.9228 271.502283 
L 192.9228 270.024841 
L 194.452912 270.024841 
L 194.452912 275.125121 
L 195.983023 275.125121 
L 195.983023 274.508902 
L 197.513134 274.508902 
L 197.513134 273.765298 
L 200.573357 273.771157 
L 200.573357 273.391695 
L 202.103468 273.391695 
L 202.103468 273.195476 
L 203.633579 273.195476 
L 203.633579 273.661394 
L 205.163691 273.661394 
L 205.163691 273.434359 
L 208.223913 273.402025 
L 208.223913 274.773132 
L 209.754024 274.773132 
L 209.754024 273.712174 
L 212.814247 273.780402 
L 212.814247 273.874671 
L 214.344358 273.874671 
L 214.344358 274.614933 
L 215.874469 274.614933 
L 215.874469 274.355867 
L 217.404581 274.355867 
L 217.404581 273.594035 
L 218.934692 273.594035 
L 218.934692 274.15088 
L 220.464803 274.15088 
L 220.464803 277.40515 
L 221.994914 277.40515 
L 221.994914 280.920482 
L 223.525026 280.920482 
L 223.525026 283.072345 
L 225.055137 283.072345 
L 225.055137 285.348902 
L 226.585248 285.348902 
L 226.585248 283.787998 
L 228.11536 283.787998 
L 228.11536 285.711177 
L 229.645471 285.711177 
L 229.645471 286.390589 
L 231.175582 286.390589 
L 231.175582 287.607273 
L 232.705693 287.607273 
L 232.705693 286.529041 
L 234.235805 286.529041 
L 234.235805 285.039099 
L 235.765916 285.039099 
L 235.765916 285.378979 
L 237.296027 285.378979 
L 237.296027 285.601023 
L 238.826138 285.601023 
L 238.826138 284.90247 
L 240.35625 284.90247 
L 240.35625 284.292848 
L 241.886361 284.292848 
L 241.886361 286.139683 
L 243.416472 286.139683 
L 243.416472 285.982438 
L 244.946583 285.982438 
L 244.946583 286.228744 
L 246.476695 286.228744 
L 246.476695 286.39532 
L 249.536917 286.443279 
L 249.536917 286.90464 
L 252.59714 286.965316 
L 252.59714 287.231196 
L 254.127251 287.231196 
L 254.127251 286.212511 
L 257.187474 286.304827 
L 257.187474 284.923216 
L 258.717585 284.923216 
L 258.717585 283.998453 
L 260.247696 283.998453 
L 260.247696 285.328155 
L 263.307919 285.4091 
L 263.307919 285.095565 
L 266.368141 285.120434 
L 266.368141 284.879945 
L 267.898252 284.879945 
L 267.898252 284.478 
L 272.488586 284.393801 
L 272.488586 284.108868 
L 274.018697 284.108868 
L 274.018697 280.649394 
L 275.548809 280.649394 
L 275.548809 279.097908 
L 277.07892 279.097908 
L 277.07892 279.947977 
L 278.609031 279.947977 
L 278.609031 279.410662 
L 280.139143 279.410662 
L 280.139143 278.921827 
L 281.669254 278.921827 
L 281.669254 278.379695 
L 283.199365 278.379695 
L 283.199365 278.956505 
L 284.729476 278.956505 
L 284.729476 278.570793 
L 286.259588 278.570793 
L 286.259588 277.293434 
L 287.789699 277.293434 
L 287.789699 274.413505 
L 289.31981 274.413505 
L 289.31981 267.275335 
L 290.849921 267.275335 
L 290.849921 270.433426 
L 292.380033 270.433426 
L 292.380033 268.86714 
L 293.910144 268.86714 
L 293.910144 264.012688 
L 295.440255 264.012688 
L 295.440255 266.061081 
L 296.970366 266.061081 
L 296.970366 266.65803 
L 298.500478 266.65803 
L 298.500478 267.25103 
L 300.030589 267.25103 
L 300.030589 267.601326 
L 301.5607 267.601326 
L 301.5607 263.51335 
L 303.090812 263.51335 
L 303.090812 261.680794 
L 304.620923 261.680794 
L 304.620923 255.028247 
L 306.151034 255.028247 
L 306.151034 253.646463 
L 307.681145 253.646463 
L 307.681145 256.051489 
L 309.211257 256.051489 
L 309.211257 254.41767 
L 310.741368 254.41767 
L 310.741368 247.33614 
L 312.271479 247.33614 
L 312.271479 252.534291 
L 313.80159 252.534291 
L 313.80159 259.976925 
L 315.331702 259.976925 
L 315.331702 256.013773 
L 316.861813 256.013773 
L 316.861813 259.105026 
L 318.391924 259.105026 
L 318.391924 260.72756 
L 319.922035 260.72756 
L 319.922035 256.264896 
L 321.452147 256.264896 
L 321.452147 252.201963 
L 322.982258 252.201963 
L 322.982258 252.99817 
L 324.512369 252.99817 
L 324.512369 258.489631 
L 326.042481 258.489631 
L 326.042481 257.184798 
L 327.572592 257.184798 
L 327.572592 258.077227 
L 329.102703 258.077227 
L 329.102703 256.999559 
L 330.632814 256.999559 
L 330.632814 260.394841 
L 332.162926 260.394841 
L 332.162926 255.866728 
L 333.693037 255.866728 
L 333.693037 256.448659 
L 335.223148 256.448659 
L 335.223148 257.871762 
L 336.753259 257.871762 
L 336.753259 257.215917 
L 338.283371 257.215917 
L 338.283371 257.36587 
L 339.813482 257.36587 
L 339.813482 259.937429 
L 341.343593 259.937429 
L 341.343593 266.402046 
L 342.873704 266.402046 
L 342.873704 265.842076 
L 344.403816 265.842076 
L 344.403816 266.602606 
L 345.933927 266.602606 
L 345.933927 264.691927 
L 347.464038 264.691927 
L 347.464038 266.012037 
L 348.994149 266.012037 
L 348.994149 266.910369 
L 350.524261 266.910369 
L 350.524261 266.27783 
L 352.054372 266.27783 
L 352.054372 264.349617 
L 353.584483 264.349617 
L 353.584483 261.022605 
L 355.114595 261.022605 
L 355.114595 261.596248 
L 356.644706 261.596248 
L 356.644706 261.413265 
L 358.174817 261.413265 
L 358.174817 262.742317 
L 359.704928 262.742317 
L 359.704928 264.499223 
L 361.23504 264.499223 
L 361.23504 266.479779 
L 362.765151 266.479779 
L 362.765151 270.34098 
L 364.295262 270.34098 
L 364.295262 270.873607 
L 365.825373 270.873607 
L 365.825373 269.163184 
L 367.355485 269.163184 
L 367.355485 270.746787 
L 368.885596 270.746787 
L 368.885596 269.316523 
L 370.415707 269.316523 
L 370.415707 270.762803 
L 371.945818 270.762803 
L 371.945818 272.10661 
L 373.47593 272.10661 
L 373.47593 270.758419 
L 375.006041 270.758419 
L 375.006041 270.495751 
L 376.536152 270.495751 
L 376.536152 270.277093 
L 378.066264 270.277093 
L 378.066264 270.821308 
L 379.596375 270.821308 
L 379.596375 270.057913 
L 381.126486 270.057913 
L 381.126486 268.033869 
L 382.656597 268.033869 
L 382.656597 266.786847 
L 384.186709 266.786847 
L 384.186709 263.335967 
L 385.71682 263.335967 
L 385.71682 264.108867 
L 387.246931 264.108867 
L 387.246931 265.822805 
L 388.777042 265.822805 
L 388.777042 261.688997 
L 390.307154 261.688997 
L 390.307154 261.538176 
L 391.837265 261.538176 
L 391.837265 259.623721 
L 393.367376 259.623721 
L 393.367376 259.193478 
L 394.897487 259.193478 
L 394.897487 256.963752 
L 396.427599 256.963752 
L 396.427599 257.779186 
L 397.95771 257.779186 
L 397.95771 259.997107 
L 399.487821 259.997107 
L 399.487821 263.834307 
L 401.017933 263.834307 
L 401.017933 264.925212 
L 402.548044 264.925212 
L 402.548044 262.610939 
L 404.078155 262.610939 
L 404.078155 267.539001 
L 405.608266 267.539001 
L 405.608266 277.620857 
L 407.138378 277.620857 
L 407.138378 278.712066 
L 408.668489 278.712066 
L 408.668489 275.099992 
L 410.1986 275.099992 
L 410.1986 272.892531 
L 411.728711 272.892531 
L 411.728711 276.421317 
L 413.258823 276.421317 
L 413.258823 272.412289 
L 414.788934 272.412289 
L 414.788934 270.094241 
L 416.319045 270.094241 
L 416.319045 272.133953 
L 419.379268 272.139552 
L 419.379268 270.458122 
L 420.909379 270.458122 
L 420.909379 271.015271 
L 422.43949 271.015271 
L 422.43949 268.548831 
L 423.969601 268.548831 
L 423.969601 264.514631 
L 425.499713 264.514631 
L 425.499713 263.398509 
L 427.029824 263.398509 
L 427.029824 259.336661 
L 428.559935 259.336661 
L 428.559935 263.708398 
L 430.090047 263.708398 
L 430.090047 261.229415 
L 431.620158 261.229415 
L 431.620158 260.687022 
L 433.150269 260.687022 
L 433.150269 264.072105 
L 434.68038 264.072105 
L 434.68038 260.432948 
L 436.210492 260.432948 
L 436.210492 257.676845 
L 437.740603 257.676845 
L 437.740603 260.196235 
L 439.270714 260.196235 
L 439.270714 259.539131 
L 440.800825 259.539131 
L 440.800825 260.848347 
L 443.861048 260.929465 
L 443.861048 261.667427 
L 445.391159 261.667427 
L 445.391159 261.858091 
L 446.92127 261.858091 
L 446.92127 262.098971 
L 448.451382 262.098971 
L 448.451382 262.589108 
L 449.981493 262.589108 
L 449.981493 261.791339 
L 453.041716 261.879314 
L 453.041716 262.063555 
L 456.101938 261.97176 
L 456.101938 260.242414 
L 457.632049 260.242414 
L 457.632049 254.039033 
L 459.162161 254.039033 
L 459.162161 252.730554 
L 460.692272 252.730554 
L 460.692272 253.379976 
L 462.222383 253.379976 
L 462.222383 250.891532 
L 463.752494 250.891532 
L 463.752494 251.735654 
L 465.282606 251.735654 
L 465.282606 250.256085 
L 466.812717 250.256085 
L 466.812717 250.465239 
L 468.342828 250.465239 
L 468.342828 250.90746 
L 469.872939 250.90746 
L 469.872939 251.902143 
L 471.403051 251.902143 
L 471.403051 250.215982 
L 472.933162 250.215982 
L 472.933162 257.87046 
L 474.463273 257.87046 
L 474.463273 257.574416 
L 475.993385 257.574416 
L 475.993385 257.127638 
L 477.523496 257.127638 
L 477.523496 254.466584 
L 479.053607 254.466584 
L 479.053607 256.694965 
L 480.583718 256.694965 
L 480.583718 255.556187 
L 482.11383 255.556187 
L 482.11383 254.914014 
L 483.643941 254.914014 
L 483.643941 256.168457 
L 485.174052 256.168457 
L 485.174052 255.651845 
L 486.704163 255.651845 
L 486.704163 252.5885 
L 488.234275 252.5885 
L 488.234275 252.036776 
L 489.764386 252.036776 
L 489.764386 250.932503 
L 491.294497 250.932503 
L 491.294497 245.783482 
L 492.824608 245.783482 
L 492.824608 242.71519 
L 494.35472 242.71519 
L 494.35472 242.025751 
L 495.884831 242.025751 
L 495.884831 240.527216 
L 497.414942 240.527216 
L 497.414942 234.733027 
L 498.945053 234.733027 
L 498.945053 231.23931 
L 500.475165 231.23931 
L 500.475165 229.374853 
L 502.005276 229.374853 
L 502.005276 220.858111 
L 503.535387 220.858111 
L 503.535387 218.752818 
L 505.065499 218.752818 
L 505.065499 225.003117 
L 506.59561 225.003117 
L 506.59561 218.516495 
L 508.125721 218.516495 
L 508.125721 217.862473 
L 509.655832 217.862473 
L 509.655832 222.766446 
L 511.185944 222.766446 
L 511.185944 218.301135 
L 512.716055 218.301135 
L 512.716055 201.486395 
L 514.246166 201.486395 
L 514.246166 198.560243 
L 515.776277 198.560243 
L 515.776277 187.196687 
L 517.306389 187.196687 
L 517.306389 176.722175 
L 518.8365 176.722175 
L 518.8365 158.735628 
L 520.366611 158.735628 
L 520.366611 130.588408 
L 521.896722 130.588408 
L 521.896722 147.693506 
L 523.426834 147.693506 
L 523.426834 142.122533 
L 524.956945 142.122533 
L 524.956945 145.631094 
L 526.487056 145.631094 
L 526.487056 162.646308 
L 528.017168 162.646308 
L 528.017168 169.94029 
L 529.547279 169.94029 
L 529.547279 158.146752 
L 531.07739 158.146752 
L 531.07739 141.369208 
L 532.607501 141.369208 
L 532.607501 100.735496 
L 534.137613 100.735496 
L 534.137613 95.930478 
L 535.667724 95.930478 
L 535.667724 88.60121 
L 537.197835 88.60121 
L 537.197835 58.909579 
L 538.727946 58.909579 
L 538.727946 82.243969 
L 540.258058 82.243969 
L 540.258058 106.162375 
L 541.788169 106.162375 
L 541.788169 91.687905 
L 543.31828 91.687905 
L 543.31828 74.976375 
L 544.848391 74.976375 
L 544.848391 53.475321 
L 546.378503 53.475321 
L 546.378503 55.128497 
L 547.908614 55.128497 
L 547.908614 49.862032 
L 549.438725 49.862032 
L 549.438725 74.06971 
L 550.968837 74.06971 
L 550.968837 59.853525 
L 552.498948 59.853525 
L 552.498948 47.036051 
L 554.029059 47.036051 
L 554.029059 45.659432 
L 555.55917 45.659432 
L 555.55917 49.789203 
L 557.089282 49.789203 
L 557.089282 26.127129 
L 558.619393 26.127129 
L 558.619393 41.176065 
L 560.149504 41.176065 
L 560.149504 68.424998 
L 561.679615 68.424998 
L 561.679615 88.968042 
L 563.209727 88.968042 
L 563.209727 69.40002 
L 564.739838 69.40002 
L 564.739838 53.648712 
L 566.269949 53.648712 
L 566.269949 52.924162 
L 567.80006 52.924162 
L 567.80006 55.659649 
L 569.330172 55.659649 
L 569.330172 99.119732 
L 570.860283 99.119732 
L 570.860283 141.533353 
L 572.390394 141.533353 
L 572.390394 151.123988 
L 573.920505 151.123988 
L 573.920505 135.105454 
L 575.450617 135.105454 
L 575.450617 140.030478 
L 576.980728 140.030478 
L 576.980728 141.875186 
L 578.510839 141.875186 
L 578.510839 156.785106 
L 580.040951 156.785106 
L 580.040951 147.910689 
L 581.571062 147.910689 
L 581.571062 135.628099 
L 583.101173 135.628099 
L 583.101173 147.487738 
L 584.631284 147.487738 
L 584.631284 151.623803 
L 586.161396 151.623803 
L 586.161396 152.416798 
L 587.691507 152.416798 
L 587.691507 155.020084 
L 589.221618 155.020084 
L 589.221618 153.483008 
L 590.751729 153.483008 
L 590.751729 156.501345 
L 592.281841 156.501345 
L 592.281841 159.54364 
L 593.811952 159.54364 
L 593.811952 164.018891 
L 595.342063 164.018891 
L 595.342063 161.7863 
L 596.872174 161.7863 
L 596.872174 139.997493 
L 598.402286 139.997493 
L 598.402286 118.747909 
L 599.932397 118.747909 
L 599.932397 136.439149 
L 601.462508 136.439149 
L 601.462508 108.244751 
L 602.99262 108.244751 
L 602.99262 104.00296 
L 604.522731 104.00296 
L 604.522731 97.731611 
L 606.052842 97.731611 
L 606.052842 99.128109 
L 607.582953 99.128109 
L 607.582953 87.023987 
L 609.113065 87.023987 
L 609.113065 89.049291 
L 610.643176 89.049291 
L 610.643176 97.299936 
L 612.173287 97.299936 
L 612.173287 85.18427 
L 613.703398 85.18427 
L 613.703398 101.976441 
L 616.763621 102.060033 
L 616.763621 94.568268 
L 618.293732 94.568268 
L 618.293732 115.764424 
L 619.823843 115.764424 
L 619.823843 116.137679 
L 621.353955 116.137679 
L 621.353955 123.969107 
L 622.884066 123.969107 
L 622.884066 94.820693 
L 624.414177 94.820693 
L 624.414177 61.762989 
L 625.944289 61.762989 
L 625.944289 64.879328 
L 627.4744 64.879328 
L 627.4744 52.848339 
L 629.004511 52.848339 
L 629.004511 32.996989 
L 630.534622 32.996989 
L 630.534622 38.528683 
L 632.064734 38.528683 
L 632.064734 40.055951 
L 633.594845 40.055951 
L 633.594845 34.039935 
L 635.124956 34.039935 
L 635.124956 28.729416 
L 636.655067 28.729416 
L 636.655067 27.260872 
L 638.185179 27.260872 
L 638.185179 20.552727 
L 639.71529 20.552727 
L 639.71529 25.997748 
L 641.245401 25.997748 
L 641.245401 49.657088 
L 642.775512 49.657088 
L 642.775512 52.065022 
L 644.305624 52.065022 
L 644.305624 64.118016 
L 645.835735 64.118016 
L 645.835735 53.577403 
L 647.365846 53.577403 
L 647.365846 87.644937 
L 648.895957 87.644937 
L 648.895957 95.113308 
L 650.426069 95.113308 
L 650.426069 99.030715 
L 651.95618 99.030715 
L 651.95618 101.563559 
L 653.486291 101.563559 
L 653.486291 89.580052 
L 655.016403 89.580052 
L 655.016403 82.91214 
L 656.546514 82.91214 
L 656.546514 100.542054 
L 658.076625 100.542054 
L 658.076625 96.553425 
L 659.606736 96.553425 
L 659.606736 114.81362 
L 661.136848 114.81362 
L 661.136848 120.332727 
L 662.666959 120.332727 
L 662.666959 114.905892 
L 664.19707 114.905892 
L 664.19707 118.021666 
L 665.727181 118.021666 
L 665.727181 149.748627 
L 667.257293 149.748627 
L 667.257293 142.144321 
L 668.787404 142.144321 
L 668.787404 137.391299 
L 670.317515 137.391299 
L 670.317515 140.977246 
L 671.847626 140.977246 
L 671.847626 111.717376 
L 673.377738 111.717376 
L 673.377738 117.935774 
L 674.907849 117.935774 
L 674.907849 108.669786 
L 676.43796 108.669786 
L 676.43796 127.858389 
L 677.968072 127.858389 
L 677.968072 140.113202 
L 679.498183 140.113202 
L 679.498183 138.320359 
L 681.028294 138.320359 
L 681.028294 117.661778 
L 682.558405 117.661778 
L 682.558405 136.897039 
L 684.088517 136.897039 
L 684.088517 133.821845 
L 685.618628 133.821845 
L 685.618628 131.305493 
L 687.148739 131.305493 
L 687.148739 118.71245 
L 688.67885 118.71245 
L 688.67885 115.749233 
L 690.208962 115.749233 
L 690.208962 98.590447 
L 691.739073 98.590447 
L 691.739073 104.316495 
L 693.269184 104.316495 
L 693.269184 99.663644 
L 694.799295 99.663644 
L 694.799295 118.466709 
L 696.329407 118.466709 
L 696.329407 127.914161 
L 697.859518 127.914161 
L 697.859518 126.670351 
L 699.389629 126.670351 
L 699.389629 122.386546 
L 700.919741 122.386546 
L 700.919741 130.677252 
L 702.449852 130.677252 
L 702.449852 129.355796 
L 703.979963 129.355796 
L 703.979963 134.82178 
L 705.510074 134.82178 
L 705.510074 145.66191 
L 707.040186 145.66191 
L 707.040186 167.402324 
L 708.570297 167.402324 
L 708.570297 171.435744 
L 710.100408 171.435744 
L 710.100408 177.484398 
L 711.630519 177.484398 
L 711.630519 170.548914 
L 713.160631 170.548914 
L 713.160631 175.2581 
L 714.690742 175.2581 
L 714.690742 164.313633 
L 716.220853 164.313633 
L 716.220853 173.140785 
L 717.750964 173.140785 
L 717.750964 166.907977 
L 719.281076 166.907977 
L 719.281076 178.944739 
L 720.811187 178.944739 
L 720.811187 204.090505 
L 722.341298 204.090505 
L 722.341298 212.816054 
L 723.87141 212.816054 
L 723.87141 210.437981 
L 725.401521 210.437981 
L 725.401521 212.113595 
L 726.931632 212.113595 
L 726.931632 218.517667 
L 728.461743 218.517667 
L 728.461743 214.37188 
L 729.991855 214.37188 
L 729.991855 208.292628 
L 731.521966 208.292628 
L 731.521966 214.190547 
L 733.052077 214.190547 
L 733.052077 211.801102 
L 734.582188 211.801102 
L 734.582188 201.472072 
L 736.1123 201.472072 
L 736.1123 209.516039 
L 737.642411 209.516039 
L 737.642411 198.703426 
L 739.172522 198.703426 
L 739.172522 202.219973 
L 740.702633 202.219973 
L 740.702633 202.370056 
L 742.232745 202.370056 
L 742.232745 197.974622 
L 743.762856 197.974622 
L 743.762856 196.433987 
L 745.292967 196.433987 
L 745.292967 201.298899 
L 746.823078 201.298899 
L 746.823078 209.072429 
L 748.35319 209.072429 
L 748.35319 214.148751 
L 749.883301 214.148751 
L 749.883301 216.059734 
L 751.413412 216.059734 
L 751.413412 215.877793 
L 752.943524 215.877793 
L 752.943524 218.285988 
L 754.473635 218.285988 
L 754.473635 207.372856 
L 756.003746 207.372856 
L 756.003746 216.486504 
L 757.533857 216.486504 
L 757.533857 217.148339 
L 759.063969 217.148339 
L 759.063969 218.283818 
L 760.59408 218.283818 
L 760.59408 219.046345 
L 762.124191 219.046345 
L 762.124191 218.135774 
L 763.654302 218.135774 
L 763.654302 214.433163 
L 765.184414 214.433163 
L 765.184414 217.583746 
L 766.714525 217.583746 
L 766.714525 217.837864 
L 768.244636 217.837864 
L 768.244636 217.118956 
L 769.774747 217.118956 
L 769.774747 218.757939 
L 771.304859 218.757939 
L 771.304859 214.721872 
L 772.83497 214.721872 
L 772.83497 211.619118 
L 774.365081 211.619118 
L 774.365081 214.493058 
L 775.895193 214.493058 
L 775.895193 211.167001 
L 777.425304 211.167001 
L 777.425304 225.793855 
L 778.955415 225.793855 
L 778.955415 229.970283 
L 780.485526 229.970283 
L 780.485526 229.556837 
L 782.015638 229.556837 
L 782.015638 231.676887 
L 783.545749 231.676887 
L 783.545749 230.553995 
L 785.07586 230.553995 
L 785.07586 227.441432 
L 786.605971 227.441432 
L 786.605971 227.671679 
L 788.136083 227.671679 
L 788.136083 227.163834 
L 789.666194 227.163834 
L 789.666194 227.2841 
L 791.196305 227.2841 
L 791.196305 229.754837 
L 792.726416 229.754837 
L 792.726416 228.595834 
L 794.256528 228.595834 
L 794.256528 228.88463 
L 795.786639 228.88463 
L 795.786639 230.181563 
L 797.31675 230.181563 
L 797.31675 229.858524 
L 798.846862 229.858524 
L 798.846862 228.935366 
L 800.376973 228.935366 
L 800.376973 227.348335 
L 801.907084 227.348335 
L 801.907084 215.450633 
L 803.437195 215.450633 
L 803.437195 210.191111 
L 804.967307 210.191111 
L 804.967307 203.128243 
L 806.497418 203.128243 
L 806.497418 201.751363 
L 808.027529 201.751363 
L 808.027529 198.860323 
L 809.55764 198.860323 
L 809.55764 200.168628 
L 811.087752 200.168628 
L 811.087752 203.166263 
L 812.617863 203.166263 
L 812.617863 208.049795 
L 814.147974 208.049795 
L 814.147974 205.561784 
L 815.678085 205.561784 
L 815.678085 195.01453 
L 817.208197 195.01453 
L 817.208197 196.994826 
L 818.738308 196.994826 
L 818.738308 199.69685 
L 820.268419 199.69685 
L 820.268419 200.112423 
L 821.79853 200.112423 
L 821.79853 204.698869 
L 823.328642 204.698869 
L 823.328642 214.185512 
L 824.858753 214.185512 
L 824.858753 194.46975 
L 826.388864 194.46975 
L 826.388864 184.886928 
L 827.918976 184.886928 
L 827.918976 183.450631 
L 829.449087 183.450631 
L 829.449087 180.440627 
L 830.979198 180.440627 
L 830.979198 180.296446 
L 832.509309 180.296446 
L 832.509309 181.298291 
L 834.039421 181.298291 
L 834.039421 180.763059 
L 835.569532 180.763059 
L 835.569532 170.739709 
L 837.099643 170.739709 
L 837.099643 170.373657 
L 838.629754 170.373657 
L 838.629754 176.839446 
L 840.159866 176.839446 
L 840.159866 182.217021 
L 841.689977 182.217021 
L 841.689977 174.014941 
L 843.220088 174.014941 
L 843.220088 180.063856 
L 844.750199 180.063856 
L 844.750199 173.776101 
L 846.280311 173.776101 
L 846.280311 182.002008 
L 847.810422 182.002008 
L 847.810422 185.709176 
L 849.340533 185.709176 
L 849.340533 183.051551 
L 850.870645 183.051551 
L 850.870645 185.836647 
L 852.400756 185.836647 
L 852.400756 187.048774 
L 853.930867 187.048774 
L 853.930867 181.548155 
L 855.460978 181.548155 
L 855.460978 183.686694 
L 858.521201 183.722674 
L 858.521201 189.759088 
L 860.051312 189.759088 
L 860.051312 192.909107 
L 861.581423 192.909107 
L 861.581423 187.657311 
L 863.111535 187.657311 
L 863.111535 172.177394 
L 864.641646 172.177394 
L 864.641646 170.602038 
L 866.171757 170.602038 
L 866.171757 169.713168 
L 867.701868 169.713168 
L 867.701868 168.396487 
L 869.23198 168.396487 
L 869.23198 170.828379 
L 870.762091 170.828379 
L 870.762091 170.059775 
L 872.292202 170.059775 
L 872.292202 170.716706 
L 873.822314 170.716706 
L 873.822314 172.617663 
L 875.352425 172.617663 
L 875.352425 175.325373 
L 876.882536 175.325373 
L 876.882536 174.72773 
L 878.412647 174.72773 
L 878.412647 173.132756 
L 879.942759 173.132756 
L 879.942759 175.891377 
L 881.47287 175.891377 
L 881.47287 173.643986 
L 883.002981 173.643986 
L 883.002981 174.867831 
L 884.533092 174.867831 
L 884.533092 186.246881 
L 886.063204 186.246881 
L 886.063204 188.584678 
L 887.593315 188.584678 
L 887.593315 188.905808 
L 889.123426 188.905808 
L 889.123426 181.606444 
L 890.653537 181.606444 
L 890.653537 189.688474 
L 892.183649 189.688474 
L 892.183649 190.19098 
L 893.71376 190.19098 
L 893.71376 189.845892 
L 895.243871 189.845892 
L 895.243871 186.793875 
L 896.773982 186.793875 
L 896.773982 185.805441 
L 898.304094 185.805441 
L 898.304094 186.594921 
L 899.834205 186.594921 
L 899.834205 188.196622 
L 901.364316 188.196622 
L 901.364316 184.908456 
L 902.894428 184.908456 
L 902.894428 181.318559 
L 904.424539 181.318559 
L 904.424539 180.546482 
L 905.101932 180.546482 
L 905.101932 180.546482 
" clip-path="url(#pa0e5007d09)" style="fill: none; stroke: #3572c6; stroke-width: 1.2; stroke-linecap: square"/>
   </g>
   <g id="patch_3">
    <path d="M 52.88375 300.96 
L 52.88375 7.2 
" style="fill: none; stroke: #899ab8; stroke-width: 1.12; stroke-linejoin: miter; stroke-linecap: square"/>
   </g>
   <g id="patch_4">
    <path d="M 945.68375 300.96 
L 945.68375 7.2 
" style="fill: none; stroke: #899ab8; stroke-width: 1.12; stroke-linejoin: miter; stroke-linecap: square"/>
   </g>
   <g id="patch_5">
    <path d="M 52.88375 300.96 
L 945.68375 300.96 
" style="fill: none; stroke: #899ab8; stroke-width: 1.12; stroke-linejoin: miter; stroke-linecap: square"/>
   </g>
   <g id="patch_6">
    <path d="M 52.88375 7.2 
L 945.68375 7.2 
" style="fill: none; stroke: #899ab8; stroke-width: 1.12; stroke-linejoin: miter; stroke-linecap: square"/>
   </g>
  </g>
 </g>
 <defs>
  <clipPath id="pa0e5007d09">
   <rect x="52.88375" y="7.2" width="892.8" height="293.76"/>
  </clipPath>
 </defs>
</svg>
