<?xml version="1.0" encoding="utf-8" standalone="no"?>
<!DOCTYPE svg PUBLIC "-//W3C//DTD SVG 1.1//EN"
  "http://www.w3.org/Graphics/SVG/1.1/DTD/svg11.dtd">
<svg xmlns:xlink="http://www.w3.org/1999/xlink" width="934.976pt" height="358.470384pt" viewBox="0 0 934.976 358.470384" xmlns="http://www.w3.org/2000/svg" version="1.1">
 <metadata>
  <rdf:RDF xmlns:dc="http://purl.org/dc/elements/1.1/" xmlns:cc="http://creativecommons.org/ns#" xmlns:rdf="http://www.w3.org/1999/02/22-rdf-syntax-ns#">
   <cc:Work>
    <dc:type rdf:resource="http://purl.org/dc/dcmitype/StillImage"/>
    <dc:date>2022-04-15T23:34:44.080597</dc:date>
    <dc:format>image/svg+xml</dc:format>
    <dc:creator>
     <cc:Agent>
      <dc:title>Matplotlib v3.5.1, https://matplotlib.org/</dc:title>
     </cc:Agent>
    </dc:creator>
   </cc:Work>
  </rdf:RDF>
 </metadata>
 <defs>
  <style type="text/css">*{stroke-linejoin: round; stroke-linecap: butt}</style>
 </defs>
 <g id="figure_1">
  <g id="patch_1">
   <path d="M 0 358.470384 
L 934.976 358.470384 
L 934.976 0 
L 0 0 
z
" style="fill: #373e4b"/>
  </g>
  <g id="axes_1">
   <g id="patch_2">
    <path d="M 34.976 301.139691 
L 927.776 301.139691 
L 927.776 7.379691 
L 34.976 7.379691 
z
" style="fill: #373e4b"/>
   </g>
   <g id="matplotlib.axis_1">
    <g id="xtick_1">
     <g id="line2d_1">
      <path d="M 157.847479 301.139691 
L 157.847479 7.379691 
" clip-path="url(#p8f4521d23a)" style="fill: none; stroke: #546379; stroke-width: 1.12; stroke-linecap: square"/>
     </g>
     <g id="line2d_2"/>
     <g id="text_1">
      <!-- 2012 -->
      <g style="fill: #b1bed6" transform="translate(128.766439 331.064545)rotate(-30)scale(0.126 -0.126)">
       <defs>
        <path id="DejaVuSans-32" d="M 1228 531 
L 3431 531 
L 3431 0 
L 469 0 
L 469 531 
Q 828 903 1448 1529 
Q 2069 2156 2228 2338 
Q 2531 2678 2651 2914 
Q 2772 3150 2772 3378 
Q 2772 3750 2511 3984 
Q 2250 4219 1831 4219 
Q 1534 4219 1204 4116 
Q 875 4013 500 3803 
L 500 4441 
Q 881 4594 1212 4672 
Q 1544 4750 1819 4750 
Q 2544 4750 2975 4387 
Q 3406 4025 3406 3419 
Q 3406 3131 3298 2873 
Q 3191 2616 2906 2266 
Q 2828 2175 2409 1742 
Q 1991 1309 1228 531 
z
" transform="scale(0.015625)"/>
        <path id="DejaVuSans-30" d="M 2034 4250 
Q 1547 4250 1301 3770 
Q 1056 3291 1056 2328 
Q 1056 1369 1301 889 
Q 1547 409 2034 409 
Q 2525 409 2770 889 
Q 3016 1369 3016 2328 
Q 3016 3291 2770 3770 
Q 2525 4250 2034 4250 
z
M 2034 4750 
Q 2819 4750 3233 4129 
Q 3647 3509 3647 2328 
Q 3647 1150 3233 529 
Q 2819 -91 2034 -91 
Q 1250 -91 836 529 
Q 422 1150 422 2328 
Q 422 3509 836 4129 
Q 1250 4750 2034 4750 
z
" transform="scale(0.015625)"/>
        <path id="DejaVuSans-31" d="M 794 531 
L 1825 531 
L 1825 4091 
L 703 3866 
L 703 4441 
L 1819 4666 
L 2450 4666 
L 2450 531 
L 3481 531 
L 3481 0 
L 794 0 
L 794 531 
z
" transform="scale(0.015625)"/>
       </defs>
       <use xlink:href="#DejaVuSans-32"/>
       <use xlink:href="#DejaVuSans-30" x="63.623047"/>
       <use xlink:href="#DejaVuSans-31" x="127.246094"/>
       <use xlink:href="#DejaVuSans-32" x="190.869141"/>
      </g>
     </g>
    </g>
    <g id="xtick_2">
     <g id="line2d_3">
      <path d="M 299.719512 301.139691 
L 299.719512 7.379691 
" clip-path="url(#p8f4521d23a)" style="fill: none; stroke: #546379; stroke-width: 1.12; stroke-linecap: square"/>
     </g>
     <g id="line2d_4"/>
     <g id="text_2">
      <!-- 2014 -->
      <g style="fill: #b1bed6" transform="translate(270.638472 331.064545)rotate(-30)scale(0.126 -0.126)">
       <defs>
        <path id="DejaVuSans-34" d="M 2419 4116 
L 825 1625 
L 2419 1625 
L 2419 4116 
z
M 2253 4666 
L 3047 4666 
L 3047 1625 
L 3713 1625 
L 3713 1100 
L 3047 1100 
L 3047 0 
L 2419 0 
L 2419 1100 
L 313 1100 
L 313 1709 
L 2253 4666 
z
" transform="scale(0.015625)"/>
       </defs>
       <use xlink:href="#DejaVuSans-32"/>
       <use xlink:href="#DejaVuSans-30" x="63.623047"/>
       <use xlink:href="#DejaVuSans-31" x="127.246094"/>
       <use xlink:href="#DejaVuSans-34" x="190.869141"/>
      </g>
     </g>
    </g>
    <g id="xtick_3">
     <g id="line2d_5">
      <path d="M 441.397465 301.139691 
L 441.397465 7.379691 
" clip-path="url(#p8f4521d23a)" style="fill: none; stroke: #546379; stroke-width: 1.12; stroke-linecap: square"/>
     </g>
     <g id="line2d_6"/>
     <g id="text_3">
      <!-- 2016 -->
      <g style="fill: #b1bed6" transform="translate(412.316426 331.064545)rotate(-30)scale(0.126 -0.126)">
       <defs>
        <path id="DejaVuSans-36" d="M 2113 2584 
Q 1688 2584 1439 2293 
Q 1191 2003 1191 1497 
Q 1191 994 1439 701 
Q 1688 409 2113 409 
Q 2538 409 2786 701 
Q 3034 994 3034 1497 
Q 3034 2003 2786 2293 
Q 2538 2584 2113 2584 
z
M 3366 4563 
L 3366 3988 
Q 3128 4100 2886 4159 
Q 2644 4219 2406 4219 
Q 1781 4219 1451 3797 
Q 1122 3375 1075 2522 
Q 1259 2794 1537 2939 
Q 1816 3084 2150 3084 
Q 2853 3084 3261 2657 
Q 3669 2231 3669 1497 
Q 3669 778 3244 343 
Q 2819 -91 2113 -91 
Q 1303 -91 875 529 
Q 447 1150 447 2328 
Q 447 3434 972 4092 
Q 1497 4750 2381 4750 
Q 2619 4750 2861 4703 
Q 3103 4656 3366 4563 
z
" transform="scale(0.015625)"/>
       </defs>
       <use xlink:href="#DejaVuSans-32"/>
       <use xlink:href="#DejaVuSans-30" x="63.623047"/>
       <use xlink:href="#DejaVuSans-31" x="127.246094"/>
       <use xlink:href="#DejaVuSans-36" x="190.869141"/>
      </g>
     </g>
    </g>
    <g id="xtick_4">
     <g id="line2d_7">
      <path d="M 583.269498 301.139691 
L 583.269498 7.379691 
" clip-path="url(#p8f4521d23a)" style="fill: none; stroke: #546379; stroke-width: 1.12; stroke-linecap: square"/>
     </g>
     <g id="line2d_8"/>
     <g id="text_4">
      <!-- 2018 -->
      <g style="fill: #b1bed6" transform="translate(554.188459 331.064545)rotate(-30)scale(0.126 -0.126)">
       <defs>
        <path id="DejaVuSans-38" d="M 2034 2216 
Q 1584 2216 1326 1975 
Q 1069 1734 1069 1313 
Q 1069 891 1326 650 
Q 1584 409 2034 409 
Q 2484 409 2743 651 
Q 3003 894 3003 1313 
Q 3003 1734 2745 1975 
Q 2488 2216 2034 2216 
z
M 1403 2484 
Q 997 2584 770 2862 
Q 544 3141 544 3541 
Q 544 4100 942 4425 
Q 1341 4750 2034 4750 
Q 2731 4750 3128 4425 
Q 3525 4100 3525 3541 
Q 3525 3141 3298 2862 
Q 3072 2584 2669 2484 
Q 3125 2378 3379 2068 
Q 3634 1759 3634 1313 
Q 3634 634 3220 271 
Q 2806 -91 2034 -91 
Q 1263 -91 848 271 
Q 434 634 434 1313 
Q 434 1759 690 2068 
Q 947 2378 1403 2484 
z
M 1172 3481 
Q 1172 3119 1398 2916 
Q 1625 2713 2034 2713 
Q 2441 2713 2670 2916 
Q 2900 3119 2900 3481 
Q 2900 3844 2670 4047 
Q 2441 4250 2034 4250 
Q 1625 4250 1398 4047 
Q 1172 3844 1172 3481 
z
" transform="scale(0.015625)"/>
       </defs>
       <use xlink:href="#DejaVuSans-32"/>
       <use xlink:href="#DejaVuSans-30" x="63.623047"/>
       <use xlink:href="#DejaVuSans-31" x="127.246094"/>
       <use xlink:href="#DejaVuSans-38" x="190.869141"/>
      </g>
     </g>
    </g>
    <g id="xtick_5">
     <g id="line2d_9">
      <path d="M 724.947452 301.139691 
L 724.947452 7.379691 
" clip-path="url(#p8f4521d23a)" style="fill: none; stroke: #546379; stroke-width: 1.12; stroke-linecap: square"/>
     </g>
     <g id="line2d_10"/>
     <g id="text_5">
      <!-- 2020 -->
      <g style="fill: #b1bed6" transform="translate(695.866412 331.064545)rotate(-30)scale(0.126 -0.126)">
       <use xlink:href="#DejaVuSans-32"/>
       <use xlink:href="#DejaVuSans-30" x="63.623047"/>
       <use xlink:href="#DejaVuSans-32" x="127.246094"/>
       <use xlink:href="#DejaVuSans-30" x="190.869141"/>
      </g>
     </g>
    </g>
    <g id="xtick_6">
     <g id="line2d_11">
      <path d="M 866.819485 301.139691 
L 866.819485 7.379691 
" clip-path="url(#p8f4521d23a)" style="fill: none; stroke: #546379; stroke-width: 1.12; stroke-linecap: square"/>
     </g>
     <g id="line2d_12"/>
     <g id="text_6">
      <!-- 2022 -->
      <g style="fill: #b1bed6" transform="translate(837.738445 331.064545)rotate(-30)scale(0.126 -0.126)">
       <use xlink:href="#DejaVuSans-32"/>
       <use xlink:href="#DejaVuSans-30" x="63.623047"/>
       <use xlink:href="#DejaVuSans-32" x="127.246094"/>
       <use xlink:href="#DejaVuSans-32" x="190.869141"/>
      </g>
     </g>
    </g>
    <g id="text_7">
     <!-- Date -->
     <g style="fill: #b1bed6" transform="translate(464.166875 348.275634)scale(0.144 -0.144)">
      <defs>
       <path id="DejaVuSans-44" d="M 1259 4147 
L 1259 519 
L 2022 519 
Q 2988 519 3436 956 
Q 3884 1394 3884 2338 
Q 3884 3275 3436 3711 
Q 2988 4147 2022 4147 
L 1259 4147 
z
M 628 4666 
L 1925 4666 
Q 3281 4666 3915 4102 
Q 4550 3538 4550 2338 
Q 4550 1131 3912 565 
Q 3275 0 1925 0 
L 628 0 
L 628 4666 
z
" transform="scale(0.015625)"/>
       <path id="DejaVuSans-61" d="M 2194 1759 
Q 1497 1759 1228 1600 
Q 959 1441 959 1056 
Q 959 750 1161 570 
Q 1363 391 1709 391 
Q 2188 391 2477 730 
Q 2766 1069 2766 1631 
L 2766 1759 
L 2194 1759 
z
M 3341 1997 
L 3341 0 
L 2766 0 
L 2766 531 
Q 2569 213 2275 61 
Q 1981 -91 1556 -91 
Q 1019 -91 701 211 
Q 384 513 384 1019 
Q 384 1609 779 1909 
Q 1175 2209 1959 2209 
L 2766 2209 
L 2766 2266 
Q 2766 2663 2505 2880 
Q 2244 3097 1772 3097 
Q 1472 3097 1187 3025 
Q 903 2953 641 2809 
L 641 3341 
Q 956 3463 1253 3523 
Q 1550 3584 1831 3584 
Q 2591 3584 2966 3190 
Q 3341 2797 3341 1997 
z
" transform="scale(0.015625)"/>
       <path id="DejaVuSans-74" d="M 1172 4494 
L 1172 3500 
L 2356 3500 
L 2356 3053 
L 1172 3053 
L 1172 1153 
Q 1172 725 1289 603 
Q 1406 481 1766 481 
L 2356 481 
L 2356 0 
L 1766 0 
Q 1100 0 847 248 
Q 594 497 594 1153 
L 594 3053 
L 172 3053 
L 172 3500 
L 594 3500 
L 594 4494 
L 1172 4494 
z
" transform="scale(0.015625)"/>
       <path id="DejaVuSans-65" d="M 3597 1894 
L 3597 1613 
L 953 1613 
Q 991 1019 1311 708 
Q 1631 397 2203 397 
Q 2534 397 2845 478 
Q 3156 559 3463 722 
L 3463 178 
Q 3153 47 2828 -22 
Q 2503 -91 2169 -91 
Q 1331 -91 842 396 
Q 353 884 353 1716 
Q 353 2575 817 3079 
Q 1281 3584 2069 3584 
Q 2775 3584 3186 3129 
Q 3597 2675 3597 1894 
z
M 3022 2063 
Q 3016 2534 2758 2815 
Q 2500 3097 2075 3097 
Q 1594 3097 1305 2825 
Q 1016 2553 972 2059 
L 3022 2063 
z
" transform="scale(0.015625)"/>
      </defs>
      <use xlink:href="#DejaVuSans-44"/>
      <use xlink:href="#DejaVuSans-61" x="77.001953"/>
      <use xlink:href="#DejaVuSans-74" x="138.28125"/>
      <use xlink:href="#DejaVuSans-65" x="177.490234"/>
     </g>
    </g>
   </g>
   <g id="matplotlib.axis_2">
    <g id="ytick_1">
     <g id="line2d_13">
      <path d="M 34.976 254.863557 
L 927.776 254.863557 
" clip-path="url(#p8f4521d23a)" style="fill: none; stroke: #546379; stroke-width: 1.12; stroke-linecap: square"/>
     </g>
     <g id="line2d_14"/>
     <g id="text_8">
      <!-- $\mathdefault{10^{0}}$ -->
      <g style="fill: #b1bed6" transform="translate(7.2 259.650573)scale(0.126 -0.126)">
       <use xlink:href="#DejaVuSans-31" transform="translate(0 0.765625)"/>
       <use xlink:href="#DejaVuSans-30" transform="translate(63.623047 0.765625)"/>
       <use xlink:href="#DejaVuSans-30" transform="translate(128.203125 39.046875)scale(0.7)"/>
      </g>
     </g>
    </g>
    <g id="ytick_2">
     <g id="line2d_15">
      <path d="M 34.976 206.288249 
L 927.776 206.288249 
" clip-path="url(#p8f4521d23a)" style="fill: none; stroke: #546379; stroke-width: 1.12; stroke-linecap: square"/>
     </g>
     <g id="line2d_16"/>
     <g id="text_9">
      <!-- $\mathdefault{10^{1}}$ -->
      <g style="fill: #b1bed6" transform="translate(7.2 211.075264)scale(0.126 -0.126)">
       <use xlink:href="#DejaVuSans-31" transform="translate(0 0.684375)"/>
       <use xlink:href="#DejaVuSans-30" transform="translate(63.623047 0.684375)"/>
       <use xlink:href="#DejaVuSans-31" transform="translate(128.203125 38.965625)scale(0.7)"/>
      </g>
     </g>
    </g>
    <g id="ytick_3">
     <g id="line2d_17">
      <path d="M 34.976 157.71294 
L 927.776 157.71294 
" clip-path="url(#p8f4521d23a)" style="fill: none; stroke: #546379; stroke-width: 1.12; stroke-linecap: square"/>
     </g>
     <g id="line2d_18"/>
     <g id="text_10">
      <!-- $\mathdefault{10^{2}}$ -->
      <g style="fill: #b1bed6" transform="translate(7.2 162.499956)scale(0.126 -0.126)">
       <use xlink:href="#DejaVuSans-31" transform="translate(0 0.765625)"/>
       <use xlink:href="#DejaVuSans-30" transform="translate(63.623047 0.765625)"/>
       <use xlink:href="#DejaVuSans-32" transform="translate(128.203125 39.046875)scale(0.7)"/>
      </g>
     </g>
    </g>
    <g id="ytick_4">
     <g id="line2d_19">
      <path d="M 34.976 109.137632 
L 927.776 109.137632 
" clip-path="url(#p8f4521d23a)" style="fill: none; stroke: #546379; stroke-width: 1.12; stroke-linecap: square"/>
     </g>
     <g id="line2d_20"/>
     <g id="text_11">
      <!-- $\mathdefault{10^{3}}$ -->
      <g style="fill: #b1bed6" transform="translate(7.2 113.924648)scale(0.126 -0.126)">
       <defs>
        <path id="DejaVuSans-33" d="M 2597 2516 
Q 3050 2419 3304 2112 
Q 3559 1806 3559 1356 
Q 3559 666 3084 287 
Q 2609 -91 1734 -91 
Q 1441 -91 1130 -33 
Q 819 25 488 141 
L 488 750 
Q 750 597 1062 519 
Q 1375 441 1716 441 
Q 2309 441 2620 675 
Q 2931 909 2931 1356 
Q 2931 1769 2642 2001 
Q 2353 2234 1838 2234 
L 1294 2234 
L 1294 2753 
L 1863 2753 
Q 2328 2753 2575 2939 
Q 2822 3125 2822 3475 
Q 2822 3834 2567 4026 
Q 2313 4219 1838 4219 
Q 1578 4219 1281 4162 
Q 984 4106 628 3988 
L 628 4550 
Q 988 4650 1302 4700 
Q 1616 4750 1894 4750 
Q 2613 4750 3031 4423 
Q 3450 4097 3450 3541 
Q 3450 3153 3228 2886 
Q 3006 2619 2597 2516 
z
" transform="scale(0.015625)"/>
       </defs>
       <use xlink:href="#DejaVuSans-31" transform="translate(0 0.765625)"/>
       <use xlink:href="#DejaVuSans-30" transform="translate(63.623047 0.765625)"/>
       <use xlink:href="#DejaVuSans-33" transform="translate(128.203125 39.046875)scale(0.7)"/>
      </g>
     </g>
    </g>
    <g id="ytick_5">
     <g id="line2d_21">
      <path d="M 34.976 60.562324 
L 927.776 60.562324 
" clip-path="url(#p8f4521d23a)" style="fill: none; stroke: #546379; stroke-width: 1.12; stroke-linecap: square"/>
     </g>
     <g id="line2d_22"/>
     <g id="text_12">
      <!-- $\mathdefault{10^{4}}$ -->
      <g style="fill: #b1bed6" transform="translate(7.2 65.34934)scale(0.126 -0.126)">
       <use xlink:href="#DejaVuSans-31" transform="translate(0 0.684375)"/>
       <use xlink:href="#DejaVuSans-30" transform="translate(63.623047 0.684375)"/>
       <use xlink:href="#DejaVuSans-34" transform="translate(128.203125 38.965625)scale(0.7)"/>
      </g>
     </g>
    </g>
    <g id="ytick_6">
     <g id="line2d_23">
      <path d="M 34.976 11.987016 
L 927.776 11.987016 
" clip-path="url(#p8f4521d23a)" style="fill: none; stroke: #546379; stroke-width: 1.12; stroke-linecap: square"/>
     </g>
     <g id="line2d_24"/>
     <g id="text_13">
      <!-- $\mathdefault{10^{5}}$ -->
      <g style="fill: #b1bed6" transform="translate(7.2 16.774031)scale(0.126 -0.126)">
       <defs>
        <path id="DejaVuSans-35" d="M 691 4666 
L 3169 4666 
L 3169 4134 
L 1269 4134 
L 1269 2991 
Q 1406 3038 1543 3061 
Q 1681 3084 1819 3084 
Q 2600 3084 3056 2656 
Q 3513 2228 3513 1497 
Q 3513 744 3044 326 
Q 2575 -91 1722 -91 
Q 1428 -91 1123 -41 
Q 819 9 494 109 
L 494 744 
Q 775 591 1075 516 
Q 1375 441 1709 441 
Q 2250 441 2565 725 
Q 2881 1009 2881 1497 
Q 2881 1984 2565 2268 
Q 2250 2553 1709 2553 
Q 1456 2553 1204 2497 
Q 953 2441 691 2322 
L 691 4666 
z
" transform="scale(0.015625)"/>
       </defs>
       <use xlink:href="#DejaVuSans-31" transform="translate(0 0.684375)"/>
       <use xlink:href="#DejaVuSans-30" transform="translate(63.623047 0.684375)"/>
       <use xlink:href="#DejaVuSans-35" transform="translate(128.203125 38.965625)scale(0.7)"/>
      </g>
     </g>
    </g>
    <g id="ytick_7">
     <g id="line2d_25"/>
    </g>
    <g id="ytick_8">
     <g id="line2d_26"/>
    </g>
    <g id="ytick_9">
     <g id="line2d_27"/>
    </g>
    <g id="ytick_10">
     <g id="line2d_28"/>
    </g>
    <g id="ytick_11">
     <g id="line2d_29"/>
    </g>
    <g id="ytick_12">
     <g id="line2d_30"/>
    </g>
    <g id="ytick_13">
     <g id="line2d_31"/>
    </g>
    <g id="ytick_14">
     <g id="line2d_32"/>
    </g>
    <g id="ytick_15">
     <g id="line2d_33"/>
    </g>
    <g id="ytick_16">
     <g id="line2d_34"/>
    </g>
    <g id="ytick_17">
     <g id="line2d_35"/>
    </g>
    <g id="ytick_18">
     <g id="line2d_36"/>
    </g>
    <g id="ytick_19">
     <g id="line2d_37"/>
    </g>
    <g id="ytick_20">
     <g id="line2d_38"/>
    </g>
    <g id="ytick_21">
     <g id="line2d_39"/>
    </g>
    <g id="ytick_22">
     <g id="line2d_40"/>
    </g>
    <g id="ytick_23">
     <g id="line2d_41"/>
    </g>
    <g id="ytick_24">
     <g id="line2d_42"/>
    </g>
    <g id="ytick_25">
     <g id="line2d_43"/>
    </g>
    <g id="ytick_26">
     <g id="line2d_44"/>
    </g>
    <g id="ytick_27">
     <g id="line2d_45"/>
    </g>
    <g id="ytick_28">
     <g id="line2d_46"/>
    </g>
    <g id="ytick_29">
     <g id="line2d_47"/>
    </g>
    <g id="ytick_30">
     <g id="line2d_48"/>
    </g>
    <g id="ytick_31">
     <g id="line2d_49"/>
    </g>
    <g id="ytick_32">
     <g id="line2d_50"/>
    </g>
    <g id="ytick_33">
     <g id="line2d_51"/>
    </g>
    <g id="ytick_34">
     <g id="line2d_52"/>
    </g>
    <g id="ytick_35">
     <g id="line2d_53"/>
    </g>
    <g id="ytick_36">
     <g id="line2d_54"/>
    </g>
    <g id="ytick_37">
     <g id="line2d_55"/>
    </g>
    <g id="ytick_38">
     <g id="line2d_56"/>
    </g>
    <g id="ytick_39">
     <g id="line2d_57"/>
    </g>
    <g id="ytick_40">
     <g id="line2d_58"/>
    </g>
    <g id="ytick_41">
     <g id="line2d_59"/>
    </g>
    <g id="ytick_42">
     <g id="line2d_60"/>
    </g>
    <g id="ytick_43">
     <g id="line2d_61"/>
    </g>
    <g id="ytick_44">
     <g id="line2d_62"/>
    </g>
    <g id="ytick_45">
     <g id="line2d_63"/>
    </g>
    <g id="ytick_46">
     <g id="line2d_64"/>
    </g>
    <g id="ytick_47">
     <g id="line2d_65"/>
    </g>
    <g id="ytick_48">
     <g id="line2d_66"/>
    </g>
    <g id="ytick_49">
     <g id="line2d_67"/>
    </g>
    <g id="ytick_50">
     <g id="line2d_68"/>
    </g>
    <g id="ytick_51">
     <g id="line2d_69"/>
    </g>
    <g id="ytick_52">
     <g id="line2d_70"/>
    </g>
    <g id="ytick_53">
     <g id="line2d_71"/>
    </g>
    <g id="ytick_54">
     <g id="line2d_72"/>
    </g>
   </g>
   <g id="line2d_73">
    <path d="M 75.557818 287.786964 
L 75.557818 284.108807 
L 76.140056 284.108807 
L 76.140056 276.4163 
L 76.722295 276.4163 
L 76.722295 284.969987 
L 77.304533 284.969987 
L 77.304533 280.262553 
L 77.886771 280.262553 
L 77.886771 281.718026 
L 78.469009 281.718026 
L 78.469009 280.97774 
L 80.215724 280.97774 
L 80.215724 281.718026 
L 80.797962 281.718026 
L 80.797962 284.108807 
L 81.3802 284.108807 
L 81.3802 285.867824 
L 81.962438 285.867824 
L 81.962438 284.108807 
L 82.544676 284.108807 
L 82.544676 285.867824 
L 83.709152 285.867824 
L 83.709152 284.108807 
L 84.291391 284.108807 
L 84.291391 282.485237 
L 84.873629 282.485237 
L 84.873629 284.108807 
L 85.455867 284.108807 
L 85.455867 282.485237 
L 86.038105 282.485237 
L 86.038105 280.262553 
L 87.78482 280.262553 
L 87.78482 278.901049 
L 88.367058 278.901049 
L 88.367058 278.251891 
L 88.949296 278.251891 
L 88.949296 273.164339 
L 89.531534 273.164339 
L 89.531534 274.193616 
L 90.113772 274.193616 
L 90.113772 277.010592 
L 90.69601 277.010592 
L 90.69601 272.66794 
L 91.860487 272.66794 
L 91.860487 271.708866 
L 92.442725 271.708866 
L 92.442725 265.291226 
L 93.024963 265.291226 
L 93.024963 260.105095 
L 93.607201 260.105095 
L 93.607201 256.622574 
L 94.189439 256.622574 
L 94.189439 255.506124 
L 94.771678 255.506124 
L 94.771678 253.045553 
L 95.353916 253.045553 
L 95.353916 253.239988 
L 95.936154 253.239988 
L 95.936154 254.036157 
L 96.518392 254.036157 
L 96.518392 257.560328 
L 97.10063 257.560328 
L 97.10063 255.724737 
L 98.265107 255.724737 
L 98.265107 255.94564 
L 98.847345 255.94564 
L 98.847345 256.622574 
L 99.429583 256.622574 
L 99.429583 257.086241 
L 100.011821 257.086241 
L 100.011821 256.394508 
L 100.594059 256.394508 
L 100.594059 257.086241 
L 101.176297 257.086241 
L 101.176297 257.801428 
L 101.758536 257.801428 
L 101.758536 259.836353 
L 102.340774 259.836353 
L 102.340774 258.045315 
L 102.923012 258.045315 
L 102.923012 257.086241 
L 103.50525 257.086241 
L 103.50525 259.570991 
L 104.669726 259.570991 
L 104.669726 260.377305 
L 105.251965 260.377305 
L 105.251965 260.105095 
L 105.834203 260.105095 
L 105.834203 260.653074 
L 106.416441 260.653074 
L 106.416441 255.075579 
L 106.998679 255.075579 
L 106.998679 253.045553 
L 107.580917 253.045553 
L 107.580917 251.19384 
L 108.163155 251.19384 
L 108.163155 248.068887 
L 108.745394 248.068887 
L 108.745394 243.545699 
L 109.327632 243.545699 
L 109.327632 234.224801 
L 109.90987 234.224801 
L 109.90987 225.883669 
L 110.492108 225.883669 
L 110.492108 228.076703 
L 111.074346 228.076703 
L 111.074346 226.979811 
L 111.656584 226.979811 
L 111.656584 219.248274 
L 112.238823 219.248274 
L 112.238823 209.568356 
L 112.821061 209.568356 
L 112.821061 209.791334 
L 113.403299 209.791334 
L 113.403299 212.98526 
L 113.985537 212.98526 
L 113.985537 214.393179 
L 114.567775 214.393179 
L 114.567775 211.127946 
L 115.150013 211.127946 
L 115.150013 209.274672 
L 115.732252 209.274672 
L 115.732252 207.437056 
L 116.31449 207.437056 
L 116.31449 197.664359 
L 116.896728 197.664359 
L 116.896728 192.537795 
L 117.478966 192.537795 
L 117.478966 181.52747 
L 118.061204 181.52747 
L 118.061204 187.068176 
L 118.643442 187.068176 
L 118.643442 191.676175 
L 119.225681 191.676175 
L 119.225681 194.362395 
L 119.807919 194.362395 
L 119.807919 197.193075 
L 120.390157 197.193075 
L 120.390157 195.15626 
L 120.972395 195.15626 
L 120.972395 194.017624 
L 121.554633 194.017624 
L 121.554633 194.627757 
L 122.136871 194.627757 
L 122.136871 196.718683 
L 122.71911 196.718683 
L 122.71911 195.800752 
L 123.301348 195.800752 
L 123.301348 197.510729 
L 123.883586 197.510729 
L 123.883586 198.42067 
L 124.465824 198.42067 
L 124.465824 198.816644 
L 125.048062 198.816644 
L 125.048062 199.295779 
L 126.212539 199.28064 
L 126.212539 198.950305 
L 127.377015 199.039884 
L 127.377015 199.099816 
L 127.959253 199.099816 
L 127.959253 200.161377 
L 128.541491 200.161377 
L 128.541491 203.4871 
L 129.123729 203.4871 
L 129.123729 207.017989 
L 129.705968 207.017989 
L 129.705968 205.562517 
L 130.288206 205.562517 
L 130.288206 203.524078 
L 131.452682 203.542591 
L 131.452682 202.886138 
L 132.03492 202.886138 
L 132.03492 203.394937 
L 132.617158 203.394937 
L 132.617158 206.267163 
L 133.199397 206.267163 
L 133.199397 207.593572 
L 133.781635 207.593572 
L 133.781635 209.816256 
L 134.363873 209.816256 
L 134.363873 209.568356 
L 134.946111 209.568356 
L 134.946111 212.272971 
L 135.528349 212.272971 
L 135.528349 215.40852 
L 136.110587 215.40852 
L 136.110587 216.40694 
L 136.692826 216.40694 
L 136.692826 220.164769 
L 137.275064 220.164769 
L 137.275064 217.454969 
L 137.857302 217.454969 
L 137.857302 217.779807 
L 138.43954 217.779807 
L 138.43954 218.938602 
L 139.021778 218.938602 
L 139.021778 221.122895 
L 139.604016 221.122895 
L 139.604016 219.801384 
L 140.186255 219.801384 
L 140.186255 220.784676 
L 140.768493 220.784676 
L 140.768493 221.81605 
L 141.350731 221.81605 
L 141.350731 224.438881 
L 141.932969 224.438881 
L 141.932969 223.751974 
L 142.515207 223.751974 
L 142.515207 226.315316 
L 143.097445 226.315316 
L 143.097445 234.787394 
L 143.679684 234.787394 
L 143.679684 229.612752 
L 144.261922 229.612752 
L 144.261922 231.687245 
L 144.84416 231.687245 
L 144.84416 229.108943 
L 146.008636 229.171265 
L 146.008636 229.804826 
L 146.590874 229.804826 
L 146.590874 231.407824 
L 147.173113 231.407824 
L 147.173113 231.063673 
L 147.755351 231.063673 
L 147.755351 230.927569 
L 148.337589 230.927569 
L 148.337589 234.145641 
L 148.919827 234.145641 
L 148.919827 236.660041 
L 149.502065 236.660041 
L 149.502065 237.292516 
L 150.084303 237.292516 
L 150.084303 235.702945 
L 150.666542 235.702945 
L 150.666542 235.449283 
L 151.24878 235.449283 
L 151.24878 231.687245 
L 151.831018 231.687245 
L 151.831018 230.995511 
L 152.413256 230.995511 
L 152.413256 231.269489 
L 152.995494 231.269489 
L 152.995494 231.407824 
L 153.577732 231.407824 
L 153.577732 229.485667 
L 154.159971 229.485667 
L 154.159971 230.325741 
L 154.742209 230.325741 
L 154.742209 229.296464 
L 155.324447 229.296464 
L 155.324447 225.200551 
L 157.071161 225.148909 
L 157.071161 223.274669 
L 157.6534 223.274669 
L 157.6534 219.09287 
L 158.235638 219.09287 
L 158.235638 215.053958 
L 158.817876 215.053958 
L 158.817876 213.218367 
L 159.400114 213.218367 
L 159.400114 213.51342 
L 159.982352 213.51342 
L 159.982352 214.393179 
L 160.56459 214.393179 
L 160.56459 213.903265 
L 161.146829 213.903265 
L 161.146829 215.150067 
L 161.729067 215.150067 
L 161.729067 215.473632 
L 162.311305 215.473632 
L 162.311305 216.785199 
L 162.893543 216.785199 
L 162.893543 218.072811 
L 163.475781 218.072811 
L 163.475781 217.889207 
L 164.058019 217.889207 
L 164.058019 217.099809 
L 164.640257 217.099809 
L 164.640257 217.999178 
L 165.222496 217.999178 
L 165.222496 217.276642 
L 165.804734 217.276642 
L 165.804734 218.183746 
L 166.386972 218.183746 
L 166.386972 222.037416 
L 166.96921 222.037416 
L 166.96921 223.703754 
L 167.551448 223.703754 
L 167.551448 222.532755 
L 168.133686 222.532755 
L 168.133686 220.700962 
L 168.715925 220.700962 
L 168.715925 220.995427 
L 169.298163 220.995427 
L 169.298163 221.165557 
L 169.880401 221.165557 
L 169.880401 220.742777 
L 170.462639 220.742777 
L 170.462639 220.953108 
L 171.627115 220.995427 
L 171.627115 219.09287 
L 172.209354 219.09287 
L 172.209354 219.287304 
L 172.791592 219.287304 
L 172.791592 221.122895 
L 173.37383 221.122895 
L 173.37383 221.72815 
L 173.956068 221.72815 
L 173.956068 222.037416 
L 174.538306 222.037416 
L 174.538306 221.553441 
L 175.120544 221.553441 
L 175.120544 221.037831 
L 176.285021 221.08032 
L 176.285021 221.165557 
L 176.867259 221.165557 
L 176.867259 221.33707 
L 177.449497 221.33707 
L 177.449497 221.037831 
L 178.613973 220.953108 
L 178.613973 220.124082 
L 179.196212 220.124082 
L 179.196212 219.681633 
L 179.77845 219.681633 
L 179.77845 220.246378 
L 180.360688 220.246378 
L 180.360688 220.534523 
L 180.942926 220.534523 
L 180.942926 220.742777 
L 181.525164 220.742777 
L 181.525164 220.287301 
L 182.107402 220.287301 
L 182.107402 220.493118 
L 183.271879 220.493118 
L 183.271879 220.868724 
L 183.854117 220.868724 
L 183.854117 220.493118 
L 184.436355 220.493118 
L 184.436355 220.328304 
L 186.765308 220.246378 
L 186.765308 220.042944 
L 187.347546 220.042944 
L 187.347546 219.801384 
L 187.929784 219.801384 
L 187.929784 218.977064 
L 188.512022 218.977064 
L 188.512022 218.220854 
L 189.09426 218.220854 
L 189.09426 217.9258 
L 189.676499 217.9258 
L 189.676499 216.13604 
L 190.258737 216.13604 
L 190.258737 215.441051 
L 190.840975 215.441051 
L 190.840975 214.42418 
L 191.423213 214.42418 
L 191.423213 215.182201 
L 192.587689 215.117982 
L 192.587689 214.768229 
L 193.752166 214.705256 
L 193.752166 214.611147 
L 194.334404 214.611147 
L 194.334404 213.87302 
L 194.916642 213.87302 
L 194.916642 212.469999 
L 195.49888 212.469999 
L 195.49888 211.529787 
L 196.081118 211.529787 
L 196.081118 207.661007 
L 196.663357 207.661007 
L 196.663357 207.303818 
L 197.245595 207.303818 
L 197.245595 208.722955 
L 198.410071 208.62846 
L 198.410071 208.001455 
L 198.992309 208.001455 
L 198.992309 206.036604 
L 199.574547 206.036604 
L 199.574547 203.878641 
L 200.156786 203.878641 
L 200.156786 203.616808 
L 200.739024 203.616808 
L 200.739024 203.084562 
L 201.321262 203.084562 
L 201.321262 201.92108 
L 201.9035 201.92108 
L 201.9035 197.220508 
L 202.485738 197.220508 
L 202.485738 205.359669 
L 203.067976 205.359669 
L 203.067976 205.767334 
L 203.650215 205.767334 
L 203.650215 204.296773 
L 204.232453 204.296773 
L 204.232453 204.010786 
L 204.814691 204.010786 
L 204.814691 205.542144 
L 205.396929 205.542144 
L 205.396929 205.07892 
L 205.979167 205.07892 
L 205.979167 203.766029 
L 206.561405 203.766029 
L 206.561405 204.010786 
L 207.143644 204.010786 
L 207.143644 203.376553 
L 207.725882 203.376553 
L 207.725882 202.477185 
L 208.30812 202.477185 
L 208.30812 201.36255 
L 208.890358 201.36255 
L 208.890358 201.750262 
L 209.472596 201.750262 
L 209.472596 202.024239 
L 210.054834 202.024239 
L 210.054834 201.64843 
L 210.637073 201.64843 
L 210.637073 201.446231 
L 211.219311 201.446231 
L 211.219311 200.640126 
L 211.801549 200.640126 
L 211.801549 201.446231 
L 212.383787 201.446231 
L 212.383787 202.162574 
L 213.548263 202.266924 
L 213.548263 202.459583 
L 214.71274 202.54774 
L 214.71274 202.689562 
L 215.294978 202.689562 
L 215.294978 203.230053 
L 215.877216 203.230053 
L 215.877216 204.880648 
L 216.459454 204.880648 
L 216.459454 203.954051 
L 217.041692 203.954051 
L 217.041692 205.019242 
L 217.623931 205.019242 
L 217.623931 204.335199 
L 218.206169 204.335199 
L 218.206169 204.201013 
L 218.788407 204.201013 
L 218.788407 203.954051 
L 219.370645 203.954051 
L 219.370645 203.747318 
L 219.952883 203.747318 
L 219.952883 202.760832 
L 220.535121 202.760832 
L 220.535121 202.618532 
L 221.11736 202.618532 
L 221.11736 201.64843 
L 222.281836 201.580815 
L 222.281836 201.3125 
L 222.864074 201.3125 
L 222.864074 201.163059 
L 223.446312 201.163059 
L 223.446312 199.662409 
L 224.02855 199.662409 
L 224.02855 199.910418 
L 224.610789 199.910418 
L 224.610789 199.493579 
L 225.775265 199.570153 
L 225.775265 200.114094 
L 226.357503 200.114094 
L 226.357503 199.755071 
L 226.939741 199.755071 
L 226.939741 200.035524 
L 228.104218 199.941625 
L 228.104218 199.848142 
L 228.686456 199.848142 
L 228.686456 200.082631 
L 229.268694 200.082631 
L 229.268694 199.894832 
L 229.850932 199.894832 
L 229.850932 199.43252 
L 230.43317 199.43252 
L 230.43317 198.728006 
L 231.597647 198.683825 
L 231.597647 197.002036 
L 232.179885 197.002036 
L 232.179885 196.176204 
L 232.762123 196.176204 
L 232.762123 193.923497 
L 233.344361 193.923497 
L 233.344361 194.230956 
L 233.926599 194.230956 
L 233.926599 191.898966 
L 234.508837 191.898966 
L 234.508837 190.386688 
L 235.091076 190.386688 
L 235.091076 190.646395 
L 235.673314 190.646395 
L 235.673314 189.511613 
L 236.255552 189.511613 
L 236.255552 187.845757 
L 236.83779 187.845757 
L 236.83779 187.557305 
L 237.420028 187.557305 
L 237.420028 185.032081 
L 238.002266 185.032081 
L 238.002266 183.480807 
L 238.584505 183.480807 
L 238.584505 182.749406 
L 239.748981 182.832516 
L 239.748981 180.872382 
L 240.331219 180.872382 
L 240.331219 180.316946 
L 240.913457 180.316946 
L 240.913457 176.013722 
L 241.495695 176.013722 
L 241.495695 173.672331 
L 242.077933 173.672331 
L 242.077933 174.879466 
L 242.660172 174.879466 
L 242.660172 173.685821 
L 243.24241 173.685821 
L 243.24241 171.459539 
L 243.824648 171.459539 
L 243.824648 165.162142 
L 244.406886 165.162142 
L 244.406886 164.663578 
L 244.989124 164.663578 
L 244.989124 160.218797 
L 245.571362 160.218797 
L 245.571362 159.357616 
L 246.153601 159.357616 
L 246.153601 154.339576 
L 246.735839 154.339576 
L 246.735839 150.300636 
L 247.318077 150.300636 
L 247.318077 144.512664 
L 247.900315 144.512664 
L 247.900315 153.02239 
L 248.482553 153.02239 
L 248.482553 157.71294 
L 249.064791 157.71294 
L 249.064791 159.040718 
L 249.64703 159.040718 
L 249.64703 152.587751 
L 250.229268 152.587751 
L 250.229268 150.241336 
L 250.811506 150.241336 
L 250.811506 151.071697 
L 251.393744 151.071697 
L 251.393744 149.941472 
L 251.975982 149.941472 
L 251.975982 157.028013 
L 252.55822 157.028013 
L 252.55822 154.585511 
L 253.140459 154.585511 
L 253.140459 155.069398 
L 253.722697 155.069398 
L 253.722697 154.64015 
L 254.304935 154.64015 
L 254.304935 155.32216 
L 254.887173 155.32216 
L 254.887173 153.290959 
L 255.469411 153.290959 
L 255.469411 153.514527 
L 256.051649 153.514527 
L 256.051649 152.720535 
L 256.633888 152.720535 
L 256.633888 151.617649 
L 257.216126 151.617649 
L 257.216126 151.808134 
L 257.798364 151.808134 
L 257.798364 152.292008 
L 258.380602 152.292008 
L 258.380602 153.618517 
L 258.96284 153.618517 
L 258.96284 155.416549 
L 259.545078 155.416549 
L 259.545078 156.463808 
L 260.127317 156.463808 
L 260.127317 156.905835 
L 260.709555 156.905835 
L 260.709555 157.734047 
L 261.291793 157.734047 
L 261.291793 156.151971 
L 261.874031 156.151971 
L 261.874031 156.021115 
L 262.456269 156.021115 
L 262.456269 156.907866 
L 263.038507 156.907866 
L 263.038507 158.872889 
L 263.620746 158.872889 
L 263.620746 160.650811 
L 264.202984 160.650811 
L 264.202984 162.409829 
L 264.785222 162.409829 
L 264.785222 163.781878 
L 265.36746 163.781878 
L 265.36746 160.433698 
L 265.949698 160.433698 
L 265.949698 158.139137 
L 266.531936 158.139137 
L 266.531936 158.344636 
L 267.114175 158.344636 
L 267.114175 159.471958 
L 268.278651 159.474251 
L 268.278651 158.355508 
L 268.860889 158.355508 
L 268.860889 157.988987 
L 269.443127 157.988987 
L 269.443127 156.443934 
L 270.025365 156.443934 
L 270.025365 156.693712 
L 270.607604 156.693712 
L 270.607604 156.372543 
L 271.189842 156.372543 
L 271.189842 157.130371 
L 271.77208 157.130371 
L 271.77208 156.356711 
L 272.354318 156.356711 
L 272.354318 158.121922 
L 272.936556 158.121922 
L 272.936556 157.861132 
L 273.518794 157.861132 
L 273.518794 155.619973 
L 274.101033 155.619973 
L 274.101033 155.887197 
L 274.683271 155.887197 
L 274.683271 154.271368 
L 275.265509 154.271368 
L 275.265509 153.032527 
L 275.847747 153.032527 
L 275.847747 152.163507 
L 276.429985 152.163507 
L 276.429985 153.409327 
L 277.012223 153.409327 
L 277.012223 154.189094 
L 277.594462 154.189094 
L 277.594462 152.747192 
L 278.1767 152.747192 
L 278.1767 153.166449 
L 278.758938 153.166449 
L 278.758938 150.743199 
L 279.341176 150.743199 
L 279.341176 153.338913 
L 280.505652 153.405887 
L 280.505652 153.064658 
L 281.087891 153.064658 
L 281.087891 152.668982 
L 281.670129 152.668982 
L 281.670129 156.91599 
L 282.252367 156.91599 
L 282.252367 153.656775 
L 282.834605 153.656775 
L 282.834605 153.154548 
L 283.416843 153.154548 
L 283.416843 152.602647 
L 283.999081 152.602647 
L 283.999081 151.355389 
L 284.58132 151.355389 
L 284.58132 150.029225 
L 285.163558 150.029225 
L 285.163558 144.60766 
L 285.745796 144.60766 
L 285.745796 142.703606 
L 286.328034 142.703606 
L 286.328034 145.364631 
L 286.910272 145.364631 
L 286.910272 141.466746 
L 287.49251 141.466746 
L 287.49251 142.776226 
L 288.074749 142.776226 
L 288.074749 140.146486 
L 288.656987 140.146486 
L 288.656987 135.177746 
L 289.239225 135.177746 
L 289.239225 132.654209 
L 289.821463 132.654209 
L 289.821463 128.840139 
L 290.403701 128.840139 
L 290.403701 126.589775 
L 290.985939 126.589775 
L 290.985939 121.864979 
L 291.568178 121.864979 
L 291.568178 113.97733 
L 292.150416 113.97733 
L 292.150416 113.464571 
L 292.732654 113.464571 
L 292.732654 108.842256 
L 293.314892 108.842256 
L 293.314892 110.108754 
L 293.89713 110.108754 
L 293.89713 106.430906 
L 294.479368 106.430906 
L 294.479368 116.48468 
L 295.061607 116.48468 
L 295.061607 109.590538 
L 295.643845 109.590538 
L 295.643845 111.714879 
L 296.226083 111.714879 
L 296.226083 116.965587 
L 296.808321 116.965587 
L 296.808321 117.109776 
L 297.390559 117.109776 
L 297.390559 119.42364 
L 297.972797 119.42364 
L 297.972797 117.303988 
L 298.555036 117.303988 
L 298.555036 116.214761 
L 299.137274 116.214761 
L 299.137274 115.719048 
L 299.719512 115.719048 
L 299.719512 113.651086 
L 300.30175 113.651086 
L 300.30175 110.995712 
L 300.883988 110.995712 
L 300.883988 113.163202 
L 301.466226 113.163202 
L 301.466226 112.714571 
L 302.630703 112.76988 
L 302.630703 113.55177 
L 303.212941 113.55177 
L 303.212941 113.201534 
L 303.795179 113.201534 
L 303.795179 114.378629 
L 304.377417 114.378629 
L 304.377417 115.275032 
L 304.959655 115.275032 
L 304.959655 113.845066 
L 305.541894 113.845066 
L 305.541894 113.47027 
L 306.124132 113.47027 
L 306.124132 114.352141 
L 306.70637 114.352141 
L 306.70637 117.248759 
L 307.288608 117.248759 
L 307.288608 117.426129 
L 307.870846 117.426129 
L 307.870846 117.576973 
L 308.453084 117.576973 
L 308.453084 118.886066 
L 309.035323 118.886066 
L 309.035323 121.256764 
L 309.617561 121.256764 
L 309.617561 119.52902 
L 310.199799 119.52902 
L 310.199799 120.440536 
L 310.782037 120.440536 
L 310.782037 121.08956 
L 311.364275 121.08956 
L 311.364275 117.483078 
L 311.946513 117.483078 
L 311.946513 118.818195 
L 313.11099 118.907174 
L 313.11099 118.519234 
L 313.693228 118.519234 
L 313.693228 118.718292 
L 314.275466 118.718292 
L 314.275466 119.523842 
L 314.857704 119.523842 
L 314.857704 121.256389 
L 315.439942 121.256389 
L 315.439942 120.419638 
L 316.022181 120.419638 
L 316.022181 123.777141 
L 316.604419 123.777141 
L 316.604419 125.6347 
L 317.186657 125.6347 
L 317.186657 126.043033 
L 317.768895 126.043033 
L 317.768895 125.611196 
L 318.351133 125.611196 
L 318.351133 126.364696 
L 318.933371 126.364696 
L 318.933371 127.269819 
L 319.51561 127.269819 
L 319.51561 122.811499 
L 320.097848 122.811499 
L 320.097848 124.528906 
L 320.680086 124.528906 
L 320.680086 123.828719 
L 321.262324 123.828719 
L 321.262324 123.669739 
L 321.844562 123.669739 
L 321.844562 126.514641 
L 322.4268 126.514641 
L 322.4268 125.887989 
L 323.009038 125.887989 
L 323.009038 126.457028 
L 323.591277 126.457028 
L 323.591277 127.039872 
L 324.173515 127.039872 
L 324.173515 126.029873 
L 324.755753 126.029873 
L 324.755753 126.339888 
L 325.337991 126.339888 
L 325.337991 126.146245 
L 326.502467 126.129244 
L 326.502467 124.016221 
L 327.084706 124.016221 
L 327.084706 122.614371 
L 327.666944 122.614371 
L 327.666944 120.896394 
L 328.249182 120.896394 
L 328.249182 119.178083 
L 328.83142 119.178083 
L 328.83142 117.839511 
L 329.995896 117.856088 
L 329.995896 117.995919 
L 330.578135 117.995919 
L 330.578135 119.053836 
L 331.160373 119.053836 
L 331.160373 120.911871 
L 331.742611 120.911871 
L 331.742611 119.634582 
L 332.324849 119.634582 
L 332.324849 120.144501 
L 332.907087 120.144501 
L 332.907087 120.331232 
L 333.489325 120.331232 
L 333.489325 120.726163 
L 334.071564 120.726163 
L 334.071564 119.914355 
L 334.653802 119.914355 
L 334.653802 118.209526 
L 335.23604 118.209526 
L 335.23604 118.851268 
L 335.818278 118.851268 
L 335.818278 119.053836 
L 336.400516 119.053836 
L 336.400516 118.751208 
L 336.982754 118.751208 
L 336.982754 119.181139 
L 337.564993 119.181139 
L 337.564993 119.025838 
L 338.729469 118.985424 
L 338.729469 119.207644 
L 339.311707 119.207644 
L 339.311707 120.058654 
L 339.893945 120.058654 
L 339.893945 120.430085 
L 340.476183 120.430085 
L 340.476183 120.063611 
L 341.058422 120.063611 
L 341.058422 120.322269 
L 341.64066 120.322269 
L 341.64066 120.447387 
L 342.222898 120.447387 
L 342.222898 120.242124 
L 342.805136 120.242124 
L 342.805136 121.750362 
L 343.387374 121.750362 
L 343.387374 122.776033 
L 343.969612 122.776033 
L 343.969612 124.186453 
L 344.551851 124.186453 
L 344.551851 123.108439 
L 345.134089 123.108439 
L 345.134089 123.694961 
L 345.716327 123.694961 
L 345.716327 123.483195 
L 346.298565 123.483195 
L 346.298565 124.671159 
L 346.880803 124.671159 
L 346.880803 124.864558 
L 347.463041 124.864558 
L 347.463041 124.639465 
L 348.04528 124.639465 
L 348.04528 124.915748 
L 349.209756 124.859223 
L 349.209756 125.028358 
L 349.791994 125.028358 
L 349.791994 127.160976 
L 350.374232 127.160976 
L 350.374232 128.407127 
L 350.95647 128.407127 
L 350.95647 127.254378 
L 351.538709 127.254378 
L 351.538709 128.447132 
L 352.120947 128.447132 
L 352.120947 128.992061 
L 352.703185 128.992061 
L 352.703185 130.754934 
L 353.285423 130.754934 
L 353.285423 132.679308 
L 353.867661 132.679308 
L 353.867661 130.479883 
L 354.449899 130.479883 
L 354.449899 129.505408 
L 355.032138 129.505408 
L 355.032138 128.7416 
L 355.614376 128.7416 
L 355.614376 128.947772 
L 356.196614 128.947772 
L 356.196614 129.225294 
L 356.778852 129.225294 
L 356.778852 130.779047 
L 357.36109 130.779047 
L 357.36109 131.23049 
L 357.943328 131.23049 
L 357.943328 131.569876 
L 358.525567 131.569876 
L 358.525567 132.889632 
L 359.107805 132.889632 
L 359.107805 131.981364 
L 359.690043 131.981364 
L 359.690043 131.469918 
L 360.272281 131.469918 
L 360.272281 130.146033 
L 360.854519 130.146033 
L 360.854519 128.514682 
L 361.436757 128.514682 
L 361.436757 129.063008 
L 362.018996 129.063008 
L 362.018996 130.898254 
L 362.601234 130.898254 
L 362.601234 130.277216 
L 363.76571 130.292161 
L 363.76571 129.79603 
L 364.347948 129.79603 
L 364.347948 129.57088 
L 364.930186 129.57088 
L 364.930186 129.773014 
L 365.512425 129.773014 
L 365.512425 130.515885 
L 366.094663 130.515885 
L 366.094663 131.346842 
L 366.676901 131.346842 
L 366.676901 130.81969 
L 367.259139 130.81969 
L 367.259139 133.08697 
L 367.841377 133.08697 
L 367.841377 132.42902 
L 368.423615 132.42902 
L 368.423615 132.086286 
L 369.005854 132.086286 
L 369.005854 132.529802 
L 369.588092 132.529802 
L 369.588092 133.614779 
L 370.752568 133.52008 
L 370.752568 137.299829 
L 371.334806 137.299829 
L 371.334806 134.678447 
L 371.917044 134.678447 
L 371.917044 136.297939 
L 372.499283 136.297939 
L 372.499283 140.888738 
L 373.081521 140.888738 
L 373.081521 142.249735 
L 373.663759 142.249735 
L 373.663759 141.46577 
L 374.245997 141.46577 
L 374.245997 139.822388 
L 374.828235 139.822388 
L 374.828235 138.021457 
L 375.410473 138.021457 
L 375.410473 139.580755 
L 375.992712 139.580755 
L 375.992712 141.151694 
L 376.57495 141.151694 
L 376.57495 140.369677 
L 377.157188 140.369677 
L 377.157188 140.854556 
L 377.739426 140.854556 
L 377.739426 141.086367 
L 378.321664 141.086367 
L 378.321664 140.857402 
L 378.903902 140.857402 
L 378.903902 139.761945 
L 379.486141 139.761945 
L 379.486141 139.470295 
L 380.068379 139.470295 
L 380.068379 138.773804 
L 380.650617 138.773804 
L 380.650617 139.249337 
L 381.232855 139.249337 
L 381.232855 138.205579 
L 381.815093 138.205579 
L 381.815093 136.305585 
L 382.397331 136.305585 
L 382.397331 136.517707 
L 382.97957 136.517707 
L 382.97957 136.372219 
L 383.561808 136.372219 
L 383.561808 134.779927 
L 384.144046 134.779927 
L 384.144046 135.826995 
L 384.726284 135.826995 
L 384.726284 135.657237 
L 385.308522 135.657237 
L 385.308522 137.385776 
L 385.89076 137.385776 
L 385.89076 137.074977 
L 386.472999 137.074977 
L 386.472999 138.447958 
L 387.055237 138.447958 
L 387.055237 139.039373 
L 387.637475 139.039373 
L 387.637475 138.681168 
L 388.219713 138.681168 
L 388.219713 138.075444 
L 389.384189 138.056325 
L 389.384189 139.598625 
L 389.966428 139.598625 
L 389.966428 140.792978 
L 390.548666 140.792978 
L 390.548666 140.372459 
L 391.130904 140.372459 
L 391.130904 140.830851 
L 391.713142 140.830851 
L 391.713142 139.815162 
L 392.29538 139.815162 
L 392.29538 140.484961 
L 393.459857 140.586822 
L 393.459857 140.053116 
L 394.042095 140.053116 
L 394.042095 139.398451 
L 395.788809 139.322439 
L 395.788809 139.601307 
L 396.953286 139.542384 
L 396.953286 140.013878 
L 397.535524 140.013878 
L 397.535524 139.349807 
L 398.117762 139.349807 
L 398.117762 139.635307 
L 399.282238 139.55933 
L 399.282238 140.294709 
L 399.864476 140.294709 
L 399.864476 140.568095 
L 401.028953 140.606504 
L 401.028953 140.244879 
L 402.193429 140.17862 
L 402.193429 139.598625 
L 402.775667 139.598625 
L 402.775667 138.530223 
L 403.357905 138.530223 
L 403.357905 138.934303 
L 403.940143 138.934303 
L 403.940143 139.22649 
L 404.522382 139.22649 
L 404.522382 138.281024 
L 405.10462 138.281024 
L 405.10462 137.359231 
L 405.686858 137.359231 
L 405.686858 137.872672 
L 406.269096 137.872672 
L 406.269096 136.874482 
L 407.433572 136.837591 
L 407.433572 133.8075 
L 408.015811 133.8075 
L 408.015811 135.569914 
L 408.598049 135.569914 
L 408.598049 136.23916 
L 409.762525 136.237635 
L 409.762525 135.324686 
L 410.344763 135.324686 
L 410.344763 134.967848 
L 410.927001 134.967848 
L 410.927001 135.364872 
L 411.50924 135.364872 
L 411.50924 135.82251 
L 412.673716 135.916893 
L 412.673716 137.37612 
L 413.255954 137.37612 
L 413.255954 136.682881 
L 413.838192 136.682881 
L 413.838192 137.079736 
L 414.42043 137.079736 
L 414.42043 137.82824 
L 415.002669 137.82824 
L 415.002669 139.660394 
L 415.584907 139.660394 
L 415.584907 140.313195 
L 416.167145 140.313195 
L 416.167145 140.601816 
L 416.749383 140.601816 
L 416.749383 140.175864 
L 417.331621 140.175864 
L 417.331621 140.328921 
L 417.913859 140.328921 
L 417.913859 140.075049 
L 418.496098 140.075049 
L 418.496098 139.20279 
L 419.078336 139.20279 
L 419.078336 139.348923 
L 419.660574 139.348923 
L 419.660574 140.141899 
L 420.242812 140.141899 
L 420.242812 140.295633 
L 420.82505 140.295633 
L 420.82505 140.118981 
L 421.989527 140.103411 
L 421.989527 139.668464 
L 422.571765 139.668464 
L 422.571765 139.319792 
L 424.318479 139.385173 
L 424.318479 138.981129 
L 424.900717 138.981129 
L 424.900717 138.747172 
L 425.482956 138.747172 
L 425.482956 138.38457 
L 426.065194 138.38457 
L 426.065194 137.372902 
L 427.22967 137.266188 
L 427.22967 136.422142 
L 427.811908 136.422142 
L 427.811908 135.782189 
L 428.394146 135.782189 
L 428.394146 134.202457 
L 428.976385 134.202457 
L 428.976385 133.832649 
L 429.558623 133.832649 
L 429.558623 128.231686 
L 430.140861 128.231686 
L 430.140861 129.903019 
L 430.723099 129.903019 
L 430.723099 129.515382 
L 431.305337 129.515382 
L 431.305337 131.84599 
L 431.887575 131.84599 
L 431.887575 133.243137 
L 432.469814 133.243137 
L 432.469814 132.29328 
L 433.052052 132.29328 
L 433.052052 132.763186 
L 433.63429 132.763186 
L 433.63429 133.198871 
L 434.216528 133.198871 
L 434.216528 130.807902 
L 434.798766 130.807902 
L 434.798766 129.701879 
L 435.381004 129.701879 
L 435.381004 130.604408 
L 435.963243 130.604408 
L 435.963243 129.148352 
L 436.545481 129.148352 
L 436.545481 127.615457 
L 437.127719 127.615457 
L 437.127719 126.640012 
L 437.709957 126.640012 
L 437.709957 125.337533 
L 438.874433 125.382139 
L 438.874433 126.536287 
L 439.456672 126.536287 
L 439.456672 125.70352 
L 440.03891 125.70352 
L 440.03891 127.31721 
L 440.621148 127.31721 
L 440.621148 127.029031 
L 441.203386 127.029031 
L 441.203386 126.807041 
L 442.367862 126.823134 
L 442.367862 125.85954 
L 442.950101 125.85954 
L 442.950101 126.077852 
L 443.532339 126.077852 
L 443.532339 126.964104 
L 444.114577 126.964104 
L 444.114577 129.540893 
L 444.696815 129.540893 
L 444.696815 127.420841 
L 445.279053 127.420841 
L 445.279053 129.269074 
L 445.861291 129.269074 
L 445.861291 128.912192 
L 446.44353 128.912192 
L 446.44353 129.651055 
L 447.025768 129.651055 
L 447.025768 129.999208 
L 447.608006 129.999208 
L 447.608006 129.110258 
L 448.190244 129.110258 
L 448.190244 129.829195 
L 448.772482 129.829195 
L 448.772482 129.597571 
L 449.35472 129.597571 
L 449.35472 129.008287 
L 449.936959 129.008287 
L 449.936959 128.101704 
L 450.519197 128.101704 
L 450.519197 127.439419 
L 451.101435 127.439419 
L 451.101435 126.612946 
L 451.683673 126.612946 
L 451.683673 127.265335 
L 452.265911 127.265335 
L 452.265911 126.849494 
L 452.848149 126.849494 
L 452.848149 127.313215 
L 453.430388 127.313215 
L 453.430388 128.51151 
L 454.012626 128.51151 
L 454.012626 127.836439 
L 454.594864 127.836439 
L 454.594864 127.43289 
L 455.177102 127.43289 
L 455.177102 127.691572 
L 455.75934 127.691572 
L 455.75934 127.514396 
L 456.341578 127.514396 
L 456.341578 127.85385 
L 456.923817 127.85385 
L 456.923817 127.54113 
L 460.417246 127.440926 
L 460.417246 127.400776 
L 460.999484 127.400776 
L 460.999484 127.24492 
L 461.581722 127.24492 
L 461.581722 126.913579 
L 462.16396 126.913579 
L 462.16396 126.652107 
L 462.746198 126.652107 
L 462.746198 126.091042 
L 463.328436 126.091042 
L 463.328436 125.404933 
L 463.910675 125.404933 
L 463.910675 125.983879 
L 464.492913 125.983879 
L 464.492913 125.842768 
L 465.075151 125.842768 
L 465.075151 126.131605 
L 465.657389 126.131605 
L 465.657389 125.564266 
L 466.239627 125.564266 
L 466.239627 125.946407 
L 466.821865 125.946407 
L 466.821865 125.711849 
L 467.986342 125.79625 
L 467.986342 126.647268 
L 468.56858 126.647268 
L 468.56858 126.530513 
L 469.150818 126.530513 
L 469.150818 126.043973 
L 469.733056 126.043973 
L 469.733056 122.665183 
L 470.315294 122.665183 
L 470.315294 122.452749 
L 470.897533 122.452749 
L 470.897533 121.074695 
L 471.479771 121.074695 
L 471.479771 120.494317 
L 472.062009 120.494317 
L 472.062009 120.836804 
L 472.644247 120.836804 
L 472.644247 117.717178 
L 473.226485 117.717178 
L 473.226485 116.847293 
L 473.808723 116.847293 
L 473.808723 115.151511 
L 474.390962 115.151511 
L 474.390962 117.761263 
L 475.555438 117.744125 
L 475.555438 118.165466 
L 476.137676 118.165466 
L 476.137676 117.650749 
L 476.719914 117.650749 
L 476.719914 118.000414 
L 477.302152 118.000414 
L 477.302152 117.468044 
L 477.884391 117.468044 
L 477.884391 118.309651 
L 478.466629 118.309651 
L 478.466629 117.759993 
L 479.631105 117.801623 
L 479.631105 117.477439 
L 480.213343 117.477439 
L 480.213343 117.775873 
L 481.377819 117.856088 
L 481.377819 118.051854 
L 482.542296 118.074077 
L 482.542296 122.501583 
L 483.124534 122.501583 
L 483.124534 120.895657 
L 483.706772 120.895657 
L 483.706772 120.208225 
L 484.28901 120.208225 
L 484.28901 120.411717 
L 484.871248 120.411717 
L 484.871248 121.094765 
L 485.453487 121.094765 
L 485.453487 120.962064 
L 486.035725 120.962064 
L 486.035725 120.719587 
L 486.617963 120.719587 
L 486.617963 120.557296 
L 487.200201 120.557296 
L 487.200201 120.710457 
L 487.782439 120.710457 
L 487.782439 120.940643 
L 488.946916 120.959108 
L 488.946916 119.775577 
L 489.529154 119.775577 
L 489.529154 119.381772 
L 490.111392 119.381772 
L 490.111392 119.166202 
L 490.69363 119.166202 
L 490.69363 119.60615 
L 492.440345 119.611695 
L 492.440345 120.123184 
L 493.022583 120.123184 
L 493.022583 119.949897 
L 493.604821 119.949897 
L 493.604821 119.77907 
L 494.187059 119.77907 
L 494.187059 119.462493 
L 494.769297 119.462493 
L 494.769297 119.663053 
L 495.351535 119.663053 
L 495.351535 119.402009 
L 496.516012 119.40098 
L 496.516012 118.750542 
L 497.09825 118.750542 
L 497.09825 118.586478 
L 497.680488 118.586478 
L 497.680488 118.961213 
L 498.262726 118.961213 
L 498.262726 118.120206 
L 499.427203 118.178416 
L 499.427203 117.091007 
L 500.009441 117.091007 
L 500.009441 116.752346 
L 500.591679 116.752346 
L 500.591679 117.159396 
L 501.173917 117.159396 
L 501.173917 116.363992 
L 501.756155 116.363992 
L 501.756155 116.023846 
L 502.338393 116.023846 
L 502.338393 116.593442 
L 502.920632 116.593442 
L 502.920632 116.311463 
L 503.50287 116.311463 
L 503.50287 115.23528 
L 504.085108 115.23528 
L 504.085108 115.576299 
L 505.249584 115.614405 
L 505.249584 115.854647 
L 505.831822 115.854647 
L 505.831822 115.431381 
L 506.414061 115.431381 
L 506.414061 114.844868 
L 507.578537 114.955203 
L 507.578537 114.676601 
L 508.160775 114.676601 
L 508.160775 114.433603 
L 509.325251 114.490896 
L 509.325251 114.145974 
L 509.90749 114.145974 
L 509.90749 112.942494 
L 510.489728 112.942494 
L 510.489728 111.534489 
L 511.071966 111.534489 
L 511.071966 110.660872 
L 511.654204 110.660872 
L 511.654204 110.040166 
L 512.236442 110.040166 
L 512.236442 108.856407 
L 512.81868 108.856407 
L 512.81868 109.145017 
L 513.400919 109.145017 
L 513.400919 111.115853 
L 513.983157 111.115853 
L 513.983157 114.354302 
L 514.565395 114.354302 
L 514.565395 113.335731 
L 515.147633 113.335731 
L 515.147633 111.206177 
L 515.729871 111.206177 
L 515.729871 111.462763 
L 516.312109 111.462763 
L 516.312109 110.897338 
L 516.894348 110.897338 
L 516.894348 111.010462 
L 518.058824 111.076501 
L 518.058824 109.490336 
L 518.641062 109.490336 
L 518.641062 108.430864 
L 519.2233 108.430864 
L 519.2233 108.051373 
L 519.805538 108.051373 
L 519.805538 109.188535 
L 520.970015 109.112332 
L 520.970015 108.407824 
L 521.552253 108.407824 
L 521.552253 108.090883 
L 522.134491 108.090883 
L 522.134491 106.559144 
L 522.716729 106.559144 
L 522.716729 106.18243 
L 523.298967 106.18243 
L 523.298967 105.452143 
L 523.881206 105.452143 
L 523.881206 103.81482 
L 524.463444 103.81482 
L 524.463444 103.938117 
L 525.045682 103.938117 
L 525.045682 105.430897 
L 525.62792 105.430897 
L 525.62792 104.810292 
L 526.210158 104.810292 
L 526.210158 104.31239 
L 526.792396 104.31239 
L 526.792396 109.830498 
L 527.374635 109.830498 
L 527.374635 106.879115 
L 527.956873 106.879115 
L 527.956873 110.715591 
L 528.539111 110.715591 
L 528.539111 108.289147 
L 529.121349 108.289147 
L 529.121349 108.4172 
L 529.703587 108.4172 
L 529.703587 107.514258 
L 530.285825 107.514258 
L 530.285825 106.493532 
L 530.868064 106.493532 
L 530.868064 105.574016 
L 531.450302 105.574016 
L 531.450302 104.958418 
L 532.03254 104.958418 
L 532.03254 105.818993 
L 532.614778 105.818993 
L 532.614778 105.700181 
L 533.197016 105.700181 
L 533.197016 104.657057 
L 534.361493 104.585359 
L 534.361493 103.798108 
L 534.943731 103.798108 
L 534.943731 103.073969 
L 535.525969 103.073969 
L 535.525969 101.334807 
L 536.108207 101.334807 
L 536.108207 100.32188 
L 536.690445 100.32188 
L 536.690445 98.559223 
L 537.272683 98.559223 
L 537.272683 96.400521 
L 537.854922 96.400521 
L 537.854922 96.973403 
L 539.019398 96.926286 
L 539.019398 94.421969 
L 539.601636 94.421969 
L 539.601636 91.971085 
L 540.183874 91.971085 
L 540.183874 91.752502 
L 541.348351 91.658328 
L 541.348351 90.581649 
L 541.930589 90.581649 
L 541.930589 89.559848 
L 542.512827 89.559848 
L 542.512827 88.317015 
L 543.095065 88.317015 
L 543.095065 86.686475 
L 543.677303 86.686475 
L 543.677303 88.137176 
L 544.259541 88.137176 
L 544.259541 89.994551 
L 544.84178 89.994551 
L 544.84178 88.980174 
L 545.424018 88.980174 
L 545.424018 88.078943 
L 546.006256 88.078943 
L 546.006256 89.790451 
L 546.588494 89.790451 
L 546.588494 89.321264 
L 547.170732 89.321264 
L 547.170732 90.482701 
L 547.75297 90.482701 
L 547.75297 88.989182 
L 548.335209 88.989182 
L 548.335209 89.783454 
L 548.917447 89.783454 
L 548.917447 91.319569 
L 550.081923 91.216476 
L 550.081923 95.475749 
L 550.664161 95.475749 
L 550.664161 91.888129 
L 551.246399 91.888129 
L 551.246399 87.225464 
L 551.828638 87.225464 
L 551.828638 89.271845 
L 552.410876 89.271845 
L 552.410876 87.531626 
L 552.993114 87.531626 
L 552.993114 86.948131 
L 553.575352 86.948131 
L 553.575352 87.492271 
L 554.15759 87.492271 
L 554.15759 84.53268 
L 554.739828 84.53268 
L 554.739828 83.694718 
L 555.322067 83.694718 
L 555.322067 80.59746 
L 555.904305 80.59746 
L 555.904305 78.963954 
L 556.486543 78.963954 
L 556.486543 79.347247 
L 557.068781 79.347247 
L 557.068781 79.964866 
L 557.651019 79.964866 
L 557.651019 78.211415 
L 558.815495 78.17599 
L 558.815495 77.024284 
L 559.979972 77.010247 
L 559.979972 77.953665 
L 560.56221 77.953665 
L 560.56221 78.306644 
L 561.144448 78.306644 
L 561.144448 78.870189 
L 561.726686 78.870189 
L 561.726686 84.491779 
L 562.308924 84.491779 
L 562.308924 81.659829 
L 562.891163 81.659829 
L 562.891163 80.456367 
L 563.473401 80.456367 
L 563.473401 81.099077 
L 564.055639 81.099077 
L 564.055639 80.529513 
L 564.637877 80.529513 
L 564.637877 79.04334 
L 565.220115 79.04334 
L 565.220115 77.910171 
L 565.802353 77.910171 
L 565.802353 78.275749 
L 566.384592 78.275749 
L 566.384592 76.918025 
L 566.96683 76.918025 
L 566.96683 75.948916 
L 567.549068 75.948916 
L 567.549068 71.959561 
L 568.131306 71.959561 
L 568.131306 72.814294 
L 568.713544 72.814294 
L 568.713544 71.386426 
L 569.295782 71.386426 
L 569.295782 71.691149 
L 570.460259 71.729689 
L 570.460259 70.864174 
L 571.042497 70.864174 
L 571.042497 68.847759 
L 571.624735 68.847759 
L 571.624735 67.011613 
L 572.206973 67.011613 
L 572.206973 67.70257 
L 572.789211 67.70257 
L 572.789211 69.426647 
L 573.37145 69.426647 
L 573.37145 69.670799 
L 573.953688 69.670799 
L 573.953688 65.618681 
L 574.535926 65.618681 
L 574.535926 65.139052 
L 575.118164 65.139052 
L 575.118164 64.654585 
L 575.700402 64.654585 
L 575.700402 63.334023 
L 576.28264 63.334023 
L 576.28264 60.733897 
L 576.864879 60.733897 
L 576.864879 58.783297 
L 577.447117 58.783297 
L 577.447117 57.447231 
L 578.029355 57.447231 
L 578.029355 49.541546 
L 578.611593 49.541546 
L 578.611593 51.911888 
L 579.193831 51.911888 
L 579.193831 50.317058 
L 579.776069 50.317058 
L 579.776069 46.713271 
L 580.358308 46.713271 
L 580.358308 48.898264 
L 580.940546 48.898264 
L 580.940546 53.803441 
L 582.105022 53.858133 
L 582.105022 53.144067 
L 582.68726 53.144067 
L 582.68726 53.77377 
L 583.269498 53.77377 
L 583.269498 51.953522 
L 583.851737 51.953522 
L 583.851737 49.175554 
L 584.433975 49.175554 
L 584.433975 52.815068 
L 585.016213 52.815068 
L 585.016213 53.781126 
L 585.598451 53.781126 
L 585.598451 54.146887 
L 586.180689 54.146887 
L 586.180689 58.219025 
L 586.762927 58.219025 
L 586.762927 57.589304 
L 587.345166 57.589304 
L 587.345166 57.812907 
L 588.509642 57.740182 
L 588.509642 60.388954 
L 589.09188 60.388954 
L 589.09188 63.133064 
L 589.674118 63.133064 
L 589.674118 68.312581 
L 590.256356 68.312581 
L 590.256356 64.633184 
L 590.838595 64.633184 
L 590.838595 65.091147 
L 591.420833 65.091147 
L 591.420833 61.707478 
L 592.003071 61.707478 
L 592.003071 58.387694 
L 592.585309 58.387694 
L 592.585309 58.085114 
L 593.167547 58.085114 
L 593.167547 60.20401 
L 593.749785 60.20401 
L 593.749785 59.898932 
L 594.332024 59.898932 
L 594.332024 58.684176 
L 594.914262 58.684176 
L 594.914262 57.583057 
L 595.4965 57.583057 
L 595.4965 60.730792 
L 596.078738 60.730792 
L 596.078738 63.313415 
L 596.660976 63.313415 
L 596.660976 62.428146 
L 597.243214 62.428146 
L 597.243214 64.498494 
L 597.825453 64.498494 
L 597.825453 63.730251 
L 598.407691 63.730251 
L 598.407691 63.438767 
L 598.989929 63.438767 
L 598.989929 64.095419 
L 599.572167 64.095419 
L 599.572167 65.400403 
L 600.154405 65.400403 
L 600.154405 68.275755 
L 600.736643 68.275755 
L 600.736643 66.839079 
L 601.318882 66.839079 
L 601.318882 69.217473 
L 601.90112 69.217473 
L 601.90112 68.746676 
L 602.483358 68.746676 
L 602.483358 65.424695 
L 603.065596 65.424695 
L 603.065596 64.320748 
L 603.647834 64.320748 
L 603.647834 64.810781 
L 604.230072 64.810781 
L 604.230072 62.948312 
L 604.812311 62.948312 
L 604.812311 61.296193 
L 605.394549 61.296193 
L 605.394549 62.953155 
L 605.976787 62.953155 
L 605.976787 62.230846 
L 606.559025 62.230846 
L 606.559025 61.089181 
L 607.141263 61.089181 
L 607.141263 61.354528 
L 607.723501 61.354528 
L 607.723501 62.069764 
L 608.30574 62.069764 
L 608.30574 64.081555 
L 609.470216 64.06277 
L 609.470216 64.648541 
L 610.052454 64.648541 
L 610.052454 64.248946 
L 610.634692 64.248946 
L 610.634692 66.416393 
L 611.21693 66.416393 
L 611.21693 67.073077 
L 611.799169 67.073077 
L 611.799169 66.952326 
L 612.381407 66.952326 
L 612.381407 66.248999 
L 614.128121 66.308749 
L 614.128121 68.453631 
L 614.710359 68.453631 
L 614.710359 69.208795 
L 615.292598 69.208795 
L 615.292598 69.826794 
L 615.874836 69.826794 
L 615.874836 68.820126 
L 616.457074 68.820126 
L 616.457074 70.747714 
L 617.039312 70.747714 
L 617.039312 70.998779 
L 617.62155 70.998779 
L 617.62155 70.567898 
L 618.203788 70.567898 
L 618.203788 69.24369 
L 618.786027 69.24369 
L 618.786027 69.47072 
L 619.368265 69.47072 
L 619.368265 68.935236 
L 619.950503 68.935236 
L 619.950503 69.966712 
L 620.532741 69.966712 
L 620.532741 70.481431 
L 621.114979 70.481431 
L 621.114979 67.139072 
L 622.279456 67.100583 
L 622.279456 66.034742 
L 622.861694 66.034742 
L 622.861694 65.429079 
L 623.443932 65.429079 
L 623.443932 64.695116 
L 624.02617 64.695116 
L 624.02617 66.330478 
L 624.608408 66.330478 
L 624.608408 68.052767 
L 625.190646 68.052767 
L 625.190646 68.953472 
L 625.772885 68.953472 
L 625.772885 70.855684 
L 626.355123 70.855684 
L 626.355123 70.470327 
L 626.937361 70.470327 
L 626.937361 70.266767 
L 627.519599 70.266767 
L 627.519599 69.693715 
L 628.101837 69.693715 
L 628.101837 70.127474 
L 628.684075 70.127474 
L 628.684075 68.890638 
L 629.266314 68.890638 
L 629.266314 67.852399 
L 629.848552 67.852399 
L 629.848552 68.030213 
L 630.43079 68.030213 
L 630.43079 67.302614 
L 631.013028 67.302614 
L 631.013028 69.646253 
L 631.595266 69.646253 
L 631.595266 70.507983 
L 632.177504 70.507983 
L 632.177504 70.222402 
L 632.759743 70.222402 
L 632.759743 69.577573 
L 633.341981 69.577573 
L 633.341981 70.167948 
L 633.924219 70.167948 
L 633.924219 68.834827 
L 634.506457 68.834827 
L 634.506457 69.380999 
L 635.088695 69.380999 
L 635.088695 69.054669 
L 635.670933 69.054669 
L 635.670933 69.292838 
L 636.253172 69.292838 
L 636.253172 69.702986 
L 636.83541 69.702986 
L 636.83541 69.412522 
L 637.417648 69.412522 
L 637.417648 69.242385 
L 637.999886 69.242385 
L 637.999886 70.487643 
L 638.582124 70.487643 
L 638.582124 69.330686 
L 639.164362 69.330686 
L 639.164362 69.618949 
L 640.911077 69.683343 
L 640.911077 69.789451 
L 641.493315 69.789451 
L 641.493315 70.304028 
L 642.075553 70.304028 
L 642.075553 70.008793 
L 642.657791 70.008793 
L 642.657791 69.853091 
L 644.404506 69.949093 
L 644.404506 72.211709 
L 644.986744 72.211709 
L 644.986744 72.898247 
L 645.568982 72.898247 
L 645.568982 77.445264 
L 646.15122 77.445264 
L 646.15122 78.108373 
L 646.733458 78.108373 
L 646.733458 81.011416 
L 647.315697 81.011416 
L 647.315697 78.47112 
L 647.897935 78.47112 
L 647.897935 79.163593 
L 648.480173 79.163593 
L 648.480173 81.282146 
L 649.062411 81.282146 
L 649.062411 82.990536 
L 649.644649 82.990536 
L 649.644649 83.275758 
L 650.226887 83.275758 
L 650.226887 84.322 
L 650.809126 84.322 
L 650.809126 82.371292 
L 651.391364 82.371292 
L 651.391364 79.191175 
L 651.973602 79.191175 
L 651.973602 79.917871 
L 652.55584 79.917871 
L 652.55584 80.708507 
L 653.138078 80.708507 
L 653.138078 81.139659 
L 653.720316 81.139659 
L 653.720316 80.666502 
L 654.884793 80.662454 
L 654.884793 79.722978 
L 655.467031 79.722978 
L 655.467031 81.845768 
L 656.049269 81.845768 
L 656.049269 82.517597 
L 656.631507 82.517597 
L 656.631507 81.989859 
L 657.213745 81.989859 
L 657.213745 81.514378 
L 657.795984 81.514378 
L 657.795984 82.189326 
L 658.96046 82.24562 
L 658.96046 83.021589 
L 660.707174 82.976125 
L 660.707174 83.285543 
L 661.289413 83.285543 
L 661.289413 81.741134 
L 661.871651 81.741134 
L 661.871651 81.925936 
L 662.453889 81.925936 
L 662.453889 82.067069 
L 663.036127 82.067069 
L 663.036127 80.368148 
L 663.618365 80.368148 
L 663.618365 80.185107 
L 664.200603 80.185107 
L 664.200603 81.159083 
L 664.782842 81.159083 
L 664.782842 80.790788 
L 665.947318 80.800642 
L 665.947318 80.577129 
L 668.276271 80.506641 
L 668.276271 79.919191 
L 668.858509 79.919191 
L 668.858509 79.597007 
L 669.440747 79.597007 
L 669.440747 79.82961 
L 670.022985 79.82961 
L 670.022985 80.169818 
L 670.605223 80.169818 
L 670.605223 79.291608 
L 671.187461 79.291608 
L 671.187461 79.102898 
L 671.7697 79.102898 
L 671.7697 75.562809 
L 672.351938 75.562809 
L 672.351938 74.400637 
L 672.934176 74.400637 
L 672.934176 73.915227 
L 673.516414 73.915227 
L 673.516414 74.914051 
L 674.098652 74.914051 
L 674.098652 74.371144 
L 674.68089 74.371144 
L 674.68089 74.047296 
L 675.263129 74.047296 
L 675.263129 73.650679 
L 675.845367 73.650679 
L 675.845367 74.375366 
L 676.427605 74.375366 
L 676.427605 73.950574 
L 677.592081 73.849818 
L 677.592081 72.159334 
L 678.756558 72.215557 
L 678.756558 70.14923 
L 679.338796 70.14923 
L 679.338796 65.741451 
L 679.921034 65.741451 
L 679.921034 65.572645 
L 680.503272 65.572645 
L 680.503272 64.765057 
L 681.08551 64.765057 
L 681.08551 66.279987 
L 681.667748 66.279987 
L 681.667748 65.082181 
L 682.249987 65.082181 
L 682.249987 63.452044 
L 682.832225 63.452044 
L 682.832225 63.857692 
L 683.414463 63.857692 
L 683.414463 64.916941 
L 683.996701 64.916941 
L 683.996701 65.795128 
L 684.578939 65.795128 
L 684.578939 66.239416 
L 685.161177 66.239416 
L 685.161177 64.818265 
L 685.743416 64.818265 
L 685.743416 63.117009 
L 686.325654 63.117009 
L 686.325654 62.607194 
L 686.907892 62.607194 
L 686.907892 60.125177 
L 687.49013 60.125177 
L 687.49013 58.518126 
L 688.072368 58.518126 
L 688.072368 58.298406 
L 688.654606 58.298406 
L 688.654606 59.060741 
L 689.236845 59.060741 
L 689.236845 56.742879 
L 689.819083 56.742879 
L 689.819083 58.11128 
L 690.401321 58.11128 
L 690.401321 55.708939 
L 690.983559 55.708939 
L 690.983559 57.063537 
L 691.565797 57.063537 
L 691.565797 58.795671 
L 692.148035 58.795671 
L 692.148035 59.256481 
L 693.312512 59.358155 
L 693.312512 61.048514 
L 693.89475 61.048514 
L 693.89475 61.702244 
L 694.476988 61.702244 
L 694.476988 61.447405 
L 695.059226 61.447405 
L 695.059226 59.47376 
L 695.641464 59.47376 
L 695.641464 57.092116 
L 696.223703 57.092116 
L 696.223703 56.722383 
L 696.805941 56.722383 
L 696.805941 57.491649 
L 697.388179 57.491649 
L 697.388179 60.526575 
L 697.970417 60.526575 
L 697.970417 60.114559 
L 698.552655 60.114559 
L 698.552655 59.015935 
L 699.134893 59.015935 
L 699.134893 59.723142 
L 700.29937 59.815649 
L 700.29937 61.678743 
L 700.881608 61.678743 
L 700.881608 61.053652 
L 701.463846 61.053652 
L 701.463846 59.364632 
L 702.046084 59.364632 
L 702.046084 59.55876 
L 702.628322 59.55876 
L 702.628322 60.350261 
L 703.210561 60.350261 
L 703.210561 59.808279 
L 703.792799 59.808279 
L 703.792799 60.009265 
L 704.957275 59.988211 
L 704.957275 60.492717 
L 705.539513 60.492717 
L 705.539513 64.159693 
L 706.121751 64.159693 
L 706.121751 64.684623 
L 706.70399 64.684623 
L 706.70399 64.434955 
L 707.286228 64.434955 
L 707.286228 64.86369 
L 707.868466 64.86369 
L 707.868466 64.717942 
L 708.450704 64.717942 
L 708.450704 63.776241 
L 709.032942 63.776241 
L 709.032942 64.534448 
L 709.61518 64.534448 
L 709.61518 65.26314 
L 710.197419 65.26314 
L 710.197419 65.375396 
L 710.779657 65.375396 
L 710.779657 65.199309 
L 711.361895 65.199309 
L 711.361895 63.580877 
L 711.944133 63.580877 
L 711.944133 62.278368 
L 712.526371 62.278368 
L 712.526371 62.440964 
L 713.108609 62.440964 
L 713.108609 62.307221 
L 713.690848 62.307221 
L 713.690848 61.995191 
L 714.273086 61.995191 
L 714.273086 63.236549 
L 715.437562 63.255452 
L 715.437562 64.096092 
L 716.0198 64.096092 
L 716.0198 64.810703 
L 716.602038 64.810703 
L 716.602038 66.304511 
L 717.184276 66.304511 
L 717.184276 68.367666 
L 717.766515 68.367666 
L 717.766515 66.564339 
L 718.930991 66.469528 
L 718.930991 67.210794 
L 719.513229 67.210794 
L 719.513229 66.498941 
L 720.095467 66.498941 
L 720.095467 67.093596 
L 720.677705 67.093596 
L 720.677705 67.524227 
L 721.259944 67.524227 
L 721.259944 67.754422 
L 721.842182 67.754422 
L 721.842182 67.246907 
L 722.42442 67.246907 
L 722.42442 67.659526 
L 723.006658 67.659526 
L 723.006658 67.344441 
L 724.753373 67.435092 
L 724.753373 68.255178 
L 725.335611 68.255178 
L 725.335611 67.052952 
L 725.917849 67.052952 
L 725.917849 65.157588 
L 727.082325 65.213165 
L 727.082325 63.157647 
L 727.664563 63.157647 
L 727.664563 63.019914 
L 728.246802 63.019914 
L 728.246802 63.67925 
L 728.82904 63.67925 
L 728.82904 64.270363 
L 729.411278 64.270363 
L 729.411278 63.772507 
L 729.993516 63.772507 
L 729.993516 62.139123 
L 730.575754 62.139123 
L 730.575754 61.916876 
L 731.157992 61.916876 
L 731.157992 62.408335 
L 731.740231 62.408335 
L 731.740231 60.972295 
L 732.904707 60.870905 
L 732.904707 60.056995 
L 733.486945 60.056995 
L 733.486945 60.694227 
L 734.069183 60.694227 
L 734.069183 61.413135 
L 734.651421 61.413135 
L 734.651421 61.271045 
L 735.23366 61.271045 
L 735.23366 62.072529 
L 735.815898 62.072529 
L 735.815898 63.470269 
L 736.398136 63.470269 
L 736.398136 62.990354 
L 736.980374 62.990354 
L 736.980374 62.627635 
L 737.562612 62.627635 
L 737.562612 65.166167 
L 738.14485 65.166167 
L 738.14485 65.437476 
L 738.727089 65.437476 
L 738.727089 74.494876 
L 739.309327 74.494876 
L 739.309327 73.727636 
L 739.891565 73.727636 
L 739.891565 70.557189 
L 740.473803 70.557189 
L 740.473803 69.643106 
L 741.056041 69.643106 
L 741.056041 68.811016 
L 741.638279 68.811016 
L 741.638279 71.745491 
L 742.220518 71.745491 
L 742.220518 69.159714 
L 742.802756 69.159714 
L 742.802756 68.477012 
L 743.384994 68.477012 
L 743.384994 67.476187 
L 743.967232 67.476187 
L 743.967232 68.472254 
L 745.131708 68.520128 
L 745.131708 67.75107 
L 746.878423 67.695616 
L 746.878423 66.49243 
L 747.460661 66.49243 
L 747.460661 65.89784 
L 748.042899 65.89784 
L 748.042899 63.200061 
L 748.625137 63.200061 
L 748.625137 63.054097 
L 749.207376 63.054097 
L 749.207376 60.557093 
L 749.789614 60.557093 
L 749.789614 63.36855 
L 750.371852 63.36855 
L 750.371852 62.079827 
L 750.95409 62.079827 
L 750.95409 61.899764 
L 751.536328 61.899764 
L 751.536328 61.019239 
L 752.118566 61.019239 
L 752.118566 62.396549 
L 752.700805 62.396549 
L 752.700805 63.021526 
L 753.283043 63.021526 
L 753.283043 61.491274 
L 753.865281 61.491274 
L 753.865281 61.753856 
L 754.447519 61.753856 
L 754.447519 61.296345 
L 755.611995 61.269299 
L 755.611995 61.042081 
L 756.194234 61.042081 
L 756.194234 61.733486 
L 757.35871 61.80781 
L 757.35871 61.912512 
L 757.940948 61.912512 
L 757.940948 62.127828 
L 759.105424 62.146467 
L 759.105424 62.775095 
L 759.687663 62.775095 
L 759.687663 62.473297 
L 760.269901 62.473297 
L 760.269901 62.615935 
L 760.852139 62.615935 
L 760.852139 61.982618 
L 761.434377 61.982618 
L 761.434377 62.234294 
L 762.016615 62.234294 
L 762.016615 62.102577 
L 762.598853 62.102577 
L 762.598853 62.336228 
L 763.76333 62.379412 
L 763.76333 61.884126 
L 764.345568 61.884126 
L 764.345568 61.530839 
L 764.927806 61.530839 
L 764.927806 58.470502 
L 765.510044 58.470502 
L 765.510044 58.33239 
L 766.674521 58.403038 
L 766.674521 57.15971 
L 767.838997 57.128637 
L 767.838997 57.812166 
L 768.421235 57.812166 
L 768.421235 57.116486 
L 769.003473 57.116486 
L 769.003473 56.205929 
L 769.585711 56.205929 
L 769.585711 56.953288 
L 770.16795 56.953288 
L 770.16795 57.335054 
L 770.750188 57.335054 
L 770.750188 57.67385 
L 771.914664 57.647615 
L 771.914664 56.85143 
L 772.496902 56.85143 
L 772.496902 59.59766 
L 773.07914 59.59766 
L 773.07914 59.800464 
L 774.825855 59.875824 
L 774.825855 58.650796 
L 775.408093 58.650796 
L 775.408093 58.396069 
L 775.990331 58.396069 
L 775.990331 59.468412 
L 776.572569 59.468412 
L 776.572569 59.149119 
L 777.737046 59.150125 
L 777.737046 59.294827 
L 779.48376 59.192647 
L 779.48376 57.979038 
L 780.065998 57.979038 
L 780.065998 57.745959 
L 780.648237 57.745959 
L 780.648237 57.932614 
L 781.230475 57.932614 
L 781.230475 57.145568 
L 781.812713 57.145568 
L 781.812713 55.043318 
L 782.977189 54.967905 
L 782.977189 54.563647 
L 783.559427 54.563647 
L 783.559427 53.751884 
L 784.141666 53.751884 
L 784.141666 53.429014 
L 784.723904 53.429014 
L 784.723904 51.186958 
L 785.306142 51.186958 
L 785.306142 51.55158 
L 785.88838 51.55158 
L 785.88838 50.26098 
L 786.470618 50.26098 
L 786.470618 50.689156 
L 787.052856 50.689156 
L 787.052856 48.399932 
L 787.635095 48.399932 
L 787.635095 47.357816 
L 788.217333 47.357816 
L 788.217333 46.831095 
L 788.799571 46.831095 
L 788.799571 49.196567 
L 789.381809 49.196567 
L 789.381809 46.248119 
L 789.964047 46.248119 
L 789.964047 46.523041 
L 791.128524 46.606573 
L 791.128524 47.522717 
L 791.710762 47.522717 
L 791.710762 47.241162 
L 792.293 47.241162 
L 792.293 46.539085 
L 792.875238 46.539085 
L 792.875238 42.853427 
L 793.457476 42.853427 
L 793.457476 43.226034 
L 794.039714 43.226034 
L 794.039714 42.344988 
L 794.621953 42.344988 
L 794.621953 40.205737 
L 795.204191 40.205737 
L 795.204191 38.205781 
L 795.786429 38.205781 
L 795.786429 35.896043 
L 796.368667 35.896043 
L 796.368667 34.716634 
L 796.950905 34.716634 
L 796.950905 30.966513 
L 797.533143 30.966513 
L 797.533143 33.808123 
L 798.115381 33.808123 
L 798.115381 31.765632 
L 798.69762 31.765632 
L 798.69762 33.661405 
L 799.279858 33.661405 
L 799.279858 33.811661 
L 799.862096 33.811661 
L 799.862096 35.958857 
L 800.444334 35.958857 
L 800.444334 35.670317 
L 801.026572 35.670317 
L 801.026572 34.551478 
L 801.60881 34.551478 
L 801.60881 35.043695 
L 802.191049 35.043695 
L 802.191049 32.960558 
L 802.773287 32.960558 
L 802.773287 31.890107 
L 803.355525 31.890107 
L 803.355525 28.889516 
L 803.937763 28.889516 
L 803.937763 27.832004 
L 804.520001 27.832004 
L 804.520001 26.967021 
L 805.102239 26.967021 
L 805.102239 24.250339 
L 805.684478 24.250339 
L 805.684478 24.937918 
L 806.266716 24.937918 
L 806.266716 28.004736 
L 806.848954 28.004736 
L 806.848954 28.778986 
L 807.431192 28.778986 
L 807.431192 26.409046 
L 808.01343 26.409046 
L 808.01343 27.086877 
L 808.595668 27.086877 
L 808.595668 24.644472 
L 809.177907 24.644472 
L 809.177907 23.751937 
L 809.760145 23.751937 
L 809.760145 24.311463 
L 810.342383 24.311463 
L 810.342383 23.600445 
L 811.506859 23.69384 
L 811.506859 25.577057 
L 812.089097 25.577057 
L 812.089097 24.270182 
L 812.671336 24.270182 
L 812.671336 23.214666 
L 813.835812 23.106754 
L 813.835812 23.098615 
L 814.41805 23.098615 
L 814.41805 23.460908 
L 815.000288 23.460908 
L 815.000288 22.775742 
L 815.582526 22.775742 
L 815.582526 21.744453 
L 816.164765 21.744453 
L 816.164765 22.732788 
L 816.747003 22.732788 
L 816.747003 24.028385 
L 817.329241 24.028385 
L 817.329241 26.128638 
L 817.911479 26.128638 
L 817.911479 24.963955 
L 818.493717 24.963955 
L 818.493717 25.149159 
L 819.075955 25.149159 
L 819.075955 23.990135 
L 819.658194 23.990135 
L 819.658194 23.671048 
L 820.240432 23.671048 
L 820.240432 23.14342 
L 820.82267 23.14342 
L 820.82267 23.9382 
L 821.404908 23.9382 
L 821.404908 26.642356 
L 821.987146 26.642356 
L 821.987146 29.50089 
L 822.569384 29.50089 
L 822.569384 30.907427 
L 823.151623 30.907427 
L 823.151623 34.282521 
L 823.733861 34.282521 
L 823.733861 31.70776 
L 824.316099 31.70776 
L 824.316099 34.347491 
L 824.898337 34.347491 
L 824.898337 33.154982 
L 825.480575 33.154982 
L 825.480575 33.027129 
L 826.062813 33.027129 
L 826.062813 35.048749 
L 826.645052 35.048749 
L 826.645052 33.130869 
L 827.22729 33.130869 
L 827.22729 31.815065 
L 827.809528 31.815065 
L 827.809528 32.219569 
L 828.391766 32.219569 
L 828.391766 33.820454 
L 828.974004 33.820454 
L 828.974004 35.731479 
L 829.556242 35.731479 
L 829.556242 36.262796 
L 830.138481 36.262796 
L 830.138481 34.464108 
L 830.720719 34.464108 
L 830.720719 35.034899 
L 831.302957 35.034899 
L 831.302957 33.948442 
L 831.885195 33.948442 
L 831.885195 34.84568 
L 832.467433 34.84568 
L 832.467433 35.048308 
L 833.049671 35.048308 
L 833.049671 35.576681 
L 833.63191 35.576681 
L 833.63191 36.409541 
L 834.214148 36.409541 
L 834.214148 36.819907 
L 834.796386 36.819907 
L 834.796386 35.829033 
L 835.378624 35.829033 
L 835.378624 33.91507 
L 835.960862 33.91507 
L 835.960862 31.31574 
L 836.5431 31.31574 
L 836.5431 30.459746 
L 837.125339 30.459746 
L 837.125339 32.322684 
L 837.707577 32.322684 
L 837.707577 29.876961 
L 838.289815 29.876961 
L 838.289815 28.216282 
L 838.872053 28.216282 
L 838.872053 29.10705 
L 839.454291 29.10705 
L 839.454291 27.889659 
L 840.036529 27.889659 
L 840.036529 28.936722 
L 840.618768 28.936722 
L 840.618768 27.065124 
L 841.201006 27.065124 
L 841.201006 27.583378 
L 841.783244 27.583378 
L 841.783244 27.011371 
L 842.365482 27.011371 
L 842.365482 27.881429 
L 842.94772 27.881429 
L 842.94772 26.894661 
L 843.529958 26.894661 
L 843.529958 25.87614 
L 844.112197 25.87614 
L 844.112197 28.332743 
L 844.694435 28.332743 
L 844.694435 28.764556 
L 845.276673 28.764556 
L 845.276673 27.882617 
L 846.441149 27.796977 
L 846.441149 29.839749 
L 847.023387 29.839749 
L 847.023387 28.884445 
L 847.605626 28.884445 
L 847.605626 29.701989 
L 848.187864 29.701989 
L 848.187864 30.529074 
L 848.770102 30.529074 
L 848.770102 27.591103 
L 849.35234 27.591103 
L 849.35234 25.98368 
L 849.934578 25.98368 
L 849.934578 25.037976 
L 850.516816 25.037976 
L 850.516816 23.678838 
L 851.681293 23.698775 
L 851.681293 22.226627 
L 852.263531 22.226627 
L 852.263531 20.732418 
L 852.845769 20.732418 
L 852.845769 22.319009 
L 853.428007 22.319009 
L 853.428007 22.642373 
L 854.010245 22.642373 
L 854.010245 21.987038 
L 854.592484 21.987038 
L 854.592484 22.404485 
L 855.174722 22.404485 
L 855.174722 22.262435 
L 855.75696 22.262435 
L 855.75696 21.636151 
L 856.339198 21.636151 
L 856.339198 21.082361 
L 856.921436 21.082361 
L 856.921436 21.263585 
L 857.503674 21.263585 
L 857.503674 22.702907 
L 858.085913 22.702907 
L 858.085913 23.430247 
L 858.668151 23.430247 
L 858.668151 24.105578 
L 859.250389 24.105578 
L 859.250389 23.141043 
L 859.832627 23.141043 
L 859.832627 23.737572 
L 860.997103 23.760605 
L 860.997103 26.926824 
L 861.579342 26.926824 
L 861.579342 26.339072 
L 862.16158 26.339072 
L 862.16158 27.853354 
L 862.743818 27.853354 
L 862.743818 28.024276 
L 863.326056 28.024276 
L 863.326056 27.6215 
L 863.908294 27.6215 
L 863.908294 28.054893 
L 864.490532 28.054893 
L 864.490532 27.196453 
L 865.072771 27.196453 
L 865.072771 26.411892 
L 865.655009 26.411892 
L 865.655009 27.646799 
L 866.237247 27.646799 
L 866.237247 28.254517 
L 867.401723 28.166925 
L 867.401723 29.7323 
L 867.983961 29.7323 
L 867.983961 30.355997 
L 868.5662 30.355997 
L 868.5662 29.341921 
L 869.148438 29.341921 
L 869.148438 29.719632 
L 869.730676 29.719632 
L 869.730676 30.097051 
L 870.312914 30.097051 
L 870.312914 33.259846 
L 870.895152 33.259846 
L 870.895152 33.145674 
L 871.47739 33.145674 
L 871.47739 32.878187 
L 872.059629 32.878187 
L 872.059629 32.444384 
L 872.641867 32.444384 
L 872.641867 33.011595 
L 873.224105 33.011595 
L 873.224105 30.573296 
L 873.806343 30.573296 
L 873.806343 29.242607 
L 874.388581 29.242607 
L 874.388581 30.087202 
L 875.553057 29.997999 
L 875.553057 31.020819 
L 876.135296 31.020819 
L 876.135296 32.18797 
L 876.717534 32.18797 
L 876.717534 32.79621 
L 877.299772 32.79621 
L 877.299772 31.795046 
L 877.88201 31.795046 
L 877.88201 29.106552 
L 878.464248 29.106552 
L 878.464248 31.774911 
L 879.046486 31.774911 
L 879.046486 32.381122 
L 879.628725 32.381122 
L 879.628725 31.615634 
L 880.210963 31.615634 
L 880.210963 32.499105 
L 880.793201 32.499105 
L 880.793201 30.727796 
L 881.375439 30.727796 
L 881.375439 30.176424 
L 882.539915 30.101436 
L 882.539915 29.146722 
L 883.122154 29.146722 
L 883.122154 27.862992 
L 883.704392 27.862992 
L 883.704392 28.581041 
L 884.28663 28.581041 
L 884.28663 28.174408 
L 884.868868 28.174408 
L 884.868868 29.698301 
L 885.451106 29.698301 
L 885.451106 29.895817 
L 886.033344 29.895817 
L 886.033344 31.263243 
L 886.615583 31.263243 
L 886.615583 31.051404 
L 887.194182 31.051404 
L 887.194182 31.051404 
" clip-path="url(#p8f4521d23a)" style="fill: none; stroke: #3572c6; stroke-width: 1.2; stroke-linecap: square"/>
   </g>
   <g id="line2d_74">
    <path d="M 75.557818 20.732418 
L 887.194182 20.732418 
L 887.194182 20.732418 
" clip-path="url(#p8f4521d23a)" style="fill: none; stroke: #83a83b; stroke-width: 1.2; stroke-linecap: square"/>
   </g>
   <g id="line2d_75">
    <path d="M 75.557818 33.259846 
L 887.194182 33.259846 
L 887.194182 33.259846 
" clip-path="url(#p8f4521d23a)" style="fill: none; stroke: #c44e52; stroke-width: 1.2; stroke-linecap: square"/>
   </g>
   <g id="line2d_76">
    <path d="M 852.845769 301.139691 
L 852.845769 7.379691 
" clip-path="url(#p8f4521d23a)" style="fill: none; stroke: #83a83b; stroke-width: 1.2; stroke-linecap: square"/>
   </g>
   <g id="line2d_77">
    <path d="M 870.895152 301.139691 
L 870.895152 7.379691 
" clip-path="url(#p8f4521d23a)" style="fill: none; stroke: #c44e52; stroke-width: 1.2; stroke-linecap: square"/>
   </g>
   <g id="patch_3">
    <path d="M 34.976 301.139691 
L 34.976 7.379691 
" style="fill: none; stroke: #899ab8; stroke-width: 1.12; stroke-linejoin: miter; stroke-linecap: square"/>
   </g>
   <g id="patch_4">
    <path d="M 927.776 301.139691 
L 927.776 7.379691 
" style="fill: none; stroke: #899ab8; stroke-width: 1.12; stroke-linejoin: miter; stroke-linecap: square"/>
   </g>
   <g id="patch_5">
    <path d="M 34.976 301.139691 
L 927.776 301.139691 
" style="fill: none; stroke: #899ab8; stroke-width: 1.12; stroke-linejoin: miter; stroke-linecap: square"/>
   </g>
   <g id="patch_6">
    <path d="M 34.976 7.379691 
L 927.776 7.379691 
" style="fill: none; stroke: #899ab8; stroke-width: 1.12; stroke-linejoin: miter; stroke-linecap: square"/>
   </g>
   <g id="text_14">
    <!-- 66063.56 -->
    <g style="fill: #83a83b" transform="translate(217.041692 20.732418)scale(0.132 -0.132)">
     <defs>
      <path id="DejaVuSans-2e" d="M 684 794 
L 1344 794 
L 1344 0 
L 684 0 
L 684 794 
z
" transform="scale(0.015625)"/>
     </defs>
     <use xlink:href="#DejaVuSans-36"/>
     <use xlink:href="#DejaVuSans-36" x="63.623047"/>
     <use xlink:href="#DejaVuSans-30" x="127.246094"/>
     <use xlink:href="#DejaVuSans-36" x="190.869141"/>
     <use xlink:href="#DejaVuSans-33" x="254.492188"/>
     <use xlink:href="#DejaVuSans-2e" x="318.115234"/>
     <use xlink:href="#DejaVuSans-35" x="349.902344"/>
     <use xlink:href="#DejaVuSans-36" x="413.525391"/>
    </g>
   </g>
   <g id="text_15">
    <!-- 36480.85 -->
    <g style="fill: #c44e52" transform="translate(217.041692 33.259846)scale(0.132 -0.132)">
     <use xlink:href="#DejaVuSans-33"/>
     <use xlink:href="#DejaVuSans-36" x="63.623047"/>
     <use xlink:href="#DejaVuSans-34" x="127.246094"/>
     <use xlink:href="#DejaVuSans-38" x="190.869141"/>
     <use xlink:href="#DejaVuSans-30" x="254.492188"/>
     <use xlink:href="#DejaVuSans-2e" x="318.115234"/>
     <use xlink:href="#DejaVuSans-38" x="349.902344"/>
     <use xlink:href="#DejaVuSans-35" x="413.525391"/>
    </g>
   </g>
   <g id="legend_1">
    <g id="patch_7">
     <path d="M 432.207453 294.839691 
L 530.544547 294.839691 
Q 533.064547 294.839691 533.064547 292.319691 
L 533.064547 237.745941 
Q 533.064547 235.225941 530.544547 235.225941 
L 432.207453 235.225941 
Q 429.687453 235.225941 429.687453 237.745941 
L 429.687453 292.319691 
Q 429.687453 294.839691 432.207453 294.839691 
z
" style="fill: #373e4b; opacity: 0.8; stroke: #cccccc; stroke-width: 0.16; stroke-linejoin: miter"/>
    </g>
    <g id="line2d_78">
     <path d="M 434.727453 245.429972 
L 434.727453 245.429972 
L 447.327453 245.429972 
L 447.327453 245.429972 
L 459.927453 245.429972 
" style="fill: none; stroke: #3572c6; stroke-width: 1.2; stroke-linecap: square"/>
    </g>
    <g id="text_16">
     <!-- USD/BTC -->
     <g style="fill: #b1bed6" transform="translate(470.007453 249.839972)scale(0.126 -0.126)">
      <defs>
       <path id="DejaVuSans-55" d="M 556 4666 
L 1191 4666 
L 1191 1831 
Q 1191 1081 1462 751 
Q 1734 422 2344 422 
Q 2950 422 3222 751 
Q 3494 1081 3494 1831 
L 3494 4666 
L 4128 4666 
L 4128 1753 
Q 4128 841 3676 375 
Q 3225 -91 2344 -91 
Q 1459 -91 1007 375 
Q 556 841 556 1753 
L 556 4666 
z
" transform="scale(0.015625)"/>
       <path id="DejaVuSans-53" d="M 3425 4513 
L 3425 3897 
Q 3066 4069 2747 4153 
Q 2428 4238 2131 4238 
Q 1616 4238 1336 4038 
Q 1056 3838 1056 3469 
Q 1056 3159 1242 3001 
Q 1428 2844 1947 2747 
L 2328 2669 
Q 3034 2534 3370 2195 
Q 3706 1856 3706 1288 
Q 3706 609 3251 259 
Q 2797 -91 1919 -91 
Q 1588 -91 1214 -16 
Q 841 59 441 206 
L 441 856 
Q 825 641 1194 531 
Q 1563 422 1919 422 
Q 2459 422 2753 634 
Q 3047 847 3047 1241 
Q 3047 1584 2836 1778 
Q 2625 1972 2144 2069 
L 1759 2144 
Q 1053 2284 737 2584 
Q 422 2884 422 3419 
Q 422 4038 858 4394 
Q 1294 4750 2059 4750 
Q 2388 4750 2728 4690 
Q 3069 4631 3425 4513 
z
" transform="scale(0.015625)"/>
       <path id="DejaVuSans-2f" d="M 1625 4666 
L 2156 4666 
L 531 -594 
L 0 -594 
L 1625 4666 
z
" transform="scale(0.015625)"/>
       <path id="DejaVuSans-42" d="M 1259 2228 
L 1259 519 
L 2272 519 
Q 2781 519 3026 730 
Q 3272 941 3272 1375 
Q 3272 1813 3026 2020 
Q 2781 2228 2272 2228 
L 1259 2228 
z
M 1259 4147 
L 1259 2741 
L 2194 2741 
Q 2656 2741 2882 2914 
Q 3109 3088 3109 3444 
Q 3109 3797 2882 3972 
Q 2656 4147 2194 4147 
L 1259 4147 
z
M 628 4666 
L 2241 4666 
Q 2963 4666 3353 4366 
Q 3744 4066 3744 3513 
Q 3744 3084 3544 2831 
Q 3344 2578 2956 2516 
Q 3422 2416 3680 2098 
Q 3938 1781 3938 1306 
Q 3938 681 3513 340 
Q 3088 0 2303 0 
L 628 0 
L 628 4666 
z
" transform="scale(0.015625)"/>
       <path id="DejaVuSans-54" d="M -19 4666 
L 3928 4666 
L 3928 4134 
L 2272 4134 
L 2272 0 
L 1638 0 
L 1638 4134 
L -19 4134 
L -19 4666 
z
" transform="scale(0.015625)"/>
       <path id="DejaVuSans-43" d="M 4122 4306 
L 4122 3641 
Q 3803 3938 3442 4084 
Q 3081 4231 2675 4231 
Q 1875 4231 1450 3742 
Q 1025 3253 1025 2328 
Q 1025 1406 1450 917 
Q 1875 428 2675 428 
Q 3081 428 3442 575 
Q 3803 722 4122 1019 
L 4122 359 
Q 3791 134 3420 21 
Q 3050 -91 2638 -91 
Q 1578 -91 968 557 
Q 359 1206 359 2328 
Q 359 3453 968 4101 
Q 1578 4750 2638 4750 
Q 3056 4750 3426 4639 
Q 3797 4528 4122 4306 
z
" transform="scale(0.015625)"/>
      </defs>
      <use xlink:href="#DejaVuSans-55"/>
      <use xlink:href="#DejaVuSans-53" x="73.193359"/>
      <use xlink:href="#DejaVuSans-44" x="136.669922"/>
      <use xlink:href="#DejaVuSans-2f" x="213.671875"/>
      <use xlink:href="#DejaVuSans-42" x="247.363281"/>
      <use xlink:href="#DejaVuSans-54" x="315.966797"/>
      <use xlink:href="#DejaVuSans-43" x="371.175781"/>
     </g>
    </g>
    <g id="line2d_79">
     <path d="M 434.727453 263.92441 
L 434.727453 263.92441 
L 447.327453 263.92441 
L 447.327453 263.92441 
L 459.927453 263.92441 
" style="fill: none; stroke: #83a83b; stroke-width: 1.2; stroke-linecap: square"/>
    </g>
    <g id="text_17">
     <!-- Max -->
     <g style="fill: #b1bed6" transform="translate(470.007453 268.33441)scale(0.126 -0.126)">
      <defs>
       <path id="DejaVuSans-4d" d="M 628 4666 
L 1569 4666 
L 2759 1491 
L 3956 4666 
L 4897 4666 
L 4897 0 
L 4281 0 
L 4281 4097 
L 3078 897 
L 2444 897 
L 1241 4097 
L 1241 0 
L 628 0 
L 628 4666 
z
" transform="scale(0.015625)"/>
       <path id="DejaVuSans-78" d="M 3513 3500 
L 2247 1797 
L 3578 0 
L 2900 0 
L 1881 1375 
L 863 0 
L 184 0 
L 1544 1831 
L 300 3500 
L 978 3500 
L 1906 2253 
L 2834 3500 
L 3513 3500 
z
" transform="scale(0.015625)"/>
      </defs>
      <use xlink:href="#DejaVuSans-4d"/>
      <use xlink:href="#DejaVuSans-61" x="86.279297"/>
      <use xlink:href="#DejaVuSans-78" x="147.558594"/>
     </g>
    </g>
    <g id="line2d_80">
     <path d="M 434.727453 282.418847 
L 434.727453 282.418847 
L 447.327453 282.418847 
L 447.327453 282.418847 
L 459.927453 282.418847 
" style="fill: none; stroke: #c44e52; stroke-width: 1.2; stroke-linecap: square"/>
    </g>
    <g id="text_18">
     <!-- local_Min -->
     <g style="fill: #b1bed6" transform="translate(470.007453 286.828847)scale(0.126 -0.126)">
      <defs>
       <path id="DejaVuSans-6c" d="M 603 4863 
L 1178 4863 
L 1178 0 
L 603 0 
L 603 4863 
z
" transform="scale(0.015625)"/>
       <path id="DejaVuSans-6f" d="M 1959 3097 
Q 1497 3097 1228 2736 
Q 959 2375 959 1747 
Q 959 1119 1226 758 
Q 1494 397 1959 397 
Q 2419 397 2687 759 
Q 2956 1122 2956 1747 
Q 2956 2369 2687 2733 
Q 2419 3097 1959 3097 
z
M 1959 3584 
Q 2709 3584 3137 3096 
Q 3566 2609 3566 1747 
Q 3566 888 3137 398 
Q 2709 -91 1959 -91 
Q 1206 -91 779 398 
Q 353 888 353 1747 
Q 353 2609 779 3096 
Q 1206 3584 1959 3584 
z
" transform="scale(0.015625)"/>
       <path id="DejaVuSans-63" d="M 3122 3366 
L 3122 2828 
Q 2878 2963 2633 3030 
Q 2388 3097 2138 3097 
Q 1578 3097 1268 2742 
Q 959 2388 959 1747 
Q 959 1106 1268 751 
Q 1578 397 2138 397 
Q 2388 397 2633 464 
Q 2878 531 3122 666 
L 3122 134 
Q 2881 22 2623 -34 
Q 2366 -91 2075 -91 
Q 1284 -91 818 406 
Q 353 903 353 1747 
Q 353 2603 823 3093 
Q 1294 3584 2113 3584 
Q 2378 3584 2631 3529 
Q 2884 3475 3122 3366 
z
" transform="scale(0.015625)"/>
       <path id="DejaVuSans-5f" d="M 3263 -1063 
L 3263 -1509 
L -63 -1509 
L -63 -1063 
L 3263 -1063 
z
" transform="scale(0.015625)"/>
       <path id="DejaVuSans-69" d="M 603 3500 
L 1178 3500 
L 1178 0 
L 603 0 
L 603 3500 
z
M 603 4863 
L 1178 4863 
L 1178 4134 
L 603 4134 
L 603 4863 
z
" transform="scale(0.015625)"/>
       <path id="DejaVuSans-6e" d="M 3513 2113 
L 3513 0 
L 2938 0 
L 2938 2094 
Q 2938 2591 2744 2837 
Q 2550 3084 2163 3084 
Q 1697 3084 1428 2787 
Q 1159 2491 1159 1978 
L 1159 0 
L 581 0 
L 581 3500 
L 1159 3500 
L 1159 2956 
Q 1366 3272 1645 3428 
Q 1925 3584 2291 3584 
Q 2894 3584 3203 3211 
Q 3513 2838 3513 2113 
z
" transform="scale(0.015625)"/>
      </defs>
      <use xlink:href="#DejaVuSans-6c"/>
      <use xlink:href="#DejaVuSans-6f" x="27.783203"/>
      <use xlink:href="#DejaVuSans-63" x="88.964844"/>
      <use xlink:href="#DejaVuSans-61" x="143.945312"/>
      <use xlink:href="#DejaVuSans-6c" x="205.224609"/>
      <use xlink:href="#DejaVuSans-5f" x="233.007812"/>
      <use xlink:href="#DejaVuSans-4d" x="283.007812"/>
      <use xlink:href="#DejaVuSans-69" x="369.287109"/>
      <use xlink:href="#DejaVuSans-6e" x="397.070312"/>
     </g>
    </g>
   </g>
  </g>
 </g>
 <defs>
  <clipPath id="p8f4521d23a">
   <rect x="34.976" y="7.379691" width="892.8" height="293.76"/>
  </clipPath>
 </defs>
</svg>
