<?xml version="1.0" encoding="utf-8" standalone="no"?>
<!DOCTYPE svg PUBLIC "-//W3C//DTD SVG 1.1//EN"
  "http://www.w3.org/Graphics/SVG/1.1/DTD/svg11.dtd">
<svg xmlns:xlink="http://www.w3.org/1999/xlink" width="952.88375pt" height="358.290693pt" viewBox="0 0 952.88375 358.290693" xmlns="http://www.w3.org/2000/svg" version="1.1">
 <metadata>
  <rdf:RDF xmlns:dc="http://purl.org/dc/elements/1.1/" xmlns:cc="http://creativecommons.org/ns#" xmlns:rdf="http://www.w3.org/1999/02/22-rdf-syntax-ns#">
   <cc:Work>
    <dc:type rdf:resource="http://purl.org/dc/dcmitype/StillImage"/>
    <dc:date>2023-12-02T12:27:17.715541</dc:date>
    <dc:format>image/svg+xml</dc:format>
    <dc:creator>
     <cc:Agent>
      <dc:title>Matplotlib v3.8.2, https://matplotlib.org/</dc:title>
     </cc:Agent>
    </dc:creator>
   </cc:Work>
  </rdf:RDF>
 </metadata>
 <defs>
  <style type="text/css">*{stroke-linejoin: round; stroke-linecap: butt}</style>
 </defs>
 <g id="figure_1">
  <g id="patch_1">
   <path d="M 0 358.290693 
L 952.88375 358.290693 
L 952.88375 0 
L 0 0 
z
" style="fill: #373e4b"/>
  </g>
  <g id="axes_1">
   <g id="patch_2">
    <path d="M 52.88375 300.96 
L 945.68375 300.96 
L 945.68375 7.2 
L 52.88375 7.2 
z
" style="fill: #373e4b"/>
   </g>
   <g id="matplotlib.axis_1">
    <g id="xtick_1">
     <g id="line2d_1">
      <path d="M 99.799148 300.96 
L 99.799148 7.2 
" clip-path="url(#p19a8416106)" style="fill: none; stroke: #546379; stroke-width: 1.12; stroke-linecap: square"/>
     </g>
     <g id="line2d_2"/>
     <g id="text_1">
      <!-- 2018 -->
      <g style="fill: #b1bed6" transform="translate(70.718108 330.884854) rotate(-30) scale(0.126 -0.126)">
       <defs>
        <path id="DejaVuSans-32" d="M 1228 531 
L 3431 531 
L 3431 0 
L 469 0 
L 469 531 
Q 828 903 1448 1529 
Q 2069 2156 2228 2338 
Q 2531 2678 2651 2914 
Q 2772 3150 2772 3378 
Q 2772 3750 2511 3984 
Q 2250 4219 1831 4219 
Q 1534 4219 1204 4116 
Q 875 4013 500 3803 
L 500 4441 
Q 881 4594 1212 4672 
Q 1544 4750 1819 4750 
Q 2544 4750 2975 4387 
Q 3406 4025 3406 3419 
Q 3406 3131 3298 2873 
Q 3191 2616 2906 2266 
Q 2828 2175 2409 1742 
Q 1991 1309 1228 531 
z
" transform="scale(0.015625)"/>
        <path id="DejaVuSans-30" d="M 2034 4250 
Q 1547 4250 1301 3770 
Q 1056 3291 1056 2328 
Q 1056 1369 1301 889 
Q 1547 409 2034 409 
Q 2525 409 2770 889 
Q 3016 1369 3016 2328 
Q 3016 3291 2770 3770 
Q 2525 4250 2034 4250 
z
M 2034 4750 
Q 2819 4750 3233 4129 
Q 3647 3509 3647 2328 
Q 3647 1150 3233 529 
Q 2819 -91 2034 -91 
Q 1250 -91 836 529 
Q 422 1150 422 2328 
Q 422 3509 836 4129 
Q 1250 4750 2034 4750 
z
" transform="scale(0.015625)"/>
        <path id="DejaVuSans-31" d="M 794 531 
L 1825 531 
L 1825 4091 
L 703 3866 
L 703 4441 
L 1819 4666 
L 2450 4666 
L 2450 531 
L 3481 531 
L 3481 0 
L 794 0 
L 794 531 
z
" transform="scale(0.015625)"/>
        <path id="DejaVuSans-38" d="M 2034 2216 
Q 1584 2216 1326 1975 
Q 1069 1734 1069 1313 
Q 1069 891 1326 650 
Q 1584 409 2034 409 
Q 2484 409 2743 651 
Q 3003 894 3003 1313 
Q 3003 1734 2745 1975 
Q 2488 2216 2034 2216 
z
M 1403 2484 
Q 997 2584 770 2862 
Q 544 3141 544 3541 
Q 544 4100 942 4425 
Q 1341 4750 2034 4750 
Q 2731 4750 3128 4425 
Q 3525 4100 3525 3541 
Q 3525 3141 3298 2862 
Q 3072 2584 2669 2484 
Q 3125 2378 3379 2068 
Q 3634 1759 3634 1313 
Q 3634 634 3220 271 
Q 2806 -91 2034 -91 
Q 1263 -91 848 271 
Q 434 634 434 1313 
Q 434 1759 690 2068 
Q 947 2378 1403 2484 
z
M 1172 3481 
Q 1172 3119 1398 2916 
Q 1625 2713 2034 2713 
Q 2441 2713 2670 2916 
Q 2900 3119 2900 3481 
Q 2900 3844 2670 4047 
Q 2441 4250 2034 4250 
Q 1625 4250 1398 4047 
Q 1172 3844 1172 3481 
z
" transform="scale(0.015625)"/>
       </defs>
       <use xlink:href="#DejaVuSans-32"/>
       <use xlink:href="#DejaVuSans-30" x="63.623047"/>
       <use xlink:href="#DejaVuSans-31" x="127.246094"/>
       <use xlink:href="#DejaVuSans-38" x="190.869141"/>
      </g>
     </g>
    </g>
    <g id="xtick_2">
     <g id="line2d_3">
      <path d="M 235.784834 300.96 
L 235.784834 7.2 
" clip-path="url(#p19a8416106)" style="fill: none; stroke: #546379; stroke-width: 1.12; stroke-linecap: square"/>
     </g>
     <g id="line2d_4"/>
     <g id="text_2">
      <!-- 2019 -->
      <g style="fill: #b1bed6" transform="translate(206.703795 330.884854) rotate(-30) scale(0.126 -0.126)">
       <defs>
        <path id="DejaVuSans-39" d="M 703 97 
L 703 672 
Q 941 559 1184 500 
Q 1428 441 1663 441 
Q 2288 441 2617 861 
Q 2947 1281 2994 2138 
Q 2813 1869 2534 1725 
Q 2256 1581 1919 1581 
Q 1219 1581 811 2004 
Q 403 2428 403 3163 
Q 403 3881 828 4315 
Q 1253 4750 1959 4750 
Q 2769 4750 3195 4129 
Q 3622 3509 3622 2328 
Q 3622 1225 3098 567 
Q 2575 -91 1691 -91 
Q 1453 -91 1209 -44 
Q 966 3 703 97 
z
M 1959 2075 
Q 2384 2075 2632 2365 
Q 2881 2656 2881 3163 
Q 2881 3666 2632 3958 
Q 2384 4250 1959 4250 
Q 1534 4250 1286 3958 
Q 1038 3666 1038 3163 
Q 1038 2656 1286 2365 
Q 1534 2075 1959 2075 
z
" transform="scale(0.015625)"/>
       </defs>
       <use xlink:href="#DejaVuSans-32"/>
       <use xlink:href="#DejaVuSans-30" x="63.623047"/>
       <use xlink:href="#DejaVuSans-31" x="127.246094"/>
       <use xlink:href="#DejaVuSans-39" x="190.869141"/>
      </g>
     </g>
    </g>
    <g id="xtick_3">
     <g id="line2d_5">
      <path d="M 371.770521 300.96 
L 371.770521 7.2 
" clip-path="url(#p19a8416106)" style="fill: none; stroke: #546379; stroke-width: 1.12; stroke-linecap: square"/>
     </g>
     <g id="line2d_6"/>
     <g id="text_3">
      <!-- 2020 -->
      <g style="fill: #b1bed6" transform="translate(342.689481 330.884854) rotate(-30) scale(0.126 -0.126)">
       <use xlink:href="#DejaVuSans-32"/>
       <use xlink:href="#DejaVuSans-30" x="63.623047"/>
       <use xlink:href="#DejaVuSans-32" x="127.246094"/>
       <use xlink:href="#DejaVuSans-30" x="190.869141"/>
      </g>
     </g>
    </g>
    <g id="xtick_4">
     <g id="line2d_7">
      <path d="M 508.12877 300.96 
L 508.12877 7.2 
" clip-path="url(#p19a8416106)" style="fill: none; stroke: #546379; stroke-width: 1.12; stroke-linecap: square"/>
     </g>
     <g id="line2d_8"/>
     <g id="text_4">
      <!-- 2021 -->
      <g style="fill: #b1bed6" transform="translate(479.047731 330.884854) rotate(-30) scale(0.126 -0.126)">
       <use xlink:href="#DejaVuSans-32"/>
       <use xlink:href="#DejaVuSans-30" x="63.623047"/>
       <use xlink:href="#DejaVuSans-32" x="127.246094"/>
       <use xlink:href="#DejaVuSans-31" x="190.869141"/>
      </g>
     </g>
    </g>
    <g id="xtick_5">
     <g id="line2d_9">
      <path d="M 644.114456 300.96 
L 644.114456 7.2 
" clip-path="url(#p19a8416106)" style="fill: none; stroke: #546379; stroke-width: 1.12; stroke-linecap: square"/>
     </g>
     <g id="line2d_10"/>
     <g id="text_5">
      <!-- 2022 -->
      <g style="fill: #b1bed6" transform="translate(615.033417 330.884854) rotate(-30) scale(0.126 -0.126)">
       <use xlink:href="#DejaVuSans-32"/>
       <use xlink:href="#DejaVuSans-30" x="63.623047"/>
       <use xlink:href="#DejaVuSans-32" x="127.246094"/>
       <use xlink:href="#DejaVuSans-32" x="190.869141"/>
      </g>
     </g>
    </g>
    <g id="xtick_6">
     <g id="line2d_11">
      <path d="M 780.100143 300.96 
L 780.100143 7.2 
" clip-path="url(#p19a8416106)" style="fill: none; stroke: #546379; stroke-width: 1.12; stroke-linecap: square"/>
     </g>
     <g id="line2d_12"/>
     <g id="text_6">
      <!-- 2023 -->
      <g style="fill: #b1bed6" transform="translate(751.019103 330.884854) rotate(-30) scale(0.126 -0.126)">
       <defs>
        <path id="DejaVuSans-33" d="M 2597 2516 
Q 3050 2419 3304 2112 
Q 3559 1806 3559 1356 
Q 3559 666 3084 287 
Q 2609 -91 1734 -91 
Q 1441 -91 1130 -33 
Q 819 25 488 141 
L 488 750 
Q 750 597 1062 519 
Q 1375 441 1716 441 
Q 2309 441 2620 675 
Q 2931 909 2931 1356 
Q 2931 1769 2642 2001 
Q 2353 2234 1838 2234 
L 1294 2234 
L 1294 2753 
L 1863 2753 
Q 2328 2753 2575 2939 
Q 2822 3125 2822 3475 
Q 2822 3834 2567 4026 
Q 2313 4219 1838 4219 
Q 1578 4219 1281 4162 
Q 984 4106 628 3988 
L 628 4550 
Q 988 4650 1302 4700 
Q 1616 4750 1894 4750 
Q 2613 4750 3031 4423 
Q 3450 4097 3450 3541 
Q 3450 3153 3228 2886 
Q 3006 2619 2597 2516 
z
" transform="scale(0.015625)"/>
       </defs>
       <use xlink:href="#DejaVuSans-32"/>
       <use xlink:href="#DejaVuSans-30" x="63.623047"/>
       <use xlink:href="#DejaVuSans-32" x="127.246094"/>
       <use xlink:href="#DejaVuSans-33" x="190.869141"/>
      </g>
     </g>
    </g>
    <g id="xtick_7">
     <g id="line2d_13">
      <path d="M 916.085829 300.96 
L 916.085829 7.2 
" clip-path="url(#p19a8416106)" style="fill: none; stroke: #546379; stroke-width: 1.12; stroke-linecap: square"/>
     </g>
     <g id="line2d_14"/>
     <g id="text_7">
      <!-- 2024 -->
      <g style="fill: #b1bed6" transform="translate(887.004789 330.884854) rotate(-30) scale(0.126 -0.126)">
       <defs>
        <path id="DejaVuSans-34" d="M 2419 4116 
L 825 1625 
L 2419 1625 
L 2419 4116 
z
M 2253 4666 
L 3047 4666 
L 3047 1625 
L 3713 1625 
L 3713 1100 
L 3047 1100 
L 3047 0 
L 2419 0 
L 2419 1100 
L 313 1100 
L 313 1709 
L 2253 4666 
z
" transform="scale(0.015625)"/>
       </defs>
       <use xlink:href="#DejaVuSans-32"/>
       <use xlink:href="#DejaVuSans-30" x="63.623047"/>
       <use xlink:href="#DejaVuSans-32" x="127.246094"/>
       <use xlink:href="#DejaVuSans-34" x="190.869141"/>
      </g>
     </g>
    </g>
    <g id="text_8">
     <!-- Date -->
     <g style="fill: #b1bed6" transform="translate(482.074625 348.095943) scale(0.144 -0.144)">
      <defs>
       <path id="DejaVuSans-44" d="M 1259 4147 
L 1259 519 
L 2022 519 
Q 2988 519 3436 956 
Q 3884 1394 3884 2338 
Q 3884 3275 3436 3711 
Q 2988 4147 2022 4147 
L 1259 4147 
z
M 628 4666 
L 1925 4666 
Q 3281 4666 3915 4102 
Q 4550 3538 4550 2338 
Q 4550 1131 3912 565 
Q 3275 0 1925 0 
L 628 0 
L 628 4666 
z
" transform="scale(0.015625)"/>
       <path id="DejaVuSans-61" d="M 2194 1759 
Q 1497 1759 1228 1600 
Q 959 1441 959 1056 
Q 959 750 1161 570 
Q 1363 391 1709 391 
Q 2188 391 2477 730 
Q 2766 1069 2766 1631 
L 2766 1759 
L 2194 1759 
z
M 3341 1997 
L 3341 0 
L 2766 0 
L 2766 531 
Q 2569 213 2275 61 
Q 1981 -91 1556 -91 
Q 1019 -91 701 211 
Q 384 513 384 1019 
Q 384 1609 779 1909 
Q 1175 2209 1959 2209 
L 2766 2209 
L 2766 2266 
Q 2766 2663 2505 2880 
Q 2244 3097 1772 3097 
Q 1472 3097 1187 3025 
Q 903 2953 641 2809 
L 641 3341 
Q 956 3463 1253 3523 
Q 1550 3584 1831 3584 
Q 2591 3584 2966 3190 
Q 3341 2797 3341 1997 
z
" transform="scale(0.015625)"/>
       <path id="DejaVuSans-74" d="M 1172 4494 
L 1172 3500 
L 2356 3500 
L 2356 3053 
L 1172 3053 
L 1172 1153 
Q 1172 725 1289 603 
Q 1406 481 1766 481 
L 2356 481 
L 2356 0 
L 1766 0 
Q 1100 0 847 248 
Q 594 497 594 1153 
L 594 3053 
L 172 3053 
L 172 3500 
L 594 3500 
L 594 4494 
L 1172 4494 
z
" transform="scale(0.015625)"/>
       <path id="DejaVuSans-65" d="M 3597 1894 
L 3597 1613 
L 953 1613 
Q 991 1019 1311 708 
Q 1631 397 2203 397 
Q 2534 397 2845 478 
Q 3156 559 3463 722 
L 3463 178 
Q 3153 47 2828 -22 
Q 2503 -91 2169 -91 
Q 1331 -91 842 396 
Q 353 884 353 1716 
Q 353 2575 817 3079 
Q 1281 3584 2069 3584 
Q 2775 3584 3186 3129 
Q 3597 2675 3597 1894 
z
M 3022 2063 
Q 3016 2534 2758 2815 
Q 2500 3097 2075 3097 
Q 1594 3097 1305 2825 
Q 1016 2553 972 2059 
L 3022 2063 
z
" transform="scale(0.015625)"/>
      </defs>
      <use xlink:href="#DejaVuSans-44"/>
      <use xlink:href="#DejaVuSans-61" x="77.001953"/>
      <use xlink:href="#DejaVuSans-74" x="138.28125"/>
      <use xlink:href="#DejaVuSans-65" x="177.490234"/>
     </g>
    </g>
   </g>
   <g id="matplotlib.axis_2">
    <g id="ytick_1">
     <g id="line2d_15">
      <path d="M 52.88375 258.56324 
L 945.68375 258.56324 
" clip-path="url(#p19a8416106)" style="fill: none; stroke: #546379; stroke-width: 1.12; stroke-linecap: square"/>
     </g>
     <g id="line2d_16"/>
     <g id="text_9">
      <!-- 10000 -->
      <g style="fill: #b1bed6" transform="translate(7.2 263.350256) scale(0.126 -0.126)">
       <use xlink:href="#DejaVuSans-31"/>
       <use xlink:href="#DejaVuSans-30" x="63.623047"/>
       <use xlink:href="#DejaVuSans-30" x="127.246094"/>
       <use xlink:href="#DejaVuSans-30" x="190.869141"/>
       <use xlink:href="#DejaVuSans-30" x="254.492188"/>
      </g>
     </g>
    </g>
    <g id="ytick_2">
     <g id="line2d_17">
      <path d="M 52.88375 215.161403 
L 945.68375 215.161403 
" clip-path="url(#p19a8416106)" style="fill: none; stroke: #546379; stroke-width: 1.12; stroke-linecap: square"/>
     </g>
     <g id="line2d_18"/>
     <g id="text_10">
      <!-- 20000 -->
      <g style="fill: #b1bed6" transform="translate(7.2 219.948418) scale(0.126 -0.126)">
       <use xlink:href="#DejaVuSans-32"/>
       <use xlink:href="#DejaVuSans-30" x="63.623047"/>
       <use xlink:href="#DejaVuSans-30" x="127.246094"/>
       <use xlink:href="#DejaVuSans-30" x="190.869141"/>
       <use xlink:href="#DejaVuSans-30" x="254.492188"/>
      </g>
     </g>
    </g>
    <g id="ytick_3">
     <g id="line2d_19">
      <path d="M 52.88375 171.759565 
L 945.68375 171.759565 
" clip-path="url(#p19a8416106)" style="fill: none; stroke: #546379; stroke-width: 1.12; stroke-linecap: square"/>
     </g>
     <g id="line2d_20"/>
     <g id="text_11">
      <!-- 30000 -->
      <g style="fill: #b1bed6" transform="translate(7.2 176.546581) scale(0.126 -0.126)">
       <use xlink:href="#DejaVuSans-33"/>
       <use xlink:href="#DejaVuSans-30" x="63.623047"/>
       <use xlink:href="#DejaVuSans-30" x="127.246094"/>
       <use xlink:href="#DejaVuSans-30" x="190.869141"/>
       <use xlink:href="#DejaVuSans-30" x="254.492188"/>
      </g>
     </g>
    </g>
    <g id="ytick_4">
     <g id="line2d_21">
      <path d="M 52.88375 128.357727 
L 945.68375 128.357727 
" clip-path="url(#p19a8416106)" style="fill: none; stroke: #546379; stroke-width: 1.12; stroke-linecap: square"/>
     </g>
     <g id="line2d_22"/>
     <g id="text_12">
      <!-- 40000 -->
      <g style="fill: #b1bed6" transform="translate(7.2 133.144743) scale(0.126 -0.126)">
       <use xlink:href="#DejaVuSans-34"/>
       <use xlink:href="#DejaVuSans-30" x="63.623047"/>
       <use xlink:href="#DejaVuSans-30" x="127.246094"/>
       <use xlink:href="#DejaVuSans-30" x="190.869141"/>
       <use xlink:href="#DejaVuSans-30" x="254.492188"/>
      </g>
     </g>
    </g>
    <g id="ytick_5">
     <g id="line2d_23">
      <path d="M 52.88375 84.95589 
L 945.68375 84.95589 
" clip-path="url(#p19a8416106)" style="fill: none; stroke: #546379; stroke-width: 1.12; stroke-linecap: square"/>
     </g>
     <g id="line2d_24"/>
     <g id="text_13">
      <!-- 50000 -->
      <g style="fill: #b1bed6" transform="translate(7.2 89.742905) scale(0.126 -0.126)">
       <defs>
        <path id="DejaVuSans-35" d="M 691 4666 
L 3169 4666 
L 3169 4134 
L 1269 4134 
L 1269 2991 
Q 1406 3038 1543 3061 
Q 1681 3084 1819 3084 
Q 2600 3084 3056 2656 
Q 3513 2228 3513 1497 
Q 3513 744 3044 326 
Q 2575 -91 1722 -91 
Q 1428 -91 1123 -41 
Q 819 9 494 109 
L 494 744 
Q 775 591 1075 516 
Q 1375 441 1709 441 
Q 2250 441 2565 725 
Q 2881 1009 2881 1497 
Q 2881 1984 2565 2268 
Q 2250 2553 1709 2553 
Q 1456 2553 1204 2497 
Q 953 2441 691 2322 
L 691 4666 
z
" transform="scale(0.015625)"/>
       </defs>
       <use xlink:href="#DejaVuSans-35"/>
       <use xlink:href="#DejaVuSans-30" x="63.623047"/>
       <use xlink:href="#DejaVuSans-30" x="127.246094"/>
       <use xlink:href="#DejaVuSans-30" x="190.869141"/>
       <use xlink:href="#DejaVuSans-30" x="254.492188"/>
      </g>
     </g>
    </g>
    <g id="ytick_6">
     <g id="line2d_25">
      <path d="M 52.88375 41.554052 
L 945.68375 41.554052 
" clip-path="url(#p19a8416106)" style="fill: none; stroke: #546379; stroke-width: 1.12; stroke-linecap: square"/>
     </g>
     <g id="line2d_26"/>
     <g id="text_14">
      <!-- 60000 -->
      <g style="fill: #b1bed6" transform="translate(7.2 46.341068) scale(0.126 -0.126)">
       <defs>
        <path id="DejaVuSans-36" d="M 2113 2584 
Q 1688 2584 1439 2293 
Q 1191 2003 1191 1497 
Q 1191 994 1439 701 
Q 1688 409 2113 409 
Q 2538 409 2786 701 
Q 3034 994 3034 1497 
Q 3034 2003 2786 2293 
Q 2538 2584 2113 2584 
z
M 3366 4563 
L 3366 3988 
Q 3128 4100 2886 4159 
Q 2644 4219 2406 4219 
Q 1781 4219 1451 3797 
Q 1122 3375 1075 2522 
Q 1259 2794 1537 2939 
Q 1816 3084 2150 3084 
Q 2853 3084 3261 2657 
Q 3669 2231 3669 1497 
Q 3669 778 3244 343 
Q 2819 -91 2113 -91 
Q 1303 -91 875 529 
Q 447 1150 447 2328 
Q 447 3434 972 4092 
Q 1497 4750 2381 4750 
Q 2619 4750 2861 4703 
Q 3103 4656 3366 4563 
z
" transform="scale(0.015625)"/>
       </defs>
       <use xlink:href="#DejaVuSans-36"/>
       <use xlink:href="#DejaVuSans-30" x="63.623047"/>
       <use xlink:href="#DejaVuSans-30" x="127.246094"/>
       <use xlink:href="#DejaVuSans-30" x="190.869141"/>
       <use xlink:href="#DejaVuSans-30" x="254.492188"/>
      </g>
     </g>
    </g>
   </g>
   <g id="line2d_27">
    <path d="M 93.465568 230.750692 
L 93.465568 219.884434 
L 94.955822 219.884434 
L 94.955822 242.172059 
L 96.446076 242.172059 
L 96.446076 233.91972 
L 97.93633 233.91972 
L 97.93633 247.224337 
L 99.426585 247.224337 
L 99.426585 236.692013 
L 100.916839 236.692013 
L 100.916839 231.684873 
L 102.407093 231.684873 
L 102.407093 244.30335 
L 103.897347 244.30335 
L 103.897347 243.13762 
L 105.387601 243.13762 
L 105.387601 252.02471 
L 106.877855 252.02471 
L 106.877855 254.954421 
L 108.368109 254.954421 
L 108.368109 252.350832 
L 109.858363 252.350832 
L 109.858363 257.677843 
L 111.348617 257.677843 
L 111.348617 266.36663 
L 112.838871 266.36663 
L 112.838871 266.179916 
L 114.329126 266.179916 
L 114.329126 263.356018 
L 115.81938 263.356018 
L 115.81938 257.788257 
L 117.309634 257.788257 
L 117.309634 253.155458 
L 118.799888 253.155458 
L 118.799888 259.866337 
L 120.290142 259.866337 
L 120.290142 257.121692 
L 121.780396 257.121692 
L 121.780396 251.979919 
L 123.27065 251.979919 
L 123.27065 261.495034 
L 124.760904 261.495034 
L 124.760904 262.3392 
L 126.251158 262.3392 
L 126.251158 265.950711 
L 127.741412 265.950711 
L 127.741412 263.294258 
L 129.231666 263.294258 
L 129.231666 264.926991 
L 130.721921 264.926991 
L 130.721921 267.45797 
L 132.212175 267.45797 
L 132.212175 272.3323 
L 133.702429 272.3323 
L 133.702429 272.509726 
L 136.682937 272.519492 
L 136.682937 267.698242 
L 139.663445 267.64642 
L 139.663445 263.204633 
L 141.153699 263.204633 
L 141.153699 263.46704 
L 142.643953 263.46704 
L 142.643953 261.174295 
L 144.134207 261.174295 
L 144.134207 259.633747 
L 145.624462 259.633747 
L 145.624462 261.301202 
L 147.114716 261.301202 
L 147.114716 265.521293 
L 148.60497 265.521293 
L 148.60497 265.199121 
L 150.095224 265.199121 
L 150.095224 266.19298 
L 151.585478 266.19298 
L 151.585478 269.362008 
L 153.075732 269.362008 
L 153.075732 270.088338 
L 154.565986 270.088338 
L 154.565986 269.458577 
L 157.546494 269.433361 
L 157.546494 268.912235 
L 159.036748 268.912235 
L 159.036748 273.523854 
L 160.527002 273.523854 
L 160.527002 273.803014 
L 162.017257 273.803014 
L 162.017257 272.621833 
L 163.507511 272.621833 
L 163.507511 275.242393 
L 164.997765 275.242393 
L 164.997765 276.45287 
L 166.488019 276.45287 
L 166.488019 273.205111 
L 169.468527 273.195779 
L 169.468527 274.494883 
L 170.958781 274.494883 
L 170.958781 274.843964 
L 172.449035 274.843964 
L 172.449035 269.973106 
L 173.939289 269.973106 
L 173.939289 269.818813 
L 175.429543 269.818813 
L 175.429543 267.504844 
L 176.919798 267.504844 
L 176.919798 266.49931 
L 178.410052 266.49931 
L 178.410052 269.783614 
L 179.900306 269.783614 
L 179.900306 272.806725 
L 181.39056 272.806725 
L 181.39056 274.935065 
L 182.880814 274.935065 
L 182.880814 274.749218 
L 184.371068 274.749218 
L 184.371068 273.812129 
L 185.861322 273.812129 
L 185.861322 273.641212 
L 187.351576 273.641212 
L 187.351576 272.012341 
L 188.84183 272.012341 
L 188.84183 271.502283 
L 190.332084 271.502283 
L 190.332084 270.024841 
L 191.822338 270.024841 
L 191.822338 275.125121 
L 193.312593 275.125121 
L 193.312593 274.508902 
L 194.802847 274.508902 
L 194.802847 273.765298 
L 197.783355 273.771157 
L 197.783355 273.391695 
L 199.273609 273.391695 
L 199.273609 273.195476 
L 200.763863 273.195476 
L 200.763863 273.661394 
L 202.254117 273.661394 
L 202.254117 273.434359 
L 205.234625 273.402025 
L 205.234625 274.773132 
L 206.724879 274.773132 
L 206.724879 273.712174 
L 209.705388 273.780402 
L 209.705388 273.874671 
L 211.195642 273.874671 
L 211.195642 274.614933 
L 212.685896 274.614933 
L 212.685896 274.355867 
L 214.17615 274.355867 
L 214.17615 273.594035 
L 215.666404 273.594035 
L 215.666404 274.15088 
L 217.156658 274.15088 
L 217.156658 277.40515 
L 218.646912 277.40515 
L 218.646912 280.920482 
L 220.137166 280.920482 
L 220.137166 283.072345 
L 221.62742 283.072345 
L 221.62742 285.348902 
L 223.117674 285.348902 
L 223.117674 283.787998 
L 224.607929 283.787998 
L 224.607929 285.711177 
L 226.098183 285.711177 
L 226.098183 286.390589 
L 227.588437 286.390589 
L 227.588437 287.607273 
L 229.078691 287.607273 
L 229.078691 286.529041 
L 230.568945 286.529041 
L 230.568945 285.039099 
L 232.059199 285.039099 
L 232.059199 285.378979 
L 233.549453 285.378979 
L 233.549453 285.601023 
L 235.039707 285.601023 
L 235.039707 284.90247 
L 236.529961 284.90247 
L 236.529961 284.292848 
L 238.020215 284.292848 
L 238.020215 286.139683 
L 239.51047 286.139683 
L 239.51047 285.982438 
L 241.000724 285.982438 
L 241.000724 286.228744 
L 242.490978 286.228744 
L 242.490978 286.39532 
L 245.471486 286.443279 
L 245.471486 286.90464 
L 248.451994 286.965316 
L 248.451994 287.231196 
L 249.942248 287.231196 
L 249.942248 286.212511 
L 252.922756 286.304827 
L 252.922756 284.923216 
L 254.413011 284.923216 
L 254.413011 283.998453 
L 255.903265 283.998453 
L 255.903265 285.328155 
L 258.883773 285.4091 
L 258.883773 285.095565 
L 261.864281 285.120434 
L 261.864281 284.879945 
L 263.354535 284.879945 
L 263.354535 284.478 
L 267.825297 284.393801 
L 267.825297 284.108868 
L 269.315551 284.108868 
L 269.315551 280.649394 
L 270.805806 280.649394 
L 270.805806 279.097908 
L 272.29606 279.097908 
L 272.29606 279.947977 
L 273.786314 279.947977 
L 273.786314 279.410662 
L 275.276568 279.410662 
L 275.276568 278.921827 
L 276.766822 278.921827 
L 276.766822 278.379695 
L 278.257076 278.379695 
L 278.257076 278.956505 
L 279.74733 278.956505 
L 279.74733 278.570793 
L 281.237584 278.570793 
L 281.237584 277.293434 
L 282.727838 277.293434 
L 282.727838 274.413505 
L 284.218092 274.413505 
L 284.218092 267.275335 
L 285.708347 267.275335 
L 285.708347 270.433426 
L 287.198601 270.433426 
L 287.198601 268.86714 
L 288.688855 268.86714 
L 288.688855 264.012688 
L 290.179109 264.012688 
L 290.179109 266.061081 
L 291.669363 266.061081 
L 291.669363 266.65803 
L 293.159617 266.65803 
L 293.159617 267.25103 
L 294.649871 267.25103 
L 294.649871 267.601326 
L 296.140125 267.601326 
L 296.140125 263.51335 
L 297.630379 263.51335 
L 297.630379 261.680794 
L 299.120633 261.680794 
L 299.120633 255.028247 
L 300.610887 255.028247 
L 300.610887 253.646463 
L 302.101142 253.646463 
L 302.101142 256.051489 
L 303.591396 256.051489 
L 303.591396 254.41767 
L 305.08165 254.41767 
L 305.08165 247.33614 
L 306.571904 247.33614 
L 306.571904 252.534291 
L 308.062158 252.534291 
L 308.062158 259.976925 
L 309.552412 259.976925 
L 309.552412 256.013773 
L 311.042666 256.013773 
L 311.042666 259.105026 
L 312.53292 259.105026 
L 312.53292 260.72756 
L 314.023174 260.72756 
L 314.023174 256.264896 
L 315.513428 256.264896 
L 315.513428 252.201963 
L 317.003683 252.201963 
L 317.003683 252.99817 
L 318.493937 252.99817 
L 318.493937 258.489631 
L 319.984191 258.489631 
L 319.984191 257.184798 
L 321.474445 257.184798 
L 321.474445 258.077227 
L 322.964699 258.077227 
L 322.964699 256.999559 
L 324.454953 256.999559 
L 324.454953 260.394841 
L 325.945207 260.394841 
L 325.945207 255.866728 
L 327.435461 255.866728 
L 327.435461 256.448659 
L 328.925715 256.448659 
L 328.925715 257.871762 
L 330.415969 257.871762 
L 330.415969 257.215917 
L 331.906223 257.215917 
L 331.906223 257.36587 
L 333.396478 257.36587 
L 333.396478 259.937429 
L 334.886732 259.937429 
L 334.886732 266.402046 
L 336.376986 266.402046 
L 336.376986 265.842076 
L 337.86724 265.842076 
L 337.86724 266.602606 
L 339.357494 266.602606 
L 339.357494 264.691927 
L 340.847748 264.691927 
L 340.847748 266.012037 
L 342.338002 266.012037 
L 342.338002 266.910369 
L 343.828256 266.910369 
L 343.828256 266.27783 
L 345.31851 266.27783 
L 345.31851 264.349617 
L 346.808764 264.349617 
L 346.808764 261.022605 
L 348.299019 261.022605 
L 348.299019 261.596248 
L 349.789273 261.596248 
L 349.789273 261.413265 
L 351.279527 261.413265 
L 351.279527 262.742317 
L 352.769781 262.742317 
L 352.769781 264.499223 
L 354.260035 264.499223 
L 354.260035 266.479779 
L 355.750289 266.479779 
L 355.750289 270.34098 
L 357.240543 270.34098 
L 357.240543 270.873607 
L 358.730797 270.873607 
L 358.730797 269.163184 
L 360.221051 269.163184 
L 360.221051 270.746787 
L 361.711305 270.746787 
L 361.711305 269.316523 
L 363.201559 269.316523 
L 363.201559 270.762803 
L 364.691814 270.762803 
L 364.691814 272.10661 
L 366.182068 272.10661 
L 366.182068 270.758419 
L 367.672322 270.758419 
L 367.672322 270.495751 
L 369.162576 270.495751 
L 369.162576 270.277093 
L 370.65283 270.277093 
L 370.65283 270.821308 
L 372.143084 270.821308 
L 372.143084 270.057913 
L 373.633338 270.057913 
L 373.633338 268.033869 
L 375.123592 268.033869 
L 375.123592 266.786847 
L 376.613846 266.786847 
L 376.613846 263.335967 
L 378.1041 263.335967 
L 378.1041 264.108867 
L 379.594355 264.108867 
L 379.594355 265.822805 
L 381.084609 265.822805 
L 381.084609 261.688997 
L 382.574863 261.688997 
L 382.574863 261.538176 
L 384.065117 261.538176 
L 384.065117 259.623721 
L 385.555371 259.623721 
L 385.555371 259.193478 
L 387.045625 259.193478 
L 387.045625 256.963752 
L 388.535879 256.963752 
L 388.535879 257.779186 
L 390.026133 257.779186 
L 390.026133 259.997107 
L 391.516387 259.997107 
L 391.516387 263.834307 
L 393.006641 263.834307 
L 393.006641 264.925212 
L 394.496895 264.925212 
L 394.496895 262.610939 
L 395.98715 262.610939 
L 395.98715 267.539001 
L 397.477404 267.539001 
L 397.477404 277.620857 
L 398.967658 277.620857 
L 398.967658 278.712066 
L 400.457912 278.712066 
L 400.457912 275.099992 
L 401.948166 275.099992 
L 401.948166 272.892531 
L 403.43842 272.892531 
L 403.43842 276.421317 
L 404.928674 276.421317 
L 404.928674 272.412289 
L 406.418928 272.412289 
L 406.418928 270.094241 
L 407.909182 270.094241 
L 407.909182 272.133953 
L 410.889691 272.139552 
L 410.889691 270.458122 
L 412.379945 270.458122 
L 412.379945 271.015271 
L 413.870199 271.015271 
L 413.870199 268.548831 
L 415.360453 268.548831 
L 415.360453 264.514631 
L 416.850707 264.514631 
L 416.850707 263.398509 
L 418.340961 263.398509 
L 418.340961 259.336661 
L 419.831215 259.336661 
L 419.831215 263.708398 
L 421.321469 263.708398 
L 421.321469 261.229415 
L 422.811723 261.229415 
L 422.811723 260.687022 
L 424.301977 260.687022 
L 424.301977 264.072105 
L 425.792231 264.072105 
L 425.792231 260.432948 
L 427.282486 260.432948 
L 427.282486 257.676845 
L 428.77274 257.676845 
L 428.77274 260.196235 
L 430.262994 260.196235 
L 430.262994 259.539131 
L 431.753248 259.539131 
L 431.753248 260.848347 
L 434.733756 260.929465 
L 434.733756 261.667427 
L 436.22401 261.667427 
L 436.22401 261.858091 
L 437.714264 261.858091 
L 437.714264 262.098971 
L 439.204518 262.098971 
L 439.204518 262.589108 
L 440.694772 262.589108 
L 440.694772 261.791339 
L 443.675281 261.879314 
L 443.675281 262.063555 
L 446.655789 261.97176 
L 446.655789 260.242414 
L 448.146043 260.242414 
L 448.146043 254.039033 
L 449.636297 254.039033 
L 449.636297 252.730554 
L 451.126551 252.730554 
L 451.126551 253.379976 
L 452.616805 253.379976 
L 452.616805 250.891532 
L 454.107059 250.891532 
L 454.107059 251.735654 
L 455.597313 251.735654 
L 455.597313 250.256085 
L 457.087567 250.256085 
L 457.087567 250.465239 
L 458.577822 250.465239 
L 458.577822 250.90746 
L 460.068076 250.90746 
L 460.068076 251.902143 
L 461.55833 251.902143 
L 461.55833 250.215982 
L 463.048584 250.215982 
L 463.048584 257.87046 
L 464.538838 257.87046 
L 464.538838 257.574416 
L 466.029092 257.574416 
L 466.029092 257.127638 
L 467.519346 257.127638 
L 467.519346 254.466584 
L 469.0096 254.466584 
L 469.0096 256.694965 
L 470.499854 256.694965 
L 470.499854 255.556187 
L 471.990108 255.556187 
L 471.990108 254.914014 
L 473.480363 254.914014 
L 473.480363 256.168457 
L 474.970617 256.168457 
L 474.970617 255.651845 
L 476.460871 255.651845 
L 476.460871 252.5885 
L 477.951125 252.5885 
L 477.951125 252.036776 
L 479.441379 252.036776 
L 479.441379 250.932503 
L 480.931633 250.932503 
L 480.931633 245.783482 
L 482.421887 245.783482 
L 482.421887 242.71519 
L 483.912141 242.71519 
L 483.912141 242.025751 
L 485.402395 242.025751 
L 485.402395 240.527216 
L 486.892649 240.527216 
L 486.892649 234.733027 
L 488.382904 234.733027 
L 488.382904 231.23931 
L 489.873158 231.23931 
L 489.873158 229.374853 
L 491.363412 229.374853 
L 491.363412 220.858111 
L 492.853666 220.858111 
L 492.853666 218.752818 
L 494.34392 218.752818 
L 494.34392 225.003117 
L 495.834174 225.003117 
L 495.834174 218.516495 
L 497.324428 218.516495 
L 497.324428 217.862473 
L 498.814682 217.862473 
L 498.814682 222.766446 
L 500.304936 222.766446 
L 500.304936 218.301135 
L 501.79519 218.301135 
L 501.79519 201.486395 
L 503.285444 201.486395 
L 503.285444 198.560243 
L 504.775699 198.560243 
L 504.775699 187.196687 
L 506.265953 187.196687 
L 506.265953 176.722175 
L 507.756207 176.722175 
L 507.756207 158.735628 
L 509.246461 158.735628 
L 509.246461 130.588408 
L 510.736715 130.588408 
L 510.736715 147.693506 
L 512.226969 147.693506 
L 512.226969 142.122533 
L 513.717223 142.122533 
L 513.717223 145.631094 
L 515.207477 145.631094 
L 515.207477 162.646308 
L 516.697731 162.646308 
L 516.697731 169.94029 
L 518.187985 169.94029 
L 518.187985 158.146752 
L 519.67824 158.146752 
L 519.67824 141.369208 
L 521.168494 141.369208 
L 521.168494 100.735496 
L 522.658748 100.735496 
L 522.658748 95.930478 
L 524.149002 95.930478 
L 524.149002 88.60121 
L 525.639256 88.60121 
L 525.639256 58.909579 
L 527.12951 58.909579 
L 527.12951 82.243969 
L 528.619764 82.243969 
L 528.619764 106.162375 
L 530.110018 106.162375 
L 530.110018 91.687905 
L 531.600272 91.687905 
L 531.600272 74.976375 
L 533.090526 74.976375 
L 533.090526 53.475321 
L 534.58078 53.475321 
L 534.58078 55.128497 
L 536.071035 55.128497 
L 536.071035 49.862032 
L 537.561289 49.862032 
L 537.561289 74.06971 
L 539.051543 74.06971 
L 539.051543 59.853525 
L 540.541797 59.853525 
L 540.541797 47.036051 
L 542.032051 47.036051 
L 542.032051 45.659432 
L 543.522305 45.659432 
L 543.522305 49.789203 
L 545.012559 49.789203 
L 545.012559 26.127129 
L 546.502813 26.127129 
L 546.502813 41.176065 
L 547.993067 41.176065 
L 547.993067 68.424998 
L 549.483321 68.424998 
L 549.483321 88.968042 
L 550.973576 88.968042 
L 550.973576 69.40002 
L 552.46383 69.40002 
L 552.46383 53.648712 
L 553.954084 53.648712 
L 553.954084 52.924162 
L 555.444338 52.924162 
L 555.444338 55.659649 
L 556.934592 55.659649 
L 556.934592 99.119732 
L 558.424846 99.119732 
L 558.424846 141.533353 
L 559.9151 141.533353 
L 559.9151 151.123988 
L 561.405354 151.123988 
L 561.405354 135.105454 
L 562.895608 135.105454 
L 562.895608 140.030478 
L 564.385862 140.030478 
L 564.385862 141.875186 
L 565.876116 141.875186 
L 565.876116 156.785106 
L 567.366371 156.785106 
L 567.366371 147.910689 
L 568.856625 147.910689 
L 568.856625 135.628099 
L 570.346879 135.628099 
L 570.346879 147.487738 
L 571.837133 147.487738 
L 571.837133 151.623803 
L 573.327387 151.623803 
L 573.327387 152.416798 
L 574.817641 152.416798 
L 574.817641 155.020084 
L 576.307895 155.020084 
L 576.307895 153.483008 
L 577.798149 153.483008 
L 577.798149 156.501345 
L 579.288403 156.501345 
L 579.288403 159.54364 
L 580.778657 159.54364 
L 580.778657 164.018891 
L 582.268912 164.018891 
L 582.268912 161.7863 
L 583.759166 161.7863 
L 583.759166 139.997493 
L 585.24942 139.997493 
L 585.24942 118.747909 
L 586.739674 118.747909 
L 586.739674 136.439149 
L 588.229928 136.439149 
L 588.229928 108.244751 
L 589.720182 108.244751 
L 589.720182 104.00296 
L 591.210436 104.00296 
L 591.210436 97.731611 
L 592.70069 97.731611 
L 592.70069 99.128109 
L 594.190944 99.128109 
L 594.190944 87.023987 
L 595.681198 87.023987 
L 595.681198 89.049291 
L 597.171452 89.049291 
L 597.171452 97.299936 
L 598.661707 97.299936 
L 598.661707 85.18427 
L 600.151961 85.18427 
L 600.151961 101.976441 
L 603.132469 102.060033 
L 603.132469 94.568268 
L 604.622723 94.568268 
L 604.622723 115.764424 
L 606.112977 115.764424 
L 606.112977 116.137679 
L 607.603231 116.137679 
L 607.603231 123.969107 
L 609.093485 123.969107 
L 609.093485 94.820693 
L 610.583739 94.820693 
L 610.583739 61.762989 
L 612.073993 61.762989 
L 612.073993 64.879328 
L 613.564248 64.879328 
L 613.564248 52.848339 
L 615.054502 52.848339 
L 615.054502 32.996989 
L 616.544756 32.996989 
L 616.544756 38.528683 
L 618.03501 38.528683 
L 618.03501 40.055951 
L 619.525264 40.055951 
L 619.525264 34.039935 
L 621.015518 34.039935 
L 621.015518 28.729416 
L 622.505772 28.729416 
L 622.505772 27.260872 
L 623.996026 27.260872 
L 623.996026 20.552727 
L 625.48628 20.552727 
L 625.48628 25.997748 
L 626.976534 25.997748 
L 626.976534 49.657088 
L 628.466788 49.657088 
L 628.466788 52.065022 
L 629.957043 52.065022 
L 629.957043 64.118016 
L 631.447297 64.118016 
L 631.447297 53.577403 
L 632.937551 53.577403 
L 632.937551 87.644937 
L 634.427805 87.644937 
L 634.427805 95.113308 
L 635.918059 95.113308 
L 635.918059 99.030715 
L 637.408313 99.030715 
L 637.408313 101.563559 
L 638.898567 101.563559 
L 638.898567 89.580052 
L 640.388821 89.580052 
L 640.388821 82.91214 
L 641.879075 82.91214 
L 641.879075 100.542054 
L 643.369329 100.542054 
L 643.369329 96.553425 
L 644.859584 96.553425 
L 644.859584 114.81362 
L 646.349838 114.81362 
L 646.349838 120.332727 
L 647.840092 120.332727 
L 647.840092 114.905892 
L 649.330346 114.905892 
L 649.330346 118.021666 
L 650.8206 118.021666 
L 650.8206 149.748627 
L 652.310854 149.748627 
L 652.310854 142.144321 
L 653.801108 142.144321 
L 653.801108 137.391299 
L 655.291362 137.391299 
L 655.291362 140.977246 
L 656.781616 140.977246 
L 656.781616 111.717376 
L 658.27187 111.717376 
L 658.27187 117.935774 
L 659.762124 117.935774 
L 659.762124 108.669786 
L 661.252379 108.669786 
L 661.252379 127.858389 
L 662.742633 127.858389 
L 662.742633 140.113202 
L 664.232887 140.113202 
L 664.232887 138.320359 
L 665.723141 138.320359 
L 665.723141 117.661778 
L 667.213395 117.661778 
L 667.213395 136.897039 
L 668.703649 136.897039 
L 668.703649 133.821845 
L 670.193903 133.821845 
L 670.193903 131.305493 
L 671.684157 131.305493 
L 671.684157 118.71245 
L 673.174411 118.71245 
L 673.174411 115.749233 
L 674.664665 115.749233 
L 674.664665 98.590447 
L 676.15492 98.590447 
L 676.15492 104.316495 
L 677.645174 104.316495 
L 677.645174 99.663644 
L 679.135428 99.663644 
L 679.135428 118.466709 
L 680.625682 118.466709 
L 680.625682 127.914161 
L 682.115936 127.914161 
L 682.115936 126.670351 
L 683.60619 126.670351 
L 683.60619 122.386546 
L 685.096444 122.386546 
L 685.096444 130.677252 
L 686.586698 130.677252 
L 686.586698 129.355796 
L 688.076952 129.355796 
L 688.076952 134.82178 
L 689.567206 134.82178 
L 689.567206 145.66191 
L 691.057461 145.66191 
L 691.057461 167.402324 
L 692.547715 167.402324 
L 692.547715 171.435744 
L 694.037969 171.435744 
L 694.037969 177.484398 
L 695.528223 177.484398 
L 695.528223 170.548914 
L 697.018477 170.548914 
L 697.018477 175.2581 
L 698.508731 175.2581 
L 698.508731 164.313633 
L 699.998985 164.313633 
L 699.998985 173.140785 
L 701.489239 173.140785 
L 701.489239 166.907977 
L 702.979493 166.907977 
L 702.979493 178.944739 
L 704.469747 178.944739 
L 704.469747 204.090505 
L 705.960001 204.090505 
L 705.960001 212.816054 
L 707.450256 212.816054 
L 707.450256 210.437981 
L 708.94051 210.437981 
L 708.94051 212.113595 
L 710.430764 212.113595 
L 710.430764 218.517667 
L 711.921018 218.517667 
L 711.921018 214.37188 
L 713.411272 214.37188 
L 713.411272 208.292628 
L 714.901526 208.292628 
L 714.901526 214.190547 
L 716.39178 214.190547 
L 716.39178 211.801102 
L 717.882034 211.801102 
L 717.882034 201.472072 
L 719.372288 201.472072 
L 719.372288 209.516039 
L 720.862542 209.516039 
L 720.862542 198.703426 
L 722.352797 198.703426 
L 722.352797 202.219973 
L 723.843051 202.219973 
L 723.843051 202.370056 
L 725.333305 202.370056 
L 725.333305 197.974622 
L 726.823559 197.974622 
L 726.823559 196.433987 
L 728.313813 196.433987 
L 728.313813 201.298899 
L 729.804067 201.298899 
L 729.804067 209.072429 
L 731.294321 209.072429 
L 731.294321 214.148751 
L 732.784575 214.148751 
L 732.784575 216.059734 
L 734.274829 216.059734 
L 734.274829 215.877793 
L 735.765083 215.877793 
L 735.765083 218.285988 
L 737.255337 218.285988 
L 737.255337 207.372856 
L 738.745592 207.372856 
L 738.745592 216.486504 
L 740.235846 216.486504 
L 740.235846 217.148339 
L 741.7261 217.148339 
L 741.7261 218.283818 
L 743.216354 218.283818 
L 743.216354 219.046345 
L 744.706608 219.046345 
L 744.706608 218.135774 
L 746.196862 218.135774 
L 746.196862 214.433163 
L 747.687116 214.433163 
L 747.687116 217.583746 
L 749.17737 217.583746 
L 749.17737 217.837864 
L 750.667624 217.837864 
L 750.667624 217.118956 
L 752.157878 217.118956 
L 752.157878 218.757939 
L 753.648133 218.757939 
L 753.648133 214.721872 
L 755.138387 214.721872 
L 755.138387 211.619118 
L 756.628641 211.619118 
L 756.628641 214.493058 
L 758.118895 214.493058 
L 758.118895 211.167001 
L 759.609149 211.167001 
L 759.609149 225.793855 
L 761.099403 225.793855 
L 761.099403 229.970283 
L 762.589657 229.970283 
L 762.589657 229.556837 
L 764.079911 229.556837 
L 764.079911 231.676887 
L 765.570165 231.676887 
L 765.570165 230.553995 
L 767.060419 230.553995 
L 767.060419 227.441432 
L 768.550673 227.441432 
L 768.550673 227.671679 
L 770.040928 227.671679 
L 770.040928 227.163834 
L 771.531182 227.163834 
L 771.531182 227.2841 
L 773.021436 227.2841 
L 773.021436 229.754837 
L 774.51169 229.754837 
L 774.51169 228.595834 
L 776.001944 228.595834 
L 776.001944 228.88463 
L 777.492198 228.88463 
L 777.492198 230.181563 
L 778.982452 230.181563 
L 778.982452 229.858524 
L 780.472706 229.858524 
L 780.472706 228.935366 
L 781.96296 228.935366 
L 781.96296 227.348335 
L 783.453214 227.348335 
L 783.453214 215.450633 
L 784.943469 215.450633 
L 784.943469 210.191111 
L 786.433723 210.191111 
L 786.433723 203.128243 
L 787.923977 203.128243 
L 787.923977 201.751363 
L 789.414231 201.751363 
L 789.414231 198.860323 
L 790.904485 198.860323 
L 790.904485 200.168628 
L 792.394739 200.168628 
L 792.394739 203.166263 
L 793.884993 203.166263 
L 793.884993 208.049795 
L 795.375247 208.049795 
L 795.375247 205.561784 
L 796.865501 205.561784 
L 796.865501 195.01453 
L 798.355755 195.01453 
L 798.355755 196.994826 
L 799.846009 196.994826 
L 799.846009 199.69685 
L 801.336264 199.69685 
L 801.336264 200.112423 
L 802.826518 200.112423 
L 802.826518 204.698869 
L 804.316772 204.698869 
L 804.316772 214.185512 
L 805.807026 214.185512 
L 805.807026 194.46975 
L 807.29728 194.46975 
L 807.29728 184.886928 
L 808.787534 184.886928 
L 808.787534 183.450631 
L 810.277788 183.450631 
L 810.277788 180.440627 
L 811.768042 180.440627 
L 811.768042 180.296446 
L 813.258296 180.296446 
L 813.258296 181.298291 
L 814.74855 181.298291 
L 814.74855 180.763059 
L 816.238805 180.763059 
L 816.238805 170.739709 
L 817.729059 170.739709 
L 817.729059 170.373657 
L 819.219313 170.373657 
L 819.219313 176.839446 
L 820.709567 176.839446 
L 820.709567 182.217021 
L 822.199821 182.217021 
L 822.199821 174.014941 
L 823.690075 174.014941 
L 823.690075 180.063856 
L 825.180329 180.063856 
L 825.180329 173.776101 
L 826.670583 173.776101 
L 826.670583 182.002008 
L 828.160837 182.002008 
L 828.160837 185.709176 
L 829.651091 185.709176 
L 829.651091 183.051551 
L 831.141345 183.051551 
L 831.141345 185.836647 
L 832.6316 185.836647 
L 832.6316 187.048774 
L 834.121854 187.048774 
L 834.121854 181.548155 
L 835.612108 181.548155 
L 835.612108 183.686694 
L 838.592616 183.722674 
L 838.592616 189.759088 
L 840.08287 189.759088 
L 840.08287 192.909107 
L 841.573124 192.909107 
L 841.573124 187.657311 
L 843.063378 187.657311 
L 843.063378 172.177394 
L 844.553632 172.177394 
L 844.553632 170.602038 
L 846.043886 170.602038 
L 846.043886 169.713168 
L 847.534141 169.713168 
L 847.534141 168.396487 
L 849.024395 168.396487 
L 849.024395 170.828379 
L 850.514649 170.828379 
L 850.514649 170.059775 
L 852.004903 170.059775 
L 852.004903 170.716706 
L 853.495157 170.716706 
L 853.495157 172.617663 
L 854.985411 172.617663 
L 854.985411 175.325373 
L 856.475665 175.325373 
L 856.475665 174.72773 
L 857.965919 174.72773 
L 857.965919 173.132756 
L 859.456173 173.132756 
L 859.456173 175.891377 
L 860.946427 175.891377 
L 860.946427 173.643986 
L 862.436681 173.643986 
L 862.436681 174.867831 
L 863.926936 174.867831 
L 863.926936 186.246881 
L 865.41719 186.246881 
L 865.41719 188.584678 
L 866.907444 188.584678 
L 866.907444 188.905808 
L 868.397698 188.905808 
L 868.397698 181.606444 
L 869.887952 181.606444 
L 869.887952 189.688474 
L 871.378206 189.688474 
L 871.378206 190.19098 
L 872.86846 190.19098 
L 872.86846 189.845892 
L 874.358714 189.845892 
L 874.358714 186.793875 
L 875.848968 186.793875 
L 875.848968 185.805441 
L 877.339222 185.805441 
L 877.339222 186.594921 
L 878.829477 186.594921 
L 878.829477 188.196622 
L 880.319731 188.196622 
L 880.319731 184.908456 
L 881.809985 184.908456 
L 881.809985 181.318559 
L 883.300239 181.318559 
L 883.300239 180.712583 
L 884.790493 180.712583 
L 884.790493 185.827576 
L 886.280747 185.827576 
L 886.280747 178.194669 
L 887.771001 178.194669 
L 887.771001 173.137139 
L 889.261255 173.137139 
L 889.261255 154.821347 
L 890.751509 154.821347 
L 890.751509 154.005262 
L 892.241763 154.005262 
L 892.241763 148.146752 
L 893.732017 148.146752 
L 893.732017 149.848798 
L 895.222272 149.848798 
L 895.222272 142.696609 
L 896.712526 142.696609 
L 896.712526 143.559872 
L 898.20278 143.559872 
L 898.20278 143.008886 
L 899.693034 143.008886 
L 899.693034 146.547654 
L 901.183288 146.547654 
L 901.183288 137.902052 
L 902.673542 137.902052 
L 902.673542 137.613733 
L 904.163796 137.613733 
L 904.163796 135.391402 
L 905.101932 135.391402 
L 905.101932 135.391402 
" clip-path="url(#p19a8416106)" style="fill: none; stroke: #3572c6; stroke-width: 1.2; stroke-linecap: square"/>
   </g>
   <g id="patch_3">
    <path d="M 52.88375 300.96 
L 52.88375 7.2 
" style="fill: none; stroke: #899ab8; stroke-width: 1.12; stroke-linejoin: miter; stroke-linecap: square"/>
   </g>
   <g id="patch_4">
    <path d="M 945.68375 300.96 
L 945.68375 7.2 
" style="fill: none; stroke: #899ab8; stroke-width: 1.12; stroke-linejoin: miter; stroke-linecap: square"/>
   </g>
   <g id="patch_5">
    <path d="M 52.88375 300.96 
L 945.68375 300.96 
" style="fill: none; stroke: #899ab8; stroke-width: 1.12; stroke-linejoin: miter; stroke-linecap: square"/>
   </g>
   <g id="patch_6">
    <path d="M 52.88375 7.2 
L 945.68375 7.2 
" style="fill: none; stroke: #899ab8; stroke-width: 1.12; stroke-linejoin: miter; stroke-linecap: square"/>
   </g>
  </g>
 </g>
 <defs>
  <clipPath id="p19a8416106">
   <rect x="52.88375" y="7.2" width="892.8" height="293.76"/>
  </clipPath>
 </defs>
</svg>
