<?xml version="1.0" encoding="utf-8" standalone="no"?>
<!DOCTYPE svg PUBLIC "-//W3C//DTD SVG 1.1//EN"
  "http://www.w3.org/Graphics/SVG/1.1/DTD/svg11.dtd">
<svg xmlns:xlink="http://www.w3.org/1999/xlink" width="934.976pt" height="358.290693pt" viewBox="0 0 934.976 358.290693" xmlns="http://www.w3.org/2000/svg" version="1.1">
 <metadata>
  <rdf:RDF xmlns:dc="http://purl.org/dc/elements/1.1/" xmlns:cc="http://creativecommons.org/ns#" xmlns:rdf="http://www.w3.org/1999/02/22-rdf-syntax-ns#">
   <cc:Work>
    <dc:type rdf:resource="http://purl.org/dc/dcmitype/StillImage"/>
    <dc:date>2025-08-16T04:40:40.320583</dc:date>
    <dc:format>image/svg+xml</dc:format>
    <dc:creator>
     <cc:Agent>
      <dc:title>Matplotlib v3.10.5, https://matplotlib.org/</dc:title>
     </cc:Agent>
    </dc:creator>
   </cc:Work>
  </rdf:RDF>
 </metadata>
 <defs>
  <style type="text/css">*{stroke-linejoin: round; stroke-linecap: butt}</style>
 </defs>
 <g id="figure_1">
  <g id="patch_1">
   <path d="M 0 358.290693 
L 934.976 358.290693 
L 934.976 0 
L 0 0 
z
" style="fill: #373e4b"/>
  </g>
  <g id="axes_1">
   <g id="patch_2">
    <path d="M 34.976 300.96 
L 927.776 300.96 
L 927.776 7.2 
L 34.976 7.2 
z
" style="fill: #373e4b"/>
   </g>
   <g id="matplotlib.axis_1">
    <g id="xtick_1">
     <g id="line2d_1">
      <path d="M 139.422474 300.96 
L 139.422474 7.2 
" clip-path="url(#p920c9c8e66)" style="fill: none; stroke: #546379; stroke-width: 1.12; stroke-linecap: square"/>
     </g>
     <g id="line2d_2"/>
     <g id="text_1">
      <!-- 2012 -->
      <g style="fill: #b1bed6" transform="translate(110.341434 330.884854) rotate(-30) scale(0.126 -0.126)">
       <defs>
        <path id="DejaVuSans-32" d="M 1228 531 
L 3431 531 
L 3431 0 
L 469 0 
L 469 531 
Q 828 903 1448 1529 
Q 2069 2156 2228 2338 
Q 2531 2678 2651 2914 
Q 2772 3150 2772 3378 
Q 2772 3750 2511 3984 
Q 2250 4219 1831 4219 
Q 1534 4219 1204 4116 
Q 875 4013 500 3803 
L 500 4441 
Q 881 4594 1212 4672 
Q 1544 4750 1819 4750 
Q 2544 4750 2975 4387 
Q 3406 4025 3406 3419 
Q 3406 3131 3298 2873 
Q 3191 2616 2906 2266 
Q 2828 2175 2409 1742 
Q 1991 1309 1228 531 
z
" transform="scale(0.015625)"/>
        <path id="DejaVuSans-30" d="M 2034 4250 
Q 1547 4250 1301 3770 
Q 1056 3291 1056 2328 
Q 1056 1369 1301 889 
Q 1547 409 2034 409 
Q 2525 409 2770 889 
Q 3016 1369 3016 2328 
Q 3016 3291 2770 3770 
Q 2525 4250 2034 4250 
z
M 2034 4750 
Q 2819 4750 3233 4129 
Q 3647 3509 3647 2328 
Q 3647 1150 3233 529 
Q 2819 -91 2034 -91 
Q 1250 -91 836 529 
Q 422 1150 422 2328 
Q 422 3509 836 4129 
Q 1250 4750 2034 4750 
z
" transform="scale(0.015625)"/>
        <path id="DejaVuSans-31" d="M 794 531 
L 1825 531 
L 1825 4091 
L 703 3866 
L 703 4441 
L 1819 4666 
L 2450 4666 
L 2450 531 
L 3481 531 
L 3481 0 
L 794 0 
L 794 531 
z
" transform="scale(0.015625)"/>
       </defs>
       <use xlink:href="#DejaVuSans-32"/>
       <use xlink:href="#DejaVuSans-30" transform="translate(63.623047 0)"/>
       <use xlink:href="#DejaVuSans-31" transform="translate(127.246094 0)"/>
       <use xlink:href="#DejaVuSans-32" transform="translate(190.869141 0)"/>
      </g>
     </g>
    </g>
    <g id="xtick_2">
     <g id="line2d_3">
      <path d="M 249.269682 300.96 
L 249.269682 7.2 
" clip-path="url(#p920c9c8e66)" style="fill: none; stroke: #546379; stroke-width: 1.12; stroke-linecap: square"/>
     </g>
     <g id="line2d_4"/>
     <g id="text_2">
      <!-- 2014 -->
      <g style="fill: #b1bed6" transform="translate(220.188643 330.884854) rotate(-30) scale(0.126 -0.126)">
       <defs>
        <path id="DejaVuSans-34" d="M 2419 4116 
L 825 1625 
L 2419 1625 
L 2419 4116 
z
M 2253 4666 
L 3047 4666 
L 3047 1625 
L 3713 1625 
L 3713 1100 
L 3047 1100 
L 3047 0 
L 2419 0 
L 2419 1100 
L 313 1100 
L 313 1709 
L 2253 4666 
z
" transform="scale(0.015625)"/>
       </defs>
       <use xlink:href="#DejaVuSans-32"/>
       <use xlink:href="#DejaVuSans-30" transform="translate(63.623047 0)"/>
       <use xlink:href="#DejaVuSans-31" transform="translate(127.246094 0)"/>
       <use xlink:href="#DejaVuSans-34" transform="translate(190.869141 0)"/>
      </g>
     </g>
    </g>
    <g id="xtick_3">
     <g id="line2d_5">
      <path d="M 358.966621 300.96 
L 358.966621 7.2 
" clip-path="url(#p920c9c8e66)" style="fill: none; stroke: #546379; stroke-width: 1.12; stroke-linecap: square"/>
     </g>
     <g id="line2d_6"/>
     <g id="text_3">
      <!-- 2016 -->
      <g style="fill: #b1bed6" transform="translate(329.885581 330.884854) rotate(-30) scale(0.126 -0.126)">
       <defs>
        <path id="DejaVuSans-36" d="M 2113 2584 
Q 1688 2584 1439 2293 
Q 1191 2003 1191 1497 
Q 1191 994 1439 701 
Q 1688 409 2113 409 
Q 2538 409 2786 701 
Q 3034 994 3034 1497 
Q 3034 2003 2786 2293 
Q 2538 2584 2113 2584 
z
M 3366 4563 
L 3366 3988 
Q 3128 4100 2886 4159 
Q 2644 4219 2406 4219 
Q 1781 4219 1451 3797 
Q 1122 3375 1075 2522 
Q 1259 2794 1537 2939 
Q 1816 3084 2150 3084 
Q 2853 3084 3261 2657 
Q 3669 2231 3669 1497 
Q 3669 778 3244 343 
Q 2819 -91 2113 -91 
Q 1303 -91 875 529 
Q 447 1150 447 2328 
Q 447 3434 972 4092 
Q 1497 4750 2381 4750 
Q 2619 4750 2861 4703 
Q 3103 4656 3366 4563 
z
" transform="scale(0.015625)"/>
       </defs>
       <use xlink:href="#DejaVuSans-32"/>
       <use xlink:href="#DejaVuSans-30" transform="translate(63.623047 0)"/>
       <use xlink:href="#DejaVuSans-31" transform="translate(127.246094 0)"/>
       <use xlink:href="#DejaVuSans-36" transform="translate(190.869141 0)"/>
      </g>
     </g>
    </g>
    <g id="xtick_4">
     <g id="line2d_7">
      <path d="M 468.813829 300.96 
L 468.813829 7.2 
" clip-path="url(#p920c9c8e66)" style="fill: none; stroke: #546379; stroke-width: 1.12; stroke-linecap: square"/>
     </g>
     <g id="line2d_8"/>
     <g id="text_4">
      <!-- 2018 -->
      <g style="fill: #b1bed6" transform="translate(439.732789 330.884854) rotate(-30) scale(0.126 -0.126)">
       <defs>
        <path id="DejaVuSans-38" d="M 2034 2216 
Q 1584 2216 1326 1975 
Q 1069 1734 1069 1313 
Q 1069 891 1326 650 
Q 1584 409 2034 409 
Q 2484 409 2743 651 
Q 3003 894 3003 1313 
Q 3003 1734 2745 1975 
Q 2488 2216 2034 2216 
z
M 1403 2484 
Q 997 2584 770 2862 
Q 544 3141 544 3541 
Q 544 4100 942 4425 
Q 1341 4750 2034 4750 
Q 2731 4750 3128 4425 
Q 3525 4100 3525 3541 
Q 3525 3141 3298 2862 
Q 3072 2584 2669 2484 
Q 3125 2378 3379 2068 
Q 3634 1759 3634 1313 
Q 3634 634 3220 271 
Q 2806 -91 2034 -91 
Q 1263 -91 848 271 
Q 434 634 434 1313 
Q 434 1759 690 2068 
Q 947 2378 1403 2484 
z
M 1172 3481 
Q 1172 3119 1398 2916 
Q 1625 2713 2034 2713 
Q 2441 2713 2670 2916 
Q 2900 3119 2900 3481 
Q 2900 3844 2670 4047 
Q 2441 4250 2034 4250 
Q 1625 4250 1398 4047 
Q 1172 3844 1172 3481 
z
" transform="scale(0.015625)"/>
       </defs>
       <use xlink:href="#DejaVuSans-32"/>
       <use xlink:href="#DejaVuSans-30" transform="translate(63.623047 0)"/>
       <use xlink:href="#DejaVuSans-31" transform="translate(127.246094 0)"/>
       <use xlink:href="#DejaVuSans-38" transform="translate(190.869141 0)"/>
      </g>
     </g>
    </g>
    <g id="xtick_5">
     <g id="line2d_9">
      <path d="M 578.510768 300.96 
L 578.510768 7.2 
" clip-path="url(#p920c9c8e66)" style="fill: none; stroke: #546379; stroke-width: 1.12; stroke-linecap: square"/>
     </g>
     <g id="line2d_10"/>
     <g id="text_5">
      <!-- 2020 -->
      <g style="fill: #b1bed6" transform="translate(549.429728 330.884854) rotate(-30) scale(0.126 -0.126)">
       <use xlink:href="#DejaVuSans-32"/>
       <use xlink:href="#DejaVuSans-30" transform="translate(63.623047 0)"/>
       <use xlink:href="#DejaVuSans-32" transform="translate(127.246094 0)"/>
       <use xlink:href="#DejaVuSans-30" transform="translate(190.869141 0)"/>
      </g>
     </g>
    </g>
    <g id="xtick_6">
     <g id="line2d_11">
      <path d="M 688.357976 300.96 
L 688.357976 7.2 
" clip-path="url(#p920c9c8e66)" style="fill: none; stroke: #546379; stroke-width: 1.12; stroke-linecap: square"/>
     </g>
     <g id="line2d_12"/>
     <g id="text_6">
      <!-- 2022 -->
      <g style="fill: #b1bed6" transform="translate(659.276936 330.884854) rotate(-30) scale(0.126 -0.126)">
       <use xlink:href="#DejaVuSans-32"/>
       <use xlink:href="#DejaVuSans-30" transform="translate(63.623047 0)"/>
       <use xlink:href="#DejaVuSans-32" transform="translate(127.246094 0)"/>
       <use xlink:href="#DejaVuSans-32" transform="translate(190.869141 0)"/>
      </g>
     </g>
    </g>
    <g id="xtick_7">
     <g id="line2d_13">
      <path d="M 798.054914 300.96 
L 798.054914 7.2 
" clip-path="url(#p920c9c8e66)" style="fill: none; stroke: #546379; stroke-width: 1.12; stroke-linecap: square"/>
     </g>
     <g id="line2d_14"/>
     <g id="text_7">
      <!-- 2024 -->
      <g style="fill: #b1bed6" transform="translate(768.973874 330.884854) rotate(-30) scale(0.126 -0.126)">
       <use xlink:href="#DejaVuSans-32"/>
       <use xlink:href="#DejaVuSans-30" transform="translate(63.623047 0)"/>
       <use xlink:href="#DejaVuSans-32" transform="translate(127.246094 0)"/>
       <use xlink:href="#DejaVuSans-34" transform="translate(190.869141 0)"/>
      </g>
     </g>
    </g>
    <g id="xtick_8">
     <g id="line2d_15">
      <path d="M 907.902122 300.96 
L 907.902122 7.2 
" clip-path="url(#p920c9c8e66)" style="fill: none; stroke: #546379; stroke-width: 1.12; stroke-linecap: square"/>
     </g>
     <g id="line2d_16"/>
     <g id="text_8">
      <!-- 2026 -->
      <g style="fill: #b1bed6" transform="translate(878.821083 330.884854) rotate(-30) scale(0.126 -0.126)">
       <use xlink:href="#DejaVuSans-32"/>
       <use xlink:href="#DejaVuSans-30" transform="translate(63.623047 0)"/>
       <use xlink:href="#DejaVuSans-32" transform="translate(127.246094 0)"/>
       <use xlink:href="#DejaVuSans-36" transform="translate(190.869141 0)"/>
      </g>
     </g>
    </g>
    <g id="text_9">
     <!-- Date -->
     <g style="fill: #b1bed6" transform="translate(464.166875 348.095943) scale(0.144 -0.144)">
      <defs>
       <path id="DejaVuSans-44" d="M 1259 4147 
L 1259 519 
L 2022 519 
Q 2988 519 3436 956 
Q 3884 1394 3884 2338 
Q 3884 3275 3436 3711 
Q 2988 4147 2022 4147 
L 1259 4147 
z
M 628 4666 
L 1925 4666 
Q 3281 4666 3915 4102 
Q 4550 3538 4550 2338 
Q 4550 1131 3912 565 
Q 3275 0 1925 0 
L 628 0 
L 628 4666 
z
" transform="scale(0.015625)"/>
       <path id="DejaVuSans-61" d="M 2194 1759 
Q 1497 1759 1228 1600 
Q 959 1441 959 1056 
Q 959 750 1161 570 
Q 1363 391 1709 391 
Q 2188 391 2477 730 
Q 2766 1069 2766 1631 
L 2766 1759 
L 2194 1759 
z
M 3341 1997 
L 3341 0 
L 2766 0 
L 2766 531 
Q 2569 213 2275 61 
Q 1981 -91 1556 -91 
Q 1019 -91 701 211 
Q 384 513 384 1019 
Q 384 1609 779 1909 
Q 1175 2209 1959 2209 
L 2766 2209 
L 2766 2266 
Q 2766 2663 2505 2880 
Q 2244 3097 1772 3097 
Q 1472 3097 1187 3025 
Q 903 2953 641 2809 
L 641 3341 
Q 956 3463 1253 3523 
Q 1550 3584 1831 3584 
Q 2591 3584 2966 3190 
Q 3341 2797 3341 1997 
z
" transform="scale(0.015625)"/>
       <path id="DejaVuSans-74" d="M 1172 4494 
L 1172 3500 
L 2356 3500 
L 2356 3053 
L 1172 3053 
L 1172 1153 
Q 1172 725 1289 603 
Q 1406 481 1766 481 
L 2356 481 
L 2356 0 
L 1766 0 
Q 1100 0 847 248 
Q 594 497 594 1153 
L 594 3053 
L 172 3053 
L 172 3500 
L 594 3500 
L 594 4494 
L 1172 4494 
z
" transform="scale(0.015625)"/>
       <path id="DejaVuSans-65" d="M 3597 1894 
L 3597 1613 
L 953 1613 
Q 991 1019 1311 708 
Q 1631 397 2203 397 
Q 2534 397 2845 478 
Q 3156 559 3463 722 
L 3463 178 
Q 3153 47 2828 -22 
Q 2503 -91 2169 -91 
Q 1331 -91 842 396 
Q 353 884 353 1716 
Q 353 2575 817 3079 
Q 1281 3584 2069 3584 
Q 2775 3584 3186 3129 
Q 3597 2675 3597 1894 
z
M 3022 2063 
Q 3016 2534 2758 2815 
Q 2500 3097 2075 3097 
Q 1594 3097 1305 2825 
Q 1016 2553 972 2059 
L 3022 2063 
z
" transform="scale(0.015625)"/>
      </defs>
      <use xlink:href="#DejaVuSans-44"/>
      <use xlink:href="#DejaVuSans-61" transform="translate(77.001953 0)"/>
      <use xlink:href="#DejaVuSans-74" transform="translate(138.28125 0)"/>
      <use xlink:href="#DejaVuSans-65" transform="translate(177.490234 0)"/>
     </g>
    </g>
   </g>
   <g id="matplotlib.axis_2">
    <g id="ytick_1">
     <g id="line2d_17">
      <path d="M 34.976 255.287978 
L 927.776 255.287978 
" clip-path="url(#p920c9c8e66)" style="fill: none; stroke: #546379; stroke-width: 1.12; stroke-linecap: square"/>
     </g>
     <g id="line2d_18"/>
     <g id="text_10">
      <!-- $\mathdefault{10^{0}}$ -->
      <g style="fill: #b1bed6" transform="translate(7.2 260.074994) scale(0.126 -0.126)">
       <use xlink:href="#DejaVuSans-31" transform="translate(0 0.765625)"/>
       <use xlink:href="#DejaVuSans-30" transform="translate(63.623047 0.765625)"/>
       <use xlink:href="#DejaVuSans-30" transform="translate(128.203125 39.046875) scale(0.7)"/>
      </g>
     </g>
    </g>
    <g id="ytick_2">
     <g id="line2d_19">
      <path d="M 34.976 209.049521 
L 927.776 209.049521 
" clip-path="url(#p920c9c8e66)" style="fill: none; stroke: #546379; stroke-width: 1.12; stroke-linecap: square"/>
     </g>
     <g id="line2d_20"/>
     <g id="text_11">
      <!-- $\mathdefault{10^{1}}$ -->
      <g style="fill: #b1bed6" transform="translate(7.2 213.836537) scale(0.126 -0.126)">
       <use xlink:href="#DejaVuSans-31" transform="translate(0 0.684375)"/>
       <use xlink:href="#DejaVuSans-30" transform="translate(63.623047 0.684375)"/>
       <use xlink:href="#DejaVuSans-31" transform="translate(128.203125 38.965625) scale(0.7)"/>
      </g>
     </g>
    </g>
    <g id="ytick_3">
     <g id="line2d_21">
      <path d="M 34.976 162.811064 
L 927.776 162.811064 
" clip-path="url(#p920c9c8e66)" style="fill: none; stroke: #546379; stroke-width: 1.12; stroke-linecap: square"/>
     </g>
     <g id="line2d_22"/>
     <g id="text_12">
      <!-- $\mathdefault{10^{2}}$ -->
      <g style="fill: #b1bed6" transform="translate(7.2 167.598079) scale(0.126 -0.126)">
       <use xlink:href="#DejaVuSans-31" transform="translate(0 0.765625)"/>
       <use xlink:href="#DejaVuSans-30" transform="translate(63.623047 0.765625)"/>
       <use xlink:href="#DejaVuSans-32" transform="translate(128.203125 39.046875) scale(0.7)"/>
      </g>
     </g>
    </g>
    <g id="ytick_4">
     <g id="line2d_23">
      <path d="M 34.976 116.572607 
L 927.776 116.572607 
" clip-path="url(#p920c9c8e66)" style="fill: none; stroke: #546379; stroke-width: 1.12; stroke-linecap: square"/>
     </g>
     <g id="line2d_24"/>
     <g id="text_13">
      <!-- $\mathdefault{10^{3}}$ -->
      <g style="fill: #b1bed6" transform="translate(7.2 121.359622) scale(0.126 -0.126)">
       <defs>
        <path id="DejaVuSans-33" d="M 2597 2516 
Q 3050 2419 3304 2112 
Q 3559 1806 3559 1356 
Q 3559 666 3084 287 
Q 2609 -91 1734 -91 
Q 1441 -91 1130 -33 
Q 819 25 488 141 
L 488 750 
Q 750 597 1062 519 
Q 1375 441 1716 441 
Q 2309 441 2620 675 
Q 2931 909 2931 1356 
Q 2931 1769 2642 2001 
Q 2353 2234 1838 2234 
L 1294 2234 
L 1294 2753 
L 1863 2753 
Q 2328 2753 2575 2939 
Q 2822 3125 2822 3475 
Q 2822 3834 2567 4026 
Q 2313 4219 1838 4219 
Q 1578 4219 1281 4162 
Q 984 4106 628 3988 
L 628 4550 
Q 988 4650 1302 4700 
Q 1616 4750 1894 4750 
Q 2613 4750 3031 4423 
Q 3450 4097 3450 3541 
Q 3450 3153 3228 2886 
Q 3006 2619 2597 2516 
z
" transform="scale(0.015625)"/>
       </defs>
       <use xlink:href="#DejaVuSans-31" transform="translate(0 0.765625)"/>
       <use xlink:href="#DejaVuSans-30" transform="translate(63.623047 0.765625)"/>
       <use xlink:href="#DejaVuSans-33" transform="translate(128.203125 39.046875) scale(0.7)"/>
      </g>
     </g>
    </g>
    <g id="ytick_5">
     <g id="line2d_25">
      <path d="M 34.976 70.334149 
L 927.776 70.334149 
" clip-path="url(#p920c9c8e66)" style="fill: none; stroke: #546379; stroke-width: 1.12; stroke-linecap: square"/>
     </g>
     <g id="line2d_26"/>
     <g id="text_14">
      <!-- $\mathdefault{10^{4}}$ -->
      <g style="fill: #b1bed6" transform="translate(7.2 75.121165) scale(0.126 -0.126)">
       <use xlink:href="#DejaVuSans-31" transform="translate(0 0.684375)"/>
       <use xlink:href="#DejaVuSans-30" transform="translate(63.623047 0.684375)"/>
       <use xlink:href="#DejaVuSans-34" transform="translate(128.203125 38.965625) scale(0.7)"/>
      </g>
     </g>
    </g>
    <g id="ytick_6">
     <g id="line2d_27">
      <path d="M 34.976 24.095692 
L 927.776 24.095692 
" clip-path="url(#p920c9c8e66)" style="fill: none; stroke: #546379; stroke-width: 1.12; stroke-linecap: square"/>
     </g>
     <g id="line2d_28"/>
     <g id="text_15">
      <!-- $\mathdefault{10^{5}}$ -->
      <g style="fill: #b1bed6" transform="translate(7.2 28.882708) scale(0.126 -0.126)">
       <defs>
        <path id="DejaVuSans-35" d="M 691 4666 
L 3169 4666 
L 3169 4134 
L 1269 4134 
L 1269 2991 
Q 1406 3038 1543 3061 
Q 1681 3084 1819 3084 
Q 2600 3084 3056 2656 
Q 3513 2228 3513 1497 
Q 3513 744 3044 326 
Q 2575 -91 1722 -91 
Q 1428 -91 1123 -41 
Q 819 9 494 109 
L 494 744 
Q 775 591 1075 516 
Q 1375 441 1709 441 
Q 2250 441 2565 725 
Q 2881 1009 2881 1497 
Q 2881 1984 2565 2268 
Q 2250 2553 1709 2553 
Q 1456 2553 1204 2497 
Q 953 2441 691 2322 
L 691 4666 
z
" transform="scale(0.015625)"/>
       </defs>
       <use xlink:href="#DejaVuSans-31" transform="translate(0 0.684375)"/>
       <use xlink:href="#DejaVuSans-30" transform="translate(63.623047 0.684375)"/>
       <use xlink:href="#DejaVuSans-35" transform="translate(128.203125 38.965625) scale(0.7)"/>
      </g>
     </g>
    </g>
    <g id="ytick_7">
     <g id="line2d_29"/>
    </g>
    <g id="ytick_8">
     <g id="line2d_30"/>
    </g>
    <g id="ytick_9">
     <g id="line2d_31"/>
    </g>
    <g id="ytick_10">
     <g id="line2d_32"/>
    </g>
    <g id="ytick_11">
     <g id="line2d_33"/>
    </g>
    <g id="ytick_12">
     <g id="line2d_34"/>
    </g>
    <g id="ytick_13">
     <g id="line2d_35"/>
    </g>
    <g id="ytick_14">
     <g id="line2d_36"/>
    </g>
    <g id="ytick_15">
     <g id="line2d_37"/>
    </g>
    <g id="ytick_16">
     <g id="line2d_38"/>
    </g>
    <g id="ytick_17">
     <g id="line2d_39"/>
    </g>
    <g id="ytick_18">
     <g id="line2d_40"/>
    </g>
    <g id="ytick_19">
     <g id="line2d_41"/>
    </g>
    <g id="ytick_20">
     <g id="line2d_42"/>
    </g>
    <g id="ytick_21">
     <g id="line2d_43"/>
    </g>
    <g id="ytick_22">
     <g id="line2d_44"/>
    </g>
    <g id="ytick_23">
     <g id="line2d_45"/>
    </g>
    <g id="ytick_24">
     <g id="line2d_46"/>
    </g>
    <g id="ytick_25">
     <g id="line2d_47"/>
    </g>
    <g id="ytick_26">
     <g id="line2d_48"/>
    </g>
    <g id="ytick_27">
     <g id="line2d_49"/>
    </g>
    <g id="ytick_28">
     <g id="line2d_50"/>
    </g>
    <g id="ytick_29">
     <g id="line2d_51"/>
    </g>
    <g id="ytick_30">
     <g id="line2d_52"/>
    </g>
    <g id="ytick_31">
     <g id="line2d_53"/>
    </g>
    <g id="ytick_32">
     <g id="line2d_54"/>
    </g>
    <g id="ytick_33">
     <g id="line2d_55"/>
    </g>
    <g id="ytick_34">
     <g id="line2d_56"/>
    </g>
    <g id="ytick_35">
     <g id="line2d_57"/>
    </g>
    <g id="ytick_36">
     <g id="line2d_58"/>
    </g>
    <g id="ytick_37">
     <g id="line2d_59"/>
    </g>
    <g id="ytick_38">
     <g id="line2d_60"/>
    </g>
    <g id="ytick_39">
     <g id="line2d_61"/>
    </g>
    <g id="ytick_40">
     <g id="line2d_62"/>
    </g>
    <g id="ytick_41">
     <g id="line2d_63"/>
    </g>
    <g id="ytick_42">
     <g id="line2d_64"/>
    </g>
    <g id="ytick_43">
     <g id="line2d_65"/>
    </g>
    <g id="ytick_44">
     <g id="line2d_66"/>
    </g>
    <g id="ytick_45">
     <g id="line2d_67"/>
    </g>
    <g id="ytick_46">
     <g id="line2d_68"/>
    </g>
    <g id="ytick_47">
     <g id="line2d_69"/>
    </g>
    <g id="ytick_48">
     <g id="line2d_70"/>
    </g>
    <g id="ytick_49">
     <g id="line2d_71"/>
    </g>
    <g id="ytick_50">
     <g id="line2d_72"/>
    </g>
    <g id="ytick_51">
     <g id="line2d_73"/>
    </g>
    <g id="ytick_52">
     <g id="line2d_74"/>
    </g>
    <g id="ytick_53">
     <g id="line2d_75"/>
    </g>
    <g id="ytick_54">
     <g id="line2d_76"/>
    </g>
    <g id="ytick_55">
     <g id="line2d_77"/>
    </g>
   </g>
   <g id="line2d_78">
    <path d="M 75.557818 287.607273 
L 75.557818 283.126303 
L 76.158897 283.126303 
L 76.158897 278.16908 
L 76.759976 278.16908 
L 76.759976 279.465085 
L 77.361056 279.465085 
L 77.361056 280.850538 
L 77.962135 280.850538 
L 77.962135 280.145865 
L 78.563214 280.145865 
L 78.563214 280.850538 
L 79.765372 280.850538 
L 79.765372 282.338708 
L 80.366451 282.338708 
L 80.366451 284.800698 
L 81.568609 284.800698 
L 81.568609 283.126303 
L 82.169688 283.126303 
L 82.169688 282.338708 
L 82.770768 282.338708 
L 82.770768 283.126303 
L 83.371847 283.126303 
L 83.371847 281.58084 
L 83.972926 281.58084 
L 83.972926 279.465085 
L 85.175084 279.465085 
L 85.175084 278.16908 
L 85.776163 278.16908 
L 85.776163 275.803866 
L 86.377242 275.803866 
L 86.377242 273.68811 
L 86.978321 273.68811 
L 86.978321 274.718136 
L 87.5794 274.718136 
L 87.5794 271.774176 
L 88.18048 271.774176 
L 88.18048 271.322896 
L 88.781559 271.322896 
L 88.781559 256.962373 
L 89.983717 256.962373 
L 89.983717 255.899633 
L 90.584796 255.899633 
L 90.584796 253.742515 
L 91.185875 253.742515 
L 91.185875 254.308218 
L 91.786954 254.308218 
L 91.786954 257.855014 
L 92.388033 257.855014 
L 92.388033 255.287978 
L 92.989113 255.287978 
L 92.989113 255.899633 
L 93.590192 255.899633 
L 93.590192 256.962373 
L 94.191271 256.962373 
L 94.191271 257.855014 
L 94.79235 257.855014 
L 94.79235 257.181841 
L 95.393429 257.181841 
L 95.393429 258.084515 
L 95.994508 258.084515 
L 95.994508 260.021543 
L 96.595587 260.021543 
L 96.595587 257.628106 
L 97.196666 257.628106 
L 97.196666 259.768948 
L 98.398825 259.768948 
L 98.398825 261.064953 
L 98.999904 261.064953 
L 98.999904 260.798974 
L 99.600983 260.798974 
L 99.600983 255.693671 
L 100.202062 255.693671 
L 100.202062 251.626759 
L 100.803141 251.626759 
L 100.803141 248.820185 
L 101.40422 248.820185 
L 101.40422 243.708944 
L 102.005299 243.708944 
L 102.005299 226.758834 
L 102.606378 226.758834 
L 102.606378 229.789781 
L 103.207457 229.789781 
L 103.207457 227.906638 
L 103.808537 227.906638 
L 103.808537 217.54624 
L 104.409616 217.54624 
L 104.409616 212.384081 
L 105.010695 212.384081 
L 105.010695 216.269405 
L 105.611774 216.269405 
L 105.611774 215.451956 
L 106.212853 215.451956 
L 106.212853 211.892274 
L 106.813932 211.892274 
L 106.813932 209.723378 
L 107.415011 209.723378 
L 107.415011 196.107609 
L 108.01609 196.107609 
L 108.01609 185.479929 
L 108.617169 185.479929 
L 108.617169 191.755656 
L 109.218249 191.755656 
L 109.218249 196.298254 
L 109.819328 196.298254 
L 109.819328 200.391896 
L 110.420407 200.391896 
L 110.420407 197.720226 
L 111.021486 197.720226 
L 111.021486 197.984682 
L 111.622565 197.984682 
L 111.622565 199.940326 
L 112.223644 199.940326 
L 112.223644 199.486212 
L 112.824723 199.486212 
L 112.824723 200.813839 
L 113.425802 200.813839 
L 113.425802 201.937359 
L 114.026882 201.937359 
L 114.026882 201.532794 
L 114.627961 201.532794 
L 114.627961 202.393443 
L 115.22904 202.393443 
L 115.22904 202.149859 
L 115.830119 202.149859 
L 115.830119 201.477626 
L 116.431198 201.477626 
L 116.431198 206.242946 
L 117.032277 206.242946 
L 117.032277 209.744155 
L 117.633356 209.744155 
L 117.633356 209.190583 
L 118.234435 209.190583 
L 118.234435 206.488912 
L 118.835514 206.488912 
L 118.835514 205.811078 
L 119.436594 205.811078 
L 119.436594 206.595256 
L 120.037673 206.595256 
L 120.037673 210.121868 
L 120.638752 210.121868 
L 120.638752 212.407803 
L 121.239831 212.407803 
L 121.239831 212.863939 
L 121.84091 212.863939 
L 121.84091 216.912523 
L 122.441989 216.912523 
L 122.441989 218.681424 
L 123.043068 218.681424 
L 123.043068 222.888519 
L 123.644147 222.888519 
L 123.644147 218.713891 
L 124.245226 218.713891 
L 124.245226 221.091294 
L 124.846306 221.091294 
L 124.846306 223.211114 
L 125.447385 223.211114 
L 125.447385 222.729145 
L 126.048464 222.729145 
L 126.048464 223.830314 
L 126.649543 223.830314 
L 126.649543 226.662058 
L 127.250622 226.662058 
L 127.250622 227.399513 
L 127.851701 227.399513 
L 127.851701 236.177635 
L 128.45278 236.177635 
L 128.45278 231.191357 
L 129.053859 231.191357 
L 129.053859 232.568171 
L 129.654939 232.568171 
L 129.654939 230.831686 
L 130.256018 230.831686 
L 130.256018 231.805506 
L 130.857097 231.805506 
L 130.857097 231.993474 
L 131.458176 231.993474 
L 131.458176 232.503498 
L 132.059255 232.503498 
L 132.059255 236.100251 
L 132.660334 236.100251 
L 132.660334 237.293539 
L 133.261413 237.293539 
L 133.261413 237.049141 
L 133.862492 237.049141 
L 133.862492 235.793663 
L 134.463571 235.793663 
L 134.463571 232.310718 
L 135.064651 232.310718 
L 135.064651 232.828969 
L 135.66573 232.828969 
L 135.66573 232.439032 
L 136.266809 232.439032 
L 136.266809 231.557588 
L 136.867888 231.557588 
L 136.867888 230.950862 
L 137.468967 230.950862 
L 137.468967 227.55031 
L 138.070046 227.55031 
L 138.070046 226.232243 
L 138.671125 226.232243 
L 138.671125 225.218762 
L 139.272204 225.218762 
L 139.272204 221.535093 
L 139.873283 221.535093 
L 139.873283 216.040558 
L 140.474363 216.040558 
L 140.474363 215.927105 
L 141.075442 215.927105 
L 141.075442 216.097526 
L 141.676521 216.097526 
L 141.676521 218.105811 
L 142.2776 218.105811 
L 142.2776 217.793015 
L 142.878679 217.793015 
L 142.878679 220.337491 
L 143.479758 220.337491 
L 143.479758 220.514418 
L 144.080837 220.514418 
L 144.080837 219.340961 
L 144.681916 219.340961 
L 144.681916 219.85023 
L 145.884075 219.919119 
L 145.884075 224.04103 
L 146.485154 224.04103 
L 146.485154 225.084439 
L 147.086233 225.084439 
L 147.086233 222.297276 
L 147.687312 222.297276 
L 147.687312 223.049169 
L 148.288391 223.049169 
L 148.288391 223.746642 
L 148.88947 223.746642 
L 148.88947 222.76887 
L 149.490549 222.76887 
L 149.490549 223.049169 
L 150.091628 223.049169 
L 150.091628 221.27502 
L 150.692708 221.27502 
L 150.692708 222.065569 
L 151.293787 222.065569 
L 151.293787 223.746642 
L 151.894866 223.746642 
L 151.894866 223.914335 
L 152.495945 223.914335 
L 152.495945 223.211114 
L 153.698103 223.129978 
L 153.698103 223.788434 
L 154.299182 223.788434 
L 154.299182 223.089533 
L 155.50134 223.008886 
L 155.50134 222.027209 
L 156.10242 222.027209 
L 156.10242 222.219743 
L 156.703499 222.219743 
L 156.703499 222.610438 
L 157.304578 222.610438 
L 157.304578 222.258472 
L 157.905657 222.258472 
L 157.905657 222.571025 
L 159.107815 222.571025 
L 159.107815 222.76887 
L 159.708894 222.76887 
L 159.708894 222.453247 
L 161.512132 222.37511 
L 161.512132 222.258472 
L 162.113211 222.258472 
L 162.113211 221.912569 
L 162.71429 221.912569 
L 162.71429 220.836869 
L 163.916448 220.764765 
L 163.916448 218.423557 
L 164.517527 218.423557 
L 164.517527 217.515605 
L 165.118606 217.515605 
L 165.118606 217.272195 
L 165.719685 217.272195 
L 165.719685 217.454475 
L 166.320765 217.454475 
L 166.320765 217.061604 
L 166.921844 217.061604 
L 166.921844 216.912523 
L 167.522923 216.912523 
L 167.522923 216.269405 
L 168.124002 216.269405 
L 168.124002 213.910586 
L 168.725081 213.910586 
L 168.725081 210.143061 
L 169.32616 210.143061 
L 169.32616 210.016233 
L 169.927239 210.016233 
L 169.927239 211.616557 
L 170.528318 211.616557 
L 170.528318 211.277149 
L 171.129397 211.277149 
L 171.129397 208.809982 
L 171.730477 208.809982 
L 171.730477 206.720039 
L 172.331556 206.720039 
L 172.331556 206.069083 
L 172.932635 206.069083 
L 172.932635 204.892447 
L 173.533714 204.892447 
L 173.533714 201.615831 
L 174.134793 201.615831 
L 174.134793 208.534084 
L 174.735872 208.534084 
L 174.735872 207.153851 
L 175.336951 207.153851 
L 175.336951 207.300563 
L 175.93803 207.300563 
L 175.93803 208.031547 
L 176.539109 208.031547 
L 176.539109 206.648639 
L 177.741268 206.702165 
L 177.741268 205.657851 
L 178.342347 205.657851 
L 178.342347 204.360786 
L 178.943426 204.360786 
L 178.943426 204.925126 
L 179.544505 204.925126 
L 179.544505 204.632914 
L 180.145584 204.632914 
L 180.145584 204.440442 
L 180.746663 204.440442 
L 180.746663 203.827351 
L 181.347742 203.827351 
L 181.347742 204.892447 
L 181.948822 204.892447 
L 181.948822 205.221653 
L 182.549901 205.221653 
L 182.549901 205.421799 
L 183.15098 205.421799 
L 183.15098 205.725808 
L 183.752059 205.725808 
L 183.752059 206.138448 
L 184.353138 206.138448 
L 184.353138 207.263784 
L 184.954217 207.263784 
L 184.954217 207.026351 
L 185.555296 207.026351 
L 185.555296 207.190429 
L 186.757454 207.227073 
L 186.757454 207.008203 
L 187.358534 207.008203 
L 187.358534 205.691801 
L 187.959613 205.691801 
L 187.959613 204.859822 
L 188.560692 204.859822 
L 188.560692 204.376692 
L 189.76285 204.313144 
L 189.76285 203.642412 
L 190.363929 203.642412 
L 190.363929 202.948851 
L 190.965008 202.948851 
L 190.965008 202.581728 
L 191.566087 202.581728 
L 191.566087 202.83064 
L 192.768246 202.727773 
L 192.768246 203.097601 
L 193.369325 203.097601 
L 193.369325 202.801196 
L 193.970404 202.801196 
L 193.970404 202.993361 
L 195.172562 202.963677 
L 195.172562 202.307135 
L 195.773641 202.307135 
L 195.773641 201.852984 
L 196.37472 201.852984 
L 196.37472 200.210048 
L 196.975799 200.210048 
L 196.975799 198.240941 
L 197.576878 198.240941 
L 197.576878 196.652541 
L 198.177958 196.652541 
L 198.177958 195.352474 
L 198.779037 195.352474 
L 198.779037 194.150598 
L 199.380116 194.150598 
L 199.380116 193.650079 
L 199.981195 193.650079 
L 199.981195 191.494257 
L 200.582274 191.494257 
L 200.582274 188.955725 
L 201.183353 188.955725 
L 201.183353 189.118806 
L 201.784432 189.118806 
L 201.784432 186.64308 
L 202.385511 186.64308 
L 202.385511 186.200575 
L 202.986591 186.200575 
L 202.986591 184.327641 
L 203.58767 184.327641 
L 203.58767 180.231435 
L 204.188749 180.231435 
L 204.188749 178.580003 
L 204.789828 178.580003 
L 204.789828 178.032658 
L 205.390907 178.032658 
L 205.390907 175.896343 
L 205.991986 175.896343 
L 205.991986 169.901901 
L 206.593065 169.901901 
L 206.593065 167.59808 
L 207.194144 167.59808 
L 207.194144 164.376618 
L 207.795223 164.376618 
L 207.795223 157.38862 
L 208.396303 157.38862 
L 208.396303 152.962911 
L 208.997382 152.962911 
L 208.997382 158.346166 
L 209.598461 158.346166 
L 209.598461 170.526084 
L 210.19954 170.526084 
L 210.19954 159.331393 
L 210.800619 159.331393 
L 210.800619 155.698902 
L 211.401698 155.698902 
L 211.401698 157.775551 
L 212.002777 157.775551 
L 212.002777 159.658255 
L 212.603856 159.658255 
L 212.603856 159.834088 
L 213.204935 159.834088 
L 213.204935 160.411964 
L 213.806015 160.411964 
L 213.806015 159.489052 
L 214.407094 159.489052 
L 214.407094 158.601814 
L 215.609252 158.703028 
L 215.609252 157.237433 
L 216.81141 157.190324 
L 216.81141 158.748905 
L 217.412489 158.748905 
L 217.412489 159.322952 
L 218.013568 159.322952 
L 218.013568 161.622024 
L 218.614648 161.622024 
L 218.614648 162.81508 
L 219.215727 162.81508 
L 219.215727 161.379343 
L 219.816806 161.379343 
L 219.816806 161.200628 
L 220.417885 161.200628 
L 220.417885 162.023468 
L 221.018964 162.023468 
L 221.018964 163.371029 
L 221.620043 163.371029 
L 221.620043 167.281995 
L 222.221122 167.281995 
L 222.221122 168.193005 
L 222.822201 168.193005 
L 222.822201 164.055727 
L 223.42328 164.055727 
L 223.42328 163.41237 
L 224.02436 163.41237 
L 224.02436 165.063388 
L 224.625439 165.063388 
L 224.625439 163.944934 
L 225.226518 163.944934 
L 225.226518 163.07383 
L 225.827597 163.07383 
L 225.827597 161.90411 
L 226.428676 161.90411 
L 226.428676 161.505021 
L 227.029755 161.505021 
L 227.029755 162.256521 
L 227.630834 162.256521 
L 227.630834 161.016143 
L 228.231913 161.016143 
L 228.231913 162.869384 
L 228.832992 162.869384 
L 228.832992 160.818784 
L 229.434072 160.818784 
L 229.434072 160.307101 
L 230.035151 160.307101 
L 230.035151 159.402441 
L 230.63623 159.402441 
L 230.63623 157.528601 
L 231.237309 157.528601 
L 231.237309 159.55383 
L 231.838388 159.55383 
L 231.838388 158.814627 
L 232.439467 158.814627 
L 232.439467 158.483294 
L 233.040546 158.483294 
L 233.040546 157.992375 
L 233.641625 157.992375 
L 233.641625 158.665422 
L 234.242705 158.665422 
L 234.242705 158.3864 
L 234.843784 158.3864 
L 234.843784 158.130281 
L 235.444863 158.130281 
L 235.444863 158.827797 
L 236.045942 158.827797 
L 236.045942 158.471965 
L 236.647021 158.471965 
L 236.647021 157.918266 
L 237.2481 157.918266 
L 237.2481 156.315642 
L 237.849179 156.315642 
L 237.849179 150.33625 
L 238.450258 150.33625 
L 238.450258 149.366356 
L 239.051337 149.366356 
L 239.051337 148.210786 
L 239.652417 148.210786 
L 239.652417 148.592921 
L 240.253496 148.592921 
L 240.253496 144.203962 
L 240.854575 144.203962 
L 240.854575 138.835779 
L 241.455654 138.835779 
L 241.455654 135.327269 
L 242.056733 135.327269 
L 242.056733 131.521795 
L 242.657812 131.521795 
L 242.657812 123.259621 
L 243.258891 123.259621 
L 243.258891 120.691386 
L 243.85997 120.691386 
L 243.85997 114.048269 
L 244.461049 114.048269 
L 244.461049 115.58883 
L 245.062129 115.58883 
L 245.062129 123.566204 
L 245.663208 123.566204 
L 245.663208 119.210965 
L 246.264287 119.210965 
L 246.264287 119.531834 
L 246.865366 119.531834 
L 246.865366 124.161228 
L 247.466445 124.161228 
L 247.466445 124.916921 
L 248.067524 124.916921 
L 248.067524 123.058634 
L 248.668603 123.058634 
L 248.668603 122.837405 
L 249.269682 122.837405 
L 249.269682 120.344818 
L 249.870761 120.344818 
L 249.870761 120.477069 
L 250.471841 120.477069 
L 250.471841 119.977467 
L 251.07292 119.977467 
L 251.07292 120.627637 
L 251.673999 120.627637 
L 251.673999 120.367366 
L 252.275078 120.367366 
L 252.275078 121.561471 
L 252.876157 121.561471 
L 252.876157 121.418329 
L 253.477236 121.418329 
L 253.477236 120.629357 
L 254.078315 120.629357 
L 254.078315 121.536257 
L 254.679394 121.536257 
L 254.679394 124.100663 
L 255.280474 124.100663 
L 255.280474 126.498624 
L 255.881553 126.498624 
L 255.881553 125.852065 
L 256.482632 125.852065 
L 256.482632 127.52865 
L 257.083711 127.52865 
L 257.083711 128.233223 
L 257.68479 128.233223 
L 257.68479 127.949553 
L 258.285869 127.949553 
L 258.285869 124.59367 
L 258.886948 124.59367 
L 258.886948 125.537683 
L 260.089106 125.50288 
L 260.089106 126.020119 
L 260.690186 126.020119 
L 260.690186 127.759019 
L 261.291265 127.759019 
L 261.291265 127.31186 
L 261.892344 127.31186 
L 261.892344 130.897462 
L 262.493423 130.897462 
L 262.493423 133.099007 
L 263.094502 133.099007 
L 263.094502 132.253664 
L 263.695581 132.253664 
L 263.695581 136.592639 
L 264.29666 136.592639 
L 264.29666 132.181886 
L 264.897739 132.181886 
L 264.897739 131.22344 
L 265.498818 131.22344 
L 265.498818 130.958207 
L 266.099898 130.958207 
L 266.099898 132.101659 
L 266.700977 132.101659 
L 266.700977 132.517141 
L 267.302056 132.517141 
L 267.302056 133.207682 
L 268.504214 133.168179 
L 268.504214 132.9473 
L 269.105293 132.9473 
L 269.105293 132.646833 
L 269.706372 132.646833 
L 269.706372 130.974656 
L 270.307451 130.974656 
L 270.307451 129.401009 
L 270.908531 129.401009 
L 270.908531 127.476738 
L 271.50961 127.476738 
L 271.50961 125.828172 
L 272.110689 125.828172 
L 272.110689 124.871637 
L 272.711768 124.871637 
L 272.711768 125.260002 
L 273.312847 125.260002 
L 273.312847 127.11537 
L 273.913926 127.11537 
L 273.913926 126.564572 
L 274.515005 126.564572 
L 274.515005 127.135408 
L 275.116084 127.135408 
L 275.116084 128.188769 
L 275.717163 128.188769 
L 275.717163 126.830885 
L 276.318243 126.830885 
L 276.318243 125.367378 
L 276.919322 125.367378 
L 276.919322 126.031695 
L 277.520401 126.031695 
L 277.520401 125.723694 
L 278.12148 125.723694 
L 278.12148 126.040703 
L 278.722559 126.040703 
L 278.722559 125.85079 
L 279.323638 125.85079 
L 279.323638 126.158172 
L 279.924717 126.158172 
L 279.924717 127.043193 
L 280.525796 127.043193 
L 280.525796 127.440825 
L 281.126875 127.440825 
L 281.126875 127.219175 
L 282.329034 127.202803 
L 282.329034 127.895485 
L 282.930113 127.895485 
L 282.930113 129.554894 
L 283.531192 129.554894 
L 283.531192 129.749794 
L 284.132271 129.749794 
L 284.132271 130.171829 
L 285.334429 130.228036 
L 285.334429 131.464382 
L 285.935508 131.464382 
L 285.935508 131.065781 
L 286.536587 131.065781 
L 286.536587 131.591672 
L 287.137667 131.591672 
L 287.137667 131.440789 
L 287.738746 131.440789 
L 287.738746 132.434238 
L 288.339825 132.434238 
L 288.339825 134.915088 
L 288.940904 134.915088 
L 288.940904 134.46758 
L 289.541983 134.46758 
L 289.541983 136.329346 
L 290.143062 136.329346 
L 290.143062 137.149947 
L 290.744141 137.149947 
L 290.744141 138.590228 
L 291.34522 138.590228 
L 291.34522 136.980015 
L 291.9463 136.980015 
L 291.9463 135.23347 
L 292.547379 135.23347 
L 292.547379 135.510003 
L 293.148458 135.510003 
L 293.148458 137.245291 
L 293.749537 137.245291 
L 293.749537 137.602626 
L 294.350616 137.602626 
L 294.350616 138.367252 
L 294.951695 138.367252 
L 294.951695 138.821788 
L 295.552774 138.821788 
L 295.552774 137.830535 
L 296.153853 137.830535 
L 296.153853 133.983896 
L 296.754932 133.983896 
L 296.754932 135.487843 
L 297.356012 135.487843 
L 297.356012 137.286373 
L 297.957091 137.286373 
L 297.957091 136.291247 
L 298.55817 136.291247 
L 298.55817 136.162994 
L 299.159249 136.162994 
L 299.159249 136.022856 
L 299.760328 136.022856 
L 299.760328 136.266066 
L 300.361407 136.266066 
L 300.361407 137.72374 
L 300.962486 137.72374 
L 300.962486 137.211589 
L 301.563565 137.211589 
L 301.563565 139.94539 
L 302.164644 139.94539 
L 302.164644 138.715653 
L 302.765724 138.715653 
L 302.765724 138.839431 
L 303.366803 138.839431 
L 303.366803 140.026584 
L 303.967882 140.026584 
L 303.967882 141.773399 
L 304.568961 141.773399 
L 304.568961 140.884709 
L 305.17004 140.884709 
L 305.17004 142.889283 
L 305.771119 142.889283 
L 305.771119 147.89207 
L 306.372198 147.89207 
L 306.372198 147.345509 
L 306.973277 147.345509 
L 306.973277 145.763994 
L 307.574357 145.763994 
L 307.574357 143.353293 
L 308.175436 143.353293 
L 308.175436 147.046543 
L 308.776515 147.046543 
L 308.776515 146.374648 
L 309.377594 146.374648 
L 309.377594 146.622412 
L 309.978673 146.622412 
L 309.978673 146.766408 
L 310.579752 146.766408 
L 310.579752 145.69623 
L 311.180831 145.69623 
L 311.180831 144.752794 
L 311.78191 144.752794 
L 311.78191 145.235703 
L 312.382989 145.235703 
L 312.382989 144.131746 
L 312.984069 144.131746 
L 312.984069 142.861007 
L 313.585148 142.861007 
L 313.585148 142.496998 
L 314.186227 142.496998 
L 314.186227 141.094027 
L 314.787306 141.094027 
L 314.787306 141.480412 
L 315.388385 141.480412 
L 315.388385 143.461794 
L 315.989464 143.461794 
L 315.989464 144.816624 
L 316.590543 144.816624 
L 316.590543 144.174568 
L 317.191622 144.174568 
L 317.191622 144.694868 
L 317.792701 144.694868 
L 317.792701 143.583214 
L 318.393781 143.583214 
L 318.393781 144.981225 
L 318.99486 144.981225 
L 318.99486 146.705084 
L 320.197018 146.738428 
L 320.197018 145.580956 
L 320.798097 145.580956 
L 320.798097 146.411885 
L 322.000255 146.471429 
L 322.000255 145.275077 
L 322.601334 145.275077 
L 322.601334 145.469726 
L 323.202414 145.469726 
L 323.202414 145.151352 
L 323.803493 145.151352 
L 323.803493 145.451953 
L 324.404572 145.451953 
L 324.404572 145.963464 
L 325.005651 145.963464 
L 325.005651 145.418986 
L 325.60673 145.418986 
L 325.60673 145.626986 
L 326.207809 145.626986 
L 326.207809 146.230785 
L 326.808888 146.230785 
L 326.808888 146.716793 
L 327.409967 146.716793 
L 327.409967 146.290677 
L 328.011046 146.290677 
L 328.011046 146.120281 
L 328.612126 146.120281 
L 328.612126 144.412538 
L 329.213205 144.412538 
L 329.213205 144.837126 
L 329.814284 144.837126 
L 329.814284 145.213955 
L 330.415363 145.213955 
L 330.415363 144.526125 
L 331.016442 144.526125 
L 331.016442 144.038489 
L 331.617521 144.038489 
L 331.617521 142.975098 
L 332.2186 142.975098 
L 332.2186 141.785377 
L 332.819679 141.785377 
L 332.819679 141.575043 
L 333.420758 141.575043 
L 333.420758 142.370339 
L 334.622917 142.281285 
L 334.622917 141.236166 
L 335.223996 141.236166 
L 335.223996 141.538112 
L 335.825075 141.538112 
L 335.825075 142.055002 
L 336.426154 142.055002 
L 336.426154 142.183994 
L 337.027233 142.183994 
L 337.027233 142.792714 
L 337.628312 142.792714 
L 337.628312 143.513193 
L 338.229391 143.513193 
L 338.229391 146.415435 
L 338.83047 146.415435 
L 338.83047 146.248382 
L 339.43155 146.248382 
L 339.43155 146.516872 
L 340.032629 146.516872 
L 340.032629 146.063511 
L 341.234787 146.021692 
L 341.234787 144.88148 
L 341.835866 144.88148 
L 341.835866 145.676543 
L 342.436945 145.676543 
L 342.436945 146.231665 
L 343.038024 146.231665 
L 343.038024 146.071362 
L 343.639103 146.071362 
L 343.639103 145.739092 
L 344.240183 145.739092 
L 344.240183 145.302769 
L 344.841262 145.302769 
L 344.841262 145.418142 
L 345.442341 145.418142 
L 345.442341 144.669629 
L 346.644499 144.757697 
L 346.644499 144.213504 
L 347.245578 144.213504 
L 347.245578 143.543172 
L 347.846657 143.543172 
L 347.846657 142.544518 
L 348.447736 142.544518 
L 348.447736 141.661013 
L 349.048815 141.661013 
L 349.048815 138.947448 
L 349.649895 138.947448 
L 349.649895 134.748087 
L 350.250974 134.748087 
L 350.250974 135.635178 
L 350.852053 135.635178 
L 350.852053 140.157439 
L 351.453132 140.157439 
L 351.453132 139.518448 
L 352.054211 139.518448 
L 352.054211 139.086835 
L 352.65529 139.086835 
L 352.65529 139.236505 
L 353.256369 139.236505 
L 353.256369 137.200367 
L 353.857448 137.200367 
L 353.857448 136.945093 
L 354.458527 136.945093 
L 354.458527 135.63881 
L 355.059607 135.63881 
L 355.059607 134.161504 
L 355.660686 134.161504 
L 355.660686 133.362767 
L 356.261765 133.362767 
L 356.261765 132.316021 
L 356.862844 132.316021 
L 356.862844 133.13425 
L 357.463923 133.13425 
L 357.463923 132.363577 
L 358.065002 132.363577 
L 358.065002 133.370182 
L 359.26716 133.391979 
L 359.26716 133.555048 
L 359.86824 133.555048 
L 359.86824 132.677708 
L 360.469319 132.677708 
L 360.469319 133.541486 
L 361.070398 133.541486 
L 361.070398 135.714721 
L 361.671477 135.714721 
L 361.671477 135.923653 
L 362.272556 135.923653 
L 362.272556 135.395856 
L 362.873635 135.395856 
L 362.873635 136.183246 
L 363.474714 136.183246 
L 363.474714 136.622048 
L 364.075793 136.622048 
L 364.075793 136.268744 
L 364.676872 136.268744 
L 364.676872 136.107671 
L 365.277952 136.107671 
L 365.277952 135.012438 
L 365.879031 135.012438 
L 365.879031 133.993934 
L 367.081189 134.028869 
L 367.081189 133.446343 
L 367.682268 133.446343 
L 367.682268 133.873802 
L 368.283347 133.873802 
L 368.283347 134.689098 
L 368.884426 134.689098 
L 368.884426 134.185143 
L 370.086584 134.233957 
L 370.086584 134.577049 
L 370.687664 134.577049 
L 370.687664 134.166326 
L 371.889822 134.138856 
L 371.889822 134.294535 
L 372.490901 134.294535 
L 372.490901 134.064345 
L 373.693059 133.995369 
L 373.693059 133.867624 
L 374.294138 133.867624 
L 374.294138 133.546161 
L 374.895217 133.546161 
L 374.895217 133.244498 
L 375.496296 133.244498 
L 375.496296 132.522028 
L 376.097376 132.522028 
L 376.097376 132.818815 
L 376.698455 132.818815 
L 376.698455 132.474095 
L 377.299534 132.474095 
L 377.299534 132.635658 
L 377.900613 132.635658 
L 377.900613 132.137373 
L 378.501692 132.137373 
L 378.501692 132.349474 
L 379.102771 132.349474 
L 379.102771 132.470549 
L 379.70385 132.470549 
L 379.70385 132.912836 
L 380.304929 132.912836 
L 380.304929 132.665621 
L 380.906009 132.665621 
L 380.906009 130.042988 
L 381.507088 130.042988 
L 381.507088 129.020819 
L 382.108167 129.020819 
L 382.108167 127.382946 
L 382.709246 127.382946 
L 382.709246 127.582433 
L 383.310325 127.582433 
L 383.310325 124.164452 
L 383.911404 124.164452 
L 383.911404 122.297171 
L 384.512483 122.297171 
L 384.512483 127.072643 
L 385.113562 127.072643 
L 385.113562 125.844735 
L 385.714641 125.844735 
L 385.714641 124.676176 
L 386.315721 124.676176 
L 386.315721 124.25875 
L 386.9168 124.25875 
L 386.9168 124.825546 
L 388.720037 124.876494 
L 388.720037 124.689709 
L 389.321116 124.689709 
L 389.321116 124.871637 
L 389.922195 124.871637 
L 389.922195 125.052777 
L 390.523274 125.052777 
L 390.523274 126.645322 
L 391.124353 126.645322 
L 391.124353 127.764979 
L 391.725433 127.764979 
L 391.725433 127.339647 
L 392.927591 127.396023 
L 392.927591 127.828191 
L 393.52867 127.828191 
L 393.52867 127.607118 
L 394.730828 127.659019 
L 394.730828 127.807801 
L 395.932986 127.79024 
L 395.932986 126.559288 
L 396.534066 126.559288 
L 396.534066 126.118724 
L 397.135145 126.118724 
L 397.135145 126.5319 
L 398.337303 126.587374 
L 398.337303 127.029668 
L 398.938382 127.029668 
L 398.938382 126.604576 
L 400.741619 126.591673 
L 400.741619 126.352335 
L 401.342698 126.352335 
L 401.342698 125.686986 
L 401.943778 125.686986 
L 401.943778 125.56689 
L 402.544857 125.56689 
L 402.544857 125.886202 
L 403.145936 125.886202 
L 403.145936 125.411612 
L 403.747015 125.411612 
L 403.747015 124.143362 
L 404.348094 124.143362 
L 404.348094 122.986094 
L 404.949173 122.986094 
L 404.949173 123.63545 
L 405.550252 123.63545 
L 405.550252 123.12754 
L 406.151331 123.12754 
L 406.151331 123.724136 
L 406.75241 123.724136 
L 406.75241 122.705065 
L 408.555648 122.698798 
L 408.555648 122.891796 
L 409.156727 122.891796 
L 409.156727 122.00528 
L 410.358885 121.91311 
L 410.358885 121.86836 
L 410.959964 121.86836 
L 410.959964 121.668336 
L 411.561043 121.668336 
L 411.561043 121.280007 
L 412.162123 121.280007 
L 412.162123 118.379932 
L 412.763202 118.379932 
L 412.763202 118.022566 
L 413.364281 118.022566 
L 413.364281 117.29137 
L 413.96536 117.29137 
L 413.96536 114.492144 
L 414.566439 114.492144 
L 414.566439 118.455659 
L 415.167518 118.455659 
L 415.167518 120.915492 
L 415.768597 120.915492 
L 415.768597 120.300767 
L 416.369676 120.300767 
L 416.369676 118.785881 
L 416.970755 118.785881 
L 416.970755 119.057887 
L 417.571835 119.057887 
L 417.571835 118.277146 
L 418.172914 118.277146 
L 418.172914 116.908342 
L 418.773993 116.908342 
L 418.773993 116.351332 
L 419.375072 116.351332 
L 419.375072 116.869175 
L 419.976151 116.869175 
L 419.976151 116.548524 
L 420.57723 116.548524 
L 420.57723 115.506016 
L 421.178309 115.506016 
L 421.178309 114.207393 
L 421.779388 114.207393 
L 421.779388 113.759572 
L 422.380467 113.759572 
L 422.380467 112.497658 
L 422.981547 112.497658 
L 422.981547 111.756445 
L 423.582626 111.756445 
L 423.582626 113.044194 
L 424.183705 113.044194 
L 424.183705 112.241275 
L 424.784784 112.241275 
L 424.784784 115.245876 
L 425.385863 115.245876 
L 425.385863 114.422742 
L 425.986942 114.422742 
L 425.986942 117.354532 
L 426.588021 117.354532 
L 426.588021 115.789453 
L 427.1891 115.789453 
L 427.1891 115.02733 
L 427.790179 115.02733 
L 427.790179 113.016587 
L 428.391259 113.016587 
L 428.391259 112.744905 
L 428.992338 112.744905 
L 428.992338 113.41362 
L 429.593417 113.41362 
L 429.593417 112.891317 
L 430.194496 112.891317 
L 430.194496 112.362706 
L 430.795575 112.362706 
L 430.795575 111.489955 
L 431.396654 111.489955 
L 431.396654 110.474901 
L 431.997733 110.474901 
L 431.997733 107.93809 
L 432.598812 107.93809 
L 432.598812 106.503102 
L 433.199892 106.503102 
L 433.199892 106.001285 
L 433.800971 106.001285 
L 433.800971 105.81109 
L 434.40205 105.81109 
L 434.40205 102.564881 
L 435.003129 102.564881 
L 435.003129 98.813216 
L 435.604208 98.813216 
L 435.604208 100.947049 
L 436.205287 100.947049 
L 436.205287 98.909311 
L 436.806366 98.909311 
L 436.806366 96.633558 
L 437.407445 96.633558 
L 437.407445 95.717214 
L 438.008524 95.717214 
L 438.008524 96.582436 
L 438.609604 96.582436 
L 438.609604 97.156333 
L 439.210683 97.156333 
L 439.210683 96.936627 
L 439.811762 96.936627 
L 439.811762 98.156175 
L 440.412841 98.156175 
L 440.412841 97.840363 
L 441.614999 97.775367 
L 441.614999 98.149515 
L 442.216078 98.149515 
L 442.216078 99.751667 
L 442.817157 99.751667 
L 442.817157 102.933613 
L 443.418236 102.933613 
L 443.418236 100.152939 
L 444.019316 100.152939 
L 444.019316 96.27052 
L 444.620395 96.27052 
L 444.620395 96.952948 
L 445.221474 96.952948 
L 445.221474 95.450594 
L 446.423632 95.495395 
L 446.423632 91.946228 
L 447.024711 91.946228 
L 447.024711 89.405439 
L 447.62579 89.405439 
L 447.62579 86.931098 
L 448.226869 86.931098 
L 448.226869 88.462028 
L 448.827949 88.462028 
L 448.827949 87.134181 
L 449.429028 87.134181 
L 449.429028 86.927152 
L 450.030107 86.927152 
L 450.030107 84.624568 
L 450.631186 84.624568 
L 450.631186 86.888831 
L 451.232265 86.888831 
L 451.232265 87.138354 
L 451.833344 87.138354 
L 451.833344 89.422577 
L 452.434423 89.422577 
L 452.434423 90.4167 
L 453.035502 90.4167 
L 453.035502 90.844906 
L 453.636581 90.844906 
L 453.636581 89.078697 
L 454.237661 89.078697 
L 454.237661 87.926085 
L 454.83874 87.926085 
L 454.83874 87.243139 
L 455.439819 87.243139 
L 455.439819 86.641059 
L 456.040898 86.641059 
L 456.040898 84.980527 
L 456.641977 84.980527 
L 456.641977 81.651417 
L 457.844135 81.632127 
L 457.844135 80.927591 
L 458.445214 80.927591 
L 458.445214 81.377394 
L 459.046293 81.377394 
L 459.046293 79.245729 
L 459.647373 79.245729 
L 459.647373 76.473177 
L 460.248452 76.473177 
L 460.248452 76.195803 
L 460.849531 76.195803 
L 460.849531 80.963391 
L 461.45061 80.963391 
L 461.45061 75.147256 
L 462.051689 75.147256 
L 462.051689 74.214699 
L 463.253847 74.287991 
L 463.253847 70.497469 
L 463.854926 70.497469 
L 463.854926 68.579909 
L 464.456005 68.579909 
L 464.456005 63.802533 
L 465.057085 63.802533 
L 465.057085 62.099867 
L 465.658164 62.099867 
L 465.658164 60.390124 
L 466.259243 60.390124 
L 466.259243 57.538459 
L 466.860322 57.538459 
L 466.860322 63.900421 
L 467.461401 63.900421 
L 467.461401 61.304223 
L 468.06248 61.304223 
L 468.06248 65.673195 
L 468.663559 65.673195 
L 468.663559 62.139498 
L 469.264638 62.139498 
L 469.264638 60.655289 
L 469.865718 60.655289 
L 469.865718 64.62927 
L 470.466797 64.62927 
L 470.466797 64.227345 
L 471.067876 64.227345 
L 471.067876 67.51621 
L 471.668955 67.51621 
L 471.668955 68.73022 
L 472.270034 68.73022 
L 472.270034 67.647774 
L 472.871113 67.647774 
L 472.871113 69.928617 
L 473.472192 69.928617 
L 473.472192 74.31422 
L 474.67435 74.209169 
L 474.67435 72.683937 
L 475.27543 72.683937 
L 475.27543 69.978745 
L 475.876509 69.978745 
L 475.876509 67.976113 
L 476.477588 67.976113 
L 476.477588 70.946301 
L 477.078667 70.946301 
L 477.078667 69.678013 
L 477.679746 69.678013 
L 477.679746 67.498208 
L 478.280825 67.498208 
L 478.280825 71.738617 
L 478.881904 71.738617 
L 478.881904 72.16192 
L 479.482983 72.16192 
L 479.482983 74.080959 
L 480.084062 74.080959 
L 480.084062 72.65184 
L 480.685142 72.65184 
L 480.685142 73.51811 
L 481.286221 73.51811 
L 481.286221 74.939479 
L 481.8873 74.939479 
L 481.8873 77.997515 
L 482.488379 77.997515 
L 482.488379 78.118112 
L 483.690537 78.124771 
L 483.690537 75.079792 
L 484.892695 75.049447 
L 484.892695 72.605353 
L 485.493775 72.605353 
L 485.493775 72.741764 
L 486.094854 72.741764 
L 486.094854 71.580094 
L 486.695933 71.580094 
L 486.695933 70.835661 
L 487.297012 70.835661 
L 487.297012 71.642667 
L 487.898091 71.642667 
L 487.898091 73.842938 
L 488.49917 73.842938 
L 488.49917 73.666196 
L 489.100249 73.666196 
L 489.100249 74.216501 
L 489.701328 74.216501 
L 489.701328 76.07926 
L 490.302407 76.07926 
L 490.302407 76.531685 
L 490.903487 76.531685 
L 490.903487 76.138828 
L 492.105645 76.123256 
L 492.105645 75.804126 
L 492.706724 75.804126 
L 492.706724 78.821673 
L 493.307803 78.821673 
L 493.307803 79.01975 
L 493.908882 79.01975 
L 493.908882 78.194686 
L 494.509961 78.194686 
L 494.509961 80.073264 
L 495.11104 80.073264 
L 495.11104 81.004139 
L 495.712119 81.004139 
L 495.712119 78.597874 
L 496.914278 78.59136 
L 496.914278 79.519251 
L 497.515357 79.519251 
L 497.515357 79.77607 
L 498.116436 79.77607 
L 498.116436 76.459224 
L 499.318594 76.362608 
L 499.318594 74.966775 
L 499.919673 74.966775 
L 499.919673 74.389204 
L 500.520752 74.389204 
L 500.520752 76.340632 
L 501.121831 76.340632 
L 501.121831 78.321618 
L 501.722911 78.321618 
L 501.722911 79.843636 
L 502.32399 79.843636 
L 502.32399 79.70604 
L 502.925069 79.70604 
L 502.925069 79.02625 
L 503.526148 79.02625 
L 503.526148 78.904706 
L 504.127227 78.904706 
L 504.127227 77.781852 
L 504.728306 77.781852 
L 504.728306 77.442774 
L 505.329385 77.442774 
L 505.329385 76.491724 
L 505.930464 76.491724 
L 505.930464 79.985332 
L 506.531544 79.985332 
L 506.531544 79.529502 
L 507.132623 79.529502 
L 507.132623 78.992874 
L 508.334781 78.997047 
L 508.334781 78.728578 
L 508.93586 78.728578 
L 508.93586 78.591147 
L 509.536939 78.591147 
L 509.536939 78.91902 
L 510.138018 78.91902 
L 510.138018 78.758584 
L 511.340176 78.735838 
L 511.340176 79.723693 
L 511.941256 79.723693 
L 511.941256 78.95508 
L 513.143414 79.003632 
L 513.143414 79.07091 
L 513.744493 79.07091 
L 513.744493 79.607202 
L 514.345572 79.607202 
L 514.345572 79.417885 
L 514.946651 79.417885 
L 514.946651 78.871286 
L 515.54773 78.871286 
L 515.54773 79.269342 
L 516.148809 79.269342 
L 516.148809 81.768043 
L 516.749888 81.768043 
L 516.749888 84.870019 
L 517.350968 84.870019 
L 517.350968 87.036096 
L 517.952047 87.036096 
L 517.952047 89.614523 
L 518.553126 89.614523 
L 518.553126 87.811546 
L 519.154205 87.811546 
L 519.154205 90.057186 
L 519.755284 90.057186 
L 519.755284 90.914624 
L 520.356363 90.914624 
L 520.356363 92.548032 
L 520.957442 92.548032 
L 520.957442 91.093936 
L 521.558521 91.093936 
L 521.558521 89.243566 
L 522.159601 89.243566 
L 522.159601 89.650906 
L 522.76068 89.650906 
L 522.76068 89.921554 
L 523.361759 89.921554 
L 523.361759 89.082119 
L 523.962838 89.082119 
L 523.962838 88.37717 
L 524.563917 88.37717 
L 524.563917 90.593694 
L 525.164996 90.593694 
L 525.164996 90.395148 
L 525.766075 90.395148 
L 525.766075 90.707024 
L 526.367154 90.707024 
L 526.367154 90.920724 
L 527.569313 90.982675 
L 527.569313 91.588605 
L 528.771471 91.669672 
L 528.771471 92.028814 
L 529.37255 92.028814 
L 529.37255 90.68632 
L 529.973629 90.68632 
L 529.973629 90.804349 
L 530.574708 90.804349 
L 530.574708 89.106551 
L 531.175787 89.106551 
L 531.175787 88.045403 
L 531.776866 88.045403 
L 531.776866 89.589467 
L 532.979025 89.687407 
L 532.979025 89.31067 
L 534.181183 89.340295 
L 534.181183 89.055626 
L 534.782262 89.055626 
L 534.782262 88.58867 
L 536.585499 88.492213 
L 536.585499 88.169193 
L 537.186578 88.169193 
L 537.186578 84.612994 
L 537.787658 84.612994 
L 537.787658 83.202113 
L 538.388737 83.202113 
L 538.388737 83.962841 
L 538.989816 83.962841 
L 538.989816 83.478658 
L 539.590895 83.478658 
L 539.590895 83.048078 
L 540.191974 83.048078 
L 540.191974 82.581107 
L 540.793053 82.581107 
L 540.793053 83.078321 
L 541.394132 83.078321 
L 541.394132 82.744475 
L 541.995211 82.744475 
L 541.995211 81.676906 
L 542.59629 81.676906 
L 542.59629 79.459851 
L 543.19737 79.459851 
L 543.19737 74.833476 
L 543.798449 74.833476 
L 543.798449 76.750262 
L 544.399528 76.750262 
L 544.399528 75.776748 
L 545.000607 75.776748 
L 545.000607 73.028418 
L 545.601686 73.028418 
L 545.601686 74.142595 
L 546.202765 74.142595 
L 546.202765 74.479275 
L 546.803844 74.479275 
L 546.803844 74.819412 
L 547.404923 74.819412 
L 547.404923 75.023078 
L 548.006002 75.023078 
L 548.006002 72.765934 
L 548.607082 72.765934 
L 548.607082 71.831003 
L 549.208161 71.831003 
L 549.208161 68.761781 
L 549.80924 68.761781 
L 549.80924 68.179143 
L 550.410319 68.179143 
L 550.410319 69.2044 
L 551.011398 69.2044 
L 551.011398 68.502241 
L 551.612477 68.502241 
L 551.612477 65.714251 
L 552.213556 65.714251 
L 552.213556 67.722166 
L 552.814635 67.722166 
L 552.814635 70.999121 
L 553.415714 70.999121 
L 553.415714 69.18791 
L 554.016794 69.18791 
L 554.016794 70.5864 
L 554.617873 70.5864 
L 554.617873 71.361364 
L 555.218952 71.361364 
L 555.218952 69.297954 
L 555.820031 69.297954 
L 555.820031 67.587611 
L 556.42111 67.587611 
L 556.42111 67.911506 
L 557.022189 67.911506 
L 557.022189 70.300121 
L 557.623268 70.300121 
L 557.623268 69.706292 
L 558.224347 69.706292 
L 558.224347 70.110531 
L 558.825427 70.110531 
L 558.825427 69.623395 
L 559.426506 69.623395 
L 559.426506 71.199993 
L 560.027585 71.199993 
L 560.027585 69.123753 
L 560.628664 69.123753 
L 560.628664 69.378864 
L 561.229743 69.378864 
L 561.229743 70.016739 
L 561.830822 70.016739 
L 561.830822 69.720252 
L 563.03298 69.787656 
L 563.03298 70.980241 
L 563.634059 70.980241 
L 563.634059 74.334208 
L 564.235139 74.334208 
L 564.235139 74.020477 
L 564.836218 74.020477 
L 564.836218 74.447777 
L 565.437297 74.447777 
L 565.437297 73.391067 
L 566.038376 73.391067 
L 566.038376 74.115183 
L 566.639455 74.115183 
L 566.639455 74.623309 
L 567.240534 74.623309 
L 567.240534 74.26419 
L 567.841613 74.26419 
L 567.841613 73.207487 
L 568.442692 73.207487 
L 568.442692 71.505557 
L 569.043771 71.505557 
L 569.043771 71.788901 
L 570.24593 71.698084 
L 570.24593 72.367252 
L 570.847009 72.367252 
L 570.847009 73.287514 
L 571.448088 73.287514 
L 571.448088 74.378149 
L 572.049167 74.378149 
L 572.049167 76.691474 
L 572.650246 76.691474 
L 572.650246 77.032569 
L 573.251325 77.032569 
L 573.251325 75.957171 
L 573.852404 75.957171 
L 573.852404 76.950826 
L 574.453484 76.950826 
L 574.453484 76.051264 
L 575.054563 76.051264 
L 575.054563 76.961131 
L 575.655642 76.961131 
L 575.655642 77.845152 
L 576.256721 77.845152 
L 576.256721 76.95831 
L 576.8578 76.95831 
L 576.8578 76.789993 
L 577.458879 76.789993 
L 577.458879 76.650946 
L 578.059958 76.650946 
L 578.059958 76.998819 
L 578.661037 76.998819 
L 578.661037 76.512528 
L 579.262116 76.512528 
L 579.262116 75.277446 
L 579.863196 75.277446 
L 579.863196 74.552674 
L 580.464275 74.552674 
L 580.464275 72.67351 
L 581.065354 72.67351 
L 581.065354 73.079372 
L 581.666433 73.079372 
L 581.666433 74.009767 
L 582.267512 74.009767 
L 582.267512 71.835092 
L 583.46967 71.760035 
L 583.46967 70.830905 
L 584.070749 70.830905 
L 584.070749 70.627885 
L 584.671828 70.627885 
L 584.671828 69.607411 
L 585.272908 69.607411 
L 585.272908 69.974622 
L 585.873987 69.974622 
L 585.873987 71.008775 
L 586.475066 71.008775 
L 586.475066 72.934255 
L 587.076145 72.934255 
L 587.076145 73.517145 
L 587.677224 73.517145 
L 587.677224 72.300102 
L 588.278303 72.300102 
L 588.278303 74.98669 
L 588.879382 74.98669 
L 588.879382 81.945192 
L 589.480461 81.945192 
L 589.480461 82.866108 
L 590.08154 82.866108 
L 590.08154 79.966539 
L 590.68262 79.966539 
L 590.68262 78.380798 
L 591.283699 78.380798 
L 591.283699 80.979319 
L 591.884778 80.979319 
L 591.884778 78.051794 
L 592.485857 78.051794 
L 592.485857 76.535404 
L 593.086936 76.535404 
L 593.086936 77.86355 
L 594.289094 77.867319 
L 594.289094 76.765996 
L 594.890173 76.765996 
L 594.890173 77.124275 
L 595.491253 77.124275 
L 595.491253 75.584547 
L 596.092332 75.584547 
L 596.092332 73.295774 
L 596.693411 73.295774 
L 596.693411 72.706049 
L 597.29449 72.706049 
L 597.29449 70.695222 
L 597.895569 70.695222 
L 597.895569 72.868056 
L 598.496648 72.868056 
L 598.496648 71.607248 
L 599.097727 71.607248 
L 599.097727 71.341634 
L 599.698806 71.341634 
L 599.698806 73.059881 
L 600.299885 73.059881 
L 600.299885 71.21841 
L 600.900965 71.21841 
L 600.900965 69.928165 
L 601.502044 69.928165 
L 601.502044 71.104282 
L 602.103123 71.104282 
L 602.103123 70.790827 
L 602.704202 70.790827 
L 602.704202 71.42027 
L 603.90636 71.459926 
L 603.90636 71.82434 
L 605.108518 71.919577 
L 605.108518 72.040547 
L 605.709597 72.040547 
L 605.709597 72.288966 
L 606.310677 72.288966 
L 606.310677 71.886183 
L 607.512835 71.930206 
L 607.512835 72.022715 
L 608.714993 71.976571 
L 608.714993 71.126496 
L 609.316072 71.126496 
L 609.316072 68.342961 
L 609.917151 68.342961 
L 609.917151 67.802056 
L 610.51823 67.802056 
L 610.51823 68.068696 
L 611.11931 68.068696 
L 611.11931 67.06565 
L 611.720389 67.06565 
L 611.720389 67.400316 
L 612.321468 67.400316 
L 612.321468 66.817347 
L 613.523626 66.898736 
L 613.523626 67.071914 
L 614.124705 67.071914 
L 614.124705 67.466987 
L 614.725784 67.466987 
L 614.725784 66.801779 
L 615.326863 66.801779 
L 615.326863 70.016146 
L 615.927942 70.016146 
L 615.927942 69.881775 
L 616.529022 69.881775 
L 616.529022 69.680675 
L 617.130101 69.680675 
L 617.130101 68.52291 
L 617.73118 68.52291 
L 617.73118 69.487826 
L 618.332259 69.487826 
L 618.332259 68.988931 
L 618.933338 68.988931 
L 618.933338 68.712967 
L 619.534417 68.712967 
L 619.534417 69.255623 
L 620.135496 69.255623 
L 620.135496 69.030365 
L 620.736575 69.030365 
L 620.736575 67.744201 
L 621.337654 67.744201 
L 621.337654 67.521063 
L 621.938734 67.521063 
L 621.938734 67.081766 
L 622.539813 67.081766 
L 622.539813 65.151468 
L 623.140892 65.151468 
L 623.140892 64.083662 
L 623.741971 64.083662 
L 623.741971 63.851345 
L 624.34305 63.851345 
L 624.34305 63.355473 
L 624.944129 63.355473 
L 624.944129 61.545687 
L 625.545208 61.545687 
L 625.545208 60.52838 
L 626.146287 60.52838 
L 626.146287 60.005864 
L 626.747367 60.005864 
L 626.747367 57.778094 
L 627.348446 57.778094 
L 627.348446 57.263499 
L 627.949525 57.263499 
L 627.949525 58.8315 
L 628.550604 58.8315 
L 628.550604 57.20655 
L 629.151683 57.20655 
L 629.151683 57.049779 
L 629.752762 57.049779 
L 629.752762 58.256222 
L 630.353841 58.256222 
L 630.353841 57.154792 
L 630.95492 57.154792 
L 630.95492 53.477189 
L 631.555999 53.477189 
L 631.555999 52.900738 
L 632.157079 52.900738 
L 632.157079 50.806994 
L 632.758158 50.806994 
L 632.758158 49.05313 
L 633.359237 49.05313 
L 633.359237 46.35839 
L 633.960316 46.35839 
L 633.960316 42.755518 
L 634.561395 42.755518 
L 634.561395 44.867034 
L 635.162474 44.867034 
L 635.162474 44.154662 
L 635.763553 44.154662 
L 635.763553 44.600354 
L 636.364632 44.600354 
L 636.364632 46.914301 
L 636.965711 46.914301 
L 636.965711 47.994161 
L 637.566791 47.994161 
L 637.566791 46.275998 
L 638.16787 46.275998 
L 638.16787 44.060244 
L 638.768949 44.060244 
L 638.768949 39.530843 
L 639.370028 39.530843 
L 639.370028 39.056975 
L 639.971107 39.056975 
L 639.971107 38.355043 
L 640.572186 38.355043 
L 640.572186 35.738659 
L 641.173265 35.738659 
L 641.173265 37.76546 
L 641.774344 37.76546 
L 641.774344 40.079838 
L 642.375423 40.079838 
L 642.375423 38.647674 
L 642.976503 38.647674 
L 642.976503 37.111997 
L 643.577582 37.111997 
L 643.577582 35.294629 
L 644.178661 35.294629 
L 644.178661 35.428673 
L 644.77974 35.428673 
L 644.77974 35.004733 
L 645.380819 35.004733 
L 645.380819 37.031947 
L 645.981898 37.031947 
L 645.981898 35.816799 
L 646.582977 35.816799 
L 646.582977 34.780883 
L 647.785136 34.672737 
L 647.785136 34.998932 
L 648.386215 34.998932 
L 648.386215 33.197922 
L 648.987294 33.197922 
L 648.987294 34.32451 
L 649.588373 34.32451 
L 649.588373 36.54062 
L 650.189452 36.54062 
L 650.189452 38.389597 
L 650.790531 38.389597 
L 650.790531 36.624634 
L 651.39161 36.624634 
L 651.39161 35.308646 
L 652.593768 35.250138 
L 652.593768 35.471931 
L 653.194848 35.471931 
L 653.194848 39.370246 
L 653.795927 39.370246 
L 653.795927 44.08078 
L 654.397006 44.08078 
L 654.397006 45.31861 
L 654.998085 45.31861 
L 654.998085 43.291905 
L 655.599164 43.291905 
L 655.599164 43.893541 
L 656.200243 43.893541 
L 656.200243 44.123612 
L 656.801322 44.123612 
L 656.801322 46.086768 
L 657.402401 46.086768 
L 657.402401 44.895324 
L 658.00348 44.895324 
L 658.00348 43.354902 
L 658.60456 43.354902 
L 658.60456 44.840268 
L 659.205639 44.840268 
L 659.205639 45.38526 
L 660.407797 45.491461 
L 660.407797 45.844104 
L 661.008876 45.844104 
L 661.008876 45.635142 
L 661.609955 45.635142 
L 661.609955 46.047557 
L 662.211034 46.047557 
L 662.211034 46.471996 
L 662.812113 46.471996 
L 662.812113 47.113123 
L 663.413193 47.113123 
L 663.413193 46.790722 
L 664.014272 46.790722 
L 664.014272 43.889451 
L 664.615351 43.889451 
L 664.615351 41.413934 
L 665.21643 41.413934 
L 665.21643 43.453056 
L 665.817509 43.453056 
L 665.817509 40.294546 
L 666.418588 40.294546 
L 666.418588 39.859586 
L 667.019667 39.859586 
L 667.019667 39.233294 
L 667.620746 39.233294 
L 667.620746 39.371075 
L 668.221825 39.371075 
L 668.221825 38.207145 
L 668.822905 38.207145 
L 668.822905 38.397259 
L 669.423984 38.397259 
L 669.423984 39.190895 
L 670.025063 39.190895 
L 670.025063 38.035999 
L 670.626142 38.035999 
L 670.626142 39.655062 
L 671.8283 39.663458 
L 671.8283 38.924645 
L 672.429379 38.924645 
L 672.429379 41.08957 
L 673.631537 41.129865 
L 673.631537 41.994504 
L 674.232617 41.994504 
L 674.232617 38.949101 
L 674.833696 38.949101 
L 674.833696 35.975801 
L 675.434775 35.975801 
L 675.434775 36.238034 
L 676.035854 36.238034 
L 676.035854 35.244025 
L 676.636933 35.244025 
L 676.636933 33.704384 
L 677.238012 33.704384 
L 677.238012 34.121685 
L 677.839091 34.121685 
L 677.839091 34.238444 
L 678.44017 34.238444 
L 678.44017 33.782401 
L 679.041249 33.782401 
L 679.041249 33.388269 
L 680.243408 33.280629 
L 680.243408 32.79615 
L 680.844487 32.79615 
L 680.844487 33.188505 
L 681.445566 33.188505 
L 681.445566 34.988415 
L 682.046645 34.988415 
L 682.046645 35.180982 
L 682.647724 35.180982 
L 682.647724 36.173655 
L 683.248803 36.173655 
L 683.248803 35.30288 
L 683.849882 35.30288 
L 683.849882 38.265242 
L 684.450962 38.265242 
L 684.450962 38.977488 
L 685.052041 38.977488 
L 685.052041 39.361436 
L 685.65312 39.361436 
L 685.65312 39.613647 
L 686.254199 39.613647 
L 686.254199 38.44738 
L 686.855278 38.44738 
L 686.855278 37.82662 
L 687.456357 37.82662 
L 687.456357 39.511548 
L 688.057436 39.511548 
L 688.057436 39.117783 
L 688.658515 39.117783 
L 688.658515 40.98729 
L 689.259594 40.98729 
L 689.259594 41.58839 
L 689.860674 41.58839 
L 689.860674 40.997193 
L 690.461753 40.997193 
L 690.461753 41.334493 
L 691.062832 41.334493 
L 691.062832 45.136342 
L 691.663911 45.136342 
L 691.663911 44.1574 
L 692.26499 44.1574 
L 692.26499 43.568902 
L 692.866069 43.568902 
L 692.866069 44.011292 
L 693.467148 44.011292 
L 693.467148 40.657785 
L 694.068227 40.657785 
L 694.068227 41.325119 
L 694.669306 41.325119 
L 694.669306 40.338654 
L 695.270386 40.338654 
L 695.270386 42.438149 
L 695.871465 42.438149 
L 695.871465 43.903802 
L 696.472544 43.903802 
L 696.472544 43.682586 
L 697.073623 43.682586 
L 697.073623 41.295243 
L 697.674702 41.295243 
L 697.674702 43.508683 
L 698.275781 43.508683 
L 698.275781 43.138017 
L 698.87686 43.138017 
L 698.87686 42.839719 
L 699.477939 42.839719 
L 699.477939 41.410048 
L 700.079019 41.410048 
L 700.079019 41.087932 
L 700.680098 41.087932 
L 700.680098 39.317917 
L 701.281177 39.317917 
L 701.281177 39.891416 
L 701.882256 39.891416 
L 701.882256 39.424164 
L 702.483335 39.424164 
L 702.483335 41.383137 
L 703.084414 41.383137 
L 703.084414 42.444582 
L 703.685493 42.444582 
L 703.685493 42.301588 
L 704.286572 42.301588 
L 704.286572 41.816752 
L 704.887651 41.816752 
L 704.887651 42.765931 
L 705.488731 42.765931 
L 705.488731 42.611604 
L 706.08981 42.611604 
L 706.08981 43.257794 
L 706.690889 43.257794 
L 706.690889 44.604313 
L 707.291968 44.604313 
L 707.291968 47.611797 
L 707.893047 47.611797 
L 707.893047 48.222919 
L 708.494126 48.222919 
L 708.494126 49.175716 
L 709.095205 49.175716 
L 709.095205 48.086947 
L 709.696284 48.086947 
L 709.696284 48.819746 
L 710.297363 48.819746 
L 710.297363 47.156075 
L 710.898443 47.156075 
L 710.898443 48.486957 
L 711.499522 48.486957 
L 711.499522 47.53816 
L 712.100601 47.53816 
L 712.100601 49.41269 
L 712.70168 49.41269 
L 712.70168 54.004494 
L 713.302759 54.004494 
L 713.302759 55.879616 
L 713.903838 55.879616 
L 713.903838 55.350967 
L 714.504917 55.350967 
L 714.504917 55.722005 
L 715.105996 55.722005 
L 715.105996 57.206832 
L 715.707076 57.206832 
L 715.707076 56.233165 
L 716.308155 56.233165 
L 716.308155 54.885707 
L 716.909234 54.885707 
L 716.909234 56.191636 
L 717.510313 56.191636 
L 717.510313 55.652286 
L 718.111392 55.652286 
L 718.111392 53.474326 
L 718.712471 53.474326 
L 718.712471 55.149704 
L 719.31355 55.149704 
L 719.31355 52.928563 
L 719.914629 52.928563 
L 719.914629 53.624335 
L 721.116788 53.654573 
L 721.116788 52.787332 
L 721.717867 52.787332 
L 721.717867 52.492009 
L 722.318946 52.492009 
L 722.318946 53.439752 
L 722.920025 53.439752 
L 722.920025 55.053577 
L 723.521104 55.053577 
L 723.521104 56.182077 
L 724.122183 56.182077 
L 724.122183 56.623889 
L 725.324341 56.581404 
L 725.324341 57.151157 
L 725.92542 57.151157 
L 725.92542 54.689492 
L 726.5265 54.689492 
L 726.5265 56.723899 
L 727.127579 56.723899 
L 727.127579 56.879986 
L 727.728658 56.879986 
L 727.728658 57.150636 
L 728.329737 57.150636 
L 728.329737 57.33446 
L 728.930816 57.33446 
L 728.930816 57.115141 
L 729.531895 57.115141 
L 729.531895 56.247219 
L 730.132974 56.247219 
L 730.132974 56.983338 
L 731.936212 56.87303 
L 731.936212 57.264735 
L 732.537291 57.264735 
L 732.537291 56.313563 
L 733.13837 56.313563 
L 733.13837 55.611796 
L 733.739449 55.611796 
L 733.739449 56.260965 
L 734.340528 56.260965 
L 734.340528 55.511555 
L 734.941607 55.511555 
L 734.941607 59.038889 
L 735.542686 59.038889 
L 735.542686 60.171261 
L 736.143765 60.171261 
L 736.143765 60.056271 
L 736.744845 60.056271 
L 736.744845 60.653007 
L 737.345924 60.653007 
L 737.345924 60.334736 
L 737.947003 60.334736 
L 737.947003 59.478008 
L 740.351319 59.435658 
L 740.351319 60.111258 
L 740.952398 60.111258 
L 740.952398 59.791507 
L 742.154557 59.870706 
L 742.154557 60.230279 
L 743.356715 60.140113 
L 743.356715 59.884653 
L 743.957794 59.884653 
L 743.957794 59.452938 
L 744.558873 59.452938 
L 744.558873 56.482009 
L 745.159952 56.482009 
L 745.159952 55.296877 
L 745.761031 55.296877 
L 745.761031 53.80803 
L 746.36211 53.80803 
L 746.36211 53.530214 
L 746.963189 53.530214 
L 746.963189 52.959098 
L 747.564269 52.959098 
L 747.564269 53.215539 
L 748.165348 53.215539 
L 748.165348 53.815756 
L 748.766427 53.815756 
L 748.766427 54.833717 
L 749.367506 54.833717 
L 749.367506 54.308651 
L 749.968585 54.308651 
L 749.968585 52.223706 
L 750.569664 52.223706 
L 750.569664 52.599014 
L 751.170743 52.599014 
L 751.170743 53.122688 
L 752.372902 53.204455 
L 752.372902 54.129703 
L 752.973981 54.129703 
L 752.973981 56.190485 
L 753.57506 56.190485 
L 753.57506 52.121678 
L 754.176139 52.121678 
L 754.176139 50.406866 
L 754.777218 50.406866 
L 754.777218 50.162013 
L 755.378297 50.162013 
L 755.378297 49.658367 
L 756.580455 49.634556 
L 756.580455 49.800592 
L 757.782614 49.711717 
L 757.782614 48.116123 
L 758.984772 48.060185 
L 758.984772 49.071942 
L 759.585851 49.071942 
L 759.585851 49.95407 
L 760.18693 49.95407 
L 760.18693 48.623685 
L 760.788009 48.623685 
L 760.788009 49.596204 
L 761.389088 49.596204 
L 761.389088 48.586235 
L 761.990167 48.586235 
L 761.990167 49.918046 
L 762.591246 49.918046 
L 762.591246 50.548395 
L 763.192326 50.548395 
L 763.192326 50.094507 
L 763.793405 50.094507 
L 763.793405 50.570425 
L 764.394484 50.570425 
L 764.394484 50.78113 
L 764.995563 50.78113 
L 764.995563 49.842217 
L 765.596642 49.842217 
L 765.596642 50.202052 
L 766.7988 50.208161 
L 766.7988 51.260419 
L 767.399879 51.260419 
L 767.399879 51.832232 
L 768.000958 51.832232 
L 768.000958 50.887751 
L 768.602038 50.887751 
L 768.602038 48.337343 
L 769.203117 48.337343 
L 769.203117 48.095066 
L 769.804196 48.095066 
L 769.804196 47.959645 
L 770.405275 47.959645 
L 770.405275 47.760709 
L 771.006354 47.760709 
L 771.006354 48.129696 
L 771.607433 48.129696 
L 771.607433 48.012343 
L 772.809591 48.112603 
L 772.809591 48.405578 
L 773.410671 48.405578 
L 773.410671 48.830411 
L 774.612829 48.735866 
L 774.612829 48.485705 
L 775.213908 48.485705 
L 775.213908 48.920362 
L 775.814987 48.920362 
L 775.814987 48.565549 
L 776.416066 48.565549 
L 776.416066 48.757989 
L 777.017145 48.757989 
L 777.017145 50.641489 
L 777.618224 50.641489 
L 777.618224 51.051332 
L 778.820383 51.108289 
L 778.820383 49.85194 
L 779.421462 49.85194 
L 779.421462 51.247786 
L 781.224699 51.27596 
L 781.224699 50.736637 
L 781.825778 50.736637 
L 781.825778 50.56503 
L 782.426857 50.56503 
L 782.426857 50.701977 
L 783.027936 50.701977 
L 783.027936 50.982719 
L 783.629015 50.982719 
L 783.629015 50.410559 
L 784.230095 50.410559 
L 784.230095 49.803966 
L 785.432253 49.703356 
L 785.432253 50.568857 
L 786.033332 50.568857 
L 786.033332 49.290625 
L 786.634411 49.290625 
L 786.634411 48.486389 
L 787.23549 48.486389 
L 787.23549 45.816964 
L 788.437648 45.705898 
L 788.437648 44.926119 
L 789.038728 44.926119 
L 789.038728 45.149561 
L 789.639807 45.149561 
L 789.639807 44.226914 
L 791.443044 44.266325 
L 791.443044 44.718433 
L 792.044123 44.718433 
L 792.044123 43.63132 
L 793.246281 43.596061 
L 793.246281 42.507856 
L 793.84736 42.507856 
L 793.84736 40.904534 
L 794.44844 40.904534 
L 794.44844 41.883587 
L 795.049519 41.883587 
L 795.049519 41.547305 
L 795.650598 41.547305 
L 795.650598 41.39089 
L 796.251677 41.39089 
L 796.251677 40.699834 
L 796.852756 40.699834 
L 796.852756 40.824894 
L 797.453835 40.824894 
L 797.453835 41.397035 
L 798.054914 41.397035 
L 798.054914 40.495318 
L 798.655993 40.495318 
L 798.655993 39.269169 
L 799.257072 39.269169 
L 799.257072 41.11654 
L 799.858152 41.11654 
L 799.858152 40.981809 
L 800.459231 40.981809 
L 800.459231 41.679576 
L 801.06031 41.679576 
L 801.06031 42.46147 
L 801.661389 42.46147 
L 801.661389 41.501338 
L 802.262468 41.501338 
L 802.262468 41.015004 
L 802.863547 41.015004 
L 802.863547 41.206116 
L 803.464626 41.206116 
L 803.464626 39.19998 
L 804.065705 39.19998 
L 804.065705 38.119856 
L 804.666785 38.119856 
L 804.666785 37.349139 
L 806.470022 37.332668 
L 806.470022 33.965006 
L 807.071101 33.965006 
L 807.071101 31.729 
L 808.273259 31.749795 
L 808.273259 30.835384 
L 808.874338 30.835384 
L 808.874338 32.652693 
L 809.475417 32.652693 
L 809.475417 31.882442 
L 810.076497 31.882442 
L 810.076497 32.070004 
L 810.677576 32.070004 
L 810.677576 31.042778 
L 811.278655 31.042778 
L 811.278655 31.343992 
L 811.879734 31.343992 
L 811.879734 31.882371 
L 812.480813 31.882371 
L 812.480813 31.50585 
L 813.081892 31.50585 
L 813.081892 33.051438 
L 813.682971 33.051438 
L 813.682971 33.929578 
L 814.28405 33.929578 
L 814.28405 32.761808 
L 814.885129 32.761808 
L 814.885129 32.905626 
L 815.486209 32.905626 
L 815.486209 33.110187 
L 816.087288 33.110187 
L 816.087288 33.410479 
L 816.688367 33.410479 
L 816.688367 33.590713 
L 817.289446 33.590713 
L 817.289446 34.085748 
L 817.890525 34.085748 
L 817.890525 32.367076 
L 819.092683 32.358911 
L 819.092683 31.857289 
L 819.693762 31.857289 
L 819.693762 31.438461 
L 820.294841 31.438461 
L 820.294841 31.992906 
L 820.895921 31.992906 
L 820.895921 31.100034 
L 821.497 31.100034 
L 821.497 31.460542 
L 822.098079 31.460542 
L 822.098079 31.769534 
L 822.699158 31.769534 
L 822.699158 32.246864 
L 823.300237 32.246864 
L 823.300237 32.798789 
L 823.901316 32.798789 
L 823.901316 34.260296 
L 825.103474 34.248263 
L 825.103474 33.68599 
L 825.704554 33.68599 
L 825.704554 34.94279 
L 826.305633 34.94279 
L 826.305633 35.123556 
L 826.906712 35.123556 
L 826.906712 34.088265 
L 827.507791 34.088265 
L 827.507791 33.067483 
L 828.10887 33.067483 
L 828.10887 31.959509 
L 829.311028 31.86538 
L 829.311028 32.38501 
L 829.912107 32.38501 
L 829.912107 34.128429 
L 830.513186 34.128429 
L 830.513186 36.088704 
L 831.114266 36.088704 
L 831.114266 34.787695 
L 831.715345 34.787695 
L 831.715345 35.200085 
L 832.316424 35.200085 
L 832.316424 34.529812 
L 832.917503 34.529812 
L 832.917503 33.031903 
L 833.518582 33.031903 
L 833.518582 34.532881 
L 834.119661 34.532881 
L 834.119661 34.701726 
L 834.72074 34.701726 
L 834.72074 35.045918 
L 835.321819 35.045918 
L 835.321819 36.153138 
L 835.922898 36.153138 
L 835.922898 34.987212 
L 837.125057 34.967023 
L 837.125057 33.306037 
L 837.726136 33.306037 
L 837.726136 32.970268 
L 838.327215 32.970268 
L 838.327215 32.473656 
L 838.928294 32.473656 
L 838.928294 34.140747 
L 839.529373 34.140747 
L 839.529373 33.432953 
L 840.130452 33.432953 
L 840.130452 34.263727 
L 840.731531 34.263727 
L 840.731531 32.424933 
L 841.332611 32.424933 
L 841.332611 31.714753 
L 841.93369 31.714753 
L 841.93369 32.027671 
L 843.135848 32.132097 
L 843.135848 30.600625 
L 843.736927 30.600625 
L 843.736927 31.621643 
L 844.338006 31.621643 
L 844.338006 29.626168 
L 844.939085 29.626168 
L 844.939085 26.499155 
L 845.540164 26.499155 
L 845.540164 25.975605 
L 846.141243 25.975605 
L 846.141243 25.689606 
L 846.742323 25.689606 
L 846.742323 24.547144 
L 847.343402 24.547144 
L 847.343402 24.924442 
L 847.944481 24.924442 
L 847.944481 24.650781 
L 849.747718 24.611198 
L 849.747718 23.803137 
L 850.348797 23.803137 
L 850.348797 22.896055 
L 850.949876 22.896055 
L 850.949876 24.660503 
L 851.550955 24.660503 
L 851.550955 24.23673 
L 852.152035 24.23673 
L 852.152035 25.437498 
L 852.753114 25.437498 
L 852.753114 24.737671 
L 853.354193 24.737671 
L 853.354193 23.648225 
L 853.955272 23.648225 
L 853.955272 25.188669 
L 854.556351 25.188669 
L 854.556351 24.805478 
L 855.15743 24.805478 
L 855.15743 23.2293 
L 855.758509 23.2293 
L 855.758509 23.378299 
L 856.359588 23.378299 
L 856.359588 23.581698 
L 856.960667 23.581698 
L 856.960667 23.164957 
L 857.561747 23.164957 
L 857.561747 23.813584 
L 858.162826 23.813584 
L 858.162826 24.802658 
L 858.763905 24.802658 
L 858.763905 24.967386 
L 859.364984 24.967386 
L 859.364984 24.584829 
L 859.966063 24.584829 
L 859.966063 24.781434 
L 861.168221 24.858045 
L 861.168221 27.443092 
L 861.7693 27.443092 
L 861.7693 27.105294 
L 862.37038 27.105294 
L 862.37038 26.951053 
L 862.971459 26.951053 
L 862.971459 27.871462 
L 863.572538 27.871462 
L 863.572538 27.515877 
L 864.173617 27.515877 
L 864.173617 26.922817 
L 864.774696 26.922817 
L 864.774696 27.111059 
L 865.375775 27.111059 
L 865.375775 26.848935 
L 865.976854 26.848935 
L 865.976854 27.951152 
L 866.577933 27.951152 
L 866.577933 27.634706 
L 867.179012 27.634706 
L 867.179012 29.536377 
L 867.780092 29.536377 
L 867.780092 27.292441 
L 868.381171 27.292441 
L 868.381171 27.588873 
L 868.98225 27.588873 
L 868.98225 27.318508 
L 869.583329 27.318508 
L 869.583329 25.344464 
L 870.184408 25.344464 
L 870.184408 25.126099 
L 870.785487 25.126099 
L 870.785487 24.722463 
L 871.987645 24.744979 
L 871.987645 23.160682 
L 872.588724 23.160682 
L 872.588724 23.394744 
L 873.189804 23.394744 
L 873.189804 22.84528 
L 873.790883 22.84528 
L 873.790883 21.869799 
L 874.391962 21.869799 
L 874.391962 22.27667 
L 874.993041 22.27667 
L 874.993041 23.302755 
L 875.59412 23.302755 
L 875.59412 23.033011 
L 876.796278 22.995231 
L 876.796278 22.422615 
L 877.397357 22.422615 
L 877.397357 23.009364 
L 877.998437 23.009364 
L 877.998437 23.177159 
L 878.599516 23.177159 
L 878.599516 23.043331 
L 879.200595 23.043331 
L 879.200595 22.716336 
L 879.801674 22.716336 
L 879.801674 22.981392 
L 880.402753 22.981392 
L 880.402753 22.505073 
L 881.003832 22.505073 
L 881.003832 21.944877 
L 881.604911 21.944877 
L 881.604911 20.586427 
L 882.807069 20.555853 
L 882.807069 20.866345 
L 884.610307 20.784653 
L 884.610307 21.726605 
L 885.211386 21.726605 
L 885.211386 21.284847 
L 885.812465 21.284847 
L 885.812465 20.552727 
L 886.413544 20.552727 
L 886.413544 20.706075 
L 887.194182 20.796486 
L 887.194182 20.796486 
" clip-path="url(#p920c9c8e66)" style="fill: none; stroke: #3572c6; stroke-width: 1.2; stroke-linecap: square"/>
   </g>
   <g id="line2d_79">
    <path d="M 75.557818 20.552727 
L 887.194182 20.552727 
L 887.194182 20.552727 
" clip-path="url(#p920c9c8e66)" style="fill: none; stroke: #83a83b; stroke-width: 1.2; stroke-linecap: square"/>
   </g>
   <g id="line2d_80">
    <path d="M 75.557818 20.796486 
L 887.194182 20.796486 
L 887.194182 20.796486 
" clip-path="url(#p920c9c8e66)" style="fill: none; stroke: #c44e52; stroke-width: 1.2; stroke-linecap: square"/>
   </g>
   <g id="line2d_81">
    <path d="M 886.413544 300.96 
L 886.413544 7.2 
" clip-path="url(#p920c9c8e66)" style="fill: none; stroke: #83a83b; stroke-width: 1.2; stroke-linecap: square"/>
   </g>
   <g id="line2d_82">
    <path d="M 887.194182 300.96 
L 887.194182 7.2 
" clip-path="url(#p920c9c8e66)" style="fill: none; stroke: #c44e52; stroke-width: 1.2; stroke-linecap: square"/>
   </g>
   <g id="patch_3">
    <path d="M 34.976 300.96 
L 34.976 7.2 
" style="fill: none; stroke: #899ab8; stroke-width: 1.12; stroke-linejoin: miter; stroke-linecap: square"/>
   </g>
   <g id="patch_4">
    <path d="M 927.776 300.96 
L 927.776 7.2 
" style="fill: none; stroke: #899ab8; stroke-width: 1.12; stroke-linejoin: miter; stroke-linecap: square"/>
   </g>
   <g id="patch_5">
    <path d="M 34.976 300.96 
L 927.776 300.96 
" style="fill: none; stroke: #899ab8; stroke-width: 1.12; stroke-linejoin: miter; stroke-linecap: square"/>
   </g>
   <g id="patch_6">
    <path d="M 34.976 7.2 
L 927.776 7.2 
" style="fill: none; stroke: #899ab8; stroke-width: 1.12; stroke-linejoin: miter; stroke-linecap: square"/>
   </g>
   <g id="text_16">
    <!-- 119295.42 -->
    <g style="fill: #83a83b" transform="translate(185.254757 20.552727) scale(0.132 -0.132)">
     <defs>
      <path id="DejaVuSans-39" d="M 703 97 
L 703 672 
Q 941 559 1184 500 
Q 1428 441 1663 441 
Q 2288 441 2617 861 
Q 2947 1281 2994 2138 
Q 2813 1869 2534 1725 
Q 2256 1581 1919 1581 
Q 1219 1581 811 2004 
Q 403 2428 403 3163 
Q 403 3881 828 4315 
Q 1253 4750 1959 4750 
Q 2769 4750 3195 4129 
Q 3622 3509 3622 2328 
Q 3622 1225 3098 567 
Q 2575 -91 1691 -91 
Q 1453 -91 1209 -44 
Q 966 3 703 97 
z
M 1959 2075 
Q 2384 2075 2632 2365 
Q 2881 2656 2881 3163 
Q 2881 3666 2632 3958 
Q 2384 4250 1959 4250 
Q 1534 4250 1286 3958 
Q 1038 3666 1038 3163 
Q 1038 2656 1286 2365 
Q 1534 2075 1959 2075 
z
" transform="scale(0.015625)"/>
      <path id="DejaVuSans-2e" d="M 684 794 
L 1344 794 
L 1344 0 
L 684 0 
L 684 794 
z
" transform="scale(0.015625)"/>
     </defs>
     <use xlink:href="#DejaVuSans-31"/>
     <use xlink:href="#DejaVuSans-31" transform="translate(63.623047 0)"/>
     <use xlink:href="#DejaVuSans-39" transform="translate(127.246094 0)"/>
     <use xlink:href="#DejaVuSans-32" transform="translate(190.869141 0)"/>
     <use xlink:href="#DejaVuSans-39" transform="translate(254.492188 0)"/>
     <use xlink:href="#DejaVuSans-35" transform="translate(318.115234 0)"/>
     <use xlink:href="#DejaVuSans-2e" transform="translate(381.738281 0)"/>
     <use xlink:href="#DejaVuSans-34" transform="translate(413.525391 0)"/>
     <use xlink:href="#DejaVuSans-32" transform="translate(477.148438 0)"/>
    </g>
   </g>
   <g id="text_17">
    <!-- 117856.079391175 -->
    <g style="fill: #c44e52" transform="translate(185.254757 20.796486) scale(0.132 -0.132)">
     <defs>
      <path id="DejaVuSans-37" d="M 525 4666 
L 3525 4666 
L 3525 4397 
L 1831 0 
L 1172 0 
L 2766 4134 
L 525 4134 
L 525 4666 
z
" transform="scale(0.015625)"/>
     </defs>
     <use xlink:href="#DejaVuSans-31"/>
     <use xlink:href="#DejaVuSans-31" transform="translate(63.623047 0)"/>
     <use xlink:href="#DejaVuSans-37" transform="translate(127.246094 0)"/>
     <use xlink:href="#DejaVuSans-38" transform="translate(190.869141 0)"/>
     <use xlink:href="#DejaVuSans-35" transform="translate(254.492188 0)"/>
     <use xlink:href="#DejaVuSans-36" transform="translate(318.115234 0)"/>
     <use xlink:href="#DejaVuSans-2e" transform="translate(381.738281 0)"/>
     <use xlink:href="#DejaVuSans-30" transform="translate(413.525391 0)"/>
     <use xlink:href="#DejaVuSans-37" transform="translate(477.148438 0)"/>
     <use xlink:href="#DejaVuSans-39" transform="translate(540.771484 0)"/>
     <use xlink:href="#DejaVuSans-33" transform="translate(604.394531 0)"/>
     <use xlink:href="#DejaVuSans-39" transform="translate(668.017578 0)"/>
     <use xlink:href="#DejaVuSans-31" transform="translate(731.640625 0)"/>
     <use xlink:href="#DejaVuSans-31" transform="translate(795.263672 0)"/>
     <use xlink:href="#DejaVuSans-37" transform="translate(858.886719 0)"/>
     <use xlink:href="#DejaVuSans-35" transform="translate(922.509766 0)"/>
    </g>
   </g>
   <g id="legend_1">
    <g id="patch_7">
     <path d="M 43.796 183.886875 
L 142.133094 183.886875 
Q 144.653094 183.886875 144.653094 181.366875 
L 144.653094 126.793125 
Q 144.653094 124.273125 142.133094 124.273125 
L 43.796 124.273125 
Q 41.276 124.273125 41.276 126.793125 
L 41.276 181.366875 
Q 41.276 183.886875 43.796 183.886875 
z
" style="fill: #373e4b; opacity: 0.8; stroke: #cccccc; stroke-width: 0.16; stroke-linejoin: miter"/>
    </g>
    <g id="line2d_83">
     <path d="M 46.316 134.477156 
L 46.316 134.477156 
L 58.916 134.477156 
L 58.916 134.477156 
L 71.516 134.477156 
" style="fill: none; stroke: #3572c6; stroke-width: 1.2; stroke-linecap: square"/>
    </g>
    <g id="text_18">
     <!-- USD/BTC -->
     <g style="fill: #b1bed6" transform="translate(81.596 138.887156) scale(0.126 -0.126)">
      <defs>
       <path id="DejaVuSans-55" d="M 556 4666 
L 1191 4666 
L 1191 1831 
Q 1191 1081 1462 751 
Q 1734 422 2344 422 
Q 2950 422 3222 751 
Q 3494 1081 3494 1831 
L 3494 4666 
L 4128 4666 
L 4128 1753 
Q 4128 841 3676 375 
Q 3225 -91 2344 -91 
Q 1459 -91 1007 375 
Q 556 841 556 1753 
L 556 4666 
z
" transform="scale(0.015625)"/>
       <path id="DejaVuSans-53" d="M 3425 4513 
L 3425 3897 
Q 3066 4069 2747 4153 
Q 2428 4238 2131 4238 
Q 1616 4238 1336 4038 
Q 1056 3838 1056 3469 
Q 1056 3159 1242 3001 
Q 1428 2844 1947 2747 
L 2328 2669 
Q 3034 2534 3370 2195 
Q 3706 1856 3706 1288 
Q 3706 609 3251 259 
Q 2797 -91 1919 -91 
Q 1588 -91 1214 -16 
Q 841 59 441 206 
L 441 856 
Q 825 641 1194 531 
Q 1563 422 1919 422 
Q 2459 422 2753 634 
Q 3047 847 3047 1241 
Q 3047 1584 2836 1778 
Q 2625 1972 2144 2069 
L 1759 2144 
Q 1053 2284 737 2584 
Q 422 2884 422 3419 
Q 422 4038 858 4394 
Q 1294 4750 2059 4750 
Q 2388 4750 2728 4690 
Q 3069 4631 3425 4513 
z
" transform="scale(0.015625)"/>
       <path id="DejaVuSans-2f" d="M 1625 4666 
L 2156 4666 
L 531 -594 
L 0 -594 
L 1625 4666 
z
" transform="scale(0.015625)"/>
       <path id="DejaVuSans-42" d="M 1259 2228 
L 1259 519 
L 2272 519 
Q 2781 519 3026 730 
Q 3272 941 3272 1375 
Q 3272 1813 3026 2020 
Q 2781 2228 2272 2228 
L 1259 2228 
z
M 1259 4147 
L 1259 2741 
L 2194 2741 
Q 2656 2741 2882 2914 
Q 3109 3088 3109 3444 
Q 3109 3797 2882 3972 
Q 2656 4147 2194 4147 
L 1259 4147 
z
M 628 4666 
L 2241 4666 
Q 2963 4666 3353 4366 
Q 3744 4066 3744 3513 
Q 3744 3084 3544 2831 
Q 3344 2578 2956 2516 
Q 3422 2416 3680 2098 
Q 3938 1781 3938 1306 
Q 3938 681 3513 340 
Q 3088 0 2303 0 
L 628 0 
L 628 4666 
z
" transform="scale(0.015625)"/>
       <path id="DejaVuSans-54" d="M -19 4666 
L 3928 4666 
L 3928 4134 
L 2272 4134 
L 2272 0 
L 1638 0 
L 1638 4134 
L -19 4134 
L -19 4666 
z
" transform="scale(0.015625)"/>
       <path id="DejaVuSans-43" d="M 4122 4306 
L 4122 3641 
Q 3803 3938 3442 4084 
Q 3081 4231 2675 4231 
Q 1875 4231 1450 3742 
Q 1025 3253 1025 2328 
Q 1025 1406 1450 917 
Q 1875 428 2675 428 
Q 3081 428 3442 575 
Q 3803 722 4122 1019 
L 4122 359 
Q 3791 134 3420 21 
Q 3050 -91 2638 -91 
Q 1578 -91 968 557 
Q 359 1206 359 2328 
Q 359 3453 968 4101 
Q 1578 4750 2638 4750 
Q 3056 4750 3426 4639 
Q 3797 4528 4122 4306 
z
" transform="scale(0.015625)"/>
      </defs>
      <use xlink:href="#DejaVuSans-55"/>
      <use xlink:href="#DejaVuSans-53" transform="translate(73.193359 0)"/>
      <use xlink:href="#DejaVuSans-44" transform="translate(136.669922 0)"/>
      <use xlink:href="#DejaVuSans-2f" transform="translate(213.671875 0)"/>
      <use xlink:href="#DejaVuSans-42" transform="translate(247.363281 0)"/>
      <use xlink:href="#DejaVuSans-54" transform="translate(315.966797 0)"/>
      <use xlink:href="#DejaVuSans-43" transform="translate(371.175781 0)"/>
     </g>
    </g>
    <g id="line2d_84">
     <path d="M 46.316 152.971594 
L 46.316 152.971594 
L 58.916 152.971594 
L 58.916 152.971594 
L 71.516 152.971594 
" style="fill: none; stroke: #83a83b; stroke-width: 1.2; stroke-linecap: square"/>
    </g>
    <g id="text_19">
     <!-- Max -->
     <g style="fill: #b1bed6" transform="translate(81.596 157.381594) scale(0.126 -0.126)">
      <defs>
       <path id="DejaVuSans-4d" d="M 628 4666 
L 1569 4666 
L 2759 1491 
L 3956 4666 
L 4897 4666 
L 4897 0 
L 4281 0 
L 4281 4097 
L 3078 897 
L 2444 897 
L 1241 4097 
L 1241 0 
L 628 0 
L 628 4666 
z
" transform="scale(0.015625)"/>
       <path id="DejaVuSans-78" d="M 3513 3500 
L 2247 1797 
L 3578 0 
L 2900 0 
L 1881 1375 
L 863 0 
L 184 0 
L 1544 1831 
L 300 3500 
L 978 3500 
L 1906 2253 
L 2834 3500 
L 3513 3500 
z
" transform="scale(0.015625)"/>
      </defs>
      <use xlink:href="#DejaVuSans-4d"/>
      <use xlink:href="#DejaVuSans-61" transform="translate(86.279297 0)"/>
      <use xlink:href="#DejaVuSans-78" transform="translate(147.558594 0)"/>
     </g>
    </g>
    <g id="line2d_85">
     <path d="M 46.316 171.466031 
L 46.316 171.466031 
L 58.916 171.466031 
L 58.916 171.466031 
L 71.516 171.466031 
" style="fill: none; stroke: #c44e52; stroke-width: 1.2; stroke-linecap: square"/>
    </g>
    <g id="text_20">
     <!-- local_Min -->
     <g style="fill: #b1bed6" transform="translate(81.596 175.876031) scale(0.126 -0.126)">
      <defs>
       <path id="DejaVuSans-6c" d="M 603 4863 
L 1178 4863 
L 1178 0 
L 603 0 
L 603 4863 
z
" transform="scale(0.015625)"/>
       <path id="DejaVuSans-6f" d="M 1959 3097 
Q 1497 3097 1228 2736 
Q 959 2375 959 1747 
Q 959 1119 1226 758 
Q 1494 397 1959 397 
Q 2419 397 2687 759 
Q 2956 1122 2956 1747 
Q 2956 2369 2687 2733 
Q 2419 3097 1959 3097 
z
M 1959 3584 
Q 2709 3584 3137 3096 
Q 3566 2609 3566 1747 
Q 3566 888 3137 398 
Q 2709 -91 1959 -91 
Q 1206 -91 779 398 
Q 353 888 353 1747 
Q 353 2609 779 3096 
Q 1206 3584 1959 3584 
z
" transform="scale(0.015625)"/>
       <path id="DejaVuSans-63" d="M 3122 3366 
L 3122 2828 
Q 2878 2963 2633 3030 
Q 2388 3097 2138 3097 
Q 1578 3097 1268 2742 
Q 959 2388 959 1747 
Q 959 1106 1268 751 
Q 1578 397 2138 397 
Q 2388 397 2633 464 
Q 2878 531 3122 666 
L 3122 134 
Q 2881 22 2623 -34 
Q 2366 -91 2075 -91 
Q 1284 -91 818 406 
Q 353 903 353 1747 
Q 353 2603 823 3093 
Q 1294 3584 2113 3584 
Q 2378 3584 2631 3529 
Q 2884 3475 3122 3366 
z
" transform="scale(0.015625)"/>
       <path id="DejaVuSans-5f" d="M 3263 -1063 
L 3263 -1509 
L -63 -1509 
L -63 -1063 
L 3263 -1063 
z
" transform="scale(0.015625)"/>
       <path id="DejaVuSans-69" d="M 603 3500 
L 1178 3500 
L 1178 0 
L 603 0 
L 603 3500 
z
M 603 4863 
L 1178 4863 
L 1178 4134 
L 603 4134 
L 603 4863 
z
" transform="scale(0.015625)"/>
       <path id="DejaVuSans-6e" d="M 3513 2113 
L 3513 0 
L 2938 0 
L 2938 2094 
Q 2938 2591 2744 2837 
Q 2550 3084 2163 3084 
Q 1697 3084 1428 2787 
Q 1159 2491 1159 1978 
L 1159 0 
L 581 0 
L 581 3500 
L 1159 3500 
L 1159 2956 
Q 1366 3272 1645 3428 
Q 1925 3584 2291 3584 
Q 2894 3584 3203 3211 
Q 3513 2838 3513 2113 
z
" transform="scale(0.015625)"/>
      </defs>
      <use xlink:href="#DejaVuSans-6c"/>
      <use xlink:href="#DejaVuSans-6f" transform="translate(27.783203 0)"/>
      <use xlink:href="#DejaVuSans-63" transform="translate(88.964844 0)"/>
      <use xlink:href="#DejaVuSans-61" transform="translate(143.945312 0)"/>
      <use xlink:href="#DejaVuSans-6c" transform="translate(205.224609 0)"/>
      <use xlink:href="#DejaVuSans-5f" transform="translate(233.007812 0)"/>
      <use xlink:href="#DejaVuSans-4d" transform="translate(283.007812 0)"/>
      <use xlink:href="#DejaVuSans-69" transform="translate(369.287109 0)"/>
      <use xlink:href="#DejaVuSans-6e" transform="translate(397.070312 0)"/>
     </g>
    </g>
   </g>
  </g>
 </g>
 <defs>
  <clipPath id="p920c9c8e66">
   <rect x="34.976" y="7.2" width="892.8" height="293.76"/>
  </clipPath>
 </defs>
</svg>
