<?xml version="1.0" encoding="utf-8" standalone="no"?>
<!DOCTYPE svg PUBLIC "-//W3C//DTD SVG 1.1//EN"
  "http://www.w3.org/Graphics/SVG/1.1/DTD/svg11.dtd">
<svg xmlns:xlink="http://www.w3.org/1999/xlink" width="934.976pt" height="358.290693pt" viewBox="0 0 934.976 358.290693" xmlns="http://www.w3.org/2000/svg" version="1.1">
 <metadata>
  <rdf:RDF xmlns:dc="http://purl.org/dc/elements/1.1/" xmlns:cc="http://creativecommons.org/ns#" xmlns:rdf="http://www.w3.org/1999/02/22-rdf-syntax-ns#">
   <cc:Work>
    <dc:type rdf:resource="http://purl.org/dc/dcmitype/StillImage"/>
    <dc:date>2025-09-02T22:41:15.833040</dc:date>
    <dc:format>image/svg+xml</dc:format>
    <dc:creator>
     <cc:Agent>
      <dc:title>Matplotlib v3.10.6, https://matplotlib.org/</dc:title>
     </cc:Agent>
    </dc:creator>
   </cc:Work>
  </rdf:RDF>
 </metadata>
 <defs>
  <style type="text/css">*{stroke-linejoin: round; stroke-linecap: butt}</style>
 </defs>
 <g id="figure_1">
  <g id="patch_1">
   <path d="M 0 358.290693 
L 934.976 358.290693 
L 934.976 0 
L 0 0 
z
" style="fill: #373e4b"/>
  </g>
  <g id="axes_1">
   <g id="patch_2">
    <path d="M 34.976 300.96 
L 927.776 300.96 
L 927.776 7.2 
L 34.976 7.2 
z
" style="fill: #373e4b"/>
   </g>
   <g id="matplotlib.axis_1">
    <g id="xtick_1">
     <g id="line2d_1">
      <path d="M 139.213278 300.96 
L 139.213278 7.2 
" clip-path="url(#pb7bac9b6ac)" style="fill: none; stroke: #546379; stroke-width: 1.12; stroke-linecap: square"/>
     </g>
     <g id="line2d_2"/>
     <g id="text_1">
      <!-- 2012 -->
      <g style="fill: #b1bed6" transform="translate(110.132238 330.884854) rotate(-30) scale(0.126 -0.126)">
       <defs>
        <path id="DejaVuSans-32" d="M 1228 531 
L 3431 531 
L 3431 0 
L 469 0 
L 469 531 
Q 828 903 1448 1529 
Q 2069 2156 2228 2338 
Q 2531 2678 2651 2914 
Q 2772 3150 2772 3378 
Q 2772 3750 2511 3984 
Q 2250 4219 1831 4219 
Q 1534 4219 1204 4116 
Q 875 4013 500 3803 
L 500 4441 
Q 881 4594 1212 4672 
Q 1544 4750 1819 4750 
Q 2544 4750 2975 4387 
Q 3406 4025 3406 3419 
Q 3406 3131 3298 2873 
Q 3191 2616 2906 2266 
Q 2828 2175 2409 1742 
Q 1991 1309 1228 531 
z
" transform="scale(0.015625)"/>
        <path id="DejaVuSans-30" d="M 2034 4250 
Q 1547 4250 1301 3770 
Q 1056 3291 1056 2328 
Q 1056 1369 1301 889 
Q 1547 409 2034 409 
Q 2525 409 2770 889 
Q 3016 1369 3016 2328 
Q 3016 3291 2770 3770 
Q 2525 4250 2034 4250 
z
M 2034 4750 
Q 2819 4750 3233 4129 
Q 3647 3509 3647 2328 
Q 3647 1150 3233 529 
Q 2819 -91 2034 -91 
Q 1250 -91 836 529 
Q 422 1150 422 2328 
Q 422 3509 836 4129 
Q 1250 4750 2034 4750 
z
" transform="scale(0.015625)"/>
        <path id="DejaVuSans-31" d="M 794 531 
L 1825 531 
L 1825 4091 
L 703 3866 
L 703 4441 
L 1819 4666 
L 2450 4666 
L 2450 531 
L 3481 531 
L 3481 0 
L 794 0 
L 794 531 
z
" transform="scale(0.015625)"/>
       </defs>
       <use xlink:href="#DejaVuSans-32"/>
       <use xlink:href="#DejaVuSans-30" transform="translate(63.623047 0)"/>
       <use xlink:href="#DejaVuSans-31" transform="translate(127.246094 0)"/>
       <use xlink:href="#DejaVuSans-32" transform="translate(190.869141 0)"/>
      </g>
     </g>
    </g>
    <g id="xtick_2">
     <g id="line2d_3">
      <path d="M 248.700668 300.96 
L 248.700668 7.2 
" clip-path="url(#pb7bac9b6ac)" style="fill: none; stroke: #546379; stroke-width: 1.12; stroke-linecap: square"/>
     </g>
     <g id="line2d_4"/>
     <g id="text_2">
      <!-- 2014 -->
      <g style="fill: #b1bed6" transform="translate(219.619628 330.884854) rotate(-30) scale(0.126 -0.126)">
       <defs>
        <path id="DejaVuSans-34" d="M 2419 4116 
L 825 1625 
L 2419 1625 
L 2419 4116 
z
M 2253 4666 
L 3047 4666 
L 3047 1625 
L 3713 1625 
L 3713 1100 
L 3047 1100 
L 3047 0 
L 2419 0 
L 2419 1100 
L 313 1100 
L 313 1709 
L 2253 4666 
z
" transform="scale(0.015625)"/>
       </defs>
       <use xlink:href="#DejaVuSans-32"/>
       <use xlink:href="#DejaVuSans-30" transform="translate(63.623047 0)"/>
       <use xlink:href="#DejaVuSans-31" transform="translate(127.246094 0)"/>
       <use xlink:href="#DejaVuSans-34" transform="translate(190.869141 0)"/>
      </g>
     </g>
    </g>
    <g id="xtick_3">
     <g id="line2d_5">
      <path d="M 358.038281 300.96 
L 358.038281 7.2 
" clip-path="url(#pb7bac9b6ac)" style="fill: none; stroke: #546379; stroke-width: 1.12; stroke-linecap: square"/>
     </g>
     <g id="line2d_6"/>
     <g id="text_3">
      <!-- 2016 -->
      <g style="fill: #b1bed6" transform="translate(328.957241 330.884854) rotate(-30) scale(0.126 -0.126)">
       <defs>
        <path id="DejaVuSans-36" d="M 2113 2584 
Q 1688 2584 1439 2293 
Q 1191 2003 1191 1497 
Q 1191 994 1439 701 
Q 1688 409 2113 409 
Q 2538 409 2786 701 
Q 3034 994 3034 1497 
Q 3034 2003 2786 2293 
Q 2538 2584 2113 2584 
z
M 3366 4563 
L 3366 3988 
Q 3128 4100 2886 4159 
Q 2644 4219 2406 4219 
Q 1781 4219 1451 3797 
Q 1122 3375 1075 2522 
Q 1259 2794 1537 2939 
Q 1816 3084 2150 3084 
Q 2853 3084 3261 2657 
Q 3669 2231 3669 1497 
Q 3669 778 3244 343 
Q 2819 -91 2113 -91 
Q 1303 -91 875 529 
Q 447 1150 447 2328 
Q 447 3434 972 4092 
Q 1497 4750 2381 4750 
Q 2619 4750 2861 4703 
Q 3103 4656 3366 4563 
z
" transform="scale(0.015625)"/>
       </defs>
       <use xlink:href="#DejaVuSans-32"/>
       <use xlink:href="#DejaVuSans-30" transform="translate(63.623047 0)"/>
       <use xlink:href="#DejaVuSans-31" transform="translate(127.246094 0)"/>
       <use xlink:href="#DejaVuSans-36" transform="translate(190.869141 0)"/>
      </g>
     </g>
    </g>
    <g id="xtick_4">
     <g id="line2d_7">
      <path d="M 467.525671 300.96 
L 467.525671 7.2 
" clip-path="url(#pb7bac9b6ac)" style="fill: none; stroke: #546379; stroke-width: 1.12; stroke-linecap: square"/>
     </g>
     <g id="line2d_8"/>
     <g id="text_4">
      <!-- 2018 -->
      <g style="fill: #b1bed6" transform="translate(438.444632 330.884854) rotate(-30) scale(0.126 -0.126)">
       <defs>
        <path id="DejaVuSans-38" d="M 2034 2216 
Q 1584 2216 1326 1975 
Q 1069 1734 1069 1313 
Q 1069 891 1326 650 
Q 1584 409 2034 409 
Q 2484 409 2743 651 
Q 3003 894 3003 1313 
Q 3003 1734 2745 1975 
Q 2488 2216 2034 2216 
z
M 1403 2484 
Q 997 2584 770 2862 
Q 544 3141 544 3541 
Q 544 4100 942 4425 
Q 1341 4750 2034 4750 
Q 2731 4750 3128 4425 
Q 3525 4100 3525 3541 
Q 3525 3141 3298 2862 
Q 3072 2584 2669 2484 
Q 3125 2378 3379 2068 
Q 3634 1759 3634 1313 
Q 3634 634 3220 271 
Q 2806 -91 2034 -91 
Q 1263 -91 848 271 
Q 434 634 434 1313 
Q 434 1759 690 2068 
Q 947 2378 1403 2484 
z
M 1172 3481 
Q 1172 3119 1398 2916 
Q 1625 2713 2034 2713 
Q 2441 2713 2670 2916 
Q 2900 3119 2900 3481 
Q 2900 3844 2670 4047 
Q 2441 4250 2034 4250 
Q 1625 4250 1398 4047 
Q 1172 3844 1172 3481 
z
" transform="scale(0.015625)"/>
       </defs>
       <use xlink:href="#DejaVuSans-32"/>
       <use xlink:href="#DejaVuSans-30" transform="translate(63.623047 0)"/>
       <use xlink:href="#DejaVuSans-31" transform="translate(127.246094 0)"/>
       <use xlink:href="#DejaVuSans-38" transform="translate(190.869141 0)"/>
      </g>
     </g>
    </g>
    <g id="xtick_5">
     <g id="line2d_9">
      <path d="M 576.863284 300.96 
L 576.863284 7.2 
" clip-path="url(#pb7bac9b6ac)" style="fill: none; stroke: #546379; stroke-width: 1.12; stroke-linecap: square"/>
     </g>
     <g id="line2d_10"/>
     <g id="text_5">
      <!-- 2020 -->
      <g style="fill: #b1bed6" transform="translate(547.782245 330.884854) rotate(-30) scale(0.126 -0.126)">
       <use xlink:href="#DejaVuSans-32"/>
       <use xlink:href="#DejaVuSans-30" transform="translate(63.623047 0)"/>
       <use xlink:href="#DejaVuSans-32" transform="translate(127.246094 0)"/>
       <use xlink:href="#DejaVuSans-30" transform="translate(190.869141 0)"/>
      </g>
     </g>
    </g>
    <g id="xtick_6">
     <g id="line2d_11">
      <path d="M 686.350675 300.96 
L 686.350675 7.2 
" clip-path="url(#pb7bac9b6ac)" style="fill: none; stroke: #546379; stroke-width: 1.12; stroke-linecap: square"/>
     </g>
     <g id="line2d_12"/>
     <g id="text_6">
      <!-- 2022 -->
      <g style="fill: #b1bed6" transform="translate(657.269635 330.884854) rotate(-30) scale(0.126 -0.126)">
       <use xlink:href="#DejaVuSans-32"/>
       <use xlink:href="#DejaVuSans-30" transform="translate(63.623047 0)"/>
       <use xlink:href="#DejaVuSans-32" transform="translate(127.246094 0)"/>
       <use xlink:href="#DejaVuSans-32" transform="translate(190.869141 0)"/>
      </g>
     </g>
    </g>
    <g id="xtick_7">
     <g id="line2d_13">
      <path d="M 795.688288 300.96 
L 795.688288 7.2 
" clip-path="url(#pb7bac9b6ac)" style="fill: none; stroke: #546379; stroke-width: 1.12; stroke-linecap: square"/>
     </g>
     <g id="line2d_14"/>
     <g id="text_7">
      <!-- 2024 -->
      <g style="fill: #b1bed6" transform="translate(766.607248 330.884854) rotate(-30) scale(0.126 -0.126)">
       <use xlink:href="#DejaVuSans-32"/>
       <use xlink:href="#DejaVuSans-30" transform="translate(63.623047 0)"/>
       <use xlink:href="#DejaVuSans-32" transform="translate(127.246094 0)"/>
       <use xlink:href="#DejaVuSans-34" transform="translate(190.869141 0)"/>
      </g>
     </g>
    </g>
    <g id="xtick_8">
     <g id="line2d_15">
      <path d="M 905.175678 300.96 
L 905.175678 7.2 
" clip-path="url(#pb7bac9b6ac)" style="fill: none; stroke: #546379; stroke-width: 1.12; stroke-linecap: square"/>
     </g>
     <g id="line2d_16"/>
     <g id="text_8">
      <!-- 2026 -->
      <g style="fill: #b1bed6" transform="translate(876.094638 330.884854) rotate(-30) scale(0.126 -0.126)">
       <use xlink:href="#DejaVuSans-32"/>
       <use xlink:href="#DejaVuSans-30" transform="translate(63.623047 0)"/>
       <use xlink:href="#DejaVuSans-32" transform="translate(127.246094 0)"/>
       <use xlink:href="#DejaVuSans-36" transform="translate(190.869141 0)"/>
      </g>
     </g>
    </g>
    <g id="text_9">
     <!-- Date -->
     <g style="fill: #b1bed6" transform="translate(464.166875 348.095943) scale(0.144 -0.144)">
      <defs>
       <path id="DejaVuSans-44" d="M 1259 4147 
L 1259 519 
L 2022 519 
Q 2988 519 3436 956 
Q 3884 1394 3884 2338 
Q 3884 3275 3436 3711 
Q 2988 4147 2022 4147 
L 1259 4147 
z
M 628 4666 
L 1925 4666 
Q 3281 4666 3915 4102 
Q 4550 3538 4550 2338 
Q 4550 1131 3912 565 
Q 3275 0 1925 0 
L 628 0 
L 628 4666 
z
" transform="scale(0.015625)"/>
       <path id="DejaVuSans-61" d="M 2194 1759 
Q 1497 1759 1228 1600 
Q 959 1441 959 1056 
Q 959 750 1161 570 
Q 1363 391 1709 391 
Q 2188 391 2477 730 
Q 2766 1069 2766 1631 
L 2766 1759 
L 2194 1759 
z
M 3341 1997 
L 3341 0 
L 2766 0 
L 2766 531 
Q 2569 213 2275 61 
Q 1981 -91 1556 -91 
Q 1019 -91 701 211 
Q 384 513 384 1019 
Q 384 1609 779 1909 
Q 1175 2209 1959 2209 
L 2766 2209 
L 2766 2266 
Q 2766 2663 2505 2880 
Q 2244 3097 1772 3097 
Q 1472 3097 1187 3025 
Q 903 2953 641 2809 
L 641 3341 
Q 956 3463 1253 3523 
Q 1550 3584 1831 3584 
Q 2591 3584 2966 3190 
Q 3341 2797 3341 1997 
z
" transform="scale(0.015625)"/>
       <path id="DejaVuSans-74" d="M 1172 4494 
L 1172 3500 
L 2356 3500 
L 2356 3053 
L 1172 3053 
L 1172 1153 
Q 1172 725 1289 603 
Q 1406 481 1766 481 
L 2356 481 
L 2356 0 
L 1766 0 
Q 1100 0 847 248 
Q 594 497 594 1153 
L 594 3053 
L 172 3053 
L 172 3500 
L 594 3500 
L 594 4494 
L 1172 4494 
z
" transform="scale(0.015625)"/>
       <path id="DejaVuSans-65" d="M 3597 1894 
L 3597 1613 
L 953 1613 
Q 991 1019 1311 708 
Q 1631 397 2203 397 
Q 2534 397 2845 478 
Q 3156 559 3463 722 
L 3463 178 
Q 3153 47 2828 -22 
Q 2503 -91 2169 -91 
Q 1331 -91 842 396 
Q 353 884 353 1716 
Q 353 2575 817 3079 
Q 1281 3584 2069 3584 
Q 2775 3584 3186 3129 
Q 3597 2675 3597 1894 
z
M 3022 2063 
Q 3016 2534 2758 2815 
Q 2500 3097 2075 3097 
Q 1594 3097 1305 2825 
Q 1016 2553 972 2059 
L 3022 2063 
z
" transform="scale(0.015625)"/>
      </defs>
      <use xlink:href="#DejaVuSans-44"/>
      <use xlink:href="#DejaVuSans-61" transform="translate(77.001953 0)"/>
      <use xlink:href="#DejaVuSans-74" transform="translate(138.28125 0)"/>
      <use xlink:href="#DejaVuSans-65" transform="translate(177.490234 0)"/>
     </g>
    </g>
   </g>
   <g id="matplotlib.axis_2">
    <g id="ytick_1">
     <g id="line2d_17">
      <path d="M 34.976 255.287978 
L 927.776 255.287978 
" clip-path="url(#pb7bac9b6ac)" style="fill: none; stroke: #546379; stroke-width: 1.12; stroke-linecap: square"/>
     </g>
     <g id="line2d_18"/>
     <g id="text_10">
      <!-- $\mathdefault{10^{0}}$ -->
      <g style="fill: #b1bed6" transform="translate(7.2 260.074994) scale(0.126 -0.126)">
       <use xlink:href="#DejaVuSans-31" transform="translate(0 0.765625)"/>
       <use xlink:href="#DejaVuSans-30" transform="translate(63.623047 0.765625)"/>
       <use xlink:href="#DejaVuSans-30" transform="translate(128.203125 39.046875) scale(0.7)"/>
      </g>
     </g>
    </g>
    <g id="ytick_2">
     <g id="line2d_19">
      <path d="M 34.976 209.049521 
L 927.776 209.049521 
" clip-path="url(#pb7bac9b6ac)" style="fill: none; stroke: #546379; stroke-width: 1.12; stroke-linecap: square"/>
     </g>
     <g id="line2d_20"/>
     <g id="text_11">
      <!-- $\mathdefault{10^{1}}$ -->
      <g style="fill: #b1bed6" transform="translate(7.2 213.836537) scale(0.126 -0.126)">
       <use xlink:href="#DejaVuSans-31" transform="translate(0 0.684375)"/>
       <use xlink:href="#DejaVuSans-30" transform="translate(63.623047 0.684375)"/>
       <use xlink:href="#DejaVuSans-31" transform="translate(128.203125 38.965625) scale(0.7)"/>
      </g>
     </g>
    </g>
    <g id="ytick_3">
     <g id="line2d_21">
      <path d="M 34.976 162.811064 
L 927.776 162.811064 
" clip-path="url(#pb7bac9b6ac)" style="fill: none; stroke: #546379; stroke-width: 1.12; stroke-linecap: square"/>
     </g>
     <g id="line2d_22"/>
     <g id="text_12">
      <!-- $\mathdefault{10^{2}}$ -->
      <g style="fill: #b1bed6" transform="translate(7.2 167.598079) scale(0.126 -0.126)">
       <use xlink:href="#DejaVuSans-31" transform="translate(0 0.765625)"/>
       <use xlink:href="#DejaVuSans-30" transform="translate(63.623047 0.765625)"/>
       <use xlink:href="#DejaVuSans-32" transform="translate(128.203125 39.046875) scale(0.7)"/>
      </g>
     </g>
    </g>
    <g id="ytick_4">
     <g id="line2d_23">
      <path d="M 34.976 116.572607 
L 927.776 116.572607 
" clip-path="url(#pb7bac9b6ac)" style="fill: none; stroke: #546379; stroke-width: 1.12; stroke-linecap: square"/>
     </g>
     <g id="line2d_24"/>
     <g id="text_13">
      <!-- $\mathdefault{10^{3}}$ -->
      <g style="fill: #b1bed6" transform="translate(7.2 121.359622) scale(0.126 -0.126)">
       <defs>
        <path id="DejaVuSans-33" d="M 2597 2516 
Q 3050 2419 3304 2112 
Q 3559 1806 3559 1356 
Q 3559 666 3084 287 
Q 2609 -91 1734 -91 
Q 1441 -91 1130 -33 
Q 819 25 488 141 
L 488 750 
Q 750 597 1062 519 
Q 1375 441 1716 441 
Q 2309 441 2620 675 
Q 2931 909 2931 1356 
Q 2931 1769 2642 2001 
Q 2353 2234 1838 2234 
L 1294 2234 
L 1294 2753 
L 1863 2753 
Q 2328 2753 2575 2939 
Q 2822 3125 2822 3475 
Q 2822 3834 2567 4026 
Q 2313 4219 1838 4219 
Q 1578 4219 1281 4162 
Q 984 4106 628 3988 
L 628 4550 
Q 988 4650 1302 4700 
Q 1616 4750 1894 4750 
Q 2613 4750 3031 4423 
Q 3450 4097 3450 3541 
Q 3450 3153 3228 2886 
Q 3006 2619 2597 2516 
z
" transform="scale(0.015625)"/>
       </defs>
       <use xlink:href="#DejaVuSans-31" transform="translate(0 0.765625)"/>
       <use xlink:href="#DejaVuSans-30" transform="translate(63.623047 0.765625)"/>
       <use xlink:href="#DejaVuSans-33" transform="translate(128.203125 39.046875) scale(0.7)"/>
      </g>
     </g>
    </g>
    <g id="ytick_5">
     <g id="line2d_25">
      <path d="M 34.976 70.334149 
L 927.776 70.334149 
" clip-path="url(#pb7bac9b6ac)" style="fill: none; stroke: #546379; stroke-width: 1.12; stroke-linecap: square"/>
     </g>
     <g id="line2d_26"/>
     <g id="text_14">
      <!-- $\mathdefault{10^{4}}$ -->
      <g style="fill: #b1bed6" transform="translate(7.2 75.121165) scale(0.126 -0.126)">
       <use xlink:href="#DejaVuSans-31" transform="translate(0 0.684375)"/>
       <use xlink:href="#DejaVuSans-30" transform="translate(63.623047 0.684375)"/>
       <use xlink:href="#DejaVuSans-34" transform="translate(128.203125 38.965625) scale(0.7)"/>
      </g>
     </g>
    </g>
    <g id="ytick_6">
     <g id="line2d_27">
      <path d="M 34.976 24.095692 
L 927.776 24.095692 
" clip-path="url(#pb7bac9b6ac)" style="fill: none; stroke: #546379; stroke-width: 1.12; stroke-linecap: square"/>
     </g>
     <g id="line2d_28"/>
     <g id="text_15">
      <!-- $\mathdefault{10^{5}}$ -->
      <g style="fill: #b1bed6" transform="translate(7.2 28.882708) scale(0.126 -0.126)">
       <defs>
        <path id="DejaVuSans-35" d="M 691 4666 
L 3169 4666 
L 3169 4134 
L 1269 4134 
L 1269 2991 
Q 1406 3038 1543 3061 
Q 1681 3084 1819 3084 
Q 2600 3084 3056 2656 
Q 3513 2228 3513 1497 
Q 3513 744 3044 326 
Q 2575 -91 1722 -91 
Q 1428 -91 1123 -41 
Q 819 9 494 109 
L 494 744 
Q 775 591 1075 516 
Q 1375 441 1709 441 
Q 2250 441 2565 725 
Q 2881 1009 2881 1497 
Q 2881 1984 2565 2268 
Q 2250 2553 1709 2553 
Q 1456 2553 1204 2497 
Q 953 2441 691 2322 
L 691 4666 
z
" transform="scale(0.015625)"/>
       </defs>
       <use xlink:href="#DejaVuSans-31" transform="translate(0 0.684375)"/>
       <use xlink:href="#DejaVuSans-30" transform="translate(63.623047 0.684375)"/>
       <use xlink:href="#DejaVuSans-35" transform="translate(128.203125 38.965625) scale(0.7)"/>
      </g>
     </g>
    </g>
    <g id="ytick_7">
     <g id="line2d_29"/>
    </g>
    <g id="ytick_8">
     <g id="line2d_30"/>
    </g>
    <g id="ytick_9">
     <g id="line2d_31"/>
    </g>
    <g id="ytick_10">
     <g id="line2d_32"/>
    </g>
    <g id="ytick_11">
     <g id="line2d_33"/>
    </g>
    <g id="ytick_12">
     <g id="line2d_34"/>
    </g>
    <g id="ytick_13">
     <g id="line2d_35"/>
    </g>
    <g id="ytick_14">
     <g id="line2d_36"/>
    </g>
    <g id="ytick_15">
     <g id="line2d_37"/>
    </g>
    <g id="ytick_16">
     <g id="line2d_38"/>
    </g>
    <g id="ytick_17">
     <g id="line2d_39"/>
    </g>
    <g id="ytick_18">
     <g id="line2d_40"/>
    </g>
    <g id="ytick_19">
     <g id="line2d_41"/>
    </g>
    <g id="ytick_20">
     <g id="line2d_42"/>
    </g>
    <g id="ytick_21">
     <g id="line2d_43"/>
    </g>
    <g id="ytick_22">
     <g id="line2d_44"/>
    </g>
    <g id="ytick_23">
     <g id="line2d_45"/>
    </g>
    <g id="ytick_24">
     <g id="line2d_46"/>
    </g>
    <g id="ytick_25">
     <g id="line2d_47"/>
    </g>
    <g id="ytick_26">
     <g id="line2d_48"/>
    </g>
    <g id="ytick_27">
     <g id="line2d_49"/>
    </g>
    <g id="ytick_28">
     <g id="line2d_50"/>
    </g>
    <g id="ytick_29">
     <g id="line2d_51"/>
    </g>
    <g id="ytick_30">
     <g id="line2d_52"/>
    </g>
    <g id="ytick_31">
     <g id="line2d_53"/>
    </g>
    <g id="ytick_32">
     <g id="line2d_54"/>
    </g>
    <g id="ytick_33">
     <g id="line2d_55"/>
    </g>
    <g id="ytick_34">
     <g id="line2d_56"/>
    </g>
    <g id="ytick_35">
     <g id="line2d_57"/>
    </g>
    <g id="ytick_36">
     <g id="line2d_58"/>
    </g>
    <g id="ytick_37">
     <g id="line2d_59"/>
    </g>
    <g id="ytick_38">
     <g id="line2d_60"/>
    </g>
    <g id="ytick_39">
     <g id="line2d_61"/>
    </g>
    <g id="ytick_40">
     <g id="line2d_62"/>
    </g>
    <g id="ytick_41">
     <g id="line2d_63"/>
    </g>
    <g id="ytick_42">
     <g id="line2d_64"/>
    </g>
    <g id="ytick_43">
     <g id="line2d_65"/>
    </g>
    <g id="ytick_44">
     <g id="line2d_66"/>
    </g>
    <g id="ytick_45">
     <g id="line2d_67"/>
    </g>
    <g id="ytick_46">
     <g id="line2d_68"/>
    </g>
    <g id="ytick_47">
     <g id="line2d_69"/>
    </g>
    <g id="ytick_48">
     <g id="line2d_70"/>
    </g>
    <g id="ytick_49">
     <g id="line2d_71"/>
    </g>
    <g id="ytick_50">
     <g id="line2d_72"/>
    </g>
    <g id="ytick_51">
     <g id="line2d_73"/>
    </g>
    <g id="ytick_52">
     <g id="line2d_74"/>
    </g>
    <g id="ytick_53">
     <g id="line2d_75"/>
    </g>
    <g id="ytick_54">
     <g id="line2d_76"/>
    </g>
    <g id="ytick_55">
     <g id="line2d_77"/>
    </g>
   </g>
   <g id="line2d_78">
    <path d="M 75.557818 287.607273 
L 75.557818 283.126303 
L 76.156928 283.126303 
L 76.156928 278.16908 
L 76.756039 278.16908 
L 76.756039 279.465085 
L 77.355149 279.465085 
L 77.355149 280.850538 
L 77.954259 280.850538 
L 77.954259 280.145865 
L 78.553369 280.145865 
L 78.553369 280.850538 
L 79.75159 280.850538 
L 79.75159 282.338708 
L 80.3507 282.338708 
L 80.3507 284.800698 
L 81.54892 284.800698 
L 81.54892 283.126303 
L 82.14803 283.126303 
L 82.14803 282.338708 
L 82.747141 282.338708 
L 82.747141 283.126303 
L 83.346251 283.126303 
L 83.346251 281.58084 
L 83.945361 281.58084 
L 83.945361 279.465085 
L 85.143582 279.465085 
L 85.143582 278.16908 
L 85.742692 278.16908 
L 85.742692 275.803866 
L 86.341802 275.803866 
L 86.341802 273.68811 
L 86.940912 273.68811 
L 86.940912 274.718136 
L 87.540022 274.718136 
L 87.540022 271.774176 
L 88.139133 271.774176 
L 88.139133 271.322896 
L 88.738243 271.322896 
L 88.738243 256.962373 
L 89.936463 256.962373 
L 89.936463 255.899633 
L 90.535573 255.899633 
L 90.535573 253.742515 
L 91.134684 253.742515 
L 91.134684 254.308218 
L 91.733794 254.308218 
L 91.733794 257.855014 
L 92.332904 257.855014 
L 92.332904 255.287978 
L 92.932014 255.287978 
L 92.932014 255.899633 
L 93.531124 255.899633 
L 93.531124 256.962373 
L 94.130235 256.962373 
L 94.130235 257.855014 
L 94.729345 257.855014 
L 94.729345 257.181841 
L 95.328455 257.181841 
L 95.328455 258.084515 
L 95.927565 258.084515 
L 95.927565 260.021543 
L 96.526675 260.021543 
L 96.526675 257.628106 
L 97.125786 257.628106 
L 97.125786 259.768948 
L 98.324006 259.768948 
L 98.324006 261.064953 
L 98.923116 261.064953 
L 98.923116 260.798974 
L 99.522226 260.798974 
L 99.522226 255.693671 
L 100.121337 255.693671 
L 100.121337 251.626759 
L 100.720447 251.626759 
L 100.720447 248.820185 
L 101.319557 248.820185 
L 101.319557 243.708944 
L 101.918667 243.708944 
L 101.918667 226.758834 
L 102.517778 226.758834 
L 102.517778 229.789781 
L 103.116888 229.789781 
L 103.116888 227.906638 
L 103.715998 227.906638 
L 103.715998 217.54624 
L 104.315108 217.54624 
L 104.315108 212.384081 
L 104.914218 212.384081 
L 104.914218 216.269405 
L 105.513329 216.269405 
L 105.513329 215.451956 
L 106.112439 215.451956 
L 106.112439 211.892274 
L 106.711549 211.892274 
L 106.711549 209.723378 
L 107.310659 209.723378 
L 107.310659 196.107609 
L 107.909769 196.107609 
L 107.909769 185.479929 
L 108.50888 185.479929 
L 108.50888 191.755656 
L 109.10799 191.755656 
L 109.10799 196.298254 
L 109.7071 196.298254 
L 109.7071 200.391896 
L 110.30621 200.391896 
L 110.30621 197.720226 
L 110.90532 197.720226 
L 110.90532 197.984682 
L 111.504431 197.984682 
L 111.504431 199.940326 
L 112.103541 199.940326 
L 112.103541 199.486212 
L 112.702651 199.486212 
L 112.702651 200.813839 
L 113.301761 200.813839 
L 113.301761 201.937359 
L 113.900871 201.937359 
L 113.900871 201.532794 
L 114.499982 201.532794 
L 114.499982 202.393443 
L 115.099092 202.393443 
L 115.099092 202.149859 
L 115.698202 202.149859 
L 115.698202 201.477626 
L 116.297312 201.477626 
L 116.297312 206.242946 
L 116.896422 206.242946 
L 116.896422 209.744155 
L 117.495533 209.744155 
L 117.495533 209.190583 
L 118.094643 209.190583 
L 118.094643 206.488912 
L 118.693753 206.488912 
L 118.693753 205.811078 
L 119.292863 205.811078 
L 119.292863 206.595256 
L 119.891974 206.595256 
L 119.891974 210.121868 
L 120.491084 210.121868 
L 120.491084 212.407803 
L 121.090194 212.407803 
L 121.090194 212.863939 
L 121.689304 212.863939 
L 121.689304 216.912523 
L 122.288414 216.912523 
L 122.288414 218.681424 
L 122.887525 218.681424 
L 122.887525 222.888519 
L 123.486635 222.888519 
L 123.486635 218.713891 
L 124.085745 218.713891 
L 124.085745 221.091294 
L 124.684855 221.091294 
L 124.684855 223.211114 
L 125.283965 223.211114 
L 125.283965 222.729145 
L 125.883076 222.729145 
L 125.883076 223.830314 
L 126.482186 223.830314 
L 126.482186 226.662058 
L 127.081296 226.662058 
L 127.081296 227.399513 
L 127.680406 227.399513 
L 127.680406 236.177635 
L 128.279516 236.177635 
L 128.279516 231.191357 
L 128.878627 231.191357 
L 128.878627 232.568171 
L 129.477737 232.568171 
L 129.477737 230.831686 
L 130.076847 230.831686 
L 130.076847 231.805506 
L 130.675957 231.805506 
L 130.675957 231.993474 
L 131.275067 231.993474 
L 131.275067 232.503498 
L 131.874178 232.503498 
L 131.874178 236.100251 
L 132.473288 236.100251 
L 132.473288 237.293539 
L 133.072398 237.293539 
L 133.072398 237.049141 
L 133.671508 237.049141 
L 133.671508 235.793663 
L 134.270619 235.793663 
L 134.270619 232.310718 
L 134.869729 232.310718 
L 134.869729 232.828969 
L 135.468839 232.828969 
L 135.468839 232.439032 
L 136.067949 232.439032 
L 136.067949 231.557588 
L 136.667059 231.557588 
L 136.667059 230.950862 
L 137.26617 230.950862 
L 137.26617 227.55031 
L 137.86528 227.55031 
L 137.86528 226.232243 
L 138.46439 226.232243 
L 138.46439 225.218762 
L 139.0635 225.218762 
L 139.0635 221.535093 
L 139.66261 221.535093 
L 139.66261 216.040558 
L 140.261721 216.040558 
L 140.261721 215.927105 
L 140.860831 215.927105 
L 140.860831 216.097526 
L 141.459941 216.097526 
L 141.459941 218.105811 
L 142.059051 218.105811 
L 142.059051 217.793015 
L 142.658161 217.793015 
L 142.658161 220.337491 
L 143.257272 220.337491 
L 143.257272 220.514418 
L 143.856382 220.514418 
L 143.856382 219.340961 
L 144.455492 219.340961 
L 144.455492 219.85023 
L 145.653712 219.919119 
L 145.653712 224.04103 
L 146.252823 224.04103 
L 146.252823 225.084439 
L 146.851933 225.084439 
L 146.851933 222.297276 
L 147.451043 222.297276 
L 147.451043 223.049169 
L 148.050153 223.049169 
L 148.050153 223.746642 
L 148.649263 223.746642 
L 148.649263 222.76887 
L 149.248374 222.76887 
L 149.248374 223.049169 
L 149.847484 223.049169 
L 149.847484 221.27502 
L 150.446594 221.27502 
L 150.446594 222.065569 
L 151.045704 222.065569 
L 151.045704 223.746642 
L 151.644815 223.746642 
L 151.644815 223.914335 
L 152.243925 223.914335 
L 152.243925 223.211114 
L 153.442145 223.129978 
L 153.442145 223.788434 
L 154.041255 223.788434 
L 154.041255 223.089533 
L 155.239476 223.008886 
L 155.239476 222.027209 
L 155.838586 222.027209 
L 155.838586 222.219743 
L 156.437696 222.219743 
L 156.437696 222.610438 
L 157.036806 222.610438 
L 157.036806 222.258472 
L 157.635917 222.258472 
L 157.635917 222.571025 
L 158.834137 222.571025 
L 158.834137 222.76887 
L 159.433247 222.76887 
L 159.433247 222.453247 
L 161.230578 222.37511 
L 161.230578 222.258472 
L 161.829688 222.258472 
L 161.829688 221.912569 
L 162.428798 221.912569 
L 162.428798 220.836869 
L 163.627019 220.764765 
L 163.627019 218.423557 
L 164.226129 218.423557 
L 164.226129 217.515605 
L 164.825239 217.515605 
L 164.825239 217.272195 
L 165.424349 217.272195 
L 165.424349 217.454475 
L 166.02346 217.454475 
L 166.02346 217.061604 
L 166.62257 217.061604 
L 166.62257 216.912523 
L 167.22168 216.912523 
L 167.22168 216.269405 
L 167.82079 216.269405 
L 167.82079 213.910586 
L 168.4199 213.910586 
L 168.4199 210.143061 
L 169.019011 210.143061 
L 169.019011 210.016233 
L 169.618121 210.016233 
L 169.618121 211.616557 
L 170.217231 211.616557 
L 170.217231 211.277149 
L 170.816341 211.277149 
L 170.816341 208.809982 
L 171.415451 208.809982 
L 171.415451 206.720039 
L 172.014562 206.720039 
L 172.014562 206.069083 
L 172.613672 206.069083 
L 172.613672 204.892447 
L 173.212782 204.892447 
L 173.212782 201.615831 
L 173.811892 201.615831 
L 173.811892 208.534084 
L 174.411002 208.534084 
L 174.411002 207.153851 
L 175.010113 207.153851 
L 175.010113 207.300563 
L 175.609223 207.300563 
L 175.609223 208.031547 
L 176.208333 208.031547 
L 176.208333 206.648639 
L 177.406553 206.702165 
L 177.406553 205.657851 
L 178.005664 205.657851 
L 178.005664 204.360786 
L 178.604774 204.360786 
L 178.604774 204.925126 
L 179.203884 204.925126 
L 179.203884 204.632914 
L 179.802994 204.632914 
L 179.802994 204.440442 
L 180.402104 204.440442 
L 180.402104 203.827351 
L 181.001215 203.827351 
L 181.001215 204.892447 
L 181.600325 204.892447 
L 181.600325 205.221653 
L 182.199435 205.221653 
L 182.199435 205.421799 
L 182.798545 205.421799 
L 182.798545 205.725808 
L 183.397656 205.725808 
L 183.397656 206.138448 
L 183.996766 206.138448 
L 183.996766 207.263784 
L 184.595876 207.263784 
L 184.595876 207.026351 
L 185.194986 207.026351 
L 185.194986 207.190429 
L 186.393207 207.227073 
L 186.393207 207.008203 
L 186.992317 207.008203 
L 186.992317 205.691801 
L 187.591427 205.691801 
L 187.591427 204.859822 
L 188.190537 204.859822 
L 188.190537 204.376692 
L 189.388758 204.313144 
L 189.388758 203.642412 
L 189.987868 203.642412 
L 189.987868 202.948851 
L 190.586978 202.948851 
L 190.586978 202.581728 
L 191.186088 202.581728 
L 191.186088 202.83064 
L 192.384309 202.727773 
L 192.384309 203.097601 
L 192.983419 203.097601 
L 192.983419 202.801196 
L 193.582529 202.801196 
L 193.582529 202.993361 
L 194.780749 202.963677 
L 194.780749 202.307135 
L 195.37986 202.307135 
L 195.37986 201.852984 
L 195.97897 201.852984 
L 195.97897 200.210048 
L 196.57808 200.210048 
L 196.57808 198.240941 
L 197.17719 198.240941 
L 197.17719 196.652541 
L 197.776301 196.652541 
L 197.776301 195.352474 
L 198.375411 195.352474 
L 198.375411 194.150598 
L 198.974521 194.150598 
L 198.974521 193.650079 
L 199.573631 193.650079 
L 199.573631 191.494257 
L 200.172741 191.494257 
L 200.172741 188.955725 
L 200.771852 188.955725 
L 200.771852 189.118806 
L 201.370962 189.118806 
L 201.370962 186.64308 
L 201.970072 186.64308 
L 201.970072 186.200575 
L 202.569182 186.200575 
L 202.569182 184.327641 
L 203.168292 184.327641 
L 203.168292 180.231435 
L 203.767403 180.231435 
L 203.767403 178.580003 
L 204.366513 178.580003 
L 204.366513 178.032658 
L 204.965623 178.032658 
L 204.965623 175.896343 
L 205.564733 175.896343 
L 205.564733 169.901901 
L 206.163843 169.901901 
L 206.163843 167.59808 
L 206.762954 167.59808 
L 206.762954 164.376618 
L 207.362064 164.376618 
L 207.362064 157.38862 
L 207.961174 157.38862 
L 207.961174 152.962911 
L 208.560284 152.962911 
L 208.560284 158.346166 
L 209.159394 158.346166 
L 209.159394 170.526084 
L 209.758505 170.526084 
L 209.758505 159.331393 
L 210.357615 159.331393 
L 210.357615 155.698902 
L 210.956725 155.698902 
L 210.956725 157.775551 
L 211.555835 157.775551 
L 211.555835 159.658255 
L 212.154945 159.658255 
L 212.154945 159.834088 
L 212.754056 159.834088 
L 212.754056 160.411964 
L 213.353166 160.411964 
L 213.353166 159.489052 
L 213.952276 159.489052 
L 213.952276 158.601814 
L 215.150497 158.703028 
L 215.150497 157.237433 
L 216.348717 157.190324 
L 216.348717 158.748905 
L 216.947827 158.748905 
L 216.947827 159.322952 
L 217.546937 159.322952 
L 217.546937 161.622024 
L 218.146048 161.622024 
L 218.146048 162.81508 
L 218.745158 162.81508 
L 218.745158 161.379343 
L 219.344268 161.379343 
L 219.344268 161.200628 
L 219.943378 161.200628 
L 219.943378 162.023468 
L 220.542488 162.023468 
L 220.542488 163.371029 
L 221.141599 163.371029 
L 221.141599 167.281995 
L 221.740709 167.281995 
L 221.740709 168.193005 
L 222.339819 168.193005 
L 222.339819 164.055727 
L 222.938929 164.055727 
L 222.938929 163.41237 
L 223.538039 163.41237 
L 223.538039 165.063388 
L 224.13715 165.063388 
L 224.13715 163.944934 
L 224.73626 163.944934 
L 224.73626 163.07383 
L 225.33537 163.07383 
L 225.33537 161.90411 
L 225.93448 161.90411 
L 225.93448 161.505021 
L 226.53359 161.505021 
L 226.53359 162.256521 
L 227.132701 162.256521 
L 227.132701 161.016143 
L 227.731811 161.016143 
L 227.731811 162.869384 
L 228.330921 162.869384 
L 228.330921 160.818784 
L 228.930031 160.818784 
L 228.930031 160.307101 
L 229.529142 160.307101 
L 229.529142 159.402441 
L 230.128252 159.402441 
L 230.128252 157.528601 
L 230.727362 157.528601 
L 230.727362 159.55383 
L 231.326472 159.55383 
L 231.326472 158.814627 
L 231.925582 158.814627 
L 231.925582 158.483294 
L 232.524693 158.483294 
L 232.524693 157.992375 
L 233.123803 157.992375 
L 233.123803 158.665422 
L 233.722913 158.665422 
L 233.722913 158.3864 
L 234.322023 158.3864 
L 234.322023 158.130281 
L 234.921133 158.130281 
L 234.921133 158.827797 
L 235.520244 158.827797 
L 235.520244 158.471965 
L 236.119354 158.471965 
L 236.119354 157.918266 
L 236.718464 157.918266 
L 236.718464 156.315642 
L 237.317574 156.315642 
L 237.317574 150.33625 
L 237.916684 150.33625 
L 237.916684 149.366356 
L 238.515795 149.366356 
L 238.515795 148.210786 
L 239.114905 148.210786 
L 239.114905 148.592921 
L 239.714015 148.592921 
L 239.714015 144.203962 
L 240.313125 144.203962 
L 240.313125 138.835779 
L 240.912235 138.835779 
L 240.912235 135.327269 
L 241.511346 135.327269 
L 241.511346 131.521795 
L 242.110456 131.521795 
L 242.110456 123.259621 
L 242.709566 123.259621 
L 242.709566 120.691386 
L 243.308676 120.691386 
L 243.308676 114.048269 
L 243.907786 114.048269 
L 243.907786 115.58883 
L 244.506897 115.58883 
L 244.506897 123.566204 
L 245.106007 123.566204 
L 245.106007 119.210965 
L 245.705117 119.210965 
L 245.705117 119.531834 
L 246.304227 119.531834 
L 246.304227 124.161228 
L 246.903338 124.161228 
L 246.903338 124.916921 
L 247.502448 124.916921 
L 247.502448 123.058634 
L 248.101558 123.058634 
L 248.101558 122.837405 
L 248.700668 122.837405 
L 248.700668 120.344818 
L 249.299778 120.344818 
L 249.299778 120.477069 
L 249.898889 120.477069 
L 249.898889 119.977467 
L 250.497999 119.977467 
L 250.497999 120.627637 
L 251.097109 120.627637 
L 251.097109 120.367366 
L 251.696219 120.367366 
L 251.696219 121.561471 
L 252.295329 121.561471 
L 252.295329 121.418329 
L 252.89444 121.418329 
L 252.89444 120.629357 
L 253.49355 120.629357 
L 253.49355 121.536257 
L 254.09266 121.536257 
L 254.09266 124.100663 
L 254.69177 124.100663 
L 254.69177 126.498624 
L 255.29088 126.498624 
L 255.29088 125.852065 
L 255.889991 125.852065 
L 255.889991 127.52865 
L 256.489101 127.52865 
L 256.489101 128.233223 
L 257.088211 128.233223 
L 257.088211 127.949553 
L 257.687321 127.949553 
L 257.687321 124.59367 
L 258.286431 124.59367 
L 258.286431 125.537683 
L 259.484652 125.50288 
L 259.484652 126.020119 
L 260.083762 126.020119 
L 260.083762 127.759019 
L 260.682872 127.759019 
L 260.682872 127.31186 
L 261.281983 127.31186 
L 261.281983 130.897462 
L 261.881093 130.897462 
L 261.881093 133.099007 
L 262.480203 133.099007 
L 262.480203 132.253664 
L 263.079313 132.253664 
L 263.079313 136.592639 
L 263.678423 136.592639 
L 263.678423 132.181886 
L 264.277534 132.181886 
L 264.277534 131.22344 
L 264.876644 131.22344 
L 264.876644 130.958207 
L 265.475754 130.958207 
L 265.475754 132.101659 
L 266.074864 132.101659 
L 266.074864 132.517141 
L 266.673974 132.517141 
L 266.673974 133.207682 
L 267.872195 133.168179 
L 267.872195 132.9473 
L 268.471305 132.9473 
L 268.471305 132.646833 
L 269.070415 132.646833 
L 269.070415 130.974656 
L 269.669525 130.974656 
L 269.669525 129.401009 
L 270.268636 129.401009 
L 270.268636 127.476738 
L 270.867746 127.476738 
L 270.867746 125.828172 
L 271.466856 125.828172 
L 271.466856 124.871637 
L 272.065966 124.871637 
L 272.065966 125.260002 
L 272.665076 125.260002 
L 272.665076 127.11537 
L 273.264187 127.11537 
L 273.264187 126.564572 
L 273.863297 126.564572 
L 273.863297 127.135408 
L 274.462407 127.135408 
L 274.462407 128.188769 
L 275.061517 128.188769 
L 275.061517 126.830885 
L 275.660627 126.830885 
L 275.660627 125.367378 
L 276.259738 125.367378 
L 276.259738 126.031695 
L 276.858848 126.031695 
L 276.858848 125.723694 
L 277.457958 125.723694 
L 277.457958 126.040703 
L 278.057068 126.040703 
L 278.057068 125.85079 
L 278.656179 125.85079 
L 278.656179 126.158172 
L 279.255289 126.158172 
L 279.255289 127.043193 
L 279.854399 127.043193 
L 279.854399 127.440825 
L 280.453509 127.440825 
L 280.453509 127.219175 
L 281.65173 127.202803 
L 281.65173 127.895485 
L 282.25084 127.895485 
L 282.25084 129.554894 
L 282.84995 129.554894 
L 282.84995 129.749794 
L 283.44906 129.749794 
L 283.44906 130.171829 
L 284.647281 130.228036 
L 284.647281 131.464382 
L 285.246391 131.464382 
L 285.246391 131.065781 
L 285.845501 131.065781 
L 285.845501 131.591672 
L 286.444611 131.591672 
L 286.444611 131.440789 
L 287.043721 131.440789 
L 287.043721 132.434238 
L 287.642832 132.434238 
L 287.642832 134.915088 
L 288.241942 134.915088 
L 288.241942 134.46758 
L 288.841052 134.46758 
L 288.841052 136.329346 
L 289.440162 136.329346 
L 289.440162 137.149947 
L 290.039272 137.149947 
L 290.039272 138.590228 
L 290.638383 138.590228 
L 290.638383 136.980015 
L 291.237493 136.980015 
L 291.237493 135.23347 
L 291.836603 135.23347 
L 291.836603 135.510003 
L 292.435713 135.510003 
L 292.435713 137.245291 
L 293.034824 137.245291 
L 293.034824 137.602626 
L 293.633934 137.602626 
L 293.633934 138.367252 
L 294.233044 138.367252 
L 294.233044 138.821788 
L 294.832154 138.821788 
L 294.832154 137.830535 
L 295.431264 137.830535 
L 295.431264 133.983896 
L 296.030375 133.983896 
L 296.030375 135.487843 
L 296.629485 135.487843 
L 296.629485 137.286373 
L 297.228595 137.286373 
L 297.228595 136.291247 
L 297.827705 136.291247 
L 297.827705 136.162994 
L 298.426815 136.162994 
L 298.426815 136.022856 
L 299.025926 136.022856 
L 299.025926 136.266066 
L 299.625036 136.266066 
L 299.625036 137.72374 
L 300.224146 137.72374 
L 300.224146 137.211589 
L 300.823256 137.211589 
L 300.823256 139.94539 
L 301.422366 139.94539 
L 301.422366 138.715653 
L 302.021477 138.715653 
L 302.021477 138.839431 
L 302.620587 138.839431 
L 302.620587 140.026584 
L 303.219697 140.026584 
L 303.219697 141.773399 
L 303.818807 141.773399 
L 303.818807 140.884709 
L 304.417917 140.884709 
L 304.417917 142.889283 
L 305.017028 142.889283 
L 305.017028 147.89207 
L 305.616138 147.89207 
L 305.616138 147.345509 
L 306.215248 147.345509 
L 306.215248 145.763994 
L 306.814358 145.763994 
L 306.814358 143.353293 
L 307.413468 143.353293 
L 307.413468 147.046543 
L 308.012579 147.046543 
L 308.012579 146.374648 
L 308.611689 146.374648 
L 308.611689 146.622412 
L 309.210799 146.622412 
L 309.210799 146.766408 
L 309.809909 146.766408 
L 309.809909 145.69623 
L 310.40902 145.69623 
L 310.40902 144.752794 
L 311.00813 144.752794 
L 311.00813 145.235703 
L 311.60724 145.235703 
L 311.60724 144.131746 
L 312.20635 144.131746 
L 312.20635 142.861007 
L 312.80546 142.861007 
L 312.80546 142.496998 
L 313.404571 142.496998 
L 313.404571 141.094027 
L 314.003681 141.094027 
L 314.003681 141.480412 
L 314.602791 141.480412 
L 314.602791 143.461794 
L 315.201901 143.461794 
L 315.201901 144.816624 
L 315.801011 144.816624 
L 315.801011 144.174568 
L 316.400122 144.174568 
L 316.400122 144.694868 
L 316.999232 144.694868 
L 316.999232 143.583214 
L 317.598342 143.583214 
L 317.598342 144.981225 
L 318.197452 144.981225 
L 318.197452 146.705084 
L 319.395673 146.738428 
L 319.395673 145.580956 
L 319.994783 145.580956 
L 319.994783 146.411885 
L 321.193003 146.471429 
L 321.193003 145.275077 
L 321.792113 145.275077 
L 321.792113 145.469726 
L 322.391224 145.469726 
L 322.391224 145.151352 
L 322.990334 145.151352 
L 322.990334 145.451953 
L 323.589444 145.451953 
L 323.589444 145.963464 
L 324.188554 145.963464 
L 324.188554 145.418986 
L 324.787664 145.418986 
L 324.787664 145.626986 
L 325.386775 145.626986 
L 325.386775 146.230785 
L 325.985885 146.230785 
L 325.985885 146.716793 
L 326.584995 146.716793 
L 326.584995 146.290677 
L 327.184105 146.290677 
L 327.184105 146.120281 
L 327.783216 146.120281 
L 327.783216 144.412538 
L 328.382326 144.412538 
L 328.382326 144.837126 
L 328.981436 144.837126 
L 328.981436 145.213955 
L 329.580546 145.213955 
L 329.580546 144.526125 
L 330.179656 144.526125 
L 330.179656 144.038489 
L 330.778767 144.038489 
L 330.778767 142.975098 
L 331.377877 142.975098 
L 331.377877 141.785377 
L 331.976987 141.785377 
L 331.976987 141.575043 
L 332.576097 141.575043 
L 332.576097 142.370339 
L 333.774318 142.281285 
L 333.774318 141.236166 
L 334.373428 141.236166 
L 334.373428 141.538112 
L 334.972538 141.538112 
L 334.972538 142.055002 
L 335.571648 142.055002 
L 335.571648 142.183994 
L 336.170758 142.183994 
L 336.170758 142.792714 
L 336.769869 142.792714 
L 336.769869 143.513193 
L 337.368979 143.513193 
L 337.368979 146.415435 
L 337.968089 146.415435 
L 337.968089 146.248382 
L 338.567199 146.248382 
L 338.567199 146.516872 
L 339.166309 146.516872 
L 339.166309 146.063511 
L 340.36453 146.021692 
L 340.36453 144.88148 
L 340.96364 144.88148 
L 340.96364 145.676543 
L 341.56275 145.676543 
L 341.56275 146.231665 
L 342.161861 146.231665 
L 342.161861 146.071362 
L 342.760971 146.071362 
L 342.760971 145.739092 
L 343.360081 145.739092 
L 343.360081 145.302769 
L 343.959191 145.302769 
L 343.959191 145.418142 
L 344.558301 145.418142 
L 344.558301 144.669629 
L 345.756522 144.757697 
L 345.756522 144.213504 
L 346.355632 144.213504 
L 346.355632 143.543172 
L 346.954742 143.543172 
L 346.954742 142.544518 
L 347.553852 142.544518 
L 347.553852 141.661013 
L 348.152963 141.661013 
L 348.152963 138.947448 
L 348.752073 138.947448 
L 348.752073 134.748087 
L 349.351183 134.748087 
L 349.351183 135.635178 
L 349.950293 135.635178 
L 349.950293 140.157439 
L 350.549403 140.157439 
L 350.549403 139.518448 
L 351.148514 139.518448 
L 351.148514 139.086835 
L 351.747624 139.086835 
L 351.747624 139.236505 
L 352.346734 139.236505 
L 352.346734 137.200367 
L 352.945844 137.200367 
L 352.945844 136.945093 
L 353.544954 136.945093 
L 353.544954 135.63881 
L 354.144065 135.63881 
L 354.144065 134.161504 
L 354.743175 134.161504 
L 354.743175 133.362767 
L 355.342285 133.362767 
L 355.342285 132.316021 
L 355.941395 132.316021 
L 355.941395 133.13425 
L 356.540505 133.13425 
L 356.540505 132.363577 
L 357.139616 132.363577 
L 357.139616 133.370182 
L 358.337836 133.391979 
L 358.337836 133.555048 
L 358.936946 133.555048 
L 358.936946 132.677708 
L 359.536057 132.677708 
L 359.536057 133.541486 
L 360.135167 133.541486 
L 360.135167 135.714721 
L 360.734277 135.714721 
L 360.734277 135.923653 
L 361.333387 135.923653 
L 361.333387 135.395856 
L 361.932497 135.395856 
L 361.932497 136.183246 
L 362.531608 136.183246 
L 362.531608 136.622048 
L 363.130718 136.622048 
L 363.130718 136.268744 
L 363.729828 136.268744 
L 363.729828 136.107671 
L 364.328938 136.107671 
L 364.328938 135.012438 
L 364.928048 135.012438 
L 364.928048 133.993934 
L 366.126269 134.028869 
L 366.126269 133.446343 
L 366.725379 133.446343 
L 366.725379 133.873802 
L 367.324489 133.873802 
L 367.324489 134.689098 
L 367.923599 134.689098 
L 367.923599 134.185143 
L 369.12182 134.233957 
L 369.12182 134.577049 
L 369.72093 134.577049 
L 369.72093 134.166326 
L 370.91915 134.138856 
L 370.91915 134.294535 
L 371.518261 134.294535 
L 371.518261 134.064345 
L 372.716481 133.995369 
L 372.716481 133.867624 
L 373.315591 133.867624 
L 373.315591 133.546161 
L 373.914702 133.546161 
L 373.914702 133.244498 
L 374.513812 133.244498 
L 374.513812 132.522028 
L 375.112922 132.522028 
L 375.112922 132.818815 
L 375.712032 132.818815 
L 375.712032 132.474095 
L 376.311142 132.474095 
L 376.311142 132.635658 
L 376.910253 132.635658 
L 376.910253 132.137373 
L 377.509363 132.137373 
L 377.509363 132.349474 
L 378.108473 132.349474 
L 378.108473 132.470549 
L 378.707583 132.470549 
L 378.707583 132.912836 
L 379.306693 132.912836 
L 379.306693 132.665621 
L 379.905804 132.665621 
L 379.905804 130.042988 
L 380.504914 130.042988 
L 380.504914 129.020819 
L 381.104024 129.020819 
L 381.104024 127.382946 
L 381.703134 127.382946 
L 381.703134 127.582433 
L 382.302244 127.582433 
L 382.302244 124.164452 
L 382.901355 124.164452 
L 382.901355 122.297171 
L 383.500465 122.297171 
L 383.500465 127.072643 
L 384.099575 127.072643 
L 384.099575 125.844735 
L 384.698685 125.844735 
L 384.698685 124.676176 
L 385.297795 124.676176 
L 385.297795 124.25875 
L 385.896906 124.25875 
L 385.896906 124.825546 
L 387.694236 124.876494 
L 387.694236 124.689709 
L 388.293346 124.689709 
L 388.293346 124.871637 
L 388.892457 124.871637 
L 388.892457 125.052777 
L 389.491567 125.052777 
L 389.491567 126.645322 
L 390.090677 126.645322 
L 390.090677 127.764979 
L 390.689787 127.764979 
L 390.689787 127.339647 
L 391.888008 127.396023 
L 391.888008 127.828191 
L 392.487118 127.828191 
L 392.487118 127.607118 
L 393.685338 127.659019 
L 393.685338 127.807801 
L 394.883559 127.79024 
L 394.883559 126.559288 
L 395.482669 126.559288 
L 395.482669 126.118724 
L 396.081779 126.118724 
L 396.081779 126.5319 
L 397.28 126.587374 
L 397.28 127.029668 
L 397.87911 127.029668 
L 397.87911 126.604576 
L 399.67644 126.591673 
L 399.67644 126.352335 
L 400.275551 126.352335 
L 400.275551 125.686986 
L 400.874661 125.686986 
L 400.874661 125.56689 
L 401.473771 125.56689 
L 401.473771 125.886202 
L 402.072881 125.886202 
L 402.072881 125.411612 
L 402.671991 125.411612 
L 402.671991 124.143362 
L 403.271102 124.143362 
L 403.271102 122.986094 
L 403.870212 122.986094 
L 403.870212 123.63545 
L 404.469322 123.63545 
L 404.469322 123.12754 
L 405.068432 123.12754 
L 405.068432 123.724136 
L 405.667543 123.724136 
L 405.667543 122.705065 
L 407.464873 122.698798 
L 407.464873 122.891796 
L 408.063983 122.891796 
L 408.063983 122.00528 
L 409.262204 121.91311 
L 409.262204 121.86836 
L 409.861314 121.86836 
L 409.861314 121.668336 
L 410.460424 121.668336 
L 410.460424 121.280007 
L 411.059534 121.280007 
L 411.059534 118.379932 
L 411.658645 118.379932 
L 411.658645 118.022566 
L 412.257755 118.022566 
L 412.257755 117.29137 
L 412.856865 117.29137 
L 412.856865 114.492144 
L 413.455975 114.492144 
L 413.455975 118.455659 
L 414.055085 118.455659 
L 414.055085 120.915492 
L 414.654196 120.915492 
L 414.654196 120.300767 
L 415.253306 120.300767 
L 415.253306 118.785881 
L 415.852416 118.785881 
L 415.852416 119.057887 
L 416.451526 119.057887 
L 416.451526 118.277146 
L 417.050636 118.277146 
L 417.050636 116.908342 
L 417.649747 116.908342 
L 417.649747 116.351332 
L 418.248857 116.351332 
L 418.248857 116.869175 
L 418.847967 116.869175 
L 418.847967 116.548524 
L 419.447077 116.548524 
L 419.447077 115.506016 
L 420.046187 115.506016 
L 420.046187 114.207393 
L 420.645298 114.207393 
L 420.645298 113.759572 
L 421.244408 113.759572 
L 421.244408 112.497658 
L 421.843518 112.497658 
L 421.843518 111.756445 
L 422.442628 111.756445 
L 422.442628 113.044194 
L 423.041739 113.044194 
L 423.041739 112.241275 
L 423.640849 112.241275 
L 423.640849 115.245876 
L 424.239959 115.245876 
L 424.239959 114.422742 
L 424.839069 114.422742 
L 424.839069 117.354532 
L 425.438179 117.354532 
L 425.438179 115.789453 
L 426.03729 115.789453 
L 426.03729 115.02733 
L 426.6364 115.02733 
L 426.6364 113.016587 
L 427.23551 113.016587 
L 427.23551 112.744905 
L 427.83462 112.744905 
L 427.83462 113.41362 
L 428.43373 113.41362 
L 428.43373 112.891317 
L 429.032841 112.891317 
L 429.032841 112.362706 
L 429.631951 112.362706 
L 429.631951 111.489955 
L 430.231061 111.489955 
L 430.231061 110.474901 
L 430.830171 110.474901 
L 430.830171 107.93809 
L 431.429281 107.93809 
L 431.429281 106.503102 
L 432.028392 106.503102 
L 432.028392 106.001285 
L 432.627502 106.001285 
L 432.627502 105.81109 
L 433.226612 105.81109 
L 433.226612 102.564881 
L 433.825722 102.564881 
L 433.825722 98.813216 
L 434.424832 98.813216 
L 434.424832 100.947049 
L 435.023943 100.947049 
L 435.023943 98.909311 
L 435.623053 98.909311 
L 435.623053 96.633558 
L 436.222163 96.633558 
L 436.222163 95.717214 
L 436.821273 95.717214 
L 436.821273 96.582436 
L 437.420384 96.582436 
L 437.420384 97.156333 
L 438.019494 97.156333 
L 438.019494 96.936627 
L 438.618604 96.936627 
L 438.618604 98.156175 
L 439.217714 98.156175 
L 439.217714 97.840363 
L 440.415935 97.775367 
L 440.415935 98.149515 
L 441.015045 98.149515 
L 441.015045 99.751667 
L 441.614155 99.751667 
L 441.614155 102.933613 
L 442.213265 102.933613 
L 442.213265 100.152939 
L 442.812375 100.152939 
L 442.812375 96.27052 
L 443.411486 96.27052 
L 443.411486 96.952948 
L 444.010596 96.952948 
L 444.010596 95.450594 
L 445.208816 95.495395 
L 445.208816 91.946228 
L 445.807926 91.946228 
L 445.807926 89.405439 
L 446.407037 89.405439 
L 446.407037 86.931098 
L 447.006147 86.931098 
L 447.006147 88.462028 
L 447.605257 88.462028 
L 447.605257 87.134181 
L 448.204367 87.134181 
L 448.204367 86.927152 
L 448.803477 86.927152 
L 448.803477 84.624568 
L 449.402588 84.624568 
L 449.402588 86.888831 
L 450.001698 86.888831 
L 450.001698 87.138354 
L 450.600808 87.138354 
L 450.600808 89.422577 
L 451.199918 89.422577 
L 451.199918 90.4167 
L 451.799028 90.4167 
L 451.799028 90.844906 
L 452.398139 90.844906 
L 452.398139 89.078697 
L 452.997249 89.078697 
L 452.997249 87.926085 
L 453.596359 87.926085 
L 453.596359 87.243139 
L 454.195469 87.243139 
L 454.195469 86.641059 
L 454.79458 86.641059 
L 454.79458 84.980527 
L 455.39369 84.980527 
L 455.39369 81.651417 
L 456.59191 81.632127 
L 456.59191 80.927591 
L 457.19102 80.927591 
L 457.19102 81.377394 
L 457.790131 81.377394 
L 457.790131 79.245729 
L 458.389241 79.245729 
L 458.389241 76.473177 
L 458.988351 76.473177 
L 458.988351 76.195803 
L 459.587461 76.195803 
L 459.587461 80.963391 
L 460.186571 80.963391 
L 460.186571 75.147256 
L 460.785682 75.147256 
L 460.785682 74.214699 
L 461.983902 74.287991 
L 461.983902 70.497469 
L 462.583012 70.497469 
L 462.583012 68.579909 
L 463.182122 68.579909 
L 463.182122 63.802533 
L 463.781233 63.802533 
L 463.781233 62.099867 
L 464.380343 62.099867 
L 464.380343 60.390124 
L 464.979453 60.390124 
L 464.979453 57.538459 
L 465.578563 57.538459 
L 465.578563 63.900421 
L 466.177673 63.900421 
L 466.177673 61.304223 
L 466.776784 61.304223 
L 466.776784 65.673195 
L 467.375894 65.673195 
L 467.375894 62.139498 
L 467.975004 62.139498 
L 467.975004 60.655289 
L 468.574114 60.655289 
L 468.574114 64.62927 
L 469.173225 64.62927 
L 469.173225 64.227345 
L 469.772335 64.227345 
L 469.772335 67.51621 
L 470.371445 67.51621 
L 470.371445 68.73022 
L 470.970555 68.73022 
L 470.970555 67.647774 
L 471.569665 67.647774 
L 471.569665 69.928617 
L 472.168776 69.928617 
L 472.168776 74.31422 
L 473.366996 74.209169 
L 473.366996 72.683937 
L 473.966106 72.683937 
L 473.966106 69.978745 
L 474.565216 69.978745 
L 474.565216 67.976113 
L 475.164327 67.976113 
L 475.164327 70.946301 
L 475.763437 70.946301 
L 475.763437 69.678013 
L 476.362547 69.678013 
L 476.362547 67.498208 
L 476.961657 67.498208 
L 476.961657 71.738617 
L 477.560767 71.738617 
L 477.560767 72.16192 
L 478.159878 72.16192 
L 478.159878 74.080959 
L 478.758988 74.080959 
L 478.758988 72.65184 
L 479.358098 72.65184 
L 479.358098 73.51811 
L 479.957208 73.51811 
L 479.957208 74.939479 
L 480.556318 74.939479 
L 480.556318 77.997515 
L 481.155429 77.997515 
L 481.155429 78.118112 
L 482.353649 78.124771 
L 482.353649 75.079792 
L 483.551869 75.049447 
L 483.551869 72.605353 
L 484.15098 72.605353 
L 484.15098 72.741764 
L 484.75009 72.741764 
L 484.75009 71.580094 
L 485.3492 71.580094 
L 485.3492 70.835661 
L 485.94831 70.835661 
L 485.94831 71.642667 
L 486.547421 71.642667 
L 486.547421 73.842938 
L 487.146531 73.842938 
L 487.146531 73.666196 
L 487.745641 73.666196 
L 487.745641 74.216501 
L 488.344751 74.216501 
L 488.344751 76.07926 
L 488.943861 76.07926 
L 488.943861 76.531685 
L 489.542972 76.531685 
L 489.542972 76.138828 
L 490.741192 76.123256 
L 490.741192 75.804126 
L 491.340302 75.804126 
L 491.340302 78.821673 
L 491.939412 78.821673 
L 491.939412 79.01975 
L 492.538523 79.01975 
L 492.538523 78.194686 
L 493.137633 78.194686 
L 493.137633 80.073264 
L 493.736743 80.073264 
L 493.736743 81.004139 
L 494.335853 81.004139 
L 494.335853 78.597874 
L 495.534074 78.59136 
L 495.534074 79.519251 
L 496.133184 79.519251 
L 496.133184 79.77607 
L 496.732294 79.77607 
L 496.732294 76.459224 
L 497.930514 76.362608 
L 497.930514 74.966775 
L 498.529625 74.966775 
L 498.529625 74.389204 
L 499.128735 74.389204 
L 499.128735 76.340632 
L 499.727845 76.340632 
L 499.727845 78.321618 
L 500.326955 78.321618 
L 500.326955 79.843636 
L 500.926066 79.843636 
L 500.926066 79.70604 
L 501.525176 79.70604 
L 501.525176 79.02625 
L 502.124286 79.02625 
L 502.124286 78.904706 
L 502.723396 78.904706 
L 502.723396 77.781852 
L 503.322506 77.781852 
L 503.322506 77.442774 
L 503.921617 77.442774 
L 503.921617 76.491724 
L 504.520727 76.491724 
L 504.520727 79.985332 
L 505.119837 79.985332 
L 505.119837 79.529502 
L 505.718947 79.529502 
L 505.718947 78.992874 
L 506.917168 78.997047 
L 506.917168 78.728578 
L 507.516278 78.728578 
L 507.516278 78.591147 
L 508.115388 78.591147 
L 508.115388 78.91902 
L 508.714498 78.91902 
L 508.714498 78.758584 
L 509.912719 78.735838 
L 509.912719 79.723693 
L 510.511829 79.723693 
L 510.511829 78.95508 
L 511.710049 79.003632 
L 511.710049 79.07091 
L 512.309159 79.07091 
L 512.309159 79.607202 
L 512.90827 79.607202 
L 512.90827 79.417885 
L 513.50738 79.417885 
L 513.50738 78.871286 
L 514.10649 78.871286 
L 514.10649 79.269342 
L 514.7056 79.269342 
L 514.7056 81.768043 
L 515.30471 81.768043 
L 515.30471 84.870019 
L 515.903821 84.870019 
L 515.903821 87.036096 
L 516.502931 87.036096 
L 516.502931 89.614523 
L 517.102041 89.614523 
L 517.102041 87.811546 
L 517.701151 87.811546 
L 517.701151 90.057186 
L 518.300262 90.057186 
L 518.300262 90.914624 
L 518.899372 90.914624 
L 518.899372 92.548032 
L 519.498482 92.548032 
L 519.498482 91.093936 
L 520.097592 91.093936 
L 520.097592 89.243566 
L 520.696702 89.243566 
L 520.696702 89.650906 
L 521.295813 89.650906 
L 521.295813 89.921554 
L 521.894923 89.921554 
L 521.894923 89.082119 
L 522.494033 89.082119 
L 522.494033 88.37717 
L 523.093143 88.37717 
L 523.093143 90.593694 
L 523.692253 90.593694 
L 523.692253 90.395148 
L 524.291364 90.395148 
L 524.291364 90.707024 
L 524.890474 90.707024 
L 524.890474 90.920724 
L 526.088694 90.982675 
L 526.088694 91.588605 
L 527.286915 91.669672 
L 527.286915 92.028814 
L 527.886025 92.028814 
L 527.886025 90.68632 
L 528.485135 90.68632 
L 528.485135 90.804349 
L 529.084245 90.804349 
L 529.084245 89.106551 
L 529.683355 89.106551 
L 529.683355 88.045403 
L 530.282466 88.045403 
L 530.282466 89.589467 
L 531.480686 89.687407 
L 531.480686 89.31067 
L 532.678906 89.340295 
L 532.678906 89.055626 
L 533.278017 89.055626 
L 533.278017 88.58867 
L 535.075347 88.492213 
L 535.075347 88.169193 
L 535.674458 88.169193 
L 535.674458 84.612994 
L 536.273568 84.612994 
L 536.273568 83.202113 
L 536.872678 83.202113 
L 536.872678 83.962841 
L 537.471788 83.962841 
L 537.471788 83.478658 
L 538.070898 83.478658 
L 538.070898 83.048078 
L 538.670009 83.048078 
L 538.670009 82.581107 
L 539.269119 82.581107 
L 539.269119 83.078321 
L 539.868229 83.078321 
L 539.868229 82.744475 
L 540.467339 82.744475 
L 540.467339 81.676906 
L 541.066449 81.676906 
L 541.066449 79.459851 
L 541.66556 79.459851 
L 541.66556 74.833476 
L 542.26467 74.833476 
L 542.26467 76.750262 
L 542.86378 76.750262 
L 542.86378 75.776748 
L 543.46289 75.776748 
L 543.46289 73.028418 
L 544.062 73.028418 
L 544.062 74.142595 
L 544.661111 74.142595 
L 544.661111 74.479275 
L 545.260221 74.479275 
L 545.260221 74.819412 
L 545.859331 74.819412 
L 545.859331 75.023078 
L 546.458441 75.023078 
L 546.458441 72.765934 
L 547.057551 72.765934 
L 547.057551 71.831003 
L 547.656662 71.831003 
L 547.656662 68.761781 
L 548.255772 68.761781 
L 548.255772 68.179143 
L 548.854882 68.179143 
L 548.854882 69.2044 
L 549.453992 69.2044 
L 549.453992 68.502241 
L 550.053103 68.502241 
L 550.053103 65.714251 
L 550.652213 65.714251 
L 550.652213 67.722166 
L 551.251323 67.722166 
L 551.251323 70.999121 
L 551.850433 70.999121 
L 551.850433 69.18791 
L 552.449543 69.18791 
L 552.449543 70.5864 
L 553.048654 70.5864 
L 553.048654 71.361364 
L 553.647764 71.361364 
L 553.647764 69.297954 
L 554.246874 69.297954 
L 554.246874 67.587611 
L 554.845984 67.587611 
L 554.845984 67.911506 
L 555.445094 67.911506 
L 555.445094 70.300121 
L 556.044205 70.300121 
L 556.044205 69.706292 
L 556.643315 69.706292 
L 556.643315 70.110531 
L 557.242425 70.110531 
L 557.242425 69.623395 
L 557.841535 69.623395 
L 557.841535 71.199993 
L 558.440645 71.199993 
L 558.440645 69.123753 
L 559.039756 69.123753 
L 559.039756 69.378864 
L 559.638866 69.378864 
L 559.638866 70.016739 
L 560.237976 70.016739 
L 560.237976 69.720252 
L 561.436196 69.787656 
L 561.436196 70.980241 
L 562.035307 70.980241 
L 562.035307 74.334208 
L 562.634417 74.334208 
L 562.634417 74.020477 
L 563.233527 74.020477 
L 563.233527 74.447777 
L 563.832637 74.447777 
L 563.832637 73.391067 
L 564.431747 73.391067 
L 564.431747 74.115183 
L 565.030858 74.115183 
L 565.030858 74.623309 
L 565.629968 74.623309 
L 565.629968 74.26419 
L 566.229078 74.26419 
L 566.229078 73.207487 
L 566.828188 73.207487 
L 566.828188 71.505557 
L 567.427299 71.505557 
L 567.427299 71.788901 
L 568.625519 71.698084 
L 568.625519 72.367252 
L 569.224629 72.367252 
L 569.224629 73.287514 
L 569.823739 73.287514 
L 569.823739 74.378149 
L 570.42285 74.378149 
L 570.42285 76.691474 
L 571.02196 76.691474 
L 571.02196 77.032569 
L 571.62107 77.032569 
L 571.62107 75.957171 
L 572.22018 75.957171 
L 572.22018 76.950826 
L 572.81929 76.950826 
L 572.81929 76.051264 
L 573.418401 76.051264 
L 573.418401 76.961131 
L 574.017511 76.961131 
L 574.017511 77.845152 
L 574.616621 77.845152 
L 574.616621 76.95831 
L 575.215731 76.95831 
L 575.215731 76.789993 
L 575.814841 76.789993 
L 575.814841 76.650946 
L 576.413952 76.650946 
L 576.413952 76.998819 
L 577.013062 76.998819 
L 577.013062 76.512528 
L 577.612172 76.512528 
L 577.612172 75.277446 
L 578.211282 75.277446 
L 578.211282 74.552674 
L 578.810392 74.552674 
L 578.810392 72.67351 
L 579.409503 72.67351 
L 579.409503 73.079372 
L 580.008613 73.079372 
L 580.008613 74.009767 
L 580.607723 74.009767 
L 580.607723 71.835092 
L 581.805944 71.760035 
L 581.805944 70.830905 
L 582.405054 70.830905 
L 582.405054 70.627885 
L 583.004164 70.627885 
L 583.004164 69.607411 
L 583.603274 69.607411 
L 583.603274 69.974622 
L 584.202384 69.974622 
L 584.202384 71.008775 
L 584.801495 71.008775 
L 584.801495 72.934255 
L 585.400605 72.934255 
L 585.400605 73.517145 
L 585.999715 73.517145 
L 585.999715 72.300102 
L 586.598825 72.300102 
L 586.598825 74.98669 
L 587.197935 74.98669 
L 587.197935 81.945192 
L 587.797046 81.945192 
L 587.797046 82.866108 
L 588.396156 82.866108 
L 588.396156 79.966539 
L 588.995266 79.966539 
L 588.995266 78.380798 
L 589.594376 78.380798 
L 589.594376 80.979319 
L 590.193486 80.979319 
L 590.193486 78.051794 
L 590.792597 78.051794 
L 590.792597 76.535404 
L 591.391707 76.535404 
L 591.391707 77.86355 
L 592.589927 77.867319 
L 592.589927 76.765996 
L 593.189037 76.765996 
L 593.189037 77.124275 
L 593.788148 77.124275 
L 593.788148 75.584547 
L 594.387258 75.584547 
L 594.387258 73.295774 
L 594.986368 73.295774 
L 594.986368 72.706049 
L 595.585478 72.706049 
L 595.585478 70.695222 
L 596.184588 70.695222 
L 596.184588 72.868056 
L 596.783699 72.868056 
L 596.783699 71.607248 
L 597.382809 71.607248 
L 597.382809 71.341634 
L 597.981919 71.341634 
L 597.981919 73.059881 
L 598.581029 73.059881 
L 598.581029 71.21841 
L 599.18014 71.21841 
L 599.18014 69.928165 
L 599.77925 69.928165 
L 599.77925 71.104282 
L 600.37836 71.104282 
L 600.37836 70.790827 
L 600.97747 70.790827 
L 600.97747 71.42027 
L 602.175691 71.459926 
L 602.175691 71.82434 
L 603.373911 71.919577 
L 603.373911 72.040547 
L 603.973021 72.040547 
L 603.973021 72.288966 
L 604.572131 72.288966 
L 604.572131 71.886183 
L 605.770352 71.930206 
L 605.770352 72.022715 
L 606.968572 71.976571 
L 606.968572 71.126496 
L 607.567682 71.126496 
L 607.567682 68.342961 
L 608.166793 68.342961 
L 608.166793 67.802056 
L 608.765903 67.802056 
L 608.765903 68.068696 
L 609.365013 68.068696 
L 609.365013 67.06565 
L 609.964123 67.06565 
L 609.964123 67.400316 
L 610.563233 67.400316 
L 610.563233 66.817347 
L 611.761454 66.898736 
L 611.761454 67.071914 
L 612.360564 67.071914 
L 612.360564 67.466987 
L 612.959674 67.466987 
L 612.959674 66.801779 
L 613.558785 66.801779 
L 613.558785 70.016146 
L 614.157895 70.016146 
L 614.157895 69.881775 
L 614.757005 69.881775 
L 614.757005 69.680675 
L 615.356115 69.680675 
L 615.356115 68.52291 
L 615.955225 68.52291 
L 615.955225 69.487826 
L 616.554336 69.487826 
L 616.554336 68.988931 
L 617.153446 68.988931 
L 617.153446 68.712967 
L 617.752556 68.712967 
L 617.752556 69.255623 
L 618.351666 69.255623 
L 618.351666 69.030365 
L 618.950776 69.030365 
L 618.950776 67.744201 
L 619.549887 67.744201 
L 619.549887 67.521063 
L 620.148997 67.521063 
L 620.148997 67.081766 
L 620.748107 67.081766 
L 620.748107 65.151468 
L 621.347217 65.151468 
L 621.347217 64.083662 
L 621.946327 64.083662 
L 621.946327 63.851345 
L 622.545438 63.851345 
L 622.545438 63.355473 
L 623.144548 63.355473 
L 623.144548 61.545687 
L 623.743658 61.545687 
L 623.743658 60.52838 
L 624.342768 60.52838 
L 624.342768 60.005864 
L 624.941878 60.005864 
L 624.941878 57.778094 
L 625.540989 57.778094 
L 625.540989 57.263499 
L 626.140099 57.263499 
L 626.140099 58.8315 
L 626.739209 58.8315 
L 626.739209 57.20655 
L 627.338319 57.20655 
L 627.338319 57.049779 
L 627.937429 57.049779 
L 627.937429 58.256222 
L 628.53654 58.256222 
L 628.53654 57.154792 
L 629.13565 57.154792 
L 629.13565 53.477189 
L 629.73476 53.477189 
L 629.73476 52.900738 
L 630.33387 52.900738 
L 630.33387 50.806994 
L 630.932981 50.806994 
L 630.932981 49.05313 
L 631.532091 49.05313 
L 631.532091 46.35839 
L 632.131201 46.35839 
L 632.131201 42.755518 
L 632.730311 42.755518 
L 632.730311 44.867034 
L 633.329421 44.867034 
L 633.329421 44.154662 
L 633.928532 44.154662 
L 633.928532 44.600354 
L 634.527642 44.600354 
L 634.527642 46.914301 
L 635.126752 46.914301 
L 635.126752 47.994161 
L 635.725862 47.994161 
L 635.725862 46.275998 
L 636.324972 46.275998 
L 636.324972 44.060244 
L 636.924083 44.060244 
L 636.924083 39.530843 
L 637.523193 39.530843 
L 637.523193 39.056975 
L 638.122303 39.056975 
L 638.122303 38.355043 
L 638.721413 38.355043 
L 638.721413 35.738659 
L 639.320523 35.738659 
L 639.320523 37.76546 
L 639.919634 37.76546 
L 639.919634 40.079838 
L 640.518744 40.079838 
L 640.518744 38.647674 
L 641.117854 38.647674 
L 641.117854 37.111997 
L 641.716964 37.111997 
L 641.716964 35.294629 
L 642.316074 35.294629 
L 642.316074 35.428673 
L 642.915185 35.428673 
L 642.915185 35.004733 
L 643.514295 35.004733 
L 643.514295 37.031947 
L 644.113405 37.031947 
L 644.113405 35.816799 
L 644.712515 35.816799 
L 644.712515 34.780883 
L 645.910736 34.672737 
L 645.910736 34.998932 
L 646.509846 34.998932 
L 646.509846 33.197922 
L 647.108956 33.197922 
L 647.108956 34.32451 
L 647.708066 34.32451 
L 647.708066 36.54062 
L 648.307177 36.54062 
L 648.307177 38.389597 
L 648.906287 38.389597 
L 648.906287 36.624634 
L 649.505397 36.624634 
L 649.505397 35.308646 
L 650.703617 35.250138 
L 650.703617 35.471931 
L 651.302728 35.471931 
L 651.302728 39.370246 
L 651.901838 39.370246 
L 651.901838 44.08078 
L 652.500948 44.08078 
L 652.500948 45.31861 
L 653.100058 45.31861 
L 653.100058 43.291905 
L 653.699168 43.291905 
L 653.699168 43.893541 
L 654.298279 43.893541 
L 654.298279 44.123612 
L 654.897389 44.123612 
L 654.897389 46.086768 
L 655.496499 46.086768 
L 655.496499 44.895324 
L 656.095609 44.895324 
L 656.095609 43.354902 
L 656.694719 43.354902 
L 656.694719 44.840268 
L 657.29383 44.840268 
L 657.29383 45.38526 
L 658.49205 45.491461 
L 658.49205 45.844104 
L 659.09116 45.844104 
L 659.09116 45.635142 
L 659.69027 45.635142 
L 659.69027 46.047557 
L 660.289381 46.047557 
L 660.289381 46.471996 
L 660.888491 46.471996 
L 660.888491 47.113123 
L 661.487601 47.113123 
L 661.487601 46.790722 
L 662.086711 46.790722 
L 662.086711 43.889451 
L 662.685822 43.889451 
L 662.685822 41.413934 
L 663.284932 41.413934 
L 663.284932 43.453056 
L 663.884042 43.453056 
L 663.884042 40.294546 
L 664.483152 40.294546 
L 664.483152 39.859586 
L 665.082262 39.859586 
L 665.082262 39.233294 
L 665.681373 39.233294 
L 665.681373 39.371075 
L 666.280483 39.371075 
L 666.280483 38.207145 
L 666.879593 38.207145 
L 666.879593 38.397259 
L 667.478703 38.397259 
L 667.478703 39.190895 
L 668.077813 39.190895 
L 668.077813 38.035999 
L 668.676924 38.035999 
L 668.676924 39.655062 
L 669.875144 39.663458 
L 669.875144 38.924645 
L 670.474254 38.924645 
L 670.474254 41.08957 
L 671.672475 41.129865 
L 671.672475 41.994504 
L 672.271585 41.994504 
L 672.271585 38.949101 
L 672.870695 38.949101 
L 672.870695 35.975801 
L 673.469805 35.975801 
L 673.469805 36.238034 
L 674.068915 36.238034 
L 674.068915 35.244025 
L 674.668026 35.244025 
L 674.668026 33.704384 
L 675.267136 33.704384 
L 675.267136 34.121685 
L 675.866246 34.121685 
L 675.866246 34.238444 
L 676.465356 34.238444 
L 676.465356 33.782401 
L 677.064467 33.782401 
L 677.064467 33.388269 
L 678.262687 33.280629 
L 678.262687 32.79615 
L 678.861797 32.79615 
L 678.861797 33.188505 
L 679.460907 33.188505 
L 679.460907 34.988415 
L 680.060018 34.988415 
L 680.060018 35.180982 
L 680.659128 35.180982 
L 680.659128 36.173655 
L 681.258238 36.173655 
L 681.258238 35.30288 
L 681.857348 35.30288 
L 681.857348 38.265242 
L 682.456458 38.265242 
L 682.456458 38.977488 
L 683.055569 38.977488 
L 683.055569 39.361436 
L 683.654679 39.361436 
L 683.654679 39.613647 
L 684.253789 39.613647 
L 684.253789 38.44738 
L 684.852899 38.44738 
L 684.852899 37.82662 
L 685.452009 37.82662 
L 685.452009 39.511548 
L 686.05112 39.511548 
L 686.05112 39.117783 
L 686.65023 39.117783 
L 686.65023 40.98729 
L 687.24934 40.98729 
L 687.24934 41.58839 
L 687.84845 41.58839 
L 687.84845 40.997193 
L 688.44756 40.997193 
L 688.44756 41.334493 
L 689.046671 41.334493 
L 689.046671 45.136342 
L 689.645781 45.136342 
L 689.645781 44.1574 
L 690.244891 44.1574 
L 690.244891 43.568902 
L 690.844001 43.568902 
L 690.844001 44.011292 
L 691.443111 44.011292 
L 691.443111 40.657785 
L 692.042222 40.657785 
L 692.042222 41.325119 
L 692.641332 41.325119 
L 692.641332 40.338654 
L 693.240442 40.338654 
L 693.240442 42.438149 
L 693.839552 42.438149 
L 693.839552 43.903802 
L 694.438663 43.903802 
L 694.438663 43.682586 
L 695.037773 43.682586 
L 695.037773 41.295243 
L 695.636883 41.295243 
L 695.636883 43.508683 
L 696.235993 43.508683 
L 696.235993 43.138017 
L 696.835103 43.138017 
L 696.835103 42.839719 
L 697.434214 42.839719 
L 697.434214 41.410048 
L 698.033324 41.410048 
L 698.033324 41.087932 
L 698.632434 41.087932 
L 698.632434 39.317917 
L 699.231544 39.317917 
L 699.231544 39.891416 
L 699.830654 39.891416 
L 699.830654 39.424164 
L 700.429765 39.424164 
L 700.429765 41.383137 
L 701.028875 41.383137 
L 701.028875 42.444582 
L 701.627985 42.444582 
L 701.627985 42.301588 
L 702.227095 42.301588 
L 702.227095 41.816752 
L 702.826205 41.816752 
L 702.826205 42.765931 
L 703.425316 42.765931 
L 703.425316 42.611604 
L 704.024426 42.611604 
L 704.024426 43.257794 
L 704.623536 43.257794 
L 704.623536 44.604313 
L 705.222646 44.604313 
L 705.222646 47.611797 
L 705.821756 47.611797 
L 705.821756 48.222919 
L 706.420867 48.222919 
L 706.420867 49.175716 
L 707.019977 49.175716 
L 707.019977 48.086947 
L 707.619087 48.086947 
L 707.619087 48.819746 
L 708.218197 48.819746 
L 708.218197 47.156075 
L 708.817308 47.156075 
L 708.817308 48.486957 
L 709.416418 48.486957 
L 709.416418 47.53816 
L 710.015528 47.53816 
L 710.015528 49.41269 
L 710.614638 49.41269 
L 710.614638 54.004494 
L 711.213748 54.004494 
L 711.213748 55.879616 
L 711.812859 55.879616 
L 711.812859 55.350967 
L 712.411969 55.350967 
L 712.411969 55.722005 
L 713.011079 55.722005 
L 713.011079 57.206832 
L 713.610189 57.206832 
L 713.610189 56.233165 
L 714.209299 56.233165 
L 714.209299 54.885707 
L 714.80841 54.885707 
L 714.80841 56.191636 
L 715.40752 56.191636 
L 715.40752 55.652286 
L 716.00663 55.652286 
L 716.00663 53.474326 
L 716.60574 53.474326 
L 716.60574 55.149704 
L 717.20485 55.149704 
L 717.20485 52.928563 
L 717.803961 52.928563 
L 717.803961 53.624335 
L 719.002181 53.654573 
L 719.002181 52.787332 
L 719.601291 52.787332 
L 719.601291 52.492009 
L 720.200401 52.492009 
L 720.200401 53.439752 
L 720.799512 53.439752 
L 720.799512 55.053577 
L 721.398622 55.053577 
L 721.398622 56.182077 
L 721.997732 56.182077 
L 721.997732 56.623889 
L 723.195952 56.581404 
L 723.195952 57.151157 
L 723.795063 57.151157 
L 723.795063 54.689492 
L 724.394173 54.689492 
L 724.394173 56.723899 
L 724.993283 56.723899 
L 724.993283 56.879986 
L 725.592393 56.879986 
L 725.592393 57.150636 
L 726.191504 57.150636 
L 726.191504 57.33446 
L 726.790614 57.33446 
L 726.790614 57.115141 
L 727.389724 57.115141 
L 727.389724 56.247219 
L 727.988834 56.247219 
L 727.988834 56.983338 
L 729.786165 56.87303 
L 729.786165 57.264735 
L 730.385275 57.264735 
L 730.385275 56.313563 
L 730.984385 56.313563 
L 730.984385 55.611796 
L 731.583495 55.611796 
L 731.583495 56.260965 
L 732.182606 56.260965 
L 732.182606 55.511555 
L 732.781716 55.511555 
L 732.781716 59.038889 
L 733.380826 59.038889 
L 733.380826 60.171261 
L 733.979936 60.171261 
L 733.979936 60.056271 
L 734.579046 60.056271 
L 734.579046 60.653007 
L 735.178157 60.653007 
L 735.178157 60.334736 
L 735.777267 60.334736 
L 735.777267 59.478008 
L 738.173708 59.435658 
L 738.173708 60.111258 
L 738.772818 60.111258 
L 738.772818 59.791507 
L 739.971038 59.870706 
L 739.971038 60.230279 
L 741.169259 60.140113 
L 741.169259 59.884653 
L 741.768369 59.884653 
L 741.768369 59.452938 
L 742.367479 59.452938 
L 742.367479 56.482009 
L 742.966589 56.482009 
L 742.966589 55.296877 
L 743.5657 55.296877 
L 743.5657 53.80803 
L 744.16481 53.80803 
L 744.16481 53.530214 
L 744.76392 53.530214 
L 744.76392 52.959098 
L 745.36303 52.959098 
L 745.36303 53.215539 
L 745.96214 53.215539 
L 745.96214 53.815756 
L 746.561251 53.815756 
L 746.561251 54.833717 
L 747.160361 54.833717 
L 747.160361 54.308651 
L 747.759471 54.308651 
L 747.759471 52.223706 
L 748.358581 52.223706 
L 748.358581 52.599014 
L 748.957691 52.599014 
L 748.957691 53.122688 
L 750.155912 53.204455 
L 750.155912 54.129703 
L 750.755022 54.129703 
L 750.755022 56.190485 
L 751.354132 56.190485 
L 751.354132 52.121678 
L 751.953242 52.121678 
L 751.953242 50.406866 
L 752.552353 50.406866 
L 752.552353 50.162013 
L 753.151463 50.162013 
L 753.151463 49.658367 
L 754.349683 49.634556 
L 754.349683 49.800592 
L 755.547904 49.711717 
L 755.547904 48.116123 
L 756.746124 48.060185 
L 756.746124 49.071942 
L 757.345234 49.071942 
L 757.345234 49.95407 
L 757.944345 49.95407 
L 757.944345 48.623685 
L 758.543455 48.623685 
L 758.543455 49.596204 
L 759.142565 49.596204 
L 759.142565 48.586235 
L 759.741675 48.586235 
L 759.741675 49.918046 
L 760.340785 49.918046 
L 760.340785 50.548395 
L 760.939896 50.548395 
L 760.939896 50.094507 
L 761.539006 50.094507 
L 761.539006 50.570425 
L 762.138116 50.570425 
L 762.138116 50.78113 
L 762.737226 50.78113 
L 762.737226 49.842217 
L 763.336336 49.842217 
L 763.336336 50.202052 
L 764.534557 50.208161 
L 764.534557 51.260419 
L 765.133667 51.260419 
L 765.133667 51.832232 
L 765.732777 51.832232 
L 765.732777 50.887751 
L 766.331887 50.887751 
L 766.331887 48.337343 
L 766.930998 48.337343 
L 766.930998 48.095066 
L 767.530108 48.095066 
L 767.530108 47.959645 
L 768.129218 47.959645 
L 768.129218 47.760709 
L 768.728328 47.760709 
L 768.728328 48.129696 
L 769.327438 48.129696 
L 769.327438 48.012343 
L 770.525659 48.112603 
L 770.525659 48.405578 
L 771.124769 48.405578 
L 771.124769 48.830411 
L 772.322989 48.735866 
L 772.322989 48.485705 
L 772.9221 48.485705 
L 772.9221 48.920362 
L 773.52121 48.920362 
L 773.52121 48.565549 
L 774.12032 48.565549 
L 774.12032 48.757989 
L 774.71943 48.757989 
L 774.71943 50.641489 
L 775.318541 50.641489 
L 775.318541 51.051332 
L 776.516761 51.108289 
L 776.516761 49.85194 
L 777.115871 49.85194 
L 777.115871 51.247786 
L 778.913202 51.27596 
L 778.913202 50.736637 
L 779.512312 50.736637 
L 779.512312 50.56503 
L 780.111422 50.56503 
L 780.111422 50.701977 
L 780.710532 50.701977 
L 780.710532 50.982719 
L 781.309643 50.982719 
L 781.309643 50.410559 
L 781.908753 50.410559 
L 781.908753 49.803966 
L 783.106973 49.703356 
L 783.106973 50.568857 
L 783.706083 50.568857 
L 783.706083 49.290625 
L 784.305194 49.290625 
L 784.305194 48.486389 
L 784.904304 48.486389 
L 784.904304 45.816964 
L 786.102524 45.705898 
L 786.102524 44.926119 
L 786.701634 44.926119 
L 786.701634 45.149561 
L 787.300745 45.149561 
L 787.300745 44.226914 
L 789.098075 44.266325 
L 789.098075 44.718433 
L 789.697186 44.718433 
L 789.697186 43.63132 
L 790.895406 43.596061 
L 790.895406 42.507856 
L 791.494516 42.507856 
L 791.494516 40.904534 
L 792.093626 40.904534 
L 792.093626 41.883587 
L 792.692737 41.883587 
L 792.692737 41.547305 
L 793.291847 41.547305 
L 793.291847 41.39089 
L 793.890957 41.39089 
L 793.890957 40.699834 
L 794.490067 40.699834 
L 794.490067 40.824894 
L 795.089177 40.824894 
L 795.089177 41.397035 
L 795.688288 41.397035 
L 795.688288 40.495318 
L 796.287398 40.495318 
L 796.287398 39.269169 
L 796.886508 39.269169 
L 796.886508 41.11654 
L 797.485618 41.11654 
L 797.485618 40.981809 
L 798.084728 40.981809 
L 798.084728 41.679576 
L 798.683839 41.679576 
L 798.683839 42.46147 
L 799.282949 42.46147 
L 799.282949 41.501338 
L 799.882059 41.501338 
L 799.882059 41.015004 
L 800.481169 41.015004 
L 800.481169 41.206116 
L 801.080279 41.206116 
L 801.080279 39.19998 
L 801.67939 39.19998 
L 801.67939 38.119856 
L 802.2785 38.119856 
L 802.2785 37.349139 
L 804.07583 37.332668 
L 804.07583 33.965006 
L 804.674941 33.965006 
L 804.674941 31.729 
L 805.873161 31.749795 
L 805.873161 30.835384 
L 806.472271 30.835384 
L 806.472271 32.652693 
L 807.071382 32.652693 
L 807.071382 31.882442 
L 807.670492 31.882442 
L 807.670492 32.070004 
L 808.269602 32.070004 
L 808.269602 31.042778 
L 808.868712 31.042778 
L 808.868712 31.343992 
L 809.467822 31.343992 
L 809.467822 31.882371 
L 810.066933 31.882371 
L 810.066933 31.50585 
L 810.666043 31.50585 
L 810.666043 33.051438 
L 811.265153 33.051438 
L 811.265153 33.929578 
L 811.864263 33.929578 
L 811.864263 32.761808 
L 812.463373 32.761808 
L 812.463373 32.905626 
L 813.062484 32.905626 
L 813.062484 33.110187 
L 813.661594 33.110187 
L 813.661594 33.410479 
L 814.260704 33.410479 
L 814.260704 33.590713 
L 814.859814 33.590713 
L 814.859814 34.085748 
L 815.458924 34.085748 
L 815.458924 32.367076 
L 816.657145 32.358911 
L 816.657145 31.857289 
L 817.256255 31.857289 
L 817.256255 31.438461 
L 817.855365 31.438461 
L 817.855365 31.992906 
L 818.454475 31.992906 
L 818.454475 31.100034 
L 819.053586 31.100034 
L 819.053586 31.460542 
L 819.652696 31.460542 
L 819.652696 31.769534 
L 820.251806 31.769534 
L 820.251806 32.246864 
L 820.850916 32.246864 
L 820.850916 32.798789 
L 821.450027 32.798789 
L 821.450027 34.260296 
L 822.648247 34.248263 
L 822.648247 33.68599 
L 823.247357 33.68599 
L 823.247357 34.94279 
L 823.846467 34.94279 
L 823.846467 35.123556 
L 824.445578 35.123556 
L 824.445578 34.088265 
L 825.044688 34.088265 
L 825.044688 33.067483 
L 825.643798 33.067483 
L 825.643798 31.959509 
L 826.842018 31.86538 
L 826.842018 32.38501 
L 827.441129 32.38501 
L 827.441129 34.128429 
L 828.040239 34.128429 
L 828.040239 36.088704 
L 828.639349 36.088704 
L 828.639349 34.787695 
L 829.238459 34.787695 
L 829.238459 35.200085 
L 829.837569 35.200085 
L 829.837569 34.529812 
L 830.43668 34.529812 
L 830.43668 33.031903 
L 831.03579 33.031903 
L 831.03579 34.532881 
L 831.6349 34.532881 
L 831.6349 34.701726 
L 832.23401 34.701726 
L 832.23401 35.045918 
L 832.83312 35.045918 
L 832.83312 36.153138 
L 833.432231 36.153138 
L 833.432231 34.987212 
L 834.630451 34.967023 
L 834.630451 33.306037 
L 835.229561 33.306037 
L 835.229561 32.970268 
L 835.828671 32.970268 
L 835.828671 32.473656 
L 836.427782 32.473656 
L 836.427782 34.140747 
L 837.026892 34.140747 
L 837.026892 33.432953 
L 837.626002 33.432953 
L 837.626002 34.263727 
L 838.225112 34.263727 
L 838.225112 32.424933 
L 838.824223 32.424933 
L 838.824223 31.714753 
L 839.423333 31.714753 
L 839.423333 32.027671 
L 840.621553 32.132097 
L 840.621553 30.600625 
L 841.220663 30.600625 
L 841.220663 31.621643 
L 841.819774 31.621643 
L 841.819774 29.626168 
L 842.418884 29.626168 
L 842.418884 26.499155 
L 843.017994 26.499155 
L 843.017994 25.975605 
L 843.617104 25.975605 
L 843.617104 25.689606 
L 844.216214 25.689606 
L 844.216214 24.547144 
L 844.815325 24.547144 
L 844.815325 24.924442 
L 845.414435 24.924442 
L 845.414435 24.650781 
L 847.211765 24.611198 
L 847.211765 23.803137 
L 847.810876 23.803137 
L 847.810876 22.896055 
L 848.409986 22.896055 
L 848.409986 24.660503 
L 849.009096 24.660503 
L 849.009096 24.23673 
L 849.608206 24.23673 
L 849.608206 25.437498 
L 850.207316 25.437498 
L 850.207316 24.737671 
L 850.806427 24.737671 
L 850.806427 23.648225 
L 851.405537 23.648225 
L 851.405537 25.188669 
L 852.004647 25.188669 
L 852.004647 24.805478 
L 852.603757 24.805478 
L 852.603757 23.2293 
L 853.202868 23.2293 
L 853.202868 23.378299 
L 853.801978 23.378299 
L 853.801978 23.581698 
L 854.401088 23.581698 
L 854.401088 23.164957 
L 855.000198 23.164957 
L 855.000198 23.813584 
L 855.599308 23.813584 
L 855.599308 24.802658 
L 856.198419 24.802658 
L 856.198419 24.967386 
L 856.797529 24.967386 
L 856.797529 24.584829 
L 857.396639 24.584829 
L 857.396639 24.781434 
L 858.594859 24.858045 
L 858.594859 27.443092 
L 859.19397 27.443092 
L 859.19397 27.105294 
L 859.79308 27.105294 
L 859.79308 26.951053 
L 860.39219 26.951053 
L 860.39219 27.871462 
L 860.9913 27.871462 
L 860.9913 27.515877 
L 861.59041 27.515877 
L 861.59041 26.922817 
L 862.189521 26.922817 
L 862.189521 27.111059 
L 862.788631 27.111059 
L 862.788631 26.848935 
L 863.387741 26.848935 
L 863.387741 27.951152 
L 863.986851 27.951152 
L 863.986851 27.634706 
L 864.585961 27.634706 
L 864.585961 29.536377 
L 865.185072 29.536377 
L 865.185072 27.292441 
L 865.784182 27.292441 
L 865.784182 27.588873 
L 866.383292 27.588873 
L 866.383292 27.318508 
L 866.982402 27.318508 
L 866.982402 25.344464 
L 867.581512 25.344464 
L 867.581512 25.126099 
L 868.180623 25.126099 
L 868.180623 24.722463 
L 869.378843 24.744979 
L 869.378843 23.160682 
L 869.977953 23.160682 
L 869.977953 23.394744 
L 870.577064 23.394744 
L 870.577064 22.84528 
L 871.176174 22.84528 
L 871.176174 21.869799 
L 871.775284 21.869799 
L 871.775284 22.27667 
L 872.374394 22.27667 
L 872.374394 23.302755 
L 872.973504 23.302755 
L 872.973504 23.033011 
L 874.171725 22.995231 
L 874.171725 22.422615 
L 874.770835 22.422615 
L 874.770835 23.009364 
L 875.369945 23.009364 
L 875.369945 23.177159 
L 875.969055 23.177159 
L 875.969055 23.043331 
L 876.568166 23.043331 
L 876.568166 22.716336 
L 877.167276 22.716336 
L 877.167276 22.981392 
L 877.766386 22.981392 
L 877.766386 22.505073 
L 878.365496 22.505073 
L 878.365496 21.944877 
L 878.964606 21.944877 
L 878.964606 20.586427 
L 880.162827 20.555853 
L 880.162827 20.866345 
L 881.960157 20.784653 
L 881.960157 21.726605 
L 882.559268 21.726605 
L 882.559268 21.284847 
L 883.158378 21.284847 
L 883.158378 20.552727 
L 883.757488 20.552727 
L 883.757488 20.706075 
L 884.356598 20.706075 
L 884.356598 21.071829 
L 885.554819 20.965732 
L 885.554819 21.855191 
L 886.153929 21.855191 
L 886.153929 22.403729 
L 886.753039 22.403729 
L 886.753039 21.967562 
L 887.194182 21.967562 
L 887.194182 21.967562 
" clip-path="url(#pb7bac9b6ac)" style="fill: none; stroke: #3572c6; stroke-width: 1.2; stroke-linecap: square"/>
   </g>
   <g id="line2d_79">
    <path d="M 75.557818 20.552727 
L 887.194182 20.552727 
L 887.194182 20.552727 
" clip-path="url(#pb7bac9b6ac)" style="fill: none; stroke: #83a83b; stroke-width: 1.2; stroke-linecap: square"/>
   </g>
   <g id="line2d_80">
    <path d="M 75.557818 22.403729 
L 887.194182 22.403729 
L 887.194182 22.403729 
" clip-path="url(#pb7bac9b6ac)" style="fill: none; stroke: #c44e52; stroke-width: 1.2; stroke-linecap: square"/>
   </g>
   <g id="line2d_81">
    <path d="M 883.757488 300.96 
L 883.757488 7.2 
" clip-path="url(#pb7bac9b6ac)" style="fill: none; stroke: #83a83b; stroke-width: 1.2; stroke-linecap: square"/>
   </g>
   <g id="line2d_82">
    <path d="M 886.753039 300.96 
L 886.753039 7.2 
" clip-path="url(#pb7bac9b6ac)" style="fill: none; stroke: #c44e52; stroke-width: 1.2; stroke-linecap: square"/>
   </g>
   <g id="patch_3">
    <path d="M 34.976 300.96 
L 34.976 7.2 
" style="fill: none; stroke: #899ab8; stroke-width: 1.12; stroke-linejoin: miter; stroke-linecap: square"/>
   </g>
   <g id="patch_4">
    <path d="M 927.776 300.96 
L 927.776 7.2 
" style="fill: none; stroke: #899ab8; stroke-width: 1.12; stroke-linejoin: miter; stroke-linecap: square"/>
   </g>
   <g id="patch_5">
    <path d="M 34.976 300.96 
L 927.776 300.96 
" style="fill: none; stroke: #899ab8; stroke-width: 1.12; stroke-linejoin: miter; stroke-linecap: square"/>
   </g>
   <g id="patch_6">
    <path d="M 34.976 7.2 
L 927.776 7.2 
" style="fill: none; stroke: #899ab8; stroke-width: 1.12; stroke-linejoin: miter; stroke-linecap: square"/>
   </g>
   <g id="text_16">
    <!-- 119295.42 -->
    <g style="fill: #83a83b" transform="translate(184.895431 20.552727) scale(0.132 -0.132)">
     <defs>
      <path id="DejaVuSans-39" d="M 703 97 
L 703 672 
Q 941 559 1184 500 
Q 1428 441 1663 441 
Q 2288 441 2617 861 
Q 2947 1281 2994 2138 
Q 2813 1869 2534 1725 
Q 2256 1581 1919 1581 
Q 1219 1581 811 2004 
Q 403 2428 403 3163 
Q 403 3881 828 4315 
Q 1253 4750 1959 4750 
Q 2769 4750 3195 4129 
Q 3622 3509 3622 2328 
Q 3622 1225 3098 567 
Q 2575 -91 1691 -91 
Q 1453 -91 1209 -44 
Q 966 3 703 97 
z
M 1959 2075 
Q 2384 2075 2632 2365 
Q 2881 2656 2881 3163 
Q 2881 3666 2632 3958 
Q 2384 4250 1959 4250 
Q 1534 4250 1286 3958 
Q 1038 3666 1038 3163 
Q 1038 2656 1286 2365 
Q 1534 2075 1959 2075 
z
" transform="scale(0.015625)"/>
      <path id="DejaVuSans-2e" d="M 684 794 
L 1344 794 
L 1344 0 
L 684 0 
L 684 794 
z
" transform="scale(0.015625)"/>
     </defs>
     <use xlink:href="#DejaVuSans-31"/>
     <use xlink:href="#DejaVuSans-31" transform="translate(63.623047 0)"/>
     <use xlink:href="#DejaVuSans-39" transform="translate(127.246094 0)"/>
     <use xlink:href="#DejaVuSans-32" transform="translate(190.869141 0)"/>
     <use xlink:href="#DejaVuSans-39" transform="translate(254.492188 0)"/>
     <use xlink:href="#DejaVuSans-35" transform="translate(318.115234 0)"/>
     <use xlink:href="#DejaVuSans-2e" transform="translate(381.738281 0)"/>
     <use xlink:href="#DejaVuSans-34" transform="translate(413.525391 0)"/>
     <use xlink:href="#DejaVuSans-32" transform="translate(477.148438 0)"/>
    </g>
   </g>
   <g id="text_17">
    <!-- 108790.79 -->
    <g style="fill: #c44e52" transform="translate(184.895431 22.403729) scale(0.132 -0.132)">
     <defs>
      <path id="DejaVuSans-37" d="M 525 4666 
L 3525 4666 
L 3525 4397 
L 1831 0 
L 1172 0 
L 2766 4134 
L 525 4134 
L 525 4666 
z
" transform="scale(0.015625)"/>
     </defs>
     <use xlink:href="#DejaVuSans-31"/>
     <use xlink:href="#DejaVuSans-30" transform="translate(63.623047 0)"/>
     <use xlink:href="#DejaVuSans-38" transform="translate(127.246094 0)"/>
     <use xlink:href="#DejaVuSans-37" transform="translate(190.869141 0)"/>
     <use xlink:href="#DejaVuSans-39" transform="translate(254.492188 0)"/>
     <use xlink:href="#DejaVuSans-30" transform="translate(318.115234 0)"/>
     <use xlink:href="#DejaVuSans-2e" transform="translate(381.738281 0)"/>
     <use xlink:href="#DejaVuSans-37" transform="translate(413.525391 0)"/>
     <use xlink:href="#DejaVuSans-39" transform="translate(477.148438 0)"/>
    </g>
   </g>
   <g id="legend_1">
    <g id="patch_7">
     <path d="M 43.796 183.886875 
L 142.133094 183.886875 
Q 144.653094 183.886875 144.653094 181.366875 
L 144.653094 126.793125 
Q 144.653094 124.273125 142.133094 124.273125 
L 43.796 124.273125 
Q 41.276 124.273125 41.276 126.793125 
L 41.276 181.366875 
Q 41.276 183.886875 43.796 183.886875 
z
" style="fill: #373e4b; opacity: 0.8; stroke: #cccccc; stroke-width: 0.16; stroke-linejoin: miter"/>
    </g>
    <g id="line2d_83">
     <path d="M 46.316 134.477156 
L 46.316 134.477156 
L 58.916 134.477156 
L 58.916 134.477156 
L 71.516 134.477156 
" style="fill: none; stroke: #3572c6; stroke-width: 1.2; stroke-linecap: square"/>
    </g>
    <g id="text_18">
     <!-- USD/BTC -->
     <g style="fill: #b1bed6" transform="translate(81.596 138.887156) scale(0.126 -0.126)">
      <defs>
       <path id="DejaVuSans-55" d="M 556 4666 
L 1191 4666 
L 1191 1831 
Q 1191 1081 1462 751 
Q 1734 422 2344 422 
Q 2950 422 3222 751 
Q 3494 1081 3494 1831 
L 3494 4666 
L 4128 4666 
L 4128 1753 
Q 4128 841 3676 375 
Q 3225 -91 2344 -91 
Q 1459 -91 1007 375 
Q 556 841 556 1753 
L 556 4666 
z
" transform="scale(0.015625)"/>
       <path id="DejaVuSans-53" d="M 3425 4513 
L 3425 3897 
Q 3066 4069 2747 4153 
Q 2428 4238 2131 4238 
Q 1616 4238 1336 4038 
Q 1056 3838 1056 3469 
Q 1056 3159 1242 3001 
Q 1428 2844 1947 2747 
L 2328 2669 
Q 3034 2534 3370 2195 
Q 3706 1856 3706 1288 
Q 3706 609 3251 259 
Q 2797 -91 1919 -91 
Q 1588 -91 1214 -16 
Q 841 59 441 206 
L 441 856 
Q 825 641 1194 531 
Q 1563 422 1919 422 
Q 2459 422 2753 634 
Q 3047 847 3047 1241 
Q 3047 1584 2836 1778 
Q 2625 1972 2144 2069 
L 1759 2144 
Q 1053 2284 737 2584 
Q 422 2884 422 3419 
Q 422 4038 858 4394 
Q 1294 4750 2059 4750 
Q 2388 4750 2728 4690 
Q 3069 4631 3425 4513 
z
" transform="scale(0.015625)"/>
       <path id="DejaVuSans-2f" d="M 1625 4666 
L 2156 4666 
L 531 -594 
L 0 -594 
L 1625 4666 
z
" transform="scale(0.015625)"/>
       <path id="DejaVuSans-42" d="M 1259 2228 
L 1259 519 
L 2272 519 
Q 2781 519 3026 730 
Q 3272 941 3272 1375 
Q 3272 1813 3026 2020 
Q 2781 2228 2272 2228 
L 1259 2228 
z
M 1259 4147 
L 1259 2741 
L 2194 2741 
Q 2656 2741 2882 2914 
Q 3109 3088 3109 3444 
Q 3109 3797 2882 3972 
Q 2656 4147 2194 4147 
L 1259 4147 
z
M 628 4666 
L 2241 4666 
Q 2963 4666 3353 4366 
Q 3744 4066 3744 3513 
Q 3744 3084 3544 2831 
Q 3344 2578 2956 2516 
Q 3422 2416 3680 2098 
Q 3938 1781 3938 1306 
Q 3938 681 3513 340 
Q 3088 0 2303 0 
L 628 0 
L 628 4666 
z
" transform="scale(0.015625)"/>
       <path id="DejaVuSans-54" d="M -19 4666 
L 3928 4666 
L 3928 4134 
L 2272 4134 
L 2272 0 
L 1638 0 
L 1638 4134 
L -19 4134 
L -19 4666 
z
" transform="scale(0.015625)"/>
       <path id="DejaVuSans-43" d="M 4122 4306 
L 4122 3641 
Q 3803 3938 3442 4084 
Q 3081 4231 2675 4231 
Q 1875 4231 1450 3742 
Q 1025 3253 1025 2328 
Q 1025 1406 1450 917 
Q 1875 428 2675 428 
Q 3081 428 3442 575 
Q 3803 722 4122 1019 
L 4122 359 
Q 3791 134 3420 21 
Q 3050 -91 2638 -91 
Q 1578 -91 968 557 
Q 359 1206 359 2328 
Q 359 3453 968 4101 
Q 1578 4750 2638 4750 
Q 3056 4750 3426 4639 
Q 3797 4528 4122 4306 
z
" transform="scale(0.015625)"/>
      </defs>
      <use xlink:href="#DejaVuSans-55"/>
      <use xlink:href="#DejaVuSans-53" transform="translate(73.193359 0)"/>
      <use xlink:href="#DejaVuSans-44" transform="translate(136.669922 0)"/>
      <use xlink:href="#DejaVuSans-2f" transform="translate(213.671875 0)"/>
      <use xlink:href="#DejaVuSans-42" transform="translate(247.363281 0)"/>
      <use xlink:href="#DejaVuSans-54" transform="translate(315.966797 0)"/>
      <use xlink:href="#DejaVuSans-43" transform="translate(371.175781 0)"/>
     </g>
    </g>
    <g id="line2d_84">
     <path d="M 46.316 152.971594 
L 46.316 152.971594 
L 58.916 152.971594 
L 58.916 152.971594 
L 71.516 152.971594 
" style="fill: none; stroke: #83a83b; stroke-width: 1.2; stroke-linecap: square"/>
    </g>
    <g id="text_19">
     <!-- Max -->
     <g style="fill: #b1bed6" transform="translate(81.596 157.381594) scale(0.126 -0.126)">
      <defs>
       <path id="DejaVuSans-4d" d="M 628 4666 
L 1569 4666 
L 2759 1491 
L 3956 4666 
L 4897 4666 
L 4897 0 
L 4281 0 
L 4281 4097 
L 3078 897 
L 2444 897 
L 1241 4097 
L 1241 0 
L 628 0 
L 628 4666 
z
" transform="scale(0.015625)"/>
       <path id="DejaVuSans-78" d="M 3513 3500 
L 2247 1797 
L 3578 0 
L 2900 0 
L 1881 1375 
L 863 0 
L 184 0 
L 1544 1831 
L 300 3500 
L 978 3500 
L 1906 2253 
L 2834 3500 
L 3513 3500 
z
" transform="scale(0.015625)"/>
      </defs>
      <use xlink:href="#DejaVuSans-4d"/>
      <use xlink:href="#DejaVuSans-61" transform="translate(86.279297 0)"/>
      <use xlink:href="#DejaVuSans-78" transform="translate(147.558594 0)"/>
     </g>
    </g>
    <g id="line2d_85">
     <path d="M 46.316 171.466031 
L 46.316 171.466031 
L 58.916 171.466031 
L 58.916 171.466031 
L 71.516 171.466031 
" style="fill: none; stroke: #c44e52; stroke-width: 1.2; stroke-linecap: square"/>
    </g>
    <g id="text_20">
     <!-- local_Min -->
     <g style="fill: #b1bed6" transform="translate(81.596 175.876031) scale(0.126 -0.126)">
      <defs>
       <path id="DejaVuSans-6c" d="M 603 4863 
L 1178 4863 
L 1178 0 
L 603 0 
L 603 4863 
z
" transform="scale(0.015625)"/>
       <path id="DejaVuSans-6f" d="M 1959 3097 
Q 1497 3097 1228 2736 
Q 959 2375 959 1747 
Q 959 1119 1226 758 
Q 1494 397 1959 397 
Q 2419 397 2687 759 
Q 2956 1122 2956 1747 
Q 2956 2369 2687 2733 
Q 2419 3097 1959 3097 
z
M 1959 3584 
Q 2709 3584 3137 3096 
Q 3566 2609 3566 1747 
Q 3566 888 3137 398 
Q 2709 -91 1959 -91 
Q 1206 -91 779 398 
Q 353 888 353 1747 
Q 353 2609 779 3096 
Q 1206 3584 1959 3584 
z
" transform="scale(0.015625)"/>
       <path id="DejaVuSans-63" d="M 3122 3366 
L 3122 2828 
Q 2878 2963 2633 3030 
Q 2388 3097 2138 3097 
Q 1578 3097 1268 2742 
Q 959 2388 959 1747 
Q 959 1106 1268 751 
Q 1578 397 2138 397 
Q 2388 397 2633 464 
Q 2878 531 3122 666 
L 3122 134 
Q 2881 22 2623 -34 
Q 2366 -91 2075 -91 
Q 1284 -91 818 406 
Q 353 903 353 1747 
Q 353 2603 823 3093 
Q 1294 3584 2113 3584 
Q 2378 3584 2631 3529 
Q 2884 3475 3122 3366 
z
" transform="scale(0.015625)"/>
       <path id="DejaVuSans-5f" d="M 3263 -1063 
L 3263 -1509 
L -63 -1509 
L -63 -1063 
L 3263 -1063 
z
" transform="scale(0.015625)"/>
       <path id="DejaVuSans-69" d="M 603 3500 
L 1178 3500 
L 1178 0 
L 603 0 
L 603 3500 
z
M 603 4863 
L 1178 4863 
L 1178 4134 
L 603 4134 
L 603 4863 
z
" transform="scale(0.015625)"/>
       <path id="DejaVuSans-6e" d="M 3513 2113 
L 3513 0 
L 2938 0 
L 2938 2094 
Q 2938 2591 2744 2837 
Q 2550 3084 2163 3084 
Q 1697 3084 1428 2787 
Q 1159 2491 1159 1978 
L 1159 0 
L 581 0 
L 581 3500 
L 1159 3500 
L 1159 2956 
Q 1366 3272 1645 3428 
Q 1925 3584 2291 3584 
Q 2894 3584 3203 3211 
Q 3513 2838 3513 2113 
z
" transform="scale(0.015625)"/>
      </defs>
      <use xlink:href="#DejaVuSans-6c"/>
      <use xlink:href="#DejaVuSans-6f" transform="translate(27.783203 0)"/>
      <use xlink:href="#DejaVuSans-63" transform="translate(88.964844 0)"/>
      <use xlink:href="#DejaVuSans-61" transform="translate(143.945312 0)"/>
      <use xlink:href="#DejaVuSans-6c" transform="translate(205.224609 0)"/>
      <use xlink:href="#DejaVuSans-5f" transform="translate(233.007812 0)"/>
      <use xlink:href="#DejaVuSans-4d" transform="translate(283.007812 0)"/>
      <use xlink:href="#DejaVuSans-69" transform="translate(369.287109 0)"/>
      <use xlink:href="#DejaVuSans-6e" transform="translate(397.070312 0)"/>
     </g>
    </g>
   </g>
  </g>
 </g>
 <defs>
  <clipPath id="pb7bac9b6ac">
   <rect x="34.976" y="7.2" width="892.8" height="293.76"/>
  </clipPath>
 </defs>
</svg>
