<?xml version="1.0" encoding="utf-8" standalone="no"?>
<!DOCTYPE svg PUBLIC "-//W3C//DTD SVG 1.1//EN"
  "http://www.w3.org/Graphics/SVG/1.1/DTD/svg11.dtd">
<svg xmlns:xlink="http://www.w3.org/1999/xlink" width="934.976pt" height="358.290693pt" viewBox="0 0 934.976 358.290693" xmlns="http://www.w3.org/2000/svg" version="1.1">
 <metadata>
  <rdf:RDF xmlns:dc="http://purl.org/dc/elements/1.1/" xmlns:cc="http://creativecommons.org/ns#" xmlns:rdf="http://www.w3.org/1999/02/22-rdf-syntax-ns#">
   <cc:Work>
    <dc:type rdf:resource="http://purl.org/dc/dcmitype/StillImage"/>
    <dc:date>2026-04-10T20:58:50.159955</dc:date>
    <dc:format>image/svg+xml</dc:format>
    <dc:creator>
     <cc:Agent>
      <dc:title>Matplotlib v3.10.8, https://matplotlib.org/</dc:title>
     </cc:Agent>
    </dc:creator>
   </cc:Work>
  </rdf:RDF>
 </metadata>
 <defs>
  <style type="text/css">*{stroke-linejoin: round; stroke-linecap: butt}</style>
 </defs>
 <g id="figure_1">
  <g id="patch_1">
   <path d="M 0 358.290693 
L 934.976 358.290693 
L 934.976 0 
L 0 0 
z
" style="fill: #373e4b"/>
  </g>
  <g id="axes_1">
   <g id="patch_2">
    <path d="M 34.976 300.96 
L 927.776 300.96 
L 927.776 7.2 
L 34.976 7.2 
z
" style="fill: #373e4b"/>
   </g>
   <g id="matplotlib.axis_1">
    <g id="xtick_1">
     <g id="line2d_1">
      <path d="M 136.730571 300.96 
L 136.730571 7.2 
" clip-path="url(#pb8821d61b7)" style="fill: none; stroke: #546379; stroke-width: 1.12; stroke-linecap: square"/>
     </g>
     <g id="line2d_2"/>
     <g id="text_1">
      <!-- 2012 -->
      <g style="fill: #b1bed6" transform="translate(107.649531 330.884854) rotate(-30) scale(0.126 -0.126)">
       <defs>
        <path id="DejaVuSans-32" d="M 1228 531 
L 3431 531 
L 3431 0 
L 469 0 
L 469 531 
Q 828 903 1448 1529 
Q 2069 2156 2228 2338 
Q 2531 2678 2651 2914 
Q 2772 3150 2772 3378 
Q 2772 3750 2511 3984 
Q 2250 4219 1831 4219 
Q 1534 4219 1204 4116 
Q 875 4013 500 3803 
L 500 4441 
Q 881 4594 1212 4672 
Q 1544 4750 1819 4750 
Q 2544 4750 2975 4387 
Q 3406 4025 3406 3419 
Q 3406 3131 3298 2873 
Q 3191 2616 2906 2266 
Q 2828 2175 2409 1742 
Q 1991 1309 1228 531 
z
" transform="scale(0.015625)"/>
        <path id="DejaVuSans-30" d="M 2034 4250 
Q 1547 4250 1301 3770 
Q 1056 3291 1056 2328 
Q 1056 1369 1301 889 
Q 1547 409 2034 409 
Q 2525 409 2770 889 
Q 3016 1369 3016 2328 
Q 3016 3291 2770 3770 
Q 2525 4250 2034 4250 
z
M 2034 4750 
Q 2819 4750 3233 4129 
Q 3647 3509 3647 2328 
Q 3647 1150 3233 529 
Q 2819 -91 2034 -91 
Q 1250 -91 836 529 
Q 422 1150 422 2328 
Q 422 3509 836 4129 
Q 1250 4750 2034 4750 
z
" transform="scale(0.015625)"/>
        <path id="DejaVuSans-31" d="M 794 531 
L 1825 531 
L 1825 4091 
L 703 3866 
L 703 4441 
L 1819 4666 
L 2450 4666 
L 2450 531 
L 3481 531 
L 3481 0 
L 794 0 
L 794 531 
z
" transform="scale(0.015625)"/>
       </defs>
       <use xlink:href="#DejaVuSans-32"/>
       <use xlink:href="#DejaVuSans-30" transform="translate(63.623047 0)"/>
       <use xlink:href="#DejaVuSans-31" transform="translate(127.246094 0)"/>
       <use xlink:href="#DejaVuSans-32" transform="translate(190.869141 0)"/>
      </g>
     </g>
    </g>
    <g id="xtick_2">
     <g id="line2d_3">
      <path d="M 241.947705 300.96 
L 241.947705 7.2 
" clip-path="url(#pb8821d61b7)" style="fill: none; stroke: #546379; stroke-width: 1.12; stroke-linecap: square"/>
     </g>
     <g id="line2d_4"/>
     <g id="text_2">
      <!-- 2014 -->
      <g style="fill: #b1bed6" transform="translate(212.866665 330.884854) rotate(-30) scale(0.126 -0.126)">
       <defs>
        <path id="DejaVuSans-34" d="M 2419 4116 
L 825 1625 
L 2419 1625 
L 2419 4116 
z
M 2253 4666 
L 3047 4666 
L 3047 1625 
L 3713 1625 
L 3713 1100 
L 3047 1100 
L 3047 0 
L 2419 0 
L 2419 1100 
L 313 1100 
L 313 1709 
L 2253 4666 
z
" transform="scale(0.015625)"/>
       </defs>
       <use xlink:href="#DejaVuSans-32"/>
       <use xlink:href="#DejaVuSans-30" transform="translate(63.623047 0)"/>
       <use xlink:href="#DejaVuSans-31" transform="translate(127.246094 0)"/>
       <use xlink:href="#DejaVuSans-34" transform="translate(190.869141 0)"/>
      </g>
     </g>
    </g>
    <g id="xtick_3">
     <g id="line2d_5">
      <path d="M 347.020903 300.96 
L 347.020903 7.2 
" clip-path="url(#pb8821d61b7)" style="fill: none; stroke: #546379; stroke-width: 1.12; stroke-linecap: square"/>
     </g>
     <g id="line2d_6"/>
     <g id="text_3">
      <!-- 2016 -->
      <g style="fill: #b1bed6" transform="translate(317.939863 330.884854) rotate(-30) scale(0.126 -0.126)">
       <defs>
        <path id="DejaVuSans-36" d="M 2113 2584 
Q 1688 2584 1439 2293 
Q 1191 2003 1191 1497 
Q 1191 994 1439 701 
Q 1688 409 2113 409 
Q 2538 409 2786 701 
Q 3034 994 3034 1497 
Q 3034 2003 2786 2293 
Q 2538 2584 2113 2584 
z
M 3366 4563 
L 3366 3988 
Q 3128 4100 2886 4159 
Q 2644 4219 2406 4219 
Q 1781 4219 1451 3797 
Q 1122 3375 1075 2522 
Q 1259 2794 1537 2939 
Q 1816 3084 2150 3084 
Q 2853 3084 3261 2657 
Q 3669 2231 3669 1497 
Q 3669 778 3244 343 
Q 2819 -91 2113 -91 
Q 1303 -91 875 529 
Q 447 1150 447 2328 
Q 447 3434 972 4092 
Q 1497 4750 2381 4750 
Q 2619 4750 2861 4703 
Q 3103 4656 3366 4563 
z
" transform="scale(0.015625)"/>
       </defs>
       <use xlink:href="#DejaVuSans-32"/>
       <use xlink:href="#DejaVuSans-30" transform="translate(63.623047 0)"/>
       <use xlink:href="#DejaVuSans-31" transform="translate(127.246094 0)"/>
       <use xlink:href="#DejaVuSans-36" transform="translate(190.869141 0)"/>
      </g>
     </g>
    </g>
    <g id="xtick_4">
     <g id="line2d_7">
      <path d="M 452.238037 300.96 
L 452.238037 7.2 
" clip-path="url(#pb8821d61b7)" style="fill: none; stroke: #546379; stroke-width: 1.12; stroke-linecap: square"/>
     </g>
     <g id="line2d_8"/>
     <g id="text_4">
      <!-- 2018 -->
      <g style="fill: #b1bed6" transform="translate(423.156997 330.884854) rotate(-30) scale(0.126 -0.126)">
       <defs>
        <path id="DejaVuSans-38" d="M 2034 2216 
Q 1584 2216 1326 1975 
Q 1069 1734 1069 1313 
Q 1069 891 1326 650 
Q 1584 409 2034 409 
Q 2484 409 2743 651 
Q 3003 894 3003 1313 
Q 3003 1734 2745 1975 
Q 2488 2216 2034 2216 
z
M 1403 2484 
Q 997 2584 770 2862 
Q 544 3141 544 3541 
Q 544 4100 942 4425 
Q 1341 4750 2034 4750 
Q 2731 4750 3128 4425 
Q 3525 4100 3525 3541 
Q 3525 3141 3298 2862 
Q 3072 2584 2669 2484 
Q 3125 2378 3379 2068 
Q 3634 1759 3634 1313 
Q 3634 634 3220 271 
Q 2806 -91 2034 -91 
Q 1263 -91 848 271 
Q 434 634 434 1313 
Q 434 1759 690 2068 
Q 947 2378 1403 2484 
z
M 1172 3481 
Q 1172 3119 1398 2916 
Q 1625 2713 2034 2713 
Q 2441 2713 2670 2916 
Q 2900 3119 2900 3481 
Q 2900 3844 2670 4047 
Q 2441 4250 2034 4250 
Q 1625 4250 1398 4047 
Q 1172 3844 1172 3481 
z
" transform="scale(0.015625)"/>
       </defs>
       <use xlink:href="#DejaVuSans-32"/>
       <use xlink:href="#DejaVuSans-30" transform="translate(63.623047 0)"/>
       <use xlink:href="#DejaVuSans-31" transform="translate(127.246094 0)"/>
       <use xlink:href="#DejaVuSans-38" transform="translate(190.869141 0)"/>
      </g>
     </g>
    </g>
    <g id="xtick_5">
     <g id="line2d_9">
      <path d="M 557.311235 300.96 
L 557.311235 7.2 
" clip-path="url(#pb8821d61b7)" style="fill: none; stroke: #546379; stroke-width: 1.12; stroke-linecap: square"/>
     </g>
     <g id="line2d_10"/>
     <g id="text_5">
      <!-- 2020 -->
      <g style="fill: #b1bed6" transform="translate(528.230196 330.884854) rotate(-30) scale(0.126 -0.126)">
       <use xlink:href="#DejaVuSans-32"/>
       <use xlink:href="#DejaVuSans-30" transform="translate(63.623047 0)"/>
       <use xlink:href="#DejaVuSans-32" transform="translate(127.246094 0)"/>
       <use xlink:href="#DejaVuSans-30" transform="translate(190.869141 0)"/>
      </g>
     </g>
    </g>
    <g id="xtick_6">
     <g id="line2d_11">
      <path d="M 662.528369 300.96 
L 662.528369 7.2 
" clip-path="url(#pb8821d61b7)" style="fill: none; stroke: #546379; stroke-width: 1.12; stroke-linecap: square"/>
     </g>
     <g id="line2d_12"/>
     <g id="text_6">
      <!-- 2022 -->
      <g style="fill: #b1bed6" transform="translate(633.44733 330.884854) rotate(-30) scale(0.126 -0.126)">
       <use xlink:href="#DejaVuSans-32"/>
       <use xlink:href="#DejaVuSans-30" transform="translate(63.623047 0)"/>
       <use xlink:href="#DejaVuSans-32" transform="translate(127.246094 0)"/>
       <use xlink:href="#DejaVuSans-32" transform="translate(190.869141 0)"/>
      </g>
     </g>
    </g>
    <g id="xtick_7">
     <g id="line2d_13">
      <path d="M 767.601568 300.96 
L 767.601568 7.2 
" clip-path="url(#pb8821d61b7)" style="fill: none; stroke: #546379; stroke-width: 1.12; stroke-linecap: square"/>
     </g>
     <g id="line2d_14"/>
     <g id="text_7">
      <!-- 2024 -->
      <g style="fill: #b1bed6" transform="translate(738.520528 330.884854) rotate(-30) scale(0.126 -0.126)">
       <use xlink:href="#DejaVuSans-32"/>
       <use xlink:href="#DejaVuSans-30" transform="translate(63.623047 0)"/>
       <use xlink:href="#DejaVuSans-32" transform="translate(127.246094 0)"/>
       <use xlink:href="#DejaVuSans-34" transform="translate(190.869141 0)"/>
      </g>
     </g>
    </g>
    <g id="xtick_8">
     <g id="line2d_15">
      <path d="M 872.818702 300.96 
L 872.818702 7.2 
" clip-path="url(#pb8821d61b7)" style="fill: none; stroke: #546379; stroke-width: 1.12; stroke-linecap: square"/>
     </g>
     <g id="line2d_16"/>
     <g id="text_8">
      <!-- 2026 -->
      <g style="fill: #b1bed6" transform="translate(843.737662 330.884854) rotate(-30) scale(0.126 -0.126)">
       <use xlink:href="#DejaVuSans-32"/>
       <use xlink:href="#DejaVuSans-30" transform="translate(63.623047 0)"/>
       <use xlink:href="#DejaVuSans-32" transform="translate(127.246094 0)"/>
       <use xlink:href="#DejaVuSans-36" transform="translate(190.869141 0)"/>
      </g>
     </g>
    </g>
    <g id="text_9">
     <!-- Date -->
     <g style="fill: #b1bed6" transform="translate(464.166875 348.095943) scale(0.144 -0.144)">
      <defs>
       <path id="DejaVuSans-44" d="M 1259 4147 
L 1259 519 
L 2022 519 
Q 2988 519 3436 956 
Q 3884 1394 3884 2338 
Q 3884 3275 3436 3711 
Q 2988 4147 2022 4147 
L 1259 4147 
z
M 628 4666 
L 1925 4666 
Q 3281 4666 3915 4102 
Q 4550 3538 4550 2338 
Q 4550 1131 3912 565 
Q 3275 0 1925 0 
L 628 0 
L 628 4666 
z
" transform="scale(0.015625)"/>
       <path id="DejaVuSans-61" d="M 2194 1759 
Q 1497 1759 1228 1600 
Q 959 1441 959 1056 
Q 959 750 1161 570 
Q 1363 391 1709 391 
Q 2188 391 2477 730 
Q 2766 1069 2766 1631 
L 2766 1759 
L 2194 1759 
z
M 3341 1997 
L 3341 0 
L 2766 0 
L 2766 531 
Q 2569 213 2275 61 
Q 1981 -91 1556 -91 
Q 1019 -91 701 211 
Q 384 513 384 1019 
Q 384 1609 779 1909 
Q 1175 2209 1959 2209 
L 2766 2209 
L 2766 2266 
Q 2766 2663 2505 2880 
Q 2244 3097 1772 3097 
Q 1472 3097 1187 3025 
Q 903 2953 641 2809 
L 641 3341 
Q 956 3463 1253 3523 
Q 1550 3584 1831 3584 
Q 2591 3584 2966 3190 
Q 3341 2797 3341 1997 
z
" transform="scale(0.015625)"/>
       <path id="DejaVuSans-74" d="M 1172 4494 
L 1172 3500 
L 2356 3500 
L 2356 3053 
L 1172 3053 
L 1172 1153 
Q 1172 725 1289 603 
Q 1406 481 1766 481 
L 2356 481 
L 2356 0 
L 1766 0 
Q 1100 0 847 248 
Q 594 497 594 1153 
L 594 3053 
L 172 3053 
L 172 3500 
L 594 3500 
L 594 4494 
L 1172 4494 
z
" transform="scale(0.015625)"/>
       <path id="DejaVuSans-65" d="M 3597 1894 
L 3597 1613 
L 953 1613 
Q 991 1019 1311 708 
Q 1631 397 2203 397 
Q 2534 397 2845 478 
Q 3156 559 3463 722 
L 3463 178 
Q 3153 47 2828 -22 
Q 2503 -91 2169 -91 
Q 1331 -91 842 396 
Q 353 884 353 1716 
Q 353 2575 817 3079 
Q 1281 3584 2069 3584 
Q 2775 3584 3186 3129 
Q 3597 2675 3597 1894 
z
M 3022 2063 
Q 3016 2534 2758 2815 
Q 2500 3097 2075 3097 
Q 1594 3097 1305 2825 
Q 1016 2553 972 2059 
L 3022 2063 
z
" transform="scale(0.015625)"/>
      </defs>
      <use xlink:href="#DejaVuSans-44"/>
      <use xlink:href="#DejaVuSans-61" transform="translate(77.001953 0)"/>
      <use xlink:href="#DejaVuSans-74" transform="translate(138.28125 0)"/>
      <use xlink:href="#DejaVuSans-65" transform="translate(177.490234 0)"/>
     </g>
    </g>
   </g>
   <g id="matplotlib.axis_2">
    <g id="ytick_1">
     <g id="line2d_17">
      <path d="M 34.976 255.37232 
L 927.776 255.37232 
" clip-path="url(#pb8821d61b7)" style="fill: none; stroke: #546379; stroke-width: 1.12; stroke-linecap: square"/>
     </g>
     <g id="line2d_18"/>
     <g id="text_10">
      <!-- $\mathdefault{10^{0}}$ -->
      <g style="fill: #b1bed6" transform="translate(7.2 260.159335) scale(0.126 -0.126)">
       <use xlink:href="#DejaVuSans-31" transform="translate(0 0.765625)"/>
       <use xlink:href="#DejaVuSans-30" transform="translate(63.623047 0.765625)"/>
       <use xlink:href="#DejaVuSans-30" transform="translate(128.203125 39.046875) scale(0.7)"/>
      </g>
     </g>
    </g>
    <g id="ytick_2">
     <g id="line2d_19">
      <path d="M 34.976 209.254528 
L 927.776 209.254528 
" clip-path="url(#pb8821d61b7)" style="fill: none; stroke: #546379; stroke-width: 1.12; stroke-linecap: square"/>
     </g>
     <g id="line2d_20"/>
     <g id="text_11">
      <!-- $\mathdefault{10^{1}}$ -->
      <g style="fill: #b1bed6" transform="translate(7.2 214.041544) scale(0.126 -0.126)">
       <use xlink:href="#DejaVuSans-31" transform="translate(0 0.684375)"/>
       <use xlink:href="#DejaVuSans-30" transform="translate(63.623047 0.684375)"/>
       <use xlink:href="#DejaVuSans-31" transform="translate(128.203125 38.965625) scale(0.7)"/>
      </g>
     </g>
    </g>
    <g id="ytick_3">
     <g id="line2d_21">
      <path d="M 34.976 163.136737 
L 927.776 163.136737 
" clip-path="url(#pb8821d61b7)" style="fill: none; stroke: #546379; stroke-width: 1.12; stroke-linecap: square"/>
     </g>
     <g id="line2d_22"/>
     <g id="text_12">
      <!-- $\mathdefault{10^{2}}$ -->
      <g style="fill: #b1bed6" transform="translate(7.2 167.923752) scale(0.126 -0.126)">
       <use xlink:href="#DejaVuSans-31" transform="translate(0 0.765625)"/>
       <use xlink:href="#DejaVuSans-30" transform="translate(63.623047 0.765625)"/>
       <use xlink:href="#DejaVuSans-32" transform="translate(128.203125 39.046875) scale(0.7)"/>
      </g>
     </g>
    </g>
    <g id="ytick_4">
     <g id="line2d_23">
      <path d="M 34.976 117.018945 
L 927.776 117.018945 
" clip-path="url(#pb8821d61b7)" style="fill: none; stroke: #546379; stroke-width: 1.12; stroke-linecap: square"/>
     </g>
     <g id="line2d_24"/>
     <g id="text_13">
      <!-- $\mathdefault{10^{3}}$ -->
      <g style="fill: #b1bed6" transform="translate(7.2 121.805961) scale(0.126 -0.126)">
       <defs>
        <path id="DejaVuSans-33" d="M 2597 2516 
Q 3050 2419 3304 2112 
Q 3559 1806 3559 1356 
Q 3559 666 3084 287 
Q 2609 -91 1734 -91 
Q 1441 -91 1130 -33 
Q 819 25 488 141 
L 488 750 
Q 750 597 1062 519 
Q 1375 441 1716 441 
Q 2309 441 2620 675 
Q 2931 909 2931 1356 
Q 2931 1769 2642 2001 
Q 2353 2234 1838 2234 
L 1294 2234 
L 1294 2753 
L 1863 2753 
Q 2328 2753 2575 2939 
Q 2822 3125 2822 3475 
Q 2822 3834 2567 4026 
Q 2313 4219 1838 4219 
Q 1578 4219 1281 4162 
Q 984 4106 628 3988 
L 628 4550 
Q 988 4650 1302 4700 
Q 1616 4750 1894 4750 
Q 2613 4750 3031 4423 
Q 3450 4097 3450 3541 
Q 3450 3153 3228 2886 
Q 3006 2619 2597 2516 
z
" transform="scale(0.015625)"/>
       </defs>
       <use xlink:href="#DejaVuSans-31" transform="translate(0 0.765625)"/>
       <use xlink:href="#DejaVuSans-30" transform="translate(63.623047 0.765625)"/>
       <use xlink:href="#DejaVuSans-33" transform="translate(128.203125 39.046875) scale(0.7)"/>
      </g>
     </g>
    </g>
    <g id="ytick_5">
     <g id="line2d_25">
      <path d="M 34.976 70.901154 
L 927.776 70.901154 
" clip-path="url(#pb8821d61b7)" style="fill: none; stroke: #546379; stroke-width: 1.12; stroke-linecap: square"/>
     </g>
     <g id="line2d_26"/>
     <g id="text_14">
      <!-- $\mathdefault{10^{4}}$ -->
      <g style="fill: #b1bed6" transform="translate(7.2 75.688169) scale(0.126 -0.126)">
       <use xlink:href="#DejaVuSans-31" transform="translate(0 0.684375)"/>
       <use xlink:href="#DejaVuSans-30" transform="translate(63.623047 0.684375)"/>
       <use xlink:href="#DejaVuSans-34" transform="translate(128.203125 38.965625) scale(0.7)"/>
      </g>
     </g>
    </g>
    <g id="ytick_6">
     <g id="line2d_27">
      <path d="M 34.976 24.783362 
L 927.776 24.783362 
" clip-path="url(#pb8821d61b7)" style="fill: none; stroke: #546379; stroke-width: 1.12; stroke-linecap: square"/>
     </g>
     <g id="line2d_28"/>
     <g id="text_15">
      <!-- $\mathdefault{10^{5}}$ -->
      <g style="fill: #b1bed6" transform="translate(7.2 29.570378) scale(0.126 -0.126)">
       <defs>
        <path id="DejaVuSans-35" d="M 691 4666 
L 3169 4666 
L 3169 4134 
L 1269 4134 
L 1269 2991 
Q 1406 3038 1543 3061 
Q 1681 3084 1819 3084 
Q 2600 3084 3056 2656 
Q 3513 2228 3513 1497 
Q 3513 744 3044 326 
Q 2575 -91 1722 -91 
Q 1428 -91 1123 -41 
Q 819 9 494 109 
L 494 744 
Q 775 591 1075 516 
Q 1375 441 1709 441 
Q 2250 441 2565 725 
Q 2881 1009 2881 1497 
Q 2881 1984 2565 2268 
Q 2250 2553 1709 2553 
Q 1456 2553 1204 2497 
Q 953 2441 691 2322 
L 691 4666 
z
" transform="scale(0.015625)"/>
       </defs>
       <use xlink:href="#DejaVuSans-31" transform="translate(0 0.684375)"/>
       <use xlink:href="#DejaVuSans-30" transform="translate(63.623047 0.684375)"/>
       <use xlink:href="#DejaVuSans-35" transform="translate(128.203125 38.965625) scale(0.7)"/>
      </g>
     </g>
    </g>
    <g id="ytick_7">
     <g id="line2d_29"/>
    </g>
    <g id="ytick_8">
     <g id="line2d_30"/>
    </g>
    <g id="ytick_9">
     <g id="line2d_31"/>
    </g>
    <g id="ytick_10">
     <g id="line2d_32"/>
    </g>
    <g id="ytick_11">
     <g id="line2d_33"/>
    </g>
    <g id="ytick_12">
     <g id="line2d_34"/>
    </g>
    <g id="ytick_13">
     <g id="line2d_35"/>
    </g>
    <g id="ytick_14">
     <g id="line2d_36"/>
    </g>
    <g id="ytick_15">
     <g id="line2d_37"/>
    </g>
    <g id="ytick_16">
     <g id="line2d_38"/>
    </g>
    <g id="ytick_17">
     <g id="line2d_39"/>
    </g>
    <g id="ytick_18">
     <g id="line2d_40"/>
    </g>
    <g id="ytick_19">
     <g id="line2d_41"/>
    </g>
    <g id="ytick_20">
     <g id="line2d_42"/>
    </g>
    <g id="ytick_21">
     <g id="line2d_43"/>
    </g>
    <g id="ytick_22">
     <g id="line2d_44"/>
    </g>
    <g id="ytick_23">
     <g id="line2d_45"/>
    </g>
    <g id="ytick_24">
     <g id="line2d_46"/>
    </g>
    <g id="ytick_25">
     <g id="line2d_47"/>
    </g>
    <g id="ytick_26">
     <g id="line2d_48"/>
    </g>
    <g id="ytick_27">
     <g id="line2d_49"/>
    </g>
    <g id="ytick_28">
     <g id="line2d_50"/>
    </g>
    <g id="ytick_29">
     <g id="line2d_51"/>
    </g>
    <g id="ytick_30">
     <g id="line2d_52"/>
    </g>
    <g id="ytick_31">
     <g id="line2d_53"/>
    </g>
    <g id="ytick_32">
     <g id="line2d_54"/>
    </g>
    <g id="ytick_33">
     <g id="line2d_55"/>
    </g>
    <g id="ytick_34">
     <g id="line2d_56"/>
    </g>
    <g id="ytick_35">
     <g id="line2d_57"/>
    </g>
    <g id="ytick_36">
     <g id="line2d_58"/>
    </g>
    <g id="ytick_37">
     <g id="line2d_59"/>
    </g>
    <g id="ytick_38">
     <g id="line2d_60"/>
    </g>
    <g id="ytick_39">
     <g id="line2d_61"/>
    </g>
    <g id="ytick_40">
     <g id="line2d_62"/>
    </g>
    <g id="ytick_41">
     <g id="line2d_63"/>
    </g>
    <g id="ytick_42">
     <g id="line2d_64"/>
    </g>
    <g id="ytick_43">
     <g id="line2d_65"/>
    </g>
    <g id="ytick_44">
     <g id="line2d_66"/>
    </g>
    <g id="ytick_45">
     <g id="line2d_67"/>
    </g>
    <g id="ytick_46">
     <g id="line2d_68"/>
    </g>
    <g id="ytick_47">
     <g id="line2d_69"/>
    </g>
    <g id="ytick_48">
     <g id="line2d_70"/>
    </g>
    <g id="ytick_49">
     <g id="line2d_71"/>
    </g>
    <g id="ytick_50">
     <g id="line2d_72"/>
    </g>
    <g id="ytick_51">
     <g id="line2d_73"/>
    </g>
    <g id="ytick_52">
     <g id="line2d_74"/>
    </g>
    <g id="ytick_53">
     <g id="line2d_75"/>
    </g>
    <g id="ytick_54">
     <g id="line2d_76"/>
    </g>
    <g id="ytick_55">
     <g id="line2d_77"/>
    </g>
   </g>
   <g id="line2d_78">
    <path d="M 75.557818 287.607273 
L 75.557818 283.137997 
L 76.133562 283.137997 
L 76.133562 278.19371 
L 76.709305 278.19371 
L 76.709305 279.486333 
L 77.285049 279.486333 
L 77.285049 280.86817 
L 77.860792 280.86817 
L 77.860792 280.165337 
L 78.436536 280.165337 
L 78.436536 280.86817 
L 79.588023 280.86817 
L 79.588023 282.352457 
L 80.163767 282.352457 
L 80.163767 284.808022 
L 81.315254 284.808022 
L 81.315254 283.137997 
L 81.890997 283.137997 
L 81.890997 282.352457 
L 82.466741 282.352457 
L 82.466741 283.137997 
L 83.042484 283.137997 
L 83.042484 281.596567 
L 83.618228 281.596567 
L 83.618228 279.486333 
L 84.769715 279.486333 
L 84.769715 278.19371 
L 85.345459 278.19371 
L 85.345459 275.834669 
L 85.921202 275.834669 
L 85.921202 273.724434 
L 86.496946 273.724434 
L 86.496946 274.751772 
L 87.072689 274.751772 
L 87.072689 271.815495 
L 87.648433 271.815495 
L 87.648433 271.365393 
L 88.224176 271.365393 
L 88.224176 257.042345 
L 89.375663 257.042345 
L 89.375663 255.982378 
L 89.951407 255.982378 
L 89.951407 253.83089 
L 90.527151 253.83089 
L 90.527151 254.395116 
L 91.102894 254.395116 
L 91.102894 257.932656 
L 91.678638 257.932656 
L 91.678638 255.37232 
L 92.254381 255.37232 
L 92.254381 255.982378 
L 92.830125 255.982378 
L 92.830125 257.042345 
L 93.405868 257.042345 
L 93.405868 257.932656 
L 93.981612 257.932656 
L 93.981612 257.26124 
L 94.557355 257.26124 
L 94.557355 258.161558 
L 95.133099 258.161558 
L 95.133099 260.093532 
L 95.708843 260.093532 
L 95.708843 257.706341 
L 96.284586 257.706341 
L 96.284586 259.841596 
L 97.436073 259.841596 
L 97.436073 261.134218 
L 98.011817 261.134218 
L 98.011817 260.868934 
L 98.58756 260.868934 
L 98.58756 255.776954 
L 99.163304 255.776954 
L 99.163304 251.720656 
L 99.739047 251.720656 
L 99.739047 248.921405 
L 100.314791 248.921405 
L 100.314791 243.823502 
L 100.890534 243.823502 
L 100.890534 226.917627 
L 101.466278 226.917627 
L 101.466278 229.940664 
L 102.042022 229.940664 
L 102.042022 228.062436 
L 102.617765 228.062436 
L 102.617765 217.729074 
L 103.193509 217.729074 
L 103.193509 212.580386 
L 103.769252 212.580386 
L 103.769252 216.455571 
L 104.344996 216.455571 
L 104.344996 215.640255 
L 104.920739 215.640255 
L 104.920739 212.089863 
L 105.496483 212.089863 
L 105.496483 209.926627 
L 106.072226 209.926627 
L 106.072226 196.34639 
L 106.64797 196.34639 
L 106.64797 185.746445 
L 107.223714 185.746445 
L 107.223714 192.005794 
L 107.799457 192.005794 
L 107.799457 196.536537 
L 108.375201 196.536537 
L 108.375201 200.619497 
L 108.950944 200.619497 
L 108.950944 197.954799 
L 109.526688 197.954799 
L 109.526688 198.218565 
L 110.102431 198.218565 
L 110.102431 200.169105 
L 110.678175 200.169105 
L 110.678175 199.716176 
L 111.253918 199.716176 
L 111.253918 201.040338 
L 111.829662 201.040338 
L 111.829662 202.160926 
L 112.405406 202.160926 
L 112.405406 201.757417 
L 112.981149 201.757417 
L 112.981149 202.615821 
L 113.556893 202.615821 
L 113.556893 202.372872 
L 114.132636 202.372872 
L 114.132636 201.702393 
L 114.70838 201.702393 
L 114.70838 206.455278 
L 115.284123 206.455278 
L 115.284123 209.94735 
L 115.859867 209.94735 
L 115.859867 209.395222 
L 116.43561 209.395222 
L 116.43561 206.700602 
L 117.011354 206.700602 
L 117.011354 206.024537 
L 117.587097 206.024537 
L 117.587097 206.806668 
L 118.162841 206.806668 
L 118.162841 210.324077 
L 118.738585 210.324077 
L 118.738585 212.604047 
L 119.314328 212.604047 
L 119.314328 213.058992 
L 119.890072 213.058992 
L 119.890072 217.097011 
L 120.465815 217.097011 
L 120.465815 218.861295 
L 121.041559 218.861295 
L 121.041559 223.057412 
L 121.617302 223.057412 
L 121.617302 218.893678 
L 122.193046 218.893678 
L 122.193046 221.264877 
L 122.768789 221.264877 
L 122.768789 223.379165 
L 123.344533 223.379165 
L 123.344533 222.898453 
L 123.920277 222.898453 
L 123.920277 223.996748 
L 124.49602 223.996748 
L 124.49602 226.821103 
L 125.071764 226.821103 
L 125.071764 227.556633 
L 125.647507 227.556633 
L 125.647507 236.311847 
L 126.223251 236.311847 
L 126.223251 231.338582 
L 126.798994 231.338582 
L 126.798994 232.711804 
L 127.374738 232.711804 
L 127.374738 230.97985 
L 127.950481 230.97985 
L 127.950481 231.951129 
L 128.526225 231.951129 
L 128.526225 232.138606 
L 129.101969 232.138606 
L 129.101969 232.647299 
L 129.677712 232.647299 
L 129.677712 236.234665 
L 130.253456 236.234665 
L 130.253456 237.424839 
L 130.829199 237.424839 
L 130.829199 237.181079 
L 131.404943 237.181079 
L 131.404943 235.928878 
L 131.980686 235.928878 
L 131.980686 232.455022 
L 132.55643 232.455022 
L 132.55643 232.97192 
L 133.132173 232.97192 
L 133.132173 232.583001 
L 133.707917 232.583001 
L 133.707917 231.703858 
L 134.28366 231.703858 
L 134.28366 231.098715 
L 134.859404 231.098715 
L 134.859404 227.707037 
L 135.435148 227.707037 
L 135.435148 226.39241 
L 136.010891 226.39241 
L 136.010891 225.381573 
L 136.586635 225.381573 
L 136.586635 221.707518 
L 137.162378 221.707518 
L 137.162378 216.227322 
L 137.738122 216.227322 
L 137.738122 216.114165 
L 138.313865 216.114165 
L 138.313865 216.284141 
L 138.889609 216.284141 
L 138.889609 218.287185 
L 139.465352 218.287185 
L 139.465352 217.975205 
L 140.041096 217.975205 
L 140.041096 220.513041 
L 140.61684 220.513041 
L 140.61684 220.689506 
L 141.192583 220.689506 
L 141.192583 219.519112 
L 141.768327 219.519112 
L 141.768327 220.027052 
L 142.919814 220.095761 
L 142.919814 224.206915 
L 143.495557 224.206915 
L 143.495557 225.247601 
L 144.071301 225.247601 
L 144.071301 222.467712 
L 144.647044 222.467712 
L 144.647044 223.217642 
L 145.222788 223.217642 
L 145.222788 223.913295 
L 145.798532 223.913295 
L 145.798532 222.938075 
L 146.374275 222.938075 
L 146.374275 223.217642 
L 146.950019 223.217642 
L 146.950019 221.448123 
L 147.525762 221.448123 
L 147.525762 222.236609 
L 148.101506 222.236609 
L 148.101506 223.913295 
L 148.677249 223.913295 
L 148.677249 224.080551 
L 149.252993 224.080551 
L 149.252993 223.379165 
L 150.40448 223.298241 
L 150.40448 223.954978 
L 150.980223 223.954978 
L 150.980223 223.257901 
L 152.131711 223.177464 
L 152.131711 222.198349 
L 152.707454 222.198349 
L 152.707454 222.390381 
L 153.283198 222.390381 
L 153.283198 222.780056 
L 153.858941 222.780056 
L 153.858941 222.429009 
L 154.434685 222.429009 
L 154.434685 222.740746 
L 155.586172 222.740746 
L 155.586172 222.938075 
L 156.161915 222.938075 
L 156.161915 222.623275 
L 157.889146 222.545342 
L 157.889146 222.429009 
L 158.46489 222.429009 
L 158.46489 222.084008 
L 159.040633 222.084008 
L 159.040633 221.011116 
L 160.19212 220.939199 
L 160.19212 218.604102 
L 160.767864 218.604102 
L 160.767864 217.698519 
L 161.343607 217.698519 
L 161.343607 217.455744 
L 161.919351 217.455744 
L 161.919351 217.637549 
L 162.495095 217.637549 
L 162.495095 217.245703 
L 163.070838 217.245703 
L 163.070838 217.097011 
L 163.646582 217.097011 
L 163.646582 216.455571 
L 164.222325 216.455571 
L 164.222325 214.102908 
L 164.798069 214.102908 
L 164.798069 210.345215 
L 165.373812 210.345215 
L 165.373812 210.218718 
L 165.949556 210.218718 
L 165.949556 211.814865 
L 166.525299 211.814865 
L 166.525299 211.476343 
L 167.101043 211.476343 
L 167.101043 209.015614 
L 167.676787 209.015614 
L 167.676787 206.931125 
L 168.25253 206.931125 
L 168.25253 206.281868 
L 168.828274 206.281868 
L 168.828274 205.108303 
L 169.404017 205.108303 
L 169.404017 201.840237 
L 169.979761 201.840237 
L 169.979761 208.740437 
L 170.555504 208.740437 
L 170.555504 207.363805 
L 171.131248 207.363805 
L 171.131248 207.510134 
L 171.706991 207.510134 
L 171.706991 208.239211 
L 172.282735 208.239211 
L 172.282735 206.859912 
L 173.434222 206.913298 
L 173.434222 205.87171 
L 174.009966 205.87171 
L 174.009966 204.57803 
L 174.585709 204.57803 
L 174.585709 205.140897 
L 175.161453 205.140897 
L 175.161453 204.849447 
L 175.737196 204.849447 
L 175.737196 204.657477 
L 176.31294 204.657477 
L 176.31294 204.045986 
L 176.888683 204.045986 
L 176.888683 205.108303 
L 177.464427 205.108303 
L 177.464427 205.43665 
L 178.04017 205.43665 
L 178.04017 205.636273 
L 178.615914 205.636273 
L 178.615914 205.939489 
L 179.191658 205.939489 
L 179.191658 206.351052 
L 179.767401 206.351052 
L 179.767401 207.473452 
L 180.343145 207.473452 
L 180.343145 207.236638 
L 180.918888 207.236638 
L 180.918888 207.400287 
L 182.070375 207.436836 
L 182.070375 207.218538 
L 182.646119 207.218538 
L 182.646119 205.905571 
L 183.221862 205.905571 
L 183.221862 205.075763 
L 183.797606 205.075763 
L 183.797606 204.593894 
L 184.949093 204.530512 
L 184.949093 203.86153 
L 185.524837 203.86153 
L 185.524837 203.169779 
L 186.10058 203.169779 
L 186.10058 202.803614 
L 186.676324 202.803614 
L 186.676324 203.051876 
L 187.827811 202.949278 
L 187.827811 203.318141 
L 188.403554 203.318141 
L 188.403554 203.022509 
L 188.979298 203.022509 
L 188.979298 203.214173 
L 190.130785 203.184566 
L 190.130785 202.529737 
L 190.706529 202.529737 
L 190.706529 202.076772 
L 191.282272 202.076772 
L 191.282272 200.438123 
L 191.858016 200.438123 
L 191.858016 198.474155 
L 192.433759 198.474155 
L 192.433759 196.8899 
L 193.009503 196.8899 
L 193.009503 195.593226 
L 193.585246 195.593226 
L 193.585246 194.394486 
L 194.16099 194.394486 
L 194.16099 193.895273 
L 194.736733 193.895273 
L 194.736733 191.745077 
L 195.312477 191.745077 
L 195.312477 189.21317 
L 195.888221 189.21317 
L 195.888221 189.375826 
L 196.463964 189.375826 
L 196.463964 186.90656 
L 197.039708 186.90656 
L 197.039708 186.46521 
L 197.615451 186.46521 
L 197.615451 184.597163 
L 198.191195 184.597163 
L 198.191195 180.511647 
L 198.766938 180.511647 
L 198.766938 178.864525 
L 199.342682 178.864525 
L 199.342682 178.318608 
L 199.918425 178.318608 
L 199.918425 176.187869 
L 200.494169 176.187869 
L 200.494169 170.209069 
L 201.069913 170.209069 
L 201.069913 167.911261 
L 201.645656 167.911261 
L 201.645656 164.698205 
L 202.2214 164.698205 
L 202.2214 157.728444 
L 202.797143 157.728444 
L 202.797143 153.314284 
L 203.372887 153.314284 
L 203.372887 158.68349 
L 203.94863 158.68349 
L 203.94863 170.831623 
L 204.524374 170.831623 
L 204.524374 159.666147 
L 205.100117 159.666147 
L 205.100117 156.043135 
L 205.675861 156.043135 
L 205.675861 158.114365 
L 206.251604 158.114365 
L 206.251604 159.992155 
L 206.827348 159.992155 
L 206.827348 160.16753 
L 207.403092 160.16753 
L 207.403092 160.743898 
L 207.978835 160.743898 
L 207.978835 159.823395 
L 208.554579 159.823395 
L 208.554579 158.938472 
L 209.706066 159.039422 
L 209.706066 157.577651 
L 210.857553 157.530665 
L 210.857553 159.085179 
L 211.433296 159.085179 
L 211.433296 159.657728 
L 212.00904 159.657728 
L 212.00904 161.9508 
L 212.584784 161.9508 
L 212.584784 163.140743 
L 213.160527 163.140743 
L 213.160527 161.708753 
L 213.736271 161.708753 
L 213.736271 161.530504 
L 214.312014 161.530504 
L 214.312014 162.351197 
L 214.887758 162.351197 
L 214.887758 163.695241 
L 215.463501 163.695241 
L 215.463501 167.596001 
L 216.039245 167.596001 
L 216.039245 168.504633 
L 216.614988 168.504633 
L 216.614988 164.378152 
L 217.190732 164.378152 
L 217.190732 163.736474 
L 217.766476 163.736474 
L 217.766476 165.383183 
L 218.342219 165.383183 
L 218.342219 164.267648 
L 218.917963 164.267648 
L 218.917963 163.398817 
L 219.493706 163.398817 
L 219.493706 162.232149 
L 220.06945 162.232149 
L 220.06945 161.834102 
L 220.645193 161.834102 
L 220.645193 162.583641 
L 221.220937 162.583641 
L 221.220937 161.3465 
L 221.79668 161.3465 
L 221.79668 163.194904 
L 222.372424 163.194904 
L 222.372424 161.149656 
L 222.948167 161.149656 
L 222.948167 160.639309 
L 223.523911 160.639309 
L 223.523911 159.737009 
L 224.099655 159.737009 
L 224.099655 157.86806 
L 224.675398 157.86806 
L 224.675398 159.888004 
L 225.251142 159.888004 
L 225.251142 159.150729 
L 225.826885 159.150729 
L 225.826885 158.820261 
L 226.402629 158.820261 
L 226.402629 158.330623 
L 226.978372 158.330623 
L 226.978372 159.001913 
L 227.554116 159.001913 
L 227.554116 158.72362 
L 228.129859 158.72362 
L 228.129859 158.468169 
L 228.705603 158.468169 
L 228.705603 159.163865 
L 229.281347 159.163865 
L 229.281347 158.808962 
L 229.85709 158.808962 
L 229.85709 158.256707 
L 230.432834 158.256707 
L 230.432834 156.658265 
L 231.008577 156.658265 
L 231.008577 150.694477 
L 231.584321 150.694477 
L 231.584321 149.727115 
L 232.160064 149.727115 
L 232.160064 148.57456 
L 232.735808 148.57456 
L 232.735808 148.955699 
L 233.311551 148.955699 
L 233.311551 144.578193 
L 233.887295 144.578193 
L 233.887295 139.224019 
L 234.463039 139.224019 
L 234.463039 135.724665 
L 235.038782 135.724665 
L 235.038782 131.929122 
L 235.614526 131.929122 
L 235.614526 123.688509 
L 236.190269 123.688509 
L 236.190269 121.126976 
L 236.766013 121.126976 
L 236.766013 114.501195 
L 237.341756 114.501195 
L 237.341756 116.037736 
L 237.9175 116.037736 
L 237.9175 123.994292 
L 238.493243 123.994292 
L 238.493243 119.650419 
L 239.068987 119.650419 
L 239.068987 119.97045 
L 239.644731 119.97045 
L 239.644731 124.587763 
L 240.220474 124.587763 
L 240.220474 125.341484 
L 240.796218 125.341484 
L 240.796218 123.488046 
L 241.371961 123.488046 
L 241.371961 123.267395 
L 241.947705 123.267395 
L 241.947705 120.781313 
L 242.523448 120.781313 
L 242.523448 120.913218 
L 243.099192 120.913218 
L 243.099192 120.41492 
L 243.674935 120.41492 
L 243.674935 121.063393 
L 244.250679 121.063393 
L 244.250679 120.803802 
L 244.826422 120.803802 
L 244.826422 121.99479 
L 245.402166 121.99479 
L 245.402166 121.852022 
L 245.97791 121.852022 
L 245.97791 121.065109 
L 246.553653 121.065109 
L 246.553653 121.969642 
L 247.129397 121.969642 
L 247.129397 124.527356 
L 247.70514 124.527356 
L 247.70514 126.919059 
L 248.280884 126.919059 
L 248.280884 126.274188 
L 248.856627 126.274188 
L 248.856627 127.946397 
L 249.432371 127.946397 
L 249.432371 128.649132 
L 250.008114 128.649132 
L 250.008114 128.366202 
L 250.583858 128.366202 
L 250.583858 125.019077 
L 251.159602 125.019077 
L 251.159602 125.960627 
L 252.311089 125.925914 
L 252.311089 126.441804 
L 252.886832 126.441804 
L 252.886832 128.176165 
L 253.462576 128.176165 
L 253.462576 127.730173 
L 254.038319 127.730173 
L 254.038319 131.306418 
L 254.614063 131.306418 
L 254.614063 133.502218 
L 255.189806 133.502218 
L 255.189806 132.65908 
L 255.76555 132.65908 
L 255.76555 136.986733 
L 256.341294 136.986733 
L 256.341294 132.58749 
L 256.917037 132.58749 
L 256.917037 131.631546 
L 257.492781 131.631546 
L 257.492781 131.367004 
L 258.068524 131.367004 
L 258.068524 132.507473 
L 258.644268 132.507473 
L 258.644268 132.92187 
L 259.220011 132.92187 
L 259.220011 133.610609 
L 260.371498 133.571209 
L 260.371498 133.350906 
L 260.947242 133.350906 
L 260.947242 133.051224 
L 261.522985 133.051224 
L 261.522985 131.38341 
L 262.098729 131.38341 
L 262.098729 129.81387 
L 262.674473 129.81387 
L 262.674473 127.894621 
L 263.250216 127.894621 
L 263.250216 126.250357 
L 263.82596 126.250357 
L 263.82596 125.296318 
L 264.401703 125.296318 
L 264.401703 125.68367 
L 264.977447 125.68367 
L 264.977447 127.534196 
L 265.55319 127.534196 
L 265.55319 126.984835 
L 266.128934 126.984835 
L 266.128934 127.554182 
L 266.704677 127.554182 
L 266.704677 128.604794 
L 267.280421 128.604794 
L 267.280421 127.250453 
L 267.856165 127.250453 
L 267.856165 125.790765 
L 268.431908 125.790765 
L 268.431908 126.453349 
L 269.007652 126.453349 
L 269.007652 126.146152 
L 269.583395 126.146152 
L 269.583395 126.462333 
L 270.159139 126.462333 
L 270.159139 126.272916 
L 270.734882 126.272916 
L 270.734882 126.579496 
L 271.310626 126.579496 
L 271.310626 127.462208 
L 271.886369 127.462208 
L 271.886369 127.858802 
L 272.462113 127.858802 
L 272.462113 127.63773 
L 273.6136 127.6214 
L 273.6136 128.312275 
L 274.189344 128.312275 
L 274.189344 129.967354 
L 274.765087 129.967354 
L 274.765087 130.161745 
L 275.340831 130.161745 
L 275.340831 130.582678 
L 276.492318 130.638739 
L 276.492318 131.871859 
L 277.068061 131.871859 
L 277.068061 131.474298 
L 277.643805 131.474298 
L 277.643805 131.998816 
L 278.219548 131.998816 
L 278.219548 131.848327 
L 278.795292 131.848327 
L 278.795292 132.839184 
L 279.371036 132.839184 
L 279.371036 135.31356 
L 279.946779 135.31356 
L 279.946779 134.867219 
L 280.522523 134.867219 
L 280.522523 136.724127 
L 281.098266 136.724127 
L 281.098266 137.542587 
L 281.67401 137.542587 
L 281.67401 138.979109 
L 282.249753 138.979109 
L 282.249753 137.373098 
L 282.825497 137.373098 
L 282.825497 135.631111 
L 283.40124 135.631111 
L 283.40124 135.906922 
L 283.976984 135.906922 
L 283.976984 137.637682 
L 284.552728 137.637682 
L 284.552728 137.994084 
L 285.128471 137.994084 
L 285.128471 138.756714 
L 285.704215 138.756714 
L 285.704215 139.210064 
L 286.279958 139.210064 
L 286.279958 138.221398 
L 286.855702 138.221398 
L 286.855702 134.384797 
L 287.431445 134.384797 
L 287.431445 135.88482 
L 288.007189 135.88482 
L 288.007189 137.678656 
L 288.582932 137.678656 
L 288.582932 136.686127 
L 289.158676 136.686127 
L 289.158676 136.558209 
L 289.73442 136.558209 
L 289.73442 136.418436 
L 290.310163 136.418436 
L 290.310163 136.661012 
L 290.885907 136.661012 
L 290.885907 138.114882 
L 291.46165 138.114882 
L 291.46165 137.604067 
L 292.037394 137.604067 
L 292.037394 140.330735 
L 292.613137 140.330735 
L 292.613137 139.104206 
L 293.188881 139.104206 
L 293.188881 139.227661 
L 293.764624 139.227661 
L 293.764624 140.411716 
L 294.340368 140.411716 
L 294.340368 142.153972 
L 294.916111 142.153972 
L 294.916111 141.267602 
L 295.491855 141.267602 
L 295.491855 143.266944 
L 296.067599 143.266944 
L 296.067599 148.256676 
L 296.643342 148.256676 
L 296.643342 147.711541 
L 297.219086 147.711541 
L 297.219086 146.134154 
L 297.794829 146.134154 
L 297.794829 143.729744 
L 298.370573 143.729744 
L 298.370573 147.413355 
L 298.946316 147.413355 
L 298.946316 146.743214 
L 299.52206 146.743214 
L 299.52206 146.990332 
L 300.097803 146.990332 
L 300.097803 147.133952 
L 300.673547 147.133952 
L 300.673547 146.066566 
L 301.249291 146.066566 
L 301.249291 145.125593 
L 301.825034 145.125593 
L 301.825034 145.607242 
L 302.400778 145.607242 
L 302.400778 144.506165 
L 302.976521 144.506165 
L 302.976521 143.238742 
L 303.552265 143.238742 
L 303.552265 142.875683 
L 304.128008 142.875683 
L 304.128008 141.476374 
L 304.703752 141.476374 
L 304.703752 141.861751 
L 305.279495 141.861751 
L 305.279495 143.837962 
L 305.855239 143.837962 
L 305.855239 145.189256 
L 306.430983 145.189256 
L 306.430983 144.548875 
L 307.006726 144.548875 
L 307.006726 145.067818 
L 307.58247 145.067818 
L 307.58247 143.959065 
L 308.158213 143.959065 
L 308.158213 145.353427 
L 308.733957 145.353427 
L 308.733957 147.072788 
L 309.885444 147.106045 
L 309.885444 145.951593 
L 310.461187 145.951593 
L 310.461187 146.780354 
L 311.612674 146.839743 
L 311.612674 145.646513 
L 312.188418 145.646513 
L 312.188418 145.840654 
L 312.764162 145.840654 
L 312.764162 145.52311 
L 313.339905 145.52311 
L 313.339905 145.822927 
L 313.915649 145.822927 
L 313.915649 146.333104 
L 314.491392 146.333104 
L 314.491392 145.790046 
L 315.067136 145.790046 
L 315.067136 145.997503 
L 315.642879 145.997503 
L 315.642879 146.599727 
L 316.218623 146.599727 
L 316.218623 147.084466 
L 316.794366 147.084466 
L 316.794366 146.659462 
L 317.37011 146.659462 
L 317.37011 146.489511 
L 317.945854 146.489511 
L 317.945854 144.786225 
L 318.521597 144.786225 
L 318.521597 145.209704 
L 319.097341 145.209704 
L 319.097341 145.58555 
L 319.673084 145.58555 
L 319.673084 144.899515 
L 320.248828 144.899515 
L 320.248828 144.413151 
L 320.824571 144.413151 
L 320.824571 143.352536 
L 321.400315 143.352536 
L 321.400315 142.165919 
L 321.976058 142.165919 
L 321.976058 141.956134 
L 322.551802 141.956134 
L 322.551802 142.749355 
L 323.703289 142.660533 
L 323.703289 141.618141 
L 324.279033 141.618141 
L 324.279033 141.919299 
L 324.854776 141.919299 
L 324.854776 142.434841 
L 325.43052 142.434841 
L 325.43052 142.563496 
L 326.006263 142.563496 
L 326.006263 143.170627 
L 326.582007 143.170627 
L 326.582007 143.889226 
L 327.15775 143.889226 
L 327.15775 146.783894 
L 327.733494 146.783894 
L 327.733494 146.617278 
L 328.309238 146.617278 
L 328.309238 146.885067 
L 328.884981 146.885067 
L 328.884981 146.432889 
L 330.036468 146.391179 
L 330.036468 145.253943 
L 330.612212 145.253943 
L 330.612212 146.046931 
L 331.187955 146.046931 
L 331.187955 146.600604 
L 331.763699 146.600604 
L 331.763699 146.44072 
L 332.339442 146.44072 
L 332.339442 146.109317 
L 332.915186 146.109317 
L 332.915186 145.674132 
L 333.490929 145.674132 
L 333.490929 145.789204 
L 334.066673 145.789204 
L 334.066673 145.042645 
L 335.21816 145.130483 
L 335.21816 144.58771 
L 335.793904 144.58771 
L 335.793904 143.919127 
L 336.369647 143.919127 
L 336.369647 142.92308 
L 336.945391 142.92308 
L 336.945391 142.04188 
L 337.521134 142.04188 
L 337.521134 139.335396 
L 338.096878 139.335396 
L 338.096878 135.146995 
L 338.672621 135.146995 
L 338.672621 136.03177 
L 339.248365 136.03177 
L 339.248365 140.54223 
L 339.824109 140.54223 
L 339.824109 139.904907 
L 340.399852 139.904907 
L 340.399852 139.474419 
L 340.975596 139.474419 
L 340.975596 139.623699 
L 341.551339 139.623699 
L 341.551339 137.592875 
L 342.127083 137.592875 
L 342.127083 137.338267 
L 342.702826 137.338267 
L 342.702826 136.035393 
L 343.27857 136.035393 
L 343.27857 134.561942 
L 343.854313 134.561942 
L 343.854313 133.765289 
L 344.430057 133.765289 
L 344.430057 132.721275 
L 345.005801 132.721275 
L 345.005801 133.537369 
L 345.581544 133.537369 
L 345.581544 132.768707 
L 346.157288 132.768707 
L 346.157288 133.772685 
L 347.308775 133.794425 
L 347.308775 133.957068 
L 347.884518 133.957068 
L 347.884518 133.082018 
L 348.460262 133.082018 
L 348.460262 133.943542 
L 349.036005 133.943542 
L 349.036005 136.111106 
L 349.611749 136.111106 
L 349.611749 136.319493 
L 350.187492 136.319493 
L 350.187492 135.793073 
L 350.763236 135.793073 
L 350.763236 136.578408 
L 351.33898 136.578408 
L 351.33898 137.016065 
L 351.914723 137.016065 
L 351.914723 136.663682 
L 352.490467 136.663682 
L 352.490467 136.503031 
L 353.06621 136.503031 
L 353.06621 135.410655 
L 353.641954 135.410655 
L 353.641954 134.39481 
L 354.793441 134.429653 
L 354.793441 133.848648 
L 355.369184 133.848648 
L 355.369184 134.274991 
L 355.944928 134.274991 
L 355.944928 135.088159 
L 356.520672 135.088159 
L 356.520672 134.58552 
L 357.672159 134.634206 
L 357.672159 134.976402 
L 358.247902 134.976402 
L 358.247902 134.566752 
L 359.399389 134.539353 
L 359.399389 134.694626 
L 359.975133 134.694626 
L 359.975133 134.465036 
L 361.12662 134.39624 
L 361.12662 134.268829 
L 361.702364 134.268829 
L 361.702364 133.948205 
L 362.278107 133.948205 
L 362.278107 133.647329 
L 362.853851 133.647329 
L 362.853851 132.926744 
L 363.429594 132.926744 
L 363.429594 133.222757 
L 364.005338 133.222757 
L 364.005338 132.878937 
L 364.581081 132.878937 
L 364.581081 133.040078 
L 365.156825 133.040078 
L 365.156825 132.543093 
L 365.732568 132.543093 
L 365.732568 132.754641 
L 366.308312 132.754641 
L 366.308312 132.8754 
L 366.884055 132.8754 
L 366.884055 133.316532 
L 367.459799 133.316532 
L 367.459799 133.069963 
L 368.035543 133.069963 
L 368.035543 130.454174 
L 368.611286 130.454174 
L 368.611286 129.434672 
L 369.18703 129.434672 
L 369.18703 127.801074 
L 369.762773 127.801074 
L 369.762773 128.00004 
L 370.338517 128.00004 
L 370.338517 124.590979 
L 370.91426 124.590979 
L 370.91426 122.72857 
L 371.490004 122.72857 
L 371.490004 127.49158 
L 372.065747 127.49158 
L 372.065747 126.266876 
L 372.641491 126.266876 
L 372.641491 125.101367 
L 373.217235 125.101367 
L 373.217235 124.68503 
L 373.792978 124.68503 
L 373.792978 125.250347 
L 375.520209 125.301163 
L 375.520209 125.114865 
L 376.095952 125.114865 
L 376.095952 125.296318 
L 376.671696 125.296318 
L 376.671696 125.476985 
L 377.247439 125.476985 
L 377.247439 127.065375 
L 377.823183 127.065375 
L 377.823183 128.18211 
L 378.398927 128.18211 
L 378.398927 127.757887 
L 379.550414 127.814117 
L 379.550414 128.245157 
L 380.126157 128.245157 
L 380.126157 128.02466 
L 381.277644 128.076426 
L 381.277644 128.22482 
L 382.429131 128.207305 
L 382.429131 126.979565 
L 383.004875 126.979565 
L 383.004875 126.540151 
L 383.580618 126.540151 
L 383.580618 126.952249 
L 384.732106 127.007578 
L 384.732106 127.448718 
L 385.307849 127.448718 
L 385.307849 127.024734 
L 387.03508 127.011866 
L 387.03508 126.773153 
L 387.610823 126.773153 
L 387.610823 126.10954 
L 388.186567 126.10954 
L 388.186567 125.989756 
L 388.76231 125.989756 
L 388.76231 126.308236 
L 389.338054 126.308236 
L 389.338054 125.834884 
L 389.913798 125.834884 
L 389.913798 124.569943 
L 390.489541 124.569943 
L 390.489541 123.415695 
L 391.065285 123.415695 
L 391.065285 124.063357 
L 391.641028 124.063357 
L 391.641028 123.556772 
L 392.216772 123.556772 
L 392.216772 124.151812 
L 392.792515 124.151812 
L 392.792515 123.135401 
L 394.519746 123.12915 
L 394.519746 123.321644 
L 395.09549 123.321644 
L 395.09549 122.437442 
L 396.246977 122.345512 
L 396.246977 122.300878 
L 396.82272 122.300878 
L 396.82272 122.101377 
L 397.398464 122.101377 
L 397.398464 121.714061 
L 397.974207 121.714061 
L 397.974207 118.821554 
L 398.549951 118.821554 
L 398.549951 118.465121 
L 399.125694 118.465121 
L 399.125694 117.735832 
L 399.701438 117.735832 
L 399.701438 114.943912 
L 400.277182 114.943912 
L 400.277182 118.897084 
L 400.852925 118.897084 
L 400.852925 121.350498 
L 401.428669 121.350498 
L 401.428669 120.737376 
L 402.004412 120.737376 
L 402.004412 119.226443 
L 402.580156 119.226443 
L 402.580156 119.49774 
L 403.155899 119.49774 
L 403.155899 118.719036 
L 403.731643 118.719036 
L 403.731643 117.353805 
L 404.307386 117.353805 
L 404.307386 116.798248 
L 404.88313 116.798248 
L 404.88313 117.31474 
L 405.458873 117.31474 
L 405.458873 116.994925 
L 406.034617 116.994925 
L 406.034617 115.955138 
L 406.610361 115.955138 
L 406.610361 114.659904 
L 407.186104 114.659904 
L 407.186104 114.213252 
L 407.761848 114.213252 
L 407.761848 112.95463 
L 408.337591 112.95463 
L 408.337591 112.215352 
L 408.913335 112.215352 
L 408.913335 113.499741 
L 409.489078 113.499741 
L 409.489078 112.698917 
L 410.064822 112.698917 
L 410.064822 115.695677 
L 410.640565 115.695677 
L 410.640565 114.874691 
L 411.216309 114.874691 
L 411.216309 117.79883 
L 411.792053 117.79883 
L 411.792053 116.237835 
L 412.367796 116.237835 
L 412.367796 115.477701 
L 412.94354 115.477701 
L 412.94354 113.472205 
L 413.519283 113.472205 
L 413.519283 113.201232 
L 414.095027 113.201232 
L 414.095027 113.868202 
L 414.67077 113.868202 
L 414.67077 113.347262 
L 415.246514 113.347262 
L 415.246514 112.820031 
L 415.822257 112.820031 
L 415.822257 111.949557 
L 416.398001 111.949557 
L 416.398001 110.937153 
L 416.973745 110.937153 
L 416.973745 108.406962 
L 417.549488 108.406962 
L 417.549488 106.975718 
L 418.125232 106.975718 
L 418.125232 106.475211 
L 418.700975 106.475211 
L 418.700975 106.285513 
L 419.276719 106.285513 
L 419.276719 103.047775 
L 419.852462 103.047775 
L 419.852462 99.3059 
L 420.428206 99.3059 
L 420.428206 101.434165 
L 421.003949 101.434165 
L 421.003949 99.401745 
L 421.579693 99.401745 
L 421.579693 97.13193 
L 422.155436 97.13193 
L 422.155436 96.217978 
L 422.73118 96.217978 
L 422.73118 97.080942 
L 423.306924 97.080942 
L 423.306924 97.653341 
L 423.882667 97.653341 
L 423.882667 97.434209 
L 424.458411 97.434209 
L 424.458411 98.650574 
L 425.034154 98.650574 
L 425.034154 98.335587 
L 426.185641 98.27076 
L 426.185641 98.643931 
L 426.761385 98.643931 
L 426.761385 100.241902 
L 427.337128 100.241902 
L 427.337128 103.415545 
L 427.912872 103.415545 
L 427.912872 100.642127 
L 428.488616 100.642127 
L 428.488616 96.76984 
L 429.064359 96.76984 
L 429.064359 97.450487 
L 429.640103 97.450487 
L 429.640103 95.952053 
L 430.79159 95.996737 
L 430.79159 92.456833 
L 431.367333 92.456833 
L 431.367333 89.922675 
L 431.943077 89.922675 
L 431.943077 87.454791 
L 432.51882 87.454791 
L 432.51882 88.981725 
L 433.094564 88.981725 
L 433.094564 87.657344 
L 433.670308 87.657344 
L 433.670308 87.450855 
L 434.246051 87.450855 
L 434.246051 85.15428 
L 434.821795 85.15428 
L 434.821795 87.412634 
L 435.397538 87.412634 
L 435.397538 87.661505 
L 435.973282 87.661505 
L 435.973282 89.939767 
L 436.549025 89.939767 
L 436.549025 90.931296 
L 437.124769 90.931296 
L 437.124769 91.358385 
L 437.700512 91.358385 
L 437.700512 89.596785 
L 438.276256 89.596785 
L 438.276256 88.44718 
L 438.851999 88.44718 
L 438.851999 87.766017 
L 439.427743 87.766017 
L 439.427743 87.165508 
L 440.003487 87.165508 
L 440.003487 85.509309 
L 440.57923 85.509309 
L 440.57923 82.188887 
L 441.730717 82.169648 
L 441.730717 81.46695 
L 442.306461 81.46695 
L 442.306461 81.91558 
L 442.882204 81.91558 
L 442.882204 79.789478 
L 443.457948 79.789478 
L 443.457948 77.024161 
L 444.033691 77.024161 
L 444.033691 76.747511 
L 444.609435 76.747511 
L 444.609435 81.502657 
L 445.185179 81.502657 
L 445.185179 75.7017 
L 445.760922 75.7017 
L 445.760922 74.771576 
L 446.912409 74.844677 
L 446.912409 71.064047 
L 447.488153 71.064047 
L 447.488153 69.151492 
L 448.063896 69.151492 
L 448.063896 64.386582 
L 448.63964 64.386582 
L 448.63964 62.688359 
L 449.215383 62.688359 
L 449.215383 60.983079 
L 449.791127 60.983079 
L 449.791127 58.138856 
L 450.366871 58.138856 
L 450.366871 64.484215 
L 450.942614 64.484215 
L 450.942614 61.894793 
L 451.518358 61.894793 
L 451.518358 66.252362 
L 452.094101 66.252362 
L 452.094101 62.727887 
L 452.669845 62.727887 
L 452.669845 61.247552 
L 453.245588 61.247552 
L 453.245588 65.211162 
L 453.821332 65.211162 
L 453.821332 64.810286 
L 454.397075 64.810286 
L 454.397075 68.090569 
L 454.972819 68.090569 
L 454.972819 69.30141 
L 455.548562 69.30141 
L 455.548562 68.221789 
L 456.124306 68.221789 
L 456.124306 70.49668 
L 456.70005 70.49668 
L 456.70005 74.870838 
L 457.851537 74.766061 
L 457.851537 73.244809 
L 458.42728 73.244809 
L 458.42728 70.546677 
L 459.003024 70.546677 
L 459.003024 68.549271 
L 459.578767 68.549271 
L 459.578767 71.511708 
L 460.154511 71.511708 
L 460.154511 70.246729 
L 460.730254 70.246729 
L 460.730254 68.072613 
L 461.305998 68.072613 
L 461.305998 72.301956 
L 461.881742 72.301956 
L 461.881742 72.724154 
L 462.457485 72.724154 
L 462.457485 74.638186 
L 463.033229 74.638186 
L 463.033229 73.212796 
L 463.608972 73.212796 
L 463.608972 74.076805 
L 464.184716 74.076805 
L 464.184716 75.494465 
L 464.760459 75.494465 
L 464.760459 78.54452 
L 465.336203 78.54452 
L 465.336203 78.664803 
L 466.48769 78.671444 
L 466.48769 75.634412 
L 467.639177 75.604146 
L 467.639177 73.16643 
L 468.214921 73.16643 
L 468.214921 73.302485 
L 468.790664 73.302485 
L 468.790664 72.143847 
L 469.366408 72.143847 
L 469.366408 71.401356 
L 469.942151 71.401356 
L 469.942151 72.206257 
L 470.517895 72.206257 
L 470.517895 74.400786 
L 471.093638 74.400786 
L 471.093638 74.224505 
L 471.669382 74.224505 
L 471.669382 74.773374 
L 472.245126 74.773374 
L 472.245126 76.631272 
L 472.820869 76.631272 
L 472.820869 77.082516 
L 473.396613 77.082516 
L 473.396613 76.690684 
L 474.5481 76.675153 
L 474.5481 76.356856 
L 475.123843 76.356856 
L 475.123843 79.366528 
L 475.699587 79.366528 
L 475.699587 79.564088 
L 476.27533 79.564088 
L 476.27533 78.741178 
L 476.851074 78.741178 
L 476.851074 80.614853 
L 477.426817 80.614853 
L 477.426817 81.543299 
L 478.002561 81.543299 
L 478.002561 79.143313 
L 479.154048 79.136816 
L 479.154048 80.062286 
L 479.729792 80.062286 
L 479.729792 80.318434 
L 480.305535 80.318434 
L 480.305535 77.010244 
L 481.457022 76.91388 
L 481.457022 75.52169 
L 482.032766 75.52169 
L 482.032766 74.945626 
L 482.608509 74.945626 
L 482.608509 76.891962 
L 483.184253 76.891962 
L 483.184253 78.867778 
L 483.759997 78.867778 
L 483.759997 80.385824 
L 484.33574 80.385824 
L 484.33574 80.248587 
L 484.911484 80.248587 
L 484.911484 79.570571 
L 485.487227 79.570571 
L 485.487227 79.449344 
L 486.062971 79.449344 
L 486.062971 78.329421 
L 486.638714 78.329421 
L 486.638714 77.991228 
L 487.214458 77.991228 
L 487.214458 77.042659 
L 487.790201 77.042659 
L 487.790201 80.52715 
L 488.365945 80.52715 
L 488.365945 80.07251 
L 488.941689 80.07251 
L 488.941689 79.537282 
L 490.093176 79.541444 
L 490.093176 79.273675 
L 490.668919 79.273675 
L 490.668919 79.136604 
L 491.244663 79.136604 
L 491.244663 79.463621 
L 491.820406 79.463621 
L 491.820406 79.303603 
L 492.971893 79.280917 
L 492.971893 80.266194 
L 493.547637 80.266194 
L 493.547637 79.499587 
L 494.699124 79.548012 
L 494.699124 79.615114 
L 495.274868 79.615114 
L 495.274868 80.150007 
L 495.850611 80.150007 
L 495.850611 79.961184 
L 496.426355 79.961184 
L 496.426355 79.416011 
L 497.002098 79.416011 
L 497.002098 79.813029 
L 497.577842 79.813029 
L 497.577842 82.305209 
L 498.153585 82.305209 
L 498.153585 85.39909 
L 498.729329 85.39909 
L 498.729329 87.559515 
L 499.305072 87.559515 
L 499.305072 90.131213 
L 499.880816 90.131213 
L 499.880816 88.332941 
L 500.45656 88.332941 
L 500.45656 90.572721 
L 501.032303 90.572721 
L 501.032303 91.42792 
L 501.608047 91.42792 
L 501.608047 93.057066 
L 502.18379 93.057066 
L 502.18379 91.606765 
L 502.759534 91.606765 
L 502.759534 89.761224 
L 503.335277 89.761224 
L 503.335277 90.1675 
L 503.911021 90.1675 
L 503.911021 90.437443 
L 504.486764 90.437443 
L 504.486764 89.600198 
L 505.062508 89.600198 
L 505.062508 88.897089 
L 505.638252 88.897089 
L 505.638252 91.107828 
L 506.213995 91.107828 
L 506.213995 90.9098 
L 506.789739 90.9098 
L 506.789739 91.220862 
L 507.365482 91.220862 
L 507.365482 91.434005 
L 508.516969 91.495794 
L 508.516969 92.100143 
L 509.668456 92.180998 
L 509.668456 92.539203 
L 510.2442 92.539203 
L 510.2442 91.200213 
L 510.819943 91.200213 
L 510.819943 91.317933 
L 511.395687 91.317933 
L 511.395687 89.624566 
L 511.971431 89.624566 
L 511.971431 88.566187 
L 512.547174 88.566187 
L 512.547174 90.106222 
L 513.698661 90.203906 
L 513.698661 89.828152 
L 514.850148 89.857701 
L 514.850148 89.573775 
L 515.425892 89.573775 
L 515.425892 89.108037 
L 517.153123 89.011831 
L 517.153123 88.689654 
L 517.728866 88.689654 
L 517.728866 85.142736 
L 518.30461 85.142736 
L 518.30461 83.735537 
L 518.880353 83.735537 
L 518.880353 84.49428 
L 519.456097 84.49428 
L 519.456097 84.01136 
L 520.03184 84.01136 
L 520.03184 83.581903 
L 520.607584 83.581903 
L 520.607584 83.116151 
L 521.183327 83.116151 
L 521.183327 83.612067 
L 521.759071 83.612067 
L 521.759071 83.279093 
L 522.334815 83.279093 
L 522.334815 82.21431 
L 522.910558 82.21431 
L 522.910558 80.00304 
L 523.486302 80.00304 
L 523.486302 75.388739 
L 524.062045 75.388739 
L 524.062045 77.300523 
L 524.637789 77.300523 
L 524.637789 76.329549 
L 525.213532 76.329549 
L 525.213532 73.588391 
L 525.789276 73.588391 
L 525.789276 74.699661 
L 526.365019 74.699661 
L 526.365019 75.035462 
L 526.940763 75.035462 
L 526.940763 75.374711 
L 527.516506 75.374711 
L 527.516506 75.577846 
L 528.09225 75.577846 
L 528.09225 73.326593 
L 528.667994 73.326593 
L 528.667994 72.394101 
L 529.243737 72.394101 
L 529.243737 69.332889 
L 529.819481 69.332889 
L 529.819481 68.751771 
L 530.395224 68.751771 
L 530.395224 69.774352 
L 530.970968 69.774352 
L 530.970968 69.074026 
L 531.546711 69.074026 
L 531.546711 66.293311 
L 532.122455 66.293311 
L 532.122455 68.295987 
L 532.698198 68.295987 
L 532.698198 71.56439 
L 533.273942 71.56439 
L 533.273942 69.757906 
L 533.849686 69.757906 
L 533.849686 71.152746 
L 534.425429 71.152746 
L 534.425429 71.925688 
L 535.001173 71.925688 
L 535.001173 69.867663 
L 535.576916 69.867663 
L 535.576916 68.161783 
L 536.15266 68.161783 
L 536.15266 68.484832 
L 536.728403 68.484832 
L 536.728403 70.867214 
L 537.304147 70.867214 
L 537.304147 70.274935 
L 537.87989 70.274935 
L 537.87989 70.678119 
L 538.455634 70.678119 
L 538.455634 70.192254 
L 539.031378 70.192254 
L 539.031378 71.764738 
L 539.607121 71.764738 
L 539.607121 69.693916 
L 540.182865 69.693916 
L 540.182865 69.948362 
L 540.758608 69.948362 
L 540.758608 70.584572 
L 541.334352 70.584572 
L 541.334352 70.288858 
L 542.485839 70.356086 
L 542.485839 71.545559 
L 543.061582 71.545559 
L 543.061582 74.890773 
L 543.637326 74.890773 
L 543.637326 74.577861 
L 544.21307 74.577861 
L 544.21307 75.004046 
L 544.788813 75.004046 
L 544.788813 73.950094 
L 545.364557 73.950094 
L 545.364557 74.67232 
L 545.9403 74.67232 
L 545.9403 75.179121 
L 546.516044 75.179121 
L 546.516044 74.820938 
L 547.091787 74.820938 
L 547.091787 73.766993 
L 547.667531 73.766993 
L 547.667531 72.069504 
L 548.243274 72.069504 
L 548.243274 72.352109 
L 549.394761 72.261529 
L 549.394761 72.928951 
L 549.970505 72.928951 
L 549.970505 73.846811 
L 550.546249 73.846811 
L 550.546249 74.9346 
L 551.121992 74.9346 
L 551.121992 77.241888 
L 551.697736 77.241888 
L 551.697736 77.582093 
L 552.273479 77.582093 
L 552.273479 76.509502 
L 552.849223 76.509502 
L 552.849223 77.500563 
L 553.424966 77.500563 
L 553.424966 76.603349 
L 554.00071 76.603349 
L 554.00071 77.510841 
L 554.576453 77.510841 
L 554.576453 78.392555 
L 555.152197 78.392555 
L 555.152197 77.508027 
L 555.727941 77.508027 
L 555.727941 77.34015 
L 556.303684 77.34015 
L 556.303684 77.201466 
L 556.879428 77.201466 
L 556.879428 77.548431 
L 557.455171 77.548431 
L 557.455171 77.063409 
L 558.030915 77.063409 
L 558.030915 75.83155 
L 558.606658 75.83155 
L 558.606658 75.10867 
L 559.182402 75.10867 
L 559.182402 73.23441 
L 559.758145 73.23441 
L 559.758145 73.639212 
L 560.333889 73.639212 
L 560.333889 74.56718 
L 560.909633 74.56718 
L 560.909633 72.398179 
L 562.06112 72.323318 
L 562.06112 71.396613 
L 562.636863 71.396613 
L 562.636863 71.194123 
L 563.212607 71.194123 
L 563.212607 70.176312 
L 563.78835 70.176312 
L 563.78835 70.542565 
L 564.364094 70.542565 
L 564.364094 71.574019 
L 564.939837 71.574019 
L 564.939837 73.494474 
L 565.515581 73.494474 
L 565.515581 74.075843 
L 566.091324 74.075843 
L 566.091324 72.861976 
L 566.667068 72.861976 
L 566.667068 75.541553 
L 567.242812 75.541553 
L 567.242812 82.481896 
L 567.818555 82.481896 
L 567.818555 83.400408 
L 568.394299 83.400408 
L 568.394299 80.508406 
L 568.970042 80.508406 
L 568.970042 78.926804 
L 569.545786 78.926804 
L 569.545786 81.518543 
L 570.121529 81.518543 
L 570.121529 78.598658 
L 570.697273 78.598658 
L 570.697273 77.086225 
L 571.273016 77.086225 
L 571.273016 78.410905 
L 572.424504 78.414665 
L 572.424504 77.316215 
L 573.000247 77.316215 
L 573.000247 77.673559 
L 573.575991 77.673559 
L 573.575991 76.13785 
L 574.151734 76.13785 
L 574.151734 73.855049 
L 574.727478 73.855049 
L 574.727478 73.266863 
L 575.303221 73.266863 
L 575.303221 71.261284 
L 575.878965 71.261284 
L 575.878965 73.428447 
L 576.454708 73.428447 
L 576.454708 72.17093 
L 577.030452 72.17093 
L 577.030452 71.906009 
L 577.606196 71.906009 
L 577.606196 73.619772 
L 578.181939 73.619772 
L 578.181939 71.783106 
L 578.757683 71.783106 
L 578.757683 70.496229 
L 579.333426 70.496229 
L 579.333426 71.669276 
L 579.90917 71.669276 
L 579.90917 71.356639 
L 580.484913 71.356639 
L 580.484913 71.984439 
L 581.6364 72.023993 
L 581.6364 72.387456 
L 582.787887 72.482444 
L 582.787887 72.603098 
L 583.363631 72.603098 
L 583.363631 72.850869 
L 583.939375 72.850869 
L 583.939375 72.449137 
L 585.090862 72.493046 
L 585.090862 72.585313 
L 586.242349 72.539289 
L 586.242349 71.691432 
L 586.818092 71.691432 
L 586.818092 68.915161 
L 587.393836 68.915161 
L 587.393836 68.375669 
L 587.969579 68.375669 
L 587.969579 68.641612 
L 588.545323 68.641612 
L 588.545323 67.641184 
L 589.121067 67.641184 
L 589.121067 67.974976 
L 589.69681 67.974976 
L 589.69681 67.393529 
L 590.848297 67.474705 
L 590.848297 67.647431 
L 591.424041 67.647431 
L 591.424041 68.041473 
L 591.999784 68.041473 
L 591.999784 67.378001 
L 592.575528 67.378001 
L 592.575528 70.58398 
L 593.151271 70.58398 
L 593.151271 70.44996 
L 593.727015 70.44996 
L 593.727015 70.249385 
L 594.302759 70.249385 
L 594.302759 69.094641 
L 594.878502 69.094641 
L 594.878502 70.057038 
L 595.454246 70.057038 
L 595.454246 69.559446 
L 596.029989 69.559446 
L 596.029989 69.284203 
L 596.605733 69.284203 
L 596.605733 69.825442 
L 597.181476 69.825442 
L 597.181476 69.600771 
L 597.75722 69.600771 
L 597.75722 68.317964 
L 598.332963 68.317964 
L 598.332963 68.095408 
L 598.908707 68.095408 
L 598.908707 67.657258 
L 599.48445 67.657258 
L 599.48445 65.731997 
L 600.060194 65.731997 
L 600.060194 64.666977 
L 600.635938 64.666977 
L 600.635938 64.435267 
L 601.211681 64.435267 
L 601.211681 63.940689 
L 601.787425 63.940689 
L 601.787425 62.135626 
L 602.363168 62.135626 
L 602.363168 61.120974 
L 602.938912 61.120974 
L 602.938912 60.599822 
L 603.514655 60.599822 
L 603.514655 58.377865 
L 604.090399 58.377865 
L 604.090399 57.864613 
L 604.666142 57.864613 
L 604.666142 59.428523 
L 605.241886 59.428523 
L 605.241886 57.807812 
L 605.81763 57.807812 
L 605.81763 57.651451 
L 606.393373 57.651451 
L 606.393373 58.854746 
L 606.969117 58.854746 
L 606.969117 57.75619 
L 607.54486 57.75619 
L 607.54486 54.088183 
L 608.120604 54.088183 
L 608.120604 53.513237 
L 608.696347 53.513237 
L 608.696347 51.424957 
L 609.272091 51.424957 
L 609.272091 49.67567 
L 609.847834 49.67567 
L 609.847834 46.987963 
L 610.423578 46.987963 
L 610.423578 43.394493 
L 610.999322 43.394493 
L 610.999322 45.500499 
L 611.575065 45.500499 
L 611.575065 44.789986 
L 612.150809 44.789986 
L 612.150809 45.234515 
L 612.726552 45.234515 
L 612.726552 47.542422 
L 613.302296 47.542422 
L 613.302296 48.619465 
L 613.878039 48.619465 
L 613.878039 46.905785 
L 614.453783 46.905785 
L 614.453783 44.695814 
L 615.029526 44.695814 
L 615.029526 40.178232 
L 615.60527 40.178232 
L 615.60527 39.705602 
L 616.181014 39.705602 
L 616.181014 39.005501 
L 616.756757 39.005501 
L 616.756757 36.395945 
L 617.332501 36.395945 
L 617.332501 38.417457 
L 617.908244 38.417457 
L 617.908244 40.725796 
L 618.483988 40.725796 
L 618.483988 39.297369 
L 619.059731 39.297369 
L 619.059731 37.765699 
L 619.635475 37.765699 
L 619.635475 35.953074 
L 620.211218 35.953074 
L 620.211218 36.086768 
L 620.786962 36.086768 
L 620.786962 35.663934 
L 621.362705 35.663934 
L 621.362705 37.685858 
L 621.938449 37.685858 
L 621.938449 36.473881 
L 622.514193 36.473881 
L 622.514193 35.440669 
L 623.66568 35.332804 
L 623.66568 35.658149 
L 624.241423 35.658149 
L 624.241423 33.861839 
L 624.817167 33.861839 
L 624.817167 34.985486 
L 625.39291 34.985486 
L 625.39291 37.195813 
L 625.968654 37.195813 
L 625.968654 39.039965 
L 626.544397 39.039965 
L 626.544397 37.279608 
L 627.120141 37.279608 
L 627.120141 35.967055 
L 628.271628 35.908699 
L 628.271628 36.129913 
L 628.847372 36.129913 
L 628.847372 40.018055 
L 629.423115 40.018055 
L 629.423115 44.716296 
L 629.998859 44.716296 
L 629.998859 45.950896 
L 630.574602 45.950896 
L 630.574602 43.92948 
L 631.150346 43.92948 
L 631.150346 44.529546 
L 631.726089 44.529546 
L 631.726089 44.759016 
L 632.301833 44.759016 
L 632.301833 46.717049 
L 632.877577 46.717049 
L 632.877577 45.528715 
L 633.45332 45.528715 
L 633.45332 43.992313 
L 634.029064 43.992313 
L 634.029064 45.473802 
L 634.604807 45.473802 
L 634.604807 46.017372 
L 635.756294 46.123296 
L 635.756294 46.475019 
L 636.332038 46.475019 
L 636.332038 46.266602 
L 636.907781 46.266602 
L 636.907781 46.67794 
L 637.483525 46.67794 
L 637.483525 47.101272 
L 638.059268 47.101272 
L 638.059268 47.740726 
L 638.635012 47.740726 
L 638.635012 47.419166 
L 639.210756 47.419166 
L 639.210756 44.525467 
L 639.786499 44.525467 
L 639.786499 42.05641 
L 640.362243 42.05641 
L 640.362243 44.090211 
L 640.937986 44.090211 
L 640.937986 40.939943 
L 641.51373 40.939943 
L 641.51373 40.506118 
L 642.089473 40.506118 
L 642.089473 39.881461 
L 642.665217 39.881461 
L 642.665217 40.018882 
L 643.24096 40.018882 
L 643.24096 38.85799 
L 643.816704 38.85799 
L 643.816704 39.047607 
L 644.392448 39.047607 
L 644.392448 39.839172 
L 644.968191 39.839172 
L 644.968191 38.68729 
L 645.543935 38.68729 
L 645.543935 40.302128 
L 646.695422 40.310502 
L 646.695422 39.573617 
L 647.271165 39.573617 
L 647.271165 41.732892 
L 648.422652 41.773082 
L 648.422652 42.635465 
L 648.998396 42.635465 
L 648.998396 39.598009 
L 649.57414 39.598009 
L 649.57414 36.632468 
L 650.149883 36.632468 
L 650.149883 36.894017 
L 650.725627 36.894017 
L 650.725627 35.902602 
L 651.30137 35.902602 
L 651.30137 34.366979 
L 651.877114 34.366979 
L 651.877114 34.783191 
L 652.452857 34.783191 
L 652.452857 34.899645 
L 653.028601 34.899645 
L 653.028601 34.444793 
L 653.604344 34.444793 
L 653.604344 34.051689 
L 654.755831 33.94433 
L 654.755831 33.461115 
L 655.331575 33.461115 
L 655.331575 33.852447 
L 655.907319 33.852447 
L 655.907319 35.647658 
L 656.483062 35.647658 
L 656.483062 35.839723 
L 657.058806 35.839723 
L 657.058806 36.829806 
L 657.634549 36.829806 
L 657.634549 35.961304 
L 658.210293 35.961304 
L 658.210293 38.915935 
L 658.786036 38.915935 
L 658.786036 39.626322 
L 659.36178 39.626322 
L 659.36178 40.009268 
L 659.937523 40.009268 
L 659.937523 40.260821 
L 660.513267 40.260821 
L 660.513267 39.097597 
L 661.089011 39.097597 
L 661.089011 38.478457 
L 661.664754 38.478457 
L 661.664754 40.158988 
L 662.240498 40.158988 
L 662.240498 39.766251 
L 662.816241 39.766251 
L 662.816241 41.630879 
L 663.391985 41.630879 
L 663.391985 42.230411 
L 663.967728 42.230411 
L 663.967728 41.640756 
L 664.543472 41.640756 
L 664.543472 41.977176 
L 665.119215 41.977176 
L 665.119215 45.769103 
L 665.694959 45.769103 
L 665.694959 44.792716 
L 666.270703 44.792716 
L 666.270703 44.205754 
L 666.846446 44.205754 
L 666.846446 44.64699 
L 667.42219 44.64699 
L 667.42219 41.302234 
L 667.997933 41.302234 
L 667.997933 41.967826 
L 668.573677 41.967826 
L 668.573677 40.983936 
L 669.14942 40.983936 
L 669.14942 43.077952 
L 669.725164 43.077952 
L 669.725164 44.53978 
L 670.300907 44.53978 
L 670.300907 44.319141 
L 670.876651 44.319141 
L 670.876651 41.938028 
L 671.452394 41.938028 
L 671.452394 44.145692 
L 672.028138 44.145692 
L 672.028138 43.775993 
L 672.603882 43.775993 
L 672.603882 43.478474 
L 673.179625 43.478474 
L 673.179625 42.052534 
L 673.755369 42.052534 
L 673.755369 41.731258 
L 674.331112 41.731258 
L 674.331112 39.965862 
L 674.906856 39.965862 
L 674.906856 40.537864 
L 675.482599 40.537864 
L 675.482599 40.071832 
L 676.058343 40.071832 
L 676.058343 42.025693 
L 676.634086 42.025693 
L 676.634086 43.084369 
L 677.20983 43.084369 
L 677.20983 42.941748 
L 677.785574 42.941748 
L 677.785574 42.458177 
L 678.361317 42.458177 
L 678.361317 43.404879 
L 678.937061 43.404879 
L 678.937061 43.250954 
L 679.512804 43.250954 
L 679.512804 43.895458 
L 680.088548 43.895458 
L 680.088548 45.238463 
L 680.664291 45.238463 
L 680.664291 48.238099 
L 681.240035 48.238099 
L 681.240035 48.847626 
L 681.815778 48.847626 
L 681.815778 49.797937 
L 682.391522 49.797937 
L 682.391522 48.712009 
L 682.967266 48.712009 
L 682.967266 49.442895 
L 683.543009 49.442895 
L 683.543009 47.783566 
L 684.118753 47.783566 
L 684.118753 49.110975 
L 684.694496 49.110975 
L 684.694496 48.164653 
L 685.27024 48.164653 
L 685.27024 50.034292 
L 685.845983 50.034292 
L 685.845983 54.614113 
L 686.421727 54.614113 
L 686.421727 56.484341 
L 686.99747 56.484341 
L 686.99747 55.957072 
L 687.573214 55.957072 
L 687.573214 56.327142 
L 688.148958 56.327142 
L 688.148958 57.808094 
L 688.724701 57.808094 
L 688.724701 56.836968 
L 689.300445 56.836968 
L 689.300445 55.493026 
L 689.876188 55.493026 
L 689.876188 56.795548 
L 690.451932 56.795548 
L 690.451932 56.257605 
L 691.027675 56.257605 
L 691.027675 54.085329 
L 691.603419 54.085329 
L 691.603419 55.756335 
L 692.179162 55.756335 
L 692.179162 53.54099 
L 692.754906 53.54099 
L 692.754906 54.234946 
L 693.906393 54.265105 
L 693.906393 53.400127 
L 694.482137 53.400127 
L 694.482137 53.105575 
L 695.05788 53.105575 
L 695.05788 54.050844 
L 695.633624 54.050844 
L 695.633624 55.660458 
L 696.209367 55.660458 
L 696.209367 56.786013 
L 696.785111 56.786013 
L 696.785111 57.226672 
L 697.936598 57.184298 
L 697.936598 57.752564 
L 698.512341 57.752564 
L 698.512341 55.297323 
L 699.088085 55.297323 
L 699.088085 57.326421 
L 699.663829 57.326421 
L 699.663829 57.482101 
L 700.239572 57.482101 
L 700.239572 57.752045 
L 700.815316 57.752045 
L 700.815316 57.935388 
L 701.391059 57.935388 
L 701.391059 57.716642 
L 701.966803 57.716642 
L 701.966803 56.850985 
L 702.542546 56.850985 
L 702.542546 57.585183 
L 704.269777 57.475163 
L 704.269777 57.865846 
L 704.845521 57.865846 
L 704.845521 56.917156 
L 705.421264 56.917156 
L 705.421264 56.21722 
L 705.997008 56.21722 
L 705.997008 56.864695 
L 706.572751 56.864695 
L 706.572751 56.117241 
L 707.148495 56.117241 
L 707.148495 59.63537 
L 707.724238 59.63537 
L 707.724238 60.764787 
L 708.299982 60.764787 
L 708.299982 60.650097 
L 708.875725 60.650097 
L 708.875725 61.245276 
L 709.451469 61.245276 
L 709.451469 60.927835 
L 710.027212 60.927835 
L 710.027212 60.073343 
L 712.330187 60.031104 
L 712.330187 60.70494 
L 712.90593 60.70494 
L 712.90593 60.386024 
L 714.057417 60.465016 
L 714.057417 60.823651 
L 715.208904 60.73372 
L 715.208904 60.478926 
L 715.784648 60.478926 
L 715.784648 60.048338 
L 716.360392 60.048338 
L 716.360392 57.085162 
L 716.936135 57.085162 
L 716.936135 55.903123 
L 717.511879 55.903123 
L 717.511879 54.418161 
L 718.087622 54.418161 
L 718.087622 54.14107 
L 718.663366 54.14107 
L 718.663366 53.571445 
L 719.239109 53.571445 
L 719.239109 53.827217 
L 719.814853 53.827217 
L 719.814853 54.425867 
L 720.390596 54.425867 
L 720.390596 55.441172 
L 720.96634 55.441172 
L 720.96634 54.917476 
L 721.542084 54.917476 
L 721.542084 52.837973 
L 722.117827 52.837973 
L 722.117827 53.2123 
L 722.693571 53.2123 
L 722.693571 53.734608 
L 723.845058 53.816161 
L 723.845058 54.738995 
L 724.420801 54.738995 
L 724.420801 56.794399 
L 724.996545 56.794399 
L 724.996545 52.73621 
L 725.572288 52.73621 
L 725.572288 51.025874 
L 726.148032 51.025874 
L 726.148032 50.78166 
L 726.723775 50.78166 
L 726.723775 50.279327 
L 727.875263 50.255579 
L 727.875263 50.421182 
L 729.02675 50.332539 
L 729.02675 48.741108 
L 730.178237 48.685316 
L 730.178237 49.694433 
L 730.75398 49.694433 
L 730.75398 50.574259 
L 731.329724 50.574259 
L 731.329724 49.247346 
L 731.905467 49.247346 
L 731.905467 50.217327 
L 732.481211 50.217327 
L 732.481211 49.209993 
L 733.056955 49.209993 
L 733.056955 50.538329 
L 733.632698 50.538329 
L 733.632698 51.167033 
L 734.208442 51.167033 
L 734.208442 50.714329 
L 734.784185 50.714329 
L 734.784185 51.189006 
L 735.359929 51.189006 
L 735.359929 51.39916 
L 735.935672 51.39916 
L 735.935672 50.462698 
L 736.511416 50.462698 
L 736.511416 50.821593 
L 737.662903 50.827687 
L 737.662903 51.877199 
L 738.238647 51.877199 
L 738.238647 52.447519 
L 738.81439 52.447519 
L 738.81439 51.505504 
L 739.390134 51.505504 
L 739.390134 48.961751 
L 739.965877 48.961751 
L 739.965877 48.720107 
L 740.541621 48.720107 
L 740.541621 48.585039 
L 741.117364 48.585039 
L 741.117364 48.386622 
L 741.693108 48.386622 
L 741.693108 48.754646 
L 742.268851 48.754646 
L 742.268851 48.637599 
L 743.420338 48.737598 
L 743.420338 49.029808 
L 743.996082 49.029808 
L 743.996082 49.453532 
L 745.147569 49.359234 
L 745.147569 49.109726 
L 745.723313 49.109726 
L 745.723313 49.543249 
L 746.299056 49.543249 
L 746.299056 49.189362 
L 746.8748 49.189362 
L 746.8748 49.3813 
L 747.450543 49.3813 
L 747.450543 51.259884 
L 748.026287 51.259884 
L 748.026287 51.668657 
L 749.177774 51.725466 
L 749.177774 50.472396 
L 749.753518 50.472396 
L 749.753518 51.864599 
L 751.480748 51.8927 
L 751.480748 51.354783 
L 752.056492 51.354783 
L 752.056492 51.183624 
L 752.632235 51.183624 
L 752.632235 51.320214 
L 753.207979 51.320214 
L 753.207979 51.600224 
L 753.783722 51.600224 
L 753.783722 51.029557 
L 754.359466 51.029557 
L 754.359466 50.424546 
L 755.510953 50.324199 
L 755.510953 51.187441 
L 756.086697 51.187441 
L 756.086697 49.912545 
L 756.66244 49.912545 
L 756.66244 49.110408 
L 757.238184 49.110408 
L 757.238184 46.447949 
L 758.389671 46.337173 
L 758.389671 45.559429 
L 758.965414 45.559429 
L 758.965414 45.782288 
L 759.541158 45.782288 
L 759.541158 44.862049 
L 761.268389 44.901357 
L 761.268389 45.352285 
L 761.844132 45.352285 
L 761.844132 44.268009 
L 762.995619 44.232842 
L 762.995619 43.147477 
L 763.571363 43.147477 
L 763.571363 41.548339 
L 764.147106 41.548339 
L 764.147106 42.524837 
L 764.72285 42.524837 
L 764.72285 42.189432 
L 765.298593 42.189432 
L 765.298593 42.033426 
L 765.874337 42.033426 
L 765.874337 41.344173 
L 766.450081 41.344173 
L 766.450081 41.468907 
L 767.025824 41.468907 
L 767.025824 42.039555 
L 767.601568 42.039555 
L 767.601568 41.140191 
L 768.177311 41.140191 
L 768.177311 39.917241 
L 768.753055 39.917241 
L 768.753055 41.759791 
L 769.328798 41.759791 
L 769.328798 41.625413 
L 769.904542 41.625413 
L 769.904542 42.321358 
L 770.480285 42.321358 
L 770.480285 43.101212 
L 771.056029 43.101212 
L 771.056029 42.143586 
L 771.631773 42.143586 
L 771.631773 41.65852 
L 772.207516 41.65852 
L 772.207516 41.849134 
L 772.78326 41.849134 
L 772.78326 39.848234 
L 773.359003 39.848234 
L 773.359003 38.770928 
L 773.934747 38.770928 
L 773.934747 38.002222 
L 775.661977 37.985794 
L 775.661977 34.626921 
L 776.237721 34.626921 
L 776.237721 32.39675 
L 777.389208 32.41749 
L 777.389208 31.505466 
L 777.964952 31.505466 
L 777.964952 33.318032 
L 778.540695 33.318032 
L 778.540695 32.549792 
L 779.116439 32.549792 
L 779.116439 32.736864 
L 779.692182 32.736864 
L 779.692182 31.712319 
L 780.267926 31.712319 
L 780.267926 32.012747 
L 780.843669 32.012747 
L 780.843669 32.549721 
L 781.419413 32.549721 
L 781.419413 32.174183 
L 781.995156 32.174183 
L 781.995156 33.715737 
L 782.5709 33.715737 
L 782.5709 34.591585 
L 783.146644 34.591585 
L 783.146644 33.426862 
L 783.722387 33.426862 
L 783.722387 33.570305 
L 784.298131 33.570305 
L 784.298131 33.774332 
L 784.873874 33.774332 
L 784.873874 34.073841 
L 785.449618 34.073841 
L 785.449618 34.253605 
L 786.025361 34.253605 
L 786.025361 34.747348 
L 786.601105 34.747348 
L 786.601105 33.033161 
L 787.752592 33.025017 
L 787.752592 32.524704 
L 788.328336 32.524704 
L 788.328336 32.106969 
L 788.904079 32.106969 
L 788.904079 32.659967 
L 789.479823 32.659967 
L 789.479823 31.769425 
L 790.055566 31.769425 
L 790.055566 32.128992 
L 790.63131 32.128992 
L 790.63131 32.437178 
L 791.207053 32.437178 
L 791.207053 32.913262 
L 791.782797 32.913262 
L 791.782797 33.463747 
L 792.35854 33.463747 
L 792.35854 34.92144 
L 793.510028 34.909438 
L 793.510028 34.348633 
L 794.085771 34.348633 
L 794.085771 35.602153 
L 794.661515 35.602153 
L 794.661515 35.782448 
L 795.237258 35.782448 
L 795.237258 34.749858 
L 795.813002 34.749858 
L 795.813002 33.73174 
L 796.388745 33.73174 
L 796.388745 32.626657 
L 797.540232 32.532774 
L 797.540232 33.051048 
L 798.115976 33.051048 
L 798.115976 34.789917 
L 798.691719 34.789917 
L 798.691719 36.745077 
L 799.267463 36.745077 
L 799.267463 35.447462 
L 799.843207 35.447462 
L 799.843207 35.858777 
L 800.41895 35.858777 
L 800.41895 35.190253 
L 800.994694 35.190253 
L 800.994694 33.696253 
L 801.570437 33.696253 
L 801.570437 35.193314 
L 802.146181 35.193314 
L 802.146181 35.361718 
L 802.721924 35.361718 
L 802.721924 35.705012 
L 803.297668 35.705012 
L 803.297668 36.809342 
L 803.873411 36.809342 
L 803.873411 35.64646 
L 805.024899 35.626323 
L 805.024899 33.969671 
L 805.600642 33.969671 
L 805.600642 33.634778 
L 806.176386 33.634778 
L 806.176386 33.139462 
L 806.752129 33.139462 
L 806.752129 34.802204 
L 807.327873 34.802204 
L 807.327873 34.096256 
L 807.903616 34.096256 
L 807.903616 34.924862 
L 808.47936 34.924862 
L 808.47936 33.090867 
L 809.055103 33.090867 
L 809.055103 32.38254 
L 809.630847 32.38254 
L 809.630847 32.694641 
L 810.782334 32.798795 
L 810.782334 31.27132 
L 811.358078 31.27132 
L 811.358078 32.289673 
L 811.933821 32.289673 
L 811.933821 30.299405 
L 812.509565 30.299405 
L 812.509565 27.180553 
L 813.085308 27.180553 
L 813.085308 26.658369 
L 813.661052 26.658369 
L 813.661052 26.373116 
L 814.236795 26.373116 
L 814.236795 25.233636 
L 814.812539 25.233636 
L 814.812539 25.609949 
L 815.388282 25.609949 
L 815.388282 25.337003 
L 817.115513 25.297523 
L 817.115513 24.491571 
L 817.691257 24.491571 
L 817.691257 23.586855 
L 818.267 23.586855 
L 818.267 25.346699 
L 818.842744 25.346699 
L 818.842744 24.924032 
L 819.418487 24.924032 
L 819.418487 26.121666 
L 819.994231 26.121666 
L 819.994231 25.423666 
L 820.569974 25.423666 
L 820.569974 24.337063 
L 821.145718 24.337063 
L 821.145718 25.873486 
L 821.721462 25.873486 
L 821.721462 25.491296 
L 822.297205 25.491296 
L 822.297205 23.919231 
L 822.872949 23.919231 
L 822.872949 24.067841 
L 823.448692 24.067841 
L 823.448692 24.270709 
L 824.024436 24.270709 
L 824.024436 23.855056 
L 824.600179 23.855056 
L 824.600179 24.50199 
L 825.175923 24.50199 
L 825.175923 25.488483 
L 825.751666 25.488483 
L 825.751666 25.652782 
L 826.32741 25.652782 
L 826.32741 25.271223 
L 826.903154 25.271223 
L 826.903154 25.467314 
L 828.054641 25.543726 
L 828.054641 28.122026 
L 828.630384 28.122026 
L 828.630384 27.78511 
L 829.206128 27.78511 
L 829.206128 27.631272 
L 829.781871 27.631272 
L 829.781871 28.549278 
L 830.357615 28.549278 
L 830.357615 28.194622 
L 830.933358 28.194622 
L 830.933358 27.603109 
L 831.509102 27.603109 
L 831.509102 27.79086 
L 832.084846 27.79086 
L 832.084846 27.52942 
L 832.660589 27.52942 
L 832.660589 28.628761 
L 833.236333 28.628761 
L 833.236333 28.31314 
L 833.812076 28.31314 
L 833.812076 30.209848 
L 834.38782 30.209848 
L 834.38782 27.971769 
L 834.963563 27.971769 
L 834.963563 28.267427 
L 835.539307 28.267427 
L 835.539307 27.997767 
L 836.11505 27.997767 
L 836.11505 26.028875 
L 836.690794 26.028875 
L 836.690794 25.81108 
L 837.266537 25.81108 
L 837.266537 25.408497 
L 838.418025 25.430955 
L 838.418025 23.850792 
L 838.993768 23.850792 
L 838.993768 24.084244 
L 839.569512 24.084244 
L 839.569512 23.536214 
L 840.145255 23.536214 
L 840.145255 22.563278 
L 840.720999 22.563278 
L 840.720999 22.969087 
L 841.296742 22.969087 
L 841.296742 23.992494 
L 841.872486 23.992494 
L 841.872486 23.723455 
L 843.023973 23.685773 
L 843.023973 23.114651 
L 843.599717 23.114651 
L 843.599717 23.699869 
L 844.17546 23.699869 
L 844.17546 23.867227 
L 844.751204 23.867227 
L 844.751204 23.733748 
L 845.326947 23.733748 
L 845.326947 23.407606 
L 845.902691 23.407606 
L 845.902691 23.67197 
L 846.478434 23.67197 
L 846.478434 23.196894 
L 847.054178 23.196894 
L 847.054178 22.63816 
L 847.629921 22.63816 
L 847.629921 21.283255 
L 848.781409 21.252761 
L 848.781409 21.562443 
L 850.508639 21.480964 
L 850.508639 22.420458 
L 851.084383 22.420458 
L 851.084383 21.979852 
L 851.660126 21.979852 
L 851.660126 21.249643 
L 852.23587 21.249643 
L 852.23587 21.402591 
L 852.811613 21.402591 
L 852.811613 21.76739 
L 853.9631 21.66157 
L 853.9631 22.548708 
L 854.538844 22.548708 
L 854.538844 23.095814 
L 855.114588 23.095814 
L 855.114588 22.560524 
L 856.266075 22.661532 
L 856.266075 21.894154 
L 857.993305 21.864056 
L 857.993305 22.511697 
L 858.569049 22.511697 
L 858.569049 22.931157 
L 859.144792 22.931157 
L 859.144792 21.363749 
L 859.720536 21.363749 
L 859.720536 20.552727 
L 860.29628 20.552727 
L 860.29628 20.852518 
L 860.872023 20.852518 
L 860.872023 21.946446 
L 861.447767 21.946446 
L 861.447767 23.528444 
L 862.02351 23.528444 
L 862.02351 23.159011 
L 862.599254 23.159011 
L 862.599254 22.578441 
L 863.174997 22.578441 
L 863.174997 22.861951 
L 864.326484 22.765112 
L 864.326484 24.528115 
L 864.902228 24.528115 
L 864.902228 23.623438 
L 865.477972 23.623438 
L 865.477972 25.937762 
L 866.053715 25.937762 
L 866.053715 26.241358 
L 866.629459 26.241358 
L 866.629459 28.114511 
L 867.205202 28.114511 
L 867.205202 26.77875 
L 868.356689 26.81 
L 868.356689 26.4225 
L 868.932433 26.4225 
L 868.932433 26.750885 
L 870.08392 26.833691 
L 870.08392 27.381199 
L 870.659663 27.381199 
L 870.659663 27.267051 
L 871.235407 27.267051 
L 871.235407 27.433167 
L 872.386894 27.38126 
L 872.386894 27.177108 
L 872.962638 27.177108 
L 872.962638 26.047721 
L 873.538381 26.047721 
L 873.538381 26.78359 
L 874.114125 26.78359 
L 874.114125 25.740447 
L 875.265612 25.790073 
L 875.265612 27.033228 
L 875.841355 27.033228 
L 875.841355 27.671621 
L 876.417099 27.671621 
L 876.417099 28.141547 
L 876.992843 28.141547 
L 876.992843 29.585924 
L 877.568586 29.585924 
L 877.568586 31.778773 
L 878.14433 31.778773 
L 878.14433 32.275099 
L 878.720073 32.275099 
L 878.720073 31.997414 
L 879.295817 31.997414 
L 879.295817 32.976194 
L 879.87156 32.976194 
L 879.87156 32.621431 
L 881.023047 32.664182 
L 881.023047 32.280477 
L 881.598791 32.280477 
L 881.598791 32.469842 
L 882.174535 32.469842 
L 882.174535 31.94932 
L 882.750278 31.94932 
L 882.750278 31.581416 
L 883.901765 31.568816 
L 883.901765 32.551997 
L 884.477509 32.551997 
L 884.477509 32.27942 
L 885.053252 32.27942 
L 885.053252 32.895954 
L 886.204739 32.824821 
L 886.204739 31.376903 
L 886.780483 31.376903 
L 886.780483 30.980234 
L 887.194182 30.980234 
L 887.194182 30.980234 
" clip-path="url(#pb8821d61b7)" style="fill: none; stroke: #3572c6; stroke-width: 1.2; stroke-linecap: square"/>
   </g>
   <g id="line2d_79">
    <path d="M 75.557818 20.552727 
L 887.194182 20.552727 
L 887.194182 20.552727 
" clip-path="url(#pb8821d61b7)" style="fill: none; stroke: #83a83b; stroke-width: 1.2; stroke-linecap: square"/>
   </g>
   <g id="line2d_80">
    <path d="M 75.557818 32.976194 
L 887.194182 32.976194 
L 887.194182 32.976194 
" clip-path="url(#pb8821d61b7)" style="fill: none; stroke: #c44e52; stroke-width: 1.2; stroke-linecap: square"/>
   </g>
   <g id="line2d_81">
    <path d="M 860.29628 300.96 
L 860.29628 7.2 
" clip-path="url(#pb8821d61b7)" style="fill: none; stroke: #83a83b; stroke-width: 1.2; stroke-linecap: square"/>
   </g>
   <g id="line2d_82">
    <path d="M 879.87156 300.96 
L 879.87156 7.2 
" clip-path="url(#pb8821d61b7)" style="fill: none; stroke: #c44e52; stroke-width: 1.2; stroke-linecap: square"/>
   </g>
   <g id="patch_3">
    <path d="M 34.976 300.96 
L 34.976 7.2 
" style="fill: none; stroke: #899ab8; stroke-width: 1.12; stroke-linejoin: miter; stroke-linecap: square"/>
   </g>
   <g id="patch_4">
    <path d="M 927.776 300.96 
L 927.776 7.2 
" style="fill: none; stroke: #899ab8; stroke-width: 1.12; stroke-linejoin: miter; stroke-linecap: square"/>
   </g>
   <g id="patch_5">
    <path d="M 34.976 300.96 
L 927.776 300.96 
" style="fill: none; stroke: #899ab8; stroke-width: 1.12; stroke-linejoin: miter; stroke-linecap: square"/>
   </g>
   <g id="patch_6">
    <path d="M 34.976 7.2 
L 927.776 7.2 
" style="fill: none; stroke: #899ab8; stroke-width: 1.12; stroke-linejoin: miter; stroke-linecap: square"/>
   </g>
   <g id="text_16">
    <!-- 123519.47 -->
    <g style="fill: #83a83b" transform="translate(180.631016 20.552727) scale(0.132 -0.132)">
     <defs>
      <path id="DejaVuSans-39" d="M 703 97 
L 703 672 
Q 941 559 1184 500 
Q 1428 441 1663 441 
Q 2288 441 2617 861 
Q 2947 1281 2994 2138 
Q 2813 1869 2534 1725 
Q 2256 1581 1919 1581 
Q 1219 1581 811 2004 
Q 403 2428 403 3163 
Q 403 3881 828 4315 
Q 1253 4750 1959 4750 
Q 2769 4750 3195 4129 
Q 3622 3509 3622 2328 
Q 3622 1225 3098 567 
Q 2575 -91 1691 -91 
Q 1453 -91 1209 -44 
Q 966 3 703 97 
z
M 1959 2075 
Q 2384 2075 2632 2365 
Q 2881 2656 2881 3163 
Q 2881 3666 2632 3958 
Q 2384 4250 1959 4250 
Q 1534 4250 1286 3958 
Q 1038 3666 1038 3163 
Q 1038 2656 1286 2365 
Q 1534 2075 1959 2075 
z
" transform="scale(0.015625)"/>
      <path id="DejaVuSans-2e" d="M 684 794 
L 1344 794 
L 1344 0 
L 684 0 
L 684 794 
z
" transform="scale(0.015625)"/>
      <path id="DejaVuSans-37" d="M 525 4666 
L 3525 4666 
L 3525 4397 
L 1831 0 
L 1172 0 
L 2766 4134 
L 525 4134 
L 525 4666 
z
" transform="scale(0.015625)"/>
     </defs>
     <use xlink:href="#DejaVuSans-31"/>
     <use xlink:href="#DejaVuSans-32" transform="translate(63.623047 0)"/>
     <use xlink:href="#DejaVuSans-33" transform="translate(127.246094 0)"/>
     <use xlink:href="#DejaVuSans-35" transform="translate(190.869141 0)"/>
     <use xlink:href="#DejaVuSans-31" transform="translate(254.492188 0)"/>
     <use xlink:href="#DejaVuSans-39" transform="translate(318.115234 0)"/>
     <use xlink:href="#DejaVuSans-2e" transform="translate(381.738281 0)"/>
     <use xlink:href="#DejaVuSans-34" transform="translate(413.525391 0)"/>
     <use xlink:href="#DejaVuSans-37" transform="translate(477.148438 0)"/>
    </g>
   </g>
   <g id="text_17">
    <!-- 66427.8 -->
    <g style="fill: #c44e52" transform="translate(180.631016 32.976194) scale(0.132 -0.132)">
     <use xlink:href="#DejaVuSans-36"/>
     <use xlink:href="#DejaVuSans-36" transform="translate(63.623047 0)"/>
     <use xlink:href="#DejaVuSans-34" transform="translate(127.246094 0)"/>
     <use xlink:href="#DejaVuSans-32" transform="translate(190.869141 0)"/>
     <use xlink:href="#DejaVuSans-37" transform="translate(254.492188 0)"/>
     <use xlink:href="#DejaVuSans-2e" transform="translate(318.115234 0)"/>
     <use xlink:href="#DejaVuSans-38" transform="translate(349.902344 0)"/>
    </g>
   </g>
   <g id="legend_1">
    <g id="patch_7">
     <path d="M 43.796 183.886875 
L 142.133094 183.886875 
Q 144.653094 183.886875 144.653094 181.366875 
L 144.653094 126.793125 
Q 144.653094 124.273125 142.133094 124.273125 
L 43.796 124.273125 
Q 41.276 124.273125 41.276 126.793125 
L 41.276 181.366875 
Q 41.276 183.886875 43.796 183.886875 
z
" style="fill: #373e4b; opacity: 0.8; stroke: #cccccc; stroke-width: 0.16; stroke-linejoin: miter"/>
    </g>
    <g id="line2d_83">
     <path d="M 46.316 134.477156 
L 46.316 134.477156 
L 58.916 134.477156 
L 58.916 134.477156 
L 71.516 134.477156 
" style="fill: none; stroke: #3572c6; stroke-width: 1.2; stroke-linecap: square"/>
    </g>
    <g id="text_18">
     <!-- USD/BTC -->
     <g style="fill: #b1bed6" transform="translate(81.596 138.887156) scale(0.126 -0.126)">
      <defs>
       <path id="DejaVuSans-55" d="M 556 4666 
L 1191 4666 
L 1191 1831 
Q 1191 1081 1462 751 
Q 1734 422 2344 422 
Q 2950 422 3222 751 
Q 3494 1081 3494 1831 
L 3494 4666 
L 4128 4666 
L 4128 1753 
Q 4128 841 3676 375 
Q 3225 -91 2344 -91 
Q 1459 -91 1007 375 
Q 556 841 556 1753 
L 556 4666 
z
" transform="scale(0.015625)"/>
       <path id="DejaVuSans-53" d="M 3425 4513 
L 3425 3897 
Q 3066 4069 2747 4153 
Q 2428 4238 2131 4238 
Q 1616 4238 1336 4038 
Q 1056 3838 1056 3469 
Q 1056 3159 1242 3001 
Q 1428 2844 1947 2747 
L 2328 2669 
Q 3034 2534 3370 2195 
Q 3706 1856 3706 1288 
Q 3706 609 3251 259 
Q 2797 -91 1919 -91 
Q 1588 -91 1214 -16 
Q 841 59 441 206 
L 441 856 
Q 825 641 1194 531 
Q 1563 422 1919 422 
Q 2459 422 2753 634 
Q 3047 847 3047 1241 
Q 3047 1584 2836 1778 
Q 2625 1972 2144 2069 
L 1759 2144 
Q 1053 2284 737 2584 
Q 422 2884 422 3419 
Q 422 4038 858 4394 
Q 1294 4750 2059 4750 
Q 2388 4750 2728 4690 
Q 3069 4631 3425 4513 
z
" transform="scale(0.015625)"/>
       <path id="DejaVuSans-2f" d="M 1625 4666 
L 2156 4666 
L 531 -594 
L 0 -594 
L 1625 4666 
z
" transform="scale(0.015625)"/>
       <path id="DejaVuSans-42" d="M 1259 2228 
L 1259 519 
L 2272 519 
Q 2781 519 3026 730 
Q 3272 941 3272 1375 
Q 3272 1813 3026 2020 
Q 2781 2228 2272 2228 
L 1259 2228 
z
M 1259 4147 
L 1259 2741 
L 2194 2741 
Q 2656 2741 2882 2914 
Q 3109 3088 3109 3444 
Q 3109 3797 2882 3972 
Q 2656 4147 2194 4147 
L 1259 4147 
z
M 628 4666 
L 2241 4666 
Q 2963 4666 3353 4366 
Q 3744 4066 3744 3513 
Q 3744 3084 3544 2831 
Q 3344 2578 2956 2516 
Q 3422 2416 3680 2098 
Q 3938 1781 3938 1306 
Q 3938 681 3513 340 
Q 3088 0 2303 0 
L 628 0 
L 628 4666 
z
" transform="scale(0.015625)"/>
       <path id="DejaVuSans-54" d="M -19 4666 
L 3928 4666 
L 3928 4134 
L 2272 4134 
L 2272 0 
L 1638 0 
L 1638 4134 
L -19 4134 
L -19 4666 
z
" transform="scale(0.015625)"/>
       <path id="DejaVuSans-43" d="M 4122 4306 
L 4122 3641 
Q 3803 3938 3442 4084 
Q 3081 4231 2675 4231 
Q 1875 4231 1450 3742 
Q 1025 3253 1025 2328 
Q 1025 1406 1450 917 
Q 1875 428 2675 428 
Q 3081 428 3442 575 
Q 3803 722 4122 1019 
L 4122 359 
Q 3791 134 3420 21 
Q 3050 -91 2638 -91 
Q 1578 -91 968 557 
Q 359 1206 359 2328 
Q 359 3453 968 4101 
Q 1578 4750 2638 4750 
Q 3056 4750 3426 4639 
Q 3797 4528 4122 4306 
z
" transform="scale(0.015625)"/>
      </defs>
      <use xlink:href="#DejaVuSans-55"/>
      <use xlink:href="#DejaVuSans-53" transform="translate(73.193359 0)"/>
      <use xlink:href="#DejaVuSans-44" transform="translate(136.669922 0)"/>
      <use xlink:href="#DejaVuSans-2f" transform="translate(213.671875 0)"/>
      <use xlink:href="#DejaVuSans-42" transform="translate(247.363281 0)"/>
      <use xlink:href="#DejaVuSans-54" transform="translate(315.966797 0)"/>
      <use xlink:href="#DejaVuSans-43" transform="translate(371.175781 0)"/>
     </g>
    </g>
    <g id="line2d_84">
     <path d="M 46.316 152.971594 
L 46.316 152.971594 
L 58.916 152.971594 
L 58.916 152.971594 
L 71.516 152.971594 
" style="fill: none; stroke: #83a83b; stroke-width: 1.2; stroke-linecap: square"/>
    </g>
    <g id="text_19">
     <!-- Max -->
     <g style="fill: #b1bed6" transform="translate(81.596 157.381594) scale(0.126 -0.126)">
      <defs>
       <path id="DejaVuSans-4d" d="M 628 4666 
L 1569 4666 
L 2759 1491 
L 3956 4666 
L 4897 4666 
L 4897 0 
L 4281 0 
L 4281 4097 
L 3078 897 
L 2444 897 
L 1241 4097 
L 1241 0 
L 628 0 
L 628 4666 
z
" transform="scale(0.015625)"/>
       <path id="DejaVuSans-78" d="M 3513 3500 
L 2247 1797 
L 3578 0 
L 2900 0 
L 1881 1375 
L 863 0 
L 184 0 
L 1544 1831 
L 300 3500 
L 978 3500 
L 1906 2253 
L 2834 3500 
L 3513 3500 
z
" transform="scale(0.015625)"/>
      </defs>
      <use xlink:href="#DejaVuSans-4d"/>
      <use xlink:href="#DejaVuSans-61" transform="translate(86.279297 0)"/>
      <use xlink:href="#DejaVuSans-78" transform="translate(147.558594 0)"/>
     </g>
    </g>
    <g id="line2d_85">
     <path d="M 46.316 171.466031 
L 46.316 171.466031 
L 58.916 171.466031 
L 58.916 171.466031 
L 71.516 171.466031 
" style="fill: none; stroke: #c44e52; stroke-width: 1.2; stroke-linecap: square"/>
    </g>
    <g id="text_20">
     <!-- local_Min -->
     <g style="fill: #b1bed6" transform="translate(81.596 175.876031) scale(0.126 -0.126)">
      <defs>
       <path id="DejaVuSans-6c" d="M 603 4863 
L 1178 4863 
L 1178 0 
L 603 0 
L 603 4863 
z
" transform="scale(0.015625)"/>
       <path id="DejaVuSans-6f" d="M 1959 3097 
Q 1497 3097 1228 2736 
Q 959 2375 959 1747 
Q 959 1119 1226 758 
Q 1494 397 1959 397 
Q 2419 397 2687 759 
Q 2956 1122 2956 1747 
Q 2956 2369 2687 2733 
Q 2419 3097 1959 3097 
z
M 1959 3584 
Q 2709 3584 3137 3096 
Q 3566 2609 3566 1747 
Q 3566 888 3137 398 
Q 2709 -91 1959 -91 
Q 1206 -91 779 398 
Q 353 888 353 1747 
Q 353 2609 779 3096 
Q 1206 3584 1959 3584 
z
" transform="scale(0.015625)"/>
       <path id="DejaVuSans-63" d="M 3122 3366 
L 3122 2828 
Q 2878 2963 2633 3030 
Q 2388 3097 2138 3097 
Q 1578 3097 1268 2742 
Q 959 2388 959 1747 
Q 959 1106 1268 751 
Q 1578 397 2138 397 
Q 2388 397 2633 464 
Q 2878 531 3122 666 
L 3122 134 
Q 2881 22 2623 -34 
Q 2366 -91 2075 -91 
Q 1284 -91 818 406 
Q 353 903 353 1747 
Q 353 2603 823 3093 
Q 1294 3584 2113 3584 
Q 2378 3584 2631 3529 
Q 2884 3475 3122 3366 
z
" transform="scale(0.015625)"/>
       <path id="DejaVuSans-5f" d="M 3263 -1063 
L 3263 -1509 
L -63 -1509 
L -63 -1063 
L 3263 -1063 
z
" transform="scale(0.015625)"/>
       <path id="DejaVuSans-69" d="M 603 3500 
L 1178 3500 
L 1178 0 
L 603 0 
L 603 3500 
z
M 603 4863 
L 1178 4863 
L 1178 4134 
L 603 4134 
L 603 4863 
z
" transform="scale(0.015625)"/>
       <path id="DejaVuSans-6e" d="M 3513 2113 
L 3513 0 
L 2938 0 
L 2938 2094 
Q 2938 2591 2744 2837 
Q 2550 3084 2163 3084 
Q 1697 3084 1428 2787 
Q 1159 2491 1159 1978 
L 1159 0 
L 581 0 
L 581 3500 
L 1159 3500 
L 1159 2956 
Q 1366 3272 1645 3428 
Q 1925 3584 2291 3584 
Q 2894 3584 3203 3211 
Q 3513 2838 3513 2113 
z
" transform="scale(0.015625)"/>
      </defs>
      <use xlink:href="#DejaVuSans-6c"/>
      <use xlink:href="#DejaVuSans-6f" transform="translate(27.783203 0)"/>
      <use xlink:href="#DejaVuSans-63" transform="translate(88.964844 0)"/>
      <use xlink:href="#DejaVuSans-61" transform="translate(143.945312 0)"/>
      <use xlink:href="#DejaVuSans-6c" transform="translate(205.224609 0)"/>
      <use xlink:href="#DejaVuSans-5f" transform="translate(233.007812 0)"/>
      <use xlink:href="#DejaVuSans-4d" transform="translate(283.007812 0)"/>
      <use xlink:href="#DejaVuSans-69" transform="translate(369.287109 0)"/>
      <use xlink:href="#DejaVuSans-6e" transform="translate(397.070312 0)"/>
     </g>
    </g>
   </g>
  </g>
 </g>
 <defs>
  <clipPath id="pb8821d61b7">
   <rect x="34.976" y="7.2" width="892.8" height="293.76"/>
  </clipPath>
 </defs>
</svg>
