<?xml version="1.0" encoding="utf-8" standalone="no"?>
<!DOCTYPE svg PUBLIC "-//W3C//DTD SVG 1.1//EN"
  "http://www.w3.org/Graphics/SVG/1.1/DTD/svg11.dtd">
<svg xmlns:xlink="http://www.w3.org/1999/xlink" width="934.976pt" height="358.290693pt" viewBox="0 0 934.976 358.290693" xmlns="http://www.w3.org/2000/svg" version="1.1">
 <metadata>
  <rdf:RDF xmlns:dc="http://purl.org/dc/elements/1.1/" xmlns:cc="http://creativecommons.org/ns#" xmlns:rdf="http://www.w3.org/1999/02/22-rdf-syntax-ns#">
   <cc:Work>
    <dc:type rdf:resource="http://purl.org/dc/dcmitype/StillImage"/>
    <dc:date>2026-03-24T09:03:42.851208</dc:date>
    <dc:format>image/svg+xml</dc:format>
    <dc:creator>
     <cc:Agent>
      <dc:title>Matplotlib v3.10.8, https://matplotlib.org/</dc:title>
     </cc:Agent>
    </dc:creator>
   </cc:Work>
  </rdf:RDF>
 </metadata>
 <defs>
  <style type="text/css">*{stroke-linejoin: round; stroke-linecap: butt}</style>
 </defs>
 <g id="figure_1">
  <g id="patch_1">
   <path d="M 0 358.290693 
L 934.976 358.290693 
L 934.976 0 
L 0 0 
z
" style="fill: #373e4b"/>
  </g>
  <g id="axes_1">
   <g id="patch_2">
    <path d="M 34.976 300.96 
L 927.776 300.96 
L 927.776 7.2 
L 34.976 7.2 
z
" style="fill: #373e4b"/>
   </g>
   <g id="matplotlib.axis_1">
    <g id="xtick_1">
     <g id="line2d_1">
      <path d="M 136.920972 300.96 
L 136.920972 7.2 
" clip-path="url(#p58b4abb2ea)" style="fill: none; stroke: #546379; stroke-width: 1.12; stroke-linecap: square"/>
     </g>
     <g id="line2d_2"/>
     <g id="text_1">
      <!-- 2012 -->
      <g style="fill: #b1bed6" transform="translate(107.839932 330.884854) rotate(-30) scale(0.126 -0.126)">
       <defs>
        <path id="DejaVuSans-32" d="M 1228 531 
L 3431 531 
L 3431 0 
L 469 0 
L 469 531 
Q 828 903 1448 1529 
Q 2069 2156 2228 2338 
Q 2531 2678 2651 2914 
Q 2772 3150 2772 3378 
Q 2772 3750 2511 3984 
Q 2250 4219 1831 4219 
Q 1534 4219 1204 4116 
Q 875 4013 500 3803 
L 500 4441 
Q 881 4594 1212 4672 
Q 1544 4750 1819 4750 
Q 2544 4750 2975 4387 
Q 3406 4025 3406 3419 
Q 3406 3131 3298 2873 
Q 3191 2616 2906 2266 
Q 2828 2175 2409 1742 
Q 1991 1309 1228 531 
z
" transform="scale(0.015625)"/>
        <path id="DejaVuSans-30" d="M 2034 4250 
Q 1547 4250 1301 3770 
Q 1056 3291 1056 2328 
Q 1056 1369 1301 889 
Q 1547 409 2034 409 
Q 2525 409 2770 889 
Q 3016 1369 3016 2328 
Q 3016 3291 2770 3770 
Q 2525 4250 2034 4250 
z
M 2034 4750 
Q 2819 4750 3233 4129 
Q 3647 3509 3647 2328 
Q 3647 1150 3233 529 
Q 2819 -91 2034 -91 
Q 1250 -91 836 529 
Q 422 1150 422 2328 
Q 422 3509 836 4129 
Q 1250 4750 2034 4750 
z
" transform="scale(0.015625)"/>
        <path id="DejaVuSans-31" d="M 794 531 
L 1825 531 
L 1825 4091 
L 703 3866 
L 703 4441 
L 1819 4666 
L 2450 4666 
L 2450 531 
L 3481 531 
L 3481 0 
L 794 0 
L 794 531 
z
" transform="scale(0.015625)"/>
       </defs>
       <use xlink:href="#DejaVuSans-32"/>
       <use xlink:href="#DejaVuSans-30" transform="translate(63.623047 0)"/>
       <use xlink:href="#DejaVuSans-31" transform="translate(127.246094 0)"/>
       <use xlink:href="#DejaVuSans-32" transform="translate(190.869141 0)"/>
      </g>
     </g>
    </g>
    <g id="xtick_2">
     <g id="line2d_3">
      <path d="M 242.465595 300.96 
L 242.465595 7.2 
" clip-path="url(#p58b4abb2ea)" style="fill: none; stroke: #546379; stroke-width: 1.12; stroke-linecap: square"/>
     </g>
     <g id="line2d_4"/>
     <g id="text_2">
      <!-- 2014 -->
      <g style="fill: #b1bed6" transform="translate(213.384556 330.884854) rotate(-30) scale(0.126 -0.126)">
       <defs>
        <path id="DejaVuSans-34" d="M 2419 4116 
L 825 1625 
L 2419 1625 
L 2419 4116 
z
M 2253 4666 
L 3047 4666 
L 3047 1625 
L 3713 1625 
L 3713 1100 
L 3047 1100 
L 3047 0 
L 2419 0 
L 2419 1100 
L 313 1100 
L 313 1709 
L 2253 4666 
z
" transform="scale(0.015625)"/>
       </defs>
       <use xlink:href="#DejaVuSans-32"/>
       <use xlink:href="#DejaVuSans-30" transform="translate(63.623047 0)"/>
       <use xlink:href="#DejaVuSans-31" transform="translate(127.246094 0)"/>
       <use xlink:href="#DejaVuSans-34" transform="translate(190.869141 0)"/>
      </g>
     </g>
    </g>
    <g id="xtick_3">
     <g id="line2d_5">
      <path d="M 347.865835 300.96 
L 347.865835 7.2 
" clip-path="url(#p58b4abb2ea)" style="fill: none; stroke: #546379; stroke-width: 1.12; stroke-linecap: square"/>
     </g>
     <g id="line2d_6"/>
     <g id="text_3">
      <!-- 2016 -->
      <g style="fill: #b1bed6" transform="translate(318.784796 330.884854) rotate(-30) scale(0.126 -0.126)">
       <defs>
        <path id="DejaVuSans-36" d="M 2113 2584 
Q 1688 2584 1439 2293 
Q 1191 2003 1191 1497 
Q 1191 994 1439 701 
Q 1688 409 2113 409 
Q 2538 409 2786 701 
Q 3034 994 3034 1497 
Q 3034 2003 2786 2293 
Q 2538 2584 2113 2584 
z
M 3366 4563 
L 3366 3988 
Q 3128 4100 2886 4159 
Q 2644 4219 2406 4219 
Q 1781 4219 1451 3797 
Q 1122 3375 1075 2522 
Q 1259 2794 1537 2939 
Q 1816 3084 2150 3084 
Q 2853 3084 3261 2657 
Q 3669 2231 3669 1497 
Q 3669 778 3244 343 
Q 2819 -91 2113 -91 
Q 1303 -91 875 529 
Q 447 1150 447 2328 
Q 447 3434 972 4092 
Q 1497 4750 2381 4750 
Q 2619 4750 2861 4703 
Q 3103 4656 3366 4563 
z
" transform="scale(0.015625)"/>
       </defs>
       <use xlink:href="#DejaVuSans-32"/>
       <use xlink:href="#DejaVuSans-30" transform="translate(63.623047 0)"/>
       <use xlink:href="#DejaVuSans-31" transform="translate(127.246094 0)"/>
       <use xlink:href="#DejaVuSans-36" transform="translate(190.869141 0)"/>
      </g>
     </g>
    </g>
    <g id="xtick_4">
     <g id="line2d_7">
      <path d="M 453.410459 300.96 
L 453.410459 7.2 
" clip-path="url(#p58b4abb2ea)" style="fill: none; stroke: #546379; stroke-width: 1.12; stroke-linecap: square"/>
     </g>
     <g id="line2d_8"/>
     <g id="text_4">
      <!-- 2018 -->
      <g style="fill: #b1bed6" transform="translate(424.32942 330.884854) rotate(-30) scale(0.126 -0.126)">
       <defs>
        <path id="DejaVuSans-38" d="M 2034 2216 
Q 1584 2216 1326 1975 
Q 1069 1734 1069 1313 
Q 1069 891 1326 650 
Q 1584 409 2034 409 
Q 2484 409 2743 651 
Q 3003 894 3003 1313 
Q 3003 1734 2745 1975 
Q 2488 2216 2034 2216 
z
M 1403 2484 
Q 997 2584 770 2862 
Q 544 3141 544 3541 
Q 544 4100 942 4425 
Q 1341 4750 2034 4750 
Q 2731 4750 3128 4425 
Q 3525 4100 3525 3541 
Q 3525 3141 3298 2862 
Q 3072 2584 2669 2484 
Q 3125 2378 3379 2068 
Q 3634 1759 3634 1313 
Q 3634 634 3220 271 
Q 2806 -91 2034 -91 
Q 1263 -91 848 271 
Q 434 634 434 1313 
Q 434 1759 690 2068 
Q 947 2378 1403 2484 
z
M 1172 3481 
Q 1172 3119 1398 2916 
Q 1625 2713 2034 2713 
Q 2441 2713 2670 2916 
Q 2900 3119 2900 3481 
Q 2900 3844 2670 4047 
Q 2441 4250 2034 4250 
Q 1625 4250 1398 4047 
Q 1172 3844 1172 3481 
z
" transform="scale(0.015625)"/>
       </defs>
       <use xlink:href="#DejaVuSans-32"/>
       <use xlink:href="#DejaVuSans-30" transform="translate(63.623047 0)"/>
       <use xlink:href="#DejaVuSans-31" transform="translate(127.246094 0)"/>
       <use xlink:href="#DejaVuSans-38" transform="translate(190.869141 0)"/>
      </g>
     </g>
    </g>
    <g id="xtick_5">
     <g id="line2d_9">
      <path d="M 558.810699 300.96 
L 558.810699 7.2 
" clip-path="url(#p58b4abb2ea)" style="fill: none; stroke: #546379; stroke-width: 1.12; stroke-linecap: square"/>
     </g>
     <g id="line2d_10"/>
     <g id="text_5">
      <!-- 2020 -->
      <g style="fill: #b1bed6" transform="translate(529.729659 330.884854) rotate(-30) scale(0.126 -0.126)">
       <use xlink:href="#DejaVuSans-32"/>
       <use xlink:href="#DejaVuSans-30" transform="translate(63.623047 0)"/>
       <use xlink:href="#DejaVuSans-32" transform="translate(127.246094 0)"/>
       <use xlink:href="#DejaVuSans-30" transform="translate(190.869141 0)"/>
      </g>
     </g>
    </g>
    <g id="xtick_6">
     <g id="line2d_11">
      <path d="M 664.355323 300.96 
L 664.355323 7.2 
" clip-path="url(#p58b4abb2ea)" style="fill: none; stroke: #546379; stroke-width: 1.12; stroke-linecap: square"/>
     </g>
     <g id="line2d_12"/>
     <g id="text_6">
      <!-- 2022 -->
      <g style="fill: #b1bed6" transform="translate(635.274283 330.884854) rotate(-30) scale(0.126 -0.126)">
       <use xlink:href="#DejaVuSans-32"/>
       <use xlink:href="#DejaVuSans-30" transform="translate(63.623047 0)"/>
       <use xlink:href="#DejaVuSans-32" transform="translate(127.246094 0)"/>
       <use xlink:href="#DejaVuSans-32" transform="translate(190.869141 0)"/>
      </g>
     </g>
    </g>
    <g id="xtick_7">
     <g id="line2d_13">
      <path d="M 769.755563 300.96 
L 769.755563 7.2 
" clip-path="url(#p58b4abb2ea)" style="fill: none; stroke: #546379; stroke-width: 1.12; stroke-linecap: square"/>
     </g>
     <g id="line2d_14"/>
     <g id="text_7">
      <!-- 2024 -->
      <g style="fill: #b1bed6" transform="translate(740.674523 330.884854) rotate(-30) scale(0.126 -0.126)">
       <use xlink:href="#DejaVuSans-32"/>
       <use xlink:href="#DejaVuSans-30" transform="translate(63.623047 0)"/>
       <use xlink:href="#DejaVuSans-32" transform="translate(127.246094 0)"/>
       <use xlink:href="#DejaVuSans-34" transform="translate(190.869141 0)"/>
      </g>
     </g>
    </g>
    <g id="xtick_8">
     <g id="line2d_15">
      <path d="M 875.300187 300.96 
L 875.300187 7.2 
" clip-path="url(#p58b4abb2ea)" style="fill: none; stroke: #546379; stroke-width: 1.12; stroke-linecap: square"/>
     </g>
     <g id="line2d_16"/>
     <g id="text_8">
      <!-- 2026 -->
      <g style="fill: #b1bed6" transform="translate(846.219147 330.884854) rotate(-30) scale(0.126 -0.126)">
       <use xlink:href="#DejaVuSans-32"/>
       <use xlink:href="#DejaVuSans-30" transform="translate(63.623047 0)"/>
       <use xlink:href="#DejaVuSans-32" transform="translate(127.246094 0)"/>
       <use xlink:href="#DejaVuSans-36" transform="translate(190.869141 0)"/>
      </g>
     </g>
    </g>
    <g id="text_9">
     <!-- Date -->
     <g style="fill: #b1bed6" transform="translate(464.166875 348.095943) scale(0.144 -0.144)">
      <defs>
       <path id="DejaVuSans-44" d="M 1259 4147 
L 1259 519 
L 2022 519 
Q 2988 519 3436 956 
Q 3884 1394 3884 2338 
Q 3884 3275 3436 3711 
Q 2988 4147 2022 4147 
L 1259 4147 
z
M 628 4666 
L 1925 4666 
Q 3281 4666 3915 4102 
Q 4550 3538 4550 2338 
Q 4550 1131 3912 565 
Q 3275 0 1925 0 
L 628 0 
L 628 4666 
z
" transform="scale(0.015625)"/>
       <path id="DejaVuSans-61" d="M 2194 1759 
Q 1497 1759 1228 1600 
Q 959 1441 959 1056 
Q 959 750 1161 570 
Q 1363 391 1709 391 
Q 2188 391 2477 730 
Q 2766 1069 2766 1631 
L 2766 1759 
L 2194 1759 
z
M 3341 1997 
L 3341 0 
L 2766 0 
L 2766 531 
Q 2569 213 2275 61 
Q 1981 -91 1556 -91 
Q 1019 -91 701 211 
Q 384 513 384 1019 
Q 384 1609 779 1909 
Q 1175 2209 1959 2209 
L 2766 2209 
L 2766 2266 
Q 2766 2663 2505 2880 
Q 2244 3097 1772 3097 
Q 1472 3097 1187 3025 
Q 903 2953 641 2809 
L 641 3341 
Q 956 3463 1253 3523 
Q 1550 3584 1831 3584 
Q 2591 3584 2966 3190 
Q 3341 2797 3341 1997 
z
" transform="scale(0.015625)"/>
       <path id="DejaVuSans-74" d="M 1172 4494 
L 1172 3500 
L 2356 3500 
L 2356 3053 
L 1172 3053 
L 1172 1153 
Q 1172 725 1289 603 
Q 1406 481 1766 481 
L 2356 481 
L 2356 0 
L 1766 0 
Q 1100 0 847 248 
Q 594 497 594 1153 
L 594 3053 
L 172 3053 
L 172 3500 
L 594 3500 
L 594 4494 
L 1172 4494 
z
" transform="scale(0.015625)"/>
       <path id="DejaVuSans-65" d="M 3597 1894 
L 3597 1613 
L 953 1613 
Q 991 1019 1311 708 
Q 1631 397 2203 397 
Q 2534 397 2845 478 
Q 3156 559 3463 722 
L 3463 178 
Q 3153 47 2828 -22 
Q 2503 -91 2169 -91 
Q 1331 -91 842 396 
Q 353 884 353 1716 
Q 353 2575 817 3079 
Q 1281 3584 2069 3584 
Q 2775 3584 3186 3129 
Q 3597 2675 3597 1894 
z
M 3022 2063 
Q 3016 2534 2758 2815 
Q 2500 3097 2075 3097 
Q 1594 3097 1305 2825 
Q 1016 2553 972 2059 
L 3022 2063 
z
" transform="scale(0.015625)"/>
      </defs>
      <use xlink:href="#DejaVuSans-44"/>
      <use xlink:href="#DejaVuSans-61" transform="translate(77.001953 0)"/>
      <use xlink:href="#DejaVuSans-74" transform="translate(138.28125 0)"/>
      <use xlink:href="#DejaVuSans-65" transform="translate(177.490234 0)"/>
     </g>
    </g>
   </g>
   <g id="matplotlib.axis_2">
    <g id="ytick_1">
     <g id="line2d_17">
      <path d="M 34.976 255.37232 
L 927.776 255.37232 
" clip-path="url(#p58b4abb2ea)" style="fill: none; stroke: #546379; stroke-width: 1.12; stroke-linecap: square"/>
     </g>
     <g id="line2d_18"/>
     <g id="text_10">
      <!-- $\mathdefault{10^{0}}$ -->
      <g style="fill: #b1bed6" transform="translate(7.2 260.159335) scale(0.126 -0.126)">
       <use xlink:href="#DejaVuSans-31" transform="translate(0 0.765625)"/>
       <use xlink:href="#DejaVuSans-30" transform="translate(63.623047 0.765625)"/>
       <use xlink:href="#DejaVuSans-30" transform="translate(128.203125 39.046875) scale(0.7)"/>
      </g>
     </g>
    </g>
    <g id="ytick_2">
     <g id="line2d_19">
      <path d="M 34.976 209.254528 
L 927.776 209.254528 
" clip-path="url(#p58b4abb2ea)" style="fill: none; stroke: #546379; stroke-width: 1.12; stroke-linecap: square"/>
     </g>
     <g id="line2d_20"/>
     <g id="text_11">
      <!-- $\mathdefault{10^{1}}$ -->
      <g style="fill: #b1bed6" transform="translate(7.2 214.041544) scale(0.126 -0.126)">
       <use xlink:href="#DejaVuSans-31" transform="translate(0 0.684375)"/>
       <use xlink:href="#DejaVuSans-30" transform="translate(63.623047 0.684375)"/>
       <use xlink:href="#DejaVuSans-31" transform="translate(128.203125 38.965625) scale(0.7)"/>
      </g>
     </g>
    </g>
    <g id="ytick_3">
     <g id="line2d_21">
      <path d="M 34.976 163.136737 
L 927.776 163.136737 
" clip-path="url(#p58b4abb2ea)" style="fill: none; stroke: #546379; stroke-width: 1.12; stroke-linecap: square"/>
     </g>
     <g id="line2d_22"/>
     <g id="text_12">
      <!-- $\mathdefault{10^{2}}$ -->
      <g style="fill: #b1bed6" transform="translate(7.2 167.923752) scale(0.126 -0.126)">
       <use xlink:href="#DejaVuSans-31" transform="translate(0 0.765625)"/>
       <use xlink:href="#DejaVuSans-30" transform="translate(63.623047 0.765625)"/>
       <use xlink:href="#DejaVuSans-32" transform="translate(128.203125 39.046875) scale(0.7)"/>
      </g>
     </g>
    </g>
    <g id="ytick_4">
     <g id="line2d_23">
      <path d="M 34.976 117.018945 
L 927.776 117.018945 
" clip-path="url(#p58b4abb2ea)" style="fill: none; stroke: #546379; stroke-width: 1.12; stroke-linecap: square"/>
     </g>
     <g id="line2d_24"/>
     <g id="text_13">
      <!-- $\mathdefault{10^{3}}$ -->
      <g style="fill: #b1bed6" transform="translate(7.2 121.805961) scale(0.126 -0.126)">
       <defs>
        <path id="DejaVuSans-33" d="M 2597 2516 
Q 3050 2419 3304 2112 
Q 3559 1806 3559 1356 
Q 3559 666 3084 287 
Q 2609 -91 1734 -91 
Q 1441 -91 1130 -33 
Q 819 25 488 141 
L 488 750 
Q 750 597 1062 519 
Q 1375 441 1716 441 
Q 2309 441 2620 675 
Q 2931 909 2931 1356 
Q 2931 1769 2642 2001 
Q 2353 2234 1838 2234 
L 1294 2234 
L 1294 2753 
L 1863 2753 
Q 2328 2753 2575 2939 
Q 2822 3125 2822 3475 
Q 2822 3834 2567 4026 
Q 2313 4219 1838 4219 
Q 1578 4219 1281 4162 
Q 984 4106 628 3988 
L 628 4550 
Q 988 4650 1302 4700 
Q 1616 4750 1894 4750 
Q 2613 4750 3031 4423 
Q 3450 4097 3450 3541 
Q 3450 3153 3228 2886 
Q 3006 2619 2597 2516 
z
" transform="scale(0.015625)"/>
       </defs>
       <use xlink:href="#DejaVuSans-31" transform="translate(0 0.765625)"/>
       <use xlink:href="#DejaVuSans-30" transform="translate(63.623047 0.765625)"/>
       <use xlink:href="#DejaVuSans-33" transform="translate(128.203125 39.046875) scale(0.7)"/>
      </g>
     </g>
    </g>
    <g id="ytick_5">
     <g id="line2d_25">
      <path d="M 34.976 70.901154 
L 927.776 70.901154 
" clip-path="url(#p58b4abb2ea)" style="fill: none; stroke: #546379; stroke-width: 1.12; stroke-linecap: square"/>
     </g>
     <g id="line2d_26"/>
     <g id="text_14">
      <!-- $\mathdefault{10^{4}}$ -->
      <g style="fill: #b1bed6" transform="translate(7.2 75.688169) scale(0.126 -0.126)">
       <use xlink:href="#DejaVuSans-31" transform="translate(0 0.684375)"/>
       <use xlink:href="#DejaVuSans-30" transform="translate(63.623047 0.684375)"/>
       <use xlink:href="#DejaVuSans-34" transform="translate(128.203125 38.965625) scale(0.7)"/>
      </g>
     </g>
    </g>
    <g id="ytick_6">
     <g id="line2d_27">
      <path d="M 34.976 24.783362 
L 927.776 24.783362 
" clip-path="url(#p58b4abb2ea)" style="fill: none; stroke: #546379; stroke-width: 1.12; stroke-linecap: square"/>
     </g>
     <g id="line2d_28"/>
     <g id="text_15">
      <!-- $\mathdefault{10^{5}}$ -->
      <g style="fill: #b1bed6" transform="translate(7.2 29.570378) scale(0.126 -0.126)">
       <defs>
        <path id="DejaVuSans-35" d="M 691 4666 
L 3169 4666 
L 3169 4134 
L 1269 4134 
L 1269 2991 
Q 1406 3038 1543 3061 
Q 1681 3084 1819 3084 
Q 2600 3084 3056 2656 
Q 3513 2228 3513 1497 
Q 3513 744 3044 326 
Q 2575 -91 1722 -91 
Q 1428 -91 1123 -41 
Q 819 9 494 109 
L 494 744 
Q 775 591 1075 516 
Q 1375 441 1709 441 
Q 2250 441 2565 725 
Q 2881 1009 2881 1497 
Q 2881 1984 2565 2268 
Q 2250 2553 1709 2553 
Q 1456 2553 1204 2497 
Q 953 2441 691 2322 
L 691 4666 
z
" transform="scale(0.015625)"/>
       </defs>
       <use xlink:href="#DejaVuSans-31" transform="translate(0 0.684375)"/>
       <use xlink:href="#DejaVuSans-30" transform="translate(63.623047 0.684375)"/>
       <use xlink:href="#DejaVuSans-35" transform="translate(128.203125 38.965625) scale(0.7)"/>
      </g>
     </g>
    </g>
    <g id="ytick_7">
     <g id="line2d_29"/>
    </g>
    <g id="ytick_8">
     <g id="line2d_30"/>
    </g>
    <g id="ytick_9">
     <g id="line2d_31"/>
    </g>
    <g id="ytick_10">
     <g id="line2d_32"/>
    </g>
    <g id="ytick_11">
     <g id="line2d_33"/>
    </g>
    <g id="ytick_12">
     <g id="line2d_34"/>
    </g>
    <g id="ytick_13">
     <g id="line2d_35"/>
    </g>
    <g id="ytick_14">
     <g id="line2d_36"/>
    </g>
    <g id="ytick_15">
     <g id="line2d_37"/>
    </g>
    <g id="ytick_16">
     <g id="line2d_38"/>
    </g>
    <g id="ytick_17">
     <g id="line2d_39"/>
    </g>
    <g id="ytick_18">
     <g id="line2d_40"/>
    </g>
    <g id="ytick_19">
     <g id="line2d_41"/>
    </g>
    <g id="ytick_20">
     <g id="line2d_42"/>
    </g>
    <g id="ytick_21">
     <g id="line2d_43"/>
    </g>
    <g id="ytick_22">
     <g id="line2d_44"/>
    </g>
    <g id="ytick_23">
     <g id="line2d_45"/>
    </g>
    <g id="ytick_24">
     <g id="line2d_46"/>
    </g>
    <g id="ytick_25">
     <g id="line2d_47"/>
    </g>
    <g id="ytick_26">
     <g id="line2d_48"/>
    </g>
    <g id="ytick_27">
     <g id="line2d_49"/>
    </g>
    <g id="ytick_28">
     <g id="line2d_50"/>
    </g>
    <g id="ytick_29">
     <g id="line2d_51"/>
    </g>
    <g id="ytick_30">
     <g id="line2d_52"/>
    </g>
    <g id="ytick_31">
     <g id="line2d_53"/>
    </g>
    <g id="ytick_32">
     <g id="line2d_54"/>
    </g>
    <g id="ytick_33">
     <g id="line2d_55"/>
    </g>
    <g id="ytick_34">
     <g id="line2d_56"/>
    </g>
    <g id="ytick_35">
     <g id="line2d_57"/>
    </g>
    <g id="ytick_36">
     <g id="line2d_58"/>
    </g>
    <g id="ytick_37">
     <g id="line2d_59"/>
    </g>
    <g id="ytick_38">
     <g id="line2d_60"/>
    </g>
    <g id="ytick_39">
     <g id="line2d_61"/>
    </g>
    <g id="ytick_40">
     <g id="line2d_62"/>
    </g>
    <g id="ytick_41">
     <g id="line2d_63"/>
    </g>
    <g id="ytick_42">
     <g id="line2d_64"/>
    </g>
    <g id="ytick_43">
     <g id="line2d_65"/>
    </g>
    <g id="ytick_44">
     <g id="line2d_66"/>
    </g>
    <g id="ytick_45">
     <g id="line2d_67"/>
    </g>
    <g id="ytick_46">
     <g id="line2d_68"/>
    </g>
    <g id="ytick_47">
     <g id="line2d_69"/>
    </g>
    <g id="ytick_48">
     <g id="line2d_70"/>
    </g>
    <g id="ytick_49">
     <g id="line2d_71"/>
    </g>
    <g id="ytick_50">
     <g id="line2d_72"/>
    </g>
    <g id="ytick_51">
     <g id="line2d_73"/>
    </g>
    <g id="ytick_52">
     <g id="line2d_74"/>
    </g>
    <g id="ytick_53">
     <g id="line2d_75"/>
    </g>
    <g id="ytick_54">
     <g id="line2d_76"/>
    </g>
    <g id="ytick_55">
     <g id="line2d_77"/>
    </g>
   </g>
   <g id="line2d_78">
    <path d="M 75.557818 287.607273 
L 75.557818 283.137997 
L 76.135354 283.137997 
L 76.135354 278.19371 
L 76.712889 278.19371 
L 76.712889 279.486333 
L 77.290425 279.486333 
L 77.290425 280.86817 
L 77.86796 280.86817 
L 77.86796 280.165337 
L 78.445496 280.165337 
L 78.445496 280.86817 
L 79.600567 280.86817 
L 79.600567 282.352457 
L 80.178103 282.352457 
L 80.178103 284.808022 
L 81.333174 284.808022 
L 81.333174 283.137997 
L 81.910709 283.137997 
L 81.910709 282.352457 
L 82.488245 282.352457 
L 82.488245 283.137997 
L 83.06578 283.137997 
L 83.06578 281.596567 
L 83.643316 281.596567 
L 83.643316 279.486333 
L 84.798387 279.486333 
L 84.798387 278.19371 
L 85.375923 278.19371 
L 85.375923 275.834669 
L 85.953458 275.834669 
L 85.953458 273.724434 
L 86.530994 273.724434 
L 86.530994 274.751772 
L 87.108529 274.751772 
L 87.108529 271.815495 
L 87.686065 271.815495 
L 87.686065 271.365393 
L 88.263601 271.365393 
L 88.263601 257.042345 
L 89.418672 257.042345 
L 89.418672 255.982378 
L 89.996207 255.982378 
L 89.996207 253.83089 
L 90.573743 253.83089 
L 90.573743 254.395116 
L 91.151278 254.395116 
L 91.151278 257.932656 
L 91.728814 257.932656 
L 91.728814 255.37232 
L 92.306349 255.37232 
L 92.306349 255.982378 
L 92.883885 255.982378 
L 92.883885 257.042345 
L 93.461421 257.042345 
L 93.461421 257.932656 
L 94.038956 257.932656 
L 94.038956 257.26124 
L 94.616492 257.26124 
L 94.616492 258.161558 
L 95.194027 258.161558 
L 95.194027 260.093532 
L 95.771563 260.093532 
L 95.771563 257.706341 
L 96.349098 257.706341 
L 96.349098 259.841596 
L 97.50417 259.841596 
L 97.50417 261.134218 
L 98.081705 261.134218 
L 98.081705 260.868934 
L 98.659241 260.868934 
L 98.659241 255.776954 
L 99.236776 255.776954 
L 99.236776 251.720656 
L 99.814312 251.720656 
L 99.814312 248.921405 
L 100.391847 248.921405 
L 100.391847 243.823502 
L 100.969383 243.823502 
L 100.969383 226.917627 
L 101.546918 226.917627 
L 101.546918 229.940664 
L 102.124454 229.940664 
L 102.124454 228.062436 
L 102.70199 228.062436 
L 102.70199 217.729074 
L 103.279525 217.729074 
L 103.279525 212.580386 
L 103.857061 212.580386 
L 103.857061 216.455571 
L 104.434596 216.455571 
L 104.434596 215.640255 
L 105.012132 215.640255 
L 105.012132 212.089863 
L 105.589667 212.089863 
L 105.589667 209.926627 
L 106.167203 209.926627 
L 106.167203 196.34639 
L 106.744739 196.34639 
L 106.744739 185.746445 
L 107.322274 185.746445 
L 107.322274 192.005794 
L 107.89981 192.005794 
L 107.89981 196.536537 
L 108.477345 196.536537 
L 108.477345 200.619497 
L 109.054881 200.619497 
L 109.054881 197.954799 
L 109.632416 197.954799 
L 109.632416 198.218565 
L 110.209952 198.218565 
L 110.209952 200.169105 
L 110.787487 200.169105 
L 110.787487 199.716176 
L 111.365023 199.716176 
L 111.365023 201.040338 
L 111.942559 201.040338 
L 111.942559 202.160926 
L 112.520094 202.160926 
L 112.520094 201.757417 
L 113.09763 201.757417 
L 113.09763 202.615821 
L 113.675165 202.615821 
L 113.675165 202.372872 
L 114.252701 202.372872 
L 114.252701 201.702393 
L 114.830236 201.702393 
L 114.830236 206.455278 
L 115.407772 206.455278 
L 115.407772 209.94735 
L 115.985307 209.94735 
L 115.985307 209.395222 
L 116.562843 209.395222 
L 116.562843 206.700602 
L 117.140379 206.700602 
L 117.140379 206.024537 
L 117.717914 206.024537 
L 117.717914 206.806668 
L 118.29545 206.806668 
L 118.29545 210.324077 
L 118.872985 210.324077 
L 118.872985 212.604047 
L 119.450521 212.604047 
L 119.450521 213.058992 
L 120.028056 213.058992 
L 120.028056 217.097011 
L 120.605592 217.097011 
L 120.605592 218.861295 
L 121.183128 218.861295 
L 121.183128 223.057412 
L 121.760663 223.057412 
L 121.760663 218.893678 
L 122.338199 218.893678 
L 122.338199 221.264877 
L 122.915734 221.264877 
L 122.915734 223.379165 
L 123.49327 223.379165 
L 123.49327 222.898453 
L 124.070805 222.898453 
L 124.070805 223.996748 
L 124.648341 223.996748 
L 124.648341 226.821103 
L 125.225876 226.821103 
L 125.225876 227.556633 
L 125.803412 227.556633 
L 125.803412 236.311847 
L 126.380948 236.311847 
L 126.380948 231.338582 
L 126.958483 231.338582 
L 126.958483 232.711804 
L 127.536019 232.711804 
L 127.536019 230.97985 
L 128.113554 230.97985 
L 128.113554 231.951129 
L 128.69109 231.951129 
L 128.69109 232.138606 
L 129.268625 232.138606 
L 129.268625 232.647299 
L 129.846161 232.647299 
L 129.846161 236.234665 
L 130.423697 236.234665 
L 130.423697 237.424839 
L 131.001232 237.424839 
L 131.001232 237.181079 
L 131.578768 237.181079 
L 131.578768 235.928878 
L 132.156303 235.928878 
L 132.156303 232.455022 
L 132.733839 232.455022 
L 132.733839 232.97192 
L 133.311374 232.97192 
L 133.311374 232.583001 
L 133.88891 232.583001 
L 133.88891 231.703858 
L 134.466445 231.703858 
L 134.466445 231.098715 
L 135.043981 231.098715 
L 135.043981 227.707037 
L 135.621517 227.707037 
L 135.621517 226.39241 
L 136.199052 226.39241 
L 136.199052 225.381573 
L 136.776588 225.381573 
L 136.776588 221.707518 
L 137.354123 221.707518 
L 137.354123 216.227322 
L 137.931659 216.227322 
L 137.931659 216.114165 
L 138.509194 216.114165 
L 138.509194 216.284141 
L 139.08673 216.284141 
L 139.08673 218.287185 
L 139.664266 218.287185 
L 139.664266 217.975205 
L 140.241801 217.975205 
L 140.241801 220.513041 
L 140.819337 220.513041 
L 140.819337 220.689506 
L 141.396872 220.689506 
L 141.396872 219.519112 
L 141.974408 219.519112 
L 141.974408 220.027052 
L 143.129479 220.095761 
L 143.129479 224.206915 
L 143.707014 224.206915 
L 143.707014 225.247601 
L 144.28455 225.247601 
L 144.28455 222.467712 
L 144.862086 222.467712 
L 144.862086 223.217642 
L 145.439621 223.217642 
L 145.439621 223.913295 
L 146.017157 223.913295 
L 146.017157 222.938075 
L 146.594692 222.938075 
L 146.594692 223.217642 
L 147.172228 223.217642 
L 147.172228 221.448123 
L 147.749763 221.448123 
L 147.749763 222.236609 
L 148.327299 222.236609 
L 148.327299 223.913295 
L 148.904834 223.913295 
L 148.904834 224.080551 
L 149.48237 224.080551 
L 149.48237 223.379165 
L 150.637441 223.298241 
L 150.637441 223.954978 
L 151.214977 223.954978 
L 151.214977 223.257901 
L 152.370048 223.177464 
L 152.370048 222.198349 
L 152.947583 222.198349 
L 152.947583 222.390381 
L 153.525119 222.390381 
L 153.525119 222.780056 
L 154.102655 222.780056 
L 154.102655 222.429009 
L 154.68019 222.429009 
L 154.68019 222.740746 
L 155.835261 222.740746 
L 155.835261 222.938075 
L 156.412797 222.938075 
L 156.412797 222.623275 
L 158.145403 222.545342 
L 158.145403 222.429009 
L 158.722939 222.429009 
L 158.722939 222.084008 
L 159.300475 222.084008 
L 159.300475 221.011116 
L 160.455546 220.939199 
L 160.455546 218.604102 
L 161.033081 218.604102 
L 161.033081 217.698519 
L 161.610617 217.698519 
L 161.610617 217.455744 
L 162.188152 217.455744 
L 162.188152 217.637549 
L 162.765688 217.637549 
L 162.765688 217.245703 
L 163.343224 217.245703 
L 163.343224 217.097011 
L 163.920759 217.097011 
L 163.920759 216.455571 
L 164.498295 216.455571 
L 164.498295 214.102908 
L 165.07583 214.102908 
L 165.07583 210.345215 
L 165.653366 210.345215 
L 165.653366 210.218718 
L 166.230901 210.218718 
L 166.230901 211.814865 
L 166.808437 211.814865 
L 166.808437 211.476343 
L 167.385972 211.476343 
L 167.385972 209.015614 
L 167.963508 209.015614 
L 167.963508 206.931125 
L 168.541044 206.931125 
L 168.541044 206.281868 
L 169.118579 206.281868 
L 169.118579 205.108303 
L 169.696115 205.108303 
L 169.696115 201.840237 
L 170.27365 201.840237 
L 170.27365 208.740437 
L 170.851186 208.740437 
L 170.851186 207.363805 
L 171.428721 207.363805 
L 171.428721 207.510134 
L 172.006257 207.510134 
L 172.006257 208.239211 
L 172.583793 208.239211 
L 172.583793 206.859912 
L 173.738864 206.913298 
L 173.738864 205.87171 
L 174.316399 205.87171 
L 174.316399 204.57803 
L 174.893935 204.57803 
L 174.893935 205.140897 
L 175.47147 205.140897 
L 175.47147 204.849447 
L 176.049006 204.849447 
L 176.049006 204.657477 
L 176.626541 204.657477 
L 176.626541 204.045986 
L 177.204077 204.045986 
L 177.204077 205.108303 
L 177.781613 205.108303 
L 177.781613 205.43665 
L 178.359148 205.43665 
L 178.359148 205.636273 
L 178.936684 205.636273 
L 178.936684 205.939489 
L 179.514219 205.939489 
L 179.514219 206.351052 
L 180.091755 206.351052 
L 180.091755 207.473452 
L 180.66929 207.473452 
L 180.66929 207.236638 
L 181.246826 207.236638 
L 181.246826 207.400287 
L 182.401897 207.436836 
L 182.401897 207.218538 
L 182.979433 207.218538 
L 182.979433 205.905571 
L 183.556968 205.905571 
L 183.556968 205.075763 
L 184.134504 205.075763 
L 184.134504 204.593894 
L 185.289575 204.530512 
L 185.289575 203.86153 
L 185.86711 203.86153 
L 185.86711 203.169779 
L 186.444646 203.169779 
L 186.444646 202.803614 
L 187.022182 202.803614 
L 187.022182 203.051876 
L 188.177253 202.949278 
L 188.177253 203.318141 
L 188.754788 203.318141 
L 188.754788 203.022509 
L 189.332324 203.022509 
L 189.332324 203.214173 
L 190.487395 203.184566 
L 190.487395 202.529737 
L 191.06493 202.529737 
L 191.06493 202.076772 
L 191.642466 202.076772 
L 191.642466 200.438123 
L 192.220002 200.438123 
L 192.220002 198.474155 
L 192.797537 198.474155 
L 192.797537 196.8899 
L 193.375073 196.8899 
L 193.375073 195.593226 
L 193.952608 195.593226 
L 193.952608 194.394486 
L 194.530144 194.394486 
L 194.530144 193.895273 
L 195.107679 193.895273 
L 195.107679 191.745077 
L 195.685215 191.745077 
L 195.685215 189.21317 
L 196.262751 189.21317 
L 196.262751 189.375826 
L 196.840286 189.375826 
L 196.840286 186.90656 
L 197.417822 186.90656 
L 197.417822 186.46521 
L 197.995357 186.46521 
L 197.995357 184.597163 
L 198.572893 184.597163 
L 198.572893 180.511647 
L 199.150428 180.511647 
L 199.150428 178.864525 
L 199.727964 178.864525 
L 199.727964 178.318608 
L 200.305499 178.318608 
L 200.305499 176.187869 
L 200.883035 176.187869 
L 200.883035 170.209069 
L 201.460571 170.209069 
L 201.460571 167.911261 
L 202.038106 167.911261 
L 202.038106 164.698205 
L 202.615642 164.698205 
L 202.615642 157.728444 
L 203.193177 157.728444 
L 203.193177 153.314284 
L 203.770713 153.314284 
L 203.770713 158.68349 
L 204.348248 158.68349 
L 204.348248 170.831623 
L 204.925784 170.831623 
L 204.925784 159.666147 
L 205.50332 159.666147 
L 205.50332 156.043135 
L 206.080855 156.043135 
L 206.080855 158.114365 
L 206.658391 158.114365 
L 206.658391 159.992155 
L 207.235926 159.992155 
L 207.235926 160.16753 
L 207.813462 160.16753 
L 207.813462 160.743898 
L 208.390997 160.743898 
L 208.390997 159.823395 
L 208.968533 159.823395 
L 208.968533 158.938472 
L 210.123604 159.039422 
L 210.123604 157.577651 
L 211.278675 157.530665 
L 211.278675 159.085179 
L 211.856211 159.085179 
L 211.856211 159.657728 
L 212.433746 159.657728 
L 212.433746 161.9508 
L 213.011282 161.9508 
L 213.011282 163.140743 
L 213.588817 163.140743 
L 213.588817 161.708753 
L 214.166353 161.708753 
L 214.166353 161.530504 
L 214.743888 161.530504 
L 214.743888 162.351197 
L 215.321424 162.351197 
L 215.321424 163.695241 
L 215.89896 163.695241 
L 215.89896 167.596001 
L 216.476495 167.596001 
L 216.476495 168.504633 
L 217.054031 168.504633 
L 217.054031 164.378152 
L 217.631566 164.378152 
L 217.631566 163.736474 
L 218.209102 163.736474 
L 218.209102 165.383183 
L 218.786637 165.383183 
L 218.786637 164.267648 
L 219.364173 164.267648 
L 219.364173 163.398817 
L 219.941709 163.398817 
L 219.941709 162.232149 
L 220.519244 162.232149 
L 220.519244 161.834102 
L 221.09678 161.834102 
L 221.09678 162.583641 
L 221.674315 162.583641 
L 221.674315 161.3465 
L 222.251851 161.3465 
L 222.251851 163.194904 
L 222.829386 163.194904 
L 222.829386 161.149656 
L 223.406922 161.149656 
L 223.406922 160.639309 
L 223.984457 160.639309 
L 223.984457 159.737009 
L 224.561993 159.737009 
L 224.561993 157.86806 
L 225.139529 157.86806 
L 225.139529 159.888004 
L 225.717064 159.888004 
L 225.717064 159.150729 
L 226.2946 159.150729 
L 226.2946 158.820261 
L 226.872135 158.820261 
L 226.872135 158.330623 
L 227.449671 158.330623 
L 227.449671 159.001913 
L 228.027206 159.001913 
L 228.027206 158.72362 
L 228.604742 158.72362 
L 228.604742 158.468169 
L 229.182278 158.468169 
L 229.182278 159.163865 
L 229.759813 159.163865 
L 229.759813 158.808962 
L 230.337349 158.808962 
L 230.337349 158.256707 
L 230.914884 158.256707 
L 230.914884 156.658265 
L 231.49242 156.658265 
L 231.49242 150.694477 
L 232.069955 150.694477 
L 232.069955 149.727115 
L 232.647491 149.727115 
L 232.647491 148.57456 
L 233.225026 148.57456 
L 233.225026 148.955699 
L 233.802562 148.955699 
L 233.802562 144.578193 
L 234.380098 144.578193 
L 234.380098 139.224019 
L 234.957633 139.224019 
L 234.957633 135.724665 
L 235.535169 135.724665 
L 235.535169 131.929122 
L 236.112704 131.929122 
L 236.112704 123.688509 
L 236.69024 123.688509 
L 236.69024 121.126976 
L 237.267775 121.126976 
L 237.267775 114.501195 
L 237.845311 114.501195 
L 237.845311 116.037736 
L 238.422847 116.037736 
L 238.422847 123.994292 
L 239.000382 123.994292 
L 239.000382 119.650419 
L 239.577918 119.650419 
L 239.577918 119.97045 
L 240.155453 119.97045 
L 240.155453 124.587763 
L 240.732989 124.587763 
L 240.732989 125.341484 
L 241.310524 125.341484 
L 241.310524 123.488046 
L 241.88806 123.488046 
L 241.88806 123.267395 
L 242.465595 123.267395 
L 242.465595 120.781313 
L 243.043131 120.781313 
L 243.043131 120.913218 
L 243.620667 120.913218 
L 243.620667 120.41492 
L 244.198202 120.41492 
L 244.198202 121.063393 
L 244.775738 121.063393 
L 244.775738 120.803802 
L 245.353273 120.803802 
L 245.353273 121.99479 
L 245.930809 121.99479 
L 245.930809 121.852022 
L 246.508344 121.852022 
L 246.508344 121.065109 
L 247.08588 121.065109 
L 247.08588 121.969642 
L 247.663415 121.969642 
L 247.663415 124.527356 
L 248.240951 124.527356 
L 248.240951 126.919059 
L 248.818487 126.919059 
L 248.818487 126.274188 
L 249.396022 126.274188 
L 249.396022 127.946397 
L 249.973558 127.946397 
L 249.973558 128.649132 
L 250.551093 128.649132 
L 250.551093 128.366202 
L 251.128629 128.366202 
L 251.128629 125.019077 
L 251.706164 125.019077 
L 251.706164 125.960627 
L 252.861236 125.925914 
L 252.861236 126.441804 
L 253.438771 126.441804 
L 253.438771 128.176165 
L 254.016307 128.176165 
L 254.016307 127.730173 
L 254.593842 127.730173 
L 254.593842 131.306418 
L 255.171378 131.306418 
L 255.171378 133.502218 
L 255.748913 133.502218 
L 255.748913 132.65908 
L 256.326449 132.65908 
L 256.326449 136.986733 
L 256.903984 136.986733 
L 256.903984 132.58749 
L 257.48152 132.58749 
L 257.48152 131.631546 
L 258.059056 131.631546 
L 258.059056 131.367004 
L 258.636591 131.367004 
L 258.636591 132.507473 
L 259.214127 132.507473 
L 259.214127 132.92187 
L 259.791662 132.92187 
L 259.791662 133.610609 
L 260.946733 133.571209 
L 260.946733 133.350906 
L 261.524269 133.350906 
L 261.524269 133.051224 
L 262.101805 133.051224 
L 262.101805 131.38341 
L 262.67934 131.38341 
L 262.67934 129.81387 
L 263.256876 129.81387 
L 263.256876 127.894621 
L 263.834411 127.894621 
L 263.834411 126.250357 
L 264.411947 126.250357 
L 264.411947 125.296318 
L 264.989482 125.296318 
L 264.989482 125.68367 
L 265.567018 125.68367 
L 265.567018 127.534196 
L 266.144553 127.534196 
L 266.144553 126.984835 
L 266.722089 126.984835 
L 266.722089 127.554182 
L 267.299625 127.554182 
L 267.299625 128.604794 
L 267.87716 128.604794 
L 267.87716 127.250453 
L 268.454696 127.250453 
L 268.454696 125.790765 
L 269.032231 125.790765 
L 269.032231 126.453349 
L 269.609767 126.453349 
L 269.609767 126.146152 
L 270.187302 126.146152 
L 270.187302 126.462333 
L 270.764838 126.462333 
L 270.764838 126.272916 
L 271.342374 126.272916 
L 271.342374 126.579496 
L 271.919909 126.579496 
L 271.919909 127.462208 
L 272.497445 127.462208 
L 272.497445 127.858802 
L 273.07498 127.858802 
L 273.07498 127.63773 
L 274.230051 127.6214 
L 274.230051 128.312275 
L 274.807587 128.312275 
L 274.807587 129.967354 
L 275.385122 129.967354 
L 275.385122 130.161745 
L 275.962658 130.161745 
L 275.962658 130.582678 
L 277.117729 130.638739 
L 277.117729 131.871859 
L 277.695265 131.871859 
L 277.695265 131.474298 
L 278.2728 131.474298 
L 278.2728 131.998816 
L 278.850336 131.998816 
L 278.850336 131.848327 
L 279.427871 131.848327 
L 279.427871 132.839184 
L 280.005407 132.839184 
L 280.005407 135.31356 
L 280.582942 135.31356 
L 280.582942 134.867219 
L 281.160478 134.867219 
L 281.160478 136.724127 
L 281.738014 136.724127 
L 281.738014 137.542587 
L 282.315549 137.542587 
L 282.315549 138.979109 
L 282.893085 138.979109 
L 282.893085 137.373098 
L 283.47062 137.373098 
L 283.47062 135.631111 
L 284.048156 135.631111 
L 284.048156 135.906922 
L 284.625691 135.906922 
L 284.625691 137.637682 
L 285.203227 137.637682 
L 285.203227 137.994084 
L 285.780763 137.994084 
L 285.780763 138.756714 
L 286.358298 138.756714 
L 286.358298 139.210064 
L 286.935834 139.210064 
L 286.935834 138.221398 
L 287.513369 138.221398 
L 287.513369 134.384797 
L 288.090905 134.384797 
L 288.090905 135.88482 
L 288.66844 135.88482 
L 288.66844 137.678656 
L 289.245976 137.678656 
L 289.245976 136.686127 
L 289.823511 136.686127 
L 289.823511 136.558209 
L 290.401047 136.558209 
L 290.401047 136.418436 
L 290.978583 136.418436 
L 290.978583 136.661012 
L 291.556118 136.661012 
L 291.556118 138.114882 
L 292.133654 138.114882 
L 292.133654 137.604067 
L 292.711189 137.604067 
L 292.711189 140.330735 
L 293.288725 140.330735 
L 293.288725 139.104206 
L 293.86626 139.104206 
L 293.86626 139.227661 
L 294.443796 139.227661 
L 294.443796 140.411716 
L 295.021332 140.411716 
L 295.021332 142.153972 
L 295.598867 142.153972 
L 295.598867 141.267602 
L 296.176403 141.267602 
L 296.176403 143.266944 
L 296.753938 143.266944 
L 296.753938 148.256676 
L 297.331474 148.256676 
L 297.331474 147.711541 
L 297.909009 147.711541 
L 297.909009 146.134154 
L 298.486545 146.134154 
L 298.486545 143.729744 
L 299.06408 143.729744 
L 299.06408 147.413355 
L 299.641616 147.413355 
L 299.641616 146.743214 
L 300.219152 146.743214 
L 300.219152 146.990332 
L 300.796687 146.990332 
L 300.796687 147.133952 
L 301.374223 147.133952 
L 301.374223 146.066566 
L 301.951758 146.066566 
L 301.951758 145.125593 
L 302.529294 145.125593 
L 302.529294 145.607242 
L 303.106829 145.607242 
L 303.106829 144.506165 
L 303.684365 144.506165 
L 303.684365 143.238742 
L 304.261901 143.238742 
L 304.261901 142.875683 
L 304.839436 142.875683 
L 304.839436 141.476374 
L 305.416972 141.476374 
L 305.416972 141.861751 
L 305.994507 141.861751 
L 305.994507 143.837962 
L 306.572043 143.837962 
L 306.572043 145.189256 
L 307.149578 145.189256 
L 307.149578 144.548875 
L 307.727114 144.548875 
L 307.727114 145.067818 
L 308.304649 145.067818 
L 308.304649 143.959065 
L 308.882185 143.959065 
L 308.882185 145.353427 
L 309.459721 145.353427 
L 309.459721 147.072788 
L 310.614792 147.106045 
L 310.614792 145.951593 
L 311.192327 145.951593 
L 311.192327 146.780354 
L 312.347398 146.839743 
L 312.347398 145.646513 
L 312.924934 145.646513 
L 312.924934 145.840654 
L 313.502469 145.840654 
L 313.502469 145.52311 
L 314.080005 145.52311 
L 314.080005 145.822927 
L 314.657541 145.822927 
L 314.657541 146.333104 
L 315.235076 146.333104 
L 315.235076 145.790046 
L 315.812612 145.790046 
L 315.812612 145.997503 
L 316.390147 145.997503 
L 316.390147 146.599727 
L 316.967683 146.599727 
L 316.967683 147.084466 
L 317.545218 147.084466 
L 317.545218 146.659462 
L 318.122754 146.659462 
L 318.122754 146.489511 
L 318.70029 146.489511 
L 318.70029 144.786225 
L 319.277825 144.786225 
L 319.277825 145.209704 
L 319.855361 145.209704 
L 319.855361 145.58555 
L 320.432896 145.58555 
L 320.432896 144.899515 
L 321.010432 144.899515 
L 321.010432 144.413151 
L 321.587967 144.413151 
L 321.587967 143.352536 
L 322.165503 143.352536 
L 322.165503 142.165919 
L 322.743038 142.165919 
L 322.743038 141.956134 
L 323.320574 141.956134 
L 323.320574 142.749355 
L 324.475645 142.660533 
L 324.475645 141.618141 
L 325.053181 141.618141 
L 325.053181 141.919299 
L 325.630716 141.919299 
L 325.630716 142.434841 
L 326.208252 142.434841 
L 326.208252 142.563496 
L 326.785787 142.563496 
L 326.785787 143.170627 
L 327.363323 143.170627 
L 327.363323 143.889226 
L 327.940859 143.889226 
L 327.940859 146.783894 
L 328.518394 146.783894 
L 328.518394 146.617278 
L 329.09593 146.617278 
L 329.09593 146.885067 
L 329.673465 146.885067 
L 329.673465 146.432889 
L 330.828536 146.391179 
L 330.828536 145.253943 
L 331.406072 145.253943 
L 331.406072 146.046931 
L 331.983607 146.046931 
L 331.983607 146.600604 
L 332.561143 146.600604 
L 332.561143 146.44072 
L 333.138679 146.44072 
L 333.138679 146.109317 
L 333.716214 146.109317 
L 333.716214 145.674132 
L 334.29375 145.674132 
L 334.29375 145.789204 
L 334.871285 145.789204 
L 334.871285 145.042645 
L 336.026356 145.130483 
L 336.026356 144.58771 
L 336.603892 144.58771 
L 336.603892 143.919127 
L 337.181428 143.919127 
L 337.181428 142.92308 
L 337.758963 142.92308 
L 337.758963 142.04188 
L 338.336499 142.04188 
L 338.336499 139.335396 
L 338.914034 139.335396 
L 338.914034 135.146995 
L 339.49157 135.146995 
L 339.49157 136.03177 
L 340.069105 136.03177 
L 340.069105 140.54223 
L 340.646641 140.54223 
L 340.646641 139.904907 
L 341.224176 139.904907 
L 341.224176 139.474419 
L 341.801712 139.474419 
L 341.801712 139.623699 
L 342.379248 139.623699 
L 342.379248 137.592875 
L 342.956783 137.592875 
L 342.956783 137.338267 
L 343.534319 137.338267 
L 343.534319 136.035393 
L 344.111854 136.035393 
L 344.111854 134.561942 
L 344.68939 134.561942 
L 344.68939 133.765289 
L 345.266925 133.765289 
L 345.266925 132.721275 
L 345.844461 132.721275 
L 345.844461 133.537369 
L 346.421997 133.537369 
L 346.421997 132.768707 
L 346.999532 132.768707 
L 346.999532 133.772685 
L 348.154603 133.794425 
L 348.154603 133.957068 
L 348.732139 133.957068 
L 348.732139 133.082018 
L 349.309674 133.082018 
L 349.309674 133.943542 
L 349.88721 133.943542 
L 349.88721 136.111106 
L 350.464745 136.111106 
L 350.464745 136.319493 
L 351.042281 136.319493 
L 351.042281 135.793073 
L 351.619817 135.793073 
L 351.619817 136.578408 
L 352.197352 136.578408 
L 352.197352 137.016065 
L 352.774888 137.016065 
L 352.774888 136.663682 
L 353.352423 136.663682 
L 353.352423 136.503031 
L 353.929959 136.503031 
L 353.929959 135.410655 
L 354.507494 135.410655 
L 354.507494 134.39481 
L 355.662565 134.429653 
L 355.662565 133.848648 
L 356.240101 133.848648 
L 356.240101 134.274991 
L 356.817637 134.274991 
L 356.817637 135.088159 
L 357.395172 135.088159 
L 357.395172 134.58552 
L 358.550243 134.634206 
L 358.550243 134.976402 
L 359.127779 134.976402 
L 359.127779 134.566752 
L 360.28285 134.539353 
L 360.28285 134.694626 
L 360.860386 134.694626 
L 360.860386 134.465036 
L 362.015457 134.39624 
L 362.015457 134.268829 
L 362.592992 134.268829 
L 362.592992 133.948205 
L 363.170528 133.948205 
L 363.170528 133.647329 
L 363.748063 133.647329 
L 363.748063 132.926744 
L 364.325599 132.926744 
L 364.325599 133.222757 
L 364.903134 133.222757 
L 364.903134 132.878937 
L 365.48067 132.878937 
L 365.48067 133.040078 
L 366.058206 133.040078 
L 366.058206 132.543093 
L 366.635741 132.543093 
L 366.635741 132.754641 
L 367.213277 132.754641 
L 367.213277 132.8754 
L 367.790812 132.8754 
L 367.790812 133.316532 
L 368.368348 133.316532 
L 368.368348 133.069963 
L 368.945883 133.069963 
L 368.945883 130.454174 
L 369.523419 130.454174 
L 369.523419 129.434672 
L 370.100955 129.434672 
L 370.100955 127.801074 
L 370.67849 127.801074 
L 370.67849 128.00004 
L 371.256026 128.00004 
L 371.256026 124.590979 
L 371.833561 124.590979 
L 371.833561 122.72857 
L 372.411097 122.72857 
L 372.411097 127.49158 
L 372.988632 127.49158 
L 372.988632 126.266876 
L 373.566168 126.266876 
L 373.566168 125.101367 
L 374.143703 125.101367 
L 374.143703 124.68503 
L 374.721239 124.68503 
L 374.721239 125.250347 
L 376.453846 125.301163 
L 376.453846 125.114865 
L 377.031381 125.114865 
L 377.031381 125.296318 
L 377.608917 125.296318 
L 377.608917 125.476985 
L 378.186452 125.476985 
L 378.186452 127.065375 
L 378.763988 127.065375 
L 378.763988 128.18211 
L 379.341524 128.18211 
L 379.341524 127.757887 
L 380.496595 127.814117 
L 380.496595 128.245157 
L 381.07413 128.245157 
L 381.07413 128.02466 
L 382.229201 128.076426 
L 382.229201 128.22482 
L 383.384272 128.207305 
L 383.384272 126.979565 
L 383.961808 126.979565 
L 383.961808 126.540151 
L 384.539344 126.540151 
L 384.539344 126.952249 
L 385.694415 127.007578 
L 385.694415 127.448718 
L 386.27195 127.448718 
L 386.27195 127.024734 
L 388.004557 127.011866 
L 388.004557 126.773153 
L 388.582092 126.773153 
L 388.582092 126.10954 
L 389.159628 126.10954 
L 389.159628 125.989756 
L 389.737164 125.989756 
L 389.737164 126.308236 
L 390.314699 126.308236 
L 390.314699 125.834884 
L 390.892235 125.834884 
L 390.892235 124.569943 
L 391.46977 124.569943 
L 391.46977 123.415695 
L 392.047306 123.415695 
L 392.047306 124.063357 
L 392.624841 124.063357 
L 392.624841 123.556772 
L 393.202377 123.556772 
L 393.202377 124.151812 
L 393.779913 124.151812 
L 393.779913 123.135401 
L 395.512519 123.12915 
L 395.512519 123.321644 
L 396.090055 123.321644 
L 396.090055 122.437442 
L 397.245126 122.345512 
L 397.245126 122.300878 
L 397.822661 122.300878 
L 397.822661 122.101377 
L 398.400197 122.101377 
L 398.400197 121.714061 
L 398.977733 121.714061 
L 398.977733 118.821554 
L 399.555268 118.821554 
L 399.555268 118.465121 
L 400.132804 118.465121 
L 400.132804 117.735832 
L 400.710339 117.735832 
L 400.710339 114.943912 
L 401.287875 114.943912 
L 401.287875 118.897084 
L 401.86541 118.897084 
L 401.86541 121.350498 
L 402.442946 121.350498 
L 402.442946 120.737376 
L 403.020482 120.737376 
L 403.020482 119.226443 
L 403.598017 119.226443 
L 403.598017 119.49774 
L 404.175553 119.49774 
L 404.175553 118.719036 
L 404.753088 118.719036 
L 404.753088 117.353805 
L 405.330624 117.353805 
L 405.330624 116.798248 
L 405.908159 116.798248 
L 405.908159 117.31474 
L 406.485695 117.31474 
L 406.485695 116.994925 
L 407.06323 116.994925 
L 407.06323 115.955138 
L 407.640766 115.955138 
L 407.640766 114.659904 
L 408.218302 114.659904 
L 408.218302 114.213252 
L 408.795837 114.213252 
L 408.795837 112.95463 
L 409.373373 112.95463 
L 409.373373 112.215352 
L 409.950908 112.215352 
L 409.950908 113.499741 
L 410.528444 113.499741 
L 410.528444 112.698917 
L 411.105979 112.698917 
L 411.105979 115.695677 
L 411.683515 115.695677 
L 411.683515 114.874691 
L 412.261051 114.874691 
L 412.261051 117.79883 
L 412.838586 117.79883 
L 412.838586 116.237835 
L 413.416122 116.237835 
L 413.416122 115.477701 
L 413.993657 115.477701 
L 413.993657 113.472205 
L 414.571193 113.472205 
L 414.571193 113.201232 
L 415.148728 113.201232 
L 415.148728 113.868202 
L 415.726264 113.868202 
L 415.726264 113.347262 
L 416.303799 113.347262 
L 416.303799 112.820031 
L 416.881335 112.820031 
L 416.881335 111.949557 
L 417.458871 111.949557 
L 417.458871 110.937153 
L 418.036406 110.937153 
L 418.036406 108.406962 
L 418.613942 108.406962 
L 418.613942 106.975718 
L 419.191477 106.975718 
L 419.191477 106.475211 
L 419.769013 106.475211 
L 419.769013 106.285513 
L 420.346548 106.285513 
L 420.346548 103.047775 
L 420.924084 103.047775 
L 420.924084 99.3059 
L 421.501619 99.3059 
L 421.501619 101.434165 
L 422.079155 101.434165 
L 422.079155 99.401745 
L 422.656691 99.401745 
L 422.656691 97.13193 
L 423.234226 97.13193 
L 423.234226 96.217978 
L 423.811762 96.217978 
L 423.811762 97.080942 
L 424.389297 97.080942 
L 424.389297 97.653341 
L 424.966833 97.653341 
L 424.966833 97.434209 
L 425.544368 97.434209 
L 425.544368 98.650574 
L 426.121904 98.650574 
L 426.121904 98.335587 
L 427.276975 98.27076 
L 427.276975 98.643931 
L 427.854511 98.643931 
L 427.854511 100.241902 
L 428.432046 100.241902 
L 428.432046 103.415545 
L 429.009582 103.415545 
L 429.009582 100.642127 
L 429.587117 100.642127 
L 429.587117 96.76984 
L 430.164653 96.76984 
L 430.164653 97.450487 
L 430.742188 97.450487 
L 430.742188 95.952053 
L 431.89726 95.996737 
L 431.89726 92.456833 
L 432.474795 92.456833 
L 432.474795 89.922675 
L 433.052331 89.922675 
L 433.052331 87.454791 
L 433.629866 87.454791 
L 433.629866 88.981725 
L 434.207402 88.981725 
L 434.207402 87.657344 
L 434.784937 87.657344 
L 434.784937 87.450855 
L 435.362473 87.450855 
L 435.362473 85.15428 
L 435.940009 85.15428 
L 435.940009 87.412634 
L 436.517544 87.412634 
L 436.517544 87.661505 
L 437.09508 87.661505 
L 437.09508 89.939767 
L 437.672615 89.939767 
L 437.672615 90.931296 
L 438.250151 90.931296 
L 438.250151 91.358385 
L 438.827686 91.358385 
L 438.827686 89.596785 
L 439.405222 89.596785 
L 439.405222 88.44718 
L 439.982757 88.44718 
L 439.982757 87.766017 
L 440.560293 87.766017 
L 440.560293 87.165508 
L 441.137829 87.165508 
L 441.137829 85.509309 
L 441.715364 85.509309 
L 441.715364 82.188887 
L 442.870435 82.169648 
L 442.870435 81.46695 
L 443.447971 81.46695 
L 443.447971 81.91558 
L 444.025506 81.91558 
L 444.025506 79.789478 
L 444.603042 79.789478 
L 444.603042 77.024161 
L 445.180578 77.024161 
L 445.180578 76.747511 
L 445.758113 76.747511 
L 445.758113 81.502657 
L 446.335649 81.502657 
L 446.335649 75.7017 
L 446.913184 75.7017 
L 446.913184 74.771576 
L 448.068255 74.844677 
L 448.068255 71.064047 
L 448.645791 71.064047 
L 448.645791 69.151492 
L 449.223326 69.151492 
L 449.223326 64.386582 
L 449.800862 64.386582 
L 449.800862 62.688359 
L 450.378398 62.688359 
L 450.378398 60.983079 
L 450.955933 60.983079 
L 450.955933 58.138856 
L 451.533469 58.138856 
L 451.533469 64.484215 
L 452.111004 64.484215 
L 452.111004 61.894793 
L 452.68854 61.894793 
L 452.68854 66.252362 
L 453.266075 66.252362 
L 453.266075 62.727887 
L 453.843611 62.727887 
L 453.843611 61.247552 
L 454.421146 61.247552 
L 454.421146 65.211162 
L 454.998682 65.211162 
L 454.998682 64.810286 
L 455.576218 64.810286 
L 455.576218 68.090569 
L 456.153753 68.090569 
L 456.153753 69.30141 
L 456.731289 69.30141 
L 456.731289 68.221789 
L 457.308824 68.221789 
L 457.308824 70.49668 
L 457.88636 70.49668 
L 457.88636 74.870838 
L 459.041431 74.766061 
L 459.041431 73.244809 
L 459.618967 73.244809 
L 459.618967 70.546677 
L 460.196502 70.546677 
L 460.196502 68.549271 
L 460.774038 68.549271 
L 460.774038 71.511708 
L 461.351573 71.511708 
L 461.351573 70.246729 
L 461.929109 70.246729 
L 461.929109 68.072613 
L 462.506644 68.072613 
L 462.506644 72.301956 
L 463.08418 72.301956 
L 463.08418 72.724154 
L 463.661715 72.724154 
L 463.661715 74.638186 
L 464.239251 74.638186 
L 464.239251 73.212796 
L 464.816787 73.212796 
L 464.816787 74.076805 
L 465.394322 74.076805 
L 465.394322 75.494465 
L 465.971858 75.494465 
L 465.971858 78.54452 
L 466.549393 78.54452 
L 466.549393 78.664803 
L 467.704464 78.671444 
L 467.704464 75.634412 
L 468.859536 75.604146 
L 468.859536 73.16643 
L 469.437071 73.16643 
L 469.437071 73.302485 
L 470.014607 73.302485 
L 470.014607 72.143847 
L 470.592142 72.143847 
L 470.592142 71.401356 
L 471.169678 71.401356 
L 471.169678 72.206257 
L 471.747213 72.206257 
L 471.747213 74.400786 
L 472.324749 74.400786 
L 472.324749 74.224505 
L 472.902284 74.224505 
L 472.902284 74.773374 
L 473.47982 74.773374 
L 473.47982 76.631272 
L 474.057356 76.631272 
L 474.057356 77.082516 
L 474.634891 77.082516 
L 474.634891 76.690684 
L 475.789962 76.675153 
L 475.789962 76.356856 
L 476.367498 76.356856 
L 476.367498 79.366528 
L 476.945033 79.366528 
L 476.945033 79.564088 
L 477.522569 79.564088 
L 477.522569 78.741178 
L 478.100105 78.741178 
L 478.100105 80.614853 
L 478.67764 80.614853 
L 478.67764 81.543299 
L 479.255176 81.543299 
L 479.255176 79.143313 
L 480.410247 79.136816 
L 480.410247 80.062286 
L 480.987782 80.062286 
L 480.987782 80.318434 
L 481.565318 80.318434 
L 481.565318 77.010244 
L 482.720389 76.91388 
L 482.720389 75.52169 
L 483.297925 75.52169 
L 483.297925 74.945626 
L 483.87546 74.945626 
L 483.87546 76.891962 
L 484.452996 76.891962 
L 484.452996 78.867778 
L 485.030531 78.867778 
L 485.030531 80.385824 
L 485.608067 80.385824 
L 485.608067 80.248587 
L 486.185602 80.248587 
L 486.185602 79.570571 
L 486.763138 79.570571 
L 486.763138 79.449344 
L 487.340673 79.449344 
L 487.340673 78.329421 
L 487.918209 78.329421 
L 487.918209 77.991228 
L 488.495745 77.991228 
L 488.495745 77.042659 
L 489.07328 77.042659 
L 489.07328 80.52715 
L 489.650816 80.52715 
L 489.650816 80.07251 
L 490.228351 80.07251 
L 490.228351 79.537282 
L 491.383422 79.541444 
L 491.383422 79.273675 
L 491.960958 79.273675 
L 491.960958 79.136604 
L 492.538494 79.136604 
L 492.538494 79.463621 
L 493.116029 79.463621 
L 493.116029 79.303603 
L 494.2711 79.280917 
L 494.2711 80.266194 
L 494.848636 80.266194 
L 494.848636 79.499587 
L 496.003707 79.548012 
L 496.003707 79.615114 
L 496.581242 79.615114 
L 496.581242 80.150007 
L 497.158778 80.150007 
L 497.158778 79.961184 
L 497.736314 79.961184 
L 497.736314 79.416011 
L 498.313849 79.416011 
L 498.313849 79.813029 
L 498.891385 79.813029 
L 498.891385 82.305209 
L 499.46892 82.305209 
L 499.46892 85.39909 
L 500.046456 85.39909 
L 500.046456 87.559515 
L 500.623991 87.559515 
L 500.623991 90.131213 
L 501.201527 90.131213 
L 501.201527 88.332941 
L 501.779063 88.332941 
L 501.779063 90.572721 
L 502.356598 90.572721 
L 502.356598 91.42792 
L 502.934134 91.42792 
L 502.934134 93.057066 
L 503.511669 93.057066 
L 503.511669 91.606765 
L 504.089205 91.606765 
L 504.089205 89.761224 
L 504.66674 89.761224 
L 504.66674 90.1675 
L 505.244276 90.1675 
L 505.244276 90.437443 
L 505.821811 90.437443 
L 505.821811 89.600198 
L 506.399347 89.600198 
L 506.399347 88.897089 
L 506.976883 88.897089 
L 506.976883 91.107828 
L 507.554418 91.107828 
L 507.554418 90.9098 
L 508.131954 90.9098 
L 508.131954 91.220862 
L 508.709489 91.220862 
L 508.709489 91.434005 
L 509.86456 91.495794 
L 509.86456 92.100143 
L 511.019632 92.180998 
L 511.019632 92.539203 
L 511.597167 92.539203 
L 511.597167 91.200213 
L 512.174703 91.200213 
L 512.174703 91.317933 
L 512.752238 91.317933 
L 512.752238 89.624566 
L 513.329774 89.624566 
L 513.329774 88.566187 
L 513.907309 88.566187 
L 513.907309 90.106222 
L 515.06238 90.203906 
L 515.06238 89.828152 
L 516.217452 89.857701 
L 516.217452 89.573775 
L 516.794987 89.573775 
L 516.794987 89.108037 
L 518.527594 89.011831 
L 518.527594 88.689654 
L 519.105129 88.689654 
L 519.105129 85.142736 
L 519.682665 85.142736 
L 519.682665 83.735537 
L 520.2602 83.735537 
L 520.2602 84.49428 
L 520.837736 84.49428 
L 520.837736 84.01136 
L 521.415272 84.01136 
L 521.415272 83.581903 
L 521.992807 83.581903 
L 521.992807 83.116151 
L 522.570343 83.116151 
L 522.570343 83.612067 
L 523.147878 83.612067 
L 523.147878 83.279093 
L 523.725414 83.279093 
L 523.725414 82.21431 
L 524.302949 82.21431 
L 524.302949 80.00304 
L 524.880485 80.00304 
L 524.880485 75.388739 
L 525.458021 75.388739 
L 525.458021 77.300523 
L 526.035556 77.300523 
L 526.035556 76.329549 
L 526.613092 76.329549 
L 526.613092 73.588391 
L 527.190627 73.588391 
L 527.190627 74.699661 
L 527.768163 74.699661 
L 527.768163 75.035462 
L 528.345698 75.035462 
L 528.345698 75.374711 
L 528.923234 75.374711 
L 528.923234 75.577846 
L 529.500769 75.577846 
L 529.500769 73.326593 
L 530.078305 73.326593 
L 530.078305 72.394101 
L 530.655841 72.394101 
L 530.655841 69.332889 
L 531.233376 69.332889 
L 531.233376 68.751771 
L 531.810912 68.751771 
L 531.810912 69.774352 
L 532.388447 69.774352 
L 532.388447 69.074026 
L 532.965983 69.074026 
L 532.965983 66.293311 
L 533.543518 66.293311 
L 533.543518 68.295987 
L 534.121054 68.295987 
L 534.121054 71.56439 
L 534.69859 71.56439 
L 534.69859 69.757906 
L 535.276125 69.757906 
L 535.276125 71.152746 
L 535.853661 71.152746 
L 535.853661 71.925688 
L 536.431196 71.925688 
L 536.431196 69.867663 
L 537.008732 69.867663 
L 537.008732 68.161783 
L 537.586267 68.161783 
L 537.586267 68.484832 
L 538.163803 68.484832 
L 538.163803 70.867214 
L 538.741338 70.867214 
L 538.741338 70.274935 
L 539.318874 70.274935 
L 539.318874 70.678119 
L 539.89641 70.678119 
L 539.89641 70.192254 
L 540.473945 70.192254 
L 540.473945 71.764738 
L 541.051481 71.764738 
L 541.051481 69.693916 
L 541.629016 69.693916 
L 541.629016 69.948362 
L 542.206552 69.948362 
L 542.206552 70.584572 
L 542.784087 70.584572 
L 542.784087 70.288858 
L 543.939159 70.356086 
L 543.939159 71.545559 
L 544.516694 71.545559 
L 544.516694 74.890773 
L 545.09423 74.890773 
L 545.09423 74.577861 
L 545.671765 74.577861 
L 545.671765 75.004046 
L 546.249301 75.004046 
L 546.249301 73.950094 
L 546.826836 73.950094 
L 546.826836 74.67232 
L 547.404372 74.67232 
L 547.404372 75.179121 
L 547.981907 75.179121 
L 547.981907 74.820938 
L 548.559443 74.820938 
L 548.559443 73.766993 
L 549.136979 73.766993 
L 549.136979 72.069504 
L 549.714514 72.069504 
L 549.714514 72.352109 
L 550.869585 72.261529 
L 550.869585 72.928951 
L 551.447121 72.928951 
L 551.447121 73.846811 
L 552.024656 73.846811 
L 552.024656 74.9346 
L 552.602192 74.9346 
L 552.602192 77.241888 
L 553.179728 77.241888 
L 553.179728 77.582093 
L 553.757263 77.582093 
L 553.757263 76.509502 
L 554.334799 76.509502 
L 554.334799 77.500563 
L 554.912334 77.500563 
L 554.912334 76.603349 
L 555.48987 76.603349 
L 555.48987 77.510841 
L 556.067405 77.510841 
L 556.067405 78.392555 
L 556.644941 78.392555 
L 556.644941 77.508027 
L 557.222476 77.508027 
L 557.222476 77.34015 
L 557.800012 77.34015 
L 557.800012 77.201466 
L 558.377548 77.201466 
L 558.377548 77.548431 
L 558.955083 77.548431 
L 558.955083 77.063409 
L 559.532619 77.063409 
L 559.532619 75.83155 
L 560.110154 75.83155 
L 560.110154 75.10867 
L 560.68769 75.10867 
L 560.68769 73.23441 
L 561.265225 73.23441 
L 561.265225 73.639212 
L 561.842761 73.639212 
L 561.842761 74.56718 
L 562.420296 74.56718 
L 562.420296 72.398179 
L 563.575368 72.323318 
L 563.575368 71.396613 
L 564.152903 71.396613 
L 564.152903 71.194123 
L 564.730439 71.194123 
L 564.730439 70.176312 
L 565.307974 70.176312 
L 565.307974 70.542565 
L 565.88551 70.542565 
L 565.88551 71.574019 
L 566.463045 71.574019 
L 566.463045 73.494474 
L 567.040581 73.494474 
L 567.040581 74.075843 
L 567.618117 74.075843 
L 567.618117 72.861976 
L 568.195652 72.861976 
L 568.195652 75.541553 
L 568.773188 75.541553 
L 568.773188 82.481896 
L 569.350723 82.481896 
L 569.350723 83.400408 
L 569.928259 83.400408 
L 569.928259 80.508406 
L 570.505794 80.508406 
L 570.505794 78.926804 
L 571.08333 78.926804 
L 571.08333 81.518543 
L 571.660865 81.518543 
L 571.660865 78.598658 
L 572.238401 78.598658 
L 572.238401 77.086225 
L 572.815937 77.086225 
L 572.815937 78.410905 
L 573.971008 78.414665 
L 573.971008 77.316215 
L 574.548543 77.316215 
L 574.548543 77.673559 
L 575.126079 77.673559 
L 575.126079 76.13785 
L 575.703614 76.13785 
L 575.703614 73.855049 
L 576.28115 73.855049 
L 576.28115 73.266863 
L 576.858686 73.266863 
L 576.858686 71.261284 
L 577.436221 71.261284 
L 577.436221 73.428447 
L 578.013757 73.428447 
L 578.013757 72.17093 
L 578.591292 72.17093 
L 578.591292 71.906009 
L 579.168828 71.906009 
L 579.168828 73.619772 
L 579.746363 73.619772 
L 579.746363 71.783106 
L 580.323899 71.783106 
L 580.323899 70.496229 
L 580.901434 70.496229 
L 580.901434 71.669276 
L 581.47897 71.669276 
L 581.47897 71.356639 
L 582.056506 71.356639 
L 582.056506 71.984439 
L 583.211577 72.023993 
L 583.211577 72.387456 
L 584.366648 72.482444 
L 584.366648 72.603098 
L 584.944183 72.603098 
L 584.944183 72.850869 
L 585.521719 72.850869 
L 585.521719 72.449137 
L 586.67679 72.493046 
L 586.67679 72.585313 
L 587.831861 72.539289 
L 587.831861 71.691432 
L 588.409397 71.691432 
L 588.409397 68.915161 
L 588.986932 68.915161 
L 588.986932 68.375669 
L 589.564468 68.375669 
L 589.564468 68.641612 
L 590.142003 68.641612 
L 590.142003 67.641184 
L 590.719539 67.641184 
L 590.719539 67.974976 
L 591.297075 67.974976 
L 591.297075 67.393529 
L 592.452146 67.474705 
L 592.452146 67.647431 
L 593.029681 67.647431 
L 593.029681 68.041473 
L 593.607217 68.041473 
L 593.607217 67.378001 
L 594.184752 67.378001 
L 594.184752 70.58398 
L 594.762288 70.58398 
L 594.762288 70.44996 
L 595.339823 70.44996 
L 595.339823 70.249385 
L 595.917359 70.249385 
L 595.917359 69.094641 
L 596.494895 69.094641 
L 596.494895 70.057038 
L 597.07243 70.057038 
L 597.07243 69.559446 
L 597.649966 69.559446 
L 597.649966 69.284203 
L 598.227501 69.284203 
L 598.227501 69.825442 
L 598.805037 69.825442 
L 598.805037 69.600771 
L 599.382572 69.600771 
L 599.382572 68.317964 
L 599.960108 68.317964 
L 599.960108 68.095408 
L 600.537644 68.095408 
L 600.537644 67.657258 
L 601.115179 67.657258 
L 601.115179 65.731997 
L 601.692715 65.731997 
L 601.692715 64.666977 
L 602.27025 64.666977 
L 602.27025 64.435267 
L 602.847786 64.435267 
L 602.847786 63.940689 
L 603.425321 63.940689 
L 603.425321 62.135626 
L 604.002857 62.135626 
L 604.002857 61.120974 
L 604.580392 61.120974 
L 604.580392 60.599822 
L 605.157928 60.599822 
L 605.157928 58.377865 
L 605.735464 58.377865 
L 605.735464 57.864613 
L 606.312999 57.864613 
L 606.312999 59.428523 
L 606.890535 59.428523 
L 606.890535 57.807812 
L 607.46807 57.807812 
L 607.46807 57.651451 
L 608.045606 57.651451 
L 608.045606 58.854746 
L 608.623141 58.854746 
L 608.623141 57.75619 
L 609.200677 57.75619 
L 609.200677 54.088183 
L 609.778213 54.088183 
L 609.778213 53.513237 
L 610.355748 53.513237 
L 610.355748 51.424957 
L 610.933284 51.424957 
L 610.933284 49.67567 
L 611.510819 49.67567 
L 611.510819 46.987963 
L 612.088355 46.987963 
L 612.088355 43.394493 
L 612.66589 43.394493 
L 612.66589 45.500499 
L 613.243426 45.500499 
L 613.243426 44.789986 
L 613.820961 44.789986 
L 613.820961 45.234515 
L 614.398497 45.234515 
L 614.398497 47.542422 
L 614.976033 47.542422 
L 614.976033 48.619465 
L 615.553568 48.619465 
L 615.553568 46.905785 
L 616.131104 46.905785 
L 616.131104 44.695814 
L 616.708639 44.695814 
L 616.708639 40.178232 
L 617.286175 40.178232 
L 617.286175 39.705602 
L 617.86371 39.705602 
L 617.86371 39.005501 
L 618.441246 39.005501 
L 618.441246 36.395945 
L 619.018782 36.395945 
L 619.018782 38.417457 
L 619.596317 38.417457 
L 619.596317 40.725796 
L 620.173853 40.725796 
L 620.173853 39.297369 
L 620.751388 39.297369 
L 620.751388 37.765699 
L 621.328924 37.765699 
L 621.328924 35.953074 
L 621.906459 35.953074 
L 621.906459 36.086768 
L 622.483995 36.086768 
L 622.483995 35.663934 
L 623.06153 35.663934 
L 623.06153 37.685858 
L 623.639066 37.685858 
L 623.639066 36.473881 
L 624.216602 36.473881 
L 624.216602 35.440669 
L 625.371673 35.332804 
L 625.371673 35.658149 
L 625.949208 35.658149 
L 625.949208 33.861839 
L 626.526744 33.861839 
L 626.526744 34.985486 
L 627.104279 34.985486 
L 627.104279 37.195813 
L 627.681815 37.195813 
L 627.681815 39.039965 
L 628.25935 39.039965 
L 628.25935 37.279608 
L 628.836886 37.279608 
L 628.836886 35.967055 
L 629.991957 35.908699 
L 629.991957 36.129913 
L 630.569493 36.129913 
L 630.569493 40.018055 
L 631.147028 40.018055 
L 631.147028 44.716296 
L 631.724564 44.716296 
L 631.724564 45.950896 
L 632.302099 45.950896 
L 632.302099 43.92948 
L 632.879635 43.92948 
L 632.879635 44.529546 
L 633.457171 44.529546 
L 633.457171 44.759016 
L 634.034706 44.759016 
L 634.034706 46.717049 
L 634.612242 46.717049 
L 634.612242 45.528715 
L 635.189777 45.528715 
L 635.189777 43.992313 
L 635.767313 43.992313 
L 635.767313 45.473802 
L 636.344848 45.473802 
L 636.344848 46.017372 
L 637.499919 46.123296 
L 637.499919 46.475019 
L 638.077455 46.475019 
L 638.077455 46.266602 
L 638.654991 46.266602 
L 638.654991 46.67794 
L 639.232526 46.67794 
L 639.232526 47.101272 
L 639.810062 47.101272 
L 639.810062 47.740726 
L 640.387597 47.740726 
L 640.387597 47.419166 
L 640.965133 47.419166 
L 640.965133 44.525467 
L 641.542668 44.525467 
L 641.542668 42.05641 
L 642.120204 42.05641 
L 642.120204 44.090211 
L 642.69774 44.090211 
L 642.69774 40.939943 
L 643.275275 40.939943 
L 643.275275 40.506118 
L 643.852811 40.506118 
L 643.852811 39.881461 
L 644.430346 39.881461 
L 644.430346 40.018882 
L 645.007882 40.018882 
L 645.007882 38.85799 
L 645.585417 38.85799 
L 645.585417 39.047607 
L 646.162953 39.047607 
L 646.162953 39.839172 
L 646.740488 39.839172 
L 646.740488 38.68729 
L 647.318024 38.68729 
L 647.318024 40.302128 
L 648.473095 40.310502 
L 648.473095 39.573617 
L 649.050631 39.573617 
L 649.050631 41.732892 
L 650.205702 41.773082 
L 650.205702 42.635465 
L 650.783237 42.635465 
L 650.783237 39.598009 
L 651.360773 39.598009 
L 651.360773 36.632468 
L 651.938309 36.632468 
L 651.938309 36.894017 
L 652.515844 36.894017 
L 652.515844 35.902602 
L 653.09338 35.902602 
L 653.09338 34.366979 
L 653.670915 34.366979 
L 653.670915 34.783191 
L 654.248451 34.783191 
L 654.248451 34.899645 
L 654.825986 34.899645 
L 654.825986 34.444793 
L 655.403522 34.444793 
L 655.403522 34.051689 
L 656.558593 33.94433 
L 656.558593 33.461115 
L 657.136129 33.461115 
L 657.136129 33.852447 
L 657.713664 33.852447 
L 657.713664 35.647658 
L 658.2912 35.647658 
L 658.2912 35.839723 
L 658.868735 35.839723 
L 658.868735 36.829806 
L 659.446271 36.829806 
L 659.446271 35.961304 
L 660.023806 35.961304 
L 660.023806 38.915935 
L 660.601342 38.915935 
L 660.601342 39.626322 
L 661.178877 39.626322 
L 661.178877 40.009268 
L 661.756413 40.009268 
L 661.756413 40.260821 
L 662.333949 40.260821 
L 662.333949 39.097597 
L 662.911484 39.097597 
L 662.911484 38.478457 
L 663.48902 38.478457 
L 663.48902 40.158988 
L 664.066555 40.158988 
L 664.066555 39.766251 
L 664.644091 39.766251 
L 664.644091 41.630879 
L 665.221626 41.630879 
L 665.221626 42.230411 
L 665.799162 42.230411 
L 665.799162 41.640756 
L 666.376698 41.640756 
L 666.376698 41.977176 
L 666.954233 41.977176 
L 666.954233 45.769103 
L 667.531769 45.769103 
L 667.531769 44.792716 
L 668.109304 44.792716 
L 668.109304 44.205754 
L 668.68684 44.205754 
L 668.68684 44.64699 
L 669.264375 44.64699 
L 669.264375 41.302234 
L 669.841911 41.302234 
L 669.841911 41.967826 
L 670.419446 41.967826 
L 670.419446 40.983936 
L 670.996982 40.983936 
L 670.996982 43.077952 
L 671.574518 43.077952 
L 671.574518 44.53978 
L 672.152053 44.53978 
L 672.152053 44.319141 
L 672.729589 44.319141 
L 672.729589 41.938028 
L 673.307124 41.938028 
L 673.307124 44.145692 
L 673.88466 44.145692 
L 673.88466 43.775993 
L 674.462195 43.775993 
L 674.462195 43.478474 
L 675.039731 43.478474 
L 675.039731 42.052534 
L 675.617267 42.052534 
L 675.617267 41.731258 
L 676.194802 41.731258 
L 676.194802 39.965862 
L 676.772338 39.965862 
L 676.772338 40.537864 
L 677.349873 40.537864 
L 677.349873 40.071832 
L 677.927409 40.071832 
L 677.927409 42.025693 
L 678.504944 42.025693 
L 678.504944 43.084369 
L 679.08248 43.084369 
L 679.08248 42.941748 
L 679.660015 42.941748 
L 679.660015 42.458177 
L 680.237551 42.458177 
L 680.237551 43.404879 
L 680.815087 43.404879 
L 680.815087 43.250954 
L 681.392622 43.250954 
L 681.392622 43.895458 
L 681.970158 43.895458 
L 681.970158 45.238463 
L 682.547693 45.238463 
L 682.547693 48.238099 
L 683.125229 48.238099 
L 683.125229 48.847626 
L 683.702764 48.847626 
L 683.702764 49.797937 
L 684.2803 49.797937 
L 684.2803 48.712009 
L 684.857836 48.712009 
L 684.857836 49.442895 
L 685.435371 49.442895 
L 685.435371 47.783566 
L 686.012907 47.783566 
L 686.012907 49.110975 
L 686.590442 49.110975 
L 686.590442 48.164653 
L 687.167978 48.164653 
L 687.167978 50.034292 
L 687.745513 50.034292 
L 687.745513 54.614113 
L 688.323049 54.614113 
L 688.323049 56.484341 
L 688.900584 56.484341 
L 688.900584 55.957072 
L 689.47812 55.957072 
L 689.47812 56.327142 
L 690.055656 56.327142 
L 690.055656 57.808094 
L 690.633191 57.808094 
L 690.633191 56.836968 
L 691.210727 56.836968 
L 691.210727 55.493026 
L 691.788262 55.493026 
L 691.788262 56.795548 
L 692.365798 56.795548 
L 692.365798 56.257605 
L 692.943333 56.257605 
L 692.943333 54.085329 
L 693.520869 54.085329 
L 693.520869 55.756335 
L 694.098404 55.756335 
L 694.098404 53.54099 
L 694.67594 53.54099 
L 694.67594 54.234946 
L 695.831011 54.265105 
L 695.831011 53.400127 
L 696.408547 53.400127 
L 696.408547 53.105575 
L 696.986082 53.105575 
L 696.986082 54.050844 
L 697.563618 54.050844 
L 697.563618 55.660458 
L 698.141153 55.660458 
L 698.141153 56.786013 
L 698.718689 56.786013 
L 698.718689 57.226672 
L 699.87376 57.184298 
L 699.87376 57.752564 
L 700.451296 57.752564 
L 700.451296 55.297323 
L 701.028831 55.297323 
L 701.028831 57.326421 
L 701.606367 57.326421 
L 701.606367 57.482101 
L 702.183902 57.482101 
L 702.183902 57.752045 
L 702.761438 57.752045 
L 702.761438 57.935388 
L 703.338973 57.935388 
L 703.338973 57.716642 
L 703.916509 57.716642 
L 703.916509 56.850985 
L 704.494045 56.850985 
L 704.494045 57.585183 
L 706.226651 57.475163 
L 706.226651 57.865846 
L 706.804187 57.865846 
L 706.804187 56.917156 
L 707.381722 56.917156 
L 707.381722 56.21722 
L 707.959258 56.21722 
L 707.959258 56.864695 
L 708.536794 56.864695 
L 708.536794 56.117241 
L 709.114329 56.117241 
L 709.114329 59.63537 
L 709.691865 59.63537 
L 709.691865 60.764787 
L 710.2694 60.764787 
L 710.2694 60.650097 
L 710.846936 60.650097 
L 710.846936 61.245276 
L 711.424471 61.245276 
L 711.424471 60.927835 
L 712.002007 60.927835 
L 712.002007 60.073343 
L 714.312149 60.031104 
L 714.312149 60.70494 
L 714.889685 60.70494 
L 714.889685 60.386024 
L 716.044756 60.465016 
L 716.044756 60.823651 
L 717.199827 60.73372 
L 717.199827 60.478926 
L 717.777363 60.478926 
L 717.777363 60.048338 
L 718.354898 60.048338 
L 718.354898 57.085162 
L 718.932434 57.085162 
L 718.932434 55.903123 
L 719.509969 55.903123 
L 719.509969 54.418161 
L 720.087505 54.418161 
L 720.087505 54.14107 
L 720.66504 54.14107 
L 720.66504 53.571445 
L 721.242576 53.571445 
L 721.242576 53.827217 
L 721.820111 53.827217 
L 721.820111 54.425867 
L 722.397647 54.425867 
L 722.397647 55.441172 
L 722.975183 55.441172 
L 722.975183 54.917476 
L 723.552718 54.917476 
L 723.552718 52.837973 
L 724.130254 52.837973 
L 724.130254 53.2123 
L 724.707789 53.2123 
L 724.707789 53.734608 
L 725.86286 53.816161 
L 725.86286 54.738995 
L 726.440396 54.738995 
L 726.440396 56.794399 
L 727.017931 56.794399 
L 727.017931 52.73621 
L 727.595467 52.73621 
L 727.595467 51.025874 
L 728.173003 51.025874 
L 728.173003 50.78166 
L 728.750538 50.78166 
L 728.750538 50.279327 
L 729.905609 50.255579 
L 729.905609 50.421182 
L 731.06068 50.332539 
L 731.06068 48.741108 
L 732.215752 48.685316 
L 732.215752 49.694433 
L 732.793287 49.694433 
L 732.793287 50.574259 
L 733.370823 50.574259 
L 733.370823 49.247346 
L 733.948358 49.247346 
L 733.948358 50.217327 
L 734.525894 50.217327 
L 734.525894 49.209993 
L 735.103429 49.209993 
L 735.103429 50.538329 
L 735.680965 50.538329 
L 735.680965 51.167033 
L 736.2585 51.167033 
L 736.2585 50.714329 
L 736.836036 50.714329 
L 736.836036 51.189006 
L 737.413572 51.189006 
L 737.413572 51.39916 
L 737.991107 51.39916 
L 737.991107 50.462698 
L 738.568643 50.462698 
L 738.568643 50.821593 
L 739.723714 50.827687 
L 739.723714 51.877199 
L 740.301249 51.877199 
L 740.301249 52.447519 
L 740.878785 52.447519 
L 740.878785 51.505504 
L 741.456321 51.505504 
L 741.456321 48.961751 
L 742.033856 48.961751 
L 742.033856 48.720107 
L 742.611392 48.720107 
L 742.611392 48.585039 
L 743.188927 48.585039 
L 743.188927 48.386622 
L 743.766463 48.386622 
L 743.766463 48.754646 
L 744.343998 48.754646 
L 744.343998 48.637599 
L 745.499069 48.737598 
L 745.499069 49.029808 
L 746.076605 49.029808 
L 746.076605 49.453532 
L 747.231676 49.359234 
L 747.231676 49.109726 
L 747.809212 49.109726 
L 747.809212 49.543249 
L 748.386747 49.543249 
L 748.386747 49.189362 
L 748.964283 49.189362 
L 748.964283 49.3813 
L 749.541818 49.3813 
L 749.541818 51.259884 
L 750.119354 51.259884 
L 750.119354 51.668657 
L 751.274425 51.725466 
L 751.274425 50.472396 
L 751.851961 50.472396 
L 751.851961 51.864599 
L 753.584567 51.8927 
L 753.584567 51.354783 
L 754.162103 51.354783 
L 754.162103 51.183624 
L 754.739638 51.183624 
L 754.739638 51.320214 
L 755.317174 51.320214 
L 755.317174 51.600224 
L 755.89471 51.600224 
L 755.89471 51.029557 
L 756.472245 51.029557 
L 756.472245 50.424546 
L 757.627316 50.324199 
L 757.627316 51.187441 
L 758.204852 51.187441 
L 758.204852 49.912545 
L 758.782387 49.912545 
L 758.782387 49.110408 
L 759.359923 49.110408 
L 759.359923 46.447949 
L 760.514994 46.337173 
L 760.514994 45.559429 
L 761.09253 45.559429 
L 761.09253 45.782288 
L 761.670065 45.782288 
L 761.670065 44.862049 
L 763.402672 44.901357 
L 763.402672 45.352285 
L 763.980207 45.352285 
L 763.980207 44.268009 
L 765.135279 44.232842 
L 765.135279 43.147477 
L 765.712814 43.147477 
L 765.712814 41.548339 
L 766.29035 41.548339 
L 766.29035 42.524837 
L 766.867885 42.524837 
L 766.867885 42.189432 
L 767.445421 42.189432 
L 767.445421 42.033426 
L 768.022956 42.033426 
L 768.022956 41.344173 
L 768.600492 41.344173 
L 768.600492 41.468907 
L 769.178027 41.468907 
L 769.178027 42.039555 
L 769.755563 42.039555 
L 769.755563 41.140191 
L 770.333099 41.140191 
L 770.333099 39.917241 
L 770.910634 39.917241 
L 770.910634 41.759791 
L 771.48817 41.759791 
L 771.48817 41.625413 
L 772.065705 41.625413 
L 772.065705 42.321358 
L 772.643241 42.321358 
L 772.643241 43.101212 
L 773.220776 43.101212 
L 773.220776 42.143586 
L 773.798312 42.143586 
L 773.798312 41.65852 
L 774.375848 41.65852 
L 774.375848 41.849134 
L 774.953383 41.849134 
L 774.953383 39.848234 
L 775.530919 39.848234 
L 775.530919 38.770928 
L 776.108454 38.770928 
L 776.108454 38.002222 
L 777.841061 37.985794 
L 777.841061 34.626921 
L 778.418596 34.626921 
L 778.418596 32.39675 
L 779.573668 32.41749 
L 779.573668 31.505466 
L 780.151203 31.505466 
L 780.151203 33.318032 
L 780.728739 33.318032 
L 780.728739 32.549792 
L 781.306274 32.549792 
L 781.306274 32.736864 
L 781.88381 32.736864 
L 781.88381 31.712319 
L 782.461345 31.712319 
L 782.461345 32.012747 
L 783.038881 32.012747 
L 783.038881 32.549721 
L 783.616417 32.549721 
L 783.616417 32.174183 
L 784.193952 32.174183 
L 784.193952 33.715737 
L 784.771488 33.715737 
L 784.771488 34.591585 
L 785.349023 34.591585 
L 785.349023 33.426862 
L 785.926559 33.426862 
L 785.926559 33.570305 
L 786.504094 33.570305 
L 786.504094 33.774332 
L 787.08163 33.774332 
L 787.08163 34.073841 
L 787.659165 34.073841 
L 787.659165 34.253605 
L 788.236701 34.253605 
L 788.236701 34.747348 
L 788.814237 34.747348 
L 788.814237 33.033161 
L 789.969308 33.025017 
L 789.969308 32.524704 
L 790.546843 32.524704 
L 790.546843 32.106969 
L 791.124379 32.106969 
L 791.124379 32.659967 
L 791.701914 32.659967 
L 791.701914 31.769425 
L 792.27945 31.769425 
L 792.27945 32.128992 
L 792.856986 32.128992 
L 792.856986 32.437178 
L 793.434521 32.437178 
L 793.434521 32.913262 
L 794.012057 32.913262 
L 794.012057 33.463747 
L 794.589592 33.463747 
L 794.589592 34.92144 
L 795.744663 34.909438 
L 795.744663 34.348633 
L 796.322199 34.348633 
L 796.322199 35.602153 
L 796.899734 35.602153 
L 796.899734 35.782448 
L 797.47727 35.782448 
L 797.47727 34.749858 
L 798.054806 34.749858 
L 798.054806 33.73174 
L 798.632341 33.73174 
L 798.632341 32.626657 
L 799.787412 32.532774 
L 799.787412 33.051048 
L 800.364948 33.051048 
L 800.364948 34.789917 
L 800.942483 34.789917 
L 800.942483 36.745077 
L 801.520019 36.745077 
L 801.520019 35.447462 
L 802.097554 35.447462 
L 802.097554 35.858777 
L 802.67509 35.858777 
L 802.67509 35.190253 
L 803.252626 35.190253 
L 803.252626 33.696253 
L 803.830161 33.696253 
L 803.830161 35.193314 
L 804.407697 35.193314 
L 804.407697 35.361718 
L 804.985232 35.361718 
L 804.985232 35.705012 
L 805.562768 35.705012 
L 805.562768 36.809342 
L 806.140303 36.809342 
L 806.140303 35.64646 
L 807.295375 35.626323 
L 807.295375 33.969671 
L 807.87291 33.969671 
L 807.87291 33.634778 
L 808.450446 33.634778 
L 808.450446 33.139462 
L 809.027981 33.139462 
L 809.027981 34.802204 
L 809.605517 34.802204 
L 809.605517 34.096256 
L 810.183052 34.096256 
L 810.183052 34.924862 
L 810.760588 34.924862 
L 810.760588 33.090867 
L 811.338123 33.090867 
L 811.338123 32.38254 
L 811.915659 32.38254 
L 811.915659 32.694641 
L 813.07073 32.798795 
L 813.07073 31.27132 
L 813.648266 31.27132 
L 813.648266 32.289673 
L 814.225801 32.289673 
L 814.225801 30.299405 
L 814.803337 30.299405 
L 814.803337 27.180553 
L 815.380872 27.180553 
L 815.380872 26.658369 
L 815.958408 26.658369 
L 815.958408 26.373116 
L 816.535944 26.373116 
L 816.535944 25.233636 
L 817.113479 25.233636 
L 817.113479 25.609949 
L 817.691015 25.609949 
L 817.691015 25.337003 
L 819.423621 25.297523 
L 819.423621 24.491571 
L 820.001157 24.491571 
L 820.001157 23.586855 
L 820.578692 23.586855 
L 820.578692 25.346699 
L 821.156228 25.346699 
L 821.156228 24.924032 
L 821.733764 24.924032 
L 821.733764 26.121666 
L 822.311299 26.121666 
L 822.311299 25.423666 
L 822.888835 25.423666 
L 822.888835 24.337063 
L 823.46637 24.337063 
L 823.46637 25.873486 
L 824.043906 25.873486 
L 824.043906 25.491296 
L 824.621441 25.491296 
L 824.621441 23.919231 
L 825.198977 23.919231 
L 825.198977 24.067841 
L 825.776513 24.067841 
L 825.776513 24.270709 
L 826.354048 24.270709 
L 826.354048 23.855056 
L 826.931584 23.855056 
L 826.931584 24.50199 
L 827.509119 24.50199 
L 827.509119 25.488483 
L 828.086655 25.488483 
L 828.086655 25.652782 
L 828.66419 25.652782 
L 828.66419 25.271223 
L 829.241726 25.271223 
L 829.241726 25.467314 
L 830.396797 25.543726 
L 830.396797 28.122026 
L 830.974333 28.122026 
L 830.974333 27.78511 
L 831.551868 27.78511 
L 831.551868 27.631272 
L 832.129404 27.631272 
L 832.129404 28.549278 
L 832.706939 28.549278 
L 832.706939 28.194622 
L 833.284475 28.194622 
L 833.284475 27.603109 
L 833.86201 27.603109 
L 833.86201 27.79086 
L 834.439546 27.79086 
L 834.439546 27.52942 
L 835.017081 27.52942 
L 835.017081 28.628761 
L 835.594617 28.628761 
L 835.594617 28.31314 
L 836.172153 28.31314 
L 836.172153 30.209848 
L 836.749688 30.209848 
L 836.749688 27.971769 
L 837.327224 27.971769 
L 837.327224 28.267427 
L 837.904759 28.267427 
L 837.904759 27.997767 
L 838.482295 27.997767 
L 838.482295 26.028875 
L 839.05983 26.028875 
L 839.05983 25.81108 
L 839.637366 25.81108 
L 839.637366 25.408497 
L 840.792437 25.430955 
L 840.792437 23.850792 
L 841.369973 23.850792 
L 841.369973 24.084244 
L 841.947508 24.084244 
L 841.947508 23.536214 
L 842.525044 23.536214 
L 842.525044 22.563278 
L 843.102579 22.563278 
L 843.102579 22.969087 
L 843.680115 22.969087 
L 843.680115 23.992494 
L 844.25765 23.992494 
L 844.25765 23.723455 
L 845.412722 23.685773 
L 845.412722 23.114651 
L 845.990257 23.114651 
L 845.990257 23.699869 
L 846.567793 23.699869 
L 846.567793 23.867227 
L 847.145328 23.867227 
L 847.145328 23.733748 
L 847.722864 23.733748 
L 847.722864 23.407606 
L 848.300399 23.407606 
L 848.300399 23.67197 
L 848.877935 23.67197 
L 848.877935 23.196894 
L 849.455471 23.196894 
L 849.455471 22.63816 
L 850.033006 22.63816 
L 850.033006 21.283255 
L 851.188077 21.252761 
L 851.188077 21.562443 
L 852.920684 21.480964 
L 852.920684 22.420458 
L 853.498219 22.420458 
L 853.498219 21.979852 
L 854.075755 21.979852 
L 854.075755 21.249643 
L 854.653291 21.249643 
L 854.653291 21.402591 
L 855.230826 21.402591 
L 855.230826 21.76739 
L 856.385897 21.66157 
L 856.385897 22.548708 
L 856.963433 22.548708 
L 856.963433 23.095814 
L 857.540968 23.095814 
L 857.540968 22.560524 
L 858.69604 22.661532 
L 858.69604 21.894154 
L 860.428646 21.864056 
L 860.428646 22.511697 
L 861.006182 22.511697 
L 861.006182 22.931157 
L 861.583717 22.931157 
L 861.583717 21.363749 
L 862.161253 21.363749 
L 862.161253 20.552727 
L 862.738788 20.552727 
L 862.738788 20.852518 
L 863.316324 20.852518 
L 863.316324 21.946446 
L 863.89386 21.946446 
L 863.89386 23.528444 
L 864.471395 23.528444 
L 864.471395 23.159011 
L 865.048931 23.159011 
L 865.048931 22.578441 
L 865.626466 22.578441 
L 865.626466 22.861951 
L 866.781537 22.765112 
L 866.781537 24.528115 
L 867.359073 24.528115 
L 867.359073 23.623438 
L 867.936608 23.623438 
L 867.936608 25.937762 
L 868.514144 25.937762 
L 868.514144 26.241358 
L 869.09168 26.241358 
L 869.09168 28.114511 
L 869.669215 28.114511 
L 869.669215 26.77875 
L 870.824286 26.81 
L 870.824286 26.4225 
L 871.401822 26.4225 
L 871.401822 26.750885 
L 872.556893 26.833691 
L 872.556893 27.381199 
L 873.134429 27.381199 
L 873.134429 27.267051 
L 873.711964 27.267051 
L 873.711964 27.433167 
L 874.867035 27.38126 
L 874.867035 27.177108 
L 875.444571 27.177108 
L 875.444571 26.047721 
L 876.022106 26.047721 
L 876.022106 26.78359 
L 876.599642 26.78359 
L 876.599642 25.740447 
L 877.754713 25.790073 
L 877.754713 27.033228 
L 878.332249 27.033228 
L 878.332249 27.671621 
L 878.909784 27.671621 
L 878.909784 28.141547 
L 879.48732 28.141547 
L 879.48732 29.585924 
L 880.064855 29.585924 
L 880.064855 31.778773 
L 880.642391 31.778773 
L 880.642391 32.275099 
L 881.219926 32.275099 
L 881.219926 31.997414 
L 881.797462 31.997414 
L 881.797462 32.976194 
L 882.374998 32.976194 
L 882.374998 32.621431 
L 883.530069 32.664182 
L 883.530069 32.280477 
L 884.107604 32.280477 
L 884.107604 32.469842 
L 884.68514 32.469842 
L 884.68514 31.94932 
L 885.262675 31.94932 
L 885.262675 31.581416 
L 887.194182 31.649121 
L 887.194182 31.649121 
" clip-path="url(#p58b4abb2ea)" style="fill: none; stroke: #3572c6; stroke-width: 1.2; stroke-linecap: square"/>
   </g>
   <g id="line2d_79">
    <path d="M 75.557818 20.552727 
L 887.194182 20.552727 
L 887.194182 20.552727 
" clip-path="url(#p58b4abb2ea)" style="fill: none; stroke: #83a83b; stroke-width: 1.2; stroke-linecap: square"/>
   </g>
   <g id="line2d_80">
    <path d="M 75.557818 32.976194 
L 887.194182 32.976194 
L 887.194182 32.976194 
" clip-path="url(#p58b4abb2ea)" style="fill: none; stroke: #c44e52; stroke-width: 1.2; stroke-linecap: square"/>
   </g>
   <g id="line2d_81">
    <path d="M 862.738788 300.96 
L 862.738788 7.2 
" clip-path="url(#p58b4abb2ea)" style="fill: none; stroke: #83a83b; stroke-width: 1.2; stroke-linecap: square"/>
   </g>
   <g id="line2d_82">
    <path d="M 882.374998 300.96 
L 882.374998 7.2 
" clip-path="url(#p58b4abb2ea)" style="fill: none; stroke: #c44e52; stroke-width: 1.2; stroke-linecap: square"/>
   </g>
   <g id="patch_3">
    <path d="M 34.976 300.96 
L 34.976 7.2 
" style="fill: none; stroke: #899ab8; stroke-width: 1.12; stroke-linejoin: miter; stroke-linecap: square"/>
   </g>
   <g id="patch_4">
    <path d="M 927.776 300.96 
L 927.776 7.2 
" style="fill: none; stroke: #899ab8; stroke-width: 1.12; stroke-linejoin: miter; stroke-linecap: square"/>
   </g>
   <g id="patch_5">
    <path d="M 34.976 300.96 
L 927.776 300.96 
" style="fill: none; stroke: #899ab8; stroke-width: 1.12; stroke-linejoin: miter; stroke-linecap: square"/>
   </g>
   <g id="patch_6">
    <path d="M 34.976 7.2 
L 927.776 7.2 
" style="fill: none; stroke: #899ab8; stroke-width: 1.12; stroke-linejoin: miter; stroke-linecap: square"/>
   </g>
   <g id="text_16">
    <!-- 123519.47 -->
    <g style="fill: #83a83b" transform="translate(180.958058 20.552727) scale(0.132 -0.132)">
     <defs>
      <path id="DejaVuSans-39" d="M 703 97 
L 703 672 
Q 941 559 1184 500 
Q 1428 441 1663 441 
Q 2288 441 2617 861 
Q 2947 1281 2994 2138 
Q 2813 1869 2534 1725 
Q 2256 1581 1919 1581 
Q 1219 1581 811 2004 
Q 403 2428 403 3163 
Q 403 3881 828 4315 
Q 1253 4750 1959 4750 
Q 2769 4750 3195 4129 
Q 3622 3509 3622 2328 
Q 3622 1225 3098 567 
Q 2575 -91 1691 -91 
Q 1453 -91 1209 -44 
Q 966 3 703 97 
z
M 1959 2075 
Q 2384 2075 2632 2365 
Q 2881 2656 2881 3163 
Q 2881 3666 2632 3958 
Q 2384 4250 1959 4250 
Q 1534 4250 1286 3958 
Q 1038 3666 1038 3163 
Q 1038 2656 1286 2365 
Q 1534 2075 1959 2075 
z
" transform="scale(0.015625)"/>
      <path id="DejaVuSans-2e" d="M 684 794 
L 1344 794 
L 1344 0 
L 684 0 
L 684 794 
z
" transform="scale(0.015625)"/>
      <path id="DejaVuSans-37" d="M 525 4666 
L 3525 4666 
L 3525 4397 
L 1831 0 
L 1172 0 
L 2766 4134 
L 525 4134 
L 525 4666 
z
" transform="scale(0.015625)"/>
     </defs>
     <use xlink:href="#DejaVuSans-31"/>
     <use xlink:href="#DejaVuSans-32" transform="translate(63.623047 0)"/>
     <use xlink:href="#DejaVuSans-33" transform="translate(127.246094 0)"/>
     <use xlink:href="#DejaVuSans-35" transform="translate(190.869141 0)"/>
     <use xlink:href="#DejaVuSans-31" transform="translate(254.492188 0)"/>
     <use xlink:href="#DejaVuSans-39" transform="translate(318.115234 0)"/>
     <use xlink:href="#DejaVuSans-2e" transform="translate(381.738281 0)"/>
     <use xlink:href="#DejaVuSans-34" transform="translate(413.525391 0)"/>
     <use xlink:href="#DejaVuSans-37" transform="translate(477.148438 0)"/>
    </g>
   </g>
   <g id="text_17">
    <!-- 66427.8 -->
    <g style="fill: #c44e52" transform="translate(180.958058 32.976194) scale(0.132 -0.132)">
     <use xlink:href="#DejaVuSans-36"/>
     <use xlink:href="#DejaVuSans-36" transform="translate(63.623047 0)"/>
     <use xlink:href="#DejaVuSans-34" transform="translate(127.246094 0)"/>
     <use xlink:href="#DejaVuSans-32" transform="translate(190.869141 0)"/>
     <use xlink:href="#DejaVuSans-37" transform="translate(254.492188 0)"/>
     <use xlink:href="#DejaVuSans-2e" transform="translate(318.115234 0)"/>
     <use xlink:href="#DejaVuSans-38" transform="translate(349.902344 0)"/>
    </g>
   </g>
   <g id="legend_1">
    <g id="patch_7">
     <path d="M 43.796 183.886875 
L 142.133094 183.886875 
Q 144.653094 183.886875 144.653094 181.366875 
L 144.653094 126.793125 
Q 144.653094 124.273125 142.133094 124.273125 
L 43.796 124.273125 
Q 41.276 124.273125 41.276 126.793125 
L 41.276 181.366875 
Q 41.276 183.886875 43.796 183.886875 
z
" style="fill: #373e4b; opacity: 0.8; stroke: #cccccc; stroke-width: 0.16; stroke-linejoin: miter"/>
    </g>
    <g id="line2d_83">
     <path d="M 46.316 134.477156 
L 46.316 134.477156 
L 58.916 134.477156 
L 58.916 134.477156 
L 71.516 134.477156 
" style="fill: none; stroke: #3572c6; stroke-width: 1.2; stroke-linecap: square"/>
    </g>
    <g id="text_18">
     <!-- USD/BTC -->
     <g style="fill: #b1bed6" transform="translate(81.596 138.887156) scale(0.126 -0.126)">
      <defs>
       <path id="DejaVuSans-55" d="M 556 4666 
L 1191 4666 
L 1191 1831 
Q 1191 1081 1462 751 
Q 1734 422 2344 422 
Q 2950 422 3222 751 
Q 3494 1081 3494 1831 
L 3494 4666 
L 4128 4666 
L 4128 1753 
Q 4128 841 3676 375 
Q 3225 -91 2344 -91 
Q 1459 -91 1007 375 
Q 556 841 556 1753 
L 556 4666 
z
" transform="scale(0.015625)"/>
       <path id="DejaVuSans-53" d="M 3425 4513 
L 3425 3897 
Q 3066 4069 2747 4153 
Q 2428 4238 2131 4238 
Q 1616 4238 1336 4038 
Q 1056 3838 1056 3469 
Q 1056 3159 1242 3001 
Q 1428 2844 1947 2747 
L 2328 2669 
Q 3034 2534 3370 2195 
Q 3706 1856 3706 1288 
Q 3706 609 3251 259 
Q 2797 -91 1919 -91 
Q 1588 -91 1214 -16 
Q 841 59 441 206 
L 441 856 
Q 825 641 1194 531 
Q 1563 422 1919 422 
Q 2459 422 2753 634 
Q 3047 847 3047 1241 
Q 3047 1584 2836 1778 
Q 2625 1972 2144 2069 
L 1759 2144 
Q 1053 2284 737 2584 
Q 422 2884 422 3419 
Q 422 4038 858 4394 
Q 1294 4750 2059 4750 
Q 2388 4750 2728 4690 
Q 3069 4631 3425 4513 
z
" transform="scale(0.015625)"/>
       <path id="DejaVuSans-2f" d="M 1625 4666 
L 2156 4666 
L 531 -594 
L 0 -594 
L 1625 4666 
z
" transform="scale(0.015625)"/>
       <path id="DejaVuSans-42" d="M 1259 2228 
L 1259 519 
L 2272 519 
Q 2781 519 3026 730 
Q 3272 941 3272 1375 
Q 3272 1813 3026 2020 
Q 2781 2228 2272 2228 
L 1259 2228 
z
M 1259 4147 
L 1259 2741 
L 2194 2741 
Q 2656 2741 2882 2914 
Q 3109 3088 3109 3444 
Q 3109 3797 2882 3972 
Q 2656 4147 2194 4147 
L 1259 4147 
z
M 628 4666 
L 2241 4666 
Q 2963 4666 3353 4366 
Q 3744 4066 3744 3513 
Q 3744 3084 3544 2831 
Q 3344 2578 2956 2516 
Q 3422 2416 3680 2098 
Q 3938 1781 3938 1306 
Q 3938 681 3513 340 
Q 3088 0 2303 0 
L 628 0 
L 628 4666 
z
" transform="scale(0.015625)"/>
       <path id="DejaVuSans-54" d="M -19 4666 
L 3928 4666 
L 3928 4134 
L 2272 4134 
L 2272 0 
L 1638 0 
L 1638 4134 
L -19 4134 
L -19 4666 
z
" transform="scale(0.015625)"/>
       <path id="DejaVuSans-43" d="M 4122 4306 
L 4122 3641 
Q 3803 3938 3442 4084 
Q 3081 4231 2675 4231 
Q 1875 4231 1450 3742 
Q 1025 3253 1025 2328 
Q 1025 1406 1450 917 
Q 1875 428 2675 428 
Q 3081 428 3442 575 
Q 3803 722 4122 1019 
L 4122 359 
Q 3791 134 3420 21 
Q 3050 -91 2638 -91 
Q 1578 -91 968 557 
Q 359 1206 359 2328 
Q 359 3453 968 4101 
Q 1578 4750 2638 4750 
Q 3056 4750 3426 4639 
Q 3797 4528 4122 4306 
z
" transform="scale(0.015625)"/>
      </defs>
      <use xlink:href="#DejaVuSans-55"/>
      <use xlink:href="#DejaVuSans-53" transform="translate(73.193359 0)"/>
      <use xlink:href="#DejaVuSans-44" transform="translate(136.669922 0)"/>
      <use xlink:href="#DejaVuSans-2f" transform="translate(213.671875 0)"/>
      <use xlink:href="#DejaVuSans-42" transform="translate(247.363281 0)"/>
      <use xlink:href="#DejaVuSans-54" transform="translate(315.966797 0)"/>
      <use xlink:href="#DejaVuSans-43" transform="translate(371.175781 0)"/>
     </g>
    </g>
    <g id="line2d_84">
     <path d="M 46.316 152.971594 
L 46.316 152.971594 
L 58.916 152.971594 
L 58.916 152.971594 
L 71.516 152.971594 
" style="fill: none; stroke: #83a83b; stroke-width: 1.2; stroke-linecap: square"/>
    </g>
    <g id="text_19">
     <!-- Max -->
     <g style="fill: #b1bed6" transform="translate(81.596 157.381594) scale(0.126 -0.126)">
      <defs>
       <path id="DejaVuSans-4d" d="M 628 4666 
L 1569 4666 
L 2759 1491 
L 3956 4666 
L 4897 4666 
L 4897 0 
L 4281 0 
L 4281 4097 
L 3078 897 
L 2444 897 
L 1241 4097 
L 1241 0 
L 628 0 
L 628 4666 
z
" transform="scale(0.015625)"/>
       <path id="DejaVuSans-78" d="M 3513 3500 
L 2247 1797 
L 3578 0 
L 2900 0 
L 1881 1375 
L 863 0 
L 184 0 
L 1544 1831 
L 300 3500 
L 978 3500 
L 1906 2253 
L 2834 3500 
L 3513 3500 
z
" transform="scale(0.015625)"/>
      </defs>
      <use xlink:href="#DejaVuSans-4d"/>
      <use xlink:href="#DejaVuSans-61" transform="translate(86.279297 0)"/>
      <use xlink:href="#DejaVuSans-78" transform="translate(147.558594 0)"/>
     </g>
    </g>
    <g id="line2d_85">
     <path d="M 46.316 171.466031 
L 46.316 171.466031 
L 58.916 171.466031 
L 58.916 171.466031 
L 71.516 171.466031 
" style="fill: none; stroke: #c44e52; stroke-width: 1.2; stroke-linecap: square"/>
    </g>
    <g id="text_20">
     <!-- local_Min -->
     <g style="fill: #b1bed6" transform="translate(81.596 175.876031) scale(0.126 -0.126)">
      <defs>
       <path id="DejaVuSans-6c" d="M 603 4863 
L 1178 4863 
L 1178 0 
L 603 0 
L 603 4863 
z
" transform="scale(0.015625)"/>
       <path id="DejaVuSans-6f" d="M 1959 3097 
Q 1497 3097 1228 2736 
Q 959 2375 959 1747 
Q 959 1119 1226 758 
Q 1494 397 1959 397 
Q 2419 397 2687 759 
Q 2956 1122 2956 1747 
Q 2956 2369 2687 2733 
Q 2419 3097 1959 3097 
z
M 1959 3584 
Q 2709 3584 3137 3096 
Q 3566 2609 3566 1747 
Q 3566 888 3137 398 
Q 2709 -91 1959 -91 
Q 1206 -91 779 398 
Q 353 888 353 1747 
Q 353 2609 779 3096 
Q 1206 3584 1959 3584 
z
" transform="scale(0.015625)"/>
       <path id="DejaVuSans-63" d="M 3122 3366 
L 3122 2828 
Q 2878 2963 2633 3030 
Q 2388 3097 2138 3097 
Q 1578 3097 1268 2742 
Q 959 2388 959 1747 
Q 959 1106 1268 751 
Q 1578 397 2138 397 
Q 2388 397 2633 464 
Q 2878 531 3122 666 
L 3122 134 
Q 2881 22 2623 -34 
Q 2366 -91 2075 -91 
Q 1284 -91 818 406 
Q 353 903 353 1747 
Q 353 2603 823 3093 
Q 1294 3584 2113 3584 
Q 2378 3584 2631 3529 
Q 2884 3475 3122 3366 
z
" transform="scale(0.015625)"/>
       <path id="DejaVuSans-5f" d="M 3263 -1063 
L 3263 -1509 
L -63 -1509 
L -63 -1063 
L 3263 -1063 
z
" transform="scale(0.015625)"/>
       <path id="DejaVuSans-69" d="M 603 3500 
L 1178 3500 
L 1178 0 
L 603 0 
L 603 3500 
z
M 603 4863 
L 1178 4863 
L 1178 4134 
L 603 4134 
L 603 4863 
z
" transform="scale(0.015625)"/>
       <path id="DejaVuSans-6e" d="M 3513 2113 
L 3513 0 
L 2938 0 
L 2938 2094 
Q 2938 2591 2744 2837 
Q 2550 3084 2163 3084 
Q 1697 3084 1428 2787 
Q 1159 2491 1159 1978 
L 1159 0 
L 581 0 
L 581 3500 
L 1159 3500 
L 1159 2956 
Q 1366 3272 1645 3428 
Q 1925 3584 2291 3584 
Q 2894 3584 3203 3211 
Q 3513 2838 3513 2113 
z
" transform="scale(0.015625)"/>
      </defs>
      <use xlink:href="#DejaVuSans-6c"/>
      <use xlink:href="#DejaVuSans-6f" transform="translate(27.783203 0)"/>
      <use xlink:href="#DejaVuSans-63" transform="translate(88.964844 0)"/>
      <use xlink:href="#DejaVuSans-61" transform="translate(143.945312 0)"/>
      <use xlink:href="#DejaVuSans-6c" transform="translate(205.224609 0)"/>
      <use xlink:href="#DejaVuSans-5f" transform="translate(233.007812 0)"/>
      <use xlink:href="#DejaVuSans-4d" transform="translate(283.007812 0)"/>
      <use xlink:href="#DejaVuSans-69" transform="translate(369.287109 0)"/>
      <use xlink:href="#DejaVuSans-6e" transform="translate(397.070312 0)"/>
     </g>
    </g>
   </g>
  </g>
 </g>
 <defs>
  <clipPath id="p58b4abb2ea">
   <rect x="34.976" y="7.2" width="892.8" height="293.76"/>
  </clipPath>
 </defs>
</svg>
