<?xml version="1.0" encoding="utf-8" standalone="no"?>
<!DOCTYPE svg PUBLIC "-//W3C//DTD SVG 1.1//EN"
  "http://www.w3.org/Graphics/SVG/1.1/DTD/svg11.dtd">
<svg height="358.470384pt" version="1.1" viewBox="0 0 934.976 358.470384" width="934.976pt" xmlns="http://www.w3.org/2000/svg" xmlns:xlink="http://www.w3.org/1999/xlink">
 <metadata>
  <rdf:RDF xmlns:cc="http://creativecommons.org/ns#" xmlns:dc="http://purl.org/dc/elements/1.1/" xmlns:rdf="http://www.w3.org/1999/02/22-rdf-syntax-ns#">
   <cc:Work>
    <dc:type rdf:resource="http://purl.org/dc/dcmitype/StillImage"/>
    <dc:date>2021-11-04T11:39:55.492087</dc:date>
    <dc:format>image/svg+xml</dc:format>
    <dc:creator>
     <cc:Agent>
      <dc:title>Matplotlib v3.4.3, https://matplotlib.org/</dc:title>
     </cc:Agent>
    </dc:creator>
   </cc:Work>
  </rdf:RDF>
 </metadata>
 <defs>
  <style type="text/css">*{stroke-linecap:butt;stroke-linejoin:round;}</style>
 </defs>
 <g id="figure_1">
  <g id="patch_1">
   <path d="M 0 358.470384 
L 934.976 358.470384 
L 934.976 0 
L 0 0 
z
" style="fill:#373e4b;"/>
  </g>
  <g id="axes_1">
   <g id="patch_2">
    <path d="M 34.976 301.139691 
L 927.776 301.139691 
L 927.776 7.379691 
L 34.976 7.379691 
z
" style="fill:#373e4b;"/>
   </g>
   <g id="matplotlib.axis_1">
    <g id="xtick_1">
     <g id="line2d_1">
      <path clip-path="url(#pe3185b11ce)" d="M 161.174205 301.139691 
L 161.174205 7.379691 
" style="fill:none;stroke:#546379;stroke-linecap:square;stroke-width:1.12;"/>
     </g>
     <g id="line2d_2"/>
     <g id="text_1">
      <!-- 2012 -->
      <g style="fill:#b1bed6;" transform="translate(132.093165 331.064545)rotate(-30)scale(0.126 -0.126)">
       <defs>
        <path d="M 1228 531 
L 3431 531 
L 3431 0 
L 469 0 
L 469 531 
Q 828 903 1448 1529 
Q 2069 2156 2228 2338 
Q 2531 2678 2651 2914 
Q 2772 3150 2772 3378 
Q 2772 3750 2511 3984 
Q 2250 4219 1831 4219 
Q 1534 4219 1204 4116 
Q 875 4013 500 3803 
L 500 4441 
Q 881 4594 1212 4672 
Q 1544 4750 1819 4750 
Q 2544 4750 2975 4387 
Q 3406 4025 3406 3419 
Q 3406 3131 3298 2873 
Q 3191 2616 2906 2266 
Q 2828 2175 2409 1742 
Q 1991 1309 1228 531 
z
" id="DejaVuSans-32" transform="scale(0.015625)"/>
        <path d="M 2034 4250 
Q 1547 4250 1301 3770 
Q 1056 3291 1056 2328 
Q 1056 1369 1301 889 
Q 1547 409 2034 409 
Q 2525 409 2770 889 
Q 3016 1369 3016 2328 
Q 3016 3291 2770 3770 
Q 2525 4250 2034 4250 
z
M 2034 4750 
Q 2819 4750 3233 4129 
Q 3647 3509 3647 2328 
Q 3647 1150 3233 529 
Q 2819 -91 2034 -91 
Q 1250 -91 836 529 
Q 422 1150 422 2328 
Q 422 3509 836 4129 
Q 1250 4750 2034 4750 
z
" id="DejaVuSans-30" transform="scale(0.015625)"/>
        <path d="M 794 531 
L 1825 531 
L 1825 4091 
L 703 3866 
L 703 4441 
L 1819 4666 
L 2450 4666 
L 2450 531 
L 3481 531 
L 3481 0 
L 794 0 
L 794 531 
z
" id="DejaVuSans-31" transform="scale(0.015625)"/>
       </defs>
       <use xlink:href="#DejaVuSans-32"/>
       <use x="63.623047" xlink:href="#DejaVuSans-30"/>
       <use x="127.246094" xlink:href="#DejaVuSans-31"/>
       <use x="190.869141" xlink:href="#DejaVuSans-32"/>
      </g>
     </g>
    </g>
    <g id="xtick_2">
     <g id="line2d_3">
      <path clip-path="url(#pe3185b11ce)" d="M 308.781702 301.139691 
L 308.781702 7.379691 
" style="fill:none;stroke:#546379;stroke-linecap:square;stroke-width:1.12;"/>
     </g>
     <g id="line2d_4"/>
     <g id="text_2">
      <!-- 2014 -->
      <g style="fill:#b1bed6;" transform="translate(279.700662 331.064545)rotate(-30)scale(0.126 -0.126)">
       <defs>
        <path d="M 2419 4116 
L 825 1625 
L 2419 1625 
L 2419 4116 
z
M 2253 4666 
L 3047 4666 
L 3047 1625 
L 3713 1625 
L 3713 1100 
L 3047 1100 
L 3047 0 
L 2419 0 
L 2419 1100 
L 313 1100 
L 313 1709 
L 2253 4666 
z
" id="DejaVuSans-34" transform="scale(0.015625)"/>
       </defs>
       <use xlink:href="#DejaVuSans-32"/>
       <use x="63.623047" xlink:href="#DejaVuSans-30"/>
       <use x="127.246094" xlink:href="#DejaVuSans-31"/>
       <use x="190.869141" xlink:href="#DejaVuSans-34"/>
      </g>
     </g>
    </g>
    <g id="xtick_3">
     <g id="line2d_5">
      <path clip-path="url(#pe3185b11ce)" d="M 456.187274 301.139691 
L 456.187274 7.379691 
" style="fill:none;stroke:#546379;stroke-linecap:square;stroke-width:1.12;"/>
     </g>
     <g id="line2d_6"/>
     <g id="text_3">
      <!-- 2016 -->
      <g style="fill:#b1bed6;" transform="translate(427.106234 331.064545)rotate(-30)scale(0.126 -0.126)">
       <defs>
        <path d="M 2113 2584 
Q 1688 2584 1439 2293 
Q 1191 2003 1191 1497 
Q 1191 994 1439 701 
Q 1688 409 2113 409 
Q 2538 409 2786 701 
Q 3034 994 3034 1497 
Q 3034 2003 2786 2293 
Q 2538 2584 2113 2584 
z
M 3366 4563 
L 3366 3988 
Q 3128 4100 2886 4159 
Q 2644 4219 2406 4219 
Q 1781 4219 1451 3797 
Q 1122 3375 1075 2522 
Q 1259 2794 1537 2939 
Q 1816 3084 2150 3084 
Q 2853 3084 3261 2657 
Q 3669 2231 3669 1497 
Q 3669 778 3244 343 
Q 2819 -91 2113 -91 
Q 1303 -91 875 529 
Q 447 1150 447 2328 
Q 447 3434 972 4092 
Q 1497 4750 2381 4750 
Q 2619 4750 2861 4703 
Q 3103 4656 3366 4563 
z
" id="DejaVuSans-36" transform="scale(0.015625)"/>
       </defs>
       <use xlink:href="#DejaVuSans-32"/>
       <use x="63.623047" xlink:href="#DejaVuSans-30"/>
       <use x="127.246094" xlink:href="#DejaVuSans-31"/>
       <use x="190.869141" xlink:href="#DejaVuSans-36"/>
      </g>
     </g>
    </g>
    <g id="xtick_4">
     <g id="line2d_7">
      <path clip-path="url(#pe3185b11ce)" d="M 603.794771 301.139691 
L 603.794771 7.379691 
" style="fill:none;stroke:#546379;stroke-linecap:square;stroke-width:1.12;"/>
     </g>
     <g id="line2d_8"/>
     <g id="text_4">
      <!-- 2018 -->
      <g style="fill:#b1bed6;" transform="translate(574.713731 331.064545)rotate(-30)scale(0.126 -0.126)">
       <defs>
        <path d="M 2034 2216 
Q 1584 2216 1326 1975 
Q 1069 1734 1069 1313 
Q 1069 891 1326 650 
Q 1584 409 2034 409 
Q 2484 409 2743 651 
Q 3003 894 3003 1313 
Q 3003 1734 2745 1975 
Q 2488 2216 2034 2216 
z
M 1403 2484 
Q 997 2584 770 2862 
Q 544 3141 544 3541 
Q 544 4100 942 4425 
Q 1341 4750 2034 4750 
Q 2731 4750 3128 4425 
Q 3525 4100 3525 3541 
Q 3525 3141 3298 2862 
Q 3072 2584 2669 2484 
Q 3125 2378 3379 2068 
Q 3634 1759 3634 1313 
Q 3634 634 3220 271 
Q 2806 -91 2034 -91 
Q 1263 -91 848 271 
Q 434 634 434 1313 
Q 434 1759 690 2068 
Q 947 2378 1403 2484 
z
M 1172 3481 
Q 1172 3119 1398 2916 
Q 1625 2713 2034 2713 
Q 2441 2713 2670 2916 
Q 2900 3119 2900 3481 
Q 2900 3844 2670 4047 
Q 2441 4250 2034 4250 
Q 1625 4250 1398 4047 
Q 1172 3844 1172 3481 
z
" id="DejaVuSans-38" transform="scale(0.015625)"/>
       </defs>
       <use xlink:href="#DejaVuSans-32"/>
       <use x="63.623047" xlink:href="#DejaVuSans-30"/>
       <use x="127.246094" xlink:href="#DejaVuSans-31"/>
       <use x="190.869141" xlink:href="#DejaVuSans-38"/>
      </g>
     </g>
    </g>
    <g id="xtick_5">
     <g id="line2d_9">
      <path clip-path="url(#pe3185b11ce)" d="M 751.200342 301.139691 
L 751.200342 7.379691 
" style="fill:none;stroke:#546379;stroke-linecap:square;stroke-width:1.12;"/>
     </g>
     <g id="line2d_10"/>
     <g id="text_5">
      <!-- 2020 -->
      <g style="fill:#b1bed6;" transform="translate(722.119303 331.064545)rotate(-30)scale(0.126 -0.126)">
       <use xlink:href="#DejaVuSans-32"/>
       <use x="63.623047" xlink:href="#DejaVuSans-30"/>
       <use x="127.246094" xlink:href="#DejaVuSans-32"/>
       <use x="190.869141" xlink:href="#DejaVuSans-30"/>
      </g>
     </g>
    </g>
    <g id="xtick_6">
     <g id="line2d_11">
      <path clip-path="url(#pe3185b11ce)" d="M 898.807839 301.139691 
L 898.807839 7.379691 
" style="fill:none;stroke:#546379;stroke-linecap:square;stroke-width:1.12;"/>
     </g>
     <g id="line2d_12"/>
     <g id="text_6">
      <!-- 2022 -->
      <g style="fill:#b1bed6;" transform="translate(869.7268 331.064545)rotate(-30)scale(0.126 -0.126)">
       <use xlink:href="#DejaVuSans-32"/>
       <use x="63.623047" xlink:href="#DejaVuSans-30"/>
       <use x="127.246094" xlink:href="#DejaVuSans-32"/>
       <use x="190.869141" xlink:href="#DejaVuSans-32"/>
      </g>
     </g>
    </g>
    <g id="text_7">
     <!-- Date -->
     <g style="fill:#b1bed6;" transform="translate(464.166875 348.275634)scale(0.144 -0.144)">
      <defs>
       <path d="M 1259 4147 
L 1259 519 
L 2022 519 
Q 2988 519 3436 956 
Q 3884 1394 3884 2338 
Q 3884 3275 3436 3711 
Q 2988 4147 2022 4147 
L 1259 4147 
z
M 628 4666 
L 1925 4666 
Q 3281 4666 3915 4102 
Q 4550 3538 4550 2338 
Q 4550 1131 3912 565 
Q 3275 0 1925 0 
L 628 0 
L 628 4666 
z
" id="DejaVuSans-44" transform="scale(0.015625)"/>
       <path d="M 2194 1759 
Q 1497 1759 1228 1600 
Q 959 1441 959 1056 
Q 959 750 1161 570 
Q 1363 391 1709 391 
Q 2188 391 2477 730 
Q 2766 1069 2766 1631 
L 2766 1759 
L 2194 1759 
z
M 3341 1997 
L 3341 0 
L 2766 0 
L 2766 531 
Q 2569 213 2275 61 
Q 1981 -91 1556 -91 
Q 1019 -91 701 211 
Q 384 513 384 1019 
Q 384 1609 779 1909 
Q 1175 2209 1959 2209 
L 2766 2209 
L 2766 2266 
Q 2766 2663 2505 2880 
Q 2244 3097 1772 3097 
Q 1472 3097 1187 3025 
Q 903 2953 641 2809 
L 641 3341 
Q 956 3463 1253 3523 
Q 1550 3584 1831 3584 
Q 2591 3584 2966 3190 
Q 3341 2797 3341 1997 
z
" id="DejaVuSans-61" transform="scale(0.015625)"/>
       <path d="M 1172 4494 
L 1172 3500 
L 2356 3500 
L 2356 3053 
L 1172 3053 
L 1172 1153 
Q 1172 725 1289 603 
Q 1406 481 1766 481 
L 2356 481 
L 2356 0 
L 1766 0 
Q 1100 0 847 248 
Q 594 497 594 1153 
L 594 3053 
L 172 3053 
L 172 3500 
L 594 3500 
L 594 4494 
L 1172 4494 
z
" id="DejaVuSans-74" transform="scale(0.015625)"/>
       <path d="M 3597 1894 
L 3597 1613 
L 953 1613 
Q 991 1019 1311 708 
Q 1631 397 2203 397 
Q 2534 397 2845 478 
Q 3156 559 3463 722 
L 3463 178 
Q 3153 47 2828 -22 
Q 2503 -91 2169 -91 
Q 1331 -91 842 396 
Q 353 884 353 1716 
Q 353 2575 817 3079 
Q 1281 3584 2069 3584 
Q 2775 3584 3186 3129 
Q 3597 2675 3597 1894 
z
M 3022 2063 
Q 3016 2534 2758 2815 
Q 2500 3097 2075 3097 
Q 1594 3097 1305 2825 
Q 1016 2553 972 2059 
L 3022 2063 
z
" id="DejaVuSans-65" transform="scale(0.015625)"/>
      </defs>
      <use xlink:href="#DejaVuSans-44"/>
      <use x="77.001953" xlink:href="#DejaVuSans-61"/>
      <use x="138.28125" xlink:href="#DejaVuSans-74"/>
      <use x="177.490234" xlink:href="#DejaVuSans-65"/>
     </g>
    </g>
   </g>
   <g id="matplotlib.axis_2">
    <g id="ytick_1">
     <g id="line2d_13">
      <path clip-path="url(#pe3185b11ce)" d="M 34.976 254.863557 
L 927.776 254.863557 
" style="fill:none;stroke:#546379;stroke-linecap:square;stroke-width:1.12;"/>
     </g>
     <g id="line2d_14"/>
     <g id="text_8">
      <!-- $\mathdefault{10^{0}}$ -->
      <g style="fill:#b1bed6;" transform="translate(7.2 259.650573)scale(0.126 -0.126)">
       <use transform="translate(0 0.765625)" xlink:href="#DejaVuSans-31"/>
       <use transform="translate(63.623047 0.765625)" xlink:href="#DejaVuSans-30"/>
       <use transform="translate(128.203125 39.046875)scale(0.7)" xlink:href="#DejaVuSans-30"/>
      </g>
     </g>
    </g>
    <g id="ytick_2">
     <g id="line2d_15">
      <path clip-path="url(#pe3185b11ce)" d="M 34.976 206.288249 
L 927.776 206.288249 
" style="fill:none;stroke:#546379;stroke-linecap:square;stroke-width:1.12;"/>
     </g>
     <g id="line2d_16"/>
     <g id="text_9">
      <!-- $\mathdefault{10^{1}}$ -->
      <g style="fill:#b1bed6;" transform="translate(7.2 211.075264)scale(0.126 -0.126)">
       <use transform="translate(0 0.684375)" xlink:href="#DejaVuSans-31"/>
       <use transform="translate(63.623047 0.684375)" xlink:href="#DejaVuSans-30"/>
       <use transform="translate(128.203125 38.965625)scale(0.7)" xlink:href="#DejaVuSans-31"/>
      </g>
     </g>
    </g>
    <g id="ytick_3">
     <g id="line2d_17">
      <path clip-path="url(#pe3185b11ce)" d="M 34.976 157.71294 
L 927.776 157.71294 
" style="fill:none;stroke:#546379;stroke-linecap:square;stroke-width:1.12;"/>
     </g>
     <g id="line2d_18"/>
     <g id="text_10">
      <!-- $\mathdefault{10^{2}}$ -->
      <g style="fill:#b1bed6;" transform="translate(7.2 162.499956)scale(0.126 -0.126)">
       <use transform="translate(0 0.765625)" xlink:href="#DejaVuSans-31"/>
       <use transform="translate(63.623047 0.765625)" xlink:href="#DejaVuSans-30"/>
       <use transform="translate(128.203125 39.046875)scale(0.7)" xlink:href="#DejaVuSans-32"/>
      </g>
     </g>
    </g>
    <g id="ytick_4">
     <g id="line2d_19">
      <path clip-path="url(#pe3185b11ce)" d="M 34.976 109.137632 
L 927.776 109.137632 
" style="fill:none;stroke:#546379;stroke-linecap:square;stroke-width:1.12;"/>
     </g>
     <g id="line2d_20"/>
     <g id="text_11">
      <!-- $\mathdefault{10^{3}}$ -->
      <g style="fill:#b1bed6;" transform="translate(7.2 113.924648)scale(0.126 -0.126)">
       <defs>
        <path d="M 2597 2516 
Q 3050 2419 3304 2112 
Q 3559 1806 3559 1356 
Q 3559 666 3084 287 
Q 2609 -91 1734 -91 
Q 1441 -91 1130 -33 
Q 819 25 488 141 
L 488 750 
Q 750 597 1062 519 
Q 1375 441 1716 441 
Q 2309 441 2620 675 
Q 2931 909 2931 1356 
Q 2931 1769 2642 2001 
Q 2353 2234 1838 2234 
L 1294 2234 
L 1294 2753 
L 1863 2753 
Q 2328 2753 2575 2939 
Q 2822 3125 2822 3475 
Q 2822 3834 2567 4026 
Q 2313 4219 1838 4219 
Q 1578 4219 1281 4162 
Q 984 4106 628 3988 
L 628 4550 
Q 988 4650 1302 4700 
Q 1616 4750 1894 4750 
Q 2613 4750 3031 4423 
Q 3450 4097 3450 3541 
Q 3450 3153 3228 2886 
Q 3006 2619 2597 2516 
z
" id="DejaVuSans-33" transform="scale(0.015625)"/>
       </defs>
       <use transform="translate(0 0.765625)" xlink:href="#DejaVuSans-31"/>
       <use transform="translate(63.623047 0.765625)" xlink:href="#DejaVuSans-30"/>
       <use transform="translate(128.203125 39.046875)scale(0.7)" xlink:href="#DejaVuSans-33"/>
      </g>
     </g>
    </g>
    <g id="ytick_5">
     <g id="line2d_21">
      <path clip-path="url(#pe3185b11ce)" d="M 34.976 60.562324 
L 927.776 60.562324 
" style="fill:none;stroke:#546379;stroke-linecap:square;stroke-width:1.12;"/>
     </g>
     <g id="line2d_22"/>
     <g id="text_12">
      <!-- $\mathdefault{10^{4}}$ -->
      <g style="fill:#b1bed6;" transform="translate(7.2 65.34934)scale(0.126 -0.126)">
       <use transform="translate(0 0.684375)" xlink:href="#DejaVuSans-31"/>
       <use transform="translate(63.623047 0.684375)" xlink:href="#DejaVuSans-30"/>
       <use transform="translate(128.203125 38.965625)scale(0.7)" xlink:href="#DejaVuSans-34"/>
      </g>
     </g>
    </g>
    <g id="ytick_6">
     <g id="line2d_23">
      <path clip-path="url(#pe3185b11ce)" d="M 34.976 11.987016 
L 927.776 11.987016 
" style="fill:none;stroke:#546379;stroke-linecap:square;stroke-width:1.12;"/>
     </g>
     <g id="line2d_24"/>
     <g id="text_13">
      <!-- $\mathdefault{10^{5}}$ -->
      <g style="fill:#b1bed6;" transform="translate(7.2 16.774031)scale(0.126 -0.126)">
       <defs>
        <path d="M 691 4666 
L 3169 4666 
L 3169 4134 
L 1269 4134 
L 1269 2991 
Q 1406 3038 1543 3061 
Q 1681 3084 1819 3084 
Q 2600 3084 3056 2656 
Q 3513 2228 3513 1497 
Q 3513 744 3044 326 
Q 2575 -91 1722 -91 
Q 1428 -91 1123 -41 
Q 819 9 494 109 
L 494 744 
Q 775 591 1075 516 
Q 1375 441 1709 441 
Q 2250 441 2565 725 
Q 2881 1009 2881 1497 
Q 2881 1984 2565 2268 
Q 2250 2553 1709 2553 
Q 1456 2553 1204 2497 
Q 953 2441 691 2322 
L 691 4666 
z
" id="DejaVuSans-35" transform="scale(0.015625)"/>
       </defs>
       <use transform="translate(0 0.684375)" xlink:href="#DejaVuSans-31"/>
       <use transform="translate(63.623047 0.684375)" xlink:href="#DejaVuSans-30"/>
       <use transform="translate(128.203125 38.965625)scale(0.7)" xlink:href="#DejaVuSans-35"/>
      </g>
     </g>
    </g>
    <g id="ytick_7">
     <g id="line2d_25"/>
    </g>
    <g id="ytick_8">
     <g id="line2d_26"/>
    </g>
    <g id="ytick_9">
     <g id="line2d_27"/>
    </g>
    <g id="ytick_10">
     <g id="line2d_28"/>
    </g>
    <g id="ytick_11">
     <g id="line2d_29"/>
    </g>
    <g id="ytick_12">
     <g id="line2d_30"/>
    </g>
    <g id="ytick_13">
     <g id="line2d_31"/>
    </g>
    <g id="ytick_14">
     <g id="line2d_32"/>
    </g>
    <g id="ytick_15">
     <g id="line2d_33"/>
    </g>
    <g id="ytick_16">
     <g id="line2d_34"/>
    </g>
    <g id="ytick_17">
     <g id="line2d_35"/>
    </g>
    <g id="ytick_18">
     <g id="line2d_36"/>
    </g>
    <g id="ytick_19">
     <g id="line2d_37"/>
    </g>
    <g id="ytick_20">
     <g id="line2d_38"/>
    </g>
    <g id="ytick_21">
     <g id="line2d_39"/>
    </g>
    <g id="ytick_22">
     <g id="line2d_40"/>
    </g>
    <g id="ytick_23">
     <g id="line2d_41"/>
    </g>
    <g id="ytick_24">
     <g id="line2d_42"/>
    </g>
    <g id="ytick_25">
     <g id="line2d_43"/>
    </g>
    <g id="ytick_26">
     <g id="line2d_44"/>
    </g>
    <g id="ytick_27">
     <g id="line2d_45"/>
    </g>
    <g id="ytick_28">
     <g id="line2d_46"/>
    </g>
    <g id="ytick_29">
     <g id="line2d_47"/>
    </g>
    <g id="ytick_30">
     <g id="line2d_48"/>
    </g>
    <g id="ytick_31">
     <g id="line2d_49"/>
    </g>
    <g id="ytick_32">
     <g id="line2d_50"/>
    </g>
    <g id="ytick_33">
     <g id="line2d_51"/>
    </g>
    <g id="ytick_34">
     <g id="line2d_52"/>
    </g>
    <g id="ytick_35">
     <g id="line2d_53"/>
    </g>
    <g id="ytick_36">
     <g id="line2d_54"/>
    </g>
    <g id="ytick_37">
     <g id="line2d_55"/>
    </g>
    <g id="ytick_38">
     <g id="line2d_56"/>
    </g>
    <g id="ytick_39">
     <g id="line2d_57"/>
    </g>
    <g id="ytick_40">
     <g id="line2d_58"/>
    </g>
    <g id="ytick_41">
     <g id="line2d_59"/>
    </g>
    <g id="ytick_42">
     <g id="line2d_60"/>
    </g>
    <g id="ytick_43">
     <g id="line2d_61"/>
    </g>
    <g id="ytick_44">
     <g id="line2d_62"/>
    </g>
    <g id="ytick_45">
     <g id="line2d_63"/>
    </g>
    <g id="ytick_46">
     <g id="line2d_64"/>
    </g>
    <g id="ytick_47">
     <g id="line2d_65"/>
    </g>
    <g id="ytick_48">
     <g id="line2d_66"/>
    </g>
    <g id="ytick_49">
     <g id="line2d_67"/>
    </g>
    <g id="ytick_50">
     <g id="line2d_68"/>
    </g>
    <g id="ytick_51">
     <g id="line2d_69"/>
    </g>
    <g id="ytick_52">
     <g id="line2d_70"/>
    </g>
    <g id="ytick_53">
     <g id="line2d_71"/>
    </g>
    <g id="ytick_54">
     <g id="line2d_72"/>
    </g>
   </g>
   <g id="line2d_73">
    <path clip-path="url(#pe3185b11ce)" d="M 75.557818 287.786964 
L 75.557818 284.108807 
L 76.163595 284.108807 
L 76.163595 276.4163 
L 76.769371 276.4163 
L 76.769371 284.969987 
L 77.375147 284.969987 
L 77.375147 280.262553 
L 77.980923 280.262553 
L 77.980923 281.718026 
L 78.5867 281.718026 
L 78.5867 280.97774 
L 80.404029 280.97774 
L 80.404029 281.718026 
L 81.009805 281.718026 
L 81.009805 284.108807 
L 81.615581 284.108807 
L 81.615581 285.867824 
L 82.221358 285.867824 
L 82.221358 284.108807 
L 82.827134 284.108807 
L 82.827134 285.867824 
L 84.038687 285.867824 
L 84.038687 284.108807 
L 84.644463 284.108807 
L 84.644463 282.485237 
L 85.250239 282.485237 
L 85.250239 284.108807 
L 85.856016 284.108807 
L 85.856016 282.485237 
L 86.461792 282.485237 
L 86.461792 280.262553 
L 88.279121 280.262553 
L 88.279121 278.901049 
L 88.884897 278.901049 
L 88.884897 278.251891 
L 89.490674 278.251891 
L 89.490674 273.164339 
L 90.09645 273.164339 
L 90.09645 274.193616 
L 90.702226 274.193616 
L 90.702226 277.010592 
L 91.308003 277.010592 
L 91.308003 272.66794 
L 92.519555 272.66794 
L 92.519555 271.708866 
L 93.125332 271.708866 
L 93.125332 265.291226 
L 93.731108 265.291226 
L 93.731108 260.105095 
L 94.336884 260.105095 
L 94.336884 256.622574 
L 94.94266 256.622574 
L 94.94266 255.506124 
L 95.548437 255.506124 
L 95.548437 253.045553 
L 96.154213 253.045553 
L 96.154213 253.239988 
L 96.759989 253.239988 
L 96.759989 254.036157 
L 97.365766 254.036157 
L 97.365766 257.560328 
L 97.971542 257.560328 
L 97.971542 255.724737 
L 99.183095 255.724737 
L 99.183095 255.94564 
L 99.788871 255.94564 
L 99.788871 256.622574 
L 100.394647 256.622574 
L 100.394647 257.086241 
L 101.000424 257.086241 
L 101.000424 256.394508 
L 101.6062 256.394508 
L 101.6062 257.086241 
L 102.211976 257.086241 
L 102.211976 257.801428 
L 102.817753 257.801428 
L 102.817753 259.836353 
L 103.423529 259.836353 
L 103.423529 258.045315 
L 104.029305 258.045315 
L 104.029305 257.086241 
L 104.635082 257.086241 
L 104.635082 259.570991 
L 105.846634 259.570991 
L 105.846634 260.377305 
L 106.452411 260.377305 
L 106.452411 260.105095 
L 107.058187 260.105095 
L 107.058187 260.653074 
L 107.663963 260.653074 
L 107.663963 255.075579 
L 108.26974 255.075579 
L 108.26974 253.045553 
L 108.875516 253.045553 
L 108.875516 251.19384 
L 109.481292 251.19384 
L 109.481292 248.068887 
L 110.087069 248.068887 
L 110.087069 243.545699 
L 110.692845 243.545699 
L 110.692845 234.224801 
L 111.298621 234.224801 
L 111.298621 225.883669 
L 111.904397 225.883669 
L 111.904397 228.076703 
L 112.510174 228.076703 
L 112.510174 226.979811 
L 113.11595 226.979811 
L 113.11595 219.248274 
L 113.721726 219.248274 
L 113.721726 209.568356 
L 114.327503 209.568356 
L 114.327503 209.791334 
L 114.933279 209.791334 
L 114.933279 212.98526 
L 115.539055 212.98526 
L 115.539055 214.393179 
L 116.144832 214.393179 
L 116.144832 211.127946 
L 116.750608 211.127946 
L 116.750608 209.274672 
L 117.356384 209.274672 
L 117.356384 207.437056 
L 117.962161 207.437056 
L 117.962161 197.664359 
L 118.567937 197.664359 
L 118.567937 192.537795 
L 119.173713 192.537795 
L 119.173713 181.52747 
L 119.77949 181.52747 
L 119.77949 187.068176 
L 120.385266 187.068176 
L 120.385266 191.676175 
L 120.991042 191.676175 
L 120.991042 194.362395 
L 121.596819 194.362395 
L 121.596819 197.193075 
L 122.202595 197.193075 
L 122.202595 195.15626 
L 122.808371 195.15626 
L 122.808371 194.017624 
L 123.414148 194.017624 
L 123.414148 194.627757 
L 124.019924 194.627757 
L 124.019924 196.718683 
L 124.6257 196.718683 
L 124.6257 195.800752 
L 125.231477 195.800752 
L 125.231477 197.510729 
L 125.837253 197.510729 
L 125.837253 198.42067 
L 126.443029 198.42067 
L 126.443029 198.816644 
L 127.048806 198.816644 
L 127.048806 199.295779 
L 128.260358 199.28064 
L 128.260358 198.950305 
L 129.471911 199.039884 
L 129.471911 199.099816 
L 130.077687 199.099816 
L 130.077687 200.161377 
L 130.683463 200.161377 
L 130.683463 203.4871 
L 131.28924 203.4871 
L 131.28924 207.017989 
L 131.895016 207.017989 
L 131.895016 205.562517 
L 132.500792 205.562517 
L 132.500792 203.524078 
L 133.712345 203.542591 
L 133.712345 202.886138 
L 134.318121 202.886138 
L 134.318121 203.394937 
L 134.923898 203.394937 
L 134.923898 206.267163 
L 135.529674 206.267163 
L 135.529674 207.593572 
L 136.13545 207.593572 
L 136.13545 209.816256 
L 136.741227 209.816256 
L 136.741227 209.568356 
L 137.347003 209.568356 
L 137.347003 212.272971 
L 137.952779 212.272971 
L 137.952779 215.40852 
L 138.558556 215.40852 
L 138.558556 216.40694 
L 139.164332 216.40694 
L 139.164332 220.164769 
L 139.770108 220.164769 
L 139.770108 217.454969 
L 140.375885 217.454969 
L 140.375885 217.779807 
L 140.981661 217.779807 
L 140.981661 218.938602 
L 141.587437 218.938602 
L 141.587437 221.122895 
L 142.193214 221.122895 
L 142.193214 219.801384 
L 142.79899 219.801384 
L 142.79899 220.784676 
L 143.404766 220.784676 
L 143.404766 221.81605 
L 144.010543 221.81605 
L 144.010543 224.438881 
L 144.616319 224.438881 
L 144.616319 223.751974 
L 145.222095 223.751974 
L 145.222095 226.315316 
L 145.827872 226.315316 
L 145.827872 234.787394 
L 146.433648 234.787394 
L 146.433648 229.612752 
L 147.039424 229.612752 
L 147.039424 231.687245 
L 147.6452 231.687245 
L 147.6452 229.108943 
L 148.856753 229.171265 
L 148.856753 229.804826 
L 149.462529 229.804826 
L 149.462529 231.407824 
L 150.068306 231.407824 
L 150.068306 231.063673 
L 150.674082 231.063673 
L 150.674082 230.927569 
L 151.279858 230.927569 
L 151.279858 234.145641 
L 151.885635 234.145641 
L 151.885635 236.660041 
L 152.491411 236.660041 
L 152.491411 237.292516 
L 153.097187 237.292516 
L 153.097187 235.702945 
L 153.702964 235.702945 
L 153.702964 235.449283 
L 154.30874 235.449283 
L 154.30874 231.687245 
L 154.914516 231.687245 
L 154.914516 230.995511 
L 155.520293 230.995511 
L 155.520293 231.269489 
L 156.126069 231.269489 
L 156.126069 231.407824 
L 156.731845 231.407824 
L 156.731845 229.485667 
L 157.337622 229.485667 
L 157.337622 230.325741 
L 157.943398 230.325741 
L 157.943398 229.296464 
L 158.549174 229.296464 
L 158.549174 225.200551 
L 160.366503 225.148909 
L 160.366503 223.274669 
L 160.97228 223.274669 
L 160.97228 219.09287 
L 161.578056 219.09287 
L 161.578056 215.053958 
L 162.183832 215.053958 
L 162.183832 213.218367 
L 162.789609 213.218367 
L 162.789609 213.51342 
L 163.395385 213.51342 
L 163.395385 214.393179 
L 164.001161 214.393179 
L 164.001161 213.903265 
L 164.606937 213.903265 
L 164.606937 215.150067 
L 165.212714 215.150067 
L 165.212714 215.473632 
L 165.81849 215.473632 
L 165.81849 216.785199 
L 166.424266 216.785199 
L 166.424266 218.072811 
L 167.030043 218.072811 
L 167.030043 217.889207 
L 167.635819 217.889207 
L 167.635819 217.099809 
L 168.241595 217.099809 
L 168.241595 217.999178 
L 168.847372 217.999178 
L 168.847372 217.276642 
L 169.453148 217.276642 
L 169.453148 218.183746 
L 170.058924 218.183746 
L 170.058924 222.037416 
L 170.664701 222.037416 
L 170.664701 223.703754 
L 171.270477 223.703754 
L 171.270477 222.532755 
L 171.876253 222.532755 
L 171.876253 220.700962 
L 172.48203 220.700962 
L 172.48203 220.995427 
L 173.087806 220.995427 
L 173.087806 221.165557 
L 173.693582 221.165557 
L 173.693582 220.742777 
L 174.299359 220.742777 
L 174.299359 220.953108 
L 175.510911 220.995427 
L 175.510911 219.09287 
L 176.116688 219.09287 
L 176.116688 219.287304 
L 176.722464 219.287304 
L 176.722464 221.122895 
L 177.32824 221.122895 
L 177.32824 221.72815 
L 177.934017 221.72815 
L 177.934017 222.037416 
L 178.539793 222.037416 
L 178.539793 221.553441 
L 179.145569 221.553441 
L 179.145569 221.037831 
L 180.357122 221.08032 
L 180.357122 221.165557 
L 180.962898 221.165557 
L 180.962898 221.33707 
L 181.568674 221.33707 
L 181.568674 221.037831 
L 182.780227 220.953108 
L 182.780227 220.124082 
L 183.386003 220.124082 
L 183.386003 219.681633 
L 183.99178 219.681633 
L 183.99178 220.246378 
L 184.597556 220.246378 
L 184.597556 220.534523 
L 185.203332 220.534523 
L 185.203332 220.742777 
L 185.809109 220.742777 
L 185.809109 220.287301 
L 186.414885 220.287301 
L 186.414885 220.493118 
L 187.626438 220.493118 
L 187.626438 220.868724 
L 188.232214 220.868724 
L 188.232214 220.493118 
L 188.83799 220.493118 
L 188.83799 220.328304 
L 191.261096 220.246378 
L 191.261096 220.042944 
L 191.866872 220.042944 
L 191.866872 219.801384 
L 192.472648 219.801384 
L 192.472648 218.977064 
L 193.078425 218.977064 
L 193.078425 218.220854 
L 193.684201 218.220854 
L 193.684201 217.9258 
L 194.289977 217.9258 
L 194.289977 216.13604 
L 194.895754 216.13604 
L 194.895754 215.441051 
L 195.50153 215.441051 
L 195.50153 214.42418 
L 196.107306 214.42418 
L 196.107306 215.182201 
L 197.318859 215.117982 
L 197.318859 214.768229 
L 198.530411 214.705256 
L 198.530411 214.611147 
L 199.136188 214.611147 
L 199.136188 213.87302 
L 199.741964 213.87302 
L 199.741964 212.469999 
L 200.34774 212.469999 
L 200.34774 211.529787 
L 200.953517 211.529787 
L 200.953517 207.661007 
L 201.559293 207.661007 
L 201.559293 207.303818 
L 202.165069 207.303818 
L 202.165069 208.722955 
L 203.376622 208.62846 
L 203.376622 208.001455 
L 203.982398 208.001455 
L 203.982398 206.036604 
L 204.588175 206.036604 
L 204.588175 203.878641 
L 205.193951 203.878641 
L 205.193951 203.616808 
L 205.799727 203.616808 
L 205.799727 203.084562 
L 206.405504 203.084562 
L 206.405504 201.92108 
L 207.01128 201.92108 
L 207.01128 197.220508 
L 207.617056 197.220508 
L 207.617056 205.359669 
L 208.222833 205.359669 
L 208.222833 205.767334 
L 208.828609 205.767334 
L 208.828609 204.296773 
L 209.434385 204.296773 
L 209.434385 204.010786 
L 210.040162 204.010786 
L 210.040162 205.542144 
L 210.645938 205.542144 
L 210.645938 205.07892 
L 211.251714 205.07892 
L 211.251714 203.766029 
L 211.857491 203.766029 
L 211.857491 204.010786 
L 212.463267 204.010786 
L 212.463267 203.376553 
L 213.069043 203.376553 
L 213.069043 202.477185 
L 213.67482 202.477185 
L 213.67482 201.36255 
L 214.280596 201.36255 
L 214.280596 201.750262 
L 214.886372 201.750262 
L 214.886372 202.024239 
L 215.492148 202.024239 
L 215.492148 201.64843 
L 216.097925 201.64843 
L 216.097925 201.446231 
L 216.703701 201.446231 
L 216.703701 200.640126 
L 217.309477 200.640126 
L 217.309477 201.446231 
L 217.915254 201.446231 
L 217.915254 202.162574 
L 219.126806 202.266924 
L 219.126806 202.459583 
L 220.338359 202.54774 
L 220.338359 202.689562 
L 220.944135 202.689562 
L 220.944135 203.230053 
L 221.549912 203.230053 
L 221.549912 204.880648 
L 222.155688 204.880648 
L 222.155688 203.954051 
L 222.761464 203.954051 
L 222.761464 205.019242 
L 223.367241 205.019242 
L 223.367241 204.335199 
L 223.973017 204.335199 
L 223.973017 204.201013 
L 224.578793 204.201013 
L 224.578793 203.954051 
L 225.18457 203.954051 
L 225.18457 203.747318 
L 225.790346 203.747318 
L 225.790346 202.760832 
L 226.396122 202.760832 
L 226.396122 202.618532 
L 227.001899 202.618532 
L 227.001899 201.64843 
L 228.213451 201.580815 
L 228.213451 201.3125 
L 228.819228 201.3125 
L 228.819228 201.163059 
L 229.425004 201.163059 
L 229.425004 199.662409 
L 230.03078 199.662409 
L 230.03078 199.910418 
L 230.636557 199.910418 
L 230.636557 199.493579 
L 231.848109 199.570153 
L 231.848109 200.114094 
L 232.453886 200.114094 
L 232.453886 199.755071 
L 233.059662 199.755071 
L 233.059662 200.035524 
L 234.271214 199.941625 
L 234.271214 199.848142 
L 234.876991 199.848142 
L 234.876991 200.082631 
L 235.482767 200.082631 
L 235.482767 199.894832 
L 236.088543 199.894832 
L 236.088543 199.43252 
L 236.69432 199.43252 
L 236.69432 198.728006 
L 237.905872 198.683825 
L 237.905872 197.002036 
L 238.511649 197.002036 
L 238.511649 196.176204 
L 239.117425 196.176204 
L 239.117425 193.923497 
L 239.723201 193.923497 
L 239.723201 194.230956 
L 240.328978 194.230956 
L 240.328978 191.898966 
L 240.934754 191.898966 
L 240.934754 190.386688 
L 241.54053 190.386688 
L 241.54053 190.646395 
L 242.146307 190.646395 
L 242.146307 189.511613 
L 242.752083 189.511613 
L 242.752083 187.845757 
L 243.357859 187.845757 
L 243.357859 187.557305 
L 243.963636 187.557305 
L 243.963636 185.032081 
L 244.569412 185.032081 
L 244.569412 183.480807 
L 245.175188 183.480807 
L 245.175188 182.749406 
L 246.386741 182.832516 
L 246.386741 180.872382 
L 246.992517 180.872382 
L 246.992517 180.316946 
L 247.598294 180.316946 
L 247.598294 176.013722 
L 248.20407 176.013722 
L 248.20407 173.672331 
L 248.809846 173.672331 
L 248.809846 174.879466 
L 249.415623 174.879466 
L 249.415623 173.685821 
L 250.021399 173.685821 
L 250.021399 171.459539 
L 250.627175 171.459539 
L 250.627175 165.162142 
L 251.232951 165.162142 
L 251.232951 164.663578 
L 251.838728 164.663578 
L 251.838728 160.218797 
L 252.444504 160.218797 
L 252.444504 159.357616 
L 253.05028 159.357616 
L 253.05028 154.339576 
L 253.656057 154.339576 
L 253.656057 150.300636 
L 254.261833 150.300636 
L 254.261833 144.512664 
L 254.867609 144.512664 
L 254.867609 153.02239 
L 255.473386 153.02239 
L 255.473386 157.71294 
L 256.079162 157.71294 
L 256.079162 159.040718 
L 256.684938 159.040718 
L 256.684938 152.587751 
L 257.290715 152.587751 
L 257.290715 150.241336 
L 257.896491 150.241336 
L 257.896491 151.071697 
L 258.502267 151.071697 
L 258.502267 149.941472 
L 259.108044 149.941472 
L 259.108044 157.028013 
L 259.71382 157.028013 
L 259.71382 154.585511 
L 260.319596 154.585511 
L 260.319596 155.069398 
L 260.925373 155.069398 
L 260.925373 154.64015 
L 261.531149 154.64015 
L 261.531149 155.32216 
L 262.136925 155.32216 
L 262.136925 153.290959 
L 262.742702 153.290959 
L 262.742702 153.514527 
L 263.348478 153.514527 
L 263.348478 152.720535 
L 263.954254 152.720535 
L 263.954254 151.617649 
L 264.560031 151.617649 
L 264.560031 151.808134 
L 265.165807 151.808134 
L 265.165807 152.292008 
L 265.771583 152.292008 
L 265.771583 153.618517 
L 266.37736 153.618517 
L 266.37736 155.416549 
L 266.983136 155.416549 
L 266.983136 156.463808 
L 267.588912 156.463808 
L 267.588912 156.905835 
L 268.194688 156.905835 
L 268.194688 157.734047 
L 268.800465 157.734047 
L 268.800465 156.151971 
L 269.406241 156.151971 
L 269.406241 156.021115 
L 270.012017 156.021115 
L 270.012017 156.907866 
L 270.617794 156.907866 
L 270.617794 158.872889 
L 271.22357 158.872889 
L 271.22357 160.650811 
L 271.829346 160.650811 
L 271.829346 162.409829 
L 272.435123 162.409829 
L 272.435123 163.781878 
L 273.040899 163.781878 
L 273.040899 160.433698 
L 273.646675 160.433698 
L 273.646675 158.139137 
L 274.252452 158.139137 
L 274.252452 158.344636 
L 274.858228 158.344636 
L 274.858228 159.471958 
L 276.069781 159.474251 
L 276.069781 158.355508 
L 276.675557 158.355508 
L 276.675557 157.988987 
L 277.281333 157.988987 
L 277.281333 156.443934 
L 277.88711 156.443934 
L 277.88711 156.693712 
L 278.492886 156.693712 
L 278.492886 156.372543 
L 279.098662 156.372543 
L 279.098662 157.130371 
L 279.704439 157.130371 
L 279.704439 156.356711 
L 280.310215 156.356711 
L 280.310215 158.121922 
L 280.915991 158.121922 
L 280.915991 157.861132 
L 281.521768 157.861132 
L 281.521768 155.619973 
L 282.127544 155.619973 
L 282.127544 155.887197 
L 282.73332 155.887197 
L 282.73332 154.271368 
L 283.339097 154.271368 
L 283.339097 153.032527 
L 283.944873 153.032527 
L 283.944873 152.163507 
L 284.550649 152.163507 
L 284.550649 153.409327 
L 285.156425 153.409327 
L 285.156425 154.189094 
L 285.762202 154.189094 
L 285.762202 152.747192 
L 286.367978 152.747192 
L 286.367978 153.166449 
L 286.973754 153.166449 
L 286.973754 150.743199 
L 287.579531 150.743199 
L 287.579531 153.338913 
L 288.791083 153.405887 
L 288.791083 153.064658 
L 289.39686 153.064658 
L 289.39686 152.668982 
L 290.002636 152.668982 
L 290.002636 156.91599 
L 290.608412 156.91599 
L 290.608412 153.656775 
L 291.214189 153.656775 
L 291.214189 153.154548 
L 291.819965 153.154548 
L 291.819965 152.602647 
L 292.425741 152.602647 
L 292.425741 151.355389 
L 293.031518 151.355389 
L 293.031518 150.029225 
L 293.637294 150.029225 
L 293.637294 144.60766 
L 294.24307 144.60766 
L 294.24307 142.703606 
L 294.848847 142.703606 
L 294.848847 145.364631 
L 295.454623 145.364631 
L 295.454623 141.466746 
L 296.060399 141.466746 
L 296.060399 142.776226 
L 296.666176 142.776226 
L 296.666176 140.146486 
L 297.271952 140.146486 
L 297.271952 135.177746 
L 297.877728 135.177746 
L 297.877728 132.654209 
L 298.483505 132.654209 
L 298.483505 128.840139 
L 299.089281 128.840139 
L 299.089281 126.589775 
L 299.695057 126.589775 
L 299.695057 121.864979 
L 300.300834 121.864979 
L 300.300834 113.97733 
L 300.90661 113.97733 
L 300.90661 113.464571 
L 301.512386 113.464571 
L 301.512386 108.842256 
L 302.118163 108.842256 
L 302.118163 110.108754 
L 302.723939 110.108754 
L 302.723939 106.430906 
L 303.329715 106.430906 
L 303.329715 116.48468 
L 303.935491 116.48468 
L 303.935491 109.590538 
L 304.541268 109.590538 
L 304.541268 111.714879 
L 305.147044 111.714879 
L 305.147044 116.965587 
L 305.75282 116.965587 
L 305.75282 117.109776 
L 306.358597 117.109776 
L 306.358597 119.42364 
L 306.964373 119.42364 
L 306.964373 117.303988 
L 307.570149 117.303988 
L 307.570149 116.214761 
L 308.175926 116.214761 
L 308.175926 115.719048 
L 308.781702 115.719048 
L 308.781702 113.651086 
L 309.387478 113.651086 
L 309.387478 110.995712 
L 309.993255 110.995712 
L 309.993255 113.163202 
L 310.599031 113.163202 
L 310.599031 112.714571 
L 311.810584 112.76988 
L 311.810584 113.55177 
L 312.41636 113.55177 
L 312.41636 113.201534 
L 313.022136 113.201534 
L 313.022136 114.378629 
L 313.627913 114.378629 
L 313.627913 115.275032 
L 314.233689 115.275032 
L 314.233689 113.845066 
L 314.839465 113.845066 
L 314.839465 113.47027 
L 315.445242 113.47027 
L 315.445242 114.352141 
L 316.051018 114.352141 
L 316.051018 117.248759 
L 316.656794 117.248759 
L 316.656794 117.426129 
L 317.262571 117.426129 
L 317.262571 117.576973 
L 317.868347 117.576973 
L 317.868347 118.886066 
L 318.474123 118.886066 
L 318.474123 121.256764 
L 319.0799 121.256764 
L 319.0799 119.52902 
L 319.685676 119.52902 
L 319.685676 120.440536 
L 320.291452 120.440536 
L 320.291452 121.08956 
L 320.897228 121.08956 
L 320.897228 117.483078 
L 321.503005 117.483078 
L 321.503005 118.818195 
L 322.714557 118.907174 
L 322.714557 118.519234 
L 323.320334 118.519234 
L 323.320334 118.718292 
L 323.92611 118.718292 
L 323.92611 119.523842 
L 324.531886 119.523842 
L 324.531886 121.256389 
L 325.137663 121.256389 
L 325.137663 120.419638 
L 325.743439 120.419638 
L 325.743439 123.777141 
L 326.349215 123.777141 
L 326.349215 125.6347 
L 326.954992 125.6347 
L 326.954992 126.043033 
L 327.560768 126.043033 
L 327.560768 125.611196 
L 328.166544 125.611196 
L 328.166544 126.364696 
L 328.772321 126.364696 
L 328.772321 127.269819 
L 329.378097 127.269819 
L 329.378097 122.811499 
L 329.983873 122.811499 
L 329.983873 124.528906 
L 330.58965 124.528906 
L 330.58965 123.828719 
L 331.195426 123.828719 
L 331.195426 123.669739 
L 331.801202 123.669739 
L 331.801202 126.514641 
L 332.406979 126.514641 
L 332.406979 125.887989 
L 333.012755 125.887989 
L 333.012755 126.457028 
L 333.618531 126.457028 
L 333.618531 127.039872 
L 334.224308 127.039872 
L 334.224308 126.029873 
L 334.830084 126.029873 
L 334.830084 126.339888 
L 335.43586 126.339888 
L 335.43586 126.146245 
L 336.647413 126.129244 
L 336.647413 124.016221 
L 337.253189 124.016221 
L 337.253189 122.614371 
L 337.858965 122.614371 
L 337.858965 120.896394 
L 338.464742 120.896394 
L 338.464742 119.178083 
L 339.070518 119.178083 
L 339.070518 117.839511 
L 340.282071 117.856088 
L 340.282071 117.995919 
L 340.887847 117.995919 
L 340.887847 119.053836 
L 341.493623 119.053836 
L 341.493623 120.911871 
L 342.0994 120.911871 
L 342.0994 119.634582 
L 342.705176 119.634582 
L 342.705176 120.144501 
L 343.310952 120.144501 
L 343.310952 120.331232 
L 343.916729 120.331232 
L 343.916729 120.726163 
L 344.522505 120.726163 
L 344.522505 119.914355 
L 345.128281 119.914355 
L 345.128281 118.209526 
L 345.734058 118.209526 
L 345.734058 118.851268 
L 346.339834 118.851268 
L 346.339834 119.053836 
L 346.94561 119.053836 
L 346.94561 118.751208 
L 347.551387 118.751208 
L 347.551387 119.181139 
L 348.157163 119.181139 
L 348.157163 119.025838 
L 349.368716 118.985424 
L 349.368716 119.207644 
L 349.974492 119.207644 
L 349.974492 120.058654 
L 350.580268 120.058654 
L 350.580268 120.430085 
L 351.186045 120.430085 
L 351.186045 120.063611 
L 351.791821 120.063611 
L 351.791821 120.322269 
L 352.397597 120.322269 
L 352.397597 120.447387 
L 353.003374 120.447387 
L 353.003374 120.242124 
L 353.60915 120.242124 
L 353.60915 121.750362 
L 354.214926 121.750362 
L 354.214926 122.776033 
L 354.820702 122.776033 
L 354.820702 124.186453 
L 355.426479 124.186453 
L 355.426479 123.108439 
L 356.032255 123.108439 
L 356.032255 123.694961 
L 356.638031 123.694961 
L 356.638031 123.483195 
L 357.243808 123.483195 
L 357.243808 124.671159 
L 357.849584 124.671159 
L 357.849584 124.864558 
L 358.45536 124.864558 
L 358.45536 124.639465 
L 359.061137 124.639465 
L 359.061137 124.915748 
L 360.272689 124.859223 
L 360.272689 125.028358 
L 360.878466 125.028358 
L 360.878466 127.160976 
L 361.484242 127.160976 
L 361.484242 128.407127 
L 362.090018 128.407127 
L 362.090018 127.254378 
L 362.695795 127.254378 
L 362.695795 128.447132 
L 363.301571 128.447132 
L 363.301571 128.992061 
L 363.907347 128.992061 
L 363.907347 130.754934 
L 364.513124 130.754934 
L 364.513124 132.679308 
L 365.1189 132.679308 
L 365.1189 130.479883 
L 365.724676 130.479883 
L 365.724676 129.505408 
L 366.330453 129.505408 
L 366.330453 128.7416 
L 366.936229 128.7416 
L 366.936229 128.947772 
L 367.542005 128.947772 
L 367.542005 129.225294 
L 368.147782 129.225294 
L 368.147782 130.779047 
L 368.753558 130.779047 
L 368.753558 131.23049 
L 369.359334 131.23049 
L 369.359334 131.569876 
L 369.965111 131.569876 
L 369.965111 132.889632 
L 370.570887 132.889632 
L 370.570887 131.981364 
L 371.176663 131.981364 
L 371.176663 131.469918 
L 371.78244 131.469918 
L 371.78244 130.146033 
L 372.388216 130.146033 
L 372.388216 128.514682 
L 372.993992 128.514682 
L 372.993992 129.063008 
L 373.599768 129.063008 
L 373.599768 130.898254 
L 374.205545 130.898254 
L 374.205545 130.277216 
L 375.417097 130.292161 
L 375.417097 129.79603 
L 376.022874 129.79603 
L 376.022874 129.57088 
L 376.62865 129.57088 
L 376.62865 129.773014 
L 377.234426 129.773014 
L 377.234426 130.515885 
L 377.840203 130.515885 
L 377.840203 131.346842 
L 378.445979 131.346842 
L 378.445979 130.81969 
L 379.051755 130.81969 
L 379.051755 133.08697 
L 379.657532 133.08697 
L 379.657532 132.42902 
L 380.263308 132.42902 
L 380.263308 132.086286 
L 380.869084 132.086286 
L 380.869084 132.529802 
L 381.474861 132.529802 
L 381.474861 133.614779 
L 382.686413 133.52008 
L 382.686413 137.299829 
L 383.29219 137.299829 
L 383.29219 134.678447 
L 383.897966 134.678447 
L 383.897966 136.297939 
L 384.503742 136.297939 
L 384.503742 140.888738 
L 385.109519 140.888738 
L 385.109519 142.249735 
L 385.715295 142.249735 
L 385.715295 141.46577 
L 386.321071 141.46577 
L 386.321071 139.822388 
L 386.926848 139.822388 
L 386.926848 138.021457 
L 387.532624 138.021457 
L 387.532624 139.580755 
L 388.1384 139.580755 
L 388.1384 141.151694 
L 388.744177 141.151694 
L 388.744177 140.369677 
L 389.349953 140.369677 
L 389.349953 140.854556 
L 389.955729 140.854556 
L 389.955729 141.086367 
L 390.561505 141.086367 
L 390.561505 140.857402 
L 391.167282 140.857402 
L 391.167282 139.761945 
L 391.773058 139.761945 
L 391.773058 139.470295 
L 392.378834 139.470295 
L 392.378834 138.773804 
L 392.984611 138.773804 
L 392.984611 139.249337 
L 393.590387 139.249337 
L 393.590387 138.205579 
L 394.196163 138.205579 
L 394.196163 136.305585 
L 394.80194 136.305585 
L 394.80194 136.517707 
L 395.407716 136.517707 
L 395.407716 136.372219 
L 396.013492 136.372219 
L 396.013492 134.779927 
L 396.619269 134.779927 
L 396.619269 135.826995 
L 397.225045 135.826995 
L 397.225045 135.657237 
L 397.830821 135.657237 
L 397.830821 137.385776 
L 398.436598 137.385776 
L 398.436598 137.074977 
L 399.042374 137.074977 
L 399.042374 138.447958 
L 399.64815 138.447958 
L 399.64815 139.039373 
L 400.253927 139.039373 
L 400.253927 138.681168 
L 400.859703 138.681168 
L 400.859703 138.075444 
L 402.071256 138.056325 
L 402.071256 139.598625 
L 402.677032 139.598625 
L 402.677032 140.792978 
L 403.282808 140.792978 
L 403.282808 140.372459 
L 403.888585 140.372459 
L 403.888585 140.830851 
L 404.494361 140.830851 
L 404.494361 139.815162 
L 405.100137 139.815162 
L 405.100137 140.484961 
L 406.31169 140.586822 
L 406.31169 140.053116 
L 406.917466 140.053116 
L 406.917466 139.398451 
L 408.734795 139.322439 
L 408.734795 139.601307 
L 409.946348 139.542384 
L 409.946348 140.013878 
L 410.552124 140.013878 
L 410.552124 139.349807 
L 411.1579 139.349807 
L 411.1579 139.635307 
L 412.369453 139.55933 
L 412.369453 140.294709 
L 412.975229 140.294709 
L 412.975229 140.568095 
L 414.186782 140.606504 
L 414.186782 140.244879 
L 415.398335 140.17862 
L 415.398335 139.598625 
L 416.004111 139.598625 
L 416.004111 138.530223 
L 416.609887 138.530223 
L 416.609887 138.934303 
L 417.215664 138.934303 
L 417.215664 139.22649 
L 417.82144 139.22649 
L 417.82144 138.281024 
L 418.427216 138.281024 
L 418.427216 137.359231 
L 419.032993 137.359231 
L 419.032993 137.872672 
L 419.638769 137.872672 
L 419.638769 136.874482 
L 420.850322 136.837591 
L 420.850322 133.8075 
L 421.456098 133.8075 
L 421.456098 135.569914 
L 422.061874 135.569914 
L 422.061874 136.23916 
L 423.273427 136.237635 
L 423.273427 135.324686 
L 423.879203 135.324686 
L 423.879203 134.967848 
L 424.484979 134.967848 
L 424.484979 135.364872 
L 425.090756 135.364872 
L 425.090756 135.82251 
L 426.302308 135.916893 
L 426.302308 137.37612 
L 426.908085 137.37612 
L 426.908085 136.682881 
L 427.513861 136.682881 
L 427.513861 137.079736 
L 428.119637 137.079736 
L 428.119637 137.82824 
L 428.725414 137.82824 
L 428.725414 139.660394 
L 429.33119 139.660394 
L 429.33119 140.313195 
L 429.936966 140.313195 
L 429.936966 140.601816 
L 430.542743 140.601816 
L 430.542743 140.175864 
L 431.148519 140.175864 
L 431.148519 140.328921 
L 431.754295 140.328921 
L 431.754295 140.075049 
L 432.360072 140.075049 
L 432.360072 139.20279 
L 432.965848 139.20279 
L 432.965848 139.348923 
L 433.571624 139.348923 
L 433.571624 140.141899 
L 434.177401 140.141899 
L 434.177401 140.295633 
L 434.783177 140.295633 
L 434.783177 140.118981 
L 435.99473 140.103411 
L 435.99473 139.668464 
L 436.600506 139.668464 
L 436.600506 139.319792 
L 438.417835 139.385173 
L 438.417835 138.981129 
L 439.023611 138.981129 
L 439.023611 138.747172 
L 439.629388 138.747172 
L 439.629388 138.38457 
L 440.235164 138.38457 
L 440.235164 137.372902 
L 441.446716 137.266188 
L 441.446716 136.422142 
L 442.052493 136.422142 
L 442.052493 135.782189 
L 442.658269 135.782189 
L 442.658269 134.202457 
L 443.264045 134.202457 
L 443.264045 133.832649 
L 443.869822 133.832649 
L 443.869822 128.231686 
L 444.475598 128.231686 
L 444.475598 129.903019 
L 445.081374 129.903019 
L 445.081374 129.515382 
L 445.687151 129.515382 
L 445.687151 131.84599 
L 446.292927 131.84599 
L 446.292927 133.243137 
L 446.898703 133.243137 
L 446.898703 132.29328 
L 447.50448 132.29328 
L 447.50448 132.763186 
L 448.110256 132.763186 
L 448.110256 133.198871 
L 448.716032 133.198871 
L 448.716032 130.807902 
L 449.321809 130.807902 
L 449.321809 129.701879 
L 449.927585 129.701879 
L 449.927585 130.604408 
L 450.533361 130.604408 
L 450.533361 129.148352 
L 451.139138 129.148352 
L 451.139138 127.615457 
L 451.744914 127.615457 
L 451.744914 126.640012 
L 452.35069 126.640012 
L 452.35069 125.337533 
L 453.562243 125.382139 
L 453.562243 126.536287 
L 454.168019 126.536287 
L 454.168019 125.70352 
L 454.773796 125.70352 
L 454.773796 127.31721 
L 455.379572 127.31721 
L 455.379572 127.029031 
L 455.985348 127.029031 
L 455.985348 126.807041 
L 457.196901 126.823134 
L 457.196901 125.85954 
L 457.802677 125.85954 
L 457.802677 126.077852 
L 458.408454 126.077852 
L 458.408454 126.964104 
L 459.01423 126.964104 
L 459.01423 129.540893 
L 459.620006 129.540893 
L 459.620006 127.420841 
L 460.225782 127.420841 
L 460.225782 129.269074 
L 460.831559 129.269074 
L 460.831559 128.912192 
L 461.437335 128.912192 
L 461.437335 129.651055 
L 462.043111 129.651055 
L 462.043111 129.999208 
L 462.648888 129.999208 
L 462.648888 129.110258 
L 463.254664 129.110258 
L 463.254664 129.829195 
L 463.86044 129.829195 
L 463.86044 129.597571 
L 464.466217 129.597571 
L 464.466217 129.008287 
L 465.071993 129.008287 
L 465.071993 128.101704 
L 465.677769 128.101704 
L 465.677769 127.439419 
L 466.283546 127.439419 
L 466.283546 126.612946 
L 466.889322 126.612946 
L 466.889322 127.265335 
L 467.495098 127.265335 
L 467.495098 126.849494 
L 468.100875 126.849494 
L 468.100875 127.313215 
L 468.706651 127.313215 
L 468.706651 128.51151 
L 469.312427 128.51151 
L 469.312427 127.836439 
L 469.918204 127.836439 
L 469.918204 127.43289 
L 470.52398 127.43289 
L 470.52398 127.691572 
L 471.129756 127.691572 
L 471.129756 127.514396 
L 471.735533 127.514396 
L 471.735533 127.85385 
L 472.341309 127.85385 
L 472.341309 127.54113 
L 475.975967 127.440926 
L 475.975967 127.400776 
L 476.581743 127.400776 
L 476.581743 127.24492 
L 477.187519 127.24492 
L 477.187519 126.913579 
L 477.793296 126.913579 
L 477.793296 126.652107 
L 478.399072 126.652107 
L 478.399072 126.091042 
L 479.004848 126.091042 
L 479.004848 125.404933 
L 479.610625 125.404933 
L 479.610625 125.983879 
L 480.216401 125.983879 
L 480.216401 125.842768 
L 480.822177 125.842768 
L 480.822177 126.131605 
L 481.427954 126.131605 
L 481.427954 125.564266 
L 482.03373 125.564266 
L 482.03373 125.946407 
L 482.639506 125.946407 
L 482.639506 125.711849 
L 483.851059 125.79625 
L 483.851059 126.647268 
L 484.456835 126.647268 
L 484.456835 126.530513 
L 485.062612 126.530513 
L 485.062612 126.043973 
L 485.668388 126.043973 
L 485.668388 122.665183 
L 486.274164 122.665183 
L 486.274164 122.452749 
L 486.879941 122.452749 
L 486.879941 121.074695 
L 487.485717 121.074695 
L 487.485717 120.494317 
L 488.091493 120.494317 
L 488.091493 120.836804 
L 488.69727 120.836804 
L 488.69727 117.717178 
L 489.303046 117.717178 
L 489.303046 116.847293 
L 489.908822 116.847293 
L 489.908822 115.151511 
L 490.514599 115.151511 
L 490.514599 117.761263 
L 491.726151 117.744125 
L 491.726151 118.165466 
L 492.331928 118.165466 
L 492.331928 117.650749 
L 492.937704 117.650749 
L 492.937704 118.000414 
L 493.54348 118.000414 
L 493.54348 117.468044 
L 494.149256 117.468044 
L 494.149256 118.309651 
L 494.755033 118.309651 
L 494.755033 117.759993 
L 495.966585 117.801623 
L 495.966585 117.477439 
L 496.572362 117.477439 
L 496.572362 117.775873 
L 497.783914 117.856088 
L 497.783914 118.051854 
L 498.995467 118.074077 
L 498.995467 122.501583 
L 499.601243 122.501583 
L 499.601243 120.895657 
L 500.20702 120.895657 
L 500.20702 120.208225 
L 500.812796 120.208225 
L 500.812796 120.411717 
L 501.418572 120.411717 
L 501.418572 121.094765 
L 502.024349 121.094765 
L 502.024349 120.962064 
L 502.630125 120.962064 
L 502.630125 120.719587 
L 503.235901 120.719587 
L 503.235901 120.557296 
L 503.841678 120.557296 
L 503.841678 120.710457 
L 504.447454 120.710457 
L 504.447454 120.940643 
L 505.659007 120.959108 
L 505.659007 119.775577 
L 506.264783 119.775577 
L 506.264783 119.381772 
L 506.870559 119.381772 
L 506.870559 119.166202 
L 507.476336 119.166202 
L 507.476336 119.60615 
L 509.293665 119.611695 
L 509.293665 120.123184 
L 509.899441 120.123184 
L 509.899441 119.949897 
L 510.505217 119.949897 
L 510.505217 119.77907 
L 511.110993 119.77907 
L 511.110993 119.462493 
L 511.71677 119.462493 
L 511.71677 119.663053 
L 512.322546 119.663053 
L 512.322546 119.402009 
L 513.534099 119.40098 
L 513.534099 118.750542 
L 514.139875 118.750542 
L 514.139875 118.586478 
L 514.745651 118.586478 
L 514.745651 118.961213 
L 515.351428 118.961213 
L 515.351428 118.120206 
L 516.56298 118.178416 
L 516.56298 117.091007 
L 517.168757 117.091007 
L 517.168757 116.752346 
L 517.774533 116.752346 
L 517.774533 117.159396 
L 518.380309 117.159396 
L 518.380309 116.363992 
L 518.986086 116.363992 
L 518.986086 116.023846 
L 519.591862 116.023846 
L 519.591862 116.593442 
L 520.197638 116.593442 
L 520.197638 116.311463 
L 520.803415 116.311463 
L 520.803415 115.23528 
L 521.409191 115.23528 
L 521.409191 115.576299 
L 522.620744 115.614405 
L 522.620744 115.854647 
L 523.22652 115.854647 
L 523.22652 115.431381 
L 523.832296 115.431381 
L 523.832296 114.844868 
L 525.043849 114.955203 
L 525.043849 114.676601 
L 525.649625 114.676601 
L 525.649625 114.433603 
L 526.861178 114.490896 
L 526.861178 114.145974 
L 527.466954 114.145974 
L 527.466954 112.942494 
L 528.072731 112.942494 
L 528.072731 111.534489 
L 528.678507 111.534489 
L 528.678507 110.660872 
L 529.284283 110.660872 
L 529.284283 110.040166 
L 529.890059 110.040166 
L 529.890059 108.856407 
L 530.495836 108.856407 
L 530.495836 109.145017 
L 531.101612 109.145017 
L 531.101612 111.115853 
L 531.707388 111.115853 
L 531.707388 114.354302 
L 532.313165 114.354302 
L 532.313165 113.335731 
L 532.918941 113.335731 
L 532.918941 111.206177 
L 533.524717 111.206177 
L 533.524717 111.462763 
L 534.130494 111.462763 
L 534.130494 110.897338 
L 534.73627 110.897338 
L 534.73627 111.010462 
L 535.947823 111.076501 
L 535.947823 109.490336 
L 536.553599 109.490336 
L 536.553599 108.430864 
L 537.159375 108.430864 
L 537.159375 108.051373 
L 537.765152 108.051373 
L 537.765152 109.188535 
L 538.976704 109.112332 
L 538.976704 108.407824 
L 539.582481 108.407824 
L 539.582481 108.090883 
L 540.188257 108.090883 
L 540.188257 106.559144 
L 540.794033 106.559144 
L 540.794033 106.18243 
L 541.39981 106.18243 
L 541.39981 105.452143 
L 542.005586 105.452143 
L 542.005586 103.81482 
L 542.611362 103.81482 
L 542.611362 103.938117 
L 543.217139 103.938117 
L 543.217139 105.430897 
L 543.822915 105.430897 
L 543.822915 104.810292 
L 544.428691 104.810292 
L 544.428691 104.31239 
L 545.034468 104.31239 
L 545.034468 109.830498 
L 545.640244 109.830498 
L 545.640244 106.879115 
L 546.24602 106.879115 
L 546.24602 110.715591 
L 546.851796 110.715591 
L 546.851796 108.289147 
L 547.457573 108.289147 
L 547.457573 108.4172 
L 548.063349 108.4172 
L 548.063349 107.514258 
L 548.669125 107.514258 
L 548.669125 106.493532 
L 549.274902 106.493532 
L 549.274902 105.574016 
L 549.880678 105.574016 
L 549.880678 104.958418 
L 550.486454 104.958418 
L 550.486454 105.818993 
L 551.092231 105.818993 
L 551.092231 105.700181 
L 551.698007 105.700181 
L 551.698007 104.657057 
L 552.90956 104.585359 
L 552.90956 103.798108 
L 553.515336 103.798108 
L 553.515336 103.073969 
L 554.121112 103.073969 
L 554.121112 101.334807 
L 554.726889 101.334807 
L 554.726889 100.32188 
L 555.332665 100.32188 
L 555.332665 98.559223 
L 555.938441 98.559223 
L 555.938441 96.400521 
L 556.544218 96.400521 
L 556.544218 96.973403 
L 557.75577 96.926286 
L 557.75577 94.421969 
L 558.361547 94.421969 
L 558.361547 91.971085 
L 558.967323 91.971085 
L 558.967323 91.752502 
L 560.178876 91.658328 
L 560.178876 90.581649 
L 560.784652 90.581649 
L 560.784652 89.559848 
L 561.390428 89.559848 
L 561.390428 88.317015 
L 561.996205 88.317015 
L 561.996205 86.686475 
L 562.601981 86.686475 
L 562.601981 88.137176 
L 563.207757 88.137176 
L 563.207757 89.994551 
L 563.813533 89.994551 
L 563.813533 88.980174 
L 564.41931 88.980174 
L 564.41931 88.078943 
L 565.025086 88.078943 
L 565.025086 89.790451 
L 565.630862 89.790451 
L 565.630862 89.321264 
L 566.236639 89.321264 
L 566.236639 90.482701 
L 566.842415 90.482701 
L 566.842415 88.989182 
L 567.448191 88.989182 
L 567.448191 89.783454 
L 568.053968 89.783454 
L 568.053968 91.319569 
L 569.26552 91.216476 
L 569.26552 95.475749 
L 569.871297 95.475749 
L 569.871297 91.888129 
L 570.477073 91.888129 
L 570.477073 87.225464 
L 571.082849 87.225464 
L 571.082849 89.271845 
L 571.688626 89.271845 
L 571.688626 87.531626 
L 572.294402 87.531626 
L 572.294402 86.948131 
L 572.900178 86.948131 
L 572.900178 87.492271 
L 573.505955 87.492271 
L 573.505955 84.53268 
L 574.111731 84.53268 
L 574.111731 83.694718 
L 574.717507 83.694718 
L 574.717507 80.59746 
L 575.323284 80.59746 
L 575.323284 78.963954 
L 575.92906 78.963954 
L 575.92906 79.347247 
L 576.534836 79.347247 
L 576.534836 79.964866 
L 577.140613 79.964866 
L 577.140613 78.211415 
L 578.352165 78.17599 
L 578.352165 77.024284 
L 579.563718 77.010247 
L 579.563718 77.953665 
L 580.169494 77.953665 
L 580.169494 78.306644 
L 580.77527 78.306644 
L 580.77527 78.870189 
L 581.381047 78.870189 
L 581.381047 84.491779 
L 581.986823 84.491779 
L 581.986823 81.659829 
L 582.592599 81.659829 
L 582.592599 80.456367 
L 583.198376 80.456367 
L 583.198376 81.099077 
L 583.804152 81.099077 
L 583.804152 80.529513 
L 584.409928 80.529513 
L 584.409928 79.04334 
L 585.015705 79.04334 
L 585.015705 77.910171 
L 585.621481 77.910171 
L 585.621481 78.275749 
L 586.227257 78.275749 
L 586.227257 76.918025 
L 586.833034 76.918025 
L 586.833034 75.948916 
L 587.43881 75.948916 
L 587.43881 71.959561 
L 588.044586 71.959561 
L 588.044586 72.814294 
L 588.650363 72.814294 
L 588.650363 71.386426 
L 589.256139 71.386426 
L 589.256139 71.691149 
L 590.467692 71.729689 
L 590.467692 70.864174 
L 591.073468 70.864174 
L 591.073468 68.847759 
L 591.679244 68.847759 
L 591.679244 67.011613 
L 592.285021 67.011613 
L 592.285021 67.70257 
L 592.890797 67.70257 
L 592.890797 69.426647 
L 593.496573 69.426647 
L 593.496573 69.670799 
L 594.10235 69.670799 
L 594.10235 65.618681 
L 594.708126 65.618681 
L 594.708126 65.139052 
L 595.313902 65.139052 
L 595.313902 64.654585 
L 595.919679 64.654585 
L 595.919679 63.334023 
L 596.525455 63.334023 
L 596.525455 60.733897 
L 597.131231 60.733897 
L 597.131231 58.783297 
L 597.737008 58.783297 
L 597.737008 57.447231 
L 598.342784 57.447231 
L 598.342784 49.541546 
L 598.94856 49.541546 
L 598.94856 51.911888 
L 599.554336 51.911888 
L 599.554336 50.317058 
L 600.160113 50.317058 
L 600.160113 46.713271 
L 600.765889 46.713271 
L 600.765889 48.898264 
L 601.371665 48.898264 
L 601.371665 53.803441 
L 602.583218 53.858133 
L 602.583218 53.144067 
L 603.188994 53.144067 
L 603.188994 53.77377 
L 603.794771 53.77377 
L 603.794771 51.953522 
L 604.400547 51.953522 
L 604.400547 49.175554 
L 605.006323 49.175554 
L 605.006323 52.815068 
L 605.6121 52.815068 
L 605.6121 53.781126 
L 606.217876 53.781126 
L 606.217876 54.146887 
L 606.823652 54.146887 
L 606.823652 58.219025 
L 607.429429 58.219025 
L 607.429429 57.589304 
L 608.035205 57.589304 
L 608.035205 57.812907 
L 609.246758 57.740182 
L 609.246758 60.388954 
L 609.852534 60.388954 
L 609.852534 63.133064 
L 610.45831 63.133064 
L 610.45831 68.312581 
L 611.064087 68.312581 
L 611.064087 64.633184 
L 611.669863 64.633184 
L 611.669863 65.091147 
L 612.275639 65.091147 
L 612.275639 61.707478 
L 612.881416 61.707478 
L 612.881416 58.387694 
L 613.487192 58.387694 
L 613.487192 58.085114 
L 614.092968 58.085114 
L 614.092968 60.20401 
L 614.698745 60.20401 
L 614.698745 59.898932 
L 615.304521 59.898932 
L 615.304521 58.684176 
L 615.910297 58.684176 
L 615.910297 57.583057 
L 616.516073 57.583057 
L 616.516073 60.730792 
L 617.12185 60.730792 
L 617.12185 63.313415 
L 617.727626 63.313415 
L 617.727626 62.428146 
L 618.333402 62.428146 
L 618.333402 64.498494 
L 618.939179 64.498494 
L 618.939179 63.730251 
L 619.544955 63.730251 
L 619.544955 63.438767 
L 620.150731 63.438767 
L 620.150731 64.095419 
L 620.756508 64.095419 
L 620.756508 65.400403 
L 621.362284 65.400403 
L 621.362284 68.275755 
L 621.96806 68.275755 
L 621.96806 66.839079 
L 622.573837 66.839079 
L 622.573837 69.217473 
L 623.179613 69.217473 
L 623.179613 68.746676 
L 623.785389 68.746676 
L 623.785389 65.424695 
L 624.391166 65.424695 
L 624.391166 64.320748 
L 624.996942 64.320748 
L 624.996942 64.810781 
L 625.602718 64.810781 
L 625.602718 62.948312 
L 626.208495 62.948312 
L 626.208495 61.296193 
L 626.814271 61.296193 
L 626.814271 62.953155 
L 627.420047 62.953155 
L 627.420047 62.230846 
L 628.025824 62.230846 
L 628.025824 61.089181 
L 628.6316 61.089181 
L 628.6316 61.354528 
L 629.237376 61.354528 
L 629.237376 62.069764 
L 629.843153 62.069764 
L 629.843153 64.081555 
L 631.054705 64.06277 
L 631.054705 64.648541 
L 631.660482 64.648541 
L 631.660482 64.248946 
L 632.266258 64.248946 
L 632.266258 66.416393 
L 632.872034 66.416393 
L 632.872034 67.073077 
L 633.47781 67.073077 
L 633.47781 66.952326 
L 634.083587 66.952326 
L 634.083587 66.248999 
L 635.900916 66.308749 
L 635.900916 68.453631 
L 636.506692 68.453631 
L 636.506692 69.208795 
L 637.112468 69.208795 
L 637.112468 69.826794 
L 637.718245 69.826794 
L 637.718245 68.820126 
L 638.324021 68.820126 
L 638.324021 70.747714 
L 638.929797 70.747714 
L 638.929797 70.998779 
L 639.535574 70.998779 
L 639.535574 70.567898 
L 640.14135 70.567898 
L 640.14135 69.24369 
L 640.747126 69.24369 
L 640.747126 69.47072 
L 641.352903 69.47072 
L 641.352903 68.935236 
L 641.958679 68.935236 
L 641.958679 69.966712 
L 642.564455 69.966712 
L 642.564455 70.481431 
L 643.170232 70.481431 
L 643.170232 67.139072 
L 644.381784 67.100583 
L 644.381784 66.034742 
L 644.987561 66.034742 
L 644.987561 65.429079 
L 645.593337 65.429079 
L 645.593337 64.695116 
L 646.199113 64.695116 
L 646.199113 66.330478 
L 646.80489 66.330478 
L 646.80489 68.052767 
L 647.410666 68.052767 
L 647.410666 68.953472 
L 648.016442 68.953472 
L 648.016442 70.855684 
L 648.622219 70.855684 
L 648.622219 70.470327 
L 649.227995 70.470327 
L 649.227995 70.266767 
L 649.833771 70.266767 
L 649.833771 69.693715 
L 650.439547 69.693715 
L 650.439547 70.127474 
L 651.045324 70.127474 
L 651.045324 68.890638 
L 651.6511 68.890638 
L 651.6511 67.852399 
L 652.256876 67.852399 
L 652.256876 68.030213 
L 652.862653 68.030213 
L 652.862653 67.302614 
L 653.468429 67.302614 
L 653.468429 69.646253 
L 654.074205 69.646253 
L 654.074205 70.507983 
L 654.679982 70.507983 
L 654.679982 70.222402 
L 655.285758 70.222402 
L 655.285758 69.577573 
L 655.891534 69.577573 
L 655.891534 70.167948 
L 656.497311 70.167948 
L 656.497311 68.834827 
L 657.103087 68.834827 
L 657.103087 69.380999 
L 657.708863 69.380999 
L 657.708863 69.054669 
L 658.31464 69.054669 
L 658.31464 69.292838 
L 658.920416 69.292838 
L 658.920416 69.702986 
L 659.526192 69.702986 
L 659.526192 69.412522 
L 660.131969 69.412522 
L 660.131969 69.242385 
L 660.737745 69.242385 
L 660.737745 70.487643 
L 661.343521 70.487643 
L 661.343521 69.330686 
L 661.949298 69.330686 
L 661.949298 69.618949 
L 663.766627 69.683343 
L 663.766627 69.789451 
L 664.372403 69.789451 
L 664.372403 70.304028 
L 664.978179 70.304028 
L 664.978179 70.008793 
L 665.583956 70.008793 
L 665.583956 69.853091 
L 667.401285 69.949093 
L 667.401285 72.211709 
L 668.007061 72.211709 
L 668.007061 72.898247 
L 668.612837 72.898247 
L 668.612837 77.445264 
L 669.218613 77.445264 
L 669.218613 78.108373 
L 669.82439 78.108373 
L 669.82439 81.011416 
L 670.430166 81.011416 
L 670.430166 78.47112 
L 671.035942 78.47112 
L 671.035942 79.163593 
L 671.641719 79.163593 
L 671.641719 81.282146 
L 672.247495 81.282146 
L 672.247495 82.990536 
L 672.853271 82.990536 
L 672.853271 83.275758 
L 673.459048 83.275758 
L 673.459048 84.322 
L 674.064824 84.322 
L 674.064824 82.371292 
L 674.6706 82.371292 
L 674.6706 79.191175 
L 675.276377 79.191175 
L 675.276377 79.917871 
L 675.882153 79.917871 
L 675.882153 80.708507 
L 676.487929 80.708507 
L 676.487929 81.139659 
L 677.093706 81.139659 
L 677.093706 80.666502 
L 678.305258 80.662454 
L 678.305258 79.722978 
L 678.911035 79.722978 
L 678.911035 81.845768 
L 679.516811 81.845768 
L 679.516811 82.517597 
L 680.122587 82.517597 
L 680.122587 81.989859 
L 680.728364 81.989859 
L 680.728364 81.514378 
L 681.33414 81.514378 
L 681.33414 82.189326 
L 682.545693 82.24562 
L 682.545693 83.021589 
L 684.363022 82.976125 
L 684.363022 83.285543 
L 684.968798 83.285543 
L 684.968798 81.741134 
L 685.574574 81.741134 
L 685.574574 81.925936 
L 686.18035 81.925936 
L 686.18035 82.067069 
L 686.786127 82.067069 
L 686.786127 80.368148 
L 687.391903 80.368148 
L 687.391903 80.185107 
L 687.997679 80.185107 
L 687.997679 81.159083 
L 688.603456 81.159083 
L 688.603456 80.790788 
L 689.815008 80.800642 
L 689.815008 80.577129 
L 692.238114 80.506641 
L 692.238114 79.919191 
L 692.84389 79.919191 
L 692.84389 79.597007 
L 693.449666 79.597007 
L 693.449666 79.82961 
L 694.055443 79.82961 
L 694.055443 80.169818 
L 694.661219 80.169818 
L 694.661219 79.291608 
L 695.266995 79.291608 
L 695.266995 79.102898 
L 695.872772 79.102898 
L 695.872772 75.562809 
L 696.478548 75.562809 
L 696.478548 74.400637 
L 697.084324 74.400637 
L 697.084324 73.915227 
L 697.690101 73.915227 
L 697.690101 74.914051 
L 698.295877 74.914051 
L 698.295877 74.371144 
L 698.901653 74.371144 
L 698.901653 74.047296 
L 699.50743 74.047296 
L 699.50743 73.650679 
L 700.113206 73.650679 
L 700.113206 74.375366 
L 700.718982 74.375366 
L 700.718982 73.950574 
L 701.930535 73.849818 
L 701.930535 72.159334 
L 703.142087 72.215557 
L 703.142087 70.14923 
L 703.747864 70.14923 
L 703.747864 65.741451 
L 704.35364 65.741451 
L 704.35364 65.572645 
L 704.959416 65.572645 
L 704.959416 64.765057 
L 705.565193 64.765057 
L 705.565193 66.279987 
L 706.170969 66.279987 
L 706.170969 65.082181 
L 706.776745 65.082181 
L 706.776745 63.452044 
L 707.382522 63.452044 
L 707.382522 63.857692 
L 707.988298 63.857692 
L 707.988298 64.916941 
L 708.594074 64.916941 
L 708.594074 65.795128 
L 709.199851 65.795128 
L 709.199851 66.239416 
L 709.805627 66.239416 
L 709.805627 64.818265 
L 710.411403 64.818265 
L 710.411403 63.117009 
L 711.01718 63.117009 
L 711.01718 62.607194 
L 711.622956 62.607194 
L 711.622956 60.125177 
L 712.228732 60.125177 
L 712.228732 58.518126 
L 712.834509 58.518126 
L 712.834509 58.298406 
L 713.440285 58.298406 
L 713.440285 59.060741 
L 714.046061 59.060741 
L 714.046061 56.742879 
L 714.651838 56.742879 
L 714.651838 58.11128 
L 715.257614 58.11128 
L 715.257614 55.708939 
L 715.86339 55.708939 
L 715.86339 57.063537 
L 716.469167 57.063537 
L 716.469167 58.795671 
L 717.074943 58.795671 
L 717.074943 59.256481 
L 718.286496 59.358155 
L 718.286496 61.048514 
L 718.892272 61.048514 
L 718.892272 61.702244 
L 719.498048 61.702244 
L 719.498048 61.447405 
L 720.103824 61.447405 
L 720.103824 59.47376 
L 720.709601 59.47376 
L 720.709601 57.092116 
L 721.315377 57.092116 
L 721.315377 56.722383 
L 721.921153 56.722383 
L 721.921153 57.491649 
L 722.52693 57.491649 
L 722.52693 60.526575 
L 723.132706 60.526575 
L 723.132706 60.114559 
L 723.738482 60.114559 
L 723.738482 59.015935 
L 724.344259 59.015935 
L 724.344259 59.723142 
L 725.555811 59.815649 
L 725.555811 61.678743 
L 726.161588 61.678743 
L 726.161588 61.053652 
L 726.767364 61.053652 
L 726.767364 59.364632 
L 727.37314 59.364632 
L 727.37314 59.55876 
L 727.978917 59.55876 
L 727.978917 60.350261 
L 728.584693 60.350261 
L 728.584693 59.808279 
L 729.190469 59.808279 
L 729.190469 60.009265 
L 730.402022 59.988211 
L 730.402022 60.492717 
L 731.007798 60.492717 
L 731.007798 64.159693 
L 731.613575 64.159693 
L 731.613575 64.684623 
L 732.219351 64.684623 
L 732.219351 64.434955 
L 732.825127 64.434955 
L 732.825127 64.86369 
L 733.430904 64.86369 
L 733.430904 64.717942 
L 734.03668 64.717942 
L 734.03668 63.776241 
L 734.642456 63.776241 
L 734.642456 64.534448 
L 735.248233 64.534448 
L 735.248233 65.26314 
L 735.854009 65.26314 
L 735.854009 65.375396 
L 736.459785 65.375396 
L 736.459785 65.199309 
L 737.065561 65.199309 
L 737.065561 63.580877 
L 737.671338 63.580877 
L 737.671338 62.278368 
L 738.277114 62.278368 
L 738.277114 62.440964 
L 738.88289 62.440964 
L 738.88289 62.307221 
L 739.488667 62.307221 
L 739.488667 61.995191 
L 740.094443 61.995191 
L 740.094443 63.236549 
L 741.305996 63.255452 
L 741.305996 64.096092 
L 741.911772 64.096092 
L 741.911772 64.810703 
L 742.517548 64.810703 
L 742.517548 66.304511 
L 743.123325 66.304511 
L 743.123325 68.367666 
L 743.729101 68.367666 
L 743.729101 66.564339 
L 744.940654 66.469528 
L 744.940654 67.210794 
L 745.54643 67.210794 
L 745.54643 66.498941 
L 746.152206 66.498941 
L 746.152206 67.093596 
L 746.757983 67.093596 
L 746.757983 67.524227 
L 747.363759 67.524227 
L 747.363759 67.754422 
L 747.969535 67.754422 
L 747.969535 67.246907 
L 748.575312 67.246907 
L 748.575312 67.659526 
L 749.181088 67.659526 
L 749.181088 67.344441 
L 750.998417 67.435092 
L 750.998417 68.255178 
L 751.604193 68.255178 
L 751.604193 67.052952 
L 752.20997 67.052952 
L 752.20997 65.157588 
L 753.421522 65.213165 
L 753.421522 63.157647 
L 754.027299 63.157647 
L 754.027299 63.019914 
L 754.633075 63.019914 
L 754.633075 63.67925 
L 755.238851 63.67925 
L 755.238851 64.270363 
L 755.844627 64.270363 
L 755.844627 63.772507 
L 756.450404 63.772507 
L 756.450404 62.139123 
L 757.05618 62.139123 
L 757.05618 61.916876 
L 757.661956 61.916876 
L 757.661956 62.408335 
L 758.267733 62.408335 
L 758.267733 60.972295 
L 759.479285 60.870905 
L 759.479285 60.056995 
L 760.085062 60.056995 
L 760.085062 60.694227 
L 760.690838 60.694227 
L 760.690838 61.413135 
L 761.296614 61.413135 
L 761.296614 61.271045 
L 761.902391 61.271045 
L 761.902391 62.072529 
L 762.508167 62.072529 
L 762.508167 63.470269 
L 763.113943 63.470269 
L 763.113943 62.990354 
L 763.71972 62.990354 
L 763.71972 62.627635 
L 764.325496 62.627635 
L 764.325496 65.166167 
L 764.931272 65.166167 
L 764.931272 65.437476 
L 765.537049 65.437476 
L 765.537049 74.494876 
L 766.142825 74.494876 
L 766.142825 73.727636 
L 766.748601 73.727636 
L 766.748601 70.557189 
L 767.354378 70.557189 
L 767.354378 69.643106 
L 767.960154 69.643106 
L 767.960154 68.811016 
L 768.56593 68.811016 
L 768.56593 71.745491 
L 769.171707 71.745491 
L 769.171707 69.159714 
L 769.777483 69.159714 
L 769.777483 68.477012 
L 770.383259 68.477012 
L 770.383259 67.476187 
L 770.989036 67.476187 
L 770.989036 68.472254 
L 772.200588 68.520128 
L 772.200588 67.75107 
L 774.017917 67.695616 
L 774.017917 66.49243 
L 774.623693 66.49243 
L 774.623693 65.89784 
L 775.22947 65.89784 
L 775.22947 63.200061 
L 775.835246 63.200061 
L 775.835246 63.054097 
L 776.441022 63.054097 
L 776.441022 60.557093 
L 777.046799 60.557093 
L 777.046799 63.36855 
L 777.652575 63.36855 
L 777.652575 62.079827 
L 778.258351 62.079827 
L 778.258351 61.899764 
L 778.864128 61.899764 
L 778.864128 61.019239 
L 779.469904 61.019239 
L 779.469904 62.396549 
L 780.07568 62.396549 
L 780.07568 63.021526 
L 780.681457 63.021526 
L 780.681457 61.491274 
L 781.287233 61.491274 
L 781.287233 61.753856 
L 781.893009 61.753856 
L 781.893009 61.296345 
L 783.104562 61.269299 
L 783.104562 61.042081 
L 783.710338 61.042081 
L 783.710338 61.733486 
L 784.921891 61.80781 
L 784.921891 61.912512 
L 785.527667 61.912512 
L 785.527667 62.127828 
L 786.73922 62.146467 
L 786.73922 62.775095 
L 787.344996 62.775095 
L 787.344996 62.473297 
L 787.950773 62.473297 
L 787.950773 62.615935 
L 788.556549 62.615935 
L 788.556549 61.982618 
L 789.162325 61.982618 
L 789.162325 62.234294 
L 789.768101 62.234294 
L 789.768101 62.102577 
L 790.373878 62.102577 
L 790.373878 62.336228 
L 791.58543 62.379412 
L 791.58543 61.884126 
L 792.191207 61.884126 
L 792.191207 61.530839 
L 792.796983 61.530839 
L 792.796983 58.470502 
L 793.402759 58.470502 
L 793.402759 58.33239 
L 794.614312 58.403038 
L 794.614312 57.15971 
L 795.825865 57.128637 
L 795.825865 57.812166 
L 796.431641 57.812166 
L 796.431641 57.116486 
L 797.037417 57.116486 
L 797.037417 56.205929 
L 797.643194 56.205929 
L 797.643194 56.953288 
L 798.24897 56.953288 
L 798.24897 57.335054 
L 798.854746 57.335054 
L 798.854746 57.67385 
L 800.066299 57.647615 
L 800.066299 56.85143 
L 800.672075 56.85143 
L 800.672075 59.59766 
L 801.277852 59.59766 
L 801.277852 59.800464 
L 803.095181 59.875824 
L 803.095181 58.650796 
L 803.700957 58.650796 
L 803.700957 58.396069 
L 804.306733 58.396069 
L 804.306733 59.468412 
L 804.91251 59.468412 
L 804.91251 59.149119 
L 806.124062 59.150125 
L 806.124062 59.294827 
L 807.941391 59.192647 
L 807.941391 57.979038 
L 808.547167 57.979038 
L 808.547167 57.745959 
L 809.152944 57.745959 
L 809.152944 57.932614 
L 809.75872 57.932614 
L 809.75872 57.145568 
L 810.364496 57.145568 
L 810.364496 55.043318 
L 811.576049 54.967905 
L 811.576049 54.563647 
L 812.181825 54.563647 
L 812.181825 53.751884 
L 812.787602 53.751884 
L 812.787602 53.429014 
L 813.393378 53.429014 
L 813.393378 51.186958 
L 813.999154 51.186958 
L 813.999154 51.55158 
L 814.604931 51.55158 
L 814.604931 50.26098 
L 815.210707 50.26098 
L 815.210707 50.689156 
L 815.816483 50.689156 
L 815.816483 48.399932 
L 816.42226 48.399932 
L 816.42226 47.357816 
L 817.028036 47.357816 
L 817.028036 46.831095 
L 817.633812 46.831095 
L 817.633812 49.196567 
L 818.239589 49.196567 
L 818.239589 46.248119 
L 818.845365 46.248119 
L 818.845365 46.523041 
L 820.056918 46.606573 
L 820.056918 47.522717 
L 820.662694 47.522717 
L 820.662694 47.241162 
L 821.26847 47.241162 
L 821.26847 46.539085 
L 821.874247 46.539085 
L 821.874247 42.853427 
L 822.480023 42.853427 
L 822.480023 43.226034 
L 823.085799 43.226034 
L 823.085799 42.344988 
L 823.691576 42.344988 
L 823.691576 40.205737 
L 824.297352 40.205737 
L 824.297352 38.205781 
L 824.903128 38.205781 
L 824.903128 35.896043 
L 825.508904 35.896043 
L 825.508904 34.716634 
L 826.114681 34.716634 
L 826.114681 30.966513 
L 826.720457 30.966513 
L 826.720457 33.808123 
L 827.326233 33.808123 
L 827.326233 31.765632 
L 827.93201 31.765632 
L 827.93201 33.661405 
L 828.537786 33.661405 
L 828.537786 33.811661 
L 829.143562 33.811661 
L 829.143562 35.958857 
L 829.749339 35.958857 
L 829.749339 35.670317 
L 830.355115 35.670317 
L 830.355115 34.551478 
L 830.960891 34.551478 
L 830.960891 35.043695 
L 831.566668 35.043695 
L 831.566668 32.960558 
L 832.172444 32.960558 
L 832.172444 31.890107 
L 832.77822 31.890107 
L 832.77822 28.889516 
L 833.383997 28.889516 
L 833.383997 27.832004 
L 833.989773 27.832004 
L 833.989773 26.967021 
L 834.595549 26.967021 
L 834.595549 24.250339 
L 835.201326 24.250339 
L 835.201326 24.937918 
L 835.807102 24.937918 
L 835.807102 28.004736 
L 836.412878 28.004736 
L 836.412878 28.778986 
L 837.018655 28.778986 
L 837.018655 26.409046 
L 837.624431 26.409046 
L 837.624431 27.086877 
L 838.230207 27.086877 
L 838.230207 24.644472 
L 838.835984 24.644472 
L 838.835984 23.751937 
L 839.44176 23.751937 
L 839.44176 24.311463 
L 840.047536 24.311463 
L 840.047536 23.600445 
L 841.259089 23.69384 
L 841.259089 25.577057 
L 841.864865 25.577057 
L 841.864865 24.270182 
L 842.470641 24.270182 
L 842.470641 23.214666 
L 843.682194 23.106754 
L 843.682194 23.098615 
L 844.28797 23.098615 
L 844.28797 23.460908 
L 844.893747 23.460908 
L 844.893747 22.775742 
L 845.499523 22.775742 
L 845.499523 21.744453 
L 846.105299 21.744453 
L 846.105299 22.732788 
L 846.711076 22.732788 
L 846.711076 24.028385 
L 847.316852 24.028385 
L 847.316852 26.128638 
L 847.922628 26.128638 
L 847.922628 24.963955 
L 848.528405 24.963955 
L 848.528405 25.149159 
L 849.134181 25.149159 
L 849.134181 23.990135 
L 849.739957 23.990135 
L 849.739957 23.671048 
L 850.345734 23.671048 
L 850.345734 23.14342 
L 850.95151 23.14342 
L 850.95151 23.9382 
L 851.557286 23.9382 
L 851.557286 26.642356 
L 852.163063 26.642356 
L 852.163063 29.50089 
L 852.768839 29.50089 
L 852.768839 30.907427 
L 853.374615 30.907427 
L 853.374615 34.282521 
L 853.980392 34.282521 
L 853.980392 31.70776 
L 854.586168 31.70776 
L 854.586168 34.347491 
L 855.191944 34.347491 
L 855.191944 33.154982 
L 855.797721 33.154982 
L 855.797721 33.027129 
L 856.403497 33.027129 
L 856.403497 35.048749 
L 857.009273 35.048749 
L 857.009273 33.130869 
L 857.61505 33.130869 
L 857.61505 31.815065 
L 858.220826 31.815065 
L 858.220826 32.219569 
L 858.826602 32.219569 
L 858.826602 33.820454 
L 859.432378 33.820454 
L 859.432378 35.731479 
L 860.038155 35.731479 
L 860.038155 36.262796 
L 860.643931 36.262796 
L 860.643931 34.464108 
L 861.249707 34.464108 
L 861.249707 35.034899 
L 861.855484 35.034899 
L 861.855484 33.948442 
L 862.46126 33.948442 
L 862.46126 34.84568 
L 863.067036 34.84568 
L 863.067036 35.048308 
L 863.672813 35.048308 
L 863.672813 35.576681 
L 864.278589 35.576681 
L 864.278589 36.409541 
L 864.884365 36.409541 
L 864.884365 36.819907 
L 865.490142 36.819907 
L 865.490142 35.829033 
L 866.095918 35.829033 
L 866.095918 33.91507 
L 866.701694 33.91507 
L 866.701694 31.31574 
L 867.307471 31.31574 
L 867.307471 30.459746 
L 867.913247 30.459746 
L 867.913247 32.322684 
L 868.519023 32.322684 
L 868.519023 29.876961 
L 869.1248 29.876961 
L 869.1248 28.216282 
L 869.730576 28.216282 
L 869.730576 29.10705 
L 870.336352 29.10705 
L 870.336352 27.889659 
L 870.942129 27.889659 
L 870.942129 28.936722 
L 871.547905 28.936722 
L 871.547905 27.065124 
L 872.153681 27.065124 
L 872.153681 27.583378 
L 872.759458 27.583378 
L 872.759458 27.011371 
L 873.365234 27.011371 
L 873.365234 27.881429 
L 873.97101 27.881429 
L 873.97101 26.894661 
L 874.576787 26.894661 
L 874.576787 25.87614 
L 875.182563 25.87614 
L 875.182563 28.332743 
L 875.788339 28.332743 
L 875.788339 28.764556 
L 876.394115 28.764556 
L 876.394115 27.882617 
L 877.605668 27.796977 
L 877.605668 29.839749 
L 878.211444 29.839749 
L 878.211444 28.884445 
L 878.817221 28.884445 
L 878.817221 29.701989 
L 879.422997 29.701989 
L 879.422997 30.529074 
L 880.028773 30.529074 
L 880.028773 27.591103 
L 880.63455 27.591103 
L 880.63455 25.98368 
L 881.240326 25.98368 
L 881.240326 25.037976 
L 881.846102 25.037976 
L 881.846102 23.678838 
L 883.057655 23.698775 
L 883.057655 22.226627 
L 883.663431 22.226627 
L 883.663431 20.732418 
L 884.269208 20.732418 
L 884.269208 22.319009 
L 884.874984 22.319009 
L 884.874984 22.642373 
L 885.48076 22.642373 
L 885.48076 21.987038 
L 886.086537 21.987038 
L 886.086537 22.404485 
L 886.692313 22.404485 
L 886.692313 22.231639 
L 887.194182 22.231639 
L 887.194182 22.231639 
" style="fill:none;stroke:#3572c6;stroke-linecap:square;stroke-width:1.2;"/>
   </g>
   <g id="line2d_74">
    <path clip-path="url(#pe3185b11ce)" d="M 75.557818 20.732418 
L 887.194182 20.732418 
L 887.194182 20.732418 
" style="fill:none;stroke:#83a83b;stroke-linecap:square;stroke-width:1.2;"/>
   </g>
   <g id="line2d_75">
    <path clip-path="url(#pe3185b11ce)" d="M 75.557818 22.642373 
L 887.194182 22.642373 
L 887.194182 22.642373 
" style="fill:none;stroke:#c44e52;stroke-linecap:square;stroke-width:1.2;"/>
   </g>
   <g id="line2d_76">
    <path clip-path="url(#pe3185b11ce)" d="M 884.269208 301.139691 
L 884.269208 7.379691 
" style="fill:none;stroke:#83a83b;stroke-linecap:square;stroke-width:1.2;"/>
   </g>
   <g id="line2d_77">
    <path clip-path="url(#pe3185b11ce)" d="M 885.48076 301.139691 
L 885.48076 7.379691 
" style="fill:none;stroke:#c44e52;stroke-linecap:square;stroke-width:1.2;"/>
   </g>
   <g id="patch_3">
    <path d="M 34.976 301.139691 
L 34.976 7.379691 
" style="fill:none;stroke:#899ab8;stroke-linecap:square;stroke-linejoin:miter;stroke-width:1.12;"/>
   </g>
   <g id="patch_4">
    <path d="M 927.776 301.139691 
L 927.776 7.379691 
" style="fill:none;stroke:#899ab8;stroke-linecap:square;stroke-linejoin:miter;stroke-width:1.12;"/>
   </g>
   <g id="patch_5">
    <path d="M 34.976 301.139691 
L 927.776 301.139691 
" style="fill:none;stroke:#899ab8;stroke-linecap:square;stroke-linejoin:miter;stroke-width:1.12;"/>
   </g>
   <g id="patch_6">
    <path d="M 34.976 7.379691 
L 927.776 7.379691 
" style="fill:none;stroke:#899ab8;stroke-linecap:square;stroke-linejoin:miter;stroke-width:1.12;"/>
   </g>
   <g id="text_14">
    <!-- 66063.56 -->
    <g style="fill:#83a83b;" transform="translate(222.761464 20.732418)scale(0.132 -0.132)">
     <defs>
      <path d="M 684 794 
L 1344 794 
L 1344 0 
L 684 0 
L 684 794 
z
" id="DejaVuSans-2e" transform="scale(0.015625)"/>
     </defs>
     <use xlink:href="#DejaVuSans-36"/>
     <use x="63.623047" xlink:href="#DejaVuSans-36"/>
     <use x="127.246094" xlink:href="#DejaVuSans-30"/>
     <use x="190.869141" xlink:href="#DejaVuSans-36"/>
     <use x="254.492188" xlink:href="#DejaVuSans-33"/>
     <use x="318.115234" xlink:href="#DejaVuSans-2e"/>
     <use x="349.902344" xlink:href="#DejaVuSans-35"/>
     <use x="413.525391" xlink:href="#DejaVuSans-36"/>
    </g>
   </g>
   <g id="text_15">
    <!-- 60345.17 -->
    <g style="fill:#c44e52;" transform="translate(222.761464 22.642373)scale(0.132 -0.132)">
     <defs>
      <path d="M 525 4666 
L 3525 4666 
L 3525 4397 
L 1831 0 
L 1172 0 
L 2766 4134 
L 525 4134 
L 525 4666 
z
" id="DejaVuSans-37" transform="scale(0.015625)"/>
     </defs>
     <use xlink:href="#DejaVuSans-36"/>
     <use x="63.623047" xlink:href="#DejaVuSans-30"/>
     <use x="127.246094" xlink:href="#DejaVuSans-33"/>
     <use x="190.869141" xlink:href="#DejaVuSans-34"/>
     <use x="254.492188" xlink:href="#DejaVuSans-35"/>
     <use x="318.115234" xlink:href="#DejaVuSans-2e"/>
     <use x="349.902344" xlink:href="#DejaVuSans-31"/>
     <use x="413.525391" xlink:href="#DejaVuSans-37"/>
    </g>
   </g>
   <g id="legend_1">
    <g id="patch_7">
     <path d="M 432.207453 294.839691 
L 530.544547 294.839691 
Q 533.064547 294.839691 533.064547 292.319691 
L 533.064547 237.745941 
Q 533.064547 235.225941 530.544547 235.225941 
L 432.207453 235.225941 
Q 429.687453 235.225941 429.687453 237.745941 
L 429.687453 292.319691 
Q 429.687453 294.839691 432.207453 294.839691 
z
" style="fill:#373e4b;opacity:0.8;stroke:#cccccc;stroke-linejoin:miter;stroke-width:0.16;"/>
    </g>
    <g id="line2d_78">
     <path d="M 434.727453 245.429972 
L 459.927453 245.429972 
" style="fill:none;stroke:#3572c6;stroke-linecap:square;stroke-width:1.2;"/>
    </g>
    <g id="line2d_79"/>
    <g id="text_16">
     <!-- USD/BTC -->
     <g style="fill:#b1bed6;" transform="translate(470.007453 249.839972)scale(0.126 -0.126)">
      <defs>
       <path d="M 556 4666 
L 1191 4666 
L 1191 1831 
Q 1191 1081 1462 751 
Q 1734 422 2344 422 
Q 2950 422 3222 751 
Q 3494 1081 3494 1831 
L 3494 4666 
L 4128 4666 
L 4128 1753 
Q 4128 841 3676 375 
Q 3225 -91 2344 -91 
Q 1459 -91 1007 375 
Q 556 841 556 1753 
L 556 4666 
z
" id="DejaVuSans-55" transform="scale(0.015625)"/>
       <path d="M 3425 4513 
L 3425 3897 
Q 3066 4069 2747 4153 
Q 2428 4238 2131 4238 
Q 1616 4238 1336 4038 
Q 1056 3838 1056 3469 
Q 1056 3159 1242 3001 
Q 1428 2844 1947 2747 
L 2328 2669 
Q 3034 2534 3370 2195 
Q 3706 1856 3706 1288 
Q 3706 609 3251 259 
Q 2797 -91 1919 -91 
Q 1588 -91 1214 -16 
Q 841 59 441 206 
L 441 856 
Q 825 641 1194 531 
Q 1563 422 1919 422 
Q 2459 422 2753 634 
Q 3047 847 3047 1241 
Q 3047 1584 2836 1778 
Q 2625 1972 2144 2069 
L 1759 2144 
Q 1053 2284 737 2584 
Q 422 2884 422 3419 
Q 422 4038 858 4394 
Q 1294 4750 2059 4750 
Q 2388 4750 2728 4690 
Q 3069 4631 3425 4513 
z
" id="DejaVuSans-53" transform="scale(0.015625)"/>
       <path d="M 1625 4666 
L 2156 4666 
L 531 -594 
L 0 -594 
L 1625 4666 
z
" id="DejaVuSans-2f" transform="scale(0.015625)"/>
       <path d="M 1259 2228 
L 1259 519 
L 2272 519 
Q 2781 519 3026 730 
Q 3272 941 3272 1375 
Q 3272 1813 3026 2020 
Q 2781 2228 2272 2228 
L 1259 2228 
z
M 1259 4147 
L 1259 2741 
L 2194 2741 
Q 2656 2741 2882 2914 
Q 3109 3088 3109 3444 
Q 3109 3797 2882 3972 
Q 2656 4147 2194 4147 
L 1259 4147 
z
M 628 4666 
L 2241 4666 
Q 2963 4666 3353 4366 
Q 3744 4066 3744 3513 
Q 3744 3084 3544 2831 
Q 3344 2578 2956 2516 
Q 3422 2416 3680 2098 
Q 3938 1781 3938 1306 
Q 3938 681 3513 340 
Q 3088 0 2303 0 
L 628 0 
L 628 4666 
z
" id="DejaVuSans-42" transform="scale(0.015625)"/>
       <path d="M -19 4666 
L 3928 4666 
L 3928 4134 
L 2272 4134 
L 2272 0 
L 1638 0 
L 1638 4134 
L -19 4134 
L -19 4666 
z
" id="DejaVuSans-54" transform="scale(0.015625)"/>
       <path d="M 4122 4306 
L 4122 3641 
Q 3803 3938 3442 4084 
Q 3081 4231 2675 4231 
Q 1875 4231 1450 3742 
Q 1025 3253 1025 2328 
Q 1025 1406 1450 917 
Q 1875 428 2675 428 
Q 3081 428 3442 575 
Q 3803 722 4122 1019 
L 4122 359 
Q 3791 134 3420 21 
Q 3050 -91 2638 -91 
Q 1578 -91 968 557 
Q 359 1206 359 2328 
Q 359 3453 968 4101 
Q 1578 4750 2638 4750 
Q 3056 4750 3426 4639 
Q 3797 4528 4122 4306 
z
" id="DejaVuSans-43" transform="scale(0.015625)"/>
      </defs>
      <use xlink:href="#DejaVuSans-55"/>
      <use x="73.193359" xlink:href="#DejaVuSans-53"/>
      <use x="136.669922" xlink:href="#DejaVuSans-44"/>
      <use x="213.671875" xlink:href="#DejaVuSans-2f"/>
      <use x="247.363281" xlink:href="#DejaVuSans-42"/>
      <use x="315.966797" xlink:href="#DejaVuSans-54"/>
      <use x="371.175781" xlink:href="#DejaVuSans-43"/>
     </g>
    </g>
    <g id="line2d_80">
     <path d="M 434.727453 263.92441 
L 459.927453 263.92441 
" style="fill:none;stroke:#83a83b;stroke-linecap:square;stroke-width:1.2;"/>
    </g>
    <g id="line2d_81"/>
    <g id="text_17">
     <!-- Max -->
     <g style="fill:#b1bed6;" transform="translate(470.007453 268.33441)scale(0.126 -0.126)">
      <defs>
       <path d="M 628 4666 
L 1569 4666 
L 2759 1491 
L 3956 4666 
L 4897 4666 
L 4897 0 
L 4281 0 
L 4281 4097 
L 3078 897 
L 2444 897 
L 1241 4097 
L 1241 0 
L 628 0 
L 628 4666 
z
" id="DejaVuSans-4d" transform="scale(0.015625)"/>
       <path d="M 3513 3500 
L 2247 1797 
L 3578 0 
L 2900 0 
L 1881 1375 
L 863 0 
L 184 0 
L 1544 1831 
L 300 3500 
L 978 3500 
L 1906 2253 
L 2834 3500 
L 3513 3500 
z
" id="DejaVuSans-78" transform="scale(0.015625)"/>
      </defs>
      <use xlink:href="#DejaVuSans-4d"/>
      <use x="86.279297" xlink:href="#DejaVuSans-61"/>
      <use x="147.558594" xlink:href="#DejaVuSans-78"/>
     </g>
    </g>
    <g id="line2d_82">
     <path d="M 434.727453 282.418847 
L 459.927453 282.418847 
" style="fill:none;stroke:#c44e52;stroke-linecap:square;stroke-width:1.2;"/>
    </g>
    <g id="line2d_83"/>
    <g id="text_18">
     <!-- local_Min -->
     <g style="fill:#b1bed6;" transform="translate(470.007453 286.828847)scale(0.126 -0.126)">
      <defs>
       <path d="M 603 4863 
L 1178 4863 
L 1178 0 
L 603 0 
L 603 4863 
z
" id="DejaVuSans-6c" transform="scale(0.015625)"/>
       <path d="M 1959 3097 
Q 1497 3097 1228 2736 
Q 959 2375 959 1747 
Q 959 1119 1226 758 
Q 1494 397 1959 397 
Q 2419 397 2687 759 
Q 2956 1122 2956 1747 
Q 2956 2369 2687 2733 
Q 2419 3097 1959 3097 
z
M 1959 3584 
Q 2709 3584 3137 3096 
Q 3566 2609 3566 1747 
Q 3566 888 3137 398 
Q 2709 -91 1959 -91 
Q 1206 -91 779 398 
Q 353 888 353 1747 
Q 353 2609 779 3096 
Q 1206 3584 1959 3584 
z
" id="DejaVuSans-6f" transform="scale(0.015625)"/>
       <path d="M 3122 3366 
L 3122 2828 
Q 2878 2963 2633 3030 
Q 2388 3097 2138 3097 
Q 1578 3097 1268 2742 
Q 959 2388 959 1747 
Q 959 1106 1268 751 
Q 1578 397 2138 397 
Q 2388 397 2633 464 
Q 2878 531 3122 666 
L 3122 134 
Q 2881 22 2623 -34 
Q 2366 -91 2075 -91 
Q 1284 -91 818 406 
Q 353 903 353 1747 
Q 353 2603 823 3093 
Q 1294 3584 2113 3584 
Q 2378 3584 2631 3529 
Q 2884 3475 3122 3366 
z
" id="DejaVuSans-63" transform="scale(0.015625)"/>
       <path d="M 3263 -1063 
L 3263 -1509 
L -63 -1509 
L -63 -1063 
L 3263 -1063 
z
" id="DejaVuSans-5f" transform="scale(0.015625)"/>
       <path d="M 603 3500 
L 1178 3500 
L 1178 0 
L 603 0 
L 603 3500 
z
M 603 4863 
L 1178 4863 
L 1178 4134 
L 603 4134 
L 603 4863 
z
" id="DejaVuSans-69" transform="scale(0.015625)"/>
       <path d="M 3513 2113 
L 3513 0 
L 2938 0 
L 2938 2094 
Q 2938 2591 2744 2837 
Q 2550 3084 2163 3084 
Q 1697 3084 1428 2787 
Q 1159 2491 1159 1978 
L 1159 0 
L 581 0 
L 581 3500 
L 1159 3500 
L 1159 2956 
Q 1366 3272 1645 3428 
Q 1925 3584 2291 3584 
Q 2894 3584 3203 3211 
Q 3513 2838 3513 2113 
z
" id="DejaVuSans-6e" transform="scale(0.015625)"/>
      </defs>
      <use xlink:href="#DejaVuSans-6c"/>
      <use x="27.783203" xlink:href="#DejaVuSans-6f"/>
      <use x="88.964844" xlink:href="#DejaVuSans-63"/>
      <use x="143.945312" xlink:href="#DejaVuSans-61"/>
      <use x="205.224609" xlink:href="#DejaVuSans-6c"/>
      <use x="233.007812" xlink:href="#DejaVuSans-5f"/>
      <use x="283.007812" xlink:href="#DejaVuSans-4d"/>
      <use x="369.287109" xlink:href="#DejaVuSans-69"/>
      <use x="397.070312" xlink:href="#DejaVuSans-6e"/>
     </g>
    </g>
   </g>
  </g>
 </g>
 <defs>
  <clipPath id="pe3185b11ce">
   <rect height="293.76" width="892.8" x="34.976" y="7.379691"/>
  </clipPath>
 </defs>
</svg>
