<?xml version="1.0" encoding="utf-8" standalone="no"?>
<!DOCTYPE svg PUBLIC "-//W3C//DTD SVG 1.1//EN"
  "http://www.w3.org/Graphics/SVG/1.1/DTD/svg11.dtd">
<svg xmlns:xlink="http://www.w3.org/1999/xlink" width="934.976pt" height="358.290693pt" viewBox="0 0 934.976 358.290693" xmlns="http://www.w3.org/2000/svg" version="1.1">
 <metadata>
  <rdf:RDF xmlns:dc="http://purl.org/dc/elements/1.1/" xmlns:cc="http://creativecommons.org/ns#" xmlns:rdf="http://www.w3.org/1999/02/22-rdf-syntax-ns#">
   <cc:Work>
    <dc:type rdf:resource="http://purl.org/dc/dcmitype/StillImage"/>
    <dc:date>2026-02-28T11:47:54.444426</dc:date>
    <dc:format>image/svg+xml</dc:format>
    <dc:creator>
     <cc:Agent>
      <dc:title>Matplotlib v3.10.8, https://matplotlib.org/</dc:title>
     </cc:Agent>
    </dc:creator>
   </cc:Work>
  </rdf:RDF>
 </metadata>
 <defs>
  <style type="text/css">*{stroke-linejoin: round; stroke-linecap: butt}</style>
 </defs>
 <g id="figure_1">
  <g id="patch_1">
   <path d="M 0 358.290693 
L 934.976 358.290693 
L 934.976 0 
L 0 0 
z
" style="fill: #373e4b"/>
  </g>
  <g id="axes_1">
   <g id="patch_2">
    <path d="M 34.976 300.96 
L 927.776 300.96 
L 927.776 7.2 
L 34.976 7.2 
z
" style="fill: #373e4b"/>
   </g>
   <g id="matplotlib.axis_1">
    <g id="xtick_1">
     <g id="line2d_1">
      <path d="M 137.182824 300.96 
L 137.182824 7.2 
" clip-path="url(#pd67d725c0b)" style="fill: none; stroke: #546379; stroke-width: 1.12; stroke-linecap: square"/>
     </g>
     <g id="line2d_2"/>
     <g id="text_1">
      <!-- 2012 -->
      <g style="fill: #b1bed6" transform="translate(108.101785 330.884854) rotate(-30) scale(0.126 -0.126)">
       <defs>
        <path id="DejaVuSans-32" d="M 1228 531 
L 3431 531 
L 3431 0 
L 469 0 
L 469 531 
Q 828 903 1448 1529 
Q 2069 2156 2228 2338 
Q 2531 2678 2651 2914 
Q 2772 3150 2772 3378 
Q 2772 3750 2511 3984 
Q 2250 4219 1831 4219 
Q 1534 4219 1204 4116 
Q 875 4013 500 3803 
L 500 4441 
Q 881 4594 1212 4672 
Q 1544 4750 1819 4750 
Q 2544 4750 2975 4387 
Q 3406 4025 3406 3419 
Q 3406 3131 3298 2873 
Q 3191 2616 2906 2266 
Q 2828 2175 2409 1742 
Q 1991 1309 1228 531 
z
" transform="scale(0.015625)"/>
        <path id="DejaVuSans-30" d="M 2034 4250 
Q 1547 4250 1301 3770 
Q 1056 3291 1056 2328 
Q 1056 1369 1301 889 
Q 1547 409 2034 409 
Q 2525 409 2770 889 
Q 3016 1369 3016 2328 
Q 3016 3291 2770 3770 
Q 2525 4250 2034 4250 
z
M 2034 4750 
Q 2819 4750 3233 4129 
Q 3647 3509 3647 2328 
Q 3647 1150 3233 529 
Q 2819 -91 2034 -91 
Q 1250 -91 836 529 
Q 422 1150 422 2328 
Q 422 3509 836 4129 
Q 1250 4750 2034 4750 
z
" transform="scale(0.015625)"/>
        <path id="DejaVuSans-31" d="M 794 531 
L 1825 531 
L 1825 4091 
L 703 3866 
L 703 4441 
L 1819 4666 
L 2450 4666 
L 2450 531 
L 3481 531 
L 3481 0 
L 794 0 
L 794 531 
z
" transform="scale(0.015625)"/>
       </defs>
       <use xlink:href="#DejaVuSans-32"/>
       <use xlink:href="#DejaVuSans-30" transform="translate(63.623047 0)"/>
       <use xlink:href="#DejaVuSans-31" transform="translate(127.246094 0)"/>
       <use xlink:href="#DejaVuSans-32" transform="translate(190.869141 0)"/>
      </g>
     </g>
    </g>
    <g id="xtick_2">
     <g id="line2d_3">
      <path d="M 243.177835 300.96 
L 243.177835 7.2 
" clip-path="url(#pd67d725c0b)" style="fill: none; stroke: #546379; stroke-width: 1.12; stroke-linecap: square"/>
     </g>
     <g id="line2d_4"/>
     <g id="text_2">
      <!-- 2014 -->
      <g style="fill: #b1bed6" transform="translate(214.096795 330.884854) rotate(-30) scale(0.126 -0.126)">
       <defs>
        <path id="DejaVuSans-34" d="M 2419 4116 
L 825 1625 
L 2419 1625 
L 2419 4116 
z
M 2253 4666 
L 3047 4666 
L 3047 1625 
L 3713 1625 
L 3713 1100 
L 3047 1100 
L 3047 0 
L 2419 0 
L 2419 1100 
L 313 1100 
L 313 1709 
L 2253 4666 
z
" transform="scale(0.015625)"/>
       </defs>
       <use xlink:href="#DejaVuSans-32"/>
       <use xlink:href="#DejaVuSans-30" transform="translate(63.623047 0)"/>
       <use xlink:href="#DejaVuSans-31" transform="translate(127.246094 0)"/>
       <use xlink:href="#DejaVuSans-34" transform="translate(190.869141 0)"/>
      </g>
     </g>
    </g>
    <g id="xtick_3">
     <g id="line2d_5">
      <path d="M 349.027846 300.96 
L 349.027846 7.2 
" clip-path="url(#pd67d725c0b)" style="fill: none; stroke: #546379; stroke-width: 1.12; stroke-linecap: square"/>
     </g>
     <g id="line2d_6"/>
     <g id="text_3">
      <!-- 2016 -->
      <g style="fill: #b1bed6" transform="translate(319.946806 330.884854) rotate(-30) scale(0.126 -0.126)">
       <defs>
        <path id="DejaVuSans-36" d="M 2113 2584 
Q 1688 2584 1439 2293 
Q 1191 2003 1191 1497 
Q 1191 994 1439 701 
Q 1688 409 2113 409 
Q 2538 409 2786 701 
Q 3034 994 3034 1497 
Q 3034 2003 2786 2293 
Q 2538 2584 2113 2584 
z
M 3366 4563 
L 3366 3988 
Q 3128 4100 2886 4159 
Q 2644 4219 2406 4219 
Q 1781 4219 1451 3797 
Q 1122 3375 1075 2522 
Q 1259 2794 1537 2939 
Q 1816 3084 2150 3084 
Q 2853 3084 3261 2657 
Q 3669 2231 3669 1497 
Q 3669 778 3244 343 
Q 2819 -91 2113 -91 
Q 1303 -91 875 529 
Q 447 1150 447 2328 
Q 447 3434 972 4092 
Q 1497 4750 2381 4750 
Q 2619 4750 2861 4703 
Q 3103 4656 3366 4563 
z
" transform="scale(0.015625)"/>
       </defs>
       <use xlink:href="#DejaVuSans-32"/>
       <use xlink:href="#DejaVuSans-30" transform="translate(63.623047 0)"/>
       <use xlink:href="#DejaVuSans-31" transform="translate(127.246094 0)"/>
       <use xlink:href="#DejaVuSans-36" transform="translate(190.869141 0)"/>
      </g>
     </g>
    </g>
    <g id="xtick_4">
     <g id="line2d_7">
      <path d="M 455.022856 300.96 
L 455.022856 7.2 
" clip-path="url(#pd67d725c0b)" style="fill: none; stroke: #546379; stroke-width: 1.12; stroke-linecap: square"/>
     </g>
     <g id="line2d_8"/>
     <g id="text_4">
      <!-- 2018 -->
      <g style="fill: #b1bed6" transform="translate(425.941817 330.884854) rotate(-30) scale(0.126 -0.126)">
       <defs>
        <path id="DejaVuSans-38" d="M 2034 2216 
Q 1584 2216 1326 1975 
Q 1069 1734 1069 1313 
Q 1069 891 1326 650 
Q 1584 409 2034 409 
Q 2484 409 2743 651 
Q 3003 894 3003 1313 
Q 3003 1734 2745 1975 
Q 2488 2216 2034 2216 
z
M 1403 2484 
Q 997 2584 770 2862 
Q 544 3141 544 3541 
Q 544 4100 942 4425 
Q 1341 4750 2034 4750 
Q 2731 4750 3128 4425 
Q 3525 4100 3525 3541 
Q 3525 3141 3298 2862 
Q 3072 2584 2669 2484 
Q 3125 2378 3379 2068 
Q 3634 1759 3634 1313 
Q 3634 634 3220 271 
Q 2806 -91 2034 -91 
Q 1263 -91 848 271 
Q 434 634 434 1313 
Q 434 1759 690 2068 
Q 947 2378 1403 2484 
z
M 1172 3481 
Q 1172 3119 1398 2916 
Q 1625 2713 2034 2713 
Q 2441 2713 2670 2916 
Q 2900 3119 2900 3481 
Q 2900 3844 2670 4047 
Q 2441 4250 2034 4250 
Q 1625 4250 1398 4047 
Q 1172 3844 1172 3481 
z
" transform="scale(0.015625)"/>
       </defs>
       <use xlink:href="#DejaVuSans-32"/>
       <use xlink:href="#DejaVuSans-30" transform="translate(63.623047 0)"/>
       <use xlink:href="#DejaVuSans-31" transform="translate(127.246094 0)"/>
       <use xlink:href="#DejaVuSans-38" transform="translate(190.869141 0)"/>
      </g>
     </g>
    </g>
    <g id="xtick_5">
     <g id="line2d_9">
      <path d="M 560.872867 300.96 
L 560.872867 7.2 
" clip-path="url(#pd67d725c0b)" style="fill: none; stroke: #546379; stroke-width: 1.12; stroke-linecap: square"/>
     </g>
     <g id="line2d_10"/>
     <g id="text_5">
      <!-- 2020 -->
      <g style="fill: #b1bed6" transform="translate(531.791827 330.884854) rotate(-30) scale(0.126 -0.126)">
       <use xlink:href="#DejaVuSans-32"/>
       <use xlink:href="#DejaVuSans-30" transform="translate(63.623047 0)"/>
       <use xlink:href="#DejaVuSans-32" transform="translate(127.246094 0)"/>
       <use xlink:href="#DejaVuSans-30" transform="translate(190.869141 0)"/>
      </g>
     </g>
    </g>
    <g id="xtick_6">
     <g id="line2d_11">
      <path d="M 666.867878 300.96 
L 666.867878 7.2 
" clip-path="url(#pd67d725c0b)" style="fill: none; stroke: #546379; stroke-width: 1.12; stroke-linecap: square"/>
     </g>
     <g id="line2d_12"/>
     <g id="text_6">
      <!-- 2022 -->
      <g style="fill: #b1bed6" transform="translate(637.786838 330.884854) rotate(-30) scale(0.126 -0.126)">
       <use xlink:href="#DejaVuSans-32"/>
       <use xlink:href="#DejaVuSans-30" transform="translate(63.623047 0)"/>
       <use xlink:href="#DejaVuSans-32" transform="translate(127.246094 0)"/>
       <use xlink:href="#DejaVuSans-32" transform="translate(190.869141 0)"/>
      </g>
     </g>
    </g>
    <g id="xtick_7">
     <g id="line2d_13">
      <path d="M 772.717888 300.96 
L 772.717888 7.2 
" clip-path="url(#pd67d725c0b)" style="fill: none; stroke: #546379; stroke-width: 1.12; stroke-linecap: square"/>
     </g>
     <g id="line2d_14"/>
     <g id="text_7">
      <!-- 2024 -->
      <g style="fill: #b1bed6" transform="translate(743.636849 330.884854) rotate(-30) scale(0.126 -0.126)">
       <use xlink:href="#DejaVuSans-32"/>
       <use xlink:href="#DejaVuSans-30" transform="translate(63.623047 0)"/>
       <use xlink:href="#DejaVuSans-32" transform="translate(127.246094 0)"/>
       <use xlink:href="#DejaVuSans-34" transform="translate(190.869141 0)"/>
      </g>
     </g>
    </g>
    <g id="xtick_8">
     <g id="line2d_15">
      <path d="M 878.712899 300.96 
L 878.712899 7.2 
" clip-path="url(#pd67d725c0b)" style="fill: none; stroke: #546379; stroke-width: 1.12; stroke-linecap: square"/>
     </g>
     <g id="line2d_16"/>
     <g id="text_8">
      <!-- 2026 -->
      <g style="fill: #b1bed6" transform="translate(849.631859 330.884854) rotate(-30) scale(0.126 -0.126)">
       <use xlink:href="#DejaVuSans-32"/>
       <use xlink:href="#DejaVuSans-30" transform="translate(63.623047 0)"/>
       <use xlink:href="#DejaVuSans-32" transform="translate(127.246094 0)"/>
       <use xlink:href="#DejaVuSans-36" transform="translate(190.869141 0)"/>
      </g>
     </g>
    </g>
    <g id="text_9">
     <!-- Date -->
     <g style="fill: #b1bed6" transform="translate(464.166875 348.095943) scale(0.144 -0.144)">
      <defs>
       <path id="DejaVuSans-44" d="M 1259 4147 
L 1259 519 
L 2022 519 
Q 2988 519 3436 956 
Q 3884 1394 3884 2338 
Q 3884 3275 3436 3711 
Q 2988 4147 2022 4147 
L 1259 4147 
z
M 628 4666 
L 1925 4666 
Q 3281 4666 3915 4102 
Q 4550 3538 4550 2338 
Q 4550 1131 3912 565 
Q 3275 0 1925 0 
L 628 0 
L 628 4666 
z
" transform="scale(0.015625)"/>
       <path id="DejaVuSans-61" d="M 2194 1759 
Q 1497 1759 1228 1600 
Q 959 1441 959 1056 
Q 959 750 1161 570 
Q 1363 391 1709 391 
Q 2188 391 2477 730 
Q 2766 1069 2766 1631 
L 2766 1759 
L 2194 1759 
z
M 3341 1997 
L 3341 0 
L 2766 0 
L 2766 531 
Q 2569 213 2275 61 
Q 1981 -91 1556 -91 
Q 1019 -91 701 211 
Q 384 513 384 1019 
Q 384 1609 779 1909 
Q 1175 2209 1959 2209 
L 2766 2209 
L 2766 2266 
Q 2766 2663 2505 2880 
Q 2244 3097 1772 3097 
Q 1472 3097 1187 3025 
Q 903 2953 641 2809 
L 641 3341 
Q 956 3463 1253 3523 
Q 1550 3584 1831 3584 
Q 2591 3584 2966 3190 
Q 3341 2797 3341 1997 
z
" transform="scale(0.015625)"/>
       <path id="DejaVuSans-74" d="M 1172 4494 
L 1172 3500 
L 2356 3500 
L 2356 3053 
L 1172 3053 
L 1172 1153 
Q 1172 725 1289 603 
Q 1406 481 1766 481 
L 2356 481 
L 2356 0 
L 1766 0 
Q 1100 0 847 248 
Q 594 497 594 1153 
L 594 3053 
L 172 3053 
L 172 3500 
L 594 3500 
L 594 4494 
L 1172 4494 
z
" transform="scale(0.015625)"/>
       <path id="DejaVuSans-65" d="M 3597 1894 
L 3597 1613 
L 953 1613 
Q 991 1019 1311 708 
Q 1631 397 2203 397 
Q 2534 397 2845 478 
Q 3156 559 3463 722 
L 3463 178 
Q 3153 47 2828 -22 
Q 2503 -91 2169 -91 
Q 1331 -91 842 396 
Q 353 884 353 1716 
Q 353 2575 817 3079 
Q 1281 3584 2069 3584 
Q 2775 3584 3186 3129 
Q 3597 2675 3597 1894 
z
M 3022 2063 
Q 3016 2534 2758 2815 
Q 2500 3097 2075 3097 
Q 1594 3097 1305 2825 
Q 1016 2553 972 2059 
L 3022 2063 
z
" transform="scale(0.015625)"/>
      </defs>
      <use xlink:href="#DejaVuSans-44"/>
      <use xlink:href="#DejaVuSans-61" transform="translate(77.001953 0)"/>
      <use xlink:href="#DejaVuSans-74" transform="translate(138.28125 0)"/>
      <use xlink:href="#DejaVuSans-65" transform="translate(177.490234 0)"/>
     </g>
    </g>
   </g>
   <g id="matplotlib.axis_2">
    <g id="ytick_1">
     <g id="line2d_17">
      <path d="M 34.976 255.37232 
L 927.776 255.37232 
" clip-path="url(#pd67d725c0b)" style="fill: none; stroke: #546379; stroke-width: 1.12; stroke-linecap: square"/>
     </g>
     <g id="line2d_18"/>
     <g id="text_10">
      <!-- $\mathdefault{10^{0}}$ -->
      <g style="fill: #b1bed6" transform="translate(7.2 260.159335) scale(0.126 -0.126)">
       <use xlink:href="#DejaVuSans-31" transform="translate(0 0.765625)"/>
       <use xlink:href="#DejaVuSans-30" transform="translate(63.623047 0.765625)"/>
       <use xlink:href="#DejaVuSans-30" transform="translate(128.203125 39.046875) scale(0.7)"/>
      </g>
     </g>
    </g>
    <g id="ytick_2">
     <g id="line2d_19">
      <path d="M 34.976 209.254528 
L 927.776 209.254528 
" clip-path="url(#pd67d725c0b)" style="fill: none; stroke: #546379; stroke-width: 1.12; stroke-linecap: square"/>
     </g>
     <g id="line2d_20"/>
     <g id="text_11">
      <!-- $\mathdefault{10^{1}}$ -->
      <g style="fill: #b1bed6" transform="translate(7.2 214.041544) scale(0.126 -0.126)">
       <use xlink:href="#DejaVuSans-31" transform="translate(0 0.684375)"/>
       <use xlink:href="#DejaVuSans-30" transform="translate(63.623047 0.684375)"/>
       <use xlink:href="#DejaVuSans-31" transform="translate(128.203125 38.965625) scale(0.7)"/>
      </g>
     </g>
    </g>
    <g id="ytick_3">
     <g id="line2d_21">
      <path d="M 34.976 163.136737 
L 927.776 163.136737 
" clip-path="url(#pd67d725c0b)" style="fill: none; stroke: #546379; stroke-width: 1.12; stroke-linecap: square"/>
     </g>
     <g id="line2d_22"/>
     <g id="text_12">
      <!-- $\mathdefault{10^{2}}$ -->
      <g style="fill: #b1bed6" transform="translate(7.2 167.923752) scale(0.126 -0.126)">
       <use xlink:href="#DejaVuSans-31" transform="translate(0 0.765625)"/>
       <use xlink:href="#DejaVuSans-30" transform="translate(63.623047 0.765625)"/>
       <use xlink:href="#DejaVuSans-32" transform="translate(128.203125 39.046875) scale(0.7)"/>
      </g>
     </g>
    </g>
    <g id="ytick_4">
     <g id="line2d_23">
      <path d="M 34.976 117.018945 
L 927.776 117.018945 
" clip-path="url(#pd67d725c0b)" style="fill: none; stroke: #546379; stroke-width: 1.12; stroke-linecap: square"/>
     </g>
     <g id="line2d_24"/>
     <g id="text_13">
      <!-- $\mathdefault{10^{3}}$ -->
      <g style="fill: #b1bed6" transform="translate(7.2 121.805961) scale(0.126 -0.126)">
       <defs>
        <path id="DejaVuSans-33" d="M 2597 2516 
Q 3050 2419 3304 2112 
Q 3559 1806 3559 1356 
Q 3559 666 3084 287 
Q 2609 -91 1734 -91 
Q 1441 -91 1130 -33 
Q 819 25 488 141 
L 488 750 
Q 750 597 1062 519 
Q 1375 441 1716 441 
Q 2309 441 2620 675 
Q 2931 909 2931 1356 
Q 2931 1769 2642 2001 
Q 2353 2234 1838 2234 
L 1294 2234 
L 1294 2753 
L 1863 2753 
Q 2328 2753 2575 2939 
Q 2822 3125 2822 3475 
Q 2822 3834 2567 4026 
Q 2313 4219 1838 4219 
Q 1578 4219 1281 4162 
Q 984 4106 628 3988 
L 628 4550 
Q 988 4650 1302 4700 
Q 1616 4750 1894 4750 
Q 2613 4750 3031 4423 
Q 3450 4097 3450 3541 
Q 3450 3153 3228 2886 
Q 3006 2619 2597 2516 
z
" transform="scale(0.015625)"/>
       </defs>
       <use xlink:href="#DejaVuSans-31" transform="translate(0 0.765625)"/>
       <use xlink:href="#DejaVuSans-30" transform="translate(63.623047 0.765625)"/>
       <use xlink:href="#DejaVuSans-33" transform="translate(128.203125 39.046875) scale(0.7)"/>
      </g>
     </g>
    </g>
    <g id="ytick_5">
     <g id="line2d_25">
      <path d="M 34.976 70.901154 
L 927.776 70.901154 
" clip-path="url(#pd67d725c0b)" style="fill: none; stroke: #546379; stroke-width: 1.12; stroke-linecap: square"/>
     </g>
     <g id="line2d_26"/>
     <g id="text_14">
      <!-- $\mathdefault{10^{4}}$ -->
      <g style="fill: #b1bed6" transform="translate(7.2 75.688169) scale(0.126 -0.126)">
       <use xlink:href="#DejaVuSans-31" transform="translate(0 0.684375)"/>
       <use xlink:href="#DejaVuSans-30" transform="translate(63.623047 0.684375)"/>
       <use xlink:href="#DejaVuSans-34" transform="translate(128.203125 38.965625) scale(0.7)"/>
      </g>
     </g>
    </g>
    <g id="ytick_6">
     <g id="line2d_27">
      <path d="M 34.976 24.783362 
L 927.776 24.783362 
" clip-path="url(#pd67d725c0b)" style="fill: none; stroke: #546379; stroke-width: 1.12; stroke-linecap: square"/>
     </g>
     <g id="line2d_28"/>
     <g id="text_15">
      <!-- $\mathdefault{10^{5}}$ -->
      <g style="fill: #b1bed6" transform="translate(7.2 29.570378) scale(0.126 -0.126)">
       <defs>
        <path id="DejaVuSans-35" d="M 691 4666 
L 3169 4666 
L 3169 4134 
L 1269 4134 
L 1269 2991 
Q 1406 3038 1543 3061 
Q 1681 3084 1819 3084 
Q 2600 3084 3056 2656 
Q 3513 2228 3513 1497 
Q 3513 744 3044 326 
Q 2575 -91 1722 -91 
Q 1428 -91 1123 -41 
Q 819 9 494 109 
L 494 744 
Q 775 591 1075 516 
Q 1375 441 1709 441 
Q 2250 441 2565 725 
Q 2881 1009 2881 1497 
Q 2881 1984 2565 2268 
Q 2250 2553 1709 2553 
Q 1456 2553 1204 2497 
Q 953 2441 691 2322 
L 691 4666 
z
" transform="scale(0.015625)"/>
       </defs>
       <use xlink:href="#DejaVuSans-31" transform="translate(0 0.684375)"/>
       <use xlink:href="#DejaVuSans-30" transform="translate(63.623047 0.684375)"/>
       <use xlink:href="#DejaVuSans-35" transform="translate(128.203125 38.965625) scale(0.7)"/>
      </g>
     </g>
    </g>
    <g id="ytick_7">
     <g id="line2d_29"/>
    </g>
    <g id="ytick_8">
     <g id="line2d_30"/>
    </g>
    <g id="ytick_9">
     <g id="line2d_31"/>
    </g>
    <g id="ytick_10">
     <g id="line2d_32"/>
    </g>
    <g id="ytick_11">
     <g id="line2d_33"/>
    </g>
    <g id="ytick_12">
     <g id="line2d_34"/>
    </g>
    <g id="ytick_13">
     <g id="line2d_35"/>
    </g>
    <g id="ytick_14">
     <g id="line2d_36"/>
    </g>
    <g id="ytick_15">
     <g id="line2d_37"/>
    </g>
    <g id="ytick_16">
     <g id="line2d_38"/>
    </g>
    <g id="ytick_17">
     <g id="line2d_39"/>
    </g>
    <g id="ytick_18">
     <g id="line2d_40"/>
    </g>
    <g id="ytick_19">
     <g id="line2d_41"/>
    </g>
    <g id="ytick_20">
     <g id="line2d_42"/>
    </g>
    <g id="ytick_21">
     <g id="line2d_43"/>
    </g>
    <g id="ytick_22">
     <g id="line2d_44"/>
    </g>
    <g id="ytick_23">
     <g id="line2d_45"/>
    </g>
    <g id="ytick_24">
     <g id="line2d_46"/>
    </g>
    <g id="ytick_25">
     <g id="line2d_47"/>
    </g>
    <g id="ytick_26">
     <g id="line2d_48"/>
    </g>
    <g id="ytick_27">
     <g id="line2d_49"/>
    </g>
    <g id="ytick_28">
     <g id="line2d_50"/>
    </g>
    <g id="ytick_29">
     <g id="line2d_51"/>
    </g>
    <g id="ytick_30">
     <g id="line2d_52"/>
    </g>
    <g id="ytick_31">
     <g id="line2d_53"/>
    </g>
    <g id="ytick_32">
     <g id="line2d_54"/>
    </g>
    <g id="ytick_33">
     <g id="line2d_55"/>
    </g>
    <g id="ytick_34">
     <g id="line2d_56"/>
    </g>
    <g id="ytick_35">
     <g id="line2d_57"/>
    </g>
    <g id="ytick_36">
     <g id="line2d_58"/>
    </g>
    <g id="ytick_37">
     <g id="line2d_59"/>
    </g>
    <g id="ytick_38">
     <g id="line2d_60"/>
    </g>
    <g id="ytick_39">
     <g id="line2d_61"/>
    </g>
    <g id="ytick_40">
     <g id="line2d_62"/>
    </g>
    <g id="ytick_41">
     <g id="line2d_63"/>
    </g>
    <g id="ytick_42">
     <g id="line2d_64"/>
    </g>
    <g id="ytick_43">
     <g id="line2d_65"/>
    </g>
    <g id="ytick_44">
     <g id="line2d_66"/>
    </g>
    <g id="ytick_45">
     <g id="line2d_67"/>
    </g>
    <g id="ytick_46">
     <g id="line2d_68"/>
    </g>
    <g id="ytick_47">
     <g id="line2d_69"/>
    </g>
    <g id="ytick_48">
     <g id="line2d_70"/>
    </g>
    <g id="ytick_49">
     <g id="line2d_71"/>
    </g>
    <g id="ytick_50">
     <g id="line2d_72"/>
    </g>
    <g id="ytick_51">
     <g id="line2d_73"/>
    </g>
    <g id="ytick_52">
     <g id="line2d_74"/>
    </g>
    <g id="ytick_53">
     <g id="line2d_75"/>
    </g>
    <g id="ytick_54">
     <g id="line2d_76"/>
    </g>
    <g id="ytick_55">
     <g id="line2d_77"/>
    </g>
   </g>
   <g id="line2d_78">
    <path d="M 75.557818 287.607273 
L 75.557818 283.137997 
L 76.137818 283.137997 
L 76.137818 278.19371 
L 76.717818 278.19371 
L 76.717818 279.486333 
L 77.297818 279.486333 
L 77.297818 280.86817 
L 77.877818 280.86817 
L 77.877818 280.165337 
L 78.457818 280.165337 
L 78.457818 280.86817 
L 79.617819 280.86817 
L 79.617819 282.352457 
L 80.197819 282.352457 
L 80.197819 284.808022 
L 81.357819 284.808022 
L 81.357819 283.137997 
L 81.937819 283.137997 
L 81.937819 282.352457 
L 82.517819 282.352457 
L 82.517819 283.137997 
L 83.097819 283.137997 
L 83.097819 281.596567 
L 83.677819 281.596567 
L 83.677819 279.486333 
L 84.837819 279.486333 
L 84.837819 278.19371 
L 85.417819 278.19371 
L 85.417819 275.834669 
L 85.997819 275.834669 
L 85.997819 273.724434 
L 86.577819 273.724434 
L 86.577819 274.751772 
L 87.157819 274.751772 
L 87.157819 271.815495 
L 87.737819 271.815495 
L 87.737819 271.365393 
L 88.317819 271.365393 
L 88.317819 257.042345 
L 89.47782 257.042345 
L 89.47782 255.982378 
L 90.05782 255.982378 
L 90.05782 253.83089 
L 90.63782 253.83089 
L 90.63782 254.395116 
L 91.21782 254.395116 
L 91.21782 257.932656 
L 91.79782 257.932656 
L 91.79782 255.37232 
L 92.37782 255.37232 
L 92.37782 255.982378 
L 92.95782 255.982378 
L 92.95782 257.042345 
L 93.53782 257.042345 
L 93.53782 257.932656 
L 94.11782 257.932656 
L 94.11782 257.26124 
L 94.69782 257.26124 
L 94.69782 258.161558 
L 95.27782 258.161558 
L 95.27782 260.093532 
L 95.85782 260.093532 
L 95.85782 257.706341 
L 96.43782 257.706341 
L 96.43782 259.841596 
L 97.59782 259.841596 
L 97.59782 261.134218 
L 98.17782 261.134218 
L 98.17782 260.868934 
L 98.757821 260.868934 
L 98.757821 255.776954 
L 99.337821 255.776954 
L 99.337821 251.720656 
L 99.917821 251.720656 
L 99.917821 248.921405 
L 100.497821 248.921405 
L 100.497821 243.823502 
L 101.077821 243.823502 
L 101.077821 226.917627 
L 101.657821 226.917627 
L 101.657821 229.940664 
L 102.237821 229.940664 
L 102.237821 228.062436 
L 102.817821 228.062436 
L 102.817821 217.729074 
L 103.397821 217.729074 
L 103.397821 212.580386 
L 103.977821 212.580386 
L 103.977821 216.455571 
L 104.557821 216.455571 
L 104.557821 215.640255 
L 105.137821 215.640255 
L 105.137821 212.089863 
L 105.717821 212.089863 
L 105.717821 209.926627 
L 106.297821 209.926627 
L 106.297821 196.34639 
L 106.877821 196.34639 
L 106.877821 185.746445 
L 107.457821 185.746445 
L 107.457821 192.005794 
L 108.037821 192.005794 
L 108.037821 196.536537 
L 108.617822 196.536537 
L 108.617822 200.619497 
L 109.197822 200.619497 
L 109.197822 197.954799 
L 109.777822 197.954799 
L 109.777822 198.218565 
L 110.357822 198.218565 
L 110.357822 200.169105 
L 110.937822 200.169105 
L 110.937822 199.716176 
L 111.517822 199.716176 
L 111.517822 201.040338 
L 112.097822 201.040338 
L 112.097822 202.160926 
L 112.677822 202.160926 
L 112.677822 201.757417 
L 113.257822 201.757417 
L 113.257822 202.615821 
L 113.837822 202.615821 
L 113.837822 202.372872 
L 114.417822 202.372872 
L 114.417822 201.702393 
L 114.997822 201.702393 
L 114.997822 206.455278 
L 115.577822 206.455278 
L 115.577822 209.94735 
L 116.157822 209.94735 
L 116.157822 209.395222 
L 116.737822 209.395222 
L 116.737822 206.700602 
L 117.317822 206.700602 
L 117.317822 206.024537 
L 117.897822 206.024537 
L 117.897822 206.806668 
L 118.477823 206.806668 
L 118.477823 210.324077 
L 119.057823 210.324077 
L 119.057823 212.604047 
L 119.637823 212.604047 
L 119.637823 213.058992 
L 120.217823 213.058992 
L 120.217823 217.097011 
L 120.797823 217.097011 
L 120.797823 218.861295 
L 121.377823 218.861295 
L 121.377823 223.057412 
L 121.957823 223.057412 
L 121.957823 218.893678 
L 122.537823 218.893678 
L 122.537823 221.264877 
L 123.117823 221.264877 
L 123.117823 223.379165 
L 123.697823 223.379165 
L 123.697823 222.898453 
L 124.277823 222.898453 
L 124.277823 223.996748 
L 124.857823 223.996748 
L 124.857823 226.821103 
L 125.437823 226.821103 
L 125.437823 227.556633 
L 126.017823 227.556633 
L 126.017823 236.311847 
L 126.597823 236.311847 
L 126.597823 231.338582 
L 127.177823 231.338582 
L 127.177823 232.711804 
L 127.757823 232.711804 
L 127.757823 230.97985 
L 128.337823 230.97985 
L 128.337823 231.951129 
L 128.917824 231.951129 
L 128.917824 232.138606 
L 129.497824 232.138606 
L 129.497824 232.647299 
L 130.077824 232.647299 
L 130.077824 236.234665 
L 130.657824 236.234665 
L 130.657824 237.424839 
L 131.237824 237.424839 
L 131.237824 237.181079 
L 131.817824 237.181079 
L 131.817824 235.928878 
L 132.397824 235.928878 
L 132.397824 232.455022 
L 132.977824 232.455022 
L 132.977824 232.97192 
L 133.557824 232.97192 
L 133.557824 232.583001 
L 134.137824 232.583001 
L 134.137824 231.703858 
L 134.717824 231.703858 
L 134.717824 231.098715 
L 135.297824 231.098715 
L 135.297824 227.707037 
L 135.877824 227.707037 
L 135.877824 226.39241 
L 136.457824 226.39241 
L 136.457824 225.381573 
L 137.037824 225.381573 
L 137.037824 221.707518 
L 137.617824 221.707518 
L 137.617824 216.227322 
L 138.197824 216.227322 
L 138.197824 216.114165 
L 138.777825 216.114165 
L 138.777825 216.284141 
L 139.357825 216.284141 
L 139.357825 218.287185 
L 139.937825 218.287185 
L 139.937825 217.975205 
L 140.517825 217.975205 
L 140.517825 220.513041 
L 141.097825 220.513041 
L 141.097825 220.689506 
L 141.677825 220.689506 
L 141.677825 219.519112 
L 142.257825 219.519112 
L 142.257825 220.027052 
L 143.417825 220.095761 
L 143.417825 224.206915 
L 143.997825 224.206915 
L 143.997825 225.247601 
L 144.577825 225.247601 
L 144.577825 222.467712 
L 145.157825 222.467712 
L 145.157825 223.217642 
L 145.737825 223.217642 
L 145.737825 223.913295 
L 146.317825 223.913295 
L 146.317825 222.938075 
L 146.897825 222.938075 
L 146.897825 223.217642 
L 147.477825 223.217642 
L 147.477825 221.448123 
L 148.057825 221.448123 
L 148.057825 222.236609 
L 148.637826 222.236609 
L 148.637826 223.913295 
L 149.217826 223.913295 
L 149.217826 224.080551 
L 149.797826 224.080551 
L 149.797826 223.379165 
L 150.957826 223.298241 
L 150.957826 223.954978 
L 151.537826 223.954978 
L 151.537826 223.257901 
L 152.697826 223.177464 
L 152.697826 222.198349 
L 153.277826 222.198349 
L 153.277826 222.390381 
L 153.857826 222.390381 
L 153.857826 222.780056 
L 154.437826 222.780056 
L 154.437826 222.429009 
L 155.017826 222.429009 
L 155.017826 222.740746 
L 156.177826 222.740746 
L 156.177826 222.938075 
L 156.757826 222.938075 
L 156.757826 222.623275 
L 158.497827 222.545342 
L 158.497827 222.429009 
L 159.077827 222.429009 
L 159.077827 222.084008 
L 159.657827 222.084008 
L 159.657827 221.011116 
L 160.817827 220.939199 
L 160.817827 218.604102 
L 161.397827 218.604102 
L 161.397827 217.698519 
L 161.977827 217.698519 
L 161.977827 217.455744 
L 162.557827 217.455744 
L 162.557827 217.637549 
L 163.137827 217.637549 
L 163.137827 217.245703 
L 163.717827 217.245703 
L 163.717827 217.097011 
L 164.297827 217.097011 
L 164.297827 216.455571 
L 164.877827 216.455571 
L 164.877827 214.102908 
L 165.457827 214.102908 
L 165.457827 210.345215 
L 166.037827 210.345215 
L 166.037827 210.218718 
L 166.617827 210.218718 
L 166.617827 211.814865 
L 167.197827 211.814865 
L 167.197827 211.476343 
L 167.777827 211.476343 
L 167.777827 209.015614 
L 168.357828 209.015614 
L 168.357828 206.931125 
L 168.937828 206.931125 
L 168.937828 206.281868 
L 169.517828 206.281868 
L 169.517828 205.108303 
L 170.097828 205.108303 
L 170.097828 201.840237 
L 170.677828 201.840237 
L 170.677828 208.740437 
L 171.257828 208.740437 
L 171.257828 207.363805 
L 171.837828 207.363805 
L 171.837828 207.510134 
L 172.417828 207.510134 
L 172.417828 208.239211 
L 172.997828 208.239211 
L 172.997828 206.859912 
L 174.157828 206.913298 
L 174.157828 205.87171 
L 174.737828 205.87171 
L 174.737828 204.57803 
L 175.317828 204.57803 
L 175.317828 205.140897 
L 175.897828 205.140897 
L 175.897828 204.849447 
L 176.477828 204.849447 
L 176.477828 204.657477 
L 177.057828 204.657477 
L 177.057828 204.045986 
L 177.637828 204.045986 
L 177.637828 205.108303 
L 178.217829 205.108303 
L 178.217829 205.43665 
L 178.797829 205.43665 
L 178.797829 205.636273 
L 179.377829 205.636273 
L 179.377829 205.939489 
L 179.957829 205.939489 
L 179.957829 206.351052 
L 180.537829 206.351052 
L 180.537829 207.473452 
L 181.117829 207.473452 
L 181.117829 207.236638 
L 181.697829 207.236638 
L 181.697829 207.400287 
L 182.857829 207.436836 
L 182.857829 207.218538 
L 183.437829 207.218538 
L 183.437829 205.905571 
L 184.017829 205.905571 
L 184.017829 205.075763 
L 184.597829 205.075763 
L 184.597829 204.593894 
L 185.757829 204.530512 
L 185.757829 203.86153 
L 186.337829 203.86153 
L 186.337829 203.169779 
L 186.917829 203.169779 
L 186.917829 202.803614 
L 187.497829 202.803614 
L 187.497829 203.051876 
L 188.65783 202.949278 
L 188.65783 203.318141 
L 189.23783 203.318141 
L 189.23783 203.022509 
L 189.81783 203.022509 
L 189.81783 203.214173 
L 190.97783 203.184566 
L 190.97783 202.529737 
L 191.55783 202.529737 
L 191.55783 202.076772 
L 192.13783 202.076772 
L 192.13783 200.438123 
L 192.71783 200.438123 
L 192.71783 198.474155 
L 193.29783 198.474155 
L 193.29783 196.8899 
L 193.87783 196.8899 
L 193.87783 195.593226 
L 194.45783 195.593226 
L 194.45783 194.394486 
L 195.03783 194.394486 
L 195.03783 193.895273 
L 195.61783 193.895273 
L 195.61783 191.745077 
L 196.19783 191.745077 
L 196.19783 189.21317 
L 196.77783 189.21317 
L 196.77783 189.375826 
L 197.35783 189.375826 
L 197.35783 186.90656 
L 197.937831 186.90656 
L 197.937831 186.46521 
L 198.517831 186.46521 
L 198.517831 184.597163 
L 199.097831 184.597163 
L 199.097831 180.511647 
L 199.677831 180.511647 
L 199.677831 178.864525 
L 200.257831 178.864525 
L 200.257831 178.318608 
L 200.837831 178.318608 
L 200.837831 176.187869 
L 201.417831 176.187869 
L 201.417831 170.209069 
L 201.997831 170.209069 
L 201.997831 167.911261 
L 202.577831 167.911261 
L 202.577831 164.698205 
L 203.157831 164.698205 
L 203.157831 157.728444 
L 203.737831 157.728444 
L 203.737831 153.314284 
L 204.317831 153.314284 
L 204.317831 158.68349 
L 204.897831 158.68349 
L 204.897831 170.831623 
L 205.477831 170.831623 
L 205.477831 159.666147 
L 206.057831 159.666147 
L 206.057831 156.043135 
L 206.637831 156.043135 
L 206.637831 158.114365 
L 207.217831 158.114365 
L 207.217831 159.992155 
L 207.797832 159.992155 
L 207.797832 160.16753 
L 208.377832 160.16753 
L 208.377832 160.743898 
L 208.957832 160.743898 
L 208.957832 159.823395 
L 209.537832 159.823395 
L 209.537832 158.938472 
L 210.697832 159.039422 
L 210.697832 157.577651 
L 211.857832 157.530665 
L 211.857832 159.085179 
L 212.437832 159.085179 
L 212.437832 159.657728 
L 213.017832 159.657728 
L 213.017832 161.9508 
L 213.597832 161.9508 
L 213.597832 163.140743 
L 214.177832 163.140743 
L 214.177832 161.708753 
L 214.757832 161.708753 
L 214.757832 161.530504 
L 215.337832 161.530504 
L 215.337832 162.351197 
L 215.917832 162.351197 
L 215.917832 163.695241 
L 216.497832 163.695241 
L 216.497832 167.596001 
L 217.077832 167.596001 
L 217.077832 168.504633 
L 217.657832 168.504633 
L 217.657832 164.378152 
L 218.237833 164.378152 
L 218.237833 163.736474 
L 218.817833 163.736474 
L 218.817833 165.383183 
L 219.397833 165.383183 
L 219.397833 164.267648 
L 219.977833 164.267648 
L 219.977833 163.398817 
L 220.557833 163.398817 
L 220.557833 162.232149 
L 221.137833 162.232149 
L 221.137833 161.834102 
L 221.717833 161.834102 
L 221.717833 162.583641 
L 222.297833 162.583641 
L 222.297833 161.3465 
L 222.877833 161.3465 
L 222.877833 163.194904 
L 223.457833 163.194904 
L 223.457833 161.149656 
L 224.037833 161.149656 
L 224.037833 160.639309 
L 224.617833 160.639309 
L 224.617833 159.737009 
L 225.197833 159.737009 
L 225.197833 157.86806 
L 225.777833 157.86806 
L 225.777833 159.888004 
L 226.357833 159.888004 
L 226.357833 159.150729 
L 226.937833 159.150729 
L 226.937833 158.820261 
L 227.517833 158.820261 
L 227.517833 158.330623 
L 228.097834 158.330623 
L 228.097834 159.001913 
L 228.677834 159.001913 
L 228.677834 158.72362 
L 229.257834 158.72362 
L 229.257834 158.468169 
L 229.837834 158.468169 
L 229.837834 159.163865 
L 230.417834 159.163865 
L 230.417834 158.808962 
L 230.997834 158.808962 
L 230.997834 158.256707 
L 231.577834 158.256707 
L 231.577834 156.658265 
L 232.157834 156.658265 
L 232.157834 150.694477 
L 232.737834 150.694477 
L 232.737834 149.727115 
L 233.317834 149.727115 
L 233.317834 148.57456 
L 233.897834 148.57456 
L 233.897834 148.955699 
L 234.477834 148.955699 
L 234.477834 144.578193 
L 235.057834 144.578193 
L 235.057834 139.224019 
L 235.637834 139.224019 
L 235.637834 135.724665 
L 236.217834 135.724665 
L 236.217834 131.929122 
L 236.797834 131.929122 
L 236.797834 123.688509 
L 237.377834 123.688509 
L 237.377834 121.126976 
L 237.957835 121.126976 
L 237.957835 114.501195 
L 238.537835 114.501195 
L 238.537835 116.037736 
L 239.117835 116.037736 
L 239.117835 123.994292 
L 239.697835 123.994292 
L 239.697835 119.650419 
L 240.277835 119.650419 
L 240.277835 119.97045 
L 240.857835 119.97045 
L 240.857835 124.587763 
L 241.437835 124.587763 
L 241.437835 125.341484 
L 242.017835 125.341484 
L 242.017835 123.488046 
L 242.597835 123.488046 
L 242.597835 123.267395 
L 243.177835 123.267395 
L 243.177835 120.781313 
L 243.757835 120.781313 
L 243.757835 120.913218 
L 244.337835 120.913218 
L 244.337835 120.41492 
L 244.917835 120.41492 
L 244.917835 121.063393 
L 245.497835 121.063393 
L 245.497835 120.803802 
L 246.077835 120.803802 
L 246.077835 121.99479 
L 246.657835 121.99479 
L 246.657835 121.852022 
L 247.237835 121.852022 
L 247.237835 121.065109 
L 247.817836 121.065109 
L 247.817836 121.969642 
L 248.397836 121.969642 
L 248.397836 124.527356 
L 248.977836 124.527356 
L 248.977836 126.919059 
L 249.557836 126.919059 
L 249.557836 126.274188 
L 250.137836 126.274188 
L 250.137836 127.946397 
L 250.717836 127.946397 
L 250.717836 128.649132 
L 251.297836 128.649132 
L 251.297836 128.366202 
L 251.877836 128.366202 
L 251.877836 125.019077 
L 252.457836 125.019077 
L 252.457836 125.960627 
L 253.617836 125.925914 
L 253.617836 126.441804 
L 254.197836 126.441804 
L 254.197836 128.176165 
L 254.777836 128.176165 
L 254.777836 127.730173 
L 255.357836 127.730173 
L 255.357836 131.306418 
L 255.937836 131.306418 
L 255.937836 133.502218 
L 256.517836 133.502218 
L 256.517836 132.65908 
L 257.097836 132.65908 
L 257.097836 136.986733 
L 257.677837 136.986733 
L 257.677837 132.58749 
L 258.257837 132.58749 
L 258.257837 131.631546 
L 258.837837 131.631546 
L 258.837837 131.367004 
L 259.417837 131.367004 
L 259.417837 132.507473 
L 259.997837 132.507473 
L 259.997837 132.92187 
L 260.577837 132.92187 
L 260.577837 133.610609 
L 261.737837 133.571209 
L 261.737837 133.350906 
L 262.317837 133.350906 
L 262.317837 133.051224 
L 262.897837 133.051224 
L 262.897837 131.38341 
L 263.477837 131.38341 
L 263.477837 129.81387 
L 264.057837 129.81387 
L 264.057837 127.894621 
L 264.637837 127.894621 
L 264.637837 126.250357 
L 265.217837 126.250357 
L 265.217837 125.296318 
L 265.797837 125.296318 
L 265.797837 125.68367 
L 266.377837 125.68367 
L 266.377837 127.534196 
L 266.957837 127.534196 
L 266.957837 126.984835 
L 267.537838 126.984835 
L 267.537838 127.554182 
L 268.117838 127.554182 
L 268.117838 128.604794 
L 268.697838 128.604794 
L 268.697838 127.250453 
L 269.277838 127.250453 
L 269.277838 125.790765 
L 269.857838 125.790765 
L 269.857838 126.453349 
L 270.437838 126.453349 
L 270.437838 126.146152 
L 271.017838 126.146152 
L 271.017838 126.462333 
L 271.597838 126.462333 
L 271.597838 126.272916 
L 272.177838 126.272916 
L 272.177838 126.579496 
L 272.757838 126.579496 
L 272.757838 127.462208 
L 273.337838 127.462208 
L 273.337838 127.858802 
L 273.917838 127.858802 
L 273.917838 127.63773 
L 275.077838 127.6214 
L 275.077838 128.312275 
L 275.657838 128.312275 
L 275.657838 129.967354 
L 276.237838 129.967354 
L 276.237838 130.161745 
L 276.817838 130.161745 
L 276.817838 130.582678 
L 277.977839 130.638739 
L 277.977839 131.871859 
L 278.557839 131.871859 
L 278.557839 131.474298 
L 279.137839 131.474298 
L 279.137839 131.998816 
L 279.717839 131.998816 
L 279.717839 131.848327 
L 280.297839 131.848327 
L 280.297839 132.839184 
L 280.877839 132.839184 
L 280.877839 135.31356 
L 281.457839 135.31356 
L 281.457839 134.867219 
L 282.037839 134.867219 
L 282.037839 136.724127 
L 282.617839 136.724127 
L 282.617839 137.542587 
L 283.197839 137.542587 
L 283.197839 138.979109 
L 283.777839 138.979109 
L 283.777839 137.373098 
L 284.357839 137.373098 
L 284.357839 135.631111 
L 284.937839 135.631111 
L 284.937839 135.906922 
L 285.517839 135.906922 
L 285.517839 137.637682 
L 286.097839 137.637682 
L 286.097839 137.994084 
L 286.677839 137.994084 
L 286.677839 138.756714 
L 287.25784 138.756714 
L 287.25784 139.210064 
L 287.83784 139.210064 
L 287.83784 138.221398 
L 288.41784 138.221398 
L 288.41784 134.384797 
L 288.99784 134.384797 
L 288.99784 135.88482 
L 289.57784 135.88482 
L 289.57784 137.678656 
L 290.15784 137.678656 
L 290.15784 136.686127 
L 290.73784 136.686127 
L 290.73784 136.558209 
L 291.31784 136.558209 
L 291.31784 136.418436 
L 291.89784 136.418436 
L 291.89784 136.661012 
L 292.47784 136.661012 
L 292.47784 138.114882 
L 293.05784 138.114882 
L 293.05784 137.604067 
L 293.63784 137.604067 
L 293.63784 140.330735 
L 294.21784 140.330735 
L 294.21784 139.104206 
L 294.79784 139.104206 
L 294.79784 139.227661 
L 295.37784 139.227661 
L 295.37784 140.411716 
L 295.95784 140.411716 
L 295.95784 142.153972 
L 296.53784 142.153972 
L 296.53784 141.267602 
L 297.11784 141.267602 
L 297.11784 143.266944 
L 297.697841 143.266944 
L 297.697841 148.256676 
L 298.277841 148.256676 
L 298.277841 147.711541 
L 298.857841 147.711541 
L 298.857841 146.134154 
L 299.437841 146.134154 
L 299.437841 143.729744 
L 300.017841 143.729744 
L 300.017841 147.413355 
L 300.597841 147.413355 
L 300.597841 146.743214 
L 301.177841 146.743214 
L 301.177841 146.990332 
L 301.757841 146.990332 
L 301.757841 147.133952 
L 302.337841 147.133952 
L 302.337841 146.066566 
L 302.917841 146.066566 
L 302.917841 145.125593 
L 303.497841 145.125593 
L 303.497841 145.607242 
L 304.077841 145.607242 
L 304.077841 144.506165 
L 304.657841 144.506165 
L 304.657841 143.238742 
L 305.237841 143.238742 
L 305.237841 142.875683 
L 305.817841 142.875683 
L 305.817841 141.476374 
L 306.397841 141.476374 
L 306.397841 141.861751 
L 306.977841 141.861751 
L 306.977841 143.837962 
L 307.557842 143.837962 
L 307.557842 145.189256 
L 308.137842 145.189256 
L 308.137842 144.548875 
L 308.717842 144.548875 
L 308.717842 145.067818 
L 309.297842 145.067818 
L 309.297842 143.959065 
L 309.877842 143.959065 
L 309.877842 145.353427 
L 310.457842 145.353427 
L 310.457842 147.072788 
L 311.617842 147.106045 
L 311.617842 145.951593 
L 312.197842 145.951593 
L 312.197842 146.780354 
L 313.357842 146.839743 
L 313.357842 145.646513 
L 313.937842 145.646513 
L 313.937842 145.840654 
L 314.517842 145.840654 
L 314.517842 145.52311 
L 315.097842 145.52311 
L 315.097842 145.822927 
L 315.677842 145.822927 
L 315.677842 146.333104 
L 316.257842 146.333104 
L 316.257842 145.790046 
L 316.837842 145.790046 
L 316.837842 145.997503 
L 317.417843 145.997503 
L 317.417843 146.599727 
L 317.997843 146.599727 
L 317.997843 147.084466 
L 318.577843 147.084466 
L 318.577843 146.659462 
L 319.157843 146.659462 
L 319.157843 146.489511 
L 319.737843 146.489511 
L 319.737843 144.786225 
L 320.317843 144.786225 
L 320.317843 145.209704 
L 320.897843 145.209704 
L 320.897843 145.58555 
L 321.477843 145.58555 
L 321.477843 144.899515 
L 322.057843 144.899515 
L 322.057843 144.413151 
L 322.637843 144.413151 
L 322.637843 143.352536 
L 323.217843 143.352536 
L 323.217843 142.165919 
L 323.797843 142.165919 
L 323.797843 141.956134 
L 324.377843 141.956134 
L 324.377843 142.749355 
L 325.537843 142.660533 
L 325.537843 141.618141 
L 326.117843 141.618141 
L 326.117843 141.919299 
L 326.697843 141.919299 
L 326.697843 142.434841 
L 327.277844 142.434841 
L 327.277844 142.563496 
L 327.857844 142.563496 
L 327.857844 143.170627 
L 328.437844 143.170627 
L 328.437844 143.889226 
L 329.017844 143.889226 
L 329.017844 146.783894 
L 329.597844 146.783894 
L 329.597844 146.617278 
L 330.177844 146.617278 
L 330.177844 146.885067 
L 330.757844 146.885067 
L 330.757844 146.432889 
L 331.917844 146.391179 
L 331.917844 145.253943 
L 332.497844 145.253943 
L 332.497844 146.046931 
L 333.077844 146.046931 
L 333.077844 146.600604 
L 333.657844 146.600604 
L 333.657844 146.44072 
L 334.237844 146.44072 
L 334.237844 146.109317 
L 334.817844 146.109317 
L 334.817844 145.674132 
L 335.397844 145.674132 
L 335.397844 145.789204 
L 335.977844 145.789204 
L 335.977844 145.042645 
L 337.137845 145.130483 
L 337.137845 144.58771 
L 337.717845 144.58771 
L 337.717845 143.919127 
L 338.297845 143.919127 
L 338.297845 142.92308 
L 338.877845 142.92308 
L 338.877845 142.04188 
L 339.457845 142.04188 
L 339.457845 139.335396 
L 340.037845 139.335396 
L 340.037845 135.146995 
L 340.617845 135.146995 
L 340.617845 136.03177 
L 341.197845 136.03177 
L 341.197845 140.54223 
L 341.777845 140.54223 
L 341.777845 139.904907 
L 342.357845 139.904907 
L 342.357845 139.474419 
L 342.937845 139.474419 
L 342.937845 139.623699 
L 343.517845 139.623699 
L 343.517845 137.592875 
L 344.097845 137.592875 
L 344.097845 137.338267 
L 344.677845 137.338267 
L 344.677845 136.035393 
L 345.257845 136.035393 
L 345.257845 134.561942 
L 345.837845 134.561942 
L 345.837845 133.765289 
L 346.417845 133.765289 
L 346.417845 132.721275 
L 346.997846 132.721275 
L 346.997846 133.537369 
L 347.577846 133.537369 
L 347.577846 132.768707 
L 348.157846 132.768707 
L 348.157846 133.772685 
L 349.317846 133.794425 
L 349.317846 133.957068 
L 349.897846 133.957068 
L 349.897846 133.082018 
L 350.477846 133.082018 
L 350.477846 133.943542 
L 351.057846 133.943542 
L 351.057846 136.111106 
L 351.637846 136.111106 
L 351.637846 136.319493 
L 352.217846 136.319493 
L 352.217846 135.793073 
L 352.797846 135.793073 
L 352.797846 136.578408 
L 353.377846 136.578408 
L 353.377846 137.016065 
L 353.957846 137.016065 
L 353.957846 136.663682 
L 354.537846 136.663682 
L 354.537846 136.503031 
L 355.117846 136.503031 
L 355.117846 135.410655 
L 355.697846 135.410655 
L 355.697846 134.39481 
L 356.857847 134.429653 
L 356.857847 133.848648 
L 357.437847 133.848648 
L 357.437847 134.274991 
L 358.017847 134.274991 
L 358.017847 135.088159 
L 358.597847 135.088159 
L 358.597847 134.58552 
L 359.757847 134.634206 
L 359.757847 134.976402 
L 360.337847 134.976402 
L 360.337847 134.566752 
L 361.497847 134.539353 
L 361.497847 134.694626 
L 362.077847 134.694626 
L 362.077847 134.465036 
L 363.237847 134.39624 
L 363.237847 134.268829 
L 363.817847 134.268829 
L 363.817847 133.948205 
L 364.397847 133.948205 
L 364.397847 133.647329 
L 364.977847 133.647329 
L 364.977847 132.926744 
L 365.557847 132.926744 
L 365.557847 133.222757 
L 366.137847 133.222757 
L 366.137847 132.878937 
L 366.717848 132.878937 
L 366.717848 133.040078 
L 367.297848 133.040078 
L 367.297848 132.543093 
L 367.877848 132.543093 
L 367.877848 132.754641 
L 368.457848 132.754641 
L 368.457848 132.8754 
L 369.037848 132.8754 
L 369.037848 133.316532 
L 369.617848 133.316532 
L 369.617848 133.069963 
L 370.197848 133.069963 
L 370.197848 130.454174 
L 370.777848 130.454174 
L 370.777848 129.434672 
L 371.357848 129.434672 
L 371.357848 127.801074 
L 371.937848 127.801074 
L 371.937848 128.00004 
L 372.517848 128.00004 
L 372.517848 124.590979 
L 373.097848 124.590979 
L 373.097848 122.72857 
L 373.677848 122.72857 
L 373.677848 127.49158 
L 374.257848 127.49158 
L 374.257848 126.266876 
L 374.837848 126.266876 
L 374.837848 125.101367 
L 375.417848 125.101367 
L 375.417848 124.68503 
L 375.997848 124.68503 
L 375.997848 125.250347 
L 377.737849 125.301163 
L 377.737849 125.114865 
L 378.317849 125.114865 
L 378.317849 125.296318 
L 378.897849 125.296318 
L 378.897849 125.476985 
L 379.477849 125.476985 
L 379.477849 127.065375 
L 380.057849 127.065375 
L 380.057849 128.18211 
L 380.637849 128.18211 
L 380.637849 127.757887 
L 381.797849 127.814117 
L 381.797849 128.245157 
L 382.377849 128.245157 
L 382.377849 128.02466 
L 383.537849 128.076426 
L 383.537849 128.22482 
L 384.697849 128.207305 
L 384.697849 126.979565 
L 385.277849 126.979565 
L 385.277849 126.540151 
L 385.857849 126.540151 
L 385.857849 126.952249 
L 387.01785 127.007578 
L 387.01785 127.448718 
L 387.59785 127.448718 
L 387.59785 127.024734 
L 389.33785 127.011866 
L 389.33785 126.773153 
L 389.91785 126.773153 
L 389.91785 126.10954 
L 390.49785 126.10954 
L 390.49785 125.989756 
L 391.07785 125.989756 
L 391.07785 126.308236 
L 391.65785 126.308236 
L 391.65785 125.834884 
L 392.23785 125.834884 
L 392.23785 124.569943 
L 392.81785 124.569943 
L 392.81785 123.415695 
L 393.39785 123.415695 
L 393.39785 124.063357 
L 393.97785 124.063357 
L 393.97785 123.556772 
L 394.55785 123.556772 
L 394.55785 124.151812 
L 395.13785 124.151812 
L 395.13785 123.135401 
L 396.877851 123.12915 
L 396.877851 123.321644 
L 397.457851 123.321644 
L 397.457851 122.437442 
L 398.617851 122.345512 
L 398.617851 122.300878 
L 399.197851 122.300878 
L 399.197851 122.101377 
L 399.777851 122.101377 
L 399.777851 121.714061 
L 400.357851 121.714061 
L 400.357851 118.821554 
L 400.937851 118.821554 
L 400.937851 118.465121 
L 401.517851 118.465121 
L 401.517851 117.735832 
L 402.097851 117.735832 
L 402.097851 114.943912 
L 402.677851 114.943912 
L 402.677851 118.897084 
L 403.257851 118.897084 
L 403.257851 121.350498 
L 403.837851 121.350498 
L 403.837851 120.737376 
L 404.417851 120.737376 
L 404.417851 119.226443 
L 404.997851 119.226443 
L 404.997851 119.49774 
L 405.577851 119.49774 
L 405.577851 118.719036 
L 406.157851 118.719036 
L 406.157851 117.353805 
L 406.737852 117.353805 
L 406.737852 116.798248 
L 407.317852 116.798248 
L 407.317852 117.31474 
L 407.897852 117.31474 
L 407.897852 116.994925 
L 408.477852 116.994925 
L 408.477852 115.955138 
L 409.057852 115.955138 
L 409.057852 114.659904 
L 409.637852 114.659904 
L 409.637852 114.213252 
L 410.217852 114.213252 
L 410.217852 112.95463 
L 410.797852 112.95463 
L 410.797852 112.215352 
L 411.377852 112.215352 
L 411.377852 113.499741 
L 411.957852 113.499741 
L 411.957852 112.698917 
L 412.537852 112.698917 
L 412.537852 115.695677 
L 413.117852 115.695677 
L 413.117852 114.874691 
L 413.697852 114.874691 
L 413.697852 117.79883 
L 414.277852 117.79883 
L 414.277852 116.237835 
L 414.857852 116.237835 
L 414.857852 115.477701 
L 415.437852 115.477701 
L 415.437852 113.472205 
L 416.017852 113.472205 
L 416.017852 113.201232 
L 416.597853 113.201232 
L 416.597853 113.868202 
L 417.177853 113.868202 
L 417.177853 113.347262 
L 417.757853 113.347262 
L 417.757853 112.820031 
L 418.337853 112.820031 
L 418.337853 111.949557 
L 418.917853 111.949557 
L 418.917853 110.937153 
L 419.497853 110.937153 
L 419.497853 108.406962 
L 420.077853 108.406962 
L 420.077853 106.975718 
L 420.657853 106.975718 
L 420.657853 106.475211 
L 421.237853 106.475211 
L 421.237853 106.285513 
L 421.817853 106.285513 
L 421.817853 103.047775 
L 422.397853 103.047775 
L 422.397853 99.3059 
L 422.977853 99.3059 
L 422.977853 101.434165 
L 423.557853 101.434165 
L 423.557853 99.401745 
L 424.137853 99.401745 
L 424.137853 97.13193 
L 424.717853 97.13193 
L 424.717853 96.217978 
L 425.297853 96.217978 
L 425.297853 97.080942 
L 425.877853 97.080942 
L 425.877853 97.653341 
L 426.457854 97.653341 
L 426.457854 97.434209 
L 427.037854 97.434209 
L 427.037854 98.650574 
L 427.617854 98.650574 
L 427.617854 98.335587 
L 428.777854 98.27076 
L 428.777854 98.643931 
L 429.357854 98.643931 
L 429.357854 100.241902 
L 429.937854 100.241902 
L 429.937854 103.415545 
L 430.517854 103.415545 
L 430.517854 100.642127 
L 431.097854 100.642127 
L 431.097854 96.76984 
L 431.677854 96.76984 
L 431.677854 97.450487 
L 432.257854 97.450487 
L 432.257854 95.952053 
L 433.417854 95.996737 
L 433.417854 92.456833 
L 433.997854 92.456833 
L 433.997854 89.922675 
L 434.577854 89.922675 
L 434.577854 87.454791 
L 435.157854 87.454791 
L 435.157854 88.981725 
L 435.737854 88.981725 
L 435.737854 87.657344 
L 436.317855 87.657344 
L 436.317855 87.450855 
L 436.897855 87.450855 
L 436.897855 85.15428 
L 437.477855 85.15428 
L 437.477855 87.412634 
L 438.057855 87.412634 
L 438.057855 87.661505 
L 438.637855 87.661505 
L 438.637855 89.939767 
L 439.217855 89.939767 
L 439.217855 90.931296 
L 439.797855 90.931296 
L 439.797855 91.358385 
L 440.377855 91.358385 
L 440.377855 89.596785 
L 440.957855 89.596785 
L 440.957855 88.44718 
L 441.537855 88.44718 
L 441.537855 87.766017 
L 442.117855 87.766017 
L 442.117855 87.165508 
L 442.697855 87.165508 
L 442.697855 85.509309 
L 443.277855 85.509309 
L 443.277855 82.188887 
L 444.437855 82.169648 
L 444.437855 81.46695 
L 445.017855 81.46695 
L 445.017855 81.91558 
L 445.597855 81.91558 
L 445.597855 79.789478 
L 446.177856 79.789478 
L 446.177856 77.024161 
L 446.757856 77.024161 
L 446.757856 76.747511 
L 447.337856 76.747511 
L 447.337856 81.502657 
L 447.917856 81.502657 
L 447.917856 75.7017 
L 448.497856 75.7017 
L 448.497856 74.771576 
L 449.657856 74.844677 
L 449.657856 71.064047 
L 450.237856 71.064047 
L 450.237856 69.151492 
L 450.817856 69.151492 
L 450.817856 64.386582 
L 451.397856 64.386582 
L 451.397856 62.688359 
L 451.977856 62.688359 
L 451.977856 60.983079 
L 452.557856 60.983079 
L 452.557856 58.138856 
L 453.137856 58.138856 
L 453.137856 64.484215 
L 453.717856 64.484215 
L 453.717856 61.894793 
L 454.297856 61.894793 
L 454.297856 66.252362 
L 454.877856 66.252362 
L 454.877856 62.727887 
L 455.457856 62.727887 
L 455.457856 61.247552 
L 456.037857 61.247552 
L 456.037857 65.211162 
L 456.617857 65.211162 
L 456.617857 64.810286 
L 457.197857 64.810286 
L 457.197857 68.090569 
L 457.777857 68.090569 
L 457.777857 69.30141 
L 458.357857 69.30141 
L 458.357857 68.221789 
L 458.937857 68.221789 
L 458.937857 70.49668 
L 459.517857 70.49668 
L 459.517857 74.870838 
L 460.677857 74.766061 
L 460.677857 73.244809 
L 461.257857 73.244809 
L 461.257857 70.546677 
L 461.837857 70.546677 
L 461.837857 68.549271 
L 462.417857 68.549271 
L 462.417857 71.511708 
L 462.997857 71.511708 
L 462.997857 70.246729 
L 463.577857 70.246729 
L 463.577857 68.072613 
L 464.157857 68.072613 
L 464.157857 72.301956 
L 464.737857 72.301956 
L 464.737857 72.724154 
L 465.317857 72.724154 
L 465.317857 74.638186 
L 465.897857 74.638186 
L 465.897857 73.212796 
L 466.477858 73.212796 
L 466.477858 74.076805 
L 467.057858 74.076805 
L 467.057858 75.494465 
L 467.637858 75.494465 
L 467.637858 78.54452 
L 468.217858 78.54452 
L 468.217858 78.664803 
L 469.377858 78.671444 
L 469.377858 75.634412 
L 470.537858 75.604146 
L 470.537858 73.16643 
L 471.117858 73.16643 
L 471.117858 73.302485 
L 471.697858 73.302485 
L 471.697858 72.143847 
L 472.277858 72.143847 
L 472.277858 71.401356 
L 472.857858 71.401356 
L 472.857858 72.206257 
L 473.437858 72.206257 
L 473.437858 74.400786 
L 474.017858 74.400786 
L 474.017858 74.224505 
L 474.597858 74.224505 
L 474.597858 74.773374 
L 475.177858 74.773374 
L 475.177858 76.631272 
L 475.757858 76.631272 
L 475.757858 77.082516 
L 476.337859 77.082516 
L 476.337859 76.690684 
L 477.497859 76.675153 
L 477.497859 76.356856 
L 478.077859 76.356856 
L 478.077859 79.366528 
L 478.657859 79.366528 
L 478.657859 79.564088 
L 479.237859 79.564088 
L 479.237859 78.741178 
L 479.817859 78.741178 
L 479.817859 80.614853 
L 480.397859 80.614853 
L 480.397859 81.543299 
L 480.977859 81.543299 
L 480.977859 79.143313 
L 482.137859 79.136816 
L 482.137859 80.062286 
L 482.717859 80.062286 
L 482.717859 80.318434 
L 483.297859 80.318434 
L 483.297859 77.010244 
L 484.457859 76.91388 
L 484.457859 75.52169 
L 485.037859 75.52169 
L 485.037859 74.945626 
L 485.617859 74.945626 
L 485.617859 76.891962 
L 486.19786 76.891962 
L 486.19786 78.867778 
L 486.77786 78.867778 
L 486.77786 80.385824 
L 487.35786 80.385824 
L 487.35786 80.248587 
L 487.93786 80.248587 
L 487.93786 79.570571 
L 488.51786 79.570571 
L 488.51786 79.449344 
L 489.09786 79.449344 
L 489.09786 78.329421 
L 489.67786 78.329421 
L 489.67786 77.991228 
L 490.25786 77.991228 
L 490.25786 77.042659 
L 490.83786 77.042659 
L 490.83786 80.52715 
L 491.41786 80.52715 
L 491.41786 80.07251 
L 491.99786 80.07251 
L 491.99786 79.537282 
L 493.15786 79.541444 
L 493.15786 79.273675 
L 493.73786 79.273675 
L 493.73786 79.136604 
L 494.31786 79.136604 
L 494.31786 79.463621 
L 494.89786 79.463621 
L 494.89786 79.303603 
L 496.057861 79.280917 
L 496.057861 80.266194 
L 496.637861 80.266194 
L 496.637861 79.499587 
L 497.797861 79.548012 
L 497.797861 79.615114 
L 498.377861 79.615114 
L 498.377861 80.150007 
L 498.957861 80.150007 
L 498.957861 79.961184 
L 499.537861 79.961184 
L 499.537861 79.416011 
L 500.117861 79.416011 
L 500.117861 79.813029 
L 500.697861 79.813029 
L 500.697861 82.305209 
L 501.277861 82.305209 
L 501.277861 85.39909 
L 501.857861 85.39909 
L 501.857861 87.559515 
L 502.437861 87.559515 
L 502.437861 90.131213 
L 503.017861 90.131213 
L 503.017861 88.332941 
L 503.597861 88.332941 
L 503.597861 90.572721 
L 504.177861 90.572721 
L 504.177861 91.42792 
L 504.757861 91.42792 
L 504.757861 93.057066 
L 505.337861 93.057066 
L 505.337861 91.606765 
L 505.917862 91.606765 
L 505.917862 89.761224 
L 506.497862 89.761224 
L 506.497862 90.1675 
L 507.077862 90.1675 
L 507.077862 90.437443 
L 507.657862 90.437443 
L 507.657862 89.600198 
L 508.237862 89.600198 
L 508.237862 88.897089 
L 508.817862 88.897089 
L 508.817862 91.107828 
L 509.397862 91.107828 
L 509.397862 90.9098 
L 509.977862 90.9098 
L 509.977862 91.220862 
L 510.557862 91.220862 
L 510.557862 91.434005 
L 511.717862 91.495794 
L 511.717862 92.100143 
L 512.877862 92.180998 
L 512.877862 92.539203 
L 513.457862 92.539203 
L 513.457862 91.200213 
L 514.037862 91.200213 
L 514.037862 91.317933 
L 514.617862 91.317933 
L 514.617862 89.624566 
L 515.197862 89.624566 
L 515.197862 88.566187 
L 515.777863 88.566187 
L 515.777863 90.106222 
L 516.937863 90.203906 
L 516.937863 89.828152 
L 518.097863 89.857701 
L 518.097863 89.573775 
L 518.677863 89.573775 
L 518.677863 89.108037 
L 520.417863 89.011831 
L 520.417863 88.689654 
L 520.997863 88.689654 
L 520.997863 85.142736 
L 521.577863 85.142736 
L 521.577863 83.735537 
L 522.157863 83.735537 
L 522.157863 84.49428 
L 522.737863 84.49428 
L 522.737863 84.01136 
L 523.317863 84.01136 
L 523.317863 83.581903 
L 523.897863 83.581903 
L 523.897863 83.116151 
L 524.477863 83.116151 
L 524.477863 83.612067 
L 525.057863 83.612067 
L 525.057863 83.279093 
L 525.637864 83.279093 
L 525.637864 82.21431 
L 526.217864 82.21431 
L 526.217864 80.00304 
L 526.797864 80.00304 
L 526.797864 75.388739 
L 527.377864 75.388739 
L 527.377864 77.300523 
L 527.957864 77.300523 
L 527.957864 76.329549 
L 528.537864 76.329549 
L 528.537864 73.588391 
L 529.117864 73.588391 
L 529.117864 74.699661 
L 529.697864 74.699661 
L 529.697864 75.035462 
L 530.277864 75.035462 
L 530.277864 75.374711 
L 530.857864 75.374711 
L 530.857864 75.577846 
L 531.437864 75.577846 
L 531.437864 73.326593 
L 532.017864 73.326593 
L 532.017864 72.394101 
L 532.597864 72.394101 
L 532.597864 69.332889 
L 533.177864 69.332889 
L 533.177864 68.751771 
L 533.757864 68.751771 
L 533.757864 69.774352 
L 534.337864 69.774352 
L 534.337864 69.074026 
L 534.917864 69.074026 
L 534.917864 66.293311 
L 535.497865 66.293311 
L 535.497865 68.295987 
L 536.077865 68.295987 
L 536.077865 71.56439 
L 536.657865 71.56439 
L 536.657865 69.757906 
L 537.237865 69.757906 
L 537.237865 71.152746 
L 537.817865 71.152746 
L 537.817865 71.925688 
L 538.397865 71.925688 
L 538.397865 69.867663 
L 538.977865 69.867663 
L 538.977865 68.161783 
L 539.557865 68.161783 
L 539.557865 68.484832 
L 540.137865 68.484832 
L 540.137865 70.867214 
L 540.717865 70.867214 
L 540.717865 70.274935 
L 541.297865 70.274935 
L 541.297865 70.678119 
L 541.877865 70.678119 
L 541.877865 70.192254 
L 542.457865 70.192254 
L 542.457865 71.764738 
L 543.037865 71.764738 
L 543.037865 69.693916 
L 543.617865 69.693916 
L 543.617865 69.948362 
L 544.197865 69.948362 
L 544.197865 70.584572 
L 544.777865 70.584572 
L 544.777865 70.288858 
L 545.937866 70.356086 
L 545.937866 71.545559 
L 546.517866 71.545559 
L 546.517866 74.890773 
L 547.097866 74.890773 
L 547.097866 74.577861 
L 547.677866 74.577861 
L 547.677866 75.004046 
L 548.257866 75.004046 
L 548.257866 73.950094 
L 548.837866 73.950094 
L 548.837866 74.67232 
L 549.417866 74.67232 
L 549.417866 75.179121 
L 549.997866 75.179121 
L 549.997866 74.820938 
L 550.577866 74.820938 
L 550.577866 73.766993 
L 551.157866 73.766993 
L 551.157866 72.069504 
L 551.737866 72.069504 
L 551.737866 72.352109 
L 552.897866 72.261529 
L 552.897866 72.928951 
L 553.477866 72.928951 
L 553.477866 73.846811 
L 554.057866 73.846811 
L 554.057866 74.9346 
L 554.637866 74.9346 
L 554.637866 77.241888 
L 555.217866 77.241888 
L 555.217866 77.582093 
L 555.797867 77.582093 
L 555.797867 76.509502 
L 556.377867 76.509502 
L 556.377867 77.500563 
L 556.957867 77.500563 
L 556.957867 76.603349 
L 557.537867 76.603349 
L 557.537867 77.510841 
L 558.117867 77.510841 
L 558.117867 78.392555 
L 558.697867 78.392555 
L 558.697867 77.508027 
L 559.277867 77.508027 
L 559.277867 77.34015 
L 559.857867 77.34015 
L 559.857867 77.201466 
L 560.437867 77.201466 
L 560.437867 77.548431 
L 561.017867 77.548431 
L 561.017867 77.063409 
L 561.597867 77.063409 
L 561.597867 75.83155 
L 562.177867 75.83155 
L 562.177867 75.10867 
L 562.757867 75.10867 
L 562.757867 73.23441 
L 563.337867 73.23441 
L 563.337867 73.639212 
L 563.917867 73.639212 
L 563.917867 74.56718 
L 564.497867 74.56718 
L 564.497867 72.398179 
L 565.657868 72.323318 
L 565.657868 71.396613 
L 566.237868 71.396613 
L 566.237868 71.194123 
L 566.817868 71.194123 
L 566.817868 70.176312 
L 567.397868 70.176312 
L 567.397868 70.542565 
L 567.977868 70.542565 
L 567.977868 71.574019 
L 568.557868 71.574019 
L 568.557868 73.494474 
L 569.137868 73.494474 
L 569.137868 74.075843 
L 569.717868 74.075843 
L 569.717868 72.861976 
L 570.297868 72.861976 
L 570.297868 75.541553 
L 570.877868 75.541553 
L 570.877868 82.481896 
L 571.457868 82.481896 
L 571.457868 83.400408 
L 572.037868 83.400408 
L 572.037868 80.508406 
L 572.617868 80.508406 
L 572.617868 78.926804 
L 573.197868 78.926804 
L 573.197868 81.518543 
L 573.777868 81.518543 
L 573.777868 78.598658 
L 574.357868 78.598658 
L 574.357868 77.086225 
L 574.937868 77.086225 
L 574.937868 78.410905 
L 576.097869 78.414665 
L 576.097869 77.316215 
L 576.677869 77.316215 
L 576.677869 77.673559 
L 577.257869 77.673559 
L 577.257869 76.13785 
L 577.837869 76.13785 
L 577.837869 73.855049 
L 578.417869 73.855049 
L 578.417869 73.266863 
L 578.997869 73.266863 
L 578.997869 71.261284 
L 579.577869 71.261284 
L 579.577869 73.428447 
L 580.157869 73.428447 
L 580.157869 72.17093 
L 580.737869 72.17093 
L 580.737869 71.906009 
L 581.317869 71.906009 
L 581.317869 73.619772 
L 581.897869 73.619772 
L 581.897869 71.783106 
L 582.477869 71.783106 
L 582.477869 70.496229 
L 583.057869 70.496229 
L 583.057869 71.669276 
L 583.637869 71.669276 
L 583.637869 71.356639 
L 584.217869 71.356639 
L 584.217869 71.984439 
L 585.37787 72.023993 
L 585.37787 72.387456 
L 586.53787 72.482444 
L 586.53787 72.603098 
L 587.11787 72.603098 
L 587.11787 72.850869 
L 587.69787 72.850869 
L 587.69787 72.449137 
L 588.85787 72.493046 
L 588.85787 72.585313 
L 590.01787 72.539289 
L 590.01787 71.691432 
L 590.59787 71.691432 
L 590.59787 68.915161 
L 591.17787 68.915161 
L 591.17787 68.375669 
L 591.75787 68.375669 
L 591.75787 68.641612 
L 592.33787 68.641612 
L 592.33787 67.641184 
L 592.91787 67.641184 
L 592.91787 67.974976 
L 593.49787 67.974976 
L 593.49787 67.393529 
L 594.65787 67.474705 
L 594.65787 67.647431 
L 595.237871 67.647431 
L 595.237871 68.041473 
L 595.817871 68.041473 
L 595.817871 67.378001 
L 596.397871 67.378001 
L 596.397871 70.58398 
L 596.977871 70.58398 
L 596.977871 70.44996 
L 597.557871 70.44996 
L 597.557871 70.249385 
L 598.137871 70.249385 
L 598.137871 69.094641 
L 598.717871 69.094641 
L 598.717871 70.057038 
L 599.297871 70.057038 
L 599.297871 69.559446 
L 599.877871 69.559446 
L 599.877871 69.284203 
L 600.457871 69.284203 
L 600.457871 69.825442 
L 601.037871 69.825442 
L 601.037871 69.600771 
L 601.617871 69.600771 
L 601.617871 68.317964 
L 602.197871 68.317964 
L 602.197871 68.095408 
L 602.777871 68.095408 
L 602.777871 67.657258 
L 603.357871 67.657258 
L 603.357871 65.731997 
L 603.937871 65.731997 
L 603.937871 64.666977 
L 604.517871 64.666977 
L 604.517871 64.435267 
L 605.097872 64.435267 
L 605.097872 63.940689 
L 605.677872 63.940689 
L 605.677872 62.135626 
L 606.257872 62.135626 
L 606.257872 61.120974 
L 606.837872 61.120974 
L 606.837872 60.599822 
L 607.417872 60.599822 
L 607.417872 58.377865 
L 607.997872 58.377865 
L 607.997872 57.864613 
L 608.577872 57.864613 
L 608.577872 59.428523 
L 609.157872 59.428523 
L 609.157872 57.807812 
L 609.737872 57.807812 
L 609.737872 57.651451 
L 610.317872 57.651451 
L 610.317872 58.854746 
L 610.897872 58.854746 
L 610.897872 57.75619 
L 611.477872 57.75619 
L 611.477872 54.088183 
L 612.057872 54.088183 
L 612.057872 53.513237 
L 612.637872 53.513237 
L 612.637872 51.424957 
L 613.217872 51.424957 
L 613.217872 49.67567 
L 613.797872 49.67567 
L 613.797872 46.987963 
L 614.377872 46.987963 
L 614.377872 43.394493 
L 614.957873 43.394493 
L 614.957873 45.500499 
L 615.537873 45.500499 
L 615.537873 44.789986 
L 616.117873 44.789986 
L 616.117873 45.234515 
L 616.697873 45.234515 
L 616.697873 47.542422 
L 617.277873 47.542422 
L 617.277873 48.619465 
L 617.857873 48.619465 
L 617.857873 46.905785 
L 618.437873 46.905785 
L 618.437873 44.695814 
L 619.017873 44.695814 
L 619.017873 40.178232 
L 619.597873 40.178232 
L 619.597873 39.705602 
L 620.177873 39.705602 
L 620.177873 39.005501 
L 620.757873 39.005501 
L 620.757873 36.395945 
L 621.337873 36.395945 
L 621.337873 38.417457 
L 621.917873 38.417457 
L 621.917873 40.725796 
L 622.497873 40.725796 
L 622.497873 39.297369 
L 623.077873 39.297369 
L 623.077873 37.765699 
L 623.657873 37.765699 
L 623.657873 35.953074 
L 624.237873 35.953074 
L 624.237873 36.086768 
L 624.817874 36.086768 
L 624.817874 35.663934 
L 625.397874 35.663934 
L 625.397874 37.685858 
L 625.977874 37.685858 
L 625.977874 36.473881 
L 626.557874 36.473881 
L 626.557874 35.440669 
L 627.717874 35.332804 
L 627.717874 35.658149 
L 628.297874 35.658149 
L 628.297874 33.861839 
L 628.877874 33.861839 
L 628.877874 34.985486 
L 629.457874 34.985486 
L 629.457874 37.195813 
L 630.037874 37.195813 
L 630.037874 39.039965 
L 630.617874 39.039965 
L 630.617874 37.279608 
L 631.197874 37.279608 
L 631.197874 35.967055 
L 632.357874 35.908699 
L 632.357874 36.129913 
L 632.937874 36.129913 
L 632.937874 40.018055 
L 633.517874 40.018055 
L 633.517874 44.716296 
L 634.097874 44.716296 
L 634.097874 45.950896 
L 634.677874 45.950896 
L 634.677874 43.92948 
L 635.257875 43.92948 
L 635.257875 44.529546 
L 635.837875 44.529546 
L 635.837875 44.759016 
L 636.417875 44.759016 
L 636.417875 46.717049 
L 636.997875 46.717049 
L 636.997875 45.528715 
L 637.577875 45.528715 
L 637.577875 43.992313 
L 638.157875 43.992313 
L 638.157875 45.473802 
L 638.737875 45.473802 
L 638.737875 46.017372 
L 639.897875 46.123296 
L 639.897875 46.475019 
L 640.477875 46.475019 
L 640.477875 46.266602 
L 641.057875 46.266602 
L 641.057875 46.67794 
L 641.637875 46.67794 
L 641.637875 47.101272 
L 642.217875 47.101272 
L 642.217875 47.740726 
L 642.797875 47.740726 
L 642.797875 47.419166 
L 643.377875 47.419166 
L 643.377875 44.525467 
L 643.957875 44.525467 
L 643.957875 42.05641 
L 644.537875 42.05641 
L 644.537875 44.090211 
L 645.117876 44.090211 
L 645.117876 40.939943 
L 645.697876 40.939943 
L 645.697876 40.506118 
L 646.277876 40.506118 
L 646.277876 39.881461 
L 646.857876 39.881461 
L 646.857876 40.018882 
L 647.437876 40.018882 
L 647.437876 38.85799 
L 648.017876 38.85799 
L 648.017876 39.047607 
L 648.597876 39.047607 
L 648.597876 39.839172 
L 649.177876 39.839172 
L 649.177876 38.68729 
L 649.757876 38.68729 
L 649.757876 40.302128 
L 650.917876 40.310502 
L 650.917876 39.573617 
L 651.497876 39.573617 
L 651.497876 41.732892 
L 652.657876 41.773082 
L 652.657876 42.635465 
L 653.237876 42.635465 
L 653.237876 39.598009 
L 653.817876 39.598009 
L 653.817876 36.632468 
L 654.397876 36.632468 
L 654.397876 36.894017 
L 654.977877 36.894017 
L 654.977877 35.902602 
L 655.557877 35.902602 
L 655.557877 34.366979 
L 656.137877 34.366979 
L 656.137877 34.783191 
L 656.717877 34.783191 
L 656.717877 34.899645 
L 657.297877 34.899645 
L 657.297877 34.444793 
L 657.877877 34.444793 
L 657.877877 34.051689 
L 659.037877 33.94433 
L 659.037877 33.461115 
L 659.617877 33.461115 
L 659.617877 33.852447 
L 660.197877 33.852447 
L 660.197877 35.647658 
L 660.777877 35.647658 
L 660.777877 35.839723 
L 661.357877 35.839723 
L 661.357877 36.829806 
L 661.937877 36.829806 
L 661.937877 35.961304 
L 662.517877 35.961304 
L 662.517877 38.915935 
L 663.097877 38.915935 
L 663.097877 39.626322 
L 663.677877 39.626322 
L 663.677877 40.009268 
L 664.257877 40.009268 
L 664.257877 40.260821 
L 664.837878 40.260821 
L 664.837878 39.097597 
L 665.417878 39.097597 
L 665.417878 38.478457 
L 665.997878 38.478457 
L 665.997878 40.158988 
L 666.577878 40.158988 
L 666.577878 39.766251 
L 667.157878 39.766251 
L 667.157878 41.630879 
L 667.737878 41.630879 
L 667.737878 42.230411 
L 668.317878 42.230411 
L 668.317878 41.640756 
L 668.897878 41.640756 
L 668.897878 41.977176 
L 669.477878 41.977176 
L 669.477878 45.769103 
L 670.057878 45.769103 
L 670.057878 44.792716 
L 670.637878 44.792716 
L 670.637878 44.205754 
L 671.217878 44.205754 
L 671.217878 44.64699 
L 671.797878 44.64699 
L 671.797878 41.302234 
L 672.377878 41.302234 
L 672.377878 41.967826 
L 672.957878 41.967826 
L 672.957878 40.983936 
L 673.537878 40.983936 
L 673.537878 43.077952 
L 674.117878 43.077952 
L 674.117878 44.53978 
L 674.697879 44.53978 
L 674.697879 44.319141 
L 675.277879 44.319141 
L 675.277879 41.938028 
L 675.857879 41.938028 
L 675.857879 44.145692 
L 676.437879 44.145692 
L 676.437879 43.775993 
L 677.017879 43.775993 
L 677.017879 43.478474 
L 677.597879 43.478474 
L 677.597879 42.052534 
L 678.177879 42.052534 
L 678.177879 41.731258 
L 678.757879 41.731258 
L 678.757879 39.965862 
L 679.337879 39.965862 
L 679.337879 40.537864 
L 679.917879 40.537864 
L 679.917879 40.071832 
L 680.497879 40.071832 
L 680.497879 42.025693 
L 681.077879 42.025693 
L 681.077879 43.084369 
L 681.657879 43.084369 
L 681.657879 42.941748 
L 682.237879 42.941748 
L 682.237879 42.458177 
L 682.817879 42.458177 
L 682.817879 43.404879 
L 683.397879 43.404879 
L 683.397879 43.250954 
L 683.977879 43.250954 
L 683.977879 43.895458 
L 684.55788 43.895458 
L 684.55788 45.238463 
L 685.13788 45.238463 
L 685.13788 48.238099 
L 685.71788 48.238099 
L 685.71788 48.847626 
L 686.29788 48.847626 
L 686.29788 49.797937 
L 686.87788 49.797937 
L 686.87788 48.712009 
L 687.45788 48.712009 
L 687.45788 49.442895 
L 688.03788 49.442895 
L 688.03788 47.783566 
L 688.61788 47.783566 
L 688.61788 49.110975 
L 689.19788 49.110975 
L 689.19788 48.164653 
L 689.77788 48.164653 
L 689.77788 50.034292 
L 690.35788 50.034292 
L 690.35788 54.614113 
L 690.93788 54.614113 
L 690.93788 56.484341 
L 691.51788 56.484341 
L 691.51788 55.957072 
L 692.09788 55.957072 
L 692.09788 56.327142 
L 692.67788 56.327142 
L 692.67788 57.808094 
L 693.25788 57.808094 
L 693.25788 56.836968 
L 693.83788 56.836968 
L 693.83788 55.493026 
L 694.417881 55.493026 
L 694.417881 56.795548 
L 694.997881 56.795548 
L 694.997881 56.257605 
L 695.577881 56.257605 
L 695.577881 54.085329 
L 696.157881 54.085329 
L 696.157881 55.756335 
L 696.737881 55.756335 
L 696.737881 53.54099 
L 697.317881 53.54099 
L 697.317881 54.234946 
L 698.477881 54.265105 
L 698.477881 53.400127 
L 699.057881 53.400127 
L 699.057881 53.105575 
L 699.637881 53.105575 
L 699.637881 54.050844 
L 700.217881 54.050844 
L 700.217881 55.660458 
L 700.797881 55.660458 
L 700.797881 56.786013 
L 701.377881 56.786013 
L 701.377881 57.226672 
L 702.537881 57.184298 
L 702.537881 57.752564 
L 703.117881 57.752564 
L 703.117881 55.297323 
L 703.697881 55.297323 
L 703.697881 57.326421 
L 704.277882 57.326421 
L 704.277882 57.482101 
L 704.857882 57.482101 
L 704.857882 57.752045 
L 705.437882 57.752045 
L 705.437882 57.935388 
L 706.017882 57.935388 
L 706.017882 57.716642 
L 706.597882 57.716642 
L 706.597882 56.850985 
L 707.177882 56.850985 
L 707.177882 57.585183 
L 708.917882 57.475163 
L 708.917882 57.865846 
L 709.497882 57.865846 
L 709.497882 56.917156 
L 710.077882 56.917156 
L 710.077882 56.21722 
L 710.657882 56.21722 
L 710.657882 56.864695 
L 711.237882 56.864695 
L 711.237882 56.117241 
L 711.817882 56.117241 
L 711.817882 59.63537 
L 712.397882 59.63537 
L 712.397882 60.764787 
L 712.977882 60.764787 
L 712.977882 60.650097 
L 713.557882 60.650097 
L 713.557882 61.245276 
L 714.137882 61.245276 
L 714.137882 60.927835 
L 714.717883 60.927835 
L 714.717883 60.073343 
L 717.037883 60.031104 
L 717.037883 60.70494 
L 717.617883 60.70494 
L 717.617883 60.386024 
L 718.777883 60.465016 
L 718.777883 60.823651 
L 719.937883 60.73372 
L 719.937883 60.478926 
L 720.517883 60.478926 
L 720.517883 60.048338 
L 721.097883 60.048338 
L 721.097883 57.085162 
L 721.677883 57.085162 
L 721.677883 55.903123 
L 722.257883 55.903123 
L 722.257883 54.418161 
L 722.837883 54.418161 
L 722.837883 54.14107 
L 723.417883 54.14107 
L 723.417883 53.571445 
L 723.997883 53.571445 
L 723.997883 53.827217 
L 724.577884 53.827217 
L 724.577884 54.425867 
L 725.157884 54.425867 
L 725.157884 55.441172 
L 725.737884 55.441172 
L 725.737884 54.917476 
L 726.317884 54.917476 
L 726.317884 52.837973 
L 726.897884 52.837973 
L 726.897884 53.2123 
L 727.477884 53.2123 
L 727.477884 53.734608 
L 728.637884 53.816161 
L 728.637884 54.738995 
L 729.217884 54.738995 
L 729.217884 56.794399 
L 729.797884 56.794399 
L 729.797884 52.73621 
L 730.377884 52.73621 
L 730.377884 51.025874 
L 730.957884 51.025874 
L 730.957884 50.78166 
L 731.537884 50.78166 
L 731.537884 50.279327 
L 732.697884 50.255579 
L 732.697884 50.421182 
L 733.857884 50.332539 
L 733.857884 48.741108 
L 735.017885 48.685316 
L 735.017885 49.694433 
L 735.597885 49.694433 
L 735.597885 50.574259 
L 736.177885 50.574259 
L 736.177885 49.247346 
L 736.757885 49.247346 
L 736.757885 50.217327 
L 737.337885 50.217327 
L 737.337885 49.209993 
L 737.917885 49.209993 
L 737.917885 50.538329 
L 738.497885 50.538329 
L 738.497885 51.167033 
L 739.077885 51.167033 
L 739.077885 50.714329 
L 739.657885 50.714329 
L 739.657885 51.189006 
L 740.237885 51.189006 
L 740.237885 51.39916 
L 740.817885 51.39916 
L 740.817885 50.462698 
L 741.397885 50.462698 
L 741.397885 50.821593 
L 742.557885 50.827687 
L 742.557885 51.877199 
L 743.137885 51.877199 
L 743.137885 52.447519 
L 743.717885 52.447519 
L 743.717885 51.505504 
L 744.297886 51.505504 
L 744.297886 48.961751 
L 744.877886 48.961751 
L 744.877886 48.720107 
L 745.457886 48.720107 
L 745.457886 48.585039 
L 746.037886 48.585039 
L 746.037886 48.386622 
L 746.617886 48.386622 
L 746.617886 48.754646 
L 747.197886 48.754646 
L 747.197886 48.637599 
L 748.357886 48.737598 
L 748.357886 49.029808 
L 748.937886 49.029808 
L 748.937886 49.453532 
L 750.097886 49.359234 
L 750.097886 49.109726 
L 750.677886 49.109726 
L 750.677886 49.543249 
L 751.257886 49.543249 
L 751.257886 49.189362 
L 751.837886 49.189362 
L 751.837886 49.3813 
L 752.417886 49.3813 
L 752.417886 51.259884 
L 752.997886 51.259884 
L 752.997886 51.668657 
L 754.157887 51.725466 
L 754.157887 50.472396 
L 754.737887 50.472396 
L 754.737887 51.864599 
L 756.477887 51.8927 
L 756.477887 51.354783 
L 757.057887 51.354783 
L 757.057887 51.183624 
L 757.637887 51.183624 
L 757.637887 51.320214 
L 758.217887 51.320214 
L 758.217887 51.600224 
L 758.797887 51.600224 
L 758.797887 51.029557 
L 759.377887 51.029557 
L 759.377887 50.424546 
L 760.537887 50.324199 
L 760.537887 51.187441 
L 761.117887 51.187441 
L 761.117887 49.912545 
L 761.697887 49.912545 
L 761.697887 49.110408 
L 762.277887 49.110408 
L 762.277887 46.447949 
L 763.437887 46.337173 
L 763.437887 45.559429 
L 764.017888 45.559429 
L 764.017888 45.782288 
L 764.597888 45.782288 
L 764.597888 44.862049 
L 766.337888 44.901357 
L 766.337888 45.352285 
L 766.917888 45.352285 
L 766.917888 44.268009 
L 768.077888 44.232842 
L 768.077888 43.147477 
L 768.657888 43.147477 
L 768.657888 41.548339 
L 769.237888 41.548339 
L 769.237888 42.524837 
L 769.817888 42.524837 
L 769.817888 42.189432 
L 770.397888 42.189432 
L 770.397888 42.033426 
L 770.977888 42.033426 
L 770.977888 41.344173 
L 771.557888 41.344173 
L 771.557888 41.468907 
L 772.137888 41.468907 
L 772.137888 42.039555 
L 772.717888 42.039555 
L 772.717888 41.140191 
L 773.297888 41.140191 
L 773.297888 39.917241 
L 773.877889 39.917241 
L 773.877889 41.759791 
L 774.457889 41.759791 
L 774.457889 41.625413 
L 775.037889 41.625413 
L 775.037889 42.321358 
L 775.617889 42.321358 
L 775.617889 43.101212 
L 776.197889 43.101212 
L 776.197889 42.143586 
L 776.777889 42.143586 
L 776.777889 41.65852 
L 777.357889 41.65852 
L 777.357889 41.849134 
L 777.937889 41.849134 
L 777.937889 39.848234 
L 778.517889 39.848234 
L 778.517889 38.770928 
L 779.097889 38.770928 
L 779.097889 38.002222 
L 780.837889 37.985794 
L 780.837889 34.626921 
L 781.417889 34.626921 
L 781.417889 32.39675 
L 782.577889 32.41749 
L 782.577889 31.505466 
L 783.157889 31.505466 
L 783.157889 33.318032 
L 783.73789 33.318032 
L 783.73789 32.549792 
L 784.31789 32.549792 
L 784.31789 32.736864 
L 784.89789 32.736864 
L 784.89789 31.712319 
L 785.47789 31.712319 
L 785.47789 32.012747 
L 786.05789 32.012747 
L 786.05789 32.549721 
L 786.63789 32.549721 
L 786.63789 32.174183 
L 787.21789 32.174183 
L 787.21789 33.715737 
L 787.79789 33.715737 
L 787.79789 34.591585 
L 788.37789 34.591585 
L 788.37789 33.426862 
L 788.95789 33.426862 
L 788.95789 33.570305 
L 789.53789 33.570305 
L 789.53789 33.774332 
L 790.11789 33.774332 
L 790.11789 34.073841 
L 790.69789 34.073841 
L 790.69789 34.253605 
L 791.27789 34.253605 
L 791.27789 34.747348 
L 791.85789 34.747348 
L 791.85789 33.033161 
L 793.01789 33.025017 
L 793.01789 32.524704 
L 793.59789 32.524704 
L 793.59789 32.106969 
L 794.177891 32.106969 
L 794.177891 32.659967 
L 794.757891 32.659967 
L 794.757891 31.769425 
L 795.337891 31.769425 
L 795.337891 32.128992 
L 795.917891 32.128992 
L 795.917891 32.437178 
L 796.497891 32.437178 
L 796.497891 32.913262 
L 797.077891 32.913262 
L 797.077891 33.463747 
L 797.657891 33.463747 
L 797.657891 34.92144 
L 798.817891 34.909438 
L 798.817891 34.348633 
L 799.397891 34.348633 
L 799.397891 35.602153 
L 799.977891 35.602153 
L 799.977891 35.782448 
L 800.557891 35.782448 
L 800.557891 34.749858 
L 801.137891 34.749858 
L 801.137891 33.73174 
L 801.717891 33.73174 
L 801.717891 32.626657 
L 802.877891 32.532774 
L 802.877891 33.051048 
L 803.457891 33.051048 
L 803.457891 34.789917 
L 804.037892 34.789917 
L 804.037892 36.745077 
L 804.617892 36.745077 
L 804.617892 35.447462 
L 805.197892 35.447462 
L 805.197892 35.858777 
L 805.777892 35.858777 
L 805.777892 35.190253 
L 806.357892 35.190253 
L 806.357892 33.696253 
L 806.937892 33.696253 
L 806.937892 35.193314 
L 807.517892 35.193314 
L 807.517892 35.361718 
L 808.097892 35.361718 
L 808.097892 35.705012 
L 808.677892 35.705012 
L 808.677892 36.809342 
L 809.257892 36.809342 
L 809.257892 35.64646 
L 810.417892 35.626323 
L 810.417892 33.969671 
L 810.997892 33.969671 
L 810.997892 33.634778 
L 811.577892 33.634778 
L 811.577892 33.139462 
L 812.157892 33.139462 
L 812.157892 34.802204 
L 812.737892 34.802204 
L 812.737892 34.096256 
L 813.317892 34.096256 
L 813.317892 34.924862 
L 813.897893 34.924862 
L 813.897893 33.090867 
L 814.477893 33.090867 
L 814.477893 32.38254 
L 815.057893 32.38254 
L 815.057893 32.694641 
L 816.217893 32.798795 
L 816.217893 31.27132 
L 816.797893 31.27132 
L 816.797893 32.289673 
L 817.377893 32.289673 
L 817.377893 30.299405 
L 817.957893 30.299405 
L 817.957893 27.180553 
L 818.537893 27.180553 
L 818.537893 26.658369 
L 819.117893 26.658369 
L 819.117893 26.373116 
L 819.697893 26.373116 
L 819.697893 25.233636 
L 820.277893 25.233636 
L 820.277893 25.609949 
L 820.857893 25.609949 
L 820.857893 25.337003 
L 822.597893 25.297523 
L 822.597893 24.491571 
L 823.177893 24.491571 
L 823.177893 23.586855 
L 823.757894 23.586855 
L 823.757894 25.346699 
L 824.337894 25.346699 
L 824.337894 24.924032 
L 824.917894 24.924032 
L 824.917894 26.121666 
L 825.497894 26.121666 
L 825.497894 25.423666 
L 826.077894 25.423666 
L 826.077894 24.337063 
L 826.657894 24.337063 
L 826.657894 25.873486 
L 827.237894 25.873486 
L 827.237894 25.491296 
L 827.817894 25.491296 
L 827.817894 23.919231 
L 828.397894 23.919231 
L 828.397894 24.067841 
L 828.977894 24.067841 
L 828.977894 24.270709 
L 829.557894 24.270709 
L 829.557894 23.855056 
L 830.137894 23.855056 
L 830.137894 24.50199 
L 830.717894 24.50199 
L 830.717894 25.488483 
L 831.297894 25.488483 
L 831.297894 25.652782 
L 831.877894 25.652782 
L 831.877894 25.271223 
L 832.457894 25.271223 
L 832.457894 25.467314 
L 833.617895 25.543726 
L 833.617895 28.122026 
L 834.197895 28.122026 
L 834.197895 27.78511 
L 834.777895 27.78511 
L 834.777895 27.631272 
L 835.357895 27.631272 
L 835.357895 28.549278 
L 835.937895 28.549278 
L 835.937895 28.194622 
L 836.517895 28.194622 
L 836.517895 27.603109 
L 837.097895 27.603109 
L 837.097895 27.79086 
L 837.677895 27.79086 
L 837.677895 27.52942 
L 838.257895 27.52942 
L 838.257895 28.628761 
L 838.837895 28.628761 
L 838.837895 28.31314 
L 839.417895 28.31314 
L 839.417895 30.209848 
L 839.997895 30.209848 
L 839.997895 27.971769 
L 840.577895 27.971769 
L 840.577895 28.267427 
L 841.157895 28.267427 
L 841.157895 27.997767 
L 841.737895 27.997767 
L 841.737895 26.028875 
L 842.317895 26.028875 
L 842.317895 25.81108 
L 842.897895 25.81108 
L 842.897895 25.408497 
L 844.057896 25.430955 
L 844.057896 23.850792 
L 844.637896 23.850792 
L 844.637896 24.084244 
L 845.217896 24.084244 
L 845.217896 23.536214 
L 845.797896 23.536214 
L 845.797896 22.563278 
L 846.377896 22.563278 
L 846.377896 22.969087 
L 846.957896 22.969087 
L 846.957896 23.992494 
L 847.537896 23.992494 
L 847.537896 23.723455 
L 848.697896 23.685773 
L 848.697896 23.114651 
L 849.277896 23.114651 
L 849.277896 23.699869 
L 849.857896 23.699869 
L 849.857896 23.867227 
L 850.437896 23.867227 
L 850.437896 23.733748 
L 851.017896 23.733748 
L 851.017896 23.407606 
L 851.597896 23.407606 
L 851.597896 23.67197 
L 852.177896 23.67197 
L 852.177896 23.196894 
L 852.757896 23.196894 
L 852.757896 22.63816 
L 853.337897 22.63816 
L 853.337897 21.283255 
L 854.497897 21.252761 
L 854.497897 21.562443 
L 856.237897 21.480964 
L 856.237897 22.420458 
L 856.817897 22.420458 
L 856.817897 21.979852 
L 857.397897 21.979852 
L 857.397897 21.249643 
L 857.977897 21.249643 
L 857.977897 21.402591 
L 858.557897 21.402591 
L 858.557897 21.76739 
L 859.717897 21.66157 
L 859.717897 22.548708 
L 860.297897 22.548708 
L 860.297897 23.095814 
L 860.877897 23.095814 
L 860.877897 22.560524 
L 862.037897 22.661532 
L 862.037897 21.894154 
L 863.777898 21.864056 
L 863.777898 22.511697 
L 864.357898 22.511697 
L 864.357898 22.931157 
L 864.937898 22.931157 
L 864.937898 21.363749 
L 865.517898 21.363749 
L 865.517898 20.552727 
L 866.097898 20.552727 
L 866.097898 20.852518 
L 866.677898 20.852518 
L 866.677898 21.946446 
L 867.257898 21.946446 
L 867.257898 23.528444 
L 867.837898 23.528444 
L 867.837898 23.159011 
L 868.417898 23.159011 
L 868.417898 22.578441 
L 868.997898 22.578441 
L 868.997898 22.861951 
L 870.157898 22.765112 
L 870.157898 24.528115 
L 870.737898 24.528115 
L 870.737898 23.623438 
L 871.317898 23.623438 
L 871.317898 25.937762 
L 871.897898 25.937762 
L 871.897898 26.241358 
L 872.477898 26.241358 
L 872.477898 28.114511 
L 873.057899 28.114511 
L 873.057899 26.77875 
L 874.217899 26.81 
L 874.217899 26.4225 
L 874.797899 26.4225 
L 874.797899 26.750885 
L 875.957899 26.833691 
L 875.957899 27.381199 
L 876.537899 27.381199 
L 876.537899 27.267051 
L 877.117899 27.267051 
L 877.117899 27.433167 
L 878.277899 27.38126 
L 878.277899 27.177108 
L 878.857899 27.177108 
L 878.857899 26.047721 
L 879.437899 26.047721 
L 879.437899 26.78359 
L 880.017899 26.78359 
L 880.017899 25.740447 
L 881.177899 25.790073 
L 881.177899 27.033228 
L 881.757899 27.033228 
L 881.757899 27.671621 
L 882.337899 27.671621 
L 882.337899 28.141547 
L 882.917899 28.141547 
L 882.917899 29.585924 
L 883.4979 29.585924 
L 883.4979 31.778773 
L 884.0779 31.778773 
L 884.0779 32.275099 
L 884.6579 32.275099 
L 884.6579 31.997414 
L 885.2379 31.997414 
L 885.2379 32.976194 
L 885.8179 32.976194 
L 885.8179 32.621431 
L 886.9779 32.664182 
L 886.9779 33.698889 
L 887.194182 33.698889 
L 887.194182 33.698889 
" clip-path="url(#pd67d725c0b)" style="fill: none; stroke: #3572c6; stroke-width: 1.2; stroke-linecap: square"/>
   </g>
   <g id="line2d_79">
    <path d="M 75.557818 20.552727 
L 887.194182 20.552727 
L 887.194182 20.552727 
" clip-path="url(#pd67d725c0b)" style="fill: none; stroke: #83a83b; stroke-width: 1.2; stroke-linecap: square"/>
   </g>
   <g id="line2d_80">
    <path d="M 75.557818 33.698889 
L 887.194182 33.698889 
L 887.194182 33.698889 
" clip-path="url(#pd67d725c0b)" style="fill: none; stroke: #c44e52; stroke-width: 1.2; stroke-linecap: square"/>
   </g>
   <g id="line2d_81">
    <path d="M 866.097898 300.96 
L 866.097898 7.2 
" clip-path="url(#pd67d725c0b)" style="fill: none; stroke: #83a83b; stroke-width: 1.2; stroke-linecap: square"/>
   </g>
   <g id="line2d_82">
    <path d="M 887.194182 300.96 
L 887.194182 7.2 
" clip-path="url(#pd67d725c0b)" style="fill: none; stroke: #c44e52; stroke-width: 1.2; stroke-linecap: square"/>
   </g>
   <g id="patch_3">
    <path d="M 34.976 300.96 
L 34.976 7.2 
" style="fill: none; stroke: #899ab8; stroke-width: 1.12; stroke-linejoin: miter; stroke-linecap: square"/>
   </g>
   <g id="patch_4">
    <path d="M 927.776 300.96 
L 927.776 7.2 
" style="fill: none; stroke: #899ab8; stroke-width: 1.12; stroke-linejoin: miter; stroke-linecap: square"/>
   </g>
   <g id="patch_5">
    <path d="M 34.976 300.96 
L 927.776 300.96 
" style="fill: none; stroke: #899ab8; stroke-width: 1.12; stroke-linejoin: miter; stroke-linecap: square"/>
   </g>
   <g id="patch_6">
    <path d="M 34.976 7.2 
L 927.776 7.2 
" style="fill: none; stroke: #899ab8; stroke-width: 1.12; stroke-linejoin: miter; stroke-linecap: square"/>
   </g>
   <g id="text_16">
    <!-- 123519.47 -->
    <g style="fill: #83a83b" transform="translate(181.407829 20.552727) scale(0.132 -0.132)">
     <defs>
      <path id="DejaVuSans-39" d="M 703 97 
L 703 672 
Q 941 559 1184 500 
Q 1428 441 1663 441 
Q 2288 441 2617 861 
Q 2947 1281 2994 2138 
Q 2813 1869 2534 1725 
Q 2256 1581 1919 1581 
Q 1219 1581 811 2004 
Q 403 2428 403 3163 
Q 403 3881 828 4315 
Q 1253 4750 1959 4750 
Q 2769 4750 3195 4129 
Q 3622 3509 3622 2328 
Q 3622 1225 3098 567 
Q 2575 -91 1691 -91 
Q 1453 -91 1209 -44 
Q 966 3 703 97 
z
M 1959 2075 
Q 2384 2075 2632 2365 
Q 2881 2656 2881 3163 
Q 2881 3666 2632 3958 
Q 2384 4250 1959 4250 
Q 1534 4250 1286 3958 
Q 1038 3666 1038 3163 
Q 1038 2656 1286 2365 
Q 1534 2075 1959 2075 
z
" transform="scale(0.015625)"/>
      <path id="DejaVuSans-2e" d="M 684 794 
L 1344 794 
L 1344 0 
L 684 0 
L 684 794 
z
" transform="scale(0.015625)"/>
      <path id="DejaVuSans-37" d="M 525 4666 
L 3525 4666 
L 3525 4397 
L 1831 0 
L 1172 0 
L 2766 4134 
L 525 4134 
L 525 4666 
z
" transform="scale(0.015625)"/>
     </defs>
     <use xlink:href="#DejaVuSans-31"/>
     <use xlink:href="#DejaVuSans-32" transform="translate(63.623047 0)"/>
     <use xlink:href="#DejaVuSans-33" transform="translate(127.246094 0)"/>
     <use xlink:href="#DejaVuSans-35" transform="translate(190.869141 0)"/>
     <use xlink:href="#DejaVuSans-31" transform="translate(254.492188 0)"/>
     <use xlink:href="#DejaVuSans-39" transform="translate(318.115234 0)"/>
     <use xlink:href="#DejaVuSans-2e" transform="translate(381.738281 0)"/>
     <use xlink:href="#DejaVuSans-34" transform="translate(413.525391 0)"/>
     <use xlink:href="#DejaVuSans-37" transform="translate(477.148438 0)"/>
    </g>
   </g>
   <g id="text_17">
    <!-- 64073.6157357552 -->
    <g style="fill: #c44e52" transform="translate(181.407829 33.698889) scale(0.132 -0.132)">
     <use xlink:href="#DejaVuSans-36"/>
     <use xlink:href="#DejaVuSans-34" transform="translate(63.623047 0)"/>
     <use xlink:href="#DejaVuSans-30" transform="translate(127.246094 0)"/>
     <use xlink:href="#DejaVuSans-37" transform="translate(190.869141 0)"/>
     <use xlink:href="#DejaVuSans-33" transform="translate(254.492188 0)"/>
     <use xlink:href="#DejaVuSans-2e" transform="translate(318.115234 0)"/>
     <use xlink:href="#DejaVuSans-36" transform="translate(349.902344 0)"/>
     <use xlink:href="#DejaVuSans-31" transform="translate(413.525391 0)"/>
     <use xlink:href="#DejaVuSans-35" transform="translate(477.148438 0)"/>
     <use xlink:href="#DejaVuSans-37" transform="translate(540.771484 0)"/>
     <use xlink:href="#DejaVuSans-33" transform="translate(604.394531 0)"/>
     <use xlink:href="#DejaVuSans-35" transform="translate(668.017578 0)"/>
     <use xlink:href="#DejaVuSans-37" transform="translate(731.640625 0)"/>
     <use xlink:href="#DejaVuSans-35" transform="translate(795.263672 0)"/>
     <use xlink:href="#DejaVuSans-35" transform="translate(858.886719 0)"/>
     <use xlink:href="#DejaVuSans-32" transform="translate(922.509766 0)"/>
    </g>
   </g>
   <g id="legend_1">
    <g id="patch_7">
     <path d="M 43.796 183.886875 
L 142.133094 183.886875 
Q 144.653094 183.886875 144.653094 181.366875 
L 144.653094 126.793125 
Q 144.653094 124.273125 142.133094 124.273125 
L 43.796 124.273125 
Q 41.276 124.273125 41.276 126.793125 
L 41.276 181.366875 
Q 41.276 183.886875 43.796 183.886875 
z
" style="fill: #373e4b; opacity: 0.8; stroke: #cccccc; stroke-width: 0.16; stroke-linejoin: miter"/>
    </g>
    <g id="line2d_83">
     <path d="M 46.316 134.477156 
L 46.316 134.477156 
L 58.916 134.477156 
L 58.916 134.477156 
L 71.516 134.477156 
" style="fill: none; stroke: #3572c6; stroke-width: 1.2; stroke-linecap: square"/>
    </g>
    <g id="text_18">
     <!-- USD/BTC -->
     <g style="fill: #b1bed6" transform="translate(81.596 138.887156) scale(0.126 -0.126)">
      <defs>
       <path id="DejaVuSans-55" d="M 556 4666 
L 1191 4666 
L 1191 1831 
Q 1191 1081 1462 751 
Q 1734 422 2344 422 
Q 2950 422 3222 751 
Q 3494 1081 3494 1831 
L 3494 4666 
L 4128 4666 
L 4128 1753 
Q 4128 841 3676 375 
Q 3225 -91 2344 -91 
Q 1459 -91 1007 375 
Q 556 841 556 1753 
L 556 4666 
z
" transform="scale(0.015625)"/>
       <path id="DejaVuSans-53" d="M 3425 4513 
L 3425 3897 
Q 3066 4069 2747 4153 
Q 2428 4238 2131 4238 
Q 1616 4238 1336 4038 
Q 1056 3838 1056 3469 
Q 1056 3159 1242 3001 
Q 1428 2844 1947 2747 
L 2328 2669 
Q 3034 2534 3370 2195 
Q 3706 1856 3706 1288 
Q 3706 609 3251 259 
Q 2797 -91 1919 -91 
Q 1588 -91 1214 -16 
Q 841 59 441 206 
L 441 856 
Q 825 641 1194 531 
Q 1563 422 1919 422 
Q 2459 422 2753 634 
Q 3047 847 3047 1241 
Q 3047 1584 2836 1778 
Q 2625 1972 2144 2069 
L 1759 2144 
Q 1053 2284 737 2584 
Q 422 2884 422 3419 
Q 422 4038 858 4394 
Q 1294 4750 2059 4750 
Q 2388 4750 2728 4690 
Q 3069 4631 3425 4513 
z
" transform="scale(0.015625)"/>
       <path id="DejaVuSans-2f" d="M 1625 4666 
L 2156 4666 
L 531 -594 
L 0 -594 
L 1625 4666 
z
" transform="scale(0.015625)"/>
       <path id="DejaVuSans-42" d="M 1259 2228 
L 1259 519 
L 2272 519 
Q 2781 519 3026 730 
Q 3272 941 3272 1375 
Q 3272 1813 3026 2020 
Q 2781 2228 2272 2228 
L 1259 2228 
z
M 1259 4147 
L 1259 2741 
L 2194 2741 
Q 2656 2741 2882 2914 
Q 3109 3088 3109 3444 
Q 3109 3797 2882 3972 
Q 2656 4147 2194 4147 
L 1259 4147 
z
M 628 4666 
L 2241 4666 
Q 2963 4666 3353 4366 
Q 3744 4066 3744 3513 
Q 3744 3084 3544 2831 
Q 3344 2578 2956 2516 
Q 3422 2416 3680 2098 
Q 3938 1781 3938 1306 
Q 3938 681 3513 340 
Q 3088 0 2303 0 
L 628 0 
L 628 4666 
z
" transform="scale(0.015625)"/>
       <path id="DejaVuSans-54" d="M -19 4666 
L 3928 4666 
L 3928 4134 
L 2272 4134 
L 2272 0 
L 1638 0 
L 1638 4134 
L -19 4134 
L -19 4666 
z
" transform="scale(0.015625)"/>
       <path id="DejaVuSans-43" d="M 4122 4306 
L 4122 3641 
Q 3803 3938 3442 4084 
Q 3081 4231 2675 4231 
Q 1875 4231 1450 3742 
Q 1025 3253 1025 2328 
Q 1025 1406 1450 917 
Q 1875 428 2675 428 
Q 3081 428 3442 575 
Q 3803 722 4122 1019 
L 4122 359 
Q 3791 134 3420 21 
Q 3050 -91 2638 -91 
Q 1578 -91 968 557 
Q 359 1206 359 2328 
Q 359 3453 968 4101 
Q 1578 4750 2638 4750 
Q 3056 4750 3426 4639 
Q 3797 4528 4122 4306 
z
" transform="scale(0.015625)"/>
      </defs>
      <use xlink:href="#DejaVuSans-55"/>
      <use xlink:href="#DejaVuSans-53" transform="translate(73.193359 0)"/>
      <use xlink:href="#DejaVuSans-44" transform="translate(136.669922 0)"/>
      <use xlink:href="#DejaVuSans-2f" transform="translate(213.671875 0)"/>
      <use xlink:href="#DejaVuSans-42" transform="translate(247.363281 0)"/>
      <use xlink:href="#DejaVuSans-54" transform="translate(315.966797 0)"/>
      <use xlink:href="#DejaVuSans-43" transform="translate(371.175781 0)"/>
     </g>
    </g>
    <g id="line2d_84">
     <path d="M 46.316 152.971594 
L 46.316 152.971594 
L 58.916 152.971594 
L 58.916 152.971594 
L 71.516 152.971594 
" style="fill: none; stroke: #83a83b; stroke-width: 1.2; stroke-linecap: square"/>
    </g>
    <g id="text_19">
     <!-- Max -->
     <g style="fill: #b1bed6" transform="translate(81.596 157.381594) scale(0.126 -0.126)">
      <defs>
       <path id="DejaVuSans-4d" d="M 628 4666 
L 1569 4666 
L 2759 1491 
L 3956 4666 
L 4897 4666 
L 4897 0 
L 4281 0 
L 4281 4097 
L 3078 897 
L 2444 897 
L 1241 4097 
L 1241 0 
L 628 0 
L 628 4666 
z
" transform="scale(0.015625)"/>
       <path id="DejaVuSans-78" d="M 3513 3500 
L 2247 1797 
L 3578 0 
L 2900 0 
L 1881 1375 
L 863 0 
L 184 0 
L 1544 1831 
L 300 3500 
L 978 3500 
L 1906 2253 
L 2834 3500 
L 3513 3500 
z
" transform="scale(0.015625)"/>
      </defs>
      <use xlink:href="#DejaVuSans-4d"/>
      <use xlink:href="#DejaVuSans-61" transform="translate(86.279297 0)"/>
      <use xlink:href="#DejaVuSans-78" transform="translate(147.558594 0)"/>
     </g>
    </g>
    <g id="line2d_85">
     <path d="M 46.316 171.466031 
L 46.316 171.466031 
L 58.916 171.466031 
L 58.916 171.466031 
L 71.516 171.466031 
" style="fill: none; stroke: #c44e52; stroke-width: 1.2; stroke-linecap: square"/>
    </g>
    <g id="text_20">
     <!-- local_Min -->
     <g style="fill: #b1bed6" transform="translate(81.596 175.876031) scale(0.126 -0.126)">
      <defs>
       <path id="DejaVuSans-6c" d="M 603 4863 
L 1178 4863 
L 1178 0 
L 603 0 
L 603 4863 
z
" transform="scale(0.015625)"/>
       <path id="DejaVuSans-6f" d="M 1959 3097 
Q 1497 3097 1228 2736 
Q 959 2375 959 1747 
Q 959 1119 1226 758 
Q 1494 397 1959 397 
Q 2419 397 2687 759 
Q 2956 1122 2956 1747 
Q 2956 2369 2687 2733 
Q 2419 3097 1959 3097 
z
M 1959 3584 
Q 2709 3584 3137 3096 
Q 3566 2609 3566 1747 
Q 3566 888 3137 398 
Q 2709 -91 1959 -91 
Q 1206 -91 779 398 
Q 353 888 353 1747 
Q 353 2609 779 3096 
Q 1206 3584 1959 3584 
z
" transform="scale(0.015625)"/>
       <path id="DejaVuSans-63" d="M 3122 3366 
L 3122 2828 
Q 2878 2963 2633 3030 
Q 2388 3097 2138 3097 
Q 1578 3097 1268 2742 
Q 959 2388 959 1747 
Q 959 1106 1268 751 
Q 1578 397 2138 397 
Q 2388 397 2633 464 
Q 2878 531 3122 666 
L 3122 134 
Q 2881 22 2623 -34 
Q 2366 -91 2075 -91 
Q 1284 -91 818 406 
Q 353 903 353 1747 
Q 353 2603 823 3093 
Q 1294 3584 2113 3584 
Q 2378 3584 2631 3529 
Q 2884 3475 3122 3366 
z
" transform="scale(0.015625)"/>
       <path id="DejaVuSans-5f" d="M 3263 -1063 
L 3263 -1509 
L -63 -1509 
L -63 -1063 
L 3263 -1063 
z
" transform="scale(0.015625)"/>
       <path id="DejaVuSans-69" d="M 603 3500 
L 1178 3500 
L 1178 0 
L 603 0 
L 603 3500 
z
M 603 4863 
L 1178 4863 
L 1178 4134 
L 603 4134 
L 603 4863 
z
" transform="scale(0.015625)"/>
       <path id="DejaVuSans-6e" d="M 3513 2113 
L 3513 0 
L 2938 0 
L 2938 2094 
Q 2938 2591 2744 2837 
Q 2550 3084 2163 3084 
Q 1697 3084 1428 2787 
Q 1159 2491 1159 1978 
L 1159 0 
L 581 0 
L 581 3500 
L 1159 3500 
L 1159 2956 
Q 1366 3272 1645 3428 
Q 1925 3584 2291 3584 
Q 2894 3584 3203 3211 
Q 3513 2838 3513 2113 
z
" transform="scale(0.015625)"/>
      </defs>
      <use xlink:href="#DejaVuSans-6c"/>
      <use xlink:href="#DejaVuSans-6f" transform="translate(27.783203 0)"/>
      <use xlink:href="#DejaVuSans-63" transform="translate(88.964844 0)"/>
      <use xlink:href="#DejaVuSans-61" transform="translate(143.945312 0)"/>
      <use xlink:href="#DejaVuSans-6c" transform="translate(205.224609 0)"/>
      <use xlink:href="#DejaVuSans-5f" transform="translate(233.007812 0)"/>
      <use xlink:href="#DejaVuSans-4d" transform="translate(283.007812 0)"/>
      <use xlink:href="#DejaVuSans-69" transform="translate(369.287109 0)"/>
      <use xlink:href="#DejaVuSans-6e" transform="translate(397.070312 0)"/>
     </g>
    </g>
   </g>
  </g>
 </g>
 <defs>
  <clipPath id="pd67d725c0b">
   <rect x="34.976" y="7.2" width="892.8" height="293.76"/>
  </clipPath>
 </defs>
</svg>
