<?xml version="1.0" encoding="utf-8" standalone="no"?>
<!DOCTYPE svg PUBLIC "-//W3C//DTD SVG 1.1//EN"
  "http://www.w3.org/Graphics/SVG/1.1/DTD/svg11.dtd">
<svg xmlns:xlink="http://www.w3.org/1999/xlink" width="934.976pt" height="358.470384pt" viewBox="0 0 934.976 358.470384" xmlns="http://www.w3.org/2000/svg" version="1.1">
 <metadata>
  <rdf:RDF xmlns:dc="http://purl.org/dc/elements/1.1/" xmlns:cc="http://creativecommons.org/ns#" xmlns:rdf="http://www.w3.org/1999/02/22-rdf-syntax-ns#">
   <cc:Work>
    <dc:type rdf:resource="http://purl.org/dc/dcmitype/StillImage"/>
    <dc:date>2022-04-06T22:54:08.129249</dc:date>
    <dc:format>image/svg+xml</dc:format>
    <dc:creator>
     <cc:Agent>
      <dc:title>Matplotlib v3.5.1, https://matplotlib.org/</dc:title>
     </cc:Agent>
    </dc:creator>
   </cc:Work>
  </rdf:RDF>
 </metadata>
 <defs>
  <style type="text/css">*{stroke-linejoin: round; stroke-linecap: butt}</style>
 </defs>
 <g id="figure_1">
  <g id="patch_1">
   <path d="M 0 358.470384 
L 934.976 358.470384 
L 934.976 0 
L 0 0 
z
" style="fill: #373e4b"/>
  </g>
  <g id="axes_1">
   <g id="patch_2">
    <path d="M 34.976 301.139691 
L 927.776 301.139691 
L 927.776 7.379691 
L 34.976 7.379691 
z
" style="fill: #373e4b"/>
   </g>
   <g id="matplotlib.axis_1">
    <g id="xtick_1">
     <g id="line2d_1">
      <path d="M 158.025505 301.139691 
L 158.025505 7.379691 
" clip-path="url(#p9ea8c3bddb)" style="fill: none; stroke: #546379; stroke-width: 1.12; stroke-linecap: square"/>
     </g>
     <g id="line2d_2"/>
     <g id="text_1">
      <!-- 2012 -->
      <g style="fill: #b1bed6" transform="translate(128.944465 331.064545)rotate(-30)scale(0.126 -0.126)">
       <defs>
        <path id="DejaVuSans-32" d="M 1228 531 
L 3431 531 
L 3431 0 
L 469 0 
L 469 531 
Q 828 903 1448 1529 
Q 2069 2156 2228 2338 
Q 2531 2678 2651 2914 
Q 2772 3150 2772 3378 
Q 2772 3750 2511 3984 
Q 2250 4219 1831 4219 
Q 1534 4219 1204 4116 
Q 875 4013 500 3803 
L 500 4441 
Q 881 4594 1212 4672 
Q 1544 4750 1819 4750 
Q 2544 4750 2975 4387 
Q 3406 4025 3406 3419 
Q 3406 3131 3298 2873 
Q 3191 2616 2906 2266 
Q 2828 2175 2409 1742 
Q 1991 1309 1228 531 
z
" transform="scale(0.015625)"/>
        <path id="DejaVuSans-30" d="M 2034 4250 
Q 1547 4250 1301 3770 
Q 1056 3291 1056 2328 
Q 1056 1369 1301 889 
Q 1547 409 2034 409 
Q 2525 409 2770 889 
Q 3016 1369 3016 2328 
Q 3016 3291 2770 3770 
Q 2525 4250 2034 4250 
z
M 2034 4750 
Q 2819 4750 3233 4129 
Q 3647 3509 3647 2328 
Q 3647 1150 3233 529 
Q 2819 -91 2034 -91 
Q 1250 -91 836 529 
Q 422 1150 422 2328 
Q 422 3509 836 4129 
Q 1250 4750 2034 4750 
z
" transform="scale(0.015625)"/>
        <path id="DejaVuSans-31" d="M 794 531 
L 1825 531 
L 1825 4091 
L 703 3866 
L 703 4441 
L 1819 4666 
L 2450 4666 
L 2450 531 
L 3481 531 
L 3481 0 
L 794 0 
L 794 531 
z
" transform="scale(0.015625)"/>
       </defs>
       <use xlink:href="#DejaVuSans-32"/>
       <use xlink:href="#DejaVuSans-30" x="63.623047"/>
       <use xlink:href="#DejaVuSans-31" x="127.246094"/>
       <use xlink:href="#DejaVuSans-32" x="190.869141"/>
      </g>
     </g>
    </g>
    <g id="xtick_2">
     <g id="line2d_3">
      <path d="M 300.204464 301.139691 
L 300.204464 7.379691 
" clip-path="url(#p9ea8c3bddb)" style="fill: none; stroke: #546379; stroke-width: 1.12; stroke-linecap: square"/>
     </g>
     <g id="line2d_4"/>
     <g id="text_2">
      <!-- 2014 -->
      <g style="fill: #b1bed6" transform="translate(271.123424 331.064545)rotate(-30)scale(0.126 -0.126)">
       <defs>
        <path id="DejaVuSans-34" d="M 2419 4116 
L 825 1625 
L 2419 1625 
L 2419 4116 
z
M 2253 4666 
L 3047 4666 
L 3047 1625 
L 3713 1625 
L 3713 1100 
L 3047 1100 
L 3047 0 
L 2419 0 
L 2419 1100 
L 313 1100 
L 313 1709 
L 2253 4666 
z
" transform="scale(0.015625)"/>
       </defs>
       <use xlink:href="#DejaVuSans-32"/>
       <use xlink:href="#DejaVuSans-30" x="63.623047"/>
       <use xlink:href="#DejaVuSans-31" x="127.246094"/>
       <use xlink:href="#DejaVuSans-34" x="190.869141"/>
      </g>
     </g>
    </g>
    <g id="xtick_3">
     <g id="line2d_5">
      <path d="M 442.188924 301.139691 
L 442.188924 7.379691 
" clip-path="url(#p9ea8c3bddb)" style="fill: none; stroke: #546379; stroke-width: 1.12; stroke-linecap: square"/>
     </g>
     <g id="line2d_6"/>
     <g id="text_3">
      <!-- 2016 -->
      <g style="fill: #b1bed6" transform="translate(413.107884 331.064545)rotate(-30)scale(0.126 -0.126)">
       <defs>
        <path id="DejaVuSans-36" d="M 2113 2584 
Q 1688 2584 1439 2293 
Q 1191 2003 1191 1497 
Q 1191 994 1439 701 
Q 1688 409 2113 409 
Q 2538 409 2786 701 
Q 3034 994 3034 1497 
Q 3034 2003 2786 2293 
Q 2538 2584 2113 2584 
z
M 3366 4563 
L 3366 3988 
Q 3128 4100 2886 4159 
Q 2644 4219 2406 4219 
Q 1781 4219 1451 3797 
Q 1122 3375 1075 2522 
Q 1259 2794 1537 2939 
Q 1816 3084 2150 3084 
Q 2853 3084 3261 2657 
Q 3669 2231 3669 1497 
Q 3669 778 3244 343 
Q 2819 -91 2113 -91 
Q 1303 -91 875 529 
Q 447 1150 447 2328 
Q 447 3434 972 4092 
Q 1497 4750 2381 4750 
Q 2619 4750 2861 4703 
Q 3103 4656 3366 4563 
z
" transform="scale(0.015625)"/>
       </defs>
       <use xlink:href="#DejaVuSans-32"/>
       <use xlink:href="#DejaVuSans-30" x="63.623047"/>
       <use xlink:href="#DejaVuSans-31" x="127.246094"/>
       <use xlink:href="#DejaVuSans-36" x="190.869141"/>
      </g>
     </g>
    </g>
    <g id="xtick_4">
     <g id="line2d_7">
      <path d="M 584.367883 301.139691 
L 584.367883 7.379691 
" clip-path="url(#p9ea8c3bddb)" style="fill: none; stroke: #546379; stroke-width: 1.12; stroke-linecap: square"/>
     </g>
     <g id="line2d_8"/>
     <g id="text_4">
      <!-- 2018 -->
      <g style="fill: #b1bed6" transform="translate(555.286843 331.064545)rotate(-30)scale(0.126 -0.126)">
       <defs>
        <path id="DejaVuSans-38" d="M 2034 2216 
Q 1584 2216 1326 1975 
Q 1069 1734 1069 1313 
Q 1069 891 1326 650 
Q 1584 409 2034 409 
Q 2484 409 2743 651 
Q 3003 894 3003 1313 
Q 3003 1734 2745 1975 
Q 2488 2216 2034 2216 
z
M 1403 2484 
Q 997 2584 770 2862 
Q 544 3141 544 3541 
Q 544 4100 942 4425 
Q 1341 4750 2034 4750 
Q 2731 4750 3128 4425 
Q 3525 4100 3525 3541 
Q 3525 3141 3298 2862 
Q 3072 2584 2669 2484 
Q 3125 2378 3379 2068 
Q 3634 1759 3634 1313 
Q 3634 634 3220 271 
Q 2806 -91 2034 -91 
Q 1263 -91 848 271 
Q 434 634 434 1313 
Q 434 1759 690 2068 
Q 947 2378 1403 2484 
z
M 1172 3481 
Q 1172 3119 1398 2916 
Q 1625 2713 2034 2713 
Q 2441 2713 2670 2916 
Q 2900 3119 2900 3481 
Q 2900 3844 2670 4047 
Q 2441 4250 2034 4250 
Q 1625 4250 1398 4047 
Q 1172 3844 1172 3481 
z
" transform="scale(0.015625)"/>
       </defs>
       <use xlink:href="#DejaVuSans-32"/>
       <use xlink:href="#DejaVuSans-30" x="63.623047"/>
       <use xlink:href="#DejaVuSans-31" x="127.246094"/>
       <use xlink:href="#DejaVuSans-38" x="190.869141"/>
      </g>
     </g>
    </g>
    <g id="xtick_5">
     <g id="line2d_9">
      <path d="M 726.352343 301.139691 
L 726.352343 7.379691 
" clip-path="url(#p9ea8c3bddb)" style="fill: none; stroke: #546379; stroke-width: 1.12; stroke-linecap: square"/>
     </g>
     <g id="line2d_10"/>
     <g id="text_5">
      <!-- 2020 -->
      <g style="fill: #b1bed6" transform="translate(697.271303 331.064545)rotate(-30)scale(0.126 -0.126)">
       <use xlink:href="#DejaVuSans-32"/>
       <use xlink:href="#DejaVuSans-30" x="63.623047"/>
       <use xlink:href="#DejaVuSans-32" x="127.246094"/>
       <use xlink:href="#DejaVuSans-30" x="190.869141"/>
      </g>
     </g>
    </g>
    <g id="xtick_6">
     <g id="line2d_11">
      <path d="M 868.531302 301.139691 
L 868.531302 7.379691 
" clip-path="url(#p9ea8c3bddb)" style="fill: none; stroke: #546379; stroke-width: 1.12; stroke-linecap: square"/>
     </g>
     <g id="line2d_12"/>
     <g id="text_6">
      <!-- 2022 -->
      <g style="fill: #b1bed6" transform="translate(839.450263 331.064545)rotate(-30)scale(0.126 -0.126)">
       <use xlink:href="#DejaVuSans-32"/>
       <use xlink:href="#DejaVuSans-30" x="63.623047"/>
       <use xlink:href="#DejaVuSans-32" x="127.246094"/>
       <use xlink:href="#DejaVuSans-32" x="190.869141"/>
      </g>
     </g>
    </g>
    <g id="text_7">
     <!-- Date -->
     <g style="fill: #b1bed6" transform="translate(464.166875 348.275634)scale(0.144 -0.144)">
      <defs>
       <path id="DejaVuSans-44" d="M 1259 4147 
L 1259 519 
L 2022 519 
Q 2988 519 3436 956 
Q 3884 1394 3884 2338 
Q 3884 3275 3436 3711 
Q 2988 4147 2022 4147 
L 1259 4147 
z
M 628 4666 
L 1925 4666 
Q 3281 4666 3915 4102 
Q 4550 3538 4550 2338 
Q 4550 1131 3912 565 
Q 3275 0 1925 0 
L 628 0 
L 628 4666 
z
" transform="scale(0.015625)"/>
       <path id="DejaVuSans-61" d="M 2194 1759 
Q 1497 1759 1228 1600 
Q 959 1441 959 1056 
Q 959 750 1161 570 
Q 1363 391 1709 391 
Q 2188 391 2477 730 
Q 2766 1069 2766 1631 
L 2766 1759 
L 2194 1759 
z
M 3341 1997 
L 3341 0 
L 2766 0 
L 2766 531 
Q 2569 213 2275 61 
Q 1981 -91 1556 -91 
Q 1019 -91 701 211 
Q 384 513 384 1019 
Q 384 1609 779 1909 
Q 1175 2209 1959 2209 
L 2766 2209 
L 2766 2266 
Q 2766 2663 2505 2880 
Q 2244 3097 1772 3097 
Q 1472 3097 1187 3025 
Q 903 2953 641 2809 
L 641 3341 
Q 956 3463 1253 3523 
Q 1550 3584 1831 3584 
Q 2591 3584 2966 3190 
Q 3341 2797 3341 1997 
z
" transform="scale(0.015625)"/>
       <path id="DejaVuSans-74" d="M 1172 4494 
L 1172 3500 
L 2356 3500 
L 2356 3053 
L 1172 3053 
L 1172 1153 
Q 1172 725 1289 603 
Q 1406 481 1766 481 
L 2356 481 
L 2356 0 
L 1766 0 
Q 1100 0 847 248 
Q 594 497 594 1153 
L 594 3053 
L 172 3053 
L 172 3500 
L 594 3500 
L 594 4494 
L 1172 4494 
z
" transform="scale(0.015625)"/>
       <path id="DejaVuSans-65" d="M 3597 1894 
L 3597 1613 
L 953 1613 
Q 991 1019 1311 708 
Q 1631 397 2203 397 
Q 2534 397 2845 478 
Q 3156 559 3463 722 
L 3463 178 
Q 3153 47 2828 -22 
Q 2503 -91 2169 -91 
Q 1331 -91 842 396 
Q 353 884 353 1716 
Q 353 2575 817 3079 
Q 1281 3584 2069 3584 
Q 2775 3584 3186 3129 
Q 3597 2675 3597 1894 
z
M 3022 2063 
Q 3016 2534 2758 2815 
Q 2500 3097 2075 3097 
Q 1594 3097 1305 2825 
Q 1016 2553 972 2059 
L 3022 2063 
z
" transform="scale(0.015625)"/>
      </defs>
      <use xlink:href="#DejaVuSans-44"/>
      <use xlink:href="#DejaVuSans-61" x="77.001953"/>
      <use xlink:href="#DejaVuSans-74" x="138.28125"/>
      <use xlink:href="#DejaVuSans-65" x="177.490234"/>
     </g>
    </g>
   </g>
   <g id="matplotlib.axis_2">
    <g id="ytick_1">
     <g id="line2d_13">
      <path d="M 34.976 254.863557 
L 927.776 254.863557 
" clip-path="url(#p9ea8c3bddb)" style="fill: none; stroke: #546379; stroke-width: 1.12; stroke-linecap: square"/>
     </g>
     <g id="line2d_14"/>
     <g id="text_8">
      <!-- $\mathdefault{10^{0}}$ -->
      <g style="fill: #b1bed6" transform="translate(7.2 259.650573)scale(0.126 -0.126)">
       <use xlink:href="#DejaVuSans-31" transform="translate(0 0.765625)"/>
       <use xlink:href="#DejaVuSans-30" transform="translate(63.623047 0.765625)"/>
       <use xlink:href="#DejaVuSans-30" transform="translate(128.203125 39.046875)scale(0.7)"/>
      </g>
     </g>
    </g>
    <g id="ytick_2">
     <g id="line2d_15">
      <path d="M 34.976 206.288249 
L 927.776 206.288249 
" clip-path="url(#p9ea8c3bddb)" style="fill: none; stroke: #546379; stroke-width: 1.12; stroke-linecap: square"/>
     </g>
     <g id="line2d_16"/>
     <g id="text_9">
      <!-- $\mathdefault{10^{1}}$ -->
      <g style="fill: #b1bed6" transform="translate(7.2 211.075264)scale(0.126 -0.126)">
       <use xlink:href="#DejaVuSans-31" transform="translate(0 0.684375)"/>
       <use xlink:href="#DejaVuSans-30" transform="translate(63.623047 0.684375)"/>
       <use xlink:href="#DejaVuSans-31" transform="translate(128.203125 38.965625)scale(0.7)"/>
      </g>
     </g>
    </g>
    <g id="ytick_3">
     <g id="line2d_17">
      <path d="M 34.976 157.71294 
L 927.776 157.71294 
" clip-path="url(#p9ea8c3bddb)" style="fill: none; stroke: #546379; stroke-width: 1.12; stroke-linecap: square"/>
     </g>
     <g id="line2d_18"/>
     <g id="text_10">
      <!-- $\mathdefault{10^{2}}$ -->
      <g style="fill: #b1bed6" transform="translate(7.2 162.499956)scale(0.126 -0.126)">
       <use xlink:href="#DejaVuSans-31" transform="translate(0 0.765625)"/>
       <use xlink:href="#DejaVuSans-30" transform="translate(63.623047 0.765625)"/>
       <use xlink:href="#DejaVuSans-32" transform="translate(128.203125 39.046875)scale(0.7)"/>
      </g>
     </g>
    </g>
    <g id="ytick_4">
     <g id="line2d_19">
      <path d="M 34.976 109.137632 
L 927.776 109.137632 
" clip-path="url(#p9ea8c3bddb)" style="fill: none; stroke: #546379; stroke-width: 1.12; stroke-linecap: square"/>
     </g>
     <g id="line2d_20"/>
     <g id="text_11">
      <!-- $\mathdefault{10^{3}}$ -->
      <g style="fill: #b1bed6" transform="translate(7.2 113.924648)scale(0.126 -0.126)">
       <defs>
        <path id="DejaVuSans-33" d="M 2597 2516 
Q 3050 2419 3304 2112 
Q 3559 1806 3559 1356 
Q 3559 666 3084 287 
Q 2609 -91 1734 -91 
Q 1441 -91 1130 -33 
Q 819 25 488 141 
L 488 750 
Q 750 597 1062 519 
Q 1375 441 1716 441 
Q 2309 441 2620 675 
Q 2931 909 2931 1356 
Q 2931 1769 2642 2001 
Q 2353 2234 1838 2234 
L 1294 2234 
L 1294 2753 
L 1863 2753 
Q 2328 2753 2575 2939 
Q 2822 3125 2822 3475 
Q 2822 3834 2567 4026 
Q 2313 4219 1838 4219 
Q 1578 4219 1281 4162 
Q 984 4106 628 3988 
L 628 4550 
Q 988 4650 1302 4700 
Q 1616 4750 1894 4750 
Q 2613 4750 3031 4423 
Q 3450 4097 3450 3541 
Q 3450 3153 3228 2886 
Q 3006 2619 2597 2516 
z
" transform="scale(0.015625)"/>
       </defs>
       <use xlink:href="#DejaVuSans-31" transform="translate(0 0.765625)"/>
       <use xlink:href="#DejaVuSans-30" transform="translate(63.623047 0.765625)"/>
       <use xlink:href="#DejaVuSans-33" transform="translate(128.203125 39.046875)scale(0.7)"/>
      </g>
     </g>
    </g>
    <g id="ytick_5">
     <g id="line2d_21">
      <path d="M 34.976 60.562324 
L 927.776 60.562324 
" clip-path="url(#p9ea8c3bddb)" style="fill: none; stroke: #546379; stroke-width: 1.12; stroke-linecap: square"/>
     </g>
     <g id="line2d_22"/>
     <g id="text_12">
      <!-- $\mathdefault{10^{4}}$ -->
      <g style="fill: #b1bed6" transform="translate(7.2 65.34934)scale(0.126 -0.126)">
       <use xlink:href="#DejaVuSans-31" transform="translate(0 0.684375)"/>
       <use xlink:href="#DejaVuSans-30" transform="translate(63.623047 0.684375)"/>
       <use xlink:href="#DejaVuSans-34" transform="translate(128.203125 38.965625)scale(0.7)"/>
      </g>
     </g>
    </g>
    <g id="ytick_6">
     <g id="line2d_23">
      <path d="M 34.976 11.987016 
L 927.776 11.987016 
" clip-path="url(#p9ea8c3bddb)" style="fill: none; stroke: #546379; stroke-width: 1.12; stroke-linecap: square"/>
     </g>
     <g id="line2d_24"/>
     <g id="text_13">
      <!-- $\mathdefault{10^{5}}$ -->
      <g style="fill: #b1bed6" transform="translate(7.2 16.774031)scale(0.126 -0.126)">
       <defs>
        <path id="DejaVuSans-35" d="M 691 4666 
L 3169 4666 
L 3169 4134 
L 1269 4134 
L 1269 2991 
Q 1406 3038 1543 3061 
Q 1681 3084 1819 3084 
Q 2600 3084 3056 2656 
Q 3513 2228 3513 1497 
Q 3513 744 3044 326 
Q 2575 -91 1722 -91 
Q 1428 -91 1123 -41 
Q 819 9 494 109 
L 494 744 
Q 775 591 1075 516 
Q 1375 441 1709 441 
Q 2250 441 2565 725 
Q 2881 1009 2881 1497 
Q 2881 1984 2565 2268 
Q 2250 2553 1709 2553 
Q 1456 2553 1204 2497 
Q 953 2441 691 2322 
L 691 4666 
z
" transform="scale(0.015625)"/>
       </defs>
       <use xlink:href="#DejaVuSans-31" transform="translate(0 0.684375)"/>
       <use xlink:href="#DejaVuSans-30" transform="translate(63.623047 0.684375)"/>
       <use xlink:href="#DejaVuSans-35" transform="translate(128.203125 38.965625)scale(0.7)"/>
      </g>
     </g>
    </g>
    <g id="ytick_7">
     <g id="line2d_25"/>
    </g>
    <g id="ytick_8">
     <g id="line2d_26"/>
    </g>
    <g id="ytick_9">
     <g id="line2d_27"/>
    </g>
    <g id="ytick_10">
     <g id="line2d_28"/>
    </g>
    <g id="ytick_11">
     <g id="line2d_29"/>
    </g>
    <g id="ytick_12">
     <g id="line2d_30"/>
    </g>
    <g id="ytick_13">
     <g id="line2d_31"/>
    </g>
    <g id="ytick_14">
     <g id="line2d_32"/>
    </g>
    <g id="ytick_15">
     <g id="line2d_33"/>
    </g>
    <g id="ytick_16">
     <g id="line2d_34"/>
    </g>
    <g id="ytick_17">
     <g id="line2d_35"/>
    </g>
    <g id="ytick_18">
     <g id="line2d_36"/>
    </g>
    <g id="ytick_19">
     <g id="line2d_37"/>
    </g>
    <g id="ytick_20">
     <g id="line2d_38"/>
    </g>
    <g id="ytick_21">
     <g id="line2d_39"/>
    </g>
    <g id="ytick_22">
     <g id="line2d_40"/>
    </g>
    <g id="ytick_23">
     <g id="line2d_41"/>
    </g>
    <g id="ytick_24">
     <g id="line2d_42"/>
    </g>
    <g id="ytick_25">
     <g id="line2d_43"/>
    </g>
    <g id="ytick_26">
     <g id="line2d_44"/>
    </g>
    <g id="ytick_27">
     <g id="line2d_45"/>
    </g>
    <g id="ytick_28">
     <g id="line2d_46"/>
    </g>
    <g id="ytick_29">
     <g id="line2d_47"/>
    </g>
    <g id="ytick_30">
     <g id="line2d_48"/>
    </g>
    <g id="ytick_31">
     <g id="line2d_49"/>
    </g>
    <g id="ytick_32">
     <g id="line2d_50"/>
    </g>
    <g id="ytick_33">
     <g id="line2d_51"/>
    </g>
    <g id="ytick_34">
     <g id="line2d_52"/>
    </g>
    <g id="ytick_35">
     <g id="line2d_53"/>
    </g>
    <g id="ytick_36">
     <g id="line2d_54"/>
    </g>
    <g id="ytick_37">
     <g id="line2d_55"/>
    </g>
    <g id="ytick_38">
     <g id="line2d_56"/>
    </g>
    <g id="ytick_39">
     <g id="line2d_57"/>
    </g>
    <g id="ytick_40">
     <g id="line2d_58"/>
    </g>
    <g id="ytick_41">
     <g id="line2d_59"/>
    </g>
    <g id="ytick_42">
     <g id="line2d_60"/>
    </g>
    <g id="ytick_43">
     <g id="line2d_61"/>
    </g>
    <g id="ytick_44">
     <g id="line2d_62"/>
    </g>
    <g id="ytick_45">
     <g id="line2d_63"/>
    </g>
    <g id="ytick_46">
     <g id="line2d_64"/>
    </g>
    <g id="ytick_47">
     <g id="line2d_65"/>
    </g>
    <g id="ytick_48">
     <g id="line2d_66"/>
    </g>
    <g id="ytick_49">
     <g id="line2d_67"/>
    </g>
    <g id="ytick_50">
     <g id="line2d_68"/>
    </g>
    <g id="ytick_51">
     <g id="line2d_69"/>
    </g>
    <g id="ytick_52">
     <g id="line2d_70"/>
    </g>
    <g id="ytick_53">
     <g id="line2d_71"/>
    </g>
    <g id="ytick_54">
     <g id="line2d_72"/>
    </g>
   </g>
   <g id="line2d_73">
    <path d="M 75.557818 287.786964 
L 75.557818 284.108807 
L 76.141316 284.108807 
L 76.141316 276.4163 
L 76.724814 276.4163 
L 76.724814 284.969987 
L 77.308312 284.969987 
L 77.308312 280.262553 
L 77.891809 280.262553 
L 77.891809 281.718026 
L 78.475307 281.718026 
L 78.475307 280.97774 
L 80.2258 280.97774 
L 80.2258 281.718026 
L 80.809298 281.718026 
L 80.809298 284.108807 
L 81.392796 284.108807 
L 81.392796 285.867824 
L 81.976294 285.867824 
L 81.976294 284.108807 
L 82.559792 284.108807 
L 82.559792 285.867824 
L 83.726787 285.867824 
L 83.726787 284.108807 
L 84.310285 284.108807 
L 84.310285 282.485237 
L 84.893783 282.485237 
L 84.893783 284.108807 
L 85.47728 284.108807 
L 85.47728 282.485237 
L 86.060778 282.485237 
L 86.060778 280.262553 
L 87.811272 280.262553 
L 87.811272 278.901049 
L 88.394769 278.901049 
L 88.394769 278.251891 
L 88.978267 278.251891 
L 88.978267 273.164339 
L 89.561765 273.164339 
L 89.561765 274.193616 
L 90.145263 274.193616 
L 90.145263 277.010592 
L 90.72876 277.010592 
L 90.72876 272.66794 
L 91.895756 272.66794 
L 91.895756 271.708866 
L 92.479254 271.708866 
L 92.479254 265.291226 
L 93.062752 265.291226 
L 93.062752 260.105095 
L 93.646249 260.105095 
L 93.646249 256.622574 
L 94.229747 256.622574 
L 94.229747 255.506124 
L 94.813245 255.506124 
L 94.813245 253.045553 
L 95.396743 253.045553 
L 95.396743 253.239988 
L 95.980241 253.239988 
L 95.980241 254.036157 
L 96.563738 254.036157 
L 96.563738 257.560328 
L 97.147236 257.560328 
L 97.147236 255.724737 
L 98.314232 255.724737 
L 98.314232 255.94564 
L 98.897729 255.94564 
L 98.897729 256.622574 
L 99.481227 256.622574 
L 99.481227 257.086241 
L 100.064725 257.086241 
L 100.064725 256.394508 
L 100.648223 256.394508 
L 100.648223 257.086241 
L 101.231721 257.086241 
L 101.231721 257.801428 
L 101.815218 257.801428 
L 101.815218 259.836353 
L 102.398716 259.836353 
L 102.398716 258.045315 
L 102.982214 258.045315 
L 102.982214 257.086241 
L 103.565712 257.086241 
L 103.565712 259.570991 
L 104.732707 259.570991 
L 104.732707 260.377305 
L 105.316205 260.377305 
L 105.316205 260.105095 
L 105.899703 260.105095 
L 105.899703 260.653074 
L 106.483201 260.653074 
L 106.483201 255.075579 
L 107.066698 255.075579 
L 107.066698 253.045553 
L 107.650196 253.045553 
L 107.650196 251.19384 
L 108.233694 251.19384 
L 108.233694 248.068887 
L 108.817192 248.068887 
L 108.817192 243.545699 
L 109.400689 243.545699 
L 109.400689 234.224801 
L 109.984187 234.224801 
L 109.984187 225.883669 
L 110.567685 225.883669 
L 110.567685 228.076703 
L 111.151183 228.076703 
L 111.151183 226.979811 
L 111.734681 226.979811 
L 111.734681 219.248274 
L 112.318178 219.248274 
L 112.318178 209.568356 
L 112.901676 209.568356 
L 112.901676 209.791334 
L 113.485174 209.791334 
L 113.485174 212.98526 
L 114.068672 212.98526 
L 114.068672 214.393179 
L 114.65217 214.393179 
L 114.65217 211.127946 
L 115.235667 211.127946 
L 115.235667 209.274672 
L 115.819165 209.274672 
L 115.819165 207.437056 
L 116.402663 207.437056 
L 116.402663 197.664359 
L 116.986161 197.664359 
L 116.986161 192.537795 
L 117.569658 192.537795 
L 117.569658 181.52747 
L 118.153156 181.52747 
L 118.153156 187.068176 
L 118.736654 187.068176 
L 118.736654 191.676175 
L 119.320152 191.676175 
L 119.320152 194.362395 
L 119.90365 194.362395 
L 119.90365 197.193075 
L 120.487147 197.193075 
L 120.487147 195.15626 
L 121.070645 195.15626 
L 121.070645 194.017624 
L 121.654143 194.017624 
L 121.654143 194.627757 
L 122.237641 194.627757 
L 122.237641 196.718683 
L 122.821138 196.718683 
L 122.821138 195.800752 
L 123.404636 195.800752 
L 123.404636 197.510729 
L 123.988134 197.510729 
L 123.988134 198.42067 
L 124.571632 198.42067 
L 124.571632 198.816644 
L 125.15513 198.816644 
L 125.15513 199.295779 
L 126.322125 199.28064 
L 126.322125 198.950305 
L 127.489121 199.039884 
L 127.489121 199.099816 
L 128.072618 199.099816 
L 128.072618 200.161377 
L 128.656116 200.161377 
L 128.656116 203.4871 
L 129.239614 203.4871 
L 129.239614 207.017989 
L 129.823112 207.017989 
L 129.823112 205.562517 
L 130.40661 205.562517 
L 130.40661 203.524078 
L 131.573605 203.542591 
L 131.573605 202.886138 
L 132.157103 202.886138 
L 132.157103 203.394937 
L 132.740601 203.394937 
L 132.740601 206.267163 
L 133.324098 206.267163 
L 133.324098 207.593572 
L 133.907596 207.593572 
L 133.907596 209.816256 
L 134.491094 209.816256 
L 134.491094 209.568356 
L 135.074592 209.568356 
L 135.074592 212.272971 
L 135.65809 212.272971 
L 135.65809 215.40852 
L 136.241587 215.40852 
L 136.241587 216.40694 
L 136.825085 216.40694 
L 136.825085 220.164769 
L 137.408583 220.164769 
L 137.408583 217.454969 
L 137.992081 217.454969 
L 137.992081 217.779807 
L 138.575579 217.779807 
L 138.575579 218.938602 
L 139.159076 218.938602 
L 139.159076 221.122895 
L 139.742574 221.122895 
L 139.742574 219.801384 
L 140.326072 219.801384 
L 140.326072 220.784676 
L 140.90957 220.784676 
L 140.90957 221.81605 
L 141.493067 221.81605 
L 141.493067 224.438881 
L 142.076565 224.438881 
L 142.076565 223.751974 
L 142.660063 223.751974 
L 142.660063 226.315316 
L 143.243561 226.315316 
L 143.243561 234.787394 
L 143.827059 234.787394 
L 143.827059 229.612752 
L 144.410556 229.612752 
L 144.410556 231.687245 
L 144.994054 231.687245 
L 144.994054 229.108943 
L 146.16105 229.171265 
L 146.16105 229.804826 
L 146.744547 229.804826 
L 146.744547 231.407824 
L 147.328045 231.407824 
L 147.328045 231.063673 
L 147.911543 231.063673 
L 147.911543 230.927569 
L 148.495041 230.927569 
L 148.495041 234.145641 
L 149.078539 234.145641 
L 149.078539 236.660041 
L 149.662036 236.660041 
L 149.662036 237.292516 
L 150.245534 237.292516 
L 150.245534 235.702945 
L 150.829032 235.702945 
L 150.829032 235.449283 
L 151.41253 235.449283 
L 151.41253 231.687245 
L 151.996027 231.687245 
L 151.996027 230.995511 
L 152.579525 230.995511 
L 152.579525 231.269489 
L 153.163023 231.269489 
L 153.163023 231.407824 
L 153.746521 231.407824 
L 153.746521 229.485667 
L 154.330019 229.485667 
L 154.330019 230.325741 
L 154.913516 230.325741 
L 154.913516 229.296464 
L 155.497014 229.296464 
L 155.497014 225.200551 
L 157.247508 225.148909 
L 157.247508 223.274669 
L 157.831005 223.274669 
L 157.831005 219.09287 
L 158.414503 219.09287 
L 158.414503 215.053958 
L 158.998001 215.053958 
L 158.998001 213.218367 
L 159.581499 213.218367 
L 159.581499 213.51342 
L 160.164996 213.51342 
L 160.164996 214.393179 
L 160.748494 214.393179 
L 160.748494 213.903265 
L 161.331992 213.903265 
L 161.331992 215.150067 
L 161.91549 215.150067 
L 161.91549 215.473632 
L 162.498988 215.473632 
L 162.498988 216.785199 
L 163.082485 216.785199 
L 163.082485 218.072811 
L 163.665983 218.072811 
L 163.665983 217.889207 
L 164.249481 217.889207 
L 164.249481 217.099809 
L 164.832979 217.099809 
L 164.832979 217.999178 
L 165.416476 217.999178 
L 165.416476 217.276642 
L 165.999974 217.276642 
L 165.999974 218.183746 
L 166.583472 218.183746 
L 166.583472 222.037416 
L 167.16697 222.037416 
L 167.16697 223.703754 
L 167.750468 223.703754 
L 167.750468 222.532755 
L 168.333965 222.532755 
L 168.333965 220.700962 
L 168.917463 220.700962 
L 168.917463 220.995427 
L 169.500961 220.995427 
L 169.500961 221.165557 
L 170.084459 221.165557 
L 170.084459 220.742777 
L 170.667956 220.742777 
L 170.667956 220.953108 
L 171.834952 220.995427 
L 171.834952 219.09287 
L 172.41845 219.09287 
L 172.41845 219.287304 
L 173.001948 219.287304 
L 173.001948 221.122895 
L 173.585445 221.122895 
L 173.585445 221.72815 
L 174.168943 221.72815 
L 174.168943 222.037416 
L 174.752441 222.037416 
L 174.752441 221.553441 
L 175.335939 221.553441 
L 175.335939 221.037831 
L 176.502934 221.08032 
L 176.502934 221.165557 
L 177.086432 221.165557 
L 177.086432 221.33707 
L 177.66993 221.33707 
L 177.66993 221.037831 
L 178.836925 220.953108 
L 178.836925 220.124082 
L 179.420423 220.124082 
L 179.420423 219.681633 
L 180.003921 219.681633 
L 180.003921 220.246378 
L 180.587419 220.246378 
L 180.587419 220.534523 
L 181.170917 220.534523 
L 181.170917 220.742777 
L 181.754414 220.742777 
L 181.754414 220.287301 
L 182.337912 220.287301 
L 182.337912 220.493118 
L 183.504908 220.493118 
L 183.504908 220.868724 
L 184.088405 220.868724 
L 184.088405 220.493118 
L 184.671903 220.493118 
L 184.671903 220.328304 
L 187.005894 220.246378 
L 187.005894 220.042944 
L 187.589392 220.042944 
L 187.589392 219.801384 
L 188.17289 219.801384 
L 188.17289 218.977064 
L 188.756388 218.977064 
L 188.756388 218.220854 
L 189.339885 218.220854 
L 189.339885 217.9258 
L 189.923383 217.9258 
L 189.923383 216.13604 
L 190.506881 216.13604 
L 190.506881 215.441051 
L 191.090379 215.441051 
L 191.090379 214.42418 
L 191.673877 214.42418 
L 191.673877 215.182201 
L 192.840872 215.117982 
L 192.840872 214.768229 
L 194.007868 214.705256 
L 194.007868 214.611147 
L 194.591365 214.611147 
L 194.591365 213.87302 
L 195.174863 213.87302 
L 195.174863 212.469999 
L 195.758361 212.469999 
L 195.758361 211.529787 
L 196.341859 211.529787 
L 196.341859 207.661007 
L 196.925357 207.661007 
L 196.925357 207.303818 
L 197.508854 207.303818 
L 197.508854 208.722955 
L 198.67585 208.62846 
L 198.67585 208.001455 
L 199.259348 208.001455 
L 199.259348 206.036604 
L 199.842846 206.036604 
L 199.842846 203.878641 
L 200.426343 203.878641 
L 200.426343 203.616808 
L 201.009841 203.616808 
L 201.009841 203.084562 
L 201.593339 203.084562 
L 201.593339 201.92108 
L 202.176837 201.92108 
L 202.176837 197.220508 
L 202.760334 197.220508 
L 202.760334 205.359669 
L 203.343832 205.359669 
L 203.343832 205.767334 
L 203.92733 205.767334 
L 203.92733 204.296773 
L 204.510828 204.296773 
L 204.510828 204.010786 
L 205.094326 204.010786 
L 205.094326 205.542144 
L 205.677823 205.542144 
L 205.677823 205.07892 
L 206.261321 205.07892 
L 206.261321 203.766029 
L 206.844819 203.766029 
L 206.844819 204.010786 
L 207.428317 204.010786 
L 207.428317 203.376553 
L 208.011814 203.376553 
L 208.011814 202.477185 
L 208.595312 202.477185 
L 208.595312 201.36255 
L 209.17881 201.36255 
L 209.17881 201.750262 
L 209.762308 201.750262 
L 209.762308 202.024239 
L 210.345806 202.024239 
L 210.345806 201.64843 
L 210.929303 201.64843 
L 210.929303 201.446231 
L 211.512801 201.446231 
L 211.512801 200.640126 
L 212.096299 200.640126 
L 212.096299 201.446231 
L 212.679797 201.446231 
L 212.679797 202.162574 
L 213.846792 202.266924 
L 213.846792 202.459583 
L 215.013788 202.54774 
L 215.013788 202.689562 
L 215.597286 202.689562 
L 215.597286 203.230053 
L 216.180783 203.230053 
L 216.180783 204.880648 
L 216.764281 204.880648 
L 216.764281 203.954051 
L 217.347779 203.954051 
L 217.347779 205.019242 
L 217.931277 205.019242 
L 217.931277 204.335199 
L 218.514775 204.335199 
L 218.514775 204.201013 
L 219.098272 204.201013 
L 219.098272 203.954051 
L 219.68177 203.954051 
L 219.68177 203.747318 
L 220.265268 203.747318 
L 220.265268 202.760832 
L 220.848766 202.760832 
L 220.848766 202.618532 
L 221.432263 202.618532 
L 221.432263 201.64843 
L 222.599259 201.580815 
L 222.599259 201.3125 
L 223.182757 201.3125 
L 223.182757 201.163059 
L 223.766255 201.163059 
L 223.766255 199.662409 
L 224.349752 199.662409 
L 224.349752 199.910418 
L 224.93325 199.910418 
L 224.93325 199.493579 
L 226.100246 199.570153 
L 226.100246 200.114094 
L 226.683743 200.114094 
L 226.683743 199.755071 
L 227.267241 199.755071 
L 227.267241 200.035524 
L 228.434237 199.941625 
L 228.434237 199.848142 
L 229.017735 199.848142 
L 229.017735 200.082631 
L 229.601232 200.082631 
L 229.601232 199.894832 
L 230.18473 199.894832 
L 230.18473 199.43252 
L 230.768228 199.43252 
L 230.768228 198.728006 
L 231.935223 198.683825 
L 231.935223 197.002036 
L 232.518721 197.002036 
L 232.518721 196.176204 
L 233.102219 196.176204 
L 233.102219 193.923497 
L 233.685717 193.923497 
L 233.685717 194.230956 
L 234.269215 194.230956 
L 234.269215 191.898966 
L 234.852712 191.898966 
L 234.852712 190.386688 
L 235.43621 190.386688 
L 235.43621 190.646395 
L 236.019708 190.646395 
L 236.019708 189.511613 
L 236.603206 189.511613 
L 236.603206 187.845757 
L 237.186703 187.845757 
L 237.186703 187.557305 
L 237.770201 187.557305 
L 237.770201 185.032081 
L 238.353699 185.032081 
L 238.353699 183.480807 
L 238.937197 183.480807 
L 238.937197 182.749406 
L 240.104192 182.832516 
L 240.104192 180.872382 
L 240.68769 180.872382 
L 240.68769 180.316946 
L 241.271188 180.316946 
L 241.271188 176.013722 
L 241.854686 176.013722 
L 241.854686 173.672331 
L 242.438184 173.672331 
L 242.438184 174.879466 
L 243.021681 174.879466 
L 243.021681 173.685821 
L 243.605179 173.685821 
L 243.605179 171.459539 
L 244.188677 171.459539 
L 244.188677 165.162142 
L 244.772175 165.162142 
L 244.772175 164.663578 
L 245.355672 164.663578 
L 245.355672 160.218797 
L 245.93917 160.218797 
L 245.93917 159.357616 
L 246.522668 159.357616 
L 246.522668 154.339576 
L 247.106166 154.339576 
L 247.106166 150.300636 
L 247.689664 150.300636 
L 247.689664 144.512664 
L 248.273161 144.512664 
L 248.273161 153.02239 
L 248.856659 153.02239 
L 248.856659 157.71294 
L 249.440157 157.71294 
L 249.440157 159.040718 
L 250.023655 159.040718 
L 250.023655 152.587751 
L 250.607152 152.587751 
L 250.607152 150.241336 
L 251.19065 150.241336 
L 251.19065 151.071697 
L 251.774148 151.071697 
L 251.774148 149.941472 
L 252.357646 149.941472 
L 252.357646 157.028013 
L 252.941144 157.028013 
L 252.941144 154.585511 
L 253.524641 154.585511 
L 253.524641 155.069398 
L 254.108139 155.069398 
L 254.108139 154.64015 
L 254.691637 154.64015 
L 254.691637 155.32216 
L 255.275135 155.32216 
L 255.275135 153.290959 
L 255.858632 153.290959 
L 255.858632 153.514527 
L 256.44213 153.514527 
L 256.44213 152.720535 
L 257.025628 152.720535 
L 257.025628 151.617649 
L 257.609126 151.617649 
L 257.609126 151.808134 
L 258.192624 151.808134 
L 258.192624 152.292008 
L 258.776121 152.292008 
L 258.776121 153.618517 
L 259.359619 153.618517 
L 259.359619 155.416549 
L 259.943117 155.416549 
L 259.943117 156.463808 
L 260.526615 156.463808 
L 260.526615 156.905835 
L 261.110113 156.905835 
L 261.110113 157.734047 
L 261.69361 157.734047 
L 261.69361 156.151971 
L 262.277108 156.151971 
L 262.277108 156.021115 
L 262.860606 156.021115 
L 262.860606 156.907866 
L 263.444104 156.907866 
L 263.444104 158.872889 
L 264.027601 158.872889 
L 264.027601 160.650811 
L 264.611099 160.650811 
L 264.611099 162.409829 
L 265.194597 162.409829 
L 265.194597 163.781878 
L 265.778095 163.781878 
L 265.778095 160.433698 
L 266.361593 160.433698 
L 266.361593 158.139137 
L 266.94509 158.139137 
L 266.94509 158.344636 
L 267.528588 158.344636 
L 267.528588 159.471958 
L 268.695584 159.474251 
L 268.695584 158.355508 
L 269.279081 158.355508 
L 269.279081 157.988987 
L 269.862579 157.988987 
L 269.862579 156.443934 
L 270.446077 156.443934 
L 270.446077 156.693712 
L 271.029575 156.693712 
L 271.029575 156.372543 
L 271.613073 156.372543 
L 271.613073 157.130371 
L 272.19657 157.130371 
L 272.19657 156.356711 
L 272.780068 156.356711 
L 272.780068 158.121922 
L 273.363566 158.121922 
L 273.363566 157.861132 
L 273.947064 157.861132 
L 273.947064 155.619973 
L 274.530561 155.619973 
L 274.530561 155.887197 
L 275.114059 155.887197 
L 275.114059 154.271368 
L 275.697557 154.271368 
L 275.697557 153.032527 
L 276.281055 153.032527 
L 276.281055 152.163507 
L 276.864553 152.163507 
L 276.864553 153.409327 
L 277.44805 153.409327 
L 277.44805 154.189094 
L 278.031548 154.189094 
L 278.031548 152.747192 
L 278.615046 152.747192 
L 278.615046 153.166449 
L 279.198544 153.166449 
L 279.198544 150.743199 
L 279.782042 150.743199 
L 279.782042 153.338913 
L 280.949037 153.405887 
L 280.949037 153.064658 
L 281.532535 153.064658 
L 281.532535 152.668982 
L 282.116033 152.668982 
L 282.116033 156.91599 
L 282.69953 156.91599 
L 282.69953 153.656775 
L 283.283028 153.656775 
L 283.283028 153.154548 
L 283.866526 153.154548 
L 283.866526 152.602647 
L 284.450024 152.602647 
L 284.450024 151.355389 
L 285.033522 151.355389 
L 285.033522 150.029225 
L 285.617019 150.029225 
L 285.617019 144.60766 
L 286.200517 144.60766 
L 286.200517 142.703606 
L 286.784015 142.703606 
L 286.784015 145.364631 
L 287.367513 145.364631 
L 287.367513 141.466746 
L 287.95101 141.466746 
L 287.95101 142.776226 
L 288.534508 142.776226 
L 288.534508 140.146486 
L 289.118006 140.146486 
L 289.118006 135.177746 
L 289.701504 135.177746 
L 289.701504 132.654209 
L 290.285002 132.654209 
L 290.285002 128.840139 
L 290.868499 128.840139 
L 290.868499 126.589775 
L 291.451997 126.589775 
L 291.451997 121.864979 
L 292.035495 121.864979 
L 292.035495 113.97733 
L 292.618993 113.97733 
L 292.618993 113.464571 
L 293.20249 113.464571 
L 293.20249 108.842256 
L 293.785988 108.842256 
L 293.785988 110.108754 
L 294.369486 110.108754 
L 294.369486 106.430906 
L 294.952984 106.430906 
L 294.952984 116.48468 
L 295.536482 116.48468 
L 295.536482 109.590538 
L 296.119979 109.590538 
L 296.119979 111.714879 
L 296.703477 111.714879 
L 296.703477 116.965587 
L 297.286975 116.965587 
L 297.286975 117.109776 
L 297.870473 117.109776 
L 297.870473 119.42364 
L 298.45397 119.42364 
L 298.45397 117.303988 
L 299.037468 117.303988 
L 299.037468 116.214761 
L 299.620966 116.214761 
L 299.620966 115.719048 
L 300.204464 115.719048 
L 300.204464 113.651086 
L 300.787962 113.651086 
L 300.787962 110.995712 
L 301.371459 110.995712 
L 301.371459 113.163202 
L 301.954957 113.163202 
L 301.954957 112.714571 
L 303.121953 112.76988 
L 303.121953 113.55177 
L 303.705451 113.55177 
L 303.705451 113.201534 
L 304.288948 113.201534 
L 304.288948 114.378629 
L 304.872446 114.378629 
L 304.872446 115.275032 
L 305.455944 115.275032 
L 305.455944 113.845066 
L 306.039442 113.845066 
L 306.039442 113.47027 
L 306.622939 113.47027 
L 306.622939 114.352141 
L 307.206437 114.352141 
L 307.206437 117.248759 
L 307.789935 117.248759 
L 307.789935 117.426129 
L 308.373433 117.426129 
L 308.373433 117.576973 
L 308.956931 117.576973 
L 308.956931 118.886066 
L 309.540428 118.886066 
L 309.540428 121.256764 
L 310.123926 121.256764 
L 310.123926 119.52902 
L 310.707424 119.52902 
L 310.707424 120.440536 
L 311.290922 120.440536 
L 311.290922 121.08956 
L 311.874419 121.08956 
L 311.874419 117.483078 
L 312.457917 117.483078 
L 312.457917 118.818195 
L 313.624913 118.907174 
L 313.624913 118.519234 
L 314.208411 118.519234 
L 314.208411 118.718292 
L 314.791908 118.718292 
L 314.791908 119.523842 
L 315.375406 119.523842 
L 315.375406 121.256389 
L 315.958904 121.256389 
L 315.958904 120.419638 
L 316.542402 120.419638 
L 316.542402 123.777141 
L 317.125899 123.777141 
L 317.125899 125.6347 
L 317.709397 125.6347 
L 317.709397 126.043033 
L 318.292895 126.043033 
L 318.292895 125.611196 
L 318.876393 125.611196 
L 318.876393 126.364696 
L 319.459891 126.364696 
L 319.459891 127.269819 
L 320.043388 127.269819 
L 320.043388 122.811499 
L 320.626886 122.811499 
L 320.626886 124.528906 
L 321.210384 124.528906 
L 321.210384 123.828719 
L 321.793882 123.828719 
L 321.793882 123.669739 
L 322.37738 123.669739 
L 322.37738 126.514641 
L 322.960877 126.514641 
L 322.960877 125.887989 
L 323.544375 125.887989 
L 323.544375 126.457028 
L 324.127873 126.457028 
L 324.127873 127.039872 
L 324.711371 127.039872 
L 324.711371 126.029873 
L 325.294868 126.029873 
L 325.294868 126.339888 
L 325.878366 126.339888 
L 325.878366 126.146245 
L 327.045362 126.129244 
L 327.045362 124.016221 
L 327.62886 124.016221 
L 327.62886 122.614371 
L 328.212357 122.614371 
L 328.212357 120.896394 
L 328.795855 120.896394 
L 328.795855 119.178083 
L 329.379353 119.178083 
L 329.379353 117.839511 
L 330.546348 117.856088 
L 330.546348 117.995919 
L 331.129846 117.995919 
L 331.129846 119.053836 
L 331.713344 119.053836 
L 331.713344 120.911871 
L 332.296842 120.911871 
L 332.296842 119.634582 
L 332.88034 119.634582 
L 332.88034 120.144501 
L 333.463837 120.144501 
L 333.463837 120.331232 
L 334.047335 120.331232 
L 334.047335 120.726163 
L 334.630833 120.726163 
L 334.630833 119.914355 
L 335.214331 119.914355 
L 335.214331 118.209526 
L 335.797828 118.209526 
L 335.797828 118.851268 
L 336.381326 118.851268 
L 336.381326 119.053836 
L 336.964824 119.053836 
L 336.964824 118.751208 
L 337.548322 118.751208 
L 337.548322 119.181139 
L 338.13182 119.181139 
L 338.13182 119.025838 
L 339.298815 118.985424 
L 339.298815 119.207644 
L 339.882313 119.207644 
L 339.882313 120.058654 
L 340.465811 120.058654 
L 340.465811 120.430085 
L 341.049308 120.430085 
L 341.049308 120.063611 
L 341.632806 120.063611 
L 341.632806 120.322269 
L 342.216304 120.322269 
L 342.216304 120.447387 
L 342.799802 120.447387 
L 342.799802 120.242124 
L 343.3833 120.242124 
L 343.3833 121.750362 
L 343.966797 121.750362 
L 343.966797 122.776033 
L 344.550295 122.776033 
L 344.550295 124.186453 
L 345.133793 124.186453 
L 345.133793 123.108439 
L 345.717291 123.108439 
L 345.717291 123.694961 
L 346.300789 123.694961 
L 346.300789 123.483195 
L 346.884286 123.483195 
L 346.884286 124.671159 
L 347.467784 124.671159 
L 347.467784 124.864558 
L 348.051282 124.864558 
L 348.051282 124.639465 
L 348.63478 124.639465 
L 348.63478 124.915748 
L 349.801775 124.859223 
L 349.801775 125.028358 
L 350.385273 125.028358 
L 350.385273 127.160976 
L 350.968771 127.160976 
L 350.968771 128.407127 
L 351.552269 128.407127 
L 351.552269 127.254378 
L 352.135766 127.254378 
L 352.135766 128.447132 
L 352.719264 128.447132 
L 352.719264 128.992061 
L 353.302762 128.992061 
L 353.302762 130.754934 
L 353.88626 130.754934 
L 353.88626 132.679308 
L 354.469757 132.679308 
L 354.469757 130.479883 
L 355.053255 130.479883 
L 355.053255 129.505408 
L 355.636753 129.505408 
L 355.636753 128.7416 
L 356.220251 128.7416 
L 356.220251 128.947772 
L 356.803749 128.947772 
L 356.803749 129.225294 
L 357.387246 129.225294 
L 357.387246 130.779047 
L 357.970744 130.779047 
L 357.970744 131.23049 
L 358.554242 131.23049 
L 358.554242 131.569876 
L 359.13774 131.569876 
L 359.13774 132.889632 
L 359.721237 132.889632 
L 359.721237 131.981364 
L 360.304735 131.981364 
L 360.304735 131.469918 
L 360.888233 131.469918 
L 360.888233 130.146033 
L 361.471731 130.146033 
L 361.471731 128.514682 
L 362.055229 128.514682 
L 362.055229 129.063008 
L 362.638726 129.063008 
L 362.638726 130.898254 
L 363.222224 130.898254 
L 363.222224 130.277216 
L 364.38922 130.292161 
L 364.38922 129.79603 
L 364.972718 129.79603 
L 364.972718 129.57088 
L 365.556215 129.57088 
L 365.556215 129.773014 
L 366.139713 129.773014 
L 366.139713 130.515885 
L 366.723211 130.515885 
L 366.723211 131.346842 
L 367.306709 131.346842 
L 367.306709 130.81969 
L 367.890206 130.81969 
L 367.890206 133.08697 
L 368.473704 133.08697 
L 368.473704 132.42902 
L 369.057202 132.42902 
L 369.057202 132.086286 
L 369.6407 132.086286 
L 369.6407 132.529802 
L 370.224198 132.529802 
L 370.224198 133.614779 
L 371.391193 133.52008 
L 371.391193 137.299829 
L 371.974691 137.299829 
L 371.974691 134.678447 
L 372.558189 134.678447 
L 372.558189 136.297939 
L 373.141686 136.297939 
L 373.141686 140.888738 
L 373.725184 140.888738 
L 373.725184 142.249735 
L 374.308682 142.249735 
L 374.308682 141.46577 
L 374.89218 141.46577 
L 374.89218 139.822388 
L 375.475678 139.822388 
L 375.475678 138.021457 
L 376.059175 138.021457 
L 376.059175 139.580755 
L 376.642673 139.580755 
L 376.642673 141.151694 
L 377.226171 141.151694 
L 377.226171 140.369677 
L 377.809669 140.369677 
L 377.809669 140.854556 
L 378.393166 140.854556 
L 378.393166 141.086367 
L 378.976664 141.086367 
L 378.976664 140.857402 
L 379.560162 140.857402 
L 379.560162 139.761945 
L 380.14366 139.761945 
L 380.14366 139.470295 
L 380.727158 139.470295 
L 380.727158 138.773804 
L 381.310655 138.773804 
L 381.310655 139.249337 
L 381.894153 139.249337 
L 381.894153 138.205579 
L 382.477651 138.205579 
L 382.477651 136.305585 
L 383.061149 136.305585 
L 383.061149 136.517707 
L 383.644647 136.517707 
L 383.644647 136.372219 
L 384.228144 136.372219 
L 384.228144 134.779927 
L 384.811642 134.779927 
L 384.811642 135.826995 
L 385.39514 135.826995 
L 385.39514 135.657237 
L 385.978638 135.657237 
L 385.978638 137.385776 
L 386.562135 137.385776 
L 386.562135 137.074977 
L 387.145633 137.074977 
L 387.145633 138.447958 
L 387.729131 138.447958 
L 387.729131 139.039373 
L 388.312629 139.039373 
L 388.312629 138.681168 
L 388.896127 138.681168 
L 388.896127 138.075444 
L 390.063122 138.056325 
L 390.063122 139.598625 
L 390.64662 139.598625 
L 390.64662 140.792978 
L 391.230118 140.792978 
L 391.230118 140.372459 
L 391.813615 140.372459 
L 391.813615 140.830851 
L 392.397113 140.830851 
L 392.397113 139.815162 
L 392.980611 139.815162 
L 392.980611 140.484961 
L 394.147607 140.586822 
L 394.147607 140.053116 
L 394.731104 140.053116 
L 394.731104 139.398451 
L 396.481598 139.322439 
L 396.481598 139.601307 
L 397.648593 139.542384 
L 397.648593 140.013878 
L 398.232091 140.013878 
L 398.232091 139.349807 
L 398.815589 139.349807 
L 398.815589 139.635307 
L 399.982584 139.55933 
L 399.982584 140.294709 
L 400.566082 140.294709 
L 400.566082 140.568095 
L 401.733078 140.606504 
L 401.733078 140.244879 
L 402.900073 140.17862 
L 402.900073 139.598625 
L 403.483571 139.598625 
L 403.483571 138.530223 
L 404.067069 138.530223 
L 404.067069 138.934303 
L 404.650567 138.934303 
L 404.650567 139.22649 
L 405.234064 139.22649 
L 405.234064 138.281024 
L 405.817562 138.281024 
L 405.817562 137.359231 
L 406.40106 137.359231 
L 406.40106 137.872672 
L 406.984558 137.872672 
L 406.984558 136.874482 
L 408.151553 136.837591 
L 408.151553 133.8075 
L 408.735051 133.8075 
L 408.735051 135.569914 
L 409.318549 135.569914 
L 409.318549 136.23916 
L 410.485544 136.237635 
L 410.485544 135.324686 
L 411.069042 135.324686 
L 411.069042 134.967848 
L 411.65254 134.967848 
L 411.65254 135.364872 
L 412.236038 135.364872 
L 412.236038 135.82251 
L 413.403033 135.916893 
L 413.403033 137.37612 
L 413.986531 137.37612 
L 413.986531 136.682881 
L 414.570029 136.682881 
L 414.570029 137.079736 
L 415.153527 137.079736 
L 415.153527 137.82824 
L 415.737024 137.82824 
L 415.737024 139.660394 
L 416.320522 139.660394 
L 416.320522 140.313195 
L 416.90402 140.313195 
L 416.90402 140.601816 
L 417.487518 140.601816 
L 417.487518 140.175864 
L 418.071016 140.175864 
L 418.071016 140.328921 
L 418.654513 140.328921 
L 418.654513 140.075049 
L 419.238011 140.075049 
L 419.238011 139.20279 
L 419.821509 139.20279 
L 419.821509 139.348923 
L 420.405007 139.348923 
L 420.405007 140.141899 
L 420.988504 140.141899 
L 420.988504 140.295633 
L 421.572002 140.295633 
L 421.572002 140.118981 
L 422.738998 140.103411 
L 422.738998 139.668464 
L 423.322496 139.668464 
L 423.322496 139.319792 
L 425.072989 139.385173 
L 425.072989 138.981129 
L 425.656487 138.981129 
L 425.656487 138.747172 
L 426.239985 138.747172 
L 426.239985 138.38457 
L 426.823482 138.38457 
L 426.823482 137.372902 
L 427.990478 137.266188 
L 427.990478 136.422142 
L 428.573976 136.422142 
L 428.573976 135.782189 
L 429.157473 135.782189 
L 429.157473 134.202457 
L 429.740971 134.202457 
L 429.740971 133.832649 
L 430.324469 133.832649 
L 430.324469 128.231686 
L 430.907967 128.231686 
L 430.907967 129.903019 
L 431.491465 129.903019 
L 431.491465 129.515382 
L 432.074962 129.515382 
L 432.074962 131.84599 
L 432.65846 131.84599 
L 432.65846 133.243137 
L 433.241958 133.243137 
L 433.241958 132.29328 
L 433.825456 132.29328 
L 433.825456 132.763186 
L 434.408953 132.763186 
L 434.408953 133.198871 
L 434.992451 133.198871 
L 434.992451 130.807902 
L 435.575949 130.807902 
L 435.575949 129.701879 
L 436.159447 129.701879 
L 436.159447 130.604408 
L 436.742945 130.604408 
L 436.742945 129.148352 
L 437.326442 129.148352 
L 437.326442 127.615457 
L 437.90994 127.615457 
L 437.90994 126.640012 
L 438.493438 126.640012 
L 438.493438 125.337533 
L 439.660433 125.382139 
L 439.660433 126.536287 
L 440.243931 126.536287 
L 440.243931 125.70352 
L 440.827429 125.70352 
L 440.827429 127.31721 
L 441.410927 127.31721 
L 441.410927 127.029031 
L 441.994425 127.029031 
L 441.994425 126.807041 
L 443.16142 126.823134 
L 443.16142 125.85954 
L 443.744918 125.85954 
L 443.744918 126.077852 
L 444.328416 126.077852 
L 444.328416 126.964104 
L 444.911914 126.964104 
L 444.911914 129.540893 
L 445.495411 129.540893 
L 445.495411 127.420841 
L 446.078909 127.420841 
L 446.078909 129.269074 
L 446.662407 129.269074 
L 446.662407 128.912192 
L 447.245905 128.912192 
L 447.245905 129.651055 
L 447.829402 129.651055 
L 447.829402 129.999208 
L 448.4129 129.999208 
L 448.4129 129.110258 
L 448.996398 129.110258 
L 448.996398 129.829195 
L 449.579896 129.829195 
L 449.579896 129.597571 
L 450.163394 129.597571 
L 450.163394 129.008287 
L 450.746891 129.008287 
L 450.746891 128.101704 
L 451.330389 128.101704 
L 451.330389 127.439419 
L 451.913887 127.439419 
L 451.913887 126.612946 
L 452.497385 126.612946 
L 452.497385 127.265335 
L 453.080882 127.265335 
L 453.080882 126.849494 
L 453.66438 126.849494 
L 453.66438 127.313215 
L 454.247878 127.313215 
L 454.247878 128.51151 
L 454.831376 128.51151 
L 454.831376 127.836439 
L 455.414874 127.836439 
L 455.414874 127.43289 
L 455.998371 127.43289 
L 455.998371 127.691572 
L 456.581869 127.691572 
L 456.581869 127.514396 
L 457.165367 127.514396 
L 457.165367 127.85385 
L 457.748865 127.85385 
L 457.748865 127.54113 
L 461.249851 127.440926 
L 461.249851 127.400776 
L 461.833349 127.400776 
L 461.833349 127.24492 
L 462.416847 127.24492 
L 462.416847 126.913579 
L 463.000345 126.913579 
L 463.000345 126.652107 
L 463.583842 126.652107 
L 463.583842 126.091042 
L 464.16734 126.091042 
L 464.16734 125.404933 
L 464.750838 125.404933 
L 464.750838 125.983879 
L 465.334336 125.983879 
L 465.334336 125.842768 
L 465.917834 125.842768 
L 465.917834 126.131605 
L 466.501331 126.131605 
L 466.501331 125.564266 
L 467.084829 125.564266 
L 467.084829 125.946407 
L 467.668327 125.946407 
L 467.668327 125.711849 
L 468.835323 125.79625 
L 468.835323 126.647268 
L 469.41882 126.647268 
L 469.41882 126.530513 
L 470.002318 126.530513 
L 470.002318 126.043973 
L 470.585816 126.043973 
L 470.585816 122.665183 
L 471.169314 122.665183 
L 471.169314 122.452749 
L 471.752811 122.452749 
L 471.752811 121.074695 
L 472.336309 121.074695 
L 472.336309 120.494317 
L 472.919807 120.494317 
L 472.919807 120.836804 
L 473.503305 120.836804 
L 473.503305 117.717178 
L 474.086803 117.717178 
L 474.086803 116.847293 
L 474.6703 116.847293 
L 474.6703 115.151511 
L 475.253798 115.151511 
L 475.253798 117.761263 
L 476.420794 117.744125 
L 476.420794 118.165466 
L 477.004291 118.165466 
L 477.004291 117.650749 
L 477.587789 117.650749 
L 477.587789 118.000414 
L 478.171287 118.000414 
L 478.171287 117.468044 
L 478.754785 117.468044 
L 478.754785 118.309651 
L 479.338283 118.309651 
L 479.338283 117.759993 
L 480.505278 117.801623 
L 480.505278 117.477439 
L 481.088776 117.477439 
L 481.088776 117.775873 
L 482.255771 117.856088 
L 482.255771 118.051854 
L 483.422767 118.074077 
L 483.422767 122.501583 
L 484.006265 122.501583 
L 484.006265 120.895657 
L 484.589763 120.895657 
L 484.589763 120.208225 
L 485.17326 120.208225 
L 485.17326 120.411717 
L 485.756758 120.411717 
L 485.756758 121.094765 
L 486.340256 121.094765 
L 486.340256 120.962064 
L 486.923754 120.962064 
L 486.923754 120.719587 
L 487.507252 120.719587 
L 487.507252 120.557296 
L 488.090749 120.557296 
L 488.090749 120.710457 
L 488.674247 120.710457 
L 488.674247 120.940643 
L 489.841243 120.959108 
L 489.841243 119.775577 
L 490.42474 119.775577 
L 490.42474 119.381772 
L 491.008238 119.381772 
L 491.008238 119.166202 
L 491.591736 119.166202 
L 491.591736 119.60615 
L 493.342229 119.611695 
L 493.342229 120.123184 
L 493.925727 120.123184 
L 493.925727 119.949897 
L 494.509225 119.949897 
L 494.509225 119.77907 
L 495.092723 119.77907 
L 495.092723 119.462493 
L 495.67622 119.462493 
L 495.67622 119.663053 
L 496.259718 119.663053 
L 496.259718 119.402009 
L 497.426714 119.40098 
L 497.426714 118.750542 
L 498.010212 118.750542 
L 498.010212 118.586478 
L 498.593709 118.586478 
L 498.593709 118.961213 
L 499.177207 118.961213 
L 499.177207 118.120206 
L 500.344203 118.178416 
L 500.344203 117.091007 
L 500.9277 117.091007 
L 500.9277 116.752346 
L 501.511198 116.752346 
L 501.511198 117.159396 
L 502.094696 117.159396 
L 502.094696 116.363992 
L 502.678194 116.363992 
L 502.678194 116.023846 
L 503.261692 116.023846 
L 503.261692 116.593442 
L 503.845189 116.593442 
L 503.845189 116.311463 
L 504.428687 116.311463 
L 504.428687 115.23528 
L 505.012185 115.23528 
L 505.012185 115.576299 
L 506.17918 115.614405 
L 506.17918 115.854647 
L 506.762678 115.854647 
L 506.762678 115.431381 
L 507.346176 115.431381 
L 507.346176 114.844868 
L 508.513172 114.955203 
L 508.513172 114.676601 
L 509.096669 114.676601 
L 509.096669 114.433603 
L 510.263665 114.490896 
L 510.263665 114.145974 
L 510.847163 114.145974 
L 510.847163 112.942494 
L 511.430661 112.942494 
L 511.430661 111.534489 
L 512.014158 111.534489 
L 512.014158 110.660872 
L 512.597656 110.660872 
L 512.597656 110.040166 
L 513.181154 110.040166 
L 513.181154 108.856407 
L 513.764652 108.856407 
L 513.764652 109.145017 
L 514.348149 109.145017 
L 514.348149 111.115853 
L 514.931647 111.115853 
L 514.931647 114.354302 
L 515.515145 114.354302 
L 515.515145 113.335731 
L 516.098643 113.335731 
L 516.098643 111.206177 
L 516.682141 111.206177 
L 516.682141 111.462763 
L 517.265638 111.462763 
L 517.265638 110.897338 
L 517.849136 110.897338 
L 517.849136 111.010462 
L 519.016132 111.076501 
L 519.016132 109.490336 
L 519.599629 109.490336 
L 519.599629 108.430864 
L 520.183127 108.430864 
L 520.183127 108.051373 
L 520.766625 108.051373 
L 520.766625 109.188535 
L 521.933621 109.112332 
L 521.933621 108.407824 
L 522.517118 108.407824 
L 522.517118 108.090883 
L 523.100616 108.090883 
L 523.100616 106.559144 
L 523.684114 106.559144 
L 523.684114 106.18243 
L 524.267612 106.18243 
L 524.267612 105.452143 
L 524.851109 105.452143 
L 524.851109 103.81482 
L 525.434607 103.81482 
L 525.434607 103.938117 
L 526.018105 103.938117 
L 526.018105 105.430897 
L 526.601603 105.430897 
L 526.601603 104.810292 
L 527.185101 104.810292 
L 527.185101 104.31239 
L 527.768598 104.31239 
L 527.768598 109.830498 
L 528.352096 109.830498 
L 528.352096 106.879115 
L 528.935594 106.879115 
L 528.935594 110.715591 
L 529.519092 110.715591 
L 529.519092 108.289147 
L 530.10259 108.289147 
L 530.10259 108.4172 
L 530.686087 108.4172 
L 530.686087 107.514258 
L 531.269585 107.514258 
L 531.269585 106.493532 
L 531.853083 106.493532 
L 531.853083 105.574016 
L 532.436581 105.574016 
L 532.436581 104.958418 
L 533.020078 104.958418 
L 533.020078 105.818993 
L 533.603576 105.818993 
L 533.603576 105.700181 
L 534.187074 105.700181 
L 534.187074 104.657057 
L 535.35407 104.585359 
L 535.35407 103.798108 
L 535.937567 103.798108 
L 535.937567 103.073969 
L 536.521065 103.073969 
L 536.521065 101.334807 
L 537.104563 101.334807 
L 537.104563 100.32188 
L 537.688061 100.32188 
L 537.688061 98.559223 
L 538.271558 98.559223 
L 538.271558 96.400521 
L 538.855056 96.400521 
L 538.855056 96.973403 
L 540.022052 96.926286 
L 540.022052 94.421969 
L 540.60555 94.421969 
L 540.60555 91.971085 
L 541.189047 91.971085 
L 541.189047 91.752502 
L 542.356043 91.658328 
L 542.356043 90.581649 
L 542.939541 90.581649 
L 542.939541 89.559848 
L 543.523038 89.559848 
L 543.523038 88.317015 
L 544.106536 88.317015 
L 544.106536 86.686475 
L 544.690034 86.686475 
L 544.690034 88.137176 
L 545.273532 88.137176 
L 545.273532 89.994551 
L 545.85703 89.994551 
L 545.85703 88.980174 
L 546.440527 88.980174 
L 546.440527 88.078943 
L 547.024025 88.078943 
L 547.024025 89.790451 
L 547.607523 89.790451 
L 547.607523 89.321264 
L 548.191021 89.321264 
L 548.191021 90.482701 
L 548.774519 90.482701 
L 548.774519 88.989182 
L 549.358016 88.989182 
L 549.358016 89.783454 
L 549.941514 89.783454 
L 549.941514 91.319569 
L 551.10851 91.216476 
L 551.10851 95.475749 
L 551.692007 95.475749 
L 551.692007 91.888129 
L 552.275505 91.888129 
L 552.275505 87.225464 
L 552.859003 87.225464 
L 552.859003 89.271845 
L 553.442501 89.271845 
L 553.442501 87.531626 
L 554.025999 87.531626 
L 554.025999 86.948131 
L 554.609496 86.948131 
L 554.609496 87.492271 
L 555.192994 87.492271 
L 555.192994 84.53268 
L 555.776492 84.53268 
L 555.776492 83.694718 
L 556.35999 83.694718 
L 556.35999 80.59746 
L 556.943487 80.59746 
L 556.943487 78.963954 
L 557.526985 78.963954 
L 557.526985 79.347247 
L 558.110483 79.347247 
L 558.110483 79.964866 
L 558.693981 79.964866 
L 558.693981 78.211415 
L 559.860976 78.17599 
L 559.860976 77.024284 
L 561.027972 77.010247 
L 561.027972 77.953665 
L 561.61147 77.953665 
L 561.61147 78.306644 
L 562.194967 78.306644 
L 562.194967 78.870189 
L 562.778465 78.870189 
L 562.778465 84.491779 
L 563.361963 84.491779 
L 563.361963 81.659829 
L 563.945461 81.659829 
L 563.945461 80.456367 
L 564.528959 80.456367 
L 564.528959 81.099077 
L 565.112456 81.099077 
L 565.112456 80.529513 
L 565.695954 80.529513 
L 565.695954 79.04334 
L 566.279452 79.04334 
L 566.279452 77.910171 
L 566.86295 77.910171 
L 566.86295 78.275749 
L 567.446447 78.275749 
L 567.446447 76.918025 
L 568.029945 76.918025 
L 568.029945 75.948916 
L 568.613443 75.948916 
L 568.613443 71.959561 
L 569.196941 71.959561 
L 569.196941 72.814294 
L 569.780439 72.814294 
L 569.780439 71.386426 
L 570.363936 71.386426 
L 570.363936 71.691149 
L 571.530932 71.729689 
L 571.530932 70.864174 
L 572.11443 70.864174 
L 572.11443 68.847759 
L 572.697928 68.847759 
L 572.697928 67.011613 
L 573.281425 67.011613 
L 573.281425 67.70257 
L 573.864923 67.70257 
L 573.864923 69.426647 
L 574.448421 69.426647 
L 574.448421 69.670799 
L 575.031919 69.670799 
L 575.031919 65.618681 
L 575.615416 65.618681 
L 575.615416 65.139052 
L 576.198914 65.139052 
L 576.198914 64.654585 
L 576.782412 64.654585 
L 576.782412 63.334023 
L 577.36591 63.334023 
L 577.36591 60.733897 
L 577.949408 60.733897 
L 577.949408 58.783297 
L 578.532905 58.783297 
L 578.532905 57.447231 
L 579.116403 57.447231 
L 579.116403 49.541546 
L 579.699901 49.541546 
L 579.699901 51.911888 
L 580.283399 51.911888 
L 580.283399 50.317058 
L 580.866896 50.317058 
L 580.866896 46.713271 
L 581.450394 46.713271 
L 581.450394 48.898264 
L 582.033892 48.898264 
L 582.033892 53.803441 
L 583.200888 53.858133 
L 583.200888 53.144067 
L 583.784385 53.144067 
L 583.784385 53.77377 
L 584.367883 53.77377 
L 584.367883 51.953522 
L 584.951381 51.953522 
L 584.951381 49.175554 
L 585.534879 49.175554 
L 585.534879 52.815068 
L 586.118376 52.815068 
L 586.118376 53.781126 
L 586.701874 53.781126 
L 586.701874 54.146887 
L 587.285372 54.146887 
L 587.285372 58.219025 
L 587.86887 58.219025 
L 587.86887 57.589304 
L 588.452368 57.589304 
L 588.452368 57.812907 
L 589.619363 57.740182 
L 589.619363 60.388954 
L 590.202861 60.388954 
L 590.202861 63.133064 
L 590.786359 63.133064 
L 590.786359 68.312581 
L 591.369857 68.312581 
L 591.369857 64.633184 
L 591.953354 64.633184 
L 591.953354 65.091147 
L 592.536852 65.091147 
L 592.536852 61.707478 
L 593.12035 61.707478 
L 593.12035 58.387694 
L 593.703848 58.387694 
L 593.703848 58.085114 
L 594.287345 58.085114 
L 594.287345 60.20401 
L 594.870843 60.20401 
L 594.870843 59.898932 
L 595.454341 59.898932 
L 595.454341 58.684176 
L 596.037839 58.684176 
L 596.037839 57.583057 
L 596.621337 57.583057 
L 596.621337 60.730792 
L 597.204834 60.730792 
L 597.204834 63.313415 
L 597.788332 63.313415 
L 597.788332 62.428146 
L 598.37183 62.428146 
L 598.37183 64.498494 
L 598.955328 64.498494 
L 598.955328 63.730251 
L 599.538825 63.730251 
L 599.538825 63.438767 
L 600.122323 63.438767 
L 600.122323 64.095419 
L 600.705821 64.095419 
L 600.705821 65.400403 
L 601.289319 65.400403 
L 601.289319 68.275755 
L 601.872817 68.275755 
L 601.872817 66.839079 
L 602.456314 66.839079 
L 602.456314 69.217473 
L 603.039812 69.217473 
L 603.039812 68.746676 
L 603.62331 68.746676 
L 603.62331 65.424695 
L 604.206808 65.424695 
L 604.206808 64.320748 
L 604.790305 64.320748 
L 604.790305 64.810781 
L 605.373803 64.810781 
L 605.373803 62.948312 
L 605.957301 62.948312 
L 605.957301 61.296193 
L 606.540799 61.296193 
L 606.540799 62.953155 
L 607.124297 62.953155 
L 607.124297 62.230846 
L 607.707794 62.230846 
L 607.707794 61.089181 
L 608.291292 61.089181 
L 608.291292 61.354528 
L 608.87479 61.354528 
L 608.87479 62.069764 
L 609.458288 62.069764 
L 609.458288 64.081555 
L 610.625283 64.06277 
L 610.625283 64.648541 
L 611.208781 64.648541 
L 611.208781 64.248946 
L 611.792279 64.248946 
L 611.792279 66.416393 
L 612.375777 66.416393 
L 612.375777 67.073077 
L 612.959274 67.073077 
L 612.959274 66.952326 
L 613.542772 66.952326 
L 613.542772 66.248999 
L 615.293266 66.308749 
L 615.293266 68.453631 
L 615.876763 68.453631 
L 615.876763 69.208795 
L 616.460261 69.208795 
L 616.460261 69.826794 
L 617.043759 69.826794 
L 617.043759 68.820126 
L 617.627257 68.820126 
L 617.627257 70.747714 
L 618.210754 70.747714 
L 618.210754 70.998779 
L 618.794252 70.998779 
L 618.794252 70.567898 
L 619.37775 70.567898 
L 619.37775 69.24369 
L 619.961248 69.24369 
L 619.961248 69.47072 
L 620.544746 69.47072 
L 620.544746 68.935236 
L 621.128243 68.935236 
L 621.128243 69.966712 
L 621.711741 69.966712 
L 621.711741 70.481431 
L 622.295239 70.481431 
L 622.295239 67.139072 
L 623.462234 67.100583 
L 623.462234 66.034742 
L 624.045732 66.034742 
L 624.045732 65.429079 
L 624.62923 65.429079 
L 624.62923 64.695116 
L 625.212728 64.695116 
L 625.212728 66.330478 
L 625.796226 66.330478 
L 625.796226 68.052767 
L 626.379723 68.052767 
L 626.379723 68.953472 
L 626.963221 68.953472 
L 626.963221 70.855684 
L 627.546719 70.855684 
L 627.546719 70.470327 
L 628.130217 70.470327 
L 628.130217 70.266767 
L 628.713714 70.266767 
L 628.713714 69.693715 
L 629.297212 69.693715 
L 629.297212 70.127474 
L 629.88071 70.127474 
L 629.88071 68.890638 
L 630.464208 68.890638 
L 630.464208 67.852399 
L 631.047706 67.852399 
L 631.047706 68.030213 
L 631.631203 68.030213 
L 631.631203 67.302614 
L 632.214701 67.302614 
L 632.214701 69.646253 
L 632.798199 69.646253 
L 632.798199 70.507983 
L 633.381697 70.507983 
L 633.381697 70.222402 
L 633.965195 70.222402 
L 633.965195 69.577573 
L 634.548692 69.577573 
L 634.548692 70.167948 
L 635.13219 70.167948 
L 635.13219 68.834827 
L 635.715688 68.834827 
L 635.715688 69.380999 
L 636.299186 69.380999 
L 636.299186 69.054669 
L 636.882683 69.054669 
L 636.882683 69.292838 
L 637.466181 69.292838 
L 637.466181 69.702986 
L 638.049679 69.702986 
L 638.049679 69.412522 
L 638.633177 69.412522 
L 638.633177 69.242385 
L 639.216675 69.242385 
L 639.216675 70.487643 
L 639.800172 70.487643 
L 639.800172 69.330686 
L 640.38367 69.330686 
L 640.38367 69.618949 
L 642.134163 69.683343 
L 642.134163 69.789451 
L 642.717661 69.789451 
L 642.717661 70.304028 
L 643.301159 70.304028 
L 643.301159 70.008793 
L 643.884657 70.008793 
L 643.884657 69.853091 
L 645.63515 69.949093 
L 645.63515 72.211709 
L 646.218648 72.211709 
L 646.218648 72.898247 
L 646.802146 72.898247 
L 646.802146 77.445264 
L 647.385643 77.445264 
L 647.385643 78.108373 
L 647.969141 78.108373 
L 647.969141 81.011416 
L 648.552639 81.011416 
L 648.552639 78.47112 
L 649.136137 78.47112 
L 649.136137 79.163593 
L 649.719635 79.163593 
L 649.719635 81.282146 
L 650.303132 81.282146 
L 650.303132 82.990536 
L 650.88663 82.990536 
L 650.88663 83.275758 
L 651.470128 83.275758 
L 651.470128 84.322 
L 652.053626 84.322 
L 652.053626 82.371292 
L 652.637124 82.371292 
L 652.637124 79.191175 
L 653.220621 79.191175 
L 653.220621 79.917871 
L 653.804119 79.917871 
L 653.804119 80.708507 
L 654.387617 80.708507 
L 654.387617 81.139659 
L 654.971115 81.139659 
L 654.971115 80.666502 
L 656.13811 80.662454 
L 656.13811 79.722978 
L 656.721608 79.722978 
L 656.721608 81.845768 
L 657.305106 81.845768 
L 657.305106 82.517597 
L 657.888604 82.517597 
L 657.888604 81.989859 
L 658.472101 81.989859 
L 658.472101 81.514378 
L 659.055599 81.514378 
L 659.055599 82.189326 
L 660.222595 82.24562 
L 660.222595 83.021589 
L 661.973088 82.976125 
L 661.973088 83.285543 
L 662.556586 83.285543 
L 662.556586 81.741134 
L 663.140084 81.741134 
L 663.140084 81.925936 
L 663.723581 81.925936 
L 663.723581 82.067069 
L 664.307079 82.067069 
L 664.307079 80.368148 
L 664.890577 80.368148 
L 664.890577 80.185107 
L 665.474075 80.185107 
L 665.474075 81.159083 
L 666.057572 81.159083 
L 666.057572 80.790788 
L 667.224568 80.800642 
L 667.224568 80.577129 
L 669.558559 80.506641 
L 669.558559 79.919191 
L 670.142057 79.919191 
L 670.142057 79.597007 
L 670.725555 79.597007 
L 670.725555 79.82961 
L 671.309052 79.82961 
L 671.309052 80.169818 
L 671.89255 80.169818 
L 671.89255 79.291608 
L 672.476048 79.291608 
L 672.476048 79.102898 
L 673.059546 79.102898 
L 673.059546 75.562809 
L 673.643044 75.562809 
L 673.643044 74.400637 
L 674.226541 74.400637 
L 674.226541 73.915227 
L 674.810039 73.915227 
L 674.810039 74.914051 
L 675.393537 74.914051 
L 675.393537 74.371144 
L 675.977035 74.371144 
L 675.977035 74.047296 
L 676.560533 74.047296 
L 676.560533 73.650679 
L 677.14403 73.650679 
L 677.14403 74.375366 
L 677.727528 74.375366 
L 677.727528 73.950574 
L 678.894524 73.849818 
L 678.894524 72.159334 
L 680.061519 72.215557 
L 680.061519 70.14923 
L 680.645017 70.14923 
L 680.645017 65.741451 
L 681.228515 65.741451 
L 681.228515 65.572645 
L 681.812013 65.572645 
L 681.812013 64.765057 
L 682.39551 64.765057 
L 682.39551 66.279987 
L 682.979008 66.279987 
L 682.979008 65.082181 
L 683.562506 65.082181 
L 683.562506 63.452044 
L 684.146004 63.452044 
L 684.146004 63.857692 
L 684.729501 63.857692 
L 684.729501 64.916941 
L 685.312999 64.916941 
L 685.312999 65.795128 
L 685.896497 65.795128 
L 685.896497 66.239416 
L 686.479995 66.239416 
L 686.479995 64.818265 
L 687.063493 64.818265 
L 687.063493 63.117009 
L 687.64699 63.117009 
L 687.64699 62.607194 
L 688.230488 62.607194 
L 688.230488 60.125177 
L 688.813986 60.125177 
L 688.813986 58.518126 
L 689.397484 58.518126 
L 689.397484 58.298406 
L 689.980981 58.298406 
L 689.980981 59.060741 
L 690.564479 59.060741 
L 690.564479 56.742879 
L 691.147977 56.742879 
L 691.147977 58.11128 
L 691.731475 58.11128 
L 691.731475 55.708939 
L 692.314973 55.708939 
L 692.314973 57.063537 
L 692.89847 57.063537 
L 692.89847 58.795671 
L 693.481968 58.795671 
L 693.481968 59.256481 
L 694.648964 59.358155 
L 694.648964 61.048514 
L 695.232462 61.048514 
L 695.232462 61.702244 
L 695.815959 61.702244 
L 695.815959 61.447405 
L 696.399457 61.447405 
L 696.399457 59.47376 
L 696.982955 59.47376 
L 696.982955 57.092116 
L 697.566453 57.092116 
L 697.566453 56.722383 
L 698.14995 56.722383 
L 698.14995 57.491649 
L 698.733448 57.491649 
L 698.733448 60.526575 
L 699.316946 60.526575 
L 699.316946 60.114559 
L 699.900444 60.114559 
L 699.900444 59.015935 
L 700.483942 59.015935 
L 700.483942 59.723142 
L 701.650937 59.815649 
L 701.650937 61.678743 
L 702.234435 61.678743 
L 702.234435 61.053652 
L 702.817933 61.053652 
L 702.817933 59.364632 
L 703.40143 59.364632 
L 703.40143 59.55876 
L 703.984928 59.55876 
L 703.984928 60.350261 
L 704.568426 60.350261 
L 704.568426 59.808279 
L 705.151924 59.808279 
L 705.151924 60.009265 
L 706.318919 59.988211 
L 706.318919 60.492717 
L 706.902417 60.492717 
L 706.902417 64.159693 
L 707.485915 64.159693 
L 707.485915 64.684623 
L 708.069413 64.684623 
L 708.069413 64.434955 
L 708.65291 64.434955 
L 708.65291 64.86369 
L 709.236408 64.86369 
L 709.236408 64.717942 
L 709.819906 64.717942 
L 709.819906 63.776241 
L 710.403404 63.776241 
L 710.403404 64.534448 
L 710.986902 64.534448 
L 710.986902 65.26314 
L 711.570399 65.26314 
L 711.570399 65.375396 
L 712.153897 65.375396 
L 712.153897 65.199309 
L 712.737395 65.199309 
L 712.737395 63.580877 
L 713.320893 63.580877 
L 713.320893 62.278368 
L 713.904391 62.278368 
L 713.904391 62.440964 
L 714.487888 62.440964 
L 714.487888 62.307221 
L 715.071386 62.307221 
L 715.071386 61.995191 
L 715.654884 61.995191 
L 715.654884 63.236549 
L 716.821879 63.255452 
L 716.821879 64.096092 
L 717.405377 64.096092 
L 717.405377 64.810703 
L 717.988875 64.810703 
L 717.988875 66.304511 
L 718.572373 66.304511 
L 718.572373 68.367666 
L 719.155871 68.367666 
L 719.155871 66.564339 
L 720.322866 66.469528 
L 720.322866 67.210794 
L 720.906364 67.210794 
L 720.906364 66.498941 
L 721.489862 66.498941 
L 721.489862 67.093596 
L 722.073359 67.093596 
L 722.073359 67.524227 
L 722.656857 67.524227 
L 722.656857 67.754422 
L 723.240355 67.754422 
L 723.240355 67.246907 
L 723.823853 67.246907 
L 723.823853 67.659526 
L 724.407351 67.659526 
L 724.407351 67.344441 
L 726.157844 67.435092 
L 726.157844 68.255178 
L 726.741342 68.255178 
L 726.741342 67.052952 
L 727.324839 67.052952 
L 727.324839 65.157588 
L 728.491835 65.213165 
L 728.491835 63.157647 
L 729.075333 63.157647 
L 729.075333 63.019914 
L 729.658831 63.019914 
L 729.658831 63.67925 
L 730.242328 63.67925 
L 730.242328 64.270363 
L 730.825826 64.270363 
L 730.825826 63.772507 
L 731.409324 63.772507 
L 731.409324 62.139123 
L 731.992822 62.139123 
L 731.992822 61.916876 
L 732.576319 61.916876 
L 732.576319 62.408335 
L 733.159817 62.408335 
L 733.159817 60.972295 
L 734.326813 60.870905 
L 734.326813 60.056995 
L 734.910311 60.056995 
L 734.910311 60.694227 
L 735.493808 60.694227 
L 735.493808 61.413135 
L 736.077306 61.413135 
L 736.077306 61.271045 
L 736.660804 61.271045 
L 736.660804 62.072529 
L 737.244302 62.072529 
L 737.244302 63.470269 
L 737.8278 63.470269 
L 737.8278 62.990354 
L 738.411297 62.990354 
L 738.411297 62.627635 
L 738.994795 62.627635 
L 738.994795 65.166167 
L 739.578293 65.166167 
L 739.578293 65.437476 
L 740.161791 65.437476 
L 740.161791 74.494876 
L 740.745288 74.494876 
L 740.745288 73.727636 
L 741.328786 73.727636 
L 741.328786 70.557189 
L 741.912284 70.557189 
L 741.912284 69.643106 
L 742.495782 69.643106 
L 742.495782 68.811016 
L 743.07928 68.811016 
L 743.07928 71.745491 
L 743.662777 71.745491 
L 743.662777 69.159714 
L 744.246275 69.159714 
L 744.246275 68.477012 
L 744.829773 68.477012 
L 744.829773 67.476187 
L 745.413271 67.476187 
L 745.413271 68.472254 
L 746.580266 68.520128 
L 746.580266 67.75107 
L 748.33076 67.695616 
L 748.33076 66.49243 
L 748.914257 66.49243 
L 748.914257 65.89784 
L 749.497755 65.89784 
L 749.497755 63.200061 
L 750.081253 63.200061 
L 750.081253 63.054097 
L 750.664751 63.054097 
L 750.664751 60.557093 
L 751.248248 60.557093 
L 751.248248 63.36855 
L 751.831746 63.36855 
L 751.831746 62.079827 
L 752.415244 62.079827 
L 752.415244 61.899764 
L 752.998742 61.899764 
L 752.998742 61.019239 
L 753.58224 61.019239 
L 753.58224 62.396549 
L 754.165737 62.396549 
L 754.165737 63.021526 
L 754.749235 63.021526 
L 754.749235 61.491274 
L 755.332733 61.491274 
L 755.332733 61.753856 
L 755.916231 61.753856 
L 755.916231 61.296345 
L 757.083226 61.269299 
L 757.083226 61.042081 
L 757.666724 61.042081 
L 757.666724 61.733486 
L 758.83372 61.80781 
L 758.83372 61.912512 
L 759.417217 61.912512 
L 759.417217 62.127828 
L 760.584213 62.146467 
L 760.584213 62.775095 
L 761.167711 62.775095 
L 761.167711 62.473297 
L 761.751209 62.473297 
L 761.751209 62.615935 
L 762.334706 62.615935 
L 762.334706 61.982618 
L 762.918204 61.982618 
L 762.918204 62.234294 
L 763.501702 62.234294 
L 763.501702 62.102577 
L 764.0852 62.102577 
L 764.0852 62.336228 
L 765.252195 62.379412 
L 765.252195 61.884126 
L 765.835693 61.884126 
L 765.835693 61.530839 
L 766.419191 61.530839 
L 766.419191 58.470502 
L 767.002689 58.470502 
L 767.002689 58.33239 
L 768.169684 58.403038 
L 768.169684 57.15971 
L 769.33668 57.128637 
L 769.33668 57.812166 
L 769.920177 57.812166 
L 769.920177 57.116486 
L 770.503675 57.116486 
L 770.503675 56.205929 
L 771.087173 56.205929 
L 771.087173 56.953288 
L 771.670671 56.953288 
L 771.670671 57.335054 
L 772.254169 57.335054 
L 772.254169 57.67385 
L 773.421164 57.647615 
L 773.421164 56.85143 
L 774.004662 56.85143 
L 774.004662 59.59766 
L 774.58816 59.59766 
L 774.58816 59.800464 
L 776.338653 59.875824 
L 776.338653 58.650796 
L 776.922151 58.650796 
L 776.922151 58.396069 
L 777.505649 58.396069 
L 777.505649 59.468412 
L 778.089146 59.468412 
L 778.089146 59.149119 
L 779.256142 59.150125 
L 779.256142 59.294827 
L 781.006635 59.192647 
L 781.006635 57.979038 
L 781.590133 57.979038 
L 781.590133 57.745959 
L 782.173631 57.745959 
L 782.173631 57.932614 
L 782.757129 57.932614 
L 782.757129 57.145568 
L 783.340626 57.145568 
L 783.340626 55.043318 
L 784.507622 54.967905 
L 784.507622 54.563647 
L 785.09112 54.563647 
L 785.09112 53.751884 
L 785.674618 53.751884 
L 785.674618 53.429014 
L 786.258115 53.429014 
L 786.258115 51.186958 
L 786.841613 51.186958 
L 786.841613 51.55158 
L 787.425111 51.55158 
L 787.425111 50.26098 
L 788.008609 50.26098 
L 788.008609 50.689156 
L 788.592106 50.689156 
L 788.592106 48.399932 
L 789.175604 48.399932 
L 789.175604 47.357816 
L 789.759102 47.357816 
L 789.759102 46.831095 
L 790.3426 46.831095 
L 790.3426 49.196567 
L 790.926098 49.196567 
L 790.926098 46.248119 
L 791.509595 46.248119 
L 791.509595 46.523041 
L 792.676591 46.606573 
L 792.676591 47.522717 
L 793.260089 47.522717 
L 793.260089 47.241162 
L 793.843586 47.241162 
L 793.843586 46.539085 
L 794.427084 46.539085 
L 794.427084 42.853427 
L 795.010582 42.853427 
L 795.010582 43.226034 
L 795.59408 43.226034 
L 795.59408 42.344988 
L 796.177578 42.344988 
L 796.177578 40.205737 
L 796.761075 40.205737 
L 796.761075 38.205781 
L 797.344573 38.205781 
L 797.344573 35.896043 
L 797.928071 35.896043 
L 797.928071 34.716634 
L 798.511569 34.716634 
L 798.511569 30.966513 
L 799.095067 30.966513 
L 799.095067 33.808123 
L 799.678564 33.808123 
L 799.678564 31.765632 
L 800.262062 31.765632 
L 800.262062 33.661405 
L 800.84556 33.661405 
L 800.84556 33.811661 
L 801.429058 33.811661 
L 801.429058 35.958857 
L 802.012555 35.958857 
L 802.012555 35.670317 
L 802.596053 35.670317 
L 802.596053 34.551478 
L 803.179551 34.551478 
L 803.179551 35.043695 
L 803.763049 35.043695 
L 803.763049 32.960558 
L 804.346547 32.960558 
L 804.346547 31.890107 
L 804.930044 31.890107 
L 804.930044 28.889516 
L 805.513542 28.889516 
L 805.513542 27.832004 
L 806.09704 27.832004 
L 806.09704 26.967021 
L 806.680538 26.967021 
L 806.680538 24.250339 
L 807.264035 24.250339 
L 807.264035 24.937918 
L 807.847533 24.937918 
L 807.847533 28.004736 
L 808.431031 28.004736 
L 808.431031 28.778986 
L 809.014529 28.778986 
L 809.014529 26.409046 
L 809.598027 26.409046 
L 809.598027 27.086877 
L 810.181524 27.086877 
L 810.181524 24.644472 
L 810.765022 24.644472 
L 810.765022 23.751937 
L 811.34852 23.751937 
L 811.34852 24.311463 
L 811.932018 24.311463 
L 811.932018 23.600445 
L 813.099013 23.69384 
L 813.099013 25.577057 
L 813.682511 25.577057 
L 813.682511 24.270182 
L 814.266009 24.270182 
L 814.266009 23.214666 
L 815.433004 23.106754 
L 815.433004 23.098615 
L 816.016502 23.098615 
L 816.016502 23.460908 
L 816.6 23.460908 
L 816.6 22.775742 
L 817.183498 22.775742 
L 817.183498 21.744453 
L 817.766996 21.744453 
L 817.766996 22.732788 
L 818.350493 22.732788 
L 818.350493 24.028385 
L 818.933991 24.028385 
L 818.933991 26.128638 
L 819.517489 26.128638 
L 819.517489 24.963955 
L 820.100987 24.963955 
L 820.100987 25.149159 
L 820.684484 25.149159 
L 820.684484 23.990135 
L 821.267982 23.990135 
L 821.267982 23.671048 
L 821.85148 23.671048 
L 821.85148 23.14342 
L 822.434978 23.14342 
L 822.434978 23.9382 
L 823.018476 23.9382 
L 823.018476 26.642356 
L 823.601973 26.642356 
L 823.601973 29.50089 
L 824.185471 29.50089 
L 824.185471 30.907427 
L 824.768969 30.907427 
L 824.768969 34.282521 
L 825.352467 34.282521 
L 825.352467 31.70776 
L 825.935964 31.70776 
L 825.935964 34.347491 
L 826.519462 34.347491 
L 826.519462 33.154982 
L 827.10296 33.154982 
L 827.10296 33.027129 
L 827.686458 33.027129 
L 827.686458 35.048749 
L 828.269956 35.048749 
L 828.269956 33.130869 
L 828.853453 33.130869 
L 828.853453 31.815065 
L 829.436951 31.815065 
L 829.436951 32.219569 
L 830.020449 32.219569 
L 830.020449 33.820454 
L 830.603947 33.820454 
L 830.603947 35.731479 
L 831.187444 35.731479 
L 831.187444 36.262796 
L 831.770942 36.262796 
L 831.770942 34.464108 
L 832.35444 34.464108 
L 832.35444 35.034899 
L 832.937938 35.034899 
L 832.937938 33.948442 
L 833.521436 33.948442 
L 833.521436 34.84568 
L 834.104933 34.84568 
L 834.104933 35.048308 
L 834.688431 35.048308 
L 834.688431 35.576681 
L 835.271929 35.576681 
L 835.271929 36.409541 
L 835.855427 36.409541 
L 835.855427 36.819907 
L 836.438924 36.819907 
L 836.438924 35.829033 
L 837.022422 35.829033 
L 837.022422 33.91507 
L 837.60592 33.91507 
L 837.60592 31.31574 
L 838.189418 31.31574 
L 838.189418 30.459746 
L 838.772916 30.459746 
L 838.772916 32.322684 
L 839.356413 32.322684 
L 839.356413 29.876961 
L 839.939911 29.876961 
L 839.939911 28.216282 
L 840.523409 28.216282 
L 840.523409 29.10705 
L 841.106907 29.10705 
L 841.106907 27.889659 
L 841.690405 27.889659 
L 841.690405 28.936722 
L 842.273902 28.936722 
L 842.273902 27.065124 
L 842.8574 27.065124 
L 842.8574 27.583378 
L 843.440898 27.583378 
L 843.440898 27.011371 
L 844.024396 27.011371 
L 844.024396 27.881429 
L 844.607893 27.881429 
L 844.607893 26.894661 
L 845.191391 26.894661 
L 845.191391 25.87614 
L 845.774889 25.87614 
L 845.774889 28.332743 
L 846.358387 28.332743 
L 846.358387 28.764556 
L 846.941885 28.764556 
L 846.941885 27.882617 
L 848.10888 27.796977 
L 848.10888 29.839749 
L 848.692378 29.839749 
L 848.692378 28.884445 
L 849.275876 28.884445 
L 849.275876 29.701989 
L 849.859373 29.701989 
L 849.859373 30.529074 
L 850.442871 30.529074 
L 850.442871 27.591103 
L 851.026369 27.591103 
L 851.026369 25.98368 
L 851.609867 25.98368 
L 851.609867 25.037976 
L 852.193365 25.037976 
L 852.193365 23.678838 
L 853.36036 23.698775 
L 853.36036 22.226627 
L 853.943858 22.226627 
L 853.943858 20.732418 
L 854.527356 20.732418 
L 854.527356 22.319009 
L 855.110853 22.319009 
L 855.110853 22.642373 
L 855.694351 22.642373 
L 855.694351 21.987038 
L 856.277849 21.987038 
L 856.277849 22.404485 
L 856.861347 22.404485 
L 856.861347 22.262435 
L 857.444845 22.262435 
L 857.444845 21.636151 
L 858.028342 21.636151 
L 858.028342 21.082361 
L 858.61184 21.082361 
L 858.61184 21.263585 
L 859.195338 21.263585 
L 859.195338 22.702907 
L 859.778836 22.702907 
L 859.778836 23.430247 
L 860.362334 23.430247 
L 860.362334 24.105578 
L 860.945831 24.105578 
L 860.945831 23.141043 
L 861.529329 23.141043 
L 861.529329 23.737572 
L 862.696325 23.760605 
L 862.696325 26.926824 
L 863.279822 26.926824 
L 863.279822 26.339072 
L 863.86332 26.339072 
L 863.86332 27.853354 
L 864.446818 27.853354 
L 864.446818 28.024276 
L 865.030316 28.024276 
L 865.030316 27.6215 
L 865.613814 27.6215 
L 865.613814 28.054893 
L 866.197311 28.054893 
L 866.197311 27.196453 
L 866.780809 27.196453 
L 866.780809 26.411892 
L 867.364307 26.411892 
L 867.364307 27.646799 
L 867.947805 27.646799 
L 867.947805 28.254517 
L 869.1148 28.166925 
L 869.1148 29.7323 
L 869.698298 29.7323 
L 869.698298 30.355997 
L 870.281796 30.355997 
L 870.281796 29.341921 
L 870.865294 29.341921 
L 870.865294 29.719632 
L 871.448791 29.719632 
L 871.448791 30.097051 
L 872.032289 30.097051 
L 872.032289 33.259846 
L 872.615787 33.259846 
L 872.615787 33.145674 
L 873.199285 33.145674 
L 873.199285 32.878187 
L 873.782782 32.878187 
L 873.782782 32.444384 
L 874.36628 32.444384 
L 874.36628 33.011595 
L 874.949778 33.011595 
L 874.949778 30.573296 
L 875.533276 30.573296 
L 875.533276 29.242607 
L 876.116774 29.242607 
L 876.116774 30.087202 
L 877.283769 29.997999 
L 877.283769 31.020819 
L 877.867267 31.020819 
L 877.867267 32.18797 
L 878.450765 32.18797 
L 878.450765 32.79621 
L 879.034263 32.79621 
L 879.034263 31.795046 
L 879.61776 31.795046 
L 879.61776 29.106552 
L 880.201258 29.106552 
L 880.201258 31.774911 
L 880.784756 31.774911 
L 880.784756 32.381122 
L 881.368254 32.381122 
L 881.368254 31.615634 
L 881.951751 31.615634 
L 881.951751 32.499105 
L 882.535249 32.499105 
L 882.535249 30.727796 
L 883.118747 30.727796 
L 883.118747 30.176424 
L 884.285743 30.101436 
L 884.285743 29.146722 
L 884.86924 29.146722 
L 884.86924 27.862992 
L 885.452738 27.862992 
L 885.452738 28.581041 
L 886.036236 28.581041 
L 886.036236 28.174408 
L 886.619734 28.174408 
L 886.619734 29.47741 
L 887.194182 29.47741 
L 887.194182 29.47741 
" clip-path="url(#p9ea8c3bddb)" style="fill: none; stroke: #3572c6; stroke-width: 1.2; stroke-linecap: square"/>
   </g>
   <g id="line2d_74">
    <path d="M 75.557818 20.732418 
L 887.194182 20.732418 
L 887.194182 20.732418 
" clip-path="url(#p9ea8c3bddb)" style="fill: none; stroke: #83a83b; stroke-width: 1.2; stroke-linecap: square"/>
   </g>
   <g id="line2d_75">
    <path d="M 75.557818 33.259846 
L 887.194182 33.259846 
L 887.194182 33.259846 
" clip-path="url(#p9ea8c3bddb)" style="fill: none; stroke: #c44e52; stroke-width: 1.2; stroke-linecap: square"/>
   </g>
   <g id="line2d_76">
    <path d="M 854.527356 301.139691 
L 854.527356 7.379691 
" clip-path="url(#p9ea8c3bddb)" style="fill: none; stroke: #83a83b; stroke-width: 1.2; stroke-linecap: square"/>
   </g>
   <g id="line2d_77">
    <path d="M 872.615787 301.139691 
L 872.615787 7.379691 
" clip-path="url(#p9ea8c3bddb)" style="fill: none; stroke: #c44e52; stroke-width: 1.2; stroke-linecap: square"/>
   </g>
   <g id="patch_3">
    <path d="M 34.976 301.139691 
L 34.976 7.379691 
" style="fill: none; stroke: #899ab8; stroke-width: 1.12; stroke-linejoin: miter; stroke-linecap: square"/>
   </g>
   <g id="patch_4">
    <path d="M 927.776 301.139691 
L 927.776 7.379691 
" style="fill: none; stroke: #899ab8; stroke-width: 1.12; stroke-linejoin: miter; stroke-linecap: square"/>
   </g>
   <g id="patch_5">
    <path d="M 34.976 301.139691 
L 927.776 301.139691 
" style="fill: none; stroke: #899ab8; stroke-width: 1.12; stroke-linejoin: miter; stroke-linecap: square"/>
   </g>
   <g id="patch_6">
    <path d="M 34.976 7.379691 
L 927.776 7.379691 
" style="fill: none; stroke: #899ab8; stroke-width: 1.12; stroke-linejoin: miter; stroke-linecap: square"/>
   </g>
   <g id="text_14">
    <!-- 66063.56 -->
    <g style="fill: #83a83b" transform="translate(217.347779 20.732418)scale(0.132 -0.132)">
     <defs>
      <path id="DejaVuSans-2e" d="M 684 794 
L 1344 794 
L 1344 0 
L 684 0 
L 684 794 
z
" transform="scale(0.015625)"/>
     </defs>
     <use xlink:href="#DejaVuSans-36"/>
     <use xlink:href="#DejaVuSans-36" x="63.623047"/>
     <use xlink:href="#DejaVuSans-30" x="127.246094"/>
     <use xlink:href="#DejaVuSans-36" x="190.869141"/>
     <use xlink:href="#DejaVuSans-33" x="254.492188"/>
     <use xlink:href="#DejaVuSans-2e" x="318.115234"/>
     <use xlink:href="#DejaVuSans-35" x="349.902344"/>
     <use xlink:href="#DejaVuSans-36" x="413.525391"/>
    </g>
   </g>
   <g id="text_15">
    <!-- 36480.85 -->
    <g style="fill: #c44e52" transform="translate(217.347779 33.259846)scale(0.132 -0.132)">
     <use xlink:href="#DejaVuSans-33"/>
     <use xlink:href="#DejaVuSans-36" x="63.623047"/>
     <use xlink:href="#DejaVuSans-34" x="127.246094"/>
     <use xlink:href="#DejaVuSans-38" x="190.869141"/>
     <use xlink:href="#DejaVuSans-30" x="254.492188"/>
     <use xlink:href="#DejaVuSans-2e" x="318.115234"/>
     <use xlink:href="#DejaVuSans-38" x="349.902344"/>
     <use xlink:href="#DejaVuSans-35" x="413.525391"/>
    </g>
   </g>
   <g id="legend_1">
    <g id="patch_7">
     <path d="M 432.207453 294.839691 
L 530.544547 294.839691 
Q 533.064547 294.839691 533.064547 292.319691 
L 533.064547 237.745941 
Q 533.064547 235.225941 530.544547 235.225941 
L 432.207453 235.225941 
Q 429.687453 235.225941 429.687453 237.745941 
L 429.687453 292.319691 
Q 429.687453 294.839691 432.207453 294.839691 
z
" style="fill: #373e4b; opacity: 0.8; stroke: #cccccc; stroke-width: 0.16; stroke-linejoin: miter"/>
    </g>
    <g id="line2d_78">
     <path d="M 434.727453 245.429972 
L 434.727453 245.429972 
L 447.327453 245.429972 
L 447.327453 245.429972 
L 459.927453 245.429972 
" style="fill: none; stroke: #3572c6; stroke-width: 1.2; stroke-linecap: square"/>
    </g>
    <g id="text_16">
     <!-- USD/BTC -->
     <g style="fill: #b1bed6" transform="translate(470.007453 249.839972)scale(0.126 -0.126)">
      <defs>
       <path id="DejaVuSans-55" d="M 556 4666 
L 1191 4666 
L 1191 1831 
Q 1191 1081 1462 751 
Q 1734 422 2344 422 
Q 2950 422 3222 751 
Q 3494 1081 3494 1831 
L 3494 4666 
L 4128 4666 
L 4128 1753 
Q 4128 841 3676 375 
Q 3225 -91 2344 -91 
Q 1459 -91 1007 375 
Q 556 841 556 1753 
L 556 4666 
z
" transform="scale(0.015625)"/>
       <path id="DejaVuSans-53" d="M 3425 4513 
L 3425 3897 
Q 3066 4069 2747 4153 
Q 2428 4238 2131 4238 
Q 1616 4238 1336 4038 
Q 1056 3838 1056 3469 
Q 1056 3159 1242 3001 
Q 1428 2844 1947 2747 
L 2328 2669 
Q 3034 2534 3370 2195 
Q 3706 1856 3706 1288 
Q 3706 609 3251 259 
Q 2797 -91 1919 -91 
Q 1588 -91 1214 -16 
Q 841 59 441 206 
L 441 856 
Q 825 641 1194 531 
Q 1563 422 1919 422 
Q 2459 422 2753 634 
Q 3047 847 3047 1241 
Q 3047 1584 2836 1778 
Q 2625 1972 2144 2069 
L 1759 2144 
Q 1053 2284 737 2584 
Q 422 2884 422 3419 
Q 422 4038 858 4394 
Q 1294 4750 2059 4750 
Q 2388 4750 2728 4690 
Q 3069 4631 3425 4513 
z
" transform="scale(0.015625)"/>
       <path id="DejaVuSans-2f" d="M 1625 4666 
L 2156 4666 
L 531 -594 
L 0 -594 
L 1625 4666 
z
" transform="scale(0.015625)"/>
       <path id="DejaVuSans-42" d="M 1259 2228 
L 1259 519 
L 2272 519 
Q 2781 519 3026 730 
Q 3272 941 3272 1375 
Q 3272 1813 3026 2020 
Q 2781 2228 2272 2228 
L 1259 2228 
z
M 1259 4147 
L 1259 2741 
L 2194 2741 
Q 2656 2741 2882 2914 
Q 3109 3088 3109 3444 
Q 3109 3797 2882 3972 
Q 2656 4147 2194 4147 
L 1259 4147 
z
M 628 4666 
L 2241 4666 
Q 2963 4666 3353 4366 
Q 3744 4066 3744 3513 
Q 3744 3084 3544 2831 
Q 3344 2578 2956 2516 
Q 3422 2416 3680 2098 
Q 3938 1781 3938 1306 
Q 3938 681 3513 340 
Q 3088 0 2303 0 
L 628 0 
L 628 4666 
z
" transform="scale(0.015625)"/>
       <path id="DejaVuSans-54" d="M -19 4666 
L 3928 4666 
L 3928 4134 
L 2272 4134 
L 2272 0 
L 1638 0 
L 1638 4134 
L -19 4134 
L -19 4666 
z
" transform="scale(0.015625)"/>
       <path id="DejaVuSans-43" d="M 4122 4306 
L 4122 3641 
Q 3803 3938 3442 4084 
Q 3081 4231 2675 4231 
Q 1875 4231 1450 3742 
Q 1025 3253 1025 2328 
Q 1025 1406 1450 917 
Q 1875 428 2675 428 
Q 3081 428 3442 575 
Q 3803 722 4122 1019 
L 4122 359 
Q 3791 134 3420 21 
Q 3050 -91 2638 -91 
Q 1578 -91 968 557 
Q 359 1206 359 2328 
Q 359 3453 968 4101 
Q 1578 4750 2638 4750 
Q 3056 4750 3426 4639 
Q 3797 4528 4122 4306 
z
" transform="scale(0.015625)"/>
      </defs>
      <use xlink:href="#DejaVuSans-55"/>
      <use xlink:href="#DejaVuSans-53" x="73.193359"/>
      <use xlink:href="#DejaVuSans-44" x="136.669922"/>
      <use xlink:href="#DejaVuSans-2f" x="213.671875"/>
      <use xlink:href="#DejaVuSans-42" x="247.363281"/>
      <use xlink:href="#DejaVuSans-54" x="315.966797"/>
      <use xlink:href="#DejaVuSans-43" x="371.175781"/>
     </g>
    </g>
    <g id="line2d_79">
     <path d="M 434.727453 263.92441 
L 434.727453 263.92441 
L 447.327453 263.92441 
L 447.327453 263.92441 
L 459.927453 263.92441 
" style="fill: none; stroke: #83a83b; stroke-width: 1.2; stroke-linecap: square"/>
    </g>
    <g id="text_17">
     <!-- Max -->
     <g style="fill: #b1bed6" transform="translate(470.007453 268.33441)scale(0.126 -0.126)">
      <defs>
       <path id="DejaVuSans-4d" d="M 628 4666 
L 1569 4666 
L 2759 1491 
L 3956 4666 
L 4897 4666 
L 4897 0 
L 4281 0 
L 4281 4097 
L 3078 897 
L 2444 897 
L 1241 4097 
L 1241 0 
L 628 0 
L 628 4666 
z
" transform="scale(0.015625)"/>
       <path id="DejaVuSans-78" d="M 3513 3500 
L 2247 1797 
L 3578 0 
L 2900 0 
L 1881 1375 
L 863 0 
L 184 0 
L 1544 1831 
L 300 3500 
L 978 3500 
L 1906 2253 
L 2834 3500 
L 3513 3500 
z
" transform="scale(0.015625)"/>
      </defs>
      <use xlink:href="#DejaVuSans-4d"/>
      <use xlink:href="#DejaVuSans-61" x="86.279297"/>
      <use xlink:href="#DejaVuSans-78" x="147.558594"/>
     </g>
    </g>
    <g id="line2d_80">
     <path d="M 434.727453 282.418847 
L 434.727453 282.418847 
L 447.327453 282.418847 
L 447.327453 282.418847 
L 459.927453 282.418847 
" style="fill: none; stroke: #c44e52; stroke-width: 1.2; stroke-linecap: square"/>
    </g>
    <g id="text_18">
     <!-- local_Min -->
     <g style="fill: #b1bed6" transform="translate(470.007453 286.828847)scale(0.126 -0.126)">
      <defs>
       <path id="DejaVuSans-6c" d="M 603 4863 
L 1178 4863 
L 1178 0 
L 603 0 
L 603 4863 
z
" transform="scale(0.015625)"/>
       <path id="DejaVuSans-6f" d="M 1959 3097 
Q 1497 3097 1228 2736 
Q 959 2375 959 1747 
Q 959 1119 1226 758 
Q 1494 397 1959 397 
Q 2419 397 2687 759 
Q 2956 1122 2956 1747 
Q 2956 2369 2687 2733 
Q 2419 3097 1959 3097 
z
M 1959 3584 
Q 2709 3584 3137 3096 
Q 3566 2609 3566 1747 
Q 3566 888 3137 398 
Q 2709 -91 1959 -91 
Q 1206 -91 779 398 
Q 353 888 353 1747 
Q 353 2609 779 3096 
Q 1206 3584 1959 3584 
z
" transform="scale(0.015625)"/>
       <path id="DejaVuSans-63" d="M 3122 3366 
L 3122 2828 
Q 2878 2963 2633 3030 
Q 2388 3097 2138 3097 
Q 1578 3097 1268 2742 
Q 959 2388 959 1747 
Q 959 1106 1268 751 
Q 1578 397 2138 397 
Q 2388 397 2633 464 
Q 2878 531 3122 666 
L 3122 134 
Q 2881 22 2623 -34 
Q 2366 -91 2075 -91 
Q 1284 -91 818 406 
Q 353 903 353 1747 
Q 353 2603 823 3093 
Q 1294 3584 2113 3584 
Q 2378 3584 2631 3529 
Q 2884 3475 3122 3366 
z
" transform="scale(0.015625)"/>
       <path id="DejaVuSans-5f" d="M 3263 -1063 
L 3263 -1509 
L -63 -1509 
L -63 -1063 
L 3263 -1063 
z
" transform="scale(0.015625)"/>
       <path id="DejaVuSans-69" d="M 603 3500 
L 1178 3500 
L 1178 0 
L 603 0 
L 603 3500 
z
M 603 4863 
L 1178 4863 
L 1178 4134 
L 603 4134 
L 603 4863 
z
" transform="scale(0.015625)"/>
       <path id="DejaVuSans-6e" d="M 3513 2113 
L 3513 0 
L 2938 0 
L 2938 2094 
Q 2938 2591 2744 2837 
Q 2550 3084 2163 3084 
Q 1697 3084 1428 2787 
Q 1159 2491 1159 1978 
L 1159 0 
L 581 0 
L 581 3500 
L 1159 3500 
L 1159 2956 
Q 1366 3272 1645 3428 
Q 1925 3584 2291 3584 
Q 2894 3584 3203 3211 
Q 3513 2838 3513 2113 
z
" transform="scale(0.015625)"/>
      </defs>
      <use xlink:href="#DejaVuSans-6c"/>
      <use xlink:href="#DejaVuSans-6f" x="27.783203"/>
      <use xlink:href="#DejaVuSans-63" x="88.964844"/>
      <use xlink:href="#DejaVuSans-61" x="143.945312"/>
      <use xlink:href="#DejaVuSans-6c" x="205.224609"/>
      <use xlink:href="#DejaVuSans-5f" x="233.007812"/>
      <use xlink:href="#DejaVuSans-4d" x="283.007812"/>
      <use xlink:href="#DejaVuSans-69" x="369.287109"/>
      <use xlink:href="#DejaVuSans-6e" x="397.070312"/>
     </g>
    </g>
   </g>
  </g>
 </g>
 <defs>
  <clipPath id="p9ea8c3bddb">
   <rect x="34.976" y="7.379691" width="892.8" height="293.76"/>
  </clipPath>
 </defs>
</svg>
