<?xml version="1.0" encoding="utf-8" standalone="no"?>
<!DOCTYPE svg PUBLIC "-//W3C//DTD SVG 1.1//EN"
  "http://www.w3.org/Graphics/SVG/1.1/DTD/svg11.dtd">
<svg xmlns:xlink="http://www.w3.org/1999/xlink" width="952.88375pt" height="358.290693pt" viewBox="0 0 952.88375 358.290693" xmlns="http://www.w3.org/2000/svg" version="1.1">
 <metadata>
  <rdf:RDF xmlns:dc="http://purl.org/dc/elements/1.1/" xmlns:cc="http://creativecommons.org/ns#" xmlns:rdf="http://www.w3.org/1999/02/22-rdf-syntax-ns#">
   <cc:Work>
    <dc:type rdf:resource="http://purl.org/dc/dcmitype/StillImage"/>
    <dc:date>2023-08-27T06:19:52.960979</dc:date>
    <dc:format>image/svg+xml</dc:format>
    <dc:creator>
     <cc:Agent>
      <dc:title>Matplotlib v3.7.2, https://matplotlib.org/</dc:title>
     </cc:Agent>
    </dc:creator>
   </cc:Work>
  </rdf:RDF>
 </metadata>
 <defs>
  <style type="text/css">*{stroke-linejoin: round; stroke-linecap: butt}</style>
 </defs>
 <g id="figure_1">
  <g id="patch_1">
   <path d="M 0 358.290693 
L 952.88375 358.290693 
L 952.88375 0 
L 0 0 
z
" style="fill: #373e4b"/>
  </g>
  <g id="axes_1">
   <g id="patch_2">
    <path d="M 52.88375 300.96 
L 945.68375 300.96 
L 945.68375 7.2 
L 52.88375 7.2 
z
" style="fill: #373e4b"/>
   </g>
   <g id="matplotlib.axis_1">
    <g id="xtick_1">
     <g id="line2d_1">
      <path d="M 100.095108 300.96 
L 100.095108 7.2 
" clip-path="url(#ped17aa9f0c)" style="fill: none; stroke: #546379; stroke-width: 1.12; stroke-linecap: square"/>
     </g>
     <g id="line2d_2"/>
     <g id="text_1">
      <!-- 2018 -->
      <g style="fill: #b1bed6" transform="translate(71.014069 330.884854) rotate(-30) scale(0.126 -0.126)">
       <defs>
        <path id="DejaVuSans-32" d="M 1228 531 
L 3431 531 
L 3431 0 
L 469 0 
L 469 531 
Q 828 903 1448 1529 
Q 2069 2156 2228 2338 
Q 2531 2678 2651 2914 
Q 2772 3150 2772 3378 
Q 2772 3750 2511 3984 
Q 2250 4219 1831 4219 
Q 1534 4219 1204 4116 
Q 875 4013 500 3803 
L 500 4441 
Q 881 4594 1212 4672 
Q 1544 4750 1819 4750 
Q 2544 4750 2975 4387 
Q 3406 4025 3406 3419 
Q 3406 3131 3298 2873 
Q 3191 2616 2906 2266 
Q 2828 2175 2409 1742 
Q 1991 1309 1228 531 
z
" transform="scale(0.015625)"/>
        <path id="DejaVuSans-30" d="M 2034 4250 
Q 1547 4250 1301 3770 
Q 1056 3291 1056 2328 
Q 1056 1369 1301 889 
Q 1547 409 2034 409 
Q 2525 409 2770 889 
Q 3016 1369 3016 2328 
Q 3016 3291 2770 3770 
Q 2525 4250 2034 4250 
z
M 2034 4750 
Q 2819 4750 3233 4129 
Q 3647 3509 3647 2328 
Q 3647 1150 3233 529 
Q 2819 -91 2034 -91 
Q 1250 -91 836 529 
Q 422 1150 422 2328 
Q 422 3509 836 4129 
Q 1250 4750 2034 4750 
z
" transform="scale(0.015625)"/>
        <path id="DejaVuSans-31" d="M 794 531 
L 1825 531 
L 1825 4091 
L 703 3866 
L 703 4441 
L 1819 4666 
L 2450 4666 
L 2450 531 
L 3481 531 
L 3481 0 
L 794 0 
L 794 531 
z
" transform="scale(0.015625)"/>
        <path id="DejaVuSans-38" d="M 2034 2216 
Q 1584 2216 1326 1975 
Q 1069 1734 1069 1313 
Q 1069 891 1326 650 
Q 1584 409 2034 409 
Q 2484 409 2743 651 
Q 3003 894 3003 1313 
Q 3003 1734 2745 1975 
Q 2488 2216 2034 2216 
z
M 1403 2484 
Q 997 2584 770 2862 
Q 544 3141 544 3541 
Q 544 4100 942 4425 
Q 1341 4750 2034 4750 
Q 2731 4750 3128 4425 
Q 3525 4100 3525 3541 
Q 3525 3141 3298 2862 
Q 3072 2584 2669 2484 
Q 3125 2378 3379 2068 
Q 3634 1759 3634 1313 
Q 3634 634 3220 271 
Q 2806 -91 2034 -91 
Q 1263 -91 848 271 
Q 434 634 434 1313 
Q 434 1759 690 2068 
Q 947 2378 1403 2484 
z
M 1172 3481 
Q 1172 3119 1398 2916 
Q 1625 2713 2034 2713 
Q 2441 2713 2670 2916 
Q 2900 3119 2900 3481 
Q 2900 3844 2670 4047 
Q 2441 4250 2034 4250 
Q 1625 4250 1398 4047 
Q 1172 3844 1172 3481 
z
" transform="scale(0.015625)"/>
       </defs>
       <use xlink:href="#DejaVuSans-32"/>
       <use xlink:href="#DejaVuSans-30" x="63.623047"/>
       <use xlink:href="#DejaVuSans-31" x="127.246094"/>
       <use xlink:href="#DejaVuSans-38" x="190.869141"/>
      </g>
     </g>
    </g>
    <g id="xtick_2">
     <g id="line2d_3">
      <path d="M 242.435238 300.96 
L 242.435238 7.2 
" clip-path="url(#ped17aa9f0c)" style="fill: none; stroke: #546379; stroke-width: 1.12; stroke-linecap: square"/>
     </g>
     <g id="line2d_4"/>
     <g id="text_2">
      <!-- 2019 -->
      <g style="fill: #b1bed6" transform="translate(213.354198 330.884854) rotate(-30) scale(0.126 -0.126)">
       <defs>
        <path id="DejaVuSans-39" d="M 703 97 
L 703 672 
Q 941 559 1184 500 
Q 1428 441 1663 441 
Q 2288 441 2617 861 
Q 2947 1281 2994 2138 
Q 2813 1869 2534 1725 
Q 2256 1581 1919 1581 
Q 1219 1581 811 2004 
Q 403 2428 403 3163 
Q 403 3881 828 4315 
Q 1253 4750 1959 4750 
Q 2769 4750 3195 4129 
Q 3622 3509 3622 2328 
Q 3622 1225 3098 567 
Q 2575 -91 1691 -91 
Q 1453 -91 1209 -44 
Q 966 3 703 97 
z
M 1959 2075 
Q 2384 2075 2632 2365 
Q 2881 2656 2881 3163 
Q 2881 3666 2632 3958 
Q 2384 4250 1959 4250 
Q 1534 4250 1286 3958 
Q 1038 3666 1038 3163 
Q 1038 2656 1286 2365 
Q 1534 2075 1959 2075 
z
" transform="scale(0.015625)"/>
       </defs>
       <use xlink:href="#DejaVuSans-32"/>
       <use xlink:href="#DejaVuSans-30" x="63.623047"/>
       <use xlink:href="#DejaVuSans-31" x="127.246094"/>
       <use xlink:href="#DejaVuSans-39" x="190.869141"/>
      </g>
     </g>
    </g>
    <g id="xtick_3">
     <g id="line2d_5">
      <path d="M 384.775368 300.96 
L 384.775368 7.2 
" clip-path="url(#ped17aa9f0c)" style="fill: none; stroke: #546379; stroke-width: 1.12; stroke-linecap: square"/>
     </g>
     <g id="line2d_6"/>
     <g id="text_3">
      <!-- 2020 -->
      <g style="fill: #b1bed6" transform="translate(355.694328 330.884854) rotate(-30) scale(0.126 -0.126)">
       <use xlink:href="#DejaVuSans-32"/>
       <use xlink:href="#DejaVuSans-30" x="63.623047"/>
       <use xlink:href="#DejaVuSans-32" x="127.246094"/>
       <use xlink:href="#DejaVuSans-30" x="190.869141"/>
      </g>
     </g>
    </g>
    <g id="xtick_4">
     <g id="line2d_7">
      <path d="M 527.50547 300.96 
L 527.50547 7.2 
" clip-path="url(#ped17aa9f0c)" style="fill: none; stroke: #546379; stroke-width: 1.12; stroke-linecap: square"/>
     </g>
     <g id="line2d_8"/>
     <g id="text_4">
      <!-- 2021 -->
      <g style="fill: #b1bed6" transform="translate(498.42443 330.884854) rotate(-30) scale(0.126 -0.126)">
       <use xlink:href="#DejaVuSans-32"/>
       <use xlink:href="#DejaVuSans-30" x="63.623047"/>
       <use xlink:href="#DejaVuSans-32" x="127.246094"/>
       <use xlink:href="#DejaVuSans-31" x="190.869141"/>
      </g>
     </g>
    </g>
    <g id="xtick_5">
     <g id="line2d_9">
      <path d="M 669.8456 300.96 
L 669.8456 7.2 
" clip-path="url(#ped17aa9f0c)" style="fill: none; stroke: #546379; stroke-width: 1.12; stroke-linecap: square"/>
     </g>
     <g id="line2d_10"/>
     <g id="text_5">
      <!-- 2022 -->
      <g style="fill: #b1bed6" transform="translate(640.76456 330.884854) rotate(-30) scale(0.126 -0.126)">
       <use xlink:href="#DejaVuSans-32"/>
       <use xlink:href="#DejaVuSans-30" x="63.623047"/>
       <use xlink:href="#DejaVuSans-32" x="127.246094"/>
       <use xlink:href="#DejaVuSans-32" x="190.869141"/>
      </g>
     </g>
    </g>
    <g id="xtick_6">
     <g id="line2d_11">
      <path d="M 812.185729 300.96 
L 812.185729 7.2 
" clip-path="url(#ped17aa9f0c)" style="fill: none; stroke: #546379; stroke-width: 1.12; stroke-linecap: square"/>
     </g>
     <g id="line2d_12"/>
     <g id="text_6">
      <!-- 2023 -->
      <g style="fill: #b1bed6" transform="translate(783.104689 330.884854) rotate(-30) scale(0.126 -0.126)">
       <defs>
        <path id="DejaVuSans-33" d="M 2597 2516 
Q 3050 2419 3304 2112 
Q 3559 1806 3559 1356 
Q 3559 666 3084 287 
Q 2609 -91 1734 -91 
Q 1441 -91 1130 -33 
Q 819 25 488 141 
L 488 750 
Q 750 597 1062 519 
Q 1375 441 1716 441 
Q 2309 441 2620 675 
Q 2931 909 2931 1356 
Q 2931 1769 2642 2001 
Q 2353 2234 1838 2234 
L 1294 2234 
L 1294 2753 
L 1863 2753 
Q 2328 2753 2575 2939 
Q 2822 3125 2822 3475 
Q 2822 3834 2567 4026 
Q 2313 4219 1838 4219 
Q 1578 4219 1281 4162 
Q 984 4106 628 3988 
L 628 4550 
Q 988 4650 1302 4700 
Q 1616 4750 1894 4750 
Q 2613 4750 3031 4423 
Q 3450 4097 3450 3541 
Q 3450 3153 3228 2886 
Q 3006 2619 2597 2516 
z
" transform="scale(0.015625)"/>
       </defs>
       <use xlink:href="#DejaVuSans-32"/>
       <use xlink:href="#DejaVuSans-30" x="63.623047"/>
       <use xlink:href="#DejaVuSans-32" x="127.246094"/>
       <use xlink:href="#DejaVuSans-33" x="190.869141"/>
      </g>
     </g>
    </g>
    <g id="text_7">
     <!-- Date -->
     <g style="fill: #b1bed6" transform="translate(482.074625 348.095943) scale(0.144 -0.144)">
      <defs>
       <path id="DejaVuSans-44" d="M 1259 4147 
L 1259 519 
L 2022 519 
Q 2988 519 3436 956 
Q 3884 1394 3884 2338 
Q 3884 3275 3436 3711 
Q 2988 4147 2022 4147 
L 1259 4147 
z
M 628 4666 
L 1925 4666 
Q 3281 4666 3915 4102 
Q 4550 3538 4550 2338 
Q 4550 1131 3912 565 
Q 3275 0 1925 0 
L 628 0 
L 628 4666 
z
" transform="scale(0.015625)"/>
       <path id="DejaVuSans-61" d="M 2194 1759 
Q 1497 1759 1228 1600 
Q 959 1441 959 1056 
Q 959 750 1161 570 
Q 1363 391 1709 391 
Q 2188 391 2477 730 
Q 2766 1069 2766 1631 
L 2766 1759 
L 2194 1759 
z
M 3341 1997 
L 3341 0 
L 2766 0 
L 2766 531 
Q 2569 213 2275 61 
Q 1981 -91 1556 -91 
Q 1019 -91 701 211 
Q 384 513 384 1019 
Q 384 1609 779 1909 
Q 1175 2209 1959 2209 
L 2766 2209 
L 2766 2266 
Q 2766 2663 2505 2880 
Q 2244 3097 1772 3097 
Q 1472 3097 1187 3025 
Q 903 2953 641 2809 
L 641 3341 
Q 956 3463 1253 3523 
Q 1550 3584 1831 3584 
Q 2591 3584 2966 3190 
Q 3341 2797 3341 1997 
z
" transform="scale(0.015625)"/>
       <path id="DejaVuSans-74" d="M 1172 4494 
L 1172 3500 
L 2356 3500 
L 2356 3053 
L 1172 3053 
L 1172 1153 
Q 1172 725 1289 603 
Q 1406 481 1766 481 
L 2356 481 
L 2356 0 
L 1766 0 
Q 1100 0 847 248 
Q 594 497 594 1153 
L 594 3053 
L 172 3053 
L 172 3500 
L 594 3500 
L 594 4494 
L 1172 4494 
z
" transform="scale(0.015625)"/>
       <path id="DejaVuSans-65" d="M 3597 1894 
L 3597 1613 
L 953 1613 
Q 991 1019 1311 708 
Q 1631 397 2203 397 
Q 2534 397 2845 478 
Q 3156 559 3463 722 
L 3463 178 
Q 3153 47 2828 -22 
Q 2503 -91 2169 -91 
Q 1331 -91 842 396 
Q 353 884 353 1716 
Q 353 2575 817 3079 
Q 1281 3584 2069 3584 
Q 2775 3584 3186 3129 
Q 3597 2675 3597 1894 
z
M 3022 2063 
Q 3016 2534 2758 2815 
Q 2500 3097 2075 3097 
Q 1594 3097 1305 2825 
Q 1016 2553 972 2059 
L 3022 2063 
z
" transform="scale(0.015625)"/>
      </defs>
      <use xlink:href="#DejaVuSans-44"/>
      <use xlink:href="#DejaVuSans-61" x="77.001953"/>
      <use xlink:href="#DejaVuSans-74" x="138.28125"/>
      <use xlink:href="#DejaVuSans-65" x="177.490234"/>
     </g>
    </g>
   </g>
   <g id="matplotlib.axis_2">
    <g id="ytick_1">
     <g id="line2d_13">
      <path d="M 52.88375 258.56324 
L 945.68375 258.56324 
" clip-path="url(#ped17aa9f0c)" style="fill: none; stroke: #546379; stroke-width: 1.12; stroke-linecap: square"/>
     </g>
     <g id="line2d_14"/>
     <g id="text_8">
      <!-- 10000 -->
      <g style="fill: #b1bed6" transform="translate(7.2 263.350256) scale(0.126 -0.126)">
       <use xlink:href="#DejaVuSans-31"/>
       <use xlink:href="#DejaVuSans-30" x="63.623047"/>
       <use xlink:href="#DejaVuSans-30" x="127.246094"/>
       <use xlink:href="#DejaVuSans-30" x="190.869141"/>
       <use xlink:href="#DejaVuSans-30" x="254.492188"/>
      </g>
     </g>
    </g>
    <g id="ytick_2">
     <g id="line2d_15">
      <path d="M 52.88375 215.161403 
L 945.68375 215.161403 
" clip-path="url(#ped17aa9f0c)" style="fill: none; stroke: #546379; stroke-width: 1.12; stroke-linecap: square"/>
     </g>
     <g id="line2d_16"/>
     <g id="text_9">
      <!-- 20000 -->
      <g style="fill: #b1bed6" transform="translate(7.2 219.948418) scale(0.126 -0.126)">
       <use xlink:href="#DejaVuSans-32"/>
       <use xlink:href="#DejaVuSans-30" x="63.623047"/>
       <use xlink:href="#DejaVuSans-30" x="127.246094"/>
       <use xlink:href="#DejaVuSans-30" x="190.869141"/>
       <use xlink:href="#DejaVuSans-30" x="254.492188"/>
      </g>
     </g>
    </g>
    <g id="ytick_3">
     <g id="line2d_17">
      <path d="M 52.88375 171.759565 
L 945.68375 171.759565 
" clip-path="url(#ped17aa9f0c)" style="fill: none; stroke: #546379; stroke-width: 1.12; stroke-linecap: square"/>
     </g>
     <g id="line2d_18"/>
     <g id="text_10">
      <!-- 30000 -->
      <g style="fill: #b1bed6" transform="translate(7.2 176.546581) scale(0.126 -0.126)">
       <use xlink:href="#DejaVuSans-33"/>
       <use xlink:href="#DejaVuSans-30" x="63.623047"/>
       <use xlink:href="#DejaVuSans-30" x="127.246094"/>
       <use xlink:href="#DejaVuSans-30" x="190.869141"/>
       <use xlink:href="#DejaVuSans-30" x="254.492188"/>
      </g>
     </g>
    </g>
    <g id="ytick_4">
     <g id="line2d_19">
      <path d="M 52.88375 128.357727 
L 945.68375 128.357727 
" clip-path="url(#ped17aa9f0c)" style="fill: none; stroke: #546379; stroke-width: 1.12; stroke-linecap: square"/>
     </g>
     <g id="line2d_20"/>
     <g id="text_11">
      <!-- 40000 -->
      <g style="fill: #b1bed6" transform="translate(7.2 133.144743) scale(0.126 -0.126)">
       <defs>
        <path id="DejaVuSans-34" d="M 2419 4116 
L 825 1625 
L 2419 1625 
L 2419 4116 
z
M 2253 4666 
L 3047 4666 
L 3047 1625 
L 3713 1625 
L 3713 1100 
L 3047 1100 
L 3047 0 
L 2419 0 
L 2419 1100 
L 313 1100 
L 313 1709 
L 2253 4666 
z
" transform="scale(0.015625)"/>
       </defs>
       <use xlink:href="#DejaVuSans-34"/>
       <use xlink:href="#DejaVuSans-30" x="63.623047"/>
       <use xlink:href="#DejaVuSans-30" x="127.246094"/>
       <use xlink:href="#DejaVuSans-30" x="190.869141"/>
       <use xlink:href="#DejaVuSans-30" x="254.492188"/>
      </g>
     </g>
    </g>
    <g id="ytick_5">
     <g id="line2d_21">
      <path d="M 52.88375 84.95589 
L 945.68375 84.95589 
" clip-path="url(#ped17aa9f0c)" style="fill: none; stroke: #546379; stroke-width: 1.12; stroke-linecap: square"/>
     </g>
     <g id="line2d_22"/>
     <g id="text_12">
      <!-- 50000 -->
      <g style="fill: #b1bed6" transform="translate(7.2 89.742905) scale(0.126 -0.126)">
       <defs>
        <path id="DejaVuSans-35" d="M 691 4666 
L 3169 4666 
L 3169 4134 
L 1269 4134 
L 1269 2991 
Q 1406 3038 1543 3061 
Q 1681 3084 1819 3084 
Q 2600 3084 3056 2656 
Q 3513 2228 3513 1497 
Q 3513 744 3044 326 
Q 2575 -91 1722 -91 
Q 1428 -91 1123 -41 
Q 819 9 494 109 
L 494 744 
Q 775 591 1075 516 
Q 1375 441 1709 441 
Q 2250 441 2565 725 
Q 2881 1009 2881 1497 
Q 2881 1984 2565 2268 
Q 2250 2553 1709 2553 
Q 1456 2553 1204 2497 
Q 953 2441 691 2322 
L 691 4666 
z
" transform="scale(0.015625)"/>
       </defs>
       <use xlink:href="#DejaVuSans-35"/>
       <use xlink:href="#DejaVuSans-30" x="63.623047"/>
       <use xlink:href="#DejaVuSans-30" x="127.246094"/>
       <use xlink:href="#DejaVuSans-30" x="190.869141"/>
       <use xlink:href="#DejaVuSans-30" x="254.492188"/>
      </g>
     </g>
    </g>
    <g id="ytick_6">
     <g id="line2d_23">
      <path d="M 52.88375 41.554052 
L 945.68375 41.554052 
" clip-path="url(#ped17aa9f0c)" style="fill: none; stroke: #546379; stroke-width: 1.12; stroke-linecap: square"/>
     </g>
     <g id="line2d_24"/>
     <g id="text_13">
      <!-- 60000 -->
      <g style="fill: #b1bed6" transform="translate(7.2 46.341068) scale(0.126 -0.126)">
       <defs>
        <path id="DejaVuSans-36" d="M 2113 2584 
Q 1688 2584 1439 2293 
Q 1191 2003 1191 1497 
Q 1191 994 1439 701 
Q 1688 409 2113 409 
Q 2538 409 2786 701 
Q 3034 994 3034 1497 
Q 3034 2003 2786 2293 
Q 2538 2584 2113 2584 
z
M 3366 4563 
L 3366 3988 
Q 3128 4100 2886 4159 
Q 2644 4219 2406 4219 
Q 1781 4219 1451 3797 
Q 1122 3375 1075 2522 
Q 1259 2794 1537 2939 
Q 1816 3084 2150 3084 
Q 2853 3084 3261 2657 
Q 3669 2231 3669 1497 
Q 3669 778 3244 343 
Q 2819 -91 2113 -91 
Q 1303 -91 875 529 
Q 447 1150 447 2328 
Q 447 3434 972 4092 
Q 1497 4750 2381 4750 
Q 2619 4750 2861 4703 
Q 3103 4656 3366 4563 
z
" transform="scale(0.015625)"/>
       </defs>
       <use xlink:href="#DejaVuSans-36"/>
       <use xlink:href="#DejaVuSans-30" x="63.623047"/>
       <use xlink:href="#DejaVuSans-30" x="127.246094"/>
       <use xlink:href="#DejaVuSans-30" x="190.869141"/>
       <use xlink:href="#DejaVuSans-30" x="254.492188"/>
      </g>
     </g>
    </g>
   </g>
   <g id="line2d_25">
    <path d="M 93.465568 230.750692 
L 93.465568 219.884434 
L 95.02546 219.884434 
L 95.02546 242.172059 
L 96.585352 242.172059 
L 96.585352 233.91972 
L 98.145244 233.91972 
L 98.145244 247.224337 
L 99.705136 247.224337 
L 99.705136 236.692013 
L 101.265027 236.692013 
L 101.265027 231.684873 
L 102.824919 231.684873 
L 102.824919 244.30335 
L 104.384811 244.30335 
L 104.384811 243.13762 
L 105.944703 243.13762 
L 105.944703 252.02471 
L 107.504595 252.02471 
L 107.504595 254.954421 
L 109.064486 254.954421 
L 109.064486 252.350832 
L 110.624378 252.350832 
L 110.624378 257.677843 
L 112.18427 257.677843 
L 112.18427 266.36663 
L 113.744162 266.36663 
L 113.744162 266.179916 
L 115.304054 266.179916 
L 115.304054 263.356018 
L 116.863946 263.356018 
L 116.863946 257.788257 
L 118.423837 257.788257 
L 118.423837 253.155458 
L 119.983729 253.155458 
L 119.983729 259.866337 
L 121.543621 259.866337 
L 121.543621 257.121692 
L 123.103513 257.121692 
L 123.103513 251.979919 
L 124.663405 251.979919 
L 124.663405 261.495034 
L 126.223297 261.495034 
L 126.223297 262.3392 
L 127.783188 262.3392 
L 127.783188 265.950711 
L 129.34308 265.950711 
L 129.34308 263.294258 
L 130.902972 263.294258 
L 130.902972 264.926991 
L 132.462864 264.926991 
L 132.462864 267.45797 
L 134.022756 267.45797 
L 134.022756 272.3323 
L 135.582648 272.3323 
L 135.582648 272.509726 
L 138.702431 272.519492 
L 138.702431 267.698242 
L 141.822215 267.64642 
L 141.822215 263.204633 
L 143.382107 263.204633 
L 143.382107 263.46704 
L 144.941999 263.46704 
L 144.941999 261.174295 
L 146.50189 261.174295 
L 146.50189 259.633747 
L 148.061782 259.633747 
L 148.061782 261.301202 
L 149.621674 261.301202 
L 149.621674 265.521293 
L 151.181566 265.521293 
L 151.181566 265.199121 
L 152.741458 265.199121 
L 152.741458 266.19298 
L 154.30135 266.19298 
L 154.30135 269.362008 
L 155.861241 269.362008 
L 155.861241 270.088338 
L 157.421133 270.088338 
L 157.421133 269.458577 
L 160.540917 269.433361 
L 160.540917 268.912235 
L 162.100809 268.912235 
L 162.100809 273.523854 
L 163.660701 273.523854 
L 163.660701 273.803014 
L 165.220592 273.803014 
L 165.220592 272.621833 
L 166.780484 272.621833 
L 166.780484 275.242393 
L 168.340376 275.242393 
L 168.340376 276.45287 
L 169.900268 276.45287 
L 169.900268 273.205111 
L 173.020052 273.195779 
L 173.020052 274.494883 
L 174.579943 274.494883 
L 174.579943 274.843964 
L 176.139835 274.843964 
L 176.139835 269.973106 
L 177.699727 269.973106 
L 177.699727 269.818813 
L 179.259619 269.818813 
L 179.259619 267.504844 
L 180.819511 267.504844 
L 180.819511 266.49931 
L 182.379403 266.49931 
L 182.379403 269.783614 
L 183.939294 269.783614 
L 183.939294 272.806725 
L 185.499186 272.806725 
L 185.499186 274.935065 
L 187.059078 274.935065 
L 187.059078 274.749218 
L 188.61897 274.749218 
L 188.61897 273.812129 
L 190.178862 273.812129 
L 190.178862 273.641212 
L 191.738754 273.641212 
L 191.738754 272.012341 
L 193.298645 272.012341 
L 193.298645 271.502283 
L 194.858537 271.502283 
L 194.858537 270.024841 
L 196.418429 270.024841 
L 196.418429 275.125121 
L 197.978321 275.125121 
L 197.978321 274.508902 
L 199.538213 274.508902 
L 199.538213 273.765298 
L 202.657996 273.771157 
L 202.657996 273.391695 
L 204.217888 273.391695 
L 204.217888 273.195476 
L 205.77778 273.195476 
L 205.77778 273.661394 
L 207.337672 273.661394 
L 207.337672 273.434359 
L 210.457455 273.402025 
L 210.457455 274.773132 
L 212.017347 274.773132 
L 212.017347 273.712174 
L 215.137131 273.780402 
L 215.137131 273.874671 
L 216.697023 273.874671 
L 216.697023 274.614933 
L 218.256915 274.614933 
L 218.256915 274.355867 
L 219.816806 274.355867 
L 219.816806 273.594035 
L 221.376698 273.594035 
L 221.376698 274.15088 
L 222.93659 274.15088 
L 222.93659 277.40515 
L 224.496482 277.40515 
L 224.496482 280.920482 
L 226.056374 280.920482 
L 226.056374 283.072345 
L 227.616266 283.072345 
L 227.616266 285.348902 
L 229.176157 285.348902 
L 229.176157 283.787998 
L 230.736049 283.787998 
L 230.736049 285.711177 
L 232.295941 285.711177 
L 232.295941 286.390589 
L 233.855833 286.390589 
L 233.855833 287.607273 
L 235.415725 287.607273 
L 235.415725 286.529041 
L 236.975617 286.529041 
L 236.975617 285.039099 
L 238.535508 285.039099 
L 238.535508 285.378979 
L 240.0954 285.378979 
L 240.0954 285.601023 
L 241.655292 285.601023 
L 241.655292 284.90247 
L 243.215184 284.90247 
L 243.215184 284.292848 
L 244.775076 284.292848 
L 244.775076 286.139683 
L 246.334968 286.139683 
L 246.334968 285.982438 
L 247.894859 285.982438 
L 247.894859 286.228744 
L 249.454751 286.228744 
L 249.454751 286.39532 
L 252.574535 286.443279 
L 252.574535 286.90464 
L 255.694319 286.965316 
L 255.694319 287.231196 
L 257.25421 287.231196 
L 257.25421 286.212511 
L 260.373994 286.304827 
L 260.373994 284.923216 
L 261.933886 284.923216 
L 261.933886 283.998453 
L 263.493778 283.998453 
L 263.493778 285.328155 
L 266.613561 285.4091 
L 266.613561 285.095565 
L 269.733345 285.120434 
L 269.733345 284.879945 
L 271.293237 284.879945 
L 271.293237 284.478 
L 275.972912 284.393801 
L 275.972912 284.108868 
L 277.532804 284.108868 
L 277.532804 280.649394 
L 279.092696 280.649394 
L 279.092696 279.097908 
L 280.652588 279.097908 
L 280.652588 279.947977 
L 282.21248 279.947977 
L 282.21248 279.410662 
L 283.772372 279.410662 
L 283.772372 278.921827 
L 285.332263 278.921827 
L 285.332263 278.379695 
L 286.892155 278.379695 
L 286.892155 278.956505 
L 288.452047 278.956505 
L 288.452047 278.570793 
L 290.011939 278.570793 
L 290.011939 277.293434 
L 291.571831 277.293434 
L 291.571831 274.413505 
L 293.131723 274.413505 
L 293.131723 267.275335 
L 294.691614 267.275335 
L 294.691614 270.433426 
L 296.251506 270.433426 
L 296.251506 268.86714 
L 297.811398 268.86714 
L 297.811398 264.012688 
L 299.37129 264.012688 
L 299.37129 266.061081 
L 300.931182 266.061081 
L 300.931182 266.65803 
L 302.491073 266.65803 
L 302.491073 267.25103 
L 304.050965 267.25103 
L 304.050965 267.601326 
L 305.610857 267.601326 
L 305.610857 263.51335 
L 307.170749 263.51335 
L 307.170749 261.680794 
L 308.730641 261.680794 
L 308.730641 255.028247 
L 310.290533 255.028247 
L 310.290533 253.646463 
L 311.850424 253.646463 
L 311.850424 256.051489 
L 313.410316 256.051489 
L 313.410316 254.41767 
L 314.970208 254.41767 
L 314.970208 247.33614 
L 316.5301 247.33614 
L 316.5301 252.534291 
L 318.089992 252.534291 
L 318.089992 259.976925 
L 319.649884 259.976925 
L 319.649884 256.013773 
L 321.209775 256.013773 
L 321.209775 259.105026 
L 322.769667 259.105026 
L 322.769667 260.72756 
L 324.329559 260.72756 
L 324.329559 256.264896 
L 325.889451 256.264896 
L 325.889451 252.201963 
L 327.449343 252.201963 
L 327.449343 252.99817 
L 329.009235 252.99817 
L 329.009235 258.489631 
L 330.569126 258.489631 
L 330.569126 257.184798 
L 332.129018 257.184798 
L 332.129018 258.077227 
L 333.68891 258.077227 
L 333.68891 256.999559 
L 335.248802 256.999559 
L 335.248802 260.394841 
L 336.808694 260.394841 
L 336.808694 255.866728 
L 338.368586 255.866728 
L 338.368586 256.448659 
L 339.928477 256.448659 
L 339.928477 257.871762 
L 341.488369 257.871762 
L 341.488369 257.215917 
L 343.048261 257.215917 
L 343.048261 257.36587 
L 344.608153 257.36587 
L 344.608153 259.937429 
L 346.168045 259.937429 
L 346.168045 266.402046 
L 347.727937 266.402046 
L 347.727937 265.842076 
L 349.287828 265.842076 
L 349.287828 266.602606 
L 350.84772 266.602606 
L 350.84772 264.691927 
L 352.407612 264.691927 
L 352.407612 266.012037 
L 353.967504 266.012037 
L 353.967504 266.910369 
L 355.527396 266.910369 
L 355.527396 266.27783 
L 357.087288 266.27783 
L 357.087288 264.349617 
L 358.647179 264.349617 
L 358.647179 261.022605 
L 360.207071 261.022605 
L 360.207071 261.596248 
L 361.766963 261.596248 
L 361.766963 261.413265 
L 363.326855 261.413265 
L 363.326855 262.742317 
L 364.886747 262.742317 
L 364.886747 264.499223 
L 366.446639 264.499223 
L 366.446639 266.479779 
L 368.00653 266.479779 
L 368.00653 270.34098 
L 369.566422 270.34098 
L 369.566422 270.873607 
L 371.126314 270.873607 
L 371.126314 269.163184 
L 372.686206 269.163184 
L 372.686206 270.746787 
L 374.246098 270.746787 
L 374.246098 269.316523 
L 375.80599 269.316523 
L 375.80599 270.762803 
L 377.365881 270.762803 
L 377.365881 272.10661 
L 378.925773 272.10661 
L 378.925773 270.758419 
L 380.485665 270.758419 
L 380.485665 270.495751 
L 382.045557 270.495751 
L 382.045557 270.277093 
L 383.605449 270.277093 
L 383.605449 270.821308 
L 385.165341 270.821308 
L 385.165341 270.057913 
L 386.725232 270.057913 
L 386.725232 268.033869 
L 388.285124 268.033869 
L 388.285124 266.786847 
L 389.845016 266.786847 
L 389.845016 263.335967 
L 391.404908 263.335967 
L 391.404908 264.108867 
L 392.9648 264.108867 
L 392.9648 265.822805 
L 394.524692 265.822805 
L 394.524692 261.688997 
L 396.084583 261.688997 
L 396.084583 261.538176 
L 397.644475 261.538176 
L 397.644475 259.623721 
L 399.204367 259.623721 
L 399.204367 259.193478 
L 400.764259 259.193478 
L 400.764259 256.963752 
L 402.324151 256.963752 
L 402.324151 257.779186 
L 403.884042 257.779186 
L 403.884042 259.997107 
L 405.443934 259.997107 
L 405.443934 263.834307 
L 407.003826 263.834307 
L 407.003826 264.925212 
L 408.563718 264.925212 
L 408.563718 262.610939 
L 410.12361 262.610939 
L 410.12361 267.539001 
L 411.683502 267.539001 
L 411.683502 277.620857 
L 413.243393 277.620857 
L 413.243393 278.712066 
L 414.803285 278.712066 
L 414.803285 275.099992 
L 416.363177 275.099992 
L 416.363177 272.892531 
L 417.923069 272.892531 
L 417.923069 276.421317 
L 419.482961 276.421317 
L 419.482961 272.412289 
L 421.042853 272.412289 
L 421.042853 270.094241 
L 422.602744 270.094241 
L 422.602744 272.133953 
L 425.722528 272.139552 
L 425.722528 270.458122 
L 427.28242 270.458122 
L 427.28242 271.015271 
L 428.842312 271.015271 
L 428.842312 268.548831 
L 430.402204 268.548831 
L 430.402204 264.514631 
L 431.962095 264.514631 
L 431.962095 263.398509 
L 433.521987 263.398509 
L 433.521987 259.336661 
L 435.081879 259.336661 
L 435.081879 263.708398 
L 436.641771 263.708398 
L 436.641771 261.229415 
L 438.201663 261.229415 
L 438.201663 260.687022 
L 439.761555 260.687022 
L 439.761555 264.072105 
L 441.321446 264.072105 
L 441.321446 260.432948 
L 442.881338 260.432948 
L 442.881338 257.676845 
L 444.44123 257.676845 
L 444.44123 260.196235 
L 446.001122 260.196235 
L 446.001122 259.539131 
L 447.561014 259.539131 
L 447.561014 260.848347 
L 450.680797 260.929465 
L 450.680797 261.667427 
L 452.240689 261.667427 
L 452.240689 261.858091 
L 453.800581 261.858091 
L 453.800581 262.098971 
L 455.360473 262.098971 
L 455.360473 262.589108 
L 456.920365 262.589108 
L 456.920365 261.791339 
L 460.040148 261.879314 
L 460.040148 262.063555 
L 463.159932 261.97176 
L 463.159932 260.242414 
L 464.719824 260.242414 
L 464.719824 254.039033 
L 466.279716 254.039033 
L 466.279716 252.730554 
L 467.839608 252.730554 
L 467.839608 253.379976 
L 469.399499 253.379976 
L 469.399499 250.891532 
L 470.959391 250.891532 
L 470.959391 251.735654 
L 472.519283 251.735654 
L 472.519283 250.256085 
L 474.079175 250.256085 
L 474.079175 250.465239 
L 475.639067 250.465239 
L 475.639067 250.90746 
L 477.198959 250.90746 
L 477.198959 251.902143 
L 478.75885 251.902143 
L 478.75885 250.215982 
L 480.318742 250.215982 
L 480.318742 257.87046 
L 481.878634 257.87046 
L 481.878634 257.574416 
L 483.438526 257.574416 
L 483.438526 257.127638 
L 484.998418 257.127638 
L 484.998418 254.466584 
L 486.55831 254.466584 
L 486.55831 256.694965 
L 488.118201 256.694965 
L 488.118201 255.556187 
L 489.678093 255.556187 
L 489.678093 254.914014 
L 491.237985 254.914014 
L 491.237985 256.168457 
L 492.797877 256.168457 
L 492.797877 255.651845 
L 494.357769 255.651845 
L 494.357769 252.5885 
L 495.917661 252.5885 
L 495.917661 252.036776 
L 497.477552 252.036776 
L 497.477552 250.932503 
L 499.037444 250.932503 
L 499.037444 245.783482 
L 500.597336 245.783482 
L 500.597336 242.71519 
L 502.157228 242.71519 
L 502.157228 242.025751 
L 503.71712 242.025751 
L 503.71712 240.527216 
L 505.277011 240.527216 
L 505.277011 234.733027 
L 506.836903 234.733027 
L 506.836903 231.23931 
L 508.396795 231.23931 
L 508.396795 229.374853 
L 509.956687 229.374853 
L 509.956687 220.858111 
L 511.516579 220.858111 
L 511.516579 218.752818 
L 513.076471 218.752818 
L 513.076471 225.003117 
L 514.636362 225.003117 
L 514.636362 218.516495 
L 516.196254 218.516495 
L 516.196254 217.862473 
L 517.756146 217.862473 
L 517.756146 222.766446 
L 519.316038 222.766446 
L 519.316038 218.301135 
L 520.87593 218.301135 
L 520.87593 201.486395 
L 522.435822 201.486395 
L 522.435822 198.560243 
L 523.995713 198.560243 
L 523.995713 187.196687 
L 525.555605 187.196687 
L 525.555605 176.722175 
L 527.115497 176.722175 
L 527.115497 158.735628 
L 528.675389 158.735628 
L 528.675389 130.588408 
L 530.235281 130.588408 
L 530.235281 147.693506 
L 531.795173 147.693506 
L 531.795173 142.122533 
L 533.355064 142.122533 
L 533.355064 145.631094 
L 534.914956 145.631094 
L 534.914956 162.646308 
L 536.474848 162.646308 
L 536.474848 169.94029 
L 538.03474 169.94029 
L 538.03474 158.146752 
L 539.594632 158.146752 
L 539.594632 141.369208 
L 541.154524 141.369208 
L 541.154524 100.735496 
L 542.714415 100.735496 
L 542.714415 95.930478 
L 544.274307 95.930478 
L 544.274307 88.60121 
L 545.834199 88.60121 
L 545.834199 58.909579 
L 547.394091 58.909579 
L 547.394091 82.243969 
L 548.953983 82.243969 
L 548.953983 106.162375 
L 550.513875 106.162375 
L 550.513875 91.687905 
L 552.073766 91.687905 
L 552.073766 74.976375 
L 553.633658 74.976375 
L 553.633658 53.475321 
L 555.19355 53.475321 
L 555.19355 55.128497 
L 556.753442 55.128497 
L 556.753442 49.862032 
L 558.313334 49.862032 
L 558.313334 74.06971 
L 559.873226 74.06971 
L 559.873226 59.853525 
L 561.433117 59.853525 
L 561.433117 47.036051 
L 562.993009 47.036051 
L 562.993009 45.659432 
L 564.552901 45.659432 
L 564.552901 49.789203 
L 566.112793 49.789203 
L 566.112793 26.127129 
L 567.672685 26.127129 
L 567.672685 41.176065 
L 569.232577 41.176065 
L 569.232577 68.424998 
L 570.792468 68.424998 
L 570.792468 88.968042 
L 572.35236 88.968042 
L 572.35236 69.40002 
L 573.912252 69.40002 
L 573.912252 53.648712 
L 575.472144 53.648712 
L 575.472144 52.924162 
L 577.032036 52.924162 
L 577.032036 55.659649 
L 578.591928 55.659649 
L 578.591928 99.119732 
L 580.151819 99.119732 
L 580.151819 141.533353 
L 581.711711 141.533353 
L 581.711711 151.123988 
L 583.271603 151.123988 
L 583.271603 135.105454 
L 584.831495 135.105454 
L 584.831495 140.030478 
L 586.391387 140.030478 
L 586.391387 141.875186 
L 587.951279 141.875186 
L 587.951279 156.785106 
L 589.51117 156.785106 
L 589.51117 147.910689 
L 591.071062 147.910689 
L 591.071062 135.628099 
L 592.630954 135.628099 
L 592.630954 147.487738 
L 594.190846 147.487738 
L 594.190846 151.623803 
L 595.750738 151.623803 
L 595.750738 152.416798 
L 597.310629 152.416798 
L 597.310629 155.020084 
L 598.870521 155.020084 
L 598.870521 153.483008 
L 600.430413 153.483008 
L 600.430413 156.501345 
L 601.990305 156.501345 
L 601.990305 159.54364 
L 603.550197 159.54364 
L 603.550197 164.018891 
L 605.110089 164.018891 
L 605.110089 161.7863 
L 606.66998 161.7863 
L 606.66998 139.997493 
L 608.229872 139.997493 
L 608.229872 118.747909 
L 609.789764 118.747909 
L 609.789764 136.439149 
L 611.349656 136.439149 
L 611.349656 108.244751 
L 612.909548 108.244751 
L 612.909548 104.00296 
L 614.46944 104.00296 
L 614.46944 97.731611 
L 616.029331 97.731611 
L 616.029331 99.128109 
L 617.589223 99.128109 
L 617.589223 87.023987 
L 619.149115 87.023987 
L 619.149115 89.049291 
L 620.709007 89.049291 
L 620.709007 97.299936 
L 622.268899 97.299936 
L 622.268899 85.18427 
L 623.828791 85.18427 
L 623.828791 101.976441 
L 626.948574 102.060033 
L 626.948574 94.568268 
L 628.508466 94.568268 
L 628.508466 115.764424 
L 630.068358 115.764424 
L 630.068358 116.137679 
L 631.62825 116.137679 
L 631.62825 123.969107 
L 633.188142 123.969107 
L 633.188142 94.820693 
L 634.748033 94.820693 
L 634.748033 61.762989 
L 636.307925 61.762989 
L 636.307925 64.879328 
L 637.867817 64.879328 
L 637.867817 52.848339 
L 639.427709 52.848339 
L 639.427709 32.996989 
L 640.987601 32.996989 
L 640.987601 38.528683 
L 642.547493 38.528683 
L 642.547493 40.055951 
L 644.107384 40.055951 
L 644.107384 34.039935 
L 645.667276 34.039935 
L 645.667276 28.729416 
L 647.227168 28.729416 
L 647.227168 27.260872 
L 648.78706 27.260872 
L 648.78706 20.552727 
L 650.346952 20.552727 
L 650.346952 25.997748 
L 651.906844 25.997748 
L 651.906844 49.657088 
L 653.466735 49.657088 
L 653.466735 52.065022 
L 655.026627 52.065022 
L 655.026627 64.118016 
L 656.586519 64.118016 
L 656.586519 53.577403 
L 658.146411 53.577403 
L 658.146411 87.644937 
L 659.706303 87.644937 
L 659.706303 95.113308 
L 661.266195 95.113308 
L 661.266195 99.030715 
L 662.826086 99.030715 
L 662.826086 101.563559 
L 664.385978 101.563559 
L 664.385978 89.580052 
L 665.94587 89.580052 
L 665.94587 82.91214 
L 667.505762 82.91214 
L 667.505762 100.542054 
L 669.065654 100.542054 
L 669.065654 96.553425 
L 670.625546 96.553425 
L 670.625546 114.81362 
L 672.185437 114.81362 
L 672.185437 120.332727 
L 673.745329 120.332727 
L 673.745329 114.905892 
L 675.305221 114.905892 
L 675.305221 118.021666 
L 676.865113 118.021666 
L 676.865113 149.748627 
L 678.425005 149.748627 
L 678.425005 142.144321 
L 679.984897 142.144321 
L 679.984897 137.391299 
L 681.544788 137.391299 
L 681.544788 140.977246 
L 683.10468 140.977246 
L 683.10468 111.717376 
L 684.664572 111.717376 
L 684.664572 117.935774 
L 686.224464 117.935774 
L 686.224464 108.669786 
L 687.784356 108.669786 
L 687.784356 127.858389 
L 689.344248 127.858389 
L 689.344248 140.113202 
L 690.904139 140.113202 
L 690.904139 138.320359 
L 692.464031 138.320359 
L 692.464031 117.661778 
L 694.023923 117.661778 
L 694.023923 136.897039 
L 695.583815 136.897039 
L 695.583815 133.821845 
L 697.143707 133.821845 
L 697.143707 131.305493 
L 698.703598 131.305493 
L 698.703598 118.71245 
L 700.26349 118.71245 
L 700.26349 115.749233 
L 701.823382 115.749233 
L 701.823382 98.590447 
L 703.383274 98.590447 
L 703.383274 104.316495 
L 704.943166 104.316495 
L 704.943166 99.663644 
L 706.503058 99.663644 
L 706.503058 118.466709 
L 708.062949 118.466709 
L 708.062949 127.914161 
L 709.622841 127.914161 
L 709.622841 126.670351 
L 711.182733 126.670351 
L 711.182733 122.386546 
L 712.742625 122.386546 
L 712.742625 130.677252 
L 714.302517 130.677252 
L 714.302517 129.355796 
L 715.862409 129.355796 
L 715.862409 134.82178 
L 717.4223 134.82178 
L 717.4223 145.66191 
L 718.982192 145.66191 
L 718.982192 167.402324 
L 720.542084 167.402324 
L 720.542084 171.435744 
L 722.101976 171.435744 
L 722.101976 177.484398 
L 723.661868 177.484398 
L 723.661868 170.548914 
L 725.22176 170.548914 
L 725.22176 175.2581 
L 726.781651 175.2581 
L 726.781651 164.313633 
L 728.341543 164.313633 
L 728.341543 173.140785 
L 729.901435 173.140785 
L 729.901435 166.907977 
L 731.461327 166.907977 
L 731.461327 178.944739 
L 733.021219 178.944739 
L 733.021219 204.090505 
L 734.581111 204.090505 
L 734.581111 212.816054 
L 736.141002 212.816054 
L 736.141002 210.437981 
L 737.700894 210.437981 
L 737.700894 212.113595 
L 739.260786 212.113595 
L 739.260786 218.517667 
L 740.820678 218.517667 
L 740.820678 214.37188 
L 742.38057 214.37188 
L 742.38057 208.292628 
L 743.940462 208.292628 
L 743.940462 214.190547 
L 745.500353 214.190547 
L 745.500353 211.801102 
L 747.060245 211.801102 
L 747.060245 201.472072 
L 748.620137 201.472072 
L 748.620137 209.516039 
L 750.180029 209.516039 
L 750.180029 198.703426 
L 751.739921 198.703426 
L 751.739921 202.219973 
L 753.299813 202.219973 
L 753.299813 202.370056 
L 754.859704 202.370056 
L 754.859704 197.974622 
L 756.419596 197.974622 
L 756.419596 196.433987 
L 757.979488 196.433987 
L 757.979488 201.298899 
L 759.53938 201.298899 
L 759.53938 209.072429 
L 761.099272 209.072429 
L 761.099272 214.148751 
L 762.659164 214.148751 
L 762.659164 216.059734 
L 764.219055 216.059734 
L 764.219055 215.877793 
L 765.778947 215.877793 
L 765.778947 218.285988 
L 767.338839 218.285988 
L 767.338839 207.372856 
L 768.898731 207.372856 
L 768.898731 216.486504 
L 770.458623 216.486504 
L 770.458623 217.148339 
L 772.018515 217.148339 
L 772.018515 218.283818 
L 773.578406 218.283818 
L 773.578406 219.046345 
L 775.138298 219.046345 
L 775.138298 218.135774 
L 776.69819 218.135774 
L 776.69819 214.433163 
L 778.258082 214.433163 
L 778.258082 217.583746 
L 779.817974 217.583746 
L 779.817974 217.837864 
L 781.377866 217.837864 
L 781.377866 217.118956 
L 782.937757 217.118956 
L 782.937757 218.757939 
L 784.497649 218.757939 
L 784.497649 214.721872 
L 786.057541 214.721872 
L 786.057541 211.619118 
L 787.617433 211.619118 
L 787.617433 214.493058 
L 789.177325 214.493058 
L 789.177325 211.167001 
L 790.737217 211.167001 
L 790.737217 225.793855 
L 792.297108 225.793855 
L 792.297108 229.970283 
L 793.857 229.970283 
L 793.857 229.556837 
L 795.416892 229.556837 
L 795.416892 231.676887 
L 796.976784 231.676887 
L 796.976784 230.553995 
L 798.536676 230.553995 
L 798.536676 227.441432 
L 800.096567 227.441432 
L 800.096567 227.671679 
L 801.656459 227.671679 
L 801.656459 227.163834 
L 803.216351 227.163834 
L 803.216351 227.2841 
L 804.776243 227.2841 
L 804.776243 229.754837 
L 806.336135 229.754837 
L 806.336135 228.595834 
L 807.896027 228.595834 
L 807.896027 228.88463 
L 809.455918 228.88463 
L 809.455918 230.181563 
L 811.01581 230.181563 
L 811.01581 229.858524 
L 812.575702 229.858524 
L 812.575702 228.935366 
L 814.135594 228.935366 
L 814.135594 227.348335 
L 815.695486 227.348335 
L 815.695486 215.450633 
L 817.255378 215.450633 
L 817.255378 210.191111 
L 818.815269 210.191111 
L 818.815269 203.128243 
L 820.375161 203.128243 
L 820.375161 201.751363 
L 821.935053 201.751363 
L 821.935053 198.860323 
L 823.494945 198.860323 
L 823.494945 200.168628 
L 825.054837 200.168628 
L 825.054837 203.166263 
L 826.614729 203.166263 
L 826.614729 208.049795 
L 828.17462 208.049795 
L 828.17462 205.561784 
L 829.734512 205.561784 
L 829.734512 195.01453 
L 831.294404 195.01453 
L 831.294404 196.994826 
L 832.854296 196.994826 
L 832.854296 199.69685 
L 834.414188 199.69685 
L 834.414188 200.112423 
L 835.97408 200.112423 
L 835.97408 204.698869 
L 837.533971 204.698869 
L 837.533971 214.185512 
L 839.093863 214.185512 
L 839.093863 194.46975 
L 840.653755 194.46975 
L 840.653755 184.886928 
L 842.213647 184.886928 
L 842.213647 183.450631 
L 843.773539 183.450631 
L 843.773539 180.440627 
L 845.333431 180.440627 
L 845.333431 180.296446 
L 846.893322 180.296446 
L 846.893322 181.298291 
L 848.453214 181.298291 
L 848.453214 180.763059 
L 850.013106 180.763059 
L 850.013106 170.739709 
L 851.572998 170.739709 
L 851.572998 170.373657 
L 853.13289 170.373657 
L 853.13289 176.839446 
L 854.692782 176.839446 
L 854.692782 182.217021 
L 856.252673 182.217021 
L 856.252673 174.014941 
L 857.812565 174.014941 
L 857.812565 180.063856 
L 859.372457 180.063856 
L 859.372457 173.776101 
L 860.932349 173.776101 
L 860.932349 182.002008 
L 862.492241 182.002008 
L 862.492241 185.709176 
L 864.052133 185.709176 
L 864.052133 183.051551 
L 865.612024 183.051551 
L 865.612024 185.836647 
L 867.171916 185.836647 
L 867.171916 187.048774 
L 868.731808 187.048774 
L 868.731808 181.548155 
L 870.2917 181.548155 
L 870.2917 183.686694 
L 873.411484 183.722674 
L 873.411484 189.759088 
L 874.971375 189.759088 
L 874.971375 192.909107 
L 876.531267 192.909107 
L 876.531267 187.657311 
L 878.091159 187.657311 
L 878.091159 172.177394 
L 879.651051 172.177394 
L 879.651051 170.602038 
L 881.210943 170.602038 
L 881.210943 169.713168 
L 882.770835 169.713168 
L 882.770835 168.396487 
L 884.330726 168.396487 
L 884.330726 170.828379 
L 885.890618 170.828379 
L 885.890618 170.059775 
L 887.45051 170.059775 
L 887.45051 170.716706 
L 889.010402 170.716706 
L 889.010402 172.617663 
L 890.570294 172.617663 
L 890.570294 175.325373 
L 892.130185 175.325373 
L 892.130185 174.72773 
L 893.690077 174.72773 
L 893.690077 173.132756 
L 895.249969 173.132756 
L 895.249969 175.891377 
L 896.809861 175.891377 
L 896.809861 173.643986 
L 898.369753 173.643986 
L 898.369753 174.867831 
L 899.929645 174.867831 
L 899.929645 186.246881 
L 901.489536 186.246881 
L 901.489536 188.584678 
L 903.049428 188.584678 
L 903.049428 188.905808 
L 905.101932 188.930293 
L 905.101932 188.930293 
" clip-path="url(#ped17aa9f0c)" style="fill: none; stroke: #3572c6; stroke-width: 1.2; stroke-linecap: square"/>
   </g>
   <g id="patch_3">
    <path d="M 52.88375 300.96 
L 52.88375 7.2 
" style="fill: none; stroke: #899ab8; stroke-width: 1.12; stroke-linejoin: miter; stroke-linecap: square"/>
   </g>
   <g id="patch_4">
    <path d="M 945.68375 300.96 
L 945.68375 7.2 
" style="fill: none; stroke: #899ab8; stroke-width: 1.12; stroke-linejoin: miter; stroke-linecap: square"/>
   </g>
   <g id="patch_5">
    <path d="M 52.88375 300.96 
L 945.68375 300.96 
" style="fill: none; stroke: #899ab8; stroke-width: 1.12; stroke-linejoin: miter; stroke-linecap: square"/>
   </g>
   <g id="patch_6">
    <path d="M 52.88375 7.2 
L 945.68375 7.2 
" style="fill: none; stroke: #899ab8; stroke-width: 1.12; stroke-linejoin: miter; stroke-linecap: square"/>
   </g>
  </g>
 </g>
 <defs>
  <clipPath id="ped17aa9f0c">
   <rect x="52.88375" y="7.2" width="892.8" height="293.76"/>
  </clipPath>
 </defs>
</svg>
