<?xml version="1.0" encoding="utf-8" standalone="no"?>
<!DOCTYPE svg PUBLIC "-//W3C//DTD SVG 1.1//EN"
  "http://www.w3.org/Graphics/SVG/1.1/DTD/svg11.dtd">
<svg xmlns:xlink="http://www.w3.org/1999/xlink" width="934.976pt" height="358.290693pt" viewBox="0 0 934.976 358.290693" xmlns="http://www.w3.org/2000/svg" version="1.1">
 <metadata>
  <rdf:RDF xmlns:dc="http://purl.org/dc/elements/1.1/" xmlns:cc="http://creativecommons.org/ns#" xmlns:rdf="http://www.w3.org/1999/02/22-rdf-syntax-ns#">
   <cc:Work>
    <dc:type rdf:resource="http://purl.org/dc/dcmitype/StillImage"/>
    <dc:date>2024-06-22T23:42:26.151937</dc:date>
    <dc:format>image/svg+xml</dc:format>
    <dc:creator>
     <cc:Agent>
      <dc:title>Matplotlib v3.9.0, https://matplotlib.org/</dc:title>
     </cc:Agent>
    </dc:creator>
   </cc:Work>
  </rdf:RDF>
 </metadata>
 <defs>
  <style type="text/css">*{stroke-linejoin: round; stroke-linecap: butt}</style>
 </defs>
 <g id="figure_1">
  <g id="patch_1">
   <path d="M 0 358.290693 
L 934.976 358.290693 
L 934.976 0 
L 0 0 
z
" style="fill: #373e4b"/>
  </g>
  <g id="axes_1">
   <g id="patch_2">
    <path d="M 34.976 300.96 
L 927.776 300.96 
L 927.776 7.2 
L 34.976 7.2 
z
" style="fill: #373e4b"/>
   </g>
   <g id="matplotlib.axis_1">
    <g id="xtick_1">
     <g id="line2d_1">
      <path d="M 144.796338 300.96 
L 144.796338 7.2 
" clip-path="url(#pc4e662cde5)" style="fill: none; stroke: #546379; stroke-width: 1.12; stroke-linecap: square"/>
     </g>
     <g id="line2d_2"/>
     <g id="text_1">
      <!-- 2012 -->
      <g style="fill: #b1bed6" transform="translate(115.715298 330.884854) rotate(-30) scale(0.126 -0.126)">
       <defs>
        <path id="DejaVuSans-32" d="M 1228 531 
L 3431 531 
L 3431 0 
L 469 0 
L 469 531 
Q 828 903 1448 1529 
Q 2069 2156 2228 2338 
Q 2531 2678 2651 2914 
Q 2772 3150 2772 3378 
Q 2772 3750 2511 3984 
Q 2250 4219 1831 4219 
Q 1534 4219 1204 4116 
Q 875 4013 500 3803 
L 500 4441 
Q 881 4594 1212 4672 
Q 1544 4750 1819 4750 
Q 2544 4750 2975 4387 
Q 3406 4025 3406 3419 
Q 3406 3131 3298 2873 
Q 3191 2616 2906 2266 
Q 2828 2175 2409 1742 
Q 1991 1309 1228 531 
z
" transform="scale(0.015625)"/>
        <path id="DejaVuSans-30" d="M 2034 4250 
Q 1547 4250 1301 3770 
Q 1056 3291 1056 2328 
Q 1056 1369 1301 889 
Q 1547 409 2034 409 
Q 2525 409 2770 889 
Q 3016 1369 3016 2328 
Q 3016 3291 2770 3770 
Q 2525 4250 2034 4250 
z
M 2034 4750 
Q 2819 4750 3233 4129 
Q 3647 3509 3647 2328 
Q 3647 1150 3233 529 
Q 2819 -91 2034 -91 
Q 1250 -91 836 529 
Q 422 1150 422 2328 
Q 422 3509 836 4129 
Q 1250 4750 2034 4750 
z
" transform="scale(0.015625)"/>
        <path id="DejaVuSans-31" d="M 794 531 
L 1825 531 
L 1825 4091 
L 703 3866 
L 703 4441 
L 1819 4666 
L 2450 4666 
L 2450 531 
L 3481 531 
L 3481 0 
L 794 0 
L 794 531 
z
" transform="scale(0.015625)"/>
       </defs>
       <use xlink:href="#DejaVuSans-32"/>
       <use xlink:href="#DejaVuSans-30" x="63.623047"/>
       <use xlink:href="#DejaVuSans-31" x="127.246094"/>
       <use xlink:href="#DejaVuSans-32" x="190.869141"/>
      </g>
     </g>
    </g>
    <g id="xtick_2">
     <g id="line2d_3">
      <path d="M 263.886592 300.96 
L 263.886592 7.2 
" clip-path="url(#pc4e662cde5)" style="fill: none; stroke: #546379; stroke-width: 1.12; stroke-linecap: square"/>
     </g>
     <g id="line2d_4"/>
     <g id="text_2">
      <!-- 2014 -->
      <g style="fill: #b1bed6" transform="translate(234.805552 330.884854) rotate(-30) scale(0.126 -0.126)">
       <defs>
        <path id="DejaVuSans-34" d="M 2419 4116 
L 825 1625 
L 2419 1625 
L 2419 4116 
z
M 2253 4666 
L 3047 4666 
L 3047 1625 
L 3713 1625 
L 3713 1100 
L 3047 1100 
L 3047 0 
L 2419 0 
L 2419 1100 
L 313 1100 
L 313 1709 
L 2253 4666 
z
" transform="scale(0.015625)"/>
       </defs>
       <use xlink:href="#DejaVuSans-32"/>
       <use xlink:href="#DejaVuSans-30" x="63.623047"/>
       <use xlink:href="#DejaVuSans-31" x="127.246094"/>
       <use xlink:href="#DejaVuSans-34" x="190.869141"/>
      </g>
     </g>
    </g>
    <g id="xtick_3">
     <g id="line2d_5">
      <path d="M 382.813932 300.96 
L 382.813932 7.2 
" clip-path="url(#pc4e662cde5)" style="fill: none; stroke: #546379; stroke-width: 1.12; stroke-linecap: square"/>
     </g>
     <g id="line2d_6"/>
     <g id="text_3">
      <!-- 2016 -->
      <g style="fill: #b1bed6" transform="translate(353.732892 330.884854) rotate(-30) scale(0.126 -0.126)">
       <defs>
        <path id="DejaVuSans-36" d="M 2113 2584 
Q 1688 2584 1439 2293 
Q 1191 2003 1191 1497 
Q 1191 994 1439 701 
Q 1688 409 2113 409 
Q 2538 409 2786 701 
Q 3034 994 3034 1497 
Q 3034 2003 2786 2293 
Q 2538 2584 2113 2584 
z
M 3366 4563 
L 3366 3988 
Q 3128 4100 2886 4159 
Q 2644 4219 2406 4219 
Q 1781 4219 1451 3797 
Q 1122 3375 1075 2522 
Q 1259 2794 1537 2939 
Q 1816 3084 2150 3084 
Q 2853 3084 3261 2657 
Q 3669 2231 3669 1497 
Q 3669 778 3244 343 
Q 2819 -91 2113 -91 
Q 1303 -91 875 529 
Q 447 1150 447 2328 
Q 447 3434 972 4092 
Q 1497 4750 2381 4750 
Q 2619 4750 2861 4703 
Q 3103 4656 3366 4563 
z
" transform="scale(0.015625)"/>
       </defs>
       <use xlink:href="#DejaVuSans-32"/>
       <use xlink:href="#DejaVuSans-30" x="63.623047"/>
       <use xlink:href="#DejaVuSans-31" x="127.246094"/>
       <use xlink:href="#DejaVuSans-36" x="190.869141"/>
      </g>
     </g>
    </g>
    <g id="xtick_4">
     <g id="line2d_7">
      <path d="M 501.904186 300.96 
L 501.904186 7.2 
" clip-path="url(#pc4e662cde5)" style="fill: none; stroke: #546379; stroke-width: 1.12; stroke-linecap: square"/>
     </g>
     <g id="line2d_8"/>
     <g id="text_4">
      <!-- 2018 -->
      <g style="fill: #b1bed6" transform="translate(472.823146 330.884854) rotate(-30) scale(0.126 -0.126)">
       <defs>
        <path id="DejaVuSans-38" d="M 2034 2216 
Q 1584 2216 1326 1975 
Q 1069 1734 1069 1313 
Q 1069 891 1326 650 
Q 1584 409 2034 409 
Q 2484 409 2743 651 
Q 3003 894 3003 1313 
Q 3003 1734 2745 1975 
Q 2488 2216 2034 2216 
z
M 1403 2484 
Q 997 2584 770 2862 
Q 544 3141 544 3541 
Q 544 4100 942 4425 
Q 1341 4750 2034 4750 
Q 2731 4750 3128 4425 
Q 3525 4100 3525 3541 
Q 3525 3141 3298 2862 
Q 3072 2584 2669 2484 
Q 3125 2378 3379 2068 
Q 3634 1759 3634 1313 
Q 3634 634 3220 271 
Q 2806 -91 2034 -91 
Q 1263 -91 848 271 
Q 434 634 434 1313 
Q 434 1759 690 2068 
Q 947 2378 1403 2484 
z
M 1172 3481 
Q 1172 3119 1398 2916 
Q 1625 2713 2034 2713 
Q 2441 2713 2670 2916 
Q 2900 3119 2900 3481 
Q 2900 3844 2670 4047 
Q 2441 4250 2034 4250 
Q 1625 4250 1398 4047 
Q 1172 3844 1172 3481 
z
" transform="scale(0.015625)"/>
       </defs>
       <use xlink:href="#DejaVuSans-32"/>
       <use xlink:href="#DejaVuSans-30" x="63.623047"/>
       <use xlink:href="#DejaVuSans-31" x="127.246094"/>
       <use xlink:href="#DejaVuSans-38" x="190.869141"/>
      </g>
     </g>
    </g>
    <g id="xtick_5">
     <g id="line2d_9">
      <path d="M 620.831526 300.96 
L 620.831526 7.2 
" clip-path="url(#pc4e662cde5)" style="fill: none; stroke: #546379; stroke-width: 1.12; stroke-linecap: square"/>
     </g>
     <g id="line2d_10"/>
     <g id="text_5">
      <!-- 2020 -->
      <g style="fill: #b1bed6" transform="translate(591.750486 330.884854) rotate(-30) scale(0.126 -0.126)">
       <use xlink:href="#DejaVuSans-32"/>
       <use xlink:href="#DejaVuSans-30" x="63.623047"/>
       <use xlink:href="#DejaVuSans-32" x="127.246094"/>
       <use xlink:href="#DejaVuSans-30" x="190.869141"/>
      </g>
     </g>
    </g>
    <g id="xtick_6">
     <g id="line2d_11">
      <path d="M 739.92178 300.96 
L 739.92178 7.2 
" clip-path="url(#pc4e662cde5)" style="fill: none; stroke: #546379; stroke-width: 1.12; stroke-linecap: square"/>
     </g>
     <g id="line2d_12"/>
     <g id="text_6">
      <!-- 2022 -->
      <g style="fill: #b1bed6" transform="translate(710.84074 330.884854) rotate(-30) scale(0.126 -0.126)">
       <use xlink:href="#DejaVuSans-32"/>
       <use xlink:href="#DejaVuSans-30" x="63.623047"/>
       <use xlink:href="#DejaVuSans-32" x="127.246094"/>
       <use xlink:href="#DejaVuSans-32" x="190.869141"/>
      </g>
     </g>
    </g>
    <g id="xtick_7">
     <g id="line2d_13">
      <path d="M 858.84912 300.96 
L 858.84912 7.2 
" clip-path="url(#pc4e662cde5)" style="fill: none; stroke: #546379; stroke-width: 1.12; stroke-linecap: square"/>
     </g>
     <g id="line2d_14"/>
     <g id="text_7">
      <!-- 2024 -->
      <g style="fill: #b1bed6" transform="translate(829.76808 330.884854) rotate(-30) scale(0.126 -0.126)">
       <use xlink:href="#DejaVuSans-32"/>
       <use xlink:href="#DejaVuSans-30" x="63.623047"/>
       <use xlink:href="#DejaVuSans-32" x="127.246094"/>
       <use xlink:href="#DejaVuSans-34" x="190.869141"/>
      </g>
     </g>
    </g>
    <g id="text_8">
     <!-- Date -->
     <g style="fill: #b1bed6" transform="translate(464.166875 348.095943) scale(0.144 -0.144)">
      <defs>
       <path id="DejaVuSans-44" d="M 1259 4147 
L 1259 519 
L 2022 519 
Q 2988 519 3436 956 
Q 3884 1394 3884 2338 
Q 3884 3275 3436 3711 
Q 2988 4147 2022 4147 
L 1259 4147 
z
M 628 4666 
L 1925 4666 
Q 3281 4666 3915 4102 
Q 4550 3538 4550 2338 
Q 4550 1131 3912 565 
Q 3275 0 1925 0 
L 628 0 
L 628 4666 
z
" transform="scale(0.015625)"/>
       <path id="DejaVuSans-61" d="M 2194 1759 
Q 1497 1759 1228 1600 
Q 959 1441 959 1056 
Q 959 750 1161 570 
Q 1363 391 1709 391 
Q 2188 391 2477 730 
Q 2766 1069 2766 1631 
L 2766 1759 
L 2194 1759 
z
M 3341 1997 
L 3341 0 
L 2766 0 
L 2766 531 
Q 2569 213 2275 61 
Q 1981 -91 1556 -91 
Q 1019 -91 701 211 
Q 384 513 384 1019 
Q 384 1609 779 1909 
Q 1175 2209 1959 2209 
L 2766 2209 
L 2766 2266 
Q 2766 2663 2505 2880 
Q 2244 3097 1772 3097 
Q 1472 3097 1187 3025 
Q 903 2953 641 2809 
L 641 3341 
Q 956 3463 1253 3523 
Q 1550 3584 1831 3584 
Q 2591 3584 2966 3190 
Q 3341 2797 3341 1997 
z
" transform="scale(0.015625)"/>
       <path id="DejaVuSans-74" d="M 1172 4494 
L 1172 3500 
L 2356 3500 
L 2356 3053 
L 1172 3053 
L 1172 1153 
Q 1172 725 1289 603 
Q 1406 481 1766 481 
L 2356 481 
L 2356 0 
L 1766 0 
Q 1100 0 847 248 
Q 594 497 594 1153 
L 594 3053 
L 172 3053 
L 172 3500 
L 594 3500 
L 594 4494 
L 1172 4494 
z
" transform="scale(0.015625)"/>
       <path id="DejaVuSans-65" d="M 3597 1894 
L 3597 1613 
L 953 1613 
Q 991 1019 1311 708 
Q 1631 397 2203 397 
Q 2534 397 2845 478 
Q 3156 559 3463 722 
L 3463 178 
Q 3153 47 2828 -22 
Q 2503 -91 2169 -91 
Q 1331 -91 842 396 
Q 353 884 353 1716 
Q 353 2575 817 3079 
Q 1281 3584 2069 3584 
Q 2775 3584 3186 3129 
Q 3597 2675 3597 1894 
z
M 3022 2063 
Q 3016 2534 2758 2815 
Q 2500 3097 2075 3097 
Q 1594 3097 1305 2825 
Q 1016 2553 972 2059 
L 3022 2063 
z
" transform="scale(0.015625)"/>
      </defs>
      <use xlink:href="#DejaVuSans-44"/>
      <use xlink:href="#DejaVuSans-61" x="77.001953"/>
      <use xlink:href="#DejaVuSans-74" x="138.28125"/>
      <use xlink:href="#DejaVuSans-65" x="177.490234"/>
     </g>
    </g>
   </g>
   <g id="matplotlib.axis_2">
    <g id="ytick_1">
     <g id="line2d_15">
      <path d="M 34.976 253.993723 
L 927.776 253.993723 
" clip-path="url(#pc4e662cde5)" style="fill: none; stroke: #546379; stroke-width: 1.12; stroke-linecap: square"/>
     </g>
     <g id="line2d_16"/>
     <g id="text_9">
      <!-- $\mathdefault{10^{0}}$ -->
      <g style="fill: #b1bed6" transform="translate(7.2 258.780739) scale(0.126 -0.126)">
       <use xlink:href="#DejaVuSans-31" transform="translate(0 0.765625)"/>
       <use xlink:href="#DejaVuSans-30" transform="translate(63.623047 0.765625)"/>
       <use xlink:href="#DejaVuSans-30" transform="translate(128.203125 39.046875) scale(0.7)"/>
      </g>
     </g>
    </g>
    <g id="ytick_2">
     <g id="line2d_17">
      <path d="M 34.976 205.903607 
L 927.776 205.903607 
" clip-path="url(#pc4e662cde5)" style="fill: none; stroke: #546379; stroke-width: 1.12; stroke-linecap: square"/>
     </g>
     <g id="line2d_18"/>
     <g id="text_10">
      <!-- $\mathdefault{10^{1}}$ -->
      <g style="fill: #b1bed6" transform="translate(7.2 210.690622) scale(0.126 -0.126)">
       <use xlink:href="#DejaVuSans-31" transform="translate(0 0.684375)"/>
       <use xlink:href="#DejaVuSans-30" transform="translate(63.623047 0.684375)"/>
       <use xlink:href="#DejaVuSans-31" transform="translate(128.203125 38.965625) scale(0.7)"/>
      </g>
     </g>
    </g>
    <g id="ytick_3">
     <g id="line2d_19">
      <path d="M 34.976 157.81349 
L 927.776 157.81349 
" clip-path="url(#pc4e662cde5)" style="fill: none; stroke: #546379; stroke-width: 1.12; stroke-linecap: square"/>
     </g>
     <g id="line2d_20"/>
     <g id="text_11">
      <!-- $\mathdefault{10^{2}}$ -->
      <g style="fill: #b1bed6" transform="translate(7.2 162.600505) scale(0.126 -0.126)">
       <use xlink:href="#DejaVuSans-31" transform="translate(0 0.765625)"/>
       <use xlink:href="#DejaVuSans-30" transform="translate(63.623047 0.765625)"/>
       <use xlink:href="#DejaVuSans-32" transform="translate(128.203125 39.046875) scale(0.7)"/>
      </g>
     </g>
    </g>
    <g id="ytick_4">
     <g id="line2d_21">
      <path d="M 34.976 109.723373 
L 927.776 109.723373 
" clip-path="url(#pc4e662cde5)" style="fill: none; stroke: #546379; stroke-width: 1.12; stroke-linecap: square"/>
     </g>
     <g id="line2d_22"/>
     <g id="text_12">
      <!-- $\mathdefault{10^{3}}$ -->
      <g style="fill: #b1bed6" transform="translate(7.2 114.510388) scale(0.126 -0.126)">
       <defs>
        <path id="DejaVuSans-33" d="M 2597 2516 
Q 3050 2419 3304 2112 
Q 3559 1806 3559 1356 
Q 3559 666 3084 287 
Q 2609 -91 1734 -91 
Q 1441 -91 1130 -33 
Q 819 25 488 141 
L 488 750 
Q 750 597 1062 519 
Q 1375 441 1716 441 
Q 2309 441 2620 675 
Q 2931 909 2931 1356 
Q 2931 1769 2642 2001 
Q 2353 2234 1838 2234 
L 1294 2234 
L 1294 2753 
L 1863 2753 
Q 2328 2753 2575 2939 
Q 2822 3125 2822 3475 
Q 2822 3834 2567 4026 
Q 2313 4219 1838 4219 
Q 1578 4219 1281 4162 
Q 984 4106 628 3988 
L 628 4550 
Q 988 4650 1302 4700 
Q 1616 4750 1894 4750 
Q 2613 4750 3031 4423 
Q 3450 4097 3450 3541 
Q 3450 3153 3228 2886 
Q 3006 2619 2597 2516 
z
" transform="scale(0.015625)"/>
       </defs>
       <use xlink:href="#DejaVuSans-31" transform="translate(0 0.765625)"/>
       <use xlink:href="#DejaVuSans-30" transform="translate(63.623047 0.765625)"/>
       <use xlink:href="#DejaVuSans-33" transform="translate(128.203125 39.046875) scale(0.7)"/>
      </g>
     </g>
    </g>
    <g id="ytick_5">
     <g id="line2d_23">
      <path d="M 34.976 61.633256 
L 927.776 61.633256 
" clip-path="url(#pc4e662cde5)" style="fill: none; stroke: #546379; stroke-width: 1.12; stroke-linecap: square"/>
     </g>
     <g id="line2d_24"/>
     <g id="text_13">
      <!-- $\mathdefault{10^{4}}$ -->
      <g style="fill: #b1bed6" transform="translate(7.2 66.420271) scale(0.126 -0.126)">
       <use xlink:href="#DejaVuSans-31" transform="translate(0 0.684375)"/>
       <use xlink:href="#DejaVuSans-30" transform="translate(63.623047 0.684375)"/>
       <use xlink:href="#DejaVuSans-34" transform="translate(128.203125 38.965625) scale(0.7)"/>
      </g>
     </g>
    </g>
    <g id="ytick_6">
     <g id="line2d_25">
      <path d="M 34.976 13.543139 
L 927.776 13.543139 
" clip-path="url(#pc4e662cde5)" style="fill: none; stroke: #546379; stroke-width: 1.12; stroke-linecap: square"/>
     </g>
     <g id="line2d_26"/>
     <g id="text_14">
      <!-- $\mathdefault{10^{5}}$ -->
      <g style="fill: #b1bed6" transform="translate(7.2 18.330154) scale(0.126 -0.126)">
       <defs>
        <path id="DejaVuSans-35" d="M 691 4666 
L 3169 4666 
L 3169 4134 
L 1269 4134 
L 1269 2991 
Q 1406 3038 1543 3061 
Q 1681 3084 1819 3084 
Q 2600 3084 3056 2656 
Q 3513 2228 3513 1497 
Q 3513 744 3044 326 
Q 2575 -91 1722 -91 
Q 1428 -91 1123 -41 
Q 819 9 494 109 
L 494 744 
Q 775 591 1075 516 
Q 1375 441 1709 441 
Q 2250 441 2565 725 
Q 2881 1009 2881 1497 
Q 2881 1984 2565 2268 
Q 2250 2553 1709 2553 
Q 1456 2553 1204 2497 
Q 953 2441 691 2322 
L 691 4666 
z
" transform="scale(0.015625)"/>
       </defs>
       <use xlink:href="#DejaVuSans-31" transform="translate(0 0.684375)"/>
       <use xlink:href="#DejaVuSans-30" transform="translate(63.623047 0.684375)"/>
       <use xlink:href="#DejaVuSans-35" transform="translate(128.203125 38.965625) scale(0.7)"/>
      </g>
     </g>
    </g>
    <g id="ytick_7">
     <g id="line2d_27"/>
    </g>
    <g id="ytick_8">
     <g id="line2d_28"/>
    </g>
    <g id="ytick_9">
     <g id="line2d_29"/>
    </g>
    <g id="ytick_10">
     <g id="line2d_30"/>
    </g>
    <g id="ytick_11">
     <g id="line2d_31"/>
    </g>
    <g id="ytick_12">
     <g id="line2d_32"/>
    </g>
    <g id="ytick_13">
     <g id="line2d_33"/>
    </g>
    <g id="ytick_14">
     <g id="line2d_34"/>
    </g>
    <g id="ytick_15">
     <g id="line2d_35"/>
    </g>
    <g id="ytick_16">
     <g id="line2d_36"/>
    </g>
    <g id="ytick_17">
     <g id="line2d_37"/>
    </g>
    <g id="ytick_18">
     <g id="line2d_38"/>
    </g>
    <g id="ytick_19">
     <g id="line2d_39"/>
    </g>
    <g id="ytick_20">
     <g id="line2d_40"/>
    </g>
    <g id="ytick_21">
     <g id="line2d_41"/>
    </g>
    <g id="ytick_22">
     <g id="line2d_42"/>
    </g>
    <g id="ytick_23">
     <g id="line2d_43"/>
    </g>
    <g id="ytick_24">
     <g id="line2d_44"/>
    </g>
    <g id="ytick_25">
     <g id="line2d_45"/>
    </g>
    <g id="ytick_26">
     <g id="line2d_46"/>
    </g>
    <g id="ytick_27">
     <g id="line2d_47"/>
    </g>
    <g id="ytick_28">
     <g id="line2d_48"/>
    </g>
    <g id="ytick_29">
     <g id="line2d_49"/>
    </g>
    <g id="ytick_30">
     <g id="line2d_50"/>
    </g>
    <g id="ytick_31">
     <g id="line2d_51"/>
    </g>
    <g id="ytick_32">
     <g id="line2d_52"/>
    </g>
    <g id="ytick_33">
     <g id="line2d_53"/>
    </g>
    <g id="ytick_34">
     <g id="line2d_54"/>
    </g>
    <g id="ytick_35">
     <g id="line2d_55"/>
    </g>
    <g id="ytick_36">
     <g id="line2d_56"/>
    </g>
    <g id="ytick_37">
     <g id="line2d_57"/>
    </g>
    <g id="ytick_38">
     <g id="line2d_58"/>
    </g>
    <g id="ytick_39">
     <g id="line2d_59"/>
    </g>
    <g id="ytick_40">
     <g id="line2d_60"/>
    </g>
    <g id="ytick_41">
     <g id="line2d_61"/>
    </g>
    <g id="ytick_42">
     <g id="line2d_62"/>
    </g>
    <g id="ytick_43">
     <g id="line2d_63"/>
    </g>
    <g id="ytick_44">
     <g id="line2d_64"/>
    </g>
    <g id="ytick_45">
     <g id="line2d_65"/>
    </g>
    <g id="ytick_46">
     <g id="line2d_66"/>
    </g>
    <g id="ytick_47">
     <g id="line2d_67"/>
    </g>
    <g id="ytick_48">
     <g id="line2d_68"/>
    </g>
    <g id="ytick_49">
     <g id="line2d_69"/>
    </g>
    <g id="ytick_50">
     <g id="line2d_70"/>
    </g>
    <g id="ytick_51">
     <g id="line2d_71"/>
    </g>
    <g id="ytick_52">
     <g id="line2d_72"/>
    </g>
    <g id="ytick_53">
     <g id="line2d_73"/>
    </g>
    <g id="ytick_54">
     <g id="line2d_74"/>
    </g>
   </g>
   <g id="line2d_75">
    <path d="M 75.557818 287.607273 
L 75.557818 282.946859 
L 76.209475 282.946859 
L 76.209475 277.791119 
L 76.861131 277.791119 
L 76.861131 279.139023 
L 77.512788 279.139023 
L 77.512788 280.579958 
L 78.164445 280.579958 
L 78.164445 279.847067 
L 78.816101 279.847067 
L 78.816101 280.579958 
L 80.119415 280.579958 
L 80.119415 282.127724 
L 80.771071 282.127724 
L 80.771071 284.688306 
L 82.074385 284.688306 
L 82.074385 282.946859 
L 82.726041 282.946859 
L 82.726041 282.127724 
L 83.377698 282.127724 
L 83.377698 282.946859 
L 84.029355 282.946859 
L 84.029355 281.339507 
L 84.681011 281.339507 
L 84.681011 279.139023 
L 85.984325 279.139023 
L 85.984325 277.791119 
L 86.635981 277.791119 
L 86.635981 275.331188 
L 87.287638 275.331188 
L 87.287638 273.130705 
L 87.939295 273.130705 
L 87.939295 274.201979 
L 88.590951 274.201979 
L 88.590951 271.140126 
L 89.242608 271.140126 
L 89.242608 270.670774 
L 89.894265 270.670774 
L 89.894265 255.735171 
L 91.197578 255.735171 
L 91.197578 254.629872 
L 91.849235 254.629872 
L 91.849235 252.386371 
L 92.500891 252.386371 
L 92.500891 252.974728 
L 93.152548 252.974728 
L 93.152548 256.663558 
L 93.804205 256.663558 
L 93.804205 253.993723 
L 94.455861 253.993723 
L 94.455861 254.629872 
L 95.107518 254.629872 
L 95.107518 255.735171 
L 95.759175 255.735171 
L 95.759175 256.663558 
L 96.410831 256.663558 
L 96.410831 255.963428 
L 97.062488 255.963428 
L 97.062488 256.90225 
L 97.714145 256.90225 
L 97.714145 258.916849 
L 98.365801 258.916849 
L 98.365801 256.427564 
L 99.017458 256.427564 
L 99.017458 258.654137 
L 100.320771 258.654137 
L 100.320771 260.002042 
L 100.972428 260.002042 
L 100.972428 259.725412 
L 101.624084 259.725412 
L 101.624084 254.415663 
L 102.275741 254.415663 
L 102.275741 250.185888 
L 102.927398 250.185888 
L 102.927398 247.266922 
L 103.579054 247.266922 
L 103.579054 241.950996 
L 104.230711 241.950996 
L 104.230711 224.322105 
L 104.882368 224.322105 
L 104.882368 227.474429 
L 105.534024 227.474429 
L 105.534024 225.515874 
L 106.185681 225.515874 
L 106.185681 214.740584 
L 106.837338 214.740584 
L 106.837338 209.371702 
L 107.488994 209.371702 
L 107.488994 213.412618 
L 108.140651 213.412618 
L 108.140651 212.562433 
L 108.792308 212.562433 
L 108.792308 208.8602 
L 109.443964 208.8602 
L 109.443964 206.604449 
L 110.095621 206.604449 
L 110.095621 192.443424 
L 110.747278 192.443424 
L 110.747278 181.39015 
L 111.398934 181.39015 
L 111.398934 187.917194 
L 112.050591 187.917194 
L 112.050591 192.641704 
L 112.702248 192.641704 
L 112.702248 196.899279 
L 113.353904 196.899279 
L 113.353904 194.12062 
L 114.005561 194.12062 
L 114.005561 194.395667 
L 114.657218 194.395667 
L 114.657218 196.429626 
L 115.308874 196.429626 
L 115.308874 195.957326 
L 115.960531 195.957326 
L 115.960531 197.338119 
L 116.612188 197.338119 
L 116.612188 198.506632 
L 117.263844 198.506632 
L 117.263844 198.085865 
L 117.915501 198.085865 
L 117.915501 198.98098 
L 118.567158 198.98098 
L 118.567158 198.727642 
L 119.218814 198.727642 
L 119.218814 198.028488 
L 119.870471 198.028488 
L 119.870471 202.98464 
L 120.522128 202.98464 
L 120.522128 206.626058 
L 121.173784 206.626058 
L 121.173784 206.050318 
L 121.825441 206.050318 
L 121.825441 203.240456 
L 122.477097 203.240456 
L 122.477097 202.535477 
L 123.128754 202.535477 
L 123.128754 203.351058 
L 123.780411 203.351058 
L 123.780411 207.018896 
L 124.432067 207.018896 
L 124.432067 209.396374 
L 125.083724 209.396374 
L 125.083724 209.870776 
L 125.735381 209.870776 
L 125.735381 214.08149 
L 126.387037 214.08149 
L 126.387037 215.921228 
L 127.038694 215.921228 
L 127.038694 220.2968 
L 127.690351 220.2968 
L 127.690351 215.954995 
L 128.342007 215.954995 
L 128.342007 218.427603 
L 128.993664 218.427603 
L 128.993664 220.632313 
L 129.645321 220.632313 
L 129.645321 220.131043 
L 130.296977 220.131043 
L 130.296977 221.276309 
L 130.948634 221.276309 
L 130.948634 224.221453 
L 131.600291 224.221453 
L 131.600291 224.98844 
L 132.251947 224.98844 
L 132.251947 234.118089 
L 132.903604 234.118089 
L 132.903604 228.932132 
L 133.555261 228.932132 
L 133.555261 230.364082 
L 134.206917 230.364082 
L 134.206917 228.558057 
L 134.858574 228.558057 
L 134.858574 229.570875 
L 135.510231 229.570875 
L 135.510231 229.766371 
L 136.161887 229.766371 
L 136.161887 230.296819 
L 136.813544 230.296819 
L 136.813544 234.037607 
L 137.465201 234.037607 
L 137.465201 235.278681 
L 138.116857 235.278681 
L 138.116857 235.024496 
L 138.768514 235.024496 
L 138.768514 233.718741 
L 139.420171 233.718741 
L 139.420171 230.096319 
L 140.071827 230.096319 
L 140.071827 230.635323 
L 140.723484 230.635323 
L 140.723484 230.229771 
L 141.375141 230.229771 
L 141.375141 229.313029 
L 142.026797 229.313029 
L 142.026797 228.682006 
L 142.678454 228.682006 
L 142.678454 225.145276 
L 143.33011 225.145276 
L 143.33011 223.774426 
L 143.981767 223.774426 
L 143.981767 222.720359 
L 144.633424 222.720359 
L 144.633424 218.889175 
L 145.28508 218.889175 
L 145.28508 213.174606 
L 145.936737 213.174606 
L 145.936737 213.05661 
L 146.588394 213.05661 
L 146.588394 213.233855 
L 147.24005 213.233855 
L 147.24005 215.322564 
L 147.891707 215.322564 
L 147.891707 214.997242 
L 148.543364 214.997242 
L 148.543364 217.643613 
L 149.19502 217.643613 
L 149.19502 217.827626 
L 149.846677 217.827626 
L 149.846677 216.607177 
L 150.498334 216.607177 
L 150.498334 217.13684 
L 151.801647 217.208488 
L 151.801647 221.495464 
L 152.453304 221.495464 
L 152.453304 222.580657 
L 153.10496 222.580657 
L 153.10496 219.68188 
L 153.756617 219.68188 
L 153.756617 220.463883 
L 154.408274 220.463883 
L 154.408274 221.189287 
L 155.05993 221.189287 
L 155.05993 220.172359 
L 155.711587 220.172359 
L 155.711587 220.463883 
L 156.363244 220.463883 
L 156.363244 218.618686 
L 157.0149 218.618686 
L 157.0149 219.440893 
L 157.666557 219.440893 
L 157.666557 221.189287 
L 158.318214 221.189287 
L 158.318214 221.363695 
L 158.96987 221.363695 
L 158.96987 220.632313 
L 160.273184 220.547928 
L 160.273184 221.232753 
L 160.92484 221.232753 
L 160.92484 220.505863 
L 162.228154 220.421987 
L 162.228154 219.400998 
L 162.87981 219.400998 
L 162.87981 219.601242 
L 163.531467 219.601242 
L 163.531467 220.007583 
L 164.183124 220.007583 
L 164.183124 219.641522 
L 164.83478 219.641522 
L 164.83478 219.966591 
L 166.138093 219.966591 
L 166.138093 220.172359 
L 166.78975 220.172359 
L 166.78975 219.844096 
L 168.74472 219.762831 
L 168.74472 219.641522 
L 169.396377 219.641522 
L 169.396377 219.281767 
L 170.048033 219.281767 
L 170.048033 218.16299 
L 171.351347 218.087998 
L 171.351347 215.653034 
L 172.003003 215.653034 
L 172.003003 214.708722 
L 172.65466 214.708722 
L 172.65466 214.455564 
L 173.306317 214.455564 
L 173.306317 214.645145 
L 173.957973 214.645145 
L 173.957973 214.236541 
L 174.60963 214.236541 
L 174.60963 214.08149 
L 175.261287 214.08149 
L 175.261287 213.412618 
L 175.912943 213.412618 
L 175.912943 210.959337 
L 176.5646 210.959337 
L 176.5646 207.040939 
L 177.216257 207.040939 
L 177.216257 206.909031 
L 177.867913 206.909031 
L 177.867913 208.573441 
L 178.51957 208.573441 
L 178.51957 208.220442 
L 179.171227 208.220442 
L 179.171227 205.654475 
L 179.822883 205.654475 
L 179.822883 203.480838 
L 180.47454 203.480838 
L 180.47454 202.803814 
L 181.126197 202.803814 
L 181.126197 201.580059 
L 181.777853 201.580059 
L 181.777853 198.172228 
L 182.42951 198.172228 
L 182.42951 205.367529 
L 183.081167 205.367529 
L 183.081167 203.932023 
L 183.732823 203.932023 
L 183.732823 204.08461 
L 184.38448 204.08461 
L 184.38448 204.844867 
L 185.036137 204.844867 
L 185.036137 203.406579 
L 186.33945 203.462249 
L 186.33945 202.376115 
L 186.991107 202.376115 
L 186.991107 201.027108 
L 187.642763 201.027108 
L 187.642763 201.614047 
L 188.29442 201.614047 
L 188.29442 201.310133 
L 188.946076 201.310133 
L 188.946076 201.109953 
L 189.597733 201.109953 
L 189.597733 200.47231 
L 190.24939 200.47231 
L 190.24939 201.580059 
L 190.901046 201.580059 
L 190.901046 201.922448 
L 191.552703 201.922448 
L 191.552703 202.130609 
L 192.20436 202.130609 
L 192.20436 202.446792 
L 192.856016 202.446792 
L 192.856016 202.875957 
L 193.507673 202.875957 
L 193.507673 204.046358 
L 194.15933 204.046358 
L 194.15933 203.799417 
L 194.810986 203.799417 
L 194.810986 203.970065 
L 196.1143 204.008177 
L 196.1143 203.780542 
L 196.765956 203.780542 
L 196.765956 202.411424 
L 197.417613 202.411424 
L 197.417613 201.546127 
L 198.06927 201.546127 
L 198.06927 201.04365 
L 199.372583 200.977558 
L 199.372583 200.279965 
L 200.02424 200.279965 
L 200.02424 199.55863 
L 200.675896 199.55863 
L 200.675896 199.176805 
L 201.327553 199.176805 
L 201.327553 199.435685 
L 202.630866 199.328698 
L 202.630866 199.713337 
L 203.282523 199.713337 
L 203.282523 199.405062 
L 203.93418 199.405062 
L 203.93418 199.604922 
L 205.237493 199.57405 
L 205.237493 198.891216 
L 205.88915 198.891216 
L 205.88915 198.418878 
L 206.540806 198.418878 
L 206.540806 196.710149 
L 207.192463 196.710149 
L 207.192463 194.662188 
L 207.84412 194.662188 
L 207.84412 193.010178 
L 208.495776 193.010178 
L 208.495776 191.65805 
L 209.147433 191.65805 
L 209.147433 190.408043 
L 209.799089 190.408043 
L 209.799089 189.88748 
L 210.450746 189.88748 
L 210.450746 187.645326 
L 211.102403 187.645326 
L 211.102403 185.005137 
L 211.754059 185.005137 
L 211.754059 185.174749 
L 212.405716 185.174749 
L 212.405716 182.59988 
L 213.057373 182.59988 
L 213.057373 182.139654 
L 213.709029 182.139654 
L 213.709029 180.191717 
L 214.360686 180.191717 
L 214.360686 175.931475 
L 215.012343 175.931475 
L 215.012343 174.21391 
L 215.663999 174.21391 
L 215.663999 173.644646 
L 216.315656 173.644646 
L 216.315656 171.422781 
L 216.967313 171.422781 
L 216.967313 165.188286 
L 217.618969 165.188286 
L 217.618969 162.792206 
L 218.270626 162.792206 
L 218.270626 159.441738 
L 218.922283 159.441738 
L 218.922283 152.173899 
L 219.573939 152.173899 
L 219.573939 147.570959 
L 220.225596 147.570959 
L 220.225596 153.169791 
L 220.877253 153.169791 
L 220.877253 165.837464 
L 221.528909 165.837464 
L 221.528909 154.194473 
L 222.180566 154.194473 
L 222.180566 150.416515 
L 222.832223 150.416515 
L 222.832223 152.576325 
L 223.483879 152.576325 
L 223.483879 154.534423 
L 224.135536 154.534423 
L 224.135536 154.717299 
L 224.787193 154.717299 
L 224.787193 155.318316 
L 225.438849 155.318316 
L 225.438849 154.358445 
L 226.090506 154.358445 
L 226.090506 153.435677 
L 227.393819 153.540944 
L 227.393819 152.016657 
L 228.697133 151.967662 
L 228.697133 153.588659 
L 229.348789 153.588659 
L 229.348789 154.185693 
L 230.000446 154.185693 
L 230.000446 156.576834 
L 230.652103 156.576834 
L 230.652103 157.817667 
L 231.303759 157.817667 
L 231.303759 156.324435 
L 231.955416 156.324435 
L 231.955416 156.138563 
L 232.607072 156.138563 
L 232.607072 156.994354 
L 233.258729 156.994354 
L 233.258729 158.39588 
L 233.910386 158.39588 
L 233.910386 162.463463 
L 234.562042 162.463463 
L 234.562042 163.410955 
L 235.213699 163.410955 
L 235.213699 159.107996 
L 235.865356 159.107996 
L 235.865356 158.438876 
L 236.517012 158.438876 
L 236.517012 160.15601 
L 237.168669 160.15601 
L 237.168669 158.992767 
L 237.820326 158.992767 
L 237.820326 158.086778 
L 238.471982 158.086778 
L 238.471982 156.870216 
L 239.123639 156.870216 
L 239.123639 156.455145 
L 239.775296 156.455145 
L 239.775296 157.236739 
L 240.426952 157.236739 
L 240.426952 155.94669 
L 241.078609 155.94669 
L 241.078609 157.874145 
L 241.730266 157.874145 
L 241.730266 155.741427 
L 242.381922 155.741427 
L 242.381922 155.209254 
L 243.033579 155.209254 
L 243.033579 154.268365 
L 243.685236 154.268365 
L 243.685236 152.319486 
L 244.336892 152.319486 
L 244.336892 154.425817 
L 244.988549 154.425817 
L 244.988549 153.657012 
L 245.640206 153.657012 
L 245.640206 153.31241 
L 246.291862 153.31241 
L 246.291862 152.801832 
L 246.943519 152.801832 
L 246.943519 153.501832 
L 247.595176 153.501832 
L 247.595176 153.211636 
L 248.246832 153.211636 
L 248.246832 152.94526 
L 248.898489 152.94526 
L 248.898489 153.670709 
L 249.550146 153.670709 
L 249.550146 153.300628 
L 250.201802 153.300628 
L 250.201802 152.724755 
L 250.853459 152.724755 
L 250.853459 151.057953 
L 251.505116 151.057953 
L 251.505116 144.839111 
L 252.156772 144.839111 
L 252.156772 143.830377 
L 252.808429 143.830377 
L 252.808429 142.628531 
L 253.460086 142.628531 
L 253.460086 143.025969 
L 254.111742 143.025969 
L 254.111742 138.46125 
L 254.763399 138.46125 
L 254.763399 132.878094 
L 255.415055 132.878094 
L 255.415055 129.229082 
L 256.066712 129.229082 
L 256.066712 125.271215 
L 256.718369 125.271215 
L 256.718369 116.678174 
L 257.370025 116.678174 
L 257.370025 114.007092 
L 258.021682 114.007092 
L 258.021682 107.097945 
L 258.673339 107.097945 
L 258.673339 108.7002 
L 259.324995 108.7002 
L 259.324995 116.997035 
L 259.976652 116.997035 
L 259.976652 112.467387 
L 260.628309 112.467387 
L 260.628309 112.801105 
L 261.279965 112.801105 
L 261.279965 117.615887 
L 261.931622 117.615887 
L 261.931622 118.401842 
L 262.583279 118.401842 
L 262.583279 116.469138 
L 263.234935 116.469138 
L 263.234935 116.239051 
L 263.886592 116.239051 
L 263.886592 113.646646 
L 264.538249 113.646646 
L 264.538249 113.784193 
L 265.189905 113.784193 
L 265.189905 113.264583 
L 265.841562 113.264583 
L 265.841562 113.94079 
L 266.493219 113.94079 
L 266.493219 113.670096 
L 267.144875 113.670096 
L 267.144875 114.91202 
L 267.796532 114.91202 
L 267.796532 114.763146 
L 268.448189 114.763146 
L 268.448189 113.942579 
L 269.099845 113.942579 
L 269.099845 114.885797 
L 269.751502 114.885797 
L 269.751502 117.552897 
L 270.403159 117.552897 
L 270.403159 120.046886 
L 271.054815 120.046886 
L 271.054815 119.374435 
L 271.706472 119.374435 
L 271.706472 121.11816 
L 272.358129 121.11816 
L 272.358129 121.850949 
L 273.009785 121.850949 
L 273.009785 121.555919 
L 273.661442 121.555919 
L 273.661442 118.065647 
L 274.313099 118.065647 
L 274.313099 119.047464 
L 275.616412 119.011267 
L 275.616412 119.549219 
L 276.268068 119.549219 
L 276.268068 121.357755 
L 276.919725 121.357755 
L 276.919725 120.892689 
L 277.571382 120.892689 
L 277.571382 124.621879 
L 278.223038 124.621879 
L 278.223038 126.911587 
L 278.874695 126.911587 
L 278.874695 126.032391 
L 279.526352 126.032391 
L 279.526352 130.545125 
L 280.178008 130.545125 
L 280.178008 125.957739 
L 280.829665 125.957739 
L 280.829665 124.960912 
L 281.481322 124.960912 
L 281.481322 124.685057 
L 282.132978 124.685057 
L 282.132978 125.8743 
L 282.784635 125.8743 
L 282.784635 126.306419 
L 283.436292 126.306419 
L 283.436292 127.024614 
L 284.739605 126.983529 
L 284.739605 126.753805 
L 285.391262 126.753805 
L 285.391262 126.441306 
L 286.042918 126.441306 
L 286.042918 124.702165 
L 286.694575 124.702165 
L 286.694575 123.0655 
L 287.346232 123.0655 
L 287.346232 121.06417 
L 287.997888 121.06417 
L 287.997888 119.349585 
L 288.649545 119.349585 
L 288.649545 118.354745 
L 289.301202 118.354745 
L 289.301202 118.758662 
L 289.952858 118.758662 
L 289.952858 120.68833 
L 290.604515 120.68833 
L 290.604515 120.115475 
L 291.256172 120.115475 
L 291.256172 120.709171 
L 291.907828 120.709171 
L 291.907828 121.804715 
L 292.559485 121.804715 
L 292.559485 120.392453 
L 293.211142 120.392453 
L 293.211142 118.870338 
L 293.862798 118.870338 
L 293.862798 119.561258 
L 294.514455 119.561258 
L 294.514455 119.240923 
L 295.166112 119.240923 
L 295.166112 119.570627 
L 295.817768 119.570627 
L 295.817768 119.373109 
L 296.469425 119.373109 
L 296.469425 119.692801 
L 297.121082 119.692801 
L 297.121082 120.613263 
L 297.772738 120.613263 
L 297.772738 121.026818 
L 298.424395 121.026818 
L 298.424395 120.796292 
L 299.727708 120.779264 
L 299.727708 121.499685 
L 300.379365 121.499685 
L 300.379365 123.225547 
L 301.031021 123.225547 
L 301.031021 123.428252 
L 301.682678 123.428252 
L 301.682678 123.867188 
L 302.985991 123.925646 
L 302.985991 125.211502 
L 303.637648 125.211502 
L 303.637648 124.796939 
L 304.289305 124.796939 
L 304.289305 125.34389 
L 304.940961 125.34389 
L 304.940961 125.186964 
L 305.592618 125.186964 
L 305.592618 126.220198 
L 306.244275 126.220198 
L 306.244275 128.800395 
L 306.895931 128.800395 
L 306.895931 128.334966 
L 307.547588 128.334966 
L 307.547588 130.271288 
L 308.199245 130.271288 
L 308.199245 131.124751 
L 308.850901 131.124751 
L 308.850901 132.622709 
L 309.502558 132.622709 
L 309.502558 130.948014 
L 310.154215 130.948014 
L 310.154215 129.131527 
L 310.805871 129.131527 
L 310.805871 129.419134 
L 311.457528 129.419134 
L 311.457528 131.223913 
L 312.109185 131.223913 
L 312.109185 131.595558 
L 312.760841 131.595558 
L 312.760841 132.390804 
L 313.412498 132.390804 
L 313.412498 132.863542 
L 314.064155 132.863542 
L 314.064155 131.832594 
L 314.715811 131.832594 
L 314.715811 127.831912 
L 315.367468 127.831912 
L 315.367468 129.396086 
L 316.019125 129.396086 
L 316.019125 131.26664 
L 316.670781 131.26664 
L 316.670781 130.231663 
L 317.322438 130.231663 
L 317.322438 130.098275 
L 317.974095 130.098275 
L 317.974095 129.952524 
L 318.625751 129.952524 
L 318.625751 130.205474 
L 319.277408 130.205474 
L 319.277408 131.721522 
L 319.929065 131.721522 
L 319.929065 131.188861 
L 320.580721 131.188861 
L 320.580721 134.03214 
L 321.232378 134.03214 
L 321.232378 132.753156 
L 321.884034 132.753156 
L 321.884034 132.881891 
L 322.535691 132.881891 
L 322.535691 134.116585 
L 323.187348 134.116585 
L 323.187348 135.933353 
L 323.839004 135.933353 
L 323.839004 135.009075 
L 324.490661 135.009075 
L 324.490661 137.093923 
L 325.142318 137.093923 
L 325.142318 142.297051 
L 325.793974 142.297051 
L 325.793974 141.728603 
L 326.445631 141.728603 
L 326.445631 140.083755 
L 327.097288 140.083755 
L 327.097288 137.576515 
L 327.748944 137.576515 
L 327.748944 141.417664 
L 328.400601 141.417664 
L 328.400601 140.718863 
L 329.052258 140.718863 
L 329.052258 140.976549 
L 329.703914 140.976549 
L 329.703914 141.126312 
L 330.355571 141.126312 
L 330.355571 140.013277 
L 331.007228 140.013277 
L 331.007228 139.032061 
L 331.658884 139.032061 
L 331.658884 139.534308 
L 332.310541 139.534308 
L 332.310541 138.386142 
L 332.962198 138.386142 
L 332.962198 137.064515 
L 333.613854 137.064515 
L 333.613854 136.685929 
L 334.265511 136.685929 
L 334.265511 135.226775 
L 334.917168 135.226775 
L 334.917168 135.628633 
L 335.568824 135.628633 
L 335.568824 137.689362 
L 336.220481 137.689362 
L 336.220481 139.098447 
L 336.872138 139.098447 
L 336.872138 138.430679 
L 337.523794 138.430679 
L 337.523794 138.971815 
L 338.175451 138.971815 
L 338.175451 137.815644 
L 338.827108 137.815644 
L 338.827108 139.269639 
L 339.478764 139.269639 
L 339.478764 141.062531 
L 340.782078 141.097211 
L 340.782078 139.893386 
L 341.433734 139.893386 
L 341.433734 140.757591 
L 342.737047 140.81952 
L 342.737047 139.575259 
L 343.388704 139.575259 
L 343.388704 139.777703 
L 344.040361 139.777703 
L 344.040361 139.446579 
L 344.692017 139.446579 
L 344.692017 139.759217 
L 345.343674 139.759217 
L 345.343674 140.291213 
L 345.995331 140.291213 
L 345.995331 139.724931 
L 346.646987 139.724931 
L 346.646987 139.94126 
L 347.298644 139.94126 
L 347.298644 140.569239 
L 347.950301 140.569239 
L 347.950301 141.07471 
L 348.601957 141.07471 
L 348.601957 140.631529 
L 349.253614 140.631529 
L 349.253614 140.454309 
L 349.905271 140.454309 
L 349.905271 138.678179 
L 350.556927 138.678179 
L 350.556927 139.119769 
L 351.208584 139.119769 
L 351.208584 139.511689 
L 351.860241 139.511689 
L 351.860241 138.796315 
L 352.511897 138.796315 
L 352.511897 138.28915 
L 353.163554 138.28915 
L 353.163554 137.183175 
L 353.815211 137.183175 
L 353.815211 135.94581 
L 354.466867 135.94581 
L 354.466867 135.727053 
L 355.118524 135.727053 
L 355.118524 136.554198 
L 356.421837 136.461577 
L 356.421837 135.374606 
L 357.073494 135.374606 
L 357.073494 135.688643 
L 357.725151 135.688643 
L 357.725151 136.226233 
L 358.376807 136.226233 
L 358.376807 136.360391 
L 359.028464 136.360391 
L 359.028464 136.993487 
L 359.680121 136.993487 
L 359.680121 137.742818 
L 360.331777 137.742818 
L 360.331777 140.761283 
L 360.983434 140.761283 
L 360.983434 140.587541 
L 361.635091 140.587541 
L 361.635091 140.866783 
L 362.286747 140.866783 
L 362.286747 140.395267 
L 363.590061 140.351773 
L 363.590061 139.1659 
L 364.241717 139.1659 
L 364.241717 139.992802 
L 364.893374 139.992802 
L 364.893374 140.570154 
L 365.54503 140.570154 
L 365.54503 140.403432 
L 366.196687 140.403432 
L 366.196687 140.057856 
L 366.848344 140.057856 
L 366.848344 139.60406 
L 367.5 139.60406 
L 367.5 139.724053 
L 368.151657 139.724053 
L 368.151657 138.945565 
L 369.45497 139.03716 
L 369.45497 138.471174 
L 370.106627 138.471174 
L 370.106627 137.773998 
L 370.758284 137.773998 
L 370.758284 136.735353 
L 371.40994 136.735353 
L 371.40994 135.816467 
L 372.061597 135.816467 
L 372.061597 132.994234 
L 372.713254 132.994234 
L 372.713254 128.626707 
L 373.36491 128.626707 
L 373.36491 129.549321 
L 374.016567 129.549321 
L 374.016567 134.252681 
L 374.668224 134.252681 
L 374.668224 133.588101 
L 375.31988 133.588101 
L 375.31988 133.139203 
L 375.971537 133.139203 
L 375.971537 133.294867 
L 376.623194 133.294867 
L 376.623194 131.17719 
L 377.27485 131.17719 
L 377.27485 130.911693 
L 377.926507 130.911693 
L 377.926507 129.553099 
L 378.578164 129.553099 
L 378.578164 128.016633 
L 379.22982 128.016633 
L 379.22982 127.185909 
L 379.881477 127.185909 
L 379.881477 126.097245 
L 380.533134 126.097245 
L 380.533134 126.948242 
L 381.18479 126.948242 
L 381.18479 126.146706 
L 381.836447 126.146706 
L 381.836447 127.193621 
L 383.13976 127.216292 
L 383.13976 127.385891 
L 383.791417 127.385891 
L 383.791417 126.473417 
L 384.443074 126.473417 
L 384.443074 127.371786 
L 385.09473 127.371786 
L 385.09473 129.63205 
L 385.746387 129.63205 
L 385.746387 129.849349 
L 386.398044 129.849349 
L 386.398044 129.300416 
L 387.0497 129.300416 
L 387.0497 130.119338 
L 387.701357 130.119338 
L 387.701357 130.575711 
L 388.353013 130.575711 
L 388.353013 130.208259 
L 389.00467 130.208259 
L 389.00467 130.040736 
L 389.656327 130.040736 
L 389.656327 128.901643 
L 390.307983 128.901643 
L 390.307983 127.842353 
L 391.611297 127.878687 
L 391.611297 127.272833 
L 392.262953 127.272833 
L 392.262953 127.71741 
L 392.91461 127.71741 
L 392.91461 128.565354 
L 393.566267 128.565354 
L 393.566267 128.041219 
L 394.86958 128.091988 
L 394.86958 128.448819 
L 395.521237 128.448819 
L 395.521237 128.021648 
L 396.82455 127.993078 
L 396.82455 128.154991 
L 397.476207 128.154991 
L 397.476207 127.915583 
L 398.77952 127.843845 
L 398.77952 127.710984 
L 399.431177 127.710984 
L 399.431177 127.376648 
L 400.082833 127.376648 
L 400.082833 127.062905 
L 400.73449 127.062905 
L 400.73449 126.311502 
L 401.386147 126.311502 
L 401.386147 126.620175 
L 402.037803 126.620175 
L 402.037803 126.26165 
L 402.68946 126.26165 
L 402.68946 126.429683 
L 403.341117 126.429683 
L 403.341117 125.911444 
L 403.992773 125.911444 
L 403.992773 126.132039 
L 404.64443 126.132039 
L 404.64443 126.257962 
L 405.296087 126.257962 
L 405.296087 126.717961 
L 405.947743 126.717961 
L 405.947743 126.460846 
L 406.5994 126.460846 
L 406.5994 123.733188 
L 407.251057 123.733188 
L 407.251057 122.670084 
L 407.902713 122.670084 
L 407.902713 120.966622 
L 408.55437 120.966622 
L 408.55437 121.174097 
L 409.206026 121.174097 
L 409.206026 117.61924 
L 409.857683 117.61924 
L 409.857683 115.677182 
L 410.50934 115.677182 
L 410.50934 120.643892 
L 411.160996 120.643892 
L 411.160996 119.366811 
L 411.812653 119.366811 
L 411.812653 118.151456 
L 412.46431 118.151456 
L 412.46431 117.717314 
L 413.115966 117.717314 
L 413.115966 118.306808 
L 415.070936 118.359797 
L 415.070936 118.165532 
L 415.722593 118.165532 
L 415.722593 118.354745 
L 416.37425 118.354745 
L 416.37425 118.543139 
L 417.025906 118.543139 
L 417.025906 120.199459 
L 417.677563 120.199459 
L 417.677563 121.363953 
L 418.32922 121.363953 
L 418.32922 120.921588 
L 419.632533 120.980223 
L 419.632533 121.429697 
L 420.28419 121.429697 
L 420.28419 121.19977 
L 421.587503 121.25375 
L 421.587503 121.40849 
L 422.890816 121.390226 
L 422.890816 120.109979 
L 423.542473 120.109979 
L 423.542473 119.651773 
L 424.19413 119.651773 
L 424.19413 120.081495 
L 425.497443 120.13919 
L 425.497443 120.599196 
L 426.1491 120.599196 
L 426.1491 120.157081 
L 428.10407 120.143661 
L 428.10407 119.894739 
L 428.755726 119.894739 
L 428.755726 119.202745 
L 429.407383 119.202745 
L 429.407383 119.07784 
L 430.05904 119.07784 
L 430.05904 119.409939 
L 430.710696 119.409939 
L 430.710696 118.916344 
L 431.362353 118.916344 
L 431.362353 117.597305 
L 432.014009 117.597305 
L 432.014009 116.393693 
L 432.665666 116.393693 
L 432.665666 117.069054 
L 433.317323 117.069054 
L 433.317323 116.540804 
L 433.968979 116.540804 
L 433.968979 117.161291 
L 434.620636 117.161291 
L 434.620636 116.101411 
L 436.575606 116.094893 
L 436.575606 116.29562 
L 437.227263 116.29562 
L 437.227263 115.373603 
L 438.530576 115.277741 
L 438.530576 115.231199 
L 439.182233 115.231199 
L 439.182233 115.023165 
L 439.833889 115.023165 
L 439.833889 114.619285 
L 440.485546 114.619285 
L 440.485546 111.603074 
L 441.137203 111.603074 
L 441.137203 111.231397 
L 441.788859 111.231397 
L 441.788859 110.470919 
L 442.440516 110.470919 
L 442.440516 107.559596 
L 443.092173 107.559596 
L 443.092173 111.681834 
L 443.743829 111.681834 
L 443.743829 114.240173 
L 444.395486 114.240173 
L 444.395486 113.60083 
L 445.047143 113.60083 
L 445.047143 112.025279 
L 445.698799 112.025279 
L 445.698799 112.308178 
L 446.350456 112.308178 
L 446.350456 111.496172 
L 447.002113 111.496172 
L 447.002113 110.072553 
L 447.653769 110.072553 
L 447.653769 109.493236 
L 448.305426 109.493236 
L 448.305426 110.031817 
L 448.957083 110.031817 
L 448.957083 109.698325 
L 449.608739 109.698325 
L 449.608739 108.614069 
L 450.260396 108.614069 
L 450.260396 107.263442 
L 450.912053 107.263442 
L 450.912053 106.797688 
L 451.563709 106.797688 
L 451.563709 105.485239 
L 452.215366 105.485239 
L 452.215366 104.714344 
L 452.867023 104.714344 
L 452.867023 106.053662 
L 453.518679 106.053662 
L 453.518679 105.218589 
L 454.170336 105.218589 
L 454.170336 108.343512 
L 454.821992 108.343512 
L 454.821992 107.487415 
L 455.473649 107.487415 
L 455.473649 110.536611 
L 456.125306 110.536611 
L 456.125306 108.908857 
L 456.776962 108.908857 
L 456.776962 108.116214 
L 457.428619 108.116214 
L 457.428619 106.024949 
L 458.080276 106.024949 
L 458.080276 105.742387 
L 458.731932 105.742387 
L 458.731932 106.437881 
L 459.383589 106.437881 
L 459.383589 105.894662 
L 460.035246 105.894662 
L 460.035246 105.344883 
L 460.686902 105.344883 
L 460.686902 104.437182 
L 461.338559 104.437182 
L 461.338559 103.381479 
L 461.990216 103.381479 
L 461.990216 100.743079 
L 462.641872 100.743079 
L 462.641872 99.250625 
L 463.293529 99.250625 
L 463.293529 98.728713 
L 463.945186 98.728713 
L 463.945186 98.530902 
L 464.596842 98.530902 
L 464.596842 95.154695 
L 465.248499 95.154695 
L 465.248499 91.252792 
L 465.900156 91.252792 
L 465.900156 93.472076 
L 466.551812 93.472076 
L 466.551812 91.352735 
L 467.203469 91.352735 
L 467.203469 88.985847 
L 467.855126 88.985847 
L 467.855126 88.032807 
L 468.506782 88.032807 
L 468.506782 88.932679 
L 469.158439 88.932679 
L 469.158439 89.529558 
L 469.810096 89.529558 
L 469.810096 89.301053 
L 470.461752 89.301053 
L 470.461752 90.569439 
L 471.113409 90.569439 
L 471.113409 90.24098 
L 472.416722 90.173381 
L 472.416722 90.562512 
L 473.068379 90.562512 
L 473.068379 92.228823 
L 473.720036 92.228823 
L 473.720036 95.538194 
L 474.371692 95.538194 
L 474.371692 92.646165 
L 475.023349 92.646165 
L 475.023349 88.608271 
L 475.675005 88.608271 
L 475.675005 89.318028 
L 476.326662 89.318028 
L 476.326662 87.75551 
L 477.629975 87.802105 
L 477.629975 84.11081 
L 478.281632 84.11081 
L 478.281632 81.468272 
L 478.933289 81.468272 
L 478.933289 78.894844 
L 479.584945 78.894844 
L 479.584945 80.487081 
L 480.236602 80.487081 
L 480.236602 79.10606 
L 480.888259 79.10606 
L 480.888259 78.89074 
L 481.539915 78.89074 
L 481.539915 76.495947 
L 482.191572 76.495947 
L 482.191572 78.850884 
L 482.843229 78.850884 
L 482.843229 79.110399 
L 483.494885 79.110399 
L 483.494885 81.486096 
L 484.146542 81.486096 
L 484.146542 82.520029 
L 484.798199 82.520029 
L 484.798199 82.965384 
L 485.449855 82.965384 
L 485.449855 81.128446 
L 486.101512 81.128446 
L 486.101512 79.929675 
L 486.753169 79.929675 
L 486.753169 79.21938 
L 487.404825 79.21938 
L 487.404825 78.59319 
L 488.056482 78.59319 
L 488.056482 76.86616 
L 488.708139 76.86616 
L 488.708139 73.403733 
L 490.011452 73.383671 
L 490.011452 72.650921 
L 490.663109 72.650921 
L 490.663109 73.118737 
L 491.314765 73.118737 
L 491.314765 70.901707 
L 491.966422 70.901707 
L 491.966422 68.018126 
L 492.618079 68.018126 
L 492.618079 67.729645 
L 493.269735 67.729645 
L 493.269735 72.688154 
L 493.921392 72.688154 
L 493.921392 66.639107 
L 494.573049 66.639107 
L 494.573049 65.669205 
L 495.876362 65.745432 
L 495.876362 61.803115 
L 496.528019 61.803115 
L 496.528019 59.808766 
L 497.179675 59.808766 
L 497.179675 54.840075 
L 497.831332 54.840075 
L 497.831332 53.069224 
L 498.482988 53.069224 
L 498.482988 51.291013 
L 499.134645 51.291013 
L 499.134645 48.325151 
L 499.786302 48.325151 
L 499.786302 54.941883 
L 500.437958 54.941883 
L 500.437958 52.241718 
L 501.089615 52.241718 
L 501.089615 56.785649 
L 501.741272 56.785649 
L 501.741272 53.110442 
L 502.392928 53.110442 
L 502.392928 51.566797 
L 503.044585 51.566797 
L 503.044585 55.699919 
L 503.696242 55.699919 
L 503.696242 55.281899 
L 504.347898 55.281899 
L 504.347898 58.70247 
L 504.999555 58.70247 
L 504.999555 59.965096 
L 505.651212 59.965096 
L 505.651212 58.839302 
L 506.302868 58.839302 
L 506.302868 61.211484 
L 506.954525 61.211484 
L 506.954525 65.772711 
L 508.257838 65.663454 
L 508.257838 64.077142 
L 508.909495 64.077142 
L 508.909495 61.263619 
L 509.561152 61.263619 
L 509.561152 59.180789 
L 510.212808 59.180789 
L 510.212808 62.269921 
L 510.864465 62.269921 
L 510.864465 60.950843 
L 511.516122 60.950843 
L 511.516122 58.683747 
L 512.167778 58.683747 
L 512.167778 63.093966 
L 512.819435 63.093966 
L 512.819435 63.534221 
L 513.471092 63.534221 
L 513.471092 65.53011 
L 514.122748 65.53011 
L 514.122748 64.04376 
L 514.774405 64.04376 
L 514.774405 64.944721 
L 515.426062 64.944721 
L 515.426062 66.42301 
L 516.077718 66.42301 
L 516.077718 69.603507 
L 516.729375 69.603507 
L 516.729375 69.728934 
L 518.032688 69.735859 
L 518.032688 66.568942 
L 519.336002 66.537381 
L 519.336002 63.995412 
L 519.987658 63.995412 
L 519.987658 64.137285 
L 520.639315 64.137285 
L 520.639315 62.929096 
L 521.290971 62.929096 
L 521.290971 62.15485 
L 521.942628 62.15485 
L 521.942628 62.994174 
L 522.594285 62.994174 
L 522.594285 65.282557 
L 523.245941 65.282557 
L 523.245941 65.098737 
L 523.897598 65.098737 
L 523.897598 65.67108 
L 524.549255 65.67108 
L 524.549255 67.608435 
L 525.200911 67.608435 
L 525.200911 68.078977 
L 525.852568 68.078977 
L 525.852568 67.670388 
L 527.155881 67.654193 
L 527.155881 67.322283 
L 527.807538 67.322283 
L 527.807538 70.460669 
L 528.459195 70.460669 
L 528.459195 70.666678 
L 529.110851 70.666678 
L 529.110851 69.808575 
L 529.762508 69.808575 
L 529.762508 71.762382 
L 530.414165 71.762382 
L 530.414165 72.730535 
L 531.065821 72.730535 
L 531.065821 70.227908 
L 532.369135 70.221133 
L 532.369135 71.186183 
L 533.020791 71.186183 
L 533.020791 71.453286 
L 533.672448 71.453286 
L 533.672448 68.003614 
L 534.975761 67.903129 
L 534.975761 66.451399 
L 535.627418 66.451399 
L 535.627418 65.850699 
L 536.279075 65.850699 
L 536.279075 67.880273 
L 536.930731 67.880273 
L 536.930731 69.940589 
L 537.582388 69.940589 
L 537.582388 71.523558 
L 538.234045 71.523558 
L 538.234045 71.380452 
L 538.885701 71.380452 
L 538.885701 70.673439 
L 539.537358 70.673439 
L 539.537358 70.547028 
L 540.189015 70.547028 
L 540.189015 69.379208 
L 540.840671 69.379208 
L 540.840671 69.026552 
L 541.492328 69.026552 
L 541.492328 68.037416 
L 542.143984 68.037416 
L 542.143984 71.670928 
L 542.795641 71.670928 
L 542.795641 71.196844 
L 543.447298 71.196844 
L 543.447298 70.638726 
L 544.750611 70.643066 
L 544.750611 70.363846 
L 545.402268 70.363846 
L 545.402268 70.220913 
L 546.053924 70.220913 
L 546.053924 70.561915 
L 546.705581 70.561915 
L 546.705581 70.395054 
L 548.008894 70.371398 
L 548.008894 71.398812 
L 548.660551 71.398812 
L 548.660551 70.599419 
L 549.963864 70.649916 
L 549.963864 70.719887 
L 550.615521 70.719887 
L 550.615521 71.277655 
L 551.267178 71.277655 
L 551.267178 71.080757 
L 551.918834 71.080757 
L 551.918834 70.512269 
L 552.570491 70.512269 
L 552.570491 70.926266 
L 553.222148 70.926266 
L 553.222148 73.525029 
L 553.873804 73.525029 
L 553.873804 76.751226 
L 554.525461 76.751226 
L 554.525461 79.004047 
L 555.177118 79.004047 
L 555.177118 81.685729 
L 555.828774 81.685729 
L 555.828774 79.81055 
L 556.480431 79.81055 
L 556.480431 82.146119 
L 557.132088 82.146119 
L 557.132088 83.037893 
L 557.783744 83.037893 
L 557.783744 84.736712 
L 558.435401 84.736712 
L 558.435401 83.224386 
L 559.087058 83.224386 
L 559.087058 81.299917 
L 559.738714 81.299917 
L 559.738714 81.723569 
L 560.390371 81.723569 
L 560.390371 82.005055 
L 561.042028 82.005055 
L 561.042028 81.132005 
L 561.693684 81.132005 
L 561.693684 80.398825 
L 562.345341 80.398825 
L 562.345341 82.704111 
L 562.996998 82.704111 
L 562.996998 82.497615 
L 563.648654 82.497615 
L 563.648654 82.82198 
L 564.300311 82.82198 
L 564.300311 83.044238 
L 565.603624 83.10867 
L 565.603624 83.738865 
L 566.906937 83.823178 
L 566.906937 84.196702 
L 567.558594 84.196702 
L 567.558594 82.800447 
L 568.210251 82.800447 
L 568.210251 82.923202 
L 568.861907 82.923202 
L 568.861907 81.157414 
L 569.513564 81.157414 
L 569.513564 80.053772 
L 570.165221 80.053772 
L 570.165221 81.659669 
L 571.468534 81.761531 
L 571.468534 81.369708 
L 572.771847 81.40052 
L 572.771847 81.104451 
L 573.423504 81.104451 
L 573.423504 80.618795 
L 575.378474 80.518475 
L 575.378474 80.182519 
L 576.030131 80.182519 
L 576.030131 76.483909 
L 576.681787 76.483909 
L 576.681787 75.016529 
L 577.333444 75.016529 
L 577.333444 75.80772 
L 577.985101 75.80772 
L 577.985101 75.304147 
L 578.636757 75.304147 
L 578.636757 74.856324 
L 579.288414 74.856324 
L 579.288414 74.370653 
L 579.940071 74.370653 
L 579.940071 74.887779 
L 580.591727 74.887779 
L 580.591727 74.540563 
L 581.243384 74.540563 
L 581.243384 73.430243 
L 581.895041 73.430243 
L 581.895041 71.124404 
L 582.546697 71.124404 
L 582.546697 66.312762 
L 583.198354 66.312762 
L 583.198354 68.306307 
L 583.850011 68.306307 
L 583.850011 67.293808 
L 584.501667 67.293808 
L 584.501667 64.435418 
L 585.153324 64.435418 
L 585.153324 65.594214 
L 585.804981 65.594214 
L 585.804981 65.944377 
L 586.456637 65.944377 
L 586.456637 66.298134 
L 587.108294 66.298134 
L 587.108294 66.509956 
L 587.75995 66.509956 
L 587.75995 64.162423 
L 588.411607 64.162423 
L 588.411607 63.190052 
L 589.063264 63.190052 
L 589.063264 59.99792 
L 589.71492 59.99792 
L 589.71492 59.39195 
L 590.366577 59.39195 
L 590.366577 60.458264 
L 591.018234 60.458264 
L 591.018234 59.727987 
L 591.66989 59.727987 
L 591.66989 56.828349 
L 592.321547 56.828349 
L 592.321547 58.916673 
L 592.973204 58.916673 
L 592.973204 62.324856 
L 593.62486 62.324856 
L 593.62486 60.441115 
L 594.276517 60.441115 
L 594.276517 61.895607 
L 594.928174 61.895607 
L 594.928174 62.701606 
L 595.57983 62.701606 
L 595.57983 60.555565 
L 596.231487 60.555565 
L 596.231487 58.77673 
L 596.883144 58.77673 
L 596.883144 59.113595 
L 597.5348 59.113595 
L 597.5348 61.597864 
L 598.186457 61.597864 
L 598.186457 60.980255 
L 598.838114 60.980255 
L 598.838114 61.400682 
L 599.48977 61.400682 
L 599.48977 60.894039 
L 600.141427 60.894039 
L 600.141427 62.533773 
L 600.793084 62.533773 
L 600.793084 60.374388 
L 601.44474 60.374388 
L 601.44474 60.639716 
L 602.096397 60.639716 
L 602.096397 61.303134 
L 602.748054 61.303134 
L 602.748054 60.994774 
L 604.051367 61.064877 
L 604.051367 62.30522 
L 604.703024 62.30522 
L 604.703024 65.7935 
L 605.35468 65.7935 
L 605.35468 65.467206 
L 606.006337 65.467206 
L 606.006337 65.911617 
L 606.657994 65.911617 
L 606.657994 64.81259 
L 607.30965 64.81259 
L 607.30965 65.565704 
L 607.961307 65.565704 
L 607.961307 66.094179 
L 608.612963 66.094179 
L 608.612963 65.720678 
L 609.26462 65.720678 
L 609.26462 64.621659 
L 609.916277 64.621659 
L 609.916277 62.851573 
L 610.567933 62.851573 
L 610.567933 63.146265 
L 611.871247 63.051811 
L 611.871247 63.747776 
L 612.522903 63.747776 
L 612.522903 64.70489 
L 613.17456 64.70489 
L 613.17456 65.8392 
L 613.826217 65.8392 
L 613.826217 68.245164 
L 614.477873 68.245164 
L 614.477873 68.59992 
L 615.12953 68.59992 
L 615.12953 67.481456 
L 615.781187 67.481456 
L 615.781187 68.514903 
L 616.432843 68.514903 
L 616.432843 67.579317 
L 617.0845 67.579317 
L 617.0845 68.52562 
L 617.736157 68.52562 
L 617.736157 69.445043 
L 618.387813 69.445043 
L 618.387813 68.522686 
L 619.03947 68.522686 
L 619.03947 68.34763 
L 619.691127 68.34763 
L 619.691127 68.203014 
L 620.342783 68.203014 
L 620.342783 68.564818 
L 620.99444 68.564818 
L 620.99444 68.059052 
L 621.646097 68.059052 
L 621.646097 66.774511 
L 622.297753 66.774511 
L 622.297753 66.020715 
L 622.94941 66.020715 
L 622.94941 64.066298 
L 623.601067 64.066298 
L 623.601067 64.488413 
L 624.252723 64.488413 
L 624.252723 65.456067 
L 624.90438 65.456067 
L 624.90438 63.194305 
L 626.207693 63.116242 
L 626.207693 62.149904 
L 626.85935 62.149904 
L 626.85935 61.938754 
L 627.511007 61.938754 
L 627.511007 60.877414 
L 628.162663 60.877414 
L 628.162663 61.259331 
L 628.81432 61.259331 
L 628.81432 62.334897 
L 629.465977 62.334897 
L 629.465977 64.337485 
L 630.117633 64.337485 
L 630.117633 64.943717 
L 630.76929 64.943717 
L 630.76929 63.677937 
L 631.420946 63.677937 
L 631.420946 66.472111 
L 632.072603 66.472111 
L 632.072603 73.709272 
L 632.72426 73.709272 
L 632.72426 74.667067 
L 633.375916 74.667067 
L 633.375916 71.651383 
L 634.027573 71.651383 
L 634.027573 70.00214 
L 634.67923 70.00214 
L 634.67923 72.70472 
L 635.330886 72.70472 
L 635.330886 69.65996 
L 635.982543 69.65996 
L 635.982543 68.082845 
L 636.6342 68.082845 
L 636.6342 69.464178 
L 637.937513 69.468098 
L 637.937513 68.322671 
L 638.58917 68.322671 
L 638.58917 68.695298 
L 639.240826 68.695298 
L 639.240826 67.09391 
L 639.892483 67.09391 
L 639.892483 64.713481 
L 640.54414 64.713481 
L 640.54414 64.10014 
L 641.195796 64.10014 
L 641.195796 62.008787 
L 641.847453 62.008787 
L 641.847453 64.268634 
L 642.49911 64.268634 
L 642.49911 62.957337 
L 643.150766 62.957337 
L 643.150766 62.681086 
L 643.802423 62.681086 
L 643.802423 64.468141 
L 644.45408 64.468141 
L 644.45408 62.552927 
L 645.105736 62.552927 
L 645.105736 61.211013 
L 645.757393 61.211013 
L 645.757393 62.434229 
L 646.40905 62.434229 
L 646.40905 62.108221 
L 647.060706 62.108221 
L 647.060706 62.76287 
L 648.36402 62.804115 
L 648.36402 63.183122 
L 649.667333 63.282173 
L 649.667333 63.407987 
L 650.31899 63.407987 
L 650.31899 63.666354 
L 650.970646 63.666354 
L 650.970646 63.247442 
L 652.27396 63.293228 
L 652.27396 63.389442 
L 653.577273 63.34145 
L 653.577273 62.457332 
L 654.228929 62.457332 
L 654.228929 59.562328 
L 654.880586 59.562328 
L 654.880586 58.999763 
L 655.532243 58.999763 
L 655.532243 59.27708 
L 656.183899 59.27708 
L 656.183899 58.233866 
L 656.835556 58.233866 
L 656.835556 58.581934 
L 657.487213 58.581934 
L 657.487213 57.975619 
L 658.790526 58.060268 
L 658.790526 58.240381 
L 659.442183 58.240381 
L 659.442183 58.651275 
L 660.093839 58.651275 
L 660.093839 57.959428 
L 660.745496 57.959428 
L 660.745496 61.302518 
L 661.397153 61.302518 
L 661.397153 61.162766 
L 662.048809 61.162766 
L 662.048809 60.953613 
L 662.700466 60.953613 
L 662.700466 59.749483 
L 663.352123 59.749483 
L 663.352123 60.75304 
L 664.003779 60.75304 
L 664.003779 60.234167 
L 664.655436 60.234167 
L 664.655436 59.947152 
L 665.307093 59.947152 
L 665.307093 60.511538 
L 665.958749 60.511538 
L 665.958749 60.27726 
L 666.610406 60.27726 
L 666.610406 58.93959 
L 667.262063 58.93959 
L 667.262063 58.707516 
L 667.913719 58.707516 
L 667.913719 58.250627 
L 668.565376 58.250627 
L 668.565376 56.243029 
L 669.217033 56.243029 
L 669.217033 55.132462 
L 669.868689 55.132462 
L 669.868689 54.890841 
L 670.520346 54.890841 
L 670.520346 54.375112 
L 671.172003 54.375112 
L 671.172003 52.492852 
L 671.823659 52.492852 
L 671.823659 51.434806 
L 672.475316 51.434806 
L 672.475316 50.891365 
L 673.126973 50.891365 
L 673.126973 48.574382 
L 673.778629 48.574382 
L 673.778629 48.03918 
L 674.430286 48.03918 
L 674.430286 49.669973 
L 675.081942 49.669973 
L 675.081942 47.97995 
L 675.733599 47.97995 
L 675.733599 47.816901 
L 676.385256 47.816901 
L 676.385256 49.071657 
L 677.036912 49.071657 
L 677.036912 47.926119 
L 677.688569 47.926119 
L 677.688569 44.101243 
L 678.340226 44.101243 
L 678.340226 43.501708 
L 678.991882 43.501708 
L 678.991882 41.324118 
L 679.643539 41.324118 
L 679.643539 39.500019 
L 680.295196 39.500019 
L 680.295196 36.697366 
L 680.946852 36.697366 
L 680.946852 32.950214 
L 681.598509 32.950214 
L 681.598509 35.146288 
L 682.250166 35.146288 
L 682.250166 34.405388 
L 682.901822 34.405388 
L 682.901822 34.868928 
L 683.553479 34.868928 
L 683.553479 37.275539 
L 684.205136 37.275539 
L 684.205136 38.398643 
L 684.856792 38.398643 
L 684.856792 36.611674 
L 685.508449 36.611674 
L 685.508449 34.307189 
L 686.160106 34.307189 
L 686.160106 29.596403 
L 686.811762 29.596403 
L 686.811762 29.10356 
L 687.463419 29.10356 
L 687.463419 28.373517 
L 688.115076 28.373517 
L 688.115076 25.652358 
L 688.766732 25.652358 
L 688.766732 27.760325 
L 689.418389 27.760325 
L 689.418389 30.167384 
L 690.070046 30.167384 
L 690.070046 28.677867 
L 690.721702 28.677867 
L 690.721702 27.080693 
L 691.373359 27.080693 
L 691.373359 25.190547 
L 692.025016 25.190547 
L 692.025016 25.329959 
L 692.676672 25.329959 
L 692.676672 24.889041 
L 693.328329 24.889041 
L 693.328329 26.997437 
L 693.979986 26.997437 
L 693.979986 25.733628 
L 694.631642 25.733628 
L 694.631642 24.656228 
L 695.283299 24.656228 
L 695.283299 24.54375 
L 695.934956 24.54375 
L 695.934956 24.883009 
L 696.586612 24.883009 
L 696.586612 23.009876 
L 697.238269 23.009876 
L 697.238269 24.181578 
L 697.889925 24.181578 
L 697.889925 26.486435 
L 698.541582 26.486435 
L 698.541582 28.409456 
L 699.193239 28.409456 
L 699.193239 26.573813 
L 699.844895 26.573813 
L 699.844895 25.205125 
L 701.148209 25.144274 
L 701.148209 25.374949 
L 701.799865 25.374949 
L 701.799865 29.429376 
L 702.451522 29.429376 
L 702.451522 34.328546 
L 703.103179 34.328546 
L 703.103179 35.615947 
L 703.754835 35.615947 
L 703.754835 33.508081 
L 704.406492 33.508081 
L 704.406492 34.13381 
L 705.058149 34.13381 
L 705.058149 34.373094 
L 705.709805 34.373094 
L 705.709805 36.414866 
L 706.361462 36.414866 
L 706.361462 35.17571 
L 707.013119 35.17571 
L 707.013119 33.573601 
L 707.664775 33.573601 
L 707.664775 35.118449 
L 708.316432 35.118449 
L 708.316432 35.685266 
L 709.619745 35.79572 
L 709.619745 36.162485 
L 710.271402 36.162485 
L 710.271402 35.945155 
L 710.923059 35.945155 
L 710.923059 36.374085 
L 711.574715 36.374085 
L 711.574715 36.815521 
L 712.226372 36.815521 
L 712.226372 37.482323 
L 712.878029 37.482323 
L 712.878029 37.147011 
L 713.529685 37.147011 
L 713.529685 34.129556 
L 714.181342 34.129556 
L 714.181342 31.554905 
L 714.832999 31.554905 
L 714.832999 33.675686 
L 715.484655 33.675686 
L 715.484655 30.39069 
L 716.136312 30.39069 
L 716.136312 29.938311 
L 716.787969 29.938311 
L 716.787969 29.286939 
L 717.439625 29.286939 
L 717.439625 29.430238 
L 718.091282 29.430238 
L 718.091282 28.219698 
L 718.742939 28.219698 
L 718.742939 28.417424 
L 719.394595 28.417424 
L 719.394595 29.242842 
L 720.046252 29.242842 
L 720.046252 28.041698 
L 720.697908 28.041698 
L 720.697908 29.725598 
L 722.001222 29.734329 
L 722.001222 28.96593 
L 722.652878 28.96593 
L 722.652878 31.217551 
L 723.956192 31.259459 
L 723.956192 32.158724 
L 724.607848 32.158724 
L 724.607848 28.991365 
L 725.259505 28.991365 
L 725.259505 25.898997 
L 725.911162 25.898997 
L 725.911162 26.171732 
L 726.562818 26.171732 
L 726.562818 25.137916 
L 727.214475 25.137916 
L 727.214475 23.536619 
L 727.866132 23.536619 
L 727.866132 23.970631 
L 728.517788 23.970631 
L 728.517788 24.092066 
L 729.169445 24.092066 
L 729.169445 23.617761 
L 729.821102 23.617761 
L 729.821102 23.207845 
L 730.472758 23.207845 
L 730.472758 23.095895 
L 731.124415 23.095895 
L 731.124415 22.592014 
L 731.776072 22.592014 
L 731.776072 23.000082 
L 732.427728 23.000082 
L 732.427728 24.87207 
L 733.079385 24.87207 
L 733.079385 25.072348 
L 733.731042 25.072348 
L 733.731042 26.104774 
L 734.382698 26.104774 
L 734.382698 25.199129 
L 735.034355 25.199129 
L 735.034355 28.280121 
L 735.686012 28.280121 
L 735.686012 29.020889 
L 736.337668 29.020889 
L 736.337668 29.420212 
L 736.989325 29.420212 
L 736.989325 29.682524 
L 737.640982 29.682524 
L 737.640982 28.469552 
L 738.292638 28.469552 
L 738.292638 27.823934 
L 738.944295 27.823934 
L 738.944295 29.576336 
L 739.595952 29.576336 
L 739.595952 29.166802 
L 740.247608 29.166802 
L 740.247608 31.111175 
L 740.899265 31.111175 
L 740.899265 31.736347 
L 741.550921 31.736347 
L 741.550921 31.121475 
L 742.202578 31.121475 
L 742.202578 31.472283 
L 742.854235 31.472283 
L 742.854235 35.426379 
L 743.505891 35.426379 
L 743.505891 34.408235 
L 744.157548 34.408235 
L 744.157548 33.79617 
L 744.809205 33.79617 
L 744.809205 34.256277 
L 745.460861 34.256277 
L 745.460861 30.768475 
L 746.112518 30.768475 
L 746.112518 31.462533 
L 746.764175 31.462533 
L 746.764175 30.436564 
L 747.415831 30.436564 
L 747.415831 32.620135 
L 748.067488 32.620135 
L 748.067488 34.144482 
L 748.719145 34.144482 
L 748.719145 33.914407 
L 749.370801 33.914407 
L 749.370801 31.43146 
L 750.022458 31.43146 
L 750.022458 33.73354 
L 750.674115 33.73354 
L 750.674115 33.34803 
L 751.325771 33.34803 
L 751.325771 33.037787 
L 751.977428 33.037787 
L 751.977428 31.550863 
L 752.629085 31.550863 
L 752.629085 31.215847 
L 753.280741 31.215847 
L 753.280741 29.374951 
L 753.932398 29.374951 
L 753.932398 29.971416 
L 754.584055 29.971416 
L 754.584055 29.485453 
L 755.235711 29.485453 
L 755.235711 31.522875 
L 755.887368 31.522875 
L 755.887368 32.626826 
L 756.539025 32.626826 
L 756.539025 32.478106 
L 757.190681 32.478106 
L 757.190681 31.973854 
L 757.842338 31.973854 
L 757.842338 32.961044 
L 758.493995 32.961044 
L 758.493995 32.800536 
L 759.145651 32.800536 
L 759.145651 33.472604 
L 759.797308 33.472604 
L 759.797308 34.873045 
L 760.448965 34.873045 
L 760.448965 38.000967 
L 761.100621 38.000967 
L 761.100621 38.636562 
L 761.752278 38.636562 
L 761.752278 39.627515 
L 762.403935 39.627515 
L 762.403935 38.495145 
L 763.055591 38.495145 
L 763.055591 39.257289 
L 763.707248 39.257289 
L 763.707248 37.526995 
L 764.358904 37.526995 
L 764.358904 38.911173 
L 765.010561 38.911173 
L 765.010561 37.924381 
L 765.662218 37.924381 
L 765.662218 39.873978 
L 766.313874 39.873978 
L 766.313874 44.649665 
L 766.965531 44.649665 
L 766.965531 46.599878 
L 767.617188 46.599878 
L 767.617188 46.050059 
L 768.268844 46.050059 
L 768.268844 46.435955 
L 768.920501 46.435955 
L 768.920501 47.980243 
L 769.572158 47.980243 
L 769.572158 46.967585 
L 770.223814 46.967585 
L 770.223814 45.566167 
L 770.875471 45.566167 
L 770.875471 46.924393 
L 771.527128 46.924393 
L 771.527128 46.363444 
L 772.178784 46.363444 
L 772.178784 44.098266 
L 772.830441 44.098266 
L 772.830441 45.840736 
L 773.482098 45.840736 
L 773.482098 43.530647 
L 774.133754 43.530647 
L 774.133754 44.254282 
L 775.437068 44.285731 
L 775.437068 43.38376 
L 776.088724 43.38376 
L 776.088724 43.076611 
L 776.740381 43.076611 
L 776.740381 44.062307 
L 777.392038 44.062307 
L 777.392038 45.740759 
L 778.043694 45.740759 
L 778.043694 46.914451 
L 778.695351 46.914451 
L 778.695351 47.373956 
L 779.998664 47.329769 
L 779.998664 47.922339 
L 780.650321 47.922339 
L 780.650321 45.362094 
L 781.301978 45.362094 
L 781.301978 47.477971 
L 781.953634 47.477971 
L 781.953634 47.640308 
L 782.605291 47.640308 
L 782.605291 47.921797 
L 783.256948 47.921797 
L 783.256948 48.112982 
L 783.908604 48.112982 
L 783.908604 47.884881 
L 784.560261 47.884881 
L 784.560261 46.982202 
L 785.211918 46.982202 
L 785.211918 47.747799 
L 786.515231 47.810791 
L 786.515231 47.633074 
L 787.166887 47.633074 
L 787.166887 48.040465 
L 787.818544 48.040465 
L 787.818544 47.051202 
L 788.470201 47.051202 
L 788.470201 46.321333 
L 789.121857 46.321333 
L 789.121857 46.996498 
L 789.773514 46.996498 
L 789.773514 46.217078 
L 790.425171 46.217078 
L 790.425171 49.885667 
L 791.076827 49.885667 
L 791.076827 51.063386 
L 791.728484 51.063386 
L 791.728484 50.94379 
L 792.380141 50.94379 
L 792.380141 51.564424 
L 793.031797 51.564424 
L 793.031797 51.233407 
L 793.683454 51.233407 
L 793.683454 50.342371 
L 796.290081 50.298325 
L 796.290081 51.000979 
L 796.941737 51.000979 
L 796.941737 50.668424 
L 798.245051 50.750795 
L 798.245051 51.124767 
L 799.548364 51.03099 
L 799.548364 50.7653 
L 800.200021 50.7653 
L 800.200021 50.316296 
L 800.851677 50.316296 
L 800.851677 47.226394 
L 801.503334 47.226394 
L 801.503334 45.993802 
L 802.154991 45.993802 
L 802.154991 44.445333 
L 802.806647 44.445333 
L 802.806647 44.156391 
L 803.458304 44.156391 
L 803.458304 43.562405 
L 804.109961 43.562405 
L 804.109961 43.829116 
L 804.761617 43.829116 
L 804.761617 44.453368 
L 805.413274 44.453368 
L 805.413274 45.512094 
L 806.064931 45.512094 
L 806.064931 44.966002 
L 806.716587 44.966002 
L 806.716587 42.797564 
L 807.368244 42.797564 
L 807.368244 43.187901 
L 808.0199 43.187901 
L 808.0199 43.732546 
L 809.323214 43.817587 
L 809.323214 44.779888 
L 809.97487 44.779888 
L 809.97487 46.923195 
L 810.626527 46.923195 
L 810.626527 42.69145 
L 811.278184 42.69145 
L 811.278184 40.907967 
L 811.92984 40.907967 
L 811.92984 40.653309 
L 812.581497 40.653309 
L 812.581497 40.129493 
L 813.88481 40.104729 
L 813.88481 40.277414 
L 815.188124 40.18498 
L 815.188124 38.525489 
L 816.491437 38.467311 
L 816.491437 39.519585 
L 817.143094 39.519585 
L 817.143094 40.437038 
L 817.79475 40.437038 
L 817.79475 39.053376 
L 818.446407 39.053376 
L 818.446407 40.064841 
L 819.098064 40.064841 
L 819.098064 39.014427 
L 819.74972 39.014427 
L 819.74972 40.399572 
L 820.401377 40.399572 
L 820.401377 41.055163 
L 821.053034 41.055163 
L 821.053034 40.583099 
L 821.70469 40.583099 
L 821.70469 41.078076 
L 822.356347 41.078076 
L 822.356347 41.297218 
L 823.008004 41.297218 
L 823.008004 40.320706 
L 823.65966 40.320706 
L 823.65966 40.69495 
L 824.962974 40.701305 
L 824.962974 41.795701 
L 825.61463 41.795701 
L 825.61463 42.390412 
L 826.266287 42.390412 
L 826.266287 41.408109 
L 826.917944 41.408109 
L 826.917944 38.755567 
L 827.5696 38.755567 
L 827.5696 38.503589 
L 828.221257 38.503589 
L 828.221257 38.362745 
L 828.872914 38.362745 
L 828.872914 38.155842 
L 829.52457 38.155842 
L 829.52457 38.539606 
L 830.176227 38.539606 
L 830.176227 38.417553 
L 831.47954 38.521828 
L 831.47954 38.826535 
L 832.131197 38.826535 
L 832.131197 39.268381 
L 833.43451 39.17005 
L 833.43451 38.909871 
L 834.086167 38.909871 
L 834.086167 39.361935 
L 834.737823 39.361935 
L 834.737823 38.992913 
L 835.38948 38.992913 
L 835.38948 39.193059 
L 836.041137 39.193059 
L 836.041137 41.151986 
L 836.692793 41.151986 
L 836.692793 41.578241 
L 837.996107 41.637478 
L 837.996107 40.330818 
L 838.647763 40.330818 
L 838.647763 41.782562 
L 840.602733 41.811865 
L 840.602733 41.250943 
L 841.25439 41.250943 
L 841.25439 41.072464 
L 841.906047 41.072464 
L 841.906047 41.214896 
L 842.557703 41.214896 
L 842.557703 41.506881 
L 843.20936 41.506881 
L 843.20936 40.911808 
L 843.861017 40.911808 
L 843.861017 40.280923 
L 845.16433 40.176284 
L 845.16433 41.076445 
L 845.815987 41.076445 
L 845.815987 39.747025 
L 846.467643 39.747025 
L 846.467643 38.910582 
L 847.1193 38.910582 
L 847.1193 36.134258 
L 847.770957 36.134258 
L 847.770957 36.018744 
L 848.422613 36.018744 
L 848.422613 35.207738 
L 849.07427 35.207738 
L 849.07427 35.440128 
L 849.725927 35.440128 
L 849.725927 34.480533 
L 850.377583 34.480533 
L 850.377583 34.594042 
L 851.680897 34.521522 
L 851.680897 34.991735 
L 852.332553 34.991735 
L 852.332553 33.861088 
L 853.635866 33.824417 
L 853.635866 32.692634 
L 854.287523 32.692634 
L 854.287523 31.025105 
L 854.93918 31.025105 
L 854.93918 32.043365 
L 855.590836 32.043365 
L 855.590836 31.693616 
L 856.242493 31.693616 
L 856.242493 31.530938 
L 856.89415 31.530938 
L 856.89415 30.812208 
L 857.545806 30.812208 
L 857.545806 30.942276 
L 858.197463 30.942276 
L 858.197463 31.537329 
L 858.84912 31.537329 
L 858.84912 30.599502 
L 859.500776 30.599502 
L 859.500776 29.32425 
L 860.152433 29.32425 
L 860.152433 31.245601 
L 860.80409 31.245601 
L 860.80409 31.105475 
L 861.455746 31.105475 
L 861.455746 31.831184 
L 862.107403 31.831184 
L 862.107403 32.64439 
L 862.75906 32.64439 
L 862.75906 31.645809 
L 863.410716 31.645809 
L 863.410716 31.139999 
L 864.062373 31.139999 
L 864.062373 31.338765 
L 864.71403 31.338765 
L 864.71403 29.252291 
L 865.365686 29.252291 
L 865.365686 28.128912 
L 866.017343 28.128912 
L 866.017343 27.327331 
L 867.972313 27.310201 
L 867.972313 23.807678 
L 868.62397 23.807678 
L 868.62397 21.482129 
L 869.927283 21.503757 
L 869.927283 20.552727 
L 870.57894 20.552727 
L 870.57894 22.442812 
L 871.230596 22.442812 
L 871.230596 21.641716 
L 871.882253 21.641716 
L 871.882253 21.836789 
L 872.53391 21.836789 
L 872.53391 20.768427 
L 873.185566 20.768427 
L 873.185566 21.081703 
L 873.837223 21.081703 
L 873.837223 21.641642 
L 874.488879 21.641642 
L 874.488879 21.250043 
L 875.140536 21.250043 
L 875.140536 22.857526 
L 875.792193 22.857526 
L 875.792193 23.770831 
L 876.443849 23.770831 
L 876.443849 22.556297 
L 877.095506 22.556297 
L 877.095506 22.705874 
L 877.747163 22.705874 
L 877.747163 22.918627 
L 878.398819 22.918627 
L 878.398819 23.230944 
L 879.050476 23.230944 
L 879.050476 23.418396 
L 879.702133 23.418396 
L 879.702133 23.933255 
L 880.353789 23.933255 
L 880.353789 22.145758 
L 881.657103 22.137265 
L 881.657103 21.615555 
L 882.308759 21.615555 
L 882.308759 21.179955 
L 882.960416 21.179955 
L 882.960416 21.756604 
L 883.612073 21.756604 
L 883.612073 20.827976 
L 884.263729 20.827976 
L 884.263729 21.20292 
L 884.915386 21.20292 
L 884.915386 21.524286 
L 885.567043 21.524286 
L 885.567043 22.020731 
L 886.218699 22.020731 
L 886.218699 22.594758 
L 886.870356 22.594758 
L 886.870356 22.789354 
L 887.194182 22.789354 
L 887.194182 22.789354 
" clip-path="url(#pc4e662cde5)" style="fill: none; stroke: #3572c6; stroke-width: 1.2; stroke-linecap: square"/>
   </g>
   <g id="line2d_76">
    <path d="M 75.557818 20.552727 
L 887.194182 20.552727 
L 887.194182 20.552727 
" clip-path="url(#pc4e662cde5)" style="fill: none; stroke: #83a83b; stroke-width: 1.2; stroke-linecap: square"/>
   </g>
   <g id="line2d_77">
    <path d="M 75.557818 23.933255 
L 887.194182 23.933255 
L 887.194182 23.933255 
" clip-path="url(#pc4e662cde5)" style="fill: none; stroke: #c44e52; stroke-width: 1.2; stroke-linecap: square"/>
   </g>
   <g id="line2d_78">
    <path d="M 870.57894 300.96 
L 870.57894 7.2 
" clip-path="url(#pc4e662cde5)" style="fill: none; stroke: #83a83b; stroke-width: 1.2; stroke-linecap: square"/>
   </g>
   <g id="line2d_79">
    <path d="M 880.353789 300.96 
L 880.353789 7.2 
" clip-path="url(#pc4e662cde5)" style="fill: none; stroke: #c44e52; stroke-width: 1.2; stroke-linecap: square"/>
   </g>
   <g id="patch_3">
    <path d="M 34.976 300.96 
L 34.976 7.2 
" style="fill: none; stroke: #899ab8; stroke-width: 1.12; stroke-linejoin: miter; stroke-linecap: square"/>
   </g>
   <g id="patch_4">
    <path d="M 927.776 300.96 
L 927.776 7.2 
" style="fill: none; stroke: #899ab8; stroke-width: 1.12; stroke-linejoin: miter; stroke-linecap: square"/>
   </g>
   <g id="patch_5">
    <path d="M 34.976 300.96 
L 927.776 300.96 
" style="fill: none; stroke: #899ab8; stroke-width: 1.12; stroke-linejoin: miter; stroke-linecap: square"/>
   </g>
   <g id="patch_6">
    <path d="M 34.976 7.2 
L 927.776 7.2 
" style="fill: none; stroke: #899ab8; stroke-width: 1.12; stroke-linejoin: miter; stroke-linecap: square"/>
   </g>
   <g id="text_15">
    <!-- 71489.22 -->
    <g style="fill: #83a83b" transform="translate(194.485158 20.552727) scale(0.132 -0.132)">
     <defs>
      <path id="DejaVuSans-37" d="M 525 4666 
L 3525 4666 
L 3525 4397 
L 1831 0 
L 1172 0 
L 2766 4134 
L 525 4134 
L 525 4666 
z
" transform="scale(0.015625)"/>
      <path id="DejaVuSans-39" d="M 703 97 
L 703 672 
Q 941 559 1184 500 
Q 1428 441 1663 441 
Q 2288 441 2617 861 
Q 2947 1281 2994 2138 
Q 2813 1869 2534 1725 
Q 2256 1581 1919 1581 
Q 1219 1581 811 2004 
Q 403 2428 403 3163 
Q 403 3881 828 4315 
Q 1253 4750 1959 4750 
Q 2769 4750 3195 4129 
Q 3622 3509 3622 2328 
Q 3622 1225 3098 567 
Q 2575 -91 1691 -91 
Q 1453 -91 1209 -44 
Q 966 3 703 97 
z
M 1959 2075 
Q 2384 2075 2632 2365 
Q 2881 2656 2881 3163 
Q 2881 3666 2632 3958 
Q 2384 4250 1959 4250 
Q 1534 4250 1286 3958 
Q 1038 3666 1038 3163 
Q 1038 2656 1286 2365 
Q 1534 2075 1959 2075 
z
" transform="scale(0.015625)"/>
      <path id="DejaVuSans-2e" d="M 684 794 
L 1344 794 
L 1344 0 
L 684 0 
L 684 794 
z
" transform="scale(0.015625)"/>
     </defs>
     <use xlink:href="#DejaVuSans-37"/>
     <use xlink:href="#DejaVuSans-31" x="63.623047"/>
     <use xlink:href="#DejaVuSans-34" x="127.246094"/>
     <use xlink:href="#DejaVuSans-38" x="190.869141"/>
     <use xlink:href="#DejaVuSans-39" x="254.492188"/>
     <use xlink:href="#DejaVuSans-2e" x="318.115234"/>
     <use xlink:href="#DejaVuSans-32" x="349.902344"/>
     <use xlink:href="#DejaVuSans-32" x="413.525391"/>
    </g>
   </g>
   <g id="text_16">
    <!-- 60805.78 -->
    <g style="fill: #c44e52" transform="translate(194.485158 23.933255) scale(0.132 -0.132)">
     <use xlink:href="#DejaVuSans-36"/>
     <use xlink:href="#DejaVuSans-30" x="63.623047"/>
     <use xlink:href="#DejaVuSans-38" x="127.246094"/>
     <use xlink:href="#DejaVuSans-30" x="190.869141"/>
     <use xlink:href="#DejaVuSans-35" x="254.492188"/>
     <use xlink:href="#DejaVuSans-2e" x="318.115234"/>
     <use xlink:href="#DejaVuSans-37" x="349.902344"/>
     <use xlink:href="#DejaVuSans-38" x="413.525391"/>
    </g>
   </g>
   <g id="legend_1">
    <g id="patch_7">
     <path d="M 432.207453 294.66 
L 530.544547 294.66 
Q 533.064547 294.66 533.064547 292.14 
L 533.064547 237.56625 
Q 533.064547 235.04625 530.544547 235.04625 
L 432.207453 235.04625 
Q 429.687453 235.04625 429.687453 237.56625 
L 429.687453 292.14 
Q 429.687453 294.66 432.207453 294.66 
z
" style="fill: #373e4b; opacity: 0.8; stroke: #cccccc; stroke-width: 0.16; stroke-linejoin: miter"/>
    </g>
    <g id="line2d_80">
     <path d="M 434.727453 245.250281 
L 434.727453 245.250281 
L 447.327453 245.250281 
L 447.327453 245.250281 
L 459.927453 245.250281 
" style="fill: none; stroke: #3572c6; stroke-width: 1.2; stroke-linecap: square"/>
    </g>
    <g id="text_17">
     <!-- USD/BTC -->
     <g style="fill: #b1bed6" transform="translate(470.007453 249.660281) scale(0.126 -0.126)">
      <defs>
       <path id="DejaVuSans-55" d="M 556 4666 
L 1191 4666 
L 1191 1831 
Q 1191 1081 1462 751 
Q 1734 422 2344 422 
Q 2950 422 3222 751 
Q 3494 1081 3494 1831 
L 3494 4666 
L 4128 4666 
L 4128 1753 
Q 4128 841 3676 375 
Q 3225 -91 2344 -91 
Q 1459 -91 1007 375 
Q 556 841 556 1753 
L 556 4666 
z
" transform="scale(0.015625)"/>
       <path id="DejaVuSans-53" d="M 3425 4513 
L 3425 3897 
Q 3066 4069 2747 4153 
Q 2428 4238 2131 4238 
Q 1616 4238 1336 4038 
Q 1056 3838 1056 3469 
Q 1056 3159 1242 3001 
Q 1428 2844 1947 2747 
L 2328 2669 
Q 3034 2534 3370 2195 
Q 3706 1856 3706 1288 
Q 3706 609 3251 259 
Q 2797 -91 1919 -91 
Q 1588 -91 1214 -16 
Q 841 59 441 206 
L 441 856 
Q 825 641 1194 531 
Q 1563 422 1919 422 
Q 2459 422 2753 634 
Q 3047 847 3047 1241 
Q 3047 1584 2836 1778 
Q 2625 1972 2144 2069 
L 1759 2144 
Q 1053 2284 737 2584 
Q 422 2884 422 3419 
Q 422 4038 858 4394 
Q 1294 4750 2059 4750 
Q 2388 4750 2728 4690 
Q 3069 4631 3425 4513 
z
" transform="scale(0.015625)"/>
       <path id="DejaVuSans-2f" d="M 1625 4666 
L 2156 4666 
L 531 -594 
L 0 -594 
L 1625 4666 
z
" transform="scale(0.015625)"/>
       <path id="DejaVuSans-42" d="M 1259 2228 
L 1259 519 
L 2272 519 
Q 2781 519 3026 730 
Q 3272 941 3272 1375 
Q 3272 1813 3026 2020 
Q 2781 2228 2272 2228 
L 1259 2228 
z
M 1259 4147 
L 1259 2741 
L 2194 2741 
Q 2656 2741 2882 2914 
Q 3109 3088 3109 3444 
Q 3109 3797 2882 3972 
Q 2656 4147 2194 4147 
L 1259 4147 
z
M 628 4666 
L 2241 4666 
Q 2963 4666 3353 4366 
Q 3744 4066 3744 3513 
Q 3744 3084 3544 2831 
Q 3344 2578 2956 2516 
Q 3422 2416 3680 2098 
Q 3938 1781 3938 1306 
Q 3938 681 3513 340 
Q 3088 0 2303 0 
L 628 0 
L 628 4666 
z
" transform="scale(0.015625)"/>
       <path id="DejaVuSans-54" d="M -19 4666 
L 3928 4666 
L 3928 4134 
L 2272 4134 
L 2272 0 
L 1638 0 
L 1638 4134 
L -19 4134 
L -19 4666 
z
" transform="scale(0.015625)"/>
       <path id="DejaVuSans-43" d="M 4122 4306 
L 4122 3641 
Q 3803 3938 3442 4084 
Q 3081 4231 2675 4231 
Q 1875 4231 1450 3742 
Q 1025 3253 1025 2328 
Q 1025 1406 1450 917 
Q 1875 428 2675 428 
Q 3081 428 3442 575 
Q 3803 722 4122 1019 
L 4122 359 
Q 3791 134 3420 21 
Q 3050 -91 2638 -91 
Q 1578 -91 968 557 
Q 359 1206 359 2328 
Q 359 3453 968 4101 
Q 1578 4750 2638 4750 
Q 3056 4750 3426 4639 
Q 3797 4528 4122 4306 
z
" transform="scale(0.015625)"/>
      </defs>
      <use xlink:href="#DejaVuSans-55"/>
      <use xlink:href="#DejaVuSans-53" x="73.193359"/>
      <use xlink:href="#DejaVuSans-44" x="136.669922"/>
      <use xlink:href="#DejaVuSans-2f" x="213.671875"/>
      <use xlink:href="#DejaVuSans-42" x="247.363281"/>
      <use xlink:href="#DejaVuSans-54" x="315.966797"/>
      <use xlink:href="#DejaVuSans-43" x="371.175781"/>
     </g>
    </g>
    <g id="line2d_81">
     <path d="M 434.727453 263.744719 
L 434.727453 263.744719 
L 447.327453 263.744719 
L 447.327453 263.744719 
L 459.927453 263.744719 
" style="fill: none; stroke: #83a83b; stroke-width: 1.2; stroke-linecap: square"/>
    </g>
    <g id="text_18">
     <!-- Max -->
     <g style="fill: #b1bed6" transform="translate(470.007453 268.154719) scale(0.126 -0.126)">
      <defs>
       <path id="DejaVuSans-4d" d="M 628 4666 
L 1569 4666 
L 2759 1491 
L 3956 4666 
L 4897 4666 
L 4897 0 
L 4281 0 
L 4281 4097 
L 3078 897 
L 2444 897 
L 1241 4097 
L 1241 0 
L 628 0 
L 628 4666 
z
" transform="scale(0.015625)"/>
       <path id="DejaVuSans-78" d="M 3513 3500 
L 2247 1797 
L 3578 0 
L 2900 0 
L 1881 1375 
L 863 0 
L 184 0 
L 1544 1831 
L 300 3500 
L 978 3500 
L 1906 2253 
L 2834 3500 
L 3513 3500 
z
" transform="scale(0.015625)"/>
      </defs>
      <use xlink:href="#DejaVuSans-4d"/>
      <use xlink:href="#DejaVuSans-61" x="86.279297"/>
      <use xlink:href="#DejaVuSans-78" x="147.558594"/>
     </g>
    </g>
    <g id="line2d_82">
     <path d="M 434.727453 282.239156 
L 434.727453 282.239156 
L 447.327453 282.239156 
L 447.327453 282.239156 
L 459.927453 282.239156 
" style="fill: none; stroke: #c44e52; stroke-width: 1.2; stroke-linecap: square"/>
    </g>
    <g id="text_19">
     <!-- local_Min -->
     <g style="fill: #b1bed6" transform="translate(470.007453 286.649156) scale(0.126 -0.126)">
      <defs>
       <path id="DejaVuSans-6c" d="M 603 4863 
L 1178 4863 
L 1178 0 
L 603 0 
L 603 4863 
z
" transform="scale(0.015625)"/>
       <path id="DejaVuSans-6f" d="M 1959 3097 
Q 1497 3097 1228 2736 
Q 959 2375 959 1747 
Q 959 1119 1226 758 
Q 1494 397 1959 397 
Q 2419 397 2687 759 
Q 2956 1122 2956 1747 
Q 2956 2369 2687 2733 
Q 2419 3097 1959 3097 
z
M 1959 3584 
Q 2709 3584 3137 3096 
Q 3566 2609 3566 1747 
Q 3566 888 3137 398 
Q 2709 -91 1959 -91 
Q 1206 -91 779 398 
Q 353 888 353 1747 
Q 353 2609 779 3096 
Q 1206 3584 1959 3584 
z
" transform="scale(0.015625)"/>
       <path id="DejaVuSans-63" d="M 3122 3366 
L 3122 2828 
Q 2878 2963 2633 3030 
Q 2388 3097 2138 3097 
Q 1578 3097 1268 2742 
Q 959 2388 959 1747 
Q 959 1106 1268 751 
Q 1578 397 2138 397 
Q 2388 397 2633 464 
Q 2878 531 3122 666 
L 3122 134 
Q 2881 22 2623 -34 
Q 2366 -91 2075 -91 
Q 1284 -91 818 406 
Q 353 903 353 1747 
Q 353 2603 823 3093 
Q 1294 3584 2113 3584 
Q 2378 3584 2631 3529 
Q 2884 3475 3122 3366 
z
" transform="scale(0.015625)"/>
       <path id="DejaVuSans-5f" d="M 3263 -1063 
L 3263 -1509 
L -63 -1509 
L -63 -1063 
L 3263 -1063 
z
" transform="scale(0.015625)"/>
       <path id="DejaVuSans-69" d="M 603 3500 
L 1178 3500 
L 1178 0 
L 603 0 
L 603 3500 
z
M 603 4863 
L 1178 4863 
L 1178 4134 
L 603 4134 
L 603 4863 
z
" transform="scale(0.015625)"/>
       <path id="DejaVuSans-6e" d="M 3513 2113 
L 3513 0 
L 2938 0 
L 2938 2094 
Q 2938 2591 2744 2837 
Q 2550 3084 2163 3084 
Q 1697 3084 1428 2787 
Q 1159 2491 1159 1978 
L 1159 0 
L 581 0 
L 581 3500 
L 1159 3500 
L 1159 2956 
Q 1366 3272 1645 3428 
Q 1925 3584 2291 3584 
Q 2894 3584 3203 3211 
Q 3513 2838 3513 2113 
z
" transform="scale(0.015625)"/>
      </defs>
      <use xlink:href="#DejaVuSans-6c"/>
      <use xlink:href="#DejaVuSans-6f" x="27.783203"/>
      <use xlink:href="#DejaVuSans-63" x="88.964844"/>
      <use xlink:href="#DejaVuSans-61" x="143.945312"/>
      <use xlink:href="#DejaVuSans-6c" x="205.224609"/>
      <use xlink:href="#DejaVuSans-5f" x="233.007812"/>
      <use xlink:href="#DejaVuSans-4d" x="283.007812"/>
      <use xlink:href="#DejaVuSans-69" x="369.287109"/>
      <use xlink:href="#DejaVuSans-6e" x="397.070312"/>
     </g>
    </g>
   </g>
  </g>
 </g>
 <defs>
  <clipPath id="pc4e662cde5">
   <rect x="34.976" y="7.2" width="892.8" height="293.76"/>
  </clipPath>
 </defs>
</svg>
