<?xml version="1.0" encoding="utf-8" standalone="no"?>
<!DOCTYPE svg PUBLIC "-//W3C//DTD SVG 1.1//EN"
  "http://www.w3.org/Graphics/SVG/1.1/DTD/svg11.dtd">
<svg xmlns:xlink="http://www.w3.org/1999/xlink" width="934.976pt" height="358.290693pt" viewBox="0 0 934.976 358.290693" xmlns="http://www.w3.org/2000/svg" version="1.1">
 <metadata>
  <rdf:RDF xmlns:dc="http://purl.org/dc/elements/1.1/" xmlns:cc="http://creativecommons.org/ns#" xmlns:rdf="http://www.w3.org/1999/02/22-rdf-syntax-ns#">
   <cc:Work>
    <dc:type rdf:resource="http://purl.org/dc/dcmitype/StillImage"/>
    <dc:date>2026-05-25T21:54:24.947021</dc:date>
    <dc:format>image/svg+xml</dc:format>
    <dc:creator>
     <cc:Agent>
      <dc:title>Matplotlib v3.10.9, https://matplotlib.org/</dc:title>
     </cc:Agent>
    </dc:creator>
   </cc:Work>
  </rdf:RDF>
 </metadata>
 <defs>
  <style type="text/css">*{stroke-linejoin: round; stroke-linecap: butt}</style>
 </defs>
 <g id="figure_1">
  <g id="patch_1">
   <path d="M 0 358.290693 
L 934.976 358.290693 
L 934.976 0 
L 0 0 
z
" style="fill: #373e4b"/>
  </g>
  <g id="axes_1">
   <g id="patch_2">
    <path d="M 34.976 300.96 
L 927.776 300.96 
L 927.776 7.2 
L 34.976 7.2 
z
" style="fill: #373e4b"/>
   </g>
   <g id="matplotlib.axis_1">
    <g id="xtick_1">
     <g id="line2d_1">
      <path d="M 136.245846 300.96 
L 136.245846 7.2 
" clip-path="url(#p3adf9b2494)" style="fill: none; stroke: #546379; stroke-width: 1.12; stroke-linecap: square"/>
     </g>
     <g id="line2d_2"/>
     <g id="text_1">
      <!-- 2012 -->
      <g style="fill: #b1bed6" transform="translate(107.164806 330.884854) rotate(-30) scale(0.126 -0.126)">
       <defs>
        <path id="DejaVuSans-32" d="M 1228 531 
L 3431 531 
L 3431 0 
L 469 0 
L 469 531 
Q 828 903 1448 1529 
Q 2069 2156 2228 2338 
Q 2531 2678 2651 2914 
Q 2772 3150 2772 3378 
Q 2772 3750 2511 3984 
Q 2250 4219 1831 4219 
Q 1534 4219 1204 4116 
Q 875 4013 500 3803 
L 500 4441 
Q 881 4594 1212 4672 
Q 1544 4750 1819 4750 
Q 2544 4750 2975 4387 
Q 3406 4025 3406 3419 
Q 3406 3131 3298 2873 
Q 3191 2616 2906 2266 
Q 2828 2175 2409 1742 
Q 1991 1309 1228 531 
z
" transform="scale(0.015625)"/>
        <path id="DejaVuSans-30" d="M 2034 4250 
Q 1547 4250 1301 3770 
Q 1056 3291 1056 2328 
Q 1056 1369 1301 889 
Q 1547 409 2034 409 
Q 2525 409 2770 889 
Q 3016 1369 3016 2328 
Q 3016 3291 2770 3770 
Q 2525 4250 2034 4250 
z
M 2034 4750 
Q 2819 4750 3233 4129 
Q 3647 3509 3647 2328 
Q 3647 1150 3233 529 
Q 2819 -91 2034 -91 
Q 1250 -91 836 529 
Q 422 1150 422 2328 
Q 422 3509 836 4129 
Q 1250 4750 2034 4750 
z
" transform="scale(0.015625)"/>
        <path id="DejaVuSans-31" d="M 794 531 
L 1825 531 
L 1825 4091 
L 703 3866 
L 703 4441 
L 1819 4666 
L 2450 4666 
L 2450 531 
L 3481 531 
L 3481 0 
L 794 0 
L 794 531 
z
" transform="scale(0.015625)"/>
       </defs>
       <use xlink:href="#DejaVuSans-32"/>
       <use xlink:href="#DejaVuSans-30" transform="translate(63.623047 0)"/>
       <use xlink:href="#DejaVuSans-31" transform="translate(127.246094 0)"/>
       <use xlink:href="#DejaVuSans-32" transform="translate(190.869141 0)"/>
      </g>
     </g>
    </g>
    <g id="xtick_2">
     <g id="line2d_3">
      <path d="M 240.629253 300.96 
L 240.629253 7.2 
" clip-path="url(#p3adf9b2494)" style="fill: none; stroke: #546379; stroke-width: 1.12; stroke-linecap: square"/>
     </g>
     <g id="line2d_4"/>
     <g id="text_2">
      <!-- 2014 -->
      <g style="fill: #b1bed6" transform="translate(211.548213 330.884854) rotate(-30) scale(0.126 -0.126)">
       <defs>
        <path id="DejaVuSans-34" d="M 2419 4116 
L 825 1625 
L 2419 1625 
L 2419 4116 
z
M 2253 4666 
L 3047 4666 
L 3047 1625 
L 3713 1625 
L 3713 1100 
L 3047 1100 
L 3047 0 
L 2419 0 
L 2419 1100 
L 313 1100 
L 313 1709 
L 2253 4666 
z
" transform="scale(0.015625)"/>
       </defs>
       <use xlink:href="#DejaVuSans-32"/>
       <use xlink:href="#DejaVuSans-30" transform="translate(63.623047 0)"/>
       <use xlink:href="#DejaVuSans-31" transform="translate(127.246094 0)"/>
       <use xlink:href="#DejaVuSans-34" transform="translate(190.869141 0)"/>
      </g>
     </g>
    </g>
    <g id="xtick_3">
     <g id="line2d_5">
      <path d="M 344.869864 300.96 
L 344.869864 7.2 
" clip-path="url(#p3adf9b2494)" style="fill: none; stroke: #546379; stroke-width: 1.12; stroke-linecap: square"/>
     </g>
     <g id="line2d_6"/>
     <g id="text_3">
      <!-- 2016 -->
      <g style="fill: #b1bed6" transform="translate(315.788824 330.884854) rotate(-30) scale(0.126 -0.126)">
       <defs>
        <path id="DejaVuSans-36" d="M 2113 2584 
Q 1688 2584 1439 2293 
Q 1191 2003 1191 1497 
Q 1191 994 1439 701 
Q 1688 409 2113 409 
Q 2538 409 2786 701 
Q 3034 994 3034 1497 
Q 3034 2003 2786 2293 
Q 2538 2584 2113 2584 
z
M 3366 4563 
L 3366 3988 
Q 3128 4100 2886 4159 
Q 2644 4219 2406 4219 
Q 1781 4219 1451 3797 
Q 1122 3375 1075 2522 
Q 1259 2794 1537 2939 
Q 1816 3084 2150 3084 
Q 2853 3084 3261 2657 
Q 3669 2231 3669 1497 
Q 3669 778 3244 343 
Q 2819 -91 2113 -91 
Q 1303 -91 875 529 
Q 447 1150 447 2328 
Q 447 3434 972 4092 
Q 1497 4750 2381 4750 
Q 2619 4750 2861 4703 
Q 3103 4656 3366 4563 
z
" transform="scale(0.015625)"/>
       </defs>
       <use xlink:href="#DejaVuSans-32"/>
       <use xlink:href="#DejaVuSans-30" transform="translate(63.623047 0)"/>
       <use xlink:href="#DejaVuSans-31" transform="translate(127.246094 0)"/>
       <use xlink:href="#DejaVuSans-36" transform="translate(190.869141 0)"/>
      </g>
     </g>
    </g>
    <g id="xtick_4">
     <g id="line2d_7">
      <path d="M 449.253271 300.96 
L 449.253271 7.2 
" clip-path="url(#p3adf9b2494)" style="fill: none; stroke: #546379; stroke-width: 1.12; stroke-linecap: square"/>
     </g>
     <g id="line2d_8"/>
     <g id="text_4">
      <!-- 2018 -->
      <g style="fill: #b1bed6" transform="translate(420.172231 330.884854) rotate(-30) scale(0.126 -0.126)">
       <defs>
        <path id="DejaVuSans-38" d="M 2034 2216 
Q 1584 2216 1326 1975 
Q 1069 1734 1069 1313 
Q 1069 891 1326 650 
Q 1584 409 2034 409 
Q 2484 409 2743 651 
Q 3003 894 3003 1313 
Q 3003 1734 2745 1975 
Q 2488 2216 2034 2216 
z
M 1403 2484 
Q 997 2584 770 2862 
Q 544 3141 544 3541 
Q 544 4100 942 4425 
Q 1341 4750 2034 4750 
Q 2731 4750 3128 4425 
Q 3525 4100 3525 3541 
Q 3525 3141 3298 2862 
Q 3072 2584 2669 2484 
Q 3125 2378 3379 2068 
Q 3634 1759 3634 1313 
Q 3634 634 3220 271 
Q 2806 -91 2034 -91 
Q 1263 -91 848 271 
Q 434 634 434 1313 
Q 434 1759 690 2068 
Q 947 2378 1403 2484 
z
M 1172 3481 
Q 1172 3119 1398 2916 
Q 1625 2713 2034 2713 
Q 2441 2713 2670 2916 
Q 2900 3119 2900 3481 
Q 2900 3844 2670 4047 
Q 2441 4250 2034 4250 
Q 1625 4250 1398 4047 
Q 1172 3844 1172 3481 
z
" transform="scale(0.015625)"/>
       </defs>
       <use xlink:href="#DejaVuSans-32"/>
       <use xlink:href="#DejaVuSans-30" transform="translate(63.623047 0)"/>
       <use xlink:href="#DejaVuSans-31" transform="translate(127.246094 0)"/>
       <use xlink:href="#DejaVuSans-38" transform="translate(190.869141 0)"/>
      </g>
     </g>
    </g>
    <g id="xtick_5">
     <g id="line2d_9">
      <path d="M 553.493883 300.96 
L 553.493883 7.2 
" clip-path="url(#p3adf9b2494)" style="fill: none; stroke: #546379; stroke-width: 1.12; stroke-linecap: square"/>
     </g>
     <g id="line2d_10"/>
     <g id="text_5">
      <!-- 2020 -->
      <g style="fill: #b1bed6" transform="translate(524.412843 330.884854) rotate(-30) scale(0.126 -0.126)">
       <use xlink:href="#DejaVuSans-32"/>
       <use xlink:href="#DejaVuSans-30" transform="translate(63.623047 0)"/>
       <use xlink:href="#DejaVuSans-32" transform="translate(127.246094 0)"/>
       <use xlink:href="#DejaVuSans-30" transform="translate(190.869141 0)"/>
      </g>
     </g>
    </g>
    <g id="xtick_6">
     <g id="line2d_11">
      <path d="M 657.87729 300.96 
L 657.87729 7.2 
" clip-path="url(#p3adf9b2494)" style="fill: none; stroke: #546379; stroke-width: 1.12; stroke-linecap: square"/>
     </g>
     <g id="line2d_12"/>
     <g id="text_6">
      <!-- 2022 -->
      <g style="fill: #b1bed6" transform="translate(628.79625 330.884854) rotate(-30) scale(0.126 -0.126)">
       <use xlink:href="#DejaVuSans-32"/>
       <use xlink:href="#DejaVuSans-30" transform="translate(63.623047 0)"/>
       <use xlink:href="#DejaVuSans-32" transform="translate(127.246094 0)"/>
       <use xlink:href="#DejaVuSans-32" transform="translate(190.869141 0)"/>
      </g>
     </g>
    </g>
    <g id="xtick_7">
     <g id="line2d_13">
      <path d="M 762.117902 300.96 
L 762.117902 7.2 
" clip-path="url(#p3adf9b2494)" style="fill: none; stroke: #546379; stroke-width: 1.12; stroke-linecap: square"/>
     </g>
     <g id="line2d_14"/>
     <g id="text_7">
      <!-- 2024 -->
      <g style="fill: #b1bed6" transform="translate(733.036862 330.884854) rotate(-30) scale(0.126 -0.126)">
       <use xlink:href="#DejaVuSans-32"/>
       <use xlink:href="#DejaVuSans-30" transform="translate(63.623047 0)"/>
       <use xlink:href="#DejaVuSans-32" transform="translate(127.246094 0)"/>
       <use xlink:href="#DejaVuSans-34" transform="translate(190.869141 0)"/>
      </g>
     </g>
    </g>
    <g id="xtick_8">
     <g id="line2d_15">
      <path d="M 866.501309 300.96 
L 866.501309 7.2 
" clip-path="url(#p3adf9b2494)" style="fill: none; stroke: #546379; stroke-width: 1.12; stroke-linecap: square"/>
     </g>
     <g id="line2d_16"/>
     <g id="text_8">
      <!-- 2026 -->
      <g style="fill: #b1bed6" transform="translate(837.420269 330.884854) rotate(-30) scale(0.126 -0.126)">
       <use xlink:href="#DejaVuSans-32"/>
       <use xlink:href="#DejaVuSans-30" transform="translate(63.623047 0)"/>
       <use xlink:href="#DejaVuSans-32" transform="translate(127.246094 0)"/>
       <use xlink:href="#DejaVuSans-36" transform="translate(190.869141 0)"/>
      </g>
     </g>
    </g>
    <g id="text_9">
     <!-- Date -->
     <g style="fill: #b1bed6" transform="translate(464.166875 348.095943) scale(0.144 -0.144)">
      <defs>
       <path id="DejaVuSans-44" d="M 1259 4147 
L 1259 519 
L 2022 519 
Q 2988 519 3436 956 
Q 3884 1394 3884 2338 
Q 3884 3275 3436 3711 
Q 2988 4147 2022 4147 
L 1259 4147 
z
M 628 4666 
L 1925 4666 
Q 3281 4666 3915 4102 
Q 4550 3538 4550 2338 
Q 4550 1131 3912 565 
Q 3275 0 1925 0 
L 628 0 
L 628 4666 
z
" transform="scale(0.015625)"/>
       <path id="DejaVuSans-61" d="M 2194 1759 
Q 1497 1759 1228 1600 
Q 959 1441 959 1056 
Q 959 750 1161 570 
Q 1363 391 1709 391 
Q 2188 391 2477 730 
Q 2766 1069 2766 1631 
L 2766 1759 
L 2194 1759 
z
M 3341 1997 
L 3341 0 
L 2766 0 
L 2766 531 
Q 2569 213 2275 61 
Q 1981 -91 1556 -91 
Q 1019 -91 701 211 
Q 384 513 384 1019 
Q 384 1609 779 1909 
Q 1175 2209 1959 2209 
L 2766 2209 
L 2766 2266 
Q 2766 2663 2505 2880 
Q 2244 3097 1772 3097 
Q 1472 3097 1187 3025 
Q 903 2953 641 2809 
L 641 3341 
Q 956 3463 1253 3523 
Q 1550 3584 1831 3584 
Q 2591 3584 2966 3190 
Q 3341 2797 3341 1997 
z
" transform="scale(0.015625)"/>
       <path id="DejaVuSans-74" d="M 1172 4494 
L 1172 3500 
L 2356 3500 
L 2356 3053 
L 1172 3053 
L 1172 1153 
Q 1172 725 1289 603 
Q 1406 481 1766 481 
L 2356 481 
L 2356 0 
L 1766 0 
Q 1100 0 847 248 
Q 594 497 594 1153 
L 594 3053 
L 172 3053 
L 172 3500 
L 594 3500 
L 594 4494 
L 1172 4494 
z
" transform="scale(0.015625)"/>
       <path id="DejaVuSans-65" d="M 3597 1894 
L 3597 1613 
L 953 1613 
Q 991 1019 1311 708 
Q 1631 397 2203 397 
Q 2534 397 2845 478 
Q 3156 559 3463 722 
L 3463 178 
Q 3153 47 2828 -22 
Q 2503 -91 2169 -91 
Q 1331 -91 842 396 
Q 353 884 353 1716 
Q 353 2575 817 3079 
Q 1281 3584 2069 3584 
Q 2775 3584 3186 3129 
Q 3597 2675 3597 1894 
z
M 3022 2063 
Q 3016 2534 2758 2815 
Q 2500 3097 2075 3097 
Q 1594 3097 1305 2825 
Q 1016 2553 972 2059 
L 3022 2063 
z
" transform="scale(0.015625)"/>
      </defs>
      <use xlink:href="#DejaVuSans-44"/>
      <use xlink:href="#DejaVuSans-61" transform="translate(77.001953 0)"/>
      <use xlink:href="#DejaVuSans-74" transform="translate(138.28125 0)"/>
      <use xlink:href="#DejaVuSans-65" transform="translate(177.490234 0)"/>
     </g>
    </g>
   </g>
   <g id="matplotlib.axis_2">
    <g id="ytick_1">
     <g id="line2d_17">
      <path d="M 34.976 255.37232 
L 927.776 255.37232 
" clip-path="url(#p3adf9b2494)" style="fill: none; stroke: #546379; stroke-width: 1.12; stroke-linecap: square"/>
     </g>
     <g id="line2d_18"/>
     <g id="text_10">
      <!-- $\mathdefault{10^{0}}$ -->
      <g style="fill: #b1bed6" transform="translate(7.2 260.159335) scale(0.126 -0.126)">
       <use xlink:href="#DejaVuSans-31" transform="translate(0 0.765625)"/>
       <use xlink:href="#DejaVuSans-30" transform="translate(63.623047 0.765625)"/>
       <use xlink:href="#DejaVuSans-30" transform="translate(128.203125 39.046875) scale(0.7)"/>
      </g>
     </g>
    </g>
    <g id="ytick_2">
     <g id="line2d_19">
      <path d="M 34.976 209.254528 
L 927.776 209.254528 
" clip-path="url(#p3adf9b2494)" style="fill: none; stroke: #546379; stroke-width: 1.12; stroke-linecap: square"/>
     </g>
     <g id="line2d_20"/>
     <g id="text_11">
      <!-- $\mathdefault{10^{1}}$ -->
      <g style="fill: #b1bed6" transform="translate(7.2 214.041544) scale(0.126 -0.126)">
       <use xlink:href="#DejaVuSans-31" transform="translate(0 0.684375)"/>
       <use xlink:href="#DejaVuSans-30" transform="translate(63.623047 0.684375)"/>
       <use xlink:href="#DejaVuSans-31" transform="translate(128.203125 38.965625) scale(0.7)"/>
      </g>
     </g>
    </g>
    <g id="ytick_3">
     <g id="line2d_21">
      <path d="M 34.976 163.136737 
L 927.776 163.136737 
" clip-path="url(#p3adf9b2494)" style="fill: none; stroke: #546379; stroke-width: 1.12; stroke-linecap: square"/>
     </g>
     <g id="line2d_22"/>
     <g id="text_12">
      <!-- $\mathdefault{10^{2}}$ -->
      <g style="fill: #b1bed6" transform="translate(7.2 167.923752) scale(0.126 -0.126)">
       <use xlink:href="#DejaVuSans-31" transform="translate(0 0.765625)"/>
       <use xlink:href="#DejaVuSans-30" transform="translate(63.623047 0.765625)"/>
       <use xlink:href="#DejaVuSans-32" transform="translate(128.203125 39.046875) scale(0.7)"/>
      </g>
     </g>
    </g>
    <g id="ytick_4">
     <g id="line2d_23">
      <path d="M 34.976 117.018945 
L 927.776 117.018945 
" clip-path="url(#p3adf9b2494)" style="fill: none; stroke: #546379; stroke-width: 1.12; stroke-linecap: square"/>
     </g>
     <g id="line2d_24"/>
     <g id="text_13">
      <!-- $\mathdefault{10^{3}}$ -->
      <g style="fill: #b1bed6" transform="translate(7.2 121.805961) scale(0.126 -0.126)">
       <defs>
        <path id="DejaVuSans-33" d="M 2597 2516 
Q 3050 2419 3304 2112 
Q 3559 1806 3559 1356 
Q 3559 666 3084 287 
Q 2609 -91 1734 -91 
Q 1441 -91 1130 -33 
Q 819 25 488 141 
L 488 750 
Q 750 597 1062 519 
Q 1375 441 1716 441 
Q 2309 441 2620 675 
Q 2931 909 2931 1356 
Q 2931 1769 2642 2001 
Q 2353 2234 1838 2234 
L 1294 2234 
L 1294 2753 
L 1863 2753 
Q 2328 2753 2575 2939 
Q 2822 3125 2822 3475 
Q 2822 3834 2567 4026 
Q 2313 4219 1838 4219 
Q 1578 4219 1281 4162 
Q 984 4106 628 3988 
L 628 4550 
Q 988 4650 1302 4700 
Q 1616 4750 1894 4750 
Q 2613 4750 3031 4423 
Q 3450 4097 3450 3541 
Q 3450 3153 3228 2886 
Q 3006 2619 2597 2516 
z
" transform="scale(0.015625)"/>
       </defs>
       <use xlink:href="#DejaVuSans-31" transform="translate(0 0.765625)"/>
       <use xlink:href="#DejaVuSans-30" transform="translate(63.623047 0.765625)"/>
       <use xlink:href="#DejaVuSans-33" transform="translate(128.203125 39.046875) scale(0.7)"/>
      </g>
     </g>
    </g>
    <g id="ytick_5">
     <g id="line2d_25">
      <path d="M 34.976 70.901154 
L 927.776 70.901154 
" clip-path="url(#p3adf9b2494)" style="fill: none; stroke: #546379; stroke-width: 1.12; stroke-linecap: square"/>
     </g>
     <g id="line2d_26"/>
     <g id="text_14">
      <!-- $\mathdefault{10^{4}}$ -->
      <g style="fill: #b1bed6" transform="translate(7.2 75.688169) scale(0.126 -0.126)">
       <use xlink:href="#DejaVuSans-31" transform="translate(0 0.684375)"/>
       <use xlink:href="#DejaVuSans-30" transform="translate(63.623047 0.684375)"/>
       <use xlink:href="#DejaVuSans-34" transform="translate(128.203125 38.965625) scale(0.7)"/>
      </g>
     </g>
    </g>
    <g id="ytick_6">
     <g id="line2d_27">
      <path d="M 34.976 24.783362 
L 927.776 24.783362 
" clip-path="url(#p3adf9b2494)" style="fill: none; stroke: #546379; stroke-width: 1.12; stroke-linecap: square"/>
     </g>
     <g id="line2d_28"/>
     <g id="text_15">
      <!-- $\mathdefault{10^{5}}$ -->
      <g style="fill: #b1bed6" transform="translate(7.2 29.570378) scale(0.126 -0.126)">
       <defs>
        <path id="DejaVuSans-35" d="M 691 4666 
L 3169 4666 
L 3169 4134 
L 1269 4134 
L 1269 2991 
Q 1406 3038 1543 3061 
Q 1681 3084 1819 3084 
Q 2600 3084 3056 2656 
Q 3513 2228 3513 1497 
Q 3513 744 3044 326 
Q 2575 -91 1722 -91 
Q 1428 -91 1123 -41 
Q 819 9 494 109 
L 494 744 
Q 775 591 1075 516 
Q 1375 441 1709 441 
Q 2250 441 2565 725 
Q 2881 1009 2881 1497 
Q 2881 1984 2565 2268 
Q 2250 2553 1709 2553 
Q 1456 2553 1204 2497 
Q 953 2441 691 2322 
L 691 4666 
z
" transform="scale(0.015625)"/>
       </defs>
       <use xlink:href="#DejaVuSans-31" transform="translate(0 0.684375)"/>
       <use xlink:href="#DejaVuSans-30" transform="translate(63.623047 0.684375)"/>
       <use xlink:href="#DejaVuSans-35" transform="translate(128.203125 38.965625) scale(0.7)"/>
      </g>
     </g>
    </g>
    <g id="ytick_7">
     <g id="line2d_29"/>
    </g>
    <g id="ytick_8">
     <g id="line2d_30"/>
    </g>
    <g id="ytick_9">
     <g id="line2d_31"/>
    </g>
    <g id="ytick_10">
     <g id="line2d_32"/>
    </g>
    <g id="ytick_11">
     <g id="line2d_33"/>
    </g>
    <g id="ytick_12">
     <g id="line2d_34"/>
    </g>
    <g id="ytick_13">
     <g id="line2d_35"/>
    </g>
    <g id="ytick_14">
     <g id="line2d_36"/>
    </g>
    <g id="ytick_15">
     <g id="line2d_37"/>
    </g>
    <g id="ytick_16">
     <g id="line2d_38"/>
    </g>
    <g id="ytick_17">
     <g id="line2d_39"/>
    </g>
    <g id="ytick_18">
     <g id="line2d_40"/>
    </g>
    <g id="ytick_19">
     <g id="line2d_41"/>
    </g>
    <g id="ytick_20">
     <g id="line2d_42"/>
    </g>
    <g id="ytick_21">
     <g id="line2d_43"/>
    </g>
    <g id="ytick_22">
     <g id="line2d_44"/>
    </g>
    <g id="ytick_23">
     <g id="line2d_45"/>
    </g>
    <g id="ytick_24">
     <g id="line2d_46"/>
    </g>
    <g id="ytick_25">
     <g id="line2d_47"/>
    </g>
    <g id="ytick_26">
     <g id="line2d_48"/>
    </g>
    <g id="ytick_27">
     <g id="line2d_49"/>
    </g>
    <g id="ytick_28">
     <g id="line2d_50"/>
    </g>
    <g id="ytick_29">
     <g id="line2d_51"/>
    </g>
    <g id="ytick_30">
     <g id="line2d_52"/>
    </g>
    <g id="ytick_31">
     <g id="line2d_53"/>
    </g>
    <g id="ytick_32">
     <g id="line2d_54"/>
    </g>
    <g id="ytick_33">
     <g id="line2d_55"/>
    </g>
    <g id="ytick_34">
     <g id="line2d_56"/>
    </g>
    <g id="ytick_35">
     <g id="line2d_57"/>
    </g>
    <g id="ytick_36">
     <g id="line2d_58"/>
    </g>
    <g id="ytick_37">
     <g id="line2d_59"/>
    </g>
    <g id="ytick_38">
     <g id="line2d_60"/>
    </g>
    <g id="ytick_39">
     <g id="line2d_61"/>
    </g>
    <g id="ytick_40">
     <g id="line2d_62"/>
    </g>
    <g id="ytick_41">
     <g id="line2d_63"/>
    </g>
    <g id="ytick_42">
     <g id="line2d_64"/>
    </g>
    <g id="ytick_43">
     <g id="line2d_65"/>
    </g>
    <g id="ytick_44">
     <g id="line2d_66"/>
    </g>
    <g id="ytick_45">
     <g id="line2d_67"/>
    </g>
    <g id="ytick_46">
     <g id="line2d_68"/>
    </g>
    <g id="ytick_47">
     <g id="line2d_69"/>
    </g>
    <g id="ytick_48">
     <g id="line2d_70"/>
    </g>
    <g id="ytick_49">
     <g id="line2d_71"/>
    </g>
    <g id="ytick_50">
     <g id="line2d_72"/>
    </g>
    <g id="ytick_51">
     <g id="line2d_73"/>
    </g>
    <g id="ytick_52">
     <g id="line2d_74"/>
    </g>
    <g id="ytick_53">
     <g id="line2d_75"/>
    </g>
    <g id="ytick_54">
     <g id="line2d_76"/>
    </g>
    <g id="ytick_55">
     <g id="line2d_77"/>
    </g>
   </g>
   <g id="line2d_78">
    <path d="M 75.557818 287.607273 
L 75.557818 283.137997 
L 76.129 283.137997 
L 76.129 278.19371 
L 76.700181 278.19371 
L 76.700181 279.486333 
L 77.271362 279.486333 
L 77.271362 280.86817 
L 77.842544 280.86817 
L 77.842544 280.165337 
L 78.413725 280.165337 
L 78.413725 280.86817 
L 79.556088 280.86817 
L 79.556088 282.352457 
L 80.12727 282.352457 
L 80.12727 284.808022 
L 81.269633 284.808022 
L 81.269633 283.137997 
L 81.840814 283.137997 
L 81.840814 282.352457 
L 82.411995 282.352457 
L 82.411995 283.137997 
L 82.983177 283.137997 
L 82.983177 281.596567 
L 83.554358 281.596567 
L 83.554358 279.486333 
L 84.696721 279.486333 
L 84.696721 278.19371 
L 85.267903 278.19371 
L 85.267903 275.834669 
L 85.839084 275.834669 
L 85.839084 273.724434 
L 86.410265 273.724434 
L 86.410265 274.751772 
L 86.981447 274.751772 
L 86.981447 271.815495 
L 87.552628 271.815495 
L 87.552628 271.365393 
L 88.12381 271.365393 
L 88.12381 257.042345 
L 89.266173 257.042345 
L 89.266173 255.982378 
L 89.837354 255.982378 
L 89.837354 253.83089 
L 90.408535 253.83089 
L 90.408535 254.395116 
L 90.979717 254.395116 
L 90.979717 257.932656 
L 91.550898 257.932656 
L 91.550898 255.37232 
L 92.12208 255.37232 
L 92.12208 255.982378 
L 92.693261 255.982378 
L 92.693261 257.042345 
L 93.264443 257.042345 
L 93.264443 257.932656 
L 93.835624 257.932656 
L 93.835624 257.26124 
L 94.406805 257.26124 
L 94.406805 258.161558 
L 94.977987 258.161558 
L 94.977987 260.093532 
L 95.549168 260.093532 
L 95.549168 257.706341 
L 96.12035 257.706341 
L 96.12035 259.841596 
L 97.262713 259.841596 
L 97.262713 261.134218 
L 97.833894 261.134218 
L 97.833894 260.868934 
L 98.405076 260.868934 
L 98.405076 255.776954 
L 98.976257 255.776954 
L 98.976257 251.720656 
L 99.547438 251.720656 
L 99.547438 248.921405 
L 100.11862 248.921405 
L 100.11862 243.823502 
L 100.689801 243.823502 
L 100.689801 226.917627 
L 101.260983 226.917627 
L 101.260983 229.940664 
L 101.832164 229.940664 
L 101.832164 228.062436 
L 102.403346 228.062436 
L 102.403346 217.729074 
L 102.974527 217.729074 
L 102.974527 212.580386 
L 103.545708 212.580386 
L 103.545708 216.455571 
L 104.11689 216.455571 
L 104.11689 215.640255 
L 104.688071 215.640255 
L 104.688071 212.089863 
L 105.259253 212.089863 
L 105.259253 209.926627 
L 105.830434 209.926627 
L 105.830434 196.34639 
L 106.401616 196.34639 
L 106.401616 185.746445 
L 106.972797 185.746445 
L 106.972797 192.005794 
L 107.543978 192.005794 
L 107.543978 196.536537 
L 108.11516 196.536537 
L 108.11516 200.619497 
L 108.686341 200.619497 
L 108.686341 197.954799 
L 109.257523 197.954799 
L 109.257523 198.218565 
L 109.828704 198.218565 
L 109.828704 200.169105 
L 110.399886 200.169105 
L 110.399886 199.716176 
L 110.971067 199.716176 
L 110.971067 201.040338 
L 111.542249 201.040338 
L 111.542249 202.160926 
L 112.11343 202.160926 
L 112.11343 201.757417 
L 112.684611 201.757417 
L 112.684611 202.615821 
L 113.255793 202.615821 
L 113.255793 202.372872 
L 113.826974 202.372872 
L 113.826974 201.702393 
L 114.398156 201.702393 
L 114.398156 206.455278 
L 114.969337 206.455278 
L 114.969337 209.94735 
L 115.540519 209.94735 
L 115.540519 209.395222 
L 116.1117 209.395222 
L 116.1117 206.700602 
L 116.682881 206.700602 
L 116.682881 206.024537 
L 117.254063 206.024537 
L 117.254063 206.806668 
L 117.825244 206.806668 
L 117.825244 210.324077 
L 118.396426 210.324077 
L 118.396426 212.604047 
L 118.967607 212.604047 
L 118.967607 213.058992 
L 119.538789 213.058992 
L 119.538789 217.097011 
L 120.10997 217.097011 
L 120.10997 218.861295 
L 120.681151 218.861295 
L 120.681151 223.057412 
L 121.252333 223.057412 
L 121.252333 218.893678 
L 121.823514 218.893678 
L 121.823514 221.264877 
L 122.394696 221.264877 
L 122.394696 223.379165 
L 122.965877 223.379165 
L 122.965877 222.898453 
L 123.537059 222.898453 
L 123.537059 223.996748 
L 124.10824 223.996748 
L 124.10824 226.821103 
L 124.679421 226.821103 
L 124.679421 227.556633 
L 125.250603 227.556633 
L 125.250603 236.311847 
L 125.821784 236.311847 
L 125.821784 231.338582 
L 126.392966 231.338582 
L 126.392966 232.711804 
L 126.964147 232.711804 
L 126.964147 230.97985 
L 127.535329 230.97985 
L 127.535329 231.951129 
L 128.10651 231.951129 
L 128.10651 232.138606 
L 128.677692 232.138606 
L 128.677692 232.647299 
L 129.248873 232.647299 
L 129.248873 236.234665 
L 129.820054 236.234665 
L 129.820054 237.424839 
L 130.391236 237.424839 
L 130.391236 237.181079 
L 130.962417 237.181079 
L 130.962417 235.928878 
L 131.533599 235.928878 
L 131.533599 232.455022 
L 132.10478 232.455022 
L 132.10478 232.97192 
L 132.675962 232.97192 
L 132.675962 232.583001 
L 133.247143 232.583001 
L 133.247143 231.703858 
L 133.818324 231.703858 
L 133.818324 231.098715 
L 134.389506 231.098715 
L 134.389506 227.707037 
L 134.960687 227.707037 
L 134.960687 226.39241 
L 135.531869 226.39241 
L 135.531869 225.381573 
L 136.10305 225.381573 
L 136.10305 221.707518 
L 136.674232 221.707518 
L 136.674232 216.227322 
L 137.245413 216.227322 
L 137.245413 216.114165 
L 137.816594 216.114165 
L 137.816594 216.284141 
L 138.387776 216.284141 
L 138.387776 218.287185 
L 138.958957 218.287185 
L 138.958957 217.975205 
L 139.530139 217.975205 
L 139.530139 220.513041 
L 140.10132 220.513041 
L 140.10132 220.689506 
L 140.672502 220.689506 
L 140.672502 219.519112 
L 141.243683 219.519112 
L 141.243683 220.027052 
L 142.386046 220.095761 
L 142.386046 224.206915 
L 142.957227 224.206915 
L 142.957227 225.247601 
L 143.528409 225.247601 
L 143.528409 222.467712 
L 144.09959 222.467712 
L 144.09959 223.217642 
L 144.670772 223.217642 
L 144.670772 223.913295 
L 145.241953 223.913295 
L 145.241953 222.938075 
L 145.813135 222.938075 
L 145.813135 223.217642 
L 146.384316 223.217642 
L 146.384316 221.448123 
L 146.955497 221.448123 
L 146.955497 222.236609 
L 147.526679 222.236609 
L 147.526679 223.913295 
L 148.09786 223.913295 
L 148.09786 224.080551 
L 148.669042 224.080551 
L 148.669042 223.379165 
L 149.811405 223.298241 
L 149.811405 223.954978 
L 150.382586 223.954978 
L 150.382586 223.257901 
L 151.524949 223.177464 
L 151.524949 222.198349 
L 152.09613 222.198349 
L 152.09613 222.390381 
L 152.667312 222.390381 
L 152.667312 222.780056 
L 153.238493 222.780056 
L 153.238493 222.429009 
L 153.809675 222.429009 
L 153.809675 222.740746 
L 154.952037 222.740746 
L 154.952037 222.938075 
L 155.523219 222.938075 
L 155.523219 222.623275 
L 157.236763 222.545342 
L 157.236763 222.429009 
L 157.807945 222.429009 
L 157.807945 222.084008 
L 158.379126 222.084008 
L 158.379126 221.011116 
L 159.521489 220.939199 
L 159.521489 218.604102 
L 160.09267 218.604102 
L 160.09267 217.698519 
L 160.663852 217.698519 
L 160.663852 217.455744 
L 161.235033 217.455744 
L 161.235033 217.637549 
L 161.806215 217.637549 
L 161.806215 217.245703 
L 162.377396 217.245703 
L 162.377396 217.097011 
L 162.948578 217.097011 
L 162.948578 216.455571 
L 163.519759 216.455571 
L 163.519759 214.102908 
L 164.09094 214.102908 
L 164.09094 210.345215 
L 164.662122 210.345215 
L 164.662122 210.218718 
L 165.233303 210.218718 
L 165.233303 211.814865 
L 165.804485 211.814865 
L 165.804485 211.476343 
L 166.375666 211.476343 
L 166.375666 209.015614 
L 166.946848 209.015614 
L 166.946848 206.931125 
L 167.518029 206.931125 
L 167.518029 206.281868 
L 168.08921 206.281868 
L 168.08921 205.108303 
L 168.660392 205.108303 
L 168.660392 201.840237 
L 169.231573 201.840237 
L 169.231573 208.740437 
L 169.802755 208.740437 
L 169.802755 207.363805 
L 170.373936 207.363805 
L 170.373936 207.510134 
L 170.945118 207.510134 
L 170.945118 208.239211 
L 171.516299 208.239211 
L 171.516299 206.859912 
L 172.658662 206.913298 
L 172.658662 205.87171 
L 173.229843 205.87171 
L 173.229843 204.57803 
L 173.801025 204.57803 
L 173.801025 205.140897 
L 174.372206 205.140897 
L 174.372206 204.849447 
L 174.943388 204.849447 
L 174.943388 204.657477 
L 175.514569 204.657477 
L 175.514569 204.045986 
L 176.085751 204.045986 
L 176.085751 205.108303 
L 176.656932 205.108303 
L 176.656932 205.43665 
L 177.228113 205.43665 
L 177.228113 205.636273 
L 177.799295 205.636273 
L 177.799295 205.939489 
L 178.370476 205.939489 
L 178.370476 206.351052 
L 178.941658 206.351052 
L 178.941658 207.473452 
L 179.512839 207.473452 
L 179.512839 207.236638 
L 180.084021 207.236638 
L 180.084021 207.400287 
L 181.226383 207.436836 
L 181.226383 207.218538 
L 181.797565 207.218538 
L 181.797565 205.905571 
L 182.368746 205.905571 
L 182.368746 205.075763 
L 182.939928 205.075763 
L 182.939928 204.593894 
L 184.082291 204.530512 
L 184.082291 203.86153 
L 184.653472 203.86153 
L 184.653472 203.169779 
L 185.224653 203.169779 
L 185.224653 202.803614 
L 185.795835 202.803614 
L 185.795835 203.051876 
L 186.938198 202.949278 
L 186.938198 203.318141 
L 187.509379 203.318141 
L 187.509379 203.022509 
L 188.080561 203.022509 
L 188.080561 203.214173 
L 189.222924 203.184566 
L 189.222924 202.529737 
L 189.794105 202.529737 
L 189.794105 202.076772 
L 190.365286 202.076772 
L 190.365286 200.438123 
L 190.936468 200.438123 
L 190.936468 198.474155 
L 191.507649 198.474155 
L 191.507649 196.8899 
L 192.078831 196.8899 
L 192.078831 195.593226 
L 192.650012 195.593226 
L 192.650012 194.394486 
L 193.221194 194.394486 
L 193.221194 193.895273 
L 193.792375 193.895273 
L 193.792375 191.745077 
L 194.363556 191.745077 
L 194.363556 189.21317 
L 194.934738 189.21317 
L 194.934738 189.375826 
L 195.505919 189.375826 
L 195.505919 186.90656 
L 196.077101 186.90656 
L 196.077101 186.46521 
L 196.648282 186.46521 
L 196.648282 184.597163 
L 197.219464 184.597163 
L 197.219464 180.511647 
L 197.790645 180.511647 
L 197.790645 178.864525 
L 198.361826 178.864525 
L 198.361826 178.318608 
L 198.933008 178.318608 
L 198.933008 176.187869 
L 199.504189 176.187869 
L 199.504189 170.209069 
L 200.075371 170.209069 
L 200.075371 167.911261 
L 200.646552 167.911261 
L 200.646552 164.698205 
L 201.217734 164.698205 
L 201.217734 157.728444 
L 201.788915 157.728444 
L 201.788915 153.314284 
L 202.360096 153.314284 
L 202.360096 158.68349 
L 202.931278 158.68349 
L 202.931278 170.831623 
L 203.502459 170.831623 
L 203.502459 159.666147 
L 204.073641 159.666147 
L 204.073641 156.043135 
L 204.644822 156.043135 
L 204.644822 158.114365 
L 205.216004 158.114365 
L 205.216004 159.992155 
L 205.787185 159.992155 
L 205.787185 160.16753 
L 206.358367 160.16753 
L 206.358367 160.743898 
L 206.929548 160.743898 
L 206.929548 159.823395 
L 207.500729 159.823395 
L 207.500729 158.938472 
L 208.643092 159.039422 
L 208.643092 157.577651 
L 209.785455 157.530665 
L 209.785455 159.085179 
L 210.356637 159.085179 
L 210.356637 159.657728 
L 210.927818 159.657728 
L 210.927818 161.9508 
L 211.498999 161.9508 
L 211.498999 163.140743 
L 212.070181 163.140743 
L 212.070181 161.708753 
L 212.641362 161.708753 
L 212.641362 161.530504 
L 213.212544 161.530504 
L 213.212544 162.351197 
L 213.783725 162.351197 
L 213.783725 163.695241 
L 214.354907 163.695241 
L 214.354907 167.596001 
L 214.926088 167.596001 
L 214.926088 168.504633 
L 215.497269 168.504633 
L 215.497269 164.378152 
L 216.068451 164.378152 
L 216.068451 163.736474 
L 216.639632 163.736474 
L 216.639632 165.383183 
L 217.210814 165.383183 
L 217.210814 164.267648 
L 217.781995 164.267648 
L 217.781995 163.398817 
L 218.353177 163.398817 
L 218.353177 162.232149 
L 218.924358 162.232149 
L 218.924358 161.834102 
L 219.495539 161.834102 
L 219.495539 162.583641 
L 220.066721 162.583641 
L 220.066721 161.3465 
L 220.637902 161.3465 
L 220.637902 163.194904 
L 221.209084 163.194904 
L 221.209084 161.149656 
L 221.780265 161.149656 
L 221.780265 160.639309 
L 222.351447 160.639309 
L 222.351447 159.737009 
L 222.922628 159.737009 
L 222.922628 157.86806 
L 223.49381 157.86806 
L 223.49381 159.888004 
L 224.064991 159.888004 
L 224.064991 159.150729 
L 224.636172 159.150729 
L 224.636172 158.820261 
L 225.207354 158.820261 
L 225.207354 158.330623 
L 225.778535 158.330623 
L 225.778535 159.001913 
L 226.349717 159.001913 
L 226.349717 158.72362 
L 226.920898 158.72362 
L 226.920898 158.468169 
L 227.49208 158.468169 
L 227.49208 159.163865 
L 228.063261 159.163865 
L 228.063261 158.808962 
L 228.634442 158.808962 
L 228.634442 158.256707 
L 229.205624 158.256707 
L 229.205624 156.658265 
L 229.776805 156.658265 
L 229.776805 150.694477 
L 230.347987 150.694477 
L 230.347987 149.727115 
L 230.919168 149.727115 
L 230.919168 148.57456 
L 231.49035 148.57456 
L 231.49035 148.955699 
L 232.061531 148.955699 
L 232.061531 144.578193 
L 232.632712 144.578193 
L 232.632712 139.224019 
L 233.203894 139.224019 
L 233.203894 135.724665 
L 233.775075 135.724665 
L 233.775075 131.929122 
L 234.346257 131.929122 
L 234.346257 123.688509 
L 234.917438 123.688509 
L 234.917438 121.126976 
L 235.48862 121.126976 
L 235.48862 114.501195 
L 236.059801 114.501195 
L 236.059801 116.037736 
L 236.630983 116.037736 
L 236.630983 123.994292 
L 237.202164 123.994292 
L 237.202164 119.650419 
L 237.773345 119.650419 
L 237.773345 119.97045 
L 238.344527 119.97045 
L 238.344527 124.587763 
L 238.915708 124.587763 
L 238.915708 125.341484 
L 239.48689 125.341484 
L 239.48689 123.488046 
L 240.058071 123.488046 
L 240.058071 123.267395 
L 240.629253 123.267395 
L 240.629253 120.781313 
L 241.200434 120.781313 
L 241.200434 120.913218 
L 241.771615 120.913218 
L 241.771615 120.41492 
L 242.342797 120.41492 
L 242.342797 121.063393 
L 242.913978 121.063393 
L 242.913978 120.803802 
L 243.48516 120.803802 
L 243.48516 121.99479 
L 244.056341 121.99479 
L 244.056341 121.852022 
L 244.627523 121.852022 
L 244.627523 121.065109 
L 245.198704 121.065109 
L 245.198704 121.969642 
L 245.769885 121.969642 
L 245.769885 124.527356 
L 246.341067 124.527356 
L 246.341067 126.919059 
L 246.912248 126.919059 
L 246.912248 126.274188 
L 247.48343 126.274188 
L 247.48343 127.946397 
L 248.054611 127.946397 
L 248.054611 128.649132 
L 248.625793 128.649132 
L 248.625793 128.366202 
L 249.196974 128.366202 
L 249.196974 125.019077 
L 249.768155 125.019077 
L 249.768155 125.960627 
L 250.910518 125.925914 
L 250.910518 126.441804 
L 251.4817 126.441804 
L 251.4817 128.176165 
L 252.052881 128.176165 
L 252.052881 127.730173 
L 252.624063 127.730173 
L 252.624063 131.306418 
L 253.195244 131.306418 
L 253.195244 133.502218 
L 253.766426 133.502218 
L 253.766426 132.65908 
L 254.337607 132.65908 
L 254.337607 136.986733 
L 254.908788 136.986733 
L 254.908788 132.58749 
L 255.47997 132.58749 
L 255.47997 131.631546 
L 256.051151 131.631546 
L 256.051151 131.367004 
L 256.622333 131.367004 
L 256.622333 132.507473 
L 257.193514 132.507473 
L 257.193514 132.92187 
L 257.764696 132.92187 
L 257.764696 133.610609 
L 258.907058 133.571209 
L 258.907058 133.350906 
L 259.47824 133.350906 
L 259.47824 133.051224 
L 260.049421 133.051224 
L 260.049421 131.38341 
L 260.620603 131.38341 
L 260.620603 129.81387 
L 261.191784 129.81387 
L 261.191784 127.894621 
L 261.762966 127.894621 
L 261.762966 126.250357 
L 262.334147 126.250357 
L 262.334147 125.296318 
L 262.905328 125.296318 
L 262.905328 125.68367 
L 263.47651 125.68367 
L 263.47651 127.534196 
L 264.047691 127.534196 
L 264.047691 126.984835 
L 264.618873 126.984835 
L 264.618873 127.554182 
L 265.190054 127.554182 
L 265.190054 128.604794 
L 265.761236 128.604794 
L 265.761236 127.250453 
L 266.332417 127.250453 
L 266.332417 125.790765 
L 266.903599 125.790765 
L 266.903599 126.453349 
L 267.47478 126.453349 
L 267.47478 126.146152 
L 268.045961 126.146152 
L 268.045961 126.462333 
L 268.617143 126.462333 
L 268.617143 126.272916 
L 269.188324 126.272916 
L 269.188324 126.579496 
L 269.759506 126.579496 
L 269.759506 127.462208 
L 270.330687 127.462208 
L 270.330687 127.858802 
L 270.901869 127.858802 
L 270.901869 127.63773 
L 272.044231 127.6214 
L 272.044231 128.312275 
L 272.615413 128.312275 
L 272.615413 129.967354 
L 273.186594 129.967354 
L 273.186594 130.161745 
L 273.757776 130.161745 
L 273.757776 130.582678 
L 274.900139 130.638739 
L 274.900139 131.871859 
L 275.47132 131.871859 
L 275.47132 131.474298 
L 276.042501 131.474298 
L 276.042501 131.998816 
L 276.613683 131.998816 
L 276.613683 131.848327 
L 277.184864 131.848327 
L 277.184864 132.839184 
L 277.756046 132.839184 
L 277.756046 135.31356 
L 278.327227 135.31356 
L 278.327227 134.867219 
L 278.898409 134.867219 
L 278.898409 136.724127 
L 279.46959 136.724127 
L 279.46959 137.542587 
L 280.040771 137.542587 
L 280.040771 138.979109 
L 280.611953 138.979109 
L 280.611953 137.373098 
L 281.183134 137.373098 
L 281.183134 135.631111 
L 281.754316 135.631111 
L 281.754316 135.906922 
L 282.325497 135.906922 
L 282.325497 137.637682 
L 282.896679 137.637682 
L 282.896679 137.994084 
L 283.46786 137.994084 
L 283.46786 138.756714 
L 284.039042 138.756714 
L 284.039042 139.210064 
L 284.610223 139.210064 
L 284.610223 138.221398 
L 285.181404 138.221398 
L 285.181404 134.384797 
L 285.752586 134.384797 
L 285.752586 135.88482 
L 286.323767 135.88482 
L 286.323767 137.678656 
L 286.894949 137.678656 
L 286.894949 136.686127 
L 287.46613 136.686127 
L 287.46613 136.558209 
L 288.037312 136.558209 
L 288.037312 136.418436 
L 288.608493 136.418436 
L 288.608493 136.661012 
L 289.179674 136.661012 
L 289.179674 138.114882 
L 289.750856 138.114882 
L 289.750856 137.604067 
L 290.322037 137.604067 
L 290.322037 140.330735 
L 290.893219 140.330735 
L 290.893219 139.104206 
L 291.4644 139.104206 
L 291.4644 139.227661 
L 292.035582 139.227661 
L 292.035582 140.411716 
L 292.606763 140.411716 
L 292.606763 142.153972 
L 293.177944 142.153972 
L 293.177944 141.267602 
L 293.749126 141.267602 
L 293.749126 143.266944 
L 294.320307 143.266944 
L 294.320307 148.256676 
L 294.891489 148.256676 
L 294.891489 147.711541 
L 295.46267 147.711541 
L 295.46267 146.134154 
L 296.033852 146.134154 
L 296.033852 143.729744 
L 296.605033 143.729744 
L 296.605033 147.413355 
L 297.176214 147.413355 
L 297.176214 146.743214 
L 297.747396 146.743214 
L 297.747396 146.990332 
L 298.318577 146.990332 
L 298.318577 147.133952 
L 298.889759 147.133952 
L 298.889759 146.066566 
L 299.46094 146.066566 
L 299.46094 145.125593 
L 300.032122 145.125593 
L 300.032122 145.607242 
L 300.603303 145.607242 
L 300.603303 144.506165 
L 301.174485 144.506165 
L 301.174485 143.238742 
L 301.745666 143.238742 
L 301.745666 142.875683 
L 302.316847 142.875683 
L 302.316847 141.476374 
L 302.888029 141.476374 
L 302.888029 141.861751 
L 303.45921 141.861751 
L 303.45921 143.837962 
L 304.030392 143.837962 
L 304.030392 145.189256 
L 304.601573 145.189256 
L 304.601573 144.548875 
L 305.172755 144.548875 
L 305.172755 145.067818 
L 305.743936 145.067818 
L 305.743936 143.959065 
L 306.315117 143.959065 
L 306.315117 145.353427 
L 306.886299 145.353427 
L 306.886299 147.072788 
L 308.028662 147.106045 
L 308.028662 145.951593 
L 308.599843 145.951593 
L 308.599843 146.780354 
L 309.742206 146.839743 
L 309.742206 145.646513 
L 310.313387 145.646513 
L 310.313387 145.840654 
L 310.884569 145.840654 
L 310.884569 145.52311 
L 311.45575 145.52311 
L 311.45575 145.822927 
L 312.026932 145.822927 
L 312.026932 146.333104 
L 312.598113 146.333104 
L 312.598113 145.790046 
L 313.169295 145.790046 
L 313.169295 145.997503 
L 313.740476 145.997503 
L 313.740476 146.599727 
L 314.311658 146.599727 
L 314.311658 147.084466 
L 314.882839 147.084466 
L 314.882839 146.659462 
L 315.45402 146.659462 
L 315.45402 146.489511 
L 316.025202 146.489511 
L 316.025202 144.786225 
L 316.596383 144.786225 
L 316.596383 145.209704 
L 317.167565 145.209704 
L 317.167565 145.58555 
L 317.738746 145.58555 
L 317.738746 144.899515 
L 318.309928 144.899515 
L 318.309928 144.413151 
L 318.881109 144.413151 
L 318.881109 143.352536 
L 319.45229 143.352536 
L 319.45229 142.165919 
L 320.023472 142.165919 
L 320.023472 141.956134 
L 320.594653 141.956134 
L 320.594653 142.749355 
L 321.737016 142.660533 
L 321.737016 141.618141 
L 322.308198 141.618141 
L 322.308198 141.919299 
L 322.879379 141.919299 
L 322.879379 142.434841 
L 323.45056 142.434841 
L 323.45056 142.563496 
L 324.021742 142.563496 
L 324.021742 143.170627 
L 324.592923 143.170627 
L 324.592923 143.889226 
L 325.164105 143.889226 
L 325.164105 146.783894 
L 325.735286 146.783894 
L 325.735286 146.617278 
L 326.306468 146.617278 
L 326.306468 146.885067 
L 326.877649 146.885067 
L 326.877649 146.432889 
L 328.020012 146.391179 
L 328.020012 145.253943 
L 328.591193 145.253943 
L 328.591193 146.046931 
L 329.162375 146.046931 
L 329.162375 146.600604 
L 329.733556 146.600604 
L 329.733556 146.44072 
L 330.304738 146.44072 
L 330.304738 146.109317 
L 330.875919 146.109317 
L 330.875919 145.674132 
L 331.447101 145.674132 
L 331.447101 145.789204 
L 332.018282 145.789204 
L 332.018282 145.042645 
L 333.160645 145.130483 
L 333.160645 144.58771 
L 333.731826 144.58771 
L 333.731826 143.919127 
L 334.303008 143.919127 
L 334.303008 142.92308 
L 334.874189 142.92308 
L 334.874189 142.04188 
L 335.445371 142.04188 
L 335.445371 139.335396 
L 336.016552 139.335396 
L 336.016552 135.146995 
L 336.587733 135.146995 
L 336.587733 136.03177 
L 337.158915 136.03177 
L 337.158915 140.54223 
L 337.730096 140.54223 
L 337.730096 139.904907 
L 338.301278 139.904907 
L 338.301278 139.474419 
L 338.872459 139.474419 
L 338.872459 139.623699 
L 339.443641 139.623699 
L 339.443641 137.592875 
L 340.014822 137.592875 
L 340.014822 137.338267 
L 340.586003 137.338267 
L 340.586003 136.035393 
L 341.157185 136.035393 
L 341.157185 134.561942 
L 341.728366 134.561942 
L 341.728366 133.765289 
L 342.299548 133.765289 
L 342.299548 132.721275 
L 342.870729 132.721275 
L 342.870729 133.537369 
L 343.441911 133.537369 
L 343.441911 132.768707 
L 344.013092 132.768707 
L 344.013092 133.772685 
L 345.155455 133.794425 
L 345.155455 133.957068 
L 345.726636 133.957068 
L 345.726636 133.082018 
L 346.297818 133.082018 
L 346.297818 133.943542 
L 346.868999 133.943542 
L 346.868999 136.111106 
L 347.440181 136.111106 
L 347.440181 136.319493 
L 348.011362 136.319493 
L 348.011362 135.793073 
L 348.582544 135.793073 
L 348.582544 136.578408 
L 349.153725 136.578408 
L 349.153725 137.016065 
L 349.724906 137.016065 
L 349.724906 136.663682 
L 350.296088 136.663682 
L 350.296088 136.503031 
L 350.867269 136.503031 
L 350.867269 135.410655 
L 351.438451 135.410655 
L 351.438451 134.39481 
L 352.580814 134.429653 
L 352.580814 133.848648 
L 353.151995 133.848648 
L 353.151995 134.274991 
L 353.723176 134.274991 
L 353.723176 135.088159 
L 354.294358 135.088159 
L 354.294358 134.58552 
L 355.436721 134.634206 
L 355.436721 134.976402 
L 356.007902 134.976402 
L 356.007902 134.566752 
L 357.150265 134.539353 
L 357.150265 134.694626 
L 357.721446 134.694626 
L 357.721446 134.465036 
L 358.863809 134.39624 
L 358.863809 134.268829 
L 359.434991 134.268829 
L 359.434991 133.948205 
L 360.006172 133.948205 
L 360.006172 133.647329 
L 360.577354 133.647329 
L 360.577354 132.926744 
L 361.148535 132.926744 
L 361.148535 133.222757 
L 361.719717 133.222757 
L 361.719717 132.878937 
L 362.290898 132.878937 
L 362.290898 133.040078 
L 362.862079 133.040078 
L 362.862079 132.543093 
L 363.433261 132.543093 
L 363.433261 132.754641 
L 364.004442 132.754641 
L 364.004442 132.8754 
L 364.575624 132.8754 
L 364.575624 133.316532 
L 365.146805 133.316532 
L 365.146805 133.069963 
L 365.717987 133.069963 
L 365.717987 130.454174 
L 366.289168 130.454174 
L 366.289168 129.434672 
L 366.860349 129.434672 
L 366.860349 127.801074 
L 367.431531 127.801074 
L 367.431531 128.00004 
L 368.002712 128.00004 
L 368.002712 124.590979 
L 368.573894 124.590979 
L 368.573894 122.72857 
L 369.145075 122.72857 
L 369.145075 127.49158 
L 369.716257 127.49158 
L 369.716257 126.266876 
L 370.287438 126.266876 
L 370.287438 125.101367 
L 370.858619 125.101367 
L 370.858619 124.68503 
L 371.429801 124.68503 
L 371.429801 125.250347 
L 373.143345 125.301163 
L 373.143345 125.114865 
L 373.714527 125.114865 
L 373.714527 125.296318 
L 374.285708 125.296318 
L 374.285708 125.476985 
L 374.856889 125.476985 
L 374.856889 127.065375 
L 375.428071 127.065375 
L 375.428071 128.18211 
L 375.999252 128.18211 
L 375.999252 127.757887 
L 377.141615 127.814117 
L 377.141615 128.245157 
L 377.712797 128.245157 
L 377.712797 128.02466 
L 378.85516 128.076426 
L 378.85516 128.22482 
L 379.997522 128.207305 
L 379.997522 126.979565 
L 380.568704 126.979565 
L 380.568704 126.540151 
L 381.139885 126.540151 
L 381.139885 126.952249 
L 382.282248 127.007578 
L 382.282248 127.448718 
L 382.85343 127.448718 
L 382.85343 127.024734 
L 384.566974 127.011866 
L 384.566974 126.773153 
L 385.138155 126.773153 
L 385.138155 126.10954 
L 385.709337 126.10954 
L 385.709337 125.989756 
L 386.280518 125.989756 
L 386.280518 126.308236 
L 386.8517 126.308236 
L 386.8517 125.834884 
L 387.422881 125.834884 
L 387.422881 124.569943 
L 387.994062 124.569943 
L 387.994062 123.415695 
L 388.565244 123.415695 
L 388.565244 124.063357 
L 389.136425 124.063357 
L 389.136425 123.556772 
L 389.707607 123.556772 
L 389.707607 124.151812 
L 390.278788 124.151812 
L 390.278788 123.135401 
L 391.992333 123.12915 
L 391.992333 123.321644 
L 392.563514 123.321644 
L 392.563514 122.437442 
L 393.705877 122.345512 
L 393.705877 122.300878 
L 394.277058 122.300878 
L 394.277058 122.101377 
L 394.84824 122.101377 
L 394.84824 121.714061 
L 395.419421 121.714061 
L 395.419421 118.821554 
L 395.990603 118.821554 
L 395.990603 118.465121 
L 396.561784 118.465121 
L 396.561784 117.735832 
L 397.132965 117.735832 
L 397.132965 114.943912 
L 397.704147 114.943912 
L 397.704147 118.897084 
L 398.275328 118.897084 
L 398.275328 121.350498 
L 398.84651 121.350498 
L 398.84651 120.737376 
L 399.417691 120.737376 
L 399.417691 119.226443 
L 399.988873 119.226443 
L 399.988873 119.49774 
L 400.560054 119.49774 
L 400.560054 118.719036 
L 401.131235 118.719036 
L 401.131235 117.353805 
L 401.702417 117.353805 
L 401.702417 116.798248 
L 402.273598 116.798248 
L 402.273598 117.31474 
L 402.84478 117.31474 
L 402.84478 116.994925 
L 403.415961 116.994925 
L 403.415961 115.955138 
L 403.987143 115.955138 
L 403.987143 114.659904 
L 404.558324 114.659904 
L 404.558324 114.213252 
L 405.129505 114.213252 
L 405.129505 112.95463 
L 405.700687 112.95463 
L 405.700687 112.215352 
L 406.271868 112.215352 
L 406.271868 113.499741 
L 406.84305 113.499741 
L 406.84305 112.698917 
L 407.414231 112.698917 
L 407.414231 115.695677 
L 407.985413 115.695677 
L 407.985413 114.874691 
L 408.556594 114.874691 
L 408.556594 117.79883 
L 409.127776 117.79883 
L 409.127776 116.237835 
L 409.698957 116.237835 
L 409.698957 115.477701 
L 410.270138 115.477701 
L 410.270138 113.472205 
L 410.84132 113.472205 
L 410.84132 113.201232 
L 411.412501 113.201232 
L 411.412501 113.868202 
L 411.983683 113.868202 
L 411.983683 113.347262 
L 412.554864 113.347262 
L 412.554864 112.820031 
L 413.126046 112.820031 
L 413.126046 111.949557 
L 413.697227 111.949557 
L 413.697227 110.937153 
L 414.268408 110.937153 
L 414.268408 108.406962 
L 414.83959 108.406962 
L 414.83959 106.975718 
L 415.410771 106.975718 
L 415.410771 106.475211 
L 415.981953 106.475211 
L 415.981953 106.285513 
L 416.553134 106.285513 
L 416.553134 103.047775 
L 417.124316 103.047775 
L 417.124316 99.3059 
L 417.695497 99.3059 
L 417.695497 101.434165 
L 418.266678 101.434165 
L 418.266678 99.401745 
L 418.83786 99.401745 
L 418.83786 97.13193 
L 419.409041 97.13193 
L 419.409041 96.217978 
L 419.980223 96.217978 
L 419.980223 97.080942 
L 420.551404 97.080942 
L 420.551404 97.653341 
L 421.122586 97.653341 
L 421.122586 97.434209 
L 421.693767 97.434209 
L 421.693767 98.650574 
L 422.264948 98.650574 
L 422.264948 98.335587 
L 423.407311 98.27076 
L 423.407311 98.643931 
L 423.978493 98.643931 
L 423.978493 100.241902 
L 424.549674 100.241902 
L 424.549674 103.415545 
L 425.120856 103.415545 
L 425.120856 100.642127 
L 425.692037 100.642127 
L 425.692037 96.76984 
L 426.263219 96.76984 
L 426.263219 97.450487 
L 426.8344 97.450487 
L 426.8344 95.952053 
L 427.976763 95.996737 
L 427.976763 92.456833 
L 428.547944 92.456833 
L 428.547944 89.922675 
L 429.119126 89.922675 
L 429.119126 87.454791 
L 429.690307 87.454791 
L 429.690307 88.981725 
L 430.261489 88.981725 
L 430.261489 87.657344 
L 430.83267 87.657344 
L 430.83267 87.450855 
L 431.403851 87.450855 
L 431.403851 85.15428 
L 431.975033 85.15428 
L 431.975033 87.412634 
L 432.546214 87.412634 
L 432.546214 87.661505 
L 433.117396 87.661505 
L 433.117396 89.939767 
L 433.688577 89.939767 
L 433.688577 90.931296 
L 434.259759 90.931296 
L 434.259759 91.358385 
L 434.83094 91.358385 
L 434.83094 89.596785 
L 435.402121 89.596785 
L 435.402121 88.44718 
L 435.973303 88.44718 
L 435.973303 87.766017 
L 436.544484 87.766017 
L 436.544484 87.165508 
L 437.115666 87.165508 
L 437.115666 85.509309 
L 437.686847 85.509309 
L 437.686847 82.188887 
L 438.82921 82.169648 
L 438.82921 81.46695 
L 439.400392 81.46695 
L 439.400392 81.91558 
L 439.971573 81.91558 
L 439.971573 79.789478 
L 440.542754 79.789478 
L 440.542754 77.024161 
L 441.113936 77.024161 
L 441.113936 76.747511 
L 441.685117 76.747511 
L 441.685117 81.502657 
L 442.256299 81.502657 
L 442.256299 75.7017 
L 442.82748 75.7017 
L 442.82748 74.771576 
L 443.969843 74.844677 
L 443.969843 71.064047 
L 444.541024 71.064047 
L 444.541024 69.151492 
L 445.112206 69.151492 
L 445.112206 64.386582 
L 445.683387 64.386582 
L 445.683387 62.688359 
L 446.254569 62.688359 
L 446.254569 60.983079 
L 446.82575 60.983079 
L 446.82575 58.138856 
L 447.396932 58.138856 
L 447.396932 64.484215 
L 447.968113 64.484215 
L 447.968113 61.894793 
L 448.539294 61.894793 
L 448.539294 66.252362 
L 449.110476 66.252362 
L 449.110476 62.727887 
L 449.681657 62.727887 
L 449.681657 61.247552 
L 450.252839 61.247552 
L 450.252839 65.211162 
L 450.82402 65.211162 
L 450.82402 64.810286 
L 451.395202 64.810286 
L 451.395202 68.090569 
L 451.966383 68.090569 
L 451.966383 69.30141 
L 452.537564 69.30141 
L 452.537564 68.221789 
L 453.108746 68.221789 
L 453.108746 70.49668 
L 453.679927 70.49668 
L 453.679927 74.870838 
L 454.82229 74.766061 
L 454.82229 73.244809 
L 455.393472 73.244809 
L 455.393472 70.546677 
L 455.964653 70.546677 
L 455.964653 68.549271 
L 456.535835 68.549271 
L 456.535835 71.511708 
L 457.107016 71.511708 
L 457.107016 70.246729 
L 457.678197 70.246729 
L 457.678197 68.072613 
L 458.249379 68.072613 
L 458.249379 72.301956 
L 458.82056 72.301956 
L 458.82056 72.724154 
L 459.391742 72.724154 
L 459.391742 74.638186 
L 459.962923 74.638186 
L 459.962923 73.212796 
L 460.534105 73.212796 
L 460.534105 74.076805 
L 461.105286 74.076805 
L 461.105286 75.494465 
L 461.676467 75.494465 
L 461.676467 78.54452 
L 462.247649 78.54452 
L 462.247649 78.664803 
L 463.390012 78.671444 
L 463.390012 75.634412 
L 464.532375 75.604146 
L 464.532375 73.16643 
L 465.103556 73.16643 
L 465.103556 73.302485 
L 465.674737 73.302485 
L 465.674737 72.143847 
L 466.245919 72.143847 
L 466.245919 71.401356 
L 466.8171 71.401356 
L 466.8171 72.206257 
L 467.388282 72.206257 
L 467.388282 74.400786 
L 467.959463 74.400786 
L 467.959463 74.224505 
L 468.530645 74.224505 
L 468.530645 74.773374 
L 469.101826 74.773374 
L 469.101826 76.631272 
L 469.673008 76.631272 
L 469.673008 77.082516 
L 470.244189 77.082516 
L 470.244189 76.690684 
L 471.386552 76.675153 
L 471.386552 76.356856 
L 471.957733 76.356856 
L 471.957733 79.366528 
L 472.528915 79.366528 
L 472.528915 79.564088 
L 473.100096 79.564088 
L 473.100096 78.741178 
L 473.671278 78.741178 
L 473.671278 80.614853 
L 474.242459 80.614853 
L 474.242459 81.543299 
L 474.81364 81.543299 
L 474.81364 79.143313 
L 475.956003 79.136816 
L 475.956003 80.062286 
L 476.527185 80.062286 
L 476.527185 80.318434 
L 477.098366 80.318434 
L 477.098366 77.010244 
L 478.240729 76.91388 
L 478.240729 75.52169 
L 478.81191 75.52169 
L 478.81191 74.945626 
L 479.383092 74.945626 
L 479.383092 76.891962 
L 479.954273 76.891962 
L 479.954273 78.867778 
L 480.525455 78.867778 
L 480.525455 80.385824 
L 481.096636 80.385824 
L 481.096636 80.248587 
L 481.667818 80.248587 
L 481.667818 79.570571 
L 482.238999 79.570571 
L 482.238999 79.449344 
L 482.81018 79.449344 
L 482.81018 78.329421 
L 483.381362 78.329421 
L 483.381362 77.991228 
L 483.952543 77.991228 
L 483.952543 77.042659 
L 484.523725 77.042659 
L 484.523725 80.52715 
L 485.094906 80.52715 
L 485.094906 80.07251 
L 485.666088 80.07251 
L 485.666088 79.537282 
L 486.808451 79.541444 
L 486.808451 79.273675 
L 487.379632 79.273675 
L 487.379632 79.136604 
L 487.950813 79.136604 
L 487.950813 79.463621 
L 488.521995 79.463621 
L 488.521995 79.303603 
L 489.664358 79.280917 
L 489.664358 80.266194 
L 490.235539 80.266194 
L 490.235539 79.499587 
L 491.377902 79.548012 
L 491.377902 79.615114 
L 491.949083 79.615114 
L 491.949083 80.150007 
L 492.520265 80.150007 
L 492.520265 79.961184 
L 493.091446 79.961184 
L 493.091446 79.416011 
L 493.662628 79.416011 
L 493.662628 79.813029 
L 494.233809 79.813029 
L 494.233809 82.305209 
L 494.804991 82.305209 
L 494.804991 85.39909 
L 495.376172 85.39909 
L 495.376172 87.559515 
L 495.947353 87.559515 
L 495.947353 90.131213 
L 496.518535 90.131213 
L 496.518535 88.332941 
L 497.089716 88.332941 
L 497.089716 90.572721 
L 497.660898 90.572721 
L 497.660898 91.42792 
L 498.232079 91.42792 
L 498.232079 93.057066 
L 498.803261 93.057066 
L 498.803261 91.606765 
L 499.374442 91.606765 
L 499.374442 89.761224 
L 499.945623 89.761224 
L 499.945623 90.1675 
L 500.516805 90.1675 
L 500.516805 90.437443 
L 501.087986 90.437443 
L 501.087986 89.600198 
L 501.659168 89.600198 
L 501.659168 88.897089 
L 502.230349 88.897089 
L 502.230349 91.107828 
L 502.801531 91.107828 
L 502.801531 90.9098 
L 503.372712 90.9098 
L 503.372712 91.220862 
L 503.943894 91.220862 
L 503.943894 91.434005 
L 505.086256 91.495794 
L 505.086256 92.100143 
L 506.228619 92.180998 
L 506.228619 92.539203 
L 506.799801 92.539203 
L 506.799801 91.200213 
L 507.370982 91.200213 
L 507.370982 91.317933 
L 507.942164 91.317933 
L 507.942164 89.624566 
L 508.513345 89.624566 
L 508.513345 88.566187 
L 509.084526 88.566187 
L 509.084526 90.106222 
L 510.226889 90.203906 
L 510.226889 89.828152 
L 511.369252 89.857701 
L 511.369252 89.573775 
L 511.940434 89.573775 
L 511.940434 89.108037 
L 513.653978 89.011831 
L 513.653978 88.689654 
L 514.225159 88.689654 
L 514.225159 85.142736 
L 514.796341 85.142736 
L 514.796341 83.735537 
L 515.367522 83.735537 
L 515.367522 84.49428 
L 515.938704 84.49428 
L 515.938704 84.01136 
L 516.509885 84.01136 
L 516.509885 83.581903 
L 517.081067 83.581903 
L 517.081067 83.116151 
L 517.652248 83.116151 
L 517.652248 83.612067 
L 518.223429 83.612067 
L 518.223429 83.279093 
L 518.794611 83.279093 
L 518.794611 82.21431 
L 519.365792 82.21431 
L 519.365792 80.00304 
L 519.936974 80.00304 
L 519.936974 75.388739 
L 520.508155 75.388739 
L 520.508155 77.300523 
L 521.079337 77.300523 
L 521.079337 76.329549 
L 521.650518 76.329549 
L 521.650518 73.588391 
L 522.221699 73.588391 
L 522.221699 74.699661 
L 522.792881 74.699661 
L 522.792881 75.035462 
L 523.364062 75.035462 
L 523.364062 75.374711 
L 523.935244 75.374711 
L 523.935244 75.577846 
L 524.506425 75.577846 
L 524.506425 73.326593 
L 525.077607 73.326593 
L 525.077607 72.394101 
L 525.648788 72.394101 
L 525.648788 69.332889 
L 526.219969 69.332889 
L 526.219969 68.751771 
L 526.791151 68.751771 
L 526.791151 69.774352 
L 527.362332 69.774352 
L 527.362332 69.074026 
L 527.933514 69.074026 
L 527.933514 66.293311 
L 528.504695 66.293311 
L 528.504695 68.295987 
L 529.075877 68.295987 
L 529.075877 71.56439 
L 529.647058 71.56439 
L 529.647058 69.757906 
L 530.218239 69.757906 
L 530.218239 71.152746 
L 530.789421 71.152746 
L 530.789421 71.925688 
L 531.360602 71.925688 
L 531.360602 69.867663 
L 531.931784 69.867663 
L 531.931784 68.161783 
L 532.502965 68.161783 
L 532.502965 68.484832 
L 533.074147 68.484832 
L 533.074147 70.867214 
L 533.645328 70.867214 
L 533.645328 70.274935 
L 534.21651 70.274935 
L 534.21651 70.678119 
L 534.787691 70.678119 
L 534.787691 70.192254 
L 535.358872 70.192254 
L 535.358872 71.764738 
L 535.930054 71.764738 
L 535.930054 69.693916 
L 536.501235 69.693916 
L 536.501235 69.948362 
L 537.072417 69.948362 
L 537.072417 70.584572 
L 537.643598 70.584572 
L 537.643598 70.288858 
L 538.785961 70.356086 
L 538.785961 71.545559 
L 539.357142 71.545559 
L 539.357142 74.890773 
L 539.928324 74.890773 
L 539.928324 74.577861 
L 540.499505 74.577861 
L 540.499505 75.004046 
L 541.070687 75.004046 
L 541.070687 73.950094 
L 541.641868 73.950094 
L 541.641868 74.67232 
L 542.21305 74.67232 
L 542.21305 75.179121 
L 542.784231 75.179121 
L 542.784231 74.820938 
L 543.355412 74.820938 
L 543.355412 73.766993 
L 543.926594 73.766993 
L 543.926594 72.069504 
L 544.497775 72.069504 
L 544.497775 72.352109 
L 545.640138 72.261529 
L 545.640138 72.928951 
L 546.21132 72.928951 
L 546.21132 73.846811 
L 546.782501 73.846811 
L 546.782501 74.9346 
L 547.353683 74.9346 
L 547.353683 77.241888 
L 547.924864 77.241888 
L 547.924864 77.582093 
L 548.496045 77.582093 
L 548.496045 76.509502 
L 549.067227 76.509502 
L 549.067227 77.500563 
L 549.638408 77.500563 
L 549.638408 76.603349 
L 550.20959 76.603349 
L 550.20959 77.510841 
L 550.780771 77.510841 
L 550.780771 78.392555 
L 551.351953 78.392555 
L 551.351953 77.508027 
L 551.923134 77.508027 
L 551.923134 77.34015 
L 552.494315 77.34015 
L 552.494315 77.201466 
L 553.065497 77.201466 
L 553.065497 77.548431 
L 553.636678 77.548431 
L 553.636678 77.063409 
L 554.20786 77.063409 
L 554.20786 75.83155 
L 554.779041 75.83155 
L 554.779041 75.10867 
L 555.350223 75.10867 
L 555.350223 73.23441 
L 555.921404 73.23441 
L 555.921404 73.639212 
L 556.492585 73.639212 
L 556.492585 74.56718 
L 557.063767 74.56718 
L 557.063767 72.398179 
L 558.20613 72.323318 
L 558.20613 71.396613 
L 558.777311 71.396613 
L 558.777311 71.194123 
L 559.348493 71.194123 
L 559.348493 70.176312 
L 559.919674 70.176312 
L 559.919674 70.542565 
L 560.490855 70.542565 
L 560.490855 71.574019 
L 561.062037 71.574019 
L 561.062037 73.494474 
L 561.633218 73.494474 
L 561.633218 74.075843 
L 562.2044 74.075843 
L 562.2044 72.861976 
L 562.775581 72.861976 
L 562.775581 75.541553 
L 563.346763 75.541553 
L 563.346763 82.481896 
L 563.917944 82.481896 
L 563.917944 83.400408 
L 564.489126 83.400408 
L 564.489126 80.508406 
L 565.060307 80.508406 
L 565.060307 78.926804 
L 565.631488 78.926804 
L 565.631488 81.518543 
L 566.20267 81.518543 
L 566.20267 78.598658 
L 566.773851 78.598658 
L 566.773851 77.086225 
L 567.345033 77.086225 
L 567.345033 78.410905 
L 568.487396 78.414665 
L 568.487396 77.316215 
L 569.058577 77.316215 
L 569.058577 77.673559 
L 569.629758 77.673559 
L 569.629758 76.13785 
L 570.20094 76.13785 
L 570.20094 73.855049 
L 570.772121 73.855049 
L 570.772121 73.266863 
L 571.343303 73.266863 
L 571.343303 71.261284 
L 571.914484 71.261284 
L 571.914484 73.428447 
L 572.485666 73.428447 
L 572.485666 72.17093 
L 573.056847 72.17093 
L 573.056847 71.906009 
L 573.628028 71.906009 
L 573.628028 73.619772 
L 574.19921 73.619772 
L 574.19921 71.783106 
L 574.770391 71.783106 
L 574.770391 70.496229 
L 575.341573 70.496229 
L 575.341573 71.669276 
L 575.912754 71.669276 
L 575.912754 71.356639 
L 576.483936 71.356639 
L 576.483936 71.984439 
L 577.626298 72.023993 
L 577.626298 72.387456 
L 578.768661 72.482444 
L 578.768661 72.603098 
L 579.339843 72.603098 
L 579.339843 72.850869 
L 579.911024 72.850869 
L 579.911024 72.449137 
L 581.053387 72.493046 
L 581.053387 72.585313 
L 582.19575 72.539289 
L 582.19575 71.691432 
L 582.766931 71.691432 
L 582.766931 68.915161 
L 583.338113 68.915161 
L 583.338113 68.375669 
L 583.909294 68.375669 
L 583.909294 68.641612 
L 584.480476 68.641612 
L 584.480476 67.641184 
L 585.051657 67.641184 
L 585.051657 67.974976 
L 585.622839 67.974976 
L 585.622839 67.393529 
L 586.765201 67.474705 
L 586.765201 67.647431 
L 587.336383 67.647431 
L 587.336383 68.041473 
L 587.907564 68.041473 
L 587.907564 67.378001 
L 588.478746 67.378001 
L 588.478746 70.58398 
L 589.049927 70.58398 
L 589.049927 70.44996 
L 589.621109 70.44996 
L 589.621109 70.249385 
L 590.19229 70.249385 
L 590.19229 69.094641 
L 590.763471 69.094641 
L 590.763471 70.057038 
L 591.334653 70.057038 
L 591.334653 69.559446 
L 591.905834 69.559446 
L 591.905834 69.284203 
L 592.477016 69.284203 
L 592.477016 69.825442 
L 593.048197 69.825442 
L 593.048197 69.600771 
L 593.619379 69.600771 
L 593.619379 68.317964 
L 594.19056 68.317964 
L 594.19056 68.095408 
L 594.761742 68.095408 
L 594.761742 67.657258 
L 595.332923 67.657258 
L 595.332923 65.731997 
L 595.904104 65.731997 
L 595.904104 64.666977 
L 596.475286 64.666977 
L 596.475286 64.435267 
L 597.046467 64.435267 
L 597.046467 63.940689 
L 597.617649 63.940689 
L 597.617649 62.135626 
L 598.18883 62.135626 
L 598.18883 61.120974 
L 598.760012 61.120974 
L 598.760012 60.599822 
L 599.331193 60.599822 
L 599.331193 58.377865 
L 599.902374 58.377865 
L 599.902374 57.864613 
L 600.473556 57.864613 
L 600.473556 59.428523 
L 601.044737 59.428523 
L 601.044737 57.807812 
L 601.615919 57.807812 
L 601.615919 57.651451 
L 602.1871 57.651451 
L 602.1871 58.854746 
L 602.758282 58.854746 
L 602.758282 57.75619 
L 603.329463 57.75619 
L 603.329463 54.088183 
L 603.900644 54.088183 
L 603.900644 53.513237 
L 604.471826 53.513237 
L 604.471826 51.424957 
L 605.043007 51.424957 
L 605.043007 49.67567 
L 605.614189 49.67567 
L 605.614189 46.987963 
L 606.18537 46.987963 
L 606.18537 43.394493 
L 606.756552 43.394493 
L 606.756552 45.500499 
L 607.327733 45.500499 
L 607.327733 44.789986 
L 607.898914 44.789986 
L 607.898914 45.234515 
L 608.470096 45.234515 
L 608.470096 47.542422 
L 609.041277 47.542422 
L 609.041277 48.619465 
L 609.612459 48.619465 
L 609.612459 46.905785 
L 610.18364 46.905785 
L 610.18364 44.695814 
L 610.754822 44.695814 
L 610.754822 40.178232 
L 611.326003 40.178232 
L 611.326003 39.705602 
L 611.897185 39.705602 
L 611.897185 39.005501 
L 612.468366 39.005501 
L 612.468366 36.395945 
L 613.039547 36.395945 
L 613.039547 38.417457 
L 613.610729 38.417457 
L 613.610729 40.725796 
L 614.18191 40.725796 
L 614.18191 39.297369 
L 614.753092 39.297369 
L 614.753092 37.765699 
L 615.324273 37.765699 
L 615.324273 35.953074 
L 615.895455 35.953074 
L 615.895455 36.086768 
L 616.466636 36.086768 
L 616.466636 35.663934 
L 617.037817 35.663934 
L 617.037817 37.685858 
L 617.608999 37.685858 
L 617.608999 36.473881 
L 618.18018 36.473881 
L 618.18018 35.440669 
L 619.322543 35.332804 
L 619.322543 35.658149 
L 619.893725 35.658149 
L 619.893725 33.861839 
L 620.464906 33.861839 
L 620.464906 34.985486 
L 621.036087 34.985486 
L 621.036087 37.195813 
L 621.607269 37.195813 
L 621.607269 39.039965 
L 622.17845 39.039965 
L 622.17845 37.279608 
L 622.749632 37.279608 
L 622.749632 35.967055 
L 623.891995 35.908699 
L 623.891995 36.129913 
L 624.463176 36.129913 
L 624.463176 40.018055 
L 625.034357 40.018055 
L 625.034357 44.716296 
L 625.605539 44.716296 
L 625.605539 45.950896 
L 626.17672 45.950896 
L 626.17672 43.92948 
L 626.747902 43.92948 
L 626.747902 44.529546 
L 627.319083 44.529546 
L 627.319083 44.759016 
L 627.890265 44.759016 
L 627.890265 46.717049 
L 628.461446 46.717049 
L 628.461446 45.528715 
L 629.032628 45.528715 
L 629.032628 43.992313 
L 629.603809 43.992313 
L 629.603809 45.473802 
L 630.17499 45.473802 
L 630.17499 46.017372 
L 631.317353 46.123296 
L 631.317353 46.475019 
L 631.888535 46.475019 
L 631.888535 46.266602 
L 632.459716 46.266602 
L 632.459716 46.67794 
L 633.030898 46.67794 
L 633.030898 47.101272 
L 633.602079 47.101272 
L 633.602079 47.740726 
L 634.17326 47.740726 
L 634.17326 47.419166 
L 634.744442 47.419166 
L 634.744442 44.525467 
L 635.315623 44.525467 
L 635.315623 42.05641 
L 635.886805 42.05641 
L 635.886805 44.090211 
L 636.457986 44.090211 
L 636.457986 40.939943 
L 637.029168 40.939943 
L 637.029168 40.506118 
L 637.600349 40.506118 
L 637.600349 39.881461 
L 638.17153 39.881461 
L 638.17153 40.018882 
L 638.742712 40.018882 
L 638.742712 38.85799 
L 639.313893 38.85799 
L 639.313893 39.047607 
L 639.885075 39.047607 
L 639.885075 39.839172 
L 640.456256 39.839172 
L 640.456256 38.68729 
L 641.027438 38.68729 
L 641.027438 40.302128 
L 642.169801 40.310502 
L 642.169801 39.573617 
L 642.740982 39.573617 
L 642.740982 41.732892 
L 643.883345 41.773082 
L 643.883345 42.635465 
L 644.454526 42.635465 
L 644.454526 39.598009 
L 645.025708 39.598009 
L 645.025708 36.632468 
L 645.596889 36.632468 
L 645.596889 36.894017 
L 646.168071 36.894017 
L 646.168071 35.902602 
L 646.739252 35.902602 
L 646.739252 34.366979 
L 647.310433 34.366979 
L 647.310433 34.783191 
L 647.881615 34.783191 
L 647.881615 34.899645 
L 648.452796 34.899645 
L 648.452796 34.444793 
L 649.023978 34.444793 
L 649.023978 34.051689 
L 650.166341 33.94433 
L 650.166341 33.461115 
L 650.737522 33.461115 
L 650.737522 33.852447 
L 651.308703 33.852447 
L 651.308703 35.647658 
L 651.879885 35.647658 
L 651.879885 35.839723 
L 652.451066 35.839723 
L 652.451066 36.829806 
L 653.022248 36.829806 
L 653.022248 35.961304 
L 653.593429 35.961304 
L 653.593429 38.915935 
L 654.164611 38.915935 
L 654.164611 39.626322 
L 654.735792 39.626322 
L 654.735792 40.009268 
L 655.306973 40.009268 
L 655.306973 40.260821 
L 655.878155 40.260821 
L 655.878155 39.097597 
L 656.449336 39.097597 
L 656.449336 38.478457 
L 657.020518 38.478457 
L 657.020518 40.158988 
L 657.591699 40.158988 
L 657.591699 39.766251 
L 658.162881 39.766251 
L 658.162881 41.630879 
L 658.734062 41.630879 
L 658.734062 42.230411 
L 659.305244 42.230411 
L 659.305244 41.640756 
L 659.876425 41.640756 
L 659.876425 41.977176 
L 660.447606 41.977176 
L 660.447606 45.769103 
L 661.018788 45.769103 
L 661.018788 44.792716 
L 661.589969 44.792716 
L 661.589969 44.205754 
L 662.161151 44.205754 
L 662.161151 44.64699 
L 662.732332 44.64699 
L 662.732332 41.302234 
L 663.303514 41.302234 
L 663.303514 41.967826 
L 663.874695 41.967826 
L 663.874695 40.983936 
L 664.445876 40.983936 
L 664.445876 43.077952 
L 665.017058 43.077952 
L 665.017058 44.53978 
L 665.588239 44.53978 
L 665.588239 44.319141 
L 666.159421 44.319141 
L 666.159421 41.938028 
L 666.730602 41.938028 
L 666.730602 44.145692 
L 667.301784 44.145692 
L 667.301784 43.775993 
L 667.872965 43.775993 
L 667.872965 43.478474 
L 668.444146 43.478474 
L 668.444146 42.052534 
L 669.015328 42.052534 
L 669.015328 41.731258 
L 669.586509 41.731258 
L 669.586509 39.965862 
L 670.157691 39.965862 
L 670.157691 40.537864 
L 670.728872 40.537864 
L 670.728872 40.071832 
L 671.300054 40.071832 
L 671.300054 42.025693 
L 671.871235 42.025693 
L 671.871235 43.084369 
L 672.442417 43.084369 
L 672.442417 42.941748 
L 673.013598 42.941748 
L 673.013598 42.458177 
L 673.584779 42.458177 
L 673.584779 43.404879 
L 674.155961 43.404879 
L 674.155961 43.250954 
L 674.727142 43.250954 
L 674.727142 43.895458 
L 675.298324 43.895458 
L 675.298324 45.238463 
L 675.869505 45.238463 
L 675.869505 48.238099 
L 676.440687 48.238099 
L 676.440687 48.847626 
L 677.011868 48.847626 
L 677.011868 49.797937 
L 677.583049 49.797937 
L 677.583049 48.712009 
L 678.154231 48.712009 
L 678.154231 49.442895 
L 678.725412 49.442895 
L 678.725412 47.783566 
L 679.296594 47.783566 
L 679.296594 49.110975 
L 679.867775 49.110975 
L 679.867775 48.164653 
L 680.438957 48.164653 
L 680.438957 50.034292 
L 681.010138 50.034292 
L 681.010138 54.614113 
L 681.581319 54.614113 
L 681.581319 56.484341 
L 682.152501 56.484341 
L 682.152501 55.957072 
L 682.723682 55.957072 
L 682.723682 56.327142 
L 683.294864 56.327142 
L 683.294864 57.808094 
L 683.866045 57.808094 
L 683.866045 56.836968 
L 684.437227 56.836968 
L 684.437227 55.493026 
L 685.008408 55.493026 
L 685.008408 56.795548 
L 685.579589 56.795548 
L 685.579589 56.257605 
L 686.150771 56.257605 
L 686.150771 54.085329 
L 686.721952 54.085329 
L 686.721952 55.756335 
L 687.293134 55.756335 
L 687.293134 53.54099 
L 687.864315 53.54099 
L 687.864315 54.234946 
L 689.006678 54.265105 
L 689.006678 53.400127 
L 689.57786 53.400127 
L 689.57786 53.105575 
L 690.149041 53.105575 
L 690.149041 54.050844 
L 690.720222 54.050844 
L 690.720222 55.660458 
L 691.291404 55.660458 
L 691.291404 56.786013 
L 691.862585 56.786013 
L 691.862585 57.226672 
L 693.004948 57.184298 
L 693.004948 57.752564 
L 693.57613 57.752564 
L 693.57613 55.297323 
L 694.147311 55.297323 
L 694.147311 57.326421 
L 694.718492 57.326421 
L 694.718492 57.482101 
L 695.289674 57.482101 
L 695.289674 57.752045 
L 695.860855 57.752045 
L 695.860855 57.935388 
L 696.432037 57.935388 
L 696.432037 57.716642 
L 697.003218 57.716642 
L 697.003218 56.850985 
L 697.5744 56.850985 
L 697.5744 57.585183 
L 699.287944 57.475163 
L 699.287944 57.865846 
L 699.859125 57.865846 
L 699.859125 56.917156 
L 700.430307 56.917156 
L 700.430307 56.21722 
L 701.001488 56.21722 
L 701.001488 56.864695 
L 701.57267 56.864695 
L 701.57267 56.117241 
L 702.143851 56.117241 
L 702.143851 59.63537 
L 702.715032 59.63537 
L 702.715032 60.764787 
L 703.286214 60.764787 
L 703.286214 60.650097 
L 703.857395 60.650097 
L 703.857395 61.245276 
L 704.428577 61.245276 
L 704.428577 60.927835 
L 704.999758 60.927835 
L 704.999758 60.073343 
L 707.284484 60.031104 
L 707.284484 60.70494 
L 707.855665 60.70494 
L 707.855665 60.386024 
L 708.998028 60.465016 
L 708.998028 60.823651 
L 710.140391 60.73372 
L 710.140391 60.478926 
L 710.711573 60.478926 
L 710.711573 60.048338 
L 711.282754 60.048338 
L 711.282754 57.085162 
L 711.853935 57.085162 
L 711.853935 55.903123 
L 712.425117 55.903123 
L 712.425117 54.418161 
L 712.996298 54.418161 
L 712.996298 54.14107 
L 713.56748 54.14107 
L 713.56748 53.571445 
L 714.138661 53.571445 
L 714.138661 53.827217 
L 714.709843 53.827217 
L 714.709843 54.425867 
L 715.281024 54.425867 
L 715.281024 55.441172 
L 715.852205 55.441172 
L 715.852205 54.917476 
L 716.423387 54.917476 
L 716.423387 52.837973 
L 716.994568 52.837973 
L 716.994568 53.2123 
L 717.56575 53.2123 
L 717.56575 53.734608 
L 718.708113 53.816161 
L 718.708113 54.738995 
L 719.279294 54.738995 
L 719.279294 56.794399 
L 719.850476 56.794399 
L 719.850476 52.73621 
L 720.421657 52.73621 
L 720.421657 51.025874 
L 720.992838 51.025874 
L 720.992838 50.78166 
L 721.56402 50.78166 
L 721.56402 50.279327 
L 722.706383 50.255579 
L 722.706383 50.421182 
L 723.848746 50.332539 
L 723.848746 48.741108 
L 724.991108 48.685316 
L 724.991108 49.694433 
L 725.56229 49.694433 
L 725.56229 50.574259 
L 726.133471 50.574259 
L 726.133471 49.247346 
L 726.704653 49.247346 
L 726.704653 50.217327 
L 727.275834 50.217327 
L 727.275834 49.209993 
L 727.847016 49.209993 
L 727.847016 50.538329 
L 728.418197 50.538329 
L 728.418197 51.167033 
L 728.989378 51.167033 
L 728.989378 50.714329 
L 729.56056 50.714329 
L 729.56056 51.189006 
L 730.131741 51.189006 
L 730.131741 51.39916 
L 730.702923 51.39916 
L 730.702923 50.462698 
L 731.274104 50.462698 
L 731.274104 50.821593 
L 732.416467 50.827687 
L 732.416467 51.877199 
L 732.987648 51.877199 
L 732.987648 52.447519 
L 733.55883 52.447519 
L 733.55883 51.505504 
L 734.130011 51.505504 
L 734.130011 48.961751 
L 734.701193 48.961751 
L 734.701193 48.720107 
L 735.272374 48.720107 
L 735.272374 48.585039 
L 735.843556 48.585039 
L 735.843556 48.386622 
L 736.414737 48.386622 
L 736.414737 48.754646 
L 736.985919 48.754646 
L 736.985919 48.637599 
L 738.128281 48.737598 
L 738.128281 49.029808 
L 738.699463 49.029808 
L 738.699463 49.453532 
L 739.841826 49.359234 
L 739.841826 49.109726 
L 740.413007 49.109726 
L 740.413007 49.543249 
L 740.984189 49.543249 
L 740.984189 49.189362 
L 741.55537 49.189362 
L 741.55537 49.3813 
L 742.126551 49.3813 
L 742.126551 51.259884 
L 742.697733 51.259884 
L 742.697733 51.668657 
L 743.840096 51.725466 
L 743.840096 50.472396 
L 744.411277 50.472396 
L 744.411277 51.864599 
L 746.124821 51.8927 
L 746.124821 51.354783 
L 746.696003 51.354783 
L 746.696003 51.183624 
L 747.267184 51.183624 
L 747.267184 51.320214 
L 747.838366 51.320214 
L 747.838366 51.600224 
L 748.409547 51.600224 
L 748.409547 51.029557 
L 748.980729 51.029557 
L 748.980729 50.424546 
L 750.123091 50.324199 
L 750.123091 51.187441 
L 750.694273 51.187441 
L 750.694273 49.912545 
L 751.265454 49.912545 
L 751.265454 49.110408 
L 751.836636 49.110408 
L 751.836636 46.447949 
L 752.978999 46.337173 
L 752.978999 45.559429 
L 753.55018 45.559429 
L 753.55018 45.782288 
L 754.121362 45.782288 
L 754.121362 44.862049 
L 755.834906 44.901357 
L 755.834906 45.352285 
L 756.406087 45.352285 
L 756.406087 44.268009 
L 757.54845 44.232842 
L 757.54845 43.147477 
L 758.119632 43.147477 
L 758.119632 41.548339 
L 758.690813 41.548339 
L 758.690813 42.524837 
L 759.261994 42.524837 
L 759.261994 42.189432 
L 759.833176 42.189432 
L 759.833176 42.033426 
L 760.404357 42.033426 
L 760.404357 41.344173 
L 760.975539 41.344173 
L 760.975539 41.468907 
L 761.54672 41.468907 
L 761.54672 42.039555 
L 762.117902 42.039555 
L 762.117902 41.140191 
L 762.689083 41.140191 
L 762.689083 39.917241 
L 763.260264 39.917241 
L 763.260264 41.759791 
L 763.831446 41.759791 
L 763.831446 41.625413 
L 764.402627 41.625413 
L 764.402627 42.321358 
L 764.973809 42.321358 
L 764.973809 43.101212 
L 765.54499 43.101212 
L 765.54499 42.143586 
L 766.116172 42.143586 
L 766.116172 41.65852 
L 766.687353 41.65852 
L 766.687353 41.849134 
L 767.258535 41.849134 
L 767.258535 39.848234 
L 767.829716 39.848234 
L 767.829716 38.770928 
L 768.400897 38.770928 
L 768.400897 38.002222 
L 770.114442 37.985794 
L 770.114442 34.626921 
L 770.685623 34.626921 
L 770.685623 32.39675 
L 771.827986 32.41749 
L 771.827986 31.505466 
L 772.399167 31.505466 
L 772.399167 33.318032 
L 772.970349 33.318032 
L 772.970349 32.549792 
L 773.54153 32.549792 
L 773.54153 32.736864 
L 774.112712 32.736864 
L 774.112712 31.712319 
L 774.683893 31.712319 
L 774.683893 32.012747 
L 775.255075 32.012747 
L 775.255075 32.549721 
L 775.826256 32.549721 
L 775.826256 32.174183 
L 776.397437 32.174183 
L 776.397437 33.715737 
L 776.968619 33.715737 
L 776.968619 34.591585 
L 777.5398 34.591585 
L 777.5398 33.426862 
L 778.110982 33.426862 
L 778.110982 33.570305 
L 778.682163 33.570305 
L 778.682163 33.774332 
L 779.253345 33.774332 
L 779.253345 34.073841 
L 779.824526 34.073841 
L 779.824526 34.253605 
L 780.395707 34.253605 
L 780.395707 34.747348 
L 780.966889 34.747348 
L 780.966889 33.033161 
L 782.109252 33.025017 
L 782.109252 32.524704 
L 782.680433 32.524704 
L 782.680433 32.106969 
L 783.251615 32.106969 
L 783.251615 32.659967 
L 783.822796 32.659967 
L 783.822796 31.769425 
L 784.393978 31.769425 
L 784.393978 32.128992 
L 784.965159 32.128992 
L 784.965159 32.437178 
L 785.53634 32.437178 
L 785.53634 32.913262 
L 786.107522 32.913262 
L 786.107522 33.463747 
L 786.678703 33.463747 
L 786.678703 34.92144 
L 787.821066 34.909438 
L 787.821066 34.348633 
L 788.392248 34.348633 
L 788.392248 35.602153 
L 788.963429 35.602153 
L 788.963429 35.782448 
L 789.53461 35.782448 
L 789.53461 34.749858 
L 790.105792 34.749858 
L 790.105792 33.73174 
L 790.676973 33.73174 
L 790.676973 32.626657 
L 791.819336 32.532774 
L 791.819336 33.051048 
L 792.390518 33.051048 
L 792.390518 34.789917 
L 792.961699 34.789917 
L 792.961699 36.745077 
L 793.53288 36.745077 
L 793.53288 35.447462 
L 794.104062 35.447462 
L 794.104062 35.858777 
L 794.675243 35.858777 
L 794.675243 35.190253 
L 795.246425 35.190253 
L 795.246425 33.696253 
L 795.817606 33.696253 
L 795.817606 35.193314 
L 796.388788 35.193314 
L 796.388788 35.361718 
L 796.959969 35.361718 
L 796.959969 35.705012 
L 797.531151 35.705012 
L 797.531151 36.809342 
L 798.102332 36.809342 
L 798.102332 35.64646 
L 799.244695 35.626323 
L 799.244695 33.969671 
L 799.815876 33.969671 
L 799.815876 33.634778 
L 800.387058 33.634778 
L 800.387058 33.139462 
L 800.958239 33.139462 
L 800.958239 34.802204 
L 801.529421 34.802204 
L 801.529421 34.096256 
L 802.100602 34.096256 
L 802.100602 34.924862 
L 802.671783 34.924862 
L 802.671783 33.090867 
L 803.242965 33.090867 
L 803.242965 32.38254 
L 803.814146 32.38254 
L 803.814146 32.694641 
L 804.956509 32.798795 
L 804.956509 31.27132 
L 805.527691 31.27132 
L 805.527691 32.289673 
L 806.098872 32.289673 
L 806.098872 30.299405 
L 806.670053 30.299405 
L 806.670053 27.180553 
L 807.241235 27.180553 
L 807.241235 26.658369 
L 807.812416 26.658369 
L 807.812416 26.373116 
L 808.383598 26.373116 
L 808.383598 25.233636 
L 808.954779 25.233636 
L 808.954779 25.609949 
L 809.525961 25.609949 
L 809.525961 25.337003 
L 811.239505 25.297523 
L 811.239505 24.491571 
L 811.810686 24.491571 
L 811.810686 23.586855 
L 812.381868 23.586855 
L 812.381868 25.346699 
L 812.953049 25.346699 
L 812.953049 24.924032 
L 813.524231 24.924032 
L 813.524231 26.121666 
L 814.095412 26.121666 
L 814.095412 25.423666 
L 814.666594 25.423666 
L 814.666594 24.337063 
L 815.237775 24.337063 
L 815.237775 25.873486 
L 815.808956 25.873486 
L 815.808956 25.491296 
L 816.380138 25.491296 
L 816.380138 23.919231 
L 816.951319 23.919231 
L 816.951319 24.067841 
L 817.522501 24.067841 
L 817.522501 24.270709 
L 818.093682 24.270709 
L 818.093682 23.855056 
L 818.664864 23.855056 
L 818.664864 24.50199 
L 819.236045 24.50199 
L 819.236045 25.488483 
L 819.807226 25.488483 
L 819.807226 25.652782 
L 820.378408 25.652782 
L 820.378408 25.271223 
L 820.949589 25.271223 
L 820.949589 25.467314 
L 822.091952 25.543726 
L 822.091952 28.122026 
L 822.663134 28.122026 
L 822.663134 27.78511 
L 823.234315 27.78511 
L 823.234315 27.631272 
L 823.805496 27.631272 
L 823.805496 28.549278 
L 824.376678 28.549278 
L 824.376678 28.194622 
L 824.947859 28.194622 
L 824.947859 27.603109 
L 825.519041 27.603109 
L 825.519041 27.79086 
L 826.090222 27.79086 
L 826.090222 27.52942 
L 826.661404 27.52942 
L 826.661404 28.628761 
L 827.232585 28.628761 
L 827.232585 28.31314 
L 827.803766 28.31314 
L 827.803766 30.209848 
L 828.374948 30.209848 
L 828.374948 27.971769 
L 828.946129 27.971769 
L 828.946129 28.267427 
L 829.517311 28.267427 
L 829.517311 27.997767 
L 830.088492 27.997767 
L 830.088492 26.028875 
L 830.659674 26.028875 
L 830.659674 25.81108 
L 831.230855 25.81108 
L 831.230855 25.408497 
L 832.373218 25.430955 
L 832.373218 23.850792 
L 832.944399 23.850792 
L 832.944399 24.084244 
L 833.515581 24.084244 
L 833.515581 23.536214 
L 834.086762 23.536214 
L 834.086762 22.563278 
L 834.657944 22.563278 
L 834.657944 22.969087 
L 835.229125 22.969087 
L 835.229125 23.992494 
L 835.800307 23.992494 
L 835.800307 23.723455 
L 836.942669 23.685773 
L 836.942669 23.114651 
L 837.513851 23.114651 
L 837.513851 23.699869 
L 838.085032 23.699869 
L 838.085032 23.867227 
L 838.656214 23.867227 
L 838.656214 23.733748 
L 839.227395 23.733748 
L 839.227395 23.407606 
L 839.798577 23.407606 
L 839.798577 23.67197 
L 840.369758 23.67197 
L 840.369758 23.196894 
L 840.940939 23.196894 
L 840.940939 22.63816 
L 841.512121 22.63816 
L 841.512121 21.283255 
L 842.654484 21.252761 
L 842.654484 21.562443 
L 844.368028 21.480964 
L 844.368028 22.420458 
L 844.93921 22.420458 
L 844.93921 21.979852 
L 845.510391 21.979852 
L 845.510391 21.249643 
L 846.081572 21.249643 
L 846.081572 21.402591 
L 846.652754 21.402591 
L 846.652754 21.76739 
L 847.795117 21.66157 
L 847.795117 22.548708 
L 848.366298 22.548708 
L 848.366298 23.095814 
L 848.93748 23.095814 
L 848.93748 22.560524 
L 850.079842 22.661532 
L 850.079842 21.894154 
L 851.793387 21.864056 
L 851.793387 22.511697 
L 852.364568 22.511697 
L 852.364568 22.931157 
L 852.93575 22.931157 
L 852.93575 21.363749 
L 853.506931 21.363749 
L 853.506931 20.552727 
L 854.078112 20.552727 
L 854.078112 20.852518 
L 854.649294 20.852518 
L 854.649294 21.946446 
L 855.220475 21.946446 
L 855.220475 23.528444 
L 855.791657 23.528444 
L 855.791657 23.159011 
L 856.362838 23.159011 
L 856.362838 22.578441 
L 856.93402 22.578441 
L 856.93402 22.861951 
L 858.076382 22.765112 
L 858.076382 24.528115 
L 858.647564 24.528115 
L 858.647564 23.623438 
L 859.218745 23.623438 
L 859.218745 25.937762 
L 859.789927 25.937762 
L 859.789927 26.241358 
L 860.361108 26.241358 
L 860.361108 28.114511 
L 860.93229 28.114511 
L 860.93229 26.77875 
L 862.074653 26.81 
L 862.074653 26.4225 
L 862.645834 26.4225 
L 862.645834 26.750885 
L 863.788197 26.833691 
L 863.788197 27.381199 
L 864.359378 27.381199 
L 864.359378 27.267051 
L 864.93056 27.267051 
L 864.93056 27.433167 
L 866.072923 27.38126 
L 866.072923 27.177108 
L 866.644104 27.177108 
L 866.644104 26.047721 
L 867.215285 26.047721 
L 867.215285 26.78359 
L 867.786467 26.78359 
L 867.786467 25.740447 
L 868.92883 25.790073 
L 868.92883 27.033228 
L 869.500011 27.033228 
L 869.500011 27.671621 
L 870.071193 27.671621 
L 870.071193 28.141547 
L 870.642374 28.141547 
L 870.642374 29.585924 
L 871.213555 29.585924 
L 871.213555 31.778773 
L 871.784737 31.778773 
L 871.784737 32.275099 
L 872.355918 32.275099 
L 872.355918 31.997414 
L 872.9271 31.997414 
L 872.9271 32.976194 
L 873.498281 32.976194 
L 873.498281 32.621431 
L 874.640644 32.664182 
L 874.640644 32.280477 
L 875.211826 32.280477 
L 875.211826 32.469842 
L 875.783007 32.469842 
L 875.783007 31.94932 
L 876.354188 31.94932 
L 876.354188 31.581416 
L 877.496551 31.568816 
L 877.496551 32.551997 
L 878.067733 32.551997 
L 878.067733 32.27942 
L 878.638914 32.27942 
L 878.638914 32.895954 
L 879.781277 32.824821 
L 879.781277 31.376903 
L 880.352458 31.376903 
L 880.352458 31.068738 
L 880.92364 31.068738 
L 880.92364 30.594729 
L 881.494821 30.594729 
L 881.494821 30.85284 
L 882.066003 30.85284 
L 882.066003 29.691368 
L 882.637184 29.691368 
L 882.637184 29.921252 
L 883.208366 29.921252 
L 883.208366 29.709486 
L 883.779547 29.709486 
L 883.779547 29.021541 
L 884.92191 29.085092 
L 884.92191 29.432283 
L 885.493091 29.432283 
L 885.493091 29.911938 
L 887.194182 29.947492 
L 887.194182 29.947492 
" clip-path="url(#p3adf9b2494)" style="fill: none; stroke: #3572c6; stroke-width: 1.2; stroke-linecap: square"/>
   </g>
   <g id="line2d_79">
    <path d="M 75.557818 20.552727 
L 887.194182 20.552727 
L 887.194182 20.552727 
" clip-path="url(#p3adf9b2494)" style="fill: none; stroke: #83a83b; stroke-width: 1.2; stroke-linecap: square"/>
   </g>
   <g id="line2d_80">
    <path d="M 75.557818 32.976194 
L 887.194182 32.976194 
L 887.194182 32.976194 
" clip-path="url(#p3adf9b2494)" style="fill: none; stroke: #c44e52; stroke-width: 1.2; stroke-linecap: square"/>
   </g>
   <g id="line2d_81">
    <path d="M 854.078112 300.96 
L 854.078112 7.2 
" clip-path="url(#p3adf9b2494)" style="fill: none; stroke: #83a83b; stroke-width: 1.2; stroke-linecap: square"/>
   </g>
   <g id="line2d_82">
    <path d="M 873.498281 300.96 
L 873.498281 7.2 
" clip-path="url(#p3adf9b2494)" style="fill: none; stroke: #c44e52; stroke-width: 1.2; stroke-linecap: square"/>
   </g>
   <g id="patch_3">
    <path d="M 34.976 300.96 
L 34.976 7.2 
" style="fill: none; stroke: #899ab8; stroke-width: 1.12; stroke-linejoin: miter; stroke-linecap: square"/>
   </g>
   <g id="patch_4">
    <path d="M 927.776 300.96 
L 927.776 7.2 
" style="fill: none; stroke: #899ab8; stroke-width: 1.12; stroke-linejoin: miter; stroke-linecap: square"/>
   </g>
   <g id="patch_5">
    <path d="M 34.976 300.96 
L 927.776 300.96 
" style="fill: none; stroke: #899ab8; stroke-width: 1.12; stroke-linejoin: miter; stroke-linecap: square"/>
   </g>
   <g id="patch_6">
    <path d="M 34.976 7.2 
L 927.776 7.2 
" style="fill: none; stroke: #899ab8; stroke-width: 1.12; stroke-linejoin: miter; stroke-linecap: square"/>
   </g>
   <g id="text_16">
    <!-- 123519.47 -->
    <g style="fill: #83a83b" transform="translate(179.79843 20.552727) scale(0.132 -0.132)">
     <defs>
      <path id="DejaVuSans-39" d="M 703 97 
L 703 672 
Q 941 559 1184 500 
Q 1428 441 1663 441 
Q 2288 441 2617 861 
Q 2947 1281 2994 2138 
Q 2813 1869 2534 1725 
Q 2256 1581 1919 1581 
Q 1219 1581 811 2004 
Q 403 2428 403 3163 
Q 403 3881 828 4315 
Q 1253 4750 1959 4750 
Q 2769 4750 3195 4129 
Q 3622 3509 3622 2328 
Q 3622 1225 3098 567 
Q 2575 -91 1691 -91 
Q 1453 -91 1209 -44 
Q 966 3 703 97 
z
M 1959 2075 
Q 2384 2075 2632 2365 
Q 2881 2656 2881 3163 
Q 2881 3666 2632 3958 
Q 2384 4250 1959 4250 
Q 1534 4250 1286 3958 
Q 1038 3666 1038 3163 
Q 1038 2656 1286 2365 
Q 1534 2075 1959 2075 
z
" transform="scale(0.015625)"/>
      <path id="DejaVuSans-2e" d="M 684 794 
L 1344 794 
L 1344 0 
L 684 0 
L 684 794 
z
" transform="scale(0.015625)"/>
      <path id="DejaVuSans-37" d="M 525 4666 
L 3525 4666 
L 3525 4397 
L 1831 0 
L 1172 0 
L 2766 4134 
L 525 4134 
L 525 4666 
z
" transform="scale(0.015625)"/>
     </defs>
     <use xlink:href="#DejaVuSans-31"/>
     <use xlink:href="#DejaVuSans-32" transform="translate(63.623047 0)"/>
     <use xlink:href="#DejaVuSans-33" transform="translate(127.246094 0)"/>
     <use xlink:href="#DejaVuSans-35" transform="translate(190.869141 0)"/>
     <use xlink:href="#DejaVuSans-31" transform="translate(254.492188 0)"/>
     <use xlink:href="#DejaVuSans-39" transform="translate(318.115234 0)"/>
     <use xlink:href="#DejaVuSans-2e" transform="translate(381.738281 0)"/>
     <use xlink:href="#DejaVuSans-34" transform="translate(413.525391 0)"/>
     <use xlink:href="#DejaVuSans-37" transform="translate(477.148438 0)"/>
    </g>
   </g>
   <g id="text_17">
    <!-- 66427.8 -->
    <g style="fill: #c44e52" transform="translate(179.79843 32.976194) scale(0.132 -0.132)">
     <use xlink:href="#DejaVuSans-36"/>
     <use xlink:href="#DejaVuSans-36" transform="translate(63.623047 0)"/>
     <use xlink:href="#DejaVuSans-34" transform="translate(127.246094 0)"/>
     <use xlink:href="#DejaVuSans-32" transform="translate(190.869141 0)"/>
     <use xlink:href="#DejaVuSans-37" transform="translate(254.492188 0)"/>
     <use xlink:href="#DejaVuSans-2e" transform="translate(318.115234 0)"/>
     <use xlink:href="#DejaVuSans-38" transform="translate(349.902344 0)"/>
    </g>
   </g>
   <g id="legend_1">
    <g id="patch_7">
     <path d="M 43.796 183.886875 
L 142.133094 183.886875 
Q 144.653094 183.886875 144.653094 181.366875 
L 144.653094 126.793125 
Q 144.653094 124.273125 142.133094 124.273125 
L 43.796 124.273125 
Q 41.276 124.273125 41.276 126.793125 
L 41.276 181.366875 
Q 41.276 183.886875 43.796 183.886875 
z
" style="fill: #373e4b; opacity: 0.8; stroke: #cccccc; stroke-width: 0.16; stroke-linejoin: miter"/>
    </g>
    <g id="line2d_83">
     <path d="M 46.316 134.477156 
L 46.316 134.477156 
L 58.916 134.477156 
L 58.916 134.477156 
L 71.516 134.477156 
" style="fill: none; stroke: #3572c6; stroke-width: 1.2; stroke-linecap: square"/>
    </g>
    <g id="text_18">
     <!-- USD/BTC -->
     <g style="fill: #b1bed6" transform="translate(81.596 138.887156) scale(0.126 -0.126)">
      <defs>
       <path id="DejaVuSans-55" d="M 556 4666 
L 1191 4666 
L 1191 1831 
Q 1191 1081 1462 751 
Q 1734 422 2344 422 
Q 2950 422 3222 751 
Q 3494 1081 3494 1831 
L 3494 4666 
L 4128 4666 
L 4128 1753 
Q 4128 841 3676 375 
Q 3225 -91 2344 -91 
Q 1459 -91 1007 375 
Q 556 841 556 1753 
L 556 4666 
z
" transform="scale(0.015625)"/>
       <path id="DejaVuSans-53" d="M 3425 4513 
L 3425 3897 
Q 3066 4069 2747 4153 
Q 2428 4238 2131 4238 
Q 1616 4238 1336 4038 
Q 1056 3838 1056 3469 
Q 1056 3159 1242 3001 
Q 1428 2844 1947 2747 
L 2328 2669 
Q 3034 2534 3370 2195 
Q 3706 1856 3706 1288 
Q 3706 609 3251 259 
Q 2797 -91 1919 -91 
Q 1588 -91 1214 -16 
Q 841 59 441 206 
L 441 856 
Q 825 641 1194 531 
Q 1563 422 1919 422 
Q 2459 422 2753 634 
Q 3047 847 3047 1241 
Q 3047 1584 2836 1778 
Q 2625 1972 2144 2069 
L 1759 2144 
Q 1053 2284 737 2584 
Q 422 2884 422 3419 
Q 422 4038 858 4394 
Q 1294 4750 2059 4750 
Q 2388 4750 2728 4690 
Q 3069 4631 3425 4513 
z
" transform="scale(0.015625)"/>
       <path id="DejaVuSans-2f" d="M 1625 4666 
L 2156 4666 
L 531 -594 
L 0 -594 
L 1625 4666 
z
" transform="scale(0.015625)"/>
       <path id="DejaVuSans-42" d="M 1259 2228 
L 1259 519 
L 2272 519 
Q 2781 519 3026 730 
Q 3272 941 3272 1375 
Q 3272 1813 3026 2020 
Q 2781 2228 2272 2228 
L 1259 2228 
z
M 1259 4147 
L 1259 2741 
L 2194 2741 
Q 2656 2741 2882 2914 
Q 3109 3088 3109 3444 
Q 3109 3797 2882 3972 
Q 2656 4147 2194 4147 
L 1259 4147 
z
M 628 4666 
L 2241 4666 
Q 2963 4666 3353 4366 
Q 3744 4066 3744 3513 
Q 3744 3084 3544 2831 
Q 3344 2578 2956 2516 
Q 3422 2416 3680 2098 
Q 3938 1781 3938 1306 
Q 3938 681 3513 340 
Q 3088 0 2303 0 
L 628 0 
L 628 4666 
z
" transform="scale(0.015625)"/>
       <path id="DejaVuSans-54" d="M -19 4666 
L 3928 4666 
L 3928 4134 
L 2272 4134 
L 2272 0 
L 1638 0 
L 1638 4134 
L -19 4134 
L -19 4666 
z
" transform="scale(0.015625)"/>
       <path id="DejaVuSans-43" d="M 4122 4306 
L 4122 3641 
Q 3803 3938 3442 4084 
Q 3081 4231 2675 4231 
Q 1875 4231 1450 3742 
Q 1025 3253 1025 2328 
Q 1025 1406 1450 917 
Q 1875 428 2675 428 
Q 3081 428 3442 575 
Q 3803 722 4122 1019 
L 4122 359 
Q 3791 134 3420 21 
Q 3050 -91 2638 -91 
Q 1578 -91 968 557 
Q 359 1206 359 2328 
Q 359 3453 968 4101 
Q 1578 4750 2638 4750 
Q 3056 4750 3426 4639 
Q 3797 4528 4122 4306 
z
" transform="scale(0.015625)"/>
      </defs>
      <use xlink:href="#DejaVuSans-55"/>
      <use xlink:href="#DejaVuSans-53" transform="translate(73.193359 0)"/>
      <use xlink:href="#DejaVuSans-44" transform="translate(136.669922 0)"/>
      <use xlink:href="#DejaVuSans-2f" transform="translate(213.671875 0)"/>
      <use xlink:href="#DejaVuSans-42" transform="translate(247.363281 0)"/>
      <use xlink:href="#DejaVuSans-54" transform="translate(315.966797 0)"/>
      <use xlink:href="#DejaVuSans-43" transform="translate(371.175781 0)"/>
     </g>
    </g>
    <g id="line2d_84">
     <path d="M 46.316 152.971594 
L 46.316 152.971594 
L 58.916 152.971594 
L 58.916 152.971594 
L 71.516 152.971594 
" style="fill: none; stroke: #83a83b; stroke-width: 1.2; stroke-linecap: square"/>
    </g>
    <g id="text_19">
     <!-- Max -->
     <g style="fill: #b1bed6" transform="translate(81.596 157.381594) scale(0.126 -0.126)">
      <defs>
       <path id="DejaVuSans-4d" d="M 628 4666 
L 1569 4666 
L 2759 1491 
L 3956 4666 
L 4897 4666 
L 4897 0 
L 4281 0 
L 4281 4097 
L 3078 897 
L 2444 897 
L 1241 4097 
L 1241 0 
L 628 0 
L 628 4666 
z
" transform="scale(0.015625)"/>
       <path id="DejaVuSans-78" d="M 3513 3500 
L 2247 1797 
L 3578 0 
L 2900 0 
L 1881 1375 
L 863 0 
L 184 0 
L 1544 1831 
L 300 3500 
L 978 3500 
L 1906 2253 
L 2834 3500 
L 3513 3500 
z
" transform="scale(0.015625)"/>
      </defs>
      <use xlink:href="#DejaVuSans-4d"/>
      <use xlink:href="#DejaVuSans-61" transform="translate(86.279297 0)"/>
      <use xlink:href="#DejaVuSans-78" transform="translate(147.558594 0)"/>
     </g>
    </g>
    <g id="line2d_85">
     <path d="M 46.316 171.466031 
L 46.316 171.466031 
L 58.916 171.466031 
L 58.916 171.466031 
L 71.516 171.466031 
" style="fill: none; stroke: #c44e52; stroke-width: 1.2; stroke-linecap: square"/>
    </g>
    <g id="text_20">
     <!-- local_Min -->
     <g style="fill: #b1bed6" transform="translate(81.596 175.876031) scale(0.126 -0.126)">
      <defs>
       <path id="DejaVuSans-6c" d="M 603 4863 
L 1178 4863 
L 1178 0 
L 603 0 
L 603 4863 
z
" transform="scale(0.015625)"/>
       <path id="DejaVuSans-6f" d="M 1959 3097 
Q 1497 3097 1228 2736 
Q 959 2375 959 1747 
Q 959 1119 1226 758 
Q 1494 397 1959 397 
Q 2419 397 2687 759 
Q 2956 1122 2956 1747 
Q 2956 2369 2687 2733 
Q 2419 3097 1959 3097 
z
M 1959 3584 
Q 2709 3584 3137 3096 
Q 3566 2609 3566 1747 
Q 3566 888 3137 398 
Q 2709 -91 1959 -91 
Q 1206 -91 779 398 
Q 353 888 353 1747 
Q 353 2609 779 3096 
Q 1206 3584 1959 3584 
z
" transform="scale(0.015625)"/>
       <path id="DejaVuSans-63" d="M 3122 3366 
L 3122 2828 
Q 2878 2963 2633 3030 
Q 2388 3097 2138 3097 
Q 1578 3097 1268 2742 
Q 959 2388 959 1747 
Q 959 1106 1268 751 
Q 1578 397 2138 397 
Q 2388 397 2633 464 
Q 2878 531 3122 666 
L 3122 134 
Q 2881 22 2623 -34 
Q 2366 -91 2075 -91 
Q 1284 -91 818 406 
Q 353 903 353 1747 
Q 353 2603 823 3093 
Q 1294 3584 2113 3584 
Q 2378 3584 2631 3529 
Q 2884 3475 3122 3366 
z
" transform="scale(0.015625)"/>
       <path id="DejaVuSans-5f" d="M 3263 -1063 
L 3263 -1509 
L -63 -1509 
L -63 -1063 
L 3263 -1063 
z
" transform="scale(0.015625)"/>
       <path id="DejaVuSans-69" d="M 603 3500 
L 1178 3500 
L 1178 0 
L 603 0 
L 603 3500 
z
M 603 4863 
L 1178 4863 
L 1178 4134 
L 603 4134 
L 603 4863 
z
" transform="scale(0.015625)"/>
       <path id="DejaVuSans-6e" d="M 3513 2113 
L 3513 0 
L 2938 0 
L 2938 2094 
Q 2938 2591 2744 2837 
Q 2550 3084 2163 3084 
Q 1697 3084 1428 2787 
Q 1159 2491 1159 1978 
L 1159 0 
L 581 0 
L 581 3500 
L 1159 3500 
L 1159 2956 
Q 1366 3272 1645 3428 
Q 1925 3584 2291 3584 
Q 2894 3584 3203 3211 
Q 3513 2838 3513 2113 
z
" transform="scale(0.015625)"/>
      </defs>
      <use xlink:href="#DejaVuSans-6c"/>
      <use xlink:href="#DejaVuSans-6f" transform="translate(27.783203 0)"/>
      <use xlink:href="#DejaVuSans-63" transform="translate(88.964844 0)"/>
      <use xlink:href="#DejaVuSans-61" transform="translate(143.945312 0)"/>
      <use xlink:href="#DejaVuSans-6c" transform="translate(205.224609 0)"/>
      <use xlink:href="#DejaVuSans-5f" transform="translate(233.007812 0)"/>
      <use xlink:href="#DejaVuSans-4d" transform="translate(283.007812 0)"/>
      <use xlink:href="#DejaVuSans-69" transform="translate(369.287109 0)"/>
      <use xlink:href="#DejaVuSans-6e" transform="translate(397.070312 0)"/>
     </g>
    </g>
   </g>
  </g>
 </g>
 <defs>
  <clipPath id="p3adf9b2494">
   <rect x="34.976" y="7.2" width="892.8" height="293.76"/>
  </clipPath>
 </defs>
</svg>
