<?xml version="1.0" encoding="utf-8" standalone="no"?>
<!DOCTYPE svg PUBLIC "-//W3C//DTD SVG 1.1//EN"
  "http://www.w3.org/Graphics/SVG/1.1/DTD/svg11.dtd">
<svg xmlns:xlink="http://www.w3.org/1999/xlink" width="952.88375pt" height="368.580365pt" viewBox="0 0 952.88375 368.580365" xmlns="http://www.w3.org/2000/svg" version="1.1">
 <metadata>
  <rdf:RDF xmlns:dc="http://purl.org/dc/elements/1.1/" xmlns:cc="http://creativecommons.org/ns#" xmlns:rdf="http://www.w3.org/1999/02/22-rdf-syntax-ns#">
   <cc:Work>
    <dc:type rdf:resource="http://purl.org/dc/dcmitype/StillImage"/>
    <dc:date>2024-08-14T18:24:13.844184</dc:date>
    <dc:format>image/svg+xml</dc:format>
    <dc:creator>
     <cc:Agent>
      <dc:title>Matplotlib v3.9.2, https://matplotlib.org/</dc:title>
     </cc:Agent>
    </dc:creator>
   </cc:Work>
  </rdf:RDF>
 </metadata>
 <defs>
  <style type="text/css">*{stroke-linejoin: round; stroke-linecap: butt}</style>
 </defs>
 <g id="figure_1">
  <g id="patch_1">
   <path d="M 0 368.580365 
L 952.88375 368.580365 
L 952.88375 0 
L 0 0 
z
" style="fill: #373e4b"/>
  </g>
  <g id="axes_1">
   <g id="patch_2">
    <path d="M 52.88375 300.96 
L 945.68375 300.96 
L 945.68375 7.2 
L 52.88375 7.2 
z
" style="fill: #373e4b"/>
   </g>
   <g id="matplotlib.axis_1">
    <g id="xtick_1">
     <g id="line2d_1">
      <path d="M 60.891961 300.96 
L 60.891961 7.2 
" clip-path="url(#p722d47af71)" style="fill: none; stroke: #546379; stroke-width: 1.12; stroke-linecap: square"/>
     </g>
     <g id="line2d_2"/>
     <g id="text_1">
      <!-- 2021-01 -->
      <g style="fill: #b1bed6" transform="translate(13.988687 341.174526) rotate(-30) scale(0.126 -0.126)">
       <defs>
        <path id="DejaVuSans-32" d="M 1228 531 
L 3431 531 
L 3431 0 
L 469 0 
L 469 531 
Q 828 903 1448 1529 
Q 2069 2156 2228 2338 
Q 2531 2678 2651 2914 
Q 2772 3150 2772 3378 
Q 2772 3750 2511 3984 
Q 2250 4219 1831 4219 
Q 1534 4219 1204 4116 
Q 875 4013 500 3803 
L 500 4441 
Q 881 4594 1212 4672 
Q 1544 4750 1819 4750 
Q 2544 4750 2975 4387 
Q 3406 4025 3406 3419 
Q 3406 3131 3298 2873 
Q 3191 2616 2906 2266 
Q 2828 2175 2409 1742 
Q 1991 1309 1228 531 
z
" transform="scale(0.015625)"/>
        <path id="DejaVuSans-30" d="M 2034 4250 
Q 1547 4250 1301 3770 
Q 1056 3291 1056 2328 
Q 1056 1369 1301 889 
Q 1547 409 2034 409 
Q 2525 409 2770 889 
Q 3016 1369 3016 2328 
Q 3016 3291 2770 3770 
Q 2525 4250 2034 4250 
z
M 2034 4750 
Q 2819 4750 3233 4129 
Q 3647 3509 3647 2328 
Q 3647 1150 3233 529 
Q 2819 -91 2034 -91 
Q 1250 -91 836 529 
Q 422 1150 422 2328 
Q 422 3509 836 4129 
Q 1250 4750 2034 4750 
z
" transform="scale(0.015625)"/>
        <path id="DejaVuSans-31" d="M 794 531 
L 1825 531 
L 1825 4091 
L 703 3866 
L 703 4441 
L 1819 4666 
L 2450 4666 
L 2450 531 
L 3481 531 
L 3481 0 
L 794 0 
L 794 531 
z
" transform="scale(0.015625)"/>
        <path id="DejaVuSans-2d" d="M 313 2009 
L 1997 2009 
L 1997 1497 
L 313 1497 
L 313 2009 
z
" transform="scale(0.015625)"/>
       </defs>
       <use xlink:href="#DejaVuSans-32"/>
       <use xlink:href="#DejaVuSans-30" x="63.623047"/>
       <use xlink:href="#DejaVuSans-32" x="127.246094"/>
       <use xlink:href="#DejaVuSans-31" x="190.869141"/>
       <use xlink:href="#DejaVuSans-2d" x="254.492188"/>
       <use xlink:href="#DejaVuSans-30" x="290.576172"/>
       <use xlink:href="#DejaVuSans-31" x="354.199219"/>
      </g>
     </g>
    </g>
    <g id="xtick_2">
     <g id="line2d_3">
      <path d="M 176.496331 300.96 
L 176.496331 7.2 
" clip-path="url(#p722d47af71)" style="fill: none; stroke: #546379; stroke-width: 1.12; stroke-linecap: square"/>
     </g>
     <g id="line2d_4"/>
     <g id="text_2">
      <!-- 2021-07 -->
      <g style="fill: #b1bed6" transform="translate(129.593056 341.174526) rotate(-30) scale(0.126 -0.126)">
       <defs>
        <path id="DejaVuSans-37" d="M 525 4666 
L 3525 4666 
L 3525 4397 
L 1831 0 
L 1172 0 
L 2766 4134 
L 525 4134 
L 525 4666 
z
" transform="scale(0.015625)"/>
       </defs>
       <use xlink:href="#DejaVuSans-32"/>
       <use xlink:href="#DejaVuSans-30" x="63.623047"/>
       <use xlink:href="#DejaVuSans-32" x="127.246094"/>
       <use xlink:href="#DejaVuSans-31" x="190.869141"/>
       <use xlink:href="#DejaVuSans-2d" x="254.492188"/>
       <use xlink:href="#DejaVuSans-30" x="290.576172"/>
       <use xlink:href="#DejaVuSans-37" x="354.199219"/>
      </g>
     </g>
    </g>
    <g id="xtick_3">
     <g id="line2d_5">
      <path d="M 294.016795 300.96 
L 294.016795 7.2 
" clip-path="url(#p722d47af71)" style="fill: none; stroke: #546379; stroke-width: 1.12; stroke-linecap: square"/>
     </g>
     <g id="line2d_6"/>
     <g id="text_3">
      <!-- 2022-01 -->
      <g style="fill: #b1bed6" transform="translate(247.11352 341.174526) rotate(-30) scale(0.126 -0.126)">
       <use xlink:href="#DejaVuSans-32"/>
       <use xlink:href="#DejaVuSans-30" x="63.623047"/>
       <use xlink:href="#DejaVuSans-32" x="127.246094"/>
       <use xlink:href="#DejaVuSans-32" x="190.869141"/>
       <use xlink:href="#DejaVuSans-2d" x="254.492188"/>
       <use xlink:href="#DejaVuSans-30" x="290.576172"/>
       <use xlink:href="#DejaVuSans-31" x="354.199219"/>
      </g>
     </g>
    </g>
    <g id="xtick_4">
     <g id="line2d_7">
      <path d="M 409.621164 300.96 
L 409.621164 7.2 
" clip-path="url(#p722d47af71)" style="fill: none; stroke: #546379; stroke-width: 1.12; stroke-linecap: square"/>
     </g>
     <g id="line2d_8"/>
     <g id="text_4">
      <!-- 2022-07 -->
      <g style="fill: #b1bed6" transform="translate(362.71789 341.174526) rotate(-30) scale(0.126 -0.126)">
       <use xlink:href="#DejaVuSans-32"/>
       <use xlink:href="#DejaVuSans-30" x="63.623047"/>
       <use xlink:href="#DejaVuSans-32" x="127.246094"/>
       <use xlink:href="#DejaVuSans-32" x="190.869141"/>
       <use xlink:href="#DejaVuSans-2d" x="254.492188"/>
       <use xlink:href="#DejaVuSans-30" x="290.576172"/>
       <use xlink:href="#DejaVuSans-37" x="354.199219"/>
      </g>
     </g>
    </g>
    <g id="xtick_5">
     <g id="line2d_9">
      <path d="M 527.141628 300.96 
L 527.141628 7.2 
" clip-path="url(#p722d47af71)" style="fill: none; stroke: #546379; stroke-width: 1.12; stroke-linecap: square"/>
     </g>
     <g id="line2d_10"/>
     <g id="text_5">
      <!-- 2023-01 -->
      <g style="fill: #b1bed6" transform="translate(480.238354 341.174526) rotate(-30) scale(0.126 -0.126)">
       <defs>
        <path id="DejaVuSans-33" d="M 2597 2516 
Q 3050 2419 3304 2112 
Q 3559 1806 3559 1356 
Q 3559 666 3084 287 
Q 2609 -91 1734 -91 
Q 1441 -91 1130 -33 
Q 819 25 488 141 
L 488 750 
Q 750 597 1062 519 
Q 1375 441 1716 441 
Q 2309 441 2620 675 
Q 2931 909 2931 1356 
Q 2931 1769 2642 2001 
Q 2353 2234 1838 2234 
L 1294 2234 
L 1294 2753 
L 1863 2753 
Q 2328 2753 2575 2939 
Q 2822 3125 2822 3475 
Q 2822 3834 2567 4026 
Q 2313 4219 1838 4219 
Q 1578 4219 1281 4162 
Q 984 4106 628 3988 
L 628 4550 
Q 988 4650 1302 4700 
Q 1616 4750 1894 4750 
Q 2613 4750 3031 4423 
Q 3450 4097 3450 3541 
Q 3450 3153 3228 2886 
Q 3006 2619 2597 2516 
z
" transform="scale(0.015625)"/>
       </defs>
       <use xlink:href="#DejaVuSans-32"/>
       <use xlink:href="#DejaVuSans-30" x="63.623047"/>
       <use xlink:href="#DejaVuSans-32" x="127.246094"/>
       <use xlink:href="#DejaVuSans-33" x="190.869141"/>
       <use xlink:href="#DejaVuSans-2d" x="254.492188"/>
       <use xlink:href="#DejaVuSans-30" x="290.576172"/>
       <use xlink:href="#DejaVuSans-31" x="354.199219"/>
      </g>
     </g>
    </g>
    <g id="xtick_6">
     <g id="line2d_11">
      <path d="M 642.745997 300.96 
L 642.745997 7.2 
" clip-path="url(#p722d47af71)" style="fill: none; stroke: #546379; stroke-width: 1.12; stroke-linecap: square"/>
     </g>
     <g id="line2d_12"/>
     <g id="text_6">
      <!-- 2023-07 -->
      <g style="fill: #b1bed6" transform="translate(595.842723 341.174526) rotate(-30) scale(0.126 -0.126)">
       <use xlink:href="#DejaVuSans-32"/>
       <use xlink:href="#DejaVuSans-30" x="63.623047"/>
       <use xlink:href="#DejaVuSans-32" x="127.246094"/>
       <use xlink:href="#DejaVuSans-33" x="190.869141"/>
       <use xlink:href="#DejaVuSans-2d" x="254.492188"/>
       <use xlink:href="#DejaVuSans-30" x="290.576172"/>
       <use xlink:href="#DejaVuSans-37" x="354.199219"/>
      </g>
     </g>
    </g>
    <g id="xtick_7">
     <g id="line2d_13">
      <path d="M 760.266461 300.96 
L 760.266461 7.2 
" clip-path="url(#p722d47af71)" style="fill: none; stroke: #546379; stroke-width: 1.12; stroke-linecap: square"/>
     </g>
     <g id="line2d_14"/>
     <g id="text_7">
      <!-- 2024-01 -->
      <g style="fill: #b1bed6" transform="translate(713.363187 341.174526) rotate(-30) scale(0.126 -0.126)">
       <defs>
        <path id="DejaVuSans-34" d="M 2419 4116 
L 825 1625 
L 2419 1625 
L 2419 4116 
z
M 2253 4666 
L 3047 4666 
L 3047 1625 
L 3713 1625 
L 3713 1100 
L 3047 1100 
L 3047 0 
L 2419 0 
L 2419 1100 
L 313 1100 
L 313 1709 
L 2253 4666 
z
" transform="scale(0.015625)"/>
       </defs>
       <use xlink:href="#DejaVuSans-32"/>
       <use xlink:href="#DejaVuSans-30" x="63.623047"/>
       <use xlink:href="#DejaVuSans-32" x="127.246094"/>
       <use xlink:href="#DejaVuSans-34" x="190.869141"/>
       <use xlink:href="#DejaVuSans-2d" x="254.492188"/>
       <use xlink:href="#DejaVuSans-30" x="290.576172"/>
       <use xlink:href="#DejaVuSans-31" x="354.199219"/>
      </g>
     </g>
    </g>
    <g id="xtick_8">
     <g id="line2d_15">
      <path d="M 876.509529 300.96 
L 876.509529 7.2 
" clip-path="url(#p722d47af71)" style="fill: none; stroke: #546379; stroke-width: 1.12; stroke-linecap: square"/>
     </g>
     <g id="line2d_16"/>
     <g id="text_8">
      <!-- 2024-07 -->
      <g style="fill: #b1bed6" transform="translate(829.606255 341.174526) rotate(-30) scale(0.126 -0.126)">
       <use xlink:href="#DejaVuSans-32"/>
       <use xlink:href="#DejaVuSans-30" x="63.623047"/>
       <use xlink:href="#DejaVuSans-32" x="127.246094"/>
       <use xlink:href="#DejaVuSans-34" x="190.869141"/>
       <use xlink:href="#DejaVuSans-2d" x="254.492188"/>
       <use xlink:href="#DejaVuSans-30" x="290.576172"/>
       <use xlink:href="#DejaVuSans-37" x="354.199219"/>
      </g>
     </g>
    </g>
    <g id="text_9">
     <!-- Date -->
     <g style="fill: #b1bed6" transform="translate(482.074625 358.385615) scale(0.144 -0.144)">
      <defs>
       <path id="DejaVuSans-44" d="M 1259 4147 
L 1259 519 
L 2022 519 
Q 2988 519 3436 956 
Q 3884 1394 3884 2338 
Q 3884 3275 3436 3711 
Q 2988 4147 2022 4147 
L 1259 4147 
z
M 628 4666 
L 1925 4666 
Q 3281 4666 3915 4102 
Q 4550 3538 4550 2338 
Q 4550 1131 3912 565 
Q 3275 0 1925 0 
L 628 0 
L 628 4666 
z
" transform="scale(0.015625)"/>
       <path id="DejaVuSans-61" d="M 2194 1759 
Q 1497 1759 1228 1600 
Q 959 1441 959 1056 
Q 959 750 1161 570 
Q 1363 391 1709 391 
Q 2188 391 2477 730 
Q 2766 1069 2766 1631 
L 2766 1759 
L 2194 1759 
z
M 3341 1997 
L 3341 0 
L 2766 0 
L 2766 531 
Q 2569 213 2275 61 
Q 1981 -91 1556 -91 
Q 1019 -91 701 211 
Q 384 513 384 1019 
Q 384 1609 779 1909 
Q 1175 2209 1959 2209 
L 2766 2209 
L 2766 2266 
Q 2766 2663 2505 2880 
Q 2244 3097 1772 3097 
Q 1472 3097 1187 3025 
Q 903 2953 641 2809 
L 641 3341 
Q 956 3463 1253 3523 
Q 1550 3584 1831 3584 
Q 2591 3584 2966 3190 
Q 3341 2797 3341 1997 
z
" transform="scale(0.015625)"/>
       <path id="DejaVuSans-74" d="M 1172 4494 
L 1172 3500 
L 2356 3500 
L 2356 3053 
L 1172 3053 
L 1172 1153 
Q 1172 725 1289 603 
Q 1406 481 1766 481 
L 2356 481 
L 2356 0 
L 1766 0 
Q 1100 0 847 248 
Q 594 497 594 1153 
L 594 3053 
L 172 3053 
L 172 3500 
L 594 3500 
L 594 4494 
L 1172 4494 
z
" transform="scale(0.015625)"/>
       <path id="DejaVuSans-65" d="M 3597 1894 
L 3597 1613 
L 953 1613 
Q 991 1019 1311 708 
Q 1631 397 2203 397 
Q 2534 397 2845 478 
Q 3156 559 3463 722 
L 3463 178 
Q 3153 47 2828 -22 
Q 2503 -91 2169 -91 
Q 1331 -91 842 396 
Q 353 884 353 1716 
Q 353 2575 817 3079 
Q 1281 3584 2069 3584 
Q 2775 3584 3186 3129 
Q 3597 2675 3597 1894 
z
M 3022 2063 
Q 3016 2534 2758 2815 
Q 2500 3097 2075 3097 
Q 1594 3097 1305 2825 
Q 1016 2553 972 2059 
L 3022 2063 
z
" transform="scale(0.015625)"/>
      </defs>
      <use xlink:href="#DejaVuSans-44"/>
      <use xlink:href="#DejaVuSans-61" x="77.001953"/>
      <use xlink:href="#DejaVuSans-74" x="138.28125"/>
      <use xlink:href="#DejaVuSans-65" x="177.490234"/>
     </g>
    </g>
   </g>
   <g id="matplotlib.axis_2">
    <g id="ytick_1">
     <g id="line2d_17">
      <path d="M 52.88375 269.229136 
L 945.68375 269.229136 
" clip-path="url(#p722d47af71)" style="fill: none; stroke: #546379; stroke-width: 1.12; stroke-linecap: square"/>
     </g>
     <g id="line2d_18"/>
     <g id="text_10">
      <!-- 20000 -->
      <g style="fill: #b1bed6" transform="translate(7.2 274.016152) scale(0.126 -0.126)">
       <use xlink:href="#DejaVuSans-32"/>
       <use xlink:href="#DejaVuSans-30" x="63.623047"/>
       <use xlink:href="#DejaVuSans-30" x="127.246094"/>
       <use xlink:href="#DejaVuSans-30" x="190.869141"/>
       <use xlink:href="#DejaVuSans-30" x="254.492188"/>
      </g>
     </g>
    </g>
    <g id="ytick_2">
     <g id="line2d_19">
      <path d="M 52.88375 220.932345 
L 945.68375 220.932345 
" clip-path="url(#p722d47af71)" style="fill: none; stroke: #546379; stroke-width: 1.12; stroke-linecap: square"/>
     </g>
     <g id="line2d_20"/>
     <g id="text_11">
      <!-- 30000 -->
      <g style="fill: #b1bed6" transform="translate(7.2 225.719361) scale(0.126 -0.126)">
       <use xlink:href="#DejaVuSans-33"/>
       <use xlink:href="#DejaVuSans-30" x="63.623047"/>
       <use xlink:href="#DejaVuSans-30" x="127.246094"/>
       <use xlink:href="#DejaVuSans-30" x="190.869141"/>
       <use xlink:href="#DejaVuSans-30" x="254.492188"/>
      </g>
     </g>
    </g>
    <g id="ytick_3">
     <g id="line2d_21">
      <path d="M 52.88375 172.635555 
L 945.68375 172.635555 
" clip-path="url(#p722d47af71)" style="fill: none; stroke: #546379; stroke-width: 1.12; stroke-linecap: square"/>
     </g>
     <g id="line2d_22"/>
     <g id="text_12">
      <!-- 40000 -->
      <g style="fill: #b1bed6" transform="translate(7.2 177.42257) scale(0.126 -0.126)">
       <use xlink:href="#DejaVuSans-34"/>
       <use xlink:href="#DejaVuSans-30" x="63.623047"/>
       <use xlink:href="#DejaVuSans-30" x="127.246094"/>
       <use xlink:href="#DejaVuSans-30" x="190.869141"/>
       <use xlink:href="#DejaVuSans-30" x="254.492188"/>
      </g>
     </g>
    </g>
    <g id="ytick_4">
     <g id="line2d_23">
      <path d="M 52.88375 124.338764 
L 945.68375 124.338764 
" clip-path="url(#p722d47af71)" style="fill: none; stroke: #546379; stroke-width: 1.12; stroke-linecap: square"/>
     </g>
     <g id="line2d_24"/>
     <g id="text_13">
      <!-- 50000 -->
      <g style="fill: #b1bed6" transform="translate(7.2 129.125779) scale(0.126 -0.126)">
       <defs>
        <path id="DejaVuSans-35" d="M 691 4666 
L 3169 4666 
L 3169 4134 
L 1269 4134 
L 1269 2991 
Q 1406 3038 1543 3061 
Q 1681 3084 1819 3084 
Q 2600 3084 3056 2656 
Q 3513 2228 3513 1497 
Q 3513 744 3044 326 
Q 2575 -91 1722 -91 
Q 1428 -91 1123 -41 
Q 819 9 494 109 
L 494 744 
Q 775 591 1075 516 
Q 1375 441 1709 441 
Q 2250 441 2565 725 
Q 2881 1009 2881 1497 
Q 2881 1984 2565 2268 
Q 2250 2553 1709 2553 
Q 1456 2553 1204 2497 
Q 953 2441 691 2322 
L 691 4666 
z
" transform="scale(0.015625)"/>
       </defs>
       <use xlink:href="#DejaVuSans-35"/>
       <use xlink:href="#DejaVuSans-30" x="63.623047"/>
       <use xlink:href="#DejaVuSans-30" x="127.246094"/>
       <use xlink:href="#DejaVuSans-30" x="190.869141"/>
       <use xlink:href="#DejaVuSans-30" x="254.492188"/>
      </g>
     </g>
    </g>
    <g id="ytick_5">
     <g id="line2d_25">
      <path d="M 52.88375 76.041973 
L 945.68375 76.041973 
" clip-path="url(#p722d47af71)" style="fill: none; stroke: #546379; stroke-width: 1.12; stroke-linecap: square"/>
     </g>
     <g id="line2d_26"/>
     <g id="text_14">
      <!-- 60000 -->
      <g style="fill: #b1bed6" transform="translate(7.2 80.828988) scale(0.126 -0.126)">
       <defs>
        <path id="DejaVuSans-36" d="M 2113 2584 
Q 1688 2584 1439 2293 
Q 1191 2003 1191 1497 
Q 1191 994 1439 701 
Q 1688 409 2113 409 
Q 2538 409 2786 701 
Q 3034 994 3034 1497 
Q 3034 2003 2786 2293 
Q 2538 2584 2113 2584 
z
M 3366 4563 
L 3366 3988 
Q 3128 4100 2886 4159 
Q 2644 4219 2406 4219 
Q 1781 4219 1451 3797 
Q 1122 3375 1075 2522 
Q 1259 2794 1537 2939 
Q 1816 3084 2150 3084 
Q 2853 3084 3261 2657 
Q 3669 2231 3669 1497 
Q 3669 778 3244 343 
Q 2819 -91 2113 -91 
Q 1303 -91 875 529 
Q 447 1150 447 2328 
Q 447 3434 972 4092 
Q 1497 4750 2381 4750 
Q 2619 4750 2861 4703 
Q 3103 4656 3366 4563 
z
" transform="scale(0.015625)"/>
       </defs>
       <use xlink:href="#DejaVuSans-36"/>
       <use xlink:href="#DejaVuSans-30" x="63.623047"/>
       <use xlink:href="#DejaVuSans-30" x="127.246094"/>
       <use xlink:href="#DejaVuSans-30" x="190.869141"/>
       <use xlink:href="#DejaVuSans-30" x="254.492188"/>
      </g>
     </g>
    </g>
    <g id="ytick_6">
     <g id="line2d_27">
      <path d="M 52.88375 27.745182 
L 945.68375 27.745182 
" clip-path="url(#p722d47af71)" style="fill: none; stroke: #546379; stroke-width: 1.12; stroke-linecap: square"/>
     </g>
     <g id="line2d_28"/>
     <g id="text_15">
      <!-- 70000 -->
      <g style="fill: #b1bed6" transform="translate(7.2 32.532198) scale(0.126 -0.126)">
       <use xlink:href="#DejaVuSans-37"/>
       <use xlink:href="#DejaVuSans-30" x="63.623047"/>
       <use xlink:href="#DejaVuSans-30" x="127.246094"/>
       <use xlink:href="#DejaVuSans-30" x="190.869141"/>
       <use xlink:href="#DejaVuSans-30" x="254.492188"/>
      </g>
     </g>
    </g>
   </g>
   <g id="line2d_29">
    <path d="M 93.465568 95.354894 
L 93.465568 121.320987 
L 96.020361 121.320987 
L 96.020361 147.936962 
L 98.575154 147.936962 
L 98.575154 131.830031 
L 101.129946 131.830031 
L 101.129946 113.233738 
L 103.684739 113.233738 
L 103.684739 89.307749 
L 106.239532 89.307749 
L 106.239532 91.147374 
L 108.794324 91.147374 
L 108.794324 85.286945 
L 111.349117 85.286945 
L 111.349117 112.224818 
L 113.90391 112.224818 
L 113.90391 96.4053 
L 116.458702 96.4053 
L 116.458702 82.142244 
L 119.013495 82.142244 
L 119.013495 80.610366 
L 121.568288 80.610366 
L 121.568288 85.205903 
L 124.123081 85.205903 
L 124.123081 58.875168 
L 126.677873 58.875168 
L 126.677873 75.621356 
L 129.232666 75.621356 
L 129.232666 105.943482 
L 131.787459 105.943482 
L 131.787459 128.803416 
L 134.342251 128.803416 
L 134.342251 107.028469 
L 136.897044 107.028469 
L 136.897044 89.500695 
L 139.451837 89.500695 
L 139.451837 88.694428 
L 142.006629 88.694428 
L 142.006629 91.73843 
L 144.561422 91.73843 
L 144.561422 140.100035 
L 147.116215 140.100035 
L 147.116215 187.297156 
L 149.671007 187.297156 
L 149.671007 197.969443 
L 152.2258 197.969443 
L 152.2258 180.144305 
L 154.780593 180.144305 
L 154.780593 185.624783 
L 157.335386 185.624783 
L 157.335386 187.677542 
L 159.890178 187.677542 
L 159.890178 204.269035 
L 162.444971 204.269035 
L 162.444971 194.393742 
L 164.999764 194.393742 
L 164.999764 180.725895 
L 167.554556 180.725895 
L 167.554556 193.92309 
L 170.109349 193.92309 
L 170.109349 198.525629 
L 172.664142 198.525629 
L 172.664142 199.40806 
L 175.218934 199.40806 
L 175.218934 202.304949 
L 177.773727 202.304949 
L 177.773727 200.594519 
L 180.32852 200.594519 
L 180.32852 203.953271 
L 182.883312 203.953271 
L 182.883312 207.338682 
L 185.438105 207.338682 
L 185.438105 212.318661 
L 187.992898 212.318661 
L 187.992898 209.834274 
L 190.547691 209.834274 
L 190.547691 185.588078 
L 193.102483 185.588078 
L 193.102483 161.941921 
L 195.657276 161.941921 
L 195.657276 181.628417 
L 198.212069 181.628417 
L 198.212069 150.254194 
L 200.766861 150.254194 
L 200.766861 145.534004 
L 203.321654 145.534004 
L 203.321654 138.555359 
L 205.876447 138.555359 
L 205.876447 140.109356 
L 208.431239 140.109356 
L 208.431239 126.640106 
L 210.986032 126.640106 
L 210.986032 128.893827 
L 213.540825 128.893827 
L 213.540825 138.074999 
L 216.095617 138.074999 
L 216.095617 124.592901 
L 218.65041 124.592901 
L 218.65041 143.27893 
L 223.759996 143.371949 
L 223.759996 135.035247 
L 226.314788 135.035247 
L 226.314788 158.621951 
L 228.869581 158.621951 
L 228.869581 159.037303 
L 231.424374 159.037303 
L 231.424374 167.751976 
L 233.979166 167.751976 
L 233.979166 135.316141 
L 236.533959 135.316141 
L 236.533959 98.530118 
L 239.088752 98.530118 
L 239.088752 101.997924 
L 241.643544 101.997924 
L 241.643544 88.610054 
L 244.198337 88.610054 
L 244.198337 66.519826 
L 246.75313 66.519826 
L 246.75313 72.675397 
L 249.307922 72.675397 
L 249.307922 74.374913 
L 251.862715 74.374913 
L 251.862715 67.680398 
L 254.417508 67.680398 
L 254.417508 61.770947 
L 256.972301 61.770947 
L 256.972301 60.136777 
L 259.527093 60.136777 
L 259.527093 52.672073 
L 262.081886 52.672073 
L 262.081886 58.731196 
L 264.636679 58.731196 
L 264.636679 85.058887 
L 267.191471 85.058887 
L 267.191471 87.738393 
L 269.746264 87.738393 
L 269.746264 101.15075 
L 272.301057 101.15075 
L 272.301057 89.421343 
L 274.855849 89.421343 
L 274.855849 127.331088 
L 277.410642 127.331088 
L 277.410642 135.641758 
L 279.965435 135.641758 
L 279.965435 140.000978 
L 282.520228 140.000978 
L 282.520228 142.819482 
L 285.07502 142.819482 
L 285.07502 129.484449 
L 287.629813 129.484449 
L 287.629813 122.064516 
L 290.184606 122.064516 
L 290.184606 141.682769 
L 292.739398 141.682769 
L 292.739398 137.244294 
L 295.294191 137.244294 
L 295.294191 157.563913 
L 297.848984 157.563913 
L 297.848984 163.705478 
L 300.403776 163.705478 
L 300.403776 157.666592 
L 302.958569 157.666592 
L 302.958569 161.13377 
L 305.513362 161.13377 
L 305.513362 196.438966 
L 308.068154 196.438966 
L 308.068154 187.97703 
L 310.622947 187.97703 
L 310.622947 182.687952 
L 313.17774 182.687952 
L 313.17774 186.67833 
L 315.732533 186.67833 
L 315.732533 154.118468 
L 318.287325 154.118468 
L 318.287325 161.038191 
L 320.842118 161.038191 
L 320.842118 150.727164 
L 323.396911 150.727164 
L 323.396911 172.0799 
L 325.951703 172.0799 
L 325.951703 185.716837 
L 328.506496 185.716837 
L 328.506496 183.721793 
L 331.061289 183.721793 
L 331.061289 160.733293 
L 333.616081 160.733293 
L 333.616081 182.137948 
L 336.170874 182.137948 
L 336.170874 178.715927 
L 338.725667 178.715927 
L 338.725667 175.915776 
L 341.280459 175.915776 
L 341.280459 161.902462 
L 343.835252 161.902462 
L 343.835252 158.605047 
L 346.390045 158.605047 
L 346.390045 139.511056 
L 348.944838 139.511056 
L 348.944838 145.8829 
L 351.49963 145.8829 
L 351.49963 140.70529 
L 354.054423 140.70529 
L 354.054423 161.629006 
L 356.609216 161.629006 
L 356.609216 172.141961 
L 359.164008 172.141961 
L 359.164008 170.757872 
L 361.718801 170.757872 
L 361.718801 165.99093 
L 364.273594 165.99093 
L 364.273594 175.21668 
L 366.828386 175.21668 
L 366.828386 173.746188 
L 369.383179 173.746188 
L 369.383179 179.828637 
L 371.937972 179.828637 
L 371.937972 191.89134 
L 374.492764 191.89134 
L 374.492764 216.083686 
L 377.047557 216.083686 
L 377.047557 220.572003 
L 379.60235 220.572003 
L 379.60235 227.302837 
L 382.157143 227.302837 
L 382.157143 219.585155 
L 384.711935 219.585155 
L 384.711935 224.825453 
L 387.266728 224.825453 
L 387.266728 212.646645 
L 389.821521 212.646645 
L 389.821521 222.469343 
L 392.376313 222.469343 
L 392.376313 215.533585 
L 394.931106 215.533585 
L 394.931106 228.927879 
L 397.485899 228.927879 
L 397.485899 256.909639 
L 400.040691 256.909639 
L 400.040691 266.619274 
L 402.595484 266.619274 
L 402.595484 263.972997 
L 405.150277 263.972997 
L 405.150277 265.837591 
L 407.70507 265.837591 
L 407.70507 272.963927 
L 410.259862 272.963927 
L 410.259862 268.350569 
L 412.814655 268.350569 
L 412.814655 261.585686 
L 415.369448 261.585686 
L 415.369448 268.148785 
L 417.92424 268.148785 
L 417.92424 265.489854 
L 420.479033 265.489854 
L 420.479033 253.995894 
L 423.033826 253.995894 
L 423.033826 262.947076 
L 425.588618 262.947076 
L 425.588618 250.914993 
L 428.143411 250.914993 
L 428.143411 254.828144 
L 430.698204 254.828144 
L 430.698204 254.995154 
L 433.252996 254.995154 
L 433.252996 250.103994 
L 435.807789 250.103994 
L 435.807789 248.389602 
L 438.362582 248.389602 
L 438.362582 253.80319 
L 440.917375 253.80319 
L 440.917375 262.453435 
L 443.472167 262.453435 
L 443.472167 268.102276 
L 446.02696 268.102276 
L 446.02696 270.228783 
L 448.581753 270.228783 
L 448.581753 270.026323 
L 451.136545 270.026323 
L 451.136545 272.706119 
L 453.691338 272.706119 
L 453.691338 260.562181 
L 456.246131 260.562181 
L 456.246131 270.703686 
L 458.800923 270.703686 
L 458.800923 271.440163 
L 461.355716 271.440163 
L 461.355716 272.703704 
L 463.910509 272.703704 
L 463.910509 273.55223 
L 466.465301 273.55223 
L 466.465301 272.538964 
L 469.020094 272.538964 
L 469.020094 268.418765 
L 471.574887 268.418765 
L 471.574887 271.924677 
L 474.12968 271.924677 
L 474.12968 272.207455 
L 476.684472 272.207455 
L 476.684472 271.407467 
L 479.239265 271.407467 
L 479.239265 273.231298 
L 481.794058 273.231298 
L 481.794058 268.740035 
L 484.34885 268.740035 
L 484.34885 265.287345 
L 486.903643 265.287345 
L 486.903643 268.485414 
L 489.458436 268.485414 
L 489.458436 264.784238 
L 492.013228 264.784238 
L 492.013228 281.060739 
L 494.568021 281.060739 
L 494.568021 285.708195 
L 497.122814 285.708195 
L 497.122814 285.248119 
L 499.677606 285.248119 
L 499.677606 287.607273 
L 502.232399 287.607273 
L 502.232399 286.357738 
L 504.787192 286.357738 
L 504.787192 282.894134 
L 507.341985 282.894134 
L 507.341985 283.150348 
L 509.896777 283.150348 
L 509.896777 282.585228 
L 512.45157 282.585228 
L 512.45157 282.719058 
L 515.006363 282.719058 
L 515.006363 285.468449 
L 517.561155 285.468449 
L 517.561155 284.178732 
L 520.115948 284.178732 
L 520.115948 284.500099 
L 522.670741 284.500099 
L 522.670741 285.943303 
L 525.225533 285.943303 
L 525.225533 285.58383 
L 527.780326 285.58383 
L 527.780326 284.556558 
L 530.335119 284.556558 
L 530.335119 282.790537 
L 532.889911 282.790537 
L 532.889911 269.550986 
L 535.444704 269.550986 
L 535.444704 263.698284 
L 537.999497 263.698284 
L 537.999497 255.838851 
L 540.55429 255.838851 
L 540.55429 254.306684 
L 543.109082 254.306684 
L 543.109082 251.089586 
L 545.663875 251.089586 
L 545.663875 252.545445 
L 548.218668 252.545445 
L 548.218668 255.881159 
L 550.77346 255.881159 
L 550.77346 261.315466 
L 553.328253 261.315466 
L 553.328253 258.546852 
L 555.883046 258.546852 
L 555.883046 246.810056 
L 558.437838 246.810056 
L 558.437838 249.013694 
L 560.992631 249.013694 
L 560.992631 252.020459 
L 563.547424 252.020459 
L 563.547424 252.4829 
L 566.102217 252.4829 
L 566.102217 257.586615 
L 568.657009 257.586615 
L 568.657009 268.143183 
L 571.211802 268.143183 
L 571.211802 246.203835 
L 573.766595 246.203835 
L 573.766595 235.540241 
L 576.321387 235.540241 
L 576.321387 233.941955 
L 578.87618 233.941955 
L 578.87618 230.592476 
L 581.430973 230.592476 
L 581.430973 230.432034 
L 583.985765 230.432034 
L 583.985765 231.546869 
L 586.540558 231.546869 
L 586.540558 230.951273 
L 589.095351 230.951273 
L 589.095351 219.797468 
L 591.650143 219.797468 
L 591.650143 219.390132 
L 594.204936 219.390132 
L 594.204936 226.585147 
L 596.759729 226.585147 
L 596.759729 232.569216 
L 599.314522 232.569216 
L 599.314522 223.442088 
L 601.869314 223.442088 
L 601.869314 230.173212 
L 604.424107 230.173212 
L 604.424107 223.176311 
L 606.9789 223.176311 
L 606.9789 232.329953 
L 609.533692 232.329953 
L 609.533692 236.455224 
L 612.088485 236.455224 
L 612.088485 233.497866 
L 614.643278 233.497866 
L 614.643278 236.597072 
L 617.19807 236.597072 
L 617.19807 237.945904 
L 619.752863 237.945904 
L 619.752863 231.824914 
L 622.307656 231.824914 
L 622.307656 234.204642 
L 627.417241 234.24468 
L 627.417241 240.961894 
L 629.972034 240.961894 
L 629.972034 244.467179 
L 632.526827 244.467179 
L 632.526827 238.623074 
L 635.081619 238.623074 
L 635.081619 221.397299 
L 637.636412 221.397299 
L 637.636412 219.64427 
L 640.191205 219.64427 
L 640.191205 218.655152 
L 642.745997 218.655152 
L 642.745997 217.189972 
L 645.30079 217.189972 
L 645.30079 219.896138 
L 647.855583 219.896138 
L 647.855583 219.04085 
L 650.410375 219.04085 
L 650.410375 219.77187 
L 652.965168 219.77187 
L 652.965168 221.887221 
L 655.519961 221.887221 
L 655.519961 224.900313 
L 658.074753 224.900313 
L 658.074753 224.235266 
L 660.629546 224.235266 
L 660.629546 222.460408 
L 663.184339 222.460408 
L 663.184339 225.530152 
L 665.739132 225.530152 
L 665.739132 223.029296 
L 668.293924 223.029296 
L 668.293924 224.391168 
L 670.848717 224.391168 
L 670.848717 237.053573 
L 673.40351 237.053573 
L 673.40351 239.655031 
L 675.958302 239.655031 
L 675.958302 240.012379 
L 678.513095 240.012379 
L 678.513095 231.889777 
L 681.067888 231.889777 
L 681.067888 240.883315 
L 683.62268 240.883315 
L 683.62268 241.442495 
L 686.177473 241.442495 
L 686.177473 241.058488 
L 688.732266 241.058488 
L 688.732266 237.662257 
L 691.287059 237.662257 
L 691.287059 236.562346 
L 693.841851 236.562346 
L 693.841851 237.440865 
L 696.396644 237.440865 
L 696.396644 239.22321 
L 698.951437 239.22321 
L 698.951437 235.564196 
L 701.506229 235.564196 
L 701.506229 231.569424 
L 704.061022 231.569424 
L 704.061022 230.895104 
L 706.615815 230.895104 
L 706.615815 236.586978 
L 709.170607 236.586978 
L 709.170607 228.093214 
L 711.7254 228.093214 
L 711.7254 222.465286 
L 714.280193 222.465286 
L 714.280193 202.083798 
L 716.834985 202.083798 
L 716.834985 201.175674 
L 719.389778 201.175674 
L 719.389778 194.656428 
L 721.944571 194.656428 
L 721.944571 196.550435 
L 724.499364 196.550435 
L 724.499364 188.591607 
L 727.054156 188.591607 
L 727.054156 189.55223 
L 729.608949 189.55223 
L 729.608949 188.939102 
L 732.163742 188.939102 
L 732.163742 192.876981 
L 734.718534 192.876981 
L 734.718534 183.256309 
L 737.273327 183.256309 
L 737.273327 182.935473 
L 739.82812 182.935473 
L 739.82812 172.751274 
L 742.382912 172.751274 
L 742.382912 156.703892 
L 744.937705 156.703892 
L 744.937705 166.654915 
L 747.492498 166.654915 
L 747.492498 163.291526 
L 750.04729 163.291526 
L 750.04729 161.707826 
L 752.602083 161.707826 
L 752.602083 154.561302 
L 755.156876 154.561302 
L 755.156876 155.872898 
L 757.711669 155.872898 
L 757.711669 161.770274 
L 760.266461 161.770274 
L 760.266461 152.398716 
L 762.821254 152.398716 
L 762.821254 138.961004 
L 765.376047 138.961004 
L 765.376047 158.900044 
L 767.930839 158.900044 
L 767.930839 157.507068 
L 770.485632 157.507068 
L 770.485632 164.621185 
L 773.040425 164.621185 
L 773.040425 172.30477 
L 775.595217 172.30477 
L 775.595217 162.827394 
L 778.15001 162.827394 
L 778.15001 157.851134 
L 780.704803 157.851134 
L 780.704803 159.821015 
L 783.259595 159.821015 
L 783.259595 138.178016 
L 785.814388 138.178016 
L 785.814388 125.598151 
L 788.369181 125.598151 
L 788.369181 116.199064 
L 790.923974 116.199064 
L 790.923974 115.341748 
L 793.478766 115.341748 
L 793.478766 115.994237 
L 796.033559 115.994237 
L 796.033559 70.379222 
L 798.588352 70.379222 
L 798.588352 35.580515 
L 801.143144 35.580515 
L 801.143144 35.922312 
L 803.697937 35.922312 
L 803.697937 20.552727 
L 806.25273 20.552727 
L 806.25273 50.426949 
L 808.807522 50.426949 
L 808.807522 38.094315 
L 811.362315 38.094315 
L 811.362315 41.141118 
L 813.917108 41.141118 
L 813.917108 24.100271 
L 816.471901 24.100271 
L 816.471901 29.187807 
L 819.026693 29.187807 
L 819.026693 38.093156 
L 821.581486 38.093156 
L 821.581486 31.890254 
L 824.136279 31.890254 
L 824.136279 56.627919 
L 826.691071 56.627919 
L 826.691071 69.85752 
L 829.245864 69.85752 
L 829.245864 52.136076 
L 831.800657 52.136076 
L 831.800657 54.374632 
L 834.355449 54.374632 
L 834.355449 57.531165 
L 836.910242 57.531165 
L 836.910242 62.107045 
L 839.465035 62.107045 
L 839.465035 64.820793 
L 842.019827 64.820793 
L 842.019827 72.150314 
L 844.57462 72.150314 
L 844.57462 45.908977 
L 847.129413 45.908977 
L 847.129413 45.778866 
L 849.684206 45.778866 
L 849.684206 37.683551 
L 852.238998 37.683551 
L 852.238998 30.76774 
L 854.793791 30.76774 
L 854.793791 39.892163 
L 857.348584 39.892163 
L 857.348584 25.07321 
L 859.903376 25.07321 
L 859.903376 31.135955 
L 862.458169 31.135955 
L 862.458169 36.246431 
L 865.012962 36.246431 
L 865.012962 43.988117 
L 867.567754 43.988117 
L 867.567754 52.713222 
L 870.122547 52.713222 
L 870.122547 74.691884 
L 872.67734 74.691884 
L 872.67734 74.517388 
L 875.232132 74.517388 
L 875.232132 66.245548 
L 877.786925 66.245548 
L 877.786925 84.420259 
L 880.341718 84.420259 
L 880.341718 86.942027 
L 882.896511 86.942027 
L 882.896511 72.187116 
L 885.451303 72.187116 
L 885.451303 56.87486 
L 888.006096 56.87486 
L 888.006096 39.349645 
L 890.560889 39.349645 
L 890.560889 37.815739 
L 893.115681 37.815739 
L 893.115681 46.194556 
L 895.670474 46.194556 
L 895.670474 72.773826 
L 898.225267 72.773826 
L 898.225267 100.028719 
L 900.780059 100.028719 
L 900.780059 82.238451 
L 903.334852 82.238451 
L 903.334852 78.712124 
L 905.101932 78.712124 
L 905.101932 78.712124 
" clip-path="url(#p722d47af71)" style="fill: none; stroke: #3572c6; stroke-width: 1.2; stroke-linecap: square"/>
   </g>
   <g id="patch_3">
    <path d="M 52.88375 300.96 
L 52.88375 7.2 
" style="fill: none; stroke: #899ab8; stroke-width: 1.12; stroke-linejoin: miter; stroke-linecap: square"/>
   </g>
   <g id="patch_4">
    <path d="M 945.68375 300.96 
L 945.68375 7.2 
" style="fill: none; stroke: #899ab8; stroke-width: 1.12; stroke-linejoin: miter; stroke-linecap: square"/>
   </g>
   <g id="patch_5">
    <path d="M 52.88375 300.96 
L 945.68375 300.96 
" style="fill: none; stroke: #899ab8; stroke-width: 1.12; stroke-linejoin: miter; stroke-linecap: square"/>
   </g>
   <g id="patch_6">
    <path d="M 52.88375 7.2 
L 945.68375 7.2 
" style="fill: none; stroke: #899ab8; stroke-width: 1.12; stroke-linejoin: miter; stroke-linecap: square"/>
   </g>
  </g>
 </g>
 <defs>
  <clipPath id="p722d47af71">
   <rect x="52.88375" y="7.2" width="892.8" height="293.76"/>
  </clipPath>
 </defs>
</svg>
