<?xml version="1.0" encoding="utf-8" standalone="no"?>
<!DOCTYPE svg PUBLIC "-//W3C//DTD SVG 1.1//EN"
  "http://www.w3.org/Graphics/SVG/1.1/DTD/svg11.dtd">
<svg xmlns:xlink="http://www.w3.org/1999/xlink" width="934.976pt" height="358.290693pt" viewBox="0 0 934.976 358.290693" xmlns="http://www.w3.org/2000/svg" version="1.1">
 <metadata>
  <rdf:RDF xmlns:dc="http://purl.org/dc/elements/1.1/" xmlns:cc="http://creativecommons.org/ns#" xmlns:rdf="http://www.w3.org/1999/02/22-rdf-syntax-ns#">
   <cc:Work>
    <dc:type rdf:resource="http://purl.org/dc/dcmitype/StillImage"/>
    <dc:date>2024-05-19T22:09:03.072267</dc:date>
    <dc:format>image/svg+xml</dc:format>
    <dc:creator>
     <cc:Agent>
      <dc:title>Matplotlib v3.9.0, https://matplotlib.org/</dc:title>
     </cc:Agent>
    </dc:creator>
   </cc:Work>
  </rdf:RDF>
 </metadata>
 <defs>
  <style type="text/css">*{stroke-linejoin: round; stroke-linecap: butt}</style>
 </defs>
 <g id="figure_1">
  <g id="patch_1">
   <path d="M 0 358.290693 
L 934.976 358.290693 
L 934.976 0 
L 0 0 
z
" style="fill: #373e4b"/>
  </g>
  <g id="axes_1">
   <g id="patch_2">
    <path d="M 34.976 300.96 
L 927.776 300.96 
L 927.776 7.2 
L 34.976 7.2 
z
" style="fill: #373e4b"/>
   </g>
   <g id="matplotlib.axis_1">
    <g id="xtick_1">
     <g id="line2d_1">
      <path d="M 145.273025 300.96 
L 145.273025 7.2 
" clip-path="url(#p1ae64ff0ba)" style="fill: none; stroke: #546379; stroke-width: 1.12; stroke-linecap: square"/>
     </g>
     <g id="line2d_2"/>
     <g id="text_1">
      <!-- 2012 -->
      <g style="fill: #b1bed6" transform="translate(116.191985 330.884854) rotate(-30) scale(0.126 -0.126)">
       <defs>
        <path id="DejaVuSans-32" d="M 1228 531 
L 3431 531 
L 3431 0 
L 469 0 
L 469 531 
Q 828 903 1448 1529 
Q 2069 2156 2228 2338 
Q 2531 2678 2651 2914 
Q 2772 3150 2772 3378 
Q 2772 3750 2511 3984 
Q 2250 4219 1831 4219 
Q 1534 4219 1204 4116 
Q 875 4013 500 3803 
L 500 4441 
Q 881 4594 1212 4672 
Q 1544 4750 1819 4750 
Q 2544 4750 2975 4387 
Q 3406 4025 3406 3419 
Q 3406 3131 3298 2873 
Q 3191 2616 2906 2266 
Q 2828 2175 2409 1742 
Q 1991 1309 1228 531 
z
" transform="scale(0.015625)"/>
        <path id="DejaVuSans-30" d="M 2034 4250 
Q 1547 4250 1301 3770 
Q 1056 3291 1056 2328 
Q 1056 1369 1301 889 
Q 1547 409 2034 409 
Q 2525 409 2770 889 
Q 3016 1369 3016 2328 
Q 3016 3291 2770 3770 
Q 2525 4250 2034 4250 
z
M 2034 4750 
Q 2819 4750 3233 4129 
Q 3647 3509 3647 2328 
Q 3647 1150 3233 529 
Q 2819 -91 2034 -91 
Q 1250 -91 836 529 
Q 422 1150 422 2328 
Q 422 3509 836 4129 
Q 1250 4750 2034 4750 
z
" transform="scale(0.015625)"/>
        <path id="DejaVuSans-31" d="M 794 531 
L 1825 531 
L 1825 4091 
L 703 3866 
L 703 4441 
L 1819 4666 
L 2450 4666 
L 2450 531 
L 3481 531 
L 3481 0 
L 794 0 
L 794 531 
z
" transform="scale(0.015625)"/>
       </defs>
       <use xlink:href="#DejaVuSans-32"/>
       <use xlink:href="#DejaVuSans-30" x="63.623047"/>
       <use xlink:href="#DejaVuSans-31" x="127.246094"/>
       <use xlink:href="#DejaVuSans-32" x="190.869141"/>
      </g>
     </g>
    </g>
    <g id="xtick_2">
     <g id="line2d_3">
      <path d="M 265.18318 300.96 
L 265.18318 7.2 
" clip-path="url(#p1ae64ff0ba)" style="fill: none; stroke: #546379; stroke-width: 1.12; stroke-linecap: square"/>
     </g>
     <g id="line2d_4"/>
     <g id="text_2">
      <!-- 2014 -->
      <g style="fill: #b1bed6" transform="translate(236.10214 330.884854) rotate(-30) scale(0.126 -0.126)">
       <defs>
        <path id="DejaVuSans-34" d="M 2419 4116 
L 825 1625 
L 2419 1625 
L 2419 4116 
z
M 2253 4666 
L 3047 4666 
L 3047 1625 
L 3713 1625 
L 3713 1100 
L 3047 1100 
L 3047 0 
L 2419 0 
L 2419 1100 
L 313 1100 
L 313 1709 
L 2253 4666 
z
" transform="scale(0.015625)"/>
       </defs>
       <use xlink:href="#DejaVuSans-32"/>
       <use xlink:href="#DejaVuSans-30" x="63.623047"/>
       <use xlink:href="#DejaVuSans-31" x="127.246094"/>
       <use xlink:href="#DejaVuSans-34" x="190.869141"/>
      </g>
     </g>
    </g>
    <g id="xtick_3">
     <g id="line2d_5">
      <path d="M 384.9293 300.96 
L 384.9293 7.2 
" clip-path="url(#p1ae64ff0ba)" style="fill: none; stroke: #546379; stroke-width: 1.12; stroke-linecap: square"/>
     </g>
     <g id="line2d_6"/>
     <g id="text_3">
      <!-- 2016 -->
      <g style="fill: #b1bed6" transform="translate(355.84826 330.884854) rotate(-30) scale(0.126 -0.126)">
       <defs>
        <path id="DejaVuSans-36" d="M 2113 2584 
Q 1688 2584 1439 2293 
Q 1191 2003 1191 1497 
Q 1191 994 1439 701 
Q 1688 409 2113 409 
Q 2538 409 2786 701 
Q 3034 994 3034 1497 
Q 3034 2003 2786 2293 
Q 2538 2584 2113 2584 
z
M 3366 4563 
L 3366 3988 
Q 3128 4100 2886 4159 
Q 2644 4219 2406 4219 
Q 1781 4219 1451 3797 
Q 1122 3375 1075 2522 
Q 1259 2794 1537 2939 
Q 1816 3084 2150 3084 
Q 2853 3084 3261 2657 
Q 3669 2231 3669 1497 
Q 3669 778 3244 343 
Q 2819 -91 2113 -91 
Q 1303 -91 875 529 
Q 447 1150 447 2328 
Q 447 3434 972 4092 
Q 1497 4750 2381 4750 
Q 2619 4750 2861 4703 
Q 3103 4656 3366 4563 
z
" transform="scale(0.015625)"/>
       </defs>
       <use xlink:href="#DejaVuSans-32"/>
       <use xlink:href="#DejaVuSans-30" x="63.623047"/>
       <use xlink:href="#DejaVuSans-31" x="127.246094"/>
       <use xlink:href="#DejaVuSans-36" x="190.869141"/>
      </g>
     </g>
    </g>
    <g id="xtick_4">
     <g id="line2d_7">
      <path d="M 504.839455 300.96 
L 504.839455 7.2 
" clip-path="url(#p1ae64ff0ba)" style="fill: none; stroke: #546379; stroke-width: 1.12; stroke-linecap: square"/>
     </g>
     <g id="line2d_8"/>
     <g id="text_4">
      <!-- 2018 -->
      <g style="fill: #b1bed6" transform="translate(475.758415 330.884854) rotate(-30) scale(0.126 -0.126)">
       <defs>
        <path id="DejaVuSans-38" d="M 2034 2216 
Q 1584 2216 1326 1975 
Q 1069 1734 1069 1313 
Q 1069 891 1326 650 
Q 1584 409 2034 409 
Q 2484 409 2743 651 
Q 3003 894 3003 1313 
Q 3003 1734 2745 1975 
Q 2488 2216 2034 2216 
z
M 1403 2484 
Q 997 2584 770 2862 
Q 544 3141 544 3541 
Q 544 4100 942 4425 
Q 1341 4750 2034 4750 
Q 2731 4750 3128 4425 
Q 3525 4100 3525 3541 
Q 3525 3141 3298 2862 
Q 3072 2584 2669 2484 
Q 3125 2378 3379 2068 
Q 3634 1759 3634 1313 
Q 3634 634 3220 271 
Q 2806 -91 2034 -91 
Q 1263 -91 848 271 
Q 434 634 434 1313 
Q 434 1759 690 2068 
Q 947 2378 1403 2484 
z
M 1172 3481 
Q 1172 3119 1398 2916 
Q 1625 2713 2034 2713 
Q 2441 2713 2670 2916 
Q 2900 3119 2900 3481 
Q 2900 3844 2670 4047 
Q 2441 4250 2034 4250 
Q 1625 4250 1398 4047 
Q 1172 3844 1172 3481 
z
" transform="scale(0.015625)"/>
       </defs>
       <use xlink:href="#DejaVuSans-32"/>
       <use xlink:href="#DejaVuSans-30" x="63.623047"/>
       <use xlink:href="#DejaVuSans-31" x="127.246094"/>
       <use xlink:href="#DejaVuSans-38" x="190.869141"/>
      </g>
     </g>
    </g>
    <g id="xtick_5">
     <g id="line2d_9">
      <path d="M 624.585574 300.96 
L 624.585574 7.2 
" clip-path="url(#p1ae64ff0ba)" style="fill: none; stroke: #546379; stroke-width: 1.12; stroke-linecap: square"/>
     </g>
     <g id="line2d_10"/>
     <g id="text_5">
      <!-- 2020 -->
      <g style="fill: #b1bed6" transform="translate(595.504535 330.884854) rotate(-30) scale(0.126 -0.126)">
       <use xlink:href="#DejaVuSans-32"/>
       <use xlink:href="#DejaVuSans-30" x="63.623047"/>
       <use xlink:href="#DejaVuSans-32" x="127.246094"/>
       <use xlink:href="#DejaVuSans-30" x="190.869141"/>
      </g>
     </g>
    </g>
    <g id="xtick_6">
     <g id="line2d_11">
      <path d="M 744.49573 300.96 
L 744.49573 7.2 
" clip-path="url(#p1ae64ff0ba)" style="fill: none; stroke: #546379; stroke-width: 1.12; stroke-linecap: square"/>
     </g>
     <g id="line2d_12"/>
     <g id="text_6">
      <!-- 2022 -->
      <g style="fill: #b1bed6" transform="translate(715.41469 330.884854) rotate(-30) scale(0.126 -0.126)">
       <use xlink:href="#DejaVuSans-32"/>
       <use xlink:href="#DejaVuSans-30" x="63.623047"/>
       <use xlink:href="#DejaVuSans-32" x="127.246094"/>
       <use xlink:href="#DejaVuSans-32" x="190.869141"/>
      </g>
     </g>
    </g>
    <g id="xtick_7">
     <g id="line2d_13">
      <path d="M 864.241849 300.96 
L 864.241849 7.2 
" clip-path="url(#p1ae64ff0ba)" style="fill: none; stroke: #546379; stroke-width: 1.12; stroke-linecap: square"/>
     </g>
     <g id="line2d_14"/>
     <g id="text_7">
      <!-- 2024 -->
      <g style="fill: #b1bed6" transform="translate(835.16081 330.884854) rotate(-30) scale(0.126 -0.126)">
       <use xlink:href="#DejaVuSans-32"/>
       <use xlink:href="#DejaVuSans-30" x="63.623047"/>
       <use xlink:href="#DejaVuSans-32" x="127.246094"/>
       <use xlink:href="#DejaVuSans-34" x="190.869141"/>
      </g>
     </g>
    </g>
    <g id="text_8">
     <!-- Date -->
     <g style="fill: #b1bed6" transform="translate(464.166875 348.095943) scale(0.144 -0.144)">
      <defs>
       <path id="DejaVuSans-44" d="M 1259 4147 
L 1259 519 
L 2022 519 
Q 2988 519 3436 956 
Q 3884 1394 3884 2338 
Q 3884 3275 3436 3711 
Q 2988 4147 2022 4147 
L 1259 4147 
z
M 628 4666 
L 1925 4666 
Q 3281 4666 3915 4102 
Q 4550 3538 4550 2338 
Q 4550 1131 3912 565 
Q 3275 0 1925 0 
L 628 0 
L 628 4666 
z
" transform="scale(0.015625)"/>
       <path id="DejaVuSans-61" d="M 2194 1759 
Q 1497 1759 1228 1600 
Q 959 1441 959 1056 
Q 959 750 1161 570 
Q 1363 391 1709 391 
Q 2188 391 2477 730 
Q 2766 1069 2766 1631 
L 2766 1759 
L 2194 1759 
z
M 3341 1997 
L 3341 0 
L 2766 0 
L 2766 531 
Q 2569 213 2275 61 
Q 1981 -91 1556 -91 
Q 1019 -91 701 211 
Q 384 513 384 1019 
Q 384 1609 779 1909 
Q 1175 2209 1959 2209 
L 2766 2209 
L 2766 2266 
Q 2766 2663 2505 2880 
Q 2244 3097 1772 3097 
Q 1472 3097 1187 3025 
Q 903 2953 641 2809 
L 641 3341 
Q 956 3463 1253 3523 
Q 1550 3584 1831 3584 
Q 2591 3584 2966 3190 
Q 3341 2797 3341 1997 
z
" transform="scale(0.015625)"/>
       <path id="DejaVuSans-74" d="M 1172 4494 
L 1172 3500 
L 2356 3500 
L 2356 3053 
L 1172 3053 
L 1172 1153 
Q 1172 725 1289 603 
Q 1406 481 1766 481 
L 2356 481 
L 2356 0 
L 1766 0 
Q 1100 0 847 248 
Q 594 497 594 1153 
L 594 3053 
L 172 3053 
L 172 3500 
L 594 3500 
L 594 4494 
L 1172 4494 
z
" transform="scale(0.015625)"/>
       <path id="DejaVuSans-65" d="M 3597 1894 
L 3597 1613 
L 953 1613 
Q 991 1019 1311 708 
Q 1631 397 2203 397 
Q 2534 397 2845 478 
Q 3156 559 3463 722 
L 3463 178 
Q 3153 47 2828 -22 
Q 2503 -91 2169 -91 
Q 1331 -91 842 396 
Q 353 884 353 1716 
Q 353 2575 817 3079 
Q 1281 3584 2069 3584 
Q 2775 3584 3186 3129 
Q 3597 2675 3597 1894 
z
M 3022 2063 
Q 3016 2534 2758 2815 
Q 2500 3097 2075 3097 
Q 1594 3097 1305 2825 
Q 1016 2553 972 2059 
L 3022 2063 
z
" transform="scale(0.015625)"/>
      </defs>
      <use xlink:href="#DejaVuSans-44"/>
      <use xlink:href="#DejaVuSans-61" x="77.001953"/>
      <use xlink:href="#DejaVuSans-74" x="138.28125"/>
      <use xlink:href="#DejaVuSans-65" x="177.490234"/>
     </g>
    </g>
   </g>
   <g id="matplotlib.axis_2">
    <g id="ytick_1">
     <g id="line2d_15">
      <path d="M 34.976 253.993723 
L 927.776 253.993723 
" clip-path="url(#p1ae64ff0ba)" style="fill: none; stroke: #546379; stroke-width: 1.12; stroke-linecap: square"/>
     </g>
     <g id="line2d_16"/>
     <g id="text_9">
      <!-- $\mathdefault{10^{0}}$ -->
      <g style="fill: #b1bed6" transform="translate(7.2 258.780739) scale(0.126 -0.126)">
       <use xlink:href="#DejaVuSans-31" transform="translate(0 0.765625)"/>
       <use xlink:href="#DejaVuSans-30" transform="translate(63.623047 0.765625)"/>
       <use xlink:href="#DejaVuSans-30" transform="translate(128.203125 39.046875) scale(0.7)"/>
      </g>
     </g>
    </g>
    <g id="ytick_2">
     <g id="line2d_17">
      <path d="M 34.976 205.903607 
L 927.776 205.903607 
" clip-path="url(#p1ae64ff0ba)" style="fill: none; stroke: #546379; stroke-width: 1.12; stroke-linecap: square"/>
     </g>
     <g id="line2d_18"/>
     <g id="text_10">
      <!-- $\mathdefault{10^{1}}$ -->
      <g style="fill: #b1bed6" transform="translate(7.2 210.690622) scale(0.126 -0.126)">
       <use xlink:href="#DejaVuSans-31" transform="translate(0 0.684375)"/>
       <use xlink:href="#DejaVuSans-30" transform="translate(63.623047 0.684375)"/>
       <use xlink:href="#DejaVuSans-31" transform="translate(128.203125 38.965625) scale(0.7)"/>
      </g>
     </g>
    </g>
    <g id="ytick_3">
     <g id="line2d_19">
      <path d="M 34.976 157.81349 
L 927.776 157.81349 
" clip-path="url(#p1ae64ff0ba)" style="fill: none; stroke: #546379; stroke-width: 1.12; stroke-linecap: square"/>
     </g>
     <g id="line2d_20"/>
     <g id="text_11">
      <!-- $\mathdefault{10^{2}}$ -->
      <g style="fill: #b1bed6" transform="translate(7.2 162.600505) scale(0.126 -0.126)">
       <use xlink:href="#DejaVuSans-31" transform="translate(0 0.765625)"/>
       <use xlink:href="#DejaVuSans-30" transform="translate(63.623047 0.765625)"/>
       <use xlink:href="#DejaVuSans-32" transform="translate(128.203125 39.046875) scale(0.7)"/>
      </g>
     </g>
    </g>
    <g id="ytick_4">
     <g id="line2d_21">
      <path d="M 34.976 109.723373 
L 927.776 109.723373 
" clip-path="url(#p1ae64ff0ba)" style="fill: none; stroke: #546379; stroke-width: 1.12; stroke-linecap: square"/>
     </g>
     <g id="line2d_22"/>
     <g id="text_12">
      <!-- $\mathdefault{10^{3}}$ -->
      <g style="fill: #b1bed6" transform="translate(7.2 114.510388) scale(0.126 -0.126)">
       <defs>
        <path id="DejaVuSans-33" d="M 2597 2516 
Q 3050 2419 3304 2112 
Q 3559 1806 3559 1356 
Q 3559 666 3084 287 
Q 2609 -91 1734 -91 
Q 1441 -91 1130 -33 
Q 819 25 488 141 
L 488 750 
Q 750 597 1062 519 
Q 1375 441 1716 441 
Q 2309 441 2620 675 
Q 2931 909 2931 1356 
Q 2931 1769 2642 2001 
Q 2353 2234 1838 2234 
L 1294 2234 
L 1294 2753 
L 1863 2753 
Q 2328 2753 2575 2939 
Q 2822 3125 2822 3475 
Q 2822 3834 2567 4026 
Q 2313 4219 1838 4219 
Q 1578 4219 1281 4162 
Q 984 4106 628 3988 
L 628 4550 
Q 988 4650 1302 4700 
Q 1616 4750 1894 4750 
Q 2613 4750 3031 4423 
Q 3450 4097 3450 3541 
Q 3450 3153 3228 2886 
Q 3006 2619 2597 2516 
z
" transform="scale(0.015625)"/>
       </defs>
       <use xlink:href="#DejaVuSans-31" transform="translate(0 0.765625)"/>
       <use xlink:href="#DejaVuSans-30" transform="translate(63.623047 0.765625)"/>
       <use xlink:href="#DejaVuSans-33" transform="translate(128.203125 39.046875) scale(0.7)"/>
      </g>
     </g>
    </g>
    <g id="ytick_5">
     <g id="line2d_23">
      <path d="M 34.976 61.633256 
L 927.776 61.633256 
" clip-path="url(#p1ae64ff0ba)" style="fill: none; stroke: #546379; stroke-width: 1.12; stroke-linecap: square"/>
     </g>
     <g id="line2d_24"/>
     <g id="text_13">
      <!-- $\mathdefault{10^{4}}$ -->
      <g style="fill: #b1bed6" transform="translate(7.2 66.420271) scale(0.126 -0.126)">
       <use xlink:href="#DejaVuSans-31" transform="translate(0 0.684375)"/>
       <use xlink:href="#DejaVuSans-30" transform="translate(63.623047 0.684375)"/>
       <use xlink:href="#DejaVuSans-34" transform="translate(128.203125 38.965625) scale(0.7)"/>
      </g>
     </g>
    </g>
    <g id="ytick_6">
     <g id="line2d_25">
      <path d="M 34.976 13.543139 
L 927.776 13.543139 
" clip-path="url(#p1ae64ff0ba)" style="fill: none; stroke: #546379; stroke-width: 1.12; stroke-linecap: square"/>
     </g>
     <g id="line2d_26"/>
     <g id="text_14">
      <!-- $\mathdefault{10^{5}}$ -->
      <g style="fill: #b1bed6" transform="translate(7.2 18.330154) scale(0.126 -0.126)">
       <defs>
        <path id="DejaVuSans-35" d="M 691 4666 
L 3169 4666 
L 3169 4134 
L 1269 4134 
L 1269 2991 
Q 1406 3038 1543 3061 
Q 1681 3084 1819 3084 
Q 2600 3084 3056 2656 
Q 3513 2228 3513 1497 
Q 3513 744 3044 326 
Q 2575 -91 1722 -91 
Q 1428 -91 1123 -41 
Q 819 9 494 109 
L 494 744 
Q 775 591 1075 516 
Q 1375 441 1709 441 
Q 2250 441 2565 725 
Q 2881 1009 2881 1497 
Q 2881 1984 2565 2268 
Q 2250 2553 1709 2553 
Q 1456 2553 1204 2497 
Q 953 2441 691 2322 
L 691 4666 
z
" transform="scale(0.015625)"/>
       </defs>
       <use xlink:href="#DejaVuSans-31" transform="translate(0 0.684375)"/>
       <use xlink:href="#DejaVuSans-30" transform="translate(63.623047 0.684375)"/>
       <use xlink:href="#DejaVuSans-35" transform="translate(128.203125 38.965625) scale(0.7)"/>
      </g>
     </g>
    </g>
    <g id="ytick_7">
     <g id="line2d_27"/>
    </g>
    <g id="ytick_8">
     <g id="line2d_28"/>
    </g>
    <g id="ytick_9">
     <g id="line2d_29"/>
    </g>
    <g id="ytick_10">
     <g id="line2d_30"/>
    </g>
    <g id="ytick_11">
     <g id="line2d_31"/>
    </g>
    <g id="ytick_12">
     <g id="line2d_32"/>
    </g>
    <g id="ytick_13">
     <g id="line2d_33"/>
    </g>
    <g id="ytick_14">
     <g id="line2d_34"/>
    </g>
    <g id="ytick_15">
     <g id="line2d_35"/>
    </g>
    <g id="ytick_16">
     <g id="line2d_36"/>
    </g>
    <g id="ytick_17">
     <g id="line2d_37"/>
    </g>
    <g id="ytick_18">
     <g id="line2d_38"/>
    </g>
    <g id="ytick_19">
     <g id="line2d_39"/>
    </g>
    <g id="ytick_20">
     <g id="line2d_40"/>
    </g>
    <g id="ytick_21">
     <g id="line2d_41"/>
    </g>
    <g id="ytick_22">
     <g id="line2d_42"/>
    </g>
    <g id="ytick_23">
     <g id="line2d_43"/>
    </g>
    <g id="ytick_24">
     <g id="line2d_44"/>
    </g>
    <g id="ytick_25">
     <g id="line2d_45"/>
    </g>
    <g id="ytick_26">
     <g id="line2d_46"/>
    </g>
    <g id="ytick_27">
     <g id="line2d_47"/>
    </g>
    <g id="ytick_28">
     <g id="line2d_48"/>
    </g>
    <g id="ytick_29">
     <g id="line2d_49"/>
    </g>
    <g id="ytick_30">
     <g id="line2d_50"/>
    </g>
    <g id="ytick_31">
     <g id="line2d_51"/>
    </g>
    <g id="ytick_32">
     <g id="line2d_52"/>
    </g>
    <g id="ytick_33">
     <g id="line2d_53"/>
    </g>
    <g id="ytick_34">
     <g id="line2d_54"/>
    </g>
    <g id="ytick_35">
     <g id="line2d_55"/>
    </g>
    <g id="ytick_36">
     <g id="line2d_56"/>
    </g>
    <g id="ytick_37">
     <g id="line2d_57"/>
    </g>
    <g id="ytick_38">
     <g id="line2d_58"/>
    </g>
    <g id="ytick_39">
     <g id="line2d_59"/>
    </g>
    <g id="ytick_40">
     <g id="line2d_60"/>
    </g>
    <g id="ytick_41">
     <g id="line2d_61"/>
    </g>
    <g id="ytick_42">
     <g id="line2d_62"/>
    </g>
    <g id="ytick_43">
     <g id="line2d_63"/>
    </g>
    <g id="ytick_44">
     <g id="line2d_64"/>
    </g>
    <g id="ytick_45">
     <g id="line2d_65"/>
    </g>
    <g id="ytick_46">
     <g id="line2d_66"/>
    </g>
    <g id="ytick_47">
     <g id="line2d_67"/>
    </g>
    <g id="ytick_48">
     <g id="line2d_68"/>
    </g>
    <g id="ytick_49">
     <g id="line2d_69"/>
    </g>
    <g id="ytick_50">
     <g id="line2d_70"/>
    </g>
    <g id="ytick_51">
     <g id="line2d_71"/>
    </g>
    <g id="ytick_52">
     <g id="line2d_72"/>
    </g>
    <g id="ytick_53">
     <g id="line2d_73"/>
    </g>
    <g id="ytick_54">
     <g id="line2d_74"/>
    </g>
   </g>
   <g id="line2d_75">
    <path d="M 75.557818 287.607273 
L 75.557818 282.946859 
L 76.213961 282.946859 
L 76.213961 277.791119 
L 76.870104 277.791119 
L 76.870104 279.139023 
L 77.526248 279.139023 
L 77.526248 280.579958 
L 78.182391 280.579958 
L 78.182391 279.847067 
L 78.838534 279.847067 
L 78.838534 280.579958 
L 80.15082 280.579958 
L 80.15082 282.127724 
L 80.806963 282.127724 
L 80.806963 284.688306 
L 82.119249 284.688306 
L 82.119249 282.946859 
L 82.775393 282.946859 
L 82.775393 282.127724 
L 83.431536 282.127724 
L 83.431536 282.946859 
L 84.087679 282.946859 
L 84.087679 281.339507 
L 84.743822 281.339507 
L 84.743822 279.139023 
L 86.056108 279.139023 
L 86.056108 277.791119 
L 86.712251 277.791119 
L 86.712251 275.331188 
L 87.368394 275.331188 
L 87.368394 273.130705 
L 88.024537 273.130705 
L 88.024537 274.201979 
L 88.680681 274.201979 
L 88.680681 271.140126 
L 89.336824 271.140126 
L 89.336824 270.670774 
L 89.992967 270.670774 
L 89.992967 255.735171 
L 91.305253 255.735171 
L 91.305253 254.629872 
L 91.961396 254.629872 
L 91.961396 252.386371 
L 92.617539 252.386371 
L 92.617539 252.974728 
L 93.273682 252.974728 
L 93.273682 256.663558 
L 93.929826 256.663558 
L 93.929826 253.993723 
L 94.585969 253.993723 
L 94.585969 254.629872 
L 95.242112 254.629872 
L 95.242112 255.735171 
L 95.898255 255.735171 
L 95.898255 256.663558 
L 96.554398 256.663558 
L 96.554398 255.963428 
L 97.210541 255.963428 
L 97.210541 256.90225 
L 97.866684 256.90225 
L 97.866684 258.916849 
L 98.522827 258.916849 
L 98.522827 256.427564 
L 99.178971 256.427564 
L 99.178971 258.654137 
L 100.491257 258.654137 
L 100.491257 260.002042 
L 101.1474 260.002042 
L 101.1474 259.725412 
L 101.803543 259.725412 
L 101.803543 254.415663 
L 102.459686 254.415663 
L 102.459686 250.185888 
L 103.115829 250.185888 
L 103.115829 247.266922 
L 103.771972 247.266922 
L 103.771972 241.950996 
L 104.428115 241.950996 
L 104.428115 224.322105 
L 105.084259 224.322105 
L 105.084259 227.474429 
L 105.740402 227.474429 
L 105.740402 225.515874 
L 106.396545 225.515874 
L 106.396545 214.740584 
L 107.052688 214.740584 
L 107.052688 209.371702 
L 107.708831 209.371702 
L 107.708831 213.412618 
L 108.364974 213.412618 
L 108.364974 212.562433 
L 109.021117 212.562433 
L 109.021117 208.8602 
L 109.67726 208.8602 
L 109.67726 206.604449 
L 110.333404 206.604449 
L 110.333404 192.443424 
L 110.989547 192.443424 
L 110.989547 181.39015 
L 111.64569 181.39015 
L 111.64569 187.917194 
L 112.301833 187.917194 
L 112.301833 192.641704 
L 112.957976 192.641704 
L 112.957976 196.899279 
L 113.614119 196.899279 
L 113.614119 194.12062 
L 114.270262 194.12062 
L 114.270262 194.395667 
L 114.926405 194.395667 
L 114.926405 196.429626 
L 115.582549 196.429626 
L 115.582549 195.957326 
L 116.238692 195.957326 
L 116.238692 197.338119 
L 116.894835 197.338119 
L 116.894835 198.506632 
L 117.550978 198.506632 
L 117.550978 198.085865 
L 118.207121 198.085865 
L 118.207121 198.98098 
L 118.863264 198.98098 
L 118.863264 198.727642 
L 119.519407 198.727642 
L 119.519407 198.028488 
L 120.17555 198.028488 
L 120.17555 202.98464 
L 120.831694 202.98464 
L 120.831694 206.626058 
L 121.487837 206.626058 
L 121.487837 206.050318 
L 122.14398 206.050318 
L 122.14398 203.240456 
L 122.800123 203.240456 
L 122.800123 202.535477 
L 123.456266 202.535477 
L 123.456266 203.351058 
L 124.112409 203.351058 
L 124.112409 207.018896 
L 124.768552 207.018896 
L 124.768552 209.396374 
L 125.424695 209.396374 
L 125.424695 209.870776 
L 126.080838 209.870776 
L 126.080838 214.08149 
L 126.736982 214.08149 
L 126.736982 215.921228 
L 127.393125 215.921228 
L 127.393125 220.2968 
L 128.049268 220.2968 
L 128.049268 215.954995 
L 128.705411 215.954995 
L 128.705411 218.427603 
L 129.361554 218.427603 
L 129.361554 220.632313 
L 130.017697 220.632313 
L 130.017697 220.131043 
L 130.67384 220.131043 
L 130.67384 221.276309 
L 131.329983 221.276309 
L 131.329983 224.221453 
L 131.986127 224.221453 
L 131.986127 224.98844 
L 132.64227 224.98844 
L 132.64227 234.118089 
L 133.298413 234.118089 
L 133.298413 228.932132 
L 133.954556 228.932132 
L 133.954556 230.364082 
L 134.610699 230.364082 
L 134.610699 228.558057 
L 135.266842 228.558057 
L 135.266842 229.570875 
L 135.922985 229.570875 
L 135.922985 229.766371 
L 136.579128 229.766371 
L 136.579128 230.296819 
L 137.235272 230.296819 
L 137.235272 234.037607 
L 137.891415 234.037607 
L 137.891415 235.278681 
L 138.547558 235.278681 
L 138.547558 235.024496 
L 139.203701 235.024496 
L 139.203701 233.718741 
L 139.859844 233.718741 
L 139.859844 230.096319 
L 140.515987 230.096319 
L 140.515987 230.635323 
L 141.17213 230.635323 
L 141.17213 230.229771 
L 141.828273 230.229771 
L 141.828273 229.313029 
L 142.484416 229.313029 
L 142.484416 228.682006 
L 143.14056 228.682006 
L 143.14056 225.145276 
L 143.796703 225.145276 
L 143.796703 223.774426 
L 144.452846 223.774426 
L 144.452846 222.720359 
L 145.108989 222.720359 
L 145.108989 218.889175 
L 145.765132 218.889175 
L 145.765132 213.174606 
L 146.421275 213.174606 
L 146.421275 213.05661 
L 147.077418 213.05661 
L 147.077418 213.233855 
L 147.733561 213.233855 
L 147.733561 215.322564 
L 148.389705 215.322564 
L 148.389705 214.997242 
L 149.045848 214.997242 
L 149.045848 217.643613 
L 149.701991 217.643613 
L 149.701991 217.827626 
L 150.358134 217.827626 
L 150.358134 216.607177 
L 151.014277 216.607177 
L 151.014277 217.13684 
L 152.326563 217.208488 
L 152.326563 221.495464 
L 152.982706 221.495464 
L 152.982706 222.580657 
L 153.63885 222.580657 
L 153.63885 219.68188 
L 154.294993 219.68188 
L 154.294993 220.463883 
L 154.951136 220.463883 
L 154.951136 221.189287 
L 155.607279 221.189287 
L 155.607279 220.172359 
L 156.263422 220.172359 
L 156.263422 220.463883 
L 156.919565 220.463883 
L 156.919565 218.618686 
L 157.575708 218.618686 
L 157.575708 219.440893 
L 158.231851 219.440893 
L 158.231851 221.189287 
L 158.887995 221.189287 
L 158.887995 221.363695 
L 159.544138 221.363695 
L 159.544138 220.632313 
L 160.856424 220.547928 
L 160.856424 221.232753 
L 161.512567 221.232753 
L 161.512567 220.505863 
L 162.824853 220.421987 
L 162.824853 219.400998 
L 163.480996 219.400998 
L 163.480996 219.601242 
L 164.137139 219.601242 
L 164.137139 220.007583 
L 164.793283 220.007583 
L 164.793283 219.641522 
L 165.449426 219.641522 
L 165.449426 219.966591 
L 166.761712 219.966591 
L 166.761712 220.172359 
L 167.417855 220.172359 
L 167.417855 219.844096 
L 169.386284 219.762831 
L 169.386284 219.641522 
L 170.042428 219.641522 
L 170.042428 219.281767 
L 170.698571 219.281767 
L 170.698571 218.16299 
L 172.010857 218.087998 
L 172.010857 215.653034 
L 172.667 215.653034 
L 172.667 214.708722 
L 173.323143 214.708722 
L 173.323143 214.455564 
L 173.979286 214.455564 
L 173.979286 214.645145 
L 174.635429 214.645145 
L 174.635429 214.236541 
L 175.291573 214.236541 
L 175.291573 214.08149 
L 175.947716 214.08149 
L 175.947716 213.412618 
L 176.603859 213.412618 
L 176.603859 210.959337 
L 177.260002 210.959337 
L 177.260002 207.040939 
L 177.916145 207.040939 
L 177.916145 206.909031 
L 178.572288 206.909031 
L 178.572288 208.573441 
L 179.228431 208.573441 
L 179.228431 208.220442 
L 179.884574 208.220442 
L 179.884574 205.654475 
L 180.540717 205.654475 
L 180.540717 203.480838 
L 181.196861 203.480838 
L 181.196861 202.803814 
L 181.853004 202.803814 
L 181.853004 201.580059 
L 182.509147 201.580059 
L 182.509147 198.172228 
L 183.16529 198.172228 
L 183.16529 205.367529 
L 183.821433 205.367529 
L 183.821433 203.932023 
L 184.477576 203.932023 
L 184.477576 204.08461 
L 185.133719 204.08461 
L 185.133719 204.844867 
L 185.789862 204.844867 
L 185.789862 203.406579 
L 187.102149 203.462249 
L 187.102149 202.376115 
L 187.758292 202.376115 
L 187.758292 201.027108 
L 188.414435 201.027108 
L 188.414435 201.614047 
L 189.070578 201.614047 
L 189.070578 201.310133 
L 189.726721 201.310133 
L 189.726721 201.109953 
L 190.382864 201.109953 
L 190.382864 200.47231 
L 191.039007 200.47231 
L 191.039007 201.580059 
L 191.695151 201.580059 
L 191.695151 201.922448 
L 192.351294 201.922448 
L 192.351294 202.130609 
L 193.007437 202.130609 
L 193.007437 202.446792 
L 193.66358 202.446792 
L 193.66358 202.875957 
L 194.319723 202.875957 
L 194.319723 204.046358 
L 194.975866 204.046358 
L 194.975866 203.799417 
L 195.632009 203.799417 
L 195.632009 203.970065 
L 196.944296 204.008177 
L 196.944296 203.780542 
L 197.600439 203.780542 
L 197.600439 202.411424 
L 198.256582 202.411424 
L 198.256582 201.546127 
L 198.912725 201.546127 
L 198.912725 201.04365 
L 200.225011 200.977558 
L 200.225011 200.279965 
L 200.881154 200.279965 
L 200.881154 199.55863 
L 201.537297 199.55863 
L 201.537297 199.176805 
L 202.19344 199.176805 
L 202.19344 199.435685 
L 203.505727 199.328698 
L 203.505727 199.713337 
L 204.16187 199.713337 
L 204.16187 199.405062 
L 204.818013 199.405062 
L 204.818013 199.604922 
L 206.130299 199.57405 
L 206.130299 198.891216 
L 206.786442 198.891216 
L 206.786442 198.418878 
L 207.442585 198.418878 
L 207.442585 196.710149 
L 208.098729 196.710149 
L 208.098729 194.662188 
L 208.754872 194.662188 
L 208.754872 193.010178 
L 209.411015 193.010178 
L 209.411015 191.65805 
L 210.067158 191.65805 
L 210.067158 190.408043 
L 210.723301 190.408043 
L 210.723301 189.88748 
L 211.379444 189.88748 
L 211.379444 187.645326 
L 212.035587 187.645326 
L 212.035587 185.005137 
L 212.69173 185.005137 
L 212.69173 185.174749 
L 213.347874 185.174749 
L 213.347874 182.59988 
L 214.004017 182.59988 
L 214.004017 182.139654 
L 214.66016 182.139654 
L 214.66016 180.191717 
L 215.316303 180.191717 
L 215.316303 175.931475 
L 215.972446 175.931475 
L 215.972446 174.21391 
L 216.628589 174.21391 
L 216.628589 173.644646 
L 217.284732 173.644646 
L 217.284732 171.422781 
L 217.940875 171.422781 
L 217.940875 165.188286 
L 218.597018 165.188286 
L 218.597018 162.792206 
L 219.253162 162.792206 
L 219.253162 159.441738 
L 219.909305 159.441738 
L 219.909305 152.173899 
L 220.565448 152.173899 
L 220.565448 147.570959 
L 221.221591 147.570959 
L 221.221591 153.169791 
L 221.877734 153.169791 
L 221.877734 165.837464 
L 222.533877 165.837464 
L 222.533877 154.194473 
L 223.19002 154.194473 
L 223.19002 150.416515 
L 223.846163 150.416515 
L 223.846163 152.576325 
L 224.502307 152.576325 
L 224.502307 154.534423 
L 225.15845 154.534423 
L 225.15845 154.717299 
L 225.814593 154.717299 
L 225.814593 155.318316 
L 226.470736 155.318316 
L 226.470736 154.358445 
L 227.126879 154.358445 
L 227.126879 153.435677 
L 228.439165 153.540944 
L 228.439165 152.016657 
L 229.751452 151.967662 
L 229.751452 153.588659 
L 230.407595 153.588659 
L 230.407595 154.185693 
L 231.063738 154.185693 
L 231.063738 156.576834 
L 231.719881 156.576834 
L 231.719881 157.817667 
L 232.376024 157.817667 
L 232.376024 156.324435 
L 233.032167 156.324435 
L 233.032167 156.138563 
L 233.68831 156.138563 
L 233.68831 156.994354 
L 234.344453 156.994354 
L 234.344453 158.39588 
L 235.000597 158.39588 
L 235.000597 162.463463 
L 235.65674 162.463463 
L 235.65674 163.410955 
L 236.312883 163.410955 
L 236.312883 159.107996 
L 236.969026 159.107996 
L 236.969026 158.438876 
L 237.625169 158.438876 
L 237.625169 160.15601 
L 238.281312 160.15601 
L 238.281312 158.992767 
L 238.937455 158.992767 
L 238.937455 158.086778 
L 239.593598 158.086778 
L 239.593598 156.870216 
L 240.249741 156.870216 
L 240.249741 156.455145 
L 240.905885 156.455145 
L 240.905885 157.236739 
L 241.562028 157.236739 
L 241.562028 155.94669 
L 242.218171 155.94669 
L 242.218171 157.874145 
L 242.874314 157.874145 
L 242.874314 155.741427 
L 243.530457 155.741427 
L 243.530457 155.209254 
L 244.1866 155.209254 
L 244.1866 154.268365 
L 244.842743 154.268365 
L 244.842743 152.319486 
L 245.498886 152.319486 
L 245.498886 154.425817 
L 246.15503 154.425817 
L 246.15503 153.657012 
L 246.811173 153.657012 
L 246.811173 153.31241 
L 247.467316 153.31241 
L 247.467316 152.801832 
L 248.123459 152.801832 
L 248.123459 153.501832 
L 248.779602 153.501832 
L 248.779602 153.211636 
L 249.435745 153.211636 
L 249.435745 152.94526 
L 250.091888 152.94526 
L 250.091888 153.670709 
L 250.748031 153.670709 
L 250.748031 153.300628 
L 251.404175 153.300628 
L 251.404175 152.724755 
L 252.060318 152.724755 
L 252.060318 151.057953 
L 252.716461 151.057953 
L 252.716461 144.839111 
L 253.372604 144.839111 
L 253.372604 143.830377 
L 254.028747 143.830377 
L 254.028747 142.628531 
L 254.68489 142.628531 
L 254.68489 143.025969 
L 255.341033 143.025969 
L 255.341033 138.46125 
L 255.997176 138.46125 
L 255.997176 132.878094 
L 256.65332 132.878094 
L 256.65332 129.229082 
L 257.309463 129.229082 
L 257.309463 125.271215 
L 257.965606 125.271215 
L 257.965606 116.678174 
L 258.621749 116.678174 
L 258.621749 114.007092 
L 259.277892 114.007092 
L 259.277892 107.097945 
L 259.934035 107.097945 
L 259.934035 108.7002 
L 260.590178 108.7002 
L 260.590178 116.997035 
L 261.246321 116.997035 
L 261.246321 112.467387 
L 261.902464 112.467387 
L 261.902464 112.801105 
L 262.558608 112.801105 
L 262.558608 117.615887 
L 263.214751 117.615887 
L 263.214751 118.401842 
L 263.870894 118.401842 
L 263.870894 116.469138 
L 264.527037 116.469138 
L 264.527037 116.239051 
L 265.18318 116.239051 
L 265.18318 113.646646 
L 265.839323 113.646646 
L 265.839323 113.784193 
L 266.495466 113.784193 
L 266.495466 113.264583 
L 267.151609 113.264583 
L 267.151609 113.94079 
L 267.807753 113.94079 
L 267.807753 113.670096 
L 268.463896 113.670096 
L 268.463896 114.91202 
L 269.120039 114.91202 
L 269.120039 114.763146 
L 269.776182 114.763146 
L 269.776182 113.942579 
L 270.432325 113.942579 
L 270.432325 114.885797 
L 271.088468 114.885797 
L 271.088468 117.552897 
L 271.744611 117.552897 
L 271.744611 120.046886 
L 272.400754 120.046886 
L 272.400754 119.374435 
L 273.056898 119.374435 
L 273.056898 121.11816 
L 273.713041 121.11816 
L 273.713041 121.850949 
L 274.369184 121.850949 
L 274.369184 121.555919 
L 275.025327 121.555919 
L 275.025327 118.065647 
L 275.68147 118.065647 
L 275.68147 119.047464 
L 276.993756 119.011267 
L 276.993756 119.549219 
L 277.649899 119.549219 
L 277.649899 121.357755 
L 278.306042 121.357755 
L 278.306042 120.892689 
L 278.962186 120.892689 
L 278.962186 124.621879 
L 279.618329 124.621879 
L 279.618329 126.911587 
L 280.274472 126.911587 
L 280.274472 126.032391 
L 280.930615 126.032391 
L 280.930615 130.545125 
L 281.586758 130.545125 
L 281.586758 125.957739 
L 282.242901 125.957739 
L 282.242901 124.960912 
L 282.899044 124.960912 
L 282.899044 124.685057 
L 283.555187 124.685057 
L 283.555187 125.8743 
L 284.211331 125.8743 
L 284.211331 126.306419 
L 284.867474 126.306419 
L 284.867474 127.024614 
L 286.17976 126.983529 
L 286.17976 126.753805 
L 286.835903 126.753805 
L 286.835903 126.441306 
L 287.492046 126.441306 
L 287.492046 124.702165 
L 288.148189 124.702165 
L 288.148189 123.0655 
L 288.804332 123.0655 
L 288.804332 121.06417 
L 289.460476 121.06417 
L 289.460476 119.349585 
L 290.116619 119.349585 
L 290.116619 118.354745 
L 290.772762 118.354745 
L 290.772762 118.758662 
L 291.428905 118.758662 
L 291.428905 120.68833 
L 292.085048 120.68833 
L 292.085048 120.115475 
L 292.741191 120.115475 
L 292.741191 120.709171 
L 293.397334 120.709171 
L 293.397334 121.804715 
L 294.053477 121.804715 
L 294.053477 120.392453 
L 294.709621 120.392453 
L 294.709621 118.870338 
L 295.365764 118.870338 
L 295.365764 119.561258 
L 296.021907 119.561258 
L 296.021907 119.240923 
L 296.67805 119.240923 
L 296.67805 119.570627 
L 297.334193 119.570627 
L 297.334193 119.373109 
L 297.990336 119.373109 
L 297.990336 119.692801 
L 298.646479 119.692801 
L 298.646479 120.613263 
L 299.302622 120.613263 
L 299.302622 121.026818 
L 299.958765 121.026818 
L 299.958765 120.796292 
L 301.271052 120.779264 
L 301.271052 121.499685 
L 301.927195 121.499685 
L 301.927195 123.225547 
L 302.583338 123.225547 
L 302.583338 123.428252 
L 303.239481 123.428252 
L 303.239481 123.867188 
L 304.551767 123.925646 
L 304.551767 125.211502 
L 305.20791 125.211502 
L 305.20791 124.796939 
L 305.864054 124.796939 
L 305.864054 125.34389 
L 306.520197 125.34389 
L 306.520197 125.186964 
L 307.17634 125.186964 
L 307.17634 126.220198 
L 307.832483 126.220198 
L 307.832483 128.800395 
L 308.488626 128.800395 
L 308.488626 128.334966 
L 309.144769 128.334966 
L 309.144769 130.271288 
L 309.800912 130.271288 
L 309.800912 131.124751 
L 310.457055 131.124751 
L 310.457055 132.622709 
L 311.113199 132.622709 
L 311.113199 130.948014 
L 311.769342 130.948014 
L 311.769342 129.131527 
L 312.425485 129.131527 
L 312.425485 129.419134 
L 313.081628 129.419134 
L 313.081628 131.223913 
L 313.737771 131.223913 
L 313.737771 131.595558 
L 314.393914 131.595558 
L 314.393914 132.390804 
L 315.050057 132.390804 
L 315.050057 132.863542 
L 315.7062 132.863542 
L 315.7062 131.832594 
L 316.362343 131.832594 
L 316.362343 127.831912 
L 317.018487 127.831912 
L 317.018487 129.396086 
L 317.67463 129.396086 
L 317.67463 131.26664 
L 318.330773 131.26664 
L 318.330773 130.231663 
L 318.986916 130.231663 
L 318.986916 130.098275 
L 319.643059 130.098275 
L 319.643059 129.952524 
L 320.299202 129.952524 
L 320.299202 130.205474 
L 320.955345 130.205474 
L 320.955345 131.721522 
L 321.611488 131.721522 
L 321.611488 131.188861 
L 322.267632 131.188861 
L 322.267632 134.03214 
L 322.923775 134.03214 
L 322.923775 132.753156 
L 323.579918 132.753156 
L 323.579918 132.881891 
L 324.236061 132.881891 
L 324.236061 134.116585 
L 324.892204 134.116585 
L 324.892204 135.933353 
L 325.548347 135.933353 
L 325.548347 135.009075 
L 326.20449 135.009075 
L 326.20449 137.093923 
L 326.860633 137.093923 
L 326.860633 142.297051 
L 327.516777 142.297051 
L 327.516777 141.728603 
L 328.17292 141.728603 
L 328.17292 140.083755 
L 328.829063 140.083755 
L 328.829063 137.576515 
L 329.485206 137.576515 
L 329.485206 141.417664 
L 330.141349 141.417664 
L 330.141349 140.718863 
L 330.797492 140.718863 
L 330.797492 140.976549 
L 331.453635 140.976549 
L 331.453635 141.126312 
L 332.109778 141.126312 
L 332.109778 140.013277 
L 332.765922 140.013277 
L 332.765922 139.032061 
L 333.422065 139.032061 
L 333.422065 139.534308 
L 334.078208 139.534308 
L 334.078208 138.386142 
L 334.734351 138.386142 
L 334.734351 137.064515 
L 335.390494 137.064515 
L 335.390494 136.685929 
L 336.046637 136.685929 
L 336.046637 135.226775 
L 336.70278 135.226775 
L 336.70278 135.628633 
L 337.358923 135.628633 
L 337.358923 137.689362 
L 338.015066 137.689362 
L 338.015066 139.098447 
L 338.67121 139.098447 
L 338.67121 138.430679 
L 339.327353 138.430679 
L 339.327353 138.971815 
L 339.983496 138.971815 
L 339.983496 137.815644 
L 340.639639 137.815644 
L 340.639639 139.269639 
L 341.295782 139.269639 
L 341.295782 141.062531 
L 342.608068 141.097211 
L 342.608068 139.893386 
L 343.264211 139.893386 
L 343.264211 140.757591 
L 344.576498 140.81952 
L 344.576498 139.575259 
L 345.232641 139.575259 
L 345.232641 139.777703 
L 345.888784 139.777703 
L 345.888784 139.446579 
L 346.544927 139.446579 
L 346.544927 139.759217 
L 347.20107 139.759217 
L 347.20107 140.291213 
L 347.857213 140.291213 
L 347.857213 139.724931 
L 348.513356 139.724931 
L 348.513356 139.94126 
L 349.1695 139.94126 
L 349.1695 140.569239 
L 349.825643 140.569239 
L 349.825643 141.07471 
L 350.481786 141.07471 
L 350.481786 140.631529 
L 351.137929 140.631529 
L 351.137929 140.454309 
L 351.794072 140.454309 
L 351.794072 138.678179 
L 352.450215 138.678179 
L 352.450215 139.119769 
L 353.106358 139.119769 
L 353.106358 139.511689 
L 353.762501 139.511689 
L 353.762501 138.796315 
L 354.418644 138.796315 
L 354.418644 138.28915 
L 355.074788 138.28915 
L 355.074788 137.183175 
L 355.730931 137.183175 
L 355.730931 135.94581 
L 356.387074 135.94581 
L 356.387074 135.727053 
L 357.043217 135.727053 
L 357.043217 136.554198 
L 358.355503 136.461577 
L 358.355503 135.374606 
L 359.011646 135.374606 
L 359.011646 135.688643 
L 359.667789 135.688643 
L 359.667789 136.226233 
L 360.323933 136.226233 
L 360.323933 136.360391 
L 360.980076 136.360391 
L 360.980076 136.993487 
L 361.636219 136.993487 
L 361.636219 137.742818 
L 362.292362 137.742818 
L 362.292362 140.761283 
L 362.948505 140.761283 
L 362.948505 140.587541 
L 363.604648 140.587541 
L 363.604648 140.866783 
L 364.260791 140.866783 
L 364.260791 140.395267 
L 365.573078 140.351773 
L 365.573078 139.1659 
L 366.229221 139.1659 
L 366.229221 139.992802 
L 366.885364 139.992802 
L 366.885364 140.570154 
L 367.541507 140.570154 
L 367.541507 140.403432 
L 368.19765 140.403432 
L 368.19765 140.057856 
L 368.853793 140.057856 
L 368.853793 139.60406 
L 369.509936 139.60406 
L 369.509936 139.724053 
L 370.166079 139.724053 
L 370.166079 138.945565 
L 371.478366 139.03716 
L 371.478366 138.471174 
L 372.134509 138.471174 
L 372.134509 137.773998 
L 372.790652 137.773998 
L 372.790652 136.735353 
L 373.446795 136.735353 
L 373.446795 135.816467 
L 374.102938 135.816467 
L 374.102938 132.994234 
L 374.759081 132.994234 
L 374.759081 128.626707 
L 375.415224 128.626707 
L 375.415224 129.549321 
L 376.071367 129.549321 
L 376.071367 134.252681 
L 376.727511 134.252681 
L 376.727511 133.588101 
L 377.383654 133.588101 
L 377.383654 133.139203 
L 378.039797 133.139203 
L 378.039797 133.294867 
L 378.69594 133.294867 
L 378.69594 131.17719 
L 379.352083 131.17719 
L 379.352083 130.911693 
L 380.008226 130.911693 
L 380.008226 129.553099 
L 380.664369 129.553099 
L 380.664369 128.016633 
L 381.320512 128.016633 
L 381.320512 127.185909 
L 381.976656 127.185909 
L 381.976656 126.097245 
L 382.632799 126.097245 
L 382.632799 126.948242 
L 383.288942 126.948242 
L 383.288942 126.146706 
L 383.945085 126.146706 
L 383.945085 127.193621 
L 385.257371 127.216292 
L 385.257371 127.385891 
L 385.913514 127.385891 
L 385.913514 126.473417 
L 386.569657 126.473417 
L 386.569657 127.371786 
L 387.225801 127.371786 
L 387.225801 129.63205 
L 387.881944 129.63205 
L 387.881944 129.849349 
L 388.538087 129.849349 
L 388.538087 129.300416 
L 389.19423 129.300416 
L 389.19423 130.119338 
L 389.850373 130.119338 
L 389.850373 130.575711 
L 390.506516 130.575711 
L 390.506516 130.208259 
L 391.162659 130.208259 
L 391.162659 130.040736 
L 391.818802 130.040736 
L 391.818802 128.901643 
L 392.474945 128.901643 
L 392.474945 127.842353 
L 393.787232 127.878687 
L 393.787232 127.272833 
L 394.443375 127.272833 
L 394.443375 127.71741 
L 395.099518 127.71741 
L 395.099518 128.565354 
L 395.755661 128.565354 
L 395.755661 128.041219 
L 397.067947 128.091988 
L 397.067947 128.448819 
L 397.72409 128.448819 
L 397.72409 128.021648 
L 399.036377 127.993078 
L 399.036377 128.154991 
L 399.69252 128.154991 
L 399.69252 127.915583 
L 401.004806 127.843845 
L 401.004806 127.710984 
L 401.660949 127.710984 
L 401.660949 127.376648 
L 402.317092 127.376648 
L 402.317092 127.062905 
L 402.973235 127.062905 
L 402.973235 126.311502 
L 403.629379 126.311502 
L 403.629379 126.620175 
L 404.285522 126.620175 
L 404.285522 126.26165 
L 404.941665 126.26165 
L 404.941665 126.429683 
L 405.597808 126.429683 
L 405.597808 125.911444 
L 406.253951 125.911444 
L 406.253951 126.132039 
L 406.910094 126.132039 
L 406.910094 126.257962 
L 407.566237 126.257962 
L 407.566237 126.717961 
L 408.22238 126.717961 
L 408.22238 126.460846 
L 408.878524 126.460846 
L 408.878524 123.733188 
L 409.534667 123.733188 
L 409.534667 122.670084 
L 410.19081 122.670084 
L 410.19081 120.966622 
L 410.846953 120.966622 
L 410.846953 121.174097 
L 411.503096 121.174097 
L 411.503096 117.61924 
L 412.159239 117.61924 
L 412.159239 115.677182 
L 412.815382 115.677182 
L 412.815382 120.643892 
L 413.471525 120.643892 
L 413.471525 119.366811 
L 414.127668 119.366811 
L 414.127668 118.151456 
L 414.783812 118.151456 
L 414.783812 117.717314 
L 415.439955 117.717314 
L 415.439955 118.306808 
L 417.408384 118.359797 
L 417.408384 118.165532 
L 418.064527 118.165532 
L 418.064527 118.354745 
L 418.72067 118.354745 
L 418.72067 118.543139 
L 419.376813 118.543139 
L 419.376813 120.199459 
L 420.032957 120.199459 
L 420.032957 121.363953 
L 420.6891 121.363953 
L 420.6891 120.921588 
L 422.001386 120.980223 
L 422.001386 121.429697 
L 422.657529 121.429697 
L 422.657529 121.19977 
L 423.969815 121.25375 
L 423.969815 121.40849 
L 425.282102 121.390226 
L 425.282102 120.109979 
L 425.938245 120.109979 
L 425.938245 119.651773 
L 426.594388 119.651773 
L 426.594388 120.081495 
L 427.906674 120.13919 
L 427.906674 120.599196 
L 428.562817 120.599196 
L 428.562817 120.157081 
L 430.531246 120.143661 
L 430.531246 119.894739 
L 431.18739 119.894739 
L 431.18739 119.202745 
L 431.843533 119.202745 
L 431.843533 119.07784 
L 432.499676 119.07784 
L 432.499676 119.409939 
L 433.155819 119.409939 
L 433.155819 118.916344 
L 433.811962 118.916344 
L 433.811962 117.597305 
L 434.468105 117.597305 
L 434.468105 116.393693 
L 435.124248 116.393693 
L 435.124248 117.069054 
L 435.780391 117.069054 
L 435.780391 116.540804 
L 436.436535 116.540804 
L 436.436535 117.161291 
L 437.092678 117.161291 
L 437.092678 116.101411 
L 439.061107 116.094893 
L 439.061107 116.29562 
L 439.71725 116.29562 
L 439.71725 115.373603 
L 441.029536 115.277741 
L 441.029536 115.231199 
L 441.68568 115.231199 
L 441.68568 115.023165 
L 442.341823 115.023165 
L 442.341823 114.619285 
L 442.997966 114.619285 
L 442.997966 111.603074 
L 443.654109 111.603074 
L 443.654109 111.231397 
L 444.310252 111.231397 
L 444.310252 110.470919 
L 444.966395 110.470919 
L 444.966395 107.559596 
L 445.622538 107.559596 
L 445.622538 111.681834 
L 446.278681 111.681834 
L 446.278681 114.240173 
L 446.934825 114.240173 
L 446.934825 113.60083 
L 447.590968 113.60083 
L 447.590968 112.025279 
L 448.247111 112.025279 
L 448.247111 112.308178 
L 448.903254 112.308178 
L 448.903254 111.496172 
L 449.559397 111.496172 
L 449.559397 110.072553 
L 450.21554 110.072553 
L 450.21554 109.493236 
L 450.871683 109.493236 
L 450.871683 110.031817 
L 451.527826 110.031817 
L 451.527826 109.698325 
L 452.183969 109.698325 
L 452.183969 108.614069 
L 452.840113 108.614069 
L 452.840113 107.263442 
L 453.496256 107.263442 
L 453.496256 106.797688 
L 454.152399 106.797688 
L 454.152399 105.485239 
L 454.808542 105.485239 
L 454.808542 104.714344 
L 455.464685 104.714344 
L 455.464685 106.053662 
L 456.120828 106.053662 
L 456.120828 105.218589 
L 456.776971 105.218589 
L 456.776971 108.343512 
L 457.433114 108.343512 
L 457.433114 107.487415 
L 458.089258 107.487415 
L 458.089258 110.536611 
L 458.745401 110.536611 
L 458.745401 108.908857 
L 459.401544 108.908857 
L 459.401544 108.116214 
L 460.057687 108.116214 
L 460.057687 106.024949 
L 460.71383 106.024949 
L 460.71383 105.742387 
L 461.369973 105.742387 
L 461.369973 106.437881 
L 462.026116 106.437881 
L 462.026116 105.894662 
L 462.682259 105.894662 
L 462.682259 105.344883 
L 463.338403 105.344883 
L 463.338403 104.437182 
L 463.994546 104.437182 
L 463.994546 103.381479 
L 464.650689 103.381479 
L 464.650689 100.743079 
L 465.306832 100.743079 
L 465.306832 99.250625 
L 465.962975 99.250625 
L 465.962975 98.728713 
L 466.619118 98.728713 
L 466.619118 98.530902 
L 467.275261 98.530902 
L 467.275261 95.154695 
L 467.931404 95.154695 
L 467.931404 91.252792 
L 468.587547 91.252792 
L 468.587547 93.472076 
L 469.243691 93.472076 
L 469.243691 91.352735 
L 469.899834 91.352735 
L 469.899834 88.985847 
L 470.555977 88.985847 
L 470.555977 88.032807 
L 471.21212 88.032807 
L 471.21212 88.932679 
L 471.868263 88.932679 
L 471.868263 89.529558 
L 472.524406 89.529558 
L 472.524406 89.301053 
L 473.180549 89.301053 
L 473.180549 90.569439 
L 473.836692 90.569439 
L 473.836692 90.24098 
L 475.148979 90.173381 
L 475.148979 90.562512 
L 475.805122 90.562512 
L 475.805122 92.228823 
L 476.461265 92.228823 
L 476.461265 95.538194 
L 477.117408 95.538194 
L 477.117408 92.646165 
L 477.773551 92.646165 
L 477.773551 88.608271 
L 478.429694 88.608271 
L 478.429694 89.318028 
L 479.085837 89.318028 
L 479.085837 87.75551 
L 480.398124 87.802105 
L 480.398124 84.11081 
L 481.054267 84.11081 
L 481.054267 81.468272 
L 481.71041 81.468272 
L 481.71041 78.894844 
L 482.366553 78.894844 
L 482.366553 80.487081 
L 483.022696 80.487081 
L 483.022696 79.10606 
L 483.678839 79.10606 
L 483.678839 78.89074 
L 484.334982 78.89074 
L 484.334982 76.495947 
L 484.991126 76.495947 
L 484.991126 78.850884 
L 485.647269 78.850884 
L 485.647269 79.110399 
L 486.303412 79.110399 
L 486.303412 81.486096 
L 486.959555 81.486096 
L 486.959555 82.520029 
L 487.615698 82.520029 
L 487.615698 82.965384 
L 488.271841 82.965384 
L 488.271841 81.128446 
L 488.927984 81.128446 
L 488.927984 79.929675 
L 489.584127 79.929675 
L 489.584127 79.21938 
L 490.24027 79.21938 
L 490.24027 78.59319 
L 490.896414 78.59319 
L 490.896414 76.86616 
L 491.552557 76.86616 
L 491.552557 73.403733 
L 492.864843 73.383671 
L 492.864843 72.650921 
L 493.520986 72.650921 
L 493.520986 73.118737 
L 494.177129 73.118737 
L 494.177129 70.901707 
L 494.833272 70.901707 
L 494.833272 68.018126 
L 495.489415 68.018126 
L 495.489415 67.729645 
L 496.145559 67.729645 
L 496.145559 72.688154 
L 496.801702 72.688154 
L 496.801702 66.639107 
L 497.457845 66.639107 
L 497.457845 65.669205 
L 498.770131 65.745432 
L 498.770131 61.803115 
L 499.426274 61.803115 
L 499.426274 59.808766 
L 500.082417 59.808766 
L 500.082417 54.840075 
L 500.73856 54.840075 
L 500.73856 53.069224 
L 501.394704 53.069224 
L 501.394704 51.291013 
L 502.050847 51.291013 
L 502.050847 48.325151 
L 502.70699 48.325151 
L 502.70699 54.941883 
L 503.363133 54.941883 
L 503.363133 52.241718 
L 504.019276 52.241718 
L 504.019276 56.785649 
L 504.675419 56.785649 
L 504.675419 53.110442 
L 505.331562 53.110442 
L 505.331562 51.566797 
L 505.987705 51.566797 
L 505.987705 55.699919 
L 506.643848 55.699919 
L 506.643848 55.281899 
L 507.299992 55.281899 
L 507.299992 58.70247 
L 507.956135 58.70247 
L 507.956135 59.965096 
L 508.612278 59.965096 
L 508.612278 58.839302 
L 509.268421 58.839302 
L 509.268421 61.211484 
L 509.924564 61.211484 
L 509.924564 65.772711 
L 511.23685 65.663454 
L 511.23685 64.077142 
L 511.892993 64.077142 
L 511.892993 61.263619 
L 512.549137 61.263619 
L 512.549137 59.180789 
L 513.20528 59.180789 
L 513.20528 62.269921 
L 513.861423 62.269921 
L 513.861423 60.950843 
L 514.517566 60.950843 
L 514.517566 58.683747 
L 515.173709 58.683747 
L 515.173709 63.093966 
L 515.829852 63.093966 
L 515.829852 63.534221 
L 516.485995 63.534221 
L 516.485995 65.53011 
L 517.142138 65.53011 
L 517.142138 64.04376 
L 517.798282 64.04376 
L 517.798282 64.944721 
L 518.454425 64.944721 
L 518.454425 66.42301 
L 519.110568 66.42301 
L 519.110568 69.603507 
L 519.766711 69.603507 
L 519.766711 69.728934 
L 521.078997 69.735859 
L 521.078997 66.568942 
L 522.391283 66.537381 
L 522.391283 63.995412 
L 523.047427 63.995412 
L 523.047427 64.137285 
L 523.70357 64.137285 
L 523.70357 62.929096 
L 524.359713 62.929096 
L 524.359713 62.15485 
L 525.015856 62.15485 
L 525.015856 62.994174 
L 525.671999 62.994174 
L 525.671999 65.282557 
L 526.328142 65.282557 
L 526.328142 65.098737 
L 526.984285 65.098737 
L 526.984285 65.67108 
L 527.640428 65.67108 
L 527.640428 67.608435 
L 528.296571 67.608435 
L 528.296571 68.078977 
L 528.952715 68.078977 
L 528.952715 67.670388 
L 530.265001 67.654193 
L 530.265001 67.322283 
L 530.921144 67.322283 
L 530.921144 70.460669 
L 531.577287 70.460669 
L 531.577287 70.666678 
L 532.23343 70.666678 
L 532.23343 69.808575 
L 532.889573 69.808575 
L 532.889573 71.762382 
L 533.545716 71.762382 
L 533.545716 72.730535 
L 534.20186 72.730535 
L 534.20186 70.227908 
L 535.514146 70.221133 
L 535.514146 71.186183 
L 536.170289 71.186183 
L 536.170289 71.453286 
L 536.826432 71.453286 
L 536.826432 68.003614 
L 538.138718 67.903129 
L 538.138718 66.451399 
L 538.794861 66.451399 
L 538.794861 65.850699 
L 539.451005 65.850699 
L 539.451005 67.880273 
L 540.107148 67.880273 
L 540.107148 69.940589 
L 540.763291 69.940589 
L 540.763291 71.523558 
L 541.419434 71.523558 
L 541.419434 71.380452 
L 542.075577 71.380452 
L 542.075577 70.673439 
L 542.73172 70.673439 
L 542.73172 70.547028 
L 543.387863 70.547028 
L 543.387863 69.379208 
L 544.044006 69.379208 
L 544.044006 69.026552 
L 544.70015 69.026552 
L 544.70015 68.037416 
L 545.356293 68.037416 
L 545.356293 71.670928 
L 546.012436 71.670928 
L 546.012436 71.196844 
L 546.668579 71.196844 
L 546.668579 70.638726 
L 547.980865 70.643066 
L 547.980865 70.363846 
L 548.637008 70.363846 
L 548.637008 70.220913 
L 549.293151 70.220913 
L 549.293151 70.561915 
L 549.949294 70.561915 
L 549.949294 70.395054 
L 551.261581 70.371398 
L 551.261581 71.398812 
L 551.917724 71.398812 
L 551.917724 70.599419 
L 553.23001 70.649916 
L 553.23001 70.719887 
L 553.886153 70.719887 
L 553.886153 71.277655 
L 554.542296 71.277655 
L 554.542296 71.080757 
L 555.198439 71.080757 
L 555.198439 70.512269 
L 555.854583 70.512269 
L 555.854583 70.926266 
L 556.510726 70.926266 
L 556.510726 73.525029 
L 557.166869 73.525029 
L 557.166869 76.751226 
L 557.823012 76.751226 
L 557.823012 79.004047 
L 558.479155 79.004047 
L 558.479155 81.685729 
L 559.135298 81.685729 
L 559.135298 79.81055 
L 559.791441 79.81055 
L 559.791441 82.146119 
L 560.447584 82.146119 
L 560.447584 83.037893 
L 561.103728 83.037893 
L 561.103728 84.736712 
L 561.759871 84.736712 
L 561.759871 83.224386 
L 562.416014 83.224386 
L 562.416014 81.299917 
L 563.072157 81.299917 
L 563.072157 81.723569 
L 563.7283 81.723569 
L 563.7283 82.005055 
L 564.384443 82.005055 
L 564.384443 81.132005 
L 565.040586 81.132005 
L 565.040586 80.398825 
L 565.696729 80.398825 
L 565.696729 82.704111 
L 566.352872 82.704111 
L 566.352872 82.497615 
L 567.009016 82.497615 
L 567.009016 82.82198 
L 567.665159 82.82198 
L 567.665159 83.044238 
L 568.977445 83.10867 
L 568.977445 83.738865 
L 570.289731 83.823178 
L 570.289731 84.196702 
L 570.945874 84.196702 
L 570.945874 82.800447 
L 571.602017 82.800447 
L 571.602017 82.923202 
L 572.258161 82.923202 
L 572.258161 81.157414 
L 572.914304 81.157414 
L 572.914304 80.053772 
L 573.570447 80.053772 
L 573.570447 81.659669 
L 574.882733 81.761531 
L 574.882733 81.369708 
L 576.195019 81.40052 
L 576.195019 81.104451 
L 576.851162 81.104451 
L 576.851162 80.618795 
L 578.819592 80.518475 
L 578.819592 80.182519 
L 579.475735 80.182519 
L 579.475735 76.483909 
L 580.131878 76.483909 
L 580.131878 75.016529 
L 580.788021 75.016529 
L 580.788021 75.80772 
L 581.444164 75.80772 
L 581.444164 75.304147 
L 582.100307 75.304147 
L 582.100307 74.856324 
L 582.756451 74.856324 
L 582.756451 74.370653 
L 583.412594 74.370653 
L 583.412594 74.887779 
L 584.068737 74.887779 
L 584.068737 74.540563 
L 584.72488 74.540563 
L 584.72488 73.430243 
L 585.381023 73.430243 
L 585.381023 71.124404 
L 586.037166 71.124404 
L 586.037166 66.312762 
L 586.693309 66.312762 
L 586.693309 68.306307 
L 587.349452 68.306307 
L 587.349452 67.293808 
L 588.005595 67.293808 
L 588.005595 64.435418 
L 588.661739 64.435418 
L 588.661739 65.594214 
L 589.317882 65.594214 
L 589.317882 65.944377 
L 589.974025 65.944377 
L 589.974025 66.298134 
L 590.630168 66.298134 
L 590.630168 66.509956 
L 591.286311 66.509956 
L 591.286311 64.162423 
L 591.942454 64.162423 
L 591.942454 63.190052 
L 592.598597 63.190052 
L 592.598597 59.99792 
L 593.25474 59.99792 
L 593.25474 59.39195 
L 593.910884 59.39195 
L 593.910884 60.458264 
L 594.567027 60.458264 
L 594.567027 59.727987 
L 595.22317 59.727987 
L 595.22317 56.828349 
L 595.879313 56.828349 
L 595.879313 58.916673 
L 596.535456 58.916673 
L 596.535456 62.324856 
L 597.191599 62.324856 
L 597.191599 60.441115 
L 597.847742 60.441115 
L 597.847742 61.895607 
L 598.503885 61.895607 
L 598.503885 62.701606 
L 599.160029 62.701606 
L 599.160029 60.555565 
L 599.816172 60.555565 
L 599.816172 58.77673 
L 600.472315 58.77673 
L 600.472315 59.113595 
L 601.128458 59.113595 
L 601.128458 61.597864 
L 601.784601 61.597864 
L 601.784601 60.980255 
L 602.440744 60.980255 
L 602.440744 61.400682 
L 603.096887 61.400682 
L 603.096887 60.894039 
L 603.75303 60.894039 
L 603.75303 62.533773 
L 604.409173 62.533773 
L 604.409173 60.374388 
L 605.065317 60.374388 
L 605.065317 60.639716 
L 605.72146 60.639716 
L 605.72146 61.303134 
L 606.377603 61.303134 
L 606.377603 60.994774 
L 607.689889 61.064877 
L 607.689889 62.30522 
L 608.346032 62.30522 
L 608.346032 65.7935 
L 609.002175 65.7935 
L 609.002175 65.467206 
L 609.658318 65.467206 
L 609.658318 65.911617 
L 610.314462 65.911617 
L 610.314462 64.81259 
L 610.970605 64.81259 
L 610.970605 65.565704 
L 611.626748 65.565704 
L 611.626748 66.094179 
L 612.282891 66.094179 
L 612.282891 65.720678 
L 612.939034 65.720678 
L 612.939034 64.621659 
L 613.595177 64.621659 
L 613.595177 62.851573 
L 614.25132 62.851573 
L 614.25132 63.146265 
L 615.563607 63.051811 
L 615.563607 63.747776 
L 616.21975 63.747776 
L 616.21975 64.70489 
L 616.875893 64.70489 
L 616.875893 65.8392 
L 617.532036 65.8392 
L 617.532036 68.245164 
L 618.188179 68.245164 
L 618.188179 68.59992 
L 618.844322 68.59992 
L 618.844322 67.481456 
L 619.500465 67.481456 
L 619.500465 68.514903 
L 620.156608 68.514903 
L 620.156608 67.579317 
L 620.812752 67.579317 
L 620.812752 68.52562 
L 621.468895 68.52562 
L 621.468895 69.445043 
L 622.125038 69.445043 
L 622.125038 68.522686 
L 622.781181 68.522686 
L 622.781181 68.34763 
L 623.437324 68.34763 
L 623.437324 68.203014 
L 624.093467 68.203014 
L 624.093467 68.564818 
L 624.74961 68.564818 
L 624.74961 68.059052 
L 625.405753 68.059052 
L 625.405753 66.774511 
L 626.061896 66.774511 
L 626.061896 66.020715 
L 626.71804 66.020715 
L 626.71804 64.066298 
L 627.374183 64.066298 
L 627.374183 64.488413 
L 628.030326 64.488413 
L 628.030326 65.456067 
L 628.686469 65.456067 
L 628.686469 63.194305 
L 629.998755 63.116242 
L 629.998755 62.149904 
L 630.654898 62.149904 
L 630.654898 61.938754 
L 631.311041 61.938754 
L 631.311041 60.877414 
L 631.967185 60.877414 
L 631.967185 61.259331 
L 632.623328 61.259331 
L 632.623328 62.334897 
L 633.279471 62.334897 
L 633.279471 64.337485 
L 633.935614 64.337485 
L 633.935614 64.943717 
L 634.591757 64.943717 
L 634.591757 63.677937 
L 635.2479 63.677937 
L 635.2479 66.472111 
L 635.904043 66.472111 
L 635.904043 73.709272 
L 636.560186 73.709272 
L 636.560186 74.667067 
L 637.21633 74.667067 
L 637.21633 71.651383 
L 637.872473 71.651383 
L 637.872473 70.00214 
L 638.528616 70.00214 
L 638.528616 72.70472 
L 639.184759 72.70472 
L 639.184759 69.65996 
L 639.840902 69.65996 
L 639.840902 68.082845 
L 640.497045 68.082845 
L 640.497045 69.464178 
L 641.809331 69.468098 
L 641.809331 68.322671 
L 642.465474 68.322671 
L 642.465474 68.695298 
L 643.121618 68.695298 
L 643.121618 67.09391 
L 643.777761 67.09391 
L 643.777761 64.713481 
L 644.433904 64.713481 
L 644.433904 64.10014 
L 645.090047 64.10014 
L 645.090047 62.008787 
L 645.74619 62.008787 
L 645.74619 64.268634 
L 646.402333 64.268634 
L 646.402333 62.957337 
L 647.058476 62.957337 
L 647.058476 62.681086 
L 647.714619 62.681086 
L 647.714619 64.468141 
L 648.370763 64.468141 
L 648.370763 62.552927 
L 649.026906 62.552927 
L 649.026906 61.211013 
L 649.683049 61.211013 
L 649.683049 62.434229 
L 650.339192 62.434229 
L 650.339192 62.108221 
L 650.995335 62.108221 
L 650.995335 62.76287 
L 652.307621 62.804115 
L 652.307621 63.183122 
L 653.619908 63.282173 
L 653.619908 63.407987 
L 654.276051 63.407987 
L 654.276051 63.666354 
L 654.932194 63.666354 
L 654.932194 63.247442 
L 656.24448 63.293228 
L 656.24448 63.389442 
L 657.556766 63.34145 
L 657.556766 62.457332 
L 658.212909 62.457332 
L 658.212909 59.562328 
L 658.869053 59.562328 
L 658.869053 58.999763 
L 659.525196 58.999763 
L 659.525196 59.27708 
L 660.181339 59.27708 
L 660.181339 58.233866 
L 660.837482 58.233866 
L 660.837482 58.581934 
L 661.493625 58.581934 
L 661.493625 57.975619 
L 662.805911 58.060268 
L 662.805911 58.240381 
L 663.462054 58.240381 
L 663.462054 58.651275 
L 664.118197 58.651275 
L 664.118197 57.959428 
L 664.774341 57.959428 
L 664.774341 61.302518 
L 665.430484 61.302518 
L 665.430484 61.162766 
L 666.086627 61.162766 
L 666.086627 60.953613 
L 666.74277 60.953613 
L 666.74277 59.749483 
L 667.398913 59.749483 
L 667.398913 60.75304 
L 668.055056 60.75304 
L 668.055056 60.234167 
L 668.711199 60.234167 
L 668.711199 59.947152 
L 669.367342 59.947152 
L 669.367342 60.511538 
L 670.023486 60.511538 
L 670.023486 60.27726 
L 670.679629 60.27726 
L 670.679629 58.93959 
L 671.335772 58.93959 
L 671.335772 58.707516 
L 671.991915 58.707516 
L 671.991915 58.250627 
L 672.648058 58.250627 
L 672.648058 56.243029 
L 673.304201 56.243029 
L 673.304201 55.132462 
L 673.960344 55.132462 
L 673.960344 54.890841 
L 674.616487 54.890841 
L 674.616487 54.375112 
L 675.272631 54.375112 
L 675.272631 52.492852 
L 675.928774 52.492852 
L 675.928774 51.434806 
L 676.584917 51.434806 
L 676.584917 50.891365 
L 677.24106 50.891365 
L 677.24106 48.574382 
L 677.897203 48.574382 
L 677.897203 48.03918 
L 678.553346 48.03918 
L 678.553346 49.669973 
L 679.209489 49.669973 
L 679.209489 47.97995 
L 679.865632 47.97995 
L 679.865632 47.816901 
L 680.521775 47.816901 
L 680.521775 49.071657 
L 681.177919 49.071657 
L 681.177919 47.926119 
L 681.834062 47.926119 
L 681.834062 44.101243 
L 682.490205 44.101243 
L 682.490205 43.501708 
L 683.146348 43.501708 
L 683.146348 41.324118 
L 683.802491 41.324118 
L 683.802491 39.500019 
L 684.458634 39.500019 
L 684.458634 36.697366 
L 685.114777 36.697366 
L 685.114777 32.950214 
L 685.77092 32.950214 
L 685.77092 35.146288 
L 686.427064 35.146288 
L 686.427064 34.405388 
L 687.083207 34.405388 
L 687.083207 34.868928 
L 687.73935 34.868928 
L 687.73935 37.275539 
L 688.395493 37.275539 
L 688.395493 38.398643 
L 689.051636 38.398643 
L 689.051636 36.611674 
L 689.707779 36.611674 
L 689.707779 34.307189 
L 690.363922 34.307189 
L 690.363922 29.596403 
L 691.020065 29.596403 
L 691.020065 29.10356 
L 691.676209 29.10356 
L 691.676209 28.373517 
L 692.332352 28.373517 
L 692.332352 25.652358 
L 692.988495 25.652358 
L 692.988495 27.760325 
L 693.644638 27.760325 
L 693.644638 30.167384 
L 694.300781 30.167384 
L 694.300781 28.677867 
L 694.956924 28.677867 
L 694.956924 27.080693 
L 695.613067 27.080693 
L 695.613067 25.190547 
L 696.26921 25.190547 
L 696.26921 25.329959 
L 696.925354 25.329959 
L 696.925354 24.889041 
L 697.581497 24.889041 
L 697.581497 26.997437 
L 698.23764 26.997437 
L 698.23764 25.733628 
L 698.893783 25.733628 
L 698.893783 24.656228 
L 699.549926 24.656228 
L 699.549926 24.54375 
L 700.206069 24.54375 
L 700.206069 24.883009 
L 700.862212 24.883009 
L 700.862212 23.009876 
L 701.518355 23.009876 
L 701.518355 24.181578 
L 702.174498 24.181578 
L 702.174498 26.486435 
L 702.830642 26.486435 
L 702.830642 28.409456 
L 703.486785 28.409456 
L 703.486785 26.573813 
L 704.142928 26.573813 
L 704.142928 25.205125 
L 705.455214 25.144274 
L 705.455214 25.374949 
L 706.111357 25.374949 
L 706.111357 29.429376 
L 706.7675 29.429376 
L 706.7675 34.328546 
L 707.423643 34.328546 
L 707.423643 35.615947 
L 708.079787 35.615947 
L 708.079787 33.508081 
L 708.73593 33.508081 
L 708.73593 34.13381 
L 709.392073 34.13381 
L 709.392073 34.373094 
L 710.048216 34.373094 
L 710.048216 36.414866 
L 710.704359 36.414866 
L 710.704359 35.17571 
L 711.360502 35.17571 
L 711.360502 33.573601 
L 712.016645 33.573601 
L 712.016645 35.118449 
L 712.672788 35.118449 
L 712.672788 35.685266 
L 713.985075 35.79572 
L 713.985075 36.162485 
L 714.641218 36.162485 
L 714.641218 35.945155 
L 715.297361 35.945155 
L 715.297361 36.374085 
L 715.953504 36.374085 
L 715.953504 36.815521 
L 716.609647 36.815521 
L 716.609647 37.482323 
L 717.26579 37.482323 
L 717.26579 37.147011 
L 717.921933 37.147011 
L 717.921933 34.129556 
L 718.578076 34.129556 
L 718.578076 31.554905 
L 719.23422 31.554905 
L 719.23422 33.675686 
L 719.890363 33.675686 
L 719.890363 30.39069 
L 720.546506 30.39069 
L 720.546506 29.938311 
L 721.202649 29.938311 
L 721.202649 29.286939 
L 721.858792 29.286939 
L 721.858792 29.430238 
L 722.514935 29.430238 
L 722.514935 28.219698 
L 723.171078 28.219698 
L 723.171078 28.417424 
L 723.827221 28.417424 
L 723.827221 29.242842 
L 724.483365 29.242842 
L 724.483365 28.041698 
L 725.139508 28.041698 
L 725.139508 29.725598 
L 726.451794 29.734329 
L 726.451794 28.96593 
L 727.107937 28.96593 
L 727.107937 31.217551 
L 728.420223 31.259459 
L 728.420223 32.158724 
L 729.076366 32.158724 
L 729.076366 28.991365 
L 729.73251 28.991365 
L 729.73251 25.898997 
L 730.388653 25.898997 
L 730.388653 26.171732 
L 731.044796 26.171732 
L 731.044796 25.137916 
L 731.700939 25.137916 
L 731.700939 23.536619 
L 732.357082 23.536619 
L 732.357082 23.970631 
L 733.013225 23.970631 
L 733.013225 24.092066 
L 733.669368 24.092066 
L 733.669368 23.617761 
L 734.325511 23.617761 
L 734.325511 23.207845 
L 734.981655 23.207845 
L 734.981655 23.095895 
L 735.637798 23.095895 
L 735.637798 22.592014 
L 736.293941 22.592014 
L 736.293941 23.000082 
L 736.950084 23.000082 
L 736.950084 24.87207 
L 737.606227 24.87207 
L 737.606227 25.072348 
L 738.26237 25.072348 
L 738.26237 26.104774 
L 738.918513 26.104774 
L 738.918513 25.199129 
L 739.574656 25.199129 
L 739.574656 28.280121 
L 740.230799 28.280121 
L 740.230799 29.020889 
L 740.886943 29.020889 
L 740.886943 29.420212 
L 741.543086 29.420212 
L 741.543086 29.682524 
L 742.199229 29.682524 
L 742.199229 28.469552 
L 742.855372 28.469552 
L 742.855372 27.823934 
L 743.511515 27.823934 
L 743.511515 29.576336 
L 744.167658 29.576336 
L 744.167658 29.166802 
L 744.823801 29.166802 
L 744.823801 31.111175 
L 745.479944 31.111175 
L 745.479944 31.736347 
L 746.136088 31.736347 
L 746.136088 31.121475 
L 746.792231 31.121475 
L 746.792231 31.472283 
L 747.448374 31.472283 
L 747.448374 35.426379 
L 748.104517 35.426379 
L 748.104517 34.408235 
L 748.76066 34.408235 
L 748.76066 33.79617 
L 749.416803 33.79617 
L 749.416803 34.256277 
L 750.072946 34.256277 
L 750.072946 30.768475 
L 750.729089 30.768475 
L 750.729089 31.462533 
L 751.385233 31.462533 
L 751.385233 30.436564 
L 752.041376 30.436564 
L 752.041376 32.620135 
L 752.697519 32.620135 
L 752.697519 34.144482 
L 753.353662 34.144482 
L 753.353662 33.914407 
L 754.009805 33.914407 
L 754.009805 31.43146 
L 754.665948 31.43146 
L 754.665948 33.73354 
L 755.322091 33.73354 
L 755.322091 33.34803 
L 755.978234 33.34803 
L 755.978234 33.037787 
L 756.634377 33.037787 
L 756.634377 31.550863 
L 757.290521 31.550863 
L 757.290521 31.215847 
L 757.946664 31.215847 
L 757.946664 29.374951 
L 758.602807 29.374951 
L 758.602807 29.971416 
L 759.25895 29.971416 
L 759.25895 29.485453 
L 759.915093 29.485453 
L 759.915093 31.522875 
L 760.571236 31.522875 
L 760.571236 32.626826 
L 761.227379 32.626826 
L 761.227379 32.478106 
L 761.883522 32.478106 
L 761.883522 31.973854 
L 762.539666 31.973854 
L 762.539666 32.961044 
L 763.195809 32.961044 
L 763.195809 32.800536 
L 763.851952 32.800536 
L 763.851952 33.472604 
L 764.508095 33.472604 
L 764.508095 34.873045 
L 765.164238 34.873045 
L 765.164238 38.000967 
L 765.820381 38.000967 
L 765.820381 38.636562 
L 766.476524 38.636562 
L 766.476524 39.627515 
L 767.132667 39.627515 
L 767.132667 38.495145 
L 767.788811 38.495145 
L 767.788811 39.257289 
L 768.444954 39.257289 
L 768.444954 37.526995 
L 769.101097 37.526995 
L 769.101097 38.911173 
L 769.75724 38.911173 
L 769.75724 37.924381 
L 770.413383 37.924381 
L 770.413383 39.873978 
L 771.069526 39.873978 
L 771.069526 44.649665 
L 771.725669 44.649665 
L 771.725669 46.599878 
L 772.381812 46.599878 
L 772.381812 46.050059 
L 773.037956 46.050059 
L 773.037956 46.435955 
L 773.694099 46.435955 
L 773.694099 47.980243 
L 774.350242 47.980243 
L 774.350242 46.967585 
L 775.006385 46.967585 
L 775.006385 45.566167 
L 775.662528 45.566167 
L 775.662528 46.924393 
L 776.318671 46.924393 
L 776.318671 46.363444 
L 776.974814 46.363444 
L 776.974814 44.098266 
L 777.630957 44.098266 
L 777.630957 45.840736 
L 778.2871 45.840736 
L 778.2871 43.530647 
L 778.943244 43.530647 
L 778.943244 44.254282 
L 780.25553 44.285731 
L 780.25553 43.38376 
L 780.911673 43.38376 
L 780.911673 43.076611 
L 781.567816 43.076611 
L 781.567816 44.062307 
L 782.223959 44.062307 
L 782.223959 45.740759 
L 782.880102 45.740759 
L 782.880102 46.914451 
L 783.536245 46.914451 
L 783.536245 47.373956 
L 784.848532 47.329769 
L 784.848532 47.922339 
L 785.504675 47.922339 
L 785.504675 45.362094 
L 786.160818 45.362094 
L 786.160818 47.477971 
L 786.816961 47.477971 
L 786.816961 47.640308 
L 787.473104 47.640308 
L 787.473104 47.921797 
L 788.129247 47.921797 
L 788.129247 48.112982 
L 788.78539 48.112982 
L 788.78539 47.884881 
L 789.441534 47.884881 
L 789.441534 46.982202 
L 790.097677 46.982202 
L 790.097677 47.747799 
L 791.409963 47.810791 
L 791.409963 47.633074 
L 792.066106 47.633074 
L 792.066106 48.040465 
L 792.722249 48.040465 
L 792.722249 47.051202 
L 793.378392 47.051202 
L 793.378392 46.321333 
L 794.034535 46.321333 
L 794.034535 46.996498 
L 794.690678 46.996498 
L 794.690678 46.217078 
L 795.346822 46.217078 
L 795.346822 49.885667 
L 796.002965 49.885667 
L 796.002965 51.063386 
L 796.659108 51.063386 
L 796.659108 50.94379 
L 797.315251 50.94379 
L 797.315251 51.564424 
L 797.971394 51.564424 
L 797.971394 51.233407 
L 798.627537 51.233407 
L 798.627537 50.342371 
L 801.25211 50.298325 
L 801.25211 51.000979 
L 801.908253 51.000979 
L 801.908253 50.668424 
L 803.220539 50.750795 
L 803.220539 51.124767 
L 804.532825 51.03099 
L 804.532825 50.7653 
L 805.188968 50.7653 
L 805.188968 50.316296 
L 805.845112 50.316296 
L 805.845112 47.226394 
L 806.501255 47.226394 
L 806.501255 45.993802 
L 807.157398 45.993802 
L 807.157398 44.445333 
L 807.813541 44.445333 
L 807.813541 44.156391 
L 808.469684 44.156391 
L 808.469684 43.562405 
L 809.125827 43.562405 
L 809.125827 43.829116 
L 809.78197 43.829116 
L 809.78197 44.453368 
L 810.438113 44.453368 
L 810.438113 45.512094 
L 811.094257 45.512094 
L 811.094257 44.966002 
L 811.7504 44.966002 
L 811.7504 42.797564 
L 812.406543 42.797564 
L 812.406543 43.187901 
L 813.062686 43.187901 
L 813.062686 43.732546 
L 814.374972 43.817587 
L 814.374972 44.779888 
L 815.031115 44.779888 
L 815.031115 46.923195 
L 815.687258 46.923195 
L 815.687258 42.69145 
L 816.343401 42.69145 
L 816.343401 40.907967 
L 816.999545 40.907967 
L 816.999545 40.653309 
L 817.655688 40.653309 
L 817.655688 40.129493 
L 818.967974 40.104729 
L 818.967974 40.277414 
L 820.28026 40.18498 
L 820.28026 38.525489 
L 821.592546 38.467311 
L 821.592546 39.519585 
L 822.24869 39.519585 
L 822.24869 40.437038 
L 822.904833 40.437038 
L 822.904833 39.053376 
L 823.560976 39.053376 
L 823.560976 40.064841 
L 824.217119 40.064841 
L 824.217119 39.014427 
L 824.873262 39.014427 
L 824.873262 40.399572 
L 825.529405 40.399572 
L 825.529405 41.055163 
L 826.185548 41.055163 
L 826.185548 40.583099 
L 826.841691 40.583099 
L 826.841691 41.078076 
L 827.497835 41.078076 
L 827.497835 41.297218 
L 828.153978 41.297218 
L 828.153978 40.320706 
L 828.810121 40.320706 
L 828.810121 40.69495 
L 830.122407 40.701305 
L 830.122407 41.795701 
L 830.77855 41.795701 
L 830.77855 42.390412 
L 831.434693 42.390412 
L 831.434693 41.408109 
L 832.090836 41.408109 
L 832.090836 38.755567 
L 832.746979 38.755567 
L 832.746979 38.503589 
L 833.403123 38.503589 
L 833.403123 38.362745 
L 834.059266 38.362745 
L 834.059266 38.155842 
L 834.715409 38.155842 
L 834.715409 38.539606 
L 835.371552 38.539606 
L 835.371552 38.417553 
L 836.683838 38.521828 
L 836.683838 38.826535 
L 837.339981 38.826535 
L 837.339981 39.268381 
L 838.652268 39.17005 
L 838.652268 38.909871 
L 839.308411 38.909871 
L 839.308411 39.361935 
L 839.964554 39.361935 
L 839.964554 38.992913 
L 840.620697 38.992913 
L 840.620697 39.193059 
L 841.27684 39.193059 
L 841.27684 41.151986 
L 841.932983 41.151986 
L 841.932983 41.578241 
L 843.245269 41.637478 
L 843.245269 40.330818 
L 843.901413 40.330818 
L 843.901413 41.782562 
L 845.869842 41.811865 
L 845.869842 41.250943 
L 846.525985 41.250943 
L 846.525985 41.072464 
L 847.182128 41.072464 
L 847.182128 41.214896 
L 847.838271 41.214896 
L 847.838271 41.506881 
L 848.494414 41.506881 
L 848.494414 40.911808 
L 849.150558 40.911808 
L 849.150558 40.280923 
L 850.462844 40.176284 
L 850.462844 41.076445 
L 851.118987 41.076445 
L 851.118987 39.747025 
L 851.77513 39.747025 
L 851.77513 38.910582 
L 852.431273 38.910582 
L 852.431273 36.134258 
L 853.087416 36.134258 
L 853.087416 36.018744 
L 853.743559 36.018744 
L 853.743559 35.207738 
L 854.399702 35.207738 
L 854.399702 35.440128 
L 855.055846 35.440128 
L 855.055846 34.480533 
L 855.711989 34.480533 
L 855.711989 34.594042 
L 857.024275 34.521522 
L 857.024275 34.991735 
L 857.680418 34.991735 
L 857.680418 33.861088 
L 858.992704 33.824417 
L 858.992704 32.692634 
L 859.648847 32.692634 
L 859.648847 31.025105 
L 860.304991 31.025105 
L 860.304991 32.043365 
L 860.961134 32.043365 
L 860.961134 31.693616 
L 861.617277 31.693616 
L 861.617277 31.530938 
L 862.27342 31.530938 
L 862.27342 30.812208 
L 862.929563 30.812208 
L 862.929563 30.942276 
L 863.585706 30.942276 
L 863.585706 31.537329 
L 864.241849 31.537329 
L 864.241849 30.599502 
L 864.897992 30.599502 
L 864.897992 29.32425 
L 865.554136 29.32425 
L 865.554136 31.245601 
L 866.210279 31.245601 
L 866.210279 31.105475 
L 866.866422 31.105475 
L 866.866422 31.831184 
L 867.522565 31.831184 
L 867.522565 32.64439 
L 868.178708 32.64439 
L 868.178708 31.645809 
L 868.834851 31.645809 
L 868.834851 31.139999 
L 869.490994 31.139999 
L 869.490994 31.338765 
L 870.147137 31.338765 
L 870.147137 29.252291 
L 870.803281 29.252291 
L 870.803281 28.128912 
L 871.459424 28.128912 
L 871.459424 27.327331 
L 873.427853 27.310201 
L 873.427853 23.807678 
L 874.083996 23.807678 
L 874.083996 21.482129 
L 875.396282 21.503757 
L 875.396282 20.552727 
L 876.052425 20.552727 
L 876.052425 22.442812 
L 876.708569 22.442812 
L 876.708569 21.641716 
L 877.364712 21.641716 
L 877.364712 21.836789 
L 878.020855 21.836789 
L 878.020855 20.768427 
L 878.676998 20.768427 
L 878.676998 21.081703 
L 879.333141 21.081703 
L 879.333141 21.641642 
L 879.989284 21.641642 
L 879.989284 21.250043 
L 880.645427 21.250043 
L 880.645427 22.857526 
L 881.30157 22.857526 
L 881.30157 23.770831 
L 881.957714 23.770831 
L 881.957714 22.556297 
L 882.613857 22.556297 
L 882.613857 22.705874 
L 883.27 22.705874 
L 883.27 22.918627 
L 883.926143 22.918627 
L 883.926143 23.230944 
L 884.582286 23.230944 
L 884.582286 23.418396 
L 885.238429 23.418396 
L 885.238429 23.933255 
L 885.894572 23.933255 
L 885.894572 22.145758 
L 887.194182 22.112071 
L 887.194182 22.112071 
" clip-path="url(#p1ae64ff0ba)" style="fill: none; stroke: #3572c6; stroke-width: 1.2; stroke-linecap: square"/>
   </g>
   <g id="line2d_76">
    <path d="M 75.557818 20.552727 
L 887.194182 20.552727 
L 887.194182 20.552727 
" clip-path="url(#p1ae64ff0ba)" style="fill: none; stroke: #83a83b; stroke-width: 1.2; stroke-linecap: square"/>
   </g>
   <g id="line2d_77">
    <path d="M 75.557818 23.933255 
L 887.194182 23.933255 
L 887.194182 23.933255 
" clip-path="url(#p1ae64ff0ba)" style="fill: none; stroke: #c44e52; stroke-width: 1.2; stroke-linecap: square"/>
   </g>
   <g id="line2d_78">
    <path d="M 876.052425 300.96 
L 876.052425 7.2 
" clip-path="url(#p1ae64ff0ba)" style="fill: none; stroke: #83a83b; stroke-width: 1.2; stroke-linecap: square"/>
   </g>
   <g id="line2d_79">
    <path d="M 885.894572 300.96 
L 885.894572 7.2 
" clip-path="url(#p1ae64ff0ba)" style="fill: none; stroke: #c44e52; stroke-width: 1.2; stroke-linecap: square"/>
   </g>
   <g id="patch_3">
    <path d="M 34.976 300.96 
L 34.976 7.2 
" style="fill: none; stroke: #899ab8; stroke-width: 1.12; stroke-linejoin: miter; stroke-linecap: square"/>
   </g>
   <g id="patch_4">
    <path d="M 927.776 300.96 
L 927.776 7.2 
" style="fill: none; stroke: #899ab8; stroke-width: 1.12; stroke-linejoin: miter; stroke-linecap: square"/>
   </g>
   <g id="patch_5">
    <path d="M 34.976 300.96 
L 927.776 300.96 
" style="fill: none; stroke: #899ab8; stroke-width: 1.12; stroke-linejoin: miter; stroke-linecap: square"/>
   </g>
   <g id="patch_6">
    <path d="M 34.976 7.2 
L 927.776 7.2 
" style="fill: none; stroke: #899ab8; stroke-width: 1.12; stroke-linejoin: miter; stroke-linecap: square"/>
   </g>
   <g id="text_15">
    <!-- 71489.22 -->
    <g style="fill: #83a83b" transform="translate(195.303938 20.552727) scale(0.132 -0.132)">
     <defs>
      <path id="DejaVuSans-37" d="M 525 4666 
L 3525 4666 
L 3525 4397 
L 1831 0 
L 1172 0 
L 2766 4134 
L 525 4134 
L 525 4666 
z
" transform="scale(0.015625)"/>
      <path id="DejaVuSans-39" d="M 703 97 
L 703 672 
Q 941 559 1184 500 
Q 1428 441 1663 441 
Q 2288 441 2617 861 
Q 2947 1281 2994 2138 
Q 2813 1869 2534 1725 
Q 2256 1581 1919 1581 
Q 1219 1581 811 2004 
Q 403 2428 403 3163 
Q 403 3881 828 4315 
Q 1253 4750 1959 4750 
Q 2769 4750 3195 4129 
Q 3622 3509 3622 2328 
Q 3622 1225 3098 567 
Q 2575 -91 1691 -91 
Q 1453 -91 1209 -44 
Q 966 3 703 97 
z
M 1959 2075 
Q 2384 2075 2632 2365 
Q 2881 2656 2881 3163 
Q 2881 3666 2632 3958 
Q 2384 4250 1959 4250 
Q 1534 4250 1286 3958 
Q 1038 3666 1038 3163 
Q 1038 2656 1286 2365 
Q 1534 2075 1959 2075 
z
" transform="scale(0.015625)"/>
      <path id="DejaVuSans-2e" d="M 684 794 
L 1344 794 
L 1344 0 
L 684 0 
L 684 794 
z
" transform="scale(0.015625)"/>
     </defs>
     <use xlink:href="#DejaVuSans-37"/>
     <use xlink:href="#DejaVuSans-31" x="63.623047"/>
     <use xlink:href="#DejaVuSans-34" x="127.246094"/>
     <use xlink:href="#DejaVuSans-38" x="190.869141"/>
     <use xlink:href="#DejaVuSans-39" x="254.492188"/>
     <use xlink:href="#DejaVuSans-2e" x="318.115234"/>
     <use xlink:href="#DejaVuSans-32" x="349.902344"/>
     <use xlink:href="#DejaVuSans-32" x="413.525391"/>
    </g>
   </g>
   <g id="text_16">
    <!-- 60805.78 -->
    <g style="fill: #c44e52" transform="translate(195.303938 23.933255) scale(0.132 -0.132)">
     <use xlink:href="#DejaVuSans-36"/>
     <use xlink:href="#DejaVuSans-30" x="63.623047"/>
     <use xlink:href="#DejaVuSans-38" x="127.246094"/>
     <use xlink:href="#DejaVuSans-30" x="190.869141"/>
     <use xlink:href="#DejaVuSans-35" x="254.492188"/>
     <use xlink:href="#DejaVuSans-2e" x="318.115234"/>
     <use xlink:href="#DejaVuSans-37" x="349.902344"/>
     <use xlink:href="#DejaVuSans-38" x="413.525391"/>
    </g>
   </g>
   <g id="legend_1">
    <g id="patch_7">
     <path d="M 432.207453 294.66 
L 530.544547 294.66 
Q 533.064547 294.66 533.064547 292.14 
L 533.064547 237.56625 
Q 533.064547 235.04625 530.544547 235.04625 
L 432.207453 235.04625 
Q 429.687453 235.04625 429.687453 237.56625 
L 429.687453 292.14 
Q 429.687453 294.66 432.207453 294.66 
z
" style="fill: #373e4b; opacity: 0.8; stroke: #cccccc; stroke-width: 0.16; stroke-linejoin: miter"/>
    </g>
    <g id="line2d_80">
     <path d="M 434.727453 245.250281 
L 434.727453 245.250281 
L 447.327453 245.250281 
L 447.327453 245.250281 
L 459.927453 245.250281 
" style="fill: none; stroke: #3572c6; stroke-width: 1.2; stroke-linecap: square"/>
    </g>
    <g id="text_17">
     <!-- USD/BTC -->
     <g style="fill: #b1bed6" transform="translate(470.007453 249.660281) scale(0.126 -0.126)">
      <defs>
       <path id="DejaVuSans-55" d="M 556 4666 
L 1191 4666 
L 1191 1831 
Q 1191 1081 1462 751 
Q 1734 422 2344 422 
Q 2950 422 3222 751 
Q 3494 1081 3494 1831 
L 3494 4666 
L 4128 4666 
L 4128 1753 
Q 4128 841 3676 375 
Q 3225 -91 2344 -91 
Q 1459 -91 1007 375 
Q 556 841 556 1753 
L 556 4666 
z
" transform="scale(0.015625)"/>
       <path id="DejaVuSans-53" d="M 3425 4513 
L 3425 3897 
Q 3066 4069 2747 4153 
Q 2428 4238 2131 4238 
Q 1616 4238 1336 4038 
Q 1056 3838 1056 3469 
Q 1056 3159 1242 3001 
Q 1428 2844 1947 2747 
L 2328 2669 
Q 3034 2534 3370 2195 
Q 3706 1856 3706 1288 
Q 3706 609 3251 259 
Q 2797 -91 1919 -91 
Q 1588 -91 1214 -16 
Q 841 59 441 206 
L 441 856 
Q 825 641 1194 531 
Q 1563 422 1919 422 
Q 2459 422 2753 634 
Q 3047 847 3047 1241 
Q 3047 1584 2836 1778 
Q 2625 1972 2144 2069 
L 1759 2144 
Q 1053 2284 737 2584 
Q 422 2884 422 3419 
Q 422 4038 858 4394 
Q 1294 4750 2059 4750 
Q 2388 4750 2728 4690 
Q 3069 4631 3425 4513 
z
" transform="scale(0.015625)"/>
       <path id="DejaVuSans-2f" d="M 1625 4666 
L 2156 4666 
L 531 -594 
L 0 -594 
L 1625 4666 
z
" transform="scale(0.015625)"/>
       <path id="DejaVuSans-42" d="M 1259 2228 
L 1259 519 
L 2272 519 
Q 2781 519 3026 730 
Q 3272 941 3272 1375 
Q 3272 1813 3026 2020 
Q 2781 2228 2272 2228 
L 1259 2228 
z
M 1259 4147 
L 1259 2741 
L 2194 2741 
Q 2656 2741 2882 2914 
Q 3109 3088 3109 3444 
Q 3109 3797 2882 3972 
Q 2656 4147 2194 4147 
L 1259 4147 
z
M 628 4666 
L 2241 4666 
Q 2963 4666 3353 4366 
Q 3744 4066 3744 3513 
Q 3744 3084 3544 2831 
Q 3344 2578 2956 2516 
Q 3422 2416 3680 2098 
Q 3938 1781 3938 1306 
Q 3938 681 3513 340 
Q 3088 0 2303 0 
L 628 0 
L 628 4666 
z
" transform="scale(0.015625)"/>
       <path id="DejaVuSans-54" d="M -19 4666 
L 3928 4666 
L 3928 4134 
L 2272 4134 
L 2272 0 
L 1638 0 
L 1638 4134 
L -19 4134 
L -19 4666 
z
" transform="scale(0.015625)"/>
       <path id="DejaVuSans-43" d="M 4122 4306 
L 4122 3641 
Q 3803 3938 3442 4084 
Q 3081 4231 2675 4231 
Q 1875 4231 1450 3742 
Q 1025 3253 1025 2328 
Q 1025 1406 1450 917 
Q 1875 428 2675 428 
Q 3081 428 3442 575 
Q 3803 722 4122 1019 
L 4122 359 
Q 3791 134 3420 21 
Q 3050 -91 2638 -91 
Q 1578 -91 968 557 
Q 359 1206 359 2328 
Q 359 3453 968 4101 
Q 1578 4750 2638 4750 
Q 3056 4750 3426 4639 
Q 3797 4528 4122 4306 
z
" transform="scale(0.015625)"/>
      </defs>
      <use xlink:href="#DejaVuSans-55"/>
      <use xlink:href="#DejaVuSans-53" x="73.193359"/>
      <use xlink:href="#DejaVuSans-44" x="136.669922"/>
      <use xlink:href="#DejaVuSans-2f" x="213.671875"/>
      <use xlink:href="#DejaVuSans-42" x="247.363281"/>
      <use xlink:href="#DejaVuSans-54" x="315.966797"/>
      <use xlink:href="#DejaVuSans-43" x="371.175781"/>
     </g>
    </g>
    <g id="line2d_81">
     <path d="M 434.727453 263.744719 
L 434.727453 263.744719 
L 447.327453 263.744719 
L 447.327453 263.744719 
L 459.927453 263.744719 
" style="fill: none; stroke: #83a83b; stroke-width: 1.2; stroke-linecap: square"/>
    </g>
    <g id="text_18">
     <!-- Max -->
     <g style="fill: #b1bed6" transform="translate(470.007453 268.154719) scale(0.126 -0.126)">
      <defs>
       <path id="DejaVuSans-4d" d="M 628 4666 
L 1569 4666 
L 2759 1491 
L 3956 4666 
L 4897 4666 
L 4897 0 
L 4281 0 
L 4281 4097 
L 3078 897 
L 2444 897 
L 1241 4097 
L 1241 0 
L 628 0 
L 628 4666 
z
" transform="scale(0.015625)"/>
       <path id="DejaVuSans-78" d="M 3513 3500 
L 2247 1797 
L 3578 0 
L 2900 0 
L 1881 1375 
L 863 0 
L 184 0 
L 1544 1831 
L 300 3500 
L 978 3500 
L 1906 2253 
L 2834 3500 
L 3513 3500 
z
" transform="scale(0.015625)"/>
      </defs>
      <use xlink:href="#DejaVuSans-4d"/>
      <use xlink:href="#DejaVuSans-61" x="86.279297"/>
      <use xlink:href="#DejaVuSans-78" x="147.558594"/>
     </g>
    </g>
    <g id="line2d_82">
     <path d="M 434.727453 282.239156 
L 434.727453 282.239156 
L 447.327453 282.239156 
L 447.327453 282.239156 
L 459.927453 282.239156 
" style="fill: none; stroke: #c44e52; stroke-width: 1.2; stroke-linecap: square"/>
    </g>
    <g id="text_19">
     <!-- local_Min -->
     <g style="fill: #b1bed6" transform="translate(470.007453 286.649156) scale(0.126 -0.126)">
      <defs>
       <path id="DejaVuSans-6c" d="M 603 4863 
L 1178 4863 
L 1178 0 
L 603 0 
L 603 4863 
z
" transform="scale(0.015625)"/>
       <path id="DejaVuSans-6f" d="M 1959 3097 
Q 1497 3097 1228 2736 
Q 959 2375 959 1747 
Q 959 1119 1226 758 
Q 1494 397 1959 397 
Q 2419 397 2687 759 
Q 2956 1122 2956 1747 
Q 2956 2369 2687 2733 
Q 2419 3097 1959 3097 
z
M 1959 3584 
Q 2709 3584 3137 3096 
Q 3566 2609 3566 1747 
Q 3566 888 3137 398 
Q 2709 -91 1959 -91 
Q 1206 -91 779 398 
Q 353 888 353 1747 
Q 353 2609 779 3096 
Q 1206 3584 1959 3584 
z
" transform="scale(0.015625)"/>
       <path id="DejaVuSans-63" d="M 3122 3366 
L 3122 2828 
Q 2878 2963 2633 3030 
Q 2388 3097 2138 3097 
Q 1578 3097 1268 2742 
Q 959 2388 959 1747 
Q 959 1106 1268 751 
Q 1578 397 2138 397 
Q 2388 397 2633 464 
Q 2878 531 3122 666 
L 3122 134 
Q 2881 22 2623 -34 
Q 2366 -91 2075 -91 
Q 1284 -91 818 406 
Q 353 903 353 1747 
Q 353 2603 823 3093 
Q 1294 3584 2113 3584 
Q 2378 3584 2631 3529 
Q 2884 3475 3122 3366 
z
" transform="scale(0.015625)"/>
       <path id="DejaVuSans-5f" d="M 3263 -1063 
L 3263 -1509 
L -63 -1509 
L -63 -1063 
L 3263 -1063 
z
" transform="scale(0.015625)"/>
       <path id="DejaVuSans-69" d="M 603 3500 
L 1178 3500 
L 1178 0 
L 603 0 
L 603 3500 
z
M 603 4863 
L 1178 4863 
L 1178 4134 
L 603 4134 
L 603 4863 
z
" transform="scale(0.015625)"/>
       <path id="DejaVuSans-6e" d="M 3513 2113 
L 3513 0 
L 2938 0 
L 2938 2094 
Q 2938 2591 2744 2837 
Q 2550 3084 2163 3084 
Q 1697 3084 1428 2787 
Q 1159 2491 1159 1978 
L 1159 0 
L 581 0 
L 581 3500 
L 1159 3500 
L 1159 2956 
Q 1366 3272 1645 3428 
Q 1925 3584 2291 3584 
Q 2894 3584 3203 3211 
Q 3513 2838 3513 2113 
z
" transform="scale(0.015625)"/>
      </defs>
      <use xlink:href="#DejaVuSans-6c"/>
      <use xlink:href="#DejaVuSans-6f" x="27.783203"/>
      <use xlink:href="#DejaVuSans-63" x="88.964844"/>
      <use xlink:href="#DejaVuSans-61" x="143.945312"/>
      <use xlink:href="#DejaVuSans-6c" x="205.224609"/>
      <use xlink:href="#DejaVuSans-5f" x="233.007812"/>
      <use xlink:href="#DejaVuSans-4d" x="283.007812"/>
      <use xlink:href="#DejaVuSans-69" x="369.287109"/>
      <use xlink:href="#DejaVuSans-6e" x="397.070312"/>
     </g>
    </g>
   </g>
  </g>
 </g>
 <defs>
  <clipPath id="p1ae64ff0ba">
   <rect x="34.976" y="7.2" width="892.8" height="293.76"/>
  </clipPath>
 </defs>
</svg>
