<?xml version="1.0" encoding="utf-8" standalone="no"?>
<!DOCTYPE svg PUBLIC "-//W3C//DTD SVG 1.1//EN"
  "http://www.w3.org/Graphics/SVG/1.1/DTD/svg11.dtd">
<svg xmlns:xlink="http://www.w3.org/1999/xlink" width="934.976pt" height="358.290693pt" viewBox="0 0 934.976 358.290693" xmlns="http://www.w3.org/2000/svg" version="1.1">
 <metadata>
  <rdf:RDF xmlns:dc="http://purl.org/dc/elements/1.1/" xmlns:cc="http://creativecommons.org/ns#" xmlns:rdf="http://www.w3.org/1999/02/22-rdf-syntax-ns#">
   <cc:Work>
    <dc:type rdf:resource="http://purl.org/dc/dcmitype/StillImage"/>
    <dc:date>2024-03-07T14:09:40.659475</dc:date>
    <dc:format>image/svg+xml</dc:format>
    <dc:creator>
     <cc:Agent>
      <dc:title>Matplotlib v3.8.3, https://matplotlib.org/</dc:title>
     </cc:Agent>
    </dc:creator>
   </cc:Work>
  </rdf:RDF>
 </metadata>
 <defs>
  <style type="text/css">*{stroke-linejoin: round; stroke-linecap: butt}</style>
 </defs>
 <g id="figure_1">
  <g id="patch_1">
   <path d="M 0 358.290693 
L 934.976 358.290693 
L 934.976 0 
L 0 0 
z
" style="fill: #373e4b"/>
  </g>
  <g id="axes_1">
   <g id="patch_2">
    <path d="M 34.976 300.96 
L 927.776 300.96 
L 927.776 7.2 
L 34.976 7.2 
z
" style="fill: #373e4b"/>
   </g>
   <g id="matplotlib.axis_1">
    <g id="xtick_1">
     <g id="line2d_1">
      <path d="M 146.321813 300.96 
L 146.321813 7.2 
" clip-path="url(#p894e22dff1)" style="fill: none; stroke: #546379; stroke-width: 1.12; stroke-linecap: square"/>
     </g>
     <g id="line2d_2"/>
     <g id="text_1">
      <!-- 2012 -->
      <g style="fill: #b1bed6" transform="translate(117.240773 330.884854) rotate(-30) scale(0.126 -0.126)">
       <defs>
        <path id="DejaVuSans-32" d="M 1228 531 
L 3431 531 
L 3431 0 
L 469 0 
L 469 531 
Q 828 903 1448 1529 
Q 2069 2156 2228 2338 
Q 2531 2678 2651 2914 
Q 2772 3150 2772 3378 
Q 2772 3750 2511 3984 
Q 2250 4219 1831 4219 
Q 1534 4219 1204 4116 
Q 875 4013 500 3803 
L 500 4441 
Q 881 4594 1212 4672 
Q 1544 4750 1819 4750 
Q 2544 4750 2975 4387 
Q 3406 4025 3406 3419 
Q 3406 3131 3298 2873 
Q 3191 2616 2906 2266 
Q 2828 2175 2409 1742 
Q 1991 1309 1228 531 
z
" transform="scale(0.015625)"/>
        <path id="DejaVuSans-30" d="M 2034 4250 
Q 1547 4250 1301 3770 
Q 1056 3291 1056 2328 
Q 1056 1369 1301 889 
Q 1547 409 2034 409 
Q 2525 409 2770 889 
Q 3016 1369 3016 2328 
Q 3016 3291 2770 3770 
Q 2525 4250 2034 4250 
z
M 2034 4750 
Q 2819 4750 3233 4129 
Q 3647 3509 3647 2328 
Q 3647 1150 3233 529 
Q 2819 -91 2034 -91 
Q 1250 -91 836 529 
Q 422 1150 422 2328 
Q 422 3509 836 4129 
Q 1250 4750 2034 4750 
z
" transform="scale(0.015625)"/>
        <path id="DejaVuSans-31" d="M 794 531 
L 1825 531 
L 1825 4091 
L 703 3866 
L 703 4441 
L 1819 4666 
L 2450 4666 
L 2450 531 
L 3481 531 
L 3481 0 
L 794 0 
L 794 531 
z
" transform="scale(0.015625)"/>
       </defs>
       <use xlink:href="#DejaVuSans-32"/>
       <use xlink:href="#DejaVuSans-30" x="63.623047"/>
       <use xlink:href="#DejaVuSans-31" x="127.246094"/>
       <use xlink:href="#DejaVuSans-32" x="190.869141"/>
      </g>
     </g>
    </g>
    <g id="xtick_2">
     <g id="line2d_3">
      <path d="M 268.035883 300.96 
L 268.035883 7.2 
" clip-path="url(#p894e22dff1)" style="fill: none; stroke: #546379; stroke-width: 1.12; stroke-linecap: square"/>
     </g>
     <g id="line2d_4"/>
     <g id="text_2">
      <!-- 2014 -->
      <g style="fill: #b1bed6" transform="translate(238.954843 330.884854) rotate(-30) scale(0.126 -0.126)">
       <defs>
        <path id="DejaVuSans-34" d="M 2419 4116 
L 825 1625 
L 2419 1625 
L 2419 4116 
z
M 2253 4666 
L 3047 4666 
L 3047 1625 
L 3713 1625 
L 3713 1100 
L 3047 1100 
L 3047 0 
L 2419 0 
L 2419 1100 
L 313 1100 
L 313 1709 
L 2253 4666 
z
" transform="scale(0.015625)"/>
       </defs>
       <use xlink:href="#DejaVuSans-32"/>
       <use xlink:href="#DejaVuSans-30" x="63.623047"/>
       <use xlink:href="#DejaVuSans-31" x="127.246094"/>
       <use xlink:href="#DejaVuSans-34" x="190.869141"/>
      </g>
     </g>
    </g>
    <g id="xtick_3">
     <g id="line2d_5">
      <path d="M 389.58345 300.96 
L 389.58345 7.2 
" clip-path="url(#p894e22dff1)" style="fill: none; stroke: #546379; stroke-width: 1.12; stroke-linecap: square"/>
     </g>
     <g id="line2d_6"/>
     <g id="text_3">
      <!-- 2016 -->
      <g style="fill: #b1bed6" transform="translate(360.50241 330.884854) rotate(-30) scale(0.126 -0.126)">
       <defs>
        <path id="DejaVuSans-36" d="M 2113 2584 
Q 1688 2584 1439 2293 
Q 1191 2003 1191 1497 
Q 1191 994 1439 701 
Q 1688 409 2113 409 
Q 2538 409 2786 701 
Q 3034 994 3034 1497 
Q 3034 2003 2786 2293 
Q 2538 2584 2113 2584 
z
M 3366 4563 
L 3366 3988 
Q 3128 4100 2886 4159 
Q 2644 4219 2406 4219 
Q 1781 4219 1451 3797 
Q 1122 3375 1075 2522 
Q 1259 2794 1537 2939 
Q 1816 3084 2150 3084 
Q 2853 3084 3261 2657 
Q 3669 2231 3669 1497 
Q 3669 778 3244 343 
Q 2819 -91 2113 -91 
Q 1303 -91 875 529 
Q 447 1150 447 2328 
Q 447 3434 972 4092 
Q 1497 4750 2381 4750 
Q 2619 4750 2861 4703 
Q 3103 4656 3366 4563 
z
" transform="scale(0.015625)"/>
       </defs>
       <use xlink:href="#DejaVuSans-32"/>
       <use xlink:href="#DejaVuSans-30" x="63.623047"/>
       <use xlink:href="#DejaVuSans-31" x="127.246094"/>
       <use xlink:href="#DejaVuSans-36" x="190.869141"/>
      </g>
     </g>
    </g>
    <g id="xtick_4">
     <g id="line2d_7">
      <path d="M 511.29752 300.96 
L 511.29752 7.2 
" clip-path="url(#p894e22dff1)" style="fill: none; stroke: #546379; stroke-width: 1.12; stroke-linecap: square"/>
     </g>
     <g id="line2d_8"/>
     <g id="text_4">
      <!-- 2018 -->
      <g style="fill: #b1bed6" transform="translate(482.21648 330.884854) rotate(-30) scale(0.126 -0.126)">
       <defs>
        <path id="DejaVuSans-38" d="M 2034 2216 
Q 1584 2216 1326 1975 
Q 1069 1734 1069 1313 
Q 1069 891 1326 650 
Q 1584 409 2034 409 
Q 2484 409 2743 651 
Q 3003 894 3003 1313 
Q 3003 1734 2745 1975 
Q 2488 2216 2034 2216 
z
M 1403 2484 
Q 997 2584 770 2862 
Q 544 3141 544 3541 
Q 544 4100 942 4425 
Q 1341 4750 2034 4750 
Q 2731 4750 3128 4425 
Q 3525 4100 3525 3541 
Q 3525 3141 3298 2862 
Q 3072 2584 2669 2484 
Q 3125 2378 3379 2068 
Q 3634 1759 3634 1313 
Q 3634 634 3220 271 
Q 2806 -91 2034 -91 
Q 1263 -91 848 271 
Q 434 634 434 1313 
Q 434 1759 690 2068 
Q 947 2378 1403 2484 
z
M 1172 3481 
Q 1172 3119 1398 2916 
Q 1625 2713 2034 2713 
Q 2441 2713 2670 2916 
Q 2900 3119 2900 3481 
Q 2900 3844 2670 4047 
Q 2441 4250 2034 4250 
Q 1625 4250 1398 4047 
Q 1172 3844 1172 3481 
z
" transform="scale(0.015625)"/>
       </defs>
       <use xlink:href="#DejaVuSans-32"/>
       <use xlink:href="#DejaVuSans-30" x="63.623047"/>
       <use xlink:href="#DejaVuSans-31" x="127.246094"/>
       <use xlink:href="#DejaVuSans-38" x="190.869141"/>
      </g>
     </g>
    </g>
    <g id="xtick_5">
     <g id="line2d_9">
      <path d="M 632.845087 300.96 
L 632.845087 7.2 
" clip-path="url(#p894e22dff1)" style="fill: none; stroke: #546379; stroke-width: 1.12; stroke-linecap: square"/>
     </g>
     <g id="line2d_10"/>
     <g id="text_5">
      <!-- 2020 -->
      <g style="fill: #b1bed6" transform="translate(603.764047 330.884854) rotate(-30) scale(0.126 -0.126)">
       <use xlink:href="#DejaVuSans-32"/>
       <use xlink:href="#DejaVuSans-30" x="63.623047"/>
       <use xlink:href="#DejaVuSans-32" x="127.246094"/>
       <use xlink:href="#DejaVuSans-30" x="190.869141"/>
      </g>
     </g>
    </g>
    <g id="xtick_6">
     <g id="line2d_11">
      <path d="M 754.559157 300.96 
L 754.559157 7.2 
" clip-path="url(#p894e22dff1)" style="fill: none; stroke: #546379; stroke-width: 1.12; stroke-linecap: square"/>
     </g>
     <g id="line2d_12"/>
     <g id="text_6">
      <!-- 2022 -->
      <g style="fill: #b1bed6" transform="translate(725.478118 330.884854) rotate(-30) scale(0.126 -0.126)">
       <use xlink:href="#DejaVuSans-32"/>
       <use xlink:href="#DejaVuSans-30" x="63.623047"/>
       <use xlink:href="#DejaVuSans-32" x="127.246094"/>
       <use xlink:href="#DejaVuSans-32" x="190.869141"/>
      </g>
     </g>
    </g>
    <g id="xtick_7">
     <g id="line2d_13">
      <path d="M 876.106724 300.96 
L 876.106724 7.2 
" clip-path="url(#p894e22dff1)" style="fill: none; stroke: #546379; stroke-width: 1.12; stroke-linecap: square"/>
     </g>
     <g id="line2d_14"/>
     <g id="text_7">
      <!-- 2024 -->
      <g style="fill: #b1bed6" transform="translate(847.025684 330.884854) rotate(-30) scale(0.126 -0.126)">
       <use xlink:href="#DejaVuSans-32"/>
       <use xlink:href="#DejaVuSans-30" x="63.623047"/>
       <use xlink:href="#DejaVuSans-32" x="127.246094"/>
       <use xlink:href="#DejaVuSans-34" x="190.869141"/>
      </g>
     </g>
    </g>
    <g id="text_8">
     <!-- Date -->
     <g style="fill: #b1bed6" transform="translate(464.166875 348.095943) scale(0.144 -0.144)">
      <defs>
       <path id="DejaVuSans-44" d="M 1259 4147 
L 1259 519 
L 2022 519 
Q 2988 519 3436 956 
Q 3884 1394 3884 2338 
Q 3884 3275 3436 3711 
Q 2988 4147 2022 4147 
L 1259 4147 
z
M 628 4666 
L 1925 4666 
Q 3281 4666 3915 4102 
Q 4550 3538 4550 2338 
Q 4550 1131 3912 565 
Q 3275 0 1925 0 
L 628 0 
L 628 4666 
z
" transform="scale(0.015625)"/>
       <path id="DejaVuSans-61" d="M 2194 1759 
Q 1497 1759 1228 1600 
Q 959 1441 959 1056 
Q 959 750 1161 570 
Q 1363 391 1709 391 
Q 2188 391 2477 730 
Q 2766 1069 2766 1631 
L 2766 1759 
L 2194 1759 
z
M 3341 1997 
L 3341 0 
L 2766 0 
L 2766 531 
Q 2569 213 2275 61 
Q 1981 -91 1556 -91 
Q 1019 -91 701 211 
Q 384 513 384 1019 
Q 384 1609 779 1909 
Q 1175 2209 1959 2209 
L 2766 2209 
L 2766 2266 
Q 2766 2663 2505 2880 
Q 2244 3097 1772 3097 
Q 1472 3097 1187 3025 
Q 903 2953 641 2809 
L 641 3341 
Q 956 3463 1253 3523 
Q 1550 3584 1831 3584 
Q 2591 3584 2966 3190 
Q 3341 2797 3341 1997 
z
" transform="scale(0.015625)"/>
       <path id="DejaVuSans-74" d="M 1172 4494 
L 1172 3500 
L 2356 3500 
L 2356 3053 
L 1172 3053 
L 1172 1153 
Q 1172 725 1289 603 
Q 1406 481 1766 481 
L 2356 481 
L 2356 0 
L 1766 0 
Q 1100 0 847 248 
Q 594 497 594 1153 
L 594 3053 
L 172 3053 
L 172 3500 
L 594 3500 
L 594 4494 
L 1172 4494 
z
" transform="scale(0.015625)"/>
       <path id="DejaVuSans-65" d="M 3597 1894 
L 3597 1613 
L 953 1613 
Q 991 1019 1311 708 
Q 1631 397 2203 397 
Q 2534 397 2845 478 
Q 3156 559 3463 722 
L 3463 178 
Q 3153 47 2828 -22 
Q 2503 -91 2169 -91 
Q 1331 -91 842 396 
Q 353 884 353 1716 
Q 353 2575 817 3079 
Q 1281 3584 2069 3584 
Q 2775 3584 3186 3129 
Q 3597 2675 3597 1894 
z
M 3022 2063 
Q 3016 2534 2758 2815 
Q 2500 3097 2075 3097 
Q 1594 3097 1305 2825 
Q 1016 2553 972 2059 
L 3022 2063 
z
" transform="scale(0.015625)"/>
      </defs>
      <use xlink:href="#DejaVuSans-44"/>
      <use xlink:href="#DejaVuSans-61" x="77.001953"/>
      <use xlink:href="#DejaVuSans-74" x="138.28125"/>
      <use xlink:href="#DejaVuSans-65" x="177.490234"/>
     </g>
    </g>
   </g>
   <g id="matplotlib.axis_2">
    <g id="ytick_1">
     <g id="line2d_15">
      <path d="M 34.976 253.876333 
L 927.776 253.876333 
" clip-path="url(#p894e22dff1)" style="fill: none; stroke: #546379; stroke-width: 1.12; stroke-linecap: square"/>
     </g>
     <g id="line2d_16"/>
     <g id="text_9">
      <!-- $\mathdefault{10^{0}}$ -->
      <g style="fill: #b1bed6" transform="translate(7.2 258.663349) scale(0.126 -0.126)">
       <use xlink:href="#DejaVuSans-31" transform="translate(0 0.765625)"/>
       <use xlink:href="#DejaVuSans-30" transform="translate(63.623047 0.765625)"/>
       <use xlink:href="#DejaVuSans-30" transform="translate(128.203125 39.046875) scale(0.7)"/>
      </g>
     </g>
    </g>
    <g id="ytick_2">
     <g id="line2d_17">
      <path d="M 34.976 205.618269 
L 927.776 205.618269 
" clip-path="url(#p894e22dff1)" style="fill: none; stroke: #546379; stroke-width: 1.12; stroke-linecap: square"/>
     </g>
     <g id="line2d_18"/>
     <g id="text_10">
      <!-- $\mathdefault{10^{1}}$ -->
      <g style="fill: #b1bed6" transform="translate(7.2 210.405284) scale(0.126 -0.126)">
       <use xlink:href="#DejaVuSans-31" transform="translate(0 0.684375)"/>
       <use xlink:href="#DejaVuSans-30" transform="translate(63.623047 0.684375)"/>
       <use xlink:href="#DejaVuSans-31" transform="translate(128.203125 38.965625) scale(0.7)"/>
      </g>
     </g>
    </g>
    <g id="ytick_3">
     <g id="line2d_19">
      <path d="M 34.976 157.360204 
L 927.776 157.360204 
" clip-path="url(#p894e22dff1)" style="fill: none; stroke: #546379; stroke-width: 1.12; stroke-linecap: square"/>
     </g>
     <g id="line2d_20"/>
     <g id="text_11">
      <!-- $\mathdefault{10^{2}}$ -->
      <g style="fill: #b1bed6" transform="translate(7.2 162.14722) scale(0.126 -0.126)">
       <use xlink:href="#DejaVuSans-31" transform="translate(0 0.765625)"/>
       <use xlink:href="#DejaVuSans-30" transform="translate(63.623047 0.765625)"/>
       <use xlink:href="#DejaVuSans-32" transform="translate(128.203125 39.046875) scale(0.7)"/>
      </g>
     </g>
    </g>
    <g id="ytick_4">
     <g id="line2d_21">
      <path d="M 34.976 109.10214 
L 927.776 109.10214 
" clip-path="url(#p894e22dff1)" style="fill: none; stroke: #546379; stroke-width: 1.12; stroke-linecap: square"/>
     </g>
     <g id="line2d_22"/>
     <g id="text_12">
      <!-- $\mathdefault{10^{3}}$ -->
      <g style="fill: #b1bed6" transform="translate(7.2 113.889155) scale(0.126 -0.126)">
       <defs>
        <path id="DejaVuSans-33" d="M 2597 2516 
Q 3050 2419 3304 2112 
Q 3559 1806 3559 1356 
Q 3559 666 3084 287 
Q 2609 -91 1734 -91 
Q 1441 -91 1130 -33 
Q 819 25 488 141 
L 488 750 
Q 750 597 1062 519 
Q 1375 441 1716 441 
Q 2309 441 2620 675 
Q 2931 909 2931 1356 
Q 2931 1769 2642 2001 
Q 2353 2234 1838 2234 
L 1294 2234 
L 1294 2753 
L 1863 2753 
Q 2328 2753 2575 2939 
Q 2822 3125 2822 3475 
Q 2822 3834 2567 4026 
Q 2313 4219 1838 4219 
Q 1578 4219 1281 4162 
Q 984 4106 628 3988 
L 628 4550 
Q 988 4650 1302 4700 
Q 1616 4750 1894 4750 
Q 2613 4750 3031 4423 
Q 3450 4097 3450 3541 
Q 3450 3153 3228 2886 
Q 3006 2619 2597 2516 
z
" transform="scale(0.015625)"/>
       </defs>
       <use xlink:href="#DejaVuSans-31" transform="translate(0 0.765625)"/>
       <use xlink:href="#DejaVuSans-30" transform="translate(63.623047 0.765625)"/>
       <use xlink:href="#DejaVuSans-33" transform="translate(128.203125 39.046875) scale(0.7)"/>
      </g>
     </g>
    </g>
    <g id="ytick_5">
     <g id="line2d_23">
      <path d="M 34.976 60.844075 
L 927.776 60.844075 
" clip-path="url(#p894e22dff1)" style="fill: none; stroke: #546379; stroke-width: 1.12; stroke-linecap: square"/>
     </g>
     <g id="line2d_24"/>
     <g id="text_13">
      <!-- $\mathdefault{10^{4}}$ -->
      <g style="fill: #b1bed6" transform="translate(7.2 65.631091) scale(0.126 -0.126)">
       <use xlink:href="#DejaVuSans-31" transform="translate(0 0.684375)"/>
       <use xlink:href="#DejaVuSans-30" transform="translate(63.623047 0.684375)"/>
       <use xlink:href="#DejaVuSans-34" transform="translate(128.203125 38.965625) scale(0.7)"/>
      </g>
     </g>
    </g>
    <g id="ytick_6">
     <g id="line2d_25">
      <path d="M 34.976 12.586011 
L 927.776 12.586011 
" clip-path="url(#p894e22dff1)" style="fill: none; stroke: #546379; stroke-width: 1.12; stroke-linecap: square"/>
     </g>
     <g id="line2d_26"/>
     <g id="text_14">
      <!-- $\mathdefault{10^{5}}$ -->
      <g style="fill: #b1bed6" transform="translate(7.2 17.373026) scale(0.126 -0.126)">
       <defs>
        <path id="DejaVuSans-35" d="M 691 4666 
L 3169 4666 
L 3169 4134 
L 1269 4134 
L 1269 2991 
Q 1406 3038 1543 3061 
Q 1681 3084 1819 3084 
Q 2600 3084 3056 2656 
Q 3513 2228 3513 1497 
Q 3513 744 3044 326 
Q 2575 -91 1722 -91 
Q 1428 -91 1123 -41 
Q 819 9 494 109 
L 494 744 
Q 775 591 1075 516 
Q 1375 441 1709 441 
Q 2250 441 2565 725 
Q 2881 1009 2881 1497 
Q 2881 1984 2565 2268 
Q 2250 2553 1709 2553 
Q 1456 2553 1204 2497 
Q 953 2441 691 2322 
L 691 4666 
z
" transform="scale(0.015625)"/>
       </defs>
       <use xlink:href="#DejaVuSans-31" transform="translate(0 0.684375)"/>
       <use xlink:href="#DejaVuSans-30" transform="translate(63.623047 0.684375)"/>
       <use xlink:href="#DejaVuSans-35" transform="translate(128.203125 38.965625) scale(0.7)"/>
      </g>
     </g>
    </g>
    <g id="ytick_7">
     <g id="line2d_27"/>
    </g>
    <g id="ytick_8">
     <g id="line2d_28"/>
    </g>
    <g id="ytick_9">
     <g id="line2d_29"/>
    </g>
    <g id="ytick_10">
     <g id="line2d_30"/>
    </g>
    <g id="ytick_11">
     <g id="line2d_31"/>
    </g>
    <g id="ytick_12">
     <g id="line2d_32"/>
    </g>
    <g id="ytick_13">
     <g id="line2d_33"/>
    </g>
    <g id="ytick_14">
     <g id="line2d_34"/>
    </g>
    <g id="ytick_15">
     <g id="line2d_35"/>
    </g>
    <g id="ytick_16">
     <g id="line2d_36"/>
    </g>
    <g id="ytick_17">
     <g id="line2d_37"/>
    </g>
    <g id="ytick_18">
     <g id="line2d_38"/>
    </g>
    <g id="ytick_19">
     <g id="line2d_39"/>
    </g>
    <g id="ytick_20">
     <g id="line2d_40"/>
    </g>
    <g id="ytick_21">
     <g id="line2d_41"/>
    </g>
    <g id="ytick_22">
     <g id="line2d_42"/>
    </g>
    <g id="ytick_23">
     <g id="line2d_43"/>
    </g>
    <g id="ytick_24">
     <g id="line2d_44"/>
    </g>
    <g id="ytick_25">
     <g id="line2d_45"/>
    </g>
    <g id="ytick_26">
     <g id="line2d_46"/>
    </g>
    <g id="ytick_27">
     <g id="line2d_47"/>
    </g>
    <g id="ytick_28">
     <g id="line2d_48"/>
    </g>
    <g id="ytick_29">
     <g id="line2d_49"/>
    </g>
    <g id="ytick_30">
     <g id="line2d_50"/>
    </g>
    <g id="ytick_31">
     <g id="line2d_51"/>
    </g>
    <g id="ytick_32">
     <g id="line2d_52"/>
    </g>
    <g id="ytick_33">
     <g id="line2d_53"/>
    </g>
    <g id="ytick_34">
     <g id="line2d_54"/>
    </g>
    <g id="ytick_35">
     <g id="line2d_55"/>
    </g>
    <g id="ytick_36">
     <g id="line2d_56"/>
    </g>
    <g id="ytick_37">
     <g id="line2d_57"/>
    </g>
    <g id="ytick_38">
     <g id="line2d_58"/>
    </g>
    <g id="ytick_39">
     <g id="line2d_59"/>
    </g>
    <g id="ytick_40">
     <g id="line2d_60"/>
    </g>
    <g id="ytick_41">
     <g id="line2d_61"/>
    </g>
    <g id="ytick_42">
     <g id="line2d_62"/>
    </g>
    <g id="ytick_43">
     <g id="line2d_63"/>
    </g>
    <g id="ytick_44">
     <g id="line2d_64"/>
    </g>
    <g id="ytick_45">
     <g id="line2d_65"/>
    </g>
    <g id="ytick_46">
     <g id="line2d_66"/>
    </g>
    <g id="ytick_47">
     <g id="line2d_67"/>
    </g>
    <g id="ytick_48">
     <g id="line2d_68"/>
    </g>
    <g id="ytick_49">
     <g id="line2d_69"/>
    </g>
    <g id="ytick_50">
     <g id="line2d_70"/>
    </g>
    <g id="ytick_51">
     <g id="line2d_71"/>
    </g>
    <g id="ytick_52">
     <g id="line2d_72"/>
    </g>
    <g id="ytick_53">
     <g id="line2d_73"/>
    </g>
    <g id="ytick_54">
     <g id="line2d_74"/>
    </g>
   </g>
   <g id="line2d_75">
    <path d="M 75.557818 287.607273 
L 75.557818 282.930583 
L 76.223832 282.930583 
L 76.223832 277.756837 
L 76.889846 277.756837 
L 76.889846 279.109449 
L 77.55586 279.109449 
L 77.55586 280.555417 
L 78.221874 280.555417 
L 78.221874 279.819965 
L 78.887889 279.819965 
L 78.887889 280.555417 
L 80.219917 280.555417 
L 80.219917 282.108587 
L 80.885931 282.108587 
L 80.885931 284.678112 
L 82.217959 284.678112 
L 82.217959 282.930583 
L 82.883973 282.930583 
L 82.883973 282.108587 
L 83.549987 282.108587 
L 83.549987 282.930583 
L 84.216001 282.930583 
L 84.216001 281.317617 
L 84.882015 281.317617 
L 84.882015 279.109449 
L 86.214043 279.109449 
L 86.214043 277.756837 
L 86.880057 277.756837 
L 86.880057 275.288316 
L 87.546071 275.288316 
L 87.546071 273.080148 
L 88.212085 273.080148 
L 88.212085 274.155163 
L 88.878099 274.155163 
L 88.878099 271.082617 
L 89.544114 271.082617 
L 89.544114 270.611626 
L 90.210128 270.611626 
L 90.210128 255.623863 
L 91.542156 255.623863 
L 91.542156 254.514704 
L 92.20817 254.514704 
L 92.20817 252.263367 
L 92.874184 252.263367 
L 92.874184 252.853779 
L 93.540198 252.853779 
L 93.540198 256.555492 
L 94.206212 256.555492 
L 94.206212 253.876333 
L 94.872226 253.876333 
L 94.872226 254.514704 
L 95.53824 254.514704 
L 95.53824 255.623863 
L 96.204254 255.623863 
L 96.204254 256.555492 
L 96.870268 256.555492 
L 96.870268 255.852916 
L 97.536282 255.852916 
L 97.536282 256.795017 
L 98.202296 256.795017 
L 98.202296 258.816652 
L 98.86831 258.816652 
L 98.86831 256.318674 
L 99.534325 256.318674 
L 99.534325 258.553023 
L 100.866353 258.553023 
L 100.866353 259.905635 
L 101.532367 259.905635 
L 101.532367 259.628039 
L 102.198381 259.628039 
L 102.198381 254.299746 
L 102.864395 254.299746 
L 102.864395 250.0552 
L 103.530409 250.0552 
L 103.530409 247.126039 
L 104.196423 247.126039 
L 104.196423 241.791549 
L 104.862437 241.791549 
L 104.862437 224.101091 
L 105.528451 224.101091 
L 105.528451 227.264424 
L 106.194465 227.264424 
L 106.194465 225.299029 
L 106.860479 225.299029 
L 106.860479 214.486108 
L 107.526493 214.486108 
L 107.526493 209.098476 
L 108.192507 209.098476 
L 108.192507 213.153504 
L 108.858521 213.153504 
L 108.858521 212.30035 
L 109.524535 212.30035 
L 109.524535 208.585188 
L 110.19055 208.585188 
L 110.19055 206.321559 
L 110.856564 206.321559 
L 110.856564 192.111079 
L 111.522578 192.111079 
L 111.522578 181.019202 
L 112.188592 181.019202 
L 112.188592 187.569041 
L 112.854606 187.569041 
L 112.854606 192.310051 
L 113.52062 192.310051 
L 113.52062 196.582495 
L 114.186634 196.582495 
L 114.186634 193.794132 
L 114.852648 193.794132 
L 114.852648 194.070139 
L 115.518662 194.070139 
L 115.518662 196.111202 
L 116.184676 196.111202 
L 116.184676 195.637252 
L 116.85069 195.637252 
L 116.85069 197.022868 
L 117.516704 197.022868 
L 117.516704 198.195461 
L 118.182718 198.195461 
L 118.182718 197.773225 
L 118.848732 197.773225 
L 118.848732 198.671466 
L 119.514746 198.671466 
L 119.514746 198.417243 
L 120.180761 198.417243 
L 120.180761 197.715648 
L 120.846775 197.715648 
L 120.846775 202.689108 
L 121.512789 202.689108 
L 121.512789 206.343244 
L 122.178803 206.343244 
L 122.178803 205.765492 
L 122.844817 205.765492 
L 122.844817 202.945818 
L 123.510831 202.945818 
L 123.510831 202.238377 
L 124.176845 202.238377 
L 124.176845 203.056806 
L 124.842859 203.056806 
L 124.842859 206.737453 
L 125.508873 206.737453 
L 125.508873 209.123234 
L 126.174887 209.123234 
L 126.174887 209.599293 
L 126.840901 209.599293 
L 126.840901 213.824712 
L 127.506915 213.824712 
L 127.506915 215.670875 
L 128.172929 215.670875 
L 128.172929 220.061728 
L 128.838943 220.061728 
L 128.838943 215.70476 
L 129.504957 215.70476 
L 129.504957 218.186003 
L 130.170972 218.186003 
L 130.170972 220.398413 
L 130.836986 220.398413 
L 130.836986 219.895392 
L 131.503 219.895392 
L 131.503 221.044658 
L 132.169014 221.044658 
L 132.169014 224.000087 
L 132.835028 224.000087 
L 132.835028 224.769753 
L 133.501042 224.769753 
L 133.501042 233.931287 
L 134.167056 233.931287 
L 134.167056 228.727218 
L 134.83307 228.727218 
L 134.83307 230.164169 
L 135.499084 230.164169 
L 135.499084 228.351837 
L 136.165098 228.351837 
L 136.165098 229.368192 
L 136.831112 229.368192 
L 136.831112 229.56437 
L 137.497126 229.56437 
L 137.497126 230.096671 
L 138.16314 230.096671 
L 138.16314 233.850523 
L 138.829154 233.850523 
L 138.829154 235.095931 
L 139.495168 235.095931 
L 139.495168 234.840859 
L 140.161182 234.840859 
L 140.161182 233.530544 
L 140.827197 233.530544 
L 140.827197 229.89547 
L 141.493211 229.89547 
L 141.493211 230.436357 
L 142.159225 230.436357 
L 142.159225 230.029389 
L 142.825239 230.029389 
L 142.825239 229.109445 
L 143.491253 229.109445 
L 143.491253 228.476218 
L 144.157267 228.476218 
L 144.157267 224.927137 
L 144.823281 224.927137 
L 144.823281 223.5515 
L 145.489295 223.5515 
L 145.489295 222.493751 
L 146.155309 222.493751 
L 146.155309 218.649187 
L 146.821323 218.649187 
L 146.821323 212.914661 
L 147.487337 212.914661 
L 147.487337 212.796253 
L 148.153351 212.796253 
L 148.153351 212.974117 
L 148.819365 212.974117 
L 148.819365 215.070121 
L 149.485379 215.070121 
L 149.485379 214.743662 
L 150.151393 214.743662 
L 150.151393 217.399276 
L 150.817408 217.399276 
L 150.817408 217.583931 
L 151.483422 217.583931 
L 151.483422 216.359219 
L 152.149436 216.359219 
L 152.149436 216.890733 
L 153.481464 216.96263 
L 153.481464 221.264578 
L 154.147478 221.264578 
L 154.147478 222.353562 
L 154.813492 222.353562 
L 154.813492 219.444661 
L 155.479506 219.444661 
L 155.479506 220.229395 
L 156.14552 220.229395 
L 156.14552 220.957332 
L 156.811534 220.957332 
L 156.811534 219.936853 
L 157.477548 219.936853 
L 157.477548 220.229395 
L 158.143562 220.229395 
L 158.143562 218.377754 
L 158.809576 218.377754 
L 158.809576 219.202832 
L 159.47559 219.202832 
L 159.47559 220.957332 
L 160.141604 220.957332 
L 160.141604 221.13235 
L 160.807618 221.13235 
L 160.807618 220.398413 
L 162.139647 220.313734 
L 162.139647 221.00095 
L 162.805661 221.00095 
L 162.805661 220.271522 
L 164.137689 220.187352 
L 164.137689 219.162798 
L 164.803703 219.162798 
L 164.803703 219.363741 
L 165.469717 219.363741 
L 165.469717 219.771501 
L 166.135731 219.771501 
L 166.135731 219.404162 
L 166.801745 219.404162 
L 166.801745 219.730366 
L 168.133773 219.730366 
L 168.133773 219.936853 
L 168.799787 219.936853 
L 168.799787 219.607444 
L 170.797829 219.525894 
L 170.797829 219.404162 
L 171.463844 219.404162 
L 171.463844 219.04315 
L 172.129858 219.04315 
L 172.129858 217.920466 
L 173.461886 217.845212 
L 173.461886 215.401745 
L 174.1279 215.401745 
L 174.1279 214.454135 
L 174.793914 214.454135 
L 174.793914 214.200093 
L 175.459928 214.200093 
L 175.459928 214.390335 
L 176.125942 214.390335 
L 176.125942 213.980305 
L 176.791956 213.980305 
L 176.791956 213.824712 
L 177.45797 213.824712 
L 177.45797 213.153504 
L 178.123984 213.153504 
L 178.123984 210.691656 
L 178.789998 210.691656 
L 178.789998 206.759573 
L 179.456012 206.759573 
L 179.456012 206.627205 
L 180.122026 206.627205 
L 180.122026 208.297428 
L 180.78804 208.297428 
L 180.78804 207.943196 
L 181.454055 207.943196 
L 181.454055 205.368267 
L 182.120069 205.368267 
L 182.120069 203.187039 
L 182.786083 203.187039 
L 182.786083 202.507651 
L 183.452097 202.507651 
L 183.452097 201.279622 
L 184.118111 201.279622 
L 184.118111 197.859889 
L 184.784125 197.859889 
L 184.784125 205.080319 
L 185.450139 205.080319 
L 185.450139 203.639799 
L 186.116153 203.639799 
L 186.116153 203.792919 
L 186.782167 203.792919 
L 186.782167 204.555832 
L 187.448181 204.555832 
L 187.448181 203.112521 
L 188.780209 203.168385 
L 188.780209 202.078458 
L 189.446223 202.078458 
L 189.446223 200.724739 
L 190.112237 200.724739 
L 190.112237 201.313728 
L 190.778251 201.313728 
L 190.778251 201.008753 
L 191.444265 201.008753 
L 191.444265 200.807874 
L 192.11028 200.807874 
L 192.11028 200.168004 
L 192.776294 200.168004 
L 192.776294 201.279622 
L 193.442308 201.279622 
L 193.442308 201.623207 
L 194.108322 201.623207 
L 194.108322 201.832095 
L 194.774336 201.832095 
L 194.774336 202.149382 
L 195.44035 202.149382 
L 195.44035 202.580046 
L 196.106364 202.580046 
L 196.106364 203.754534 
L 196.772378 203.754534 
L 196.772378 203.506731 
L 197.438392 203.506731 
L 197.438392 203.677975 
L 198.77042 203.71622 
L 198.77042 203.48779 
L 199.436434 203.48779 
L 199.436434 202.11389 
L 200.102448 202.11389 
L 200.102448 201.245571 
L 200.768462 201.245571 
L 200.768462 200.74134 
L 202.100491 200.675016 
L 202.100491 199.974988 
L 202.766505 199.974988 
L 202.766505 199.251134 
L 203.432519 199.251134 
L 203.432519 198.867975 
L 204.098533 198.867975 
L 204.098533 199.127759 
L 205.430561 199.020399 
L 205.430561 199.40638 
L 206.096575 199.40638 
L 206.096575 199.097029 
L 206.762589 199.097029 
L 206.762589 199.297587 
L 208.094617 199.266607 
L 208.094617 198.581388 
L 208.760631 198.581388 
L 208.760631 198.107401 
L 209.426645 198.107401 
L 209.426645 196.392704 
L 210.092659 196.392704 
L 210.092659 194.337591 
L 210.758673 194.337591 
L 210.758673 192.679812 
L 211.424687 192.679812 
L 211.424687 191.322961 
L 212.090701 191.322961 
L 212.090701 190.068589 
L 212.756716 190.068589 
L 212.756716 189.546208 
L 213.42273 189.546208 
L 213.42273 187.296224 
L 214.088744 187.296224 
L 214.088744 184.646815 
L 214.754758 184.646815 
L 214.754758 184.817019 
L 215.420772 184.817019 
L 215.420772 182.233157 
L 216.086786 182.233157 
L 216.086786 181.771324 
L 216.7528 181.771324 
L 216.7528 179.816584 
L 217.418814 179.816584 
L 217.418814 175.541464 
L 218.084828 175.541464 
L 218.084828 173.817901 
L 218.750842 173.817901 
L 218.750842 173.246649 
L 219.416856 173.246649 
L 219.416856 171.017024 
L 220.08287 171.017024 
L 220.08287 164.760756 
L 220.748884 164.760756 
L 220.748884 162.356309 
L 221.414898 162.356309 
L 221.414898 158.994139 
L 222.080912 158.994139 
L 222.080912 151.700918 
L 222.746927 151.700918 
L 222.746927 147.081903 
L 223.412941 147.081903 
L 223.412941 152.700288 
L 224.078955 152.700288 
L 224.078955 165.412202 
L 224.744969 165.412202 
L 224.744969 153.728548 
L 225.410983 153.728548 
L 225.410983 149.937397 
L 226.076997 149.937397 
L 226.076997 152.10475 
L 226.743011 152.10475 
L 226.743011 154.069687 
L 227.409025 154.069687 
L 227.409025 154.2532 
L 228.075039 154.2532 
L 228.075039 154.856316 
L 228.741053 154.856316 
L 228.741053 153.893094 
L 229.407067 153.893094 
L 229.407067 152.967103 
L 230.739095 153.072738 
L 230.739095 151.543127 
L 232.071123 151.493961 
L 232.071123 153.120619 
L 232.737138 153.120619 
L 232.737138 153.719738 
L 233.403152 153.719738 
L 233.403152 156.11923 
L 234.069166 156.11923 
L 234.069166 157.364396 
L 234.73518 157.364396 
L 234.73518 155.865949 
L 235.401194 155.865949 
L 235.401194 155.679428 
L 236.067208 155.679428 
L 236.067208 156.538208 
L 236.733222 156.538208 
L 236.733222 157.944628 
L 237.399236 157.944628 
L 237.399236 162.026417 
L 238.06525 162.026417 
L 238.06525 162.977218 
L 238.731264 162.977218 
L 238.731264 158.659232 
L 239.397278 158.659232 
L 239.397278 157.987774 
L 240.063292 157.987774 
L 240.063292 159.710906 
L 240.729306 159.710906 
L 240.729306 158.5436 
L 241.39532 158.5436 
L 241.39532 157.634447 
L 242.061334 157.634447 
L 242.061334 156.413636 
L 242.727348 156.413636 
L 242.727348 155.997116 
L 243.393363 155.997116 
L 243.393363 156.78144 
L 244.059377 156.78144 
L 244.059377 155.486885 
L 244.725391 155.486885 
L 244.725391 157.421071 
L 245.391405 157.421071 
L 245.391405 155.280906 
L 246.057419 155.280906 
L 246.057419 154.746874 
L 246.723433 154.746874 
L 246.723433 153.802699 
L 247.389447 153.802699 
L 247.389447 151.847014 
L 248.055461 151.847014 
L 248.055461 153.960701 
L 248.721475 153.960701 
L 248.721475 153.18921 
L 249.387489 153.18921 
L 249.387489 152.843405 
L 250.053503 152.843405 
L 250.053503 152.331044 
L 250.719517 152.331044 
L 250.719517 153.033488 
L 251.385531 153.033488 
L 251.385531 152.74228 
L 252.051545 152.74228 
L 252.051545 152.474973 
L 252.717559 152.474973 
L 252.717559 153.202956 
L 253.383574 153.202956 
L 253.383574 152.831582 
L 254.049588 152.831582 
L 254.049588 152.253698 
L 254.715602 152.253698 
L 254.715602 150.581075 
L 255.381616 150.581075 
L 255.381616 144.340514 
L 256.04763 144.340514 
L 256.04763 143.328258 
L 256.713644 143.328258 
L 256.713644 142.122214 
L 257.379658 142.122214 
L 257.379658 142.521041 
L 258.045672 142.521041 
L 258.045672 137.94038 
L 258.711686 137.94038 
L 258.711686 132.337725 
L 259.3777 132.337725 
L 259.3777 128.67597 
L 260.043714 128.67597 
L 260.043714 124.70428 
L 260.709728 124.70428 
L 260.709728 116.08123 
L 261.375742 116.08123 
L 261.375742 113.40082 
L 262.041756 113.40082 
L 262.041756 106.467544 
L 262.70777 106.467544 
L 262.70777 108.075394 
L 263.373784 108.075394 
L 263.373784 116.401204 
L 264.039799 116.401204 
L 264.039799 111.855737 
L 264.705813 111.855737 
L 264.705813 112.190621 
L 265.371827 112.190621 
L 265.371827 117.022218 
L 266.037841 117.022218 
L 266.037841 117.810918 
L 266.703855 117.810918 
L 266.703855 115.871464 
L 267.369869 115.871464 
L 267.369869 115.640573 
L 268.035883 115.640573 
L 268.035883 113.039115 
L 268.701897 113.039115 
L 268.701897 113.177142 
L 269.367911 113.177142 
L 269.367911 112.655717 
L 270.033925 112.655717 
L 270.033925 113.334286 
L 270.699939 113.334286 
L 270.699939 113.062647 
L 271.365953 113.062647 
L 271.365953 114.308908 
L 272.031967 114.308908 
L 272.031967 114.159514 
L 272.697981 114.159514 
L 272.697981 113.336081 
L 273.363995 113.336081 
L 273.363995 114.282593 
L 274.03001 114.282593 
L 274.03001 116.959008 
L 274.696024 116.959008 
L 274.696024 119.461706 
L 275.362038 119.461706 
L 275.362038 118.786907 
L 276.028052 118.786907 
L 276.028052 120.536722 
L 276.694066 120.536722 
L 276.694066 121.27207 
L 277.36008 121.27207 
L 277.36008 120.97601 
L 278.026094 120.97601 
L 278.026094 117.473548 
L 278.692108 117.473548 
L 278.692108 118.458794 
L 280.024136 118.42247 
L 280.024136 118.962302 
L 280.69015 118.962302 
L 280.69015 120.777153 
L 281.356164 120.777153 
L 281.356164 120.310464 
L 282.022178 120.310464 
L 282.022178 124.052677 
L 282.688192 124.052677 
L 282.688192 126.350382 
L 283.354206 126.350382 
L 283.354206 125.468115 
L 284.020221 125.468115 
L 284.020221 129.996609 
L 284.686235 129.996609 
L 284.686235 125.393203 
L 285.352249 125.393203 
L 285.352249 124.392894 
L 286.018263 124.392894 
L 286.018263 124.116075 
L 286.684277 124.116075 
L 286.684277 125.309472 
L 287.350291 125.309472 
L 287.350291 125.7431 
L 288.016305 125.7431 
L 288.016305 126.463803 
L 289.348333 126.422575 
L 289.348333 126.192048 
L 290.014347 126.192048 
L 290.014347 125.878458 
L 290.680361 125.878458 
L 290.680361 124.133243 
L 291.346375 124.133243 
L 291.346375 122.490863 
L 292.012389 122.490863 
L 292.012389 120.482543 
L 292.678403 120.482543 
L 292.678403 118.76197 
L 293.344417 118.76197 
L 293.344417 117.763656 
L 294.010431 117.763656 
L 294.010431 118.168984 
L 294.676446 118.168984 
L 294.676446 120.105391 
L 295.34246 120.105391 
L 295.34246 119.530535 
L 296.008474 119.530535 
L 296.008474 120.126304 
L 296.674488 120.126304 
L 296.674488 121.225674 
L 297.340502 121.225674 
L 297.340502 119.80848 
L 298.006516 119.80848 
L 298.006516 118.28105 
L 298.67253 118.28105 
L 298.67253 118.974383 
L 299.338544 118.974383 
L 299.338544 118.652929 
L 300.004558 118.652929 
L 300.004558 118.983784 
L 300.670572 118.983784 
L 300.670572 118.785576 
L 301.336586 118.785576 
L 301.336586 119.106385 
L 302.0026 119.106385 
L 302.0026 120.030062 
L 302.668614 120.030062 
L 302.668614 120.445061 
L 303.334628 120.445061 
L 303.334628 120.21373 
L 304.666657 120.196642 
L 304.666657 120.919579 
L 305.332671 120.919579 
L 305.332671 122.651469 
L 305.998685 122.651469 
L 305.998685 122.854882 
L 306.664699 122.854882 
L 306.664699 123.29535 
L 307.996727 123.354013 
L 307.996727 124.644359 
L 308.662741 124.644359 
L 308.662741 124.228348 
L 309.328755 124.228348 
L 309.328755 124.777209 
L 309.994769 124.777209 
L 309.994769 124.619736 
L 310.660783 124.619736 
L 310.660783 125.656577 
L 311.326797 125.656577 
L 311.326797 128.245786 
L 311.992811 128.245786 
L 311.992811 127.778731 
L 312.658825 127.778731 
L 312.658825 129.721816 
L 313.324839 129.721816 
L 313.324839 130.578259 
L 313.990853 130.578259 
L 313.990853 132.081449 
L 314.656867 132.081449 
L 314.656867 130.400905 
L 315.322882 130.400905 
L 315.322882 128.578074 
L 315.988896 128.578074 
L 315.988896 128.866686 
L 316.65491 128.866686 
L 316.65491 130.677768 
L 317.320924 130.677768 
L 317.320924 131.05071 
L 317.986938 131.05071 
L 317.986938 131.848733 
L 318.652952 131.848733 
L 318.652952 132.323123 
L 319.318966 132.323123 
L 319.318966 131.288574 
L 319.98498 131.288574 
L 319.98498 127.273921 
L 320.650994 127.273921 
L 320.650994 128.843558 
L 321.317008 128.843558 
L 321.317008 130.720643 
L 321.983022 130.720643 
L 321.983022 129.682053 
L 322.649036 129.682053 
L 322.649036 129.548198 
L 323.31505 129.548198 
L 323.31505 129.401939 
L 323.981064 129.401939 
L 323.981064 129.655772 
L 324.647078 129.655772 
L 324.647078 131.177115 
L 325.313093 131.177115 
L 325.313093 130.642593 
L 325.979107 130.642593 
L 325.979107 133.495802 
L 326.645121 133.495802 
L 326.645121 132.212352 
L 327.311135 132.212352 
L 327.311135 132.341536 
L 327.977149 132.341536 
L 327.977149 133.580542 
L 328.643163 133.580542 
L 328.643163 135.403654 
L 329.309177 135.403654 
L 329.309177 134.476149 
L 329.975191 134.476149 
L 329.975191 136.568278 
L 330.641205 136.568278 
L 330.641205 141.789577 
L 331.307219 141.789577 
L 331.307219 141.219143 
L 331.973233 141.219143 
L 331.973233 139.568552 
L 332.639247 139.568552 
L 332.639247 137.052555 
L 333.305261 137.052555 
L 333.305261 140.907119 
L 333.971275 140.907119 
L 333.971275 140.205877 
L 334.637289 140.205877 
L 334.637289 140.464463 
L 335.303304 140.464463 
L 335.303304 140.614749 
L 335.969318 140.614749 
L 335.969318 139.497827 
L 336.635332 139.497827 
L 336.635332 138.513184 
L 337.301346 138.513184 
L 337.301346 139.017186 
L 337.96736 139.017186 
L 337.96736 137.86501 
L 338.633374 137.86501 
L 338.633374 136.538767 
L 339.299388 136.538767 
L 339.299388 136.158859 
L 339.965402 136.158859 
L 339.965402 134.694609 
L 340.631416 134.694609 
L 340.631416 135.097871 
L 341.29743 135.097871 
L 341.29743 137.165796 
L 341.963444 137.165796 
L 341.963444 138.579802 
L 342.629458 138.579802 
L 342.629458 137.909702 
L 343.295472 137.909702 
L 343.295472 138.452728 
L 343.961486 138.452728 
L 343.961486 137.292519 
L 344.6275 137.292519 
L 344.6275 138.751592 
L 345.293514 138.751592 
L 345.293514 140.550746 
L 346.625543 140.585547 
L 346.625543 139.377518 
L 347.291557 139.377518 
L 347.291557 140.24474 
L 348.623585 140.306885 
L 348.623585 139.05828 
L 349.289599 139.05828 
L 349.289599 139.26143 
L 349.955613 139.26143 
L 349.955613 138.92915 
L 350.621627 138.92915 
L 350.621627 139.24288 
L 351.287641 139.24288 
L 351.287641 139.776734 
L 351.953655 139.776734 
L 351.953655 139.208474 
L 352.619669 139.208474 
L 352.619669 139.425559 
L 353.285683 139.425559 
L 353.285683 140.055731 
L 353.951697 140.055731 
L 353.951697 140.562967 
L 354.617711 140.562967 
L 354.617711 140.118238 
L 355.283725 140.118238 
L 355.283725 139.9404 
L 355.94974 139.9404 
L 355.94974 138.158066 
L 356.615754 138.158066 
L 356.615754 138.601199 
L 357.281768 138.601199 
L 357.281768 138.994488 
L 357.947782 138.994488 
L 357.947782 138.276615 
L 358.613796 138.276615 
L 358.613796 137.767679 
L 359.27981 137.767679 
L 359.27981 136.657841 
L 359.945824 136.657841 
L 359.945824 135.416155 
L 360.611838 135.416155 
L 360.611838 135.196634 
L 361.277852 135.196634 
L 361.277852 136.026668 
L 362.60988 135.933724 
L 362.60988 134.842956 
L 363.275894 134.842956 
L 363.275894 135.15809 
L 363.941908 135.15809 
L 363.941908 135.697558 
L 364.607922 135.697558 
L 364.607922 135.832184 
L 365.273936 135.832184 
L 365.273936 136.467491 
L 365.93995 136.467491 
L 365.93995 137.219439 
L 366.605965 137.219439 
L 366.605965 140.248445 
L 367.271979 140.248445 
L 367.271979 140.074096 
L 367.937993 140.074096 
L 367.937993 140.354314 
L 368.604007 140.354314 
L 368.604007 139.881151 
L 369.936035 139.837505 
L 369.936035 138.647491 
L 370.602049 138.647491 
L 370.602049 139.477281 
L 371.268063 139.477281 
L 371.268063 140.056649 
L 371.934077 140.056649 
L 371.934077 139.889344 
L 372.600091 139.889344 
L 372.600091 139.542562 
L 373.266105 139.542562 
L 373.266105 139.087181 
L 373.932119 139.087181 
L 373.932119 139.207593 
L 374.598133 139.207593 
L 374.598133 138.426386 
L 375.930161 138.518301 
L 375.930161 137.950339 
L 376.596176 137.950339 
L 376.596176 137.250728 
L 377.26219 137.250728 
L 377.26219 136.208455 
L 377.928204 136.208455 
L 377.928204 135.28636 
L 378.594218 135.28636 
L 378.594218 132.454271 
L 379.260232 132.454271 
L 379.260232 128.071491 
L 379.926246 128.071491 
L 379.926246 128.997328 
L 380.59226 128.997328 
L 380.59226 133.717113 
L 381.258274 133.717113 
L 381.258274 133.050212 
L 381.924288 133.050212 
L 381.924288 132.599746 
L 382.590302 132.599746 
L 382.590302 132.755954 
L 383.256316 132.755954 
L 383.256316 130.630881 
L 383.92233 130.630881 
L 383.92233 130.364457 
L 384.588344 130.364457 
L 384.588344 129.001119 
L 385.254358 129.001119 
L 385.254358 127.459287 
L 385.920372 127.459287 
L 385.920372 126.625662 
L 386.586387 126.625662 
L 386.586387 125.533196 
L 387.252401 125.533196 
L 387.252401 126.387165 
L 387.918415 126.387165 
L 387.918415 125.582829 
L 388.584429 125.582829 
L 388.584429 126.633401 
L 389.916457 126.65615 
L 389.916457 126.826341 
L 390.582471 126.826341 
L 390.582471 125.910681 
L 391.248485 125.910681 
L 391.248485 126.812187 
L 391.914499 126.812187 
L 391.914499 129.080345 
L 392.580513 129.080345 
L 392.580513 129.298403 
L 393.246527 129.298403 
L 393.246527 128.747553 
L 393.912541 128.747553 
L 393.912541 129.569335 
L 394.578555 129.569335 
L 394.578555 130.027302 
L 395.244569 130.027302 
L 395.244569 129.658566 
L 395.910583 129.658566 
L 395.910583 129.490459 
L 396.576597 129.490459 
L 396.576597 128.347388 
L 397.242612 128.347388 
L 397.242612 127.284398 
L 398.57464 127.320859 
L 398.57464 126.712889 
L 399.240654 126.712889 
L 399.240654 127.159018 
L 399.906668 127.159018 
L 399.906668 128.009924 
L 400.572682 128.009924 
L 400.572682 127.483958 
L 401.90471 127.534904 
L 401.90471 127.892982 
L 402.570724 127.892982 
L 402.570724 127.464319 
L 403.902752 127.435649 
L 403.902752 127.598128 
L 404.568766 127.598128 
L 404.568766 127.357884 
L 405.900794 127.285895 
L 405.900794 127.152571 
L 406.566808 127.152571 
L 406.566808 126.817067 
L 407.232823 126.817067 
L 407.232823 126.502228 
L 407.898837 126.502228 
L 407.898837 125.748201 
L 408.564851 125.748201 
L 408.564851 126.057951 
L 409.230865 126.057951 
L 409.230865 125.698175 
L 409.896879 125.698175 
L 409.896879 125.866795 
L 410.562893 125.866795 
L 410.562893 125.346745 
L 411.228907 125.346745 
L 411.228907 125.568111 
L 411.894921 125.568111 
L 411.894921 125.694474 
L 412.560935 125.694474 
L 412.560935 126.156079 
L 413.226949 126.156079 
L 413.226949 125.898066 
L 413.892963 125.898066 
L 413.892963 123.160882 
L 414.558977 123.160882 
L 414.558977 122.094066 
L 415.224991 122.094066 
L 415.224991 120.384655 
L 415.891005 120.384655 
L 415.891005 120.592855 
L 416.557019 120.592855 
L 416.557019 117.025582 
L 417.223033 117.025582 
L 417.223033 115.076742 
L 417.889048 115.076742 
L 417.889048 120.060797 
L 418.555062 120.060797 
L 418.555062 118.779257 
L 419.221076 118.779257 
L 419.221076 117.559657 
L 419.88709 117.559657 
L 419.88709 117.123999 
L 420.553104 117.123999 
L 420.553104 117.715551 
L 422.551146 117.768726 
L 422.551146 117.573782 
L 423.21716 117.573782 
L 423.21716 117.763656 
L 423.883174 117.763656 
L 423.883174 117.952708 
L 424.549188 117.952708 
L 424.549188 119.614813 
L 425.215202 119.614813 
L 425.215202 120.783373 
L 425.881216 120.783373 
L 425.881216 120.339464 
L 427.213244 120.398303 
L 427.213244 120.849347 
L 427.879259 120.849347 
L 427.879259 120.618617 
L 429.211287 120.672785 
L 429.211287 120.828066 
L 430.543315 120.809738 
L 430.543315 119.52502 
L 431.209329 119.52502 
L 431.209329 119.065213 
L 431.875343 119.065213 
L 431.875343 119.496436 
L 433.207371 119.554333 
L 433.207371 120.015946 
L 433.873385 120.015946 
L 433.873385 119.572286 
L 435.871427 119.55882 
L 435.871427 119.309028 
L 436.537441 119.309028 
L 436.537441 118.614618 
L 437.203455 118.614618 
L 437.203455 118.489276 
L 437.86947 118.489276 
L 437.86947 118.822535 
L 438.535484 118.822535 
L 438.535484 118.327216 
L 439.201498 118.327216 
L 439.201498 117.003571 
L 439.867512 117.003571 
L 439.867512 115.795756 
L 440.533526 115.795756 
L 440.533526 116.473474 
L 441.19954 116.473474 
L 441.19954 115.94338 
L 441.865554 115.94338 
L 441.865554 116.566034 
L 442.531568 116.566034 
L 442.531568 115.502453 
L 444.52961 115.495912 
L 444.52961 115.69734 
L 445.195624 115.69734 
L 445.195624 114.772102 
L 446.527652 114.675906 
L 446.527652 114.629201 
L 447.193666 114.629201 
L 447.193666 114.420441 
L 447.85968 114.420441 
L 447.85968 114.015151 
L 448.525695 114.015151 
L 448.525695 110.988406 
L 449.191709 110.988406 
L 449.191709 110.615431 
L 449.857723 110.615431 
L 449.857723 109.852297 
L 450.523737 109.852297 
L 450.523737 106.930807 
L 451.189751 106.930807 
L 451.189751 111.067441 
L 451.855765 111.067441 
L 451.855765 113.634714 
L 452.521779 113.634714 
L 452.521779 112.993139 
L 453.187793 112.993139 
L 453.187793 111.412085 
L 453.853807 111.412085 
L 453.853807 111.695973 
L 454.519821 111.695973 
L 454.519821 110.88113 
L 455.185835 110.88113 
L 455.185835 109.45254 
L 455.851849 109.45254 
L 455.851849 108.8712 
L 456.517863 108.8712 
L 456.517863 109.411662 
L 457.183877 109.411662 
L 457.183877 109.077005 
L 457.849891 109.077005 
L 457.849891 107.988963 
L 458.515906 107.988963 
L 458.515906 106.633618 
L 459.18192 106.633618 
L 459.18192 106.166237 
L 459.847934 106.166237 
L 459.847934 104.849205 
L 460.513948 104.849205 
L 460.513948 104.075618 
L 461.179962 104.075618 
L 461.179962 105.419613 
L 461.845976 105.419613 
L 461.845976 104.581624 
L 462.51199 104.581624 
L 462.51199 107.71746 
L 463.178004 107.71746 
L 463.178004 106.858373 
L 463.844018 106.858373 
L 463.844018 109.918218 
L 464.510032 109.918218 
L 464.510032 108.284779 
L 465.176046 108.284779 
L 465.176046 107.489368 
L 465.84206 107.489368 
L 465.84206 105.3908 
L 466.508074 105.3908 
L 466.508074 105.107251 
L 467.174088 105.107251 
L 467.174088 105.805174 
L 467.840102 105.805174 
L 467.840102 105.260058 
L 468.506116 105.260058 
L 468.506116 104.708359 
L 469.172131 104.708359 
L 469.172131 103.797488 
L 469.838145 103.797488 
L 469.838145 102.738098 
L 470.504159 102.738098 
L 470.504159 100.090484 
L 471.170173 100.090484 
L 471.170173 98.592818 
L 471.836187 98.592818 
L 471.836187 98.069083 
L 472.502201 98.069083 
L 472.502201 97.870581 
L 473.168215 97.870581 
L 473.168215 94.482584 
L 473.834229 94.482584 
L 473.834229 90.567053 
L 474.500243 90.567053 
L 474.500243 92.794088 
L 475.166257 92.794088 
L 475.166257 90.667345 
L 475.832271 90.667345 
L 475.832271 88.292191 
L 476.498285 88.292191 
L 476.498285 87.335824 
L 477.164299 87.335824 
L 477.164299 88.238837 
L 477.830313 88.238837 
L 477.830313 88.837801 
L 478.496327 88.837801 
L 478.496327 88.608498 
L 479.162342 88.608498 
L 479.162342 89.881314 
L 479.828356 89.881314 
L 479.828356 89.551708 
L 481.160384 89.483873 
L 481.160384 89.874363 
L 481.826398 89.874363 
L 481.826398 91.546493 
L 482.492412 91.546493 
L 482.492412 94.867421 
L 483.158426 94.867421 
L 483.158426 91.965292 
L 483.82444 91.965292 
L 483.82444 87.913297 
L 484.490454 87.913297 
L 484.490454 88.625532 
L 485.156468 88.625532 
L 485.156468 87.057558 
L 486.488496 87.104315 
L 486.488496 83.400129 
L 487.15451 83.400129 
L 487.15451 80.748363 
L 487.820524 80.748363 
L 487.820524 78.165947 
L 488.486538 78.165947 
L 488.486538 79.763745 
L 489.152553 79.763745 
L 489.152553 78.3779 
L 489.818567 78.3779 
L 489.818567 78.161829 
L 490.484581 78.161829 
L 490.484581 75.758673 
L 491.150595 75.758673 
L 491.150595 78.121834 
L 491.816609 78.121834 
L 491.816609 78.382255 
L 492.482623 78.382255 
L 492.482623 80.766248 
L 493.148637 80.766248 
L 493.148637 81.803793 
L 493.814651 81.803793 
L 493.814651 82.250703 
L 494.480665 82.250703 
L 494.480665 80.407349 
L 495.146679 80.407349 
L 495.146679 79.204393 
L 495.812693 79.204393 
L 495.812693 78.491617 
L 496.478707 78.491617 
L 496.478707 77.86324 
L 497.144721 77.86324 
L 497.144721 76.130178 
L 497.810735 76.130178 
L 497.810735 72.655659 
L 499.142763 72.635527 
L 499.142763 71.900218 
L 499.808778 71.900218 
L 499.808778 72.369668 
L 500.474792 72.369668 
L 500.474792 70.144896 
L 501.140806 70.144896 
L 501.140806 67.251244 
L 501.80682 67.251244 
L 501.80682 66.961755 
L 502.472834 66.961755 
L 502.472834 71.937582 
L 503.138848 71.937582 
L 503.138848 65.867409 
L 503.804862 65.867409 
L 503.804862 64.894119 
L 505.13689 64.970613 
L 505.13689 61.014528 
L 505.802904 61.014528 
L 505.802904 59.013213 
L 506.468918 59.013213 
L 506.468918 54.02717 
L 507.134932 54.02717 
L 507.134932 52.250135 
L 507.800946 52.250135 
L 507.800946 50.465714 
L 508.46696 50.465714 
L 508.46696 47.489494 
L 509.132974 47.489494 
L 509.132974 54.129334 
L 509.798989 54.129334 
L 509.798989 51.419739 
L 510.465003 51.419739 
L 510.465003 55.979539 
L 511.131017 55.979539 
L 511.131017 52.291497 
L 511.797031 52.291497 
L 511.797031 50.742461 
L 512.463045 50.742461 
L 512.463045 54.890018 
L 513.129059 54.890018 
L 513.129059 54.470538 
L 513.795073 54.470538 
L 513.795073 57.903054 
L 514.461087 57.903054 
L 514.461087 59.17009 
L 515.127101 59.17009 
L 515.127101 58.040365 
L 515.793115 58.040365 
L 515.793115 60.42083 
L 516.459129 60.42083 
L 516.459129 64.997988 
L 517.791157 64.888348 
L 517.791157 63.296497 
L 518.457171 63.296497 
L 518.457171 60.473147 
L 519.123185 60.473147 
L 519.123185 58.383044 
L 519.789199 58.383044 
L 519.789199 61.482964 
L 520.455214 61.482964 
L 520.455214 60.15928 
L 521.121228 60.15928 
L 521.121228 57.884266 
L 521.787242 57.884266 
L 521.787242 62.309887 
L 522.453256 62.309887 
L 522.453256 62.751679 
L 523.11927 62.751679 
L 523.11927 64.754539 
L 523.785284 64.754539 
L 523.785284 63.262998 
L 524.451298 63.262998 
L 524.451298 64.167105 
L 525.117312 64.167105 
L 525.117312 65.650557 
L 525.783326 65.650557 
L 525.783326 68.842162 
L 526.44934 68.842162 
L 526.44934 68.968026 
L 527.781368 68.974976 
L 527.781368 65.796999 
L 529.113396 65.765328 
L 529.113396 63.214481 
L 529.77941 63.214481 
L 529.77941 63.35685 
L 530.445425 63.35685 
L 530.445425 62.144441 
L 531.111439 62.144441 
L 531.111439 61.367491 
L 531.777453 61.367491 
L 531.777453 62.209747 
L 532.443467 62.209747 
L 532.443467 64.506121 
L 533.109481 64.506121 
L 533.109481 64.32166 
L 533.775495 64.32166 
L 533.775495 64.896001 
L 534.441509 64.896001 
L 534.441509 66.840122 
L 535.107523 66.840122 
L 535.107523 67.312307 
L 535.773537 67.312307 
L 535.773537 66.902291 
L 537.105565 66.886039 
L 537.105565 66.55297 
L 537.771579 66.55297 
L 537.771579 69.702318 
L 538.437593 69.702318 
L 538.437593 69.909046 
L 539.103607 69.909046 
L 539.103607 69.047945 
L 539.769621 69.047945 
L 539.769621 71.008576 
L 540.435636 71.008576 
L 540.435636 71.98011 
L 541.10165 71.98011 
L 541.10165 69.468744 
L 542.433678 69.461945 
L 542.433678 70.430365 
L 543.099692 70.430365 
L 543.099692 70.698401 
L 543.765706 70.698401 
L 543.765706 67.236682 
L 545.097734 67.135845 
L 545.097734 65.679045 
L 545.763748 65.679045 
L 545.763748 65.076247 
L 546.429762 65.076247 
L 546.429762 67.11291 
L 547.095776 67.11291 
L 547.095776 69.180421 
L 547.76179 69.180421 
L 547.76179 70.768918 
L 548.427804 70.768918 
L 548.427804 70.625312 
L 549.093818 70.625312 
L 549.093818 69.91583 
L 549.759832 69.91583 
L 549.759832 69.788977 
L 550.425846 69.788977 
L 550.425846 68.617079 
L 551.091861 68.617079 
L 551.091861 68.263191 
L 551.757875 68.263191 
L 551.757875 67.270601 
L 552.423889 67.270601 
L 552.423889 70.916803 
L 553.089903 70.916803 
L 553.089903 70.441063 
L 553.755917 70.441063 
L 553.755917 69.880996 
L 555.087945 69.885351 
L 555.087945 69.605156 
L 555.753959 69.605156 
L 555.753959 69.461723 
L 556.419973 69.461723 
L 556.419973 69.803916 
L 557.085987 69.803916 
L 557.085987 69.636473 
L 558.418015 69.612734 
L 558.418015 70.643736 
L 559.084029 70.643736 
L 559.084029 69.841552 
L 560.416057 69.892225 
L 560.416057 69.962441 
L 561.082072 69.962441 
L 561.082072 70.522157 
L 561.748086 70.522157 
L 561.748086 70.324571 
L 562.4141 70.324571 
L 562.4141 69.754097 
L 563.080114 69.754097 
L 563.080114 70.16954 
L 563.746128 70.16954 
L 563.746128 72.777379 
L 564.412142 72.777379 
L 564.412142 76.014843 
L 565.078156 76.014843 
L 565.078156 78.275531 
L 565.74417 78.275531 
L 565.74417 80.966579 
L 566.410184 80.966579 
L 566.410184 79.084851 
L 567.076198 79.084851 
L 567.076198 81.428577 
L 567.742212 81.428577 
L 567.742212 82.323465 
L 568.408226 82.323465 
L 568.408226 84.028217 
L 569.07424 84.028217 
L 569.07424 82.51061 
L 569.740254 82.51061 
L 569.740254 80.579419 
L 570.406268 80.579419 
L 570.406268 81.004551 
L 571.072282 81.004551 
L 571.072282 81.287021 
L 571.738297 81.287021 
L 571.738297 80.410921 
L 572.404311 80.410921 
L 572.404311 79.675181 
L 573.070325 79.675181 
L 573.070325 81.988518 
L 573.736339 81.988518 
L 573.736339 81.7813 
L 574.402353 81.7813 
L 574.402353 82.106798 
L 575.068367 82.106798 
L 575.068367 82.329832 
L 576.400395 82.394489 
L 576.400395 83.026885 
L 577.732423 83.111493 
L 577.732423 83.486321 
L 578.398437 83.486321 
L 578.398437 82.08519 
L 579.064451 82.08519 
L 579.064451 82.208374 
L 579.730465 82.208374 
L 579.730465 80.436419 
L 580.396479 80.436419 
L 580.396479 79.328923 
L 581.062493 79.328923 
L 581.062493 80.940428 
L 582.394522 81.042646 
L 582.394522 80.649454 
L 583.72655 80.680373 
L 583.72655 80.383271 
L 584.392564 80.383271 
L 584.392564 79.895919 
L 586.390606 79.795248 
L 586.390606 79.458119 
L 587.05662 79.458119 
L 587.05662 75.746592 
L 587.722634 75.746592 
L 587.722634 74.274087 
L 588.388648 74.274087 
L 588.388648 75.068042 
L 589.054662 75.068042 
L 589.054662 74.562711 
L 589.720676 74.562711 
L 589.720676 74.113324 
L 590.38669 74.113324 
L 590.38669 73.625956 
L 591.052704 73.625956 
L 591.052704 74.144888 
L 591.718719 74.144888 
L 591.718719 73.79646 
L 592.384733 73.79646 
L 592.384733 72.682262 
L 593.050747 72.682262 
L 593.050747 70.36837 
L 593.716761 70.36837 
L 593.716761 65.539924 
L 594.382775 65.539924 
L 594.382775 67.540432 
L 595.048789 67.540432 
L 595.048789 66.524396 
L 595.714803 66.524396 
L 595.714803 63.656024 
L 596.380817 63.656024 
L 596.380817 64.818866 
L 597.046831 64.818866 
L 597.046831 65.170252 
L 597.712845 65.170252 
L 597.712845 65.525245 
L 598.378859 65.525245 
L 598.378859 65.737807 
L 599.044873 65.737807 
L 599.044873 63.382076 
L 599.710887 63.382076 
L 599.710887 62.406308 
L 600.376901 62.406308 
L 600.376901 59.203029 
L 601.042915 59.203029 
L 601.042915 58.594943 
L 601.708929 58.594943 
L 601.708929 59.66498 
L 602.374944 59.66498 
L 602.374944 58.932152 
L 603.040958 58.932152 
L 603.040958 56.022388 
L 603.706972 56.022388 
L 603.706972 58.118006 
L 604.372986 58.118006 
L 604.372986 61.538091 
L 605.039 61.538091 
L 605.039 59.647771 
L 605.705014 59.647771 
L 605.705014 61.107343 
L 606.371028 61.107343 
L 606.371028 61.916157 
L 607.037042 61.916157 
L 607.037042 59.762621 
L 607.703056 59.762621 
L 607.703056 57.977573 
L 608.36907 57.977573 
L 608.36907 58.315615 
L 609.035084 58.315615 
L 609.035084 60.80856 
L 609.701098 60.80856 
L 609.701098 60.188794 
L 610.367112 60.188794 
L 610.367112 60.61069 
L 611.033126 60.61069 
L 611.033126 60.102277 
L 611.69914 60.102277 
L 611.69914 61.747738 
L 612.365155 61.747738 
L 612.365155 59.580811 
L 613.031169 59.580811 
L 613.031169 59.847065 
L 613.697183 59.847065 
L 613.697183 60.512801 
L 614.363197 60.512801 
L 614.363197 60.203364 
L 615.695225 60.273712 
L 615.695225 61.518386 
L 616.361239 61.518386 
L 616.361239 65.018849 
L 617.027253 65.018849 
L 617.027253 64.691415 
L 617.693267 64.691415 
L 617.693267 65.137378 
L 618.359281 65.137378 
L 618.359281 64.034513 
L 619.025295 64.034513 
L 619.025295 64.790257 
L 619.691309 64.790257 
L 619.691309 65.320578 
L 620.357323 65.320578 
L 620.357323 64.945772 
L 621.023337 64.945772 
L 621.023337 63.842915 
L 621.689351 63.842915 
L 621.689351 62.066648 
L 622.355365 62.066648 
L 622.355365 62.362368 
L 623.687394 62.267584 
L 623.687394 62.96598 
L 624.353408 62.96598 
L 624.353408 63.926437 
L 625.019422 63.926437 
L 625.019422 65.064709 
L 625.685436 65.064709 
L 625.685436 67.479075 
L 626.35145 67.479075 
L 626.35145 67.835069 
L 627.017464 67.835069 
L 627.017464 66.7127 
L 627.683478 66.7127 
L 627.683478 67.749756 
L 628.349492 67.749756 
L 628.349492 66.810903 
L 629.015506 66.810903 
L 629.015506 67.76051 
L 629.68152 67.76051 
L 629.68152 68.683144 
L 630.347534 68.683144 
L 630.347534 67.757566 
L 631.013548 67.757566 
L 631.013548 67.581898 
L 631.679562 67.581898 
L 631.679562 67.436778 
L 632.345576 67.436778 
L 632.345576 67.799845 
L 633.011591 67.799845 
L 633.011591 67.292313 
L 633.677605 67.292313 
L 633.677605 66.003286 
L 634.343619 66.003286 
L 634.343619 65.246857 
L 635.009633 65.246857 
L 635.009633 63.285615 
L 635.675647 63.285615 
L 635.675647 63.709203 
L 636.341661 63.709203 
L 636.341661 64.680237 
L 637.007675 64.680237 
L 637.007675 62.410576 
L 638.339703 62.332241 
L 638.339703 61.362528 
L 639.005717 61.362528 
L 639.005717 61.150641 
L 639.671731 61.150641 
L 639.671731 60.085594 
L 640.337745 60.085594 
L 640.337745 60.468844 
L 641.003759 60.468844 
L 641.003759 61.548167 
L 641.669773 61.548167 
L 641.669773 63.557748 
L 642.335787 63.557748 
L 642.335787 64.166098 
L 643.001802 64.166098 
L 643.001802 62.895897 
L 643.667816 62.895897 
L 643.667816 65.69983 
L 644.33383 65.69983 
L 644.33383 72.962266 
L 644.999844 72.962266 
L 644.999844 73.923406 
L 645.665858 73.923406 
L 645.665858 70.897189 
L 646.331872 70.897189 
L 646.331872 69.242186 
L 646.997886 69.242186 
L 646.997886 71.954205 
L 647.6639 71.954205 
L 647.6639 68.898812 
L 648.329914 68.898812 
L 648.329914 67.316188 
L 648.995928 67.316188 
L 648.995928 68.702346 
L 650.327956 68.70628 
L 650.327956 67.556852 
L 650.99397 67.556852 
L 650.99397 67.93078 
L 651.659984 67.93078 
L 651.659984 66.3238 
L 652.325998 66.3238 
L 652.325998 63.935058 
L 652.992012 63.935058 
L 652.992012 63.319575 
L 653.658027 63.319575 
L 653.658027 61.220918 
L 654.324041 61.220918 
L 654.324041 63.488658 
L 654.990055 63.488658 
L 654.990055 62.172781 
L 655.656069 62.172781 
L 655.656069 61.895565 
L 656.322083 61.895565 
L 656.322083 63.688861 
L 656.988097 63.688861 
L 656.988097 61.766958 
L 657.654111 61.766958 
L 657.654111 60.420358 
L 658.320125 60.420358 
L 658.320125 61.647846 
L 658.986139 61.647846 
L 658.986139 61.320699 
L 659.652153 61.320699 
L 659.652153 61.977635 
L 660.984181 62.019024 
L 660.984181 62.399355 
L 662.316209 62.498752 
L 662.316209 62.625005 
L 662.982223 62.625005 
L 662.982223 62.884274 
L 663.648238 62.884274 
L 663.648238 62.463899 
L 664.980266 62.509845 
L 664.980266 62.606395 
L 666.312294 62.558235 
L 666.312294 61.67103 
L 666.978308 61.67103 
L 666.978308 58.765915 
L 667.644322 58.765915 
L 667.644322 58.201385 
L 668.310336 58.201385 
L 668.310336 58.479671 
L 668.97635 58.479671 
L 668.97635 57.432814 
L 669.642364 57.432814 
L 669.642364 57.782097 
L 670.308378 57.782097 
L 670.308378 57.173665 
L 671.640406 57.258609 
L 671.640406 57.439351 
L 672.30642 57.439351 
L 672.30642 57.85168 
L 672.972434 57.85168 
L 672.972434 57.157417 
L 673.638448 57.157417 
L 673.638448 60.512182 
L 674.304463 60.512182 
L 674.304463 60.371942 
L 674.970477 60.371942 
L 674.970477 60.162059 
L 675.636491 60.162059 
L 675.636491 58.953724 
L 676.302505 58.953724 
L 676.302505 59.960786 
L 676.968519 59.960786 
L 676.968519 59.4401 
L 677.634533 59.4401 
L 677.634533 59.152083 
L 678.300547 59.152083 
L 678.300547 59.718441 
L 678.966561 59.718441 
L 678.966561 59.483344 
L 679.632575 59.483344 
L 679.632575 58.141003 
L 680.298589 58.141003 
L 680.298589 57.908118 
L 680.964603 57.908118 
L 680.964603 57.449634 
L 681.630617 57.449634 
L 681.630617 55.435024 
L 682.296631 55.435024 
L 682.296631 54.320578 
L 682.962645 54.320578 
L 682.962645 54.078114 
L 683.628659 54.078114 
L 683.628659 53.560583 
L 684.294674 53.560583 
L 684.294674 51.67175 
L 684.960688 51.67175 
L 684.960688 50.610009 
L 685.626702 50.610009 
L 685.626702 50.06467 
L 686.292716 50.06467 
L 686.292716 47.739596 
L 686.95873 47.739596 
L 686.95873 47.202524 
L 687.624744 47.202524 
L 687.624744 48.839013 
L 688.290758 48.839013 
L 688.290758 47.143087 
L 688.956772 47.143087 
L 688.956772 46.979469 
L 689.622786 46.979469 
L 689.622786 48.238607 
L 690.2888 48.238607 
L 690.2888 47.089069 
L 690.954814 47.089069 
L 690.954814 43.250835 
L 691.620828 43.250835 
L 691.620828 42.649206 
L 692.286842 42.649206 
L 692.286842 40.464011 
L 692.952856 40.464011 
L 692.952856 38.633542 
L 693.61887 38.633542 
L 693.61887 35.821101 
L 694.284885 35.821101 
L 694.284885 32.060862 
L 694.950899 32.060862 
L 694.950899 34.264605 
L 695.616913 34.264605 
L 695.616913 33.521118 
L 696.282927 33.521118 
L 696.282927 33.986277 
L 696.948941 33.986277 
L 696.948941 36.401293 
L 697.614955 36.401293 
L 697.614955 37.528319 
L 698.280969 37.528319 
L 698.280969 35.735109 
L 698.946983 35.735109 
L 698.946983 33.422576 
L 699.612997 33.422576 
L 699.612997 28.695339 
L 700.279011 28.695339 
L 700.279011 28.200774 
L 700.945025 28.200774 
L 700.945025 27.468182 
L 701.611039 27.468182 
L 701.611039 24.73752 
L 702.277053 24.73752 
L 702.277053 26.852848 
L 702.943067 26.852848 
L 702.943067 29.268314 
L 703.609081 29.268314 
L 703.609081 27.773595 
L 704.275095 27.773595 
L 704.275095 26.170843 
L 704.94111 26.170843 
L 704.94111 24.274096 
L 705.607124 24.274096 
L 705.607124 24.413995 
L 706.273138 24.413995 
L 706.273138 23.971537 
L 706.939152 23.971537 
L 706.939152 26.087296 
L 707.605166 26.087296 
L 707.605166 24.819073 
L 708.27118 24.819073 
L 708.27118 23.73791 
L 708.937194 23.73791 
L 708.937194 23.62504 
L 709.603208 23.62504 
L 709.603208 23.965484 
L 710.269222 23.965484 
L 710.269222 22.085809 
L 710.935236 22.085809 
L 710.935236 23.261603 
L 711.60125 23.261603 
L 711.60125 25.574509 
L 712.267264 25.574509 
L 712.267264 27.504246 
L 712.933278 27.504246 
L 712.933278 25.662192 
L 713.599292 25.662192 
L 713.599292 24.288725 
L 714.931321 24.227661 
L 714.931321 24.459142 
L 715.597335 24.459142 
L 715.597335 28.527728 
L 716.263349 28.527728 
L 716.263349 33.444008 
L 716.929363 33.444008 
L 716.929363 34.735905 
L 717.595377 34.735905 
L 717.595377 32.620677 
L 718.261391 32.620677 
L 718.261391 33.248592 
L 718.927405 33.248592 
L 718.927405 33.488712 
L 719.593419 33.488712 
L 719.593419 35.537614 
L 720.259433 35.537614 
L 720.259433 34.294131 
L 720.925447 34.294131 
L 720.925447 32.686427 
L 721.591461 32.686427 
L 721.591461 34.23667 
L 722.257475 34.23667 
L 722.257475 34.805466 
L 723.589503 34.916306 
L 723.589503 35.284352 
L 724.255517 35.284352 
L 724.255517 35.066263 
L 724.921531 35.066263 
L 724.921531 35.496691 
L 725.587546 35.496691 
L 725.587546 35.939669 
L 726.25356 35.939669 
L 726.25356 36.608799 
L 726.919574 36.608799 
L 726.919574 36.272316 
L 727.585588 36.272316 
L 727.585588 33.244324 
L 728.251602 33.244324 
L 728.251602 30.66068 
L 728.917616 30.66068 
L 728.917616 32.788868 
L 729.58363 32.788868 
L 729.58363 29.4924 
L 730.249644 29.4924 
L 730.249644 29.038441 
L 730.915658 29.038441 
L 730.915658 28.384794 
L 731.581672 28.384794 
L 731.581672 28.528594 
L 732.247686 28.528594 
L 732.247686 27.313825 
L 732.9137 27.313825 
L 732.9137 27.512242 
L 733.579714 27.512242 
L 733.579714 28.340543 
L 734.245728 28.340543 
L 734.245728 27.135204 
L 734.911742 27.135204 
L 734.911742 28.824985 
L 736.243771 28.833747 
L 736.243771 28.062664 
L 736.909785 28.062664 
L 736.909785 30.322148 
L 738.241813 30.364203 
L 738.241813 31.266608 
L 738.907827 31.266608 
L 738.907827 28.088188 
L 739.573841 28.088188 
L 739.573841 24.98502 
L 740.239855 24.98502 
L 740.239855 25.258707 
L 740.905869 25.258707 
L 740.905869 24.221281 
L 741.571883 24.221281 
L 741.571883 22.614392 
L 742.237897 22.614392 
L 742.237897 23.04992 
L 742.903911 23.04992 
L 742.903911 23.171778 
L 743.569925 23.171778 
L 743.569925 22.695817 
L 744.235939 22.695817 
L 744.235939 22.28447 
L 744.901953 22.28447 
L 744.901953 22.172128 
L 745.567968 22.172128 
L 745.567968 21.666488 
L 746.233982 21.666488 
L 746.233982 22.075981 
L 746.899996 22.075981 
L 746.899996 23.954506 
L 747.56601 23.954506 
L 747.56601 24.155484 
L 748.232024 24.155484 
L 748.232024 25.191516 
L 748.898038 25.191516 
L 748.898038 24.282708 
L 749.564052 24.282708 
L 749.564052 27.37446 
L 750.230066 27.37446 
L 750.230066 28.117815 
L 750.89608 28.117815 
L 750.89608 28.518533 
L 751.562094 28.518533 
L 751.562094 28.78176 
L 752.228108 28.78176 
L 752.228108 27.564553 
L 752.894122 27.564553 
L 752.894122 26.916679 
L 753.560136 26.916679 
L 753.560136 28.675202 
L 754.22615 28.675202 
L 754.22615 28.264238 
L 754.892164 28.264238 
L 754.892164 30.215401 
L 755.558178 30.215401 
L 755.558178 30.842756 
L 756.224193 30.842756 
L 756.224193 30.225737 
L 756.890207 30.225737 
L 756.890207 30.57777 
L 757.556221 30.57777 
L 757.556221 34.545675 
L 758.222235 34.545675 
L 758.222235 33.523975 
L 758.888249 33.523975 
L 758.888249 32.909773 
L 759.554263 32.909773 
L 759.554263 33.371486 
L 760.220277 33.371486 
L 760.220277 29.871504 
L 760.886291 29.871504 
L 760.886291 30.567986 
L 761.552305 30.567986 
L 761.552305 29.538434 
L 762.218319 29.538434 
L 762.218319 31.729631 
L 762.884333 31.729631 
L 762.884333 33.259301 
L 763.550347 33.259301 
L 763.550347 33.028422 
L 764.216361 33.028422 
L 764.216361 30.536805 
L 764.882375 30.536805 
L 764.882375 32.846924 
L 765.548389 32.846924 
L 765.548389 32.460068 
L 766.214404 32.460068 
L 766.214404 32.148741 
L 766.880418 32.148741 
L 766.880418 30.656625 
L 767.546432 30.656625 
L 767.546432 30.320439 
L 768.212446 30.320439 
L 768.212446 28.473113 
L 768.87846 28.473113 
L 768.87846 29.071661 
L 769.544474 29.071661 
L 769.544474 28.584001 
L 770.210488 28.584001 
L 770.210488 30.628539 
L 770.876502 30.628539 
L 770.876502 31.736345 
L 771.542516 31.736345 
L 771.542516 31.587106 
L 772.20853 31.587106 
L 772.20853 31.081093 
L 772.874544 31.081093 
L 772.874544 32.07173 
L 773.540558 32.07173 
L 773.540558 31.910662 
L 774.206572 31.910662 
L 774.206572 32.585077 
L 774.872586 32.585077 
L 774.872586 33.990409 
L 775.5386 33.990409 
L 775.5386 37.129254 
L 776.204614 37.129254 
L 776.204614 37.767069 
L 776.870629 37.767069 
L 776.870629 38.761482 
L 777.536643 38.761482 
L 777.536643 37.625158 
L 778.202657 37.625158 
L 778.202657 38.389964 
L 778.868671 38.389964 
L 778.868671 36.653627 
L 779.534685 36.653627 
L 779.534685 38.042639 
L 780.200699 38.042639 
L 780.200699 37.052401 
L 780.866713 37.052401 
L 780.866713 39.008807 
L 781.532727 39.008807 
L 781.532727 43.801172 
L 782.198741 43.801172 
L 782.198741 45.758195 
L 782.864755 45.758195 
L 782.864755 45.206456 
L 783.530769 45.206456 
L 783.530769 45.5937 
L 784.196783 45.5937 
L 784.196783 47.143382 
L 784.862797 47.143382 
L 784.862797 46.127187 
L 785.528811 46.127187 
L 785.528811 44.720874 
L 786.194825 44.720874 
L 786.194825 46.083844 
L 786.86084 46.083844 
L 786.86084 45.520936 
L 787.526854 45.520936 
L 787.526854 43.247847 
L 788.192868 43.247847 
L 788.192868 44.996403 
L 788.858882 44.996403 
L 788.858882 42.678246 
L 789.524896 42.678246 
L 789.524896 43.404408 
L 790.856924 43.435967 
L 790.856924 42.530846 
L 791.522938 42.530846 
L 791.522938 42.222625 
L 792.188952 42.222625 
L 792.188952 43.211763 
L 792.854966 43.211763 
L 792.854966 44.896077 
L 793.52098 44.896077 
L 793.52098 46.073867 
L 794.186994 46.073867 
L 794.186994 46.534977 
L 795.519022 46.490636 
L 795.519022 47.085275 
L 796.185036 47.085275 
L 796.185036 44.516089 
L 796.851051 44.516089 
L 796.851051 46.639355 
L 797.517065 46.639355 
L 797.517065 46.80226 
L 798.183079 46.80226 
L 798.183079 47.084731 
L 798.849093 47.084731 
L 798.849093 47.276584 
L 799.515107 47.276584 
L 799.515107 47.047686 
L 800.181121 47.047686 
L 800.181121 46.141855 
L 800.847135 46.141855 
L 800.847135 46.910126 
L 802.179163 46.973338 
L 802.179163 46.795 
L 802.845177 46.795 
L 802.845177 47.203814 
L 803.511191 47.203814 
L 803.511191 46.211096 
L 804.177205 46.211096 
L 804.177205 45.478678 
L 804.843219 45.478678 
L 804.843219 46.156201 
L 805.509233 46.156201 
L 805.509233 45.374058 
L 806.175247 45.374058 
L 806.175247 49.05546 
L 806.841261 49.05546 
L 806.841261 50.237292 
L 807.507276 50.237292 
L 807.507276 50.117279 
L 808.17329 50.117279 
L 808.17329 50.740079 
L 808.839304 50.740079 
L 808.839304 50.407907 
L 809.505318 50.407907 
L 809.505318 49.513758 
L 812.169374 49.469559 
L 812.169374 50.174667 
L 812.835388 50.174667 
L 812.835388 49.840951 
L 814.167416 49.923609 
L 814.167416 50.298887 
L 815.499444 50.204783 
L 815.499444 49.938165 
L 816.165458 49.938165 
L 816.165458 49.487593 
L 816.831472 49.487593 
L 816.831472 46.3869 
L 817.497487 46.3869 
L 817.497487 45.150003 
L 818.163501 45.150003 
L 818.163501 43.596126 
L 818.829515 43.596126 
L 818.829515 43.306176 
L 819.495529 43.306176 
L 819.495529 42.710115 
L 820.161543 42.710115 
L 820.161543 42.977757 
L 820.827557 42.977757 
L 820.827557 43.60419 
L 821.493571 43.60419 
L 821.493571 44.666613 
L 822.159585 44.666613 
L 822.159585 44.118614 
L 822.825599 44.118614 
L 822.825599 41.942603 
L 823.491613 41.942603 
L 823.491613 42.334303 
L 824.157627 42.334303 
L 824.157627 42.88085 
L 825.489655 42.966188 
L 825.489655 43.93185 
L 826.155669 43.93185 
L 826.155669 46.082642 
L 826.821683 46.082642 
L 826.821683 41.836118 
L 827.487697 41.836118 
L 827.487697 40.046407 
L 828.153712 40.046407 
L 828.153712 39.790859 
L 828.819726 39.790859 
L 828.819726 39.265214 
L 830.151754 39.240363 
L 830.151754 39.413652 
L 831.483782 39.320895 
L 831.483782 37.655608 
L 832.81581 37.597227 
L 832.81581 38.653175 
L 833.481824 38.653175 
L 833.481824 39.573834 
L 834.147838 39.573834 
L 834.147838 38.185339 
L 834.813852 38.185339 
L 834.813852 39.200336 
L 835.479866 39.200336 
L 835.479866 38.146254 
L 836.14588 38.146254 
L 836.14588 39.536236 
L 836.811894 39.536236 
L 836.811894 40.194117 
L 837.477908 40.194117 
L 837.477908 39.720404 
L 838.143923 39.720404 
L 838.143923 40.21711 
L 838.809937 40.21711 
L 838.809937 40.437017 
L 839.475951 40.437017 
L 839.475951 39.457095 
L 840.141965 39.457095 
L 840.141965 39.832646 
L 841.473993 39.839022 
L 841.473993 40.937241 
L 842.140007 40.937241 
L 842.140007 41.534029 
L 842.806021 41.534029 
L 842.806021 40.548296 
L 843.472035 40.548296 
L 843.472035 37.88649 
L 844.138049 37.88649 
L 844.138049 37.633632 
L 844.804063 37.633632 
L 844.804063 37.492295 
L 845.470077 37.492295 
L 845.470077 37.28467 
L 846.136091 37.28467 
L 846.136091 37.669774 
L 846.802105 37.669774 
L 846.802105 37.547295 
L 848.134134 37.651934 
L 848.134134 37.957706 
L 848.800148 37.957706 
L 848.800148 38.401094 
L 850.132176 38.30242 
L 850.132176 38.041333 
L 850.79819 38.041333 
L 850.79819 38.494975 
L 851.464204 38.494975 
L 851.464204 38.124665 
L 852.130218 38.124665 
L 852.130218 38.32551 
L 852.796232 38.32551 
L 852.796232 40.291277 
L 853.462246 40.291277 
L 853.462246 40.719021 
L 854.794274 40.778466 
L 854.794274 39.467242 
L 855.460288 39.467242 
L 855.460288 40.924056 
L 857.45833 40.953461 
L 857.45833 40.390581 
L 858.124344 40.390581 
L 858.124344 40.211478 
L 858.790359 40.211478 
L 858.790359 40.354407 
L 859.456373 40.354407 
L 859.456373 40.647412 
L 860.122387 40.647412 
L 860.122387 40.050261 
L 860.788401 40.050261 
L 860.788401 39.417172 
L 862.120429 39.312168 
L 862.120429 40.215473 
L 862.786443 40.215473 
L 862.786443 38.88141 
L 863.452457 38.88141 
L 863.452457 38.042046 
L 864.118471 38.042046 
L 864.118471 35.256026 
L 864.784485 35.256026 
L 864.784485 35.140109 
L 865.450499 35.140109 
L 865.450499 34.326271 
L 866.116513 34.326271 
L 866.116513 34.559472 
L 866.782527 34.559472 
L 866.782527 33.596526 
L 867.448541 33.596526 
L 867.448541 33.710432 
L 868.78057 33.637658 
L 868.78057 34.109514 
L 869.446584 34.109514 
L 869.446584 32.974918 
L 870.778612 32.938119 
L 870.778612 31.802383 
L 871.444626 31.802383 
L 871.444626 30.129031 
L 872.11064 30.129031 
L 872.11064 31.150847 
L 872.776654 31.150847 
L 872.776654 30.799876 
L 873.442668 30.799876 
L 873.442668 30.63663 
L 874.108682 30.63663 
L 874.108682 29.915389 
L 874.774696 29.915389 
L 874.774696 30.045912 
L 875.44071 30.045912 
L 875.44071 30.643043 
L 876.106724 30.643043 
L 876.106724 29.701941 
L 876.772738 29.701941 
L 876.772738 28.422236 
L 877.438752 28.422236 
L 877.438752 30.350296 
L 878.104766 30.350296 
L 878.104766 30.209681 
L 878.77078 30.209681 
L 878.77078 30.937925 
L 879.436795 30.937925 
L 879.436795 31.75397 
L 880.102809 31.75397 
L 880.102809 30.751902 
L 880.768823 30.751902 
L 880.768823 30.244326 
L 881.434837 30.244326 
L 881.434837 30.443785 
L 882.100851 30.443785 
L 882.100851 28.350025 
L 882.766865 28.350025 
L 882.766865 27.222723 
L 883.432879 27.222723 
L 883.432879 26.418342 
L 885.430921 26.401152 
L 885.430921 22.886397 
L 886.096935 22.886397 
L 886.096935 20.552727 
L 886.762949 20.552727 
L 886.762949 20.902371 
L 887.194182 20.902371 
L 887.194182 20.902371 
" clip-path="url(#p894e22dff1)" style="fill: none; stroke: #3572c6; stroke-width: 1.2; stroke-linecap: square"/>
   </g>
   <g id="line2d_76">
    <path d="M 75.557818 20.552727 
L 887.194182 20.552727 
L 887.194182 20.552727 
" clip-path="url(#p894e22dff1)" style="fill: none; stroke: #83a83b; stroke-width: 1.2; stroke-linecap: square"/>
   </g>
   <g id="line2d_77">
    <path d="M 75.557818 20.902371 
L 887.194182 20.902371 
L 887.194182 20.902371 
" clip-path="url(#p894e22dff1)" style="fill: none; stroke: #c44e52; stroke-width: 1.2; stroke-linecap: square"/>
   </g>
   <g id="line2d_78">
    <path d="M 886.762949 300.96 
L 886.762949 7.2 
" clip-path="url(#p894e22dff1)" style="fill: none; stroke: #83a83b; stroke-width: 1.2; stroke-linecap: square"/>
   </g>
   <g id="line2d_79">
    <path d="M 887.194182 300.96 
L 887.194182 7.2 
" clip-path="url(#p894e22dff1)" style="fill: none; stroke: #c44e52; stroke-width: 1.2; stroke-linecap: square"/>
   </g>
   <g id="patch_3">
    <path d="M 34.976 300.96 
L 34.976 7.2 
" style="fill: none; stroke: #899ab8; stroke-width: 1.12; stroke-linejoin: miter; stroke-linecap: square"/>
   </g>
   <g id="patch_4">
    <path d="M 927.776 300.96 
L 927.776 7.2 
" style="fill: none; stroke: #899ab8; stroke-width: 1.12; stroke-linejoin: miter; stroke-linecap: square"/>
   </g>
   <g id="patch_5">
    <path d="M 34.976 300.96 
L 927.776 300.96 
" style="fill: none; stroke: #899ab8; stroke-width: 1.12; stroke-linejoin: miter; stroke-linecap: square"/>
   </g>
   <g id="patch_6">
    <path d="M 34.976 7.2 
L 927.776 7.2 
" style="fill: none; stroke: #899ab8; stroke-width: 1.12; stroke-linejoin: miter; stroke-linecap: square"/>
   </g>
   <g id="text_15">
    <!-- 68377.67 -->
    <g style="fill: #83a83b" transform="translate(197.105385 20.552727) scale(0.132 -0.132)">
     <defs>
      <path id="DejaVuSans-37" d="M 525 4666 
L 3525 4666 
L 3525 4397 
L 1831 0 
L 1172 0 
L 2766 4134 
L 525 4134 
L 525 4666 
z
" transform="scale(0.015625)"/>
      <path id="DejaVuSans-2e" d="M 684 794 
L 1344 794 
L 1344 0 
L 684 0 
L 684 794 
z
" transform="scale(0.015625)"/>
     </defs>
     <use xlink:href="#DejaVuSans-36"/>
     <use xlink:href="#DejaVuSans-38" x="63.623047"/>
     <use xlink:href="#DejaVuSans-33" x="127.246094"/>
     <use xlink:href="#DejaVuSans-37" x="190.869141"/>
     <use xlink:href="#DejaVuSans-37" x="254.492188"/>
     <use xlink:href="#DejaVuSans-2e" x="318.115234"/>
     <use xlink:href="#DejaVuSans-36" x="349.902344"/>
     <use xlink:href="#DejaVuSans-37" x="413.525391"/>
    </g>
   </g>
   <g id="text_16">
    <!-- 67246.395 -->
    <g style="fill: #c44e52" transform="translate(197.105385 20.902371) scale(0.132 -0.132)">
     <defs>
      <path id="DejaVuSans-39" d="M 703 97 
L 703 672 
Q 941 559 1184 500 
Q 1428 441 1663 441 
Q 2288 441 2617 861 
Q 2947 1281 2994 2138 
Q 2813 1869 2534 1725 
Q 2256 1581 1919 1581 
Q 1219 1581 811 2004 
Q 403 2428 403 3163 
Q 403 3881 828 4315 
Q 1253 4750 1959 4750 
Q 2769 4750 3195 4129 
Q 3622 3509 3622 2328 
Q 3622 1225 3098 567 
Q 2575 -91 1691 -91 
Q 1453 -91 1209 -44 
Q 966 3 703 97 
z
M 1959 2075 
Q 2384 2075 2632 2365 
Q 2881 2656 2881 3163 
Q 2881 3666 2632 3958 
Q 2384 4250 1959 4250 
Q 1534 4250 1286 3958 
Q 1038 3666 1038 3163 
Q 1038 2656 1286 2365 
Q 1534 2075 1959 2075 
z
" transform="scale(0.015625)"/>
     </defs>
     <use xlink:href="#DejaVuSans-36"/>
     <use xlink:href="#DejaVuSans-37" x="63.623047"/>
     <use xlink:href="#DejaVuSans-32" x="127.246094"/>
     <use xlink:href="#DejaVuSans-34" x="190.869141"/>
     <use xlink:href="#DejaVuSans-36" x="254.492188"/>
     <use xlink:href="#DejaVuSans-2e" x="318.115234"/>
     <use xlink:href="#DejaVuSans-33" x="349.902344"/>
     <use xlink:href="#DejaVuSans-39" x="413.525391"/>
     <use xlink:href="#DejaVuSans-35" x="477.148438"/>
    </g>
   </g>
   <g id="legend_1">
    <g id="patch_7">
     <path d="M 432.207453 294.66 
L 530.544547 294.66 
Q 533.064547 294.66 533.064547 292.14 
L 533.064547 237.56625 
Q 533.064547 235.04625 530.544547 235.04625 
L 432.207453 235.04625 
Q 429.687453 235.04625 429.687453 237.56625 
L 429.687453 292.14 
Q 429.687453 294.66 432.207453 294.66 
z
" style="fill: #373e4b; opacity: 0.8; stroke: #cccccc; stroke-width: 0.16; stroke-linejoin: miter"/>
    </g>
    <g id="line2d_80">
     <path d="M 434.727453 245.250281 
L 434.727453 245.250281 
L 447.327453 245.250281 
L 447.327453 245.250281 
L 459.927453 245.250281 
" style="fill: none; stroke: #3572c6; stroke-width: 1.2; stroke-linecap: square"/>
    </g>
    <g id="text_17">
     <!-- USD/BTC -->
     <g style="fill: #b1bed6" transform="translate(470.007453 249.660281) scale(0.126 -0.126)">
      <defs>
       <path id="DejaVuSans-55" d="M 556 4666 
L 1191 4666 
L 1191 1831 
Q 1191 1081 1462 751 
Q 1734 422 2344 422 
Q 2950 422 3222 751 
Q 3494 1081 3494 1831 
L 3494 4666 
L 4128 4666 
L 4128 1753 
Q 4128 841 3676 375 
Q 3225 -91 2344 -91 
Q 1459 -91 1007 375 
Q 556 841 556 1753 
L 556 4666 
z
" transform="scale(0.015625)"/>
       <path id="DejaVuSans-53" d="M 3425 4513 
L 3425 3897 
Q 3066 4069 2747 4153 
Q 2428 4238 2131 4238 
Q 1616 4238 1336 4038 
Q 1056 3838 1056 3469 
Q 1056 3159 1242 3001 
Q 1428 2844 1947 2747 
L 2328 2669 
Q 3034 2534 3370 2195 
Q 3706 1856 3706 1288 
Q 3706 609 3251 259 
Q 2797 -91 1919 -91 
Q 1588 -91 1214 -16 
Q 841 59 441 206 
L 441 856 
Q 825 641 1194 531 
Q 1563 422 1919 422 
Q 2459 422 2753 634 
Q 3047 847 3047 1241 
Q 3047 1584 2836 1778 
Q 2625 1972 2144 2069 
L 1759 2144 
Q 1053 2284 737 2584 
Q 422 2884 422 3419 
Q 422 4038 858 4394 
Q 1294 4750 2059 4750 
Q 2388 4750 2728 4690 
Q 3069 4631 3425 4513 
z
" transform="scale(0.015625)"/>
       <path id="DejaVuSans-2f" d="M 1625 4666 
L 2156 4666 
L 531 -594 
L 0 -594 
L 1625 4666 
z
" transform="scale(0.015625)"/>
       <path id="DejaVuSans-42" d="M 1259 2228 
L 1259 519 
L 2272 519 
Q 2781 519 3026 730 
Q 3272 941 3272 1375 
Q 3272 1813 3026 2020 
Q 2781 2228 2272 2228 
L 1259 2228 
z
M 1259 4147 
L 1259 2741 
L 2194 2741 
Q 2656 2741 2882 2914 
Q 3109 3088 3109 3444 
Q 3109 3797 2882 3972 
Q 2656 4147 2194 4147 
L 1259 4147 
z
M 628 4666 
L 2241 4666 
Q 2963 4666 3353 4366 
Q 3744 4066 3744 3513 
Q 3744 3084 3544 2831 
Q 3344 2578 2956 2516 
Q 3422 2416 3680 2098 
Q 3938 1781 3938 1306 
Q 3938 681 3513 340 
Q 3088 0 2303 0 
L 628 0 
L 628 4666 
z
" transform="scale(0.015625)"/>
       <path id="DejaVuSans-54" d="M -19 4666 
L 3928 4666 
L 3928 4134 
L 2272 4134 
L 2272 0 
L 1638 0 
L 1638 4134 
L -19 4134 
L -19 4666 
z
" transform="scale(0.015625)"/>
       <path id="DejaVuSans-43" d="M 4122 4306 
L 4122 3641 
Q 3803 3938 3442 4084 
Q 3081 4231 2675 4231 
Q 1875 4231 1450 3742 
Q 1025 3253 1025 2328 
Q 1025 1406 1450 917 
Q 1875 428 2675 428 
Q 3081 428 3442 575 
Q 3803 722 4122 1019 
L 4122 359 
Q 3791 134 3420 21 
Q 3050 -91 2638 -91 
Q 1578 -91 968 557 
Q 359 1206 359 2328 
Q 359 3453 968 4101 
Q 1578 4750 2638 4750 
Q 3056 4750 3426 4639 
Q 3797 4528 4122 4306 
z
" transform="scale(0.015625)"/>
      </defs>
      <use xlink:href="#DejaVuSans-55"/>
      <use xlink:href="#DejaVuSans-53" x="73.193359"/>
      <use xlink:href="#DejaVuSans-44" x="136.669922"/>
      <use xlink:href="#DejaVuSans-2f" x="213.671875"/>
      <use xlink:href="#DejaVuSans-42" x="247.363281"/>
      <use xlink:href="#DejaVuSans-54" x="315.966797"/>
      <use xlink:href="#DejaVuSans-43" x="371.175781"/>
     </g>
    </g>
    <g id="line2d_81">
     <path d="M 434.727453 263.744719 
L 434.727453 263.744719 
L 447.327453 263.744719 
L 447.327453 263.744719 
L 459.927453 263.744719 
" style="fill: none; stroke: #83a83b; stroke-width: 1.2; stroke-linecap: square"/>
    </g>
    <g id="text_18">
     <!-- Max -->
     <g style="fill: #b1bed6" transform="translate(470.007453 268.154719) scale(0.126 -0.126)">
      <defs>
       <path id="DejaVuSans-4d" d="M 628 4666 
L 1569 4666 
L 2759 1491 
L 3956 4666 
L 4897 4666 
L 4897 0 
L 4281 0 
L 4281 4097 
L 3078 897 
L 2444 897 
L 1241 4097 
L 1241 0 
L 628 0 
L 628 4666 
z
" transform="scale(0.015625)"/>
       <path id="DejaVuSans-78" d="M 3513 3500 
L 2247 1797 
L 3578 0 
L 2900 0 
L 1881 1375 
L 863 0 
L 184 0 
L 1544 1831 
L 300 3500 
L 978 3500 
L 1906 2253 
L 2834 3500 
L 3513 3500 
z
" transform="scale(0.015625)"/>
      </defs>
      <use xlink:href="#DejaVuSans-4d"/>
      <use xlink:href="#DejaVuSans-61" x="86.279297"/>
      <use xlink:href="#DejaVuSans-78" x="147.558594"/>
     </g>
    </g>
    <g id="line2d_82">
     <path d="M 434.727453 282.239156 
L 434.727453 282.239156 
L 447.327453 282.239156 
L 447.327453 282.239156 
L 459.927453 282.239156 
" style="fill: none; stroke: #c44e52; stroke-width: 1.2; stroke-linecap: square"/>
    </g>
    <g id="text_19">
     <!-- local_Min -->
     <g style="fill: #b1bed6" transform="translate(470.007453 286.649156) scale(0.126 -0.126)">
      <defs>
       <path id="DejaVuSans-6c" d="M 603 4863 
L 1178 4863 
L 1178 0 
L 603 0 
L 603 4863 
z
" transform="scale(0.015625)"/>
       <path id="DejaVuSans-6f" d="M 1959 3097 
Q 1497 3097 1228 2736 
Q 959 2375 959 1747 
Q 959 1119 1226 758 
Q 1494 397 1959 397 
Q 2419 397 2687 759 
Q 2956 1122 2956 1747 
Q 2956 2369 2687 2733 
Q 2419 3097 1959 3097 
z
M 1959 3584 
Q 2709 3584 3137 3096 
Q 3566 2609 3566 1747 
Q 3566 888 3137 398 
Q 2709 -91 1959 -91 
Q 1206 -91 779 398 
Q 353 888 353 1747 
Q 353 2609 779 3096 
Q 1206 3584 1959 3584 
z
" transform="scale(0.015625)"/>
       <path id="DejaVuSans-63" d="M 3122 3366 
L 3122 2828 
Q 2878 2963 2633 3030 
Q 2388 3097 2138 3097 
Q 1578 3097 1268 2742 
Q 959 2388 959 1747 
Q 959 1106 1268 751 
Q 1578 397 2138 397 
Q 2388 397 2633 464 
Q 2878 531 3122 666 
L 3122 134 
Q 2881 22 2623 -34 
Q 2366 -91 2075 -91 
Q 1284 -91 818 406 
Q 353 903 353 1747 
Q 353 2603 823 3093 
Q 1294 3584 2113 3584 
Q 2378 3584 2631 3529 
Q 2884 3475 3122 3366 
z
" transform="scale(0.015625)"/>
       <path id="DejaVuSans-5f" d="M 3263 -1063 
L 3263 -1509 
L -63 -1509 
L -63 -1063 
L 3263 -1063 
z
" transform="scale(0.015625)"/>
       <path id="DejaVuSans-69" d="M 603 3500 
L 1178 3500 
L 1178 0 
L 603 0 
L 603 3500 
z
M 603 4863 
L 1178 4863 
L 1178 4134 
L 603 4134 
L 603 4863 
z
" transform="scale(0.015625)"/>
       <path id="DejaVuSans-6e" d="M 3513 2113 
L 3513 0 
L 2938 0 
L 2938 2094 
Q 2938 2591 2744 2837 
Q 2550 3084 2163 3084 
Q 1697 3084 1428 2787 
Q 1159 2491 1159 1978 
L 1159 0 
L 581 0 
L 581 3500 
L 1159 3500 
L 1159 2956 
Q 1366 3272 1645 3428 
Q 1925 3584 2291 3584 
Q 2894 3584 3203 3211 
Q 3513 2838 3513 2113 
z
" transform="scale(0.015625)"/>
      </defs>
      <use xlink:href="#DejaVuSans-6c"/>
      <use xlink:href="#DejaVuSans-6f" x="27.783203"/>
      <use xlink:href="#DejaVuSans-63" x="88.964844"/>
      <use xlink:href="#DejaVuSans-61" x="143.945312"/>
      <use xlink:href="#DejaVuSans-6c" x="205.224609"/>
      <use xlink:href="#DejaVuSans-5f" x="233.007812"/>
      <use xlink:href="#DejaVuSans-4d" x="283.007812"/>
      <use xlink:href="#DejaVuSans-69" x="369.287109"/>
      <use xlink:href="#DejaVuSans-6e" x="397.070312"/>
     </g>
    </g>
   </g>
  </g>
 </g>
 <defs>
  <clipPath id="p894e22dff1">
   <rect x="34.976" y="7.2" width="892.8" height="293.76"/>
  </clipPath>
 </defs>
</svg>
