<?xml version="1.0" encoding="utf-8" standalone="no"?>
<!DOCTYPE svg PUBLIC "-//W3C//DTD SVG 1.1//EN"
  "http://www.w3.org/Graphics/SVG/1.1/DTD/svg11.dtd">
<svg xmlns:xlink="http://www.w3.org/1999/xlink" width="934.976pt" height="358.290693pt" viewBox="0 0 934.976 358.290693" xmlns="http://www.w3.org/2000/svg" version="1.1">
 <metadata>
  <rdf:RDF xmlns:dc="http://purl.org/dc/elements/1.1/" xmlns:cc="http://creativecommons.org/ns#" xmlns:rdf="http://www.w3.org/1999/02/22-rdf-syntax-ns#">
   <cc:Work>
    <dc:type rdf:resource="http://purl.org/dc/dcmitype/StillImage"/>
    <dc:date>2026-02-28T07:54:43.974112</dc:date>
    <dc:format>image/svg+xml</dc:format>
    <dc:creator>
     <cc:Agent>
      <dc:title>Matplotlib v3.10.8, https://matplotlib.org/</dc:title>
     </cc:Agent>
    </dc:creator>
   </cc:Work>
  </rdf:RDF>
 </metadata>
 <defs>
  <style type="text/css">*{stroke-linejoin: round; stroke-linecap: butt}</style>
 </defs>
 <g id="figure_1">
  <g id="patch_1">
   <path d="M 0 358.290693 
L 934.976 358.290693 
L 934.976 0 
L 0 0 
z
" style="fill: #373e4b"/>
  </g>
  <g id="axes_1">
   <g id="patch_2">
    <path d="M 34.976 300.96 
L 927.776 300.96 
L 927.776 7.2 
L 34.976 7.2 
z
" style="fill: #373e4b"/>
   </g>
   <g id="matplotlib.axis_1">
    <g id="xtick_1">
     <g id="line2d_1">
      <path d="M 137.184607 300.96 
L 137.184607 7.2 
" clip-path="url(#p74be156cfb)" style="fill: none; stroke: #546379; stroke-width: 1.12; stroke-linecap: square"/>
     </g>
     <g id="line2d_2"/>
     <g id="text_1">
      <!-- 2012 -->
      <g style="fill: #b1bed6" transform="translate(108.103567 330.884854) rotate(-30) scale(0.126 -0.126)">
       <defs>
        <path id="DejaVuSans-32" d="M 1228 531 
L 3431 531 
L 3431 0 
L 469 0 
L 469 531 
Q 828 903 1448 1529 
Q 2069 2156 2228 2338 
Q 2531 2678 2651 2914 
Q 2772 3150 2772 3378 
Q 2772 3750 2511 3984 
Q 2250 4219 1831 4219 
Q 1534 4219 1204 4116 
Q 875 4013 500 3803 
L 500 4441 
Q 881 4594 1212 4672 
Q 1544 4750 1819 4750 
Q 2544 4750 2975 4387 
Q 3406 4025 3406 3419 
Q 3406 3131 3298 2873 
Q 3191 2616 2906 2266 
Q 2828 2175 2409 1742 
Q 1991 1309 1228 531 
z
" transform="scale(0.015625)"/>
        <path id="DejaVuSans-30" d="M 2034 4250 
Q 1547 4250 1301 3770 
Q 1056 3291 1056 2328 
Q 1056 1369 1301 889 
Q 1547 409 2034 409 
Q 2525 409 2770 889 
Q 3016 1369 3016 2328 
Q 3016 3291 2770 3770 
Q 2525 4250 2034 4250 
z
M 2034 4750 
Q 2819 4750 3233 4129 
Q 3647 3509 3647 2328 
Q 3647 1150 3233 529 
Q 2819 -91 2034 -91 
Q 1250 -91 836 529 
Q 422 1150 422 2328 
Q 422 3509 836 4129 
Q 1250 4750 2034 4750 
z
" transform="scale(0.015625)"/>
        <path id="DejaVuSans-31" d="M 794 531 
L 1825 531 
L 1825 4091 
L 703 3866 
L 703 4441 
L 1819 4666 
L 2450 4666 
L 2450 531 
L 3481 531 
L 3481 0 
L 794 0 
L 794 531 
z
" transform="scale(0.015625)"/>
       </defs>
       <use xlink:href="#DejaVuSans-32"/>
       <use xlink:href="#DejaVuSans-30" transform="translate(63.623047 0)"/>
       <use xlink:href="#DejaVuSans-31" transform="translate(127.246094 0)"/>
       <use xlink:href="#DejaVuSans-32" transform="translate(190.869141 0)"/>
      </g>
     </g>
    </g>
    <g id="xtick_2">
     <g id="line2d_3">
      <path d="M 243.182684 300.96 
L 243.182684 7.2 
" clip-path="url(#p74be156cfb)" style="fill: none; stroke: #546379; stroke-width: 1.12; stroke-linecap: square"/>
     </g>
     <g id="line2d_4"/>
     <g id="text_2">
      <!-- 2014 -->
      <g style="fill: #b1bed6" transform="translate(214.101644 330.884854) rotate(-30) scale(0.126 -0.126)">
       <defs>
        <path id="DejaVuSans-34" d="M 2419 4116 
L 825 1625 
L 2419 1625 
L 2419 4116 
z
M 2253 4666 
L 3047 4666 
L 3047 1625 
L 3713 1625 
L 3713 1100 
L 3047 1100 
L 3047 0 
L 2419 0 
L 2419 1100 
L 313 1100 
L 313 1709 
L 2253 4666 
z
" transform="scale(0.015625)"/>
       </defs>
       <use xlink:href="#DejaVuSans-32"/>
       <use xlink:href="#DejaVuSans-30" transform="translate(63.623047 0)"/>
       <use xlink:href="#DejaVuSans-31" transform="translate(127.246094 0)"/>
       <use xlink:href="#DejaVuSans-34" transform="translate(190.869141 0)"/>
      </g>
     </g>
    </g>
    <g id="xtick_3">
     <g id="line2d_5">
      <path d="M 349.035757 300.96 
L 349.035757 7.2 
" clip-path="url(#p74be156cfb)" style="fill: none; stroke: #546379; stroke-width: 1.12; stroke-linecap: square"/>
     </g>
     <g id="line2d_6"/>
     <g id="text_3">
      <!-- 2016 -->
      <g style="fill: #b1bed6" transform="translate(319.954717 330.884854) rotate(-30) scale(0.126 -0.126)">
       <defs>
        <path id="DejaVuSans-36" d="M 2113 2584 
Q 1688 2584 1439 2293 
Q 1191 2003 1191 1497 
Q 1191 994 1439 701 
Q 1688 409 2113 409 
Q 2538 409 2786 701 
Q 3034 994 3034 1497 
Q 3034 2003 2786 2293 
Q 2538 2584 2113 2584 
z
M 3366 4563 
L 3366 3988 
Q 3128 4100 2886 4159 
Q 2644 4219 2406 4219 
Q 1781 4219 1451 3797 
Q 1122 3375 1075 2522 
Q 1259 2794 1537 2939 
Q 1816 3084 2150 3084 
Q 2853 3084 3261 2657 
Q 3669 2231 3669 1497 
Q 3669 778 3244 343 
Q 2819 -91 2113 -91 
Q 1303 -91 875 529 
Q 447 1150 447 2328 
Q 447 3434 972 4092 
Q 1497 4750 2381 4750 
Q 2619 4750 2861 4703 
Q 3103 4656 3366 4563 
z
" transform="scale(0.015625)"/>
       </defs>
       <use xlink:href="#DejaVuSans-32"/>
       <use xlink:href="#DejaVuSans-30" transform="translate(63.623047 0)"/>
       <use xlink:href="#DejaVuSans-31" transform="translate(127.246094 0)"/>
       <use xlink:href="#DejaVuSans-36" transform="translate(190.869141 0)"/>
      </g>
     </g>
    </g>
    <g id="xtick_4">
     <g id="line2d_7">
      <path d="M 455.033834 300.96 
L 455.033834 7.2 
" clip-path="url(#p74be156cfb)" style="fill: none; stroke: #546379; stroke-width: 1.12; stroke-linecap: square"/>
     </g>
     <g id="line2d_8"/>
     <g id="text_4">
      <!-- 2018 -->
      <g style="fill: #b1bed6" transform="translate(425.952794 330.884854) rotate(-30) scale(0.126 -0.126)">
       <defs>
        <path id="DejaVuSans-38" d="M 2034 2216 
Q 1584 2216 1326 1975 
Q 1069 1734 1069 1313 
Q 1069 891 1326 650 
Q 1584 409 2034 409 
Q 2484 409 2743 651 
Q 3003 894 3003 1313 
Q 3003 1734 2745 1975 
Q 2488 2216 2034 2216 
z
M 1403 2484 
Q 997 2584 770 2862 
Q 544 3141 544 3541 
Q 544 4100 942 4425 
Q 1341 4750 2034 4750 
Q 2731 4750 3128 4425 
Q 3525 4100 3525 3541 
Q 3525 3141 3298 2862 
Q 3072 2584 2669 2484 
Q 3125 2378 3379 2068 
Q 3634 1759 3634 1313 
Q 3634 634 3220 271 
Q 2806 -91 2034 -91 
Q 1263 -91 848 271 
Q 434 634 434 1313 
Q 434 1759 690 2068 
Q 947 2378 1403 2484 
z
M 1172 3481 
Q 1172 3119 1398 2916 
Q 1625 2713 2034 2713 
Q 2441 2713 2670 2916 
Q 2900 3119 2900 3481 
Q 2900 3844 2670 4047 
Q 2441 4250 2034 4250 
Q 1625 4250 1398 4047 
Q 1172 3844 1172 3481 
z
" transform="scale(0.015625)"/>
       </defs>
       <use xlink:href="#DejaVuSans-32"/>
       <use xlink:href="#DejaVuSans-30" transform="translate(63.623047 0)"/>
       <use xlink:href="#DejaVuSans-31" transform="translate(127.246094 0)"/>
       <use xlink:href="#DejaVuSans-38" transform="translate(190.869141 0)"/>
      </g>
     </g>
    </g>
    <g id="xtick_5">
     <g id="line2d_9">
      <path d="M 560.886907 300.96 
L 560.886907 7.2 
" clip-path="url(#p74be156cfb)" style="fill: none; stroke: #546379; stroke-width: 1.12; stroke-linecap: square"/>
     </g>
     <g id="line2d_10"/>
     <g id="text_5">
      <!-- 2020 -->
      <g style="fill: #b1bed6" transform="translate(531.805867 330.884854) rotate(-30) scale(0.126 -0.126)">
       <use xlink:href="#DejaVuSans-32"/>
       <use xlink:href="#DejaVuSans-30" transform="translate(63.623047 0)"/>
       <use xlink:href="#DejaVuSans-32" transform="translate(127.246094 0)"/>
       <use xlink:href="#DejaVuSans-30" transform="translate(190.869141 0)"/>
      </g>
     </g>
    </g>
    <g id="xtick_6">
     <g id="line2d_11">
      <path d="M 666.884984 300.96 
L 666.884984 7.2 
" clip-path="url(#p74be156cfb)" style="fill: none; stroke: #546379; stroke-width: 1.12; stroke-linecap: square"/>
     </g>
     <g id="line2d_12"/>
     <g id="text_6">
      <!-- 2022 -->
      <g style="fill: #b1bed6" transform="translate(637.803944 330.884854) rotate(-30) scale(0.126 -0.126)">
       <use xlink:href="#DejaVuSans-32"/>
       <use xlink:href="#DejaVuSans-30" transform="translate(63.623047 0)"/>
       <use xlink:href="#DejaVuSans-32" transform="translate(127.246094 0)"/>
       <use xlink:href="#DejaVuSans-32" transform="translate(190.869141 0)"/>
      </g>
     </g>
    </g>
    <g id="xtick_7">
     <g id="line2d_13">
      <path d="M 772.738057 300.96 
L 772.738057 7.2 
" clip-path="url(#p74be156cfb)" style="fill: none; stroke: #546379; stroke-width: 1.12; stroke-linecap: square"/>
     </g>
     <g id="line2d_14"/>
     <g id="text_7">
      <!-- 2024 -->
      <g style="fill: #b1bed6" transform="translate(743.657017 330.884854) rotate(-30) scale(0.126 -0.126)">
       <use xlink:href="#DejaVuSans-32"/>
       <use xlink:href="#DejaVuSans-30" transform="translate(63.623047 0)"/>
       <use xlink:href="#DejaVuSans-32" transform="translate(127.246094 0)"/>
       <use xlink:href="#DejaVuSans-34" transform="translate(190.869141 0)"/>
      </g>
     </g>
    </g>
    <g id="xtick_8">
     <g id="line2d_15">
      <path d="M 878.736134 300.96 
L 878.736134 7.2 
" clip-path="url(#p74be156cfb)" style="fill: none; stroke: #546379; stroke-width: 1.12; stroke-linecap: square"/>
     </g>
     <g id="line2d_16"/>
     <g id="text_8">
      <!-- 2026 -->
      <g style="fill: #b1bed6" transform="translate(849.655094 330.884854) rotate(-30) scale(0.126 -0.126)">
       <use xlink:href="#DejaVuSans-32"/>
       <use xlink:href="#DejaVuSans-30" transform="translate(63.623047 0)"/>
       <use xlink:href="#DejaVuSans-32" transform="translate(127.246094 0)"/>
       <use xlink:href="#DejaVuSans-36" transform="translate(190.869141 0)"/>
      </g>
     </g>
    </g>
    <g id="text_9">
     <!-- Date -->
     <g style="fill: #b1bed6" transform="translate(464.166875 348.095943) scale(0.144 -0.144)">
      <defs>
       <path id="DejaVuSans-44" d="M 1259 4147 
L 1259 519 
L 2022 519 
Q 2988 519 3436 956 
Q 3884 1394 3884 2338 
Q 3884 3275 3436 3711 
Q 2988 4147 2022 4147 
L 1259 4147 
z
M 628 4666 
L 1925 4666 
Q 3281 4666 3915 4102 
Q 4550 3538 4550 2338 
Q 4550 1131 3912 565 
Q 3275 0 1925 0 
L 628 0 
L 628 4666 
z
" transform="scale(0.015625)"/>
       <path id="DejaVuSans-61" d="M 2194 1759 
Q 1497 1759 1228 1600 
Q 959 1441 959 1056 
Q 959 750 1161 570 
Q 1363 391 1709 391 
Q 2188 391 2477 730 
Q 2766 1069 2766 1631 
L 2766 1759 
L 2194 1759 
z
M 3341 1997 
L 3341 0 
L 2766 0 
L 2766 531 
Q 2569 213 2275 61 
Q 1981 -91 1556 -91 
Q 1019 -91 701 211 
Q 384 513 384 1019 
Q 384 1609 779 1909 
Q 1175 2209 1959 2209 
L 2766 2209 
L 2766 2266 
Q 2766 2663 2505 2880 
Q 2244 3097 1772 3097 
Q 1472 3097 1187 3025 
Q 903 2953 641 2809 
L 641 3341 
Q 956 3463 1253 3523 
Q 1550 3584 1831 3584 
Q 2591 3584 2966 3190 
Q 3341 2797 3341 1997 
z
" transform="scale(0.015625)"/>
       <path id="DejaVuSans-74" d="M 1172 4494 
L 1172 3500 
L 2356 3500 
L 2356 3053 
L 1172 3053 
L 1172 1153 
Q 1172 725 1289 603 
Q 1406 481 1766 481 
L 2356 481 
L 2356 0 
L 1766 0 
Q 1100 0 847 248 
Q 594 497 594 1153 
L 594 3053 
L 172 3053 
L 172 3500 
L 594 3500 
L 594 4494 
L 1172 4494 
z
" transform="scale(0.015625)"/>
       <path id="DejaVuSans-65" d="M 3597 1894 
L 3597 1613 
L 953 1613 
Q 991 1019 1311 708 
Q 1631 397 2203 397 
Q 2534 397 2845 478 
Q 3156 559 3463 722 
L 3463 178 
Q 3153 47 2828 -22 
Q 2503 -91 2169 -91 
Q 1331 -91 842 396 
Q 353 884 353 1716 
Q 353 2575 817 3079 
Q 1281 3584 2069 3584 
Q 2775 3584 3186 3129 
Q 3597 2675 3597 1894 
z
M 3022 2063 
Q 3016 2534 2758 2815 
Q 2500 3097 2075 3097 
Q 1594 3097 1305 2825 
Q 1016 2553 972 2059 
L 3022 2063 
z
" transform="scale(0.015625)"/>
      </defs>
      <use xlink:href="#DejaVuSans-44"/>
      <use xlink:href="#DejaVuSans-61" transform="translate(77.001953 0)"/>
      <use xlink:href="#DejaVuSans-74" transform="translate(138.28125 0)"/>
      <use xlink:href="#DejaVuSans-65" transform="translate(177.490234 0)"/>
     </g>
    </g>
   </g>
   <g id="matplotlib.axis_2">
    <g id="ytick_1">
     <g id="line2d_17">
      <path d="M 34.976 255.37232 
L 927.776 255.37232 
" clip-path="url(#p74be156cfb)" style="fill: none; stroke: #546379; stroke-width: 1.12; stroke-linecap: square"/>
     </g>
     <g id="line2d_18"/>
     <g id="text_10">
      <!-- $\mathdefault{10^{0}}$ -->
      <g style="fill: #b1bed6" transform="translate(7.2 260.159335) scale(0.126 -0.126)">
       <use xlink:href="#DejaVuSans-31" transform="translate(0 0.765625)"/>
       <use xlink:href="#DejaVuSans-30" transform="translate(63.623047 0.765625)"/>
       <use xlink:href="#DejaVuSans-30" transform="translate(128.203125 39.046875) scale(0.7)"/>
      </g>
     </g>
    </g>
    <g id="ytick_2">
     <g id="line2d_19">
      <path d="M 34.976 209.254528 
L 927.776 209.254528 
" clip-path="url(#p74be156cfb)" style="fill: none; stroke: #546379; stroke-width: 1.12; stroke-linecap: square"/>
     </g>
     <g id="line2d_20"/>
     <g id="text_11">
      <!-- $\mathdefault{10^{1}}$ -->
      <g style="fill: #b1bed6" transform="translate(7.2 214.041544) scale(0.126 -0.126)">
       <use xlink:href="#DejaVuSans-31" transform="translate(0 0.684375)"/>
       <use xlink:href="#DejaVuSans-30" transform="translate(63.623047 0.684375)"/>
       <use xlink:href="#DejaVuSans-31" transform="translate(128.203125 38.965625) scale(0.7)"/>
      </g>
     </g>
    </g>
    <g id="ytick_3">
     <g id="line2d_21">
      <path d="M 34.976 163.136737 
L 927.776 163.136737 
" clip-path="url(#p74be156cfb)" style="fill: none; stroke: #546379; stroke-width: 1.12; stroke-linecap: square"/>
     </g>
     <g id="line2d_22"/>
     <g id="text_12">
      <!-- $\mathdefault{10^{2}}$ -->
      <g style="fill: #b1bed6" transform="translate(7.2 167.923752) scale(0.126 -0.126)">
       <use xlink:href="#DejaVuSans-31" transform="translate(0 0.765625)"/>
       <use xlink:href="#DejaVuSans-30" transform="translate(63.623047 0.765625)"/>
       <use xlink:href="#DejaVuSans-32" transform="translate(128.203125 39.046875) scale(0.7)"/>
      </g>
     </g>
    </g>
    <g id="ytick_4">
     <g id="line2d_23">
      <path d="M 34.976 117.018945 
L 927.776 117.018945 
" clip-path="url(#p74be156cfb)" style="fill: none; stroke: #546379; stroke-width: 1.12; stroke-linecap: square"/>
     </g>
     <g id="line2d_24"/>
     <g id="text_13">
      <!-- $\mathdefault{10^{3}}$ -->
      <g style="fill: #b1bed6" transform="translate(7.2 121.805961) scale(0.126 -0.126)">
       <defs>
        <path id="DejaVuSans-33" d="M 2597 2516 
Q 3050 2419 3304 2112 
Q 3559 1806 3559 1356 
Q 3559 666 3084 287 
Q 2609 -91 1734 -91 
Q 1441 -91 1130 -33 
Q 819 25 488 141 
L 488 750 
Q 750 597 1062 519 
Q 1375 441 1716 441 
Q 2309 441 2620 675 
Q 2931 909 2931 1356 
Q 2931 1769 2642 2001 
Q 2353 2234 1838 2234 
L 1294 2234 
L 1294 2753 
L 1863 2753 
Q 2328 2753 2575 2939 
Q 2822 3125 2822 3475 
Q 2822 3834 2567 4026 
Q 2313 4219 1838 4219 
Q 1578 4219 1281 4162 
Q 984 4106 628 3988 
L 628 4550 
Q 988 4650 1302 4700 
Q 1616 4750 1894 4750 
Q 2613 4750 3031 4423 
Q 3450 4097 3450 3541 
Q 3450 3153 3228 2886 
Q 3006 2619 2597 2516 
z
" transform="scale(0.015625)"/>
       </defs>
       <use xlink:href="#DejaVuSans-31" transform="translate(0 0.765625)"/>
       <use xlink:href="#DejaVuSans-30" transform="translate(63.623047 0.765625)"/>
       <use xlink:href="#DejaVuSans-33" transform="translate(128.203125 39.046875) scale(0.7)"/>
      </g>
     </g>
    </g>
    <g id="ytick_5">
     <g id="line2d_25">
      <path d="M 34.976 70.901154 
L 927.776 70.901154 
" clip-path="url(#p74be156cfb)" style="fill: none; stroke: #546379; stroke-width: 1.12; stroke-linecap: square"/>
     </g>
     <g id="line2d_26"/>
     <g id="text_14">
      <!-- $\mathdefault{10^{4}}$ -->
      <g style="fill: #b1bed6" transform="translate(7.2 75.688169) scale(0.126 -0.126)">
       <use xlink:href="#DejaVuSans-31" transform="translate(0 0.684375)"/>
       <use xlink:href="#DejaVuSans-30" transform="translate(63.623047 0.684375)"/>
       <use xlink:href="#DejaVuSans-34" transform="translate(128.203125 38.965625) scale(0.7)"/>
      </g>
     </g>
    </g>
    <g id="ytick_6">
     <g id="line2d_27">
      <path d="M 34.976 24.783362 
L 927.776 24.783362 
" clip-path="url(#p74be156cfb)" style="fill: none; stroke: #546379; stroke-width: 1.12; stroke-linecap: square"/>
     </g>
     <g id="line2d_28"/>
     <g id="text_15">
      <!-- $\mathdefault{10^{5}}$ -->
      <g style="fill: #b1bed6" transform="translate(7.2 29.570378) scale(0.126 -0.126)">
       <defs>
        <path id="DejaVuSans-35" d="M 691 4666 
L 3169 4666 
L 3169 4134 
L 1269 4134 
L 1269 2991 
Q 1406 3038 1543 3061 
Q 1681 3084 1819 3084 
Q 2600 3084 3056 2656 
Q 3513 2228 3513 1497 
Q 3513 744 3044 326 
Q 2575 -91 1722 -91 
Q 1428 -91 1123 -41 
Q 819 9 494 109 
L 494 744 
Q 775 591 1075 516 
Q 1375 441 1709 441 
Q 2250 441 2565 725 
Q 2881 1009 2881 1497 
Q 2881 1984 2565 2268 
Q 2250 2553 1709 2553 
Q 1456 2553 1204 2497 
Q 953 2441 691 2322 
L 691 4666 
z
" transform="scale(0.015625)"/>
       </defs>
       <use xlink:href="#DejaVuSans-31" transform="translate(0 0.684375)"/>
       <use xlink:href="#DejaVuSans-30" transform="translate(63.623047 0.684375)"/>
       <use xlink:href="#DejaVuSans-35" transform="translate(128.203125 38.965625) scale(0.7)"/>
      </g>
     </g>
    </g>
    <g id="ytick_7">
     <g id="line2d_29"/>
    </g>
    <g id="ytick_8">
     <g id="line2d_30"/>
    </g>
    <g id="ytick_9">
     <g id="line2d_31"/>
    </g>
    <g id="ytick_10">
     <g id="line2d_32"/>
    </g>
    <g id="ytick_11">
     <g id="line2d_33"/>
    </g>
    <g id="ytick_12">
     <g id="line2d_34"/>
    </g>
    <g id="ytick_13">
     <g id="line2d_35"/>
    </g>
    <g id="ytick_14">
     <g id="line2d_36"/>
    </g>
    <g id="ytick_15">
     <g id="line2d_37"/>
    </g>
    <g id="ytick_16">
     <g id="line2d_38"/>
    </g>
    <g id="ytick_17">
     <g id="line2d_39"/>
    </g>
    <g id="ytick_18">
     <g id="line2d_40"/>
    </g>
    <g id="ytick_19">
     <g id="line2d_41"/>
    </g>
    <g id="ytick_20">
     <g id="line2d_42"/>
    </g>
    <g id="ytick_21">
     <g id="line2d_43"/>
    </g>
    <g id="ytick_22">
     <g id="line2d_44"/>
    </g>
    <g id="ytick_23">
     <g id="line2d_45"/>
    </g>
    <g id="ytick_24">
     <g id="line2d_46"/>
    </g>
    <g id="ytick_25">
     <g id="line2d_47"/>
    </g>
    <g id="ytick_26">
     <g id="line2d_48"/>
    </g>
    <g id="ytick_27">
     <g id="line2d_49"/>
    </g>
    <g id="ytick_28">
     <g id="line2d_50"/>
    </g>
    <g id="ytick_29">
     <g id="line2d_51"/>
    </g>
    <g id="ytick_30">
     <g id="line2d_52"/>
    </g>
    <g id="ytick_31">
     <g id="line2d_53"/>
    </g>
    <g id="ytick_32">
     <g id="line2d_54"/>
    </g>
    <g id="ytick_33">
     <g id="line2d_55"/>
    </g>
    <g id="ytick_34">
     <g id="line2d_56"/>
    </g>
    <g id="ytick_35">
     <g id="line2d_57"/>
    </g>
    <g id="ytick_36">
     <g id="line2d_58"/>
    </g>
    <g id="ytick_37">
     <g id="line2d_59"/>
    </g>
    <g id="ytick_38">
     <g id="line2d_60"/>
    </g>
    <g id="ytick_39">
     <g id="line2d_61"/>
    </g>
    <g id="ytick_40">
     <g id="line2d_62"/>
    </g>
    <g id="ytick_41">
     <g id="line2d_63"/>
    </g>
    <g id="ytick_42">
     <g id="line2d_64"/>
    </g>
    <g id="ytick_43">
     <g id="line2d_65"/>
    </g>
    <g id="ytick_44">
     <g id="line2d_66"/>
    </g>
    <g id="ytick_45">
     <g id="line2d_67"/>
    </g>
    <g id="ytick_46">
     <g id="line2d_68"/>
    </g>
    <g id="ytick_47">
     <g id="line2d_69"/>
    </g>
    <g id="ytick_48">
     <g id="line2d_70"/>
    </g>
    <g id="ytick_49">
     <g id="line2d_71"/>
    </g>
    <g id="ytick_50">
     <g id="line2d_72"/>
    </g>
    <g id="ytick_51">
     <g id="line2d_73"/>
    </g>
    <g id="ytick_52">
     <g id="line2d_74"/>
    </g>
    <g id="ytick_53">
     <g id="line2d_75"/>
    </g>
    <g id="ytick_54">
     <g id="line2d_76"/>
    </g>
    <g id="ytick_55">
     <g id="line2d_77"/>
    </g>
   </g>
   <g id="line2d_78">
    <path d="M 75.557818 287.607273 
L 75.557818 283.137997 
L 76.137835 283.137997 
L 76.137835 278.19371 
L 76.717852 278.19371 
L 76.717852 279.486333 
L 77.297869 279.486333 
L 77.297869 280.86817 
L 77.877886 280.86817 
L 77.877886 280.165337 
L 78.457902 280.165337 
L 78.457902 280.86817 
L 79.617936 280.86817 
L 79.617936 282.352457 
L 80.197953 282.352457 
L 80.197953 284.808022 
L 81.357987 284.808022 
L 81.357987 283.137997 
L 81.938003 283.137997 
L 81.938003 282.352457 
L 82.51802 282.352457 
L 82.51802 283.137997 
L 83.098037 283.137997 
L 83.098037 281.596567 
L 83.678054 281.596567 
L 83.678054 279.486333 
L 84.838088 279.486333 
L 84.838088 278.19371 
L 85.418104 278.19371 
L 85.418104 275.834669 
L 85.998121 275.834669 
L 85.998121 273.724434 
L 86.578138 273.724434 
L 86.578138 274.751772 
L 87.158155 274.751772 
L 87.158155 271.815495 
L 87.738172 271.815495 
L 87.738172 271.365393 
L 88.318189 271.365393 
L 88.318189 257.042345 
L 89.478222 257.042345 
L 89.478222 255.982378 
L 90.058239 255.982378 
L 90.058239 253.83089 
L 90.638256 253.83089 
L 90.638256 254.395116 
L 91.218273 254.395116 
L 91.218273 257.932656 
L 91.79829 257.932656 
L 91.79829 255.37232 
L 92.378306 255.37232 
L 92.378306 255.982378 
L 92.958323 255.982378 
L 92.958323 257.042345 
L 93.53834 257.042345 
L 93.53834 257.932656 
L 94.118357 257.932656 
L 94.118357 257.26124 
L 94.698374 257.26124 
L 94.698374 258.161558 
L 95.278391 258.161558 
L 95.278391 260.093532 
L 95.858407 260.093532 
L 95.858407 257.706341 
L 96.438424 257.706341 
L 96.438424 259.841596 
L 97.598458 259.841596 
L 97.598458 261.134218 
L 98.178475 261.134218 
L 98.178475 260.868934 
L 98.758492 260.868934 
L 98.758492 255.776954 
L 99.338509 255.776954 
L 99.338509 251.720656 
L 99.918525 251.720656 
L 99.918525 248.921405 
L 100.498542 248.921405 
L 100.498542 243.823502 
L 101.078559 243.823502 
L 101.078559 226.917627 
L 101.658576 226.917627 
L 101.658576 229.940664 
L 102.238593 229.940664 
L 102.238593 228.062436 
L 102.81861 228.062436 
L 102.81861 217.729074 
L 103.398626 217.729074 
L 103.398626 212.580386 
L 103.978643 212.580386 
L 103.978643 216.455571 
L 104.55866 216.455571 
L 104.55866 215.640255 
L 105.138677 215.640255 
L 105.138677 212.089863 
L 105.718694 212.089863 
L 105.718694 209.926627 
L 106.298711 209.926627 
L 106.298711 196.34639 
L 106.878727 196.34639 
L 106.878727 185.746445 
L 107.458744 185.746445 
L 107.458744 192.005794 
L 108.038761 192.005794 
L 108.038761 196.536537 
L 108.618778 196.536537 
L 108.618778 200.619497 
L 109.198795 200.619497 
L 109.198795 197.954799 
L 109.778812 197.954799 
L 109.778812 198.218565 
L 110.358828 198.218565 
L 110.358828 200.169105 
L 110.938845 200.169105 
L 110.938845 199.716176 
L 111.518862 199.716176 
L 111.518862 201.040338 
L 112.098879 201.040338 
L 112.098879 202.160926 
L 112.678896 202.160926 
L 112.678896 201.757417 
L 113.258913 201.757417 
L 113.258913 202.615821 
L 113.838929 202.615821 
L 113.838929 202.372872 
L 114.418946 202.372872 
L 114.418946 201.702393 
L 114.998963 201.702393 
L 114.998963 206.455278 
L 115.57898 206.455278 
L 115.57898 209.94735 
L 116.158997 209.94735 
L 116.158997 209.395222 
L 116.739014 209.395222 
L 116.739014 206.700602 
L 117.31903 206.700602 
L 117.31903 206.024537 
L 117.899047 206.024537 
L 117.899047 206.806668 
L 118.479064 206.806668 
L 118.479064 210.324077 
L 119.059081 210.324077 
L 119.059081 212.604047 
L 119.639098 212.604047 
L 119.639098 213.058992 
L 120.219115 213.058992 
L 120.219115 217.097011 
L 120.799132 217.097011 
L 120.799132 218.861295 
L 121.379148 218.861295 
L 121.379148 223.057412 
L 121.959165 223.057412 
L 121.959165 218.893678 
L 122.539182 218.893678 
L 122.539182 221.264877 
L 123.119199 221.264877 
L 123.119199 223.379165 
L 123.699216 223.379165 
L 123.699216 222.898453 
L 124.279233 222.898453 
L 124.279233 223.996748 
L 124.859249 223.996748 
L 124.859249 226.821103 
L 125.439266 226.821103 
L 125.439266 227.556633 
L 126.019283 227.556633 
L 126.019283 236.311847 
L 126.5993 236.311847 
L 126.5993 231.338582 
L 127.179317 231.338582 
L 127.179317 232.711804 
L 127.759334 232.711804 
L 127.759334 230.97985 
L 128.33935 230.97985 
L 128.33935 231.951129 
L 128.919367 231.951129 
L 128.919367 232.138606 
L 129.499384 232.138606 
L 129.499384 232.647299 
L 130.079401 232.647299 
L 130.079401 236.234665 
L 130.659418 236.234665 
L 130.659418 237.424839 
L 131.239435 237.424839 
L 131.239435 237.181079 
L 131.819451 237.181079 
L 131.819451 235.928878 
L 132.399468 235.928878 
L 132.399468 232.455022 
L 132.979485 232.455022 
L 132.979485 232.97192 
L 133.559502 232.97192 
L 133.559502 232.583001 
L 134.139519 232.583001 
L 134.139519 231.703858 
L 134.719536 231.703858 
L 134.719536 231.098715 
L 135.299552 231.098715 
L 135.299552 227.707037 
L 135.879569 227.707037 
L 135.879569 226.39241 
L 136.459586 226.39241 
L 136.459586 225.381573 
L 137.039603 225.381573 
L 137.039603 221.707518 
L 137.61962 221.707518 
L 137.61962 216.227322 
L 138.199637 216.227322 
L 138.199637 216.114165 
L 138.779653 216.114165 
L 138.779653 216.284141 
L 139.35967 216.284141 
L 139.35967 218.287185 
L 139.939687 218.287185 
L 139.939687 217.975205 
L 140.519704 217.975205 
L 140.519704 220.513041 
L 141.099721 220.513041 
L 141.099721 220.689506 
L 141.679738 220.689506 
L 141.679738 219.519112 
L 142.259754 219.519112 
L 142.259754 220.027052 
L 143.419788 220.095761 
L 143.419788 224.206915 
L 143.999805 224.206915 
L 143.999805 225.247601 
L 144.579822 225.247601 
L 144.579822 222.467712 
L 145.159839 222.467712 
L 145.159839 223.217642 
L 145.739856 223.217642 
L 145.739856 223.913295 
L 146.319872 223.913295 
L 146.319872 222.938075 
L 146.899889 222.938075 
L 146.899889 223.217642 
L 147.479906 223.217642 
L 147.479906 221.448123 
L 148.059923 221.448123 
L 148.059923 222.236609 
L 148.63994 222.236609 
L 148.63994 223.913295 
L 149.219957 223.913295 
L 149.219957 224.080551 
L 149.799973 224.080551 
L 149.799973 223.379165 
L 150.960007 223.298241 
L 150.960007 223.954978 
L 151.540024 223.954978 
L 151.540024 223.257901 
L 152.700058 223.177464 
L 152.700058 222.198349 
L 153.280074 222.198349 
L 153.280074 222.390381 
L 153.860091 222.390381 
L 153.860091 222.780056 
L 154.440108 222.780056 
L 154.440108 222.429009 
L 155.020125 222.429009 
L 155.020125 222.740746 
L 156.180159 222.740746 
L 156.180159 222.938075 
L 156.760175 222.938075 
L 156.760175 222.623275 
L 158.500226 222.545342 
L 158.500226 222.429009 
L 159.080243 222.429009 
L 159.080243 222.084008 
L 159.66026 222.084008 
L 159.66026 221.011116 
L 160.820293 220.939199 
L 160.820293 218.604102 
L 161.40031 218.604102 
L 161.40031 217.698519 
L 161.980327 217.698519 
L 161.980327 217.455744 
L 162.560344 217.455744 
L 162.560344 217.637549 
L 163.140361 217.637549 
L 163.140361 217.245703 
L 163.720377 217.245703 
L 163.720377 217.097011 
L 164.300394 217.097011 
L 164.300394 216.455571 
L 164.880411 216.455571 
L 164.880411 214.102908 
L 165.460428 214.102908 
L 165.460428 210.345215 
L 166.040445 210.345215 
L 166.040445 210.218718 
L 166.620462 210.218718 
L 166.620462 211.814865 
L 167.200478 211.814865 
L 167.200478 211.476343 
L 167.780495 211.476343 
L 167.780495 209.015614 
L 168.360512 209.015614 
L 168.360512 206.931125 
L 168.940529 206.931125 
L 168.940529 206.281868 
L 169.520546 206.281868 
L 169.520546 205.108303 
L 170.100563 205.108303 
L 170.100563 201.840237 
L 170.68058 201.840237 
L 170.68058 208.740437 
L 171.260596 208.740437 
L 171.260596 207.363805 
L 171.840613 207.363805 
L 171.840613 207.510134 
L 172.42063 207.510134 
L 172.42063 208.239211 
L 173.000647 208.239211 
L 173.000647 206.859912 
L 174.160681 206.913298 
L 174.160681 205.87171 
L 174.740697 205.87171 
L 174.740697 204.57803 
L 175.320714 204.57803 
L 175.320714 205.140897 
L 175.900731 205.140897 
L 175.900731 204.849447 
L 176.480748 204.849447 
L 176.480748 204.657477 
L 177.060765 204.657477 
L 177.060765 204.045986 
L 177.640782 204.045986 
L 177.640782 205.108303 
L 178.220798 205.108303 
L 178.220798 205.43665 
L 178.800815 205.43665 
L 178.800815 205.636273 
L 179.380832 205.636273 
L 179.380832 205.939489 
L 179.960849 205.939489 
L 179.960849 206.351052 
L 180.540866 206.351052 
L 180.540866 207.473452 
L 181.120883 207.473452 
L 181.120883 207.236638 
L 181.700899 207.236638 
L 181.700899 207.400287 
L 182.860933 207.436836 
L 182.860933 207.218538 
L 183.44095 207.218538 
L 183.44095 205.905571 
L 184.020967 205.905571 
L 184.020967 205.075763 
L 184.600984 205.075763 
L 184.600984 204.593894 
L 185.761017 204.530512 
L 185.761017 203.86153 
L 186.341034 203.86153 
L 186.341034 203.169779 
L 186.921051 203.169779 
L 186.921051 202.803614 
L 187.501068 202.803614 
L 187.501068 203.051876 
L 188.661101 202.949278 
L 188.661101 203.318141 
L 189.241118 203.318141 
L 189.241118 203.022509 
L 189.821135 203.022509 
L 189.821135 203.214173 
L 190.981169 203.184566 
L 190.981169 202.529737 
L 191.561186 202.529737 
L 191.561186 202.076772 
L 192.141203 202.076772 
L 192.141203 200.438123 
L 192.721219 200.438123 
L 192.721219 198.474155 
L 193.301236 198.474155 
L 193.301236 196.8899 
L 193.881253 196.8899 
L 193.881253 195.593226 
L 194.46127 195.593226 
L 194.46127 194.394486 
L 195.041287 194.394486 
L 195.041287 193.895273 
L 195.621304 193.895273 
L 195.621304 191.745077 
L 196.20132 191.745077 
L 196.20132 189.21317 
L 196.781337 189.21317 
L 196.781337 189.375826 
L 197.361354 189.375826 
L 197.361354 186.90656 
L 197.941371 186.90656 
L 197.941371 186.46521 
L 198.521388 186.46521 
L 198.521388 184.597163 
L 199.101405 184.597163 
L 199.101405 180.511647 
L 199.681421 180.511647 
L 199.681421 178.864525 
L 200.261438 178.864525 
L 200.261438 178.318608 
L 200.841455 178.318608 
L 200.841455 176.187869 
L 201.421472 176.187869 
L 201.421472 170.209069 
L 202.001489 170.209069 
L 202.001489 167.911261 
L 202.581506 167.911261 
L 202.581506 164.698205 
L 203.161522 164.698205 
L 203.161522 157.728444 
L 203.741539 157.728444 
L 203.741539 153.314284 
L 204.321556 153.314284 
L 204.321556 158.68349 
L 204.901573 158.68349 
L 204.901573 170.831623 
L 205.48159 170.831623 
L 205.48159 159.666147 
L 206.061607 159.666147 
L 206.061607 156.043135 
L 206.641623 156.043135 
L 206.641623 158.114365 
L 207.22164 158.114365 
L 207.22164 159.992155 
L 207.801657 159.992155 
L 207.801657 160.16753 
L 208.381674 160.16753 
L 208.381674 160.743898 
L 208.961691 160.743898 
L 208.961691 159.823395 
L 209.541708 159.823395 
L 209.541708 158.938472 
L 210.701741 159.039422 
L 210.701741 157.577651 
L 211.861775 157.530665 
L 211.861775 159.085179 
L 212.441792 159.085179 
L 212.441792 159.657728 
L 213.021809 159.657728 
L 213.021809 161.9508 
L 213.601825 161.9508 
L 213.601825 163.140743 
L 214.181842 163.140743 
L 214.181842 161.708753 
L 214.761859 161.708753 
L 214.761859 161.530504 
L 215.341876 161.530504 
L 215.341876 162.351197 
L 215.921893 162.351197 
L 215.921893 163.695241 
L 216.50191 163.695241 
L 216.50191 167.596001 
L 217.081927 167.596001 
L 217.081927 168.504633 
L 217.661943 168.504633 
L 217.661943 164.378152 
L 218.24196 164.378152 
L 218.24196 163.736474 
L 218.821977 163.736474 
L 218.821977 165.383183 
L 219.401994 165.383183 
L 219.401994 164.267648 
L 219.982011 164.267648 
L 219.982011 163.398817 
L 220.562028 163.398817 
L 220.562028 162.232149 
L 221.142044 162.232149 
L 221.142044 161.834102 
L 221.722061 161.834102 
L 221.722061 162.583641 
L 222.302078 162.583641 
L 222.302078 161.3465 
L 222.882095 161.3465 
L 222.882095 163.194904 
L 223.462112 163.194904 
L 223.462112 161.149656 
L 224.042129 161.149656 
L 224.042129 160.639309 
L 224.622145 160.639309 
L 224.622145 159.737009 
L 225.202162 159.737009 
L 225.202162 157.86806 
L 225.782179 157.86806 
L 225.782179 159.888004 
L 226.362196 159.888004 
L 226.362196 159.150729 
L 226.942213 159.150729 
L 226.942213 158.820261 
L 227.52223 158.820261 
L 227.52223 158.330623 
L 228.102246 158.330623 
L 228.102246 159.001913 
L 228.682263 159.001913 
L 228.682263 158.72362 
L 229.26228 158.72362 
L 229.26228 158.468169 
L 229.842297 158.468169 
L 229.842297 159.163865 
L 230.422314 159.163865 
L 230.422314 158.808962 
L 231.002331 158.808962 
L 231.002331 158.256707 
L 231.582347 158.256707 
L 231.582347 156.658265 
L 232.162364 156.658265 
L 232.162364 150.694477 
L 232.742381 150.694477 
L 232.742381 149.727115 
L 233.322398 149.727115 
L 233.322398 148.57456 
L 233.902415 148.57456 
L 233.902415 148.955699 
L 234.482432 148.955699 
L 234.482432 144.578193 
L 235.062448 144.578193 
L 235.062448 139.224019 
L 235.642465 139.224019 
L 235.642465 135.724665 
L 236.222482 135.724665 
L 236.222482 131.929122 
L 236.802499 131.929122 
L 236.802499 123.688509 
L 237.382516 123.688509 
L 237.382516 121.126976 
L 237.962533 121.126976 
L 237.962533 114.501195 
L 238.542549 114.501195 
L 238.542549 116.037736 
L 239.122566 116.037736 
L 239.122566 123.994292 
L 239.702583 123.994292 
L 239.702583 119.650419 
L 240.2826 119.650419 
L 240.2826 119.97045 
L 240.862617 119.97045 
L 240.862617 124.587763 
L 241.442634 124.587763 
L 241.442634 125.341484 
L 242.022651 125.341484 
L 242.022651 123.488046 
L 242.602667 123.488046 
L 242.602667 123.267395 
L 243.182684 123.267395 
L 243.182684 120.781313 
L 243.762701 120.781313 
L 243.762701 120.913218 
L 244.342718 120.913218 
L 244.342718 120.41492 
L 244.922735 120.41492 
L 244.922735 121.063393 
L 245.502752 121.063393 
L 245.502752 120.803802 
L 246.082768 120.803802 
L 246.082768 121.99479 
L 246.662785 121.99479 
L 246.662785 121.852022 
L 247.242802 121.852022 
L 247.242802 121.065109 
L 247.822819 121.065109 
L 247.822819 121.969642 
L 248.402836 121.969642 
L 248.402836 124.527356 
L 248.982853 124.527356 
L 248.982853 126.919059 
L 249.562869 126.919059 
L 249.562869 126.274188 
L 250.142886 126.274188 
L 250.142886 127.946397 
L 250.722903 127.946397 
L 250.722903 128.649132 
L 251.30292 128.649132 
L 251.30292 128.366202 
L 251.882937 128.366202 
L 251.882937 125.019077 
L 252.462954 125.019077 
L 252.462954 125.960627 
L 253.622987 125.925914 
L 253.622987 126.441804 
L 254.203004 126.441804 
L 254.203004 128.176165 
L 254.783021 128.176165 
L 254.783021 127.730173 
L 255.363038 127.730173 
L 255.363038 131.306418 
L 255.943055 131.306418 
L 255.943055 133.502218 
L 256.523071 133.502218 
L 256.523071 132.65908 
L 257.103088 132.65908 
L 257.103088 136.986733 
L 257.683105 136.986733 
L 257.683105 132.58749 
L 258.263122 132.58749 
L 258.263122 131.631546 
L 258.843139 131.631546 
L 258.843139 131.367004 
L 259.423156 131.367004 
L 259.423156 132.507473 
L 260.003172 132.507473 
L 260.003172 132.92187 
L 260.583189 132.92187 
L 260.583189 133.610609 
L 261.743223 133.571209 
L 261.743223 133.350906 
L 262.32324 133.350906 
L 262.32324 133.051224 
L 262.903257 133.051224 
L 262.903257 131.38341 
L 263.483274 131.38341 
L 263.483274 129.81387 
L 264.06329 129.81387 
L 264.06329 127.894621 
L 264.643307 127.894621 
L 264.643307 126.250357 
L 265.223324 126.250357 
L 265.223324 125.296318 
L 265.803341 125.296318 
L 265.803341 125.68367 
L 266.383358 125.68367 
L 266.383358 127.534196 
L 266.963375 127.534196 
L 266.963375 126.984835 
L 267.543391 126.984835 
L 267.543391 127.554182 
L 268.123408 127.554182 
L 268.123408 128.604794 
L 268.703425 128.604794 
L 268.703425 127.250453 
L 269.283442 127.250453 
L 269.283442 125.790765 
L 269.863459 125.790765 
L 269.863459 126.453349 
L 270.443476 126.453349 
L 270.443476 126.146152 
L 271.023492 126.146152 
L 271.023492 126.462333 
L 271.603509 126.462333 
L 271.603509 126.272916 
L 272.183526 126.272916 
L 272.183526 126.579496 
L 272.763543 126.579496 
L 272.763543 127.462208 
L 273.34356 127.462208 
L 273.34356 127.858802 
L 273.923577 127.858802 
L 273.923577 127.63773 
L 275.08361 127.6214 
L 275.08361 128.312275 
L 275.663627 128.312275 
L 275.663627 129.967354 
L 276.243644 129.967354 
L 276.243644 130.161745 
L 276.823661 130.161745 
L 276.823661 130.582678 
L 277.983694 130.638739 
L 277.983694 131.871859 
L 278.563711 131.871859 
L 278.563711 131.474298 
L 279.143728 131.474298 
L 279.143728 131.998816 
L 279.723745 131.998816 
L 279.723745 131.848327 
L 280.303762 131.848327 
L 280.303762 132.839184 
L 280.883779 132.839184 
L 280.883779 135.31356 
L 281.463795 135.31356 
L 281.463795 134.867219 
L 282.043812 134.867219 
L 282.043812 136.724127 
L 282.623829 136.724127 
L 282.623829 137.542587 
L 283.203846 137.542587 
L 283.203846 138.979109 
L 283.783863 138.979109 
L 283.783863 137.373098 
L 284.36388 137.373098 
L 284.36388 135.631111 
L 284.943896 135.631111 
L 284.943896 135.906922 
L 285.523913 135.906922 
L 285.523913 137.637682 
L 286.10393 137.637682 
L 286.10393 137.994084 
L 286.683947 137.994084 
L 286.683947 138.756714 
L 287.263964 138.756714 
L 287.263964 139.210064 
L 287.843981 139.210064 
L 287.843981 138.221398 
L 288.423998 138.221398 
L 288.423998 134.384797 
L 289.004014 134.384797 
L 289.004014 135.88482 
L 289.584031 135.88482 
L 289.584031 137.678656 
L 290.164048 137.678656 
L 290.164048 136.686127 
L 290.744065 136.686127 
L 290.744065 136.558209 
L 291.324082 136.558209 
L 291.324082 136.418436 
L 291.904099 136.418436 
L 291.904099 136.661012 
L 292.484115 136.661012 
L 292.484115 138.114882 
L 293.064132 138.114882 
L 293.064132 137.604067 
L 293.644149 137.604067 
L 293.644149 140.330735 
L 294.224166 140.330735 
L 294.224166 139.104206 
L 294.804183 139.104206 
L 294.804183 139.227661 
L 295.3842 139.227661 
L 295.3842 140.411716 
L 295.964216 140.411716 
L 295.964216 142.153972 
L 296.544233 142.153972 
L 296.544233 141.267602 
L 297.12425 141.267602 
L 297.12425 143.266944 
L 297.704267 143.266944 
L 297.704267 148.256676 
L 298.284284 148.256676 
L 298.284284 147.711541 
L 298.864301 147.711541 
L 298.864301 146.134154 
L 299.444317 146.134154 
L 299.444317 143.729744 
L 300.024334 143.729744 
L 300.024334 147.413355 
L 300.604351 147.413355 
L 300.604351 146.743214 
L 301.184368 146.743214 
L 301.184368 146.990332 
L 301.764385 146.990332 
L 301.764385 147.133952 
L 302.344402 147.133952 
L 302.344402 146.066566 
L 302.924418 146.066566 
L 302.924418 145.125593 
L 303.504435 145.125593 
L 303.504435 145.607242 
L 304.084452 145.607242 
L 304.084452 144.506165 
L 304.664469 144.506165 
L 304.664469 143.238742 
L 305.244486 143.238742 
L 305.244486 142.875683 
L 305.824503 142.875683 
L 305.824503 141.476374 
L 306.404519 141.476374 
L 306.404519 141.861751 
L 306.984536 141.861751 
L 306.984536 143.837962 
L 307.564553 143.837962 
L 307.564553 145.189256 
L 308.14457 145.189256 
L 308.14457 144.548875 
L 308.724587 144.548875 
L 308.724587 145.067818 
L 309.304604 145.067818 
L 309.304604 143.959065 
L 309.88462 143.959065 
L 309.88462 145.353427 
L 310.464637 145.353427 
L 310.464637 147.072788 
L 311.624671 147.106045 
L 311.624671 145.951593 
L 312.204688 145.951593 
L 312.204688 146.780354 
L 313.364722 146.839743 
L 313.364722 145.646513 
L 313.944738 145.646513 
L 313.944738 145.840654 
L 314.524755 145.840654 
L 314.524755 145.52311 
L 315.104772 145.52311 
L 315.104772 145.822927 
L 315.684789 145.822927 
L 315.684789 146.333104 
L 316.264806 146.333104 
L 316.264806 145.790046 
L 316.844823 145.790046 
L 316.844823 145.997503 
L 317.424839 145.997503 
L 317.424839 146.599727 
L 318.004856 146.599727 
L 318.004856 147.084466 
L 318.584873 147.084466 
L 318.584873 146.659462 
L 319.16489 146.659462 
L 319.16489 146.489511 
L 319.744907 146.489511 
L 319.744907 144.786225 
L 320.324924 144.786225 
L 320.324924 145.209704 
L 320.90494 145.209704 
L 320.90494 145.58555 
L 321.484957 145.58555 
L 321.484957 144.899515 
L 322.064974 144.899515 
L 322.064974 144.413151 
L 322.644991 144.413151 
L 322.644991 143.352536 
L 323.225008 143.352536 
L 323.225008 142.165919 
L 323.805025 142.165919 
L 323.805025 141.956134 
L 324.385041 141.956134 
L 324.385041 142.749355 
L 325.545075 142.660533 
L 325.545075 141.618141 
L 326.125092 141.618141 
L 326.125092 141.919299 
L 326.705109 141.919299 
L 326.705109 142.434841 
L 327.285126 142.434841 
L 327.285126 142.563496 
L 327.865142 142.563496 
L 327.865142 143.170627 
L 328.445159 143.170627 
L 328.445159 143.889226 
L 329.025176 143.889226 
L 329.025176 146.783894 
L 329.605193 146.783894 
L 329.605193 146.617278 
L 330.18521 146.617278 
L 330.18521 146.885067 
L 330.765227 146.885067 
L 330.765227 146.432889 
L 331.92526 146.391179 
L 331.92526 145.253943 
L 332.505277 145.253943 
L 332.505277 146.046931 
L 333.085294 146.046931 
L 333.085294 146.600604 
L 333.665311 146.600604 
L 333.665311 146.44072 
L 334.245328 146.44072 
L 334.245328 146.109317 
L 334.825345 146.109317 
L 334.825345 145.674132 
L 335.405361 145.674132 
L 335.405361 145.789204 
L 335.985378 145.789204 
L 335.985378 145.042645 
L 337.145412 145.130483 
L 337.145412 144.58771 
L 337.725429 144.58771 
L 337.725429 143.919127 
L 338.305446 143.919127 
L 338.305446 142.92308 
L 338.885462 142.92308 
L 338.885462 142.04188 
L 339.465479 142.04188 
L 339.465479 139.335396 
L 340.045496 139.335396 
L 340.045496 135.146995 
L 340.625513 135.146995 
L 340.625513 136.03177 
L 341.20553 136.03177 
L 341.20553 140.54223 
L 341.785547 140.54223 
L 341.785547 139.904907 
L 342.365563 139.904907 
L 342.365563 139.474419 
L 342.94558 139.474419 
L 342.94558 139.623699 
L 343.525597 139.623699 
L 343.525597 137.592875 
L 344.105614 137.592875 
L 344.105614 137.338267 
L 344.685631 137.338267 
L 344.685631 136.035393 
L 345.265648 136.035393 
L 345.265648 134.561942 
L 345.845664 134.561942 
L 345.845664 133.765289 
L 346.425681 133.765289 
L 346.425681 132.721275 
L 347.005698 132.721275 
L 347.005698 133.537369 
L 347.585715 133.537369 
L 347.585715 132.768707 
L 348.165732 132.768707 
L 348.165732 133.772685 
L 349.325765 133.794425 
L 349.325765 133.957068 
L 349.905782 133.957068 
L 349.905782 133.082018 
L 350.485799 133.082018 
L 350.485799 133.943542 
L 351.065816 133.943542 
L 351.065816 136.111106 
L 351.645833 136.111106 
L 351.645833 136.319493 
L 352.22585 136.319493 
L 352.22585 135.793073 
L 352.805866 135.793073 
L 352.805866 136.578408 
L 353.385883 136.578408 
L 353.385883 137.016065 
L 353.9659 137.016065 
L 353.9659 136.663682 
L 354.545917 136.663682 
L 354.545917 136.503031 
L 355.125934 136.503031 
L 355.125934 135.410655 
L 355.705951 135.410655 
L 355.705951 134.39481 
L 356.865984 134.429653 
L 356.865984 133.848648 
L 357.446001 133.848648 
L 357.446001 134.274991 
L 358.026018 134.274991 
L 358.026018 135.088159 
L 358.606035 135.088159 
L 358.606035 134.58552 
L 359.766069 134.634206 
L 359.766069 134.976402 
L 360.346085 134.976402 
L 360.346085 134.566752 
L 361.506119 134.539353 
L 361.506119 134.694626 
L 362.086136 134.694626 
L 362.086136 134.465036 
L 363.24617 134.39624 
L 363.24617 134.268829 
L 363.826186 134.268829 
L 363.826186 133.948205 
L 364.406203 133.948205 
L 364.406203 133.647329 
L 364.98622 133.647329 
L 364.98622 132.926744 
L 365.566237 132.926744 
L 365.566237 133.222757 
L 366.146254 133.222757 
L 366.146254 132.878937 
L 366.726271 132.878937 
L 366.726271 133.040078 
L 367.306287 133.040078 
L 367.306287 132.543093 
L 367.886304 132.543093 
L 367.886304 132.754641 
L 368.466321 132.754641 
L 368.466321 132.8754 
L 369.046338 132.8754 
L 369.046338 133.316532 
L 369.626355 133.316532 
L 369.626355 133.069963 
L 370.206372 133.069963 
L 370.206372 130.454174 
L 370.786388 130.454174 
L 370.786388 129.434672 
L 371.366405 129.434672 
L 371.366405 127.801074 
L 371.946422 127.801074 
L 371.946422 128.00004 
L 372.526439 128.00004 
L 372.526439 124.590979 
L 373.106456 124.590979 
L 373.106456 122.72857 
L 373.686473 122.72857 
L 373.686473 127.49158 
L 374.266489 127.49158 
L 374.266489 126.266876 
L 374.846506 126.266876 
L 374.846506 125.101367 
L 375.426523 125.101367 
L 375.426523 124.68503 
L 376.00654 124.68503 
L 376.00654 125.250347 
L 377.74659 125.301163 
L 377.74659 125.114865 
L 378.326607 125.114865 
L 378.326607 125.296318 
L 378.906624 125.296318 
L 378.906624 125.476985 
L 379.486641 125.476985 
L 379.486641 127.065375 
L 380.066658 127.065375 
L 380.066658 128.18211 
L 380.646675 128.18211 
L 380.646675 127.757887 
L 381.806708 127.814117 
L 381.806708 128.245157 
L 382.386725 128.245157 
L 382.386725 128.02466 
L 383.546759 128.076426 
L 383.546759 128.22482 
L 384.706793 128.207305 
L 384.706793 126.979565 
L 385.286809 126.979565 
L 385.286809 126.540151 
L 385.866826 126.540151 
L 385.866826 126.952249 
L 387.02686 127.007578 
L 387.02686 127.448718 
L 387.606877 127.448718 
L 387.606877 127.024734 
L 389.346927 127.011866 
L 389.346927 126.773153 
L 389.926944 126.773153 
L 389.926944 126.10954 
L 390.506961 126.10954 
L 390.506961 125.989756 
L 391.086978 125.989756 
L 391.086978 126.308236 
L 391.666995 126.308236 
L 391.666995 125.834884 
L 392.247011 125.834884 
L 392.247011 124.569943 
L 392.827028 124.569943 
L 392.827028 123.415695 
L 393.407045 123.415695 
L 393.407045 124.063357 
L 393.987062 124.063357 
L 393.987062 123.556772 
L 394.567079 123.556772 
L 394.567079 124.151812 
L 395.147096 124.151812 
L 395.147096 123.135401 
L 396.887146 123.12915 
L 396.887146 123.321644 
L 397.467163 123.321644 
L 397.467163 122.437442 
L 398.627197 122.345512 
L 398.627197 122.300878 
L 399.207213 122.300878 
L 399.207213 122.101377 
L 399.78723 122.101377 
L 399.78723 121.714061 
L 400.367247 121.714061 
L 400.367247 118.821554 
L 400.947264 118.821554 
L 400.947264 118.465121 
L 401.527281 118.465121 
L 401.527281 117.735832 
L 402.107298 117.735832 
L 402.107298 114.943912 
L 402.687314 114.943912 
L 402.687314 118.897084 
L 403.267331 118.897084 
L 403.267331 121.350498 
L 403.847348 121.350498 
L 403.847348 120.737376 
L 404.427365 120.737376 
L 404.427365 119.226443 
L 405.007382 119.226443 
L 405.007382 119.49774 
L 405.587399 119.49774 
L 405.587399 118.719036 
L 406.167416 118.719036 
L 406.167416 117.353805 
L 406.747432 117.353805 
L 406.747432 116.798248 
L 407.327449 116.798248 
L 407.327449 117.31474 
L 407.907466 117.31474 
L 407.907466 116.994925 
L 408.487483 116.994925 
L 408.487483 115.955138 
L 409.0675 115.955138 
L 409.0675 114.659904 
L 409.647517 114.659904 
L 409.647517 114.213252 
L 410.227533 114.213252 
L 410.227533 112.95463 
L 410.80755 112.95463 
L 410.80755 112.215352 
L 411.387567 112.215352 
L 411.387567 113.499741 
L 411.967584 113.499741 
L 411.967584 112.698917 
L 412.547601 112.698917 
L 412.547601 115.695677 
L 413.127618 115.695677 
L 413.127618 114.874691 
L 413.707634 114.874691 
L 413.707634 117.79883 
L 414.287651 117.79883 
L 414.287651 116.237835 
L 414.867668 116.237835 
L 414.867668 115.477701 
L 415.447685 115.477701 
L 415.447685 113.472205 
L 416.027702 113.472205 
L 416.027702 113.201232 
L 416.607719 113.201232 
L 416.607719 113.868202 
L 417.187735 113.868202 
L 417.187735 113.347262 
L 417.767752 113.347262 
L 417.767752 112.820031 
L 418.347769 112.820031 
L 418.347769 111.949557 
L 418.927786 111.949557 
L 418.927786 110.937153 
L 419.507803 110.937153 
L 419.507803 108.406962 
L 420.08782 108.406962 
L 420.08782 106.975718 
L 420.667836 106.975718 
L 420.667836 106.475211 
L 421.247853 106.475211 
L 421.247853 106.285513 
L 421.82787 106.285513 
L 421.82787 103.047775 
L 422.407887 103.047775 
L 422.407887 99.3059 
L 422.987904 99.3059 
L 422.987904 101.434165 
L 423.567921 101.434165 
L 423.567921 99.401745 
L 424.147937 99.401745 
L 424.147937 97.13193 
L 424.727954 97.13193 
L 424.727954 96.217978 
L 425.307971 96.217978 
L 425.307971 97.080942 
L 425.887988 97.080942 
L 425.887988 97.653341 
L 426.468005 97.653341 
L 426.468005 97.434209 
L 427.048022 97.434209 
L 427.048022 98.650574 
L 427.628038 98.650574 
L 427.628038 98.335587 
L 428.788072 98.27076 
L 428.788072 98.643931 
L 429.368089 98.643931 
L 429.368089 100.241902 
L 429.948106 100.241902 
L 429.948106 103.415545 
L 430.528123 103.415545 
L 430.528123 100.642127 
L 431.10814 100.642127 
L 431.10814 96.76984 
L 431.688156 96.76984 
L 431.688156 97.450487 
L 432.268173 97.450487 
L 432.268173 95.952053 
L 433.428207 95.996737 
L 433.428207 92.456833 
L 434.008224 92.456833 
L 434.008224 89.922675 
L 434.588241 89.922675 
L 434.588241 87.454791 
L 435.168257 87.454791 
L 435.168257 88.981725 
L 435.748274 88.981725 
L 435.748274 87.657344 
L 436.328291 87.657344 
L 436.328291 87.450855 
L 436.908308 87.450855 
L 436.908308 85.15428 
L 437.488325 85.15428 
L 437.488325 87.412634 
L 438.068342 87.412634 
L 438.068342 87.661505 
L 438.648358 87.661505 
L 438.648358 89.939767 
L 439.228375 89.939767 
L 439.228375 90.931296 
L 439.808392 90.931296 
L 439.808392 91.358385 
L 440.388409 91.358385 
L 440.388409 89.596785 
L 440.968426 89.596785 
L 440.968426 88.44718 
L 441.548443 88.44718 
L 441.548443 87.766017 
L 442.128459 87.766017 
L 442.128459 87.165508 
L 442.708476 87.165508 
L 442.708476 85.509309 
L 443.288493 85.509309 
L 443.288493 82.188887 
L 444.448527 82.169648 
L 444.448527 81.46695 
L 445.028544 81.46695 
L 445.028544 81.91558 
L 445.60856 81.91558 
L 445.60856 79.789478 
L 446.188577 79.789478 
L 446.188577 77.024161 
L 446.768594 77.024161 
L 446.768594 76.747511 
L 447.348611 76.747511 
L 447.348611 81.502657 
L 447.928628 81.502657 
L 447.928628 75.7017 
L 448.508645 75.7017 
L 448.508645 74.771576 
L 449.668678 74.844677 
L 449.668678 71.064047 
L 450.248695 71.064047 
L 450.248695 69.151492 
L 450.828712 69.151492 
L 450.828712 64.386582 
L 451.408729 64.386582 
L 451.408729 62.688359 
L 451.988746 62.688359 
L 451.988746 60.983079 
L 452.568763 60.983079 
L 452.568763 58.138856 
L 453.148779 58.138856 
L 453.148779 64.484215 
L 453.728796 64.484215 
L 453.728796 61.894793 
L 454.308813 61.894793 
L 454.308813 66.252362 
L 454.88883 66.252362 
L 454.88883 62.727887 
L 455.468847 62.727887 
L 455.468847 61.247552 
L 456.048864 61.247552 
L 456.048864 65.211162 
L 456.62888 65.211162 
L 456.62888 64.810286 
L 457.208897 64.810286 
L 457.208897 68.090569 
L 457.788914 68.090569 
L 457.788914 69.30141 
L 458.368931 69.30141 
L 458.368931 68.221789 
L 458.948948 68.221789 
L 458.948948 70.49668 
L 459.528965 70.49668 
L 459.528965 74.870838 
L 460.688998 74.766061 
L 460.688998 73.244809 
L 461.269015 73.244809 
L 461.269015 70.546677 
L 461.849032 70.546677 
L 461.849032 68.549271 
L 462.429049 68.549271 
L 462.429049 71.511708 
L 463.009066 71.511708 
L 463.009066 70.246729 
L 463.589082 70.246729 
L 463.589082 68.072613 
L 464.169099 68.072613 
L 464.169099 72.301956 
L 464.749116 72.301956 
L 464.749116 72.724154 
L 465.329133 72.724154 
L 465.329133 74.638186 
L 465.90915 74.638186 
L 465.90915 73.212796 
L 466.489167 73.212796 
L 466.489167 74.076805 
L 467.069183 74.076805 
L 467.069183 75.494465 
L 467.6492 75.494465 
L 467.6492 78.54452 
L 468.229217 78.54452 
L 468.229217 78.664803 
L 469.389251 78.671444 
L 469.389251 75.634412 
L 470.549284 75.604146 
L 470.549284 73.16643 
L 471.129301 73.16643 
L 471.129301 73.302485 
L 471.709318 73.302485 
L 471.709318 72.143847 
L 472.289335 72.143847 
L 472.289335 71.401356 
L 472.869352 71.401356 
L 472.869352 72.206257 
L 473.449369 72.206257 
L 473.449369 74.400786 
L 474.029385 74.400786 
L 474.029385 74.224505 
L 474.609402 74.224505 
L 474.609402 74.773374 
L 475.189419 74.773374 
L 475.189419 76.631272 
L 475.769436 76.631272 
L 475.769436 77.082516 
L 476.349453 77.082516 
L 476.349453 76.690684 
L 477.509487 76.675153 
L 477.509487 76.356856 
L 478.089503 76.356856 
L 478.089503 79.366528 
L 478.66952 79.366528 
L 478.66952 79.564088 
L 479.249537 79.564088 
L 479.249537 78.741178 
L 479.829554 78.741178 
L 479.829554 80.614853 
L 480.409571 80.614853 
L 480.409571 81.543299 
L 480.989588 81.543299 
L 480.989588 79.143313 
L 482.149621 79.136816 
L 482.149621 80.062286 
L 482.729638 80.062286 
L 482.729638 80.318434 
L 483.309655 80.318434 
L 483.309655 77.010244 
L 484.469689 76.91388 
L 484.469689 75.52169 
L 485.049705 75.52169 
L 485.049705 74.945626 
L 485.629722 74.945626 
L 485.629722 76.891962 
L 486.209739 76.891962 
L 486.209739 78.867778 
L 486.789756 78.867778 
L 486.789756 80.385824 
L 487.369773 80.385824 
L 487.369773 80.248587 
L 487.94979 80.248587 
L 487.94979 79.570571 
L 488.529806 79.570571 
L 488.529806 79.449344 
L 489.109823 79.449344 
L 489.109823 78.329421 
L 489.68984 78.329421 
L 489.68984 77.991228 
L 490.269857 77.991228 
L 490.269857 77.042659 
L 490.849874 77.042659 
L 490.849874 80.52715 
L 491.429891 80.52715 
L 491.429891 80.07251 
L 492.009907 80.07251 
L 492.009907 79.537282 
L 493.169941 79.541444 
L 493.169941 79.273675 
L 493.749958 79.273675 
L 493.749958 79.136604 
L 494.329975 79.136604 
L 494.329975 79.463621 
L 494.909992 79.463621 
L 494.909992 79.303603 
L 496.070025 79.280917 
L 496.070025 80.266194 
L 496.650042 80.266194 
L 496.650042 79.499587 
L 497.810076 79.548012 
L 497.810076 79.615114 
L 498.390093 79.615114 
L 498.390093 80.150007 
L 498.970109 80.150007 
L 498.970109 79.961184 
L 499.550126 79.961184 
L 499.550126 79.416011 
L 500.130143 79.416011 
L 500.130143 79.813029 
L 500.71016 79.813029 
L 500.71016 82.305209 
L 501.290177 82.305209 
L 501.290177 85.39909 
L 501.870194 85.39909 
L 501.870194 87.559515 
L 502.450211 87.559515 
L 502.450211 90.131213 
L 503.030227 90.131213 
L 503.030227 88.332941 
L 503.610244 88.332941 
L 503.610244 90.572721 
L 504.190261 90.572721 
L 504.190261 91.42792 
L 504.770278 91.42792 
L 504.770278 93.057066 
L 505.350295 93.057066 
L 505.350295 91.606765 
L 505.930312 91.606765 
L 505.930312 89.761224 
L 506.510328 89.761224 
L 506.510328 90.1675 
L 507.090345 90.1675 
L 507.090345 90.437443 
L 507.670362 90.437443 
L 507.670362 89.600198 
L 508.250379 89.600198 
L 508.250379 88.897089 
L 508.830396 88.897089 
L 508.830396 91.107828 
L 509.410413 91.107828 
L 509.410413 90.9098 
L 509.990429 90.9098 
L 509.990429 91.220862 
L 510.570446 91.220862 
L 510.570446 91.434005 
L 511.73048 91.495794 
L 511.73048 92.100143 
L 512.890514 92.180998 
L 512.890514 92.539203 
L 513.47053 92.539203 
L 513.47053 91.200213 
L 514.050547 91.200213 
L 514.050547 91.317933 
L 514.630564 91.317933 
L 514.630564 89.624566 
L 515.210581 89.624566 
L 515.210581 88.566187 
L 515.790598 88.566187 
L 515.790598 90.106222 
L 516.950631 90.203906 
L 516.950631 89.828152 
L 518.110665 89.857701 
L 518.110665 89.573775 
L 518.690682 89.573775 
L 518.690682 89.108037 
L 520.430732 89.011831 
L 520.430732 88.689654 
L 521.010749 88.689654 
L 521.010749 85.142736 
L 521.590766 85.142736 
L 521.590766 83.735537 
L 522.170783 83.735537 
L 522.170783 84.49428 
L 522.7508 84.49428 
L 522.7508 84.01136 
L 523.330817 84.01136 
L 523.330817 83.581903 
L 523.910834 83.581903 
L 523.910834 83.116151 
L 524.49085 83.116151 
L 524.49085 83.612067 
L 525.070867 83.612067 
L 525.070867 83.279093 
L 525.650884 83.279093 
L 525.650884 82.21431 
L 526.230901 82.21431 
L 526.230901 80.00304 
L 526.810918 80.00304 
L 526.810918 75.388739 
L 527.390935 75.388739 
L 527.390935 77.300523 
L 527.970951 77.300523 
L 527.970951 76.329549 
L 528.550968 76.329549 
L 528.550968 73.588391 
L 529.130985 73.588391 
L 529.130985 74.699661 
L 529.711002 74.699661 
L 529.711002 75.035462 
L 530.291019 75.035462 
L 530.291019 75.374711 
L 530.871036 75.374711 
L 530.871036 75.577846 
L 531.451052 75.577846 
L 531.451052 73.326593 
L 532.031069 73.326593 
L 532.031069 72.394101 
L 532.611086 72.394101 
L 532.611086 69.332889 
L 533.191103 69.332889 
L 533.191103 68.751771 
L 533.77112 68.751771 
L 533.77112 69.774352 
L 534.351137 69.774352 
L 534.351137 69.074026 
L 534.931153 69.074026 
L 534.931153 66.293311 
L 535.51117 66.293311 
L 535.51117 68.295987 
L 536.091187 68.295987 
L 536.091187 71.56439 
L 536.671204 71.56439 
L 536.671204 69.757906 
L 537.251221 69.757906 
L 537.251221 71.152746 
L 537.831238 71.152746 
L 537.831238 71.925688 
L 538.411254 71.925688 
L 538.411254 69.867663 
L 538.991271 69.867663 
L 538.991271 68.161783 
L 539.571288 68.161783 
L 539.571288 68.484832 
L 540.151305 68.484832 
L 540.151305 70.867214 
L 540.731322 70.867214 
L 540.731322 70.274935 
L 541.311339 70.274935 
L 541.311339 70.678119 
L 541.891355 70.678119 
L 541.891355 70.192254 
L 542.471372 70.192254 
L 542.471372 71.764738 
L 543.051389 71.764738 
L 543.051389 69.693916 
L 543.631406 69.693916 
L 543.631406 69.948362 
L 544.211423 69.948362 
L 544.211423 70.584572 
L 544.79144 70.584572 
L 544.79144 70.288858 
L 545.951473 70.356086 
L 545.951473 71.545559 
L 546.53149 71.545559 
L 546.53149 74.890773 
L 547.111507 74.890773 
L 547.111507 74.577861 
L 547.691524 74.577861 
L 547.691524 75.004046 
L 548.271541 75.004046 
L 548.271541 73.950094 
L 548.851558 73.950094 
L 548.851558 74.67232 
L 549.431574 74.67232 
L 549.431574 75.179121 
L 550.011591 75.179121 
L 550.011591 74.820938 
L 550.591608 74.820938 
L 550.591608 73.766993 
L 551.171625 73.766993 
L 551.171625 72.069504 
L 551.751642 72.069504 
L 551.751642 72.352109 
L 552.911675 72.261529 
L 552.911675 72.928951 
L 553.491692 72.928951 
L 553.491692 73.846811 
L 554.071709 73.846811 
L 554.071709 74.9346 
L 554.651726 74.9346 
L 554.651726 77.241888 
L 555.231743 77.241888 
L 555.231743 77.582093 
L 555.81176 77.582093 
L 555.81176 76.509502 
L 556.391776 76.509502 
L 556.391776 77.500563 
L 556.971793 77.500563 
L 556.971793 76.603349 
L 557.55181 76.603349 
L 557.55181 77.510841 
L 558.131827 77.510841 
L 558.131827 78.392555 
L 558.711844 78.392555 
L 558.711844 77.508027 
L 559.291861 77.508027 
L 559.291861 77.34015 
L 559.871877 77.34015 
L 559.871877 77.201466 
L 560.451894 77.201466 
L 560.451894 77.548431 
L 561.031911 77.548431 
L 561.031911 77.063409 
L 561.611928 77.063409 
L 561.611928 75.83155 
L 562.191945 75.83155 
L 562.191945 75.10867 
L 562.771962 75.10867 
L 562.771962 73.23441 
L 563.351978 73.23441 
L 563.351978 73.639212 
L 563.931995 73.639212 
L 563.931995 74.56718 
L 564.512012 74.56718 
L 564.512012 72.398179 
L 565.672046 72.323318 
L 565.672046 71.396613 
L 566.252063 71.396613 
L 566.252063 71.194123 
L 566.832079 71.194123 
L 566.832079 70.176312 
L 567.412096 70.176312 
L 567.412096 70.542565 
L 567.992113 70.542565 
L 567.992113 71.574019 
L 568.57213 71.574019 
L 568.57213 73.494474 
L 569.152147 73.494474 
L 569.152147 74.075843 
L 569.732164 74.075843 
L 569.732164 72.861976 
L 570.312181 72.861976 
L 570.312181 75.541553 
L 570.892197 75.541553 
L 570.892197 82.481896 
L 571.472214 82.481896 
L 571.472214 83.400408 
L 572.052231 83.400408 
L 572.052231 80.508406 
L 572.632248 80.508406 
L 572.632248 78.926804 
L 573.212265 78.926804 
L 573.212265 81.518543 
L 573.792282 81.518543 
L 573.792282 78.598658 
L 574.372298 78.598658 
L 574.372298 77.086225 
L 574.952315 77.086225 
L 574.952315 78.410905 
L 576.112349 78.414665 
L 576.112349 77.316215 
L 576.692366 77.316215 
L 576.692366 77.673559 
L 577.272383 77.673559 
L 577.272383 76.13785 
L 577.852399 76.13785 
L 577.852399 73.855049 
L 578.432416 73.855049 
L 578.432416 73.266863 
L 579.012433 73.266863 
L 579.012433 71.261284 
L 579.59245 71.261284 
L 579.59245 73.428447 
L 580.172467 73.428447 
L 580.172467 72.17093 
L 580.752484 72.17093 
L 580.752484 71.906009 
L 581.3325 71.906009 
L 581.3325 73.619772 
L 581.912517 73.619772 
L 581.912517 71.783106 
L 582.492534 71.783106 
L 582.492534 70.496229 
L 583.072551 70.496229 
L 583.072551 71.669276 
L 583.652568 71.669276 
L 583.652568 71.356639 
L 584.232585 71.356639 
L 584.232585 71.984439 
L 585.392618 72.023993 
L 585.392618 72.387456 
L 586.552652 72.482444 
L 586.552652 72.603098 
L 587.132669 72.603098 
L 587.132669 72.850869 
L 587.712686 72.850869 
L 587.712686 72.449137 
L 588.872719 72.493046 
L 588.872719 72.585313 
L 590.032753 72.539289 
L 590.032753 71.691432 
L 590.61277 71.691432 
L 590.61277 68.915161 
L 591.192787 68.915161 
L 591.192787 68.375669 
L 591.772803 68.375669 
L 591.772803 68.641612 
L 592.35282 68.641612 
L 592.35282 67.641184 
L 592.932837 67.641184 
L 592.932837 67.974976 
L 593.512854 67.974976 
L 593.512854 67.393529 
L 594.672888 67.474705 
L 594.672888 67.647431 
L 595.252905 67.647431 
L 595.252905 68.041473 
L 595.832921 68.041473 
L 595.832921 67.378001 
L 596.412938 67.378001 
L 596.412938 70.58398 
L 596.992955 70.58398 
L 596.992955 70.44996 
L 597.572972 70.44996 
L 597.572972 70.249385 
L 598.152989 70.249385 
L 598.152989 69.094641 
L 598.733006 69.094641 
L 598.733006 70.057038 
L 599.313022 70.057038 
L 599.313022 69.559446 
L 599.893039 69.559446 
L 599.893039 69.284203 
L 600.473056 69.284203 
L 600.473056 69.825442 
L 601.053073 69.825442 
L 601.053073 69.600771 
L 601.63309 69.600771 
L 601.63309 68.317964 
L 602.213107 68.317964 
L 602.213107 68.095408 
L 602.793123 68.095408 
L 602.793123 67.657258 
L 603.37314 67.657258 
L 603.37314 65.731997 
L 603.953157 65.731997 
L 603.953157 64.666977 
L 604.533174 64.666977 
L 604.533174 64.435267 
L 605.113191 64.435267 
L 605.113191 63.940689 
L 605.693208 63.940689 
L 605.693208 62.135626 
L 606.273224 62.135626 
L 606.273224 61.120974 
L 606.853241 61.120974 
L 606.853241 60.599822 
L 607.433258 60.599822 
L 607.433258 58.377865 
L 608.013275 58.377865 
L 608.013275 57.864613 
L 608.593292 57.864613 
L 608.593292 59.428523 
L 609.173309 59.428523 
L 609.173309 57.807812 
L 609.753325 57.807812 
L 609.753325 57.651451 
L 610.333342 57.651451 
L 610.333342 58.854746 
L 610.913359 58.854746 
L 610.913359 57.75619 
L 611.493376 57.75619 
L 611.493376 54.088183 
L 612.073393 54.088183 
L 612.073393 53.513237 
L 612.65341 53.513237 
L 612.65341 51.424957 
L 613.233426 51.424957 
L 613.233426 49.67567 
L 613.813443 49.67567 
L 613.813443 46.987963 
L 614.39346 46.987963 
L 614.39346 43.394493 
L 614.973477 43.394493 
L 614.973477 45.500499 
L 615.553494 45.500499 
L 615.553494 44.789986 
L 616.133511 44.789986 
L 616.133511 45.234515 
L 616.713527 45.234515 
L 616.713527 47.542422 
L 617.293544 47.542422 
L 617.293544 48.619465 
L 617.873561 48.619465 
L 617.873561 46.905785 
L 618.453578 46.905785 
L 618.453578 44.695814 
L 619.033595 44.695814 
L 619.033595 40.178232 
L 619.613612 40.178232 
L 619.613612 39.705602 
L 620.193629 39.705602 
L 620.193629 39.005501 
L 620.773645 39.005501 
L 620.773645 36.395945 
L 621.353662 36.395945 
L 621.353662 38.417457 
L 621.933679 38.417457 
L 621.933679 40.725796 
L 622.513696 40.725796 
L 622.513696 39.297369 
L 623.093713 39.297369 
L 623.093713 37.765699 
L 623.67373 37.765699 
L 623.67373 35.953074 
L 624.253746 35.953074 
L 624.253746 36.086768 
L 624.833763 36.086768 
L 624.833763 35.663934 
L 625.41378 35.663934 
L 625.41378 37.685858 
L 625.993797 37.685858 
L 625.993797 36.473881 
L 626.573814 36.473881 
L 626.573814 35.440669 
L 627.733847 35.332804 
L 627.733847 35.658149 
L 628.313864 35.658149 
L 628.313864 33.861839 
L 628.893881 33.861839 
L 628.893881 34.985486 
L 629.473898 34.985486 
L 629.473898 37.195813 
L 630.053915 37.195813 
L 630.053915 39.039965 
L 630.633932 39.039965 
L 630.633932 37.279608 
L 631.213948 37.279608 
L 631.213948 35.967055 
L 632.373982 35.908699 
L 632.373982 36.129913 
L 632.953999 36.129913 
L 632.953999 40.018055 
L 633.534016 40.018055 
L 633.534016 44.716296 
L 634.114033 44.716296 
L 634.114033 45.950896 
L 634.694049 45.950896 
L 634.694049 43.92948 
L 635.274066 43.92948 
L 635.274066 44.529546 
L 635.854083 44.529546 
L 635.854083 44.759016 
L 636.4341 44.759016 
L 636.4341 46.717049 
L 637.014117 46.717049 
L 637.014117 45.528715 
L 637.594134 45.528715 
L 637.594134 43.992313 
L 638.17415 43.992313 
L 638.17415 45.473802 
L 638.754167 45.473802 
L 638.754167 46.017372 
L 639.914201 46.123296 
L 639.914201 46.475019 
L 640.494218 46.475019 
L 640.494218 46.266602 
L 641.074235 46.266602 
L 641.074235 46.67794 
L 641.654252 46.67794 
L 641.654252 47.101272 
L 642.234268 47.101272 
L 642.234268 47.740726 
L 642.814285 47.740726 
L 642.814285 47.419166 
L 643.394302 47.419166 
L 643.394302 44.525467 
L 643.974319 44.525467 
L 643.974319 42.05641 
L 644.554336 42.05641 
L 644.554336 44.090211 
L 645.134353 44.090211 
L 645.134353 40.939943 
L 645.714369 40.939943 
L 645.714369 40.506118 
L 646.294386 40.506118 
L 646.294386 39.881461 
L 646.874403 39.881461 
L 646.874403 40.018882 
L 647.45442 40.018882 
L 647.45442 38.85799 
L 648.034437 38.85799 
L 648.034437 39.047607 
L 648.614454 39.047607 
L 648.614454 39.839172 
L 649.19447 39.839172 
L 649.19447 38.68729 
L 649.774487 38.68729 
L 649.774487 40.302128 
L 650.934521 40.310502 
L 650.934521 39.573617 
L 651.514538 39.573617 
L 651.514538 41.732892 
L 652.674571 41.773082 
L 652.674571 42.635465 
L 653.254588 42.635465 
L 653.254588 39.598009 
L 653.834605 39.598009 
L 653.834605 36.632468 
L 654.414622 36.632468 
L 654.414622 36.894017 
L 654.994639 36.894017 
L 654.994639 35.902602 
L 655.574656 35.902602 
L 655.574656 34.366979 
L 656.154672 34.366979 
L 656.154672 34.783191 
L 656.734689 34.783191 
L 656.734689 34.899645 
L 657.314706 34.899645 
L 657.314706 34.444793 
L 657.894723 34.444793 
L 657.894723 34.051689 
L 659.054757 33.94433 
L 659.054757 33.461115 
L 659.634773 33.461115 
L 659.634773 33.852447 
L 660.21479 33.852447 
L 660.21479 35.647658 
L 660.794807 35.647658 
L 660.794807 35.839723 
L 661.374824 35.839723 
L 661.374824 36.829806 
L 661.954841 36.829806 
L 661.954841 35.961304 
L 662.534858 35.961304 
L 662.534858 38.915935 
L 663.114874 38.915935 
L 663.114874 39.626322 
L 663.694891 39.626322 
L 663.694891 40.009268 
L 664.274908 40.009268 
L 664.274908 40.260821 
L 664.854925 40.260821 
L 664.854925 39.097597 
L 665.434942 39.097597 
L 665.434942 38.478457 
L 666.014959 38.478457 
L 666.014959 40.158988 
L 666.594976 40.158988 
L 666.594976 39.766251 
L 667.174992 39.766251 
L 667.174992 41.630879 
L 667.755009 41.630879 
L 667.755009 42.230411 
L 668.335026 42.230411 
L 668.335026 41.640756 
L 668.915043 41.640756 
L 668.915043 41.977176 
L 669.49506 41.977176 
L 669.49506 45.769103 
L 670.075077 45.769103 
L 670.075077 44.792716 
L 670.655093 44.792716 
L 670.655093 44.205754 
L 671.23511 44.205754 
L 671.23511 44.64699 
L 671.815127 44.64699 
L 671.815127 41.302234 
L 672.395144 41.302234 
L 672.395144 41.967826 
L 672.975161 41.967826 
L 672.975161 40.983936 
L 673.555178 40.983936 
L 673.555178 43.077952 
L 674.135194 43.077952 
L 674.135194 44.53978 
L 674.715211 44.53978 
L 674.715211 44.319141 
L 675.295228 44.319141 
L 675.295228 41.938028 
L 675.875245 41.938028 
L 675.875245 44.145692 
L 676.455262 44.145692 
L 676.455262 43.775993 
L 677.035279 43.775993 
L 677.035279 43.478474 
L 677.615295 43.478474 
L 677.615295 42.052534 
L 678.195312 42.052534 
L 678.195312 41.731258 
L 678.775329 41.731258 
L 678.775329 39.965862 
L 679.355346 39.965862 
L 679.355346 40.537864 
L 679.935363 40.537864 
L 679.935363 40.071832 
L 680.51538 40.071832 
L 680.51538 42.025693 
L 681.095396 42.025693 
L 681.095396 43.084369 
L 681.675413 43.084369 
L 681.675413 42.941748 
L 682.25543 42.941748 
L 682.25543 42.458177 
L 682.835447 42.458177 
L 682.835447 43.404879 
L 683.415464 43.404879 
L 683.415464 43.250954 
L 683.995481 43.250954 
L 683.995481 43.895458 
L 684.575497 43.895458 
L 684.575497 45.238463 
L 685.155514 45.238463 
L 685.155514 48.238099 
L 685.735531 48.238099 
L 685.735531 48.847626 
L 686.315548 48.847626 
L 686.315548 49.797937 
L 686.895565 49.797937 
L 686.895565 48.712009 
L 687.475582 48.712009 
L 687.475582 49.442895 
L 688.055598 49.442895 
L 688.055598 47.783566 
L 688.635615 47.783566 
L 688.635615 49.110975 
L 689.215632 49.110975 
L 689.215632 48.164653 
L 689.795649 48.164653 
L 689.795649 50.034292 
L 690.375666 50.034292 
L 690.375666 54.614113 
L 690.955683 54.614113 
L 690.955683 56.484341 
L 691.5357 56.484341 
L 691.5357 55.957072 
L 692.115716 55.957072 
L 692.115716 56.327142 
L 692.695733 56.327142 
L 692.695733 57.808094 
L 693.27575 57.808094 
L 693.27575 56.836968 
L 693.855767 56.836968 
L 693.855767 55.493026 
L 694.435784 55.493026 
L 694.435784 56.795548 
L 695.015801 56.795548 
L 695.015801 56.257605 
L 695.595817 56.257605 
L 695.595817 54.085329 
L 696.175834 54.085329 
L 696.175834 55.756335 
L 696.755851 55.756335 
L 696.755851 53.54099 
L 697.335868 53.54099 
L 697.335868 54.234946 
L 698.495902 54.265105 
L 698.495902 53.400127 
L 699.075918 53.400127 
L 699.075918 53.105575 
L 699.655935 53.105575 
L 699.655935 54.050844 
L 700.235952 54.050844 
L 700.235952 55.660458 
L 700.815969 55.660458 
L 700.815969 56.786013 
L 701.395986 56.786013 
L 701.395986 57.226672 
L 702.556019 57.184298 
L 702.556019 57.752564 
L 703.136036 57.752564 
L 703.136036 55.297323 
L 703.716053 55.297323 
L 703.716053 57.326421 
L 704.29607 57.326421 
L 704.29607 57.482101 
L 704.876087 57.482101 
L 704.876087 57.752045 
L 705.456104 57.752045 
L 705.456104 57.935388 
L 706.03612 57.935388 
L 706.03612 57.716642 
L 706.616137 57.716642 
L 706.616137 56.850985 
L 707.196154 56.850985 
L 707.196154 57.585183 
L 708.936205 57.475163 
L 708.936205 57.865846 
L 709.516221 57.865846 
L 709.516221 56.917156 
L 710.096238 56.917156 
L 710.096238 56.21722 
L 710.676255 56.21722 
L 710.676255 56.864695 
L 711.256272 56.864695 
L 711.256272 56.117241 
L 711.836289 56.117241 
L 711.836289 59.63537 
L 712.416306 59.63537 
L 712.416306 60.764787 
L 712.996323 60.764787 
L 712.996323 60.650097 
L 713.576339 60.650097 
L 713.576339 61.245276 
L 714.156356 61.245276 
L 714.156356 60.927835 
L 714.736373 60.927835 
L 714.736373 60.073343 
L 717.05644 60.031104 
L 717.05644 60.70494 
L 717.636457 60.70494 
L 717.636457 60.386024 
L 718.796491 60.465016 
L 718.796491 60.823651 
L 719.956525 60.73372 
L 719.956525 60.478926 
L 720.536541 60.478926 
L 720.536541 60.048338 
L 721.116558 60.048338 
L 721.116558 57.085162 
L 721.696575 57.085162 
L 721.696575 55.903123 
L 722.276592 55.903123 
L 722.276592 54.418161 
L 722.856609 54.418161 
L 722.856609 54.14107 
L 723.436626 54.14107 
L 723.436626 53.571445 
L 724.016642 53.571445 
L 724.016642 53.827217 
L 724.596659 53.827217 
L 724.596659 54.425867 
L 725.176676 54.425867 
L 725.176676 55.441172 
L 725.756693 55.441172 
L 725.756693 54.917476 
L 726.33671 54.917476 
L 726.33671 52.837973 
L 726.916727 52.837973 
L 726.916727 53.2123 
L 727.496743 53.2123 
L 727.496743 53.734608 
L 728.656777 53.816161 
L 728.656777 54.738995 
L 729.236794 54.738995 
L 729.236794 56.794399 
L 729.816811 56.794399 
L 729.816811 52.73621 
L 730.396828 52.73621 
L 730.396828 51.025874 
L 730.976844 51.025874 
L 730.976844 50.78166 
L 731.556861 50.78166 
L 731.556861 50.279327 
L 732.716895 50.255579 
L 732.716895 50.421182 
L 733.876929 50.332539 
L 733.876929 48.741108 
L 735.036962 48.685316 
L 735.036962 49.694433 
L 735.616979 49.694433 
L 735.616979 50.574259 
L 736.196996 50.574259 
L 736.196996 49.247346 
L 736.777013 49.247346 
L 736.777013 50.217327 
L 737.35703 50.217327 
L 737.35703 49.209993 
L 737.937047 49.209993 
L 737.937047 50.538329 
L 738.517063 50.538329 
L 738.517063 51.167033 
L 739.09708 51.167033 
L 739.09708 50.714329 
L 739.677097 50.714329 
L 739.677097 51.189006 
L 740.257114 51.189006 
L 740.257114 51.39916 
L 740.837131 51.39916 
L 740.837131 50.462698 
L 741.417148 50.462698 
L 741.417148 50.821593 
L 742.577181 50.827687 
L 742.577181 51.877199 
L 743.157198 51.877199 
L 743.157198 52.447519 
L 743.737215 52.447519 
L 743.737215 51.505504 
L 744.317232 51.505504 
L 744.317232 48.961751 
L 744.897249 48.961751 
L 744.897249 48.720107 
L 745.477265 48.720107 
L 745.477265 48.585039 
L 746.057282 48.585039 
L 746.057282 48.386622 
L 746.637299 48.386622 
L 746.637299 48.754646 
L 747.217316 48.754646 
L 747.217316 48.637599 
L 748.37735 48.737598 
L 748.37735 49.029808 
L 748.957366 49.029808 
L 748.957366 49.453532 
L 750.1174 49.359234 
L 750.1174 49.109726 
L 750.697417 49.109726 
L 750.697417 49.543249 
L 751.277434 49.543249 
L 751.277434 49.189362 
L 751.857451 49.189362 
L 751.857451 49.3813 
L 752.437467 49.3813 
L 752.437467 51.259884 
L 753.017484 51.259884 
L 753.017484 51.668657 
L 754.177518 51.725466 
L 754.177518 50.472396 
L 754.757535 50.472396 
L 754.757535 51.864599 
L 756.497585 51.8927 
L 756.497585 51.354783 
L 757.077602 51.354783 
L 757.077602 51.183624 
L 757.657619 51.183624 
L 757.657619 51.320214 
L 758.237636 51.320214 
L 758.237636 51.600224 
L 758.817653 51.600224 
L 758.817653 51.029557 
L 759.39767 51.029557 
L 759.39767 50.424546 
L 760.557703 50.324199 
L 760.557703 51.187441 
L 761.13772 51.187441 
L 761.13772 49.912545 
L 761.717737 49.912545 
L 761.717737 49.110408 
L 762.297754 49.110408 
L 762.297754 46.447949 
L 763.457787 46.337173 
L 763.457787 45.559429 
L 764.037804 45.559429 
L 764.037804 45.782288 
L 764.617821 45.782288 
L 764.617821 44.862049 
L 766.357872 44.901357 
L 766.357872 45.352285 
L 766.937888 45.352285 
L 766.937888 44.268009 
L 768.097922 44.232842 
L 768.097922 43.147477 
L 768.677939 43.147477 
L 768.677939 41.548339 
L 769.257956 41.548339 
L 769.257956 42.524837 
L 769.837973 42.524837 
L 769.837973 42.189432 
L 770.417989 42.189432 
L 770.417989 42.033426 
L 770.998006 42.033426 
L 770.998006 41.344173 
L 771.578023 41.344173 
L 771.578023 41.468907 
L 772.15804 41.468907 
L 772.15804 42.039555 
L 772.738057 42.039555 
L 772.738057 41.140191 
L 773.318074 41.140191 
L 773.318074 39.917241 
L 773.89809 39.917241 
L 773.89809 41.759791 
L 774.478107 41.759791 
L 774.478107 41.625413 
L 775.058124 41.625413 
L 775.058124 42.321358 
L 775.638141 42.321358 
L 775.638141 43.101212 
L 776.218158 43.101212 
L 776.218158 42.143586 
L 776.798175 42.143586 
L 776.798175 41.65852 
L 777.378191 41.65852 
L 777.378191 41.849134 
L 777.958208 41.849134 
L 777.958208 39.848234 
L 778.538225 39.848234 
L 778.538225 38.770928 
L 779.118242 38.770928 
L 779.118242 38.002222 
L 780.858292 37.985794 
L 780.858292 34.626921 
L 781.438309 34.626921 
L 781.438309 32.39675 
L 782.598343 32.41749 
L 782.598343 31.505466 
L 783.17836 31.505466 
L 783.17836 33.318032 
L 783.758377 33.318032 
L 783.758377 32.549792 
L 784.338394 32.549792 
L 784.338394 32.736864 
L 784.91841 32.736864 
L 784.91841 31.712319 
L 785.498427 31.712319 
L 785.498427 32.012747 
L 786.078444 32.012747 
L 786.078444 32.549721 
L 786.658461 32.549721 
L 786.658461 32.174183 
L 787.238478 32.174183 
L 787.238478 33.715737 
L 787.818495 33.715737 
L 787.818495 34.591585 
L 788.398511 34.591585 
L 788.398511 33.426862 
L 788.978528 33.426862 
L 788.978528 33.570305 
L 789.558545 33.570305 
L 789.558545 33.774332 
L 790.138562 33.774332 
L 790.138562 34.073841 
L 790.718579 34.073841 
L 790.718579 34.253605 
L 791.298596 34.253605 
L 791.298596 34.747348 
L 791.878612 34.747348 
L 791.878612 33.033161 
L 793.038646 33.025017 
L 793.038646 32.524704 
L 793.618663 32.524704 
L 793.618663 32.106969 
L 794.19868 32.106969 
L 794.19868 32.659967 
L 794.778697 32.659967 
L 794.778697 31.769425 
L 795.358713 31.769425 
L 795.358713 32.128992 
L 795.93873 32.128992 
L 795.93873 32.437178 
L 796.518747 32.437178 
L 796.518747 32.913262 
L 797.098764 32.913262 
L 797.098764 33.463747 
L 797.678781 33.463747 
L 797.678781 34.92144 
L 798.838814 34.909438 
L 798.838814 34.348633 
L 799.418831 34.348633 
L 799.418831 35.602153 
L 799.998848 35.602153 
L 799.998848 35.782448 
L 800.578865 35.782448 
L 800.578865 34.749858 
L 801.158882 34.749858 
L 801.158882 33.73174 
L 801.738899 33.73174 
L 801.738899 32.626657 
L 802.898932 32.532774 
L 802.898932 33.051048 
L 803.478949 33.051048 
L 803.478949 34.789917 
L 804.058966 34.789917 
L 804.058966 36.745077 
L 804.638983 36.745077 
L 804.638983 35.447462 
L 805.219 35.447462 
L 805.219 35.858777 
L 805.799016 35.858777 
L 805.799016 35.190253 
L 806.379033 35.190253 
L 806.379033 33.696253 
L 806.95905 33.696253 
L 806.95905 35.193314 
L 807.539067 35.193314 
L 807.539067 35.361718 
L 808.119084 35.361718 
L 808.119084 35.705012 
L 808.699101 35.705012 
L 808.699101 36.809342 
L 809.279118 36.809342 
L 809.279118 35.64646 
L 810.439151 35.626323 
L 810.439151 33.969671 
L 811.019168 33.969671 
L 811.019168 33.634778 
L 811.599185 33.634778 
L 811.599185 33.139462 
L 812.179202 33.139462 
L 812.179202 34.802204 
L 812.759219 34.802204 
L 812.759219 34.096256 
L 813.339235 34.096256 
L 813.339235 34.924862 
L 813.919252 34.924862 
L 813.919252 33.090867 
L 814.499269 33.090867 
L 814.499269 32.38254 
L 815.079286 32.38254 
L 815.079286 32.694641 
L 816.23932 32.798795 
L 816.23932 31.27132 
L 816.819336 31.27132 
L 816.819336 32.289673 
L 817.399353 32.289673 
L 817.399353 30.299405 
L 817.97937 30.299405 
L 817.97937 27.180553 
L 818.559387 27.180553 
L 818.559387 26.658369 
L 819.139404 26.658369 
L 819.139404 26.373116 
L 819.719421 26.373116 
L 819.719421 25.233636 
L 820.299437 25.233636 
L 820.299437 25.609949 
L 820.879454 25.609949 
L 820.879454 25.337003 
L 822.619505 25.297523 
L 822.619505 24.491571 
L 823.199522 24.491571 
L 823.199522 23.586855 
L 823.779538 23.586855 
L 823.779538 25.346699 
L 824.359555 25.346699 
L 824.359555 24.924032 
L 824.939572 24.924032 
L 824.939572 26.121666 
L 825.519589 26.121666 
L 825.519589 25.423666 
L 826.099606 25.423666 
L 826.099606 24.337063 
L 826.679623 24.337063 
L 826.679623 25.873486 
L 827.259639 25.873486 
L 827.259639 25.491296 
L 827.839656 25.491296 
L 827.839656 23.919231 
L 828.419673 23.919231 
L 828.419673 24.067841 
L 828.99969 24.067841 
L 828.99969 24.270709 
L 829.579707 24.270709 
L 829.579707 23.855056 
L 830.159724 23.855056 
L 830.159724 24.50199 
L 830.739741 24.50199 
L 830.739741 25.488483 
L 831.319757 25.488483 
L 831.319757 25.652782 
L 831.899774 25.652782 
L 831.899774 25.271223 
L 832.479791 25.271223 
L 832.479791 25.467314 
L 833.639825 25.543726 
L 833.639825 28.122026 
L 834.219842 28.122026 
L 834.219842 27.78511 
L 834.799858 27.78511 
L 834.799858 27.631272 
L 835.379875 27.631272 
L 835.379875 28.549278 
L 835.959892 28.549278 
L 835.959892 28.194622 
L 836.539909 28.194622 
L 836.539909 27.603109 
L 837.119926 27.603109 
L 837.119926 27.79086 
L 837.699943 27.79086 
L 837.699943 27.52942 
L 838.279959 27.52942 
L 838.279959 28.628761 
L 838.859976 28.628761 
L 838.859976 28.31314 
L 839.439993 28.31314 
L 839.439993 30.209848 
L 840.02001 30.209848 
L 840.02001 27.971769 
L 840.600027 27.971769 
L 840.600027 28.267427 
L 841.180044 28.267427 
L 841.180044 27.997767 
L 841.76006 27.997767 
L 841.76006 26.028875 
L 842.340077 26.028875 
L 842.340077 25.81108 
L 842.920094 25.81108 
L 842.920094 25.408497 
L 844.080128 25.430955 
L 844.080128 23.850792 
L 844.660145 23.850792 
L 844.660145 24.084244 
L 845.240161 24.084244 
L 845.240161 23.536214 
L 845.820178 23.536214 
L 845.820178 22.563278 
L 846.400195 22.563278 
L 846.400195 22.969087 
L 846.980212 22.969087 
L 846.980212 23.992494 
L 847.560229 23.992494 
L 847.560229 23.723455 
L 848.720262 23.685773 
L 848.720262 23.114651 
L 849.300279 23.114651 
L 849.300279 23.699869 
L 849.880296 23.699869 
L 849.880296 23.867227 
L 850.460313 23.867227 
L 850.460313 23.733748 
L 851.04033 23.733748 
L 851.04033 23.407606 
L 851.620347 23.407606 
L 851.620347 23.67197 
L 852.200363 23.67197 
L 852.200363 23.196894 
L 852.78038 23.196894 
L 852.78038 22.63816 
L 853.360397 22.63816 
L 853.360397 21.283255 
L 854.520431 21.252761 
L 854.520431 21.562443 
L 856.260481 21.480964 
L 856.260481 22.420458 
L 856.840498 22.420458 
L 856.840498 21.979852 
L 857.420515 21.979852 
L 857.420515 21.249643 
L 858.000532 21.249643 
L 858.000532 21.402591 
L 858.580549 21.402591 
L 858.580549 21.76739 
L 859.740582 21.66157 
L 859.740582 22.548708 
L 860.320599 22.548708 
L 860.320599 23.095814 
L 860.900616 23.095814 
L 860.900616 22.560524 
L 862.06065 22.661532 
L 862.06065 21.894154 
L 863.8007 21.864056 
L 863.8007 22.511697 
L 864.380717 22.511697 
L 864.380717 22.931157 
L 864.960734 22.931157 
L 864.960734 21.363749 
L 865.540751 21.363749 
L 865.540751 20.552727 
L 866.120768 20.552727 
L 866.120768 20.852518 
L 866.700784 20.852518 
L 866.700784 21.946446 
L 867.280801 21.946446 
L 867.280801 23.528444 
L 867.860818 23.528444 
L 867.860818 23.159011 
L 868.440835 23.159011 
L 868.440835 22.578441 
L 869.020852 22.578441 
L 869.020852 22.861951 
L 870.180885 22.765112 
L 870.180885 24.528115 
L 870.760902 24.528115 
L 870.760902 23.623438 
L 871.340919 23.623438 
L 871.340919 25.937762 
L 871.920936 25.937762 
L 871.920936 26.241358 
L 872.500953 26.241358 
L 872.500953 28.114511 
L 873.08097 28.114511 
L 873.08097 26.77875 
L 874.241003 26.81 
L 874.241003 26.4225 
L 874.82102 26.4225 
L 874.82102 26.750885 
L 875.981054 26.833691 
L 875.981054 27.381199 
L 876.561071 27.381199 
L 876.561071 27.267051 
L 877.141087 27.267051 
L 877.141087 27.433167 
L 878.301121 27.38126 
L 878.301121 27.177108 
L 878.881138 27.177108 
L 878.881138 26.047721 
L 879.461155 26.047721 
L 879.461155 26.78359 
L 880.041172 26.78359 
L 880.041172 25.740447 
L 881.201205 25.790073 
L 881.201205 27.033228 
L 881.781222 27.033228 
L 881.781222 27.671621 
L 882.361239 27.671621 
L 882.361239 28.141547 
L 882.941256 28.141547 
L 882.941256 29.585924 
L 883.521273 29.585924 
L 883.521273 31.778773 
L 884.10129 31.778773 
L 884.10129 32.275099 
L 884.681306 32.275099 
L 884.681306 31.997414 
L 885.261323 31.997414 
L 885.261323 32.976194 
L 885.84134 32.976194 
L 885.84134 32.621431 
L 887.001374 32.664182 
L 887.001374 33.746424 
L 887.194182 33.746424 
L 887.194182 33.746424 
" clip-path="url(#p74be156cfb)" style="fill: none; stroke: #3572c6; stroke-width: 1.2; stroke-linecap: square"/>
   </g>
   <g id="line2d_79">
    <path d="M 75.557818 20.552727 
L 887.194182 20.552727 
L 887.194182 20.552727 
" clip-path="url(#p74be156cfb)" style="fill: none; stroke: #83a83b; stroke-width: 1.2; stroke-linecap: square"/>
   </g>
   <g id="line2d_80">
    <path d="M 75.557818 33.746424 
L 887.194182 33.746424 
L 887.194182 33.746424 
" clip-path="url(#p74be156cfb)" style="fill: none; stroke: #c44e52; stroke-width: 1.2; stroke-linecap: square"/>
   </g>
   <g id="line2d_81">
    <path d="M 866.120768 300.96 
L 866.120768 7.2 
" clip-path="url(#p74be156cfb)" style="fill: none; stroke: #83a83b; stroke-width: 1.2; stroke-linecap: square"/>
   </g>
   <g id="line2d_82">
    <path d="M 887.194182 300.96 
L 887.194182 7.2 
" clip-path="url(#p74be156cfb)" style="fill: none; stroke: #c44e52; stroke-width: 1.2; stroke-linecap: square"/>
   </g>
   <g id="patch_3">
    <path d="M 34.976 300.96 
L 34.976 7.2 
" style="fill: none; stroke: #899ab8; stroke-width: 1.12; stroke-linejoin: miter; stroke-linecap: square"/>
   </g>
   <g id="patch_4">
    <path d="M 927.776 300.96 
L 927.776 7.2 
" style="fill: none; stroke: #899ab8; stroke-width: 1.12; stroke-linejoin: miter; stroke-linecap: square"/>
   </g>
   <g id="patch_5">
    <path d="M 34.976 300.96 
L 927.776 300.96 
" style="fill: none; stroke: #899ab8; stroke-width: 1.12; stroke-linejoin: miter; stroke-linecap: square"/>
   </g>
   <g id="patch_6">
    <path d="M 34.976 7.2 
L 927.776 7.2 
" style="fill: none; stroke: #899ab8; stroke-width: 1.12; stroke-linejoin: miter; stroke-linecap: square"/>
   </g>
   <g id="text_16">
    <!-- 123519.47 -->
    <g style="fill: #83a83b" transform="translate(181.410891 20.552727) scale(0.132 -0.132)">
     <defs>
      <path id="DejaVuSans-39" d="M 703 97 
L 703 672 
Q 941 559 1184 500 
Q 1428 441 1663 441 
Q 2288 441 2617 861 
Q 2947 1281 2994 2138 
Q 2813 1869 2534 1725 
Q 2256 1581 1919 1581 
Q 1219 1581 811 2004 
Q 403 2428 403 3163 
Q 403 3881 828 4315 
Q 1253 4750 1959 4750 
Q 2769 4750 3195 4129 
Q 3622 3509 3622 2328 
Q 3622 1225 3098 567 
Q 2575 -91 1691 -91 
Q 1453 -91 1209 -44 
Q 966 3 703 97 
z
M 1959 2075 
Q 2384 2075 2632 2365 
Q 2881 2656 2881 3163 
Q 2881 3666 2632 3958 
Q 2384 4250 1959 4250 
Q 1534 4250 1286 3958 
Q 1038 3666 1038 3163 
Q 1038 2656 1286 2365 
Q 1534 2075 1959 2075 
z
" transform="scale(0.015625)"/>
      <path id="DejaVuSans-2e" d="M 684 794 
L 1344 794 
L 1344 0 
L 684 0 
L 684 794 
z
" transform="scale(0.015625)"/>
      <path id="DejaVuSans-37" d="M 525 4666 
L 3525 4666 
L 3525 4397 
L 1831 0 
L 1172 0 
L 2766 4134 
L 525 4134 
L 525 4666 
z
" transform="scale(0.015625)"/>
     </defs>
     <use xlink:href="#DejaVuSans-31"/>
     <use xlink:href="#DejaVuSans-32" transform="translate(63.623047 0)"/>
     <use xlink:href="#DejaVuSans-33" transform="translate(127.246094 0)"/>
     <use xlink:href="#DejaVuSans-35" transform="translate(190.869141 0)"/>
     <use xlink:href="#DejaVuSans-31" transform="translate(254.492188 0)"/>
     <use xlink:href="#DejaVuSans-39" transform="translate(318.115234 0)"/>
     <use xlink:href="#DejaVuSans-2e" transform="translate(381.738281 0)"/>
     <use xlink:href="#DejaVuSans-34" transform="translate(413.525391 0)"/>
     <use xlink:href="#DejaVuSans-37" transform="translate(477.148438 0)"/>
    </g>
   </g>
   <g id="text_17">
    <!-- 63921.7283672103 -->
    <g style="fill: #c44e52" transform="translate(181.410891 33.746424) scale(0.132 -0.132)">
     <use xlink:href="#DejaVuSans-36"/>
     <use xlink:href="#DejaVuSans-33" transform="translate(63.623047 0)"/>
     <use xlink:href="#DejaVuSans-39" transform="translate(127.246094 0)"/>
     <use xlink:href="#DejaVuSans-32" transform="translate(190.869141 0)"/>
     <use xlink:href="#DejaVuSans-31" transform="translate(254.492188 0)"/>
     <use xlink:href="#DejaVuSans-2e" transform="translate(318.115234 0)"/>
     <use xlink:href="#DejaVuSans-37" transform="translate(349.902344 0)"/>
     <use xlink:href="#DejaVuSans-32" transform="translate(413.525391 0)"/>
     <use xlink:href="#DejaVuSans-38" transform="translate(477.148438 0)"/>
     <use xlink:href="#DejaVuSans-33" transform="translate(540.771484 0)"/>
     <use xlink:href="#DejaVuSans-36" transform="translate(604.394531 0)"/>
     <use xlink:href="#DejaVuSans-37" transform="translate(668.017578 0)"/>
     <use xlink:href="#DejaVuSans-32" transform="translate(731.640625 0)"/>
     <use xlink:href="#DejaVuSans-31" transform="translate(795.263672 0)"/>
     <use xlink:href="#DejaVuSans-30" transform="translate(858.886719 0)"/>
     <use xlink:href="#DejaVuSans-33" transform="translate(922.509766 0)"/>
    </g>
   </g>
   <g id="legend_1">
    <g id="patch_7">
     <path d="M 43.796 183.886875 
L 142.133094 183.886875 
Q 144.653094 183.886875 144.653094 181.366875 
L 144.653094 126.793125 
Q 144.653094 124.273125 142.133094 124.273125 
L 43.796 124.273125 
Q 41.276 124.273125 41.276 126.793125 
L 41.276 181.366875 
Q 41.276 183.886875 43.796 183.886875 
z
" style="fill: #373e4b; opacity: 0.8; stroke: #cccccc; stroke-width: 0.16; stroke-linejoin: miter"/>
    </g>
    <g id="line2d_83">
     <path d="M 46.316 134.477156 
L 46.316 134.477156 
L 58.916 134.477156 
L 58.916 134.477156 
L 71.516 134.477156 
" style="fill: none; stroke: #3572c6; stroke-width: 1.2; stroke-linecap: square"/>
    </g>
    <g id="text_18">
     <!-- USD/BTC -->
     <g style="fill: #b1bed6" transform="translate(81.596 138.887156) scale(0.126 -0.126)">
      <defs>
       <path id="DejaVuSans-55" d="M 556 4666 
L 1191 4666 
L 1191 1831 
Q 1191 1081 1462 751 
Q 1734 422 2344 422 
Q 2950 422 3222 751 
Q 3494 1081 3494 1831 
L 3494 4666 
L 4128 4666 
L 4128 1753 
Q 4128 841 3676 375 
Q 3225 -91 2344 -91 
Q 1459 -91 1007 375 
Q 556 841 556 1753 
L 556 4666 
z
" transform="scale(0.015625)"/>
       <path id="DejaVuSans-53" d="M 3425 4513 
L 3425 3897 
Q 3066 4069 2747 4153 
Q 2428 4238 2131 4238 
Q 1616 4238 1336 4038 
Q 1056 3838 1056 3469 
Q 1056 3159 1242 3001 
Q 1428 2844 1947 2747 
L 2328 2669 
Q 3034 2534 3370 2195 
Q 3706 1856 3706 1288 
Q 3706 609 3251 259 
Q 2797 -91 1919 -91 
Q 1588 -91 1214 -16 
Q 841 59 441 206 
L 441 856 
Q 825 641 1194 531 
Q 1563 422 1919 422 
Q 2459 422 2753 634 
Q 3047 847 3047 1241 
Q 3047 1584 2836 1778 
Q 2625 1972 2144 2069 
L 1759 2144 
Q 1053 2284 737 2584 
Q 422 2884 422 3419 
Q 422 4038 858 4394 
Q 1294 4750 2059 4750 
Q 2388 4750 2728 4690 
Q 3069 4631 3425 4513 
z
" transform="scale(0.015625)"/>
       <path id="DejaVuSans-2f" d="M 1625 4666 
L 2156 4666 
L 531 -594 
L 0 -594 
L 1625 4666 
z
" transform="scale(0.015625)"/>
       <path id="DejaVuSans-42" d="M 1259 2228 
L 1259 519 
L 2272 519 
Q 2781 519 3026 730 
Q 3272 941 3272 1375 
Q 3272 1813 3026 2020 
Q 2781 2228 2272 2228 
L 1259 2228 
z
M 1259 4147 
L 1259 2741 
L 2194 2741 
Q 2656 2741 2882 2914 
Q 3109 3088 3109 3444 
Q 3109 3797 2882 3972 
Q 2656 4147 2194 4147 
L 1259 4147 
z
M 628 4666 
L 2241 4666 
Q 2963 4666 3353 4366 
Q 3744 4066 3744 3513 
Q 3744 3084 3544 2831 
Q 3344 2578 2956 2516 
Q 3422 2416 3680 2098 
Q 3938 1781 3938 1306 
Q 3938 681 3513 340 
Q 3088 0 2303 0 
L 628 0 
L 628 4666 
z
" transform="scale(0.015625)"/>
       <path id="DejaVuSans-54" d="M -19 4666 
L 3928 4666 
L 3928 4134 
L 2272 4134 
L 2272 0 
L 1638 0 
L 1638 4134 
L -19 4134 
L -19 4666 
z
" transform="scale(0.015625)"/>
       <path id="DejaVuSans-43" d="M 4122 4306 
L 4122 3641 
Q 3803 3938 3442 4084 
Q 3081 4231 2675 4231 
Q 1875 4231 1450 3742 
Q 1025 3253 1025 2328 
Q 1025 1406 1450 917 
Q 1875 428 2675 428 
Q 3081 428 3442 575 
Q 3803 722 4122 1019 
L 4122 359 
Q 3791 134 3420 21 
Q 3050 -91 2638 -91 
Q 1578 -91 968 557 
Q 359 1206 359 2328 
Q 359 3453 968 4101 
Q 1578 4750 2638 4750 
Q 3056 4750 3426 4639 
Q 3797 4528 4122 4306 
z
" transform="scale(0.015625)"/>
      </defs>
      <use xlink:href="#DejaVuSans-55"/>
      <use xlink:href="#DejaVuSans-53" transform="translate(73.193359 0)"/>
      <use xlink:href="#DejaVuSans-44" transform="translate(136.669922 0)"/>
      <use xlink:href="#DejaVuSans-2f" transform="translate(213.671875 0)"/>
      <use xlink:href="#DejaVuSans-42" transform="translate(247.363281 0)"/>
      <use xlink:href="#DejaVuSans-54" transform="translate(315.966797 0)"/>
      <use xlink:href="#DejaVuSans-43" transform="translate(371.175781 0)"/>
     </g>
    </g>
    <g id="line2d_84">
     <path d="M 46.316 152.971594 
L 46.316 152.971594 
L 58.916 152.971594 
L 58.916 152.971594 
L 71.516 152.971594 
" style="fill: none; stroke: #83a83b; stroke-width: 1.2; stroke-linecap: square"/>
    </g>
    <g id="text_19">
     <!-- Max -->
     <g style="fill: #b1bed6" transform="translate(81.596 157.381594) scale(0.126 -0.126)">
      <defs>
       <path id="DejaVuSans-4d" d="M 628 4666 
L 1569 4666 
L 2759 1491 
L 3956 4666 
L 4897 4666 
L 4897 0 
L 4281 0 
L 4281 4097 
L 3078 897 
L 2444 897 
L 1241 4097 
L 1241 0 
L 628 0 
L 628 4666 
z
" transform="scale(0.015625)"/>
       <path id="DejaVuSans-78" d="M 3513 3500 
L 2247 1797 
L 3578 0 
L 2900 0 
L 1881 1375 
L 863 0 
L 184 0 
L 1544 1831 
L 300 3500 
L 978 3500 
L 1906 2253 
L 2834 3500 
L 3513 3500 
z
" transform="scale(0.015625)"/>
      </defs>
      <use xlink:href="#DejaVuSans-4d"/>
      <use xlink:href="#DejaVuSans-61" transform="translate(86.279297 0)"/>
      <use xlink:href="#DejaVuSans-78" transform="translate(147.558594 0)"/>
     </g>
    </g>
    <g id="line2d_85">
     <path d="M 46.316 171.466031 
L 46.316 171.466031 
L 58.916 171.466031 
L 58.916 171.466031 
L 71.516 171.466031 
" style="fill: none; stroke: #c44e52; stroke-width: 1.2; stroke-linecap: square"/>
    </g>
    <g id="text_20">
     <!-- local_Min -->
     <g style="fill: #b1bed6" transform="translate(81.596 175.876031) scale(0.126 -0.126)">
      <defs>
       <path id="DejaVuSans-6c" d="M 603 4863 
L 1178 4863 
L 1178 0 
L 603 0 
L 603 4863 
z
" transform="scale(0.015625)"/>
       <path id="DejaVuSans-6f" d="M 1959 3097 
Q 1497 3097 1228 2736 
Q 959 2375 959 1747 
Q 959 1119 1226 758 
Q 1494 397 1959 397 
Q 2419 397 2687 759 
Q 2956 1122 2956 1747 
Q 2956 2369 2687 2733 
Q 2419 3097 1959 3097 
z
M 1959 3584 
Q 2709 3584 3137 3096 
Q 3566 2609 3566 1747 
Q 3566 888 3137 398 
Q 2709 -91 1959 -91 
Q 1206 -91 779 398 
Q 353 888 353 1747 
Q 353 2609 779 3096 
Q 1206 3584 1959 3584 
z
" transform="scale(0.015625)"/>
       <path id="DejaVuSans-63" d="M 3122 3366 
L 3122 2828 
Q 2878 2963 2633 3030 
Q 2388 3097 2138 3097 
Q 1578 3097 1268 2742 
Q 959 2388 959 1747 
Q 959 1106 1268 751 
Q 1578 397 2138 397 
Q 2388 397 2633 464 
Q 2878 531 3122 666 
L 3122 134 
Q 2881 22 2623 -34 
Q 2366 -91 2075 -91 
Q 1284 -91 818 406 
Q 353 903 353 1747 
Q 353 2603 823 3093 
Q 1294 3584 2113 3584 
Q 2378 3584 2631 3529 
Q 2884 3475 3122 3366 
z
" transform="scale(0.015625)"/>
       <path id="DejaVuSans-5f" d="M 3263 -1063 
L 3263 -1509 
L -63 -1509 
L -63 -1063 
L 3263 -1063 
z
" transform="scale(0.015625)"/>
       <path id="DejaVuSans-69" d="M 603 3500 
L 1178 3500 
L 1178 0 
L 603 0 
L 603 3500 
z
M 603 4863 
L 1178 4863 
L 1178 4134 
L 603 4134 
L 603 4863 
z
" transform="scale(0.015625)"/>
       <path id="DejaVuSans-6e" d="M 3513 2113 
L 3513 0 
L 2938 0 
L 2938 2094 
Q 2938 2591 2744 2837 
Q 2550 3084 2163 3084 
Q 1697 3084 1428 2787 
Q 1159 2491 1159 1978 
L 1159 0 
L 581 0 
L 581 3500 
L 1159 3500 
L 1159 2956 
Q 1366 3272 1645 3428 
Q 1925 3584 2291 3584 
Q 2894 3584 3203 3211 
Q 3513 2838 3513 2113 
z
" transform="scale(0.015625)"/>
      </defs>
      <use xlink:href="#DejaVuSans-6c"/>
      <use xlink:href="#DejaVuSans-6f" transform="translate(27.783203 0)"/>
      <use xlink:href="#DejaVuSans-63" transform="translate(88.964844 0)"/>
      <use xlink:href="#DejaVuSans-61" transform="translate(143.945312 0)"/>
      <use xlink:href="#DejaVuSans-6c" transform="translate(205.224609 0)"/>
      <use xlink:href="#DejaVuSans-5f" transform="translate(233.007812 0)"/>
      <use xlink:href="#DejaVuSans-4d" transform="translate(283.007812 0)"/>
      <use xlink:href="#DejaVuSans-69" transform="translate(369.287109 0)"/>
      <use xlink:href="#DejaVuSans-6e" transform="translate(397.070312 0)"/>
     </g>
    </g>
   </g>
  </g>
 </g>
 <defs>
  <clipPath id="p74be156cfb">
   <rect x="34.976" y="7.2" width="892.8" height="293.76"/>
  </clipPath>
 </defs>
</svg>
