<?xml version="1.0" encoding="utf-8" standalone="no"?>
<!DOCTYPE svg PUBLIC "-//W3C//DTD SVG 1.1//EN"
  "http://www.w3.org/Graphics/SVG/1.1/DTD/svg11.dtd">
<svg xmlns:xlink="http://www.w3.org/1999/xlink" width="934.976pt" height="358.290693pt" viewBox="0 0 934.976 358.290693" xmlns="http://www.w3.org/2000/svg" version="1.1">
 <metadata>
  <rdf:RDF xmlns:dc="http://purl.org/dc/elements/1.1/" xmlns:cc="http://creativecommons.org/ns#" xmlns:rdf="http://www.w3.org/1999/02/22-rdf-syntax-ns#">
   <cc:Work>
    <dc:type rdf:resource="http://purl.org/dc/dcmitype/StillImage"/>
    <dc:date>2025-12-04T17:14:49.938821</dc:date>
    <dc:format>image/svg+xml</dc:format>
    <dc:creator>
     <cc:Agent>
      <dc:title>Matplotlib v3.10.7, https://matplotlib.org/</dc:title>
     </cc:Agent>
    </dc:creator>
   </cc:Work>
  </rdf:RDF>
 </metadata>
 <defs>
  <style type="text/css">*{stroke-linejoin: round; stroke-linecap: butt}</style>
 </defs>
 <g id="figure_1">
  <g id="patch_1">
   <path d="M 0 358.290693 
L 934.976 358.290693 
L 934.976 0 
L 0 0 
z
" style="fill: #373e4b"/>
  </g>
  <g id="axes_1">
   <g id="patch_2">
    <path d="M 34.976 300.96 
L 927.776 300.96 
L 927.776 7.2 
L 34.976 7.2 
z
" style="fill: #373e4b"/>
   </g>
   <g id="matplotlib.axis_1">
    <g id="xtick_1">
     <g id="line2d_1">
      <path d="M 138.141828 300.96 
L 138.141828 7.2 
" clip-path="url(#p7b2dcc5d06)" style="fill: none; stroke: #546379; stroke-width: 1.12; stroke-linecap: square"/>
     </g>
     <g id="line2d_2"/>
     <g id="text_1">
      <!-- 2012 -->
      <g style="fill: #b1bed6" transform="translate(109.060789 330.884854) rotate(-30) scale(0.126 -0.126)">
       <defs>
        <path id="DejaVuSans-32" d="M 1228 531 
L 3431 531 
L 3431 0 
L 469 0 
L 469 531 
Q 828 903 1448 1529 
Q 2069 2156 2228 2338 
Q 2531 2678 2651 2914 
Q 2772 3150 2772 3378 
Q 2772 3750 2511 3984 
Q 2250 4219 1831 4219 
Q 1534 4219 1204 4116 
Q 875 4013 500 3803 
L 500 4441 
Q 881 4594 1212 4672 
Q 1544 4750 1819 4750 
Q 2544 4750 2975 4387 
Q 3406 4025 3406 3419 
Q 3406 3131 3298 2873 
Q 3191 2616 2906 2266 
Q 2828 2175 2409 1742 
Q 1991 1309 1228 531 
z
" transform="scale(0.015625)"/>
        <path id="DejaVuSans-30" d="M 2034 4250 
Q 1547 4250 1301 3770 
Q 1056 3291 1056 2328 
Q 1056 1369 1301 889 
Q 1547 409 2034 409 
Q 2525 409 2770 889 
Q 3016 1369 3016 2328 
Q 3016 3291 2770 3770 
Q 2525 4250 2034 4250 
z
M 2034 4750 
Q 2819 4750 3233 4129 
Q 3647 3509 3647 2328 
Q 3647 1150 3233 529 
Q 2819 -91 2034 -91 
Q 1250 -91 836 529 
Q 422 1150 422 2328 
Q 422 3509 836 4129 
Q 1250 4750 2034 4750 
z
" transform="scale(0.015625)"/>
        <path id="DejaVuSans-31" d="M 794 531 
L 1825 531 
L 1825 4091 
L 703 3866 
L 703 4441 
L 1819 4666 
L 2450 4666 
L 2450 531 
L 3481 531 
L 3481 0 
L 794 0 
L 794 531 
z
" transform="scale(0.015625)"/>
       </defs>
       <use xlink:href="#DejaVuSans-32"/>
       <use xlink:href="#DejaVuSans-30" transform="translate(63.623047 0)"/>
       <use xlink:href="#DejaVuSans-31" transform="translate(127.246094 0)"/>
       <use xlink:href="#DejaVuSans-32" transform="translate(190.869141 0)"/>
      </g>
     </g>
    </g>
    <g id="xtick_2">
     <g id="line2d_3">
      <path d="M 245.786326 300.96 
L 245.786326 7.2 
" clip-path="url(#p7b2dcc5d06)" style="fill: none; stroke: #546379; stroke-width: 1.12; stroke-linecap: square"/>
     </g>
     <g id="line2d_4"/>
     <g id="text_2">
      <!-- 2014 -->
      <g style="fill: #b1bed6" transform="translate(216.705286 330.884854) rotate(-30) scale(0.126 -0.126)">
       <defs>
        <path id="DejaVuSans-34" d="M 2419 4116 
L 825 1625 
L 2419 1625 
L 2419 4116 
z
M 2253 4666 
L 3047 4666 
L 3047 1625 
L 3713 1625 
L 3713 1100 
L 3047 1100 
L 3047 0 
L 2419 0 
L 2419 1100 
L 313 1100 
L 313 1709 
L 2253 4666 
z
" transform="scale(0.015625)"/>
       </defs>
       <use xlink:href="#DejaVuSans-32"/>
       <use xlink:href="#DejaVuSans-30" transform="translate(63.623047 0)"/>
       <use xlink:href="#DejaVuSans-31" transform="translate(127.246094 0)"/>
       <use xlink:href="#DejaVuSans-34" transform="translate(190.869141 0)"/>
      </g>
     </g>
    </g>
    <g id="xtick_3">
     <g id="line2d_5">
      <path d="M 353.283567 300.96 
L 353.283567 7.2 
" clip-path="url(#p7b2dcc5d06)" style="fill: none; stroke: #546379; stroke-width: 1.12; stroke-linecap: square"/>
     </g>
     <g id="line2d_6"/>
     <g id="text_3">
      <!-- 2016 -->
      <g style="fill: #b1bed6" transform="translate(324.202527 330.884854) rotate(-30) scale(0.126 -0.126)">
       <defs>
        <path id="DejaVuSans-36" d="M 2113 2584 
Q 1688 2584 1439 2293 
Q 1191 2003 1191 1497 
Q 1191 994 1439 701 
Q 1688 409 2113 409 
Q 2538 409 2786 701 
Q 3034 994 3034 1497 
Q 3034 2003 2786 2293 
Q 2538 2584 2113 2584 
z
M 3366 4563 
L 3366 3988 
Q 3128 4100 2886 4159 
Q 2644 4219 2406 4219 
Q 1781 4219 1451 3797 
Q 1122 3375 1075 2522 
Q 1259 2794 1537 2939 
Q 1816 3084 2150 3084 
Q 2853 3084 3261 2657 
Q 3669 2231 3669 1497 
Q 3669 778 3244 343 
Q 2819 -91 2113 -91 
Q 1303 -91 875 529 
Q 447 1150 447 2328 
Q 447 3434 972 4092 
Q 1497 4750 2381 4750 
Q 2619 4750 2861 4703 
Q 3103 4656 3366 4563 
z
" transform="scale(0.015625)"/>
       </defs>
       <use xlink:href="#DejaVuSans-32"/>
       <use xlink:href="#DejaVuSans-30" transform="translate(63.623047 0)"/>
       <use xlink:href="#DejaVuSans-31" transform="translate(127.246094 0)"/>
       <use xlink:href="#DejaVuSans-36" transform="translate(190.869141 0)"/>
      </g>
     </g>
    </g>
    <g id="xtick_4">
     <g id="line2d_7">
      <path d="M 460.928064 300.96 
L 460.928064 7.2 
" clip-path="url(#p7b2dcc5d06)" style="fill: none; stroke: #546379; stroke-width: 1.12; stroke-linecap: square"/>
     </g>
     <g id="line2d_8"/>
     <g id="text_4">
      <!-- 2018 -->
      <g style="fill: #b1bed6" transform="translate(431.847024 330.884854) rotate(-30) scale(0.126 -0.126)">
       <defs>
        <path id="DejaVuSans-38" d="M 2034 2216 
Q 1584 2216 1326 1975 
Q 1069 1734 1069 1313 
Q 1069 891 1326 650 
Q 1584 409 2034 409 
Q 2484 409 2743 651 
Q 3003 894 3003 1313 
Q 3003 1734 2745 1975 
Q 2488 2216 2034 2216 
z
M 1403 2484 
Q 997 2584 770 2862 
Q 544 3141 544 3541 
Q 544 4100 942 4425 
Q 1341 4750 2034 4750 
Q 2731 4750 3128 4425 
Q 3525 4100 3525 3541 
Q 3525 3141 3298 2862 
Q 3072 2584 2669 2484 
Q 3125 2378 3379 2068 
Q 3634 1759 3634 1313 
Q 3634 634 3220 271 
Q 2806 -91 2034 -91 
Q 1263 -91 848 271 
Q 434 634 434 1313 
Q 434 1759 690 2068 
Q 947 2378 1403 2484 
z
M 1172 3481 
Q 1172 3119 1398 2916 
Q 1625 2713 2034 2713 
Q 2441 2713 2670 2916 
Q 2900 3119 2900 3481 
Q 2900 3844 2670 4047 
Q 2441 4250 2034 4250 
Q 1625 4250 1398 4047 
Q 1172 3844 1172 3481 
z
" transform="scale(0.015625)"/>
       </defs>
       <use xlink:href="#DejaVuSans-32"/>
       <use xlink:href="#DejaVuSans-30" transform="translate(63.623047 0)"/>
       <use xlink:href="#DejaVuSans-31" transform="translate(127.246094 0)"/>
       <use xlink:href="#DejaVuSans-38" transform="translate(190.869141 0)"/>
      </g>
     </g>
    </g>
    <g id="xtick_5">
     <g id="line2d_9">
      <path d="M 568.425305 300.96 
L 568.425305 7.2 
" clip-path="url(#p7b2dcc5d06)" style="fill: none; stroke: #546379; stroke-width: 1.12; stroke-linecap: square"/>
     </g>
     <g id="line2d_10"/>
     <g id="text_5">
      <!-- 2020 -->
      <g style="fill: #b1bed6" transform="translate(539.344265 330.884854) rotate(-30) scale(0.126 -0.126)">
       <use xlink:href="#DejaVuSans-32"/>
       <use xlink:href="#DejaVuSans-30" transform="translate(63.623047 0)"/>
       <use xlink:href="#DejaVuSans-32" transform="translate(127.246094 0)"/>
       <use xlink:href="#DejaVuSans-30" transform="translate(190.869141 0)"/>
      </g>
     </g>
    </g>
    <g id="xtick_6">
     <g id="line2d_11">
      <path d="M 676.069802 300.96 
L 676.069802 7.2 
" clip-path="url(#p7b2dcc5d06)" style="fill: none; stroke: #546379; stroke-width: 1.12; stroke-linecap: square"/>
     </g>
     <g id="line2d_12"/>
     <g id="text_6">
      <!-- 2022 -->
      <g style="fill: #b1bed6" transform="translate(646.988763 330.884854) rotate(-30) scale(0.126 -0.126)">
       <use xlink:href="#DejaVuSans-32"/>
       <use xlink:href="#DejaVuSans-30" transform="translate(63.623047 0)"/>
       <use xlink:href="#DejaVuSans-32" transform="translate(127.246094 0)"/>
       <use xlink:href="#DejaVuSans-32" transform="translate(190.869141 0)"/>
      </g>
     </g>
    </g>
    <g id="xtick_7">
     <g id="line2d_13">
      <path d="M 783.567043 300.96 
L 783.567043 7.2 
" clip-path="url(#p7b2dcc5d06)" style="fill: none; stroke: #546379; stroke-width: 1.12; stroke-linecap: square"/>
     </g>
     <g id="line2d_14"/>
     <g id="text_7">
      <!-- 2024 -->
      <g style="fill: #b1bed6" transform="translate(754.486004 330.884854) rotate(-30) scale(0.126 -0.126)">
       <use xlink:href="#DejaVuSans-32"/>
       <use xlink:href="#DejaVuSans-30" transform="translate(63.623047 0)"/>
       <use xlink:href="#DejaVuSans-32" transform="translate(127.246094 0)"/>
       <use xlink:href="#DejaVuSans-34" transform="translate(190.869141 0)"/>
      </g>
     </g>
    </g>
    <g id="xtick_8">
     <g id="line2d_15">
      <path d="M 891.211541 300.96 
L 891.211541 7.2 
" clip-path="url(#p7b2dcc5d06)" style="fill: none; stroke: #546379; stroke-width: 1.12; stroke-linecap: square"/>
     </g>
     <g id="line2d_16"/>
     <g id="text_8">
      <!-- 2026 -->
      <g style="fill: #b1bed6" transform="translate(862.130501 330.884854) rotate(-30) scale(0.126 -0.126)">
       <use xlink:href="#DejaVuSans-32"/>
       <use xlink:href="#DejaVuSans-30" transform="translate(63.623047 0)"/>
       <use xlink:href="#DejaVuSans-32" transform="translate(127.246094 0)"/>
       <use xlink:href="#DejaVuSans-36" transform="translate(190.869141 0)"/>
      </g>
     </g>
    </g>
    <g id="text_9">
     <!-- Date -->
     <g style="fill: #b1bed6" transform="translate(464.166875 348.095943) scale(0.144 -0.144)">
      <defs>
       <path id="DejaVuSans-44" d="M 1259 4147 
L 1259 519 
L 2022 519 
Q 2988 519 3436 956 
Q 3884 1394 3884 2338 
Q 3884 3275 3436 3711 
Q 2988 4147 2022 4147 
L 1259 4147 
z
M 628 4666 
L 1925 4666 
Q 3281 4666 3915 4102 
Q 4550 3538 4550 2338 
Q 4550 1131 3912 565 
Q 3275 0 1925 0 
L 628 0 
L 628 4666 
z
" transform="scale(0.015625)"/>
       <path id="DejaVuSans-61" d="M 2194 1759 
Q 1497 1759 1228 1600 
Q 959 1441 959 1056 
Q 959 750 1161 570 
Q 1363 391 1709 391 
Q 2188 391 2477 730 
Q 2766 1069 2766 1631 
L 2766 1759 
L 2194 1759 
z
M 3341 1997 
L 3341 0 
L 2766 0 
L 2766 531 
Q 2569 213 2275 61 
Q 1981 -91 1556 -91 
Q 1019 -91 701 211 
Q 384 513 384 1019 
Q 384 1609 779 1909 
Q 1175 2209 1959 2209 
L 2766 2209 
L 2766 2266 
Q 2766 2663 2505 2880 
Q 2244 3097 1772 3097 
Q 1472 3097 1187 3025 
Q 903 2953 641 2809 
L 641 3341 
Q 956 3463 1253 3523 
Q 1550 3584 1831 3584 
Q 2591 3584 2966 3190 
Q 3341 2797 3341 1997 
z
" transform="scale(0.015625)"/>
       <path id="DejaVuSans-74" d="M 1172 4494 
L 1172 3500 
L 2356 3500 
L 2356 3053 
L 1172 3053 
L 1172 1153 
Q 1172 725 1289 603 
Q 1406 481 1766 481 
L 2356 481 
L 2356 0 
L 1766 0 
Q 1100 0 847 248 
Q 594 497 594 1153 
L 594 3053 
L 172 3053 
L 172 3500 
L 594 3500 
L 594 4494 
L 1172 4494 
z
" transform="scale(0.015625)"/>
       <path id="DejaVuSans-65" d="M 3597 1894 
L 3597 1613 
L 953 1613 
Q 991 1019 1311 708 
Q 1631 397 2203 397 
Q 2534 397 2845 478 
Q 3156 559 3463 722 
L 3463 178 
Q 3153 47 2828 -22 
Q 2503 -91 2169 -91 
Q 1331 -91 842 396 
Q 353 884 353 1716 
Q 353 2575 817 3079 
Q 1281 3584 2069 3584 
Q 2775 3584 3186 3129 
Q 3597 2675 3597 1894 
z
M 3022 2063 
Q 3016 2534 2758 2815 
Q 2500 3097 2075 3097 
Q 1594 3097 1305 2825 
Q 1016 2553 972 2059 
L 3022 2063 
z
" transform="scale(0.015625)"/>
      </defs>
      <use xlink:href="#DejaVuSans-44"/>
      <use xlink:href="#DejaVuSans-61" transform="translate(77.001953 0)"/>
      <use xlink:href="#DejaVuSans-74" transform="translate(138.28125 0)"/>
      <use xlink:href="#DejaVuSans-65" transform="translate(177.490234 0)"/>
     </g>
    </g>
   </g>
   <g id="matplotlib.axis_2">
    <g id="ytick_1">
     <g id="line2d_17">
      <path d="M 34.976 255.37232 
L 927.776 255.37232 
" clip-path="url(#p7b2dcc5d06)" style="fill: none; stroke: #546379; stroke-width: 1.12; stroke-linecap: square"/>
     </g>
     <g id="line2d_18"/>
     <g id="text_10">
      <!-- $\mathdefault{10^{0}}$ -->
      <g style="fill: #b1bed6" transform="translate(7.2 260.159335) scale(0.126 -0.126)">
       <use xlink:href="#DejaVuSans-31" transform="translate(0 0.765625)"/>
       <use xlink:href="#DejaVuSans-30" transform="translate(63.623047 0.765625)"/>
       <use xlink:href="#DejaVuSans-30" transform="translate(128.203125 39.046875) scale(0.7)"/>
      </g>
     </g>
    </g>
    <g id="ytick_2">
     <g id="line2d_19">
      <path d="M 34.976 209.254528 
L 927.776 209.254528 
" clip-path="url(#p7b2dcc5d06)" style="fill: none; stroke: #546379; stroke-width: 1.12; stroke-linecap: square"/>
     </g>
     <g id="line2d_20"/>
     <g id="text_11">
      <!-- $\mathdefault{10^{1}}$ -->
      <g style="fill: #b1bed6" transform="translate(7.2 214.041544) scale(0.126 -0.126)">
       <use xlink:href="#DejaVuSans-31" transform="translate(0 0.684375)"/>
       <use xlink:href="#DejaVuSans-30" transform="translate(63.623047 0.684375)"/>
       <use xlink:href="#DejaVuSans-31" transform="translate(128.203125 38.965625) scale(0.7)"/>
      </g>
     </g>
    </g>
    <g id="ytick_3">
     <g id="line2d_21">
      <path d="M 34.976 163.136737 
L 927.776 163.136737 
" clip-path="url(#p7b2dcc5d06)" style="fill: none; stroke: #546379; stroke-width: 1.12; stroke-linecap: square"/>
     </g>
     <g id="line2d_22"/>
     <g id="text_12">
      <!-- $\mathdefault{10^{2}}$ -->
      <g style="fill: #b1bed6" transform="translate(7.2 167.923752) scale(0.126 -0.126)">
       <use xlink:href="#DejaVuSans-31" transform="translate(0 0.765625)"/>
       <use xlink:href="#DejaVuSans-30" transform="translate(63.623047 0.765625)"/>
       <use xlink:href="#DejaVuSans-32" transform="translate(128.203125 39.046875) scale(0.7)"/>
      </g>
     </g>
    </g>
    <g id="ytick_4">
     <g id="line2d_23">
      <path d="M 34.976 117.018945 
L 927.776 117.018945 
" clip-path="url(#p7b2dcc5d06)" style="fill: none; stroke: #546379; stroke-width: 1.12; stroke-linecap: square"/>
     </g>
     <g id="line2d_24"/>
     <g id="text_13">
      <!-- $\mathdefault{10^{3}}$ -->
      <g style="fill: #b1bed6" transform="translate(7.2 121.805961) scale(0.126 -0.126)">
       <defs>
        <path id="DejaVuSans-33" d="M 2597 2516 
Q 3050 2419 3304 2112 
Q 3559 1806 3559 1356 
Q 3559 666 3084 287 
Q 2609 -91 1734 -91 
Q 1441 -91 1130 -33 
Q 819 25 488 141 
L 488 750 
Q 750 597 1062 519 
Q 1375 441 1716 441 
Q 2309 441 2620 675 
Q 2931 909 2931 1356 
Q 2931 1769 2642 2001 
Q 2353 2234 1838 2234 
L 1294 2234 
L 1294 2753 
L 1863 2753 
Q 2328 2753 2575 2939 
Q 2822 3125 2822 3475 
Q 2822 3834 2567 4026 
Q 2313 4219 1838 4219 
Q 1578 4219 1281 4162 
Q 984 4106 628 3988 
L 628 4550 
Q 988 4650 1302 4700 
Q 1616 4750 1894 4750 
Q 2613 4750 3031 4423 
Q 3450 4097 3450 3541 
Q 3450 3153 3228 2886 
Q 3006 2619 2597 2516 
z
" transform="scale(0.015625)"/>
       </defs>
       <use xlink:href="#DejaVuSans-31" transform="translate(0 0.765625)"/>
       <use xlink:href="#DejaVuSans-30" transform="translate(63.623047 0.765625)"/>
       <use xlink:href="#DejaVuSans-33" transform="translate(128.203125 39.046875) scale(0.7)"/>
      </g>
     </g>
    </g>
    <g id="ytick_5">
     <g id="line2d_25">
      <path d="M 34.976 70.901154 
L 927.776 70.901154 
" clip-path="url(#p7b2dcc5d06)" style="fill: none; stroke: #546379; stroke-width: 1.12; stroke-linecap: square"/>
     </g>
     <g id="line2d_26"/>
     <g id="text_14">
      <!-- $\mathdefault{10^{4}}$ -->
      <g style="fill: #b1bed6" transform="translate(7.2 75.688169) scale(0.126 -0.126)">
       <use xlink:href="#DejaVuSans-31" transform="translate(0 0.684375)"/>
       <use xlink:href="#DejaVuSans-30" transform="translate(63.623047 0.684375)"/>
       <use xlink:href="#DejaVuSans-34" transform="translate(128.203125 38.965625) scale(0.7)"/>
      </g>
     </g>
    </g>
    <g id="ytick_6">
     <g id="line2d_27">
      <path d="M 34.976 24.783362 
L 927.776 24.783362 
" clip-path="url(#p7b2dcc5d06)" style="fill: none; stroke: #546379; stroke-width: 1.12; stroke-linecap: square"/>
     </g>
     <g id="line2d_28"/>
     <g id="text_15">
      <!-- $\mathdefault{10^{5}}$ -->
      <g style="fill: #b1bed6" transform="translate(7.2 29.570378) scale(0.126 -0.126)">
       <defs>
        <path id="DejaVuSans-35" d="M 691 4666 
L 3169 4666 
L 3169 4134 
L 1269 4134 
L 1269 2991 
Q 1406 3038 1543 3061 
Q 1681 3084 1819 3084 
Q 2600 3084 3056 2656 
Q 3513 2228 3513 1497 
Q 3513 744 3044 326 
Q 2575 -91 1722 -91 
Q 1428 -91 1123 -41 
Q 819 9 494 109 
L 494 744 
Q 775 591 1075 516 
Q 1375 441 1709 441 
Q 2250 441 2565 725 
Q 2881 1009 2881 1497 
Q 2881 1984 2565 2268 
Q 2250 2553 1709 2553 
Q 1456 2553 1204 2497 
Q 953 2441 691 2322 
L 691 4666 
z
" transform="scale(0.015625)"/>
       </defs>
       <use xlink:href="#DejaVuSans-31" transform="translate(0 0.684375)"/>
       <use xlink:href="#DejaVuSans-30" transform="translate(63.623047 0.684375)"/>
       <use xlink:href="#DejaVuSans-35" transform="translate(128.203125 38.965625) scale(0.7)"/>
      </g>
     </g>
    </g>
    <g id="ytick_7">
     <g id="line2d_29"/>
    </g>
    <g id="ytick_8">
     <g id="line2d_30"/>
    </g>
    <g id="ytick_9">
     <g id="line2d_31"/>
    </g>
    <g id="ytick_10">
     <g id="line2d_32"/>
    </g>
    <g id="ytick_11">
     <g id="line2d_33"/>
    </g>
    <g id="ytick_12">
     <g id="line2d_34"/>
    </g>
    <g id="ytick_13">
     <g id="line2d_35"/>
    </g>
    <g id="ytick_14">
     <g id="line2d_36"/>
    </g>
    <g id="ytick_15">
     <g id="line2d_37"/>
    </g>
    <g id="ytick_16">
     <g id="line2d_38"/>
    </g>
    <g id="ytick_17">
     <g id="line2d_39"/>
    </g>
    <g id="ytick_18">
     <g id="line2d_40"/>
    </g>
    <g id="ytick_19">
     <g id="line2d_41"/>
    </g>
    <g id="ytick_20">
     <g id="line2d_42"/>
    </g>
    <g id="ytick_21">
     <g id="line2d_43"/>
    </g>
    <g id="ytick_22">
     <g id="line2d_44"/>
    </g>
    <g id="ytick_23">
     <g id="line2d_45"/>
    </g>
    <g id="ytick_24">
     <g id="line2d_46"/>
    </g>
    <g id="ytick_25">
     <g id="line2d_47"/>
    </g>
    <g id="ytick_26">
     <g id="line2d_48"/>
    </g>
    <g id="ytick_27">
     <g id="line2d_49"/>
    </g>
    <g id="ytick_28">
     <g id="line2d_50"/>
    </g>
    <g id="ytick_29">
     <g id="line2d_51"/>
    </g>
    <g id="ytick_30">
     <g id="line2d_52"/>
    </g>
    <g id="ytick_31">
     <g id="line2d_53"/>
    </g>
    <g id="ytick_32">
     <g id="line2d_54"/>
    </g>
    <g id="ytick_33">
     <g id="line2d_55"/>
    </g>
    <g id="ytick_34">
     <g id="line2d_56"/>
    </g>
    <g id="ytick_35">
     <g id="line2d_57"/>
    </g>
    <g id="ytick_36">
     <g id="line2d_58"/>
    </g>
    <g id="ytick_37">
     <g id="line2d_59"/>
    </g>
    <g id="ytick_38">
     <g id="line2d_60"/>
    </g>
    <g id="ytick_39">
     <g id="line2d_61"/>
    </g>
    <g id="ytick_40">
     <g id="line2d_62"/>
    </g>
    <g id="ytick_41">
     <g id="line2d_63"/>
    </g>
    <g id="ytick_42">
     <g id="line2d_64"/>
    </g>
    <g id="ytick_43">
     <g id="line2d_65"/>
    </g>
    <g id="ytick_44">
     <g id="line2d_66"/>
    </g>
    <g id="ytick_45">
     <g id="line2d_67"/>
    </g>
    <g id="ytick_46">
     <g id="line2d_68"/>
    </g>
    <g id="ytick_47">
     <g id="line2d_69"/>
    </g>
    <g id="ytick_48">
     <g id="line2d_70"/>
    </g>
    <g id="ytick_49">
     <g id="line2d_71"/>
    </g>
    <g id="ytick_50">
     <g id="line2d_72"/>
    </g>
    <g id="ytick_51">
     <g id="line2d_73"/>
    </g>
    <g id="ytick_52">
     <g id="line2d_74"/>
    </g>
    <g id="ytick_53">
     <g id="line2d_75"/>
    </g>
    <g id="ytick_54">
     <g id="line2d_76"/>
    </g>
    <g id="ytick_55">
     <g id="line2d_77"/>
    </g>
   </g>
   <g id="line2d_78">
    <path d="M 75.557818 287.607273 
L 75.557818 283.137997 
L 76.146844 283.137997 
L 76.146844 278.19371 
L 76.73587 278.19371 
L 76.73587 279.486333 
L 77.324896 279.486333 
L 77.324896 280.86817 
L 77.913922 280.86817 
L 77.913922 280.165337 
L 78.502948 280.165337 
L 78.502948 280.86817 
L 79.681 280.86817 
L 79.681 282.352457 
L 80.270026 282.352457 
L 80.270026 284.808022 
L 81.448078 284.808022 
L 81.448078 283.137997 
L 82.037104 283.137997 
L 82.037104 282.352457 
L 82.62613 282.352457 
L 82.62613 283.137997 
L 83.215156 283.137997 
L 83.215156 281.596567 
L 83.804182 281.596567 
L 83.804182 279.486333 
L 84.982234 279.486333 
L 84.982234 278.19371 
L 85.57126 278.19371 
L 85.57126 275.834669 
L 86.160286 275.834669 
L 86.160286 273.724434 
L 86.749312 273.724434 
L 86.749312 274.751772 
L 87.338338 274.751772 
L 87.338338 271.815495 
L 87.927364 271.815495 
L 87.927364 271.365393 
L 88.51639 271.365393 
L 88.51639 257.042345 
L 89.694442 257.042345 
L 89.694442 255.982378 
L 90.283468 255.982378 
L 90.283468 253.83089 
L 90.872494 253.83089 
L 90.872494 254.395116 
L 91.46152 254.395116 
L 91.46152 257.932656 
L 92.050546 257.932656 
L 92.050546 255.37232 
L 92.639572 255.37232 
L 92.639572 255.982378 
L 93.228598 255.982378 
L 93.228598 257.042345 
L 93.817623 257.042345 
L 93.817623 257.932656 
L 94.406649 257.932656 
L 94.406649 257.26124 
L 94.995675 257.26124 
L 94.995675 258.161558 
L 95.584701 258.161558 
L 95.584701 260.093532 
L 96.173727 260.093532 
L 96.173727 257.706341 
L 96.762753 257.706341 
L 96.762753 259.841596 
L 97.940805 259.841596 
L 97.940805 261.134218 
L 98.529831 261.134218 
L 98.529831 260.868934 
L 99.118857 260.868934 
L 99.118857 255.776954 
L 99.707883 255.776954 
L 99.707883 251.720656 
L 100.296909 251.720656 
L 100.296909 248.921405 
L 100.885935 248.921405 
L 100.885935 243.823502 
L 101.474961 243.823502 
L 101.474961 226.917627 
L 102.063987 226.917627 
L 102.063987 229.940664 
L 102.653013 229.940664 
L 102.653013 228.062436 
L 103.242039 228.062436 
L 103.242039 217.729074 
L 103.831065 217.729074 
L 103.831065 212.580386 
L 104.420091 212.580386 
L 104.420091 216.455571 
L 105.009117 216.455571 
L 105.009117 215.640255 
L 105.598143 215.640255 
L 105.598143 212.089863 
L 106.187169 212.089863 
L 106.187169 209.926627 
L 106.776195 209.926627 
L 106.776195 196.34639 
L 107.365221 196.34639 
L 107.365221 185.746445 
L 107.954247 185.746445 
L 107.954247 192.005794 
L 108.543273 192.005794 
L 108.543273 196.536537 
L 109.132299 196.536537 
L 109.132299 200.619497 
L 109.721325 200.619497 
L 109.721325 197.954799 
L 110.310351 197.954799 
L 110.310351 198.218565 
L 110.899377 198.218565 
L 110.899377 200.169105 
L 111.488403 200.169105 
L 111.488403 199.716176 
L 112.077429 199.716176 
L 112.077429 201.040338 
L 112.666455 201.040338 
L 112.666455 202.160926 
L 113.255481 202.160926 
L 113.255481 201.757417 
L 113.844507 201.757417 
L 113.844507 202.615821 
L 114.433533 202.615821 
L 114.433533 202.372872 
L 115.022559 202.372872 
L 115.022559 201.702393 
L 115.611585 201.702393 
L 115.611585 206.455278 
L 116.200611 206.455278 
L 116.200611 209.94735 
L 116.789637 209.94735 
L 116.789637 209.395222 
L 117.378663 209.395222 
L 117.378663 206.700602 
L 117.967689 206.700602 
L 117.967689 206.024537 
L 118.556715 206.024537 
L 118.556715 206.806668 
L 119.145741 206.806668 
L 119.145741 210.324077 
L 119.734767 210.324077 
L 119.734767 212.604047 
L 120.323792 212.604047 
L 120.323792 213.058992 
L 120.912818 213.058992 
L 120.912818 217.097011 
L 121.501844 217.097011 
L 121.501844 218.861295 
L 122.09087 218.861295 
L 122.09087 223.057412 
L 122.679896 223.057412 
L 122.679896 218.893678 
L 123.268922 218.893678 
L 123.268922 221.264877 
L 123.857948 221.264877 
L 123.857948 223.379165 
L 124.446974 223.379165 
L 124.446974 222.898453 
L 125.036 222.898453 
L 125.036 223.996748 
L 125.625026 223.996748 
L 125.625026 226.821103 
L 126.214052 226.821103 
L 126.214052 227.556633 
L 126.803078 227.556633 
L 126.803078 236.311847 
L 127.392104 236.311847 
L 127.392104 231.338582 
L 127.98113 231.338582 
L 127.98113 232.711804 
L 128.570156 232.711804 
L 128.570156 230.97985 
L 129.159182 230.97985 
L 129.159182 231.951129 
L 129.748208 231.951129 
L 129.748208 232.138606 
L 130.337234 232.138606 
L 130.337234 232.647299 
L 130.92626 232.647299 
L 130.92626 236.234665 
L 131.515286 236.234665 
L 131.515286 237.424839 
L 132.104312 237.424839 
L 132.104312 237.181079 
L 132.693338 237.181079 
L 132.693338 235.928878 
L 133.282364 235.928878 
L 133.282364 232.455022 
L 133.87139 232.455022 
L 133.87139 232.97192 
L 134.460416 232.97192 
L 134.460416 232.583001 
L 135.049442 232.583001 
L 135.049442 231.703858 
L 135.638468 231.703858 
L 135.638468 231.098715 
L 136.227494 231.098715 
L 136.227494 227.707037 
L 136.81652 227.707037 
L 136.81652 226.39241 
L 137.405546 226.39241 
L 137.405546 225.381573 
L 137.994572 225.381573 
L 137.994572 221.707518 
L 138.583598 221.707518 
L 138.583598 216.227322 
L 139.172624 216.227322 
L 139.172624 216.114165 
L 139.76165 216.114165 
L 139.76165 216.284141 
L 140.350676 216.284141 
L 140.350676 218.287185 
L 140.939702 218.287185 
L 140.939702 217.975205 
L 141.528728 217.975205 
L 141.528728 220.513041 
L 142.117754 220.513041 
L 142.117754 220.689506 
L 142.70678 220.689506 
L 142.70678 219.519112 
L 143.295806 219.519112 
L 143.295806 220.027052 
L 144.473858 220.095761 
L 144.473858 224.206915 
L 145.062884 224.206915 
L 145.062884 225.247601 
L 145.65191 225.247601 
L 145.65191 222.467712 
L 146.240935 222.467712 
L 146.240935 223.217642 
L 146.829961 223.217642 
L 146.829961 223.913295 
L 147.418987 223.913295 
L 147.418987 222.938075 
L 148.008013 222.938075 
L 148.008013 223.217642 
L 148.597039 223.217642 
L 148.597039 221.448123 
L 149.186065 221.448123 
L 149.186065 222.236609 
L 149.775091 222.236609 
L 149.775091 223.913295 
L 150.364117 223.913295 
L 150.364117 224.080551 
L 150.953143 224.080551 
L 150.953143 223.379165 
L 152.131195 223.298241 
L 152.131195 223.954978 
L 152.720221 223.954978 
L 152.720221 223.257901 
L 153.898273 223.177464 
L 153.898273 222.198349 
L 154.487299 222.198349 
L 154.487299 222.390381 
L 155.076325 222.390381 
L 155.076325 222.780056 
L 155.665351 222.780056 
L 155.665351 222.429009 
L 156.254377 222.429009 
L 156.254377 222.740746 
L 157.432429 222.740746 
L 157.432429 222.938075 
L 158.021455 222.938075 
L 158.021455 222.623275 
L 159.788533 222.545342 
L 159.788533 222.429009 
L 160.377559 222.429009 
L 160.377559 222.084008 
L 160.966585 222.084008 
L 160.966585 221.011116 
L 162.144637 220.939199 
L 162.144637 218.604102 
L 162.733663 218.604102 
L 162.733663 217.698519 
L 163.322689 217.698519 
L 163.322689 217.455744 
L 163.911715 217.455744 
L 163.911715 217.637549 
L 164.500741 217.637549 
L 164.500741 217.245703 
L 165.089767 217.245703 
L 165.089767 217.097011 
L 165.678793 217.097011 
L 165.678793 216.455571 
L 166.267819 216.455571 
L 166.267819 214.102908 
L 166.856845 214.102908 
L 166.856845 210.345215 
L 167.445871 210.345215 
L 167.445871 210.218718 
L 168.034897 210.218718 
L 168.034897 211.814865 
L 168.623923 211.814865 
L 168.623923 211.476343 
L 169.212949 211.476343 
L 169.212949 209.015614 
L 169.801975 209.015614 
L 169.801975 206.931125 
L 170.391001 206.931125 
L 170.391001 206.281868 
L 170.980027 206.281868 
L 170.980027 205.108303 
L 171.569053 205.108303 
L 171.569053 201.840237 
L 172.158079 201.840237 
L 172.158079 208.740437 
L 172.747104 208.740437 
L 172.747104 207.363805 
L 173.33613 207.363805 
L 173.33613 207.510134 
L 173.925156 207.510134 
L 173.925156 208.239211 
L 174.514182 208.239211 
L 174.514182 206.859912 
L 175.692234 206.913298 
L 175.692234 205.87171 
L 176.28126 205.87171 
L 176.28126 204.57803 
L 176.870286 204.57803 
L 176.870286 205.140897 
L 177.459312 205.140897 
L 177.459312 204.849447 
L 178.048338 204.849447 
L 178.048338 204.657477 
L 178.637364 204.657477 
L 178.637364 204.045986 
L 179.22639 204.045986 
L 179.22639 205.108303 
L 179.815416 205.108303 
L 179.815416 205.43665 
L 180.404442 205.43665 
L 180.404442 205.636273 
L 180.993468 205.636273 
L 180.993468 205.939489 
L 181.582494 205.939489 
L 181.582494 206.351052 
L 182.17152 206.351052 
L 182.17152 207.473452 
L 182.760546 207.473452 
L 182.760546 207.236638 
L 183.349572 207.236638 
L 183.349572 207.400287 
L 184.527624 207.436836 
L 184.527624 207.218538 
L 185.11665 207.218538 
L 185.11665 205.905571 
L 185.705676 205.905571 
L 185.705676 205.075763 
L 186.294702 205.075763 
L 186.294702 204.593894 
L 187.472754 204.530512 
L 187.472754 203.86153 
L 188.06178 203.86153 
L 188.06178 203.169779 
L 188.650806 203.169779 
L 188.650806 202.803614 
L 189.239832 202.803614 
L 189.239832 203.051876 
L 190.417884 202.949278 
L 190.417884 203.318141 
L 191.00691 203.318141 
L 191.00691 203.022509 
L 191.595936 203.022509 
L 191.595936 203.214173 
L 192.773988 203.184566 
L 192.773988 202.529737 
L 193.363014 202.529737 
L 193.363014 202.076772 
L 193.95204 202.076772 
L 193.95204 200.438123 
L 194.541066 200.438123 
L 194.541066 198.474155 
L 195.130092 198.474155 
L 195.130092 196.8899 
L 195.719118 196.8899 
L 195.719118 195.593226 
L 196.308144 195.593226 
L 196.308144 194.394486 
L 196.89717 194.394486 
L 196.89717 193.895273 
L 197.486196 193.895273 
L 197.486196 191.745077 
L 198.075222 191.745077 
L 198.075222 189.21317 
L 198.664248 189.21317 
L 198.664248 189.375826 
L 199.253273 189.375826 
L 199.253273 186.90656 
L 199.842299 186.90656 
L 199.842299 186.46521 
L 200.431325 186.46521 
L 200.431325 184.597163 
L 201.020351 184.597163 
L 201.020351 180.511647 
L 201.609377 180.511647 
L 201.609377 178.864525 
L 202.198403 178.864525 
L 202.198403 178.318608 
L 202.787429 178.318608 
L 202.787429 176.187869 
L 203.376455 176.187869 
L 203.376455 170.209069 
L 203.965481 170.209069 
L 203.965481 167.911261 
L 204.554507 167.911261 
L 204.554507 164.698205 
L 205.143533 164.698205 
L 205.143533 157.728444 
L 205.732559 157.728444 
L 205.732559 153.314284 
L 206.321585 153.314284 
L 206.321585 158.68349 
L 206.910611 158.68349 
L 206.910611 170.831623 
L 207.499637 170.831623 
L 207.499637 159.666147 
L 208.088663 159.666147 
L 208.088663 156.043135 
L 208.677689 156.043135 
L 208.677689 158.114365 
L 209.266715 158.114365 
L 209.266715 159.992155 
L 209.855741 159.992155 
L 209.855741 160.16753 
L 210.444767 160.16753 
L 210.444767 160.743898 
L 211.033793 160.743898 
L 211.033793 159.823395 
L 211.622819 159.823395 
L 211.622819 158.938472 
L 212.800871 159.039422 
L 212.800871 157.577651 
L 213.978923 157.530665 
L 213.978923 159.085179 
L 214.567949 159.085179 
L 214.567949 159.657728 
L 215.156975 159.657728 
L 215.156975 161.9508 
L 215.746001 161.9508 
L 215.746001 163.140743 
L 216.335027 163.140743 
L 216.335027 161.708753 
L 216.924053 161.708753 
L 216.924053 161.530504 
L 217.513079 161.530504 
L 217.513079 162.351197 
L 218.102105 162.351197 
L 218.102105 163.695241 
L 218.691131 163.695241 
L 218.691131 167.596001 
L 219.280157 167.596001 
L 219.280157 168.504633 
L 219.869183 168.504633 
L 219.869183 164.378152 
L 220.458209 164.378152 
L 220.458209 163.736474 
L 221.047235 163.736474 
L 221.047235 165.383183 
L 221.636261 165.383183 
L 221.636261 164.267648 
L 222.225287 164.267648 
L 222.225287 163.398817 
L 222.814313 163.398817 
L 222.814313 162.232149 
L 223.403339 162.232149 
L 223.403339 161.834102 
L 223.992365 161.834102 
L 223.992365 162.583641 
L 224.581391 162.583641 
L 224.581391 161.3465 
L 225.170416 161.3465 
L 225.170416 163.194904 
L 225.759442 163.194904 
L 225.759442 161.149656 
L 226.348468 161.149656 
L 226.348468 160.639309 
L 226.937494 160.639309 
L 226.937494 159.737009 
L 227.52652 159.737009 
L 227.52652 157.86806 
L 228.115546 157.86806 
L 228.115546 159.888004 
L 228.704572 159.888004 
L 228.704572 159.150729 
L 229.293598 159.150729 
L 229.293598 158.820261 
L 229.882624 158.820261 
L 229.882624 158.330623 
L 230.47165 158.330623 
L 230.47165 159.001913 
L 231.060676 159.001913 
L 231.060676 158.72362 
L 231.649702 158.72362 
L 231.649702 158.468169 
L 232.238728 158.468169 
L 232.238728 159.163865 
L 232.827754 159.163865 
L 232.827754 158.808962 
L 233.41678 158.808962 
L 233.41678 158.256707 
L 234.005806 158.256707 
L 234.005806 156.658265 
L 234.594832 156.658265 
L 234.594832 150.694477 
L 235.183858 150.694477 
L 235.183858 149.727115 
L 235.772884 149.727115 
L 235.772884 148.57456 
L 236.36191 148.57456 
L 236.36191 148.955699 
L 236.950936 148.955699 
L 236.950936 144.578193 
L 237.539962 144.578193 
L 237.539962 139.224019 
L 238.128988 139.224019 
L 238.128988 135.724665 
L 238.718014 135.724665 
L 238.718014 131.929122 
L 239.30704 131.929122 
L 239.30704 123.688509 
L 239.896066 123.688509 
L 239.896066 121.126976 
L 240.485092 121.126976 
L 240.485092 114.501195 
L 241.074118 114.501195 
L 241.074118 116.037736 
L 241.663144 116.037736 
L 241.663144 123.994292 
L 242.25217 123.994292 
L 242.25217 119.650419 
L 242.841196 119.650419 
L 242.841196 119.97045 
L 243.430222 119.97045 
L 243.430222 124.587763 
L 244.019248 124.587763 
L 244.019248 125.341484 
L 244.608274 125.341484 
L 244.608274 123.488046 
L 245.1973 123.488046 
L 245.1973 123.267395 
L 245.786326 123.267395 
L 245.786326 120.781313 
L 246.375352 120.781313 
L 246.375352 120.913218 
L 246.964378 120.913218 
L 246.964378 120.41492 
L 247.553404 120.41492 
L 247.553404 121.063393 
L 248.14243 121.063393 
L 248.14243 120.803802 
L 248.731456 120.803802 
L 248.731456 121.99479 
L 249.320482 121.99479 
L 249.320482 121.852022 
L 249.909508 121.852022 
L 249.909508 121.065109 
L 250.498534 121.065109 
L 250.498534 121.969642 
L 251.08756 121.969642 
L 251.08756 124.527356 
L 251.676585 124.527356 
L 251.676585 126.919059 
L 252.265611 126.919059 
L 252.265611 126.274188 
L 252.854637 126.274188 
L 252.854637 127.946397 
L 253.443663 127.946397 
L 253.443663 128.649132 
L 254.032689 128.649132 
L 254.032689 128.366202 
L 254.621715 128.366202 
L 254.621715 125.019077 
L 255.210741 125.019077 
L 255.210741 125.960627 
L 256.388793 125.925914 
L 256.388793 126.441804 
L 256.977819 126.441804 
L 256.977819 128.176165 
L 257.566845 128.176165 
L 257.566845 127.730173 
L 258.155871 127.730173 
L 258.155871 131.306418 
L 258.744897 131.306418 
L 258.744897 133.502218 
L 259.333923 133.502218 
L 259.333923 132.65908 
L 259.922949 132.65908 
L 259.922949 136.986733 
L 260.511975 136.986733 
L 260.511975 132.58749 
L 261.101001 132.58749 
L 261.101001 131.631546 
L 261.690027 131.631546 
L 261.690027 131.367004 
L 262.279053 131.367004 
L 262.279053 132.507473 
L 262.868079 132.507473 
L 262.868079 132.92187 
L 263.457105 132.92187 
L 263.457105 133.610609 
L 264.635157 133.571209 
L 264.635157 133.350906 
L 265.224183 133.350906 
L 265.224183 133.051224 
L 265.813209 133.051224 
L 265.813209 131.38341 
L 266.402235 131.38341 
L 266.402235 129.81387 
L 266.991261 129.81387 
L 266.991261 127.894621 
L 267.580287 127.894621 
L 267.580287 126.250357 
L 268.169313 126.250357 
L 268.169313 125.296318 
L 268.758339 125.296318 
L 268.758339 125.68367 
L 269.347365 125.68367 
L 269.347365 127.534196 
L 269.936391 127.534196 
L 269.936391 126.984835 
L 270.525417 126.984835 
L 270.525417 127.554182 
L 271.114443 127.554182 
L 271.114443 128.604794 
L 271.703469 128.604794 
L 271.703469 127.250453 
L 272.292495 127.250453 
L 272.292495 125.790765 
L 272.881521 125.790765 
L 272.881521 126.453349 
L 273.470547 126.453349 
L 273.470547 126.146152 
L 274.059573 126.146152 
L 274.059573 126.462333 
L 274.648599 126.462333 
L 274.648599 126.272916 
L 275.237625 126.272916 
L 275.237625 126.579496 
L 275.826651 126.579496 
L 275.826651 127.462208 
L 276.415677 127.462208 
L 276.415677 127.858802 
L 277.004703 127.858802 
L 277.004703 127.63773 
L 278.182754 127.6214 
L 278.182754 128.312275 
L 278.77178 128.312275 
L 278.77178 129.967354 
L 279.360806 129.967354 
L 279.360806 130.161745 
L 279.949832 130.161745 
L 279.949832 130.582678 
L 281.127884 130.638739 
L 281.127884 131.871859 
L 281.71691 131.871859 
L 281.71691 131.474298 
L 282.305936 131.474298 
L 282.305936 131.998816 
L 282.894962 131.998816 
L 282.894962 131.848327 
L 283.483988 131.848327 
L 283.483988 132.839184 
L 284.073014 132.839184 
L 284.073014 135.31356 
L 284.66204 135.31356 
L 284.66204 134.867219 
L 285.251066 134.867219 
L 285.251066 136.724127 
L 285.840092 136.724127 
L 285.840092 137.542587 
L 286.429118 137.542587 
L 286.429118 138.979109 
L 287.018144 138.979109 
L 287.018144 137.373098 
L 287.60717 137.373098 
L 287.60717 135.631111 
L 288.196196 135.631111 
L 288.196196 135.906922 
L 288.785222 135.906922 
L 288.785222 137.637682 
L 289.374248 137.637682 
L 289.374248 137.994084 
L 289.963274 137.994084 
L 289.963274 138.756714 
L 290.5523 138.756714 
L 290.5523 139.210064 
L 291.141326 139.210064 
L 291.141326 138.221398 
L 291.730352 138.221398 
L 291.730352 134.384797 
L 292.319378 134.384797 
L 292.319378 135.88482 
L 292.908404 135.88482 
L 292.908404 137.678656 
L 293.49743 137.678656 
L 293.49743 136.686127 
L 294.086456 136.686127 
L 294.086456 136.558209 
L 294.675482 136.558209 
L 294.675482 136.418436 
L 295.264508 136.418436 
L 295.264508 136.661012 
L 295.853534 136.661012 
L 295.853534 138.114882 
L 296.44256 138.114882 
L 296.44256 137.604067 
L 297.031586 137.604067 
L 297.031586 140.330735 
L 297.620612 140.330735 
L 297.620612 139.104206 
L 298.209638 139.104206 
L 298.209638 139.227661 
L 298.798664 139.227661 
L 298.798664 140.411716 
L 299.38769 140.411716 
L 299.38769 142.153972 
L 299.976716 142.153972 
L 299.976716 141.267602 
L 300.565742 141.267602 
L 300.565742 143.266944 
L 301.154768 143.266944 
L 301.154768 148.256676 
L 301.743794 148.256676 
L 301.743794 147.711541 
L 302.33282 147.711541 
L 302.33282 146.134154 
L 302.921846 146.134154 
L 302.921846 143.729744 
L 303.510872 143.729744 
L 303.510872 147.413355 
L 304.099897 147.413355 
L 304.099897 146.743214 
L 304.688923 146.743214 
L 304.688923 146.990332 
L 305.277949 146.990332 
L 305.277949 147.133952 
L 305.866975 147.133952 
L 305.866975 146.066566 
L 306.456001 146.066566 
L 306.456001 145.125593 
L 307.045027 145.125593 
L 307.045027 145.607242 
L 307.634053 145.607242 
L 307.634053 144.506165 
L 308.223079 144.506165 
L 308.223079 143.238742 
L 308.812105 143.238742 
L 308.812105 142.875683 
L 309.401131 142.875683 
L 309.401131 141.476374 
L 309.990157 141.476374 
L 309.990157 141.861751 
L 310.579183 141.861751 
L 310.579183 143.837962 
L 311.168209 143.837962 
L 311.168209 145.189256 
L 311.757235 145.189256 
L 311.757235 144.548875 
L 312.346261 144.548875 
L 312.346261 145.067818 
L 312.935287 145.067818 
L 312.935287 143.959065 
L 313.524313 143.959065 
L 313.524313 145.353427 
L 314.113339 145.353427 
L 314.113339 147.072788 
L 315.291391 147.106045 
L 315.291391 145.951593 
L 315.880417 145.951593 
L 315.880417 146.780354 
L 317.058469 146.839743 
L 317.058469 145.646513 
L 317.647495 145.646513 
L 317.647495 145.840654 
L 318.236521 145.840654 
L 318.236521 145.52311 
L 318.825547 145.52311 
L 318.825547 145.822927 
L 319.414573 145.822927 
L 319.414573 146.333104 
L 320.003599 146.333104 
L 320.003599 145.790046 
L 320.592625 145.790046 
L 320.592625 145.997503 
L 321.181651 145.997503 
L 321.181651 146.599727 
L 321.770677 146.599727 
L 321.770677 147.084466 
L 322.359703 147.084466 
L 322.359703 146.659462 
L 322.948729 146.659462 
L 322.948729 146.489511 
L 323.537755 146.489511 
L 323.537755 144.786225 
L 324.126781 144.786225 
L 324.126781 145.209704 
L 324.715807 145.209704 
L 324.715807 145.58555 
L 325.304833 145.58555 
L 325.304833 144.899515 
L 325.893859 144.899515 
L 325.893859 144.413151 
L 326.482885 144.413151 
L 326.482885 143.352536 
L 327.071911 143.352536 
L 327.071911 142.165919 
L 327.660937 142.165919 
L 327.660937 141.956134 
L 328.249963 141.956134 
L 328.249963 142.749355 
L 329.428015 142.660533 
L 329.428015 141.618141 
L 330.017041 141.618141 
L 330.017041 141.919299 
L 330.606066 141.919299 
L 330.606066 142.434841 
L 331.195092 142.434841 
L 331.195092 142.563496 
L 331.784118 142.563496 
L 331.784118 143.170627 
L 332.373144 143.170627 
L 332.373144 143.889226 
L 332.96217 143.889226 
L 332.96217 146.783894 
L 333.551196 146.783894 
L 333.551196 146.617278 
L 334.140222 146.617278 
L 334.140222 146.885067 
L 334.729248 146.885067 
L 334.729248 146.432889 
L 335.9073 146.391179 
L 335.9073 145.253943 
L 336.496326 145.253943 
L 336.496326 146.046931 
L 337.085352 146.046931 
L 337.085352 146.600604 
L 337.674378 146.600604 
L 337.674378 146.44072 
L 338.263404 146.44072 
L 338.263404 146.109317 
L 338.85243 146.109317 
L 338.85243 145.674132 
L 339.441456 145.674132 
L 339.441456 145.789204 
L 340.030482 145.789204 
L 340.030482 145.042645 
L 341.208534 145.130483 
L 341.208534 144.58771 
L 341.79756 144.58771 
L 341.79756 143.919127 
L 342.386586 143.919127 
L 342.386586 142.92308 
L 342.975612 142.92308 
L 342.975612 142.04188 
L 343.564638 142.04188 
L 343.564638 139.335396 
L 344.153664 139.335396 
L 344.153664 135.146995 
L 344.74269 135.146995 
L 344.74269 136.03177 
L 345.331716 136.03177 
L 345.331716 140.54223 
L 345.920742 140.54223 
L 345.920742 139.904907 
L 346.509768 139.904907 
L 346.509768 139.474419 
L 347.098794 139.474419 
L 347.098794 139.623699 
L 347.68782 139.623699 
L 347.68782 137.592875 
L 348.276846 137.592875 
L 348.276846 137.338267 
L 348.865872 137.338267 
L 348.865872 136.035393 
L 349.454898 136.035393 
L 349.454898 134.561942 
L 350.043924 134.561942 
L 350.043924 133.765289 
L 350.63295 133.765289 
L 350.63295 132.721275 
L 351.221976 132.721275 
L 351.221976 133.537369 
L 351.811002 133.537369 
L 351.811002 132.768707 
L 352.400028 132.768707 
L 352.400028 133.772685 
L 353.57808 133.794425 
L 353.57808 133.957068 
L 354.167106 133.957068 
L 354.167106 133.082018 
L 354.756132 133.082018 
L 354.756132 133.943542 
L 355.345158 133.943542 
L 355.345158 136.111106 
L 355.934184 136.111106 
L 355.934184 136.319493 
L 356.523209 136.319493 
L 356.523209 135.793073 
L 357.112235 135.793073 
L 357.112235 136.578408 
L 357.701261 136.578408 
L 357.701261 137.016065 
L 358.290287 137.016065 
L 358.290287 136.663682 
L 358.879313 136.663682 
L 358.879313 136.503031 
L 359.468339 136.503031 
L 359.468339 135.410655 
L 360.057365 135.410655 
L 360.057365 134.39481 
L 361.235417 134.429653 
L 361.235417 133.848648 
L 361.824443 133.848648 
L 361.824443 134.274991 
L 362.413469 134.274991 
L 362.413469 135.088159 
L 363.002495 135.088159 
L 363.002495 134.58552 
L 364.180547 134.634206 
L 364.180547 134.976402 
L 364.769573 134.976402 
L 364.769573 134.566752 
L 365.947625 134.539353 
L 365.947625 134.694626 
L 366.536651 134.694626 
L 366.536651 134.465036 
L 367.714703 134.39624 
L 367.714703 134.268829 
L 368.303729 134.268829 
L 368.303729 133.948205 
L 368.892755 133.948205 
L 368.892755 133.647329 
L 369.481781 133.647329 
L 369.481781 132.926744 
L 370.070807 132.926744 
L 370.070807 133.222757 
L 370.659833 133.222757 
L 370.659833 132.878937 
L 371.248859 132.878937 
L 371.248859 133.040078 
L 371.837885 133.040078 
L 371.837885 132.543093 
L 372.426911 132.543093 
L 372.426911 132.754641 
L 373.015937 132.754641 
L 373.015937 132.8754 
L 373.604963 132.8754 
L 373.604963 133.316532 
L 374.193989 133.316532 
L 374.193989 133.069963 
L 374.783015 133.069963 
L 374.783015 130.454174 
L 375.372041 130.454174 
L 375.372041 129.434672 
L 375.961067 129.434672 
L 375.961067 127.801074 
L 376.550093 127.801074 
L 376.550093 128.00004 
L 377.139119 128.00004 
L 377.139119 124.590979 
L 377.728145 124.590979 
L 377.728145 122.72857 
L 378.317171 122.72857 
L 378.317171 127.49158 
L 378.906197 127.49158 
L 378.906197 126.266876 
L 379.495223 126.266876 
L 379.495223 125.101367 
L 380.084249 125.101367 
L 380.084249 124.68503 
L 380.673275 124.68503 
L 380.673275 125.250347 
L 382.440353 125.301163 
L 382.440353 125.114865 
L 383.029378 125.114865 
L 383.029378 125.296318 
L 383.618404 125.296318 
L 383.618404 125.476985 
L 384.20743 125.476985 
L 384.20743 127.065375 
L 384.796456 127.065375 
L 384.796456 128.18211 
L 385.385482 128.18211 
L 385.385482 127.757887 
L 386.563534 127.814117 
L 386.563534 128.245157 
L 387.15256 128.245157 
L 387.15256 128.02466 
L 388.330612 128.076426 
L 388.330612 128.22482 
L 389.508664 128.207305 
L 389.508664 126.979565 
L 390.09769 126.979565 
L 390.09769 126.540151 
L 390.686716 126.540151 
L 390.686716 126.952249 
L 391.864768 127.007578 
L 391.864768 127.448718 
L 392.453794 127.448718 
L 392.453794 127.024734 
L 394.220872 127.011866 
L 394.220872 126.773153 
L 394.809898 126.773153 
L 394.809898 126.10954 
L 395.398924 126.10954 
L 395.398924 125.989756 
L 395.98795 125.989756 
L 395.98795 126.308236 
L 396.576976 126.308236 
L 396.576976 125.834884 
L 397.166002 125.834884 
L 397.166002 124.569943 
L 397.755028 124.569943 
L 397.755028 123.415695 
L 398.344054 123.415695 
L 398.344054 124.063357 
L 398.93308 124.063357 
L 398.93308 123.556772 
L 399.522106 123.556772 
L 399.522106 124.151812 
L 400.111132 124.151812 
L 400.111132 123.135401 
L 401.87821 123.12915 
L 401.87821 123.321644 
L 402.467236 123.321644 
L 402.467236 122.437442 
L 403.645288 122.345512 
L 403.645288 122.300878 
L 404.234314 122.300878 
L 404.234314 122.101377 
L 404.82334 122.101377 
L 404.82334 121.714061 
L 405.412366 121.714061 
L 405.412366 118.821554 
L 406.001392 118.821554 
L 406.001392 118.465121 
L 406.590418 118.465121 
L 406.590418 117.735832 
L 407.179444 117.735832 
L 407.179444 114.943912 
L 407.76847 114.943912 
L 407.76847 118.897084 
L 408.357496 118.897084 
L 408.357496 121.350498 
L 408.946522 121.350498 
L 408.946522 120.737376 
L 409.535547 120.737376 
L 409.535547 119.226443 
L 410.124573 119.226443 
L 410.124573 119.49774 
L 410.713599 119.49774 
L 410.713599 118.719036 
L 411.302625 118.719036 
L 411.302625 117.353805 
L 411.891651 117.353805 
L 411.891651 116.798248 
L 412.480677 116.798248 
L 412.480677 117.31474 
L 413.069703 117.31474 
L 413.069703 116.994925 
L 413.658729 116.994925 
L 413.658729 115.955138 
L 414.247755 115.955138 
L 414.247755 114.659904 
L 414.836781 114.659904 
L 414.836781 114.213252 
L 415.425807 114.213252 
L 415.425807 112.95463 
L 416.014833 112.95463 
L 416.014833 112.215352 
L 416.603859 112.215352 
L 416.603859 113.499741 
L 417.192885 113.499741 
L 417.192885 112.698917 
L 417.781911 112.698917 
L 417.781911 115.695677 
L 418.370937 115.695677 
L 418.370937 114.874691 
L 418.959963 114.874691 
L 418.959963 117.79883 
L 419.548989 117.79883 
L 419.548989 116.237835 
L 420.138015 116.237835 
L 420.138015 115.477701 
L 420.727041 115.477701 
L 420.727041 113.472205 
L 421.316067 113.472205 
L 421.316067 113.201232 
L 421.905093 113.201232 
L 421.905093 113.868202 
L 422.494119 113.868202 
L 422.494119 113.347262 
L 423.083145 113.347262 
L 423.083145 112.820031 
L 423.672171 112.820031 
L 423.672171 111.949557 
L 424.261197 111.949557 
L 424.261197 110.937153 
L 424.850223 110.937153 
L 424.850223 108.406962 
L 425.439249 108.406962 
L 425.439249 106.975718 
L 426.028275 106.975718 
L 426.028275 106.475211 
L 426.617301 106.475211 
L 426.617301 106.285513 
L 427.206327 106.285513 
L 427.206327 103.047775 
L 427.795353 103.047775 
L 427.795353 99.3059 
L 428.384379 99.3059 
L 428.384379 101.434165 
L 428.973405 101.434165 
L 428.973405 99.401745 
L 429.562431 99.401745 
L 429.562431 97.13193 
L 430.151457 97.13193 
L 430.151457 96.217978 
L 430.740483 96.217978 
L 430.740483 97.080942 
L 431.329509 97.080942 
L 431.329509 97.653341 
L 431.918535 97.653341 
L 431.918535 97.434209 
L 432.507561 97.434209 
L 432.507561 98.650574 
L 433.096587 98.650574 
L 433.096587 98.335587 
L 434.274639 98.27076 
L 434.274639 98.643931 
L 434.863665 98.643931 
L 434.863665 100.241902 
L 435.45269 100.241902 
L 435.45269 103.415545 
L 436.041716 103.415545 
L 436.041716 100.642127 
L 436.630742 100.642127 
L 436.630742 96.76984 
L 437.219768 96.76984 
L 437.219768 97.450487 
L 437.808794 97.450487 
L 437.808794 95.952053 
L 438.986846 95.996737 
L 438.986846 92.456833 
L 439.575872 92.456833 
L 439.575872 89.922675 
L 440.164898 89.922675 
L 440.164898 87.454791 
L 440.753924 87.454791 
L 440.753924 88.981725 
L 441.34295 88.981725 
L 441.34295 87.657344 
L 441.931976 87.657344 
L 441.931976 87.450855 
L 442.521002 87.450855 
L 442.521002 85.15428 
L 443.110028 85.15428 
L 443.110028 87.412634 
L 443.699054 87.412634 
L 443.699054 87.661505 
L 444.28808 87.661505 
L 444.28808 89.939767 
L 444.877106 89.939767 
L 444.877106 90.931296 
L 445.466132 90.931296 
L 445.466132 91.358385 
L 446.055158 91.358385 
L 446.055158 89.596785 
L 446.644184 89.596785 
L 446.644184 88.44718 
L 447.23321 88.44718 
L 447.23321 87.766017 
L 447.822236 87.766017 
L 447.822236 87.165508 
L 448.411262 87.165508 
L 448.411262 85.509309 
L 449.000288 85.509309 
L 449.000288 82.188887 
L 450.17834 82.169648 
L 450.17834 81.46695 
L 450.767366 81.46695 
L 450.767366 81.91558 
L 451.356392 81.91558 
L 451.356392 79.789478 
L 451.945418 79.789478 
L 451.945418 77.024161 
L 452.534444 77.024161 
L 452.534444 76.747511 
L 453.12347 76.747511 
L 453.12347 81.502657 
L 453.712496 81.502657 
L 453.712496 75.7017 
L 454.301522 75.7017 
L 454.301522 74.771576 
L 455.479574 74.844677 
L 455.479574 71.064047 
L 456.0686 71.064047 
L 456.0686 69.151492 
L 456.657626 69.151492 
L 456.657626 64.386582 
L 457.246652 64.386582 
L 457.246652 62.688359 
L 457.835678 62.688359 
L 457.835678 60.983079 
L 458.424704 60.983079 
L 458.424704 58.138856 
L 459.01373 58.138856 
L 459.01373 64.484215 
L 459.602756 64.484215 
L 459.602756 61.894793 
L 460.191782 61.894793 
L 460.191782 66.252362 
L 460.780808 66.252362 
L 460.780808 62.727887 
L 461.369834 62.727887 
L 461.369834 61.247552 
L 461.958859 61.247552 
L 461.958859 65.211162 
L 462.547885 65.211162 
L 462.547885 64.810286 
L 463.136911 64.810286 
L 463.136911 68.090569 
L 463.725937 68.090569 
L 463.725937 69.30141 
L 464.314963 69.30141 
L 464.314963 68.221789 
L 464.903989 68.221789 
L 464.903989 70.49668 
L 465.493015 70.49668 
L 465.493015 74.870838 
L 466.671067 74.766061 
L 466.671067 73.244809 
L 467.260093 73.244809 
L 467.260093 70.546677 
L 467.849119 70.546677 
L 467.849119 68.549271 
L 468.438145 68.549271 
L 468.438145 71.511708 
L 469.027171 71.511708 
L 469.027171 70.246729 
L 469.616197 70.246729 
L 469.616197 68.072613 
L 470.205223 68.072613 
L 470.205223 72.301956 
L 470.794249 72.301956 
L 470.794249 72.724154 
L 471.383275 72.724154 
L 471.383275 74.638186 
L 471.972301 74.638186 
L 471.972301 73.212796 
L 472.561327 73.212796 
L 472.561327 74.076805 
L 473.150353 74.076805 
L 473.150353 75.494465 
L 473.739379 75.494465 
L 473.739379 78.54452 
L 474.328405 78.54452 
L 474.328405 78.664803 
L 475.506457 78.671444 
L 475.506457 75.634412 
L 476.684509 75.604146 
L 476.684509 73.16643 
L 477.273535 73.16643 
L 477.273535 73.302485 
L 477.862561 73.302485 
L 477.862561 72.143847 
L 478.451587 72.143847 
L 478.451587 71.401356 
L 479.040613 71.401356 
L 479.040613 72.206257 
L 479.629639 72.206257 
L 479.629639 74.400786 
L 480.218665 74.400786 
L 480.218665 74.224505 
L 480.807691 74.224505 
L 480.807691 74.773374 
L 481.396717 74.773374 
L 481.396717 76.631272 
L 481.985743 76.631272 
L 481.985743 77.082516 
L 482.574769 77.082516 
L 482.574769 76.690684 
L 483.752821 76.675153 
L 483.752821 76.356856 
L 484.341847 76.356856 
L 484.341847 79.366528 
L 484.930873 79.366528 
L 484.930873 79.564088 
L 485.519899 79.564088 
L 485.519899 78.741178 
L 486.108925 78.741178 
L 486.108925 80.614853 
L 486.697951 80.614853 
L 486.697951 81.543299 
L 487.286977 81.543299 
L 487.286977 79.143313 
L 488.465028 79.136816 
L 488.465028 80.062286 
L 489.054054 80.062286 
L 489.054054 80.318434 
L 489.64308 80.318434 
L 489.64308 77.010244 
L 490.821132 76.91388 
L 490.821132 75.52169 
L 491.410158 75.52169 
L 491.410158 74.945626 
L 491.999184 74.945626 
L 491.999184 76.891962 
L 492.58821 76.891962 
L 492.58821 78.867778 
L 493.177236 78.867778 
L 493.177236 80.385824 
L 493.766262 80.385824 
L 493.766262 80.248587 
L 494.355288 80.248587 
L 494.355288 79.570571 
L 494.944314 79.570571 
L 494.944314 79.449344 
L 495.53334 79.449344 
L 495.53334 78.329421 
L 496.122366 78.329421 
L 496.122366 77.991228 
L 496.711392 77.991228 
L 496.711392 77.042659 
L 497.300418 77.042659 
L 497.300418 80.52715 
L 497.889444 80.52715 
L 497.889444 80.07251 
L 498.47847 80.07251 
L 498.47847 79.537282 
L 499.656522 79.541444 
L 499.656522 79.273675 
L 500.245548 79.273675 
L 500.245548 79.136604 
L 500.834574 79.136604 
L 500.834574 79.463621 
L 501.4236 79.463621 
L 501.4236 79.303603 
L 502.601652 79.280917 
L 502.601652 80.266194 
L 503.190678 80.266194 
L 503.190678 79.499587 
L 504.36873 79.548012 
L 504.36873 79.615114 
L 504.957756 79.615114 
L 504.957756 80.150007 
L 505.546782 80.150007 
L 505.546782 79.961184 
L 506.135808 79.961184 
L 506.135808 79.416011 
L 506.724834 79.416011 
L 506.724834 79.813029 
L 507.31386 79.813029 
L 507.31386 82.305209 
L 507.902886 82.305209 
L 507.902886 85.39909 
L 508.491912 85.39909 
L 508.491912 87.559515 
L 509.080938 87.559515 
L 509.080938 90.131213 
L 509.669964 90.131213 
L 509.669964 88.332941 
L 510.25899 88.332941 
L 510.25899 90.572721 
L 510.848016 90.572721 
L 510.848016 91.42792 
L 511.437042 91.42792 
L 511.437042 93.057066 
L 512.026068 93.057066 
L 512.026068 91.606765 
L 512.615094 91.606765 
L 512.615094 89.761224 
L 513.20412 89.761224 
L 513.20412 90.1675 
L 513.793146 90.1675 
L 513.793146 90.437443 
L 514.382171 90.437443 
L 514.382171 89.600198 
L 514.971197 89.600198 
L 514.971197 88.897089 
L 515.560223 88.897089 
L 515.560223 91.107828 
L 516.149249 91.107828 
L 516.149249 90.9098 
L 516.738275 90.9098 
L 516.738275 91.220862 
L 517.327301 91.220862 
L 517.327301 91.434005 
L 518.505353 91.495794 
L 518.505353 92.100143 
L 519.683405 92.180998 
L 519.683405 92.539203 
L 520.272431 92.539203 
L 520.272431 91.200213 
L 520.861457 91.200213 
L 520.861457 91.317933 
L 521.450483 91.317933 
L 521.450483 89.624566 
L 522.039509 89.624566 
L 522.039509 88.566187 
L 522.628535 88.566187 
L 522.628535 90.106222 
L 523.806587 90.203906 
L 523.806587 89.828152 
L 524.984639 89.857701 
L 524.984639 89.573775 
L 525.573665 89.573775 
L 525.573665 89.108037 
L 527.340743 89.011831 
L 527.340743 88.689654 
L 527.929769 88.689654 
L 527.929769 85.142736 
L 528.518795 85.142736 
L 528.518795 83.735537 
L 529.107821 83.735537 
L 529.107821 84.49428 
L 529.696847 84.49428 
L 529.696847 84.01136 
L 530.285873 84.01136 
L 530.285873 83.581903 
L 530.874899 83.581903 
L 530.874899 83.116151 
L 531.463925 83.116151 
L 531.463925 83.612067 
L 532.052951 83.612067 
L 532.052951 83.279093 
L 532.641977 83.279093 
L 532.641977 82.21431 
L 533.231003 82.21431 
L 533.231003 80.00304 
L 533.820029 80.00304 
L 533.820029 75.388739 
L 534.409055 75.388739 
L 534.409055 77.300523 
L 534.998081 77.300523 
L 534.998081 76.329549 
L 535.587107 76.329549 
L 535.587107 73.588391 
L 536.176133 73.588391 
L 536.176133 74.699661 
L 536.765159 74.699661 
L 536.765159 75.035462 
L 537.354185 75.035462 
L 537.354185 75.374711 
L 537.943211 75.374711 
L 537.943211 75.577846 
L 538.532237 75.577846 
L 538.532237 73.326593 
L 539.121263 73.326593 
L 539.121263 72.394101 
L 539.710289 72.394101 
L 539.710289 69.332889 
L 540.299315 69.332889 
L 540.299315 68.751771 
L 540.88834 68.751771 
L 540.88834 69.774352 
L 541.477366 69.774352 
L 541.477366 69.074026 
L 542.066392 69.074026 
L 542.066392 66.293311 
L 542.655418 66.293311 
L 542.655418 68.295987 
L 543.244444 68.295987 
L 543.244444 71.56439 
L 543.83347 71.56439 
L 543.83347 69.757906 
L 544.422496 69.757906 
L 544.422496 71.152746 
L 545.011522 71.152746 
L 545.011522 71.925688 
L 545.600548 71.925688 
L 545.600548 69.867663 
L 546.189574 69.867663 
L 546.189574 68.161783 
L 546.7786 68.161783 
L 546.7786 68.484832 
L 547.367626 68.484832 
L 547.367626 70.867214 
L 547.956652 70.867214 
L 547.956652 70.274935 
L 548.545678 70.274935 
L 548.545678 70.678119 
L 549.134704 70.678119 
L 549.134704 70.192254 
L 549.72373 70.192254 
L 549.72373 71.764738 
L 550.312756 71.764738 
L 550.312756 69.693916 
L 550.901782 69.693916 
L 550.901782 69.948362 
L 551.490808 69.948362 
L 551.490808 70.584572 
L 552.079834 70.584572 
L 552.079834 70.288858 
L 553.257886 70.356086 
L 553.257886 71.545559 
L 553.846912 71.545559 
L 553.846912 74.890773 
L 554.435938 74.890773 
L 554.435938 74.577861 
L 555.024964 74.577861 
L 555.024964 75.004046 
L 555.61399 75.004046 
L 555.61399 73.950094 
L 556.203016 73.950094 
L 556.203016 74.67232 
L 556.792042 74.67232 
L 556.792042 75.179121 
L 557.381068 75.179121 
L 557.381068 74.820938 
L 557.970094 74.820938 
L 557.970094 73.766993 
L 558.55912 73.766993 
L 558.55912 72.069504 
L 559.148146 72.069504 
L 559.148146 72.352109 
L 560.326198 72.261529 
L 560.326198 72.928951 
L 560.915224 72.928951 
L 560.915224 73.846811 
L 561.50425 73.846811 
L 561.50425 74.9346 
L 562.093276 74.9346 
L 562.093276 77.241888 
L 562.682302 77.241888 
L 562.682302 77.582093 
L 563.271328 77.582093 
L 563.271328 76.509502 
L 563.860354 76.509502 
L 563.860354 77.500563 
L 564.44938 77.500563 
L 564.44938 76.603349 
L 565.038406 76.603349 
L 565.038406 77.510841 
L 565.627432 77.510841 
L 565.627432 78.392555 
L 566.216458 78.392555 
L 566.216458 77.508027 
L 566.805484 77.508027 
L 566.805484 77.34015 
L 567.394509 77.34015 
L 567.394509 77.201466 
L 567.983535 77.201466 
L 567.983535 77.548431 
L 568.572561 77.548431 
L 568.572561 77.063409 
L 569.161587 77.063409 
L 569.161587 75.83155 
L 569.750613 75.83155 
L 569.750613 75.10867 
L 570.339639 75.10867 
L 570.339639 73.23441 
L 570.928665 73.23441 
L 570.928665 73.639212 
L 571.517691 73.639212 
L 571.517691 74.56718 
L 572.106717 74.56718 
L 572.106717 72.398179 
L 573.284769 72.323318 
L 573.284769 71.396613 
L 573.873795 71.396613 
L 573.873795 71.194123 
L 574.462821 71.194123 
L 574.462821 70.176312 
L 575.051847 70.176312 
L 575.051847 70.542565 
L 575.640873 70.542565 
L 575.640873 71.574019 
L 576.229899 71.574019 
L 576.229899 73.494474 
L 576.818925 73.494474 
L 576.818925 74.075843 
L 577.407951 74.075843 
L 577.407951 72.861976 
L 577.996977 72.861976 
L 577.996977 75.541553 
L 578.586003 75.541553 
L 578.586003 82.481896 
L 579.175029 82.481896 
L 579.175029 83.400408 
L 579.764055 83.400408 
L 579.764055 80.508406 
L 580.353081 80.508406 
L 580.353081 78.926804 
L 580.942107 78.926804 
L 580.942107 81.518543 
L 581.531133 81.518543 
L 581.531133 78.598658 
L 582.120159 78.598658 
L 582.120159 77.086225 
L 582.709185 77.086225 
L 582.709185 78.410905 
L 583.887237 78.414665 
L 583.887237 77.316215 
L 584.476263 77.316215 
L 584.476263 77.673559 
L 585.065289 77.673559 
L 585.065289 76.13785 
L 585.654315 76.13785 
L 585.654315 73.855049 
L 586.243341 73.855049 
L 586.243341 73.266863 
L 586.832367 73.266863 
L 586.832367 71.261284 
L 587.421393 71.261284 
L 587.421393 73.428447 
L 588.010419 73.428447 
L 588.010419 72.17093 
L 588.599445 72.17093 
L 588.599445 71.906009 
L 589.188471 71.906009 
L 589.188471 73.619772 
L 589.777497 73.619772 
L 589.777497 71.783106 
L 590.366523 71.783106 
L 590.366523 70.496229 
L 590.955549 70.496229 
L 590.955549 71.669276 
L 591.544575 71.669276 
L 591.544575 71.356639 
L 592.133601 71.356639 
L 592.133601 71.984439 
L 593.311652 72.023993 
L 593.311652 72.387456 
L 594.489704 72.482444 
L 594.489704 72.603098 
L 595.07873 72.603098 
L 595.07873 72.850869 
L 595.667756 72.850869 
L 595.667756 72.449137 
L 596.845808 72.493046 
L 596.845808 72.585313 
L 598.02386 72.539289 
L 598.02386 71.691432 
L 598.612886 71.691432 
L 598.612886 68.915161 
L 599.201912 68.915161 
L 599.201912 68.375669 
L 599.790938 68.375669 
L 599.790938 68.641612 
L 600.379964 68.641612 
L 600.379964 67.641184 
L 600.96899 67.641184 
L 600.96899 67.974976 
L 601.558016 67.974976 
L 601.558016 67.393529 
L 602.736068 67.474705 
L 602.736068 67.647431 
L 603.325094 67.647431 
L 603.325094 68.041473 
L 603.91412 68.041473 
L 603.91412 67.378001 
L 604.503146 67.378001 
L 604.503146 70.58398 
L 605.092172 70.58398 
L 605.092172 70.44996 
L 605.681198 70.44996 
L 605.681198 70.249385 
L 606.270224 70.249385 
L 606.270224 69.094641 
L 606.85925 69.094641 
L 606.85925 70.057038 
L 607.448276 70.057038 
L 607.448276 69.559446 
L 608.037302 69.559446 
L 608.037302 69.284203 
L 608.626328 69.284203 
L 608.626328 69.825442 
L 609.215354 69.825442 
L 609.215354 69.600771 
L 609.80438 69.600771 
L 609.80438 68.317964 
L 610.393406 68.317964 
L 610.393406 68.095408 
L 610.982432 68.095408 
L 610.982432 67.657258 
L 611.571458 67.657258 
L 611.571458 65.731997 
L 612.160484 65.731997 
L 612.160484 64.666977 
L 612.74951 64.666977 
L 612.74951 64.435267 
L 613.338536 64.435267 
L 613.338536 63.940689 
L 613.927562 63.940689 
L 613.927562 62.135626 
L 614.516588 62.135626 
L 614.516588 61.120974 
L 615.105614 61.120974 
L 615.105614 60.599822 
L 615.69464 60.599822 
L 615.69464 58.377865 
L 616.283666 58.377865 
L 616.283666 57.864613 
L 616.872692 57.864613 
L 616.872692 59.428523 
L 617.461718 59.428523 
L 617.461718 57.807812 
L 618.050744 57.807812 
L 618.050744 57.651451 
L 618.63977 57.651451 
L 618.63977 58.854746 
L 619.228796 58.854746 
L 619.228796 57.75619 
L 619.817821 57.75619 
L 619.817821 54.088183 
L 620.406847 54.088183 
L 620.406847 53.513237 
L 620.995873 53.513237 
L 620.995873 51.424957 
L 621.584899 51.424957 
L 621.584899 49.67567 
L 622.173925 49.67567 
L 622.173925 46.987963 
L 622.762951 46.987963 
L 622.762951 43.394493 
L 623.351977 43.394493 
L 623.351977 45.500499 
L 623.941003 45.500499 
L 623.941003 44.789986 
L 624.530029 44.789986 
L 624.530029 45.234515 
L 625.119055 45.234515 
L 625.119055 47.542422 
L 625.708081 47.542422 
L 625.708081 48.619465 
L 626.297107 48.619465 
L 626.297107 46.905785 
L 626.886133 46.905785 
L 626.886133 44.695814 
L 627.475159 44.695814 
L 627.475159 40.178232 
L 628.064185 40.178232 
L 628.064185 39.705602 
L 628.653211 39.705602 
L 628.653211 39.005501 
L 629.242237 39.005501 
L 629.242237 36.395945 
L 629.831263 36.395945 
L 629.831263 38.417457 
L 630.420289 38.417457 
L 630.420289 40.725796 
L 631.009315 40.725796 
L 631.009315 39.297369 
L 631.598341 39.297369 
L 631.598341 37.765699 
L 632.187367 37.765699 
L 632.187367 35.953074 
L 632.776393 35.953074 
L 632.776393 36.086768 
L 633.365419 36.086768 
L 633.365419 35.663934 
L 633.954445 35.663934 
L 633.954445 37.685858 
L 634.543471 37.685858 
L 634.543471 36.473881 
L 635.132497 36.473881 
L 635.132497 35.440669 
L 636.310549 35.332804 
L 636.310549 35.658149 
L 636.899575 35.658149 
L 636.899575 33.861839 
L 637.488601 33.861839 
L 637.488601 34.985486 
L 638.077627 34.985486 
L 638.077627 37.195813 
L 638.666653 37.195813 
L 638.666653 39.039965 
L 639.255679 39.039965 
L 639.255679 37.279608 
L 639.844705 37.279608 
L 639.844705 35.967055 
L 641.022757 35.908699 
L 641.022757 36.129913 
L 641.611783 36.129913 
L 641.611783 40.018055 
L 642.200809 40.018055 
L 642.200809 44.716296 
L 642.789835 44.716296 
L 642.789835 45.950896 
L 643.378861 45.950896 
L 643.378861 43.92948 
L 643.967887 43.92948 
L 643.967887 44.529546 
L 644.556913 44.529546 
L 644.556913 44.759016 
L 645.145939 44.759016 
L 645.145939 46.717049 
L 645.734965 46.717049 
L 645.734965 45.528715 
L 646.32399 45.528715 
L 646.32399 43.992313 
L 646.913016 43.992313 
L 646.913016 45.473802 
L 647.502042 45.473802 
L 647.502042 46.017372 
L 648.680094 46.123296 
L 648.680094 46.475019 
L 649.26912 46.475019 
L 649.26912 46.266602 
L 649.858146 46.266602 
L 649.858146 46.67794 
L 650.447172 46.67794 
L 650.447172 47.101272 
L 651.036198 47.101272 
L 651.036198 47.740726 
L 651.625224 47.740726 
L 651.625224 47.419166 
L 652.21425 47.419166 
L 652.21425 44.525467 
L 652.803276 44.525467 
L 652.803276 42.05641 
L 653.392302 42.05641 
L 653.392302 44.090211 
L 653.981328 44.090211 
L 653.981328 40.939943 
L 654.570354 40.939943 
L 654.570354 40.506118 
L 655.15938 40.506118 
L 655.15938 39.881461 
L 655.748406 39.881461 
L 655.748406 40.018882 
L 656.337432 40.018882 
L 656.337432 38.85799 
L 656.926458 38.85799 
L 656.926458 39.047607 
L 657.515484 39.047607 
L 657.515484 39.839172 
L 658.10451 39.839172 
L 658.10451 38.68729 
L 658.693536 38.68729 
L 658.693536 40.302128 
L 659.871588 40.310502 
L 659.871588 39.573617 
L 660.460614 39.573617 
L 660.460614 41.732892 
L 661.638666 41.773082 
L 661.638666 42.635465 
L 662.227692 42.635465 
L 662.227692 39.598009 
L 662.816718 39.598009 
L 662.816718 36.632468 
L 663.405744 36.632468 
L 663.405744 36.894017 
L 663.99477 36.894017 
L 663.99477 35.902602 
L 664.583796 35.902602 
L 664.583796 34.366979 
L 665.172822 34.366979 
L 665.172822 34.783191 
L 665.761848 34.783191 
L 665.761848 34.899645 
L 666.350874 34.899645 
L 666.350874 34.444793 
L 666.9399 34.444793 
L 666.9399 34.051689 
L 668.117952 33.94433 
L 668.117952 33.461115 
L 668.706978 33.461115 
L 668.706978 33.852447 
L 669.296004 33.852447 
L 669.296004 35.647658 
L 669.88503 35.647658 
L 669.88503 35.839723 
L 670.474056 35.839723 
L 670.474056 36.829806 
L 671.063082 36.829806 
L 671.063082 35.961304 
L 671.652108 35.961304 
L 671.652108 38.915935 
L 672.241133 38.915935 
L 672.241133 39.626322 
L 672.830159 39.626322 
L 672.830159 40.009268 
L 673.419185 40.009268 
L 673.419185 40.260821 
L 674.008211 40.260821 
L 674.008211 39.097597 
L 674.597237 39.097597 
L 674.597237 38.478457 
L 675.186263 38.478457 
L 675.186263 40.158988 
L 675.775289 40.158988 
L 675.775289 39.766251 
L 676.364315 39.766251 
L 676.364315 41.630879 
L 676.953341 41.630879 
L 676.953341 42.230411 
L 677.542367 42.230411 
L 677.542367 41.640756 
L 678.131393 41.640756 
L 678.131393 41.977176 
L 678.720419 41.977176 
L 678.720419 45.769103 
L 679.309445 45.769103 
L 679.309445 44.792716 
L 679.898471 44.792716 
L 679.898471 44.205754 
L 680.487497 44.205754 
L 680.487497 44.64699 
L 681.076523 44.64699 
L 681.076523 41.302234 
L 681.665549 41.302234 
L 681.665549 41.967826 
L 682.254575 41.967826 
L 682.254575 40.983936 
L 682.843601 40.983936 
L 682.843601 43.077952 
L 683.432627 43.077952 
L 683.432627 44.53978 
L 684.021653 44.53978 
L 684.021653 44.319141 
L 684.610679 44.319141 
L 684.610679 41.938028 
L 685.199705 41.938028 
L 685.199705 44.145692 
L 685.788731 44.145692 
L 685.788731 43.775993 
L 686.377757 43.775993 
L 686.377757 43.478474 
L 686.966783 43.478474 
L 686.966783 42.052534 
L 687.555809 42.052534 
L 687.555809 41.731258 
L 688.144835 41.731258 
L 688.144835 39.965862 
L 688.733861 39.965862 
L 688.733861 40.537864 
L 689.322887 40.537864 
L 689.322887 40.071832 
L 689.911913 40.071832 
L 689.911913 42.025693 
L 690.500939 42.025693 
L 690.500939 43.084369 
L 691.089965 43.084369 
L 691.089965 42.941748 
L 691.678991 42.941748 
L 691.678991 42.458177 
L 692.268017 42.458177 
L 692.268017 43.404879 
L 692.857043 43.404879 
L 692.857043 43.250954 
L 693.446069 43.250954 
L 693.446069 43.895458 
L 694.035095 43.895458 
L 694.035095 45.238463 
L 694.624121 45.238463 
L 694.624121 48.238099 
L 695.213147 48.238099 
L 695.213147 48.847626 
L 695.802173 48.847626 
L 695.802173 49.797937 
L 696.391199 49.797937 
L 696.391199 48.712009 
L 696.980225 48.712009 
L 696.980225 49.442895 
L 697.569251 49.442895 
L 697.569251 47.783566 
L 698.158277 47.783566 
L 698.158277 49.110975 
L 698.747302 49.110975 
L 698.747302 48.164653 
L 699.336328 48.164653 
L 699.336328 50.034292 
L 699.925354 50.034292 
L 699.925354 54.614113 
L 700.51438 54.614113 
L 700.51438 56.484341 
L 701.103406 56.484341 
L 701.103406 55.957072 
L 701.692432 55.957072 
L 701.692432 56.327142 
L 702.281458 56.327142 
L 702.281458 57.808094 
L 702.870484 57.808094 
L 702.870484 56.836968 
L 703.45951 56.836968 
L 703.45951 55.493026 
L 704.048536 55.493026 
L 704.048536 56.795548 
L 704.637562 56.795548 
L 704.637562 56.257605 
L 705.226588 56.257605 
L 705.226588 54.085329 
L 705.815614 54.085329 
L 705.815614 55.756335 
L 706.40464 55.756335 
L 706.40464 53.54099 
L 706.993666 53.54099 
L 706.993666 54.234946 
L 708.171718 54.265105 
L 708.171718 53.400127 
L 708.760744 53.400127 
L 708.760744 53.105575 
L 709.34977 53.105575 
L 709.34977 54.050844 
L 709.938796 54.050844 
L 709.938796 55.660458 
L 710.527822 55.660458 
L 710.527822 56.786013 
L 711.116848 56.786013 
L 711.116848 57.226672 
L 712.2949 57.184298 
L 712.2949 57.752564 
L 712.883926 57.752564 
L 712.883926 55.297323 
L 713.472952 55.297323 
L 713.472952 57.326421 
L 714.061978 57.326421 
L 714.061978 57.482101 
L 714.651004 57.482101 
L 714.651004 57.752045 
L 715.24003 57.752045 
L 715.24003 57.935388 
L 715.829056 57.935388 
L 715.829056 57.716642 
L 716.418082 57.716642 
L 716.418082 56.850985 
L 717.007108 56.850985 
L 717.007108 57.585183 
L 718.774186 57.475163 
L 718.774186 57.865846 
L 719.363212 57.865846 
L 719.363212 56.917156 
L 719.952238 56.917156 
L 719.952238 56.21722 
L 720.541264 56.21722 
L 720.541264 56.864695 
L 721.13029 56.864695 
L 721.13029 56.117241 
L 721.719316 56.117241 
L 721.719316 59.63537 
L 722.308342 59.63537 
L 722.308342 60.764787 
L 722.897368 60.764787 
L 722.897368 60.650097 
L 723.486394 60.650097 
L 723.486394 61.245276 
L 724.07542 61.245276 
L 724.07542 60.927835 
L 724.664446 60.927835 
L 724.664446 60.073343 
L 727.020549 60.031104 
L 727.020549 60.70494 
L 727.609575 60.70494 
L 727.609575 60.386024 
L 728.787627 60.465016 
L 728.787627 60.823651 
L 729.965679 60.73372 
L 729.965679 60.478926 
L 730.554705 60.478926 
L 730.554705 60.048338 
L 731.143731 60.048338 
L 731.143731 57.085162 
L 731.732757 57.085162 
L 731.732757 55.903123 
L 732.321783 55.903123 
L 732.321783 54.418161 
L 732.910809 54.418161 
L 732.910809 54.14107 
L 733.499835 54.14107 
L 733.499835 53.571445 
L 734.088861 53.571445 
L 734.088861 53.827217 
L 734.677887 53.827217 
L 734.677887 54.425867 
L 735.266913 54.425867 
L 735.266913 55.441172 
L 735.855939 55.441172 
L 735.855939 54.917476 
L 736.444965 54.917476 
L 736.444965 52.837973 
L 737.033991 52.837973 
L 737.033991 53.2123 
L 737.623017 53.2123 
L 737.623017 53.734608 
L 738.801069 53.816161 
L 738.801069 54.738995 
L 739.390095 54.738995 
L 739.390095 56.794399 
L 739.979121 56.794399 
L 739.979121 52.73621 
L 740.568147 52.73621 
L 740.568147 51.025874 
L 741.157173 51.025874 
L 741.157173 50.78166 
L 741.746199 50.78166 
L 741.746199 50.279327 
L 742.924251 50.255579 
L 742.924251 50.421182 
L 744.102303 50.332539 
L 744.102303 48.741108 
L 745.280355 48.685316 
L 745.280355 49.694433 
L 745.869381 49.694433 
L 745.869381 50.574259 
L 746.458407 50.574259 
L 746.458407 49.247346 
L 747.047433 49.247346 
L 747.047433 50.217327 
L 747.636459 50.217327 
L 747.636459 49.209993 
L 748.225485 49.209993 
L 748.225485 50.538329 
L 748.814511 50.538329 
L 748.814511 51.167033 
L 749.403537 51.167033 
L 749.403537 50.714329 
L 749.992563 50.714329 
L 749.992563 51.189006 
L 750.581589 51.189006 
L 750.581589 51.39916 
L 751.170614 51.39916 
L 751.170614 50.462698 
L 751.75964 50.462698 
L 751.75964 50.821593 
L 752.937692 50.827687 
L 752.937692 51.877199 
L 753.526718 51.877199 
L 753.526718 52.447519 
L 754.115744 52.447519 
L 754.115744 51.505504 
L 754.70477 51.505504 
L 754.70477 48.961751 
L 755.293796 48.961751 
L 755.293796 48.720107 
L 755.882822 48.720107 
L 755.882822 48.585039 
L 756.471848 48.585039 
L 756.471848 48.386622 
L 757.060874 48.386622 
L 757.060874 48.754646 
L 757.6499 48.754646 
L 757.6499 48.637599 
L 758.827952 48.737598 
L 758.827952 49.029808 
L 759.416978 49.029808 
L 759.416978 49.453532 
L 760.59503 49.359234 
L 760.59503 49.109726 
L 761.184056 49.109726 
L 761.184056 49.543249 
L 761.773082 49.543249 
L 761.773082 49.189362 
L 762.362108 49.189362 
L 762.362108 49.3813 
L 762.951134 49.3813 
L 762.951134 51.259884 
L 763.54016 51.259884 
L 763.54016 51.668657 
L 764.718212 51.725466 
L 764.718212 50.472396 
L 765.307238 50.472396 
L 765.307238 51.864599 
L 767.074316 51.8927 
L 767.074316 51.354783 
L 767.663342 51.354783 
L 767.663342 51.183624 
L 768.252368 51.183624 
L 768.252368 51.320214 
L 768.841394 51.320214 
L 768.841394 51.600224 
L 769.43042 51.600224 
L 769.43042 51.029557 
L 770.019446 51.029557 
L 770.019446 50.424546 
L 771.197498 50.324199 
L 771.197498 51.187441 
L 771.786524 51.187441 
L 771.786524 49.912545 
L 772.37555 49.912545 
L 772.37555 49.110408 
L 772.964576 49.110408 
L 772.964576 46.447949 
L 774.142628 46.337173 
L 774.142628 45.559429 
L 774.731654 45.559429 
L 774.731654 45.782288 
L 775.32068 45.782288 
L 775.32068 44.862049 
L 777.087758 44.901357 
L 777.087758 45.352285 
L 777.676783 45.352285 
L 777.676783 44.268009 
L 778.854835 44.232842 
L 778.854835 43.147477 
L 779.443861 43.147477 
L 779.443861 41.548339 
L 780.032887 41.548339 
L 780.032887 42.524837 
L 780.621913 42.524837 
L 780.621913 42.189432 
L 781.210939 42.189432 
L 781.210939 42.033426 
L 781.799965 42.033426 
L 781.799965 41.344173 
L 782.388991 41.344173 
L 782.388991 41.468907 
L 782.978017 41.468907 
L 782.978017 42.039555 
L 783.567043 42.039555 
L 783.567043 41.140191 
L 784.156069 41.140191 
L 784.156069 39.917241 
L 784.745095 39.917241 
L 784.745095 41.759791 
L 785.334121 41.759791 
L 785.334121 41.625413 
L 785.923147 41.625413 
L 785.923147 42.321358 
L 786.512173 42.321358 
L 786.512173 43.101212 
L 787.101199 43.101212 
L 787.101199 42.143586 
L 787.690225 42.143586 
L 787.690225 41.65852 
L 788.279251 41.65852 
L 788.279251 41.849134 
L 788.868277 41.849134 
L 788.868277 39.848234 
L 789.457303 39.848234 
L 789.457303 38.770928 
L 790.046329 38.770928 
L 790.046329 38.002222 
L 791.813407 37.985794 
L 791.813407 34.626921 
L 792.402433 34.626921 
L 792.402433 32.39675 
L 793.580485 32.41749 
L 793.580485 31.505466 
L 794.169511 31.505466 
L 794.169511 33.318032 
L 794.758537 33.318032 
L 794.758537 32.549792 
L 795.347563 32.549792 
L 795.347563 32.736864 
L 795.936589 32.736864 
L 795.936589 31.712319 
L 796.525615 31.712319 
L 796.525615 32.012747 
L 797.114641 32.012747 
L 797.114641 32.549721 
L 797.703667 32.549721 
L 797.703667 32.174183 
L 798.292693 32.174183 
L 798.292693 33.715737 
L 798.881719 33.715737 
L 798.881719 34.591585 
L 799.470745 34.591585 
L 799.470745 33.426862 
L 800.059771 33.426862 
L 800.059771 33.570305 
L 800.648797 33.570305 
L 800.648797 33.774332 
L 801.237823 33.774332 
L 801.237823 34.073841 
L 801.826849 34.073841 
L 801.826849 34.253605 
L 802.415875 34.253605 
L 802.415875 34.747348 
L 803.004901 34.747348 
L 803.004901 33.033161 
L 804.182952 33.025017 
L 804.182952 32.524704 
L 804.771978 32.524704 
L 804.771978 32.106969 
L 805.361004 32.106969 
L 805.361004 32.659967 
L 805.95003 32.659967 
L 805.95003 31.769425 
L 806.539056 31.769425 
L 806.539056 32.128992 
L 807.128082 32.128992 
L 807.128082 32.437178 
L 807.717108 32.437178 
L 807.717108 32.913262 
L 808.306134 32.913262 
L 808.306134 33.463747 
L 808.89516 33.463747 
L 808.89516 34.92144 
L 810.073212 34.909438 
L 810.073212 34.348633 
L 810.662238 34.348633 
L 810.662238 35.602153 
L 811.251264 35.602153 
L 811.251264 35.782448 
L 811.84029 35.782448 
L 811.84029 34.749858 
L 812.429316 34.749858 
L 812.429316 33.73174 
L 813.018342 33.73174 
L 813.018342 32.626657 
L 814.196394 32.532774 
L 814.196394 33.051048 
L 814.78542 33.051048 
L 814.78542 34.789917 
L 815.374446 34.789917 
L 815.374446 36.745077 
L 815.963472 36.745077 
L 815.963472 35.447462 
L 816.552498 35.447462 
L 816.552498 35.858777 
L 817.141524 35.858777 
L 817.141524 35.190253 
L 817.73055 35.190253 
L 817.73055 33.696253 
L 818.319576 33.696253 
L 818.319576 35.193314 
L 818.908602 35.193314 
L 818.908602 35.361718 
L 819.497628 35.361718 
L 819.497628 35.705012 
L 820.086654 35.705012 
L 820.086654 36.809342 
L 820.67568 36.809342 
L 820.67568 35.64646 
L 821.853732 35.626323 
L 821.853732 33.969671 
L 822.442758 33.969671 
L 822.442758 33.634778 
L 823.031784 33.634778 
L 823.031784 33.139462 
L 823.62081 33.139462 
L 823.62081 34.802204 
L 824.209836 34.802204 
L 824.209836 34.096256 
L 824.798862 34.096256 
L 824.798862 34.924862 
L 825.387888 34.924862 
L 825.387888 33.090867 
L 825.976914 33.090867 
L 825.976914 32.38254 
L 826.56594 32.38254 
L 826.56594 32.694641 
L 827.743992 32.798795 
L 827.743992 31.27132 
L 828.333018 31.27132 
L 828.333018 32.289673 
L 828.922044 32.289673 
L 828.922044 30.299405 
L 829.51107 30.299405 
L 829.51107 27.180553 
L 830.100095 27.180553 
L 830.100095 26.658369 
L 830.689121 26.658369 
L 830.689121 26.373116 
L 831.278147 26.373116 
L 831.278147 25.233636 
L 831.867173 25.233636 
L 831.867173 25.609949 
L 832.456199 25.609949 
L 832.456199 25.337003 
L 834.223277 25.297523 
L 834.223277 24.491571 
L 834.812303 24.491571 
L 834.812303 23.586855 
L 835.401329 23.586855 
L 835.401329 25.346699 
L 835.990355 25.346699 
L 835.990355 24.924032 
L 836.579381 24.924032 
L 836.579381 26.121666 
L 837.168407 26.121666 
L 837.168407 25.423666 
L 837.757433 25.423666 
L 837.757433 24.337063 
L 838.346459 24.337063 
L 838.346459 25.873486 
L 838.935485 25.873486 
L 838.935485 25.491296 
L 839.524511 25.491296 
L 839.524511 23.919231 
L 840.113537 23.919231 
L 840.113537 24.067841 
L 840.702563 24.067841 
L 840.702563 24.270709 
L 841.291589 24.270709 
L 841.291589 23.855056 
L 841.880615 23.855056 
L 841.880615 24.50199 
L 842.469641 24.50199 
L 842.469641 25.488483 
L 843.058667 25.488483 
L 843.058667 25.652782 
L 843.647693 25.652782 
L 843.647693 25.271223 
L 844.236719 25.271223 
L 844.236719 25.467314 
L 845.414771 25.543726 
L 845.414771 28.122026 
L 846.003797 28.122026 
L 846.003797 27.78511 
L 846.592823 27.78511 
L 846.592823 27.631272 
L 847.181849 27.631272 
L 847.181849 28.549278 
L 847.770875 28.549278 
L 847.770875 28.194622 
L 848.359901 28.194622 
L 848.359901 27.603109 
L 848.948927 27.603109 
L 848.948927 27.79086 
L 849.537953 27.79086 
L 849.537953 27.52942 
L 850.126979 27.52942 
L 850.126979 28.628761 
L 850.716005 28.628761 
L 850.716005 28.31314 
L 851.305031 28.31314 
L 851.305031 30.209848 
L 851.894057 30.209848 
L 851.894057 27.971769 
L 852.483083 27.971769 
L 852.483083 28.267427 
L 853.072109 28.267427 
L 853.072109 27.997767 
L 853.661135 27.997767 
L 853.661135 26.028875 
L 854.250161 26.028875 
L 854.250161 25.81108 
L 854.839187 25.81108 
L 854.839187 25.408497 
L 856.017239 25.430955 
L 856.017239 23.850792 
L 856.606264 23.850792 
L 856.606264 24.084244 
L 857.19529 24.084244 
L 857.19529 23.536214 
L 857.784316 23.536214 
L 857.784316 22.563278 
L 858.373342 22.563278 
L 858.373342 22.969087 
L 858.962368 22.969087 
L 858.962368 23.992494 
L 859.551394 23.992494 
L 859.551394 23.723455 
L 860.729446 23.685773 
L 860.729446 23.114651 
L 861.318472 23.114651 
L 861.318472 23.699869 
L 861.907498 23.699869 
L 861.907498 23.867227 
L 862.496524 23.867227 
L 862.496524 23.733748 
L 863.08555 23.733748 
L 863.08555 23.407606 
L 863.674576 23.407606 
L 863.674576 23.67197 
L 864.263602 23.67197 
L 864.263602 23.196894 
L 864.852628 23.196894 
L 864.852628 22.63816 
L 865.441654 22.63816 
L 865.441654 21.283255 
L 866.619706 21.252761 
L 866.619706 21.562443 
L 868.386784 21.480964 
L 868.386784 22.420458 
L 868.97581 22.420458 
L 868.97581 21.979852 
L 869.564836 21.979852 
L 869.564836 21.249643 
L 870.153862 21.249643 
L 870.153862 21.402591 
L 870.742888 21.402591 
L 870.742888 21.76739 
L 871.92094 21.66157 
L 871.92094 22.548708 
L 872.509966 22.548708 
L 872.509966 23.095814 
L 873.098992 23.095814 
L 873.098992 22.560524 
L 874.277044 22.661532 
L 874.277044 21.894154 
L 876.044122 21.864056 
L 876.044122 22.511697 
L 876.633148 22.511697 
L 876.633148 22.931157 
L 877.222174 22.931157 
L 877.222174 21.363749 
L 877.8112 21.363749 
L 877.8112 20.552727 
L 878.400226 20.552727 
L 878.400226 20.852518 
L 878.989252 20.852518 
L 878.989252 21.946446 
L 879.578278 21.946446 
L 879.578278 23.528444 
L 880.167304 23.528444 
L 880.167304 23.159011 
L 880.75633 23.159011 
L 880.75633 22.578441 
L 881.345356 22.578441 
L 881.345356 22.861951 
L 882.523408 22.765112 
L 882.523408 24.528115 
L 883.112433 24.528115 
L 883.112433 23.623438 
L 883.701459 23.623438 
L 883.701459 25.937762 
L 884.290485 25.937762 
L 884.290485 26.241358 
L 884.879511 26.241358 
L 884.879511 28.114511 
L 885.468537 28.114511 
L 885.468537 26.77875 
L 886.646589 26.81 
L 886.646589 26.392374 
L 887.194182 26.392374 
L 887.194182 26.392374 
" clip-path="url(#p7b2dcc5d06)" style="fill: none; stroke: #3572c6; stroke-width: 1.2; stroke-linecap: square"/>
   </g>
   <g id="line2d_79">
    <path d="M 75.557818 20.552727 
L 887.194182 20.552727 
L 887.194182 20.552727 
" clip-path="url(#p7b2dcc5d06)" style="fill: none; stroke: #83a83b; stroke-width: 1.2; stroke-linecap: square"/>
   </g>
   <g id="line2d_80">
    <path d="M 75.557818 28.114511 
L 887.194182 28.114511 
L 887.194182 28.114511 
" clip-path="url(#p7b2dcc5d06)" style="fill: none; stroke: #c44e52; stroke-width: 1.2; stroke-linecap: square"/>
   </g>
   <g id="line2d_81">
    <path d="M 878.400226 300.96 
L 878.400226 7.2 
" clip-path="url(#p7b2dcc5d06)" style="fill: none; stroke: #83a83b; stroke-width: 1.2; stroke-linecap: square"/>
   </g>
   <g id="line2d_82">
    <path d="M 885.468537 300.96 
L 885.468537 7.2 
" clip-path="url(#p7b2dcc5d06)" style="fill: none; stroke: #c44e52; stroke-width: 1.2; stroke-linecap: square"/>
   </g>
   <g id="patch_3">
    <path d="M 34.976 300.96 
L 34.976 7.2 
" style="fill: none; stroke: #899ab8; stroke-width: 1.12; stroke-linejoin: miter; stroke-linecap: square"/>
   </g>
   <g id="patch_4">
    <path d="M 927.776 300.96 
L 927.776 7.2 
" style="fill: none; stroke: #899ab8; stroke-width: 1.12; stroke-linejoin: miter; stroke-linecap: square"/>
   </g>
   <g id="patch_5">
    <path d="M 34.976 300.96 
L 927.776 300.96 
" style="fill: none; stroke: #899ab8; stroke-width: 1.12; stroke-linejoin: miter; stroke-linecap: square"/>
   </g>
   <g id="patch_6">
    <path d="M 34.976 7.2 
L 927.776 7.2 
" style="fill: none; stroke: #899ab8; stroke-width: 1.12; stroke-linejoin: miter; stroke-linecap: square"/>
   </g>
   <g id="text_16">
    <!-- 123519.47 -->
    <g style="fill: #83a83b" transform="translate(183.055059 20.552727) scale(0.132 -0.132)">
     <defs>
      <path id="DejaVuSans-39" d="M 703 97 
L 703 672 
Q 941 559 1184 500 
Q 1428 441 1663 441 
Q 2288 441 2617 861 
Q 2947 1281 2994 2138 
Q 2813 1869 2534 1725 
Q 2256 1581 1919 1581 
Q 1219 1581 811 2004 
Q 403 2428 403 3163 
Q 403 3881 828 4315 
Q 1253 4750 1959 4750 
Q 2769 4750 3195 4129 
Q 3622 3509 3622 2328 
Q 3622 1225 3098 567 
Q 2575 -91 1691 -91 
Q 1453 -91 1209 -44 
Q 966 3 703 97 
z
M 1959 2075 
Q 2384 2075 2632 2365 
Q 2881 2656 2881 3163 
Q 2881 3666 2632 3958 
Q 2384 4250 1959 4250 
Q 1534 4250 1286 3958 
Q 1038 3666 1038 3163 
Q 1038 2656 1286 2365 
Q 1534 2075 1959 2075 
z
" transform="scale(0.015625)"/>
      <path id="DejaVuSans-2e" d="M 684 794 
L 1344 794 
L 1344 0 
L 684 0 
L 684 794 
z
" transform="scale(0.015625)"/>
      <path id="DejaVuSans-37" d="M 525 4666 
L 3525 4666 
L 3525 4397 
L 1831 0 
L 1172 0 
L 2766 4134 
L 525 4134 
L 525 4666 
z
" transform="scale(0.015625)"/>
     </defs>
     <use xlink:href="#DejaVuSans-31"/>
     <use xlink:href="#DejaVuSans-32" transform="translate(63.623047 0)"/>
     <use xlink:href="#DejaVuSans-33" transform="translate(127.246094 0)"/>
     <use xlink:href="#DejaVuSans-35" transform="translate(190.869141 0)"/>
     <use xlink:href="#DejaVuSans-31" transform="translate(254.492188 0)"/>
     <use xlink:href="#DejaVuSans-39" transform="translate(318.115234 0)"/>
     <use xlink:href="#DejaVuSans-2e" transform="translate(381.738281 0)"/>
     <use xlink:href="#DejaVuSans-34" transform="translate(413.525391 0)"/>
     <use xlink:href="#DejaVuSans-37" transform="translate(477.148438 0)"/>
    </g>
   </g>
   <g id="text_17">
    <!-- 84677.63 -->
    <g style="fill: #c44e52" transform="translate(183.055059 28.114511) scale(0.132 -0.132)">
     <use xlink:href="#DejaVuSans-38"/>
     <use xlink:href="#DejaVuSans-34" transform="translate(63.623047 0)"/>
     <use xlink:href="#DejaVuSans-36" transform="translate(127.246094 0)"/>
     <use xlink:href="#DejaVuSans-37" transform="translate(190.869141 0)"/>
     <use xlink:href="#DejaVuSans-37" transform="translate(254.492188 0)"/>
     <use xlink:href="#DejaVuSans-2e" transform="translate(318.115234 0)"/>
     <use xlink:href="#DejaVuSans-36" transform="translate(349.902344 0)"/>
     <use xlink:href="#DejaVuSans-33" transform="translate(413.525391 0)"/>
    </g>
   </g>
   <g id="legend_1">
    <g id="patch_7">
     <path d="M 43.796 183.886875 
L 142.133094 183.886875 
Q 144.653094 183.886875 144.653094 181.366875 
L 144.653094 126.793125 
Q 144.653094 124.273125 142.133094 124.273125 
L 43.796 124.273125 
Q 41.276 124.273125 41.276 126.793125 
L 41.276 181.366875 
Q 41.276 183.886875 43.796 183.886875 
z
" style="fill: #373e4b; opacity: 0.8; stroke: #cccccc; stroke-width: 0.16; stroke-linejoin: miter"/>
    </g>
    <g id="line2d_83">
     <path d="M 46.316 134.477156 
L 46.316 134.477156 
L 58.916 134.477156 
L 58.916 134.477156 
L 71.516 134.477156 
" style="fill: none; stroke: #3572c6; stroke-width: 1.2; stroke-linecap: square"/>
    </g>
    <g id="text_18">
     <!-- USD/BTC -->
     <g style="fill: #b1bed6" transform="translate(81.596 138.887156) scale(0.126 -0.126)">
      <defs>
       <path id="DejaVuSans-55" d="M 556 4666 
L 1191 4666 
L 1191 1831 
Q 1191 1081 1462 751 
Q 1734 422 2344 422 
Q 2950 422 3222 751 
Q 3494 1081 3494 1831 
L 3494 4666 
L 4128 4666 
L 4128 1753 
Q 4128 841 3676 375 
Q 3225 -91 2344 -91 
Q 1459 -91 1007 375 
Q 556 841 556 1753 
L 556 4666 
z
" transform="scale(0.015625)"/>
       <path id="DejaVuSans-53" d="M 3425 4513 
L 3425 3897 
Q 3066 4069 2747 4153 
Q 2428 4238 2131 4238 
Q 1616 4238 1336 4038 
Q 1056 3838 1056 3469 
Q 1056 3159 1242 3001 
Q 1428 2844 1947 2747 
L 2328 2669 
Q 3034 2534 3370 2195 
Q 3706 1856 3706 1288 
Q 3706 609 3251 259 
Q 2797 -91 1919 -91 
Q 1588 -91 1214 -16 
Q 841 59 441 206 
L 441 856 
Q 825 641 1194 531 
Q 1563 422 1919 422 
Q 2459 422 2753 634 
Q 3047 847 3047 1241 
Q 3047 1584 2836 1778 
Q 2625 1972 2144 2069 
L 1759 2144 
Q 1053 2284 737 2584 
Q 422 2884 422 3419 
Q 422 4038 858 4394 
Q 1294 4750 2059 4750 
Q 2388 4750 2728 4690 
Q 3069 4631 3425 4513 
z
" transform="scale(0.015625)"/>
       <path id="DejaVuSans-2f" d="M 1625 4666 
L 2156 4666 
L 531 -594 
L 0 -594 
L 1625 4666 
z
" transform="scale(0.015625)"/>
       <path id="DejaVuSans-42" d="M 1259 2228 
L 1259 519 
L 2272 519 
Q 2781 519 3026 730 
Q 3272 941 3272 1375 
Q 3272 1813 3026 2020 
Q 2781 2228 2272 2228 
L 1259 2228 
z
M 1259 4147 
L 1259 2741 
L 2194 2741 
Q 2656 2741 2882 2914 
Q 3109 3088 3109 3444 
Q 3109 3797 2882 3972 
Q 2656 4147 2194 4147 
L 1259 4147 
z
M 628 4666 
L 2241 4666 
Q 2963 4666 3353 4366 
Q 3744 4066 3744 3513 
Q 3744 3084 3544 2831 
Q 3344 2578 2956 2516 
Q 3422 2416 3680 2098 
Q 3938 1781 3938 1306 
Q 3938 681 3513 340 
Q 3088 0 2303 0 
L 628 0 
L 628 4666 
z
" transform="scale(0.015625)"/>
       <path id="DejaVuSans-54" d="M -19 4666 
L 3928 4666 
L 3928 4134 
L 2272 4134 
L 2272 0 
L 1638 0 
L 1638 4134 
L -19 4134 
L -19 4666 
z
" transform="scale(0.015625)"/>
       <path id="DejaVuSans-43" d="M 4122 4306 
L 4122 3641 
Q 3803 3938 3442 4084 
Q 3081 4231 2675 4231 
Q 1875 4231 1450 3742 
Q 1025 3253 1025 2328 
Q 1025 1406 1450 917 
Q 1875 428 2675 428 
Q 3081 428 3442 575 
Q 3803 722 4122 1019 
L 4122 359 
Q 3791 134 3420 21 
Q 3050 -91 2638 -91 
Q 1578 -91 968 557 
Q 359 1206 359 2328 
Q 359 3453 968 4101 
Q 1578 4750 2638 4750 
Q 3056 4750 3426 4639 
Q 3797 4528 4122 4306 
z
" transform="scale(0.015625)"/>
      </defs>
      <use xlink:href="#DejaVuSans-55"/>
      <use xlink:href="#DejaVuSans-53" transform="translate(73.193359 0)"/>
      <use xlink:href="#DejaVuSans-44" transform="translate(136.669922 0)"/>
      <use xlink:href="#DejaVuSans-2f" transform="translate(213.671875 0)"/>
      <use xlink:href="#DejaVuSans-42" transform="translate(247.363281 0)"/>
      <use xlink:href="#DejaVuSans-54" transform="translate(315.966797 0)"/>
      <use xlink:href="#DejaVuSans-43" transform="translate(371.175781 0)"/>
     </g>
    </g>
    <g id="line2d_84">
     <path d="M 46.316 152.971594 
L 46.316 152.971594 
L 58.916 152.971594 
L 58.916 152.971594 
L 71.516 152.971594 
" style="fill: none; stroke: #83a83b; stroke-width: 1.2; stroke-linecap: square"/>
    </g>
    <g id="text_19">
     <!-- Max -->
     <g style="fill: #b1bed6" transform="translate(81.596 157.381594) scale(0.126 -0.126)">
      <defs>
       <path id="DejaVuSans-4d" d="M 628 4666 
L 1569 4666 
L 2759 1491 
L 3956 4666 
L 4897 4666 
L 4897 0 
L 4281 0 
L 4281 4097 
L 3078 897 
L 2444 897 
L 1241 4097 
L 1241 0 
L 628 0 
L 628 4666 
z
" transform="scale(0.015625)"/>
       <path id="DejaVuSans-78" d="M 3513 3500 
L 2247 1797 
L 3578 0 
L 2900 0 
L 1881 1375 
L 863 0 
L 184 0 
L 1544 1831 
L 300 3500 
L 978 3500 
L 1906 2253 
L 2834 3500 
L 3513 3500 
z
" transform="scale(0.015625)"/>
      </defs>
      <use xlink:href="#DejaVuSans-4d"/>
      <use xlink:href="#DejaVuSans-61" transform="translate(86.279297 0)"/>
      <use xlink:href="#DejaVuSans-78" transform="translate(147.558594 0)"/>
     </g>
    </g>
    <g id="line2d_85">
     <path d="M 46.316 171.466031 
L 46.316 171.466031 
L 58.916 171.466031 
L 58.916 171.466031 
L 71.516 171.466031 
" style="fill: none; stroke: #c44e52; stroke-width: 1.2; stroke-linecap: square"/>
    </g>
    <g id="text_20">
     <!-- local_Min -->
     <g style="fill: #b1bed6" transform="translate(81.596 175.876031) scale(0.126 -0.126)">
      <defs>
       <path id="DejaVuSans-6c" d="M 603 4863 
L 1178 4863 
L 1178 0 
L 603 0 
L 603 4863 
z
" transform="scale(0.015625)"/>
       <path id="DejaVuSans-6f" d="M 1959 3097 
Q 1497 3097 1228 2736 
Q 959 2375 959 1747 
Q 959 1119 1226 758 
Q 1494 397 1959 397 
Q 2419 397 2687 759 
Q 2956 1122 2956 1747 
Q 2956 2369 2687 2733 
Q 2419 3097 1959 3097 
z
M 1959 3584 
Q 2709 3584 3137 3096 
Q 3566 2609 3566 1747 
Q 3566 888 3137 398 
Q 2709 -91 1959 -91 
Q 1206 -91 779 398 
Q 353 888 353 1747 
Q 353 2609 779 3096 
Q 1206 3584 1959 3584 
z
" transform="scale(0.015625)"/>
       <path id="DejaVuSans-63" d="M 3122 3366 
L 3122 2828 
Q 2878 2963 2633 3030 
Q 2388 3097 2138 3097 
Q 1578 3097 1268 2742 
Q 959 2388 959 1747 
Q 959 1106 1268 751 
Q 1578 397 2138 397 
Q 2388 397 2633 464 
Q 2878 531 3122 666 
L 3122 134 
Q 2881 22 2623 -34 
Q 2366 -91 2075 -91 
Q 1284 -91 818 406 
Q 353 903 353 1747 
Q 353 2603 823 3093 
Q 1294 3584 2113 3584 
Q 2378 3584 2631 3529 
Q 2884 3475 3122 3366 
z
" transform="scale(0.015625)"/>
       <path id="DejaVuSans-5f" d="M 3263 -1063 
L 3263 -1509 
L -63 -1509 
L -63 -1063 
L 3263 -1063 
z
" transform="scale(0.015625)"/>
       <path id="DejaVuSans-69" d="M 603 3500 
L 1178 3500 
L 1178 0 
L 603 0 
L 603 3500 
z
M 603 4863 
L 1178 4863 
L 1178 4134 
L 603 4134 
L 603 4863 
z
" transform="scale(0.015625)"/>
       <path id="DejaVuSans-6e" d="M 3513 2113 
L 3513 0 
L 2938 0 
L 2938 2094 
Q 2938 2591 2744 2837 
Q 2550 3084 2163 3084 
Q 1697 3084 1428 2787 
Q 1159 2491 1159 1978 
L 1159 0 
L 581 0 
L 581 3500 
L 1159 3500 
L 1159 2956 
Q 1366 3272 1645 3428 
Q 1925 3584 2291 3584 
Q 2894 3584 3203 3211 
Q 3513 2838 3513 2113 
z
" transform="scale(0.015625)"/>
      </defs>
      <use xlink:href="#DejaVuSans-6c"/>
      <use xlink:href="#DejaVuSans-6f" transform="translate(27.783203 0)"/>
      <use xlink:href="#DejaVuSans-63" transform="translate(88.964844 0)"/>
      <use xlink:href="#DejaVuSans-61" transform="translate(143.945312 0)"/>
      <use xlink:href="#DejaVuSans-6c" transform="translate(205.224609 0)"/>
      <use xlink:href="#DejaVuSans-5f" transform="translate(233.007812 0)"/>
      <use xlink:href="#DejaVuSans-4d" transform="translate(283.007812 0)"/>
      <use xlink:href="#DejaVuSans-69" transform="translate(369.287109 0)"/>
      <use xlink:href="#DejaVuSans-6e" transform="translate(397.070312 0)"/>
     </g>
    </g>
   </g>
  </g>
 </g>
 <defs>
  <clipPath id="p7b2dcc5d06">
   <rect x="34.976" y="7.2" width="892.8" height="293.76"/>
  </clipPath>
 </defs>
</svg>
