<?xml version="1.0" encoding="utf-8" standalone="no"?>
<!DOCTYPE svg PUBLIC "-//W3C//DTD SVG 1.1//EN"
  "http://www.w3.org/Graphics/SVG/1.1/DTD/svg11.dtd">
<svg xmlns:xlink="http://www.w3.org/1999/xlink" width="934.976pt" height="358.290693pt" viewBox="0 0 934.976 358.290693" xmlns="http://www.w3.org/2000/svg" version="1.1">
 <metadata>
  <rdf:RDF xmlns:dc="http://purl.org/dc/elements/1.1/" xmlns:cc="http://creativecommons.org/ns#" xmlns:rdf="http://www.w3.org/1999/02/22-rdf-syntax-ns#">
   <cc:Work>
    <dc:type rdf:resource="http://purl.org/dc/dcmitype/StillImage"/>
    <dc:date>2024-11-06T20:57:03.855470</dc:date>
    <dc:format>image/svg+xml</dc:format>
    <dc:creator>
     <cc:Agent>
      <dc:title>Matplotlib v3.9.2, https://matplotlib.org/</dc:title>
     </cc:Agent>
    </dc:creator>
   </cc:Work>
  </rdf:RDF>
 </metadata>
 <defs>
  <style type="text/css">*{stroke-linejoin: round; stroke-linecap: butt}</style>
 </defs>
 <g id="figure_1">
  <g id="patch_1">
   <path d="M 0 358.290693 
L 934.976 358.290693 
L 934.976 0 
L 0 0 
z
" style="fill: #373e4b"/>
  </g>
  <g id="axes_1">
   <g id="patch_2">
    <path d="M 34.976 300.96 
L 927.776 300.96 
L 927.776 7.2 
L 34.976 7.2 
z
" style="fill: #373e4b"/>
   </g>
   <g id="matplotlib.axis_1">
    <g id="xtick_1">
     <g id="line2d_1">
      <path d="M 142.944811 300.96 
L 142.944811 7.2 
" clip-path="url(#p89465a2977)" style="fill: none; stroke: #546379; stroke-width: 1.12; stroke-linecap: square"/>
     </g>
     <g id="line2d_2"/>
     <g id="text_1">
      <!-- 2012 -->
      <g style="fill: #b1bed6" transform="translate(113.863772 330.884854) rotate(-30) scale(0.126 -0.126)">
       <defs>
        <path id="DejaVuSans-32" d="M 1228 531 
L 3431 531 
L 3431 0 
L 469 0 
L 469 531 
Q 828 903 1448 1529 
Q 2069 2156 2228 2338 
Q 2531 2678 2651 2914 
Q 2772 3150 2772 3378 
Q 2772 3750 2511 3984 
Q 2250 4219 1831 4219 
Q 1534 4219 1204 4116 
Q 875 4013 500 3803 
L 500 4441 
Q 881 4594 1212 4672 
Q 1544 4750 1819 4750 
Q 2544 4750 2975 4387 
Q 3406 4025 3406 3419 
Q 3406 3131 3298 2873 
Q 3191 2616 2906 2266 
Q 2828 2175 2409 1742 
Q 1991 1309 1228 531 
z
" transform="scale(0.015625)"/>
        <path id="DejaVuSans-30" d="M 2034 4250 
Q 1547 4250 1301 3770 
Q 1056 3291 1056 2328 
Q 1056 1369 1301 889 
Q 1547 409 2034 409 
Q 2525 409 2770 889 
Q 3016 1369 3016 2328 
Q 3016 3291 2770 3770 
Q 2525 4250 2034 4250 
z
M 2034 4750 
Q 2819 4750 3233 4129 
Q 3647 3509 3647 2328 
Q 3647 1150 3233 529 
Q 2819 -91 2034 -91 
Q 1250 -91 836 529 
Q 422 1150 422 2328 
Q 422 3509 836 4129 
Q 1250 4750 2034 4750 
z
" transform="scale(0.015625)"/>
        <path id="DejaVuSans-31" d="M 794 531 
L 1825 531 
L 1825 4091 
L 703 3866 
L 703 4441 
L 1819 4666 
L 2450 4666 
L 2450 531 
L 3481 531 
L 3481 0 
L 794 0 
L 794 531 
z
" transform="scale(0.015625)"/>
       </defs>
       <use xlink:href="#DejaVuSans-32"/>
       <use xlink:href="#DejaVuSans-30" x="63.623047"/>
       <use xlink:href="#DejaVuSans-31" x="127.246094"/>
       <use xlink:href="#DejaVuSans-32" x="190.869141"/>
      </g>
     </g>
    </g>
    <g id="xtick_2">
     <g id="line2d_3">
      <path d="M 258.85044 300.96 
L 258.85044 7.2 
" clip-path="url(#p89465a2977)" style="fill: none; stroke: #546379; stroke-width: 1.12; stroke-linecap: square"/>
     </g>
     <g id="line2d_4"/>
     <g id="text_2">
      <!-- 2014 -->
      <g style="fill: #b1bed6" transform="translate(229.7694 330.884854) rotate(-30) scale(0.126 -0.126)">
       <defs>
        <path id="DejaVuSans-34" d="M 2419 4116 
L 825 1625 
L 2419 1625 
L 2419 4116 
z
M 2253 4666 
L 3047 4666 
L 3047 1625 
L 3713 1625 
L 3713 1100 
L 3047 1100 
L 3047 0 
L 2419 0 
L 2419 1100 
L 313 1100 
L 313 1709 
L 2253 4666 
z
" transform="scale(0.015625)"/>
       </defs>
       <use xlink:href="#DejaVuSans-32"/>
       <use xlink:href="#DejaVuSans-30" x="63.623047"/>
       <use xlink:href="#DejaVuSans-31" x="127.246094"/>
       <use xlink:href="#DejaVuSans-34" x="190.869141"/>
      </g>
     </g>
    </g>
    <g id="xtick_3">
     <g id="line2d_5">
      <path d="M 374.59751 300.96 
L 374.59751 7.2 
" clip-path="url(#p89465a2977)" style="fill: none; stroke: #546379; stroke-width: 1.12; stroke-linecap: square"/>
     </g>
     <g id="line2d_6"/>
     <g id="text_3">
      <!-- 2016 -->
      <g style="fill: #b1bed6" transform="translate(345.516471 330.884854) rotate(-30) scale(0.126 -0.126)">
       <defs>
        <path id="DejaVuSans-36" d="M 2113 2584 
Q 1688 2584 1439 2293 
Q 1191 2003 1191 1497 
Q 1191 994 1439 701 
Q 1688 409 2113 409 
Q 2538 409 2786 701 
Q 3034 994 3034 1497 
Q 3034 2003 2786 2293 
Q 2538 2584 2113 2584 
z
M 3366 4563 
L 3366 3988 
Q 3128 4100 2886 4159 
Q 2644 4219 2406 4219 
Q 1781 4219 1451 3797 
Q 1122 3375 1075 2522 
Q 1259 2794 1537 2939 
Q 1816 3084 2150 3084 
Q 2853 3084 3261 2657 
Q 3669 2231 3669 1497 
Q 3669 778 3244 343 
Q 2819 -91 2113 -91 
Q 1303 -91 875 529 
Q 447 1150 447 2328 
Q 447 3434 972 4092 
Q 1497 4750 2381 4750 
Q 2619 4750 2861 4703 
Q 3103 4656 3366 4563 
z
" transform="scale(0.015625)"/>
       </defs>
       <use xlink:href="#DejaVuSans-32"/>
       <use xlink:href="#DejaVuSans-30" x="63.623047"/>
       <use xlink:href="#DejaVuSans-31" x="127.246094"/>
       <use xlink:href="#DejaVuSans-36" x="190.869141"/>
      </g>
     </g>
    </g>
    <g id="xtick_4">
     <g id="line2d_7">
      <path d="M 490.503139 300.96 
L 490.503139 7.2 
" clip-path="url(#p89465a2977)" style="fill: none; stroke: #546379; stroke-width: 1.12; stroke-linecap: square"/>
     </g>
     <g id="line2d_8"/>
     <g id="text_4">
      <!-- 2018 -->
      <g style="fill: #b1bed6" transform="translate(461.422099 330.884854) rotate(-30) scale(0.126 -0.126)">
       <defs>
        <path id="DejaVuSans-38" d="M 2034 2216 
Q 1584 2216 1326 1975 
Q 1069 1734 1069 1313 
Q 1069 891 1326 650 
Q 1584 409 2034 409 
Q 2484 409 2743 651 
Q 3003 894 3003 1313 
Q 3003 1734 2745 1975 
Q 2488 2216 2034 2216 
z
M 1403 2484 
Q 997 2584 770 2862 
Q 544 3141 544 3541 
Q 544 4100 942 4425 
Q 1341 4750 2034 4750 
Q 2731 4750 3128 4425 
Q 3525 4100 3525 3541 
Q 3525 3141 3298 2862 
Q 3072 2584 2669 2484 
Q 3125 2378 3379 2068 
Q 3634 1759 3634 1313 
Q 3634 634 3220 271 
Q 2806 -91 2034 -91 
Q 1263 -91 848 271 
Q 434 634 434 1313 
Q 434 1759 690 2068 
Q 947 2378 1403 2484 
z
M 1172 3481 
Q 1172 3119 1398 2916 
Q 1625 2713 2034 2713 
Q 2441 2713 2670 2916 
Q 2900 3119 2900 3481 
Q 2900 3844 2670 4047 
Q 2441 4250 2034 4250 
Q 1625 4250 1398 4047 
Q 1172 3844 1172 3481 
z
" transform="scale(0.015625)"/>
       </defs>
       <use xlink:href="#DejaVuSans-32"/>
       <use xlink:href="#DejaVuSans-30" x="63.623047"/>
       <use xlink:href="#DejaVuSans-31" x="127.246094"/>
       <use xlink:href="#DejaVuSans-38" x="190.869141"/>
      </g>
     </g>
    </g>
    <g id="xtick_5">
     <g id="line2d_9">
      <path d="M 606.25021 300.96 
L 606.25021 7.2 
" clip-path="url(#p89465a2977)" style="fill: none; stroke: #546379; stroke-width: 1.12; stroke-linecap: square"/>
     </g>
     <g id="line2d_10"/>
     <g id="text_5">
      <!-- 2020 -->
      <g style="fill: #b1bed6" transform="translate(577.16917 330.884854) rotate(-30) scale(0.126 -0.126)">
       <use xlink:href="#DejaVuSans-32"/>
       <use xlink:href="#DejaVuSans-30" x="63.623047"/>
       <use xlink:href="#DejaVuSans-32" x="127.246094"/>
       <use xlink:href="#DejaVuSans-30" x="190.869141"/>
      </g>
     </g>
    </g>
    <g id="xtick_6">
     <g id="line2d_11">
      <path d="M 722.155838 300.96 
L 722.155838 7.2 
" clip-path="url(#p89465a2977)" style="fill: none; stroke: #546379; stroke-width: 1.12; stroke-linecap: square"/>
     </g>
     <g id="line2d_12"/>
     <g id="text_6">
      <!-- 2022 -->
      <g style="fill: #b1bed6" transform="translate(693.074798 330.884854) rotate(-30) scale(0.126 -0.126)">
       <use xlink:href="#DejaVuSans-32"/>
       <use xlink:href="#DejaVuSans-30" x="63.623047"/>
       <use xlink:href="#DejaVuSans-32" x="127.246094"/>
       <use xlink:href="#DejaVuSans-32" x="190.869141"/>
      </g>
     </g>
    </g>
    <g id="xtick_7">
     <g id="line2d_13">
      <path d="M 837.902909 300.96 
L 837.902909 7.2 
" clip-path="url(#p89465a2977)" style="fill: none; stroke: #546379; stroke-width: 1.12; stroke-linecap: square"/>
     </g>
     <g id="line2d_14"/>
     <g id="text_7">
      <!-- 2024 -->
      <g style="fill: #b1bed6" transform="translate(808.821869 330.884854) rotate(-30) scale(0.126 -0.126)">
       <use xlink:href="#DejaVuSans-32"/>
       <use xlink:href="#DejaVuSans-30" x="63.623047"/>
       <use xlink:href="#DejaVuSans-32" x="127.246094"/>
       <use xlink:href="#DejaVuSans-34" x="190.869141"/>
      </g>
     </g>
    </g>
    <g id="text_8">
     <!-- Date -->
     <g style="fill: #b1bed6" transform="translate(464.166875 348.095943) scale(0.144 -0.144)">
      <defs>
       <path id="DejaVuSans-44" d="M 1259 4147 
L 1259 519 
L 2022 519 
Q 2988 519 3436 956 
Q 3884 1394 3884 2338 
Q 3884 3275 3436 3711 
Q 2988 4147 2022 4147 
L 1259 4147 
z
M 628 4666 
L 1925 4666 
Q 3281 4666 3915 4102 
Q 4550 3538 4550 2338 
Q 4550 1131 3912 565 
Q 3275 0 1925 0 
L 628 0 
L 628 4666 
z
" transform="scale(0.015625)"/>
       <path id="DejaVuSans-61" d="M 2194 1759 
Q 1497 1759 1228 1600 
Q 959 1441 959 1056 
Q 959 750 1161 570 
Q 1363 391 1709 391 
Q 2188 391 2477 730 
Q 2766 1069 2766 1631 
L 2766 1759 
L 2194 1759 
z
M 3341 1997 
L 3341 0 
L 2766 0 
L 2766 531 
Q 2569 213 2275 61 
Q 1981 -91 1556 -91 
Q 1019 -91 701 211 
Q 384 513 384 1019 
Q 384 1609 779 1909 
Q 1175 2209 1959 2209 
L 2766 2209 
L 2766 2266 
Q 2766 2663 2505 2880 
Q 2244 3097 1772 3097 
Q 1472 3097 1187 3025 
Q 903 2953 641 2809 
L 641 3341 
Q 956 3463 1253 3523 
Q 1550 3584 1831 3584 
Q 2591 3584 2966 3190 
Q 3341 2797 3341 1997 
z
" transform="scale(0.015625)"/>
       <path id="DejaVuSans-74" d="M 1172 4494 
L 1172 3500 
L 2356 3500 
L 2356 3053 
L 1172 3053 
L 1172 1153 
Q 1172 725 1289 603 
Q 1406 481 1766 481 
L 2356 481 
L 2356 0 
L 1766 0 
Q 1100 0 847 248 
Q 594 497 594 1153 
L 594 3053 
L 172 3053 
L 172 3500 
L 594 3500 
L 594 4494 
L 1172 4494 
z
" transform="scale(0.015625)"/>
       <path id="DejaVuSans-65" d="M 3597 1894 
L 3597 1613 
L 953 1613 
Q 991 1019 1311 708 
Q 1631 397 2203 397 
Q 2534 397 2845 478 
Q 3156 559 3463 722 
L 3463 178 
Q 3153 47 2828 -22 
Q 2503 -91 2169 -91 
Q 1331 -91 842 396 
Q 353 884 353 1716 
Q 353 2575 817 3079 
Q 1281 3584 2069 3584 
Q 2775 3584 3186 3129 
Q 3597 2675 3597 1894 
z
M 3022 2063 
Q 3016 2534 2758 2815 
Q 2500 3097 2075 3097 
Q 1594 3097 1305 2825 
Q 1016 2553 972 2059 
L 3022 2063 
z
" transform="scale(0.015625)"/>
      </defs>
      <use xlink:href="#DejaVuSans-44"/>
      <use xlink:href="#DejaVuSans-61" x="77.001953"/>
      <use xlink:href="#DejaVuSans-74" x="138.28125"/>
      <use xlink:href="#DejaVuSans-65" x="177.490234"/>
     </g>
    </g>
   </g>
   <g id="matplotlib.axis_2">
    <g id="ytick_1">
     <g id="line2d_15">
      <path d="M 34.976 254.16282 
L 927.776 254.16282 
" clip-path="url(#p89465a2977)" style="fill: none; stroke: #546379; stroke-width: 1.12; stroke-linecap: square"/>
     </g>
     <g id="line2d_16"/>
     <g id="text_9">
      <!-- $\mathdefault{10^{0}}$ -->
      <g style="fill: #b1bed6" transform="translate(7.2 258.949836) scale(0.126 -0.126)">
       <use xlink:href="#DejaVuSans-31" transform="translate(0 0.765625)"/>
       <use xlink:href="#DejaVuSans-30" transform="translate(63.623047 0.765625)"/>
       <use xlink:href="#DejaVuSans-30" transform="translate(128.203125 39.046875) scale(0.7)"/>
      </g>
     </g>
    </g>
    <g id="ytick_2">
     <g id="line2d_17">
      <path d="M 34.976 206.314626 
L 927.776 206.314626 
" clip-path="url(#p89465a2977)" style="fill: none; stroke: #546379; stroke-width: 1.12; stroke-linecap: square"/>
     </g>
     <g id="line2d_18"/>
     <g id="text_10">
      <!-- $\mathdefault{10^{1}}$ -->
      <g style="fill: #b1bed6" transform="translate(7.2 211.101642) scale(0.126 -0.126)">
       <use xlink:href="#DejaVuSans-31" transform="translate(0 0.684375)"/>
       <use xlink:href="#DejaVuSans-30" transform="translate(63.623047 0.684375)"/>
       <use xlink:href="#DejaVuSans-31" transform="translate(128.203125 38.965625) scale(0.7)"/>
      </g>
     </g>
    </g>
    <g id="ytick_3">
     <g id="line2d_19">
      <path d="M 34.976 158.466432 
L 927.776 158.466432 
" clip-path="url(#p89465a2977)" style="fill: none; stroke: #546379; stroke-width: 1.12; stroke-linecap: square"/>
     </g>
     <g id="line2d_20"/>
     <g id="text_11">
      <!-- $\mathdefault{10^{2}}$ -->
      <g style="fill: #b1bed6" transform="translate(7.2 163.253448) scale(0.126 -0.126)">
       <use xlink:href="#DejaVuSans-31" transform="translate(0 0.765625)"/>
       <use xlink:href="#DejaVuSans-30" transform="translate(63.623047 0.765625)"/>
       <use xlink:href="#DejaVuSans-32" transform="translate(128.203125 39.046875) scale(0.7)"/>
      </g>
     </g>
    </g>
    <g id="ytick_4">
     <g id="line2d_21">
      <path d="M 34.976 110.618238 
L 927.776 110.618238 
" clip-path="url(#p89465a2977)" style="fill: none; stroke: #546379; stroke-width: 1.12; stroke-linecap: square"/>
     </g>
     <g id="line2d_22"/>
     <g id="text_12">
      <!-- $\mathdefault{10^{3}}$ -->
      <g style="fill: #b1bed6" transform="translate(7.2 115.405254) scale(0.126 -0.126)">
       <defs>
        <path id="DejaVuSans-33" d="M 2597 2516 
Q 3050 2419 3304 2112 
Q 3559 1806 3559 1356 
Q 3559 666 3084 287 
Q 2609 -91 1734 -91 
Q 1441 -91 1130 -33 
Q 819 25 488 141 
L 488 750 
Q 750 597 1062 519 
Q 1375 441 1716 441 
Q 2309 441 2620 675 
Q 2931 909 2931 1356 
Q 2931 1769 2642 2001 
Q 2353 2234 1838 2234 
L 1294 2234 
L 1294 2753 
L 1863 2753 
Q 2328 2753 2575 2939 
Q 2822 3125 2822 3475 
Q 2822 3834 2567 4026 
Q 2313 4219 1838 4219 
Q 1578 4219 1281 4162 
Q 984 4106 628 3988 
L 628 4550 
Q 988 4650 1302 4700 
Q 1616 4750 1894 4750 
Q 2613 4750 3031 4423 
Q 3450 4097 3450 3541 
Q 3450 3153 3228 2886 
Q 3006 2619 2597 2516 
z
" transform="scale(0.015625)"/>
       </defs>
       <use xlink:href="#DejaVuSans-31" transform="translate(0 0.765625)"/>
       <use xlink:href="#DejaVuSans-30" transform="translate(63.623047 0.765625)"/>
       <use xlink:href="#DejaVuSans-33" transform="translate(128.203125 39.046875) scale(0.7)"/>
      </g>
     </g>
    </g>
    <g id="ytick_5">
     <g id="line2d_23">
      <path d="M 34.976 62.770044 
L 927.776 62.770044 
" clip-path="url(#p89465a2977)" style="fill: none; stroke: #546379; stroke-width: 1.12; stroke-linecap: square"/>
     </g>
     <g id="line2d_24"/>
     <g id="text_13">
      <!-- $\mathdefault{10^{4}}$ -->
      <g style="fill: #b1bed6" transform="translate(7.2 67.55706) scale(0.126 -0.126)">
       <use xlink:href="#DejaVuSans-31" transform="translate(0 0.684375)"/>
       <use xlink:href="#DejaVuSans-30" transform="translate(63.623047 0.684375)"/>
       <use xlink:href="#DejaVuSans-34" transform="translate(128.203125 38.965625) scale(0.7)"/>
      </g>
     </g>
    </g>
    <g id="ytick_6">
     <g id="line2d_25">
      <path d="M 34.976 14.92185 
L 927.776 14.92185 
" clip-path="url(#p89465a2977)" style="fill: none; stroke: #546379; stroke-width: 1.12; stroke-linecap: square"/>
     </g>
     <g id="line2d_26"/>
     <g id="text_14">
      <!-- $\mathdefault{10^{5}}$ -->
      <g style="fill: #b1bed6" transform="translate(7.2 19.708866) scale(0.126 -0.126)">
       <defs>
        <path id="DejaVuSans-35" d="M 691 4666 
L 3169 4666 
L 3169 4134 
L 1269 4134 
L 1269 2991 
Q 1406 3038 1543 3061 
Q 1681 3084 1819 3084 
Q 2600 3084 3056 2656 
Q 3513 2228 3513 1497 
Q 3513 744 3044 326 
Q 2575 -91 1722 -91 
Q 1428 -91 1123 -41 
Q 819 9 494 109 
L 494 744 
Q 775 591 1075 516 
Q 1375 441 1709 441 
Q 2250 441 2565 725 
Q 2881 1009 2881 1497 
Q 2881 1984 2565 2268 
Q 2250 2553 1709 2553 
Q 1456 2553 1204 2497 
Q 953 2441 691 2322 
L 691 4666 
z
" transform="scale(0.015625)"/>
       </defs>
       <use xlink:href="#DejaVuSans-31" transform="translate(0 0.684375)"/>
       <use xlink:href="#DejaVuSans-30" transform="translate(63.623047 0.684375)"/>
       <use xlink:href="#DejaVuSans-35" transform="translate(128.203125 38.965625) scale(0.7)"/>
      </g>
     </g>
    </g>
    <g id="ytick_7">
     <g id="line2d_27"/>
    </g>
    <g id="ytick_8">
     <g id="line2d_28"/>
    </g>
    <g id="ytick_9">
     <g id="line2d_29"/>
    </g>
    <g id="ytick_10">
     <g id="line2d_30"/>
    </g>
    <g id="ytick_11">
     <g id="line2d_31"/>
    </g>
    <g id="ytick_12">
     <g id="line2d_32"/>
    </g>
    <g id="ytick_13">
     <g id="line2d_33"/>
    </g>
    <g id="ytick_14">
     <g id="line2d_34"/>
    </g>
    <g id="ytick_15">
     <g id="line2d_35"/>
    </g>
    <g id="ytick_16">
     <g id="line2d_36"/>
    </g>
    <g id="ytick_17">
     <g id="line2d_37"/>
    </g>
    <g id="ytick_18">
     <g id="line2d_38"/>
    </g>
    <g id="ytick_19">
     <g id="line2d_39"/>
    </g>
    <g id="ytick_20">
     <g id="line2d_40"/>
    </g>
    <g id="ytick_21">
     <g id="line2d_41"/>
    </g>
    <g id="ytick_22">
     <g id="line2d_42"/>
    </g>
    <g id="ytick_23">
     <g id="line2d_43"/>
    </g>
    <g id="ytick_24">
     <g id="line2d_44"/>
    </g>
    <g id="ytick_25">
     <g id="line2d_45"/>
    </g>
    <g id="ytick_26">
     <g id="line2d_46"/>
    </g>
    <g id="ytick_27">
     <g id="line2d_47"/>
    </g>
    <g id="ytick_28">
     <g id="line2d_48"/>
    </g>
    <g id="ytick_29">
     <g id="line2d_49"/>
    </g>
    <g id="ytick_30">
     <g id="line2d_50"/>
    </g>
    <g id="ytick_31">
     <g id="line2d_51"/>
    </g>
    <g id="ytick_32">
     <g id="line2d_52"/>
    </g>
    <g id="ytick_33">
     <g id="line2d_53"/>
    </g>
    <g id="ytick_34">
     <g id="line2d_54"/>
    </g>
    <g id="ytick_35">
     <g id="line2d_55"/>
    </g>
    <g id="ytick_36">
     <g id="line2d_56"/>
    </g>
    <g id="ytick_37">
     <g id="line2d_57"/>
    </g>
    <g id="ytick_38">
     <g id="line2d_58"/>
    </g>
    <g id="ytick_39">
     <g id="line2d_59"/>
    </g>
    <g id="ytick_40">
     <g id="line2d_60"/>
    </g>
    <g id="ytick_41">
     <g id="line2d_61"/>
    </g>
    <g id="ytick_42">
     <g id="line2d_62"/>
    </g>
    <g id="ytick_43">
     <g id="line2d_63"/>
    </g>
    <g id="ytick_44">
     <g id="line2d_64"/>
    </g>
    <g id="ytick_45">
     <g id="line2d_65"/>
    </g>
    <g id="ytick_46">
     <g id="line2d_66"/>
    </g>
    <g id="ytick_47">
     <g id="line2d_67"/>
    </g>
    <g id="ytick_48">
     <g id="line2d_68"/>
    </g>
    <g id="ytick_49">
     <g id="line2d_69"/>
    </g>
    <g id="ytick_50">
     <g id="line2d_70"/>
    </g>
    <g id="ytick_51">
     <g id="line2d_71"/>
    </g>
    <g id="ytick_52">
     <g id="line2d_72"/>
    </g>
    <g id="ytick_53">
     <g id="line2d_73"/>
    </g>
    <g id="ytick_54">
     <g id="line2d_74"/>
    </g>
   </g>
   <g id="line2d_75">
    <path d="M 75.557818 287.607273 
L 75.557818 282.970304 
L 76.192049 282.970304 
L 76.192049 277.8405 
L 76.826279 277.8405 
L 76.826279 279.181624 
L 77.46051 279.181624 
L 77.46051 280.61531 
L 78.09474 280.61531 
L 78.09474 279.886105 
L 78.728971 279.886105 
L 78.728971 280.61531 
L 79.997432 280.61531 
L 79.997432 282.155289 
L 80.631662 282.155289 
L 80.631662 284.702991 
L 81.900123 284.702991 
L 81.900123 282.970304 
L 82.534354 282.970304 
L 82.534354 282.155289 
L 83.168584 282.155289 
L 83.168584 282.970304 
L 83.802815 282.970304 
L 83.802815 281.371037 
L 84.437046 281.371037 
L 84.437046 279.181624 
L 85.705507 279.181624 
L 85.705507 277.8405 
L 86.339737 277.8405 
L 86.339737 275.392944 
L 86.973968 275.392944 
L 86.973968 273.203531 
L 87.608198 273.203531 
L 87.608198 274.269416 
L 88.242429 274.269416 
L 88.242429 271.222966 
L 88.876659 271.222966 
L 88.876659 270.755975 
L 89.51089 270.755975 
L 89.51089 255.895507 
L 90.779351 255.895507 
L 90.779351 254.795769 
L 91.413581 254.795769 
L 91.413581 252.563554 
L 92.047812 252.563554 
L 92.047812 253.148951 
L 92.682042 253.148951 
L 92.682042 256.819224 
L 93.316273 256.819224 
L 93.316273 254.16282 
L 93.950503 254.16282 
L 93.950503 254.795769 
L 94.584734 254.795769 
L 94.584734 255.895507 
L 95.218964 255.895507 
L 95.218964 256.819224 
L 95.853195 256.819224 
L 95.853195 256.122616 
L 96.487425 256.122616 
L 96.487425 257.056715 
L 97.121656 257.056715 
L 97.121656 259.061179 
L 97.755887 259.061179 
L 97.755887 256.584417 
L 98.390117 256.584417 
L 98.390117 258.799789 
L 99.658578 258.799789 
L 99.658578 260.140913 
L 100.292809 260.140913 
L 100.292809 259.865675 
L 100.927039 259.865675 
L 100.927039 254.582637 
L 101.56127 254.582637 
L 101.56127 250.374141 
L 102.1955 250.374141 
L 102.1955 247.469859 
L 102.829731 247.469859 
L 102.829731 242.180675 
L 103.463961 242.180675 
L 103.463961 224.640468 
L 104.098192 224.640468 
L 104.098192 227.776934 
L 104.732422 227.776934 
L 104.732422 225.828232 
L 105.366653 225.828232 
L 105.366653 215.107148 
L 106.000883 215.107148 
L 106.000883 209.765275 
L 106.635114 209.765275 
L 106.635114 213.785862 
L 107.269344 213.785862 
L 107.269344 212.939955 
L 107.903575 212.939955 
L 107.903575 209.256346 
L 108.537805 209.256346 
L 108.537805 207.011943 
L 109.172036 207.011943 
L 109.172036 192.922157 
L 109.806267 192.922157 
L 109.806267 181.924487 
L 110.440497 181.924487 
L 110.440497 188.418696 
L 111.074728 188.418696 
L 111.074728 193.119439 
L 111.708958 193.119439 
L 111.708958 197.355597 
L 112.343189 197.355597 
L 112.343189 194.590916 
L 112.977419 194.590916 
L 112.977419 194.864578 
L 113.61165 194.864578 
L 113.61165 196.888306 
L 114.24588 196.888306 
L 114.24588 196.418382 
L 114.880111 196.418382 
L 114.880111 197.792229 
L 115.514341 197.792229 
L 115.514341 198.954863 
L 116.148572 198.954863 
L 116.148572 198.536213 
L 116.782802 198.536213 
L 116.782802 199.426825 
L 117.417033 199.426825 
L 117.417033 199.174761 
L 118.051263 199.174761 
L 118.051263 198.479125 
L 118.685494 198.479125 
L 118.685494 203.410344 
L 119.319724 203.410344 
L 119.319724 207.033444 
L 119.953955 207.033444 
L 119.953955 206.460599 
L 120.588185 206.460599 
L 120.588185 203.664873 
L 121.222416 203.664873 
L 121.222416 202.963441 
L 121.856646 202.963441 
L 121.856646 203.774919 
L 122.490877 203.774919 
L 122.490877 207.424305 
L 123.125108 207.424305 
L 123.125108 209.789823 
L 123.759338 209.789823 
L 123.759338 210.261839 
L 124.393569 210.261839 
L 124.393569 214.45137 
L 125.027799 214.45137 
L 125.027799 216.281853 
L 125.66203 216.281853 
L 125.66203 220.635413 
L 126.29626 220.635413 
L 126.29626 216.31545 
L 126.930491 216.31545 
L 126.930491 218.775619 
L 127.564721 218.775619 
L 127.564721 220.969239 
L 128.198952 220.969239 
L 128.198952 220.47049 
L 128.833182 220.47049 
L 128.833182 221.609995 
L 129.467413 221.609995 
L 129.467413 224.540323 
L 130.101643 224.540323 
L 130.101643 225.303451 
L 130.735874 225.303451 
L 130.735874 234.387173 
L 131.370104 234.387173 
L 131.370104 229.227304 
L 132.004335 229.227304 
L 132.004335 230.652051 
L 132.638565 230.652051 
L 132.638565 228.855111 
L 133.272796 228.855111 
L 133.272796 229.862834 
L 133.907026 229.862834 
L 133.907026 230.057346 
L 134.541257 230.057346 
L 134.541257 230.585126 
L 135.175487 230.585126 
L 135.175487 234.307095 
L 135.809718 234.307095 
L 135.809718 235.541926 
L 136.443949 235.541926 
L 136.443949 235.28902 
L 137.078179 235.28902 
L 137.078179 233.989834 
L 137.71241 233.989834 
L 137.71241 230.385634 
L 138.34664 230.385634 
L 138.34664 230.921927 
L 138.980871 230.921927 
L 138.980871 230.518415 
L 139.615101 230.518415 
L 139.615101 229.606285 
L 140.249332 229.606285 
L 140.249332 228.978436 
L 140.883562 228.978436 
L 140.883562 225.459499 
L 141.517793 225.459499 
L 141.517793 224.095545 
L 142.152023 224.095545 
L 142.152023 223.04678 
L 142.786254 223.04678 
L 142.786254 219.234869 
L 143.420484 219.234869 
L 143.420484 213.549048 
L 144.054715 213.549048 
L 144.054715 213.431646 
L 144.688945 213.431646 
L 144.688945 213.607999 
L 145.323176 213.607999 
L 145.323176 215.686201 
L 145.957406 215.686201 
L 145.957406 215.362515 
L 146.591637 215.362515 
L 146.591637 217.995574 
L 147.225867 217.995574 
L 147.225867 218.17866 
L 147.860098 218.17866 
L 147.860098 216.964351 
L 148.494328 216.964351 
L 148.494328 217.49135 
L 149.76279 217.562637 
L 149.76279 221.828047 
L 150.39702 221.828047 
L 150.39702 222.907781 
L 151.031251 222.907781 
L 151.031251 220.023586 
L 151.665481 220.023586 
L 151.665481 220.801655 
L 152.299712 220.801655 
L 152.299712 221.52341 
L 152.933942 221.52341 
L 152.933942 220.511598 
L 153.568173 220.511598 
L 153.568173 220.801655 
L 154.202403 220.801655 
L 154.202403 218.965741 
L 154.836634 218.965741 
L 154.836634 219.783812 
L 155.470864 219.783812 
L 155.470864 221.52341 
L 156.105095 221.52341 
L 156.105095 221.696941 
L 156.739325 221.696941 
L 156.739325 220.969239 
L 158.007786 220.885278 
L 158.007786 221.566657 
L 158.642017 221.566657 
L 158.642017 220.843425 
L 159.910478 220.75997 
L 159.910478 219.744117 
L 160.544708 219.744117 
L 160.544708 219.943354 
L 161.178939 219.943354 
L 161.178939 220.347651 
L 161.81317 220.347651 
L 161.81317 219.983431 
L 162.4474 219.983431 
L 162.4474 220.306865 
L 163.715861 220.306865 
L 163.715861 220.511598 
L 164.350092 220.511598 
L 164.350092 220.184987 
L 166.252783 220.10413 
L 166.252783 219.983431 
L 166.887014 219.983431 
L 166.887014 219.625486 
L 167.521244 219.625486 
L 167.521244 218.512337 
L 168.789705 218.437722 
L 168.789705 216.015008 
L 169.423936 216.015008 
L 169.423936 215.075447 
L 170.058166 215.075447 
L 170.058166 214.823563 
L 170.692397 214.823563 
L 170.692397 215.012189 
L 171.326627 215.012189 
L 171.326627 214.605641 
L 171.960858 214.605641 
L 171.960858 214.45137 
L 172.595088 214.45137 
L 172.595088 213.785862 
L 173.229319 213.785862 
L 173.229319 211.344923 
L 173.863549 211.344923 
L 173.863549 207.446237 
L 174.49778 207.446237 
L 174.49778 207.314993 
L 175.132011 207.314993 
L 175.132011 208.97103 
L 175.766241 208.97103 
L 175.766241 208.619807 
L 176.400472 208.619807 
L 176.400472 206.066748 
L 177.034702 206.066748 
L 177.034702 203.904046 
L 177.668933 203.904046 
L 177.668933 203.230428 
L 178.303163 203.230428 
L 178.303163 202.012829 
L 178.937394 202.012829 
L 178.937394 198.622141 
L 179.571624 198.622141 
L 179.571624 205.781245 
L 180.205855 205.781245 
L 180.205855 204.352961 
L 180.840085 204.352961 
L 180.840085 204.50478 
L 181.474316 204.50478 
L 181.474316 205.261213 
L 182.108546 205.261213 
L 182.108546 203.830161 
L 183.377007 203.88555 
L 183.377007 202.80488 
L 184.011238 202.80488 
L 184.011238 201.462659 
L 184.645468 201.462659 
L 184.645468 202.046646 
L 185.279699 202.046646 
L 185.279699 201.744261 
L 185.913929 201.744261 
L 185.913929 201.545088 
L 186.54816 201.545088 
L 186.54816 200.910652 
L 187.18239 200.910652 
L 187.18239 202.012829 
L 187.816621 202.012829 
L 187.816621 202.353496 
L 188.450852 202.353496 
L 188.450852 202.560609 
L 189.085082 202.560609 
L 189.085082 202.875202 
L 189.719313 202.875202 
L 189.719313 203.302208 
L 190.353543 203.302208 
L 190.353543 204.466721 
L 190.987774 204.466721 
L 190.987774 204.221023 
L 191.622004 204.221023 
L 191.622004 204.390812 
L 192.890465 204.428732 
L 192.890465 204.202242 
L 193.524696 204.202242 
L 193.524696 202.840011 
L 194.158926 202.840011 
L 194.158926 201.979068 
L 194.793157 201.979068 
L 194.793157 201.479119 
L 196.061618 201.413358 
L 196.061618 200.719275 
L 196.695848 200.719275 
L 196.695848 200.001569 
L 197.330079 200.001569 
L 197.330079 199.621665 
L 197.964309 199.621665 
L 197.964309 199.879243 
L 199.23277 199.772794 
L 199.23277 200.155497 
L 199.867001 200.155497 
L 199.867001 199.848773 
L 200.501231 199.848773 
L 200.501231 200.047628 
L 201.769693 200.016911 
L 201.769693 199.337512 
L 202.403923 199.337512 
L 202.403923 198.867551 
L 203.038154 198.867551 
L 203.038154 197.167417 
L 203.672384 197.167417 
L 203.672384 195.129759 
L 204.306615 195.129759 
L 204.306615 193.48606 
L 204.940845 193.48606 
L 204.940845 192.140733 
L 205.575076 192.140733 
L 205.575076 190.897015 
L 206.209306 190.897015 
L 206.209306 190.379071 
L 206.843537 190.379071 
L 206.843537 188.148197 
L 207.477767 188.148197 
L 207.477767 185.521289 
L 208.111998 185.521289 
L 208.111998 185.690048 
L 208.746228 185.690048 
L 208.746228 183.128132 
L 209.380459 183.128132 
L 209.380459 182.670221 
L 210.014689 182.670221 
L 210.014689 180.732083 
L 210.64892 180.732083 
L 210.64892 176.493273 
L 211.28315 176.493273 
L 211.28315 174.784349 
L 211.917381 174.784349 
L 211.917381 174.217948 
L 212.551611 174.217948 
L 212.551611 172.00726 
L 213.185842 172.00726 
L 213.185842 165.804129 
L 213.820073 165.804129 
L 213.820073 163.420103 
L 214.454303 163.420103 
L 214.454303 160.086489 
L 215.088534 160.086489 
L 215.088534 152.855213 
L 215.722764 152.855213 
L 215.722764 148.275428 
L 216.356995 148.275428 
L 216.356995 153.846094 
L 216.991225 153.846094 
L 216.991225 166.450042 
L 217.625456 166.450042 
L 217.625456 154.865621 
L 218.259686 154.865621 
L 218.259686 151.106669 
L 218.893917 151.106669 
L 218.893917 153.255614 
L 219.528147 153.255614 
L 219.528147 155.203862 
L 220.162378 155.203862 
L 220.162378 155.385817 
L 220.796608 155.385817 
L 220.796608 155.983811 
L 221.430839 155.983811 
L 221.430839 155.028769 
L 222.065069 155.028769 
L 222.065069 154.110643 
L 223.33353 154.21538 
L 223.33353 152.698762 
L 224.601991 152.650013 
L 224.601991 154.262855 
L 225.236222 154.262855 
L 225.236222 154.856886 
L 225.870452 154.856886 
L 225.870452 157.235998 
L 226.504683 157.235998 
L 226.504683 158.470589 
L 227.138914 158.470589 
L 227.138914 156.984868 
L 227.773144 156.984868 
L 227.773144 156.799932 
L 228.407375 156.799932 
L 228.407375 157.651418 
L 229.041605 157.651418 
L 229.041605 159.045893 
L 229.675836 159.045893 
L 229.675836 163.093014 
L 230.310066 163.093014 
L 230.310066 164.035739 
L 230.944297 164.035739 
L 230.944297 159.754427 
L 231.578527 159.754427 
L 231.578527 159.088672 
L 232.212758 159.088672 
L 232.212758 160.797169 
L 232.846988 160.797169 
L 232.846988 159.639777 
L 233.481219 159.639777 
L 233.481219 158.738346 
L 234.115449 158.738346 
L 234.115449 157.527904 
L 234.74968 157.527904 
L 234.74968 157.114921 
L 235.38391 157.114921 
L 235.38391 157.892583 
L 236.018141 157.892583 
L 236.018141 156.609023 
L 236.652371 156.609023 
L 236.652371 158.526782 
L 237.286602 158.526782 
L 237.286602 156.404794 
L 237.920832 156.404794 
L 237.920832 155.875298 
L 238.555063 155.875298 
L 238.555063 154.939142 
L 239.189293 154.939142 
L 239.189293 153.000067 
L 239.823524 153.000067 
L 239.823524 155.095802 
L 240.457755 155.095802 
L 240.457755 154.330864 
L 241.091985 154.330864 
L 241.091985 153.987996 
L 241.726216 153.987996 
L 241.726216 153.479986 
L 242.360446 153.479986 
L 242.360446 154.176465 
L 242.994677 154.176465 
L 242.994677 153.887729 
L 243.628907 153.887729 
L 243.628907 153.622693 
L 244.263138 153.622693 
L 244.263138 154.344493 
L 244.897368 154.344493 
L 244.897368 153.976273 
L 245.531599 153.976273 
L 245.531599 153.403297 
L 246.165829 153.403297 
L 246.165829 151.74488 
L 246.80006 151.74488 
L 246.80006 145.557322 
L 247.43429 145.557322 
L 247.43429 144.553663 
L 248.068521 144.553663 
L 248.068521 143.357863 
L 248.702751 143.357863 
L 248.702751 143.753302 
L 249.336982 143.753302 
L 249.336982 139.211546 
L 249.971212 139.211546 
L 249.971212 133.656477 
L 250.605443 133.656477 
L 250.605443 130.025822 
L 251.239673 130.025822 
L 251.239673 126.087865 
L 251.873904 126.087865 
L 251.873904 117.538053 
L 252.508135 117.538053 
L 252.508135 114.880408 
L 253.142365 114.880408 
L 253.142365 108.006019 
L 253.776596 108.006019 
L 253.776596 109.600213 
L 254.410826 109.600213 
L 254.410826 117.855309 
L 255.045057 117.855309 
L 255.045057 113.348448 
L 255.679287 113.348448 
L 255.679287 113.680488 
L 256.313518 113.680488 
L 256.313518 118.471049 
L 256.947748 118.471049 
L 256.947748 119.25305 
L 257.581979 119.25305 
L 257.581979 117.330069 
L 258.216209 117.330069 
L 258.216209 117.101138 
L 258.85044 117.101138 
L 258.85044 114.521775 
L 259.48467 114.521775 
L 259.48467 114.65863 
L 260.118901 114.65863 
L 260.118901 114.141634 
L 260.753131 114.141634 
L 260.753131 114.814439 
L 261.387362 114.814439 
L 261.387362 114.545108 
L 262.021592 114.545108 
L 262.021592 115.780784 
L 262.655823 115.780784 
L 262.655823 115.632658 
L 263.290053 115.632658 
L 263.290053 114.81622 
L 263.924284 114.81622 
L 263.924284 115.754692 
L 264.558514 115.754692 
L 264.558514 118.408375 
L 265.192745 118.408375 
L 265.192745 120.889818 
L 265.826976 120.889818 
L 265.826976 120.22075 
L 266.461206 120.22075 
L 266.461206 121.955703 
L 267.095437 121.955703 
L 267.095437 122.684806 
L 267.729667 122.684806 
L 267.729667 122.39126 
L 268.363898 122.39126 
L 268.363898 118.918546 
L 268.998128 118.918546 
L 268.998128 119.895424 
L 270.266589 119.859409 
L 270.266589 120.394655 
L 270.90082 120.394655 
L 270.90082 122.194092 
L 271.53505 122.194092 
L 271.53505 121.731366 
L 272.169281 121.731366 
L 272.169281 125.441796 
L 272.803511 125.441796 
L 272.803511 127.719986 
L 273.437742 127.719986 
L 273.437742 126.845213 
L 274.071972 126.845213 
L 274.071972 131.335245 
L 274.706203 131.335245 
L 274.706203 126.770936 
L 275.340433 126.770936 
L 275.340433 125.779123 
L 275.974664 125.779123 
L 275.974664 125.504656 
L 276.608894 125.504656 
L 276.608894 126.687916 
L 277.243125 126.687916 
L 277.243125 127.117862 
L 277.877355 127.117862 
L 277.877355 127.832444 
L 279.145817 127.791566 
L 279.145817 127.562997 
L 279.780047 127.562997 
L 279.780047 127.25207 
L 280.414278 127.25207 
L 280.414278 125.521678 
L 281.048508 125.521678 
L 281.048508 123.893247 
L 281.682739 123.893247 
L 281.682739 121.901984 
L 282.316969 121.901984 
L 282.316969 120.196025 
L 282.9512 120.196025 
L 282.9512 119.206189 
L 283.58543 119.206189 
L 283.58543 119.608075 
L 284.219661 119.608075 
L 284.219661 121.528035 
L 284.853891 121.528035 
L 284.853891 120.958062 
L 285.488122 120.958062 
L 285.488122 121.548771 
L 286.122352 121.548771 
L 286.122352 122.638804 
L 286.756583 122.638804 
L 286.756583 121.233647 
L 287.390813 121.233647 
L 287.390813 119.719189 
L 288.025044 119.719189 
L 288.025044 120.406633 
L 288.659274 120.406633 
L 288.659274 120.08791 
L 289.293505 120.08791 
L 289.293505 120.415955 
L 289.927735 120.415955 
L 289.927735 120.219431 
L 290.561966 120.219431 
L 290.561966 120.537514 
L 291.196196 120.537514 
L 291.196196 121.453346 
L 291.830427 121.453346 
L 291.830427 121.864821 
L 292.464658 121.864821 
L 292.464658 121.635454 
L 293.733119 121.618512 
L 293.733119 122.335309 
L 294.367349 122.335309 
L 294.367349 124.052489 
L 295.00158 124.052489 
L 295.00158 124.254174 
L 295.63581 124.254174 
L 295.63581 124.690901 
L 296.904271 124.749066 
L 296.904271 126.028453 
L 297.538502 126.028453 
L 297.538502 125.615975 
L 298.172732 125.615975 
L 298.172732 126.160175 
L 298.806963 126.160175 
L 298.806963 126.004039 
L 299.441193 126.004039 
L 299.441193 127.032074 
L 300.075424 127.032074 
L 300.075424 129.599292 
L 300.709654 129.599292 
L 300.709654 129.136204 
L 301.343885 129.136204 
L 301.343885 131.062785 
L 301.978115 131.062785 
L 301.978115 131.911955 
L 302.612346 131.911955 
L 302.612346 133.402377 
L 303.246576 133.402377 
L 303.246576 131.736107 
L 303.880807 131.736107 
L 303.880807 129.928758 
L 304.515038 129.928758 
L 304.515038 130.214918 
L 305.149268 130.214918 
L 305.149268 132.010618 
L 305.783499 132.010618 
L 305.783499 132.380393 
L 306.417729 132.380393 
L 306.417729 133.171638 
L 307.05196 133.171638 
L 307.05196 133.641999 
L 307.68619 133.641999 
L 307.68619 132.616236 
L 308.320421 132.616236 
L 308.320421 128.635681 
L 308.954651 128.635681 
L 308.954651 130.191986 
L 309.588882 130.191986 
L 309.588882 132.053129 
L 310.223112 132.053129 
L 310.223112 131.02336 
L 310.857343 131.02336 
L 310.857343 130.890642 
L 311.491573 130.890642 
L 311.491573 130.745625 
L 312.125804 130.745625 
L 312.125804 130.997302 
L 312.760034 130.997302 
L 312.760034 132.505724 
L 313.394265 132.505724 
L 313.394265 131.975742 
L 314.028495 131.975742 
L 314.028495 134.804718 
L 314.662726 134.804718 
L 314.662726 133.532168 
L 315.296956 133.532168 
L 315.296956 133.660255 
L 315.931187 133.660255 
L 315.931187 134.888738 
L 316.565417 134.888738 
L 316.565417 136.696366 
L 317.199648 136.696366 
L 317.199648 135.776738 
L 317.833879 135.776738 
L 317.833879 137.851098 
L 318.468109 137.851098 
L 318.468109 143.028051 
L 319.10234 143.028051 
L 319.10234 142.462462 
L 319.73657 142.462462 
L 319.73657 140.82589 
L 320.370801 140.82589 
L 320.370801 138.331262 
L 321.005031 138.331262 
L 321.005031 142.153088 
L 321.639262 142.153088 
L 321.639262 141.457802 
L 322.273492 141.457802 
L 322.273492 141.714192 
L 322.907723 141.714192 
L 322.907723 141.863201 
L 323.541953 141.863201 
L 323.541953 140.755766 
L 324.176184 140.755766 
L 324.176184 139.779486 
L 324.810414 139.779486 
L 324.810414 140.279207 
L 325.444645 140.279207 
L 325.444645 139.136816 
L 326.078875 139.136816 
L 326.078875 137.821838 
L 326.713106 137.821838 
L 326.713106 137.445156 
L 327.347336 137.445156 
L 327.347336 135.993343 
L 327.981567 135.993343 
L 327.981567 136.39318 
L 328.615797 136.39318 
L 328.615797 138.443541 
L 329.250028 138.443541 
L 329.250028 139.845538 
L 329.884258 139.845538 
L 329.884258 139.181129 
L 330.518489 139.181129 
L 330.518489 139.719543 
L 331.15272 139.719543 
L 331.15272 138.569188 
L 331.78695 138.569188 
L 331.78695 140.015869 
L 332.421181 140.015869 
L 332.421181 141.799742 
L 333.689642 141.834247 
L 333.689642 140.636478 
L 334.323872 140.636478 
L 334.323872 141.496335 
L 335.592333 141.557953 
L 335.592333 140.319951 
L 336.226564 140.319951 
L 336.226564 140.521377 
L 336.860794 140.521377 
L 336.860794 140.191918 
L 337.495025 140.191918 
L 337.495025 140.502984 
L 338.129255 140.502984 
L 338.129255 141.032304 
L 338.763486 141.032304 
L 338.763486 140.46887 
L 339.397716 140.46887 
L 339.397716 140.684111 
L 340.031947 140.684111 
L 340.031947 141.308931 
L 340.666177 141.308931 
L 340.666177 141.811859 
L 341.300408 141.811859 
L 341.300408 141.370907 
L 341.934638 141.370907 
L 341.934638 141.19458 
L 342.568869 141.19458 
L 342.568869 139.427384 
L 343.2031 139.427384 
L 343.2031 139.866753 
L 343.83733 139.866753 
L 343.83733 140.256701 
L 344.471561 140.256701 
L 344.471561 139.544926 
L 345.105791 139.544926 
L 345.105791 139.040312 
L 345.740022 139.040312 
L 345.740022 137.939901 
L 346.374252 137.939901 
L 346.374252 136.708761 
L 347.008483 136.708761 
L 347.008483 136.491104 
L 347.642713 136.491104 
L 347.642713 137.314089 
L 348.911174 137.221933 
L 348.911174 136.14043 
L 349.545405 136.14043 
L 349.545405 136.452888 
L 350.179635 136.452888 
L 350.179635 136.987773 
L 350.813866 136.987773 
L 350.813866 137.121256 
L 351.448096 137.121256 
L 351.448096 137.751167 
L 352.082327 137.751167 
L 352.082327 138.496729 
L 352.716557 138.496729 
L 352.716557 141.500009 
L 353.350788 141.500009 
L 353.350788 141.32714 
L 353.985018 141.32714 
L 353.985018 141.604978 
L 354.619249 141.604978 
L 354.619249 141.135834 
L 355.88771 141.092558 
L 355.88771 139.912652 
L 356.521941 139.912652 
L 356.521941 140.735394 
L 357.156171 140.735394 
L 357.156171 141.309841 
L 357.790402 141.309841 
L 357.790402 141.143958 
L 358.424632 141.143958 
L 358.424632 140.80012 
L 359.058863 140.80012 
L 359.058863 140.348607 
L 359.693093 140.348607 
L 359.693093 140.467996 
L 360.327324 140.467996 
L 360.327324 139.693425 
L 361.595785 139.784559 
L 361.595785 139.221421 
L 362.230015 139.221421 
L 362.230015 138.527752 
L 362.864246 138.527752 
L 362.864246 137.494331 
L 363.498476 137.494331 
L 363.498476 136.580068 
L 364.132707 136.580068 
L 364.132707 133.772033 
L 364.766937 133.772033 
L 364.766937 129.426477 
L 365.401168 129.426477 
L 365.401168 130.34445 
L 366.035398 130.34445 
L 366.035398 135.024149 
L 366.669629 135.024149 
L 366.669629 134.362912 
L 367.303859 134.362912 
L 367.303859 133.916272 
L 367.93809 133.916272 
L 367.93809 134.071153 
L 368.57232 134.071153 
L 368.57232 131.96413 
L 369.206551 131.96413 
L 369.206551 131.699969 
L 369.840782 131.699969 
L 369.840782 130.348209 
L 370.475012 130.348209 
L 370.475012 128.819472 
L 371.109243 128.819472 
L 371.109243 127.992928 
L 371.743473 127.992928 
L 371.743473 126.90974 
L 372.377704 126.90974 
L 372.377704 127.756456 
L 373.011934 127.756456 
L 373.011934 126.958952 
L 373.646165 126.958952 
L 373.646165 128.000601 
L 374.914626 128.023157 
L 374.914626 128.191903 
L 375.548856 128.191903 
L 375.548856 127.28402 
L 376.183087 127.28402 
L 376.183087 128.177869 
L 376.817317 128.177869 
L 376.817317 130.426763 
L 377.451548 130.426763 
L 377.451548 130.642969 
L 378.085778 130.642969 
L 378.085778 130.096797 
L 378.720009 130.096797 
L 378.720009 130.911599 
L 379.354239 130.911599 
L 379.354239 131.365677 
L 379.98847 131.365677 
L 379.98847 131.000073 
L 380.6227 131.000073 
L 380.6227 130.833393 
L 381.256931 130.833393 
L 381.256931 129.700031 
L 381.891161 129.700031 
L 381.891161 128.646069 
L 383.159623 128.68222 
L 383.159623 128.079414 
L 383.793853 128.079414 
L 383.793853 128.521754 
L 384.428084 128.521754 
L 384.428084 129.365433 
L 385.062314 129.365433 
L 385.062314 128.843934 
L 386.330775 128.894448 
L 386.330775 129.249484 
L 386.965006 129.249484 
L 386.965006 128.824462 
L 388.233467 128.796035 
L 388.233467 128.957135 
L 388.867697 128.957135 
L 388.867697 128.718931 
L 390.136158 128.647553 
L 390.136158 128.515361 
L 390.770389 128.515361 
L 390.770389 128.182707 
L 391.404619 128.182707 
L 391.404619 127.870542 
L 392.03885 127.870542 
L 392.03885 127.12292 
L 392.67308 127.12292 
L 392.67308 127.430039 
L 393.307311 127.430039 
L 393.307311 127.073318 
L 393.941541 127.073318 
L 393.941541 127.240506 
L 394.575772 127.240506 
L 394.575772 126.724873 
L 395.210003 126.724873 
L 395.210003 126.944359 
L 395.844233 126.944359 
L 395.844233 127.069649 
L 396.478464 127.069649 
L 396.478464 127.527333 
L 397.112694 127.527333 
L 397.112694 127.271512 
L 397.746925 127.271512 
L 397.746925 124.557575 
L 398.381155 124.557575 
L 398.381155 123.49982 
L 399.015386 123.49982 
L 399.015386 121.804927 
L 399.649616 121.804927 
L 399.649616 122.011359 
L 400.283847 122.011359 
L 400.283847 118.474385 
L 400.918077 118.474385 
L 400.918077 116.542096 
L 401.552308 116.542096 
L 401.552308 121.48382 
L 402.186538 121.48382 
L 402.186538 120.213164 
L 402.820769 120.213164 
L 402.820769 119.003924 
L 403.454999 119.003924 
L 403.454999 118.571965 
L 404.08923 118.571965 
L 404.08923 119.158494 
L 405.991921 119.211216 
L 405.991921 119.017928 
L 406.626152 119.017928 
L 406.626152 119.206189 
L 407.260382 119.206189 
L 407.260382 119.393635 
L 407.894613 119.393635 
L 407.894613 121.041624 
L 408.528844 121.041624 
L 408.528844 122.20026 
L 409.163074 122.20026 
L 409.163074 121.76012 
L 410.431535 121.818459 
L 410.431535 122.265673 
L 411.065766 122.265673 
L 411.065766 122.036903 
L 412.334227 122.090611 
L 412.334227 122.244573 
L 413.602688 122.2264 
L 413.602688 120.952594 
L 414.236918 120.952594 
L 414.236918 120.496692 
L 414.871149 120.496692 
L 414.871149 120.924253 
L 416.13961 120.981658 
L 416.13961 121.43935 
L 416.77384 121.43935 
L 416.77384 120.999458 
L 418.676532 120.986107 
L 418.676532 120.738437 
L 419.310762 120.738437 
L 419.310762 120.049924 
L 419.944993 120.049924 
L 419.944993 119.925647 
L 420.579223 119.925647 
L 420.579223 120.256076 
L 421.213454 120.256076 
L 421.213454 119.764963 
L 421.847685 119.764963 
L 421.847685 118.45256 
L 422.481915 118.45256 
L 422.481915 117.255003 
L 423.116146 117.255003 
L 423.116146 117.926966 
L 423.750376 117.926966 
L 423.750376 117.401374 
L 424.384607 117.401374 
L 424.384607 118.01874 
L 425.018837 118.01874 
L 425.018837 116.964191 
L 426.921529 116.957706 
L 426.921529 117.157423 
L 427.555759 117.157423 
L 427.555759 116.240044 
L 428.82422 116.144665 
L 428.82422 116.098357 
L 429.458451 116.098357 
L 429.458451 115.89137 
L 430.092681 115.89137 
L 430.092681 115.489522 
L 430.726912 115.489522 
L 430.726912 112.488484 
L 431.361142 112.488484 
L 431.361142 112.118677 
L 431.995373 112.118677 
L 431.995373 111.362024 
L 432.629603 111.362024 
L 432.629603 108.465347 
L 433.263834 108.465347 
L 433.263834 112.566847 
L 433.898064 112.566847 
L 433.898064 115.112316 
L 434.532295 115.112316 
L 434.532295 114.47619 
L 435.166526 114.47619 
L 435.166526 112.908565 
L 435.800756 112.908565 
L 435.800756 113.190041 
L 436.434987 113.190041 
L 436.434987 112.382119 
L 437.069217 112.382119 
L 437.069217 110.965662 
L 437.703448 110.965662 
L 437.703448 110.38926 
L 438.337678 110.38926 
L 438.337678 110.925131 
L 438.971909 110.925131 
L 438.971909 110.593317 
L 439.606139 110.593317 
L 439.606139 109.514516 
L 440.24037 109.514516 
L 440.24037 108.170682 
L 440.8746 108.170682 
L 440.8746 107.707272 
L 441.508831 107.707272 
L 441.508831 106.401425 
L 442.143061 106.401425 
L 442.143061 105.634408 
L 442.777292 105.634408 
L 442.777292 106.966988 
L 443.411522 106.966988 
L 443.411522 106.136117 
L 444.045753 106.136117 
L 444.045753 109.245319 
L 444.679983 109.245319 
L 444.679983 108.393529 
L 445.314214 108.393529 
L 445.314214 111.427385 
L 445.948444 111.427385 
L 445.948444 109.80782 
L 446.582675 109.80782 
L 446.582675 109.019164 
L 447.216906 109.019164 
L 447.216906 106.93842 
L 447.851136 106.93842 
L 447.851136 106.65728 
L 448.485367 106.65728 
L 448.485367 107.349275 
L 449.119597 107.349275 
L 449.119597 106.808789 
L 449.753828 106.808789 
L 449.753828 106.261775 
L 450.388058 106.261775 
L 450.388058 105.35864 
L 451.022289 105.35864 
L 451.022289 104.308249 
L 451.656519 104.308249 
L 451.656519 101.683121 
L 452.29075 101.683121 
L 452.29075 100.198175 
L 452.92498 100.198175 
L 452.92498 99.678889 
L 453.559211 99.678889 
L 453.559211 99.482072 
L 454.193441 99.482072 
L 454.193441 96.122851 
L 454.827672 96.122851 
L 454.827672 92.240576 
L 455.461902 92.240576 
L 455.461902 94.448696 
L 456.096133 94.448696 
L 456.096133 92.340016 
L 456.730363 92.340016 
L 456.730363 89.985035 
L 457.364594 89.985035 
L 457.364594 89.03679 
L 457.998824 89.03679 
L 457.998824 89.932134 
L 458.633055 89.932134 
L 458.633055 90.526011 
L 459.267285 90.526011 
L 459.267285 90.298656 
L 459.901516 90.298656 
L 459.901516 91.560661 
L 460.535747 91.560661 
L 460.535747 91.233854 
L 461.804208 91.166595 
L 461.804208 91.553769 
L 462.438438 91.553769 
L 462.438438 93.211697 
L 463.072669 93.211697 
L 463.072669 96.50442 
L 463.706899 96.50442 
L 463.706899 93.626939 
L 464.34113 93.626939 
L 464.34113 89.609359 
L 464.97536 89.609359 
L 464.97536 90.315545 
L 465.609591 90.315545 
L 465.609591 88.760888 
L 466.878052 88.807248 
L 466.878052 85.134522 
L 467.512282 85.134522 
L 467.512282 82.505278 
L 468.146513 82.505278 
L 468.146513 79.944796 
L 468.780743 79.944796 
L 468.780743 81.529024 
L 469.414974 81.529024 
L 469.414974 80.154949 
L 470.049204 80.154949 
L 470.049204 79.940713 
L 470.683435 79.940713 
L 470.683435 77.557967 
L 471.317665 77.557967 
L 471.317665 79.901058 
L 471.951896 79.901058 
L 471.951896 80.159267 
L 472.586126 80.159267 
L 472.586126 82.523012 
L 473.220357 82.523012 
L 473.220357 83.551745 
L 473.854588 83.551745 
L 473.854588 83.994858 
L 474.488818 83.994858 
L 474.488818 82.167161 
L 475.123049 82.167161 
L 475.123049 80.974422 
L 475.757279 80.974422 
L 475.757279 80.2677 
L 476.39151 80.2677 
L 476.39151 79.64466 
L 477.02574 79.64466 
L 477.02574 77.926318 
L 477.659971 77.926318 
L 477.659971 74.481309 
L 478.928432 74.461348 
L 478.928432 73.732284 
L 479.562662 73.732284 
L 479.562662 74.197746 
L 480.196893 74.197746 
L 480.196893 71.99187 
L 480.831123 71.99187 
L 480.831123 69.122795 
L 481.465354 69.122795 
L 481.465354 68.835765 
L 482.099584 68.835765 
L 482.099584 73.76933 
L 482.733815 73.76933 
L 482.733815 67.750713 
L 483.368045 67.750713 
L 483.368045 66.78569 
L 484.636506 66.861534 
L 484.636506 62.939049 
L 485.270737 62.939049 
L 485.270737 60.954732 
L 485.904968 60.954732 
L 485.904968 56.011037 
L 486.539198 56.011037 
L 486.539198 54.249095 
L 487.173429 54.249095 
L 487.173429 52.47983 
L 487.807659 52.47983 
L 487.807659 49.528887 
L 488.44189 49.528887 
L 488.44189 56.112333 
L 489.07612 56.112333 
L 489.07612 53.425752 
L 489.710351 53.425752 
L 489.710351 57.946824 
L 490.344581 57.946824 
L 490.344581 54.290105 
L 490.978812 54.290105 
L 490.978812 52.754226 
L 491.613042 52.754226 
L 491.613042 56.866556 
L 492.247273 56.866556 
L 492.247273 56.450639 
L 492.881503 56.450639 
L 492.881503 59.854002 
L 493.515734 59.854002 
L 493.515734 61.110276 
L 494.149964 61.110276 
L 494.149964 59.990146 
L 494.784195 59.990146 
L 494.784195 62.350394 
L 495.418425 62.350394 
L 495.418425 66.888676 
L 496.686886 66.779968 
L 496.686886 65.201637 
L 497.321117 65.201637 
L 497.321117 62.402267 
L 497.955347 62.402267 
L 497.955347 60.329915 
L 498.589578 60.329915 
L 498.589578 63.403507 
L 499.223809 63.403507 
L 499.223809 62.091065 
L 499.858039 62.091065 
L 499.858039 59.835373 
L 500.49227 59.835373 
L 500.49227 64.223407 
L 501.1265 64.223407 
L 501.1265 64.661446 
L 501.760731 64.661446 
L 501.760731 66.647295 
L 502.394961 66.647295 
L 502.394961 65.168422 
L 503.029192 65.168422 
L 503.029192 66.064851 
L 503.663422 66.064851 
L 503.663422 67.535703 
L 504.297653 67.535703 
L 504.297653 70.7002 
L 504.931883 70.7002 
L 504.931883 70.824996 
L 506.200344 70.831887 
L 506.200344 67.680901 
L 507.468805 67.649499 
L 507.468805 65.120317 
L 508.103036 65.120317 
L 508.103036 65.261477 
L 508.737266 65.261477 
L 508.737266 64.059365 
L 509.371497 64.059365 
L 509.371497 63.289015 
L 510.005727 63.289015 
L 510.005727 64.124117 
L 510.639958 64.124117 
L 510.639958 66.400987 
L 511.274188 66.400987 
L 511.274188 66.218092 
L 511.908419 66.218092 
L 511.908419 66.787556 
L 512.54265 66.787556 
L 512.54265 68.715164 
L 513.17688 68.715164 
L 513.17688 69.183339 
L 513.811111 69.183339 
L 513.811111 68.776806 
L 515.079572 68.760692 
L 515.079572 68.430452 
L 515.713802 68.430452 
L 515.713802 71.553051 
L 516.348033 71.553051 
L 516.348033 71.758023 
L 516.982263 71.758023 
L 516.982263 70.904236 
L 517.616494 70.904236 
L 517.616494 72.848215 
L 518.250724 72.848215 
L 518.250724 73.811497 
L 518.884955 73.811497 
L 518.884955 71.321461 
L 520.153416 71.314719 
L 520.153416 72.274915 
L 520.787646 72.274915 
L 520.787646 72.540674 
L 521.421877 72.540674 
L 521.421877 69.108356 
L 522.690338 69.008377 
L 522.690338 67.56395 
L 523.324568 67.56395 
L 523.324568 66.966271 
L 523.958799 66.966271 
L 523.958799 68.985635 
L 524.593029 68.985635 
L 524.593029 71.035587 
L 525.22726 71.035587 
L 525.22726 72.610593 
L 525.861491 72.610593 
L 525.861491 72.468206 
L 526.495721 72.468206 
L 526.495721 71.76475 
L 527.129952 71.76475 
L 527.129952 71.638975 
L 527.764182 71.638975 
L 527.764182 70.47703 
L 528.398413 70.47703 
L 528.398413 70.126148 
L 529.032643 70.126148 
L 529.032643 69.141988 
L 529.666874 69.141988 
L 529.666874 72.757221 
L 530.301104 72.757221 
L 530.301104 72.285522 
L 530.935335 72.285522 
L 530.935335 71.730212 
L 532.203796 71.73453 
L 532.203796 71.456714 
L 532.838026 71.456714 
L 532.838026 71.3145 
L 533.472257 71.3145 
L 533.472257 71.653787 
L 534.106487 71.653787 
L 534.106487 71.487765 
L 535.374948 71.464228 
L 535.374948 72.486473 
L 536.009179 72.486473 
L 536.009179 71.691102 
L 537.27764 71.741345 
L 537.27764 71.810965 
L 537.911871 71.810965 
L 537.911871 72.365927 
L 538.546101 72.365927 
L 538.546101 72.170019 
L 539.180332 72.170019 
L 539.180332 71.604391 
L 539.814562 71.604391 
L 539.814562 72.016305 
L 540.448793 72.016305 
L 540.448793 74.601995 
L 541.083023 74.601995 
L 541.083023 77.811962 
L 541.717254 77.811962 
L 541.717254 80.05345 
L 542.351484 80.05345 
L 542.351484 82.721642 
L 542.985715 82.721642 
L 542.985715 80.855896 
L 543.619945 80.855896 
L 543.619945 83.179715 
L 544.254176 83.179715 
L 544.254176 84.067003 
L 544.888406 84.067003 
L 544.888406 85.757276 
L 545.522637 85.757276 
L 545.522637 84.252558 
L 546.156867 84.252558 
L 546.156867 82.33777 
L 546.791098 82.33777 
L 546.791098 82.759291 
L 547.425328 82.759291 
L 547.425328 83.039361 
L 548.059559 83.039361 
L 548.059559 82.170703 
L 548.693789 82.170703 
L 548.693789 81.441212 
L 549.32802 81.441212 
L 549.32802 83.734901 
L 549.96225 83.734901 
L 549.96225 83.529443 
L 550.596481 83.529443 
L 550.596481 83.852176 
L 551.230712 83.852176 
L 551.230712 84.073316 
L 552.499173 84.137424 
L 552.499173 84.764449 
L 553.767634 84.848338 
L 553.767634 85.219983 
L 554.401864 85.219983 
L 554.401864 83.830752 
L 555.036095 83.830752 
L 555.036095 83.952889 
L 555.670325 83.952889 
L 555.670325 82.195984 
L 556.304556 82.195984 
L 556.304556 81.097894 
L 556.938786 81.097894 
L 556.938786 82.695713 
L 558.207247 82.797062 
L 558.207247 82.40721 
L 559.475708 82.437867 
L 559.475708 82.143287 
L 560.109939 82.143287 
L 560.109939 81.660075 
L 562.01263 81.560259 
L 562.01263 81.225993 
L 562.646861 81.225993 
L 562.646861 77.54599 
L 563.281091 77.54599 
L 563.281091 76.085991 
L 563.915322 76.085991 
L 563.915322 76.873203 
L 564.549553 76.873203 
L 564.549553 76.372163 
L 565.183783 76.372163 
L 565.183783 75.926593 
L 565.818014 75.926593 
L 565.818014 75.443365 
L 566.452244 75.443365 
L 566.452244 75.957889 
L 567.086475 75.957889 
L 567.086475 75.61242 
L 567.720705 75.61242 
L 567.720705 74.507686 
L 568.354936 74.507686 
L 568.354936 72.213446 
L 568.989166 72.213446 
L 568.989166 67.42601 
L 569.623397 67.42601 
L 569.623397 69.409526 
L 570.257627 69.409526 
L 570.257627 68.402121 
L 570.891858 68.402121 
L 570.891858 65.55811 
L 571.526088 65.55811 
L 571.526088 66.711076 
L 572.160319 66.711076 
L 572.160319 67.059478 
L 572.794549 67.059478 
L 572.794549 67.411456 
L 573.42878 67.411456 
L 573.42878 67.622212 
L 574.06301 67.622212 
L 574.06301 65.286489 
L 574.697241 65.286489 
L 574.697241 64.319009 
L 575.331471 64.319009 
L 575.331471 61.142936 
L 575.965702 61.142936 
L 575.965702 60.540014 
L 576.599932 60.540014 
L 576.599932 61.600963 
L 577.234163 61.600963 
L 577.234163 60.87436 
L 577.868394 60.87436 
L 577.868394 57.989309 
L 578.502624 57.989309 
L 578.502624 60.067128 
L 579.136855 60.067128 
L 579.136855 63.458166 
L 579.771085 63.458166 
L 579.771085 61.5839 
L 580.405316 61.5839 
L 580.405316 63.031076 
L 581.039546 63.031076 
L 581.039546 63.83302 
L 581.673777 63.83302 
L 581.673777 61.697775 
L 582.308007 61.697775 
L 582.308007 59.927888 
L 582.942238 59.927888 
L 582.942238 60.263059 
L 583.576468 60.263059 
L 583.576468 62.734831 
L 584.210699 62.734831 
L 584.210699 62.120329 
L 584.844929 62.120329 
L 584.844929 62.538641 
L 585.47916 62.538641 
L 585.47916 62.034546 
L 586.11339 62.034546 
L 586.11339 63.666031 
L 586.747621 63.666031 
L 586.747621 61.517509 
L 587.381851 61.517509 
L 587.381851 61.781502 
L 588.016082 61.781502 
L 588.016082 62.441584 
L 588.650312 62.441584 
L 588.650312 62.134774 
L 589.918774 62.204525 
L 589.918774 63.438628 
L 590.553004 63.438628 
L 590.553004 66.90936 
L 591.187235 66.90936 
L 591.187235 66.584707 
L 591.821465 66.584707 
L 591.821465 67.026883 
L 592.455696 67.026883 
L 592.455696 65.933385 
L 593.089926 65.933385 
L 593.089926 66.68271 
L 593.724157 66.68271 
L 593.724157 67.208526 
L 594.358387 67.208526 
L 594.358387 66.836904 
L 594.992618 66.836904 
L 594.992618 65.743414 
L 595.626848 65.743414 
L 595.626848 63.982233 
L 596.261079 63.982233 
L 596.261079 64.275442 
L 597.52954 64.181463 
L 597.52954 64.873927 
L 598.16377 64.873927 
L 598.16377 65.826227 
L 598.798001 65.826227 
L 598.798001 66.95483 
L 599.432231 66.95483 
L 599.432231 69.348691 
L 600.066462 69.348691 
L 600.066462 69.701662 
L 600.700692 69.701662 
L 600.700692 68.588825 
L 601.334923 68.588825 
L 601.334923 69.617073 
L 601.969153 69.617073 
L 601.969153 68.686194 
L 602.603384 68.686194 
L 602.603384 69.627736 
L 603.237615 69.627736 
L 603.237615 70.542534 
L 603.871845 70.542534 
L 603.871845 69.624817 
L 604.506076 69.624817 
L 604.506076 69.450641 
L 605.140306 69.450641 
L 605.140306 69.306753 
L 605.774537 69.306753 
L 605.774537 69.666736 
L 606.408767 69.666736 
L 606.408767 69.163515 
L 607.042998 69.163515 
L 607.042998 67.885436 
L 607.677228 67.885436 
L 607.677228 67.135432 
L 608.311459 67.135432 
L 608.311459 65.190847 
L 608.945689 65.190847 
L 608.945689 65.610838 
L 609.57992 65.610838 
L 609.57992 66.573624 
L 610.21415 66.573624 
L 610.21415 64.32324 
L 611.482611 64.24557 
L 611.482611 63.284094 
L 612.116842 63.284094 
L 612.116842 63.074006 
L 612.751072 63.074006 
L 612.751072 62.018005 
L 613.385303 62.018005 
L 613.385303 62.398 
L 614.019533 62.398 
L 614.019533 63.468156 
L 614.653764 63.468156 
L 614.653764 65.460669 
L 615.287994 65.460669 
L 615.287994 66.063852 
L 615.922225 66.063852 
L 615.922225 64.80444 
L 616.556456 64.80444 
L 616.556456 67.584557 
L 617.190686 67.584557 
L 617.190686 74.785311 
L 617.824917 74.785311 
L 617.824917 75.738288 
L 618.459147 75.738288 
L 618.459147 72.737774 
L 619.093378 72.737774 
L 619.093378 71.096828 
L 619.727608 71.096828 
L 619.727608 73.785812 
L 620.361839 73.785812 
L 620.361839 70.75637 
L 620.996069 70.75637 
L 620.996069 69.187188 
L 621.6303 69.187188 
L 621.6303 70.561572 
L 622.898761 70.565472 
L 622.898761 69.425808 
L 623.532991 69.425808 
L 623.532991 69.79656 
L 624.167222 69.79656 
L 624.167222 68.203228 
L 624.801452 68.203228 
L 624.801452 65.834774 
L 625.435683 65.834774 
L 625.435683 65.224518 
L 626.069913 65.224518 
L 626.069913 63.143687 
L 626.704144 63.143687 
L 626.704144 65.392165 
L 627.338374 65.392165 
L 627.338374 64.087464 
L 627.972605 64.087464 
L 627.972605 63.812603 
L 628.606836 63.812603 
L 628.606836 65.590669 
L 629.241066 65.590669 
L 629.241066 63.685089 
L 629.875297 63.685089 
L 629.875297 62.349926 
L 630.509527 62.349926 
L 630.509527 63.566988 
L 631.143758 63.566988 
L 631.143758 63.24262 
L 631.777988 63.24262 
L 631.777988 63.893976 
L 633.046449 63.935014 
L 633.046449 64.312114 
L 634.31491 64.410667 
L 634.31491 64.535848 
L 634.949141 64.535848 
L 634.949141 64.792915 
L 635.583371 64.792915 
L 635.583371 64.37611 
L 636.851832 64.421666 
L 636.851832 64.517396 
L 638.120293 64.469645 
L 638.120293 63.589975 
L 638.754524 63.589975 
L 638.754524 60.709535 
L 639.388754 60.709535 
L 639.388754 60.149799 
L 640.022985 60.149799 
L 640.022985 60.425722 
L 640.657215 60.425722 
L 640.657215 59.387756 
L 641.291446 59.387756 
L 641.291446 59.734072 
L 641.925677 59.734072 
L 641.925677 59.130808 
L 643.194138 59.215031 
L 643.194138 59.394238 
L 643.828368 59.394238 
L 643.828368 59.803065 
L 644.462599 59.803065 
L 644.462599 59.114698 
L 645.096829 59.114698 
L 645.096829 62.44097 
L 645.73106 62.44097 
L 645.73106 62.301921 
L 646.36529 62.301921 
L 646.36529 62.09382 
L 646.999521 62.09382 
L 646.999521 60.895748 
L 647.633751 60.895748 
L 647.633751 61.894257 
L 648.267982 61.894257 
L 648.267982 61.377993 
L 648.902212 61.377993 
L 648.902212 61.092423 
L 649.536443 61.092423 
L 649.536443 61.65397 
L 650.170673 61.65397 
L 650.170673 61.42087 
L 650.804904 61.42087 
L 650.804904 60.08993 
L 651.439134 60.08993 
L 651.439134 59.859023 
L 652.073365 59.859023 
L 652.073365 59.404433 
L 652.707595 59.404433 
L 652.707595 57.406934 
L 653.341826 57.406934 
L 653.341826 56.301953 
L 653.976056 56.301953 
L 653.976056 56.061548 
L 654.610287 56.061548 
L 654.610287 55.548413 
L 655.244518 55.548413 
L 655.244518 53.675622 
L 655.878748 53.675622 
L 655.878748 52.622899 
L 656.512979 52.622899 
L 656.512979 52.082192 
L 657.147209 52.082192 
L 657.147209 49.776865 
L 657.78144 49.776865 
L 657.78144 49.244355 
L 658.41567 49.244355 
L 658.41567 50.866944 
L 659.049901 50.866944 
L 659.049901 49.185423 
L 659.684131 49.185423 
L 659.684131 49.023194 
L 660.318362 49.023194 
L 660.318362 50.271639 
L 660.952592 50.271639 
L 660.952592 49.131863 
L 661.586823 49.131863 
L 661.586823 45.326228 
L 662.221053 45.326228 
L 662.221053 44.729709 
L 662.855284 44.729709 
L 662.855284 42.563074 
L 663.489514 42.563074 
L 663.489514 40.748152 
L 664.123745 40.748152 
L 664.123745 37.959597 
L 664.757975 37.959597 
L 664.757975 34.231296 
L 665.392206 34.231296 
L 665.392206 36.416322 
L 666.026436 36.416322 
L 666.026436 35.67915 
L 666.660667 35.67915 
L 666.660667 36.140358 
L 667.294897 36.140358 
L 667.294897 38.534862 
L 667.929128 38.534862 
L 667.929128 39.652316 
L 668.563359 39.652316 
L 668.563359 37.874337 
L 669.197589 37.874337 
L 669.197589 35.581444 
L 669.83182 35.581444 
L 669.83182 30.894357 
L 670.46605 30.894357 
L 670.46605 30.403993 
L 671.100281 30.403993 
L 671.100281 29.677623 
L 671.734511 29.677623 
L 671.734511 26.970153 
L 672.368742 26.970153 
L 672.368742 29.067515 
L 673.002972 29.067515 
L 673.002972 31.462465 
L 673.637203 31.462465 
L 673.637203 29.980442 
L 674.271433 29.980442 
L 674.271433 28.391302 
L 674.905664 28.391302 
L 674.905664 26.510665 
L 675.539894 26.510665 
L 675.539894 26.649375 
L 676.174125 26.649375 
L 676.174125 26.210676 
L 676.808355 26.210676 
L 676.808355 28.308465 
L 677.442586 28.308465 
L 677.442586 27.051014 
L 678.076816 27.051014 
L 678.076816 25.979033 
L 678.711047 25.979033 
L 678.711047 25.867122 
L 679.345277 25.867122 
L 679.345277 26.204674 
L 679.979508 26.204674 
L 679.979508 24.340964 
L 680.613739 24.340964 
L 680.613739 25.506772 
L 681.247969 25.506772 
L 681.247969 27.800033 
L 681.8822 27.800033 
L 681.8822 29.713381 
L 682.51643 29.713381 
L 682.51643 27.886972 
L 683.150661 27.886972 
L 683.150661 26.52517 
L 684.419122 26.464625 
L 684.419122 26.694139 
L 685.053352 26.694139 
L 685.053352 30.72817 
L 685.687583 30.72817 
L 685.687583 35.602695 
L 686.321813 35.602695 
L 686.321813 36.883619 
L 686.956044 36.883619 
L 686.956044 34.786356 
L 687.590274 34.786356 
L 687.590274 35.408938 
L 688.224505 35.408938 
L 688.224505 35.647018 
L 688.858735 35.647018 
L 688.858735 37.678519 
L 689.492966 37.678519 
L 689.492966 36.445597 
L 690.127196 36.445597 
L 690.127196 34.851547 
L 690.761427 34.851547 
L 690.761427 36.388624 
L 691.395657 36.388624 
L 691.395657 36.952589 
L 692.664118 37.062487 
L 692.664118 37.427407 
L 693.298349 37.427407 
L 693.298349 37.211171 
L 693.93258 37.211171 
L 693.93258 37.637943 
L 694.56681 37.637943 
L 694.56681 38.077158 
L 695.201041 38.077158 
L 695.201041 38.740605 
L 695.835271 38.740605 
L 695.835271 38.406981 
L 696.469502 38.406981 
L 696.469502 35.404706 
L 697.103732 35.404706 
L 697.103732 32.843006 
L 697.737963 32.843006 
L 697.737963 34.953118 
L 698.372193 34.953118 
L 698.372193 31.684648 
L 699.006424 31.684648 
L 699.006424 31.234545 
L 699.640654 31.234545 
L 699.640654 30.58645 
L 700.274885 30.58645 
L 700.274885 30.729028 
L 700.909115 30.729028 
L 700.909115 29.524577 
L 701.543346 29.524577 
L 701.543346 29.721309 
L 702.177576 29.721309 
L 702.177576 30.542574 
L 702.811807 30.542574 
L 702.811807 29.347472 
L 703.446037 29.347472 
L 703.446037 31.022901 
L 704.714498 31.031589 
L 704.714498 30.267055 
L 705.348729 30.267055 
L 705.348729 32.507349 
L 706.61719 32.549047 
L 706.61719 33.443788 
L 707.251421 33.443788 
L 707.251421 30.292363 
L 707.885651 30.292363 
L 707.885651 27.215551 
L 708.519882 27.215551 
L 708.519882 27.486914 
L 709.154112 27.486914 
L 709.154112 26.458299 
L 709.788343 26.458299 
L 709.788343 24.865057 
L 710.422573 24.865057 
L 710.422573 25.296886 
L 711.056804 25.296886 
L 711.056804 25.41771 
L 711.691034 25.41771 
L 711.691034 24.945791 
L 712.325265 24.945791 
L 712.325265 24.537937 
L 712.959495 24.537937 
L 712.959495 24.42655 
L 713.593726 24.42655 
L 713.593726 23.925204 
L 714.227956 23.925204 
L 714.227956 24.331219 
L 714.862187 24.331219 
L 714.862187 26.19379 
L 715.496417 26.19379 
L 715.496417 26.393061 
L 716.130648 26.393061 
L 716.130648 27.420293 
L 716.764878 27.420293 
L 716.764878 26.519203 
L 717.399109 26.519203 
L 717.399109 29.584696 
L 718.033339 29.584696 
L 718.033339 30.321738 
L 718.66757 30.321738 
L 718.66757 30.719052 
L 719.301801 30.719052 
L 719.301801 30.980044 
L 719.936031 30.980044 
L 719.936031 29.773175 
L 720.570262 29.773175 
L 720.570262 29.130804 
L 721.204492 29.130804 
L 721.204492 30.874391 
L 721.838723 30.874391 
L 721.838723 30.466917 
L 722.472953 30.466917 
L 722.472953 32.401509 
L 723.107184 32.401509 
L 723.107184 33.023536 
L 723.741414 33.023536 
L 723.741414 32.411756 
L 724.375645 32.411756 
L 724.375645 32.7608 
L 725.009875 32.7608 
L 725.009875 36.695005 
L 725.644106 36.695005 
L 725.644106 35.681982 
L 726.278336 35.681982 
L 726.278336 35.072996 
L 726.912567 35.072996 
L 726.912567 35.530788 
L 727.546797 35.530788 
L 727.546797 32.060533 
L 728.181028 32.060533 
L 728.181028 32.751099 
L 728.815258 32.751099 
L 728.815258 31.730291 
L 729.449489 31.730291 
L 729.449489 33.902878 
L 730.083719 33.902878 
L 730.083719 35.419556 
L 730.71795 35.419556 
L 730.71795 35.190638 
L 731.35218 35.190638 
L 731.35218 32.720183 
L 731.986411 32.720183 
L 731.986411 35.010681 
L 732.620642 35.010681 
L 732.620642 34.627111 
L 733.254872 34.627111 
L 733.254872 34.318428 
L 733.889103 34.318428 
L 733.889103 32.838985 
L 734.523333 32.838985 
L 734.523333 32.505654 
L 735.157564 32.505654 
L 735.157564 30.674018 
L 735.791794 30.674018 
L 735.791794 31.267483 
L 736.426025 31.267483 
L 736.426025 30.783965 
L 737.060255 30.783965 
L 737.060255 32.811137 
L 737.694486 32.811137 
L 737.694486 33.909535 
L 738.328716 33.909535 
L 738.328716 33.761563 
L 738.962947 33.761563 
L 738.962947 33.259848 
L 739.597177 33.259848 
L 739.597177 34.242072 
L 740.231408 34.242072 
L 740.231408 34.082371 
L 740.865638 34.082371 
L 740.865638 34.751058 
L 741.499869 34.751058 
L 741.499869 36.144454 
L 742.134099 36.144454 
L 742.134099 39.25664 
L 742.76833 39.25664 
L 742.76833 39.889038 
L 743.40256 39.889038 
L 743.40256 40.875006 
L 744.036791 40.875006 
L 744.036791 39.748332 
L 744.671021 39.748332 
L 744.671021 40.506643 
L 745.305252 40.506643 
L 745.305252 38.785053 
L 745.939483 38.785053 
L 745.939483 40.162268 
L 746.573713 40.162268 
L 746.573713 39.180439 
L 747.207944 39.180439 
L 747.207944 41.120229 
L 747.842174 41.120229 
L 747.842174 45.871892 
L 748.476405 45.871892 
L 748.476405 47.812293 
L 749.110635 47.812293 
L 749.110635 47.26524 
L 749.744866 47.26524 
L 749.744866 47.649195 
L 750.379096 47.649195 
L 750.379096 49.185715 
L 751.013327 49.185715 
L 751.013327 48.178151 
L 751.647557 48.178151 
L 751.647557 46.783783 
L 752.281788 46.783783 
L 752.281788 48.135177 
L 752.916018 48.135177 
L 752.916018 47.57705 
L 753.550249 47.57705 
L 753.550249 45.323267 
L 754.184479 45.323267 
L 754.184479 47.056971 
L 754.81871 47.056971 
L 754.81871 44.758503 
L 755.45294 44.758503 
L 755.45294 45.478498 
L 756.721401 45.509789 
L 756.721401 44.612355 
L 757.355632 44.612355 
L 757.355632 44.306751 
L 757.989862 44.306751 
L 757.989862 45.287488 
L 758.624093 45.287488 
L 758.624093 46.957497 
L 759.258324 46.957497 
L 759.258324 48.125284 
L 759.892554 48.125284 
L 759.892554 48.582478 
L 761.161015 48.538513 
L 761.161015 49.128102 
L 761.795246 49.128102 
L 761.795246 46.580737 
L 762.429476 46.580737 
L 762.429476 48.685969 
L 763.063707 48.685969 
L 763.063707 48.84749 
L 763.697937 48.84749 
L 763.697937 49.127563 
L 764.332168 49.127563 
L 764.332168 49.317786 
L 764.966398 49.317786 
L 764.966398 49.090832 
L 765.600629 49.090832 
L 765.600629 48.192694 
L 766.234859 48.192694 
L 766.234859 48.95444 
L 767.50332 49.017115 
L 767.50332 48.840292 
L 768.137551 48.840292 
L 768.137551 49.245634 
L 768.771781 49.245634 
L 768.771781 48.261348 
L 769.406012 48.261348 
L 769.406012 47.53515 
L 770.040242 47.53515 
L 770.040242 48.206918 
L 770.674473 48.206918 
L 770.674473 47.431419 
L 771.308704 47.431419 
L 771.308704 51.081553 
L 771.942934 51.081553 
L 771.942934 52.253347 
L 772.577165 52.253347 
L 772.577165 52.134354 
L 773.211395 52.134354 
L 773.211395 52.751865 
L 773.845626 52.751865 
L 773.845626 52.422513 
L 774.479856 52.422513 
L 774.479856 51.535959 
L 777.016778 51.492135 
L 777.016778 52.191255 
L 777.651009 52.191255 
L 777.651009 51.860372 
L 778.91947 51.942329 
L 778.91947 52.31442 
L 780.187931 52.221114 
L 780.187931 51.956761 
L 780.822161 51.956761 
L 780.822161 51.510016 
L 781.456392 51.510016 
L 781.456392 48.435658 
L 782.090622 48.435658 
L 782.090622 47.209267 
L 782.724853 47.209267 
L 782.724853 45.668587 
L 783.359083 45.668587 
L 783.359083 45.381099 
L 783.993314 45.381099 
L 783.993314 44.790101 
L 784.627545 44.790101 
L 784.627545 45.05547 
L 785.261775 45.05547 
L 785.261775 45.676582 
L 785.896006 45.676582 
L 785.896006 46.729982 
L 786.530236 46.729982 
L 786.530236 46.186638 
L 787.164467 46.186638 
L 787.164467 44.029108 
L 787.798697 44.029108 
L 787.798697 44.417481 
L 788.432928 44.417481 
L 788.432928 44.959386 
L 789.701389 45.044 
L 789.701389 46.001459 
L 790.335619 46.001459 
L 790.335619 48.133985 
L 790.96985 48.133985 
L 790.96985 43.923527 
L 791.60408 43.923527 
L 791.60408 42.149017 
L 792.238311 42.149017 
L 792.238311 41.895639 
L 792.872541 41.895639 
L 792.872541 41.374459 
L 794.141002 41.349819 
L 794.141002 41.521636 
L 795.409463 41.429667 
L 795.409463 39.778524 
L 796.677924 39.720638 
L 796.677924 40.767619 
L 797.312155 40.767619 
L 797.312155 41.680457 
L 797.946386 41.680457 
L 797.946386 40.303756 
L 798.580616 40.303756 
L 798.580616 41.310132 
L 799.214847 41.310132 
L 799.214847 40.265002 
L 799.849077 40.265002 
L 799.849077 41.643179 
L 800.483308 41.643179 
L 800.483308 42.295472 
L 801.117538 42.295472 
L 801.117538 41.825782 
L 801.751769 41.825782 
L 801.751769 42.31827 
L 802.385999 42.31827 
L 802.385999 42.536309 
L 803.02023 42.536309 
L 803.02023 41.56471 
L 803.65446 41.56471 
L 803.65446 41.937071 
L 804.922921 41.943394 
L 804.922921 43.032285 
L 805.557152 43.032285 
L 805.557152 43.624004 
L 806.191382 43.624004 
L 806.191382 42.646643 
L 806.825613 42.646643 
L 806.825613 40.007445 
L 807.459843 40.007445 
L 807.459843 39.756734 
L 808.094074 39.756734 
L 808.094074 39.616598 
L 808.728304 39.616598 
L 808.728304 39.410736 
L 809.362535 39.410736 
L 809.362535 39.79257 
L 809.996765 39.79257 
L 809.996765 39.671131 
L 811.265227 39.774881 
L 811.265227 40.078056 
L 811.899457 40.078056 
L 811.899457 40.517678 
L 813.167918 40.419842 
L 813.167918 40.160973 
L 813.802149 40.160973 
L 813.802149 40.610762 
L 814.436379 40.610762 
L 814.436379 40.243596 
L 815.07061 40.243596 
L 815.07061 40.442736 
L 815.70484 40.442736 
L 815.70484 42.391808 
L 816.339071 42.391808 
L 816.339071 42.815918 
L 817.607532 42.874858 
L 817.607532 41.574771 
L 818.241762 41.574771 
L 818.241762 43.019212 
L 820.144454 43.048367 
L 820.144454 42.490267 
L 820.778684 42.490267 
L 820.778684 42.312686 
L 821.412915 42.312686 
L 821.412915 42.454401 
L 822.047145 42.454401 
L 822.047145 42.744917 
L 822.681376 42.744917 
L 822.681376 42.152838 
L 823.315607 42.152838 
L 823.315607 41.525127 
L 824.584068 41.421014 
L 824.584068 42.316647 
L 825.218298 42.316647 
L 825.218298 40.993914 
L 825.852529 40.993914 
L 825.852529 40.16168 
L 826.486759 40.16168 
L 826.486759 37.399322 
L 827.12099 37.399322 
L 827.12099 37.28439 
L 827.75522 37.28439 
L 827.75522 36.477463 
L 828.389451 36.477463 
L 828.389451 36.708684 
L 829.023681 36.708684 
L 829.023681 35.753916 
L 829.657912 35.753916 
L 829.657912 35.866855 
L 830.926373 35.7947 
L 830.926373 36.262547 
L 831.560603 36.262547 
L 831.560603 35.137588 
L 832.829064 35.101101 
L 832.829064 33.975012 
L 833.463295 33.975012 
L 833.463295 32.315872 
L 834.097525 32.315872 
L 834.097525 33.329009 
L 834.731756 33.329009 
L 834.731756 32.98102 
L 835.365986 32.98102 
L 835.365986 32.81916 
L 836.000217 32.81916 
L 836.000217 32.104045 
L 836.634448 32.104045 
L 836.634448 32.233459 
L 837.268678 32.233459 
L 837.268678 32.825519 
L 837.902909 32.825519 
L 837.902909 31.892409 
L 838.537139 31.892409 
L 838.537139 30.623573 
L 839.17137 30.623573 
L 839.17137 32.535258 
L 839.8056 32.535258 
L 839.8056 32.395837 
L 840.439831 32.395837 
L 840.439831 33.117896 
L 841.074061 33.117896 
L 841.074061 33.92701 
L 841.708292 33.92701 
L 841.708292 32.933453 
L 842.342522 32.933453 
L 842.342522 32.430187 
L 842.976753 32.430187 
L 842.976753 32.627953 
L 843.610983 32.627953 
L 843.610983 30.551976 
L 844.245214 30.551976 
L 844.245214 29.434248 
L 844.879444 29.434248 
L 844.879444 28.6367 
L 846.782136 28.619656 
L 846.782136 25.134753 
L 847.416366 25.134753 
L 847.416366 22.820903 
L 848.684827 22.842421 
L 848.684827 21.896176 
L 849.319058 21.896176 
L 849.319058 23.776752 
L 849.953289 23.776752 
L 849.953289 22.979687 
L 850.587519 22.979687 
L 850.587519 23.173778 
L 851.22175 23.173778 
L 851.22175 22.110791 
L 851.85598 22.110791 
L 851.85598 22.422491 
L 852.490211 22.422491 
L 852.490211 22.979613 
L 853.124441 22.979613 
L 853.124441 22.589984 
L 853.758672 22.589984 
L 853.758672 24.18938 
L 854.392902 24.18938 
L 854.392902 25.098091 
L 855.027133 25.098091 
L 855.027133 23.889666 
L 855.661363 23.889666 
L 855.661363 24.038491 
L 856.295594 24.038491 
L 856.295594 24.250174 
L 856.929824 24.250174 
L 856.929824 24.56092 
L 857.564055 24.56092 
L 857.564055 24.747429 
L 858.198285 24.747429 
L 858.198285 25.259698 
L 858.832516 25.259698 
L 858.832516 23.481193 
L 860.100977 23.472743 
L 860.100977 22.953658 
L 860.735207 22.953658 
L 860.735207 22.520249 
L 861.369438 22.520249 
L 861.369438 23.093996 
L 862.003669 23.093996 
L 862.003669 22.17004 
L 862.637899 22.17004 
L 862.637899 22.543098 
L 863.27213 22.543098 
L 863.27213 22.862847 
L 863.90636 22.862847 
L 863.90636 23.356795 
L 864.540591 23.356795 
L 864.540591 23.927935 
L 865.174821 23.927935 
L 865.174821 25.440322 
L 866.443282 25.427871 
L 866.443282 24.846023 
L 867.077513 24.846023 
L 867.077513 26.146577 
L 867.711743 26.146577 
L 867.711743 26.333636 
L 868.345974 26.333636 
L 868.345974 25.262303 
L 868.980204 25.262303 
L 868.980204 24.205983 
L 869.614435 24.205983 
L 869.614435 23.059436 
L 870.882896 22.962031 
L 870.882896 23.499751 
L 871.517126 23.499751 
L 871.517126 25.303865 
L 872.151357 25.303865 
L 872.151357 27.332385 
L 872.785587 27.332385 
L 872.785587 25.986082 
L 873.419818 25.986082 
L 873.419818 26.41283 
L 874.054048 26.41283 
L 874.054048 25.719221 
L 874.688279 25.719221 
L 874.688279 24.169165 
L 875.32251 24.169165 
L 875.32251 25.722397 
L 875.95674 25.722397 
L 875.95674 25.897121 
L 876.590971 25.897121 
L 876.590971 26.253295 
L 877.225201 26.253295 
L 877.225201 27.399061 
L 877.859432 27.399061 
L 877.859432 26.192546 
L 879.127893 26.171653 
L 879.127893 24.452842 
L 879.762123 24.452842 
L 879.762123 24.105384 
L 880.396354 24.105384 
L 880.396354 23.591483 
L 881.030584 23.591483 
L 881.030584 25.316612 
L 881.664815 25.316612 
L 881.664815 24.584177 
L 882.299045 24.584177 
L 882.299045 25.443873 
L 882.933276 25.443873 
L 882.933276 23.541063 
L 883.567506 23.541063 
L 883.567506 22.80616 
L 884.201737 22.80616 
L 884.201737 23.129971 
L 885.470198 23.238033 
L 885.470198 21.653245 
L 886.104428 21.653245 
L 886.104428 22.709808 
L 886.738659 22.709808 
L 886.738659 20.552727 
L 887.194182 20.552727 
L 887.194182 20.552727 
" clip-path="url(#p89465a2977)" style="fill: none; stroke: #3572c6; stroke-width: 1.2; stroke-linecap: square"/>
   </g>
   <g id="line2d_76">
    <path d="M 75.557818 20.552727 
L 887.194182 20.552727 
L 887.194182 20.552727 
" clip-path="url(#p89465a2977)" style="fill: none; stroke: #83a83b; stroke-width: 1.2; stroke-linecap: square"/>
   </g>
   <g id="line2d_77">
    <path d="M 75.557818 20.552727 
L 887.194182 20.552727 
L 887.194182 20.552727 
" clip-path="url(#p89465a2977)" style="fill: none; stroke: #c44e52; stroke-width: 1.2; stroke-linecap: square"/>
   </g>
   <g id="line2d_78">
    <path d="M 887.194182 300.96 
L 887.194182 7.2 
" clip-path="url(#p89465a2977)" style="fill: none; stroke: #83a83b; stroke-width: 1.2; stroke-linecap: square"/>
   </g>
   <g id="line2d_79">
    <path d="M 887.194182 300.96 
L 887.194182 7.2 
" clip-path="url(#p89465a2977)" style="fill: none; stroke: #c44e52; stroke-width: 1.2; stroke-linecap: square"/>
   </g>
   <g id="patch_3">
    <path d="M 34.976 300.96 
L 34.976 7.2 
" style="fill: none; stroke: #899ab8; stroke-width: 1.12; stroke-linejoin: miter; stroke-linecap: square"/>
   </g>
   <g id="patch_4">
    <path d="M 927.776 300.96 
L 927.776 7.2 
" style="fill: none; stroke: #899ab8; stroke-width: 1.12; stroke-linejoin: miter; stroke-linecap: square"/>
   </g>
   <g id="patch_5">
    <path d="M 34.976 300.96 
L 927.776 300.96 
" style="fill: none; stroke: #899ab8; stroke-width: 1.12; stroke-linejoin: miter; stroke-linecap: square"/>
   </g>
   <g id="patch_6">
    <path d="M 34.976 7.2 
L 927.776 7.2 
" style="fill: none; stroke: #899ab8; stroke-width: 1.12; stroke-linejoin: miter; stroke-linecap: square"/>
   </g>
   <g id="text_15">
    <!-- 76263.701 -->
    <g style="fill: #83a83b" transform="translate(191.304889 20.552727) scale(0.132 -0.132)">
     <defs>
      <path id="DejaVuSans-37" d="M 525 4666 
L 3525 4666 
L 3525 4397 
L 1831 0 
L 1172 0 
L 2766 4134 
L 525 4134 
L 525 4666 
z
" transform="scale(0.015625)"/>
      <path id="DejaVuSans-2e" d="M 684 794 
L 1344 794 
L 1344 0 
L 684 0 
L 684 794 
z
" transform="scale(0.015625)"/>
     </defs>
     <use xlink:href="#DejaVuSans-37"/>
     <use xlink:href="#DejaVuSans-36" x="63.623047"/>
     <use xlink:href="#DejaVuSans-32" x="127.246094"/>
     <use xlink:href="#DejaVuSans-36" x="190.869141"/>
     <use xlink:href="#DejaVuSans-33" x="254.492188"/>
     <use xlink:href="#DejaVuSans-2e" x="318.115234"/>
     <use xlink:href="#DejaVuSans-37" x="349.902344"/>
     <use xlink:href="#DejaVuSans-30" x="413.525391"/>
     <use xlink:href="#DejaVuSans-31" x="477.148438"/>
    </g>
   </g>
   <g id="text_16">
    <!-- 76263.701 -->
    <g style="fill: #c44e52" transform="translate(191.304889 20.552727) scale(0.132 -0.132)">
     <use xlink:href="#DejaVuSans-37"/>
     <use xlink:href="#DejaVuSans-36" x="63.623047"/>
     <use xlink:href="#DejaVuSans-32" x="127.246094"/>
     <use xlink:href="#DejaVuSans-36" x="190.869141"/>
     <use xlink:href="#DejaVuSans-33" x="254.492188"/>
     <use xlink:href="#DejaVuSans-2e" x="318.115234"/>
     <use xlink:href="#DejaVuSans-37" x="349.902344"/>
     <use xlink:href="#DejaVuSans-30" x="413.525391"/>
     <use xlink:href="#DejaVuSans-31" x="477.148438"/>
    </g>
   </g>
   <g id="legend_1">
    <g id="patch_7">
     <path d="M 432.207453 294.66 
L 530.544547 294.66 
Q 533.064547 294.66 533.064547 292.14 
L 533.064547 237.56625 
Q 533.064547 235.04625 530.544547 235.04625 
L 432.207453 235.04625 
Q 429.687453 235.04625 429.687453 237.56625 
L 429.687453 292.14 
Q 429.687453 294.66 432.207453 294.66 
z
" style="fill: #373e4b; opacity: 0.8; stroke: #cccccc; stroke-width: 0.16; stroke-linejoin: miter"/>
    </g>
    <g id="line2d_80">
     <path d="M 434.727453 245.250281 
L 434.727453 245.250281 
L 447.327453 245.250281 
L 447.327453 245.250281 
L 459.927453 245.250281 
" style="fill: none; stroke: #3572c6; stroke-width: 1.2; stroke-linecap: square"/>
    </g>
    <g id="text_17">
     <!-- USD/BTC -->
     <g style="fill: #b1bed6" transform="translate(470.007453 249.660281) scale(0.126 -0.126)">
      <defs>
       <path id="DejaVuSans-55" d="M 556 4666 
L 1191 4666 
L 1191 1831 
Q 1191 1081 1462 751 
Q 1734 422 2344 422 
Q 2950 422 3222 751 
Q 3494 1081 3494 1831 
L 3494 4666 
L 4128 4666 
L 4128 1753 
Q 4128 841 3676 375 
Q 3225 -91 2344 -91 
Q 1459 -91 1007 375 
Q 556 841 556 1753 
L 556 4666 
z
" transform="scale(0.015625)"/>
       <path id="DejaVuSans-53" d="M 3425 4513 
L 3425 3897 
Q 3066 4069 2747 4153 
Q 2428 4238 2131 4238 
Q 1616 4238 1336 4038 
Q 1056 3838 1056 3469 
Q 1056 3159 1242 3001 
Q 1428 2844 1947 2747 
L 2328 2669 
Q 3034 2534 3370 2195 
Q 3706 1856 3706 1288 
Q 3706 609 3251 259 
Q 2797 -91 1919 -91 
Q 1588 -91 1214 -16 
Q 841 59 441 206 
L 441 856 
Q 825 641 1194 531 
Q 1563 422 1919 422 
Q 2459 422 2753 634 
Q 3047 847 3047 1241 
Q 3047 1584 2836 1778 
Q 2625 1972 2144 2069 
L 1759 2144 
Q 1053 2284 737 2584 
Q 422 2884 422 3419 
Q 422 4038 858 4394 
Q 1294 4750 2059 4750 
Q 2388 4750 2728 4690 
Q 3069 4631 3425 4513 
z
" transform="scale(0.015625)"/>
       <path id="DejaVuSans-2f" d="M 1625 4666 
L 2156 4666 
L 531 -594 
L 0 -594 
L 1625 4666 
z
" transform="scale(0.015625)"/>
       <path id="DejaVuSans-42" d="M 1259 2228 
L 1259 519 
L 2272 519 
Q 2781 519 3026 730 
Q 3272 941 3272 1375 
Q 3272 1813 3026 2020 
Q 2781 2228 2272 2228 
L 1259 2228 
z
M 1259 4147 
L 1259 2741 
L 2194 2741 
Q 2656 2741 2882 2914 
Q 3109 3088 3109 3444 
Q 3109 3797 2882 3972 
Q 2656 4147 2194 4147 
L 1259 4147 
z
M 628 4666 
L 2241 4666 
Q 2963 4666 3353 4366 
Q 3744 4066 3744 3513 
Q 3744 3084 3544 2831 
Q 3344 2578 2956 2516 
Q 3422 2416 3680 2098 
Q 3938 1781 3938 1306 
Q 3938 681 3513 340 
Q 3088 0 2303 0 
L 628 0 
L 628 4666 
z
" transform="scale(0.015625)"/>
       <path id="DejaVuSans-54" d="M -19 4666 
L 3928 4666 
L 3928 4134 
L 2272 4134 
L 2272 0 
L 1638 0 
L 1638 4134 
L -19 4134 
L -19 4666 
z
" transform="scale(0.015625)"/>
       <path id="DejaVuSans-43" d="M 4122 4306 
L 4122 3641 
Q 3803 3938 3442 4084 
Q 3081 4231 2675 4231 
Q 1875 4231 1450 3742 
Q 1025 3253 1025 2328 
Q 1025 1406 1450 917 
Q 1875 428 2675 428 
Q 3081 428 3442 575 
Q 3803 722 4122 1019 
L 4122 359 
Q 3791 134 3420 21 
Q 3050 -91 2638 -91 
Q 1578 -91 968 557 
Q 359 1206 359 2328 
Q 359 3453 968 4101 
Q 1578 4750 2638 4750 
Q 3056 4750 3426 4639 
Q 3797 4528 4122 4306 
z
" transform="scale(0.015625)"/>
      </defs>
      <use xlink:href="#DejaVuSans-55"/>
      <use xlink:href="#DejaVuSans-53" x="73.193359"/>
      <use xlink:href="#DejaVuSans-44" x="136.669922"/>
      <use xlink:href="#DejaVuSans-2f" x="213.671875"/>
      <use xlink:href="#DejaVuSans-42" x="247.363281"/>
      <use xlink:href="#DejaVuSans-54" x="315.966797"/>
      <use xlink:href="#DejaVuSans-43" x="371.175781"/>
     </g>
    </g>
    <g id="line2d_81">
     <path d="M 434.727453 263.744719 
L 434.727453 263.744719 
L 447.327453 263.744719 
L 447.327453 263.744719 
L 459.927453 263.744719 
" style="fill: none; stroke: #83a83b; stroke-width: 1.2; stroke-linecap: square"/>
    </g>
    <g id="text_18">
     <!-- Max -->
     <g style="fill: #b1bed6" transform="translate(470.007453 268.154719) scale(0.126 -0.126)">
      <defs>
       <path id="DejaVuSans-4d" d="M 628 4666 
L 1569 4666 
L 2759 1491 
L 3956 4666 
L 4897 4666 
L 4897 0 
L 4281 0 
L 4281 4097 
L 3078 897 
L 2444 897 
L 1241 4097 
L 1241 0 
L 628 0 
L 628 4666 
z
" transform="scale(0.015625)"/>
       <path id="DejaVuSans-78" d="M 3513 3500 
L 2247 1797 
L 3578 0 
L 2900 0 
L 1881 1375 
L 863 0 
L 184 0 
L 1544 1831 
L 300 3500 
L 978 3500 
L 1906 2253 
L 2834 3500 
L 3513 3500 
z
" transform="scale(0.015625)"/>
      </defs>
      <use xlink:href="#DejaVuSans-4d"/>
      <use xlink:href="#DejaVuSans-61" x="86.279297"/>
      <use xlink:href="#DejaVuSans-78" x="147.558594"/>
     </g>
    </g>
    <g id="line2d_82">
     <path d="M 434.727453 282.239156 
L 434.727453 282.239156 
L 447.327453 282.239156 
L 447.327453 282.239156 
L 459.927453 282.239156 
" style="fill: none; stroke: #c44e52; stroke-width: 1.2; stroke-linecap: square"/>
    </g>
    <g id="text_19">
     <!-- local_Min -->
     <g style="fill: #b1bed6" transform="translate(470.007453 286.649156) scale(0.126 -0.126)">
      <defs>
       <path id="DejaVuSans-6c" d="M 603 4863 
L 1178 4863 
L 1178 0 
L 603 0 
L 603 4863 
z
" transform="scale(0.015625)"/>
       <path id="DejaVuSans-6f" d="M 1959 3097 
Q 1497 3097 1228 2736 
Q 959 2375 959 1747 
Q 959 1119 1226 758 
Q 1494 397 1959 397 
Q 2419 397 2687 759 
Q 2956 1122 2956 1747 
Q 2956 2369 2687 2733 
Q 2419 3097 1959 3097 
z
M 1959 3584 
Q 2709 3584 3137 3096 
Q 3566 2609 3566 1747 
Q 3566 888 3137 398 
Q 2709 -91 1959 -91 
Q 1206 -91 779 398 
Q 353 888 353 1747 
Q 353 2609 779 3096 
Q 1206 3584 1959 3584 
z
" transform="scale(0.015625)"/>
       <path id="DejaVuSans-63" d="M 3122 3366 
L 3122 2828 
Q 2878 2963 2633 3030 
Q 2388 3097 2138 3097 
Q 1578 3097 1268 2742 
Q 959 2388 959 1747 
Q 959 1106 1268 751 
Q 1578 397 2138 397 
Q 2388 397 2633 464 
Q 2878 531 3122 666 
L 3122 134 
Q 2881 22 2623 -34 
Q 2366 -91 2075 -91 
Q 1284 -91 818 406 
Q 353 903 353 1747 
Q 353 2603 823 3093 
Q 1294 3584 2113 3584 
Q 2378 3584 2631 3529 
Q 2884 3475 3122 3366 
z
" transform="scale(0.015625)"/>
       <path id="DejaVuSans-5f" d="M 3263 -1063 
L 3263 -1509 
L -63 -1509 
L -63 -1063 
L 3263 -1063 
z
" transform="scale(0.015625)"/>
       <path id="DejaVuSans-69" d="M 603 3500 
L 1178 3500 
L 1178 0 
L 603 0 
L 603 3500 
z
M 603 4863 
L 1178 4863 
L 1178 4134 
L 603 4134 
L 603 4863 
z
" transform="scale(0.015625)"/>
       <path id="DejaVuSans-6e" d="M 3513 2113 
L 3513 0 
L 2938 0 
L 2938 2094 
Q 2938 2591 2744 2837 
Q 2550 3084 2163 3084 
Q 1697 3084 1428 2787 
Q 1159 2491 1159 1978 
L 1159 0 
L 581 0 
L 581 3500 
L 1159 3500 
L 1159 2956 
Q 1366 3272 1645 3428 
Q 1925 3584 2291 3584 
Q 2894 3584 3203 3211 
Q 3513 2838 3513 2113 
z
" transform="scale(0.015625)"/>
      </defs>
      <use xlink:href="#DejaVuSans-6c"/>
      <use xlink:href="#DejaVuSans-6f" x="27.783203"/>
      <use xlink:href="#DejaVuSans-63" x="88.964844"/>
      <use xlink:href="#DejaVuSans-61" x="143.945312"/>
      <use xlink:href="#DejaVuSans-6c" x="205.224609"/>
      <use xlink:href="#DejaVuSans-5f" x="233.007812"/>
      <use xlink:href="#DejaVuSans-4d" x="283.007812"/>
      <use xlink:href="#DejaVuSans-69" x="369.287109"/>
      <use xlink:href="#DejaVuSans-6e" x="397.070312"/>
     </g>
    </g>
   </g>
  </g>
 </g>
 <defs>
  <clipPath id="p89465a2977">
   <rect x="34.976" y="7.2" width="892.8" height="293.76"/>
  </clipPath>
 </defs>
</svg>
