<?xml version="1.0" encoding="utf-8" standalone="no"?>
<!DOCTYPE svg PUBLIC "-//W3C//DTD SVG 1.1//EN"
  "http://www.w3.org/Graphics/SVG/1.1/DTD/svg11.dtd">
<svg xmlns:xlink="http://www.w3.org/1999/xlink" width="934.976pt" height="358.290693pt" viewBox="0 0 934.976 358.290693" xmlns="http://www.w3.org/2000/svg" version="1.1">
 <metadata>
  <rdf:RDF xmlns:dc="http://purl.org/dc/elements/1.1/" xmlns:cc="http://creativecommons.org/ns#" xmlns:rdf="http://www.w3.org/1999/02/22-rdf-syntax-ns#">
   <cc:Work>
    <dc:type rdf:resource="http://purl.org/dc/dcmitype/StillImage"/>
    <dc:date>2024-07-24T04:49:04.768130</dc:date>
    <dc:format>image/svg+xml</dc:format>
    <dc:creator>
     <cc:Agent>
      <dc:title>Matplotlib v3.9.1, https://matplotlib.org/</dc:title>
     </cc:Agent>
    </dc:creator>
   </cc:Work>
  </rdf:RDF>
 </metadata>
 <defs>
  <style type="text/css">*{stroke-linejoin: round; stroke-linecap: butt}</style>
 </defs>
 <g id="figure_1">
  <g id="patch_1">
   <path d="M 0 358.290693 
L 934.976 358.290693 
L 934.976 0 
L 0 0 
z
" style="fill: #373e4b"/>
  </g>
  <g id="axes_1">
   <g id="patch_2">
    <path d="M 34.976 300.96 
L 927.776 300.96 
L 927.776 7.2 
L 34.976 7.2 
z
" style="fill: #373e4b"/>
   </g>
   <g id="matplotlib.axis_1">
    <g id="xtick_1">
     <g id="line2d_1">
      <path d="M 144.365247 300.96 
L 144.365247 7.2 
" clip-path="url(#p1422248d7c)" style="fill: none; stroke: #546379; stroke-width: 1.12; stroke-linecap: square"/>
     </g>
     <g id="line2d_2"/>
     <g id="text_1">
      <!-- 2012 -->
      <g style="fill: #b1bed6" transform="translate(115.284208 330.884854) rotate(-30) scale(0.126 -0.126)">
       <defs>
        <path id="DejaVuSans-32" d="M 1228 531 
L 3431 531 
L 3431 0 
L 469 0 
L 469 531 
Q 828 903 1448 1529 
Q 2069 2156 2228 2338 
Q 2531 2678 2651 2914 
Q 2772 3150 2772 3378 
Q 2772 3750 2511 3984 
Q 2250 4219 1831 4219 
Q 1534 4219 1204 4116 
Q 875 4013 500 3803 
L 500 4441 
Q 881 4594 1212 4672 
Q 1544 4750 1819 4750 
Q 2544 4750 2975 4387 
Q 3406 4025 3406 3419 
Q 3406 3131 3298 2873 
Q 3191 2616 2906 2266 
Q 2828 2175 2409 1742 
Q 1991 1309 1228 531 
z
" transform="scale(0.015625)"/>
        <path id="DejaVuSans-30" d="M 2034 4250 
Q 1547 4250 1301 3770 
Q 1056 3291 1056 2328 
Q 1056 1369 1301 889 
Q 1547 409 2034 409 
Q 2525 409 2770 889 
Q 3016 1369 3016 2328 
Q 3016 3291 2770 3770 
Q 2525 4250 2034 4250 
z
M 2034 4750 
Q 2819 4750 3233 4129 
Q 3647 3509 3647 2328 
Q 3647 1150 3233 529 
Q 2819 -91 2034 -91 
Q 1250 -91 836 529 
Q 422 1150 422 2328 
Q 422 3509 836 4129 
Q 1250 4750 2034 4750 
z
" transform="scale(0.015625)"/>
        <path id="DejaVuSans-31" d="M 794 531 
L 1825 531 
L 1825 4091 
L 703 3866 
L 703 4441 
L 1819 4666 
L 2450 4666 
L 2450 531 
L 3481 531 
L 3481 0 
L 794 0 
L 794 531 
z
" transform="scale(0.015625)"/>
       </defs>
       <use xlink:href="#DejaVuSans-32"/>
       <use xlink:href="#DejaVuSans-30" x="63.623047"/>
       <use xlink:href="#DejaVuSans-31" x="127.246094"/>
       <use xlink:href="#DejaVuSans-32" x="190.869141"/>
      </g>
     </g>
    </g>
    <g id="xtick_2">
     <g id="line2d_3">
      <path d="M 262.714026 300.96 
L 262.714026 7.2 
" clip-path="url(#p1422248d7c)" style="fill: none; stroke: #546379; stroke-width: 1.12; stroke-linecap: square"/>
     </g>
     <g id="line2d_4"/>
     <g id="text_2">
      <!-- 2014 -->
      <g style="fill: #b1bed6" transform="translate(233.632986 330.884854) rotate(-30) scale(0.126 -0.126)">
       <defs>
        <path id="DejaVuSans-34" d="M 2419 4116 
L 825 1625 
L 2419 1625 
L 2419 4116 
z
M 2253 4666 
L 3047 4666 
L 3047 1625 
L 3713 1625 
L 3713 1100 
L 3047 1100 
L 3047 0 
L 2419 0 
L 2419 1100 
L 313 1100 
L 313 1709 
L 2253 4666 
z
" transform="scale(0.015625)"/>
       </defs>
       <use xlink:href="#DejaVuSans-32"/>
       <use xlink:href="#DejaVuSans-30" x="63.623047"/>
       <use xlink:href="#DejaVuSans-31" x="127.246094"/>
       <use xlink:href="#DejaVuSans-34" x="190.869141"/>
      </g>
     </g>
    </g>
    <g id="xtick_3">
     <g id="line2d_5">
      <path d="M 380.900904 300.96 
L 380.900904 7.2 
" clip-path="url(#p1422248d7c)" style="fill: none; stroke: #546379; stroke-width: 1.12; stroke-linecap: square"/>
     </g>
     <g id="line2d_6"/>
     <g id="text_3">
      <!-- 2016 -->
      <g style="fill: #b1bed6" transform="translate(351.819865 330.884854) rotate(-30) scale(0.126 -0.126)">
       <defs>
        <path id="DejaVuSans-36" d="M 2113 2584 
Q 1688 2584 1439 2293 
Q 1191 2003 1191 1497 
Q 1191 994 1439 701 
Q 1688 409 2113 409 
Q 2538 409 2786 701 
Q 3034 994 3034 1497 
Q 3034 2003 2786 2293 
Q 2538 2584 2113 2584 
z
M 3366 4563 
L 3366 3988 
Q 3128 4100 2886 4159 
Q 2644 4219 2406 4219 
Q 1781 4219 1451 3797 
Q 1122 3375 1075 2522 
Q 1259 2794 1537 2939 
Q 1816 3084 2150 3084 
Q 2853 3084 3261 2657 
Q 3669 2231 3669 1497 
Q 3669 778 3244 343 
Q 2819 -91 2113 -91 
Q 1303 -91 875 529 
Q 447 1150 447 2328 
Q 447 3434 972 4092 
Q 1497 4750 2381 4750 
Q 2619 4750 2861 4703 
Q 3103 4656 3366 4563 
z
" transform="scale(0.015625)"/>
       </defs>
       <use xlink:href="#DejaVuSans-32"/>
       <use xlink:href="#DejaVuSans-30" x="63.623047"/>
       <use xlink:href="#DejaVuSans-31" x="127.246094"/>
       <use xlink:href="#DejaVuSans-36" x="190.869141"/>
      </g>
     </g>
    </g>
    <g id="xtick_4">
     <g id="line2d_7">
      <path d="M 499.249683 300.96 
L 499.249683 7.2 
" clip-path="url(#p1422248d7c)" style="fill: none; stroke: #546379; stroke-width: 1.12; stroke-linecap: square"/>
     </g>
     <g id="line2d_8"/>
     <g id="text_4">
      <!-- 2018 -->
      <g style="fill: #b1bed6" transform="translate(470.168643 330.884854) rotate(-30) scale(0.126 -0.126)">
       <defs>
        <path id="DejaVuSans-38" d="M 2034 2216 
Q 1584 2216 1326 1975 
Q 1069 1734 1069 1313 
Q 1069 891 1326 650 
Q 1584 409 2034 409 
Q 2484 409 2743 651 
Q 3003 894 3003 1313 
Q 3003 1734 2745 1975 
Q 2488 2216 2034 2216 
z
M 1403 2484 
Q 997 2584 770 2862 
Q 544 3141 544 3541 
Q 544 4100 942 4425 
Q 1341 4750 2034 4750 
Q 2731 4750 3128 4425 
Q 3525 4100 3525 3541 
Q 3525 3141 3298 2862 
Q 3072 2584 2669 2484 
Q 3125 2378 3379 2068 
Q 3634 1759 3634 1313 
Q 3634 634 3220 271 
Q 2806 -91 2034 -91 
Q 1263 -91 848 271 
Q 434 634 434 1313 
Q 434 1759 690 2068 
Q 947 2378 1403 2484 
z
M 1172 3481 
Q 1172 3119 1398 2916 
Q 1625 2713 2034 2713 
Q 2441 2713 2670 2916 
Q 2900 3119 2900 3481 
Q 2900 3844 2670 4047 
Q 2441 4250 2034 4250 
Q 1625 4250 1398 4047 
Q 1172 3844 1172 3481 
z
" transform="scale(0.015625)"/>
       </defs>
       <use xlink:href="#DejaVuSans-32"/>
       <use xlink:href="#DejaVuSans-30" x="63.623047"/>
       <use xlink:href="#DejaVuSans-31" x="127.246094"/>
       <use xlink:href="#DejaVuSans-38" x="190.869141"/>
      </g>
     </g>
    </g>
    <g id="xtick_5">
     <g id="line2d_9">
      <path d="M 617.436561 300.96 
L 617.436561 7.2 
" clip-path="url(#p1422248d7c)" style="fill: none; stroke: #546379; stroke-width: 1.12; stroke-linecap: square"/>
     </g>
     <g id="line2d_10"/>
     <g id="text_5">
      <!-- 2020 -->
      <g style="fill: #b1bed6" transform="translate(588.355521 330.884854) rotate(-30) scale(0.126 -0.126)">
       <use xlink:href="#DejaVuSans-32"/>
       <use xlink:href="#DejaVuSans-30" x="63.623047"/>
       <use xlink:href="#DejaVuSans-32" x="127.246094"/>
       <use xlink:href="#DejaVuSans-30" x="190.869141"/>
      </g>
     </g>
    </g>
    <g id="xtick_6">
     <g id="line2d_11">
      <path d="M 735.785339 300.96 
L 735.785339 7.2 
" clip-path="url(#p1422248d7c)" style="fill: none; stroke: #546379; stroke-width: 1.12; stroke-linecap: square"/>
     </g>
     <g id="line2d_12"/>
     <g id="text_6">
      <!-- 2022 -->
      <g style="fill: #b1bed6" transform="translate(706.7043 330.884854) rotate(-30) scale(0.126 -0.126)">
       <use xlink:href="#DejaVuSans-32"/>
       <use xlink:href="#DejaVuSans-30" x="63.623047"/>
       <use xlink:href="#DejaVuSans-32" x="127.246094"/>
       <use xlink:href="#DejaVuSans-32" x="190.869141"/>
      </g>
     </g>
    </g>
    <g id="xtick_7">
     <g id="line2d_13">
      <path d="M 853.972218 300.96 
L 853.972218 7.2 
" clip-path="url(#p1422248d7c)" style="fill: none; stroke: #546379; stroke-width: 1.12; stroke-linecap: square"/>
     </g>
     <g id="line2d_14"/>
     <g id="text_7">
      <!-- 2024 -->
      <g style="fill: #b1bed6" transform="translate(824.891178 330.884854) rotate(-30) scale(0.126 -0.126)">
       <use xlink:href="#DejaVuSans-32"/>
       <use xlink:href="#DejaVuSans-30" x="63.623047"/>
       <use xlink:href="#DejaVuSans-32" x="127.246094"/>
       <use xlink:href="#DejaVuSans-34" x="190.869141"/>
      </g>
     </g>
    </g>
    <g id="text_8">
     <!-- Date -->
     <g style="fill: #b1bed6" transform="translate(464.166875 348.095943) scale(0.144 -0.144)">
      <defs>
       <path id="DejaVuSans-44" d="M 1259 4147 
L 1259 519 
L 2022 519 
Q 2988 519 3436 956 
Q 3884 1394 3884 2338 
Q 3884 3275 3436 3711 
Q 2988 4147 2022 4147 
L 1259 4147 
z
M 628 4666 
L 1925 4666 
Q 3281 4666 3915 4102 
Q 4550 3538 4550 2338 
Q 4550 1131 3912 565 
Q 3275 0 1925 0 
L 628 0 
L 628 4666 
z
" transform="scale(0.015625)"/>
       <path id="DejaVuSans-61" d="M 2194 1759 
Q 1497 1759 1228 1600 
Q 959 1441 959 1056 
Q 959 750 1161 570 
Q 1363 391 1709 391 
Q 2188 391 2477 730 
Q 2766 1069 2766 1631 
L 2766 1759 
L 2194 1759 
z
M 3341 1997 
L 3341 0 
L 2766 0 
L 2766 531 
Q 2569 213 2275 61 
Q 1981 -91 1556 -91 
Q 1019 -91 701 211 
Q 384 513 384 1019 
Q 384 1609 779 1909 
Q 1175 2209 1959 2209 
L 2766 2209 
L 2766 2266 
Q 2766 2663 2505 2880 
Q 2244 3097 1772 3097 
Q 1472 3097 1187 3025 
Q 903 2953 641 2809 
L 641 3341 
Q 956 3463 1253 3523 
Q 1550 3584 1831 3584 
Q 2591 3584 2966 3190 
Q 3341 2797 3341 1997 
z
" transform="scale(0.015625)"/>
       <path id="DejaVuSans-74" d="M 1172 4494 
L 1172 3500 
L 2356 3500 
L 2356 3053 
L 1172 3053 
L 1172 1153 
Q 1172 725 1289 603 
Q 1406 481 1766 481 
L 2356 481 
L 2356 0 
L 1766 0 
Q 1100 0 847 248 
Q 594 497 594 1153 
L 594 3053 
L 172 3053 
L 172 3500 
L 594 3500 
L 594 4494 
L 1172 4494 
z
" transform="scale(0.015625)"/>
       <path id="DejaVuSans-65" d="M 3597 1894 
L 3597 1613 
L 953 1613 
Q 991 1019 1311 708 
Q 1631 397 2203 397 
Q 2534 397 2845 478 
Q 3156 559 3463 722 
L 3463 178 
Q 3153 47 2828 -22 
Q 2503 -91 2169 -91 
Q 1331 -91 842 396 
Q 353 884 353 1716 
Q 353 2575 817 3079 
Q 1281 3584 2069 3584 
Q 2775 3584 3186 3129 
Q 3597 2675 3597 1894 
z
M 3022 2063 
Q 3016 2534 2758 2815 
Q 2500 3097 2075 3097 
Q 1594 3097 1305 2825 
Q 1016 2553 972 2059 
L 3022 2063 
z
" transform="scale(0.015625)"/>
      </defs>
      <use xlink:href="#DejaVuSans-44"/>
      <use xlink:href="#DejaVuSans-61" x="77.001953"/>
      <use xlink:href="#DejaVuSans-74" x="138.28125"/>
      <use xlink:href="#DejaVuSans-65" x="177.490234"/>
     </g>
    </g>
   </g>
   <g id="matplotlib.axis_2">
    <g id="ytick_1">
     <g id="line2d_15">
      <path d="M 34.976 253.993723 
L 927.776 253.993723 
" clip-path="url(#p1422248d7c)" style="fill: none; stroke: #546379; stroke-width: 1.12; stroke-linecap: square"/>
     </g>
     <g id="line2d_16"/>
     <g id="text_9">
      <!-- $\mathdefault{10^{0}}$ -->
      <g style="fill: #b1bed6" transform="translate(7.2 258.780739) scale(0.126 -0.126)">
       <use xlink:href="#DejaVuSans-31" transform="translate(0 0.765625)"/>
       <use xlink:href="#DejaVuSans-30" transform="translate(63.623047 0.765625)"/>
       <use xlink:href="#DejaVuSans-30" transform="translate(128.203125 39.046875) scale(0.7)"/>
      </g>
     </g>
    </g>
    <g id="ytick_2">
     <g id="line2d_17">
      <path d="M 34.976 205.903607 
L 927.776 205.903607 
" clip-path="url(#p1422248d7c)" style="fill: none; stroke: #546379; stroke-width: 1.12; stroke-linecap: square"/>
     </g>
     <g id="line2d_18"/>
     <g id="text_10">
      <!-- $\mathdefault{10^{1}}$ -->
      <g style="fill: #b1bed6" transform="translate(7.2 210.690622) scale(0.126 -0.126)">
       <use xlink:href="#DejaVuSans-31" transform="translate(0 0.684375)"/>
       <use xlink:href="#DejaVuSans-30" transform="translate(63.623047 0.684375)"/>
       <use xlink:href="#DejaVuSans-31" transform="translate(128.203125 38.965625) scale(0.7)"/>
      </g>
     </g>
    </g>
    <g id="ytick_3">
     <g id="line2d_19">
      <path d="M 34.976 157.81349 
L 927.776 157.81349 
" clip-path="url(#p1422248d7c)" style="fill: none; stroke: #546379; stroke-width: 1.12; stroke-linecap: square"/>
     </g>
     <g id="line2d_20"/>
     <g id="text_11">
      <!-- $\mathdefault{10^{2}}$ -->
      <g style="fill: #b1bed6" transform="translate(7.2 162.600505) scale(0.126 -0.126)">
       <use xlink:href="#DejaVuSans-31" transform="translate(0 0.765625)"/>
       <use xlink:href="#DejaVuSans-30" transform="translate(63.623047 0.765625)"/>
       <use xlink:href="#DejaVuSans-32" transform="translate(128.203125 39.046875) scale(0.7)"/>
      </g>
     </g>
    </g>
    <g id="ytick_4">
     <g id="line2d_21">
      <path d="M 34.976 109.723373 
L 927.776 109.723373 
" clip-path="url(#p1422248d7c)" style="fill: none; stroke: #546379; stroke-width: 1.12; stroke-linecap: square"/>
     </g>
     <g id="line2d_22"/>
     <g id="text_12">
      <!-- $\mathdefault{10^{3}}$ -->
      <g style="fill: #b1bed6" transform="translate(7.2 114.510388) scale(0.126 -0.126)">
       <defs>
        <path id="DejaVuSans-33" d="M 2597 2516 
Q 3050 2419 3304 2112 
Q 3559 1806 3559 1356 
Q 3559 666 3084 287 
Q 2609 -91 1734 -91 
Q 1441 -91 1130 -33 
Q 819 25 488 141 
L 488 750 
Q 750 597 1062 519 
Q 1375 441 1716 441 
Q 2309 441 2620 675 
Q 2931 909 2931 1356 
Q 2931 1769 2642 2001 
Q 2353 2234 1838 2234 
L 1294 2234 
L 1294 2753 
L 1863 2753 
Q 2328 2753 2575 2939 
Q 2822 3125 2822 3475 
Q 2822 3834 2567 4026 
Q 2313 4219 1838 4219 
Q 1578 4219 1281 4162 
Q 984 4106 628 3988 
L 628 4550 
Q 988 4650 1302 4700 
Q 1616 4750 1894 4750 
Q 2613 4750 3031 4423 
Q 3450 4097 3450 3541 
Q 3450 3153 3228 2886 
Q 3006 2619 2597 2516 
z
" transform="scale(0.015625)"/>
       </defs>
       <use xlink:href="#DejaVuSans-31" transform="translate(0 0.765625)"/>
       <use xlink:href="#DejaVuSans-30" transform="translate(63.623047 0.765625)"/>
       <use xlink:href="#DejaVuSans-33" transform="translate(128.203125 39.046875) scale(0.7)"/>
      </g>
     </g>
    </g>
    <g id="ytick_5">
     <g id="line2d_23">
      <path d="M 34.976 61.633256 
L 927.776 61.633256 
" clip-path="url(#p1422248d7c)" style="fill: none; stroke: #546379; stroke-width: 1.12; stroke-linecap: square"/>
     </g>
     <g id="line2d_24"/>
     <g id="text_13">
      <!-- $\mathdefault{10^{4}}$ -->
      <g style="fill: #b1bed6" transform="translate(7.2 66.420271) scale(0.126 -0.126)">
       <use xlink:href="#DejaVuSans-31" transform="translate(0 0.684375)"/>
       <use xlink:href="#DejaVuSans-30" transform="translate(63.623047 0.684375)"/>
       <use xlink:href="#DejaVuSans-34" transform="translate(128.203125 38.965625) scale(0.7)"/>
      </g>
     </g>
    </g>
    <g id="ytick_6">
     <g id="line2d_25">
      <path d="M 34.976 13.543139 
L 927.776 13.543139 
" clip-path="url(#p1422248d7c)" style="fill: none; stroke: #546379; stroke-width: 1.12; stroke-linecap: square"/>
     </g>
     <g id="line2d_26"/>
     <g id="text_14">
      <!-- $\mathdefault{10^{5}}$ -->
      <g style="fill: #b1bed6" transform="translate(7.2 18.330154) scale(0.126 -0.126)">
       <defs>
        <path id="DejaVuSans-35" d="M 691 4666 
L 3169 4666 
L 3169 4134 
L 1269 4134 
L 1269 2991 
Q 1406 3038 1543 3061 
Q 1681 3084 1819 3084 
Q 2600 3084 3056 2656 
Q 3513 2228 3513 1497 
Q 3513 744 3044 326 
Q 2575 -91 1722 -91 
Q 1428 -91 1123 -41 
Q 819 9 494 109 
L 494 744 
Q 775 591 1075 516 
Q 1375 441 1709 441 
Q 2250 441 2565 725 
Q 2881 1009 2881 1497 
Q 2881 1984 2565 2268 
Q 2250 2553 1709 2553 
Q 1456 2553 1204 2497 
Q 953 2441 691 2322 
L 691 4666 
z
" transform="scale(0.015625)"/>
       </defs>
       <use xlink:href="#DejaVuSans-31" transform="translate(0 0.684375)"/>
       <use xlink:href="#DejaVuSans-30" transform="translate(63.623047 0.684375)"/>
       <use xlink:href="#DejaVuSans-35" transform="translate(128.203125 38.965625) scale(0.7)"/>
      </g>
     </g>
    </g>
    <g id="ytick_7">
     <g id="line2d_27"/>
    </g>
    <g id="ytick_8">
     <g id="line2d_28"/>
    </g>
    <g id="ytick_9">
     <g id="line2d_29"/>
    </g>
    <g id="ytick_10">
     <g id="line2d_30"/>
    </g>
    <g id="ytick_11">
     <g id="line2d_31"/>
    </g>
    <g id="ytick_12">
     <g id="line2d_32"/>
    </g>
    <g id="ytick_13">
     <g id="line2d_33"/>
    </g>
    <g id="ytick_14">
     <g id="line2d_34"/>
    </g>
    <g id="ytick_15">
     <g id="line2d_35"/>
    </g>
    <g id="ytick_16">
     <g id="line2d_36"/>
    </g>
    <g id="ytick_17">
     <g id="line2d_37"/>
    </g>
    <g id="ytick_18">
     <g id="line2d_38"/>
    </g>
    <g id="ytick_19">
     <g id="line2d_39"/>
    </g>
    <g id="ytick_20">
     <g id="line2d_40"/>
    </g>
    <g id="ytick_21">
     <g id="line2d_41"/>
    </g>
    <g id="ytick_22">
     <g id="line2d_42"/>
    </g>
    <g id="ytick_23">
     <g id="line2d_43"/>
    </g>
    <g id="ytick_24">
     <g id="line2d_44"/>
    </g>
    <g id="ytick_25">
     <g id="line2d_45"/>
    </g>
    <g id="ytick_26">
     <g id="line2d_46"/>
    </g>
    <g id="ytick_27">
     <g id="line2d_47"/>
    </g>
    <g id="ytick_28">
     <g id="line2d_48"/>
    </g>
    <g id="ytick_29">
     <g id="line2d_49"/>
    </g>
    <g id="ytick_30">
     <g id="line2d_50"/>
    </g>
    <g id="ytick_31">
     <g id="line2d_51"/>
    </g>
    <g id="ytick_32">
     <g id="line2d_52"/>
    </g>
    <g id="ytick_33">
     <g id="line2d_53"/>
    </g>
    <g id="ytick_34">
     <g id="line2d_54"/>
    </g>
    <g id="ytick_35">
     <g id="line2d_55"/>
    </g>
    <g id="ytick_36">
     <g id="line2d_56"/>
    </g>
    <g id="ytick_37">
     <g id="line2d_57"/>
    </g>
    <g id="ytick_38">
     <g id="line2d_58"/>
    </g>
    <g id="ytick_39">
     <g id="line2d_59"/>
    </g>
    <g id="ytick_40">
     <g id="line2d_60"/>
    </g>
    <g id="ytick_41">
     <g id="line2d_61"/>
    </g>
    <g id="ytick_42">
     <g id="line2d_62"/>
    </g>
    <g id="ytick_43">
     <g id="line2d_63"/>
    </g>
    <g id="ytick_44">
     <g id="line2d_64"/>
    </g>
    <g id="ytick_45">
     <g id="line2d_65"/>
    </g>
    <g id="ytick_46">
     <g id="line2d_66"/>
    </g>
    <g id="ytick_47">
     <g id="line2d_67"/>
    </g>
    <g id="ytick_48">
     <g id="line2d_68"/>
    </g>
    <g id="ytick_49">
     <g id="line2d_69"/>
    </g>
    <g id="ytick_50">
     <g id="line2d_70"/>
    </g>
    <g id="ytick_51">
     <g id="line2d_71"/>
    </g>
    <g id="ytick_52">
     <g id="line2d_72"/>
    </g>
    <g id="ytick_53">
     <g id="line2d_73"/>
    </g>
    <g id="ytick_54">
     <g id="line2d_74"/>
    </g>
   </g>
   <g id="line2d_75">
    <path d="M 75.557818 287.607273 
L 75.557818 282.946859 
L 76.205418 282.946859 
L 76.205418 277.791119 
L 76.853017 277.791119 
L 76.853017 279.139023 
L 77.500616 279.139023 
L 77.500616 280.579958 
L 78.148216 280.579958 
L 78.148216 279.847067 
L 78.795815 279.847067 
L 78.795815 280.579958 
L 80.091014 280.579958 
L 80.091014 282.127724 
L 80.738613 282.127724 
L 80.738613 284.688306 
L 82.033812 284.688306 
L 82.033812 282.946859 
L 82.681411 282.946859 
L 82.681411 282.127724 
L 83.32901 282.127724 
L 83.32901 282.946859 
L 83.97661 282.946859 
L 83.97661 281.339507 
L 84.624209 281.339507 
L 84.624209 279.139023 
L 85.919408 279.139023 
L 85.919408 277.791119 
L 86.567007 277.791119 
L 86.567007 275.331188 
L 87.214606 275.331188 
L 87.214606 273.130705 
L 87.862206 273.130705 
L 87.862206 274.201979 
L 88.509805 274.201979 
L 88.509805 271.140126 
L 89.157404 271.140126 
L 89.157404 270.670774 
L 89.805004 270.670774 
L 89.805004 255.735171 
L 91.100202 255.735171 
L 91.100202 254.629872 
L 91.747802 254.629872 
L 91.747802 252.386371 
L 92.395401 252.386371 
L 92.395401 252.974728 
L 93.043 252.974728 
L 93.043 256.663558 
L 93.6906 256.663558 
L 93.6906 253.993723 
L 94.338199 253.993723 
L 94.338199 254.629872 
L 94.985798 254.629872 
L 94.985798 255.735171 
L 95.633398 255.735171 
L 95.633398 256.663558 
L 96.280997 256.663558 
L 96.280997 255.963428 
L 96.928596 255.963428 
L 96.928596 256.90225 
L 97.576196 256.90225 
L 97.576196 258.916849 
L 98.223795 258.916849 
L 98.223795 256.427564 
L 98.871394 256.427564 
L 98.871394 258.654137 
L 100.166593 258.654137 
L 100.166593 260.002042 
L 100.814192 260.002042 
L 100.814192 259.725412 
L 101.461792 259.725412 
L 101.461792 254.415663 
L 102.109391 254.415663 
L 102.109391 250.185888 
L 102.75699 250.185888 
L 102.75699 247.266922 
L 103.40459 247.266922 
L 103.40459 241.950996 
L 104.052189 241.950996 
L 104.052189 224.322105 
L 104.699788 224.322105 
L 104.699788 227.474429 
L 105.347388 227.474429 
L 105.347388 225.515874 
L 105.994987 225.515874 
L 105.994987 214.740584 
L 106.642586 214.740584 
L 106.642586 209.371702 
L 107.290186 209.371702 
L 107.290186 213.412618 
L 107.937785 213.412618 
L 107.937785 212.562433 
L 108.585384 212.562433 
L 108.585384 208.8602 
L 109.232984 208.8602 
L 109.232984 206.604449 
L 109.880583 206.604449 
L 109.880583 192.443424 
L 110.528182 192.443424 
L 110.528182 181.39015 
L 111.175782 181.39015 
L 111.175782 187.917194 
L 111.823381 187.917194 
L 111.823381 192.641704 
L 112.47098 192.641704 
L 112.47098 196.899279 
L 113.11858 196.899279 
L 113.11858 194.12062 
L 113.766179 194.12062 
L 113.766179 194.395667 
L 114.413778 194.395667 
L 114.413778 196.429626 
L 115.061378 196.429626 
L 115.061378 195.957326 
L 115.708977 195.957326 
L 115.708977 197.338119 
L 116.356576 197.338119 
L 116.356576 198.506632 
L 117.004176 198.506632 
L 117.004176 198.085865 
L 117.651775 198.085865 
L 117.651775 198.98098 
L 118.299374 198.98098 
L 118.299374 198.727642 
L 118.946974 198.727642 
L 118.946974 198.028488 
L 119.594573 198.028488 
L 119.594573 202.98464 
L 120.242172 202.98464 
L 120.242172 206.626058 
L 120.889772 206.626058 
L 120.889772 206.050318 
L 121.537371 206.050318 
L 121.537371 203.240456 
L 122.18497 203.240456 
L 122.18497 202.535477 
L 122.83257 202.535477 
L 122.83257 203.351058 
L 123.480169 203.351058 
L 123.480169 207.018896 
L 124.127768 207.018896 
L 124.127768 209.396374 
L 124.775368 209.396374 
L 124.775368 209.870776 
L 125.422967 209.870776 
L 125.422967 214.08149 
L 126.070566 214.08149 
L 126.070566 215.921228 
L 126.718166 215.921228 
L 126.718166 220.2968 
L 127.365765 220.2968 
L 127.365765 215.954995 
L 128.013364 215.954995 
L 128.013364 218.427603 
L 128.660964 218.427603 
L 128.660964 220.632313 
L 129.308563 220.632313 
L 129.308563 220.131043 
L 129.956162 220.131043 
L 129.956162 221.276309 
L 130.603762 221.276309 
L 130.603762 224.221453 
L 131.251361 224.221453 
L 131.251361 224.98844 
L 131.89896 224.98844 
L 131.89896 234.118089 
L 132.54656 234.118089 
L 132.54656 228.932132 
L 133.194159 228.932132 
L 133.194159 230.364082 
L 133.841758 230.364082 
L 133.841758 228.558057 
L 134.489358 228.558057 
L 134.489358 229.570875 
L 135.136957 229.570875 
L 135.136957 229.766371 
L 135.784556 229.766371 
L 135.784556 230.296819 
L 136.432156 230.296819 
L 136.432156 234.037607 
L 137.079755 234.037607 
L 137.079755 235.278681 
L 137.727354 235.278681 
L 137.727354 235.024496 
L 138.374954 235.024496 
L 138.374954 233.718741 
L 139.022553 233.718741 
L 139.022553 230.096319 
L 139.670152 230.096319 
L 139.670152 230.635323 
L 140.317752 230.635323 
L 140.317752 230.229771 
L 140.965351 230.229771 
L 140.965351 229.313029 
L 141.61295 229.313029 
L 141.61295 228.682006 
L 142.26055 228.682006 
L 142.26055 225.145276 
L 142.908149 225.145276 
L 142.908149 223.774426 
L 143.555748 223.774426 
L 143.555748 222.720359 
L 144.203348 222.720359 
L 144.203348 218.889175 
L 144.850947 218.889175 
L 144.850947 213.174606 
L 145.498546 213.174606 
L 145.498546 213.05661 
L 146.146146 213.05661 
L 146.146146 213.233855 
L 146.793745 213.233855 
L 146.793745 215.322564 
L 147.441344 215.322564 
L 147.441344 214.997242 
L 148.088944 214.997242 
L 148.088944 217.643613 
L 148.736543 217.643613 
L 148.736543 217.827626 
L 149.384142 217.827626 
L 149.384142 216.607177 
L 150.031742 216.607177 
L 150.031742 217.13684 
L 151.32694 217.208488 
L 151.32694 221.495464 
L 151.97454 221.495464 
L 151.97454 222.580657 
L 152.622139 222.580657 
L 152.622139 219.68188 
L 153.269738 219.68188 
L 153.269738 220.463883 
L 153.917338 220.463883 
L 153.917338 221.189287 
L 154.564937 221.189287 
L 154.564937 220.172359 
L 155.212536 220.172359 
L 155.212536 220.463883 
L 155.860136 220.463883 
L 155.860136 218.618686 
L 156.507735 218.618686 
L 156.507735 219.440893 
L 157.155334 219.440893 
L 157.155334 221.189287 
L 157.802934 221.189287 
L 157.802934 221.363695 
L 158.450533 221.363695 
L 158.450533 220.632313 
L 159.745732 220.547928 
L 159.745732 221.232753 
L 160.393331 221.232753 
L 160.393331 220.505863 
L 161.68853 220.421987 
L 161.68853 219.400998 
L 162.336129 219.400998 
L 162.336129 219.601242 
L 162.983728 219.601242 
L 162.983728 220.007583 
L 163.631328 220.007583 
L 163.631328 219.641522 
L 164.278927 219.641522 
L 164.278927 219.966591 
L 165.574126 219.966591 
L 165.574126 220.172359 
L 166.221725 220.172359 
L 166.221725 219.844096 
L 168.164523 219.762831 
L 168.164523 219.641522 
L 168.812122 219.641522 
L 168.812122 219.281767 
L 169.459722 219.281767 
L 169.459722 218.16299 
L 170.75492 218.087998 
L 170.75492 215.653034 
L 171.40252 215.653034 
L 171.40252 214.708722 
L 172.050119 214.708722 
L 172.050119 214.455564 
L 172.697718 214.455564 
L 172.697718 214.645145 
L 173.345318 214.645145 
L 173.345318 214.236541 
L 173.992917 214.236541 
L 173.992917 214.08149 
L 174.640516 214.08149 
L 174.640516 213.412618 
L 175.288116 213.412618 
L 175.288116 210.959337 
L 175.935715 210.959337 
L 175.935715 207.040939 
L 176.583314 207.040939 
L 176.583314 206.909031 
L 177.230914 206.909031 
L 177.230914 208.573441 
L 177.878513 208.573441 
L 177.878513 208.220442 
L 178.526112 208.220442 
L 178.526112 205.654475 
L 179.173712 205.654475 
L 179.173712 203.480838 
L 179.821311 203.480838 
L 179.821311 202.803814 
L 180.46891 202.803814 
L 180.46891 201.580059 
L 181.11651 201.580059 
L 181.11651 198.172228 
L 181.764109 198.172228 
L 181.764109 205.367529 
L 182.411708 205.367529 
L 182.411708 203.932023 
L 183.059308 203.932023 
L 183.059308 204.08461 
L 183.706907 204.08461 
L 183.706907 204.844867 
L 184.354506 204.844867 
L 184.354506 203.406579 
L 185.649705 203.462249 
L 185.649705 202.376115 
L 186.297304 202.376115 
L 186.297304 201.027108 
L 186.944904 201.027108 
L 186.944904 201.614047 
L 187.592503 201.614047 
L 187.592503 201.310133 
L 188.240102 201.310133 
L 188.240102 201.109953 
L 188.887702 201.109953 
L 188.887702 200.47231 
L 189.535301 200.47231 
L 189.535301 201.580059 
L 190.1829 201.580059 
L 190.1829 201.922448 
L 190.8305 201.922448 
L 190.8305 202.130609 
L 191.478099 202.130609 
L 191.478099 202.446792 
L 192.125698 202.446792 
L 192.125698 202.875957 
L 192.773298 202.875957 
L 192.773298 204.046358 
L 193.420897 204.046358 
L 193.420897 203.799417 
L 194.068496 203.799417 
L 194.068496 203.970065 
L 195.363695 204.008177 
L 195.363695 203.780542 
L 196.011294 203.780542 
L 196.011294 202.411424 
L 196.658894 202.411424 
L 196.658894 201.546127 
L 197.306493 201.546127 
L 197.306493 201.04365 
L 198.601692 200.977558 
L 198.601692 200.279965 
L 199.249291 200.279965 
L 199.249291 199.55863 
L 199.89689 199.55863 
L 199.89689 199.176805 
L 200.54449 199.176805 
L 200.54449 199.435685 
L 201.839688 199.328698 
L 201.839688 199.713337 
L 202.487288 199.713337 
L 202.487288 199.405062 
L 203.134887 199.405062 
L 203.134887 199.604922 
L 204.430086 199.57405 
L 204.430086 198.891216 
L 205.077685 198.891216 
L 205.077685 198.418878 
L 205.725284 198.418878 
L 205.725284 196.710149 
L 206.372884 196.710149 
L 206.372884 194.662188 
L 207.020483 194.662188 
L 207.020483 193.010178 
L 207.668082 193.010178 
L 207.668082 191.65805 
L 208.315682 191.65805 
L 208.315682 190.408043 
L 208.963281 190.408043 
L 208.963281 189.88748 
L 209.61088 189.88748 
L 209.61088 187.645326 
L 210.25848 187.645326 
L 210.25848 185.005137 
L 210.906079 185.005137 
L 210.906079 185.174749 
L 211.553678 185.174749 
L 211.553678 182.59988 
L 212.201278 182.59988 
L 212.201278 182.139654 
L 212.848877 182.139654 
L 212.848877 180.191717 
L 213.496476 180.191717 
L 213.496476 175.931475 
L 214.144076 175.931475 
L 214.144076 174.21391 
L 214.791675 174.21391 
L 214.791675 173.644646 
L 215.439274 173.644646 
L 215.439274 171.422781 
L 216.086874 171.422781 
L 216.086874 165.188286 
L 216.734473 165.188286 
L 216.734473 162.792206 
L 217.382072 162.792206 
L 217.382072 159.441738 
L 218.029672 159.441738 
L 218.029672 152.173899 
L 218.677271 152.173899 
L 218.677271 147.570959 
L 219.32487 147.570959 
L 219.32487 153.169791 
L 219.97247 153.169791 
L 219.97247 165.837464 
L 220.620069 165.837464 
L 220.620069 154.194473 
L 221.267668 154.194473 
L 221.267668 150.416515 
L 221.915268 150.416515 
L 221.915268 152.576325 
L 222.562867 152.576325 
L 222.562867 154.534423 
L 223.210466 154.534423 
L 223.210466 154.717299 
L 223.858066 154.717299 
L 223.858066 155.318316 
L 224.505665 155.318316 
L 224.505665 154.358445 
L 225.153264 154.358445 
L 225.153264 153.435677 
L 226.448463 153.540944 
L 226.448463 152.016657 
L 227.743662 151.967662 
L 227.743662 153.588659 
L 228.391261 153.588659 
L 228.391261 154.185693 
L 229.03886 154.185693 
L 229.03886 156.576834 
L 229.68646 156.576834 
L 229.68646 157.817667 
L 230.334059 157.817667 
L 230.334059 156.324435 
L 230.981658 156.324435 
L 230.981658 156.138563 
L 231.629258 156.138563 
L 231.629258 156.994354 
L 232.276857 156.994354 
L 232.276857 158.39588 
L 232.924456 158.39588 
L 232.924456 162.463463 
L 233.572056 162.463463 
L 233.572056 163.410955 
L 234.219655 163.410955 
L 234.219655 159.107996 
L 234.867254 159.107996 
L 234.867254 158.438876 
L 235.514854 158.438876 
L 235.514854 160.15601 
L 236.162453 160.15601 
L 236.162453 158.992767 
L 236.810052 158.992767 
L 236.810052 158.086778 
L 237.457652 158.086778 
L 237.457652 156.870216 
L 238.105251 156.870216 
L 238.105251 156.455145 
L 238.75285 156.455145 
L 238.75285 157.236739 
L 239.40045 157.236739 
L 239.40045 155.94669 
L 240.048049 155.94669 
L 240.048049 157.874145 
L 240.695648 157.874145 
L 240.695648 155.741427 
L 241.343248 155.741427 
L 241.343248 155.209254 
L 241.990847 155.209254 
L 241.990847 154.268365 
L 242.638446 154.268365 
L 242.638446 152.319486 
L 243.286046 152.319486 
L 243.286046 154.425817 
L 243.933645 154.425817 
L 243.933645 153.657012 
L 244.581244 153.657012 
L 244.581244 153.31241 
L 245.228844 153.31241 
L 245.228844 152.801832 
L 245.876443 152.801832 
L 245.876443 153.501832 
L 246.524042 153.501832 
L 246.524042 153.211636 
L 247.171642 153.211636 
L 247.171642 152.94526 
L 247.819241 152.94526 
L 247.819241 153.670709 
L 248.46684 153.670709 
L 248.46684 153.300628 
L 249.11444 153.300628 
L 249.11444 152.724755 
L 249.762039 152.724755 
L 249.762039 151.057953 
L 250.409638 151.057953 
L 250.409638 144.839111 
L 251.057238 144.839111 
L 251.057238 143.830377 
L 251.704837 143.830377 
L 251.704837 142.628531 
L 252.352436 142.628531 
L 252.352436 143.025969 
L 253.000036 143.025969 
L 253.000036 138.46125 
L 253.647635 138.46125 
L 253.647635 132.878094 
L 254.295234 132.878094 
L 254.295234 129.229082 
L 254.942834 129.229082 
L 254.942834 125.271215 
L 255.590433 125.271215 
L 255.590433 116.678174 
L 256.238032 116.678174 
L 256.238032 114.007092 
L 256.885632 114.007092 
L 256.885632 107.097945 
L 257.533231 107.097945 
L 257.533231 108.7002 
L 258.18083 108.7002 
L 258.18083 116.997035 
L 258.82843 116.997035 
L 258.82843 112.467387 
L 259.476029 112.467387 
L 259.476029 112.801105 
L 260.123628 112.801105 
L 260.123628 117.615887 
L 260.771228 117.615887 
L 260.771228 118.401842 
L 261.418827 118.401842 
L 261.418827 116.469138 
L 262.066426 116.469138 
L 262.066426 116.239051 
L 262.714026 116.239051 
L 262.714026 113.646646 
L 263.361625 113.646646 
L 263.361625 113.784193 
L 264.009224 113.784193 
L 264.009224 113.264583 
L 264.656824 113.264583 
L 264.656824 113.94079 
L 265.304423 113.94079 
L 265.304423 113.670096 
L 265.952022 113.670096 
L 265.952022 114.91202 
L 266.599622 114.91202 
L 266.599622 114.763146 
L 267.247221 114.763146 
L 267.247221 113.942579 
L 267.89482 113.942579 
L 267.89482 114.885797 
L 268.54242 114.885797 
L 268.54242 117.552897 
L 269.190019 117.552897 
L 269.190019 120.046886 
L 269.837618 120.046886 
L 269.837618 119.374435 
L 270.485218 119.374435 
L 270.485218 121.11816 
L 271.132817 121.11816 
L 271.132817 121.850949 
L 271.780416 121.850949 
L 271.780416 121.555919 
L 272.428016 121.555919 
L 272.428016 118.065647 
L 273.075615 118.065647 
L 273.075615 119.047464 
L 274.370814 119.011267 
L 274.370814 119.549219 
L 275.018413 119.549219 
L 275.018413 121.357755 
L 275.666012 121.357755 
L 275.666012 120.892689 
L 276.313612 120.892689 
L 276.313612 124.621879 
L 276.961211 124.621879 
L 276.961211 126.911587 
L 277.60881 126.911587 
L 277.60881 126.032391 
L 278.25641 126.032391 
L 278.25641 130.545125 
L 278.904009 130.545125 
L 278.904009 125.957739 
L 279.551608 125.957739 
L 279.551608 124.960912 
L 280.199208 124.960912 
L 280.199208 124.685057 
L 280.846807 124.685057 
L 280.846807 125.8743 
L 281.494406 125.8743 
L 281.494406 126.306419 
L 282.142006 126.306419 
L 282.142006 127.024614 
L 283.437204 126.983529 
L 283.437204 126.753805 
L 284.084804 126.753805 
L 284.084804 126.441306 
L 284.732403 126.441306 
L 284.732403 124.702165 
L 285.380002 124.702165 
L 285.380002 123.0655 
L 286.027602 123.0655 
L 286.027602 121.06417 
L 286.675201 121.06417 
L 286.675201 119.349585 
L 287.3228 119.349585 
L 287.3228 118.354745 
L 287.9704 118.354745 
L 287.9704 118.758662 
L 288.617999 118.758662 
L 288.617999 120.68833 
L 289.265598 120.68833 
L 289.265598 120.115475 
L 289.913198 120.115475 
L 289.913198 120.709171 
L 290.560797 120.709171 
L 290.560797 121.804715 
L 291.208396 121.804715 
L 291.208396 120.392453 
L 291.855996 120.392453 
L 291.855996 118.870338 
L 292.503595 118.870338 
L 292.503595 119.561258 
L 293.151194 119.561258 
L 293.151194 119.240923 
L 293.798794 119.240923 
L 293.798794 119.570627 
L 294.446393 119.570627 
L 294.446393 119.373109 
L 295.093992 119.373109 
L 295.093992 119.692801 
L 295.741592 119.692801 
L 295.741592 120.613263 
L 296.389191 120.613263 
L 296.389191 121.026818 
L 297.03679 121.026818 
L 297.03679 120.796292 
L 298.331989 120.779264 
L 298.331989 121.499685 
L 298.979588 121.499685 
L 298.979588 123.225547 
L 299.627188 123.225547 
L 299.627188 123.428252 
L 300.274787 123.428252 
L 300.274787 123.867188 
L 301.569986 123.925646 
L 301.569986 125.211502 
L 302.217585 125.211502 
L 302.217585 124.796939 
L 302.865184 124.796939 
L 302.865184 125.34389 
L 303.512784 125.34389 
L 303.512784 125.186964 
L 304.160383 125.186964 
L 304.160383 126.220198 
L 304.807982 126.220198 
L 304.807982 128.800395 
L 305.455582 128.800395 
L 305.455582 128.334966 
L 306.103181 128.334966 
L 306.103181 130.271288 
L 306.750781 130.271288 
L 306.750781 131.124751 
L 307.39838 131.124751 
L 307.39838 132.622709 
L 308.045979 132.622709 
L 308.045979 130.948014 
L 308.693579 130.948014 
L 308.693579 129.131527 
L 309.341178 129.131527 
L 309.341178 129.419134 
L 309.988777 129.419134 
L 309.988777 131.223913 
L 310.636377 131.223913 
L 310.636377 131.595558 
L 311.283976 131.595558 
L 311.283976 132.390804 
L 311.931575 132.390804 
L 311.931575 132.863542 
L 312.579175 132.863542 
L 312.579175 131.832594 
L 313.226774 131.832594 
L 313.226774 127.831912 
L 313.874373 127.831912 
L 313.874373 129.396086 
L 314.521973 129.396086 
L 314.521973 131.26664 
L 315.169572 131.26664 
L 315.169572 130.231663 
L 315.817171 130.231663 
L 315.817171 130.098275 
L 316.464771 130.098275 
L 316.464771 129.952524 
L 317.11237 129.952524 
L 317.11237 130.205474 
L 317.759969 130.205474 
L 317.759969 131.721522 
L 318.407569 131.721522 
L 318.407569 131.188861 
L 319.055168 131.188861 
L 319.055168 134.03214 
L 319.702767 134.03214 
L 319.702767 132.753156 
L 320.350367 132.753156 
L 320.350367 132.881891 
L 320.997966 132.881891 
L 320.997966 134.116585 
L 321.645565 134.116585 
L 321.645565 135.933353 
L 322.293165 135.933353 
L 322.293165 135.009075 
L 322.940764 135.009075 
L 322.940764 137.093923 
L 323.588363 137.093923 
L 323.588363 142.297051 
L 324.235963 142.297051 
L 324.235963 141.728603 
L 324.883562 141.728603 
L 324.883562 140.083755 
L 325.531161 140.083755 
L 325.531161 137.576515 
L 326.178761 137.576515 
L 326.178761 141.417664 
L 326.82636 141.417664 
L 326.82636 140.718863 
L 327.473959 140.718863 
L 327.473959 140.976549 
L 328.121559 140.976549 
L 328.121559 141.126312 
L 328.769158 141.126312 
L 328.769158 140.013277 
L 329.416757 140.013277 
L 329.416757 139.032061 
L 330.064357 139.032061 
L 330.064357 139.534308 
L 330.711956 139.534308 
L 330.711956 138.386142 
L 331.359555 138.386142 
L 331.359555 137.064515 
L 332.007155 137.064515 
L 332.007155 136.685929 
L 332.654754 136.685929 
L 332.654754 135.226775 
L 333.302353 135.226775 
L 333.302353 135.628633 
L 333.949953 135.628633 
L 333.949953 137.689362 
L 334.597552 137.689362 
L 334.597552 139.098447 
L 335.245151 139.098447 
L 335.245151 138.430679 
L 335.892751 138.430679 
L 335.892751 138.971815 
L 336.54035 138.971815 
L 336.54035 137.815644 
L 337.187949 137.815644 
L 337.187949 139.269639 
L 337.835549 139.269639 
L 337.835549 141.062531 
L 339.130747 141.097211 
L 339.130747 139.893386 
L 339.778347 139.893386 
L 339.778347 140.757591 
L 341.073545 140.81952 
L 341.073545 139.575259 
L 341.721145 139.575259 
L 341.721145 139.777703 
L 342.368744 139.777703 
L 342.368744 139.446579 
L 343.016343 139.446579 
L 343.016343 139.759217 
L 343.663943 139.759217 
L 343.663943 140.291213 
L 344.311542 140.291213 
L 344.311542 139.724931 
L 344.959141 139.724931 
L 344.959141 139.94126 
L 345.606741 139.94126 
L 345.606741 140.569239 
L 346.25434 140.569239 
L 346.25434 141.07471 
L 346.901939 141.07471 
L 346.901939 140.631529 
L 347.549539 140.631529 
L 347.549539 140.454309 
L 348.197138 140.454309 
L 348.197138 138.678179 
L 348.844737 138.678179 
L 348.844737 139.119769 
L 349.492337 139.119769 
L 349.492337 139.511689 
L 350.139936 139.511689 
L 350.139936 138.796315 
L 350.787535 138.796315 
L 350.787535 138.28915 
L 351.435135 138.28915 
L 351.435135 137.183175 
L 352.082734 137.183175 
L 352.082734 135.94581 
L 352.730333 135.94581 
L 352.730333 135.727053 
L 353.377933 135.727053 
L 353.377933 136.554198 
L 354.673131 136.461577 
L 354.673131 135.374606 
L 355.320731 135.374606 
L 355.320731 135.688643 
L 355.96833 135.688643 
L 355.96833 136.226233 
L 356.615929 136.226233 
L 356.615929 136.360391 
L 357.263529 136.360391 
L 357.263529 136.993487 
L 357.911128 136.993487 
L 357.911128 137.742818 
L 358.558727 137.742818 
L 358.558727 140.761283 
L 359.206327 140.761283 
L 359.206327 140.587541 
L 359.853926 140.587541 
L 359.853926 140.866783 
L 360.501525 140.866783 
L 360.501525 140.395267 
L 361.796724 140.351773 
L 361.796724 139.1659 
L 362.444323 139.1659 
L 362.444323 139.992802 
L 363.091923 139.992802 
L 363.091923 140.570154 
L 363.739522 140.570154 
L 363.739522 140.403432 
L 364.387121 140.403432 
L 364.387121 140.057856 
L 365.034721 140.057856 
L 365.034721 139.60406 
L 365.68232 139.60406 
L 365.68232 139.724053 
L 366.329919 139.724053 
L 366.329919 138.945565 
L 367.625118 139.03716 
L 367.625118 138.471174 
L 368.272717 138.471174 
L 368.272717 137.773998 
L 368.920317 137.773998 
L 368.920317 136.735353 
L 369.567916 136.735353 
L 369.567916 135.816467 
L 370.215515 135.816467 
L 370.215515 132.994234 
L 370.863115 132.994234 
L 370.863115 128.626707 
L 371.510714 128.626707 
L 371.510714 129.549321 
L 372.158313 129.549321 
L 372.158313 134.252681 
L 372.805913 134.252681 
L 372.805913 133.588101 
L 373.453512 133.588101 
L 373.453512 133.139203 
L 374.101111 133.139203 
L 374.101111 133.294867 
L 374.748711 133.294867 
L 374.748711 131.17719 
L 375.39631 131.17719 
L 375.39631 130.911693 
L 376.043909 130.911693 
L 376.043909 129.553099 
L 376.691509 129.553099 
L 376.691509 128.016633 
L 377.339108 128.016633 
L 377.339108 127.185909 
L 377.986707 127.185909 
L 377.986707 126.097245 
L 378.634307 126.097245 
L 378.634307 126.948242 
L 379.281906 126.948242 
L 379.281906 126.146706 
L 379.929505 126.146706 
L 379.929505 127.193621 
L 381.224704 127.216292 
L 381.224704 127.385891 
L 381.872303 127.385891 
L 381.872303 126.473417 
L 382.519903 126.473417 
L 382.519903 127.371786 
L 383.167502 127.371786 
L 383.167502 129.63205 
L 383.815101 129.63205 
L 383.815101 129.849349 
L 384.462701 129.849349 
L 384.462701 129.300416 
L 385.1103 129.300416 
L 385.1103 130.119338 
L 385.757899 130.119338 
L 385.757899 130.575711 
L 386.405499 130.575711 
L 386.405499 130.208259 
L 387.053098 130.208259 
L 387.053098 130.040736 
L 387.700697 130.040736 
L 387.700697 128.901643 
L 388.348297 128.901643 
L 388.348297 127.842353 
L 389.643495 127.878687 
L 389.643495 127.272833 
L 390.291095 127.272833 
L 390.291095 127.71741 
L 390.938694 127.71741 
L 390.938694 128.565354 
L 391.586293 128.565354 
L 391.586293 128.041219 
L 392.881492 128.091988 
L 392.881492 128.448819 
L 393.529091 128.448819 
L 393.529091 128.021648 
L 394.82429 127.993078 
L 394.82429 128.154991 
L 395.471889 128.154991 
L 395.471889 127.915583 
L 396.767088 127.843845 
L 396.767088 127.710984 
L 397.414687 127.710984 
L 397.414687 127.376648 
L 398.062287 127.376648 
L 398.062287 127.062905 
L 398.709886 127.062905 
L 398.709886 126.311502 
L 399.357485 126.311502 
L 399.357485 126.620175 
L 400.005085 126.620175 
L 400.005085 126.26165 
L 400.652684 126.26165 
L 400.652684 126.429683 
L 401.300283 126.429683 
L 401.300283 125.911444 
L 401.947883 125.911444 
L 401.947883 126.132039 
L 402.595482 126.132039 
L 402.595482 126.257962 
L 403.243081 126.257962 
L 403.243081 126.717961 
L 403.890681 126.717961 
L 403.890681 126.460846 
L 404.53828 126.460846 
L 404.53828 123.733188 
L 405.185879 123.733188 
L 405.185879 122.670084 
L 405.833479 122.670084 
L 405.833479 120.966622 
L 406.481078 120.966622 
L 406.481078 121.174097 
L 407.128677 121.174097 
L 407.128677 117.61924 
L 407.776277 117.61924 
L 407.776277 115.677182 
L 408.423876 115.677182 
L 408.423876 120.643892 
L 409.071475 120.643892 
L 409.071475 119.366811 
L 409.719075 119.366811 
L 409.719075 118.151456 
L 410.366674 118.151456 
L 410.366674 117.717314 
L 411.014273 117.717314 
L 411.014273 118.306808 
L 412.957071 118.359797 
L 412.957071 118.165532 
L 413.604671 118.165532 
L 413.604671 118.354745 
L 414.25227 118.354745 
L 414.25227 118.543139 
L 414.899869 118.543139 
L 414.899869 120.199459 
L 415.547469 120.199459 
L 415.547469 121.363953 
L 416.195068 121.363953 
L 416.195068 120.921588 
L 417.490267 120.980223 
L 417.490267 121.429697 
L 418.137866 121.429697 
L 418.137866 121.19977 
L 419.433065 121.25375 
L 419.433065 121.40849 
L 420.728263 121.390226 
L 420.728263 120.109979 
L 421.375863 120.109979 
L 421.375863 119.651773 
L 422.023462 119.651773 
L 422.023462 120.081495 
L 423.318661 120.13919 
L 423.318661 120.599196 
L 423.96626 120.599196 
L 423.96626 120.157081 
L 425.909058 120.143661 
L 425.909058 119.894739 
L 426.556657 119.894739 
L 426.556657 119.202745 
L 427.204257 119.202745 
L 427.204257 119.07784 
L 427.851856 119.07784 
L 427.851856 119.409939 
L 428.499455 119.409939 
L 428.499455 118.916344 
L 429.147055 118.916344 
L 429.147055 117.597305 
L 429.794654 117.597305 
L 429.794654 116.393693 
L 430.442253 116.393693 
L 430.442253 117.069054 
L 431.089853 117.069054 
L 431.089853 116.540804 
L 431.737452 116.540804 
L 431.737452 117.161291 
L 432.385051 117.161291 
L 432.385051 116.101411 
L 434.327849 116.094893 
L 434.327849 116.29562 
L 434.975449 116.29562 
L 434.975449 115.373603 
L 436.270647 115.277741 
L 436.270647 115.231199 
L 436.918247 115.231199 
L 436.918247 115.023165 
L 437.565846 115.023165 
L 437.565846 114.619285 
L 438.213445 114.619285 
L 438.213445 111.603074 
L 438.861045 111.603074 
L 438.861045 111.231397 
L 439.508644 111.231397 
L 439.508644 110.470919 
L 440.156243 110.470919 
L 440.156243 107.559596 
L 440.803843 107.559596 
L 440.803843 111.681834 
L 441.451442 111.681834 
L 441.451442 114.240173 
L 442.099041 114.240173 
L 442.099041 113.60083 
L 442.746641 113.60083 
L 442.746641 112.025279 
L 443.39424 112.025279 
L 443.39424 112.308178 
L 444.041839 112.308178 
L 444.041839 111.496172 
L 444.689439 111.496172 
L 444.689439 110.072553 
L 445.337038 110.072553 
L 445.337038 109.493236 
L 445.984637 109.493236 
L 445.984637 110.031817 
L 446.632237 110.031817 
L 446.632237 109.698325 
L 447.279836 109.698325 
L 447.279836 108.614069 
L 447.927435 108.614069 
L 447.927435 107.263442 
L 448.575035 107.263442 
L 448.575035 106.797688 
L 449.222634 106.797688 
L 449.222634 105.485239 
L 449.870233 105.485239 
L 449.870233 104.714344 
L 450.517833 104.714344 
L 450.517833 106.053662 
L 451.165432 106.053662 
L 451.165432 105.218589 
L 451.813031 105.218589 
L 451.813031 108.343512 
L 452.460631 108.343512 
L 452.460631 107.487415 
L 453.10823 107.487415 
L 453.10823 110.536611 
L 453.755829 110.536611 
L 453.755829 108.908857 
L 454.403429 108.908857 
L 454.403429 108.116214 
L 455.051028 108.116214 
L 455.051028 106.024949 
L 455.698627 106.024949 
L 455.698627 105.742387 
L 456.346227 105.742387 
L 456.346227 106.437881 
L 456.993826 106.437881 
L 456.993826 105.894662 
L 457.641425 105.894662 
L 457.641425 105.344883 
L 458.289025 105.344883 
L 458.289025 104.437182 
L 458.936624 104.437182 
L 458.936624 103.381479 
L 459.584223 103.381479 
L 459.584223 100.743079 
L 460.231823 100.743079 
L 460.231823 99.250625 
L 460.879422 99.250625 
L 460.879422 98.728713 
L 461.527021 98.728713 
L 461.527021 98.530902 
L 462.174621 98.530902 
L 462.174621 95.154695 
L 462.82222 95.154695 
L 462.82222 91.252792 
L 463.469819 91.252792 
L 463.469819 93.472076 
L 464.117419 93.472076 
L 464.117419 91.352735 
L 464.765018 91.352735 
L 464.765018 88.985847 
L 465.412617 88.985847 
L 465.412617 88.032807 
L 466.060217 88.032807 
L 466.060217 88.932679 
L 466.707816 88.932679 
L 466.707816 89.529558 
L 467.355415 89.529558 
L 467.355415 89.301053 
L 468.003015 89.301053 
L 468.003015 90.569439 
L 468.650614 90.569439 
L 468.650614 90.24098 
L 469.945813 90.173381 
L 469.945813 90.562512 
L 470.593412 90.562512 
L 470.593412 92.228823 
L 471.241011 92.228823 
L 471.241011 95.538194 
L 471.888611 95.538194 
L 471.888611 92.646165 
L 472.53621 92.646165 
L 472.53621 88.608271 
L 473.183809 88.608271 
L 473.183809 89.318028 
L 473.831409 89.318028 
L 473.831409 87.75551 
L 475.126607 87.802105 
L 475.126607 84.11081 
L 475.774207 84.11081 
L 475.774207 81.468272 
L 476.421806 81.468272 
L 476.421806 78.894844 
L 477.069405 78.894844 
L 477.069405 80.487081 
L 477.717005 80.487081 
L 477.717005 79.10606 
L 478.364604 79.10606 
L 478.364604 78.89074 
L 479.012203 78.89074 
L 479.012203 76.495947 
L 479.659803 76.495947 
L 479.659803 78.850884 
L 480.307402 78.850884 
L 480.307402 79.110399 
L 480.955001 79.110399 
L 480.955001 81.486096 
L 481.602601 81.486096 
L 481.602601 82.520029 
L 482.2502 82.520029 
L 482.2502 82.965384 
L 482.897799 82.965384 
L 482.897799 81.128446 
L 483.545399 81.128446 
L 483.545399 79.929675 
L 484.192998 79.929675 
L 484.192998 79.21938 
L 484.840597 79.21938 
L 484.840597 78.59319 
L 485.488197 78.59319 
L 485.488197 76.86616 
L 486.135796 76.86616 
L 486.135796 73.403733 
L 487.430995 73.383671 
L 487.430995 72.650921 
L 488.078594 72.650921 
L 488.078594 73.118737 
L 488.726193 73.118737 
L 488.726193 70.901707 
L 489.373793 70.901707 
L 489.373793 68.018126 
L 490.021392 68.018126 
L 490.021392 67.729645 
L 490.668991 67.729645 
L 490.668991 72.688154 
L 491.316591 72.688154 
L 491.316591 66.639107 
L 491.96419 66.639107 
L 491.96419 65.669205 
L 493.259389 65.745432 
L 493.259389 61.803115 
L 493.906988 61.803115 
L 493.906988 59.808766 
L 494.554587 59.808766 
L 494.554587 54.840075 
L 495.202187 54.840075 
L 495.202187 53.069224 
L 495.849786 53.069224 
L 495.849786 51.291013 
L 496.497385 51.291013 
L 496.497385 48.325151 
L 497.144985 48.325151 
L 497.144985 54.941883 
L 497.792584 54.941883 
L 497.792584 52.241718 
L 498.440183 52.241718 
L 498.440183 56.785649 
L 499.087783 56.785649 
L 499.087783 53.110442 
L 499.735382 53.110442 
L 499.735382 51.566797 
L 500.382981 51.566797 
L 500.382981 55.699919 
L 501.030581 55.699919 
L 501.030581 55.281899 
L 501.67818 55.281899 
L 501.67818 58.70247 
L 502.325779 58.70247 
L 502.325779 59.965096 
L 502.973379 59.965096 
L 502.973379 58.839302 
L 503.620978 58.839302 
L 503.620978 61.211484 
L 504.268577 61.211484 
L 504.268577 65.772711 
L 505.563776 65.663454 
L 505.563776 64.077142 
L 506.211375 64.077142 
L 506.211375 61.263619 
L 506.858975 61.263619 
L 506.858975 59.180789 
L 507.506574 59.180789 
L 507.506574 62.269921 
L 508.154173 62.269921 
L 508.154173 60.950843 
L 508.801773 60.950843 
L 508.801773 58.683747 
L 509.449372 58.683747 
L 509.449372 63.093966 
L 510.096971 63.093966 
L 510.096971 63.534221 
L 510.744571 63.534221 
L 510.744571 65.53011 
L 511.39217 65.53011 
L 511.39217 64.04376 
L 512.039769 64.04376 
L 512.039769 64.944721 
L 512.687369 64.944721 
L 512.687369 66.42301 
L 513.334968 66.42301 
L 513.334968 69.603507 
L 513.982567 69.603507 
L 513.982567 69.728934 
L 515.277766 69.735859 
L 515.277766 66.568942 
L 516.572965 66.537381 
L 516.572965 63.995412 
L 517.220564 63.995412 
L 517.220564 64.137285 
L 517.868163 64.137285 
L 517.868163 62.929096 
L 518.515763 62.929096 
L 518.515763 62.15485 
L 519.163362 62.15485 
L 519.163362 62.994174 
L 519.810961 62.994174 
L 519.810961 65.282557 
L 520.458561 65.282557 
L 520.458561 65.098737 
L 521.10616 65.098737 
L 521.10616 65.67108 
L 521.753759 65.67108 
L 521.753759 67.608435 
L 522.401359 67.608435 
L 522.401359 68.078977 
L 523.048958 68.078977 
L 523.048958 67.670388 
L 524.344157 67.654193 
L 524.344157 67.322283 
L 524.991756 67.322283 
L 524.991756 70.460669 
L 525.639355 70.460669 
L 525.639355 70.666678 
L 526.286955 70.666678 
L 526.286955 69.808575 
L 526.934554 69.808575 
L 526.934554 71.762382 
L 527.582153 71.762382 
L 527.582153 72.730535 
L 528.229753 72.730535 
L 528.229753 70.227908 
L 529.524951 70.221133 
L 529.524951 71.186183 
L 530.172551 71.186183 
L 530.172551 71.453286 
L 530.82015 71.453286 
L 530.82015 68.003614 
L 532.115349 67.903129 
L 532.115349 66.451399 
L 532.762948 66.451399 
L 532.762948 65.850699 
L 533.410547 65.850699 
L 533.410547 67.880273 
L 534.058147 67.880273 
L 534.058147 69.940589 
L 534.705746 69.940589 
L 534.705746 71.523558 
L 535.353345 71.523558 
L 535.353345 71.380452 
L 536.000945 71.380452 
L 536.000945 70.673439 
L 536.648544 70.673439 
L 536.648544 70.547028 
L 537.296143 70.547028 
L 537.296143 69.379208 
L 537.943743 69.379208 
L 537.943743 69.026552 
L 538.591342 69.026552 
L 538.591342 68.037416 
L 539.238941 68.037416 
L 539.238941 71.670928 
L 539.886541 71.670928 
L 539.886541 71.196844 
L 540.53414 71.196844 
L 540.53414 70.638726 
L 541.829339 70.643066 
L 541.829339 70.363846 
L 542.476938 70.363846 
L 542.476938 70.220913 
L 543.124537 70.220913 
L 543.124537 70.561915 
L 543.772137 70.561915 
L 543.772137 70.395054 
L 545.067335 70.371398 
L 545.067335 71.398812 
L 545.714935 71.398812 
L 545.714935 70.599419 
L 547.010133 70.649916 
L 547.010133 70.719887 
L 547.657733 70.719887 
L 547.657733 71.277655 
L 548.305332 71.277655 
L 548.305332 71.080757 
L 548.952932 71.080757 
L 548.952932 70.512269 
L 549.600531 70.512269 
L 549.600531 70.926266 
L 550.24813 70.926266 
L 550.24813 73.525029 
L 550.89573 73.525029 
L 550.89573 76.751226 
L 551.543329 76.751226 
L 551.543329 79.004047 
L 552.190928 79.004047 
L 552.190928 81.685729 
L 552.838528 81.685729 
L 552.838528 79.81055 
L 553.486127 79.81055 
L 553.486127 82.146119 
L 554.133726 82.146119 
L 554.133726 83.037893 
L 554.781326 83.037893 
L 554.781326 84.736712 
L 555.428925 84.736712 
L 555.428925 83.224386 
L 556.076524 83.224386 
L 556.076524 81.299917 
L 556.724124 81.299917 
L 556.724124 81.723569 
L 557.371723 81.723569 
L 557.371723 82.005055 
L 558.019322 82.005055 
L 558.019322 81.132005 
L 558.666922 81.132005 
L 558.666922 80.398825 
L 559.314521 80.398825 
L 559.314521 82.704111 
L 559.96212 82.704111 
L 559.96212 82.497615 
L 560.60972 82.497615 
L 560.60972 82.82198 
L 561.257319 82.82198 
L 561.257319 83.044238 
L 562.552518 83.10867 
L 562.552518 83.738865 
L 563.847716 83.823178 
L 563.847716 84.196702 
L 564.495316 84.196702 
L 564.495316 82.800447 
L 565.142915 82.800447 
L 565.142915 82.923202 
L 565.790514 82.923202 
L 565.790514 81.157414 
L 566.438114 81.157414 
L 566.438114 80.053772 
L 567.085713 80.053772 
L 567.085713 81.659669 
L 568.380912 81.761531 
L 568.380912 81.369708 
L 569.67611 81.40052 
L 569.67611 81.104451 
L 570.32371 81.104451 
L 570.32371 80.618795 
L 572.266508 80.518475 
L 572.266508 80.182519 
L 572.914107 80.182519 
L 572.914107 76.483909 
L 573.561706 76.483909 
L 573.561706 75.016529 
L 574.209306 75.016529 
L 574.209306 75.80772 
L 574.856905 75.80772 
L 574.856905 75.304147 
L 575.504504 75.304147 
L 575.504504 74.856324 
L 576.152104 74.856324 
L 576.152104 74.370653 
L 576.799703 74.370653 
L 576.799703 74.887779 
L 577.447302 74.887779 
L 577.447302 74.540563 
L 578.094902 74.540563 
L 578.094902 73.430243 
L 578.742501 73.430243 
L 578.742501 71.124404 
L 579.3901 71.124404 
L 579.3901 66.312762 
L 580.0377 66.312762 
L 580.0377 68.306307 
L 580.685299 68.306307 
L 580.685299 67.293808 
L 581.332898 67.293808 
L 581.332898 64.435418 
L 581.980498 64.435418 
L 581.980498 65.594214 
L 582.628097 65.594214 
L 582.628097 65.944377 
L 583.275696 65.944377 
L 583.275696 66.298134 
L 583.923296 66.298134 
L 583.923296 66.509956 
L 584.570895 66.509956 
L 584.570895 64.162423 
L 585.218494 64.162423 
L 585.218494 63.190052 
L 585.866094 63.190052 
L 585.866094 59.99792 
L 586.513693 59.99792 
L 586.513693 59.39195 
L 587.161292 59.39195 
L 587.161292 60.458264 
L 587.808892 60.458264 
L 587.808892 59.727987 
L 588.456491 59.727987 
L 588.456491 56.828349 
L 589.10409 56.828349 
L 589.10409 58.916673 
L 589.75169 58.916673 
L 589.75169 62.324856 
L 590.399289 62.324856 
L 590.399289 60.441115 
L 591.046888 60.441115 
L 591.046888 61.895607 
L 591.694488 61.895607 
L 591.694488 62.701606 
L 592.342087 62.701606 
L 592.342087 60.555565 
L 592.989686 60.555565 
L 592.989686 58.77673 
L 593.637286 58.77673 
L 593.637286 59.113595 
L 594.284885 59.113595 
L 594.284885 61.597864 
L 594.932484 61.597864 
L 594.932484 60.980255 
L 595.580084 60.980255 
L 595.580084 61.400682 
L 596.227683 61.400682 
L 596.227683 60.894039 
L 596.875282 60.894039 
L 596.875282 62.533773 
L 597.522882 62.533773 
L 597.522882 60.374388 
L 598.170481 60.374388 
L 598.170481 60.639716 
L 598.81808 60.639716 
L 598.81808 61.303134 
L 599.46568 61.303134 
L 599.46568 60.994774 
L 600.760878 61.064877 
L 600.760878 62.30522 
L 601.408478 62.30522 
L 601.408478 65.7935 
L 602.056077 65.7935 
L 602.056077 65.467206 
L 602.703676 65.467206 
L 602.703676 65.911617 
L 603.351276 65.911617 
L 603.351276 64.81259 
L 603.998875 64.81259 
L 603.998875 65.565704 
L 604.646474 65.565704 
L 604.646474 66.094179 
L 605.294074 66.094179 
L 605.294074 65.720678 
L 605.941673 65.720678 
L 605.941673 64.621659 
L 606.589272 64.621659 
L 606.589272 62.851573 
L 607.236872 62.851573 
L 607.236872 63.146265 
L 608.53207 63.051811 
L 608.53207 63.747776 
L 609.17967 63.747776 
L 609.17967 64.70489 
L 609.827269 64.70489 
L 609.827269 65.8392 
L 610.474868 65.8392 
L 610.474868 68.245164 
L 611.122468 68.245164 
L 611.122468 68.59992 
L 611.770067 68.59992 
L 611.770067 67.481456 
L 612.417666 67.481456 
L 612.417666 68.514903 
L 613.065266 68.514903 
L 613.065266 67.579317 
L 613.712865 67.579317 
L 613.712865 68.52562 
L 614.360464 68.52562 
L 614.360464 69.445043 
L 615.008064 69.445043 
L 615.008064 68.522686 
L 615.655663 68.522686 
L 615.655663 68.34763 
L 616.303262 68.34763 
L 616.303262 68.203014 
L 616.950862 68.203014 
L 616.950862 68.564818 
L 617.598461 68.564818 
L 617.598461 68.059052 
L 618.24606 68.059052 
L 618.24606 66.774511 
L 618.89366 66.774511 
L 618.89366 66.020715 
L 619.541259 66.020715 
L 619.541259 64.066298 
L 620.188858 64.066298 
L 620.188858 64.488413 
L 620.836458 64.488413 
L 620.836458 65.456067 
L 621.484057 65.456067 
L 621.484057 63.194305 
L 622.779256 63.116242 
L 622.779256 62.149904 
L 623.426855 62.149904 
L 623.426855 61.938754 
L 624.074454 61.938754 
L 624.074454 60.877414 
L 624.722054 60.877414 
L 624.722054 61.259331 
L 625.369653 61.259331 
L 625.369653 62.334897 
L 626.017252 62.334897 
L 626.017252 64.337485 
L 626.664852 64.337485 
L 626.664852 64.943717 
L 627.312451 64.943717 
L 627.312451 63.677937 
L 627.96005 63.677937 
L 627.96005 66.472111 
L 628.60765 66.472111 
L 628.60765 73.709272 
L 629.255249 73.709272 
L 629.255249 74.667067 
L 629.902848 74.667067 
L 629.902848 71.651383 
L 630.550448 71.651383 
L 630.550448 70.00214 
L 631.198047 70.00214 
L 631.198047 72.70472 
L 631.845646 72.70472 
L 631.845646 69.65996 
L 632.493246 69.65996 
L 632.493246 68.082845 
L 633.140845 68.082845 
L 633.140845 69.464178 
L 634.436044 69.468098 
L 634.436044 68.322671 
L 635.083643 68.322671 
L 635.083643 68.695298 
L 635.731242 68.695298 
L 635.731242 67.09391 
L 636.378842 67.09391 
L 636.378842 64.713481 
L 637.026441 64.713481 
L 637.026441 64.10014 
L 637.67404 64.10014 
L 637.67404 62.008787 
L 638.32164 62.008787 
L 638.32164 64.268634 
L 638.969239 64.268634 
L 638.969239 62.957337 
L 639.616838 62.957337 
L 639.616838 62.681086 
L 640.264438 62.681086 
L 640.264438 64.468141 
L 640.912037 64.468141 
L 640.912037 62.552927 
L 641.559636 62.552927 
L 641.559636 61.211013 
L 642.207236 61.211013 
L 642.207236 62.434229 
L 642.854835 62.434229 
L 642.854835 62.108221 
L 643.502434 62.108221 
L 643.502434 62.76287 
L 644.797633 62.804115 
L 644.797633 63.183122 
L 646.092832 63.282173 
L 646.092832 63.407987 
L 646.740431 63.407987 
L 646.740431 63.666354 
L 647.38803 63.666354 
L 647.38803 63.247442 
L 648.683229 63.293228 
L 648.683229 63.389442 
L 649.978428 63.34145 
L 649.978428 62.457332 
L 650.626027 62.457332 
L 650.626027 59.562328 
L 651.273626 59.562328 
L 651.273626 58.999763 
L 651.921226 58.999763 
L 651.921226 59.27708 
L 652.568825 59.27708 
L 652.568825 58.233866 
L 653.216424 58.233866 
L 653.216424 58.581934 
L 653.864024 58.581934 
L 653.864024 57.975619 
L 655.159222 58.060268 
L 655.159222 58.240381 
L 655.806822 58.240381 
L 655.806822 58.651275 
L 656.454421 58.651275 
L 656.454421 57.959428 
L 657.10202 57.959428 
L 657.10202 61.302518 
L 657.74962 61.302518 
L 657.74962 61.162766 
L 658.397219 61.162766 
L 658.397219 60.953613 
L 659.044818 60.953613 
L 659.044818 59.749483 
L 659.692418 59.749483 
L 659.692418 60.75304 
L 660.340017 60.75304 
L 660.340017 60.234167 
L 660.987616 60.234167 
L 660.987616 59.947152 
L 661.635216 59.947152 
L 661.635216 60.511538 
L 662.282815 60.511538 
L 662.282815 60.27726 
L 662.930414 60.27726 
L 662.930414 58.93959 
L 663.578014 58.93959 
L 663.578014 58.707516 
L 664.225613 58.707516 
L 664.225613 58.250627 
L 664.873212 58.250627 
L 664.873212 56.243029 
L 665.520812 56.243029 
L 665.520812 55.132462 
L 666.168411 55.132462 
L 666.168411 54.890841 
L 666.81601 54.890841 
L 666.81601 54.375112 
L 667.46361 54.375112 
L 667.46361 52.492852 
L 668.111209 52.492852 
L 668.111209 51.434806 
L 668.758808 51.434806 
L 668.758808 50.891365 
L 669.406408 50.891365 
L 669.406408 48.574382 
L 670.054007 48.574382 
L 670.054007 48.03918 
L 670.701606 48.03918 
L 670.701606 49.669973 
L 671.349206 49.669973 
L 671.349206 47.97995 
L 671.996805 47.97995 
L 671.996805 47.816901 
L 672.644404 47.816901 
L 672.644404 49.071657 
L 673.292004 49.071657 
L 673.292004 47.926119 
L 673.939603 47.926119 
L 673.939603 44.101243 
L 674.587202 44.101243 
L 674.587202 43.501708 
L 675.234802 43.501708 
L 675.234802 41.324118 
L 675.882401 41.324118 
L 675.882401 39.500019 
L 676.53 39.500019 
L 676.53 36.697366 
L 677.1776 36.697366 
L 677.1776 32.950214 
L 677.825199 32.950214 
L 677.825199 35.146288 
L 678.472798 35.146288 
L 678.472798 34.405388 
L 679.120398 34.405388 
L 679.120398 34.868928 
L 679.767997 34.868928 
L 679.767997 37.275539 
L 680.415596 37.275539 
L 680.415596 38.398643 
L 681.063196 38.398643 
L 681.063196 36.611674 
L 681.710795 36.611674 
L 681.710795 34.307189 
L 682.358394 34.307189 
L 682.358394 29.596403 
L 683.005994 29.596403 
L 683.005994 29.10356 
L 683.653593 29.10356 
L 683.653593 28.373517 
L 684.301192 28.373517 
L 684.301192 25.652358 
L 684.948792 25.652358 
L 684.948792 27.760325 
L 685.596391 27.760325 
L 685.596391 30.167384 
L 686.24399 30.167384 
L 686.24399 28.677867 
L 686.89159 28.677867 
L 686.89159 27.080693 
L 687.539189 27.080693 
L 687.539189 25.190547 
L 688.186788 25.190547 
L 688.186788 25.329959 
L 688.834388 25.329959 
L 688.834388 24.889041 
L 689.481987 24.889041 
L 689.481987 26.997437 
L 690.129586 26.997437 
L 690.129586 25.733628 
L 690.777186 25.733628 
L 690.777186 24.656228 
L 691.424785 24.656228 
L 691.424785 24.54375 
L 692.072384 24.54375 
L 692.072384 24.883009 
L 692.719984 24.883009 
L 692.719984 23.009876 
L 693.367583 23.009876 
L 693.367583 24.181578 
L 694.015182 24.181578 
L 694.015182 26.486435 
L 694.662782 26.486435 
L 694.662782 28.409456 
L 695.310381 28.409456 
L 695.310381 26.573813 
L 695.95798 26.573813 
L 695.95798 25.205125 
L 697.253179 25.144274 
L 697.253179 25.374949 
L 697.900778 25.374949 
L 697.900778 29.429376 
L 698.548378 29.429376 
L 698.548378 34.328546 
L 699.195977 34.328546 
L 699.195977 35.615947 
L 699.843576 35.615947 
L 699.843576 33.508081 
L 700.491176 33.508081 
L 700.491176 34.13381 
L 701.138775 34.13381 
L 701.138775 34.373094 
L 701.786374 34.373094 
L 701.786374 36.414866 
L 702.433974 36.414866 
L 702.433974 35.17571 
L 703.081573 35.17571 
L 703.081573 33.573601 
L 703.729172 33.573601 
L 703.729172 35.118449 
L 704.376772 35.118449 
L 704.376772 35.685266 
L 705.67197 35.79572 
L 705.67197 36.162485 
L 706.31957 36.162485 
L 706.31957 35.945155 
L 706.967169 35.945155 
L 706.967169 36.374085 
L 707.614768 36.374085 
L 707.614768 36.815521 
L 708.262368 36.815521 
L 708.262368 37.482323 
L 708.909967 37.482323 
L 708.909967 37.147011 
L 709.557566 37.147011 
L 709.557566 34.129556 
L 710.205166 34.129556 
L 710.205166 31.554905 
L 710.852765 31.554905 
L 710.852765 33.675686 
L 711.500364 33.675686 
L 711.500364 30.39069 
L 712.147964 30.39069 
L 712.147964 29.938311 
L 712.795563 29.938311 
L 712.795563 29.286939 
L 713.443162 29.286939 
L 713.443162 29.430238 
L 714.090762 29.430238 
L 714.090762 28.219698 
L 714.738361 28.219698 
L 714.738361 28.417424 
L 715.38596 28.417424 
L 715.38596 29.242842 
L 716.03356 29.242842 
L 716.03356 28.041698 
L 716.681159 28.041698 
L 716.681159 29.725598 
L 717.976358 29.734329 
L 717.976358 28.96593 
L 718.623957 28.96593 
L 718.623957 31.217551 
L 719.919156 31.259459 
L 719.919156 32.158724 
L 720.566755 32.158724 
L 720.566755 28.991365 
L 721.214354 28.991365 
L 721.214354 25.898997 
L 721.861954 25.898997 
L 721.861954 26.171732 
L 722.509553 26.171732 
L 722.509553 25.137916 
L 723.157152 25.137916 
L 723.157152 23.536619 
L 723.804752 23.536619 
L 723.804752 23.970631 
L 724.452351 23.970631 
L 724.452351 24.092066 
L 725.09995 24.092066 
L 725.09995 23.617761 
L 725.74755 23.617761 
L 725.74755 23.207845 
L 726.395149 23.207845 
L 726.395149 23.095895 
L 727.042748 23.095895 
L 727.042748 22.592014 
L 727.690348 22.592014 
L 727.690348 23.000082 
L 728.337947 23.000082 
L 728.337947 24.87207 
L 728.985546 24.87207 
L 728.985546 25.072348 
L 729.633146 25.072348 
L 729.633146 26.104774 
L 730.280745 26.104774 
L 730.280745 25.199129 
L 730.928344 25.199129 
L 730.928344 28.280121 
L 731.575944 28.280121 
L 731.575944 29.020889 
L 732.223543 29.020889 
L 732.223543 29.420212 
L 732.871142 29.420212 
L 732.871142 29.682524 
L 733.518742 29.682524 
L 733.518742 28.469552 
L 734.166341 28.469552 
L 734.166341 27.823934 
L 734.81394 27.823934 
L 734.81394 29.576336 
L 735.46154 29.576336 
L 735.46154 29.166802 
L 736.109139 29.166802 
L 736.109139 31.111175 
L 736.756738 31.111175 
L 736.756738 31.736347 
L 737.404338 31.736347 
L 737.404338 31.121475 
L 738.051937 31.121475 
L 738.051937 31.472283 
L 738.699536 31.472283 
L 738.699536 35.426379 
L 739.347136 35.426379 
L 739.347136 34.408235 
L 739.994735 34.408235 
L 739.994735 33.79617 
L 740.642334 33.79617 
L 740.642334 34.256277 
L 741.289934 34.256277 
L 741.289934 30.768475 
L 741.937533 30.768475 
L 741.937533 31.462533 
L 742.585132 31.462533 
L 742.585132 30.436564 
L 743.232732 30.436564 
L 743.232732 32.620135 
L 743.880331 32.620135 
L 743.880331 34.144482 
L 744.52793 34.144482 
L 744.52793 33.914407 
L 745.17553 33.914407 
L 745.17553 31.43146 
L 745.823129 31.43146 
L 745.823129 33.73354 
L 746.470728 33.73354 
L 746.470728 33.34803 
L 747.118328 33.34803 
L 747.118328 33.037787 
L 747.765927 33.037787 
L 747.765927 31.550863 
L 748.413526 31.550863 
L 748.413526 31.215847 
L 749.061126 31.215847 
L 749.061126 29.374951 
L 749.708725 29.374951 
L 749.708725 29.971416 
L 750.356324 29.971416 
L 750.356324 29.485453 
L 751.003924 29.485453 
L 751.003924 31.522875 
L 751.651523 31.522875 
L 751.651523 32.626826 
L 752.299122 32.626826 
L 752.299122 32.478106 
L 752.946722 32.478106 
L 752.946722 31.973854 
L 753.594321 31.973854 
L 753.594321 32.961044 
L 754.24192 32.961044 
L 754.24192 32.800536 
L 754.88952 32.800536 
L 754.88952 33.472604 
L 755.537119 33.472604 
L 755.537119 34.873045 
L 756.184718 34.873045 
L 756.184718 38.000967 
L 756.832318 38.000967 
L 756.832318 38.636562 
L 757.479917 38.636562 
L 757.479917 39.627515 
L 758.127516 39.627515 
L 758.127516 38.495145 
L 758.775116 38.495145 
L 758.775116 39.257289 
L 759.422715 39.257289 
L 759.422715 37.526995 
L 760.070314 37.526995 
L 760.070314 38.911173 
L 760.717914 38.911173 
L 760.717914 37.924381 
L 761.365513 37.924381 
L 761.365513 39.873978 
L 762.013112 39.873978 
L 762.013112 44.649665 
L 762.660712 44.649665 
L 762.660712 46.599878 
L 763.308311 46.599878 
L 763.308311 46.050059 
L 763.95591 46.050059 
L 763.95591 46.435955 
L 764.60351 46.435955 
L 764.60351 47.980243 
L 765.251109 47.980243 
L 765.251109 46.967585 
L 765.898708 46.967585 
L 765.898708 45.566167 
L 766.546308 45.566167 
L 766.546308 46.924393 
L 767.193907 46.924393 
L 767.193907 46.363444 
L 767.841506 46.363444 
L 767.841506 44.098266 
L 768.489106 44.098266 
L 768.489106 45.840736 
L 769.136705 45.840736 
L 769.136705 43.530647 
L 769.784304 43.530647 
L 769.784304 44.254282 
L 771.079503 44.285731 
L 771.079503 43.38376 
L 771.727102 43.38376 
L 771.727102 43.076611 
L 772.374702 43.076611 
L 772.374702 44.062307 
L 773.022301 44.062307 
L 773.022301 45.740759 
L 773.6699 45.740759 
L 773.6699 46.914451 
L 774.3175 46.914451 
L 774.3175 47.373956 
L 775.612698 47.329769 
L 775.612698 47.922339 
L 776.260298 47.922339 
L 776.260298 45.362094 
L 776.907897 45.362094 
L 776.907897 47.477971 
L 777.555496 47.477971 
L 777.555496 47.640308 
L 778.203096 47.640308 
L 778.203096 47.921797 
L 778.850695 47.921797 
L 778.850695 48.112982 
L 779.498294 48.112982 
L 779.498294 47.884881 
L 780.145894 47.884881 
L 780.145894 46.982202 
L 780.793493 46.982202 
L 780.793493 47.747799 
L 782.088692 47.810791 
L 782.088692 47.633074 
L 782.736291 47.633074 
L 782.736291 48.040465 
L 783.38389 48.040465 
L 783.38389 47.051202 
L 784.03149 47.051202 
L 784.03149 46.321333 
L 784.679089 46.321333 
L 784.679089 46.996498 
L 785.326688 46.996498 
L 785.326688 46.217078 
L 785.974288 46.217078 
L 785.974288 49.885667 
L 786.621887 49.885667 
L 786.621887 51.063386 
L 787.269486 51.063386 
L 787.269486 50.94379 
L 787.917086 50.94379 
L 787.917086 51.564424 
L 788.564685 51.564424 
L 788.564685 51.233407 
L 789.212284 51.233407 
L 789.212284 50.342371 
L 791.802682 50.298325 
L 791.802682 51.000979 
L 792.450281 51.000979 
L 792.450281 50.668424 
L 793.74548 50.750795 
L 793.74548 51.124767 
L 795.040679 51.03099 
L 795.040679 50.7653 
L 795.688278 50.7653 
L 795.688278 50.316296 
L 796.335877 50.316296 
L 796.335877 47.226394 
L 796.983477 47.226394 
L 796.983477 45.993802 
L 797.631076 45.993802 
L 797.631076 44.445333 
L 798.278675 44.445333 
L 798.278675 44.156391 
L 798.926275 44.156391 
L 798.926275 43.562405 
L 799.573874 43.562405 
L 799.573874 43.829116 
L 800.221473 43.829116 
L 800.221473 44.453368 
L 800.869073 44.453368 
L 800.869073 45.512094 
L 801.516672 45.512094 
L 801.516672 44.966002 
L 802.164271 44.966002 
L 802.164271 42.797564 
L 802.811871 42.797564 
L 802.811871 43.187901 
L 803.45947 43.187901 
L 803.45947 43.732546 
L 804.754669 43.817587 
L 804.754669 44.779888 
L 805.402268 44.779888 
L 805.402268 46.923195 
L 806.049867 46.923195 
L 806.049867 42.69145 
L 806.697467 42.69145 
L 806.697467 40.907967 
L 807.345066 40.907967 
L 807.345066 40.653309 
L 807.992665 40.653309 
L 807.992665 40.129493 
L 809.287864 40.104729 
L 809.287864 40.277414 
L 810.583063 40.18498 
L 810.583063 38.525489 
L 811.878261 38.467311 
L 811.878261 39.519585 
L 812.525861 39.519585 
L 812.525861 40.437038 
L 813.17346 40.437038 
L 813.17346 39.053376 
L 813.821059 39.053376 
L 813.821059 40.064841 
L 814.468659 40.064841 
L 814.468659 39.014427 
L 815.116258 39.014427 
L 815.116258 40.399572 
L 815.763857 40.399572 
L 815.763857 41.055163 
L 816.411457 41.055163 
L 816.411457 40.583099 
L 817.059056 40.583099 
L 817.059056 41.078076 
L 817.706655 41.078076 
L 817.706655 41.297218 
L 818.354255 41.297218 
L 818.354255 40.320706 
L 819.001854 40.320706 
L 819.001854 40.69495 
L 820.297053 40.701305 
L 820.297053 41.795701 
L 820.944652 41.795701 
L 820.944652 42.390412 
L 821.592251 42.390412 
L 821.592251 41.408109 
L 822.239851 41.408109 
L 822.239851 38.755567 
L 822.88745 38.755567 
L 822.88745 38.503589 
L 823.535049 38.503589 
L 823.535049 38.362745 
L 824.182649 38.362745 
L 824.182649 38.155842 
L 824.830248 38.155842 
L 824.830248 38.539606 
L 825.477847 38.539606 
L 825.477847 38.417553 
L 826.773046 38.521828 
L 826.773046 38.826535 
L 827.420645 38.826535 
L 827.420645 39.268381 
L 828.715844 39.17005 
L 828.715844 38.909871 
L 829.363443 38.909871 
L 829.363443 39.361935 
L 830.011043 39.361935 
L 830.011043 38.992913 
L 830.658642 38.992913 
L 830.658642 39.193059 
L 831.306241 39.193059 
L 831.306241 41.151986 
L 831.953841 41.151986 
L 831.953841 41.578241 
L 833.249039 41.637478 
L 833.249039 40.330818 
L 833.896639 40.330818 
L 833.896639 41.782562 
L 835.839437 41.811865 
L 835.839437 41.250943 
L 836.487036 41.250943 
L 836.487036 41.072464 
L 837.134635 41.072464 
L 837.134635 41.214896 
L 837.782235 41.214896 
L 837.782235 41.506881 
L 838.429834 41.506881 
L 838.429834 40.911808 
L 839.077433 40.911808 
L 839.077433 40.280923 
L 840.372632 40.176284 
L 840.372632 41.076445 
L 841.020231 41.076445 
L 841.020231 39.747025 
L 841.667831 39.747025 
L 841.667831 38.910582 
L 842.31543 38.910582 
L 842.31543 36.134258 
L 842.963029 36.134258 
L 842.963029 36.018744 
L 843.610629 36.018744 
L 843.610629 35.207738 
L 844.258228 35.207738 
L 844.258228 35.440128 
L 844.905827 35.440128 
L 844.905827 34.480533 
L 845.553427 34.480533 
L 845.553427 34.594042 
L 846.848625 34.521522 
L 846.848625 34.991735 
L 847.496225 34.991735 
L 847.496225 33.861088 
L 848.791423 33.824417 
L 848.791423 32.692634 
L 849.439023 32.692634 
L 849.439023 31.025105 
L 850.086622 31.025105 
L 850.086622 32.043365 
L 850.734221 32.043365 
L 850.734221 31.693616 
L 851.381821 31.693616 
L 851.381821 31.530938 
L 852.02942 31.530938 
L 852.02942 30.812208 
L 852.677019 30.812208 
L 852.677019 30.942276 
L 853.324619 30.942276 
L 853.324619 31.537329 
L 853.972218 31.537329 
L 853.972218 30.599502 
L 854.619817 30.599502 
L 854.619817 29.32425 
L 855.267417 29.32425 
L 855.267417 31.245601 
L 855.915016 31.245601 
L 855.915016 31.105475 
L 856.562615 31.105475 
L 856.562615 31.831184 
L 857.210215 31.831184 
L 857.210215 32.64439 
L 857.857814 32.64439 
L 857.857814 31.645809 
L 858.505413 31.645809 
L 858.505413 31.139999 
L 859.153013 31.139999 
L 859.153013 31.338765 
L 859.800612 31.338765 
L 859.800612 29.252291 
L 860.448211 29.252291 
L 860.448211 28.128912 
L 861.095811 28.128912 
L 861.095811 27.327331 
L 863.038609 27.310201 
L 863.038609 23.807678 
L 863.686208 23.807678 
L 863.686208 21.482129 
L 864.981407 21.503757 
L 864.981407 20.552727 
L 865.629006 20.552727 
L 865.629006 22.442812 
L 866.276605 22.442812 
L 866.276605 21.641716 
L 866.924205 21.641716 
L 866.924205 21.836789 
L 867.571804 21.836789 
L 867.571804 20.768427 
L 868.219403 20.768427 
L 868.219403 21.081703 
L 868.867003 21.081703 
L 868.867003 21.641642 
L 869.514602 21.641642 
L 869.514602 21.250043 
L 870.162201 21.250043 
L 870.162201 22.857526 
L 870.809801 22.857526 
L 870.809801 23.770831 
L 871.4574 23.770831 
L 871.4574 22.556297 
L 872.104999 22.556297 
L 872.104999 22.705874 
L 872.752599 22.705874 
L 872.752599 22.918627 
L 873.400198 22.918627 
L 873.400198 23.230944 
L 874.047797 23.230944 
L 874.047797 23.418396 
L 874.695397 23.418396 
L 874.695397 23.933255 
L 875.342996 23.933255 
L 875.342996 22.145758 
L 876.638195 22.137265 
L 876.638195 21.615555 
L 877.285794 21.615555 
L 877.285794 21.179955 
L 877.933393 21.179955 
L 877.933393 21.756604 
L 878.580993 21.756604 
L 878.580993 20.827976 
L 879.228592 20.827976 
L 879.228592 21.20292 
L 879.876191 21.20292 
L 879.876191 21.524286 
L 880.523791 21.524286 
L 880.523791 22.020731 
L 881.17139 22.020731 
L 881.17139 22.594758 
L 881.818989 22.594758 
L 881.818989 24.114792 
L 883.114188 24.102278 
L 883.114188 23.517489 
L 883.761787 23.517489 
L 883.761787 24.824618 
L 884.409387 24.824618 
L 884.409387 25.012623 
L 885.056986 25.012623 
L 885.056986 23.935873 
L 885.704585 23.935873 
L 885.704585 22.874212 
L 886.352185 22.874212 
L 886.352185 21.721869 
L 886.999784 21.721869 
L 886.999784 22.263472 
L 887.194182 22.263472 
L 887.194182 22.263472 
" clip-path="url(#p1422248d7c)" style="fill: none; stroke: #3572c6; stroke-width: 1.2; stroke-linecap: square"/>
   </g>
   <g id="line2d_76">
    <path d="M 75.557818 20.552727 
L 887.194182 20.552727 
L 887.194182 20.552727 
" clip-path="url(#p1422248d7c)" style="fill: none; stroke: #83a83b; stroke-width: 1.2; stroke-linecap: square"/>
   </g>
   <g id="line2d_77">
    <path d="M 75.557818 25.012623 
L 887.194182 25.012623 
L 887.194182 25.012623 
" clip-path="url(#p1422248d7c)" style="fill: none; stroke: #c44e52; stroke-width: 1.2; stroke-linecap: square"/>
   </g>
   <g id="line2d_78">
    <path d="M 865.629006 300.96 
L 865.629006 7.2 
" clip-path="url(#p1422248d7c)" style="fill: none; stroke: #83a83b; stroke-width: 1.2; stroke-linecap: square"/>
   </g>
   <g id="line2d_79">
    <path d="M 885.056986 300.96 
L 885.056986 7.2 
" clip-path="url(#p1422248d7c)" style="fill: none; stroke: #c44e52; stroke-width: 1.2; stroke-linecap: square"/>
   </g>
   <g id="patch_3">
    <path d="M 34.976 300.96 
L 34.976 7.2 
" style="fill: none; stroke: #899ab8; stroke-width: 1.12; stroke-linejoin: miter; stroke-linecap: square"/>
   </g>
   <g id="patch_4">
    <path d="M 927.776 300.96 
L 927.776 7.2 
" style="fill: none; stroke: #899ab8; stroke-width: 1.12; stroke-linejoin: miter; stroke-linecap: square"/>
   </g>
   <g id="patch_5">
    <path d="M 34.976 300.96 
L 927.776 300.96 
" style="fill: none; stroke: #899ab8; stroke-width: 1.12; stroke-linejoin: miter; stroke-linecap: square"/>
   </g>
   <g id="patch_6">
    <path d="M 34.976 7.2 
L 927.776 7.2 
" style="fill: none; stroke: #899ab8; stroke-width: 1.12; stroke-linejoin: miter; stroke-linecap: square"/>
   </g>
   <g id="text_15">
    <!-- 71489.22 -->
    <g style="fill: #83a83b" transform="translate(193.744697 20.552727) scale(0.132 -0.132)">
     <defs>
      <path id="DejaVuSans-37" d="M 525 4666 
L 3525 4666 
L 3525 4397 
L 1831 0 
L 1172 0 
L 2766 4134 
L 525 4134 
L 525 4666 
z
" transform="scale(0.015625)"/>
      <path id="DejaVuSans-39" d="M 703 97 
L 703 672 
Q 941 559 1184 500 
Q 1428 441 1663 441 
Q 2288 441 2617 861 
Q 2947 1281 2994 2138 
Q 2813 1869 2534 1725 
Q 2256 1581 1919 1581 
Q 1219 1581 811 2004 
Q 403 2428 403 3163 
Q 403 3881 828 4315 
Q 1253 4750 1959 4750 
Q 2769 4750 3195 4129 
Q 3622 3509 3622 2328 
Q 3622 1225 3098 567 
Q 2575 -91 1691 -91 
Q 1453 -91 1209 -44 
Q 966 3 703 97 
z
M 1959 2075 
Q 2384 2075 2632 2365 
Q 2881 2656 2881 3163 
Q 2881 3666 2632 3958 
Q 2384 4250 1959 4250 
Q 1534 4250 1286 3958 
Q 1038 3666 1038 3163 
Q 1038 2656 1286 2365 
Q 1534 2075 1959 2075 
z
" transform="scale(0.015625)"/>
      <path id="DejaVuSans-2e" d="M 684 794 
L 1344 794 
L 1344 0 
L 684 0 
L 684 794 
z
" transform="scale(0.015625)"/>
     </defs>
     <use xlink:href="#DejaVuSans-37"/>
     <use xlink:href="#DejaVuSans-31" x="63.623047"/>
     <use xlink:href="#DejaVuSans-34" x="127.246094"/>
     <use xlink:href="#DejaVuSans-38" x="190.869141"/>
     <use xlink:href="#DejaVuSans-39" x="254.492188"/>
     <use xlink:href="#DejaVuSans-2e" x="318.115234"/>
     <use xlink:href="#DejaVuSans-32" x="349.902344"/>
     <use xlink:href="#DejaVuSans-32" x="413.525391"/>
    </g>
   </g>
   <g id="text_16">
    <!-- 57743.11 -->
    <g style="fill: #c44e52" transform="translate(193.744697 25.012623) scale(0.132 -0.132)">
     <use xlink:href="#DejaVuSans-35"/>
     <use xlink:href="#DejaVuSans-37" x="63.623047"/>
     <use xlink:href="#DejaVuSans-37" x="127.246094"/>
     <use xlink:href="#DejaVuSans-34" x="190.869141"/>
     <use xlink:href="#DejaVuSans-33" x="254.492188"/>
     <use xlink:href="#DejaVuSans-2e" x="318.115234"/>
     <use xlink:href="#DejaVuSans-31" x="349.902344"/>
     <use xlink:href="#DejaVuSans-31" x="413.525391"/>
    </g>
   </g>
   <g id="legend_1">
    <g id="patch_7">
     <path d="M 432.207453 294.66 
L 530.544547 294.66 
Q 533.064547 294.66 533.064547 292.14 
L 533.064547 237.56625 
Q 533.064547 235.04625 530.544547 235.04625 
L 432.207453 235.04625 
Q 429.687453 235.04625 429.687453 237.56625 
L 429.687453 292.14 
Q 429.687453 294.66 432.207453 294.66 
z
" style="fill: #373e4b; opacity: 0.8; stroke: #cccccc; stroke-width: 0.16; stroke-linejoin: miter"/>
    </g>
    <g id="line2d_80">
     <path d="M 434.727453 245.250281 
L 434.727453 245.250281 
L 447.327453 245.250281 
L 447.327453 245.250281 
L 459.927453 245.250281 
" style="fill: none; stroke: #3572c6; stroke-width: 1.2; stroke-linecap: square"/>
    </g>
    <g id="text_17">
     <!-- USD/BTC -->
     <g style="fill: #b1bed6" transform="translate(470.007453 249.660281) scale(0.126 -0.126)">
      <defs>
       <path id="DejaVuSans-55" d="M 556 4666 
L 1191 4666 
L 1191 1831 
Q 1191 1081 1462 751 
Q 1734 422 2344 422 
Q 2950 422 3222 751 
Q 3494 1081 3494 1831 
L 3494 4666 
L 4128 4666 
L 4128 1753 
Q 4128 841 3676 375 
Q 3225 -91 2344 -91 
Q 1459 -91 1007 375 
Q 556 841 556 1753 
L 556 4666 
z
" transform="scale(0.015625)"/>
       <path id="DejaVuSans-53" d="M 3425 4513 
L 3425 3897 
Q 3066 4069 2747 4153 
Q 2428 4238 2131 4238 
Q 1616 4238 1336 4038 
Q 1056 3838 1056 3469 
Q 1056 3159 1242 3001 
Q 1428 2844 1947 2747 
L 2328 2669 
Q 3034 2534 3370 2195 
Q 3706 1856 3706 1288 
Q 3706 609 3251 259 
Q 2797 -91 1919 -91 
Q 1588 -91 1214 -16 
Q 841 59 441 206 
L 441 856 
Q 825 641 1194 531 
Q 1563 422 1919 422 
Q 2459 422 2753 634 
Q 3047 847 3047 1241 
Q 3047 1584 2836 1778 
Q 2625 1972 2144 2069 
L 1759 2144 
Q 1053 2284 737 2584 
Q 422 2884 422 3419 
Q 422 4038 858 4394 
Q 1294 4750 2059 4750 
Q 2388 4750 2728 4690 
Q 3069 4631 3425 4513 
z
" transform="scale(0.015625)"/>
       <path id="DejaVuSans-2f" d="M 1625 4666 
L 2156 4666 
L 531 -594 
L 0 -594 
L 1625 4666 
z
" transform="scale(0.015625)"/>
       <path id="DejaVuSans-42" d="M 1259 2228 
L 1259 519 
L 2272 519 
Q 2781 519 3026 730 
Q 3272 941 3272 1375 
Q 3272 1813 3026 2020 
Q 2781 2228 2272 2228 
L 1259 2228 
z
M 1259 4147 
L 1259 2741 
L 2194 2741 
Q 2656 2741 2882 2914 
Q 3109 3088 3109 3444 
Q 3109 3797 2882 3972 
Q 2656 4147 2194 4147 
L 1259 4147 
z
M 628 4666 
L 2241 4666 
Q 2963 4666 3353 4366 
Q 3744 4066 3744 3513 
Q 3744 3084 3544 2831 
Q 3344 2578 2956 2516 
Q 3422 2416 3680 2098 
Q 3938 1781 3938 1306 
Q 3938 681 3513 340 
Q 3088 0 2303 0 
L 628 0 
L 628 4666 
z
" transform="scale(0.015625)"/>
       <path id="DejaVuSans-54" d="M -19 4666 
L 3928 4666 
L 3928 4134 
L 2272 4134 
L 2272 0 
L 1638 0 
L 1638 4134 
L -19 4134 
L -19 4666 
z
" transform="scale(0.015625)"/>
       <path id="DejaVuSans-43" d="M 4122 4306 
L 4122 3641 
Q 3803 3938 3442 4084 
Q 3081 4231 2675 4231 
Q 1875 4231 1450 3742 
Q 1025 3253 1025 2328 
Q 1025 1406 1450 917 
Q 1875 428 2675 428 
Q 3081 428 3442 575 
Q 3803 722 4122 1019 
L 4122 359 
Q 3791 134 3420 21 
Q 3050 -91 2638 -91 
Q 1578 -91 968 557 
Q 359 1206 359 2328 
Q 359 3453 968 4101 
Q 1578 4750 2638 4750 
Q 3056 4750 3426 4639 
Q 3797 4528 4122 4306 
z
" transform="scale(0.015625)"/>
      </defs>
      <use xlink:href="#DejaVuSans-55"/>
      <use xlink:href="#DejaVuSans-53" x="73.193359"/>
      <use xlink:href="#DejaVuSans-44" x="136.669922"/>
      <use xlink:href="#DejaVuSans-2f" x="213.671875"/>
      <use xlink:href="#DejaVuSans-42" x="247.363281"/>
      <use xlink:href="#DejaVuSans-54" x="315.966797"/>
      <use xlink:href="#DejaVuSans-43" x="371.175781"/>
     </g>
    </g>
    <g id="line2d_81">
     <path d="M 434.727453 263.744719 
L 434.727453 263.744719 
L 447.327453 263.744719 
L 447.327453 263.744719 
L 459.927453 263.744719 
" style="fill: none; stroke: #83a83b; stroke-width: 1.2; stroke-linecap: square"/>
    </g>
    <g id="text_18">
     <!-- Max -->
     <g style="fill: #b1bed6" transform="translate(470.007453 268.154719) scale(0.126 -0.126)">
      <defs>
       <path id="DejaVuSans-4d" d="M 628 4666 
L 1569 4666 
L 2759 1491 
L 3956 4666 
L 4897 4666 
L 4897 0 
L 4281 0 
L 4281 4097 
L 3078 897 
L 2444 897 
L 1241 4097 
L 1241 0 
L 628 0 
L 628 4666 
z
" transform="scale(0.015625)"/>
       <path id="DejaVuSans-78" d="M 3513 3500 
L 2247 1797 
L 3578 0 
L 2900 0 
L 1881 1375 
L 863 0 
L 184 0 
L 1544 1831 
L 300 3500 
L 978 3500 
L 1906 2253 
L 2834 3500 
L 3513 3500 
z
" transform="scale(0.015625)"/>
      </defs>
      <use xlink:href="#DejaVuSans-4d"/>
      <use xlink:href="#DejaVuSans-61" x="86.279297"/>
      <use xlink:href="#DejaVuSans-78" x="147.558594"/>
     </g>
    </g>
    <g id="line2d_82">
     <path d="M 434.727453 282.239156 
L 434.727453 282.239156 
L 447.327453 282.239156 
L 447.327453 282.239156 
L 459.927453 282.239156 
" style="fill: none; stroke: #c44e52; stroke-width: 1.2; stroke-linecap: square"/>
    </g>
    <g id="text_19">
     <!-- local_Min -->
     <g style="fill: #b1bed6" transform="translate(470.007453 286.649156) scale(0.126 -0.126)">
      <defs>
       <path id="DejaVuSans-6c" d="M 603 4863 
L 1178 4863 
L 1178 0 
L 603 0 
L 603 4863 
z
" transform="scale(0.015625)"/>
       <path id="DejaVuSans-6f" d="M 1959 3097 
Q 1497 3097 1228 2736 
Q 959 2375 959 1747 
Q 959 1119 1226 758 
Q 1494 397 1959 397 
Q 2419 397 2687 759 
Q 2956 1122 2956 1747 
Q 2956 2369 2687 2733 
Q 2419 3097 1959 3097 
z
M 1959 3584 
Q 2709 3584 3137 3096 
Q 3566 2609 3566 1747 
Q 3566 888 3137 398 
Q 2709 -91 1959 -91 
Q 1206 -91 779 398 
Q 353 888 353 1747 
Q 353 2609 779 3096 
Q 1206 3584 1959 3584 
z
" transform="scale(0.015625)"/>
       <path id="DejaVuSans-63" d="M 3122 3366 
L 3122 2828 
Q 2878 2963 2633 3030 
Q 2388 3097 2138 3097 
Q 1578 3097 1268 2742 
Q 959 2388 959 1747 
Q 959 1106 1268 751 
Q 1578 397 2138 397 
Q 2388 397 2633 464 
Q 2878 531 3122 666 
L 3122 134 
Q 2881 22 2623 -34 
Q 2366 -91 2075 -91 
Q 1284 -91 818 406 
Q 353 903 353 1747 
Q 353 2603 823 3093 
Q 1294 3584 2113 3584 
Q 2378 3584 2631 3529 
Q 2884 3475 3122 3366 
z
" transform="scale(0.015625)"/>
       <path id="DejaVuSans-5f" d="M 3263 -1063 
L 3263 -1509 
L -63 -1509 
L -63 -1063 
L 3263 -1063 
z
" transform="scale(0.015625)"/>
       <path id="DejaVuSans-69" d="M 603 3500 
L 1178 3500 
L 1178 0 
L 603 0 
L 603 3500 
z
M 603 4863 
L 1178 4863 
L 1178 4134 
L 603 4134 
L 603 4863 
z
" transform="scale(0.015625)"/>
       <path id="DejaVuSans-6e" d="M 3513 2113 
L 3513 0 
L 2938 0 
L 2938 2094 
Q 2938 2591 2744 2837 
Q 2550 3084 2163 3084 
Q 1697 3084 1428 2787 
Q 1159 2491 1159 1978 
L 1159 0 
L 581 0 
L 581 3500 
L 1159 3500 
L 1159 2956 
Q 1366 3272 1645 3428 
Q 1925 3584 2291 3584 
Q 2894 3584 3203 3211 
Q 3513 2838 3513 2113 
z
" transform="scale(0.015625)"/>
      </defs>
      <use xlink:href="#DejaVuSans-6c"/>
      <use xlink:href="#DejaVuSans-6f" x="27.783203"/>
      <use xlink:href="#DejaVuSans-63" x="88.964844"/>
      <use xlink:href="#DejaVuSans-61" x="143.945312"/>
      <use xlink:href="#DejaVuSans-6c" x="205.224609"/>
      <use xlink:href="#DejaVuSans-5f" x="233.007812"/>
      <use xlink:href="#DejaVuSans-4d" x="283.007812"/>
      <use xlink:href="#DejaVuSans-69" x="369.287109"/>
      <use xlink:href="#DejaVuSans-6e" x="397.070312"/>
     </g>
    </g>
   </g>
  </g>
 </g>
 <defs>
  <clipPath id="p1422248d7c">
   <rect x="34.976" y="7.2" width="892.8" height="293.76"/>
  </clipPath>
 </defs>
</svg>
