<?xml version="1.0" encoding="utf-8" standalone="no"?>
<!DOCTYPE svg PUBLIC "-//W3C//DTD SVG 1.1//EN"
  "http://www.w3.org/Graphics/SVG/1.1/DTD/svg11.dtd">
<svg xmlns:xlink="http://www.w3.org/1999/xlink" width="934.976pt" height="358.290693pt" viewBox="0 0 934.976 358.290693" xmlns="http://www.w3.org/2000/svg" version="1.1">
 <metadata>
  <rdf:RDF xmlns:dc="http://purl.org/dc/elements/1.1/" xmlns:cc="http://creativecommons.org/ns#" xmlns:rdf="http://www.w3.org/1999/02/22-rdf-syntax-ns#">
   <cc:Work>
    <dc:type rdf:resource="http://purl.org/dc/dcmitype/StillImage"/>
    <dc:date>2026-04-27T12:10:08.605893</dc:date>
    <dc:format>image/svg+xml</dc:format>
    <dc:creator>
     <cc:Agent>
      <dc:title>Matplotlib v3.10.9, https://matplotlib.org/</dc:title>
     </cc:Agent>
    </dc:creator>
   </cc:Work>
  </rdf:RDF>
 </metadata>
 <defs>
  <style type="text/css">*{stroke-linejoin: round; stroke-linecap: butt}</style>
 </defs>
 <g id="figure_1">
  <g id="patch_1">
   <path d="M 0 358.290693 
L 934.976 358.290693 
L 934.976 0 
L 0 0 
z
" style="fill: #373e4b"/>
  </g>
  <g id="axes_1">
   <g id="patch_2">
    <path d="M 34.976 300.96 
L 927.776 300.96 
L 927.776 7.2 
L 34.976 7.2 
z
" style="fill: #373e4b"/>
   </g>
   <g id="matplotlib.axis_1">
    <g id="xtick_1">
     <g id="line2d_1">
      <path d="M 136.550661 300.96 
L 136.550661 7.2 
" clip-path="url(#pa2f0ae7d16)" style="fill: none; stroke: #546379; stroke-width: 1.12; stroke-linecap: square"/>
     </g>
     <g id="line2d_2"/>
     <g id="text_1">
      <!-- 2012 -->
      <g style="fill: #b1bed6" transform="translate(107.469622 330.884854) rotate(-30) scale(0.126 -0.126)">
       <defs>
        <path id="DejaVuSans-32" d="M 1228 531 
L 3431 531 
L 3431 0 
L 469 0 
L 469 531 
Q 828 903 1448 1529 
Q 2069 2156 2228 2338 
Q 2531 2678 2651 2914 
Q 2772 3150 2772 3378 
Q 2772 3750 2511 3984 
Q 2250 4219 1831 4219 
Q 1534 4219 1204 4116 
Q 875 4013 500 3803 
L 500 4441 
Q 881 4594 1212 4672 
Q 1544 4750 1819 4750 
Q 2544 4750 2975 4387 
Q 3406 4025 3406 3419 
Q 3406 3131 3298 2873 
Q 3191 2616 2906 2266 
Q 2828 2175 2409 1742 
Q 1991 1309 1228 531 
z
" transform="scale(0.015625)"/>
        <path id="DejaVuSans-30" d="M 2034 4250 
Q 1547 4250 1301 3770 
Q 1056 3291 1056 2328 
Q 1056 1369 1301 889 
Q 1547 409 2034 409 
Q 2525 409 2770 889 
Q 3016 1369 3016 2328 
Q 3016 3291 2770 3770 
Q 2525 4250 2034 4250 
z
M 2034 4750 
Q 2819 4750 3233 4129 
Q 3647 3509 3647 2328 
Q 3647 1150 3233 529 
Q 2819 -91 2034 -91 
Q 1250 -91 836 529 
Q 422 1150 422 2328 
Q 422 3509 836 4129 
Q 1250 4750 2034 4750 
z
" transform="scale(0.015625)"/>
        <path id="DejaVuSans-31" d="M 794 531 
L 1825 531 
L 1825 4091 
L 703 3866 
L 703 4441 
L 1819 4666 
L 2450 4666 
L 2450 531 
L 3481 531 
L 3481 0 
L 794 0 
L 794 531 
z
" transform="scale(0.015625)"/>
       </defs>
       <use xlink:href="#DejaVuSans-32"/>
       <use xlink:href="#DejaVuSans-30" transform="translate(63.623047 0)"/>
       <use xlink:href="#DejaVuSans-31" transform="translate(127.246094 0)"/>
       <use xlink:href="#DejaVuSans-32" transform="translate(190.869141 0)"/>
      </g>
     </g>
    </g>
    <g id="xtick_2">
     <g id="line2d_3">
      <path d="M 241.458352 300.96 
L 241.458352 7.2 
" clip-path="url(#pa2f0ae7d16)" style="fill: none; stroke: #546379; stroke-width: 1.12; stroke-linecap: square"/>
     </g>
     <g id="line2d_4"/>
     <g id="text_2">
      <!-- 2014 -->
      <g style="fill: #b1bed6" transform="translate(212.377312 330.884854) rotate(-30) scale(0.126 -0.126)">
       <defs>
        <path id="DejaVuSans-34" d="M 2419 4116 
L 825 1625 
L 2419 1625 
L 2419 4116 
z
M 2253 4666 
L 3047 4666 
L 3047 1625 
L 3713 1625 
L 3713 1100 
L 3047 1100 
L 3047 0 
L 2419 0 
L 2419 1100 
L 313 1100 
L 313 1709 
L 2253 4666 
z
" transform="scale(0.015625)"/>
       </defs>
       <use xlink:href="#DejaVuSans-32"/>
       <use xlink:href="#DejaVuSans-30" transform="translate(63.623047 0)"/>
       <use xlink:href="#DejaVuSans-31" transform="translate(127.246094 0)"/>
       <use xlink:href="#DejaVuSans-34" transform="translate(190.869141 0)"/>
      </g>
     </g>
    </g>
    <g id="xtick_3">
     <g id="line2d_5">
      <path d="M 346.22253 300.96 
L 346.22253 7.2 
" clip-path="url(#pa2f0ae7d16)" style="fill: none; stroke: #546379; stroke-width: 1.12; stroke-linecap: square"/>
     </g>
     <g id="line2d_6"/>
     <g id="text_3">
      <!-- 2016 -->
      <g style="fill: #b1bed6" transform="translate(317.14149 330.884854) rotate(-30) scale(0.126 -0.126)">
       <defs>
        <path id="DejaVuSans-36" d="M 2113 2584 
Q 1688 2584 1439 2293 
Q 1191 2003 1191 1497 
Q 1191 994 1439 701 
Q 1688 409 2113 409 
Q 2538 409 2786 701 
Q 3034 994 3034 1497 
Q 3034 2003 2786 2293 
Q 2538 2584 2113 2584 
z
M 3366 4563 
L 3366 3988 
Q 3128 4100 2886 4159 
Q 2644 4219 2406 4219 
Q 1781 4219 1451 3797 
Q 1122 3375 1075 2522 
Q 1259 2794 1537 2939 
Q 1816 3084 2150 3084 
Q 2853 3084 3261 2657 
Q 3669 2231 3669 1497 
Q 3669 778 3244 343 
Q 2819 -91 2113 -91 
Q 1303 -91 875 529 
Q 447 1150 447 2328 
Q 447 3434 972 4092 
Q 1497 4750 2381 4750 
Q 2619 4750 2861 4703 
Q 3103 4656 3366 4563 
z
" transform="scale(0.015625)"/>
       </defs>
       <use xlink:href="#DejaVuSans-32"/>
       <use xlink:href="#DejaVuSans-30" transform="translate(63.623047 0)"/>
       <use xlink:href="#DejaVuSans-31" transform="translate(127.246094 0)"/>
       <use xlink:href="#DejaVuSans-36" transform="translate(190.869141 0)"/>
      </g>
     </g>
    </g>
    <g id="xtick_4">
     <g id="line2d_7">
      <path d="M 451.13022 300.96 
L 451.13022 7.2 
" clip-path="url(#pa2f0ae7d16)" style="fill: none; stroke: #546379; stroke-width: 1.12; stroke-linecap: square"/>
     </g>
     <g id="line2d_8"/>
     <g id="text_4">
      <!-- 2018 -->
      <g style="fill: #b1bed6" transform="translate(422.04918 330.884854) rotate(-30) scale(0.126 -0.126)">
       <defs>
        <path id="DejaVuSans-38" d="M 2034 2216 
Q 1584 2216 1326 1975 
Q 1069 1734 1069 1313 
Q 1069 891 1326 650 
Q 1584 409 2034 409 
Q 2484 409 2743 651 
Q 3003 894 3003 1313 
Q 3003 1734 2745 1975 
Q 2488 2216 2034 2216 
z
M 1403 2484 
Q 997 2584 770 2862 
Q 544 3141 544 3541 
Q 544 4100 942 4425 
Q 1341 4750 2034 4750 
Q 2731 4750 3128 4425 
Q 3525 4100 3525 3541 
Q 3525 3141 3298 2862 
Q 3072 2584 2669 2484 
Q 3125 2378 3379 2068 
Q 3634 1759 3634 1313 
Q 3634 634 3220 271 
Q 2806 -91 2034 -91 
Q 1263 -91 848 271 
Q 434 634 434 1313 
Q 434 1759 690 2068 
Q 947 2378 1403 2484 
z
M 1172 3481 
Q 1172 3119 1398 2916 
Q 1625 2713 2034 2713 
Q 2441 2713 2670 2916 
Q 2900 3119 2900 3481 
Q 2900 3844 2670 4047 
Q 2441 4250 2034 4250 
Q 1625 4250 1398 4047 
Q 1172 3844 1172 3481 
z
" transform="scale(0.015625)"/>
       </defs>
       <use xlink:href="#DejaVuSans-32"/>
       <use xlink:href="#DejaVuSans-30" transform="translate(63.623047 0)"/>
       <use xlink:href="#DejaVuSans-31" transform="translate(127.246094 0)"/>
       <use xlink:href="#DejaVuSans-38" transform="translate(190.869141 0)"/>
      </g>
     </g>
    </g>
    <g id="xtick_5">
     <g id="line2d_9">
      <path d="M 555.894398 300.96 
L 555.894398 7.2 
" clip-path="url(#pa2f0ae7d16)" style="fill: none; stroke: #546379; stroke-width: 1.12; stroke-linecap: square"/>
     </g>
     <g id="line2d_10"/>
     <g id="text_5">
      <!-- 2020 -->
      <g style="fill: #b1bed6" transform="translate(526.813358 330.884854) rotate(-30) scale(0.126 -0.126)">
       <use xlink:href="#DejaVuSans-32"/>
       <use xlink:href="#DejaVuSans-30" transform="translate(63.623047 0)"/>
       <use xlink:href="#DejaVuSans-32" transform="translate(127.246094 0)"/>
       <use xlink:href="#DejaVuSans-30" transform="translate(190.869141 0)"/>
      </g>
     </g>
    </g>
    <g id="xtick_6">
     <g id="line2d_11">
      <path d="M 660.802088 300.96 
L 660.802088 7.2 
" clip-path="url(#pa2f0ae7d16)" style="fill: none; stroke: #546379; stroke-width: 1.12; stroke-linecap: square"/>
     </g>
     <g id="line2d_12"/>
     <g id="text_6">
      <!-- 2022 -->
      <g style="fill: #b1bed6" transform="translate(631.721049 330.884854) rotate(-30) scale(0.126 -0.126)">
       <use xlink:href="#DejaVuSans-32"/>
       <use xlink:href="#DejaVuSans-30" transform="translate(63.623047 0)"/>
       <use xlink:href="#DejaVuSans-32" transform="translate(127.246094 0)"/>
       <use xlink:href="#DejaVuSans-32" transform="translate(190.869141 0)"/>
      </g>
     </g>
    </g>
    <g id="xtick_7">
     <g id="line2d_13">
      <path d="M 765.566266 300.96 
L 765.566266 7.2 
" clip-path="url(#pa2f0ae7d16)" style="fill: none; stroke: #546379; stroke-width: 1.12; stroke-linecap: square"/>
     </g>
     <g id="line2d_14"/>
     <g id="text_7">
      <!-- 2024 -->
      <g style="fill: #b1bed6" transform="translate(736.485226 330.884854) rotate(-30) scale(0.126 -0.126)">
       <use xlink:href="#DejaVuSans-32"/>
       <use xlink:href="#DejaVuSans-30" transform="translate(63.623047 0)"/>
       <use xlink:href="#DejaVuSans-32" transform="translate(127.246094 0)"/>
       <use xlink:href="#DejaVuSans-34" transform="translate(190.869141 0)"/>
      </g>
     </g>
    </g>
    <g id="xtick_8">
     <g id="line2d_15">
      <path d="M 870.473957 300.96 
L 870.473957 7.2 
" clip-path="url(#pa2f0ae7d16)" style="fill: none; stroke: #546379; stroke-width: 1.12; stroke-linecap: square"/>
     </g>
     <g id="line2d_16"/>
     <g id="text_8">
      <!-- 2026 -->
      <g style="fill: #b1bed6" transform="translate(841.392917 330.884854) rotate(-30) scale(0.126 -0.126)">
       <use xlink:href="#DejaVuSans-32"/>
       <use xlink:href="#DejaVuSans-30" transform="translate(63.623047 0)"/>
       <use xlink:href="#DejaVuSans-32" transform="translate(127.246094 0)"/>
       <use xlink:href="#DejaVuSans-36" transform="translate(190.869141 0)"/>
      </g>
     </g>
    </g>
    <g id="text_9">
     <!-- Date -->
     <g style="fill: #b1bed6" transform="translate(464.166875 348.095943) scale(0.144 -0.144)">
      <defs>
       <path id="DejaVuSans-44" d="M 1259 4147 
L 1259 519 
L 2022 519 
Q 2988 519 3436 956 
Q 3884 1394 3884 2338 
Q 3884 3275 3436 3711 
Q 2988 4147 2022 4147 
L 1259 4147 
z
M 628 4666 
L 1925 4666 
Q 3281 4666 3915 4102 
Q 4550 3538 4550 2338 
Q 4550 1131 3912 565 
Q 3275 0 1925 0 
L 628 0 
L 628 4666 
z
" transform="scale(0.015625)"/>
       <path id="DejaVuSans-61" d="M 2194 1759 
Q 1497 1759 1228 1600 
Q 959 1441 959 1056 
Q 959 750 1161 570 
Q 1363 391 1709 391 
Q 2188 391 2477 730 
Q 2766 1069 2766 1631 
L 2766 1759 
L 2194 1759 
z
M 3341 1997 
L 3341 0 
L 2766 0 
L 2766 531 
Q 2569 213 2275 61 
Q 1981 -91 1556 -91 
Q 1019 -91 701 211 
Q 384 513 384 1019 
Q 384 1609 779 1909 
Q 1175 2209 1959 2209 
L 2766 2209 
L 2766 2266 
Q 2766 2663 2505 2880 
Q 2244 3097 1772 3097 
Q 1472 3097 1187 3025 
Q 903 2953 641 2809 
L 641 3341 
Q 956 3463 1253 3523 
Q 1550 3584 1831 3584 
Q 2591 3584 2966 3190 
Q 3341 2797 3341 1997 
z
" transform="scale(0.015625)"/>
       <path id="DejaVuSans-74" d="M 1172 4494 
L 1172 3500 
L 2356 3500 
L 2356 3053 
L 1172 3053 
L 1172 1153 
Q 1172 725 1289 603 
Q 1406 481 1766 481 
L 2356 481 
L 2356 0 
L 1766 0 
Q 1100 0 847 248 
Q 594 497 594 1153 
L 594 3053 
L 172 3053 
L 172 3500 
L 594 3500 
L 594 4494 
L 1172 4494 
z
" transform="scale(0.015625)"/>
       <path id="DejaVuSans-65" d="M 3597 1894 
L 3597 1613 
L 953 1613 
Q 991 1019 1311 708 
Q 1631 397 2203 397 
Q 2534 397 2845 478 
Q 3156 559 3463 722 
L 3463 178 
Q 3153 47 2828 -22 
Q 2503 -91 2169 -91 
Q 1331 -91 842 396 
Q 353 884 353 1716 
Q 353 2575 817 3079 
Q 1281 3584 2069 3584 
Q 2775 3584 3186 3129 
Q 3597 2675 3597 1894 
z
M 3022 2063 
Q 3016 2534 2758 2815 
Q 2500 3097 2075 3097 
Q 1594 3097 1305 2825 
Q 1016 2553 972 2059 
L 3022 2063 
z
" transform="scale(0.015625)"/>
      </defs>
      <use xlink:href="#DejaVuSans-44"/>
      <use xlink:href="#DejaVuSans-61" transform="translate(77.001953 0)"/>
      <use xlink:href="#DejaVuSans-74" transform="translate(138.28125 0)"/>
      <use xlink:href="#DejaVuSans-65" transform="translate(177.490234 0)"/>
     </g>
    </g>
   </g>
   <g id="matplotlib.axis_2">
    <g id="ytick_1">
     <g id="line2d_17">
      <path d="M 34.976 255.37232 
L 927.776 255.37232 
" clip-path="url(#pa2f0ae7d16)" style="fill: none; stroke: #546379; stroke-width: 1.12; stroke-linecap: square"/>
     </g>
     <g id="line2d_18"/>
     <g id="text_10">
      <!-- $\mathdefault{10^{0}}$ -->
      <g style="fill: #b1bed6" transform="translate(7.2 260.159335) scale(0.126 -0.126)">
       <use xlink:href="#DejaVuSans-31" transform="translate(0 0.765625)"/>
       <use xlink:href="#DejaVuSans-30" transform="translate(63.623047 0.765625)"/>
       <use xlink:href="#DejaVuSans-30" transform="translate(128.203125 39.046875) scale(0.7)"/>
      </g>
     </g>
    </g>
    <g id="ytick_2">
     <g id="line2d_19">
      <path d="M 34.976 209.254528 
L 927.776 209.254528 
" clip-path="url(#pa2f0ae7d16)" style="fill: none; stroke: #546379; stroke-width: 1.12; stroke-linecap: square"/>
     </g>
     <g id="line2d_20"/>
     <g id="text_11">
      <!-- $\mathdefault{10^{1}}$ -->
      <g style="fill: #b1bed6" transform="translate(7.2 214.041544) scale(0.126 -0.126)">
       <use xlink:href="#DejaVuSans-31" transform="translate(0 0.684375)"/>
       <use xlink:href="#DejaVuSans-30" transform="translate(63.623047 0.684375)"/>
       <use xlink:href="#DejaVuSans-31" transform="translate(128.203125 38.965625) scale(0.7)"/>
      </g>
     </g>
    </g>
    <g id="ytick_3">
     <g id="line2d_21">
      <path d="M 34.976 163.136737 
L 927.776 163.136737 
" clip-path="url(#pa2f0ae7d16)" style="fill: none; stroke: #546379; stroke-width: 1.12; stroke-linecap: square"/>
     </g>
     <g id="line2d_22"/>
     <g id="text_12">
      <!-- $\mathdefault{10^{2}}$ -->
      <g style="fill: #b1bed6" transform="translate(7.2 167.923752) scale(0.126 -0.126)">
       <use xlink:href="#DejaVuSans-31" transform="translate(0 0.765625)"/>
       <use xlink:href="#DejaVuSans-30" transform="translate(63.623047 0.765625)"/>
       <use xlink:href="#DejaVuSans-32" transform="translate(128.203125 39.046875) scale(0.7)"/>
      </g>
     </g>
    </g>
    <g id="ytick_4">
     <g id="line2d_23">
      <path d="M 34.976 117.018945 
L 927.776 117.018945 
" clip-path="url(#pa2f0ae7d16)" style="fill: none; stroke: #546379; stroke-width: 1.12; stroke-linecap: square"/>
     </g>
     <g id="line2d_24"/>
     <g id="text_13">
      <!-- $\mathdefault{10^{3}}$ -->
      <g style="fill: #b1bed6" transform="translate(7.2 121.805961) scale(0.126 -0.126)">
       <defs>
        <path id="DejaVuSans-33" d="M 2597 2516 
Q 3050 2419 3304 2112 
Q 3559 1806 3559 1356 
Q 3559 666 3084 287 
Q 2609 -91 1734 -91 
Q 1441 -91 1130 -33 
Q 819 25 488 141 
L 488 750 
Q 750 597 1062 519 
Q 1375 441 1716 441 
Q 2309 441 2620 675 
Q 2931 909 2931 1356 
Q 2931 1769 2642 2001 
Q 2353 2234 1838 2234 
L 1294 2234 
L 1294 2753 
L 1863 2753 
Q 2328 2753 2575 2939 
Q 2822 3125 2822 3475 
Q 2822 3834 2567 4026 
Q 2313 4219 1838 4219 
Q 1578 4219 1281 4162 
Q 984 4106 628 3988 
L 628 4550 
Q 988 4650 1302 4700 
Q 1616 4750 1894 4750 
Q 2613 4750 3031 4423 
Q 3450 4097 3450 3541 
Q 3450 3153 3228 2886 
Q 3006 2619 2597 2516 
z
" transform="scale(0.015625)"/>
       </defs>
       <use xlink:href="#DejaVuSans-31" transform="translate(0 0.765625)"/>
       <use xlink:href="#DejaVuSans-30" transform="translate(63.623047 0.765625)"/>
       <use xlink:href="#DejaVuSans-33" transform="translate(128.203125 39.046875) scale(0.7)"/>
      </g>
     </g>
    </g>
    <g id="ytick_5">
     <g id="line2d_25">
      <path d="M 34.976 70.901154 
L 927.776 70.901154 
" clip-path="url(#pa2f0ae7d16)" style="fill: none; stroke: #546379; stroke-width: 1.12; stroke-linecap: square"/>
     </g>
     <g id="line2d_26"/>
     <g id="text_14">
      <!-- $\mathdefault{10^{4}}$ -->
      <g style="fill: #b1bed6" transform="translate(7.2 75.688169) scale(0.126 -0.126)">
       <use xlink:href="#DejaVuSans-31" transform="translate(0 0.684375)"/>
       <use xlink:href="#DejaVuSans-30" transform="translate(63.623047 0.684375)"/>
       <use xlink:href="#DejaVuSans-34" transform="translate(128.203125 38.965625) scale(0.7)"/>
      </g>
     </g>
    </g>
    <g id="ytick_6">
     <g id="line2d_27">
      <path d="M 34.976 24.783362 
L 927.776 24.783362 
" clip-path="url(#pa2f0ae7d16)" style="fill: none; stroke: #546379; stroke-width: 1.12; stroke-linecap: square"/>
     </g>
     <g id="line2d_28"/>
     <g id="text_15">
      <!-- $\mathdefault{10^{5}}$ -->
      <g style="fill: #b1bed6" transform="translate(7.2 29.570378) scale(0.126 -0.126)">
       <defs>
        <path id="DejaVuSans-35" d="M 691 4666 
L 3169 4666 
L 3169 4134 
L 1269 4134 
L 1269 2991 
Q 1406 3038 1543 3061 
Q 1681 3084 1819 3084 
Q 2600 3084 3056 2656 
Q 3513 2228 3513 1497 
Q 3513 744 3044 326 
Q 2575 -91 1722 -91 
Q 1428 -91 1123 -41 
Q 819 9 494 109 
L 494 744 
Q 775 591 1075 516 
Q 1375 441 1709 441 
Q 2250 441 2565 725 
Q 2881 1009 2881 1497 
Q 2881 1984 2565 2268 
Q 2250 2553 1709 2553 
Q 1456 2553 1204 2497 
Q 953 2441 691 2322 
L 691 4666 
z
" transform="scale(0.015625)"/>
       </defs>
       <use xlink:href="#DejaVuSans-31" transform="translate(0 0.684375)"/>
       <use xlink:href="#DejaVuSans-30" transform="translate(63.623047 0.684375)"/>
       <use xlink:href="#DejaVuSans-35" transform="translate(128.203125 38.965625) scale(0.7)"/>
      </g>
     </g>
    </g>
    <g id="ytick_7">
     <g id="line2d_29"/>
    </g>
    <g id="ytick_8">
     <g id="line2d_30"/>
    </g>
    <g id="ytick_9">
     <g id="line2d_31"/>
    </g>
    <g id="ytick_10">
     <g id="line2d_32"/>
    </g>
    <g id="ytick_11">
     <g id="line2d_33"/>
    </g>
    <g id="ytick_12">
     <g id="line2d_34"/>
    </g>
    <g id="ytick_13">
     <g id="line2d_35"/>
    </g>
    <g id="ytick_14">
     <g id="line2d_36"/>
    </g>
    <g id="ytick_15">
     <g id="line2d_37"/>
    </g>
    <g id="ytick_16">
     <g id="line2d_38"/>
    </g>
    <g id="ytick_17">
     <g id="line2d_39"/>
    </g>
    <g id="ytick_18">
     <g id="line2d_40"/>
    </g>
    <g id="ytick_19">
     <g id="line2d_41"/>
    </g>
    <g id="ytick_20">
     <g id="line2d_42"/>
    </g>
    <g id="ytick_21">
     <g id="line2d_43"/>
    </g>
    <g id="ytick_22">
     <g id="line2d_44"/>
    </g>
    <g id="ytick_23">
     <g id="line2d_45"/>
    </g>
    <g id="ytick_24">
     <g id="line2d_46"/>
    </g>
    <g id="ytick_25">
     <g id="line2d_47"/>
    </g>
    <g id="ytick_26">
     <g id="line2d_48"/>
    </g>
    <g id="ytick_27">
     <g id="line2d_49"/>
    </g>
    <g id="ytick_28">
     <g id="line2d_50"/>
    </g>
    <g id="ytick_29">
     <g id="line2d_51"/>
    </g>
    <g id="ytick_30">
     <g id="line2d_52"/>
    </g>
    <g id="ytick_31">
     <g id="line2d_53"/>
    </g>
    <g id="ytick_32">
     <g id="line2d_54"/>
    </g>
    <g id="ytick_33">
     <g id="line2d_55"/>
    </g>
    <g id="ytick_34">
     <g id="line2d_56"/>
    </g>
    <g id="ytick_35">
     <g id="line2d_57"/>
    </g>
    <g id="ytick_36">
     <g id="line2d_58"/>
    </g>
    <g id="ytick_37">
     <g id="line2d_59"/>
    </g>
    <g id="ytick_38">
     <g id="line2d_60"/>
    </g>
    <g id="ytick_39">
     <g id="line2d_61"/>
    </g>
    <g id="ytick_40">
     <g id="line2d_62"/>
    </g>
    <g id="ytick_41">
     <g id="line2d_63"/>
    </g>
    <g id="ytick_42">
     <g id="line2d_64"/>
    </g>
    <g id="ytick_43">
     <g id="line2d_65"/>
    </g>
    <g id="ytick_44">
     <g id="line2d_66"/>
    </g>
    <g id="ytick_45">
     <g id="line2d_67"/>
    </g>
    <g id="ytick_46">
     <g id="line2d_68"/>
    </g>
    <g id="ytick_47">
     <g id="line2d_69"/>
    </g>
    <g id="ytick_48">
     <g id="line2d_70"/>
    </g>
    <g id="ytick_49">
     <g id="line2d_71"/>
    </g>
    <g id="ytick_50">
     <g id="line2d_72"/>
    </g>
    <g id="ytick_51">
     <g id="line2d_73"/>
    </g>
    <g id="ytick_52">
     <g id="line2d_74"/>
    </g>
    <g id="ytick_53">
     <g id="line2d_75"/>
    </g>
    <g id="ytick_54">
     <g id="line2d_76"/>
    </g>
    <g id="ytick_55">
     <g id="line2d_77"/>
    </g>
   </g>
   <g id="line2d_78">
    <path d="M 75.557818 287.607273 
L 75.557818 283.137997 
L 76.131868 283.137997 
L 76.131868 278.19371 
L 76.705919 278.19371 
L 76.705919 279.486333 
L 77.279969 279.486333 
L 77.279969 280.86817 
L 77.854019 280.86817 
L 77.854019 280.165337 
L 78.42807 280.165337 
L 78.42807 280.86817 
L 79.57617 280.86817 
L 79.57617 282.352457 
L 80.15022 282.352457 
L 80.15022 284.808022 
L 81.298321 284.808022 
L 81.298321 283.137997 
L 81.872371 283.137997 
L 81.872371 282.352457 
L 82.446422 282.352457 
L 82.446422 283.137997 
L 83.020472 283.137997 
L 83.020472 281.596567 
L 83.594522 281.596567 
L 83.594522 279.486333 
L 84.742623 279.486333 
L 84.742623 278.19371 
L 85.316673 278.19371 
L 85.316673 275.834669 
L 85.890723 275.834669 
L 85.890723 273.724434 
L 86.464774 273.724434 
L 86.464774 274.751772 
L 87.038824 274.751772 
L 87.038824 271.815495 
L 87.612874 271.815495 
L 87.612874 271.365393 
L 88.186925 271.365393 
L 88.186925 257.042345 
L 89.335025 257.042345 
L 89.335025 255.982378 
L 89.909075 255.982378 
L 89.909075 253.83089 
L 90.483126 253.83089 
L 90.483126 254.395116 
L 91.057176 254.395116 
L 91.057176 257.932656 
L 91.631226 257.932656 
L 91.631226 255.37232 
L 92.205277 255.37232 
L 92.205277 255.982378 
L 92.779327 255.982378 
L 92.779327 257.042345 
L 93.353377 257.042345 
L 93.353377 257.932656 
L 93.927427 257.932656 
L 93.927427 257.26124 
L 94.501478 257.26124 
L 94.501478 258.161558 
L 95.075528 258.161558 
L 95.075528 260.093532 
L 95.649578 260.093532 
L 95.649578 257.706341 
L 96.223629 257.706341 
L 96.223629 259.841596 
L 97.371729 259.841596 
L 97.371729 261.134218 
L 97.945779 261.134218 
L 97.945779 260.868934 
L 98.51983 260.868934 
L 98.51983 255.776954 
L 99.09388 255.776954 
L 99.09388 251.720656 
L 99.66793 251.720656 
L 99.66793 248.921405 
L 100.241981 248.921405 
L 100.241981 243.823502 
L 100.816031 243.823502 
L 100.816031 226.917627 
L 101.390081 226.917627 
L 101.390081 229.940664 
L 101.964131 229.940664 
L 101.964131 228.062436 
L 102.538182 228.062436 
L 102.538182 217.729074 
L 103.112232 217.729074 
L 103.112232 212.580386 
L 103.686282 212.580386 
L 103.686282 216.455571 
L 104.260333 216.455571 
L 104.260333 215.640255 
L 104.834383 215.640255 
L 104.834383 212.089863 
L 105.408433 212.089863 
L 105.408433 209.926627 
L 105.982484 209.926627 
L 105.982484 196.34639 
L 106.556534 196.34639 
L 106.556534 185.746445 
L 107.130584 185.746445 
L 107.130584 192.005794 
L 107.704634 192.005794 
L 107.704634 196.536537 
L 108.278685 196.536537 
L 108.278685 200.619497 
L 108.852735 200.619497 
L 108.852735 197.954799 
L 109.426785 197.954799 
L 109.426785 198.218565 
L 110.000836 198.218565 
L 110.000836 200.169105 
L 110.574886 200.169105 
L 110.574886 199.716176 
L 111.148936 199.716176 
L 111.148936 201.040338 
L 111.722986 201.040338 
L 111.722986 202.160926 
L 112.297037 202.160926 
L 112.297037 201.757417 
L 112.871087 201.757417 
L 112.871087 202.615821 
L 113.445137 202.615821 
L 113.445137 202.372872 
L 114.019188 202.372872 
L 114.019188 201.702393 
L 114.593238 201.702393 
L 114.593238 206.455278 
L 115.167288 206.455278 
L 115.167288 209.94735 
L 115.741338 209.94735 
L 115.741338 209.395222 
L 116.315389 209.395222 
L 116.315389 206.700602 
L 116.889439 206.700602 
L 116.889439 206.024537 
L 117.463489 206.024537 
L 117.463489 206.806668 
L 118.03754 206.806668 
L 118.03754 210.324077 
L 118.61159 210.324077 
L 118.61159 212.604047 
L 119.18564 212.604047 
L 119.18564 213.058992 
L 119.75969 213.058992 
L 119.75969 217.097011 
L 120.333741 217.097011 
L 120.333741 218.861295 
L 120.907791 218.861295 
L 120.907791 223.057412 
L 121.481841 223.057412 
L 121.481841 218.893678 
L 122.055892 218.893678 
L 122.055892 221.264877 
L 122.629942 221.264877 
L 122.629942 223.379165 
L 123.203992 223.379165 
L 123.203992 222.898453 
L 123.778042 222.898453 
L 123.778042 223.996748 
L 124.352093 223.996748 
L 124.352093 226.821103 
L 124.926143 226.821103 
L 124.926143 227.556633 
L 125.500193 227.556633 
L 125.500193 236.311847 
L 126.074244 236.311847 
L 126.074244 231.338582 
L 126.648294 231.338582 
L 126.648294 232.711804 
L 127.222344 232.711804 
L 127.222344 230.97985 
L 127.796395 230.97985 
L 127.796395 231.951129 
L 128.370445 231.951129 
L 128.370445 232.138606 
L 128.944495 232.138606 
L 128.944495 232.647299 
L 129.518545 232.647299 
L 129.518545 236.234665 
L 130.092596 236.234665 
L 130.092596 237.424839 
L 130.666646 237.424839 
L 130.666646 237.181079 
L 131.240696 237.181079 
L 131.240696 235.928878 
L 131.814747 235.928878 
L 131.814747 232.455022 
L 132.388797 232.455022 
L 132.388797 232.97192 
L 132.962847 232.97192 
L 132.962847 232.583001 
L 133.536897 232.583001 
L 133.536897 231.703858 
L 134.110948 231.703858 
L 134.110948 231.098715 
L 134.684998 231.098715 
L 134.684998 227.707037 
L 135.259048 227.707037 
L 135.259048 226.39241 
L 135.833099 226.39241 
L 135.833099 225.381573 
L 136.407149 225.381573 
L 136.407149 221.707518 
L 136.981199 221.707518 
L 136.981199 216.227322 
L 137.555249 216.227322 
L 137.555249 216.114165 
L 138.1293 216.114165 
L 138.1293 216.284141 
L 138.70335 216.284141 
L 138.70335 218.287185 
L 139.2774 218.287185 
L 139.2774 217.975205 
L 139.851451 217.975205 
L 139.851451 220.513041 
L 140.425501 220.513041 
L 140.425501 220.689506 
L 140.999551 220.689506 
L 140.999551 219.519112 
L 141.573601 219.519112 
L 141.573601 220.027052 
L 142.721702 220.095761 
L 142.721702 224.206915 
L 143.295752 224.206915 
L 143.295752 225.247601 
L 143.869803 225.247601 
L 143.869803 222.467712 
L 144.443853 222.467712 
L 144.443853 223.217642 
L 145.017903 223.217642 
L 145.017903 223.913295 
L 145.591953 223.913295 
L 145.591953 222.938075 
L 146.166004 222.938075 
L 146.166004 223.217642 
L 146.740054 223.217642 
L 146.740054 221.448123 
L 147.314104 221.448123 
L 147.314104 222.236609 
L 147.888155 222.236609 
L 147.888155 223.913295 
L 148.462205 223.913295 
L 148.462205 224.080551 
L 149.036255 224.080551 
L 149.036255 223.379165 
L 150.184356 223.298241 
L 150.184356 223.954978 
L 150.758406 223.954978 
L 150.758406 223.257901 
L 151.906507 223.177464 
L 151.906507 222.198349 
L 152.480557 222.198349 
L 152.480557 222.390381 
L 153.054607 222.390381 
L 153.054607 222.780056 
L 153.628658 222.780056 
L 153.628658 222.429009 
L 154.202708 222.429009 
L 154.202708 222.740746 
L 155.350808 222.740746 
L 155.350808 222.938075 
L 155.924859 222.938075 
L 155.924859 222.623275 
L 157.64701 222.545342 
L 157.64701 222.429009 
L 158.22106 222.429009 
L 158.22106 222.084008 
L 158.79511 222.084008 
L 158.79511 221.011116 
L 159.943211 220.939199 
L 159.943211 218.604102 
L 160.517261 218.604102 
L 160.517261 217.698519 
L 161.091311 217.698519 
L 161.091311 217.455744 
L 161.665362 217.455744 
L 161.665362 217.637549 
L 162.239412 217.637549 
L 162.239412 217.245703 
L 162.813462 217.245703 
L 162.813462 217.097011 
L 163.387512 217.097011 
L 163.387512 216.455571 
L 163.961563 216.455571 
L 163.961563 214.102908 
L 164.535613 214.102908 
L 164.535613 210.345215 
L 165.109663 210.345215 
L 165.109663 210.218718 
L 165.683714 210.218718 
L 165.683714 211.814865 
L 166.257764 211.814865 
L 166.257764 211.476343 
L 166.831814 211.476343 
L 166.831814 209.015614 
L 167.405864 209.015614 
L 167.405864 206.931125 
L 167.979915 206.931125 
L 167.979915 206.281868 
L 168.553965 206.281868 
L 168.553965 205.108303 
L 169.128015 205.108303 
L 169.128015 201.840237 
L 169.702066 201.840237 
L 169.702066 208.740437 
L 170.276116 208.740437 
L 170.276116 207.363805 
L 170.850166 207.363805 
L 170.850166 207.510134 
L 171.424217 207.510134 
L 171.424217 208.239211 
L 171.998267 208.239211 
L 171.998267 206.859912 
L 173.146367 206.913298 
L 173.146367 205.87171 
L 173.720418 205.87171 
L 173.720418 204.57803 
L 174.294468 204.57803 
L 174.294468 205.140897 
L 174.868518 205.140897 
L 174.868518 204.849447 
L 175.442569 204.849447 
L 175.442569 204.657477 
L 176.016619 204.657477 
L 176.016619 204.045986 
L 176.590669 204.045986 
L 176.590669 205.108303 
L 177.164719 205.108303 
L 177.164719 205.43665 
L 177.73877 205.43665 
L 177.73877 205.636273 
L 178.31282 205.636273 
L 178.31282 205.939489 
L 178.88687 205.939489 
L 178.88687 206.351052 
L 179.460921 206.351052 
L 179.460921 207.473452 
L 180.034971 207.473452 
L 180.034971 207.236638 
L 180.609021 207.236638 
L 180.609021 207.400287 
L 181.757122 207.436836 
L 181.757122 207.218538 
L 182.331172 207.218538 
L 182.331172 205.905571 
L 182.905222 205.905571 
L 182.905222 205.075763 
L 183.479273 205.075763 
L 183.479273 204.593894 
L 184.627373 204.530512 
L 184.627373 203.86153 
L 185.201423 203.86153 
L 185.201423 203.169779 
L 185.775474 203.169779 
L 185.775474 202.803614 
L 186.349524 202.803614 
L 186.349524 203.051876 
L 187.497625 202.949278 
L 187.497625 203.318141 
L 188.071675 203.318141 
L 188.071675 203.022509 
L 188.645725 203.022509 
L 188.645725 203.214173 
L 189.793826 203.184566 
L 189.793826 202.529737 
L 190.367876 202.529737 
L 190.367876 202.076772 
L 190.941926 202.076772 
L 190.941926 200.438123 
L 191.515977 200.438123 
L 191.515977 198.474155 
L 192.090027 198.474155 
L 192.090027 196.8899 
L 192.664077 196.8899 
L 192.664077 195.593226 
L 193.238128 195.593226 
L 193.238128 194.394486 
L 193.812178 194.394486 
L 193.812178 193.895273 
L 194.386228 193.895273 
L 194.386228 191.745077 
L 194.960278 191.745077 
L 194.960278 189.21317 
L 195.534329 189.21317 
L 195.534329 189.375826 
L 196.108379 189.375826 
L 196.108379 186.90656 
L 196.682429 186.90656 
L 196.682429 186.46521 
L 197.25648 186.46521 
L 197.25648 184.597163 
L 197.83053 184.597163 
L 197.83053 180.511647 
L 198.40458 180.511647 
L 198.40458 178.864525 
L 198.97863 178.864525 
L 198.97863 178.318608 
L 199.552681 178.318608 
L 199.552681 176.187869 
L 200.126731 176.187869 
L 200.126731 170.209069 
L 200.700781 170.209069 
L 200.700781 167.911261 
L 201.274832 167.911261 
L 201.274832 164.698205 
L 201.848882 164.698205 
L 201.848882 157.728444 
L 202.422932 157.728444 
L 202.422932 153.314284 
L 202.996982 153.314284 
L 202.996982 158.68349 
L 203.571033 158.68349 
L 203.571033 170.831623 
L 204.145083 170.831623 
L 204.145083 159.666147 
L 204.719133 159.666147 
L 204.719133 156.043135 
L 205.293184 156.043135 
L 205.293184 158.114365 
L 205.867234 158.114365 
L 205.867234 159.992155 
L 206.441284 159.992155 
L 206.441284 160.16753 
L 207.015334 160.16753 
L 207.015334 160.743898 
L 207.589385 160.743898 
L 207.589385 159.823395 
L 208.163435 159.823395 
L 208.163435 158.938472 
L 209.311536 159.039422 
L 209.311536 157.577651 
L 210.459636 157.530665 
L 210.459636 159.085179 
L 211.033687 159.085179 
L 211.033687 159.657728 
L 211.607737 159.657728 
L 211.607737 161.9508 
L 212.181787 161.9508 
L 212.181787 163.140743 
L 212.755837 163.140743 
L 212.755837 161.708753 
L 213.329888 161.708753 
L 213.329888 161.530504 
L 213.903938 161.530504 
L 213.903938 162.351197 
L 214.477988 162.351197 
L 214.477988 163.695241 
L 215.052039 163.695241 
L 215.052039 167.596001 
L 215.626089 167.596001 
L 215.626089 168.504633 
L 216.200139 168.504633 
L 216.200139 164.378152 
L 216.774189 164.378152 
L 216.774189 163.736474 
L 217.34824 163.736474 
L 217.34824 165.383183 
L 217.92229 165.383183 
L 217.92229 164.267648 
L 218.49634 164.267648 
L 218.49634 163.398817 
L 219.070391 163.398817 
L 219.070391 162.232149 
L 219.644441 162.232149 
L 219.644441 161.834102 
L 220.218491 161.834102 
L 220.218491 162.583641 
L 220.792541 162.583641 
L 220.792541 161.3465 
L 221.366592 161.3465 
L 221.366592 163.194904 
L 221.940642 163.194904 
L 221.940642 161.149656 
L 222.514692 161.149656 
L 222.514692 160.639309 
L 223.088743 160.639309 
L 223.088743 159.737009 
L 223.662793 159.737009 
L 223.662793 157.86806 
L 224.236843 157.86806 
L 224.236843 159.888004 
L 224.810893 159.888004 
L 224.810893 159.150729 
L 225.384944 159.150729 
L 225.384944 158.820261 
L 225.958994 158.820261 
L 225.958994 158.330623 
L 226.533044 158.330623 
L 226.533044 159.001913 
L 227.107095 159.001913 
L 227.107095 158.72362 
L 227.681145 158.72362 
L 227.681145 158.468169 
L 228.255195 158.468169 
L 228.255195 159.163865 
L 228.829245 159.163865 
L 228.829245 158.808962 
L 229.403296 158.808962 
L 229.403296 158.256707 
L 229.977346 158.256707 
L 229.977346 156.658265 
L 230.551396 156.658265 
L 230.551396 150.694477 
L 231.125447 150.694477 
L 231.125447 149.727115 
L 231.699497 149.727115 
L 231.699497 148.57456 
L 232.273547 148.57456 
L 232.273547 148.955699 
L 232.847598 148.955699 
L 232.847598 144.578193 
L 233.421648 144.578193 
L 233.421648 139.224019 
L 233.995698 139.224019 
L 233.995698 135.724665 
L 234.569748 135.724665 
L 234.569748 131.929122 
L 235.143799 131.929122 
L 235.143799 123.688509 
L 235.717849 123.688509 
L 235.717849 121.126976 
L 236.291899 121.126976 
L 236.291899 114.501195 
L 236.86595 114.501195 
L 236.86595 116.037736 
L 237.44 116.037736 
L 237.44 123.994292 
L 238.01405 123.994292 
L 238.01405 119.650419 
L 238.5881 119.650419 
L 238.5881 119.97045 
L 239.162151 119.97045 
L 239.162151 124.587763 
L 239.736201 124.587763 
L 239.736201 125.341484 
L 240.310251 125.341484 
L 240.310251 123.488046 
L 240.884302 123.488046 
L 240.884302 123.267395 
L 241.458352 123.267395 
L 241.458352 120.781313 
L 242.032402 120.781313 
L 242.032402 120.913218 
L 242.606452 120.913218 
L 242.606452 120.41492 
L 243.180503 120.41492 
L 243.180503 121.063393 
L 243.754553 121.063393 
L 243.754553 120.803802 
L 244.328603 120.803802 
L 244.328603 121.99479 
L 244.902654 121.99479 
L 244.902654 121.852022 
L 245.476704 121.852022 
L 245.476704 121.065109 
L 246.050754 121.065109 
L 246.050754 121.969642 
L 246.624804 121.969642 
L 246.624804 124.527356 
L 247.198855 124.527356 
L 247.198855 126.919059 
L 247.772905 126.919059 
L 247.772905 126.274188 
L 248.346955 126.274188 
L 248.346955 127.946397 
L 248.921006 127.946397 
L 248.921006 128.649132 
L 249.495056 128.649132 
L 249.495056 128.366202 
L 250.069106 128.366202 
L 250.069106 125.019077 
L 250.643156 125.019077 
L 250.643156 125.960627 
L 251.791257 125.925914 
L 251.791257 126.441804 
L 252.365307 126.441804 
L 252.365307 128.176165 
L 252.939358 128.176165 
L 252.939358 127.730173 
L 253.513408 127.730173 
L 253.513408 131.306418 
L 254.087458 131.306418 
L 254.087458 133.502218 
L 254.661509 133.502218 
L 254.661509 132.65908 
L 255.235559 132.65908 
L 255.235559 136.986733 
L 255.809609 136.986733 
L 255.809609 132.58749 
L 256.383659 132.58749 
L 256.383659 131.631546 
L 256.95771 131.631546 
L 256.95771 131.367004 
L 257.53176 131.367004 
L 257.53176 132.507473 
L 258.10581 132.507473 
L 258.10581 132.92187 
L 258.679861 132.92187 
L 258.679861 133.610609 
L 259.827961 133.571209 
L 259.827961 133.350906 
L 260.402011 133.350906 
L 260.402011 133.051224 
L 260.976062 133.051224 
L 260.976062 131.38341 
L 261.550112 131.38341 
L 261.550112 129.81387 
L 262.124162 129.81387 
L 262.124162 127.894621 
L 262.698213 127.894621 
L 262.698213 126.250357 
L 263.272263 126.250357 
L 263.272263 125.296318 
L 263.846313 125.296318 
L 263.846313 125.68367 
L 264.420363 125.68367 
L 264.420363 127.534196 
L 264.994414 127.534196 
L 264.994414 126.984835 
L 265.568464 126.984835 
L 265.568464 127.554182 
L 266.142514 127.554182 
L 266.142514 128.604794 
L 266.716565 128.604794 
L 266.716565 127.250453 
L 267.290615 127.250453 
L 267.290615 125.790765 
L 267.864665 125.790765 
L 267.864665 126.453349 
L 268.438715 126.453349 
L 268.438715 126.146152 
L 269.012766 126.146152 
L 269.012766 126.462333 
L 269.586816 126.462333 
L 269.586816 126.272916 
L 270.160866 126.272916 
L 270.160866 126.579496 
L 270.734917 126.579496 
L 270.734917 127.462208 
L 271.308967 127.462208 
L 271.308967 127.858802 
L 271.883017 127.858802 
L 271.883017 127.63773 
L 273.031118 127.6214 
L 273.031118 128.312275 
L 273.605168 128.312275 
L 273.605168 129.967354 
L 274.179218 129.967354 
L 274.179218 130.161745 
L 274.753269 130.161745 
L 274.753269 130.582678 
L 275.901369 130.638739 
L 275.901369 131.871859 
L 276.47542 131.871859 
L 276.47542 131.474298 
L 277.04947 131.474298 
L 277.04947 131.998816 
L 277.62352 131.998816 
L 277.62352 131.848327 
L 278.19757 131.848327 
L 278.19757 132.839184 
L 278.771621 132.839184 
L 278.771621 135.31356 
L 279.345671 135.31356 
L 279.345671 134.867219 
L 279.919721 134.867219 
L 279.919721 136.724127 
L 280.493772 136.724127 
L 280.493772 137.542587 
L 281.067822 137.542587 
L 281.067822 138.979109 
L 281.641872 138.979109 
L 281.641872 137.373098 
L 282.215922 137.373098 
L 282.215922 135.631111 
L 282.789973 135.631111 
L 282.789973 135.906922 
L 283.364023 135.906922 
L 283.364023 137.637682 
L 283.938073 137.637682 
L 283.938073 137.994084 
L 284.512124 137.994084 
L 284.512124 138.756714 
L 285.086174 138.756714 
L 285.086174 139.210064 
L 285.660224 139.210064 
L 285.660224 138.221398 
L 286.234274 138.221398 
L 286.234274 134.384797 
L 286.808325 134.384797 
L 286.808325 135.88482 
L 287.382375 135.88482 
L 287.382375 137.678656 
L 287.956425 137.678656 
L 287.956425 136.686127 
L 288.530476 136.686127 
L 288.530476 136.558209 
L 289.104526 136.558209 
L 289.104526 136.418436 
L 289.678576 136.418436 
L 289.678576 136.661012 
L 290.252626 136.661012 
L 290.252626 138.114882 
L 290.826677 138.114882 
L 290.826677 137.604067 
L 291.400727 137.604067 
L 291.400727 140.330735 
L 291.974777 140.330735 
L 291.974777 139.104206 
L 292.548828 139.104206 
L 292.548828 139.227661 
L 293.122878 139.227661 
L 293.122878 140.411716 
L 293.696928 140.411716 
L 293.696928 142.153972 
L 294.270978 142.153972 
L 294.270978 141.267602 
L 294.845029 141.267602 
L 294.845029 143.266944 
L 295.419079 143.266944 
L 295.419079 148.256676 
L 295.993129 148.256676 
L 295.993129 147.711541 
L 296.56718 147.711541 
L 296.56718 146.134154 
L 297.14123 146.134154 
L 297.14123 143.729744 
L 297.71528 143.729744 
L 297.71528 147.413355 
L 298.289331 147.413355 
L 298.289331 146.743214 
L 298.863381 146.743214 
L 298.863381 146.990332 
L 299.437431 146.990332 
L 299.437431 147.133952 
L 300.011481 147.133952 
L 300.011481 146.066566 
L 300.585532 146.066566 
L 300.585532 145.125593 
L 301.159582 145.125593 
L 301.159582 145.607242 
L 301.733632 145.607242 
L 301.733632 144.506165 
L 302.307683 144.506165 
L 302.307683 143.238742 
L 302.881733 143.238742 
L 302.881733 142.875683 
L 303.455783 142.875683 
L 303.455783 141.476374 
L 304.029833 141.476374 
L 304.029833 141.861751 
L 304.603884 141.861751 
L 304.603884 143.837962 
L 305.177934 143.837962 
L 305.177934 145.189256 
L 305.751984 145.189256 
L 305.751984 144.548875 
L 306.326035 144.548875 
L 306.326035 145.067818 
L 306.900085 145.067818 
L 306.900085 143.959065 
L 307.474135 143.959065 
L 307.474135 145.353427 
L 308.048185 145.353427 
L 308.048185 147.072788 
L 309.196286 147.106045 
L 309.196286 145.951593 
L 309.770336 145.951593 
L 309.770336 146.780354 
L 310.918437 146.839743 
L 310.918437 145.646513 
L 311.492487 145.646513 
L 311.492487 145.840654 
L 312.066537 145.840654 
L 312.066537 145.52311 
L 312.640588 145.52311 
L 312.640588 145.822927 
L 313.214638 145.822927 
L 313.214638 146.333104 
L 313.788688 146.333104 
L 313.788688 145.790046 
L 314.362739 145.790046 
L 314.362739 145.997503 
L 314.936789 145.997503 
L 314.936789 146.599727 
L 315.510839 146.599727 
L 315.510839 147.084466 
L 316.084889 147.084466 
L 316.084889 146.659462 
L 316.65894 146.659462 
L 316.65894 146.489511 
L 317.23299 146.489511 
L 317.23299 144.786225 
L 317.80704 144.786225 
L 317.80704 145.209704 
L 318.381091 145.209704 
L 318.381091 145.58555 
L 318.955141 145.58555 
L 318.955141 144.899515 
L 319.529191 144.899515 
L 319.529191 144.413151 
L 320.103242 144.413151 
L 320.103242 143.352536 
L 320.677292 143.352536 
L 320.677292 142.165919 
L 321.251342 142.165919 
L 321.251342 141.956134 
L 321.825392 141.956134 
L 321.825392 142.749355 
L 322.973493 142.660533 
L 322.973493 141.618141 
L 323.547543 141.618141 
L 323.547543 141.919299 
L 324.121594 141.919299 
L 324.121594 142.434841 
L 324.695644 142.434841 
L 324.695644 142.563496 
L 325.269694 142.563496 
L 325.269694 143.170627 
L 325.843744 143.170627 
L 325.843744 143.889226 
L 326.417795 143.889226 
L 326.417795 146.783894 
L 326.991845 146.783894 
L 326.991845 146.617278 
L 327.565895 146.617278 
L 327.565895 146.885067 
L 328.139946 146.885067 
L 328.139946 146.432889 
L 329.288046 146.391179 
L 329.288046 145.253943 
L 329.862096 145.253943 
L 329.862096 146.046931 
L 330.436147 146.046931 
L 330.436147 146.600604 
L 331.010197 146.600604 
L 331.010197 146.44072 
L 331.584247 146.44072 
L 331.584247 146.109317 
L 332.158298 146.109317 
L 332.158298 145.674132 
L 332.732348 145.674132 
L 332.732348 145.789204 
L 333.306398 145.789204 
L 333.306398 145.042645 
L 334.454499 145.130483 
L 334.454499 144.58771 
L 335.028549 144.58771 
L 335.028549 143.919127 
L 335.602599 143.919127 
L 335.602599 142.92308 
L 336.17665 142.92308 
L 336.17665 142.04188 
L 336.7507 142.04188 
L 336.7507 139.335396 
L 337.32475 139.335396 
L 337.32475 135.146995 
L 337.8988 135.146995 
L 337.8988 136.03177 
L 338.472851 136.03177 
L 338.472851 140.54223 
L 339.046901 140.54223 
L 339.046901 139.904907 
L 339.620951 139.904907 
L 339.620951 139.474419 
L 340.195002 139.474419 
L 340.195002 139.623699 
L 340.769052 139.623699 
L 340.769052 137.592875 
L 341.343102 137.592875 
L 341.343102 137.338267 
L 341.917153 137.338267 
L 341.917153 136.035393 
L 342.491203 136.035393 
L 342.491203 134.561942 
L 343.065253 134.561942 
L 343.065253 133.765289 
L 343.639303 133.765289 
L 343.639303 132.721275 
L 344.213354 132.721275 
L 344.213354 133.537369 
L 344.787404 133.537369 
L 344.787404 132.768707 
L 345.361454 132.768707 
L 345.361454 133.772685 
L 346.509555 133.794425 
L 346.509555 133.957068 
L 347.083605 133.957068 
L 347.083605 133.082018 
L 347.657655 133.082018 
L 347.657655 133.943542 
L 348.231706 133.943542 
L 348.231706 136.111106 
L 348.805756 136.111106 
L 348.805756 136.319493 
L 349.379806 136.319493 
L 349.379806 135.793073 
L 349.953857 135.793073 
L 349.953857 136.578408 
L 350.527907 136.578408 
L 350.527907 137.016065 
L 351.101957 137.016065 
L 351.101957 136.663682 
L 351.676007 136.663682 
L 351.676007 136.503031 
L 352.250058 136.503031 
L 352.250058 135.410655 
L 352.824108 135.410655 
L 352.824108 134.39481 
L 353.972209 134.429653 
L 353.972209 133.848648 
L 354.546259 133.848648 
L 354.546259 134.274991 
L 355.120309 134.274991 
L 355.120309 135.088159 
L 355.694359 135.088159 
L 355.694359 134.58552 
L 356.84246 134.634206 
L 356.84246 134.976402 
L 357.41651 134.976402 
L 357.41651 134.566752 
L 358.564611 134.539353 
L 358.564611 134.694626 
L 359.138661 134.694626 
L 359.138661 134.465036 
L 360.286762 134.39624 
L 360.286762 134.268829 
L 360.860812 134.268829 
L 360.860812 133.948205 
L 361.434862 133.948205 
L 361.434862 133.647329 
L 362.008913 133.647329 
L 362.008913 132.926744 
L 362.582963 132.926744 
L 362.582963 133.222757 
L 363.157013 133.222757 
L 363.157013 132.878937 
L 363.731064 132.878937 
L 363.731064 133.040078 
L 364.305114 133.040078 
L 364.305114 132.543093 
L 364.879164 132.543093 
L 364.879164 132.754641 
L 365.453214 132.754641 
L 365.453214 132.8754 
L 366.027265 132.8754 
L 366.027265 133.316532 
L 366.601315 133.316532 
L 366.601315 133.069963 
L 367.175365 133.069963 
L 367.175365 130.454174 
L 367.749416 130.454174 
L 367.749416 129.434672 
L 368.323466 129.434672 
L 368.323466 127.801074 
L 368.897516 127.801074 
L 368.897516 128.00004 
L 369.471566 128.00004 
L 369.471566 124.590979 
L 370.045617 124.590979 
L 370.045617 122.72857 
L 370.619667 122.72857 
L 370.619667 127.49158 
L 371.193717 127.49158 
L 371.193717 126.266876 
L 371.767768 126.266876 
L 371.767768 125.101367 
L 372.341818 125.101367 
L 372.341818 124.68503 
L 372.915868 124.68503 
L 372.915868 125.250347 
L 374.638019 125.301163 
L 374.638019 125.114865 
L 375.212069 125.114865 
L 375.212069 125.296318 
L 375.78612 125.296318 
L 375.78612 125.476985 
L 376.36017 125.476985 
L 376.36017 127.065375 
L 376.93422 127.065375 
L 376.93422 128.18211 
L 377.50827 128.18211 
L 377.50827 127.757887 
L 378.656371 127.814117 
L 378.656371 128.245157 
L 379.230421 128.245157 
L 379.230421 128.02466 
L 380.378522 128.076426 
L 380.378522 128.22482 
L 381.526622 128.207305 
L 381.526622 126.979565 
L 382.100673 126.979565 
L 382.100673 126.540151 
L 382.674723 126.540151 
L 382.674723 126.952249 
L 383.822824 127.007578 
L 383.822824 127.448718 
L 384.396874 127.448718 
L 384.396874 127.024734 
L 386.119025 127.011866 
L 386.119025 126.773153 
L 386.693075 126.773153 
L 386.693075 126.10954 
L 387.267125 126.10954 
L 387.267125 125.989756 
L 387.841176 125.989756 
L 387.841176 126.308236 
L 388.415226 126.308236 
L 388.415226 125.834884 
L 388.989276 125.834884 
L 388.989276 124.569943 
L 389.563327 124.569943 
L 389.563327 123.415695 
L 390.137377 123.415695 
L 390.137377 124.063357 
L 390.711427 124.063357 
L 390.711427 123.556772 
L 391.285477 123.556772 
L 391.285477 124.151812 
L 391.859528 124.151812 
L 391.859528 123.135401 
L 393.581679 123.12915 
L 393.581679 123.321644 
L 394.155729 123.321644 
L 394.155729 122.437442 
L 395.303829 122.345512 
L 395.303829 122.300878 
L 395.87788 122.300878 
L 395.87788 122.101377 
L 396.45193 122.101377 
L 396.45193 121.714061 
L 397.02598 121.714061 
L 397.02598 118.821554 
L 397.600031 118.821554 
L 397.600031 118.465121 
L 398.174081 118.465121 
L 398.174081 117.735832 
L 398.748131 117.735832 
L 398.748131 114.943912 
L 399.322181 114.943912 
L 399.322181 118.897084 
L 399.896232 118.897084 
L 399.896232 121.350498 
L 400.470282 121.350498 
L 400.470282 120.737376 
L 401.044332 120.737376 
L 401.044332 119.226443 
L 401.618383 119.226443 
L 401.618383 119.49774 
L 402.192433 119.49774 
L 402.192433 118.719036 
L 402.766483 118.719036 
L 402.766483 117.353805 
L 403.340533 117.353805 
L 403.340533 116.798248 
L 403.914584 116.798248 
L 403.914584 117.31474 
L 404.488634 117.31474 
L 404.488634 116.994925 
L 405.062684 116.994925 
L 405.062684 115.955138 
L 405.636735 115.955138 
L 405.636735 114.659904 
L 406.210785 114.659904 
L 406.210785 114.213252 
L 406.784835 114.213252 
L 406.784835 112.95463 
L 407.358886 112.95463 
L 407.358886 112.215352 
L 407.932936 112.215352 
L 407.932936 113.499741 
L 408.506986 113.499741 
L 408.506986 112.698917 
L 409.081036 112.698917 
L 409.081036 115.695677 
L 409.655087 115.695677 
L 409.655087 114.874691 
L 410.229137 114.874691 
L 410.229137 117.79883 
L 410.803187 117.79883 
L 410.803187 116.237835 
L 411.377238 116.237835 
L 411.377238 115.477701 
L 411.951288 115.477701 
L 411.951288 113.472205 
L 412.525338 113.472205 
L 412.525338 113.201232 
L 413.099388 113.201232 
L 413.099388 113.868202 
L 413.673439 113.868202 
L 413.673439 113.347262 
L 414.247489 113.347262 
L 414.247489 112.820031 
L 414.821539 112.820031 
L 414.821539 111.949557 
L 415.39559 111.949557 
L 415.39559 110.937153 
L 415.96964 110.937153 
L 415.96964 108.406962 
L 416.54369 108.406962 
L 416.54369 106.975718 
L 417.11774 106.975718 
L 417.11774 106.475211 
L 417.691791 106.475211 
L 417.691791 106.285513 
L 418.265841 106.285513 
L 418.265841 103.047775 
L 418.839891 103.047775 
L 418.839891 99.3059 
L 419.413942 99.3059 
L 419.413942 101.434165 
L 419.987992 101.434165 
L 419.987992 99.401745 
L 420.562042 99.401745 
L 420.562042 97.13193 
L 421.136092 97.13193 
L 421.136092 96.217978 
L 421.710143 96.217978 
L 421.710143 97.080942 
L 422.284193 97.080942 
L 422.284193 97.653341 
L 422.858243 97.653341 
L 422.858243 97.434209 
L 423.432294 97.434209 
L 423.432294 98.650574 
L 424.006344 98.650574 
L 424.006344 98.335587 
L 425.154444 98.27076 
L 425.154444 98.643931 
L 425.728495 98.643931 
L 425.728495 100.241902 
L 426.302545 100.241902 
L 426.302545 103.415545 
L 426.876595 103.415545 
L 426.876595 100.642127 
L 427.450646 100.642127 
L 427.450646 96.76984 
L 428.024696 96.76984 
L 428.024696 97.450487 
L 428.598746 97.450487 
L 428.598746 95.952053 
L 429.746847 95.996737 
L 429.746847 92.456833 
L 430.320897 92.456833 
L 430.320897 89.922675 
L 430.894947 89.922675 
L 430.894947 87.454791 
L 431.468998 87.454791 
L 431.468998 88.981725 
L 432.043048 88.981725 
L 432.043048 87.657344 
L 432.617098 87.657344 
L 432.617098 87.450855 
L 433.191149 87.450855 
L 433.191149 85.15428 
L 433.765199 85.15428 
L 433.765199 87.412634 
L 434.339249 87.412634 
L 434.339249 87.661505 
L 434.913299 87.661505 
L 434.913299 89.939767 
L 435.48735 89.939767 
L 435.48735 90.931296 
L 436.0614 90.931296 
L 436.0614 91.358385 
L 436.63545 91.358385 
L 436.63545 89.596785 
L 437.209501 89.596785 
L 437.209501 88.44718 
L 437.783551 88.44718 
L 437.783551 87.766017 
L 438.357601 87.766017 
L 438.357601 87.165508 
L 438.931651 87.165508 
L 438.931651 85.509309 
L 439.505702 85.509309 
L 439.505702 82.188887 
L 440.653802 82.169648 
L 440.653802 81.46695 
L 441.227853 81.46695 
L 441.227853 81.91558 
L 441.801903 81.91558 
L 441.801903 79.789478 
L 442.375953 79.789478 
L 442.375953 77.024161 
L 442.950003 77.024161 
L 442.950003 76.747511 
L 443.524054 76.747511 
L 443.524054 81.502657 
L 444.098104 81.502657 
L 444.098104 75.7017 
L 444.672154 75.7017 
L 444.672154 74.771576 
L 445.820255 74.844677 
L 445.820255 71.064047 
L 446.394305 71.064047 
L 446.394305 69.151492 
L 446.968355 69.151492 
L 446.968355 64.386582 
L 447.542406 64.386582 
L 447.542406 62.688359 
L 448.116456 62.688359 
L 448.116456 60.983079 
L 448.690506 60.983079 
L 448.690506 58.138856 
L 449.264557 58.138856 
L 449.264557 64.484215 
L 449.838607 64.484215 
L 449.838607 61.894793 
L 450.412657 61.894793 
L 450.412657 66.252362 
L 450.986708 66.252362 
L 450.986708 62.727887 
L 451.560758 62.727887 
L 451.560758 61.247552 
L 452.134808 61.247552 
L 452.134808 65.211162 
L 452.708858 65.211162 
L 452.708858 64.810286 
L 453.282909 64.810286 
L 453.282909 68.090569 
L 453.856959 68.090569 
L 453.856959 69.30141 
L 454.431009 69.30141 
L 454.431009 68.221789 
L 455.00506 68.221789 
L 455.00506 70.49668 
L 455.57911 70.49668 
L 455.57911 74.870838 
L 456.72721 74.766061 
L 456.72721 73.244809 
L 457.301261 73.244809 
L 457.301261 70.546677 
L 457.875311 70.546677 
L 457.875311 68.549271 
L 458.449361 68.549271 
L 458.449361 71.511708 
L 459.023412 71.511708 
L 459.023412 70.246729 
L 459.597462 70.246729 
L 459.597462 68.072613 
L 460.171512 68.072613 
L 460.171512 72.301956 
L 460.745562 72.301956 
L 460.745562 72.724154 
L 461.319613 72.724154 
L 461.319613 74.638186 
L 461.893663 74.638186 
L 461.893663 73.212796 
L 462.467713 73.212796 
L 462.467713 74.076805 
L 463.041764 74.076805 
L 463.041764 75.494465 
L 463.615814 75.494465 
L 463.615814 78.54452 
L 464.189864 78.54452 
L 464.189864 78.664803 
L 465.337965 78.671444 
L 465.337965 75.634412 
L 466.486065 75.604146 
L 466.486065 73.16643 
L 467.060116 73.16643 
L 467.060116 73.302485 
L 467.634166 73.302485 
L 467.634166 72.143847 
L 468.208216 72.143847 
L 468.208216 71.401356 
L 468.782266 71.401356 
L 468.782266 72.206257 
L 469.356317 72.206257 
L 469.356317 74.400786 
L 469.930367 74.400786 
L 469.930367 74.224505 
L 470.504417 74.224505 
L 470.504417 74.773374 
L 471.078468 74.773374 
L 471.078468 76.631272 
L 471.652518 76.631272 
L 471.652518 77.082516 
L 472.226568 77.082516 
L 472.226568 76.690684 
L 473.374669 76.675153 
L 473.374669 76.356856 
L 473.948719 76.356856 
L 473.948719 79.366528 
L 474.522769 79.366528 
L 474.522769 79.564088 
L 475.09682 79.564088 
L 475.09682 78.741178 
L 475.67087 78.741178 
L 475.67087 80.614853 
L 476.24492 80.614853 
L 476.24492 81.543299 
L 476.818971 81.543299 
L 476.818971 79.143313 
L 477.967071 79.136816 
L 477.967071 80.062286 
L 478.541121 80.062286 
L 478.541121 80.318434 
L 479.115172 80.318434 
L 479.115172 77.010244 
L 480.263272 76.91388 
L 480.263272 75.52169 
L 480.837323 75.52169 
L 480.837323 74.945626 
L 481.411373 74.945626 
L 481.411373 76.891962 
L 481.985423 76.891962 
L 481.985423 78.867778 
L 482.559473 78.867778 
L 482.559473 80.385824 
L 483.133524 80.385824 
L 483.133524 80.248587 
L 483.707574 80.248587 
L 483.707574 79.570571 
L 484.281624 79.570571 
L 484.281624 79.449344 
L 484.855675 79.449344 
L 484.855675 78.329421 
L 485.429725 78.329421 
L 485.429725 77.991228 
L 486.003775 77.991228 
L 486.003775 77.042659 
L 486.577825 77.042659 
L 486.577825 80.52715 
L 487.151876 80.52715 
L 487.151876 80.07251 
L 487.725926 80.07251 
L 487.725926 79.537282 
L 488.874027 79.541444 
L 488.874027 79.273675 
L 489.448077 79.273675 
L 489.448077 79.136604 
L 490.022127 79.136604 
L 490.022127 79.463621 
L 490.596177 79.463621 
L 490.596177 79.303603 
L 491.744278 79.280917 
L 491.744278 80.266194 
L 492.318328 80.266194 
L 492.318328 79.499587 
L 493.466429 79.548012 
L 493.466429 79.615114 
L 494.040479 79.615114 
L 494.040479 80.150007 
L 494.61453 80.150007 
L 494.61453 79.961184 
L 495.18858 79.961184 
L 495.18858 79.416011 
L 495.76263 79.416011 
L 495.76263 79.813029 
L 496.33668 79.813029 
L 496.33668 82.305209 
L 496.910731 82.305209 
L 496.910731 85.39909 
L 497.484781 85.39909 
L 497.484781 87.559515 
L 498.058831 87.559515 
L 498.058831 90.131213 
L 498.632882 90.131213 
L 498.632882 88.332941 
L 499.206932 88.332941 
L 499.206932 90.572721 
L 499.780982 90.572721 
L 499.780982 91.42792 
L 500.355032 91.42792 
L 500.355032 93.057066 
L 500.929083 93.057066 
L 500.929083 91.606765 
L 501.503133 91.606765 
L 501.503133 89.761224 
L 502.077183 89.761224 
L 502.077183 90.1675 
L 502.651234 90.1675 
L 502.651234 90.437443 
L 503.225284 90.437443 
L 503.225284 89.600198 
L 503.799334 89.600198 
L 503.799334 88.897089 
L 504.373384 88.897089 
L 504.373384 91.107828 
L 504.947435 91.107828 
L 504.947435 90.9098 
L 505.521485 90.9098 
L 505.521485 91.220862 
L 506.095535 91.220862 
L 506.095535 91.434005 
L 507.243636 91.495794 
L 507.243636 92.100143 
L 508.391736 92.180998 
L 508.391736 92.539203 
L 508.965787 92.539203 
L 508.965787 91.200213 
L 509.539837 91.200213 
L 509.539837 91.317933 
L 510.113887 91.317933 
L 510.113887 89.624566 
L 510.687938 89.624566 
L 510.687938 88.566187 
L 511.261988 88.566187 
L 511.261988 90.106222 
L 512.410088 90.203906 
L 512.410088 89.828152 
L 513.558189 89.857701 
L 513.558189 89.573775 
L 514.132239 89.573775 
L 514.132239 89.108037 
L 515.85439 89.011831 
L 515.85439 88.689654 
L 516.428441 88.689654 
L 516.428441 85.142736 
L 517.002491 85.142736 
L 517.002491 83.735537 
L 517.576541 83.735537 
L 517.576541 84.49428 
L 518.150591 84.49428 
L 518.150591 84.01136 
L 518.724642 84.01136 
L 518.724642 83.581903 
L 519.298692 83.581903 
L 519.298692 83.116151 
L 519.872742 83.116151 
L 519.872742 83.612067 
L 520.446793 83.612067 
L 520.446793 83.279093 
L 521.020843 83.279093 
L 521.020843 82.21431 
L 521.594893 82.21431 
L 521.594893 80.00304 
L 522.168943 80.00304 
L 522.168943 75.388739 
L 522.742994 75.388739 
L 522.742994 77.300523 
L 523.317044 77.300523 
L 523.317044 76.329549 
L 523.891094 76.329549 
L 523.891094 73.588391 
L 524.465145 73.588391 
L 524.465145 74.699661 
L 525.039195 74.699661 
L 525.039195 75.035462 
L 525.613245 75.035462 
L 525.613245 75.374711 
L 526.187295 75.374711 
L 526.187295 75.577846 
L 526.761346 75.577846 
L 526.761346 73.326593 
L 527.335396 73.326593 
L 527.335396 72.394101 
L 527.909446 72.394101 
L 527.909446 69.332889 
L 528.483497 69.332889 
L 528.483497 68.751771 
L 529.057547 68.751771 
L 529.057547 69.774352 
L 529.631597 69.774352 
L 529.631597 69.074026 
L 530.205647 69.074026 
L 530.205647 66.293311 
L 530.779698 66.293311 
L 530.779698 68.295987 
L 531.353748 68.295987 
L 531.353748 71.56439 
L 531.927798 71.56439 
L 531.927798 69.757906 
L 532.501849 69.757906 
L 532.501849 71.152746 
L 533.075899 71.152746 
L 533.075899 71.925688 
L 533.649949 71.925688 
L 533.649949 69.867663 
L 534.223999 69.867663 
L 534.223999 68.161783 
L 534.79805 68.161783 
L 534.79805 68.484832 
L 535.3721 68.484832 
L 535.3721 70.867214 
L 535.94615 70.867214 
L 535.94615 70.274935 
L 536.520201 70.274935 
L 536.520201 70.678119 
L 537.094251 70.678119 
L 537.094251 70.192254 
L 537.668301 70.192254 
L 537.668301 71.764738 
L 538.242352 71.764738 
L 538.242352 69.693916 
L 538.816402 69.693916 
L 538.816402 69.948362 
L 539.390452 69.948362 
L 539.390452 70.584572 
L 539.964502 70.584572 
L 539.964502 70.288858 
L 541.112603 70.356086 
L 541.112603 71.545559 
L 541.686653 71.545559 
L 541.686653 74.890773 
L 542.260704 74.890773 
L 542.260704 74.577861 
L 542.834754 74.577861 
L 542.834754 75.004046 
L 543.408804 75.004046 
L 543.408804 73.950094 
L 543.982854 73.950094 
L 543.982854 74.67232 
L 544.556905 74.67232 
L 544.556905 75.179121 
L 545.130955 75.179121 
L 545.130955 74.820938 
L 545.705005 74.820938 
L 545.705005 73.766993 
L 546.279056 73.766993 
L 546.279056 72.069504 
L 546.853106 72.069504 
L 546.853106 72.352109 
L 548.001206 72.261529 
L 548.001206 72.928951 
L 548.575257 72.928951 
L 548.575257 73.846811 
L 549.149307 73.846811 
L 549.149307 74.9346 
L 549.723357 74.9346 
L 549.723357 77.241888 
L 550.297408 77.241888 
L 550.297408 77.582093 
L 550.871458 77.582093 
L 550.871458 76.509502 
L 551.445508 76.509502 
L 551.445508 77.500563 
L 552.019558 77.500563 
L 552.019558 76.603349 
L 552.593609 76.603349 
L 552.593609 77.510841 
L 553.167659 77.510841 
L 553.167659 78.392555 
L 553.741709 78.392555 
L 553.741709 77.508027 
L 554.31576 77.508027 
L 554.31576 77.34015 
L 554.88981 77.34015 
L 554.88981 77.201466 
L 555.46386 77.201466 
L 555.46386 77.548431 
L 556.03791 77.548431 
L 556.03791 77.063409 
L 556.611961 77.063409 
L 556.611961 75.83155 
L 557.186011 75.83155 
L 557.186011 75.10867 
L 557.760061 75.10867 
L 557.760061 73.23441 
L 558.334112 73.23441 
L 558.334112 73.639212 
L 558.908162 73.639212 
L 558.908162 74.56718 
L 559.482212 74.56718 
L 559.482212 72.398179 
L 560.630313 72.323318 
L 560.630313 71.396613 
L 561.204363 71.396613 
L 561.204363 71.194123 
L 561.778413 71.194123 
L 561.778413 70.176312 
L 562.352464 70.176312 
L 562.352464 70.542565 
L 562.926514 70.542565 
L 562.926514 71.574019 
L 563.500564 71.574019 
L 563.500564 73.494474 
L 564.074615 73.494474 
L 564.074615 74.075843 
L 564.648665 74.075843 
L 564.648665 72.861976 
L 565.222715 72.861976 
L 565.222715 75.541553 
L 565.796765 75.541553 
L 565.796765 82.481896 
L 566.370816 82.481896 
L 566.370816 83.400408 
L 566.944866 83.400408 
L 566.944866 80.508406 
L 567.518916 80.508406 
L 567.518916 78.926804 
L 568.092967 78.926804 
L 568.092967 81.518543 
L 568.667017 81.518543 
L 568.667017 78.598658 
L 569.241067 78.598658 
L 569.241067 77.086225 
L 569.815117 77.086225 
L 569.815117 78.410905 
L 570.963218 78.414665 
L 570.963218 77.316215 
L 571.537268 77.316215 
L 571.537268 77.673559 
L 572.111319 77.673559 
L 572.111319 76.13785 
L 572.685369 76.13785 
L 572.685369 73.855049 
L 573.259419 73.855049 
L 573.259419 73.266863 
L 573.833469 73.266863 
L 573.833469 71.261284 
L 574.40752 71.261284 
L 574.40752 73.428447 
L 574.98157 73.428447 
L 574.98157 72.17093 
L 575.55562 72.17093 
L 575.55562 71.906009 
L 576.129671 71.906009 
L 576.129671 73.619772 
L 576.703721 73.619772 
L 576.703721 71.783106 
L 577.277771 71.783106 
L 577.277771 70.496229 
L 577.851821 70.496229 
L 577.851821 71.669276 
L 578.425872 71.669276 
L 578.425872 71.356639 
L 578.999922 71.356639 
L 578.999922 71.984439 
L 580.148023 72.023993 
L 580.148023 72.387456 
L 581.296123 72.482444 
L 581.296123 72.603098 
L 581.870174 72.603098 
L 581.870174 72.850869 
L 582.444224 72.850869 
L 582.444224 72.449137 
L 583.592324 72.493046 
L 583.592324 72.585313 
L 584.740425 72.539289 
L 584.740425 71.691432 
L 585.314475 71.691432 
L 585.314475 68.915161 
L 585.888526 68.915161 
L 585.888526 68.375669 
L 586.462576 68.375669 
L 586.462576 68.641612 
L 587.036626 68.641612 
L 587.036626 67.641184 
L 587.610676 67.641184 
L 587.610676 67.974976 
L 588.184727 67.974976 
L 588.184727 67.393529 
L 589.332827 67.474705 
L 589.332827 67.647431 
L 589.906878 67.647431 
L 589.906878 68.041473 
L 590.480928 68.041473 
L 590.480928 67.378001 
L 591.054978 67.378001 
L 591.054978 70.58398 
L 591.629028 70.58398 
L 591.629028 70.44996 
L 592.203079 70.44996 
L 592.203079 70.249385 
L 592.777129 70.249385 
L 592.777129 69.094641 
L 593.351179 69.094641 
L 593.351179 70.057038 
L 593.92523 70.057038 
L 593.92523 69.559446 
L 594.49928 69.559446 
L 594.49928 69.284203 
L 595.07333 69.284203 
L 595.07333 69.825442 
L 595.64738 69.825442 
L 595.64738 69.600771 
L 596.221431 69.600771 
L 596.221431 68.317964 
L 596.795481 68.317964 
L 596.795481 68.095408 
L 597.369531 68.095408 
L 597.369531 67.657258 
L 597.943582 67.657258 
L 597.943582 65.731997 
L 598.517632 65.731997 
L 598.517632 64.666977 
L 599.091682 64.666977 
L 599.091682 64.435267 
L 599.665732 64.435267 
L 599.665732 63.940689 
L 600.239783 63.940689 
L 600.239783 62.135626 
L 600.813833 62.135626 
L 600.813833 61.120974 
L 601.387883 61.120974 
L 601.387883 60.599822 
L 601.961934 60.599822 
L 601.961934 58.377865 
L 602.535984 58.377865 
L 602.535984 57.864613 
L 603.110034 57.864613 
L 603.110034 59.428523 
L 603.684085 59.428523 
L 603.684085 57.807812 
L 604.258135 57.807812 
L 604.258135 57.651451 
L 604.832185 57.651451 
L 604.832185 58.854746 
L 605.406235 58.854746 
L 605.406235 57.75619 
L 605.980286 57.75619 
L 605.980286 54.088183 
L 606.554336 54.088183 
L 606.554336 53.513237 
L 607.128386 53.513237 
L 607.128386 51.424957 
L 607.702437 51.424957 
L 607.702437 49.67567 
L 608.276487 49.67567 
L 608.276487 46.987963 
L 608.850537 46.987963 
L 608.850537 43.394493 
L 609.424587 43.394493 
L 609.424587 45.500499 
L 609.998638 45.500499 
L 609.998638 44.789986 
L 610.572688 44.789986 
L 610.572688 45.234515 
L 611.146738 45.234515 
L 611.146738 47.542422 
L 611.720789 47.542422 
L 611.720789 48.619465 
L 612.294839 48.619465 
L 612.294839 46.905785 
L 612.868889 46.905785 
L 612.868889 44.695814 
L 613.442939 44.695814 
L 613.442939 40.178232 
L 614.01699 40.178232 
L 614.01699 39.705602 
L 614.59104 39.705602 
L 614.59104 39.005501 
L 615.16509 39.005501 
L 615.16509 36.395945 
L 615.739141 36.395945 
L 615.739141 38.417457 
L 616.313191 38.417457 
L 616.313191 40.725796 
L 616.887241 40.725796 
L 616.887241 39.297369 
L 617.461291 39.297369 
L 617.461291 37.765699 
L 618.035342 37.765699 
L 618.035342 35.953074 
L 618.609392 35.953074 
L 618.609392 36.086768 
L 619.183442 36.086768 
L 619.183442 35.663934 
L 619.757493 35.663934 
L 619.757493 37.685858 
L 620.331543 37.685858 
L 620.331543 36.473881 
L 620.905593 36.473881 
L 620.905593 35.440669 
L 622.053694 35.332804 
L 622.053694 35.658149 
L 622.627744 35.658149 
L 622.627744 33.861839 
L 623.201794 33.861839 
L 623.201794 34.985486 
L 623.775845 34.985486 
L 623.775845 37.195813 
L 624.349895 37.195813 
L 624.349895 39.039965 
L 624.923945 39.039965 
L 624.923945 37.279608 
L 625.497996 37.279608 
L 625.497996 35.967055 
L 626.646096 35.908699 
L 626.646096 36.129913 
L 627.220146 36.129913 
L 627.220146 40.018055 
L 627.794197 40.018055 
L 627.794197 44.716296 
L 628.368247 44.716296 
L 628.368247 45.950896 
L 628.942297 45.950896 
L 628.942297 43.92948 
L 629.516348 43.92948 
L 629.516348 44.529546 
L 630.090398 44.529546 
L 630.090398 44.759016 
L 630.664448 44.759016 
L 630.664448 46.717049 
L 631.238498 46.717049 
L 631.238498 45.528715 
L 631.812549 45.528715 
L 631.812549 43.992313 
L 632.386599 43.992313 
L 632.386599 45.473802 
L 632.960649 45.473802 
L 632.960649 46.017372 
L 634.10875 46.123296 
L 634.10875 46.475019 
L 634.6828 46.475019 
L 634.6828 46.266602 
L 635.25685 46.266602 
L 635.25685 46.67794 
L 635.830901 46.67794 
L 635.830901 47.101272 
L 636.404951 47.101272 
L 636.404951 47.740726 
L 636.979001 47.740726 
L 636.979001 47.419166 
L 637.553052 47.419166 
L 637.553052 44.525467 
L 638.127102 44.525467 
L 638.127102 42.05641 
L 638.701152 42.05641 
L 638.701152 44.090211 
L 639.275202 44.090211 
L 639.275202 40.939943 
L 639.849253 40.939943 
L 639.849253 40.506118 
L 640.423303 40.506118 
L 640.423303 39.881461 
L 640.997353 39.881461 
L 640.997353 40.018882 
L 641.571404 40.018882 
L 641.571404 38.85799 
L 642.145454 38.85799 
L 642.145454 39.047607 
L 642.719504 39.047607 
L 642.719504 39.839172 
L 643.293554 39.839172 
L 643.293554 38.68729 
L 643.867605 38.68729 
L 643.867605 40.302128 
L 645.015705 40.310502 
L 645.015705 39.573617 
L 645.589756 39.573617 
L 645.589756 41.732892 
L 646.737856 41.773082 
L 646.737856 42.635465 
L 647.311907 42.635465 
L 647.311907 39.598009 
L 647.885957 39.598009 
L 647.885957 36.632468 
L 648.460007 36.632468 
L 648.460007 36.894017 
L 649.034057 36.894017 
L 649.034057 35.902602 
L 649.608108 35.902602 
L 649.608108 34.366979 
L 650.182158 34.366979 
L 650.182158 34.783191 
L 650.756208 34.783191 
L 650.756208 34.899645 
L 651.330259 34.899645 
L 651.330259 34.444793 
L 651.904309 34.444793 
L 651.904309 34.051689 
L 653.052409 33.94433 
L 653.052409 33.461115 
L 653.62646 33.461115 
L 653.62646 33.852447 
L 654.20051 33.852447 
L 654.20051 35.647658 
L 654.77456 35.647658 
L 654.77456 35.839723 
L 655.348611 35.839723 
L 655.348611 36.829806 
L 655.922661 36.829806 
L 655.922661 35.961304 
L 656.496711 35.961304 
L 656.496711 38.915935 
L 657.070761 38.915935 
L 657.070761 39.626322 
L 657.644812 39.626322 
L 657.644812 40.009268 
L 658.218862 40.009268 
L 658.218862 40.260821 
L 658.792912 40.260821 
L 658.792912 39.097597 
L 659.366963 39.097597 
L 659.366963 38.478457 
L 659.941013 38.478457 
L 659.941013 40.158988 
L 660.515063 40.158988 
L 660.515063 39.766251 
L 661.089113 39.766251 
L 661.089113 41.630879 
L 661.663164 41.630879 
L 661.663164 42.230411 
L 662.237214 42.230411 
L 662.237214 41.640756 
L 662.811264 41.640756 
L 662.811264 41.977176 
L 663.385315 41.977176 
L 663.385315 45.769103 
L 663.959365 45.769103 
L 663.959365 44.792716 
L 664.533415 44.792716 
L 664.533415 44.205754 
L 665.107465 44.205754 
L 665.107465 44.64699 
L 665.681516 44.64699 
L 665.681516 41.302234 
L 666.255566 41.302234 
L 666.255566 41.967826 
L 666.829616 41.967826 
L 666.829616 40.983936 
L 667.403667 40.983936 
L 667.403667 43.077952 
L 667.977717 43.077952 
L 667.977717 44.53978 
L 668.551767 44.53978 
L 668.551767 44.319141 
L 669.125818 44.319141 
L 669.125818 41.938028 
L 669.699868 41.938028 
L 669.699868 44.145692 
L 670.273918 44.145692 
L 670.273918 43.775993 
L 670.847968 43.775993 
L 670.847968 43.478474 
L 671.422019 43.478474 
L 671.422019 42.052534 
L 671.996069 42.052534 
L 671.996069 41.731258 
L 672.570119 41.731258 
L 672.570119 39.965862 
L 673.14417 39.965862 
L 673.14417 40.537864 
L 673.71822 40.537864 
L 673.71822 40.071832 
L 674.29227 40.071832 
L 674.29227 42.025693 
L 674.86632 42.025693 
L 674.86632 43.084369 
L 675.440371 43.084369 
L 675.440371 42.941748 
L 676.014421 42.941748 
L 676.014421 42.458177 
L 676.588471 42.458177 
L 676.588471 43.404879 
L 677.162522 43.404879 
L 677.162522 43.250954 
L 677.736572 43.250954 
L 677.736572 43.895458 
L 678.310622 43.895458 
L 678.310622 45.238463 
L 678.884672 45.238463 
L 678.884672 48.238099 
L 679.458723 48.238099 
L 679.458723 48.847626 
L 680.032773 48.847626 
L 680.032773 49.797937 
L 680.606823 49.797937 
L 680.606823 48.712009 
L 681.180874 48.712009 
L 681.180874 49.442895 
L 681.754924 49.442895 
L 681.754924 47.783566 
L 682.328974 47.783566 
L 682.328974 49.110975 
L 682.903024 49.110975 
L 682.903024 48.164653 
L 683.477075 48.164653 
L 683.477075 50.034292 
L 684.051125 50.034292 
L 684.051125 54.614113 
L 684.625175 54.614113 
L 684.625175 56.484341 
L 685.199226 56.484341 
L 685.199226 55.957072 
L 685.773276 55.957072 
L 685.773276 56.327142 
L 686.347326 56.327142 
L 686.347326 57.808094 
L 686.921376 57.808094 
L 686.921376 56.836968 
L 687.495427 56.836968 
L 687.495427 55.493026 
L 688.069477 55.493026 
L 688.069477 56.795548 
L 688.643527 56.795548 
L 688.643527 56.257605 
L 689.217578 56.257605 
L 689.217578 54.085329 
L 689.791628 54.085329 
L 689.791628 55.756335 
L 690.365678 55.756335 
L 690.365678 53.54099 
L 690.939729 53.54099 
L 690.939729 54.234946 
L 692.087829 54.265105 
L 692.087829 53.400127 
L 692.661879 53.400127 
L 692.661879 53.105575 
L 693.23593 53.105575 
L 693.23593 54.050844 
L 693.80998 54.050844 
L 693.80998 55.660458 
L 694.38403 55.660458 
L 694.38403 56.786013 
L 694.958081 56.786013 
L 694.958081 57.226672 
L 696.106181 57.184298 
L 696.106181 57.752564 
L 696.680231 57.752564 
L 696.680231 55.297323 
L 697.254282 55.297323 
L 697.254282 57.326421 
L 697.828332 57.326421 
L 697.828332 57.482101 
L 698.402382 57.482101 
L 698.402382 57.752045 
L 698.976433 57.752045 
L 698.976433 57.935388 
L 699.550483 57.935388 
L 699.550483 57.716642 
L 700.124533 57.716642 
L 700.124533 56.850985 
L 700.698583 56.850985 
L 700.698583 57.585183 
L 702.420734 57.475163 
L 702.420734 57.865846 
L 702.994785 57.865846 
L 702.994785 56.917156 
L 703.568835 56.917156 
L 703.568835 56.21722 
L 704.142885 56.21722 
L 704.142885 56.864695 
L 704.716935 56.864695 
L 704.716935 56.117241 
L 705.290986 56.117241 
L 705.290986 59.63537 
L 705.865036 59.63537 
L 705.865036 60.764787 
L 706.439086 60.764787 
L 706.439086 60.650097 
L 707.013137 60.650097 
L 707.013137 61.245276 
L 707.587187 61.245276 
L 707.587187 60.927835 
L 708.161237 60.927835 
L 708.161237 60.073343 
L 710.457438 60.031104 
L 710.457438 60.70494 
L 711.031489 60.70494 
L 711.031489 60.386024 
L 712.179589 60.465016 
L 712.179589 60.823651 
L 713.32769 60.73372 
L 713.32769 60.478926 
L 713.90174 60.478926 
L 713.90174 60.048338 
L 714.47579 60.048338 
L 714.47579 57.085162 
L 715.049841 57.085162 
L 715.049841 55.903123 
L 715.623891 55.903123 
L 715.623891 54.418161 
L 716.197941 54.418161 
L 716.197941 54.14107 
L 716.771992 54.14107 
L 716.771992 53.571445 
L 717.346042 53.571445 
L 717.346042 53.827217 
L 717.920092 53.827217 
L 717.920092 54.425867 
L 718.494142 54.425867 
L 718.494142 55.441172 
L 719.068193 55.441172 
L 719.068193 54.917476 
L 719.642243 54.917476 
L 719.642243 52.837973 
L 720.216293 52.837973 
L 720.216293 53.2123 
L 720.790344 53.2123 
L 720.790344 53.734608 
L 721.938444 53.816161 
L 721.938444 54.738995 
L 722.512494 54.738995 
L 722.512494 56.794399 
L 723.086545 56.794399 
L 723.086545 52.73621 
L 723.660595 52.73621 
L 723.660595 51.025874 
L 724.234645 51.025874 
L 724.234645 50.78166 
L 724.808696 50.78166 
L 724.808696 50.279327 
L 725.956796 50.255579 
L 725.956796 50.421182 
L 727.104897 50.332539 
L 727.104897 48.741108 
L 728.252997 48.685316 
L 728.252997 49.694433 
L 728.827048 49.694433 
L 728.827048 50.574259 
L 729.401098 50.574259 
L 729.401098 49.247346 
L 729.975148 49.247346 
L 729.975148 50.217327 
L 730.549198 50.217327 
L 730.549198 49.209993 
L 731.123249 49.209993 
L 731.123249 50.538329 
L 731.697299 50.538329 
L 731.697299 51.167033 
L 732.271349 51.167033 
L 732.271349 50.714329 
L 732.8454 50.714329 
L 732.8454 51.189006 
L 733.41945 51.189006 
L 733.41945 51.39916 
L 733.9935 51.39916 
L 733.9935 50.462698 
L 734.567551 50.462698 
L 734.567551 50.821593 
L 735.715651 50.827687 
L 735.715651 51.877199 
L 736.289701 51.877199 
L 736.289701 52.447519 
L 736.863752 52.447519 
L 736.863752 51.505504 
L 737.437802 51.505504 
L 737.437802 48.961751 
L 738.011852 48.961751 
L 738.011852 48.720107 
L 738.585903 48.720107 
L 738.585903 48.585039 
L 739.159953 48.585039 
L 739.159953 48.386622 
L 739.734003 48.386622 
L 739.734003 48.754646 
L 740.308053 48.754646 
L 740.308053 48.637599 
L 741.456154 48.737598 
L 741.456154 49.029808 
L 742.030204 49.029808 
L 742.030204 49.453532 
L 743.178305 49.359234 
L 743.178305 49.109726 
L 743.752355 49.109726 
L 743.752355 49.543249 
L 744.326405 49.543249 
L 744.326405 49.189362 
L 744.900456 49.189362 
L 744.900456 49.3813 
L 745.474506 49.3813 
L 745.474506 51.259884 
L 746.048556 51.259884 
L 746.048556 51.668657 
L 747.196657 51.725466 
L 747.196657 50.472396 
L 747.770707 50.472396 
L 747.770707 51.864599 
L 749.492858 51.8927 
L 749.492858 51.354783 
L 750.066908 51.354783 
L 750.066908 51.183624 
L 750.640959 51.183624 
L 750.640959 51.320214 
L 751.215009 51.320214 
L 751.215009 51.600224 
L 751.789059 51.600224 
L 751.789059 51.029557 
L 752.363109 51.029557 
L 752.363109 50.424546 
L 753.51121 50.324199 
L 753.51121 51.187441 
L 754.08526 51.187441 
L 754.08526 49.912545 
L 754.659311 49.912545 
L 754.659311 49.110408 
L 755.233361 49.110408 
L 755.233361 46.447949 
L 756.381462 46.337173 
L 756.381462 45.559429 
L 756.955512 45.559429 
L 756.955512 45.782288 
L 757.529562 45.782288 
L 757.529562 44.862049 
L 759.251713 44.901357 
L 759.251713 45.352285 
L 759.825763 45.352285 
L 759.825763 44.268009 
L 760.973864 44.232842 
L 760.973864 43.147477 
L 761.547914 43.147477 
L 761.547914 41.548339 
L 762.121964 41.548339 
L 762.121964 42.524837 
L 762.696015 42.524837 
L 762.696015 42.189432 
L 763.270065 42.189432 
L 763.270065 42.033426 
L 763.844115 42.033426 
L 763.844115 41.344173 
L 764.418166 41.344173 
L 764.418166 41.468907 
L 764.992216 41.468907 
L 764.992216 42.039555 
L 765.566266 42.039555 
L 765.566266 41.140191 
L 766.140316 41.140191 
L 766.140316 39.917241 
L 766.714367 39.917241 
L 766.714367 41.759791 
L 767.288417 41.759791 
L 767.288417 41.625413 
L 767.862467 41.625413 
L 767.862467 42.321358 
L 768.436518 42.321358 
L 768.436518 43.101212 
L 769.010568 43.101212 
L 769.010568 42.143586 
L 769.584618 42.143586 
L 769.584618 41.65852 
L 770.158668 41.65852 
L 770.158668 41.849134 
L 770.732719 41.849134 
L 770.732719 39.848234 
L 771.306769 39.848234 
L 771.306769 38.770928 
L 771.880819 38.770928 
L 771.880819 38.002222 
L 773.60297 37.985794 
L 773.60297 34.626921 
L 774.17702 34.626921 
L 774.17702 32.39675 
L 775.325121 32.41749 
L 775.325121 31.505466 
L 775.899171 31.505466 
L 775.899171 33.318032 
L 776.473222 33.318032 
L 776.473222 32.549792 
L 777.047272 32.549792 
L 777.047272 32.736864 
L 777.621322 32.736864 
L 777.621322 31.712319 
L 778.195373 31.712319 
L 778.195373 32.012747 
L 778.769423 32.012747 
L 778.769423 32.549721 
L 779.343473 32.549721 
L 779.343473 32.174183 
L 779.917523 32.174183 
L 779.917523 33.715737 
L 780.491574 33.715737 
L 780.491574 34.591585 
L 781.065624 34.591585 
L 781.065624 33.426862 
L 781.639674 33.426862 
L 781.639674 33.570305 
L 782.213725 33.570305 
L 782.213725 33.774332 
L 782.787775 33.774332 
L 782.787775 34.073841 
L 783.361825 34.073841 
L 783.361825 34.253605 
L 783.935875 34.253605 
L 783.935875 34.747348 
L 784.509926 34.747348 
L 784.509926 33.033161 
L 785.658026 33.025017 
L 785.658026 32.524704 
L 786.232077 32.524704 
L 786.232077 32.106969 
L 786.806127 32.106969 
L 786.806127 32.659967 
L 787.380177 32.659967 
L 787.380177 31.769425 
L 787.954227 31.769425 
L 787.954227 32.128992 
L 788.528278 32.128992 
L 788.528278 32.437178 
L 789.102328 32.437178 
L 789.102328 32.913262 
L 789.676378 32.913262 
L 789.676378 33.463747 
L 790.250429 33.463747 
L 790.250429 34.92144 
L 791.398529 34.909438 
L 791.398529 34.348633 
L 791.972579 34.348633 
L 791.972579 35.602153 
L 792.54663 35.602153 
L 792.54663 35.782448 
L 793.12068 35.782448 
L 793.12068 34.749858 
L 793.69473 34.749858 
L 793.69473 33.73174 
L 794.268781 33.73174 
L 794.268781 32.626657 
L 795.416881 32.532774 
L 795.416881 33.051048 
L 795.990931 33.051048 
L 795.990931 34.789917 
L 796.564982 34.789917 
L 796.564982 36.745077 
L 797.139032 36.745077 
L 797.139032 35.447462 
L 797.713082 35.447462 
L 797.713082 35.858777 
L 798.287133 35.858777 
L 798.287133 35.190253 
L 798.861183 35.190253 
L 798.861183 33.696253 
L 799.435233 33.696253 
L 799.435233 35.193314 
L 800.009284 35.193314 
L 800.009284 35.361718 
L 800.583334 35.361718 
L 800.583334 35.705012 
L 801.157384 35.705012 
L 801.157384 36.809342 
L 801.731434 36.809342 
L 801.731434 35.64646 
L 802.879535 35.626323 
L 802.879535 33.969671 
L 803.453585 33.969671 
L 803.453585 33.634778 
L 804.027636 33.634778 
L 804.027636 33.139462 
L 804.601686 33.139462 
L 804.601686 34.802204 
L 805.175736 34.802204 
L 805.175736 34.096256 
L 805.749786 34.096256 
L 805.749786 34.924862 
L 806.323837 34.924862 
L 806.323837 33.090867 
L 806.897887 33.090867 
L 806.897887 32.38254 
L 807.471937 32.38254 
L 807.471937 32.694641 
L 808.620038 32.798795 
L 808.620038 31.27132 
L 809.194088 31.27132 
L 809.194088 32.289673 
L 809.768138 32.289673 
L 809.768138 30.299405 
L 810.342189 30.299405 
L 810.342189 27.180553 
L 810.916239 27.180553 
L 810.916239 26.658369 
L 811.490289 26.658369 
L 811.490289 26.373116 
L 812.06434 26.373116 
L 812.06434 25.233636 
L 812.63839 25.233636 
L 812.63839 25.609949 
L 813.21244 25.609949 
L 813.21244 25.337003 
L 814.934591 25.297523 
L 814.934591 24.491571 
L 815.508641 24.491571 
L 815.508641 23.586855 
L 816.082692 23.586855 
L 816.082692 25.346699 
L 816.656742 25.346699 
L 816.656742 24.924032 
L 817.230792 24.924032 
L 817.230792 26.121666 
L 817.804842 26.121666 
L 817.804842 25.423666 
L 818.378893 25.423666 
L 818.378893 24.337063 
L 818.952943 24.337063 
L 818.952943 25.873486 
L 819.526993 25.873486 
L 819.526993 25.491296 
L 820.101044 25.491296 
L 820.101044 23.919231 
L 820.675094 23.919231 
L 820.675094 24.067841 
L 821.249144 24.067841 
L 821.249144 24.270709 
L 821.823195 24.270709 
L 821.823195 23.855056 
L 822.397245 23.855056 
L 822.397245 24.50199 
L 822.971295 24.50199 
L 822.971295 25.488483 
L 823.545345 25.488483 
L 823.545345 25.652782 
L 824.119396 25.652782 
L 824.119396 25.271223 
L 824.693446 25.271223 
L 824.693446 25.467314 
L 825.841547 25.543726 
L 825.841547 28.122026 
L 826.415597 28.122026 
L 826.415597 27.78511 
L 826.989647 27.78511 
L 826.989647 27.631272 
L 827.563697 27.631272 
L 827.563697 28.549278 
L 828.137748 28.549278 
L 828.137748 28.194622 
L 828.711798 28.194622 
L 828.711798 27.603109 
L 829.285848 27.603109 
L 829.285848 27.79086 
L 829.859899 27.79086 
L 829.859899 27.52942 
L 830.433949 27.52942 
L 830.433949 28.628761 
L 831.007999 28.628761 
L 831.007999 28.31314 
L 831.582049 28.31314 
L 831.582049 30.209848 
L 832.1561 30.209848 
L 832.1561 27.971769 
L 832.73015 27.971769 
L 832.73015 28.267427 
L 833.3042 28.267427 
L 833.3042 27.997767 
L 833.878251 27.997767 
L 833.878251 26.028875 
L 834.452301 26.028875 
L 834.452301 25.81108 
L 835.026351 25.81108 
L 835.026351 25.408497 
L 836.174452 25.430955 
L 836.174452 23.850792 
L 836.748502 23.850792 
L 836.748502 24.084244 
L 837.322552 24.084244 
L 837.322552 23.536214 
L 837.896603 23.536214 
L 837.896603 22.563278 
L 838.470653 22.563278 
L 838.470653 22.969087 
L 839.044703 22.969087 
L 839.044703 23.992494 
L 839.618753 23.992494 
L 839.618753 23.723455 
L 840.766854 23.685773 
L 840.766854 23.114651 
L 841.340904 23.114651 
L 841.340904 23.699869 
L 841.914955 23.699869 
L 841.914955 23.867227 
L 842.489005 23.867227 
L 842.489005 23.733748 
L 843.063055 23.733748 
L 843.063055 23.407606 
L 843.637106 23.407606 
L 843.637106 23.67197 
L 844.211156 23.67197 
L 844.211156 23.196894 
L 844.785206 23.196894 
L 844.785206 22.63816 
L 845.359256 22.63816 
L 845.359256 21.283255 
L 846.507357 21.252761 
L 846.507357 21.562443 
L 848.229508 21.480964 
L 848.229508 22.420458 
L 848.803558 22.420458 
L 848.803558 21.979852 
L 849.377608 21.979852 
L 849.377608 21.249643 
L 849.951659 21.249643 
L 849.951659 21.402591 
L 850.525709 21.402591 
L 850.525709 21.76739 
L 851.67381 21.66157 
L 851.67381 22.548708 
L 852.24786 22.548708 
L 852.24786 23.095814 
L 852.82191 23.095814 
L 852.82191 22.560524 
L 853.970011 22.661532 
L 853.970011 21.894154 
L 855.692162 21.864056 
L 855.692162 22.511697 
L 856.266212 22.511697 
L 856.266212 22.931157 
L 856.840262 22.931157 
L 856.840262 21.363749 
L 857.414312 21.363749 
L 857.414312 20.552727 
L 857.988363 20.552727 
L 857.988363 20.852518 
L 858.562413 20.852518 
L 858.562413 21.946446 
L 859.136463 21.946446 
L 859.136463 23.528444 
L 859.710514 23.528444 
L 859.710514 23.159011 
L 860.284564 23.159011 
L 860.284564 22.578441 
L 860.858614 22.578441 
L 860.858614 22.861951 
L 862.006715 22.765112 
L 862.006715 24.528115 
L 862.580765 24.528115 
L 862.580765 23.623438 
L 863.154815 23.623438 
L 863.154815 25.937762 
L 863.728866 25.937762 
L 863.728866 26.241358 
L 864.302916 26.241358 
L 864.302916 28.114511 
L 864.876966 28.114511 
L 864.876966 26.77875 
L 866.025067 26.81 
L 866.025067 26.4225 
L 866.599117 26.4225 
L 866.599117 26.750885 
L 867.747218 26.833691 
L 867.747218 27.381199 
L 868.321268 27.381199 
L 868.321268 27.267051 
L 868.895318 27.267051 
L 868.895318 27.433167 
L 870.043419 27.38126 
L 870.043419 27.177108 
L 870.617469 27.177108 
L 870.617469 26.047721 
L 871.191519 26.047721 
L 871.191519 26.78359 
L 871.76557 26.78359 
L 871.76557 25.740447 
L 872.91367 25.790073 
L 872.91367 27.033228 
L 873.487721 27.033228 
L 873.487721 27.671621 
L 874.061771 27.671621 
L 874.061771 28.141547 
L 874.635821 28.141547 
L 874.635821 29.585924 
L 875.209871 29.585924 
L 875.209871 31.778773 
L 875.783922 31.778773 
L 875.783922 32.275099 
L 876.357972 32.275099 
L 876.357972 31.997414 
L 876.932022 31.997414 
L 876.932022 32.976194 
L 877.506073 32.976194 
L 877.506073 32.621431 
L 878.654173 32.664182 
L 878.654173 32.280477 
L 879.228223 32.280477 
L 879.228223 32.469842 
L 879.802274 32.469842 
L 879.802274 31.94932 
L 880.376324 31.94932 
L 880.376324 31.581416 
L 881.524425 31.568816 
L 881.524425 32.551997 
L 882.098475 32.551997 
L 882.098475 32.27942 
L 882.672525 32.27942 
L 882.672525 32.895954 
L 883.820626 32.824821 
L 883.820626 31.376903 
L 884.394676 31.376903 
L 884.394676 31.068738 
L 884.968726 31.068738 
L 884.968726 30.594729 
L 885.542777 30.594729 
L 885.542777 30.85284 
L 886.116827 30.85284 
L 886.116827 29.691368 
L 886.690877 29.691368 
L 886.690877 29.814237 
L 887.194182 29.814237 
L 887.194182 29.814237 
" clip-path="url(#pa2f0ae7d16)" style="fill: none; stroke: #3572c6; stroke-width: 1.2; stroke-linecap: square"/>
   </g>
   <g id="line2d_79">
    <path d="M 75.557818 20.552727 
L 887.194182 20.552727 
L 887.194182 20.552727 
" clip-path="url(#pa2f0ae7d16)" style="fill: none; stroke: #83a83b; stroke-width: 1.2; stroke-linecap: square"/>
   </g>
   <g id="line2d_80">
    <path d="M 75.557818 32.976194 
L 887.194182 32.976194 
L 887.194182 32.976194 
" clip-path="url(#pa2f0ae7d16)" style="fill: none; stroke: #c44e52; stroke-width: 1.2; stroke-linecap: square"/>
   </g>
   <g id="line2d_81">
    <path d="M 857.988363 300.96 
L 857.988363 7.2 
" clip-path="url(#pa2f0ae7d16)" style="fill: none; stroke: #83a83b; stroke-width: 1.2; stroke-linecap: square"/>
   </g>
   <g id="line2d_82">
    <path d="M 877.506073 300.96 
L 877.506073 7.2 
" clip-path="url(#pa2f0ae7d16)" style="fill: none; stroke: #c44e52; stroke-width: 1.2; stroke-linecap: square"/>
   </g>
   <g id="patch_3">
    <path d="M 34.976 300.96 
L 34.976 7.2 
" style="fill: none; stroke: #899ab8; stroke-width: 1.12; stroke-linejoin: miter; stroke-linecap: square"/>
   </g>
   <g id="patch_4">
    <path d="M 927.776 300.96 
L 927.776 7.2 
" style="fill: none; stroke: #899ab8; stroke-width: 1.12; stroke-linejoin: miter; stroke-linecap: square"/>
   </g>
   <g id="patch_5">
    <path d="M 34.976 300.96 
L 927.776 300.96 
" style="fill: none; stroke: #899ab8; stroke-width: 1.12; stroke-linejoin: miter; stroke-linecap: square"/>
   </g>
   <g id="patch_6">
    <path d="M 34.976 7.2 
L 927.776 7.2 
" style="fill: none; stroke: #899ab8; stroke-width: 1.12; stroke-linejoin: miter; stroke-linecap: square"/>
   </g>
   <g id="text_16">
    <!-- 123519.47 -->
    <g style="fill: #83a83b" transform="translate(180.321996 20.552727) scale(0.132 -0.132)">
     <defs>
      <path id="DejaVuSans-39" d="M 703 97 
L 703 672 
Q 941 559 1184 500 
Q 1428 441 1663 441 
Q 2288 441 2617 861 
Q 2947 1281 2994 2138 
Q 2813 1869 2534 1725 
Q 2256 1581 1919 1581 
Q 1219 1581 811 2004 
Q 403 2428 403 3163 
Q 403 3881 828 4315 
Q 1253 4750 1959 4750 
Q 2769 4750 3195 4129 
Q 3622 3509 3622 2328 
Q 3622 1225 3098 567 
Q 2575 -91 1691 -91 
Q 1453 -91 1209 -44 
Q 966 3 703 97 
z
M 1959 2075 
Q 2384 2075 2632 2365 
Q 2881 2656 2881 3163 
Q 2881 3666 2632 3958 
Q 2384 4250 1959 4250 
Q 1534 4250 1286 3958 
Q 1038 3666 1038 3163 
Q 1038 2656 1286 2365 
Q 1534 2075 1959 2075 
z
" transform="scale(0.015625)"/>
      <path id="DejaVuSans-2e" d="M 684 794 
L 1344 794 
L 1344 0 
L 684 0 
L 684 794 
z
" transform="scale(0.015625)"/>
      <path id="DejaVuSans-37" d="M 525 4666 
L 3525 4666 
L 3525 4397 
L 1831 0 
L 1172 0 
L 2766 4134 
L 525 4134 
L 525 4666 
z
" transform="scale(0.015625)"/>
     </defs>
     <use xlink:href="#DejaVuSans-31"/>
     <use xlink:href="#DejaVuSans-32" transform="translate(63.623047 0)"/>
     <use xlink:href="#DejaVuSans-33" transform="translate(127.246094 0)"/>
     <use xlink:href="#DejaVuSans-35" transform="translate(190.869141 0)"/>
     <use xlink:href="#DejaVuSans-31" transform="translate(254.492188 0)"/>
     <use xlink:href="#DejaVuSans-39" transform="translate(318.115234 0)"/>
     <use xlink:href="#DejaVuSans-2e" transform="translate(381.738281 0)"/>
     <use xlink:href="#DejaVuSans-34" transform="translate(413.525391 0)"/>
     <use xlink:href="#DejaVuSans-37" transform="translate(477.148438 0)"/>
    </g>
   </g>
   <g id="text_17">
    <!-- 66427.8 -->
    <g style="fill: #c44e52" transform="translate(180.321996 32.976194) scale(0.132 -0.132)">
     <use xlink:href="#DejaVuSans-36"/>
     <use xlink:href="#DejaVuSans-36" transform="translate(63.623047 0)"/>
     <use xlink:href="#DejaVuSans-34" transform="translate(127.246094 0)"/>
     <use xlink:href="#DejaVuSans-32" transform="translate(190.869141 0)"/>
     <use xlink:href="#DejaVuSans-37" transform="translate(254.492188 0)"/>
     <use xlink:href="#DejaVuSans-2e" transform="translate(318.115234 0)"/>
     <use xlink:href="#DejaVuSans-38" transform="translate(349.902344 0)"/>
    </g>
   </g>
   <g id="legend_1">
    <g id="patch_7">
     <path d="M 43.796 183.886875 
L 142.133094 183.886875 
Q 144.653094 183.886875 144.653094 181.366875 
L 144.653094 126.793125 
Q 144.653094 124.273125 142.133094 124.273125 
L 43.796 124.273125 
Q 41.276 124.273125 41.276 126.793125 
L 41.276 181.366875 
Q 41.276 183.886875 43.796 183.886875 
z
" style="fill: #373e4b; opacity: 0.8; stroke: #cccccc; stroke-width: 0.16; stroke-linejoin: miter"/>
    </g>
    <g id="line2d_83">
     <path d="M 46.316 134.477156 
L 46.316 134.477156 
L 58.916 134.477156 
L 58.916 134.477156 
L 71.516 134.477156 
" style="fill: none; stroke: #3572c6; stroke-width: 1.2; stroke-linecap: square"/>
    </g>
    <g id="text_18">
     <!-- USD/BTC -->
     <g style="fill: #b1bed6" transform="translate(81.596 138.887156) scale(0.126 -0.126)">
      <defs>
       <path id="DejaVuSans-55" d="M 556 4666 
L 1191 4666 
L 1191 1831 
Q 1191 1081 1462 751 
Q 1734 422 2344 422 
Q 2950 422 3222 751 
Q 3494 1081 3494 1831 
L 3494 4666 
L 4128 4666 
L 4128 1753 
Q 4128 841 3676 375 
Q 3225 -91 2344 -91 
Q 1459 -91 1007 375 
Q 556 841 556 1753 
L 556 4666 
z
" transform="scale(0.015625)"/>
       <path id="DejaVuSans-53" d="M 3425 4513 
L 3425 3897 
Q 3066 4069 2747 4153 
Q 2428 4238 2131 4238 
Q 1616 4238 1336 4038 
Q 1056 3838 1056 3469 
Q 1056 3159 1242 3001 
Q 1428 2844 1947 2747 
L 2328 2669 
Q 3034 2534 3370 2195 
Q 3706 1856 3706 1288 
Q 3706 609 3251 259 
Q 2797 -91 1919 -91 
Q 1588 -91 1214 -16 
Q 841 59 441 206 
L 441 856 
Q 825 641 1194 531 
Q 1563 422 1919 422 
Q 2459 422 2753 634 
Q 3047 847 3047 1241 
Q 3047 1584 2836 1778 
Q 2625 1972 2144 2069 
L 1759 2144 
Q 1053 2284 737 2584 
Q 422 2884 422 3419 
Q 422 4038 858 4394 
Q 1294 4750 2059 4750 
Q 2388 4750 2728 4690 
Q 3069 4631 3425 4513 
z
" transform="scale(0.015625)"/>
       <path id="DejaVuSans-2f" d="M 1625 4666 
L 2156 4666 
L 531 -594 
L 0 -594 
L 1625 4666 
z
" transform="scale(0.015625)"/>
       <path id="DejaVuSans-42" d="M 1259 2228 
L 1259 519 
L 2272 519 
Q 2781 519 3026 730 
Q 3272 941 3272 1375 
Q 3272 1813 3026 2020 
Q 2781 2228 2272 2228 
L 1259 2228 
z
M 1259 4147 
L 1259 2741 
L 2194 2741 
Q 2656 2741 2882 2914 
Q 3109 3088 3109 3444 
Q 3109 3797 2882 3972 
Q 2656 4147 2194 4147 
L 1259 4147 
z
M 628 4666 
L 2241 4666 
Q 2963 4666 3353 4366 
Q 3744 4066 3744 3513 
Q 3744 3084 3544 2831 
Q 3344 2578 2956 2516 
Q 3422 2416 3680 2098 
Q 3938 1781 3938 1306 
Q 3938 681 3513 340 
Q 3088 0 2303 0 
L 628 0 
L 628 4666 
z
" transform="scale(0.015625)"/>
       <path id="DejaVuSans-54" d="M -19 4666 
L 3928 4666 
L 3928 4134 
L 2272 4134 
L 2272 0 
L 1638 0 
L 1638 4134 
L -19 4134 
L -19 4666 
z
" transform="scale(0.015625)"/>
       <path id="DejaVuSans-43" d="M 4122 4306 
L 4122 3641 
Q 3803 3938 3442 4084 
Q 3081 4231 2675 4231 
Q 1875 4231 1450 3742 
Q 1025 3253 1025 2328 
Q 1025 1406 1450 917 
Q 1875 428 2675 428 
Q 3081 428 3442 575 
Q 3803 722 4122 1019 
L 4122 359 
Q 3791 134 3420 21 
Q 3050 -91 2638 -91 
Q 1578 -91 968 557 
Q 359 1206 359 2328 
Q 359 3453 968 4101 
Q 1578 4750 2638 4750 
Q 3056 4750 3426 4639 
Q 3797 4528 4122 4306 
z
" transform="scale(0.015625)"/>
      </defs>
      <use xlink:href="#DejaVuSans-55"/>
      <use xlink:href="#DejaVuSans-53" transform="translate(73.193359 0)"/>
      <use xlink:href="#DejaVuSans-44" transform="translate(136.669922 0)"/>
      <use xlink:href="#DejaVuSans-2f" transform="translate(213.671875 0)"/>
      <use xlink:href="#DejaVuSans-42" transform="translate(247.363281 0)"/>
      <use xlink:href="#DejaVuSans-54" transform="translate(315.966797 0)"/>
      <use xlink:href="#DejaVuSans-43" transform="translate(371.175781 0)"/>
     </g>
    </g>
    <g id="line2d_84">
     <path d="M 46.316 152.971594 
L 46.316 152.971594 
L 58.916 152.971594 
L 58.916 152.971594 
L 71.516 152.971594 
" style="fill: none; stroke: #83a83b; stroke-width: 1.2; stroke-linecap: square"/>
    </g>
    <g id="text_19">
     <!-- Max -->
     <g style="fill: #b1bed6" transform="translate(81.596 157.381594) scale(0.126 -0.126)">
      <defs>
       <path id="DejaVuSans-4d" d="M 628 4666 
L 1569 4666 
L 2759 1491 
L 3956 4666 
L 4897 4666 
L 4897 0 
L 4281 0 
L 4281 4097 
L 3078 897 
L 2444 897 
L 1241 4097 
L 1241 0 
L 628 0 
L 628 4666 
z
" transform="scale(0.015625)"/>
       <path id="DejaVuSans-78" d="M 3513 3500 
L 2247 1797 
L 3578 0 
L 2900 0 
L 1881 1375 
L 863 0 
L 184 0 
L 1544 1831 
L 300 3500 
L 978 3500 
L 1906 2253 
L 2834 3500 
L 3513 3500 
z
" transform="scale(0.015625)"/>
      </defs>
      <use xlink:href="#DejaVuSans-4d"/>
      <use xlink:href="#DejaVuSans-61" transform="translate(86.279297 0)"/>
      <use xlink:href="#DejaVuSans-78" transform="translate(147.558594 0)"/>
     </g>
    </g>
    <g id="line2d_85">
     <path d="M 46.316 171.466031 
L 46.316 171.466031 
L 58.916 171.466031 
L 58.916 171.466031 
L 71.516 171.466031 
" style="fill: none; stroke: #c44e52; stroke-width: 1.2; stroke-linecap: square"/>
    </g>
    <g id="text_20">
     <!-- local_Min -->
     <g style="fill: #b1bed6" transform="translate(81.596 175.876031) scale(0.126 -0.126)">
      <defs>
       <path id="DejaVuSans-6c" d="M 603 4863 
L 1178 4863 
L 1178 0 
L 603 0 
L 603 4863 
z
" transform="scale(0.015625)"/>
       <path id="DejaVuSans-6f" d="M 1959 3097 
Q 1497 3097 1228 2736 
Q 959 2375 959 1747 
Q 959 1119 1226 758 
Q 1494 397 1959 397 
Q 2419 397 2687 759 
Q 2956 1122 2956 1747 
Q 2956 2369 2687 2733 
Q 2419 3097 1959 3097 
z
M 1959 3584 
Q 2709 3584 3137 3096 
Q 3566 2609 3566 1747 
Q 3566 888 3137 398 
Q 2709 -91 1959 -91 
Q 1206 -91 779 398 
Q 353 888 353 1747 
Q 353 2609 779 3096 
Q 1206 3584 1959 3584 
z
" transform="scale(0.015625)"/>
       <path id="DejaVuSans-63" d="M 3122 3366 
L 3122 2828 
Q 2878 2963 2633 3030 
Q 2388 3097 2138 3097 
Q 1578 3097 1268 2742 
Q 959 2388 959 1747 
Q 959 1106 1268 751 
Q 1578 397 2138 397 
Q 2388 397 2633 464 
Q 2878 531 3122 666 
L 3122 134 
Q 2881 22 2623 -34 
Q 2366 -91 2075 -91 
Q 1284 -91 818 406 
Q 353 903 353 1747 
Q 353 2603 823 3093 
Q 1294 3584 2113 3584 
Q 2378 3584 2631 3529 
Q 2884 3475 3122 3366 
z
" transform="scale(0.015625)"/>
       <path id="DejaVuSans-5f" d="M 3263 -1063 
L 3263 -1509 
L -63 -1509 
L -63 -1063 
L 3263 -1063 
z
" transform="scale(0.015625)"/>
       <path id="DejaVuSans-69" d="M 603 3500 
L 1178 3500 
L 1178 0 
L 603 0 
L 603 3500 
z
M 603 4863 
L 1178 4863 
L 1178 4134 
L 603 4134 
L 603 4863 
z
" transform="scale(0.015625)"/>
       <path id="DejaVuSans-6e" d="M 3513 2113 
L 3513 0 
L 2938 0 
L 2938 2094 
Q 2938 2591 2744 2837 
Q 2550 3084 2163 3084 
Q 1697 3084 1428 2787 
Q 1159 2491 1159 1978 
L 1159 0 
L 581 0 
L 581 3500 
L 1159 3500 
L 1159 2956 
Q 1366 3272 1645 3428 
Q 1925 3584 2291 3584 
Q 2894 3584 3203 3211 
Q 3513 2838 3513 2113 
z
" transform="scale(0.015625)"/>
      </defs>
      <use xlink:href="#DejaVuSans-6c"/>
      <use xlink:href="#DejaVuSans-6f" transform="translate(27.783203 0)"/>
      <use xlink:href="#DejaVuSans-63" transform="translate(88.964844 0)"/>
      <use xlink:href="#DejaVuSans-61" transform="translate(143.945312 0)"/>
      <use xlink:href="#DejaVuSans-6c" transform="translate(205.224609 0)"/>
      <use xlink:href="#DejaVuSans-5f" transform="translate(233.007812 0)"/>
      <use xlink:href="#DejaVuSans-4d" transform="translate(283.007812 0)"/>
      <use xlink:href="#DejaVuSans-69" transform="translate(369.287109 0)"/>
      <use xlink:href="#DejaVuSans-6e" transform="translate(397.070312 0)"/>
     </g>
    </g>
   </g>
  </g>
 </g>
 <defs>
  <clipPath id="pa2f0ae7d16">
   <rect x="34.976" y="7.2" width="892.8" height="293.76"/>
  </clipPath>
 </defs>
</svg>
