<?xml version="1.0" encoding="utf-8" standalone="no"?>
<!DOCTYPE svg PUBLIC "-//W3C//DTD SVG 1.1//EN"
  "http://www.w3.org/Graphics/SVG/1.1/DTD/svg11.dtd">
<svg xmlns:xlink="http://www.w3.org/1999/xlink" width="934.976pt" height="359.10542pt" viewBox="0 0 934.976 359.10542" xmlns="http://www.w3.org/2000/svg" version="1.1">
 <metadata>
  <rdf:RDF xmlns:dc="http://purl.org/dc/elements/1.1/" xmlns:cc="http://creativecommons.org/ns#" xmlns:rdf="http://www.w3.org/1999/02/22-rdf-syntax-ns#">
   <cc:Work>
    <dc:type rdf:resource="http://purl.org/dc/dcmitype/StillImage"/>
    <dc:date>2026-08-24T03:39:52.308307</dc:date>
    <dc:format>image/svg+xml</dc:format>
    <dc:creator>
     <cc:Agent>
      <dc:title>Matplotlib v3.11.1, https://matplotlib.org/</dc:title>
     </cc:Agent>
    </dc:creator>
   </cc:Work>
  </rdf:RDF>
 </metadata>
 <defs>
  <style type="text/css">*{stroke-linejoin: round; stroke-linecap: butt}</style>
 </defs>
 <g id="figure_1">
  <g id="patch_1">
   <path d="M 0 359.10542 
L 934.976 359.10542 
L 934.976 0 
L 0 0 
z
" style="fill: #373e4b"/>
  </g>
  <g id="axes_1">
   <g id="patch_2">
    <path d="M 34.976 300.96 
L 927.776 300.96 
L 927.776 7.2 
L 34.976 7.2 
z
" style="fill: #373e4b"/>
   </g>
   <g id="matplotlib.axis_1">
    <g id="xtick_1">
     <g id="line2d_1">
      <path d="M 135.297398 300.96 
L 135.297398 7.2 
" clip-path="url(#p09d39e519e)" style="fill: none; stroke: #546379; stroke-width: 1.12; stroke-linecap: square"/>
     </g>
     <g id="line2d_2"/>
     <g id="text_1">
      <!-- 2012 -->
      <g style="fill: #b1bed6" transform="translate(106.013085 330.884002) rotate(-30) scale(0.126 -0.126)">
       <defs>
        <path id="DejaVuSans-15" d="M 1228 531 
L 3431 531 
L 3431 0 
L 469 0 
L 469 531 
Q 828 903 1448 1529 
Q 2069 2156 2228 2338 
Q 2531 2678 2651 2914 
Q 2772 3150 2772 3378 
Q 2772 3750 2511 3984 
Q 2250 4219 1831 4219 
Q 1534 4219 1204 4116 
Q 875 4013 500 3803 
L 500 4441 
Q 881 4594 1212 4672 
Q 1544 4750 1819 4750 
Q 2544 4750 2975 4387 
Q 3406 4025 3406 3419 
Q 3406 3131 3298 2873 
Q 3191 2616 2906 2266 
Q 2828 2175 2409 1742 
Q 1991 1309 1228 531 
z
" transform="scale(0.015625)"/>
        <path id="DejaVuSans-13" d="M 2034 4250 
Q 1547 4250 1301 3770 
Q 1056 3291 1056 2328 
Q 1056 1369 1301 889 
Q 1547 409 2034 409 
Q 2525 409 2770 889 
Q 3016 1369 3016 2328 
Q 3016 3291 2770 3770 
Q 2525 4250 2034 4250 
z
M 2034 4750 
Q 2819 4750 3233 4129 
Q 3647 3509 3647 2328 
Q 3647 1150 3233 529 
Q 2819 -91 2034 -91 
Q 1250 -91 836 529 
Q 422 1150 422 2328 
Q 422 3509 836 4129 
Q 1250 4750 2034 4750 
z
" transform="scale(0.015625)"/>
        <path id="DejaVuSans-14" d="M 794 531 
L 1825 531 
L 1825 4091 
L 703 3866 
L 703 4441 
L 1819 4666 
L 2450 4666 
L 2450 531 
L 3481 531 
L 3481 0 
L 794 0 
L 794 531 
z
" transform="scale(0.015625)"/>
       </defs>
       <use xlink:href="#DejaVuSans-15"/>
       <use xlink:href="#DejaVuSans-13" transform="translate(63.625 0)"/>
       <use xlink:href="#DejaVuSans-14" transform="translate(127.25 0)"/>
       <use xlink:href="#DejaVuSans-15" transform="translate(190.875 0)"/>
      </g>
     </g>
    </g>
    <g id="xtick_2">
     <g id="line2d_3">
      <path d="M 238.049475 300.96 
L 238.049475 7.2 
" clip-path="url(#p09d39e519e)" style="fill: none; stroke: #546379; stroke-width: 1.12; stroke-linecap: square"/>
     </g>
     <g id="line2d_4"/>
     <g id="text_2">
      <!-- 2014 -->
      <g style="fill: #b1bed6" transform="translate(208.765162 330.884002) rotate(-30) scale(0.126 -0.126)">
       <defs>
        <path id="DejaVuSans-17" d="M 2419 4116 
L 825 1625 
L 2419 1625 
L 2419 4116 
z
M 2253 4666 
L 3047 4666 
L 3047 1625 
L 3713 1625 
L 3713 1100 
L 3047 1100 
L 3047 0 
L 2419 0 
L 2419 1100 
L 313 1100 
L 313 1709 
L 2253 4666 
z
" transform="scale(0.015625)"/>
       </defs>
       <use xlink:href="#DejaVuSans-15"/>
       <use xlink:href="#DejaVuSans-13" transform="translate(63.625 0)"/>
       <use xlink:href="#DejaVuSans-14" transform="translate(127.25 0)"/>
       <use xlink:href="#DejaVuSans-17" transform="translate(190.875 0)"/>
      </g>
     </g>
    </g>
    <g id="xtick_3">
     <g id="line2d_5">
      <path d="M 340.660988 300.96 
L 340.660988 7.2 
" clip-path="url(#p09d39e519e)" style="fill: none; stroke: #546379; stroke-width: 1.12; stroke-linecap: square"/>
     </g>
     <g id="line2d_6"/>
     <g id="text_3">
      <!-- 2016 -->
      <g style="fill: #b1bed6" transform="translate(311.376675 330.884002) rotate(-30) scale(0.126 -0.126)">
       <defs>
        <path id="DejaVuSans-19" d="M 2113 2584 
Q 1688 2584 1439 2293 
Q 1191 2003 1191 1497 
Q 1191 994 1439 701 
Q 1688 409 2113 409 
Q 2538 409 2786 701 
Q 3034 994 3034 1497 
Q 3034 2003 2786 2293 
Q 2538 2584 2113 2584 
z
M 3366 4563 
L 3366 3988 
Q 3128 4100 2886 4159 
Q 2644 4219 2406 4219 
Q 1781 4219 1451 3797 
Q 1122 3375 1075 2522 
Q 1259 2794 1537 2939 
Q 1816 3084 2150 3084 
Q 2853 3084 3261 2657 
Q 3669 2231 3669 1497 
Q 3669 778 3244 343 
Q 2819 -91 2113 -91 
Q 1303 -91 875 529 
Q 447 1150 447 2328 
Q 447 3434 972 4092 
Q 1497 4750 2381 4750 
Q 2619 4750 2861 4703 
Q 3103 4656 3366 4563 
z
" transform="scale(0.015625)"/>
       </defs>
       <use xlink:href="#DejaVuSans-15"/>
       <use xlink:href="#DejaVuSans-13" transform="translate(63.625 0)"/>
       <use xlink:href="#DejaVuSans-14" transform="translate(127.25 0)"/>
       <use xlink:href="#DejaVuSans-19" transform="translate(190.875 0)"/>
      </g>
     </g>
    </g>
    <g id="xtick_4">
     <g id="line2d_7">
      <path d="M 443.413065 300.96 
L 443.413065 7.2 
" clip-path="url(#p09d39e519e)" style="fill: none; stroke: #546379; stroke-width: 1.12; stroke-linecap: square"/>
     </g>
     <g id="line2d_8"/>
     <g id="text_4">
      <!-- 2018 -->
      <g style="fill: #b1bed6" transform="translate(414.128752 330.884002) rotate(-30) scale(0.126 -0.126)">
       <defs>
        <path id="DejaVuSans-1b" d="M 2034 2216 
Q 1584 2216 1326 1975 
Q 1069 1734 1069 1313 
Q 1069 891 1326 650 
Q 1584 409 2034 409 
Q 2484 409 2743 651 
Q 3003 894 3003 1313 
Q 3003 1734 2745 1975 
Q 2488 2216 2034 2216 
z
M 1403 2484 
Q 997 2584 770 2862 
Q 544 3141 544 3541 
Q 544 4100 942 4425 
Q 1341 4750 2034 4750 
Q 2731 4750 3128 4425 
Q 3525 4100 3525 3541 
Q 3525 3141 3298 2862 
Q 3072 2584 2669 2484 
Q 3125 2378 3379 2068 
Q 3634 1759 3634 1313 
Q 3634 634 3220 271 
Q 2806 -91 2034 -91 
Q 1263 -91 848 271 
Q 434 634 434 1313 
Q 434 1759 690 2068 
Q 947 2378 1403 2484 
z
M 1172 3481 
Q 1172 3119 1398 2916 
Q 1625 2713 2034 2713 
Q 2441 2713 2670 2916 
Q 2900 3119 2900 3481 
Q 2900 3844 2670 4047 
Q 2441 4250 2034 4250 
Q 1625 4250 1398 4047 
Q 1172 3844 1172 3481 
z
" transform="scale(0.015625)"/>
       </defs>
       <use xlink:href="#DejaVuSans-15"/>
       <use xlink:href="#DejaVuSans-13" transform="translate(63.625 0)"/>
       <use xlink:href="#DejaVuSans-14" transform="translate(127.25 0)"/>
       <use xlink:href="#DejaVuSans-1b" transform="translate(190.875 0)"/>
      </g>
     </g>
    </g>
    <g id="xtick_5">
     <g id="line2d_9">
      <path d="M 546.024579 300.96 
L 546.024579 7.2 
" clip-path="url(#p09d39e519e)" style="fill: none; stroke: #546379; stroke-width: 1.12; stroke-linecap: square"/>
     </g>
     <g id="line2d_10"/>
     <g id="text_5">
      <!-- 2020 -->
      <g style="fill: #b1bed6" transform="translate(516.740265 330.884002) rotate(-30) scale(0.126 -0.126)">
       <use xlink:href="#DejaVuSans-15"/>
       <use xlink:href="#DejaVuSans-13" transform="translate(63.625 0)"/>
       <use xlink:href="#DejaVuSans-15" transform="translate(127.25 0)"/>
       <use xlink:href="#DejaVuSans-13" transform="translate(190.875 0)"/>
      </g>
     </g>
    </g>
    <g id="xtick_6">
     <g id="line2d_11">
      <path d="M 648.776656 300.96 
L 648.776656 7.2 
" clip-path="url(#p09d39e519e)" style="fill: none; stroke: #546379; stroke-width: 1.12; stroke-linecap: square"/>
     </g>
     <g id="line2d_12"/>
     <g id="text_6">
      <!-- 2022 -->
      <g style="fill: #b1bed6" transform="translate(619.492343 330.884002) rotate(-30) scale(0.126 -0.126)">
       <use xlink:href="#DejaVuSans-15"/>
       <use xlink:href="#DejaVuSans-13" transform="translate(63.625 0)"/>
       <use xlink:href="#DejaVuSans-15" transform="translate(127.25 0)"/>
       <use xlink:href="#DejaVuSans-15" transform="translate(190.875 0)"/>
      </g>
     </g>
    </g>
    <g id="xtick_7">
     <g id="line2d_13">
      <path d="M 751.388169 300.96 
L 751.388169 7.2 
" clip-path="url(#p09d39e519e)" style="fill: none; stroke: #546379; stroke-width: 1.12; stroke-linecap: square"/>
     </g>
     <g id="line2d_14"/>
     <g id="text_7">
      <!-- 2024 -->
      <g style="fill: #b1bed6" transform="translate(722.103856 330.884002) rotate(-30) scale(0.126 -0.126)">
       <use xlink:href="#DejaVuSans-15"/>
       <use xlink:href="#DejaVuSans-13" transform="translate(63.625 0)"/>
       <use xlink:href="#DejaVuSans-15" transform="translate(127.25 0)"/>
       <use xlink:href="#DejaVuSans-17" transform="translate(190.875 0)"/>
      </g>
     </g>
    </g>
    <g id="xtick_8">
     <g id="line2d_15">
      <path d="M 854.140246 300.96 
L 854.140246 7.2 
" clip-path="url(#p09d39e519e)" style="fill: none; stroke: #546379; stroke-width: 1.12; stroke-linecap: square"/>
     </g>
     <g id="line2d_16"/>
     <g id="text_8">
      <!-- 2026 -->
      <g style="fill: #b1bed6" transform="translate(824.855933 330.884002) rotate(-30) scale(0.126 -0.126)">
       <use xlink:href="#DejaVuSans-15"/>
       <use xlink:href="#DejaVuSans-13" transform="translate(63.625 0)"/>
       <use xlink:href="#DejaVuSans-15" transform="translate(127.25 0)"/>
       <use xlink:href="#DejaVuSans-19" transform="translate(190.875 0)"/>
      </g>
     </g>
    </g>
    <g id="text_9">
     <!-- Date -->
     <g style="fill: #b1bed6" transform="translate(464.166875 348.446045) scale(0.144 -0.144)">
      <defs>
       <path id="DejaVuSans-27" d="M 1259 4147 
L 1259 519 
L 2022 519 
Q 2988 519 3436 956 
Q 3884 1394 3884 2338 
Q 3884 3275 3436 3711 
Q 2988 4147 2022 4147 
L 1259 4147 
z
M 628 4666 
L 1925 4666 
Q 3281 4666 3915 4102 
Q 4550 3538 4550 2338 
Q 4550 1131 3912 565 
Q 3275 0 1925 0 
L 628 0 
L 628 4666 
z
" transform="scale(0.015625)"/>
       <path id="DejaVuSans-44" d="M 2194 1759 
Q 1497 1759 1228 1600 
Q 959 1441 959 1056 
Q 959 750 1161 570 
Q 1363 391 1709 391 
Q 2188 391 2477 730 
Q 2766 1069 2766 1631 
L 2766 1759 
L 2194 1759 
z
M 3341 1997 
L 3341 0 
L 2766 0 
L 2766 531 
Q 2569 213 2275 61 
Q 1981 -91 1556 -91 
Q 1019 -91 701 211 
Q 384 513 384 1019 
Q 384 1609 779 1909 
Q 1175 2209 1959 2209 
L 2766 2209 
L 2766 2266 
Q 2766 2663 2505 2880 
Q 2244 3097 1772 3097 
Q 1472 3097 1187 3025 
Q 903 2953 641 2809 
L 641 3341 
Q 956 3463 1253 3523 
Q 1550 3584 1831 3584 
Q 2591 3584 2966 3190 
Q 3341 2797 3341 1997 
z
" transform="scale(0.015625)"/>
       <path id="DejaVuSans-57" d="M 1172 4494 
L 1172 3500 
L 2356 3500 
L 2356 3053 
L 1172 3053 
L 1172 1153 
Q 1172 725 1289 603 
Q 1406 481 1766 481 
L 2356 481 
L 2356 0 
L 1766 0 
Q 1100 0 847 248 
Q 594 497 594 1153 
L 594 3053 
L 172 3053 
L 172 3500 
L 594 3500 
L 594 4494 
L 1172 4494 
z
" transform="scale(0.015625)"/>
       <path id="DejaVuSans-48" d="M 3597 1894 
L 3597 1613 
L 953 1613 
Q 991 1019 1311 708 
Q 1631 397 2203 397 
Q 2534 397 2845 478 
Q 3156 559 3463 722 
L 3463 178 
Q 3153 47 2828 -22 
Q 2503 -91 2169 -91 
Q 1331 -91 842 396 
Q 353 884 353 1716 
Q 353 2575 817 3079 
Q 1281 3584 2069 3584 
Q 2775 3584 3186 3129 
Q 3597 2675 3597 1894 
z
M 3022 2063 
Q 3016 2534 2758 2815 
Q 2500 3097 2075 3097 
Q 1594 3097 1305 2825 
Q 1016 2553 972 2059 
L 3022 2063 
z
" transform="scale(0.015625)"/>
      </defs>
      <use xlink:href="#DejaVuSans-27"/>
      <use xlink:href="#DejaVuSans-44" transform="translate(77 0)"/>
      <use xlink:href="#DejaVuSans-57" transform="translate(138.28125 0)"/>
      <use xlink:href="#DejaVuSans-48" transform="translate(177.484375 0)"/>
     </g>
    </g>
   </g>
   <g id="matplotlib.axis_2">
    <g id="ytick_1">
     <g id="line2d_17">
      <path d="M 34.976 255.37232 
L 927.776 255.37232 
" clip-path="url(#p09d39e519e)" style="fill: none; stroke: #546379; stroke-width: 1.12; stroke-linecap: square"/>
     </g>
     <g id="line2d_18"/>
     <g id="text_10">
      <!-- $\mathdefault{10^{0}}$ -->
      <g style="fill: #b1bed6" transform="translate(7.2 261.29432) scale(0.126 -0.126)">
       <use xlink:href="#DejaVuSans-14" transform="translate(0 0.746875)"/>
       <use xlink:href="#DejaVuSans-13" transform="translate(63.623047 0.746875)"/>
       <use xlink:href="#DejaVuSans-13" transform="translate(128.203125 42.046875) scale(0.7)"/>
      </g>
     </g>
    </g>
    <g id="ytick_2">
     <g id="line2d_19">
      <path d="M 34.976 209.254528 
L 927.776 209.254528 
" clip-path="url(#p09d39e519e)" style="fill: none; stroke: #546379; stroke-width: 1.12; stroke-linecap: square"/>
     </g>
     <g id="line2d_20"/>
     <g id="text_11">
      <!-- $\mathdefault{10^{1}}$ -->
      <g style="fill: #b1bed6" transform="translate(7.2 215.113528) scale(0.126 -0.126)">
       <use xlink:href="#DejaVuSans-14" transform="translate(0 0.665625)"/>
       <use xlink:href="#DejaVuSans-13" transform="translate(63.623047 0.665625)"/>
       <use xlink:href="#DejaVuSans-14" transform="translate(128.203125 41.965625) scale(0.7)"/>
      </g>
     </g>
    </g>
    <g id="ytick_3">
     <g id="line2d_21">
      <path d="M 34.976 163.136737 
L 927.776 163.136737 
" clip-path="url(#p09d39e519e)" style="fill: none; stroke: #546379; stroke-width: 1.12; stroke-linecap: square"/>
     </g>
     <g id="line2d_22"/>
     <g id="text_12">
      <!-- $\mathdefault{10^{2}}$ -->
      <g style="fill: #b1bed6" transform="translate(7.2 169.058737) scale(0.126 -0.126)">
       <use xlink:href="#DejaVuSans-14" transform="translate(0 0.746875)"/>
       <use xlink:href="#DejaVuSans-13" transform="translate(63.623047 0.746875)"/>
       <use xlink:href="#DejaVuSans-15" transform="translate(128.203125 42.046875) scale(0.7)"/>
      </g>
     </g>
    </g>
    <g id="ytick_4">
     <g id="line2d_23">
      <path d="M 34.976 117.018945 
L 927.776 117.018945 
" clip-path="url(#p09d39e519e)" style="fill: none; stroke: #546379; stroke-width: 1.12; stroke-linecap: square"/>
     </g>
     <g id="line2d_24"/>
     <g id="text_13">
      <!-- $\mathdefault{10^{3}}$ -->
      <g style="fill: #b1bed6" transform="translate(7.2 122.940945) scale(0.126 -0.126)">
       <defs>
        <path id="DejaVuSans-16" d="M 2597 2516 
Q 3050 2419 3304 2112 
Q 3559 1806 3559 1356 
Q 3559 666 3084 287 
Q 2609 -91 1734 -91 
Q 1441 -91 1130 -33 
Q 819 25 488 141 
L 488 750 
Q 750 597 1062 519 
Q 1375 441 1716 441 
Q 2309 441 2620 675 
Q 2931 909 2931 1356 
Q 2931 1769 2642 2001 
Q 2353 2234 1838 2234 
L 1294 2234 
L 1294 2753 
L 1863 2753 
Q 2328 2753 2575 2939 
Q 2822 3125 2822 3475 
Q 2822 3834 2567 4026 
Q 2313 4219 1838 4219 
Q 1578 4219 1281 4162 
Q 984 4106 628 3988 
L 628 4550 
Q 988 4650 1302 4700 
Q 1616 4750 1894 4750 
Q 2613 4750 3031 4423 
Q 3450 4097 3450 3541 
Q 3450 3153 3228 2886 
Q 3006 2619 2597 2516 
z
" transform="scale(0.015625)"/>
       </defs>
       <use xlink:href="#DejaVuSans-14" transform="translate(0 0.746875)"/>
       <use xlink:href="#DejaVuSans-13" transform="translate(63.623047 0.746875)"/>
       <use xlink:href="#DejaVuSans-16" transform="translate(128.203125 42.046875) scale(0.7)"/>
      </g>
     </g>
    </g>
    <g id="ytick_5">
     <g id="line2d_25">
      <path d="M 34.976 70.901154 
L 927.776 70.901154 
" clip-path="url(#p09d39e519e)" style="fill: none; stroke: #546379; stroke-width: 1.12; stroke-linecap: square"/>
     </g>
     <g id="line2d_26"/>
     <g id="text_14">
      <!-- $\mathdefault{10^{4}}$ -->
      <g style="fill: #b1bed6" transform="translate(7.2 76.760154) scale(0.126 -0.126)">
       <use xlink:href="#DejaVuSans-14" transform="translate(0 0.665625)"/>
       <use xlink:href="#DejaVuSans-13" transform="translate(63.623047 0.665625)"/>
       <use xlink:href="#DejaVuSans-17" transform="translate(128.203125 41.965625) scale(0.7)"/>
      </g>
     </g>
    </g>
    <g id="ytick_6">
     <g id="line2d_27">
      <path d="M 34.976 24.783362 
L 927.776 24.783362 
" clip-path="url(#p09d39e519e)" style="fill: none; stroke: #546379; stroke-width: 1.12; stroke-linecap: square"/>
     </g>
     <g id="line2d_28"/>
     <g id="text_15">
      <!-- $\mathdefault{10^{5}}$ -->
      <g style="fill: #b1bed6" transform="translate(7.2 30.642362) scale(0.126 -0.126)">
       <defs>
        <path id="DejaVuSans-18" d="M 691 4666 
L 3169 4666 
L 3169 4134 
L 1269 4134 
L 1269 2991 
Q 1406 3038 1543 3061 
Q 1681 3084 1819 3084 
Q 2600 3084 3056 2656 
Q 3513 2228 3513 1497 
Q 3513 744 3044 326 
Q 2575 -91 1722 -91 
Q 1428 -91 1123 -41 
Q 819 9 494 109 
L 494 744 
Q 775 591 1075 516 
Q 1375 441 1709 441 
Q 2250 441 2565 725 
Q 2881 1009 2881 1497 
Q 2881 1984 2565 2268 
Q 2250 2553 1709 2553 
Q 1456 2553 1204 2497 
Q 953 2441 691 2322 
L 691 4666 
z
" transform="scale(0.015625)"/>
       </defs>
       <use xlink:href="#DejaVuSans-14" transform="translate(0 0.665625)"/>
       <use xlink:href="#DejaVuSans-13" transform="translate(63.623047 0.665625)"/>
       <use xlink:href="#DejaVuSans-18" transform="translate(128.203125 41.965625) scale(0.7)"/>
      </g>
     </g>
    </g>
    <g id="ytick_7">
     <g id="line2d_29"/>
    </g>
    <g id="ytick_8">
     <g id="line2d_30"/>
    </g>
    <g id="ytick_9">
     <g id="line2d_31"/>
    </g>
    <g id="ytick_10">
     <g id="line2d_32"/>
    </g>
    <g id="ytick_11">
     <g id="line2d_33"/>
    </g>
    <g id="ytick_12">
     <g id="line2d_34"/>
    </g>
    <g id="ytick_13">
     <g id="line2d_35"/>
    </g>
    <g id="ytick_14">
     <g id="line2d_36"/>
    </g>
    <g id="ytick_15">
     <g id="line2d_37"/>
    </g>
    <g id="ytick_16">
     <g id="line2d_38"/>
    </g>
    <g id="ytick_17">
     <g id="line2d_39"/>
    </g>
    <g id="ytick_18">
     <g id="line2d_40"/>
    </g>
    <g id="ytick_19">
     <g id="line2d_41"/>
    </g>
    <g id="ytick_20">
     <g id="line2d_42"/>
    </g>
    <g id="ytick_21">
     <g id="line2d_43"/>
    </g>
    <g id="ytick_22">
     <g id="line2d_44"/>
    </g>
    <g id="ytick_23">
     <g id="line2d_45"/>
    </g>
    <g id="ytick_24">
     <g id="line2d_46"/>
    </g>
    <g id="ytick_25">
     <g id="line2d_47"/>
    </g>
    <g id="ytick_26">
     <g id="line2d_48"/>
    </g>
    <g id="ytick_27">
     <g id="line2d_49"/>
    </g>
    <g id="ytick_28">
     <g id="line2d_50"/>
    </g>
    <g id="ytick_29">
     <g id="line2d_51"/>
    </g>
    <g id="ytick_30">
     <g id="line2d_52"/>
    </g>
    <g id="ytick_31">
     <g id="line2d_53"/>
    </g>
    <g id="ytick_32">
     <g id="line2d_54"/>
    </g>
    <g id="ytick_33">
     <g id="line2d_55"/>
    </g>
    <g id="ytick_34">
     <g id="line2d_56"/>
    </g>
    <g id="ytick_35">
     <g id="line2d_57"/>
    </g>
    <g id="ytick_36">
     <g id="line2d_58"/>
    </g>
    <g id="ytick_37">
     <g id="line2d_59"/>
    </g>
    <g id="ytick_38">
     <g id="line2d_60"/>
    </g>
    <g id="ytick_39">
     <g id="line2d_61"/>
    </g>
    <g id="ytick_40">
     <g id="line2d_62"/>
    </g>
    <g id="ytick_41">
     <g id="line2d_63"/>
    </g>
    <g id="ytick_42">
     <g id="line2d_64"/>
    </g>
    <g id="ytick_43">
     <g id="line2d_65"/>
    </g>
    <g id="ytick_44">
     <g id="line2d_66"/>
    </g>
    <g id="ytick_45">
     <g id="line2d_67"/>
    </g>
    <g id="ytick_46">
     <g id="line2d_68"/>
    </g>
    <g id="ytick_47">
     <g id="line2d_69"/>
    </g>
    <g id="ytick_48">
     <g id="line2d_70"/>
    </g>
    <g id="ytick_49">
     <g id="line2d_71"/>
    </g>
    <g id="ytick_50">
     <g id="line2d_72"/>
    </g>
    <g id="ytick_51">
     <g id="line2d_73"/>
    </g>
    <g id="ytick_52">
     <g id="line2d_74"/>
    </g>
    <g id="ytick_53">
     <g id="line2d_75"/>
    </g>
    <g id="ytick_54">
     <g id="line2d_76"/>
    </g>
    <g id="ytick_55">
     <g id="line2d_77"/>
    </g>
   </g>
   <g id="line2d_78">
    <path d="M 75.557818 287.607273 
L 75.557818 283.137997 
L 76.120073 283.137997 
L 76.120073 278.19371 
L 76.682328 278.19371 
L 76.682328 279.486333 
L 77.244583 279.486333 
L 77.244583 280.86817 
L 77.806838 280.86817 
L 77.806838 280.165337 
L 78.369093 280.165337 
L 78.369093 280.86817 
L 79.493602 280.86817 
L 79.493602 282.352457 
L 80.055857 282.352457 
L 80.055857 284.808022 
L 81.180367 284.808022 
L 81.180367 283.137997 
L 81.742622 283.137997 
L 81.742622 282.352457 
L 82.304877 282.352457 
L 82.304877 283.137997 
L 82.867131 283.137997 
L 82.867131 281.596567 
L 83.429386 281.596567 
L 83.429386 279.486333 
L 84.553896 279.486333 
L 84.553896 278.19371 
L 85.116151 278.19371 
L 85.116151 275.834669 
L 85.678406 275.834669 
L 85.678406 273.724434 
L 86.240661 273.724434 
L 86.240661 274.751772 
L 86.802916 274.751772 
L 86.802916 271.815495 
L 87.36517 271.815495 
L 87.36517 271.365393 
L 87.927425 271.365393 
L 87.927425 257.042345 
L 89.051935 257.042345 
L 89.051935 255.982378 
L 89.61419 255.982378 
L 89.61419 253.83089 
L 90.176445 253.83089 
L 90.176445 254.395116 
L 90.7387 254.395116 
L 90.7387 257.932656 
L 91.300954 257.932656 
L 91.300954 255.37232 
L 91.863209 255.37232 
L 91.863209 255.982378 
L 92.425464 255.982378 
L 92.425464 257.042345 
L 92.987719 257.042345 
L 92.987719 257.932656 
L 93.549974 257.932656 
L 93.549974 257.26124 
L 94.112229 257.26124 
L 94.112229 258.161558 
L 94.674484 258.161558 
L 94.674484 260.093532 
L 95.236739 260.093532 
L 95.236739 257.706341 
L 95.798993 257.706341 
L 95.798993 259.841596 
L 96.923503 259.841596 
L 96.923503 261.134218 
L 97.485758 261.134218 
L 97.485758 260.868934 
L 98.048013 260.868934 
L 98.048013 255.776954 
L 98.610268 255.776954 
L 98.610268 251.720656 
L 99.172523 251.720656 
L 99.172523 248.921405 
L 99.734777 248.921405 
L 99.734777 243.823502 
L 100.297032 243.823502 
L 100.297032 226.917627 
L 100.859287 226.917627 
L 100.859287 229.940664 
L 101.421542 229.940664 
L 101.421542 228.062436 
L 101.983797 228.062436 
L 101.983797 217.729074 
L 102.546052 217.729074 
L 102.546052 212.580386 
L 103.108307 212.580386 
L 103.108307 216.455571 
L 103.670562 216.455571 
L 103.670562 215.640255 
L 104.232816 215.640255 
L 104.232816 212.089863 
L 104.795071 212.089863 
L 104.795071 209.926627 
L 105.357326 209.926627 
L 105.357326 196.34639 
L 105.919581 196.34639 
L 105.919581 185.746445 
L 106.481836 185.746445 
L 106.481836 192.005794 
L 107.044091 192.005794 
L 107.044091 196.536537 
L 107.606346 196.536537 
L 107.606346 200.619497 
L 108.168601 200.619497 
L 108.168601 197.954799 
L 108.730855 197.954799 
L 108.730855 198.218565 
L 109.29311 198.218565 
L 109.29311 200.169105 
L 109.855365 200.169105 
L 109.855365 199.716176 
L 110.41762 199.716176 
L 110.41762 201.040338 
L 110.979875 201.040338 
L 110.979875 202.160926 
L 111.54213 202.160926 
L 111.54213 201.757417 
L 112.104385 201.757417 
L 112.104385 202.615821 
L 112.666639 202.615821 
L 112.666639 202.372872 
L 113.228894 202.372872 
L 113.228894 201.702393 
L 113.791149 201.702393 
L 113.791149 206.455278 
L 114.353404 206.455278 
L 114.353404 209.94735 
L 114.915659 209.94735 
L 114.915659 209.395222 
L 115.477914 209.395222 
L 115.477914 206.700602 
L 116.040169 206.700602 
L 116.040169 206.024537 
L 116.602424 206.024537 
L 116.602424 206.806668 
L 117.164678 206.806668 
L 117.164678 210.324077 
L 117.726933 210.324077 
L 117.726933 212.604047 
L 118.289188 212.604047 
L 118.289188 213.058992 
L 118.851443 213.058992 
L 118.851443 217.097011 
L 119.413698 217.097011 
L 119.413698 218.861295 
L 119.975953 218.861295 
L 119.975953 223.057412 
L 120.538208 223.057412 
L 120.538208 218.893678 
L 121.100462 218.893678 
L 121.100462 221.264877 
L 121.662717 221.264877 
L 121.662717 223.379165 
L 122.224972 223.379165 
L 122.224972 222.898453 
L 122.787227 222.898453 
L 122.787227 223.996748 
L 123.349482 223.996748 
L 123.349482 226.821103 
L 123.911737 226.821103 
L 123.911737 227.556633 
L 124.473992 227.556633 
L 124.473992 236.311847 
L 125.036247 236.311847 
L 125.036247 231.338582 
L 125.598501 231.338582 
L 125.598501 232.711804 
L 126.160756 232.711804 
L 126.160756 230.97985 
L 126.723011 230.97985 
L 126.723011 231.951129 
L 127.285266 231.951129 
L 127.285266 232.138606 
L 127.847521 232.138606 
L 127.847521 232.647299 
L 128.409776 232.647299 
L 128.409776 236.234665 
L 128.972031 236.234665 
L 128.972031 237.424839 
L 129.534285 237.424839 
L 129.534285 237.181079 
L 130.09654 237.181079 
L 130.09654 235.928878 
L 130.658795 235.928878 
L 130.658795 232.455022 
L 131.22105 232.455022 
L 131.22105 232.97192 
L 131.783305 232.97192 
L 131.783305 232.583001 
L 132.34556 232.583001 
L 132.34556 231.703858 
L 132.907815 231.703858 
L 132.907815 231.098715 
L 133.47007 231.098715 
L 133.47007 227.707037 
L 134.032324 227.707037 
L 134.032324 226.39241 
L 134.594579 226.39241 
L 134.594579 225.381573 
L 135.156834 225.381573 
L 135.156834 221.707518 
L 135.719089 221.707518 
L 135.719089 216.227322 
L 136.281344 216.227322 
L 136.281344 216.114165 
L 136.843599 216.114165 
L 136.843599 216.284141 
L 137.405854 216.284141 
L 137.405854 218.287185 
L 137.968108 218.287185 
L 137.968108 217.975205 
L 138.530363 217.975205 
L 138.530363 220.513041 
L 139.092618 220.513041 
L 139.092618 220.689506 
L 139.654873 220.689506 
L 139.654873 219.519112 
L 140.217128 219.519112 
L 140.217128 220.027052 
L 141.341638 220.095761 
L 141.341638 224.206915 
L 141.903893 224.206915 
L 141.903893 225.247601 
L 142.466147 225.247601 
L 142.466147 222.467712 
L 143.028402 222.467712 
L 143.028402 223.217642 
L 143.590657 223.217642 
L 143.590657 223.913295 
L 144.152912 223.913295 
L 144.152912 222.938075 
L 144.715167 222.938075 
L 144.715167 223.217642 
L 145.277422 223.217642 
L 145.277422 221.448123 
L 145.839677 221.448123 
L 145.839677 222.236609 
L 146.401932 222.236609 
L 146.401932 223.913295 
L 146.964186 223.913295 
L 146.964186 224.080551 
L 147.526441 224.080551 
L 147.526441 223.379165 
L 148.650951 223.298241 
L 148.650951 223.954978 
L 149.213206 223.954978 
L 149.213206 223.257901 
L 150.337716 223.177464 
L 150.337716 222.198349 
L 150.89997 222.198349 
L 150.89997 222.390381 
L 151.462225 222.390381 
L 151.462225 222.780056 
L 152.02448 222.780056 
L 152.02448 222.429009 
L 152.586735 222.429009 
L 152.586735 222.740746 
L 153.711245 222.740746 
L 153.711245 222.938075 
L 154.2735 222.938075 
L 154.2735 222.623275 
L 155.960264 222.545342 
L 155.960264 222.429009 
L 156.522519 222.429009 
L 156.522519 222.084008 
L 157.084774 222.084008 
L 157.084774 221.011116 
L 158.209284 220.939199 
L 158.209284 218.604102 
L 158.771539 218.604102 
L 158.771539 217.698519 
L 159.333793 217.698519 
L 159.333793 217.455744 
L 159.896048 217.455744 
L 159.896048 217.637549 
L 160.458303 217.637549 
L 160.458303 217.245703 
L 161.020558 217.245703 
L 161.020558 217.097011 
L 161.582813 217.097011 
L 161.582813 216.455571 
L 162.145068 216.455571 
L 162.145068 214.102908 
L 162.707323 214.102908 
L 162.707323 210.345215 
L 163.269578 210.345215 
L 163.269578 210.218718 
L 163.831832 210.218718 
L 163.831832 211.814865 
L 164.394087 211.814865 
L 164.394087 211.476343 
L 164.956342 211.476343 
L 164.956342 209.015614 
L 165.518597 209.015614 
L 165.518597 206.931125 
L 166.080852 206.931125 
L 166.080852 206.281868 
L 166.643107 206.281868 
L 166.643107 205.108303 
L 167.205362 205.108303 
L 167.205362 201.840237 
L 167.767616 201.840237 
L 167.767616 208.740437 
L 168.329871 208.740437 
L 168.329871 207.363805 
L 168.892126 207.363805 
L 168.892126 207.510134 
L 169.454381 207.510134 
L 169.454381 208.239211 
L 170.016636 208.239211 
L 170.016636 206.859912 
L 171.141146 206.913298 
L 171.141146 205.87171 
L 171.703401 205.87171 
L 171.703401 204.57803 
L 172.265655 204.57803 
L 172.265655 205.140897 
L 172.82791 205.140897 
L 172.82791 204.849447 
L 173.390165 204.849447 
L 173.390165 204.657477 
L 173.95242 204.657477 
L 173.95242 204.045986 
L 174.514675 204.045986 
L 174.514675 205.108303 
L 175.07693 205.108303 
L 175.07693 205.43665 
L 175.639185 205.43665 
L 175.639185 205.636273 
L 176.201439 205.636273 
L 176.201439 205.939489 
L 176.763694 205.939489 
L 176.763694 206.351052 
L 177.325949 206.351052 
L 177.325949 207.473452 
L 177.888204 207.473452 
L 177.888204 207.236638 
L 178.450459 207.236638 
L 178.450459 207.400287 
L 179.574969 207.436836 
L 179.574969 207.218538 
L 180.137224 207.218538 
L 180.137224 205.905571 
L 180.699478 205.905571 
L 180.699478 205.075763 
L 181.261733 205.075763 
L 181.261733 204.593894 
L 182.386243 204.530512 
L 182.386243 203.86153 
L 182.948498 203.86153 
L 182.948498 203.169779 
L 183.510753 203.169779 
L 183.510753 202.803614 
L 184.073008 202.803614 
L 184.073008 203.051876 
L 185.197517 202.949278 
L 185.197517 203.318141 
L 185.759772 203.318141 
L 185.759772 203.022509 
L 186.322027 203.022509 
L 186.322027 203.214173 
L 187.446537 203.184566 
L 187.446537 202.529737 
L 188.008792 202.529737 
L 188.008792 202.076772 
L 188.571047 202.076772 
L 188.571047 200.438123 
L 189.133301 200.438123 
L 189.133301 198.474155 
L 189.695556 198.474155 
L 189.695556 196.8899 
L 190.257811 196.8899 
L 190.257811 195.593226 
L 190.820066 195.593226 
L 190.820066 194.394486 
L 191.382321 194.394486 
L 191.382321 193.895273 
L 191.944576 193.895273 
L 191.944576 191.745077 
L 192.506831 191.745077 
L 192.506831 189.21317 
L 193.069086 189.21317 
L 193.069086 189.375826 
L 193.63134 189.375826 
L 193.63134 186.90656 
L 194.193595 186.90656 
L 194.193595 186.46521 
L 194.75585 186.46521 
L 194.75585 184.597163 
L 195.318105 184.597163 
L 195.318105 180.511647 
L 195.88036 180.511647 
L 195.88036 178.864525 
L 196.442615 178.864525 
L 196.442615 178.318608 
L 197.00487 178.318608 
L 197.00487 176.187869 
L 197.567124 176.187869 
L 197.567124 170.209069 
L 198.129379 170.209069 
L 198.129379 167.911261 
L 198.691634 167.911261 
L 198.691634 164.698205 
L 199.253889 164.698205 
L 199.253889 157.728444 
L 199.816144 157.728444 
L 199.816144 153.314284 
L 200.378399 153.314284 
L 200.378399 158.68349 
L 200.940654 158.68349 
L 200.940654 170.831623 
L 201.502909 170.831623 
L 201.502909 159.666147 
L 202.065163 159.666147 
L 202.065163 156.043135 
L 202.627418 156.043135 
L 202.627418 158.114365 
L 203.189673 158.114365 
L 203.189673 159.992155 
L 203.751928 159.992155 
L 203.751928 160.16753 
L 204.314183 160.16753 
L 204.314183 160.743898 
L 204.876438 160.743898 
L 204.876438 159.823395 
L 205.438693 159.823395 
L 205.438693 158.938472 
L 206.563202 159.039422 
L 206.563202 157.577651 
L 207.687712 157.530665 
L 207.687712 159.085179 
L 208.249967 159.085179 
L 208.249967 159.657728 
L 208.812222 159.657728 
L 208.812222 161.9508 
L 209.374477 161.9508 
L 209.374477 163.140743 
L 209.936732 163.140743 
L 209.936732 161.708753 
L 210.498986 161.708753 
L 210.498986 161.530504 
L 211.061241 161.530504 
L 211.061241 162.351197 
L 211.623496 162.351197 
L 211.623496 163.695241 
L 212.185751 163.695241 
L 212.185751 167.596001 
L 212.748006 167.596001 
L 212.748006 168.504633 
L 213.310261 168.504633 
L 213.310261 164.378152 
L 213.872516 164.378152 
L 213.872516 163.736474 
L 214.43477 163.736474 
L 214.43477 165.383183 
L 214.997025 165.383183 
L 214.997025 164.267648 
L 215.55928 164.267648 
L 215.55928 163.398817 
L 216.121535 163.398817 
L 216.121535 162.232149 
L 216.68379 162.232149 
L 216.68379 161.834102 
L 217.246045 161.834102 
L 217.246045 162.583641 
L 217.8083 162.583641 
L 217.8083 161.3465 
L 218.370555 161.3465 
L 218.370555 163.194904 
L 218.932809 163.194904 
L 218.932809 161.149656 
L 219.495064 161.149656 
L 219.495064 160.639309 
L 220.057319 160.639309 
L 220.057319 159.737009 
L 220.619574 159.737009 
L 220.619574 157.86806 
L 221.181829 157.86806 
L 221.181829 159.888004 
L 221.744084 159.888004 
L 221.744084 159.150729 
L 222.306339 159.150729 
L 222.306339 158.820261 
L 222.868593 158.820261 
L 222.868593 158.330623 
L 223.430848 158.330623 
L 223.430848 159.001913 
L 223.993103 159.001913 
L 223.993103 158.72362 
L 224.555358 158.72362 
L 224.555358 158.468169 
L 225.117613 158.468169 
L 225.117613 159.163865 
L 225.679868 159.163865 
L 225.679868 158.808962 
L 226.242123 158.808962 
L 226.242123 158.256707 
L 226.804378 158.256707 
L 226.804378 156.658265 
L 227.366632 156.658265 
L 227.366632 150.694477 
L 227.928887 150.694477 
L 227.928887 149.727115 
L 228.491142 149.727115 
L 228.491142 148.57456 
L 229.053397 148.57456 
L 229.053397 148.955699 
L 229.615652 148.955699 
L 229.615652 144.578193 
L 230.177907 144.578193 
L 230.177907 139.224019 
L 230.740162 139.224019 
L 230.740162 135.724665 
L 231.302417 135.724665 
L 231.302417 131.929122 
L 231.864671 131.929122 
L 231.864671 123.688509 
L 232.426926 123.688509 
L 232.426926 121.126976 
L 232.989181 121.126976 
L 232.989181 114.501195 
L 233.551436 114.501195 
L 233.551436 116.037736 
L 234.113691 116.037736 
L 234.113691 123.994292 
L 234.675946 123.994292 
L 234.675946 119.650419 
L 235.238201 119.650419 
L 235.238201 119.97045 
L 235.800455 119.97045 
L 235.800455 124.587763 
L 236.36271 124.587763 
L 236.36271 125.341484 
L 236.924965 125.341484 
L 236.924965 123.488046 
L 237.48722 123.488046 
L 237.48722 123.267395 
L 238.049475 123.267395 
L 238.049475 120.781313 
L 238.61173 120.781313 
L 238.61173 120.913218 
L 239.173985 120.913218 
L 239.173985 120.41492 
L 239.73624 120.41492 
L 239.73624 121.063393 
L 240.298494 121.063393 
L 240.298494 120.803802 
L 240.860749 120.803802 
L 240.860749 121.99479 
L 241.423004 121.99479 
L 241.423004 121.852022 
L 241.985259 121.852022 
L 241.985259 121.065109 
L 242.547514 121.065109 
L 242.547514 121.969642 
L 243.109769 121.969642 
L 243.109769 124.527356 
L 243.672024 124.527356 
L 243.672024 126.919059 
L 244.234278 126.919059 
L 244.234278 126.274188 
L 244.796533 126.274188 
L 244.796533 127.946397 
L 245.358788 127.946397 
L 245.358788 128.649132 
L 245.921043 128.649132 
L 245.921043 128.366202 
L 246.483298 128.366202 
L 246.483298 125.019077 
L 247.045553 125.019077 
L 247.045553 125.960627 
L 248.170063 125.925914 
L 248.170063 126.441804 
L 248.732317 126.441804 
L 248.732317 128.176165 
L 249.294572 128.176165 
L 249.294572 127.730173 
L 249.856827 127.730173 
L 249.856827 131.306418 
L 250.419082 131.306418 
L 250.419082 133.502218 
L 250.981337 133.502218 
L 250.981337 132.65908 
L 251.543592 132.65908 
L 251.543592 136.986733 
L 252.105847 136.986733 
L 252.105847 132.58749 
L 252.668101 132.58749 
L 252.668101 131.631546 
L 253.230356 131.631546 
L 253.230356 131.367004 
L 253.792611 131.367004 
L 253.792611 132.507473 
L 254.354866 132.507473 
L 254.354866 132.92187 
L 254.917121 132.92187 
L 254.917121 133.610609 
L 256.041631 133.571209 
L 256.041631 133.350906 
L 256.603886 133.350906 
L 256.603886 133.051224 
L 257.16614 133.051224 
L 257.16614 131.38341 
L 257.728395 131.38341 
L 257.728395 129.81387 
L 258.29065 129.81387 
L 258.29065 127.894621 
L 258.852905 127.894621 
L 258.852905 126.250357 
L 259.41516 126.250357 
L 259.41516 125.296318 
L 259.977415 125.296318 
L 259.977415 125.68367 
L 260.53967 125.68367 
L 260.53967 127.534196 
L 261.101924 127.534196 
L 261.101924 126.984835 
L 261.664179 126.984835 
L 261.664179 127.554182 
L 262.226434 127.554182 
L 262.226434 128.604794 
L 262.788689 128.604794 
L 262.788689 127.250453 
L 263.350944 127.250453 
L 263.350944 125.790765 
L 263.913199 125.790765 
L 263.913199 126.453349 
L 264.475454 126.453349 
L 264.475454 126.146152 
L 265.037709 126.146152 
L 265.037709 126.462333 
L 265.599963 126.462333 
L 265.599963 126.272916 
L 266.162218 126.272916 
L 266.162218 126.579496 
L 266.724473 126.579496 
L 266.724473 127.462208 
L 267.286728 127.462208 
L 267.286728 127.858802 
L 267.848983 127.858802 
L 267.848983 127.63773 
L 268.973493 127.6214 
L 268.973493 128.312275 
L 269.535748 128.312275 
L 269.535748 129.967354 
L 270.098002 129.967354 
L 270.098002 130.161745 
L 270.660257 130.161745 
L 270.660257 130.582678 
L 271.784767 130.638739 
L 271.784767 131.871859 
L 272.347022 131.871859 
L 272.347022 131.474298 
L 272.909277 131.474298 
L 272.909277 131.998816 
L 273.471532 131.998816 
L 273.471532 131.848327 
L 274.033786 131.848327 
L 274.033786 132.839184 
L 274.596041 132.839184 
L 274.596041 135.31356 
L 275.158296 135.31356 
L 275.158296 134.867219 
L 275.720551 134.867219 
L 275.720551 136.724127 
L 276.282806 136.724127 
L 276.282806 137.542587 
L 276.845061 137.542587 
L 276.845061 138.979109 
L 277.407316 138.979109 
L 277.407316 137.373098 
L 277.969571 137.373098 
L 277.969571 135.631111 
L 278.531825 135.631111 
L 278.531825 135.906922 
L 279.09408 135.906922 
L 279.09408 137.637682 
L 279.656335 137.637682 
L 279.656335 137.994084 
L 280.21859 137.994084 
L 280.21859 138.756714 
L 280.780845 138.756714 
L 280.780845 139.210064 
L 281.3431 139.210064 
L 281.3431 138.221398 
L 281.905355 138.221398 
L 281.905355 134.384797 
L 282.467609 134.384797 
L 282.467609 135.88482 
L 283.029864 135.88482 
L 283.029864 137.678656 
L 283.592119 137.678656 
L 283.592119 136.686127 
L 284.154374 136.686127 
L 284.154374 136.558209 
L 284.716629 136.558209 
L 284.716629 136.418436 
L 285.278884 136.418436 
L 285.278884 136.661012 
L 285.841139 136.661012 
L 285.841139 138.114882 
L 286.403394 138.114882 
L 286.403394 137.604067 
L 286.965648 137.604067 
L 286.965648 140.330735 
L 287.527903 140.330735 
L 287.527903 139.104206 
L 288.090158 139.104206 
L 288.090158 139.227661 
L 288.652413 139.227661 
L 288.652413 140.411716 
L 289.214668 140.411716 
L 289.214668 142.153972 
L 289.776923 142.153972 
L 289.776923 141.267602 
L 290.339178 141.267602 
L 290.339178 143.266944 
L 290.901432 143.266944 
L 290.901432 148.256676 
L 291.463687 148.256676 
L 291.463687 147.711541 
L 292.025942 147.711541 
L 292.025942 146.134154 
L 292.588197 146.134154 
L 292.588197 143.729744 
L 293.150452 143.729744 
L 293.150452 147.413355 
L 293.712707 147.413355 
L 293.712707 146.743214 
L 294.274962 146.743214 
L 294.274962 146.990332 
L 294.837217 146.990332 
L 294.837217 147.133952 
L 295.399471 147.133952 
L 295.399471 146.066566 
L 295.961726 146.066566 
L 295.961726 145.125593 
L 296.523981 145.125593 
L 296.523981 145.607242 
L 297.086236 145.607242 
L 297.086236 144.506165 
L 297.648491 144.506165 
L 297.648491 143.238742 
L 298.210746 143.238742 
L 298.210746 142.875683 
L 298.773001 142.875683 
L 298.773001 141.476374 
L 299.335255 141.476374 
L 299.335255 141.861751 
L 299.89751 141.861751 
L 299.89751 143.837962 
L 300.459765 143.837962 
L 300.459765 145.189256 
L 301.02202 145.189256 
L 301.02202 144.548875 
L 301.584275 144.548875 
L 301.584275 145.067818 
L 302.14653 145.067818 
L 302.14653 143.959065 
L 302.708785 143.959065 
L 302.708785 145.353427 
L 303.27104 145.353427 
L 303.27104 147.072788 
L 304.395549 147.106045 
L 304.395549 145.951593 
L 304.957804 145.951593 
L 304.957804 146.780354 
L 306.082314 146.839743 
L 306.082314 145.646513 
L 306.644569 145.646513 
L 306.644569 145.840654 
L 307.206824 145.840654 
L 307.206824 145.52311 
L 307.769079 145.52311 
L 307.769079 145.822927 
L 308.331333 145.822927 
L 308.331333 146.333104 
L 308.893588 146.333104 
L 308.893588 145.790046 
L 309.455843 145.790046 
L 309.455843 145.997503 
L 310.018098 145.997503 
L 310.018098 146.599727 
L 310.580353 146.599727 
L 310.580353 147.084466 
L 311.142608 147.084466 
L 311.142608 146.659462 
L 311.704863 146.659462 
L 311.704863 146.489511 
L 312.267117 146.489511 
L 312.267117 144.786225 
L 312.829372 144.786225 
L 312.829372 145.209704 
L 313.391627 145.209704 
L 313.391627 145.58555 
L 313.953882 145.58555 
L 313.953882 144.899515 
L 314.516137 144.899515 
L 314.516137 144.413151 
L 315.078392 144.413151 
L 315.078392 143.352536 
L 315.640647 143.352536 
L 315.640647 142.165919 
L 316.202902 142.165919 
L 316.202902 141.956134 
L 316.765156 141.956134 
L 316.765156 142.749355 
L 317.889666 142.660533 
L 317.889666 141.618141 
L 318.451921 141.618141 
L 318.451921 141.919299 
L 319.014176 141.919299 
L 319.014176 142.434841 
L 319.576431 142.434841 
L 319.576431 142.563496 
L 320.138686 142.563496 
L 320.138686 143.170627 
L 320.70094 143.170627 
L 320.70094 143.889226 
L 321.263195 143.889226 
L 321.263195 146.783894 
L 321.82545 146.783894 
L 321.82545 146.617278 
L 322.387705 146.617278 
L 322.387705 146.885067 
L 322.94996 146.885067 
L 322.94996 146.432889 
L 324.07447 146.391179 
L 324.07447 145.253943 
L 324.636725 145.253943 
L 324.636725 146.046931 
L 325.198979 146.046931 
L 325.198979 146.600604 
L 325.761234 146.600604 
L 325.761234 146.44072 
L 326.323489 146.44072 
L 326.323489 146.109317 
L 326.885744 146.109317 
L 326.885744 145.674132 
L 327.447999 145.674132 
L 327.447999 145.789204 
L 328.010254 145.789204 
L 328.010254 145.042645 
L 329.134763 145.130483 
L 329.134763 144.58771 
L 329.697018 144.58771 
L 329.697018 143.919127 
L 330.259273 143.919127 
L 330.259273 142.92308 
L 330.821528 142.92308 
L 330.821528 142.04188 
L 331.383783 142.04188 
L 331.383783 139.335396 
L 331.946038 139.335396 
L 331.946038 135.146995 
L 332.508293 135.146995 
L 332.508293 136.03177 
L 333.070548 136.03177 
L 333.070548 140.54223 
L 333.632802 140.54223 
L 333.632802 139.904907 
L 334.195057 139.904907 
L 334.195057 139.474419 
L 334.757312 139.474419 
L 334.757312 139.623699 
L 335.319567 139.623699 
L 335.319567 137.592875 
L 335.881822 137.592875 
L 335.881822 137.338267 
L 336.444077 137.338267 
L 336.444077 136.035393 
L 337.006332 136.035393 
L 337.006332 134.561942 
L 337.568586 134.561942 
L 337.568586 133.765289 
L 338.130841 133.765289 
L 338.130841 132.721275 
L 338.693096 132.721275 
L 338.693096 133.537369 
L 339.255351 133.537369 
L 339.255351 132.768707 
L 339.817606 132.768707 
L 339.817606 133.772685 
L 340.942116 133.794425 
L 340.942116 133.957068 
L 341.504371 133.957068 
L 341.504371 133.082018 
L 342.066625 133.082018 
L 342.066625 133.943542 
L 342.62888 133.943542 
L 342.62888 136.111106 
L 343.191135 136.111106 
L 343.191135 136.319493 
L 343.75339 136.319493 
L 343.75339 135.793073 
L 344.315645 135.793073 
L 344.315645 136.578408 
L 344.8779 136.578408 
L 344.8779 137.016065 
L 345.440155 137.016065 
L 345.440155 136.663682 
L 346.00241 136.663682 
L 346.00241 136.503031 
L 346.564664 136.503031 
L 346.564664 135.410655 
L 347.126919 135.410655 
L 347.126919 134.39481 
L 348.251429 134.429653 
L 348.251429 133.848648 
L 348.813684 133.848648 
L 348.813684 134.274991 
L 349.375939 134.274991 
L 349.375939 135.088159 
L 349.938194 135.088159 
L 349.938194 134.58552 
L 351.062703 134.634206 
L 351.062703 134.976402 
L 351.624958 134.976402 
L 351.624958 134.566752 
L 352.749468 134.539353 
L 352.749468 134.694626 
L 353.311723 134.694626 
L 353.311723 134.465036 
L 354.436233 134.39624 
L 354.436233 134.268829 
L 354.998487 134.268829 
L 354.998487 133.948205 
L 355.560742 133.948205 
L 355.560742 133.647329 
L 356.122997 133.647329 
L 356.122997 132.926744 
L 356.685252 132.926744 
L 356.685252 133.222757 
L 357.247507 133.222757 
L 357.247507 132.878937 
L 357.809762 132.878937 
L 357.809762 133.040078 
L 358.372017 133.040078 
L 358.372017 132.543093 
L 358.934271 132.543093 
L 358.934271 132.754641 
L 359.496526 132.754641 
L 359.496526 132.8754 
L 360.058781 132.8754 
L 360.058781 133.316532 
L 360.621036 133.316532 
L 360.621036 133.069963 
L 361.183291 133.069963 
L 361.183291 130.454174 
L 361.745546 130.454174 
L 361.745546 129.434672 
L 362.307801 129.434672 
L 362.307801 127.801074 
L 362.870056 127.801074 
L 362.870056 128.00004 
L 363.43231 128.00004 
L 363.43231 124.590979 
L 363.994565 124.590979 
L 363.994565 122.72857 
L 364.55682 122.72857 
L 364.55682 127.49158 
L 365.119075 127.49158 
L 365.119075 126.266876 
L 365.68133 126.266876 
L 365.68133 125.101367 
L 366.243585 125.101367 
L 366.243585 124.68503 
L 366.80584 124.68503 
L 366.80584 125.250347 
L 368.492604 125.301163 
L 368.492604 125.114865 
L 369.054859 125.114865 
L 369.054859 125.296318 
L 369.617114 125.296318 
L 369.617114 125.476985 
L 370.179369 125.476985 
L 370.179369 127.065375 
L 370.741624 127.065375 
L 370.741624 128.18211 
L 371.303879 128.18211 
L 371.303879 127.757887 
L 372.428388 127.814117 
L 372.428388 128.245157 
L 372.990643 128.245157 
L 372.990643 128.02466 
L 374.115153 128.076426 
L 374.115153 128.22482 
L 375.239663 128.207305 
L 375.239663 126.979565 
L 375.801917 126.979565 
L 375.801917 126.540151 
L 376.364172 126.540151 
L 376.364172 126.952249 
L 377.488682 127.007578 
L 377.488682 127.448718 
L 378.050937 127.448718 
L 378.050937 127.024734 
L 379.737702 127.011866 
L 379.737702 126.773153 
L 380.299956 126.773153 
L 380.299956 126.10954 
L 380.862211 126.10954 
L 380.862211 125.989756 
L 381.424466 125.989756 
L 381.424466 126.308236 
L 381.986721 126.308236 
L 381.986721 125.834884 
L 382.548976 125.834884 
L 382.548976 124.569943 
L 383.111231 124.569943 
L 383.111231 123.415695 
L 383.673486 123.415695 
L 383.673486 124.063357 
L 384.235741 124.063357 
L 384.235741 123.556772 
L 384.797995 123.556772 
L 384.797995 124.151812 
L 385.36025 124.151812 
L 385.36025 123.135401 
L 387.047015 123.12915 
L 387.047015 123.321644 
L 387.60927 123.321644 
L 387.60927 122.437442 
L 388.733779 122.345512 
L 388.733779 122.300878 
L 389.296034 122.300878 
L 389.296034 122.101377 
L 389.858289 122.101377 
L 389.858289 121.714061 
L 390.420544 121.714061 
L 390.420544 118.821554 
L 390.982799 118.821554 
L 390.982799 118.465121 
L 391.545054 118.465121 
L 391.545054 117.735832 
L 392.107309 117.735832 
L 392.107309 114.943912 
L 392.669564 114.943912 
L 392.669564 118.897084 
L 393.231818 118.897084 
L 393.231818 121.350498 
L 393.794073 121.350498 
L 393.794073 120.737376 
L 394.356328 120.737376 
L 394.356328 119.226443 
L 394.918583 119.226443 
L 394.918583 119.49774 
L 395.480838 119.49774 
L 395.480838 118.719036 
L 396.043093 118.719036 
L 396.043093 117.353805 
L 396.605348 117.353805 
L 396.605348 116.798248 
L 397.167602 116.798248 
L 397.167602 117.31474 
L 397.729857 117.31474 
L 397.729857 116.994925 
L 398.292112 116.994925 
L 398.292112 115.955138 
L 398.854367 115.955138 
L 398.854367 114.659904 
L 399.416622 114.659904 
L 399.416622 114.213252 
L 399.978877 114.213252 
L 399.978877 112.95463 
L 400.541132 112.95463 
L 400.541132 112.215352 
L 401.103387 112.215352 
L 401.103387 113.499741 
L 401.665641 113.499741 
L 401.665641 112.698917 
L 402.227896 112.698917 
L 402.227896 115.695677 
L 402.790151 115.695677 
L 402.790151 114.874691 
L 403.352406 114.874691 
L 403.352406 117.79883 
L 403.914661 117.79883 
L 403.914661 116.237835 
L 404.476916 116.237835 
L 404.476916 115.477701 
L 405.039171 115.477701 
L 405.039171 113.472205 
L 405.601425 113.472205 
L 405.601425 113.201232 
L 406.16368 113.201232 
L 406.16368 113.868202 
L 406.725935 113.868202 
L 406.725935 113.347262 
L 407.28819 113.347262 
L 407.28819 112.820031 
L 407.850445 112.820031 
L 407.850445 111.949557 
L 408.4127 111.949557 
L 408.4127 110.937153 
L 408.974955 110.937153 
L 408.974955 108.406962 
L 409.53721 108.406962 
L 409.53721 106.975718 
L 410.099464 106.975718 
L 410.099464 106.475211 
L 410.661719 106.475211 
L 410.661719 106.285513 
L 411.223974 106.285513 
L 411.223974 103.047775 
L 411.786229 103.047775 
L 411.786229 99.3059 
L 412.348484 99.3059 
L 412.348484 101.434165 
L 412.910739 101.434165 
L 412.910739 99.401745 
L 413.472994 99.401745 
L 413.472994 97.13193 
L 414.035248 97.13193 
L 414.035248 96.217978 
L 414.597503 96.217978 
L 414.597503 97.080942 
L 415.159758 97.080942 
L 415.159758 97.653341 
L 415.722013 97.653341 
L 415.722013 97.434209 
L 416.284268 97.434209 
L 416.284268 98.650574 
L 416.846523 98.650574 
L 416.846523 98.335587 
L 417.971033 98.27076 
L 417.971033 98.643931 
L 418.533287 98.643931 
L 418.533287 100.241902 
L 419.095542 100.241902 
L 419.095542 103.415545 
L 419.657797 103.415545 
L 419.657797 100.642127 
L 420.220052 100.642127 
L 420.220052 96.76984 
L 420.782307 96.76984 
L 420.782307 97.450487 
L 421.344562 97.450487 
L 421.344562 95.952053 
L 422.469072 95.996737 
L 422.469072 92.456833 
L 423.031326 92.456833 
L 423.031326 89.922675 
L 423.593581 89.922675 
L 423.593581 87.454791 
L 424.155836 87.454791 
L 424.155836 88.981725 
L 424.718091 88.981725 
L 424.718091 87.657344 
L 425.280346 87.657344 
L 425.280346 87.450855 
L 425.842601 87.450855 
L 425.842601 85.15428 
L 426.404856 85.15428 
L 426.404856 87.412634 
L 426.96711 87.412634 
L 426.96711 87.661505 
L 427.529365 87.661505 
L 427.529365 89.939767 
L 428.09162 89.939767 
L 428.09162 90.931296 
L 428.653875 90.931296 
L 428.653875 91.358385 
L 429.21613 91.358385 
L 429.21613 89.596785 
L 429.778385 89.596785 
L 429.778385 88.44718 
L 430.34064 88.44718 
L 430.34064 87.766017 
L 430.902895 87.766017 
L 430.902895 87.165508 
L 431.465149 87.165508 
L 431.465149 85.509309 
L 432.027404 85.509309 
L 432.027404 82.188887 
L 433.151914 82.169648 
L 433.151914 81.46695 
L 433.714169 81.46695 
L 433.714169 81.91558 
L 434.276424 81.91558 
L 434.276424 79.789478 
L 434.838679 79.789478 
L 434.838679 77.024161 
L 435.400933 77.024161 
L 435.400933 76.747511 
L 435.963188 76.747511 
L 435.963188 81.502657 
L 436.525443 81.502657 
L 436.525443 75.7017 
L 437.087698 75.7017 
L 437.087698 74.771576 
L 438.212208 74.844677 
L 438.212208 71.064047 
L 438.774463 71.064047 
L 438.774463 69.151492 
L 439.336718 69.151492 
L 439.336718 64.386582 
L 439.898972 64.386582 
L 439.898972 62.688359 
L 440.461227 62.688359 
L 440.461227 60.983079 
L 441.023482 60.983079 
L 441.023482 58.138856 
L 441.585737 58.138856 
L 441.585737 64.484215 
L 442.147992 64.484215 
L 442.147992 61.894793 
L 442.710247 61.894793 
L 442.710247 66.252362 
L 443.272502 66.252362 
L 443.272502 62.727887 
L 443.834756 62.727887 
L 443.834756 61.247552 
L 444.397011 61.247552 
L 444.397011 65.211162 
L 444.959266 65.211162 
L 444.959266 64.810286 
L 445.521521 64.810286 
L 445.521521 68.090569 
L 446.083776 68.090569 
L 446.083776 69.30141 
L 446.646031 69.30141 
L 446.646031 68.221789 
L 447.208286 68.221789 
L 447.208286 70.49668 
L 447.770541 70.49668 
L 447.770541 74.870838 
L 448.89505 74.766061 
L 448.89505 73.244809 
L 449.457305 73.244809 
L 449.457305 70.546677 
L 450.01956 70.546677 
L 450.01956 68.549271 
L 450.581815 68.549271 
L 450.581815 71.511708 
L 451.14407 71.511708 
L 451.14407 70.246729 
L 451.706325 70.246729 
L 451.706325 68.072613 
L 452.268579 68.072613 
L 452.268579 72.301956 
L 452.830834 72.301956 
L 452.830834 72.724154 
L 453.393089 72.724154 
L 453.393089 74.638186 
L 453.955344 74.638186 
L 453.955344 73.212796 
L 454.517599 73.212796 
L 454.517599 74.076805 
L 455.079854 74.076805 
L 455.079854 75.494465 
L 455.642109 75.494465 
L 455.642109 78.54452 
L 456.204364 78.54452 
L 456.204364 78.664803 
L 457.328873 78.671444 
L 457.328873 75.634412 
L 458.453383 75.604146 
L 458.453383 73.16643 
L 459.015638 73.16643 
L 459.015638 73.302485 
L 459.577893 73.302485 
L 459.577893 72.143847 
L 460.140148 72.143847 
L 460.140148 71.401356 
L 460.702403 71.401356 
L 460.702403 72.206257 
L 461.264657 72.206257 
L 461.264657 74.400786 
L 461.826912 74.400786 
L 461.826912 74.224505 
L 462.389167 74.224505 
L 462.389167 74.773374 
L 462.951422 74.773374 
L 462.951422 76.631272 
L 463.513677 76.631272 
L 463.513677 77.082516 
L 464.075932 77.082516 
L 464.075932 76.690684 
L 465.200441 76.675153 
L 465.200441 76.356856 
L 465.762696 76.356856 
L 465.762696 79.366528 
L 466.324951 79.366528 
L 466.324951 79.564088 
L 466.887206 79.564088 
L 466.887206 78.741178 
L 467.449461 78.741178 
L 467.449461 80.614853 
L 468.011716 80.614853 
L 468.011716 81.543299 
L 468.573971 81.543299 
L 468.573971 79.143313 
L 469.69848 79.136816 
L 469.69848 80.062286 
L 470.260735 80.062286 
L 470.260735 80.318434 
L 470.82299 80.318434 
L 470.82299 77.010244 
L 471.9475 76.91388 
L 471.9475 75.52169 
L 472.509755 75.52169 
L 472.509755 74.945626 
L 473.07201 74.945626 
L 473.07201 76.891962 
L 473.634264 76.891962 
L 473.634264 78.867778 
L 474.196519 78.867778 
L 474.196519 80.385824 
L 474.758774 80.385824 
L 474.758774 80.248587 
L 475.321029 80.248587 
L 475.321029 79.570571 
L 475.883284 79.570571 
L 475.883284 79.449344 
L 476.445539 79.449344 
L 476.445539 78.329421 
L 477.007794 78.329421 
L 477.007794 77.991228 
L 477.570049 77.991228 
L 477.570049 77.042659 
L 478.132303 77.042659 
L 478.132303 80.52715 
L 478.694558 80.52715 
L 478.694558 80.07251 
L 479.256813 80.07251 
L 479.256813 79.537282 
L 480.381323 79.541444 
L 480.381323 79.273675 
L 480.943578 79.273675 
L 480.943578 79.136604 
L 481.505833 79.136604 
L 481.505833 79.463621 
L 482.068087 79.463621 
L 482.068087 79.303603 
L 483.192597 79.280917 
L 483.192597 80.266194 
L 483.754852 80.266194 
L 483.754852 79.499587 
L 484.879362 79.548012 
L 484.879362 79.615114 
L 485.441617 79.615114 
L 485.441617 80.150007 
L 486.003872 80.150007 
L 486.003872 79.961184 
L 486.566126 79.961184 
L 486.566126 79.416011 
L 487.128381 79.416011 
L 487.128381 79.813029 
L 487.690636 79.813029 
L 487.690636 82.305209 
L 488.252891 82.305209 
L 488.252891 85.39909 
L 488.815146 85.39909 
L 488.815146 87.559515 
L 489.377401 87.559515 
L 489.377401 90.131213 
L 489.939656 90.131213 
L 489.939656 88.332941 
L 490.50191 88.332941 
L 490.50191 90.572721 
L 491.064165 90.572721 
L 491.064165 91.42792 
L 491.62642 91.42792 
L 491.62642 93.057066 
L 492.188675 93.057066 
L 492.188675 91.606765 
L 492.75093 91.606765 
L 492.75093 89.761224 
L 493.313185 89.761224 
L 493.313185 90.1675 
L 493.87544 90.1675 
L 493.87544 90.437443 
L 494.437695 90.437443 
L 494.437695 89.600198 
L 494.999949 89.600198 
L 494.999949 88.897089 
L 495.562204 88.897089 
L 495.562204 91.107828 
L 496.124459 91.107828 
L 496.124459 90.9098 
L 496.686714 90.9098 
L 496.686714 91.220862 
L 497.248969 91.220862 
L 497.248969 91.434005 
L 498.373479 91.495794 
L 498.373479 92.100143 
L 499.497988 92.180998 
L 499.497988 92.539203 
L 500.060243 92.539203 
L 500.060243 91.200213 
L 500.622498 91.200213 
L 500.622498 91.317933 
L 501.184753 91.317933 
L 501.184753 89.624566 
L 501.747008 89.624566 
L 501.747008 88.566187 
L 502.309263 88.566187 
L 502.309263 90.106222 
L 503.433772 90.203906 
L 503.433772 89.828152 
L 504.558282 89.857701 
L 504.558282 89.573775 
L 505.120537 89.573775 
L 505.120537 89.108037 
L 506.807302 89.011831 
L 506.807302 88.689654 
L 507.369557 88.689654 
L 507.369557 85.142736 
L 507.931811 85.142736 
L 507.931811 83.735537 
L 508.494066 83.735537 
L 508.494066 84.49428 
L 509.056321 84.49428 
L 509.056321 84.01136 
L 509.618576 84.01136 
L 509.618576 83.581903 
L 510.180831 83.581903 
L 510.180831 83.116151 
L 510.743086 83.116151 
L 510.743086 83.612067 
L 511.305341 83.612067 
L 511.305341 83.279093 
L 511.867595 83.279093 
L 511.867595 82.21431 
L 512.42985 82.21431 
L 512.42985 80.00304 
L 512.992105 80.00304 
L 512.992105 75.388739 
L 513.55436 75.388739 
L 513.55436 77.300523 
L 514.116615 77.300523 
L 514.116615 76.329549 
L 514.67887 76.329549 
L 514.67887 73.588391 
L 515.241125 73.588391 
L 515.241125 74.699661 
L 515.80338 74.699661 
L 515.80338 75.035462 
L 516.365634 75.035462 
L 516.365634 75.374711 
L 516.927889 75.374711 
L 516.927889 75.577846 
L 517.490144 75.577846 
L 517.490144 73.326593 
L 518.052399 73.326593 
L 518.052399 72.394101 
L 518.614654 72.394101 
L 518.614654 69.332889 
L 519.176909 69.332889 
L 519.176909 68.751771 
L 519.739164 68.751771 
L 519.739164 69.774352 
L 520.301418 69.774352 
L 520.301418 69.074026 
L 520.863673 69.074026 
L 520.863673 66.293311 
L 521.425928 66.293311 
L 521.425928 68.295987 
L 521.988183 68.295987 
L 521.988183 71.56439 
L 522.550438 71.56439 
L 522.550438 69.757906 
L 523.112693 69.757906 
L 523.112693 71.152746 
L 523.674948 71.152746 
L 523.674948 71.925688 
L 524.237203 71.925688 
L 524.237203 69.867663 
L 524.799457 69.867663 
L 524.799457 68.161783 
L 525.361712 68.161783 
L 525.361712 68.484832 
L 525.923967 68.484832 
L 525.923967 70.867214 
L 526.486222 70.867214 
L 526.486222 70.274935 
L 527.048477 70.274935 
L 527.048477 70.678119 
L 527.610732 70.678119 
L 527.610732 70.192254 
L 528.172987 70.192254 
L 528.172987 71.764738 
L 528.735241 71.764738 
L 528.735241 69.693916 
L 529.297496 69.693916 
L 529.297496 69.948362 
L 529.859751 69.948362 
L 529.859751 70.584572 
L 530.422006 70.584572 
L 530.422006 70.288858 
L 531.546516 70.356086 
L 531.546516 71.545559 
L 532.108771 71.545559 
L 532.108771 74.890773 
L 532.671026 74.890773 
L 532.671026 74.577861 
L 533.23328 74.577861 
L 533.23328 75.004046 
L 533.795535 75.004046 
L 533.795535 73.950094 
L 534.35779 73.950094 
L 534.35779 74.67232 
L 534.920045 74.67232 
L 534.920045 75.179121 
L 535.4823 75.179121 
L 535.4823 74.820938 
L 536.044555 74.820938 
L 536.044555 73.766993 
L 536.60681 73.766993 
L 536.60681 72.069504 
L 537.169064 72.069504 
L 537.169064 72.352109 
L 538.293574 72.261529 
L 538.293574 72.928951 
L 538.855829 72.928951 
L 538.855829 73.846811 
L 539.418084 73.846811 
L 539.418084 74.9346 
L 539.980339 74.9346 
L 539.980339 77.241888 
L 540.542594 77.241888 
L 540.542594 77.582093 
L 541.104849 77.582093 
L 541.104849 76.509502 
L 541.667103 76.509502 
L 541.667103 77.500563 
L 542.229358 77.500563 
L 542.229358 76.603349 
L 542.791613 76.603349 
L 542.791613 77.510841 
L 543.353868 77.510841 
L 543.353868 78.392555 
L 543.916123 78.392555 
L 543.916123 77.508027 
L 544.478378 77.508027 
L 544.478378 77.34015 
L 545.040633 77.34015 
L 545.040633 77.201466 
L 545.602888 77.201466 
L 545.602888 77.548431 
L 546.165142 77.548431 
L 546.165142 77.063409 
L 546.727397 77.063409 
L 546.727397 75.83155 
L 547.289652 75.83155 
L 547.289652 75.10867 
L 547.851907 75.10867 
L 547.851907 73.23441 
L 548.414162 73.23441 
L 548.414162 73.639212 
L 548.976417 73.639212 
L 548.976417 74.56718 
L 549.538672 74.56718 
L 549.538672 72.398179 
L 550.663181 72.323318 
L 550.663181 71.396613 
L 551.225436 71.396613 
L 551.225436 71.194123 
L 551.787691 71.194123 
L 551.787691 70.176312 
L 552.349946 70.176312 
L 552.349946 70.542565 
L 552.912201 70.542565 
L 552.912201 71.574019 
L 553.474456 71.574019 
L 553.474456 73.494474 
L 554.036711 73.494474 
L 554.036711 74.075843 
L 554.598965 74.075843 
L 554.598965 72.861976 
L 555.16122 72.861976 
L 555.16122 75.541553 
L 555.723475 75.541553 
L 555.723475 82.481896 
L 556.28573 82.481896 
L 556.28573 83.400408 
L 556.847985 83.400408 
L 556.847985 80.508406 
L 557.41024 80.508406 
L 557.41024 78.926804 
L 557.972495 78.926804 
L 557.972495 81.518543 
L 558.534749 81.518543 
L 558.534749 78.598658 
L 559.097004 78.598658 
L 559.097004 77.086225 
L 559.659259 77.086225 
L 559.659259 78.410905 
L 560.783769 78.414665 
L 560.783769 77.316215 
L 561.346024 77.316215 
L 561.346024 77.673559 
L 561.908279 77.673559 
L 561.908279 76.13785 
L 562.470534 76.13785 
L 562.470534 73.855049 
L 563.032788 73.855049 
L 563.032788 73.266863 
L 563.595043 73.266863 
L 563.595043 71.261284 
L 564.157298 71.261284 
L 564.157298 73.428447 
L 564.719553 73.428447 
L 564.719553 72.17093 
L 565.281808 72.17093 
L 565.281808 71.906009 
L 565.844063 71.906009 
L 565.844063 73.619772 
L 566.406318 73.619772 
L 566.406318 71.783106 
L 566.968572 71.783106 
L 566.968572 70.496229 
L 567.530827 70.496229 
L 567.530827 71.669276 
L 568.093082 71.669276 
L 568.093082 71.356639 
L 568.655337 71.356639 
L 568.655337 71.984439 
L 569.779847 72.023993 
L 569.779847 72.387456 
L 570.904357 72.482444 
L 570.904357 72.603098 
L 571.466611 72.603098 
L 571.466611 72.850869 
L 572.028866 72.850869 
L 572.028866 72.449137 
L 573.153376 72.493046 
L 573.153376 72.585313 
L 574.277886 72.539289 
L 574.277886 71.691432 
L 574.840141 71.691432 
L 574.840141 68.915161 
L 575.402395 68.915161 
L 575.402395 68.375669 
L 575.96465 68.375669 
L 575.96465 68.641612 
L 576.526905 68.641612 
L 576.526905 67.641184 
L 577.08916 67.641184 
L 577.08916 67.974976 
L 577.651415 67.974976 
L 577.651415 67.393529 
L 578.775925 67.474705 
L 578.775925 67.647431 
L 579.33818 67.647431 
L 579.33818 68.041473 
L 579.900434 68.041473 
L 579.900434 67.378001 
L 580.462689 67.378001 
L 580.462689 70.58398 
L 581.024944 70.58398 
L 581.024944 70.44996 
L 581.587199 70.44996 
L 581.587199 70.249385 
L 582.149454 70.249385 
L 582.149454 69.094641 
L 582.711709 69.094641 
L 582.711709 70.057038 
L 583.273964 70.057038 
L 583.273964 69.559446 
L 583.836219 69.559446 
L 583.836219 69.284203 
L 584.398473 69.284203 
L 584.398473 69.825442 
L 584.960728 69.825442 
L 584.960728 69.600771 
L 585.522983 69.600771 
L 585.522983 68.317964 
L 586.085238 68.317964 
L 586.085238 68.095408 
L 586.647493 68.095408 
L 586.647493 67.657258 
L 587.209748 67.657258 
L 587.209748 65.731997 
L 587.772003 65.731997 
L 587.772003 64.666977 
L 588.334257 64.666977 
L 588.334257 64.435267 
L 588.896512 64.435267 
L 588.896512 63.940689 
L 589.458767 63.940689 
L 589.458767 62.135626 
L 590.021022 62.135626 
L 590.021022 61.120974 
L 590.583277 61.120974 
L 590.583277 60.599822 
L 591.145532 60.599822 
L 591.145532 58.377865 
L 591.707787 58.377865 
L 591.707787 57.864613 
L 592.270042 57.864613 
L 592.270042 59.428523 
L 592.832296 59.428523 
L 592.832296 57.807812 
L 593.394551 57.807812 
L 593.394551 57.651451 
L 593.956806 57.651451 
L 593.956806 58.854746 
L 594.519061 58.854746 
L 594.519061 57.75619 
L 595.081316 57.75619 
L 595.081316 54.088183 
L 595.643571 54.088183 
L 595.643571 53.513237 
L 596.205826 53.513237 
L 596.205826 51.424957 
L 596.76808 51.424957 
L 596.76808 49.67567 
L 597.330335 49.67567 
L 597.330335 46.987963 
L 597.89259 46.987963 
L 597.89259 43.394493 
L 598.454845 43.394493 
L 598.454845 45.500499 
L 599.0171 45.500499 
L 599.0171 44.789986 
L 599.579355 44.789986 
L 599.579355 45.234515 
L 600.14161 45.234515 
L 600.14161 47.542422 
L 600.703865 47.542422 
L 600.703865 48.619465 
L 601.266119 48.619465 
L 601.266119 46.905785 
L 601.828374 46.905785 
L 601.828374 44.695814 
L 602.390629 44.695814 
L 602.390629 40.178232 
L 602.952884 40.178232 
L 602.952884 39.705602 
L 603.515139 39.705602 
L 603.515139 39.005501 
L 604.077394 39.005501 
L 604.077394 36.395945 
L 604.639649 36.395945 
L 604.639649 38.417457 
L 605.201903 38.417457 
L 605.201903 40.725796 
L 605.764158 40.725796 
L 605.764158 39.297369 
L 606.326413 39.297369 
L 606.326413 37.765699 
L 606.888668 37.765699 
L 606.888668 35.953074 
L 607.450923 35.953074 
L 607.450923 36.086768 
L 608.013178 36.086768 
L 608.013178 35.663934 
L 608.575433 35.663934 
L 608.575433 37.685858 
L 609.137688 37.685858 
L 609.137688 36.473881 
L 609.699942 36.473881 
L 609.699942 35.440669 
L 610.824452 35.332804 
L 610.824452 35.658149 
L 611.386707 35.658149 
L 611.386707 33.861839 
L 611.948962 33.861839 
L 611.948962 34.985486 
L 612.511217 34.985486 
L 612.511217 37.195813 
L 613.073472 37.195813 
L 613.073472 39.039965 
L 613.635726 39.039965 
L 613.635726 37.279608 
L 614.197981 37.279608 
L 614.197981 35.967055 
L 615.322491 35.908699 
L 615.322491 36.129913 
L 615.884746 36.129913 
L 615.884746 40.018055 
L 616.447001 40.018055 
L 616.447001 44.716296 
L 617.009256 44.716296 
L 617.009256 45.950896 
L 617.571511 45.950896 
L 617.571511 43.92948 
L 618.133765 43.92948 
L 618.133765 44.529546 
L 618.69602 44.529546 
L 618.69602 44.759016 
L 619.258275 44.759016 
L 619.258275 46.717049 
L 619.82053 46.717049 
L 619.82053 45.528715 
L 620.382785 45.528715 
L 620.382785 43.992313 
L 620.94504 43.992313 
L 620.94504 45.473802 
L 621.507295 45.473802 
L 621.507295 46.017372 
L 622.631804 46.123296 
L 622.631804 46.475019 
L 623.194059 46.475019 
L 623.194059 46.266602 
L 623.756314 46.266602 
L 623.756314 46.67794 
L 624.318569 46.67794 
L 624.318569 47.101272 
L 624.880824 47.101272 
L 624.880824 47.740726 
L 625.443079 47.740726 
L 625.443079 47.419166 
L 626.005334 47.419166 
L 626.005334 44.525467 
L 626.567588 44.525467 
L 626.567588 42.05641 
L 627.129843 42.05641 
L 627.129843 44.090211 
L 627.692098 44.090211 
L 627.692098 40.939943 
L 628.254353 40.939943 
L 628.254353 40.506118 
L 628.816608 40.506118 
L 628.816608 39.881461 
L 629.378863 39.881461 
L 629.378863 40.018882 
L 629.941118 40.018882 
L 629.941118 38.85799 
L 630.503373 38.85799 
L 630.503373 39.047607 
L 631.065627 39.047607 
L 631.065627 39.839172 
L 631.627882 39.839172 
L 631.627882 38.68729 
L 632.190137 38.68729 
L 632.190137 40.302128 
L 633.314647 40.310502 
L 633.314647 39.573617 
L 633.876902 39.573617 
L 633.876902 41.732892 
L 635.001411 41.773082 
L 635.001411 42.635465 
L 635.563666 42.635465 
L 635.563666 39.598009 
L 636.125921 39.598009 
L 636.125921 36.632468 
L 636.688176 36.632468 
L 636.688176 36.894017 
L 637.250431 36.894017 
L 637.250431 35.902602 
L 637.812686 35.902602 
L 637.812686 34.366979 
L 638.374941 34.366979 
L 638.374941 34.783191 
L 638.937196 34.783191 
L 638.937196 34.899645 
L 639.49945 34.899645 
L 639.49945 34.444793 
L 640.061705 34.444793 
L 640.061705 34.051689 
L 641.186215 33.94433 
L 641.186215 33.461115 
L 641.74847 33.461115 
L 641.74847 33.852447 
L 642.310725 33.852447 
L 642.310725 35.647658 
L 642.87298 35.647658 
L 642.87298 35.839723 
L 643.435234 35.839723 
L 643.435234 36.829806 
L 643.997489 36.829806 
L 643.997489 35.961304 
L 644.559744 35.961304 
L 644.559744 38.915935 
L 645.121999 38.915935 
L 645.121999 39.626322 
L 645.684254 39.626322 
L 645.684254 40.009268 
L 646.246509 40.009268 
L 646.246509 40.260821 
L 646.808764 40.260821 
L 646.808764 39.097597 
L 647.371019 39.097597 
L 647.371019 38.478457 
L 647.933273 38.478457 
L 647.933273 40.158988 
L 648.495528 40.158988 
L 648.495528 39.766251 
L 649.057783 39.766251 
L 649.057783 41.630879 
L 649.620038 41.630879 
L 649.620038 42.230411 
L 650.182293 42.230411 
L 650.182293 41.640756 
L 650.744548 41.640756 
L 650.744548 41.977176 
L 651.306803 41.977176 
L 651.306803 45.769103 
L 651.869057 45.769103 
L 651.869057 44.792716 
L 652.431312 44.792716 
L 652.431312 44.205754 
L 652.993567 44.205754 
L 652.993567 44.64699 
L 653.555822 44.64699 
L 653.555822 41.302234 
L 654.118077 41.302234 
L 654.118077 41.967826 
L 654.680332 41.967826 
L 654.680332 40.983936 
L 655.242587 40.983936 
L 655.242587 43.077952 
L 655.804842 43.077952 
L 655.804842 44.53978 
L 656.367096 44.53978 
L 656.367096 44.319141 
L 656.929351 44.319141 
L 656.929351 41.938028 
L 657.491606 41.938028 
L 657.491606 44.145692 
L 658.053861 44.145692 
L 658.053861 43.775993 
L 658.616116 43.775993 
L 658.616116 43.478474 
L 659.178371 43.478474 
L 659.178371 42.052534 
L 659.740626 42.052534 
L 659.740626 41.731258 
L 660.302881 41.731258 
L 660.302881 39.965862 
L 660.865135 39.965862 
L 660.865135 40.537864 
L 661.42739 40.537864 
L 661.42739 40.071832 
L 661.989645 40.071832 
L 661.989645 42.025693 
L 662.5519 42.025693 
L 662.5519 43.084369 
L 663.114155 43.084369 
L 663.114155 42.941748 
L 663.67641 42.941748 
L 663.67641 42.458177 
L 664.238665 42.458177 
L 664.238665 43.404879 
L 664.800919 43.404879 
L 664.800919 43.250954 
L 665.363174 43.250954 
L 665.363174 43.895458 
L 665.925429 43.895458 
L 665.925429 45.238463 
L 666.487684 45.238463 
L 666.487684 48.238099 
L 667.049939 48.238099 
L 667.049939 48.847626 
L 667.612194 48.847626 
L 667.612194 49.797937 
L 668.174449 49.797937 
L 668.174449 48.712009 
L 668.736704 48.712009 
L 668.736704 49.442895 
L 669.298958 49.442895 
L 669.298958 47.783566 
L 669.861213 47.783566 
L 669.861213 49.110975 
L 670.423468 49.110975 
L 670.423468 48.164653 
L 670.985723 48.164653 
L 670.985723 50.034292 
L 671.547978 50.034292 
L 671.547978 54.614113 
L 672.110233 54.614113 
L 672.110233 56.484341 
L 672.672488 56.484341 
L 672.672488 55.957072 
L 673.234742 55.957072 
L 673.234742 56.327142 
L 673.796997 56.327142 
L 673.796997 57.808094 
L 674.359252 57.808094 
L 674.359252 56.836968 
L 674.921507 56.836968 
L 674.921507 55.493026 
L 675.483762 55.493026 
L 675.483762 56.795548 
L 676.046017 56.795548 
L 676.046017 56.257605 
L 676.608272 56.257605 
L 676.608272 54.085329 
L 677.170527 54.085329 
L 677.170527 55.756335 
L 677.732781 55.756335 
L 677.732781 53.54099 
L 678.295036 53.54099 
L 678.295036 54.234946 
L 679.419546 54.265105 
L 679.419546 53.400127 
L 679.981801 53.400127 
L 679.981801 53.105575 
L 680.544056 53.105575 
L 680.544056 54.050844 
L 681.106311 54.050844 
L 681.106311 55.660458 
L 681.668565 55.660458 
L 681.668565 56.786013 
L 682.23082 56.786013 
L 682.23082 57.226672 
L 683.35533 57.184298 
L 683.35533 57.752564 
L 683.917585 57.752564 
L 683.917585 55.297323 
L 684.47984 55.297323 
L 684.47984 57.326421 
L 685.042095 57.326421 
L 685.042095 57.482101 
L 685.60435 57.482101 
L 685.60435 57.752045 
L 686.166604 57.752045 
L 686.166604 57.935388 
L 686.728859 57.935388 
L 686.728859 57.716642 
L 687.291114 57.716642 
L 687.291114 56.850985 
L 687.853369 56.850985 
L 687.853369 57.585183 
L 689.540134 57.475163 
L 689.540134 57.865846 
L 690.102388 57.865846 
L 690.102388 56.917156 
L 690.664643 56.917156 
L 690.664643 56.21722 
L 691.226898 56.21722 
L 691.226898 56.864695 
L 691.789153 56.864695 
L 691.789153 56.117241 
L 692.351408 56.117241 
L 692.351408 59.63537 
L 692.913663 59.63537 
L 692.913663 60.764787 
L 693.475918 60.764787 
L 693.475918 60.650097 
L 694.038173 60.650097 
L 694.038173 61.245276 
L 694.600427 61.245276 
L 694.600427 60.927835 
L 695.162682 60.927835 
L 695.162682 60.073343 
L 697.411702 60.031104 
L 697.411702 60.70494 
L 697.973957 60.70494 
L 697.973957 60.386024 
L 699.098466 60.465016 
L 699.098466 60.823651 
L 700.222976 60.73372 
L 700.222976 60.478926 
L 700.785231 60.478926 
L 700.785231 60.048338 
L 701.347486 60.048338 
L 701.347486 57.085162 
L 701.909741 57.085162 
L 701.909741 55.903123 
L 702.471996 55.903123 
L 702.471996 54.418161 
L 703.03425 54.418161 
L 703.03425 54.14107 
L 703.596505 54.14107 
L 703.596505 53.571445 
L 704.15876 53.571445 
L 704.15876 53.827217 
L 704.721015 53.827217 
L 704.721015 54.425867 
L 705.28327 54.425867 
L 705.28327 55.441172 
L 705.845525 55.441172 
L 705.845525 54.917476 
L 706.40778 54.917476 
L 706.40778 52.837973 
L 706.970035 52.837973 
L 706.970035 53.2123 
L 707.532289 53.2123 
L 707.532289 53.734608 
L 708.656799 53.816161 
L 708.656799 54.738995 
L 709.219054 54.738995 
L 709.219054 56.794399 
L 709.781309 56.794399 
L 709.781309 52.73621 
L 710.343564 52.73621 
L 710.343564 51.025874 
L 710.905819 51.025874 
L 710.905819 50.78166 
L 711.468073 50.78166 
L 711.468073 50.279327 
L 712.592583 50.255579 
L 712.592583 50.421182 
L 713.717093 50.332539 
L 713.717093 48.741108 
L 714.841603 48.685316 
L 714.841603 49.694433 
L 715.403858 49.694433 
L 715.403858 50.574259 
L 715.966112 50.574259 
L 715.966112 49.247346 
L 716.528367 49.247346 
L 716.528367 50.217327 
L 717.090622 50.217327 
L 717.090622 49.209993 
L 717.652877 49.209993 
L 717.652877 50.538329 
L 718.215132 50.538329 
L 718.215132 51.167033 
L 718.777387 51.167033 
L 718.777387 50.714329 
L 719.339642 50.714329 
L 719.339642 51.189006 
L 719.901896 51.189006 
L 719.901896 51.39916 
L 720.464151 51.39916 
L 720.464151 50.462698 
L 721.026406 50.462698 
L 721.026406 50.821593 
L 722.150916 50.827687 
L 722.150916 51.877199 
L 722.713171 51.877199 
L 722.713171 52.447519 
L 723.275426 52.447519 
L 723.275426 51.505504 
L 723.837681 51.505504 
L 723.837681 48.961751 
L 724.399935 48.961751 
L 724.399935 48.720107 
L 724.96219 48.720107 
L 724.96219 48.585039 
L 725.524445 48.585039 
L 725.524445 48.386622 
L 726.0867 48.386622 
L 726.0867 48.754646 
L 726.648955 48.754646 
L 726.648955 48.637599 
L 727.773465 48.737598 
L 727.773465 49.029808 
L 728.335719 49.029808 
L 728.335719 49.453532 
L 729.460229 49.359234 
L 729.460229 49.109726 
L 730.022484 49.109726 
L 730.022484 49.543249 
L 730.584739 49.543249 
L 730.584739 49.189362 
L 731.146994 49.189362 
L 731.146994 49.3813 
L 731.709249 49.3813 
L 731.709249 51.259884 
L 732.271504 51.259884 
L 732.271504 51.668657 
L 733.396013 51.725466 
L 733.396013 50.472396 
L 733.958268 50.472396 
L 733.958268 51.864599 
L 735.645033 51.8927 
L 735.645033 51.354783 
L 736.207288 51.354783 
L 736.207288 51.183624 
L 736.769543 51.183624 
L 736.769543 51.320214 
L 737.331797 51.320214 
L 737.331797 51.600224 
L 737.894052 51.600224 
L 737.894052 51.029557 
L 738.456307 51.029557 
L 738.456307 50.424546 
L 739.580817 50.324199 
L 739.580817 51.187441 
L 740.143072 51.187441 
L 740.143072 49.912545 
L 740.705327 49.912545 
L 740.705327 49.110408 
L 741.267581 49.110408 
L 741.267581 46.447949 
L 742.392091 46.337173 
L 742.392091 45.559429 
L 742.954346 45.559429 
L 742.954346 45.782288 
L 743.516601 45.782288 
L 743.516601 44.862049 
L 745.203366 44.901357 
L 745.203366 45.352285 
L 745.76562 45.352285 
L 745.76562 44.268009 
L 746.89013 44.232842 
L 746.89013 43.147477 
L 747.452385 43.147477 
L 747.452385 41.548339 
L 748.01464 41.548339 
L 748.01464 42.524837 
L 748.576895 42.524837 
L 748.576895 42.189432 
L 749.13915 42.189432 
L 749.13915 42.033426 
L 749.701404 42.033426 
L 749.701404 41.344173 
L 750.263659 41.344173 
L 750.263659 41.468907 
L 750.825914 41.468907 
L 750.825914 42.039555 
L 751.388169 42.039555 
L 751.388169 41.140191 
L 751.950424 41.140191 
L 751.950424 39.917241 
L 752.512679 39.917241 
L 752.512679 41.759791 
L 753.074934 41.759791 
L 753.074934 41.625413 
L 753.637189 41.625413 
L 753.637189 42.321358 
L 754.199443 42.321358 
L 754.199443 43.101212 
L 754.761698 43.101212 
L 754.761698 42.143586 
L 755.323953 42.143586 
L 755.323953 41.65852 
L 755.886208 41.65852 
L 755.886208 41.849134 
L 756.448463 41.849134 
L 756.448463 39.848234 
L 757.010718 39.848234 
L 757.010718 38.770928 
L 757.572973 38.770928 
L 757.572973 38.002222 
L 759.259737 37.985794 
L 759.259737 34.626921 
L 759.821992 34.626921 
L 759.821992 32.39675 
L 760.946502 32.41749 
L 760.946502 31.505466 
L 761.508757 31.505466 
L 761.508757 33.318032 
L 762.071012 33.318032 
L 762.071012 32.549792 
L 762.633266 32.549792 
L 762.633266 32.736864 
L 763.195521 32.736864 
L 763.195521 31.712319 
L 763.757776 31.712319 
L 763.757776 32.012747 
L 764.320031 32.012747 
L 764.320031 32.549721 
L 764.882286 32.549721 
L 764.882286 32.174183 
L 765.444541 32.174183 
L 765.444541 33.715737 
L 766.006796 33.715737 
L 766.006796 34.591585 
L 766.56905 34.591585 
L 766.56905 33.426862 
L 767.131305 33.426862 
L 767.131305 33.570305 
L 767.69356 33.570305 
L 767.69356 33.774332 
L 768.255815 33.774332 
L 768.255815 34.073841 
L 768.81807 34.073841 
L 768.81807 34.253605 
L 769.380325 34.253605 
L 769.380325 34.747348 
L 769.94258 34.747348 
L 769.94258 33.033161 
L 771.067089 33.025017 
L 771.067089 32.524704 
L 771.629344 32.524704 
L 771.629344 32.106969 
L 772.191599 32.106969 
L 772.191599 32.659967 
L 772.753854 32.659967 
L 772.753854 31.769425 
L 773.316109 31.769425 
L 773.316109 32.128992 
L 773.878364 32.128992 
L 773.878364 32.437178 
L 774.440619 32.437178 
L 774.440619 32.913262 
L 775.002873 32.913262 
L 775.002873 33.463747 
L 775.565128 33.463747 
L 775.565128 34.92144 
L 776.689638 34.909438 
L 776.689638 34.348633 
L 777.251893 34.348633 
L 777.251893 35.602153 
L 777.814148 35.602153 
L 777.814148 35.782448 
L 778.376403 35.782448 
L 778.376403 34.749858 
L 778.938658 34.749858 
L 778.938658 33.73174 
L 779.500912 33.73174 
L 779.500912 32.626657 
L 780.625422 32.532774 
L 780.625422 33.051048 
L 781.187677 33.051048 
L 781.187677 34.789917 
L 781.749932 34.789917 
L 781.749932 36.745077 
L 782.312187 36.745077 
L 782.312187 35.447462 
L 782.874442 35.447462 
L 782.874442 35.858777 
L 783.436697 35.858777 
L 783.436697 35.190253 
L 783.998951 35.190253 
L 783.998951 33.696253 
L 784.561206 33.696253 
L 784.561206 35.193314 
L 785.123461 35.193314 
L 785.123461 35.361718 
L 785.685716 35.361718 
L 785.685716 35.705012 
L 786.247971 35.705012 
L 786.247971 36.809342 
L 786.810226 36.809342 
L 786.810226 35.64646 
L 787.934735 35.626323 
L 787.934735 33.969671 
L 788.49699 33.969671 
L 788.49699 33.634778 
L 789.059245 33.634778 
L 789.059245 33.139462 
L 789.6215 33.139462 
L 789.6215 34.802204 
L 790.183755 34.802204 
L 790.183755 34.096256 
L 790.74601 34.096256 
L 790.74601 34.924862 
L 791.308265 34.924862 
L 791.308265 33.090867 
L 791.87052 33.090867 
L 791.87052 32.38254 
L 792.432774 32.38254 
L 792.432774 32.694641 
L 793.557284 32.798795 
L 793.557284 31.27132 
L 794.119539 31.27132 
L 794.119539 32.289673 
L 794.681794 32.289673 
L 794.681794 30.299405 
L 795.244049 30.299405 
L 795.244049 27.180553 
L 795.806304 27.180553 
L 795.806304 26.658369 
L 796.368558 26.658369 
L 796.368558 26.373116 
L 796.930813 26.373116 
L 796.930813 25.233636 
L 797.493068 25.233636 
L 797.493068 25.609949 
L 798.055323 25.609949 
L 798.055323 25.337003 
L 799.742088 25.297523 
L 799.742088 24.491571 
L 800.304343 24.491571 
L 800.304343 23.586855 
L 800.866597 23.586855 
L 800.866597 25.346699 
L 801.428852 25.346699 
L 801.428852 24.924032 
L 801.991107 24.924032 
L 801.991107 26.121666 
L 802.553362 26.121666 
L 802.553362 25.423666 
L 803.115617 25.423666 
L 803.115617 24.337063 
L 803.677872 24.337063 
L 803.677872 25.873486 
L 804.240127 25.873486 
L 804.240127 25.491296 
L 804.802381 25.491296 
L 804.802381 23.919231 
L 805.364636 23.919231 
L 805.364636 24.067841 
L 805.926891 24.067841 
L 805.926891 24.270709 
L 806.489146 24.270709 
L 806.489146 23.855056 
L 807.051401 23.855056 
L 807.051401 24.50199 
L 807.613656 24.50199 
L 807.613656 25.488483 
L 808.175911 25.488483 
L 808.175911 25.652782 
L 808.738166 25.652782 
L 808.738166 25.271223 
L 809.30042 25.271223 
L 809.30042 25.467314 
L 810.42493 25.543726 
L 810.42493 28.122026 
L 810.987185 28.122026 
L 810.987185 27.78511 
L 811.54944 27.78511 
L 811.54944 27.631272 
L 812.111695 27.631272 
L 812.111695 28.549278 
L 812.67395 28.549278 
L 812.67395 28.194622 
L 813.236204 28.194622 
L 813.236204 27.603109 
L 813.798459 27.603109 
L 813.798459 27.79086 
L 814.360714 27.79086 
L 814.360714 27.52942 
L 814.922969 27.52942 
L 814.922969 28.628761 
L 815.485224 28.628761 
L 815.485224 28.31314 
L 816.047479 28.31314 
L 816.047479 30.209848 
L 816.609734 30.209848 
L 816.609734 27.971769 
L 817.171989 27.971769 
L 817.171989 28.267427 
L 817.734243 28.267427 
L 817.734243 27.997767 
L 818.296498 27.997767 
L 818.296498 26.028875 
L 818.858753 26.028875 
L 818.858753 25.81108 
L 819.421008 25.81108 
L 819.421008 25.408497 
L 820.545518 25.430955 
L 820.545518 23.850792 
L 821.107773 23.850792 
L 821.107773 24.084244 
L 821.670028 24.084244 
L 821.670028 23.536214 
L 822.232282 23.536214 
L 822.232282 22.563278 
L 822.794537 22.563278 
L 822.794537 22.969087 
L 823.356792 22.969087 
L 823.356792 23.992494 
L 823.919047 23.992494 
L 823.919047 23.723455 
L 825.043557 23.685773 
L 825.043557 23.114651 
L 825.605812 23.114651 
L 825.605812 23.699869 
L 826.168066 23.699869 
L 826.168066 23.867227 
L 826.730321 23.867227 
L 826.730321 23.733748 
L 827.292576 23.733748 
L 827.292576 23.407606 
L 827.854831 23.407606 
L 827.854831 23.67197 
L 828.417086 23.67197 
L 828.417086 23.196894 
L 828.979341 23.196894 
L 828.979341 22.63816 
L 829.541596 22.63816 
L 829.541596 21.283255 
L 830.666105 21.252761 
L 830.666105 21.562443 
L 832.35287 21.480964 
L 832.35287 22.420458 
L 832.915125 22.420458 
L 832.915125 21.979852 
L 833.47738 21.979852 
L 833.47738 21.249643 
L 834.039635 21.249643 
L 834.039635 21.402591 
L 834.601889 21.402591 
L 834.601889 21.76739 
L 835.726399 21.66157 
L 835.726399 22.548708 
L 836.288654 22.548708 
L 836.288654 23.095814 
L 836.850909 23.095814 
L 836.850909 22.560524 
L 837.975419 22.661532 
L 837.975419 21.894154 
L 839.662183 21.864056 
L 839.662183 22.511697 
L 840.224438 22.511697 
L 840.224438 22.931157 
L 840.786693 22.931157 
L 840.786693 21.363749 
L 841.348948 21.363749 
L 841.348948 20.552727 
L 841.911203 20.552727 
L 841.911203 20.852518 
L 842.473458 20.852518 
L 842.473458 21.946446 
L 843.035712 21.946446 
L 843.035712 23.528444 
L 843.597967 23.528444 
L 843.597967 23.159011 
L 844.160222 23.159011 
L 844.160222 22.578441 
L 844.722477 22.578441 
L 844.722477 22.861951 
L 845.846987 22.765112 
L 845.846987 24.528115 
L 846.409242 24.528115 
L 846.409242 23.623438 
L 846.971497 23.623438 
L 846.971497 25.937762 
L 847.533751 25.937762 
L 847.533751 26.241358 
L 848.096006 26.241358 
L 848.096006 28.114511 
L 848.658261 28.114511 
L 848.658261 26.77875 
L 849.782771 26.81 
L 849.782771 26.4225 
L 850.345026 26.4225 
L 850.345026 26.750885 
L 851.469535 26.833691 
L 851.469535 27.381199 
L 852.03179 27.381199 
L 852.03179 27.267051 
L 852.594045 27.267051 
L 852.594045 27.433167 
L 853.718555 27.38126 
L 853.718555 27.177108 
L 854.28081 27.177108 
L 854.28081 26.047721 
L 854.843065 26.047721 
L 854.843065 26.78359 
L 855.40532 26.78359 
L 855.40532 25.740447 
L 856.529829 25.790073 
L 856.529829 27.033228 
L 857.092084 27.033228 
L 857.092084 27.671621 
L 857.654339 27.671621 
L 857.654339 28.141547 
L 858.216594 28.141547 
L 858.216594 29.585924 
L 858.778849 29.585924 
L 858.778849 31.778773 
L 859.341104 31.778773 
L 859.341104 32.275099 
L 859.903359 32.275099 
L 859.903359 31.997414 
L 860.465613 31.997414 
L 860.465613 32.976194 
L 861.027868 32.976194 
L 861.027868 32.621431 
L 862.152378 32.664182 
L 862.152378 32.280477 
L 862.714633 32.280477 
L 862.714633 32.469842 
L 863.276888 32.469842 
L 863.276888 31.94932 
L 863.839143 31.94932 
L 863.839143 31.581416 
L 864.963652 31.568816 
L 864.963652 32.551997 
L 865.525907 32.551997 
L 865.525907 32.27942 
L 866.088162 32.27942 
L 866.088162 32.895954 
L 867.212672 32.824821 
L 867.212672 31.376903 
L 867.774927 31.376903 
L 867.774927 31.068738 
L 868.337182 31.068738 
L 868.337182 30.594729 
L 868.899436 30.594729 
L 868.899436 30.85284 
L 869.461691 30.85284 
L 869.461691 29.691368 
L 870.023946 29.691368 
L 870.023946 29.921252 
L 870.586201 29.921252 
L 870.586201 29.709486 
L 871.148456 29.709486 
L 871.148456 29.021541 
L 872.272966 29.085092 
L 872.272966 29.432283 
L 872.83522 29.432283 
L 872.83522 29.911938 
L 874.521985 29.944205 
L 874.521985 30.984778 
L 875.08424 30.984778 
L 875.08424 32.901333 
L 875.646495 32.901333 
L 875.646495 34.729072 
L 876.20875 34.729072 
L 876.20875 34.536142 
L 876.771005 34.536142 
L 876.771005 33.192818 
L 877.333259 33.192818 
L 877.333259 34.068838 
L 877.895514 34.068838 
L 877.895514 33.736878 
L 878.457769 33.736878 
L 878.457769 35.00658 
L 879.020024 35.00658 
L 879.020024 35.509886 
L 879.582279 35.509886 
L 879.582279 34.009868 
L 880.144534 34.009868 
L 880.144534 34.277355 
L 880.706789 34.277355 
L 880.706789 33.802067 
L 881.831298 33.787531 
L 881.831298 33.346818 
L 882.393553 33.346818 
L 882.393553 33.692053 
L 883.518063 33.761553 
L 883.518063 34.113743 
L 884.080318 34.113743 
L 884.080318 33.534995 
L 885.204828 33.456201 
L 885.204828 33.908559 
L 885.767082 33.908559 
L 885.767082 33.564908 
L 886.329337 33.564908 
L 886.329337 29.67671 
L 886.891592 29.67671 
L 886.891592 30.000999 
L 887.194182 30.000999 
L 887.194182 30.000999 
" clip-path="url(#p09d39e519e)" style="fill: none; stroke: #3572c6; stroke-width: 1.2; stroke-linecap: square"/>
   </g>
   <g id="line2d_79">
    <path d="M 75.557818 20.552727 
L 887.194182 20.552727 
L 887.194182 20.552727 
" clip-path="url(#p09d39e519e)" style="fill: none; stroke: #83a83b; stroke-width: 1.2; stroke-linecap: square"/>
   </g>
   <g id="line2d_80">
    <path d="M 75.557818 35.509886 
L 887.194182 35.509886 
L 887.194182 35.509886 
" clip-path="url(#p09d39e519e)" style="fill: none; stroke: #c44e52; stroke-width: 1.2; stroke-linecap: square"/>
   </g>
   <g id="line2d_81">
    <path d="M 841.911203 300.96 
L 841.911203 7.2 
" clip-path="url(#p09d39e519e)" style="fill: none; stroke: #83a83b; stroke-width: 1.2; stroke-linecap: square"/>
   </g>
   <g id="line2d_82">
    <path d="M 879.582279 300.96 
L 879.582279 7.2 
" clip-path="url(#p09d39e519e)" style="fill: none; stroke: #c44e52; stroke-width: 1.2; stroke-linecap: square"/>
   </g>
   <g id="patch_3">
    <path d="M 34.976 300.96 
L 34.976 7.2 
" style="fill: none; stroke: #899ab8; stroke-width: 1.12; stroke-linejoin: miter; stroke-linecap: square"/>
   </g>
   <g id="patch_4">
    <path d="M 927.776 300.96 
L 927.776 7.2 
" style="fill: none; stroke: #899ab8; stroke-width: 1.12; stroke-linejoin: miter; stroke-linecap: square"/>
   </g>
   <g id="patch_5">
    <path d="M 34.976 300.96 
L 927.776 300.96 
" style="fill: none; stroke: #899ab8; stroke-width: 1.12; stroke-linejoin: miter; stroke-linecap: square"/>
   </g>
   <g id="patch_6">
    <path d="M 34.976 7.2 
L 927.776 7.2 
" style="fill: none; stroke: #899ab8; stroke-width: 1.12; stroke-linejoin: miter; stroke-linecap: square"/>
   </g>
   <g id="text_16">
    <!-- 123519.47 -->
    <g style="fill: #83a83b" transform="translate(178.169332 20.552727) scale(0.132 -0.132)">
     <defs>
      <path id="DejaVuSans-1c" d="M 703 97 
L 703 672 
Q 941 559 1184 500 
Q 1428 441 1663 441 
Q 2288 441 2617 861 
Q 2947 1281 2994 2138 
Q 2813 1869 2534 1725 
Q 2256 1581 1919 1581 
Q 1219 1581 811 2004 
Q 403 2428 403 3163 
Q 403 3881 828 4315 
Q 1253 4750 1959 4750 
Q 2769 4750 3195 4129 
Q 3622 3509 3622 2328 
Q 3622 1225 3098 567 
Q 2575 -91 1691 -91 
Q 1453 -91 1209 -44 
Q 966 3 703 97 
z
M 1959 2075 
Q 2384 2075 2632 2365 
Q 2881 2656 2881 3163 
Q 2881 3666 2632 3958 
Q 2384 4250 1959 4250 
Q 1534 4250 1286 3958 
Q 1038 3666 1038 3163 
Q 1038 2656 1286 2365 
Q 1534 2075 1959 2075 
z
" transform="scale(0.015625)"/>
      <path id="DejaVuSans-11" d="M 684 794 
L 1344 794 
L 1344 0 
L 684 0 
L 684 794 
z
" transform="scale(0.015625)"/>
      <path id="DejaVuSans-1a" d="M 525 4666 
L 3525 4666 
L 3525 4397 
L 1831 0 
L 1172 0 
L 2766 4134 
L 525 4134 
L 525 4666 
z
" transform="scale(0.015625)"/>
     </defs>
     <use xlink:href="#DejaVuSans-14"/>
     <use xlink:href="#DejaVuSans-15" transform="translate(63.625 0)"/>
     <use xlink:href="#DejaVuSans-16" transform="translate(127.25 0)"/>
     <use xlink:href="#DejaVuSans-18" transform="translate(190.875 0)"/>
     <use xlink:href="#DejaVuSans-14" transform="translate(254.5 0)"/>
     <use xlink:href="#DejaVuSans-1c" transform="translate(318.125 0)"/>
     <use xlink:href="#DejaVuSans-11" transform="translate(381.75 0)"/>
     <use xlink:href="#DejaVuSans-17" transform="translate(413.53125 0)"/>
     <use xlink:href="#DejaVuSans-1a" transform="translate(477.15625 0)"/>
    </g>
   </g>
   <g id="text_17">
    <!-- 58534.28 -->
    <g style="fill: #c44e52" transform="translate(178.169332 35.509886) scale(0.132 -0.132)">
     <use xlink:href="#DejaVuSans-18"/>
     <use xlink:href="#DejaVuSans-1b" transform="translate(63.625 0)"/>
     <use xlink:href="#DejaVuSans-18" transform="translate(127.25 0)"/>
     <use xlink:href="#DejaVuSans-16" transform="translate(190.875 0)"/>
     <use xlink:href="#DejaVuSans-17" transform="translate(254.5 0)"/>
     <use xlink:href="#DejaVuSans-11" transform="translate(318.125 0)"/>
     <use xlink:href="#DejaVuSans-15" transform="translate(349.90625 0)"/>
     <use xlink:href="#DejaVuSans-1b" transform="translate(413.53125 0)"/>
    </g>
   </g>
   <g id="legend_1">
    <g id="patch_7">
     <path d="M 43.796 184.321477 
L 142.133094 184.321477 
Q 144.653094 184.321477 144.653094 181.801477 
L 144.653094 126.358523 
Q 144.653094 123.838523 142.133094 123.838523 
L 43.796 123.838523 
Q 41.276 123.838523 41.276 126.358523 
L 41.276 181.801477 
Q 41.276 184.321477 43.796 184.321477 
z
" style="fill: #373e4b; opacity: 0.8; stroke: #cccccc; stroke-width: 0.16; stroke-linejoin: miter"/>
    </g>
    <g id="line2d_83">
     <path d="M 46.316 134.042555 
L 46.316 134.042555 
L 58.916 134.042555 
L 58.916 134.042555 
L 71.516 134.042555 
" style="fill: none; stroke: #3572c6; stroke-width: 1.2; stroke-linecap: square"/>
    </g>
    <g id="text_18">
     <!-- USD/BTC -->
     <g style="fill: #b1bed6" transform="translate(81.596 138.452555) scale(0.126 -0.126)">
      <defs>
       <path id="DejaVuSans-38" d="M 556 4666 
L 1191 4666 
L 1191 1831 
Q 1191 1081 1462 751 
Q 1734 422 2344 422 
Q 2950 422 3222 751 
Q 3494 1081 3494 1831 
L 3494 4666 
L 4128 4666 
L 4128 1753 
Q 4128 841 3676 375 
Q 3225 -91 2344 -91 
Q 1459 -91 1007 375 
Q 556 841 556 1753 
L 556 4666 
z
" transform="scale(0.015625)"/>
       <path id="DejaVuSans-36" d="M 3425 4513 
L 3425 3897 
Q 3066 4069 2747 4153 
Q 2428 4238 2131 4238 
Q 1616 4238 1336 4038 
Q 1056 3838 1056 3469 
Q 1056 3159 1242 3001 
Q 1428 2844 1947 2747 
L 2328 2669 
Q 3034 2534 3370 2195 
Q 3706 1856 3706 1288 
Q 3706 609 3251 259 
Q 2797 -91 1919 -91 
Q 1588 -91 1214 -16 
Q 841 59 441 206 
L 441 856 
Q 825 641 1194 531 
Q 1563 422 1919 422 
Q 2459 422 2753 634 
Q 3047 847 3047 1241 
Q 3047 1584 2836 1778 
Q 2625 1972 2144 2069 
L 1759 2144 
Q 1053 2284 737 2584 
Q 422 2884 422 3419 
Q 422 4038 858 4394 
Q 1294 4750 2059 4750 
Q 2388 4750 2728 4690 
Q 3069 4631 3425 4513 
z
" transform="scale(0.015625)"/>
       <path id="DejaVuSans-12" d="M 1625 4666 
L 2156 4666 
L 531 -594 
L 0 -594 
L 1625 4666 
z
" transform="scale(0.015625)"/>
       <path id="DejaVuSans-25" d="M 1259 2228 
L 1259 519 
L 2272 519 
Q 2781 519 3026 730 
Q 3272 941 3272 1375 
Q 3272 1813 3026 2020 
Q 2781 2228 2272 2228 
L 1259 2228 
z
M 1259 4147 
L 1259 2741 
L 2194 2741 
Q 2656 2741 2882 2914 
Q 3109 3088 3109 3444 
Q 3109 3797 2882 3972 
Q 2656 4147 2194 4147 
L 1259 4147 
z
M 628 4666 
L 2241 4666 
Q 2963 4666 3353 4366 
Q 3744 4066 3744 3513 
Q 3744 3084 3544 2831 
Q 3344 2578 2956 2516 
Q 3422 2416 3680 2098 
Q 3938 1781 3938 1306 
Q 3938 681 3513 340 
Q 3088 0 2303 0 
L 628 0 
L 628 4666 
z
" transform="scale(0.015625)"/>
       <path id="DejaVuSans-37" d="M -19 4666 
L 3928 4666 
L 3928 4134 
L 2272 4134 
L 2272 0 
L 1638 0 
L 1638 4134 
L -19 4134 
L -19 4666 
z
" transform="scale(0.015625)"/>
       <path id="DejaVuSans-26" d="M 4122 4306 
L 4122 3641 
Q 3803 3938 3442 4084 
Q 3081 4231 2675 4231 
Q 1875 4231 1450 3742 
Q 1025 3253 1025 2328 
Q 1025 1406 1450 917 
Q 1875 428 2675 428 
Q 3081 428 3442 575 
Q 3803 722 4122 1019 
L 4122 359 
Q 3791 134 3420 21 
Q 3050 -91 2638 -91 
Q 1578 -91 968 557 
Q 359 1206 359 2328 
Q 359 3453 968 4101 
Q 1578 4750 2638 4750 
Q 3056 4750 3426 4639 
Q 3797 4528 4122 4306 
z
" transform="scale(0.015625)"/>
      </defs>
      <use xlink:href="#DejaVuSans-38"/>
      <use xlink:href="#DejaVuSans-36" transform="translate(73.1875 0)"/>
      <use xlink:href="#DejaVuSans-27" transform="translate(136.671875 0)"/>
      <use xlink:href="#DejaVuSans-12" transform="translate(213.671875 0)"/>
      <use xlink:href="#DejaVuSans-25" transform="translate(247.359375 0)"/>
      <use xlink:href="#DejaVuSans-37" transform="translate(315.96875 0)"/>
      <use xlink:href="#DejaVuSans-26" transform="translate(371.1875 0)"/>
     </g>
    </g>
    <g id="line2d_84">
     <path d="M 46.316 152.943539 
L 46.316 152.943539 
L 58.916 152.943539 
L 58.916 152.943539 
L 71.516 152.943539 
" style="fill: none; stroke: #83a83b; stroke-width: 1.2; stroke-linecap: square"/>
    </g>
    <g id="text_19">
     <!-- Max -->
     <g style="fill: #b1bed6" transform="translate(81.596 157.353539) scale(0.126 -0.126)">
      <defs>
       <path id="DejaVuSans-30" d="M 628 4666 
L 1569 4666 
L 2759 1491 
L 3956 4666 
L 4897 4666 
L 4897 0 
L 4281 0 
L 4281 4097 
L 3078 897 
L 2444 897 
L 1241 4097 
L 1241 0 
L 628 0 
L 628 4666 
z
" transform="scale(0.015625)"/>
       <path id="DejaVuSans-5b" d="M 3513 3500 
L 2247 1797 
L 3578 0 
L 2900 0 
L 1881 1375 
L 863 0 
L 184 0 
L 1544 1831 
L 300 3500 
L 978 3500 
L 1906 2253 
L 2834 3500 
L 3513 3500 
z
" transform="scale(0.015625)"/>
      </defs>
      <use xlink:href="#DejaVuSans-30"/>
      <use xlink:href="#DejaVuSans-44" transform="translate(86.28125 0)"/>
      <use xlink:href="#DejaVuSans-5b" transform="translate(147.5625 0)"/>
     </g>
    </g>
    <g id="line2d_85">
     <path d="M 46.316 171.844523 
L 46.316 171.844523 
L 58.916 171.844523 
L 58.916 171.844523 
L 71.516 171.844523 
" style="fill: none; stroke: #c44e52; stroke-width: 1.2; stroke-linecap: square"/>
    </g>
    <g id="text_20">
     <!-- local_Min -->
     <g style="fill: #b1bed6" transform="translate(81.596 176.254523) scale(0.126 -0.126)">
      <defs>
       <path id="DejaVuSans-4f" d="M 603 4863 
L 1178 4863 
L 1178 0 
L 603 0 
L 603 4863 
z
" transform="scale(0.015625)"/>
       <path id="DejaVuSans-52" d="M 1959 3097 
Q 1497 3097 1228 2736 
Q 959 2375 959 1747 
Q 959 1119 1226 758 
Q 1494 397 1959 397 
Q 2419 397 2687 759 
Q 2956 1122 2956 1747 
Q 2956 2369 2687 2733 
Q 2419 3097 1959 3097 
z
M 1959 3584 
Q 2709 3584 3137 3096 
Q 3566 2609 3566 1747 
Q 3566 888 3137 398 
Q 2709 -91 1959 -91 
Q 1206 -91 779 398 
Q 353 888 353 1747 
Q 353 2609 779 3096 
Q 1206 3584 1959 3584 
z
" transform="scale(0.015625)"/>
       <path id="DejaVuSans-46" d="M 3122 3366 
L 3122 2828 
Q 2878 2963 2633 3030 
Q 2388 3097 2138 3097 
Q 1578 3097 1268 2742 
Q 959 2388 959 1747 
Q 959 1106 1268 751 
Q 1578 397 2138 397 
Q 2388 397 2633 464 
Q 2878 531 3122 666 
L 3122 134 
Q 2881 22 2623 -34 
Q 2366 -91 2075 -91 
Q 1284 -91 818 406 
Q 353 903 353 1747 
Q 353 2603 823 3093 
Q 1294 3584 2113 3584 
Q 2378 3584 2631 3529 
Q 2884 3475 3122 3366 
z
" transform="scale(0.015625)"/>
       <path id="DejaVuSans-42" d="M 3263 -1063 
L 3263 -1509 
L -63 -1509 
L -63 -1063 
L 3263 -1063 
z
" transform="scale(0.015625)"/>
       <path id="DejaVuSans-4c" d="M 603 3500 
L 1178 3500 
L 1178 0 
L 603 0 
L 603 3500 
z
M 603 4863 
L 1178 4863 
L 1178 4134 
L 603 4134 
L 603 4863 
z
" transform="scale(0.015625)"/>
       <path id="DejaVuSans-51" d="M 3513 2113 
L 3513 0 
L 2938 0 
L 2938 2094 
Q 2938 2591 2744 2837 
Q 2550 3084 2163 3084 
Q 1697 3084 1428 2787 
Q 1159 2491 1159 1978 
L 1159 0 
L 581 0 
L 581 3500 
L 1159 3500 
L 1159 2956 
Q 1366 3272 1645 3428 
Q 1925 3584 2291 3584 
Q 2894 3584 3203 3211 
Q 3513 2838 3513 2113 
z
" transform="scale(0.015625)"/>
      </defs>
      <use xlink:href="#DejaVuSans-4f"/>
      <use xlink:href="#DejaVuSans-52" transform="translate(27.78125 0)"/>
      <use xlink:href="#DejaVuSans-46" transform="translate(88.96875 0)"/>
      <use xlink:href="#DejaVuSans-44" transform="translate(143.953125 0)"/>
      <use xlink:href="#DejaVuSans-4f" transform="translate(205.234375 0)"/>
      <use xlink:href="#DejaVuSans-42" transform="translate(233.015625 0)"/>
      <use xlink:href="#DejaVuSans-30" transform="translate(283.015625 0)"/>
      <use xlink:href="#DejaVuSans-4c" transform="translate(369.296875 0)"/>
      <use xlink:href="#DejaVuSans-51" transform="translate(397.078125 0)"/>
     </g>
    </g>
   </g>
  </g>
 </g>
 <defs>
  <clipPath id="p09d39e519e">
   <rect x="34.976" y="7.2" width="892.8" height="293.76"/>
  </clipPath>
 </defs>
</svg>
