<?xml version="1.0" encoding="utf-8" standalone="no"?>
<!DOCTYPE svg PUBLIC "-//W3C//DTD SVG 1.1//EN"
  "http://www.w3.org/Graphics/SVG/1.1/DTD/svg11.dtd">
<svg xmlns:xlink="http://www.w3.org/1999/xlink" width="934.976pt" height="358.290693pt" viewBox="0 0 934.976 358.290693" xmlns="http://www.w3.org/2000/svg" version="1.1">
 <metadata>
  <rdf:RDF xmlns:dc="http://purl.org/dc/elements/1.1/" xmlns:cc="http://creativecommons.org/ns#" xmlns:rdf="http://www.w3.org/1999/02/22-rdf-syntax-ns#">
   <cc:Work>
    <dc:type rdf:resource="http://purl.org/dc/dcmitype/StillImage"/>
    <dc:date>2024-03-11T11:27:59.694510</dc:date>
    <dc:format>image/svg+xml</dc:format>
    <dc:creator>
     <cc:Agent>
      <dc:title>Matplotlib v3.8.3, https://matplotlib.org/</dc:title>
     </cc:Agent>
    </dc:creator>
   </cc:Work>
  </rdf:RDF>
 </metadata>
 <defs>
  <style type="text/css">*{stroke-linejoin: round; stroke-linecap: butt}</style>
 </defs>
 <g id="figure_1">
  <g id="patch_1">
   <path d="M 0 358.290693 
L 934.976 358.290693 
L 934.976 0 
L 0 0 
z
" style="fill: #373e4b"/>
  </g>
  <g id="axes_1">
   <g id="patch_2">
    <path d="M 34.976 300.96 
L 927.776 300.96 
L 927.776 7.2 
L 34.976 7.2 
z
" style="fill: #373e4b"/>
   </g>
   <g id="matplotlib.axis_1">
    <g id="xtick_1">
     <g id="line2d_1">
      <path d="M 146.265421 300.96 
L 146.265421 7.2 
" clip-path="url(#p2dbcea1198)" style="fill: none; stroke: #546379; stroke-width: 1.12; stroke-linecap: square"/>
     </g>
     <g id="line2d_2"/>
     <g id="text_1">
      <!-- 2012 -->
      <g style="fill: #b1bed6" transform="translate(117.184381 330.884854) rotate(-30) scale(0.126 -0.126)">
       <defs>
        <path id="DejaVuSans-32" d="M 1228 531 
L 3431 531 
L 3431 0 
L 469 0 
L 469 531 
Q 828 903 1448 1529 
Q 2069 2156 2228 2338 
Q 2531 2678 2651 2914 
Q 2772 3150 2772 3378 
Q 2772 3750 2511 3984 
Q 2250 4219 1831 4219 
Q 1534 4219 1204 4116 
Q 875 4013 500 3803 
L 500 4441 
Q 881 4594 1212 4672 
Q 1544 4750 1819 4750 
Q 2544 4750 2975 4387 
Q 3406 4025 3406 3419 
Q 3406 3131 3298 2873 
Q 3191 2616 2906 2266 
Q 2828 2175 2409 1742 
Q 1991 1309 1228 531 
z
" transform="scale(0.015625)"/>
        <path id="DejaVuSans-30" d="M 2034 4250 
Q 1547 4250 1301 3770 
Q 1056 3291 1056 2328 
Q 1056 1369 1301 889 
Q 1547 409 2034 409 
Q 2525 409 2770 889 
Q 3016 1369 3016 2328 
Q 3016 3291 2770 3770 
Q 2525 4250 2034 4250 
z
M 2034 4750 
Q 2819 4750 3233 4129 
Q 3647 3509 3647 2328 
Q 3647 1150 3233 529 
Q 2819 -91 2034 -91 
Q 1250 -91 836 529 
Q 422 1150 422 2328 
Q 422 3509 836 4129 
Q 1250 4750 2034 4750 
z
" transform="scale(0.015625)"/>
        <path id="DejaVuSans-31" d="M 794 531 
L 1825 531 
L 1825 4091 
L 703 3866 
L 703 4441 
L 1819 4666 
L 2450 4666 
L 2450 531 
L 3481 531 
L 3481 0 
L 794 0 
L 794 531 
z
" transform="scale(0.015625)"/>
       </defs>
       <use xlink:href="#DejaVuSans-32"/>
       <use xlink:href="#DejaVuSans-30" x="63.623047"/>
       <use xlink:href="#DejaVuSans-31" x="127.246094"/>
       <use xlink:href="#DejaVuSans-32" x="190.869141"/>
      </g>
     </g>
    </g>
    <g id="xtick_2">
     <g id="line2d_3">
      <path d="M 267.882498 300.96 
L 267.882498 7.2 
" clip-path="url(#p2dbcea1198)" style="fill: none; stroke: #546379; stroke-width: 1.12; stroke-linecap: square"/>
     </g>
     <g id="line2d_4"/>
     <g id="text_2">
      <!-- 2014 -->
      <g style="fill: #b1bed6" transform="translate(238.801458 330.884854) rotate(-30) scale(0.126 -0.126)">
       <defs>
        <path id="DejaVuSans-34" d="M 2419 4116 
L 825 1625 
L 2419 1625 
L 2419 4116 
z
M 2253 4666 
L 3047 4666 
L 3047 1625 
L 3713 1625 
L 3713 1100 
L 3047 1100 
L 3047 0 
L 2419 0 
L 2419 1100 
L 313 1100 
L 313 1709 
L 2253 4666 
z
" transform="scale(0.015625)"/>
       </defs>
       <use xlink:href="#DejaVuSans-32"/>
       <use xlink:href="#DejaVuSans-30" x="63.623047"/>
       <use xlink:href="#DejaVuSans-31" x="127.246094"/>
       <use xlink:href="#DejaVuSans-34" x="190.869141"/>
      </g>
     </g>
    </g>
    <g id="xtick_3">
     <g id="line2d_5">
      <path d="M 389.333203 300.96 
L 389.333203 7.2 
" clip-path="url(#p2dbcea1198)" style="fill: none; stroke: #546379; stroke-width: 1.12; stroke-linecap: square"/>
     </g>
     <g id="line2d_6"/>
     <g id="text_3">
      <!-- 2016 -->
      <g style="fill: #b1bed6" transform="translate(360.252164 330.884854) rotate(-30) scale(0.126 -0.126)">
       <defs>
        <path id="DejaVuSans-36" d="M 2113 2584 
Q 1688 2584 1439 2293 
Q 1191 2003 1191 1497 
Q 1191 994 1439 701 
Q 1688 409 2113 409 
Q 2538 409 2786 701 
Q 3034 994 3034 1497 
Q 3034 2003 2786 2293 
Q 2538 2584 2113 2584 
z
M 3366 4563 
L 3366 3988 
Q 3128 4100 2886 4159 
Q 2644 4219 2406 4219 
Q 1781 4219 1451 3797 
Q 1122 3375 1075 2522 
Q 1259 2794 1537 2939 
Q 1816 3084 2150 3084 
Q 2853 3084 3261 2657 
Q 3669 2231 3669 1497 
Q 3669 778 3244 343 
Q 2819 -91 2113 -91 
Q 1303 -91 875 529 
Q 447 1150 447 2328 
Q 447 3434 972 4092 
Q 1497 4750 2381 4750 
Q 2619 4750 2861 4703 
Q 3103 4656 3366 4563 
z
" transform="scale(0.015625)"/>
       </defs>
       <use xlink:href="#DejaVuSans-32"/>
       <use xlink:href="#DejaVuSans-30" x="63.623047"/>
       <use xlink:href="#DejaVuSans-31" x="127.246094"/>
       <use xlink:href="#DejaVuSans-36" x="190.869141"/>
      </g>
     </g>
    </g>
    <g id="xtick_4">
     <g id="line2d_7">
      <path d="M 510.95028 300.96 
L 510.95028 7.2 
" clip-path="url(#p2dbcea1198)" style="fill: none; stroke: #546379; stroke-width: 1.12; stroke-linecap: square"/>
     </g>
     <g id="line2d_8"/>
     <g id="text_4">
      <!-- 2018 -->
      <g style="fill: #b1bed6" transform="translate(481.86924 330.884854) rotate(-30) scale(0.126 -0.126)">
       <defs>
        <path id="DejaVuSans-38" d="M 2034 2216 
Q 1584 2216 1326 1975 
Q 1069 1734 1069 1313 
Q 1069 891 1326 650 
Q 1584 409 2034 409 
Q 2484 409 2743 651 
Q 3003 894 3003 1313 
Q 3003 1734 2745 1975 
Q 2488 2216 2034 2216 
z
M 1403 2484 
Q 997 2584 770 2862 
Q 544 3141 544 3541 
Q 544 4100 942 4425 
Q 1341 4750 2034 4750 
Q 2731 4750 3128 4425 
Q 3525 4100 3525 3541 
Q 3525 3141 3298 2862 
Q 3072 2584 2669 2484 
Q 3125 2378 3379 2068 
Q 3634 1759 3634 1313 
Q 3634 634 3220 271 
Q 2806 -91 2034 -91 
Q 1263 -91 848 271 
Q 434 634 434 1313 
Q 434 1759 690 2068 
Q 947 2378 1403 2484 
z
M 1172 3481 
Q 1172 3119 1398 2916 
Q 1625 2713 2034 2713 
Q 2441 2713 2670 2916 
Q 2900 3119 2900 3481 
Q 2900 3844 2670 4047 
Q 2441 4250 2034 4250 
Q 1625 4250 1398 4047 
Q 1172 3844 1172 3481 
z
" transform="scale(0.015625)"/>
       </defs>
       <use xlink:href="#DejaVuSans-32"/>
       <use xlink:href="#DejaVuSans-30" x="63.623047"/>
       <use xlink:href="#DejaVuSans-31" x="127.246094"/>
       <use xlink:href="#DejaVuSans-38" x="190.869141"/>
      </g>
     </g>
    </g>
    <g id="xtick_5">
     <g id="line2d_9">
      <path d="M 632.400986 300.96 
L 632.400986 7.2 
" clip-path="url(#p2dbcea1198)" style="fill: none; stroke: #546379; stroke-width: 1.12; stroke-linecap: square"/>
     </g>
     <g id="line2d_10"/>
     <g id="text_5">
      <!-- 2020 -->
      <g style="fill: #b1bed6" transform="translate(603.319946 330.884854) rotate(-30) scale(0.126 -0.126)">
       <use xlink:href="#DejaVuSans-32"/>
       <use xlink:href="#DejaVuSans-30" x="63.623047"/>
       <use xlink:href="#DejaVuSans-32" x="127.246094"/>
       <use xlink:href="#DejaVuSans-30" x="190.869141"/>
      </g>
     </g>
    </g>
    <g id="xtick_6">
     <g id="line2d_11">
      <path d="M 754.018062 300.96 
L 754.018062 7.2 
" clip-path="url(#p2dbcea1198)" style="fill: none; stroke: #546379; stroke-width: 1.12; stroke-linecap: square"/>
     </g>
     <g id="line2d_12"/>
     <g id="text_6">
      <!-- 2022 -->
      <g style="fill: #b1bed6" transform="translate(724.937023 330.884854) rotate(-30) scale(0.126 -0.126)">
       <use xlink:href="#DejaVuSans-32"/>
       <use xlink:href="#DejaVuSans-30" x="63.623047"/>
       <use xlink:href="#DejaVuSans-32" x="127.246094"/>
       <use xlink:href="#DejaVuSans-32" x="190.869141"/>
      </g>
     </g>
    </g>
    <g id="xtick_7">
     <g id="line2d_13">
      <path d="M 875.468768 300.96 
L 875.468768 7.2 
" clip-path="url(#p2dbcea1198)" style="fill: none; stroke: #546379; stroke-width: 1.12; stroke-linecap: square"/>
     </g>
     <g id="line2d_14"/>
     <g id="text_7">
      <!-- 2024 -->
      <g style="fill: #b1bed6" transform="translate(846.387728 330.884854) rotate(-30) scale(0.126 -0.126)">
       <use xlink:href="#DejaVuSans-32"/>
       <use xlink:href="#DejaVuSans-30" x="63.623047"/>
       <use xlink:href="#DejaVuSans-32" x="127.246094"/>
       <use xlink:href="#DejaVuSans-34" x="190.869141"/>
      </g>
     </g>
    </g>
    <g id="text_8">
     <!-- Date -->
     <g style="fill: #b1bed6" transform="translate(464.166875 348.095943) scale(0.144 -0.144)">
      <defs>
       <path id="DejaVuSans-44" d="M 1259 4147 
L 1259 519 
L 2022 519 
Q 2988 519 3436 956 
Q 3884 1394 3884 2338 
Q 3884 3275 3436 3711 
Q 2988 4147 2022 4147 
L 1259 4147 
z
M 628 4666 
L 1925 4666 
Q 3281 4666 3915 4102 
Q 4550 3538 4550 2338 
Q 4550 1131 3912 565 
Q 3275 0 1925 0 
L 628 0 
L 628 4666 
z
" transform="scale(0.015625)"/>
       <path id="DejaVuSans-61" d="M 2194 1759 
Q 1497 1759 1228 1600 
Q 959 1441 959 1056 
Q 959 750 1161 570 
Q 1363 391 1709 391 
Q 2188 391 2477 730 
Q 2766 1069 2766 1631 
L 2766 1759 
L 2194 1759 
z
M 3341 1997 
L 3341 0 
L 2766 0 
L 2766 531 
Q 2569 213 2275 61 
Q 1981 -91 1556 -91 
Q 1019 -91 701 211 
Q 384 513 384 1019 
Q 384 1609 779 1909 
Q 1175 2209 1959 2209 
L 2766 2209 
L 2766 2266 
Q 2766 2663 2505 2880 
Q 2244 3097 1772 3097 
Q 1472 3097 1187 3025 
Q 903 2953 641 2809 
L 641 3341 
Q 956 3463 1253 3523 
Q 1550 3584 1831 3584 
Q 2591 3584 2966 3190 
Q 3341 2797 3341 1997 
z
" transform="scale(0.015625)"/>
       <path id="DejaVuSans-74" d="M 1172 4494 
L 1172 3500 
L 2356 3500 
L 2356 3053 
L 1172 3053 
L 1172 1153 
Q 1172 725 1289 603 
Q 1406 481 1766 481 
L 2356 481 
L 2356 0 
L 1766 0 
Q 1100 0 847 248 
Q 594 497 594 1153 
L 594 3053 
L 172 3053 
L 172 3500 
L 594 3500 
L 594 4494 
L 1172 4494 
z
" transform="scale(0.015625)"/>
       <path id="DejaVuSans-65" d="M 3597 1894 
L 3597 1613 
L 953 1613 
Q 991 1019 1311 708 
Q 1631 397 2203 397 
Q 2534 397 2845 478 
Q 3156 559 3463 722 
L 3463 178 
Q 3153 47 2828 -22 
Q 2503 -91 2169 -91 
Q 1331 -91 842 396 
Q 353 884 353 1716 
Q 353 2575 817 3079 
Q 1281 3584 2069 3584 
Q 2775 3584 3186 3129 
Q 3597 2675 3597 1894 
z
M 3022 2063 
Q 3016 2534 2758 2815 
Q 2500 3097 2075 3097 
Q 1594 3097 1305 2825 
Q 1016 2553 972 2059 
L 3022 2063 
z
" transform="scale(0.015625)"/>
      </defs>
      <use xlink:href="#DejaVuSans-44"/>
      <use xlink:href="#DejaVuSans-61" x="77.001953"/>
      <use xlink:href="#DejaVuSans-74" x="138.28125"/>
      <use xlink:href="#DejaVuSans-65" x="177.490234"/>
     </g>
    </g>
   </g>
   <g id="matplotlib.axis_2">
    <g id="ytick_1">
     <g id="line2d_15">
      <path d="M 34.976 253.997246 
L 927.776 253.997246 
" clip-path="url(#p2dbcea1198)" style="fill: none; stroke: #546379; stroke-width: 1.12; stroke-linecap: square"/>
     </g>
     <g id="line2d_16"/>
     <g id="text_9">
      <!-- $\mathdefault{10^{0}}$ -->
      <g style="fill: #b1bed6" transform="translate(7.2 258.784261) scale(0.126 -0.126)">
       <use xlink:href="#DejaVuSans-31" transform="translate(0 0.765625)"/>
       <use xlink:href="#DejaVuSans-30" transform="translate(63.623047 0.765625)"/>
       <use xlink:href="#DejaVuSans-30" transform="translate(128.203125 39.046875) scale(0.7)"/>
      </g>
     </g>
    </g>
    <g id="ytick_2">
     <g id="line2d_17">
      <path d="M 34.976 205.912168 
L 927.776 205.912168 
" clip-path="url(#p2dbcea1198)" style="fill: none; stroke: #546379; stroke-width: 1.12; stroke-linecap: square"/>
     </g>
     <g id="line2d_18"/>
     <g id="text_10">
      <!-- $\mathdefault{10^{1}}$ -->
      <g style="fill: #b1bed6" transform="translate(7.2 210.699183) scale(0.126 -0.126)">
       <use xlink:href="#DejaVuSans-31" transform="translate(0 0.684375)"/>
       <use xlink:href="#DejaVuSans-30" transform="translate(63.623047 0.684375)"/>
       <use xlink:href="#DejaVuSans-31" transform="translate(128.203125 38.965625) scale(0.7)"/>
      </g>
     </g>
    </g>
    <g id="ytick_3">
     <g id="line2d_19">
      <path d="M 34.976 157.82709 
L 927.776 157.82709 
" clip-path="url(#p2dbcea1198)" style="fill: none; stroke: #546379; stroke-width: 1.12; stroke-linecap: square"/>
     </g>
     <g id="line2d_20"/>
     <g id="text_11">
      <!-- $\mathdefault{10^{2}}$ -->
      <g style="fill: #b1bed6" transform="translate(7.2 162.614106) scale(0.126 -0.126)">
       <use xlink:href="#DejaVuSans-31" transform="translate(0 0.765625)"/>
       <use xlink:href="#DejaVuSans-30" transform="translate(63.623047 0.765625)"/>
       <use xlink:href="#DejaVuSans-32" transform="translate(128.203125 39.046875) scale(0.7)"/>
      </g>
     </g>
    </g>
    <g id="ytick_4">
     <g id="line2d_21">
      <path d="M 34.976 109.742012 
L 927.776 109.742012 
" clip-path="url(#p2dbcea1198)" style="fill: none; stroke: #546379; stroke-width: 1.12; stroke-linecap: square"/>
     </g>
     <g id="line2d_22"/>
     <g id="text_12">
      <!-- $\mathdefault{10^{3}}$ -->
      <g style="fill: #b1bed6" transform="translate(7.2 114.529028) scale(0.126 -0.126)">
       <defs>
        <path id="DejaVuSans-33" d="M 2597 2516 
Q 3050 2419 3304 2112 
Q 3559 1806 3559 1356 
Q 3559 666 3084 287 
Q 2609 -91 1734 -91 
Q 1441 -91 1130 -33 
Q 819 25 488 141 
L 488 750 
Q 750 597 1062 519 
Q 1375 441 1716 441 
Q 2309 441 2620 675 
Q 2931 909 2931 1356 
Q 2931 1769 2642 2001 
Q 2353 2234 1838 2234 
L 1294 2234 
L 1294 2753 
L 1863 2753 
Q 2328 2753 2575 2939 
Q 2822 3125 2822 3475 
Q 2822 3834 2567 4026 
Q 2313 4219 1838 4219 
Q 1578 4219 1281 4162 
Q 984 4106 628 3988 
L 628 4550 
Q 988 4650 1302 4700 
Q 1616 4750 1894 4750 
Q 2613 4750 3031 4423 
Q 3450 4097 3450 3541 
Q 3450 3153 3228 2886 
Q 3006 2619 2597 2516 
z
" transform="scale(0.015625)"/>
       </defs>
       <use xlink:href="#DejaVuSans-31" transform="translate(0 0.765625)"/>
       <use xlink:href="#DejaVuSans-30" transform="translate(63.623047 0.765625)"/>
       <use xlink:href="#DejaVuSans-33" transform="translate(128.203125 39.046875) scale(0.7)"/>
      </g>
     </g>
    </g>
    <g id="ytick_5">
     <g id="line2d_23">
      <path d="M 34.976 61.656934 
L 927.776 61.656934 
" clip-path="url(#p2dbcea1198)" style="fill: none; stroke: #546379; stroke-width: 1.12; stroke-linecap: square"/>
     </g>
     <g id="line2d_24"/>
     <g id="text_13">
      <!-- $\mathdefault{10^{4}}$ -->
      <g style="fill: #b1bed6" transform="translate(7.2 66.44395) scale(0.126 -0.126)">
       <use xlink:href="#DejaVuSans-31" transform="translate(0 0.684375)"/>
       <use xlink:href="#DejaVuSans-30" transform="translate(63.623047 0.684375)"/>
       <use xlink:href="#DejaVuSans-34" transform="translate(128.203125 38.965625) scale(0.7)"/>
      </g>
     </g>
    </g>
    <g id="ytick_6">
     <g id="line2d_25">
      <path d="M 34.976 13.571857 
L 927.776 13.571857 
" clip-path="url(#p2dbcea1198)" style="fill: none; stroke: #546379; stroke-width: 1.12; stroke-linecap: square"/>
     </g>
     <g id="line2d_26"/>
     <g id="text_14">
      <!-- $\mathdefault{10^{5}}$ -->
      <g style="fill: #b1bed6" transform="translate(7.2 18.358872) scale(0.126 -0.126)">
       <defs>
        <path id="DejaVuSans-35" d="M 691 4666 
L 3169 4666 
L 3169 4134 
L 1269 4134 
L 1269 2991 
Q 1406 3038 1543 3061 
Q 1681 3084 1819 3084 
Q 2600 3084 3056 2656 
Q 3513 2228 3513 1497 
Q 3513 744 3044 326 
Q 2575 -91 1722 -91 
Q 1428 -91 1123 -41 
Q 819 9 494 109 
L 494 744 
Q 775 591 1075 516 
Q 1375 441 1709 441 
Q 2250 441 2565 725 
Q 2881 1009 2881 1497 
Q 2881 1984 2565 2268 
Q 2250 2553 1709 2553 
Q 1456 2553 1204 2497 
Q 953 2441 691 2322 
L 691 4666 
z
" transform="scale(0.015625)"/>
       </defs>
       <use xlink:href="#DejaVuSans-31" transform="translate(0 0.684375)"/>
       <use xlink:href="#DejaVuSans-30" transform="translate(63.623047 0.684375)"/>
       <use xlink:href="#DejaVuSans-35" transform="translate(128.203125 38.965625) scale(0.7)"/>
      </g>
     </g>
    </g>
    <g id="ytick_7">
     <g id="line2d_27"/>
    </g>
    <g id="ytick_8">
     <g id="line2d_28"/>
    </g>
    <g id="ytick_9">
     <g id="line2d_29"/>
    </g>
    <g id="ytick_10">
     <g id="line2d_30"/>
    </g>
    <g id="ytick_11">
     <g id="line2d_31"/>
    </g>
    <g id="ytick_12">
     <g id="line2d_32"/>
    </g>
    <g id="ytick_13">
     <g id="line2d_33"/>
    </g>
    <g id="ytick_14">
     <g id="line2d_34"/>
    </g>
    <g id="ytick_15">
     <g id="line2d_35"/>
    </g>
    <g id="ytick_16">
     <g id="line2d_36"/>
    </g>
    <g id="ytick_17">
     <g id="line2d_37"/>
    </g>
    <g id="ytick_18">
     <g id="line2d_38"/>
    </g>
    <g id="ytick_19">
     <g id="line2d_39"/>
    </g>
    <g id="ytick_20">
     <g id="line2d_40"/>
    </g>
    <g id="ytick_21">
     <g id="line2d_41"/>
    </g>
    <g id="ytick_22">
     <g id="line2d_42"/>
    </g>
    <g id="ytick_23">
     <g id="line2d_43"/>
    </g>
    <g id="ytick_24">
     <g id="line2d_44"/>
    </g>
    <g id="ytick_25">
     <g id="line2d_45"/>
    </g>
    <g id="ytick_26">
     <g id="line2d_46"/>
    </g>
    <g id="ytick_27">
     <g id="line2d_47"/>
    </g>
    <g id="ytick_28">
     <g id="line2d_48"/>
    </g>
    <g id="ytick_29">
     <g id="line2d_49"/>
    </g>
    <g id="ytick_30">
     <g id="line2d_50"/>
    </g>
    <g id="ytick_31">
     <g id="line2d_51"/>
    </g>
    <g id="ytick_32">
     <g id="line2d_52"/>
    </g>
    <g id="ytick_33">
     <g id="line2d_53"/>
    </g>
    <g id="ytick_34">
     <g id="line2d_54"/>
    </g>
    <g id="ytick_35">
     <g id="line2d_55"/>
    </g>
    <g id="ytick_36">
     <g id="line2d_56"/>
    </g>
    <g id="ytick_37">
     <g id="line2d_57"/>
    </g>
    <g id="ytick_38">
     <g id="line2d_58"/>
    </g>
    <g id="ytick_39">
     <g id="line2d_59"/>
    </g>
    <g id="ytick_40">
     <g id="line2d_60"/>
    </g>
    <g id="ytick_41">
     <g id="line2d_61"/>
    </g>
    <g id="ytick_42">
     <g id="line2d_62"/>
    </g>
    <g id="ytick_43">
     <g id="line2d_63"/>
    </g>
    <g id="ytick_44">
     <g id="line2d_64"/>
    </g>
    <g id="ytick_45">
     <g id="line2d_65"/>
    </g>
    <g id="ytick_46">
     <g id="line2d_66"/>
    </g>
    <g id="ytick_47">
     <g id="line2d_67"/>
    </g>
    <g id="ytick_48">
     <g id="line2d_68"/>
    </g>
    <g id="ytick_49">
     <g id="line2d_69"/>
    </g>
    <g id="ytick_50">
     <g id="line2d_70"/>
    </g>
    <g id="ytick_51">
     <g id="line2d_71"/>
    </g>
    <g id="ytick_52">
     <g id="line2d_72"/>
    </g>
    <g id="ytick_53">
     <g id="line2d_73"/>
    </g>
    <g id="ytick_54">
     <g id="line2d_74"/>
    </g>
   </g>
   <g id="line2d_75">
    <path d="M 75.557818 287.607273 
L 75.557818 282.947347 
L 76.223302 282.947347 
L 76.223302 277.792147 
L 76.888785 277.792147 
L 76.888785 279.139911 
L 77.554268 279.139911 
L 77.554268 280.580695 
L 78.219751 280.580695 
L 78.219751 279.84788 
L 78.885235 279.84788 
L 78.885235 280.580695 
L 80.216201 280.580695 
L 80.216201 282.128298 
L 80.881685 282.128298 
L 80.881685 284.688612 
L 82.212651 284.688612 
L 82.212651 282.947347 
L 82.878135 282.947347 
L 82.878135 282.128298 
L 83.543618 282.128298 
L 83.543618 282.947347 
L 84.209101 282.947347 
L 84.209101 281.340163 
L 84.874585 281.340163 
L 84.874585 279.139911 
L 86.205551 279.139911 
L 86.205551 277.792147 
L 86.871035 277.792147 
L 86.871035 275.332474 
L 87.536518 275.332474 
L 87.536518 273.132222 
L 88.202001 273.132222 
L 88.202001 274.203384 
L 88.867485 274.203384 
L 88.867485 271.141851 
L 89.532968 271.141851 
L 89.532968 270.672549 
L 90.198451 270.672549 
L 90.198451 255.738511 
L 91.529418 255.738511 
L 91.529418 254.633328 
L 92.194901 254.633328 
L 92.194901 252.390062 
L 92.860384 252.390062 
L 92.860384 252.978357 
L 93.525868 252.978357 
L 93.525868 256.666801 
L 94.191351 256.666801 
L 94.191351 253.997246 
L 94.856834 253.997246 
L 94.856834 254.633328 
L 95.522318 254.633328 
L 95.522318 255.738511 
L 96.187801 255.738511 
L 96.187801 256.666801 
L 96.853284 256.666801 
L 96.853284 255.966744 
L 97.518768 255.966744 
L 97.518768 256.905467 
L 98.184251 256.905467 
L 98.184251 258.919855 
L 98.849734 258.919855 
L 98.849734 256.430831 
L 99.515218 256.430831 
L 99.515218 258.657171 
L 100.846184 258.657171 
L 100.846184 260.004935 
L 101.511668 260.004935 
L 101.511668 259.728333 
L 102.177151 259.728333 
L 102.177151 254.419141 
L 102.842634 254.419141 
L 102.842634 250.189809 
L 103.508118 250.189809 
L 103.508118 247.271149 
L 104.173601 247.271149 
L 104.173601 241.95578 
L 104.839084 241.95578 
L 104.839084 224.328736 
L 105.504568 224.328736 
L 105.504568 227.48073 
L 106.170051 227.48073 
L 106.170051 225.52238 
L 106.835534 225.52238 
L 106.835534 214.748219 
L 107.501018 214.748219 
L 107.501018 209.3799 
L 108.166501 209.3799 
L 108.166501 213.420392 
L 108.831984 213.420392 
L 108.831984 212.570296 
L 109.497467 212.570296 
L 109.497467 208.868452 
L 110.162951 208.868452 
L 110.162951 206.612937 
L 110.828434 206.612937 
L 110.828434 192.453396 
L 111.493917 192.453396 
L 111.493917 181.40128 
L 112.159401 181.40128 
L 112.159401 187.92764 
L 112.824884 187.92764 
L 112.824884 192.651655 
L 113.490367 192.651655 
L 113.490367 196.908784 
L 114.155851 196.908784 
L 114.155851 194.130416 
L 114.821334 194.130416 
L 114.821334 194.405434 
L 115.486817 194.405434 
L 115.486817 196.43918 
L 116.152301 196.43918 
L 116.152301 195.96693 
L 116.817784 195.96693 
L 116.817784 197.347578 
L 117.483267 197.347578 
L 117.483267 198.515968 
L 118.148751 198.515968 
L 118.148751 198.095246 
L 118.814234 198.095246 
L 118.814234 198.990267 
L 119.479717 198.990267 
L 119.479717 198.736955 
L 120.145201 198.736955 
L 120.145201 198.037875 
L 120.810684 198.037875 
L 120.810684 202.993507 
L 121.476167 202.993507 
L 121.476167 206.634544 
L 122.141651 206.634544 
L 122.141651 206.058863 
L 122.807134 206.058863 
L 122.807134 203.249296 
L 123.472617 203.249296 
L 123.472617 202.544392 
L 124.138101 202.544392 
L 124.138101 203.359887 
L 124.803584 203.359887 
L 124.803584 207.027341 
L 125.469067 207.027341 
L 125.469067 209.40457 
L 126.13455 209.40457 
L 126.13455 209.878922 
L 126.800034 209.878922 
L 126.800034 214.089194 
L 127.465517 214.089194 
L 127.465517 215.928739 
L 128.131 215.928739 
L 128.131 220.303853 
L 128.796484 220.303853 
L 128.796484 215.962503 
L 129.461967 215.962503 
L 129.461967 218.434852 
L 130.12745 218.434852 
L 130.12745 220.639331 
L 130.792934 220.639331 
L 130.792934 220.138113 
L 131.458417 220.138113 
L 131.458417 221.28326 
L 132.1239 221.28326 
L 132.1239 224.228095 
L 132.789384 224.228095 
L 132.789384 224.995002 
L 133.454867 224.995002 
L 133.454867 234.123694 
L 134.12035 234.123694 
L 134.12035 228.93828 
L 134.785834 228.93828 
L 134.785834 230.37008 
L 135.451317 230.37008 
L 135.451317 228.564245 
L 136.1168 228.564245 
L 136.1168 229.576957 
L 136.782284 229.576957 
L 136.782284 229.772431 
L 137.447767 229.772431 
L 137.447767 230.302824 
L 138.11325 230.302824 
L 138.11325 234.04322 
L 138.778734 234.04322 
L 138.778734 235.284164 
L 139.444217 235.284164 
L 139.444217 235.030006 
L 140.1097 235.030006 
L 140.1097 233.724388 
L 140.775183 233.724388 
L 140.775183 230.102345 
L 141.440667 230.102345 
L 141.440667 230.641293 
L 142.10615 230.641293 
L 142.10615 230.235784 
L 142.771633 230.235784 
L 142.771633 229.319137 
L 143.437117 229.319137 
L 143.437117 228.688181 
L 144.1026 228.688181 
L 144.1026 225.151821 
L 144.768083 225.151821 
L 144.768083 223.781115 
L 145.433567 223.781115 
L 145.433567 222.727158 
L 146.09905 222.727158 
L 146.09905 218.896375 
L 146.764533 218.896375 
L 146.764533 213.182406 
L 147.430017 213.182406 
L 147.430017 213.064422 
L 148.0955 213.064422 
L 148.0955 213.241648 
L 148.760983 213.241648 
L 148.760983 215.330138 
L 149.426467 215.330138 
L 149.426467 215.00485 
L 150.09195 215.00485 
L 150.09195 217.650944 
L 150.757433 217.650944 
L 150.757433 217.834938 
L 151.422917 217.834938 
L 151.422917 216.614616 
L 152.0884 216.614616 
L 152.0884 217.144224 
L 153.419367 217.215864 
L 153.419367 221.502392 
L 154.08485 221.502392 
L 154.08485 222.587471 
L 154.750333 222.587471 
L 154.750333 219.688997 
L 155.415817 219.688997 
L 155.415817 220.470918 
L 156.0813 220.470918 
L 156.0813 221.196247 
L 156.746783 221.196247 
L 156.746783 220.179425 
L 157.412266 220.179425 
L 157.412266 220.470918 
L 158.07775 220.470918 
L 158.07775 218.625915 
L 158.743233 218.625915 
L 158.743233 219.448036 
L 159.408716 219.448036 
L 159.408716 221.196247 
L 160.0742 221.196247 
L 160.0742 221.370637 
L 160.739683 221.370637 
L 160.739683 220.639331 
L 162.07065 220.554955 
L 162.07065 221.239708 
L 162.736133 221.239708 
L 162.736133 220.512895 
L 164.0671 220.429027 
L 164.0671 219.408145 
L 164.732583 219.408145 
L 164.732583 219.608368 
L 165.398066 219.608368 
L 165.398066 220.014666 
L 166.06355 220.014666 
L 166.06355 219.648644 
L 166.729033 219.648644 
L 166.729033 219.973679 
L 168.06 219.973679 
L 168.06 220.179425 
L 168.725483 220.179425 
L 168.725483 219.851197 
L 170.721933 219.76994 
L 170.721933 219.648644 
L 171.387416 219.648644 
L 171.387416 219.288926 
L 172.0529 219.288926 
L 172.0529 218.170266 
L 173.383866 218.095282 
L 173.383866 215.660574 
L 174.049349 215.660574 
L 174.049349 214.716361 
L 174.714833 214.716361 
L 174.714833 214.46323 
L 175.380316 214.46323 
L 175.380316 214.65279 
L 176.045799 214.65279 
L 176.045799 214.244229 
L 176.711283 214.244229 
L 176.711283 214.089194 
L 177.376766 214.089194 
L 177.376766 213.420392 
L 178.042249 213.420392 
L 178.042249 210.967369 
L 178.707733 210.967369 
L 178.707733 207.049381 
L 179.373216 207.049381 
L 179.373216 206.917487 
L 180.038699 206.917487 
L 180.038699 208.581723 
L 180.704183 208.581723 
L 180.704183 208.228761 
L 181.369666 208.228761 
L 181.369666 205.663063 
L 182.035149 205.663063 
L 182.035149 203.489653 
L 182.700633 203.489653 
L 182.700633 202.8127 
L 183.366116 202.8127 
L 183.366116 201.589074 
L 184.031599 201.589074 
L 184.031599 198.181599 
L 184.697083 198.181599 
L 184.697083 205.376146 
L 185.362566 205.376146 
L 185.362566 203.940791 
L 186.028049 203.940791 
L 186.028049 204.093362 
L 186.693533 204.093362 
L 186.693533 204.853539 
L 187.359016 204.853539 
L 187.359016 203.415402 
L 188.689982 203.471066 
L 188.689982 202.385046 
L 189.355466 202.385046 
L 189.355466 201.03618 
L 190.020949 201.03618 
L 190.020949 201.623057 
L 190.686432 201.623057 
L 190.686432 201.319175 
L 191.351916 201.319175 
L 191.351916 201.119016 
L 192.017399 201.119016 
L 192.017399 200.48144 
L 192.682882 200.48144 
L 192.682882 201.589074 
L 193.348366 201.589074 
L 193.348366 201.931427 
L 194.013849 201.931427 
L 194.013849 202.139566 
L 194.679332 202.139566 
L 194.679332 202.455716 
L 195.344816 202.455716 
L 195.344816 202.884836 
L 196.010299 202.884836 
L 196.010299 204.055114 
L 196.675782 204.055114 
L 196.675782 203.808199 
L 197.341266 203.808199 
L 197.341266 203.978829 
L 198.672232 204.016937 
L 198.672232 203.789326 
L 199.337716 203.789326 
L 199.337716 202.420351 
L 200.003199 202.420351 
L 200.003199 201.555145 
L 200.668682 201.555145 
L 200.668682 201.052721 
L 201.999649 200.986635 
L 201.999649 200.289116 
L 202.665132 200.289116 
L 202.665132 199.567857 
L 203.330616 199.567857 
L 203.330616 199.186071 
L 203.996099 199.186071 
L 203.996099 199.444924 
L 205.327065 199.337949 
L 205.327065 199.722547 
L 205.992549 199.722547 
L 205.992549 199.414304 
L 206.658032 199.414304 
L 206.658032 199.614143 
L 207.988999 199.583274 
L 207.988999 198.900512 
L 208.654482 198.900512 
L 208.654482 198.428224 
L 209.319965 198.428224 
L 209.319965 196.719674 
L 209.985449 196.719674 
L 209.985449 194.671927 
L 210.650932 194.671927 
L 210.650932 193.020091 
L 211.316415 193.020091 
L 211.316415 191.668104 
L 211.981899 191.668104 
L 211.981899 190.418228 
L 212.647382 190.418228 
L 212.647382 189.89772 
L 213.312865 189.89772 
L 213.312865 187.655801 
L 213.978349 187.655801 
L 213.978349 185.015888 
L 214.643832 185.015888 
L 214.643832 185.185482 
L 215.309315 185.185482 
L 215.309315 182.610883 
L 215.974799 182.610883 
L 215.974799 182.150706 
L 216.640282 182.150706 
L 216.640282 180.202972 
L 217.305765 180.202972 
L 217.305765 175.943177 
L 217.971249 175.943177 
L 217.971249 174.225792 
L 218.636732 174.225792 
L 218.636732 173.656588 
L 219.302215 173.656588 
L 219.302215 171.434955 
L 219.967699 171.434955 
L 219.967699 165.201113 
L 220.633182 165.201113 
L 220.633182 162.805285 
L 221.298665 162.805285 
L 221.298665 159.455167 
L 221.964148 159.455167 
L 221.964148 152.188091 
L 222.629632 152.188091 
L 222.629632 147.585633 
L 223.295115 147.585633 
L 223.295115 153.183878 
L 223.960598 153.183878 
L 223.960598 165.850224 
L 224.626082 165.850224 
L 224.626082 154.208452 
L 225.291565 154.208452 
L 225.291565 150.43089 
L 225.957048 150.43089 
L 225.957048 152.590475 
L 226.622532 152.590475 
L 226.622532 154.548368 
L 227.288015 154.548368 
L 227.288015 154.731223 
L 227.953498 154.731223 
L 227.953498 155.332178 
L 228.618982 155.332178 
L 228.618982 154.372408 
L 229.284465 154.372408 
L 229.284465 153.449736 
L 230.615432 153.554992 
L 230.615432 152.030865 
L 231.946398 151.981875 
L 231.946398 153.602702 
L 232.611882 153.602702 
L 232.611882 154.199674 
L 233.277365 154.199674 
L 233.277365 156.590564 
L 233.942848 156.590564 
L 233.942848 157.831267 
L 234.608332 157.831267 
L 234.608332 156.338191 
L 235.273815 156.338191 
L 235.273815 156.152339 
L 235.939298 156.152339 
L 235.939298 157.008041 
L 236.604781 157.008041 
L 236.604781 158.409419 
L 237.270265 158.409419 
L 237.270265 162.476577 
L 237.935748 162.476577 
L 237.935748 163.423969 
L 238.601231 163.423969 
L 238.601231 159.121461 
L 239.266715 159.121461 
L 239.266715 158.452411 
L 239.932198 158.452411 
L 239.932198 160.169365 
L 240.597681 160.169365 
L 240.597681 159.006244 
L 241.263165 159.006244 
L 241.263165 158.10035 
L 241.928648 158.10035 
L 241.928648 156.883915 
L 242.594131 156.883915 
L 242.594131 156.468888 
L 243.259615 156.468888 
L 243.259615 157.2504 
L 243.925098 157.2504 
L 243.925098 155.960486 
L 244.590581 155.960486 
L 244.590581 157.887739 
L 245.256065 157.887739 
L 245.256065 155.755245 
L 245.921548 155.755245 
L 245.921548 155.223127 
L 246.587031 155.223127 
L 246.587031 154.282337 
L 247.252515 154.282337 
L 247.252515 152.333663 
L 247.917998 152.333663 
L 247.917998 154.439773 
L 248.583481 154.439773 
L 248.583481 153.671048 
L 249.248965 153.671048 
L 249.248965 153.326482 
L 249.914448 153.326482 
L 249.914448 152.815957 
L 250.579931 152.815957 
L 250.579931 153.515884 
L 251.245415 153.515884 
L 251.245415 153.225719 
L 251.910898 153.225719 
L 251.910898 152.959371 
L 252.576381 152.959371 
L 252.576381 153.684744 
L 253.241864 153.684744 
L 253.241864 153.314701 
L 253.907348 153.314701 
L 253.907348 152.738889 
L 254.572831 152.738889 
L 254.572831 151.072261 
L 255.238314 151.072261 
L 255.238314 144.854071 
L 255.903798 144.854071 
L 255.903798 143.845442 
L 256.569281 143.845442 
L 256.569281 142.643722 
L 257.234764 142.643722 
L 257.234764 143.041119 
L 257.900248 143.041119 
L 257.900248 138.476878 
L 258.565731 138.476878 
L 258.565731 132.894307 
L 259.231214 132.894307 
L 259.231214 129.245678 
L 259.896698 129.245678 
L 259.896698 125.288225 
L 260.562181 125.288225 
L 260.562181 116.696085 
L 261.227664 116.696085 
L 261.227664 114.025283 
L 261.893148 114.025283 
L 261.893148 107.11686 
L 262.558631 107.11686 
L 262.558631 108.718947 
L 263.224114 108.718947 
L 263.224114 117.014912 
L 263.889598 117.014912 
L 263.889598 112.485739 
L 264.555081 112.485739 
L 264.555081 112.819422 
L 265.220564 112.819422 
L 265.220564 117.6337 
L 265.886048 117.6337 
L 265.886048 118.419573 
L 266.551531 118.419573 
L 266.551531 116.487071 
L 267.217014 116.487071 
L 267.217014 116.257007 
L 267.882498 116.257007 
L 267.882498 113.664875 
L 268.547981 113.664875 
L 268.547981 113.802407 
L 269.213464 113.802407 
L 269.213464 113.282852 
L 269.878947 113.282852 
L 269.878947 113.958988 
L 270.544431 113.958988 
L 270.544431 113.688322 
L 271.209914 113.688322 
L 271.209914 114.930116 
L 271.875397 114.930116 
L 271.875397 114.781257 
L 272.540881 114.781257 
L 272.540881 113.960777 
L 273.206364 113.960777 
L 273.206364 114.903896 
L 273.871847 114.903896 
L 273.871847 117.570716 
L 274.537331 117.570716 
L 274.537331 120.064444 
L 275.202814 120.064444 
L 275.202814 119.392063 
L 275.868297 119.392063 
L 275.868297 121.135606 
L 276.533781 121.135606 
L 276.533781 121.868318 
L 277.199264 121.868318 
L 277.199264 121.573319 
L 277.864747 121.573319 
L 277.864747 118.083412 
L 278.530231 118.083412 
L 278.530231 119.065126 
L 279.861197 119.028933 
L 279.861197 119.566829 
L 280.526681 119.566829 
L 280.526681 121.375175 
L 281.192164 121.375175 
L 281.192164 120.910158 
L 281.857647 120.910158 
L 281.857647 124.638958 
L 282.523131 124.638958 
L 282.523131 126.928426 
L 283.188614 126.928426 
L 283.188614 126.049322 
L 283.854097 126.049322 
L 283.854097 130.561583 
L 284.51958 130.561583 
L 284.51958 125.974678 
L 285.185064 125.974678 
L 285.185064 124.977955 
L 285.850547 124.977955 
L 285.850547 124.702129 
L 286.51603 124.702129 
L 286.51603 125.891247 
L 287.181514 125.891247 
L 287.181514 126.323321 
L 287.846997 126.323321 
L 287.846997 127.041441 
L 289.177964 127.00036 
L 289.177964 126.77066 
L 289.843447 126.77066 
L 289.843447 126.458194 
L 290.50893 126.458194 
L 290.50893 124.719235 
L 291.174414 124.719235 
L 291.174414 123.082742 
L 291.839897 123.082742 
L 291.839897 121.081621 
L 292.50538 121.081621 
L 292.50538 119.367216 
L 293.170864 119.367216 
L 293.170864 118.37248 
L 293.836347 118.37248 
L 293.836347 118.776355 
L 294.50183 118.776355 
L 294.50183 120.705821 
L 295.167314 120.705821 
L 295.167314 120.133025 
L 295.832797 120.133025 
L 295.832797 120.726659 
L 296.49828 120.726659 
L 296.49828 121.822088 
L 297.163764 121.822088 
L 297.163764 120.409975 
L 297.829247 120.409975 
L 297.829247 118.888019 
L 298.49473 118.888019 
L 298.49473 119.578867 
L 299.160214 119.578867 
L 299.160214 119.258566 
L 299.825697 119.258566 
L 299.825697 119.588235 
L 300.49118 119.588235 
L 300.49118 119.390738 
L 301.156663 119.390738 
L 301.156663 119.710396 
L 301.822147 119.710396 
L 301.822147 120.630762 
L 302.48763 120.630762 
L 302.48763 121.044274 
L 303.153113 121.044274 
L 303.153113 120.813771 
L 304.48408 120.796745 
L 304.48408 121.517091 
L 305.149563 121.517091 
L 305.149563 123.242772 
L 305.815047 123.242772 
L 305.815047 123.445456 
L 306.48053 123.445456 
L 306.48053 123.884345 
L 307.811497 123.942798 
L 307.811497 125.228519 
L 308.47698 125.228519 
L 308.47698 124.813999 
L 309.142463 124.813999 
L 309.142463 125.360893 
L 309.807947 125.360893 
L 309.807947 125.203984 
L 310.47343 125.203984 
L 310.47343 126.237109 
L 311.138913 126.237109 
L 311.138913 128.817036 
L 311.804397 128.817036 
L 311.804397 128.351655 
L 312.46988 128.351655 
L 312.46988 130.287775 
L 313.135363 130.287775 
L 313.135363 131.141148 
L 313.800847 131.141148 
L 313.800847 132.638949 
L 314.46633 132.638949 
L 314.46633 130.96443 
L 315.131813 130.96443 
L 315.131813 129.148133 
L 315.797297 129.148133 
L 315.797297 129.43571 
L 316.46278 129.43571 
L 316.46278 131.2403 
L 317.128263 131.2403 
L 317.128263 131.611905 
L 317.793746 131.611905 
L 317.793746 132.407068 
L 318.45923 132.407068 
L 318.45923 132.879757 
L 319.124713 132.879757 
L 319.124713 131.848916 
L 319.790196 131.848916 
L 319.790196 127.848654 
L 320.45568 127.848654 
L 320.45568 129.412665 
L 321.121163 129.412665 
L 321.121163 131.283022 
L 321.786646 131.283022 
L 321.786646 130.248154 
L 322.45213 130.248154 
L 322.45213 130.114779 
L 323.117613 130.114779 
L 323.117613 129.969044 
L 323.783096 129.969044 
L 323.783096 130.221968 
L 324.44858 130.221968 
L 324.44858 131.737857 
L 325.114063 131.737857 
L 325.114063 131.205251 
L 325.779546 131.205251 
L 325.779546 134.048233 
L 326.44503 134.048233 
L 326.44503 132.769383 
L 327.110513 132.769383 
L 327.110513 132.898104 
L 327.775996 132.898104 
L 327.775996 134.132668 
L 328.44148 134.132668 
L 328.44148 135.949246 
L 329.106963 135.949246 
L 329.106963 135.025065 
L 329.772446 135.025065 
L 329.772446 137.109695 
L 330.43793 137.109695 
L 330.43793 142.312278 
L 331.103413 142.312278 
L 331.103413 141.743889 
L 331.768896 141.743889 
L 331.768896 140.099214 
L 332.434379 140.099214 
L 332.434379 137.592236 
L 333.099863 137.592236 
L 333.099863 141.432983 
L 333.765346 141.432983 
L 333.765346 140.734255 
L 334.430829 140.734255 
L 334.430829 140.991914 
L 335.096313 140.991914 
L 335.096313 141.141661 
L 335.761796 141.141661 
L 335.761796 140.028742 
L 336.427279 140.028742 
L 336.427279 139.047629 
L 337.092763 139.047629 
L 337.092763 139.549824 
L 337.758246 139.549824 
L 337.758246 138.401778 
L 338.423729 138.401778 
L 338.423729 137.08029 
L 339.089213 137.08029 
L 339.089213 136.701743 
L 339.754696 136.701743 
L 339.754696 135.242742 
L 340.420179 135.242742 
L 340.420179 135.644558 
L 341.085663 135.644558 
L 341.085663 137.705071 
L 341.751146 137.705071 
L 341.751146 139.114009 
L 342.416629 139.114009 
L 342.416629 138.44631 
L 343.082113 138.44631 
L 343.082113 138.98739 
L 343.747596 138.98739 
L 343.747596 137.83134 
L 344.413079 137.83134 
L 344.413079 139.285182 
L 345.078563 139.285182 
L 345.078563 141.077887 
L 346.409529 141.112563 
L 346.409529 139.908865 
L 347.075013 139.908865 
L 347.075013 140.772978 
L 348.405979 140.834901 
L 348.405979 139.590771 
L 349.071462 139.590771 
L 349.071462 139.793193 
L 349.736946 139.793193 
L 349.736946 139.462104 
L 350.402429 139.462104 
L 350.402429 139.77471 
L 351.067912 139.77471 
L 351.067912 140.30665 
L 351.733396 140.30665 
L 351.733396 139.740427 
L 352.398879 139.740427 
L 352.398879 139.956733 
L 353.064362 139.956733 
L 353.064362 140.584647 
L 353.729846 140.584647 
L 353.729846 141.090064 
L 354.395329 141.090064 
L 354.395329 140.64693 
L 355.060812 140.64693 
L 355.060812 140.469729 
L 355.726296 140.469729 
L 355.726296 138.693784 
L 356.391779 138.693784 
L 356.391779 139.135329 
L 357.057262 139.135329 
L 357.057262 139.527208 
L 357.722746 139.527208 
L 357.722746 138.811908 
L 358.388229 138.811908 
L 358.388229 138.304797 
L 359.053712 138.304797 
L 359.053712 137.198937 
L 359.719196 137.198937 
L 359.719196 135.961702 
L 360.384679 135.961702 
L 360.384679 135.742968 
L 361.050162 135.742968 
L 361.050162 136.570027 
L 362.381129 136.477415 
L 362.381129 135.390557 
L 363.046612 135.390557 
L 363.046612 135.704562 
L 363.712096 135.704562 
L 363.712096 136.242096 
L 364.377579 136.242096 
L 364.377579 136.376239 
L 365.043062 136.376239 
L 365.043062 137.009269 
L 365.708545 137.009269 
L 365.708545 137.758522 
L 366.374029 137.758522 
L 366.374029 140.77667 
L 367.039512 140.77667 
L 367.039512 140.602946 
L 367.704995 140.602946 
L 367.704995 140.882159 
L 368.370479 140.882159 
L 368.370479 140.410692 
L 369.701445 140.367203 
L 369.701445 139.181455 
L 370.366929 139.181455 
L 370.366929 140.00827 
L 371.032412 140.00827 
L 371.032412 140.585561 
L 371.697895 140.585561 
L 371.697895 140.418857 
L 372.363379 140.418857 
L 372.363379 140.073317 
L 373.028862 140.073317 
L 373.028862 139.619568 
L 373.694345 139.619568 
L 373.694345 139.739549 
L 374.359829 139.739549 
L 374.359829 138.961143 
L 375.690795 139.052728 
L 375.690795 138.486801 
L 376.356279 138.486801 
L 376.356279 137.789699 
L 377.021762 137.789699 
L 377.021762 136.751162 
L 377.687245 136.751162 
L 377.687245 135.832372 
L 378.352729 135.832372 
L 378.352729 133.010435 
L 379.018212 133.010435 
L 379.018212 128.643365 
L 379.683695 128.643365 
L 379.683695 129.565883 
L 380.349178 129.565883 
L 380.349178 134.26875 
L 381.014662 134.26875 
L 381.014662 133.60424 
L 381.680145 133.60424 
L 381.680145 133.155389 
L 382.345628 133.155389 
L 382.345628 133.311036 
L 383.011112 133.311036 
L 383.011112 131.193582 
L 383.676595 131.193582 
L 383.676595 130.928113 
L 384.342078 130.928113 
L 384.342078 129.569661 
L 385.007562 129.569661 
L 385.007562 128.033356 
L 385.673045 128.033356 
L 385.673045 127.202719 
L 386.338528 127.202719 
L 386.338528 126.114169 
L 387.004012 126.114169 
L 387.004012 126.965077 
L 387.669495 126.965077 
L 387.669495 126.163625 
L 388.334978 126.163625 
L 388.334978 127.21043 
L 389.665945 127.233098 
L 389.665945 127.402679 
L 390.331428 127.402679 
L 390.331428 126.490302 
L 390.996912 126.490302 
L 390.996912 127.388576 
L 391.662395 127.388576 
L 391.662395 129.648604 
L 392.327878 129.648604 
L 392.327878 129.86588 
L 392.993362 129.86588 
L 392.993362 129.317004 
L 393.658845 129.317004 
L 393.658845 130.13584 
L 394.324328 130.13584 
L 394.324328 130.592166 
L 394.989812 130.592166 
L 394.989812 130.224752 
L 395.655295 130.224752 
L 395.655295 130.057247 
L 396.320778 130.057247 
L 396.320778 128.918273 
L 396.986261 128.918273 
L 396.986261 127.859094 
L 398.317228 127.895424 
L 398.317228 127.289634 
L 398.982711 127.289634 
L 398.982711 127.734164 
L 399.648195 127.734164 
L 399.648195 128.58202 
L 400.313678 128.58202 
L 400.313678 128.057939 
L 401.644645 128.108702 
L 401.644645 128.465496 
L 402.310128 128.465496 
L 402.310128 128.03837 
L 403.641095 128.009803 
L 403.641095 128.1717 
L 404.306578 128.1717 
L 404.306578 127.932316 
L 405.637545 127.860586 
L 405.637545 127.727739 
L 406.303028 127.727739 
L 406.303028 127.393438 
L 406.968511 127.393438 
L 406.968511 127.079727 
L 407.633995 127.079727 
L 407.633995 126.328404 
L 408.299478 126.328404 
L 408.299478 126.637044 
L 408.964961 126.637044 
L 408.964961 126.278557 
L 409.630445 126.278557 
L 409.630445 126.446572 
L 410.295928 126.446572 
L 410.295928 125.928387 
L 410.961411 125.928387 
L 410.961411 126.148959 
L 411.626895 126.148959 
L 411.626895 126.274869 
L 412.292378 126.274869 
L 412.292378 126.734819 
L 412.957861 126.734819 
L 412.957861 126.477732 
L 413.623344 126.477732 
L 413.623344 123.750359 
L 414.288828 123.750359 
L 414.288828 122.687367 
L 414.954311 122.687367 
L 414.954311 120.984083 
L 415.619794 120.984083 
L 415.619794 121.191537 
L 416.285278 121.191537 
L 416.285278 117.637052 
L 416.950761 117.637052 
L 416.950761 115.695198 
L 417.616244 115.695198 
L 417.616244 120.661387 
L 418.281728 120.661387 
L 418.281728 119.38444 
L 418.947211 119.38444 
L 418.947211 118.169213 
L 419.612694 118.169213 
L 419.612694 117.735116 
L 420.278178 117.735116 
L 420.278178 118.324548 
L 422.274628 118.377532 
L 422.274628 118.183287 
L 422.940111 118.183287 
L 422.940111 118.37248 
L 423.605594 118.37248 
L 423.605594 118.560854 
L 424.271078 118.560854 
L 424.271078 120.217001 
L 424.936561 120.217001 
L 424.936561 121.381373 
L 425.602044 121.381373 
L 425.602044 120.939054 
L 426.933011 120.997683 
L 426.933011 121.44711 
L 427.598494 121.44711 
L 427.598494 121.217207 
L 428.929461 121.271182 
L 428.929461 121.425905 
L 430.260427 121.407643 
L 430.260427 120.127531 
L 430.925911 120.127531 
L 430.925911 119.669372 
L 431.591394 119.669372 
L 431.591394 120.099049 
L 432.922361 120.156738 
L 432.922361 120.616696 
L 433.587844 120.616696 
L 433.587844 120.174627 
L 435.584294 120.161209 
L 435.584294 119.912313 
L 436.249777 119.912313 
L 436.249777 119.220392 
L 436.915261 119.220392 
L 436.915261 119.095499 
L 437.580744 119.095499 
L 437.580744 119.427564 
L 438.246227 119.427564 
L 438.246227 118.93402 
L 438.911711 118.93402 
L 438.911711 117.61512 
L 439.577194 117.61512 
L 439.577194 116.411634 
L 440.242677 116.411634 
L 440.242677 117.086923 
L 440.908161 117.086923 
L 440.908161 116.558729 
L 441.573644 116.558729 
L 441.573644 117.179152 
L 442.239127 117.179152 
L 442.239127 116.119383 
L 444.235577 116.112865 
L 444.235577 116.313571 
L 444.90106 116.313571 
L 444.90106 115.39165 
L 446.232027 115.295799 
L 446.232027 115.249261 
L 446.89751 115.249261 
L 446.89751 115.04125 
L 447.562994 115.04125 
L 447.562994 114.637412 
L 448.228477 114.637412 
L 448.228477 111.621517 
L 448.89396 111.621517 
L 448.89396 111.249879 
L 449.559444 111.249879 
L 449.559444 110.48948 
L 450.224927 110.48948 
L 450.224927 107.578463 
L 450.89041 107.578463 
L 450.89041 111.700268 
L 451.555894 111.700268 
L 451.555894 114.258339 
L 452.221377 114.258339 
L 452.221377 113.619063 
L 452.88686 113.619063 
L 452.88686 112.043678 
L 453.552344 112.043678 
L 453.552344 112.326547 
L 454.217827 112.326547 
L 454.217827 111.514626 
L 454.88331 111.514626 
L 454.88331 110.091156 
L 455.548794 110.091156 
L 455.548794 109.5119 
L 456.214277 109.5119 
L 456.214277 110.050424 
L 456.87976 110.050424 
L 456.87976 109.716968 
L 457.545244 109.716968 
L 457.545244 108.632825 
L 458.210727 108.632825 
L 458.210727 107.282339 
L 458.87621 107.282339 
L 458.87621 106.816634 
L 459.541694 106.816634 
L 459.541694 105.504322 
L 460.207177 105.504322 
L 460.207177 104.733508 
L 460.87266 104.733508 
L 460.87266 106.072686 
L 461.538143 106.072686 
L 461.538143 105.237701 
L 462.203627 105.237701 
L 462.203627 108.362296 
L 462.86911 108.362296 
L 462.86911 107.506289 
L 463.534593 107.506289 
L 463.534593 110.555165 
L 464.200077 110.555165 
L 464.200077 108.927582 
L 464.86556 108.927582 
L 464.86556 108.135022 
L 465.531043 108.135022 
L 465.531043 106.043976 
L 466.196527 106.043976 
L 466.196527 105.761444 
L 466.86201 105.761444 
L 466.86201 106.456865 
L 467.527493 106.456865 
L 467.527493 105.913703 
L 468.192977 105.913703 
L 468.192977 105.363981 
L 468.85846 105.363981 
L 468.85846 104.456375 
L 469.523943 104.456375 
L 469.523943 103.400784 
L 470.189427 103.400784 
L 470.189427 100.76266 
L 470.85491 100.76266 
L 470.85491 99.270362 
L 471.520393 99.270362 
L 471.520393 98.748505 
L 472.185877 98.748505 
L 472.185877 98.550714 
L 472.85136 98.550714 
L 472.85136 95.174862 
L 473.516843 95.174862 
L 473.516843 91.273367 
L 474.182327 91.273367 
L 474.182327 93.492419 
L 474.84781 93.492419 
L 474.84781 91.3733 
L 475.513293 91.3733 
L 475.513293 89.00666 
L 476.178776 89.00666 
L 476.178776 88.05372 
L 476.84426 88.05372 
L 476.84426 88.953497 
L 477.509743 88.953497 
L 477.509743 89.550313 
L 478.175226 89.550313 
L 478.175226 89.321833 
L 478.84071 89.321833 
L 478.84071 90.590086 
L 479.506193 90.590086 
L 479.506193 90.261661 
L 480.83716 90.194069 
L 480.83716 90.583159 
L 481.502643 90.583159 
L 481.502643 92.249296 
L 482.168126 92.249296 
L 482.168126 95.55832 
L 482.83361 95.55832 
L 482.83361 92.666594 
L 483.499093 92.666594 
L 483.499093 88.629123 
L 484.164576 88.629123 
L 484.164576 89.338806 
L 484.83006 89.338806 
L 484.83006 87.776452 
L 486.161026 87.823042 
L 486.161026 84.132133 
L 486.82651 84.132133 
L 486.82651 81.489873 
L 487.491993 81.489873 
L 487.491993 78.916714 
L 488.157476 78.916714 
L 488.157476 80.508785 
L 488.82296 80.508785 
L 488.82296 79.127907 
L 489.488443 79.127907 
L 489.488443 78.91261 
L 490.153926 78.91261 
L 490.153926 76.518069 
L 490.81941 76.518069 
L 490.81941 78.872759 
L 491.484893 78.872759 
L 491.484893 79.132247 
L 492.150376 79.132247 
L 492.150376 81.507694 
L 492.815859 81.507694 
L 492.815859 82.541519 
L 493.481343 82.541519 
L 493.481343 82.986827 
L 494.146826 82.986827 
L 494.146826 81.150082 
L 494.812309 81.150082 
L 494.812309 79.951437 
L 495.477793 79.951437 
L 495.477793 79.241216 
L 496.143276 79.241216 
L 496.143276 78.615092 
L 496.808759 78.615092 
L 496.808759 76.888243 
L 497.474243 76.888243 
L 497.474243 73.426179 
L 498.805209 73.406118 
L 498.805209 72.673445 
L 499.470693 72.673445 
L 499.470693 73.141212 
L 500.136176 73.141212 
L 500.136176 70.924415 
L 500.801659 70.924415 
L 500.801659 68.041136 
L 501.467143 68.041136 
L 501.467143 67.752685 
L 502.132626 67.752685 
L 502.132626 72.710675 
L 502.798109 72.710675 
L 502.798109 66.662262 
L 503.463593 66.662262 
L 503.463593 65.692461 
L 504.794559 65.76868 
L 504.794559 61.826776 
L 505.460043 61.826776 
L 505.460043 59.832636 
L 506.125526 59.832636 
L 506.125526 54.864465 
L 506.791009 54.864465 
L 506.791009 53.0938 
L 507.456493 53.0938 
L 507.456493 51.315776 
L 508.121976 51.315776 
L 508.121976 48.350224 
L 508.787459 48.350224 
L 508.787459 54.966263 
L 509.452942 54.966263 
L 509.452942 52.266381 
L 510.118426 52.266381 
L 510.118426 56.809836 
L 510.783909 56.809836 
L 510.783909 53.135014 
L 511.449392 53.135014 
L 511.449392 51.59153 
L 512.114876 51.59153 
L 512.114876 55.72422 
L 512.780359 55.72422 
L 512.780359 55.306244 
L 513.445842 55.306244 
L 513.445842 58.726456 
L 514.111326 58.726456 
L 514.111326 59.988949 
L 514.776809 59.988949 
L 514.776809 58.863274 
L 515.442292 58.863274 
L 515.442292 61.235207 
L 516.107776 61.235207 
L 516.107776 65.795956 
L 517.438742 65.68671 
L 517.438742 64.100565 
L 518.104226 64.100565 
L 518.104226 61.287336 
L 518.769709 61.287336 
L 518.769709 59.204725 
L 519.435192 59.204725 
L 519.435192 62.293533 
L 520.100676 62.293533 
L 520.100676 60.974594 
L 520.766159 60.974594 
L 520.766159 58.707734 
L 521.431642 58.707734 
L 521.431642 63.117492 
L 522.097126 63.117492 
L 522.097126 63.5577 
L 522.762609 63.5577 
L 522.762609 65.55338 
L 523.428092 65.55338 
L 523.428092 64.067186 
L 524.093576 64.067186 
L 524.093576 64.968052 
L 524.759059 64.968052 
L 524.759059 66.446186 
L 525.424542 66.446186 
L 525.424542 69.626351 
L 526.090025 69.626351 
L 526.090025 69.751764 
L 527.420992 69.758689 
L 527.420992 66.592104 
L 528.751959 66.560546 
L 528.751959 64.018843 
L 529.417442 64.018843 
L 529.417442 64.160702 
L 530.082925 64.160702 
L 530.082925 62.952639 
L 530.748409 62.952639 
L 530.748409 62.178474 
L 531.413892 62.178474 
L 531.413892 63.017711 
L 532.079375 63.017711 
L 532.079375 65.305853 
L 532.744859 65.305853 
L 532.744859 65.122053 
L 533.410342 65.122053 
L 533.410342 65.694336 
L 534.075825 65.694336 
L 534.075825 67.631487 
L 534.741309 67.631487 
L 534.741309 68.10198 
L 535.406792 68.10198 
L 535.406792 67.693434 
L 536.737759 67.67724 
L 536.737759 67.345365 
L 537.403242 67.345365 
L 537.403242 70.483423 
L 538.068725 70.483423 
L 538.068725 70.689411 
L 538.734209 70.689411 
L 538.734209 69.831397 
L 539.399692 69.831397 
L 539.399692 71.784999 
L 540.065175 71.784999 
L 540.065175 72.753051 
L 540.730658 72.753051 
L 540.730658 70.250687 
L 542.061625 70.243912 
L 542.061625 71.208861 
L 542.727108 71.208861 
L 542.727108 71.475936 
L 543.392592 71.475936 
L 543.392592 68.026626 
L 544.723558 67.926151 
L 544.723558 66.474573 
L 545.389042 66.474573 
L 545.389042 65.873935 
L 546.054525 65.873935 
L 546.054525 67.903297 
L 546.720008 67.903297 
L 546.720008 69.963398 
L 547.385492 69.963398 
L 547.385492 71.546201 
L 548.050975 71.546201 
L 548.050975 71.403109 
L 548.716458 71.403109 
L 548.716458 70.69617 
L 549.381942 70.69617 
L 549.381942 70.569772 
L 550.047425 70.569772 
L 550.047425 69.402075 
L 550.712908 69.402075 
L 550.712908 69.049456 
L 551.378392 69.049456 
L 551.378392 68.060423 
L 552.043875 68.060423 
L 552.043875 71.693555 
L 552.709358 71.693555 
L 552.709358 71.219521 
L 553.374842 71.219521 
L 553.374842 70.661462 
L 554.705808 70.665801 
L 554.705808 70.38661 
L 555.371292 70.38661 
L 555.371292 70.243691 
L 556.036775 70.243691 
L 556.036775 70.584658 
L 556.702258 70.584658 
L 556.702258 70.417815 
L 558.033225 70.394161 
L 558.033225 71.421467 
L 558.698708 71.421467 
L 558.698708 70.622158 
L 560.029675 70.67265 
L 560.029675 70.742614 
L 560.695158 70.742614 
L 560.695158 71.300324 
L 561.360641 71.300324 
L 561.360641 71.103446 
L 562.026125 71.103446 
L 562.026125 70.535017 
L 562.691608 70.535017 
L 562.691608 70.948971 
L 563.357091 70.948971 
L 563.357091 73.547462 
L 564.022575 73.547462 
L 564.022575 76.773321 
L 564.688058 76.773321 
L 564.688058 79.025905 
L 565.353541 79.025905 
L 565.353541 81.707307 
L 566.019025 81.707307 
L 566.019025 79.832324 
L 566.684508 79.832324 
L 566.684508 82.167648 
L 567.349991 82.167648 
L 567.349991 83.059329 
L 568.015475 83.059329 
L 568.015475 84.75797 
L 568.680958 84.75797 
L 568.680958 83.245803 
L 569.346441 83.245803 
L 569.346441 81.321535 
L 570.011925 81.321535 
L 570.011925 81.745142 
L 570.677408 81.745142 
L 570.677408 82.0266 
L 571.342891 82.0266 
L 571.342891 81.15364 
L 572.008375 81.15364 
L 572.008375 80.420538 
L 572.673858 80.420538 
L 572.673858 82.725582 
L 573.339341 82.725582 
L 573.339341 82.519107 
L 574.004824 82.519107 
L 574.004824 82.843438 
L 574.670308 82.843438 
L 574.670308 83.065673 
L 576.001274 83.130098 
L 576.001274 83.760227 
L 577.332241 83.844531 
L 577.332241 84.218016 
L 577.997724 84.218016 
L 577.997724 82.821908 
L 578.663208 82.821908 
L 578.663208 82.94465 
L 579.328691 82.94465 
L 579.328691 81.179047 
L 579.994174 81.179047 
L 579.994174 80.075521 
L 580.659658 80.075521 
L 580.659658 81.68125 
L 581.990624 81.783101 
L 581.990624 81.391318 
L 583.321591 81.422127 
L 583.321591 81.126089 
L 583.987074 81.126089 
L 583.987074 80.640484 
L 585.983524 80.540174 
L 585.983524 80.204254 
L 586.649008 80.204254 
L 586.649008 76.506032 
L 587.314491 76.506032 
L 587.314491 75.038805 
L 587.979974 75.038805 
L 587.979974 75.829914 
L 588.645457 75.829914 
L 588.645457 75.326394 
L 589.310941 75.326394 
L 589.310941 74.878618 
L 589.976424 74.878618 
L 589.976424 74.392997 
L 590.641907 74.392997 
L 590.641907 74.910068 
L 591.307391 74.910068 
L 591.307391 74.56289 
L 591.972874 74.56289 
L 591.972874 73.452686 
L 592.638357 73.452686 
L 592.638357 71.147088 
L 593.303841 71.147088 
L 593.303841 66.335951 
L 593.969324 66.335951 
L 593.969324 68.329287 
L 594.634807 68.329287 
L 594.634807 67.316894 
L 595.300291 67.316894 
L 595.300291 64.458803 
L 595.965774 64.458803 
L 595.965774 65.617477 
L 596.631257 65.617477 
L 596.631257 65.967604 
L 597.296741 65.967604 
L 597.296741 66.321324 
L 597.962224 66.321324 
L 597.962224 66.533124 
L 598.627707 66.533124 
L 598.627707 64.185837 
L 599.293191 64.185837 
L 599.293191 63.213567 
L 599.958674 63.213567 
L 599.958674 60.02177 
L 600.624157 60.02177 
L 600.624157 59.415864 
L 601.289641 59.415864 
L 601.289641 60.482066 
L 601.955124 60.482066 
L 601.955124 59.751865 
L 602.620607 59.751865 
L 602.620607 56.852531 
L 603.286091 56.852531 
L 603.286091 58.940637 
L 603.951574 58.940637 
L 603.951574 62.348463 
L 604.617057 62.348463 
L 604.617057 60.464918 
L 605.28254 60.464918 
L 605.28254 61.919259 
L 605.948024 61.919259 
L 605.948024 62.725173 
L 606.613507 62.725173 
L 606.613507 60.579357 
L 607.27899 60.579357 
L 607.27899 58.800708 
L 607.944474 58.800708 
L 607.944474 59.137538 
L 608.609957 59.137538 
L 608.609957 61.621547 
L 609.27544 61.621547 
L 609.27544 61.004002 
L 609.940924 61.004002 
L 609.940924 61.424385 
L 610.606407 61.424385 
L 610.606407 60.917795 
L 611.27189 60.917795 
L 611.27189 62.557357 
L 611.937374 62.557357 
L 611.937374 60.398198 
L 612.602857 60.398198 
L 612.602857 60.663498 
L 613.26834 60.663498 
L 613.26834 61.326848 
L 613.933824 61.326848 
L 613.933824 61.01852 
L 615.26479 61.088616 
L 615.26479 62.328828 
L 615.930274 62.328828 
L 615.930274 65.816743 
L 616.595757 65.816743 
L 616.595757 65.490483 
L 617.26124 65.490483 
L 617.26124 65.934848 
L 617.926724 65.934848 
L 617.926724 64.835936 
L 618.592207 64.835936 
L 618.592207 65.588971 
L 619.25769 65.588971 
L 619.25769 66.11739 
L 619.923174 66.11739 
L 619.923174 65.743929 
L 620.588657 65.743929 
L 620.588657 64.645024 
L 621.25414 64.645024 
L 621.25414 62.875124 
L 621.919623 62.875124 
L 621.919623 63.169785 
L 623.25059 63.075341 
L 623.25059 63.771233 
L 623.916073 63.771233 
L 623.916073 64.728247 
L 624.581557 64.728247 
L 624.581557 65.862438 
L 625.24704 65.862438 
L 625.24704 68.26815 
L 625.912523 68.26815 
L 625.912523 68.622868 
L 626.578007 68.622868 
L 626.578007 67.504522 
L 627.24349 67.504522 
L 627.24349 68.537861 
L 627.908973 68.537861 
L 627.908973 67.602373 
L 628.574457 67.602373 
L 628.574457 68.548577 
L 629.23994 68.548577 
L 629.23994 69.467903 
L 629.905423 69.467903 
L 629.905423 68.545643 
L 630.570907 68.545643 
L 630.570907 68.370605 
L 631.23639 68.370605 
L 631.23639 68.226005 
L 631.901873 68.226005 
L 631.901873 68.58777 
L 632.567357 68.58777 
L 632.567357 68.082058 
L 633.23284 68.082058 
L 633.23284 66.797651 
L 633.898323 66.797651 
L 633.898323 66.043934 
L 634.563807 66.043934 
L 634.563807 64.089722 
L 635.22929 64.089722 
L 635.22929 64.511792 
L 635.894773 64.511792 
L 635.894773 65.479345 
L 636.560256 65.479345 
L 636.560256 63.21782 
L 637.891223 63.139765 
L 637.891223 62.173529 
L 638.556706 62.173529 
L 638.556706 61.962401 
L 639.22219 61.962401 
L 639.22219 60.901172 
L 639.887673 60.901172 
L 639.887673 61.283049 
L 640.553156 61.283049 
L 640.553156 62.358503 
L 641.21864 62.358503 
L 641.21864 64.36088 
L 641.884123 64.36088 
L 641.884123 64.967049 
L 642.549606 64.967049 
L 642.549606 63.701402 
L 643.21509 63.701402 
L 643.21509 66.495283 
L 643.880573 66.495283 
L 643.880573 73.731686 
L 644.546056 73.731686 
L 644.546056 74.68938 
L 645.21154 74.68938 
L 645.21154 71.674012 
L 645.877023 71.674012 
L 645.877023 70.024942 
L 646.542506 70.024942 
L 646.542506 72.727239 
L 647.20799 72.727239 
L 647.20799 69.682798 
L 647.873473 69.682798 
L 647.873473 68.105847 
L 648.538956 68.105847 
L 648.538956 69.487036 
L 649.869923 69.490956 
L 649.869923 68.345649 
L 650.535406 68.345649 
L 650.535406 68.718236 
L 651.20089 68.718236 
L 651.20089 67.117017 
L 651.866373 67.117017 
L 651.866373 64.736837 
L 652.531856 64.736837 
L 652.531856 64.12356 
L 653.197339 64.12356 
L 653.197339 62.032427 
L 653.862823 62.032427 
L 653.862823 64.292037 
L 654.528306 64.292037 
L 654.528306 62.980877 
L 655.193789 62.980877 
L 655.193789 62.704655 
L 655.859273 62.704655 
L 655.859273 64.491523 
L 656.524756 64.491523 
L 656.524756 62.576509 
L 657.190239 62.576509 
L 657.190239 61.234736 
L 657.855723 61.234736 
L 657.855723 62.457823 
L 658.521206 62.457823 
L 658.521206 62.13185 
L 659.186689 62.13185 
L 659.186689 62.786431 
L 660.517656 62.827671 
L 660.517656 63.206639 
L 661.848623 63.305679 
L 661.848623 63.43148 
L 662.514106 63.43148 
L 662.514106 63.68982 
L 663.179589 63.68982 
L 663.179589 63.270952 
L 664.510556 63.316733 
L 664.510556 63.412936 
L 665.841523 63.364949 
L 665.841523 62.480925 
L 666.507006 62.480925 
L 666.507006 59.586224 
L 667.172489 59.586224 
L 667.172489 59.023717 
L 667.837973 59.023717 
L 667.837973 59.301006 
L 668.503456 59.301006 
L 668.503456 58.257901 
L 669.168939 58.257901 
L 669.168939 58.605932 
L 669.834422 58.605932 
L 669.834422 57.999681 
L 671.165389 58.084321 
L 671.165389 58.264415 
L 671.830872 58.264415 
L 671.830872 58.675266 
L 672.496356 58.675266 
L 672.496356 57.983492 
L 673.161839 57.983492 
L 673.161839 61.326231 
L 673.827322 61.326231 
L 673.827322 61.186494 
L 674.492806 61.186494 
L 674.492806 60.977363 
L 675.158289 60.977363 
L 675.158289 59.773359 
L 675.823772 59.773359 
L 675.823772 60.776811 
L 676.489256 60.776811 
L 676.489256 60.257992 
L 677.154739 60.257992 
L 677.154739 59.971008 
L 677.820222 59.971008 
L 677.820222 60.535335 
L 678.485706 60.535335 
L 678.485706 60.30108 
L 679.151189 60.30108 
L 679.151189 58.963551 
L 679.816672 58.963551 
L 679.816672 58.731502 
L 680.482156 58.731502 
L 680.482156 58.274661 
L 681.147639 58.274661 
L 681.147639 56.267273 
L 681.813122 56.267273 
L 681.813122 55.156822 
L 682.478606 55.156822 
L 682.478606 54.915227 
L 683.144089 54.915227 
L 683.144089 54.399551 
L 683.809572 54.399551 
L 683.809572 52.517488 
L 684.475055 52.517488 
L 684.475055 51.459553 
L 685.140539 51.459553 
L 685.140539 50.91617 
L 685.806022 50.91617 
L 685.806022 48.599429 
L 686.471505 48.599429 
L 686.471505 48.064283 
L 687.136989 48.064283 
L 687.136989 49.694905 
L 687.802472 49.694905 
L 687.802472 48.005059 
L 688.467955 48.005059 
L 688.467955 47.842028 
L 689.133439 47.842028 
L 689.133439 49.096652 
L 689.798922 49.096652 
L 689.798922 47.951235 
L 690.464405 47.951235 
L 690.464405 44.126759 
L 691.129889 44.126759 
L 691.129889 43.527286 
L 691.795372 43.527286 
L 691.795372 41.349924 
L 692.460855 41.349924 
L 692.460855 39.526017 
L 693.126339 39.526017 
L 693.126339 36.723658 
L 693.791822 36.723658 
L 693.791822 32.976898 
L 694.457305 32.976898 
L 694.457305 35.172742 
L 695.122789 35.172742 
L 695.122789 34.43192 
L 695.788272 34.43192 
L 695.788272 34.895412 
L 696.453755 34.895412 
L 696.453755 37.30177 
L 697.119239 37.30177 
L 697.119239 38.424756 
L 697.784722 38.424756 
L 697.784722 36.637975 
L 698.450205 36.637975 
L 698.450205 34.333731 
L 699.115689 34.333731 
L 699.115689 29.623439 
L 699.781172 29.623439 
L 699.781172 29.130647 
L 700.446655 29.130647 
L 700.446655 28.400681 
L 701.112138 28.400681 
L 701.112138 25.679807 
L 701.777622 25.679807 
L 701.777622 27.787553 
L 702.443105 27.787553 
L 702.443105 30.19436 
L 703.108588 30.19436 
L 703.108588 28.704999 
L 703.774072 28.704999 
L 703.774072 27.107992 
L 704.439555 27.107992 
L 704.439555 25.218045 
L 705.105038 25.218045 
L 705.105038 25.357442 
L 705.770522 25.357442 
L 705.770522 24.91657 
L 706.436005 24.91657 
L 706.436005 27.024745 
L 707.101488 27.024745 
L 707.101488 25.761068 
L 707.766972 25.761068 
L 707.766972 24.683781 
L 708.432455 24.683781 
L 708.432455 24.571315 
L 709.097938 24.571315 
L 709.097938 24.910538 
L 709.763422 24.910538 
L 709.763422 23.037601 
L 710.428905 23.037601 
L 710.428905 24.209181 
L 711.094388 24.209181 
L 711.094388 26.513796 
L 711.759872 26.513796 
L 711.759872 28.436616 
L 712.425355 28.436616 
L 712.425355 26.601165 
L 713.090838 26.601165 
L 713.090838 25.232621 
L 714.421805 25.171776 
L 714.421805 25.402427 
L 715.087288 25.402427 
L 715.087288 29.456429 
L 715.752772 29.456429 
L 715.752772 34.355086 
L 716.418255 34.355086 
L 716.418255 35.642352 
L 717.083738 35.642352 
L 717.083738 33.534706 
L 717.749221 33.534706 
L 717.749221 34.160371 
L 718.414705 34.160371 
L 718.414705 34.39963 
L 719.080188 34.39963 
L 719.080188 36.441187 
L 719.745671 36.441187 
L 719.745671 35.202162 
L 720.411155 35.202162 
L 720.411155 33.60022 
L 721.076638 33.60022 
L 721.076638 35.144906 
L 721.742121 35.144906 
L 721.742121 35.711664 
L 723.073088 35.822106 
L 723.073088 36.188833 
L 723.738571 36.188833 
L 723.738571 35.971526 
L 724.404055 35.971526 
L 724.404055 36.40041 
L 725.069538 36.40041 
L 725.069538 36.841801 
L 725.735021 36.841801 
L 725.735021 37.508532 
L 726.400505 37.508532 
L 726.400505 37.173256 
L 727.065988 37.173256 
L 727.065988 34.156117 
L 727.731471 34.156117 
L 727.731471 31.581735 
L 728.396955 31.581735 
L 728.396955 33.702294 
L 729.062438 33.702294 
L 729.062438 30.417643 
L 729.727921 30.417643 
L 729.727921 29.965311 
L 730.393405 29.965311 
L 730.393405 29.314007 
L 731.058888 29.314007 
L 731.058888 29.457291 
L 731.724371 29.457291 
L 731.724371 28.246878 
L 732.389854 28.246878 
L 732.389854 28.444583 
L 733.055338 28.444583 
L 733.055338 29.269915 
L 733.720821 29.269915 
L 733.720821 28.068896 
L 734.386304 28.068896 
L 734.386304 29.75262 
L 735.717271 29.76135 
L 735.717271 28.993032 
L 736.382754 28.993032 
L 736.382754 31.244417 
L 737.713721 31.286321 
L 737.713721 32.185491 
L 738.379204 32.185491 
L 738.379204 29.018464 
L 739.044688 29.018464 
L 739.044688 25.92642 
L 739.710171 25.92642 
L 739.710171 26.199126 
L 740.375654 26.199126 
L 740.375654 25.165419 
L 741.041138 25.165419 
L 741.041138 23.56429 
L 741.706621 23.56429 
L 741.706621 23.998257 
L 742.372104 23.998257 
L 742.372104 24.119678 
L 743.037588 24.119678 
L 743.037588 23.645423 
L 743.703071 23.645423 
L 743.703071 23.23555 
L 744.368554 23.23555 
L 744.368554 23.123612 
L 745.034038 23.123612 
L 745.034038 22.619784 
L 745.699521 22.619784 
L 745.699521 23.027809 
L 746.365004 23.027809 
L 746.365004 24.8996 
L 747.030488 24.8996 
L 747.030488 25.099858 
L 747.695971 25.099858 
L 747.695971 26.132176 
L 748.361454 26.132176 
L 748.361454 25.226625 
L 749.026937 25.226625 
L 749.026937 28.307295 
L 749.692421 28.307295 
L 749.692421 29.047985 
L 750.357904 29.047985 
L 750.357904 29.447266 
L 751.023387 29.447266 
L 751.023387 29.709551 
L 751.688871 29.709551 
L 751.688871 28.496706 
L 752.354354 28.496706 
L 752.354354 27.851155 
L 753.019837 27.851155 
L 753.019837 29.603374 
L 753.685321 29.603374 
L 753.685321 29.193883 
L 754.350804 29.193883 
L 754.350804 31.138052 
L 755.016287 31.138052 
L 755.016287 31.763159 
L 755.681771 31.763159 
L 755.681771 31.148351 
L 756.347254 31.148351 
L 756.347254 31.499122 
L 757.012737 31.499122 
L 757.012737 35.452804 
L 757.678221 35.452804 
L 757.678221 34.434767 
L 758.343704 34.434767 
L 758.343704 33.822766 
L 759.009187 33.822766 
L 759.009187 34.282824 
L 759.674671 34.282824 
L 759.674671 30.795388 
L 760.340154 30.795388 
L 760.340154 31.489373 
L 761.005637 31.489373 
L 761.005637 30.463512 
L 761.671121 30.463512 
L 761.671121 32.646854 
L 762.336604 32.646854 
L 762.336604 34.171041 
L 763.002087 34.171041 
L 763.002087 33.94099 
L 763.667571 33.94099 
L 763.667571 31.458304 
L 764.333054 31.458304 
L 764.333054 33.760142 
L 764.998537 33.760142 
L 764.998537 33.374673 
L 765.66402 33.374673 
L 765.66402 33.064462 
L 766.329504 33.064462 
L 766.329504 31.577694 
L 766.994987 31.577694 
L 766.994987 31.242713 
L 767.66047 31.242713 
L 767.66047 29.402009 
L 768.325954 29.402009 
L 768.325954 29.998412 
L 768.991437 29.998412 
L 768.991437 29.5125 
L 769.65692 29.5125 
L 769.65692 31.549709 
L 770.322404 31.549709 
L 770.322404 32.653545 
L 770.987887 32.653545 
L 770.987887 32.50484 
L 771.65337 32.50484 
L 771.65337 32.000641 
L 772.318854 32.000641 
L 772.318854 32.987727 
L 772.984337 32.987727 
L 772.984337 32.827236 
L 773.64982 32.827236 
L 773.64982 33.499234 
L 774.315304 33.499234 
L 774.315304 34.899528 
L 774.980787 34.899528 
L 774.980787 38.027122 
L 775.64627 38.027122 
L 775.64627 38.66265 
L 776.311754 38.66265 
L 776.311754 39.653499 
L 776.977237 39.653499 
L 776.977237 38.521248 
L 777.64272 38.521248 
L 777.64272 39.283312 
L 778.308204 39.283312 
L 778.308204 37.5532 
L 778.973687 37.5532 
L 778.973687 38.937233 
L 779.63917 38.937233 
L 779.63917 37.950544 
L 780.304653 37.950544 
L 780.304653 39.899937 
L 780.970137 39.899937 
L 780.970137 44.675124 
L 781.63562 44.675124 
L 781.63562 46.625132 
L 782.301103 46.625132 
L 782.301103 46.07537 
L 782.966587 46.07537 
L 782.966587 46.461226 
L 783.63207 46.461226 
L 783.63207 48.005352 
L 784.297553 48.005352 
L 784.297553 46.9928 
L 784.963037 46.9928 
L 784.963037 45.591529 
L 785.62852 45.591529 
L 785.62852 46.949613 
L 786.294003 46.949613 
L 786.294003 46.388723 
L 786.959487 46.388723 
L 786.959487 44.123782 
L 787.62497 44.123782 
L 787.62497 45.86607 
L 788.290453 45.86607 
L 788.290453 43.556223 
L 788.955937 43.556223 
L 788.955937 44.279782 
L 790.286903 44.311228 
L 790.286903 43.409351 
L 790.952387 43.409351 
L 790.952387 43.102234 
L 791.61787 43.102234 
L 791.61787 44.087827 
L 792.283353 44.087827 
L 792.283353 45.766103 
L 792.948837 45.766103 
L 792.948837 46.939672 
L 793.61432 46.939672 
L 793.61432 47.399129 
L 794.945287 47.354947 
L 794.945287 47.947454 
L 795.61077 47.947454 
L 795.61077 45.387478 
L 796.276253 45.387478 
L 796.276253 47.503133 
L 796.941736 47.503133 
L 796.941736 47.665453 
L 797.60722 47.665453 
L 797.60722 47.946912 
L 798.272703 47.946912 
L 798.272703 48.138077 
L 798.938186 48.138077 
L 798.938186 47.91 
L 799.60367 47.91 
L 799.60367 47.007416 
L 800.269153 47.007416 
L 800.269153 47.772933 
L 801.60012 47.835918 
L 801.60012 47.65822 
L 802.265603 47.65822 
L 802.265603 48.065568 
L 802.931086 48.065568 
L 802.931086 47.076409 
L 803.59657 47.076409 
L 803.59657 46.346616 
L 804.262053 46.346616 
L 804.262053 47.02171 
L 804.927536 47.02171 
L 804.927536 46.242372 
L 805.59302 46.242372 
L 805.59302 49.910576 
L 806.258503 49.910576 
L 806.258503 51.088172 
L 806.923986 51.088172 
L 806.923986 50.968589 
L 807.58947 50.968589 
L 807.58947 51.589157 
L 808.254953 51.589157 
L 808.254953 51.258176 
L 808.920436 51.258176 
L 808.920436 50.367232 
L 811.58237 50.323191 
L 811.58237 51.025772 
L 812.247853 51.025772 
L 812.247853 50.693252 
L 813.578819 50.775614 
L 813.578819 51.149547 
L 814.909786 51.05578 
L 814.909786 50.790117 
L 815.575269 50.790117 
L 815.575269 50.341161 
L 816.240753 50.341161 
L 816.240753 47.251582 
L 816.906236 47.251582 
L 816.906236 46.01912 
L 817.571719 46.01912 
L 817.571719 44.470813 
L 818.237203 44.470813 
L 818.237203 44.181901 
L 818.902686 44.181901 
L 818.902686 43.587977 
L 819.568169 43.587977 
L 819.568169 43.85466 
L 820.233653 43.85466 
L 820.233653 44.478847 
L 820.899136 44.478847 
L 820.899136 45.537462 
L 821.564619 45.537462 
L 821.564619 44.991428 
L 822.230103 44.991428 
L 822.230103 42.823217 
L 822.895586 42.823217 
L 822.895586 43.213512 
L 823.561069 43.213512 
L 823.561069 43.7581 
L 824.892036 43.843133 
L 824.892036 44.805333 
L 825.557519 44.805333 
L 825.557519 46.948416 
L 826.223003 46.948416 
L 826.223003 42.717113 
L 826.888486 42.717113 
L 826.888486 40.933817 
L 827.553969 40.933817 
L 827.553969 40.679186 
L 828.219452 40.679186 
L 828.219452 40.155425 
L 829.550419 40.130663 
L 829.550419 40.303331 
L 830.881386 40.210906 
L 830.881386 38.551589 
L 832.212352 38.493417 
L 832.212352 39.54558 
L 832.877836 39.54558 
L 832.877836 40.462938 
L 833.543319 40.462938 
L 833.543319 39.079421 
L 834.208802 39.079421 
L 834.208802 40.09078 
L 834.874286 40.09078 
L 834.874286 39.040476 
L 835.539769 39.040476 
L 835.539769 40.425475 
L 836.205252 40.425475 
L 836.205252 41.080998 
L 836.870736 41.080998 
L 836.870736 40.608983 
L 837.536219 40.608983 
L 837.536219 41.103908 
L 838.201702 41.103908 
L 838.201702 41.323028 
L 838.867186 41.323028 
L 838.867186 40.346618 
L 839.532669 40.346618 
L 839.532669 40.720823 
L 840.863636 40.727177 
L 840.863636 41.821459 
L 841.529119 41.821459 
L 841.529119 42.416107 
L 842.194602 42.416107 
L 842.194602 41.433908 
L 842.860086 41.433908 
L 842.860086 38.781643 
L 843.525569 38.781643 
L 843.525569 38.529691 
L 844.191052 38.529691 
L 844.191052 38.388862 
L 844.856535 38.388862 
L 844.856535 38.181981 
L 845.522019 38.181981 
L 845.522019 38.565704 
L 846.187502 38.565704 
L 846.187502 38.443664 
L 847.518469 38.547928 
L 847.518469 38.852604 
L 848.183952 38.852604 
L 848.183952 39.294403 
L 849.514919 39.196082 
L 849.514919 38.935931 
L 850.180402 38.935931 
L 850.180402 39.387947 
L 850.845885 39.387947 
L 850.845885 39.018964 
L 851.511369 39.018964 
L 851.511369 39.21909 
L 852.176852 39.21909 
L 852.176852 41.17781 
L 852.842335 41.17781 
L 852.842335 41.604021 
L 854.173302 41.663252 
L 854.173302 40.356729 
L 854.838785 40.356729 
L 854.838785 41.808321 
L 856.835235 41.83762 
L 856.835235 41.276758 
L 857.500719 41.276758 
L 857.500719 41.098298 
L 858.166202 41.098298 
L 858.166202 41.240714 
L 858.831685 41.240714 
L 858.831685 41.532668 
L 859.497169 41.532668 
L 859.497169 40.937658 
L 860.162652 40.937658 
L 860.162652 40.306839 
L 861.493618 40.202211 
L 861.493618 41.102277 
L 862.159102 41.102277 
L 862.159102 39.772997 
L 862.824585 39.772997 
L 862.824585 38.936642 
L 863.490068 38.936642 
L 863.490068 36.160608 
L 864.155552 36.160608 
L 864.155552 36.045107 
L 864.821035 36.045107 
L 864.821035 35.234186 
L 865.486518 35.234186 
L 865.486518 35.466552 
L 866.152002 35.466552 
L 866.152002 34.507057 
L 866.817485 34.507057 
L 866.817485 34.620554 
L 868.148452 34.548042 
L 868.148452 35.018206 
L 868.813935 35.018206 
L 868.813935 33.887677 
L 870.144902 33.85101 
L 870.144902 32.719346 
L 870.810385 32.719346 
L 870.810385 31.051991 
L 871.475868 31.051991 
L 871.475868 32.070145 
L 872.141352 32.070145 
L 872.141352 31.720432 
L 872.806835 31.720432 
L 872.806835 31.557771 
L 873.472318 31.557771 
L 873.472318 30.839116 
L 874.137802 30.839116 
L 874.137802 30.969171 
L 874.803285 30.969171 
L 874.803285 31.564161 
L 875.468768 31.564161 
L 875.468768 30.626432 
L 876.134251 30.626432 
L 876.134251 29.351315 
L 876.799735 29.351315 
L 876.799735 31.272464 
L 877.465218 31.272464 
L 877.465218 31.132353 
L 878.130701 31.132353 
L 878.130701 31.857986 
L 878.796185 31.857986 
L 878.796185 32.671106 
L 879.461668 32.671106 
L 879.461668 31.67263 
L 880.127151 31.67263 
L 880.127151 31.166873 
L 880.792635 31.166873 
L 880.792635 31.365618 
L 881.458118 31.365618 
L 881.458118 29.279363 
L 882.123601 29.279363 
L 882.123601 28.156102 
L 882.789085 28.156102 
L 882.789085 27.354605 
L 884.785535 27.337476 
L 884.785535 23.83532 
L 885.451018 23.83532 
L 885.451018 21.510015 
L 886.781985 21.53164 
L 886.781985 20.552727 
L 887.194182 20.552727 
L 887.194182 20.552727 
" clip-path="url(#p2dbcea1198)" style="fill: none; stroke: #3572c6; stroke-width: 1.2; stroke-linecap: square"/>
   </g>
   <g id="line2d_76">
    <path d="M 75.557818 20.552727 
L 887.194182 20.552727 
L 887.194182 20.552727 
" clip-path="url(#p2dbcea1198)" style="fill: none; stroke: #83a83b; stroke-width: 1.2; stroke-linecap: square"/>
   </g>
   <g id="line2d_77">
    <path d="M 75.557818 20.552727 
L 887.194182 20.552727 
L 887.194182 20.552727 
" clip-path="url(#p2dbcea1198)" style="fill: none; stroke: #c44e52; stroke-width: 1.2; stroke-linecap: square"/>
   </g>
   <g id="line2d_78">
    <path d="M 887.194182 300.96 
L 887.194182 7.2 
" clip-path="url(#p2dbcea1198)" style="fill: none; stroke: #83a83b; stroke-width: 1.2; stroke-linecap: square"/>
   </g>
   <g id="line2d_79">
    <path d="M 887.194182 300.96 
L 887.194182 7.2 
" clip-path="url(#p2dbcea1198)" style="fill: none; stroke: #c44e52; stroke-width: 1.2; stroke-linecap: square"/>
   </g>
   <g id="patch_3">
    <path d="M 34.976 300.96 
L 34.976 7.2 
" style="fill: none; stroke: #899ab8; stroke-width: 1.12; stroke-linejoin: miter; stroke-linecap: square"/>
   </g>
   <g id="patch_4">
    <path d="M 927.776 300.96 
L 927.776 7.2 
" style="fill: none; stroke: #899ab8; stroke-width: 1.12; stroke-linejoin: miter; stroke-linecap: square"/>
   </g>
   <g id="patch_5">
    <path d="M 34.976 300.96 
L 927.776 300.96 
" style="fill: none; stroke: #899ab8; stroke-width: 1.12; stroke-linejoin: miter; stroke-linecap: square"/>
   </g>
   <g id="patch_6">
    <path d="M 34.976 7.2 
L 927.776 7.2 
" style="fill: none; stroke: #899ab8; stroke-width: 1.12; stroke-linejoin: miter; stroke-linecap: square"/>
   </g>
   <g id="text_15">
    <!-- 71585.08 -->
    <g style="fill: #83a83b" transform="translate(197.008524 20.552727) scale(0.132 -0.132)">
     <defs>
      <path id="DejaVuSans-37" d="M 525 4666 
L 3525 4666 
L 3525 4397 
L 1831 0 
L 1172 0 
L 2766 4134 
L 525 4134 
L 525 4666 
z
" transform="scale(0.015625)"/>
      <path id="DejaVuSans-2e" d="M 684 794 
L 1344 794 
L 1344 0 
L 684 0 
L 684 794 
z
" transform="scale(0.015625)"/>
     </defs>
     <use xlink:href="#DejaVuSans-37"/>
     <use xlink:href="#DejaVuSans-31" x="63.623047"/>
     <use xlink:href="#DejaVuSans-35" x="127.246094"/>
     <use xlink:href="#DejaVuSans-38" x="190.869141"/>
     <use xlink:href="#DejaVuSans-35" x="254.492188"/>
     <use xlink:href="#DejaVuSans-2e" x="318.115234"/>
     <use xlink:href="#DejaVuSans-30" x="349.902344"/>
     <use xlink:href="#DejaVuSans-38" x="413.525391"/>
    </g>
   </g>
   <g id="text_16">
    <!-- 71585.08 -->
    <g style="fill: #c44e52" transform="translate(197.008524 20.552727) scale(0.132 -0.132)">
     <use xlink:href="#DejaVuSans-37"/>
     <use xlink:href="#DejaVuSans-31" x="63.623047"/>
     <use xlink:href="#DejaVuSans-35" x="127.246094"/>
     <use xlink:href="#DejaVuSans-38" x="190.869141"/>
     <use xlink:href="#DejaVuSans-35" x="254.492188"/>
     <use xlink:href="#DejaVuSans-2e" x="318.115234"/>
     <use xlink:href="#DejaVuSans-30" x="349.902344"/>
     <use xlink:href="#DejaVuSans-38" x="413.525391"/>
    </g>
   </g>
   <g id="legend_1">
    <g id="patch_7">
     <path d="M 432.207453 294.66 
L 530.544547 294.66 
Q 533.064547 294.66 533.064547 292.14 
L 533.064547 237.56625 
Q 533.064547 235.04625 530.544547 235.04625 
L 432.207453 235.04625 
Q 429.687453 235.04625 429.687453 237.56625 
L 429.687453 292.14 
Q 429.687453 294.66 432.207453 294.66 
z
" style="fill: #373e4b; opacity: 0.8; stroke: #cccccc; stroke-width: 0.16; stroke-linejoin: miter"/>
    </g>
    <g id="line2d_80">
     <path d="M 434.727453 245.250281 
L 434.727453 245.250281 
L 447.327453 245.250281 
L 447.327453 245.250281 
L 459.927453 245.250281 
" style="fill: none; stroke: #3572c6; stroke-width: 1.2; stroke-linecap: square"/>
    </g>
    <g id="text_17">
     <!-- USD/BTC -->
     <g style="fill: #b1bed6" transform="translate(470.007453 249.660281) scale(0.126 -0.126)">
      <defs>
       <path id="DejaVuSans-55" d="M 556 4666 
L 1191 4666 
L 1191 1831 
Q 1191 1081 1462 751 
Q 1734 422 2344 422 
Q 2950 422 3222 751 
Q 3494 1081 3494 1831 
L 3494 4666 
L 4128 4666 
L 4128 1753 
Q 4128 841 3676 375 
Q 3225 -91 2344 -91 
Q 1459 -91 1007 375 
Q 556 841 556 1753 
L 556 4666 
z
" transform="scale(0.015625)"/>
       <path id="DejaVuSans-53" d="M 3425 4513 
L 3425 3897 
Q 3066 4069 2747 4153 
Q 2428 4238 2131 4238 
Q 1616 4238 1336 4038 
Q 1056 3838 1056 3469 
Q 1056 3159 1242 3001 
Q 1428 2844 1947 2747 
L 2328 2669 
Q 3034 2534 3370 2195 
Q 3706 1856 3706 1288 
Q 3706 609 3251 259 
Q 2797 -91 1919 -91 
Q 1588 -91 1214 -16 
Q 841 59 441 206 
L 441 856 
Q 825 641 1194 531 
Q 1563 422 1919 422 
Q 2459 422 2753 634 
Q 3047 847 3047 1241 
Q 3047 1584 2836 1778 
Q 2625 1972 2144 2069 
L 1759 2144 
Q 1053 2284 737 2584 
Q 422 2884 422 3419 
Q 422 4038 858 4394 
Q 1294 4750 2059 4750 
Q 2388 4750 2728 4690 
Q 3069 4631 3425 4513 
z
" transform="scale(0.015625)"/>
       <path id="DejaVuSans-2f" d="M 1625 4666 
L 2156 4666 
L 531 -594 
L 0 -594 
L 1625 4666 
z
" transform="scale(0.015625)"/>
       <path id="DejaVuSans-42" d="M 1259 2228 
L 1259 519 
L 2272 519 
Q 2781 519 3026 730 
Q 3272 941 3272 1375 
Q 3272 1813 3026 2020 
Q 2781 2228 2272 2228 
L 1259 2228 
z
M 1259 4147 
L 1259 2741 
L 2194 2741 
Q 2656 2741 2882 2914 
Q 3109 3088 3109 3444 
Q 3109 3797 2882 3972 
Q 2656 4147 2194 4147 
L 1259 4147 
z
M 628 4666 
L 2241 4666 
Q 2963 4666 3353 4366 
Q 3744 4066 3744 3513 
Q 3744 3084 3544 2831 
Q 3344 2578 2956 2516 
Q 3422 2416 3680 2098 
Q 3938 1781 3938 1306 
Q 3938 681 3513 340 
Q 3088 0 2303 0 
L 628 0 
L 628 4666 
z
" transform="scale(0.015625)"/>
       <path id="DejaVuSans-54" d="M -19 4666 
L 3928 4666 
L 3928 4134 
L 2272 4134 
L 2272 0 
L 1638 0 
L 1638 4134 
L -19 4134 
L -19 4666 
z
" transform="scale(0.015625)"/>
       <path id="DejaVuSans-43" d="M 4122 4306 
L 4122 3641 
Q 3803 3938 3442 4084 
Q 3081 4231 2675 4231 
Q 1875 4231 1450 3742 
Q 1025 3253 1025 2328 
Q 1025 1406 1450 917 
Q 1875 428 2675 428 
Q 3081 428 3442 575 
Q 3803 722 4122 1019 
L 4122 359 
Q 3791 134 3420 21 
Q 3050 -91 2638 -91 
Q 1578 -91 968 557 
Q 359 1206 359 2328 
Q 359 3453 968 4101 
Q 1578 4750 2638 4750 
Q 3056 4750 3426 4639 
Q 3797 4528 4122 4306 
z
" transform="scale(0.015625)"/>
      </defs>
      <use xlink:href="#DejaVuSans-55"/>
      <use xlink:href="#DejaVuSans-53" x="73.193359"/>
      <use xlink:href="#DejaVuSans-44" x="136.669922"/>
      <use xlink:href="#DejaVuSans-2f" x="213.671875"/>
      <use xlink:href="#DejaVuSans-42" x="247.363281"/>
      <use xlink:href="#DejaVuSans-54" x="315.966797"/>
      <use xlink:href="#DejaVuSans-43" x="371.175781"/>
     </g>
    </g>
    <g id="line2d_81">
     <path d="M 434.727453 263.744719 
L 434.727453 263.744719 
L 447.327453 263.744719 
L 447.327453 263.744719 
L 459.927453 263.744719 
" style="fill: none; stroke: #83a83b; stroke-width: 1.2; stroke-linecap: square"/>
    </g>
    <g id="text_18">
     <!-- Max -->
     <g style="fill: #b1bed6" transform="translate(470.007453 268.154719) scale(0.126 -0.126)">
      <defs>
       <path id="DejaVuSans-4d" d="M 628 4666 
L 1569 4666 
L 2759 1491 
L 3956 4666 
L 4897 4666 
L 4897 0 
L 4281 0 
L 4281 4097 
L 3078 897 
L 2444 897 
L 1241 4097 
L 1241 0 
L 628 0 
L 628 4666 
z
" transform="scale(0.015625)"/>
       <path id="DejaVuSans-78" d="M 3513 3500 
L 2247 1797 
L 3578 0 
L 2900 0 
L 1881 1375 
L 863 0 
L 184 0 
L 1544 1831 
L 300 3500 
L 978 3500 
L 1906 2253 
L 2834 3500 
L 3513 3500 
z
" transform="scale(0.015625)"/>
      </defs>
      <use xlink:href="#DejaVuSans-4d"/>
      <use xlink:href="#DejaVuSans-61" x="86.279297"/>
      <use xlink:href="#DejaVuSans-78" x="147.558594"/>
     </g>
    </g>
    <g id="line2d_82">
     <path d="M 434.727453 282.239156 
L 434.727453 282.239156 
L 447.327453 282.239156 
L 447.327453 282.239156 
L 459.927453 282.239156 
" style="fill: none; stroke: #c44e52; stroke-width: 1.2; stroke-linecap: square"/>
    </g>
    <g id="text_19">
     <!-- local_Min -->
     <g style="fill: #b1bed6" transform="translate(470.007453 286.649156) scale(0.126 -0.126)">
      <defs>
       <path id="DejaVuSans-6c" d="M 603 4863 
L 1178 4863 
L 1178 0 
L 603 0 
L 603 4863 
z
" transform="scale(0.015625)"/>
       <path id="DejaVuSans-6f" d="M 1959 3097 
Q 1497 3097 1228 2736 
Q 959 2375 959 1747 
Q 959 1119 1226 758 
Q 1494 397 1959 397 
Q 2419 397 2687 759 
Q 2956 1122 2956 1747 
Q 2956 2369 2687 2733 
Q 2419 3097 1959 3097 
z
M 1959 3584 
Q 2709 3584 3137 3096 
Q 3566 2609 3566 1747 
Q 3566 888 3137 398 
Q 2709 -91 1959 -91 
Q 1206 -91 779 398 
Q 353 888 353 1747 
Q 353 2609 779 3096 
Q 1206 3584 1959 3584 
z
" transform="scale(0.015625)"/>
       <path id="DejaVuSans-63" d="M 3122 3366 
L 3122 2828 
Q 2878 2963 2633 3030 
Q 2388 3097 2138 3097 
Q 1578 3097 1268 2742 
Q 959 2388 959 1747 
Q 959 1106 1268 751 
Q 1578 397 2138 397 
Q 2388 397 2633 464 
Q 2878 531 3122 666 
L 3122 134 
Q 2881 22 2623 -34 
Q 2366 -91 2075 -91 
Q 1284 -91 818 406 
Q 353 903 353 1747 
Q 353 2603 823 3093 
Q 1294 3584 2113 3584 
Q 2378 3584 2631 3529 
Q 2884 3475 3122 3366 
z
" transform="scale(0.015625)"/>
       <path id="DejaVuSans-5f" d="M 3263 -1063 
L 3263 -1509 
L -63 -1509 
L -63 -1063 
L 3263 -1063 
z
" transform="scale(0.015625)"/>
       <path id="DejaVuSans-69" d="M 603 3500 
L 1178 3500 
L 1178 0 
L 603 0 
L 603 3500 
z
M 603 4863 
L 1178 4863 
L 1178 4134 
L 603 4134 
L 603 4863 
z
" transform="scale(0.015625)"/>
       <path id="DejaVuSans-6e" d="M 3513 2113 
L 3513 0 
L 2938 0 
L 2938 2094 
Q 2938 2591 2744 2837 
Q 2550 3084 2163 3084 
Q 1697 3084 1428 2787 
Q 1159 2491 1159 1978 
L 1159 0 
L 581 0 
L 581 3500 
L 1159 3500 
L 1159 2956 
Q 1366 3272 1645 3428 
Q 1925 3584 2291 3584 
Q 2894 3584 3203 3211 
Q 3513 2838 3513 2113 
z
" transform="scale(0.015625)"/>
      </defs>
      <use xlink:href="#DejaVuSans-6c"/>
      <use xlink:href="#DejaVuSans-6f" x="27.783203"/>
      <use xlink:href="#DejaVuSans-63" x="88.964844"/>
      <use xlink:href="#DejaVuSans-61" x="143.945312"/>
      <use xlink:href="#DejaVuSans-6c" x="205.224609"/>
      <use xlink:href="#DejaVuSans-5f" x="233.007812"/>
      <use xlink:href="#DejaVuSans-4d" x="283.007812"/>
      <use xlink:href="#DejaVuSans-69" x="369.287109"/>
      <use xlink:href="#DejaVuSans-6e" x="397.070312"/>
     </g>
    </g>
   </g>
  </g>
 </g>
 <defs>
  <clipPath id="p2dbcea1198">
   <rect x="34.976" y="7.2" width="892.8" height="293.76"/>
  </clipPath>
 </defs>
</svg>
