<?xml version="1.0" encoding="utf-8" standalone="no"?>
<!DOCTYPE svg PUBLIC "-//W3C//DTD SVG 1.1//EN"
  "http://www.w3.org/Graphics/SVG/1.1/DTD/svg11.dtd">
<svg height="359.519536pt" version="1.1" viewBox="0 0 934.976 359.519536" width="934.976pt" xmlns="http://www.w3.org/2000/svg" xmlns:xlink="http://www.w3.org/1999/xlink">
 <metadata>
  <rdf:RDF xmlns:cc="http://creativecommons.org/ns#" xmlns:dc="http://purl.org/dc/elements/1.1/" xmlns:rdf="http://www.w3.org/1999/02/22-rdf-syntax-ns#">
   <cc:Work>
    <dc:type rdf:resource="http://purl.org/dc/dcmitype/StillImage"/>
    <dc:date>2021-09-25T04:13:40.690626</dc:date>
    <dc:format>image/svg+xml</dc:format>
    <dc:creator>
     <cc:Agent>
      <dc:title>Matplotlib v3.4.3, https://matplotlib.org/</dc:title>
     </cc:Agent>
    </dc:creator>
   </cc:Work>
  </rdf:RDF>
 </metadata>
 <defs>
  <style type="text/css">*{stroke-linecap:butt;stroke-linejoin:round;}</style>
 </defs>
 <g id="figure_1">
  <g id="patch_1">
   <path d="M 0 359.519536 
L 934.976 359.519536 
L 934.976 0 
L 0 0 
z
" style="fill:#373e4b;"/>
  </g>
  <g id="axes_1">
   <g id="patch_2">
    <path d="M 34.976 302.188844 
L 927.776 302.188844 
L 927.776 8.428844 
L 34.976 8.428844 
z
" style="fill:#373e4b;"/>
   </g>
   <g id="matplotlib.axis_1">
    <g id="xtick_1">
     <g id="line2d_1">
      <path clip-path="url(#pece6e4201b)" d="M 162.041513 302.188844 
L 162.041513 8.428844 
" style="fill:none;stroke:#546379;stroke-linecap:square;stroke-width:1.12;"/>
     </g>
     <g id="line2d_2"/>
     <g id="text_1">
      <!-- 2012 -->
      <g style="fill:#b1bed6;" transform="translate(132.960474 332.113698)rotate(-30)scale(0.126 -0.126)">
       <defs>
        <path d="M 1228 531 
L 3431 531 
L 3431 0 
L 469 0 
L 469 531 
Q 828 903 1448 1529 
Q 2069 2156 2228 2338 
Q 2531 2678 2651 2914 
Q 2772 3150 2772 3378 
Q 2772 3750 2511 3984 
Q 2250 4219 1831 4219 
Q 1534 4219 1204 4116 
Q 875 4013 500 3803 
L 500 4441 
Q 881 4594 1212 4672 
Q 1544 4750 1819 4750 
Q 2544 4750 2975 4387 
Q 3406 4025 3406 3419 
Q 3406 3131 3298 2873 
Q 3191 2616 2906 2266 
Q 2828 2175 2409 1742 
Q 1991 1309 1228 531 
z
" id="DejaVuSans-32" transform="scale(0.015625)"/>
        <path d="M 2034 4250 
Q 1547 4250 1301 3770 
Q 1056 3291 1056 2328 
Q 1056 1369 1301 889 
Q 1547 409 2034 409 
Q 2525 409 2770 889 
Q 3016 1369 3016 2328 
Q 3016 3291 2770 3770 
Q 2525 4250 2034 4250 
z
M 2034 4750 
Q 2819 4750 3233 4129 
Q 3647 3509 3647 2328 
Q 3647 1150 3233 529 
Q 2819 -91 2034 -91 
Q 1250 -91 836 529 
Q 422 1150 422 2328 
Q 422 3509 836 4129 
Q 1250 4750 2034 4750 
z
" id="DejaVuSans-30" transform="scale(0.015625)"/>
        <path d="M 794 531 
L 1825 531 
L 1825 4091 
L 703 3866 
L 703 4441 
L 1819 4666 
L 2450 4666 
L 2450 531 
L 3481 531 
L 3481 0 
L 794 0 
L 794 531 
z
" id="DejaVuSans-31" transform="scale(0.015625)"/>
       </defs>
       <use xlink:href="#DejaVuSans-32"/>
       <use x="63.623047" xlink:href="#DejaVuSans-30"/>
       <use x="127.246094" xlink:href="#DejaVuSans-31"/>
       <use x="190.869141" xlink:href="#DejaVuSans-32"/>
      </g>
     </g>
    </g>
    <g id="xtick_2">
     <g id="line2d_3">
      <path clip-path="url(#pece6e4201b)" d="M 311.144299 302.188844 
L 311.144299 8.428844 
" style="fill:none;stroke:#546379;stroke-linecap:square;stroke-width:1.12;"/>
     </g>
     <g id="line2d_4"/>
     <g id="text_2">
      <!-- 2014 -->
      <g style="fill:#b1bed6;" transform="translate(282.06326 332.113698)rotate(-30)scale(0.126 -0.126)">
       <defs>
        <path d="M 2419 4116 
L 825 1625 
L 2419 1625 
L 2419 4116 
z
M 2253 4666 
L 3047 4666 
L 3047 1625 
L 3713 1625 
L 3713 1100 
L 3047 1100 
L 3047 0 
L 2419 0 
L 2419 1100 
L 313 1100 
L 313 1709 
L 2253 4666 
z
" id="DejaVuSans-34" transform="scale(0.015625)"/>
       </defs>
       <use xlink:href="#DejaVuSans-32"/>
       <use x="63.623047" xlink:href="#DejaVuSans-30"/>
       <use x="127.246094" xlink:href="#DejaVuSans-31"/>
       <use x="190.869141" xlink:href="#DejaVuSans-34"/>
      </g>
     </g>
    </g>
    <g id="xtick_3">
     <g id="line2d_5">
      <path clip-path="url(#pece6e4201b)" d="M 460.043114 302.188844 
L 460.043114 8.428844 
" style="fill:none;stroke:#546379;stroke-linecap:square;stroke-width:1.12;"/>
     </g>
     <g id="line2d_6"/>
     <g id="text_3">
      <!-- 2016 -->
      <g style="fill:#b1bed6;" transform="translate(430.962075 332.113698)rotate(-30)scale(0.126 -0.126)">
       <defs>
        <path d="M 2113 2584 
Q 1688 2584 1439 2293 
Q 1191 2003 1191 1497 
Q 1191 994 1439 701 
Q 1688 409 2113 409 
Q 2538 409 2786 701 
Q 3034 994 3034 1497 
Q 3034 2003 2786 2293 
Q 2538 2584 2113 2584 
z
M 3366 4563 
L 3366 3988 
Q 3128 4100 2886 4159 
Q 2644 4219 2406 4219 
Q 1781 4219 1451 3797 
Q 1122 3375 1075 2522 
Q 1259 2794 1537 2939 
Q 1816 3084 2150 3084 
Q 2853 3084 3261 2657 
Q 3669 2231 3669 1497 
Q 3669 778 3244 343 
Q 2819 -91 2113 -91 
Q 1303 -91 875 529 
Q 447 1150 447 2328 
Q 447 3434 972 4092 
Q 1497 4750 2381 4750 
Q 2619 4750 2861 4703 
Q 3103 4656 3366 4563 
z
" id="DejaVuSans-36" transform="scale(0.015625)"/>
       </defs>
       <use xlink:href="#DejaVuSans-32"/>
       <use x="63.623047" xlink:href="#DejaVuSans-30"/>
       <use x="127.246094" xlink:href="#DejaVuSans-31"/>
       <use x="190.869141" xlink:href="#DejaVuSans-36"/>
      </g>
     </g>
    </g>
    <g id="xtick_4">
     <g id="line2d_7">
      <path clip-path="url(#pece6e4201b)" d="M 609.1459 302.188844 
L 609.1459 8.428844 
" style="fill:none;stroke:#546379;stroke-linecap:square;stroke-width:1.12;"/>
     </g>
     <g id="line2d_8"/>
     <g id="text_4">
      <!-- 2018 -->
      <g style="fill:#b1bed6;" transform="translate(580.064861 332.113698)rotate(-30)scale(0.126 -0.126)">
       <defs>
        <path d="M 2034 2216 
Q 1584 2216 1326 1975 
Q 1069 1734 1069 1313 
Q 1069 891 1326 650 
Q 1584 409 2034 409 
Q 2484 409 2743 651 
Q 3003 894 3003 1313 
Q 3003 1734 2745 1975 
Q 2488 2216 2034 2216 
z
M 1403 2484 
Q 997 2584 770 2862 
Q 544 3141 544 3541 
Q 544 4100 942 4425 
Q 1341 4750 2034 4750 
Q 2731 4750 3128 4425 
Q 3525 4100 3525 3541 
Q 3525 3141 3298 2862 
Q 3072 2584 2669 2484 
Q 3125 2378 3379 2068 
Q 3634 1759 3634 1313 
Q 3634 634 3220 271 
Q 2806 -91 2034 -91 
Q 1263 -91 848 271 
Q 434 634 434 1313 
Q 434 1759 690 2068 
Q 947 2378 1403 2484 
z
M 1172 3481 
Q 1172 3119 1398 2916 
Q 1625 2713 2034 2713 
Q 2441 2713 2670 2916 
Q 2900 3119 2900 3481 
Q 2900 3844 2670 4047 
Q 2441 4250 2034 4250 
Q 1625 4250 1398 4047 
Q 1172 3844 1172 3481 
z
" id="DejaVuSans-38" transform="scale(0.015625)"/>
       </defs>
       <use xlink:href="#DejaVuSans-32"/>
       <use x="63.623047" xlink:href="#DejaVuSans-30"/>
       <use x="127.246094" xlink:href="#DejaVuSans-31"/>
       <use x="190.869141" xlink:href="#DejaVuSans-38"/>
      </g>
     </g>
    </g>
    <g id="xtick_5">
     <g id="line2d_9">
      <path clip-path="url(#pece6e4201b)" d="M 758.044715 302.188844 
L 758.044715 8.428844 
" style="fill:none;stroke:#546379;stroke-linecap:square;stroke-width:1.12;"/>
     </g>
     <g id="line2d_10"/>
     <g id="text_5">
      <!-- 2020 -->
      <g style="fill:#b1bed6;" transform="translate(728.963676 332.113698)rotate(-30)scale(0.126 -0.126)">
       <use xlink:href="#DejaVuSans-32"/>
       <use x="63.623047" xlink:href="#DejaVuSans-30"/>
       <use x="127.246094" xlink:href="#DejaVuSans-32"/>
       <use x="190.869141" xlink:href="#DejaVuSans-30"/>
      </g>
     </g>
    </g>
    <g id="xtick_6">
     <g id="line2d_11">
      <path clip-path="url(#pece6e4201b)" d="M 907.147501 302.188844 
L 907.147501 8.428844 
" style="fill:none;stroke:#546379;stroke-linecap:square;stroke-width:1.12;"/>
     </g>
     <g id="line2d_12"/>
     <g id="text_6">
      <!-- 2022 -->
      <g style="fill:#b1bed6;" transform="translate(878.066461 332.113698)rotate(-30)scale(0.126 -0.126)">
       <use xlink:href="#DejaVuSans-32"/>
       <use x="63.623047" xlink:href="#DejaVuSans-30"/>
       <use x="127.246094" xlink:href="#DejaVuSans-32"/>
       <use x="190.869141" xlink:href="#DejaVuSans-32"/>
      </g>
     </g>
    </g>
    <g id="text_7">
     <!-- Date -->
     <g style="fill:#b1bed6;" transform="translate(464.166875 349.324786)scale(0.144 -0.144)">
      <defs>
       <path d="M 1259 4147 
L 1259 519 
L 2022 519 
Q 2988 519 3436 956 
Q 3884 1394 3884 2338 
Q 3884 3275 3436 3711 
Q 2988 4147 2022 4147 
L 1259 4147 
z
M 628 4666 
L 1925 4666 
Q 3281 4666 3915 4102 
Q 4550 3538 4550 2338 
Q 4550 1131 3912 565 
Q 3275 0 1925 0 
L 628 0 
L 628 4666 
z
" id="DejaVuSans-44" transform="scale(0.015625)"/>
       <path d="M 2194 1759 
Q 1497 1759 1228 1600 
Q 959 1441 959 1056 
Q 959 750 1161 570 
Q 1363 391 1709 391 
Q 2188 391 2477 730 
Q 2766 1069 2766 1631 
L 2766 1759 
L 2194 1759 
z
M 3341 1997 
L 3341 0 
L 2766 0 
L 2766 531 
Q 2569 213 2275 61 
Q 1981 -91 1556 -91 
Q 1019 -91 701 211 
Q 384 513 384 1019 
Q 384 1609 779 1909 
Q 1175 2209 1959 2209 
L 2766 2209 
L 2766 2266 
Q 2766 2663 2505 2880 
Q 2244 3097 1772 3097 
Q 1472 3097 1187 3025 
Q 903 2953 641 2809 
L 641 3341 
Q 956 3463 1253 3523 
Q 1550 3584 1831 3584 
Q 2591 3584 2966 3190 
Q 3341 2797 3341 1997 
z
" id="DejaVuSans-61" transform="scale(0.015625)"/>
       <path d="M 1172 4494 
L 1172 3500 
L 2356 3500 
L 2356 3053 
L 1172 3053 
L 1172 1153 
Q 1172 725 1289 603 
Q 1406 481 1766 481 
L 2356 481 
L 2356 0 
L 1766 0 
Q 1100 0 847 248 
Q 594 497 594 1153 
L 594 3053 
L 172 3053 
L 172 3500 
L 594 3500 
L 594 4494 
L 1172 4494 
z
" id="DejaVuSans-74" transform="scale(0.015625)"/>
       <path d="M 3597 1894 
L 3597 1613 
L 953 1613 
Q 991 1019 1311 708 
Q 1631 397 2203 397 
Q 2534 397 2845 478 
Q 3156 559 3463 722 
L 3463 178 
Q 3153 47 2828 -22 
Q 2503 -91 2169 -91 
Q 1331 -91 842 396 
Q 353 884 353 1716 
Q 353 2575 817 3079 
Q 1281 3584 2069 3584 
Q 2775 3584 3186 3129 
Q 3597 2675 3597 1894 
z
M 3022 2063 
Q 3016 2534 2758 2815 
Q 2500 3097 2075 3097 
Q 1594 3097 1305 2825 
Q 1016 2553 972 2059 
L 3022 2063 
z
" id="DejaVuSans-65" transform="scale(0.015625)"/>
      </defs>
      <use xlink:href="#DejaVuSans-44"/>
      <use x="77.001953" xlink:href="#DejaVuSans-61"/>
      <use x="138.28125" xlink:href="#DejaVuSans-74"/>
      <use x="177.490234" xlink:href="#DejaVuSans-65"/>
     </g>
    </g>
   </g>
   <g id="matplotlib.axis_2">
    <g id="ytick_1">
     <g id="line2d_13">
      <path clip-path="url(#pece6e4201b)" d="M 34.976 255.787468 
L 927.776 255.787468 
" style="fill:none;stroke:#546379;stroke-linecap:square;stroke-width:1.12;"/>
     </g>
     <g id="line2d_14"/>
     <g id="text_8">
      <!-- $\mathdefault{10^{0}}$ -->
      <g style="fill:#b1bed6;" transform="translate(7.2 260.574483)scale(0.126 -0.126)">
       <use transform="translate(0 0.765625)" xlink:href="#DejaVuSans-31"/>
       <use transform="translate(63.623047 0.765625)" xlink:href="#DejaVuSans-30"/>
       <use transform="translate(128.203125 39.046875)scale(0.7)" xlink:href="#DejaVuSans-30"/>
      </g>
     </g>
    </g>
    <g id="ytick_2">
     <g id="line2d_15">
      <path clip-path="url(#pece6e4201b)" d="M 34.976 207.027377 
L 927.776 207.027377 
" style="fill:none;stroke:#546379;stroke-linecap:square;stroke-width:1.12;"/>
     </g>
     <g id="line2d_16"/>
     <g id="text_9">
      <!-- $\mathdefault{10^{1}}$ -->
      <g style="fill:#b1bed6;" transform="translate(7.2 211.814393)scale(0.126 -0.126)">
       <use transform="translate(0 0.684375)" xlink:href="#DejaVuSans-31"/>
       <use transform="translate(63.623047 0.684375)" xlink:href="#DejaVuSans-30"/>
       <use transform="translate(128.203125 38.965625)scale(0.7)" xlink:href="#DejaVuSans-31"/>
      </g>
     </g>
    </g>
    <g id="ytick_3">
     <g id="line2d_17">
      <path clip-path="url(#pece6e4201b)" d="M 34.976 158.267287 
L 927.776 158.267287 
" style="fill:none;stroke:#546379;stroke-linecap:square;stroke-width:1.12;"/>
     </g>
     <g id="line2d_18"/>
     <g id="text_10">
      <!-- $\mathdefault{10^{2}}$ -->
      <g style="fill:#b1bed6;" transform="translate(7.2 163.054303)scale(0.126 -0.126)">
       <use transform="translate(0 0.765625)" xlink:href="#DejaVuSans-31"/>
       <use transform="translate(63.623047 0.765625)" xlink:href="#DejaVuSans-30"/>
       <use transform="translate(128.203125 39.046875)scale(0.7)" xlink:href="#DejaVuSans-32"/>
      </g>
     </g>
    </g>
    <g id="ytick_4">
     <g id="line2d_19">
      <path clip-path="url(#pece6e4201b)" d="M 34.976 109.507196 
L 927.776 109.507196 
" style="fill:none;stroke:#546379;stroke-linecap:square;stroke-width:1.12;"/>
     </g>
     <g id="line2d_20"/>
     <g id="text_11">
      <!-- $\mathdefault{10^{3}}$ -->
      <g style="fill:#b1bed6;" transform="translate(7.2 114.294212)scale(0.126 -0.126)">
       <defs>
        <path d="M 2597 2516 
Q 3050 2419 3304 2112 
Q 3559 1806 3559 1356 
Q 3559 666 3084 287 
Q 2609 -91 1734 -91 
Q 1441 -91 1130 -33 
Q 819 25 488 141 
L 488 750 
Q 750 597 1062 519 
Q 1375 441 1716 441 
Q 2309 441 2620 675 
Q 2931 909 2931 1356 
Q 2931 1769 2642 2001 
Q 2353 2234 1838 2234 
L 1294 2234 
L 1294 2753 
L 1863 2753 
Q 2328 2753 2575 2939 
Q 2822 3125 2822 3475 
Q 2822 3834 2567 4026 
Q 2313 4219 1838 4219 
Q 1578 4219 1281 4162 
Q 984 4106 628 3988 
L 628 4550 
Q 988 4650 1302 4700 
Q 1616 4750 1894 4750 
Q 2613 4750 3031 4423 
Q 3450 4097 3450 3541 
Q 3450 3153 3228 2886 
Q 3006 2619 2597 2516 
z
" id="DejaVuSans-33" transform="scale(0.015625)"/>
       </defs>
       <use transform="translate(0 0.765625)" xlink:href="#DejaVuSans-31"/>
       <use transform="translate(63.623047 0.765625)" xlink:href="#DejaVuSans-30"/>
       <use transform="translate(128.203125 39.046875)scale(0.7)" xlink:href="#DejaVuSans-33"/>
      </g>
     </g>
    </g>
    <g id="ytick_5">
     <g id="line2d_21">
      <path clip-path="url(#pece6e4201b)" d="M 34.976 60.747106 
L 927.776 60.747106 
" style="fill:none;stroke:#546379;stroke-linecap:square;stroke-width:1.12;"/>
     </g>
     <g id="line2d_22"/>
     <g id="text_12">
      <!-- $\mathdefault{10^{4}}$ -->
      <g style="fill:#b1bed6;" transform="translate(7.2 65.534122)scale(0.126 -0.126)">
       <use transform="translate(0 0.684375)" xlink:href="#DejaVuSans-31"/>
       <use transform="translate(63.623047 0.684375)" xlink:href="#DejaVuSans-30"/>
       <use transform="translate(128.203125 38.965625)scale(0.7)" xlink:href="#DejaVuSans-34"/>
      </g>
     </g>
    </g>
    <g id="ytick_6">
     <g id="line2d_23">
      <path clip-path="url(#pece6e4201b)" d="M 34.976 11.987016 
L 927.776 11.987016 
" style="fill:none;stroke:#546379;stroke-linecap:square;stroke-width:1.12;"/>
     </g>
     <g id="line2d_24"/>
     <g id="text_13">
      <!-- $\mathdefault{10^{5}}$ -->
      <g style="fill:#b1bed6;" transform="translate(7.2 16.774031)scale(0.126 -0.126)">
       <defs>
        <path d="M 691 4666 
L 3169 4666 
L 3169 4134 
L 1269 4134 
L 1269 2991 
Q 1406 3038 1543 3061 
Q 1681 3084 1819 3084 
Q 2600 3084 3056 2656 
Q 3513 2228 3513 1497 
Q 3513 744 3044 326 
Q 2575 -91 1722 -91 
Q 1428 -91 1123 -41 
Q 819 9 494 109 
L 494 744 
Q 775 591 1075 516 
Q 1375 441 1709 441 
Q 2250 441 2565 725 
Q 2881 1009 2881 1497 
Q 2881 1984 2565 2268 
Q 2250 2553 1709 2553 
Q 1456 2553 1204 2497 
Q 953 2441 691 2322 
L 691 4666 
z
" id="DejaVuSans-35" transform="scale(0.015625)"/>
       </defs>
       <use transform="translate(0 0.684375)" xlink:href="#DejaVuSans-31"/>
       <use transform="translate(63.623047 0.684375)" xlink:href="#DejaVuSans-30"/>
       <use transform="translate(128.203125 38.965625)scale(0.7)" xlink:href="#DejaVuSans-35"/>
      </g>
     </g>
    </g>
    <g id="ytick_7">
     <g id="line2d_25"/>
    </g>
    <g id="ytick_8">
     <g id="line2d_26"/>
    </g>
    <g id="ytick_9">
     <g id="line2d_27"/>
    </g>
    <g id="ytick_10">
     <g id="line2d_28"/>
    </g>
    <g id="ytick_11">
     <g id="line2d_29"/>
    </g>
    <g id="ytick_12">
     <g id="line2d_30"/>
    </g>
    <g id="ytick_13">
     <g id="line2d_31"/>
    </g>
    <g id="ytick_14">
     <g id="line2d_32"/>
    </g>
    <g id="ytick_15">
     <g id="line2d_33"/>
    </g>
    <g id="ytick_16">
     <g id="line2d_34"/>
    </g>
    <g id="ytick_17">
     <g id="line2d_35"/>
    </g>
    <g id="ytick_18">
     <g id="line2d_36"/>
    </g>
    <g id="ytick_19">
     <g id="line2d_37"/>
    </g>
    <g id="ytick_20">
     <g id="line2d_38"/>
    </g>
    <g id="ytick_21">
     <g id="line2d_39"/>
    </g>
    <g id="ytick_22">
     <g id="line2d_40"/>
    </g>
    <g id="ytick_23">
     <g id="line2d_41"/>
    </g>
    <g id="ytick_24">
     <g id="line2d_42"/>
    </g>
    <g id="ytick_25">
     <g id="line2d_43"/>
    </g>
    <g id="ytick_26">
     <g id="line2d_44"/>
    </g>
    <g id="ytick_27">
     <g id="line2d_45"/>
    </g>
    <g id="ytick_28">
     <g id="line2d_46"/>
    </g>
    <g id="ytick_29">
     <g id="line2d_47"/>
    </g>
    <g id="ytick_30">
     <g id="line2d_48"/>
    </g>
    <g id="ytick_31">
     <g id="line2d_49"/>
    </g>
    <g id="ytick_32">
     <g id="line2d_50"/>
    </g>
    <g id="ytick_33">
     <g id="line2d_51"/>
    </g>
    <g id="ytick_34">
     <g id="line2d_52"/>
    </g>
    <g id="ytick_35">
     <g id="line2d_53"/>
    </g>
    <g id="ytick_36">
     <g id="line2d_54"/>
    </g>
    <g id="ytick_37">
     <g id="line2d_55"/>
    </g>
    <g id="ytick_38">
     <g id="line2d_56"/>
    </g>
    <g id="ytick_39">
     <g id="line2d_57"/>
    </g>
    <g id="ytick_40">
     <g id="line2d_58"/>
    </g>
    <g id="ytick_41">
     <g id="line2d_59"/>
    </g>
    <g id="ytick_42">
     <g id="line2d_60"/>
    </g>
    <g id="ytick_43">
     <g id="line2d_61"/>
    </g>
    <g id="ytick_44">
     <g id="line2d_62"/>
    </g>
    <g id="ytick_45">
     <g id="line2d_63"/>
    </g>
    <g id="ytick_46">
     <g id="line2d_64"/>
    </g>
    <g id="ytick_47">
     <g id="line2d_65"/>
    </g>
    <g id="ytick_48">
     <g id="line2d_66"/>
    </g>
    <g id="ytick_49">
     <g id="line2d_67"/>
    </g>
    <g id="ytick_50">
     <g id="line2d_68"/>
    </g>
    <g id="ytick_51">
     <g id="line2d_69"/>
    </g>
    <g id="ytick_52">
     <g id="line2d_70"/>
    </g>
    <g id="ytick_53">
     <g id="line2d_71"/>
    </g>
    <g id="ytick_54">
     <g id="line2d_72"/>
    </g>
   </g>
   <g id="line2d_73">
    <path clip-path="url(#pece6e4201b)" d="M 75.557818 288.836116 
L 75.557818 285.143967 
L 76.169731 285.143967 
L 76.169731 277.422198 
L 76.781644 277.422198 
L 76.781644 286.008424 
L 77.393557 286.008424 
L 77.393557 281.283083 
L 78.00547 281.283083 
L 78.00547 282.744092 
L 78.617383 282.744092 
L 78.617383 282.00099 
L 80.453122 282.00099 
L 80.453122 282.744092 
L 81.065035 282.744092 
L 81.065035 285.143967 
L 81.676948 285.143967 
L 81.676948 286.909676 
L 82.288861 286.909676 
L 82.288861 285.143967 
L 82.900773 285.143967 
L 82.900773 286.909676 
L 84.124599 286.909676 
L 84.124599 285.143967 
L 84.736512 285.143967 
L 84.736512 283.514222 
L 85.348425 283.514222 
L 85.348425 285.143967 
L 85.960338 285.143967 
L 85.960338 283.514222 
L 86.572251 283.514222 
L 86.572251 281.283083 
L 88.40799 281.283083 
L 88.40799 279.9164 
L 89.019903 279.9164 
L 89.019903 279.264772 
L 89.631816 279.264772 
L 89.631816 274.157866 
L 90.243729 274.157866 
L 90.243729 275.191059 
L 90.855642 275.191059 
L 90.855642 278.018751 
L 91.467555 278.018751 
L 91.467555 273.659579 
L 92.69138 273.659579 
L 92.69138 272.696857 
L 93.303293 272.696857 
L 93.303293 266.254804 
L 93.915206 266.254804 
L 93.915206 261.048945 
L 94.527119 261.048945 
L 94.527119 257.553177 
L 95.139032 257.553177 
L 95.139032 256.432479 
L 95.750945 256.432479 
L 95.750945 253.962548 
L 96.362858 253.962548 
L 96.362858 254.157722 
L 96.974771 254.157722 
L 96.974771 254.956921 
L 97.586684 254.956921 
L 97.586684 258.494498 
L 98.198597 258.494498 
L 98.198597 256.651924 
L 99.422423 256.651924 
L 99.422423 256.873667 
L 100.034336 256.873667 
L 100.034336 257.553177 
L 100.646249 257.553177 
L 100.646249 258.018607 
L 101.258162 258.018607 
L 101.258162 257.324242 
L 101.870075 257.324242 
L 101.870075 258.018607 
L 102.481987 258.018607 
L 102.481987 258.736515 
L 103.0939 258.736515 
L 103.0939 260.77918 
L 103.705813 260.77918 
L 103.705813 258.981329 
L 104.317726 258.981329 
L 104.317726 258.018607 
L 104.929639 258.018607 
L 104.929639 260.512809 
L 106.153465 260.512809 
L 106.153465 261.32219 
L 106.765378 261.32219 
L 106.765378 261.048945 
L 107.377291 261.048945 
L 107.377291 261.599008 
L 107.989204 261.599008 
L 107.989204 256.000296 
L 108.601117 256.000296 
L 108.601117 253.962548 
L 109.21303 253.962548 
L 109.21303 252.103791 
L 109.824943 252.103791 
L 109.824943 248.966951 
L 110.436856 248.966951 
L 110.436856 244.426556 
L 111.048769 244.426556 
L 111.048769 235.070201 
L 111.660682 235.070201 
L 111.660682 226.697339 
L 112.272594 226.697339 
L 112.272594 228.898716 
L 112.884507 228.898716 
L 112.884507 227.797651 
L 113.49642 227.797651 
L 113.49642 220.036703 
L 114.108333 220.036703 
L 114.108333 210.319963 
L 114.720246 210.319963 
L 114.720246 210.543789 
L 115.332159 210.543789 
L 115.332159 213.749864 
L 115.944072 213.749864 
L 115.944072 215.163139 
L 116.555985 215.163139 
L 116.555985 211.885485 
L 117.167898 211.885485 
L 117.167898 210.025161 
L 117.779811 210.025161 
L 117.779811 208.180555 
L 118.391724 208.180555 
L 118.391724 198.370682 
L 119.003637 198.370682 
L 119.003637 193.224616 
L 119.61555 193.224616 
L 119.61555 182.172408 
L 120.227463 182.172408 
L 120.227463 187.73419 
L 120.839376 187.73419 
L 120.839376 192.359718 
L 121.451289 192.359718 
L 121.451289 195.056157 
L 122.063201 195.056157 
L 122.063201 197.897605 
L 122.675114 197.897605 
L 122.675114 195.853042 
L 123.287027 195.853042 
L 123.287027 194.710074 
L 123.89894 194.710074 
L 123.89894 195.322529 
L 124.510853 195.322529 
L 124.510853 197.421409 
L 125.122766 197.421409 
L 125.122766 196.499985 
L 125.734679 196.499985 
L 125.734679 198.216468 
L 126.346592 198.216468 
L 126.346592 199.129871 
L 126.958505 199.129871 
L 126.958505 199.527351 
L 127.570418 199.527351 
L 127.570418 200.008308 
L 128.794244 199.993111 
L 128.794244 199.661519 
L 130.01807 199.75144 
L 130.01807 199.8116 
L 130.629983 199.8116 
L 130.629983 200.877199 
L 131.241896 200.877199 
L 131.241896 204.215573 
L 131.853808 204.215573 
L 131.853808 207.759894 
L 132.465721 207.759894 
L 132.465721 206.298885 
L 133.077634 206.298885 
L 133.077634 204.252692 
L 134.30146 204.271275 
L 134.30146 203.612325 
L 134.913373 203.612325 
L 134.913373 204.12306 
L 135.525286 204.12306 
L 135.525286 207.006212 
L 136.137199 207.006212 
L 136.137199 208.337666 
L 136.749112 208.337666 
L 136.749112 210.568805 
L 137.361025 210.568805 
L 137.361025 210.319963 
L 137.972938 210.319963 
L 137.972938 213.034865 
L 138.584851 213.034865 
L 138.584851 216.182343 
L 139.196764 216.182343 
L 139.196764 217.18456 
L 139.808677 217.18456 
L 139.808677 220.956684 
L 140.42059 220.956684 
L 140.42059 218.236576 
L 141.032503 218.236576 
L 141.032503 218.56265 
L 141.644416 218.56265 
L 141.644416 219.725853 
L 142.256328 219.725853 
L 142.256328 221.918455 
L 142.868241 221.918455 
L 142.868241 220.591917 
L 143.480154 220.591917 
L 143.480154 221.578949 
L 144.092067 221.578949 
L 144.092067 222.614247 
L 144.70398 222.614247 
L 144.70398 225.247055 
L 145.315893 225.247055 
L 145.315893 224.557535 
L 145.927806 224.557535 
L 145.927806 227.130628 
L 146.539719 227.130628 
L 146.539719 235.634934 
L 147.151632 235.634934 
L 147.151632 230.440608 
L 147.763545 230.440608 
L 147.763545 232.522992 
L 148.375458 232.522992 
L 148.375458 229.934883 
L 149.599284 229.997442 
L 149.599284 230.633413 
L 150.211197 230.633413 
L 150.211197 232.242508 
L 150.82311 232.242508 
L 150.82311 231.897048 
L 151.435023 231.897048 
L 151.435023 231.760427 
L 152.046935 231.760427 
L 152.046935 234.99074 
L 152.658848 234.99074 
L 152.658848 237.514705 
L 153.270761 237.514705 
L 153.270761 238.149586 
L 153.882674 238.149586 
L 153.882674 236.553968 
L 154.494587 236.553968 
L 154.494587 236.299341 
L 155.1065 236.299341 
L 155.1065 232.522992 
L 155.718413 232.522992 
L 155.718413 231.828627 
L 156.330326 231.828627 
L 156.330326 232.103647 
L 156.942239 232.103647 
L 156.942239 232.242508 
L 157.554152 232.242508 
L 157.554152 230.31304 
L 158.166065 230.31304 
L 158.166065 231.156309 
L 158.777978 231.156309 
L 158.777978 230.123117 
L 159.389891 230.123117 
L 159.389891 226.011623 
L 161.22563 225.959784 
L 161.22563 224.078414 
L 161.837542 224.078414 
L 161.837542 219.880708 
L 162.449455 219.880708 
L 162.449455 215.826431 
L 163.061368 215.826431 
L 163.061368 213.983858 
L 163.673281 213.983858 
L 163.673281 214.280034 
L 164.285194 214.280034 
L 164.285194 215.163139 
L 164.897107 215.163139 
L 164.897107 214.671361 
L 165.50902 214.671361 
L 165.50902 215.922906 
L 166.120933 215.922906 
L 166.120933 216.247702 
L 166.732846 216.247702 
L 166.732846 217.564258 
L 167.344759 217.564258 
L 167.344759 218.856769 
L 167.956672 218.856769 
L 167.956672 218.672466 
L 168.568585 218.672466 
L 168.568585 217.880066 
L 169.180498 217.880066 
L 169.180498 218.782855 
L 169.792411 218.782855 
L 169.792411 218.057571 
L 170.404324 218.057571 
L 170.404324 218.968125 
L 171.016237 218.968125 
L 171.016237 222.836455 
L 171.628149 222.836455 
L 171.628149 224.509132 
L 172.240062 224.509132 
L 172.240062 223.333678 
L 172.851975 223.333678 
L 172.851975 221.494917 
L 173.463888 221.494917 
L 173.463888 221.790502 
L 174.075801 221.790502 
L 174.075801 221.961279 
L 174.687714 221.961279 
L 174.687714 221.536891 
L 175.299627 221.536891 
L 175.299627 221.748022 
L 176.523453 221.790502 
L 176.523453 219.880708 
L 177.135366 219.880708 
L 177.135366 220.075882 
L 177.747279 220.075882 
L 177.747279 221.918455 
L 178.359192 221.918455 
L 178.359192 222.526012 
L 178.971105 222.526012 
L 178.971105 222.836455 
L 179.583018 222.836455 
L 179.583018 222.350639 
L 180.194931 222.350639 
L 180.194931 221.833067 
L 181.418756 221.875718 
L 181.418756 221.961279 
L 182.030669 221.961279 
L 182.030669 222.133445 
L 182.642582 222.133445 
L 182.642582 221.833067 
L 183.866408 221.748022 
L 183.866408 220.915843 
L 184.478321 220.915843 
L 184.478321 220.471711 
L 185.090234 220.471711 
L 185.090234 221.038604 
L 185.702147 221.038604 
L 185.702147 221.327845 
L 186.31406 221.327845 
L 186.31406 221.536891 
L 186.925973 221.536891 
L 186.925973 221.079683 
L 187.537886 221.079683 
L 187.537886 221.286282 
L 188.761712 221.286282 
L 188.761712 221.663317 
L 189.373625 221.663317 
L 189.373625 221.286282 
L 189.985538 221.286282 
L 189.985538 221.120842 
L 192.433189 221.038604 
L 192.433189 220.834396 
L 193.045102 220.834396 
L 193.045102 220.591917 
L 193.657015 220.591917 
L 193.657015 219.764461 
L 194.268928 219.764461 
L 194.268928 219.005375 
L 194.880841 219.005375 
L 194.880841 218.709199 
L 195.492754 218.709199 
L 195.492754 216.91263 
L 196.104667 216.91263 
L 196.104667 216.214997 
L 196.71658 216.214997 
L 196.71658 215.194258 
L 197.328493 215.194258 
L 197.328493 215.955163 
L 198.552319 215.890699 
L 198.552319 215.539616 
L 199.776145 215.476403 
L 199.776145 215.381936 
L 200.388058 215.381936 
L 200.388058 214.641001 
L 200.999971 214.641001 
L 200.999971 213.232644 
L 201.611883 213.232644 
L 201.611883 212.288854 
L 202.223796 212.288854 
L 202.223796 208.405357 
L 202.835709 208.405357 
L 202.835709 208.046809 
L 203.447622 208.046809 
L 203.447622 209.471345 
L 204.671448 209.376491 
L 204.671448 208.747101 
L 205.283361 208.747101 
L 205.283361 206.774775 
L 205.895274 206.774775 
L 205.895274 204.608603 
L 206.507187 204.608603 
L 206.507187 204.345774 
L 207.1191 204.345774 
L 207.1191 203.811504 
L 207.731013 203.811504 
L 207.731013 202.643596 
L 208.342926 202.643596 
L 208.342926 197.925143 
L 208.954839 197.925143 
L 208.954839 206.095265 
L 209.566752 206.095265 
L 209.566752 206.504481 
L 210.178665 206.504481 
L 210.178665 205.028326 
L 210.790578 205.028326 
L 210.790578 204.741251 
L 211.40249 204.741251 
L 211.40249 206.278434 
L 212.014403 206.278434 
L 212.014403 205.813448 
L 212.626316 205.813448 
L 212.626316 204.495563 
L 213.238229 204.495563 
L 213.238229 204.741251 
L 213.850142 204.741251 
L 213.850142 204.104605 
L 214.462055 204.104605 
L 214.462055 203.201816 
L 215.073968 203.201816 
L 215.073968 202.082941 
L 215.685881 202.082941 
L 215.685881 202.472128 
L 216.297794 202.472128 
L 216.297794 202.747148 
L 216.909707 202.747148 
L 216.909707 202.369909 
L 217.52162 202.369909 
L 217.52162 202.16694 
L 218.133533 202.16694 
L 218.133533 201.357769 
L 218.745446 201.357769 
L 218.745446 202.16694 
L 219.357359 202.16694 
L 219.357359 202.886009 
L 220.581185 202.990755 
L 220.581185 203.184147 
L 221.80501 203.272639 
L 221.80501 203.415001 
L 222.416923 203.415001 
L 222.416923 203.957548 
L 223.028836 203.957548 
L 223.028836 205.614422 
L 223.640749 205.614422 
L 223.640749 204.6843 
L 224.252662 204.6843 
L 224.252662 205.753544 
L 224.864575 205.753544 
L 224.864575 205.066899 
L 225.476488 205.066899 
L 225.476488 204.932201 
L 226.088401 204.932201 
L 226.088401 204.6843 
L 226.700314 204.6843 
L 226.700314 204.476781 
L 227.312227 204.476781 
L 227.312227 203.486543 
L 227.92414 203.486543 
L 227.92414 203.343701 
L 228.536053 203.343701 
L 228.536053 202.369909 
L 229.759879 202.302036 
L 229.759879 202.032701 
L 230.371792 202.032701 
L 230.371792 201.882691 
L 230.983704 201.882691 
L 230.983704 200.376333 
L 231.595617 200.376333 
L 231.595617 200.625285 
L 232.20753 200.625285 
L 232.20753 200.20686 
L 233.431356 200.283725 
L 233.431356 200.829736 
L 234.043269 200.829736 
L 234.043269 200.469347 
L 234.655182 200.469347 
L 234.655182 200.750867 
L 235.879008 200.656611 
L 235.879008 200.562772 
L 236.490921 200.562772 
L 236.490921 200.798153 
L 237.102834 200.798153 
L 237.102834 200.609639 
L 237.714747 200.609639 
L 237.714747 200.145569 
L 238.32666 200.145569 
L 238.32666 199.438375 
L 239.550486 199.394027 
L 239.550486 197.70584 
L 240.162399 197.70584 
L 240.162399 196.876866 
L 240.774312 196.876866 
L 240.774312 194.61559 
L 241.386224 194.61559 
L 241.386224 194.924218 
L 241.998137 194.924218 
L 241.998137 192.583357 
L 242.61005 192.583357 
L 242.61005 191.065326 
L 243.221963 191.065326 
L 243.221963 191.326022 
L 243.833876 191.326022 
L 243.833876 190.186923 
L 244.445789 190.186923 
L 244.445789 188.51473 
L 245.057702 188.51473 
L 245.057702 188.225181 
L 245.669615 188.225181 
L 245.669615 185.69035 
L 246.281528 185.69035 
L 246.281528 184.133175 
L 246.893441 184.133175 
L 246.893441 183.398992 
L 248.117267 183.482418 
L 248.117267 181.514828 
L 248.72918 181.514828 
L 248.72918 180.957279 
L 249.341093 180.957279 
L 249.341093 176.637686 
L 249.953006 176.637686 
L 249.953006 174.287388 
L 250.564919 174.287388 
L 250.564919 175.499115 
L 251.176831 175.499115 
L 251.176831 174.300929 
L 251.788744 174.300929 
L 251.788744 172.066178 
L 252.400657 172.066178 
L 252.400657 165.744826 
L 253.01257 165.744826 
L 253.01257 165.244365 
L 253.624483 165.244365 
L 253.624483 160.782675 
L 254.236396 160.782675 
L 254.236396 159.918219 
L 254.848309 159.918219 
L 254.848309 154.88109 
L 255.460222 154.88109 
L 255.460222 150.826786 
L 256.072135 150.826786 
L 256.072135 145.016796 
L 256.684048 145.016796 
L 256.684048 153.558894 
L 257.295961 153.558894 
L 257.295961 158.267287 
L 257.907874 158.267287 
L 257.907874 159.600115 
L 258.519787 159.600115 
L 258.519787 153.122601 
L 259.1317 153.122601 
L 259.1317 150.76726 
L 259.743613 150.76726 
L 259.743613 151.60078 
L 260.355526 151.60078 
L 260.355526 150.466255 
L 260.967438 150.466255 
L 260.967438 157.579754 
L 261.579351 157.579754 
L 261.579351 155.127961 
L 262.191264 155.127961 
L 262.191264 155.613688 
L 262.803177 155.613688 
L 262.803177 155.182807 
L 263.41509 155.182807 
L 263.41509 155.867412 
L 264.027003 155.867412 
L 264.027003 153.828484 
L 264.638916 153.828484 
L 264.638916 154.052903 
L 265.250829 154.052903 
L 265.250829 153.25589 
L 265.862742 153.25589 
L 265.862742 152.148809 
L 266.474655 152.148809 
L 266.474655 152.340018 
L 267.086568 152.340018 
L 267.086568 152.825733 
L 267.698481 152.825733 
L 267.698481 154.157288 
L 268.310394 154.157288 
L 268.310394 155.96216 
L 268.922307 155.96216 
L 268.922307 157.013402 
L 269.53422 157.013402 
L 269.53422 157.457111 
L 270.146133 157.457111 
L 270.146133 158.288474 
L 270.758045 158.288474 
L 270.758045 156.700379 
L 271.369958 156.700379 
L 271.369958 156.569026 
L 271.981871 156.569026 
L 271.981871 157.45915 
L 272.593784 157.45915 
L 272.593784 159.431648 
L 273.205697 159.431648 
L 273.205697 161.216334 
L 273.81761 161.216334 
L 273.81761 162.982042 
L 274.429523 162.982042 
L 274.429523 164.359311 
L 275.041436 164.359311 
L 275.041436 160.998394 
L 275.653349 160.998394 
L 275.653349 158.695104 
L 276.265262 158.695104 
L 276.265262 158.901386 
L 276.877175 158.901386 
L 276.877175 160.032996 
L 278.101001 160.035298 
L 278.101001 158.912298 
L 278.712914 158.912298 
L 278.712914 158.544383 
L 279.324827 158.544383 
L 279.324827 156.993453 
L 279.93674 156.993453 
L 279.93674 157.244181 
L 280.548652 157.244181 
L 280.548652 156.921791 
L 281.160565 156.921791 
L 281.160565 157.682502 
L 281.772478 157.682502 
L 281.772478 156.905899 
L 282.384391 156.905899 
L 282.384391 158.677825 
L 282.996304 158.677825 
L 282.996304 158.416042 
L 283.608217 158.416042 
L 283.608217 156.166357 
L 284.22013 156.166357 
L 284.22013 156.434598 
L 284.832043 156.434598 
L 284.832043 154.812622 
L 285.443956 154.812622 
L 285.443956 153.569069 
L 286.055869 153.569069 
L 286.055869 152.696743 
L 286.667782 152.696743 
L 286.667782 153.947302 
L 287.279695 153.947302 
L 287.279695 154.730036 
L 287.891608 154.730036 
L 287.891608 153.282649 
L 288.503521 153.282649 
L 288.503521 153.7035 
L 289.115434 153.7035 
L 289.115434 151.271033 
L 289.727347 151.271033 
L 289.727347 153.87662 
L 290.951172 153.943849 
L 290.951172 153.601323 
L 291.563085 153.601323 
L 291.563085 153.204141 
L 292.174998 153.204141 
L 292.174998 157.467304 
L 292.786911 157.467304 
L 292.786911 154.195692 
L 293.398824 154.195692 
L 293.398824 153.691554 
L 294.010737 153.691554 
L 294.010737 153.137554 
L 294.62265 153.137554 
L 294.62265 151.885551 
L 295.234563 151.885551 
L 295.234563 150.554343 
L 295.846476 150.554343 
L 295.846476 145.112154 
L 296.458389 145.112154 
L 296.458389 143.200856 
L 297.070302 143.200856 
L 297.070302 145.872004 
L 297.682215 145.872004 
L 297.682215 141.959292 
L 298.294128 141.959292 
L 298.294128 143.273752 
L 298.906041 143.273752 
L 298.906041 140.634009 
L 299.517954 140.634009 
L 299.517954 135.646367 
L 300.129867 135.646367 
L 300.129867 133.113232 
L 300.741779 133.113232 
L 300.741779 129.284652 
L 301.353692 129.284652 
L 301.353692 127.025727 
L 301.965605 127.025727 
L 301.965605 122.282958 
L 302.577518 122.282958 
L 302.577518 114.365304 
L 303.189431 114.365304 
L 303.189431 113.850595 
L 303.801344 113.850595 
L 303.801344 109.210697 
L 304.413257 109.210697 
L 304.413257 110.482012 
L 305.02517 110.482012 
L 305.02517 106.790174 
L 305.637083 106.790174 
L 305.637083 116.882193 
L 306.248996 116.882193 
L 306.248996 109.961825 
L 306.860909 109.961825 
L 306.860909 112.094247 
L 307.472822 112.094247 
L 307.472822 117.364929 
L 308.084735 117.364929 
L 308.084735 117.509667 
L 308.696648 117.509667 
L 308.696648 119.832332 
L 309.308561 119.832332 
L 309.308561 117.704618 
L 309.920474 117.704618 
L 309.920474 116.611247 
L 310.532386 116.611247 
L 310.532386 116.113648 
L 311.144299 116.113648 
L 311.144299 114.03782 
L 311.756212 114.03782 
L 311.756212 111.372344 
L 312.368125 111.372344 
L 312.368125 113.54808 
L 312.980038 113.54808 
L 312.980038 113.097742 
L 314.203864 113.153262 
L 314.203864 113.938126 
L 314.815777 113.938126 
L 314.815777 113.586557 
L 315.42769 113.586557 
L 315.42769 114.76813 
L 316.039603 114.76813 
L 316.039603 115.667943 
L 316.651516 115.667943 
L 316.651516 114.232537 
L 317.263429 114.232537 
L 317.263429 113.856315 
L 317.875342 113.856315 
L 317.875342 114.741542 
L 318.487255 114.741542 
L 318.487255 117.649178 
L 319.099168 117.649178 
L 319.099168 117.827223 
L 319.711081 117.827223 
L 319.711081 117.978641 
L 320.322993 117.978641 
L 320.322993 119.292714 
L 320.934906 119.292714 
L 320.934906 121.67243 
L 321.546819 121.67243 
L 321.546819 119.938114 
L 322.158732 119.938114 
L 322.158732 120.853097 
L 322.770645 120.853097 
L 322.770645 121.504589 
L 323.382558 121.504589 
L 323.382558 117.884389 
L 323.994471 117.884389 
L 323.994471 119.224585 
L 325.218297 119.313902 
L 325.218297 118.924486 
L 325.83021 118.924486 
L 325.83021 119.124301 
L 326.442123 119.124301 
L 326.442123 119.932916 
L 327.054036 119.932916 
L 327.054036 121.672054 
L 327.665949 121.672054 
L 327.665949 120.83212 
L 328.277862 120.83212 
L 328.277862 124.202394 
L 328.889775 124.202394 
L 328.889775 126.06702 
L 329.501688 126.06702 
L 329.501688 126.476906 
L 330.1136 126.476906 
L 330.1136 126.043426 
L 330.725513 126.043426 
L 330.725513 126.799793 
L 331.337426 126.799793 
L 331.337426 127.708359 
L 331.949339 127.708359 
L 331.949339 123.23308 
L 332.561252 123.23308 
L 332.561252 124.957019 
L 333.173165 124.957019 
L 333.173165 124.254169 
L 333.785078 124.254169 
L 333.785078 124.094584 
L 334.396991 124.094584 
L 334.396991 126.950309 
L 335.008904 126.950309 
L 335.008904 126.321272 
L 335.620817 126.321272 
L 335.620817 126.892476 
L 336.23273 126.892476 
L 336.23273 127.477537 
L 336.844643 127.477537 
L 336.844643 126.463696 
L 337.456556 126.463696 
L 337.456556 126.77489 
L 338.068469 126.77489 
L 338.068469 126.580511 
L 339.292295 126.563445 
L 339.292295 124.442384 
L 339.904207 124.442384 
L 339.904207 123.035201 
L 340.51612 123.035201 
L 340.51612 121.310689 
L 341.128033 121.310689 
L 341.128033 119.585841 
L 341.739946 119.585841 
L 341.739946 118.242177 
L 342.963772 118.258818 
L 342.963772 118.39918 
L 343.575685 118.39918 
L 343.575685 119.461122 
L 344.187598 119.461122 
L 344.187598 121.326225 
L 344.799511 121.326225 
L 344.799511 120.044078 
L 345.411424 120.044078 
L 345.411424 120.555936 
L 346.023337 120.555936 
L 346.023337 120.743377 
L 346.63525 120.743377 
L 346.63525 121.139811 
L 347.247163 121.139811 
L 347.247163 120.324915 
L 347.859076 120.324915 
L 347.859076 118.613601 
L 348.470989 118.613601 
L 348.470989 119.257783 
L 349.082902 119.257783 
L 349.082902 119.461122 
L 349.694815 119.461122 
L 349.694815 119.157342 
L 350.306727 119.157342 
L 350.306727 119.588909 
L 350.91864 119.588909 
L 350.91864 119.433017 
L 352.142466 119.39245 
L 352.142466 119.615515 
L 352.754379 119.615515 
L 352.754379 120.469763 
L 353.366292 120.469763 
L 353.366292 120.842606 
L 353.978205 120.842606 
L 353.978205 120.474738 
L 354.590118 120.474738 
L 354.590118 120.73438 
L 355.202031 120.73438 
L 355.202031 120.859974 
L 355.813944 120.859974 
L 355.813944 120.65393 
L 356.425857 120.65393 
L 356.425857 122.167905 
L 357.03777 122.167905 
L 357.03777 123.197478 
L 357.649683 123.197478 
L 357.649683 124.613264 
L 358.261596 124.613264 
L 358.261596 123.531149 
L 358.873509 123.531149 
L 358.873509 124.119902 
L 359.485422 124.119902 
L 359.485422 123.907331 
L 360.097334 123.907331 
L 360.097334 125.099814 
L 360.709247 125.099814 
L 360.709247 125.293948 
L 361.32116 125.293948 
L 361.32116 125.067998 
L 361.933073 125.067998 
L 361.933073 125.345333 
L 363.156899 125.288593 
L 363.156899 125.458371 
L 363.768812 125.458371 
L 363.768812 127.599101 
L 364.380725 127.599101 
L 364.380725 128.849993 
L 364.992638 128.849993 
L 364.992638 127.692859 
L 365.604551 127.692859 
L 365.604551 128.890151 
L 366.216464 128.890151 
L 366.216464 129.437152 
L 366.828377 129.437152 
L 366.828377 131.206731 
L 367.44029 131.206731 
L 367.44029 133.138426 
L 368.052203 133.138426 
L 368.052203 130.930634 
L 368.664116 130.930634 
L 368.664116 129.952452 
L 369.276029 129.952452 
L 369.276029 129.185738 
L 369.887941 129.185738 
L 369.887941 129.392695 
L 370.499854 129.392695 
L 370.499854 129.671272 
L 371.111767 129.671272 
L 371.111767 131.230936 
L 371.72368 131.230936 
L 371.72368 131.684097 
L 372.335593 131.684097 
L 372.335593 132.024773 
L 372.947506 132.024773 
L 372.947506 133.34955 
L 373.559419 133.34955 
L 373.559419 132.437827 
L 374.171332 132.437827 
L 374.171332 131.924435 
L 374.783245 131.924435 
L 374.783245 130.595514 
L 375.395158 130.595514 
L 375.395158 128.957957 
L 376.007071 128.957957 
L 376.007071 129.508369 
L 376.618984 129.508369 
L 376.618984 131.350596 
L 377.230897 131.350596 
L 377.230897 130.727196 
L 378.454723 130.742198 
L 378.454723 130.244179 
L 379.066636 130.244179 
L 379.066636 130.018173 
L 379.678548 130.018173 
L 379.678548 130.221076 
L 380.290461 130.221076 
L 380.290461 130.966773 
L 380.902374 130.966773 
L 380.902374 131.80089 
L 381.514287 131.80089 
L 381.514287 131.271734 
L 382.1262 131.271734 
L 382.1262 133.547638 
L 382.738113 133.547638 
L 382.738113 132.887185 
L 383.350026 132.887185 
L 383.350026 132.543147 
L 383.961939 132.543147 
L 383.961939 132.988351 
L 384.573852 132.988351 
L 384.573852 134.077455 
L 385.797678 133.982396 
L 385.797678 137.776523 
L 386.409591 137.776523 
L 386.409591 135.14517 
L 387.021504 135.14517 
L 387.021504 136.770822 
L 387.633417 136.770822 
L 387.633417 141.379085 
L 388.24533 141.379085 
L 388.24533 142.745259 
L 388.857243 142.745259 
L 388.857243 141.958311 
L 389.469155 141.958311 
L 389.469155 140.308678 
L 390.081068 140.308678 
L 390.081068 138.500896 
L 390.692981 138.500896 
L 390.692981 140.066126 
L 391.304894 140.066126 
L 391.304894 141.643041 
L 391.916807 141.643041 
L 391.916807 140.858049 
L 392.52872 140.858049 
L 392.52872 141.344773 
L 393.140633 141.344773 
L 393.140633 141.577465 
L 393.752546 141.577465 
L 393.752546 141.34763 
L 394.364459 141.34763 
L 394.364459 140.248005 
L 394.976372 140.248005 
L 394.976372 139.955246 
L 395.588285 139.955246 
L 395.588285 139.256105 
L 396.200198 139.256105 
L 396.200198 139.733447 
L 396.812111 139.733447 
L 396.812111 138.685719 
L 397.424024 138.685719 
L 397.424024 136.778497 
L 398.035937 136.778497 
L 398.035937 136.991426 
L 398.64785 136.991426 
L 398.64785 136.845385 
L 399.259763 136.845385 
L 399.259763 135.247035 
L 399.871675 135.247035 
L 399.871675 136.298086 
L 400.483588 136.298086 
L 400.483588 136.127683 
L 401.095501 136.127683 
L 401.095501 137.862797 
L 401.707414 137.862797 
L 401.707414 137.550816 
L 402.319327 137.550816 
L 402.319327 138.92902 
L 402.93124 138.92902 
L 402.93124 139.522684 
L 403.543153 139.522684 
L 403.543153 139.163117 
L 404.155066 139.163117 
L 404.155066 138.555089 
L 405.378892 138.535897 
L 405.378892 140.084064 
L 405.990805 140.084064 
L 405.990805 141.282961 
L 406.602718 141.282961 
L 406.602718 140.860842 
L 407.214631 140.860842 
L 407.214631 141.320977 
L 407.826544 141.320977 
L 407.826544 140.301425 
L 408.438457 140.301425 
L 408.438457 140.973772 
L 409.662282 141.076021 
L 409.662282 140.540284 
L 410.274195 140.540284 
L 410.274195 139.883128 
L 412.109934 139.806827 
L 412.109934 140.086756 
L 413.33376 140.027609 
L 413.33376 140.500897 
L 413.945673 140.500897 
L 413.945673 139.834299 
L 414.557586 139.834299 
L 414.557586 140.120885 
L 415.781412 140.04462 
L 415.781412 140.782796 
L 416.393325 140.782796 
L 416.393325 141.057222 
L 417.617151 141.095777 
L 417.617151 140.732776 
L 418.840977 140.666265 
L 418.840977 140.084064 
L 419.452889 140.084064 
L 419.452889 139.011598 
L 420.064802 139.011598 
L 420.064802 139.417215 
L 420.676715 139.417215 
L 420.676715 139.710513 
L 421.288628 139.710513 
L 421.288628 138.76145 
L 421.900541 138.76145 
L 421.900541 137.836152 
L 422.512454 137.836152 
L 422.512454 138.351545 
L 423.124367 138.351545 
L 423.124367 137.349559 
L 424.348193 137.312527 
L 424.348193 134.270909 
L 424.960106 134.270909 
L 424.960106 136.040027 
L 425.572019 136.040027 
L 425.572019 136.711819 
L 426.795845 136.710289 
L 426.795845 135.793866 
L 427.407758 135.793866 
L 427.407758 135.435671 
L 428.019671 135.435671 
L 428.019671 135.834206 
L 428.631584 135.834206 
L 428.631584 136.293585 
L 429.855409 136.388326 
L 429.855409 137.853104 
L 430.467322 137.853104 
L 430.467322 137.157228 
L 431.079235 137.157228 
L 431.079235 137.555593 
L 431.691148 137.555593 
L 431.691148 138.306945 
L 432.303061 138.306945 
L 432.303061 140.146068 
L 432.914974 140.146068 
L 432.914974 140.801352 
L 433.526887 140.801352 
L 433.526887 141.091071 
L 434.1388 141.091071 
L 434.1388 140.663498 
L 434.750713 140.663498 
L 434.750713 140.817138 
L 435.362626 140.817138 
L 435.362626 140.5623 
L 435.974539 140.5623 
L 435.974539 139.686723 
L 436.586452 139.686723 
L 436.586452 139.833412 
L 437.198365 139.833412 
L 437.198365 140.629405 
L 437.810278 140.629405 
L 437.810278 140.783724 
L 438.422191 140.783724 
L 438.422191 140.6064 
L 439.646016 140.590771 
L 439.646016 140.154169 
L 440.257929 140.154169 
L 440.257929 139.80417 
L 442.093668 139.8698 
L 442.093668 139.464219 
L 442.705581 139.464219 
L 442.705581 139.229373 
L 443.317494 139.229373 
L 443.317494 138.86539 
L 443.929407 138.86539 
L 443.929407 137.849874 
L 445.153233 137.742754 
L 445.153233 136.895497 
L 445.765146 136.895497 
L 445.765146 136.25311 
L 446.377059 136.25311 
L 446.377059 134.667368 
L 446.988972 134.667368 
L 446.988972 134.296154 
L 447.600885 134.296154 
L 447.600885 128.673885 
L 448.212798 128.673885 
L 448.212798 130.351576 
L 448.824711 130.351576 
L 448.824711 129.962464 
L 449.436623 129.962464 
L 449.436623 132.301938 
L 450.048536 132.301938 
L 450.048536 133.704399 
L 450.660449 133.704399 
L 450.660449 132.750929 
L 451.272362 132.750929 
L 451.272362 133.222623 
L 451.884275 133.222623 
L 451.884275 133.659965 
L 452.496188 133.659965 
L 452.496188 131.2599 
L 453.108101 131.2599 
L 453.108101 130.14967 
L 453.720014 130.14967 
L 453.720014 131.055633 
L 454.331927 131.055633 
L 454.331927 129.594038 
L 454.94384 129.594038 
L 454.94384 128.055312 
L 455.555753 128.055312 
L 455.555753 127.076156 
L 456.167666 127.076156 
L 456.167666 125.768723 
L 457.391492 125.813498 
L 457.391492 126.972036 
L 458.003405 126.972036 
L 458.003405 126.136102 
L 458.615318 126.136102 
L 458.615318 127.75593 
L 459.22723 127.75593 
L 459.22723 127.466655 
L 459.839143 127.466655 
L 459.839143 127.24382 
L 461.062969 127.259974 
L 461.062969 126.292715 
L 461.674882 126.292715 
L 461.674882 126.511857 
L 462.286795 126.511857 
L 462.286795 127.401481 
L 462.898708 127.401481 
L 462.898708 129.988072 
L 463.510621 129.988072 
L 463.510621 127.859956 
L 464.122534 127.859956 
L 464.122534 129.715219 
L 464.734447 129.715219 
L 464.734447 129.35698 
L 465.34636 129.35698 
L 465.34636 130.098653 
L 465.958273 130.098653 
L 465.958273 130.448131 
L 466.570186 130.448131 
L 466.570186 129.555799 
L 467.182099 129.555799 
L 467.182099 130.27747 
L 467.794012 130.27747 
L 467.794012 130.044966 
L 468.405925 130.044966 
L 468.405925 129.45344 
L 469.017837 129.45344 
L 469.017837 128.543408 
L 469.62975 128.543408 
L 469.62975 127.878604 
L 470.241663 127.878604 
L 470.241663 127.048987 
L 470.853576 127.048987 
L 470.853576 127.703858 
L 471.465489 127.703858 
L 471.465489 127.286435 
L 472.077402 127.286435 
L 472.077402 127.75192 
L 472.689315 127.75192 
L 472.689315 128.954774 
L 473.301228 128.954774 
L 473.301228 128.277135 
L 473.913141 128.277135 
L 473.913141 127.87205 
L 474.525054 127.87205 
L 474.525054 128.131716 
L 475.136967 128.131716 
L 475.136967 127.953866 
L 475.74888 127.953866 
L 475.74888 128.294611 
L 476.360793 128.294611 
L 476.360793 127.980702 
L 480.03227 127.880116 
L 480.03227 127.839814 
L 480.644183 127.839814 
L 480.644183 127.683365 
L 481.256096 127.683365 
L 481.256096 127.350764 
L 481.868009 127.350764 
L 481.868009 127.088296 
L 482.479922 127.088296 
L 482.479922 126.525097 
L 483.091835 126.525097 
L 483.091835 125.836378 
L 483.703748 125.836378 
L 483.703748 126.417527 
L 484.315661 126.417527 
L 484.315661 126.275879 
L 484.927574 126.275879 
L 484.927574 126.565815 
L 485.539487 126.565815 
L 485.539487 125.996318 
L 486.1514 125.996318 
L 486.1514 126.379912 
L 486.763313 126.379912 
L 486.763313 126.144462 
L 487.987139 126.229184 
L 487.987139 127.08344 
L 488.599051 127.08344 
L 488.599051 126.96624 
L 489.210964 126.96624 
L 489.210964 126.47785 
L 489.822877 126.47785 
L 489.822877 123.086207 
L 490.43479 123.086207 
L 490.43479 122.872964 
L 491.046703 122.872964 
L 491.046703 121.489668 
L 491.658616 121.489668 
L 491.658616 120.907083 
L 492.270529 120.907083 
L 492.270529 121.250872 
L 492.882442 121.250872 
L 492.882442 118.119379 
L 493.494355 118.119379 
L 493.494355 117.246185 
L 494.106268 117.246185 
L 494.106268 115.543952 
L 494.718181 115.543952 
L 494.718181 118.163632 
L 495.942007 118.146429 
L 495.942007 118.569373 
L 496.55392 118.569373 
L 496.55392 118.052697 
L 497.165833 118.052697 
L 497.165833 118.403693 
L 497.777746 118.403693 
L 497.777746 117.869297 
L 498.389658 117.869297 
L 498.389658 118.714106 
L 499.001571 118.714106 
L 499.001571 118.162357 
L 500.225397 118.204145 
L 500.225397 117.878728 
L 500.83731 117.878728 
L 500.83731 118.178297 
L 502.061136 118.258818 
L 502.061136 118.455329 
L 503.284962 118.477636 
L 503.284962 122.921984 
L 503.896875 122.921984 
L 503.896875 121.309949 
L 504.508788 121.309949 
L 504.508788 120.619902 
L 505.120701 120.619902 
L 505.120701 120.824168 
L 505.732614 120.824168 
L 505.732614 121.509814 
L 506.344527 121.509814 
L 506.344527 121.376609 
L 506.95644 121.376609 
L 506.95644 121.13321 
L 507.568353 121.13321 
L 507.568353 120.970301 
L 508.180266 120.970301 
L 508.180266 121.124045 
L 508.792178 121.124045 
L 508.792178 121.355107 
L 510.016004 121.373642 
L 510.016004 120.185608 
L 510.627917 120.185608 
L 510.627917 119.790305 
L 511.23983 119.790305 
L 511.23983 119.573915 
L 511.851743 119.573915 
L 511.851743 120.015537 
L 513.687482 120.021103 
L 513.687482 120.534538 
L 514.299395 120.534538 
L 514.299395 120.360592 
L 514.911308 120.360592 
L 514.911308 120.189115 
L 515.523221 120.189115 
L 515.523221 119.871334 
L 516.135134 119.871334 
L 516.135134 120.072657 
L 516.747047 120.072657 
L 516.747047 119.810619 
L 517.970873 119.809586 
L 517.970873 119.156674 
L 518.582785 119.156674 
L 518.582785 118.991986 
L 519.194698 118.991986 
L 519.194698 119.368146 
L 519.806611 119.368146 
L 519.806611 118.523941 
L 521.030437 118.582371 
L 521.030437 117.490826 
L 521.64235 117.490826 
L 521.64235 117.150877 
L 522.254263 117.150877 
L 522.254263 117.559475 
L 522.866176 117.559475 
L 522.866176 116.761046 
L 523.478089 116.761046 
L 523.478089 116.419606 
L 524.090002 116.419606 
L 524.090002 116.991368 
L 524.701915 116.991368 
L 524.701915 116.708317 
L 525.313828 116.708317 
L 525.313828 115.62804 
L 525.925741 115.62804 
L 525.925741 115.970356 
L 527.149567 116.008607 
L 527.149567 116.249763 
L 527.76148 116.249763 
L 527.76148 115.824887 
L 528.373392 115.824887 
L 528.373392 115.236143 
L 529.597218 115.346897 
L 529.597218 115.067236 
L 530.209131 115.067236 
L 530.209131 114.823313 
L 531.432957 114.880824 
L 531.432957 114.53459 
L 532.04487 114.53459 
L 532.04487 113.326532 
L 532.656783 113.326532 
L 532.656783 111.913171 
L 533.268696 111.913171 
L 533.268696 111.03623 
L 533.880609 111.03623 
L 533.880609 110.413164 
L 534.492522 110.413164 
L 534.492522 109.224901 
L 535.104435 109.224901 
L 535.104435 109.514609 
L 535.716348 109.514609 
L 535.716348 111.492942 
L 536.328261 111.492942 
L 536.328261 114.743711 
L 536.940174 114.743711 
L 536.940174 113.721265 
L 537.552087 113.721265 
L 537.552087 111.58361 
L 538.163999 111.58361 
L 538.163999 111.841172 
L 538.775912 111.841172 
L 538.775912 111.273596 
L 539.387825 111.273596 
L 539.387825 111.38715 
L 540.611651 111.453441 
L 540.611651 109.861242 
L 541.223564 109.861242 
L 541.223564 108.79774 
L 541.835477 108.79774 
L 541.835477 108.416805 
L 542.44739 108.416805 
L 542.44739 109.558293 
L 543.671216 109.4818 
L 543.671216 108.774612 
L 544.283129 108.774612 
L 544.283129 108.456466 
L 544.895042 108.456466 
L 544.895042 106.918899 
L 545.506955 106.918899 
L 545.506955 106.540752 
L 546.118868 106.540752 
L 546.118868 105.807688 
L 546.730781 105.807688 
L 546.730781 104.164137 
L 547.342694 104.164137 
L 547.342694 104.287902 
L 547.954606 104.287902 
L 547.954606 105.786361 
L 548.566519 105.786361 
L 548.566519 105.163395 
L 549.178432 105.163395 
L 549.178432 104.663599 
L 549.790345 104.663599 
L 549.790345 110.202698 
L 550.402258 110.202698 
L 550.402258 107.240088 
L 551.014171 107.240088 
L 551.014171 111.091158 
L 551.626084 111.091158 
L 551.626084 108.655484 
L 552.237997 108.655484 
L 552.237997 108.784024 
L 552.84991 108.784024 
L 552.84991 107.877647 
L 553.461823 107.877647 
L 553.461823 106.853038 
L 554.073736 106.853038 
L 554.073736 105.930024 
L 554.685649 105.930024 
L 554.685649 105.312085 
L 555.297562 105.312085 
L 555.297562 106.175933 
L 555.909475 106.175933 
L 555.909475 106.05667 
L 556.521388 106.05667 
L 556.521388 105.009577 
L 557.745214 104.937606 
L 557.745214 104.14736 
L 558.357126 104.14736 
L 558.357126 103.420467 
L 558.969039 103.420467 
L 558.969039 101.674689 
L 559.580952 101.674689 
L 559.580952 100.657909 
L 560.192865 100.657909 
L 560.192865 98.888547 
L 560.804778 98.888547 
L 560.804778 96.721633 
L 561.416691 96.721633 
L 561.416691 97.296695 
L 562.640517 97.249398 
L 562.640517 94.735554 
L 563.25243 94.735554 
L 563.25243 92.275347 
L 563.864343 92.275347 
L 563.864343 92.055933 
L 565.088169 91.961401 
L 565.088169 90.880626 
L 565.700082 90.880626 
L 565.700082 89.854938 
L 566.311995 89.854938 
L 566.311995 88.607377 
L 566.923908 88.607377 
L 566.923908 86.970635 
L 567.535821 86.970635 
L 567.535821 88.426854 
L 568.147733 88.426854 
L 568.147733 90.291294 
L 568.759646 90.291294 
L 568.759646 89.273059 
L 569.371559 89.273059 
L 569.371559 88.368399 
L 569.983472 88.368399 
L 569.983472 90.086418 
L 570.595385 90.086418 
L 570.595385 89.615446 
L 571.207298 89.615446 
L 571.207298 90.781302 
L 571.819211 90.781302 
L 571.819211 89.282101 
L 572.431124 89.282101 
L 572.431124 90.079394 
L 573.043037 90.079394 
L 573.043037 91.621353 
L 574.266863 91.517867 
L 574.266863 95.793343 
L 574.878776 95.793343 
L 574.878776 92.192075 
L 575.490689 92.192075 
L 575.490689 87.511673 
L 576.102602 87.511673 
L 576.102602 89.565839 
L 576.714515 89.565839 
L 576.714515 87.819 
L 577.326428 87.819 
L 577.326428 87.233286 
L 577.93834 87.233286 
L 577.93834 87.779495 
L 578.550253 87.779495 
L 578.550253 84.808646 
L 579.162166 84.808646 
L 579.162166 83.967496 
L 579.774079 83.967496 
L 579.774079 80.858457 
L 580.385992 80.858457 
L 580.385992 79.218737 
L 580.997905 79.218737 
L 580.997905 79.603487 
L 581.609818 79.603487 
L 581.609818 80.223456 
L 582.221731 80.223456 
L 582.221731 78.463335 
L 583.445557 78.427775 
L 583.445557 77.271688 
L 584.669383 77.257598 
L 584.669383 78.204604 
L 585.281296 78.204604 
L 585.281296 78.558926 
L 585.893209 78.558926 
L 585.893209 79.124615 
L 586.505122 79.124615 
L 586.505122 84.767589 
L 587.117035 84.767589 
L 587.117035 81.924866 
L 587.728947 81.924866 
L 587.728947 80.716827 
L 588.34086 80.716827 
L 588.34086 81.361981 
L 588.952773 81.361981 
L 588.952773 80.790251 
L 589.564686 80.790251 
L 589.564686 79.298425 
L 590.176599 79.298425 
L 590.176599 78.160945 
L 590.788512 78.160945 
L 590.788512 78.527913 
L 591.400425 78.527913 
L 591.400425 77.165025 
L 592.012338 77.165025 
L 592.012338 76.19223 
L 592.624251 76.19223 
L 592.624251 72.187699 
L 593.236164 72.187699 
L 593.236164 73.045683 
L 593.848077 73.045683 
L 593.848077 71.612384 
L 594.45999 71.612384 
L 594.45999 71.918265 
L 595.683816 71.956952 
L 595.683816 71.088145 
L 596.295729 71.088145 
L 596.295729 69.064059 
L 596.907642 69.064059 
L 596.907642 67.220928 
L 597.519554 67.220928 
L 597.519554 67.914513 
L 598.131467 67.914513 
L 598.131467 69.645149 
L 598.74338 69.645149 
L 598.74338 69.890231 
L 599.355293 69.890231 
L 599.355293 65.822697 
L 599.967206 65.822697 
L 599.967206 65.341244 
L 600.579119 65.341244 
L 600.579119 64.854934 
L 601.191032 64.854934 
L 601.191032 63.529349 
L 601.802945 63.529349 
L 601.802945 60.919332 
L 602.414858 60.919332 
L 602.414858 58.961311 
L 603.026771 58.961311 
L 603.026771 57.620163 
L 603.638684 57.620163 
L 603.638684 49.684405 
L 604.250597 49.684405 
L 604.250597 52.063763 
L 604.86251 52.063763 
L 604.86251 50.462867 
L 605.474423 50.462867 
L 605.474423 46.845371 
L 606.086336 46.845371 
L 606.086336 49.038676 
L 606.698249 49.038676 
L 606.698249 53.962512 
L 607.922074 54.017412 
L 607.922074 53.30063 
L 608.533987 53.30063 
L 608.533987 53.932728 
L 609.1459 53.932728 
L 609.1459 52.105556 
L 609.757813 52.105556 
L 609.757813 49.317021 
L 610.369726 49.317021 
L 610.369726 52.970379 
L 610.981639 52.970379 
L 610.981639 53.940113 
L 611.593552 53.940113 
L 611.593552 54.307265 
L 612.205465 54.307265 
L 612.205465 58.394893 
L 612.817378 58.394893 
L 612.817378 57.762777 
L 613.429291 57.762777 
L 613.429291 57.98723 
L 614.653117 57.914229 
L 614.653117 60.573077 
L 615.26503 60.573077 
L 615.26503 63.327626 
L 615.876943 63.327626 
L 615.876943 68.526846 
L 616.488856 68.526846 
L 616.488856 64.833452 
L 617.100769 64.833452 
L 617.100769 65.293157 
L 617.712681 65.293157 
L 617.712681 61.896616 
L 618.324594 61.896616 
L 618.324594 58.564204 
L 618.936507 58.564204 
L 618.936507 58.260473 
L 619.54842 58.260473 
L 619.54842 60.387429 
L 620.160333 60.387429 
L 620.160333 60.081191 
L 620.772246 60.081191 
L 620.772246 58.861814 
L 621.384159 58.861814 
L 621.384159 57.756506 
L 621.996072 57.756506 
L 621.996072 60.916215 
L 622.607985 60.916215 
L 622.607985 63.508663 
L 623.219898 63.508663 
L 623.219898 62.620026 
L 623.831811 62.620026 
L 623.831811 64.69825 
L 624.443724 64.69825 
L 624.443724 63.927084 
L 625.055637 63.927084 
L 625.055637 63.634491 
L 625.66755 63.634491 
L 625.66755 64.293641 
L 626.279463 64.293641 
L 626.279463 65.603589 
L 626.891376 65.603589 
L 626.891376 68.489879 
L 627.503288 68.489879 
L 627.503288 67.047738 
L 628.115201 67.047738 
L 628.115201 69.43518 
L 628.727114 69.43518 
L 628.727114 68.962592 
L 629.339027 68.962592 
L 629.339027 65.627974 
L 629.95094 65.627974 
L 629.95094 64.519827 
L 630.562853 64.519827 
L 630.562853 65.011724 
L 631.174766 65.011724 
L 631.174766 63.142171 
L 631.786679 63.142171 
L 631.786679 61.483766 
L 632.398592 61.483766 
L 632.398592 63.147032 
L 633.010505 63.147032 
L 633.010505 62.421975 
L 633.622418 62.421975 
L 633.622418 61.275967 
L 634.234331 61.275967 
L 634.234331 61.542323 
L 634.846244 61.542323 
L 634.846244 62.260281 
L 635.458157 62.260281 
L 635.458157 64.279725 
L 636.681983 64.260868 
L 636.681983 64.848867 
L 637.293895 64.848867 
L 637.293895 64.447752 
L 637.905808 64.447752 
L 637.905808 66.623444 
L 638.517721 66.623444 
L 638.517721 67.282627 
L 639.129634 67.282627 
L 639.129634 67.161416 
L 639.741547 67.161416 
L 639.741547 66.455413 
L 641.577286 66.51539 
L 641.577286 68.668432 
L 642.189199 68.668432 
L 642.189199 69.426468 
L 642.801112 69.426468 
L 642.801112 70.046818 
L 643.413025 70.046818 
L 643.413025 69.036321 
L 644.024938 69.036321 
L 644.024938 70.971242 
L 644.636851 70.971242 
L 644.636851 71.223262 
L 645.248764 71.223262 
L 645.248764 70.790742 
L 645.860677 70.790742 
L 645.860677 69.461496 
L 646.47259 69.461496 
L 646.47259 69.68939 
L 647.084502 69.68939 
L 647.084502 69.151869 
L 647.696415 69.151869 
L 647.696415 70.187269 
L 648.308328 70.187269 
L 648.308328 70.703946 
L 648.920241 70.703946 
L 648.920241 67.348872 
L 650.144067 67.310237 
L 650.144067 66.240342 
L 650.75598 66.240342 
L 650.75598 65.632374 
L 651.367893 65.632374 
L 651.367893 64.89562 
L 651.979806 64.89562 
L 651.979806 66.537202 
L 652.591719 66.537202 
L 652.591719 68.266043 
L 653.203632 68.266043 
L 653.203632 69.170174 
L 653.815545 69.170174 
L 653.815545 71.079623 
L 654.427458 71.079623 
L 654.427458 70.692799 
L 655.039371 70.692799 
L 655.039371 70.488466 
L 655.651284 70.488466 
L 655.651284 69.913234 
L 656.263197 69.913234 
L 656.263197 70.348642 
L 656.875109 70.348642 
L 656.875109 69.107101 
L 657.487022 69.107101 
L 657.487022 68.064912 
L 658.098935 68.064912 
L 658.098935 68.243403 
L 658.710848 68.243403 
L 658.710848 67.513037 
L 659.322761 67.513037 
L 659.322761 69.865591 
L 659.934674 69.865591 
L 659.934674 70.730598 
L 660.546587 70.730598 
L 660.546587 70.443931 
L 661.1585 70.443931 
L 661.1585 69.796649 
L 661.770413 69.796649 
L 661.770413 70.38927 
L 662.382326 70.38927 
L 662.382326 69.051078 
L 662.994239 69.051078 
L 662.994239 69.599328 
L 663.606152 69.599328 
L 663.606152 69.271756 
L 664.218065 69.271756 
L 664.218065 69.510832 
L 664.829978 69.510832 
L 664.829978 69.92254 
L 665.441891 69.92254 
L 665.441891 69.63097 
L 666.053804 69.63097 
L 666.053804 69.460186 
L 666.665717 69.460186 
L 666.665717 70.710182 
L 667.277629 70.710182 
L 667.277629 69.548823 
L 667.889542 69.548823 
L 667.889542 69.838183 
L 669.725281 69.902822 
L 669.725281 70.009333 
L 670.337194 70.009333 
L 670.337194 70.525868 
L 670.949107 70.525868 
L 670.949107 70.22951 
L 671.56102 70.22951 
L 671.56102 70.073215 
L 673.396759 70.169583 
L 673.396759 72.440806 
L 674.008672 72.440806 
L 674.008672 73.129955 
L 674.620585 73.129955 
L 674.620585 77.69427 
L 675.232498 77.69427 
L 675.232498 78.359901 
L 675.844411 78.359901 
L 675.844411 81.273987 
L 676.456324 81.273987 
L 676.456324 78.724028 
L 677.068236 78.724028 
L 677.068236 79.419135 
L 677.680149 79.419135 
L 677.680149 81.545747 
L 678.292062 81.545747 
L 678.292062 83.260635 
L 678.903975 83.260635 
L 678.903975 83.546943 
L 679.515888 83.546943 
L 679.515888 84.597165 
L 680.127801 84.597165 
L 680.127801 82.639036 
L 680.739714 82.639036 
L 680.739714 79.446822 
L 681.351627 79.446822 
L 681.351627 80.176283 
L 681.96354 80.176283 
L 681.96354 80.969926 
L 682.575453 80.969926 
L 682.575453 81.402718 
L 683.187366 81.402718 
L 683.187366 80.927761 
L 684.411192 80.923698 
L 684.411192 79.980648 
L 685.023105 79.980648 
L 685.023105 82.111513 
L 685.635018 82.111513 
L 685.635018 82.785898 
L 686.246931 82.785898 
L 686.246931 82.256153 
L 686.858843 82.256153 
L 686.858843 81.778863 
L 687.470756 81.778863 
L 687.470756 82.456378 
L 688.694582 82.512887 
L 688.694582 83.291807 
L 690.530321 83.24617 
L 690.530321 83.556765 
L 691.142234 83.556765 
L 691.142234 82.006481 
L 691.754147 82.006481 
L 691.754147 82.191986 
L 692.36606 82.191986 
L 692.36606 82.333656 
L 692.977973 82.333656 
L 692.977973 80.628272 
L 693.589886 80.628272 
L 693.589886 80.444535 
L 694.201799 80.444535 
L 694.201799 81.422216 
L 694.813712 81.422216 
L 694.813712 81.05252 
L 696.037538 81.062411 
L 696.037538 80.838049 
L 698.485189 80.767292 
L 698.485189 80.177608 
L 699.097102 80.177608 
L 699.097102 79.854197 
L 699.709015 79.854197 
L 699.709015 80.087686 
L 700.320928 80.087686 
L 700.320928 80.429188 
L 700.932841 80.429188 
L 700.932841 79.547637 
L 701.544754 79.547637 
L 701.544754 79.358209 
L 702.156667 79.358209 
L 702.156667 75.804653 
L 702.76858 75.804653 
L 702.76858 74.638061 
L 703.380493 74.638061 
L 703.380493 74.150804 
L 703.992406 74.150804 
L 703.992406 75.153428 
L 704.604319 75.153428 
L 704.604319 74.608455 
L 705.216232 74.608455 
L 705.216232 74.283376 
L 705.828145 74.283376 
L 705.828145 73.88525 
L 706.440057 73.88525 
L 706.440057 74.612694 
L 707.05197 74.612694 
L 707.05197 74.186286 
L 708.275796 74.085146 
L 708.275796 72.388232 
L 709.499622 72.444668 
L 709.499622 70.370481 
L 710.111535 70.370481 
L 710.111535 65.945934 
L 710.723448 65.945934 
L 710.723448 65.776487 
L 711.335361 65.776487 
L 711.335361 64.965826 
L 711.947274 64.965826 
L 711.947274 66.486519 
L 712.559187 66.486519 
L 712.559187 65.284156 
L 713.1711 65.284156 
L 713.1711 63.647819 
L 713.783013 63.647819 
L 713.783013 64.05501 
L 714.394926 64.05501 
L 714.394926 65.118288 
L 715.006839 65.118288 
L 715.006839 65.999816 
L 715.618752 65.999816 
L 715.618752 66.445794 
L 716.230665 66.445794 
L 716.230665 65.019237 
L 716.842577 65.019237 
L 716.842577 63.311509 
L 717.45449 63.311509 
L 717.45449 62.799755 
L 718.066403 62.799755 
L 718.066403 60.308296 
L 718.678316 60.308296 
L 718.678316 58.695132 
L 719.290229 58.695132 
L 719.290229 58.474576 
L 719.902142 58.474576 
L 719.902142 59.239811 
L 720.514055 59.239811 
L 720.514055 56.913132 
L 721.125968 56.913132 
L 721.125968 58.286738 
L 721.737881 58.286738 
L 721.737881 55.875259 
L 722.349794 55.875259 
L 722.349794 57.23501 
L 722.961707 57.23501 
L 722.961707 58.973733 
L 723.57362 58.973733 
L 723.57362 59.436296 
L 724.797446 59.538357 
L 724.797446 61.235145 
L 725.409359 61.235145 
L 725.409359 61.891363 
L 726.021272 61.891363 
L 726.021272 61.635554 
L 726.633184 61.635554 
L 726.633184 59.654402 
L 727.245097 59.654402 
L 727.245097 57.263697 
L 727.85701 57.263697 
L 727.85701 56.892558 
L 728.468923 56.892558 
L 728.468923 57.66475 
L 729.080836 57.66475 
L 729.080836 60.711222 
L 729.692749 60.711222 
L 729.692749 60.297637 
L 730.304662 60.297637 
L 730.304662 59.194835 
L 730.916575 59.194835 
L 730.916575 59.904732 
L 732.140401 59.997591 
L 732.140401 61.867772 
L 732.752314 61.867772 
L 732.752314 61.240303 
L 733.364227 61.240303 
L 733.364227 59.544858 
L 733.97614 59.544858 
L 733.97614 59.739724 
L 734.588053 59.739724 
L 734.588053 60.534236 
L 735.199966 60.534236 
L 735.199966 59.990193 
L 735.811879 59.990193 
L 735.811879 60.191943 
L 737.035704 60.170809 
L 737.035704 60.677234 
L 737.647617 60.677234 
L 737.647617 64.358159 
L 738.25953 64.358159 
L 738.25953 64.885087 
L 738.871443 64.885087 
L 738.871443 64.634469 
L 739.483356 64.634469 
L 739.483356 65.064835 
L 740.095269 65.064835 
L 740.095269 64.918532 
L 740.707182 64.918532 
L 740.707182 63.973249 
L 741.319095 63.973249 
L 741.319095 64.73434 
L 741.931008 64.73434 
L 741.931008 65.465804 
L 742.542921 65.465804 
L 742.542921 65.578487 
L 743.154834 65.578487 
L 743.154834 65.401731 
L 743.766747 65.401731 
L 743.766747 63.777142 
L 744.37866 63.777142 
L 744.37866 62.469678 
L 744.990573 62.469678 
L 744.990573 62.632892 
L 745.602486 62.632892 
L 745.602486 62.498641 
L 746.214398 62.498641 
L 746.214398 62.185424 
L 746.826311 62.185424 
L 746.826311 63.431504 
L 748.050137 63.450479 
L 748.050137 64.294317 
L 748.66205 64.294317 
L 748.66205 65.011646 
L 749.273963 65.011646 
L 749.273963 66.511136 
L 749.885876 66.511136 
L 749.885876 68.58214 
L 750.497789 68.58214 
L 750.497789 66.771953 
L 751.721615 66.676782 
L 751.721615 67.420868 
L 752.333528 67.420868 
L 752.333528 66.706307 
L 752.945441 66.706307 
L 752.945441 67.303223 
L 753.557354 67.303223 
L 753.557354 67.735492 
L 754.169267 67.735492 
L 754.169267 67.966563 
L 754.78118 67.966563 
L 754.78118 67.457117 
L 755.393093 67.457117 
L 755.393093 67.871306 
L 756.005005 67.871306 
L 756.005005 67.555022 
L 757.840744 67.646018 
L 757.840744 68.469224 
L 758.452657 68.469224 
L 758.452657 67.262425 
L 759.06457 67.262425 
L 759.06457 65.359851 
L 760.288396 65.415639 
L 760.288396 63.352302 
L 760.900309 63.352302 
L 760.900309 63.214045 
L 761.512222 63.214045 
L 761.512222 63.875889 
L 762.124135 63.875889 
L 762.124135 64.469251 
L 762.736048 64.469251 
L 762.736048 63.969501 
L 763.347961 63.969501 
L 763.347961 62.329903 
L 763.959874 62.329903 
L 763.959874 62.106811 
L 764.571787 62.106811 
L 764.571787 62.60014 
L 765.1837 62.60014 
L 765.1837 61.158637 
L 766.407525 61.056861 
L 766.407525 60.239855 
L 767.019438 60.239855 
L 767.019438 60.879511 
L 767.631351 60.879511 
L 767.631351 61.601153 
L 768.243264 61.601153 
L 768.243264 61.458523 
L 768.855177 61.458523 
L 768.855177 62.263056 
L 769.46709 62.263056 
L 769.46709 63.666114 
L 770.079003 63.666114 
L 770.079003 63.184373 
L 770.690916 63.184373 
L 770.690916 62.820273 
L 771.302829 62.820273 
L 771.302829 65.368463 
L 771.914742 65.368463 
L 771.914742 65.640804 
L 772.526655 65.640804 
L 772.526655 74.732658 
L 773.138568 74.732658 
L 773.138568 73.9625 
L 773.750481 73.9625 
L 773.750481 70.779992 
L 774.362394 70.779992 
L 774.362394 69.862432 
L 774.974307 69.862432 
L 774.974307 69.027177 
L 775.58622 69.027177 
L 775.58622 71.972814 
L 776.198132 71.972814 
L 776.198132 69.377201 
L 776.810045 69.377201 
L 776.810045 68.691902 
L 777.421958 68.691902 
L 777.421958 67.687269 
L 778.033871 67.687269 
L 778.033871 68.687126 
L 779.257697 68.735182 
L 779.257697 67.963198 
L 781.093436 67.907534 
L 781.093436 66.69977 
L 781.705349 66.69977 
L 781.705349 66.102918 
L 782.317262 66.102918 
L 782.317262 63.394877 
L 782.929175 63.394877 
L 782.929175 63.248358 
L 783.541088 63.248358 
L 783.541088 60.741855 
L 784.153001 60.741855 
L 784.153001 63.564008 
L 784.764914 63.564008 
L 784.764914 62.270382 
L 785.376827 62.270382 
L 785.376827 62.089634 
L 785.988739 62.089634 
L 785.988739 61.205759 
L 786.600652 61.205759 
L 786.600652 62.588309 
L 787.212565 62.588309 
L 787.212565 63.215663 
L 787.824478 63.215663 
L 787.824478 61.67959 
L 788.436391 61.67959 
L 788.436391 61.943171 
L 789.048304 61.943171 
L 789.048304 61.48392 
L 790.27213 61.456771 
L 790.27213 61.228688 
L 790.884043 61.228688 
L 790.884043 61.922724 
L 792.107869 61.99733 
L 792.107869 62.10243 
L 792.719782 62.10243 
L 792.719782 62.318565 
L 793.943608 62.337275 
L 793.943608 62.968295 
L 794.555521 62.968295 
L 794.555521 62.665348 
L 795.167434 62.665348 
L 795.167434 62.808529 
L 795.779346 62.808529 
L 795.779346 62.172803 
L 796.391259 62.172803 
L 796.391259 62.425436 
L 797.003172 62.425436 
L 797.003172 62.293218 
L 797.615085 62.293218 
L 797.615085 62.527759 
L 798.838911 62.571107 
L 798.838911 62.073936 
L 799.450824 62.073936 
L 799.450824 61.719305 
L 800.062737 61.719305 
L 800.062737 58.647327 
L 800.67465 58.647327 
L 800.67465 58.50869 
L 801.898476 58.579606 
L 801.898476 57.331549 
L 803.122302 57.300358 
L 803.122302 57.986487 
L 803.734215 57.986487 
L 803.734215 57.28816 
L 804.346128 57.28816 
L 804.346128 56.374139 
L 804.958041 56.374139 
L 804.958041 57.124341 
L 805.569953 57.124341 
L 805.569953 57.507559 
L 806.181866 57.507559 
L 806.181866 57.847645 
L 807.405692 57.821309 
L 807.405692 57.022096 
L 808.017605 57.022096 
L 808.017605 59.778772 
L 808.629518 59.778772 
L 808.629518 59.982348 
L 810.465257 60.057995 
L 810.465257 58.828306 
L 811.07717 58.828306 
L 811.07717 58.57261 
L 811.689083 58.57261 
L 811.689083 59.649033 
L 812.300996 59.649033 
L 812.300996 59.328525 
L 813.524822 59.329535 
L 813.524822 59.474788 
L 815.36056 59.372219 
L 815.36056 58.153993 
L 815.972473 58.153993 
L 815.972473 57.920028 
L 816.584386 57.920028 
L 816.584386 58.107393 
L 817.196299 58.107393 
L 817.196299 57.317352 
L 817.808212 57.317352 
L 817.808212 55.207106 
L 819.032038 55.131406 
L 819.032038 54.72561 
L 819.643951 54.72561 
L 819.643951 53.910759 
L 820.255864 53.910759 
L 820.255864 53.586661 
L 820.867777 53.586661 
L 820.867777 51.336076 
L 821.47969 51.336076 
L 821.47969 51.702085 
L 822.091603 51.702085 
L 822.091603 50.406575 
L 822.703516 50.406575 
L 822.703516 50.83638 
L 823.315429 50.83638 
L 823.315429 48.538448 
L 823.927342 48.538448 
L 823.927342 47.492368 
L 824.539255 47.492368 
L 824.539255 46.963643 
L 825.151168 46.963643 
L 825.151168 49.338114 
L 825.76308 49.338114 
L 825.76308 46.37845 
L 826.374993 46.37845 
L 826.374993 46.654418 
L 827.598819 46.738267 
L 827.598819 47.657896 
L 828.210732 47.657896 
L 828.210732 47.37527 
L 828.822645 47.37527 
L 828.822645 46.670523 
L 829.434558 46.670523 
L 829.434558 42.970844 
L 830.046471 42.970844 
L 830.046471 43.344868 
L 830.658384 43.344868 
L 830.658384 42.460471 
L 831.270297 42.460471 
L 831.270297 40.313082 
L 831.88221 40.313082 
L 831.88221 38.305518 
L 832.494123 38.305518 
L 832.494123 35.986994 
L 833.106036 35.986994 
L 833.106036 34.803098 
L 833.717949 34.803098 
L 833.717949 31.038712 
L 834.329862 31.038712 
L 834.329862 33.891131 
L 834.941775 33.891131 
L 834.941775 31.840871 
L 835.553687 31.840871 
L 835.553687 33.743855 
L 836.1656 33.743855 
L 836.1656 33.894682 
L 836.777513 33.894682 
L 836.777513 36.050046 
L 837.389426 36.050046 
L 837.389426 35.760409 
L 838.001339 35.760409 
L 838.001339 34.637314 
L 838.613252 34.637314 
L 838.613252 35.131403 
L 839.225165 35.131403 
L 839.225165 33.040342 
L 839.837078 33.040342 
L 839.837078 31.965819 
L 840.448991 31.965819 
L 840.448991 28.953814 
L 841.060904 28.953814 
L 841.060904 27.892279 
L 841.672817 27.892279 
L 841.672817 27.024005 
L 842.28473 27.024005 
L 842.28473 24.296989 
L 842.896643 24.296989 
L 842.896643 24.987184 
L 843.508556 24.987184 
L 843.508556 28.065668 
L 844.120469 28.065668 
L 844.120469 28.842864 
L 844.732382 28.842864 
L 844.732382 26.463908 
L 845.344294 26.463908 
L 845.344294 27.144318 
L 845.956207 27.144318 
L 845.956207 24.692621 
L 846.56812 24.692621 
L 846.56812 23.796691 
L 847.180033 23.796691 
L 847.180033 24.358346 
L 847.791946 24.358346 
L 847.791946 23.644623 
L 849.015772 23.738373 
L 849.015772 25.628754 
L 849.627685 25.628754 
L 849.627685 24.316907 
L 850.239598 24.316907 
L 850.239598 23.257376 
L 851.463424 23.149054 
L 851.463424 23.140884 
L 852.075337 23.140884 
L 852.075337 23.504555 
L 852.68725 23.504555 
L 852.68725 22.816783 
L 853.299163 22.816783 
L 853.299163 21.781571 
L 853.911076 21.781571 
L 853.911076 22.773666 
L 854.522989 22.773666 
L 854.522989 24.074191 
L 855.134901 24.074191 
L 855.134901 26.182433 
L 855.746814 26.182433 
L 855.746814 25.01332 
L 856.358727 25.01332 
L 856.358727 25.199228 
L 856.97064 25.199228 
L 856.97064 24.035796 
L 857.582553 24.035796 
L 857.582553 23.715494 
L 858.194466 23.715494 
L 858.194466 23.185859 
L 858.806379 23.185859 
L 858.806379 23.983662 
L 859.418292 23.983662 
L 859.418292 26.698106 
L 860.030205 26.698106 
L 860.030205 29.567513 
L 860.642118 29.567513 
L 860.642118 30.979401 
L 861.254031 30.979401 
L 861.254031 34.367334 
L 861.865944 34.367334 
L 861.865944 31.782778 
L 862.477857 31.782778 
L 862.477857 34.432551 
L 863.08977 34.432551 
L 863.08977 33.235506 
L 863.701683 33.235506 
L 863.701683 33.107166 
L 864.313596 33.107166 
L 864.313596 35.136476 
L 864.925508 35.136476 
L 864.925508 33.211301 
L 865.537421 33.211301 
L 865.537421 31.890491 
L 866.149334 31.890491 
L 866.149334 32.296535 
L 866.761247 32.296535 
L 866.761247 33.903509 
L 867.37316 33.903509 
L 867.37316 35.821804 
L 867.985073 35.821804 
L 867.985073 36.355142 
L 868.596986 36.355142 
L 868.596986 34.549611 
L 869.208899 34.549611 
L 869.208899 35.122574 
L 869.820812 35.122574 
L 869.820812 34.031984 
L 870.432725 34.031984 
L 870.432725 34.932635 
L 871.044638 34.932635 
L 871.044638 35.136034 
L 871.656551 35.136034 
L 871.656551 35.666417 
L 872.268464 35.666417 
L 872.268464 36.502445 
L 872.880377 36.502445 
L 872.880377 36.914372 
L 873.49229 36.914372 
L 873.49229 35.919728 
L 874.104203 35.919728 
L 874.104203 33.998485 
L 874.716116 33.998485 
L 874.716116 31.389267 
L 875.328028 31.389267 
L 875.328028 30.530016 
L 875.939941 30.530016 
L 875.939941 32.400042 
L 876.551854 32.400042 
L 876.551854 29.945015 
L 877.163767 29.945015 
L 877.163767 28.278019 
L 877.77568 28.278019 
L 877.77568 29.172176 
L 878.387593 29.172176 
L 878.387593 27.950153 
L 878.999506 27.950153 
L 878.999506 29.001199 
L 879.611419 29.001199 
L 879.611419 27.122482 
L 880.223332 27.122482 
L 880.223332 27.642707 
L 880.835245 27.642707 
L 880.835245 27.068524 
L 881.447158 27.068524 
L 881.447158 27.941892 
L 882.059071 27.941892 
L 882.059071 26.95137 
L 882.670984 26.95137 
L 882.670984 25.928975 
L 883.282897 25.928975 
L 883.282897 28.394922 
L 883.89481 28.394922 
L 883.89481 28.828378 
L 884.506723 28.828378 
L 884.506723 27.943084 
L 885.730548 27.857118 
L 885.730548 29.907661 
L 886.342461 29.907661 
L 886.342461 28.948723 
L 886.954374 28.948723 
L 886.954374 29.964981 
L 887.194182 29.964981 
L 887.194182 29.964981 
" style="fill:none;stroke:#3572c6;stroke-linecap:square;stroke-width:1.2;"/>
   </g>
   <g id="line2d_74">
    <path clip-path="url(#pece6e4201b)" d="M 75.557818 21.781571 
L 887.194182 21.781571 
L 887.194182 21.781571 
" style="fill:none;stroke:#83a83b;stroke-linecap:square;stroke-width:1.2;"/>
   </g>
   <g id="line2d_75">
    <path clip-path="url(#pece6e4201b)" d="M 75.557818 36.914372 
L 887.194182 36.914372 
L 887.194182 36.914372 
" style="fill:none;stroke:#c44e52;stroke-linecap:square;stroke-width:1.2;"/>
   </g>
   <g id="line2d_76">
    <path clip-path="url(#pece6e4201b)" d="M 853.911076 302.188844 
L 853.911076 8.428844 
" style="fill:none;stroke:#83a83b;stroke-linecap:square;stroke-width:1.2;"/>
   </g>
   <g id="line2d_77">
    <path clip-path="url(#pece6e4201b)" d="M 873.49229 302.188844 
L 873.49229 8.428844 
" style="fill:none;stroke:#c44e52;stroke-linecap:square;stroke-width:1.2;"/>
   </g>
   <g id="patch_3">
    <path d="M 34.976 302.188844 
L 34.976 8.428844 
" style="fill:none;stroke:#899ab8;stroke-linecap:square;stroke-linejoin:miter;stroke-width:1.12;"/>
   </g>
   <g id="patch_4">
    <path d="M 927.776 302.188844 
L 927.776 8.428844 
" style="fill:none;stroke:#899ab8;stroke-linecap:square;stroke-linejoin:miter;stroke-width:1.12;"/>
   </g>
   <g id="patch_5">
    <path d="M 34.976 302.188844 
L 927.776 302.188844 
" style="fill:none;stroke:#899ab8;stroke-linecap:square;stroke-linejoin:miter;stroke-width:1.12;"/>
   </g>
   <g id="patch_6">
    <path d="M 34.976 8.428844 
L 927.776 8.428844 
" style="fill:none;stroke:#899ab8;stroke-linecap:square;stroke-linejoin:miter;stroke-width:1.12;"/>
   </g>
   <g id="text_14">
    <!-- 62969.12 -->
    <g style="fill:#83a83b;" transform="translate(224.252662 21.781571)scale(0.132 -0.132)">
     <defs>
      <path d="M 703 97 
L 703 672 
Q 941 559 1184 500 
Q 1428 441 1663 441 
Q 2288 441 2617 861 
Q 2947 1281 2994 2138 
Q 2813 1869 2534 1725 
Q 2256 1581 1919 1581 
Q 1219 1581 811 2004 
Q 403 2428 403 3163 
Q 403 3881 828 4315 
Q 1253 4750 1959 4750 
Q 2769 4750 3195 4129 
Q 3622 3509 3622 2328 
Q 3622 1225 3098 567 
Q 2575 -91 1691 -91 
Q 1453 -91 1209 -44 
Q 966 3 703 97 
z
M 1959 2075 
Q 2384 2075 2632 2365 
Q 2881 2656 2881 3163 
Q 2881 3666 2632 3958 
Q 2384 4250 1959 4250 
Q 1534 4250 1286 3958 
Q 1038 3666 1038 3163 
Q 1038 2656 1286 2365 
Q 1534 2075 1959 2075 
z
" id="DejaVuSans-39" transform="scale(0.015625)"/>
      <path d="M 684 794 
L 1344 794 
L 1344 0 
L 684 0 
L 684 794 
z
" id="DejaVuSans-2e" transform="scale(0.015625)"/>
     </defs>
     <use xlink:href="#DejaVuSans-36"/>
     <use x="63.623047" xlink:href="#DejaVuSans-32"/>
     <use x="127.246094" xlink:href="#DejaVuSans-39"/>
     <use x="190.869141" xlink:href="#DejaVuSans-36"/>
     <use x="254.492188" xlink:href="#DejaVuSans-39"/>
     <use x="318.115234" xlink:href="#DejaVuSans-2e"/>
     <use x="349.902344" xlink:href="#DejaVuSans-31"/>
     <use x="413.525391" xlink:href="#DejaVuSans-32"/>
    </g>
   </g>
   <g id="text_15">
    <!-- 30815.94 -->
    <g style="fill:#c44e52;" transform="translate(224.252662 36.914372)scale(0.132 -0.132)">
     <use xlink:href="#DejaVuSans-33"/>
     <use x="63.623047" xlink:href="#DejaVuSans-30"/>
     <use x="127.246094" xlink:href="#DejaVuSans-38"/>
     <use x="190.869141" xlink:href="#DejaVuSans-31"/>
     <use x="254.492188" xlink:href="#DejaVuSans-35"/>
     <use x="318.115234" xlink:href="#DejaVuSans-2e"/>
     <use x="349.902344" xlink:href="#DejaVuSans-39"/>
     <use x="413.525391" xlink:href="#DejaVuSans-34"/>
    </g>
   </g>
   <g id="legend_1">
    <g id="patch_7">
     <path d="M 432.207453 295.888844 
L 530.544547 295.888844 
Q 533.064547 295.888844 533.064547 293.368844 
L 533.064547 238.795094 
Q 533.064547 236.275094 530.544547 236.275094 
L 432.207453 236.275094 
Q 429.687453 236.275094 429.687453 238.795094 
L 429.687453 293.368844 
Q 429.687453 295.888844 432.207453 295.888844 
z
" style="fill:#373e4b;opacity:0.8;stroke:#cccccc;stroke-linejoin:miter;stroke-width:0.16;"/>
    </g>
    <g id="line2d_78">
     <path d="M 434.727453 246.479125 
L 459.927453 246.479125 
" style="fill:none;stroke:#3572c6;stroke-linecap:square;stroke-width:1.2;"/>
    </g>
    <g id="line2d_79"/>
    <g id="text_16">
     <!-- USD/BTC -->
     <g style="fill:#b1bed6;" transform="translate(470.007453 250.889125)scale(0.126 -0.126)">
      <defs>
       <path d="M 556 4666 
L 1191 4666 
L 1191 1831 
Q 1191 1081 1462 751 
Q 1734 422 2344 422 
Q 2950 422 3222 751 
Q 3494 1081 3494 1831 
L 3494 4666 
L 4128 4666 
L 4128 1753 
Q 4128 841 3676 375 
Q 3225 -91 2344 -91 
Q 1459 -91 1007 375 
Q 556 841 556 1753 
L 556 4666 
z
" id="DejaVuSans-55" transform="scale(0.015625)"/>
       <path d="M 3425 4513 
L 3425 3897 
Q 3066 4069 2747 4153 
Q 2428 4238 2131 4238 
Q 1616 4238 1336 4038 
Q 1056 3838 1056 3469 
Q 1056 3159 1242 3001 
Q 1428 2844 1947 2747 
L 2328 2669 
Q 3034 2534 3370 2195 
Q 3706 1856 3706 1288 
Q 3706 609 3251 259 
Q 2797 -91 1919 -91 
Q 1588 -91 1214 -16 
Q 841 59 441 206 
L 441 856 
Q 825 641 1194 531 
Q 1563 422 1919 422 
Q 2459 422 2753 634 
Q 3047 847 3047 1241 
Q 3047 1584 2836 1778 
Q 2625 1972 2144 2069 
L 1759 2144 
Q 1053 2284 737 2584 
Q 422 2884 422 3419 
Q 422 4038 858 4394 
Q 1294 4750 2059 4750 
Q 2388 4750 2728 4690 
Q 3069 4631 3425 4513 
z
" id="DejaVuSans-53" transform="scale(0.015625)"/>
       <path d="M 1625 4666 
L 2156 4666 
L 531 -594 
L 0 -594 
L 1625 4666 
z
" id="DejaVuSans-2f" transform="scale(0.015625)"/>
       <path d="M 1259 2228 
L 1259 519 
L 2272 519 
Q 2781 519 3026 730 
Q 3272 941 3272 1375 
Q 3272 1813 3026 2020 
Q 2781 2228 2272 2228 
L 1259 2228 
z
M 1259 4147 
L 1259 2741 
L 2194 2741 
Q 2656 2741 2882 2914 
Q 3109 3088 3109 3444 
Q 3109 3797 2882 3972 
Q 2656 4147 2194 4147 
L 1259 4147 
z
M 628 4666 
L 2241 4666 
Q 2963 4666 3353 4366 
Q 3744 4066 3744 3513 
Q 3744 3084 3544 2831 
Q 3344 2578 2956 2516 
Q 3422 2416 3680 2098 
Q 3938 1781 3938 1306 
Q 3938 681 3513 340 
Q 3088 0 2303 0 
L 628 0 
L 628 4666 
z
" id="DejaVuSans-42" transform="scale(0.015625)"/>
       <path d="M -19 4666 
L 3928 4666 
L 3928 4134 
L 2272 4134 
L 2272 0 
L 1638 0 
L 1638 4134 
L -19 4134 
L -19 4666 
z
" id="DejaVuSans-54" transform="scale(0.015625)"/>
       <path d="M 4122 4306 
L 4122 3641 
Q 3803 3938 3442 4084 
Q 3081 4231 2675 4231 
Q 1875 4231 1450 3742 
Q 1025 3253 1025 2328 
Q 1025 1406 1450 917 
Q 1875 428 2675 428 
Q 3081 428 3442 575 
Q 3803 722 4122 1019 
L 4122 359 
Q 3791 134 3420 21 
Q 3050 -91 2638 -91 
Q 1578 -91 968 557 
Q 359 1206 359 2328 
Q 359 3453 968 4101 
Q 1578 4750 2638 4750 
Q 3056 4750 3426 4639 
Q 3797 4528 4122 4306 
z
" id="DejaVuSans-43" transform="scale(0.015625)"/>
      </defs>
      <use xlink:href="#DejaVuSans-55"/>
      <use x="73.193359" xlink:href="#DejaVuSans-53"/>
      <use x="136.669922" xlink:href="#DejaVuSans-44"/>
      <use x="213.671875" xlink:href="#DejaVuSans-2f"/>
      <use x="247.363281" xlink:href="#DejaVuSans-42"/>
      <use x="315.966797" xlink:href="#DejaVuSans-54"/>
      <use x="371.175781" xlink:href="#DejaVuSans-43"/>
     </g>
    </g>
    <g id="line2d_80">
     <path d="M 434.727453 264.973562 
L 459.927453 264.973562 
" style="fill:none;stroke:#83a83b;stroke-linecap:square;stroke-width:1.2;"/>
    </g>
    <g id="line2d_81"/>
    <g id="text_17">
     <!-- Max -->
     <g style="fill:#b1bed6;" transform="translate(470.007453 269.383562)scale(0.126 -0.126)">
      <defs>
       <path d="M 628 4666 
L 1569 4666 
L 2759 1491 
L 3956 4666 
L 4897 4666 
L 4897 0 
L 4281 0 
L 4281 4097 
L 3078 897 
L 2444 897 
L 1241 4097 
L 1241 0 
L 628 0 
L 628 4666 
z
" id="DejaVuSans-4d" transform="scale(0.015625)"/>
       <path d="M 3513 3500 
L 2247 1797 
L 3578 0 
L 2900 0 
L 1881 1375 
L 863 0 
L 184 0 
L 1544 1831 
L 300 3500 
L 978 3500 
L 1906 2253 
L 2834 3500 
L 3513 3500 
z
" id="DejaVuSans-78" transform="scale(0.015625)"/>
      </defs>
      <use xlink:href="#DejaVuSans-4d"/>
      <use x="86.279297" xlink:href="#DejaVuSans-61"/>
      <use x="147.558594" xlink:href="#DejaVuSans-78"/>
     </g>
    </g>
    <g id="line2d_82">
     <path d="M 434.727453 283.468 
L 459.927453 283.468 
" style="fill:none;stroke:#c44e52;stroke-linecap:square;stroke-width:1.2;"/>
    </g>
    <g id="line2d_83"/>
    <g id="text_18">
     <!-- local_Min -->
     <g style="fill:#b1bed6;" transform="translate(470.007453 287.878)scale(0.126 -0.126)">
      <defs>
       <path d="M 603 4863 
L 1178 4863 
L 1178 0 
L 603 0 
L 603 4863 
z
" id="DejaVuSans-6c" transform="scale(0.015625)"/>
       <path d="M 1959 3097 
Q 1497 3097 1228 2736 
Q 959 2375 959 1747 
Q 959 1119 1226 758 
Q 1494 397 1959 397 
Q 2419 397 2687 759 
Q 2956 1122 2956 1747 
Q 2956 2369 2687 2733 
Q 2419 3097 1959 3097 
z
M 1959 3584 
Q 2709 3584 3137 3096 
Q 3566 2609 3566 1747 
Q 3566 888 3137 398 
Q 2709 -91 1959 -91 
Q 1206 -91 779 398 
Q 353 888 353 1747 
Q 353 2609 779 3096 
Q 1206 3584 1959 3584 
z
" id="DejaVuSans-6f" transform="scale(0.015625)"/>
       <path d="M 3122 3366 
L 3122 2828 
Q 2878 2963 2633 3030 
Q 2388 3097 2138 3097 
Q 1578 3097 1268 2742 
Q 959 2388 959 1747 
Q 959 1106 1268 751 
Q 1578 397 2138 397 
Q 2388 397 2633 464 
Q 2878 531 3122 666 
L 3122 134 
Q 2881 22 2623 -34 
Q 2366 -91 2075 -91 
Q 1284 -91 818 406 
Q 353 903 353 1747 
Q 353 2603 823 3093 
Q 1294 3584 2113 3584 
Q 2378 3584 2631 3529 
Q 2884 3475 3122 3366 
z
" id="DejaVuSans-63" transform="scale(0.015625)"/>
       <path d="M 3263 -1063 
L 3263 -1509 
L -63 -1509 
L -63 -1063 
L 3263 -1063 
z
" id="DejaVuSans-5f" transform="scale(0.015625)"/>
       <path d="M 603 3500 
L 1178 3500 
L 1178 0 
L 603 0 
L 603 3500 
z
M 603 4863 
L 1178 4863 
L 1178 4134 
L 603 4134 
L 603 4863 
z
" id="DejaVuSans-69" transform="scale(0.015625)"/>
       <path d="M 3513 2113 
L 3513 0 
L 2938 0 
L 2938 2094 
Q 2938 2591 2744 2837 
Q 2550 3084 2163 3084 
Q 1697 3084 1428 2787 
Q 1159 2491 1159 1978 
L 1159 0 
L 581 0 
L 581 3500 
L 1159 3500 
L 1159 2956 
Q 1366 3272 1645 3428 
Q 1925 3584 2291 3584 
Q 2894 3584 3203 3211 
Q 3513 2838 3513 2113 
z
" id="DejaVuSans-6e" transform="scale(0.015625)"/>
      </defs>
      <use xlink:href="#DejaVuSans-6c"/>
      <use x="27.783203" xlink:href="#DejaVuSans-6f"/>
      <use x="88.964844" xlink:href="#DejaVuSans-63"/>
      <use x="143.945312" xlink:href="#DejaVuSans-61"/>
      <use x="205.224609" xlink:href="#DejaVuSans-6c"/>
      <use x="233.007812" xlink:href="#DejaVuSans-5f"/>
      <use x="283.007812" xlink:href="#DejaVuSans-4d"/>
      <use x="369.287109" xlink:href="#DejaVuSans-69"/>
      <use x="397.070312" xlink:href="#DejaVuSans-6e"/>
     </g>
    </g>
   </g>
  </g>
 </g>
 <defs>
  <clipPath id="pece6e4201b">
   <rect height="293.76" width="892.8" x="34.976" y="8.428844"/>
  </clipPath>
 </defs>
</svg>
