<?xml version="1.0" encoding="utf-8" standalone="no"?>
<!DOCTYPE svg PUBLIC "-//W3C//DTD SVG 1.1//EN"
  "http://www.w3.org/Graphics/SVG/1.1/DTD/svg11.dtd">
<svg xmlns:xlink="http://www.w3.org/1999/xlink" width="960.9005pt" height="368.580365pt" viewBox="0 0 960.9005 368.580365" xmlns="http://www.w3.org/2000/svg" version="1.1">
 <metadata>
  <rdf:RDF xmlns:dc="http://purl.org/dc/elements/1.1/" xmlns:cc="http://creativecommons.org/ns#" xmlns:rdf="http://www.w3.org/1999/02/22-rdf-syntax-ns#">
   <cc:Work>
    <dc:type rdf:resource="http://purl.org/dc/dcmitype/StillImage"/>
    <dc:date>2026-04-11T16:41:24.741039</dc:date>
    <dc:format>image/svg+xml</dc:format>
    <dc:creator>
     <cc:Agent>
      <dc:title>Matplotlib v3.10.8, https://matplotlib.org/</dc:title>
     </cc:Agent>
    </dc:creator>
   </cc:Work>
  </rdf:RDF>
 </metadata>
 <defs>
  <style type="text/css">*{stroke-linejoin: round; stroke-linecap: butt}</style>
 </defs>
 <g id="figure_1">
  <g id="patch_1">
   <path d="M 0 368.580365 
L 960.9005 368.580365 
L 960.9005 0 
L 0 0 
z
" style="fill: #373e4b"/>
  </g>
  <g id="axes_1">
   <g id="patch_2">
    <path d="M 60.9005 300.96 
L 953.7005 300.96 
L 953.7005 7.2 
L 60.9005 7.2 
z
" style="fill: #373e4b"/>
   </g>
   <g id="matplotlib.axis_1">
    <g id="xtick_1">
     <g id="line2d_1">
      <path d="M 130.02773 300.96 
L 130.02773 7.2 
" clip-path="url(#p747a003d8a)" style="fill: none; stroke: #546379; stroke-width: 1.12; stroke-linecap: square"/>
     </g>
     <g id="line2d_2"/>
     <g id="text_1">
      <!-- 2024-04 -->
      <g style="fill: #b1bed6" transform="translate(83.124456 341.174526) rotate(-30) scale(0.126 -0.126)">
       <defs>
        <path id="DejaVuSans-32" d="M 1228 531 
L 3431 531 
L 3431 0 
L 469 0 
L 469 531 
Q 828 903 1448 1529 
Q 2069 2156 2228 2338 
Q 2531 2678 2651 2914 
Q 2772 3150 2772 3378 
Q 2772 3750 2511 3984 
Q 2250 4219 1831 4219 
Q 1534 4219 1204 4116 
Q 875 4013 500 3803 
L 500 4441 
Q 881 4594 1212 4672 
Q 1544 4750 1819 4750 
Q 2544 4750 2975 4387 
Q 3406 4025 3406 3419 
Q 3406 3131 3298 2873 
Q 3191 2616 2906 2266 
Q 2828 2175 2409 1742 
Q 1991 1309 1228 531 
z
" transform="scale(0.015625)"/>
        <path id="DejaVuSans-30" d="M 2034 4250 
Q 1547 4250 1301 3770 
Q 1056 3291 1056 2328 
Q 1056 1369 1301 889 
Q 1547 409 2034 409 
Q 2525 409 2770 889 
Q 3016 1369 3016 2328 
Q 3016 3291 2770 3770 
Q 2525 4250 2034 4250 
z
M 2034 4750 
Q 2819 4750 3233 4129 
Q 3647 3509 3647 2328 
Q 3647 1150 3233 529 
Q 2819 -91 2034 -91 
Q 1250 -91 836 529 
Q 422 1150 422 2328 
Q 422 3509 836 4129 
Q 1250 4750 2034 4750 
z
" transform="scale(0.015625)"/>
        <path id="DejaVuSans-34" d="M 2419 4116 
L 825 1625 
L 2419 1625 
L 2419 4116 
z
M 2253 4666 
L 3047 4666 
L 3047 1625 
L 3713 1625 
L 3713 1100 
L 3047 1100 
L 3047 0 
L 2419 0 
L 2419 1100 
L 313 1100 
L 313 1709 
L 2253 4666 
z
" transform="scale(0.015625)"/>
        <path id="DejaVuSans-2d" d="M 313 2009 
L 1997 2009 
L 1997 1497 
L 313 1497 
L 313 2009 
z
" transform="scale(0.015625)"/>
       </defs>
       <use xlink:href="#DejaVuSans-32"/>
       <use xlink:href="#DejaVuSans-30" transform="translate(63.623047 0)"/>
       <use xlink:href="#DejaVuSans-32" transform="translate(127.246094 0)"/>
       <use xlink:href="#DejaVuSans-34" transform="translate(190.869141 0)"/>
       <use xlink:href="#DejaVuSans-2d" transform="translate(254.492188 0)"/>
       <use xlink:href="#DejaVuSans-30" transform="translate(290.576172 0)"/>
       <use xlink:href="#DejaVuSans-34" transform="translate(354.199219 0)"/>
      </g>
     </g>
    </g>
    <g id="xtick_2">
     <g id="line2d_3">
      <path d="M 226.23634 300.96 
L 226.23634 7.2 
" clip-path="url(#p747a003d8a)" style="fill: none; stroke: #546379; stroke-width: 1.12; stroke-linecap: square"/>
     </g>
     <g id="line2d_4"/>
     <g id="text_2">
      <!-- 2024-07 -->
      <g style="fill: #b1bed6" transform="translate(179.333065 341.174526) rotate(-30) scale(0.126 -0.126)">
       <defs>
        <path id="DejaVuSans-37" d="M 525 4666 
L 3525 4666 
L 3525 4397 
L 1831 0 
L 1172 0 
L 2766 4134 
L 525 4134 
L 525 4666 
z
" transform="scale(0.015625)"/>
       </defs>
       <use xlink:href="#DejaVuSans-32"/>
       <use xlink:href="#DejaVuSans-30" transform="translate(63.623047 0)"/>
       <use xlink:href="#DejaVuSans-32" transform="translate(127.246094 0)"/>
       <use xlink:href="#DejaVuSans-34" transform="translate(190.869141 0)"/>
       <use xlink:href="#DejaVuSans-2d" transform="translate(254.492188 0)"/>
       <use xlink:href="#DejaVuSans-30" transform="translate(290.576172 0)"/>
       <use xlink:href="#DejaVuSans-37" transform="translate(354.199219 0)"/>
      </g>
     </g>
    </g>
    <g id="xtick_3">
     <g id="line2d_5">
      <path d="M 323.502187 300.96 
L 323.502187 7.2 
" clip-path="url(#p747a003d8a)" style="fill: none; stroke: #546379; stroke-width: 1.12; stroke-linecap: square"/>
     </g>
     <g id="line2d_6"/>
     <g id="text_3">
      <!-- 2024-10 -->
      <g style="fill: #b1bed6" transform="translate(276.598913 341.174526) rotate(-30) scale(0.126 -0.126)">
       <defs>
        <path id="DejaVuSans-31" d="M 794 531 
L 1825 531 
L 1825 4091 
L 703 3866 
L 703 4441 
L 1819 4666 
L 2450 4666 
L 2450 531 
L 3481 531 
L 3481 0 
L 794 0 
L 794 531 
z
" transform="scale(0.015625)"/>
       </defs>
       <use xlink:href="#DejaVuSans-32"/>
       <use xlink:href="#DejaVuSans-30" transform="translate(63.623047 0)"/>
       <use xlink:href="#DejaVuSans-32" transform="translate(127.246094 0)"/>
       <use xlink:href="#DejaVuSans-34" transform="translate(190.869141 0)"/>
       <use xlink:href="#DejaVuSans-2d" transform="translate(254.492188 0)"/>
       <use xlink:href="#DejaVuSans-31" transform="translate(290.576172 0)"/>
       <use xlink:href="#DejaVuSans-30" transform="translate(354.199219 0)"/>
      </g>
     </g>
    </g>
    <g id="xtick_4">
     <g id="line2d_7">
      <path d="M 420.768034 300.96 
L 420.768034 7.2 
" clip-path="url(#p747a003d8a)" style="fill: none; stroke: #546379; stroke-width: 1.12; stroke-linecap: square"/>
     </g>
     <g id="line2d_8"/>
     <g id="text_4">
      <!-- 2025-01 -->
      <g style="fill: #b1bed6" transform="translate(373.86476 341.174526) rotate(-30) scale(0.126 -0.126)">
       <defs>
        <path id="DejaVuSans-35" d="M 691 4666 
L 3169 4666 
L 3169 4134 
L 1269 4134 
L 1269 2991 
Q 1406 3038 1543 3061 
Q 1681 3084 1819 3084 
Q 2600 3084 3056 2656 
Q 3513 2228 3513 1497 
Q 3513 744 3044 326 
Q 2575 -91 1722 -91 
Q 1428 -91 1123 -41 
Q 819 9 494 109 
L 494 744 
Q 775 591 1075 516 
Q 1375 441 1709 441 
Q 2250 441 2565 725 
Q 2881 1009 2881 1497 
Q 2881 1984 2565 2268 
Q 2250 2553 1709 2553 
Q 1456 2553 1204 2497 
Q 953 2441 691 2322 
L 691 4666 
z
" transform="scale(0.015625)"/>
       </defs>
       <use xlink:href="#DejaVuSans-32"/>
       <use xlink:href="#DejaVuSans-30" transform="translate(63.623047 0)"/>
       <use xlink:href="#DejaVuSans-32" transform="translate(127.246094 0)"/>
       <use xlink:href="#DejaVuSans-35" transform="translate(190.869141 0)"/>
       <use xlink:href="#DejaVuSans-2d" transform="translate(254.492188 0)"/>
       <use xlink:href="#DejaVuSans-30" transform="translate(290.576172 0)"/>
       <use xlink:href="#DejaVuSans-31" transform="translate(354.199219 0)"/>
      </g>
     </g>
    </g>
    <g id="xtick_5">
     <g id="line2d_9">
      <path d="M 515.919406 300.96 
L 515.919406 7.2 
" clip-path="url(#p747a003d8a)" style="fill: none; stroke: #546379; stroke-width: 1.12; stroke-linecap: square"/>
     </g>
     <g id="line2d_10"/>
     <g id="text_5">
      <!-- 2025-04 -->
      <g style="fill: #b1bed6" transform="translate(469.016132 341.174526) rotate(-30) scale(0.126 -0.126)">
       <use xlink:href="#DejaVuSans-32"/>
       <use xlink:href="#DejaVuSans-30" transform="translate(63.623047 0)"/>
       <use xlink:href="#DejaVuSans-32" transform="translate(127.246094 0)"/>
       <use xlink:href="#DejaVuSans-35" transform="translate(190.869141 0)"/>
       <use xlink:href="#DejaVuSans-2d" transform="translate(254.492188 0)"/>
       <use xlink:href="#DejaVuSans-30" transform="translate(290.576172 0)"/>
       <use xlink:href="#DejaVuSans-34" transform="translate(354.199219 0)"/>
      </g>
     </g>
    </g>
    <g id="xtick_6">
     <g id="line2d_11">
      <path d="M 612.128016 300.96 
L 612.128016 7.2 
" clip-path="url(#p747a003d8a)" style="fill: none; stroke: #546379; stroke-width: 1.12; stroke-linecap: square"/>
     </g>
     <g id="line2d_12"/>
     <g id="text_6">
      <!-- 2025-07 -->
      <g style="fill: #b1bed6" transform="translate(565.224742 341.174526) rotate(-30) scale(0.126 -0.126)">
       <use xlink:href="#DejaVuSans-32"/>
       <use xlink:href="#DejaVuSans-30" transform="translate(63.623047 0)"/>
       <use xlink:href="#DejaVuSans-32" transform="translate(127.246094 0)"/>
       <use xlink:href="#DejaVuSans-35" transform="translate(190.869141 0)"/>
       <use xlink:href="#DejaVuSans-2d" transform="translate(254.492188 0)"/>
       <use xlink:href="#DejaVuSans-30" transform="translate(290.576172 0)"/>
       <use xlink:href="#DejaVuSans-37" transform="translate(354.199219 0)"/>
      </g>
     </g>
    </g>
    <g id="xtick_7">
     <g id="line2d_13">
      <path d="M 709.393864 300.96 
L 709.393864 7.2 
" clip-path="url(#p747a003d8a)" style="fill: none; stroke: #546379; stroke-width: 1.12; stroke-linecap: square"/>
     </g>
     <g id="line2d_14"/>
     <g id="text_7">
      <!-- 2025-10 -->
      <g style="fill: #b1bed6" transform="translate(662.490589 341.174526) rotate(-30) scale(0.126 -0.126)">
       <use xlink:href="#DejaVuSans-32"/>
       <use xlink:href="#DejaVuSans-30" transform="translate(63.623047 0)"/>
       <use xlink:href="#DejaVuSans-32" transform="translate(127.246094 0)"/>
       <use xlink:href="#DejaVuSans-35" transform="translate(190.869141 0)"/>
       <use xlink:href="#DejaVuSans-2d" transform="translate(254.492188 0)"/>
       <use xlink:href="#DejaVuSans-31" transform="translate(290.576172 0)"/>
       <use xlink:href="#DejaVuSans-30" transform="translate(354.199219 0)"/>
      </g>
     </g>
    </g>
    <g id="xtick_8">
     <g id="line2d_15">
      <path d="M 806.659711 300.96 
L 806.659711 7.2 
" clip-path="url(#p747a003d8a)" style="fill: none; stroke: #546379; stroke-width: 1.12; stroke-linecap: square"/>
     </g>
     <g id="line2d_16"/>
     <g id="text_8">
      <!-- 2026-01 -->
      <g style="fill: #b1bed6" transform="translate(759.756437 341.174526) rotate(-30) scale(0.126 -0.126)">
       <defs>
        <path id="DejaVuSans-36" d="M 2113 2584 
Q 1688 2584 1439 2293 
Q 1191 2003 1191 1497 
Q 1191 994 1439 701 
Q 1688 409 2113 409 
Q 2538 409 2786 701 
Q 3034 994 3034 1497 
Q 3034 2003 2786 2293 
Q 2538 2584 2113 2584 
z
M 3366 4563 
L 3366 3988 
Q 3128 4100 2886 4159 
Q 2644 4219 2406 4219 
Q 1781 4219 1451 3797 
Q 1122 3375 1075 2522 
Q 1259 2794 1537 2939 
Q 1816 3084 2150 3084 
Q 2853 3084 3261 2657 
Q 3669 2231 3669 1497 
Q 3669 778 3244 343 
Q 2819 -91 2113 -91 
Q 1303 -91 875 529 
Q 447 1150 447 2328 
Q 447 3434 972 4092 
Q 1497 4750 2381 4750 
Q 2619 4750 2861 4703 
Q 3103 4656 3366 4563 
z
" transform="scale(0.015625)"/>
       </defs>
       <use xlink:href="#DejaVuSans-32"/>
       <use xlink:href="#DejaVuSans-30" transform="translate(63.623047 0)"/>
       <use xlink:href="#DejaVuSans-32" transform="translate(127.246094 0)"/>
       <use xlink:href="#DejaVuSans-36" transform="translate(190.869141 0)"/>
       <use xlink:href="#DejaVuSans-2d" transform="translate(254.492188 0)"/>
       <use xlink:href="#DejaVuSans-30" transform="translate(290.576172 0)"/>
       <use xlink:href="#DejaVuSans-31" transform="translate(354.199219 0)"/>
      </g>
     </g>
    </g>
    <g id="xtick_9">
     <g id="line2d_17">
      <path d="M 901.811083 300.96 
L 901.811083 7.2 
" clip-path="url(#p747a003d8a)" style="fill: none; stroke: #546379; stroke-width: 1.12; stroke-linecap: square"/>
     </g>
     <g id="line2d_18"/>
     <g id="text_9">
      <!-- 2026-04 -->
      <g style="fill: #b1bed6" transform="translate(854.907809 341.174526) rotate(-30) scale(0.126 -0.126)">
       <use xlink:href="#DejaVuSans-32"/>
       <use xlink:href="#DejaVuSans-30" transform="translate(63.623047 0)"/>
       <use xlink:href="#DejaVuSans-32" transform="translate(127.246094 0)"/>
       <use xlink:href="#DejaVuSans-36" transform="translate(190.869141 0)"/>
       <use xlink:href="#DejaVuSans-2d" transform="translate(254.492188 0)"/>
       <use xlink:href="#DejaVuSans-30" transform="translate(290.576172 0)"/>
       <use xlink:href="#DejaVuSans-34" transform="translate(354.199219 0)"/>
      </g>
     </g>
    </g>
    <g id="text_10">
     <!-- Date -->
     <g style="fill: #b1bed6" transform="translate(490.091375 358.385615) scale(0.144 -0.144)">
      <defs>
       <path id="DejaVuSans-44" d="M 1259 4147 
L 1259 519 
L 2022 519 
Q 2988 519 3436 956 
Q 3884 1394 3884 2338 
Q 3884 3275 3436 3711 
Q 2988 4147 2022 4147 
L 1259 4147 
z
M 628 4666 
L 1925 4666 
Q 3281 4666 3915 4102 
Q 4550 3538 4550 2338 
Q 4550 1131 3912 565 
Q 3275 0 1925 0 
L 628 0 
L 628 4666 
z
" transform="scale(0.015625)"/>
       <path id="DejaVuSans-61" d="M 2194 1759 
Q 1497 1759 1228 1600 
Q 959 1441 959 1056 
Q 959 750 1161 570 
Q 1363 391 1709 391 
Q 2188 391 2477 730 
Q 2766 1069 2766 1631 
L 2766 1759 
L 2194 1759 
z
M 3341 1997 
L 3341 0 
L 2766 0 
L 2766 531 
Q 2569 213 2275 61 
Q 1981 -91 1556 -91 
Q 1019 -91 701 211 
Q 384 513 384 1019 
Q 384 1609 779 1909 
Q 1175 2209 1959 2209 
L 2766 2209 
L 2766 2266 
Q 2766 2663 2505 2880 
Q 2244 3097 1772 3097 
Q 1472 3097 1187 3025 
Q 903 2953 641 2809 
L 641 3341 
Q 956 3463 1253 3523 
Q 1550 3584 1831 3584 
Q 2591 3584 2966 3190 
Q 3341 2797 3341 1997 
z
" transform="scale(0.015625)"/>
       <path id="DejaVuSans-74" d="M 1172 4494 
L 1172 3500 
L 2356 3500 
L 2356 3053 
L 1172 3053 
L 1172 1153 
Q 1172 725 1289 603 
Q 1406 481 1766 481 
L 2356 481 
L 2356 0 
L 1766 0 
Q 1100 0 847 248 
Q 594 497 594 1153 
L 594 3053 
L 172 3053 
L 172 3500 
L 594 3500 
L 594 4494 
L 1172 4494 
z
" transform="scale(0.015625)"/>
       <path id="DejaVuSans-65" d="M 3597 1894 
L 3597 1613 
L 953 1613 
Q 991 1019 1311 708 
Q 1631 397 2203 397 
Q 2534 397 2845 478 
Q 3156 559 3463 722 
L 3463 178 
Q 3153 47 2828 -22 
Q 2503 -91 2169 -91 
Q 1331 -91 842 396 
Q 353 884 353 1716 
Q 353 2575 817 3079 
Q 1281 3584 2069 3584 
Q 2775 3584 3186 3129 
Q 3597 2675 3597 1894 
z
M 3022 2063 
Q 3016 2534 2758 2815 
Q 2500 3097 2075 3097 
Q 1594 3097 1305 2825 
Q 1016 2553 972 2059 
L 3022 2063 
z
" transform="scale(0.015625)"/>
      </defs>
      <use xlink:href="#DejaVuSans-44"/>
      <use xlink:href="#DejaVuSans-61" transform="translate(77.001953 0)"/>
      <use xlink:href="#DejaVuSans-74" transform="translate(138.28125 0)"/>
      <use xlink:href="#DejaVuSans-65" transform="translate(177.490234 0)"/>
     </g>
    </g>
   </g>
   <g id="matplotlib.axis_2">
    <g id="ytick_1">
     <g id="line2d_19">
      <path d="M 60.9005 267.604795 
L 953.7005 267.604795 
" clip-path="url(#p747a003d8a)" style="fill: none; stroke: #546379; stroke-width: 1.12; stroke-linecap: square"/>
     </g>
     <g id="line2d_20"/>
     <g id="text_11">
      <!-- 60000 -->
      <g style="fill: #b1bed6" transform="translate(15.21675 272.391811) scale(0.126 -0.126)">
       <use xlink:href="#DejaVuSans-36"/>
       <use xlink:href="#DejaVuSans-30" transform="translate(63.623047 0)"/>
       <use xlink:href="#DejaVuSans-30" transform="translate(127.246094 0)"/>
       <use xlink:href="#DejaVuSans-30" transform="translate(190.869141 0)"/>
       <use xlink:href="#DejaVuSans-30" transform="translate(254.492188 0)"/>
      </g>
     </g>
    </g>
    <g id="ytick_2">
     <g id="line2d_21">
      <path d="M 60.9005 228.710883 
L 953.7005 228.710883 
" clip-path="url(#p747a003d8a)" style="fill: none; stroke: #546379; stroke-width: 1.12; stroke-linecap: square"/>
     </g>
     <g id="line2d_22"/>
     <g id="text_12">
      <!-- 70000 -->
      <g style="fill: #b1bed6" transform="translate(15.21675 233.497899) scale(0.126 -0.126)">
       <use xlink:href="#DejaVuSans-37"/>
       <use xlink:href="#DejaVuSans-30" transform="translate(63.623047 0)"/>
       <use xlink:href="#DejaVuSans-30" transform="translate(127.246094 0)"/>
       <use xlink:href="#DejaVuSans-30" transform="translate(190.869141 0)"/>
       <use xlink:href="#DejaVuSans-30" transform="translate(254.492188 0)"/>
      </g>
     </g>
    </g>
    <g id="ytick_3">
     <g id="line2d_23">
      <path d="M 60.9005 189.816971 
L 953.7005 189.816971 
" clip-path="url(#p747a003d8a)" style="fill: none; stroke: #546379; stroke-width: 1.12; stroke-linecap: square"/>
     </g>
     <g id="line2d_24"/>
     <g id="text_13">
      <!-- 80000 -->
      <g style="fill: #b1bed6" transform="translate(15.21675 194.603987) scale(0.126 -0.126)">
       <defs>
        <path id="DejaVuSans-38" d="M 2034 2216 
Q 1584 2216 1326 1975 
Q 1069 1734 1069 1313 
Q 1069 891 1326 650 
Q 1584 409 2034 409 
Q 2484 409 2743 651 
Q 3003 894 3003 1313 
Q 3003 1734 2745 1975 
Q 2488 2216 2034 2216 
z
M 1403 2484 
Q 997 2584 770 2862 
Q 544 3141 544 3541 
Q 544 4100 942 4425 
Q 1341 4750 2034 4750 
Q 2731 4750 3128 4425 
Q 3525 4100 3525 3541 
Q 3525 3141 3298 2862 
Q 3072 2584 2669 2484 
Q 3125 2378 3379 2068 
Q 3634 1759 3634 1313 
Q 3634 634 3220 271 
Q 2806 -91 2034 -91 
Q 1263 -91 848 271 
Q 434 634 434 1313 
Q 434 1759 690 2068 
Q 947 2378 1403 2484 
z
M 1172 3481 
Q 1172 3119 1398 2916 
Q 1625 2713 2034 2713 
Q 2441 2713 2670 2916 
Q 2900 3119 2900 3481 
Q 2900 3844 2670 4047 
Q 2441 4250 2034 4250 
Q 1625 4250 1398 4047 
Q 1172 3844 1172 3481 
z
" transform="scale(0.015625)"/>
       </defs>
       <use xlink:href="#DejaVuSans-38"/>
       <use xlink:href="#DejaVuSans-30" transform="translate(63.623047 0)"/>
       <use xlink:href="#DejaVuSans-30" transform="translate(127.246094 0)"/>
       <use xlink:href="#DejaVuSans-30" transform="translate(190.869141 0)"/>
       <use xlink:href="#DejaVuSans-30" transform="translate(254.492188 0)"/>
      </g>
     </g>
    </g>
    <g id="ytick_4">
     <g id="line2d_25">
      <path d="M 60.9005 150.923059 
L 953.7005 150.923059 
" clip-path="url(#p747a003d8a)" style="fill: none; stroke: #546379; stroke-width: 1.12; stroke-linecap: square"/>
     </g>
     <g id="line2d_26"/>
     <g id="text_14">
      <!-- 90000 -->
      <g style="fill: #b1bed6" transform="translate(15.21675 155.710075) scale(0.126 -0.126)">
       <defs>
        <path id="DejaVuSans-39" d="M 703 97 
L 703 672 
Q 941 559 1184 500 
Q 1428 441 1663 441 
Q 2288 441 2617 861 
Q 2947 1281 2994 2138 
Q 2813 1869 2534 1725 
Q 2256 1581 1919 1581 
Q 1219 1581 811 2004 
Q 403 2428 403 3163 
Q 403 3881 828 4315 
Q 1253 4750 1959 4750 
Q 2769 4750 3195 4129 
Q 3622 3509 3622 2328 
Q 3622 1225 3098 567 
Q 2575 -91 1691 -91 
Q 1453 -91 1209 -44 
Q 966 3 703 97 
z
M 1959 2075 
Q 2384 2075 2632 2365 
Q 2881 2656 2881 3163 
Q 2881 3666 2632 3958 
Q 2384 4250 1959 4250 
Q 1534 4250 1286 3958 
Q 1038 3666 1038 3163 
Q 1038 2656 1286 2365 
Q 1534 2075 1959 2075 
z
" transform="scale(0.015625)"/>
       </defs>
       <use xlink:href="#DejaVuSans-39"/>
       <use xlink:href="#DejaVuSans-30" transform="translate(63.623047 0)"/>
       <use xlink:href="#DejaVuSans-30" transform="translate(127.246094 0)"/>
       <use xlink:href="#DejaVuSans-30" transform="translate(190.869141 0)"/>
       <use xlink:href="#DejaVuSans-30" transform="translate(254.492188 0)"/>
      </g>
     </g>
    </g>
    <g id="ytick_5">
     <g id="line2d_27">
      <path d="M 60.9005 112.029147 
L 953.7005 112.029147 
" clip-path="url(#p747a003d8a)" style="fill: none; stroke: #546379; stroke-width: 1.12; stroke-linecap: square"/>
     </g>
     <g id="line2d_28"/>
     <g id="text_15">
      <!-- 100000 -->
      <g style="fill: #b1bed6" transform="translate(7.2 116.816163) scale(0.126 -0.126)">
       <use xlink:href="#DejaVuSans-31"/>
       <use xlink:href="#DejaVuSans-30" transform="translate(63.623047 0)"/>
       <use xlink:href="#DejaVuSans-30" transform="translate(127.246094 0)"/>
       <use xlink:href="#DejaVuSans-30" transform="translate(190.869141 0)"/>
       <use xlink:href="#DejaVuSans-30" transform="translate(254.492188 0)"/>
       <use xlink:href="#DejaVuSans-30" transform="translate(318.115234 0)"/>
      </g>
     </g>
    </g>
    <g id="ytick_6">
     <g id="line2d_29">
      <path d="M 60.9005 73.135235 
L 953.7005 73.135235 
" clip-path="url(#p747a003d8a)" style="fill: none; stroke: #546379; stroke-width: 1.12; stroke-linecap: square"/>
     </g>
     <g id="line2d_30"/>
     <g id="text_16">
      <!-- 110000 -->
      <g style="fill: #b1bed6" transform="translate(7.2 77.922251) scale(0.126 -0.126)">
       <use xlink:href="#DejaVuSans-31"/>
       <use xlink:href="#DejaVuSans-31" transform="translate(63.623047 0)"/>
       <use xlink:href="#DejaVuSans-30" transform="translate(127.246094 0)"/>
       <use xlink:href="#DejaVuSans-30" transform="translate(190.869141 0)"/>
       <use xlink:href="#DejaVuSans-30" transform="translate(254.492188 0)"/>
       <use xlink:href="#DejaVuSans-30" transform="translate(318.115234 0)"/>
      </g>
     </g>
    </g>
    <g id="ytick_7">
     <g id="line2d_31">
      <path d="M 60.9005 34.241323 
L 953.7005 34.241323 
" clip-path="url(#p747a003d8a)" style="fill: none; stroke: #546379; stroke-width: 1.12; stroke-linecap: square"/>
     </g>
     <g id="line2d_32"/>
     <g id="text_17">
      <!-- 120000 -->
      <g style="fill: #b1bed6" transform="translate(7.2 39.028339) scale(0.126 -0.126)">
       <use xlink:href="#DejaVuSans-31"/>
       <use xlink:href="#DejaVuSans-32" transform="translate(63.623047 0)"/>
       <use xlink:href="#DejaVuSans-30" transform="translate(127.246094 0)"/>
       <use xlink:href="#DejaVuSans-30" transform="translate(190.869141 0)"/>
       <use xlink:href="#DejaVuSans-30" transform="translate(254.492188 0)"/>
       <use xlink:href="#DejaVuSans-30" transform="translate(318.115234 0)"/>
      </g>
     </g>
    </g>
   </g>
   <g id="line2d_33">
    <path d="M 101.482318 235.020759 
L 101.482318 235.296011 
L 105.711268 235.296011 
L 105.711268 222.918724 
L 109.940218 222.918724 
L 109.940218 246.976748 
L 114.169168 246.976748 
L 114.169168 237.045148 
L 118.398118 237.045148 
L 118.398118 239.498771 
L 122.627068 239.498771 
L 122.627068 225.775598 
L 126.856017 225.775598 
L 126.856017 229.872644 
L 131.084967 229.872644 
L 131.084967 237.044215 
L 135.313917 237.044215 
L 135.313917 232.048953 
L 139.542867 232.048953 
L 139.542867 251.970454 
L 143.771817 251.970454 
L 143.771817 262.624391 
L 148.000767 262.624391 
L 148.000767 248.353125 
L 152.229717 248.353125 
L 152.229717 250.155858 
L 156.458667 250.155858 
L 156.458667 252.697848 
L 160.687617 252.697848 
L 160.687617 256.382851 
L 164.916566 256.382851 
L 164.916566 258.568261 
L 169.145516 258.568261 
L 169.145516 264.470801 
L 173.374466 264.470801 
L 173.374466 243.338378 
L 181.832366 243.233597 
L 181.832366 236.714355 
L 186.061316 236.714355 
L 186.061316 231.144981 
L 190.290266 231.144981 
L 190.290266 238.492974 
L 194.519216 238.492974 
L 194.519216 226.559116 
L 198.748165 226.559116 
L 198.748165 231.441508 
L 202.977115 231.441508 
L 202.977115 235.557028 
L 207.206065 235.557028 
L 207.206065 241.791489 
L 211.435015 241.791489 
L 211.435015 248.817908 
L 215.663965 248.817908 
L 215.663965 266.517555 
L 219.892915 266.517555 
L 219.892915 266.377031 
L 224.121865 266.377031 
L 224.121865 259.715632 
L 228.350815 259.715632 
L 228.350815 274.351916 
L 232.579764 274.351916 
L 232.579764 276.382723 
L 236.808714 276.382723 
L 236.808714 264.500438 
L 241.037664 264.500438 
L 241.037664 252.169318 
L 245.266614 252.169318 
L 245.266614 238.056079 
L 249.495564 238.056079 
L 249.495564 236.820808 
L 253.724514 236.820808 
L 253.724514 243.568357 
L 257.953464 243.568357 
L 257.953464 264.972922 
L 262.182414 264.972922 
L 262.182414 286.921573 
L 266.411364 286.921573 
L 266.411364 272.594884 
L 270.640313 272.594884 
L 270.640313 277.236989 
L 274.869263 277.236989 
L 274.869263 269.643186 
L 279.098213 269.643186 
L 279.098213 251.728106 
L 283.327163 251.728106 
L 283.327163 269.678541 
L 287.556113 269.678541 
L 287.556113 271.615107 
L 291.785063 271.615107 
L 291.785063 275.512744 
L 296.014013 275.512744 
L 296.014013 287.607273 
L 300.242963 287.607273 
L 300.242963 274.852675 
L 304.471912 274.852675 
L 304.471912 274.625224 
L 308.700862 274.625224 
L 308.700862 255.107442 
L 312.929812 255.107442 
L 312.929812 250.961934 
L 317.158762 250.961934 
L 317.158762 244.702115 
L 321.387712 244.702115 
L 321.387712 265.117646 
L 325.616662 265.117646 
L 325.616662 256.656431 
L 329.845612 256.656431 
L 329.845612 266.557615 
L 334.074562 266.557615 
L 334.074562 244.079579 
L 338.303511 244.079579 
L 338.303511 234.832007 
L 342.532461 234.832007 
L 342.532461 238.946983 
L 346.761411 238.946983 
L 346.761411 240.306014 
L 350.990361 240.306014 
L 350.990361 219.649107 
L 355.219311 219.649107 
L 355.219311 233.595142 
L 359.448261 233.595142 
L 359.448261 205.661145 
L 363.677211 205.661145 
L 363.677211 155.902491 
L 367.906161 155.902491 
L 367.906161 146.787703 
L 372.135111 146.787703 
L 372.135111 141.707302 
L 376.36406 141.707302 
L 376.36406 120.675497 
L 380.59301 120.675497 
L 380.59301 127.753994 
L 384.82196 127.753994 
L 384.82196 122.633105 
L 389.05091 122.633105 
L 389.05091 123.387958 
L 393.27986 123.387958 
L 393.27986 121.886614 
L 397.50881 121.886614 
L 397.50881 106.321349 
L 401.73776 106.321349 
L 401.73776 88.086016 
L 405.96671 88.086016 
L 405.96671 122.816218 
L 410.195659 122.816218 
L 410.195659 114.751254 
L 414.424609 114.751254 
L 414.424609 137.168538 
L 418.653559 137.168538 
L 418.653559 124.266611 
L 422.882509 124.266611 
L 422.882509 103.265143 
L 427.111459 103.265143 
L 427.111459 132.632575 
L 431.340409 132.632575 
L 431.340409 125.536458 
L 435.569359 125.536458 
L 435.569359 94.881249 
L 439.798309 94.881249 
L 439.798309 97.883198 
L 444.027259 97.883198 
L 444.027259 101.945395 
L 448.256208 101.945395 
L 448.256208 93.577992 
L 452.485158 93.577992 
L 452.485158 106.526592 
L 456.714108 106.526592 
L 456.714108 125.483718 
L 460.943058 125.483718 
L 460.943058 128.551281 
L 465.172008 128.551281 
L 465.172008 121.3885 
L 469.400958 121.3885 
L 469.400958 125.08665 
L 473.629908 125.08665 
L 473.629908 126.517946 
L 477.858858 126.517946 
L 477.858858 171.747404 
L 482.087807 171.747404 
L 482.087807 166.16251 
L 486.316757 166.16251 
L 486.316757 163.581005 
L 490.545707 163.581005 
L 490.545707 178.695957 
L 494.774657 178.695957 
L 494.774657 172.93853 
L 499.003607 172.93853 
L 499.003607 163.106266 
L 503.232557 163.106266 
L 503.232557 166.258617 
L 507.461507 166.258617 
L 507.461507 161.860922 
L 511.690457 161.860922 
L 511.690457 179.972338 
L 515.919406 179.972338 
L 515.919406 174.873891 
L 520.148356 174.873891 
L 520.148356 204.337741 
L 524.377306 204.337741 
L 524.377306 169.268267 
L 528.606256 169.268267 
L 528.606256 174.128762 
L 532.835206 174.128762 
L 532.835206 169.69855 
L 537.064156 169.69855 
L 537.064156 135.479181 
L 541.293106 135.479181 
L 541.293106 131.483104 
L 545.522056 131.483104 
L 545.522056 123.981207 
L 549.751006 123.981207 
L 549.751006 124.403673 
L 553.979955 124.403673 
L 553.979955 93.491258 
L 558.208905 93.491258 
L 558.208905 98.213174 
L 562.437855 98.213174 
L 562.437855 87.040742 
L 566.666805 87.040742 
L 566.666805 66.436964 
L 570.895755 66.436964 
L 570.895755 75.152584 
L 575.124705 75.152584 
L 575.124705 96.363963 
L 579.353655 96.363963 
L 579.353655 90.892367 
L 583.582605 90.892367 
L 583.582605 90.120129 
L 587.811554 90.120129 
L 587.811554 78.236094 
L 592.040504 78.236094 
L 592.040504 90.409188 
L 596.269454 90.409188 
L 596.269454 93.825474 
L 600.498404 93.825474 
L 600.498404 91.103055 
L 604.727354 91.103055 
L 604.727354 84.374292 
L 608.956304 84.374292 
L 608.956304 89.836903 
L 613.185254 89.836903 
L 613.185254 79.96839 
L 617.414204 79.96839 
L 617.414204 68.058529 
L 621.643153 68.058529 
L 621.643153 37.759705 
L 625.872103 37.759705 
L 625.872103 37.053936 
L 630.101053 37.053936 
L 630.101053 44.171755 
L 634.330003 44.171755 
L 634.330003 43.387888 
L 638.558953 43.387888 
L 638.558953 42.30967 
L 642.787903 42.30967 
L 642.787903 63.327357 
L 647.016853 63.327357 
L 647.016853 53.593144 
L 651.245803 53.593144 
L 651.245803 36.98171 
L 655.474753 36.98171 
L 655.474753 40.51141 
L 659.703702 40.51141 
L 659.703702 48.822184 
L 663.932652 48.822184 
L 663.932652 46.42698 
L 668.161602 46.42698 
L 668.161602 66.120757 
L 672.390552 66.120757 
L 672.390552 77.838326 
L 676.619502 77.838326 
L 676.619502 66.377223 
L 680.848452 66.377223 
L 680.848452 68.563411 
L 685.077402 68.563411 
L 685.077402 51.674819 
L 689.306352 51.674819 
L 689.306352 52.123188 
L 693.535301 52.123188 
L 693.535301 50.999154 
L 697.764251 50.999154 
L 697.764251 65.31647 
L 701.993201 65.31647 
L 701.993201 74.345419 
L 706.222151 74.345419 
L 706.222151 39.617589 
L 710.451101 39.617589 
L 710.451101 20.552727 
L 714.680051 20.552727 
L 714.680051 27.690071 
L 718.909001 27.690071 
L 718.909001 52.846342 
L 723.137951 52.846342 
L 723.137951 86.880149 
L 727.3669 86.880149 
L 727.3669 79.171337 
L 731.59585 79.171337 
L 731.59585 66.765812 
L 735.8248 66.765812 
L 735.8248 72.868734 
L 740.05375 72.868734 
L 740.05375 70.79386 
L 744.2827 70.79386 
L 744.2827 107.040769 
L 748.51165 107.040769 
L 748.51165 88.839469 
L 752.7406 88.839469 
L 752.7406 133.812732 
L 756.96955 133.812732 
L 756.96955 139.336135 
L 761.1985 139.336135 
L 761.1985 171.623838 
L 765.427449 171.623838 
L 765.427449 148.910105 
L 769.656399 148.910105 
L 769.656399 149.458975 
L 773.885349 149.458975 
L 773.885349 142.592022 
L 778.114299 142.592022 
L 778.114299 148.419963 
L 782.343249 148.419963 
L 782.343249 149.874518 
L 786.572199 149.874518 
L 786.572199 159.342074 
L 790.801149 159.342074 
L 790.801149 157.389522 
L 795.030099 157.389522 
L 795.030099 160.227338 
L 799.259048 160.227338 
L 799.259048 159.343124 
L 803.487998 159.343124 
L 803.487998 155.843139 
L 807.716948 155.843139 
L 807.716948 135.822925 
L 811.945898 135.822925 
L 811.945898 148.995166 
L 816.174848 148.995166 
L 816.174848 130.177785 
L 820.403798 130.177785 
L 820.403798 131.09537 
L 824.632748 131.09537 
L 824.632748 153.35494 
L 828.861698 153.35494 
L 828.861698 164.260015 
L 833.090648 164.260015 
L 833.090648 172.068123 
L 837.319597 172.068123 
L 837.319597 194.951823 
L 841.548547 194.951823 
L 841.548547 226.687155 
L 845.777497 226.687155 
L 845.777497 233.400516 
L 850.006447 233.400516 
L 850.006447 229.665028 
L 854.235397 229.665028 
L 854.235397 242.604566 
L 858.464347 242.604566 
L 858.464347 237.98747 
L 862.693297 237.98747 
L 862.693297 238.548203 
L 866.922247 238.548203 
L 866.922247 233.472353 
L 871.151196 233.472353 
L 871.151196 235.989529 
L 875.380146 235.989529 
L 875.380146 229.012778 
L 879.609096 229.012778 
L 879.609096 223.971115 
L 883.838046 223.971115 
L 883.838046 223.796793 
L 888.066996 223.796793 
L 888.066996 237.074202 
L 892.295946 237.074202 
L 892.295946 233.458235 
L 896.524896 233.458235 
L 896.524896 241.567421 
L 900.753846 241.567421 
L 900.753846 240.644508 
L 904.982795 240.644508 
L 904.982795 221.128204 
L 909.211745 221.128204 
L 909.211745 216.181052 
L 913.118682 216.181052 
L 913.118682 216.181052 
" clip-path="url(#p747a003d8a)" style="fill: none; stroke: #3572c6; stroke-width: 1.2; stroke-linecap: square"/>
   </g>
   <g id="patch_3">
    <path d="M 60.9005 300.96 
L 60.9005 7.2 
" style="fill: none; stroke: #899ab8; stroke-width: 1.12; stroke-linejoin: miter; stroke-linecap: square"/>
   </g>
   <g id="patch_4">
    <path d="M 953.7005 300.96 
L 953.7005 7.2 
" style="fill: none; stroke: #899ab8; stroke-width: 1.12; stroke-linejoin: miter; stroke-linecap: square"/>
   </g>
   <g id="patch_5">
    <path d="M 60.9005 300.96 
L 953.7005 300.96 
" style="fill: none; stroke: #899ab8; stroke-width: 1.12; stroke-linejoin: miter; stroke-linecap: square"/>
   </g>
   <g id="patch_6">
    <path d="M 60.9005 7.2 
L 953.7005 7.2 
" style="fill: none; stroke: #899ab8; stroke-width: 1.12; stroke-linejoin: miter; stroke-linecap: square"/>
   </g>
  </g>
 </g>
 <defs>
  <clipPath id="p747a003d8a">
   <rect x="60.9005" y="7.2" width="892.8" height="293.76"/>
  </clipPath>
 </defs>
</svg>
