<?xml version="1.0" encoding="utf-8" standalone="no"?>
<!DOCTYPE svg PUBLIC "-//W3C//DTD SVG 1.1//EN"
  "http://www.w3.org/Graphics/SVG/1.1/DTD/svg11.dtd">
<svg xmlns:xlink="http://www.w3.org/1999/xlink" width="934.976pt" height="358.843487pt" viewBox="0 0 934.976 358.843487" xmlns="http://www.w3.org/2000/svg" version="1.1">
 <metadata>
  <rdf:RDF xmlns:dc="http://purl.org/dc/elements/1.1/" xmlns:cc="http://creativecommons.org/ns#" xmlns:rdf="http://www.w3.org/1999/02/22-rdf-syntax-ns#">
   <cc:Work>
    <dc:type rdf:resource="http://purl.org/dc/dcmitype/StillImage"/>
    <dc:date>2024-01-08T23:09:32.842509</dc:date>
    <dc:format>image/svg+xml</dc:format>
    <dc:creator>
     <cc:Agent>
      <dc:title>Matplotlib v3.8.2, https://matplotlib.org/</dc:title>
     </cc:Agent>
    </dc:creator>
   </cc:Work>
  </rdf:RDF>
 </metadata>
 <defs>
  <style type="text/css">*{stroke-linejoin: round; stroke-linecap: butt}</style>
 </defs>
 <g id="figure_1">
  <g id="patch_1">
   <path d="M 0 358.843487 
L 934.976 358.843487 
L 934.976 0 
L 0 0 
z
" style="fill: #373e4b"/>
  </g>
  <g id="axes_1">
   <g id="patch_2">
    <path d="M 34.976 301.512794 
L 927.776 301.512794 
L 927.776 7.752794 
L 34.976 7.752794 
z
" style="fill: #373e4b"/>
   </g>
   <g id="matplotlib.axis_1">
    <g id="xtick_1">
     <g id="line2d_1">
      <path d="M 147.183231 301.512794 
L 147.183231 7.752794 
" clip-path="url(#p46612d6654)" style="fill: none; stroke: #546379; stroke-width: 1.12; stroke-linecap: square"/>
     </g>
     <g id="line2d_2"/>
     <g id="text_1">
      <!-- 2012 -->
      <g style="fill: #b1bed6" transform="translate(118.102191 331.437649) rotate(-30) scale(0.126 -0.126)">
       <defs>
        <path id="DejaVuSans-32" d="M 1228 531 
L 3431 531 
L 3431 0 
L 469 0 
L 469 531 
Q 828 903 1448 1529 
Q 2069 2156 2228 2338 
Q 2531 2678 2651 2914 
Q 2772 3150 2772 3378 
Q 2772 3750 2511 3984 
Q 2250 4219 1831 4219 
Q 1534 4219 1204 4116 
Q 875 4013 500 3803 
L 500 4441 
Q 881 4594 1212 4672 
Q 1544 4750 1819 4750 
Q 2544 4750 2975 4387 
Q 3406 4025 3406 3419 
Q 3406 3131 3298 2873 
Q 3191 2616 2906 2266 
Q 2828 2175 2409 1742 
Q 1991 1309 1228 531 
z
" transform="scale(0.015625)"/>
        <path id="DejaVuSans-30" d="M 2034 4250 
Q 1547 4250 1301 3770 
Q 1056 3291 1056 2328 
Q 1056 1369 1301 889 
Q 1547 409 2034 409 
Q 2525 409 2770 889 
Q 3016 1369 3016 2328 
Q 3016 3291 2770 3770 
Q 2525 4250 2034 4250 
z
M 2034 4750 
Q 2819 4750 3233 4129 
Q 3647 3509 3647 2328 
Q 3647 1150 3233 529 
Q 2819 -91 2034 -91 
Q 1250 -91 836 529 
Q 422 1150 422 2328 
Q 422 3509 836 4129 
Q 1250 4750 2034 4750 
z
" transform="scale(0.015625)"/>
        <path id="DejaVuSans-31" d="M 794 531 
L 1825 531 
L 1825 4091 
L 703 3866 
L 703 4441 
L 1819 4666 
L 2450 4666 
L 2450 531 
L 3481 531 
L 3481 0 
L 794 0 
L 794 531 
z
" transform="scale(0.015625)"/>
       </defs>
       <use xlink:href="#DejaVuSans-32"/>
       <use xlink:href="#DejaVuSans-30" x="63.623047"/>
       <use xlink:href="#DejaVuSans-31" x="127.246094"/>
       <use xlink:href="#DejaVuSans-32" x="190.869141"/>
      </g>
     </g>
    </g>
    <g id="xtick_2">
     <g id="line2d_3">
      <path d="M 270.37894 301.512794 
L 270.37894 7.752794 
" clip-path="url(#p46612d6654)" style="fill: none; stroke: #546379; stroke-width: 1.12; stroke-linecap: square"/>
     </g>
     <g id="line2d_4"/>
     <g id="text_2">
      <!-- 2014 -->
      <g style="fill: #b1bed6" transform="translate(241.2979 331.437649) rotate(-30) scale(0.126 -0.126)">
       <defs>
        <path id="DejaVuSans-34" d="M 2419 4116 
L 825 1625 
L 2419 1625 
L 2419 4116 
z
M 2253 4666 
L 3047 4666 
L 3047 1625 
L 3713 1625 
L 3713 1100 
L 3047 1100 
L 3047 0 
L 2419 0 
L 2419 1100 
L 313 1100 
L 313 1709 
L 2253 4666 
z
" transform="scale(0.015625)"/>
       </defs>
       <use xlink:href="#DejaVuSans-32"/>
       <use xlink:href="#DejaVuSans-30" x="63.623047"/>
       <use xlink:href="#DejaVuSans-31" x="127.246094"/>
       <use xlink:href="#DejaVuSans-34" x="190.869141"/>
      </g>
     </g>
    </g>
    <g id="xtick_3">
     <g id="line2d_5">
      <path d="M 393.406119 301.512794 
L 393.406119 7.752794 
" clip-path="url(#p46612d6654)" style="fill: none; stroke: #546379; stroke-width: 1.12; stroke-linecap: square"/>
     </g>
     <g id="line2d_6"/>
     <g id="text_3">
      <!-- 2016 -->
      <g style="fill: #b1bed6" transform="translate(364.325079 331.437649) rotate(-30) scale(0.126 -0.126)">
       <defs>
        <path id="DejaVuSans-36" d="M 2113 2584 
Q 1688 2584 1439 2293 
Q 1191 2003 1191 1497 
Q 1191 994 1439 701 
Q 1688 409 2113 409 
Q 2538 409 2786 701 
Q 3034 994 3034 1497 
Q 3034 2003 2786 2293 
Q 2538 2584 2113 2584 
z
M 3366 4563 
L 3366 3988 
Q 3128 4100 2886 4159 
Q 2644 4219 2406 4219 
Q 1781 4219 1451 3797 
Q 1122 3375 1075 2522 
Q 1259 2794 1537 2939 
Q 1816 3084 2150 3084 
Q 2853 3084 3261 2657 
Q 3669 2231 3669 1497 
Q 3669 778 3244 343 
Q 2819 -91 2113 -91 
Q 1303 -91 875 529 
Q 447 1150 447 2328 
Q 447 3434 972 4092 
Q 1497 4750 2381 4750 
Q 2619 4750 2861 4703 
Q 3103 4656 3366 4563 
z
" transform="scale(0.015625)"/>
       </defs>
       <use xlink:href="#DejaVuSans-32"/>
       <use xlink:href="#DejaVuSans-30" x="63.623047"/>
       <use xlink:href="#DejaVuSans-31" x="127.246094"/>
       <use xlink:href="#DejaVuSans-36" x="190.869141"/>
      </g>
     </g>
    </g>
    <g id="xtick_4">
     <g id="line2d_7">
      <path d="M 516.601828 301.512794 
L 516.601828 7.752794 
" clip-path="url(#p46612d6654)" style="fill: none; stroke: #546379; stroke-width: 1.12; stroke-linecap: square"/>
     </g>
     <g id="line2d_8"/>
     <g id="text_4">
      <!-- 2018 -->
      <g style="fill: #b1bed6" transform="translate(487.520789 331.437649) rotate(-30) scale(0.126 -0.126)">
       <defs>
        <path id="DejaVuSans-38" d="M 2034 2216 
Q 1584 2216 1326 1975 
Q 1069 1734 1069 1313 
Q 1069 891 1326 650 
Q 1584 409 2034 409 
Q 2484 409 2743 651 
Q 3003 894 3003 1313 
Q 3003 1734 2745 1975 
Q 2488 2216 2034 2216 
z
M 1403 2484 
Q 997 2584 770 2862 
Q 544 3141 544 3541 
Q 544 4100 942 4425 
Q 1341 4750 2034 4750 
Q 2731 4750 3128 4425 
Q 3525 4100 3525 3541 
Q 3525 3141 3298 2862 
Q 3072 2584 2669 2484 
Q 3125 2378 3379 2068 
Q 3634 1759 3634 1313 
Q 3634 634 3220 271 
Q 2806 -91 2034 -91 
Q 1263 -91 848 271 
Q 434 634 434 1313 
Q 434 1759 690 2068 
Q 947 2378 1403 2484 
z
M 1172 3481 
Q 1172 3119 1398 2916 
Q 1625 2713 2034 2713 
Q 2441 2713 2670 2916 
Q 2900 3119 2900 3481 
Q 2900 3844 2670 4047 
Q 2441 4250 2034 4250 
Q 1625 4250 1398 4047 
Q 1172 3844 1172 3481 
z
" transform="scale(0.015625)"/>
       </defs>
       <use xlink:href="#DejaVuSans-32"/>
       <use xlink:href="#DejaVuSans-30" x="63.623047"/>
       <use xlink:href="#DejaVuSans-31" x="127.246094"/>
       <use xlink:href="#DejaVuSans-38" x="190.869141"/>
      </g>
     </g>
    </g>
    <g id="xtick_5">
     <g id="line2d_9">
      <path d="M 639.629007 301.512794 
L 639.629007 7.752794 
" clip-path="url(#p46612d6654)" style="fill: none; stroke: #546379; stroke-width: 1.12; stroke-linecap: square"/>
     </g>
     <g id="line2d_10"/>
     <g id="text_5">
      <!-- 2020 -->
      <g style="fill: #b1bed6" transform="translate(610.547968 331.437649) rotate(-30) scale(0.126 -0.126)">
       <use xlink:href="#DejaVuSans-32"/>
       <use xlink:href="#DejaVuSans-30" x="63.623047"/>
       <use xlink:href="#DejaVuSans-32" x="127.246094"/>
       <use xlink:href="#DejaVuSans-30" x="190.869141"/>
      </g>
     </g>
    </g>
    <g id="xtick_6">
     <g id="line2d_11">
      <path d="M 762.824717 301.512794 
L 762.824717 7.752794 
" clip-path="url(#p46612d6654)" style="fill: none; stroke: #546379; stroke-width: 1.12; stroke-linecap: square"/>
     </g>
     <g id="line2d_12"/>
     <g id="text_6">
      <!-- 2022 -->
      <g style="fill: #b1bed6" transform="translate(733.743677 331.437649) rotate(-30) scale(0.126 -0.126)">
       <use xlink:href="#DejaVuSans-32"/>
       <use xlink:href="#DejaVuSans-30" x="63.623047"/>
       <use xlink:href="#DejaVuSans-32" x="127.246094"/>
       <use xlink:href="#DejaVuSans-32" x="190.869141"/>
      </g>
     </g>
    </g>
    <g id="xtick_7">
     <g id="line2d_13">
      <path d="M 885.851896 301.512794 
L 885.851896 7.752794 
" clip-path="url(#p46612d6654)" style="fill: none; stroke: #546379; stroke-width: 1.12; stroke-linecap: square"/>
     </g>
     <g id="line2d_14"/>
     <g id="text_7">
      <!-- 2024 -->
      <g style="fill: #b1bed6" transform="translate(856.770856 331.437649) rotate(-30) scale(0.126 -0.126)">
       <use xlink:href="#DejaVuSans-32"/>
       <use xlink:href="#DejaVuSans-30" x="63.623047"/>
       <use xlink:href="#DejaVuSans-32" x="127.246094"/>
       <use xlink:href="#DejaVuSans-34" x="190.869141"/>
      </g>
     </g>
    </g>
    <g id="text_8">
     <!-- Date -->
     <g style="fill: #b1bed6" transform="translate(464.166875 348.648737) scale(0.144 -0.144)">
      <defs>
       <path id="DejaVuSans-44" d="M 1259 4147 
L 1259 519 
L 2022 519 
Q 2988 519 3436 956 
Q 3884 1394 3884 2338 
Q 3884 3275 3436 3711 
Q 2988 4147 2022 4147 
L 1259 4147 
z
M 628 4666 
L 1925 4666 
Q 3281 4666 3915 4102 
Q 4550 3538 4550 2338 
Q 4550 1131 3912 565 
Q 3275 0 1925 0 
L 628 0 
L 628 4666 
z
" transform="scale(0.015625)"/>
       <path id="DejaVuSans-61" d="M 2194 1759 
Q 1497 1759 1228 1600 
Q 959 1441 959 1056 
Q 959 750 1161 570 
Q 1363 391 1709 391 
Q 2188 391 2477 730 
Q 2766 1069 2766 1631 
L 2766 1759 
L 2194 1759 
z
M 3341 1997 
L 3341 0 
L 2766 0 
L 2766 531 
Q 2569 213 2275 61 
Q 1981 -91 1556 -91 
Q 1019 -91 701 211 
Q 384 513 384 1019 
Q 384 1609 779 1909 
Q 1175 2209 1959 2209 
L 2766 2209 
L 2766 2266 
Q 2766 2663 2505 2880 
Q 2244 3097 1772 3097 
Q 1472 3097 1187 3025 
Q 903 2953 641 2809 
L 641 3341 
Q 956 3463 1253 3523 
Q 1550 3584 1831 3584 
Q 2591 3584 2966 3190 
Q 3341 2797 3341 1997 
z
" transform="scale(0.015625)"/>
       <path id="DejaVuSans-74" d="M 1172 4494 
L 1172 3500 
L 2356 3500 
L 2356 3053 
L 1172 3053 
L 1172 1153 
Q 1172 725 1289 603 
Q 1406 481 1766 481 
L 2356 481 
L 2356 0 
L 1766 0 
Q 1100 0 847 248 
Q 594 497 594 1153 
L 594 3053 
L 172 3053 
L 172 3500 
L 594 3500 
L 594 4494 
L 1172 4494 
z
" transform="scale(0.015625)"/>
       <path id="DejaVuSans-65" d="M 3597 1894 
L 3597 1613 
L 953 1613 
Q 991 1019 1311 708 
Q 1631 397 2203 397 
Q 2534 397 2845 478 
Q 3156 559 3463 722 
L 3463 178 
Q 3153 47 2828 -22 
Q 2503 -91 2169 -91 
Q 1331 -91 842 396 
Q 353 884 353 1716 
Q 353 2575 817 3079 
Q 1281 3584 2069 3584 
Q 2775 3584 3186 3129 
Q 3597 2675 3597 1894 
z
M 3022 2063 
Q 3016 2534 2758 2815 
Q 2500 3097 2075 3097 
Q 1594 3097 1305 2825 
Q 1016 2553 972 2059 
L 3022 2063 
z
" transform="scale(0.015625)"/>
      </defs>
      <use xlink:href="#DejaVuSans-44"/>
      <use xlink:href="#DejaVuSans-61" x="77.001953"/>
      <use xlink:href="#DejaVuSans-74" x="138.28125"/>
      <use xlink:href="#DejaVuSans-65" x="177.490234"/>
     </g>
    </g>
   </g>
   <g id="matplotlib.axis_2">
    <g id="ytick_1">
     <g id="line2d_15">
      <path d="M 34.976 254.287862 
L 927.776 254.287862 
" clip-path="url(#p46612d6654)" style="fill: none; stroke: #546379; stroke-width: 1.12; stroke-linecap: square"/>
     </g>
     <g id="line2d_16"/>
     <g id="text_9">
      <!-- $\mathdefault{10^{0}}$ -->
      <g style="fill: #b1bed6" transform="translate(7.2 259.074878) scale(0.126 -0.126)">
       <use xlink:href="#DejaVuSans-31" transform="translate(0 0.765625)"/>
       <use xlink:href="#DejaVuSans-30" transform="translate(63.623047 0.765625)"/>
       <use xlink:href="#DejaVuSans-30" transform="translate(128.203125 39.046875) scale(0.7)"/>
      </g>
     </g>
    </g>
    <g id="ytick_2">
     <g id="line2d_17">
      <path d="M 34.976 205.827693 
L 927.776 205.827693 
" clip-path="url(#p46612d6654)" style="fill: none; stroke: #546379; stroke-width: 1.12; stroke-linecap: square"/>
     </g>
     <g id="line2d_18"/>
     <g id="text_10">
      <!-- $\mathdefault{10^{1}}$ -->
      <g style="fill: #b1bed6" transform="translate(7.2 210.614709) scale(0.126 -0.126)">
       <use xlink:href="#DejaVuSans-31" transform="translate(0 0.684375)"/>
       <use xlink:href="#DejaVuSans-30" transform="translate(63.623047 0.684375)"/>
       <use xlink:href="#DejaVuSans-31" transform="translate(128.203125 38.965625) scale(0.7)"/>
      </g>
     </g>
    </g>
    <g id="ytick_3">
     <g id="line2d_19">
      <path d="M 34.976 157.367524 
L 927.776 157.367524 
" clip-path="url(#p46612d6654)" style="fill: none; stroke: #546379; stroke-width: 1.12; stroke-linecap: square"/>
     </g>
     <g id="line2d_20"/>
     <g id="text_11">
      <!-- $\mathdefault{10^{2}}$ -->
      <g style="fill: #b1bed6" transform="translate(7.2 162.154539) scale(0.126 -0.126)">
       <use xlink:href="#DejaVuSans-31" transform="translate(0 0.765625)"/>
       <use xlink:href="#DejaVuSans-30" transform="translate(63.623047 0.765625)"/>
       <use xlink:href="#DejaVuSans-32" transform="translate(128.203125 39.046875) scale(0.7)"/>
      </g>
     </g>
    </g>
    <g id="ytick_4">
     <g id="line2d_21">
      <path d="M 34.976 108.907354 
L 927.776 108.907354 
" clip-path="url(#p46612d6654)" style="fill: none; stroke: #546379; stroke-width: 1.12; stroke-linecap: square"/>
     </g>
     <g id="line2d_22"/>
     <g id="text_12">
      <!-- $\mathdefault{10^{3}}$ -->
      <g style="fill: #b1bed6" transform="translate(7.2 113.69437) scale(0.126 -0.126)">
       <defs>
        <path id="DejaVuSans-33" d="M 2597 2516 
Q 3050 2419 3304 2112 
Q 3559 1806 3559 1356 
Q 3559 666 3084 287 
Q 2609 -91 1734 -91 
Q 1441 -91 1130 -33 
Q 819 25 488 141 
L 488 750 
Q 750 597 1062 519 
Q 1375 441 1716 441 
Q 2309 441 2620 675 
Q 2931 909 2931 1356 
Q 2931 1769 2642 2001 
Q 2353 2234 1838 2234 
L 1294 2234 
L 1294 2753 
L 1863 2753 
Q 2328 2753 2575 2939 
Q 2822 3125 2822 3475 
Q 2822 3834 2567 4026 
Q 2313 4219 1838 4219 
Q 1578 4219 1281 4162 
Q 984 4106 628 3988 
L 628 4550 
Q 988 4650 1302 4700 
Q 1616 4750 1894 4750 
Q 2613 4750 3031 4423 
Q 3450 4097 3450 3541 
Q 3450 3153 3228 2886 
Q 3006 2619 2597 2516 
z
" transform="scale(0.015625)"/>
       </defs>
       <use xlink:href="#DejaVuSans-31" transform="translate(0 0.765625)"/>
       <use xlink:href="#DejaVuSans-30" transform="translate(63.623047 0.765625)"/>
       <use xlink:href="#DejaVuSans-33" transform="translate(128.203125 39.046875) scale(0.7)"/>
      </g>
     </g>
    </g>
    <g id="ytick_5">
     <g id="line2d_23">
      <path d="M 34.976 60.447185 
L 927.776 60.447185 
" clip-path="url(#p46612d6654)" style="fill: none; stroke: #546379; stroke-width: 1.12; stroke-linecap: square"/>
     </g>
     <g id="line2d_24"/>
     <g id="text_13">
      <!-- $\mathdefault{10^{4}}$ -->
      <g style="fill: #b1bed6" transform="translate(7.2 65.234201) scale(0.126 -0.126)">
       <use xlink:href="#DejaVuSans-31" transform="translate(0 0.684375)"/>
       <use xlink:href="#DejaVuSans-30" transform="translate(63.623047 0.684375)"/>
       <use xlink:href="#DejaVuSans-34" transform="translate(128.203125 38.965625) scale(0.7)"/>
      </g>
     </g>
    </g>
    <g id="ytick_6">
     <g id="line2d_25">
      <path d="M 34.976 11.987016 
L 927.776 11.987016 
" clip-path="url(#p46612d6654)" style="fill: none; stroke: #546379; stroke-width: 1.12; stroke-linecap: square"/>
     </g>
     <g id="line2d_26"/>
     <g id="text_14">
      <!-- $\mathdefault{10^{5}}$ -->
      <g style="fill: #b1bed6" transform="translate(7.2 16.774031) scale(0.126 -0.126)">
       <defs>
        <path id="DejaVuSans-35" d="M 691 4666 
L 3169 4666 
L 3169 4134 
L 1269 4134 
L 1269 2991 
Q 1406 3038 1543 3061 
Q 1681 3084 1819 3084 
Q 2600 3084 3056 2656 
Q 3513 2228 3513 1497 
Q 3513 744 3044 326 
Q 2575 -91 1722 -91 
Q 1428 -91 1123 -41 
Q 819 9 494 109 
L 494 744 
Q 775 591 1075 516 
Q 1375 441 1709 441 
Q 2250 441 2565 725 
Q 2881 1009 2881 1497 
Q 2881 1984 2565 2268 
Q 2250 2553 1709 2553 
Q 1456 2553 1204 2497 
Q 953 2441 691 2322 
L 691 4666 
z
" transform="scale(0.015625)"/>
       </defs>
       <use xlink:href="#DejaVuSans-31" transform="translate(0 0.684375)"/>
       <use xlink:href="#DejaVuSans-30" transform="translate(63.623047 0.684375)"/>
       <use xlink:href="#DejaVuSans-35" transform="translate(128.203125 38.965625) scale(0.7)"/>
      </g>
     </g>
    </g>
    <g id="ytick_7">
     <g id="line2d_27"/>
    </g>
    <g id="ytick_8">
     <g id="line2d_28"/>
    </g>
    <g id="ytick_9">
     <g id="line2d_29"/>
    </g>
    <g id="ytick_10">
     <g id="line2d_30"/>
    </g>
    <g id="ytick_11">
     <g id="line2d_31"/>
    </g>
    <g id="ytick_12">
     <g id="line2d_32"/>
    </g>
    <g id="ytick_13">
     <g id="line2d_33"/>
    </g>
    <g id="ytick_14">
     <g id="line2d_34"/>
    </g>
    <g id="ytick_15">
     <g id="line2d_35"/>
    </g>
    <g id="ytick_16">
     <g id="line2d_36"/>
    </g>
    <g id="ytick_17">
     <g id="line2d_37"/>
    </g>
    <g id="ytick_18">
     <g id="line2d_38"/>
    </g>
    <g id="ytick_19">
     <g id="line2d_39"/>
    </g>
    <g id="ytick_20">
     <g id="line2d_40"/>
    </g>
    <g id="ytick_21">
     <g id="line2d_41"/>
    </g>
    <g id="ytick_22">
     <g id="line2d_42"/>
    </g>
    <g id="ytick_23">
     <g id="line2d_43"/>
    </g>
    <g id="ytick_24">
     <g id="line2d_44"/>
    </g>
    <g id="ytick_25">
     <g id="line2d_45"/>
    </g>
    <g id="ytick_26">
     <g id="line2d_46"/>
    </g>
    <g id="ytick_27">
     <g id="line2d_47"/>
    </g>
    <g id="ytick_28">
     <g id="line2d_48"/>
    </g>
    <g id="ytick_29">
     <g id="line2d_49"/>
    </g>
    <g id="ytick_30">
     <g id="line2d_50"/>
    </g>
    <g id="ytick_31">
     <g id="line2d_51"/>
    </g>
    <g id="ytick_32">
     <g id="line2d_52"/>
    </g>
    <g id="ytick_33">
     <g id="line2d_53"/>
    </g>
    <g id="ytick_34">
     <g id="line2d_54"/>
    </g>
    <g id="ytick_35">
     <g id="line2d_55"/>
    </g>
    <g id="ytick_36">
     <g id="line2d_56"/>
    </g>
    <g id="ytick_37">
     <g id="line2d_57"/>
    </g>
    <g id="ytick_38">
     <g id="line2d_58"/>
    </g>
    <g id="ytick_39">
     <g id="line2d_59"/>
    </g>
    <g id="ytick_40">
     <g id="line2d_60"/>
    </g>
    <g id="ytick_41">
     <g id="line2d_61"/>
    </g>
    <g id="ytick_42">
     <g id="line2d_62"/>
    </g>
    <g id="ytick_43">
     <g id="line2d_63"/>
    </g>
    <g id="ytick_44">
     <g id="line2d_64"/>
    </g>
    <g id="ytick_45">
     <g id="line2d_65"/>
    </g>
    <g id="ytick_46">
     <g id="line2d_66"/>
    </g>
    <g id="ytick_47">
     <g id="line2d_67"/>
    </g>
    <g id="ytick_48">
     <g id="line2d_68"/>
    </g>
    <g id="ytick_49">
     <g id="line2d_69"/>
    </g>
    <g id="ytick_50">
     <g id="line2d_70"/>
    </g>
    <g id="ytick_51">
     <g id="line2d_71"/>
    </g>
    <g id="ytick_52">
     <g id="line2d_72"/>
    </g>
    <g id="ytick_53">
     <g id="line2d_73"/>
    </g>
    <g id="ytick_54">
     <g id="line2d_74"/>
    </g>
   </g>
   <g id="line2d_75">
    <path d="M 75.557818 288.160067 
L 75.557818 283.463791 
L 76.23194 283.463791 
L 76.23194 278.268378 
L 76.906061 278.268378 
L 76.906061 279.626655 
L 77.580183 279.626655 
L 77.580183 281.078678 
L 78.254304 281.078678 
L 78.254304 280.340146 
L 78.928426 280.340146 
L 78.928426 281.078678 
L 80.276669 281.078678 
L 80.276669 282.638353 
L 80.95079 282.638353 
L 80.95079 285.218639 
L 82.299033 285.218639 
L 82.299033 283.463791 
L 82.973155 283.463791 
L 82.973155 282.638353 
L 83.647277 282.638353 
L 83.647277 283.463791 
L 84.321398 283.463791 
L 84.321398 281.844071 
L 84.99552 281.844071 
L 84.99552 279.626655 
L 86.343763 279.626655 
L 86.343763 278.268378 
L 87.017884 278.268378 
L 87.017884 275.789518 
L 87.692006 275.789518 
L 87.692006 273.572103 
L 88.366127 273.572103 
L 88.366127 274.65162 
L 89.040249 274.65162 
L 89.040249 271.566206 
L 89.71437 271.566206 
L 89.71437 271.093243 
L 90.388492 271.093243 
L 90.388492 256.04271 
L 91.736735 256.04271 
L 91.736735 254.928906 
L 92.410856 254.928906 
L 92.410856 252.668141 
L 93.084978 252.668141 
L 93.084978 253.261025 
L 93.759099 253.261025 
L 93.759099 256.978241 
L 94.433221 256.978241 
L 94.433221 254.287862 
L 95.107343 254.287862 
L 95.107343 254.928906 
L 95.781464 254.928906 
L 95.781464 256.04271 
L 96.455586 256.04271 
L 96.455586 256.978241 
L 97.129707 256.978241 
L 97.129707 256.272723 
L 97.803829 256.272723 
L 97.803829 257.21877 
L 98.47795 257.21877 
L 98.47795 259.248871 
L 99.152072 259.248871 
L 99.152072 256.740431 
L 99.826193 256.740431 
L 99.826193 258.984138 
L 101.174436 258.984138 
L 101.174436 260.342415 
L 101.848558 260.342415 
L 101.848558 260.063656 
L 102.522679 260.063656 
L 102.522679 254.713048 
L 103.196801 254.713048 
L 103.196801 250.450726 
L 103.870922 250.450726 
L 103.870922 247.509298 
L 104.545044 247.509298 
L 104.545044 242.152467 
L 105.219165 242.152467 
L 105.219165 224.387921 
L 105.893287 224.387921 
L 105.893287 227.564502 
L 106.567409 227.564502 
L 106.567409 225.590876 
L 107.24153 225.590876 
L 107.24153 214.732671 
L 107.915652 214.732671 
L 107.915652 209.322475 
L 108.589773 209.322475 
L 108.589773 213.394486 
L 109.263895 213.394486 
L 109.263895 212.537759 
L 109.938016 212.537759 
L 109.938016 208.807038 
L 110.612138 208.807038 
L 110.612138 206.533929 
L 111.286259 206.533929 
L 111.286259 192.263935 
L 111.960381 192.263935 
L 111.960381 181.125606 
L 112.634502 181.125606 
L 112.634502 187.702875 
L 113.308624 187.702875 
L 113.308624 192.46374 
L 113.982745 192.46374 
L 113.982745 196.754078 
L 114.656867 196.754078 
L 114.656867 193.954037 
L 115.330988 193.954037 
L 115.330988 194.2312 
L 116.00511 194.2312 
L 116.00511 196.280811 
L 116.679231 196.280811 
L 116.679231 195.804876 
L 117.353353 195.804876 
L 117.353353 197.196295 
L 118.027474 197.196295 
L 118.027474 198.373799 
L 118.701596 198.373799 
L 118.701596 197.949794 
L 119.375718 197.949794 
L 119.375718 198.851798 
L 120.049839 198.851798 
L 120.049839 198.59651 
L 120.723961 198.59651 
L 120.723961 197.891976 
L 121.398082 197.891976 
L 121.398082 202.886265 
L 122.072204 202.886265 
L 122.072204 206.555704 
L 122.746325 206.555704 
L 122.746325 205.975533 
L 123.420447 205.975533 
L 123.420447 203.14405 
L 124.094568 203.14405 
L 124.094568 202.433646 
L 124.76869 202.433646 
L 124.76869 203.255503 
L 125.442811 203.255503 
L 125.442811 206.951565 
L 126.116933 206.951565 
L 126.116933 209.347338 
L 126.791054 209.347338 
L 126.791054 209.82539 
L 127.465176 209.82539 
L 127.465176 214.068505 
L 128.139297 214.068505 
L 128.139297 215.922399 
L 128.813419 215.922399 
L 128.813419 220.331642 
L 129.48754 220.331642 
L 129.48754 215.956427 
L 130.161662 215.956427 
L 130.161662 218.448061 
L 130.835784 218.448061 
L 130.835784 220.669737 
L 131.509905 220.669737 
L 131.509905 220.164609 
L 132.184027 220.164609 
L 132.184027 221.318688 
L 132.858148 221.318688 
L 132.858148 224.286495 
L 133.53227 224.286495 
L 133.53227 225.059384 
L 134.206391 225.059384 
L 134.206391 234.259286 
L 134.880513 234.259286 
L 134.880513 229.033423 
L 135.554634 229.033423 
L 135.554634 230.476391 
L 136.228756 230.476391 
L 136.228756 228.656469 
L 136.902877 228.656469 
L 136.902877 229.677081 
L 137.576999 229.677081 
L 137.576999 229.874081 
L 138.25112 229.874081 
L 138.25112 230.40861 
L 138.925242 230.40861 
L 138.925242 234.178184 
L 139.599363 234.178184 
L 139.599363 235.428808 
L 140.273485 235.428808 
L 140.273485 235.172667 
L 140.947606 235.172667 
L 140.947606 233.856865 
L 141.621728 233.856865 
L 141.621728 230.206567 
L 142.29585 230.206567 
L 142.29585 230.74972 
L 142.969971 230.74972 
L 142.969971 230.341047 
L 143.644093 230.341047 
L 143.644093 229.417251 
L 144.318214 229.417251 
L 144.318214 228.781372 
L 144.992336 228.781372 
L 144.992336 225.217427 
L 145.666457 225.217427 
L 145.666457 223.836028 
L 146.340579 223.836028 
L 146.340579 222.77385 
L 147.0147 222.77385 
L 147.0147 218.913185 
L 147.688822 218.913185 
L 147.688822 213.154643 
L 148.362943 213.154643 
L 148.362943 213.035739 
L 149.037065 213.035739 
L 149.037065 213.214348 
L 149.711186 213.214348 
L 149.711186 215.319129 
L 150.385308 215.319129 
L 150.385308 214.991304 
L 151.059429 214.991304 
L 151.059429 217.658039 
L 151.733551 217.658039 
L 151.733551 217.843467 
L 152.407672 217.843467 
L 152.407672 216.613627 
L 153.081794 216.613627 
L 153.081794 217.147366 
L 154.430037 217.219565 
L 154.430037 221.539529 
L 155.104159 221.539529 
L 155.104159 222.633073 
L 155.77828 222.633073 
L 155.77828 219.71199 
L 156.452402 219.71199 
L 156.452402 220.50001 
L 157.126523 220.50001 
L 157.126523 221.230996 
L 157.800645 221.230996 
L 157.800645 220.206243 
L 158.474766 220.206243 
L 158.474766 220.50001 
L 159.148888 220.50001 
L 159.148888 218.640615 
L 159.823009 218.640615 
L 159.823009 219.469149 
L 160.497131 219.469149 
L 160.497131 221.230996 
L 161.171252 221.230996 
L 161.171252 221.406747 
L 161.845374 221.406747 
L 161.845374 220.669737 
L 163.193617 220.584703 
L 163.193617 221.274797 
L 163.867738 221.274797 
L 163.867738 220.542314 
L 165.215982 220.457792 
L 165.215982 219.428946 
L 165.890103 219.428946 
L 165.890103 219.630731 
L 166.564225 219.630731 
L 166.564225 220.040199 
L 167.238346 220.040199 
L 167.238346 219.671321 
L 167.912468 219.671321 
L 167.912468 219.998892 
L 169.260711 219.998892 
L 169.260711 220.206243 
L 169.934832 220.206243 
L 169.934832 219.875455 
L 171.957197 219.793563 
L 171.957197 219.671321 
L 172.631318 219.671321 
L 172.631318 219.308798 
L 173.30544 219.308798 
L 173.30544 218.181412 
L 174.653683 218.105843 
L 174.653683 215.652142 
L 175.327804 215.652142 
L 175.327804 214.700564 
L 176.001926 214.700564 
L 176.001926 214.445458 
L 176.676048 214.445458 
L 176.676048 214.636497 
L 177.350169 214.636497 
L 177.350169 214.224749 
L 178.024291 214.224749 
L 178.024291 214.068505 
L 178.698412 214.068505 
L 178.698412 213.394486 
L 179.372534 213.394486 
L 179.372534 210.922327 
L 180.046655 210.922327 
L 180.046655 206.973777 
L 180.720777 206.973777 
L 180.720777 206.840855 
L 181.394898 206.840855 
L 181.394898 208.518072 
L 182.06902 208.518072 
L 182.06902 208.162357 
L 182.743141 208.162357 
L 182.743141 205.576644 
L 183.417263 205.576644 
L 183.417263 203.386281 
L 184.091384 203.386281 
L 184.091384 202.704048 
L 184.765506 202.704048 
L 184.765506 201.470876 
L 185.439627 201.470876 
L 185.439627 198.036821 
L 186.113749 198.036821 
L 186.113749 205.28749 
L 186.78787 205.28749 
L 186.78787 203.840938 
L 187.461992 203.840938 
L 187.461992 203.994699 
L 188.136113 203.994699 
L 188.136113 204.760807 
L 188.810235 204.760807 
L 188.810235 203.311451 
L 190.158478 203.367549 
L 190.158478 202.273057 
L 190.8326 202.273057 
L 190.8326 200.913669 
L 191.506721 200.913669 
L 191.506721 201.505125 
L 192.180843 201.505125 
L 192.180843 201.198872 
L 192.854964 201.198872 
L 192.854964 200.997152 
L 193.529086 200.997152 
L 193.529086 200.354603 
L 194.203207 200.354603 
L 194.203207 201.470876 
L 194.877329 201.470876 
L 194.877329 201.8159 
L 195.55145 201.8159 
L 195.55145 202.025662 
L 196.225572 202.025662 
L 196.225572 202.344279 
L 196.899693 202.344279 
L 196.899693 202.776746 
L 197.573815 202.776746 
L 197.573815 203.956153 
L 198.247936 203.956153 
L 198.247936 203.707312 
L 198.922058 203.707312 
L 198.922058 203.879273 
L 200.270301 203.917678 
L 200.270301 203.688292 
L 200.944423 203.688292 
L 200.944423 202.308638 
L 201.618544 202.308638 
L 201.618544 201.436683 
L 202.292666 201.436683 
L 202.292666 200.93034 
L 203.640909 200.863738 
L 203.640909 200.160778 
L 204.31503 200.160778 
L 204.31503 199.433892 
L 204.989152 199.433892 
L 204.989152 199.049129 
L 205.663273 199.049129 
L 205.663273 199.310001 
L 207.011516 199.202191 
L 207.011516 199.589789 
L 207.685638 199.589789 
L 207.685638 199.279142 
L 208.359759 199.279142 
L 208.359759 199.48054 
L 209.708002 199.44943 
L 209.708002 198.761342 
L 210.382124 198.761342 
L 210.382124 198.28537 
L 211.056245 198.28537 
L 211.056245 196.563492 
L 211.730367 196.563492 
L 211.730367 194.499772 
L 212.404489 194.499772 
L 212.404489 192.83505 
L 213.07861 192.83505 
L 213.07861 191.472517 
L 213.752732 191.472517 
L 213.752732 190.212891 
L 214.426853 190.212891 
L 214.426853 189.688323 
L 215.100975 189.688323 
L 215.100975 187.428916 
L 215.775096 187.428916 
L 215.775096 184.76841 
L 216.449218 184.76841 
L 216.449218 184.939327 
L 217.123339 184.939327 
L 217.123339 182.344645 
L 217.797461 182.344645 
L 217.797461 181.880878 
L 218.471582 181.880878 
L 218.471582 179.917951 
L 219.145704 179.917951 
L 219.145704 175.624927 
L 219.819825 175.624927 
L 219.819825 173.894145 
L 220.493947 173.894145 
L 220.493947 173.320501 
L 221.168068 173.320501 
L 221.168068 171.081538 
L 221.84219 171.081538 
L 221.84219 164.799069 
L 222.516311 164.799069 
L 222.516311 162.384552 
L 223.190433 162.384552 
L 223.190433 159.008301 
L 223.864555 159.008301 
L 223.864555 151.684537 
L 224.538676 151.684537 
L 224.538676 147.046177 
L 225.212798 147.046177 
L 225.212798 152.688092 
L 225.886919 152.688092 
L 225.886919 165.453243 
L 226.561041 165.453243 
L 226.561041 153.720658 
L 227.235162 153.720658 
L 227.235162 149.913629 
L 227.909284 149.913629 
L 227.909284 152.09006 
L 228.583405 152.09006 
L 228.583405 154.063225 
L 229.257527 154.063225 
L 229.257527 154.247508 
L 229.931648 154.247508 
L 229.931648 154.853149 
L 230.60577 154.853149 
L 230.60577 153.885893 
L 231.279891 153.885893 
L 231.279891 152.956024 
L 232.628134 153.062101 
L 232.628134 151.526085 
L 233.976377 151.476713 
L 233.976377 153.110183 
L 234.650499 153.110183 
L 234.650499 153.711811 
L 235.324621 153.711811 
L 235.324621 156.121352 
L 235.998742 156.121352 
L 235.998742 157.371733 
L 236.672864 157.371733 
L 236.672864 155.867011 
L 237.346985 155.867011 
L 237.346985 155.679709 
L 238.021107 155.679709 
L 238.021107 156.542085 
L 238.695228 156.542085 
L 238.695228 157.954395 
L 239.36935 157.954395 
L 239.36935 162.053279 
L 240.043471 162.053279 
L 240.043471 163.008061 
L 240.717593 163.008061 
L 240.717593 158.671991 
L 241.391714 158.671991 
L 241.391714 157.997722 
L 242.065836 157.997722 
L 242.065836 159.72807 
L 242.739957 159.72807 
L 242.739957 158.555875 
L 243.414079 158.555875 
L 243.414079 157.642915 
L 244.0882 157.642915 
L 244.0882 156.416991 
L 244.762322 156.416991 
L 244.762322 155.998727 
L 245.436443 155.998727 
L 245.436443 156.786335 
L 246.110565 156.786335 
L 246.110565 155.486359 
L 246.784687 155.486359 
L 246.784687 157.428646 
L 247.458808 157.428646 
L 247.458808 155.279517 
L 248.13293 155.279517 
L 248.13293 154.743248 
L 248.807051 154.743248 
L 248.807051 153.79512 
L 249.481173 153.79512 
L 249.481173 151.831244 
L 250.155294 151.831244 
L 250.155294 153.953783 
L 250.829416 153.953783 
L 250.829416 153.179062 
L 251.503537 153.179062 
L 251.503537 152.831808 
L 252.177659 152.831808 
L 252.177659 152.317301 
L 252.85178 152.317301 
L 252.85178 153.022688 
L 253.525902 153.022688 
L 253.525902 152.730259 
L 254.200023 152.730259 
L 254.200023 152.461834 
L 254.874145 152.461834 
L 254.874145 153.192865 
L 255.548266 153.192865 
L 255.548266 152.819936 
L 256.222388 152.819936 
L 256.222388 152.239631 
L 256.896509 152.239631 
L 256.896509 150.560003 
L 257.570631 150.560003 
L 257.570631 144.293307 
L 258.244752 144.293307 
L 258.244752 143.276811 
L 258.918874 143.276811 
L 258.918874 142.065717 
L 259.592996 142.065717 
L 259.592996 142.466214 
L 260.267117 142.466214 
L 260.267117 137.866369 
L 260.941239 137.866369 
L 260.941239 132.24025 
L 261.61536 132.24025 
L 261.61536 128.56316 
L 262.289482 128.56316 
L 262.289482 124.574837 
L 262.963603 124.574837 
L 262.963603 115.915673 
L 263.637725 115.915673 
L 263.637725 113.224037 
L 264.311846 113.224037 
L 264.311846 106.261724 
L 264.985968 106.261724 
L 264.985968 107.876309 
L 265.660089 107.876309 
L 265.660089 116.236987 
L 266.334211 116.236987 
L 266.334211 111.672484 
L 267.008332 111.672484 
L 267.008332 112.00877 
L 267.682454 112.00877 
L 267.682454 116.860602 
L 268.356575 116.860602 
L 268.356575 117.652605 
L 269.030697 117.652605 
L 269.030697 115.705029 
L 269.704818 115.705029 
L 269.704818 115.47317 
L 270.37894 115.47317 
L 270.37894 112.860817 
L 271.053062 112.860817 
L 271.053062 112.999422 
L 271.727183 112.999422 
L 271.727183 112.475814 
L 272.401305 112.475814 
L 272.401305 113.157225 
L 273.075426 113.157225 
L 273.075426 112.884448 
L 273.749548 112.884448 
L 273.749548 114.135929 
L 274.423669 114.135929 
L 274.423669 113.985909 
L 275.097791 113.985909 
L 275.097791 113.159028 
L 275.771912 113.159028 
L 275.771912 114.109503 
L 276.446034 114.109503 
L 276.446034 116.797127 
L 277.120155 116.797127 
L 277.120155 119.310307 
L 277.794277 119.310307 
L 277.794277 118.632682 
L 278.468398 118.632682 
L 278.468398 120.389825 
L 279.14252 120.389825 
L 279.14252 121.128252 
L 279.816641 121.128252 
L 279.816641 120.830952 
L 280.490763 120.830952 
L 280.490763 117.313822 
L 281.164884 117.313822 
L 281.164884 118.303194 
L 282.513128 118.266719 
L 282.513128 118.808811 
L 283.187249 118.808811 
L 283.187249 120.631263 
L 283.861371 120.631263 
L 283.861371 120.162619 
L 284.535492 120.162619 
L 284.535492 123.920505 
L 285.209614 123.920505 
L 285.209614 126.227832 
L 285.883735 126.227832 
L 285.883735 125.341871 
L 286.557857 125.341871 
L 286.557857 129.88933 
L 287.231978 129.88933 
L 287.231978 125.266644 
L 287.9061 125.266644 
L 287.9061 124.262146 
L 288.580221 124.262146 
L 288.580221 123.984168 
L 289.254343 123.984168 
L 289.254343 125.182562 
L 289.928464 125.182562 
L 289.928464 125.618007 
L 290.602586 125.618007 
L 290.602586 126.341728 
L 291.950829 126.300328 
L 291.950829 126.068835 
L 292.62495 126.068835 
L 292.62495 125.753932 
L 293.299072 125.753932 
L 293.299072 124.001408 
L 293.973194 124.001408 
L 293.973194 122.352149 
L 294.647315 122.352149 
L 294.647315 120.335419 
L 295.321437 120.335419 
L 295.321437 118.60764 
L 295.995558 118.60764 
L 295.995558 117.605145 
L 296.66968 117.605145 
L 296.66968 118.01217 
L 297.343801 118.01217 
L 297.343801 119.956687 
L 298.017923 119.956687 
L 298.017923 119.379423 
L 298.692044 119.379423 
L 298.692044 119.977688 
L 299.366166 119.977688 
L 299.366166 121.081662 
L 300.040287 121.081662 
L 300.040287 119.658533 
L 300.714409 119.658533 
L 300.714409 118.124706 
L 301.38853 118.124706 
L 301.38853 118.820942 
L 302.062652 118.820942 
L 302.062652 118.498142 
L 302.736773 118.498142 
L 302.736773 118.830383 
L 303.410895 118.830383 
L 303.410895 118.631345 
L 304.085016 118.631345 
L 304.085016 118.953497 
L 304.759138 118.953497 
L 304.759138 119.881042 
L 305.43326 119.881042 
L 305.43326 120.29778 
L 306.107381 120.29778 
L 306.107381 120.06548 
L 307.455624 120.048321 
L 307.455624 120.774285 
L 308.129746 120.774285 
L 308.129746 122.513428 
L 308.803867 122.513428 
L 308.803867 122.717693 
L 309.477989 122.717693 
L 309.477989 123.160006 
L 310.826232 123.218914 
L 310.826232 124.514665 
L 311.500353 124.514665 
L 311.500353 124.096912 
L 312.174475 124.096912 
L 312.174475 124.648071 
L 312.848596 124.648071 
L 312.848596 124.489938 
L 313.522718 124.489938 
L 313.522718 125.531122 
L 314.196839 125.531122 
L 314.196839 128.131174 
L 314.870961 128.131174 
L 314.870961 127.662163 
L 315.545082 127.662163 
L 315.545082 129.613386 
L 316.219204 129.613386 
L 316.219204 130.473416 
L 316.893326 130.473416 
L 316.893326 131.982901 
L 317.567447 131.982901 
L 317.567447 130.295319 
L 318.241569 130.295319 
L 318.241569 128.464854 
L 318.91569 128.464854 
L 318.91569 128.754674 
L 319.589812 128.754674 
L 319.589812 130.573341 
L 320.263933 130.573341 
L 320.263933 130.947845 
L 320.938055 130.947845 
L 320.938055 131.749211 
L 321.612176 131.749211 
L 321.612176 132.225587 
L 322.286298 132.225587 
L 322.286298 131.186705 
L 322.960419 131.186705 
L 322.960419 127.155239 
L 323.634541 127.155239 
L 323.634541 128.731449 
L 324.308662 128.731449 
L 324.308662 130.616396 
L 324.982784 130.616396 
L 324.982784 129.573456 
L 325.656905 129.573456 
L 325.656905 129.439041 
L 326.331027 129.439041 
L 326.331027 129.292169 
L 327.005148 129.292169 
L 327.005148 129.547065 
L 327.67927 129.547065 
L 327.67927 131.074779 
L 328.353391 131.074779 
L 328.353391 130.538019 
L 329.027513 130.538019 
L 329.027513 133.403177 
L 329.701635 133.403177 
L 329.701635 132.114352 
L 330.375756 132.114352 
L 330.375756 132.244077 
L 331.049878 132.244077 
L 331.049878 133.488272 
L 331.723999 133.488272 
L 331.723999 135.31902 
L 332.398121 135.31902 
L 332.398121 134.387629 
L 333.072242 134.387629 
L 333.072242 136.488521 
L 333.746364 136.488521 
L 333.746364 141.731687 
L 334.420485 141.731687 
L 334.420485 141.158864 
L 335.094607 141.158864 
L 335.094607 139.501359 
L 335.768728 139.501359 
L 335.768728 136.974826 
L 336.44285 136.974826 
L 336.44285 140.845533 
L 337.116971 140.845533 
L 337.116971 140.141354 
L 337.791093 140.141354 
L 337.791093 140.401023 
L 338.465214 140.401023 
L 338.465214 140.551939 
L 339.139336 140.551939 
L 339.139336 139.430339 
L 339.813457 139.430339 
L 339.813457 138.441572 
L 340.487579 138.441572 
L 340.487579 138.947685 
L 341.161701 138.947685 
L 341.161701 137.790683 
L 341.835822 137.790683 
L 341.835822 136.458886 
L 342.509944 136.458886 
L 342.509944 136.077387 
L 343.184065 136.077387 
L 343.184065 134.607005 
L 343.858187 134.607005 
L 343.858187 135.011955 
L 344.532308 135.011955 
L 344.532308 137.088541 
L 345.20643 137.088541 
L 345.20643 138.508469 
L 345.880551 138.508469 
L 345.880551 137.835563 
L 346.554673 137.835563 
L 346.554673 138.380863 
L 347.228794 138.380863 
L 347.228794 137.215795 
L 347.902916 137.215795 
L 347.902916 138.680978 
L 348.577037 138.680978 
L 348.577037 140.487667 
L 349.92528 140.522614 
L 349.92528 139.309526 
L 350.599402 139.309526 
L 350.599402 140.18038 
L 351.947645 140.242786 
L 351.947645 138.98895 
L 352.621767 138.98895 
L 352.621767 139.192952 
L 353.295888 139.192952 
L 353.295888 138.85928 
L 353.97001 138.85928 
L 353.97001 139.174324 
L 354.644131 139.174324 
L 354.644131 139.710414 
L 355.318253 139.710414 
L 355.318253 139.139774 
L 355.992374 139.139774 
L 355.992374 139.357768 
L 356.666496 139.357768 
L 356.666496 139.990579 
L 357.340617 139.990579 
L 357.340617 140.499939 
L 358.014739 140.499939 
L 358.014739 140.053348 
L 358.68886 140.053348 
L 358.68886 139.874765 
L 359.362982 139.874765 
L 359.362982 138.084967 
L 360.037103 138.084967 
L 360.037103 138.529956 
L 360.711225 138.529956 
L 360.711225 138.924891 
L 361.385346 138.924891 
L 361.385346 138.204012 
L 362.059468 138.204012 
L 362.059468 137.692945 
L 362.733589 137.692945 
L 362.733589 136.578459 
L 363.407711 136.578459 
L 363.407711 135.331573 
L 364.081833 135.331573 
L 364.081833 135.111133 
L 364.755954 135.111133 
L 364.755954 135.944643 
L 366.104197 135.851309 
L 366.104197 134.755973 
L 366.778319 134.755973 
L 366.778319 135.072427 
L 367.45244 135.072427 
L 367.45244 135.614154 
L 368.126562 135.614154 
L 368.126562 135.749344 
L 368.800683 135.749344 
L 368.800683 136.387312 
L 369.474805 136.387312 
L 369.474805 137.142409 
L 370.148926 137.142409 
L 370.148926 140.184101 
L 370.823048 140.184101 
L 370.823048 140.009021 
L 371.497169 140.009021 
L 371.497169 140.290413 
L 372.171291 140.290413 
L 372.171291 139.815268 
L 373.519534 139.771439 
L 373.519534 138.576442 
L 374.193655 138.576442 
L 374.193655 139.409707 
L 374.867777 139.409707 
L 374.867777 139.991501 
L 375.541899 139.991501 
L 375.541899 139.823496 
L 376.21602 139.823496 
L 376.21602 139.475261 
L 376.890142 139.475261 
L 376.890142 139.017973 
L 377.564263 139.017973 
L 377.564263 139.138889 
L 378.238385 139.138889 
L 378.238385 138.354411 
L 379.586628 138.446711 
L 379.586628 137.87637 
L 380.260749 137.87637 
L 380.260749 137.173829 
L 380.934871 137.173829 
L 380.934871 136.127191 
L 381.608992 136.127191 
L 381.608992 135.201234 
L 382.283114 135.201234 
L 382.283114 132.357285 
L 382.957235 132.357285 
L 382.957235 127.956149 
L 383.631357 127.956149 
L 383.631357 128.885863 
L 384.305478 128.885863 
L 384.305478 133.625415 
L 384.9796 133.625415 
L 384.9796 132.955721 
L 385.653721 132.955721 
L 385.653721 132.503369 
L 386.327843 132.503369 
L 386.327843 132.660231 
L 387.001965 132.660231 
L 387.001965 130.526258 
L 387.676086 130.526258 
L 387.676086 130.258719 
L 388.350208 130.258719 
L 388.350208 128.88967 
L 389.024329 128.88967 
L 389.024329 127.341381 
L 389.698451 127.341381 
L 389.698451 126.504265 
L 390.372572 126.504265 
L 390.372572 125.407224 
L 391.046694 125.407224 
L 391.046694 126.264769 
L 391.720815 126.264769 
L 391.720815 125.457065 
L 392.394937 125.457065 
L 392.394937 126.512036 
L 393.74318 126.534881 
L 393.74318 126.705785 
L 394.417301 126.705785 
L 394.417301 125.78629 
L 395.091423 125.78629 
L 395.091423 126.691571 
L 395.765544 126.691571 
L 395.765544 128.969229 
L 396.439666 128.969229 
L 396.439666 129.1882 
L 397.113787 129.1882 
L 397.113787 128.635042 
L 397.787909 128.635042 
L 397.787909 129.460266 
L 398.46203 129.460266 
L 398.46203 129.920151 
L 399.136152 129.920151 
L 399.136152 129.549871 
L 399.810274 129.549871 
L 399.810274 129.38106 
L 400.484395 129.38106 
L 400.484395 128.233201 
L 401.158517 128.233201 
L 401.158517 127.16576 
L 402.50676 127.202373 
L 402.50676 126.591857 
L 403.180881 126.591857 
L 403.180881 127.039855 
L 403.855003 127.039855 
L 403.855003 127.894325 
L 404.529124 127.894325 
L 404.529124 127.366156 
L 405.877367 127.417315 
L 405.877367 127.776892 
L 406.551489 127.776892 
L 406.551489 127.346435 
L 407.899732 127.317644 
L 407.899732 127.480804 
L 408.573853 127.480804 
L 408.573853 127.239553 
L 409.922096 127.167263 
L 409.922096 127.03338 
L 410.596218 127.03338 
L 410.596218 126.696472 
L 411.27034 126.696472 
L 411.27034 126.380314 
L 411.944461 126.380314 
L 411.944461 125.623129 
L 412.618583 125.623129 
L 412.618583 125.934177 
L 413.292704 125.934177 
L 413.292704 125.572894 
L 413.966826 125.572894 
L 413.966826 125.74222 
L 414.640947 125.74222 
L 414.640947 125.219992 
L 415.315069 125.219992 
L 415.315069 125.442285 
L 415.98919 125.442285 
L 415.98919 125.569177 
L 416.663312 125.569177 
L 416.663312 126.032715 
L 417.337433 126.032715 
L 417.337433 125.773622 
L 418.011555 125.773622 
L 418.011555 123.024975 
L 418.685676 123.024975 
L 418.685676 121.953691 
L 419.359798 121.953691 
L 419.359798 120.23712 
L 420.033919 120.23712 
L 420.033919 120.446192 
L 420.708041 120.446192 
L 420.708041 116.86398 
L 421.382162 116.86398 
L 421.382162 114.906978 
L 422.056284 114.906978 
L 422.056284 119.911907 
L 422.730406 119.911907 
L 422.730406 118.624999 
L 423.404527 118.624999 
L 423.404527 117.400292 
L 424.078649 117.400292 
L 424.078649 116.962809 
L 424.75277 116.962809 
L 424.75277 117.556839 
L 426.775135 117.610236 
L 426.775135 117.414475 
L 427.449256 117.414475 
L 427.449256 117.605145 
L 428.123378 117.605145 
L 428.123378 117.794988 
L 428.797499 117.794988 
L 428.797499 119.464054 
L 429.471621 119.464054 
L 429.471621 120.637509 
L 430.145742 120.637509 
L 430.145742 120.19174 
L 431.493985 120.250826 
L 431.493985 120.703759 
L 432.168107 120.703759 
L 432.168107 120.472063 
L 433.51635 120.526458 
L 433.51635 120.682389 
L 434.864593 120.663984 
L 434.864593 119.373886 
L 435.538715 119.373886 
L 435.538715 118.912153 
L 436.212836 118.912153 
L 436.212836 119.345182 
L 437.561079 119.403321 
L 437.561079 119.866867 
L 438.235201 119.866867 
L 438.235201 119.421349 
L 440.257565 119.407827 
L 440.257565 119.156989 
L 440.931687 119.156989 
L 440.931687 118.459671 
L 441.605808 118.459671 
L 441.605808 118.333804 
L 442.27993 118.333804 
L 442.27993 118.668459 
L 442.954051 118.668459 
L 442.954051 118.171065 
L 443.628173 118.171065 
L 443.628173 116.841877 
L 444.302294 116.841877 
L 444.302294 115.629003 
L 444.976416 115.629003 
L 444.976416 116.30956 
L 445.650538 116.30956 
L 445.650538 115.777246 
L 446.324659 115.777246 
L 446.324659 116.402508 
L 446.998781 116.402508 
L 446.998781 115.334472 
L 449.021145 115.327903 
L 449.021145 115.530175 
L 449.695267 115.530175 
L 449.695267 114.601063 
L 451.04351 114.504464 
L 451.04351 114.457563 
L 451.717631 114.457563 
L 451.717631 114.247929 
L 452.391753 114.247929 
L 452.391753 113.840941 
L 453.065874 113.840941 
L 453.065874 110.80152 
L 453.739996 110.80152 
L 453.739996 110.426983 
L 454.414117 110.426983 
L 454.414117 109.660653 
L 455.088239 109.660653 
L 455.088239 106.726928 
L 455.76236 106.726928 
L 455.76236 110.880886 
L 456.436482 110.880886 
L 456.436482 113.458911 
L 457.110604 113.458911 
L 457.110604 112.814649 
L 457.784725 112.814649 
L 457.784725 111.226974 
L 458.458847 111.226974 
L 458.458847 111.51205 
L 459.132968 111.51205 
L 459.132968 110.693795 
L 459.80709 110.693795 
L 459.80709 109.259222 
L 460.481211 109.259222 
L 460.481211 108.675447 
L 461.155333 108.675447 
L 461.155333 109.218172 
L 461.829454 109.218172 
L 461.829454 108.882114 
L 462.503576 108.882114 
L 462.503576 107.789515 
L 463.177697 107.789515 
L 463.177697 106.428494 
L 463.851819 106.428494 
L 463.851819 105.959156 
L 464.52594 105.959156 
L 464.52594 104.636608 
L 465.200062 104.636608 
L 465.200062 103.859781 
L 465.874183 103.859781 
L 465.874183 105.209405 
L 466.548305 105.209405 
L 466.548305 104.367907 
L 467.222426 104.367907 
L 467.222426 107.516876 
L 467.896548 107.516876 
L 467.896548 106.654191 
L 468.570669 106.654191 
L 468.570669 109.72685 
L 469.244791 109.72685 
L 469.244791 108.086571 
L 469.918913 108.086571 
L 469.918913 107.287828 
L 470.593034 107.287828 
L 470.593034 105.180471 
L 471.267156 105.180471 
L 471.267156 104.895735 
L 471.941277 104.895735 
L 471.941277 105.596581 
L 472.615399 105.596581 
L 472.615399 105.049182 
L 473.28952 105.049182 
L 473.28952 104.495172 
L 473.963642 104.495172 
L 473.963642 103.580486 
L 474.637763 103.580486 
L 474.637763 102.51666 
L 475.311885 102.51666 
L 475.311885 99.857958 
L 475.986006 99.857958 
L 475.986006 98.35402 
L 476.660128 98.35402 
L 476.660128 97.828091 
L 477.334249 97.828091 
L 477.334249 97.628758 
L 478.008371 97.628758 
L 478.008371 94.226571 
L 478.682492 94.226571 
L 478.682492 90.294643 
L 479.356614 90.294643 
L 479.356614 92.531004 
L 480.030735 92.531004 
L 480.030735 90.395355 
L 480.704857 90.395355 
L 480.704857 88.010254 
L 481.378979 88.010254 
L 481.378979 87.049881 
L 482.0531 87.049881 
L 482.0531 87.956676 
L 482.727222 87.956676 
L 482.727222 88.558148 
L 483.401343 88.558148 
L 483.401343 88.327886 
L 484.075465 88.327886 
L 484.075465 89.606032 
L 484.749586 89.606032 
L 484.749586 89.275045 
L 486.097829 89.206926 
L 486.097829 89.599051 
L 486.771951 89.599051 
L 486.771951 91.278185 
L 487.446072 91.278185 
L 487.446072 94.613021 
L 488.120194 94.613021 
L 488.120194 91.698738 
L 488.794315 91.698738 
L 488.794315 87.629772 
L 489.468437 87.629772 
L 489.468437 88.344991 
L 490.142558 88.344991 
L 490.142558 86.77045 
L 491.490801 86.817403 
L 491.490801 83.097703 
L 492.164923 83.097703 
L 492.164923 80.434832 
L 492.839045 80.434832 
L 492.839045 77.841601 
L 493.513166 77.841601 
L 493.513166 79.446091 
L 494.187288 79.446091 
L 494.187288 78.054442 
L 494.861409 78.054442 
L 494.861409 77.837465 
L 495.535531 77.837465 
L 495.535531 75.424245 
L 496.209652 75.424245 
L 496.209652 77.797303 
L 496.883774 77.797303 
L 496.883774 78.058815 
L 497.557895 78.058815 
L 497.557895 80.452792 
L 498.232017 80.452792 
L 498.232017 81.494682 
L 498.906138 81.494682 
L 498.906138 81.943463 
L 499.58026 81.943463 
L 499.58026 80.09239 
L 500.254381 80.09239 
L 500.254381 78.884395 
L 500.928503 78.884395 
L 500.928503 78.168635 
L 501.602624 78.168635 
L 501.602624 77.537626 
L 502.276746 77.537626 
L 502.276746 75.797306 
L 502.950867 75.797306 
L 502.950867 72.308236 
L 504.299111 72.288019 
L 504.299111 71.549631 
L 504.973232 71.549631 
L 504.973232 72.021047 
L 505.647354 72.021047 
L 505.647354 69.786957 
L 506.321475 69.786957 
L 506.321475 66.881187 
L 506.995597 66.881187 
L 506.995597 66.590486 
L 507.669718 66.590486 
L 507.669718 71.587151 
L 508.34384 71.587151 
L 508.34384 65.491557 
L 509.017961 65.491557 
L 509.017961 64.514191 
L 510.366204 64.591005 
L 510.366204 60.618352 
L 511.040326 60.618352 
L 511.040326 58.608655 
L 511.714447 58.608655 
L 511.714447 53.601731 
L 512.388569 53.601731 
L 512.388569 51.817253 
L 513.06269 51.817253 
L 513.06269 50.025359 
L 513.736812 50.025359 
L 513.736812 47.036675 
L 514.410933 47.036675 
L 514.410933 53.704322 
L 515.085055 53.704322 
L 515.085055 50.98338 
L 515.759177 50.98338 
L 515.759177 55.562276 
L 516.433298 55.562276 
L 516.433298 51.858788 
L 517.10742 51.858788 
L 517.10742 50.303265 
L 517.781541 50.303265 
L 517.781541 54.468192 
L 518.455663 54.468192 
L 518.455663 54.046955 
L 519.129784 54.046955 
L 519.129784 57.493847 
L 519.803906 57.493847 
L 519.803906 58.766189 
L 520.478027 58.766189 
L 520.478027 57.631732 
L 521.152149 57.631732 
L 521.152149 60.022167 
L 521.82627 60.022167 
L 521.82627 64.618494 
L 523.174513 64.508396 
L 523.174513 62.909877 
L 523.848635 62.909877 
L 523.848635 60.074704 
L 524.522756 60.074704 
L 524.522756 57.975847 
L 525.196878 57.975847 
L 525.196878 61.08875 
L 525.870999 61.08875 
L 525.870999 59.759521 
L 526.545121 59.759521 
L 526.545121 57.47498 
L 527.219243 57.47498 
L 527.219243 61.919136 
L 527.893364 61.919136 
L 527.893364 62.362778 
L 528.567486 62.362778 
L 528.567486 64.374025 
L 529.241607 64.374025 
L 529.241607 62.876238 
L 529.915729 62.876238 
L 529.915729 63.784132 
L 530.58985 63.784132 
L 530.58985 65.273796 
L 531.263972 65.273796 
L 531.263972 68.478767 
L 531.938093 68.478767 
L 531.938093 68.605159 
L 533.286336 68.612138 
L 533.286336 65.420851 
L 534.634579 65.389048 
L 534.634579 62.827518 
L 535.308701 62.827518 
L 535.308701 62.970483 
L 535.982822 62.970483 
L 535.982822 61.752996 
L 536.656944 61.752996 
L 536.656944 60.972793 
L 537.331065 60.972793 
L 537.331065 61.818576 
L 538.005187 61.818576 
L 538.005187 64.124567 
L 538.679308 64.124567 
L 538.679308 63.939333 
L 539.35343 63.939333 
L 539.35343 64.51608 
L 540.027552 64.51608 
L 540.027552 66.468343 
L 540.701673 66.468343 
L 540.701673 66.942506 
L 541.375795 66.942506 
L 541.375795 66.530773 
L 542.724038 66.514453 
L 542.724038 66.179989 
L 543.398159 66.179989 
L 543.398159 69.342526 
L 544.072281 69.342526 
L 544.072281 69.55012 
L 544.746402 69.55012 
L 544.746402 68.685413 
L 545.420524 68.685413 
L 545.420524 70.654255 
L 546.094645 70.654255 
L 546.094645 71.629857 
L 546.768767 71.629857 
L 546.768767 69.107973 
L 548.11701 69.101146 
L 548.11701 70.073622 
L 548.791131 70.073622 
L 548.791131 70.34278 
L 549.465253 70.34278 
L 549.465253 66.866563 
L 550.813496 66.765305 
L 550.813496 65.302404 
L 551.487618 65.302404 
L 551.487618 64.697081 
L 552.161739 64.697081 
L 552.161739 66.742273 
L 552.835861 66.742273 
L 552.835861 68.818443 
L 553.509982 68.818443 
L 553.509982 70.413593 
L 554.184104 70.413593 
L 554.184104 70.269385 
L 554.858225 70.269385 
L 554.858225 69.556932 
L 555.532347 69.556932 
L 555.532347 69.429548 
L 556.206468 69.429548 
L 556.206468 68.252742 
L 556.88059 68.252742 
L 556.88059 67.897372 
L 557.554711 67.897372 
L 557.554711 66.900625 
L 558.228833 66.900625 
L 558.228833 70.562097 
L 558.902954 70.562097 
L 558.902954 70.084365 
L 559.577076 70.084365 
L 559.577076 69.521953 
L 560.925319 69.526326 
L 560.925319 69.244957 
L 561.59944 69.244957 
L 561.59944 69.100924 
L 562.273562 69.100924 
L 562.273562 69.44455 
L 562.947684 69.44455 
L 562.947684 69.276405 
L 564.295927 69.252567 
L 564.295927 70.287887 
L 564.970048 70.287887 
L 564.970048 69.482343 
L 566.318291 69.533228 
L 566.318291 69.603738 
L 566.992413 69.603738 
L 566.992413 70.165798 
L 567.666534 70.165798 
L 567.666534 69.967385 
L 568.340656 69.967385 
L 568.340656 69.394522 
L 569.014777 69.394522 
L 569.014777 69.811705 
L 569.688899 69.811705 
L 569.688899 72.430465 
L 570.36302 72.430465 
L 570.36302 75.681488 
L 571.037142 75.681488 
L 571.037142 77.951644 
L 571.711263 77.951644 
L 571.711263 80.653962 
L 572.385385 80.653962 
L 572.385385 78.764353 
L 573.059506 78.764353 
L 573.059506 81.117894 
L 573.733628 81.117894 
L 573.733628 82.016531 
L 574.40775 82.016531 
L 574.40775 83.728422 
L 575.081871 83.728422 
L 575.081871 82.204459 
L 575.755993 82.204459 
L 575.755993 80.265181 
L 576.430114 80.265181 
L 576.430114 80.692093 
L 577.104236 80.692093 
L 577.104236 80.975745 
L 577.778357 80.975745 
L 577.778357 80.095977 
L 578.452479 80.095977 
L 578.452479 79.357155 
L 579.1266 79.357155 
L 579.1266 81.680181 
L 579.800722 81.680181 
L 579.800722 81.472095 
L 580.474843 81.472095 
L 580.474843 81.798956 
L 581.148965 81.798956 
L 581.148965 82.022924 
L 582.497208 82.087852 
L 582.497208 82.722896 
L 583.845451 82.807858 
L 583.845451 83.184257 
L 584.519572 83.184257 
L 584.519572 81.777258 
L 585.193694 81.777258 
L 585.193694 81.900957 
L 585.867816 81.900957 
L 585.867816 80.121581 
L 586.541937 80.121581 
L 586.541937 79.009447 
L 587.216059 79.009447 
L 587.216059 80.627701 
L 588.564302 80.730347 
L 588.564302 80.335508 
L 589.912545 80.366558 
L 589.912545 80.068211 
L 590.586666 80.068211 
L 590.586666 79.578818 
L 592.609031 79.477725 
L 592.609031 79.139184 
L 593.283152 79.139184 
L 593.283152 75.412114 
L 593.957274 75.412114 
L 593.957274 73.933442 
L 594.631395 73.933442 
L 594.631395 74.730722 
L 595.305517 74.730722 
L 595.305517 74.223274 
L 595.979638 74.223274 
L 595.979638 73.772005 
L 596.65376 73.772005 
L 596.65376 73.282596 
L 597.327882 73.282596 
L 597.327882 73.803701 
L 598.002003 73.803701 
L 598.002003 73.453814 
L 598.676125 73.453814 
L 598.676125 72.33495 
L 599.350246 72.33495 
L 599.350246 70.011367 
L 600.024368 70.011367 
L 600.024368 65.1627 
L 600.698489 65.1627 
L 600.698489 67.171586 
L 601.372611 67.171586 
L 601.372611 66.151295 
L 602.046732 66.151295 
L 602.046732 63.27091 
L 602.720854 63.27091 
L 602.720854 64.438623 
L 603.394975 64.438623 
L 603.394975 64.79148 
L 604.069097 64.79148 
L 604.069097 65.14796 
L 604.743218 65.14796 
L 604.743218 65.361412 
L 605.41734 65.361412 
L 605.41734 62.995815 
L 606.091461 62.995815 
L 606.091461 62.01596 
L 606.765583 62.01596 
L 606.765583 58.799266 
L 607.439704 58.799266 
L 607.439704 58.188633 
L 608.113826 58.188633 
L 608.113826 59.263152 
L 608.787947 59.263152 
L 608.787947 58.527255 
L 609.462069 58.527255 
L 609.462069 55.605305 
L 610.136191 55.605305 
L 610.136191 57.709699 
L 610.810312 57.709699 
L 610.810312 61.144107 
L 611.484434 61.144107 
L 611.484434 59.24587 
L 612.158555 59.24587 
L 612.158555 60.711556 
L 612.832677 60.711556 
L 612.832677 61.523757 
L 613.506798 61.523757 
L 613.506798 59.361202 
L 614.18092 59.361202 
L 614.18092 57.568678 
L 614.855041 57.568678 
L 614.855041 57.908136 
L 615.529163 57.908136 
L 615.529163 60.411521 
L 616.203284 60.411521 
L 616.203284 59.78916 
L 616.877406 59.78916 
L 616.877406 60.212822 
L 617.551527 60.212822 
L 617.551527 59.70228 
L 618.225649 59.70228 
L 618.225649 61.354632 
L 618.89977 61.354632 
L 618.89977 59.17863 
L 619.573892 59.17863 
L 619.573892 59.446 
L 620.248013 59.446 
L 620.248013 60.114523 
L 620.922135 60.114523 
L 620.922135 59.80379 
L 622.270378 59.874433 
L 622.270378 61.12432 
L 622.9445 61.12432 
L 622.9445 64.639442 
L 623.618621 64.639442 
L 623.618621 64.310637 
L 624.292743 64.310637 
L 624.292743 64.758468 
L 624.966864 64.758468 
L 624.966864 63.650984 
L 625.640986 63.650984 
L 625.640986 64.409894 
L 626.315107 64.409894 
L 626.315107 64.942435 
L 626.989229 64.942435 
L 626.989229 64.56606 
L 627.66335 64.56606 
L 627.66335 63.458584 
L 628.337472 63.458584 
L 628.337472 61.674877 
L 629.011593 61.674877 
L 629.011593 61.971836 
L 630.359836 61.876656 
L 630.359836 62.577976 
L 631.033958 62.577976 
L 631.033958 63.542456 
L 631.708079 63.542456 
L 631.708079 64.685494 
L 632.382201 64.685494 
L 632.382201 67.109972 
L 633.056323 67.109972 
L 633.056323 67.467457 
L 633.730444 67.467457 
L 633.730444 66.340387 
L 634.404566 66.340387 
L 634.404566 67.381787 
L 635.078687 67.381787 
L 635.078687 66.439002 
L 635.752809 66.439002 
L 635.752809 67.392586 
L 636.42693 67.392586 
L 636.42693 68.319084 
L 637.101052 68.319084 
L 637.101052 67.38963 
L 637.775173 67.38963 
L 637.775173 67.213226 
L 638.449295 67.213226 
L 638.449295 67.067498 
L 639.123416 67.067498 
L 639.123416 67.432085 
L 639.797538 67.432085 
L 639.797538 66.922428 
L 640.471659 66.922428 
L 640.471659 65.628002 
L 641.145781 65.628002 
L 641.145781 64.868406 
L 641.819902 64.868406 
L 641.819902 62.89895 
L 642.494024 62.89895 
L 642.494024 63.324312 
L 643.168145 63.324312 
L 643.168145 64.299413 
L 643.842267 64.299413 
L 643.842267 62.020246 
L 645.19051 61.941583 
L 645.19051 60.967809 
L 645.864632 60.967809 
L 645.864632 60.755034 
L 646.538753 60.755034 
L 646.538753 59.685527 
L 647.212875 59.685527 
L 647.212875 60.070383 
L 647.886996 60.070383 
L 647.886996 61.154226 
L 648.561118 61.154226 
L 648.561118 63.172223 
L 649.235239 63.172223 
L 649.235239 63.783121 
L 649.909361 63.783121 
L 649.909361 62.5076 
L 650.583482 62.5076 
L 650.583482 65.323275 
L 651.257604 65.323275 
L 651.257604 72.616127 
L 651.931725 72.616127 
L 651.931725 73.581292 
L 652.605847 73.581292 
L 652.605847 70.542401 
L 653.279968 70.542401 
L 653.279968 68.880467 
L 653.95409 68.880467 
L 653.95409 71.603844 
L 654.628211 71.603844 
L 654.628211 68.535655 
L 655.302333 68.535655 
L 655.302333 66.946403 
L 655.976455 66.946403 
L 655.976455 68.338366 
L 657.324698 68.342316 
L 657.324698 67.188075 
L 657.998819 67.188075 
L 657.998819 67.563569 
L 658.672941 67.563569 
L 658.672941 65.949859 
L 659.347062 65.949859 
L 659.347062 63.551112 
L 660.021184 63.551112 
L 660.021184 62.933052 
L 660.695305 62.933052 
L 660.695305 60.825606 
L 661.369427 60.825606 
L 661.369427 63.102843 
L 662.043548 63.102843 
L 662.043548 61.781455 
L 662.71767 61.781455 
L 662.71767 61.503078 
L 663.391791 61.503078 
L 663.391791 63.303885 
L 664.065913 63.303885 
L 664.065913 61.373933 
L 664.740034 61.373933 
L 664.740034 60.021693 
L 665.414156 60.021693 
L 665.414156 61.254321 
L 666.088277 61.254321 
L 666.088277 60.925805 
L 666.762399 60.925805 
L 666.762399 61.585492 
L 668.110642 61.627054 
L 668.110642 62.008978 
L 669.458885 62.108791 
L 669.458885 62.235573 
L 670.133007 62.235573 
L 670.133007 62.495928 
L 670.807128 62.495928 
L 670.807128 62.073792 
L 672.155371 62.119931 
L 672.155371 62.216885 
L 673.503614 62.168523 
L 673.503614 61.277603 
L 674.177736 61.277603 
L 674.177736 58.360322 
L 674.851857 58.360322 
L 674.851857 57.793427 
L 675.525979 57.793427 
L 675.525979 58.072879 
L 676.2001 58.072879 
L 676.2001 57.021637 
L 676.874222 57.021637 
L 676.874222 57.372383 
L 677.548343 57.372383 
L 677.548343 56.761403 
L 678.896586 56.846703 
L 678.896586 57.028202 
L 679.570708 57.028202 
L 679.570708 57.442258 
L 680.24483 57.442258 
L 680.24483 56.745087 
L 680.918951 56.745087 
L 680.918951 60.113902 
L 681.593073 60.113902 
L 681.593073 59.973075 
L 682.267194 59.973075 
L 682.267194 59.762312 
L 682.941316 59.762312 
L 682.941316 58.548917 
L 683.615437 58.548917 
L 683.615437 59.560196 
L 684.289559 59.560196 
L 684.289559 59.03733 
L 684.96368 59.03733 
L 684.96368 58.748107 
L 685.637802 58.748107 
L 685.637802 59.316836 
L 686.311923 59.316836 
L 686.311923 59.080755 
L 686.986045 59.080755 
L 686.986045 57.732792 
L 687.660166 57.732792 
L 687.660166 57.498932 
L 688.334288 57.498932 
L 688.334288 57.038527 
L 689.008409 57.038527 
L 689.008409 55.015481 
L 689.682531 55.015481 
L 689.682531 53.896367 
L 690.356652 53.896367 
L 690.356652 53.652888 
L 691.030774 53.652888 
L 691.030774 53.13319 
L 691.704896 53.13319 
L 691.704896 51.236446 
L 692.379017 51.236446 
L 692.379017 50.170258 
L 693.053139 50.170258 
L 693.053139 49.622636 
L 693.72726 49.622636 
L 693.72726 47.287824 
L 694.401382 47.287824 
L 694.401382 46.748503 
L 695.075503 46.748503 
L 695.075503 48.391845 
L 695.749625 48.391845 
L 695.749625 46.688817 
L 696.423746 46.688817 
L 696.423746 46.524514 
L 697.097868 46.524514 
L 697.097868 47.788925 
L 697.771989 47.788925 
L 697.771989 46.634573 
L 698.446111 46.634573 
L 698.446111 42.780264 
L 699.120232 42.780264 
L 699.120232 42.176115 
L 699.794354 42.176115 
L 699.794354 39.981769 
L 700.468475 39.981769 
L 700.468475 38.143634 
L 701.142597 38.143634 
L 701.142597 35.319414 
L 701.816718 35.319414 
L 701.816718 31.543428 
L 702.49084 31.543428 
L 702.49084 33.7564 
L 703.164962 33.7564 
L 703.164962 33.0098 
L 703.839083 33.0098 
L 703.839083 33.476907 
L 704.513205 33.476907 
L 704.513205 35.902036 
L 705.187326 35.902036 
L 705.187326 37.033782 
L 705.861448 37.033782 
L 705.861448 35.233063 
L 706.535569 35.233063 
L 706.535569 32.910844 
L 707.209691 32.910844 
L 707.209691 28.16381 
L 707.883812 28.16381 
L 707.883812 27.667174 
L 708.557934 27.667174 
L 708.557934 26.931514 
L 709.232055 26.931514 
L 709.232055 24.189415 
L 709.906177 24.189415 
L 709.906177 26.313603 
L 710.580298 26.313603 
L 710.580298 28.739184 
L 711.25442 28.739184 
L 711.25442 27.238206 
L 711.928541 27.238206 
L 711.928541 25.628741 
L 712.602663 25.628741 
L 712.602663 23.724051 
L 713.276784 23.724051 
L 713.276784 23.864535 
L 713.950906 23.864535 
L 713.950906 23.420225 
L 714.625028 23.420225 
L 714.625028 25.544844 
L 715.299149 25.544844 
L 715.299149 24.27131 
L 715.973271 24.27131 
L 715.973271 23.185619 
L 716.647392 23.185619 
L 716.647392 23.072277 
L 717.321514 23.072277 
L 717.321514 23.414146 
L 717.995635 23.414146 
L 717.995635 21.526599 
L 718.669757 21.526599 
L 718.669757 22.707318 
L 719.343878 22.707318 
L 719.343878 25.02991 
L 720.018 25.02991 
L 720.018 26.967729 
L 720.692121 26.967729 
L 720.692121 25.11796 
L 721.366243 25.11796 
L 721.366243 23.738741 
L 722.714486 23.677421 
L 722.714486 23.909871 
L 723.388607 23.909871 
L 723.388607 27.995497 
L 724.062729 27.995497 
L 724.062729 32.932367 
L 724.73685 32.932367 
L 724.73685 34.229674 
L 725.410972 34.229674 
L 725.410972 32.105587 
L 726.085094 32.105587 
L 726.085094 32.736132 
L 726.759215 32.736132 
L 726.759215 32.977257 
L 727.433337 32.977257 
L 727.433337 35.034741 
L 728.107458 35.034741 
L 728.107458 33.78605 
L 728.78158 33.78605 
L 728.78158 32.171612 
L 729.455701 32.171612 
L 729.455701 33.728348 
L 730.129823 33.728348 
L 730.129823 34.299526 
L 730.803944 34.299526 
L 730.803944 34.41083 
L 731.478066 34.41083 
L 731.478066 34.780417 
L 732.152187 34.780417 
L 732.152187 34.561415 
L 732.826309 34.561415 
L 732.826309 34.993645 
L 733.50043 34.993645 
L 733.50043 35.438479 
L 734.174552 35.438479 
L 734.174552 36.110411 
L 734.848673 36.110411 
L 734.848673 35.772519 
L 735.522795 35.772519 
L 735.522795 32.731845 
L 736.196916 32.731845 
L 736.196916 30.137382 
L 736.871038 30.137382 
L 736.871038 32.274482 
L 737.545159 32.274482 
L 737.545159 28.964209 
L 738.219281 28.964209 
L 738.219281 28.508349 
L 738.893403 28.508349 
L 738.893403 27.851964 
L 739.567524 27.851964 
L 739.567524 27.996366 
L 740.241646 27.996366 
L 740.241646 26.77651 
L 740.915767 26.77651 
L 740.915767 26.975758 
L 741.589889 26.975758 
L 741.589889 27.807528 
L 742.26401 27.807528 
L 742.26401 26.597141 
L 742.938132 26.597141 
L 742.938132 28.293998 
L 744.286375 28.302797 
L 744.286375 27.528485 
L 744.960496 27.528485 
L 744.960496 29.797432 
L 746.308739 29.839663 
L 746.308739 30.745848 
L 746.982861 30.745848 
L 746.982861 27.554116 
L 747.656982 27.554116 
L 747.656982 24.437952 
L 748.331104 24.437952 
L 748.331104 24.712785 
L 749.005225 24.712785 
L 749.005225 23.671015 
L 749.679347 23.671015 
L 749.679347 22.057396 
L 750.353469 22.057396 
L 750.353469 22.494748 
L 751.02759 22.494748 
L 751.02759 22.617116 
L 751.701712 22.617116 
L 751.701712 22.139162 
L 752.375833 22.139162 
L 752.375833 21.726092 
L 753.049955 21.726092 
L 753.049955 21.61328 
L 753.724076 21.61328 
L 753.724076 21.105522 
L 754.398198 21.105522 
L 754.398198 21.51673 
L 755.072319 21.51673 
L 755.072319 23.403123 
L 755.746441 23.403123 
L 755.746441 23.604942 
L 756.420562 23.604942 
L 756.420562 24.645312 
L 757.094684 24.645312 
L 757.094684 23.732698 
L 757.768805 23.732698 
L 757.768805 26.837399 
L 758.442927 26.837399 
L 758.442927 27.583867 
L 759.117048 27.583867 
L 759.117048 27.986263 
L 759.79117 27.986263 
L 759.79117 28.250593 
L 760.465291 28.250593 
L 760.465291 27.028288 
L 761.139413 27.028288 
L 761.139413 26.377701 
L 761.813535 26.377701 
L 761.813535 28.143588 
L 762.487656 28.143588 
L 762.487656 27.730903 
L 763.161778 27.730903 
L 763.161778 29.690238 
L 763.835899 29.690238 
L 763.835899 30.32022 
L 764.510021 30.32022 
L 764.510021 29.700617 
L 765.184142 29.700617 
L 765.184142 30.054124 
L 765.858264 30.054124 
L 765.858264 34.038647 
L 766.532385 34.038647 
L 766.532385 33.012668 
L 767.206507 33.012668 
L 767.206507 32.395894 
L 767.880628 32.395894 
L 767.880628 32.859541 
L 768.55475 32.859541 
L 768.55475 29.344901 
L 769.228871 29.344901 
L 769.228871 30.044299 
L 769.902993 30.044299 
L 769.902993 29.010435 
L 770.577114 29.010435 
L 770.577114 31.210809 
L 771.251236 31.210809 
L 771.251236 32.746886 
L 771.925357 32.746886 
L 771.925357 32.51504 
L 772.599479 32.51504 
L 772.599479 30.012987 
L 773.273601 30.012987 
L 773.273601 32.332782 
L 773.947722 32.332782 
L 773.947722 31.944305 
L 774.621844 31.944305 
L 774.621844 31.631675 
L 775.295965 31.631675 
L 775.295965 30.133309 
L 775.970087 30.133309 
L 775.970087 29.795715 
L 776.644208 29.795715 
L 776.644208 27.940653 
L 777.31833 27.940653 
L 777.31833 28.541708 
L 777.992451 28.541708 
L 777.992451 28.052006 
L 778.666573 28.052006 
L 778.666573 30.105106 
L 779.340694 30.105106 
L 779.340694 31.217552 
L 780.014816 31.217552 
L 780.014816 31.067687 
L 780.688937 31.067687 
L 780.688937 30.559555 
L 781.363059 30.559555 
L 781.363059 31.554341 
L 782.03718 31.554341 
L 782.03718 31.392598 
L 782.711302 31.392598 
L 782.711302 32.069838 
L 783.385423 32.069838 
L 783.385423 33.481055 
L 784.059545 33.481055 
L 784.059545 36.633046 
L 784.733667 36.633046 
L 784.733667 37.273532 
L 785.407788 37.273532 
L 785.407788 38.27211 
L 786.08191 38.27211 
L 786.08191 37.131027 
L 786.756031 37.131027 
L 786.756031 37.899036 
L 787.430153 37.899036 
L 787.430153 36.155427 
L 788.104274 36.155427 
L 788.104274 37.550257 
L 788.778396 37.550257 
L 788.778396 36.555871 
L 789.452517 36.555871 
L 789.452517 38.52047 
L 790.126639 38.52047 
L 790.126639 43.332906 
L 790.80076 43.332906 
L 790.80076 45.298125 
L 791.474882 45.298125 
L 791.474882 44.744076 
L 792.149003 44.744076 
L 792.149003 45.132941 
L 792.823125 45.132941 
L 792.823125 46.689113 
L 793.497246 46.689113 
L 793.497246 45.668662 
L 794.171368 45.668662 
L 794.171368 44.25646 
L 794.845489 44.25646 
L 794.845489 45.625138 
L 795.519611 45.625138 
L 795.519611 45.059873 
L 796.193733 45.059873 
L 796.193733 42.777264 
L 796.867854 42.777264 
L 796.867854 44.533142 
L 797.541976 44.533142 
L 797.541976 42.205277 
L 798.216097 42.205277 
L 798.216097 42.934481 
L 799.56434 42.966172 
L 799.56434 42.05726 
L 800.238462 42.05726 
L 800.238462 41.747748 
L 800.912583 41.747748 
L 800.912583 42.741028 
L 801.586705 42.741028 
L 801.586705 44.432396 
L 802.260826 44.432396 
L 802.260826 45.615119 
L 802.934948 45.615119 
L 802.934948 46.07816 
L 804.283191 46.033634 
L 804.283191 46.630763 
L 804.957312 46.630763 
L 804.957312 44.050817 
L 805.631434 44.050817 
L 805.631434 46.182975 
L 806.305555 46.182975 
L 806.305555 46.346562 
L 806.979677 46.346562 
L 806.979677 46.630217 
L 807.653798 46.630217 
L 807.653798 46.822873 
L 808.32792 46.822873 
L 808.32792 46.593017 
L 809.002042 46.593017 
L 809.002042 45.683392 
L 809.676163 45.683392 
L 809.676163 46.45488 
L 811.024406 46.518357 
L 811.024406 46.339272 
L 811.698528 46.339272 
L 811.698528 46.749798 
L 812.372649 46.749798 
L 812.372649 45.752923 
L 813.046771 45.752923 
L 813.046771 45.017437 
L 813.720892 45.017437 
L 813.720892 45.697797 
L 814.395014 45.697797 
L 814.395014 44.91238 
L 815.069135 44.91238 
L 815.069135 48.609199 
L 815.743257 48.609199 
L 815.743257 49.79598 
L 816.417378 49.79598 
L 816.417378 49.675464 
L 817.0915 49.675464 
L 817.0915 50.300873 
L 817.765621 50.300873 
L 817.765621 49.96731 
L 818.439743 49.96731 
L 818.439743 49.069417 
L 821.136229 49.025032 
L 821.136229 49.733093 
L 821.810351 49.733093 
L 821.810351 49.397979 
L 823.158594 49.480984 
L 823.158594 49.857834 
L 824.506837 49.763335 
L 824.506837 49.4956 
L 825.180958 49.4956 
L 825.180958 49.043142 
L 825.85508 49.043142 
L 825.85508 45.929463 
L 826.529201 45.929463 
L 826.529201 44.687386 
L 827.203323 44.687386 
L 827.203323 43.127001 
L 827.877444 43.127001 
L 827.877444 42.835837 
L 828.551566 42.835837 
L 828.551566 42.237279 
L 829.225687 42.237279 
L 829.225687 42.506042 
L 829.899809 42.506042 
L 829.899809 43.135099 
L 830.57393 43.135099 
L 830.57393 44.201972 
L 831.248052 44.201972 
L 831.248052 43.651678 
L 831.922174 43.651678 
L 831.922174 41.466553 
L 832.596295 41.466553 
L 832.596295 41.859893 
L 833.270417 41.859893 
L 833.270417 42.40873 
L 834.61866 42.494425 
L 834.61866 43.464131 
L 835.292781 43.464131 
L 835.292781 45.623931 
L 835.966903 45.623931 
L 835.966903 41.359622 
L 836.641024 41.359622 
L 836.641024 39.562416 
L 837.315146 39.562416 
L 837.315146 39.305798 
L 837.989267 39.305798 
L 837.989267 38.777951 
L 839.33751 38.752996 
L 839.33751 38.927011 
L 840.685753 38.833865 
L 840.685753 37.161604 
L 842.033996 37.102979 
L 842.033996 38.16335 
L 842.708118 38.16335 
L 842.708118 39.087863 
L 843.38224 39.087863 
L 843.38224 37.693554 
L 844.056361 37.693554 
L 844.056361 38.712802 
L 844.730483 38.712802 
L 844.730483 37.654305 
L 845.404604 37.654305 
L 845.404604 39.050108 
L 846.078726 39.050108 
L 846.078726 39.710745 
L 846.752847 39.710745 
L 846.752847 39.235047 
L 847.426969 39.235047 
L 847.426969 39.733834 
L 848.10109 39.733834 
L 848.10109 39.954662 
L 848.775212 39.954662 
L 848.775212 38.970636 
L 849.449333 38.970636 
L 849.449333 39.34776 
L 850.797576 39.354163 
L 850.797576 40.456981 
L 851.471698 40.456981 
L 851.471698 41.056268 
L 852.145819 41.056268 
L 852.145819 40.066407 
L 852.819941 40.066407 
L 852.819941 37.393453 
L 853.494062 37.393453 
L 853.494062 37.139536 
L 854.168184 37.139536 
L 854.168184 36.997608 
L 854.842306 36.997608 
L 854.842306 36.789113 
L 855.516427 36.789113 
L 855.516427 37.17583 
L 856.190549 37.17583 
L 856.190549 37.052838 
L 857.538792 37.157915 
L 857.538792 37.464967 
L 858.212913 37.464967 
L 858.212913 37.910213 
L 859.561156 37.811125 
L 859.561156 37.548945 
L 860.235278 37.548945 
L 860.235278 38.004487 
L 860.909399 38.004487 
L 860.909399 37.632625 
L 861.583521 37.632625 
L 861.583521 37.834312 
L 862.257642 37.834312 
L 862.257642 39.808312 
L 862.931764 39.808312 
L 862.931764 40.237847 
L 864.280007 40.297541 
L 864.280007 38.980826 
L 864.954128 38.980826 
L 864.954128 40.44374 
L 866.976493 40.473269 
L 866.976493 39.908031 
L 867.650615 39.908031 
L 867.650615 39.728179 
L 868.324736 39.728179 
L 868.324736 39.871706 
L 868.998858 39.871706 
L 868.998858 40.165938 
L 869.672979 40.165938 
L 869.672979 39.566286 
L 870.347101 39.566286 
L 870.347101 38.930546 
L 871.695344 38.825102 
L 871.695344 39.73219 
L 872.369465 39.73219 
L 872.369465 38.39254 
L 873.043587 38.39254 
L 873.043587 37.549661 
L 873.717708 37.549661 
L 873.717708 34.751973 
L 874.39183 34.751973 
L 874.39183 34.63557 
L 875.065951 34.63557 
L 875.065951 33.818324 
L 875.740073 33.818324 
L 875.740073 34.052502 
L 876.414194 34.052502 
L 876.414194 33.085522 
L 877.088316 33.085522 
L 877.088316 33.199906 
L 878.436559 33.126828 
L 878.436559 33.600659 
L 879.110681 33.600659 
L 879.110681 32.461311 
L 880.458924 32.424358 
L 880.458924 31.283866 
L 881.133045 31.283866 
L 881.133045 29.603506 
L 881.807167 29.603506 
L 881.807167 30.629601 
L 882.481288 30.629601 
L 882.481288 30.277161 
L 883.15541 30.277161 
L 883.15541 30.113231 
L 883.829531 30.113231 
L 883.829531 29.38897 
L 884.503653 29.38897 
L 884.503653 29.520039 
L 885.177774 29.520039 
L 885.177774 30.119671 
L 885.851896 30.119671 
L 885.851896 29.174627 
L 886.526017 29.174627 
L 886.526017 27.860247 
L 887.194182 27.860247 
L 887.194182 27.860247 
" clip-path="url(#p46612d6654)" style="fill: none; stroke: #3572c6; stroke-width: 1.2; stroke-linecap: square"/>
   </g>
   <g id="line2d_76">
    <path d="M 75.557818 21.105522 
L 887.194182 21.105522 
L 887.194182 21.105522 
" clip-path="url(#p46612d6654)" style="fill: none; stroke: #83a83b; stroke-width: 1.2; stroke-linecap: square"/>
   </g>
   <g id="line2d_77">
    <path d="M 75.557818 50.300873 
L 887.194182 50.300873 
L 887.194182 50.300873 
" clip-path="url(#p46612d6654)" style="fill: none; stroke: #c44e52; stroke-width: 1.2; stroke-linecap: square"/>
   </g>
   <g id="line2d_78">
    <path d="M 754.398198 301.512794 
L 754.398198 7.752794 
" clip-path="url(#p46612d6654)" style="fill: none; stroke: #83a83b; stroke-width: 1.2; stroke-linecap: square"/>
   </g>
   <g id="line2d_79">
    <path d="M 817.765621 301.512794 
L 817.765621 7.752794 
" clip-path="url(#p46612d6654)" style="fill: none; stroke: #c44e52; stroke-width: 1.2; stroke-linecap: square"/>
   </g>
   <g id="patch_3">
    <path d="M 34.976 301.512794 
L 34.976 7.752794 
" style="fill: none; stroke: #899ab8; stroke-width: 1.12; stroke-linejoin: miter; stroke-linecap: square"/>
   </g>
   <g id="patch_4">
    <path d="M 927.776 301.512794 
L 927.776 7.752794 
" style="fill: none; stroke: #899ab8; stroke-width: 1.12; stroke-linejoin: miter; stroke-linecap: square"/>
   </g>
   <g id="patch_5">
    <path d="M 34.976 301.512794 
L 927.776 301.512794 
" style="fill: none; stroke: #899ab8; stroke-width: 1.12; stroke-linejoin: miter; stroke-linecap: square"/>
   </g>
   <g id="patch_6">
    <path d="M 34.976 7.752794 
L 927.776 7.752794 
" style="fill: none; stroke: #899ab8; stroke-width: 1.12; stroke-linejoin: miter; stroke-linecap: square"/>
   </g>
   <g id="text_15">
    <!-- 64838.81 -->
    <g style="fill: #83a83b" transform="translate(198.584997 21.105522) scale(0.132 -0.132)">
     <defs>
      <path id="DejaVuSans-2e" d="M 684 794 
L 1344 794 
L 1344 0 
L 684 0 
L 684 794 
z
" transform="scale(0.015625)"/>
     </defs>
     <use xlink:href="#DejaVuSans-36"/>
     <use xlink:href="#DejaVuSans-34" x="63.623047"/>
     <use xlink:href="#DejaVuSans-38" x="127.246094"/>
     <use xlink:href="#DejaVuSans-33" x="190.869141"/>
     <use xlink:href="#DejaVuSans-38" x="254.492188"/>
     <use xlink:href="#DejaVuSans-2e" x="318.115234"/>
     <use xlink:href="#DejaVuSans-38" x="349.902344"/>
     <use xlink:href="#DejaVuSans-31" x="413.525391"/>
    </g>
   </g>
   <g id="text_16">
    <!-- 16194.75 -->
    <g style="fill: #c44e52" transform="translate(198.584997 50.300873) scale(0.132 -0.132)">
     <defs>
      <path id="DejaVuSans-39" d="M 703 97 
L 703 672 
Q 941 559 1184 500 
Q 1428 441 1663 441 
Q 2288 441 2617 861 
Q 2947 1281 2994 2138 
Q 2813 1869 2534 1725 
Q 2256 1581 1919 1581 
Q 1219 1581 811 2004 
Q 403 2428 403 3163 
Q 403 3881 828 4315 
Q 1253 4750 1959 4750 
Q 2769 4750 3195 4129 
Q 3622 3509 3622 2328 
Q 3622 1225 3098 567 
Q 2575 -91 1691 -91 
Q 1453 -91 1209 -44 
Q 966 3 703 97 
z
M 1959 2075 
Q 2384 2075 2632 2365 
Q 2881 2656 2881 3163 
Q 2881 3666 2632 3958 
Q 2384 4250 1959 4250 
Q 1534 4250 1286 3958 
Q 1038 3666 1038 3163 
Q 1038 2656 1286 2365 
Q 1534 2075 1959 2075 
z
" transform="scale(0.015625)"/>
      <path id="DejaVuSans-37" d="M 525 4666 
L 3525 4666 
L 3525 4397 
L 1831 0 
L 1172 0 
L 2766 4134 
L 525 4134 
L 525 4666 
z
" transform="scale(0.015625)"/>
     </defs>
     <use xlink:href="#DejaVuSans-31"/>
     <use xlink:href="#DejaVuSans-36" x="63.623047"/>
     <use xlink:href="#DejaVuSans-31" x="127.246094"/>
     <use xlink:href="#DejaVuSans-39" x="190.869141"/>
     <use xlink:href="#DejaVuSans-34" x="254.492188"/>
     <use xlink:href="#DejaVuSans-2e" x="318.115234"/>
     <use xlink:href="#DejaVuSans-37" x="349.902344"/>
     <use xlink:href="#DejaVuSans-35" x="413.525391"/>
    </g>
   </g>
   <g id="legend_1">
    <g id="patch_7">
     <path d="M 820.618906 295.212794 
L 918.956 295.212794 
Q 921.476 295.212794 921.476 292.692794 
L 921.476 238.119044 
Q 921.476 235.599044 918.956 235.599044 
L 820.618906 235.599044 
Q 818.098906 235.599044 818.098906 238.119044 
L 818.098906 292.692794 
Q 818.098906 295.212794 820.618906 295.212794 
z
" style="fill: #373e4b; opacity: 0.8; stroke: #cccccc; stroke-width: 0.16; stroke-linejoin: miter"/>
    </g>
    <g id="line2d_80">
     <path d="M 823.138906 245.803076 
L 823.138906 245.803076 
L 835.738906 245.803076 
L 835.738906 245.803076 
L 848.338906 245.803076 
" style="fill: none; stroke: #3572c6; stroke-width: 1.2; stroke-linecap: square"/>
    </g>
    <g id="text_17">
     <!-- USD/BTC -->
     <g style="fill: #b1bed6" transform="translate(858.418906 250.213076) scale(0.126 -0.126)">
      <defs>
       <path id="DejaVuSans-55" d="M 556 4666 
L 1191 4666 
L 1191 1831 
Q 1191 1081 1462 751 
Q 1734 422 2344 422 
Q 2950 422 3222 751 
Q 3494 1081 3494 1831 
L 3494 4666 
L 4128 4666 
L 4128 1753 
Q 4128 841 3676 375 
Q 3225 -91 2344 -91 
Q 1459 -91 1007 375 
Q 556 841 556 1753 
L 556 4666 
z
" transform="scale(0.015625)"/>
       <path id="DejaVuSans-53" d="M 3425 4513 
L 3425 3897 
Q 3066 4069 2747 4153 
Q 2428 4238 2131 4238 
Q 1616 4238 1336 4038 
Q 1056 3838 1056 3469 
Q 1056 3159 1242 3001 
Q 1428 2844 1947 2747 
L 2328 2669 
Q 3034 2534 3370 2195 
Q 3706 1856 3706 1288 
Q 3706 609 3251 259 
Q 2797 -91 1919 -91 
Q 1588 -91 1214 -16 
Q 841 59 441 206 
L 441 856 
Q 825 641 1194 531 
Q 1563 422 1919 422 
Q 2459 422 2753 634 
Q 3047 847 3047 1241 
Q 3047 1584 2836 1778 
Q 2625 1972 2144 2069 
L 1759 2144 
Q 1053 2284 737 2584 
Q 422 2884 422 3419 
Q 422 4038 858 4394 
Q 1294 4750 2059 4750 
Q 2388 4750 2728 4690 
Q 3069 4631 3425 4513 
z
" transform="scale(0.015625)"/>
       <path id="DejaVuSans-2f" d="M 1625 4666 
L 2156 4666 
L 531 -594 
L 0 -594 
L 1625 4666 
z
" transform="scale(0.015625)"/>
       <path id="DejaVuSans-42" d="M 1259 2228 
L 1259 519 
L 2272 519 
Q 2781 519 3026 730 
Q 3272 941 3272 1375 
Q 3272 1813 3026 2020 
Q 2781 2228 2272 2228 
L 1259 2228 
z
M 1259 4147 
L 1259 2741 
L 2194 2741 
Q 2656 2741 2882 2914 
Q 3109 3088 3109 3444 
Q 3109 3797 2882 3972 
Q 2656 4147 2194 4147 
L 1259 4147 
z
M 628 4666 
L 2241 4666 
Q 2963 4666 3353 4366 
Q 3744 4066 3744 3513 
Q 3744 3084 3544 2831 
Q 3344 2578 2956 2516 
Q 3422 2416 3680 2098 
Q 3938 1781 3938 1306 
Q 3938 681 3513 340 
Q 3088 0 2303 0 
L 628 0 
L 628 4666 
z
" transform="scale(0.015625)"/>
       <path id="DejaVuSans-54" d="M -19 4666 
L 3928 4666 
L 3928 4134 
L 2272 4134 
L 2272 0 
L 1638 0 
L 1638 4134 
L -19 4134 
L -19 4666 
z
" transform="scale(0.015625)"/>
       <path id="DejaVuSans-43" d="M 4122 4306 
L 4122 3641 
Q 3803 3938 3442 4084 
Q 3081 4231 2675 4231 
Q 1875 4231 1450 3742 
Q 1025 3253 1025 2328 
Q 1025 1406 1450 917 
Q 1875 428 2675 428 
Q 3081 428 3442 575 
Q 3803 722 4122 1019 
L 4122 359 
Q 3791 134 3420 21 
Q 3050 -91 2638 -91 
Q 1578 -91 968 557 
Q 359 1206 359 2328 
Q 359 3453 968 4101 
Q 1578 4750 2638 4750 
Q 3056 4750 3426 4639 
Q 3797 4528 4122 4306 
z
" transform="scale(0.015625)"/>
      </defs>
      <use xlink:href="#DejaVuSans-55"/>
      <use xlink:href="#DejaVuSans-53" x="73.193359"/>
      <use xlink:href="#DejaVuSans-44" x="136.669922"/>
      <use xlink:href="#DejaVuSans-2f" x="213.671875"/>
      <use xlink:href="#DejaVuSans-42" x="247.363281"/>
      <use xlink:href="#DejaVuSans-54" x="315.966797"/>
      <use xlink:href="#DejaVuSans-43" x="371.175781"/>
     </g>
    </g>
    <g id="line2d_81">
     <path d="M 823.138906 264.297513 
L 823.138906 264.297513 
L 835.738906 264.297513 
L 835.738906 264.297513 
L 848.338906 264.297513 
" style="fill: none; stroke: #83a83b; stroke-width: 1.2; stroke-linecap: square"/>
    </g>
    <g id="text_18">
     <!-- Max -->
     <g style="fill: #b1bed6" transform="translate(858.418906 268.707513) scale(0.126 -0.126)">
      <defs>
       <path id="DejaVuSans-4d" d="M 628 4666 
L 1569 4666 
L 2759 1491 
L 3956 4666 
L 4897 4666 
L 4897 0 
L 4281 0 
L 4281 4097 
L 3078 897 
L 2444 897 
L 1241 4097 
L 1241 0 
L 628 0 
L 628 4666 
z
" transform="scale(0.015625)"/>
       <path id="DejaVuSans-78" d="M 3513 3500 
L 2247 1797 
L 3578 0 
L 2900 0 
L 1881 1375 
L 863 0 
L 184 0 
L 1544 1831 
L 300 3500 
L 978 3500 
L 1906 2253 
L 2834 3500 
L 3513 3500 
z
" transform="scale(0.015625)"/>
      </defs>
      <use xlink:href="#DejaVuSans-4d"/>
      <use xlink:href="#DejaVuSans-61" x="86.279297"/>
      <use xlink:href="#DejaVuSans-78" x="147.558594"/>
     </g>
    </g>
    <g id="line2d_82">
     <path d="M 823.138906 282.791951 
L 823.138906 282.791951 
L 835.738906 282.791951 
L 835.738906 282.791951 
L 848.338906 282.791951 
" style="fill: none; stroke: #c44e52; stroke-width: 1.2; stroke-linecap: square"/>
    </g>
    <g id="text_19">
     <!-- local_Min -->
     <g style="fill: #b1bed6" transform="translate(858.418906 287.201951) scale(0.126 -0.126)">
      <defs>
       <path id="DejaVuSans-6c" d="M 603 4863 
L 1178 4863 
L 1178 0 
L 603 0 
L 603 4863 
z
" transform="scale(0.015625)"/>
       <path id="DejaVuSans-6f" d="M 1959 3097 
Q 1497 3097 1228 2736 
Q 959 2375 959 1747 
Q 959 1119 1226 758 
Q 1494 397 1959 397 
Q 2419 397 2687 759 
Q 2956 1122 2956 1747 
Q 2956 2369 2687 2733 
Q 2419 3097 1959 3097 
z
M 1959 3584 
Q 2709 3584 3137 3096 
Q 3566 2609 3566 1747 
Q 3566 888 3137 398 
Q 2709 -91 1959 -91 
Q 1206 -91 779 398 
Q 353 888 353 1747 
Q 353 2609 779 3096 
Q 1206 3584 1959 3584 
z
" transform="scale(0.015625)"/>
       <path id="DejaVuSans-63" d="M 3122 3366 
L 3122 2828 
Q 2878 2963 2633 3030 
Q 2388 3097 2138 3097 
Q 1578 3097 1268 2742 
Q 959 2388 959 1747 
Q 959 1106 1268 751 
Q 1578 397 2138 397 
Q 2388 397 2633 464 
Q 2878 531 3122 666 
L 3122 134 
Q 2881 22 2623 -34 
Q 2366 -91 2075 -91 
Q 1284 -91 818 406 
Q 353 903 353 1747 
Q 353 2603 823 3093 
Q 1294 3584 2113 3584 
Q 2378 3584 2631 3529 
Q 2884 3475 3122 3366 
z
" transform="scale(0.015625)"/>
       <path id="DejaVuSans-5f" d="M 3263 -1063 
L 3263 -1509 
L -63 -1509 
L -63 -1063 
L 3263 -1063 
z
" transform="scale(0.015625)"/>
       <path id="DejaVuSans-69" d="M 603 3500 
L 1178 3500 
L 1178 0 
L 603 0 
L 603 3500 
z
M 603 4863 
L 1178 4863 
L 1178 4134 
L 603 4134 
L 603 4863 
z
" transform="scale(0.015625)"/>
       <path id="DejaVuSans-6e" d="M 3513 2113 
L 3513 0 
L 2938 0 
L 2938 2094 
Q 2938 2591 2744 2837 
Q 2550 3084 2163 3084 
Q 1697 3084 1428 2787 
Q 1159 2491 1159 1978 
L 1159 0 
L 581 0 
L 581 3500 
L 1159 3500 
L 1159 2956 
Q 1366 3272 1645 3428 
Q 1925 3584 2291 3584 
Q 2894 3584 3203 3211 
Q 3513 2838 3513 2113 
z
" transform="scale(0.015625)"/>
      </defs>
      <use xlink:href="#DejaVuSans-6c"/>
      <use xlink:href="#DejaVuSans-6f" x="27.783203"/>
      <use xlink:href="#DejaVuSans-63" x="88.964844"/>
      <use xlink:href="#DejaVuSans-61" x="143.945312"/>
      <use xlink:href="#DejaVuSans-6c" x="205.224609"/>
      <use xlink:href="#DejaVuSans-5f" x="233.007812"/>
      <use xlink:href="#DejaVuSans-4d" x="283.007812"/>
      <use xlink:href="#DejaVuSans-69" x="369.287109"/>
      <use xlink:href="#DejaVuSans-6e" x="397.070312"/>
     </g>
    </g>
   </g>
  </g>
 </g>
 <defs>
  <clipPath id="p46612d6654">
   <rect x="34.976" y="7.752794" width="892.8" height="293.76"/>
  </clipPath>
 </defs>
</svg>
