<?xml version="1.0" encoding="utf-8" standalone="no"?>
<!DOCTYPE svg PUBLIC "-//W3C//DTD SVG 1.1//EN"
  "http://www.w3.org/Graphics/SVG/1.1/DTD/svg11.dtd">
<svg xmlns:xlink="http://www.w3.org/1999/xlink" width="952.88375pt" height="358.290693pt" viewBox="0 0 952.88375 358.290693" xmlns="http://www.w3.org/2000/svg" version="1.1">
 <metadata>
  <rdf:RDF xmlns:dc="http://purl.org/dc/elements/1.1/" xmlns:cc="http://creativecommons.org/ns#" xmlns:rdf="http://www.w3.org/1999/02/22-rdf-syntax-ns#">
   <cc:Work>
    <dc:type rdf:resource="http://purl.org/dc/dcmitype/StillImage"/>
    <dc:date>2023-12-02T05:03:38.215928</dc:date>
    <dc:format>image/svg+xml</dc:format>
    <dc:creator>
     <cc:Agent>
      <dc:title>Matplotlib v3.8.2, https://matplotlib.org/</dc:title>
     </cc:Agent>
    </dc:creator>
   </cc:Work>
  </rdf:RDF>
 </metadata>
 <defs>
  <style type="text/css">*{stroke-linejoin: round; stroke-linecap: butt}</style>
 </defs>
 <g id="figure_1">
  <g id="patch_1">
   <path d="M 0 358.290693 
L 952.88375 358.290693 
L 952.88375 0 
L 0 0 
z
" style="fill: #373e4b"/>
  </g>
  <g id="axes_1">
   <g id="patch_2">
    <path d="M 52.88375 300.96 
L 945.68375 300.96 
L 945.68375 7.2 
L 52.88375 7.2 
z
" style="fill: #373e4b"/>
   </g>
   <g id="matplotlib.axis_1">
    <g id="xtick_1">
     <g id="line2d_1">
      <path d="M 99.800045 300.96 
L 99.800045 7.2 
" clip-path="url(#pe437d1463f)" style="fill: none; stroke: #546379; stroke-width: 1.12; stroke-linecap: square"/>
     </g>
     <g id="line2d_2"/>
     <g id="text_1">
      <!-- 2018 -->
      <g style="fill: #b1bed6" transform="translate(70.719005 330.884854) rotate(-30) scale(0.126 -0.126)">
       <defs>
        <path id="DejaVuSans-32" d="M 1228 531 
L 3431 531 
L 3431 0 
L 469 0 
L 469 531 
Q 828 903 1448 1529 
Q 2069 2156 2228 2338 
Q 2531 2678 2651 2914 
Q 2772 3150 2772 3378 
Q 2772 3750 2511 3984 
Q 2250 4219 1831 4219 
Q 1534 4219 1204 4116 
Q 875 4013 500 3803 
L 500 4441 
Q 881 4594 1212 4672 
Q 1544 4750 1819 4750 
Q 2544 4750 2975 4387 
Q 3406 4025 3406 3419 
Q 3406 3131 3298 2873 
Q 3191 2616 2906 2266 
Q 2828 2175 2409 1742 
Q 1991 1309 1228 531 
z
" transform="scale(0.015625)"/>
        <path id="DejaVuSans-30" d="M 2034 4250 
Q 1547 4250 1301 3770 
Q 1056 3291 1056 2328 
Q 1056 1369 1301 889 
Q 1547 409 2034 409 
Q 2525 409 2770 889 
Q 3016 1369 3016 2328 
Q 3016 3291 2770 3770 
Q 2525 4250 2034 4250 
z
M 2034 4750 
Q 2819 4750 3233 4129 
Q 3647 3509 3647 2328 
Q 3647 1150 3233 529 
Q 2819 -91 2034 -91 
Q 1250 -91 836 529 
Q 422 1150 422 2328 
Q 422 3509 836 4129 
Q 1250 4750 2034 4750 
z
" transform="scale(0.015625)"/>
        <path id="DejaVuSans-31" d="M 794 531 
L 1825 531 
L 1825 4091 
L 703 3866 
L 703 4441 
L 1819 4666 
L 2450 4666 
L 2450 531 
L 3481 531 
L 3481 0 
L 794 0 
L 794 531 
z
" transform="scale(0.015625)"/>
        <path id="DejaVuSans-38" d="M 2034 2216 
Q 1584 2216 1326 1975 
Q 1069 1734 1069 1313 
Q 1069 891 1326 650 
Q 1584 409 2034 409 
Q 2484 409 2743 651 
Q 3003 894 3003 1313 
Q 3003 1734 2745 1975 
Q 2488 2216 2034 2216 
z
M 1403 2484 
Q 997 2584 770 2862 
Q 544 3141 544 3541 
Q 544 4100 942 4425 
Q 1341 4750 2034 4750 
Q 2731 4750 3128 4425 
Q 3525 4100 3525 3541 
Q 3525 3141 3298 2862 
Q 3072 2584 2669 2484 
Q 3125 2378 3379 2068 
Q 3634 1759 3634 1313 
Q 3634 634 3220 271 
Q 2806 -91 2034 -91 
Q 1263 -91 848 271 
Q 434 634 434 1313 
Q 434 1759 690 2068 
Q 947 2378 1403 2484 
z
M 1172 3481 
Q 1172 3119 1398 2916 
Q 1625 2713 2034 2713 
Q 2441 2713 2670 2916 
Q 2900 3119 2900 3481 
Q 2900 3844 2670 4047 
Q 2441 4250 2034 4250 
Q 1625 4250 1398 4047 
Q 1172 3844 1172 3481 
z
" transform="scale(0.015625)"/>
       </defs>
       <use xlink:href="#DejaVuSans-32"/>
       <use xlink:href="#DejaVuSans-30" x="63.623047"/>
       <use xlink:href="#DejaVuSans-31" x="127.246094"/>
       <use xlink:href="#DejaVuSans-38" x="190.869141"/>
      </g>
     </g>
    </g>
    <g id="xtick_2">
     <g id="line2d_3">
      <path d="M 235.80498 300.96 
L 235.80498 7.2 
" clip-path="url(#pe437d1463f)" style="fill: none; stroke: #546379; stroke-width: 1.12; stroke-linecap: square"/>
     </g>
     <g id="line2d_4"/>
     <g id="text_2">
      <!-- 2019 -->
      <g style="fill: #b1bed6" transform="translate(206.72394 330.884854) rotate(-30) scale(0.126 -0.126)">
       <defs>
        <path id="DejaVuSans-39" d="M 703 97 
L 703 672 
Q 941 559 1184 500 
Q 1428 441 1663 441 
Q 2288 441 2617 861 
Q 2947 1281 2994 2138 
Q 2813 1869 2534 1725 
Q 2256 1581 1919 1581 
Q 1219 1581 811 2004 
Q 403 2428 403 3163 
Q 403 3881 828 4315 
Q 1253 4750 1959 4750 
Q 2769 4750 3195 4129 
Q 3622 3509 3622 2328 
Q 3622 1225 3098 567 
Q 2575 -91 1691 -91 
Q 1453 -91 1209 -44 
Q 966 3 703 97 
z
M 1959 2075 
Q 2384 2075 2632 2365 
Q 2881 2656 2881 3163 
Q 2881 3666 2632 3958 
Q 2384 4250 1959 4250 
Q 1534 4250 1286 3958 
Q 1038 3666 1038 3163 
Q 1038 2656 1286 2365 
Q 1534 2075 1959 2075 
z
" transform="scale(0.015625)"/>
       </defs>
       <use xlink:href="#DejaVuSans-32"/>
       <use xlink:href="#DejaVuSans-30" x="63.623047"/>
       <use xlink:href="#DejaVuSans-31" x="127.246094"/>
       <use xlink:href="#DejaVuSans-39" x="190.869141"/>
      </g>
     </g>
    </g>
    <g id="xtick_3">
     <g id="line2d_5">
      <path d="M 371.809916 300.96 
L 371.809916 7.2 
" clip-path="url(#pe437d1463f)" style="fill: none; stroke: #546379; stroke-width: 1.12; stroke-linecap: square"/>
     </g>
     <g id="line2d_6"/>
     <g id="text_3">
      <!-- 2020 -->
      <g style="fill: #b1bed6" transform="translate(342.728876 330.884854) rotate(-30) scale(0.126 -0.126)">
       <use xlink:href="#DejaVuSans-32"/>
       <use xlink:href="#DejaVuSans-30" x="63.623047"/>
       <use xlink:href="#DejaVuSans-32" x="127.246094"/>
       <use xlink:href="#DejaVuSans-30" x="190.869141"/>
      </g>
     </g>
    </g>
    <g id="xtick_4">
     <g id="line2d_7">
      <path d="M 508.187467 300.96 
L 508.187467 7.2 
" clip-path="url(#pe437d1463f)" style="fill: none; stroke: #546379; stroke-width: 1.12; stroke-linecap: square"/>
     </g>
     <g id="line2d_8"/>
     <g id="text_4">
      <!-- 2021 -->
      <g style="fill: #b1bed6" transform="translate(479.106428 330.884854) rotate(-30) scale(0.126 -0.126)">
       <use xlink:href="#DejaVuSans-32"/>
       <use xlink:href="#DejaVuSans-30" x="63.623047"/>
       <use xlink:href="#DejaVuSans-32" x="127.246094"/>
       <use xlink:href="#DejaVuSans-31" x="190.869141"/>
      </g>
     </g>
    </g>
    <g id="xtick_5">
     <g id="line2d_9">
      <path d="M 644.192403 300.96 
L 644.192403 7.2 
" clip-path="url(#pe437d1463f)" style="fill: none; stroke: #546379; stroke-width: 1.12; stroke-linecap: square"/>
     </g>
     <g id="line2d_10"/>
     <g id="text_5">
      <!-- 2022 -->
      <g style="fill: #b1bed6" transform="translate(615.111363 330.884854) rotate(-30) scale(0.126 -0.126)">
       <use xlink:href="#DejaVuSans-32"/>
       <use xlink:href="#DejaVuSans-30" x="63.623047"/>
       <use xlink:href="#DejaVuSans-32" x="127.246094"/>
       <use xlink:href="#DejaVuSans-32" x="190.869141"/>
      </g>
     </g>
    </g>
    <g id="xtick_6">
     <g id="line2d_11">
      <path d="M 780.197338 300.96 
L 780.197338 7.2 
" clip-path="url(#pe437d1463f)" style="fill: none; stroke: #546379; stroke-width: 1.12; stroke-linecap: square"/>
     </g>
     <g id="line2d_12"/>
     <g id="text_6">
      <!-- 2023 -->
      <g style="fill: #b1bed6" transform="translate(751.116299 330.884854) rotate(-30) scale(0.126 -0.126)">
       <defs>
        <path id="DejaVuSans-33" d="M 2597 2516 
Q 3050 2419 3304 2112 
Q 3559 1806 3559 1356 
Q 3559 666 3084 287 
Q 2609 -91 1734 -91 
Q 1441 -91 1130 -33 
Q 819 25 488 141 
L 488 750 
Q 750 597 1062 519 
Q 1375 441 1716 441 
Q 2309 441 2620 675 
Q 2931 909 2931 1356 
Q 2931 1769 2642 2001 
Q 2353 2234 1838 2234 
L 1294 2234 
L 1294 2753 
L 1863 2753 
Q 2328 2753 2575 2939 
Q 2822 3125 2822 3475 
Q 2822 3834 2567 4026 
Q 2313 4219 1838 4219 
Q 1578 4219 1281 4162 
Q 984 4106 628 3988 
L 628 4550 
Q 988 4650 1302 4700 
Q 1616 4750 1894 4750 
Q 2613 4750 3031 4423 
Q 3450 4097 3450 3541 
Q 3450 3153 3228 2886 
Q 3006 2619 2597 2516 
z
" transform="scale(0.015625)"/>
       </defs>
       <use xlink:href="#DejaVuSans-32"/>
       <use xlink:href="#DejaVuSans-30" x="63.623047"/>
       <use xlink:href="#DejaVuSans-32" x="127.246094"/>
       <use xlink:href="#DejaVuSans-33" x="190.869141"/>
      </g>
     </g>
    </g>
    <g id="xtick_7">
     <g id="line2d_13">
      <path d="M 916.202274 300.96 
L 916.202274 7.2 
" clip-path="url(#pe437d1463f)" style="fill: none; stroke: #546379; stroke-width: 1.12; stroke-linecap: square"/>
     </g>
     <g id="line2d_14"/>
     <g id="text_7">
      <!-- 2024 -->
      <g style="fill: #b1bed6" transform="translate(887.121234 330.884854) rotate(-30) scale(0.126 -0.126)">
       <defs>
        <path id="DejaVuSans-34" d="M 2419 4116 
L 825 1625 
L 2419 1625 
L 2419 4116 
z
M 2253 4666 
L 3047 4666 
L 3047 1625 
L 3713 1625 
L 3713 1100 
L 3047 1100 
L 3047 0 
L 2419 0 
L 2419 1100 
L 313 1100 
L 313 1709 
L 2253 4666 
z
" transform="scale(0.015625)"/>
       </defs>
       <use xlink:href="#DejaVuSans-32"/>
       <use xlink:href="#DejaVuSans-30" x="63.623047"/>
       <use xlink:href="#DejaVuSans-32" x="127.246094"/>
       <use xlink:href="#DejaVuSans-34" x="190.869141"/>
      </g>
     </g>
    </g>
    <g id="text_8">
     <!-- Date -->
     <g style="fill: #b1bed6" transform="translate(482.074625 348.095943) scale(0.144 -0.144)">
      <defs>
       <path id="DejaVuSans-44" d="M 1259 4147 
L 1259 519 
L 2022 519 
Q 2988 519 3436 956 
Q 3884 1394 3884 2338 
Q 3884 3275 3436 3711 
Q 2988 4147 2022 4147 
L 1259 4147 
z
M 628 4666 
L 1925 4666 
Q 3281 4666 3915 4102 
Q 4550 3538 4550 2338 
Q 4550 1131 3912 565 
Q 3275 0 1925 0 
L 628 0 
L 628 4666 
z
" transform="scale(0.015625)"/>
       <path id="DejaVuSans-61" d="M 2194 1759 
Q 1497 1759 1228 1600 
Q 959 1441 959 1056 
Q 959 750 1161 570 
Q 1363 391 1709 391 
Q 2188 391 2477 730 
Q 2766 1069 2766 1631 
L 2766 1759 
L 2194 1759 
z
M 3341 1997 
L 3341 0 
L 2766 0 
L 2766 531 
Q 2569 213 2275 61 
Q 1981 -91 1556 -91 
Q 1019 -91 701 211 
Q 384 513 384 1019 
Q 384 1609 779 1909 
Q 1175 2209 1959 2209 
L 2766 2209 
L 2766 2266 
Q 2766 2663 2505 2880 
Q 2244 3097 1772 3097 
Q 1472 3097 1187 3025 
Q 903 2953 641 2809 
L 641 3341 
Q 956 3463 1253 3523 
Q 1550 3584 1831 3584 
Q 2591 3584 2966 3190 
Q 3341 2797 3341 1997 
z
" transform="scale(0.015625)"/>
       <path id="DejaVuSans-74" d="M 1172 4494 
L 1172 3500 
L 2356 3500 
L 2356 3053 
L 1172 3053 
L 1172 1153 
Q 1172 725 1289 603 
Q 1406 481 1766 481 
L 2356 481 
L 2356 0 
L 1766 0 
Q 1100 0 847 248 
Q 594 497 594 1153 
L 594 3053 
L 172 3053 
L 172 3500 
L 594 3500 
L 594 4494 
L 1172 4494 
z
" transform="scale(0.015625)"/>
       <path id="DejaVuSans-65" d="M 3597 1894 
L 3597 1613 
L 953 1613 
Q 991 1019 1311 708 
Q 1631 397 2203 397 
Q 2534 397 2845 478 
Q 3156 559 3463 722 
L 3463 178 
Q 3153 47 2828 -22 
Q 2503 -91 2169 -91 
Q 1331 -91 842 396 
Q 353 884 353 1716 
Q 353 2575 817 3079 
Q 1281 3584 2069 3584 
Q 2775 3584 3186 3129 
Q 3597 2675 3597 1894 
z
M 3022 2063 
Q 3016 2534 2758 2815 
Q 2500 3097 2075 3097 
Q 1594 3097 1305 2825 
Q 1016 2553 972 2059 
L 3022 2063 
z
" transform="scale(0.015625)"/>
      </defs>
      <use xlink:href="#DejaVuSans-44"/>
      <use xlink:href="#DejaVuSans-61" x="77.001953"/>
      <use xlink:href="#DejaVuSans-74" x="138.28125"/>
      <use xlink:href="#DejaVuSans-65" x="177.490234"/>
     </g>
    </g>
   </g>
   <g id="matplotlib.axis_2">
    <g id="ytick_1">
     <g id="line2d_15">
      <path d="M 52.88375 258.56324 
L 945.68375 258.56324 
" clip-path="url(#pe437d1463f)" style="fill: none; stroke: #546379; stroke-width: 1.12; stroke-linecap: square"/>
     </g>
     <g id="line2d_16"/>
     <g id="text_9">
      <!-- 10000 -->
      <g style="fill: #b1bed6" transform="translate(7.2 263.350256) scale(0.126 -0.126)">
       <use xlink:href="#DejaVuSans-31"/>
       <use xlink:href="#DejaVuSans-30" x="63.623047"/>
       <use xlink:href="#DejaVuSans-30" x="127.246094"/>
       <use xlink:href="#DejaVuSans-30" x="190.869141"/>
       <use xlink:href="#DejaVuSans-30" x="254.492188"/>
      </g>
     </g>
    </g>
    <g id="ytick_2">
     <g id="line2d_17">
      <path d="M 52.88375 215.161403 
L 945.68375 215.161403 
" clip-path="url(#pe437d1463f)" style="fill: none; stroke: #546379; stroke-width: 1.12; stroke-linecap: square"/>
     </g>
     <g id="line2d_18"/>
     <g id="text_10">
      <!-- 20000 -->
      <g style="fill: #b1bed6" transform="translate(7.2 219.948418) scale(0.126 -0.126)">
       <use xlink:href="#DejaVuSans-32"/>
       <use xlink:href="#DejaVuSans-30" x="63.623047"/>
       <use xlink:href="#DejaVuSans-30" x="127.246094"/>
       <use xlink:href="#DejaVuSans-30" x="190.869141"/>
       <use xlink:href="#DejaVuSans-30" x="254.492188"/>
      </g>
     </g>
    </g>
    <g id="ytick_3">
     <g id="line2d_19">
      <path d="M 52.88375 171.759565 
L 945.68375 171.759565 
" clip-path="url(#pe437d1463f)" style="fill: none; stroke: #546379; stroke-width: 1.12; stroke-linecap: square"/>
     </g>
     <g id="line2d_20"/>
     <g id="text_11">
      <!-- 30000 -->
      <g style="fill: #b1bed6" transform="translate(7.2 176.546581) scale(0.126 -0.126)">
       <use xlink:href="#DejaVuSans-33"/>
       <use xlink:href="#DejaVuSans-30" x="63.623047"/>
       <use xlink:href="#DejaVuSans-30" x="127.246094"/>
       <use xlink:href="#DejaVuSans-30" x="190.869141"/>
       <use xlink:href="#DejaVuSans-30" x="254.492188"/>
      </g>
     </g>
    </g>
    <g id="ytick_4">
     <g id="line2d_21">
      <path d="M 52.88375 128.357727 
L 945.68375 128.357727 
" clip-path="url(#pe437d1463f)" style="fill: none; stroke: #546379; stroke-width: 1.12; stroke-linecap: square"/>
     </g>
     <g id="line2d_22"/>
     <g id="text_12">
      <!-- 40000 -->
      <g style="fill: #b1bed6" transform="translate(7.2 133.144743) scale(0.126 -0.126)">
       <use xlink:href="#DejaVuSans-34"/>
       <use xlink:href="#DejaVuSans-30" x="63.623047"/>
       <use xlink:href="#DejaVuSans-30" x="127.246094"/>
       <use xlink:href="#DejaVuSans-30" x="190.869141"/>
       <use xlink:href="#DejaVuSans-30" x="254.492188"/>
      </g>
     </g>
    </g>
    <g id="ytick_5">
     <g id="line2d_23">
      <path d="M 52.88375 84.95589 
L 945.68375 84.95589 
" clip-path="url(#pe437d1463f)" style="fill: none; stroke: #546379; stroke-width: 1.12; stroke-linecap: square"/>
     </g>
     <g id="line2d_24"/>
     <g id="text_13">
      <!-- 50000 -->
      <g style="fill: #b1bed6" transform="translate(7.2 89.742905) scale(0.126 -0.126)">
       <defs>
        <path id="DejaVuSans-35" d="M 691 4666 
L 3169 4666 
L 3169 4134 
L 1269 4134 
L 1269 2991 
Q 1406 3038 1543 3061 
Q 1681 3084 1819 3084 
Q 2600 3084 3056 2656 
Q 3513 2228 3513 1497 
Q 3513 744 3044 326 
Q 2575 -91 1722 -91 
Q 1428 -91 1123 -41 
Q 819 9 494 109 
L 494 744 
Q 775 591 1075 516 
Q 1375 441 1709 441 
Q 2250 441 2565 725 
Q 2881 1009 2881 1497 
Q 2881 1984 2565 2268 
Q 2250 2553 1709 2553 
Q 1456 2553 1204 2497 
Q 953 2441 691 2322 
L 691 4666 
z
" transform="scale(0.015625)"/>
       </defs>
       <use xlink:href="#DejaVuSans-35"/>
       <use xlink:href="#DejaVuSans-30" x="63.623047"/>
       <use xlink:href="#DejaVuSans-30" x="127.246094"/>
       <use xlink:href="#DejaVuSans-30" x="190.869141"/>
       <use xlink:href="#DejaVuSans-30" x="254.492188"/>
      </g>
     </g>
    </g>
    <g id="ytick_6">
     <g id="line2d_25">
      <path d="M 52.88375 41.554052 
L 945.68375 41.554052 
" clip-path="url(#pe437d1463f)" style="fill: none; stroke: #546379; stroke-width: 1.12; stroke-linecap: square"/>
     </g>
     <g id="line2d_26"/>
     <g id="text_14">
      <!-- 60000 -->
      <g style="fill: #b1bed6" transform="translate(7.2 46.341068) scale(0.126 -0.126)">
       <defs>
        <path id="DejaVuSans-36" d="M 2113 2584 
Q 1688 2584 1439 2293 
Q 1191 2003 1191 1497 
Q 1191 994 1439 701 
Q 1688 409 2113 409 
Q 2538 409 2786 701 
Q 3034 994 3034 1497 
Q 3034 2003 2786 2293 
Q 2538 2584 2113 2584 
z
M 3366 4563 
L 3366 3988 
Q 3128 4100 2886 4159 
Q 2644 4219 2406 4219 
Q 1781 4219 1451 3797 
Q 1122 3375 1075 2522 
Q 1259 2794 1537 2939 
Q 1816 3084 2150 3084 
Q 2853 3084 3261 2657 
Q 3669 2231 3669 1497 
Q 3669 778 3244 343 
Q 2819 -91 2113 -91 
Q 1303 -91 875 529 
Q 447 1150 447 2328 
Q 447 3434 972 4092 
Q 1497 4750 2381 4750 
Q 2619 4750 2861 4703 
Q 3103 4656 3366 4563 
z
" transform="scale(0.015625)"/>
       </defs>
       <use xlink:href="#DejaVuSans-36"/>
       <use xlink:href="#DejaVuSans-30" x="63.623047"/>
       <use xlink:href="#DejaVuSans-30" x="127.246094"/>
       <use xlink:href="#DejaVuSans-30" x="190.869141"/>
       <use xlink:href="#DejaVuSans-30" x="254.492188"/>
      </g>
     </g>
    </g>
   </g>
   <g id="line2d_27">
    <path d="M 93.465568 230.750692 
L 93.465568 219.884434 
L 94.956033 219.884434 
L 94.956033 242.172059 
L 96.446498 242.172059 
L 96.446498 233.91972 
L 97.936963 233.91972 
L 97.936963 247.224337 
L 99.427428 247.224337 
L 99.427428 236.692013 
L 100.917893 236.692013 
L 100.917893 231.684873 
L 102.408358 231.684873 
L 102.408358 244.30335 
L 103.898824 244.30335 
L 103.898824 243.13762 
L 105.389289 243.13762 
L 105.389289 252.02471 
L 106.879754 252.02471 
L 106.879754 254.954421 
L 108.370219 254.954421 
L 108.370219 252.350832 
L 109.860684 252.350832 
L 109.860684 257.677843 
L 111.351149 257.677843 
L 111.351149 266.36663 
L 112.841614 266.36663 
L 112.841614 266.179916 
L 114.332079 266.179916 
L 114.332079 263.356018 
L 115.822544 263.356018 
L 115.822544 257.788257 
L 117.313009 257.788257 
L 117.313009 253.155458 
L 118.803474 253.155458 
L 118.803474 259.866337 
L 120.293939 259.866337 
L 120.293939 257.121692 
L 121.784404 257.121692 
L 121.784404 251.979919 
L 123.274869 251.979919 
L 123.274869 261.495034 
L 124.765334 261.495034 
L 124.765334 262.3392 
L 126.255799 262.3392 
L 126.255799 265.950711 
L 127.746264 265.950711 
L 127.746264 263.294258 
L 129.236729 263.294258 
L 129.236729 264.926991 
L 130.727194 264.926991 
L 130.727194 267.45797 
L 132.217659 267.45797 
L 132.217659 272.3323 
L 133.708124 272.3323 
L 133.708124 272.509726 
L 136.689055 272.519492 
L 136.689055 267.698242 
L 139.669985 267.64642 
L 139.669985 263.204633 
L 141.16045 263.204633 
L 141.16045 263.46704 
L 142.650915 263.46704 
L 142.650915 261.174295 
L 144.14138 261.174295 
L 144.14138 259.633747 
L 145.631845 259.633747 
L 145.631845 261.301202 
L 147.12231 261.301202 
L 147.12231 265.521293 
L 148.612775 265.521293 
L 148.612775 265.199121 
L 150.10324 265.199121 
L 150.10324 266.19298 
L 151.593705 266.19298 
L 151.593705 269.362008 
L 153.08417 269.362008 
L 153.08417 270.088338 
L 154.574635 270.088338 
L 154.574635 269.458577 
L 157.555565 269.433361 
L 157.555565 268.912235 
L 159.04603 268.912235 
L 159.04603 273.523854 
L 160.536495 273.523854 
L 160.536495 273.803014 
L 162.02696 273.803014 
L 162.02696 272.621833 
L 163.517425 272.621833 
L 163.517425 275.242393 
L 165.00789 275.242393 
L 165.00789 276.45287 
L 166.498355 276.45287 
L 166.498355 273.205111 
L 169.479286 273.195779 
L 169.479286 274.494883 
L 170.969751 274.494883 
L 170.969751 274.843964 
L 172.460216 274.843964 
L 172.460216 269.973106 
L 173.950681 269.973106 
L 173.950681 269.818813 
L 175.441146 269.818813 
L 175.441146 267.504844 
L 176.931611 267.504844 
L 176.931611 266.49931 
L 178.422076 266.49931 
L 178.422076 269.783614 
L 179.912541 269.783614 
L 179.912541 272.806725 
L 181.403006 272.806725 
L 181.403006 274.935065 
L 182.893471 274.935065 
L 182.893471 274.749218 
L 184.383936 274.749218 
L 184.383936 273.812129 
L 185.874401 273.812129 
L 185.874401 273.641212 
L 187.364866 273.641212 
L 187.364866 272.012341 
L 188.855331 272.012341 
L 188.855331 271.502283 
L 190.345796 271.502283 
L 190.345796 270.024841 
L 191.836261 270.024841 
L 191.836261 275.125121 
L 193.326726 275.125121 
L 193.326726 274.508902 
L 194.817191 274.508902 
L 194.817191 273.765298 
L 197.798121 273.771157 
L 197.798121 273.391695 
L 199.288586 273.391695 
L 199.288586 273.195476 
L 200.779052 273.195476 
L 200.779052 273.661394 
L 202.269517 273.661394 
L 202.269517 273.434359 
L 205.250447 273.402025 
L 205.250447 274.773132 
L 206.740912 274.773132 
L 206.740912 273.712174 
L 209.721842 273.780402 
L 209.721842 273.874671 
L 211.212307 273.874671 
L 211.212307 274.614933 
L 212.702772 274.614933 
L 212.702772 274.355867 
L 214.193237 274.355867 
L 214.193237 273.594035 
L 215.683702 273.594035 
L 215.683702 274.15088 
L 217.174167 274.15088 
L 217.174167 277.40515 
L 218.664632 277.40515 
L 218.664632 280.920482 
L 220.155097 280.920482 
L 220.155097 283.072345 
L 221.645562 283.072345 
L 221.645562 285.348902 
L 223.136027 285.348902 
L 223.136027 283.787998 
L 224.626492 283.787998 
L 224.626492 285.711177 
L 226.116957 285.711177 
L 226.116957 286.390589 
L 227.607422 286.390589 
L 227.607422 287.607273 
L 229.097887 287.607273 
L 229.097887 286.529041 
L 230.588352 286.529041 
L 230.588352 285.039099 
L 232.078817 285.039099 
L 232.078817 285.378979 
L 233.569283 285.378979 
L 233.569283 285.601023 
L 235.059748 285.601023 
L 235.059748 284.90247 
L 236.550213 284.90247 
L 236.550213 284.292848 
L 238.040678 284.292848 
L 238.040678 286.139683 
L 239.531143 286.139683 
L 239.531143 285.982438 
L 241.021608 285.982438 
L 241.021608 286.228744 
L 242.512073 286.228744 
L 242.512073 286.39532 
L 245.493003 286.443279 
L 245.493003 286.90464 
L 248.473933 286.965316 
L 248.473933 287.231196 
L 249.964398 287.231196 
L 249.964398 286.212511 
L 252.945328 286.304827 
L 252.945328 284.923216 
L 254.435793 284.923216 
L 254.435793 283.998453 
L 255.926258 283.998453 
L 255.926258 285.328155 
L 258.907188 285.4091 
L 258.907188 285.095565 
L 261.888118 285.120434 
L 261.888118 284.879945 
L 263.378583 284.879945 
L 263.378583 284.478 
L 267.849979 284.393801 
L 267.849979 284.108868 
L 269.340444 284.108868 
L 269.340444 280.649394 
L 270.830909 280.649394 
L 270.830909 279.097908 
L 272.321374 279.097908 
L 272.321374 279.947977 
L 273.811839 279.947977 
L 273.811839 279.410662 
L 275.302304 279.410662 
L 275.302304 278.921827 
L 276.792769 278.921827 
L 276.792769 278.379695 
L 278.283234 278.379695 
L 278.283234 278.956505 
L 279.773699 278.956505 
L 279.773699 278.570793 
L 281.264164 278.570793 
L 281.264164 277.293434 
L 282.754629 277.293434 
L 282.754629 274.413505 
L 284.245094 274.413505 
L 284.245094 267.275335 
L 285.735559 267.275335 
L 285.735559 270.433426 
L 287.226024 270.433426 
L 287.226024 268.86714 
L 288.716489 268.86714 
L 288.716489 264.012688 
L 290.206954 264.012688 
L 290.206954 266.061081 
L 291.697419 266.061081 
L 291.697419 266.65803 
L 293.187884 266.65803 
L 293.187884 267.25103 
L 294.678349 267.25103 
L 294.678349 267.601326 
L 296.168814 267.601326 
L 296.168814 263.51335 
L 297.65928 263.51335 
L 297.65928 261.680794 
L 299.149745 261.680794 
L 299.149745 255.028247 
L 300.64021 255.028247 
L 300.64021 253.646463 
L 302.130675 253.646463 
L 302.130675 256.051489 
L 303.62114 256.051489 
L 303.62114 254.41767 
L 305.111605 254.41767 
L 305.111605 247.33614 
L 306.60207 247.33614 
L 306.60207 252.534291 
L 308.092535 252.534291 
L 308.092535 259.976925 
L 309.583 259.976925 
L 309.583 256.013773 
L 311.073465 256.013773 
L 311.073465 259.105026 
L 312.56393 259.105026 
L 312.56393 260.72756 
L 314.054395 260.72756 
L 314.054395 256.264896 
L 315.54486 256.264896 
L 315.54486 252.201963 
L 317.035325 252.201963 
L 317.035325 252.99817 
L 318.52579 252.99817 
L 318.52579 258.489631 
L 320.016255 258.489631 
L 320.016255 257.184798 
L 321.50672 257.184798 
L 321.50672 258.077227 
L 322.997185 258.077227 
L 322.997185 256.999559 
L 324.48765 256.999559 
L 324.48765 260.394841 
L 325.978115 260.394841 
L 325.978115 255.866728 
L 327.46858 255.866728 
L 327.46858 256.448659 
L 328.959046 256.448659 
L 328.959046 257.871762 
L 330.449511 257.871762 
L 330.449511 257.215917 
L 331.939976 257.215917 
L 331.939976 257.36587 
L 333.430441 257.36587 
L 333.430441 259.937429 
L 334.920906 259.937429 
L 334.920906 266.402046 
L 336.411371 266.402046 
L 336.411371 265.842076 
L 337.901836 265.842076 
L 337.901836 266.602606 
L 339.392301 266.602606 
L 339.392301 264.691927 
L 340.882766 264.691927 
L 340.882766 266.012037 
L 342.373231 266.012037 
L 342.373231 266.910369 
L 343.863696 266.910369 
L 343.863696 266.27783 
L 345.354161 266.27783 
L 345.354161 264.349617 
L 346.844626 264.349617 
L 346.844626 261.022605 
L 348.335091 261.022605 
L 348.335091 261.596248 
L 349.825556 261.596248 
L 349.825556 261.413265 
L 351.316021 261.413265 
L 351.316021 262.742317 
L 352.806486 262.742317 
L 352.806486 264.499223 
L 354.296951 264.499223 
L 354.296951 266.479779 
L 355.787416 266.479779 
L 355.787416 270.34098 
L 357.277881 270.34098 
L 357.277881 270.873607 
L 358.768346 270.873607 
L 358.768346 269.163184 
L 360.258811 269.163184 
L 360.258811 270.746787 
L 361.749277 270.746787 
L 361.749277 269.316523 
L 363.239742 269.316523 
L 363.239742 270.762803 
L 364.730207 270.762803 
L 364.730207 272.10661 
L 366.220672 272.10661 
L 366.220672 270.758419 
L 367.711137 270.758419 
L 367.711137 270.495751 
L 369.201602 270.495751 
L 369.201602 270.277093 
L 370.692067 270.277093 
L 370.692067 270.821308 
L 372.182532 270.821308 
L 372.182532 270.057913 
L 373.672997 270.057913 
L 373.672997 268.033869 
L 375.163462 268.033869 
L 375.163462 266.786847 
L 376.653927 266.786847 
L 376.653927 263.335967 
L 378.144392 263.335967 
L 378.144392 264.108867 
L 379.634857 264.108867 
L 379.634857 265.822805 
L 381.125322 265.822805 
L 381.125322 261.688997 
L 382.615787 261.688997 
L 382.615787 261.538176 
L 384.106252 261.538176 
L 384.106252 259.623721 
L 385.596717 259.623721 
L 385.596717 259.193478 
L 387.087182 259.193478 
L 387.087182 256.963752 
L 388.577647 256.963752 
L 388.577647 257.779186 
L 390.068112 257.779186 
L 390.068112 259.997107 
L 391.558577 259.997107 
L 391.558577 263.834307 
L 393.049042 263.834307 
L 393.049042 264.925212 
L 394.539508 264.925212 
L 394.539508 262.610939 
L 396.029973 262.610939 
L 396.029973 267.539001 
L 397.520438 267.539001 
L 397.520438 277.620857 
L 399.010903 277.620857 
L 399.010903 278.712066 
L 400.501368 278.712066 
L 400.501368 275.099992 
L 401.991833 275.099992 
L 401.991833 272.892531 
L 403.482298 272.892531 
L 403.482298 276.421317 
L 404.972763 276.421317 
L 404.972763 272.412289 
L 406.463228 272.412289 
L 406.463228 270.094241 
L 407.953693 270.094241 
L 407.953693 272.133953 
L 410.934623 272.139552 
L 410.934623 270.458122 
L 412.425088 270.458122 
L 412.425088 271.015271 
L 413.915553 271.015271 
L 413.915553 268.548831 
L 415.406018 268.548831 
L 415.406018 264.514631 
L 416.896483 264.514631 
L 416.896483 263.398509 
L 418.386948 263.398509 
L 418.386948 259.336661 
L 419.877413 259.336661 
L 419.877413 263.708398 
L 421.367878 263.708398 
L 421.367878 261.229415 
L 422.858343 261.229415 
L 422.858343 260.687022 
L 424.348808 260.687022 
L 424.348808 264.072105 
L 425.839274 264.072105 
L 425.839274 260.432948 
L 427.329739 260.432948 
L 427.329739 257.676845 
L 428.820204 257.676845 
L 428.820204 260.196235 
L 430.310669 260.196235 
L 430.310669 259.539131 
L 431.801134 259.539131 
L 431.801134 260.848347 
L 434.782064 260.929465 
L 434.782064 261.667427 
L 436.272529 261.667427 
L 436.272529 261.858091 
L 437.762994 261.858091 
L 437.762994 262.098971 
L 439.253459 262.098971 
L 439.253459 262.589108 
L 440.743924 262.589108 
L 440.743924 261.791339 
L 443.724854 261.879314 
L 443.724854 262.063555 
L 446.705784 261.97176 
L 446.705784 260.242414 
L 448.196249 260.242414 
L 448.196249 254.039033 
L 449.686714 254.039033 
L 449.686714 252.730554 
L 451.177179 252.730554 
L 451.177179 253.379976 
L 452.667644 253.379976 
L 452.667644 250.891532 
L 454.158109 250.891532 
L 454.158109 251.735654 
L 455.648574 251.735654 
L 455.648574 250.256085 
L 457.139039 250.256085 
L 457.139039 250.465239 
L 458.629505 250.465239 
L 458.629505 250.90746 
L 460.11997 250.90746 
L 460.11997 251.902143 
L 461.610435 251.902143 
L 461.610435 250.215982 
L 463.1009 250.215982 
L 463.1009 257.87046 
L 464.591365 257.87046 
L 464.591365 257.574416 
L 466.08183 257.574416 
L 466.08183 257.127638 
L 467.572295 257.127638 
L 467.572295 254.466584 
L 469.06276 254.466584 
L 469.06276 256.694965 
L 470.553225 256.694965 
L 470.553225 255.556187 
L 472.04369 255.556187 
L 472.04369 254.914014 
L 473.534155 254.914014 
L 473.534155 256.168457 
L 475.02462 256.168457 
L 475.02462 255.651845 
L 476.515085 255.651845 
L 476.515085 252.5885 
L 478.00555 252.5885 
L 478.00555 252.036776 
L 479.496015 252.036776 
L 479.496015 250.932503 
L 480.98648 250.932503 
L 480.98648 245.783482 
L 482.476945 245.783482 
L 482.476945 242.71519 
L 483.96741 242.71519 
L 483.96741 242.025751 
L 485.457875 242.025751 
L 485.457875 240.527216 
L 486.94834 240.527216 
L 486.94834 234.733027 
L 488.438805 234.733027 
L 488.438805 231.23931 
L 489.929271 231.23931 
L 489.929271 229.374853 
L 491.419736 229.374853 
L 491.419736 220.858111 
L 492.910201 220.858111 
L 492.910201 218.752818 
L 494.400666 218.752818 
L 494.400666 225.003117 
L 495.891131 225.003117 
L 495.891131 218.516495 
L 497.381596 218.516495 
L 497.381596 217.862473 
L 498.872061 217.862473 
L 498.872061 222.766446 
L 500.362526 222.766446 
L 500.362526 218.301135 
L 501.852991 218.301135 
L 501.852991 201.486395 
L 503.343456 201.486395 
L 503.343456 198.560243 
L 504.833921 198.560243 
L 504.833921 187.196687 
L 506.324386 187.196687 
L 506.324386 176.722175 
L 507.814851 176.722175 
L 507.814851 158.735628 
L 509.305316 158.735628 
L 509.305316 130.588408 
L 510.795781 130.588408 
L 510.795781 147.693506 
L 512.286246 147.693506 
L 512.286246 142.122533 
L 513.776711 142.122533 
L 513.776711 145.631094 
L 515.267176 145.631094 
L 515.267176 162.646308 
L 516.757641 162.646308 
L 516.757641 169.94029 
L 518.248106 169.94029 
L 518.248106 158.146752 
L 519.738571 158.146752 
L 519.738571 141.369208 
L 521.229036 141.369208 
L 521.229036 100.735496 
L 522.719502 100.735496 
L 522.719502 95.930478 
L 524.209967 95.930478 
L 524.209967 88.60121 
L 525.700432 88.60121 
L 525.700432 58.909579 
L 527.190897 58.909579 
L 527.190897 82.243969 
L 528.681362 82.243969 
L 528.681362 106.162375 
L 530.171827 106.162375 
L 530.171827 91.687905 
L 531.662292 91.687905 
L 531.662292 74.976375 
L 533.152757 74.976375 
L 533.152757 53.475321 
L 534.643222 53.475321 
L 534.643222 55.128497 
L 536.133687 55.128497 
L 536.133687 49.862032 
L 537.624152 49.862032 
L 537.624152 74.06971 
L 539.114617 74.06971 
L 539.114617 59.853525 
L 540.605082 59.853525 
L 540.605082 47.036051 
L 542.095547 47.036051 
L 542.095547 45.659432 
L 543.586012 45.659432 
L 543.586012 49.789203 
L 545.076477 49.789203 
L 545.076477 26.127129 
L 546.566942 26.127129 
L 546.566942 41.176065 
L 548.057407 41.176065 
L 548.057407 68.424998 
L 549.547872 68.424998 
L 549.547872 88.968042 
L 551.038337 88.968042 
L 551.038337 69.40002 
L 552.528802 69.40002 
L 552.528802 53.648712 
L 554.019267 53.648712 
L 554.019267 52.924162 
L 555.509733 52.924162 
L 555.509733 55.659649 
L 557.000198 55.659649 
L 557.000198 99.119732 
L 558.490663 99.119732 
L 558.490663 141.533353 
L 559.981128 141.533353 
L 559.981128 151.123988 
L 561.471593 151.123988 
L 561.471593 135.105454 
L 562.962058 135.105454 
L 562.962058 140.030478 
L 564.452523 140.030478 
L 564.452523 141.875186 
L 565.942988 141.875186 
L 565.942988 156.785106 
L 567.433453 156.785106 
L 567.433453 147.910689 
L 568.923918 147.910689 
L 568.923918 135.628099 
L 570.414383 135.628099 
L 570.414383 147.487738 
L 571.904848 147.487738 
L 571.904848 151.623803 
L 573.395313 151.623803 
L 573.395313 152.416798 
L 574.885778 152.416798 
L 574.885778 155.020084 
L 576.376243 155.020084 
L 576.376243 153.483008 
L 577.866708 153.483008 
L 577.866708 156.501345 
L 579.357173 156.501345 
L 579.357173 159.54364 
L 580.847638 159.54364 
L 580.847638 164.018891 
L 582.338103 164.018891 
L 582.338103 161.7863 
L 583.828568 161.7863 
L 583.828568 139.997493 
L 585.319033 139.997493 
L 585.319033 118.747909 
L 586.809499 118.747909 
L 586.809499 136.439149 
L 588.299964 136.439149 
L 588.299964 108.244751 
L 589.790429 108.244751 
L 589.790429 104.00296 
L 591.280894 104.00296 
L 591.280894 97.731611 
L 592.771359 97.731611 
L 592.771359 99.128109 
L 594.261824 99.128109 
L 594.261824 87.023987 
L 595.752289 87.023987 
L 595.752289 89.049291 
L 597.242754 89.049291 
L 597.242754 97.299936 
L 598.733219 97.299936 
L 598.733219 85.18427 
L 600.223684 85.18427 
L 600.223684 101.976441 
L 603.204614 102.060033 
L 603.204614 94.568268 
L 604.695079 94.568268 
L 604.695079 115.764424 
L 606.185544 115.764424 
L 606.185544 116.137679 
L 607.676009 116.137679 
L 607.676009 123.969107 
L 609.166474 123.969107 
L 609.166474 94.820693 
L 610.656939 94.820693 
L 610.656939 61.762989 
L 612.147404 61.762989 
L 612.147404 64.879328 
L 613.637869 64.879328 
L 613.637869 52.848339 
L 615.128334 52.848339 
L 615.128334 32.996989 
L 616.618799 32.996989 
L 616.618799 38.528683 
L 618.109264 38.528683 
L 618.109264 40.055951 
L 619.59973 40.055951 
L 619.59973 34.039935 
L 621.090195 34.039935 
L 621.090195 28.729416 
L 622.58066 28.729416 
L 622.58066 27.260872 
L 624.071125 27.260872 
L 624.071125 20.552727 
L 625.56159 20.552727 
L 625.56159 25.997748 
L 627.052055 25.997748 
L 627.052055 49.657088 
L 628.54252 49.657088 
L 628.54252 52.065022 
L 630.032985 52.065022 
L 630.032985 64.118016 
L 631.52345 64.118016 
L 631.52345 53.577403 
L 633.013915 53.577403 
L 633.013915 87.644937 
L 634.50438 87.644937 
L 634.50438 95.113308 
L 635.994845 95.113308 
L 635.994845 99.030715 
L 637.48531 99.030715 
L 637.48531 101.563559 
L 638.975775 101.563559 
L 638.975775 89.580052 
L 640.46624 89.580052 
L 640.46624 82.91214 
L 641.956705 82.91214 
L 641.956705 100.542054 
L 643.44717 100.542054 
L 643.44717 96.553425 
L 644.937635 96.553425 
L 644.937635 114.81362 
L 646.4281 114.81362 
L 646.4281 120.332727 
L 647.918565 120.332727 
L 647.918565 114.905892 
L 649.40903 114.905892 
L 649.40903 118.021666 
L 650.899496 118.021666 
L 650.899496 149.748627 
L 652.389961 149.748627 
L 652.389961 142.144321 
L 653.880426 142.144321 
L 653.880426 137.391299 
L 655.370891 137.391299 
L 655.370891 140.977246 
L 656.861356 140.977246 
L 656.861356 111.717376 
L 658.351821 111.717376 
L 658.351821 117.935774 
L 659.842286 117.935774 
L 659.842286 108.669786 
L 661.332751 108.669786 
L 661.332751 127.858389 
L 662.823216 127.858389 
L 662.823216 140.113202 
L 664.313681 140.113202 
L 664.313681 138.320359 
L 665.804146 138.320359 
L 665.804146 117.661778 
L 667.294611 117.661778 
L 667.294611 136.897039 
L 668.785076 136.897039 
L 668.785076 133.821845 
L 670.275541 133.821845 
L 670.275541 131.305493 
L 671.766006 131.305493 
L 671.766006 118.71245 
L 673.256471 118.71245 
L 673.256471 115.749233 
L 674.746936 115.749233 
L 674.746936 98.590447 
L 676.237401 98.590447 
L 676.237401 104.316495 
L 677.727866 104.316495 
L 677.727866 99.663644 
L 679.218331 99.663644 
L 679.218331 118.466709 
L 680.708796 118.466709 
L 680.708796 127.914161 
L 682.199261 127.914161 
L 682.199261 126.670351 
L 683.689727 126.670351 
L 683.689727 122.386546 
L 685.180192 122.386546 
L 685.180192 130.677252 
L 686.670657 130.677252 
L 686.670657 129.355796 
L 688.161122 129.355796 
L 688.161122 134.82178 
L 689.651587 134.82178 
L 689.651587 145.66191 
L 691.142052 145.66191 
L 691.142052 167.402324 
L 692.632517 167.402324 
L 692.632517 171.435744 
L 694.122982 171.435744 
L 694.122982 177.484398 
L 695.613447 177.484398 
L 695.613447 170.548914 
L 697.103912 170.548914 
L 697.103912 175.2581 
L 698.594377 175.2581 
L 698.594377 164.313633 
L 700.084842 164.313633 
L 700.084842 173.140785 
L 701.575307 173.140785 
L 701.575307 166.907977 
L 703.065772 166.907977 
L 703.065772 178.944739 
L 704.556237 178.944739 
L 704.556237 204.090505 
L 706.046702 204.090505 
L 706.046702 212.816054 
L 707.537167 212.816054 
L 707.537167 210.437981 
L 709.027632 210.437981 
L 709.027632 212.113595 
L 710.518097 212.113595 
L 710.518097 218.517667 
L 712.008562 218.517667 
L 712.008562 214.37188 
L 713.499027 214.37188 
L 713.499027 208.292628 
L 714.989493 208.292628 
L 714.989493 214.190547 
L 716.479958 214.190547 
L 716.479958 211.801102 
L 717.970423 211.801102 
L 717.970423 201.472072 
L 719.460888 201.472072 
L 719.460888 209.516039 
L 720.951353 209.516039 
L 720.951353 198.703426 
L 722.441818 198.703426 
L 722.441818 202.219973 
L 723.932283 202.219973 
L 723.932283 202.370056 
L 725.422748 202.370056 
L 725.422748 197.974622 
L 726.913213 197.974622 
L 726.913213 196.433987 
L 728.403678 196.433987 
L 728.403678 201.298899 
L 729.894143 201.298899 
L 729.894143 209.072429 
L 731.384608 209.072429 
L 731.384608 214.148751 
L 732.875073 214.148751 
L 732.875073 216.059734 
L 734.365538 216.059734 
L 734.365538 215.877793 
L 735.856003 215.877793 
L 735.856003 218.285988 
L 737.346468 218.285988 
L 737.346468 207.372856 
L 738.836933 207.372856 
L 738.836933 216.486504 
L 740.327398 216.486504 
L 740.327398 217.148339 
L 741.817863 217.148339 
L 741.817863 218.283818 
L 743.308328 218.283818 
L 743.308328 219.046345 
L 744.798793 219.046345 
L 744.798793 218.135774 
L 746.289258 218.135774 
L 746.289258 214.433163 
L 747.779724 214.433163 
L 747.779724 217.583746 
L 749.270189 217.583746 
L 749.270189 217.837864 
L 750.760654 217.837864 
L 750.760654 217.118956 
L 752.251119 217.118956 
L 752.251119 218.757939 
L 753.741584 218.757939 
L 753.741584 214.721872 
L 755.232049 214.721872 
L 755.232049 211.619118 
L 756.722514 211.619118 
L 756.722514 214.493058 
L 758.212979 214.493058 
L 758.212979 211.167001 
L 759.703444 211.167001 
L 759.703444 225.793855 
L 761.193909 225.793855 
L 761.193909 229.970283 
L 762.684374 229.970283 
L 762.684374 229.556837 
L 764.174839 229.556837 
L 764.174839 231.676887 
L 765.665304 231.676887 
L 765.665304 230.553995 
L 767.155769 230.553995 
L 767.155769 227.441432 
L 768.646234 227.441432 
L 768.646234 227.671679 
L 770.136699 227.671679 
L 770.136699 227.163834 
L 771.627164 227.163834 
L 771.627164 227.2841 
L 773.117629 227.2841 
L 773.117629 229.754837 
L 774.608094 229.754837 
L 774.608094 228.595834 
L 776.098559 228.595834 
L 776.098559 228.88463 
L 777.589024 228.88463 
L 777.589024 230.181563 
L 779.079489 230.181563 
L 779.079489 229.858524 
L 780.569955 229.858524 
L 780.569955 228.935366 
L 782.06042 228.935366 
L 782.06042 227.348335 
L 783.550885 227.348335 
L 783.550885 215.450633 
L 785.04135 215.450633 
L 785.04135 210.191111 
L 786.531815 210.191111 
L 786.531815 203.128243 
L 788.02228 203.128243 
L 788.02228 201.751363 
L 789.512745 201.751363 
L 789.512745 198.860323 
L 791.00321 198.860323 
L 791.00321 200.168628 
L 792.493675 200.168628 
L 792.493675 203.166263 
L 793.98414 203.166263 
L 793.98414 208.049795 
L 795.474605 208.049795 
L 795.474605 205.561784 
L 796.96507 205.561784 
L 796.96507 195.01453 
L 798.455535 195.01453 
L 798.455535 196.994826 
L 799.946 196.994826 
L 799.946 199.69685 
L 801.436465 199.69685 
L 801.436465 200.112423 
L 802.92693 200.112423 
L 802.92693 204.698869 
L 804.417395 204.698869 
L 804.417395 214.185512 
L 805.90786 214.185512 
L 805.90786 194.46975 
L 807.398325 194.46975 
L 807.398325 184.886928 
L 808.88879 184.886928 
L 808.88879 183.450631 
L 810.379255 183.450631 
L 810.379255 180.440627 
L 811.869721 180.440627 
L 811.869721 180.296446 
L 813.360186 180.296446 
L 813.360186 181.298291 
L 814.850651 181.298291 
L 814.850651 180.763059 
L 816.341116 180.763059 
L 816.341116 170.739709 
L 817.831581 170.739709 
L 817.831581 170.373657 
L 819.322046 170.373657 
L 819.322046 176.839446 
L 820.812511 176.839446 
L 820.812511 182.217021 
L 822.302976 182.217021 
L 822.302976 174.014941 
L 823.793441 174.014941 
L 823.793441 180.063856 
L 825.283906 180.063856 
L 825.283906 173.776101 
L 826.774371 173.776101 
L 826.774371 182.002008 
L 828.264836 182.002008 
L 828.264836 185.709176 
L 829.755301 185.709176 
L 829.755301 183.051551 
L 831.245766 183.051551 
L 831.245766 185.836647 
L 832.736231 185.836647 
L 832.736231 187.048774 
L 834.226696 187.048774 
L 834.226696 181.548155 
L 835.717161 181.548155 
L 835.717161 183.686694 
L 838.698091 183.722674 
L 838.698091 189.759088 
L 840.188556 189.759088 
L 840.188556 192.909107 
L 841.679021 192.909107 
L 841.679021 187.657311 
L 843.169486 187.657311 
L 843.169486 172.177394 
L 844.659952 172.177394 
L 844.659952 170.602038 
L 846.150417 170.602038 
L 846.150417 169.713168 
L 847.640882 169.713168 
L 847.640882 168.396487 
L 849.131347 168.396487 
L 849.131347 170.828379 
L 850.621812 170.828379 
L 850.621812 170.059775 
L 852.112277 170.059775 
L 852.112277 170.716706 
L 853.602742 170.716706 
L 853.602742 172.617663 
L 855.093207 172.617663 
L 855.093207 175.325373 
L 856.583672 175.325373 
L 856.583672 174.72773 
L 858.074137 174.72773 
L 858.074137 173.132756 
L 859.564602 173.132756 
L 859.564602 175.891377 
L 861.055067 175.891377 
L 861.055067 173.643986 
L 862.545532 173.643986 
L 862.545532 174.867831 
L 864.035997 174.867831 
L 864.035997 186.246881 
L 865.526462 186.246881 
L 865.526462 188.584678 
L 867.016927 188.584678 
L 867.016927 188.905808 
L 868.507392 188.905808 
L 868.507392 181.606444 
L 869.997857 181.606444 
L 869.997857 189.688474 
L 871.488322 189.688474 
L 871.488322 190.19098 
L 872.978787 190.19098 
L 872.978787 189.845892 
L 874.469252 189.845892 
L 874.469252 186.793875 
L 875.959718 186.793875 
L 875.959718 185.805441 
L 877.450183 185.805441 
L 877.450183 186.594921 
L 878.940648 186.594921 
L 878.940648 188.196622 
L 880.431113 188.196622 
L 880.431113 184.908456 
L 881.921578 184.908456 
L 881.921578 181.318559 
L 883.412043 181.318559 
L 883.412043 180.712583 
L 884.902508 180.712583 
L 884.902508 185.827576 
L 886.392973 185.827576 
L 886.392973 178.194669 
L 887.883438 178.194669 
L 887.883438 173.137139 
L 889.373903 173.137139 
L 889.373903 154.821347 
L 890.864368 154.821347 
L 890.864368 154.005262 
L 892.354833 154.005262 
L 892.354833 148.146752 
L 893.845298 148.146752 
L 893.845298 149.848798 
L 895.335763 149.848798 
L 895.335763 142.696609 
L 896.826228 142.696609 
L 896.826228 143.559872 
L 898.316693 143.559872 
L 898.316693 143.008886 
L 899.807158 143.008886 
L 899.807158 146.547654 
L 901.297623 146.547654 
L 901.297623 137.902052 
L 902.788088 137.902052 
L 902.788088 137.613733 
L 904.278553 137.613733 
L 904.278553 134.89219 
L 905.101932 134.89219 
L 905.101932 134.89219 
" clip-path="url(#pe437d1463f)" style="fill: none; stroke: #3572c6; stroke-width: 1.2; stroke-linecap: square"/>
   </g>
   <g id="patch_3">
    <path d="M 52.88375 300.96 
L 52.88375 7.2 
" style="fill: none; stroke: #899ab8; stroke-width: 1.12; stroke-linejoin: miter; stroke-linecap: square"/>
   </g>
   <g id="patch_4">
    <path d="M 945.68375 300.96 
L 945.68375 7.2 
" style="fill: none; stroke: #899ab8; stroke-width: 1.12; stroke-linejoin: miter; stroke-linecap: square"/>
   </g>
   <g id="patch_5">
    <path d="M 52.88375 300.96 
L 945.68375 300.96 
" style="fill: none; stroke: #899ab8; stroke-width: 1.12; stroke-linejoin: miter; stroke-linecap: square"/>
   </g>
   <g id="patch_6">
    <path d="M 52.88375 7.2 
L 945.68375 7.2 
" style="fill: none; stroke: #899ab8; stroke-width: 1.12; stroke-linejoin: miter; stroke-linecap: square"/>
   </g>
  </g>
 </g>
 <defs>
  <clipPath id="pe437d1463f">
   <rect x="52.88375" y="7.2" width="892.8" height="293.76"/>
  </clipPath>
 </defs>
</svg>
