<?xml version="1.0" encoding="utf-8" standalone="no"?>
<!DOCTYPE svg PUBLIC "-//W3C//DTD SVG 1.1//EN"
  "http://www.w3.org/Graphics/SVG/1.1/DTD/svg11.dtd">
<svg xmlns:xlink="http://www.w3.org/1999/xlink" width="934.976pt" height="358.290693pt" viewBox="0 0 934.976 358.290693" xmlns="http://www.w3.org/2000/svg" version="1.1">
 <metadata>
  <rdf:RDF xmlns:dc="http://purl.org/dc/elements/1.1/" xmlns:cc="http://creativecommons.org/ns#" xmlns:rdf="http://www.w3.org/1999/02/22-rdf-syntax-ns#">
   <cc:Work>
    <dc:type rdf:resource="http://purl.org/dc/dcmitype/StillImage"/>
    <dc:date>2025-09-22T11:37:31.513383</dc:date>
    <dc:format>image/svg+xml</dc:format>
    <dc:creator>
     <cc:Agent>
      <dc:title>Matplotlib v3.10.6, https://matplotlib.org/</dc:title>
     </cc:Agent>
    </dc:creator>
   </cc:Work>
  </rdf:RDF>
 </metadata>
 <defs>
  <style type="text/css">*{stroke-linejoin: round; stroke-linecap: butt}</style>
 </defs>
 <g id="figure_1">
  <g id="patch_1">
   <path d="M 0 358.290693 
L 934.976 358.290693 
L 934.976 0 
L 0 0 
z
" style="fill: #373e4b"/>
  </g>
  <g id="axes_1">
   <g id="patch_2">
    <path d="M 34.976 300.96 
L 927.776 300.96 
L 927.776 7.2 
L 34.976 7.2 
z
" style="fill: #373e4b"/>
   </g>
   <g id="matplotlib.axis_1">
    <g id="xtick_1">
     <g id="line2d_1">
      <path d="M 138.98458 300.96 
L 138.98458 7.2 
" clip-path="url(#p113651f14d)" style="fill: none; stroke: #546379; stroke-width: 1.12; stroke-linecap: square"/>
     </g>
     <g id="line2d_2"/>
     <g id="text_1">
      <!-- 2012 -->
      <g style="fill: #b1bed6" transform="translate(109.90354 330.884854) rotate(-30) scale(0.126 -0.126)">
       <defs>
        <path id="DejaVuSans-32" d="M 1228 531 
L 3431 531 
L 3431 0 
L 469 0 
L 469 531 
Q 828 903 1448 1529 
Q 2069 2156 2228 2338 
Q 2531 2678 2651 2914 
Q 2772 3150 2772 3378 
Q 2772 3750 2511 3984 
Q 2250 4219 1831 4219 
Q 1534 4219 1204 4116 
Q 875 4013 500 3803 
L 500 4441 
Q 881 4594 1212 4672 
Q 1544 4750 1819 4750 
Q 2544 4750 2975 4387 
Q 3406 4025 3406 3419 
Q 3406 3131 3298 2873 
Q 3191 2616 2906 2266 
Q 2828 2175 2409 1742 
Q 1991 1309 1228 531 
z
" transform="scale(0.015625)"/>
        <path id="DejaVuSans-30" d="M 2034 4250 
Q 1547 4250 1301 3770 
Q 1056 3291 1056 2328 
Q 1056 1369 1301 889 
Q 1547 409 2034 409 
Q 2525 409 2770 889 
Q 3016 1369 3016 2328 
Q 3016 3291 2770 3770 
Q 2525 4250 2034 4250 
z
M 2034 4750 
Q 2819 4750 3233 4129 
Q 3647 3509 3647 2328 
Q 3647 1150 3233 529 
Q 2819 -91 2034 -91 
Q 1250 -91 836 529 
Q 422 1150 422 2328 
Q 422 3509 836 4129 
Q 1250 4750 2034 4750 
z
" transform="scale(0.015625)"/>
        <path id="DejaVuSans-31" d="M 794 531 
L 1825 531 
L 1825 4091 
L 703 3866 
L 703 4441 
L 1819 4666 
L 2450 4666 
L 2450 531 
L 3481 531 
L 3481 0 
L 794 0 
L 794 531 
z
" transform="scale(0.015625)"/>
       </defs>
       <use xlink:href="#DejaVuSans-32"/>
       <use xlink:href="#DejaVuSans-30" transform="translate(63.623047 0)"/>
       <use xlink:href="#DejaVuSans-31" transform="translate(127.246094 0)"/>
       <use xlink:href="#DejaVuSans-32" transform="translate(190.869141 0)"/>
      </g>
     </g>
    </g>
    <g id="xtick_2">
     <g id="line2d_3">
      <path d="M 248.078611 300.96 
L 248.078611 7.2 
" clip-path="url(#p113651f14d)" style="fill: none; stroke: #546379; stroke-width: 1.12; stroke-linecap: square"/>
     </g>
     <g id="line2d_4"/>
     <g id="text_2">
      <!-- 2014 -->
      <g style="fill: #b1bed6" transform="translate(218.997571 330.884854) rotate(-30) scale(0.126 -0.126)">
       <defs>
        <path id="DejaVuSans-34" d="M 2419 4116 
L 825 1625 
L 2419 1625 
L 2419 4116 
z
M 2253 4666 
L 3047 4666 
L 3047 1625 
L 3713 1625 
L 3713 1100 
L 3047 1100 
L 3047 0 
L 2419 0 
L 2419 1100 
L 313 1100 
L 313 1709 
L 2253 4666 
z
" transform="scale(0.015625)"/>
       </defs>
       <use xlink:href="#DejaVuSans-32"/>
       <use xlink:href="#DejaVuSans-30" transform="translate(63.623047 0)"/>
       <use xlink:href="#DejaVuSans-31" transform="translate(127.246094 0)"/>
       <use xlink:href="#DejaVuSans-34" transform="translate(190.869141 0)"/>
      </g>
     </g>
    </g>
    <g id="xtick_3">
     <g id="line2d_5">
      <path d="M 357.023402 300.96 
L 357.023402 7.2 
" clip-path="url(#p113651f14d)" style="fill: none; stroke: #546379; stroke-width: 1.12; stroke-linecap: square"/>
     </g>
     <g id="line2d_6"/>
     <g id="text_3">
      <!-- 2016 -->
      <g style="fill: #b1bed6" transform="translate(327.942362 330.884854) rotate(-30) scale(0.126 -0.126)">
       <defs>
        <path id="DejaVuSans-36" d="M 2113 2584 
Q 1688 2584 1439 2293 
Q 1191 2003 1191 1497 
Q 1191 994 1439 701 
Q 1688 409 2113 409 
Q 2538 409 2786 701 
Q 3034 994 3034 1497 
Q 3034 2003 2786 2293 
Q 2538 2584 2113 2584 
z
M 3366 4563 
L 3366 3988 
Q 3128 4100 2886 4159 
Q 2644 4219 2406 4219 
Q 1781 4219 1451 3797 
Q 1122 3375 1075 2522 
Q 1259 2794 1537 2939 
Q 1816 3084 2150 3084 
Q 2853 3084 3261 2657 
Q 3669 2231 3669 1497 
Q 3669 778 3244 343 
Q 2819 -91 2113 -91 
Q 1303 -91 875 529 
Q 447 1150 447 2328 
Q 447 3434 972 4092 
Q 1497 4750 2381 4750 
Q 2619 4750 2861 4703 
Q 3103 4656 3366 4563 
z
" transform="scale(0.015625)"/>
       </defs>
       <use xlink:href="#DejaVuSans-32"/>
       <use xlink:href="#DejaVuSans-30" transform="translate(63.623047 0)"/>
       <use xlink:href="#DejaVuSans-31" transform="translate(127.246094 0)"/>
       <use xlink:href="#DejaVuSans-36" transform="translate(190.869141 0)"/>
      </g>
     </g>
    </g>
    <g id="xtick_4">
     <g id="line2d_7">
      <path d="M 466.117432 300.96 
L 466.117432 7.2 
" clip-path="url(#p113651f14d)" style="fill: none; stroke: #546379; stroke-width: 1.12; stroke-linecap: square"/>
     </g>
     <g id="line2d_8"/>
     <g id="text_4">
      <!-- 2018 -->
      <g style="fill: #b1bed6" transform="translate(437.036392 330.884854) rotate(-30) scale(0.126 -0.126)">
       <defs>
        <path id="DejaVuSans-38" d="M 2034 2216 
Q 1584 2216 1326 1975 
Q 1069 1734 1069 1313 
Q 1069 891 1326 650 
Q 1584 409 2034 409 
Q 2484 409 2743 651 
Q 3003 894 3003 1313 
Q 3003 1734 2745 1975 
Q 2488 2216 2034 2216 
z
M 1403 2484 
Q 997 2584 770 2862 
Q 544 3141 544 3541 
Q 544 4100 942 4425 
Q 1341 4750 2034 4750 
Q 2731 4750 3128 4425 
Q 3525 4100 3525 3541 
Q 3525 3141 3298 2862 
Q 3072 2584 2669 2484 
Q 3125 2378 3379 2068 
Q 3634 1759 3634 1313 
Q 3634 634 3220 271 
Q 2806 -91 2034 -91 
Q 1263 -91 848 271 
Q 434 634 434 1313 
Q 434 1759 690 2068 
Q 947 2378 1403 2484 
z
M 1172 3481 
Q 1172 3119 1398 2916 
Q 1625 2713 2034 2713 
Q 2441 2713 2670 2916 
Q 2900 3119 2900 3481 
Q 2900 3844 2670 4047 
Q 2441 4250 2034 4250 
Q 1625 4250 1398 4047 
Q 1172 3844 1172 3481 
z
" transform="scale(0.015625)"/>
       </defs>
       <use xlink:href="#DejaVuSans-32"/>
       <use xlink:href="#DejaVuSans-30" transform="translate(63.623047 0)"/>
       <use xlink:href="#DejaVuSans-31" transform="translate(127.246094 0)"/>
       <use xlink:href="#DejaVuSans-38" transform="translate(190.869141 0)"/>
      </g>
     </g>
    </g>
    <g id="xtick_5">
     <g id="line2d_9">
      <path d="M 575.062223 300.96 
L 575.062223 7.2 
" clip-path="url(#p113651f14d)" style="fill: none; stroke: #546379; stroke-width: 1.12; stroke-linecap: square"/>
     </g>
     <g id="line2d_10"/>
     <g id="text_5">
      <!-- 2020 -->
      <g style="fill: #b1bed6" transform="translate(545.981183 330.884854) rotate(-30) scale(0.126 -0.126)">
       <use xlink:href="#DejaVuSans-32"/>
       <use xlink:href="#DejaVuSans-30" transform="translate(63.623047 0)"/>
       <use xlink:href="#DejaVuSans-32" transform="translate(127.246094 0)"/>
       <use xlink:href="#DejaVuSans-30" transform="translate(190.869141 0)"/>
      </g>
     </g>
    </g>
    <g id="xtick_6">
     <g id="line2d_11">
      <path d="M 684.156254 300.96 
L 684.156254 7.2 
" clip-path="url(#p113651f14d)" style="fill: none; stroke: #546379; stroke-width: 1.12; stroke-linecap: square"/>
     </g>
     <g id="line2d_12"/>
     <g id="text_6">
      <!-- 2022 -->
      <g style="fill: #b1bed6" transform="translate(655.075214 330.884854) rotate(-30) scale(0.126 -0.126)">
       <use xlink:href="#DejaVuSans-32"/>
       <use xlink:href="#DejaVuSans-30" transform="translate(63.623047 0)"/>
       <use xlink:href="#DejaVuSans-32" transform="translate(127.246094 0)"/>
       <use xlink:href="#DejaVuSans-32" transform="translate(190.869141 0)"/>
      </g>
     </g>
    </g>
    <g id="xtick_7">
     <g id="line2d_13">
      <path d="M 793.101045 300.96 
L 793.101045 7.2 
" clip-path="url(#p113651f14d)" style="fill: none; stroke: #546379; stroke-width: 1.12; stroke-linecap: square"/>
     </g>
     <g id="line2d_14"/>
     <g id="text_7">
      <!-- 2024 -->
      <g style="fill: #b1bed6" transform="translate(764.020005 330.884854) rotate(-30) scale(0.126 -0.126)">
       <use xlink:href="#DejaVuSans-32"/>
       <use xlink:href="#DejaVuSans-30" transform="translate(63.623047 0)"/>
       <use xlink:href="#DejaVuSans-32" transform="translate(127.246094 0)"/>
       <use xlink:href="#DejaVuSans-34" transform="translate(190.869141 0)"/>
      </g>
     </g>
    </g>
    <g id="xtick_8">
     <g id="line2d_15">
      <path d="M 902.195075 300.96 
L 902.195075 7.2 
" clip-path="url(#p113651f14d)" style="fill: none; stroke: #546379; stroke-width: 1.12; stroke-linecap: square"/>
     </g>
     <g id="line2d_16"/>
     <g id="text_8">
      <!-- 2026 -->
      <g style="fill: #b1bed6" transform="translate(873.114035 330.884854) rotate(-30) scale(0.126 -0.126)">
       <use xlink:href="#DejaVuSans-32"/>
       <use xlink:href="#DejaVuSans-30" transform="translate(63.623047 0)"/>
       <use xlink:href="#DejaVuSans-32" transform="translate(127.246094 0)"/>
       <use xlink:href="#DejaVuSans-36" transform="translate(190.869141 0)"/>
      </g>
     </g>
    </g>
    <g id="text_9">
     <!-- Date -->
     <g style="fill: #b1bed6" transform="translate(464.166875 348.095943) scale(0.144 -0.144)">
      <defs>
       <path id="DejaVuSans-44" d="M 1259 4147 
L 1259 519 
L 2022 519 
Q 2988 519 3436 956 
Q 3884 1394 3884 2338 
Q 3884 3275 3436 3711 
Q 2988 4147 2022 4147 
L 1259 4147 
z
M 628 4666 
L 1925 4666 
Q 3281 4666 3915 4102 
Q 4550 3538 4550 2338 
Q 4550 1131 3912 565 
Q 3275 0 1925 0 
L 628 0 
L 628 4666 
z
" transform="scale(0.015625)"/>
       <path id="DejaVuSans-61" d="M 2194 1759 
Q 1497 1759 1228 1600 
Q 959 1441 959 1056 
Q 959 750 1161 570 
Q 1363 391 1709 391 
Q 2188 391 2477 730 
Q 2766 1069 2766 1631 
L 2766 1759 
L 2194 1759 
z
M 3341 1997 
L 3341 0 
L 2766 0 
L 2766 531 
Q 2569 213 2275 61 
Q 1981 -91 1556 -91 
Q 1019 -91 701 211 
Q 384 513 384 1019 
Q 384 1609 779 1909 
Q 1175 2209 1959 2209 
L 2766 2209 
L 2766 2266 
Q 2766 2663 2505 2880 
Q 2244 3097 1772 3097 
Q 1472 3097 1187 3025 
Q 903 2953 641 2809 
L 641 3341 
Q 956 3463 1253 3523 
Q 1550 3584 1831 3584 
Q 2591 3584 2966 3190 
Q 3341 2797 3341 1997 
z
" transform="scale(0.015625)"/>
       <path id="DejaVuSans-74" d="M 1172 4494 
L 1172 3500 
L 2356 3500 
L 2356 3053 
L 1172 3053 
L 1172 1153 
Q 1172 725 1289 603 
Q 1406 481 1766 481 
L 2356 481 
L 2356 0 
L 1766 0 
Q 1100 0 847 248 
Q 594 497 594 1153 
L 594 3053 
L 172 3053 
L 172 3500 
L 594 3500 
L 594 4494 
L 1172 4494 
z
" transform="scale(0.015625)"/>
       <path id="DejaVuSans-65" d="M 3597 1894 
L 3597 1613 
L 953 1613 
Q 991 1019 1311 708 
Q 1631 397 2203 397 
Q 2534 397 2845 478 
Q 3156 559 3463 722 
L 3463 178 
Q 3153 47 2828 -22 
Q 2503 -91 2169 -91 
Q 1331 -91 842 396 
Q 353 884 353 1716 
Q 353 2575 817 3079 
Q 1281 3584 2069 3584 
Q 2775 3584 3186 3129 
Q 3597 2675 3597 1894 
z
M 3022 2063 
Q 3016 2534 2758 2815 
Q 2500 3097 2075 3097 
Q 1594 3097 1305 2825 
Q 1016 2553 972 2059 
L 3022 2063 
z
" transform="scale(0.015625)"/>
      </defs>
      <use xlink:href="#DejaVuSans-44"/>
      <use xlink:href="#DejaVuSans-61" transform="translate(77.001953 0)"/>
      <use xlink:href="#DejaVuSans-74" transform="translate(138.28125 0)"/>
      <use xlink:href="#DejaVuSans-65" transform="translate(177.490234 0)"/>
     </g>
    </g>
   </g>
   <g id="matplotlib.axis_2">
    <g id="ytick_1">
     <g id="line2d_17">
      <path d="M 34.976 255.287978 
L 927.776 255.287978 
" clip-path="url(#p113651f14d)" style="fill: none; stroke: #546379; stroke-width: 1.12; stroke-linecap: square"/>
     </g>
     <g id="line2d_18"/>
     <g id="text_10">
      <!-- $\mathdefault{10^{0}}$ -->
      <g style="fill: #b1bed6" transform="translate(7.2 260.074994) scale(0.126 -0.126)">
       <use xlink:href="#DejaVuSans-31" transform="translate(0 0.765625)"/>
       <use xlink:href="#DejaVuSans-30" transform="translate(63.623047 0.765625)"/>
       <use xlink:href="#DejaVuSans-30" transform="translate(128.203125 39.046875) scale(0.7)"/>
      </g>
     </g>
    </g>
    <g id="ytick_2">
     <g id="line2d_19">
      <path d="M 34.976 209.049521 
L 927.776 209.049521 
" clip-path="url(#p113651f14d)" style="fill: none; stroke: #546379; stroke-width: 1.12; stroke-linecap: square"/>
     </g>
     <g id="line2d_20"/>
     <g id="text_11">
      <!-- $\mathdefault{10^{1}}$ -->
      <g style="fill: #b1bed6" transform="translate(7.2 213.836537) scale(0.126 -0.126)">
       <use xlink:href="#DejaVuSans-31" transform="translate(0 0.684375)"/>
       <use xlink:href="#DejaVuSans-30" transform="translate(63.623047 0.684375)"/>
       <use xlink:href="#DejaVuSans-31" transform="translate(128.203125 38.965625) scale(0.7)"/>
      </g>
     </g>
    </g>
    <g id="ytick_3">
     <g id="line2d_21">
      <path d="M 34.976 162.811064 
L 927.776 162.811064 
" clip-path="url(#p113651f14d)" style="fill: none; stroke: #546379; stroke-width: 1.12; stroke-linecap: square"/>
     </g>
     <g id="line2d_22"/>
     <g id="text_12">
      <!-- $\mathdefault{10^{2}}$ -->
      <g style="fill: #b1bed6" transform="translate(7.2 167.598079) scale(0.126 -0.126)">
       <use xlink:href="#DejaVuSans-31" transform="translate(0 0.765625)"/>
       <use xlink:href="#DejaVuSans-30" transform="translate(63.623047 0.765625)"/>
       <use xlink:href="#DejaVuSans-32" transform="translate(128.203125 39.046875) scale(0.7)"/>
      </g>
     </g>
    </g>
    <g id="ytick_4">
     <g id="line2d_23">
      <path d="M 34.976 116.572607 
L 927.776 116.572607 
" clip-path="url(#p113651f14d)" style="fill: none; stroke: #546379; stroke-width: 1.12; stroke-linecap: square"/>
     </g>
     <g id="line2d_24"/>
     <g id="text_13">
      <!-- $\mathdefault{10^{3}}$ -->
      <g style="fill: #b1bed6" transform="translate(7.2 121.359622) scale(0.126 -0.126)">
       <defs>
        <path id="DejaVuSans-33" d="M 2597 2516 
Q 3050 2419 3304 2112 
Q 3559 1806 3559 1356 
Q 3559 666 3084 287 
Q 2609 -91 1734 -91 
Q 1441 -91 1130 -33 
Q 819 25 488 141 
L 488 750 
Q 750 597 1062 519 
Q 1375 441 1716 441 
Q 2309 441 2620 675 
Q 2931 909 2931 1356 
Q 2931 1769 2642 2001 
Q 2353 2234 1838 2234 
L 1294 2234 
L 1294 2753 
L 1863 2753 
Q 2328 2753 2575 2939 
Q 2822 3125 2822 3475 
Q 2822 3834 2567 4026 
Q 2313 4219 1838 4219 
Q 1578 4219 1281 4162 
Q 984 4106 628 3988 
L 628 4550 
Q 988 4650 1302 4700 
Q 1616 4750 1894 4750 
Q 2613 4750 3031 4423 
Q 3450 4097 3450 3541 
Q 3450 3153 3228 2886 
Q 3006 2619 2597 2516 
z
" transform="scale(0.015625)"/>
       </defs>
       <use xlink:href="#DejaVuSans-31" transform="translate(0 0.765625)"/>
       <use xlink:href="#DejaVuSans-30" transform="translate(63.623047 0.765625)"/>
       <use xlink:href="#DejaVuSans-33" transform="translate(128.203125 39.046875) scale(0.7)"/>
      </g>
     </g>
    </g>
    <g id="ytick_5">
     <g id="line2d_25">
      <path d="M 34.976 70.334149 
L 927.776 70.334149 
" clip-path="url(#p113651f14d)" style="fill: none; stroke: #546379; stroke-width: 1.12; stroke-linecap: square"/>
     </g>
     <g id="line2d_26"/>
     <g id="text_14">
      <!-- $\mathdefault{10^{4}}$ -->
      <g style="fill: #b1bed6" transform="translate(7.2 75.121165) scale(0.126 -0.126)">
       <use xlink:href="#DejaVuSans-31" transform="translate(0 0.684375)"/>
       <use xlink:href="#DejaVuSans-30" transform="translate(63.623047 0.684375)"/>
       <use xlink:href="#DejaVuSans-34" transform="translate(128.203125 38.965625) scale(0.7)"/>
      </g>
     </g>
    </g>
    <g id="ytick_6">
     <g id="line2d_27">
      <path d="M 34.976 24.095692 
L 927.776 24.095692 
" clip-path="url(#p113651f14d)" style="fill: none; stroke: #546379; stroke-width: 1.12; stroke-linecap: square"/>
     </g>
     <g id="line2d_28"/>
     <g id="text_15">
      <!-- $\mathdefault{10^{5}}$ -->
      <g style="fill: #b1bed6" transform="translate(7.2 28.882708) scale(0.126 -0.126)">
       <defs>
        <path id="DejaVuSans-35" d="M 691 4666 
L 3169 4666 
L 3169 4134 
L 1269 4134 
L 1269 2991 
Q 1406 3038 1543 3061 
Q 1681 3084 1819 3084 
Q 2600 3084 3056 2656 
Q 3513 2228 3513 1497 
Q 3513 744 3044 326 
Q 2575 -91 1722 -91 
Q 1428 -91 1123 -41 
Q 819 9 494 109 
L 494 744 
Q 775 591 1075 516 
Q 1375 441 1709 441 
Q 2250 441 2565 725 
Q 2881 1009 2881 1497 
Q 2881 1984 2565 2268 
Q 2250 2553 1709 2553 
Q 1456 2553 1204 2497 
Q 953 2441 691 2322 
L 691 4666 
z
" transform="scale(0.015625)"/>
       </defs>
       <use xlink:href="#DejaVuSans-31" transform="translate(0 0.684375)"/>
       <use xlink:href="#DejaVuSans-30" transform="translate(63.623047 0.684375)"/>
       <use xlink:href="#DejaVuSans-35" transform="translate(128.203125 38.965625) scale(0.7)"/>
      </g>
     </g>
    </g>
    <g id="ytick_7">
     <g id="line2d_29"/>
    </g>
    <g id="ytick_8">
     <g id="line2d_30"/>
    </g>
    <g id="ytick_9">
     <g id="line2d_31"/>
    </g>
    <g id="ytick_10">
     <g id="line2d_32"/>
    </g>
    <g id="ytick_11">
     <g id="line2d_33"/>
    </g>
    <g id="ytick_12">
     <g id="line2d_34"/>
    </g>
    <g id="ytick_13">
     <g id="line2d_35"/>
    </g>
    <g id="ytick_14">
     <g id="line2d_36"/>
    </g>
    <g id="ytick_15">
     <g id="line2d_37"/>
    </g>
    <g id="ytick_16">
     <g id="line2d_38"/>
    </g>
    <g id="ytick_17">
     <g id="line2d_39"/>
    </g>
    <g id="ytick_18">
     <g id="line2d_40"/>
    </g>
    <g id="ytick_19">
     <g id="line2d_41"/>
    </g>
    <g id="ytick_20">
     <g id="line2d_42"/>
    </g>
    <g id="ytick_21">
     <g id="line2d_43"/>
    </g>
    <g id="ytick_22">
     <g id="line2d_44"/>
    </g>
    <g id="ytick_23">
     <g id="line2d_45"/>
    </g>
    <g id="ytick_24">
     <g id="line2d_46"/>
    </g>
    <g id="ytick_25">
     <g id="line2d_47"/>
    </g>
    <g id="ytick_26">
     <g id="line2d_48"/>
    </g>
    <g id="ytick_27">
     <g id="line2d_49"/>
    </g>
    <g id="ytick_28">
     <g id="line2d_50"/>
    </g>
    <g id="ytick_29">
     <g id="line2d_51"/>
    </g>
    <g id="ytick_30">
     <g id="line2d_52"/>
    </g>
    <g id="ytick_31">
     <g id="line2d_53"/>
    </g>
    <g id="ytick_32">
     <g id="line2d_54"/>
    </g>
    <g id="ytick_33">
     <g id="line2d_55"/>
    </g>
    <g id="ytick_34">
     <g id="line2d_56"/>
    </g>
    <g id="ytick_35">
     <g id="line2d_57"/>
    </g>
    <g id="ytick_36">
     <g id="line2d_58"/>
    </g>
    <g id="ytick_37">
     <g id="line2d_59"/>
    </g>
    <g id="ytick_38">
     <g id="line2d_60"/>
    </g>
    <g id="ytick_39">
     <g id="line2d_61"/>
    </g>
    <g id="ytick_40">
     <g id="line2d_62"/>
    </g>
    <g id="ytick_41">
     <g id="line2d_63"/>
    </g>
    <g id="ytick_42">
     <g id="line2d_64"/>
    </g>
    <g id="ytick_43">
     <g id="line2d_65"/>
    </g>
    <g id="ytick_44">
     <g id="line2d_66"/>
    </g>
    <g id="ytick_45">
     <g id="line2d_67"/>
    </g>
    <g id="ytick_46">
     <g id="line2d_68"/>
    </g>
    <g id="ytick_47">
     <g id="line2d_69"/>
    </g>
    <g id="ytick_48">
     <g id="line2d_70"/>
    </g>
    <g id="ytick_49">
     <g id="line2d_71"/>
    </g>
    <g id="ytick_50">
     <g id="line2d_72"/>
    </g>
    <g id="ytick_51">
     <g id="line2d_73"/>
    </g>
    <g id="ytick_52">
     <g id="line2d_74"/>
    </g>
    <g id="ytick_53">
     <g id="line2d_75"/>
    </g>
    <g id="ytick_54">
     <g id="line2d_76"/>
    </g>
    <g id="ytick_55">
     <g id="line2d_77"/>
    </g>
   </g>
   <g id="line2d_78">
    <path d="M 75.557818 287.607273 
L 75.557818 283.126303 
L 76.154776 283.126303 
L 76.154776 278.16908 
L 76.751734 278.16908 
L 76.751734 279.465085 
L 77.348691 279.465085 
L 77.348691 280.850538 
L 77.945649 280.850538 
L 77.945649 280.145865 
L 78.542607 280.145865 
L 78.542607 280.850538 
L 79.736522 280.850538 
L 79.736522 282.338708 
L 80.33348 282.338708 
L 80.33348 284.800698 
L 81.527396 284.800698 
L 81.527396 283.126303 
L 82.124354 283.126303 
L 82.124354 282.338708 
L 82.721311 282.338708 
L 82.721311 283.126303 
L 83.318269 283.126303 
L 83.318269 281.58084 
L 83.915227 281.58084 
L 83.915227 279.465085 
L 85.109142 279.465085 
L 85.109142 278.16908 
L 85.7061 278.16908 
L 85.7061 275.803866 
L 86.303058 275.803866 
L 86.303058 273.68811 
L 86.900016 273.68811 
L 86.900016 274.718136 
L 87.496973 274.718136 
L 87.496973 271.774176 
L 88.093931 271.774176 
L 88.093931 271.322896 
L 88.690889 271.322896 
L 88.690889 256.962373 
L 89.884804 256.962373 
L 89.884804 255.899633 
L 90.481762 255.899633 
L 90.481762 253.742515 
L 91.07872 253.742515 
L 91.07872 254.308218 
L 91.675678 254.308218 
L 91.675678 257.855014 
L 92.272635 257.855014 
L 92.272635 255.287978 
L 92.869593 255.287978 
L 92.869593 255.899633 
L 93.466551 255.899633 
L 93.466551 256.962373 
L 94.063509 256.962373 
L 94.063509 257.855014 
L 94.660466 257.855014 
L 94.660466 257.181841 
L 95.257424 257.181841 
L 95.257424 258.084515 
L 95.854382 258.084515 
L 95.854382 260.021543 
L 96.45134 260.021543 
L 96.45134 257.628106 
L 97.048298 257.628106 
L 97.048298 259.768948 
L 98.242213 259.768948 
L 98.242213 261.064953 
L 98.839171 261.064953 
L 98.839171 260.798974 
L 99.436129 260.798974 
L 99.436129 255.693671 
L 100.033086 255.693671 
L 100.033086 251.626759 
L 100.630044 251.626759 
L 100.630044 248.820185 
L 101.227002 248.820185 
L 101.227002 243.708944 
L 101.82396 243.708944 
L 101.82396 226.758834 
L 102.420917 226.758834 
L 102.420917 229.789781 
L 103.017875 229.789781 
L 103.017875 227.906638 
L 103.614833 227.906638 
L 103.614833 217.54624 
L 104.211791 217.54624 
L 104.211791 212.384081 
L 104.808748 212.384081 
L 104.808748 216.269405 
L 105.405706 216.269405 
L 105.405706 215.451956 
L 106.002664 215.451956 
L 106.002664 211.892274 
L 106.599622 211.892274 
L 106.599622 209.723378 
L 107.196579 209.723378 
L 107.196579 196.107609 
L 107.793537 196.107609 
L 107.793537 185.479929 
L 108.390495 185.479929 
L 108.390495 191.755656 
L 108.987453 191.755656 
L 108.987453 196.298254 
L 109.58441 196.298254 
L 109.58441 200.391896 
L 110.181368 200.391896 
L 110.181368 197.720226 
L 110.778326 197.720226 
L 110.778326 197.984682 
L 111.375284 197.984682 
L 111.375284 199.940326 
L 111.972241 199.940326 
L 111.972241 199.486212 
L 112.569199 199.486212 
L 112.569199 200.813839 
L 113.166157 200.813839 
L 113.166157 201.937359 
L 113.763115 201.937359 
L 113.763115 201.532794 
L 114.360073 201.532794 
L 114.360073 202.393443 
L 114.95703 202.393443 
L 114.95703 202.149859 
L 115.553988 202.149859 
L 115.553988 201.477626 
L 116.150946 201.477626 
L 116.150946 206.242946 
L 116.747904 206.242946 
L 116.747904 209.744155 
L 117.344861 209.744155 
L 117.344861 209.190583 
L 117.941819 209.190583 
L 117.941819 206.488912 
L 118.538777 206.488912 
L 118.538777 205.811078 
L 119.135735 205.811078 
L 119.135735 206.595256 
L 119.732692 206.595256 
L 119.732692 210.121868 
L 120.32965 210.121868 
L 120.32965 212.407803 
L 120.926608 212.407803 
L 120.926608 212.863939 
L 121.523566 212.863939 
L 121.523566 216.912523 
L 122.120523 216.912523 
L 122.120523 218.681424 
L 122.717481 218.681424 
L 122.717481 222.888519 
L 123.314439 222.888519 
L 123.314439 218.713891 
L 123.911397 218.713891 
L 123.911397 221.091294 
L 124.508354 221.091294 
L 124.508354 223.211114 
L 125.105312 223.211114 
L 125.105312 222.729145 
L 125.70227 222.729145 
L 125.70227 223.830314 
L 126.299228 223.830314 
L 126.299228 226.662058 
L 126.896185 226.662058 
L 126.896185 227.399513 
L 127.493143 227.399513 
L 127.493143 236.177635 
L 128.090101 236.177635 
L 128.090101 231.191357 
L 128.687059 231.191357 
L 128.687059 232.568171 
L 129.284017 232.568171 
L 129.284017 230.831686 
L 129.880974 230.831686 
L 129.880974 231.805506 
L 130.477932 231.805506 
L 130.477932 231.993474 
L 131.07489 231.993474 
L 131.07489 232.503498 
L 131.671848 232.503498 
L 131.671848 236.100251 
L 132.268805 236.100251 
L 132.268805 237.293539 
L 132.865763 237.293539 
L 132.865763 237.049141 
L 133.462721 237.049141 
L 133.462721 235.793663 
L 134.059679 235.793663 
L 134.059679 232.310718 
L 134.656636 232.310718 
L 134.656636 232.828969 
L 135.253594 232.828969 
L 135.253594 232.439032 
L 135.850552 232.439032 
L 135.850552 231.557588 
L 136.44751 231.557588 
L 136.44751 230.950862 
L 137.044467 230.950862 
L 137.044467 227.55031 
L 137.641425 227.55031 
L 137.641425 226.232243 
L 138.238383 226.232243 
L 138.238383 225.218762 
L 138.835341 225.218762 
L 138.835341 221.535093 
L 139.432298 221.535093 
L 139.432298 216.040558 
L 140.029256 216.040558 
L 140.029256 215.927105 
L 140.626214 215.927105 
L 140.626214 216.097526 
L 141.223172 216.097526 
L 141.223172 218.105811 
L 141.820129 218.105811 
L 141.820129 217.793015 
L 142.417087 217.793015 
L 142.417087 220.337491 
L 143.014045 220.337491 
L 143.014045 220.514418 
L 143.611003 220.514418 
L 143.611003 219.340961 
L 144.20796 219.340961 
L 144.20796 219.85023 
L 145.401876 219.919119 
L 145.401876 224.04103 
L 145.998834 224.04103 
L 145.998834 225.084439 
L 146.595792 225.084439 
L 146.595792 222.297276 
L 147.192749 222.297276 
L 147.192749 223.049169 
L 147.789707 223.049169 
L 147.789707 223.746642 
L 148.386665 223.746642 
L 148.386665 222.76887 
L 148.983623 222.76887 
L 148.983623 223.049169 
L 149.58058 223.049169 
L 149.58058 221.27502 
L 150.177538 221.27502 
L 150.177538 222.065569 
L 150.774496 222.065569 
L 150.774496 223.746642 
L 151.371454 223.746642 
L 151.371454 223.914335 
L 151.968411 223.914335 
L 151.968411 223.211114 
L 153.162327 223.129978 
L 153.162327 223.788434 
L 153.759285 223.788434 
L 153.759285 223.089533 
L 154.9532 223.008886 
L 154.9532 222.027209 
L 155.550158 222.027209 
L 155.550158 222.219743 
L 156.147116 222.219743 
L 156.147116 222.610438 
L 156.744073 222.610438 
L 156.744073 222.258472 
L 157.341031 222.258472 
L 157.341031 222.571025 
L 158.534947 222.571025 
L 158.534947 222.76887 
L 159.131904 222.76887 
L 159.131904 222.453247 
L 160.922778 222.37511 
L 160.922778 222.258472 
L 161.519736 222.258472 
L 161.519736 221.912569 
L 162.116693 221.912569 
L 162.116693 220.836869 
L 163.310609 220.764765 
L 163.310609 218.423557 
L 163.907567 218.423557 
L 163.907567 217.515605 
L 164.504524 217.515605 
L 164.504524 217.272195 
L 165.101482 217.272195 
L 165.101482 217.454475 
L 165.69844 217.454475 
L 165.69844 217.061604 
L 166.295398 217.061604 
L 166.295398 216.912523 
L 166.892355 216.912523 
L 166.892355 216.269405 
L 167.489313 216.269405 
L 167.489313 213.910586 
L 168.086271 213.910586 
L 168.086271 210.143061 
L 168.683229 210.143061 
L 168.683229 210.016233 
L 169.280186 210.016233 
L 169.280186 211.616557 
L 169.877144 211.616557 
L 169.877144 211.277149 
L 170.474102 211.277149 
L 170.474102 208.809982 
L 171.07106 208.809982 
L 171.07106 206.720039 
L 171.668017 206.720039 
L 171.668017 206.069083 
L 172.264975 206.069083 
L 172.264975 204.892447 
L 172.861933 204.892447 
L 172.861933 201.615831 
L 173.458891 201.615831 
L 173.458891 208.534084 
L 174.055848 208.534084 
L 174.055848 207.153851 
L 174.652806 207.153851 
L 174.652806 207.300563 
L 175.249764 207.300563 
L 175.249764 208.031547 
L 175.846722 208.031547 
L 175.846722 206.648639 
L 177.040637 206.702165 
L 177.040637 205.657851 
L 177.637595 205.657851 
L 177.637595 204.360786 
L 178.234553 204.360786 
L 178.234553 204.925126 
L 178.831511 204.925126 
L 178.831511 204.632914 
L 179.428468 204.632914 
L 179.428468 204.440442 
L 180.025426 204.440442 
L 180.025426 203.827351 
L 180.622384 203.827351 
L 180.622384 204.892447 
L 181.219342 204.892447 
L 181.219342 205.221653 
L 181.816299 205.221653 
L 181.816299 205.421799 
L 182.413257 205.421799 
L 182.413257 205.725808 
L 183.010215 205.725808 
L 183.010215 206.138448 
L 183.607173 206.138448 
L 183.607173 207.263784 
L 184.20413 207.263784 
L 184.20413 207.026351 
L 184.801088 207.026351 
L 184.801088 207.190429 
L 185.995004 207.227073 
L 185.995004 207.008203 
L 186.591961 207.008203 
L 186.591961 205.691801 
L 187.188919 205.691801 
L 187.188919 204.859822 
L 187.785877 204.859822 
L 187.785877 204.376692 
L 188.979792 204.313144 
L 188.979792 203.642412 
L 189.57675 203.642412 
L 189.57675 202.948851 
L 190.173708 202.948851 
L 190.173708 202.581728 
L 190.770666 202.581728 
L 190.770666 202.83064 
L 191.964581 202.727773 
L 191.964581 203.097601 
L 192.561539 203.097601 
L 192.561539 202.801196 
L 193.158497 202.801196 
L 193.158497 202.993361 
L 194.352412 202.963677 
L 194.352412 202.307135 
L 194.94937 202.307135 
L 194.94937 201.852984 
L 195.546328 201.852984 
L 195.546328 200.210048 
L 196.143286 200.210048 
L 196.143286 198.240941 
L 196.740243 198.240941 
L 196.740243 196.652541 
L 197.337201 196.652541 
L 197.337201 195.352474 
L 197.934159 195.352474 
L 197.934159 194.150598 
L 198.531117 194.150598 
L 198.531117 193.650079 
L 199.128074 193.650079 
L 199.128074 191.494257 
L 199.725032 191.494257 
L 199.725032 188.955725 
L 200.32199 188.955725 
L 200.32199 189.118806 
L 200.918948 189.118806 
L 200.918948 186.64308 
L 201.515905 186.64308 
L 201.515905 186.200575 
L 202.112863 186.200575 
L 202.112863 184.327641 
L 202.709821 184.327641 
L 202.709821 180.231435 
L 203.306779 180.231435 
L 203.306779 178.580003 
L 203.903736 178.580003 
L 203.903736 178.032658 
L 204.500694 178.032658 
L 204.500694 175.896343 
L 205.097652 175.896343 
L 205.097652 169.901901 
L 205.69461 169.901901 
L 205.69461 167.59808 
L 206.291567 167.59808 
L 206.291567 164.376618 
L 206.888525 164.376618 
L 206.888525 157.38862 
L 207.485483 157.38862 
L 207.485483 152.962911 
L 208.082441 152.962911 
L 208.082441 158.346166 
L 208.679398 158.346166 
L 208.679398 170.526084 
L 209.276356 170.526084 
L 209.276356 159.331393 
L 209.873314 159.331393 
L 209.873314 155.698902 
L 210.470272 155.698902 
L 210.470272 157.775551 
L 211.06723 157.775551 
L 211.06723 159.658255 
L 211.664187 159.658255 
L 211.664187 159.834088 
L 212.261145 159.834088 
L 212.261145 160.411964 
L 212.858103 160.411964 
L 212.858103 159.489052 
L 213.455061 159.489052 
L 213.455061 158.601814 
L 214.648976 158.703028 
L 214.648976 157.237433 
L 215.842892 157.190324 
L 215.842892 158.748905 
L 216.439849 158.748905 
L 216.439849 159.322952 
L 217.036807 159.322952 
L 217.036807 161.622024 
L 217.633765 161.622024 
L 217.633765 162.81508 
L 218.230723 162.81508 
L 218.230723 161.379343 
L 218.82768 161.379343 
L 218.82768 161.200628 
L 219.424638 161.200628 
L 219.424638 162.023468 
L 220.021596 162.023468 
L 220.021596 163.371029 
L 220.618554 163.371029 
L 220.618554 167.281995 
L 221.215511 167.281995 
L 221.215511 168.193005 
L 221.812469 168.193005 
L 221.812469 164.055727 
L 222.409427 164.055727 
L 222.409427 163.41237 
L 223.006385 163.41237 
L 223.006385 165.063388 
L 223.603342 165.063388 
L 223.603342 163.944934 
L 224.2003 163.944934 
L 224.2003 163.07383 
L 224.797258 163.07383 
L 224.797258 161.90411 
L 225.394216 161.90411 
L 225.394216 161.505021 
L 225.991173 161.505021 
L 225.991173 162.256521 
L 226.588131 162.256521 
L 226.588131 161.016143 
L 227.185089 161.016143 
L 227.185089 162.869384 
L 227.782047 162.869384 
L 227.782047 160.818784 
L 228.379005 160.818784 
L 228.379005 160.307101 
L 228.975962 160.307101 
L 228.975962 159.402441 
L 229.57292 159.402441 
L 229.57292 157.528601 
L 230.169878 157.528601 
L 230.169878 159.55383 
L 230.766836 159.55383 
L 230.766836 158.814627 
L 231.363793 158.814627 
L 231.363793 158.483294 
L 231.960751 158.483294 
L 231.960751 157.992375 
L 232.557709 157.992375 
L 232.557709 158.665422 
L 233.154667 158.665422 
L 233.154667 158.3864 
L 233.751624 158.3864 
L 233.751624 158.130281 
L 234.348582 158.130281 
L 234.348582 158.827797 
L 234.94554 158.827797 
L 234.94554 158.471965 
L 235.542498 158.471965 
L 235.542498 157.918266 
L 236.139455 157.918266 
L 236.139455 156.315642 
L 236.736413 156.315642 
L 236.736413 150.33625 
L 237.333371 150.33625 
L 237.333371 149.366356 
L 237.930329 149.366356 
L 237.930329 148.210786 
L 238.527286 148.210786 
L 238.527286 148.592921 
L 239.124244 148.592921 
L 239.124244 144.203962 
L 239.721202 144.203962 
L 239.721202 138.835779 
L 240.31816 138.835779 
L 240.31816 135.327269 
L 240.915117 135.327269 
L 240.915117 131.521795 
L 241.512075 131.521795 
L 241.512075 123.259621 
L 242.109033 123.259621 
L 242.109033 120.691386 
L 242.705991 120.691386 
L 242.705991 114.048269 
L 243.302949 114.048269 
L 243.302949 115.58883 
L 243.899906 115.58883 
L 243.899906 123.566204 
L 244.496864 123.566204 
L 244.496864 119.210965 
L 245.093822 119.210965 
L 245.093822 119.531834 
L 245.69078 119.531834 
L 245.69078 124.161228 
L 246.287737 124.161228 
L 246.287737 124.916921 
L 246.884695 124.916921 
L 246.884695 123.058634 
L 247.481653 123.058634 
L 247.481653 122.837405 
L 248.078611 122.837405 
L 248.078611 120.344818 
L 248.675568 120.344818 
L 248.675568 120.477069 
L 249.272526 120.477069 
L 249.272526 119.977467 
L 249.869484 119.977467 
L 249.869484 120.627637 
L 250.466442 120.627637 
L 250.466442 120.367366 
L 251.063399 120.367366 
L 251.063399 121.561471 
L 251.660357 121.561471 
L 251.660357 121.418329 
L 252.257315 121.418329 
L 252.257315 120.629357 
L 252.854273 120.629357 
L 252.854273 121.536257 
L 253.45123 121.536257 
L 253.45123 124.100663 
L 254.048188 124.100663 
L 254.048188 126.498624 
L 254.645146 126.498624 
L 254.645146 125.852065 
L 255.242104 125.852065 
L 255.242104 127.52865 
L 255.839061 127.52865 
L 255.839061 128.233223 
L 256.436019 128.233223 
L 256.436019 127.949553 
L 257.032977 127.949553 
L 257.032977 124.59367 
L 257.629935 124.59367 
L 257.629935 125.537683 
L 258.82385 125.50288 
L 258.82385 126.020119 
L 259.420808 126.020119 
L 259.420808 127.759019 
L 260.017766 127.759019 
L 260.017766 127.31186 
L 260.614724 127.31186 
L 260.614724 130.897462 
L 261.211681 130.897462 
L 261.211681 133.099007 
L 261.808639 133.099007 
L 261.808639 132.253664 
L 262.405597 132.253664 
L 262.405597 136.592639 
L 263.002555 136.592639 
L 263.002555 132.181886 
L 263.599512 132.181886 
L 263.599512 131.22344 
L 264.19647 131.22344 
L 264.19647 130.958207 
L 264.793428 130.958207 
L 264.793428 132.101659 
L 265.390386 132.101659 
L 265.390386 132.517141 
L 265.987343 132.517141 
L 265.987343 133.207682 
L 267.181259 133.168179 
L 267.181259 132.9473 
L 267.778217 132.9473 
L 267.778217 132.646833 
L 268.375174 132.646833 
L 268.375174 130.974656 
L 268.972132 130.974656 
L 268.972132 129.401009 
L 269.56909 129.401009 
L 269.56909 127.476738 
L 270.166048 127.476738 
L 270.166048 125.828172 
L 270.763005 125.828172 
L 270.763005 124.871637 
L 271.359963 124.871637 
L 271.359963 125.260002 
L 271.956921 125.260002 
L 271.956921 127.11537 
L 272.553879 127.11537 
L 272.553879 126.564572 
L 273.150836 126.564572 
L 273.150836 127.135408 
L 273.747794 127.135408 
L 273.747794 128.188769 
L 274.344752 128.188769 
L 274.344752 126.830885 
L 274.94171 126.830885 
L 274.94171 125.367378 
L 275.538668 125.367378 
L 275.538668 126.031695 
L 276.135625 126.031695 
L 276.135625 125.723694 
L 276.732583 125.723694 
L 276.732583 126.040703 
L 277.329541 126.040703 
L 277.329541 125.85079 
L 277.926499 125.85079 
L 277.926499 126.158172 
L 278.523456 126.158172 
L 278.523456 127.043193 
L 279.120414 127.043193 
L 279.120414 127.440825 
L 279.717372 127.440825 
L 279.717372 127.219175 
L 280.911287 127.202803 
L 280.911287 127.895485 
L 281.508245 127.895485 
L 281.508245 129.554894 
L 282.105203 129.554894 
L 282.105203 129.749794 
L 282.702161 129.749794 
L 282.702161 130.171829 
L 283.896076 130.228036 
L 283.896076 131.464382 
L 284.493034 131.464382 
L 284.493034 131.065781 
L 285.089992 131.065781 
L 285.089992 131.591672 
L 285.686949 131.591672 
L 285.686949 131.440789 
L 286.283907 131.440789 
L 286.283907 132.434238 
L 286.880865 132.434238 
L 286.880865 134.915088 
L 287.477823 134.915088 
L 287.477823 134.46758 
L 288.07478 134.46758 
L 288.07478 136.329346 
L 288.671738 136.329346 
L 288.671738 137.149947 
L 289.268696 137.149947 
L 289.268696 138.590228 
L 289.865654 138.590228 
L 289.865654 136.980015 
L 290.462611 136.980015 
L 290.462611 135.23347 
L 291.059569 135.23347 
L 291.059569 135.510003 
L 291.656527 135.510003 
L 291.656527 137.245291 
L 292.253485 137.245291 
L 292.253485 137.602626 
L 292.850443 137.602626 
L 292.850443 138.367252 
L 293.4474 138.367252 
L 293.4474 138.821788 
L 294.044358 138.821788 
L 294.044358 137.830535 
L 294.641316 137.830535 
L 294.641316 133.983896 
L 295.238274 133.983896 
L 295.238274 135.487843 
L 295.835231 135.487843 
L 295.835231 137.286373 
L 296.432189 137.286373 
L 296.432189 136.291247 
L 297.029147 136.291247 
L 297.029147 136.162994 
L 297.626105 136.162994 
L 297.626105 136.022856 
L 298.223062 136.022856 
L 298.223062 136.266066 
L 298.82002 136.266066 
L 298.82002 137.72374 
L 299.416978 137.72374 
L 299.416978 137.211589 
L 300.013936 137.211589 
L 300.013936 139.94539 
L 300.610893 139.94539 
L 300.610893 138.715653 
L 301.207851 138.715653 
L 301.207851 138.839431 
L 301.804809 138.839431 
L 301.804809 140.026584 
L 302.401767 140.026584 
L 302.401767 141.773399 
L 302.998724 141.773399 
L 302.998724 140.884709 
L 303.595682 140.884709 
L 303.595682 142.889283 
L 304.19264 142.889283 
L 304.19264 147.89207 
L 304.789598 147.89207 
L 304.789598 147.345509 
L 305.386555 147.345509 
L 305.386555 145.763994 
L 305.983513 145.763994 
L 305.983513 143.353293 
L 306.580471 143.353293 
L 306.580471 147.046543 
L 307.177429 147.046543 
L 307.177429 146.374648 
L 307.774387 146.374648 
L 307.774387 146.622412 
L 308.371344 146.622412 
L 308.371344 146.766408 
L 308.968302 146.766408 
L 308.968302 145.69623 
L 309.56526 145.69623 
L 309.56526 144.752794 
L 310.162218 144.752794 
L 310.162218 145.235703 
L 310.759175 145.235703 
L 310.759175 144.131746 
L 311.356133 144.131746 
L 311.356133 142.861007 
L 311.953091 142.861007 
L 311.953091 142.496998 
L 312.550049 142.496998 
L 312.550049 141.094027 
L 313.147006 141.094027 
L 313.147006 141.480412 
L 313.743964 141.480412 
L 313.743964 143.461794 
L 314.340922 143.461794 
L 314.340922 144.816624 
L 314.93788 144.816624 
L 314.93788 144.174568 
L 315.534837 144.174568 
L 315.534837 144.694868 
L 316.131795 144.694868 
L 316.131795 143.583214 
L 316.728753 143.583214 
L 316.728753 144.981225 
L 317.325711 144.981225 
L 317.325711 146.705084 
L 318.519626 146.738428 
L 318.519626 145.580956 
L 319.116584 145.580956 
L 319.116584 146.411885 
L 320.310499 146.471429 
L 320.310499 145.275077 
L 320.907457 145.275077 
L 320.907457 145.469726 
L 321.504415 145.469726 
L 321.504415 145.151352 
L 322.101373 145.151352 
L 322.101373 145.451953 
L 322.69833 145.451953 
L 322.69833 145.963464 
L 323.295288 145.963464 
L 323.295288 145.418986 
L 323.892246 145.418986 
L 323.892246 145.626986 
L 324.489204 145.626986 
L 324.489204 146.230785 
L 325.086162 146.230785 
L 325.086162 146.716793 
L 325.683119 146.716793 
L 325.683119 146.290677 
L 326.280077 146.290677 
L 326.280077 146.120281 
L 326.877035 146.120281 
L 326.877035 144.412538 
L 327.473993 144.412538 
L 327.473993 144.837126 
L 328.07095 144.837126 
L 328.07095 145.213955 
L 328.667908 145.213955 
L 328.667908 144.526125 
L 329.264866 144.526125 
L 329.264866 144.038489 
L 329.861824 144.038489 
L 329.861824 142.975098 
L 330.458781 142.975098 
L 330.458781 141.785377 
L 331.055739 141.785377 
L 331.055739 141.575043 
L 331.652697 141.575043 
L 331.652697 142.370339 
L 332.846612 142.281285 
L 332.846612 141.236166 
L 333.44357 141.236166 
L 333.44357 141.538112 
L 334.040528 141.538112 
L 334.040528 142.055002 
L 334.637486 142.055002 
L 334.637486 142.183994 
L 335.234443 142.183994 
L 335.234443 142.792714 
L 335.831401 142.792714 
L 335.831401 143.513193 
L 336.428359 143.513193 
L 336.428359 146.415435 
L 337.025317 146.415435 
L 337.025317 146.248382 
L 337.622274 146.248382 
L 337.622274 146.516872 
L 338.219232 146.516872 
L 338.219232 146.063511 
L 339.413148 146.021692 
L 339.413148 144.88148 
L 340.010106 144.88148 
L 340.010106 145.676543 
L 340.607063 145.676543 
L 340.607063 146.231665 
L 341.204021 146.231665 
L 341.204021 146.071362 
L 341.800979 146.071362 
L 341.800979 145.739092 
L 342.397937 145.739092 
L 342.397937 145.302769 
L 342.994894 145.302769 
L 342.994894 145.418142 
L 343.591852 145.418142 
L 343.591852 144.669629 
L 344.785768 144.757697 
L 344.785768 144.213504 
L 345.382725 144.213504 
L 345.382725 143.543172 
L 345.979683 143.543172 
L 345.979683 142.544518 
L 346.576641 142.544518 
L 346.576641 141.661013 
L 347.173599 141.661013 
L 347.173599 138.947448 
L 347.770556 138.947448 
L 347.770556 134.748087 
L 348.367514 134.748087 
L 348.367514 135.635178 
L 348.964472 135.635178 
L 348.964472 140.157439 
L 349.56143 140.157439 
L 349.56143 139.518448 
L 350.158387 139.518448 
L 350.158387 139.086835 
L 350.755345 139.086835 
L 350.755345 139.236505 
L 351.352303 139.236505 
L 351.352303 137.200367 
L 351.949261 137.200367 
L 351.949261 136.945093 
L 352.546218 136.945093 
L 352.546218 135.63881 
L 353.143176 135.63881 
L 353.143176 134.161504 
L 353.740134 134.161504 
L 353.740134 133.362767 
L 354.337092 133.362767 
L 354.337092 132.316021 
L 354.934049 132.316021 
L 354.934049 133.13425 
L 355.531007 133.13425 
L 355.531007 132.363577 
L 356.127965 132.363577 
L 356.127965 133.370182 
L 357.321881 133.391979 
L 357.321881 133.555048 
L 357.918838 133.555048 
L 357.918838 132.677708 
L 358.515796 132.677708 
L 358.515796 133.541486 
L 359.112754 133.541486 
L 359.112754 135.714721 
L 359.709712 135.714721 
L 359.709712 135.923653 
L 360.306669 135.923653 
L 360.306669 135.395856 
L 360.903627 135.395856 
L 360.903627 136.183246 
L 361.500585 136.183246 
L 361.500585 136.622048 
L 362.097543 136.622048 
L 362.097543 136.268744 
L 362.6945 136.268744 
L 362.6945 136.107671 
L 363.291458 136.107671 
L 363.291458 135.012438 
L 363.888416 135.012438 
L 363.888416 133.993934 
L 365.082331 134.028869 
L 365.082331 133.446343 
L 365.679289 133.446343 
L 365.679289 133.873802 
L 366.276247 133.873802 
L 366.276247 134.689098 
L 366.873205 134.689098 
L 366.873205 134.185143 
L 368.06712 134.233957 
L 368.06712 134.577049 
L 368.664078 134.577049 
L 368.664078 134.166326 
L 369.857993 134.138856 
L 369.857993 134.294535 
L 370.454951 134.294535 
L 370.454951 134.064345 
L 371.648867 133.995369 
L 371.648867 133.867624 
L 372.245824 133.867624 
L 372.245824 133.546161 
L 372.842782 133.546161 
L 372.842782 133.244498 
L 373.43974 133.244498 
L 373.43974 132.522028 
L 374.036698 132.522028 
L 374.036698 132.818815 
L 374.633656 132.818815 
L 374.633656 132.474095 
L 375.230613 132.474095 
L 375.230613 132.635658 
L 375.827571 132.635658 
L 375.827571 132.137373 
L 376.424529 132.137373 
L 376.424529 132.349474 
L 377.021487 132.349474 
L 377.021487 132.470549 
L 377.618444 132.470549 
L 377.618444 132.912836 
L 378.215402 132.912836 
L 378.215402 132.665621 
L 378.81236 132.665621 
L 378.81236 130.042988 
L 379.409318 130.042988 
L 379.409318 129.020819 
L 380.006275 129.020819 
L 380.006275 127.382946 
L 380.603233 127.382946 
L 380.603233 127.582433 
L 381.200191 127.582433 
L 381.200191 124.164452 
L 381.797149 124.164452 
L 381.797149 122.297171 
L 382.394106 122.297171 
L 382.394106 127.072643 
L 382.991064 127.072643 
L 382.991064 125.844735 
L 383.588022 125.844735 
L 383.588022 124.676176 
L 384.18498 124.676176 
L 384.18498 124.25875 
L 384.781937 124.25875 
L 384.781937 124.825546 
L 386.572811 124.876494 
L 386.572811 124.689709 
L 387.169768 124.689709 
L 387.169768 124.871637 
L 387.766726 124.871637 
L 387.766726 125.052777 
L 388.363684 125.052777 
L 388.363684 126.645322 
L 388.960642 126.645322 
L 388.960642 127.764979 
L 389.5576 127.764979 
L 389.5576 127.339647 
L 390.751515 127.396023 
L 390.751515 127.828191 
L 391.348473 127.828191 
L 391.348473 127.607118 
L 392.542388 127.659019 
L 392.542388 127.807801 
L 393.736304 127.79024 
L 393.736304 126.559288 
L 394.333262 126.559288 
L 394.333262 126.118724 
L 394.930219 126.118724 
L 394.930219 126.5319 
L 396.124135 126.587374 
L 396.124135 127.029668 
L 396.721093 127.029668 
L 396.721093 126.604576 
L 398.511966 126.591673 
L 398.511966 126.352335 
L 399.108924 126.352335 
L 399.108924 125.686986 
L 399.705881 125.686986 
L 399.705881 125.56689 
L 400.302839 125.56689 
L 400.302839 125.886202 
L 400.899797 125.886202 
L 400.899797 125.411612 
L 401.496755 125.411612 
L 401.496755 124.143362 
L 402.093712 124.143362 
L 402.093712 122.986094 
L 402.69067 122.986094 
L 402.69067 123.63545 
L 403.287628 123.63545 
L 403.287628 123.12754 
L 403.884586 123.12754 
L 403.884586 123.724136 
L 404.481543 123.724136 
L 404.481543 122.705065 
L 406.272417 122.698798 
L 406.272417 122.891796 
L 406.869375 122.891796 
L 406.869375 122.00528 
L 408.06329 121.91311 
L 408.06329 121.86836 
L 408.660248 121.86836 
L 408.660248 121.668336 
L 409.257206 121.668336 
L 409.257206 121.280007 
L 409.854163 121.280007 
L 409.854163 118.379932 
L 410.451121 118.379932 
L 410.451121 118.022566 
L 411.048079 118.022566 
L 411.048079 117.29137 
L 411.645037 117.29137 
L 411.645037 114.492144 
L 412.241994 114.492144 
L 412.241994 118.455659 
L 412.838952 118.455659 
L 412.838952 120.915492 
L 413.43591 120.915492 
L 413.43591 120.300767 
L 414.032868 120.300767 
L 414.032868 118.785881 
L 414.629825 118.785881 
L 414.629825 119.057887 
L 415.226783 119.057887 
L 415.226783 118.277146 
L 415.823741 118.277146 
L 415.823741 116.908342 
L 416.420699 116.908342 
L 416.420699 116.351332 
L 417.017656 116.351332 
L 417.017656 116.869175 
L 417.614614 116.869175 
L 417.614614 116.548524 
L 418.211572 116.548524 
L 418.211572 115.506016 
L 418.80853 115.506016 
L 418.80853 114.207393 
L 419.405487 114.207393 
L 419.405487 113.759572 
L 420.002445 113.759572 
L 420.002445 112.497658 
L 420.599403 112.497658 
L 420.599403 111.756445 
L 421.196361 111.756445 
L 421.196361 113.044194 
L 421.793319 113.044194 
L 421.793319 112.241275 
L 422.390276 112.241275 
L 422.390276 115.245876 
L 422.987234 115.245876 
L 422.987234 114.422742 
L 423.584192 114.422742 
L 423.584192 117.354532 
L 424.18115 117.354532 
L 424.18115 115.789453 
L 424.778107 115.789453 
L 424.778107 115.02733 
L 425.375065 115.02733 
L 425.375065 113.016587 
L 425.972023 113.016587 
L 425.972023 112.744905 
L 426.568981 112.744905 
L 426.568981 113.41362 
L 427.165938 113.41362 
L 427.165938 112.891317 
L 427.762896 112.891317 
L 427.762896 112.362706 
L 428.359854 112.362706 
L 428.359854 111.489955 
L 428.956812 111.489955 
L 428.956812 110.474901 
L 429.553769 110.474901 
L 429.553769 107.93809 
L 430.150727 107.93809 
L 430.150727 106.503102 
L 430.747685 106.503102 
L 430.747685 106.001285 
L 431.344643 106.001285 
L 431.344643 105.81109 
L 431.9416 105.81109 
L 431.9416 102.564881 
L 432.538558 102.564881 
L 432.538558 98.813216 
L 433.135516 98.813216 
L 433.135516 100.947049 
L 433.732474 100.947049 
L 433.732474 98.909311 
L 434.329431 98.909311 
L 434.329431 96.633558 
L 434.926389 96.633558 
L 434.926389 95.717214 
L 435.523347 95.717214 
L 435.523347 96.582436 
L 436.120305 96.582436 
L 436.120305 97.156333 
L 436.717262 97.156333 
L 436.717262 96.936627 
L 437.31422 96.936627 
L 437.31422 98.156175 
L 437.911178 98.156175 
L 437.911178 97.840363 
L 439.105094 97.775367 
L 439.105094 98.149515 
L 439.702051 98.149515 
L 439.702051 99.751667 
L 440.299009 99.751667 
L 440.299009 102.933613 
L 440.895967 102.933613 
L 440.895967 100.152939 
L 441.492925 100.152939 
L 441.492925 96.27052 
L 442.089882 96.27052 
L 442.089882 96.952948 
L 442.68684 96.952948 
L 442.68684 95.450594 
L 443.880756 95.495395 
L 443.880756 91.946228 
L 444.477713 91.946228 
L 444.477713 89.405439 
L 445.074671 89.405439 
L 445.074671 86.931098 
L 445.671629 86.931098 
L 445.671629 88.462028 
L 446.268587 88.462028 
L 446.268587 87.134181 
L 446.865544 87.134181 
L 446.865544 86.927152 
L 447.462502 86.927152 
L 447.462502 84.624568 
L 448.05946 84.624568 
L 448.05946 86.888831 
L 448.656418 86.888831 
L 448.656418 87.138354 
L 449.253375 87.138354 
L 449.253375 89.422577 
L 449.850333 89.422577 
L 449.850333 90.4167 
L 450.447291 90.4167 
L 450.447291 90.844906 
L 451.044249 90.844906 
L 451.044249 89.078697 
L 451.641206 89.078697 
L 451.641206 87.926085 
L 452.238164 87.926085 
L 452.238164 87.243139 
L 452.835122 87.243139 
L 452.835122 86.641059 
L 453.43208 86.641059 
L 453.43208 84.980527 
L 454.029038 84.980527 
L 454.029038 81.651417 
L 455.222953 81.632127 
L 455.222953 80.927591 
L 455.819911 80.927591 
L 455.819911 81.377394 
L 456.416869 81.377394 
L 456.416869 79.245729 
L 457.013826 79.245729 
L 457.013826 76.473177 
L 457.610784 76.473177 
L 457.610784 76.195803 
L 458.207742 76.195803 
L 458.207742 80.963391 
L 458.8047 80.963391 
L 458.8047 75.147256 
L 459.401657 75.147256 
L 459.401657 74.214699 
L 460.595573 74.287991 
L 460.595573 70.497469 
L 461.192531 70.497469 
L 461.192531 68.579909 
L 461.789488 68.579909 
L 461.789488 63.802533 
L 462.386446 63.802533 
L 462.386446 62.099867 
L 462.983404 62.099867 
L 462.983404 60.390124 
L 463.580362 60.390124 
L 463.580362 57.538459 
L 464.177319 57.538459 
L 464.177319 63.900421 
L 464.774277 63.900421 
L 464.774277 61.304223 
L 465.371235 61.304223 
L 465.371235 65.673195 
L 465.968193 65.673195 
L 465.968193 62.139498 
L 466.56515 62.139498 
L 466.56515 60.655289 
L 467.162108 60.655289 
L 467.162108 64.62927 
L 467.759066 64.62927 
L 467.759066 64.227345 
L 468.356024 64.227345 
L 468.356024 67.51621 
L 468.952981 67.51621 
L 468.952981 68.73022 
L 469.549939 68.73022 
L 469.549939 67.647774 
L 470.146897 67.647774 
L 470.146897 69.928617 
L 470.743855 69.928617 
L 470.743855 74.31422 
L 471.93777 74.209169 
L 471.93777 72.683937 
L 472.534728 72.683937 
L 472.534728 69.978745 
L 473.131686 69.978745 
L 473.131686 67.976113 
L 473.728644 67.976113 
L 473.728644 70.946301 
L 474.325601 70.946301 
L 474.325601 69.678013 
L 474.922559 69.678013 
L 474.922559 67.498208 
L 475.519517 67.498208 
L 475.519517 71.738617 
L 476.116475 71.738617 
L 476.116475 72.16192 
L 476.713432 72.16192 
L 476.713432 74.080959 
L 477.31039 74.080959 
L 477.31039 72.65184 
L 477.907348 72.65184 
L 477.907348 73.51811 
L 478.504306 73.51811 
L 478.504306 74.939479 
L 479.101263 74.939479 
L 479.101263 77.997515 
L 479.698221 77.997515 
L 479.698221 78.118112 
L 480.892137 78.124771 
L 480.892137 75.079792 
L 482.086052 75.049447 
L 482.086052 72.605353 
L 482.68301 72.605353 
L 482.68301 72.741764 
L 483.279968 72.741764 
L 483.279968 71.580094 
L 483.876925 71.580094 
L 483.876925 70.835661 
L 484.473883 70.835661 
L 484.473883 71.642667 
L 485.070841 71.642667 
L 485.070841 73.842938 
L 485.667799 73.842938 
L 485.667799 73.666196 
L 486.264757 73.666196 
L 486.264757 74.216501 
L 486.861714 74.216501 
L 486.861714 76.07926 
L 487.458672 76.07926 
L 487.458672 76.531685 
L 488.05563 76.531685 
L 488.05563 76.138828 
L 489.249545 76.123256 
L 489.249545 75.804126 
L 489.846503 75.804126 
L 489.846503 78.821673 
L 490.443461 78.821673 
L 490.443461 79.01975 
L 491.040419 79.01975 
L 491.040419 78.194686 
L 491.637376 78.194686 
L 491.637376 80.073264 
L 492.234334 80.073264 
L 492.234334 81.004139 
L 492.831292 81.004139 
L 492.831292 78.597874 
L 494.025207 78.59136 
L 494.025207 79.519251 
L 494.622165 79.519251 
L 494.622165 79.77607 
L 495.219123 79.77607 
L 495.219123 76.459224 
L 496.413038 76.362608 
L 496.413038 74.966775 
L 497.009996 74.966775 
L 497.009996 74.389204 
L 497.606954 74.389204 
L 497.606954 76.340632 
L 498.203912 76.340632 
L 498.203912 78.321618 
L 498.800869 78.321618 
L 498.800869 79.843636 
L 499.397827 79.843636 
L 499.397827 79.70604 
L 499.994785 79.70604 
L 499.994785 79.02625 
L 500.591743 79.02625 
L 500.591743 78.904706 
L 501.1887 78.904706 
L 501.1887 77.781852 
L 501.785658 77.781852 
L 501.785658 77.442774 
L 502.382616 77.442774 
L 502.382616 76.491724 
L 502.979574 76.491724 
L 502.979574 79.985332 
L 503.576532 79.985332 
L 503.576532 79.529502 
L 504.173489 79.529502 
L 504.173489 78.992874 
L 505.367405 78.997047 
L 505.367405 78.728578 
L 505.964363 78.728578 
L 505.964363 78.591147 
L 506.56132 78.591147 
L 506.56132 78.91902 
L 507.158278 78.91902 
L 507.158278 78.758584 
L 508.352194 78.735838 
L 508.352194 79.723693 
L 508.949151 79.723693 
L 508.949151 78.95508 
L 510.143067 79.003632 
L 510.143067 79.07091 
L 510.740025 79.07091 
L 510.740025 79.607202 
L 511.336982 79.607202 
L 511.336982 79.417885 
L 511.93394 79.417885 
L 511.93394 78.871286 
L 512.530898 78.871286 
L 512.530898 79.269342 
L 513.127856 79.269342 
L 513.127856 81.768043 
L 513.724813 81.768043 
L 513.724813 84.870019 
L 514.321771 84.870019 
L 514.321771 87.036096 
L 514.918729 87.036096 
L 514.918729 89.614523 
L 515.515687 89.614523 
L 515.515687 87.811546 
L 516.112644 87.811546 
L 516.112644 90.057186 
L 516.709602 90.057186 
L 516.709602 90.914624 
L 517.30656 90.914624 
L 517.30656 92.548032 
L 517.903518 92.548032 
L 517.903518 91.093936 
L 518.500475 91.093936 
L 518.500475 89.243566 
L 519.097433 89.243566 
L 519.097433 89.650906 
L 519.694391 89.650906 
L 519.694391 89.921554 
L 520.291349 89.921554 
L 520.291349 89.082119 
L 520.888307 89.082119 
L 520.888307 88.37717 
L 521.485264 88.37717 
L 521.485264 90.593694 
L 522.082222 90.593694 
L 522.082222 90.395148 
L 522.67918 90.395148 
L 522.67918 90.707024 
L 523.276138 90.707024 
L 523.276138 90.920724 
L 524.470053 90.982675 
L 524.470053 91.588605 
L 525.663969 91.669672 
L 525.663969 92.028814 
L 526.260926 92.028814 
L 526.260926 90.68632 
L 526.857884 90.68632 
L 526.857884 90.804349 
L 527.454842 90.804349 
L 527.454842 89.106551 
L 528.0518 89.106551 
L 528.0518 88.045403 
L 528.648757 88.045403 
L 528.648757 89.589467 
L 529.842673 89.687407 
L 529.842673 89.31067 
L 531.036588 89.340295 
L 531.036588 89.055626 
L 531.633546 89.055626 
L 531.633546 88.58867 
L 533.424419 88.492213 
L 533.424419 88.169193 
L 534.021377 88.169193 
L 534.021377 84.612994 
L 534.618335 84.612994 
L 534.618335 83.202113 
L 535.215293 83.202113 
L 535.215293 83.962841 
L 535.812251 83.962841 
L 535.812251 83.478658 
L 536.409208 83.478658 
L 536.409208 83.048078 
L 537.006166 83.048078 
L 537.006166 82.581107 
L 537.603124 82.581107 
L 537.603124 83.078321 
L 538.200082 83.078321 
L 538.200082 82.744475 
L 538.797039 82.744475 
L 538.797039 81.676906 
L 539.393997 81.676906 
L 539.393997 79.459851 
L 539.990955 79.459851 
L 539.990955 74.833476 
L 540.587913 74.833476 
L 540.587913 76.750262 
L 541.18487 76.750262 
L 541.18487 75.776748 
L 541.781828 75.776748 
L 541.781828 73.028418 
L 542.378786 73.028418 
L 542.378786 74.142595 
L 542.975744 74.142595 
L 542.975744 74.479275 
L 543.572701 74.479275 
L 543.572701 74.819412 
L 544.169659 74.819412 
L 544.169659 75.023078 
L 544.766617 75.023078 
L 544.766617 72.765934 
L 545.363575 72.765934 
L 545.363575 71.831003 
L 545.960532 71.831003 
L 545.960532 68.761781 
L 546.55749 68.761781 
L 546.55749 68.179143 
L 547.154448 68.179143 
L 547.154448 69.2044 
L 547.751406 69.2044 
L 547.751406 68.502241 
L 548.348363 68.502241 
L 548.348363 65.714251 
L 548.945321 65.714251 
L 548.945321 67.722166 
L 549.542279 67.722166 
L 549.542279 70.999121 
L 550.139237 70.999121 
L 550.139237 69.18791 
L 550.736194 69.18791 
L 550.736194 70.5864 
L 551.333152 70.5864 
L 551.333152 71.361364 
L 551.93011 71.361364 
L 551.93011 69.297954 
L 552.527068 69.297954 
L 552.527068 67.587611 
L 553.124026 67.587611 
L 553.124026 67.911506 
L 553.720983 67.911506 
L 553.720983 70.300121 
L 554.317941 70.300121 
L 554.317941 69.706292 
L 554.914899 69.706292 
L 554.914899 70.110531 
L 555.511857 70.110531 
L 555.511857 69.623395 
L 556.108814 69.623395 
L 556.108814 71.199993 
L 556.705772 71.199993 
L 556.705772 69.123753 
L 557.30273 69.123753 
L 557.30273 69.378864 
L 557.899688 69.378864 
L 557.899688 70.016739 
L 558.496645 70.016739 
L 558.496645 69.720252 
L 559.690561 69.787656 
L 559.690561 70.980241 
L 560.287519 70.980241 
L 560.287519 74.334208 
L 560.884476 74.334208 
L 560.884476 74.020477 
L 561.481434 74.020477 
L 561.481434 74.447777 
L 562.078392 74.447777 
L 562.078392 73.391067 
L 562.67535 73.391067 
L 562.67535 74.115183 
L 563.272307 74.115183 
L 563.272307 74.623309 
L 563.869265 74.623309 
L 563.869265 74.26419 
L 564.466223 74.26419 
L 564.466223 73.207487 
L 565.063181 73.207487 
L 565.063181 71.505557 
L 565.660138 71.505557 
L 565.660138 71.788901 
L 566.854054 71.698084 
L 566.854054 72.367252 
L 567.451012 72.367252 
L 567.451012 73.287514 
L 568.04797 73.287514 
L 568.04797 74.378149 
L 568.644927 74.378149 
L 568.644927 76.691474 
L 569.241885 76.691474 
L 569.241885 77.032569 
L 569.838843 77.032569 
L 569.838843 75.957171 
L 570.435801 75.957171 
L 570.435801 76.950826 
L 571.032758 76.950826 
L 571.032758 76.051264 
L 571.629716 76.051264 
L 571.629716 76.961131 
L 572.226674 76.961131 
L 572.226674 77.845152 
L 572.823632 77.845152 
L 572.823632 76.95831 
L 573.420589 76.95831 
L 573.420589 76.789993 
L 574.017547 76.789993 
L 574.017547 76.650946 
L 574.614505 76.650946 
L 574.614505 76.998819 
L 575.211463 76.998819 
L 575.211463 76.512528 
L 575.80842 76.512528 
L 575.80842 75.277446 
L 576.405378 75.277446 
L 576.405378 74.552674 
L 577.002336 74.552674 
L 577.002336 72.67351 
L 577.599294 72.67351 
L 577.599294 73.079372 
L 578.196251 73.079372 
L 578.196251 74.009767 
L 578.793209 74.009767 
L 578.793209 71.835092 
L 579.987125 71.760035 
L 579.987125 70.830905 
L 580.584082 70.830905 
L 580.584082 70.627885 
L 581.18104 70.627885 
L 581.18104 69.607411 
L 581.777998 69.607411 
L 581.777998 69.974622 
L 582.374956 69.974622 
L 582.374956 71.008775 
L 582.971913 71.008775 
L 582.971913 72.934255 
L 583.568871 72.934255 
L 583.568871 73.517145 
L 584.165829 73.517145 
L 584.165829 72.300102 
L 584.762787 72.300102 
L 584.762787 74.98669 
L 585.359745 74.98669 
L 585.359745 81.945192 
L 585.956702 81.945192 
L 585.956702 82.866108 
L 586.55366 82.866108 
L 586.55366 79.966539 
L 587.150618 79.966539 
L 587.150618 78.380798 
L 587.747576 78.380798 
L 587.747576 80.979319 
L 588.344533 80.979319 
L 588.344533 78.051794 
L 588.941491 78.051794 
L 588.941491 76.535404 
L 589.538449 76.535404 
L 589.538449 77.86355 
L 590.732364 77.867319 
L 590.732364 76.765996 
L 591.329322 76.765996 
L 591.329322 77.124275 
L 591.92628 77.124275 
L 591.92628 75.584547 
L 592.523238 75.584547 
L 592.523238 73.295774 
L 593.120195 73.295774 
L 593.120195 72.706049 
L 593.717153 72.706049 
L 593.717153 70.695222 
L 594.314111 70.695222 
L 594.314111 72.868056 
L 594.911069 72.868056 
L 594.911069 71.607248 
L 595.508026 71.607248 
L 595.508026 71.341634 
L 596.104984 71.341634 
L 596.104984 73.059881 
L 596.701942 73.059881 
L 596.701942 71.21841 
L 597.2989 71.21841 
L 597.2989 69.928165 
L 597.895857 69.928165 
L 597.895857 71.104282 
L 598.492815 71.104282 
L 598.492815 70.790827 
L 599.089773 70.790827 
L 599.089773 71.42027 
L 600.283689 71.459926 
L 600.283689 71.82434 
L 601.477604 71.919577 
L 601.477604 72.040547 
L 602.074562 72.040547 
L 602.074562 72.288966 
L 602.67152 72.288966 
L 602.67152 71.886183 
L 603.865435 71.930206 
L 603.865435 72.022715 
L 605.059351 71.976571 
L 605.059351 71.126496 
L 605.656308 71.126496 
L 605.656308 68.342961 
L 606.253266 68.342961 
L 606.253266 67.802056 
L 606.850224 67.802056 
L 606.850224 68.068696 
L 607.447182 68.068696 
L 607.447182 67.06565 
L 608.044139 67.06565 
L 608.044139 67.400316 
L 608.641097 67.400316 
L 608.641097 66.817347 
L 609.835013 66.898736 
L 609.835013 67.071914 
L 610.43197 67.071914 
L 610.43197 67.466987 
L 611.028928 67.466987 
L 611.028928 66.801779 
L 611.625886 66.801779 
L 611.625886 70.016146 
L 612.222844 70.016146 
L 612.222844 69.881775 
L 612.819801 69.881775 
L 612.819801 69.680675 
L 613.416759 69.680675 
L 613.416759 68.52291 
L 614.013717 68.52291 
L 614.013717 69.487826 
L 614.610675 69.487826 
L 614.610675 68.988931 
L 615.207632 68.988931 
L 615.207632 68.712967 
L 615.80459 68.712967 
L 615.80459 69.255623 
L 616.401548 69.255623 
L 616.401548 69.030365 
L 616.998506 69.030365 
L 616.998506 67.744201 
L 617.595464 67.744201 
L 617.595464 67.521063 
L 618.192421 67.521063 
L 618.192421 67.081766 
L 618.789379 67.081766 
L 618.789379 65.151468 
L 619.386337 65.151468 
L 619.386337 64.083662 
L 619.983295 64.083662 
L 619.983295 63.851345 
L 620.580252 63.851345 
L 620.580252 63.355473 
L 621.17721 63.355473 
L 621.17721 61.545687 
L 621.774168 61.545687 
L 621.774168 60.52838 
L 622.371126 60.52838 
L 622.371126 60.005864 
L 622.968083 60.005864 
L 622.968083 57.778094 
L 623.565041 57.778094 
L 623.565041 57.263499 
L 624.161999 57.263499 
L 624.161999 58.8315 
L 624.758957 58.8315 
L 624.758957 57.20655 
L 625.355914 57.20655 
L 625.355914 57.049779 
L 625.952872 57.049779 
L 625.952872 58.256222 
L 626.54983 58.256222 
L 626.54983 57.154792 
L 627.146788 57.154792 
L 627.146788 53.477189 
L 627.743745 53.477189 
L 627.743745 52.900738 
L 628.340703 52.900738 
L 628.340703 50.806994 
L 628.937661 50.806994 
L 628.937661 49.05313 
L 629.534619 49.05313 
L 629.534619 46.35839 
L 630.131576 46.35839 
L 630.131576 42.755518 
L 630.728534 42.755518 
L 630.728534 44.867034 
L 631.325492 44.867034 
L 631.325492 44.154662 
L 631.92245 44.154662 
L 631.92245 44.600354 
L 632.519408 44.600354 
L 632.519408 46.914301 
L 633.116365 46.914301 
L 633.116365 47.994161 
L 633.713323 47.994161 
L 633.713323 46.275998 
L 634.310281 46.275998 
L 634.310281 44.060244 
L 634.907239 44.060244 
L 634.907239 39.530843 
L 635.504196 39.530843 
L 635.504196 39.056975 
L 636.101154 39.056975 
L 636.101154 38.355043 
L 636.698112 38.355043 
L 636.698112 35.738659 
L 637.29507 35.738659 
L 637.29507 37.76546 
L 637.892027 37.76546 
L 637.892027 40.079838 
L 638.488985 40.079838 
L 638.488985 38.647674 
L 639.085943 38.647674 
L 639.085943 37.111997 
L 639.682901 37.111997 
L 639.682901 35.294629 
L 640.279858 35.294629 
L 640.279858 35.428673 
L 640.876816 35.428673 
L 640.876816 35.004733 
L 641.473774 35.004733 
L 641.473774 37.031947 
L 642.070732 37.031947 
L 642.070732 35.816799 
L 642.667689 35.816799 
L 642.667689 34.780883 
L 643.861605 34.672737 
L 643.861605 34.998932 
L 644.458563 34.998932 
L 644.458563 33.197922 
L 645.05552 33.197922 
L 645.05552 34.32451 
L 645.652478 34.32451 
L 645.652478 36.54062 
L 646.249436 36.54062 
L 646.249436 38.389597 
L 646.846394 38.389597 
L 646.846394 36.624634 
L 647.443351 36.624634 
L 647.443351 35.308646 
L 648.637267 35.250138 
L 648.637267 35.471931 
L 649.234225 35.471931 
L 649.234225 39.370246 
L 649.831183 39.370246 
L 649.831183 44.08078 
L 650.42814 44.08078 
L 650.42814 45.31861 
L 651.025098 45.31861 
L 651.025098 43.291905 
L 651.622056 43.291905 
L 651.622056 43.893541 
L 652.219014 43.893541 
L 652.219014 44.123612 
L 652.815971 44.123612 
L 652.815971 46.086768 
L 653.412929 46.086768 
L 653.412929 44.895324 
L 654.009887 44.895324 
L 654.009887 43.354902 
L 654.606845 43.354902 
L 654.606845 44.840268 
L 655.203802 44.840268 
L 655.203802 45.38526 
L 656.397718 45.491461 
L 656.397718 45.844104 
L 656.994676 45.844104 
L 656.994676 45.635142 
L 657.591633 45.635142 
L 657.591633 46.047557 
L 658.188591 46.047557 
L 658.188591 46.471996 
L 658.785549 46.471996 
L 658.785549 47.113123 
L 659.382507 47.113123 
L 659.382507 46.790722 
L 659.979464 46.790722 
L 659.979464 43.889451 
L 660.576422 43.889451 
L 660.576422 41.413934 
L 661.17338 41.413934 
L 661.17338 43.453056 
L 661.770338 43.453056 
L 661.770338 40.294546 
L 662.367295 40.294546 
L 662.367295 39.859586 
L 662.964253 39.859586 
L 662.964253 39.233294 
L 663.561211 39.233294 
L 663.561211 39.371075 
L 664.158169 39.371075 
L 664.158169 38.207145 
L 664.755126 38.207145 
L 664.755126 38.397259 
L 665.352084 38.397259 
L 665.352084 39.190895 
L 665.949042 39.190895 
L 665.949042 38.035999 
L 666.546 38.035999 
L 666.546 39.655062 
L 667.739915 39.663458 
L 667.739915 38.924645 
L 668.336873 38.924645 
L 668.336873 41.08957 
L 669.530789 41.129865 
L 669.530789 41.994504 
L 670.127746 41.994504 
L 670.127746 38.949101 
L 670.724704 38.949101 
L 670.724704 35.975801 
L 671.321662 35.975801 
L 671.321662 36.238034 
L 671.91862 36.238034 
L 671.91862 35.244025 
L 672.515577 35.244025 
L 672.515577 33.704384 
L 673.112535 33.704384 
L 673.112535 34.121685 
L 673.709493 34.121685 
L 673.709493 34.238444 
L 674.306451 34.238444 
L 674.306451 33.782401 
L 674.903408 33.782401 
L 674.903408 33.388269 
L 676.097324 33.280629 
L 676.097324 32.79615 
L 676.694282 32.79615 
L 676.694282 33.188505 
L 677.291239 33.188505 
L 677.291239 34.988415 
L 677.888197 34.988415 
L 677.888197 35.180982 
L 678.485155 35.180982 
L 678.485155 36.173655 
L 679.082113 36.173655 
L 679.082113 35.30288 
L 679.67907 35.30288 
L 679.67907 38.265242 
L 680.276028 38.265242 
L 680.276028 38.977488 
L 680.872986 38.977488 
L 680.872986 39.361436 
L 681.469944 39.361436 
L 681.469944 39.613647 
L 682.066902 39.613647 
L 682.066902 38.44738 
L 682.663859 38.44738 
L 682.663859 37.82662 
L 683.260817 37.82662 
L 683.260817 39.511548 
L 683.857775 39.511548 
L 683.857775 39.117783 
L 684.454733 39.117783 
L 684.454733 40.98729 
L 685.05169 40.98729 
L 685.05169 41.58839 
L 685.648648 41.58839 
L 685.648648 40.997193 
L 686.245606 40.997193 
L 686.245606 41.334493 
L 686.842564 41.334493 
L 686.842564 45.136342 
L 687.439521 45.136342 
L 687.439521 44.1574 
L 688.036479 44.1574 
L 688.036479 43.568902 
L 688.633437 43.568902 
L 688.633437 44.011292 
L 689.230395 44.011292 
L 689.230395 40.657785 
L 689.827352 40.657785 
L 689.827352 41.325119 
L 690.42431 41.325119 
L 690.42431 40.338654 
L 691.021268 40.338654 
L 691.021268 42.438149 
L 691.618226 42.438149 
L 691.618226 43.903802 
L 692.215183 43.903802 
L 692.215183 43.682586 
L 692.812141 43.682586 
L 692.812141 41.295243 
L 693.409099 41.295243 
L 693.409099 43.508683 
L 694.006057 43.508683 
L 694.006057 43.138017 
L 694.603014 43.138017 
L 694.603014 42.839719 
L 695.199972 42.839719 
L 695.199972 41.410048 
L 695.79693 41.410048 
L 695.79693 41.087932 
L 696.393888 41.087932 
L 696.393888 39.317917 
L 696.990845 39.317917 
L 696.990845 39.891416 
L 697.587803 39.891416 
L 697.587803 39.424164 
L 698.184761 39.424164 
L 698.184761 41.383137 
L 698.781719 41.383137 
L 698.781719 42.444582 
L 699.378677 42.444582 
L 699.378677 42.301588 
L 699.975634 42.301588 
L 699.975634 41.816752 
L 700.572592 41.816752 
L 700.572592 42.765931 
L 701.16955 42.765931 
L 701.16955 42.611604 
L 701.766508 42.611604 
L 701.766508 43.257794 
L 702.363465 43.257794 
L 702.363465 44.604313 
L 702.960423 44.604313 
L 702.960423 47.611797 
L 703.557381 47.611797 
L 703.557381 48.222919 
L 704.154339 48.222919 
L 704.154339 49.175716 
L 704.751296 49.175716 
L 704.751296 48.086947 
L 705.348254 48.086947 
L 705.348254 48.819746 
L 705.945212 48.819746 
L 705.945212 47.156075 
L 706.54217 47.156075 
L 706.54217 48.486957 
L 707.139127 48.486957 
L 707.139127 47.53816 
L 707.736085 47.53816 
L 707.736085 49.41269 
L 708.333043 49.41269 
L 708.333043 54.004494 
L 708.930001 54.004494 
L 708.930001 55.879616 
L 709.526958 55.879616 
L 709.526958 55.350967 
L 710.123916 55.350967 
L 710.123916 55.722005 
L 710.720874 55.722005 
L 710.720874 57.206832 
L 711.317832 57.206832 
L 711.317832 56.233165 
L 711.914789 56.233165 
L 711.914789 54.885707 
L 712.511747 54.885707 
L 712.511747 56.191636 
L 713.108705 56.191636 
L 713.108705 55.652286 
L 713.705663 55.652286 
L 713.705663 53.474326 
L 714.302621 53.474326 
L 714.302621 55.149704 
L 714.899578 55.149704 
L 714.899578 52.928563 
L 715.496536 52.928563 
L 715.496536 53.624335 
L 716.690452 53.654573 
L 716.690452 52.787332 
L 717.287409 52.787332 
L 717.287409 52.492009 
L 717.884367 52.492009 
L 717.884367 53.439752 
L 718.481325 53.439752 
L 718.481325 55.053577 
L 719.078283 55.053577 
L 719.078283 56.182077 
L 719.67524 56.182077 
L 719.67524 56.623889 
L 720.869156 56.581404 
L 720.869156 57.151157 
L 721.466114 57.151157 
L 721.466114 54.689492 
L 722.063071 54.689492 
L 722.063071 56.723899 
L 722.660029 56.723899 
L 722.660029 56.879986 
L 723.256987 56.879986 
L 723.256987 57.150636 
L 723.853945 57.150636 
L 723.853945 57.33446 
L 724.450902 57.33446 
L 724.450902 57.115141 
L 725.04786 57.115141 
L 725.04786 56.247219 
L 725.644818 56.247219 
L 725.644818 56.983338 
L 727.435691 56.87303 
L 727.435691 57.264735 
L 728.032649 57.264735 
L 728.032649 56.313563 
L 728.629607 56.313563 
L 728.629607 55.611796 
L 729.226564 55.611796 
L 729.226564 56.260965 
L 729.823522 56.260965 
L 729.823522 55.511555 
L 730.42048 55.511555 
L 730.42048 59.038889 
L 731.017438 59.038889 
L 731.017438 60.171261 
L 731.614396 60.171261 
L 731.614396 60.056271 
L 732.211353 60.056271 
L 732.211353 60.653007 
L 732.808311 60.653007 
L 732.808311 60.334736 
L 733.405269 60.334736 
L 733.405269 59.478008 
L 735.7931 59.435658 
L 735.7931 60.111258 
L 736.390058 60.111258 
L 736.390058 59.791507 
L 737.583973 59.870706 
L 737.583973 60.230279 
L 738.777889 60.140113 
L 738.777889 59.884653 
L 739.374846 59.884653 
L 739.374846 59.452938 
L 739.971804 59.452938 
L 739.971804 56.482009 
L 740.568762 56.482009 
L 740.568762 55.296877 
L 741.16572 55.296877 
L 741.16572 53.80803 
L 741.762677 53.80803 
L 741.762677 53.530214 
L 742.359635 53.530214 
L 742.359635 52.959098 
L 742.956593 52.959098 
L 742.956593 53.215539 
L 743.553551 53.215539 
L 743.553551 53.815756 
L 744.150508 53.815756 
L 744.150508 54.833717 
L 744.747466 54.833717 
L 744.747466 54.308651 
L 745.344424 54.308651 
L 745.344424 52.223706 
L 745.941382 52.223706 
L 745.941382 52.599014 
L 746.53834 52.599014 
L 746.53834 53.122688 
L 747.732255 53.204455 
L 747.732255 54.129703 
L 748.329213 54.129703 
L 748.329213 56.190485 
L 748.926171 56.190485 
L 748.926171 52.121678 
L 749.523128 52.121678 
L 749.523128 50.406866 
L 750.120086 50.406866 
L 750.120086 50.162013 
L 750.717044 50.162013 
L 750.717044 49.658367 
L 751.910959 49.634556 
L 751.910959 49.800592 
L 753.104875 49.711717 
L 753.104875 48.116123 
L 754.29879 48.060185 
L 754.29879 49.071942 
L 754.895748 49.071942 
L 754.895748 49.95407 
L 755.492706 49.95407 
L 755.492706 48.623685 
L 756.089664 48.623685 
L 756.089664 49.596204 
L 756.686621 49.596204 
L 756.686621 48.586235 
L 757.283579 48.586235 
L 757.283579 49.918046 
L 757.880537 49.918046 
L 757.880537 50.548395 
L 758.477495 50.548395 
L 758.477495 50.094507 
L 759.074452 50.094507 
L 759.074452 50.570425 
L 759.67141 50.570425 
L 759.67141 50.78113 
L 760.268368 50.78113 
L 760.268368 49.842217 
L 760.865326 49.842217 
L 760.865326 50.202052 
L 762.059241 50.208161 
L 762.059241 51.260419 
L 762.656199 51.260419 
L 762.656199 51.832232 
L 763.253157 51.832232 
L 763.253157 50.887751 
L 763.850115 50.887751 
L 763.850115 48.337343 
L 764.447072 48.337343 
L 764.447072 48.095066 
L 765.04403 48.095066 
L 765.04403 47.959645 
L 765.640988 47.959645 
L 765.640988 47.760709 
L 766.237946 47.760709 
L 766.237946 48.129696 
L 766.834903 48.129696 
L 766.834903 48.012343 
L 768.028819 48.112603 
L 768.028819 48.405578 
L 768.625777 48.405578 
L 768.625777 48.830411 
L 769.819692 48.735866 
L 769.819692 48.485705 
L 770.41665 48.485705 
L 770.41665 48.920362 
L 771.013608 48.920362 
L 771.013608 48.565549 
L 771.610565 48.565549 
L 771.610565 48.757989 
L 772.207523 48.757989 
L 772.207523 50.641489 
L 772.804481 50.641489 
L 772.804481 51.051332 
L 773.998396 51.108289 
L 773.998396 49.85194 
L 774.595354 49.85194 
L 774.595354 51.247786 
L 776.386227 51.27596 
L 776.386227 50.736637 
L 776.983185 50.736637 
L 776.983185 50.56503 
L 777.580143 50.56503 
L 777.580143 50.701977 
L 778.177101 50.701977 
L 778.177101 50.982719 
L 778.774059 50.982719 
L 778.774059 50.410559 
L 779.371016 50.410559 
L 779.371016 49.803966 
L 780.564932 49.703356 
L 780.564932 50.568857 
L 781.16189 50.568857 
L 781.16189 49.290625 
L 781.758847 49.290625 
L 781.758847 48.486389 
L 782.355805 48.486389 
L 782.355805 45.816964 
L 783.549721 45.705898 
L 783.549721 44.926119 
L 784.146678 44.926119 
L 784.146678 45.149561 
L 784.743636 45.149561 
L 784.743636 44.226914 
L 786.534509 44.266325 
L 786.534509 44.718433 
L 787.131467 44.718433 
L 787.131467 43.63132 
L 788.325383 43.596061 
L 788.325383 42.507856 
L 788.92234 42.507856 
L 788.92234 40.904534 
L 789.519298 40.904534 
L 789.519298 41.883587 
L 790.116256 41.883587 
L 790.116256 41.547305 
L 790.713214 41.547305 
L 790.713214 41.39089 
L 791.310171 41.39089 
L 791.310171 40.699834 
L 791.907129 40.699834 
L 791.907129 40.824894 
L 792.504087 40.824894 
L 792.504087 41.397035 
L 793.101045 41.397035 
L 793.101045 40.495318 
L 793.698002 40.495318 
L 793.698002 39.269169 
L 794.29496 39.269169 
L 794.29496 41.11654 
L 794.891918 41.11654 
L 794.891918 40.981809 
L 795.488876 40.981809 
L 795.488876 41.679576 
L 796.085834 41.679576 
L 796.085834 42.46147 
L 796.682791 42.46147 
L 796.682791 41.501338 
L 797.279749 41.501338 
L 797.279749 41.015004 
L 797.876707 41.015004 
L 797.876707 41.206116 
L 798.473665 41.206116 
L 798.473665 39.19998 
L 799.070622 39.19998 
L 799.070622 38.119856 
L 799.66758 38.119856 
L 799.66758 37.349139 
L 801.458453 37.332668 
L 801.458453 33.965006 
L 802.055411 33.965006 
L 802.055411 31.729 
L 803.249327 31.749795 
L 803.249327 30.835384 
L 803.846284 30.835384 
L 803.846284 32.652693 
L 804.443242 32.652693 
L 804.443242 31.882442 
L 805.0402 31.882442 
L 805.0402 32.070004 
L 805.637158 32.070004 
L 805.637158 31.042778 
L 806.234115 31.042778 
L 806.234115 31.343992 
L 806.831073 31.343992 
L 806.831073 31.882371 
L 807.428031 31.882371 
L 807.428031 31.50585 
L 808.024989 31.50585 
L 808.024989 33.051438 
L 808.621946 33.051438 
L 808.621946 33.929578 
L 809.218904 33.929578 
L 809.218904 32.761808 
L 809.815862 32.761808 
L 809.815862 32.905626 
L 810.41282 32.905626 
L 810.41282 33.110187 
L 811.009777 33.110187 
L 811.009777 33.410479 
L 811.606735 33.410479 
L 811.606735 33.590713 
L 812.203693 33.590713 
L 812.203693 34.085748 
L 812.800651 34.085748 
L 812.800651 32.367076 
L 813.994566 32.358911 
L 813.994566 31.857289 
L 814.591524 31.857289 
L 814.591524 31.438461 
L 815.188482 31.438461 
L 815.188482 31.992906 
L 815.78544 31.992906 
L 815.78544 31.100034 
L 816.382397 31.100034 
L 816.382397 31.460542 
L 816.979355 31.460542 
L 816.979355 31.769534 
L 817.576313 31.769534 
L 817.576313 32.246864 
L 818.173271 32.246864 
L 818.173271 32.798789 
L 818.770228 32.798789 
L 818.770228 34.260296 
L 819.964144 34.248263 
L 819.964144 33.68599 
L 820.561102 33.68599 
L 820.561102 34.94279 
L 821.158059 34.94279 
L 821.158059 35.123556 
L 821.755017 35.123556 
L 821.755017 34.088265 
L 822.351975 34.088265 
L 822.351975 33.067483 
L 822.948933 33.067483 
L 822.948933 31.959509 
L 824.142848 31.86538 
L 824.142848 32.38501 
L 824.739806 32.38501 
L 824.739806 34.128429 
L 825.336764 34.128429 
L 825.336764 36.088704 
L 825.933721 36.088704 
L 825.933721 34.787695 
L 826.530679 34.787695 
L 826.530679 35.200085 
L 827.127637 35.200085 
L 827.127637 34.529812 
L 827.724595 34.529812 
L 827.724595 33.031903 
L 828.321553 33.031903 
L 828.321553 34.532881 
L 828.91851 34.532881 
L 828.91851 34.701726 
L 829.515468 34.701726 
L 829.515468 35.045918 
L 830.112426 35.045918 
L 830.112426 36.153138 
L 830.709384 36.153138 
L 830.709384 34.987212 
L 831.903299 34.967023 
L 831.903299 33.306037 
L 832.500257 33.306037 
L 832.500257 32.970268 
L 833.097215 32.970268 
L 833.097215 32.473656 
L 833.694172 32.473656 
L 833.694172 34.140747 
L 834.29113 34.140747 
L 834.29113 33.432953 
L 834.888088 33.432953 
L 834.888088 34.263727 
L 835.485046 34.263727 
L 835.485046 32.424933 
L 836.082003 32.424933 
L 836.082003 31.714753 
L 836.678961 31.714753 
L 836.678961 32.027671 
L 837.872877 32.132097 
L 837.872877 30.600625 
L 838.469834 30.600625 
L 838.469834 31.621643 
L 839.066792 31.621643 
L 839.066792 29.626168 
L 839.66375 29.626168 
L 839.66375 26.499155 
L 840.260708 26.499155 
L 840.260708 25.975605 
L 840.857665 25.975605 
L 840.857665 25.689606 
L 841.454623 25.689606 
L 841.454623 24.547144 
L 842.051581 24.547144 
L 842.051581 24.924442 
L 842.648539 24.924442 
L 842.648539 24.650781 
L 844.439412 24.611198 
L 844.439412 23.803137 
L 845.03637 23.803137 
L 845.03637 22.896055 
L 845.633328 22.896055 
L 845.633328 24.660503 
L 846.230285 24.660503 
L 846.230285 24.23673 
L 846.827243 24.23673 
L 846.827243 25.437498 
L 847.424201 25.437498 
L 847.424201 24.737671 
L 848.021159 24.737671 
L 848.021159 23.648225 
L 848.618116 23.648225 
L 848.618116 25.188669 
L 849.215074 25.188669 
L 849.215074 24.805478 
L 849.812032 24.805478 
L 849.812032 23.2293 
L 850.40899 23.2293 
L 850.40899 23.378299 
L 851.005947 23.378299 
L 851.005947 23.581698 
L 851.602905 23.581698 
L 851.602905 23.164957 
L 852.199863 23.164957 
L 852.199863 23.813584 
L 852.796821 23.813584 
L 852.796821 24.802658 
L 853.393778 24.802658 
L 853.393778 24.967386 
L 853.990736 24.967386 
L 853.990736 24.584829 
L 854.587694 24.584829 
L 854.587694 24.781434 
L 855.781609 24.858045 
L 855.781609 27.443092 
L 856.378567 27.443092 
L 856.378567 27.105294 
L 856.975525 27.105294 
L 856.975525 26.951053 
L 857.572483 26.951053 
L 857.572483 27.871462 
L 858.16944 27.871462 
L 858.16944 27.515877 
L 858.766398 27.515877 
L 858.766398 26.922817 
L 859.363356 26.922817 
L 859.363356 27.111059 
L 859.960314 27.111059 
L 859.960314 26.848935 
L 860.557272 26.848935 
L 860.557272 27.951152 
L 861.154229 27.951152 
L 861.154229 27.634706 
L 861.751187 27.634706 
L 861.751187 29.536377 
L 862.348145 29.536377 
L 862.348145 27.292441 
L 862.945103 27.292441 
L 862.945103 27.588873 
L 863.54206 27.588873 
L 863.54206 27.318508 
L 864.139018 27.318508 
L 864.139018 25.344464 
L 864.735976 25.344464 
L 864.735976 25.126099 
L 865.332934 25.126099 
L 865.332934 24.722463 
L 866.526849 24.744979 
L 866.526849 23.160682 
L 867.123807 23.160682 
L 867.123807 23.394744 
L 867.720765 23.394744 
L 867.720765 22.84528 
L 868.317722 22.84528 
L 868.317722 21.869799 
L 868.91468 21.869799 
L 868.91468 22.27667 
L 869.511638 22.27667 
L 869.511638 23.302755 
L 870.108596 23.302755 
L 870.108596 23.033011 
L 871.302511 22.995231 
L 871.302511 22.422615 
L 871.899469 22.422615 
L 871.899469 23.009364 
L 872.496427 23.009364 
L 872.496427 23.177159 
L 873.093384 23.177159 
L 873.093384 23.043331 
L 873.690342 23.043331 
L 873.690342 22.716336 
L 874.2873 22.716336 
L 874.2873 22.981392 
L 874.884258 22.981392 
L 874.884258 22.505073 
L 875.481215 22.505073 
L 875.481215 21.944877 
L 876.078173 21.944877 
L 876.078173 20.586427 
L 877.272089 20.555853 
L 877.272089 20.866345 
L 879.062962 20.784653 
L 879.062962 21.726605 
L 879.65992 21.726605 
L 879.65992 21.284847 
L 880.256878 21.284847 
L 880.256878 20.552727 
L 880.853835 20.552727 
L 880.853835 20.706075 
L 881.450793 20.706075 
L 881.450793 21.071829 
L 882.644709 20.965732 
L 882.644709 21.855191 
L 883.241666 21.855191 
L 883.241666 22.403729 
L 883.838624 22.403729 
L 883.838624 21.867038 
L 885.03254 21.96831 
L 885.03254 21.198924 
L 886.226455 21.218974 
L 886.226455 21.660139 
L 887.194182 21.660139 
L 887.194182 21.660139 
" clip-path="url(#p113651f14d)" style="fill: none; stroke: #3572c6; stroke-width: 1.2; stroke-linecap: square"/>
   </g>
   <g id="line2d_79">
    <path d="M 75.557818 20.552727 
L 887.194182 20.552727 
L 887.194182 20.552727 
" clip-path="url(#p113651f14d)" style="fill: none; stroke: #83a83b; stroke-width: 1.2; stroke-linecap: square"/>
   </g>
   <g id="line2d_80">
    <path d="M 75.557818 22.403729 
L 887.194182 22.403729 
L 887.194182 22.403729 
" clip-path="url(#p113651f14d)" style="fill: none; stroke: #c44e52; stroke-width: 1.2; stroke-linecap: square"/>
   </g>
   <g id="line2d_81">
    <path d="M 880.853835 300.96 
L 880.853835 7.2 
" clip-path="url(#p113651f14d)" style="fill: none; stroke: #83a83b; stroke-width: 1.2; stroke-linecap: square"/>
   </g>
   <g id="line2d_82">
    <path d="M 883.838624 300.96 
L 883.838624 7.2 
" clip-path="url(#p113651f14d)" style="fill: none; stroke: #c44e52; stroke-width: 1.2; stroke-linecap: square"/>
   </g>
   <g id="patch_3">
    <path d="M 34.976 300.96 
L 34.976 7.2 
" style="fill: none; stroke: #899ab8; stroke-width: 1.12; stroke-linejoin: miter; stroke-linecap: square"/>
   </g>
   <g id="patch_4">
    <path d="M 927.776 300.96 
L 927.776 7.2 
" style="fill: none; stroke: #899ab8; stroke-width: 1.12; stroke-linejoin: miter; stroke-linecap: square"/>
   </g>
   <g id="patch_5">
    <path d="M 34.976 300.96 
L 927.776 300.96 
" style="fill: none; stroke: #899ab8; stroke-width: 1.12; stroke-linejoin: miter; stroke-linecap: square"/>
   </g>
   <g id="patch_6">
    <path d="M 34.976 7.2 
L 927.776 7.2 
" style="fill: none; stroke: #899ab8; stroke-width: 1.12; stroke-linejoin: miter; stroke-linecap: square"/>
   </g>
   <g id="text_16">
    <!-- 119295.42 -->
    <g style="fill: #83a83b" transform="translate(184.502609 20.552727) scale(0.132 -0.132)">
     <defs>
      <path id="DejaVuSans-39" d="M 703 97 
L 703 672 
Q 941 559 1184 500 
Q 1428 441 1663 441 
Q 2288 441 2617 861 
Q 2947 1281 2994 2138 
Q 2813 1869 2534 1725 
Q 2256 1581 1919 1581 
Q 1219 1581 811 2004 
Q 403 2428 403 3163 
Q 403 3881 828 4315 
Q 1253 4750 1959 4750 
Q 2769 4750 3195 4129 
Q 3622 3509 3622 2328 
Q 3622 1225 3098 567 
Q 2575 -91 1691 -91 
Q 1453 -91 1209 -44 
Q 966 3 703 97 
z
M 1959 2075 
Q 2384 2075 2632 2365 
Q 2881 2656 2881 3163 
Q 2881 3666 2632 3958 
Q 2384 4250 1959 4250 
Q 1534 4250 1286 3958 
Q 1038 3666 1038 3163 
Q 1038 2656 1286 2365 
Q 1534 2075 1959 2075 
z
" transform="scale(0.015625)"/>
      <path id="DejaVuSans-2e" d="M 684 794 
L 1344 794 
L 1344 0 
L 684 0 
L 684 794 
z
" transform="scale(0.015625)"/>
     </defs>
     <use xlink:href="#DejaVuSans-31"/>
     <use xlink:href="#DejaVuSans-31" transform="translate(63.623047 0)"/>
     <use xlink:href="#DejaVuSans-39" transform="translate(127.246094 0)"/>
     <use xlink:href="#DejaVuSans-32" transform="translate(190.869141 0)"/>
     <use xlink:href="#DejaVuSans-39" transform="translate(254.492188 0)"/>
     <use xlink:href="#DejaVuSans-35" transform="translate(318.115234 0)"/>
     <use xlink:href="#DejaVuSans-2e" transform="translate(381.738281 0)"/>
     <use xlink:href="#DejaVuSans-34" transform="translate(413.525391 0)"/>
     <use xlink:href="#DejaVuSans-32" transform="translate(477.148438 0)"/>
    </g>
   </g>
   <g id="text_17">
    <!-- 108790.79 -->
    <g style="fill: #c44e52" transform="translate(184.502609 22.403729) scale(0.132 -0.132)">
     <defs>
      <path id="DejaVuSans-37" d="M 525 4666 
L 3525 4666 
L 3525 4397 
L 1831 0 
L 1172 0 
L 2766 4134 
L 525 4134 
L 525 4666 
z
" transform="scale(0.015625)"/>
     </defs>
     <use xlink:href="#DejaVuSans-31"/>
     <use xlink:href="#DejaVuSans-30" transform="translate(63.623047 0)"/>
     <use xlink:href="#DejaVuSans-38" transform="translate(127.246094 0)"/>
     <use xlink:href="#DejaVuSans-37" transform="translate(190.869141 0)"/>
     <use xlink:href="#DejaVuSans-39" transform="translate(254.492188 0)"/>
     <use xlink:href="#DejaVuSans-30" transform="translate(318.115234 0)"/>
     <use xlink:href="#DejaVuSans-2e" transform="translate(381.738281 0)"/>
     <use xlink:href="#DejaVuSans-37" transform="translate(413.525391 0)"/>
     <use xlink:href="#DejaVuSans-39" transform="translate(477.148438 0)"/>
    </g>
   </g>
   <g id="legend_1">
    <g id="patch_7">
     <path d="M 43.796 183.886875 
L 142.133094 183.886875 
Q 144.653094 183.886875 144.653094 181.366875 
L 144.653094 126.793125 
Q 144.653094 124.273125 142.133094 124.273125 
L 43.796 124.273125 
Q 41.276 124.273125 41.276 126.793125 
L 41.276 181.366875 
Q 41.276 183.886875 43.796 183.886875 
z
" style="fill: #373e4b; opacity: 0.8; stroke: #cccccc; stroke-width: 0.16; stroke-linejoin: miter"/>
    </g>
    <g id="line2d_83">
     <path d="M 46.316 134.477156 
L 46.316 134.477156 
L 58.916 134.477156 
L 58.916 134.477156 
L 71.516 134.477156 
" style="fill: none; stroke: #3572c6; stroke-width: 1.2; stroke-linecap: square"/>
    </g>
    <g id="text_18">
     <!-- USD/BTC -->
     <g style="fill: #b1bed6" transform="translate(81.596 138.887156) scale(0.126 -0.126)">
      <defs>
       <path id="DejaVuSans-55" d="M 556 4666 
L 1191 4666 
L 1191 1831 
Q 1191 1081 1462 751 
Q 1734 422 2344 422 
Q 2950 422 3222 751 
Q 3494 1081 3494 1831 
L 3494 4666 
L 4128 4666 
L 4128 1753 
Q 4128 841 3676 375 
Q 3225 -91 2344 -91 
Q 1459 -91 1007 375 
Q 556 841 556 1753 
L 556 4666 
z
" transform="scale(0.015625)"/>
       <path id="DejaVuSans-53" d="M 3425 4513 
L 3425 3897 
Q 3066 4069 2747 4153 
Q 2428 4238 2131 4238 
Q 1616 4238 1336 4038 
Q 1056 3838 1056 3469 
Q 1056 3159 1242 3001 
Q 1428 2844 1947 2747 
L 2328 2669 
Q 3034 2534 3370 2195 
Q 3706 1856 3706 1288 
Q 3706 609 3251 259 
Q 2797 -91 1919 -91 
Q 1588 -91 1214 -16 
Q 841 59 441 206 
L 441 856 
Q 825 641 1194 531 
Q 1563 422 1919 422 
Q 2459 422 2753 634 
Q 3047 847 3047 1241 
Q 3047 1584 2836 1778 
Q 2625 1972 2144 2069 
L 1759 2144 
Q 1053 2284 737 2584 
Q 422 2884 422 3419 
Q 422 4038 858 4394 
Q 1294 4750 2059 4750 
Q 2388 4750 2728 4690 
Q 3069 4631 3425 4513 
z
" transform="scale(0.015625)"/>
       <path id="DejaVuSans-2f" d="M 1625 4666 
L 2156 4666 
L 531 -594 
L 0 -594 
L 1625 4666 
z
" transform="scale(0.015625)"/>
       <path id="DejaVuSans-42" d="M 1259 2228 
L 1259 519 
L 2272 519 
Q 2781 519 3026 730 
Q 3272 941 3272 1375 
Q 3272 1813 3026 2020 
Q 2781 2228 2272 2228 
L 1259 2228 
z
M 1259 4147 
L 1259 2741 
L 2194 2741 
Q 2656 2741 2882 2914 
Q 3109 3088 3109 3444 
Q 3109 3797 2882 3972 
Q 2656 4147 2194 4147 
L 1259 4147 
z
M 628 4666 
L 2241 4666 
Q 2963 4666 3353 4366 
Q 3744 4066 3744 3513 
Q 3744 3084 3544 2831 
Q 3344 2578 2956 2516 
Q 3422 2416 3680 2098 
Q 3938 1781 3938 1306 
Q 3938 681 3513 340 
Q 3088 0 2303 0 
L 628 0 
L 628 4666 
z
" transform="scale(0.015625)"/>
       <path id="DejaVuSans-54" d="M -19 4666 
L 3928 4666 
L 3928 4134 
L 2272 4134 
L 2272 0 
L 1638 0 
L 1638 4134 
L -19 4134 
L -19 4666 
z
" transform="scale(0.015625)"/>
       <path id="DejaVuSans-43" d="M 4122 4306 
L 4122 3641 
Q 3803 3938 3442 4084 
Q 3081 4231 2675 4231 
Q 1875 4231 1450 3742 
Q 1025 3253 1025 2328 
Q 1025 1406 1450 917 
Q 1875 428 2675 428 
Q 3081 428 3442 575 
Q 3803 722 4122 1019 
L 4122 359 
Q 3791 134 3420 21 
Q 3050 -91 2638 -91 
Q 1578 -91 968 557 
Q 359 1206 359 2328 
Q 359 3453 968 4101 
Q 1578 4750 2638 4750 
Q 3056 4750 3426 4639 
Q 3797 4528 4122 4306 
z
" transform="scale(0.015625)"/>
      </defs>
      <use xlink:href="#DejaVuSans-55"/>
      <use xlink:href="#DejaVuSans-53" transform="translate(73.193359 0)"/>
      <use xlink:href="#DejaVuSans-44" transform="translate(136.669922 0)"/>
      <use xlink:href="#DejaVuSans-2f" transform="translate(213.671875 0)"/>
      <use xlink:href="#DejaVuSans-42" transform="translate(247.363281 0)"/>
      <use xlink:href="#DejaVuSans-54" transform="translate(315.966797 0)"/>
      <use xlink:href="#DejaVuSans-43" transform="translate(371.175781 0)"/>
     </g>
    </g>
    <g id="line2d_84">
     <path d="M 46.316 152.971594 
L 46.316 152.971594 
L 58.916 152.971594 
L 58.916 152.971594 
L 71.516 152.971594 
" style="fill: none; stroke: #83a83b; stroke-width: 1.2; stroke-linecap: square"/>
    </g>
    <g id="text_19">
     <!-- Max -->
     <g style="fill: #b1bed6" transform="translate(81.596 157.381594) scale(0.126 -0.126)">
      <defs>
       <path id="DejaVuSans-4d" d="M 628 4666 
L 1569 4666 
L 2759 1491 
L 3956 4666 
L 4897 4666 
L 4897 0 
L 4281 0 
L 4281 4097 
L 3078 897 
L 2444 897 
L 1241 4097 
L 1241 0 
L 628 0 
L 628 4666 
z
" transform="scale(0.015625)"/>
       <path id="DejaVuSans-78" d="M 3513 3500 
L 2247 1797 
L 3578 0 
L 2900 0 
L 1881 1375 
L 863 0 
L 184 0 
L 1544 1831 
L 300 3500 
L 978 3500 
L 1906 2253 
L 2834 3500 
L 3513 3500 
z
" transform="scale(0.015625)"/>
      </defs>
      <use xlink:href="#DejaVuSans-4d"/>
      <use xlink:href="#DejaVuSans-61" transform="translate(86.279297 0)"/>
      <use xlink:href="#DejaVuSans-78" transform="translate(147.558594 0)"/>
     </g>
    </g>
    <g id="line2d_85">
     <path d="M 46.316 171.466031 
L 46.316 171.466031 
L 58.916 171.466031 
L 58.916 171.466031 
L 71.516 171.466031 
" style="fill: none; stroke: #c44e52; stroke-width: 1.2; stroke-linecap: square"/>
    </g>
    <g id="text_20">
     <!-- local_Min -->
     <g style="fill: #b1bed6" transform="translate(81.596 175.876031) scale(0.126 -0.126)">
      <defs>
       <path id="DejaVuSans-6c" d="M 603 4863 
L 1178 4863 
L 1178 0 
L 603 0 
L 603 4863 
z
" transform="scale(0.015625)"/>
       <path id="DejaVuSans-6f" d="M 1959 3097 
Q 1497 3097 1228 2736 
Q 959 2375 959 1747 
Q 959 1119 1226 758 
Q 1494 397 1959 397 
Q 2419 397 2687 759 
Q 2956 1122 2956 1747 
Q 2956 2369 2687 2733 
Q 2419 3097 1959 3097 
z
M 1959 3584 
Q 2709 3584 3137 3096 
Q 3566 2609 3566 1747 
Q 3566 888 3137 398 
Q 2709 -91 1959 -91 
Q 1206 -91 779 398 
Q 353 888 353 1747 
Q 353 2609 779 3096 
Q 1206 3584 1959 3584 
z
" transform="scale(0.015625)"/>
       <path id="DejaVuSans-63" d="M 3122 3366 
L 3122 2828 
Q 2878 2963 2633 3030 
Q 2388 3097 2138 3097 
Q 1578 3097 1268 2742 
Q 959 2388 959 1747 
Q 959 1106 1268 751 
Q 1578 397 2138 397 
Q 2388 397 2633 464 
Q 2878 531 3122 666 
L 3122 134 
Q 2881 22 2623 -34 
Q 2366 -91 2075 -91 
Q 1284 -91 818 406 
Q 353 903 353 1747 
Q 353 2603 823 3093 
Q 1294 3584 2113 3584 
Q 2378 3584 2631 3529 
Q 2884 3475 3122 3366 
z
" transform="scale(0.015625)"/>
       <path id="DejaVuSans-5f" d="M 3263 -1063 
L 3263 -1509 
L -63 -1509 
L -63 -1063 
L 3263 -1063 
z
" transform="scale(0.015625)"/>
       <path id="DejaVuSans-69" d="M 603 3500 
L 1178 3500 
L 1178 0 
L 603 0 
L 603 3500 
z
M 603 4863 
L 1178 4863 
L 1178 4134 
L 603 4134 
L 603 4863 
z
" transform="scale(0.015625)"/>
       <path id="DejaVuSans-6e" d="M 3513 2113 
L 3513 0 
L 2938 0 
L 2938 2094 
Q 2938 2591 2744 2837 
Q 2550 3084 2163 3084 
Q 1697 3084 1428 2787 
Q 1159 2491 1159 1978 
L 1159 0 
L 581 0 
L 581 3500 
L 1159 3500 
L 1159 2956 
Q 1366 3272 1645 3428 
Q 1925 3584 2291 3584 
Q 2894 3584 3203 3211 
Q 3513 2838 3513 2113 
z
" transform="scale(0.015625)"/>
      </defs>
      <use xlink:href="#DejaVuSans-6c"/>
      <use xlink:href="#DejaVuSans-6f" transform="translate(27.783203 0)"/>
      <use xlink:href="#DejaVuSans-63" transform="translate(88.964844 0)"/>
      <use xlink:href="#DejaVuSans-61" transform="translate(143.945312 0)"/>
      <use xlink:href="#DejaVuSans-6c" transform="translate(205.224609 0)"/>
      <use xlink:href="#DejaVuSans-5f" transform="translate(233.007812 0)"/>
      <use xlink:href="#DejaVuSans-4d" transform="translate(283.007812 0)"/>
      <use xlink:href="#DejaVuSans-69" transform="translate(369.287109 0)"/>
      <use xlink:href="#DejaVuSans-6e" transform="translate(397.070312 0)"/>
     </g>
    </g>
   </g>
  </g>
 </g>
 <defs>
  <clipPath id="p113651f14d">
   <rect x="34.976" y="7.2" width="892.8" height="293.76"/>
  </clipPath>
 </defs>
</svg>
