<?xml version="1.0" encoding="utf-8" standalone="no"?>
<!DOCTYPE svg PUBLIC "-//W3C//DTD SVG 1.1//EN"
  "http://www.w3.org/Graphics/SVG/1.1/DTD/svg11.dtd">
<svg xmlns:xlink="http://www.w3.org/1999/xlink" width="934.976pt" height="358.470384pt" viewBox="0 0 934.976 358.470384" xmlns="http://www.w3.org/2000/svg" version="1.1">
 <metadata>
  <rdf:RDF xmlns:dc="http://purl.org/dc/elements/1.1/" xmlns:cc="http://creativecommons.org/ns#" xmlns:rdf="http://www.w3.org/1999/02/22-rdf-syntax-ns#">
   <cc:Work>
    <dc:type rdf:resource="http://purl.org/dc/dcmitype/StillImage"/>
    <dc:date>2022-01-23T22:09:38.318954</dc:date>
    <dc:format>image/svg+xml</dc:format>
    <dc:creator>
     <cc:Agent>
      <dc:title>Matplotlib v3.5.1, https://matplotlib.org/</dc:title>
     </cc:Agent>
    </dc:creator>
   </cc:Work>
  </rdf:RDF>
 </metadata>
 <defs>
  <style type="text/css">*{stroke-linejoin: round; stroke-linecap: butt}</style>
 </defs>
 <g id="figure_1">
  <g id="patch_1">
   <path d="M 0 358.470384 
L 934.976 358.470384 
L 934.976 0 
L 0 0 
z
" style="fill: #373e4b"/>
  </g>
  <g id="axes_1">
   <g id="patch_2">
    <path d="M 34.976 301.139691 
L 927.776 301.139691 
L 927.776 7.379691 
L 34.976 7.379691 
z
" style="fill: #373e4b"/>
   </g>
   <g id="matplotlib.axis_1">
    <g id="xtick_1">
     <g id="line2d_1">
      <path d="M 159.494474 301.139691 
L 159.494474 7.379691 
" clip-path="url(#p4a1c929a9e)" style="fill: none; stroke: #546379; stroke-width: 1.12; stroke-linecap: square"/>
     </g>
     <g id="line2d_2"/>
     <g id="text_1">
      <!-- 2012 -->
      <g style="fill: #b1bed6" transform="translate(130.413434 331.064545)rotate(-30)scale(0.126 -0.126)">
       <defs>
        <path id="DejaVuSans-32" d="M 1228 531 
L 3431 531 
L 3431 0 
L 469 0 
L 469 531 
Q 828 903 1448 1529 
Q 2069 2156 2228 2338 
Q 2531 2678 2651 2914 
Q 2772 3150 2772 3378 
Q 2772 3750 2511 3984 
Q 2250 4219 1831 4219 
Q 1534 4219 1204 4116 
Q 875 4013 500 3803 
L 500 4441 
Q 881 4594 1212 4672 
Q 1544 4750 1819 4750 
Q 2544 4750 2975 4387 
Q 3406 4025 3406 3419 
Q 3406 3131 3298 2873 
Q 3191 2616 2906 2266 
Q 2828 2175 2409 1742 
Q 1991 1309 1228 531 
z
" transform="scale(0.015625)"/>
        <path id="DejaVuSans-30" d="M 2034 4250 
Q 1547 4250 1301 3770 
Q 1056 3291 1056 2328 
Q 1056 1369 1301 889 
Q 1547 409 2034 409 
Q 2525 409 2770 889 
Q 3016 1369 3016 2328 
Q 3016 3291 2770 3770 
Q 2525 4250 2034 4250 
z
M 2034 4750 
Q 2819 4750 3233 4129 
Q 3647 3509 3647 2328 
Q 3647 1150 3233 529 
Q 2819 -91 2034 -91 
Q 1250 -91 836 529 
Q 422 1150 422 2328 
Q 422 3509 836 4129 
Q 1250 4750 2034 4750 
z
" transform="scale(0.015625)"/>
        <path id="DejaVuSans-31" d="M 794 531 
L 1825 531 
L 1825 4091 
L 703 3866 
L 703 4441 
L 1819 4666 
L 2450 4666 
L 2450 531 
L 3481 531 
L 3481 0 
L 794 0 
L 794 531 
z
" transform="scale(0.015625)"/>
       </defs>
       <use xlink:href="#DejaVuSans-32"/>
       <use xlink:href="#DejaVuSans-30" x="63.623047"/>
       <use xlink:href="#DejaVuSans-31" x="127.246094"/>
       <use xlink:href="#DejaVuSans-32" x="190.869141"/>
      </g>
     </g>
    </g>
    <g id="xtick_2">
     <g id="line2d_3">
      <path d="M 304.206019 301.139691 
L 304.206019 7.379691 
" clip-path="url(#p4a1c929a9e)" style="fill: none; stroke: #546379; stroke-width: 1.12; stroke-linecap: square"/>
     </g>
     <g id="line2d_4"/>
     <g id="text_2">
      <!-- 2014 -->
      <g style="fill: #b1bed6" transform="translate(275.12498 331.064545)rotate(-30)scale(0.126 -0.126)">
       <defs>
        <path id="DejaVuSans-34" d="M 2419 4116 
L 825 1625 
L 2419 1625 
L 2419 4116 
z
M 2253 4666 
L 3047 4666 
L 3047 1625 
L 3713 1625 
L 3713 1100 
L 3047 1100 
L 3047 0 
L 2419 0 
L 2419 1100 
L 313 1100 
L 313 1709 
L 2253 4666 
z
" transform="scale(0.015625)"/>
       </defs>
       <use xlink:href="#DejaVuSans-32"/>
       <use xlink:href="#DejaVuSans-30" x="63.623047"/>
       <use xlink:href="#DejaVuSans-31" x="127.246094"/>
       <use xlink:href="#DejaVuSans-34" x="190.869141"/>
      </g>
     </g>
    </g>
    <g id="xtick_3">
     <g id="line2d_5">
      <path d="M 448.719601 301.139691 
L 448.719601 7.379691 
" clip-path="url(#p4a1c929a9e)" style="fill: none; stroke: #546379; stroke-width: 1.12; stroke-linecap: square"/>
     </g>
     <g id="line2d_6"/>
     <g id="text_3">
      <!-- 2016 -->
      <g style="fill: #b1bed6" transform="translate(419.638561 331.064545)rotate(-30)scale(0.126 -0.126)">
       <defs>
        <path id="DejaVuSans-36" d="M 2113 2584 
Q 1688 2584 1439 2293 
Q 1191 2003 1191 1497 
Q 1191 994 1439 701 
Q 1688 409 2113 409 
Q 2538 409 2786 701 
Q 3034 994 3034 1497 
Q 3034 2003 2786 2293 
Q 2538 2584 2113 2584 
z
M 3366 4563 
L 3366 3988 
Q 3128 4100 2886 4159 
Q 2644 4219 2406 4219 
Q 1781 4219 1451 3797 
Q 1122 3375 1075 2522 
Q 1259 2794 1537 2939 
Q 1816 3084 2150 3084 
Q 2853 3084 3261 2657 
Q 3669 2231 3669 1497 
Q 3669 778 3244 343 
Q 2819 -91 2113 -91 
Q 1303 -91 875 529 
Q 447 1150 447 2328 
Q 447 3434 972 4092 
Q 1497 4750 2381 4750 
Q 2619 4750 2861 4703 
Q 3103 4656 3366 4563 
z
" transform="scale(0.015625)"/>
       </defs>
       <use xlink:href="#DejaVuSans-32"/>
       <use xlink:href="#DejaVuSans-30" x="63.623047"/>
       <use xlink:href="#DejaVuSans-31" x="127.246094"/>
       <use xlink:href="#DejaVuSans-36" x="190.869141"/>
      </g>
     </g>
    </g>
    <g id="xtick_4">
     <g id="line2d_7">
      <path d="M 593.431147 301.139691 
L 593.431147 7.379691 
" clip-path="url(#p4a1c929a9e)" style="fill: none; stroke: #546379; stroke-width: 1.12; stroke-linecap: square"/>
     </g>
     <g id="line2d_8"/>
     <g id="text_4">
      <!-- 2018 -->
      <g style="fill: #b1bed6" transform="translate(564.350107 331.064545)rotate(-30)scale(0.126 -0.126)">
       <defs>
        <path id="DejaVuSans-38" d="M 2034 2216 
Q 1584 2216 1326 1975 
Q 1069 1734 1069 1313 
Q 1069 891 1326 650 
Q 1584 409 2034 409 
Q 2484 409 2743 651 
Q 3003 894 3003 1313 
Q 3003 1734 2745 1975 
Q 2488 2216 2034 2216 
z
M 1403 2484 
Q 997 2584 770 2862 
Q 544 3141 544 3541 
Q 544 4100 942 4425 
Q 1341 4750 2034 4750 
Q 2731 4750 3128 4425 
Q 3525 4100 3525 3541 
Q 3525 3141 3298 2862 
Q 3072 2584 2669 2484 
Q 3125 2378 3379 2068 
Q 3634 1759 3634 1313 
Q 3634 634 3220 271 
Q 2806 -91 2034 -91 
Q 1263 -91 848 271 
Q 434 634 434 1313 
Q 434 1759 690 2068 
Q 947 2378 1403 2484 
z
M 1172 3481 
Q 1172 3119 1398 2916 
Q 1625 2713 2034 2713 
Q 2441 2713 2670 2916 
Q 2900 3119 2900 3481 
Q 2900 3844 2670 4047 
Q 2441 4250 2034 4250 
Q 1625 4250 1398 4047 
Q 1172 3844 1172 3481 
z
" transform="scale(0.015625)"/>
       </defs>
       <use xlink:href="#DejaVuSans-32"/>
       <use xlink:href="#DejaVuSans-30" x="63.623047"/>
       <use xlink:href="#DejaVuSans-31" x="127.246094"/>
       <use xlink:href="#DejaVuSans-38" x="190.869141"/>
      </g>
     </g>
    </g>
    <g id="xtick_5">
     <g id="line2d_9">
      <path d="M 737.944728 301.139691 
L 737.944728 7.379691 
" clip-path="url(#p4a1c929a9e)" style="fill: none; stroke: #546379; stroke-width: 1.12; stroke-linecap: square"/>
     </g>
     <g id="line2d_10"/>
     <g id="text_5">
      <!-- 2020 -->
      <g style="fill: #b1bed6" transform="translate(708.863689 331.064545)rotate(-30)scale(0.126 -0.126)">
       <use xlink:href="#DejaVuSans-32"/>
       <use xlink:href="#DejaVuSans-30" x="63.623047"/>
       <use xlink:href="#DejaVuSans-32" x="127.246094"/>
       <use xlink:href="#DejaVuSans-30" x="190.869141"/>
      </g>
     </g>
    </g>
    <g id="xtick_6">
     <g id="line2d_11">
      <path d="M 882.656274 301.139691 
L 882.656274 7.379691 
" clip-path="url(#p4a1c929a9e)" style="fill: none; stroke: #546379; stroke-width: 1.12; stroke-linecap: square"/>
     </g>
     <g id="line2d_12"/>
     <g id="text_6">
      <!-- 2022 -->
      <g style="fill: #b1bed6" transform="translate(853.575234 331.064545)rotate(-30)scale(0.126 -0.126)">
       <use xlink:href="#DejaVuSans-32"/>
       <use xlink:href="#DejaVuSans-30" x="63.623047"/>
       <use xlink:href="#DejaVuSans-32" x="127.246094"/>
       <use xlink:href="#DejaVuSans-32" x="190.869141"/>
      </g>
     </g>
    </g>
    <g id="text_7">
     <!-- Date -->
     <g style="fill: #b1bed6" transform="translate(464.166875 348.275634)scale(0.144 -0.144)">
      <defs>
       <path id="DejaVuSans-44" d="M 1259 4147 
L 1259 519 
L 2022 519 
Q 2988 519 3436 956 
Q 3884 1394 3884 2338 
Q 3884 3275 3436 3711 
Q 2988 4147 2022 4147 
L 1259 4147 
z
M 628 4666 
L 1925 4666 
Q 3281 4666 3915 4102 
Q 4550 3538 4550 2338 
Q 4550 1131 3912 565 
Q 3275 0 1925 0 
L 628 0 
L 628 4666 
z
" transform="scale(0.015625)"/>
       <path id="DejaVuSans-61" d="M 2194 1759 
Q 1497 1759 1228 1600 
Q 959 1441 959 1056 
Q 959 750 1161 570 
Q 1363 391 1709 391 
Q 2188 391 2477 730 
Q 2766 1069 2766 1631 
L 2766 1759 
L 2194 1759 
z
M 3341 1997 
L 3341 0 
L 2766 0 
L 2766 531 
Q 2569 213 2275 61 
Q 1981 -91 1556 -91 
Q 1019 -91 701 211 
Q 384 513 384 1019 
Q 384 1609 779 1909 
Q 1175 2209 1959 2209 
L 2766 2209 
L 2766 2266 
Q 2766 2663 2505 2880 
Q 2244 3097 1772 3097 
Q 1472 3097 1187 3025 
Q 903 2953 641 2809 
L 641 3341 
Q 956 3463 1253 3523 
Q 1550 3584 1831 3584 
Q 2591 3584 2966 3190 
Q 3341 2797 3341 1997 
z
" transform="scale(0.015625)"/>
       <path id="DejaVuSans-74" d="M 1172 4494 
L 1172 3500 
L 2356 3500 
L 2356 3053 
L 1172 3053 
L 1172 1153 
Q 1172 725 1289 603 
Q 1406 481 1766 481 
L 2356 481 
L 2356 0 
L 1766 0 
Q 1100 0 847 248 
Q 594 497 594 1153 
L 594 3053 
L 172 3053 
L 172 3500 
L 594 3500 
L 594 4494 
L 1172 4494 
z
" transform="scale(0.015625)"/>
       <path id="DejaVuSans-65" d="M 3597 1894 
L 3597 1613 
L 953 1613 
Q 991 1019 1311 708 
Q 1631 397 2203 397 
Q 2534 397 2845 478 
Q 3156 559 3463 722 
L 3463 178 
Q 3153 47 2828 -22 
Q 2503 -91 2169 -91 
Q 1331 -91 842 396 
Q 353 884 353 1716 
Q 353 2575 817 3079 
Q 1281 3584 2069 3584 
Q 2775 3584 3186 3129 
Q 3597 2675 3597 1894 
z
M 3022 2063 
Q 3016 2534 2758 2815 
Q 2500 3097 2075 3097 
Q 1594 3097 1305 2825 
Q 1016 2553 972 2059 
L 3022 2063 
z
" transform="scale(0.015625)"/>
      </defs>
      <use xlink:href="#DejaVuSans-44"/>
      <use xlink:href="#DejaVuSans-61" x="77.001953"/>
      <use xlink:href="#DejaVuSans-74" x="138.28125"/>
      <use xlink:href="#DejaVuSans-65" x="177.490234"/>
     </g>
    </g>
   </g>
   <g id="matplotlib.axis_2">
    <g id="ytick_1">
     <g id="line2d_13">
      <path d="M 34.976 254.863557 
L 927.776 254.863557 
" clip-path="url(#p4a1c929a9e)" style="fill: none; stroke: #546379; stroke-width: 1.12; stroke-linecap: square"/>
     </g>
     <g id="line2d_14"/>
     <g id="text_8">
      <!-- $\mathdefault{10^{0}}$ -->
      <g style="fill: #b1bed6" transform="translate(7.2 259.650573)scale(0.126 -0.126)">
       <use xlink:href="#DejaVuSans-31" transform="translate(0 0.765625)"/>
       <use xlink:href="#DejaVuSans-30" transform="translate(63.623047 0.765625)"/>
       <use xlink:href="#DejaVuSans-30" transform="translate(128.203125 39.046875)scale(0.7)"/>
      </g>
     </g>
    </g>
    <g id="ytick_2">
     <g id="line2d_15">
      <path d="M 34.976 206.288249 
L 927.776 206.288249 
" clip-path="url(#p4a1c929a9e)" style="fill: none; stroke: #546379; stroke-width: 1.12; stroke-linecap: square"/>
     </g>
     <g id="line2d_16"/>
     <g id="text_9">
      <!-- $\mathdefault{10^{1}}$ -->
      <g style="fill: #b1bed6" transform="translate(7.2 211.075264)scale(0.126 -0.126)">
       <use xlink:href="#DejaVuSans-31" transform="translate(0 0.684375)"/>
       <use xlink:href="#DejaVuSans-30" transform="translate(63.623047 0.684375)"/>
       <use xlink:href="#DejaVuSans-31" transform="translate(128.203125 38.965625)scale(0.7)"/>
      </g>
     </g>
    </g>
    <g id="ytick_3">
     <g id="line2d_17">
      <path d="M 34.976 157.71294 
L 927.776 157.71294 
" clip-path="url(#p4a1c929a9e)" style="fill: none; stroke: #546379; stroke-width: 1.12; stroke-linecap: square"/>
     </g>
     <g id="line2d_18"/>
     <g id="text_10">
      <!-- $\mathdefault{10^{2}}$ -->
      <g style="fill: #b1bed6" transform="translate(7.2 162.499956)scale(0.126 -0.126)">
       <use xlink:href="#DejaVuSans-31" transform="translate(0 0.765625)"/>
       <use xlink:href="#DejaVuSans-30" transform="translate(63.623047 0.765625)"/>
       <use xlink:href="#DejaVuSans-32" transform="translate(128.203125 39.046875)scale(0.7)"/>
      </g>
     </g>
    </g>
    <g id="ytick_4">
     <g id="line2d_19">
      <path d="M 34.976 109.137632 
L 927.776 109.137632 
" clip-path="url(#p4a1c929a9e)" style="fill: none; stroke: #546379; stroke-width: 1.12; stroke-linecap: square"/>
     </g>
     <g id="line2d_20"/>
     <g id="text_11">
      <!-- $\mathdefault{10^{3}}$ -->
      <g style="fill: #b1bed6" transform="translate(7.2 113.924648)scale(0.126 -0.126)">
       <defs>
        <path id="DejaVuSans-33" d="M 2597 2516 
Q 3050 2419 3304 2112 
Q 3559 1806 3559 1356 
Q 3559 666 3084 287 
Q 2609 -91 1734 -91 
Q 1441 -91 1130 -33 
Q 819 25 488 141 
L 488 750 
Q 750 597 1062 519 
Q 1375 441 1716 441 
Q 2309 441 2620 675 
Q 2931 909 2931 1356 
Q 2931 1769 2642 2001 
Q 2353 2234 1838 2234 
L 1294 2234 
L 1294 2753 
L 1863 2753 
Q 2328 2753 2575 2939 
Q 2822 3125 2822 3475 
Q 2822 3834 2567 4026 
Q 2313 4219 1838 4219 
Q 1578 4219 1281 4162 
Q 984 4106 628 3988 
L 628 4550 
Q 988 4650 1302 4700 
Q 1616 4750 1894 4750 
Q 2613 4750 3031 4423 
Q 3450 4097 3450 3541 
Q 3450 3153 3228 2886 
Q 3006 2619 2597 2516 
z
" transform="scale(0.015625)"/>
       </defs>
       <use xlink:href="#DejaVuSans-31" transform="translate(0 0.765625)"/>
       <use xlink:href="#DejaVuSans-30" transform="translate(63.623047 0.765625)"/>
       <use xlink:href="#DejaVuSans-33" transform="translate(128.203125 39.046875)scale(0.7)"/>
      </g>
     </g>
    </g>
    <g id="ytick_5">
     <g id="line2d_21">
      <path d="M 34.976 60.562324 
L 927.776 60.562324 
" clip-path="url(#p4a1c929a9e)" style="fill: none; stroke: #546379; stroke-width: 1.12; stroke-linecap: square"/>
     </g>
     <g id="line2d_22"/>
     <g id="text_12">
      <!-- $\mathdefault{10^{4}}$ -->
      <g style="fill: #b1bed6" transform="translate(7.2 65.34934)scale(0.126 -0.126)">
       <use xlink:href="#DejaVuSans-31" transform="translate(0 0.684375)"/>
       <use xlink:href="#DejaVuSans-30" transform="translate(63.623047 0.684375)"/>
       <use xlink:href="#DejaVuSans-34" transform="translate(128.203125 38.965625)scale(0.7)"/>
      </g>
     </g>
    </g>
    <g id="ytick_6">
     <g id="line2d_23">
      <path d="M 34.976 11.987016 
L 927.776 11.987016 
" clip-path="url(#p4a1c929a9e)" style="fill: none; stroke: #546379; stroke-width: 1.12; stroke-linecap: square"/>
     </g>
     <g id="line2d_24"/>
     <g id="text_13">
      <!-- $\mathdefault{10^{5}}$ -->
      <g style="fill: #b1bed6" transform="translate(7.2 16.774031)scale(0.126 -0.126)">
       <defs>
        <path id="DejaVuSans-35" d="M 691 4666 
L 3169 4666 
L 3169 4134 
L 1269 4134 
L 1269 2991 
Q 1406 3038 1543 3061 
Q 1681 3084 1819 3084 
Q 2600 3084 3056 2656 
Q 3513 2228 3513 1497 
Q 3513 744 3044 326 
Q 2575 -91 1722 -91 
Q 1428 -91 1123 -41 
Q 819 9 494 109 
L 494 744 
Q 775 591 1075 516 
Q 1375 441 1709 441 
Q 2250 441 2565 725 
Q 2881 1009 2881 1497 
Q 2881 1984 2565 2268 
Q 2250 2553 1709 2553 
Q 1456 2553 1204 2497 
Q 953 2441 691 2322 
L 691 4666 
z
" transform="scale(0.015625)"/>
       </defs>
       <use xlink:href="#DejaVuSans-31" transform="translate(0 0.684375)"/>
       <use xlink:href="#DejaVuSans-30" transform="translate(63.623047 0.684375)"/>
       <use xlink:href="#DejaVuSans-35" transform="translate(128.203125 38.965625)scale(0.7)"/>
      </g>
     </g>
    </g>
    <g id="ytick_7">
     <g id="line2d_25"/>
    </g>
    <g id="ytick_8">
     <g id="line2d_26"/>
    </g>
    <g id="ytick_9">
     <g id="line2d_27"/>
    </g>
    <g id="ytick_10">
     <g id="line2d_28"/>
    </g>
    <g id="ytick_11">
     <g id="line2d_29"/>
    </g>
    <g id="ytick_12">
     <g id="line2d_30"/>
    </g>
    <g id="ytick_13">
     <g id="line2d_31"/>
    </g>
    <g id="ytick_14">
     <g id="line2d_32"/>
    </g>
    <g id="ytick_15">
     <g id="line2d_33"/>
    </g>
    <g id="ytick_16">
     <g id="line2d_34"/>
    </g>
    <g id="ytick_17">
     <g id="line2d_35"/>
    </g>
    <g id="ytick_18">
     <g id="line2d_36"/>
    </g>
    <g id="ytick_19">
     <g id="line2d_37"/>
    </g>
    <g id="ytick_20">
     <g id="line2d_38"/>
    </g>
    <g id="ytick_21">
     <g id="line2d_39"/>
    </g>
    <g id="ytick_22">
     <g id="line2d_40"/>
    </g>
    <g id="ytick_23">
     <g id="line2d_41"/>
    </g>
    <g id="ytick_24">
     <g id="line2d_42"/>
    </g>
    <g id="ytick_25">
     <g id="line2d_43"/>
    </g>
    <g id="ytick_26">
     <g id="line2d_44"/>
    </g>
    <g id="ytick_27">
     <g id="line2d_45"/>
    </g>
    <g id="ytick_28">
     <g id="line2d_46"/>
    </g>
    <g id="ytick_29">
     <g id="line2d_47"/>
    </g>
    <g id="ytick_30">
     <g id="line2d_48"/>
    </g>
    <g id="ytick_31">
     <g id="line2d_49"/>
    </g>
    <g id="ytick_32">
     <g id="line2d_50"/>
    </g>
    <g id="ytick_33">
     <g id="line2d_51"/>
    </g>
    <g id="ytick_34">
     <g id="line2d_52"/>
    </g>
    <g id="ytick_35">
     <g id="line2d_53"/>
    </g>
    <g id="ytick_36">
     <g id="line2d_54"/>
    </g>
    <g id="ytick_37">
     <g id="line2d_55"/>
    </g>
    <g id="ytick_38">
     <g id="line2d_56"/>
    </g>
    <g id="ytick_39">
     <g id="line2d_57"/>
    </g>
    <g id="ytick_40">
     <g id="line2d_58"/>
    </g>
    <g id="ytick_41">
     <g id="line2d_59"/>
    </g>
    <g id="ytick_42">
     <g id="line2d_60"/>
    </g>
    <g id="ytick_43">
     <g id="line2d_61"/>
    </g>
    <g id="ytick_44">
     <g id="line2d_62"/>
    </g>
    <g id="ytick_45">
     <g id="line2d_63"/>
    </g>
    <g id="ytick_46">
     <g id="line2d_64"/>
    </g>
    <g id="ytick_47">
     <g id="line2d_65"/>
    </g>
    <g id="ytick_48">
     <g id="line2d_66"/>
    </g>
    <g id="ytick_49">
     <g id="line2d_67"/>
    </g>
    <g id="ytick_50">
     <g id="line2d_68"/>
    </g>
    <g id="ytick_51">
     <g id="line2d_69"/>
    </g>
    <g id="ytick_52">
     <g id="line2d_70"/>
    </g>
    <g id="ytick_53">
     <g id="line2d_71"/>
    </g>
    <g id="ytick_54">
     <g id="line2d_72"/>
    </g>
   </g>
   <g id="line2d_73">
    <path d="M 75.557818 287.786964 
L 75.557818 284.108807 
L 76.15171 284.108807 
L 76.15171 276.4163 
L 76.745601 276.4163 
L 76.745601 284.969987 
L 77.339492 284.969987 
L 77.339492 280.262553 
L 77.933384 280.262553 
L 77.933384 281.718026 
L 78.527275 281.718026 
L 78.527275 280.97774 
L 80.30895 280.97774 
L 80.30895 281.718026 
L 80.902841 281.718026 
L 80.902841 284.108807 
L 81.496732 284.108807 
L 81.496732 285.867824 
L 82.090624 285.867824 
L 82.090624 284.108807 
L 82.684515 284.108807 
L 82.684515 285.867824 
L 83.872298 285.867824 
L 83.872298 284.108807 
L 84.46619 284.108807 
L 84.46619 282.485237 
L 85.060081 282.485237 
L 85.060081 284.108807 
L 85.653973 284.108807 
L 85.653973 282.485237 
L 86.247864 282.485237 
L 86.247864 280.262553 
L 88.029538 280.262553 
L 88.029538 278.901049 
L 88.62343 278.901049 
L 88.62343 278.251891 
L 89.217321 278.251891 
L 89.217321 273.164339 
L 89.811213 273.164339 
L 89.811213 274.193616 
L 90.405104 274.193616 
L 90.405104 277.010592 
L 90.998995 277.010592 
L 90.998995 272.66794 
L 92.186778 272.66794 
L 92.186778 271.708866 
L 92.78067 271.708866 
L 92.78067 265.291226 
L 93.374561 265.291226 
L 93.374561 260.105095 
L 93.968453 260.105095 
L 93.968453 256.622574 
L 94.562344 256.622574 
L 94.562344 255.506124 
L 95.156235 255.506124 
L 95.156235 253.045553 
L 95.750127 253.045553 
L 95.750127 253.239988 
L 96.344018 253.239988 
L 96.344018 254.036157 
L 96.93791 254.036157 
L 96.93791 257.560328 
L 97.531801 257.560328 
L 97.531801 255.724737 
L 98.719584 255.724737 
L 98.719584 255.94564 
L 99.313475 255.94564 
L 99.313475 256.622574 
L 99.907367 256.622574 
L 99.907367 257.086241 
L 100.501258 257.086241 
L 100.501258 256.394508 
L 101.09515 256.394508 
L 101.09515 257.086241 
L 101.689041 257.086241 
L 101.689041 257.801428 
L 102.282933 257.801428 
L 102.282933 259.836353 
L 102.876824 259.836353 
L 102.876824 258.045315 
L 103.470715 258.045315 
L 103.470715 257.086241 
L 104.064607 257.086241 
L 104.064607 259.570991 
L 105.25239 259.570991 
L 105.25239 260.377305 
L 105.846281 260.377305 
L 105.846281 260.105095 
L 106.440173 260.105095 
L 106.440173 260.653074 
L 107.034064 260.653074 
L 107.034064 255.075579 
L 107.627955 255.075579 
L 107.627955 253.045553 
L 108.221847 253.045553 
L 108.221847 251.19384 
L 108.815738 251.19384 
L 108.815738 248.068887 
L 109.40963 248.068887 
L 109.40963 243.545699 
L 110.003521 243.545699 
L 110.003521 234.224801 
L 110.597413 234.224801 
L 110.597413 225.883669 
L 111.191304 225.883669 
L 111.191304 228.076703 
L 111.785196 228.076703 
L 111.785196 226.979811 
L 112.379087 226.979811 
L 112.379087 219.248274 
L 112.972978 219.248274 
L 112.972978 209.568356 
L 113.56687 209.568356 
L 113.56687 209.791334 
L 114.160761 209.791334 
L 114.160761 212.98526 
L 114.754653 212.98526 
L 114.754653 214.393179 
L 115.348544 214.393179 
L 115.348544 211.127946 
L 115.942436 211.127946 
L 115.942436 209.274672 
L 116.536327 209.274672 
L 116.536327 207.437056 
L 117.130218 207.437056 
L 117.130218 197.664359 
L 117.72411 197.664359 
L 117.72411 192.537795 
L 118.318001 192.537795 
L 118.318001 181.52747 
L 118.911893 181.52747 
L 118.911893 187.068176 
L 119.505784 187.068176 
L 119.505784 191.676175 
L 120.099676 191.676175 
L 120.099676 194.362395 
L 120.693567 194.362395 
L 120.693567 197.193075 
L 121.287458 197.193075 
L 121.287458 195.15626 
L 121.88135 195.15626 
L 121.88135 194.017624 
L 122.475241 194.017624 
L 122.475241 194.627757 
L 123.069133 194.627757 
L 123.069133 196.718683 
L 123.663024 196.718683 
L 123.663024 195.800752 
L 124.256916 195.800752 
L 124.256916 197.510729 
L 124.850807 197.510729 
L 124.850807 198.42067 
L 125.444698 198.42067 
L 125.444698 198.816644 
L 126.03859 198.816644 
L 126.03859 199.295779 
L 127.226373 199.28064 
L 127.226373 198.950305 
L 128.414156 199.039884 
L 128.414156 199.099816 
L 129.008047 199.099816 
L 129.008047 200.161377 
L 129.601938 200.161377 
L 129.601938 203.4871 
L 130.19583 203.4871 
L 130.19583 207.017989 
L 130.789721 207.017989 
L 130.789721 205.562517 
L 131.383613 205.562517 
L 131.383613 203.524078 
L 132.571396 203.542591 
L 132.571396 202.886138 
L 133.165287 202.886138 
L 133.165287 203.394937 
L 133.759178 203.394937 
L 133.759178 206.267163 
L 134.35307 206.267163 
L 134.35307 207.593572 
L 134.946961 207.593572 
L 134.946961 209.816256 
L 135.540853 209.816256 
L 135.540853 209.568356 
L 136.134744 209.568356 
L 136.134744 212.272971 
L 136.728636 212.272971 
L 136.728636 215.40852 
L 137.322527 215.40852 
L 137.322527 216.40694 
L 137.916419 216.40694 
L 137.916419 220.164769 
L 138.51031 220.164769 
L 138.51031 217.454969 
L 139.104201 217.454969 
L 139.104201 217.779807 
L 139.698093 217.779807 
L 139.698093 218.938602 
L 140.291984 218.938602 
L 140.291984 221.122895 
L 140.885876 221.122895 
L 140.885876 219.801384 
L 141.479767 219.801384 
L 141.479767 220.784676 
L 142.073659 220.784676 
L 142.073659 221.81605 
L 142.66755 221.81605 
L 142.66755 224.438881 
L 143.261441 224.438881 
L 143.261441 223.751974 
L 143.855333 223.751974 
L 143.855333 226.315316 
L 144.449224 226.315316 
L 144.449224 234.787394 
L 145.043116 234.787394 
L 145.043116 229.612752 
L 145.637007 229.612752 
L 145.637007 231.687245 
L 146.230899 231.687245 
L 146.230899 229.108943 
L 147.418681 229.171265 
L 147.418681 229.804826 
L 148.012573 229.804826 
L 148.012573 231.407824 
L 148.606464 231.407824 
L 148.606464 231.063673 
L 149.200356 231.063673 
L 149.200356 230.927569 
L 149.794247 230.927569 
L 149.794247 234.145641 
L 150.388139 234.145641 
L 150.388139 236.660041 
L 150.98203 236.660041 
L 150.98203 237.292516 
L 151.575921 237.292516 
L 151.575921 235.702945 
L 152.169813 235.702945 
L 152.169813 235.449283 
L 152.763704 235.449283 
L 152.763704 231.687245 
L 153.357596 231.687245 
L 153.357596 230.995511 
L 153.951487 230.995511 
L 153.951487 231.269489 
L 154.545379 231.269489 
L 154.545379 231.407824 
L 155.13927 231.407824 
L 155.13927 229.485667 
L 155.733161 229.485667 
L 155.733161 230.325741 
L 156.327053 230.325741 
L 156.327053 229.296464 
L 156.920944 229.296464 
L 156.920944 225.200551 
L 158.702619 225.148909 
L 158.702619 223.274669 
L 159.29651 223.274669 
L 159.29651 219.09287 
L 159.890401 219.09287 
L 159.890401 215.053958 
L 160.484293 215.053958 
L 160.484293 213.218367 
L 161.078184 213.218367 
L 161.078184 213.51342 
L 161.672076 213.51342 
L 161.672076 214.393179 
L 162.265967 214.393179 
L 162.265967 213.903265 
L 162.859859 213.903265 
L 162.859859 215.150067 
L 163.45375 215.150067 
L 163.45375 215.473632 
L 164.047642 215.473632 
L 164.047642 216.785199 
L 164.641533 216.785199 
L 164.641533 218.072811 
L 165.235424 218.072811 
L 165.235424 217.889207 
L 165.829316 217.889207 
L 165.829316 217.099809 
L 166.423207 217.099809 
L 166.423207 217.999178 
L 167.017099 217.999178 
L 167.017099 217.276642 
L 167.61099 217.276642 
L 167.61099 218.183746 
L 168.204882 218.183746 
L 168.204882 222.037416 
L 168.798773 222.037416 
L 168.798773 223.703754 
L 169.392664 223.703754 
L 169.392664 222.532755 
L 169.986556 222.532755 
L 169.986556 220.700962 
L 170.580447 220.700962 
L 170.580447 220.995427 
L 171.174339 220.995427 
L 171.174339 221.165557 
L 171.76823 221.165557 
L 171.76823 220.742777 
L 172.362122 220.742777 
L 172.362122 220.953108 
L 173.549904 220.995427 
L 173.549904 219.09287 
L 174.143796 219.09287 
L 174.143796 219.287304 
L 174.737687 219.287304 
L 174.737687 221.122895 
L 175.331579 221.122895 
L 175.331579 221.72815 
L 175.92547 221.72815 
L 175.92547 222.037416 
L 176.519362 222.037416 
L 176.519362 221.553441 
L 177.113253 221.553441 
L 177.113253 221.037831 
L 178.301036 221.08032 
L 178.301036 221.165557 
L 178.894927 221.165557 
L 178.894927 221.33707 
L 179.488819 221.33707 
L 179.488819 221.037831 
L 180.676602 220.953108 
L 180.676602 220.124082 
L 181.270493 220.124082 
L 181.270493 219.681633 
L 181.864384 219.681633 
L 181.864384 220.246378 
L 182.458276 220.246378 
L 182.458276 220.534523 
L 183.052167 220.534523 
L 183.052167 220.742777 
L 183.646059 220.742777 
L 183.646059 220.287301 
L 184.23995 220.287301 
L 184.23995 220.493118 
L 185.427733 220.493118 
L 185.427733 220.868724 
L 186.021624 220.868724 
L 186.021624 220.493118 
L 186.615516 220.493118 
L 186.615516 220.328304 
L 188.991082 220.246378 
L 188.991082 220.042944 
L 189.584973 220.042944 
L 189.584973 219.801384 
L 190.178865 219.801384 
L 190.178865 218.977064 
L 190.772756 218.977064 
L 190.772756 218.220854 
L 191.366647 218.220854 
L 191.366647 217.9258 
L 191.960539 217.9258 
L 191.960539 216.13604 
L 192.55443 216.13604 
L 192.55443 215.441051 
L 193.148322 215.441051 
L 193.148322 214.42418 
L 193.742213 214.42418 
L 193.742213 215.182201 
L 194.929996 215.117982 
L 194.929996 214.768229 
L 196.117779 214.705256 
L 196.117779 214.611147 
L 196.71167 214.611147 
L 196.71167 213.87302 
L 197.305562 213.87302 
L 197.305562 212.469999 
L 197.899453 212.469999 
L 197.899453 211.529787 
L 198.493345 211.529787 
L 198.493345 207.661007 
L 199.087236 207.661007 
L 199.087236 207.303818 
L 199.681127 207.303818 
L 199.681127 208.722955 
L 200.86891 208.62846 
L 200.86891 208.001455 
L 201.462802 208.001455 
L 201.462802 206.036604 
L 202.056693 206.036604 
L 202.056693 203.878641 
L 202.650585 203.878641 
L 202.650585 203.616808 
L 203.244476 203.616808 
L 203.244476 203.084562 
L 203.838367 203.084562 
L 203.838367 201.92108 
L 204.432259 201.92108 
L 204.432259 197.220508 
L 205.02615 197.220508 
L 205.02615 205.359669 
L 205.620042 205.359669 
L 205.620042 205.767334 
L 206.213933 205.767334 
L 206.213933 204.296773 
L 206.807825 204.296773 
L 206.807825 204.010786 
L 207.401716 204.010786 
L 207.401716 205.542144 
L 207.995607 205.542144 
L 207.995607 205.07892 
L 208.589499 205.07892 
L 208.589499 203.766029 
L 209.18339 203.766029 
L 209.18339 204.010786 
L 209.777282 204.010786 
L 209.777282 203.376553 
L 210.371173 203.376553 
L 210.371173 202.477185 
L 210.965065 202.477185 
L 210.965065 201.36255 
L 211.558956 201.36255 
L 211.558956 201.750262 
L 212.152847 201.750262 
L 212.152847 202.024239 
L 212.746739 202.024239 
L 212.746739 201.64843 
L 213.34063 201.64843 
L 213.34063 201.446231 
L 213.934522 201.446231 
L 213.934522 200.640126 
L 214.528413 200.640126 
L 214.528413 201.446231 
L 215.122305 201.446231 
L 215.122305 202.162574 
L 216.310087 202.266924 
L 216.310087 202.459583 
L 217.49787 202.54774 
L 217.49787 202.689562 
L 218.091762 202.689562 
L 218.091762 203.230053 
L 218.685653 203.230053 
L 218.685653 204.880648 
L 219.279545 204.880648 
L 219.279545 203.954051 
L 219.873436 203.954051 
L 219.873436 205.019242 
L 220.467328 205.019242 
L 220.467328 204.335199 
L 221.061219 204.335199 
L 221.061219 204.201013 
L 221.65511 204.201013 
L 221.65511 203.954051 
L 222.249002 203.954051 
L 222.249002 203.747318 
L 222.842893 203.747318 
L 222.842893 202.760832 
L 223.436785 202.760832 
L 223.436785 202.618532 
L 224.030676 202.618532 
L 224.030676 201.64843 
L 225.218459 201.580815 
L 225.218459 201.3125 
L 225.81235 201.3125 
L 225.81235 201.163059 
L 226.406242 201.163059 
L 226.406242 199.662409 
L 227.000133 199.662409 
L 227.000133 199.910418 
L 227.594025 199.910418 
L 227.594025 199.493579 
L 228.781808 199.570153 
L 228.781808 200.114094 
L 229.375699 200.114094 
L 229.375699 199.755071 
L 229.96959 199.755071 
L 229.96959 200.035524 
L 231.157373 199.941625 
L 231.157373 199.848142 
L 231.751265 199.848142 
L 231.751265 200.082631 
L 232.345156 200.082631 
L 232.345156 199.894832 
L 232.939048 199.894832 
L 232.939048 199.43252 
L 233.532939 199.43252 
L 233.532939 198.728006 
L 234.720722 198.683825 
L 234.720722 197.002036 
L 235.314613 197.002036 
L 235.314613 196.176204 
L 235.908505 196.176204 
L 235.908505 193.923497 
L 236.502396 193.923497 
L 236.502396 194.230956 
L 237.096288 194.230956 
L 237.096288 191.898966 
L 237.690179 191.898966 
L 237.690179 190.386688 
L 238.28407 190.386688 
L 238.28407 190.646395 
L 238.877962 190.646395 
L 238.877962 189.511613 
L 239.471853 189.511613 
L 239.471853 187.845757 
L 240.065745 187.845757 
L 240.065745 187.557305 
L 240.659636 187.557305 
L 240.659636 185.032081 
L 241.253528 185.032081 
L 241.253528 183.480807 
L 241.847419 183.480807 
L 241.847419 182.749406 
L 243.035202 182.832516 
L 243.035202 180.872382 
L 243.629093 180.872382 
L 243.629093 180.316946 
L 244.222985 180.316946 
L 244.222985 176.013722 
L 244.816876 176.013722 
L 244.816876 173.672331 
L 245.410768 173.672331 
L 245.410768 174.879466 
L 246.004659 174.879466 
L 246.004659 173.685821 
L 246.598551 173.685821 
L 246.598551 171.459539 
L 247.192442 171.459539 
L 247.192442 165.162142 
L 247.786333 165.162142 
L 247.786333 164.663578 
L 248.380225 164.663578 
L 248.380225 160.218797 
L 248.974116 160.218797 
L 248.974116 159.357616 
L 249.568008 159.357616 
L 249.568008 154.339576 
L 250.161899 154.339576 
L 250.161899 150.300636 
L 250.755791 150.300636 
L 250.755791 144.512664 
L 251.349682 144.512664 
L 251.349682 153.02239 
L 251.943573 153.02239 
L 251.943573 157.71294 
L 252.537465 157.71294 
L 252.537465 159.040718 
L 253.131356 159.040718 
L 253.131356 152.587751 
L 253.725248 152.587751 
L 253.725248 150.241336 
L 254.319139 150.241336 
L 254.319139 151.071697 
L 254.913031 151.071697 
L 254.913031 149.941472 
L 255.506922 149.941472 
L 255.506922 157.028013 
L 256.100813 157.028013 
L 256.100813 154.585511 
L 256.694705 154.585511 
L 256.694705 155.069398 
L 257.288596 155.069398 
L 257.288596 154.64015 
L 257.882488 154.64015 
L 257.882488 155.32216 
L 258.476379 155.32216 
L 258.476379 153.290959 
L 259.070271 153.290959 
L 259.070271 153.514527 
L 259.664162 153.514527 
L 259.664162 152.720535 
L 260.258053 152.720535 
L 260.258053 151.617649 
L 260.851945 151.617649 
L 260.851945 151.808134 
L 261.445836 151.808134 
L 261.445836 152.292008 
L 262.039728 152.292008 
L 262.039728 153.618517 
L 262.633619 153.618517 
L 262.633619 155.416549 
L 263.227511 155.416549 
L 263.227511 156.463808 
L 263.821402 156.463808 
L 263.821402 156.905835 
L 264.415293 156.905835 
L 264.415293 157.734047 
L 265.009185 157.734047 
L 265.009185 156.151971 
L 265.603076 156.151971 
L 265.603076 156.021115 
L 266.196968 156.021115 
L 266.196968 156.907866 
L 266.790859 156.907866 
L 266.790859 158.872889 
L 267.384751 158.872889 
L 267.384751 160.650811 
L 267.978642 160.650811 
L 267.978642 162.409829 
L 268.572533 162.409829 
L 268.572533 163.781878 
L 269.166425 163.781878 
L 269.166425 160.433698 
L 269.760316 160.433698 
L 269.760316 158.139137 
L 270.354208 158.139137 
L 270.354208 158.344636 
L 270.948099 158.344636 
L 270.948099 159.471958 
L 272.135882 159.474251 
L 272.135882 158.355508 
L 272.729774 158.355508 
L 272.729774 157.988987 
L 273.323665 157.988987 
L 273.323665 156.443934 
L 273.917556 156.443934 
L 273.917556 156.693712 
L 274.511448 156.693712 
L 274.511448 156.372543 
L 275.105339 156.372543 
L 275.105339 157.130371 
L 275.699231 157.130371 
L 275.699231 156.356711 
L 276.293122 156.356711 
L 276.293122 158.121922 
L 276.887014 158.121922 
L 276.887014 157.861132 
L 277.480905 157.861132 
L 277.480905 155.619973 
L 278.074796 155.619973 
L 278.074796 155.887197 
L 278.668688 155.887197 
L 278.668688 154.271368 
L 279.262579 154.271368 
L 279.262579 153.032527 
L 279.856471 153.032527 
L 279.856471 152.163507 
L 280.450362 152.163507 
L 280.450362 153.409327 
L 281.044254 153.409327 
L 281.044254 154.189094 
L 281.638145 154.189094 
L 281.638145 152.747192 
L 282.232036 152.747192 
L 282.232036 153.166449 
L 282.825928 153.166449 
L 282.825928 150.743199 
L 283.419819 150.743199 
L 283.419819 153.338913 
L 284.607602 153.405887 
L 284.607602 153.064658 
L 285.201494 153.064658 
L 285.201494 152.668982 
L 285.795385 152.668982 
L 285.795385 156.91599 
L 286.389276 156.91599 
L 286.389276 153.656775 
L 286.983168 153.656775 
L 286.983168 153.154548 
L 287.577059 153.154548 
L 287.577059 152.602647 
L 288.170951 152.602647 
L 288.170951 151.355389 
L 288.764842 151.355389 
L 288.764842 150.029225 
L 289.358734 150.029225 
L 289.358734 144.60766 
L 289.952625 144.60766 
L 289.952625 142.703606 
L 290.546516 142.703606 
L 290.546516 145.364631 
L 291.140408 145.364631 
L 291.140408 141.466746 
L 291.734299 141.466746 
L 291.734299 142.776226 
L 292.328191 142.776226 
L 292.328191 140.146486 
L 292.922082 140.146486 
L 292.922082 135.177746 
L 293.515974 135.177746 
L 293.515974 132.654209 
L 294.109865 132.654209 
L 294.109865 128.840139 
L 294.703756 128.840139 
L 294.703756 126.589775 
L 295.297648 126.589775 
L 295.297648 121.864979 
L 295.891539 121.864979 
L 295.891539 113.97733 
L 296.485431 113.97733 
L 296.485431 113.464571 
L 297.079322 113.464571 
L 297.079322 108.842256 
L 297.673214 108.842256 
L 297.673214 110.108754 
L 298.267105 110.108754 
L 298.267105 106.430906 
L 298.860997 106.430906 
L 298.860997 116.48468 
L 299.454888 116.48468 
L 299.454888 109.590538 
L 300.048779 109.590538 
L 300.048779 111.714879 
L 300.642671 111.714879 
L 300.642671 116.965587 
L 301.236562 116.965587 
L 301.236562 117.109776 
L 301.830454 117.109776 
L 301.830454 119.42364 
L 302.424345 119.42364 
L 302.424345 117.303988 
L 303.018237 117.303988 
L 303.018237 116.214761 
L 303.612128 116.214761 
L 303.612128 115.719048 
L 304.206019 115.719048 
L 304.206019 113.651086 
L 304.799911 113.651086 
L 304.799911 110.995712 
L 305.393802 110.995712 
L 305.393802 113.163202 
L 305.987694 113.163202 
L 305.987694 112.714571 
L 307.175477 112.76988 
L 307.175477 113.55177 
L 307.769368 113.55177 
L 307.769368 113.201534 
L 308.363259 113.201534 
L 308.363259 114.378629 
L 308.957151 114.378629 
L 308.957151 115.275032 
L 309.551042 115.275032 
L 309.551042 113.845066 
L 310.144934 113.845066 
L 310.144934 113.47027 
L 310.738825 113.47027 
L 310.738825 114.352141 
L 311.332717 114.352141 
L 311.332717 117.248759 
L 311.926608 117.248759 
L 311.926608 117.426129 
L 312.520499 117.426129 
L 312.520499 117.576973 
L 313.114391 117.576973 
L 313.114391 118.886066 
L 313.708282 118.886066 
L 313.708282 121.256764 
L 314.302174 121.256764 
L 314.302174 119.52902 
L 314.896065 119.52902 
L 314.896065 120.440536 
L 315.489957 120.440536 
L 315.489957 121.08956 
L 316.083848 121.08956 
L 316.083848 117.483078 
L 316.677739 117.483078 
L 316.677739 118.818195 
L 317.865522 118.907174 
L 317.865522 118.519234 
L 318.459414 118.519234 
L 318.459414 118.718292 
L 319.053305 118.718292 
L 319.053305 119.523842 
L 319.647197 119.523842 
L 319.647197 121.256389 
L 320.241088 121.256389 
L 320.241088 120.419638 
L 320.834979 120.419638 
L 320.834979 123.777141 
L 321.428871 123.777141 
L 321.428871 125.6347 
L 322.022762 125.6347 
L 322.022762 126.043033 
L 322.616654 126.043033 
L 322.616654 125.611196 
L 323.210545 125.611196 
L 323.210545 126.364696 
L 323.804437 126.364696 
L 323.804437 127.269819 
L 324.398328 127.269819 
L 324.398328 122.811499 
L 324.99222 122.811499 
L 324.99222 124.528906 
L 325.586111 124.528906 
L 325.586111 123.828719 
L 326.180002 123.828719 
L 326.180002 123.669739 
L 326.773894 123.669739 
L 326.773894 126.514641 
L 327.367785 126.514641 
L 327.367785 125.887989 
L 327.961677 125.887989 
L 327.961677 126.457028 
L 328.555568 126.457028 
L 328.555568 127.039872 
L 329.14946 127.039872 
L 329.14946 126.029873 
L 329.743351 126.029873 
L 329.743351 126.339888 
L 330.337242 126.339888 
L 330.337242 126.146245 
L 331.525025 126.129244 
L 331.525025 124.016221 
L 332.118917 124.016221 
L 332.118917 122.614371 
L 332.712808 122.614371 
L 332.712808 120.896394 
L 333.3067 120.896394 
L 333.3067 119.178083 
L 333.900591 119.178083 
L 333.900591 117.839511 
L 335.088374 117.856088 
L 335.088374 117.995919 
L 335.682265 117.995919 
L 335.682265 119.053836 
L 336.276157 119.053836 
L 336.276157 120.911871 
L 336.870048 120.911871 
L 336.870048 119.634582 
L 337.46394 119.634582 
L 337.46394 120.144501 
L 338.057831 120.144501 
L 338.057831 120.331232 
L 338.651722 120.331232 
L 338.651722 120.726163 
L 339.245614 120.726163 
L 339.245614 119.914355 
L 339.839505 119.914355 
L 339.839505 118.209526 
L 340.433397 118.209526 
L 340.433397 118.851268 
L 341.027288 118.851268 
L 341.027288 119.053836 
L 341.62118 119.053836 
L 341.62118 118.751208 
L 342.215071 118.751208 
L 342.215071 119.181139 
L 342.808962 119.181139 
L 342.808962 119.025838 
L 343.996745 118.985424 
L 343.996745 119.207644 
L 344.590637 119.207644 
L 344.590637 120.058654 
L 345.184528 120.058654 
L 345.184528 120.430085 
L 345.77842 120.430085 
L 345.77842 120.063611 
L 346.372311 120.063611 
L 346.372311 120.322269 
L 346.966202 120.322269 
L 346.966202 120.447387 
L 347.560094 120.447387 
L 347.560094 120.242124 
L 348.153985 120.242124 
L 348.153985 121.750362 
L 348.747877 121.750362 
L 348.747877 122.776033 
L 349.341768 122.776033 
L 349.341768 124.186453 
L 349.93566 124.186453 
L 349.93566 123.108439 
L 350.529551 123.108439 
L 350.529551 123.694961 
L 351.123442 123.694961 
L 351.123442 123.483195 
L 351.717334 123.483195 
L 351.717334 124.671159 
L 352.311225 124.671159 
L 352.311225 124.864558 
L 352.905117 124.864558 
L 352.905117 124.639465 
L 353.499008 124.639465 
L 353.499008 124.915748 
L 354.686791 124.859223 
L 354.686791 125.028358 
L 355.280683 125.028358 
L 355.280683 127.160976 
L 355.874574 127.160976 
L 355.874574 128.407127 
L 356.468465 128.407127 
L 356.468465 127.254378 
L 357.062357 127.254378 
L 357.062357 128.447132 
L 357.656248 128.447132 
L 357.656248 128.992061 
L 358.25014 128.992061 
L 358.25014 130.754934 
L 358.844031 130.754934 
L 358.844031 132.679308 
L 359.437923 132.679308 
L 359.437923 130.479883 
L 360.031814 130.479883 
L 360.031814 129.505408 
L 360.625705 129.505408 
L 360.625705 128.7416 
L 361.219597 128.7416 
L 361.219597 128.947772 
L 361.813488 128.947772 
L 361.813488 129.225294 
L 362.40738 129.225294 
L 362.40738 130.779047 
L 363.001271 130.779047 
L 363.001271 131.23049 
L 363.595163 131.23049 
L 363.595163 131.569876 
L 364.189054 131.569876 
L 364.189054 132.889632 
L 364.782945 132.889632 
L 364.782945 131.981364 
L 365.376837 131.981364 
L 365.376837 131.469918 
L 365.970728 131.469918 
L 365.970728 130.146033 
L 366.56462 130.146033 
L 366.56462 128.514682 
L 367.158511 128.514682 
L 367.158511 129.063008 
L 367.752403 129.063008 
L 367.752403 130.898254 
L 368.346294 130.898254 
L 368.346294 130.277216 
L 369.534077 130.292161 
L 369.534077 129.79603 
L 370.127968 129.79603 
L 370.127968 129.57088 
L 370.72186 129.57088 
L 370.72186 129.773014 
L 371.315751 129.773014 
L 371.315751 130.515885 
L 371.909643 130.515885 
L 371.909643 131.346842 
L 372.503534 131.346842 
L 372.503534 130.81969 
L 373.097425 130.81969 
L 373.097425 133.08697 
L 373.691317 133.08697 
L 373.691317 132.42902 
L 374.285208 132.42902 
L 374.285208 132.086286 
L 374.8791 132.086286 
L 374.8791 132.529802 
L 375.472991 132.529802 
L 375.472991 133.614779 
L 376.660774 133.52008 
L 376.660774 137.299829 
L 377.254665 137.299829 
L 377.254665 134.678447 
L 377.848557 134.678447 
L 377.848557 136.297939 
L 378.442448 136.297939 
L 378.442448 140.888738 
L 379.03634 140.888738 
L 379.03634 142.249735 
L 379.630231 142.249735 
L 379.630231 141.46577 
L 380.224123 141.46577 
L 380.224123 139.822388 
L 380.818014 139.822388 
L 380.818014 138.021457 
L 381.411906 138.021457 
L 381.411906 139.580755 
L 382.005797 139.580755 
L 382.005797 141.151694 
L 382.599688 141.151694 
L 382.599688 140.369677 
L 383.19358 140.369677 
L 383.19358 140.854556 
L 383.787471 140.854556 
L 383.787471 141.086367 
L 384.381363 141.086367 
L 384.381363 140.857402 
L 384.975254 140.857402 
L 384.975254 139.761945 
L 385.569146 139.761945 
L 385.569146 139.470295 
L 386.163037 139.470295 
L 386.163037 138.773804 
L 386.756928 138.773804 
L 386.756928 139.249337 
L 387.35082 139.249337 
L 387.35082 138.205579 
L 387.944711 138.205579 
L 387.944711 136.305585 
L 388.538603 136.305585 
L 388.538603 136.517707 
L 389.132494 136.517707 
L 389.132494 136.372219 
L 389.726386 136.372219 
L 389.726386 134.779927 
L 390.320277 134.779927 
L 390.320277 135.826995 
L 390.914168 135.826995 
L 390.914168 135.657237 
L 391.50806 135.657237 
L 391.50806 137.385776 
L 392.101951 137.385776 
L 392.101951 137.074977 
L 392.695843 137.074977 
L 392.695843 138.447958 
L 393.289734 138.447958 
L 393.289734 139.039373 
L 393.883626 139.039373 
L 393.883626 138.681168 
L 394.477517 138.681168 
L 394.477517 138.075444 
L 395.6653 138.056325 
L 395.6653 139.598625 
L 396.259191 139.598625 
L 396.259191 140.792978 
L 396.853083 140.792978 
L 396.853083 140.372459 
L 397.446974 140.372459 
L 397.446974 140.830851 
L 398.040866 140.830851 
L 398.040866 139.815162 
L 398.634757 139.815162 
L 398.634757 140.484961 
L 399.82254 140.586822 
L 399.82254 140.053116 
L 400.416431 140.053116 
L 400.416431 139.398451 
L 402.198106 139.322439 
L 402.198106 139.601307 
L 403.385888 139.542384 
L 403.385888 140.013878 
L 403.97978 140.013878 
L 403.97978 139.349807 
L 404.573671 139.349807 
L 404.573671 139.635307 
L 405.761454 139.55933 
L 405.761454 140.294709 
L 406.355346 140.294709 
L 406.355346 140.568095 
L 407.543129 140.606504 
L 407.543129 140.244879 
L 408.730911 140.17862 
L 408.730911 139.598625 
L 409.324803 139.598625 
L 409.324803 138.530223 
L 409.918694 138.530223 
L 409.918694 138.934303 
L 410.512586 138.934303 
L 410.512586 139.22649 
L 411.106477 139.22649 
L 411.106477 138.281024 
L 411.700369 138.281024 
L 411.700369 137.359231 
L 412.29426 137.359231 
L 412.29426 137.872672 
L 412.888151 137.872672 
L 412.888151 136.874482 
L 414.075934 136.837591 
L 414.075934 133.8075 
L 414.669826 133.8075 
L 414.669826 135.569914 
L 415.263717 135.569914 
L 415.263717 136.23916 
L 416.4515 136.237635 
L 416.4515 135.324686 
L 417.045391 135.324686 
L 417.045391 134.967848 
L 417.639283 134.967848 
L 417.639283 135.364872 
L 418.233174 135.364872 
L 418.233174 135.82251 
L 419.420957 135.916893 
L 419.420957 137.37612 
L 420.014849 137.37612 
L 420.014849 136.682881 
L 420.60874 136.682881 
L 420.60874 137.079736 
L 421.202631 137.079736 
L 421.202631 137.82824 
L 421.796523 137.82824 
L 421.796523 139.660394 
L 422.390414 139.660394 
L 422.390414 140.313195 
L 422.984306 140.313195 
L 422.984306 140.601816 
L 423.578197 140.601816 
L 423.578197 140.175864 
L 424.172089 140.175864 
L 424.172089 140.328921 
L 424.76598 140.328921 
L 424.76598 140.075049 
L 425.359871 140.075049 
L 425.359871 139.20279 
L 425.953763 139.20279 
L 425.953763 139.348923 
L 426.547654 139.348923 
L 426.547654 140.141899 
L 427.141546 140.141899 
L 427.141546 140.295633 
L 427.735437 140.295633 
L 427.735437 140.118981 
L 428.92322 140.103411 
L 428.92322 139.668464 
L 429.517111 139.668464 
L 429.517111 139.319792 
L 431.298786 139.385173 
L 431.298786 138.981129 
L 431.892677 138.981129 
L 431.892677 138.747172 
L 432.486569 138.747172 
L 432.486569 138.38457 
L 433.08046 138.38457 
L 433.08046 137.372902 
L 434.268243 137.266188 
L 434.268243 136.422142 
L 434.862134 136.422142 
L 434.862134 135.782189 
L 435.456026 135.782189 
L 435.456026 134.202457 
L 436.049917 134.202457 
L 436.049917 133.832649 
L 436.643809 133.832649 
L 436.643809 128.231686 
L 437.2377 128.231686 
L 437.2377 129.903019 
L 437.831592 129.903019 
L 437.831592 129.515382 
L 438.425483 129.515382 
L 438.425483 131.84599 
L 439.019374 131.84599 
L 439.019374 133.243137 
L 439.613266 133.243137 
L 439.613266 132.29328 
L 440.207157 132.29328 
L 440.207157 132.763186 
L 440.801049 132.763186 
L 440.801049 133.198871 
L 441.39494 133.198871 
L 441.39494 130.807902 
L 441.988832 130.807902 
L 441.988832 129.701879 
L 442.582723 129.701879 
L 442.582723 130.604408 
L 443.176614 130.604408 
L 443.176614 129.148352 
L 443.770506 129.148352 
L 443.770506 127.615457 
L 444.364397 127.615457 
L 444.364397 126.640012 
L 444.958289 126.640012 
L 444.958289 125.337533 
L 446.146072 125.382139 
L 446.146072 126.536287 
L 446.739963 126.536287 
L 446.739963 125.70352 
L 447.333854 125.70352 
L 447.333854 127.31721 
L 447.927746 127.31721 
L 447.927746 127.029031 
L 448.521637 127.029031 
L 448.521637 126.807041 
L 449.70942 126.823134 
L 449.70942 125.85954 
L 450.303312 125.85954 
L 450.303312 126.077852 
L 450.897203 126.077852 
L 450.897203 126.964104 
L 451.491094 126.964104 
L 451.491094 129.540893 
L 452.084986 129.540893 
L 452.084986 127.420841 
L 452.678877 127.420841 
L 452.678877 129.269074 
L 453.272769 129.269074 
L 453.272769 128.912192 
L 453.86666 128.912192 
L 453.86666 129.651055 
L 454.460552 129.651055 
L 454.460552 129.999208 
L 455.054443 129.999208 
L 455.054443 129.110258 
L 455.648334 129.110258 
L 455.648334 129.829195 
L 456.242226 129.829195 
L 456.242226 129.597571 
L 456.836117 129.597571 
L 456.836117 129.008287 
L 457.430009 129.008287 
L 457.430009 128.101704 
L 458.0239 128.101704 
L 458.0239 127.439419 
L 458.617792 127.439419 
L 458.617792 126.612946 
L 459.211683 126.612946 
L 459.211683 127.265335 
L 459.805575 127.265335 
L 459.805575 126.849494 
L 460.399466 126.849494 
L 460.399466 127.313215 
L 460.993357 127.313215 
L 460.993357 128.51151 
L 461.587249 128.51151 
L 461.587249 127.836439 
L 462.18114 127.836439 
L 462.18114 127.43289 
L 462.775032 127.43289 
L 462.775032 127.691572 
L 463.368923 127.691572 
L 463.368923 127.514396 
L 463.962815 127.514396 
L 463.962815 127.85385 
L 464.556706 127.85385 
L 464.556706 127.54113 
L 468.120055 127.440926 
L 468.120055 127.400776 
L 468.713946 127.400776 
L 468.713946 127.24492 
L 469.307837 127.24492 
L 469.307837 126.913579 
L 469.901729 126.913579 
L 469.901729 126.652107 
L 470.49562 126.652107 
L 470.49562 126.091042 
L 471.089512 126.091042 
L 471.089512 125.404933 
L 471.683403 125.404933 
L 471.683403 125.983879 
L 472.277295 125.983879 
L 472.277295 125.842768 
L 472.871186 125.842768 
L 472.871186 126.131605 
L 473.465077 126.131605 
L 473.465077 125.564266 
L 474.058969 125.564266 
L 474.058969 125.946407 
L 474.65286 125.946407 
L 474.65286 125.711849 
L 475.840643 125.79625 
L 475.840643 126.647268 
L 476.434535 126.647268 
L 476.434535 126.530513 
L 477.028426 126.530513 
L 477.028426 126.043973 
L 477.622317 126.043973 
L 477.622317 122.665183 
L 478.216209 122.665183 
L 478.216209 122.452749 
L 478.8101 122.452749 
L 478.8101 121.074695 
L 479.403992 121.074695 
L 479.403992 120.494317 
L 479.997883 120.494317 
L 479.997883 120.836804 
L 480.591775 120.836804 
L 480.591775 117.717178 
L 481.185666 117.717178 
L 481.185666 116.847293 
L 481.779557 116.847293 
L 481.779557 115.151511 
L 482.373449 115.151511 
L 482.373449 117.761263 
L 483.561232 117.744125 
L 483.561232 118.165466 
L 484.155123 118.165466 
L 484.155123 117.650749 
L 484.749015 117.650749 
L 484.749015 118.000414 
L 485.342906 118.000414 
L 485.342906 117.468044 
L 485.936797 117.468044 
L 485.936797 118.309651 
L 486.530689 118.309651 
L 486.530689 117.759993 
L 487.718472 117.801623 
L 487.718472 117.477439 
L 488.312363 117.477439 
L 488.312363 117.775873 
L 489.500146 117.856088 
L 489.500146 118.051854 
L 490.687929 118.074077 
L 490.687929 122.501583 
L 491.28182 122.501583 
L 491.28182 120.895657 
L 491.875712 120.895657 
L 491.875712 120.208225 
L 492.469603 120.208225 
L 492.469603 120.411717 
L 493.063495 120.411717 
L 493.063495 121.094765 
L 493.657386 121.094765 
L 493.657386 120.962064 
L 494.251278 120.962064 
L 494.251278 120.719587 
L 494.845169 120.719587 
L 494.845169 120.557296 
L 495.43906 120.557296 
L 495.43906 120.710457 
L 496.032952 120.710457 
L 496.032952 120.940643 
L 497.220735 120.959108 
L 497.220735 119.775577 
L 497.814626 119.775577 
L 497.814626 119.381772 
L 498.408518 119.381772 
L 498.408518 119.166202 
L 499.002409 119.166202 
L 499.002409 119.60615 
L 500.784083 119.611695 
L 500.784083 120.123184 
L 501.377975 120.123184 
L 501.377975 119.949897 
L 501.971866 119.949897 
L 501.971866 119.77907 
L 502.565758 119.77907 
L 502.565758 119.462493 
L 503.159649 119.462493 
L 503.159649 119.663053 
L 503.75354 119.663053 
L 503.75354 119.402009 
L 504.941323 119.40098 
L 504.941323 118.750542 
L 505.535215 118.750542 
L 505.535215 118.586478 
L 506.129106 118.586478 
L 506.129106 118.961213 
L 506.722998 118.961213 
L 506.722998 118.120206 
L 507.91078 118.178416 
L 507.91078 117.091007 
L 508.504672 117.091007 
L 508.504672 116.752346 
L 509.098563 116.752346 
L 509.098563 117.159396 
L 509.692455 117.159396 
L 509.692455 116.363992 
L 510.286346 116.363992 
L 510.286346 116.023846 
L 510.880238 116.023846 
L 510.880238 116.593442 
L 511.474129 116.593442 
L 511.474129 116.311463 
L 512.06802 116.311463 
L 512.06802 115.23528 
L 512.661912 115.23528 
L 512.661912 115.576299 
L 513.849695 115.614405 
L 513.849695 115.854647 
L 514.443586 115.854647 
L 514.443586 115.431381 
L 515.037478 115.431381 
L 515.037478 114.844868 
L 516.225261 114.955203 
L 516.225261 114.676601 
L 516.819152 114.676601 
L 516.819152 114.433603 
L 518.006935 114.490896 
L 518.006935 114.145974 
L 518.600826 114.145974 
L 518.600826 112.942494 
L 519.194718 112.942494 
L 519.194718 111.534489 
L 519.788609 111.534489 
L 519.788609 110.660872 
L 520.382501 110.660872 
L 520.382501 110.040166 
L 520.976392 110.040166 
L 520.976392 108.856407 
L 521.570283 108.856407 
L 521.570283 109.145017 
L 522.164175 109.145017 
L 522.164175 111.115853 
L 522.758066 111.115853 
L 522.758066 114.354302 
L 523.351958 114.354302 
L 523.351958 113.335731 
L 523.945849 113.335731 
L 523.945849 111.206177 
L 524.539741 111.206177 
L 524.539741 111.462763 
L 525.133632 111.462763 
L 525.133632 110.897338 
L 525.727523 110.897338 
L 525.727523 111.010462 
L 526.915306 111.076501 
L 526.915306 109.490336 
L 527.509198 109.490336 
L 527.509198 108.430864 
L 528.103089 108.430864 
L 528.103089 108.051373 
L 528.696981 108.051373 
L 528.696981 109.188535 
L 529.884763 109.112332 
L 529.884763 108.407824 
L 530.478655 108.407824 
L 530.478655 108.090883 
L 531.072546 108.090883 
L 531.072546 106.559144 
L 531.666438 106.559144 
L 531.666438 106.18243 
L 532.260329 106.18243 
L 532.260329 105.452143 
L 532.854221 105.452143 
L 532.854221 103.81482 
L 533.448112 103.81482 
L 533.448112 103.938117 
L 534.042003 103.938117 
L 534.042003 105.430897 
L 534.635895 105.430897 
L 534.635895 104.810292 
L 535.229786 104.810292 
L 535.229786 104.31239 
L 535.823678 104.31239 
L 535.823678 109.830498 
L 536.417569 109.830498 
L 536.417569 106.879115 
L 537.011461 106.879115 
L 537.011461 110.715591 
L 537.605352 110.715591 
L 537.605352 108.289147 
L 538.199243 108.289147 
L 538.199243 108.4172 
L 538.793135 108.4172 
L 538.793135 107.514258 
L 539.387026 107.514258 
L 539.387026 106.493532 
L 539.980918 106.493532 
L 539.980918 105.574016 
L 540.574809 105.574016 
L 540.574809 104.958418 
L 541.168701 104.958418 
L 541.168701 105.818993 
L 541.762592 105.818993 
L 541.762592 105.700181 
L 542.356484 105.700181 
L 542.356484 104.657057 
L 543.544266 104.585359 
L 543.544266 103.798108 
L 544.138158 103.798108 
L 544.138158 103.073969 
L 544.732049 103.073969 
L 544.732049 101.334807 
L 545.325941 101.334807 
L 545.325941 100.32188 
L 545.919832 100.32188 
L 545.919832 98.559223 
L 546.513724 98.559223 
L 546.513724 96.400521 
L 547.107615 96.400521 
L 547.107615 96.973403 
L 548.295398 96.926286 
L 548.295398 94.421969 
L 548.889289 94.421969 
L 548.889289 91.971085 
L 549.483181 91.971085 
L 549.483181 91.752502 
L 550.670964 91.658328 
L 550.670964 90.581649 
L 551.264855 90.581649 
L 551.264855 89.559848 
L 551.858746 89.559848 
L 551.858746 88.317015 
L 552.452638 88.317015 
L 552.452638 86.686475 
L 553.046529 86.686475 
L 553.046529 88.137176 
L 553.640421 88.137176 
L 553.640421 89.994551 
L 554.234312 89.994551 
L 554.234312 88.980174 
L 554.828204 88.980174 
L 554.828204 88.078943 
L 555.422095 88.078943 
L 555.422095 89.790451 
L 556.015986 89.790451 
L 556.015986 89.321264 
L 556.609878 89.321264 
L 556.609878 90.482701 
L 557.203769 90.482701 
L 557.203769 88.989182 
L 557.797661 88.989182 
L 557.797661 89.783454 
L 558.391552 89.783454 
L 558.391552 91.319569 
L 559.579335 91.216476 
L 559.579335 95.475749 
L 560.173226 95.475749 
L 560.173226 91.888129 
L 560.767118 91.888129 
L 560.767118 87.225464 
L 561.361009 87.225464 
L 561.361009 89.271845 
L 561.954901 89.271845 
L 561.954901 87.531626 
L 562.548792 87.531626 
L 562.548792 86.948131 
L 563.142684 86.948131 
L 563.142684 87.492271 
L 563.736575 87.492271 
L 563.736575 84.53268 
L 564.330466 84.53268 
L 564.330466 83.694718 
L 564.924358 83.694718 
L 564.924358 80.59746 
L 565.518249 80.59746 
L 565.518249 78.963954 
L 566.112141 78.963954 
L 566.112141 79.347247 
L 566.706032 79.347247 
L 566.706032 79.964866 
L 567.299924 79.964866 
L 567.299924 78.211415 
L 568.487707 78.17599 
L 568.487707 77.024284 
L 569.675489 77.010247 
L 569.675489 77.953665 
L 570.269381 77.953665 
L 570.269381 78.306644 
L 570.863272 78.306644 
L 570.863272 78.870189 
L 571.457164 78.870189 
L 571.457164 84.491779 
L 572.051055 84.491779 
L 572.051055 81.659829 
L 572.644947 81.659829 
L 572.644947 80.456367 
L 573.238838 80.456367 
L 573.238838 81.099077 
L 573.832729 81.099077 
L 573.832729 80.529513 
L 574.426621 80.529513 
L 574.426621 79.04334 
L 575.020512 79.04334 
L 575.020512 77.910171 
L 575.614404 77.910171 
L 575.614404 78.275749 
L 576.208295 78.275749 
L 576.208295 76.918025 
L 576.802187 76.918025 
L 576.802187 75.948916 
L 577.396078 75.948916 
L 577.396078 71.959561 
L 577.989969 71.959561 
L 577.989969 72.814294 
L 578.583861 72.814294 
L 578.583861 71.386426 
L 579.177752 71.386426 
L 579.177752 71.691149 
L 580.365535 71.729689 
L 580.365535 70.864174 
L 580.959427 70.864174 
L 580.959427 68.847759 
L 581.553318 68.847759 
L 581.553318 67.011613 
L 582.147209 67.011613 
L 582.147209 67.70257 
L 582.741101 67.70257 
L 582.741101 69.426647 
L 583.334992 69.426647 
L 583.334992 69.670799 
L 583.928884 69.670799 
L 583.928884 65.618681 
L 584.522775 65.618681 
L 584.522775 65.139052 
L 585.116667 65.139052 
L 585.116667 64.654585 
L 585.710558 64.654585 
L 585.710558 63.334023 
L 586.304449 63.334023 
L 586.304449 60.733897 
L 586.898341 60.733897 
L 586.898341 58.783297 
L 587.492232 58.783297 
L 587.492232 57.447231 
L 588.086124 57.447231 
L 588.086124 49.541546 
L 588.680015 49.541546 
L 588.680015 51.911888 
L 589.273907 51.911888 
L 589.273907 50.317058 
L 589.867798 50.317058 
L 589.867798 46.713271 
L 590.461689 46.713271 
L 590.461689 48.898264 
L 591.055581 48.898264 
L 591.055581 53.803441 
L 592.243364 53.858133 
L 592.243364 53.144067 
L 592.837255 53.144067 
L 592.837255 53.77377 
L 593.431147 53.77377 
L 593.431147 51.953522 
L 594.025038 51.953522 
L 594.025038 49.175554 
L 594.61893 49.175554 
L 594.61893 52.815068 
L 595.212821 52.815068 
L 595.212821 53.781126 
L 595.806712 53.781126 
L 595.806712 54.146887 
L 596.400604 54.146887 
L 596.400604 58.219025 
L 596.994495 58.219025 
L 596.994495 57.589304 
L 597.588387 57.589304 
L 597.588387 57.812907 
L 598.77617 57.740182 
L 598.77617 60.388954 
L 599.370061 60.388954 
L 599.370061 63.133064 
L 599.963952 63.133064 
L 599.963952 68.312581 
L 600.557844 68.312581 
L 600.557844 64.633184 
L 601.151735 64.633184 
L 601.151735 65.091147 
L 601.745627 65.091147 
L 601.745627 61.707478 
L 602.339518 61.707478 
L 602.339518 58.387694 
L 602.93341 58.387694 
L 602.93341 58.085114 
L 603.527301 58.085114 
L 603.527301 60.20401 
L 604.121192 60.20401 
L 604.121192 59.898932 
L 604.715084 59.898932 
L 604.715084 58.684176 
L 605.308975 58.684176 
L 605.308975 57.583057 
L 605.902867 57.583057 
L 605.902867 60.730792 
L 606.496758 60.730792 
L 606.496758 63.313415 
L 607.09065 63.313415 
L 607.09065 62.428146 
L 607.684541 62.428146 
L 607.684541 64.498494 
L 608.278432 64.498494 
L 608.278432 63.730251 
L 608.872324 63.730251 
L 608.872324 63.438767 
L 609.466215 63.438767 
L 609.466215 64.095419 
L 610.060107 64.095419 
L 610.060107 65.400403 
L 610.653998 65.400403 
L 610.653998 68.275755 
L 611.24789 68.275755 
L 611.24789 66.839079 
L 611.841781 66.839079 
L 611.841781 69.217473 
L 612.435672 69.217473 
L 612.435672 68.746676 
L 613.029564 68.746676 
L 613.029564 65.424695 
L 613.623455 65.424695 
L 613.623455 64.320748 
L 614.217347 64.320748 
L 614.217347 64.810781 
L 614.811238 64.810781 
L 614.811238 62.948312 
L 615.40513 62.948312 
L 615.40513 61.296193 
L 615.999021 61.296193 
L 615.999021 62.953155 
L 616.592912 62.953155 
L 616.592912 62.230846 
L 617.186804 62.230846 
L 617.186804 61.089181 
L 617.780695 61.089181 
L 617.780695 61.354528 
L 618.374587 61.354528 
L 618.374587 62.069764 
L 618.968478 62.069764 
L 618.968478 64.081555 
L 620.156261 64.06277 
L 620.156261 64.648541 
L 620.750152 64.648541 
L 620.750152 64.248946 
L 621.344044 64.248946 
L 621.344044 66.416393 
L 621.937935 66.416393 
L 621.937935 67.073077 
L 622.531827 67.073077 
L 622.531827 66.952326 
L 623.125718 66.952326 
L 623.125718 66.248999 
L 624.907393 66.308749 
L 624.907393 68.453631 
L 625.501284 68.453631 
L 625.501284 69.208795 
L 626.095175 69.208795 
L 626.095175 69.826794 
L 626.689067 69.826794 
L 626.689067 68.820126 
L 627.282958 68.820126 
L 627.282958 70.747714 
L 627.87685 70.747714 
L 627.87685 70.998779 
L 628.470741 70.998779 
L 628.470741 70.567898 
L 629.064633 70.567898 
L 629.064633 69.24369 
L 629.658524 69.24369 
L 629.658524 69.47072 
L 630.252415 69.47072 
L 630.252415 68.935236 
L 630.846307 68.935236 
L 630.846307 69.966712 
L 631.440198 69.966712 
L 631.440198 70.481431 
L 632.03409 70.481431 
L 632.03409 67.139072 
L 633.221873 67.100583 
L 633.221873 66.034742 
L 633.815764 66.034742 
L 633.815764 65.429079 
L 634.409655 65.429079 
L 634.409655 64.695116 
L 635.003547 64.695116 
L 635.003547 66.330478 
L 635.597438 66.330478 
L 635.597438 68.052767 
L 636.19133 68.052767 
L 636.19133 68.953472 
L 636.785221 68.953472 
L 636.785221 70.855684 
L 637.379113 70.855684 
L 637.379113 70.470327 
L 637.973004 70.470327 
L 637.973004 70.266767 
L 638.566895 70.266767 
L 638.566895 69.693715 
L 639.160787 69.693715 
L 639.160787 70.127474 
L 639.754678 70.127474 
L 639.754678 68.890638 
L 640.34857 68.890638 
L 640.34857 67.852399 
L 640.942461 67.852399 
L 640.942461 68.030213 
L 641.536353 68.030213 
L 641.536353 67.302614 
L 642.130244 67.302614 
L 642.130244 69.646253 
L 642.724135 69.646253 
L 642.724135 70.507983 
L 643.318027 70.507983 
L 643.318027 70.222402 
L 643.911918 70.222402 
L 643.911918 69.577573 
L 644.50581 69.577573 
L 644.50581 70.167948 
L 645.099701 70.167948 
L 645.099701 68.834827 
L 645.693593 68.834827 
L 645.693593 69.380999 
L 646.287484 69.380999 
L 646.287484 69.054669 
L 646.881375 69.054669 
L 646.881375 69.292838 
L 647.475267 69.292838 
L 647.475267 69.702986 
L 648.069158 69.702986 
L 648.069158 69.412522 
L 648.66305 69.412522 
L 648.66305 69.242385 
L 649.256941 69.242385 
L 649.256941 70.487643 
L 649.850833 70.487643 
L 649.850833 69.330686 
L 650.444724 69.330686 
L 650.444724 69.618949 
L 652.226398 69.683343 
L 652.226398 69.789451 
L 652.82029 69.789451 
L 652.82029 70.304028 
L 653.414181 70.304028 
L 653.414181 70.008793 
L 654.008073 70.008793 
L 654.008073 69.853091 
L 655.789747 69.949093 
L 655.789747 72.211709 
L 656.383638 72.211709 
L 656.383638 72.898247 
L 656.97753 72.898247 
L 656.97753 77.445264 
L 657.571421 77.445264 
L 657.571421 78.108373 
L 658.165313 78.108373 
L 658.165313 81.011416 
L 658.759204 81.011416 
L 658.759204 78.47112 
L 659.353096 78.47112 
L 659.353096 79.163593 
L 659.946987 79.163593 
L 659.946987 81.282146 
L 660.540878 81.282146 
L 660.540878 82.990536 
L 661.13477 82.990536 
L 661.13477 83.275758 
L 661.728661 83.275758 
L 661.728661 84.322 
L 662.322553 84.322 
L 662.322553 82.371292 
L 662.916444 82.371292 
L 662.916444 79.191175 
L 663.510336 79.191175 
L 663.510336 79.917871 
L 664.104227 79.917871 
L 664.104227 80.708507 
L 664.698118 80.708507 
L 664.698118 81.139659 
L 665.29201 81.139659 
L 665.29201 80.666502 
L 666.479793 80.662454 
L 666.479793 79.722978 
L 667.073684 79.722978 
L 667.073684 81.845768 
L 667.667576 81.845768 
L 667.667576 82.517597 
L 668.261467 82.517597 
L 668.261467 81.989859 
L 668.855358 81.989859 
L 668.855358 81.514378 
L 669.44925 81.514378 
L 669.44925 82.189326 
L 670.637033 82.24562 
L 670.637033 83.021589 
L 672.418707 82.976125 
L 672.418707 83.285543 
L 673.012598 83.285543 
L 673.012598 81.741134 
L 673.60649 81.741134 
L 673.60649 81.925936 
L 674.200381 81.925936 
L 674.200381 82.067069 
L 674.794273 82.067069 
L 674.794273 80.368148 
L 675.388164 80.368148 
L 675.388164 80.185107 
L 675.982056 80.185107 
L 675.982056 81.159083 
L 676.575947 81.159083 
L 676.575947 80.790788 
L 677.76373 80.800642 
L 677.76373 80.577129 
L 680.139296 80.506641 
L 680.139296 79.919191 
L 680.733187 79.919191 
L 680.733187 79.597007 
L 681.327079 79.597007 
L 681.327079 79.82961 
L 681.92097 79.82961 
L 681.92097 80.169818 
L 682.514861 80.169818 
L 682.514861 79.291608 
L 683.108753 79.291608 
L 683.108753 79.102898 
L 683.702644 79.102898 
L 683.702644 75.562809 
L 684.296536 75.562809 
L 684.296536 74.400637 
L 684.890427 74.400637 
L 684.890427 73.915227 
L 685.484319 73.915227 
L 685.484319 74.914051 
L 686.07821 74.914051 
L 686.07821 74.371144 
L 686.672101 74.371144 
L 686.672101 74.047296 
L 687.265993 74.047296 
L 687.265993 73.650679 
L 687.859884 73.650679 
L 687.859884 74.375366 
L 688.453776 74.375366 
L 688.453776 73.950574 
L 689.641559 73.849818 
L 689.641559 72.159334 
L 690.829341 72.215557 
L 690.829341 70.14923 
L 691.423233 70.14923 
L 691.423233 65.741451 
L 692.017124 65.741451 
L 692.017124 65.572645 
L 692.611016 65.572645 
L 692.611016 64.765057 
L 693.204907 64.765057 
L 693.204907 66.279987 
L 693.798799 66.279987 
L 693.798799 65.082181 
L 694.39269 65.082181 
L 694.39269 63.452044 
L 694.986581 63.452044 
L 694.986581 63.857692 
L 695.580473 63.857692 
L 695.580473 64.916941 
L 696.174364 64.916941 
L 696.174364 65.795128 
L 696.768256 65.795128 
L 696.768256 66.239416 
L 697.362147 66.239416 
L 697.362147 64.818265 
L 697.956039 64.818265 
L 697.956039 63.117009 
L 698.54993 63.117009 
L 698.54993 62.607194 
L 699.143821 62.607194 
L 699.143821 60.125177 
L 699.737713 60.125177 
L 699.737713 58.518126 
L 700.331604 58.518126 
L 700.331604 58.298406 
L 700.925496 58.298406 
L 700.925496 59.060741 
L 701.519387 59.060741 
L 701.519387 56.742879 
L 702.113279 56.742879 
L 702.113279 58.11128 
L 702.70717 58.11128 
L 702.70717 55.708939 
L 703.301062 55.708939 
L 703.301062 57.063537 
L 703.894953 57.063537 
L 703.894953 58.795671 
L 704.488844 58.795671 
L 704.488844 59.256481 
L 705.676627 59.358155 
L 705.676627 61.048514 
L 706.270519 61.048514 
L 706.270519 61.702244 
L 706.86441 61.702244 
L 706.86441 61.447405 
L 707.458302 61.447405 
L 707.458302 59.47376 
L 708.052193 59.47376 
L 708.052193 57.092116 
L 708.646084 57.092116 
L 708.646084 56.722383 
L 709.239976 56.722383 
L 709.239976 57.491649 
L 709.833867 57.491649 
L 709.833867 60.526575 
L 710.427759 60.526575 
L 710.427759 60.114559 
L 711.02165 60.114559 
L 711.02165 59.015935 
L 711.615542 59.015935 
L 711.615542 59.723142 
L 712.803324 59.815649 
L 712.803324 61.678743 
L 713.397216 61.678743 
L 713.397216 61.053652 
L 713.991107 61.053652 
L 713.991107 59.364632 
L 714.584999 59.364632 
L 714.584999 59.55876 
L 715.17889 59.55876 
L 715.17889 60.350261 
L 715.772782 60.350261 
L 715.772782 59.808279 
L 716.366673 59.808279 
L 716.366673 60.009265 
L 717.554456 59.988211 
L 717.554456 60.492717 
L 718.148347 60.492717 
L 718.148347 64.159693 
L 718.742239 64.159693 
L 718.742239 64.684623 
L 719.33613 64.684623 
L 719.33613 64.434955 
L 719.930022 64.434955 
L 719.930022 64.86369 
L 720.523913 64.86369 
L 720.523913 64.717942 
L 721.117804 64.717942 
L 721.117804 63.776241 
L 721.711696 63.776241 
L 721.711696 64.534448 
L 722.305587 64.534448 
L 722.305587 65.26314 
L 722.899479 65.26314 
L 722.899479 65.375396 
L 723.49337 65.375396 
L 723.49337 65.199309 
L 724.087262 65.199309 
L 724.087262 63.580877 
L 724.681153 63.580877 
L 724.681153 62.278368 
L 725.275044 62.278368 
L 725.275044 62.440964 
L 725.868936 62.440964 
L 725.868936 62.307221 
L 726.462827 62.307221 
L 726.462827 61.995191 
L 727.056719 61.995191 
L 727.056719 63.236549 
L 728.244502 63.255452 
L 728.244502 64.096092 
L 728.838393 64.096092 
L 728.838393 64.810703 
L 729.432285 64.810703 
L 729.432285 66.304511 
L 730.026176 66.304511 
L 730.026176 68.367666 
L 730.620067 68.367666 
L 730.620067 66.564339 
L 731.80785 66.469528 
L 731.80785 67.210794 
L 732.401742 67.210794 
L 732.401742 66.498941 
L 732.995633 66.498941 
L 732.995633 67.093596 
L 733.589525 67.093596 
L 733.589525 67.524227 
L 734.183416 67.524227 
L 734.183416 67.754422 
L 734.777307 67.754422 
L 734.777307 67.246907 
L 735.371199 67.246907 
L 735.371199 67.659526 
L 735.96509 67.659526 
L 735.96509 67.344441 
L 737.746765 67.435092 
L 737.746765 68.255178 
L 738.340656 68.255178 
L 738.340656 67.052952 
L 738.934547 67.052952 
L 738.934547 65.157588 
L 740.12233 65.213165 
L 740.12233 63.157647 
L 740.716222 63.157647 
L 740.716222 63.019914 
L 741.310113 63.019914 
L 741.310113 63.67925 
L 741.904005 63.67925 
L 741.904005 64.270363 
L 742.497896 64.270363 
L 742.497896 63.772507 
L 743.091787 63.772507 
L 743.091787 62.139123 
L 743.685679 62.139123 
L 743.685679 61.916876 
L 744.27957 61.916876 
L 744.27957 62.408335 
L 744.873462 62.408335 
L 744.873462 60.972295 
L 746.061245 60.870905 
L 746.061245 60.056995 
L 746.655136 60.056995 
L 746.655136 60.694227 
L 747.249027 60.694227 
L 747.249027 61.413135 
L 747.842919 61.413135 
L 747.842919 61.271045 
L 748.43681 61.271045 
L 748.43681 62.072529 
L 749.030702 62.072529 
L 749.030702 63.470269 
L 749.624593 63.470269 
L 749.624593 62.990354 
L 750.218485 62.990354 
L 750.218485 62.627635 
L 750.812376 62.627635 
L 750.812376 65.166167 
L 751.406267 65.166167 
L 751.406267 65.437476 
L 752.000159 65.437476 
L 752.000159 74.494876 
L 752.59405 74.494876 
L 752.59405 73.727636 
L 753.187942 73.727636 
L 753.187942 70.557189 
L 753.781833 70.557189 
L 753.781833 69.643106 
L 754.375725 69.643106 
L 754.375725 68.811016 
L 754.969616 68.811016 
L 754.969616 71.745491 
L 755.563507 71.745491 
L 755.563507 69.159714 
L 756.157399 69.159714 
L 756.157399 68.477012 
L 756.75129 68.477012 
L 756.75129 67.476187 
L 757.345182 67.476187 
L 757.345182 68.472254 
L 758.532965 68.520128 
L 758.532965 67.75107 
L 760.314639 67.695616 
L 760.314639 66.49243 
L 760.90853 66.49243 
L 760.90853 65.89784 
L 761.502422 65.89784 
L 761.502422 63.200061 
L 762.096313 63.200061 
L 762.096313 63.054097 
L 762.690205 63.054097 
L 762.690205 60.557093 
L 763.284096 60.557093 
L 763.284096 63.36855 
L 763.877988 63.36855 
L 763.877988 62.079827 
L 764.471879 62.079827 
L 764.471879 61.899764 
L 765.06577 61.899764 
L 765.06577 61.019239 
L 765.659662 61.019239 
L 765.659662 62.396549 
L 766.253553 62.396549 
L 766.253553 63.021526 
L 766.847445 63.021526 
L 766.847445 61.491274 
L 767.441336 61.491274 
L 767.441336 61.753856 
L 768.035228 61.753856 
L 768.035228 61.296345 
L 769.22301 61.269299 
L 769.22301 61.042081 
L 769.816902 61.042081 
L 769.816902 61.733486 
L 771.004685 61.80781 
L 771.004685 61.912512 
L 771.598576 61.912512 
L 771.598576 62.127828 
L 772.786359 62.146467 
L 772.786359 62.775095 
L 773.38025 62.775095 
L 773.38025 62.473297 
L 773.974142 62.473297 
L 773.974142 62.615935 
L 774.568033 62.615935 
L 774.568033 61.982618 
L 775.161925 61.982618 
L 775.161925 62.234294 
L 775.755816 62.234294 
L 775.755816 62.102577 
L 776.349708 62.102577 
L 776.349708 62.336228 
L 777.53749 62.379412 
L 777.53749 61.884126 
L 778.131382 61.884126 
L 778.131382 61.530839 
L 778.725273 61.530839 
L 778.725273 58.470502 
L 779.319165 58.470502 
L 779.319165 58.33239 
L 780.506948 58.403038 
L 780.506948 57.15971 
L 781.69473 57.128637 
L 781.69473 57.812166 
L 782.288622 57.812166 
L 782.288622 57.116486 
L 782.882513 57.116486 
L 782.882513 56.205929 
L 783.476405 56.205929 
L 783.476405 56.953288 
L 784.070296 56.953288 
L 784.070296 57.335054 
L 784.664188 57.335054 
L 784.664188 57.67385 
L 785.851971 57.647615 
L 785.851971 56.85143 
L 786.445862 56.85143 
L 786.445862 59.59766 
L 787.039753 59.59766 
L 787.039753 59.800464 
L 788.821428 59.875824 
L 788.821428 58.650796 
L 789.415319 58.650796 
L 789.415319 58.396069 
L 790.009211 58.396069 
L 790.009211 59.468412 
L 790.603102 59.468412 
L 790.603102 59.149119 
L 791.790885 59.150125 
L 791.790885 59.294827 
L 793.572559 59.192647 
L 793.572559 57.979038 
L 794.166451 57.979038 
L 794.166451 57.745959 
L 794.760342 57.745959 
L 794.760342 57.932614 
L 795.354233 57.932614 
L 795.354233 57.145568 
L 795.948125 57.145568 
L 795.948125 55.043318 
L 797.135908 54.967905 
L 797.135908 54.563647 
L 797.729799 54.563647 
L 797.729799 53.751884 
L 798.323691 53.751884 
L 798.323691 53.429014 
L 798.917582 53.429014 
L 798.917582 51.186958 
L 799.511473 51.186958 
L 799.511473 51.55158 
L 800.105365 51.55158 
L 800.105365 50.26098 
L 800.699256 50.26098 
L 800.699256 50.689156 
L 801.293148 50.689156 
L 801.293148 48.399932 
L 801.887039 48.399932 
L 801.887039 47.357816 
L 802.480931 47.357816 
L 802.480931 46.831095 
L 803.074822 46.831095 
L 803.074822 49.196567 
L 803.668713 49.196567 
L 803.668713 46.248119 
L 804.262605 46.248119 
L 804.262605 46.523041 
L 805.450388 46.606573 
L 805.450388 47.522717 
L 806.044279 47.522717 
L 806.044279 47.241162 
L 806.638171 47.241162 
L 806.638171 46.539085 
L 807.232062 46.539085 
L 807.232062 42.853427 
L 807.825953 42.853427 
L 807.825953 43.226034 
L 808.419845 43.226034 
L 808.419845 42.344988 
L 809.013736 42.344988 
L 809.013736 40.205737 
L 809.607628 40.205737 
L 809.607628 38.205781 
L 810.201519 38.205781 
L 810.201519 35.896043 
L 810.795411 35.896043 
L 810.795411 34.716634 
L 811.389302 34.716634 
L 811.389302 30.966513 
L 811.983194 30.966513 
L 811.983194 33.808123 
L 812.577085 33.808123 
L 812.577085 31.765632 
L 813.170976 31.765632 
L 813.170976 33.661405 
L 813.764868 33.661405 
L 813.764868 33.811661 
L 814.358759 33.811661 
L 814.358759 35.958857 
L 814.952651 35.958857 
L 814.952651 35.670317 
L 815.546542 35.670317 
L 815.546542 34.551478 
L 816.140434 34.551478 
L 816.140434 35.043695 
L 816.734325 35.043695 
L 816.734325 32.960558 
L 817.328216 32.960558 
L 817.328216 31.890107 
L 817.922108 31.890107 
L 817.922108 28.889516 
L 818.515999 28.889516 
L 818.515999 27.832004 
L 819.109891 27.832004 
L 819.109891 26.967021 
L 819.703782 26.967021 
L 819.703782 24.250339 
L 820.297674 24.250339 
L 820.297674 24.937918 
L 820.891565 24.937918 
L 820.891565 28.004736 
L 821.485456 28.004736 
L 821.485456 28.778986 
L 822.079348 28.778986 
L 822.079348 26.409046 
L 822.673239 26.409046 
L 822.673239 27.086877 
L 823.267131 27.086877 
L 823.267131 24.644472 
L 823.861022 24.644472 
L 823.861022 23.751937 
L 824.454914 23.751937 
L 824.454914 24.311463 
L 825.048805 24.311463 
L 825.048805 23.600445 
L 826.236588 23.69384 
L 826.236588 25.577057 
L 826.830479 25.577057 
L 826.830479 24.270182 
L 827.424371 24.270182 
L 827.424371 23.214666 
L 828.612154 23.106754 
L 828.612154 23.098615 
L 829.206045 23.098615 
L 829.206045 23.460908 
L 829.799936 23.460908 
L 829.799936 22.775742 
L 830.393828 22.775742 
L 830.393828 21.744453 
L 830.987719 21.744453 
L 830.987719 22.732788 
L 831.581611 22.732788 
L 831.581611 24.028385 
L 832.175502 24.028385 
L 832.175502 26.128638 
L 832.769394 26.128638 
L 832.769394 24.963955 
L 833.363285 24.963955 
L 833.363285 25.149159 
L 833.957176 25.149159 
L 833.957176 23.990135 
L 834.551068 23.990135 
L 834.551068 23.671048 
L 835.144959 23.671048 
L 835.144959 23.14342 
L 835.738851 23.14342 
L 835.738851 23.9382 
L 836.332742 23.9382 
L 836.332742 26.642356 
L 836.926634 26.642356 
L 836.926634 29.50089 
L 837.520525 29.50089 
L 837.520525 30.907427 
L 838.114417 30.907427 
L 838.114417 34.282521 
L 838.708308 34.282521 
L 838.708308 31.70776 
L 839.302199 31.70776 
L 839.302199 34.347491 
L 839.896091 34.347491 
L 839.896091 33.154982 
L 840.489982 33.154982 
L 840.489982 33.027129 
L 841.083874 33.027129 
L 841.083874 35.048749 
L 841.677765 35.048749 
L 841.677765 33.130869 
L 842.271657 33.130869 
L 842.271657 31.815065 
L 842.865548 31.815065 
L 842.865548 32.219569 
L 843.459439 32.219569 
L 843.459439 33.820454 
L 844.053331 33.820454 
L 844.053331 35.731479 
L 844.647222 35.731479 
L 844.647222 36.262796 
L 845.241114 36.262796 
L 845.241114 34.464108 
L 845.835005 34.464108 
L 845.835005 35.034899 
L 846.428897 35.034899 
L 846.428897 33.948442 
L 847.022788 33.948442 
L 847.022788 34.84568 
L 847.616679 34.84568 
L 847.616679 35.048308 
L 848.210571 35.048308 
L 848.210571 35.576681 
L 848.804462 35.576681 
L 848.804462 36.409541 
L 849.398354 36.409541 
L 849.398354 36.819907 
L 849.992245 36.819907 
L 849.992245 35.829033 
L 850.586137 35.829033 
L 850.586137 33.91507 
L 851.180028 33.91507 
L 851.180028 31.31574 
L 851.773919 31.31574 
L 851.773919 30.459746 
L 852.367811 30.459746 
L 852.367811 32.322684 
L 852.961702 32.322684 
L 852.961702 29.876961 
L 853.555594 29.876961 
L 853.555594 28.216282 
L 854.149485 28.216282 
L 854.149485 29.10705 
L 854.743377 29.10705 
L 854.743377 27.889659 
L 855.337268 27.889659 
L 855.337268 28.936722 
L 855.931159 28.936722 
L 855.931159 27.065124 
L 856.525051 27.065124 
L 856.525051 27.583378 
L 857.118942 27.583378 
L 857.118942 27.011371 
L 857.712834 27.011371 
L 857.712834 27.881429 
L 858.306725 27.881429 
L 858.306725 26.894661 
L 858.900617 26.894661 
L 858.900617 25.87614 
L 859.494508 25.87614 
L 859.494508 28.332743 
L 860.088399 28.332743 
L 860.088399 28.764556 
L 860.682291 28.764556 
L 860.682291 27.882617 
L 861.870074 27.796977 
L 861.870074 29.839749 
L 862.463965 29.839749 
L 862.463965 28.884445 
L 863.057857 28.884445 
L 863.057857 29.701989 
L 863.651748 29.701989 
L 863.651748 30.529074 
L 864.24564 30.529074 
L 864.24564 27.591103 
L 864.839531 27.591103 
L 864.839531 25.98368 
L 865.433422 25.98368 
L 865.433422 25.037976 
L 866.027314 25.037976 
L 866.027314 23.678838 
L 867.215097 23.698775 
L 867.215097 22.226627 
L 867.808988 22.226627 
L 867.808988 20.732418 
L 868.40288 20.732418 
L 868.40288 22.319009 
L 868.996771 22.319009 
L 868.996771 22.642373 
L 869.590662 22.642373 
L 869.590662 21.987038 
L 870.184554 21.987038 
L 870.184554 22.404485 
L 870.778445 22.404485 
L 870.778445 22.262435 
L 871.372337 22.262435 
L 871.372337 21.636151 
L 871.966228 21.636151 
L 871.966228 21.082361 
L 872.56012 21.082361 
L 872.56012 21.263585 
L 873.154011 21.263585 
L 873.154011 22.702907 
L 873.747902 22.702907 
L 873.747902 23.430247 
L 874.341794 23.430247 
L 874.341794 24.105578 
L 874.935685 24.105578 
L 874.935685 23.141043 
L 875.529577 23.141043 
L 875.529577 23.737572 
L 876.71736 23.760605 
L 876.71736 26.926824 
L 877.311251 26.926824 
L 877.311251 26.339072 
L 877.905142 26.339072 
L 877.905142 27.853354 
L 878.499034 27.853354 
L 878.499034 28.024276 
L 879.092925 28.024276 
L 879.092925 27.6215 
L 879.686817 27.6215 
L 879.686817 28.054893 
L 880.280708 28.054893 
L 880.280708 27.196453 
L 880.8746 27.196453 
L 880.8746 26.411892 
L 881.468491 26.411892 
L 881.468491 27.646799 
L 882.062382 27.646799 
L 882.062382 28.254517 
L 883.250165 28.166925 
L 883.250165 29.7323 
L 883.844057 29.7323 
L 883.844057 30.355997 
L 884.437948 30.355997 
L 884.437948 29.341921 
L 885.03184 29.341921 
L 885.03184 29.719632 
L 885.625731 29.719632 
L 885.625731 30.097051 
L 886.219622 30.097051 
L 886.219622 33.259846 
L 886.813514 33.259846 
L 886.813514 33.886237 
L 887.194182 33.886237 
L 887.194182 33.886237 
" clip-path="url(#p4a1c929a9e)" style="fill: none; stroke: #3572c6; stroke-width: 1.2; stroke-linecap: square"/>
   </g>
   <g id="line2d_74">
    <path d="M 75.557818 20.732418 
L 887.194182 20.732418 
L 887.194182 20.732418 
" clip-path="url(#p4a1c929a9e)" style="fill: none; stroke: #83a83b; stroke-width: 1.2; stroke-linecap: square"/>
   </g>
   <g id="line2d_75">
    <path d="M 75.557818 33.886237 
L 887.194182 33.886237 
L 887.194182 33.886237 
" clip-path="url(#p4a1c929a9e)" style="fill: none; stroke: #c44e52; stroke-width: 1.2; stroke-linecap: square"/>
   </g>
   <g id="line2d_76">
    <path d="M 868.40288 301.139691 
L 868.40288 7.379691 
" clip-path="url(#p4a1c929a9e)" style="fill: none; stroke: #83a83b; stroke-width: 1.2; stroke-linecap: square"/>
   </g>
   <g id="line2d_77">
    <path d="M 887.194182 301.139691 
L 887.194182 7.379691 
" clip-path="url(#p4a1c929a9e)" style="fill: none; stroke: #c44e52; stroke-width: 1.2; stroke-linecap: square"/>
   </g>
   <g id="patch_3">
    <path d="M 34.976 301.139691 
L 34.976 7.379691 
" style="fill: none; stroke: #899ab8; stroke-width: 1.12; stroke-linejoin: miter; stroke-linecap: square"/>
   </g>
   <g id="patch_4">
    <path d="M 927.776 301.139691 
L 927.776 7.379691 
" style="fill: none; stroke: #899ab8; stroke-width: 1.12; stroke-linejoin: miter; stroke-linecap: square"/>
   </g>
   <g id="patch_5">
    <path d="M 34.976 301.139691 
L 927.776 301.139691 
" style="fill: none; stroke: #899ab8; stroke-width: 1.12; stroke-linejoin: miter; stroke-linecap: square"/>
   </g>
   <g id="patch_6">
    <path d="M 34.976 7.379691 
L 927.776 7.379691 
" style="fill: none; stroke: #899ab8; stroke-width: 1.12; stroke-linejoin: miter; stroke-linecap: square"/>
   </g>
   <g id="text_14">
    <!-- 66063.56 -->
    <g style="fill: #83a83b" transform="translate(219.873436 20.732418)scale(0.132 -0.132)">
     <defs>
      <path id="DejaVuSans-2e" d="M 684 794 
L 1344 794 
L 1344 0 
L 684 0 
L 684 794 
z
" transform="scale(0.015625)"/>
     </defs>
     <use xlink:href="#DejaVuSans-36"/>
     <use xlink:href="#DejaVuSans-36" x="63.623047"/>
     <use xlink:href="#DejaVuSans-30" x="127.246094"/>
     <use xlink:href="#DejaVuSans-36" x="190.869141"/>
     <use xlink:href="#DejaVuSans-33" x="254.492188"/>
     <use xlink:href="#DejaVuSans-2e" x="318.115234"/>
     <use xlink:href="#DejaVuSans-35" x="349.902344"/>
     <use xlink:href="#DejaVuSans-36" x="413.525391"/>
    </g>
   </g>
   <g id="text_15">
    <!-- 35413.5683 -->
    <g style="fill: #c44e52" transform="translate(219.873436 33.886237)scale(0.132 -0.132)">
     <use xlink:href="#DejaVuSans-33"/>
     <use xlink:href="#DejaVuSans-35" x="63.623047"/>
     <use xlink:href="#DejaVuSans-34" x="127.246094"/>
     <use xlink:href="#DejaVuSans-31" x="190.869141"/>
     <use xlink:href="#DejaVuSans-33" x="254.492188"/>
     <use xlink:href="#DejaVuSans-2e" x="318.115234"/>
     <use xlink:href="#DejaVuSans-35" x="349.902344"/>
     <use xlink:href="#DejaVuSans-36" x="413.525391"/>
     <use xlink:href="#DejaVuSans-38" x="477.148438"/>
     <use xlink:href="#DejaVuSans-33" x="540.771484"/>
    </g>
   </g>
   <g id="legend_1">
    <g id="patch_7">
     <path d="M 432.207453 294.839691 
L 530.544547 294.839691 
Q 533.064547 294.839691 533.064547 292.319691 
L 533.064547 237.745941 
Q 533.064547 235.225941 530.544547 235.225941 
L 432.207453 235.225941 
Q 429.687453 235.225941 429.687453 237.745941 
L 429.687453 292.319691 
Q 429.687453 294.839691 432.207453 294.839691 
z
" style="fill: #373e4b; opacity: 0.8; stroke: #cccccc; stroke-width: 0.16; stroke-linejoin: miter"/>
    </g>
    <g id="line2d_78">
     <path d="M 434.727453 245.429972 
L 434.727453 245.429972 
L 447.327453 245.429972 
L 447.327453 245.429972 
L 459.927453 245.429972 
" style="fill: none; stroke: #3572c6; stroke-width: 1.2; stroke-linecap: square"/>
    </g>
    <g id="text_16">
     <!-- USD/BTC -->
     <g style="fill: #b1bed6" transform="translate(470.007453 249.839972)scale(0.126 -0.126)">
      <defs>
       <path id="DejaVuSans-55" d="M 556 4666 
L 1191 4666 
L 1191 1831 
Q 1191 1081 1462 751 
Q 1734 422 2344 422 
Q 2950 422 3222 751 
Q 3494 1081 3494 1831 
L 3494 4666 
L 4128 4666 
L 4128 1753 
Q 4128 841 3676 375 
Q 3225 -91 2344 -91 
Q 1459 -91 1007 375 
Q 556 841 556 1753 
L 556 4666 
z
" transform="scale(0.015625)"/>
       <path id="DejaVuSans-53" d="M 3425 4513 
L 3425 3897 
Q 3066 4069 2747 4153 
Q 2428 4238 2131 4238 
Q 1616 4238 1336 4038 
Q 1056 3838 1056 3469 
Q 1056 3159 1242 3001 
Q 1428 2844 1947 2747 
L 2328 2669 
Q 3034 2534 3370 2195 
Q 3706 1856 3706 1288 
Q 3706 609 3251 259 
Q 2797 -91 1919 -91 
Q 1588 -91 1214 -16 
Q 841 59 441 206 
L 441 856 
Q 825 641 1194 531 
Q 1563 422 1919 422 
Q 2459 422 2753 634 
Q 3047 847 3047 1241 
Q 3047 1584 2836 1778 
Q 2625 1972 2144 2069 
L 1759 2144 
Q 1053 2284 737 2584 
Q 422 2884 422 3419 
Q 422 4038 858 4394 
Q 1294 4750 2059 4750 
Q 2388 4750 2728 4690 
Q 3069 4631 3425 4513 
z
" transform="scale(0.015625)"/>
       <path id="DejaVuSans-2f" d="M 1625 4666 
L 2156 4666 
L 531 -594 
L 0 -594 
L 1625 4666 
z
" transform="scale(0.015625)"/>
       <path id="DejaVuSans-42" d="M 1259 2228 
L 1259 519 
L 2272 519 
Q 2781 519 3026 730 
Q 3272 941 3272 1375 
Q 3272 1813 3026 2020 
Q 2781 2228 2272 2228 
L 1259 2228 
z
M 1259 4147 
L 1259 2741 
L 2194 2741 
Q 2656 2741 2882 2914 
Q 3109 3088 3109 3444 
Q 3109 3797 2882 3972 
Q 2656 4147 2194 4147 
L 1259 4147 
z
M 628 4666 
L 2241 4666 
Q 2963 4666 3353 4366 
Q 3744 4066 3744 3513 
Q 3744 3084 3544 2831 
Q 3344 2578 2956 2516 
Q 3422 2416 3680 2098 
Q 3938 1781 3938 1306 
Q 3938 681 3513 340 
Q 3088 0 2303 0 
L 628 0 
L 628 4666 
z
" transform="scale(0.015625)"/>
       <path id="DejaVuSans-54" d="M -19 4666 
L 3928 4666 
L 3928 4134 
L 2272 4134 
L 2272 0 
L 1638 0 
L 1638 4134 
L -19 4134 
L -19 4666 
z
" transform="scale(0.015625)"/>
       <path id="DejaVuSans-43" d="M 4122 4306 
L 4122 3641 
Q 3803 3938 3442 4084 
Q 3081 4231 2675 4231 
Q 1875 4231 1450 3742 
Q 1025 3253 1025 2328 
Q 1025 1406 1450 917 
Q 1875 428 2675 428 
Q 3081 428 3442 575 
Q 3803 722 4122 1019 
L 4122 359 
Q 3791 134 3420 21 
Q 3050 -91 2638 -91 
Q 1578 -91 968 557 
Q 359 1206 359 2328 
Q 359 3453 968 4101 
Q 1578 4750 2638 4750 
Q 3056 4750 3426 4639 
Q 3797 4528 4122 4306 
z
" transform="scale(0.015625)"/>
      </defs>
      <use xlink:href="#DejaVuSans-55"/>
      <use xlink:href="#DejaVuSans-53" x="73.193359"/>
      <use xlink:href="#DejaVuSans-44" x="136.669922"/>
      <use xlink:href="#DejaVuSans-2f" x="213.671875"/>
      <use xlink:href="#DejaVuSans-42" x="247.363281"/>
      <use xlink:href="#DejaVuSans-54" x="315.966797"/>
      <use xlink:href="#DejaVuSans-43" x="371.175781"/>
     </g>
    </g>
    <g id="line2d_79">
     <path d="M 434.727453 263.92441 
L 434.727453 263.92441 
L 447.327453 263.92441 
L 447.327453 263.92441 
L 459.927453 263.92441 
" style="fill: none; stroke: #83a83b; stroke-width: 1.2; stroke-linecap: square"/>
    </g>
    <g id="text_17">
     <!-- Max -->
     <g style="fill: #b1bed6" transform="translate(470.007453 268.33441)scale(0.126 -0.126)">
      <defs>
       <path id="DejaVuSans-4d" d="M 628 4666 
L 1569 4666 
L 2759 1491 
L 3956 4666 
L 4897 4666 
L 4897 0 
L 4281 0 
L 4281 4097 
L 3078 897 
L 2444 897 
L 1241 4097 
L 1241 0 
L 628 0 
L 628 4666 
z
" transform="scale(0.015625)"/>
       <path id="DejaVuSans-78" d="M 3513 3500 
L 2247 1797 
L 3578 0 
L 2900 0 
L 1881 1375 
L 863 0 
L 184 0 
L 1544 1831 
L 300 3500 
L 978 3500 
L 1906 2253 
L 2834 3500 
L 3513 3500 
z
" transform="scale(0.015625)"/>
      </defs>
      <use xlink:href="#DejaVuSans-4d"/>
      <use xlink:href="#DejaVuSans-61" x="86.279297"/>
      <use xlink:href="#DejaVuSans-78" x="147.558594"/>
     </g>
    </g>
    <g id="line2d_80">
     <path d="M 434.727453 282.418847 
L 434.727453 282.418847 
L 447.327453 282.418847 
L 447.327453 282.418847 
L 459.927453 282.418847 
" style="fill: none; stroke: #c44e52; stroke-width: 1.2; stroke-linecap: square"/>
    </g>
    <g id="text_18">
     <!-- local_Min -->
     <g style="fill: #b1bed6" transform="translate(470.007453 286.828847)scale(0.126 -0.126)">
      <defs>
       <path id="DejaVuSans-6c" d="M 603 4863 
L 1178 4863 
L 1178 0 
L 603 0 
L 603 4863 
z
" transform="scale(0.015625)"/>
       <path id="DejaVuSans-6f" d="M 1959 3097 
Q 1497 3097 1228 2736 
Q 959 2375 959 1747 
Q 959 1119 1226 758 
Q 1494 397 1959 397 
Q 2419 397 2687 759 
Q 2956 1122 2956 1747 
Q 2956 2369 2687 2733 
Q 2419 3097 1959 3097 
z
M 1959 3584 
Q 2709 3584 3137 3096 
Q 3566 2609 3566 1747 
Q 3566 888 3137 398 
Q 2709 -91 1959 -91 
Q 1206 -91 779 398 
Q 353 888 353 1747 
Q 353 2609 779 3096 
Q 1206 3584 1959 3584 
z
" transform="scale(0.015625)"/>
       <path id="DejaVuSans-63" d="M 3122 3366 
L 3122 2828 
Q 2878 2963 2633 3030 
Q 2388 3097 2138 3097 
Q 1578 3097 1268 2742 
Q 959 2388 959 1747 
Q 959 1106 1268 751 
Q 1578 397 2138 397 
Q 2388 397 2633 464 
Q 2878 531 3122 666 
L 3122 134 
Q 2881 22 2623 -34 
Q 2366 -91 2075 -91 
Q 1284 -91 818 406 
Q 353 903 353 1747 
Q 353 2603 823 3093 
Q 1294 3584 2113 3584 
Q 2378 3584 2631 3529 
Q 2884 3475 3122 3366 
z
" transform="scale(0.015625)"/>
       <path id="DejaVuSans-5f" d="M 3263 -1063 
L 3263 -1509 
L -63 -1509 
L -63 -1063 
L 3263 -1063 
z
" transform="scale(0.015625)"/>
       <path id="DejaVuSans-69" d="M 603 3500 
L 1178 3500 
L 1178 0 
L 603 0 
L 603 3500 
z
M 603 4863 
L 1178 4863 
L 1178 4134 
L 603 4134 
L 603 4863 
z
" transform="scale(0.015625)"/>
       <path id="DejaVuSans-6e" d="M 3513 2113 
L 3513 0 
L 2938 0 
L 2938 2094 
Q 2938 2591 2744 2837 
Q 2550 3084 2163 3084 
Q 1697 3084 1428 2787 
Q 1159 2491 1159 1978 
L 1159 0 
L 581 0 
L 581 3500 
L 1159 3500 
L 1159 2956 
Q 1366 3272 1645 3428 
Q 1925 3584 2291 3584 
Q 2894 3584 3203 3211 
Q 3513 2838 3513 2113 
z
" transform="scale(0.015625)"/>
      </defs>
      <use xlink:href="#DejaVuSans-6c"/>
      <use xlink:href="#DejaVuSans-6f" x="27.783203"/>
      <use xlink:href="#DejaVuSans-63" x="88.964844"/>
      <use xlink:href="#DejaVuSans-61" x="143.945312"/>
      <use xlink:href="#DejaVuSans-6c" x="205.224609"/>
      <use xlink:href="#DejaVuSans-5f" x="233.007812"/>
      <use xlink:href="#DejaVuSans-4d" x="283.007812"/>
      <use xlink:href="#DejaVuSans-69" x="369.287109"/>
      <use xlink:href="#DejaVuSans-6e" x="397.070312"/>
     </g>
    </g>
   </g>
  </g>
 </g>
 <defs>
  <clipPath id="p4a1c929a9e">
   <rect x="34.976" y="7.379691" width="892.8" height="293.76"/>
  </clipPath>
 </defs>
</svg>
