<?xml version="1.0" encoding="utf-8" standalone="no"?>
<!DOCTYPE svg PUBLIC "-//W3C//DTD SVG 1.1//EN"
  "http://www.w3.org/Graphics/SVG/1.1/DTD/svg11.dtd">
<svg xmlns:xlink="http://www.w3.org/1999/xlink" width="952.88375pt" height="358.290693pt" viewBox="0 0 952.88375 358.290693" xmlns="http://www.w3.org/2000/svg" version="1.1">
 <metadata>
  <rdf:RDF xmlns:dc="http://purl.org/dc/elements/1.1/" xmlns:cc="http://creativecommons.org/ns#" xmlns:rdf="http://www.w3.org/1999/02/22-rdf-syntax-ns#">
   <cc:Work>
    <dc:type rdf:resource="http://purl.org/dc/dcmitype/StillImage"/>
    <dc:date>2022-11-03T21:49:19.292571</dc:date>
    <dc:format>image/svg+xml</dc:format>
    <dc:creator>
     <cc:Agent>
      <dc:title>Matplotlib v3.6.2, https://matplotlib.org/</dc:title>
     </cc:Agent>
    </dc:creator>
   </cc:Work>
  </rdf:RDF>
 </metadata>
 <defs>
  <style type="text/css">*{stroke-linejoin: round; stroke-linecap: butt}</style>
 </defs>
 <g id="figure_1">
  <g id="patch_1">
   <path d="M 0 358.290693 
L 952.88375 358.290693 
L 952.88375 0 
L 0 0 
z
" style="fill: #373e4b"/>
  </g>
  <g id="axes_1">
   <g id="patch_2">
    <path d="M 52.88375 300.96 
L 945.68375 300.96 
L 945.68375 7.2 
L 52.88375 7.2 
z
" style="fill: #373e4b"/>
   </g>
   <g id="matplotlib.axis_1">
    <g id="xtick_1">
     <g id="line2d_1">
      <path d="M 100.294043 300.96 
L 100.294043 7.2 
" clip-path="url(#p4b8335b698)" style="fill: none; stroke: #546379; stroke-width: 1.12; stroke-linecap: square"/>
     </g>
     <g id="line2d_2"/>
     <g id="text_1">
      <!-- 2018 -->
      <g style="fill: #b1bed6" transform="translate(71.213004 330.884854) rotate(-30) scale(0.126 -0.126)">
       <defs>
        <path id="DejaVuSans-32" d="M 1228 531 
L 3431 531 
L 3431 0 
L 469 0 
L 469 531 
Q 828 903 1448 1529 
Q 2069 2156 2228 2338 
Q 2531 2678 2651 2914 
Q 2772 3150 2772 3378 
Q 2772 3750 2511 3984 
Q 2250 4219 1831 4219 
Q 1534 4219 1204 4116 
Q 875 4013 500 3803 
L 500 4441 
Q 881 4594 1212 4672 
Q 1544 4750 1819 4750 
Q 2544 4750 2975 4387 
Q 3406 4025 3406 3419 
Q 3406 3131 3298 2873 
Q 3191 2616 2906 2266 
Q 2828 2175 2409 1742 
Q 1991 1309 1228 531 
z
" transform="scale(0.015625)"/>
        <path id="DejaVuSans-30" d="M 2034 4250 
Q 1547 4250 1301 3770 
Q 1056 3291 1056 2328 
Q 1056 1369 1301 889 
Q 1547 409 2034 409 
Q 2525 409 2770 889 
Q 3016 1369 3016 2328 
Q 3016 3291 2770 3770 
Q 2525 4250 2034 4250 
z
M 2034 4750 
Q 2819 4750 3233 4129 
Q 3647 3509 3647 2328 
Q 3647 1150 3233 529 
Q 2819 -91 2034 -91 
Q 1250 -91 836 529 
Q 422 1150 422 2328 
Q 422 3509 836 4129 
Q 1250 4750 2034 4750 
z
" transform="scale(0.015625)"/>
        <path id="DejaVuSans-31" d="M 794 531 
L 1825 531 
L 1825 4091 
L 703 3866 
L 703 4441 
L 1819 4666 
L 2450 4666 
L 2450 531 
L 3481 531 
L 3481 0 
L 794 0 
L 794 531 
z
" transform="scale(0.015625)"/>
        <path id="DejaVuSans-38" d="M 2034 2216 
Q 1584 2216 1326 1975 
Q 1069 1734 1069 1313 
Q 1069 891 1326 650 
Q 1584 409 2034 409 
Q 2484 409 2743 651 
Q 3003 894 3003 1313 
Q 3003 1734 2745 1975 
Q 2488 2216 2034 2216 
z
M 1403 2484 
Q 997 2584 770 2862 
Q 544 3141 544 3541 
Q 544 4100 942 4425 
Q 1341 4750 2034 4750 
Q 2731 4750 3128 4425 
Q 3525 4100 3525 3541 
Q 3525 3141 3298 2862 
Q 3072 2584 2669 2484 
Q 3125 2378 3379 2068 
Q 3634 1759 3634 1313 
Q 3634 634 3220 271 
Q 2806 -91 2034 -91 
Q 1263 -91 848 271 
Q 434 634 434 1313 
Q 434 1759 690 2068 
Q 947 2378 1403 2484 
z
M 1172 3481 
Q 1172 3119 1398 2916 
Q 1625 2713 2034 2713 
Q 2441 2713 2670 2916 
Q 2900 3119 2900 3481 
Q 2900 3844 2670 4047 
Q 2441 4250 2034 4250 
Q 1625 4250 1398 4047 
Q 1172 3844 1172 3481 
z
" transform="scale(0.015625)"/>
       </defs>
       <use xlink:href="#DejaVuSans-32"/>
       <use xlink:href="#DejaVuSans-30" x="63.623047"/>
       <use xlink:href="#DejaVuSans-31" x="127.246094"/>
       <use xlink:href="#DejaVuSans-38" x="190.869141"/>
      </g>
     </g>
    </g>
    <g id="xtick_2">
     <g id="line2d_3">
      <path d="M 266.453608 300.96 
L 266.453608 7.2 
" clip-path="url(#p4b8335b698)" style="fill: none; stroke: #546379; stroke-width: 1.12; stroke-linecap: square"/>
     </g>
     <g id="line2d_4"/>
     <g id="text_2">
      <!-- 2019 -->
      <g style="fill: #b1bed6" transform="translate(237.372568 330.884854) rotate(-30) scale(0.126 -0.126)">
       <defs>
        <path id="DejaVuSans-39" d="M 703 97 
L 703 672 
Q 941 559 1184 500 
Q 1428 441 1663 441 
Q 2288 441 2617 861 
Q 2947 1281 2994 2138 
Q 2813 1869 2534 1725 
Q 2256 1581 1919 1581 
Q 1219 1581 811 2004 
Q 403 2428 403 3163 
Q 403 3881 828 4315 
Q 1253 4750 1959 4750 
Q 2769 4750 3195 4129 
Q 3622 3509 3622 2328 
Q 3622 1225 3098 567 
Q 2575 -91 1691 -91 
Q 1453 -91 1209 -44 
Q 966 3 703 97 
z
M 1959 2075 
Q 2384 2075 2632 2365 
Q 2881 2656 2881 3163 
Q 2881 3666 2632 3958 
Q 2384 4250 1959 4250 
Q 1534 4250 1286 3958 
Q 1038 3666 1038 3163 
Q 1038 2656 1286 2365 
Q 1534 2075 1959 2075 
z
" transform="scale(0.015625)"/>
       </defs>
       <use xlink:href="#DejaVuSans-32"/>
       <use xlink:href="#DejaVuSans-30" x="63.623047"/>
       <use xlink:href="#DejaVuSans-31" x="127.246094"/>
       <use xlink:href="#DejaVuSans-39" x="190.869141"/>
      </g>
     </g>
    </g>
    <g id="xtick_3">
     <g id="line2d_5">
      <path d="M 432.613173 300.96 
L 432.613173 7.2 
" clip-path="url(#p4b8335b698)" style="fill: none; stroke: #546379; stroke-width: 1.12; stroke-linecap: square"/>
     </g>
     <g id="line2d_6"/>
     <g id="text_3">
      <!-- 2020 -->
      <g style="fill: #b1bed6" transform="translate(403.532133 330.884854) rotate(-30) scale(0.126 -0.126)">
       <use xlink:href="#DejaVuSans-32"/>
       <use xlink:href="#DejaVuSans-30" x="63.623047"/>
       <use xlink:href="#DejaVuSans-32" x="127.246094"/>
       <use xlink:href="#DejaVuSans-30" x="190.869141"/>
      </g>
     </g>
    </g>
    <g id="xtick_4">
     <g id="line2d_7">
      <path d="M 599.22797 300.96 
L 599.22797 7.2 
" clip-path="url(#p4b8335b698)" style="fill: none; stroke: #546379; stroke-width: 1.12; stroke-linecap: square"/>
     </g>
     <g id="line2d_8"/>
     <g id="text_4">
      <!-- 2021 -->
      <g style="fill: #b1bed6" transform="translate(570.14693 330.884854) rotate(-30) scale(0.126 -0.126)">
       <use xlink:href="#DejaVuSans-32"/>
       <use xlink:href="#DejaVuSans-30" x="63.623047"/>
       <use xlink:href="#DejaVuSans-32" x="127.246094"/>
       <use xlink:href="#DejaVuSans-31" x="190.869141"/>
      </g>
     </g>
    </g>
    <g id="xtick_5">
     <g id="line2d_9">
      <path d="M 765.387534 300.96 
L 765.387534 7.2 
" clip-path="url(#p4b8335b698)" style="fill: none; stroke: #546379; stroke-width: 1.12; stroke-linecap: square"/>
     </g>
     <g id="line2d_10"/>
     <g id="text_5">
      <!-- 2022 -->
      <g style="fill: #b1bed6" transform="translate(736.306495 330.884854) rotate(-30) scale(0.126 -0.126)">
       <use xlink:href="#DejaVuSans-32"/>
       <use xlink:href="#DejaVuSans-30" x="63.623047"/>
       <use xlink:href="#DejaVuSans-32" x="127.246094"/>
       <use xlink:href="#DejaVuSans-32" x="190.869141"/>
      </g>
     </g>
    </g>
    <g id="xtick_6">
     <g id="line2d_11">
      <path d="M 931.547099 300.96 
L 931.547099 7.2 
" clip-path="url(#p4b8335b698)" style="fill: none; stroke: #546379; stroke-width: 1.12; stroke-linecap: square"/>
     </g>
     <g id="line2d_12"/>
     <g id="text_6">
      <!-- 2023 -->
      <g style="fill: #b1bed6" transform="translate(902.466059 330.884854) rotate(-30) scale(0.126 -0.126)">
       <defs>
        <path id="DejaVuSans-33" d="M 2597 2516 
Q 3050 2419 3304 2112 
Q 3559 1806 3559 1356 
Q 3559 666 3084 287 
Q 2609 -91 1734 -91 
Q 1441 -91 1130 -33 
Q 819 25 488 141 
L 488 750 
Q 750 597 1062 519 
Q 1375 441 1716 441 
Q 2309 441 2620 675 
Q 2931 909 2931 1356 
Q 2931 1769 2642 2001 
Q 2353 2234 1838 2234 
L 1294 2234 
L 1294 2753 
L 1863 2753 
Q 2328 2753 2575 2939 
Q 2822 3125 2822 3475 
Q 2822 3834 2567 4026 
Q 2313 4219 1838 4219 
Q 1578 4219 1281 4162 
Q 984 4106 628 3988 
L 628 4550 
Q 988 4650 1302 4700 
Q 1616 4750 1894 4750 
Q 2613 4750 3031 4423 
Q 3450 4097 3450 3541 
Q 3450 3153 3228 2886 
Q 3006 2619 2597 2516 
z
" transform="scale(0.015625)"/>
       </defs>
       <use xlink:href="#DejaVuSans-32"/>
       <use xlink:href="#DejaVuSans-30" x="63.623047"/>
       <use xlink:href="#DejaVuSans-32" x="127.246094"/>
       <use xlink:href="#DejaVuSans-33" x="190.869141"/>
      </g>
     </g>
    </g>
    <g id="text_7">
     <!-- Date -->
     <g style="fill: #b1bed6" transform="translate(482.074625 348.095943) scale(0.144 -0.144)">
      <defs>
       <path id="DejaVuSans-44" d="M 1259 4147 
L 1259 519 
L 2022 519 
Q 2988 519 3436 956 
Q 3884 1394 3884 2338 
Q 3884 3275 3436 3711 
Q 2988 4147 2022 4147 
L 1259 4147 
z
M 628 4666 
L 1925 4666 
Q 3281 4666 3915 4102 
Q 4550 3538 4550 2338 
Q 4550 1131 3912 565 
Q 3275 0 1925 0 
L 628 0 
L 628 4666 
z
" transform="scale(0.015625)"/>
       <path id="DejaVuSans-61" d="M 2194 1759 
Q 1497 1759 1228 1600 
Q 959 1441 959 1056 
Q 959 750 1161 570 
Q 1363 391 1709 391 
Q 2188 391 2477 730 
Q 2766 1069 2766 1631 
L 2766 1759 
L 2194 1759 
z
M 3341 1997 
L 3341 0 
L 2766 0 
L 2766 531 
Q 2569 213 2275 61 
Q 1981 -91 1556 -91 
Q 1019 -91 701 211 
Q 384 513 384 1019 
Q 384 1609 779 1909 
Q 1175 2209 1959 2209 
L 2766 2209 
L 2766 2266 
Q 2766 2663 2505 2880 
Q 2244 3097 1772 3097 
Q 1472 3097 1187 3025 
Q 903 2953 641 2809 
L 641 3341 
Q 956 3463 1253 3523 
Q 1550 3584 1831 3584 
Q 2591 3584 2966 3190 
Q 3341 2797 3341 1997 
z
" transform="scale(0.015625)"/>
       <path id="DejaVuSans-74" d="M 1172 4494 
L 1172 3500 
L 2356 3500 
L 2356 3053 
L 1172 3053 
L 1172 1153 
Q 1172 725 1289 603 
Q 1406 481 1766 481 
L 2356 481 
L 2356 0 
L 1766 0 
Q 1100 0 847 248 
Q 594 497 594 1153 
L 594 3053 
L 172 3053 
L 172 3500 
L 594 3500 
L 594 4494 
L 1172 4494 
z
" transform="scale(0.015625)"/>
       <path id="DejaVuSans-65" d="M 3597 1894 
L 3597 1613 
L 953 1613 
Q 991 1019 1311 708 
Q 1631 397 2203 397 
Q 2534 397 2845 478 
Q 3156 559 3463 722 
L 3463 178 
Q 3153 47 2828 -22 
Q 2503 -91 2169 -91 
Q 1331 -91 842 396 
Q 353 884 353 1716 
Q 353 2575 817 3079 
Q 1281 3584 2069 3584 
Q 2775 3584 3186 3129 
Q 3597 2675 3597 1894 
z
M 3022 2063 
Q 3016 2534 2758 2815 
Q 2500 3097 2075 3097 
Q 1594 3097 1305 2825 
Q 1016 2553 972 2059 
L 3022 2063 
z
" transform="scale(0.015625)"/>
      </defs>
      <use xlink:href="#DejaVuSans-44"/>
      <use xlink:href="#DejaVuSans-61" x="77.001953"/>
      <use xlink:href="#DejaVuSans-74" x="138.28125"/>
      <use xlink:href="#DejaVuSans-65" x="177.490234"/>
     </g>
    </g>
   </g>
   <g id="matplotlib.axis_2">
    <g id="ytick_1">
     <g id="line2d_13">
      <path d="M 52.88375 258.880598 
L 945.68375 258.880598 
" clip-path="url(#p4b8335b698)" style="fill: none; stroke: #546379; stroke-width: 1.12; stroke-linecap: square"/>
     </g>
     <g id="line2d_14"/>
     <g id="text_8">
      <!-- 10000 -->
      <g style="fill: #b1bed6" transform="translate(7.2 263.667614) scale(0.126 -0.126)">
       <use xlink:href="#DejaVuSans-31"/>
       <use xlink:href="#DejaVuSans-30" x="63.623047"/>
       <use xlink:href="#DejaVuSans-30" x="127.246094"/>
       <use xlink:href="#DejaVuSans-30" x="190.869141"/>
       <use xlink:href="#DejaVuSans-30" x="254.492188"/>
      </g>
     </g>
    </g>
    <g id="ytick_2">
     <g id="line2d_15">
      <path d="M 52.88375 216.370299 
L 945.68375 216.370299 
" clip-path="url(#p4b8335b698)" style="fill: none; stroke: #546379; stroke-width: 1.12; stroke-linecap: square"/>
     </g>
     <g id="line2d_16"/>
     <g id="text_9">
      <!-- 20000 -->
      <g style="fill: #b1bed6" transform="translate(7.2 221.157314) scale(0.126 -0.126)">
       <use xlink:href="#DejaVuSans-32"/>
       <use xlink:href="#DejaVuSans-30" x="63.623047"/>
       <use xlink:href="#DejaVuSans-30" x="127.246094"/>
       <use xlink:href="#DejaVuSans-30" x="190.869141"/>
       <use xlink:href="#DejaVuSans-30" x="254.492188"/>
      </g>
     </g>
    </g>
    <g id="ytick_3">
     <g id="line2d_17">
      <path d="M 52.88375 173.86 
L 945.68375 173.86 
" clip-path="url(#p4b8335b698)" style="fill: none; stroke: #546379; stroke-width: 1.12; stroke-linecap: square"/>
     </g>
     <g id="line2d_18"/>
     <g id="text_10">
      <!-- 30000 -->
      <g style="fill: #b1bed6" transform="translate(7.2 178.647015) scale(0.126 -0.126)">
       <use xlink:href="#DejaVuSans-33"/>
       <use xlink:href="#DejaVuSans-30" x="63.623047"/>
       <use xlink:href="#DejaVuSans-30" x="127.246094"/>
       <use xlink:href="#DejaVuSans-30" x="190.869141"/>
       <use xlink:href="#DejaVuSans-30" x="254.492188"/>
      </g>
     </g>
    </g>
    <g id="ytick_4">
     <g id="line2d_19">
      <path d="M 52.88375 131.349701 
L 945.68375 131.349701 
" clip-path="url(#p4b8335b698)" style="fill: none; stroke: #546379; stroke-width: 1.12; stroke-linecap: square"/>
     </g>
     <g id="line2d_20"/>
     <g id="text_11">
      <!-- 40000 -->
      <g style="fill: #b1bed6" transform="translate(7.2 136.136716) scale(0.126 -0.126)">
       <defs>
        <path id="DejaVuSans-34" d="M 2419 4116 
L 825 1625 
L 2419 1625 
L 2419 4116 
z
M 2253 4666 
L 3047 4666 
L 3047 1625 
L 3713 1625 
L 3713 1100 
L 3047 1100 
L 3047 0 
L 2419 0 
L 2419 1100 
L 313 1100 
L 313 1709 
L 2253 4666 
z
" transform="scale(0.015625)"/>
       </defs>
       <use xlink:href="#DejaVuSans-34"/>
       <use xlink:href="#DejaVuSans-30" x="63.623047"/>
       <use xlink:href="#DejaVuSans-30" x="127.246094"/>
       <use xlink:href="#DejaVuSans-30" x="190.869141"/>
       <use xlink:href="#DejaVuSans-30" x="254.492188"/>
      </g>
     </g>
    </g>
    <g id="ytick_5">
     <g id="line2d_21">
      <path d="M 52.88375 88.839401 
L 945.68375 88.839401 
" clip-path="url(#p4b8335b698)" style="fill: none; stroke: #546379; stroke-width: 1.12; stroke-linecap: square"/>
     </g>
     <g id="line2d_22"/>
     <g id="text_12">
      <!-- 50000 -->
      <g style="fill: #b1bed6" transform="translate(7.2 93.626417) scale(0.126 -0.126)">
       <defs>
        <path id="DejaVuSans-35" d="M 691 4666 
L 3169 4666 
L 3169 4134 
L 1269 4134 
L 1269 2991 
Q 1406 3038 1543 3061 
Q 1681 3084 1819 3084 
Q 2600 3084 3056 2656 
Q 3513 2228 3513 1497 
Q 3513 744 3044 326 
Q 2575 -91 1722 -91 
Q 1428 -91 1123 -41 
Q 819 9 494 109 
L 494 744 
Q 775 591 1075 516 
Q 1375 441 1709 441 
Q 2250 441 2565 725 
Q 2881 1009 2881 1497 
Q 2881 1984 2565 2268 
Q 2250 2553 1709 2553 
Q 1456 2553 1204 2497 
Q 953 2441 691 2322 
L 691 4666 
z
" transform="scale(0.015625)"/>
       </defs>
       <use xlink:href="#DejaVuSans-35"/>
       <use xlink:href="#DejaVuSans-30" x="63.623047"/>
       <use xlink:href="#DejaVuSans-30" x="127.246094"/>
       <use xlink:href="#DejaVuSans-30" x="190.869141"/>
       <use xlink:href="#DejaVuSans-30" x="254.492188"/>
      </g>
     </g>
    </g>
    <g id="ytick_6">
     <g id="line2d_23">
      <path d="M 52.88375 46.329102 
L 945.68375 46.329102 
" clip-path="url(#p4b8335b698)" style="fill: none; stroke: #546379; stroke-width: 1.12; stroke-linecap: square"/>
     </g>
     <g id="line2d_24"/>
     <g id="text_13">
      <!-- 60000 -->
      <g style="fill: #b1bed6" transform="translate(7.2 51.116118) scale(0.126 -0.126)">
       <defs>
        <path id="DejaVuSans-36" d="M 2113 2584 
Q 1688 2584 1439 2293 
Q 1191 2003 1191 1497 
Q 1191 994 1439 701 
Q 1688 409 2113 409 
Q 2538 409 2786 701 
Q 3034 994 3034 1497 
Q 3034 2003 2786 2293 
Q 2538 2584 2113 2584 
z
M 3366 4563 
L 3366 3988 
Q 3128 4100 2886 4159 
Q 2644 4219 2406 4219 
Q 1781 4219 1451 3797 
Q 1122 3375 1075 2522 
Q 1259 2794 1537 2939 
Q 1816 3084 2150 3084 
Q 2853 3084 3261 2657 
Q 3669 2231 3669 1497 
Q 3669 778 3244 343 
Q 2819 -91 2113 -91 
Q 1303 -91 875 529 
Q 447 1150 447 2328 
Q 447 3434 972 4092 
Q 1497 4750 2381 4750 
Q 2619 4750 2861 4703 
Q 3103 4656 3366 4563 
z
" transform="scale(0.015625)"/>
       </defs>
       <use xlink:href="#DejaVuSans-36"/>
       <use xlink:href="#DejaVuSans-30" x="63.623047"/>
       <use xlink:href="#DejaVuSans-30" x="127.246094"/>
       <use xlink:href="#DejaVuSans-30" x="190.869141"/>
       <use xlink:href="#DejaVuSans-30" x="254.492188"/>
      </g>
     </g>
    </g>
   </g>
   <g id="line2d_25">
    <path d="M 93.465568 219.431465 
L 93.465568 227.495499 
L 94.831263 227.495499 
L 94.831263 242.826116 
L 96.196958 242.826116 
L 96.196958 242.97775 
L 97.562653 242.97775 
L 97.562653 240.966715 
L 98.928348 240.966715 
L 98.928348 242.743688 
L 100.294043 242.743688 
L 100.294043 237.458638 
L 101.659739 237.458638 
L 101.659739 228.46044 
L 103.025434 228.46044 
L 103.025434 240.016993 
L 104.391129 240.016993 
L 104.391129 242.764136 
L 105.756824 242.764136 
L 105.756824 243.771843 
L 107.122519 243.771843 
L 107.122519 253.886403 
L 108.488214 253.886403 
L 108.488214 252.447004 
L 109.853909 252.447004 
L 109.853909 252.963037 
L 111.219604 252.963037 
L 111.219604 252.795801 
L 112.585299 252.795801 
L 112.585299 258.529803 
L 113.950994 258.529803 
L 113.950994 263.757677 
L 115.316689 263.757677 
L 115.316689 271.95056 
L 116.682384 271.95056 
L 116.682384 266.340815 
L 118.048079 266.340815 
L 118.048079 267.093503 
L 119.413774 267.093503 
L 119.413774 261.126672 
L 120.779469 261.126672 
L 120.779469 254.264702 
L 122.145164 254.264702 
L 122.145164 253.5839 
L 123.510859 253.5839 
L 123.510859 258.152397 
L 124.876554 258.152397 
L 124.876554 257.522564 
L 126.242249 257.522564 
L 126.242249 254.922379 
L 127.607945 254.922379 
L 127.607945 252.432508 
L 128.97364 252.432508 
L 128.97364 259.218725 
L 130.339335 259.218725 
L 130.339335 264.078035 
L 131.70503 264.078035 
L 131.70503 262.478925 
L 133.070725 262.478925 
L 133.070725 266.116319 
L 134.43642 266.116319 
L 134.43642 264.808064 
L 135.802115 264.808064 
L 135.802115 264.299088 
L 137.16781 264.299088 
L 137.16781 265.435856 
L 138.533505 265.435856 
L 138.533505 267.592616 
L 139.8992 267.592616 
L 139.8992 271.899122 
L 141.264895 271.899122 
L 141.264895 269.820708 
L 142.63059 269.820708 
L 142.63059 273.186674 
L 143.996285 273.186674 
L 143.996285 272.550167 
L 145.36198 272.550167 
L 145.36198 267.631513 
L 146.727675 267.631513 
L 146.727675 265.817854 
L 148.09337 265.817854 
L 148.09337 266.634647 
L 149.459065 266.634647 
L 149.459065 263.426649 
L 150.82476 263.426649 
L 150.82476 260.333983 
L 152.190455 260.333983 
L 152.190455 263.435364 
L 153.556151 263.435364 
L 153.556151 262.113294 
L 154.921846 262.113294 
L 154.921846 259.929115 
L 156.287541 259.929115 
L 156.287541 260.447358 
L 157.653236 260.447358 
L 157.653236 261.812236 
L 159.018931 261.812236 
L 159.018931 265.41222 
L 161.750321 265.380168 
L 161.750321 266.366322 
L 163.116016 266.366322 
L 163.116016 265.696572 
L 164.481711 265.696572 
L 164.481711 269.181779 
L 165.847406 269.181779 
L 165.847406 270.168953 
L 167.213101 270.168953 
L 167.213101 269.989729 
L 168.578796 269.989729 
L 168.578796 268.925187 
L 172.675881 269.017009 
L 172.675881 272.146745 
L 174.041576 272.146745 
L 174.041576 273.175069 
L 175.407271 273.175069 
L 175.407271 273.989651 
L 176.772966 273.989651 
L 176.772966 272.650407 
L 178.138661 272.650407 
L 178.138661 275.160087 
L 179.504357 275.160087 
L 179.504357 275.470412 
L 180.870052 275.470412 
L 180.870052 274.935548 
L 182.235747 274.935548 
L 182.235747 273.221702 
L 183.601442 273.221702 
L 183.601442 273.523228 
L 184.967137 273.523228 
L 184.967137 272.806802 
L 186.332832 272.806802 
L 186.332832 274.170787 
L 187.698527 274.170787 
L 187.698527 274.826891 
L 189.064222 274.826891 
L 189.064222 270.266471 
L 191.795612 270.209635 
L 191.795612 268.593776 
L 193.161307 268.593776 
L 193.161307 267.638527 
L 194.527002 267.638527 
L 194.527002 266.443563 
L 195.892697 266.443563 
L 195.892697 269.050337 
L 197.258392 269.050337 
L 197.258392 271.585736 
L 198.624087 271.585736 
L 198.624087 272.8315 
L 199.989782 272.8315 
L 199.989782 275.293995 
L 201.355477 275.293995 
L 201.355477 274.812905 
L 202.721172 274.812905 
L 202.721172 274.555208 
L 204.086867 274.555208 
L 204.086867 273.816252 
L 205.452563 273.816252 
L 205.452563 274.37743 
L 206.818258 274.37743 
L 206.818258 272.74631 
L 208.183953 272.74631 
L 208.183953 271.3013 
L 209.549648 271.3013 
L 209.549648 271.553853 
L 210.915343 271.553853 
L 210.915343 270.506825 
L 212.281038 270.506825 
L 212.281038 273.754144 
L 213.646733 273.754144 
L 213.646733 274.860304 
L 215.012428 274.860304 
L 215.012428 274.498712 
L 216.378123 274.498712 
L 216.378123 273.664022 
L 217.743818 273.664022 
L 217.743818 274.429208 
L 219.109513 274.429208 
L 219.109513 272.670429 
L 220.475208 272.670429 
L 220.475208 273.404454 
L 221.840903 273.404454 
L 221.840903 272.968171 
L 223.206598 272.968171 
L 223.206598 273.287253 
L 224.572293 273.287253 
L 224.572293 273.828367 
L 225.937988 273.828367 
L 225.937988 273.446242 
L 227.303683 273.446242 
L 227.303683 273.21996 
L 228.669378 273.21996 
L 228.669378 274.834713 
L 230.035073 274.834713 
L 230.035073 273.337628 
L 231.400769 273.337628 
L 231.400769 273.71835 
L 235.497854 273.802691 
L 235.497854 273.941104 
L 236.863549 273.941104 
L 236.863549 274.602565 
L 238.229244 274.602565 
L 238.229244 274.225031 
L 239.594939 274.225031 
L 239.594939 274.023787 
L 242.326329 273.993137 
L 242.326329 274.148044 
L 243.692024 274.148044 
L 243.692024 276.918696 
L 245.057719 276.918696 
L 245.057719 277.702288 
L 246.423414 277.702288 
L 246.423414 282.295356 
L 247.789109 282.295356 
L 247.789109 282.886249 
L 249.154804 282.886249 
L 249.154804 285.265253 
L 250.520499 285.265253 
L 250.520499 283.201718 
L 251.886194 283.201718 
L 251.886194 283.789083 
L 253.251889 283.789083 
L 253.251889 285.470875 
L 254.617584 285.470875 
L 254.617584 286.709285 
L 255.983279 286.709285 
L 255.983279 286.906448 
L 257.348975 286.906448 
L 257.348975 287.607273 
L 258.71467 287.607273 
L 258.71467 286.271939 
L 260.080365 286.271939 
L 260.080365 283.812081 
L 261.44606 283.812081 
L 261.44606 284.40731 
L 262.811755 284.40731 
L 262.811755 285.032041 
L 264.17745 285.032041 
L 264.17745 285.362984 
L 265.543145 285.362984 
L 265.543145 284.999436 
L 268.274535 284.99629 
L 268.274535 284.249682 
L 269.64023 284.249682 
L 269.64023 285.890579 
L 271.005925 285.890579 
L 271.005925 286.37643 
L 272.37162 286.37643 
L 272.37162 285.99609 
L 273.737315 285.99609 
L 273.737315 285.645167 
L 275.10301 285.645167 
L 275.10301 286.140965 
L 277.8344 286.181605 
L 277.8344 286.73088 
L 281.931486 286.699253 
L 281.931486 286.913165 
L 283.297181 286.913165 
L 283.297181 285.813508 
L 284.662876 285.813508 
L 284.662876 285.949371 
L 287.394266 286.052331 
L 287.394266 284.765969 
L 288.759961 284.765969 
L 288.759961 284.621094 
L 290.125656 284.621094 
L 290.125656 285.377735 
L 291.491351 285.377735 
L 291.491351 285.095722 
L 294.222741 285.103331 
L 294.222741 284.929847 
L 299.685521 284.874753 
L 299.685521 284.408373 
L 301.051216 284.408373 
L 301.051216 284.147019 
L 302.416911 284.147019 
L 302.416911 284.336105 
L 303.782606 284.336105 
L 303.782606 284.608936 
L 305.148301 284.608936 
L 305.148301 283.895571 
L 306.513996 283.895571 
L 306.513996 283.738368 
L 307.879692 283.738368 
L 307.879692 280.513069 
L 309.245387 280.513069 
L 309.245387 279.330645 
L 310.611082 279.330645 
L 310.611082 278.817163 
L 311.976777 278.817163 
L 311.976777 279.861046 
L 313.342472 279.861046 
L 313.342472 279.299783 
L 314.708167 279.299783 
L 314.708167 278.958042 
L 316.073862 278.958042 
L 316.073862 278.532302 
L 317.439557 278.532302 
L 317.439557 279.304204 
L 318.805252 279.304204 
L 318.805252 278.854955 
L 321.536642 278.747064 
L 321.536642 276.857863 
L 324.268032 276.923159 
L 324.268032 274.405274 
L 325.633727 274.405274 
L 325.633727 268.134623 
L 326.999422 268.134623 
L 326.999422 267.867445 
L 328.365117 267.867445 
L 328.365117 266.559233 
L 329.730812 266.559233 
L 329.730812 268.972841 
L 331.096507 268.972841 
L 331.096507 267.078922 
L 332.462202 267.078922 
L 332.462202 264.322426 
L 333.827898 264.322426 
L 333.827898 265.028395 
L 335.193593 265.028395 
L 335.193593 266.809109 
L 336.559288 266.809109 
L 336.559288 268.219133 
L 337.924983 268.219133 
L 337.924983 268.910435 
L 339.290678 268.910435 
L 339.290678 266.646975 
L 340.656373 266.646975 
L 340.656373 263.729025 
L 342.022068 263.729025 
L 342.022068 262.807784 
L 343.387763 262.807784 
L 343.387763 257.990517 
L 344.753458 257.990517 
L 344.753458 254.555175 
L 346.119153 254.555175 
L 346.119153 254.064819 
L 347.484848 254.064819 
L 347.484848 255.744486 
L 348.850543 255.744486 
L 348.850543 250.443324 
L 350.216238 250.443324 
L 350.216238 253.643159 
L 351.581933 253.643159 
L 351.581933 247.884119 
L 352.947628 247.884119 
L 352.947628 251.211868 
L 354.313323 251.211868 
L 354.313323 255.167323 
L 355.679018 255.167323 
L 355.679018 256.16606 
L 357.044713 256.16606 
L 357.044713 256.383501 
L 358.410408 256.383501 
L 358.410408 259.84911 
L 359.776104 259.84911 
L 359.776104 261.116682 
L 361.141799 261.116682 
L 361.141799 260.627219 
L 362.507494 260.627219 
L 362.507494 256.629465 
L 363.873189 256.629465 
L 363.873189 251.279799 
L 365.238884 251.279799 
L 365.238884 250.393799 
L 366.604579 250.393799 
L 366.604579 252.219914 
L 367.970274 252.219914 
L 367.970274 258.808501 
L 369.335969 258.808501 
L 369.335969 257.968667 
L 370.701664 257.968667 
L 370.701664 255.647435 
L 372.067359 255.647435 
L 372.067359 257.155488 
L 373.433054 257.155488 
L 373.433054 257.349037 
L 374.798749 257.349037 
L 374.798749 261.071791 
L 376.164444 261.071791 
L 376.164444 259.859228 
L 377.530139 259.859228 
L 377.530139 256.397316 
L 378.895834 256.397316 
L 378.895834 256.809454 
L 380.261529 256.809454 
L 380.261529 258.451116 
L 381.627224 258.451116 
L 381.627224 257.333648 
L 382.992919 257.333648 
L 382.992919 257.751397 
L 385.72431 257.707824 
L 385.72431 258.740101 
L 387.090005 258.740101 
L 387.090005 265.545235 
L 388.4557 265.545235 
L 388.4557 266.426176 
L 389.821395 266.426176 
L 389.821395 266.009915 
L 391.18709 266.009915 
L 391.18709 266.721708 
L 392.552785 266.721708 
L 392.552785 266.481354 
L 393.91848 266.481354 
L 393.91848 264.887728 
L 395.284175 264.887728 
L 395.284175 266.176386 
L 396.64987 266.176386 
L 396.64987 267.371988 
L 398.015565 267.371988 
L 398.015565 267.552529 
L 399.38126 267.552529 
L 399.38126 267.2689 
L 400.746955 267.2689 
L 400.746955 264.548114 
L 402.11265 264.548114 
L 402.11265 262.201673 
L 403.478345 262.201673 
L 403.478345 262.502561 
L 404.84404 262.502561 
L 404.84404 262.255236 
L 406.209735 262.255236 
L 406.209735 261.672079 
L 407.57543 261.672079 
L 407.57543 263.941832 
L 410.30682 263.975372 
L 410.30682 265.437004 
L 411.672516 265.437004 
L 411.672516 266.634519 
L 413.038211 266.634519 
L 413.038211 269.010505 
L 414.403906 269.010505 
L 414.403906 272.027333 
L 415.769601 272.027333 
L 415.769601 269.406871 
L 417.135296 269.406871 
L 417.135296 269.262803 
L 418.500991 269.262803 
L 418.500991 270.37211 
L 419.866686 270.37211 
L 419.866686 269.307567 
L 421.232381 269.307567 
L 421.232381 270.199305 
L 422.598076 270.199305 
L 422.598076 270.829563 
L 423.963771 270.829563 
L 423.963771 271.161228 
L 425.329466 271.161228 
L 425.329466 270.425162 
L 426.695161 270.425162 
L 426.695161 271.02494 
L 428.060856 271.02494 
L 428.060856 270.567997 
L 430.792246 270.596734 
L 430.792246 270.700162 
L 432.157941 270.700162 
L 432.157941 271.870343 
L 433.523636 271.870343 
L 433.523636 270.139153 
L 434.889331 270.139153 
L 434.889331 267.201351 
L 437.620722 267.291303 
L 437.620722 263.801505 
L 438.986417 263.801505 
L 438.986417 263.555286 
L 440.352112 263.555286 
L 440.352112 264.719515 
L 441.717807 264.719515 
L 441.717807 265.732791 
L 443.083502 265.732791 
L 443.083502 264.881267 
L 444.449197 264.881267 
L 444.449197 261.942147 
L 445.814892 261.942147 
L 445.814892 261.524356 
L 447.180587 261.524356 
L 447.180587 262.442366 
L 448.546282 262.442366 
L 448.546282 259.698751 
L 449.911977 259.698751 
L 449.911977 259.49789 
L 451.277672 259.49789 
L 451.277672 257.850021 
L 452.643367 257.850021 
L 452.643367 259.145565 
L 454.009062 259.145565 
L 454.009062 260.560945 
L 455.374757 260.560945 
L 455.374757 260.285011 
L 456.740452 260.285011 
L 456.740452 261.817422 
L 458.106147 261.817422 
L 458.106147 264.354437 
L 459.471842 264.354437 
L 459.471842 263.502233 
L 460.837537 263.502233 
L 460.837537 262.845151 
L 462.203233 262.845151 
L 462.203233 267.215252 
L 463.568928 267.215252 
L 463.568928 267.651961 
L 464.934623 267.651961 
L 464.934623 279.428971 
L 466.300318 279.428971 
L 466.300318 278.615537 
L 467.666013 278.615537 
L 467.666013 274.922114 
L 469.031708 274.922114 
L 469.031708 273.75002 
L 470.397403 273.75002 
L 470.397403 272.637994 
L 471.763098 272.637994 
L 471.763098 276.371843 
L 473.128793 276.371843 
L 473.128793 273.109348 
L 474.494488 273.109348 
L 474.494488 272.179137 
L 475.860183 272.179137 
L 475.860183 270.759889 
L 477.225878 270.759889 
L 477.225878 272.172548 
L 479.957268 272.238779 
L 479.957268 271.156425 
L 484.054353 271.076845 
L 484.054353 269.297662 
L 485.420048 269.297662 
L 485.420048 268.380247 
L 486.785743 268.380247 
L 486.785743 263.877003 
L 488.151439 263.877003 
L 488.151439 263.616543 
L 489.517134 263.616543 
L 489.517134 258.870055 
L 490.882829 258.870055 
L 490.882829 264.175426 
L 492.248524 264.175426 
L 492.248524 261.83111 
L 493.614219 261.83111 
L 493.614219 261.492006 
L 494.979914 261.492006 
L 494.979914 259.791424 
L 496.345609 259.791424 
L 496.345609 262.420601 
L 497.711304 262.420601 
L 497.711304 263.558176 
L 499.076999 263.558176 
L 499.076999 260.711899 
L 500.442694 260.711899 
L 500.442694 261.215094 
L 501.808389 261.215094 
L 501.808389 260.33428 
L 504.539779 260.28161 
L 504.539779 259.836442 
L 505.905474 259.836442 
L 505.905474 261.176282 
L 507.271169 261.176282 
L 507.271169 261.317713 
L 508.636864 261.317713 
L 508.636864 261.516109 
L 510.002559 261.516109 
L 510.002559 261.92102 
L 512.733949 261.955878 
L 512.733949 263.113646 
L 514.099645 263.113646 
L 514.099645 262.562117 
L 515.46534 262.562117 
L 515.46534 262.823768 
L 516.831035 262.823768 
L 516.831035 261.648401 
L 518.19673 261.648401 
L 518.19673 262.119713 
L 519.562425 262.119713 
L 519.562425 261.873748 
L 520.92812 261.873748 
L 520.92812 262.309011 
L 523.65951 262.38893 
L 523.65951 261.462419 
L 525.025205 261.462419 
L 525.025205 260.78812 
L 526.3909 260.78812 
L 526.3909 254.449324 
L 527.756595 254.449324 
L 527.756595 254.140997 
L 529.12229 254.140997 
L 529.12229 254.298965 
L 530.487985 254.298965 
L 530.487985 251.440105 
L 533.219375 251.366478 
L 533.219375 252.961336 
L 534.58507 252.961336 
L 534.58507 251.337656 
L 535.950765 251.337656 
L 535.950765 249.129926 
L 537.31646 249.129926 
L 537.31646 250.948941 
L 538.682155 250.948941 
L 538.682155 251.853561 
L 540.047851 251.853561 
L 540.047851 252.642764 
L 542.779241 252.582102 
L 542.779241 250.704805 
L 544.144936 250.704805 
L 544.144936 256.891584 
L 545.510631 256.891584 
L 545.510631 257.317324 
L 548.242021 257.38143 
L 548.242021 257.474485 
L 549.607716 257.474485 
L 549.607716 254.848794 
L 550.973411 254.848794 
L 550.973411 254.283407 
L 552.339106 254.283407 
L 552.339106 256.618115 
L 553.704801 256.618115 
L 553.704801 255.935314 
L 556.436191 255.937482 
L 556.436191 256.24819 
L 557.801886 256.24819 
L 557.801886 256.017699 
L 560.533276 256.029007 
L 560.533276 253.342909 
L 561.898971 253.342909 
L 561.898971 252.809107 
L 563.264666 252.809107 
L 563.264666 253.237058 
L 564.630361 253.237058 
L 564.630361 251.406607 
L 565.996057 251.406607 
L 565.996057 246.168956 
L 567.361752 246.168956 
L 567.361752 245.971198 
L 568.727447 245.971198 
L 568.727447 244.898961 
L 570.093142 244.898961 
L 570.093142 242.682814 
L 571.458837 242.682814 
L 571.458837 241.777387 
L 572.824532 241.777387 
L 572.824532 235.092812 
L 574.190227 235.092812 
L 574.190227 236.228858 
L 575.555922 236.228858 
L 575.555922 232.117942 
L 576.921617 232.117942 
L 576.921617 233.509771 
L 578.287312 233.509771 
L 578.287312 225.729154 
L 579.653007 225.729154 
L 579.653007 221.8977 
L 581.018702 221.8977 
L 581.018702 219.887941 
L 582.384397 219.887941 
L 582.384397 228.533048 
L 583.750092 228.533048 
L 583.750092 217.604245 
L 585.115787 217.604245 
L 585.115787 218.689066 
L 586.481482 218.689066 
L 586.481482 219.015885 
L 587.847177 219.015885 
L 587.847177 222.51665 
L 589.212872 222.51665 
L 589.212872 221.456911 
L 590.578567 221.456911 
L 590.578567 218.751938 
L 591.944263 218.751938 
L 591.944263 202.976196 
L 593.309958 202.976196 
L 593.309958 204.699181 
L 594.675653 204.699181 
L 594.675653 200.57547 
L 596.041348 200.57547 
L 596.041348 189.8159 
L 597.407043 189.8159 
L 597.407043 178.72067 
L 598.772738 178.72067 
L 598.772738 164.527034 
L 600.138433 164.527034 
L 600.138433 156.657484 
L 601.504128 156.657484 
L 601.504128 128.500448 
L 602.869823 128.500448 
L 602.869823 150.288294 
L 604.235518 150.288294 
L 604.235518 134.92707 
L 605.601213 134.92707 
L 605.601213 149.233741 
L 606.966908 149.233741 
L 606.966908 150.31363 
L 608.332603 150.31363 
L 608.332603 164.933942 
L 609.698298 164.933942 
L 609.698298 163.054732 
L 611.063993 163.054732 
L 611.063993 155.519951 
L 612.429688 155.519951 
L 612.429688 158.884046 
L 613.795383 158.884046 
L 613.795383 144.093906 
L 615.161078 144.093906 
L 615.161078 135.906379 
L 616.526774 135.906379 
L 616.526774 110.612454 
L 617.892469 110.612454 
L 617.892469 100.805243 
L 619.258164 100.805243 
L 619.258164 92.409841 
L 620.623859 92.409841 
L 620.623859 63.688183 
L 621.989554 63.688183 
L 621.989554 71.310705 
L 623.355249 71.310705 
L 623.355249 102.440912 
L 624.720944 102.440912 
L 624.720944 109.610274 
L 626.086639 109.610274 
L 626.086639 86.808684 
L 627.452334 86.808684 
L 627.452334 93.593796 
L 628.818029 93.593796 
L 628.818029 68.087914 
L 630.183724 68.087914 
L 630.183724 58.005491 
L 631.549419 58.005491 
L 631.549419 64.375915 
L 632.915114 64.375915 
L 632.915114 56.251431 
L 634.280809 56.251431 
L 634.280809 57.334296 
L 635.646504 57.334296 
L 635.646504 78.176841 
L 637.012199 78.176841 
L 637.012199 63.91166 
L 638.377894 63.91166 
L 638.377894 51.727358 
L 639.743589 51.727358 
L 639.743589 50.44699 
L 642.47498 50.350151 
L 642.47498 54.624605 
L 643.840675 54.624605 
L 643.840675 46.478441 
L 645.20637 46.478441 
L 645.20637 33.707284 
L 646.572065 33.707284 
L 646.572065 45.95888 
L 647.93776 45.95888 
L 647.93776 61.174081 
L 649.303455 61.174081 
L 649.303455 83.937411 
L 650.66915 83.937411 
L 650.66915 71.594503 
L 652.034845 71.594503 
L 652.034845 73.603073 
L 653.40054 73.603073 
L 653.40054 60.738138 
L 654.766235 60.738138 
L 654.766235 57.070477 
L 656.13193 57.070477 
L 656.13193 50.882763 
L 657.497625 50.882763 
L 657.497625 60.144949 
L 658.86332 60.144949 
L 658.86332 89.168771 
L 660.229015 89.168771 
L 660.229015 116.061977 
L 661.59471 116.061977 
L 661.59471 128.015533 
L 662.960405 128.015533 
L 662.960405 153.648308 
L 664.3261 153.648308 
L 664.3261 134.469786 
L 665.691795 134.469786 
L 665.691795 154.102615 
L 667.05749 154.102615 
L 667.05749 145.536918 
L 668.423186 145.536918 
L 668.423186 144.589491 
L 669.788881 144.589491 
L 669.788881 158.918182 
L 671.154576 158.918182 
L 671.154576 145.358672 
L 672.520271 145.358672 
L 672.520271 135.316677 
L 673.885966 135.316677 
L 673.885966 138.470728 
L 675.251661 138.470728 
L 675.251661 150.376588 
L 676.617356 150.376588 
L 676.617356 163.455221 
L 677.983051 163.455221 
L 677.983051 166.885845 
L 679.348746 166.885845 
L 679.348746 154.914562 
L 680.714441 154.914562 
L 680.714441 158.824617 
L 682.080136 158.824617 
L 682.080136 151.290007 
L 683.445831 151.290007 
L 683.445831 157.540126 
L 684.811526 157.540126 
L 684.811526 158.915206 
L 686.177221 158.915206 
L 686.177221 162.439353 
L 687.542916 162.439353 
L 687.542916 167.818223 
L 688.908611 167.818223 
L 688.908611 170.391414 
L 690.274306 170.391414 
L 690.274306 164.091601 
L 691.640001 164.091601 
L 691.640001 151.052374 
L 693.005696 151.052374 
L 693.005696 131.338945 
L 694.371392 131.338945 
L 694.371392 124.296987 
L 695.737087 124.296987 
L 695.737087 139.265118 
L 697.102782 139.265118 
L 697.102782 119.336503 
L 698.468477 119.336503 
L 698.468477 104.425973 
L 699.834172 104.425973 
L 699.834172 112.569586 
L 701.199867 112.569586 
L 701.199867 101.352691 
L 702.565562 101.352691 
L 702.565562 111.038875 
L 703.931257 111.038875 
L 703.931257 93.379416 
L 705.296952 93.379416 
L 705.296952 98.427259 
L 706.662647 98.427259 
L 706.662647 92.848718 
L 708.028342 92.848718 
L 708.028342 101.274642 
L 709.394037 101.274642 
L 709.394037 91.6918 
L 710.759732 91.6918 
L 710.759732 81.319074 
L 712.125427 81.319074 
L 712.125427 105.510325 
L 713.491122 105.510325 
L 713.491122 109.479044 
L 714.856817 109.479044 
L 714.856817 101.285907 
L 716.222512 101.285907 
L 716.222512 100.47192 
L 717.588207 100.47192 
L 717.588207 119.015082 
L 718.953902 119.015082 
L 718.953902 110.566585 
L 720.319598 110.566585 
L 720.319598 117.820245 
L 721.685293 117.820245 
L 721.685293 124.878018 
L 723.050988 124.878018 
L 723.050988 98.501567 
L 724.416683 98.501567 
L 724.416683 82.438073 
L 725.782378 82.438073 
L 725.782378 72.399393 
L 727.148073 72.399393 
L 727.148073 57.160684 
L 728.513768 57.160684 
L 728.513768 57.391387 
L 729.879463 57.391387 
L 729.879463 39.756117 
L 731.245158 39.756117 
L 731.245158 20.552727 
L 732.610853 20.552727 
L 732.610853 40.899347 
L 733.976548 40.899347 
L 733.976548 44.861774 
L 735.342243 44.861774 
L 735.342243 36.767771 
L 736.707938 36.767771 
L 736.707938 41.952667 
L 738.073633 41.952667 
L 738.073633 40.19984 
L 739.439328 40.19984 
L 739.439328 32.329525 
L 740.805023 32.329525 
L 740.805023 25.172874 
L 742.170718 25.172874 
L 742.170718 27.535554 
L 743.536413 27.535554 
L 743.536413 45.59682 
L 744.902108 45.59682 
L 744.902108 54.26569 
L 746.267804 54.26569 
L 746.267804 62.051451 
L 747.633499 62.051451 
L 747.633499 50.854536 
L 748.999194 50.854536 
L 748.999194 57.839701 
L 750.364889 57.839701 
L 750.364889 58.105475 
L 751.730584 58.105475 
L 751.730584 92.011265 
L 753.096279 92.011265 
L 753.096279 86.095744 
L 754.461974 86.095744 
L 754.461974 101.008145 
L 755.827669 101.008145 
L 755.827669 102.625109 
L 757.193364 102.625109 
L 757.193364 98.793698 
L 758.559059 98.793698 
L 758.559059 102.913371 
L 759.924754 102.913371 
L 759.924754 94.670327 
L 761.290449 94.670327 
L 761.290449 86.837634 
L 762.656144 86.837634 
L 762.656144 99.036517 
L 764.021839 99.036517 
L 764.021839 104.782634 
L 765.387534 104.782634 
L 765.387534 103.964608 
L 766.753229 103.964608 
L 766.753229 118.083809 
L 768.118924 118.083809 
L 768.118924 123.42391 
L 769.484619 123.42391 
L 769.484619 114.660157 
L 770.850315 114.660157 
L 770.850315 117.973707 
L 772.21601 117.973707 
L 772.21601 121.225958 
L 773.581705 121.225958 
L 773.581705 146.309712 
L 774.9474 146.309712 
L 774.9474 145.468136 
L 776.313095 145.468136 
L 776.313095 143.478527 
L 777.67879 143.478527 
L 777.67879 140.197709 
L 779.044485 140.197709 
L 779.044485 144.47399 
L 780.41018 144.47399 
L 780.41018 125.247645 
L 781.775875 125.247645 
L 781.775875 113.779004 
L 783.14157 113.779004 
L 783.14157 121.14183 
L 784.507265 121.14183 
L 784.507265 120.378047 
L 785.87296 120.378047 
L 785.87296 128.944935 
L 787.238655 128.944935 
L 787.238655 138.226507 
L 788.60435 138.226507 
L 788.60435 142.8637 
L 789.970045 142.8637 
L 789.970045 135.159006 
L 791.33574 135.159006 
L 791.33574 112.565122 
L 792.701435 112.565122 
L 792.701435 135.000272 
L 794.06713 135.000272 
L 794.06713 139.713602 
L 795.432825 139.713602 
L 795.432825 133.739247 
L 796.798521 133.739247 
L 796.798521 140.615288 
L 798.164216 140.615288 
L 798.164216 126.532944 
L 799.529911 126.532944 
L 799.529911 121.902552 
L 800.895606 121.902552 
L 800.895606 121.263409 
L 802.261301 121.263409 
L 802.261301 112.924334 
L 803.626996 112.924334 
L 803.626996 101.099669 
L 804.992691 101.099669 
L 804.992691 107.802311 
L 806.358386 107.802311 
L 806.358386 104.034623 
L 807.724081 104.034623 
L 807.724081 117.78815 
L 809.089776 117.78815 
L 809.089776 119.499147 
L 810.455471 119.499147 
L 810.455471 130.915245 
L 811.821166 130.915245 
L 811.821166 128.942767 
L 813.186861 128.942767 
L 813.186861 127.924561 
L 814.552556 127.924561 
L 814.552556 129.164629 
L 815.918251 129.164629 
L 815.918251 133.621578 
L 817.283946 133.621578 
L 817.283946 134.541034 
L 818.649641 134.541034 
L 818.649641 141.292052 
L 820.015336 141.292052 
L 820.015336 141.011484 
L 821.381031 141.011484 
L 821.381031 148.298429 
L 822.746727 148.298429 
L 822.746727 173.113051 
L 824.112422 173.113051 
L 824.112422 178.403756 
L 825.478117 178.403756 
L 825.478117 168.429607 
L 826.843812 168.429607 
L 826.843812 179.467236 
L 828.209507 179.467236 
L 828.209507 176.368447 
L 829.575202 176.368447 
L 829.575202 175.413454 
L 830.940897 175.413454 
L 830.940897 179.901181 
L 832.306592 179.901181 
L 832.306592 166.567018 
L 833.672287 166.567018 
L 833.672287 172.032567 
L 835.037982 172.032567 
L 835.037982 174.279364 
L 836.403677 174.279364 
L 836.403677 173.055492 
L 837.769372 173.055492 
L 837.769372 180.89758 
L 839.135067 180.89758 
L 839.135067 207.063562 
L 840.500762 207.063562 
L 840.500762 214.522164 
L 841.866457 214.522164 
L 841.866457 213.894967 
L 843.232152 213.894967 
L 843.232152 211.743903 
L 844.597847 211.743903 
L 844.597847 212.034078 
L 845.963542 212.034078 
L 845.963542 216.005008 
L 847.329237 216.005008 
L 847.329237 219.66591 
L 848.694933 219.66591 
L 848.694933 215.596994 
L 850.060628 215.596994 
L 850.060628 209.413701 
L 851.426323 209.413701 
L 851.426323 216.598537 
L 852.792018 216.598537 
L 852.792018 213.951888 
L 854.157713 213.951888 
L 854.157713 213.079024 
L 855.523408 213.079024 
L 855.523408 202.65129 
L 856.889103 202.65129 
L 856.889103 205.905538 
L 858.254798 205.905538 
L 858.254798 210.982841 
L 859.620493 210.982841 
L 859.620493 200.250393 
L 860.986188 200.250393 
L 860.986188 202.346406 
L 862.351883 202.346406 
L 862.351883 205.282338 
L 863.717578 205.282338 
L 863.717578 202.876467 
L 865.083273 202.876467 
L 865.083273 199.53656 
L 866.448968 199.53656 
L 866.448968 197.465416 
L 867.814663 197.465416 
L 867.814663 199.892074 
L 869.180358 199.892074 
L 869.180358 212.785745 
L 870.546053 212.785745 
L 870.546053 210.406401 
L 871.911748 210.406401 
L 871.911748 209.577451 
L 873.277443 209.577451 
L 873.277443 218.282965 
L 874.643139 218.282965 
L 874.643139 216.16761 
L 876.008834 216.16761 
L 876.008834 217.071974 
L 877.374529 217.071974 
L 877.374529 221.443053 
L 878.740224 221.443053 
L 878.740224 210.471655 
L 880.105919 210.471655 
L 880.105919 206.198817 
L 881.471614 206.198817 
L 881.471614 217.668181 
L 882.837309 217.668181 
L 882.837309 218.853495 
L 884.203004 218.853495 
L 884.203004 222.715556 
L 885.568699 222.715556 
L 885.568699 220.911292 
L 886.934394 220.911292 
L 886.934394 220.175438 
L 888.300089 220.175438 
L 888.300089 218.805289 
L 889.665784 218.805289 
L 889.665784 217.932085 
L 891.031479 217.932085 
L 891.031479 216.555261 
L 892.397174 216.555261 
L 892.397174 218.742884 
L 893.762869 218.742884 
L 893.762869 219.957275 
L 895.128564 219.957275 
L 895.128564 220.353089 
L 896.494259 220.353089 
L 896.494259 219.215343 
L 897.859954 219.215343 
L 897.859954 219.892957 
L 899.225649 219.892957 
L 899.225649 219.180655 
L 900.591345 219.180655 
L 900.591345 215.143792 
L 901.95704 215.143792 
L 901.95704 213.698527 
L 903.322735 213.698527 
L 903.322735 215.715683 
L 904.68843 215.715683 
L 904.68843 215.255072 
L 905.101932 215.255072 
L 905.101932 215.255072 
" clip-path="url(#p4b8335b698)" style="fill: none; stroke: #3572c6; stroke-width: 1.2; stroke-linecap: square"/>
   </g>
   <g id="patch_3">
    <path d="M 52.88375 300.96 
L 52.88375 7.2 
" style="fill: none; stroke: #899ab8; stroke-width: 1.12; stroke-linejoin: miter; stroke-linecap: square"/>
   </g>
   <g id="patch_4">
    <path d="M 945.68375 300.96 
L 945.68375 7.2 
" style="fill: none; stroke: #899ab8; stroke-width: 1.12; stroke-linejoin: miter; stroke-linecap: square"/>
   </g>
   <g id="patch_5">
    <path d="M 52.88375 300.96 
L 945.68375 300.96 
" style="fill: none; stroke: #899ab8; stroke-width: 1.12; stroke-linejoin: miter; stroke-linecap: square"/>
   </g>
   <g id="patch_6">
    <path d="M 52.88375 7.2 
L 945.68375 7.2 
" style="fill: none; stroke: #899ab8; stroke-width: 1.12; stroke-linejoin: miter; stroke-linecap: square"/>
   </g>
  </g>
 </g>
 <defs>
  <clipPath id="p4b8335b698">
   <rect x="52.88375" y="7.2" width="892.8" height="293.76"/>
  </clipPath>
 </defs>
</svg>
