<?xml version="1.0" encoding="utf-8" standalone="no"?>
<!DOCTYPE svg PUBLIC "-//W3C//DTD SVG 1.1//EN"
  "http://www.w3.org/Graphics/SVG/1.1/DTD/svg11.dtd">
<svg xmlns:xlink="http://www.w3.org/1999/xlink" width="934.976pt" height="358.290693pt" viewBox="0 0 934.976 358.290693" xmlns="http://www.w3.org/2000/svg" version="1.1">
 <metadata>
  <rdf:RDF xmlns:dc="http://purl.org/dc/elements/1.1/" xmlns:cc="http://creativecommons.org/ns#" xmlns:rdf="http://www.w3.org/1999/02/22-rdf-syntax-ns#">
   <cc:Work>
    <dc:type rdf:resource="http://purl.org/dc/dcmitype/StillImage"/>
    <dc:date>2024-05-28T23:17:29.353498</dc:date>
    <dc:format>image/svg+xml</dc:format>
    <dc:creator>
     <cc:Agent>
      <dc:title>Matplotlib v3.9.0, https://matplotlib.org/</dc:title>
     </cc:Agent>
    </dc:creator>
   </cc:Work>
  </rdf:RDF>
 </metadata>
 <defs>
  <style type="text/css">*{stroke-linejoin: round; stroke-linecap: butt}</style>
 </defs>
 <g id="figure_1">
  <g id="patch_1">
   <path d="M 0 358.290693 
L 934.976 358.290693 
L 934.976 0 
L 0 0 
z
" style="fill: #373e4b"/>
  </g>
  <g id="axes_1">
   <g id="patch_2">
    <path d="M 34.976 300.96 
L 927.776 300.96 
L 927.776 7.2 
L 34.976 7.2 
z
" style="fill: #373e4b"/>
   </g>
   <g id="matplotlib.axis_1">
    <g id="xtick_1">
     <g id="line2d_1">
      <path d="M 145.145779 300.96 
L 145.145779 7.2 
" clip-path="url(#pd114a7e315)" style="fill: none; stroke: #546379; stroke-width: 1.12; stroke-linecap: square"/>
     </g>
     <g id="line2d_2"/>
     <g id="text_1">
      <!-- 2012 -->
      <g style="fill: #b1bed6" transform="translate(116.064739 330.884854) rotate(-30) scale(0.126 -0.126)">
       <defs>
        <path id="DejaVuSans-32" d="M 1228 531 
L 3431 531 
L 3431 0 
L 469 0 
L 469 531 
Q 828 903 1448 1529 
Q 2069 2156 2228 2338 
Q 2531 2678 2651 2914 
Q 2772 3150 2772 3378 
Q 2772 3750 2511 3984 
Q 2250 4219 1831 4219 
Q 1534 4219 1204 4116 
Q 875 4013 500 3803 
L 500 4441 
Q 881 4594 1212 4672 
Q 1544 4750 1819 4750 
Q 2544 4750 2975 4387 
Q 3406 4025 3406 3419 
Q 3406 3131 3298 2873 
Q 3191 2616 2906 2266 
Q 2828 2175 2409 1742 
Q 1991 1309 1228 531 
z
" transform="scale(0.015625)"/>
        <path id="DejaVuSans-30" d="M 2034 4250 
Q 1547 4250 1301 3770 
Q 1056 3291 1056 2328 
Q 1056 1369 1301 889 
Q 1547 409 2034 409 
Q 2525 409 2770 889 
Q 3016 1369 3016 2328 
Q 3016 3291 2770 3770 
Q 2525 4250 2034 4250 
z
M 2034 4750 
Q 2819 4750 3233 4129 
Q 3647 3509 3647 2328 
Q 3647 1150 3233 529 
Q 2819 -91 2034 -91 
Q 1250 -91 836 529 
Q 422 1150 422 2328 
Q 422 3509 836 4129 
Q 1250 4750 2034 4750 
z
" transform="scale(0.015625)"/>
        <path id="DejaVuSans-31" d="M 794 531 
L 1825 531 
L 1825 4091 
L 703 3866 
L 703 4441 
L 1819 4666 
L 2450 4666 
L 2450 531 
L 3481 531 
L 3481 0 
L 794 0 
L 794 531 
z
" transform="scale(0.015625)"/>
       </defs>
       <use xlink:href="#DejaVuSans-32"/>
       <use xlink:href="#DejaVuSans-30" x="63.623047"/>
       <use xlink:href="#DejaVuSans-31" x="127.246094"/>
       <use xlink:href="#DejaVuSans-32" x="190.869141"/>
      </g>
     </g>
    </g>
    <g id="xtick_2">
     <g id="line2d_3">
      <path d="M 264.83707 300.96 
L 264.83707 7.2 
" clip-path="url(#pd114a7e315)" style="fill: none; stroke: #546379; stroke-width: 1.12; stroke-linecap: square"/>
     </g>
     <g id="line2d_4"/>
     <g id="text_2">
      <!-- 2014 -->
      <g style="fill: #b1bed6" transform="translate(235.756031 330.884854) rotate(-30) scale(0.126 -0.126)">
       <defs>
        <path id="DejaVuSans-34" d="M 2419 4116 
L 825 1625 
L 2419 1625 
L 2419 4116 
z
M 2253 4666 
L 3047 4666 
L 3047 1625 
L 3713 1625 
L 3713 1100 
L 3047 1100 
L 3047 0 
L 2419 0 
L 2419 1100 
L 313 1100 
L 313 1709 
L 2253 4666 
z
" transform="scale(0.015625)"/>
       </defs>
       <use xlink:href="#DejaVuSans-32"/>
       <use xlink:href="#DejaVuSans-30" x="63.623047"/>
       <use xlink:href="#DejaVuSans-31" x="127.246094"/>
       <use xlink:href="#DejaVuSans-34" x="190.869141"/>
      </g>
     </g>
    </g>
    <g id="xtick_3">
     <g id="line2d_5">
      <path d="M 384.364626 300.96 
L 384.364626 7.2 
" clip-path="url(#pd114a7e315)" style="fill: none; stroke: #546379; stroke-width: 1.12; stroke-linecap: square"/>
     </g>
     <g id="line2d_6"/>
     <g id="text_3">
      <!-- 2016 -->
      <g style="fill: #b1bed6" transform="translate(355.283586 330.884854) rotate(-30) scale(0.126 -0.126)">
       <defs>
        <path id="DejaVuSans-36" d="M 2113 2584 
Q 1688 2584 1439 2293 
Q 1191 2003 1191 1497 
Q 1191 994 1439 701 
Q 1688 409 2113 409 
Q 2538 409 2786 701 
Q 3034 994 3034 1497 
Q 3034 2003 2786 2293 
Q 2538 2584 2113 2584 
z
M 3366 4563 
L 3366 3988 
Q 3128 4100 2886 4159 
Q 2644 4219 2406 4219 
Q 1781 4219 1451 3797 
Q 1122 3375 1075 2522 
Q 1259 2794 1537 2939 
Q 1816 3084 2150 3084 
Q 2853 3084 3261 2657 
Q 3669 2231 3669 1497 
Q 3669 778 3244 343 
Q 2819 -91 2113 -91 
Q 1303 -91 875 529 
Q 447 1150 447 2328 
Q 447 3434 972 4092 
Q 1497 4750 2381 4750 
Q 2619 4750 2861 4703 
Q 3103 4656 3366 4563 
z
" transform="scale(0.015625)"/>
       </defs>
       <use xlink:href="#DejaVuSans-32"/>
       <use xlink:href="#DejaVuSans-30" x="63.623047"/>
       <use xlink:href="#DejaVuSans-31" x="127.246094"/>
       <use xlink:href="#DejaVuSans-36" x="190.869141"/>
      </g>
     </g>
    </g>
    <g id="xtick_4">
     <g id="line2d_7">
      <path d="M 504.055918 300.96 
L 504.055918 7.2 
" clip-path="url(#pd114a7e315)" style="fill: none; stroke: #546379; stroke-width: 1.12; stroke-linecap: square"/>
     </g>
     <g id="line2d_8"/>
     <g id="text_4">
      <!-- 2018 -->
      <g style="fill: #b1bed6" transform="translate(474.974878 330.884854) rotate(-30) scale(0.126 -0.126)">
       <defs>
        <path id="DejaVuSans-38" d="M 2034 2216 
Q 1584 2216 1326 1975 
Q 1069 1734 1069 1313 
Q 1069 891 1326 650 
Q 1584 409 2034 409 
Q 2484 409 2743 651 
Q 3003 894 3003 1313 
Q 3003 1734 2745 1975 
Q 2488 2216 2034 2216 
z
M 1403 2484 
Q 997 2584 770 2862 
Q 544 3141 544 3541 
Q 544 4100 942 4425 
Q 1341 4750 2034 4750 
Q 2731 4750 3128 4425 
Q 3525 4100 3525 3541 
Q 3525 3141 3298 2862 
Q 3072 2584 2669 2484 
Q 3125 2378 3379 2068 
Q 3634 1759 3634 1313 
Q 3634 634 3220 271 
Q 2806 -91 2034 -91 
Q 1263 -91 848 271 
Q 434 634 434 1313 
Q 434 1759 690 2068 
Q 947 2378 1403 2484 
z
M 1172 3481 
Q 1172 3119 1398 2916 
Q 1625 2713 2034 2713 
Q 2441 2713 2670 2916 
Q 2900 3119 2900 3481 
Q 2900 3844 2670 4047 
Q 2441 4250 2034 4250 
Q 1625 4250 1398 4047 
Q 1172 3844 1172 3481 
z
" transform="scale(0.015625)"/>
       </defs>
       <use xlink:href="#DejaVuSans-32"/>
       <use xlink:href="#DejaVuSans-30" x="63.623047"/>
       <use xlink:href="#DejaVuSans-31" x="127.246094"/>
       <use xlink:href="#DejaVuSans-38" x="190.869141"/>
      </g>
     </g>
    </g>
    <g id="xtick_5">
     <g id="line2d_9">
      <path d="M 623.583473 300.96 
L 623.583473 7.2 
" clip-path="url(#pd114a7e315)" style="fill: none; stroke: #546379; stroke-width: 1.12; stroke-linecap: square"/>
     </g>
     <g id="line2d_10"/>
     <g id="text_5">
      <!-- 2020 -->
      <g style="fill: #b1bed6" transform="translate(594.502434 330.884854) rotate(-30) scale(0.126 -0.126)">
       <use xlink:href="#DejaVuSans-32"/>
       <use xlink:href="#DejaVuSans-30" x="63.623047"/>
       <use xlink:href="#DejaVuSans-32" x="127.246094"/>
       <use xlink:href="#DejaVuSans-30" x="190.869141"/>
      </g>
     </g>
    </g>
    <g id="xtick_6">
     <g id="line2d_11">
      <path d="M 743.274765 300.96 
L 743.274765 7.2 
" clip-path="url(#pd114a7e315)" style="fill: none; stroke: #546379; stroke-width: 1.12; stroke-linecap: square"/>
     </g>
     <g id="line2d_12"/>
     <g id="text_6">
      <!-- 2022 -->
      <g style="fill: #b1bed6" transform="translate(714.193725 330.884854) rotate(-30) scale(0.126 -0.126)">
       <use xlink:href="#DejaVuSans-32"/>
       <use xlink:href="#DejaVuSans-30" x="63.623047"/>
       <use xlink:href="#DejaVuSans-32" x="127.246094"/>
       <use xlink:href="#DejaVuSans-32" x="190.869141"/>
      </g>
     </g>
    </g>
    <g id="xtick_7">
     <g id="line2d_13">
      <path d="M 862.802321 300.96 
L 862.802321 7.2 
" clip-path="url(#pd114a7e315)" style="fill: none; stroke: #546379; stroke-width: 1.12; stroke-linecap: square"/>
     </g>
     <g id="line2d_14"/>
     <g id="text_7">
      <!-- 2024 -->
      <g style="fill: #b1bed6" transform="translate(833.721281 330.884854) rotate(-30) scale(0.126 -0.126)">
       <use xlink:href="#DejaVuSans-32"/>
       <use xlink:href="#DejaVuSans-30" x="63.623047"/>
       <use xlink:href="#DejaVuSans-32" x="127.246094"/>
       <use xlink:href="#DejaVuSans-34" x="190.869141"/>
      </g>
     </g>
    </g>
    <g id="text_8">
     <!-- Date -->
     <g style="fill: #b1bed6" transform="translate(464.166875 348.095943) scale(0.144 -0.144)">
      <defs>
       <path id="DejaVuSans-44" d="M 1259 4147 
L 1259 519 
L 2022 519 
Q 2988 519 3436 956 
Q 3884 1394 3884 2338 
Q 3884 3275 3436 3711 
Q 2988 4147 2022 4147 
L 1259 4147 
z
M 628 4666 
L 1925 4666 
Q 3281 4666 3915 4102 
Q 4550 3538 4550 2338 
Q 4550 1131 3912 565 
Q 3275 0 1925 0 
L 628 0 
L 628 4666 
z
" transform="scale(0.015625)"/>
       <path id="DejaVuSans-61" d="M 2194 1759 
Q 1497 1759 1228 1600 
Q 959 1441 959 1056 
Q 959 750 1161 570 
Q 1363 391 1709 391 
Q 2188 391 2477 730 
Q 2766 1069 2766 1631 
L 2766 1759 
L 2194 1759 
z
M 3341 1997 
L 3341 0 
L 2766 0 
L 2766 531 
Q 2569 213 2275 61 
Q 1981 -91 1556 -91 
Q 1019 -91 701 211 
Q 384 513 384 1019 
Q 384 1609 779 1909 
Q 1175 2209 1959 2209 
L 2766 2209 
L 2766 2266 
Q 2766 2663 2505 2880 
Q 2244 3097 1772 3097 
Q 1472 3097 1187 3025 
Q 903 2953 641 2809 
L 641 3341 
Q 956 3463 1253 3523 
Q 1550 3584 1831 3584 
Q 2591 3584 2966 3190 
Q 3341 2797 3341 1997 
z
" transform="scale(0.015625)"/>
       <path id="DejaVuSans-74" d="M 1172 4494 
L 1172 3500 
L 2356 3500 
L 2356 3053 
L 1172 3053 
L 1172 1153 
Q 1172 725 1289 603 
Q 1406 481 1766 481 
L 2356 481 
L 2356 0 
L 1766 0 
Q 1100 0 847 248 
Q 594 497 594 1153 
L 594 3053 
L 172 3053 
L 172 3500 
L 594 3500 
L 594 4494 
L 1172 4494 
z
" transform="scale(0.015625)"/>
       <path id="DejaVuSans-65" d="M 3597 1894 
L 3597 1613 
L 953 1613 
Q 991 1019 1311 708 
Q 1631 397 2203 397 
Q 2534 397 2845 478 
Q 3156 559 3463 722 
L 3463 178 
Q 3153 47 2828 -22 
Q 2503 -91 2169 -91 
Q 1331 -91 842 396 
Q 353 884 353 1716 
Q 353 2575 817 3079 
Q 1281 3584 2069 3584 
Q 2775 3584 3186 3129 
Q 3597 2675 3597 1894 
z
M 3022 2063 
Q 3016 2534 2758 2815 
Q 2500 3097 2075 3097 
Q 1594 3097 1305 2825 
Q 1016 2553 972 2059 
L 3022 2063 
z
" transform="scale(0.015625)"/>
      </defs>
      <use xlink:href="#DejaVuSans-44"/>
      <use xlink:href="#DejaVuSans-61" x="77.001953"/>
      <use xlink:href="#DejaVuSans-74" x="138.28125"/>
      <use xlink:href="#DejaVuSans-65" x="177.490234"/>
     </g>
    </g>
   </g>
   <g id="matplotlib.axis_2">
    <g id="ytick_1">
     <g id="line2d_15">
      <path d="M 34.976 253.993723 
L 927.776 253.993723 
" clip-path="url(#pd114a7e315)" style="fill: none; stroke: #546379; stroke-width: 1.12; stroke-linecap: square"/>
     </g>
     <g id="line2d_16"/>
     <g id="text_9">
      <!-- $\mathdefault{10^{0}}$ -->
      <g style="fill: #b1bed6" transform="translate(7.2 258.780739) scale(0.126 -0.126)">
       <use xlink:href="#DejaVuSans-31" transform="translate(0 0.765625)"/>
       <use xlink:href="#DejaVuSans-30" transform="translate(63.623047 0.765625)"/>
       <use xlink:href="#DejaVuSans-30" transform="translate(128.203125 39.046875) scale(0.7)"/>
      </g>
     </g>
    </g>
    <g id="ytick_2">
     <g id="line2d_17">
      <path d="M 34.976 205.903607 
L 927.776 205.903607 
" clip-path="url(#pd114a7e315)" style="fill: none; stroke: #546379; stroke-width: 1.12; stroke-linecap: square"/>
     </g>
     <g id="line2d_18"/>
     <g id="text_10">
      <!-- $\mathdefault{10^{1}}$ -->
      <g style="fill: #b1bed6" transform="translate(7.2 210.690622) scale(0.126 -0.126)">
       <use xlink:href="#DejaVuSans-31" transform="translate(0 0.684375)"/>
       <use xlink:href="#DejaVuSans-30" transform="translate(63.623047 0.684375)"/>
       <use xlink:href="#DejaVuSans-31" transform="translate(128.203125 38.965625) scale(0.7)"/>
      </g>
     </g>
    </g>
    <g id="ytick_3">
     <g id="line2d_19">
      <path d="M 34.976 157.81349 
L 927.776 157.81349 
" clip-path="url(#pd114a7e315)" style="fill: none; stroke: #546379; stroke-width: 1.12; stroke-linecap: square"/>
     </g>
     <g id="line2d_20"/>
     <g id="text_11">
      <!-- $\mathdefault{10^{2}}$ -->
      <g style="fill: #b1bed6" transform="translate(7.2 162.600505) scale(0.126 -0.126)">
       <use xlink:href="#DejaVuSans-31" transform="translate(0 0.765625)"/>
       <use xlink:href="#DejaVuSans-30" transform="translate(63.623047 0.765625)"/>
       <use xlink:href="#DejaVuSans-32" transform="translate(128.203125 39.046875) scale(0.7)"/>
      </g>
     </g>
    </g>
    <g id="ytick_4">
     <g id="line2d_21">
      <path d="M 34.976 109.723373 
L 927.776 109.723373 
" clip-path="url(#pd114a7e315)" style="fill: none; stroke: #546379; stroke-width: 1.12; stroke-linecap: square"/>
     </g>
     <g id="line2d_22"/>
     <g id="text_12">
      <!-- $\mathdefault{10^{3}}$ -->
      <g style="fill: #b1bed6" transform="translate(7.2 114.510388) scale(0.126 -0.126)">
       <defs>
        <path id="DejaVuSans-33" d="M 2597 2516 
Q 3050 2419 3304 2112 
Q 3559 1806 3559 1356 
Q 3559 666 3084 287 
Q 2609 -91 1734 -91 
Q 1441 -91 1130 -33 
Q 819 25 488 141 
L 488 750 
Q 750 597 1062 519 
Q 1375 441 1716 441 
Q 2309 441 2620 675 
Q 2931 909 2931 1356 
Q 2931 1769 2642 2001 
Q 2353 2234 1838 2234 
L 1294 2234 
L 1294 2753 
L 1863 2753 
Q 2328 2753 2575 2939 
Q 2822 3125 2822 3475 
Q 2822 3834 2567 4026 
Q 2313 4219 1838 4219 
Q 1578 4219 1281 4162 
Q 984 4106 628 3988 
L 628 4550 
Q 988 4650 1302 4700 
Q 1616 4750 1894 4750 
Q 2613 4750 3031 4423 
Q 3450 4097 3450 3541 
Q 3450 3153 3228 2886 
Q 3006 2619 2597 2516 
z
" transform="scale(0.015625)"/>
       </defs>
       <use xlink:href="#DejaVuSans-31" transform="translate(0 0.765625)"/>
       <use xlink:href="#DejaVuSans-30" transform="translate(63.623047 0.765625)"/>
       <use xlink:href="#DejaVuSans-33" transform="translate(128.203125 39.046875) scale(0.7)"/>
      </g>
     </g>
    </g>
    <g id="ytick_5">
     <g id="line2d_23">
      <path d="M 34.976 61.633256 
L 927.776 61.633256 
" clip-path="url(#pd114a7e315)" style="fill: none; stroke: #546379; stroke-width: 1.12; stroke-linecap: square"/>
     </g>
     <g id="line2d_24"/>
     <g id="text_13">
      <!-- $\mathdefault{10^{4}}$ -->
      <g style="fill: #b1bed6" transform="translate(7.2 66.420271) scale(0.126 -0.126)">
       <use xlink:href="#DejaVuSans-31" transform="translate(0 0.684375)"/>
       <use xlink:href="#DejaVuSans-30" transform="translate(63.623047 0.684375)"/>
       <use xlink:href="#DejaVuSans-34" transform="translate(128.203125 38.965625) scale(0.7)"/>
      </g>
     </g>
    </g>
    <g id="ytick_6">
     <g id="line2d_25">
      <path d="M 34.976 13.543139 
L 927.776 13.543139 
" clip-path="url(#pd114a7e315)" style="fill: none; stroke: #546379; stroke-width: 1.12; stroke-linecap: square"/>
     </g>
     <g id="line2d_26"/>
     <g id="text_14">
      <!-- $\mathdefault{10^{5}}$ -->
      <g style="fill: #b1bed6" transform="translate(7.2 18.330154) scale(0.126 -0.126)">
       <defs>
        <path id="DejaVuSans-35" d="M 691 4666 
L 3169 4666 
L 3169 4134 
L 1269 4134 
L 1269 2991 
Q 1406 3038 1543 3061 
Q 1681 3084 1819 3084 
Q 2600 3084 3056 2656 
Q 3513 2228 3513 1497 
Q 3513 744 3044 326 
Q 2575 -91 1722 -91 
Q 1428 -91 1123 -41 
Q 819 9 494 109 
L 494 744 
Q 775 591 1075 516 
Q 1375 441 1709 441 
Q 2250 441 2565 725 
Q 2881 1009 2881 1497 
Q 2881 1984 2565 2268 
Q 2250 2553 1709 2553 
Q 1456 2553 1204 2497 
Q 953 2441 691 2322 
L 691 4666 
z
" transform="scale(0.015625)"/>
       </defs>
       <use xlink:href="#DejaVuSans-31" transform="translate(0 0.684375)"/>
       <use xlink:href="#DejaVuSans-30" transform="translate(63.623047 0.684375)"/>
       <use xlink:href="#DejaVuSans-35" transform="translate(128.203125 38.965625) scale(0.7)"/>
      </g>
     </g>
    </g>
    <g id="ytick_7">
     <g id="line2d_27"/>
    </g>
    <g id="ytick_8">
     <g id="line2d_28"/>
    </g>
    <g id="ytick_9">
     <g id="line2d_29"/>
    </g>
    <g id="ytick_10">
     <g id="line2d_30"/>
    </g>
    <g id="ytick_11">
     <g id="line2d_31"/>
    </g>
    <g id="ytick_12">
     <g id="line2d_32"/>
    </g>
    <g id="ytick_13">
     <g id="line2d_33"/>
    </g>
    <g id="ytick_14">
     <g id="line2d_34"/>
    </g>
    <g id="ytick_15">
     <g id="line2d_35"/>
    </g>
    <g id="ytick_16">
     <g id="line2d_36"/>
    </g>
    <g id="ytick_17">
     <g id="line2d_37"/>
    </g>
    <g id="ytick_18">
     <g id="line2d_38"/>
    </g>
    <g id="ytick_19">
     <g id="line2d_39"/>
    </g>
    <g id="ytick_20">
     <g id="line2d_40"/>
    </g>
    <g id="ytick_21">
     <g id="line2d_41"/>
    </g>
    <g id="ytick_22">
     <g id="line2d_42"/>
    </g>
    <g id="ytick_23">
     <g id="line2d_43"/>
    </g>
    <g id="ytick_24">
     <g id="line2d_44"/>
    </g>
    <g id="ytick_25">
     <g id="line2d_45"/>
    </g>
    <g id="ytick_26">
     <g id="line2d_46"/>
    </g>
    <g id="ytick_27">
     <g id="line2d_47"/>
    </g>
    <g id="ytick_28">
     <g id="line2d_48"/>
    </g>
    <g id="ytick_29">
     <g id="line2d_49"/>
    </g>
    <g id="ytick_30">
     <g id="line2d_50"/>
    </g>
    <g id="ytick_31">
     <g id="line2d_51"/>
    </g>
    <g id="ytick_32">
     <g id="line2d_52"/>
    </g>
    <g id="ytick_33">
     <g id="line2d_53"/>
    </g>
    <g id="ytick_34">
     <g id="line2d_54"/>
    </g>
    <g id="ytick_35">
     <g id="line2d_55"/>
    </g>
    <g id="ytick_36">
     <g id="line2d_56"/>
    </g>
    <g id="ytick_37">
     <g id="line2d_57"/>
    </g>
    <g id="ytick_38">
     <g id="line2d_58"/>
    </g>
    <g id="ytick_39">
     <g id="line2d_59"/>
    </g>
    <g id="ytick_40">
     <g id="line2d_60"/>
    </g>
    <g id="ytick_41">
     <g id="line2d_61"/>
    </g>
    <g id="ytick_42">
     <g id="line2d_62"/>
    </g>
    <g id="ytick_43">
     <g id="line2d_63"/>
    </g>
    <g id="ytick_44">
     <g id="line2d_64"/>
    </g>
    <g id="ytick_45">
     <g id="line2d_65"/>
    </g>
    <g id="ytick_46">
     <g id="line2d_66"/>
    </g>
    <g id="ytick_47">
     <g id="line2d_67"/>
    </g>
    <g id="ytick_48">
     <g id="line2d_68"/>
    </g>
    <g id="ytick_49">
     <g id="line2d_69"/>
    </g>
    <g id="ytick_50">
     <g id="line2d_70"/>
    </g>
    <g id="ytick_51">
     <g id="line2d_71"/>
    </g>
    <g id="ytick_52">
     <g id="line2d_72"/>
    </g>
    <g id="ytick_53">
     <g id="line2d_73"/>
    </g>
    <g id="ytick_54">
     <g id="line2d_74"/>
    </g>
   </g>
   <g id="line2d_75">
    <path d="M 75.557818 287.607273 
L 75.557818 282.946859 
L 76.212764 282.946859 
L 76.212764 277.791119 
L 76.867709 277.791119 
L 76.867709 279.139023 
L 77.522655 279.139023 
L 77.522655 280.579958 
L 78.1776 280.579958 
L 78.1776 279.847067 
L 78.832546 279.847067 
L 78.832546 280.579958 
L 80.142437 280.579958 
L 80.142437 282.127724 
L 80.797382 282.127724 
L 80.797382 284.688306 
L 82.107273 284.688306 
L 82.107273 282.946859 
L 82.762219 282.946859 
L 82.762219 282.127724 
L 83.417164 282.127724 
L 83.417164 282.946859 
L 84.07211 282.946859 
L 84.07211 281.339507 
L 84.727055 281.339507 
L 84.727055 279.139023 
L 86.036946 279.139023 
L 86.036946 277.791119 
L 86.691892 277.791119 
L 86.691892 275.331188 
L 87.346837 275.331188 
L 87.346837 273.130705 
L 88.001783 273.130705 
L 88.001783 274.201979 
L 88.656728 274.201979 
L 88.656728 271.140126 
L 89.311674 271.140126 
L 89.311674 270.670774 
L 89.966619 270.670774 
L 89.966619 255.735171 
L 91.27651 255.735171 
L 91.27651 254.629872 
L 91.931456 254.629872 
L 91.931456 252.386371 
L 92.586401 252.386371 
L 92.586401 252.974728 
L 93.241347 252.974728 
L 93.241347 256.663558 
L 93.896292 256.663558 
L 93.896292 253.993723 
L 94.551238 253.993723 
L 94.551238 254.629872 
L 95.206183 254.629872 
L 95.206183 255.735171 
L 95.861129 255.735171 
L 95.861129 256.663558 
L 96.516074 256.663558 
L 96.516074 255.963428 
L 97.17102 255.963428 
L 97.17102 256.90225 
L 97.825966 256.90225 
L 97.825966 258.916849 
L 98.480911 258.916849 
L 98.480911 256.427564 
L 99.135857 256.427564 
L 99.135857 258.654137 
L 100.445748 258.654137 
L 100.445748 260.002042 
L 101.100693 260.002042 
L 101.100693 259.725412 
L 101.755639 259.725412 
L 101.755639 254.415663 
L 102.410584 254.415663 
L 102.410584 250.185888 
L 103.06553 250.185888 
L 103.06553 247.266922 
L 103.720475 247.266922 
L 103.720475 241.950996 
L 104.375421 241.950996 
L 104.375421 224.322105 
L 105.030366 224.322105 
L 105.030366 227.474429 
L 105.685312 227.474429 
L 105.685312 225.515874 
L 106.340257 225.515874 
L 106.340257 214.740584 
L 106.995203 214.740584 
L 106.995203 209.371702 
L 107.650148 209.371702 
L 107.650148 213.412618 
L 108.305094 213.412618 
L 108.305094 212.562433 
L 108.960039 212.562433 
L 108.960039 208.8602 
L 109.614985 208.8602 
L 109.614985 206.604449 
L 110.26993 206.604449 
L 110.26993 192.443424 
L 110.924876 192.443424 
L 110.924876 181.39015 
L 111.579821 181.39015 
L 111.579821 187.917194 
L 112.234767 187.917194 
L 112.234767 192.641704 
L 112.889712 192.641704 
L 112.889712 196.899279 
L 113.544658 196.899279 
L 113.544658 194.12062 
L 114.199603 194.12062 
L 114.199603 194.395667 
L 114.854549 194.395667 
L 114.854549 196.429626 
L 115.509494 196.429626 
L 115.509494 195.957326 
L 116.16444 195.957326 
L 116.16444 197.338119 
L 116.819385 197.338119 
L 116.819385 198.506632 
L 117.474331 198.506632 
L 117.474331 198.085865 
L 118.129276 198.085865 
L 118.129276 198.98098 
L 118.784222 198.98098 
L 118.784222 198.727642 
L 119.439167 198.727642 
L 119.439167 198.028488 
L 120.094113 198.028488 
L 120.094113 202.98464 
L 120.749058 202.98464 
L 120.749058 206.626058 
L 121.404004 206.626058 
L 121.404004 206.050318 
L 122.058949 206.050318 
L 122.058949 203.240456 
L 122.713895 203.240456 
L 122.713895 202.535477 
L 123.36884 202.535477 
L 123.36884 203.351058 
L 124.023786 203.351058 
L 124.023786 207.018896 
L 124.678731 207.018896 
L 124.678731 209.396374 
L 125.333677 209.396374 
L 125.333677 209.870776 
L 125.988622 209.870776 
L 125.988622 214.08149 
L 126.643568 214.08149 
L 126.643568 215.921228 
L 127.298513 215.921228 
L 127.298513 220.2968 
L 127.953459 220.2968 
L 127.953459 215.954995 
L 128.608404 215.954995 
L 128.608404 218.427603 
L 129.26335 218.427603 
L 129.26335 220.632313 
L 129.918295 220.632313 
L 129.918295 220.131043 
L 130.573241 220.131043 
L 130.573241 221.276309 
L 131.228186 221.276309 
L 131.228186 224.221453 
L 131.883132 224.221453 
L 131.883132 224.98844 
L 132.538078 224.98844 
L 132.538078 234.118089 
L 133.193023 234.118089 
L 133.193023 228.932132 
L 133.847969 228.932132 
L 133.847969 230.364082 
L 134.502914 230.364082 
L 134.502914 228.558057 
L 135.15786 228.558057 
L 135.15786 229.570875 
L 135.812805 229.570875 
L 135.812805 229.766371 
L 136.467751 229.766371 
L 136.467751 230.296819 
L 137.122696 230.296819 
L 137.122696 234.037607 
L 137.777642 234.037607 
L 137.777642 235.278681 
L 138.432587 235.278681 
L 138.432587 235.024496 
L 139.087533 235.024496 
L 139.087533 233.718741 
L 139.742478 233.718741 
L 139.742478 230.096319 
L 140.397424 230.096319 
L 140.397424 230.635323 
L 141.052369 230.635323 
L 141.052369 230.229771 
L 141.707315 230.229771 
L 141.707315 229.313029 
L 142.36226 229.313029 
L 142.36226 228.682006 
L 143.017206 228.682006 
L 143.017206 225.145276 
L 143.672151 225.145276 
L 143.672151 223.774426 
L 144.327097 223.774426 
L 144.327097 222.720359 
L 144.982042 222.720359 
L 144.982042 218.889175 
L 145.636988 218.889175 
L 145.636988 213.174606 
L 146.291933 213.174606 
L 146.291933 213.05661 
L 146.946879 213.05661 
L 146.946879 213.233855 
L 147.601824 213.233855 
L 147.601824 215.322564 
L 148.25677 215.322564 
L 148.25677 214.997242 
L 148.911715 214.997242 
L 148.911715 217.643613 
L 149.566661 217.643613 
L 149.566661 217.827626 
L 150.221606 217.827626 
L 150.221606 216.607177 
L 150.876552 216.607177 
L 150.876552 217.13684 
L 152.186443 217.208488 
L 152.186443 221.495464 
L 152.841388 221.495464 
L 152.841388 222.580657 
L 153.496334 222.580657 
L 153.496334 219.68188 
L 154.151279 219.68188 
L 154.151279 220.463883 
L 154.806225 220.463883 
L 154.806225 221.189287 
L 155.46117 221.189287 
L 155.46117 220.172359 
L 156.116116 220.172359 
L 156.116116 220.463883 
L 156.771061 220.463883 
L 156.771061 218.618686 
L 157.426007 218.618686 
L 157.426007 219.440893 
L 158.080952 219.440893 
L 158.080952 221.189287 
L 158.735898 221.189287 
L 158.735898 221.363695 
L 159.390843 221.363695 
L 159.390843 220.632313 
L 160.700734 220.547928 
L 160.700734 221.232753 
L 161.35568 221.232753 
L 161.35568 220.505863 
L 162.665571 220.421987 
L 162.665571 219.400998 
L 163.320516 219.400998 
L 163.320516 219.601242 
L 163.975462 219.601242 
L 163.975462 220.007583 
L 164.630407 220.007583 
L 164.630407 219.641522 
L 165.285353 219.641522 
L 165.285353 219.966591 
L 166.595244 219.966591 
L 166.595244 220.172359 
L 167.25019 220.172359 
L 167.25019 219.844096 
L 169.215026 219.762831 
L 169.215026 219.641522 
L 169.869972 219.641522 
L 169.869972 219.281767 
L 170.524917 219.281767 
L 170.524917 218.16299 
L 171.834808 218.087998 
L 171.834808 215.653034 
L 172.489754 215.653034 
L 172.489754 214.708722 
L 173.144699 214.708722 
L 173.144699 214.455564 
L 173.799645 214.455564 
L 173.799645 214.645145 
L 174.45459 214.645145 
L 174.45459 214.236541 
L 175.109536 214.236541 
L 175.109536 214.08149 
L 175.764481 214.08149 
L 175.764481 213.412618 
L 176.419427 213.412618 
L 176.419427 210.959337 
L 177.074372 210.959337 
L 177.074372 207.040939 
L 177.729318 207.040939 
L 177.729318 206.909031 
L 178.384263 206.909031 
L 178.384263 208.573441 
L 179.039209 208.573441 
L 179.039209 208.220442 
L 179.694154 208.220442 
L 179.694154 205.654475 
L 180.3491 205.654475 
L 180.3491 203.480838 
L 181.004045 203.480838 
L 181.004045 202.803814 
L 181.658991 202.803814 
L 181.658991 201.580059 
L 182.313936 201.580059 
L 182.313936 198.172228 
L 182.968882 198.172228 
L 182.968882 205.367529 
L 183.623827 205.367529 
L 183.623827 203.932023 
L 184.278773 203.932023 
L 184.278773 204.08461 
L 184.933718 204.08461 
L 184.933718 204.844867 
L 185.588664 204.844867 
L 185.588664 203.406579 
L 186.898555 203.462249 
L 186.898555 202.376115 
L 187.5535 202.376115 
L 187.5535 201.027108 
L 188.208446 201.027108 
L 188.208446 201.614047 
L 188.863391 201.614047 
L 188.863391 201.310133 
L 189.518337 201.310133 
L 189.518337 201.109953 
L 190.173282 201.109953 
L 190.173282 200.47231 
L 190.828228 200.47231 
L 190.828228 201.580059 
L 191.483173 201.580059 
L 191.483173 201.922448 
L 192.138119 201.922448 
L 192.138119 202.130609 
L 192.793064 202.130609 
L 192.793064 202.446792 
L 193.44801 202.446792 
L 193.44801 202.875957 
L 194.102955 202.875957 
L 194.102955 204.046358 
L 194.757901 204.046358 
L 194.757901 203.799417 
L 195.412846 203.799417 
L 195.412846 203.970065 
L 196.722737 204.008177 
L 196.722737 203.780542 
L 197.377683 203.780542 
L 197.377683 202.411424 
L 198.032628 202.411424 
L 198.032628 201.546127 
L 198.687574 201.546127 
L 198.687574 201.04365 
L 199.997465 200.977558 
L 199.997465 200.279965 
L 200.65241 200.279965 
L 200.65241 199.55863 
L 201.307356 199.55863 
L 201.307356 199.176805 
L 201.962302 199.176805 
L 201.962302 199.435685 
L 203.272193 199.328698 
L 203.272193 199.713337 
L 203.927138 199.713337 
L 203.927138 199.405062 
L 204.582084 199.405062 
L 204.582084 199.604922 
L 205.891975 199.57405 
L 205.891975 198.891216 
L 206.54692 198.891216 
L 206.54692 198.418878 
L 207.201866 198.418878 
L 207.201866 196.710149 
L 207.856811 196.710149 
L 207.856811 194.662188 
L 208.511757 194.662188 
L 208.511757 193.010178 
L 209.166702 193.010178 
L 209.166702 191.65805 
L 209.821648 191.65805 
L 209.821648 190.408043 
L 210.476593 190.408043 
L 210.476593 189.88748 
L 211.131539 189.88748 
L 211.131539 187.645326 
L 211.786484 187.645326 
L 211.786484 185.005137 
L 212.44143 185.005137 
L 212.44143 185.174749 
L 213.096375 185.174749 
L 213.096375 182.59988 
L 213.751321 182.59988 
L 213.751321 182.139654 
L 214.406266 182.139654 
L 214.406266 180.191717 
L 215.061212 180.191717 
L 215.061212 175.931475 
L 215.716157 175.931475 
L 215.716157 174.21391 
L 216.371103 174.21391 
L 216.371103 173.644646 
L 217.026048 173.644646 
L 217.026048 171.422781 
L 217.680994 171.422781 
L 217.680994 165.188286 
L 218.335939 165.188286 
L 218.335939 162.792206 
L 218.990885 162.792206 
L 218.990885 159.441738 
L 219.64583 159.441738 
L 219.64583 152.173899 
L 220.300776 152.173899 
L 220.300776 147.570959 
L 220.955721 147.570959 
L 220.955721 153.169791 
L 221.610667 153.169791 
L 221.610667 165.837464 
L 222.265612 165.837464 
L 222.265612 154.194473 
L 222.920558 154.194473 
L 222.920558 150.416515 
L 223.575503 150.416515 
L 223.575503 152.576325 
L 224.230449 152.576325 
L 224.230449 154.534423 
L 224.885394 154.534423 
L 224.885394 154.717299 
L 225.54034 154.717299 
L 225.54034 155.318316 
L 226.195285 155.318316 
L 226.195285 154.358445 
L 226.850231 154.358445 
L 226.850231 153.435677 
L 228.160122 153.540944 
L 228.160122 152.016657 
L 229.470013 151.967662 
L 229.470013 153.588659 
L 230.124958 153.588659 
L 230.124958 154.185693 
L 230.779904 154.185693 
L 230.779904 156.576834 
L 231.434849 156.576834 
L 231.434849 157.817667 
L 232.089795 157.817667 
L 232.089795 156.324435 
L 232.74474 156.324435 
L 232.74474 156.138563 
L 233.399686 156.138563 
L 233.399686 156.994354 
L 234.054631 156.994354 
L 234.054631 158.39588 
L 234.709577 158.39588 
L 234.709577 162.463463 
L 235.364523 162.463463 
L 235.364523 163.410955 
L 236.019468 163.410955 
L 236.019468 159.107996 
L 236.674414 159.107996 
L 236.674414 158.438876 
L 237.329359 158.438876 
L 237.329359 160.15601 
L 237.984305 160.15601 
L 237.984305 158.992767 
L 238.63925 158.992767 
L 238.63925 158.086778 
L 239.294196 158.086778 
L 239.294196 156.870216 
L 239.949141 156.870216 
L 239.949141 156.455145 
L 240.604087 156.455145 
L 240.604087 157.236739 
L 241.259032 157.236739 
L 241.259032 155.94669 
L 241.913978 155.94669 
L 241.913978 157.874145 
L 242.568923 157.874145 
L 242.568923 155.741427 
L 243.223869 155.741427 
L 243.223869 155.209254 
L 243.878814 155.209254 
L 243.878814 154.268365 
L 244.53376 154.268365 
L 244.53376 152.319486 
L 245.188705 152.319486 
L 245.188705 154.425817 
L 245.843651 154.425817 
L 245.843651 153.657012 
L 246.498596 153.657012 
L 246.498596 153.31241 
L 247.153542 153.31241 
L 247.153542 152.801832 
L 247.808487 152.801832 
L 247.808487 153.501832 
L 248.463433 153.501832 
L 248.463433 153.211636 
L 249.118378 153.211636 
L 249.118378 152.94526 
L 249.773324 152.94526 
L 249.773324 153.670709 
L 250.428269 153.670709 
L 250.428269 153.300628 
L 251.083215 153.300628 
L 251.083215 152.724755 
L 251.73816 152.724755 
L 251.73816 151.057953 
L 252.393106 151.057953 
L 252.393106 144.839111 
L 253.048051 144.839111 
L 253.048051 143.830377 
L 253.702997 143.830377 
L 253.702997 142.628531 
L 254.357942 142.628531 
L 254.357942 143.025969 
L 255.012888 143.025969 
L 255.012888 138.46125 
L 255.667833 138.46125 
L 255.667833 132.878094 
L 256.322779 132.878094 
L 256.322779 129.229082 
L 256.977724 129.229082 
L 256.977724 125.271215 
L 257.63267 125.271215 
L 257.63267 116.678174 
L 258.287615 116.678174 
L 258.287615 114.007092 
L 258.942561 114.007092 
L 258.942561 107.097945 
L 259.597506 107.097945 
L 259.597506 108.7002 
L 260.252452 108.7002 
L 260.252452 116.997035 
L 260.907397 116.997035 
L 260.907397 112.467387 
L 261.562343 112.467387 
L 261.562343 112.801105 
L 262.217288 112.801105 
L 262.217288 117.615887 
L 262.872234 117.615887 
L 262.872234 118.401842 
L 263.527179 118.401842 
L 263.527179 116.469138 
L 264.182125 116.469138 
L 264.182125 116.239051 
L 264.83707 116.239051 
L 264.83707 113.646646 
L 265.492016 113.646646 
L 265.492016 113.784193 
L 266.146961 113.784193 
L 266.146961 113.264583 
L 266.801907 113.264583 
L 266.801907 113.94079 
L 267.456852 113.94079 
L 267.456852 113.670096 
L 268.111798 113.670096 
L 268.111798 114.91202 
L 268.766743 114.91202 
L 268.766743 114.763146 
L 269.421689 114.763146 
L 269.421689 113.942579 
L 270.076635 113.942579 
L 270.076635 114.885797 
L 270.73158 114.885797 
L 270.73158 117.552897 
L 271.386526 117.552897 
L 271.386526 120.046886 
L 272.041471 120.046886 
L 272.041471 119.374435 
L 272.696417 119.374435 
L 272.696417 121.11816 
L 273.351362 121.11816 
L 273.351362 121.850949 
L 274.006308 121.850949 
L 274.006308 121.555919 
L 274.661253 121.555919 
L 274.661253 118.065647 
L 275.316199 118.065647 
L 275.316199 119.047464 
L 276.62609 119.011267 
L 276.62609 119.549219 
L 277.281035 119.549219 
L 277.281035 121.357755 
L 277.935981 121.357755 
L 277.935981 120.892689 
L 278.590926 120.892689 
L 278.590926 124.621879 
L 279.245872 124.621879 
L 279.245872 126.911587 
L 279.900817 126.911587 
L 279.900817 126.032391 
L 280.555763 126.032391 
L 280.555763 130.545125 
L 281.210708 130.545125 
L 281.210708 125.957739 
L 281.865654 125.957739 
L 281.865654 124.960912 
L 282.520599 124.960912 
L 282.520599 124.685057 
L 283.175545 124.685057 
L 283.175545 125.8743 
L 283.83049 125.8743 
L 283.83049 126.306419 
L 284.485436 126.306419 
L 284.485436 127.024614 
L 285.795327 126.983529 
L 285.795327 126.753805 
L 286.450272 126.753805 
L 286.450272 126.441306 
L 287.105218 126.441306 
L 287.105218 124.702165 
L 287.760163 124.702165 
L 287.760163 123.0655 
L 288.415109 123.0655 
L 288.415109 121.06417 
L 289.070054 121.06417 
L 289.070054 119.349585 
L 289.725 119.349585 
L 289.725 118.354745 
L 290.379945 118.354745 
L 290.379945 118.758662 
L 291.034891 118.758662 
L 291.034891 120.68833 
L 291.689836 120.68833 
L 291.689836 120.115475 
L 292.344782 120.115475 
L 292.344782 120.709171 
L 292.999727 120.709171 
L 292.999727 121.804715 
L 293.654673 121.804715 
L 293.654673 120.392453 
L 294.309618 120.392453 
L 294.309618 118.870338 
L 294.964564 118.870338 
L 294.964564 119.561258 
L 295.619509 119.561258 
L 295.619509 119.240923 
L 296.274455 119.240923 
L 296.274455 119.570627 
L 296.9294 119.570627 
L 296.9294 119.373109 
L 297.584346 119.373109 
L 297.584346 119.692801 
L 298.239291 119.692801 
L 298.239291 120.613263 
L 298.894237 120.613263 
L 298.894237 121.026818 
L 299.549182 121.026818 
L 299.549182 120.796292 
L 300.859073 120.779264 
L 300.859073 121.499685 
L 301.514019 121.499685 
L 301.514019 123.225547 
L 302.168964 123.225547 
L 302.168964 123.428252 
L 302.82391 123.428252 
L 302.82391 123.867188 
L 304.133801 123.925646 
L 304.133801 125.211502 
L 304.788747 125.211502 
L 304.788747 124.796939 
L 305.443692 124.796939 
L 305.443692 125.34389 
L 306.098638 125.34389 
L 306.098638 125.186964 
L 306.753583 125.186964 
L 306.753583 126.220198 
L 307.408529 126.220198 
L 307.408529 128.800395 
L 308.063474 128.800395 
L 308.063474 128.334966 
L 308.71842 128.334966 
L 308.71842 130.271288 
L 309.373365 130.271288 
L 309.373365 131.124751 
L 310.028311 131.124751 
L 310.028311 132.622709 
L 310.683256 132.622709 
L 310.683256 130.948014 
L 311.338202 130.948014 
L 311.338202 129.131527 
L 311.993147 129.131527 
L 311.993147 129.419134 
L 312.648093 129.419134 
L 312.648093 131.223913 
L 313.303038 131.223913 
L 313.303038 131.595558 
L 313.957984 131.595558 
L 313.957984 132.390804 
L 314.612929 132.390804 
L 314.612929 132.863542 
L 315.267875 132.863542 
L 315.267875 131.832594 
L 315.92282 131.832594 
L 315.92282 127.831912 
L 316.577766 127.831912 
L 316.577766 129.396086 
L 317.232711 129.396086 
L 317.232711 131.26664 
L 317.887657 131.26664 
L 317.887657 130.231663 
L 318.542602 130.231663 
L 318.542602 130.098275 
L 319.197548 130.098275 
L 319.197548 129.952524 
L 319.852493 129.952524 
L 319.852493 130.205474 
L 320.507439 130.205474 
L 320.507439 131.721522 
L 321.162384 131.721522 
L 321.162384 131.188861 
L 321.81733 131.188861 
L 321.81733 134.03214 
L 322.472275 134.03214 
L 322.472275 132.753156 
L 323.127221 132.753156 
L 323.127221 132.881891 
L 323.782166 132.881891 
L 323.782166 134.116585 
L 324.437112 134.116585 
L 324.437112 135.933353 
L 325.092057 135.933353 
L 325.092057 135.009075 
L 325.747003 135.009075 
L 325.747003 137.093923 
L 326.401948 137.093923 
L 326.401948 142.297051 
L 327.056894 142.297051 
L 327.056894 141.728603 
L 327.711839 141.728603 
L 327.711839 140.083755 
L 328.366785 140.083755 
L 328.366785 137.576515 
L 329.02173 137.576515 
L 329.02173 141.417664 
L 329.676676 141.417664 
L 329.676676 140.718863 
L 330.331621 140.718863 
L 330.331621 140.976549 
L 330.986567 140.976549 
L 330.986567 141.126312 
L 331.641512 141.126312 
L 331.641512 140.013277 
L 332.296458 140.013277 
L 332.296458 139.032061 
L 332.951403 139.032061 
L 332.951403 139.534308 
L 333.606349 139.534308 
L 333.606349 138.386142 
L 334.261294 138.386142 
L 334.261294 137.064515 
L 334.91624 137.064515 
L 334.91624 136.685929 
L 335.571185 136.685929 
L 335.571185 135.226775 
L 336.226131 135.226775 
L 336.226131 135.628633 
L 336.881076 135.628633 
L 336.881076 137.689362 
L 337.536022 137.689362 
L 337.536022 139.098447 
L 338.190967 139.098447 
L 338.190967 138.430679 
L 338.845913 138.430679 
L 338.845913 138.971815 
L 339.500859 138.971815 
L 339.500859 137.815644 
L 340.155804 137.815644 
L 340.155804 139.269639 
L 340.81075 139.269639 
L 340.81075 141.062531 
L 342.120641 141.097211 
L 342.120641 139.893386 
L 342.775586 139.893386 
L 342.775586 140.757591 
L 344.085477 140.81952 
L 344.085477 139.575259 
L 344.740423 139.575259 
L 344.740423 139.777703 
L 345.395368 139.777703 
L 345.395368 139.446579 
L 346.050314 139.446579 
L 346.050314 139.759217 
L 346.705259 139.759217 
L 346.705259 140.291213 
L 347.360205 140.291213 
L 347.360205 139.724931 
L 348.01515 139.724931 
L 348.01515 139.94126 
L 348.670096 139.94126 
L 348.670096 140.569239 
L 349.325041 140.569239 
L 349.325041 141.07471 
L 349.979987 141.07471 
L 349.979987 140.631529 
L 350.634932 140.631529 
L 350.634932 140.454309 
L 351.289878 140.454309 
L 351.289878 138.678179 
L 351.944823 138.678179 
L 351.944823 139.119769 
L 352.599769 139.119769 
L 352.599769 139.511689 
L 353.254714 139.511689 
L 353.254714 138.796315 
L 353.90966 138.796315 
L 353.90966 138.28915 
L 354.564605 138.28915 
L 354.564605 137.183175 
L 355.219551 137.183175 
L 355.219551 135.94581 
L 355.874496 135.94581 
L 355.874496 135.727053 
L 356.529442 135.727053 
L 356.529442 136.554198 
L 357.839333 136.461577 
L 357.839333 135.374606 
L 358.494278 135.374606 
L 358.494278 135.688643 
L 359.149224 135.688643 
L 359.149224 136.226233 
L 359.804169 136.226233 
L 359.804169 136.360391 
L 360.459115 136.360391 
L 360.459115 136.993487 
L 361.11406 136.993487 
L 361.11406 137.742818 
L 361.769006 137.742818 
L 361.769006 140.761283 
L 362.423951 140.761283 
L 362.423951 140.587541 
L 363.078897 140.587541 
L 363.078897 140.866783 
L 363.733842 140.866783 
L 363.733842 140.395267 
L 365.043733 140.351773 
L 365.043733 139.1659 
L 365.698679 139.1659 
L 365.698679 139.992802 
L 366.353624 139.992802 
L 366.353624 140.570154 
L 367.00857 140.570154 
L 367.00857 140.403432 
L 367.663515 140.403432 
L 367.663515 140.057856 
L 368.318461 140.057856 
L 368.318461 139.60406 
L 368.973406 139.60406 
L 368.973406 139.724053 
L 369.628352 139.724053 
L 369.628352 138.945565 
L 370.938243 139.03716 
L 370.938243 138.471174 
L 371.593188 138.471174 
L 371.593188 137.773998 
L 372.248134 137.773998 
L 372.248134 136.735353 
L 372.90308 136.735353 
L 372.90308 135.816467 
L 373.558025 135.816467 
L 373.558025 132.994234 
L 374.212971 132.994234 
L 374.212971 128.626707 
L 374.867916 128.626707 
L 374.867916 129.549321 
L 375.522862 129.549321 
L 375.522862 134.252681 
L 376.177807 134.252681 
L 376.177807 133.588101 
L 376.832753 133.588101 
L 376.832753 133.139203 
L 377.487698 133.139203 
L 377.487698 133.294867 
L 378.142644 133.294867 
L 378.142644 131.17719 
L 378.797589 131.17719 
L 378.797589 130.911693 
L 379.452535 130.911693 
L 379.452535 129.553099 
L 380.10748 129.553099 
L 380.10748 128.016633 
L 380.762426 128.016633 
L 380.762426 127.185909 
L 381.417371 127.185909 
L 381.417371 126.097245 
L 382.072317 126.097245 
L 382.072317 126.948242 
L 382.727262 126.948242 
L 382.727262 126.146706 
L 383.382208 126.146706 
L 383.382208 127.193621 
L 384.692099 127.216292 
L 384.692099 127.385891 
L 385.347044 127.385891 
L 385.347044 126.473417 
L 386.00199 126.473417 
L 386.00199 127.371786 
L 386.656935 127.371786 
L 386.656935 129.63205 
L 387.311881 129.63205 
L 387.311881 129.849349 
L 387.966826 129.849349 
L 387.966826 129.300416 
L 388.621772 129.300416 
L 388.621772 130.119338 
L 389.276717 130.119338 
L 389.276717 130.575711 
L 389.931663 130.575711 
L 389.931663 130.208259 
L 390.586608 130.208259 
L 390.586608 130.040736 
L 391.241554 130.040736 
L 391.241554 128.901643 
L 391.896499 128.901643 
L 391.896499 127.842353 
L 393.20639 127.878687 
L 393.20639 127.272833 
L 393.861336 127.272833 
L 393.861336 127.71741 
L 394.516281 127.71741 
L 394.516281 128.565354 
L 395.171227 128.565354 
L 395.171227 128.041219 
L 396.481118 128.091988 
L 396.481118 128.448819 
L 397.136063 128.448819 
L 397.136063 128.021648 
L 398.445954 127.993078 
L 398.445954 128.154991 
L 399.1009 128.154991 
L 399.1009 127.915583 
L 400.410791 127.843845 
L 400.410791 127.710984 
L 401.065736 127.710984 
L 401.065736 127.376648 
L 401.720682 127.376648 
L 401.720682 127.062905 
L 402.375627 127.062905 
L 402.375627 126.311502 
L 403.030573 126.311502 
L 403.030573 126.620175 
L 403.685518 126.620175 
L 403.685518 126.26165 
L 404.340464 126.26165 
L 404.340464 126.429683 
L 404.995409 126.429683 
L 404.995409 125.911444 
L 405.650355 125.911444 
L 405.650355 126.132039 
L 406.3053 126.132039 
L 406.3053 126.257962 
L 406.960246 126.257962 
L 406.960246 126.717961 
L 407.615192 126.717961 
L 407.615192 126.460846 
L 408.270137 126.460846 
L 408.270137 123.733188 
L 408.925083 123.733188 
L 408.925083 122.670084 
L 409.580028 122.670084 
L 409.580028 120.966622 
L 410.234974 120.966622 
L 410.234974 121.174097 
L 410.889919 121.174097 
L 410.889919 117.61924 
L 411.544865 117.61924 
L 411.544865 115.677182 
L 412.19981 115.677182 
L 412.19981 120.643892 
L 412.854756 120.643892 
L 412.854756 119.366811 
L 413.509701 119.366811 
L 413.509701 118.151456 
L 414.164647 118.151456 
L 414.164647 117.717314 
L 414.819592 117.717314 
L 414.819592 118.306808 
L 416.784429 118.359797 
L 416.784429 118.165532 
L 417.439374 118.165532 
L 417.439374 118.354745 
L 418.09432 118.354745 
L 418.09432 118.543139 
L 418.749265 118.543139 
L 418.749265 120.199459 
L 419.404211 120.199459 
L 419.404211 121.363953 
L 420.059156 121.363953 
L 420.059156 120.921588 
L 421.369047 120.980223 
L 421.369047 121.429697 
L 422.023993 121.429697 
L 422.023993 121.19977 
L 423.333884 121.25375 
L 423.333884 121.40849 
L 424.643775 121.390226 
L 424.643775 120.109979 
L 425.29872 120.109979 
L 425.29872 119.651773 
L 425.953666 119.651773 
L 425.953666 120.081495 
L 427.263557 120.13919 
L 427.263557 120.599196 
L 427.918502 120.599196 
L 427.918502 120.157081 
L 429.883339 120.143661 
L 429.883339 119.894739 
L 430.538284 119.894739 
L 430.538284 119.202745 
L 431.19323 119.202745 
L 431.19323 119.07784 
L 431.848175 119.07784 
L 431.848175 119.409939 
L 432.503121 119.409939 
L 432.503121 118.916344 
L 433.158066 118.916344 
L 433.158066 117.597305 
L 433.813012 117.597305 
L 433.813012 116.393693 
L 434.467957 116.393693 
L 434.467957 117.069054 
L 435.122903 117.069054 
L 435.122903 116.540804 
L 435.777848 116.540804 
L 435.777848 117.161291 
L 436.432794 117.161291 
L 436.432794 116.101411 
L 438.39763 116.094893 
L 438.39763 116.29562 
L 439.052576 116.29562 
L 439.052576 115.373603 
L 440.362467 115.277741 
L 440.362467 115.231199 
L 441.017412 115.231199 
L 441.017412 115.023165 
L 441.672358 115.023165 
L 441.672358 114.619285 
L 442.327304 114.619285 
L 442.327304 111.603074 
L 442.982249 111.603074 
L 442.982249 111.231397 
L 443.637195 111.231397 
L 443.637195 110.470919 
L 444.29214 110.470919 
L 444.29214 107.559596 
L 444.947086 107.559596 
L 444.947086 111.681834 
L 445.602031 111.681834 
L 445.602031 114.240173 
L 446.256977 114.240173 
L 446.256977 113.60083 
L 446.911922 113.60083 
L 446.911922 112.025279 
L 447.566868 112.025279 
L 447.566868 112.308178 
L 448.221813 112.308178 
L 448.221813 111.496172 
L 448.876759 111.496172 
L 448.876759 110.072553 
L 449.531704 110.072553 
L 449.531704 109.493236 
L 450.18665 109.493236 
L 450.18665 110.031817 
L 450.841595 110.031817 
L 450.841595 109.698325 
L 451.496541 109.698325 
L 451.496541 108.614069 
L 452.151486 108.614069 
L 452.151486 107.263442 
L 452.806432 107.263442 
L 452.806432 106.797688 
L 453.461377 106.797688 
L 453.461377 105.485239 
L 454.116323 105.485239 
L 454.116323 104.714344 
L 454.771268 104.714344 
L 454.771268 106.053662 
L 455.426214 106.053662 
L 455.426214 105.218589 
L 456.081159 105.218589 
L 456.081159 108.343512 
L 456.736105 108.343512 
L 456.736105 107.487415 
L 457.39105 107.487415 
L 457.39105 110.536611 
L 458.045996 110.536611 
L 458.045996 108.908857 
L 458.700941 108.908857 
L 458.700941 108.116214 
L 459.355887 108.116214 
L 459.355887 106.024949 
L 460.010832 106.024949 
L 460.010832 105.742387 
L 460.665778 105.742387 
L 460.665778 106.437881 
L 461.320723 106.437881 
L 461.320723 105.894662 
L 461.975669 105.894662 
L 461.975669 105.344883 
L 462.630614 105.344883 
L 462.630614 104.437182 
L 463.28556 104.437182 
L 463.28556 103.381479 
L 463.940505 103.381479 
L 463.940505 100.743079 
L 464.595451 100.743079 
L 464.595451 99.250625 
L 465.250396 99.250625 
L 465.250396 98.728713 
L 465.905342 98.728713 
L 465.905342 98.530902 
L 466.560287 98.530902 
L 466.560287 95.154695 
L 467.215233 95.154695 
L 467.215233 91.252792 
L 467.870178 91.252792 
L 467.870178 93.472076 
L 468.525124 93.472076 
L 468.525124 91.352735 
L 469.180069 91.352735 
L 469.180069 88.985847 
L 469.835015 88.985847 
L 469.835015 88.032807 
L 470.48996 88.032807 
L 470.48996 88.932679 
L 471.144906 88.932679 
L 471.144906 89.529558 
L 471.799851 89.529558 
L 471.799851 89.301053 
L 472.454797 89.301053 
L 472.454797 90.569439 
L 473.109742 90.569439 
L 473.109742 90.24098 
L 474.419633 90.173381 
L 474.419633 90.562512 
L 475.074579 90.562512 
L 475.074579 92.228823 
L 475.729524 92.228823 
L 475.729524 95.538194 
L 476.38447 95.538194 
L 476.38447 92.646165 
L 477.039416 92.646165 
L 477.039416 88.608271 
L 477.694361 88.608271 
L 477.694361 89.318028 
L 478.349307 89.318028 
L 478.349307 87.75551 
L 479.659198 87.802105 
L 479.659198 84.11081 
L 480.314143 84.11081 
L 480.314143 81.468272 
L 480.969089 81.468272 
L 480.969089 78.894844 
L 481.624034 78.894844 
L 481.624034 80.487081 
L 482.27898 80.487081 
L 482.27898 79.10606 
L 482.933925 79.10606 
L 482.933925 78.89074 
L 483.588871 78.89074 
L 483.588871 76.495947 
L 484.243816 76.495947 
L 484.243816 78.850884 
L 484.898762 78.850884 
L 484.898762 79.110399 
L 485.553707 79.110399 
L 485.553707 81.486096 
L 486.208653 81.486096 
L 486.208653 82.520029 
L 486.863598 82.520029 
L 486.863598 82.965384 
L 487.518544 82.965384 
L 487.518544 81.128446 
L 488.173489 81.128446 
L 488.173489 79.929675 
L 488.828435 79.929675 
L 488.828435 79.21938 
L 489.48338 79.21938 
L 489.48338 78.59319 
L 490.138326 78.59319 
L 490.138326 76.86616 
L 490.793271 76.86616 
L 490.793271 73.403733 
L 492.103162 73.383671 
L 492.103162 72.650921 
L 492.758108 72.650921 
L 492.758108 73.118737 
L 493.413053 73.118737 
L 493.413053 70.901707 
L 494.067999 70.901707 
L 494.067999 68.018126 
L 494.722944 68.018126 
L 494.722944 67.729645 
L 495.37789 67.729645 
L 495.37789 72.688154 
L 496.032835 72.688154 
L 496.032835 66.639107 
L 496.687781 66.639107 
L 496.687781 65.669205 
L 497.997672 65.745432 
L 497.997672 61.803115 
L 498.652617 61.803115 
L 498.652617 59.808766 
L 499.307563 59.808766 
L 499.307563 54.840075 
L 499.962508 54.840075 
L 499.962508 53.069224 
L 500.617454 53.069224 
L 500.617454 51.291013 
L 501.272399 51.291013 
L 501.272399 48.325151 
L 501.927345 48.325151 
L 501.927345 54.941883 
L 502.58229 54.941883 
L 502.58229 52.241718 
L 503.237236 52.241718 
L 503.237236 56.785649 
L 503.892181 56.785649 
L 503.892181 53.110442 
L 504.547127 53.110442 
L 504.547127 51.566797 
L 505.202072 51.566797 
L 505.202072 55.699919 
L 505.857018 55.699919 
L 505.857018 55.281899 
L 506.511963 55.281899 
L 506.511963 58.70247 
L 507.166909 58.70247 
L 507.166909 59.965096 
L 507.821854 59.965096 
L 507.821854 58.839302 
L 508.4768 58.839302 
L 508.4768 61.211484 
L 509.131745 61.211484 
L 509.131745 65.772711 
L 510.441636 65.663454 
L 510.441636 64.077142 
L 511.096582 64.077142 
L 511.096582 61.263619 
L 511.751528 61.263619 
L 511.751528 59.180789 
L 512.406473 59.180789 
L 512.406473 62.269921 
L 513.061419 62.269921 
L 513.061419 60.950843 
L 513.716364 60.950843 
L 513.716364 58.683747 
L 514.37131 58.683747 
L 514.37131 63.093966 
L 515.026255 63.093966 
L 515.026255 63.534221 
L 515.681201 63.534221 
L 515.681201 65.53011 
L 516.336146 65.53011 
L 516.336146 64.04376 
L 516.991092 64.04376 
L 516.991092 64.944721 
L 517.646037 64.944721 
L 517.646037 66.42301 
L 518.300983 66.42301 
L 518.300983 69.603507 
L 518.955928 69.603507 
L 518.955928 69.728934 
L 520.265819 69.735859 
L 520.265819 66.568942 
L 521.57571 66.537381 
L 521.57571 63.995412 
L 522.230656 63.995412 
L 522.230656 64.137285 
L 522.885601 64.137285 
L 522.885601 62.929096 
L 523.540547 62.929096 
L 523.540547 62.15485 
L 524.195492 62.15485 
L 524.195492 62.994174 
L 524.850438 62.994174 
L 524.850438 65.282557 
L 525.505383 65.282557 
L 525.505383 65.098737 
L 526.160329 65.098737 
L 526.160329 65.67108 
L 526.815274 65.67108 
L 526.815274 67.608435 
L 527.47022 67.608435 
L 527.47022 68.078977 
L 528.125165 68.078977 
L 528.125165 67.670388 
L 529.435056 67.654193 
L 529.435056 67.322283 
L 530.090002 67.322283 
L 530.090002 70.460669 
L 530.744947 70.460669 
L 530.744947 70.666678 
L 531.399893 70.666678 
L 531.399893 69.808575 
L 532.054838 69.808575 
L 532.054838 71.762382 
L 532.709784 71.762382 
L 532.709784 72.730535 
L 533.364729 72.730535 
L 533.364729 70.227908 
L 534.67462 70.221133 
L 534.67462 71.186183 
L 535.329566 71.186183 
L 535.329566 71.453286 
L 535.984511 71.453286 
L 535.984511 68.003614 
L 537.294402 67.903129 
L 537.294402 66.451399 
L 537.949348 66.451399 
L 537.949348 65.850699 
L 538.604293 65.850699 
L 538.604293 67.880273 
L 539.259239 67.880273 
L 539.259239 69.940589 
L 539.914184 69.940589 
L 539.914184 71.523558 
L 540.56913 71.523558 
L 540.56913 71.380452 
L 541.224075 71.380452 
L 541.224075 70.673439 
L 541.879021 70.673439 
L 541.879021 70.547028 
L 542.533966 70.547028 
L 542.533966 69.379208 
L 543.188912 69.379208 
L 543.188912 69.026552 
L 543.843857 69.026552 
L 543.843857 68.037416 
L 544.498803 68.037416 
L 544.498803 71.670928 
L 545.153749 71.670928 
L 545.153749 71.196844 
L 545.808694 71.196844 
L 545.808694 70.638726 
L 547.118585 70.643066 
L 547.118585 70.363846 
L 547.773531 70.363846 
L 547.773531 70.220913 
L 548.428476 70.220913 
L 548.428476 70.561915 
L 549.083422 70.561915 
L 549.083422 70.395054 
L 550.393313 70.371398 
L 550.393313 71.398812 
L 551.048258 71.398812 
L 551.048258 70.599419 
L 552.358149 70.649916 
L 552.358149 70.719887 
L 553.013095 70.719887 
L 553.013095 71.277655 
L 553.66804 71.277655 
L 553.66804 71.080757 
L 554.322986 71.080757 
L 554.322986 70.512269 
L 554.977931 70.512269 
L 554.977931 70.926266 
L 555.632877 70.926266 
L 555.632877 73.525029 
L 556.287822 73.525029 
L 556.287822 76.751226 
L 556.942768 76.751226 
L 556.942768 79.004047 
L 557.597713 79.004047 
L 557.597713 81.685729 
L 558.252659 81.685729 
L 558.252659 79.81055 
L 558.907604 79.81055 
L 558.907604 82.146119 
L 559.56255 82.146119 
L 559.56255 83.037893 
L 560.217495 83.037893 
L 560.217495 84.736712 
L 560.872441 84.736712 
L 560.872441 83.224386 
L 561.527386 83.224386 
L 561.527386 81.299917 
L 562.182332 81.299917 
L 562.182332 81.723569 
L 562.837277 81.723569 
L 562.837277 82.005055 
L 563.492223 82.005055 
L 563.492223 81.132005 
L 564.147168 81.132005 
L 564.147168 80.398825 
L 564.802114 80.398825 
L 564.802114 82.704111 
L 565.457059 82.704111 
L 565.457059 82.497615 
L 566.112005 82.497615 
L 566.112005 82.82198 
L 566.76695 82.82198 
L 566.76695 83.044238 
L 568.076841 83.10867 
L 568.076841 83.738865 
L 569.386732 83.823178 
L 569.386732 84.196702 
L 570.041678 84.196702 
L 570.041678 82.800447 
L 570.696623 82.800447 
L 570.696623 82.923202 
L 571.351569 82.923202 
L 571.351569 81.157414 
L 572.006514 81.157414 
L 572.006514 80.053772 
L 572.66146 80.053772 
L 572.66146 81.659669 
L 573.971351 81.761531 
L 573.971351 81.369708 
L 575.281242 81.40052 
L 575.281242 81.104451 
L 575.936187 81.104451 
L 575.936187 80.618795 
L 577.901024 80.518475 
L 577.901024 80.182519 
L 578.555969 80.182519 
L 578.555969 76.483909 
L 579.210915 76.483909 
L 579.210915 75.016529 
L 579.865861 75.016529 
L 579.865861 75.80772 
L 580.520806 75.80772 
L 580.520806 75.304147 
L 581.175752 75.304147 
L 581.175752 74.856324 
L 581.830697 74.856324 
L 581.830697 74.370653 
L 582.485643 74.370653 
L 582.485643 74.887779 
L 583.140588 74.887779 
L 583.140588 74.540563 
L 583.795534 74.540563 
L 583.795534 73.430243 
L 584.450479 73.430243 
L 584.450479 71.124404 
L 585.105425 71.124404 
L 585.105425 66.312762 
L 585.76037 66.312762 
L 585.76037 68.306307 
L 586.415316 68.306307 
L 586.415316 67.293808 
L 587.070261 67.293808 
L 587.070261 64.435418 
L 587.725207 64.435418 
L 587.725207 65.594214 
L 588.380152 65.594214 
L 588.380152 65.944377 
L 589.035098 65.944377 
L 589.035098 66.298134 
L 589.690043 66.298134 
L 589.690043 66.509956 
L 590.344989 66.509956 
L 590.344989 64.162423 
L 590.999934 64.162423 
L 590.999934 63.190052 
L 591.65488 63.190052 
L 591.65488 59.99792 
L 592.309825 59.99792 
L 592.309825 59.39195 
L 592.964771 59.39195 
L 592.964771 60.458264 
L 593.619716 60.458264 
L 593.619716 59.727987 
L 594.274662 59.727987 
L 594.274662 56.828349 
L 594.929607 56.828349 
L 594.929607 58.916673 
L 595.584553 58.916673 
L 595.584553 62.324856 
L 596.239498 62.324856 
L 596.239498 60.441115 
L 596.894444 60.441115 
L 596.894444 61.895607 
L 597.549389 61.895607 
L 597.549389 62.701606 
L 598.204335 62.701606 
L 598.204335 60.555565 
L 598.85928 60.555565 
L 598.85928 58.77673 
L 599.514226 58.77673 
L 599.514226 59.113595 
L 600.169171 59.113595 
L 600.169171 61.597864 
L 600.824117 61.597864 
L 600.824117 60.980255 
L 601.479062 60.980255 
L 601.479062 61.400682 
L 602.134008 61.400682 
L 602.134008 60.894039 
L 602.788953 60.894039 
L 602.788953 62.533773 
L 603.443899 62.533773 
L 603.443899 60.374388 
L 604.098844 60.374388 
L 604.098844 60.639716 
L 604.75379 60.639716 
L 604.75379 61.303134 
L 605.408735 61.303134 
L 605.408735 60.994774 
L 606.718626 61.064877 
L 606.718626 62.30522 
L 607.373572 62.30522 
L 607.373572 65.7935 
L 608.028517 65.7935 
L 608.028517 65.467206 
L 608.683463 65.467206 
L 608.683463 65.911617 
L 609.338408 65.911617 
L 609.338408 64.81259 
L 609.993354 64.81259 
L 609.993354 65.565704 
L 610.648299 65.565704 
L 610.648299 66.094179 
L 611.303245 66.094179 
L 611.303245 65.720678 
L 611.95819 65.720678 
L 611.95819 64.621659 
L 612.613136 64.621659 
L 612.613136 62.851573 
L 613.268081 62.851573 
L 613.268081 63.146265 
L 614.577973 63.051811 
L 614.577973 63.747776 
L 615.232918 63.747776 
L 615.232918 64.70489 
L 615.887864 64.70489 
L 615.887864 65.8392 
L 616.542809 65.8392 
L 616.542809 68.245164 
L 617.197755 68.245164 
L 617.197755 68.59992 
L 617.8527 68.59992 
L 617.8527 67.481456 
L 618.507646 67.481456 
L 618.507646 68.514903 
L 619.162591 68.514903 
L 619.162591 67.579317 
L 619.817537 67.579317 
L 619.817537 68.52562 
L 620.472482 68.52562 
L 620.472482 69.445043 
L 621.127428 69.445043 
L 621.127428 68.522686 
L 621.782373 68.522686 
L 621.782373 68.34763 
L 622.437319 68.34763 
L 622.437319 68.203014 
L 623.092264 68.203014 
L 623.092264 68.564818 
L 623.74721 68.564818 
L 623.74721 68.059052 
L 624.402155 68.059052 
L 624.402155 66.774511 
L 625.057101 66.774511 
L 625.057101 66.020715 
L 625.712046 66.020715 
L 625.712046 64.066298 
L 626.366992 64.066298 
L 626.366992 64.488413 
L 627.021937 64.488413 
L 627.021937 65.456067 
L 627.676883 65.456067 
L 627.676883 63.194305 
L 628.986774 63.116242 
L 628.986774 62.149904 
L 629.641719 62.149904 
L 629.641719 61.938754 
L 630.296665 61.938754 
L 630.296665 60.877414 
L 630.95161 60.877414 
L 630.95161 61.259331 
L 631.606556 61.259331 
L 631.606556 62.334897 
L 632.261501 62.334897 
L 632.261501 64.337485 
L 632.916447 64.337485 
L 632.916447 64.943717 
L 633.571392 64.943717 
L 633.571392 63.677937 
L 634.226338 63.677937 
L 634.226338 66.472111 
L 634.881283 66.472111 
L 634.881283 73.709272 
L 635.536229 73.709272 
L 635.536229 74.667067 
L 636.191174 74.667067 
L 636.191174 71.651383 
L 636.84612 71.651383 
L 636.84612 70.00214 
L 637.501065 70.00214 
L 637.501065 72.70472 
L 638.156011 72.70472 
L 638.156011 69.65996 
L 638.810956 69.65996 
L 638.810956 68.082845 
L 639.465902 68.082845 
L 639.465902 69.464178 
L 640.775793 69.468098 
L 640.775793 68.322671 
L 641.430738 68.322671 
L 641.430738 68.695298 
L 642.085684 68.695298 
L 642.085684 67.09391 
L 642.740629 67.09391 
L 642.740629 64.713481 
L 643.395575 64.713481 
L 643.395575 64.10014 
L 644.05052 64.10014 
L 644.05052 62.008787 
L 644.705466 62.008787 
L 644.705466 64.268634 
L 645.360411 64.268634 
L 645.360411 62.957337 
L 646.015357 62.957337 
L 646.015357 62.681086 
L 646.670302 62.681086 
L 646.670302 64.468141 
L 647.325248 64.468141 
L 647.325248 62.552927 
L 647.980193 62.552927 
L 647.980193 61.211013 
L 648.635139 61.211013 
L 648.635139 62.434229 
L 649.290085 62.434229 
L 649.290085 62.108221 
L 649.94503 62.108221 
L 649.94503 62.76287 
L 651.254921 62.804115 
L 651.254921 63.183122 
L 652.564812 63.282173 
L 652.564812 63.407987 
L 653.219758 63.407987 
L 653.219758 63.666354 
L 653.874703 63.666354 
L 653.874703 63.247442 
L 655.184594 63.293228 
L 655.184594 63.389442 
L 656.494485 63.34145 
L 656.494485 62.457332 
L 657.149431 62.457332 
L 657.149431 59.562328 
L 657.804376 59.562328 
L 657.804376 58.999763 
L 658.459322 58.999763 
L 658.459322 59.27708 
L 659.114267 59.27708 
L 659.114267 58.233866 
L 659.769213 58.233866 
L 659.769213 58.581934 
L 660.424158 58.581934 
L 660.424158 57.975619 
L 661.734049 58.060268 
L 661.734049 58.240381 
L 662.388995 58.240381 
L 662.388995 58.651275 
L 663.04394 58.651275 
L 663.04394 57.959428 
L 663.698886 57.959428 
L 663.698886 61.302518 
L 664.353831 61.302518 
L 664.353831 61.162766 
L 665.008777 61.162766 
L 665.008777 60.953613 
L 665.663722 60.953613 
L 665.663722 59.749483 
L 666.318668 59.749483 
L 666.318668 60.75304 
L 666.973613 60.75304 
L 666.973613 60.234167 
L 667.628559 60.234167 
L 667.628559 59.947152 
L 668.283504 59.947152 
L 668.283504 60.511538 
L 668.93845 60.511538 
L 668.93845 60.27726 
L 669.593395 60.27726 
L 669.593395 58.93959 
L 670.248341 58.93959 
L 670.248341 58.707516 
L 670.903286 58.707516 
L 670.903286 58.250627 
L 671.558232 58.250627 
L 671.558232 56.243029 
L 672.213177 56.243029 
L 672.213177 55.132462 
L 672.868123 55.132462 
L 672.868123 54.890841 
L 673.523068 54.890841 
L 673.523068 54.375112 
L 674.178014 54.375112 
L 674.178014 52.492852 
L 674.832959 52.492852 
L 674.832959 51.434806 
L 675.487905 51.434806 
L 675.487905 50.891365 
L 676.14285 50.891365 
L 676.14285 48.574382 
L 676.797796 48.574382 
L 676.797796 48.03918 
L 677.452741 48.03918 
L 677.452741 49.669973 
L 678.107687 49.669973 
L 678.107687 47.97995 
L 678.762632 47.97995 
L 678.762632 47.816901 
L 679.417578 47.816901 
L 679.417578 49.071657 
L 680.072523 49.071657 
L 680.072523 47.926119 
L 680.727469 47.926119 
L 680.727469 44.101243 
L 681.382414 44.101243 
L 681.382414 43.501708 
L 682.03736 43.501708 
L 682.03736 41.324118 
L 682.692306 41.324118 
L 682.692306 39.500019 
L 683.347251 39.500019 
L 683.347251 36.697366 
L 684.002197 36.697366 
L 684.002197 32.950214 
L 684.657142 32.950214 
L 684.657142 35.146288 
L 685.312088 35.146288 
L 685.312088 34.405388 
L 685.967033 34.405388 
L 685.967033 34.868928 
L 686.621979 34.868928 
L 686.621979 37.275539 
L 687.276924 37.275539 
L 687.276924 38.398643 
L 687.93187 38.398643 
L 687.93187 36.611674 
L 688.586815 36.611674 
L 688.586815 34.307189 
L 689.241761 34.307189 
L 689.241761 29.596403 
L 689.896706 29.596403 
L 689.896706 29.10356 
L 690.551652 29.10356 
L 690.551652 28.373517 
L 691.206597 28.373517 
L 691.206597 25.652358 
L 691.861543 25.652358 
L 691.861543 27.760325 
L 692.516488 27.760325 
L 692.516488 30.167384 
L 693.171434 30.167384 
L 693.171434 28.677867 
L 693.826379 28.677867 
L 693.826379 27.080693 
L 694.481325 27.080693 
L 694.481325 25.190547 
L 695.13627 25.190547 
L 695.13627 25.329959 
L 695.791216 25.329959 
L 695.791216 24.889041 
L 696.446161 24.889041 
L 696.446161 26.997437 
L 697.101107 26.997437 
L 697.101107 25.733628 
L 697.756052 25.733628 
L 697.756052 24.656228 
L 698.410998 24.656228 
L 698.410998 24.54375 
L 699.065943 24.54375 
L 699.065943 24.883009 
L 699.720889 24.883009 
L 699.720889 23.009876 
L 700.375834 23.009876 
L 700.375834 24.181578 
L 701.03078 24.181578 
L 701.03078 26.486435 
L 701.685725 26.486435 
L 701.685725 28.409456 
L 702.340671 28.409456 
L 702.340671 26.573813 
L 702.995616 26.573813 
L 702.995616 25.205125 
L 704.305507 25.144274 
L 704.305507 25.374949 
L 704.960453 25.374949 
L 704.960453 29.429376 
L 705.615398 29.429376 
L 705.615398 34.328546 
L 706.270344 34.328546 
L 706.270344 35.615947 
L 706.925289 35.615947 
L 706.925289 33.508081 
L 707.580235 33.508081 
L 707.580235 34.13381 
L 708.23518 34.13381 
L 708.23518 34.373094 
L 708.890126 34.373094 
L 708.890126 36.414866 
L 709.545071 36.414866 
L 709.545071 35.17571 
L 710.200017 35.17571 
L 710.200017 33.573601 
L 710.854962 33.573601 
L 710.854962 35.118449 
L 711.509908 35.118449 
L 711.509908 35.685266 
L 712.819799 35.79572 
L 712.819799 36.162485 
L 713.474744 36.162485 
L 713.474744 35.945155 
L 714.12969 35.945155 
L 714.12969 36.374085 
L 714.784635 36.374085 
L 714.784635 36.815521 
L 715.439581 36.815521 
L 715.439581 37.482323 
L 716.094526 37.482323 
L 716.094526 37.147011 
L 716.749472 37.147011 
L 716.749472 34.129556 
L 717.404418 34.129556 
L 717.404418 31.554905 
L 718.059363 31.554905 
L 718.059363 33.675686 
L 718.714309 33.675686 
L 718.714309 30.39069 
L 719.369254 30.39069 
L 719.369254 29.938311 
L 720.0242 29.938311 
L 720.0242 29.286939 
L 720.679145 29.286939 
L 720.679145 29.430238 
L 721.334091 29.430238 
L 721.334091 28.219698 
L 721.989036 28.219698 
L 721.989036 28.417424 
L 722.643982 28.417424 
L 722.643982 29.242842 
L 723.298927 29.242842 
L 723.298927 28.041698 
L 723.953873 28.041698 
L 723.953873 29.725598 
L 725.263764 29.734329 
L 725.263764 28.96593 
L 725.918709 28.96593 
L 725.918709 31.217551 
L 727.2286 31.259459 
L 727.2286 32.158724 
L 727.883546 32.158724 
L 727.883546 28.991365 
L 728.538491 28.991365 
L 728.538491 25.898997 
L 729.193437 25.898997 
L 729.193437 26.171732 
L 729.848382 26.171732 
L 729.848382 25.137916 
L 730.503328 25.137916 
L 730.503328 23.536619 
L 731.158273 23.536619 
L 731.158273 23.970631 
L 731.813219 23.970631 
L 731.813219 24.092066 
L 732.468164 24.092066 
L 732.468164 23.617761 
L 733.12311 23.617761 
L 733.12311 23.207845 
L 733.778055 23.207845 
L 733.778055 23.095895 
L 734.433001 23.095895 
L 734.433001 22.592014 
L 735.087946 22.592014 
L 735.087946 23.000082 
L 735.742892 23.000082 
L 735.742892 24.87207 
L 736.397837 24.87207 
L 736.397837 25.072348 
L 737.052783 25.072348 
L 737.052783 26.104774 
L 737.707728 26.104774 
L 737.707728 25.199129 
L 738.362674 25.199129 
L 738.362674 28.280121 
L 739.017619 28.280121 
L 739.017619 29.020889 
L 739.672565 29.020889 
L 739.672565 29.420212 
L 740.32751 29.420212 
L 740.32751 29.682524 
L 740.982456 29.682524 
L 740.982456 28.469552 
L 741.637401 28.469552 
L 741.637401 27.823934 
L 742.292347 27.823934 
L 742.292347 29.576336 
L 742.947292 29.576336 
L 742.947292 29.166802 
L 743.602238 29.166802 
L 743.602238 31.111175 
L 744.257183 31.111175 
L 744.257183 31.736347 
L 744.912129 31.736347 
L 744.912129 31.121475 
L 745.567074 31.121475 
L 745.567074 31.472283 
L 746.22202 31.472283 
L 746.22202 35.426379 
L 746.876965 35.426379 
L 746.876965 34.408235 
L 747.531911 34.408235 
L 747.531911 33.79617 
L 748.186856 33.79617 
L 748.186856 34.256277 
L 748.841802 34.256277 
L 748.841802 30.768475 
L 749.496747 30.768475 
L 749.496747 31.462533 
L 750.151693 31.462533 
L 750.151693 30.436564 
L 750.806638 30.436564 
L 750.806638 32.620135 
L 751.461584 32.620135 
L 751.461584 34.144482 
L 752.11653 34.144482 
L 752.11653 33.914407 
L 752.771475 33.914407 
L 752.771475 31.43146 
L 753.426421 31.43146 
L 753.426421 33.73354 
L 754.081366 33.73354 
L 754.081366 33.34803 
L 754.736312 33.34803 
L 754.736312 33.037787 
L 755.391257 33.037787 
L 755.391257 31.550863 
L 756.046203 31.550863 
L 756.046203 31.215847 
L 756.701148 31.215847 
L 756.701148 29.374951 
L 757.356094 29.374951 
L 757.356094 29.971416 
L 758.011039 29.971416 
L 758.011039 29.485453 
L 758.665985 29.485453 
L 758.665985 31.522875 
L 759.32093 31.522875 
L 759.32093 32.626826 
L 759.975876 32.626826 
L 759.975876 32.478106 
L 760.630821 32.478106 
L 760.630821 31.973854 
L 761.285767 31.973854 
L 761.285767 32.961044 
L 761.940712 32.961044 
L 761.940712 32.800536 
L 762.595658 32.800536 
L 762.595658 33.472604 
L 763.250603 33.472604 
L 763.250603 34.873045 
L 763.905549 34.873045 
L 763.905549 38.000967 
L 764.560494 38.000967 
L 764.560494 38.636562 
L 765.21544 38.636562 
L 765.21544 39.627515 
L 765.870385 39.627515 
L 765.870385 38.495145 
L 766.525331 38.495145 
L 766.525331 39.257289 
L 767.180276 39.257289 
L 767.180276 37.526995 
L 767.835222 37.526995 
L 767.835222 38.911173 
L 768.490167 38.911173 
L 768.490167 37.924381 
L 769.145113 37.924381 
L 769.145113 39.873978 
L 769.800058 39.873978 
L 769.800058 44.649665 
L 770.455004 44.649665 
L 770.455004 46.599878 
L 771.109949 46.599878 
L 771.109949 46.050059 
L 771.764895 46.050059 
L 771.764895 46.435955 
L 772.41984 46.435955 
L 772.41984 47.980243 
L 773.074786 47.980243 
L 773.074786 46.967585 
L 773.729731 46.967585 
L 773.729731 45.566167 
L 774.384677 45.566167 
L 774.384677 46.924393 
L 775.039622 46.924393 
L 775.039622 46.363444 
L 775.694568 46.363444 
L 775.694568 44.098266 
L 776.349513 44.098266 
L 776.349513 45.840736 
L 777.004459 45.840736 
L 777.004459 43.530647 
L 777.659404 43.530647 
L 777.659404 44.254282 
L 778.969295 44.285731 
L 778.969295 43.38376 
L 779.624241 43.38376 
L 779.624241 43.076611 
L 780.279186 43.076611 
L 780.279186 44.062307 
L 780.934132 44.062307 
L 780.934132 45.740759 
L 781.589077 45.740759 
L 781.589077 46.914451 
L 782.244023 46.914451 
L 782.244023 47.373956 
L 783.553914 47.329769 
L 783.553914 47.922339 
L 784.208859 47.922339 
L 784.208859 45.362094 
L 784.863805 45.362094 
L 784.863805 47.477971 
L 785.51875 47.477971 
L 785.51875 47.640308 
L 786.173696 47.640308 
L 786.173696 47.921797 
L 786.828642 47.921797 
L 786.828642 48.112982 
L 787.483587 48.112982 
L 787.483587 47.884881 
L 788.138533 47.884881 
L 788.138533 46.982202 
L 788.793478 46.982202 
L 788.793478 47.747799 
L 790.103369 47.810791 
L 790.103369 47.633074 
L 790.758315 47.633074 
L 790.758315 48.040465 
L 791.41326 48.040465 
L 791.41326 47.051202 
L 792.068206 47.051202 
L 792.068206 46.321333 
L 792.723151 46.321333 
L 792.723151 46.996498 
L 793.378097 46.996498 
L 793.378097 46.217078 
L 794.033042 46.217078 
L 794.033042 49.885667 
L 794.687988 49.885667 
L 794.687988 51.063386 
L 795.342933 51.063386 
L 795.342933 50.94379 
L 795.997879 50.94379 
L 795.997879 51.564424 
L 796.652824 51.564424 
L 796.652824 51.233407 
L 797.30777 51.233407 
L 797.30777 50.342371 
L 799.927552 50.298325 
L 799.927552 51.000979 
L 800.582497 51.000979 
L 800.582497 50.668424 
L 801.892388 50.750795 
L 801.892388 51.124767 
L 803.202279 51.03099 
L 803.202279 50.7653 
L 803.857225 50.7653 
L 803.857225 50.316296 
L 804.51217 50.316296 
L 804.51217 47.226394 
L 805.167116 47.226394 
L 805.167116 45.993802 
L 805.822061 45.993802 
L 805.822061 44.445333 
L 806.477007 44.445333 
L 806.477007 44.156391 
L 807.131952 44.156391 
L 807.131952 43.562405 
L 807.786898 43.562405 
L 807.786898 43.829116 
L 808.441843 43.829116 
L 808.441843 44.453368 
L 809.096789 44.453368 
L 809.096789 45.512094 
L 809.751734 45.512094 
L 809.751734 44.966002 
L 810.40668 44.966002 
L 810.40668 42.797564 
L 811.061625 42.797564 
L 811.061625 43.187901 
L 811.716571 43.187901 
L 811.716571 43.732546 
L 813.026462 43.817587 
L 813.026462 44.779888 
L 813.681407 44.779888 
L 813.681407 46.923195 
L 814.336353 46.923195 
L 814.336353 42.69145 
L 814.991298 42.69145 
L 814.991298 40.907967 
L 815.646244 40.907967 
L 815.646244 40.653309 
L 816.301189 40.653309 
L 816.301189 40.129493 
L 817.61108 40.104729 
L 817.61108 40.277414 
L 818.920971 40.18498 
L 818.920971 38.525489 
L 820.230862 38.467311 
L 820.230862 39.519585 
L 820.885808 39.519585 
L 820.885808 40.437038 
L 821.540754 40.437038 
L 821.540754 39.053376 
L 822.195699 39.053376 
L 822.195699 40.064841 
L 822.850645 40.064841 
L 822.850645 39.014427 
L 823.50559 39.014427 
L 823.50559 40.399572 
L 824.160536 40.399572 
L 824.160536 41.055163 
L 824.815481 41.055163 
L 824.815481 40.583099 
L 825.470427 40.583099 
L 825.470427 41.078076 
L 826.125372 41.078076 
L 826.125372 41.297218 
L 826.780318 41.297218 
L 826.780318 40.320706 
L 827.435263 40.320706 
L 827.435263 40.69495 
L 828.745154 40.701305 
L 828.745154 41.795701 
L 829.4001 41.795701 
L 829.4001 42.390412 
L 830.055045 42.390412 
L 830.055045 41.408109 
L 830.709991 41.408109 
L 830.709991 38.755567 
L 831.364936 38.755567 
L 831.364936 38.503589 
L 832.019882 38.503589 
L 832.019882 38.362745 
L 832.674827 38.362745 
L 832.674827 38.155842 
L 833.329773 38.155842 
L 833.329773 38.539606 
L 833.984718 38.539606 
L 833.984718 38.417553 
L 835.294609 38.521828 
L 835.294609 38.826535 
L 835.949555 38.826535 
L 835.949555 39.268381 
L 837.259446 39.17005 
L 837.259446 38.909871 
L 837.914391 38.909871 
L 837.914391 39.361935 
L 838.569337 39.361935 
L 838.569337 38.992913 
L 839.224282 38.992913 
L 839.224282 39.193059 
L 839.879228 39.193059 
L 839.879228 41.151986 
L 840.534173 41.151986 
L 840.534173 41.578241 
L 841.844064 41.637478 
L 841.844064 40.330818 
L 842.49901 40.330818 
L 842.49901 41.782562 
L 844.463846 41.811865 
L 844.463846 41.250943 
L 845.118792 41.250943 
L 845.118792 41.072464 
L 845.773737 41.072464 
L 845.773737 41.214896 
L 846.428683 41.214896 
L 846.428683 41.506881 
L 847.083628 41.506881 
L 847.083628 40.911808 
L 847.738574 40.911808 
L 847.738574 40.280923 
L 849.048465 40.176284 
L 849.048465 41.076445 
L 849.70341 41.076445 
L 849.70341 39.747025 
L 850.358356 39.747025 
L 850.358356 38.910582 
L 851.013301 38.910582 
L 851.013301 36.134258 
L 851.668247 36.134258 
L 851.668247 36.018744 
L 852.323192 36.018744 
L 852.323192 35.207738 
L 852.978138 35.207738 
L 852.978138 35.440128 
L 853.633083 35.440128 
L 853.633083 34.480533 
L 854.288029 34.480533 
L 854.288029 34.594042 
L 855.59792 34.521522 
L 855.59792 34.991735 
L 856.252866 34.991735 
L 856.252866 33.861088 
L 857.562757 33.824417 
L 857.562757 32.692634 
L 858.217702 32.692634 
L 858.217702 31.025105 
L 858.872648 31.025105 
L 858.872648 32.043365 
L 859.527593 32.043365 
L 859.527593 31.693616 
L 860.182539 31.693616 
L 860.182539 31.530938 
L 860.837484 31.530938 
L 860.837484 30.812208 
L 861.49243 30.812208 
L 861.49243 30.942276 
L 862.147375 30.942276 
L 862.147375 31.537329 
L 862.802321 31.537329 
L 862.802321 30.599502 
L 863.457266 30.599502 
L 863.457266 29.32425 
L 864.112212 29.32425 
L 864.112212 31.245601 
L 864.767157 31.245601 
L 864.767157 31.105475 
L 865.422103 31.105475 
L 865.422103 31.831184 
L 866.077048 31.831184 
L 866.077048 32.64439 
L 866.731994 32.64439 
L 866.731994 31.645809 
L 867.386939 31.645809 
L 867.386939 31.139999 
L 868.041885 31.139999 
L 868.041885 31.338765 
L 868.69683 31.338765 
L 868.69683 29.252291 
L 869.351776 29.252291 
L 869.351776 28.128912 
L 870.006721 28.128912 
L 870.006721 27.327331 
L 871.971558 27.310201 
L 871.971558 23.807678 
L 872.626503 23.807678 
L 872.626503 21.482129 
L 873.936394 21.503757 
L 873.936394 20.552727 
L 874.59134 20.552727 
L 874.59134 22.442812 
L 875.246285 22.442812 
L 875.246285 21.641716 
L 875.901231 21.641716 
L 875.901231 21.836789 
L 876.556176 21.836789 
L 876.556176 20.768427 
L 877.211122 20.768427 
L 877.211122 21.081703 
L 877.866067 21.081703 
L 877.866067 21.641642 
L 878.521013 21.641642 
L 878.521013 21.250043 
L 879.175958 21.250043 
L 879.175958 22.857526 
L 879.830904 22.857526 
L 879.830904 23.770831 
L 880.485849 23.770831 
L 880.485849 22.556297 
L 881.140795 22.556297 
L 881.140795 22.705874 
L 881.79574 22.705874 
L 881.79574 22.918627 
L 882.450686 22.918627 
L 882.450686 23.230944 
L 883.105631 23.230944 
L 883.105631 23.418396 
L 883.760577 23.418396 
L 883.760577 23.933255 
L 884.415522 23.933255 
L 884.415522 22.145758 
L 885.725413 22.137265 
L 885.725413 21.615555 
L 886.380359 21.615555 
L 886.380359 21.179955 
L 887.035304 21.179955 
L 887.035304 21.473629 
L 887.194182 21.473629 
L 887.194182 21.473629 
" clip-path="url(#pd114a7e315)" style="fill: none; stroke: #3572c6; stroke-width: 1.2; stroke-linecap: square"/>
   </g>
   <g id="line2d_76">
    <path d="M 75.557818 20.552727 
L 887.194182 20.552727 
L 887.194182 20.552727 
" clip-path="url(#pd114a7e315)" style="fill: none; stroke: #83a83b; stroke-width: 1.2; stroke-linecap: square"/>
   </g>
   <g id="line2d_77">
    <path d="M 75.557818 23.933255 
L 887.194182 23.933255 
L 887.194182 23.933255 
" clip-path="url(#pd114a7e315)" style="fill: none; stroke: #c44e52; stroke-width: 1.2; stroke-linecap: square"/>
   </g>
   <g id="line2d_78">
    <path d="M 874.59134 300.96 
L 874.59134 7.2 
" clip-path="url(#pd114a7e315)" style="fill: none; stroke: #83a83b; stroke-width: 1.2; stroke-linecap: square"/>
   </g>
   <g id="line2d_79">
    <path d="M 884.415522 300.96 
L 884.415522 7.2 
" clip-path="url(#pd114a7e315)" style="fill: none; stroke: #c44e52; stroke-width: 1.2; stroke-linecap: square"/>
   </g>
   <g id="patch_3">
    <path d="M 34.976 300.96 
L 34.976 7.2 
" style="fill: none; stroke: #899ab8; stroke-width: 1.12; stroke-linejoin: miter; stroke-linecap: square"/>
   </g>
   <g id="patch_4">
    <path d="M 927.776 300.96 
L 927.776 7.2 
" style="fill: none; stroke: #899ab8; stroke-width: 1.12; stroke-linejoin: miter; stroke-linecap: square"/>
   </g>
   <g id="patch_5">
    <path d="M 34.976 300.96 
L 927.776 300.96 
" style="fill: none; stroke: #899ab8; stroke-width: 1.12; stroke-linejoin: miter; stroke-linecap: square"/>
   </g>
   <g id="patch_6">
    <path d="M 34.976 7.2 
L 927.776 7.2 
" style="fill: none; stroke: #899ab8; stroke-width: 1.12; stroke-linejoin: miter; stroke-linecap: square"/>
   </g>
   <g id="text_15">
    <!-- 71489.22 -->
    <g style="fill: #83a83b" transform="translate(195.085374 20.552727) scale(0.132 -0.132)">
     <defs>
      <path id="DejaVuSans-37" d="M 525 4666 
L 3525 4666 
L 3525 4397 
L 1831 0 
L 1172 0 
L 2766 4134 
L 525 4134 
L 525 4666 
z
" transform="scale(0.015625)"/>
      <path id="DejaVuSans-39" d="M 703 97 
L 703 672 
Q 941 559 1184 500 
Q 1428 441 1663 441 
Q 2288 441 2617 861 
Q 2947 1281 2994 2138 
Q 2813 1869 2534 1725 
Q 2256 1581 1919 1581 
Q 1219 1581 811 2004 
Q 403 2428 403 3163 
Q 403 3881 828 4315 
Q 1253 4750 1959 4750 
Q 2769 4750 3195 4129 
Q 3622 3509 3622 2328 
Q 3622 1225 3098 567 
Q 2575 -91 1691 -91 
Q 1453 -91 1209 -44 
Q 966 3 703 97 
z
M 1959 2075 
Q 2384 2075 2632 2365 
Q 2881 2656 2881 3163 
Q 2881 3666 2632 3958 
Q 2384 4250 1959 4250 
Q 1534 4250 1286 3958 
Q 1038 3666 1038 3163 
Q 1038 2656 1286 2365 
Q 1534 2075 1959 2075 
z
" transform="scale(0.015625)"/>
      <path id="DejaVuSans-2e" d="M 684 794 
L 1344 794 
L 1344 0 
L 684 0 
L 684 794 
z
" transform="scale(0.015625)"/>
     </defs>
     <use xlink:href="#DejaVuSans-37"/>
     <use xlink:href="#DejaVuSans-31" x="63.623047"/>
     <use xlink:href="#DejaVuSans-34" x="127.246094"/>
     <use xlink:href="#DejaVuSans-38" x="190.869141"/>
     <use xlink:href="#DejaVuSans-39" x="254.492188"/>
     <use xlink:href="#DejaVuSans-2e" x="318.115234"/>
     <use xlink:href="#DejaVuSans-32" x="349.902344"/>
     <use xlink:href="#DejaVuSans-32" x="413.525391"/>
    </g>
   </g>
   <g id="text_16">
    <!-- 60805.78 -->
    <g style="fill: #c44e52" transform="translate(195.085374 23.933255) scale(0.132 -0.132)">
     <use xlink:href="#DejaVuSans-36"/>
     <use xlink:href="#DejaVuSans-30" x="63.623047"/>
     <use xlink:href="#DejaVuSans-38" x="127.246094"/>
     <use xlink:href="#DejaVuSans-30" x="190.869141"/>
     <use xlink:href="#DejaVuSans-35" x="254.492188"/>
     <use xlink:href="#DejaVuSans-2e" x="318.115234"/>
     <use xlink:href="#DejaVuSans-37" x="349.902344"/>
     <use xlink:href="#DejaVuSans-38" x="413.525391"/>
    </g>
   </g>
   <g id="legend_1">
    <g id="patch_7">
     <path d="M 432.207453 294.66 
L 530.544547 294.66 
Q 533.064547 294.66 533.064547 292.14 
L 533.064547 237.56625 
Q 533.064547 235.04625 530.544547 235.04625 
L 432.207453 235.04625 
Q 429.687453 235.04625 429.687453 237.56625 
L 429.687453 292.14 
Q 429.687453 294.66 432.207453 294.66 
z
" style="fill: #373e4b; opacity: 0.8; stroke: #cccccc; stroke-width: 0.16; stroke-linejoin: miter"/>
    </g>
    <g id="line2d_80">
     <path d="M 434.727453 245.250281 
L 434.727453 245.250281 
L 447.327453 245.250281 
L 447.327453 245.250281 
L 459.927453 245.250281 
" style="fill: none; stroke: #3572c6; stroke-width: 1.2; stroke-linecap: square"/>
    </g>
    <g id="text_17">
     <!-- USD/BTC -->
     <g style="fill: #b1bed6" transform="translate(470.007453 249.660281) scale(0.126 -0.126)">
      <defs>
       <path id="DejaVuSans-55" d="M 556 4666 
L 1191 4666 
L 1191 1831 
Q 1191 1081 1462 751 
Q 1734 422 2344 422 
Q 2950 422 3222 751 
Q 3494 1081 3494 1831 
L 3494 4666 
L 4128 4666 
L 4128 1753 
Q 4128 841 3676 375 
Q 3225 -91 2344 -91 
Q 1459 -91 1007 375 
Q 556 841 556 1753 
L 556 4666 
z
" transform="scale(0.015625)"/>
       <path id="DejaVuSans-53" d="M 3425 4513 
L 3425 3897 
Q 3066 4069 2747 4153 
Q 2428 4238 2131 4238 
Q 1616 4238 1336 4038 
Q 1056 3838 1056 3469 
Q 1056 3159 1242 3001 
Q 1428 2844 1947 2747 
L 2328 2669 
Q 3034 2534 3370 2195 
Q 3706 1856 3706 1288 
Q 3706 609 3251 259 
Q 2797 -91 1919 -91 
Q 1588 -91 1214 -16 
Q 841 59 441 206 
L 441 856 
Q 825 641 1194 531 
Q 1563 422 1919 422 
Q 2459 422 2753 634 
Q 3047 847 3047 1241 
Q 3047 1584 2836 1778 
Q 2625 1972 2144 2069 
L 1759 2144 
Q 1053 2284 737 2584 
Q 422 2884 422 3419 
Q 422 4038 858 4394 
Q 1294 4750 2059 4750 
Q 2388 4750 2728 4690 
Q 3069 4631 3425 4513 
z
" transform="scale(0.015625)"/>
       <path id="DejaVuSans-2f" d="M 1625 4666 
L 2156 4666 
L 531 -594 
L 0 -594 
L 1625 4666 
z
" transform="scale(0.015625)"/>
       <path id="DejaVuSans-42" d="M 1259 2228 
L 1259 519 
L 2272 519 
Q 2781 519 3026 730 
Q 3272 941 3272 1375 
Q 3272 1813 3026 2020 
Q 2781 2228 2272 2228 
L 1259 2228 
z
M 1259 4147 
L 1259 2741 
L 2194 2741 
Q 2656 2741 2882 2914 
Q 3109 3088 3109 3444 
Q 3109 3797 2882 3972 
Q 2656 4147 2194 4147 
L 1259 4147 
z
M 628 4666 
L 2241 4666 
Q 2963 4666 3353 4366 
Q 3744 4066 3744 3513 
Q 3744 3084 3544 2831 
Q 3344 2578 2956 2516 
Q 3422 2416 3680 2098 
Q 3938 1781 3938 1306 
Q 3938 681 3513 340 
Q 3088 0 2303 0 
L 628 0 
L 628 4666 
z
" transform="scale(0.015625)"/>
       <path id="DejaVuSans-54" d="M -19 4666 
L 3928 4666 
L 3928 4134 
L 2272 4134 
L 2272 0 
L 1638 0 
L 1638 4134 
L -19 4134 
L -19 4666 
z
" transform="scale(0.015625)"/>
       <path id="DejaVuSans-43" d="M 4122 4306 
L 4122 3641 
Q 3803 3938 3442 4084 
Q 3081 4231 2675 4231 
Q 1875 4231 1450 3742 
Q 1025 3253 1025 2328 
Q 1025 1406 1450 917 
Q 1875 428 2675 428 
Q 3081 428 3442 575 
Q 3803 722 4122 1019 
L 4122 359 
Q 3791 134 3420 21 
Q 3050 -91 2638 -91 
Q 1578 -91 968 557 
Q 359 1206 359 2328 
Q 359 3453 968 4101 
Q 1578 4750 2638 4750 
Q 3056 4750 3426 4639 
Q 3797 4528 4122 4306 
z
" transform="scale(0.015625)"/>
      </defs>
      <use xlink:href="#DejaVuSans-55"/>
      <use xlink:href="#DejaVuSans-53" x="73.193359"/>
      <use xlink:href="#DejaVuSans-44" x="136.669922"/>
      <use xlink:href="#DejaVuSans-2f" x="213.671875"/>
      <use xlink:href="#DejaVuSans-42" x="247.363281"/>
      <use xlink:href="#DejaVuSans-54" x="315.966797"/>
      <use xlink:href="#DejaVuSans-43" x="371.175781"/>
     </g>
    </g>
    <g id="line2d_81">
     <path d="M 434.727453 263.744719 
L 434.727453 263.744719 
L 447.327453 263.744719 
L 447.327453 263.744719 
L 459.927453 263.744719 
" style="fill: none; stroke: #83a83b; stroke-width: 1.2; stroke-linecap: square"/>
    </g>
    <g id="text_18">
     <!-- Max -->
     <g style="fill: #b1bed6" transform="translate(470.007453 268.154719) scale(0.126 -0.126)">
      <defs>
       <path id="DejaVuSans-4d" d="M 628 4666 
L 1569 4666 
L 2759 1491 
L 3956 4666 
L 4897 4666 
L 4897 0 
L 4281 0 
L 4281 4097 
L 3078 897 
L 2444 897 
L 1241 4097 
L 1241 0 
L 628 0 
L 628 4666 
z
" transform="scale(0.015625)"/>
       <path id="DejaVuSans-78" d="M 3513 3500 
L 2247 1797 
L 3578 0 
L 2900 0 
L 1881 1375 
L 863 0 
L 184 0 
L 1544 1831 
L 300 3500 
L 978 3500 
L 1906 2253 
L 2834 3500 
L 3513 3500 
z
" transform="scale(0.015625)"/>
      </defs>
      <use xlink:href="#DejaVuSans-4d"/>
      <use xlink:href="#DejaVuSans-61" x="86.279297"/>
      <use xlink:href="#DejaVuSans-78" x="147.558594"/>
     </g>
    </g>
    <g id="line2d_82">
     <path d="M 434.727453 282.239156 
L 434.727453 282.239156 
L 447.327453 282.239156 
L 447.327453 282.239156 
L 459.927453 282.239156 
" style="fill: none; stroke: #c44e52; stroke-width: 1.2; stroke-linecap: square"/>
    </g>
    <g id="text_19">
     <!-- local_Min -->
     <g style="fill: #b1bed6" transform="translate(470.007453 286.649156) scale(0.126 -0.126)">
      <defs>
       <path id="DejaVuSans-6c" d="M 603 4863 
L 1178 4863 
L 1178 0 
L 603 0 
L 603 4863 
z
" transform="scale(0.015625)"/>
       <path id="DejaVuSans-6f" d="M 1959 3097 
Q 1497 3097 1228 2736 
Q 959 2375 959 1747 
Q 959 1119 1226 758 
Q 1494 397 1959 397 
Q 2419 397 2687 759 
Q 2956 1122 2956 1747 
Q 2956 2369 2687 2733 
Q 2419 3097 1959 3097 
z
M 1959 3584 
Q 2709 3584 3137 3096 
Q 3566 2609 3566 1747 
Q 3566 888 3137 398 
Q 2709 -91 1959 -91 
Q 1206 -91 779 398 
Q 353 888 353 1747 
Q 353 2609 779 3096 
Q 1206 3584 1959 3584 
z
" transform="scale(0.015625)"/>
       <path id="DejaVuSans-63" d="M 3122 3366 
L 3122 2828 
Q 2878 2963 2633 3030 
Q 2388 3097 2138 3097 
Q 1578 3097 1268 2742 
Q 959 2388 959 1747 
Q 959 1106 1268 751 
Q 1578 397 2138 397 
Q 2388 397 2633 464 
Q 2878 531 3122 666 
L 3122 134 
Q 2881 22 2623 -34 
Q 2366 -91 2075 -91 
Q 1284 -91 818 406 
Q 353 903 353 1747 
Q 353 2603 823 3093 
Q 1294 3584 2113 3584 
Q 2378 3584 2631 3529 
Q 2884 3475 3122 3366 
z
" transform="scale(0.015625)"/>
       <path id="DejaVuSans-5f" d="M 3263 -1063 
L 3263 -1509 
L -63 -1509 
L -63 -1063 
L 3263 -1063 
z
" transform="scale(0.015625)"/>
       <path id="DejaVuSans-69" d="M 603 3500 
L 1178 3500 
L 1178 0 
L 603 0 
L 603 3500 
z
M 603 4863 
L 1178 4863 
L 1178 4134 
L 603 4134 
L 603 4863 
z
" transform="scale(0.015625)"/>
       <path id="DejaVuSans-6e" d="M 3513 2113 
L 3513 0 
L 2938 0 
L 2938 2094 
Q 2938 2591 2744 2837 
Q 2550 3084 2163 3084 
Q 1697 3084 1428 2787 
Q 1159 2491 1159 1978 
L 1159 0 
L 581 0 
L 581 3500 
L 1159 3500 
L 1159 2956 
Q 1366 3272 1645 3428 
Q 1925 3584 2291 3584 
Q 2894 3584 3203 3211 
Q 3513 2838 3513 2113 
z
" transform="scale(0.015625)"/>
      </defs>
      <use xlink:href="#DejaVuSans-6c"/>
      <use xlink:href="#DejaVuSans-6f" x="27.783203"/>
      <use xlink:href="#DejaVuSans-63" x="88.964844"/>
      <use xlink:href="#DejaVuSans-61" x="143.945312"/>
      <use xlink:href="#DejaVuSans-6c" x="205.224609"/>
      <use xlink:href="#DejaVuSans-5f" x="233.007812"/>
      <use xlink:href="#DejaVuSans-4d" x="283.007812"/>
      <use xlink:href="#DejaVuSans-69" x="369.287109"/>
      <use xlink:href="#DejaVuSans-6e" x="397.070312"/>
     </g>
    </g>
   </g>
  </g>
 </g>
 <defs>
  <clipPath id="pd114a7e315">
   <rect x="34.976" y="7.2" width="892.8" height="293.76"/>
  </clipPath>
 </defs>
</svg>
