<?xml version="1.0" encoding="utf-8" standalone="no"?>
<!DOCTYPE svg PUBLIC "-//W3C//DTD SVG 1.1//EN"
  "http://www.w3.org/Graphics/SVG/1.1/DTD/svg11.dtd">
<svg xmlns:xlink="http://www.w3.org/1999/xlink" width="952.88375pt" height="358.290693pt" viewBox="0 0 952.88375 358.290693" xmlns="http://www.w3.org/2000/svg" version="1.1">
 <metadata>
  <rdf:RDF xmlns:dc="http://purl.org/dc/elements/1.1/" xmlns:cc="http://creativecommons.org/ns#" xmlns:rdf="http://www.w3.org/1999/02/22-rdf-syntax-ns#">
   <cc:Work>
    <dc:type rdf:resource="http://purl.org/dc/dcmitype/StillImage"/>
    <dc:date>2023-11-14T09:34:30.051473</dc:date>
    <dc:format>image/svg+xml</dc:format>
    <dc:creator>
     <cc:Agent>
      <dc:title>Matplotlib v3.8.1, https://matplotlib.org/</dc:title>
     </cc:Agent>
    </dc:creator>
   </cc:Work>
  </rdf:RDF>
 </metadata>
 <defs>
  <style type="text/css">*{stroke-linejoin: round; stroke-linecap: butt}</style>
 </defs>
 <g id="figure_1">
  <g id="patch_1">
   <path d="M 0 358.290693 
L 952.88375 358.290693 
L 952.88375 0 
L 0 0 
z
" style="fill: #373e4b"/>
  </g>
  <g id="axes_1">
   <g id="patch_2">
    <path d="M 52.88375 300.96 
L 945.68375 300.96 
L 945.68375 7.2 
L 52.88375 7.2 
z
" style="fill: #373e4b"/>
   </g>
   <g id="matplotlib.axis_1">
    <g id="xtick_1">
     <g id="line2d_1">
      <path d="M 99.85227 300.96 
L 99.85227 7.2 
" clip-path="url(#pbdf8b0f652)" style="fill: none; stroke: #546379; stroke-width: 1.12; stroke-linecap: square"/>
     </g>
     <g id="line2d_2"/>
     <g id="text_1">
      <!-- 2018 -->
      <g style="fill: #b1bed6" transform="translate(70.771231 330.884854) rotate(-30) scale(0.126 -0.126)">
       <defs>
        <path id="DejaVuSans-32" d="M 1228 531 
L 3431 531 
L 3431 0 
L 469 0 
L 469 531 
Q 828 903 1448 1529 
Q 2069 2156 2228 2338 
Q 2531 2678 2651 2914 
Q 2772 3150 2772 3378 
Q 2772 3750 2511 3984 
Q 2250 4219 1831 4219 
Q 1534 4219 1204 4116 
Q 875 4013 500 3803 
L 500 4441 
Q 881 4594 1212 4672 
Q 1544 4750 1819 4750 
Q 2544 4750 2975 4387 
Q 3406 4025 3406 3419 
Q 3406 3131 3298 2873 
Q 3191 2616 2906 2266 
Q 2828 2175 2409 1742 
Q 1991 1309 1228 531 
z
" transform="scale(0.015625)"/>
        <path id="DejaVuSans-30" d="M 2034 4250 
Q 1547 4250 1301 3770 
Q 1056 3291 1056 2328 
Q 1056 1369 1301 889 
Q 1547 409 2034 409 
Q 2525 409 2770 889 
Q 3016 1369 3016 2328 
Q 3016 3291 2770 3770 
Q 2525 4250 2034 4250 
z
M 2034 4750 
Q 2819 4750 3233 4129 
Q 3647 3509 3647 2328 
Q 3647 1150 3233 529 
Q 2819 -91 2034 -91 
Q 1250 -91 836 529 
Q 422 1150 422 2328 
Q 422 3509 836 4129 
Q 1250 4750 2034 4750 
z
" transform="scale(0.015625)"/>
        <path id="DejaVuSans-31" d="M 794 531 
L 1825 531 
L 1825 4091 
L 703 3866 
L 703 4441 
L 1819 4666 
L 2450 4666 
L 2450 531 
L 3481 531 
L 3481 0 
L 794 0 
L 794 531 
z
" transform="scale(0.015625)"/>
        <path id="DejaVuSans-38" d="M 2034 2216 
Q 1584 2216 1326 1975 
Q 1069 1734 1069 1313 
Q 1069 891 1326 650 
Q 1584 409 2034 409 
Q 2484 409 2743 651 
Q 3003 894 3003 1313 
Q 3003 1734 2745 1975 
Q 2488 2216 2034 2216 
z
M 1403 2484 
Q 997 2584 770 2862 
Q 544 3141 544 3541 
Q 544 4100 942 4425 
Q 1341 4750 2034 4750 
Q 2731 4750 3128 4425 
Q 3525 4100 3525 3541 
Q 3525 3141 3298 2862 
Q 3072 2584 2669 2484 
Q 3125 2378 3379 2068 
Q 3634 1759 3634 1313 
Q 3634 634 3220 271 
Q 2806 -91 2034 -91 
Q 1263 -91 848 271 
Q 434 634 434 1313 
Q 434 1759 690 2068 
Q 947 2378 1403 2484 
z
M 1172 3481 
Q 1172 3119 1398 2916 
Q 1625 2713 2034 2713 
Q 2441 2713 2670 2916 
Q 2900 3119 2900 3481 
Q 2900 3844 2670 4047 
Q 2441 4250 2034 4250 
Q 1625 4250 1398 4047 
Q 1172 3844 1172 3481 
z
" transform="scale(0.015625)"/>
       </defs>
       <use xlink:href="#DejaVuSans-32"/>
       <use xlink:href="#DejaVuSans-30" x="63.623047"/>
       <use xlink:href="#DejaVuSans-31" x="127.246094"/>
       <use xlink:href="#DejaVuSans-38" x="190.869141"/>
      </g>
     </g>
    </g>
    <g id="xtick_2">
     <g id="line2d_3">
      <path d="M 236.978524 300.96 
L 236.978524 7.2 
" clip-path="url(#pbdf8b0f652)" style="fill: none; stroke: #546379; stroke-width: 1.12; stroke-linecap: square"/>
     </g>
     <g id="line2d_4"/>
     <g id="text_2">
      <!-- 2019 -->
      <g style="fill: #b1bed6" transform="translate(207.897484 330.884854) rotate(-30) scale(0.126 -0.126)">
       <defs>
        <path id="DejaVuSans-39" d="M 703 97 
L 703 672 
Q 941 559 1184 500 
Q 1428 441 1663 441 
Q 2288 441 2617 861 
Q 2947 1281 2994 2138 
Q 2813 1869 2534 1725 
Q 2256 1581 1919 1581 
Q 1219 1581 811 2004 
Q 403 2428 403 3163 
Q 403 3881 828 4315 
Q 1253 4750 1959 4750 
Q 2769 4750 3195 4129 
Q 3622 3509 3622 2328 
Q 3622 1225 3098 567 
Q 2575 -91 1691 -91 
Q 1453 -91 1209 -44 
Q 966 3 703 97 
z
M 1959 2075 
Q 2384 2075 2632 2365 
Q 2881 2656 2881 3163 
Q 2881 3666 2632 3958 
Q 2384 4250 1959 4250 
Q 1534 4250 1286 3958 
Q 1038 3666 1038 3163 
Q 1038 2656 1286 2365 
Q 1534 2075 1959 2075 
z
" transform="scale(0.015625)"/>
       </defs>
       <use xlink:href="#DejaVuSans-32"/>
       <use xlink:href="#DejaVuSans-30" x="63.623047"/>
       <use xlink:href="#DejaVuSans-31" x="127.246094"/>
       <use xlink:href="#DejaVuSans-39" x="190.869141"/>
      </g>
     </g>
    </g>
    <g id="xtick_3">
     <g id="line2d_5">
      <path d="M 374.104778 300.96 
L 374.104778 7.2 
" clip-path="url(#pbdf8b0f652)" style="fill: none; stroke: #546379; stroke-width: 1.12; stroke-linecap: square"/>
     </g>
     <g id="line2d_6"/>
     <g id="text_3">
      <!-- 2020 -->
      <g style="fill: #b1bed6" transform="translate(345.023738 330.884854) rotate(-30) scale(0.126 -0.126)">
       <use xlink:href="#DejaVuSans-32"/>
       <use xlink:href="#DejaVuSans-30" x="63.623047"/>
       <use xlink:href="#DejaVuSans-32" x="127.246094"/>
       <use xlink:href="#DejaVuSans-30" x="190.869141"/>
      </g>
     </g>
    </g>
    <g id="xtick_4">
     <g id="line2d_7">
      <path d="M 511.60672 300.96 
L 511.60672 7.2 
" clip-path="url(#pbdf8b0f652)" style="fill: none; stroke: #546379; stroke-width: 1.12; stroke-linecap: square"/>
     </g>
     <g id="line2d_8"/>
     <g id="text_4">
      <!-- 2021 -->
      <g style="fill: #b1bed6" transform="translate(482.52568 330.884854) rotate(-30) scale(0.126 -0.126)">
       <use xlink:href="#DejaVuSans-32"/>
       <use xlink:href="#DejaVuSans-30" x="63.623047"/>
       <use xlink:href="#DejaVuSans-32" x="127.246094"/>
       <use xlink:href="#DejaVuSans-31" x="190.869141"/>
      </g>
     </g>
    </g>
    <g id="xtick_5">
     <g id="line2d_9">
      <path d="M 648.732973 300.96 
L 648.732973 7.2 
" clip-path="url(#pbdf8b0f652)" style="fill: none; stroke: #546379; stroke-width: 1.12; stroke-linecap: square"/>
     </g>
     <g id="line2d_10"/>
     <g id="text_5">
      <!-- 2022 -->
      <g style="fill: #b1bed6" transform="translate(619.651934 330.884854) rotate(-30) scale(0.126 -0.126)">
       <use xlink:href="#DejaVuSans-32"/>
       <use xlink:href="#DejaVuSans-30" x="63.623047"/>
       <use xlink:href="#DejaVuSans-32" x="127.246094"/>
       <use xlink:href="#DejaVuSans-32" x="190.869141"/>
      </g>
     </g>
    </g>
    <g id="xtick_6">
     <g id="line2d_11">
      <path d="M 785.859227 300.96 
L 785.859227 7.2 
" clip-path="url(#pbdf8b0f652)" style="fill: none; stroke: #546379; stroke-width: 1.12; stroke-linecap: square"/>
     </g>
     <g id="line2d_12"/>
     <g id="text_6">
      <!-- 2023 -->
      <g style="fill: #b1bed6" transform="translate(756.778187 330.884854) rotate(-30) scale(0.126 -0.126)">
       <defs>
        <path id="DejaVuSans-33" d="M 2597 2516 
Q 3050 2419 3304 2112 
Q 3559 1806 3559 1356 
Q 3559 666 3084 287 
Q 2609 -91 1734 -91 
Q 1441 -91 1130 -33 
Q 819 25 488 141 
L 488 750 
Q 750 597 1062 519 
Q 1375 441 1716 441 
Q 2309 441 2620 675 
Q 2931 909 2931 1356 
Q 2931 1769 2642 2001 
Q 2353 2234 1838 2234 
L 1294 2234 
L 1294 2753 
L 1863 2753 
Q 2328 2753 2575 2939 
Q 2822 3125 2822 3475 
Q 2822 3834 2567 4026 
Q 2313 4219 1838 4219 
Q 1578 4219 1281 4162 
Q 984 4106 628 3988 
L 628 4550 
Q 988 4650 1302 4700 
Q 1616 4750 1894 4750 
Q 2613 4750 3031 4423 
Q 3450 4097 3450 3541 
Q 3450 3153 3228 2886 
Q 3006 2619 2597 2516 
z
" transform="scale(0.015625)"/>
       </defs>
       <use xlink:href="#DejaVuSans-32"/>
       <use xlink:href="#DejaVuSans-30" x="63.623047"/>
       <use xlink:href="#DejaVuSans-32" x="127.246094"/>
       <use xlink:href="#DejaVuSans-33" x="190.869141"/>
      </g>
     </g>
    </g>
    <g id="xtick_7">
     <g id="line2d_13">
      <path d="M 922.985481 300.96 
L 922.985481 7.2 
" clip-path="url(#pbdf8b0f652)" style="fill: none; stroke: #546379; stroke-width: 1.12; stroke-linecap: square"/>
     </g>
     <g id="line2d_14"/>
     <g id="text_7">
      <!-- 2024 -->
      <g style="fill: #b1bed6" transform="translate(893.904441 330.884854) rotate(-30) scale(0.126 -0.126)">
       <defs>
        <path id="DejaVuSans-34" d="M 2419 4116 
L 825 1625 
L 2419 1625 
L 2419 4116 
z
M 2253 4666 
L 3047 4666 
L 3047 1625 
L 3713 1625 
L 3713 1100 
L 3047 1100 
L 3047 0 
L 2419 0 
L 2419 1100 
L 313 1100 
L 313 1709 
L 2253 4666 
z
" transform="scale(0.015625)"/>
       </defs>
       <use xlink:href="#DejaVuSans-32"/>
       <use xlink:href="#DejaVuSans-30" x="63.623047"/>
       <use xlink:href="#DejaVuSans-32" x="127.246094"/>
       <use xlink:href="#DejaVuSans-34" x="190.869141"/>
      </g>
     </g>
    </g>
    <g id="text_8">
     <!-- Date -->
     <g style="fill: #b1bed6" transform="translate(482.074625 348.095943) scale(0.144 -0.144)">
      <defs>
       <path id="DejaVuSans-44" d="M 1259 4147 
L 1259 519 
L 2022 519 
Q 2988 519 3436 956 
Q 3884 1394 3884 2338 
Q 3884 3275 3436 3711 
Q 2988 4147 2022 4147 
L 1259 4147 
z
M 628 4666 
L 1925 4666 
Q 3281 4666 3915 4102 
Q 4550 3538 4550 2338 
Q 4550 1131 3912 565 
Q 3275 0 1925 0 
L 628 0 
L 628 4666 
z
" transform="scale(0.015625)"/>
       <path id="DejaVuSans-61" d="M 2194 1759 
Q 1497 1759 1228 1600 
Q 959 1441 959 1056 
Q 959 750 1161 570 
Q 1363 391 1709 391 
Q 2188 391 2477 730 
Q 2766 1069 2766 1631 
L 2766 1759 
L 2194 1759 
z
M 3341 1997 
L 3341 0 
L 2766 0 
L 2766 531 
Q 2569 213 2275 61 
Q 1981 -91 1556 -91 
Q 1019 -91 701 211 
Q 384 513 384 1019 
Q 384 1609 779 1909 
Q 1175 2209 1959 2209 
L 2766 2209 
L 2766 2266 
Q 2766 2663 2505 2880 
Q 2244 3097 1772 3097 
Q 1472 3097 1187 3025 
Q 903 2953 641 2809 
L 641 3341 
Q 956 3463 1253 3523 
Q 1550 3584 1831 3584 
Q 2591 3584 2966 3190 
Q 3341 2797 3341 1997 
z
" transform="scale(0.015625)"/>
       <path id="DejaVuSans-74" d="M 1172 4494 
L 1172 3500 
L 2356 3500 
L 2356 3053 
L 1172 3053 
L 1172 1153 
Q 1172 725 1289 603 
Q 1406 481 1766 481 
L 2356 481 
L 2356 0 
L 1766 0 
Q 1100 0 847 248 
Q 594 497 594 1153 
L 594 3053 
L 172 3053 
L 172 3500 
L 594 3500 
L 594 4494 
L 1172 4494 
z
" transform="scale(0.015625)"/>
       <path id="DejaVuSans-65" d="M 3597 1894 
L 3597 1613 
L 953 1613 
Q 991 1019 1311 708 
Q 1631 397 2203 397 
Q 2534 397 2845 478 
Q 3156 559 3463 722 
L 3463 178 
Q 3153 47 2828 -22 
Q 2503 -91 2169 -91 
Q 1331 -91 842 396 
Q 353 884 353 1716 
Q 353 2575 817 3079 
Q 1281 3584 2069 3584 
Q 2775 3584 3186 3129 
Q 3597 2675 3597 1894 
z
M 3022 2063 
Q 3016 2534 2758 2815 
Q 2500 3097 2075 3097 
Q 1594 3097 1305 2825 
Q 1016 2553 972 2059 
L 3022 2063 
z
" transform="scale(0.015625)"/>
      </defs>
      <use xlink:href="#DejaVuSans-44"/>
      <use xlink:href="#DejaVuSans-61" x="77.001953"/>
      <use xlink:href="#DejaVuSans-74" x="138.28125"/>
      <use xlink:href="#DejaVuSans-65" x="177.490234"/>
     </g>
    </g>
   </g>
   <g id="matplotlib.axis_2">
    <g id="ytick_1">
     <g id="line2d_15">
      <path d="M 52.88375 258.56324 
L 945.68375 258.56324 
" clip-path="url(#pbdf8b0f652)" style="fill: none; stroke: #546379; stroke-width: 1.12; stroke-linecap: square"/>
     </g>
     <g id="line2d_16"/>
     <g id="text_9">
      <!-- 10000 -->
      <g style="fill: #b1bed6" transform="translate(7.2 263.350256) scale(0.126 -0.126)">
       <use xlink:href="#DejaVuSans-31"/>
       <use xlink:href="#DejaVuSans-30" x="63.623047"/>
       <use xlink:href="#DejaVuSans-30" x="127.246094"/>
       <use xlink:href="#DejaVuSans-30" x="190.869141"/>
       <use xlink:href="#DejaVuSans-30" x="254.492188"/>
      </g>
     </g>
    </g>
    <g id="ytick_2">
     <g id="line2d_17">
      <path d="M 52.88375 215.161403 
L 945.68375 215.161403 
" clip-path="url(#pbdf8b0f652)" style="fill: none; stroke: #546379; stroke-width: 1.12; stroke-linecap: square"/>
     </g>
     <g id="line2d_18"/>
     <g id="text_10">
      <!-- 20000 -->
      <g style="fill: #b1bed6" transform="translate(7.2 219.948418) scale(0.126 -0.126)">
       <use xlink:href="#DejaVuSans-32"/>
       <use xlink:href="#DejaVuSans-30" x="63.623047"/>
       <use xlink:href="#DejaVuSans-30" x="127.246094"/>
       <use xlink:href="#DejaVuSans-30" x="190.869141"/>
       <use xlink:href="#DejaVuSans-30" x="254.492188"/>
      </g>
     </g>
    </g>
    <g id="ytick_3">
     <g id="line2d_19">
      <path d="M 52.88375 171.759565 
L 945.68375 171.759565 
" clip-path="url(#pbdf8b0f652)" style="fill: none; stroke: #546379; stroke-width: 1.12; stroke-linecap: square"/>
     </g>
     <g id="line2d_20"/>
     <g id="text_11">
      <!-- 30000 -->
      <g style="fill: #b1bed6" transform="translate(7.2 176.546581) scale(0.126 -0.126)">
       <use xlink:href="#DejaVuSans-33"/>
       <use xlink:href="#DejaVuSans-30" x="63.623047"/>
       <use xlink:href="#DejaVuSans-30" x="127.246094"/>
       <use xlink:href="#DejaVuSans-30" x="190.869141"/>
       <use xlink:href="#DejaVuSans-30" x="254.492188"/>
      </g>
     </g>
    </g>
    <g id="ytick_4">
     <g id="line2d_21">
      <path d="M 52.88375 128.357727 
L 945.68375 128.357727 
" clip-path="url(#pbdf8b0f652)" style="fill: none; stroke: #546379; stroke-width: 1.12; stroke-linecap: square"/>
     </g>
     <g id="line2d_22"/>
     <g id="text_12">
      <!-- 40000 -->
      <g style="fill: #b1bed6" transform="translate(7.2 133.144743) scale(0.126 -0.126)">
       <use xlink:href="#DejaVuSans-34"/>
       <use xlink:href="#DejaVuSans-30" x="63.623047"/>
       <use xlink:href="#DejaVuSans-30" x="127.246094"/>
       <use xlink:href="#DejaVuSans-30" x="190.869141"/>
       <use xlink:href="#DejaVuSans-30" x="254.492188"/>
      </g>
     </g>
    </g>
    <g id="ytick_5">
     <g id="line2d_23">
      <path d="M 52.88375 84.95589 
L 945.68375 84.95589 
" clip-path="url(#pbdf8b0f652)" style="fill: none; stroke: #546379; stroke-width: 1.12; stroke-linecap: square"/>
     </g>
     <g id="line2d_24"/>
     <g id="text_13">
      <!-- 50000 -->
      <g style="fill: #b1bed6" transform="translate(7.2 89.742905) scale(0.126 -0.126)">
       <defs>
        <path id="DejaVuSans-35" d="M 691 4666 
L 3169 4666 
L 3169 4134 
L 1269 4134 
L 1269 2991 
Q 1406 3038 1543 3061 
Q 1681 3084 1819 3084 
Q 2600 3084 3056 2656 
Q 3513 2228 3513 1497 
Q 3513 744 3044 326 
Q 2575 -91 1722 -91 
Q 1428 -91 1123 -41 
Q 819 9 494 109 
L 494 744 
Q 775 591 1075 516 
Q 1375 441 1709 441 
Q 2250 441 2565 725 
Q 2881 1009 2881 1497 
Q 2881 1984 2565 2268 
Q 2250 2553 1709 2553 
Q 1456 2553 1204 2497 
Q 953 2441 691 2322 
L 691 4666 
z
" transform="scale(0.015625)"/>
       </defs>
       <use xlink:href="#DejaVuSans-35"/>
       <use xlink:href="#DejaVuSans-30" x="63.623047"/>
       <use xlink:href="#DejaVuSans-30" x="127.246094"/>
       <use xlink:href="#DejaVuSans-30" x="190.869141"/>
       <use xlink:href="#DejaVuSans-30" x="254.492188"/>
      </g>
     </g>
    </g>
    <g id="ytick_6">
     <g id="line2d_25">
      <path d="M 52.88375 41.554052 
L 945.68375 41.554052 
" clip-path="url(#pbdf8b0f652)" style="fill: none; stroke: #546379; stroke-width: 1.12; stroke-linecap: square"/>
     </g>
     <g id="line2d_26"/>
     <g id="text_14">
      <!-- 60000 -->
      <g style="fill: #b1bed6" transform="translate(7.2 46.341068) scale(0.126 -0.126)">
       <defs>
        <path id="DejaVuSans-36" d="M 2113 2584 
Q 1688 2584 1439 2293 
Q 1191 2003 1191 1497 
Q 1191 994 1439 701 
Q 1688 409 2113 409 
Q 2538 409 2786 701 
Q 3034 994 3034 1497 
Q 3034 2003 2786 2293 
Q 2538 2584 2113 2584 
z
M 3366 4563 
L 3366 3988 
Q 3128 4100 2886 4159 
Q 2644 4219 2406 4219 
Q 1781 4219 1451 3797 
Q 1122 3375 1075 2522 
Q 1259 2794 1537 2939 
Q 1816 3084 2150 3084 
Q 2853 3084 3261 2657 
Q 3669 2231 3669 1497 
Q 3669 778 3244 343 
Q 2819 -91 2113 -91 
Q 1303 -91 875 529 
Q 447 1150 447 2328 
Q 447 3434 972 4092 
Q 1497 4750 2381 4750 
Q 2619 4750 2861 4703 
Q 3103 4656 3366 4563 
z
" transform="scale(0.015625)"/>
       </defs>
       <use xlink:href="#DejaVuSans-36"/>
       <use xlink:href="#DejaVuSans-30" x="63.623047"/>
       <use xlink:href="#DejaVuSans-30" x="127.246094"/>
       <use xlink:href="#DejaVuSans-30" x="190.869141"/>
       <use xlink:href="#DejaVuSans-30" x="254.492188"/>
      </g>
     </g>
    </g>
   </g>
   <g id="line2d_27">
    <path d="M 93.465568 230.750692 
L 93.465568 219.884434 
L 94.968322 219.884434 
L 94.968322 242.172059 
L 96.471075 242.172059 
L 96.471075 233.91972 
L 97.973829 233.91972 
L 97.973829 247.224337 
L 99.476582 247.224337 
L 99.476582 236.692013 
L 100.979336 236.692013 
L 100.979336 231.684873 
L 102.482089 231.684873 
L 102.482089 244.30335 
L 103.984842 244.30335 
L 103.984842 243.13762 
L 105.487596 243.13762 
L 105.487596 252.02471 
L 106.990349 252.02471 
L 106.990349 254.954421 
L 108.493103 254.954421 
L 108.493103 252.350832 
L 109.995856 252.350832 
L 109.995856 257.677843 
L 111.49861 257.677843 
L 111.49861 266.36663 
L 113.001363 266.36663 
L 113.001363 266.179916 
L 114.504117 266.179916 
L 114.504117 263.356018 
L 116.00687 263.356018 
L 116.00687 257.788257 
L 117.509624 257.788257 
L 117.509624 253.155458 
L 119.012377 253.155458 
L 119.012377 259.866337 
L 120.515131 259.866337 
L 120.515131 257.121692 
L 122.017884 257.121692 
L 122.017884 251.979919 
L 123.520637 251.979919 
L 123.520637 261.495034 
L 125.023391 261.495034 
L 125.023391 262.3392 
L 126.526144 262.3392 
L 126.526144 265.950711 
L 128.028898 265.950711 
L 128.028898 263.294258 
L 129.531651 263.294258 
L 129.531651 264.926991 
L 131.034405 264.926991 
L 131.034405 267.45797 
L 132.537158 267.45797 
L 132.537158 272.3323 
L 134.039912 272.3323 
L 134.039912 272.509726 
L 137.045419 272.519492 
L 137.045419 267.698242 
L 140.050926 267.64642 
L 140.050926 263.204633 
L 141.553679 263.204633 
L 141.553679 263.46704 
L 143.056433 263.46704 
L 143.056433 261.174295 
L 144.559186 261.174295 
L 144.559186 259.633747 
L 146.061939 259.633747 
L 146.061939 261.301202 
L 147.564693 261.301202 
L 147.564693 265.521293 
L 149.067446 265.521293 
L 149.067446 265.199121 
L 150.5702 265.199121 
L 150.5702 266.19298 
L 152.072953 266.19298 
L 152.072953 269.362008 
L 153.575707 269.362008 
L 153.575707 270.088338 
L 155.07846 270.088338 
L 155.07846 269.458577 
L 158.083967 269.433361 
L 158.083967 268.912235 
L 159.586721 268.912235 
L 159.586721 273.523854 
L 161.089474 273.523854 
L 161.089474 273.803014 
L 162.592228 273.803014 
L 162.592228 272.621833 
L 164.094981 272.621833 
L 164.094981 275.242393 
L 165.597734 275.242393 
L 165.597734 276.45287 
L 167.100488 276.45287 
L 167.100488 273.205111 
L 170.105995 273.195779 
L 170.105995 274.494883 
L 171.608748 274.494883 
L 171.608748 274.843964 
L 173.111502 274.843964 
L 173.111502 269.973106 
L 174.614255 269.973106 
L 174.614255 269.818813 
L 176.117009 269.818813 
L 176.117009 267.504844 
L 177.619762 267.504844 
L 177.619762 266.49931 
L 179.122516 266.49931 
L 179.122516 269.783614 
L 180.625269 269.783614 
L 180.625269 272.806725 
L 182.128023 272.806725 
L 182.128023 274.935065 
L 183.630776 274.935065 
L 183.630776 274.749218 
L 185.13353 274.749218 
L 185.13353 273.812129 
L 186.636283 273.812129 
L 186.636283 273.641212 
L 188.139036 273.641212 
L 188.139036 272.012341 
L 189.64179 272.012341 
L 189.64179 271.502283 
L 191.144543 271.502283 
L 191.144543 270.024841 
L 192.647297 270.024841 
L 192.647297 275.125121 
L 194.15005 275.125121 
L 194.15005 274.508902 
L 195.652804 274.508902 
L 195.652804 273.765298 
L 198.658311 273.771157 
L 198.658311 273.391695 
L 200.161064 273.391695 
L 200.161064 273.195476 
L 201.663818 273.195476 
L 201.663818 273.661394 
L 203.166571 273.661394 
L 203.166571 273.434359 
L 206.172078 273.402025 
L 206.172078 274.773132 
L 207.674832 274.773132 
L 207.674832 273.712174 
L 210.680338 273.780402 
L 210.680338 273.874671 
L 212.183092 273.874671 
L 212.183092 274.614933 
L 213.685845 274.614933 
L 213.685845 274.355867 
L 215.188599 274.355867 
L 215.188599 273.594035 
L 216.691352 273.594035 
L 216.691352 274.15088 
L 218.194106 274.15088 
L 218.194106 277.40515 
L 219.696859 277.40515 
L 219.696859 280.920482 
L 221.199613 280.920482 
L 221.199613 283.072345 
L 222.702366 283.072345 
L 222.702366 285.348902 
L 224.20512 285.348902 
L 224.20512 283.787998 
L 225.707873 283.787998 
L 225.707873 285.711177 
L 227.210627 285.711177 
L 227.210627 286.390589 
L 228.71338 286.390589 
L 228.71338 287.607273 
L 230.216133 287.607273 
L 230.216133 286.529041 
L 231.718887 286.529041 
L 231.718887 285.039099 
L 233.22164 285.039099 
L 233.22164 285.378979 
L 234.724394 285.378979 
L 234.724394 285.601023 
L 236.227147 285.601023 
L 236.227147 284.90247 
L 237.729901 284.90247 
L 237.729901 284.292848 
L 239.232654 284.292848 
L 239.232654 286.139683 
L 240.735408 286.139683 
L 240.735408 285.982438 
L 242.238161 285.982438 
L 242.238161 286.228744 
L 243.740915 286.228744 
L 243.740915 286.39532 
L 246.746422 286.443279 
L 246.746422 286.90464 
L 249.751929 286.965316 
L 249.751929 287.231196 
L 251.254682 287.231196 
L 251.254682 286.212511 
L 254.260189 286.304827 
L 254.260189 284.923216 
L 255.762942 284.923216 
L 255.762942 283.998453 
L 257.265696 283.998453 
L 257.265696 285.328155 
L 260.271203 285.4091 
L 260.271203 285.095565 
L 263.27671 285.120434 
L 263.27671 284.879945 
L 264.779463 284.879945 
L 264.779463 284.478 
L 269.287724 284.393801 
L 269.287724 284.108868 
L 270.790477 284.108868 
L 270.790477 280.649394 
L 272.29323 280.649394 
L 272.29323 279.097908 
L 273.795984 279.097908 
L 273.795984 279.947977 
L 275.298737 279.947977 
L 275.298737 279.410662 
L 276.801491 279.410662 
L 276.801491 278.921827 
L 278.304244 278.921827 
L 278.304244 278.379695 
L 279.806998 278.379695 
L 279.806998 278.956505 
L 281.309751 278.956505 
L 281.309751 278.570793 
L 282.812505 278.570793 
L 282.812505 277.293434 
L 284.315258 277.293434 
L 284.315258 274.413505 
L 285.818012 274.413505 
L 285.818012 267.275335 
L 287.320765 267.275335 
L 287.320765 270.433426 
L 288.823519 270.433426 
L 288.823519 268.86714 
L 290.326272 268.86714 
L 290.326272 264.012688 
L 291.829026 264.012688 
L 291.829026 266.061081 
L 293.331779 266.061081 
L 293.331779 266.65803 
L 294.834532 266.65803 
L 294.834532 267.25103 
L 296.337286 267.25103 
L 296.337286 267.601326 
L 297.840039 267.601326 
L 297.840039 263.51335 
L 299.342793 263.51335 
L 299.342793 261.680794 
L 300.845546 261.680794 
L 300.845546 255.028247 
L 302.3483 255.028247 
L 302.3483 253.646463 
L 303.851053 253.646463 
L 303.851053 256.051489 
L 305.353807 256.051489 
L 305.353807 254.41767 
L 306.85656 254.41767 
L 306.85656 247.33614 
L 308.359314 247.33614 
L 308.359314 252.534291 
L 309.862067 252.534291 
L 309.862067 259.976925 
L 311.364821 259.976925 
L 311.364821 256.013773 
L 312.867574 256.013773 
L 312.867574 259.105026 
L 314.370328 259.105026 
L 314.370328 260.72756 
L 315.873081 260.72756 
L 315.873081 256.264896 
L 317.375834 256.264896 
L 317.375834 252.201963 
L 318.878588 252.201963 
L 318.878588 252.99817 
L 320.381341 252.99817 
L 320.381341 258.489631 
L 321.884095 258.489631 
L 321.884095 257.184798 
L 323.386848 257.184798 
L 323.386848 258.077227 
L 324.889602 258.077227 
L 324.889602 256.999559 
L 326.392355 256.999559 
L 326.392355 260.394841 
L 327.895109 260.394841 
L 327.895109 255.866728 
L 329.397862 255.866728 
L 329.397862 256.448659 
L 330.900616 256.448659 
L 330.900616 257.871762 
L 332.403369 257.871762 
L 332.403369 257.215917 
L 333.906123 257.215917 
L 333.906123 257.36587 
L 335.408876 257.36587 
L 335.408876 259.937429 
L 336.911629 259.937429 
L 336.911629 266.402046 
L 338.414383 266.402046 
L 338.414383 265.842076 
L 339.917136 265.842076 
L 339.917136 266.602606 
L 341.41989 266.602606 
L 341.41989 264.691927 
L 342.922643 264.691927 
L 342.922643 266.012037 
L 344.425397 266.012037 
L 344.425397 266.910369 
L 345.92815 266.910369 
L 345.92815 266.27783 
L 347.430904 266.27783 
L 347.430904 264.349617 
L 348.933657 264.349617 
L 348.933657 261.022605 
L 350.436411 261.022605 
L 350.436411 261.596248 
L 351.939164 261.596248 
L 351.939164 261.413265 
L 353.441918 261.413265 
L 353.441918 262.742317 
L 354.944671 262.742317 
L 354.944671 264.499223 
L 356.447425 264.499223 
L 356.447425 266.479779 
L 357.950178 266.479779 
L 357.950178 270.34098 
L 359.452931 270.34098 
L 359.452931 270.873607 
L 360.955685 270.873607 
L 360.955685 269.163184 
L 362.458438 269.163184 
L 362.458438 270.746787 
L 363.961192 270.746787 
L 363.961192 269.316523 
L 365.463945 269.316523 
L 365.463945 270.762803 
L 366.966699 270.762803 
L 366.966699 272.10661 
L 368.469452 272.10661 
L 368.469452 270.758419 
L 369.972206 270.758419 
L 369.972206 270.495751 
L 371.474959 270.495751 
L 371.474959 270.277093 
L 372.977713 270.277093 
L 372.977713 270.821308 
L 374.480466 270.821308 
L 374.480466 270.057913 
L 375.98322 270.057913 
L 375.98322 268.033869 
L 377.485973 268.033869 
L 377.485973 266.786847 
L 378.988726 266.786847 
L 378.988726 263.335967 
L 380.49148 263.335967 
L 380.49148 264.108867 
L 381.994233 264.108867 
L 381.994233 265.822805 
L 383.496987 265.822805 
L 383.496987 261.688997 
L 384.99974 261.688997 
L 384.99974 261.538176 
L 386.502494 261.538176 
L 386.502494 259.623721 
L 388.005247 259.623721 
L 388.005247 259.193478 
L 389.508001 259.193478 
L 389.508001 256.963752 
L 391.010754 256.963752 
L 391.010754 257.779186 
L 392.513508 257.779186 
L 392.513508 259.997107 
L 394.016261 259.997107 
L 394.016261 263.834307 
L 395.519015 263.834307 
L 395.519015 264.925212 
L 397.021768 264.925212 
L 397.021768 262.610939 
L 398.524522 262.610939 
L 398.524522 267.539001 
L 400.027275 267.539001 
L 400.027275 277.620857 
L 401.530028 277.620857 
L 401.530028 278.712066 
L 403.032782 278.712066 
L 403.032782 275.099992 
L 404.535535 275.099992 
L 404.535535 272.892531 
L 406.038289 272.892531 
L 406.038289 276.421317 
L 407.541042 276.421317 
L 407.541042 272.412289 
L 409.043796 272.412289 
L 409.043796 270.094241 
L 410.546549 270.094241 
L 410.546549 272.133953 
L 413.552056 272.139552 
L 413.552056 270.458122 
L 415.05481 270.458122 
L 415.05481 271.015271 
L 416.557563 271.015271 
L 416.557563 268.548831 
L 418.060317 268.548831 
L 418.060317 264.514631 
L 419.56307 264.514631 
L 419.56307 263.398509 
L 421.065824 263.398509 
L 421.065824 259.336661 
L 422.568577 259.336661 
L 422.568577 263.708398 
L 424.07133 263.708398 
L 424.07133 261.229415 
L 425.574084 261.229415 
L 425.574084 260.687022 
L 427.076837 260.687022 
L 427.076837 264.072105 
L 428.579591 264.072105 
L 428.579591 260.432948 
L 430.082344 260.432948 
L 430.082344 257.676845 
L 431.585098 257.676845 
L 431.585098 260.196235 
L 433.087851 260.196235 
L 433.087851 259.539131 
L 434.590605 259.539131 
L 434.590605 260.848347 
L 437.596112 260.929465 
L 437.596112 261.667427 
L 439.098865 261.667427 
L 439.098865 261.858091 
L 440.601619 261.858091 
L 440.601619 262.098971 
L 442.104372 262.098971 
L 442.104372 262.589108 
L 443.607125 262.589108 
L 443.607125 261.791339 
L 446.612632 261.879314 
L 446.612632 262.063555 
L 449.618139 261.97176 
L 449.618139 260.242414 
L 451.120893 260.242414 
L 451.120893 254.039033 
L 452.623646 254.039033 
L 452.623646 252.730554 
L 454.1264 252.730554 
L 454.1264 253.379976 
L 455.629153 253.379976 
L 455.629153 250.891532 
L 457.131907 250.891532 
L 457.131907 251.735654 
L 458.63466 251.735654 
L 458.63466 250.256085 
L 460.137414 250.256085 
L 460.137414 250.465239 
L 461.640167 250.465239 
L 461.640167 250.90746 
L 463.142921 250.90746 
L 463.142921 251.902143 
L 464.645674 251.902143 
L 464.645674 250.215982 
L 466.148427 250.215982 
L 466.148427 257.87046 
L 467.651181 257.87046 
L 467.651181 257.574416 
L 469.153934 257.574416 
L 469.153934 257.127638 
L 470.656688 257.127638 
L 470.656688 254.466584 
L 472.159441 254.466584 
L 472.159441 256.694965 
L 473.662195 256.694965 
L 473.662195 255.556187 
L 475.164948 255.556187 
L 475.164948 254.914014 
L 476.667702 254.914014 
L 476.667702 256.168457 
L 478.170455 256.168457 
L 478.170455 255.651845 
L 479.673209 255.651845 
L 479.673209 252.5885 
L 481.175962 252.5885 
L 481.175962 252.036776 
L 482.678716 252.036776 
L 482.678716 250.932503 
L 484.181469 250.932503 
L 484.181469 245.783482 
L 485.684222 245.783482 
L 485.684222 242.71519 
L 487.186976 242.71519 
L 487.186976 242.025751 
L 488.689729 242.025751 
L 488.689729 240.527216 
L 490.192483 240.527216 
L 490.192483 234.733027 
L 491.695236 234.733027 
L 491.695236 231.23931 
L 493.19799 231.23931 
L 493.19799 229.374853 
L 494.700743 229.374853 
L 494.700743 220.858111 
L 496.203497 220.858111 
L 496.203497 218.752818 
L 497.70625 218.752818 
L 497.70625 225.003117 
L 499.209004 225.003117 
L 499.209004 218.516495 
L 500.711757 218.516495 
L 500.711757 217.862473 
L 502.214511 217.862473 
L 502.214511 222.766446 
L 503.717264 222.766446 
L 503.717264 218.301135 
L 505.220018 218.301135 
L 505.220018 201.486395 
L 506.722771 201.486395 
L 506.722771 198.560243 
L 508.225524 198.560243 
L 508.225524 187.196687 
L 509.728278 187.196687 
L 509.728278 176.722175 
L 511.231031 176.722175 
L 511.231031 158.735628 
L 512.733785 158.735628 
L 512.733785 130.588408 
L 514.236538 130.588408 
L 514.236538 147.693506 
L 515.739292 147.693506 
L 515.739292 142.122533 
L 517.242045 142.122533 
L 517.242045 145.631094 
L 518.744799 145.631094 
L 518.744799 162.646308 
L 520.247552 162.646308 
L 520.247552 169.94029 
L 521.750306 169.94029 
L 521.750306 158.146752 
L 523.253059 158.146752 
L 523.253059 141.369208 
L 524.755813 141.369208 
L 524.755813 100.735496 
L 526.258566 100.735496 
L 526.258566 95.930478 
L 527.761319 95.930478 
L 527.761319 88.60121 
L 529.264073 88.60121 
L 529.264073 58.909579 
L 530.766826 58.909579 
L 530.766826 82.243969 
L 532.26958 82.243969 
L 532.26958 106.162375 
L 533.772333 106.162375 
L 533.772333 91.687905 
L 535.275087 91.687905 
L 535.275087 74.976375 
L 536.77784 74.976375 
L 536.77784 53.475321 
L 538.280594 53.475321 
L 538.280594 55.128497 
L 539.783347 55.128497 
L 539.783347 49.862032 
L 541.286101 49.862032 
L 541.286101 74.06971 
L 542.788854 74.06971 
L 542.788854 59.853525 
L 544.291608 59.853525 
L 544.291608 47.036051 
L 545.794361 47.036051 
L 545.794361 45.659432 
L 547.297115 45.659432 
L 547.297115 49.789203 
L 548.799868 49.789203 
L 548.799868 26.127129 
L 550.302621 26.127129 
L 550.302621 41.176065 
L 551.805375 41.176065 
L 551.805375 68.424998 
L 553.308128 68.424998 
L 553.308128 88.968042 
L 554.810882 88.968042 
L 554.810882 69.40002 
L 556.313635 69.40002 
L 556.313635 53.648712 
L 557.816389 53.648712 
L 557.816389 52.924162 
L 559.319142 52.924162 
L 559.319142 55.659649 
L 560.821896 55.659649 
L 560.821896 99.119732 
L 562.324649 99.119732 
L 562.324649 141.533353 
L 563.827403 141.533353 
L 563.827403 151.123988 
L 565.330156 151.123988 
L 565.330156 135.105454 
L 566.83291 135.105454 
L 566.83291 140.030478 
L 568.335663 140.030478 
L 568.335663 141.875186 
L 569.838417 141.875186 
L 569.838417 156.785106 
L 571.34117 156.785106 
L 571.34117 147.910689 
L 572.843923 147.910689 
L 572.843923 135.628099 
L 574.346677 135.628099 
L 574.346677 147.487738 
L 575.84943 147.487738 
L 575.84943 151.623803 
L 577.352184 151.623803 
L 577.352184 152.416798 
L 578.854937 152.416798 
L 578.854937 155.020084 
L 580.357691 155.020084 
L 580.357691 153.483008 
L 581.860444 153.483008 
L 581.860444 156.501345 
L 583.363198 156.501345 
L 583.363198 159.54364 
L 584.865951 159.54364 
L 584.865951 164.018891 
L 586.368705 164.018891 
L 586.368705 161.7863 
L 587.871458 161.7863 
L 587.871458 139.997493 
L 589.374212 139.997493 
L 589.374212 118.747909 
L 590.876965 118.747909 
L 590.876965 136.439149 
L 592.379718 136.439149 
L 592.379718 108.244751 
L 593.882472 108.244751 
L 593.882472 104.00296 
L 595.385225 104.00296 
L 595.385225 97.731611 
L 596.887979 97.731611 
L 596.887979 99.128109 
L 598.390732 99.128109 
L 598.390732 87.023987 
L 599.893486 87.023987 
L 599.893486 89.049291 
L 601.396239 89.049291 
L 601.396239 97.299936 
L 602.898993 97.299936 
L 602.898993 85.18427 
L 604.401746 85.18427 
L 604.401746 101.976441 
L 607.407253 102.060033 
L 607.407253 94.568268 
L 608.910007 94.568268 
L 608.910007 115.764424 
L 610.41276 115.764424 
L 610.41276 116.137679 
L 611.915514 116.137679 
L 611.915514 123.969107 
L 613.418267 123.969107 
L 613.418267 94.820693 
L 614.92102 94.820693 
L 614.92102 61.762989 
L 616.423774 61.762989 
L 616.423774 64.879328 
L 617.926527 64.879328 
L 617.926527 52.848339 
L 619.429281 52.848339 
L 619.429281 32.996989 
L 620.932034 32.996989 
L 620.932034 38.528683 
L 622.434788 38.528683 
L 622.434788 40.055951 
L 623.937541 40.055951 
L 623.937541 34.039935 
L 625.440295 34.039935 
L 625.440295 28.729416 
L 626.943048 28.729416 
L 626.943048 27.260872 
L 628.445802 27.260872 
L 628.445802 20.552727 
L 629.948555 20.552727 
L 629.948555 25.997748 
L 631.451309 25.997748 
L 631.451309 49.657088 
L 632.954062 49.657088 
L 632.954062 52.065022 
L 634.456815 52.065022 
L 634.456815 64.118016 
L 635.959569 64.118016 
L 635.959569 53.577403 
L 637.462322 53.577403 
L 637.462322 87.644937 
L 638.965076 87.644937 
L 638.965076 95.113308 
L 640.467829 95.113308 
L 640.467829 99.030715 
L 641.970583 99.030715 
L 641.970583 101.563559 
L 643.473336 101.563559 
L 643.473336 89.580052 
L 644.97609 89.580052 
L 644.97609 82.91214 
L 646.478843 82.91214 
L 646.478843 100.542054 
L 647.981597 100.542054 
L 647.981597 96.553425 
L 649.48435 96.553425 
L 649.48435 114.81362 
L 650.987104 114.81362 
L 650.987104 120.332727 
L 652.489857 120.332727 
L 652.489857 114.905892 
L 653.992611 114.905892 
L 653.992611 118.021666 
L 655.495364 118.021666 
L 655.495364 149.748627 
L 656.998117 149.748627 
L 656.998117 142.144321 
L 658.500871 142.144321 
L 658.500871 137.391299 
L 660.003624 137.391299 
L 660.003624 140.977246 
L 661.506378 140.977246 
L 661.506378 111.717376 
L 663.009131 111.717376 
L 663.009131 117.935774 
L 664.511885 117.935774 
L 664.511885 108.669786 
L 666.014638 108.669786 
L 666.014638 127.858389 
L 667.517392 127.858389 
L 667.517392 140.113202 
L 669.020145 140.113202 
L 669.020145 138.320359 
L 670.522899 138.320359 
L 670.522899 117.661778 
L 672.025652 117.661778 
L 672.025652 136.897039 
L 673.528406 136.897039 
L 673.528406 133.821845 
L 675.031159 133.821845 
L 675.031159 131.305493 
L 676.533913 131.305493 
L 676.533913 118.71245 
L 678.036666 118.71245 
L 678.036666 115.749233 
L 679.539419 115.749233 
L 679.539419 98.590447 
L 681.042173 98.590447 
L 681.042173 104.316495 
L 682.544926 104.316495 
L 682.544926 99.663644 
L 684.04768 99.663644 
L 684.04768 118.466709 
L 685.550433 118.466709 
L 685.550433 127.914161 
L 687.053187 127.914161 
L 687.053187 126.670351 
L 688.55594 126.670351 
L 688.55594 122.386546 
L 690.058694 122.386546 
L 690.058694 130.677252 
L 691.561447 130.677252 
L 691.561447 129.355796 
L 693.064201 129.355796 
L 693.064201 134.82178 
L 694.566954 134.82178 
L 694.566954 145.66191 
L 696.069708 145.66191 
L 696.069708 167.402324 
L 697.572461 167.402324 
L 697.572461 171.435744 
L 699.075214 171.435744 
L 699.075214 177.484398 
L 700.577968 177.484398 
L 700.577968 170.548914 
L 702.080721 170.548914 
L 702.080721 175.2581 
L 703.583475 175.2581 
L 703.583475 164.313633 
L 705.086228 164.313633 
L 705.086228 173.140785 
L 706.588982 173.140785 
L 706.588982 166.907977 
L 708.091735 166.907977 
L 708.091735 178.944739 
L 709.594489 178.944739 
L 709.594489 204.090505 
L 711.097242 204.090505 
L 711.097242 212.816054 
L 712.599996 212.816054 
L 712.599996 210.437981 
L 714.102749 210.437981 
L 714.102749 212.113595 
L 715.605503 212.113595 
L 715.605503 218.517667 
L 717.108256 218.517667 
L 717.108256 214.37188 
L 718.61101 214.37188 
L 718.61101 208.292628 
L 720.113763 208.292628 
L 720.113763 214.190547 
L 721.616516 214.190547 
L 721.616516 211.801102 
L 723.11927 211.801102 
L 723.11927 201.472072 
L 724.622023 201.472072 
L 724.622023 209.516039 
L 726.124777 209.516039 
L 726.124777 198.703426 
L 727.62753 198.703426 
L 727.62753 202.219973 
L 729.130284 202.219973 
L 729.130284 202.370056 
L 730.633037 202.370056 
L 730.633037 197.974622 
L 732.135791 197.974622 
L 732.135791 196.433987 
L 733.638544 196.433987 
L 733.638544 201.298899 
L 735.141298 201.298899 
L 735.141298 209.072429 
L 736.644051 209.072429 
L 736.644051 214.148751 
L 738.146805 214.148751 
L 738.146805 216.059734 
L 739.649558 216.059734 
L 739.649558 215.877793 
L 741.152311 215.877793 
L 741.152311 218.285988 
L 742.655065 218.285988 
L 742.655065 207.372856 
L 744.157818 207.372856 
L 744.157818 216.486504 
L 745.660572 216.486504 
L 745.660572 217.148339 
L 747.163325 217.148339 
L 747.163325 218.283818 
L 748.666079 218.283818 
L 748.666079 219.046345 
L 750.168832 219.046345 
L 750.168832 218.135774 
L 751.671586 218.135774 
L 751.671586 214.433163 
L 753.174339 214.433163 
L 753.174339 217.583746 
L 754.677093 217.583746 
L 754.677093 217.837864 
L 756.179846 217.837864 
L 756.179846 217.118956 
L 757.6826 217.118956 
L 757.6826 218.757939 
L 759.185353 218.757939 
L 759.185353 214.721872 
L 760.688107 214.721872 
L 760.688107 211.619118 
L 762.19086 211.619118 
L 762.19086 214.493058 
L 763.693613 214.493058 
L 763.693613 211.167001 
L 765.196367 211.167001 
L 765.196367 225.793855 
L 766.69912 225.793855 
L 766.69912 229.970283 
L 768.201874 229.970283 
L 768.201874 229.556837 
L 769.704627 229.556837 
L 769.704627 231.676887 
L 771.207381 231.676887 
L 771.207381 230.553995 
L 772.710134 230.553995 
L 772.710134 227.441432 
L 774.212888 227.441432 
L 774.212888 227.671679 
L 775.715641 227.671679 
L 775.715641 227.163834 
L 777.218395 227.163834 
L 777.218395 227.2841 
L 778.721148 227.2841 
L 778.721148 229.754837 
L 780.223902 229.754837 
L 780.223902 228.595834 
L 781.726655 228.595834 
L 781.726655 228.88463 
L 783.229409 228.88463 
L 783.229409 230.181563 
L 784.732162 230.181563 
L 784.732162 229.858524 
L 786.234915 229.858524 
L 786.234915 228.935366 
L 787.737669 228.935366 
L 787.737669 227.348335 
L 789.240422 227.348335 
L 789.240422 215.450633 
L 790.743176 215.450633 
L 790.743176 210.191111 
L 792.245929 210.191111 
L 792.245929 203.128243 
L 793.748683 203.128243 
L 793.748683 201.751363 
L 795.251436 201.751363 
L 795.251436 198.860323 
L 796.75419 198.860323 
L 796.75419 200.168628 
L 798.256943 200.168628 
L 798.256943 203.166263 
L 799.759697 203.166263 
L 799.759697 208.049795 
L 801.26245 208.049795 
L 801.26245 205.561784 
L 802.765204 205.561784 
L 802.765204 195.01453 
L 804.267957 195.01453 
L 804.267957 196.994826 
L 805.77071 196.994826 
L 805.77071 199.69685 
L 807.273464 199.69685 
L 807.273464 200.112423 
L 808.776217 200.112423 
L 808.776217 204.698869 
L 810.278971 204.698869 
L 810.278971 214.185512 
L 811.781724 214.185512 
L 811.781724 194.46975 
L 813.284478 194.46975 
L 813.284478 184.886928 
L 814.787231 184.886928 
L 814.787231 183.450631 
L 816.289985 183.450631 
L 816.289985 180.440627 
L 817.792738 180.440627 
L 817.792738 180.296446 
L 819.295492 180.296446 
L 819.295492 181.298291 
L 820.798245 181.298291 
L 820.798245 180.763059 
L 822.300999 180.763059 
L 822.300999 170.739709 
L 823.803752 170.739709 
L 823.803752 170.373657 
L 825.306506 170.373657 
L 825.306506 176.839446 
L 826.809259 176.839446 
L 826.809259 182.217021 
L 828.312012 182.217021 
L 828.312012 174.014941 
L 829.814766 174.014941 
L 829.814766 180.063856 
L 831.317519 180.063856 
L 831.317519 173.776101 
L 832.820273 173.776101 
L 832.820273 182.002008 
L 834.323026 182.002008 
L 834.323026 185.709176 
L 835.82578 185.709176 
L 835.82578 183.051551 
L 837.328533 183.051551 
L 837.328533 185.836647 
L 838.831287 185.836647 
L 838.831287 187.048774 
L 840.33404 187.048774 
L 840.33404 181.548155 
L 841.836794 181.548155 
L 841.836794 183.686694 
L 844.842301 183.722674 
L 844.842301 189.759088 
L 846.345054 189.759088 
L 846.345054 192.909107 
L 847.847807 192.909107 
L 847.847807 187.657311 
L 849.350561 187.657311 
L 849.350561 172.177394 
L 850.853314 172.177394 
L 850.853314 170.602038 
L 852.356068 170.602038 
L 852.356068 169.713168 
L 853.858821 169.713168 
L 853.858821 168.396487 
L 855.361575 168.396487 
L 855.361575 170.828379 
L 856.864328 170.828379 
L 856.864328 170.059775 
L 858.367082 170.059775 
L 858.367082 170.716706 
L 859.869835 170.716706 
L 859.869835 172.617663 
L 861.372589 172.617663 
L 861.372589 175.325373 
L 862.875342 175.325373 
L 862.875342 174.72773 
L 864.378096 174.72773 
L 864.378096 173.132756 
L 865.880849 173.132756 
L 865.880849 175.891377 
L 867.383603 175.891377 
L 867.383603 173.643986 
L 868.886356 173.643986 
L 868.886356 174.867831 
L 870.389109 174.867831 
L 870.389109 186.246881 
L 871.891863 186.246881 
L 871.891863 188.584678 
L 873.394616 188.584678 
L 873.394616 188.905808 
L 874.89737 188.905808 
L 874.89737 181.606444 
L 876.400123 181.606444 
L 876.400123 189.688474 
L 877.902877 189.688474 
L 877.902877 190.19098 
L 879.40563 190.19098 
L 879.40563 189.845892 
L 880.908384 189.845892 
L 880.908384 186.793875 
L 882.411137 186.793875 
L 882.411137 185.805441 
L 883.913891 185.805441 
L 883.913891 186.594921 
L 885.416644 186.594921 
L 885.416644 188.196622 
L 886.919398 188.196622 
L 886.919398 184.908456 
L 888.422151 184.908456 
L 888.422151 181.318559 
L 889.924905 181.318559 
L 889.924905 180.712583 
L 891.427658 180.712583 
L 891.427658 185.827576 
L 892.930411 185.827576 
L 892.930411 178.194669 
L 894.433165 178.194669 
L 894.433165 173.137139 
L 895.935918 173.137139 
L 895.935918 154.821347 
L 897.438672 154.821347 
L 897.438672 154.005262 
L 898.941425 154.005262 
L 898.941425 148.146752 
L 900.444179 148.146752 
L 900.444179 149.848798 
L 901.946932 149.848798 
L 901.946932 142.696609 
L 903.449686 142.696609 
L 903.449686 143.064414 
L 905.101932 143.064414 
L 905.101932 143.064414 
" clip-path="url(#pbdf8b0f652)" style="fill: none; stroke: #3572c6; stroke-width: 1.2; stroke-linecap: square"/>
   </g>
   <g id="patch_3">
    <path d="M 52.88375 300.96 
L 52.88375 7.2 
" style="fill: none; stroke: #899ab8; stroke-width: 1.12; stroke-linejoin: miter; stroke-linecap: square"/>
   </g>
   <g id="patch_4">
    <path d="M 945.68375 300.96 
L 945.68375 7.2 
" style="fill: none; stroke: #899ab8; stroke-width: 1.12; stroke-linejoin: miter; stroke-linecap: square"/>
   </g>
   <g id="patch_5">
    <path d="M 52.88375 300.96 
L 945.68375 300.96 
" style="fill: none; stroke: #899ab8; stroke-width: 1.12; stroke-linejoin: miter; stroke-linecap: square"/>
   </g>
   <g id="patch_6">
    <path d="M 52.88375 7.2 
L 945.68375 7.2 
" style="fill: none; stroke: #899ab8; stroke-width: 1.12; stroke-linejoin: miter; stroke-linecap: square"/>
   </g>
  </g>
 </g>
 <defs>
  <clipPath id="pbdf8b0f652">
   <rect x="52.88375" y="7.2" width="892.8" height="293.76"/>
  </clipPath>
 </defs>
</svg>
