<?xml version="1.0" encoding="utf-8" standalone="no"?>
<!DOCTYPE svg PUBLIC "-//W3C//DTD SVG 1.1//EN"
  "http://www.w3.org/Graphics/SVG/1.1/DTD/svg11.dtd">
<svg xmlns:xlink="http://www.w3.org/1999/xlink" width="934.976pt" height="358.290693pt" viewBox="0 0 934.976 358.290693" xmlns="http://www.w3.org/2000/svg" version="1.1">
 <metadata>
  <rdf:RDF xmlns:dc="http://purl.org/dc/elements/1.1/" xmlns:cc="http://creativecommons.org/ns#" xmlns:rdf="http://www.w3.org/1999/02/22-rdf-syntax-ns#">
   <cc:Work>
    <dc:type rdf:resource="http://purl.org/dc/dcmitype/StillImage"/>
    <dc:date>2025-12-20T16:42:21.222212</dc:date>
    <dc:format>image/svg+xml</dc:format>
    <dc:creator>
     <cc:Agent>
      <dc:title>Matplotlib v3.10.8, https://matplotlib.org/</dc:title>
     </cc:Agent>
    </dc:creator>
   </cc:Work>
  </rdf:RDF>
 </metadata>
 <defs>
  <style type="text/css">*{stroke-linejoin: round; stroke-linecap: butt}</style>
 </defs>
 <g id="figure_1">
  <g id="patch_1">
   <path d="M 0 358.290693 
L 934.976 358.290693 
L 934.976 0 
L 0 0 
z
" style="fill: #373e4b"/>
  </g>
  <g id="axes_1">
   <g id="patch_2">
    <path d="M 34.976 300.96 
L 927.776 300.96 
L 927.776 7.2 
L 34.976 7.2 
z
" style="fill: #373e4b"/>
   </g>
   <g id="matplotlib.axis_1">
    <g id="xtick_1">
     <g id="line2d_1">
      <path d="M 137.960933 300.96 
L 137.960933 7.2 
" clip-path="url(#p5447dc1565)" style="fill: none; stroke: #546379; stroke-width: 1.12; stroke-linecap: square"/>
     </g>
     <g id="line2d_2"/>
     <g id="text_1">
      <!-- 2012 -->
      <g style="fill: #b1bed6" transform="translate(108.879894 330.884854) rotate(-30) scale(0.126 -0.126)">
       <defs>
        <path id="DejaVuSans-32" d="M 1228 531 
L 3431 531 
L 3431 0 
L 469 0 
L 469 531 
Q 828 903 1448 1529 
Q 2069 2156 2228 2338 
Q 2531 2678 2651 2914 
Q 2772 3150 2772 3378 
Q 2772 3750 2511 3984 
Q 2250 4219 1831 4219 
Q 1534 4219 1204 4116 
Q 875 4013 500 3803 
L 500 4441 
Q 881 4594 1212 4672 
Q 1544 4750 1819 4750 
Q 2544 4750 2975 4387 
Q 3406 4025 3406 3419 
Q 3406 3131 3298 2873 
Q 3191 2616 2906 2266 
Q 2828 2175 2409 1742 
Q 1991 1309 1228 531 
z
" transform="scale(0.015625)"/>
        <path id="DejaVuSans-30" d="M 2034 4250 
Q 1547 4250 1301 3770 
Q 1056 3291 1056 2328 
Q 1056 1369 1301 889 
Q 1547 409 2034 409 
Q 2525 409 2770 889 
Q 3016 1369 3016 2328 
Q 3016 3291 2770 3770 
Q 2525 4250 2034 4250 
z
M 2034 4750 
Q 2819 4750 3233 4129 
Q 3647 3509 3647 2328 
Q 3647 1150 3233 529 
Q 2819 -91 2034 -91 
Q 1250 -91 836 529 
Q 422 1150 422 2328 
Q 422 3509 836 4129 
Q 1250 4750 2034 4750 
z
" transform="scale(0.015625)"/>
        <path id="DejaVuSans-31" d="M 794 531 
L 1825 531 
L 1825 4091 
L 703 3866 
L 703 4441 
L 1819 4666 
L 2450 4666 
L 2450 531 
L 3481 531 
L 3481 0 
L 794 0 
L 794 531 
z
" transform="scale(0.015625)"/>
       </defs>
       <use xlink:href="#DejaVuSans-32"/>
       <use xlink:href="#DejaVuSans-30" transform="translate(63.623047 0)"/>
       <use xlink:href="#DejaVuSans-31" transform="translate(127.246094 0)"/>
       <use xlink:href="#DejaVuSans-32" transform="translate(190.869141 0)"/>
      </g>
     </g>
    </g>
    <g id="xtick_2">
     <g id="line2d_3">
      <path d="M 245.294291 300.96 
L 245.294291 7.2 
" clip-path="url(#p5447dc1565)" style="fill: none; stroke: #546379; stroke-width: 1.12; stroke-linecap: square"/>
     </g>
     <g id="line2d_4"/>
     <g id="text_2">
      <!-- 2014 -->
      <g style="fill: #b1bed6" transform="translate(216.213252 330.884854) rotate(-30) scale(0.126 -0.126)">
       <defs>
        <path id="DejaVuSans-34" d="M 2419 4116 
L 825 1625 
L 2419 1625 
L 2419 4116 
z
M 2253 4666 
L 3047 4666 
L 3047 1625 
L 3713 1625 
L 3713 1100 
L 3047 1100 
L 3047 0 
L 2419 0 
L 2419 1100 
L 313 1100 
L 313 1709 
L 2253 4666 
z
" transform="scale(0.015625)"/>
       </defs>
       <use xlink:href="#DejaVuSans-32"/>
       <use xlink:href="#DejaVuSans-30" transform="translate(63.623047 0)"/>
       <use xlink:href="#DejaVuSans-31" transform="translate(127.246094 0)"/>
       <use xlink:href="#DejaVuSans-34" transform="translate(190.869141 0)"/>
      </g>
     </g>
    </g>
    <g id="xtick_3">
     <g id="line2d_5">
      <path d="M 352.480818 300.96 
L 352.480818 7.2 
" clip-path="url(#p5447dc1565)" style="fill: none; stroke: #546379; stroke-width: 1.12; stroke-linecap: square"/>
     </g>
     <g id="line2d_6"/>
     <g id="text_3">
      <!-- 2016 -->
      <g style="fill: #b1bed6" transform="translate(323.399779 330.884854) rotate(-30) scale(0.126 -0.126)">
       <defs>
        <path id="DejaVuSans-36" d="M 2113 2584 
Q 1688 2584 1439 2293 
Q 1191 2003 1191 1497 
Q 1191 994 1439 701 
Q 1688 409 2113 409 
Q 2538 409 2786 701 
Q 3034 994 3034 1497 
Q 3034 2003 2786 2293 
Q 2538 2584 2113 2584 
z
M 3366 4563 
L 3366 3988 
Q 3128 4100 2886 4159 
Q 2644 4219 2406 4219 
Q 1781 4219 1451 3797 
Q 1122 3375 1075 2522 
Q 1259 2794 1537 2939 
Q 1816 3084 2150 3084 
Q 2853 3084 3261 2657 
Q 3669 2231 3669 1497 
Q 3669 778 3244 343 
Q 2819 -91 2113 -91 
Q 1303 -91 875 529 
Q 447 1150 447 2328 
Q 447 3434 972 4092 
Q 1497 4750 2381 4750 
Q 2619 4750 2861 4703 
Q 3103 4656 3366 4563 
z
" transform="scale(0.015625)"/>
       </defs>
       <use xlink:href="#DejaVuSans-32"/>
       <use xlink:href="#DejaVuSans-30" transform="translate(63.623047 0)"/>
       <use xlink:href="#DejaVuSans-31" transform="translate(127.246094 0)"/>
       <use xlink:href="#DejaVuSans-36" transform="translate(190.869141 0)"/>
      </g>
     </g>
    </g>
    <g id="xtick_4">
     <g id="line2d_7">
      <path d="M 459.814176 300.96 
L 459.814176 7.2 
" clip-path="url(#p5447dc1565)" style="fill: none; stroke: #546379; stroke-width: 1.12; stroke-linecap: square"/>
     </g>
     <g id="line2d_8"/>
     <g id="text_4">
      <!-- 2018 -->
      <g style="fill: #b1bed6" transform="translate(430.733137 330.884854) rotate(-30) scale(0.126 -0.126)">
       <defs>
        <path id="DejaVuSans-38" d="M 2034 2216 
Q 1584 2216 1326 1975 
Q 1069 1734 1069 1313 
Q 1069 891 1326 650 
Q 1584 409 2034 409 
Q 2484 409 2743 651 
Q 3003 894 3003 1313 
Q 3003 1734 2745 1975 
Q 2488 2216 2034 2216 
z
M 1403 2484 
Q 997 2584 770 2862 
Q 544 3141 544 3541 
Q 544 4100 942 4425 
Q 1341 4750 2034 4750 
Q 2731 4750 3128 4425 
Q 3525 4100 3525 3541 
Q 3525 3141 3298 2862 
Q 3072 2584 2669 2484 
Q 3125 2378 3379 2068 
Q 3634 1759 3634 1313 
Q 3634 634 3220 271 
Q 2806 -91 2034 -91 
Q 1263 -91 848 271 
Q 434 634 434 1313 
Q 434 1759 690 2068 
Q 947 2378 1403 2484 
z
M 1172 3481 
Q 1172 3119 1398 2916 
Q 1625 2713 2034 2713 
Q 2441 2713 2670 2916 
Q 2900 3119 2900 3481 
Q 2900 3844 2670 4047 
Q 2441 4250 2034 4250 
Q 1625 4250 1398 4047 
Q 1172 3844 1172 3481 
z
" transform="scale(0.015625)"/>
       </defs>
       <use xlink:href="#DejaVuSans-32"/>
       <use xlink:href="#DejaVuSans-30" transform="translate(63.623047 0)"/>
       <use xlink:href="#DejaVuSans-31" transform="translate(127.246094 0)"/>
       <use xlink:href="#DejaVuSans-38" transform="translate(190.869141 0)"/>
      </g>
     </g>
    </g>
    <g id="xtick_5">
     <g id="line2d_9">
      <path d="M 567.000704 300.96 
L 567.000704 7.2 
" clip-path="url(#p5447dc1565)" style="fill: none; stroke: #546379; stroke-width: 1.12; stroke-linecap: square"/>
     </g>
     <g id="line2d_10"/>
     <g id="text_5">
      <!-- 2020 -->
      <g style="fill: #b1bed6" transform="translate(537.919664 330.884854) rotate(-30) scale(0.126 -0.126)">
       <use xlink:href="#DejaVuSans-32"/>
       <use xlink:href="#DejaVuSans-30" transform="translate(63.623047 0)"/>
       <use xlink:href="#DejaVuSans-32" transform="translate(127.246094 0)"/>
       <use xlink:href="#DejaVuSans-30" transform="translate(190.869141 0)"/>
      </g>
     </g>
    </g>
    <g id="xtick_6">
     <g id="line2d_11">
      <path d="M 674.334062 300.96 
L 674.334062 7.2 
" clip-path="url(#p5447dc1565)" style="fill: none; stroke: #546379; stroke-width: 1.12; stroke-linecap: square"/>
     </g>
     <g id="line2d_12"/>
     <g id="text_6">
      <!-- 2022 -->
      <g style="fill: #b1bed6" transform="translate(645.253022 330.884854) rotate(-30) scale(0.126 -0.126)">
       <use xlink:href="#DejaVuSans-32"/>
       <use xlink:href="#DejaVuSans-30" transform="translate(63.623047 0)"/>
       <use xlink:href="#DejaVuSans-32" transform="translate(127.246094 0)"/>
       <use xlink:href="#DejaVuSans-32" transform="translate(190.869141 0)"/>
      </g>
     </g>
    </g>
    <g id="xtick_7">
     <g id="line2d_13">
      <path d="M 781.520589 300.96 
L 781.520589 7.2 
" clip-path="url(#p5447dc1565)" style="fill: none; stroke: #546379; stroke-width: 1.12; stroke-linecap: square"/>
     </g>
     <g id="line2d_14"/>
     <g id="text_7">
      <!-- 2024 -->
      <g style="fill: #b1bed6" transform="translate(752.439549 330.884854) rotate(-30) scale(0.126 -0.126)">
       <use xlink:href="#DejaVuSans-32"/>
       <use xlink:href="#DejaVuSans-30" transform="translate(63.623047 0)"/>
       <use xlink:href="#DejaVuSans-32" transform="translate(127.246094 0)"/>
       <use xlink:href="#DejaVuSans-34" transform="translate(190.869141 0)"/>
      </g>
     </g>
    </g>
    <g id="xtick_8">
     <g id="line2d_15">
      <path d="M 888.853947 300.96 
L 888.853947 7.2 
" clip-path="url(#p5447dc1565)" style="fill: none; stroke: #546379; stroke-width: 1.12; stroke-linecap: square"/>
     </g>
     <g id="line2d_16"/>
     <g id="text_8">
      <!-- 2026 -->
      <g style="fill: #b1bed6" transform="translate(859.772907 330.884854) rotate(-30) scale(0.126 -0.126)">
       <use xlink:href="#DejaVuSans-32"/>
       <use xlink:href="#DejaVuSans-30" transform="translate(63.623047 0)"/>
       <use xlink:href="#DejaVuSans-32" transform="translate(127.246094 0)"/>
       <use xlink:href="#DejaVuSans-36" transform="translate(190.869141 0)"/>
      </g>
     </g>
    </g>
    <g id="text_9">
     <!-- Date -->
     <g style="fill: #b1bed6" transform="translate(464.166875 348.095943) scale(0.144 -0.144)">
      <defs>
       <path id="DejaVuSans-44" d="M 1259 4147 
L 1259 519 
L 2022 519 
Q 2988 519 3436 956 
Q 3884 1394 3884 2338 
Q 3884 3275 3436 3711 
Q 2988 4147 2022 4147 
L 1259 4147 
z
M 628 4666 
L 1925 4666 
Q 3281 4666 3915 4102 
Q 4550 3538 4550 2338 
Q 4550 1131 3912 565 
Q 3275 0 1925 0 
L 628 0 
L 628 4666 
z
" transform="scale(0.015625)"/>
       <path id="DejaVuSans-61" d="M 2194 1759 
Q 1497 1759 1228 1600 
Q 959 1441 959 1056 
Q 959 750 1161 570 
Q 1363 391 1709 391 
Q 2188 391 2477 730 
Q 2766 1069 2766 1631 
L 2766 1759 
L 2194 1759 
z
M 3341 1997 
L 3341 0 
L 2766 0 
L 2766 531 
Q 2569 213 2275 61 
Q 1981 -91 1556 -91 
Q 1019 -91 701 211 
Q 384 513 384 1019 
Q 384 1609 779 1909 
Q 1175 2209 1959 2209 
L 2766 2209 
L 2766 2266 
Q 2766 2663 2505 2880 
Q 2244 3097 1772 3097 
Q 1472 3097 1187 3025 
Q 903 2953 641 2809 
L 641 3341 
Q 956 3463 1253 3523 
Q 1550 3584 1831 3584 
Q 2591 3584 2966 3190 
Q 3341 2797 3341 1997 
z
" transform="scale(0.015625)"/>
       <path id="DejaVuSans-74" d="M 1172 4494 
L 1172 3500 
L 2356 3500 
L 2356 3053 
L 1172 3053 
L 1172 1153 
Q 1172 725 1289 603 
Q 1406 481 1766 481 
L 2356 481 
L 2356 0 
L 1766 0 
Q 1100 0 847 248 
Q 594 497 594 1153 
L 594 3053 
L 172 3053 
L 172 3500 
L 594 3500 
L 594 4494 
L 1172 4494 
z
" transform="scale(0.015625)"/>
       <path id="DejaVuSans-65" d="M 3597 1894 
L 3597 1613 
L 953 1613 
Q 991 1019 1311 708 
Q 1631 397 2203 397 
Q 2534 397 2845 478 
Q 3156 559 3463 722 
L 3463 178 
Q 3153 47 2828 -22 
Q 2503 -91 2169 -91 
Q 1331 -91 842 396 
Q 353 884 353 1716 
Q 353 2575 817 3079 
Q 1281 3584 2069 3584 
Q 2775 3584 3186 3129 
Q 3597 2675 3597 1894 
z
M 3022 2063 
Q 3016 2534 2758 2815 
Q 2500 3097 2075 3097 
Q 1594 3097 1305 2825 
Q 1016 2553 972 2059 
L 3022 2063 
z
" transform="scale(0.015625)"/>
      </defs>
      <use xlink:href="#DejaVuSans-44"/>
      <use xlink:href="#DejaVuSans-61" transform="translate(77.001953 0)"/>
      <use xlink:href="#DejaVuSans-74" transform="translate(138.28125 0)"/>
      <use xlink:href="#DejaVuSans-65" transform="translate(177.490234 0)"/>
     </g>
    </g>
   </g>
   <g id="matplotlib.axis_2">
    <g id="ytick_1">
     <g id="line2d_17">
      <path d="M 34.976 255.37232 
L 927.776 255.37232 
" clip-path="url(#p5447dc1565)" style="fill: none; stroke: #546379; stroke-width: 1.12; stroke-linecap: square"/>
     </g>
     <g id="line2d_18"/>
     <g id="text_10">
      <!-- $\mathdefault{10^{0}}$ -->
      <g style="fill: #b1bed6" transform="translate(7.2 260.159335) scale(0.126 -0.126)">
       <use xlink:href="#DejaVuSans-31" transform="translate(0 0.765625)"/>
       <use xlink:href="#DejaVuSans-30" transform="translate(63.623047 0.765625)"/>
       <use xlink:href="#DejaVuSans-30" transform="translate(128.203125 39.046875) scale(0.7)"/>
      </g>
     </g>
    </g>
    <g id="ytick_2">
     <g id="line2d_19">
      <path d="M 34.976 209.254528 
L 927.776 209.254528 
" clip-path="url(#p5447dc1565)" style="fill: none; stroke: #546379; stroke-width: 1.12; stroke-linecap: square"/>
     </g>
     <g id="line2d_20"/>
     <g id="text_11">
      <!-- $\mathdefault{10^{1}}$ -->
      <g style="fill: #b1bed6" transform="translate(7.2 214.041544) scale(0.126 -0.126)">
       <use xlink:href="#DejaVuSans-31" transform="translate(0 0.684375)"/>
       <use xlink:href="#DejaVuSans-30" transform="translate(63.623047 0.684375)"/>
       <use xlink:href="#DejaVuSans-31" transform="translate(128.203125 38.965625) scale(0.7)"/>
      </g>
     </g>
    </g>
    <g id="ytick_3">
     <g id="line2d_21">
      <path d="M 34.976 163.136737 
L 927.776 163.136737 
" clip-path="url(#p5447dc1565)" style="fill: none; stroke: #546379; stroke-width: 1.12; stroke-linecap: square"/>
     </g>
     <g id="line2d_22"/>
     <g id="text_12">
      <!-- $\mathdefault{10^{2}}$ -->
      <g style="fill: #b1bed6" transform="translate(7.2 167.923752) scale(0.126 -0.126)">
       <use xlink:href="#DejaVuSans-31" transform="translate(0 0.765625)"/>
       <use xlink:href="#DejaVuSans-30" transform="translate(63.623047 0.765625)"/>
       <use xlink:href="#DejaVuSans-32" transform="translate(128.203125 39.046875) scale(0.7)"/>
      </g>
     </g>
    </g>
    <g id="ytick_4">
     <g id="line2d_23">
      <path d="M 34.976 117.018945 
L 927.776 117.018945 
" clip-path="url(#p5447dc1565)" style="fill: none; stroke: #546379; stroke-width: 1.12; stroke-linecap: square"/>
     </g>
     <g id="line2d_24"/>
     <g id="text_13">
      <!-- $\mathdefault{10^{3}}$ -->
      <g style="fill: #b1bed6" transform="translate(7.2 121.805961) scale(0.126 -0.126)">
       <defs>
        <path id="DejaVuSans-33" d="M 2597 2516 
Q 3050 2419 3304 2112 
Q 3559 1806 3559 1356 
Q 3559 666 3084 287 
Q 2609 -91 1734 -91 
Q 1441 -91 1130 -33 
Q 819 25 488 141 
L 488 750 
Q 750 597 1062 519 
Q 1375 441 1716 441 
Q 2309 441 2620 675 
Q 2931 909 2931 1356 
Q 2931 1769 2642 2001 
Q 2353 2234 1838 2234 
L 1294 2234 
L 1294 2753 
L 1863 2753 
Q 2328 2753 2575 2939 
Q 2822 3125 2822 3475 
Q 2822 3834 2567 4026 
Q 2313 4219 1838 4219 
Q 1578 4219 1281 4162 
Q 984 4106 628 3988 
L 628 4550 
Q 988 4650 1302 4700 
Q 1616 4750 1894 4750 
Q 2613 4750 3031 4423 
Q 3450 4097 3450 3541 
Q 3450 3153 3228 2886 
Q 3006 2619 2597 2516 
z
" transform="scale(0.015625)"/>
       </defs>
       <use xlink:href="#DejaVuSans-31" transform="translate(0 0.765625)"/>
       <use xlink:href="#DejaVuSans-30" transform="translate(63.623047 0.765625)"/>
       <use xlink:href="#DejaVuSans-33" transform="translate(128.203125 39.046875) scale(0.7)"/>
      </g>
     </g>
    </g>
    <g id="ytick_5">
     <g id="line2d_25">
      <path d="M 34.976 70.901154 
L 927.776 70.901154 
" clip-path="url(#p5447dc1565)" style="fill: none; stroke: #546379; stroke-width: 1.12; stroke-linecap: square"/>
     </g>
     <g id="line2d_26"/>
     <g id="text_14">
      <!-- $\mathdefault{10^{4}}$ -->
      <g style="fill: #b1bed6" transform="translate(7.2 75.688169) scale(0.126 -0.126)">
       <use xlink:href="#DejaVuSans-31" transform="translate(0 0.684375)"/>
       <use xlink:href="#DejaVuSans-30" transform="translate(63.623047 0.684375)"/>
       <use xlink:href="#DejaVuSans-34" transform="translate(128.203125 38.965625) scale(0.7)"/>
      </g>
     </g>
    </g>
    <g id="ytick_6">
     <g id="line2d_27">
      <path d="M 34.976 24.783362 
L 927.776 24.783362 
" clip-path="url(#p5447dc1565)" style="fill: none; stroke: #546379; stroke-width: 1.12; stroke-linecap: square"/>
     </g>
     <g id="line2d_28"/>
     <g id="text_15">
      <!-- $\mathdefault{10^{5}}$ -->
      <g style="fill: #b1bed6" transform="translate(7.2 29.570378) scale(0.126 -0.126)">
       <defs>
        <path id="DejaVuSans-35" d="M 691 4666 
L 3169 4666 
L 3169 4134 
L 1269 4134 
L 1269 2991 
Q 1406 3038 1543 3061 
Q 1681 3084 1819 3084 
Q 2600 3084 3056 2656 
Q 3513 2228 3513 1497 
Q 3513 744 3044 326 
Q 2575 -91 1722 -91 
Q 1428 -91 1123 -41 
Q 819 9 494 109 
L 494 744 
Q 775 591 1075 516 
Q 1375 441 1709 441 
Q 2250 441 2565 725 
Q 2881 1009 2881 1497 
Q 2881 1984 2565 2268 
Q 2250 2553 1709 2553 
Q 1456 2553 1204 2497 
Q 953 2441 691 2322 
L 691 4666 
z
" transform="scale(0.015625)"/>
       </defs>
       <use xlink:href="#DejaVuSans-31" transform="translate(0 0.684375)"/>
       <use xlink:href="#DejaVuSans-30" transform="translate(63.623047 0.684375)"/>
       <use xlink:href="#DejaVuSans-35" transform="translate(128.203125 38.965625) scale(0.7)"/>
      </g>
     </g>
    </g>
    <g id="ytick_7">
     <g id="line2d_29"/>
    </g>
    <g id="ytick_8">
     <g id="line2d_30"/>
    </g>
    <g id="ytick_9">
     <g id="line2d_31"/>
    </g>
    <g id="ytick_10">
     <g id="line2d_32"/>
    </g>
    <g id="ytick_11">
     <g id="line2d_33"/>
    </g>
    <g id="ytick_12">
     <g id="line2d_34"/>
    </g>
    <g id="ytick_13">
     <g id="line2d_35"/>
    </g>
    <g id="ytick_14">
     <g id="line2d_36"/>
    </g>
    <g id="ytick_15">
     <g id="line2d_37"/>
    </g>
    <g id="ytick_16">
     <g id="line2d_38"/>
    </g>
    <g id="ytick_17">
     <g id="line2d_39"/>
    </g>
    <g id="ytick_18">
     <g id="line2d_40"/>
    </g>
    <g id="ytick_19">
     <g id="line2d_41"/>
    </g>
    <g id="ytick_20">
     <g id="line2d_42"/>
    </g>
    <g id="ytick_21">
     <g id="line2d_43"/>
    </g>
    <g id="ytick_22">
     <g id="line2d_44"/>
    </g>
    <g id="ytick_23">
     <g id="line2d_45"/>
    </g>
    <g id="ytick_24">
     <g id="line2d_46"/>
    </g>
    <g id="ytick_25">
     <g id="line2d_47"/>
    </g>
    <g id="ytick_26">
     <g id="line2d_48"/>
    </g>
    <g id="ytick_27">
     <g id="line2d_49"/>
    </g>
    <g id="ytick_28">
     <g id="line2d_50"/>
    </g>
    <g id="ytick_29">
     <g id="line2d_51"/>
    </g>
    <g id="ytick_30">
     <g id="line2d_52"/>
    </g>
    <g id="ytick_31">
     <g id="line2d_53"/>
    </g>
    <g id="ytick_32">
     <g id="line2d_54"/>
    </g>
    <g id="ytick_33">
     <g id="line2d_55"/>
    </g>
    <g id="ytick_34">
     <g id="line2d_56"/>
    </g>
    <g id="ytick_35">
     <g id="line2d_57"/>
    </g>
    <g id="ytick_36">
     <g id="line2d_58"/>
    </g>
    <g id="ytick_37">
     <g id="line2d_59"/>
    </g>
    <g id="ytick_38">
     <g id="line2d_60"/>
    </g>
    <g id="ytick_39">
     <g id="line2d_61"/>
    </g>
    <g id="ytick_40">
     <g id="line2d_62"/>
    </g>
    <g id="ytick_41">
     <g id="line2d_63"/>
    </g>
    <g id="ytick_42">
     <g id="line2d_64"/>
    </g>
    <g id="ytick_43">
     <g id="line2d_65"/>
    </g>
    <g id="ytick_44">
     <g id="line2d_66"/>
    </g>
    <g id="ytick_45">
     <g id="line2d_67"/>
    </g>
    <g id="ytick_46">
     <g id="line2d_68"/>
    </g>
    <g id="ytick_47">
     <g id="line2d_69"/>
    </g>
    <g id="ytick_48">
     <g id="line2d_70"/>
    </g>
    <g id="ytick_49">
     <g id="line2d_71"/>
    </g>
    <g id="ytick_50">
     <g id="line2d_72"/>
    </g>
    <g id="ytick_51">
     <g id="line2d_73"/>
    </g>
    <g id="ytick_52">
     <g id="line2d_74"/>
    </g>
    <g id="ytick_53">
     <g id="line2d_75"/>
    </g>
    <g id="ytick_54">
     <g id="line2d_76"/>
    </g>
    <g id="ytick_55">
     <g id="line2d_77"/>
    </g>
   </g>
   <g id="line2d_78">
    <path d="M 75.557818 287.607273 
L 75.557818 283.137997 
L 76.145142 283.137997 
L 76.145142 278.19371 
L 76.732465 278.19371 
L 76.732465 279.486333 
L 77.319788 279.486333 
L 77.319788 280.86817 
L 77.907112 280.86817 
L 77.907112 280.165337 
L 78.494435 280.165337 
L 78.494435 280.86817 
L 79.669082 280.86817 
L 79.669082 282.352457 
L 80.256406 282.352457 
L 80.256406 284.808022 
L 81.431053 284.808022 
L 81.431053 283.137997 
L 82.018376 283.137997 
L 82.018376 282.352457 
L 82.605699 282.352457 
L 82.605699 283.137997 
L 83.193023 283.137997 
L 83.193023 281.596567 
L 83.780346 281.596567 
L 83.780346 279.486333 
L 84.954993 279.486333 
L 84.954993 278.19371 
L 85.542317 278.19371 
L 85.542317 275.834669 
L 86.12964 275.834669 
L 86.12964 273.724434 
L 86.716963 273.724434 
L 86.716963 274.751772 
L 87.304287 274.751772 
L 87.304287 271.815495 
L 87.89161 271.815495 
L 87.89161 271.365393 
L 88.478934 271.365393 
L 88.478934 257.042345 
L 89.653581 257.042345 
L 89.653581 255.982378 
L 90.240904 255.982378 
L 90.240904 253.83089 
L 90.828228 253.83089 
L 90.828228 254.395116 
L 91.415551 254.395116 
L 91.415551 257.932656 
L 92.002874 257.932656 
L 92.002874 255.37232 
L 92.590198 255.37232 
L 92.590198 255.982378 
L 93.177521 255.982378 
L 93.177521 257.042345 
L 93.764845 257.042345 
L 93.764845 257.932656 
L 94.352168 257.932656 
L 94.352168 257.26124 
L 94.939492 257.26124 
L 94.939492 258.161558 
L 95.526815 258.161558 
L 95.526815 260.093532 
L 96.114138 260.093532 
L 96.114138 257.706341 
L 96.701462 257.706341 
L 96.701462 259.841596 
L 97.876109 259.841596 
L 97.876109 261.134218 
L 98.463432 261.134218 
L 98.463432 260.868934 
L 99.050756 260.868934 
L 99.050756 255.776954 
L 99.638079 255.776954 
L 99.638079 251.720656 
L 100.225403 251.720656 
L 100.225403 248.921405 
L 100.812726 248.921405 
L 100.812726 243.823502 
L 101.400049 243.823502 
L 101.400049 226.917627 
L 101.987373 226.917627 
L 101.987373 229.940664 
L 102.574696 229.940664 
L 102.574696 228.062436 
L 103.16202 228.062436 
L 103.16202 217.729074 
L 103.749343 217.729074 
L 103.749343 212.580386 
L 104.336667 212.580386 
L 104.336667 216.455571 
L 104.92399 216.455571 
L 104.92399 215.640255 
L 105.511313 215.640255 
L 105.511313 212.089863 
L 106.098637 212.089863 
L 106.098637 209.926627 
L 106.68596 209.926627 
L 106.68596 196.34639 
L 107.273284 196.34639 
L 107.273284 185.746445 
L 107.860607 185.746445 
L 107.860607 192.005794 
L 108.447931 192.005794 
L 108.447931 196.536537 
L 109.035254 196.536537 
L 109.035254 200.619497 
L 109.622577 200.619497 
L 109.622577 197.954799 
L 110.209901 197.954799 
L 110.209901 198.218565 
L 110.797224 198.218565 
L 110.797224 200.169105 
L 111.384548 200.169105 
L 111.384548 199.716176 
L 111.971871 199.716176 
L 111.971871 201.040338 
L 112.559195 201.040338 
L 112.559195 202.160926 
L 113.146518 202.160926 
L 113.146518 201.757417 
L 113.733842 201.757417 
L 113.733842 202.615821 
L 114.321165 202.615821 
L 114.321165 202.372872 
L 114.908488 202.372872 
L 114.908488 201.702393 
L 115.495812 201.702393 
L 115.495812 206.455278 
L 116.083135 206.455278 
L 116.083135 209.94735 
L 116.670459 209.94735 
L 116.670459 209.395222 
L 117.257782 209.395222 
L 117.257782 206.700602 
L 117.845106 206.700602 
L 117.845106 206.024537 
L 118.432429 206.024537 
L 118.432429 206.806668 
L 119.019752 206.806668 
L 119.019752 210.324077 
L 119.607076 210.324077 
L 119.607076 212.604047 
L 120.194399 212.604047 
L 120.194399 213.058992 
L 120.781723 213.058992 
L 120.781723 217.097011 
L 121.369046 217.097011 
L 121.369046 218.861295 
L 121.95637 218.861295 
L 121.95637 223.057412 
L 122.543693 223.057412 
L 122.543693 218.893678 
L 123.131017 218.893678 
L 123.131017 221.264877 
L 123.71834 221.264877 
L 123.71834 223.379165 
L 124.305663 223.379165 
L 124.305663 222.898453 
L 124.892987 222.898453 
L 124.892987 223.996748 
L 125.48031 223.996748 
L 125.48031 226.821103 
L 126.067634 226.821103 
L 126.067634 227.556633 
L 126.654957 227.556633 
L 126.654957 236.311847 
L 127.242281 236.311847 
L 127.242281 231.338582 
L 127.829604 231.338582 
L 127.829604 232.711804 
L 128.416927 232.711804 
L 128.416927 230.97985 
L 129.004251 230.97985 
L 129.004251 231.951129 
L 129.591574 231.951129 
L 129.591574 232.138606 
L 130.178898 232.138606 
L 130.178898 232.647299 
L 130.766221 232.647299 
L 130.766221 236.234665 
L 131.353545 236.234665 
L 131.353545 237.424839 
L 131.940868 237.424839 
L 131.940868 237.181079 
L 132.528192 237.181079 
L 132.528192 235.928878 
L 133.115515 235.928878 
L 133.115515 232.455022 
L 133.702838 232.455022 
L 133.702838 232.97192 
L 134.290162 232.97192 
L 134.290162 232.583001 
L 134.877485 232.583001 
L 134.877485 231.703858 
L 135.464809 231.703858 
L 135.464809 231.098715 
L 136.052132 231.098715 
L 136.052132 227.707037 
L 136.639456 227.707037 
L 136.639456 226.39241 
L 137.226779 226.39241 
L 137.226779 225.381573 
L 137.814102 225.381573 
L 137.814102 221.707518 
L 138.401426 221.707518 
L 138.401426 216.227322 
L 138.988749 216.227322 
L 138.988749 216.114165 
L 139.576073 216.114165 
L 139.576073 216.284141 
L 140.163396 216.284141 
L 140.163396 218.287185 
L 140.75072 218.287185 
L 140.75072 217.975205 
L 141.338043 217.975205 
L 141.338043 220.513041 
L 141.925366 220.513041 
L 141.925366 220.689506 
L 142.51269 220.689506 
L 142.51269 219.519112 
L 143.100013 219.519112 
L 143.100013 220.027052 
L 144.27466 220.095761 
L 144.27466 224.206915 
L 144.861984 224.206915 
L 144.861984 225.247601 
L 145.449307 225.247601 
L 145.449307 222.467712 
L 146.036631 222.467712 
L 146.036631 223.217642 
L 146.623954 223.217642 
L 146.623954 223.913295 
L 147.211277 223.913295 
L 147.211277 222.938075 
L 147.798601 222.938075 
L 147.798601 223.217642 
L 148.385924 223.217642 
L 148.385924 221.448123 
L 148.973248 221.448123 
L 148.973248 222.236609 
L 149.560571 222.236609 
L 149.560571 223.913295 
L 150.147895 223.913295 
L 150.147895 224.080551 
L 150.735218 224.080551 
L 150.735218 223.379165 
L 151.909865 223.298241 
L 151.909865 223.954978 
L 152.497188 223.954978 
L 152.497188 223.257901 
L 153.671835 223.177464 
L 153.671835 222.198349 
L 154.259159 222.198349 
L 154.259159 222.390381 
L 154.846482 222.390381 
L 154.846482 222.780056 
L 155.433806 222.780056 
L 155.433806 222.429009 
L 156.021129 222.429009 
L 156.021129 222.740746 
L 157.195776 222.740746 
L 157.195776 222.938075 
L 157.783099 222.938075 
L 157.783099 222.623275 
L 159.54507 222.545342 
L 159.54507 222.429009 
L 160.132393 222.429009 
L 160.132393 222.084008 
L 160.719716 222.084008 
L 160.719716 221.011116 
L 161.894363 220.939199 
L 161.894363 218.604102 
L 162.481687 218.604102 
L 162.481687 217.698519 
L 163.06901 217.698519 
L 163.06901 217.455744 
L 163.656334 217.455744 
L 163.656334 217.637549 
L 164.243657 217.637549 
L 164.243657 217.245703 
L 164.830981 217.245703 
L 164.830981 217.097011 
L 165.418304 217.097011 
L 165.418304 216.455571 
L 166.005627 216.455571 
L 166.005627 214.102908 
L 166.592951 214.102908 
L 166.592951 210.345215 
L 167.180274 210.345215 
L 167.180274 210.218718 
L 167.767598 210.218718 
L 167.767598 211.814865 
L 168.354921 211.814865 
L 168.354921 211.476343 
L 168.942245 211.476343 
L 168.942245 209.015614 
L 169.529568 209.015614 
L 169.529568 206.931125 
L 170.116891 206.931125 
L 170.116891 206.281868 
L 170.704215 206.281868 
L 170.704215 205.108303 
L 171.291538 205.108303 
L 171.291538 201.840237 
L 171.878862 201.840237 
L 171.878862 208.740437 
L 172.466185 208.740437 
L 172.466185 207.363805 
L 173.053509 207.363805 
L 173.053509 207.510134 
L 173.640832 207.510134 
L 173.640832 208.239211 
L 174.228155 208.239211 
L 174.228155 206.859912 
L 175.402802 206.913298 
L 175.402802 205.87171 
L 175.990126 205.87171 
L 175.990126 204.57803 
L 176.577449 204.57803 
L 176.577449 205.140897 
L 177.164773 205.140897 
L 177.164773 204.849447 
L 177.752096 204.849447 
L 177.752096 204.657477 
L 178.33942 204.657477 
L 178.33942 204.045986 
L 178.926743 204.045986 
L 178.926743 205.108303 
L 179.514066 205.108303 
L 179.514066 205.43665 
L 180.10139 205.43665 
L 180.10139 205.636273 
L 180.688713 205.636273 
L 180.688713 205.939489 
L 181.276037 205.939489 
L 181.276037 206.351052 
L 181.86336 206.351052 
L 181.86336 207.473452 
L 182.450684 207.473452 
L 182.450684 207.236638 
L 183.038007 207.236638 
L 183.038007 207.400287 
L 184.212654 207.436836 
L 184.212654 207.218538 
L 184.799977 207.218538 
L 184.799977 205.905571 
L 185.387301 205.905571 
L 185.387301 205.075763 
L 185.974624 205.075763 
L 185.974624 204.593894 
L 187.149271 204.530512 
L 187.149271 203.86153 
L 187.736595 203.86153 
L 187.736595 203.169779 
L 188.323918 203.169779 
L 188.323918 202.803614 
L 188.911241 202.803614 
L 188.911241 203.051876 
L 190.085888 202.949278 
L 190.085888 203.318141 
L 190.673212 203.318141 
L 190.673212 203.022509 
L 191.260535 203.022509 
L 191.260535 203.214173 
L 192.435182 203.184566 
L 192.435182 202.529737 
L 193.022505 202.529737 
L 193.022505 202.076772 
L 193.609829 202.076772 
L 193.609829 200.438123 
L 194.197152 200.438123 
L 194.197152 198.474155 
L 194.784476 198.474155 
L 194.784476 196.8899 
L 195.371799 196.8899 
L 195.371799 195.593226 
L 195.959123 195.593226 
L 195.959123 194.394486 
L 196.546446 194.394486 
L 196.546446 193.895273 
L 197.13377 193.895273 
L 197.13377 191.745077 
L 197.721093 191.745077 
L 197.721093 189.21317 
L 198.308416 189.21317 
L 198.308416 189.375826 
L 198.89574 189.375826 
L 198.89574 186.90656 
L 199.483063 186.90656 
L 199.483063 186.46521 
L 200.070387 186.46521 
L 200.070387 184.597163 
L 200.65771 184.597163 
L 200.65771 180.511647 
L 201.245034 180.511647 
L 201.245034 178.864525 
L 201.832357 178.864525 
L 201.832357 178.318608 
L 202.41968 178.318608 
L 202.41968 176.187869 
L 203.007004 176.187869 
L 203.007004 170.209069 
L 203.594327 170.209069 
L 203.594327 167.911261 
L 204.181651 167.911261 
L 204.181651 164.698205 
L 204.768974 164.698205 
L 204.768974 157.728444 
L 205.356298 157.728444 
L 205.356298 153.314284 
L 205.943621 153.314284 
L 205.943621 158.68349 
L 206.530944 158.68349 
L 206.530944 170.831623 
L 207.118268 170.831623 
L 207.118268 159.666147 
L 207.705591 159.666147 
L 207.705591 156.043135 
L 208.292915 156.043135 
L 208.292915 158.114365 
L 208.880238 158.114365 
L 208.880238 159.992155 
L 209.467562 159.992155 
L 209.467562 160.16753 
L 210.054885 160.16753 
L 210.054885 160.743898 
L 210.642209 160.743898 
L 210.642209 159.823395 
L 211.229532 159.823395 
L 211.229532 158.938472 
L 212.404179 159.039422 
L 212.404179 157.577651 
L 213.578826 157.530665 
L 213.578826 159.085179 
L 214.166149 159.085179 
L 214.166149 159.657728 
L 214.753473 159.657728 
L 214.753473 161.9508 
L 215.340796 161.9508 
L 215.340796 163.140743 
L 215.928119 163.140743 
L 215.928119 161.708753 
L 216.515443 161.708753 
L 216.515443 161.530504 
L 217.102766 161.530504 
L 217.102766 162.351197 
L 217.69009 162.351197 
L 217.69009 163.695241 
L 218.277413 163.695241 
L 218.277413 167.596001 
L 218.864737 167.596001 
L 218.864737 168.504633 
L 219.45206 168.504633 
L 219.45206 164.378152 
L 220.039384 164.378152 
L 220.039384 163.736474 
L 220.626707 163.736474 
L 220.626707 165.383183 
L 221.21403 165.383183 
L 221.21403 164.267648 
L 221.801354 164.267648 
L 221.801354 163.398817 
L 222.388677 163.398817 
L 222.388677 162.232149 
L 222.976001 162.232149 
L 222.976001 161.834102 
L 223.563324 161.834102 
L 223.563324 162.583641 
L 224.150648 162.583641 
L 224.150648 161.3465 
L 224.737971 161.3465 
L 224.737971 163.194904 
L 225.325294 163.194904 
L 225.325294 161.149656 
L 225.912618 161.149656 
L 225.912618 160.639309 
L 226.499941 160.639309 
L 226.499941 159.737009 
L 227.087265 159.737009 
L 227.087265 157.86806 
L 227.674588 157.86806 
L 227.674588 159.888004 
L 228.261912 159.888004 
L 228.261912 159.150729 
L 228.849235 159.150729 
L 228.849235 158.820261 
L 229.436559 158.820261 
L 229.436559 158.330623 
L 230.023882 158.330623 
L 230.023882 159.001913 
L 230.611205 159.001913 
L 230.611205 158.72362 
L 231.198529 158.72362 
L 231.198529 158.468169 
L 231.785852 158.468169 
L 231.785852 159.163865 
L 232.373176 159.163865 
L 232.373176 158.808962 
L 232.960499 158.808962 
L 232.960499 158.256707 
L 233.547823 158.256707 
L 233.547823 156.658265 
L 234.135146 156.658265 
L 234.135146 150.694477 
L 234.722469 150.694477 
L 234.722469 149.727115 
L 235.309793 149.727115 
L 235.309793 148.57456 
L 235.897116 148.57456 
L 235.897116 148.955699 
L 236.48444 148.955699 
L 236.48444 144.578193 
L 237.071763 144.578193 
L 237.071763 139.224019 
L 237.659087 139.224019 
L 237.659087 135.724665 
L 238.24641 135.724665 
L 238.24641 131.929122 
L 238.833733 131.929122 
L 238.833733 123.688509 
L 239.421057 123.688509 
L 239.421057 121.126976 
L 240.00838 121.126976 
L 240.00838 114.501195 
L 240.595704 114.501195 
L 240.595704 116.037736 
L 241.183027 116.037736 
L 241.183027 123.994292 
L 241.770351 123.994292 
L 241.770351 119.650419 
L 242.357674 119.650419 
L 242.357674 119.97045 
L 242.944998 119.97045 
L 242.944998 124.587763 
L 243.532321 124.587763 
L 243.532321 125.341484 
L 244.119644 125.341484 
L 244.119644 123.488046 
L 244.706968 123.488046 
L 244.706968 123.267395 
L 245.294291 123.267395 
L 245.294291 120.781313 
L 245.881615 120.781313 
L 245.881615 120.913218 
L 246.468938 120.913218 
L 246.468938 120.41492 
L 247.056262 120.41492 
L 247.056262 121.063393 
L 247.643585 121.063393 
L 247.643585 120.803802 
L 248.230908 120.803802 
L 248.230908 121.99479 
L 248.818232 121.99479 
L 248.818232 121.852022 
L 249.405555 121.852022 
L 249.405555 121.065109 
L 249.992879 121.065109 
L 249.992879 121.969642 
L 250.580202 121.969642 
L 250.580202 124.527356 
L 251.167526 124.527356 
L 251.167526 126.919059 
L 251.754849 126.919059 
L 251.754849 126.274188 
L 252.342173 126.274188 
L 252.342173 127.946397 
L 252.929496 127.946397 
L 252.929496 128.649132 
L 253.516819 128.649132 
L 253.516819 128.366202 
L 254.104143 128.366202 
L 254.104143 125.019077 
L 254.691466 125.019077 
L 254.691466 125.960627 
L 255.866113 125.925914 
L 255.866113 126.441804 
L 256.453437 126.441804 
L 256.453437 128.176165 
L 257.04076 128.176165 
L 257.04076 127.730173 
L 257.628083 127.730173 
L 257.628083 131.306418 
L 258.215407 131.306418 
L 258.215407 133.502218 
L 258.80273 133.502218 
L 258.80273 132.65908 
L 259.390054 132.65908 
L 259.390054 136.986733 
L 259.977377 136.986733 
L 259.977377 132.58749 
L 260.564701 132.58749 
L 260.564701 131.631546 
L 261.152024 131.631546 
L 261.152024 131.367004 
L 261.739348 131.367004 
L 261.739348 132.507473 
L 262.326671 132.507473 
L 262.326671 132.92187 
L 262.913994 132.92187 
L 262.913994 133.610609 
L 264.088641 133.571209 
L 264.088641 133.350906 
L 264.675965 133.350906 
L 264.675965 133.051224 
L 265.263288 133.051224 
L 265.263288 131.38341 
L 265.850612 131.38341 
L 265.850612 129.81387 
L 266.437935 129.81387 
L 266.437935 127.894621 
L 267.025258 127.894621 
L 267.025258 126.250357 
L 267.612582 126.250357 
L 267.612582 125.296318 
L 268.199905 125.296318 
L 268.199905 125.68367 
L 268.787229 125.68367 
L 268.787229 127.534196 
L 269.374552 127.534196 
L 269.374552 126.984835 
L 269.961876 126.984835 
L 269.961876 127.554182 
L 270.549199 127.554182 
L 270.549199 128.604794 
L 271.136522 128.604794 
L 271.136522 127.250453 
L 271.723846 127.250453 
L 271.723846 125.790765 
L 272.311169 125.790765 
L 272.311169 126.453349 
L 272.898493 126.453349 
L 272.898493 126.146152 
L 273.485816 126.146152 
L 273.485816 126.462333 
L 274.07314 126.462333 
L 274.07314 126.272916 
L 274.660463 126.272916 
L 274.660463 126.579496 
L 275.247787 126.579496 
L 275.247787 127.462208 
L 275.83511 127.462208 
L 275.83511 127.858802 
L 276.422433 127.858802 
L 276.422433 127.63773 
L 277.59708 127.6214 
L 277.59708 128.312275 
L 278.184404 128.312275 
L 278.184404 129.967354 
L 278.771727 129.967354 
L 278.771727 130.161745 
L 279.359051 130.161745 
L 279.359051 130.582678 
L 280.533697 130.638739 
L 280.533697 131.871859 
L 281.121021 131.871859 
L 281.121021 131.474298 
L 281.708344 131.474298 
L 281.708344 131.998816 
L 282.295668 131.998816 
L 282.295668 131.848327 
L 282.882991 131.848327 
L 282.882991 132.839184 
L 283.470315 132.839184 
L 283.470315 135.31356 
L 284.057638 135.31356 
L 284.057638 134.867219 
L 284.644962 134.867219 
L 284.644962 136.724127 
L 285.232285 136.724127 
L 285.232285 137.542587 
L 285.819608 137.542587 
L 285.819608 138.979109 
L 286.406932 138.979109 
L 286.406932 137.373098 
L 286.994255 137.373098 
L 286.994255 135.631111 
L 287.581579 135.631111 
L 287.581579 135.906922 
L 288.168902 135.906922 
L 288.168902 137.637682 
L 288.756226 137.637682 
L 288.756226 137.994084 
L 289.343549 137.994084 
L 289.343549 138.756714 
L 289.930872 138.756714 
L 289.930872 139.210064 
L 290.518196 139.210064 
L 290.518196 138.221398 
L 291.105519 138.221398 
L 291.105519 134.384797 
L 291.692843 134.384797 
L 291.692843 135.88482 
L 292.280166 135.88482 
L 292.280166 137.678656 
L 292.86749 137.678656 
L 292.86749 136.686127 
L 293.454813 136.686127 
L 293.454813 136.558209 
L 294.042137 136.558209 
L 294.042137 136.418436 
L 294.62946 136.418436 
L 294.62946 136.661012 
L 295.216783 136.661012 
L 295.216783 138.114882 
L 295.804107 138.114882 
L 295.804107 137.604067 
L 296.39143 137.604067 
L 296.39143 140.330735 
L 296.978754 140.330735 
L 296.978754 139.104206 
L 297.566077 139.104206 
L 297.566077 139.227661 
L 298.153401 139.227661 
L 298.153401 140.411716 
L 298.740724 140.411716 
L 298.740724 142.153972 
L 299.328047 142.153972 
L 299.328047 141.267602 
L 299.915371 141.267602 
L 299.915371 143.266944 
L 300.502694 143.266944 
L 300.502694 148.256676 
L 301.090018 148.256676 
L 301.090018 147.711541 
L 301.677341 147.711541 
L 301.677341 146.134154 
L 302.264665 146.134154 
L 302.264665 143.729744 
L 302.851988 143.729744 
L 302.851988 147.413355 
L 303.439312 147.413355 
L 303.439312 146.743214 
L 304.026635 146.743214 
L 304.026635 146.990332 
L 304.613958 146.990332 
L 304.613958 147.133952 
L 305.201282 147.133952 
L 305.201282 146.066566 
L 305.788605 146.066566 
L 305.788605 145.125593 
L 306.375929 145.125593 
L 306.375929 145.607242 
L 306.963252 145.607242 
L 306.963252 144.506165 
L 307.550576 144.506165 
L 307.550576 143.238742 
L 308.137899 143.238742 
L 308.137899 142.875683 
L 308.725222 142.875683 
L 308.725222 141.476374 
L 309.312546 141.476374 
L 309.312546 141.861751 
L 309.899869 141.861751 
L 309.899869 143.837962 
L 310.487193 143.837962 
L 310.487193 145.189256 
L 311.074516 145.189256 
L 311.074516 144.548875 
L 311.66184 144.548875 
L 311.66184 145.067818 
L 312.249163 145.067818 
L 312.249163 143.959065 
L 312.836486 143.959065 
L 312.836486 145.353427 
L 313.42381 145.353427 
L 313.42381 147.072788 
L 314.598457 147.106045 
L 314.598457 145.951593 
L 315.18578 145.951593 
L 315.18578 146.780354 
L 316.360427 146.839743 
L 316.360427 145.646513 
L 316.947751 145.646513 
L 316.947751 145.840654 
L 317.535074 145.840654 
L 317.535074 145.52311 
L 318.122397 145.52311 
L 318.122397 145.822927 
L 318.709721 145.822927 
L 318.709721 146.333104 
L 319.297044 146.333104 
L 319.297044 145.790046 
L 319.884368 145.790046 
L 319.884368 145.997503 
L 320.471691 145.997503 
L 320.471691 146.599727 
L 321.059015 146.599727 
L 321.059015 147.084466 
L 321.646338 147.084466 
L 321.646338 146.659462 
L 322.233661 146.659462 
L 322.233661 146.489511 
L 322.820985 146.489511 
L 322.820985 144.786225 
L 323.408308 144.786225 
L 323.408308 145.209704 
L 323.995632 145.209704 
L 323.995632 145.58555 
L 324.582955 145.58555 
L 324.582955 144.899515 
L 325.170279 144.899515 
L 325.170279 144.413151 
L 325.757602 144.413151 
L 325.757602 143.352536 
L 326.344926 143.352536 
L 326.344926 142.165919 
L 326.932249 142.165919 
L 326.932249 141.956134 
L 327.519572 141.956134 
L 327.519572 142.749355 
L 328.694219 142.660533 
L 328.694219 141.618141 
L 329.281543 141.618141 
L 329.281543 141.919299 
L 329.868866 141.919299 
L 329.868866 142.434841 
L 330.45619 142.434841 
L 330.45619 142.563496 
L 331.043513 142.563496 
L 331.043513 143.170627 
L 331.630836 143.170627 
L 331.630836 143.889226 
L 332.21816 143.889226 
L 332.21816 146.783894 
L 332.805483 146.783894 
L 332.805483 146.617278 
L 333.392807 146.617278 
L 333.392807 146.885067 
L 333.98013 146.885067 
L 333.98013 146.432889 
L 335.154777 146.391179 
L 335.154777 145.253943 
L 335.742101 145.253943 
L 335.742101 146.046931 
L 336.329424 146.046931 
L 336.329424 146.600604 
L 336.916747 146.600604 
L 336.916747 146.44072 
L 337.504071 146.44072 
L 337.504071 146.109317 
L 338.091394 146.109317 
L 338.091394 145.674132 
L 338.678718 145.674132 
L 338.678718 145.789204 
L 339.266041 145.789204 
L 339.266041 145.042645 
L 340.440688 145.130483 
L 340.440688 144.58771 
L 341.028011 144.58771 
L 341.028011 143.919127 
L 341.615335 143.919127 
L 341.615335 142.92308 
L 342.202658 142.92308 
L 342.202658 142.04188 
L 342.789982 142.04188 
L 342.789982 139.335396 
L 343.377305 139.335396 
L 343.377305 135.146995 
L 343.964629 135.146995 
L 343.964629 136.03177 
L 344.551952 136.03177 
L 344.551952 140.54223 
L 345.139275 140.54223 
L 345.139275 139.904907 
L 345.726599 139.904907 
L 345.726599 139.474419 
L 346.313922 139.474419 
L 346.313922 139.623699 
L 346.901246 139.623699 
L 346.901246 137.592875 
L 347.488569 137.592875 
L 347.488569 137.338267 
L 348.075893 137.338267 
L 348.075893 136.035393 
L 348.663216 136.035393 
L 348.663216 134.561942 
L 349.25054 134.561942 
L 349.25054 133.765289 
L 349.837863 133.765289 
L 349.837863 132.721275 
L 350.425186 132.721275 
L 350.425186 133.537369 
L 351.01251 133.537369 
L 351.01251 132.768707 
L 351.599833 132.768707 
L 351.599833 133.772685 
L 352.77448 133.794425 
L 352.77448 133.957068 
L 353.361804 133.957068 
L 353.361804 133.082018 
L 353.949127 133.082018 
L 353.949127 133.943542 
L 354.53645 133.943542 
L 354.53645 136.111106 
L 355.123774 136.111106 
L 355.123774 136.319493 
L 355.711097 136.319493 
L 355.711097 135.793073 
L 356.298421 135.793073 
L 356.298421 136.578408 
L 356.885744 136.578408 
L 356.885744 137.016065 
L 357.473068 137.016065 
L 357.473068 136.663682 
L 358.060391 136.663682 
L 358.060391 136.503031 
L 358.647715 136.503031 
L 358.647715 135.410655 
L 359.235038 135.410655 
L 359.235038 134.39481 
L 360.409685 134.429653 
L 360.409685 133.848648 
L 360.997008 133.848648 
L 360.997008 134.274991 
L 361.584332 134.274991 
L 361.584332 135.088159 
L 362.171655 135.088159 
L 362.171655 134.58552 
L 363.346302 134.634206 
L 363.346302 134.976402 
L 363.933625 134.976402 
L 363.933625 134.566752 
L 365.108272 134.539353 
L 365.108272 134.694626 
L 365.695596 134.694626 
L 365.695596 134.465036 
L 366.870243 134.39624 
L 366.870243 134.268829 
L 367.457566 134.268829 
L 367.457566 133.948205 
L 368.04489 133.948205 
L 368.04489 133.647329 
L 368.632213 133.647329 
L 368.632213 132.926744 
L 369.219536 132.926744 
L 369.219536 133.222757 
L 369.80686 133.222757 
L 369.80686 132.878937 
L 370.394183 132.878937 
L 370.394183 133.040078 
L 370.981507 133.040078 
L 370.981507 132.543093 
L 371.56883 132.543093 
L 371.56883 132.754641 
L 372.156154 132.754641 
L 372.156154 132.8754 
L 372.743477 132.8754 
L 372.743477 133.316532 
L 373.3308 133.316532 
L 373.3308 133.069963 
L 373.918124 133.069963 
L 373.918124 130.454174 
L 374.505447 130.454174 
L 374.505447 129.434672 
L 375.092771 129.434672 
L 375.092771 127.801074 
L 375.680094 127.801074 
L 375.680094 128.00004 
L 376.267418 128.00004 
L 376.267418 124.590979 
L 376.854741 124.590979 
L 376.854741 122.72857 
L 377.442064 122.72857 
L 377.442064 127.49158 
L 378.029388 127.49158 
L 378.029388 126.266876 
L 378.616711 126.266876 
L 378.616711 125.101367 
L 379.204035 125.101367 
L 379.204035 124.68503 
L 379.791358 124.68503 
L 379.791358 125.250347 
L 381.553329 125.301163 
L 381.553329 125.114865 
L 382.140652 125.114865 
L 382.140652 125.296318 
L 382.727975 125.296318 
L 382.727975 125.476985 
L 383.315299 125.476985 
L 383.315299 127.065375 
L 383.902622 127.065375 
L 383.902622 128.18211 
L 384.489946 128.18211 
L 384.489946 127.757887 
L 385.664593 127.814117 
L 385.664593 128.245157 
L 386.251916 128.245157 
L 386.251916 128.02466 
L 387.426563 128.076426 
L 387.426563 128.22482 
L 388.60121 128.207305 
L 388.60121 126.979565 
L 389.188533 126.979565 
L 389.188533 126.540151 
L 389.775857 126.540151 
L 389.775857 126.952249 
L 390.950504 127.007578 
L 390.950504 127.448718 
L 391.537827 127.448718 
L 391.537827 127.024734 
L 393.299797 127.011866 
L 393.299797 126.773153 
L 393.887121 126.773153 
L 393.887121 126.10954 
L 394.474444 126.10954 
L 394.474444 125.989756 
L 395.061768 125.989756 
L 395.061768 126.308236 
L 395.649091 126.308236 
L 395.649091 125.834884 
L 396.236414 125.834884 
L 396.236414 124.569943 
L 396.823738 124.569943 
L 396.823738 123.415695 
L 397.411061 123.415695 
L 397.411061 124.063357 
L 397.998385 124.063357 
L 397.998385 123.556772 
L 398.585708 123.556772 
L 398.585708 124.151812 
L 399.173032 124.151812 
L 399.173032 123.135401 
L 400.935002 123.12915 
L 400.935002 123.321644 
L 401.522325 123.321644 
L 401.522325 122.437442 
L 402.696972 122.345512 
L 402.696972 122.300878 
L 403.284296 122.300878 
L 403.284296 122.101377 
L 403.871619 122.101377 
L 403.871619 121.714061 
L 404.458943 121.714061 
L 404.458943 118.821554 
L 405.046266 118.821554 
L 405.046266 118.465121 
L 405.633589 118.465121 
L 405.633589 117.735832 
L 406.220913 117.735832 
L 406.220913 114.943912 
L 406.808236 114.943912 
L 406.808236 118.897084 
L 407.39556 118.897084 
L 407.39556 121.350498 
L 407.982883 121.350498 
L 407.982883 120.737376 
L 408.570207 120.737376 
L 408.570207 119.226443 
L 409.15753 119.226443 
L 409.15753 119.49774 
L 409.744853 119.49774 
L 409.744853 118.719036 
L 410.332177 118.719036 
L 410.332177 117.353805 
L 410.9195 117.353805 
L 410.9195 116.798248 
L 411.506824 116.798248 
L 411.506824 117.31474 
L 412.094147 117.31474 
L 412.094147 116.994925 
L 412.681471 116.994925 
L 412.681471 115.955138 
L 413.268794 115.955138 
L 413.268794 114.659904 
L 413.856118 114.659904 
L 413.856118 114.213252 
L 414.443441 114.213252 
L 414.443441 112.95463 
L 415.030764 112.95463 
L 415.030764 112.215352 
L 415.618088 112.215352 
L 415.618088 113.499741 
L 416.205411 113.499741 
L 416.205411 112.698917 
L 416.792735 112.698917 
L 416.792735 115.695677 
L 417.380058 115.695677 
L 417.380058 114.874691 
L 417.967382 114.874691 
L 417.967382 117.79883 
L 418.554705 117.79883 
L 418.554705 116.237835 
L 419.142028 116.237835 
L 419.142028 115.477701 
L 419.729352 115.477701 
L 419.729352 113.472205 
L 420.316675 113.472205 
L 420.316675 113.201232 
L 420.903999 113.201232 
L 420.903999 113.868202 
L 421.491322 113.868202 
L 421.491322 113.347262 
L 422.078646 113.347262 
L 422.078646 112.820031 
L 422.665969 112.820031 
L 422.665969 111.949557 
L 423.253293 111.949557 
L 423.253293 110.937153 
L 423.840616 110.937153 
L 423.840616 108.406962 
L 424.427939 108.406962 
L 424.427939 106.975718 
L 425.015263 106.975718 
L 425.015263 106.475211 
L 425.602586 106.475211 
L 425.602586 106.285513 
L 426.18991 106.285513 
L 426.18991 103.047775 
L 426.777233 103.047775 
L 426.777233 99.3059 
L 427.364557 99.3059 
L 427.364557 101.434165 
L 427.95188 101.434165 
L 427.95188 99.401745 
L 428.539203 99.401745 
L 428.539203 97.13193 
L 429.126527 97.13193 
L 429.126527 96.217978 
L 429.71385 96.217978 
L 429.71385 97.080942 
L 430.301174 97.080942 
L 430.301174 97.653341 
L 430.888497 97.653341 
L 430.888497 97.434209 
L 431.475821 97.434209 
L 431.475821 98.650574 
L 432.063144 98.650574 
L 432.063144 98.335587 
L 433.237791 98.27076 
L 433.237791 98.643931 
L 433.825114 98.643931 
L 433.825114 100.241902 
L 434.412438 100.241902 
L 434.412438 103.415545 
L 434.999761 103.415545 
L 434.999761 100.642127 
L 435.587085 100.642127 
L 435.587085 96.76984 
L 436.174408 96.76984 
L 436.174408 97.450487 
L 436.761732 97.450487 
L 436.761732 95.952053 
L 437.936378 95.996737 
L 437.936378 92.456833 
L 438.523702 92.456833 
L 438.523702 89.922675 
L 439.111025 89.922675 
L 439.111025 87.454791 
L 439.698349 87.454791 
L 439.698349 88.981725 
L 440.285672 88.981725 
L 440.285672 87.657344 
L 440.872996 87.657344 
L 440.872996 87.450855 
L 441.460319 87.450855 
L 441.460319 85.15428 
L 442.047642 85.15428 
L 442.047642 87.412634 
L 442.634966 87.412634 
L 442.634966 87.661505 
L 443.222289 87.661505 
L 443.222289 89.939767 
L 443.809613 89.939767 
L 443.809613 90.931296 
L 444.396936 90.931296 
L 444.396936 91.358385 
L 444.98426 91.358385 
L 444.98426 89.596785 
L 445.571583 89.596785 
L 445.571583 88.44718 
L 446.158907 88.44718 
L 446.158907 87.766017 
L 446.74623 87.766017 
L 446.74623 87.165508 
L 447.333553 87.165508 
L 447.333553 85.509309 
L 447.920877 85.509309 
L 447.920877 82.188887 
L 449.095524 82.169648 
L 449.095524 81.46695 
L 449.682847 81.46695 
L 449.682847 81.91558 
L 450.270171 81.91558 
L 450.270171 79.789478 
L 450.857494 79.789478 
L 450.857494 77.024161 
L 451.444817 77.024161 
L 451.444817 76.747511 
L 452.032141 76.747511 
L 452.032141 81.502657 
L 452.619464 81.502657 
L 452.619464 75.7017 
L 453.206788 75.7017 
L 453.206788 74.771576 
L 454.381435 74.844677 
L 454.381435 71.064047 
L 454.968758 71.064047 
L 454.968758 69.151492 
L 455.556082 69.151492 
L 455.556082 64.386582 
L 456.143405 64.386582 
L 456.143405 62.688359 
L 456.730728 62.688359 
L 456.730728 60.983079 
L 457.318052 60.983079 
L 457.318052 58.138856 
L 457.905375 58.138856 
L 457.905375 64.484215 
L 458.492699 64.484215 
L 458.492699 61.894793 
L 459.080022 61.894793 
L 459.080022 66.252362 
L 459.667346 66.252362 
L 459.667346 62.727887 
L 460.254669 62.727887 
L 460.254669 61.247552 
L 460.841992 61.247552 
L 460.841992 65.211162 
L 461.429316 65.211162 
L 461.429316 64.810286 
L 462.016639 64.810286 
L 462.016639 68.090569 
L 462.603963 68.090569 
L 462.603963 69.30141 
L 463.191286 69.30141 
L 463.191286 68.221789 
L 463.77861 68.221789 
L 463.77861 70.49668 
L 464.365933 70.49668 
L 464.365933 74.870838 
L 465.54058 74.766061 
L 465.54058 73.244809 
L 466.127903 73.244809 
L 466.127903 70.546677 
L 466.715227 70.546677 
L 466.715227 68.549271 
L 467.30255 68.549271 
L 467.30255 71.511708 
L 467.889874 71.511708 
L 467.889874 70.246729 
L 468.477197 70.246729 
L 468.477197 68.072613 
L 469.064521 68.072613 
L 469.064521 72.301956 
L 469.651844 72.301956 
L 469.651844 72.724154 
L 470.239167 72.724154 
L 470.239167 74.638186 
L 470.826491 74.638186 
L 470.826491 73.212796 
L 471.413814 73.212796 
L 471.413814 74.076805 
L 472.001138 74.076805 
L 472.001138 75.494465 
L 472.588461 75.494465 
L 472.588461 78.54452 
L 473.175785 78.54452 
L 473.175785 78.664803 
L 474.350431 78.671444 
L 474.350431 75.634412 
L 475.525078 75.604146 
L 475.525078 73.16643 
L 476.112402 73.16643 
L 476.112402 73.302485 
L 476.699725 73.302485 
L 476.699725 72.143847 
L 477.287049 72.143847 
L 477.287049 71.401356 
L 477.874372 71.401356 
L 477.874372 72.206257 
L 478.461696 72.206257 
L 478.461696 74.400786 
L 479.049019 74.400786 
L 479.049019 74.224505 
L 479.636342 74.224505 
L 479.636342 74.773374 
L 480.223666 74.773374 
L 480.223666 76.631272 
L 480.810989 76.631272 
L 480.810989 77.082516 
L 481.398313 77.082516 
L 481.398313 76.690684 
L 482.57296 76.675153 
L 482.57296 76.356856 
L 483.160283 76.356856 
L 483.160283 79.366528 
L 483.747606 79.366528 
L 483.747606 79.564088 
L 484.33493 79.564088 
L 484.33493 78.741178 
L 484.922253 78.741178 
L 484.922253 80.614853 
L 485.509577 80.614853 
L 485.509577 81.543299 
L 486.0969 81.543299 
L 486.0969 79.143313 
L 487.271547 79.136816 
L 487.271547 80.062286 
L 487.858871 80.062286 
L 487.858871 80.318434 
L 488.446194 80.318434 
L 488.446194 77.010244 
L 489.620841 76.91388 
L 489.620841 75.52169 
L 490.208164 75.52169 
L 490.208164 74.945626 
L 490.795488 74.945626 
L 490.795488 76.891962 
L 491.382811 76.891962 
L 491.382811 78.867778 
L 491.970135 78.867778 
L 491.970135 80.385824 
L 492.557458 80.385824 
L 492.557458 80.248587 
L 493.144781 80.248587 
L 493.144781 79.570571 
L 493.732105 79.570571 
L 493.732105 79.449344 
L 494.319428 79.449344 
L 494.319428 78.329421 
L 494.906752 78.329421 
L 494.906752 77.991228 
L 495.494075 77.991228 
L 495.494075 77.042659 
L 496.081399 77.042659 
L 496.081399 80.52715 
L 496.668722 80.52715 
L 496.668722 80.07251 
L 497.256046 80.07251 
L 497.256046 79.537282 
L 498.430692 79.541444 
L 498.430692 79.273675 
L 499.018016 79.273675 
L 499.018016 79.136604 
L 499.605339 79.136604 
L 499.605339 79.463621 
L 500.192663 79.463621 
L 500.192663 79.303603 
L 501.36731 79.280917 
L 501.36731 80.266194 
L 501.954633 80.266194 
L 501.954633 79.499587 
L 503.12928 79.548012 
L 503.12928 79.615114 
L 503.716603 79.615114 
L 503.716603 80.150007 
L 504.303927 80.150007 
L 504.303927 79.961184 
L 504.89125 79.961184 
L 504.89125 79.416011 
L 505.478574 79.416011 
L 505.478574 79.813029 
L 506.065897 79.813029 
L 506.065897 82.305209 
L 506.65322 82.305209 
L 506.65322 85.39909 
L 507.240544 85.39909 
L 507.240544 87.559515 
L 507.827867 87.559515 
L 507.827867 90.131213 
L 508.415191 90.131213 
L 508.415191 88.332941 
L 509.002514 88.332941 
L 509.002514 90.572721 
L 509.589838 90.572721 
L 509.589838 91.42792 
L 510.177161 91.42792 
L 510.177161 93.057066 
L 510.764485 93.057066 
L 510.764485 91.606765 
L 511.351808 91.606765 
L 511.351808 89.761224 
L 511.939131 89.761224 
L 511.939131 90.1675 
L 512.526455 90.1675 
L 512.526455 90.437443 
L 513.113778 90.437443 
L 513.113778 89.600198 
L 513.701102 89.600198 
L 513.701102 88.897089 
L 514.288425 88.897089 
L 514.288425 91.107828 
L 514.875749 91.107828 
L 514.875749 90.9098 
L 515.463072 90.9098 
L 515.463072 91.220862 
L 516.050395 91.220862 
L 516.050395 91.434005 
L 517.225042 91.495794 
L 517.225042 92.100143 
L 518.399689 92.180998 
L 518.399689 92.539203 
L 518.987013 92.539203 
L 518.987013 91.200213 
L 519.574336 91.200213 
L 519.574336 91.317933 
L 520.16166 91.317933 
L 520.16166 89.624566 
L 520.748983 89.624566 
L 520.748983 88.566187 
L 521.336306 88.566187 
L 521.336306 90.106222 
L 522.510953 90.203906 
L 522.510953 89.828152 
L 523.6856 89.857701 
L 523.6856 89.573775 
L 524.272924 89.573775 
L 524.272924 89.108037 
L 526.034894 89.011831 
L 526.034894 88.689654 
L 526.622217 88.689654 
L 526.622217 85.142736 
L 527.209541 85.142736 
L 527.209541 83.735537 
L 527.796864 83.735537 
L 527.796864 84.49428 
L 528.384188 84.49428 
L 528.384188 84.01136 
L 528.971511 84.01136 
L 528.971511 83.581903 
L 529.558835 83.581903 
L 529.558835 83.116151 
L 530.146158 83.116151 
L 530.146158 83.612067 
L 530.733481 83.612067 
L 530.733481 83.279093 
L 531.320805 83.279093 
L 531.320805 82.21431 
L 531.908128 82.21431 
L 531.908128 80.00304 
L 532.495452 80.00304 
L 532.495452 75.388739 
L 533.082775 75.388739 
L 533.082775 77.300523 
L 533.670099 77.300523 
L 533.670099 76.329549 
L 534.257422 76.329549 
L 534.257422 73.588391 
L 534.844745 73.588391 
L 534.844745 74.699661 
L 535.432069 74.699661 
L 535.432069 75.035462 
L 536.019392 75.035462 
L 536.019392 75.374711 
L 536.606716 75.374711 
L 536.606716 75.577846 
L 537.194039 75.577846 
L 537.194039 73.326593 
L 537.781363 73.326593 
L 537.781363 72.394101 
L 538.368686 72.394101 
L 538.368686 69.332889 
L 538.956009 69.332889 
L 538.956009 68.751771 
L 539.543333 68.751771 
L 539.543333 69.774352 
L 540.130656 69.774352 
L 540.130656 69.074026 
L 540.71798 69.074026 
L 540.71798 66.293311 
L 541.305303 66.293311 
L 541.305303 68.295987 
L 541.892627 68.295987 
L 541.892627 71.56439 
L 542.47995 71.56439 
L 542.47995 69.757906 
L 543.067274 69.757906 
L 543.067274 71.152746 
L 543.654597 71.152746 
L 543.654597 71.925688 
L 544.24192 71.925688 
L 544.24192 69.867663 
L 544.829244 69.867663 
L 544.829244 68.161783 
L 545.416567 68.161783 
L 545.416567 68.484832 
L 546.003891 68.484832 
L 546.003891 70.867214 
L 546.591214 70.867214 
L 546.591214 70.274935 
L 547.178538 70.274935 
L 547.178538 70.678119 
L 547.765861 70.678119 
L 547.765861 70.192254 
L 548.353184 70.192254 
L 548.353184 71.764738 
L 548.940508 71.764738 
L 548.940508 69.693916 
L 549.527831 69.693916 
L 549.527831 69.948362 
L 550.115155 69.948362 
L 550.115155 70.584572 
L 550.702478 70.584572 
L 550.702478 70.288858 
L 551.877125 70.356086 
L 551.877125 71.545559 
L 552.464449 71.545559 
L 552.464449 74.890773 
L 553.051772 74.890773 
L 553.051772 74.577861 
L 553.639095 74.577861 
L 553.639095 75.004046 
L 554.226419 75.004046 
L 554.226419 73.950094 
L 554.813742 73.950094 
L 554.813742 74.67232 
L 555.401066 74.67232 
L 555.401066 75.179121 
L 555.988389 75.179121 
L 555.988389 74.820938 
L 556.575713 74.820938 
L 556.575713 73.766993 
L 557.163036 73.766993 
L 557.163036 72.069504 
L 557.750359 72.069504 
L 557.750359 72.352109 
L 558.925006 72.261529 
L 558.925006 72.928951 
L 559.51233 72.928951 
L 559.51233 73.846811 
L 560.099653 73.846811 
L 560.099653 74.9346 
L 560.686977 74.9346 
L 560.686977 77.241888 
L 561.2743 77.241888 
L 561.2743 77.582093 
L 561.861624 77.582093 
L 561.861624 76.509502 
L 562.448947 76.509502 
L 562.448947 77.500563 
L 563.03627 77.500563 
L 563.03627 76.603349 
L 563.623594 76.603349 
L 563.623594 77.510841 
L 564.210917 77.510841 
L 564.210917 78.392555 
L 564.798241 78.392555 
L 564.798241 77.508027 
L 565.385564 77.508027 
L 565.385564 77.34015 
L 565.972888 77.34015 
L 565.972888 77.201466 
L 566.560211 77.201466 
L 566.560211 77.548431 
L 567.147534 77.548431 
L 567.147534 77.063409 
L 567.734858 77.063409 
L 567.734858 75.83155 
L 568.322181 75.83155 
L 568.322181 75.10867 
L 568.909505 75.10867 
L 568.909505 73.23441 
L 569.496828 73.23441 
L 569.496828 73.639212 
L 570.084152 73.639212 
L 570.084152 74.56718 
L 570.671475 74.56718 
L 570.671475 72.398179 
L 571.846122 72.323318 
L 571.846122 71.396613 
L 572.433445 71.396613 
L 572.433445 71.194123 
L 573.020769 71.194123 
L 573.020769 70.176312 
L 573.608092 70.176312 
L 573.608092 70.542565 
L 574.195416 70.542565 
L 574.195416 71.574019 
L 574.782739 71.574019 
L 574.782739 73.494474 
L 575.370063 73.494474 
L 575.370063 74.075843 
L 575.957386 74.075843 
L 575.957386 72.861976 
L 576.544709 72.861976 
L 576.544709 75.541553 
L 577.132033 75.541553 
L 577.132033 82.481896 
L 577.719356 82.481896 
L 577.719356 83.400408 
L 578.30668 83.400408 
L 578.30668 80.508406 
L 578.894003 80.508406 
L 578.894003 78.926804 
L 579.481327 78.926804 
L 579.481327 81.518543 
L 580.06865 81.518543 
L 580.06865 78.598658 
L 580.655973 78.598658 
L 580.655973 77.086225 
L 581.243297 77.086225 
L 581.243297 78.410905 
L 582.417944 78.414665 
L 582.417944 77.316215 
L 583.005267 77.316215 
L 583.005267 77.673559 
L 583.592591 77.673559 
L 583.592591 76.13785 
L 584.179914 76.13785 
L 584.179914 73.855049 
L 584.767238 73.855049 
L 584.767238 73.266863 
L 585.354561 73.266863 
L 585.354561 71.261284 
L 585.941884 71.261284 
L 585.941884 73.428447 
L 586.529208 73.428447 
L 586.529208 72.17093 
L 587.116531 72.17093 
L 587.116531 71.906009 
L 587.703855 71.906009 
L 587.703855 73.619772 
L 588.291178 73.619772 
L 588.291178 71.783106 
L 588.878502 71.783106 
L 588.878502 70.496229 
L 589.465825 70.496229 
L 589.465825 71.669276 
L 590.053148 71.669276 
L 590.053148 71.356639 
L 590.640472 71.356639 
L 590.640472 71.984439 
L 591.815119 72.023993 
L 591.815119 72.387456 
L 592.989766 72.482444 
L 592.989766 72.603098 
L 593.577089 72.603098 
L 593.577089 72.850869 
L 594.164413 72.850869 
L 594.164413 72.449137 
L 595.339059 72.493046 
L 595.339059 72.585313 
L 596.513706 72.539289 
L 596.513706 71.691432 
L 597.10103 71.691432 
L 597.10103 68.915161 
L 597.688353 68.915161 
L 597.688353 68.375669 
L 598.275677 68.375669 
L 598.275677 68.641612 
L 598.863 68.641612 
L 598.863 67.641184 
L 599.450323 67.641184 
L 599.450323 67.974976 
L 600.037647 67.974976 
L 600.037647 67.393529 
L 601.212294 67.474705 
L 601.212294 67.647431 
L 601.799617 67.647431 
L 601.799617 68.041473 
L 602.386941 68.041473 
L 602.386941 67.378001 
L 602.974264 67.378001 
L 602.974264 70.58398 
L 603.561587 70.58398 
L 603.561587 70.44996 
L 604.148911 70.44996 
L 604.148911 70.249385 
L 604.736234 70.249385 
L 604.736234 69.094641 
L 605.323558 69.094641 
L 605.323558 70.057038 
L 605.910881 70.057038 
L 605.910881 69.559446 
L 606.498205 69.559446 
L 606.498205 69.284203 
L 607.085528 69.284203 
L 607.085528 69.825442 
L 607.672852 69.825442 
L 607.672852 69.600771 
L 608.260175 69.600771 
L 608.260175 68.317964 
L 608.847498 68.317964 
L 608.847498 68.095408 
L 609.434822 68.095408 
L 609.434822 67.657258 
L 610.022145 67.657258 
L 610.022145 65.731997 
L 610.609469 65.731997 
L 610.609469 64.666977 
L 611.196792 64.666977 
L 611.196792 64.435267 
L 611.784116 64.435267 
L 611.784116 63.940689 
L 612.371439 63.940689 
L 612.371439 62.135626 
L 612.958762 62.135626 
L 612.958762 61.120974 
L 613.546086 61.120974 
L 613.546086 60.599822 
L 614.133409 60.599822 
L 614.133409 58.377865 
L 614.720733 58.377865 
L 614.720733 57.864613 
L 615.308056 57.864613 
L 615.308056 59.428523 
L 615.89538 59.428523 
L 615.89538 57.807812 
L 616.482703 57.807812 
L 616.482703 57.651451 
L 617.070027 57.651451 
L 617.070027 58.854746 
L 617.65735 58.854746 
L 617.65735 57.75619 
L 618.244673 57.75619 
L 618.244673 54.088183 
L 618.831997 54.088183 
L 618.831997 53.513237 
L 619.41932 53.513237 
L 619.41932 51.424957 
L 620.006644 51.424957 
L 620.006644 49.67567 
L 620.593967 49.67567 
L 620.593967 46.987963 
L 621.181291 46.987963 
L 621.181291 43.394493 
L 621.768614 43.394493 
L 621.768614 45.500499 
L 622.355937 45.500499 
L 622.355937 44.789986 
L 622.943261 44.789986 
L 622.943261 45.234515 
L 623.530584 45.234515 
L 623.530584 47.542422 
L 624.117908 47.542422 
L 624.117908 48.619465 
L 624.705231 48.619465 
L 624.705231 46.905785 
L 625.292555 46.905785 
L 625.292555 44.695814 
L 625.879878 44.695814 
L 625.879878 40.178232 
L 626.467202 40.178232 
L 626.467202 39.705602 
L 627.054525 39.705602 
L 627.054525 39.005501 
L 627.641848 39.005501 
L 627.641848 36.395945 
L 628.229172 36.395945 
L 628.229172 38.417457 
L 628.816495 38.417457 
L 628.816495 40.725796 
L 629.403819 40.725796 
L 629.403819 39.297369 
L 629.991142 39.297369 
L 629.991142 37.765699 
L 630.578466 37.765699 
L 630.578466 35.953074 
L 631.165789 35.953074 
L 631.165789 36.086768 
L 631.753112 36.086768 
L 631.753112 35.663934 
L 632.340436 35.663934 
L 632.340436 37.685858 
L 632.927759 37.685858 
L 632.927759 36.473881 
L 633.515083 36.473881 
L 633.515083 35.440669 
L 634.68973 35.332804 
L 634.68973 35.658149 
L 635.277053 35.658149 
L 635.277053 33.861839 
L 635.864376 33.861839 
L 635.864376 34.985486 
L 636.4517 34.985486 
L 636.4517 37.195813 
L 637.039023 37.195813 
L 637.039023 39.039965 
L 637.626347 39.039965 
L 637.626347 37.279608 
L 638.21367 37.279608 
L 638.21367 35.967055 
L 639.388317 35.908699 
L 639.388317 36.129913 
L 639.975641 36.129913 
L 639.975641 40.018055 
L 640.562964 40.018055 
L 640.562964 44.716296 
L 641.150287 44.716296 
L 641.150287 45.950896 
L 641.737611 45.950896 
L 641.737611 43.92948 
L 642.324934 43.92948 
L 642.324934 44.529546 
L 642.912258 44.529546 
L 642.912258 44.759016 
L 643.499581 44.759016 
L 643.499581 46.717049 
L 644.086905 46.717049 
L 644.086905 45.528715 
L 644.674228 45.528715 
L 644.674228 43.992313 
L 645.261551 43.992313 
L 645.261551 45.473802 
L 645.848875 45.473802 
L 645.848875 46.017372 
L 647.023522 46.123296 
L 647.023522 46.475019 
L 647.610845 46.475019 
L 647.610845 46.266602 
L 648.198169 46.266602 
L 648.198169 46.67794 
L 648.785492 46.67794 
L 648.785492 47.101272 
L 649.372816 47.101272 
L 649.372816 47.740726 
L 649.960139 47.740726 
L 649.960139 47.419166 
L 650.547462 47.419166 
L 650.547462 44.525467 
L 651.134786 44.525467 
L 651.134786 42.05641 
L 651.722109 42.05641 
L 651.722109 44.090211 
L 652.309433 44.090211 
L 652.309433 40.939943 
L 652.896756 40.939943 
L 652.896756 40.506118 
L 653.48408 40.506118 
L 653.48408 39.881461 
L 654.071403 39.881461 
L 654.071403 40.018882 
L 654.658726 40.018882 
L 654.658726 38.85799 
L 655.24605 38.85799 
L 655.24605 39.047607 
L 655.833373 39.047607 
L 655.833373 39.839172 
L 656.420697 39.839172 
L 656.420697 38.68729 
L 657.00802 38.68729 
L 657.00802 40.302128 
L 658.182667 40.310502 
L 658.182667 39.573617 
L 658.769991 39.573617 
L 658.769991 41.732892 
L 659.944637 41.773082 
L 659.944637 42.635465 
L 660.531961 42.635465 
L 660.531961 39.598009 
L 661.119284 39.598009 
L 661.119284 36.632468 
L 661.706608 36.632468 
L 661.706608 36.894017 
L 662.293931 36.894017 
L 662.293931 35.902602 
L 662.881255 35.902602 
L 662.881255 34.366979 
L 663.468578 34.366979 
L 663.468578 34.783191 
L 664.055901 34.783191 
L 664.055901 34.899645 
L 664.643225 34.899645 
L 664.643225 34.444793 
L 665.230548 34.444793 
L 665.230548 34.051689 
L 666.405195 33.94433 
L 666.405195 33.461115 
L 666.992519 33.461115 
L 666.992519 33.852447 
L 667.579842 33.852447 
L 667.579842 35.647658 
L 668.167165 35.647658 
L 668.167165 35.839723 
L 668.754489 35.839723 
L 668.754489 36.829806 
L 669.341812 36.829806 
L 669.341812 35.961304 
L 669.929136 35.961304 
L 669.929136 38.915935 
L 670.516459 38.915935 
L 670.516459 39.626322 
L 671.103783 39.626322 
L 671.103783 40.009268 
L 671.691106 40.009268 
L 671.691106 40.260821 
L 672.27843 40.260821 
L 672.27843 39.097597 
L 672.865753 39.097597 
L 672.865753 38.478457 
L 673.453076 38.478457 
L 673.453076 40.158988 
L 674.0404 40.158988 
L 674.0404 39.766251 
L 674.627723 39.766251 
L 674.627723 41.630879 
L 675.215047 41.630879 
L 675.215047 42.230411 
L 675.80237 42.230411 
L 675.80237 41.640756 
L 676.389694 41.640756 
L 676.389694 41.977176 
L 676.977017 41.977176 
L 676.977017 45.769103 
L 677.56434 45.769103 
L 677.56434 44.792716 
L 678.151664 44.792716 
L 678.151664 44.205754 
L 678.738987 44.205754 
L 678.738987 44.64699 
L 679.326311 44.64699 
L 679.326311 41.302234 
L 679.913634 41.302234 
L 679.913634 41.967826 
L 680.500958 41.967826 
L 680.500958 40.983936 
L 681.088281 40.983936 
L 681.088281 43.077952 
L 681.675605 43.077952 
L 681.675605 44.53978 
L 682.262928 44.53978 
L 682.262928 44.319141 
L 682.850251 44.319141 
L 682.850251 41.938028 
L 683.437575 41.938028 
L 683.437575 44.145692 
L 684.024898 44.145692 
L 684.024898 43.775993 
L 684.612222 43.775993 
L 684.612222 43.478474 
L 685.199545 43.478474 
L 685.199545 42.052534 
L 685.786869 42.052534 
L 685.786869 41.731258 
L 686.374192 41.731258 
L 686.374192 39.965862 
L 686.961515 39.965862 
L 686.961515 40.537864 
L 687.548839 40.537864 
L 687.548839 40.071832 
L 688.136162 40.071832 
L 688.136162 42.025693 
L 688.723486 42.025693 
L 688.723486 43.084369 
L 689.310809 43.084369 
L 689.310809 42.941748 
L 689.898133 42.941748 
L 689.898133 42.458177 
L 690.485456 42.458177 
L 690.485456 43.404879 
L 691.07278 43.404879 
L 691.07278 43.250954 
L 691.660103 43.250954 
L 691.660103 43.895458 
L 692.247426 43.895458 
L 692.247426 45.238463 
L 692.83475 45.238463 
L 692.83475 48.238099 
L 693.422073 48.238099 
L 693.422073 48.847626 
L 694.009397 48.847626 
L 694.009397 49.797937 
L 694.59672 49.797937 
L 694.59672 48.712009 
L 695.184044 48.712009 
L 695.184044 49.442895 
L 695.771367 49.442895 
L 695.771367 47.783566 
L 696.35869 47.783566 
L 696.35869 49.110975 
L 696.946014 49.110975 
L 696.946014 48.164653 
L 697.533337 48.164653 
L 697.533337 50.034292 
L 698.120661 50.034292 
L 698.120661 54.614113 
L 698.707984 54.614113 
L 698.707984 56.484341 
L 699.295308 56.484341 
L 699.295308 55.957072 
L 699.882631 55.957072 
L 699.882631 56.327142 
L 700.469955 56.327142 
L 700.469955 57.808094 
L 701.057278 57.808094 
L 701.057278 56.836968 
L 701.644601 56.836968 
L 701.644601 55.493026 
L 702.231925 55.493026 
L 702.231925 56.795548 
L 702.819248 56.795548 
L 702.819248 56.257605 
L 703.406572 56.257605 
L 703.406572 54.085329 
L 703.993895 54.085329 
L 703.993895 55.756335 
L 704.581219 55.756335 
L 704.581219 53.54099 
L 705.168542 53.54099 
L 705.168542 54.234946 
L 706.343189 54.265105 
L 706.343189 53.400127 
L 706.930512 53.400127 
L 706.930512 53.105575 
L 707.517836 53.105575 
L 707.517836 54.050844 
L 708.105159 54.050844 
L 708.105159 55.660458 
L 708.692483 55.660458 
L 708.692483 56.786013 
L 709.279806 56.786013 
L 709.279806 57.226672 
L 710.454453 57.184298 
L 710.454453 57.752564 
L 711.041776 57.752564 
L 711.041776 55.297323 
L 711.6291 55.297323 
L 711.6291 57.326421 
L 712.216423 57.326421 
L 712.216423 57.482101 
L 712.803747 57.482101 
L 712.803747 57.752045 
L 713.39107 57.752045 
L 713.39107 57.935388 
L 713.978394 57.935388 
L 713.978394 57.716642 
L 714.565717 57.716642 
L 714.565717 56.850985 
L 715.15304 56.850985 
L 715.15304 57.585183 
L 716.915011 57.475163 
L 716.915011 57.865846 
L 717.502334 57.865846 
L 717.502334 56.917156 
L 718.089658 56.917156 
L 718.089658 56.21722 
L 718.676981 56.21722 
L 718.676981 56.864695 
L 719.264304 56.864695 
L 719.264304 56.117241 
L 719.851628 56.117241 
L 719.851628 59.63537 
L 720.438951 59.63537 
L 720.438951 60.764787 
L 721.026275 60.764787 
L 721.026275 60.650097 
L 721.613598 60.650097 
L 721.613598 61.245276 
L 722.200922 61.245276 
L 722.200922 60.927835 
L 722.788245 60.927835 
L 722.788245 60.073343 
L 725.137539 60.031104 
L 725.137539 60.70494 
L 725.724862 60.70494 
L 725.724862 60.386024 
L 726.899509 60.465016 
L 726.899509 60.823651 
L 728.074156 60.73372 
L 728.074156 60.478926 
L 728.661479 60.478926 
L 728.661479 60.048338 
L 729.248803 60.048338 
L 729.248803 57.085162 
L 729.836126 57.085162 
L 729.836126 55.903123 
L 730.42345 55.903123 
L 730.42345 54.418161 
L 731.010773 54.418161 
L 731.010773 54.14107 
L 731.598097 54.14107 
L 731.598097 53.571445 
L 732.18542 53.571445 
L 732.18542 53.827217 
L 732.772744 53.827217 
L 732.772744 54.425867 
L 733.360067 54.425867 
L 733.360067 55.441172 
L 733.94739 55.441172 
L 733.94739 54.917476 
L 734.534714 54.917476 
L 734.534714 52.837973 
L 735.122037 52.837973 
L 735.122037 53.2123 
L 735.709361 53.2123 
L 735.709361 53.734608 
L 736.884008 53.816161 
L 736.884008 54.738995 
L 737.471331 54.738995 
L 737.471331 56.794399 
L 738.058654 56.794399 
L 738.058654 52.73621 
L 738.645978 52.73621 
L 738.645978 51.025874 
L 739.233301 51.025874 
L 739.233301 50.78166 
L 739.820625 50.78166 
L 739.820625 50.279327 
L 740.995272 50.255579 
L 740.995272 50.421182 
L 742.169918 50.332539 
L 742.169918 48.741108 
L 743.344565 48.685316 
L 743.344565 49.694433 
L 743.931889 49.694433 
L 743.931889 50.574259 
L 744.519212 50.574259 
L 744.519212 49.247346 
L 745.106536 49.247346 
L 745.106536 50.217327 
L 745.693859 50.217327 
L 745.693859 49.209993 
L 746.281183 49.209993 
L 746.281183 50.538329 
L 746.868506 50.538329 
L 746.868506 51.167033 
L 747.455829 51.167033 
L 747.455829 50.714329 
L 748.043153 50.714329 
L 748.043153 51.189006 
L 748.630476 51.189006 
L 748.630476 51.39916 
L 749.2178 51.39916 
L 749.2178 50.462698 
L 749.805123 50.462698 
L 749.805123 50.821593 
L 750.97977 50.827687 
L 750.97977 51.877199 
L 751.567093 51.877199 
L 751.567093 52.447519 
L 752.154417 52.447519 
L 752.154417 51.505504 
L 752.74174 51.505504 
L 752.74174 48.961751 
L 753.329064 48.961751 
L 753.329064 48.720107 
L 753.916387 48.720107 
L 753.916387 48.585039 
L 754.503711 48.585039 
L 754.503711 48.386622 
L 755.091034 48.386622 
L 755.091034 48.754646 
L 755.678358 48.754646 
L 755.678358 48.637599 
L 756.853004 48.737598 
L 756.853004 49.029808 
L 757.440328 49.029808 
L 757.440328 49.453532 
L 758.614975 49.359234 
L 758.614975 49.109726 
L 759.202298 49.109726 
L 759.202298 49.543249 
L 759.789622 49.543249 
L 759.789622 49.189362 
L 760.376945 49.189362 
L 760.376945 49.3813 
L 760.964268 49.3813 
L 760.964268 51.259884 
L 761.551592 51.259884 
L 761.551592 51.668657 
L 762.726239 51.725466 
L 762.726239 50.472396 
L 763.313562 50.472396 
L 763.313562 51.864599 
L 765.075533 51.8927 
L 765.075533 51.354783 
L 765.662856 51.354783 
L 765.662856 51.183624 
L 766.250179 51.183624 
L 766.250179 51.320214 
L 766.837503 51.320214 
L 766.837503 51.600224 
L 767.424826 51.600224 
L 767.424826 51.029557 
L 768.01215 51.029557 
L 768.01215 50.424546 
L 769.186797 50.324199 
L 769.186797 51.187441 
L 769.77412 51.187441 
L 769.77412 49.912545 
L 770.361443 49.912545 
L 770.361443 49.110408 
L 770.948767 49.110408 
L 770.948767 46.447949 
L 772.123414 46.337173 
L 772.123414 45.559429 
L 772.710737 45.559429 
L 772.710737 45.782288 
L 773.298061 45.782288 
L 773.298061 44.862049 
L 775.060031 44.901357 
L 775.060031 45.352285 
L 775.647354 45.352285 
L 775.647354 44.268009 
L 776.822001 44.232842 
L 776.822001 43.147477 
L 777.409325 43.147477 
L 777.409325 41.548339 
L 777.996648 41.548339 
L 777.996648 42.524837 
L 778.583972 42.524837 
L 778.583972 42.189432 
L 779.171295 42.189432 
L 779.171295 42.033426 
L 779.758618 42.033426 
L 779.758618 41.344173 
L 780.345942 41.344173 
L 780.345942 41.468907 
L 780.933265 41.468907 
L 780.933265 42.039555 
L 781.520589 42.039555 
L 781.520589 41.140191 
L 782.107912 41.140191 
L 782.107912 39.917241 
L 782.695236 39.917241 
L 782.695236 41.759791 
L 783.282559 41.759791 
L 783.282559 41.625413 
L 783.869882 41.625413 
L 783.869882 42.321358 
L 784.457206 42.321358 
L 784.457206 43.101212 
L 785.044529 43.101212 
L 785.044529 42.143586 
L 785.631853 42.143586 
L 785.631853 41.65852 
L 786.219176 41.65852 
L 786.219176 41.849134 
L 786.8065 41.849134 
L 786.8065 39.848234 
L 787.393823 39.848234 
L 787.393823 38.770928 
L 787.981147 38.770928 
L 787.981147 38.002222 
L 789.743117 37.985794 
L 789.743117 34.626921 
L 790.33044 34.626921 
L 790.33044 32.39675 
L 791.505087 32.41749 
L 791.505087 31.505466 
L 792.092411 31.505466 
L 792.092411 33.318032 
L 792.679734 33.318032 
L 792.679734 32.549792 
L 793.267057 32.549792 
L 793.267057 32.736864 
L 793.854381 32.736864 
L 793.854381 31.712319 
L 794.441704 31.712319 
L 794.441704 32.012747 
L 795.029028 32.012747 
L 795.029028 32.549721 
L 795.616351 32.549721 
L 795.616351 32.174183 
L 796.203675 32.174183 
L 796.203675 33.715737 
L 796.790998 33.715737 
L 796.790998 34.591585 
L 797.378322 34.591585 
L 797.378322 33.426862 
L 797.965645 33.426862 
L 797.965645 33.570305 
L 798.552968 33.570305 
L 798.552968 33.774332 
L 799.140292 33.774332 
L 799.140292 34.073841 
L 799.727615 34.073841 
L 799.727615 34.253605 
L 800.314939 34.253605 
L 800.314939 34.747348 
L 800.902262 34.747348 
L 800.902262 33.033161 
L 802.076909 33.025017 
L 802.076909 32.524704 
L 802.664232 32.524704 
L 802.664232 32.106969 
L 803.251556 32.106969 
L 803.251556 32.659967 
L 803.838879 32.659967 
L 803.838879 31.769425 
L 804.426203 31.769425 
L 804.426203 32.128992 
L 805.013526 32.128992 
L 805.013526 32.437178 
L 805.60085 32.437178 
L 805.60085 32.913262 
L 806.188173 32.913262 
L 806.188173 33.463747 
L 806.775496 33.463747 
L 806.775496 34.92144 
L 807.950143 34.909438 
L 807.950143 34.348633 
L 808.537467 34.348633 
L 808.537467 35.602153 
L 809.12479 35.602153 
L 809.12479 35.782448 
L 809.712114 35.782448 
L 809.712114 34.749858 
L 810.299437 34.749858 
L 810.299437 33.73174 
L 810.886761 33.73174 
L 810.886761 32.626657 
L 812.061407 32.532774 
L 812.061407 33.051048 
L 812.648731 33.051048 
L 812.648731 34.789917 
L 813.236054 34.789917 
L 813.236054 36.745077 
L 813.823378 36.745077 
L 813.823378 35.447462 
L 814.410701 35.447462 
L 814.410701 35.858777 
L 814.998025 35.858777 
L 814.998025 35.190253 
L 815.585348 35.190253 
L 815.585348 33.696253 
L 816.172671 33.696253 
L 816.172671 35.193314 
L 816.759995 35.193314 
L 816.759995 35.361718 
L 817.347318 35.361718 
L 817.347318 35.705012 
L 817.934642 35.705012 
L 817.934642 36.809342 
L 818.521965 36.809342 
L 818.521965 35.64646 
L 819.696612 35.626323 
L 819.696612 33.969671 
L 820.283936 33.969671 
L 820.283936 33.634778 
L 820.871259 33.634778 
L 820.871259 33.139462 
L 821.458582 33.139462 
L 821.458582 34.802204 
L 822.045906 34.802204 
L 822.045906 34.096256 
L 822.633229 34.096256 
L 822.633229 34.924862 
L 823.220553 34.924862 
L 823.220553 33.090867 
L 823.807876 33.090867 
L 823.807876 32.38254 
L 824.3952 32.38254 
L 824.3952 32.694641 
L 825.569846 32.798795 
L 825.569846 31.27132 
L 826.15717 31.27132 
L 826.15717 32.289673 
L 826.744493 32.289673 
L 826.744493 30.299405 
L 827.331817 30.299405 
L 827.331817 27.180553 
L 827.91914 27.180553 
L 827.91914 26.658369 
L 828.506464 26.658369 
L 828.506464 26.373116 
L 829.093787 26.373116 
L 829.093787 25.233636 
L 829.681111 25.233636 
L 829.681111 25.609949 
L 830.268434 25.609949 
L 830.268434 25.337003 
L 832.030404 25.297523 
L 832.030404 24.491571 
L 832.617728 24.491571 
L 832.617728 23.586855 
L 833.205051 23.586855 
L 833.205051 25.346699 
L 833.792375 25.346699 
L 833.792375 24.924032 
L 834.379698 24.924032 
L 834.379698 26.121666 
L 834.967021 26.121666 
L 834.967021 25.423666 
L 835.554345 25.423666 
L 835.554345 24.337063 
L 836.141668 24.337063 
L 836.141668 25.873486 
L 836.728992 25.873486 
L 836.728992 25.491296 
L 837.316315 25.491296 
L 837.316315 23.919231 
L 837.903639 23.919231 
L 837.903639 24.067841 
L 838.490962 24.067841 
L 838.490962 24.270709 
L 839.078285 24.270709 
L 839.078285 23.855056 
L 839.665609 23.855056 
L 839.665609 24.50199 
L 840.252932 24.50199 
L 840.252932 25.488483 
L 840.840256 25.488483 
L 840.840256 25.652782 
L 841.427579 25.652782 
L 841.427579 25.271223 
L 842.014903 25.271223 
L 842.014903 25.467314 
L 843.18955 25.543726 
L 843.18955 28.122026 
L 843.776873 28.122026 
L 843.776873 27.78511 
L 844.364196 27.78511 
L 844.364196 27.631272 
L 844.95152 27.631272 
L 844.95152 28.549278 
L 845.538843 28.549278 
L 845.538843 28.194622 
L 846.126167 28.194622 
L 846.126167 27.603109 
L 846.71349 27.603109 
L 846.71349 27.79086 
L 847.300814 27.79086 
L 847.300814 27.52942 
L 847.888137 27.52942 
L 847.888137 28.628761 
L 848.47546 28.628761 
L 848.47546 28.31314 
L 849.062784 28.31314 
L 849.062784 30.209848 
L 849.650107 30.209848 
L 849.650107 27.971769 
L 850.237431 27.971769 
L 850.237431 28.267427 
L 850.824754 28.267427 
L 850.824754 27.997767 
L 851.412078 27.997767 
L 851.412078 26.028875 
L 851.999401 26.028875 
L 851.999401 25.81108 
L 852.586725 25.81108 
L 852.586725 25.408497 
L 853.761371 25.430955 
L 853.761371 23.850792 
L 854.348695 23.850792 
L 854.348695 24.084244 
L 854.936018 24.084244 
L 854.936018 23.536214 
L 855.523342 23.536214 
L 855.523342 22.563278 
L 856.110665 22.563278 
L 856.110665 22.969087 
L 856.697989 22.969087 
L 856.697989 23.992494 
L 857.285312 23.992494 
L 857.285312 23.723455 
L 858.459959 23.685773 
L 858.459959 23.114651 
L 859.047282 23.114651 
L 859.047282 23.699869 
L 859.634606 23.699869 
L 859.634606 23.867227 
L 860.221929 23.867227 
L 860.221929 23.733748 
L 860.809253 23.733748 
L 860.809253 23.407606 
L 861.396576 23.407606 
L 861.396576 23.67197 
L 861.9839 23.67197 
L 861.9839 23.196894 
L 862.571223 23.196894 
L 862.571223 22.63816 
L 863.158546 22.63816 
L 863.158546 21.283255 
L 864.333193 21.252761 
L 864.333193 21.562443 
L 866.095164 21.480964 
L 866.095164 22.420458 
L 866.682487 22.420458 
L 866.682487 21.979852 
L 867.26981 21.979852 
L 867.26981 21.249643 
L 867.857134 21.249643 
L 867.857134 21.402591 
L 868.444457 21.402591 
L 868.444457 21.76739 
L 869.619104 21.66157 
L 869.619104 22.548708 
L 870.206428 22.548708 
L 870.206428 23.095814 
L 870.793751 23.095814 
L 870.793751 22.560524 
L 871.968398 22.661532 
L 871.968398 21.894154 
L 873.730368 21.864056 
L 873.730368 22.511697 
L 874.317692 22.511697 
L 874.317692 22.931157 
L 874.905015 22.931157 
L 874.905015 21.363749 
L 875.492339 21.363749 
L 875.492339 20.552727 
L 876.079662 20.552727 
L 876.079662 20.852518 
L 876.666985 20.852518 
L 876.666985 21.946446 
L 877.254309 21.946446 
L 877.254309 23.528444 
L 877.841632 23.528444 
L 877.841632 23.159011 
L 878.428956 23.159011 
L 878.428956 22.578441 
L 879.016279 22.578441 
L 879.016279 22.861951 
L 880.190926 22.765112 
L 880.190926 24.528115 
L 880.778249 24.528115 
L 880.778249 23.623438 
L 881.365573 23.623438 
L 881.365573 25.937762 
L 881.952896 25.937762 
L 881.952896 26.241358 
L 882.54022 26.241358 
L 882.54022 28.114511 
L 883.127543 28.114511 
L 883.127543 26.77875 
L 884.30219 26.81 
L 884.30219 26.4225 
L 884.889514 26.4225 
L 884.889514 26.750885 
L 886.06416 26.833691 
L 886.06416 27.381199 
L 887.194182 27.318486 
L 887.194182 27.318486 
" clip-path="url(#p5447dc1565)" style="fill: none; stroke: #3572c6; stroke-width: 1.2; stroke-linecap: square"/>
   </g>
   <g id="line2d_79">
    <path d="M 75.557818 20.552727 
L 887.194182 20.552727 
L 887.194182 20.552727 
" clip-path="url(#p5447dc1565)" style="fill: none; stroke: #83a83b; stroke-width: 1.2; stroke-linecap: square"/>
   </g>
   <g id="line2d_80">
    <path d="M 75.557818 28.114511 
L 887.194182 28.114511 
L 887.194182 28.114511 
" clip-path="url(#p5447dc1565)" style="fill: none; stroke: #c44e52; stroke-width: 1.2; stroke-linecap: square"/>
   </g>
   <g id="line2d_81">
    <path d="M 876.079662 300.96 
L 876.079662 7.2 
" clip-path="url(#p5447dc1565)" style="fill: none; stroke: #83a83b; stroke-width: 1.2; stroke-linecap: square"/>
   </g>
   <g id="line2d_82">
    <path d="M 883.127543 300.96 
L 883.127543 7.2 
" clip-path="url(#p5447dc1565)" style="fill: none; stroke: #c44e52; stroke-width: 1.2; stroke-linecap: square"/>
   </g>
   <g id="patch_3">
    <path d="M 34.976 300.96 
L 34.976 7.2 
" style="fill: none; stroke: #899ab8; stroke-width: 1.12; stroke-linejoin: miter; stroke-linecap: square"/>
   </g>
   <g id="patch_4">
    <path d="M 927.776 300.96 
L 927.776 7.2 
" style="fill: none; stroke: #899ab8; stroke-width: 1.12; stroke-linejoin: miter; stroke-linecap: square"/>
   </g>
   <g id="patch_5">
    <path d="M 34.976 300.96 
L 927.776 300.96 
" style="fill: none; stroke: #899ab8; stroke-width: 1.12; stroke-linejoin: miter; stroke-linecap: square"/>
   </g>
   <g id="patch_6">
    <path d="M 34.976 7.2 
L 927.776 7.2 
" style="fill: none; stroke: #899ab8; stroke-width: 1.12; stroke-linejoin: miter; stroke-linecap: square"/>
   </g>
   <g id="text_16">
    <!-- 123519.47 -->
    <g style="fill: #83a83b" transform="translate(182.744345 20.552727) scale(0.132 -0.132)">
     <defs>
      <path id="DejaVuSans-39" d="M 703 97 
L 703 672 
Q 941 559 1184 500 
Q 1428 441 1663 441 
Q 2288 441 2617 861 
Q 2947 1281 2994 2138 
Q 2813 1869 2534 1725 
Q 2256 1581 1919 1581 
Q 1219 1581 811 2004 
Q 403 2428 403 3163 
Q 403 3881 828 4315 
Q 1253 4750 1959 4750 
Q 2769 4750 3195 4129 
Q 3622 3509 3622 2328 
Q 3622 1225 3098 567 
Q 2575 -91 1691 -91 
Q 1453 -91 1209 -44 
Q 966 3 703 97 
z
M 1959 2075 
Q 2384 2075 2632 2365 
Q 2881 2656 2881 3163 
Q 2881 3666 2632 3958 
Q 2384 4250 1959 4250 
Q 1534 4250 1286 3958 
Q 1038 3666 1038 3163 
Q 1038 2656 1286 2365 
Q 1534 2075 1959 2075 
z
" transform="scale(0.015625)"/>
      <path id="DejaVuSans-2e" d="M 684 794 
L 1344 794 
L 1344 0 
L 684 0 
L 684 794 
z
" transform="scale(0.015625)"/>
      <path id="DejaVuSans-37" d="M 525 4666 
L 3525 4666 
L 3525 4397 
L 1831 0 
L 1172 0 
L 2766 4134 
L 525 4134 
L 525 4666 
z
" transform="scale(0.015625)"/>
     </defs>
     <use xlink:href="#DejaVuSans-31"/>
     <use xlink:href="#DejaVuSans-32" transform="translate(63.623047 0)"/>
     <use xlink:href="#DejaVuSans-33" transform="translate(127.246094 0)"/>
     <use xlink:href="#DejaVuSans-35" transform="translate(190.869141 0)"/>
     <use xlink:href="#DejaVuSans-31" transform="translate(254.492188 0)"/>
     <use xlink:href="#DejaVuSans-39" transform="translate(318.115234 0)"/>
     <use xlink:href="#DejaVuSans-2e" transform="translate(381.738281 0)"/>
     <use xlink:href="#DejaVuSans-34" transform="translate(413.525391 0)"/>
     <use xlink:href="#DejaVuSans-37" transform="translate(477.148438 0)"/>
    </g>
   </g>
   <g id="text_17">
    <!-- 84677.63 -->
    <g style="fill: #c44e52" transform="translate(182.744345 28.114511) scale(0.132 -0.132)">
     <use xlink:href="#DejaVuSans-38"/>
     <use xlink:href="#DejaVuSans-34" transform="translate(63.623047 0)"/>
     <use xlink:href="#DejaVuSans-36" transform="translate(127.246094 0)"/>
     <use xlink:href="#DejaVuSans-37" transform="translate(190.869141 0)"/>
     <use xlink:href="#DejaVuSans-37" transform="translate(254.492188 0)"/>
     <use xlink:href="#DejaVuSans-2e" transform="translate(318.115234 0)"/>
     <use xlink:href="#DejaVuSans-36" transform="translate(349.902344 0)"/>
     <use xlink:href="#DejaVuSans-33" transform="translate(413.525391 0)"/>
    </g>
   </g>
   <g id="legend_1">
    <g id="patch_7">
     <path d="M 43.796 183.886875 
L 142.133094 183.886875 
Q 144.653094 183.886875 144.653094 181.366875 
L 144.653094 126.793125 
Q 144.653094 124.273125 142.133094 124.273125 
L 43.796 124.273125 
Q 41.276 124.273125 41.276 126.793125 
L 41.276 181.366875 
Q 41.276 183.886875 43.796 183.886875 
z
" style="fill: #373e4b; opacity: 0.8; stroke: #cccccc; stroke-width: 0.16; stroke-linejoin: miter"/>
    </g>
    <g id="line2d_83">
     <path d="M 46.316 134.477156 
L 46.316 134.477156 
L 58.916 134.477156 
L 58.916 134.477156 
L 71.516 134.477156 
" style="fill: none; stroke: #3572c6; stroke-width: 1.2; stroke-linecap: square"/>
    </g>
    <g id="text_18">
     <!-- USD/BTC -->
     <g style="fill: #b1bed6" transform="translate(81.596 138.887156) scale(0.126 -0.126)">
      <defs>
       <path id="DejaVuSans-55" d="M 556 4666 
L 1191 4666 
L 1191 1831 
Q 1191 1081 1462 751 
Q 1734 422 2344 422 
Q 2950 422 3222 751 
Q 3494 1081 3494 1831 
L 3494 4666 
L 4128 4666 
L 4128 1753 
Q 4128 841 3676 375 
Q 3225 -91 2344 -91 
Q 1459 -91 1007 375 
Q 556 841 556 1753 
L 556 4666 
z
" transform="scale(0.015625)"/>
       <path id="DejaVuSans-53" d="M 3425 4513 
L 3425 3897 
Q 3066 4069 2747 4153 
Q 2428 4238 2131 4238 
Q 1616 4238 1336 4038 
Q 1056 3838 1056 3469 
Q 1056 3159 1242 3001 
Q 1428 2844 1947 2747 
L 2328 2669 
Q 3034 2534 3370 2195 
Q 3706 1856 3706 1288 
Q 3706 609 3251 259 
Q 2797 -91 1919 -91 
Q 1588 -91 1214 -16 
Q 841 59 441 206 
L 441 856 
Q 825 641 1194 531 
Q 1563 422 1919 422 
Q 2459 422 2753 634 
Q 3047 847 3047 1241 
Q 3047 1584 2836 1778 
Q 2625 1972 2144 2069 
L 1759 2144 
Q 1053 2284 737 2584 
Q 422 2884 422 3419 
Q 422 4038 858 4394 
Q 1294 4750 2059 4750 
Q 2388 4750 2728 4690 
Q 3069 4631 3425 4513 
z
" transform="scale(0.015625)"/>
       <path id="DejaVuSans-2f" d="M 1625 4666 
L 2156 4666 
L 531 -594 
L 0 -594 
L 1625 4666 
z
" transform="scale(0.015625)"/>
       <path id="DejaVuSans-42" d="M 1259 2228 
L 1259 519 
L 2272 519 
Q 2781 519 3026 730 
Q 3272 941 3272 1375 
Q 3272 1813 3026 2020 
Q 2781 2228 2272 2228 
L 1259 2228 
z
M 1259 4147 
L 1259 2741 
L 2194 2741 
Q 2656 2741 2882 2914 
Q 3109 3088 3109 3444 
Q 3109 3797 2882 3972 
Q 2656 4147 2194 4147 
L 1259 4147 
z
M 628 4666 
L 2241 4666 
Q 2963 4666 3353 4366 
Q 3744 4066 3744 3513 
Q 3744 3084 3544 2831 
Q 3344 2578 2956 2516 
Q 3422 2416 3680 2098 
Q 3938 1781 3938 1306 
Q 3938 681 3513 340 
Q 3088 0 2303 0 
L 628 0 
L 628 4666 
z
" transform="scale(0.015625)"/>
       <path id="DejaVuSans-54" d="M -19 4666 
L 3928 4666 
L 3928 4134 
L 2272 4134 
L 2272 0 
L 1638 0 
L 1638 4134 
L -19 4134 
L -19 4666 
z
" transform="scale(0.015625)"/>
       <path id="DejaVuSans-43" d="M 4122 4306 
L 4122 3641 
Q 3803 3938 3442 4084 
Q 3081 4231 2675 4231 
Q 1875 4231 1450 3742 
Q 1025 3253 1025 2328 
Q 1025 1406 1450 917 
Q 1875 428 2675 428 
Q 3081 428 3442 575 
Q 3803 722 4122 1019 
L 4122 359 
Q 3791 134 3420 21 
Q 3050 -91 2638 -91 
Q 1578 -91 968 557 
Q 359 1206 359 2328 
Q 359 3453 968 4101 
Q 1578 4750 2638 4750 
Q 3056 4750 3426 4639 
Q 3797 4528 4122 4306 
z
" transform="scale(0.015625)"/>
      </defs>
      <use xlink:href="#DejaVuSans-55"/>
      <use xlink:href="#DejaVuSans-53" transform="translate(73.193359 0)"/>
      <use xlink:href="#DejaVuSans-44" transform="translate(136.669922 0)"/>
      <use xlink:href="#DejaVuSans-2f" transform="translate(213.671875 0)"/>
      <use xlink:href="#DejaVuSans-42" transform="translate(247.363281 0)"/>
      <use xlink:href="#DejaVuSans-54" transform="translate(315.966797 0)"/>
      <use xlink:href="#DejaVuSans-43" transform="translate(371.175781 0)"/>
     </g>
    </g>
    <g id="line2d_84">
     <path d="M 46.316 152.971594 
L 46.316 152.971594 
L 58.916 152.971594 
L 58.916 152.971594 
L 71.516 152.971594 
" style="fill: none; stroke: #83a83b; stroke-width: 1.2; stroke-linecap: square"/>
    </g>
    <g id="text_19">
     <!-- Max -->
     <g style="fill: #b1bed6" transform="translate(81.596 157.381594) scale(0.126 -0.126)">
      <defs>
       <path id="DejaVuSans-4d" d="M 628 4666 
L 1569 4666 
L 2759 1491 
L 3956 4666 
L 4897 4666 
L 4897 0 
L 4281 0 
L 4281 4097 
L 3078 897 
L 2444 897 
L 1241 4097 
L 1241 0 
L 628 0 
L 628 4666 
z
" transform="scale(0.015625)"/>
       <path id="DejaVuSans-78" d="M 3513 3500 
L 2247 1797 
L 3578 0 
L 2900 0 
L 1881 1375 
L 863 0 
L 184 0 
L 1544 1831 
L 300 3500 
L 978 3500 
L 1906 2253 
L 2834 3500 
L 3513 3500 
z
" transform="scale(0.015625)"/>
      </defs>
      <use xlink:href="#DejaVuSans-4d"/>
      <use xlink:href="#DejaVuSans-61" transform="translate(86.279297 0)"/>
      <use xlink:href="#DejaVuSans-78" transform="translate(147.558594 0)"/>
     </g>
    </g>
    <g id="line2d_85">
     <path d="M 46.316 171.466031 
L 46.316 171.466031 
L 58.916 171.466031 
L 58.916 171.466031 
L 71.516 171.466031 
" style="fill: none; stroke: #c44e52; stroke-width: 1.2; stroke-linecap: square"/>
    </g>
    <g id="text_20">
     <!-- local_Min -->
     <g style="fill: #b1bed6" transform="translate(81.596 175.876031) scale(0.126 -0.126)">
      <defs>
       <path id="DejaVuSans-6c" d="M 603 4863 
L 1178 4863 
L 1178 0 
L 603 0 
L 603 4863 
z
" transform="scale(0.015625)"/>
       <path id="DejaVuSans-6f" d="M 1959 3097 
Q 1497 3097 1228 2736 
Q 959 2375 959 1747 
Q 959 1119 1226 758 
Q 1494 397 1959 397 
Q 2419 397 2687 759 
Q 2956 1122 2956 1747 
Q 2956 2369 2687 2733 
Q 2419 3097 1959 3097 
z
M 1959 3584 
Q 2709 3584 3137 3096 
Q 3566 2609 3566 1747 
Q 3566 888 3137 398 
Q 2709 -91 1959 -91 
Q 1206 -91 779 398 
Q 353 888 353 1747 
Q 353 2609 779 3096 
Q 1206 3584 1959 3584 
z
" transform="scale(0.015625)"/>
       <path id="DejaVuSans-63" d="M 3122 3366 
L 3122 2828 
Q 2878 2963 2633 3030 
Q 2388 3097 2138 3097 
Q 1578 3097 1268 2742 
Q 959 2388 959 1747 
Q 959 1106 1268 751 
Q 1578 397 2138 397 
Q 2388 397 2633 464 
Q 2878 531 3122 666 
L 3122 134 
Q 2881 22 2623 -34 
Q 2366 -91 2075 -91 
Q 1284 -91 818 406 
Q 353 903 353 1747 
Q 353 2603 823 3093 
Q 1294 3584 2113 3584 
Q 2378 3584 2631 3529 
Q 2884 3475 3122 3366 
z
" transform="scale(0.015625)"/>
       <path id="DejaVuSans-5f" d="M 3263 -1063 
L 3263 -1509 
L -63 -1509 
L -63 -1063 
L 3263 -1063 
z
" transform="scale(0.015625)"/>
       <path id="DejaVuSans-69" d="M 603 3500 
L 1178 3500 
L 1178 0 
L 603 0 
L 603 3500 
z
M 603 4863 
L 1178 4863 
L 1178 4134 
L 603 4134 
L 603 4863 
z
" transform="scale(0.015625)"/>
       <path id="DejaVuSans-6e" d="M 3513 2113 
L 3513 0 
L 2938 0 
L 2938 2094 
Q 2938 2591 2744 2837 
Q 2550 3084 2163 3084 
Q 1697 3084 1428 2787 
Q 1159 2491 1159 1978 
L 1159 0 
L 581 0 
L 581 3500 
L 1159 3500 
L 1159 2956 
Q 1366 3272 1645 3428 
Q 1925 3584 2291 3584 
Q 2894 3584 3203 3211 
Q 3513 2838 3513 2113 
z
" transform="scale(0.015625)"/>
      </defs>
      <use xlink:href="#DejaVuSans-6c"/>
      <use xlink:href="#DejaVuSans-6f" transform="translate(27.783203 0)"/>
      <use xlink:href="#DejaVuSans-63" transform="translate(88.964844 0)"/>
      <use xlink:href="#DejaVuSans-61" transform="translate(143.945312 0)"/>
      <use xlink:href="#DejaVuSans-6c" transform="translate(205.224609 0)"/>
      <use xlink:href="#DejaVuSans-5f" transform="translate(233.007812 0)"/>
      <use xlink:href="#DejaVuSans-4d" transform="translate(283.007812 0)"/>
      <use xlink:href="#DejaVuSans-69" transform="translate(369.287109 0)"/>
      <use xlink:href="#DejaVuSans-6e" transform="translate(397.070312 0)"/>
     </g>
    </g>
   </g>
  </g>
 </g>
 <defs>
  <clipPath id="p5447dc1565">
   <rect x="34.976" y="7.2" width="892.8" height="293.76"/>
  </clipPath>
 </defs>
</svg>
