<?xml version="1.0" encoding="utf-8" standalone="no"?>
<!DOCTYPE svg PUBLIC "-//W3C//DTD SVG 1.1//EN"
  "http://www.w3.org/Graphics/SVG/1.1/DTD/svg11.dtd">
<svg xmlns:xlink="http://www.w3.org/1999/xlink" width="952.88375pt" height="358.290693pt" viewBox="0 0 952.88375 358.290693" xmlns="http://www.w3.org/2000/svg" version="1.1">
 <metadata>
  <rdf:RDF xmlns:dc="http://purl.org/dc/elements/1.1/" xmlns:cc="http://creativecommons.org/ns#" xmlns:rdf="http://www.w3.org/1999/02/22-rdf-syntax-ns#">
   <cc:Work>
    <dc:type rdf:resource="http://purl.org/dc/dcmitype/StillImage"/>
    <dc:date>2023-11-25T20:24:27.927065</dc:date>
    <dc:format>image/svg+xml</dc:format>
    <dc:creator>
     <cc:Agent>
      <dc:title>Matplotlib v3.8.2, https://matplotlib.org/</dc:title>
     </cc:Agent>
    </dc:creator>
   </cc:Work>
  </rdf:RDF>
 </metadata>
 <defs>
  <style type="text/css">*{stroke-linejoin: round; stroke-linecap: butt}</style>
 </defs>
 <g id="figure_1">
  <g id="patch_1">
   <path d="M 0 358.290693 
L 952.88375 358.290693 
L 952.88375 0 
L 0 0 
z
" style="fill: #373e4b"/>
  </g>
  <g id="axes_1">
   <g id="patch_2">
    <path d="M 52.88375 300.96 
L 945.68375 300.96 
L 945.68375 7.2 
L 52.88375 7.2 
z
" style="fill: #373e4b"/>
   </g>
   <g id="matplotlib.axis_1">
    <g id="xtick_1">
     <g id="line2d_1">
      <path d="M 99.818596 300.96 
L 99.818596 7.2 
" clip-path="url(#pdb98c14e4f)" style="fill: none; stroke: #546379; stroke-width: 1.12; stroke-linecap: square"/>
     </g>
     <g id="line2d_2"/>
     <g id="text_1">
      <!-- 2018 -->
      <g style="fill: #b1bed6" transform="translate(70.737556 330.884854) rotate(-30) scale(0.126 -0.126)">
       <defs>
        <path id="DejaVuSans-32" d="M 1228 531 
L 3431 531 
L 3431 0 
L 469 0 
L 469 531 
Q 828 903 1448 1529 
Q 2069 2156 2228 2338 
Q 2531 2678 2651 2914 
Q 2772 3150 2772 3378 
Q 2772 3750 2511 3984 
Q 2250 4219 1831 4219 
Q 1534 4219 1204 4116 
Q 875 4013 500 3803 
L 500 4441 
Q 881 4594 1212 4672 
Q 1544 4750 1819 4750 
Q 2544 4750 2975 4387 
Q 3406 4025 3406 3419 
Q 3406 3131 3298 2873 
Q 3191 2616 2906 2266 
Q 2828 2175 2409 1742 
Q 1991 1309 1228 531 
z
" transform="scale(0.015625)"/>
        <path id="DejaVuSans-30" d="M 2034 4250 
Q 1547 4250 1301 3770 
Q 1056 3291 1056 2328 
Q 1056 1369 1301 889 
Q 1547 409 2034 409 
Q 2525 409 2770 889 
Q 3016 1369 3016 2328 
Q 3016 3291 2770 3770 
Q 2525 4250 2034 4250 
z
M 2034 4750 
Q 2819 4750 3233 4129 
Q 3647 3509 3647 2328 
Q 3647 1150 3233 529 
Q 2819 -91 2034 -91 
Q 1250 -91 836 529 
Q 422 1150 422 2328 
Q 422 3509 836 4129 
Q 1250 4750 2034 4750 
z
" transform="scale(0.015625)"/>
        <path id="DejaVuSans-31" d="M 794 531 
L 1825 531 
L 1825 4091 
L 703 3866 
L 703 4441 
L 1819 4666 
L 2450 4666 
L 2450 531 
L 3481 531 
L 3481 0 
L 794 0 
L 794 531 
z
" transform="scale(0.015625)"/>
        <path id="DejaVuSans-38" d="M 2034 2216 
Q 1584 2216 1326 1975 
Q 1069 1734 1069 1313 
Q 1069 891 1326 650 
Q 1584 409 2034 409 
Q 2484 409 2743 651 
Q 3003 894 3003 1313 
Q 3003 1734 2745 1975 
Q 2488 2216 2034 2216 
z
M 1403 2484 
Q 997 2584 770 2862 
Q 544 3141 544 3541 
Q 544 4100 942 4425 
Q 1341 4750 2034 4750 
Q 2731 4750 3128 4425 
Q 3525 4100 3525 3541 
Q 3525 3141 3298 2862 
Q 3072 2584 2669 2484 
Q 3125 2378 3379 2068 
Q 3634 1759 3634 1313 
Q 3634 634 3220 271 
Q 2806 -91 2034 -91 
Q 1263 -91 848 271 
Q 434 634 434 1313 
Q 434 1759 690 2068 
Q 947 2378 1403 2484 
z
M 1172 3481 
Q 1172 3119 1398 2916 
Q 1625 2713 2034 2713 
Q 2441 2713 2670 2916 
Q 2900 3119 2900 3481 
Q 2900 3844 2670 4047 
Q 2441 4250 2034 4250 
Q 1625 4250 1398 4047 
Q 1172 3844 1172 3481 
z
" transform="scale(0.015625)"/>
       </defs>
       <use xlink:href="#DejaVuSans-32"/>
       <use xlink:href="#DejaVuSans-30" x="63.623047"/>
       <use xlink:href="#DejaVuSans-31" x="127.246094"/>
       <use xlink:href="#DejaVuSans-38" x="190.869141"/>
      </g>
     </g>
    </g>
    <g id="xtick_2">
     <g id="line2d_3">
      <path d="M 236.221831 300.96 
L 236.221831 7.2 
" clip-path="url(#pdb98c14e4f)" style="fill: none; stroke: #546379; stroke-width: 1.12; stroke-linecap: square"/>
     </g>
     <g id="line2d_4"/>
     <g id="text_2">
      <!-- 2019 -->
      <g style="fill: #b1bed6" transform="translate(207.140792 330.884854) rotate(-30) scale(0.126 -0.126)">
       <defs>
        <path id="DejaVuSans-39" d="M 703 97 
L 703 672 
Q 941 559 1184 500 
Q 1428 441 1663 441 
Q 2288 441 2617 861 
Q 2947 1281 2994 2138 
Q 2813 1869 2534 1725 
Q 2256 1581 1919 1581 
Q 1219 1581 811 2004 
Q 403 2428 403 3163 
Q 403 3881 828 4315 
Q 1253 4750 1959 4750 
Q 2769 4750 3195 4129 
Q 3622 3509 3622 2328 
Q 3622 1225 3098 567 
Q 2575 -91 1691 -91 
Q 1453 -91 1209 -44 
Q 966 3 703 97 
z
M 1959 2075 
Q 2384 2075 2632 2365 
Q 2881 2656 2881 3163 
Q 2881 3666 2632 3958 
Q 2384 4250 1959 4250 
Q 1534 4250 1286 3958 
Q 1038 3666 1038 3163 
Q 1038 2656 1286 2365 
Q 1534 2075 1959 2075 
z
" transform="scale(0.015625)"/>
       </defs>
       <use xlink:href="#DejaVuSans-32"/>
       <use xlink:href="#DejaVuSans-30" x="63.623047"/>
       <use xlink:href="#DejaVuSans-31" x="127.246094"/>
       <use xlink:href="#DejaVuSans-39" x="190.869141"/>
      </g>
     </g>
    </g>
    <g id="xtick_3">
     <g id="line2d_5">
      <path d="M 372.625067 300.96 
L 372.625067 7.2 
" clip-path="url(#pdb98c14e4f)" style="fill: none; stroke: #546379; stroke-width: 1.12; stroke-linecap: square"/>
     </g>
     <g id="line2d_6"/>
     <g id="text_3">
      <!-- 2020 -->
      <g style="fill: #b1bed6" transform="translate(343.544027 330.884854) rotate(-30) scale(0.126 -0.126)">
       <use xlink:href="#DejaVuSans-32"/>
       <use xlink:href="#DejaVuSans-30" x="63.623047"/>
       <use xlink:href="#DejaVuSans-32" x="127.246094"/>
       <use xlink:href="#DejaVuSans-30" x="190.869141"/>
      </g>
     </g>
    </g>
    <g id="xtick_4">
     <g id="line2d_7">
      <path d="M 509.40201 300.96 
L 509.40201 7.2 
" clip-path="url(#pdb98c14e4f)" style="fill: none; stroke: #546379; stroke-width: 1.12; stroke-linecap: square"/>
     </g>
     <g id="line2d_8"/>
     <g id="text_4">
      <!-- 2021 -->
      <g style="fill: #b1bed6" transform="translate(480.32097 330.884854) rotate(-30) scale(0.126 -0.126)">
       <use xlink:href="#DejaVuSans-32"/>
       <use xlink:href="#DejaVuSans-30" x="63.623047"/>
       <use xlink:href="#DejaVuSans-32" x="127.246094"/>
       <use xlink:href="#DejaVuSans-31" x="190.869141"/>
      </g>
     </g>
    </g>
    <g id="xtick_5">
     <g id="line2d_9">
      <path d="M 645.805246 300.96 
L 645.805246 7.2 
" clip-path="url(#pdb98c14e4f)" style="fill: none; stroke: #546379; stroke-width: 1.12; stroke-linecap: square"/>
     </g>
     <g id="line2d_10"/>
     <g id="text_5">
      <!-- 2022 -->
      <g style="fill: #b1bed6" transform="translate(616.724206 330.884854) rotate(-30) scale(0.126 -0.126)">
       <use xlink:href="#DejaVuSans-32"/>
       <use xlink:href="#DejaVuSans-30" x="63.623047"/>
       <use xlink:href="#DejaVuSans-32" x="127.246094"/>
       <use xlink:href="#DejaVuSans-32" x="190.869141"/>
      </g>
     </g>
    </g>
    <g id="xtick_6">
     <g id="line2d_11">
      <path d="M 782.208482 300.96 
L 782.208482 7.2 
" clip-path="url(#pdb98c14e4f)" style="fill: none; stroke: #546379; stroke-width: 1.12; stroke-linecap: square"/>
     </g>
     <g id="line2d_12"/>
     <g id="text_6">
      <!-- 2023 -->
      <g style="fill: #b1bed6" transform="translate(753.127442 330.884854) rotate(-30) scale(0.126 -0.126)">
       <defs>
        <path id="DejaVuSans-33" d="M 2597 2516 
Q 3050 2419 3304 2112 
Q 3559 1806 3559 1356 
Q 3559 666 3084 287 
Q 2609 -91 1734 -91 
Q 1441 -91 1130 -33 
Q 819 25 488 141 
L 488 750 
Q 750 597 1062 519 
Q 1375 441 1716 441 
Q 2309 441 2620 675 
Q 2931 909 2931 1356 
Q 2931 1769 2642 2001 
Q 2353 2234 1838 2234 
L 1294 2234 
L 1294 2753 
L 1863 2753 
Q 2328 2753 2575 2939 
Q 2822 3125 2822 3475 
Q 2822 3834 2567 4026 
Q 2313 4219 1838 4219 
Q 1578 4219 1281 4162 
Q 984 4106 628 3988 
L 628 4550 
Q 988 4650 1302 4700 
Q 1616 4750 1894 4750 
Q 2613 4750 3031 4423 
Q 3450 4097 3450 3541 
Q 3450 3153 3228 2886 
Q 3006 2619 2597 2516 
z
" transform="scale(0.015625)"/>
       </defs>
       <use xlink:href="#DejaVuSans-32"/>
       <use xlink:href="#DejaVuSans-30" x="63.623047"/>
       <use xlink:href="#DejaVuSans-32" x="127.246094"/>
       <use xlink:href="#DejaVuSans-33" x="190.869141"/>
      </g>
     </g>
    </g>
    <g id="xtick_7">
     <g id="line2d_13">
      <path d="M 918.611717 300.96 
L 918.611717 7.2 
" clip-path="url(#pdb98c14e4f)" style="fill: none; stroke: #546379; stroke-width: 1.12; stroke-linecap: square"/>
     </g>
     <g id="line2d_14"/>
     <g id="text_7">
      <!-- 2024 -->
      <g style="fill: #b1bed6" transform="translate(889.530678 330.884854) rotate(-30) scale(0.126 -0.126)">
       <defs>
        <path id="DejaVuSans-34" d="M 2419 4116 
L 825 1625 
L 2419 1625 
L 2419 4116 
z
M 2253 4666 
L 3047 4666 
L 3047 1625 
L 3713 1625 
L 3713 1100 
L 3047 1100 
L 3047 0 
L 2419 0 
L 2419 1100 
L 313 1100 
L 313 1709 
L 2253 4666 
z
" transform="scale(0.015625)"/>
       </defs>
       <use xlink:href="#DejaVuSans-32"/>
       <use xlink:href="#DejaVuSans-30" x="63.623047"/>
       <use xlink:href="#DejaVuSans-32" x="127.246094"/>
       <use xlink:href="#DejaVuSans-34" x="190.869141"/>
      </g>
     </g>
    </g>
    <g id="text_8">
     <!-- Date -->
     <g style="fill: #b1bed6" transform="translate(482.074625 348.095943) scale(0.144 -0.144)">
      <defs>
       <path id="DejaVuSans-44" d="M 1259 4147 
L 1259 519 
L 2022 519 
Q 2988 519 3436 956 
Q 3884 1394 3884 2338 
Q 3884 3275 3436 3711 
Q 2988 4147 2022 4147 
L 1259 4147 
z
M 628 4666 
L 1925 4666 
Q 3281 4666 3915 4102 
Q 4550 3538 4550 2338 
Q 4550 1131 3912 565 
Q 3275 0 1925 0 
L 628 0 
L 628 4666 
z
" transform="scale(0.015625)"/>
       <path id="DejaVuSans-61" d="M 2194 1759 
Q 1497 1759 1228 1600 
Q 959 1441 959 1056 
Q 959 750 1161 570 
Q 1363 391 1709 391 
Q 2188 391 2477 730 
Q 2766 1069 2766 1631 
L 2766 1759 
L 2194 1759 
z
M 3341 1997 
L 3341 0 
L 2766 0 
L 2766 531 
Q 2569 213 2275 61 
Q 1981 -91 1556 -91 
Q 1019 -91 701 211 
Q 384 513 384 1019 
Q 384 1609 779 1909 
Q 1175 2209 1959 2209 
L 2766 2209 
L 2766 2266 
Q 2766 2663 2505 2880 
Q 2244 3097 1772 3097 
Q 1472 3097 1187 3025 
Q 903 2953 641 2809 
L 641 3341 
Q 956 3463 1253 3523 
Q 1550 3584 1831 3584 
Q 2591 3584 2966 3190 
Q 3341 2797 3341 1997 
z
" transform="scale(0.015625)"/>
       <path id="DejaVuSans-74" d="M 1172 4494 
L 1172 3500 
L 2356 3500 
L 2356 3053 
L 1172 3053 
L 1172 1153 
Q 1172 725 1289 603 
Q 1406 481 1766 481 
L 2356 481 
L 2356 0 
L 1766 0 
Q 1100 0 847 248 
Q 594 497 594 1153 
L 594 3053 
L 172 3053 
L 172 3500 
L 594 3500 
L 594 4494 
L 1172 4494 
z
" transform="scale(0.015625)"/>
       <path id="DejaVuSans-65" d="M 3597 1894 
L 3597 1613 
L 953 1613 
Q 991 1019 1311 708 
Q 1631 397 2203 397 
Q 2534 397 2845 478 
Q 3156 559 3463 722 
L 3463 178 
Q 3153 47 2828 -22 
Q 2503 -91 2169 -91 
Q 1331 -91 842 396 
Q 353 884 353 1716 
Q 353 2575 817 3079 
Q 1281 3584 2069 3584 
Q 2775 3584 3186 3129 
Q 3597 2675 3597 1894 
z
M 3022 2063 
Q 3016 2534 2758 2815 
Q 2500 3097 2075 3097 
Q 1594 3097 1305 2825 
Q 1016 2553 972 2059 
L 3022 2063 
z
" transform="scale(0.015625)"/>
      </defs>
      <use xlink:href="#DejaVuSans-44"/>
      <use xlink:href="#DejaVuSans-61" x="77.001953"/>
      <use xlink:href="#DejaVuSans-74" x="138.28125"/>
      <use xlink:href="#DejaVuSans-65" x="177.490234"/>
     </g>
    </g>
   </g>
   <g id="matplotlib.axis_2">
    <g id="ytick_1">
     <g id="line2d_15">
      <path d="M 52.88375 258.56324 
L 945.68375 258.56324 
" clip-path="url(#pdb98c14e4f)" style="fill: none; stroke: #546379; stroke-width: 1.12; stroke-linecap: square"/>
     </g>
     <g id="line2d_16"/>
     <g id="text_9">
      <!-- 10000 -->
      <g style="fill: #b1bed6" transform="translate(7.2 263.350256) scale(0.126 -0.126)">
       <use xlink:href="#DejaVuSans-31"/>
       <use xlink:href="#DejaVuSans-30" x="63.623047"/>
       <use xlink:href="#DejaVuSans-30" x="127.246094"/>
       <use xlink:href="#DejaVuSans-30" x="190.869141"/>
       <use xlink:href="#DejaVuSans-30" x="254.492188"/>
      </g>
     </g>
    </g>
    <g id="ytick_2">
     <g id="line2d_17">
      <path d="M 52.88375 215.161403 
L 945.68375 215.161403 
" clip-path="url(#pdb98c14e4f)" style="fill: none; stroke: #546379; stroke-width: 1.12; stroke-linecap: square"/>
     </g>
     <g id="line2d_18"/>
     <g id="text_10">
      <!-- 20000 -->
      <g style="fill: #b1bed6" transform="translate(7.2 219.948418) scale(0.126 -0.126)">
       <use xlink:href="#DejaVuSans-32"/>
       <use xlink:href="#DejaVuSans-30" x="63.623047"/>
       <use xlink:href="#DejaVuSans-30" x="127.246094"/>
       <use xlink:href="#DejaVuSans-30" x="190.869141"/>
       <use xlink:href="#DejaVuSans-30" x="254.492188"/>
      </g>
     </g>
    </g>
    <g id="ytick_3">
     <g id="line2d_19">
      <path d="M 52.88375 171.759565 
L 945.68375 171.759565 
" clip-path="url(#pdb98c14e4f)" style="fill: none; stroke: #546379; stroke-width: 1.12; stroke-linecap: square"/>
     </g>
     <g id="line2d_20"/>
     <g id="text_11">
      <!-- 30000 -->
      <g style="fill: #b1bed6" transform="translate(7.2 176.546581) scale(0.126 -0.126)">
       <use xlink:href="#DejaVuSans-33"/>
       <use xlink:href="#DejaVuSans-30" x="63.623047"/>
       <use xlink:href="#DejaVuSans-30" x="127.246094"/>
       <use xlink:href="#DejaVuSans-30" x="190.869141"/>
       <use xlink:href="#DejaVuSans-30" x="254.492188"/>
      </g>
     </g>
    </g>
    <g id="ytick_4">
     <g id="line2d_21">
      <path d="M 52.88375 128.357727 
L 945.68375 128.357727 
" clip-path="url(#pdb98c14e4f)" style="fill: none; stroke: #546379; stroke-width: 1.12; stroke-linecap: square"/>
     </g>
     <g id="line2d_22"/>
     <g id="text_12">
      <!-- 40000 -->
      <g style="fill: #b1bed6" transform="translate(7.2 133.144743) scale(0.126 -0.126)">
       <use xlink:href="#DejaVuSans-34"/>
       <use xlink:href="#DejaVuSans-30" x="63.623047"/>
       <use xlink:href="#DejaVuSans-30" x="127.246094"/>
       <use xlink:href="#DejaVuSans-30" x="190.869141"/>
       <use xlink:href="#DejaVuSans-30" x="254.492188"/>
      </g>
     </g>
    </g>
    <g id="ytick_5">
     <g id="line2d_23">
      <path d="M 52.88375 84.95589 
L 945.68375 84.95589 
" clip-path="url(#pdb98c14e4f)" style="fill: none; stroke: #546379; stroke-width: 1.12; stroke-linecap: square"/>
     </g>
     <g id="line2d_24"/>
     <g id="text_13">
      <!-- 50000 -->
      <g style="fill: #b1bed6" transform="translate(7.2 89.742905) scale(0.126 -0.126)">
       <defs>
        <path id="DejaVuSans-35" d="M 691 4666 
L 3169 4666 
L 3169 4134 
L 1269 4134 
L 1269 2991 
Q 1406 3038 1543 3061 
Q 1681 3084 1819 3084 
Q 2600 3084 3056 2656 
Q 3513 2228 3513 1497 
Q 3513 744 3044 326 
Q 2575 -91 1722 -91 
Q 1428 -91 1123 -41 
Q 819 9 494 109 
L 494 744 
Q 775 591 1075 516 
Q 1375 441 1709 441 
Q 2250 441 2565 725 
Q 2881 1009 2881 1497 
Q 2881 1984 2565 2268 
Q 2250 2553 1709 2553 
Q 1456 2553 1204 2497 
Q 953 2441 691 2322 
L 691 4666 
z
" transform="scale(0.015625)"/>
       </defs>
       <use xlink:href="#DejaVuSans-35"/>
       <use xlink:href="#DejaVuSans-30" x="63.623047"/>
       <use xlink:href="#DejaVuSans-30" x="127.246094"/>
       <use xlink:href="#DejaVuSans-30" x="190.869141"/>
       <use xlink:href="#DejaVuSans-30" x="254.492188"/>
      </g>
     </g>
    </g>
    <g id="ytick_6">
     <g id="line2d_25">
      <path d="M 52.88375 41.554052 
L 945.68375 41.554052 
" clip-path="url(#pdb98c14e4f)" style="fill: none; stroke: #546379; stroke-width: 1.12; stroke-linecap: square"/>
     </g>
     <g id="line2d_26"/>
     <g id="text_14">
      <!-- 60000 -->
      <g style="fill: #b1bed6" transform="translate(7.2 46.341068) scale(0.126 -0.126)">
       <defs>
        <path id="DejaVuSans-36" d="M 2113 2584 
Q 1688 2584 1439 2293 
Q 1191 2003 1191 1497 
Q 1191 994 1439 701 
Q 1688 409 2113 409 
Q 2538 409 2786 701 
Q 3034 994 3034 1497 
Q 3034 2003 2786 2293 
Q 2538 2584 2113 2584 
z
M 3366 4563 
L 3366 3988 
Q 3128 4100 2886 4159 
Q 2644 4219 2406 4219 
Q 1781 4219 1451 3797 
Q 1122 3375 1075 2522 
Q 1259 2794 1537 2939 
Q 1816 3084 2150 3084 
Q 2853 3084 3261 2657 
Q 3669 2231 3669 1497 
Q 3669 778 3244 343 
Q 2819 -91 2113 -91 
Q 1303 -91 875 529 
Q 447 1150 447 2328 
Q 447 3434 972 4092 
Q 1497 4750 2381 4750 
Q 2619 4750 2861 4703 
Q 3103 4656 3366 4563 
z
" transform="scale(0.015625)"/>
       </defs>
       <use xlink:href="#DejaVuSans-36"/>
       <use xlink:href="#DejaVuSans-30" x="63.623047"/>
       <use xlink:href="#DejaVuSans-30" x="127.246094"/>
       <use xlink:href="#DejaVuSans-30" x="190.869141"/>
       <use xlink:href="#DejaVuSans-30" x="254.492188"/>
      </g>
     </g>
    </g>
   </g>
   <g id="line2d_27">
    <path d="M 93.465568 230.750692 
L 93.465568 219.884434 
L 94.960398 219.884434 
L 94.960398 242.172059 
L 96.455228 242.172059 
L 96.455228 233.91972 
L 97.950058 233.91972 
L 97.950058 247.224337 
L 99.444888 247.224337 
L 99.444888 236.692013 
L 100.939718 236.692013 
L 100.939718 231.684873 
L 102.434548 231.684873 
L 102.434548 244.30335 
L 103.929378 244.30335 
L 103.929378 243.13762 
L 105.424208 243.13762 
L 105.424208 252.02471 
L 106.919038 252.02471 
L 106.919038 254.954421 
L 108.413868 254.954421 
L 108.413868 252.350832 
L 109.908698 252.350832 
L 109.908698 257.677843 
L 111.403528 257.677843 
L 111.403528 266.36663 
L 112.898358 266.36663 
L 112.898358 266.179916 
L 114.393188 266.179916 
L 114.393188 263.356018 
L 115.888018 263.356018 
L 115.888018 257.788257 
L 117.382848 257.788257 
L 117.382848 253.155458 
L 118.877678 253.155458 
L 118.877678 259.866337 
L 120.372508 259.866337 
L 120.372508 257.121692 
L 121.867338 257.121692 
L 121.867338 251.979919 
L 123.362168 251.979919 
L 123.362168 261.495034 
L 124.856998 261.495034 
L 124.856998 262.3392 
L 126.351828 262.3392 
L 126.351828 265.950711 
L 127.846658 265.950711 
L 127.846658 263.294258 
L 129.341488 263.294258 
L 129.341488 264.926991 
L 130.836318 264.926991 
L 130.836318 267.45797 
L 132.331148 267.45797 
L 132.331148 272.3323 
L 133.825978 272.3323 
L 133.825978 272.509726 
L 136.815638 272.519492 
L 136.815638 267.698242 
L 139.805298 267.64642 
L 139.805298 263.204633 
L 141.300128 263.204633 
L 141.300128 263.46704 
L 142.794958 263.46704 
L 142.794958 261.174295 
L 144.289788 261.174295 
L 144.289788 259.633747 
L 145.784617 259.633747 
L 145.784617 261.301202 
L 147.279447 261.301202 
L 147.279447 265.521293 
L 148.774277 265.521293 
L 148.774277 265.199121 
L 150.269107 265.199121 
L 150.269107 266.19298 
L 151.763937 266.19298 
L 151.763937 269.362008 
L 153.258767 269.362008 
L 153.258767 270.088338 
L 154.753597 270.088338 
L 154.753597 269.458577 
L 157.743257 269.433361 
L 157.743257 268.912235 
L 159.238087 268.912235 
L 159.238087 273.523854 
L 160.732917 273.523854 
L 160.732917 273.803014 
L 162.227747 273.803014 
L 162.227747 272.621833 
L 163.722577 272.621833 
L 163.722577 275.242393 
L 165.217407 275.242393 
L 165.217407 276.45287 
L 166.712237 276.45287 
L 166.712237 273.205111 
L 169.701897 273.195779 
L 169.701897 274.494883 
L 171.196727 274.494883 
L 171.196727 274.843964 
L 172.691557 274.843964 
L 172.691557 269.973106 
L 174.186387 269.973106 
L 174.186387 269.818813 
L 175.681217 269.818813 
L 175.681217 267.504844 
L 177.176047 267.504844 
L 177.176047 266.49931 
L 178.670877 266.49931 
L 178.670877 269.783614 
L 180.165707 269.783614 
L 180.165707 272.806725 
L 181.660537 272.806725 
L 181.660537 274.935065 
L 183.155367 274.935065 
L 183.155367 274.749218 
L 184.650197 274.749218 
L 184.650197 273.812129 
L 186.145027 273.812129 
L 186.145027 273.641212 
L 187.639857 273.641212 
L 187.639857 272.012341 
L 189.134687 272.012341 
L 189.134687 271.502283 
L 190.629517 271.502283 
L 190.629517 270.024841 
L 192.124347 270.024841 
L 192.124347 275.125121 
L 193.619177 275.125121 
L 193.619177 274.508902 
L 195.114007 274.508902 
L 195.114007 273.765298 
L 198.103667 273.771157 
L 198.103667 273.391695 
L 199.598497 273.391695 
L 199.598497 273.195476 
L 201.093327 273.195476 
L 201.093327 273.661394 
L 202.588157 273.661394 
L 202.588157 273.434359 
L 205.577817 273.402025 
L 205.577817 274.773132 
L 207.072647 274.773132 
L 207.072647 273.712174 
L 210.062307 273.780402 
L 210.062307 273.874671 
L 211.557137 273.874671 
L 211.557137 274.614933 
L 213.051967 274.614933 
L 213.051967 274.355867 
L 214.546797 274.355867 
L 214.546797 273.594035 
L 216.041627 273.594035 
L 216.041627 274.15088 
L 217.536457 274.15088 
L 217.536457 277.40515 
L 219.031287 277.40515 
L 219.031287 280.920482 
L 220.526117 280.920482 
L 220.526117 283.072345 
L 222.020946 283.072345 
L 222.020946 285.348902 
L 223.515776 285.348902 
L 223.515776 283.787998 
L 225.010606 283.787998 
L 225.010606 285.711177 
L 226.505436 285.711177 
L 226.505436 286.390589 
L 228.000266 286.390589 
L 228.000266 287.607273 
L 229.495096 287.607273 
L 229.495096 286.529041 
L 230.989926 286.529041 
L 230.989926 285.039099 
L 232.484756 285.039099 
L 232.484756 285.378979 
L 233.979586 285.378979 
L 233.979586 285.601023 
L 235.474416 285.601023 
L 235.474416 284.90247 
L 236.969246 284.90247 
L 236.969246 284.292848 
L 238.464076 284.292848 
L 238.464076 286.139683 
L 239.958906 286.139683 
L 239.958906 285.982438 
L 241.453736 285.982438 
L 241.453736 286.228744 
L 242.948566 286.228744 
L 242.948566 286.39532 
L 245.938226 286.443279 
L 245.938226 286.90464 
L 248.927886 286.965316 
L 248.927886 287.231196 
L 250.422716 287.231196 
L 250.422716 286.212511 
L 253.412376 286.304827 
L 253.412376 284.923216 
L 254.907206 284.923216 
L 254.907206 283.998453 
L 256.402036 283.998453 
L 256.402036 285.328155 
L 259.391696 285.4091 
L 259.391696 285.095565 
L 262.381356 285.120434 
L 262.381356 284.879945 
L 263.876186 284.879945 
L 263.876186 284.478 
L 268.360676 284.393801 
L 268.360676 284.108868 
L 269.855506 284.108868 
L 269.855506 280.649394 
L 271.350336 280.649394 
L 271.350336 279.097908 
L 272.845166 279.097908 
L 272.845166 279.947977 
L 274.339996 279.947977 
L 274.339996 279.410662 
L 275.834826 279.410662 
L 275.834826 278.921827 
L 277.329656 278.921827 
L 277.329656 278.379695 
L 278.824486 278.379695 
L 278.824486 278.956505 
L 280.319316 278.956505 
L 280.319316 278.570793 
L 281.814146 278.570793 
L 281.814146 277.293434 
L 283.308976 277.293434 
L 283.308976 274.413505 
L 284.803806 274.413505 
L 284.803806 267.275335 
L 286.298636 267.275335 
L 286.298636 270.433426 
L 287.793466 270.433426 
L 287.793466 268.86714 
L 289.288296 268.86714 
L 289.288296 264.012688 
L 290.783126 264.012688 
L 290.783126 266.061081 
L 292.277956 266.061081 
L 292.277956 266.65803 
L 293.772786 266.65803 
L 293.772786 267.25103 
L 295.267616 267.25103 
L 295.267616 267.601326 
L 296.762445 267.601326 
L 296.762445 263.51335 
L 298.257275 263.51335 
L 298.257275 261.680794 
L 299.752105 261.680794 
L 299.752105 255.028247 
L 301.246935 255.028247 
L 301.246935 253.646463 
L 302.741765 253.646463 
L 302.741765 256.051489 
L 304.236595 256.051489 
L 304.236595 254.41767 
L 305.731425 254.41767 
L 305.731425 247.33614 
L 307.226255 247.33614 
L 307.226255 252.534291 
L 308.721085 252.534291 
L 308.721085 259.976925 
L 310.215915 259.976925 
L 310.215915 256.013773 
L 311.710745 256.013773 
L 311.710745 259.105026 
L 313.205575 259.105026 
L 313.205575 260.72756 
L 314.700405 260.72756 
L 314.700405 256.264896 
L 316.195235 256.264896 
L 316.195235 252.201963 
L 317.690065 252.201963 
L 317.690065 252.99817 
L 319.184895 252.99817 
L 319.184895 258.489631 
L 320.679725 258.489631 
L 320.679725 257.184798 
L 322.174555 257.184798 
L 322.174555 258.077227 
L 323.669385 258.077227 
L 323.669385 256.999559 
L 325.164215 256.999559 
L 325.164215 260.394841 
L 326.659045 260.394841 
L 326.659045 255.866728 
L 328.153875 255.866728 
L 328.153875 256.448659 
L 329.648705 256.448659 
L 329.648705 257.871762 
L 331.143535 257.871762 
L 331.143535 257.215917 
L 332.638365 257.215917 
L 332.638365 257.36587 
L 334.133195 257.36587 
L 334.133195 259.937429 
L 335.628025 259.937429 
L 335.628025 266.402046 
L 337.122855 266.402046 
L 337.122855 265.842076 
L 338.617685 265.842076 
L 338.617685 266.602606 
L 340.112515 266.602606 
L 340.112515 264.691927 
L 341.607345 264.691927 
L 341.607345 266.012037 
L 343.102175 266.012037 
L 343.102175 266.910369 
L 344.597005 266.910369 
L 344.597005 266.27783 
L 346.091835 266.27783 
L 346.091835 264.349617 
L 347.586665 264.349617 
L 347.586665 261.022605 
L 349.081495 261.022605 
L 349.081495 261.596248 
L 350.576325 261.596248 
L 350.576325 261.413265 
L 352.071155 261.413265 
L 352.071155 262.742317 
L 353.565985 262.742317 
L 353.565985 264.499223 
L 355.060815 264.499223 
L 355.060815 266.479779 
L 356.555645 266.479779 
L 356.555645 270.34098 
L 358.050475 270.34098 
L 358.050475 270.873607 
L 359.545305 270.873607 
L 359.545305 269.163184 
L 361.040135 269.163184 
L 361.040135 270.746787 
L 362.534965 270.746787 
L 362.534965 269.316523 
L 364.029795 269.316523 
L 364.029795 270.762803 
L 365.524625 270.762803 
L 365.524625 272.10661 
L 367.019455 272.10661 
L 367.019455 270.758419 
L 368.514285 270.758419 
L 368.514285 270.495751 
L 370.009115 270.495751 
L 370.009115 270.277093 
L 371.503945 270.277093 
L 371.503945 270.821308 
L 372.998774 270.821308 
L 372.998774 270.057913 
L 374.493604 270.057913 
L 374.493604 268.033869 
L 375.988434 268.033869 
L 375.988434 266.786847 
L 377.483264 266.786847 
L 377.483264 263.335967 
L 378.978094 263.335967 
L 378.978094 264.108867 
L 380.472924 264.108867 
L 380.472924 265.822805 
L 381.967754 265.822805 
L 381.967754 261.688997 
L 383.462584 261.688997 
L 383.462584 261.538176 
L 384.957414 261.538176 
L 384.957414 259.623721 
L 386.452244 259.623721 
L 386.452244 259.193478 
L 387.947074 259.193478 
L 387.947074 256.963752 
L 389.441904 256.963752 
L 389.441904 257.779186 
L 390.936734 257.779186 
L 390.936734 259.997107 
L 392.431564 259.997107 
L 392.431564 263.834307 
L 393.926394 263.834307 
L 393.926394 264.925212 
L 395.421224 264.925212 
L 395.421224 262.610939 
L 396.916054 262.610939 
L 396.916054 267.539001 
L 398.410884 267.539001 
L 398.410884 277.620857 
L 399.905714 277.620857 
L 399.905714 278.712066 
L 401.400544 278.712066 
L 401.400544 275.099992 
L 402.895374 275.099992 
L 402.895374 272.892531 
L 404.390204 272.892531 
L 404.390204 276.421317 
L 405.885034 276.421317 
L 405.885034 272.412289 
L 407.379864 272.412289 
L 407.379864 270.094241 
L 408.874694 270.094241 
L 408.874694 272.133953 
L 411.864354 272.139552 
L 411.864354 270.458122 
L 413.359184 270.458122 
L 413.359184 271.015271 
L 414.854014 271.015271 
L 414.854014 268.548831 
L 416.348844 268.548831 
L 416.348844 264.514631 
L 417.843674 264.514631 
L 417.843674 263.398509 
L 419.338504 263.398509 
L 419.338504 259.336661 
L 420.833334 259.336661 
L 420.833334 263.708398 
L 422.328164 263.708398 
L 422.328164 261.229415 
L 423.822994 261.229415 
L 423.822994 260.687022 
L 425.317824 260.687022 
L 425.317824 264.072105 
L 426.812654 264.072105 
L 426.812654 260.432948 
L 428.307484 260.432948 
L 428.307484 257.676845 
L 429.802314 257.676845 
L 429.802314 260.196235 
L 431.297144 260.196235 
L 431.297144 259.539131 
L 432.791974 259.539131 
L 432.791974 260.848347 
L 435.781634 260.929465 
L 435.781634 261.667427 
L 437.276464 261.667427 
L 437.276464 261.858091 
L 438.771294 261.858091 
L 438.771294 262.098971 
L 440.266124 262.098971 
L 440.266124 262.589108 
L 441.760954 262.589108 
L 441.760954 261.791339 
L 444.750614 261.879314 
L 444.750614 262.063555 
L 447.740274 261.97176 
L 447.740274 260.242414 
L 449.235103 260.242414 
L 449.235103 254.039033 
L 450.729933 254.039033 
L 450.729933 252.730554 
L 452.224763 252.730554 
L 452.224763 253.379976 
L 453.719593 253.379976 
L 453.719593 250.891532 
L 455.214423 250.891532 
L 455.214423 251.735654 
L 456.709253 251.735654 
L 456.709253 250.256085 
L 458.204083 250.256085 
L 458.204083 250.465239 
L 459.698913 250.465239 
L 459.698913 250.90746 
L 461.193743 250.90746 
L 461.193743 251.902143 
L 462.688573 251.902143 
L 462.688573 250.215982 
L 464.183403 250.215982 
L 464.183403 257.87046 
L 465.678233 257.87046 
L 465.678233 257.574416 
L 467.173063 257.574416 
L 467.173063 257.127638 
L 468.667893 257.127638 
L 468.667893 254.466584 
L 470.162723 254.466584 
L 470.162723 256.694965 
L 471.657553 256.694965 
L 471.657553 255.556187 
L 473.152383 255.556187 
L 473.152383 254.914014 
L 474.647213 254.914014 
L 474.647213 256.168457 
L 476.142043 256.168457 
L 476.142043 255.651845 
L 477.636873 255.651845 
L 477.636873 252.5885 
L 479.131703 252.5885 
L 479.131703 252.036776 
L 480.626533 252.036776 
L 480.626533 250.932503 
L 482.121363 250.932503 
L 482.121363 245.783482 
L 483.616193 245.783482 
L 483.616193 242.71519 
L 485.111023 242.71519 
L 485.111023 242.025751 
L 486.605853 242.025751 
L 486.605853 240.527216 
L 488.100683 240.527216 
L 488.100683 234.733027 
L 489.595513 234.733027 
L 489.595513 231.23931 
L 491.090343 231.23931 
L 491.090343 229.374853 
L 492.585173 229.374853 
L 492.585173 220.858111 
L 494.080003 220.858111 
L 494.080003 218.752818 
L 495.574833 218.752818 
L 495.574833 225.003117 
L 497.069663 225.003117 
L 497.069663 218.516495 
L 498.564493 218.516495 
L 498.564493 217.862473 
L 500.059323 217.862473 
L 500.059323 222.766446 
L 501.554153 222.766446 
L 501.554153 218.301135 
L 503.048983 218.301135 
L 503.048983 201.486395 
L 504.543813 201.486395 
L 504.543813 198.560243 
L 506.038643 198.560243 
L 506.038643 187.196687 
L 507.533473 187.196687 
L 507.533473 176.722175 
L 509.028303 176.722175 
L 509.028303 158.735628 
L 510.523133 158.735628 
L 510.523133 130.588408 
L 512.017963 130.588408 
L 512.017963 147.693506 
L 513.512793 147.693506 
L 513.512793 142.122533 
L 515.007623 142.122533 
L 515.007623 145.631094 
L 516.502453 145.631094 
L 516.502453 162.646308 
L 517.997283 162.646308 
L 517.997283 169.94029 
L 519.492113 169.94029 
L 519.492113 158.146752 
L 520.986943 158.146752 
L 520.986943 141.369208 
L 522.481773 141.369208 
L 522.481773 100.735496 
L 523.976602 100.735496 
L 523.976602 95.930478 
L 525.471432 95.930478 
L 525.471432 88.60121 
L 526.966262 88.60121 
L 526.966262 58.909579 
L 528.461092 58.909579 
L 528.461092 82.243969 
L 529.955922 82.243969 
L 529.955922 106.162375 
L 531.450752 106.162375 
L 531.450752 91.687905 
L 532.945582 91.687905 
L 532.945582 74.976375 
L 534.440412 74.976375 
L 534.440412 53.475321 
L 535.935242 53.475321 
L 535.935242 55.128497 
L 537.430072 55.128497 
L 537.430072 49.862032 
L 538.924902 49.862032 
L 538.924902 74.06971 
L 540.419732 74.06971 
L 540.419732 59.853525 
L 541.914562 59.853525 
L 541.914562 47.036051 
L 543.409392 47.036051 
L 543.409392 45.659432 
L 544.904222 45.659432 
L 544.904222 49.789203 
L 546.399052 49.789203 
L 546.399052 26.127129 
L 547.893882 26.127129 
L 547.893882 41.176065 
L 549.388712 41.176065 
L 549.388712 68.424998 
L 550.883542 68.424998 
L 550.883542 88.968042 
L 552.378372 88.968042 
L 552.378372 69.40002 
L 553.873202 69.40002 
L 553.873202 53.648712 
L 555.368032 53.648712 
L 555.368032 52.924162 
L 556.862862 52.924162 
L 556.862862 55.659649 
L 558.357692 55.659649 
L 558.357692 99.119732 
L 559.852522 99.119732 
L 559.852522 141.533353 
L 561.347352 141.533353 
L 561.347352 151.123988 
L 562.842182 151.123988 
L 562.842182 135.105454 
L 564.337012 135.105454 
L 564.337012 140.030478 
L 565.831842 140.030478 
L 565.831842 141.875186 
L 567.326672 141.875186 
L 567.326672 156.785106 
L 568.821502 156.785106 
L 568.821502 147.910689 
L 570.316332 147.910689 
L 570.316332 135.628099 
L 571.811162 135.628099 
L 571.811162 147.487738 
L 573.305992 147.487738 
L 573.305992 151.623803 
L 574.800822 151.623803 
L 574.800822 152.416798 
L 576.295652 152.416798 
L 576.295652 155.020084 
L 577.790482 155.020084 
L 577.790482 153.483008 
L 579.285312 153.483008 
L 579.285312 156.501345 
L 580.780142 156.501345 
L 580.780142 159.54364 
L 582.274972 159.54364 
L 582.274972 164.018891 
L 583.769802 164.018891 
L 583.769802 161.7863 
L 585.264632 161.7863 
L 585.264632 139.997493 
L 586.759462 139.997493 
L 586.759462 118.747909 
L 588.254292 118.747909 
L 588.254292 136.439149 
L 589.749122 136.439149 
L 589.749122 108.244751 
L 591.243952 108.244751 
L 591.243952 104.00296 
L 592.738782 104.00296 
L 592.738782 97.731611 
L 594.233612 97.731611 
L 594.233612 99.128109 
L 595.728442 99.128109 
L 595.728442 87.023987 
L 597.223272 87.023987 
L 597.223272 89.049291 
L 598.718102 89.049291 
L 598.718102 97.299936 
L 600.212931 97.299936 
L 600.212931 85.18427 
L 601.707761 85.18427 
L 601.707761 101.976441 
L 604.697421 102.060033 
L 604.697421 94.568268 
L 606.192251 94.568268 
L 606.192251 115.764424 
L 607.687081 115.764424 
L 607.687081 116.137679 
L 609.181911 116.137679 
L 609.181911 123.969107 
L 610.676741 123.969107 
L 610.676741 94.820693 
L 612.171571 94.820693 
L 612.171571 61.762989 
L 613.666401 61.762989 
L 613.666401 64.879328 
L 615.161231 64.879328 
L 615.161231 52.848339 
L 616.656061 52.848339 
L 616.656061 32.996989 
L 618.150891 32.996989 
L 618.150891 38.528683 
L 619.645721 38.528683 
L 619.645721 40.055951 
L 621.140551 40.055951 
L 621.140551 34.039935 
L 622.635381 34.039935 
L 622.635381 28.729416 
L 624.130211 28.729416 
L 624.130211 27.260872 
L 625.625041 27.260872 
L 625.625041 20.552727 
L 627.119871 20.552727 
L 627.119871 25.997748 
L 628.614701 25.997748 
L 628.614701 49.657088 
L 630.109531 49.657088 
L 630.109531 52.065022 
L 631.604361 52.065022 
L 631.604361 64.118016 
L 633.099191 64.118016 
L 633.099191 53.577403 
L 634.594021 53.577403 
L 634.594021 87.644937 
L 636.088851 87.644937 
L 636.088851 95.113308 
L 637.583681 95.113308 
L 637.583681 99.030715 
L 639.078511 99.030715 
L 639.078511 101.563559 
L 640.573341 101.563559 
L 640.573341 89.580052 
L 642.068171 89.580052 
L 642.068171 82.91214 
L 643.563001 82.91214 
L 643.563001 100.542054 
L 645.057831 100.542054 
L 645.057831 96.553425 
L 646.552661 96.553425 
L 646.552661 114.81362 
L 648.047491 114.81362 
L 648.047491 120.332727 
L 649.542321 120.332727 
L 649.542321 114.905892 
L 651.037151 114.905892 
L 651.037151 118.021666 
L 652.531981 118.021666 
L 652.531981 149.748627 
L 654.026811 149.748627 
L 654.026811 142.144321 
L 655.521641 142.144321 
L 655.521641 137.391299 
L 657.016471 137.391299 
L 657.016471 140.977246 
L 658.511301 140.977246 
L 658.511301 111.717376 
L 660.006131 111.717376 
L 660.006131 117.935774 
L 661.500961 117.935774 
L 661.500961 108.669786 
L 662.995791 108.669786 
L 662.995791 127.858389 
L 664.490621 127.858389 
L 664.490621 140.113202 
L 665.985451 140.113202 
L 665.985451 138.320359 
L 667.480281 138.320359 
L 667.480281 117.661778 
L 668.975111 117.661778 
L 668.975111 136.897039 
L 670.469941 136.897039 
L 670.469941 133.821845 
L 671.964771 133.821845 
L 671.964771 131.305493 
L 673.459601 131.305493 
L 673.459601 118.71245 
L 674.954431 118.71245 
L 674.954431 115.749233 
L 676.44926 115.749233 
L 676.44926 98.590447 
L 677.94409 98.590447 
L 677.94409 104.316495 
L 679.43892 104.316495 
L 679.43892 99.663644 
L 680.93375 99.663644 
L 680.93375 118.466709 
L 682.42858 118.466709 
L 682.42858 127.914161 
L 683.92341 127.914161 
L 683.92341 126.670351 
L 685.41824 126.670351 
L 685.41824 122.386546 
L 686.91307 122.386546 
L 686.91307 130.677252 
L 688.4079 130.677252 
L 688.4079 129.355796 
L 689.90273 129.355796 
L 689.90273 134.82178 
L 691.39756 134.82178 
L 691.39756 145.66191 
L 692.89239 145.66191 
L 692.89239 167.402324 
L 694.38722 167.402324 
L 694.38722 171.435744 
L 695.88205 171.435744 
L 695.88205 177.484398 
L 697.37688 177.484398 
L 697.37688 170.548914 
L 698.87171 170.548914 
L 698.87171 175.2581 
L 700.36654 175.2581 
L 700.36654 164.313633 
L 701.86137 164.313633 
L 701.86137 173.140785 
L 703.3562 173.140785 
L 703.3562 166.907977 
L 704.85103 166.907977 
L 704.85103 178.944739 
L 706.34586 178.944739 
L 706.34586 204.090505 
L 707.84069 204.090505 
L 707.84069 212.816054 
L 709.33552 212.816054 
L 709.33552 210.437981 
L 710.83035 210.437981 
L 710.83035 212.113595 
L 712.32518 212.113595 
L 712.32518 218.517667 
L 713.82001 218.517667 
L 713.82001 214.37188 
L 715.31484 214.37188 
L 715.31484 208.292628 
L 716.80967 208.292628 
L 716.80967 214.190547 
L 718.3045 214.190547 
L 718.3045 211.801102 
L 719.79933 211.801102 
L 719.79933 201.472072 
L 721.29416 201.472072 
L 721.29416 209.516039 
L 722.78899 209.516039 
L 722.78899 198.703426 
L 724.28382 198.703426 
L 724.28382 202.219973 
L 725.77865 202.219973 
L 725.77865 202.370056 
L 727.27348 202.370056 
L 727.27348 197.974622 
L 728.76831 197.974622 
L 728.76831 196.433987 
L 730.26314 196.433987 
L 730.26314 201.298899 
L 731.75797 201.298899 
L 731.75797 209.072429 
L 733.2528 209.072429 
L 733.2528 214.148751 
L 734.74763 214.148751 
L 734.74763 216.059734 
L 736.24246 216.059734 
L 736.24246 215.877793 
L 737.73729 215.877793 
L 737.73729 218.285988 
L 739.23212 218.285988 
L 739.23212 207.372856 
L 740.72695 207.372856 
L 740.72695 216.486504 
L 742.22178 216.486504 
L 742.22178 217.148339 
L 743.71661 217.148339 
L 743.71661 218.283818 
L 745.21144 218.283818 
L 745.21144 219.046345 
L 746.70627 219.046345 
L 746.70627 218.135774 
L 748.2011 218.135774 
L 748.2011 214.433163 
L 749.69593 214.433163 
L 749.69593 217.583746 
L 751.190759 217.583746 
L 751.190759 217.837864 
L 752.685589 217.837864 
L 752.685589 217.118956 
L 754.180419 217.118956 
L 754.180419 218.757939 
L 755.675249 218.757939 
L 755.675249 214.721872 
L 757.170079 214.721872 
L 757.170079 211.619118 
L 758.664909 211.619118 
L 758.664909 214.493058 
L 760.159739 214.493058 
L 760.159739 211.167001 
L 761.654569 211.167001 
L 761.654569 225.793855 
L 763.149399 225.793855 
L 763.149399 229.970283 
L 764.644229 229.970283 
L 764.644229 229.556837 
L 766.139059 229.556837 
L 766.139059 231.676887 
L 767.633889 231.676887 
L 767.633889 230.553995 
L 769.128719 230.553995 
L 769.128719 227.441432 
L 770.623549 227.441432 
L 770.623549 227.671679 
L 772.118379 227.671679 
L 772.118379 227.163834 
L 773.613209 227.163834 
L 773.613209 227.2841 
L 775.108039 227.2841 
L 775.108039 229.754837 
L 776.602869 229.754837 
L 776.602869 228.595834 
L 778.097699 228.595834 
L 778.097699 228.88463 
L 779.592529 228.88463 
L 779.592529 230.181563 
L 781.087359 230.181563 
L 781.087359 229.858524 
L 782.582189 229.858524 
L 782.582189 228.935366 
L 784.077019 228.935366 
L 784.077019 227.348335 
L 785.571849 227.348335 
L 785.571849 215.450633 
L 787.066679 215.450633 
L 787.066679 210.191111 
L 788.561509 210.191111 
L 788.561509 203.128243 
L 790.056339 203.128243 
L 790.056339 201.751363 
L 791.551169 201.751363 
L 791.551169 198.860323 
L 793.045999 198.860323 
L 793.045999 200.168628 
L 794.540829 200.168628 
L 794.540829 203.166263 
L 796.035659 203.166263 
L 796.035659 208.049795 
L 797.530489 208.049795 
L 797.530489 205.561784 
L 799.025319 205.561784 
L 799.025319 195.01453 
L 800.520149 195.01453 
L 800.520149 196.994826 
L 802.014979 196.994826 
L 802.014979 199.69685 
L 803.509809 199.69685 
L 803.509809 200.112423 
L 805.004639 200.112423 
L 805.004639 204.698869 
L 806.499469 204.698869 
L 806.499469 214.185512 
L 807.994299 214.185512 
L 807.994299 194.46975 
L 809.489129 194.46975 
L 809.489129 184.886928 
L 810.983959 184.886928 
L 810.983959 183.450631 
L 812.478789 183.450631 
L 812.478789 180.440627 
L 813.973619 180.440627 
L 813.973619 180.296446 
L 815.468449 180.296446 
L 815.468449 181.298291 
L 816.963279 181.298291 
L 816.963279 180.763059 
L 818.458109 180.763059 
L 818.458109 170.739709 
L 819.952939 170.739709 
L 819.952939 170.373657 
L 821.447769 170.373657 
L 821.447769 176.839446 
L 822.942599 176.839446 
L 822.942599 182.217021 
L 824.437429 182.217021 
L 824.437429 174.014941 
L 825.932259 174.014941 
L 825.932259 180.063856 
L 827.427088 180.063856 
L 827.427088 173.776101 
L 828.921918 173.776101 
L 828.921918 182.002008 
L 830.416748 182.002008 
L 830.416748 185.709176 
L 831.911578 185.709176 
L 831.911578 183.051551 
L 833.406408 183.051551 
L 833.406408 185.836647 
L 834.901238 185.836647 
L 834.901238 187.048774 
L 836.396068 187.048774 
L 836.396068 181.548155 
L 837.890898 181.548155 
L 837.890898 183.686694 
L 840.880558 183.722674 
L 840.880558 189.759088 
L 842.375388 189.759088 
L 842.375388 192.909107 
L 843.870218 192.909107 
L 843.870218 187.657311 
L 845.365048 187.657311 
L 845.365048 172.177394 
L 846.859878 172.177394 
L 846.859878 170.602038 
L 848.354708 170.602038 
L 848.354708 169.713168 
L 849.849538 169.713168 
L 849.849538 168.396487 
L 851.344368 168.396487 
L 851.344368 170.828379 
L 852.839198 170.828379 
L 852.839198 170.059775 
L 854.334028 170.059775 
L 854.334028 170.716706 
L 855.828858 170.716706 
L 855.828858 172.617663 
L 857.323688 172.617663 
L 857.323688 175.325373 
L 858.818518 175.325373 
L 858.818518 174.72773 
L 860.313348 174.72773 
L 860.313348 173.132756 
L 861.808178 173.132756 
L 861.808178 175.891377 
L 863.303008 175.891377 
L 863.303008 173.643986 
L 864.797838 173.643986 
L 864.797838 174.867831 
L 866.292668 174.867831 
L 866.292668 186.246881 
L 867.787498 186.246881 
L 867.787498 188.584678 
L 869.282328 188.584678 
L 869.282328 188.905808 
L 870.777158 188.905808 
L 870.777158 181.606444 
L 872.271988 181.606444 
L 872.271988 189.688474 
L 873.766818 189.688474 
L 873.766818 190.19098 
L 875.261648 190.19098 
L 875.261648 189.845892 
L 876.756478 189.845892 
L 876.756478 186.793875 
L 878.251308 186.793875 
L 878.251308 185.805441 
L 879.746138 185.805441 
L 879.746138 186.594921 
L 881.240968 186.594921 
L 881.240968 188.196622 
L 882.735798 188.196622 
L 882.735798 184.908456 
L 884.230628 184.908456 
L 884.230628 181.318559 
L 885.725458 181.318559 
L 885.725458 180.712583 
L 887.220288 180.712583 
L 887.220288 185.827576 
L 888.715118 185.827576 
L 888.715118 178.194669 
L 890.209948 178.194669 
L 890.209948 173.137139 
L 891.704778 173.137139 
L 891.704778 154.821347 
L 893.199608 154.821347 
L 893.199608 154.005262 
L 894.694438 154.005262 
L 894.694438 148.146752 
L 896.189268 148.146752 
L 896.189268 149.848798 
L 897.684098 149.848798 
L 897.684098 142.696609 
L 899.178928 142.696609 
L 899.178928 143.559872 
L 900.673758 143.559872 
L 900.673758 143.008886 
L 902.168588 143.008886 
L 902.168588 146.547654 
L 903.663417 146.547654 
L 903.663417 139.45613 
L 905.101932 139.45613 
L 905.101932 139.45613 
" clip-path="url(#pdb98c14e4f)" style="fill: none; stroke: #3572c6; stroke-width: 1.2; stroke-linecap: square"/>
   </g>
   <g id="patch_3">
    <path d="M 52.88375 300.96 
L 52.88375 7.2 
" style="fill: none; stroke: #899ab8; stroke-width: 1.12; stroke-linejoin: miter; stroke-linecap: square"/>
   </g>
   <g id="patch_4">
    <path d="M 945.68375 300.96 
L 945.68375 7.2 
" style="fill: none; stroke: #899ab8; stroke-width: 1.12; stroke-linejoin: miter; stroke-linecap: square"/>
   </g>
   <g id="patch_5">
    <path d="M 52.88375 300.96 
L 945.68375 300.96 
" style="fill: none; stroke: #899ab8; stroke-width: 1.12; stroke-linejoin: miter; stroke-linecap: square"/>
   </g>
   <g id="patch_6">
    <path d="M 52.88375 7.2 
L 945.68375 7.2 
" style="fill: none; stroke: #899ab8; stroke-width: 1.12; stroke-linejoin: miter; stroke-linecap: square"/>
   </g>
  </g>
 </g>
 <defs>
  <clipPath id="pdb98c14e4f">
   <rect x="52.88375" y="7.2" width="892.8" height="293.76"/>
  </clipPath>
 </defs>
</svg>
