<?xml version="1.0" encoding="utf-8" standalone="no"?>
<!DOCTYPE svg PUBLIC "-//W3C//DTD SVG 1.1//EN"
  "http://www.w3.org/Graphics/SVG/1.1/DTD/svg11.dtd">
<svg xmlns:xlink="http://www.w3.org/1999/xlink" width="934.976pt" height="358.290693pt" viewBox="0 0 934.976 358.290693" xmlns="http://www.w3.org/2000/svg" version="1.1">
 <metadata>
  <rdf:RDF xmlns:dc="http://purl.org/dc/elements/1.1/" xmlns:cc="http://creativecommons.org/ns#" xmlns:rdf="http://www.w3.org/1999/02/22-rdf-syntax-ns#">
   <cc:Work>
    <dc:type rdf:resource="http://purl.org/dc/dcmitype/StillImage"/>
    <dc:date>2026-03-14T20:56:50.464746</dc:date>
    <dc:format>image/svg+xml</dc:format>
    <dc:creator>
     <cc:Agent>
      <dc:title>Matplotlib v3.10.8, https://matplotlib.org/</dc:title>
     </cc:Agent>
    </dc:creator>
   </cc:Work>
  </rdf:RDF>
 </metadata>
 <defs>
  <style type="text/css">*{stroke-linejoin: round; stroke-linecap: butt}</style>
 </defs>
 <g id="figure_1">
  <g id="patch_1">
   <path d="M 0 358.290693 
L 934.976 358.290693 
L 934.976 0 
L 0 0 
z
" style="fill: #373e4b"/>
  </g>
  <g id="axes_1">
   <g id="patch_2">
    <path d="M 34.976 300.96 
L 927.776 300.96 
L 927.776 7.2 
L 34.976 7.2 
z
" style="fill: #373e4b"/>
   </g>
   <g id="matplotlib.axis_1">
    <g id="xtick_1">
     <g id="line2d_1">
      <path d="M 137.024902 300.96 
L 137.024902 7.2 
" clip-path="url(#p9f97196c2f)" style="fill: none; stroke: #546379; stroke-width: 1.12; stroke-linecap: square"/>
     </g>
     <g id="line2d_2"/>
     <g id="text_1">
      <!-- 2012 -->
      <g style="fill: #b1bed6" transform="translate(107.943862 330.884854) rotate(-30) scale(0.126 -0.126)">
       <defs>
        <path id="DejaVuSans-32" d="M 1228 531 
L 3431 531 
L 3431 0 
L 469 0 
L 469 531 
Q 828 903 1448 1529 
Q 2069 2156 2228 2338 
Q 2531 2678 2651 2914 
Q 2772 3150 2772 3378 
Q 2772 3750 2511 3984 
Q 2250 4219 1831 4219 
Q 1534 4219 1204 4116 
Q 875 4013 500 3803 
L 500 4441 
Q 881 4594 1212 4672 
Q 1544 4750 1819 4750 
Q 2544 4750 2975 4387 
Q 3406 4025 3406 3419 
Q 3406 3131 3298 2873 
Q 3191 2616 2906 2266 
Q 2828 2175 2409 1742 
Q 1991 1309 1228 531 
z
" transform="scale(0.015625)"/>
        <path id="DejaVuSans-30" d="M 2034 4250 
Q 1547 4250 1301 3770 
Q 1056 3291 1056 2328 
Q 1056 1369 1301 889 
Q 1547 409 2034 409 
Q 2525 409 2770 889 
Q 3016 1369 3016 2328 
Q 3016 3291 2770 3770 
Q 2525 4250 2034 4250 
z
M 2034 4750 
Q 2819 4750 3233 4129 
Q 3647 3509 3647 2328 
Q 3647 1150 3233 529 
Q 2819 -91 2034 -91 
Q 1250 -91 836 529 
Q 422 1150 422 2328 
Q 422 3509 836 4129 
Q 1250 4750 2034 4750 
z
" transform="scale(0.015625)"/>
        <path id="DejaVuSans-31" d="M 794 531 
L 1825 531 
L 1825 4091 
L 703 3866 
L 703 4441 
L 1819 4666 
L 2450 4666 
L 2450 531 
L 3481 531 
L 3481 0 
L 794 0 
L 794 531 
z
" transform="scale(0.015625)"/>
       </defs>
       <use xlink:href="#DejaVuSans-32"/>
       <use xlink:href="#DejaVuSans-30" transform="translate(63.623047 0)"/>
       <use xlink:href="#DejaVuSans-31" transform="translate(127.246094 0)"/>
       <use xlink:href="#DejaVuSans-32" transform="translate(190.869141 0)"/>
      </g>
     </g>
    </g>
    <g id="xtick_2">
     <g id="line2d_3">
      <path d="M 242.748285 300.96 
L 242.748285 7.2 
" clip-path="url(#p9f97196c2f)" style="fill: none; stroke: #546379; stroke-width: 1.12; stroke-linecap: square"/>
     </g>
     <g id="line2d_4"/>
     <g id="text_2">
      <!-- 2014 -->
      <g style="fill: #b1bed6" transform="translate(213.667246 330.884854) rotate(-30) scale(0.126 -0.126)">
       <defs>
        <path id="DejaVuSans-34" d="M 2419 4116 
L 825 1625 
L 2419 1625 
L 2419 4116 
z
M 2253 4666 
L 3047 4666 
L 3047 1625 
L 3713 1625 
L 3713 1100 
L 3047 1100 
L 3047 0 
L 2419 0 
L 2419 1100 
L 313 1100 
L 313 1709 
L 2253 4666 
z
" transform="scale(0.015625)"/>
       </defs>
       <use xlink:href="#DejaVuSans-32"/>
       <use xlink:href="#DejaVuSans-30" transform="translate(63.623047 0)"/>
       <use xlink:href="#DejaVuSans-31" transform="translate(127.246094 0)"/>
       <use xlink:href="#DejaVuSans-34" transform="translate(190.869141 0)"/>
      </g>
     </g>
    </g>
    <g id="xtick_3">
     <g id="line2d_5">
      <path d="M 348.327041 300.96 
L 348.327041 7.2 
" clip-path="url(#p9f97196c2f)" style="fill: none; stroke: #546379; stroke-width: 1.12; stroke-linecap: square"/>
     </g>
     <g id="line2d_6"/>
     <g id="text_3">
      <!-- 2016 -->
      <g style="fill: #b1bed6" transform="translate(319.246001 330.884854) rotate(-30) scale(0.126 -0.126)">
       <defs>
        <path id="DejaVuSans-36" d="M 2113 2584 
Q 1688 2584 1439 2293 
Q 1191 2003 1191 1497 
Q 1191 994 1439 701 
Q 1688 409 2113 409 
Q 2538 409 2786 701 
Q 3034 994 3034 1497 
Q 3034 2003 2786 2293 
Q 2538 2584 2113 2584 
z
M 3366 4563 
L 3366 3988 
Q 3128 4100 2886 4159 
Q 2644 4219 2406 4219 
Q 1781 4219 1451 3797 
Q 1122 3375 1075 2522 
Q 1259 2794 1537 2939 
Q 1816 3084 2150 3084 
Q 2853 3084 3261 2657 
Q 3669 2231 3669 1497 
Q 3669 778 3244 343 
Q 2819 -91 2113 -91 
Q 1303 -91 875 529 
Q 447 1150 447 2328 
Q 447 3434 972 4092 
Q 1497 4750 2381 4750 
Q 2619 4750 2861 4703 
Q 3103 4656 3366 4563 
z
" transform="scale(0.015625)"/>
       </defs>
       <use xlink:href="#DejaVuSans-32"/>
       <use xlink:href="#DejaVuSans-30" transform="translate(63.623047 0)"/>
       <use xlink:href="#DejaVuSans-31" transform="translate(127.246094 0)"/>
       <use xlink:href="#DejaVuSans-36" transform="translate(190.869141 0)"/>
      </g>
     </g>
    </g>
    <g id="xtick_4">
     <g id="line2d_7">
      <path d="M 454.050424 300.96 
L 454.050424 7.2 
" clip-path="url(#p9f97196c2f)" style="fill: none; stroke: #546379; stroke-width: 1.12; stroke-linecap: square"/>
     </g>
     <g id="line2d_8"/>
     <g id="text_4">
      <!-- 2018 -->
      <g style="fill: #b1bed6" transform="translate(424.969385 330.884854) rotate(-30) scale(0.126 -0.126)">
       <defs>
        <path id="DejaVuSans-38" d="M 2034 2216 
Q 1584 2216 1326 1975 
Q 1069 1734 1069 1313 
Q 1069 891 1326 650 
Q 1584 409 2034 409 
Q 2484 409 2743 651 
Q 3003 894 3003 1313 
Q 3003 1734 2745 1975 
Q 2488 2216 2034 2216 
z
M 1403 2484 
Q 997 2584 770 2862 
Q 544 3141 544 3541 
Q 544 4100 942 4425 
Q 1341 4750 2034 4750 
Q 2731 4750 3128 4425 
Q 3525 4100 3525 3541 
Q 3525 3141 3298 2862 
Q 3072 2584 2669 2484 
Q 3125 2378 3379 2068 
Q 3634 1759 3634 1313 
Q 3634 634 3220 271 
Q 2806 -91 2034 -91 
Q 1263 -91 848 271 
Q 434 634 434 1313 
Q 434 1759 690 2068 
Q 947 2378 1403 2484 
z
M 1172 3481 
Q 1172 3119 1398 2916 
Q 1625 2713 2034 2713 
Q 2441 2713 2670 2916 
Q 2900 3119 2900 3481 
Q 2900 3844 2670 4047 
Q 2441 4250 2034 4250 
Q 1625 4250 1398 4047 
Q 1172 3844 1172 3481 
z
" transform="scale(0.015625)"/>
       </defs>
       <use xlink:href="#DejaVuSans-32"/>
       <use xlink:href="#DejaVuSans-30" transform="translate(63.623047 0)"/>
       <use xlink:href="#DejaVuSans-31" transform="translate(127.246094 0)"/>
       <use xlink:href="#DejaVuSans-38" transform="translate(190.869141 0)"/>
      </g>
     </g>
    </g>
    <g id="xtick_5">
     <g id="line2d_9">
      <path d="M 559.62918 300.96 
L 559.62918 7.2 
" clip-path="url(#p9f97196c2f)" style="fill: none; stroke: #546379; stroke-width: 1.12; stroke-linecap: square"/>
     </g>
     <g id="line2d_10"/>
     <g id="text_5">
      <!-- 2020 -->
      <g style="fill: #b1bed6" transform="translate(530.54814 330.884854) rotate(-30) scale(0.126 -0.126)">
       <use xlink:href="#DejaVuSans-32"/>
       <use xlink:href="#DejaVuSans-30" transform="translate(63.623047 0)"/>
       <use xlink:href="#DejaVuSans-32" transform="translate(127.246094 0)"/>
       <use xlink:href="#DejaVuSans-30" transform="translate(190.869141 0)"/>
      </g>
     </g>
    </g>
    <g id="xtick_6">
     <g id="line2d_11">
      <path d="M 665.352563 300.96 
L 665.352563 7.2 
" clip-path="url(#p9f97196c2f)" style="fill: none; stroke: #546379; stroke-width: 1.12; stroke-linecap: square"/>
     </g>
     <g id="line2d_12"/>
     <g id="text_6">
      <!-- 2022 -->
      <g style="fill: #b1bed6" transform="translate(636.271524 330.884854) rotate(-30) scale(0.126 -0.126)">
       <use xlink:href="#DejaVuSans-32"/>
       <use xlink:href="#DejaVuSans-30" transform="translate(63.623047 0)"/>
       <use xlink:href="#DejaVuSans-32" transform="translate(127.246094 0)"/>
       <use xlink:href="#DejaVuSans-32" transform="translate(190.869141 0)"/>
      </g>
     </g>
    </g>
    <g id="xtick_7">
     <g id="line2d_13">
      <path d="M 770.931319 300.96 
L 770.931319 7.2 
" clip-path="url(#p9f97196c2f)" style="fill: none; stroke: #546379; stroke-width: 1.12; stroke-linecap: square"/>
     </g>
     <g id="line2d_14"/>
     <g id="text_7">
      <!-- 2024 -->
      <g style="fill: #b1bed6" transform="translate(741.850279 330.884854) rotate(-30) scale(0.126 -0.126)">
       <use xlink:href="#DejaVuSans-32"/>
       <use xlink:href="#DejaVuSans-30" transform="translate(63.623047 0)"/>
       <use xlink:href="#DejaVuSans-32" transform="translate(127.246094 0)"/>
       <use xlink:href="#DejaVuSans-34" transform="translate(190.869141 0)"/>
      </g>
     </g>
    </g>
    <g id="xtick_8">
     <g id="line2d_15">
      <path d="M 876.654703 300.96 
L 876.654703 7.2 
" clip-path="url(#p9f97196c2f)" style="fill: none; stroke: #546379; stroke-width: 1.12; stroke-linecap: square"/>
     </g>
     <g id="line2d_16"/>
     <g id="text_8">
      <!-- 2026 -->
      <g style="fill: #b1bed6" transform="translate(847.573663 330.884854) rotate(-30) scale(0.126 -0.126)">
       <use xlink:href="#DejaVuSans-32"/>
       <use xlink:href="#DejaVuSans-30" transform="translate(63.623047 0)"/>
       <use xlink:href="#DejaVuSans-32" transform="translate(127.246094 0)"/>
       <use xlink:href="#DejaVuSans-36" transform="translate(190.869141 0)"/>
      </g>
     </g>
    </g>
    <g id="text_9">
     <!-- Date -->
     <g style="fill: #b1bed6" transform="translate(464.166875 348.095943) scale(0.144 -0.144)">
      <defs>
       <path id="DejaVuSans-44" d="M 1259 4147 
L 1259 519 
L 2022 519 
Q 2988 519 3436 956 
Q 3884 1394 3884 2338 
Q 3884 3275 3436 3711 
Q 2988 4147 2022 4147 
L 1259 4147 
z
M 628 4666 
L 1925 4666 
Q 3281 4666 3915 4102 
Q 4550 3538 4550 2338 
Q 4550 1131 3912 565 
Q 3275 0 1925 0 
L 628 0 
L 628 4666 
z
" transform="scale(0.015625)"/>
       <path id="DejaVuSans-61" d="M 2194 1759 
Q 1497 1759 1228 1600 
Q 959 1441 959 1056 
Q 959 750 1161 570 
Q 1363 391 1709 391 
Q 2188 391 2477 730 
Q 2766 1069 2766 1631 
L 2766 1759 
L 2194 1759 
z
M 3341 1997 
L 3341 0 
L 2766 0 
L 2766 531 
Q 2569 213 2275 61 
Q 1981 -91 1556 -91 
Q 1019 -91 701 211 
Q 384 513 384 1019 
Q 384 1609 779 1909 
Q 1175 2209 1959 2209 
L 2766 2209 
L 2766 2266 
Q 2766 2663 2505 2880 
Q 2244 3097 1772 3097 
Q 1472 3097 1187 3025 
Q 903 2953 641 2809 
L 641 3341 
Q 956 3463 1253 3523 
Q 1550 3584 1831 3584 
Q 2591 3584 2966 3190 
Q 3341 2797 3341 1997 
z
" transform="scale(0.015625)"/>
       <path id="DejaVuSans-74" d="M 1172 4494 
L 1172 3500 
L 2356 3500 
L 2356 3053 
L 1172 3053 
L 1172 1153 
Q 1172 725 1289 603 
Q 1406 481 1766 481 
L 2356 481 
L 2356 0 
L 1766 0 
Q 1100 0 847 248 
Q 594 497 594 1153 
L 594 3053 
L 172 3053 
L 172 3500 
L 594 3500 
L 594 4494 
L 1172 4494 
z
" transform="scale(0.015625)"/>
       <path id="DejaVuSans-65" d="M 3597 1894 
L 3597 1613 
L 953 1613 
Q 991 1019 1311 708 
Q 1631 397 2203 397 
Q 2534 397 2845 478 
Q 3156 559 3463 722 
L 3463 178 
Q 3153 47 2828 -22 
Q 2503 -91 2169 -91 
Q 1331 -91 842 396 
Q 353 884 353 1716 
Q 353 2575 817 3079 
Q 1281 3584 2069 3584 
Q 2775 3584 3186 3129 
Q 3597 2675 3597 1894 
z
M 3022 2063 
Q 3016 2534 2758 2815 
Q 2500 3097 2075 3097 
Q 1594 3097 1305 2825 
Q 1016 2553 972 2059 
L 3022 2063 
z
" transform="scale(0.015625)"/>
      </defs>
      <use xlink:href="#DejaVuSans-44"/>
      <use xlink:href="#DejaVuSans-61" transform="translate(77.001953 0)"/>
      <use xlink:href="#DejaVuSans-74" transform="translate(138.28125 0)"/>
      <use xlink:href="#DejaVuSans-65" transform="translate(177.490234 0)"/>
     </g>
    </g>
   </g>
   <g id="matplotlib.axis_2">
    <g id="ytick_1">
     <g id="line2d_17">
      <path d="M 34.976 255.37232 
L 927.776 255.37232 
" clip-path="url(#p9f97196c2f)" style="fill: none; stroke: #546379; stroke-width: 1.12; stroke-linecap: square"/>
     </g>
     <g id="line2d_18"/>
     <g id="text_10">
      <!-- $\mathdefault{10^{0}}$ -->
      <g style="fill: #b1bed6" transform="translate(7.2 260.159335) scale(0.126 -0.126)">
       <use xlink:href="#DejaVuSans-31" transform="translate(0 0.765625)"/>
       <use xlink:href="#DejaVuSans-30" transform="translate(63.623047 0.765625)"/>
       <use xlink:href="#DejaVuSans-30" transform="translate(128.203125 39.046875) scale(0.7)"/>
      </g>
     </g>
    </g>
    <g id="ytick_2">
     <g id="line2d_19">
      <path d="M 34.976 209.254528 
L 927.776 209.254528 
" clip-path="url(#p9f97196c2f)" style="fill: none; stroke: #546379; stroke-width: 1.12; stroke-linecap: square"/>
     </g>
     <g id="line2d_20"/>
     <g id="text_11">
      <!-- $\mathdefault{10^{1}}$ -->
      <g style="fill: #b1bed6" transform="translate(7.2 214.041544) scale(0.126 -0.126)">
       <use xlink:href="#DejaVuSans-31" transform="translate(0 0.684375)"/>
       <use xlink:href="#DejaVuSans-30" transform="translate(63.623047 0.684375)"/>
       <use xlink:href="#DejaVuSans-31" transform="translate(128.203125 38.965625) scale(0.7)"/>
      </g>
     </g>
    </g>
    <g id="ytick_3">
     <g id="line2d_21">
      <path d="M 34.976 163.136737 
L 927.776 163.136737 
" clip-path="url(#p9f97196c2f)" style="fill: none; stroke: #546379; stroke-width: 1.12; stroke-linecap: square"/>
     </g>
     <g id="line2d_22"/>
     <g id="text_12">
      <!-- $\mathdefault{10^{2}}$ -->
      <g style="fill: #b1bed6" transform="translate(7.2 167.923752) scale(0.126 -0.126)">
       <use xlink:href="#DejaVuSans-31" transform="translate(0 0.765625)"/>
       <use xlink:href="#DejaVuSans-30" transform="translate(63.623047 0.765625)"/>
       <use xlink:href="#DejaVuSans-32" transform="translate(128.203125 39.046875) scale(0.7)"/>
      </g>
     </g>
    </g>
    <g id="ytick_4">
     <g id="line2d_23">
      <path d="M 34.976 117.018945 
L 927.776 117.018945 
" clip-path="url(#p9f97196c2f)" style="fill: none; stroke: #546379; stroke-width: 1.12; stroke-linecap: square"/>
     </g>
     <g id="line2d_24"/>
     <g id="text_13">
      <!-- $\mathdefault{10^{3}}$ -->
      <g style="fill: #b1bed6" transform="translate(7.2 121.805961) scale(0.126 -0.126)">
       <defs>
        <path id="DejaVuSans-33" d="M 2597 2516 
Q 3050 2419 3304 2112 
Q 3559 1806 3559 1356 
Q 3559 666 3084 287 
Q 2609 -91 1734 -91 
Q 1441 -91 1130 -33 
Q 819 25 488 141 
L 488 750 
Q 750 597 1062 519 
Q 1375 441 1716 441 
Q 2309 441 2620 675 
Q 2931 909 2931 1356 
Q 2931 1769 2642 2001 
Q 2353 2234 1838 2234 
L 1294 2234 
L 1294 2753 
L 1863 2753 
Q 2328 2753 2575 2939 
Q 2822 3125 2822 3475 
Q 2822 3834 2567 4026 
Q 2313 4219 1838 4219 
Q 1578 4219 1281 4162 
Q 984 4106 628 3988 
L 628 4550 
Q 988 4650 1302 4700 
Q 1616 4750 1894 4750 
Q 2613 4750 3031 4423 
Q 3450 4097 3450 3541 
Q 3450 3153 3228 2886 
Q 3006 2619 2597 2516 
z
" transform="scale(0.015625)"/>
       </defs>
       <use xlink:href="#DejaVuSans-31" transform="translate(0 0.765625)"/>
       <use xlink:href="#DejaVuSans-30" transform="translate(63.623047 0.765625)"/>
       <use xlink:href="#DejaVuSans-33" transform="translate(128.203125 39.046875) scale(0.7)"/>
      </g>
     </g>
    </g>
    <g id="ytick_5">
     <g id="line2d_25">
      <path d="M 34.976 70.901154 
L 927.776 70.901154 
" clip-path="url(#p9f97196c2f)" style="fill: none; stroke: #546379; stroke-width: 1.12; stroke-linecap: square"/>
     </g>
     <g id="line2d_26"/>
     <g id="text_14">
      <!-- $\mathdefault{10^{4}}$ -->
      <g style="fill: #b1bed6" transform="translate(7.2 75.688169) scale(0.126 -0.126)">
       <use xlink:href="#DejaVuSans-31" transform="translate(0 0.684375)"/>
       <use xlink:href="#DejaVuSans-30" transform="translate(63.623047 0.684375)"/>
       <use xlink:href="#DejaVuSans-34" transform="translate(128.203125 38.965625) scale(0.7)"/>
      </g>
     </g>
    </g>
    <g id="ytick_6">
     <g id="line2d_27">
      <path d="M 34.976 24.783362 
L 927.776 24.783362 
" clip-path="url(#p9f97196c2f)" style="fill: none; stroke: #546379; stroke-width: 1.12; stroke-linecap: square"/>
     </g>
     <g id="line2d_28"/>
     <g id="text_15">
      <!-- $\mathdefault{10^{5}}$ -->
      <g style="fill: #b1bed6" transform="translate(7.2 29.570378) scale(0.126 -0.126)">
       <defs>
        <path id="DejaVuSans-35" d="M 691 4666 
L 3169 4666 
L 3169 4134 
L 1269 4134 
L 1269 2991 
Q 1406 3038 1543 3061 
Q 1681 3084 1819 3084 
Q 2600 3084 3056 2656 
Q 3513 2228 3513 1497 
Q 3513 744 3044 326 
Q 2575 -91 1722 -91 
Q 1428 -91 1123 -41 
Q 819 9 494 109 
L 494 744 
Q 775 591 1075 516 
Q 1375 441 1709 441 
Q 2250 441 2565 725 
Q 2881 1009 2881 1497 
Q 2881 1984 2565 2268 
Q 2250 2553 1709 2553 
Q 1456 2553 1204 2497 
Q 953 2441 691 2322 
L 691 4666 
z
" transform="scale(0.015625)"/>
       </defs>
       <use xlink:href="#DejaVuSans-31" transform="translate(0 0.684375)"/>
       <use xlink:href="#DejaVuSans-30" transform="translate(63.623047 0.684375)"/>
       <use xlink:href="#DejaVuSans-35" transform="translate(128.203125 38.965625) scale(0.7)"/>
      </g>
     </g>
    </g>
    <g id="ytick_7">
     <g id="line2d_29"/>
    </g>
    <g id="ytick_8">
     <g id="line2d_30"/>
    </g>
    <g id="ytick_9">
     <g id="line2d_31"/>
    </g>
    <g id="ytick_10">
     <g id="line2d_32"/>
    </g>
    <g id="ytick_11">
     <g id="line2d_33"/>
    </g>
    <g id="ytick_12">
     <g id="line2d_34"/>
    </g>
    <g id="ytick_13">
     <g id="line2d_35"/>
    </g>
    <g id="ytick_14">
     <g id="line2d_36"/>
    </g>
    <g id="ytick_15">
     <g id="line2d_37"/>
    </g>
    <g id="ytick_16">
     <g id="line2d_38"/>
    </g>
    <g id="ytick_17">
     <g id="line2d_39"/>
    </g>
    <g id="ytick_18">
     <g id="line2d_40"/>
    </g>
    <g id="ytick_19">
     <g id="line2d_41"/>
    </g>
    <g id="ytick_20">
     <g id="line2d_42"/>
    </g>
    <g id="ytick_21">
     <g id="line2d_43"/>
    </g>
    <g id="ytick_22">
     <g id="line2d_44"/>
    </g>
    <g id="ytick_23">
     <g id="line2d_45"/>
    </g>
    <g id="ytick_24">
     <g id="line2d_46"/>
    </g>
    <g id="ytick_25">
     <g id="line2d_47"/>
    </g>
    <g id="ytick_26">
     <g id="line2d_48"/>
    </g>
    <g id="ytick_27">
     <g id="line2d_49"/>
    </g>
    <g id="ytick_28">
     <g id="line2d_50"/>
    </g>
    <g id="ytick_29">
     <g id="line2d_51"/>
    </g>
    <g id="ytick_30">
     <g id="line2d_52"/>
    </g>
    <g id="ytick_31">
     <g id="line2d_53"/>
    </g>
    <g id="ytick_32">
     <g id="line2d_54"/>
    </g>
    <g id="ytick_33">
     <g id="line2d_55"/>
    </g>
    <g id="ytick_34">
     <g id="line2d_56"/>
    </g>
    <g id="ytick_35">
     <g id="line2d_57"/>
    </g>
    <g id="ytick_36">
     <g id="line2d_58"/>
    </g>
    <g id="ytick_37">
     <g id="line2d_59"/>
    </g>
    <g id="ytick_38">
     <g id="line2d_60"/>
    </g>
    <g id="ytick_39">
     <g id="line2d_61"/>
    </g>
    <g id="ytick_40">
     <g id="line2d_62"/>
    </g>
    <g id="ytick_41">
     <g id="line2d_63"/>
    </g>
    <g id="ytick_42">
     <g id="line2d_64"/>
    </g>
    <g id="ytick_43">
     <g id="line2d_65"/>
    </g>
    <g id="ytick_44">
     <g id="line2d_66"/>
    </g>
    <g id="ytick_45">
     <g id="line2d_67"/>
    </g>
    <g id="ytick_46">
     <g id="line2d_68"/>
    </g>
    <g id="ytick_47">
     <g id="line2d_69"/>
    </g>
    <g id="ytick_48">
     <g id="line2d_70"/>
    </g>
    <g id="ytick_49">
     <g id="line2d_71"/>
    </g>
    <g id="ytick_50">
     <g id="line2d_72"/>
    </g>
    <g id="ytick_51">
     <g id="line2d_73"/>
    </g>
    <g id="ytick_52">
     <g id="line2d_74"/>
    </g>
    <g id="ytick_53">
     <g id="line2d_75"/>
    </g>
    <g id="ytick_54">
     <g id="line2d_76"/>
    </g>
    <g id="ytick_55">
     <g id="line2d_77"/>
    </g>
   </g>
   <g id="line2d_78">
    <path d="M 75.557818 287.607273 
L 75.557818 283.137997 
L 76.136332 283.137997 
L 76.136332 278.19371 
L 76.714846 278.19371 
L 76.714846 279.486333 
L 77.293359 279.486333 
L 77.293359 280.86817 
L 77.871873 280.86817 
L 77.871873 280.165337 
L 78.450387 280.165337 
L 78.450387 280.86817 
L 79.607414 280.86817 
L 79.607414 282.352457 
L 80.185928 282.352457 
L 80.185928 284.808022 
L 81.342955 284.808022 
L 81.342955 283.137997 
L 81.921469 283.137997 
L 81.921469 282.352457 
L 82.499983 282.352457 
L 82.499983 283.137997 
L 83.078497 283.137997 
L 83.078497 281.596567 
L 83.65701 281.596567 
L 83.65701 279.486333 
L 84.814038 279.486333 
L 84.814038 278.19371 
L 85.392552 278.19371 
L 85.392552 275.834669 
L 85.971065 275.834669 
L 85.971065 273.724434 
L 86.549579 273.724434 
L 86.549579 274.751772 
L 87.128093 274.751772 
L 87.128093 271.815495 
L 87.706606 271.815495 
L 87.706606 271.365393 
L 88.28512 271.365393 
L 88.28512 257.042345 
L 89.442148 257.042345 
L 89.442148 255.982378 
L 90.020661 255.982378 
L 90.020661 253.83089 
L 90.599175 253.83089 
L 90.599175 254.395116 
L 91.177689 254.395116 
L 91.177689 257.932656 
L 91.756203 257.932656 
L 91.756203 255.37232 
L 92.334716 255.37232 
L 92.334716 255.982378 
L 92.91323 255.982378 
L 92.91323 257.042345 
L 93.491744 257.042345 
L 93.491744 257.932656 
L 94.070257 257.932656 
L 94.070257 257.26124 
L 94.648771 257.26124 
L 94.648771 258.161558 
L 95.227285 258.161558 
L 95.227285 260.093532 
L 95.805799 260.093532 
L 95.805799 257.706341 
L 96.384312 257.706341 
L 96.384312 259.841596 
L 97.54134 259.841596 
L 97.54134 261.134218 
L 98.119854 261.134218 
L 98.119854 260.868934 
L 98.698367 260.868934 
L 98.698367 255.776954 
L 99.276881 255.776954 
L 99.276881 251.720656 
L 99.855395 251.720656 
L 99.855395 248.921405 
L 100.433908 248.921405 
L 100.433908 243.823502 
L 101.012422 243.823502 
L 101.012422 226.917627 
L 101.590936 226.917627 
L 101.590936 229.940664 
L 102.16945 229.940664 
L 102.16945 228.062436 
L 102.747963 228.062436 
L 102.747963 217.729074 
L 103.326477 217.729074 
L 103.326477 212.580386 
L 103.904991 212.580386 
L 103.904991 216.455571 
L 104.483505 216.455571 
L 104.483505 215.640255 
L 105.062018 215.640255 
L 105.062018 212.089863 
L 105.640532 212.089863 
L 105.640532 209.926627 
L 106.219046 209.926627 
L 106.219046 196.34639 
L 106.797559 196.34639 
L 106.797559 185.746445 
L 107.376073 185.746445 
L 107.376073 192.005794 
L 107.954587 192.005794 
L 107.954587 196.536537 
L 108.533101 196.536537 
L 108.533101 200.619497 
L 109.111614 200.619497 
L 109.111614 197.954799 
L 109.690128 197.954799 
L 109.690128 198.218565 
L 110.268642 198.218565 
L 110.268642 200.169105 
L 110.847156 200.169105 
L 110.847156 199.716176 
L 111.425669 199.716176 
L 111.425669 201.040338 
L 112.004183 201.040338 
L 112.004183 202.160926 
L 112.582697 202.160926 
L 112.582697 201.757417 
L 113.16121 201.757417 
L 113.16121 202.615821 
L 113.739724 202.615821 
L 113.739724 202.372872 
L 114.318238 202.372872 
L 114.318238 201.702393 
L 114.896752 201.702393 
L 114.896752 206.455278 
L 115.475265 206.455278 
L 115.475265 209.94735 
L 116.053779 209.94735 
L 116.053779 209.395222 
L 116.632293 209.395222 
L 116.632293 206.700602 
L 117.210807 206.700602 
L 117.210807 206.024537 
L 117.78932 206.024537 
L 117.78932 206.806668 
L 118.367834 206.806668 
L 118.367834 210.324077 
L 118.946348 210.324077 
L 118.946348 212.604047 
L 119.524861 212.604047 
L 119.524861 213.058992 
L 120.103375 213.058992 
L 120.103375 217.097011 
L 120.681889 217.097011 
L 120.681889 218.861295 
L 121.260403 218.861295 
L 121.260403 223.057412 
L 121.838916 223.057412 
L 121.838916 218.893678 
L 122.41743 218.893678 
L 122.41743 221.264877 
L 122.995944 221.264877 
L 122.995944 223.379165 
L 123.574458 223.379165 
L 123.574458 222.898453 
L 124.152971 222.898453 
L 124.152971 223.996748 
L 124.731485 223.996748 
L 124.731485 226.821103 
L 125.309999 226.821103 
L 125.309999 227.556633 
L 125.888512 227.556633 
L 125.888512 236.311847 
L 126.467026 236.311847 
L 126.467026 231.338582 
L 127.04554 231.338582 
L 127.04554 232.711804 
L 127.624054 232.711804 
L 127.624054 230.97985 
L 128.202567 230.97985 
L 128.202567 231.951129 
L 128.781081 231.951129 
L 128.781081 232.138606 
L 129.359595 232.138606 
L 129.359595 232.647299 
L 129.938109 232.647299 
L 129.938109 236.234665 
L 130.516622 236.234665 
L 130.516622 237.424839 
L 131.095136 237.424839 
L 131.095136 237.181079 
L 131.67365 237.181079 
L 131.67365 235.928878 
L 132.252163 235.928878 
L 132.252163 232.455022 
L 132.830677 232.455022 
L 132.830677 232.97192 
L 133.409191 232.97192 
L 133.409191 232.583001 
L 133.987705 232.583001 
L 133.987705 231.703858 
L 134.566218 231.703858 
L 134.566218 231.098715 
L 135.144732 231.098715 
L 135.144732 227.707037 
L 135.723246 227.707037 
L 135.723246 226.39241 
L 136.30176 226.39241 
L 136.30176 225.381573 
L 136.880273 225.381573 
L 136.880273 221.707518 
L 137.458787 221.707518 
L 137.458787 216.227322 
L 138.037301 216.227322 
L 138.037301 216.114165 
L 138.615814 216.114165 
L 138.615814 216.284141 
L 139.194328 216.284141 
L 139.194328 218.287185 
L 139.772842 218.287185 
L 139.772842 217.975205 
L 140.351356 217.975205 
L 140.351356 220.513041 
L 140.929869 220.513041 
L 140.929869 220.689506 
L 141.508383 220.689506 
L 141.508383 219.519112 
L 142.086897 219.519112 
L 142.086897 220.027052 
L 143.243924 220.095761 
L 143.243924 224.206915 
L 143.822438 224.206915 
L 143.822438 225.247601 
L 144.400952 225.247601 
L 144.400952 222.467712 
L 144.979465 222.467712 
L 144.979465 223.217642 
L 145.557979 223.217642 
L 145.557979 223.913295 
L 146.136493 223.913295 
L 146.136493 222.938075 
L 146.715007 222.938075 
L 146.715007 223.217642 
L 147.29352 223.217642 
L 147.29352 221.448123 
L 147.872034 221.448123 
L 147.872034 222.236609 
L 148.450548 222.236609 
L 148.450548 223.913295 
L 149.029062 223.913295 
L 149.029062 224.080551 
L 149.607575 224.080551 
L 149.607575 223.379165 
L 150.764603 223.298241 
L 150.764603 223.954978 
L 151.343116 223.954978 
L 151.343116 223.257901 
L 152.500144 223.177464 
L 152.500144 222.198349 
L 153.078658 222.198349 
L 153.078658 222.390381 
L 153.657171 222.390381 
L 153.657171 222.780056 
L 154.235685 222.780056 
L 154.235685 222.429009 
L 154.814199 222.429009 
L 154.814199 222.740746 
L 155.971226 222.740746 
L 155.971226 222.938075 
L 156.54974 222.938075 
L 156.54974 222.623275 
L 158.285281 222.545342 
L 158.285281 222.429009 
L 158.863795 222.429009 
L 158.863795 222.084008 
L 159.442309 222.084008 
L 159.442309 221.011116 
L 160.599336 220.939199 
L 160.599336 218.604102 
L 161.17785 218.604102 
L 161.17785 217.698519 
L 161.756364 217.698519 
L 161.756364 217.455744 
L 162.334877 217.455744 
L 162.334877 217.637549 
L 162.913391 217.637549 
L 162.913391 217.245703 
L 163.491905 217.245703 
L 163.491905 217.097011 
L 164.070419 217.097011 
L 164.070419 216.455571 
L 164.648932 216.455571 
L 164.648932 214.102908 
L 165.227446 214.102908 
L 165.227446 210.345215 
L 165.80596 210.345215 
L 165.80596 210.218718 
L 166.384473 210.218718 
L 166.384473 211.814865 
L 166.962987 211.814865 
L 166.962987 211.476343 
L 167.541501 211.476343 
L 167.541501 209.015614 
L 168.120015 209.015614 
L 168.120015 206.931125 
L 168.698528 206.931125 
L 168.698528 206.281868 
L 169.277042 206.281868 
L 169.277042 205.108303 
L 169.855556 205.108303 
L 169.855556 201.840237 
L 170.43407 201.840237 
L 170.43407 208.740437 
L 171.012583 208.740437 
L 171.012583 207.363805 
L 171.591097 207.363805 
L 171.591097 207.510134 
L 172.169611 207.510134 
L 172.169611 208.239211 
L 172.748124 208.239211 
L 172.748124 206.859912 
L 173.905152 206.913298 
L 173.905152 205.87171 
L 174.483666 205.87171 
L 174.483666 204.57803 
L 175.062179 204.57803 
L 175.062179 205.140897 
L 175.640693 205.140897 
L 175.640693 204.849447 
L 176.219207 204.849447 
L 176.219207 204.657477 
L 176.797721 204.657477 
L 176.797721 204.045986 
L 177.376234 204.045986 
L 177.376234 205.108303 
L 177.954748 205.108303 
L 177.954748 205.43665 
L 178.533262 205.43665 
L 178.533262 205.636273 
L 179.111775 205.636273 
L 179.111775 205.939489 
L 179.690289 205.939489 
L 179.690289 206.351052 
L 180.268803 206.351052 
L 180.268803 207.473452 
L 180.847317 207.473452 
L 180.847317 207.236638 
L 181.42583 207.236638 
L 181.42583 207.400287 
L 182.582858 207.436836 
L 182.582858 207.218538 
L 183.161372 207.218538 
L 183.161372 205.905571 
L 183.739885 205.905571 
L 183.739885 205.075763 
L 184.318399 205.075763 
L 184.318399 204.593894 
L 185.475426 204.530512 
L 185.475426 203.86153 
L 186.05394 203.86153 
L 186.05394 203.169779 
L 186.632454 203.169779 
L 186.632454 202.803614 
L 187.210968 202.803614 
L 187.210968 203.051876 
L 188.367995 202.949278 
L 188.367995 203.318141 
L 188.946509 203.318141 
L 188.946509 203.022509 
L 189.525023 203.022509 
L 189.525023 203.214173 
L 190.68205 203.184566 
L 190.68205 202.529737 
L 191.260564 202.529737 
L 191.260564 202.076772 
L 191.839077 202.076772 
L 191.839077 200.438123 
L 192.417591 200.438123 
L 192.417591 198.474155 
L 192.996105 198.474155 
L 192.996105 196.8899 
L 193.574619 196.8899 
L 193.574619 195.593226 
L 194.153132 195.593226 
L 194.153132 194.394486 
L 194.731646 194.394486 
L 194.731646 193.895273 
L 195.31016 193.895273 
L 195.31016 191.745077 
L 195.888674 191.745077 
L 195.888674 189.21317 
L 196.467187 189.21317 
L 196.467187 189.375826 
L 197.045701 189.375826 
L 197.045701 186.90656 
L 197.624215 186.90656 
L 197.624215 186.46521 
L 198.202728 186.46521 
L 198.202728 184.597163 
L 198.781242 184.597163 
L 198.781242 180.511647 
L 199.359756 180.511647 
L 199.359756 178.864525 
L 199.93827 178.864525 
L 199.93827 178.318608 
L 200.516783 178.318608 
L 200.516783 176.187869 
L 201.095297 176.187869 
L 201.095297 170.209069 
L 201.673811 170.209069 
L 201.673811 167.911261 
L 202.252325 167.911261 
L 202.252325 164.698205 
L 202.830838 164.698205 
L 202.830838 157.728444 
L 203.409352 157.728444 
L 203.409352 153.314284 
L 203.987866 153.314284 
L 203.987866 158.68349 
L 204.566379 158.68349 
L 204.566379 170.831623 
L 205.144893 170.831623 
L 205.144893 159.666147 
L 205.723407 159.666147 
L 205.723407 156.043135 
L 206.301921 156.043135 
L 206.301921 158.114365 
L 206.880434 158.114365 
L 206.880434 159.992155 
L 207.458948 159.992155 
L 207.458948 160.16753 
L 208.037462 160.16753 
L 208.037462 160.743898 
L 208.615976 160.743898 
L 208.615976 159.823395 
L 209.194489 159.823395 
L 209.194489 158.938472 
L 210.351517 159.039422 
L 210.351517 157.577651 
L 211.508544 157.530665 
L 211.508544 159.085179 
L 212.087058 159.085179 
L 212.087058 159.657728 
L 212.665572 159.657728 
L 212.665572 161.9508 
L 213.244085 161.9508 
L 213.244085 163.140743 
L 213.822599 163.140743 
L 213.822599 161.708753 
L 214.401113 161.708753 
L 214.401113 161.530504 
L 214.979627 161.530504 
L 214.979627 162.351197 
L 215.55814 162.351197 
L 215.55814 163.695241 
L 216.136654 163.695241 
L 216.136654 167.596001 
L 216.715168 167.596001 
L 216.715168 168.504633 
L 217.293681 168.504633 
L 217.293681 164.378152 
L 217.872195 164.378152 
L 217.872195 163.736474 
L 218.450709 163.736474 
L 218.450709 165.383183 
L 219.029223 165.383183 
L 219.029223 164.267648 
L 219.607736 164.267648 
L 219.607736 163.398817 
L 220.18625 163.398817 
L 220.18625 162.232149 
L 220.764764 162.232149 
L 220.764764 161.834102 
L 221.343278 161.834102 
L 221.343278 162.583641 
L 221.921791 162.583641 
L 221.921791 161.3465 
L 222.500305 161.3465 
L 222.500305 163.194904 
L 223.078819 163.194904 
L 223.078819 161.149656 
L 223.657332 161.149656 
L 223.657332 160.639309 
L 224.235846 160.639309 
L 224.235846 159.737009 
L 224.81436 159.737009 
L 224.81436 157.86806 
L 225.392874 157.86806 
L 225.392874 159.888004 
L 225.971387 159.888004 
L 225.971387 159.150729 
L 226.549901 159.150729 
L 226.549901 158.820261 
L 227.128415 158.820261 
L 227.128415 158.330623 
L 227.706929 158.330623 
L 227.706929 159.001913 
L 228.285442 159.001913 
L 228.285442 158.72362 
L 228.863956 158.72362 
L 228.863956 158.468169 
L 229.44247 158.468169 
L 229.44247 159.163865 
L 230.020983 159.163865 
L 230.020983 158.808962 
L 230.599497 158.808962 
L 230.599497 158.256707 
L 231.178011 158.256707 
L 231.178011 156.658265 
L 231.756525 156.658265 
L 231.756525 150.694477 
L 232.335038 150.694477 
L 232.335038 149.727115 
L 232.913552 149.727115 
L 232.913552 148.57456 
L 233.492066 148.57456 
L 233.492066 148.955699 
L 234.07058 148.955699 
L 234.07058 144.578193 
L 234.649093 144.578193 
L 234.649093 139.224019 
L 235.227607 139.224019 
L 235.227607 135.724665 
L 235.806121 135.724665 
L 235.806121 131.929122 
L 236.384634 131.929122 
L 236.384634 123.688509 
L 236.963148 123.688509 
L 236.963148 121.126976 
L 237.541662 121.126976 
L 237.541662 114.501195 
L 238.120176 114.501195 
L 238.120176 116.037736 
L 238.698689 116.037736 
L 238.698689 123.994292 
L 239.277203 123.994292 
L 239.277203 119.650419 
L 239.855717 119.650419 
L 239.855717 119.97045 
L 240.434231 119.97045 
L 240.434231 124.587763 
L 241.012744 124.587763 
L 241.012744 125.341484 
L 241.591258 125.341484 
L 241.591258 123.488046 
L 242.169772 123.488046 
L 242.169772 123.267395 
L 242.748285 123.267395 
L 242.748285 120.781313 
L 243.326799 120.781313 
L 243.326799 120.913218 
L 243.905313 120.913218 
L 243.905313 120.41492 
L 244.483827 120.41492 
L 244.483827 121.063393 
L 245.06234 121.063393 
L 245.06234 120.803802 
L 245.640854 120.803802 
L 245.640854 121.99479 
L 246.219368 121.99479 
L 246.219368 121.852022 
L 246.797882 121.852022 
L 246.797882 121.065109 
L 247.376395 121.065109 
L 247.376395 121.969642 
L 247.954909 121.969642 
L 247.954909 124.527356 
L 248.533423 124.527356 
L 248.533423 126.919059 
L 249.111936 126.919059 
L 249.111936 126.274188 
L 249.69045 126.274188 
L 249.69045 127.946397 
L 250.268964 127.946397 
L 250.268964 128.649132 
L 250.847478 128.649132 
L 250.847478 128.366202 
L 251.425991 128.366202 
L 251.425991 125.019077 
L 252.004505 125.019077 
L 252.004505 125.960627 
L 253.161533 125.925914 
L 253.161533 126.441804 
L 253.740046 126.441804 
L 253.740046 128.176165 
L 254.31856 128.176165 
L 254.31856 127.730173 
L 254.897074 127.730173 
L 254.897074 131.306418 
L 255.475587 131.306418 
L 255.475587 133.502218 
L 256.054101 133.502218 
L 256.054101 132.65908 
L 256.632615 132.65908 
L 256.632615 136.986733 
L 257.211129 136.986733 
L 257.211129 132.58749 
L 257.789642 132.58749 
L 257.789642 131.631546 
L 258.368156 131.631546 
L 258.368156 131.367004 
L 258.94667 131.367004 
L 258.94667 132.507473 
L 259.525184 132.507473 
L 259.525184 132.92187 
L 260.103697 132.92187 
L 260.103697 133.610609 
L 261.260725 133.571209 
L 261.260725 133.350906 
L 261.839238 133.350906 
L 261.839238 133.051224 
L 262.417752 133.051224 
L 262.417752 131.38341 
L 262.996266 131.38341 
L 262.996266 129.81387 
L 263.57478 129.81387 
L 263.57478 127.894621 
L 264.153293 127.894621 
L 264.153293 126.250357 
L 264.731807 126.250357 
L 264.731807 125.296318 
L 265.310321 125.296318 
L 265.310321 125.68367 
L 265.888835 125.68367 
L 265.888835 127.534196 
L 266.467348 127.534196 
L 266.467348 126.984835 
L 267.045862 126.984835 
L 267.045862 127.554182 
L 267.624376 127.554182 
L 267.624376 128.604794 
L 268.202889 128.604794 
L 268.202889 127.250453 
L 268.781403 127.250453 
L 268.781403 125.790765 
L 269.359917 125.790765 
L 269.359917 126.453349 
L 269.938431 126.453349 
L 269.938431 126.146152 
L 270.516944 126.146152 
L 270.516944 126.462333 
L 271.095458 126.462333 
L 271.095458 126.272916 
L 271.673972 126.272916 
L 271.673972 126.579496 
L 272.252486 126.579496 
L 272.252486 127.462208 
L 272.830999 127.462208 
L 272.830999 127.858802 
L 273.409513 127.858802 
L 273.409513 127.63773 
L 274.56654 127.6214 
L 274.56654 128.312275 
L 275.145054 128.312275 
L 275.145054 129.967354 
L 275.723568 129.967354 
L 275.723568 130.161745 
L 276.302082 130.161745 
L 276.302082 130.582678 
L 277.459109 130.638739 
L 277.459109 131.871859 
L 278.037623 131.871859 
L 278.037623 131.474298 
L 278.616137 131.474298 
L 278.616137 131.998816 
L 279.19465 131.998816 
L 279.19465 131.848327 
L 279.773164 131.848327 
L 279.773164 132.839184 
L 280.351678 132.839184 
L 280.351678 135.31356 
L 280.930191 135.31356 
L 280.930191 134.867219 
L 281.508705 134.867219 
L 281.508705 136.724127 
L 282.087219 136.724127 
L 282.087219 137.542587 
L 282.665733 137.542587 
L 282.665733 138.979109 
L 283.244246 138.979109 
L 283.244246 137.373098 
L 283.82276 137.373098 
L 283.82276 135.631111 
L 284.401274 135.631111 
L 284.401274 135.906922 
L 284.979788 135.906922 
L 284.979788 137.637682 
L 285.558301 137.637682 
L 285.558301 137.994084 
L 286.136815 137.994084 
L 286.136815 138.756714 
L 286.715329 138.756714 
L 286.715329 139.210064 
L 287.293842 139.210064 
L 287.293842 138.221398 
L 287.872356 138.221398 
L 287.872356 134.384797 
L 288.45087 134.384797 
L 288.45087 135.88482 
L 289.029384 135.88482 
L 289.029384 137.678656 
L 289.607897 137.678656 
L 289.607897 136.686127 
L 290.186411 136.686127 
L 290.186411 136.558209 
L 290.764925 136.558209 
L 290.764925 136.418436 
L 291.343439 136.418436 
L 291.343439 136.661012 
L 291.921952 136.661012 
L 291.921952 138.114882 
L 292.500466 138.114882 
L 292.500466 137.604067 
L 293.07898 137.604067 
L 293.07898 140.330735 
L 293.657493 140.330735 
L 293.657493 139.104206 
L 294.236007 139.104206 
L 294.236007 139.227661 
L 294.814521 139.227661 
L 294.814521 140.411716 
L 295.393035 140.411716 
L 295.393035 142.153972 
L 295.971548 142.153972 
L 295.971548 141.267602 
L 296.550062 141.267602 
L 296.550062 143.266944 
L 297.128576 143.266944 
L 297.128576 148.256676 
L 297.70709 148.256676 
L 297.70709 147.711541 
L 298.285603 147.711541 
L 298.285603 146.134154 
L 298.864117 146.134154 
L 298.864117 143.729744 
L 299.442631 143.729744 
L 299.442631 147.413355 
L 300.021144 147.413355 
L 300.021144 146.743214 
L 300.599658 146.743214 
L 300.599658 146.990332 
L 301.178172 146.990332 
L 301.178172 147.133952 
L 301.756686 147.133952 
L 301.756686 146.066566 
L 302.335199 146.066566 
L 302.335199 145.125593 
L 302.913713 145.125593 
L 302.913713 145.607242 
L 303.492227 145.607242 
L 303.492227 144.506165 
L 304.070741 144.506165 
L 304.070741 143.238742 
L 304.649254 143.238742 
L 304.649254 142.875683 
L 305.227768 142.875683 
L 305.227768 141.476374 
L 305.806282 141.476374 
L 305.806282 141.861751 
L 306.384796 141.861751 
L 306.384796 143.837962 
L 306.963309 143.837962 
L 306.963309 145.189256 
L 307.541823 145.189256 
L 307.541823 144.548875 
L 308.120337 144.548875 
L 308.120337 145.067818 
L 308.69885 145.067818 
L 308.69885 143.959065 
L 309.277364 143.959065 
L 309.277364 145.353427 
L 309.855878 145.353427 
L 309.855878 147.072788 
L 311.012905 147.106045 
L 311.012905 145.951593 
L 311.591419 145.951593 
L 311.591419 146.780354 
L 312.748447 146.839743 
L 312.748447 145.646513 
L 313.32696 145.646513 
L 313.32696 145.840654 
L 313.905474 145.840654 
L 313.905474 145.52311 
L 314.483988 145.52311 
L 314.483988 145.822927 
L 315.062501 145.822927 
L 315.062501 146.333104 
L 315.641015 146.333104 
L 315.641015 145.790046 
L 316.219529 145.790046 
L 316.219529 145.997503 
L 316.798043 145.997503 
L 316.798043 146.599727 
L 317.376556 146.599727 
L 317.376556 147.084466 
L 317.95507 147.084466 
L 317.95507 146.659462 
L 318.533584 146.659462 
L 318.533584 146.489511 
L 319.112098 146.489511 
L 319.112098 144.786225 
L 319.690611 144.786225 
L 319.690611 145.209704 
L 320.269125 145.209704 
L 320.269125 145.58555 
L 320.847639 145.58555 
L 320.847639 144.899515 
L 321.426152 144.899515 
L 321.426152 144.413151 
L 322.004666 144.413151 
L 322.004666 143.352536 
L 322.58318 143.352536 
L 322.58318 142.165919 
L 323.161694 142.165919 
L 323.161694 141.956134 
L 323.740207 141.956134 
L 323.740207 142.749355 
L 324.897235 142.660533 
L 324.897235 141.618141 
L 325.475749 141.618141 
L 325.475749 141.919299 
L 326.054262 141.919299 
L 326.054262 142.434841 
L 326.632776 142.434841 
L 326.632776 142.563496 
L 327.21129 142.563496 
L 327.21129 143.170627 
L 327.789803 143.170627 
L 327.789803 143.889226 
L 328.368317 143.889226 
L 328.368317 146.783894 
L 328.946831 146.783894 
L 328.946831 146.617278 
L 329.525345 146.617278 
L 329.525345 146.885067 
L 330.103858 146.885067 
L 330.103858 146.432889 
L 331.260886 146.391179 
L 331.260886 145.253943 
L 331.8394 145.253943 
L 331.8394 146.046931 
L 332.417913 146.046931 
L 332.417913 146.600604 
L 332.996427 146.600604 
L 332.996427 146.44072 
L 333.574941 146.44072 
L 333.574941 146.109317 
L 334.153454 146.109317 
L 334.153454 145.674132 
L 334.731968 145.674132 
L 334.731968 145.789204 
L 335.310482 145.789204 
L 335.310482 145.042645 
L 336.467509 145.130483 
L 336.467509 144.58771 
L 337.046023 144.58771 
L 337.046023 143.919127 
L 337.624537 143.919127 
L 337.624537 142.92308 
L 338.203051 142.92308 
L 338.203051 142.04188 
L 338.781564 142.04188 
L 338.781564 139.335396 
L 339.360078 139.335396 
L 339.360078 135.146995 
L 339.938592 135.146995 
L 339.938592 136.03177 
L 340.517105 136.03177 
L 340.517105 140.54223 
L 341.095619 140.54223 
L 341.095619 139.904907 
L 341.674133 139.904907 
L 341.674133 139.474419 
L 342.252647 139.474419 
L 342.252647 139.623699 
L 342.83116 139.623699 
L 342.83116 137.592875 
L 343.409674 137.592875 
L 343.409674 137.338267 
L 343.988188 137.338267 
L 343.988188 136.035393 
L 344.566702 136.035393 
L 344.566702 134.561942 
L 345.145215 134.561942 
L 345.145215 133.765289 
L 345.723729 133.765289 
L 345.723729 132.721275 
L 346.302243 132.721275 
L 346.302243 133.537369 
L 346.880756 133.537369 
L 346.880756 132.768707 
L 347.45927 132.768707 
L 347.45927 133.772685 
L 348.616298 133.794425 
L 348.616298 133.957068 
L 349.194811 133.957068 
L 349.194811 133.082018 
L 349.773325 133.082018 
L 349.773325 133.943542 
L 350.351839 133.943542 
L 350.351839 136.111106 
L 350.930353 136.111106 
L 350.930353 136.319493 
L 351.508866 136.319493 
L 351.508866 135.793073 
L 352.08738 135.793073 
L 352.08738 136.578408 
L 352.665894 136.578408 
L 352.665894 137.016065 
L 353.244407 137.016065 
L 353.244407 136.663682 
L 353.822921 136.663682 
L 353.822921 136.503031 
L 354.401435 136.503031 
L 354.401435 135.410655 
L 354.979949 135.410655 
L 354.979949 134.39481 
L 356.136976 134.429653 
L 356.136976 133.848648 
L 356.71549 133.848648 
L 356.71549 134.274991 
L 357.294004 134.274991 
L 357.294004 135.088159 
L 357.872517 135.088159 
L 357.872517 134.58552 
L 359.029545 134.634206 
L 359.029545 134.976402 
L 359.608058 134.976402 
L 359.608058 134.566752 
L 360.765086 134.539353 
L 360.765086 134.694626 
L 361.3436 134.694626 
L 361.3436 134.465036 
L 362.500627 134.39624 
L 362.500627 134.268829 
L 363.079141 134.268829 
L 363.079141 133.948205 
L 363.657655 133.948205 
L 363.657655 133.647329 
L 364.236168 133.647329 
L 364.236168 132.926744 
L 364.814682 132.926744 
L 364.814682 133.222757 
L 365.393196 133.222757 
L 365.393196 132.878937 
L 365.971709 132.878937 
L 365.971709 133.040078 
L 366.550223 133.040078 
L 366.550223 132.543093 
L 367.128737 132.543093 
L 367.128737 132.754641 
L 367.707251 132.754641 
L 367.707251 132.8754 
L 368.285764 132.8754 
L 368.285764 133.316532 
L 368.864278 133.316532 
L 368.864278 133.069963 
L 369.442792 133.069963 
L 369.442792 130.454174 
L 370.021306 130.454174 
L 370.021306 129.434672 
L 370.599819 129.434672 
L 370.599819 127.801074 
L 371.178333 127.801074 
L 371.178333 128.00004 
L 371.756847 128.00004 
L 371.756847 124.590979 
L 372.33536 124.590979 
L 372.33536 122.72857 
L 372.913874 122.72857 
L 372.913874 127.49158 
L 373.492388 127.49158 
L 373.492388 126.266876 
L 374.070902 126.266876 
L 374.070902 125.101367 
L 374.649415 125.101367 
L 374.649415 124.68503 
L 375.227929 124.68503 
L 375.227929 125.250347 
L 376.96347 125.301163 
L 376.96347 125.114865 
L 377.541984 125.114865 
L 377.541984 125.296318 
L 378.120498 125.296318 
L 378.120498 125.476985 
L 378.699011 125.476985 
L 378.699011 127.065375 
L 379.277525 127.065375 
L 379.277525 128.18211 
L 379.856039 128.18211 
L 379.856039 127.757887 
L 381.013066 127.814117 
L 381.013066 128.245157 
L 381.59158 128.245157 
L 381.59158 128.02466 
L 382.748608 128.076426 
L 382.748608 128.22482 
L 383.905635 128.207305 
L 383.905635 126.979565 
L 384.484149 126.979565 
L 384.484149 126.540151 
L 385.062662 126.540151 
L 385.062662 126.952249 
L 386.21969 127.007578 
L 386.21969 127.448718 
L 386.798204 127.448718 
L 386.798204 127.024734 
L 388.533745 127.011866 
L 388.533745 126.773153 
L 389.112259 126.773153 
L 389.112259 126.10954 
L 389.690772 126.10954 
L 389.690772 125.989756 
L 390.269286 125.989756 
L 390.269286 126.308236 
L 390.8478 126.308236 
L 390.8478 125.834884 
L 391.426313 125.834884 
L 391.426313 124.569943 
L 392.004827 124.569943 
L 392.004827 123.415695 
L 392.583341 123.415695 
L 392.583341 124.063357 
L 393.161855 124.063357 
L 393.161855 123.556772 
L 393.740368 123.556772 
L 393.740368 124.151812 
L 394.318882 124.151812 
L 394.318882 123.135401 
L 396.054423 123.12915 
L 396.054423 123.321644 
L 396.632937 123.321644 
L 396.632937 122.437442 
L 397.789964 122.345512 
L 397.789964 122.300878 
L 398.368478 122.300878 
L 398.368478 122.101377 
L 398.946992 122.101377 
L 398.946992 121.714061 
L 399.525506 121.714061 
L 399.525506 118.821554 
L 400.104019 118.821554 
L 400.104019 118.465121 
L 400.682533 118.465121 
L 400.682533 117.735832 
L 401.261047 117.735832 
L 401.261047 114.943912 
L 401.839561 114.943912 
L 401.839561 118.897084 
L 402.418074 118.897084 
L 402.418074 121.350498 
L 402.996588 121.350498 
L 402.996588 120.737376 
L 403.575102 120.737376 
L 403.575102 119.226443 
L 404.153615 119.226443 
L 404.153615 119.49774 
L 404.732129 119.49774 
L 404.732129 118.719036 
L 405.310643 118.719036 
L 405.310643 117.353805 
L 405.889157 117.353805 
L 405.889157 116.798248 
L 406.46767 116.798248 
L 406.46767 117.31474 
L 407.046184 117.31474 
L 407.046184 116.994925 
L 407.624698 116.994925 
L 407.624698 115.955138 
L 408.203212 115.955138 
L 408.203212 114.659904 
L 408.781725 114.659904 
L 408.781725 114.213252 
L 409.360239 114.213252 
L 409.360239 112.95463 
L 409.938753 112.95463 
L 409.938753 112.215352 
L 410.517266 112.215352 
L 410.517266 113.499741 
L 411.09578 113.499741 
L 411.09578 112.698917 
L 411.674294 112.698917 
L 411.674294 115.695677 
L 412.252808 115.695677 
L 412.252808 114.874691 
L 412.831321 114.874691 
L 412.831321 117.79883 
L 413.409835 117.79883 
L 413.409835 116.237835 
L 413.988349 116.237835 
L 413.988349 115.477701 
L 414.566863 115.477701 
L 414.566863 113.472205 
L 415.145376 113.472205 
L 415.145376 113.201232 
L 415.72389 113.201232 
L 415.72389 113.868202 
L 416.302404 113.868202 
L 416.302404 113.347262 
L 416.880917 113.347262 
L 416.880917 112.820031 
L 417.459431 112.820031 
L 417.459431 111.949557 
L 418.037945 111.949557 
L 418.037945 110.937153 
L 418.616459 110.937153 
L 418.616459 108.406962 
L 419.194972 108.406962 
L 419.194972 106.975718 
L 419.773486 106.975718 
L 419.773486 106.475211 
L 420.352 106.475211 
L 420.352 106.285513 
L 420.930514 106.285513 
L 420.930514 103.047775 
L 421.509027 103.047775 
L 421.509027 99.3059 
L 422.087541 99.3059 
L 422.087541 101.434165 
L 422.666055 101.434165 
L 422.666055 99.401745 
L 423.244568 99.401745 
L 423.244568 97.13193 
L 423.823082 97.13193 
L 423.823082 96.217978 
L 424.401596 96.217978 
L 424.401596 97.080942 
L 424.98011 97.080942 
L 424.98011 97.653341 
L 425.558623 97.653341 
L 425.558623 97.434209 
L 426.137137 97.434209 
L 426.137137 98.650574 
L 426.715651 98.650574 
L 426.715651 98.335587 
L 427.872678 98.27076 
L 427.872678 98.643931 
L 428.451192 98.643931 
L 428.451192 100.241902 
L 429.029706 100.241902 
L 429.029706 103.415545 
L 429.608219 103.415545 
L 429.608219 100.642127 
L 430.186733 100.642127 
L 430.186733 96.76984 
L 430.765247 96.76984 
L 430.765247 97.450487 
L 431.343761 97.450487 
L 431.343761 95.952053 
L 432.500788 95.996737 
L 432.500788 92.456833 
L 433.079302 92.456833 
L 433.079302 89.922675 
L 433.657816 89.922675 
L 433.657816 87.454791 
L 434.236329 87.454791 
L 434.236329 88.981725 
L 434.814843 88.981725 
L 434.814843 87.657344 
L 435.393357 87.657344 
L 435.393357 87.450855 
L 435.97187 87.450855 
L 435.97187 85.15428 
L 436.550384 85.15428 
L 436.550384 87.412634 
L 437.128898 87.412634 
L 437.128898 87.661505 
L 437.707412 87.661505 
L 437.707412 89.939767 
L 438.285925 89.939767 
L 438.285925 90.931296 
L 438.864439 90.931296 
L 438.864439 91.358385 
L 439.442953 91.358385 
L 439.442953 89.596785 
L 440.021467 89.596785 
L 440.021467 88.44718 
L 440.59998 88.44718 
L 440.59998 87.766017 
L 441.178494 87.766017 
L 441.178494 87.165508 
L 441.757008 87.165508 
L 441.757008 85.509309 
L 442.335521 85.509309 
L 442.335521 82.188887 
L 443.492549 82.169648 
L 443.492549 81.46695 
L 444.071063 81.46695 
L 444.071063 81.91558 
L 444.649576 81.91558 
L 444.649576 79.789478 
L 445.22809 79.789478 
L 445.22809 77.024161 
L 445.806604 77.024161 
L 445.806604 76.747511 
L 446.385118 76.747511 
L 446.385118 81.502657 
L 446.963631 81.502657 
L 446.963631 75.7017 
L 447.542145 75.7017 
L 447.542145 74.771576 
L 448.699172 74.844677 
L 448.699172 71.064047 
L 449.277686 71.064047 
L 449.277686 69.151492 
L 449.8562 69.151492 
L 449.8562 64.386582 
L 450.434714 64.386582 
L 450.434714 62.688359 
L 451.013227 62.688359 
L 451.013227 60.983079 
L 451.591741 60.983079 
L 451.591741 58.138856 
L 452.170255 58.138856 
L 452.170255 64.484215 
L 452.748769 64.484215 
L 452.748769 61.894793 
L 453.327282 61.894793 
L 453.327282 66.252362 
L 453.905796 66.252362 
L 453.905796 62.727887 
L 454.48431 62.727887 
L 454.48431 61.247552 
L 455.062823 61.247552 
L 455.062823 65.211162 
L 455.641337 65.211162 
L 455.641337 64.810286 
L 456.219851 64.810286 
L 456.219851 68.090569 
L 456.798365 68.090569 
L 456.798365 69.30141 
L 457.376878 69.30141 
L 457.376878 68.221789 
L 457.955392 68.221789 
L 457.955392 70.49668 
L 458.533906 70.49668 
L 458.533906 74.870838 
L 459.690933 74.766061 
L 459.690933 73.244809 
L 460.269447 73.244809 
L 460.269447 70.546677 
L 460.847961 70.546677 
L 460.847961 68.549271 
L 461.426475 68.549271 
L 461.426475 71.511708 
L 462.004988 71.511708 
L 462.004988 70.246729 
L 462.583502 70.246729 
L 462.583502 68.072613 
L 463.162016 68.072613 
L 463.162016 72.301956 
L 463.740529 72.301956 
L 463.740529 72.724154 
L 464.319043 72.724154 
L 464.319043 74.638186 
L 464.897557 74.638186 
L 464.897557 73.212796 
L 465.476071 73.212796 
L 465.476071 74.076805 
L 466.054584 74.076805 
L 466.054584 75.494465 
L 466.633098 75.494465 
L 466.633098 78.54452 
L 467.211612 78.54452 
L 467.211612 78.664803 
L 468.368639 78.671444 
L 468.368639 75.634412 
L 469.525667 75.604146 
L 469.525667 73.16643 
L 470.10418 73.16643 
L 470.10418 73.302485 
L 470.682694 73.302485 
L 470.682694 72.143847 
L 471.261208 72.143847 
L 471.261208 71.401356 
L 471.839722 71.401356 
L 471.839722 72.206257 
L 472.418235 72.206257 
L 472.418235 74.400786 
L 472.996749 74.400786 
L 472.996749 74.224505 
L 473.575263 74.224505 
L 473.575263 74.773374 
L 474.153777 74.773374 
L 474.153777 76.631272 
L 474.73229 76.631272 
L 474.73229 77.082516 
L 475.310804 77.082516 
L 475.310804 76.690684 
L 476.467831 76.675153 
L 476.467831 76.356856 
L 477.046345 76.356856 
L 477.046345 79.366528 
L 477.624859 79.366528 
L 477.624859 79.564088 
L 478.203373 79.564088 
L 478.203373 78.741178 
L 478.781886 78.741178 
L 478.781886 80.614853 
L 479.3604 80.614853 
L 479.3604 81.543299 
L 479.938914 81.543299 
L 479.938914 79.143313 
L 481.095941 79.136816 
L 481.095941 80.062286 
L 481.674455 80.062286 
L 481.674455 80.318434 
L 482.252969 80.318434 
L 482.252969 77.010244 
L 483.409996 76.91388 
L 483.409996 75.52169 
L 483.98851 75.52169 
L 483.98851 74.945626 
L 484.567024 74.945626 
L 484.567024 76.891962 
L 485.145537 76.891962 
L 485.145537 78.867778 
L 485.724051 78.867778 
L 485.724051 80.385824 
L 486.302565 80.385824 
L 486.302565 80.248587 
L 486.881079 80.248587 
L 486.881079 79.570571 
L 487.459592 79.570571 
L 487.459592 79.449344 
L 488.038106 79.449344 
L 488.038106 78.329421 
L 488.61662 78.329421 
L 488.61662 77.991228 
L 489.195133 77.991228 
L 489.195133 77.042659 
L 489.773647 77.042659 
L 489.773647 80.52715 
L 490.352161 80.52715 
L 490.352161 80.07251 
L 490.930675 80.07251 
L 490.930675 79.537282 
L 492.087702 79.541444 
L 492.087702 79.273675 
L 492.666216 79.273675 
L 492.666216 79.136604 
L 493.24473 79.136604 
L 493.24473 79.463621 
L 493.823243 79.463621 
L 493.823243 79.303603 
L 494.980271 79.280917 
L 494.980271 80.266194 
L 495.558784 80.266194 
L 495.558784 79.499587 
L 496.715812 79.548012 
L 496.715812 79.615114 
L 497.294326 79.615114 
L 497.294326 80.150007 
L 497.872839 80.150007 
L 497.872839 79.961184 
L 498.451353 79.961184 
L 498.451353 79.416011 
L 499.029867 79.416011 
L 499.029867 79.813029 
L 499.608381 79.813029 
L 499.608381 82.305209 
L 500.186894 82.305209 
L 500.186894 85.39909 
L 500.765408 85.39909 
L 500.765408 87.559515 
L 501.343922 87.559515 
L 501.343922 90.131213 
L 501.922435 90.131213 
L 501.922435 88.332941 
L 502.500949 88.332941 
L 502.500949 90.572721 
L 503.079463 90.572721 
L 503.079463 91.42792 
L 503.657977 91.42792 
L 503.657977 93.057066 
L 504.23649 93.057066 
L 504.23649 91.606765 
L 504.815004 91.606765 
L 504.815004 89.761224 
L 505.393518 89.761224 
L 505.393518 90.1675 
L 505.972032 90.1675 
L 505.972032 90.437443 
L 506.550545 90.437443 
L 506.550545 89.600198 
L 507.129059 89.600198 
L 507.129059 88.897089 
L 507.707573 88.897089 
L 507.707573 91.107828 
L 508.286086 91.107828 
L 508.286086 90.9098 
L 508.8646 90.9098 
L 508.8646 91.220862 
L 509.443114 91.220862 
L 509.443114 91.434005 
L 510.600141 91.495794 
L 510.600141 92.100143 
L 511.757169 92.180998 
L 511.757169 92.539203 
L 512.335683 92.539203 
L 512.335683 91.200213 
L 512.914196 91.200213 
L 512.914196 91.317933 
L 513.49271 91.317933 
L 513.49271 89.624566 
L 514.071224 89.624566 
L 514.071224 88.566187 
L 514.649737 88.566187 
L 514.649737 90.106222 
L 515.806765 90.203906 
L 515.806765 89.828152 
L 516.963792 89.857701 
L 516.963792 89.573775 
L 517.542306 89.573775 
L 517.542306 89.108037 
L 519.277847 89.011831 
L 519.277847 88.689654 
L 519.856361 88.689654 
L 519.856361 85.142736 
L 520.434875 85.142736 
L 520.434875 83.735537 
L 521.013388 83.735537 
L 521.013388 84.49428 
L 521.591902 84.49428 
L 521.591902 84.01136 
L 522.170416 84.01136 
L 522.170416 83.581903 
L 522.74893 83.581903 
L 522.74893 83.116151 
L 523.327443 83.116151 
L 523.327443 83.612067 
L 523.905957 83.612067 
L 523.905957 83.279093 
L 524.484471 83.279093 
L 524.484471 82.21431 
L 525.062985 82.21431 
L 525.062985 80.00304 
L 525.641498 80.00304 
L 525.641498 75.388739 
L 526.220012 75.388739 
L 526.220012 77.300523 
L 526.798526 77.300523 
L 526.798526 76.329549 
L 527.377039 76.329549 
L 527.377039 73.588391 
L 527.955553 73.588391 
L 527.955553 74.699661 
L 528.534067 74.699661 
L 528.534067 75.035462 
L 529.112581 75.035462 
L 529.112581 75.374711 
L 529.691094 75.374711 
L 529.691094 75.577846 
L 530.269608 75.577846 
L 530.269608 73.326593 
L 530.848122 73.326593 
L 530.848122 72.394101 
L 531.426636 72.394101 
L 531.426636 69.332889 
L 532.005149 69.332889 
L 532.005149 68.751771 
L 532.583663 68.751771 
L 532.583663 69.774352 
L 533.162177 69.774352 
L 533.162177 69.074026 
L 533.74069 69.074026 
L 533.74069 66.293311 
L 534.319204 66.293311 
L 534.319204 68.295987 
L 534.897718 68.295987 
L 534.897718 71.56439 
L 535.476232 71.56439 
L 535.476232 69.757906 
L 536.054745 69.757906 
L 536.054745 71.152746 
L 536.633259 71.152746 
L 536.633259 71.925688 
L 537.211773 71.925688 
L 537.211773 69.867663 
L 537.790287 69.867663 
L 537.790287 68.161783 
L 538.3688 68.161783 
L 538.3688 68.484832 
L 538.947314 68.484832 
L 538.947314 70.867214 
L 539.525828 70.867214 
L 539.525828 70.274935 
L 540.104341 70.274935 
L 540.104341 70.678119 
L 540.682855 70.678119 
L 540.682855 70.192254 
L 541.261369 70.192254 
L 541.261369 71.764738 
L 541.839883 71.764738 
L 541.839883 69.693916 
L 542.418396 69.693916 
L 542.418396 69.948362 
L 542.99691 69.948362 
L 542.99691 70.584572 
L 543.575424 70.584572 
L 543.575424 70.288858 
L 544.732451 70.356086 
L 544.732451 71.545559 
L 545.310965 71.545559 
L 545.310965 74.890773 
L 545.889479 74.890773 
L 545.889479 74.577861 
L 546.467992 74.577861 
L 546.467992 75.004046 
L 547.046506 75.004046 
L 547.046506 73.950094 
L 547.62502 73.950094 
L 547.62502 74.67232 
L 548.203534 74.67232 
L 548.203534 75.179121 
L 548.782047 75.179121 
L 548.782047 74.820938 
L 549.360561 74.820938 
L 549.360561 73.766993 
L 549.939075 73.766993 
L 549.939075 72.069504 
L 550.517589 72.069504 
L 550.517589 72.352109 
L 551.674616 72.261529 
L 551.674616 72.928951 
L 552.25313 72.928951 
L 552.25313 73.846811 
L 552.831643 73.846811 
L 552.831643 74.9346 
L 553.410157 74.9346 
L 553.410157 77.241888 
L 553.988671 77.241888 
L 553.988671 77.582093 
L 554.567185 77.582093 
L 554.567185 76.509502 
L 555.145698 76.509502 
L 555.145698 77.500563 
L 555.724212 77.500563 
L 555.724212 76.603349 
L 556.302726 76.603349 
L 556.302726 77.510841 
L 556.88124 77.510841 
L 556.88124 78.392555 
L 557.459753 78.392555 
L 557.459753 77.508027 
L 558.038267 77.508027 
L 558.038267 77.34015 
L 558.616781 77.34015 
L 558.616781 77.201466 
L 559.195294 77.201466 
L 559.195294 77.548431 
L 559.773808 77.548431 
L 559.773808 77.063409 
L 560.352322 77.063409 
L 560.352322 75.83155 
L 560.930836 75.83155 
L 560.930836 75.10867 
L 561.509349 75.10867 
L 561.509349 73.23441 
L 562.087863 73.23441 
L 562.087863 73.639212 
L 562.666377 73.639212 
L 562.666377 74.56718 
L 563.244891 74.56718 
L 563.244891 72.398179 
L 564.401918 72.323318 
L 564.401918 71.396613 
L 564.980432 71.396613 
L 564.980432 71.194123 
L 565.558945 71.194123 
L 565.558945 70.176312 
L 566.137459 70.176312 
L 566.137459 70.542565 
L 566.715973 70.542565 
L 566.715973 71.574019 
L 567.294487 71.574019 
L 567.294487 73.494474 
L 567.873 73.494474 
L 567.873 74.075843 
L 568.451514 74.075843 
L 568.451514 72.861976 
L 569.030028 72.861976 
L 569.030028 75.541553 
L 569.608542 75.541553 
L 569.608542 82.481896 
L 570.187055 82.481896 
L 570.187055 83.400408 
L 570.765569 83.400408 
L 570.765569 80.508406 
L 571.344083 80.508406 
L 571.344083 78.926804 
L 571.922596 78.926804 
L 571.922596 81.518543 
L 572.50111 81.518543 
L 572.50111 78.598658 
L 573.079624 78.598658 
L 573.079624 77.086225 
L 573.658138 77.086225 
L 573.658138 78.410905 
L 574.815165 78.414665 
L 574.815165 77.316215 
L 575.393679 77.316215 
L 575.393679 77.673559 
L 575.972193 77.673559 
L 575.972193 76.13785 
L 576.550706 76.13785 
L 576.550706 73.855049 
L 577.12922 73.855049 
L 577.12922 73.266863 
L 577.707734 73.266863 
L 577.707734 71.261284 
L 578.286247 71.261284 
L 578.286247 73.428447 
L 578.864761 73.428447 
L 578.864761 72.17093 
L 579.443275 72.17093 
L 579.443275 71.906009 
L 580.021789 71.906009 
L 580.021789 73.619772 
L 580.600302 73.619772 
L 580.600302 71.783106 
L 581.178816 71.783106 
L 581.178816 70.496229 
L 581.75733 70.496229 
L 581.75733 71.669276 
L 582.335844 71.669276 
L 582.335844 71.356639 
L 582.914357 71.356639 
L 582.914357 71.984439 
L 584.071385 72.023993 
L 584.071385 72.387456 
L 585.228412 72.482444 
L 585.228412 72.603098 
L 585.806926 72.603098 
L 585.806926 72.850869 
L 586.38544 72.850869 
L 586.38544 72.449137 
L 587.542467 72.493046 
L 587.542467 72.585313 
L 588.699495 72.539289 
L 588.699495 71.691432 
L 589.278008 71.691432 
L 589.278008 68.915161 
L 589.856522 68.915161 
L 589.856522 68.375669 
L 590.435036 68.375669 
L 590.435036 68.641612 
L 591.013549 68.641612 
L 591.013549 67.641184 
L 591.592063 67.641184 
L 591.592063 67.974976 
L 592.170577 67.974976 
L 592.170577 67.393529 
L 593.327604 67.474705 
L 593.327604 67.647431 
L 593.906118 67.647431 
L 593.906118 68.041473 
L 594.484632 68.041473 
L 594.484632 67.378001 
L 595.063146 67.378001 
L 595.063146 70.58398 
L 595.641659 70.58398 
L 595.641659 70.44996 
L 596.220173 70.44996 
L 596.220173 70.249385 
L 596.798687 70.249385 
L 596.798687 69.094641 
L 597.3772 69.094641 
L 597.3772 70.057038 
L 597.955714 70.057038 
L 597.955714 69.559446 
L 598.534228 69.559446 
L 598.534228 69.284203 
L 599.112742 69.284203 
L 599.112742 69.825442 
L 599.691255 69.825442 
L 599.691255 69.600771 
L 600.269769 69.600771 
L 600.269769 68.317964 
L 600.848283 68.317964 
L 600.848283 68.095408 
L 601.426797 68.095408 
L 601.426797 67.657258 
L 602.00531 67.657258 
L 602.00531 65.731997 
L 602.583824 65.731997 
L 602.583824 64.666977 
L 603.162338 64.666977 
L 603.162338 64.435267 
L 603.740851 64.435267 
L 603.740851 63.940689 
L 604.319365 63.940689 
L 604.319365 62.135626 
L 604.897879 62.135626 
L 604.897879 61.120974 
L 605.476393 61.120974 
L 605.476393 60.599822 
L 606.054906 60.599822 
L 606.054906 58.377865 
L 606.63342 58.377865 
L 606.63342 57.864613 
L 607.211934 57.864613 
L 607.211934 59.428523 
L 607.790448 59.428523 
L 607.790448 57.807812 
L 608.368961 57.807812 
L 608.368961 57.651451 
L 608.947475 57.651451 
L 608.947475 58.854746 
L 609.525989 58.854746 
L 609.525989 57.75619 
L 610.104503 57.75619 
L 610.104503 54.088183 
L 610.683016 54.088183 
L 610.683016 53.513237 
L 611.26153 53.513237 
L 611.26153 51.424957 
L 611.840044 51.424957 
L 611.840044 49.67567 
L 612.418557 49.67567 
L 612.418557 46.987963 
L 612.997071 46.987963 
L 612.997071 43.394493 
L 613.575585 43.394493 
L 613.575585 45.500499 
L 614.154099 45.500499 
L 614.154099 44.789986 
L 614.732612 44.789986 
L 614.732612 45.234515 
L 615.311126 45.234515 
L 615.311126 47.542422 
L 615.88964 47.542422 
L 615.88964 48.619465 
L 616.468154 48.619465 
L 616.468154 46.905785 
L 617.046667 46.905785 
L 617.046667 44.695814 
L 617.625181 44.695814 
L 617.625181 40.178232 
L 618.203695 40.178232 
L 618.203695 39.705602 
L 618.782208 39.705602 
L 618.782208 39.005501 
L 619.360722 39.005501 
L 619.360722 36.395945 
L 619.939236 36.395945 
L 619.939236 38.417457 
L 620.51775 38.417457 
L 620.51775 40.725796 
L 621.096263 40.725796 
L 621.096263 39.297369 
L 621.674777 39.297369 
L 621.674777 37.765699 
L 622.253291 37.765699 
L 622.253291 35.953074 
L 622.831805 35.953074 
L 622.831805 36.086768 
L 623.410318 36.086768 
L 623.410318 35.663934 
L 623.988832 35.663934 
L 623.988832 37.685858 
L 624.567346 37.685858 
L 624.567346 36.473881 
L 625.145859 36.473881 
L 625.145859 35.440669 
L 626.302887 35.332804 
L 626.302887 35.658149 
L 626.881401 35.658149 
L 626.881401 33.861839 
L 627.459914 33.861839 
L 627.459914 34.985486 
L 628.038428 34.985486 
L 628.038428 37.195813 
L 628.616942 37.195813 
L 628.616942 39.039965 
L 629.195456 39.039965 
L 629.195456 37.279608 
L 629.773969 37.279608 
L 629.773969 35.967055 
L 630.930997 35.908699 
L 630.930997 36.129913 
L 631.50951 36.129913 
L 631.50951 40.018055 
L 632.088024 40.018055 
L 632.088024 44.716296 
L 632.666538 44.716296 
L 632.666538 45.950896 
L 633.245052 45.950896 
L 633.245052 43.92948 
L 633.823565 43.92948 
L 633.823565 44.529546 
L 634.402079 44.529546 
L 634.402079 44.759016 
L 634.980593 44.759016 
L 634.980593 46.717049 
L 635.559107 46.717049 
L 635.559107 45.528715 
L 636.13762 45.528715 
L 636.13762 43.992313 
L 636.716134 43.992313 
L 636.716134 45.473802 
L 637.294648 45.473802 
L 637.294648 46.017372 
L 638.451675 46.123296 
L 638.451675 46.475019 
L 639.030189 46.475019 
L 639.030189 46.266602 
L 639.608703 46.266602 
L 639.608703 46.67794 
L 640.187216 46.67794 
L 640.187216 47.101272 
L 640.76573 47.101272 
L 640.76573 47.740726 
L 641.344244 47.740726 
L 641.344244 47.419166 
L 641.922758 47.419166 
L 641.922758 44.525467 
L 642.501271 44.525467 
L 642.501271 42.05641 
L 643.079785 42.05641 
L 643.079785 44.090211 
L 643.658299 44.090211 
L 643.658299 40.939943 
L 644.236812 40.939943 
L 644.236812 40.506118 
L 644.815326 40.506118 
L 644.815326 39.881461 
L 645.39384 39.881461 
L 645.39384 40.018882 
L 645.972354 40.018882 
L 645.972354 38.85799 
L 646.550867 38.85799 
L 646.550867 39.047607 
L 647.129381 39.047607 
L 647.129381 39.839172 
L 647.707895 39.839172 
L 647.707895 38.68729 
L 648.286409 38.68729 
L 648.286409 40.302128 
L 649.443436 40.310502 
L 649.443436 39.573617 
L 650.02195 39.573617 
L 650.02195 41.732892 
L 651.178977 41.773082 
L 651.178977 42.635465 
L 651.757491 42.635465 
L 651.757491 39.598009 
L 652.336005 39.598009 
L 652.336005 36.632468 
L 652.914518 36.632468 
L 652.914518 36.894017 
L 653.493032 36.894017 
L 653.493032 35.902602 
L 654.071546 35.902602 
L 654.071546 34.366979 
L 654.65006 34.366979 
L 654.65006 34.783191 
L 655.228573 34.783191 
L 655.228573 34.899645 
L 655.807087 34.899645 
L 655.807087 34.444793 
L 656.385601 34.444793 
L 656.385601 34.051689 
L 657.542628 33.94433 
L 657.542628 33.461115 
L 658.121142 33.461115 
L 658.121142 33.852447 
L 658.699656 33.852447 
L 658.699656 35.647658 
L 659.278169 35.647658 
L 659.278169 35.839723 
L 659.856683 35.839723 
L 659.856683 36.829806 
L 660.435197 36.829806 
L 660.435197 35.961304 
L 661.013711 35.961304 
L 661.013711 38.915935 
L 661.592224 38.915935 
L 661.592224 39.626322 
L 662.170738 39.626322 
L 662.170738 40.009268 
L 662.749252 40.009268 
L 662.749252 40.260821 
L 663.327765 40.260821 
L 663.327765 39.097597 
L 663.906279 39.097597 
L 663.906279 38.478457 
L 664.484793 38.478457 
L 664.484793 40.158988 
L 665.063307 40.158988 
L 665.063307 39.766251 
L 665.64182 39.766251 
L 665.64182 41.630879 
L 666.220334 41.630879 
L 666.220334 42.230411 
L 666.798848 42.230411 
L 666.798848 41.640756 
L 667.377362 41.640756 
L 667.377362 41.977176 
L 667.955875 41.977176 
L 667.955875 45.769103 
L 668.534389 45.769103 
L 668.534389 44.792716 
L 669.112903 44.792716 
L 669.112903 44.205754 
L 669.691416 44.205754 
L 669.691416 44.64699 
L 670.26993 44.64699 
L 670.26993 41.302234 
L 670.848444 41.302234 
L 670.848444 41.967826 
L 671.426958 41.967826 
L 671.426958 40.983936 
L 672.005471 40.983936 
L 672.005471 43.077952 
L 672.583985 43.077952 
L 672.583985 44.53978 
L 673.162499 44.53978 
L 673.162499 44.319141 
L 673.741013 44.319141 
L 673.741013 41.938028 
L 674.319526 41.938028 
L 674.319526 44.145692 
L 674.89804 44.145692 
L 674.89804 43.775993 
L 675.476554 43.775993 
L 675.476554 43.478474 
L 676.055067 43.478474 
L 676.055067 42.052534 
L 676.633581 42.052534 
L 676.633581 41.731258 
L 677.212095 41.731258 
L 677.212095 39.965862 
L 677.790609 39.965862 
L 677.790609 40.537864 
L 678.369122 40.537864 
L 678.369122 40.071832 
L 678.947636 40.071832 
L 678.947636 42.025693 
L 679.52615 42.025693 
L 679.52615 43.084369 
L 680.104664 43.084369 
L 680.104664 42.941748 
L 680.683177 42.941748 
L 680.683177 42.458177 
L 681.261691 42.458177 
L 681.261691 43.404879 
L 681.840205 43.404879 
L 681.840205 43.250954 
L 682.418718 43.250954 
L 682.418718 43.895458 
L 682.997232 43.895458 
L 682.997232 45.238463 
L 683.575746 45.238463 
L 683.575746 48.238099 
L 684.15426 48.238099 
L 684.15426 48.847626 
L 684.732773 48.847626 
L 684.732773 49.797937 
L 685.311287 49.797937 
L 685.311287 48.712009 
L 685.889801 48.712009 
L 685.889801 49.442895 
L 686.468315 49.442895 
L 686.468315 47.783566 
L 687.046828 47.783566 
L 687.046828 49.110975 
L 687.625342 49.110975 
L 687.625342 48.164653 
L 688.203856 48.164653 
L 688.203856 50.034292 
L 688.782369 50.034292 
L 688.782369 54.614113 
L 689.360883 54.614113 
L 689.360883 56.484341 
L 689.939397 56.484341 
L 689.939397 55.957072 
L 690.517911 55.957072 
L 690.517911 56.327142 
L 691.096424 56.327142 
L 691.096424 57.808094 
L 691.674938 57.808094 
L 691.674938 56.836968 
L 692.253452 56.836968 
L 692.253452 55.493026 
L 692.831966 55.493026 
L 692.831966 56.795548 
L 693.410479 56.795548 
L 693.410479 56.257605 
L 693.988993 56.257605 
L 693.988993 54.085329 
L 694.567507 54.085329 
L 694.567507 55.756335 
L 695.14602 55.756335 
L 695.14602 53.54099 
L 695.724534 53.54099 
L 695.724534 54.234946 
L 696.881562 54.265105 
L 696.881562 53.400127 
L 697.460075 53.400127 
L 697.460075 53.105575 
L 698.038589 53.105575 
L 698.038589 54.050844 
L 698.617103 54.050844 
L 698.617103 55.660458 
L 699.195617 55.660458 
L 699.195617 56.786013 
L 699.77413 56.786013 
L 699.77413 57.226672 
L 700.931158 57.184298 
L 700.931158 57.752564 
L 701.509671 57.752564 
L 701.509671 55.297323 
L 702.088185 55.297323 
L 702.088185 57.326421 
L 702.666699 57.326421 
L 702.666699 57.482101 
L 703.245213 57.482101 
L 703.245213 57.752045 
L 703.823726 57.752045 
L 703.823726 57.935388 
L 704.40224 57.935388 
L 704.40224 57.716642 
L 704.980754 57.716642 
L 704.980754 56.850985 
L 705.559268 56.850985 
L 705.559268 57.585183 
L 707.294809 57.475163 
L 707.294809 57.865846 
L 707.873322 57.865846 
L 707.873322 56.917156 
L 708.451836 56.917156 
L 708.451836 56.21722 
L 709.03035 56.21722 
L 709.03035 56.864695 
L 709.608864 56.864695 
L 709.608864 56.117241 
L 710.187377 56.117241 
L 710.187377 59.63537 
L 710.765891 59.63537 
L 710.765891 60.764787 
L 711.344405 60.764787 
L 711.344405 60.650097 
L 711.922919 60.650097 
L 711.922919 61.245276 
L 712.501432 61.245276 
L 712.501432 60.927835 
L 713.079946 60.927835 
L 713.079946 60.073343 
L 715.394001 60.031104 
L 715.394001 60.70494 
L 715.972515 60.70494 
L 715.972515 60.386024 
L 717.129542 60.465016 
L 717.129542 60.823651 
L 718.28657 60.73372 
L 718.28657 60.478926 
L 718.865083 60.478926 
L 718.865083 60.048338 
L 719.443597 60.048338 
L 719.443597 57.085162 
L 720.022111 57.085162 
L 720.022111 55.903123 
L 720.600624 55.903123 
L 720.600624 54.418161 
L 721.179138 54.418161 
L 721.179138 54.14107 
L 721.757652 54.14107 
L 721.757652 53.571445 
L 722.336166 53.571445 
L 722.336166 53.827217 
L 722.914679 53.827217 
L 722.914679 54.425867 
L 723.493193 54.425867 
L 723.493193 55.441172 
L 724.071707 55.441172 
L 724.071707 54.917476 
L 724.650221 54.917476 
L 724.650221 52.837973 
L 725.228734 52.837973 
L 725.228734 53.2123 
L 725.807248 53.2123 
L 725.807248 53.734608 
L 726.964275 53.816161 
L 726.964275 54.738995 
L 727.542789 54.738995 
L 727.542789 56.794399 
L 728.121303 56.794399 
L 728.121303 52.73621 
L 728.699817 52.73621 
L 728.699817 51.025874 
L 729.27833 51.025874 
L 729.27833 50.78166 
L 729.856844 50.78166 
L 729.856844 50.279327 
L 731.013872 50.255579 
L 731.013872 50.421182 
L 732.170899 50.332539 
L 732.170899 48.741108 
L 733.327926 48.685316 
L 733.327926 49.694433 
L 733.90644 49.694433 
L 733.90644 50.574259 
L 734.484954 50.574259 
L 734.484954 49.247346 
L 735.063468 49.247346 
L 735.063468 50.217327 
L 735.641981 50.217327 
L 735.641981 49.209993 
L 736.220495 49.209993 
L 736.220495 50.538329 
L 736.799009 50.538329 
L 736.799009 51.167033 
L 737.377523 51.167033 
L 737.377523 50.714329 
L 737.956036 50.714329 
L 737.956036 51.189006 
L 738.53455 51.189006 
L 738.53455 51.39916 
L 739.113064 51.39916 
L 739.113064 50.462698 
L 739.691577 50.462698 
L 739.691577 50.821593 
L 740.848605 50.827687 
L 740.848605 51.877199 
L 741.427119 51.877199 
L 741.427119 52.447519 
L 742.005632 52.447519 
L 742.005632 51.505504 
L 742.584146 51.505504 
L 742.584146 48.961751 
L 743.16266 48.961751 
L 743.16266 48.720107 
L 743.741174 48.720107 
L 743.741174 48.585039 
L 744.319687 48.585039 
L 744.319687 48.386622 
L 744.898201 48.386622 
L 744.898201 48.754646 
L 745.476715 48.754646 
L 745.476715 48.637599 
L 746.633742 48.737598 
L 746.633742 49.029808 
L 747.212256 49.029808 
L 747.212256 49.453532 
L 748.369283 49.359234 
L 748.369283 49.109726 
L 748.947797 49.109726 
L 748.947797 49.543249 
L 749.526311 49.543249 
L 749.526311 49.189362 
L 750.104825 49.189362 
L 750.104825 49.3813 
L 750.683338 49.3813 
L 750.683338 51.259884 
L 751.261852 51.259884 
L 751.261852 51.668657 
L 752.418879 51.725466 
L 752.418879 50.472396 
L 752.997393 50.472396 
L 752.997393 51.864599 
L 754.732934 51.8927 
L 754.732934 51.354783 
L 755.311448 51.354783 
L 755.311448 51.183624 
L 755.889962 51.183624 
L 755.889962 51.320214 
L 756.468476 51.320214 
L 756.468476 51.600224 
L 757.046989 51.600224 
L 757.046989 51.029557 
L 757.625503 51.029557 
L 757.625503 50.424546 
L 758.78253 50.324199 
L 758.78253 51.187441 
L 759.361044 51.187441 
L 759.361044 49.912545 
L 759.939558 49.912545 
L 759.939558 49.110408 
L 760.518072 49.110408 
L 760.518072 46.447949 
L 761.675099 46.337173 
L 761.675099 45.559429 
L 762.253613 45.559429 
L 762.253613 45.782288 
L 762.832127 45.782288 
L 762.832127 44.862049 
L 764.567668 44.901357 
L 764.567668 45.352285 
L 765.146182 45.352285 
L 765.146182 44.268009 
L 766.303209 44.232842 
L 766.303209 43.147477 
L 766.881723 43.147477 
L 766.881723 41.548339 
L 767.460236 41.548339 
L 767.460236 42.524837 
L 768.03875 42.524837 
L 768.03875 42.189432 
L 768.617264 42.189432 
L 768.617264 42.033426 
L 769.195778 42.033426 
L 769.195778 41.344173 
L 769.774291 41.344173 
L 769.774291 41.468907 
L 770.352805 41.468907 
L 770.352805 42.039555 
L 770.931319 42.039555 
L 770.931319 41.140191 
L 771.509833 41.140191 
L 771.509833 39.917241 
L 772.088346 39.917241 
L 772.088346 41.759791 
L 772.66686 41.759791 
L 772.66686 41.625413 
L 773.245374 41.625413 
L 773.245374 42.321358 
L 773.823887 42.321358 
L 773.823887 43.101212 
L 774.402401 43.101212 
L 774.402401 42.143586 
L 774.980915 42.143586 
L 774.980915 41.65852 
L 775.559429 41.65852 
L 775.559429 41.849134 
L 776.137942 41.849134 
L 776.137942 39.848234 
L 776.716456 39.848234 
L 776.716456 38.770928 
L 777.29497 38.770928 
L 777.29497 38.002222 
L 779.030511 37.985794 
L 779.030511 34.626921 
L 779.609025 34.626921 
L 779.609025 32.39675 
L 780.766052 32.41749 
L 780.766052 31.505466 
L 781.344566 31.505466 
L 781.344566 33.318032 
L 781.92308 33.318032 
L 781.92308 32.549792 
L 782.501593 32.549792 
L 782.501593 32.736864 
L 783.080107 32.736864 
L 783.080107 31.712319 
L 783.658621 31.712319 
L 783.658621 32.012747 
L 784.237135 32.012747 
L 784.237135 32.549721 
L 784.815648 32.549721 
L 784.815648 32.174183 
L 785.394162 32.174183 
L 785.394162 33.715737 
L 785.972676 33.715737 
L 785.972676 34.591585 
L 786.551189 34.591585 
L 786.551189 33.426862 
L 787.129703 33.426862 
L 787.129703 33.570305 
L 787.708217 33.570305 
L 787.708217 33.774332 
L 788.286731 33.774332 
L 788.286731 34.073841 
L 788.865244 34.073841 
L 788.865244 34.253605 
L 789.443758 34.253605 
L 789.443758 34.747348 
L 790.022272 34.747348 
L 790.022272 33.033161 
L 791.179299 33.025017 
L 791.179299 32.524704 
L 791.757813 32.524704 
L 791.757813 32.106969 
L 792.336327 32.106969 
L 792.336327 32.659967 
L 792.91484 32.659967 
L 792.91484 31.769425 
L 793.493354 31.769425 
L 793.493354 32.128992 
L 794.071868 32.128992 
L 794.071868 32.437178 
L 794.650382 32.437178 
L 794.650382 32.913262 
L 795.228895 32.913262 
L 795.228895 33.463747 
L 795.807409 33.463747 
L 795.807409 34.92144 
L 796.964437 34.909438 
L 796.964437 34.348633 
L 797.54295 34.348633 
L 797.54295 35.602153 
L 798.121464 35.602153 
L 798.121464 35.782448 
L 798.699978 35.782448 
L 798.699978 34.749858 
L 799.278491 34.749858 
L 799.278491 33.73174 
L 799.857005 33.73174 
L 799.857005 32.626657 
L 801.014033 32.532774 
L 801.014033 33.051048 
L 801.592546 33.051048 
L 801.592546 34.789917 
L 802.17106 34.789917 
L 802.17106 36.745077 
L 802.749574 36.745077 
L 802.749574 35.447462 
L 803.328088 35.447462 
L 803.328088 35.858777 
L 803.906601 35.858777 
L 803.906601 35.190253 
L 804.485115 35.190253 
L 804.485115 33.696253 
L 805.063629 33.696253 
L 805.063629 35.193314 
L 805.642142 35.193314 
L 805.642142 35.361718 
L 806.220656 35.361718 
L 806.220656 35.705012 
L 806.79917 35.705012 
L 806.79917 36.809342 
L 807.377684 36.809342 
L 807.377684 35.64646 
L 808.534711 35.626323 
L 808.534711 33.969671 
L 809.113225 33.969671 
L 809.113225 33.634778 
L 809.691739 33.634778 
L 809.691739 33.139462 
L 810.270252 33.139462 
L 810.270252 34.802204 
L 810.848766 34.802204 
L 810.848766 34.096256 
L 811.42728 34.096256 
L 811.42728 34.924862 
L 812.005793 34.924862 
L 812.005793 33.090867 
L 812.584307 33.090867 
L 812.584307 32.38254 
L 813.162821 32.38254 
L 813.162821 32.694641 
L 814.319848 32.798795 
L 814.319848 31.27132 
L 814.898362 31.27132 
L 814.898362 32.289673 
L 815.476876 32.289673 
L 815.476876 30.299405 
L 816.05539 30.299405 
L 816.05539 27.180553 
L 816.633903 27.180553 
L 816.633903 26.658369 
L 817.212417 26.658369 
L 817.212417 26.373116 
L 817.790931 26.373116 
L 817.790931 25.233636 
L 818.369444 25.233636 
L 818.369444 25.609949 
L 818.947958 25.609949 
L 818.947958 25.337003 
L 820.683499 25.297523 
L 820.683499 24.491571 
L 821.262013 24.491571 
L 821.262013 23.586855 
L 821.840527 23.586855 
L 821.840527 25.346699 
L 822.419041 25.346699 
L 822.419041 24.924032 
L 822.997554 24.924032 
L 822.997554 26.121666 
L 823.576068 26.121666 
L 823.576068 25.423666 
L 824.154582 25.423666 
L 824.154582 24.337063 
L 824.733095 24.337063 
L 824.733095 25.873486 
L 825.311609 25.873486 
L 825.311609 25.491296 
L 825.890123 25.491296 
L 825.890123 23.919231 
L 826.468637 23.919231 
L 826.468637 24.067841 
L 827.04715 24.067841 
L 827.04715 24.270709 
L 827.625664 24.270709 
L 827.625664 23.855056 
L 828.204178 23.855056 
L 828.204178 24.50199 
L 828.782692 24.50199 
L 828.782692 25.488483 
L 829.361205 25.488483 
L 829.361205 25.652782 
L 829.939719 25.652782 
L 829.939719 25.271223 
L 830.518233 25.271223 
L 830.518233 25.467314 
L 831.67526 25.543726 
L 831.67526 28.122026 
L 832.253774 28.122026 
L 832.253774 27.78511 
L 832.832288 27.78511 
L 832.832288 27.631272 
L 833.410801 27.631272 
L 833.410801 28.549278 
L 833.989315 28.549278 
L 833.989315 28.194622 
L 834.567829 28.194622 
L 834.567829 27.603109 
L 835.146343 27.603109 
L 835.146343 27.79086 
L 835.724856 27.79086 
L 835.724856 27.52942 
L 836.30337 27.52942 
L 836.30337 28.628761 
L 836.881884 28.628761 
L 836.881884 28.31314 
L 837.460397 28.31314 
L 837.460397 30.209848 
L 838.038911 30.209848 
L 838.038911 27.971769 
L 838.617425 27.971769 
L 838.617425 28.267427 
L 839.195939 28.267427 
L 839.195939 27.997767 
L 839.774452 27.997767 
L 839.774452 26.028875 
L 840.352966 26.028875 
L 840.352966 25.81108 
L 840.93148 25.81108 
L 840.93148 25.408497 
L 842.088507 25.430955 
L 842.088507 23.850792 
L 842.667021 23.850792 
L 842.667021 24.084244 
L 843.245535 24.084244 
L 843.245535 23.536214 
L 843.824048 23.536214 
L 843.824048 22.563278 
L 844.402562 22.563278 
L 844.402562 22.969087 
L 844.981076 22.969087 
L 844.981076 23.992494 
L 845.55959 23.992494 
L 845.55959 23.723455 
L 846.716617 23.685773 
L 846.716617 23.114651 
L 847.295131 23.114651 
L 847.295131 23.699869 
L 847.873645 23.699869 
L 847.873645 23.867227 
L 848.452158 23.867227 
L 848.452158 23.733748 
L 849.030672 23.733748 
L 849.030672 23.407606 
L 849.609186 23.407606 
L 849.609186 23.67197 
L 850.187699 23.67197 
L 850.187699 23.196894 
L 850.766213 23.196894 
L 850.766213 22.63816 
L 851.344727 22.63816 
L 851.344727 21.283255 
L 852.501754 21.252761 
L 852.501754 21.562443 
L 854.237296 21.480964 
L 854.237296 22.420458 
L 854.815809 22.420458 
L 854.815809 21.979852 
L 855.394323 21.979852 
L 855.394323 21.249643 
L 855.972837 21.249643 
L 855.972837 21.402591 
L 856.55135 21.402591 
L 856.55135 21.76739 
L 857.708378 21.66157 
L 857.708378 22.548708 
L 858.286892 22.548708 
L 858.286892 23.095814 
L 858.865405 23.095814 
L 858.865405 22.560524 
L 860.022433 22.661532 
L 860.022433 21.894154 
L 861.757974 21.864056 
L 861.757974 22.511697 
L 862.336488 22.511697 
L 862.336488 22.931157 
L 862.915001 22.931157 
L 862.915001 21.363749 
L 863.493515 21.363749 
L 863.493515 20.552727 
L 864.072029 20.552727 
L 864.072029 20.852518 
L 864.650543 20.852518 
L 864.650543 21.946446 
L 865.229056 21.946446 
L 865.229056 23.528444 
L 865.80757 23.528444 
L 865.80757 23.159011 
L 866.386084 23.159011 
L 866.386084 22.578441 
L 866.964598 22.578441 
L 866.964598 22.861951 
L 868.121625 22.765112 
L 868.121625 24.528115 
L 868.700139 24.528115 
L 868.700139 23.623438 
L 869.278652 23.623438 
L 869.278652 25.937762 
L 869.857166 25.937762 
L 869.857166 26.241358 
L 870.43568 26.241358 
L 870.43568 28.114511 
L 871.014194 28.114511 
L 871.014194 26.77875 
L 872.171221 26.81 
L 872.171221 26.4225 
L 872.749735 26.4225 
L 872.749735 26.750885 
L 873.906762 26.833691 
L 873.906762 27.381199 
L 874.485276 27.381199 
L 874.485276 27.267051 
L 875.06379 27.267051 
L 875.06379 27.433167 
L 876.220817 27.38126 
L 876.220817 27.177108 
L 876.799331 27.177108 
L 876.799331 26.047721 
L 877.377845 26.047721 
L 877.377845 26.78359 
L 877.956358 26.78359 
L 877.956358 25.740447 
L 879.113386 25.790073 
L 879.113386 27.033228 
L 879.6919 27.033228 
L 879.6919 27.671621 
L 880.270413 27.671621 
L 880.270413 28.141547 
L 880.848927 28.141547 
L 880.848927 29.585924 
L 881.427441 29.585924 
L 881.427441 31.778773 
L 882.005954 31.778773 
L 882.005954 32.275099 
L 882.584468 32.275099 
L 882.584468 31.997414 
L 883.162982 31.997414 
L 883.162982 32.976194 
L 883.741496 32.976194 
L 883.741496 32.621431 
L 884.898523 32.664182 
L 884.898523 32.280477 
L 885.477037 32.280477 
L 885.477037 32.469842 
L 886.055551 32.469842 
L 886.055551 31.94932 
L 886.634064 31.94932 
L 886.634064 31.686058 
L 887.194182 31.686058 
L 887.194182 31.686058 
" clip-path="url(#p9f97196c2f)" style="fill: none; stroke: #3572c6; stroke-width: 1.2; stroke-linecap: square"/>
   </g>
   <g id="line2d_79">
    <path d="M 75.557818 20.552727 
L 887.194182 20.552727 
L 887.194182 20.552727 
" clip-path="url(#p9f97196c2f)" style="fill: none; stroke: #83a83b; stroke-width: 1.2; stroke-linecap: square"/>
   </g>
   <g id="line2d_80">
    <path d="M 75.557818 32.976194 
L 887.194182 32.976194 
L 887.194182 32.976194 
" clip-path="url(#p9f97196c2f)" style="fill: none; stroke: #c44e52; stroke-width: 1.2; stroke-linecap: square"/>
   </g>
   <g id="line2d_81">
    <path d="M 864.072029 300.96 
L 864.072029 7.2 
" clip-path="url(#p9f97196c2f)" style="fill: none; stroke: #83a83b; stroke-width: 1.2; stroke-linecap: square"/>
   </g>
   <g id="line2d_82">
    <path d="M 883.741496 300.96 
L 883.741496 7.2 
" clip-path="url(#p9f97196c2f)" style="fill: none; stroke: #c44e52; stroke-width: 1.2; stroke-linecap: square"/>
   </g>
   <g id="patch_3">
    <path d="M 34.976 300.96 
L 34.976 7.2 
" style="fill: none; stroke: #899ab8; stroke-width: 1.12; stroke-linejoin: miter; stroke-linecap: square"/>
   </g>
   <g id="patch_4">
    <path d="M 927.776 300.96 
L 927.776 7.2 
" style="fill: none; stroke: #899ab8; stroke-width: 1.12; stroke-linejoin: miter; stroke-linecap: square"/>
   </g>
   <g id="patch_5">
    <path d="M 34.976 300.96 
L 927.776 300.96 
" style="fill: none; stroke: #899ab8; stroke-width: 1.12; stroke-linejoin: miter; stroke-linecap: square"/>
   </g>
   <g id="patch_6">
    <path d="M 34.976 7.2 
L 927.776 7.2 
" style="fill: none; stroke: #899ab8; stroke-width: 1.12; stroke-linejoin: miter; stroke-linecap: square"/>
   </g>
   <g id="text_16">
    <!-- 123519.47 -->
    <g style="fill: #83a83b" transform="translate(181.136573 20.552727) scale(0.132 -0.132)">
     <defs>
      <path id="DejaVuSans-39" d="M 703 97 
L 703 672 
Q 941 559 1184 500 
Q 1428 441 1663 441 
Q 2288 441 2617 861 
Q 2947 1281 2994 2138 
Q 2813 1869 2534 1725 
Q 2256 1581 1919 1581 
Q 1219 1581 811 2004 
Q 403 2428 403 3163 
Q 403 3881 828 4315 
Q 1253 4750 1959 4750 
Q 2769 4750 3195 4129 
Q 3622 3509 3622 2328 
Q 3622 1225 3098 567 
Q 2575 -91 1691 -91 
Q 1453 -91 1209 -44 
Q 966 3 703 97 
z
M 1959 2075 
Q 2384 2075 2632 2365 
Q 2881 2656 2881 3163 
Q 2881 3666 2632 3958 
Q 2384 4250 1959 4250 
Q 1534 4250 1286 3958 
Q 1038 3666 1038 3163 
Q 1038 2656 1286 2365 
Q 1534 2075 1959 2075 
z
" transform="scale(0.015625)"/>
      <path id="DejaVuSans-2e" d="M 684 794 
L 1344 794 
L 1344 0 
L 684 0 
L 684 794 
z
" transform="scale(0.015625)"/>
      <path id="DejaVuSans-37" d="M 525 4666 
L 3525 4666 
L 3525 4397 
L 1831 0 
L 1172 0 
L 2766 4134 
L 525 4134 
L 525 4666 
z
" transform="scale(0.015625)"/>
     </defs>
     <use xlink:href="#DejaVuSans-31"/>
     <use xlink:href="#DejaVuSans-32" transform="translate(63.623047 0)"/>
     <use xlink:href="#DejaVuSans-33" transform="translate(127.246094 0)"/>
     <use xlink:href="#DejaVuSans-35" transform="translate(190.869141 0)"/>
     <use xlink:href="#DejaVuSans-31" transform="translate(254.492188 0)"/>
     <use xlink:href="#DejaVuSans-39" transform="translate(318.115234 0)"/>
     <use xlink:href="#DejaVuSans-2e" transform="translate(381.738281 0)"/>
     <use xlink:href="#DejaVuSans-34" transform="translate(413.525391 0)"/>
     <use xlink:href="#DejaVuSans-37" transform="translate(477.148438 0)"/>
    </g>
   </g>
   <g id="text_17">
    <!-- 66427.8 -->
    <g style="fill: #c44e52" transform="translate(181.136573 32.976194) scale(0.132 -0.132)">
     <use xlink:href="#DejaVuSans-36"/>
     <use xlink:href="#DejaVuSans-36" transform="translate(63.623047 0)"/>
     <use xlink:href="#DejaVuSans-34" transform="translate(127.246094 0)"/>
     <use xlink:href="#DejaVuSans-32" transform="translate(190.869141 0)"/>
     <use xlink:href="#DejaVuSans-37" transform="translate(254.492188 0)"/>
     <use xlink:href="#DejaVuSans-2e" transform="translate(318.115234 0)"/>
     <use xlink:href="#DejaVuSans-38" transform="translate(349.902344 0)"/>
    </g>
   </g>
   <g id="legend_1">
    <g id="patch_7">
     <path d="M 43.796 183.886875 
L 142.133094 183.886875 
Q 144.653094 183.886875 144.653094 181.366875 
L 144.653094 126.793125 
Q 144.653094 124.273125 142.133094 124.273125 
L 43.796 124.273125 
Q 41.276 124.273125 41.276 126.793125 
L 41.276 181.366875 
Q 41.276 183.886875 43.796 183.886875 
z
" style="fill: #373e4b; opacity: 0.8; stroke: #cccccc; stroke-width: 0.16; stroke-linejoin: miter"/>
    </g>
    <g id="line2d_83">
     <path d="M 46.316 134.477156 
L 46.316 134.477156 
L 58.916 134.477156 
L 58.916 134.477156 
L 71.516 134.477156 
" style="fill: none; stroke: #3572c6; stroke-width: 1.2; stroke-linecap: square"/>
    </g>
    <g id="text_18">
     <!-- USD/BTC -->
     <g style="fill: #b1bed6" transform="translate(81.596 138.887156) scale(0.126 -0.126)">
      <defs>
       <path id="DejaVuSans-55" d="M 556 4666 
L 1191 4666 
L 1191 1831 
Q 1191 1081 1462 751 
Q 1734 422 2344 422 
Q 2950 422 3222 751 
Q 3494 1081 3494 1831 
L 3494 4666 
L 4128 4666 
L 4128 1753 
Q 4128 841 3676 375 
Q 3225 -91 2344 -91 
Q 1459 -91 1007 375 
Q 556 841 556 1753 
L 556 4666 
z
" transform="scale(0.015625)"/>
       <path id="DejaVuSans-53" d="M 3425 4513 
L 3425 3897 
Q 3066 4069 2747 4153 
Q 2428 4238 2131 4238 
Q 1616 4238 1336 4038 
Q 1056 3838 1056 3469 
Q 1056 3159 1242 3001 
Q 1428 2844 1947 2747 
L 2328 2669 
Q 3034 2534 3370 2195 
Q 3706 1856 3706 1288 
Q 3706 609 3251 259 
Q 2797 -91 1919 -91 
Q 1588 -91 1214 -16 
Q 841 59 441 206 
L 441 856 
Q 825 641 1194 531 
Q 1563 422 1919 422 
Q 2459 422 2753 634 
Q 3047 847 3047 1241 
Q 3047 1584 2836 1778 
Q 2625 1972 2144 2069 
L 1759 2144 
Q 1053 2284 737 2584 
Q 422 2884 422 3419 
Q 422 4038 858 4394 
Q 1294 4750 2059 4750 
Q 2388 4750 2728 4690 
Q 3069 4631 3425 4513 
z
" transform="scale(0.015625)"/>
       <path id="DejaVuSans-2f" d="M 1625 4666 
L 2156 4666 
L 531 -594 
L 0 -594 
L 1625 4666 
z
" transform="scale(0.015625)"/>
       <path id="DejaVuSans-42" d="M 1259 2228 
L 1259 519 
L 2272 519 
Q 2781 519 3026 730 
Q 3272 941 3272 1375 
Q 3272 1813 3026 2020 
Q 2781 2228 2272 2228 
L 1259 2228 
z
M 1259 4147 
L 1259 2741 
L 2194 2741 
Q 2656 2741 2882 2914 
Q 3109 3088 3109 3444 
Q 3109 3797 2882 3972 
Q 2656 4147 2194 4147 
L 1259 4147 
z
M 628 4666 
L 2241 4666 
Q 2963 4666 3353 4366 
Q 3744 4066 3744 3513 
Q 3744 3084 3544 2831 
Q 3344 2578 2956 2516 
Q 3422 2416 3680 2098 
Q 3938 1781 3938 1306 
Q 3938 681 3513 340 
Q 3088 0 2303 0 
L 628 0 
L 628 4666 
z
" transform="scale(0.015625)"/>
       <path id="DejaVuSans-54" d="M -19 4666 
L 3928 4666 
L 3928 4134 
L 2272 4134 
L 2272 0 
L 1638 0 
L 1638 4134 
L -19 4134 
L -19 4666 
z
" transform="scale(0.015625)"/>
       <path id="DejaVuSans-43" d="M 4122 4306 
L 4122 3641 
Q 3803 3938 3442 4084 
Q 3081 4231 2675 4231 
Q 1875 4231 1450 3742 
Q 1025 3253 1025 2328 
Q 1025 1406 1450 917 
Q 1875 428 2675 428 
Q 3081 428 3442 575 
Q 3803 722 4122 1019 
L 4122 359 
Q 3791 134 3420 21 
Q 3050 -91 2638 -91 
Q 1578 -91 968 557 
Q 359 1206 359 2328 
Q 359 3453 968 4101 
Q 1578 4750 2638 4750 
Q 3056 4750 3426 4639 
Q 3797 4528 4122 4306 
z
" transform="scale(0.015625)"/>
      </defs>
      <use xlink:href="#DejaVuSans-55"/>
      <use xlink:href="#DejaVuSans-53" transform="translate(73.193359 0)"/>
      <use xlink:href="#DejaVuSans-44" transform="translate(136.669922 0)"/>
      <use xlink:href="#DejaVuSans-2f" transform="translate(213.671875 0)"/>
      <use xlink:href="#DejaVuSans-42" transform="translate(247.363281 0)"/>
      <use xlink:href="#DejaVuSans-54" transform="translate(315.966797 0)"/>
      <use xlink:href="#DejaVuSans-43" transform="translate(371.175781 0)"/>
     </g>
    </g>
    <g id="line2d_84">
     <path d="M 46.316 152.971594 
L 46.316 152.971594 
L 58.916 152.971594 
L 58.916 152.971594 
L 71.516 152.971594 
" style="fill: none; stroke: #83a83b; stroke-width: 1.2; stroke-linecap: square"/>
    </g>
    <g id="text_19">
     <!-- Max -->
     <g style="fill: #b1bed6" transform="translate(81.596 157.381594) scale(0.126 -0.126)">
      <defs>
       <path id="DejaVuSans-4d" d="M 628 4666 
L 1569 4666 
L 2759 1491 
L 3956 4666 
L 4897 4666 
L 4897 0 
L 4281 0 
L 4281 4097 
L 3078 897 
L 2444 897 
L 1241 4097 
L 1241 0 
L 628 0 
L 628 4666 
z
" transform="scale(0.015625)"/>
       <path id="DejaVuSans-78" d="M 3513 3500 
L 2247 1797 
L 3578 0 
L 2900 0 
L 1881 1375 
L 863 0 
L 184 0 
L 1544 1831 
L 300 3500 
L 978 3500 
L 1906 2253 
L 2834 3500 
L 3513 3500 
z
" transform="scale(0.015625)"/>
      </defs>
      <use xlink:href="#DejaVuSans-4d"/>
      <use xlink:href="#DejaVuSans-61" transform="translate(86.279297 0)"/>
      <use xlink:href="#DejaVuSans-78" transform="translate(147.558594 0)"/>
     </g>
    </g>
    <g id="line2d_85">
     <path d="M 46.316 171.466031 
L 46.316 171.466031 
L 58.916 171.466031 
L 58.916 171.466031 
L 71.516 171.466031 
" style="fill: none; stroke: #c44e52; stroke-width: 1.2; stroke-linecap: square"/>
    </g>
    <g id="text_20">
     <!-- local_Min -->
     <g style="fill: #b1bed6" transform="translate(81.596 175.876031) scale(0.126 -0.126)">
      <defs>
       <path id="DejaVuSans-6c" d="M 603 4863 
L 1178 4863 
L 1178 0 
L 603 0 
L 603 4863 
z
" transform="scale(0.015625)"/>
       <path id="DejaVuSans-6f" d="M 1959 3097 
Q 1497 3097 1228 2736 
Q 959 2375 959 1747 
Q 959 1119 1226 758 
Q 1494 397 1959 397 
Q 2419 397 2687 759 
Q 2956 1122 2956 1747 
Q 2956 2369 2687 2733 
Q 2419 3097 1959 3097 
z
M 1959 3584 
Q 2709 3584 3137 3096 
Q 3566 2609 3566 1747 
Q 3566 888 3137 398 
Q 2709 -91 1959 -91 
Q 1206 -91 779 398 
Q 353 888 353 1747 
Q 353 2609 779 3096 
Q 1206 3584 1959 3584 
z
" transform="scale(0.015625)"/>
       <path id="DejaVuSans-63" d="M 3122 3366 
L 3122 2828 
Q 2878 2963 2633 3030 
Q 2388 3097 2138 3097 
Q 1578 3097 1268 2742 
Q 959 2388 959 1747 
Q 959 1106 1268 751 
Q 1578 397 2138 397 
Q 2388 397 2633 464 
Q 2878 531 3122 666 
L 3122 134 
Q 2881 22 2623 -34 
Q 2366 -91 2075 -91 
Q 1284 -91 818 406 
Q 353 903 353 1747 
Q 353 2603 823 3093 
Q 1294 3584 2113 3584 
Q 2378 3584 2631 3529 
Q 2884 3475 3122 3366 
z
" transform="scale(0.015625)"/>
       <path id="DejaVuSans-5f" d="M 3263 -1063 
L 3263 -1509 
L -63 -1509 
L -63 -1063 
L 3263 -1063 
z
" transform="scale(0.015625)"/>
       <path id="DejaVuSans-69" d="M 603 3500 
L 1178 3500 
L 1178 0 
L 603 0 
L 603 3500 
z
M 603 4863 
L 1178 4863 
L 1178 4134 
L 603 4134 
L 603 4863 
z
" transform="scale(0.015625)"/>
       <path id="DejaVuSans-6e" d="M 3513 2113 
L 3513 0 
L 2938 0 
L 2938 2094 
Q 2938 2591 2744 2837 
Q 2550 3084 2163 3084 
Q 1697 3084 1428 2787 
Q 1159 2491 1159 1978 
L 1159 0 
L 581 0 
L 581 3500 
L 1159 3500 
L 1159 2956 
Q 1366 3272 1645 3428 
Q 1925 3584 2291 3584 
Q 2894 3584 3203 3211 
Q 3513 2838 3513 2113 
z
" transform="scale(0.015625)"/>
      </defs>
      <use xlink:href="#DejaVuSans-6c"/>
      <use xlink:href="#DejaVuSans-6f" transform="translate(27.783203 0)"/>
      <use xlink:href="#DejaVuSans-63" transform="translate(88.964844 0)"/>
      <use xlink:href="#DejaVuSans-61" transform="translate(143.945312 0)"/>
      <use xlink:href="#DejaVuSans-6c" transform="translate(205.224609 0)"/>
      <use xlink:href="#DejaVuSans-5f" transform="translate(233.007812 0)"/>
      <use xlink:href="#DejaVuSans-4d" transform="translate(283.007812 0)"/>
      <use xlink:href="#DejaVuSans-69" transform="translate(369.287109 0)"/>
      <use xlink:href="#DejaVuSans-6e" transform="translate(397.070312 0)"/>
     </g>
    </g>
   </g>
  </g>
 </g>
 <defs>
  <clipPath id="p9f97196c2f">
   <rect x="34.976" y="7.2" width="892.8" height="293.76"/>
  </clipPath>
 </defs>
</svg>
