<?xml version="1.0" encoding="utf-8" standalone="no"?>
<!DOCTYPE svg PUBLIC "-//W3C//DTD SVG 1.1//EN"
  "http://www.w3.org/Graphics/SVG/1.1/DTD/svg11.dtd">
<svg xmlns:xlink="http://www.w3.org/1999/xlink" width="934.976pt" height="358.290693pt" viewBox="0 0 934.976 358.290693" xmlns="http://www.w3.org/2000/svg" version="1.1">
 <metadata>
  <rdf:RDF xmlns:dc="http://purl.org/dc/elements/1.1/" xmlns:cc="http://creativecommons.org/ns#" xmlns:rdf="http://www.w3.org/1999/02/22-rdf-syntax-ns#">
   <cc:Work>
    <dc:type rdf:resource="http://purl.org/dc/dcmitype/StillImage"/>
    <dc:date>2026-05-09T06:33:55.875245</dc:date>
    <dc:format>image/svg+xml</dc:format>
    <dc:creator>
     <cc:Agent>
      <dc:title>Matplotlib v3.10.9, https://matplotlib.org/</dc:title>
     </cc:Agent>
    </dc:creator>
   </cc:Work>
  </rdf:RDF>
 </metadata>
 <defs>
  <style type="text/css">*{stroke-linejoin: round; stroke-linecap: butt}</style>
 </defs>
 <g id="figure_1">
  <g id="patch_1">
   <path d="M 0 358.290693 
L 934.976 358.290693 
L 934.976 0 
L 0 0 
z
" style="fill: #373e4b"/>
  </g>
  <g id="axes_1">
   <g id="patch_2">
    <path d="M 34.976 300.96 
L 927.776 300.96 
L 927.776 7.2 
L 34.976 7.2 
z
" style="fill: #373e4b"/>
   </g>
   <g id="matplotlib.axis_1">
    <g id="xtick_1">
     <g id="line2d_1">
      <path d="M 136.424027 300.96 
L 136.424027 7.2 
" clip-path="url(#p277ae7eee5)" style="fill: none; stroke: #546379; stroke-width: 1.12; stroke-linecap: square"/>
     </g>
     <g id="line2d_2"/>
     <g id="text_1">
      <!-- 2012 -->
      <g style="fill: #b1bed6" transform="translate(107.342987 330.884854) rotate(-30) scale(0.126 -0.126)">
       <defs>
        <path id="DejaVuSans-32" d="M 1228 531 
L 3431 531 
L 3431 0 
L 469 0 
L 469 531 
Q 828 903 1448 1529 
Q 2069 2156 2228 2338 
Q 2531 2678 2651 2914 
Q 2772 3150 2772 3378 
Q 2772 3750 2511 3984 
Q 2250 4219 1831 4219 
Q 1534 4219 1204 4116 
Q 875 4013 500 3803 
L 500 4441 
Q 881 4594 1212 4672 
Q 1544 4750 1819 4750 
Q 2544 4750 2975 4387 
Q 3406 4025 3406 3419 
Q 3406 3131 3298 2873 
Q 3191 2616 2906 2266 
Q 2828 2175 2409 1742 
Q 1991 1309 1228 531 
z
" transform="scale(0.015625)"/>
        <path id="DejaVuSans-30" d="M 2034 4250 
Q 1547 4250 1301 3770 
Q 1056 3291 1056 2328 
Q 1056 1369 1301 889 
Q 1547 409 2034 409 
Q 2525 409 2770 889 
Q 3016 1369 3016 2328 
Q 3016 3291 2770 3770 
Q 2525 4250 2034 4250 
z
M 2034 4750 
Q 2819 4750 3233 4129 
Q 3647 3509 3647 2328 
Q 3647 1150 3233 529 
Q 2819 -91 2034 -91 
Q 1250 -91 836 529 
Q 422 1150 422 2328 
Q 422 3509 836 4129 
Q 1250 4750 2034 4750 
z
" transform="scale(0.015625)"/>
        <path id="DejaVuSans-31" d="M 794 531 
L 1825 531 
L 1825 4091 
L 703 3866 
L 703 4441 
L 1819 4666 
L 2450 4666 
L 2450 531 
L 3481 531 
L 3481 0 
L 794 0 
L 794 531 
z
" transform="scale(0.015625)"/>
       </defs>
       <use xlink:href="#DejaVuSans-32"/>
       <use xlink:href="#DejaVuSans-30" transform="translate(63.623047 0)"/>
       <use xlink:href="#DejaVuSans-31" transform="translate(127.246094 0)"/>
       <use xlink:href="#DejaVuSans-32" transform="translate(190.869141 0)"/>
      </g>
     </g>
    </g>
    <g id="xtick_2">
     <g id="line2d_3">
      <path d="M 241.113905 300.96 
L 241.113905 7.2 
" clip-path="url(#p277ae7eee5)" style="fill: none; stroke: #546379; stroke-width: 1.12; stroke-linecap: square"/>
     </g>
     <g id="line2d_4"/>
     <g id="text_2">
      <!-- 2014 -->
      <g style="fill: #b1bed6" transform="translate(212.032866 330.884854) rotate(-30) scale(0.126 -0.126)">
       <defs>
        <path id="DejaVuSans-34" d="M 2419 4116 
L 825 1625 
L 2419 1625 
L 2419 4116 
z
M 2253 4666 
L 3047 4666 
L 3047 1625 
L 3713 1625 
L 3713 1100 
L 3047 1100 
L 3047 0 
L 2419 0 
L 2419 1100 
L 313 1100 
L 313 1709 
L 2253 4666 
z
" transform="scale(0.015625)"/>
       </defs>
       <use xlink:href="#DejaVuSans-32"/>
       <use xlink:href="#DejaVuSans-30" transform="translate(63.623047 0)"/>
       <use xlink:href="#DejaVuSans-31" transform="translate(127.246094 0)"/>
       <use xlink:href="#DejaVuSans-34" transform="translate(190.869141 0)"/>
      </g>
     </g>
    </g>
    <g id="xtick_3">
     <g id="line2d_5">
      <path d="M 345.66057 300.96 
L 345.66057 7.2 
" clip-path="url(#p277ae7eee5)" style="fill: none; stroke: #546379; stroke-width: 1.12; stroke-linecap: square"/>
     </g>
     <g id="line2d_6"/>
     <g id="text_3">
      <!-- 2016 -->
      <g style="fill: #b1bed6" transform="translate(316.57953 330.884854) rotate(-30) scale(0.126 -0.126)">
       <defs>
        <path id="DejaVuSans-36" d="M 2113 2584 
Q 1688 2584 1439 2293 
Q 1191 2003 1191 1497 
Q 1191 994 1439 701 
Q 1688 409 2113 409 
Q 2538 409 2786 701 
Q 3034 994 3034 1497 
Q 3034 2003 2786 2293 
Q 2538 2584 2113 2584 
z
M 3366 4563 
L 3366 3988 
Q 3128 4100 2886 4159 
Q 2644 4219 2406 4219 
Q 1781 4219 1451 3797 
Q 1122 3375 1075 2522 
Q 1259 2794 1537 2939 
Q 1816 3084 2150 3084 
Q 2853 3084 3261 2657 
Q 3669 2231 3669 1497 
Q 3669 778 3244 343 
Q 2819 -91 2113 -91 
Q 1303 -91 875 529 
Q 447 1150 447 2328 
Q 447 3434 972 4092 
Q 1497 4750 2381 4750 
Q 2619 4750 2861 4703 
Q 3103 4656 3366 4563 
z
" transform="scale(0.015625)"/>
       </defs>
       <use xlink:href="#DejaVuSans-32"/>
       <use xlink:href="#DejaVuSans-30" transform="translate(63.623047 0)"/>
       <use xlink:href="#DejaVuSans-31" transform="translate(127.246094 0)"/>
       <use xlink:href="#DejaVuSans-36" transform="translate(190.869141 0)"/>
      </g>
     </g>
    </g>
    <g id="xtick_4">
     <g id="line2d_7">
      <path d="M 450.350448 300.96 
L 450.350448 7.2 
" clip-path="url(#p277ae7eee5)" style="fill: none; stroke: #546379; stroke-width: 1.12; stroke-linecap: square"/>
     </g>
     <g id="line2d_8"/>
     <g id="text_4">
      <!-- 2018 -->
      <g style="fill: #b1bed6" transform="translate(421.269409 330.884854) rotate(-30) scale(0.126 -0.126)">
       <defs>
        <path id="DejaVuSans-38" d="M 2034 2216 
Q 1584 2216 1326 1975 
Q 1069 1734 1069 1313 
Q 1069 891 1326 650 
Q 1584 409 2034 409 
Q 2484 409 2743 651 
Q 3003 894 3003 1313 
Q 3003 1734 2745 1975 
Q 2488 2216 2034 2216 
z
M 1403 2484 
Q 997 2584 770 2862 
Q 544 3141 544 3541 
Q 544 4100 942 4425 
Q 1341 4750 2034 4750 
Q 2731 4750 3128 4425 
Q 3525 4100 3525 3541 
Q 3525 3141 3298 2862 
Q 3072 2584 2669 2484 
Q 3125 2378 3379 2068 
Q 3634 1759 3634 1313 
Q 3634 634 3220 271 
Q 2806 -91 2034 -91 
Q 1263 -91 848 271 
Q 434 634 434 1313 
Q 434 1759 690 2068 
Q 947 2378 1403 2484 
z
M 1172 3481 
Q 1172 3119 1398 2916 
Q 1625 2713 2034 2713 
Q 2441 2713 2670 2916 
Q 2900 3119 2900 3481 
Q 2900 3844 2670 4047 
Q 2441 4250 2034 4250 
Q 1625 4250 1398 4047 
Q 1172 3844 1172 3481 
z
" transform="scale(0.015625)"/>
       </defs>
       <use xlink:href="#DejaVuSans-32"/>
       <use xlink:href="#DejaVuSans-30" transform="translate(63.623047 0)"/>
       <use xlink:href="#DejaVuSans-31" transform="translate(127.246094 0)"/>
       <use xlink:href="#DejaVuSans-38" transform="translate(190.869141 0)"/>
      </g>
     </g>
    </g>
    <g id="xtick_5">
     <g id="line2d_9">
      <path d="M 554.897113 300.96 
L 554.897113 7.2 
" clip-path="url(#p277ae7eee5)" style="fill: none; stroke: #546379; stroke-width: 1.12; stroke-linecap: square"/>
     </g>
     <g id="line2d_10"/>
     <g id="text_5">
      <!-- 2020 -->
      <g style="fill: #b1bed6" transform="translate(525.816073 330.884854) rotate(-30) scale(0.126 -0.126)">
       <use xlink:href="#DejaVuSans-32"/>
       <use xlink:href="#DejaVuSans-30" transform="translate(63.623047 0)"/>
       <use xlink:href="#DejaVuSans-32" transform="translate(127.246094 0)"/>
       <use xlink:href="#DejaVuSans-30" transform="translate(190.869141 0)"/>
      </g>
     </g>
    </g>
    <g id="xtick_6">
     <g id="line2d_11">
      <path d="M 659.586991 300.96 
L 659.586991 7.2 
" clip-path="url(#p277ae7eee5)" style="fill: none; stroke: #546379; stroke-width: 1.12; stroke-linecap: square"/>
     </g>
     <g id="line2d_12"/>
     <g id="text_6">
      <!-- 2022 -->
      <g style="fill: #b1bed6" transform="translate(630.505952 330.884854) rotate(-30) scale(0.126 -0.126)">
       <use xlink:href="#DejaVuSans-32"/>
       <use xlink:href="#DejaVuSans-30" transform="translate(63.623047 0)"/>
       <use xlink:href="#DejaVuSans-32" transform="translate(127.246094 0)"/>
       <use xlink:href="#DejaVuSans-32" transform="translate(190.869141 0)"/>
      </g>
     </g>
    </g>
    <g id="xtick_7">
     <g id="line2d_13">
      <path d="M 764.133655 300.96 
L 764.133655 7.2 
" clip-path="url(#p277ae7eee5)" style="fill: none; stroke: #546379; stroke-width: 1.12; stroke-linecap: square"/>
     </g>
     <g id="line2d_14"/>
     <g id="text_7">
      <!-- 2024 -->
      <g style="fill: #b1bed6" transform="translate(735.052616 330.884854) rotate(-30) scale(0.126 -0.126)">
       <use xlink:href="#DejaVuSans-32"/>
       <use xlink:href="#DejaVuSans-30" transform="translate(63.623047 0)"/>
       <use xlink:href="#DejaVuSans-32" transform="translate(127.246094 0)"/>
       <use xlink:href="#DejaVuSans-34" transform="translate(190.869141 0)"/>
      </g>
     </g>
    </g>
    <g id="xtick_8">
     <g id="line2d_15">
      <path d="M 868.823534 300.96 
L 868.823534 7.2 
" clip-path="url(#p277ae7eee5)" style="fill: none; stroke: #546379; stroke-width: 1.12; stroke-linecap: square"/>
     </g>
     <g id="line2d_16"/>
     <g id="text_8">
      <!-- 2026 -->
      <g style="fill: #b1bed6" transform="translate(839.742494 330.884854) rotate(-30) scale(0.126 -0.126)">
       <use xlink:href="#DejaVuSans-32"/>
       <use xlink:href="#DejaVuSans-30" transform="translate(63.623047 0)"/>
       <use xlink:href="#DejaVuSans-32" transform="translate(127.246094 0)"/>
       <use xlink:href="#DejaVuSans-36" transform="translate(190.869141 0)"/>
      </g>
     </g>
    </g>
    <g id="text_9">
     <!-- Date -->
     <g style="fill: #b1bed6" transform="translate(464.166875 348.095943) scale(0.144 -0.144)">
      <defs>
       <path id="DejaVuSans-44" d="M 1259 4147 
L 1259 519 
L 2022 519 
Q 2988 519 3436 956 
Q 3884 1394 3884 2338 
Q 3884 3275 3436 3711 
Q 2988 4147 2022 4147 
L 1259 4147 
z
M 628 4666 
L 1925 4666 
Q 3281 4666 3915 4102 
Q 4550 3538 4550 2338 
Q 4550 1131 3912 565 
Q 3275 0 1925 0 
L 628 0 
L 628 4666 
z
" transform="scale(0.015625)"/>
       <path id="DejaVuSans-61" d="M 2194 1759 
Q 1497 1759 1228 1600 
Q 959 1441 959 1056 
Q 959 750 1161 570 
Q 1363 391 1709 391 
Q 2188 391 2477 730 
Q 2766 1069 2766 1631 
L 2766 1759 
L 2194 1759 
z
M 3341 1997 
L 3341 0 
L 2766 0 
L 2766 531 
Q 2569 213 2275 61 
Q 1981 -91 1556 -91 
Q 1019 -91 701 211 
Q 384 513 384 1019 
Q 384 1609 779 1909 
Q 1175 2209 1959 2209 
L 2766 2209 
L 2766 2266 
Q 2766 2663 2505 2880 
Q 2244 3097 1772 3097 
Q 1472 3097 1187 3025 
Q 903 2953 641 2809 
L 641 3341 
Q 956 3463 1253 3523 
Q 1550 3584 1831 3584 
Q 2591 3584 2966 3190 
Q 3341 2797 3341 1997 
z
" transform="scale(0.015625)"/>
       <path id="DejaVuSans-74" d="M 1172 4494 
L 1172 3500 
L 2356 3500 
L 2356 3053 
L 1172 3053 
L 1172 1153 
Q 1172 725 1289 603 
Q 1406 481 1766 481 
L 2356 481 
L 2356 0 
L 1766 0 
Q 1100 0 847 248 
Q 594 497 594 1153 
L 594 3053 
L 172 3053 
L 172 3500 
L 594 3500 
L 594 4494 
L 1172 4494 
z
" transform="scale(0.015625)"/>
       <path id="DejaVuSans-65" d="M 3597 1894 
L 3597 1613 
L 953 1613 
Q 991 1019 1311 708 
Q 1631 397 2203 397 
Q 2534 397 2845 478 
Q 3156 559 3463 722 
L 3463 178 
Q 3153 47 2828 -22 
Q 2503 -91 2169 -91 
Q 1331 -91 842 396 
Q 353 884 353 1716 
Q 353 2575 817 3079 
Q 1281 3584 2069 3584 
Q 2775 3584 3186 3129 
Q 3597 2675 3597 1894 
z
M 3022 2063 
Q 3016 2534 2758 2815 
Q 2500 3097 2075 3097 
Q 1594 3097 1305 2825 
Q 1016 2553 972 2059 
L 3022 2063 
z
" transform="scale(0.015625)"/>
      </defs>
      <use xlink:href="#DejaVuSans-44"/>
      <use xlink:href="#DejaVuSans-61" transform="translate(77.001953 0)"/>
      <use xlink:href="#DejaVuSans-74" transform="translate(138.28125 0)"/>
      <use xlink:href="#DejaVuSans-65" transform="translate(177.490234 0)"/>
     </g>
    </g>
   </g>
   <g id="matplotlib.axis_2">
    <g id="ytick_1">
     <g id="line2d_17">
      <path d="M 34.976 255.37232 
L 927.776 255.37232 
" clip-path="url(#p277ae7eee5)" style="fill: none; stroke: #546379; stroke-width: 1.12; stroke-linecap: square"/>
     </g>
     <g id="line2d_18"/>
     <g id="text_10">
      <!-- $\mathdefault{10^{0}}$ -->
      <g style="fill: #b1bed6" transform="translate(7.2 260.159335) scale(0.126 -0.126)">
       <use xlink:href="#DejaVuSans-31" transform="translate(0 0.765625)"/>
       <use xlink:href="#DejaVuSans-30" transform="translate(63.623047 0.765625)"/>
       <use xlink:href="#DejaVuSans-30" transform="translate(128.203125 39.046875) scale(0.7)"/>
      </g>
     </g>
    </g>
    <g id="ytick_2">
     <g id="line2d_19">
      <path d="M 34.976 209.254528 
L 927.776 209.254528 
" clip-path="url(#p277ae7eee5)" style="fill: none; stroke: #546379; stroke-width: 1.12; stroke-linecap: square"/>
     </g>
     <g id="line2d_20"/>
     <g id="text_11">
      <!-- $\mathdefault{10^{1}}$ -->
      <g style="fill: #b1bed6" transform="translate(7.2 214.041544) scale(0.126 -0.126)">
       <use xlink:href="#DejaVuSans-31" transform="translate(0 0.684375)"/>
       <use xlink:href="#DejaVuSans-30" transform="translate(63.623047 0.684375)"/>
       <use xlink:href="#DejaVuSans-31" transform="translate(128.203125 38.965625) scale(0.7)"/>
      </g>
     </g>
    </g>
    <g id="ytick_3">
     <g id="line2d_21">
      <path d="M 34.976 163.136737 
L 927.776 163.136737 
" clip-path="url(#p277ae7eee5)" style="fill: none; stroke: #546379; stroke-width: 1.12; stroke-linecap: square"/>
     </g>
     <g id="line2d_22"/>
     <g id="text_12">
      <!-- $\mathdefault{10^{2}}$ -->
      <g style="fill: #b1bed6" transform="translate(7.2 167.923752) scale(0.126 -0.126)">
       <use xlink:href="#DejaVuSans-31" transform="translate(0 0.765625)"/>
       <use xlink:href="#DejaVuSans-30" transform="translate(63.623047 0.765625)"/>
       <use xlink:href="#DejaVuSans-32" transform="translate(128.203125 39.046875) scale(0.7)"/>
      </g>
     </g>
    </g>
    <g id="ytick_4">
     <g id="line2d_23">
      <path d="M 34.976 117.018945 
L 927.776 117.018945 
" clip-path="url(#p277ae7eee5)" style="fill: none; stroke: #546379; stroke-width: 1.12; stroke-linecap: square"/>
     </g>
     <g id="line2d_24"/>
     <g id="text_13">
      <!-- $\mathdefault{10^{3}}$ -->
      <g style="fill: #b1bed6" transform="translate(7.2 121.805961) scale(0.126 -0.126)">
       <defs>
        <path id="DejaVuSans-33" d="M 2597 2516 
Q 3050 2419 3304 2112 
Q 3559 1806 3559 1356 
Q 3559 666 3084 287 
Q 2609 -91 1734 -91 
Q 1441 -91 1130 -33 
Q 819 25 488 141 
L 488 750 
Q 750 597 1062 519 
Q 1375 441 1716 441 
Q 2309 441 2620 675 
Q 2931 909 2931 1356 
Q 2931 1769 2642 2001 
Q 2353 2234 1838 2234 
L 1294 2234 
L 1294 2753 
L 1863 2753 
Q 2328 2753 2575 2939 
Q 2822 3125 2822 3475 
Q 2822 3834 2567 4026 
Q 2313 4219 1838 4219 
Q 1578 4219 1281 4162 
Q 984 4106 628 3988 
L 628 4550 
Q 988 4650 1302 4700 
Q 1616 4750 1894 4750 
Q 2613 4750 3031 4423 
Q 3450 4097 3450 3541 
Q 3450 3153 3228 2886 
Q 3006 2619 2597 2516 
z
" transform="scale(0.015625)"/>
       </defs>
       <use xlink:href="#DejaVuSans-31" transform="translate(0 0.765625)"/>
       <use xlink:href="#DejaVuSans-30" transform="translate(63.623047 0.765625)"/>
       <use xlink:href="#DejaVuSans-33" transform="translate(128.203125 39.046875) scale(0.7)"/>
      </g>
     </g>
    </g>
    <g id="ytick_5">
     <g id="line2d_25">
      <path d="M 34.976 70.901154 
L 927.776 70.901154 
" clip-path="url(#p277ae7eee5)" style="fill: none; stroke: #546379; stroke-width: 1.12; stroke-linecap: square"/>
     </g>
     <g id="line2d_26"/>
     <g id="text_14">
      <!-- $\mathdefault{10^{4}}$ -->
      <g style="fill: #b1bed6" transform="translate(7.2 75.688169) scale(0.126 -0.126)">
       <use xlink:href="#DejaVuSans-31" transform="translate(0 0.684375)"/>
       <use xlink:href="#DejaVuSans-30" transform="translate(63.623047 0.684375)"/>
       <use xlink:href="#DejaVuSans-34" transform="translate(128.203125 38.965625) scale(0.7)"/>
      </g>
     </g>
    </g>
    <g id="ytick_6">
     <g id="line2d_27">
      <path d="M 34.976 24.783362 
L 927.776 24.783362 
" clip-path="url(#p277ae7eee5)" style="fill: none; stroke: #546379; stroke-width: 1.12; stroke-linecap: square"/>
     </g>
     <g id="line2d_28"/>
     <g id="text_15">
      <!-- $\mathdefault{10^{5}}$ -->
      <g style="fill: #b1bed6" transform="translate(7.2 29.570378) scale(0.126 -0.126)">
       <defs>
        <path id="DejaVuSans-35" d="M 691 4666 
L 3169 4666 
L 3169 4134 
L 1269 4134 
L 1269 2991 
Q 1406 3038 1543 3061 
Q 1681 3084 1819 3084 
Q 2600 3084 3056 2656 
Q 3513 2228 3513 1497 
Q 3513 744 3044 326 
Q 2575 -91 1722 -91 
Q 1428 -91 1123 -41 
Q 819 9 494 109 
L 494 744 
Q 775 591 1075 516 
Q 1375 441 1709 441 
Q 2250 441 2565 725 
Q 2881 1009 2881 1497 
Q 2881 1984 2565 2268 
Q 2250 2553 1709 2553 
Q 1456 2553 1204 2497 
Q 953 2441 691 2322 
L 691 4666 
z
" transform="scale(0.015625)"/>
       </defs>
       <use xlink:href="#DejaVuSans-31" transform="translate(0 0.684375)"/>
       <use xlink:href="#DejaVuSans-30" transform="translate(63.623047 0.684375)"/>
       <use xlink:href="#DejaVuSans-35" transform="translate(128.203125 38.965625) scale(0.7)"/>
      </g>
     </g>
    </g>
    <g id="ytick_7">
     <g id="line2d_29"/>
    </g>
    <g id="ytick_8">
     <g id="line2d_30"/>
    </g>
    <g id="ytick_9">
     <g id="line2d_31"/>
    </g>
    <g id="ytick_10">
     <g id="line2d_32"/>
    </g>
    <g id="ytick_11">
     <g id="line2d_33"/>
    </g>
    <g id="ytick_12">
     <g id="line2d_34"/>
    </g>
    <g id="ytick_13">
     <g id="line2d_35"/>
    </g>
    <g id="ytick_14">
     <g id="line2d_36"/>
    </g>
    <g id="ytick_15">
     <g id="line2d_37"/>
    </g>
    <g id="ytick_16">
     <g id="line2d_38"/>
    </g>
    <g id="ytick_17">
     <g id="line2d_39"/>
    </g>
    <g id="ytick_18">
     <g id="line2d_40"/>
    </g>
    <g id="ytick_19">
     <g id="line2d_41"/>
    </g>
    <g id="ytick_20">
     <g id="line2d_42"/>
    </g>
    <g id="ytick_21">
     <g id="line2d_43"/>
    </g>
    <g id="ytick_22">
     <g id="line2d_44"/>
    </g>
    <g id="ytick_23">
     <g id="line2d_45"/>
    </g>
    <g id="ytick_24">
     <g id="line2d_46"/>
    </g>
    <g id="ytick_25">
     <g id="line2d_47"/>
    </g>
    <g id="ytick_26">
     <g id="line2d_48"/>
    </g>
    <g id="ytick_27">
     <g id="line2d_49"/>
    </g>
    <g id="ytick_28">
     <g id="line2d_50"/>
    </g>
    <g id="ytick_29">
     <g id="line2d_51"/>
    </g>
    <g id="ytick_30">
     <g id="line2d_52"/>
    </g>
    <g id="ytick_31">
     <g id="line2d_53"/>
    </g>
    <g id="ytick_32">
     <g id="line2d_54"/>
    </g>
    <g id="ytick_33">
     <g id="line2d_55"/>
    </g>
    <g id="ytick_34">
     <g id="line2d_56"/>
    </g>
    <g id="ytick_35">
     <g id="line2d_57"/>
    </g>
    <g id="ytick_36">
     <g id="line2d_58"/>
    </g>
    <g id="ytick_37">
     <g id="line2d_59"/>
    </g>
    <g id="ytick_38">
     <g id="line2d_60"/>
    </g>
    <g id="ytick_39">
     <g id="line2d_61"/>
    </g>
    <g id="ytick_40">
     <g id="line2d_62"/>
    </g>
    <g id="ytick_41">
     <g id="line2d_63"/>
    </g>
    <g id="ytick_42">
     <g id="line2d_64"/>
    </g>
    <g id="ytick_43">
     <g id="line2d_65"/>
    </g>
    <g id="ytick_44">
     <g id="line2d_66"/>
    </g>
    <g id="ytick_45">
     <g id="line2d_67"/>
    </g>
    <g id="ytick_46">
     <g id="line2d_68"/>
    </g>
    <g id="ytick_47">
     <g id="line2d_69"/>
    </g>
    <g id="ytick_48">
     <g id="line2d_70"/>
    </g>
    <g id="ytick_49">
     <g id="line2d_71"/>
    </g>
    <g id="ytick_50">
     <g id="line2d_72"/>
    </g>
    <g id="ytick_51">
     <g id="line2d_73"/>
    </g>
    <g id="ytick_52">
     <g id="line2d_74"/>
    </g>
    <g id="ytick_53">
     <g id="line2d_75"/>
    </g>
    <g id="ytick_54">
     <g id="line2d_76"/>
    </g>
    <g id="ytick_55">
     <g id="line2d_77"/>
    </g>
   </g>
   <g id="line2d_78">
    <path d="M 75.557818 287.607273 
L 75.557818 283.137997 
L 76.130677 283.137997 
L 76.130677 278.19371 
L 76.703535 278.19371 
L 76.703535 279.486333 
L 77.276393 279.486333 
L 77.276393 280.86817 
L 77.849252 280.86817 
L 77.849252 280.165337 
L 78.42211 280.165337 
L 78.42211 280.86817 
L 79.567827 280.86817 
L 79.567827 282.352457 
L 80.140686 282.352457 
L 80.140686 284.808022 
L 81.286403 284.808022 
L 81.286403 283.137997 
L 81.859261 283.137997 
L 81.859261 282.352457 
L 82.432119 282.352457 
L 82.432119 283.137997 
L 83.004978 283.137997 
L 83.004978 281.596567 
L 83.577836 281.596567 
L 83.577836 279.486333 
L 84.723553 279.486333 
L 84.723553 278.19371 
L 85.296412 278.19371 
L 85.296412 275.834669 
L 85.86927 275.834669 
L 85.86927 273.724434 
L 86.442128 273.724434 
L 86.442128 274.751772 
L 87.014987 274.751772 
L 87.014987 271.815495 
L 87.587845 271.815495 
L 87.587845 271.365393 
L 88.160704 271.365393 
L 88.160704 257.042345 
L 89.306421 257.042345 
L 89.306421 255.982378 
L 89.879279 255.982378 
L 89.879279 253.83089 
L 90.452137 253.83089 
L 90.452137 254.395116 
L 91.024996 254.395116 
L 91.024996 257.932656 
L 91.597854 257.932656 
L 91.597854 255.37232 
L 92.170713 255.37232 
L 92.170713 255.982378 
L 92.743571 255.982378 
L 92.743571 257.042345 
L 93.31643 257.042345 
L 93.31643 257.932656 
L 93.889288 257.932656 
L 93.889288 257.26124 
L 94.462146 257.26124 
L 94.462146 258.161558 
L 95.035005 258.161558 
L 95.035005 260.093532 
L 95.607863 260.093532 
L 95.607863 257.706341 
L 96.180722 257.706341 
L 96.180722 259.841596 
L 97.326439 259.841596 
L 97.326439 261.134218 
L 97.899297 261.134218 
L 97.899297 260.868934 
L 98.472156 260.868934 
L 98.472156 255.776954 
L 99.045014 255.776954 
L 99.045014 251.720656 
L 99.617872 251.720656 
L 99.617872 248.921405 
L 100.190731 248.921405 
L 100.190731 243.823502 
L 100.763589 243.823502 
L 100.763589 226.917627 
L 101.336448 226.917627 
L 101.336448 229.940664 
L 101.909306 229.940664 
L 101.909306 228.062436 
L 102.482165 228.062436 
L 102.482165 217.729074 
L 103.055023 217.729074 
L 103.055023 212.580386 
L 103.627881 212.580386 
L 103.627881 216.455571 
L 104.20074 216.455571 
L 104.20074 215.640255 
L 104.773598 215.640255 
L 104.773598 212.089863 
L 105.346457 212.089863 
L 105.346457 209.926627 
L 105.919315 209.926627 
L 105.919315 196.34639 
L 106.492174 196.34639 
L 106.492174 185.746445 
L 107.065032 185.746445 
L 107.065032 192.005794 
L 107.63789 192.005794 
L 107.63789 196.536537 
L 108.210749 196.536537 
L 108.210749 200.619497 
L 108.783607 200.619497 
L 108.783607 197.954799 
L 109.356466 197.954799 
L 109.356466 198.218565 
L 109.929324 198.218565 
L 109.929324 200.169105 
L 110.502183 200.169105 
L 110.502183 199.716176 
L 111.075041 199.716176 
L 111.075041 201.040338 
L 111.6479 201.040338 
L 111.6479 202.160926 
L 112.220758 202.160926 
L 112.220758 201.757417 
L 112.793616 201.757417 
L 112.793616 202.615821 
L 113.366475 202.615821 
L 113.366475 202.372872 
L 113.939333 202.372872 
L 113.939333 201.702393 
L 114.512192 201.702393 
L 114.512192 206.455278 
L 115.08505 206.455278 
L 115.08505 209.94735 
L 115.657909 209.94735 
L 115.657909 209.395222 
L 116.230767 209.395222 
L 116.230767 206.700602 
L 116.803625 206.700602 
L 116.803625 206.024537 
L 117.376484 206.024537 
L 117.376484 206.806668 
L 117.949342 206.806668 
L 117.949342 210.324077 
L 118.522201 210.324077 
L 118.522201 212.604047 
L 119.095059 212.604047 
L 119.095059 213.058992 
L 119.667918 213.058992 
L 119.667918 217.097011 
L 120.240776 217.097011 
L 120.240776 218.861295 
L 120.813634 218.861295 
L 120.813634 223.057412 
L 121.386493 223.057412 
L 121.386493 218.893678 
L 121.959351 218.893678 
L 121.959351 221.264877 
L 122.53221 221.264877 
L 122.53221 223.379165 
L 123.105068 223.379165 
L 123.105068 222.898453 
L 123.677927 222.898453 
L 123.677927 223.996748 
L 124.250785 223.996748 
L 124.250785 226.821103 
L 124.823643 226.821103 
L 124.823643 227.556633 
L 125.396502 227.556633 
L 125.396502 236.311847 
L 125.96936 236.311847 
L 125.96936 231.338582 
L 126.542219 231.338582 
L 126.542219 232.711804 
L 127.115077 232.711804 
L 127.115077 230.97985 
L 127.687936 230.97985 
L 127.687936 231.951129 
L 128.260794 231.951129 
L 128.260794 232.138606 
L 128.833653 232.138606 
L 128.833653 232.647299 
L 129.406511 232.647299 
L 129.406511 236.234665 
L 129.979369 236.234665 
L 129.979369 237.424839 
L 130.552228 237.424839 
L 130.552228 237.181079 
L 131.125086 237.181079 
L 131.125086 235.928878 
L 131.697945 235.928878 
L 131.697945 232.455022 
L 132.270803 232.455022 
L 132.270803 232.97192 
L 132.843662 232.97192 
L 132.843662 232.583001 
L 133.41652 232.583001 
L 133.41652 231.703858 
L 133.989378 231.703858 
L 133.989378 231.098715 
L 134.562237 231.098715 
L 134.562237 227.707037 
L 135.135095 227.707037 
L 135.135095 226.39241 
L 135.707954 226.39241 
L 135.707954 225.381573 
L 136.280812 225.381573 
L 136.280812 221.707518 
L 136.853671 221.707518 
L 136.853671 216.227322 
L 137.426529 216.227322 
L 137.426529 216.114165 
L 137.999387 216.114165 
L 137.999387 216.284141 
L 138.572246 216.284141 
L 138.572246 218.287185 
L 139.145104 218.287185 
L 139.145104 217.975205 
L 139.717963 217.975205 
L 139.717963 220.513041 
L 140.290821 220.513041 
L 140.290821 220.689506 
L 140.86368 220.689506 
L 140.86368 219.519112 
L 141.436538 219.519112 
L 141.436538 220.027052 
L 142.582255 220.095761 
L 142.582255 224.206915 
L 143.155113 224.206915 
L 143.155113 225.247601 
L 143.727972 225.247601 
L 143.727972 222.467712 
L 144.30083 222.467712 
L 144.30083 223.217642 
L 144.873689 223.217642 
L 144.873689 223.913295 
L 145.446547 223.913295 
L 145.446547 222.938075 
L 146.019406 222.938075 
L 146.019406 223.217642 
L 146.592264 223.217642 
L 146.592264 221.448123 
L 147.165122 221.448123 
L 147.165122 222.236609 
L 147.737981 222.236609 
L 147.737981 223.913295 
L 148.310839 223.913295 
L 148.310839 224.080551 
L 148.883698 224.080551 
L 148.883698 223.379165 
L 150.029415 223.298241 
L 150.029415 223.954978 
L 150.602273 223.954978 
L 150.602273 223.257901 
L 151.74799 223.177464 
L 151.74799 222.198349 
L 152.320848 222.198349 
L 152.320848 222.390381 
L 152.893707 222.390381 
L 152.893707 222.780056 
L 153.466565 222.780056 
L 153.466565 222.429009 
L 154.039424 222.429009 
L 154.039424 222.740746 
L 155.18514 222.740746 
L 155.18514 222.938075 
L 155.757999 222.938075 
L 155.757999 222.623275 
L 157.476574 222.545342 
L 157.476574 222.429009 
L 158.049433 222.429009 
L 158.049433 222.084008 
L 158.622291 222.084008 
L 158.622291 221.011116 
L 159.768008 220.939199 
L 159.768008 218.604102 
L 160.340866 218.604102 
L 160.340866 217.698519 
L 160.913725 217.698519 
L 160.913725 217.455744 
L 161.486583 217.455744 
L 161.486583 217.637549 
L 162.059442 217.637549 
L 162.059442 217.245703 
L 162.6323 217.245703 
L 162.6323 217.097011 
L 163.205159 217.097011 
L 163.205159 216.455571 
L 163.778017 216.455571 
L 163.778017 214.102908 
L 164.350875 214.102908 
L 164.350875 210.345215 
L 164.923734 210.345215 
L 164.923734 210.218718 
L 165.496592 210.218718 
L 165.496592 211.814865 
L 166.069451 211.814865 
L 166.069451 211.476343 
L 166.642309 211.476343 
L 166.642309 209.015614 
L 167.215168 209.015614 
L 167.215168 206.931125 
L 167.788026 206.931125 
L 167.788026 206.281868 
L 168.360884 206.281868 
L 168.360884 205.108303 
L 168.933743 205.108303 
L 168.933743 201.840237 
L 169.506601 201.840237 
L 169.506601 208.740437 
L 170.07946 208.740437 
L 170.07946 207.363805 
L 170.652318 207.363805 
L 170.652318 207.510134 
L 171.225177 207.510134 
L 171.225177 208.239211 
L 171.798035 208.239211 
L 171.798035 206.859912 
L 172.943752 206.913298 
L 172.943752 205.87171 
L 173.51661 205.87171 
L 173.51661 204.57803 
L 174.089469 204.57803 
L 174.089469 205.140897 
L 174.662327 205.140897 
L 174.662327 204.849447 
L 175.235186 204.849447 
L 175.235186 204.657477 
L 175.808044 204.657477 
L 175.808044 204.045986 
L 176.380902 204.045986 
L 176.380902 205.108303 
L 176.953761 205.108303 
L 176.953761 205.43665 
L 177.526619 205.43665 
L 177.526619 205.636273 
L 178.099478 205.636273 
L 178.099478 205.939489 
L 178.672336 205.939489 
L 178.672336 206.351052 
L 179.245195 206.351052 
L 179.245195 207.473452 
L 179.818053 207.473452 
L 179.818053 207.236638 
L 180.390912 207.236638 
L 180.390912 207.400287 
L 181.536628 207.436836 
L 181.536628 207.218538 
L 182.109487 207.218538 
L 182.109487 205.905571 
L 182.682345 205.905571 
L 182.682345 205.075763 
L 183.255204 205.075763 
L 183.255204 204.593894 
L 184.400921 204.530512 
L 184.400921 203.86153 
L 184.973779 203.86153 
L 184.973779 203.169779 
L 185.546637 203.169779 
L 185.546637 202.803614 
L 186.119496 202.803614 
L 186.119496 203.051876 
L 187.265213 202.949278 
L 187.265213 203.318141 
L 187.838071 203.318141 
L 187.838071 203.022509 
L 188.41093 203.022509 
L 188.41093 203.214173 
L 189.556646 203.184566 
L 189.556646 202.529737 
L 190.129505 202.529737 
L 190.129505 202.076772 
L 190.702363 202.076772 
L 190.702363 200.438123 
L 191.275222 200.438123 
L 191.275222 198.474155 
L 191.84808 198.474155 
L 191.84808 196.8899 
L 192.420939 196.8899 
L 192.420939 195.593226 
L 192.993797 195.593226 
L 192.993797 194.394486 
L 193.566656 194.394486 
L 193.566656 193.895273 
L 194.139514 193.895273 
L 194.139514 191.745077 
L 194.712372 191.745077 
L 194.712372 189.21317 
L 195.285231 189.21317 
L 195.285231 189.375826 
L 195.858089 189.375826 
L 195.858089 186.90656 
L 196.430948 186.90656 
L 196.430948 186.46521 
L 197.003806 186.46521 
L 197.003806 184.597163 
L 197.576665 184.597163 
L 197.576665 180.511647 
L 198.149523 180.511647 
L 198.149523 178.864525 
L 198.722381 178.864525 
L 198.722381 178.318608 
L 199.29524 178.318608 
L 199.29524 176.187869 
L 199.868098 176.187869 
L 199.868098 170.209069 
L 200.440957 170.209069 
L 200.440957 167.911261 
L 201.013815 167.911261 
L 201.013815 164.698205 
L 201.586674 164.698205 
L 201.586674 157.728444 
L 202.159532 157.728444 
L 202.159532 153.314284 
L 202.73239 153.314284 
L 202.73239 158.68349 
L 203.305249 158.68349 
L 203.305249 170.831623 
L 203.878107 170.831623 
L 203.878107 159.666147 
L 204.450966 159.666147 
L 204.450966 156.043135 
L 205.023824 156.043135 
L 205.023824 158.114365 
L 205.596683 158.114365 
L 205.596683 159.992155 
L 206.169541 159.992155 
L 206.169541 160.16753 
L 206.742399 160.16753 
L 206.742399 160.743898 
L 207.315258 160.743898 
L 207.315258 159.823395 
L 207.888116 159.823395 
L 207.888116 158.938472 
L 209.033833 159.039422 
L 209.033833 157.577651 
L 210.17955 157.530665 
L 210.17955 159.085179 
L 210.752409 159.085179 
L 210.752409 159.657728 
L 211.325267 159.657728 
L 211.325267 161.9508 
L 211.898125 161.9508 
L 211.898125 163.140743 
L 212.470984 163.140743 
L 212.470984 161.708753 
L 213.043842 161.708753 
L 213.043842 161.530504 
L 213.616701 161.530504 
L 213.616701 162.351197 
L 214.189559 162.351197 
L 214.189559 163.695241 
L 214.762418 163.695241 
L 214.762418 167.596001 
L 215.335276 167.596001 
L 215.335276 168.504633 
L 215.908134 168.504633 
L 215.908134 164.378152 
L 216.480993 164.378152 
L 216.480993 163.736474 
L 217.053851 163.736474 
L 217.053851 165.383183 
L 217.62671 165.383183 
L 217.62671 164.267648 
L 218.199568 164.267648 
L 218.199568 163.398817 
L 218.772427 163.398817 
L 218.772427 162.232149 
L 219.345285 162.232149 
L 219.345285 161.834102 
L 219.918143 161.834102 
L 219.918143 162.583641 
L 220.491002 162.583641 
L 220.491002 161.3465 
L 221.06386 161.3465 
L 221.06386 163.194904 
L 221.636719 163.194904 
L 221.636719 161.149656 
L 222.209577 161.149656 
L 222.209577 160.639309 
L 222.782436 160.639309 
L 222.782436 159.737009 
L 223.355294 159.737009 
L 223.355294 157.86806 
L 223.928152 157.86806 
L 223.928152 159.888004 
L 224.501011 159.888004 
L 224.501011 159.150729 
L 225.073869 159.150729 
L 225.073869 158.820261 
L 225.646728 158.820261 
L 225.646728 158.330623 
L 226.219586 158.330623 
L 226.219586 159.001913 
L 226.792445 159.001913 
L 226.792445 158.72362 
L 227.365303 158.72362 
L 227.365303 158.468169 
L 227.938162 158.468169 
L 227.938162 159.163865 
L 228.51102 159.163865 
L 228.51102 158.808962 
L 229.083878 158.808962 
L 229.083878 158.256707 
L 229.656737 158.256707 
L 229.656737 156.658265 
L 230.229595 156.658265 
L 230.229595 150.694477 
L 230.802454 150.694477 
L 230.802454 149.727115 
L 231.375312 149.727115 
L 231.375312 148.57456 
L 231.948171 148.57456 
L 231.948171 148.955699 
L 232.521029 148.955699 
L 232.521029 144.578193 
L 233.093887 144.578193 
L 233.093887 139.224019 
L 233.666746 139.224019 
L 233.666746 135.724665 
L 234.239604 135.724665 
L 234.239604 131.929122 
L 234.812463 131.929122 
L 234.812463 123.688509 
L 235.385321 123.688509 
L 235.385321 121.126976 
L 235.95818 121.126976 
L 235.95818 114.501195 
L 236.531038 114.501195 
L 236.531038 116.037736 
L 237.103896 116.037736 
L 237.103896 123.994292 
L 237.676755 123.994292 
L 237.676755 119.650419 
L 238.249613 119.650419 
L 238.249613 119.97045 
L 238.822472 119.97045 
L 238.822472 124.587763 
L 239.39533 124.587763 
L 239.39533 125.341484 
L 239.968189 125.341484 
L 239.968189 123.488046 
L 240.541047 123.488046 
L 240.541047 123.267395 
L 241.113905 123.267395 
L 241.113905 120.781313 
L 241.686764 120.781313 
L 241.686764 120.913218 
L 242.259622 120.913218 
L 242.259622 120.41492 
L 242.832481 120.41492 
L 242.832481 121.063393 
L 243.405339 121.063393 
L 243.405339 120.803802 
L 243.978198 120.803802 
L 243.978198 121.99479 
L 244.551056 121.99479 
L 244.551056 121.852022 
L 245.123915 121.852022 
L 245.123915 121.065109 
L 245.696773 121.065109 
L 245.696773 121.969642 
L 246.269631 121.969642 
L 246.269631 124.527356 
L 246.84249 124.527356 
L 246.84249 126.919059 
L 247.415348 126.919059 
L 247.415348 126.274188 
L 247.988207 126.274188 
L 247.988207 127.946397 
L 248.561065 127.946397 
L 248.561065 128.649132 
L 249.133924 128.649132 
L 249.133924 128.366202 
L 249.706782 128.366202 
L 249.706782 125.019077 
L 250.27964 125.019077 
L 250.27964 125.960627 
L 251.425357 125.925914 
L 251.425357 126.441804 
L 251.998216 126.441804 
L 251.998216 128.176165 
L 252.571074 128.176165 
L 252.571074 127.730173 
L 253.143933 127.730173 
L 253.143933 131.306418 
L 253.716791 131.306418 
L 253.716791 133.502218 
L 254.289649 133.502218 
L 254.289649 132.65908 
L 254.862508 132.65908 
L 254.862508 136.986733 
L 255.435366 136.986733 
L 255.435366 132.58749 
L 256.008225 132.58749 
L 256.008225 131.631546 
L 256.581083 131.631546 
L 256.581083 131.367004 
L 257.153942 131.367004 
L 257.153942 132.507473 
L 257.7268 132.507473 
L 257.7268 132.92187 
L 258.299659 132.92187 
L 258.299659 133.610609 
L 259.445375 133.571209 
L 259.445375 133.350906 
L 260.018234 133.350906 
L 260.018234 133.051224 
L 260.591092 133.051224 
L 260.591092 131.38341 
L 261.163951 131.38341 
L 261.163951 129.81387 
L 261.736809 129.81387 
L 261.736809 127.894621 
L 262.309668 127.894621 
L 262.309668 126.250357 
L 262.882526 126.250357 
L 262.882526 125.296318 
L 263.455384 125.296318 
L 263.455384 125.68367 
L 264.028243 125.68367 
L 264.028243 127.534196 
L 264.601101 127.534196 
L 264.601101 126.984835 
L 265.17396 126.984835 
L 265.17396 127.554182 
L 265.746818 127.554182 
L 265.746818 128.604794 
L 266.319677 128.604794 
L 266.319677 127.250453 
L 266.892535 127.250453 
L 266.892535 125.790765 
L 267.465393 125.790765 
L 267.465393 126.453349 
L 268.038252 126.453349 
L 268.038252 126.146152 
L 268.61111 126.146152 
L 268.61111 126.462333 
L 269.183969 126.462333 
L 269.183969 126.272916 
L 269.756827 126.272916 
L 269.756827 126.579496 
L 270.329686 126.579496 
L 270.329686 127.462208 
L 270.902544 127.462208 
L 270.902544 127.858802 
L 271.475402 127.858802 
L 271.475402 127.63773 
L 272.621119 127.6214 
L 272.621119 128.312275 
L 273.193978 128.312275 
L 273.193978 129.967354 
L 273.766836 129.967354 
L 273.766836 130.161745 
L 274.339695 130.161745 
L 274.339695 130.582678 
L 275.485412 130.638739 
L 275.485412 131.871859 
L 276.05827 131.871859 
L 276.05827 131.474298 
L 276.631128 131.474298 
L 276.631128 131.998816 
L 277.203987 131.998816 
L 277.203987 131.848327 
L 277.776845 131.848327 
L 277.776845 132.839184 
L 278.349704 132.839184 
L 278.349704 135.31356 
L 278.922562 135.31356 
L 278.922562 134.867219 
L 279.495421 134.867219 
L 279.495421 136.724127 
L 280.068279 136.724127 
L 280.068279 137.542587 
L 280.641137 137.542587 
L 280.641137 138.979109 
L 281.213996 138.979109 
L 281.213996 137.373098 
L 281.786854 137.373098 
L 281.786854 135.631111 
L 282.359713 135.631111 
L 282.359713 135.906922 
L 282.932571 135.906922 
L 282.932571 137.637682 
L 283.50543 137.637682 
L 283.50543 137.994084 
L 284.078288 137.994084 
L 284.078288 138.756714 
L 284.651146 138.756714 
L 284.651146 139.210064 
L 285.224005 139.210064 
L 285.224005 138.221398 
L 285.796863 138.221398 
L 285.796863 134.384797 
L 286.369722 134.384797 
L 286.369722 135.88482 
L 286.94258 135.88482 
L 286.94258 137.678656 
L 287.515439 137.678656 
L 287.515439 136.686127 
L 288.088297 136.686127 
L 288.088297 136.558209 
L 288.661155 136.558209 
L 288.661155 136.418436 
L 289.234014 136.418436 
L 289.234014 136.661012 
L 289.806872 136.661012 
L 289.806872 138.114882 
L 290.379731 138.114882 
L 290.379731 137.604067 
L 290.952589 137.604067 
L 290.952589 140.330735 
L 291.525448 140.330735 
L 291.525448 139.104206 
L 292.098306 139.104206 
L 292.098306 139.227661 
L 292.671165 139.227661 
L 292.671165 140.411716 
L 293.244023 140.411716 
L 293.244023 142.153972 
L 293.816881 142.153972 
L 293.816881 141.267602 
L 294.38974 141.267602 
L 294.38974 143.266944 
L 294.962598 143.266944 
L 294.962598 148.256676 
L 295.535457 148.256676 
L 295.535457 147.711541 
L 296.108315 147.711541 
L 296.108315 146.134154 
L 296.681174 146.134154 
L 296.681174 143.729744 
L 297.254032 143.729744 
L 297.254032 147.413355 
L 297.82689 147.413355 
L 297.82689 146.743214 
L 298.399749 146.743214 
L 298.399749 146.990332 
L 298.972607 146.990332 
L 298.972607 147.133952 
L 299.545466 147.133952 
L 299.545466 146.066566 
L 300.118324 146.066566 
L 300.118324 145.125593 
L 300.691183 145.125593 
L 300.691183 145.607242 
L 301.264041 145.607242 
L 301.264041 144.506165 
L 301.836899 144.506165 
L 301.836899 143.238742 
L 302.409758 143.238742 
L 302.409758 142.875683 
L 302.982616 142.875683 
L 302.982616 141.476374 
L 303.555475 141.476374 
L 303.555475 141.861751 
L 304.128333 141.861751 
L 304.128333 143.837962 
L 304.701192 143.837962 
L 304.701192 145.189256 
L 305.27405 145.189256 
L 305.27405 144.548875 
L 305.846908 144.548875 
L 305.846908 145.067818 
L 306.419767 145.067818 
L 306.419767 143.959065 
L 306.992625 143.959065 
L 306.992625 145.353427 
L 307.565484 145.353427 
L 307.565484 147.072788 
L 308.711201 147.106045 
L 308.711201 145.951593 
L 309.284059 145.951593 
L 309.284059 146.780354 
L 310.429776 146.839743 
L 310.429776 145.646513 
L 311.002634 145.646513 
L 311.002634 145.840654 
L 311.575493 145.840654 
L 311.575493 145.52311 
L 312.148351 145.52311 
L 312.148351 145.822927 
L 312.72121 145.822927 
L 312.72121 146.333104 
L 313.294068 146.333104 
L 313.294068 145.790046 
L 313.866927 145.790046 
L 313.866927 145.997503 
L 314.439785 145.997503 
L 314.439785 146.599727 
L 315.012643 146.599727 
L 315.012643 147.084466 
L 315.585502 147.084466 
L 315.585502 146.659462 
L 316.15836 146.659462 
L 316.15836 146.489511 
L 316.731219 146.489511 
L 316.731219 144.786225 
L 317.304077 144.786225 
L 317.304077 145.209704 
L 317.876936 145.209704 
L 317.876936 145.58555 
L 318.449794 145.58555 
L 318.449794 144.899515 
L 319.022652 144.899515 
L 319.022652 144.413151 
L 319.595511 144.413151 
L 319.595511 143.352536 
L 320.168369 143.352536 
L 320.168369 142.165919 
L 320.741228 142.165919 
L 320.741228 141.956134 
L 321.314086 141.956134 
L 321.314086 142.749355 
L 322.459803 142.660533 
L 322.459803 141.618141 
L 323.032662 141.618141 
L 323.032662 141.919299 
L 323.60552 141.919299 
L 323.60552 142.434841 
L 324.178378 142.434841 
L 324.178378 142.563496 
L 324.751237 142.563496 
L 324.751237 143.170627 
L 325.324095 143.170627 
L 325.324095 143.889226 
L 325.896954 143.889226 
L 325.896954 146.783894 
L 326.469812 146.783894 
L 326.469812 146.617278 
L 327.042671 146.617278 
L 327.042671 146.885067 
L 327.615529 146.885067 
L 327.615529 146.432889 
L 328.761246 146.391179 
L 328.761246 145.253943 
L 329.334104 145.253943 
L 329.334104 146.046931 
L 329.906963 146.046931 
L 329.906963 146.600604 
L 330.479821 146.600604 
L 330.479821 146.44072 
L 331.05268 146.44072 
L 331.05268 146.109317 
L 331.625538 146.109317 
L 331.625538 145.674132 
L 332.198396 145.674132 
L 332.198396 145.789204 
L 332.771255 145.789204 
L 332.771255 145.042645 
L 333.916972 145.130483 
L 333.916972 144.58771 
L 334.48983 144.58771 
L 334.48983 143.919127 
L 335.062689 143.919127 
L 335.062689 142.92308 
L 335.635547 142.92308 
L 335.635547 142.04188 
L 336.208405 142.04188 
L 336.208405 139.335396 
L 336.781264 139.335396 
L 336.781264 135.146995 
L 337.354122 135.146995 
L 337.354122 136.03177 
L 337.926981 136.03177 
L 337.926981 140.54223 
L 338.499839 140.54223 
L 338.499839 139.904907 
L 339.072698 139.904907 
L 339.072698 139.474419 
L 339.645556 139.474419 
L 339.645556 139.623699 
L 340.218415 139.623699 
L 340.218415 137.592875 
L 340.791273 137.592875 
L 340.791273 137.338267 
L 341.364131 137.338267 
L 341.364131 136.035393 
L 341.93699 136.035393 
L 341.93699 134.561942 
L 342.509848 134.561942 
L 342.509848 133.765289 
L 343.082707 133.765289 
L 343.082707 132.721275 
L 343.655565 132.721275 
L 343.655565 133.537369 
L 344.228424 133.537369 
L 344.228424 132.768707 
L 344.801282 132.768707 
L 344.801282 133.772685 
L 345.946999 133.794425 
L 345.946999 133.957068 
L 346.519857 133.957068 
L 346.519857 133.082018 
L 347.092716 133.082018 
L 347.092716 133.943542 
L 347.665574 133.943542 
L 347.665574 136.111106 
L 348.238433 136.111106 
L 348.238433 136.319493 
L 348.811291 136.319493 
L 348.811291 135.793073 
L 349.384149 135.793073 
L 349.384149 136.578408 
L 349.957008 136.578408 
L 349.957008 137.016065 
L 350.529866 137.016065 
L 350.529866 136.663682 
L 351.102725 136.663682 
L 351.102725 136.503031 
L 351.675583 136.503031 
L 351.675583 135.410655 
L 352.248442 135.410655 
L 352.248442 134.39481 
L 353.394158 134.429653 
L 353.394158 133.848648 
L 353.967017 133.848648 
L 353.967017 134.274991 
L 354.539875 134.274991 
L 354.539875 135.088159 
L 355.112734 135.088159 
L 355.112734 134.58552 
L 356.258451 134.634206 
L 356.258451 134.976402 
L 356.831309 134.976402 
L 356.831309 134.566752 
L 357.977026 134.539353 
L 357.977026 134.694626 
L 358.549884 134.694626 
L 358.549884 134.465036 
L 359.695601 134.39624 
L 359.695601 134.268829 
L 360.26846 134.268829 
L 360.26846 133.948205 
L 360.841318 133.948205 
L 360.841318 133.647329 
L 361.414177 133.647329 
L 361.414177 132.926744 
L 361.987035 132.926744 
L 361.987035 133.222757 
L 362.559893 133.222757 
L 362.559893 132.878937 
L 363.132752 132.878937 
L 363.132752 133.040078 
L 363.70561 133.040078 
L 363.70561 132.543093 
L 364.278469 132.543093 
L 364.278469 132.754641 
L 364.851327 132.754641 
L 364.851327 132.8754 
L 365.424186 132.8754 
L 365.424186 133.316532 
L 365.997044 133.316532 
L 365.997044 133.069963 
L 366.569902 133.069963 
L 366.569902 130.454174 
L 367.142761 130.454174 
L 367.142761 129.434672 
L 367.715619 129.434672 
L 367.715619 127.801074 
L 368.288478 127.801074 
L 368.288478 128.00004 
L 368.861336 128.00004 
L 368.861336 124.590979 
L 369.434195 124.590979 
L 369.434195 122.72857 
L 370.007053 122.72857 
L 370.007053 127.49158 
L 370.579911 127.49158 
L 370.579911 126.266876 
L 371.15277 126.266876 
L 371.15277 125.101367 
L 371.725628 125.101367 
L 371.725628 124.68503 
L 372.298487 124.68503 
L 372.298487 125.250347 
L 374.017062 125.301163 
L 374.017062 125.114865 
L 374.589921 125.114865 
L 374.589921 125.296318 
L 375.162779 125.296318 
L 375.162779 125.476985 
L 375.735637 125.476985 
L 375.735637 127.065375 
L 376.308496 127.065375 
L 376.308496 128.18211 
L 376.881354 128.18211 
L 376.881354 127.757887 
L 378.027071 127.814117 
L 378.027071 128.245157 
L 378.59993 128.245157 
L 378.59993 128.02466 
L 379.745646 128.076426 
L 379.745646 128.22482 
L 380.891363 128.207305 
L 380.891363 126.979565 
L 381.464222 126.979565 
L 381.464222 126.540151 
L 382.03708 126.540151 
L 382.03708 126.952249 
L 383.182797 127.007578 
L 383.182797 127.448718 
L 383.755655 127.448718 
L 383.755655 127.024734 
L 385.474231 127.011866 
L 385.474231 126.773153 
L 386.047089 126.773153 
L 386.047089 126.10954 
L 386.619948 126.10954 
L 386.619948 125.989756 
L 387.192806 125.989756 
L 387.192806 126.308236 
L 387.765665 126.308236 
L 387.765665 125.834884 
L 388.338523 125.834884 
L 388.338523 124.569943 
L 388.911381 124.569943 
L 388.911381 123.415695 
L 389.48424 123.415695 
L 389.48424 124.063357 
L 390.057098 124.063357 
L 390.057098 123.556772 
L 390.629957 123.556772 
L 390.629957 124.151812 
L 391.202815 124.151812 
L 391.202815 123.135401 
L 392.92139 123.12915 
L 392.92139 123.321644 
L 393.494249 123.321644 
L 393.494249 122.437442 
L 394.639966 122.345512 
L 394.639966 122.300878 
L 395.212824 122.300878 
L 395.212824 122.101377 
L 395.785683 122.101377 
L 395.785683 121.714061 
L 396.358541 121.714061 
L 396.358541 118.821554 
L 396.931399 118.821554 
L 396.931399 118.465121 
L 397.504258 118.465121 
L 397.504258 117.735832 
L 398.077116 117.735832 
L 398.077116 114.943912 
L 398.649975 114.943912 
L 398.649975 118.897084 
L 399.222833 118.897084 
L 399.222833 121.350498 
L 399.795692 121.350498 
L 399.795692 120.737376 
L 400.36855 120.737376 
L 400.36855 119.226443 
L 400.941408 119.226443 
L 400.941408 119.49774 
L 401.514267 119.49774 
L 401.514267 118.719036 
L 402.087125 118.719036 
L 402.087125 117.353805 
L 402.659984 117.353805 
L 402.659984 116.798248 
L 403.232842 116.798248 
L 403.232842 117.31474 
L 403.805701 117.31474 
L 403.805701 116.994925 
L 404.378559 116.994925 
L 404.378559 115.955138 
L 404.951418 115.955138 
L 404.951418 114.659904 
L 405.524276 114.659904 
L 405.524276 114.213252 
L 406.097134 114.213252 
L 406.097134 112.95463 
L 406.669993 112.95463 
L 406.669993 112.215352 
L 407.242851 112.215352 
L 407.242851 113.499741 
L 407.81571 113.499741 
L 407.81571 112.698917 
L 408.388568 112.698917 
L 408.388568 115.695677 
L 408.961427 115.695677 
L 408.961427 114.874691 
L 409.534285 114.874691 
L 409.534285 117.79883 
L 410.107143 117.79883 
L 410.107143 116.237835 
L 410.680002 116.237835 
L 410.680002 115.477701 
L 411.25286 115.477701 
L 411.25286 113.472205 
L 411.825719 113.472205 
L 411.825719 113.201232 
L 412.398577 113.201232 
L 412.398577 113.868202 
L 412.971436 113.868202 
L 412.971436 113.347262 
L 413.544294 113.347262 
L 413.544294 112.820031 
L 414.117152 112.820031 
L 414.117152 111.949557 
L 414.690011 111.949557 
L 414.690011 110.937153 
L 415.262869 110.937153 
L 415.262869 108.406962 
L 415.835728 108.406962 
L 415.835728 106.975718 
L 416.408586 106.975718 
L 416.408586 106.475211 
L 416.981445 106.475211 
L 416.981445 106.285513 
L 417.554303 106.285513 
L 417.554303 103.047775 
L 418.127161 103.047775 
L 418.127161 99.3059 
L 418.70002 99.3059 
L 418.70002 101.434165 
L 419.272878 101.434165 
L 419.272878 99.401745 
L 419.845737 99.401745 
L 419.845737 97.13193 
L 420.418595 97.13193 
L 420.418595 96.217978 
L 420.991454 96.217978 
L 420.991454 97.080942 
L 421.564312 97.080942 
L 421.564312 97.653341 
L 422.137171 97.653341 
L 422.137171 97.434209 
L 422.710029 97.434209 
L 422.710029 98.650574 
L 423.282887 98.650574 
L 423.282887 98.335587 
L 424.428604 98.27076 
L 424.428604 98.643931 
L 425.001463 98.643931 
L 425.001463 100.241902 
L 425.574321 100.241902 
L 425.574321 103.415545 
L 426.14718 103.415545 
L 426.14718 100.642127 
L 426.720038 100.642127 
L 426.720038 96.76984 
L 427.292896 96.76984 
L 427.292896 97.450487 
L 427.865755 97.450487 
L 427.865755 95.952053 
L 429.011472 95.996737 
L 429.011472 92.456833 
L 429.58433 92.456833 
L 429.58433 89.922675 
L 430.157189 89.922675 
L 430.157189 87.454791 
L 430.730047 87.454791 
L 430.730047 88.981725 
L 431.302905 88.981725 
L 431.302905 87.657344 
L 431.875764 87.657344 
L 431.875764 87.450855 
L 432.448622 87.450855 
L 432.448622 85.15428 
L 433.021481 85.15428 
L 433.021481 87.412634 
L 433.594339 87.412634 
L 433.594339 87.661505 
L 434.167198 87.661505 
L 434.167198 89.939767 
L 434.740056 89.939767 
L 434.740056 90.931296 
L 435.312914 90.931296 
L 435.312914 91.358385 
L 435.885773 91.358385 
L 435.885773 89.596785 
L 436.458631 89.596785 
L 436.458631 88.44718 
L 437.03149 88.44718 
L 437.03149 87.766017 
L 437.604348 87.766017 
L 437.604348 87.165508 
L 438.177207 87.165508 
L 438.177207 85.509309 
L 438.750065 85.509309 
L 438.750065 82.188887 
L 439.895782 82.169648 
L 439.895782 81.46695 
L 440.46864 81.46695 
L 440.46864 81.91558 
L 441.041499 81.91558 
L 441.041499 79.789478 
L 441.614357 79.789478 
L 441.614357 77.024161 
L 442.187216 77.024161 
L 442.187216 76.747511 
L 442.760074 76.747511 
L 442.760074 81.502657 
L 443.332933 81.502657 
L 443.332933 75.7017 
L 443.905791 75.7017 
L 443.905791 74.771576 
L 445.051508 74.844677 
L 445.051508 71.064047 
L 445.624366 71.064047 
L 445.624366 69.151492 
L 446.197225 69.151492 
L 446.197225 64.386582 
L 446.770083 64.386582 
L 446.770083 62.688359 
L 447.342942 62.688359 
L 447.342942 60.983079 
L 447.9158 60.983079 
L 447.9158 58.138856 
L 448.488658 58.138856 
L 448.488658 64.484215 
L 449.061517 64.484215 
L 449.061517 61.894793 
L 449.634375 61.894793 
L 449.634375 66.252362 
L 450.207234 66.252362 
L 450.207234 62.727887 
L 450.780092 62.727887 
L 450.780092 61.247552 
L 451.352951 61.247552 
L 451.352951 65.211162 
L 451.925809 65.211162 
L 451.925809 64.810286 
L 452.498668 64.810286 
L 452.498668 68.090569 
L 453.071526 68.090569 
L 453.071526 69.30141 
L 453.644384 69.30141 
L 453.644384 68.221789 
L 454.217243 68.221789 
L 454.217243 70.49668 
L 454.790101 70.49668 
L 454.790101 74.870838 
L 455.935818 74.766061 
L 455.935818 73.244809 
L 456.508677 73.244809 
L 456.508677 70.546677 
L 457.081535 70.546677 
L 457.081535 68.549271 
L 457.654393 68.549271 
L 457.654393 71.511708 
L 458.227252 71.511708 
L 458.227252 70.246729 
L 458.80011 70.246729 
L 458.80011 68.072613 
L 459.372969 68.072613 
L 459.372969 72.301956 
L 459.945827 72.301956 
L 459.945827 72.724154 
L 460.518686 72.724154 
L 460.518686 74.638186 
L 461.091544 74.638186 
L 461.091544 73.212796 
L 461.664402 73.212796 
L 461.664402 74.076805 
L 462.237261 74.076805 
L 462.237261 75.494465 
L 462.810119 75.494465 
L 462.810119 78.54452 
L 463.382978 78.54452 
L 463.382978 78.664803 
L 464.528695 78.671444 
L 464.528695 75.634412 
L 465.674411 75.604146 
L 465.674411 73.16643 
L 466.24727 73.16643 
L 466.24727 73.302485 
L 466.820128 73.302485 
L 466.820128 72.143847 
L 467.392987 72.143847 
L 467.392987 71.401356 
L 467.965845 71.401356 
L 467.965845 72.206257 
L 468.538704 72.206257 
L 468.538704 74.400786 
L 469.111562 74.400786 
L 469.111562 74.224505 
L 469.684421 74.224505 
L 469.684421 74.773374 
L 470.257279 74.773374 
L 470.257279 76.631272 
L 470.830137 76.631272 
L 470.830137 77.082516 
L 471.402996 77.082516 
L 471.402996 76.690684 
L 472.548713 76.675153 
L 472.548713 76.356856 
L 473.121571 76.356856 
L 473.121571 79.366528 
L 473.69443 79.366528 
L 473.69443 79.564088 
L 474.267288 79.564088 
L 474.267288 78.741178 
L 474.840146 78.741178 
L 474.840146 80.614853 
L 475.413005 80.614853 
L 475.413005 81.543299 
L 475.985863 81.543299 
L 475.985863 79.143313 
L 477.13158 79.136816 
L 477.13158 80.062286 
L 477.704439 80.062286 
L 477.704439 80.318434 
L 478.277297 80.318434 
L 478.277297 77.010244 
L 479.423014 76.91388 
L 479.423014 75.52169 
L 479.995872 75.52169 
L 479.995872 74.945626 
L 480.568731 74.945626 
L 480.568731 76.891962 
L 481.141589 76.891962 
L 481.141589 78.867778 
L 481.714448 78.867778 
L 481.714448 80.385824 
L 482.287306 80.385824 
L 482.287306 80.248587 
L 482.860164 80.248587 
L 482.860164 79.570571 
L 483.433023 79.570571 
L 483.433023 79.449344 
L 484.005881 79.449344 
L 484.005881 78.329421 
L 484.57874 78.329421 
L 484.57874 77.991228 
L 485.151598 77.991228 
L 485.151598 77.042659 
L 485.724457 77.042659 
L 485.724457 80.52715 
L 486.297315 80.52715 
L 486.297315 80.07251 
L 486.870174 80.07251 
L 486.870174 79.537282 
L 488.01589 79.541444 
L 488.01589 79.273675 
L 488.588749 79.273675 
L 488.588749 79.136604 
L 489.161607 79.136604 
L 489.161607 79.463621 
L 489.734466 79.463621 
L 489.734466 79.303603 
L 490.880183 79.280917 
L 490.880183 80.266194 
L 491.453041 80.266194 
L 491.453041 79.499587 
L 492.598758 79.548012 
L 492.598758 79.615114 
L 493.171616 79.615114 
L 493.171616 80.150007 
L 493.744475 80.150007 
L 493.744475 79.961184 
L 494.317333 79.961184 
L 494.317333 79.416011 
L 494.890192 79.416011 
L 494.890192 79.813029 
L 495.46305 79.813029 
L 495.46305 82.305209 
L 496.035908 82.305209 
L 496.035908 85.39909 
L 496.608767 85.39909 
L 496.608767 87.559515 
L 497.181625 87.559515 
L 497.181625 90.131213 
L 497.754484 90.131213 
L 497.754484 88.332941 
L 498.327342 88.332941 
L 498.327342 90.572721 
L 498.900201 90.572721 
L 498.900201 91.42792 
L 499.473059 91.42792 
L 499.473059 93.057066 
L 500.045917 93.057066 
L 500.045917 91.606765 
L 500.618776 91.606765 
L 500.618776 89.761224 
L 501.191634 89.761224 
L 501.191634 90.1675 
L 501.764493 90.1675 
L 501.764493 90.437443 
L 502.337351 90.437443 
L 502.337351 89.600198 
L 502.91021 89.600198 
L 502.91021 88.897089 
L 503.483068 88.897089 
L 503.483068 91.107828 
L 504.055927 91.107828 
L 504.055927 90.9098 
L 504.628785 90.9098 
L 504.628785 91.220862 
L 505.201643 91.220862 
L 505.201643 91.434005 
L 506.34736 91.495794 
L 506.34736 92.100143 
L 507.493077 92.180998 
L 507.493077 92.539203 
L 508.065936 92.539203 
L 508.065936 91.200213 
L 508.638794 91.200213 
L 508.638794 91.317933 
L 509.211652 91.317933 
L 509.211652 89.624566 
L 509.784511 89.624566 
L 509.784511 88.566187 
L 510.357369 88.566187 
L 510.357369 90.106222 
L 511.503086 90.203906 
L 511.503086 89.828152 
L 512.648803 89.857701 
L 512.648803 89.573775 
L 513.221661 89.573775 
L 513.221661 89.108037 
L 514.940237 89.011831 
L 514.940237 88.689654 
L 515.513095 88.689654 
L 515.513095 85.142736 
L 516.085954 85.142736 
L 516.085954 83.735537 
L 516.658812 83.735537 
L 516.658812 84.49428 
L 517.231671 84.49428 
L 517.231671 84.01136 
L 517.804529 84.01136 
L 517.804529 83.581903 
L 518.377387 83.581903 
L 518.377387 83.116151 
L 518.950246 83.116151 
L 518.950246 83.612067 
L 519.523104 83.612067 
L 519.523104 83.279093 
L 520.095963 83.279093 
L 520.095963 82.21431 
L 520.668821 82.21431 
L 520.668821 80.00304 
L 521.24168 80.00304 
L 521.24168 75.388739 
L 521.814538 75.388739 
L 521.814538 77.300523 
L 522.387396 77.300523 
L 522.387396 76.329549 
L 522.960255 76.329549 
L 522.960255 73.588391 
L 523.533113 73.588391 
L 523.533113 74.699661 
L 524.105972 74.699661 
L 524.105972 75.035462 
L 524.67883 75.035462 
L 524.67883 75.374711 
L 525.251689 75.374711 
L 525.251689 75.577846 
L 525.824547 75.577846 
L 525.824547 73.326593 
L 526.397405 73.326593 
L 526.397405 72.394101 
L 526.970264 72.394101 
L 526.970264 69.332889 
L 527.543122 69.332889 
L 527.543122 68.751771 
L 528.115981 68.751771 
L 528.115981 69.774352 
L 528.688839 69.774352 
L 528.688839 69.074026 
L 529.261698 69.074026 
L 529.261698 66.293311 
L 529.834556 66.293311 
L 529.834556 68.295987 
L 530.407414 68.295987 
L 530.407414 71.56439 
L 530.980273 71.56439 
L 530.980273 69.757906 
L 531.553131 69.757906 
L 531.553131 71.152746 
L 532.12599 71.152746 
L 532.12599 71.925688 
L 532.698848 71.925688 
L 532.698848 69.867663 
L 533.271707 69.867663 
L 533.271707 68.161783 
L 533.844565 68.161783 
L 533.844565 68.484832 
L 534.417424 68.484832 
L 534.417424 70.867214 
L 534.990282 70.867214 
L 534.990282 70.274935 
L 535.56314 70.274935 
L 535.56314 70.678119 
L 536.135999 70.678119 
L 536.135999 70.192254 
L 536.708857 70.192254 
L 536.708857 71.764738 
L 537.281716 71.764738 
L 537.281716 69.693916 
L 537.854574 69.693916 
L 537.854574 69.948362 
L 538.427433 69.948362 
L 538.427433 70.584572 
L 539.000291 70.584572 
L 539.000291 70.288858 
L 540.146008 70.356086 
L 540.146008 71.545559 
L 540.718866 71.545559 
L 540.718866 74.890773 
L 541.291725 74.890773 
L 541.291725 74.577861 
L 541.864583 74.577861 
L 541.864583 75.004046 
L 542.437442 75.004046 
L 542.437442 73.950094 
L 543.0103 73.950094 
L 543.0103 74.67232 
L 543.583158 74.67232 
L 543.583158 75.179121 
L 544.156017 75.179121 
L 544.156017 74.820938 
L 544.728875 74.820938 
L 544.728875 73.766993 
L 545.301734 73.766993 
L 545.301734 72.069504 
L 545.874592 72.069504 
L 545.874592 72.352109 
L 547.020309 72.261529 
L 547.020309 72.928951 
L 547.593167 72.928951 
L 547.593167 73.846811 
L 548.166026 73.846811 
L 548.166026 74.9346 
L 548.738884 74.9346 
L 548.738884 77.241888 
L 549.311743 77.241888 
L 549.311743 77.582093 
L 549.884601 77.582093 
L 549.884601 76.509502 
L 550.45746 76.509502 
L 550.45746 77.500563 
L 551.030318 77.500563 
L 551.030318 76.603349 
L 551.603177 76.603349 
L 551.603177 77.510841 
L 552.176035 77.510841 
L 552.176035 78.392555 
L 552.748893 78.392555 
L 552.748893 77.508027 
L 553.321752 77.508027 
L 553.321752 77.34015 
L 553.89461 77.34015 
L 553.89461 77.201466 
L 554.467469 77.201466 
L 554.467469 77.548431 
L 555.040327 77.548431 
L 555.040327 77.063409 
L 555.613186 77.063409 
L 555.613186 75.83155 
L 556.186044 75.83155 
L 556.186044 75.10867 
L 556.758902 75.10867 
L 556.758902 73.23441 
L 557.331761 73.23441 
L 557.331761 73.639212 
L 557.904619 73.639212 
L 557.904619 74.56718 
L 558.477478 74.56718 
L 558.477478 72.398179 
L 559.623195 72.323318 
L 559.623195 71.396613 
L 560.196053 71.396613 
L 560.196053 71.194123 
L 560.768911 71.194123 
L 560.768911 70.176312 
L 561.34177 70.176312 
L 561.34177 70.542565 
L 561.914628 70.542565 
L 561.914628 71.574019 
L 562.487487 71.574019 
L 562.487487 73.494474 
L 563.060345 73.494474 
L 563.060345 74.075843 
L 563.633204 74.075843 
L 563.633204 72.861976 
L 564.206062 72.861976 
L 564.206062 75.541553 
L 564.77892 75.541553 
L 564.77892 82.481896 
L 565.351779 82.481896 
L 565.351779 83.400408 
L 565.924637 83.400408 
L 565.924637 80.508406 
L 566.497496 80.508406 
L 566.497496 78.926804 
L 567.070354 78.926804 
L 567.070354 81.518543 
L 567.643213 81.518543 
L 567.643213 78.598658 
L 568.216071 78.598658 
L 568.216071 77.086225 
L 568.78893 77.086225 
L 568.78893 78.410905 
L 569.934646 78.414665 
L 569.934646 77.316215 
L 570.507505 77.316215 
L 570.507505 77.673559 
L 571.080363 77.673559 
L 571.080363 76.13785 
L 571.653222 76.13785 
L 571.653222 73.855049 
L 572.22608 73.855049 
L 572.22608 73.266863 
L 572.798939 73.266863 
L 572.798939 71.261284 
L 573.371797 71.261284 
L 573.371797 73.428447 
L 573.944655 73.428447 
L 573.944655 72.17093 
L 574.517514 72.17093 
L 574.517514 71.906009 
L 575.090372 71.906009 
L 575.090372 73.619772 
L 575.663231 73.619772 
L 575.663231 71.783106 
L 576.236089 71.783106 
L 576.236089 70.496229 
L 576.808948 70.496229 
L 576.808948 71.669276 
L 577.381806 71.669276 
L 577.381806 71.356639 
L 577.954664 71.356639 
L 577.954664 71.984439 
L 579.100381 72.023993 
L 579.100381 72.387456 
L 580.246098 72.482444 
L 580.246098 72.603098 
L 580.818957 72.603098 
L 580.818957 72.850869 
L 581.391815 72.850869 
L 581.391815 72.449137 
L 582.537532 72.493046 
L 582.537532 72.585313 
L 583.683249 72.539289 
L 583.683249 71.691432 
L 584.256107 71.691432 
L 584.256107 68.915161 
L 584.828966 68.915161 
L 584.828966 68.375669 
L 585.401824 68.375669 
L 585.401824 68.641612 
L 585.974683 68.641612 
L 585.974683 67.641184 
L 586.547541 67.641184 
L 586.547541 67.974976 
L 587.120399 67.974976 
L 587.120399 67.393529 
L 588.266116 67.474705 
L 588.266116 67.647431 
L 588.838975 67.647431 
L 588.838975 68.041473 
L 589.411833 68.041473 
L 589.411833 67.378001 
L 589.984692 67.378001 
L 589.984692 70.58398 
L 590.55755 70.58398 
L 590.55755 70.44996 
L 591.130408 70.44996 
L 591.130408 70.249385 
L 591.703267 70.249385 
L 591.703267 69.094641 
L 592.276125 69.094641 
L 592.276125 70.057038 
L 592.848984 70.057038 
L 592.848984 69.559446 
L 593.421842 69.559446 
L 593.421842 69.284203 
L 593.994701 69.284203 
L 593.994701 69.825442 
L 594.567559 69.825442 
L 594.567559 69.600771 
L 595.140417 69.600771 
L 595.140417 68.317964 
L 595.713276 68.317964 
L 595.713276 68.095408 
L 596.286134 68.095408 
L 596.286134 67.657258 
L 596.858993 67.657258 
L 596.858993 65.731997 
L 597.431851 65.731997 
L 597.431851 64.666977 
L 598.00471 64.666977 
L 598.00471 64.435267 
L 598.577568 64.435267 
L 598.577568 63.940689 
L 599.150427 63.940689 
L 599.150427 62.135626 
L 599.723285 62.135626 
L 599.723285 61.120974 
L 600.296143 61.120974 
L 600.296143 60.599822 
L 600.869002 60.599822 
L 600.869002 58.377865 
L 601.44186 58.377865 
L 601.44186 57.864613 
L 602.014719 57.864613 
L 602.014719 59.428523 
L 602.587577 59.428523 
L 602.587577 57.807812 
L 603.160436 57.807812 
L 603.160436 57.651451 
L 603.733294 57.651451 
L 603.733294 58.854746 
L 604.306152 58.854746 
L 604.306152 57.75619 
L 604.879011 57.75619 
L 604.879011 54.088183 
L 605.451869 54.088183 
L 605.451869 53.513237 
L 606.024728 53.513237 
L 606.024728 51.424957 
L 606.597586 51.424957 
L 606.597586 49.67567 
L 607.170445 49.67567 
L 607.170445 46.987963 
L 607.743303 46.987963 
L 607.743303 43.394493 
L 608.316161 43.394493 
L 608.316161 45.500499 
L 608.88902 45.500499 
L 608.88902 44.789986 
L 609.461878 44.789986 
L 609.461878 45.234515 
L 610.034737 45.234515 
L 610.034737 47.542422 
L 610.607595 47.542422 
L 610.607595 48.619465 
L 611.180454 48.619465 
L 611.180454 46.905785 
L 611.753312 46.905785 
L 611.753312 44.695814 
L 612.32617 44.695814 
L 612.32617 40.178232 
L 612.899029 40.178232 
L 612.899029 39.705602 
L 613.471887 39.705602 
L 613.471887 39.005501 
L 614.044746 39.005501 
L 614.044746 36.395945 
L 614.617604 36.395945 
L 614.617604 38.417457 
L 615.190463 38.417457 
L 615.190463 40.725796 
L 615.763321 40.725796 
L 615.763321 39.297369 
L 616.33618 39.297369 
L 616.33618 37.765699 
L 616.909038 37.765699 
L 616.909038 35.953074 
L 617.481896 35.953074 
L 617.481896 36.086768 
L 618.054755 36.086768 
L 618.054755 35.663934 
L 618.627613 35.663934 
L 618.627613 37.685858 
L 619.200472 37.685858 
L 619.200472 36.473881 
L 619.77333 36.473881 
L 619.77333 35.440669 
L 620.919047 35.332804 
L 620.919047 35.658149 
L 621.491905 35.658149 
L 621.491905 33.861839 
L 622.064764 33.861839 
L 622.064764 34.985486 
L 622.637622 34.985486 
L 622.637622 37.195813 
L 623.210481 37.195813 
L 623.210481 39.039965 
L 623.783339 39.039965 
L 623.783339 37.279608 
L 624.356198 37.279608 
L 624.356198 35.967055 
L 625.501914 35.908699 
L 625.501914 36.129913 
L 626.074773 36.129913 
L 626.074773 40.018055 
L 626.647631 40.018055 
L 626.647631 44.716296 
L 627.22049 44.716296 
L 627.22049 45.950896 
L 627.793348 45.950896 
L 627.793348 43.92948 
L 628.366207 43.92948 
L 628.366207 44.529546 
L 628.939065 44.529546 
L 628.939065 44.759016 
L 629.511923 44.759016 
L 629.511923 46.717049 
L 630.084782 46.717049 
L 630.084782 45.528715 
L 630.65764 45.528715 
L 630.65764 43.992313 
L 631.230499 43.992313 
L 631.230499 45.473802 
L 631.803357 45.473802 
L 631.803357 46.017372 
L 632.949074 46.123296 
L 632.949074 46.475019 
L 633.521933 46.475019 
L 633.521933 46.266602 
L 634.094791 46.266602 
L 634.094791 46.67794 
L 634.667649 46.67794 
L 634.667649 47.101272 
L 635.240508 47.101272 
L 635.240508 47.740726 
L 635.813366 47.740726 
L 635.813366 47.419166 
L 636.386225 47.419166 
L 636.386225 44.525467 
L 636.959083 44.525467 
L 636.959083 42.05641 
L 637.531942 42.05641 
L 637.531942 44.090211 
L 638.1048 44.090211 
L 638.1048 40.939943 
L 638.677658 40.939943 
L 638.677658 40.506118 
L 639.250517 40.506118 
L 639.250517 39.881461 
L 639.823375 39.881461 
L 639.823375 40.018882 
L 640.396234 40.018882 
L 640.396234 38.85799 
L 640.969092 38.85799 
L 640.969092 39.047607 
L 641.541951 39.047607 
L 641.541951 39.839172 
L 642.114809 39.839172 
L 642.114809 38.68729 
L 642.687667 38.68729 
L 642.687667 40.302128 
L 643.833384 40.310502 
L 643.833384 39.573617 
L 644.406243 39.573617 
L 644.406243 41.732892 
L 645.55196 41.773082 
L 645.55196 42.635465 
L 646.124818 42.635465 
L 646.124818 39.598009 
L 646.697677 39.598009 
L 646.697677 36.632468 
L 647.270535 36.632468 
L 647.270535 36.894017 
L 647.843393 36.894017 
L 647.843393 35.902602 
L 648.416252 35.902602 
L 648.416252 34.366979 
L 648.98911 34.366979 
L 648.98911 34.783191 
L 649.561969 34.783191 
L 649.561969 34.899645 
L 650.134827 34.899645 
L 650.134827 34.444793 
L 650.707686 34.444793 
L 650.707686 34.051689 
L 651.853402 33.94433 
L 651.853402 33.461115 
L 652.426261 33.461115 
L 652.426261 33.852447 
L 652.999119 33.852447 
L 652.999119 35.647658 
L 653.571978 35.647658 
L 653.571978 35.839723 
L 654.144836 35.839723 
L 654.144836 36.829806 
L 654.717695 36.829806 
L 654.717695 35.961304 
L 655.290553 35.961304 
L 655.290553 38.915935 
L 655.863411 38.915935 
L 655.863411 39.626322 
L 656.43627 39.626322 
L 656.43627 40.009268 
L 657.009128 40.009268 
L 657.009128 40.260821 
L 657.581987 40.260821 
L 657.581987 39.097597 
L 658.154845 39.097597 
L 658.154845 38.478457 
L 658.727704 38.478457 
L 658.727704 40.158988 
L 659.300562 40.158988 
L 659.300562 39.766251 
L 659.87342 39.766251 
L 659.87342 41.630879 
L 660.446279 41.630879 
L 660.446279 42.230411 
L 661.019137 42.230411 
L 661.019137 41.640756 
L 661.591996 41.640756 
L 661.591996 41.977176 
L 662.164854 41.977176 
L 662.164854 45.769103 
L 662.737713 45.769103 
L 662.737713 44.792716 
L 663.310571 44.792716 
L 663.310571 44.205754 
L 663.88343 44.205754 
L 663.88343 44.64699 
L 664.456288 44.64699 
L 664.456288 41.302234 
L 665.029146 41.302234 
L 665.029146 41.967826 
L 665.602005 41.967826 
L 665.602005 40.983936 
L 666.174863 40.983936 
L 666.174863 43.077952 
L 666.747722 43.077952 
L 666.747722 44.53978 
L 667.32058 44.53978 
L 667.32058 44.319141 
L 667.893439 44.319141 
L 667.893439 41.938028 
L 668.466297 41.938028 
L 668.466297 44.145692 
L 669.039155 44.145692 
L 669.039155 43.775993 
L 669.612014 43.775993 
L 669.612014 43.478474 
L 670.184872 43.478474 
L 670.184872 42.052534 
L 670.757731 42.052534 
L 670.757731 41.731258 
L 671.330589 41.731258 
L 671.330589 39.965862 
L 671.903448 39.965862 
L 671.903448 40.537864 
L 672.476306 40.537864 
L 672.476306 40.071832 
L 673.049164 40.071832 
L 673.049164 42.025693 
L 673.622023 42.025693 
L 673.622023 43.084369 
L 674.194881 43.084369 
L 674.194881 42.941748 
L 674.76774 42.941748 
L 674.76774 42.458177 
L 675.340598 42.458177 
L 675.340598 43.404879 
L 675.913457 43.404879 
L 675.913457 43.250954 
L 676.486315 43.250954 
L 676.486315 43.895458 
L 677.059173 43.895458 
L 677.059173 45.238463 
L 677.632032 45.238463 
L 677.632032 48.238099 
L 678.20489 48.238099 
L 678.20489 48.847626 
L 678.777749 48.847626 
L 678.777749 49.797937 
L 679.350607 49.797937 
L 679.350607 48.712009 
L 679.923466 48.712009 
L 679.923466 49.442895 
L 680.496324 49.442895 
L 680.496324 47.783566 
L 681.069183 47.783566 
L 681.069183 49.110975 
L 681.642041 49.110975 
L 681.642041 48.164653 
L 682.214899 48.164653 
L 682.214899 50.034292 
L 682.787758 50.034292 
L 682.787758 54.614113 
L 683.360616 54.614113 
L 683.360616 56.484341 
L 683.933475 56.484341 
L 683.933475 55.957072 
L 684.506333 55.957072 
L 684.506333 56.327142 
L 685.079192 56.327142 
L 685.079192 57.808094 
L 685.65205 57.808094 
L 685.65205 56.836968 
L 686.224908 56.836968 
L 686.224908 55.493026 
L 686.797767 55.493026 
L 686.797767 56.795548 
L 687.370625 56.795548 
L 687.370625 56.257605 
L 687.943484 56.257605 
L 687.943484 54.085329 
L 688.516342 54.085329 
L 688.516342 55.756335 
L 689.089201 55.756335 
L 689.089201 53.54099 
L 689.662059 53.54099 
L 689.662059 54.234946 
L 690.807776 54.265105 
L 690.807776 53.400127 
L 691.380634 53.400127 
L 691.380634 53.105575 
L 691.953493 53.105575 
L 691.953493 54.050844 
L 692.526351 54.050844 
L 692.526351 55.660458 
L 693.09921 55.660458 
L 693.09921 56.786013 
L 693.672068 56.786013 
L 693.672068 57.226672 
L 694.817785 57.184298 
L 694.817785 57.752564 
L 695.390643 57.752564 
L 695.390643 55.297323 
L 695.963502 55.297323 
L 695.963502 57.326421 
L 696.53636 57.326421 
L 696.53636 57.482101 
L 697.109219 57.482101 
L 697.109219 57.752045 
L 697.682077 57.752045 
L 697.682077 57.935388 
L 698.254936 57.935388 
L 698.254936 57.716642 
L 698.827794 57.716642 
L 698.827794 56.850985 
L 699.400652 56.850985 
L 699.400652 57.585183 
L 701.119228 57.475163 
L 701.119228 57.865846 
L 701.692086 57.865846 
L 701.692086 56.917156 
L 702.264945 56.917156 
L 702.264945 56.21722 
L 702.837803 56.21722 
L 702.837803 56.864695 
L 703.410661 56.864695 
L 703.410661 56.117241 
L 703.98352 56.117241 
L 703.98352 59.63537 
L 704.556378 59.63537 
L 704.556378 60.764787 
L 705.129237 60.764787 
L 705.129237 60.650097 
L 705.702095 60.650097 
L 705.702095 61.245276 
L 706.274954 61.245276 
L 706.274954 60.927835 
L 706.847812 60.927835 
L 706.847812 60.073343 
L 709.139246 60.031104 
L 709.139246 60.70494 
L 709.712104 60.70494 
L 709.712104 60.386024 
L 710.857821 60.465016 
L 710.857821 60.823651 
L 712.003538 60.73372 
L 712.003538 60.478926 
L 712.576396 60.478926 
L 712.576396 60.048338 
L 713.149255 60.048338 
L 713.149255 57.085162 
L 713.722113 57.085162 
L 713.722113 55.903123 
L 714.294972 55.903123 
L 714.294972 54.418161 
L 714.86783 54.418161 
L 714.86783 54.14107 
L 715.440689 54.14107 
L 715.440689 53.571445 
L 716.013547 53.571445 
L 716.013547 53.827217 
L 716.586405 53.827217 
L 716.586405 54.425867 
L 717.159264 54.425867 
L 717.159264 55.441172 
L 717.732122 55.441172 
L 717.732122 54.917476 
L 718.304981 54.917476 
L 718.304981 52.837973 
L 718.877839 52.837973 
L 718.877839 53.2123 
L 719.450698 53.2123 
L 719.450698 53.734608 
L 720.596414 53.816161 
L 720.596414 54.738995 
L 721.169273 54.738995 
L 721.169273 56.794399 
L 721.742131 56.794399 
L 721.742131 52.73621 
L 722.31499 52.73621 
L 722.31499 51.025874 
L 722.887848 51.025874 
L 722.887848 50.78166 
L 723.460707 50.78166 
L 723.460707 50.279327 
L 724.606423 50.255579 
L 724.606423 50.421182 
L 725.75214 50.332539 
L 725.75214 48.741108 
L 726.897857 48.685316 
L 726.897857 49.694433 
L 727.470716 49.694433 
L 727.470716 50.574259 
L 728.043574 50.574259 
L 728.043574 49.247346 
L 728.616433 49.247346 
L 728.616433 50.217327 
L 729.189291 50.217327 
L 729.189291 49.209993 
L 729.762149 49.209993 
L 729.762149 50.538329 
L 730.335008 50.538329 
L 730.335008 51.167033 
L 730.907866 51.167033 
L 730.907866 50.714329 
L 731.480725 50.714329 
L 731.480725 51.189006 
L 732.053583 51.189006 
L 732.053583 51.39916 
L 732.626442 51.39916 
L 732.626442 50.462698 
L 733.1993 50.462698 
L 733.1993 50.821593 
L 734.345017 50.827687 
L 734.345017 51.877199 
L 734.917875 51.877199 
L 734.917875 52.447519 
L 735.490734 52.447519 
L 735.490734 51.505504 
L 736.063592 51.505504 
L 736.063592 48.961751 
L 736.636451 48.961751 
L 736.636451 48.720107 
L 737.209309 48.720107 
L 737.209309 48.585039 
L 737.782167 48.585039 
L 737.782167 48.386622 
L 738.355026 48.386622 
L 738.355026 48.754646 
L 738.927884 48.754646 
L 738.927884 48.637599 
L 740.073601 48.737598 
L 740.073601 49.029808 
L 740.64646 49.029808 
L 740.64646 49.453532 
L 741.792176 49.359234 
L 741.792176 49.109726 
L 742.365035 49.109726 
L 742.365035 49.543249 
L 742.937893 49.543249 
L 742.937893 49.189362 
L 743.510752 49.189362 
L 743.510752 49.3813 
L 744.08361 49.3813 
L 744.08361 51.259884 
L 744.656469 51.259884 
L 744.656469 51.668657 
L 745.802186 51.725466 
L 745.802186 50.472396 
L 746.375044 50.472396 
L 746.375044 51.864599 
L 748.093619 51.8927 
L 748.093619 51.354783 
L 748.666478 51.354783 
L 748.666478 51.183624 
L 749.239336 51.183624 
L 749.239336 51.320214 
L 749.812195 51.320214 
L 749.812195 51.600224 
L 750.385053 51.600224 
L 750.385053 51.029557 
L 750.957911 51.029557 
L 750.957911 50.424546 
L 752.103628 50.324199 
L 752.103628 51.187441 
L 752.676487 51.187441 
L 752.676487 49.912545 
L 753.249345 49.912545 
L 753.249345 49.110408 
L 753.822204 49.110408 
L 753.822204 46.447949 
L 754.96792 46.337173 
L 754.96792 45.559429 
L 755.540779 45.559429 
L 755.540779 45.782288 
L 756.113637 45.782288 
L 756.113637 44.862049 
L 757.832213 44.901357 
L 757.832213 45.352285 
L 758.405071 45.352285 
L 758.405071 44.268009 
L 759.550788 44.232842 
L 759.550788 43.147477 
L 760.123646 43.147477 
L 760.123646 41.548339 
L 760.696505 41.548339 
L 760.696505 42.524837 
L 761.269363 42.524837 
L 761.269363 42.189432 
L 761.842222 42.189432 
L 761.842222 42.033426 
L 762.41508 42.033426 
L 762.41508 41.344173 
L 762.987939 41.344173 
L 762.987939 41.468907 
L 763.560797 41.468907 
L 763.560797 42.039555 
L 764.133655 42.039555 
L 764.133655 41.140191 
L 764.706514 41.140191 
L 764.706514 39.917241 
L 765.279372 39.917241 
L 765.279372 41.759791 
L 765.852231 41.759791 
L 765.852231 41.625413 
L 766.425089 41.625413 
L 766.425089 42.321358 
L 766.997948 42.321358 
L 766.997948 43.101212 
L 767.570806 43.101212 
L 767.570806 42.143586 
L 768.143664 42.143586 
L 768.143664 41.65852 
L 768.716523 41.65852 
L 768.716523 41.849134 
L 769.289381 41.849134 
L 769.289381 39.848234 
L 769.86224 39.848234 
L 769.86224 38.770928 
L 770.435098 38.770928 
L 770.435098 38.002222 
L 772.153673 37.985794 
L 772.153673 34.626921 
L 772.726532 34.626921 
L 772.726532 32.39675 
L 773.872249 32.41749 
L 773.872249 31.505466 
L 774.445107 31.505466 
L 774.445107 33.318032 
L 775.017966 33.318032 
L 775.017966 32.549792 
L 775.590824 32.549792 
L 775.590824 32.736864 
L 776.163683 32.736864 
L 776.163683 31.712319 
L 776.736541 31.712319 
L 776.736541 32.012747 
L 777.309399 32.012747 
L 777.309399 32.549721 
L 777.882258 32.549721 
L 777.882258 32.174183 
L 778.455116 32.174183 
L 778.455116 33.715737 
L 779.027975 33.715737 
L 779.027975 34.591585 
L 779.600833 34.591585 
L 779.600833 33.426862 
L 780.173692 33.426862 
L 780.173692 33.570305 
L 780.74655 33.570305 
L 780.74655 33.774332 
L 781.319408 33.774332 
L 781.319408 34.073841 
L 781.892267 34.073841 
L 781.892267 34.253605 
L 782.465125 34.253605 
L 782.465125 34.747348 
L 783.037984 34.747348 
L 783.037984 33.033161 
L 784.183701 33.025017 
L 784.183701 32.524704 
L 784.756559 32.524704 
L 784.756559 32.106969 
L 785.329417 32.106969 
L 785.329417 32.659967 
L 785.902276 32.659967 
L 785.902276 31.769425 
L 786.475134 31.769425 
L 786.475134 32.128992 
L 787.047993 32.128992 
L 787.047993 32.437178 
L 787.620851 32.437178 
L 787.620851 32.913262 
L 788.19371 32.913262 
L 788.19371 33.463747 
L 788.766568 33.463747 
L 788.766568 34.92144 
L 789.912285 34.909438 
L 789.912285 34.348633 
L 790.485143 34.348633 
L 790.485143 35.602153 
L 791.058002 35.602153 
L 791.058002 35.782448 
L 791.63086 35.782448 
L 791.63086 34.749858 
L 792.203719 34.749858 
L 792.203719 33.73174 
L 792.776577 33.73174 
L 792.776577 32.626657 
L 793.922294 32.532774 
L 793.922294 33.051048 
L 794.495152 33.051048 
L 794.495152 34.789917 
L 795.068011 34.789917 
L 795.068011 36.745077 
L 795.640869 36.745077 
L 795.640869 35.447462 
L 796.213728 35.447462 
L 796.213728 35.858777 
L 796.786586 35.858777 
L 796.786586 35.190253 
L 797.359445 35.190253 
L 797.359445 33.696253 
L 797.932303 33.696253 
L 797.932303 35.193314 
L 798.505161 35.193314 
L 798.505161 35.361718 
L 799.07802 35.361718 
L 799.07802 35.705012 
L 799.650878 35.705012 
L 799.650878 36.809342 
L 800.223737 36.809342 
L 800.223737 35.64646 
L 801.369454 35.626323 
L 801.369454 33.969671 
L 801.942312 33.969671 
L 801.942312 33.634778 
L 802.51517 33.634778 
L 802.51517 33.139462 
L 803.088029 33.139462 
L 803.088029 34.802204 
L 803.660887 34.802204 
L 803.660887 34.096256 
L 804.233746 34.096256 
L 804.233746 34.924862 
L 804.806604 34.924862 
L 804.806604 33.090867 
L 805.379463 33.090867 
L 805.379463 32.38254 
L 805.952321 32.38254 
L 805.952321 32.694641 
L 807.098038 32.798795 
L 807.098038 31.27132 
L 807.670896 31.27132 
L 807.670896 32.289673 
L 808.243755 32.289673 
L 808.243755 30.299405 
L 808.816613 30.299405 
L 808.816613 27.180553 
L 809.389472 27.180553 
L 809.389472 26.658369 
L 809.96233 26.658369 
L 809.96233 26.373116 
L 810.535189 26.373116 
L 810.535189 25.233636 
L 811.108047 25.233636 
L 811.108047 25.609949 
L 811.680905 25.609949 
L 811.680905 25.337003 
L 813.399481 25.297523 
L 813.399481 24.491571 
L 813.972339 24.491571 
L 813.972339 23.586855 
L 814.545198 23.586855 
L 814.545198 25.346699 
L 815.118056 25.346699 
L 815.118056 24.924032 
L 815.690914 24.924032 
L 815.690914 26.121666 
L 816.263773 26.121666 
L 816.263773 25.423666 
L 816.836631 25.423666 
L 816.836631 24.337063 
L 817.40949 24.337063 
L 817.40949 25.873486 
L 817.982348 25.873486 
L 817.982348 25.491296 
L 818.555207 25.491296 
L 818.555207 23.919231 
L 819.128065 23.919231 
L 819.128065 24.067841 
L 819.700923 24.067841 
L 819.700923 24.270709 
L 820.273782 24.270709 
L 820.273782 23.855056 
L 820.84664 23.855056 
L 820.84664 24.50199 
L 821.419499 24.50199 
L 821.419499 25.488483 
L 821.992357 25.488483 
L 821.992357 25.652782 
L 822.565216 25.652782 
L 822.565216 25.271223 
L 823.138074 25.271223 
L 823.138074 25.467314 
L 824.283791 25.543726 
L 824.283791 28.122026 
L 824.856649 28.122026 
L 824.856649 27.78511 
L 825.429508 27.78511 
L 825.429508 27.631272 
L 826.002366 27.631272 
L 826.002366 28.549278 
L 826.575225 28.549278 
L 826.575225 28.194622 
L 827.148083 28.194622 
L 827.148083 27.603109 
L 827.720942 27.603109 
L 827.720942 27.79086 
L 828.2938 27.79086 
L 828.2938 27.52942 
L 828.866658 27.52942 
L 828.866658 28.628761 
L 829.439517 28.628761 
L 829.439517 28.31314 
L 830.012375 28.31314 
L 830.012375 30.209848 
L 830.585234 30.209848 
L 830.585234 27.971769 
L 831.158092 27.971769 
L 831.158092 28.267427 
L 831.730951 28.267427 
L 831.730951 27.997767 
L 832.303809 27.997767 
L 832.303809 26.028875 
L 832.876667 26.028875 
L 832.876667 25.81108 
L 833.449526 25.81108 
L 833.449526 25.408497 
L 834.595243 25.430955 
L 834.595243 23.850792 
L 835.168101 23.850792 
L 835.168101 24.084244 
L 835.74096 24.084244 
L 835.74096 23.536214 
L 836.313818 23.536214 
L 836.313818 22.563278 
L 836.886676 22.563278 
L 836.886676 22.969087 
L 837.459535 22.969087 
L 837.459535 23.992494 
L 838.032393 23.992494 
L 838.032393 23.723455 
L 839.17811 23.685773 
L 839.17811 23.114651 
L 839.750969 23.114651 
L 839.750969 23.699869 
L 840.323827 23.699869 
L 840.323827 23.867227 
L 840.896686 23.867227 
L 840.896686 23.733748 
L 841.469544 23.733748 
L 841.469544 23.407606 
L 842.042402 23.407606 
L 842.042402 23.67197 
L 842.615261 23.67197 
L 842.615261 23.196894 
L 843.188119 23.196894 
L 843.188119 22.63816 
L 843.760978 22.63816 
L 843.760978 21.283255 
L 844.906695 21.252761 
L 844.906695 21.562443 
L 846.62527 21.480964 
L 846.62527 22.420458 
L 847.198128 22.420458 
L 847.198128 21.979852 
L 847.770987 21.979852 
L 847.770987 21.249643 
L 848.343845 21.249643 
L 848.343845 21.402591 
L 848.916704 21.402591 
L 848.916704 21.76739 
L 850.06242 21.66157 
L 850.06242 22.548708 
L 850.635279 22.548708 
L 850.635279 23.095814 
L 851.208137 23.095814 
L 851.208137 22.560524 
L 852.353854 22.661532 
L 852.353854 21.894154 
L 854.072429 21.864056 
L 854.072429 22.511697 
L 854.645288 22.511697 
L 854.645288 22.931157 
L 855.218146 22.931157 
L 855.218146 21.363749 
L 855.791005 21.363749 
L 855.791005 20.552727 
L 856.363863 20.552727 
L 856.363863 20.852518 
L 856.936722 20.852518 
L 856.936722 21.946446 
L 857.50958 21.946446 
L 857.50958 23.528444 
L 858.082439 23.528444 
L 858.082439 23.159011 
L 858.655297 23.159011 
L 858.655297 22.578441 
L 859.228155 22.578441 
L 859.228155 22.861951 
L 860.373872 22.765112 
L 860.373872 24.528115 
L 860.946731 24.528115 
L 860.946731 23.623438 
L 861.519589 23.623438 
L 861.519589 25.937762 
L 862.092448 25.937762 
L 862.092448 26.241358 
L 862.665306 26.241358 
L 862.665306 28.114511 
L 863.238164 28.114511 
L 863.238164 26.77875 
L 864.383881 26.81 
L 864.383881 26.4225 
L 864.95674 26.4225 
L 864.95674 26.750885 
L 866.102457 26.833691 
L 866.102457 27.381199 
L 866.675315 27.381199 
L 866.675315 27.267051 
L 867.248173 27.267051 
L 867.248173 27.433167 
L 868.39389 27.38126 
L 868.39389 27.177108 
L 868.966749 27.177108 
L 868.966749 26.047721 
L 869.539607 26.047721 
L 869.539607 26.78359 
L 870.112466 26.78359 
L 870.112466 25.740447 
L 871.258182 25.790073 
L 871.258182 27.033228 
L 871.831041 27.033228 
L 871.831041 27.671621 
L 872.403899 27.671621 
L 872.403899 28.141547 
L 872.976758 28.141547 
L 872.976758 29.585924 
L 873.549616 29.585924 
L 873.549616 31.778773 
L 874.122475 31.778773 
L 874.122475 32.275099 
L 874.695333 32.275099 
L 874.695333 31.997414 
L 875.268192 31.997414 
L 875.268192 32.976194 
L 875.84105 32.976194 
L 875.84105 32.621431 
L 876.986767 32.664182 
L 876.986767 32.280477 
L 877.559625 32.280477 
L 877.559625 32.469842 
L 878.132484 32.469842 
L 878.132484 31.94932 
L 878.705342 31.94932 
L 878.705342 31.581416 
L 879.851059 31.568816 
L 879.851059 32.551997 
L 880.423917 32.551997 
L 880.423917 32.27942 
L 880.996776 32.27942 
L 880.996776 32.895954 
L 882.142493 32.824821 
L 882.142493 31.376903 
L 882.715351 31.376903 
L 882.715351 31.068738 
L 883.28821 31.068738 
L 883.28821 30.594729 
L 883.861068 30.594729 
L 883.861068 30.85284 
L 884.433926 30.85284 
L 884.433926 29.691368 
L 885.006785 29.691368 
L 885.006785 29.921252 
L 885.579643 29.921252 
L 885.579643 29.709486 
L 886.152502 29.709486 
L 886.152502 29.021541 
L 886.72536 29.021541 
L 886.72536 29.171508 
L 887.194182 29.171508 
L 887.194182 29.171508 
" clip-path="url(#p277ae7eee5)" style="fill: none; stroke: #3572c6; stroke-width: 1.2; stroke-linecap: square"/>
   </g>
   <g id="line2d_79">
    <path d="M 75.557818 20.552727 
L 887.194182 20.552727 
L 887.194182 20.552727 
" clip-path="url(#p277ae7eee5)" style="fill: none; stroke: #83a83b; stroke-width: 1.2; stroke-linecap: square"/>
   </g>
   <g id="line2d_80">
    <path d="M 75.557818 32.976194 
L 887.194182 32.976194 
L 887.194182 32.976194 
" clip-path="url(#p277ae7eee5)" style="fill: none; stroke: #c44e52; stroke-width: 1.2; stroke-linecap: square"/>
   </g>
   <g id="line2d_81">
    <path d="M 856.363863 300.96 
L 856.363863 7.2 
" clip-path="url(#p277ae7eee5)" style="fill: none; stroke: #83a83b; stroke-width: 1.2; stroke-linecap: square"/>
   </g>
   <g id="line2d_82">
    <path d="M 875.84105 300.96 
L 875.84105 7.2 
" clip-path="url(#p277ae7eee5)" style="fill: none; stroke: #c44e52; stroke-width: 1.2; stroke-linecap: square"/>
   </g>
   <g id="patch_3">
    <path d="M 34.976 300.96 
L 34.976 7.2 
" style="fill: none; stroke: #899ab8; stroke-width: 1.12; stroke-linejoin: miter; stroke-linecap: square"/>
   </g>
   <g id="patch_4">
    <path d="M 927.776 300.96 
L 927.776 7.2 
" style="fill: none; stroke: #899ab8; stroke-width: 1.12; stroke-linejoin: miter; stroke-linecap: square"/>
   </g>
   <g id="patch_5">
    <path d="M 34.976 300.96 
L 927.776 300.96 
" style="fill: none; stroke: #899ab8; stroke-width: 1.12; stroke-linejoin: miter; stroke-linecap: square"/>
   </g>
   <g id="patch_6">
    <path d="M 34.976 7.2 
L 927.776 7.2 
" style="fill: none; stroke: #899ab8; stroke-width: 1.12; stroke-linejoin: miter; stroke-linecap: square"/>
   </g>
   <g id="text_16">
    <!-- 123519.47 -->
    <g style="fill: #83a83b" transform="translate(180.104482 20.552727) scale(0.132 -0.132)">
     <defs>
      <path id="DejaVuSans-39" d="M 703 97 
L 703 672 
Q 941 559 1184 500 
Q 1428 441 1663 441 
Q 2288 441 2617 861 
Q 2947 1281 2994 2138 
Q 2813 1869 2534 1725 
Q 2256 1581 1919 1581 
Q 1219 1581 811 2004 
Q 403 2428 403 3163 
Q 403 3881 828 4315 
Q 1253 4750 1959 4750 
Q 2769 4750 3195 4129 
Q 3622 3509 3622 2328 
Q 3622 1225 3098 567 
Q 2575 -91 1691 -91 
Q 1453 -91 1209 -44 
Q 966 3 703 97 
z
M 1959 2075 
Q 2384 2075 2632 2365 
Q 2881 2656 2881 3163 
Q 2881 3666 2632 3958 
Q 2384 4250 1959 4250 
Q 1534 4250 1286 3958 
Q 1038 3666 1038 3163 
Q 1038 2656 1286 2365 
Q 1534 2075 1959 2075 
z
" transform="scale(0.015625)"/>
      <path id="DejaVuSans-2e" d="M 684 794 
L 1344 794 
L 1344 0 
L 684 0 
L 684 794 
z
" transform="scale(0.015625)"/>
      <path id="DejaVuSans-37" d="M 525 4666 
L 3525 4666 
L 3525 4397 
L 1831 0 
L 1172 0 
L 2766 4134 
L 525 4134 
L 525 4666 
z
" transform="scale(0.015625)"/>
     </defs>
     <use xlink:href="#DejaVuSans-31"/>
     <use xlink:href="#DejaVuSans-32" transform="translate(63.623047 0)"/>
     <use xlink:href="#DejaVuSans-33" transform="translate(127.246094 0)"/>
     <use xlink:href="#DejaVuSans-35" transform="translate(190.869141 0)"/>
     <use xlink:href="#DejaVuSans-31" transform="translate(254.492188 0)"/>
     <use xlink:href="#DejaVuSans-39" transform="translate(318.115234 0)"/>
     <use xlink:href="#DejaVuSans-2e" transform="translate(381.738281 0)"/>
     <use xlink:href="#DejaVuSans-34" transform="translate(413.525391 0)"/>
     <use xlink:href="#DejaVuSans-37" transform="translate(477.148438 0)"/>
    </g>
   </g>
   <g id="text_17">
    <!-- 66427.8 -->
    <g style="fill: #c44e52" transform="translate(180.104482 32.976194) scale(0.132 -0.132)">
     <use xlink:href="#DejaVuSans-36"/>
     <use xlink:href="#DejaVuSans-36" transform="translate(63.623047 0)"/>
     <use xlink:href="#DejaVuSans-34" transform="translate(127.246094 0)"/>
     <use xlink:href="#DejaVuSans-32" transform="translate(190.869141 0)"/>
     <use xlink:href="#DejaVuSans-37" transform="translate(254.492188 0)"/>
     <use xlink:href="#DejaVuSans-2e" transform="translate(318.115234 0)"/>
     <use xlink:href="#DejaVuSans-38" transform="translate(349.902344 0)"/>
    </g>
   </g>
   <g id="legend_1">
    <g id="patch_7">
     <path d="M 43.796 183.886875 
L 142.133094 183.886875 
Q 144.653094 183.886875 144.653094 181.366875 
L 144.653094 126.793125 
Q 144.653094 124.273125 142.133094 124.273125 
L 43.796 124.273125 
Q 41.276 124.273125 41.276 126.793125 
L 41.276 181.366875 
Q 41.276 183.886875 43.796 183.886875 
z
" style="fill: #373e4b; opacity: 0.8; stroke: #cccccc; stroke-width: 0.16; stroke-linejoin: miter"/>
    </g>
    <g id="line2d_83">
     <path d="M 46.316 134.477156 
L 46.316 134.477156 
L 58.916 134.477156 
L 58.916 134.477156 
L 71.516 134.477156 
" style="fill: none; stroke: #3572c6; stroke-width: 1.2; stroke-linecap: square"/>
    </g>
    <g id="text_18">
     <!-- USD/BTC -->
     <g style="fill: #b1bed6" transform="translate(81.596 138.887156) scale(0.126 -0.126)">
      <defs>
       <path id="DejaVuSans-55" d="M 556 4666 
L 1191 4666 
L 1191 1831 
Q 1191 1081 1462 751 
Q 1734 422 2344 422 
Q 2950 422 3222 751 
Q 3494 1081 3494 1831 
L 3494 4666 
L 4128 4666 
L 4128 1753 
Q 4128 841 3676 375 
Q 3225 -91 2344 -91 
Q 1459 -91 1007 375 
Q 556 841 556 1753 
L 556 4666 
z
" transform="scale(0.015625)"/>
       <path id="DejaVuSans-53" d="M 3425 4513 
L 3425 3897 
Q 3066 4069 2747 4153 
Q 2428 4238 2131 4238 
Q 1616 4238 1336 4038 
Q 1056 3838 1056 3469 
Q 1056 3159 1242 3001 
Q 1428 2844 1947 2747 
L 2328 2669 
Q 3034 2534 3370 2195 
Q 3706 1856 3706 1288 
Q 3706 609 3251 259 
Q 2797 -91 1919 -91 
Q 1588 -91 1214 -16 
Q 841 59 441 206 
L 441 856 
Q 825 641 1194 531 
Q 1563 422 1919 422 
Q 2459 422 2753 634 
Q 3047 847 3047 1241 
Q 3047 1584 2836 1778 
Q 2625 1972 2144 2069 
L 1759 2144 
Q 1053 2284 737 2584 
Q 422 2884 422 3419 
Q 422 4038 858 4394 
Q 1294 4750 2059 4750 
Q 2388 4750 2728 4690 
Q 3069 4631 3425 4513 
z
" transform="scale(0.015625)"/>
       <path id="DejaVuSans-2f" d="M 1625 4666 
L 2156 4666 
L 531 -594 
L 0 -594 
L 1625 4666 
z
" transform="scale(0.015625)"/>
       <path id="DejaVuSans-42" d="M 1259 2228 
L 1259 519 
L 2272 519 
Q 2781 519 3026 730 
Q 3272 941 3272 1375 
Q 3272 1813 3026 2020 
Q 2781 2228 2272 2228 
L 1259 2228 
z
M 1259 4147 
L 1259 2741 
L 2194 2741 
Q 2656 2741 2882 2914 
Q 3109 3088 3109 3444 
Q 3109 3797 2882 3972 
Q 2656 4147 2194 4147 
L 1259 4147 
z
M 628 4666 
L 2241 4666 
Q 2963 4666 3353 4366 
Q 3744 4066 3744 3513 
Q 3744 3084 3544 2831 
Q 3344 2578 2956 2516 
Q 3422 2416 3680 2098 
Q 3938 1781 3938 1306 
Q 3938 681 3513 340 
Q 3088 0 2303 0 
L 628 0 
L 628 4666 
z
" transform="scale(0.015625)"/>
       <path id="DejaVuSans-54" d="M -19 4666 
L 3928 4666 
L 3928 4134 
L 2272 4134 
L 2272 0 
L 1638 0 
L 1638 4134 
L -19 4134 
L -19 4666 
z
" transform="scale(0.015625)"/>
       <path id="DejaVuSans-43" d="M 4122 4306 
L 4122 3641 
Q 3803 3938 3442 4084 
Q 3081 4231 2675 4231 
Q 1875 4231 1450 3742 
Q 1025 3253 1025 2328 
Q 1025 1406 1450 917 
Q 1875 428 2675 428 
Q 3081 428 3442 575 
Q 3803 722 4122 1019 
L 4122 359 
Q 3791 134 3420 21 
Q 3050 -91 2638 -91 
Q 1578 -91 968 557 
Q 359 1206 359 2328 
Q 359 3453 968 4101 
Q 1578 4750 2638 4750 
Q 3056 4750 3426 4639 
Q 3797 4528 4122 4306 
z
" transform="scale(0.015625)"/>
      </defs>
      <use xlink:href="#DejaVuSans-55"/>
      <use xlink:href="#DejaVuSans-53" transform="translate(73.193359 0)"/>
      <use xlink:href="#DejaVuSans-44" transform="translate(136.669922 0)"/>
      <use xlink:href="#DejaVuSans-2f" transform="translate(213.671875 0)"/>
      <use xlink:href="#DejaVuSans-42" transform="translate(247.363281 0)"/>
      <use xlink:href="#DejaVuSans-54" transform="translate(315.966797 0)"/>
      <use xlink:href="#DejaVuSans-43" transform="translate(371.175781 0)"/>
     </g>
    </g>
    <g id="line2d_84">
     <path d="M 46.316 152.971594 
L 46.316 152.971594 
L 58.916 152.971594 
L 58.916 152.971594 
L 71.516 152.971594 
" style="fill: none; stroke: #83a83b; stroke-width: 1.2; stroke-linecap: square"/>
    </g>
    <g id="text_19">
     <!-- Max -->
     <g style="fill: #b1bed6" transform="translate(81.596 157.381594) scale(0.126 -0.126)">
      <defs>
       <path id="DejaVuSans-4d" d="M 628 4666 
L 1569 4666 
L 2759 1491 
L 3956 4666 
L 4897 4666 
L 4897 0 
L 4281 0 
L 4281 4097 
L 3078 897 
L 2444 897 
L 1241 4097 
L 1241 0 
L 628 0 
L 628 4666 
z
" transform="scale(0.015625)"/>
       <path id="DejaVuSans-78" d="M 3513 3500 
L 2247 1797 
L 3578 0 
L 2900 0 
L 1881 1375 
L 863 0 
L 184 0 
L 1544 1831 
L 300 3500 
L 978 3500 
L 1906 2253 
L 2834 3500 
L 3513 3500 
z
" transform="scale(0.015625)"/>
      </defs>
      <use xlink:href="#DejaVuSans-4d"/>
      <use xlink:href="#DejaVuSans-61" transform="translate(86.279297 0)"/>
      <use xlink:href="#DejaVuSans-78" transform="translate(147.558594 0)"/>
     </g>
    </g>
    <g id="line2d_85">
     <path d="M 46.316 171.466031 
L 46.316 171.466031 
L 58.916 171.466031 
L 58.916 171.466031 
L 71.516 171.466031 
" style="fill: none; stroke: #c44e52; stroke-width: 1.2; stroke-linecap: square"/>
    </g>
    <g id="text_20">
     <!-- local_Min -->
     <g style="fill: #b1bed6" transform="translate(81.596 175.876031) scale(0.126 -0.126)">
      <defs>
       <path id="DejaVuSans-6c" d="M 603 4863 
L 1178 4863 
L 1178 0 
L 603 0 
L 603 4863 
z
" transform="scale(0.015625)"/>
       <path id="DejaVuSans-6f" d="M 1959 3097 
Q 1497 3097 1228 2736 
Q 959 2375 959 1747 
Q 959 1119 1226 758 
Q 1494 397 1959 397 
Q 2419 397 2687 759 
Q 2956 1122 2956 1747 
Q 2956 2369 2687 2733 
Q 2419 3097 1959 3097 
z
M 1959 3584 
Q 2709 3584 3137 3096 
Q 3566 2609 3566 1747 
Q 3566 888 3137 398 
Q 2709 -91 1959 -91 
Q 1206 -91 779 398 
Q 353 888 353 1747 
Q 353 2609 779 3096 
Q 1206 3584 1959 3584 
z
" transform="scale(0.015625)"/>
       <path id="DejaVuSans-63" d="M 3122 3366 
L 3122 2828 
Q 2878 2963 2633 3030 
Q 2388 3097 2138 3097 
Q 1578 3097 1268 2742 
Q 959 2388 959 1747 
Q 959 1106 1268 751 
Q 1578 397 2138 397 
Q 2388 397 2633 464 
Q 2878 531 3122 666 
L 3122 134 
Q 2881 22 2623 -34 
Q 2366 -91 2075 -91 
Q 1284 -91 818 406 
Q 353 903 353 1747 
Q 353 2603 823 3093 
Q 1294 3584 2113 3584 
Q 2378 3584 2631 3529 
Q 2884 3475 3122 3366 
z
" transform="scale(0.015625)"/>
       <path id="DejaVuSans-5f" d="M 3263 -1063 
L 3263 -1509 
L -63 -1509 
L -63 -1063 
L 3263 -1063 
z
" transform="scale(0.015625)"/>
       <path id="DejaVuSans-69" d="M 603 3500 
L 1178 3500 
L 1178 0 
L 603 0 
L 603 3500 
z
M 603 4863 
L 1178 4863 
L 1178 4134 
L 603 4134 
L 603 4863 
z
" transform="scale(0.015625)"/>
       <path id="DejaVuSans-6e" d="M 3513 2113 
L 3513 0 
L 2938 0 
L 2938 2094 
Q 2938 2591 2744 2837 
Q 2550 3084 2163 3084 
Q 1697 3084 1428 2787 
Q 1159 2491 1159 1978 
L 1159 0 
L 581 0 
L 581 3500 
L 1159 3500 
L 1159 2956 
Q 1366 3272 1645 3428 
Q 1925 3584 2291 3584 
Q 2894 3584 3203 3211 
Q 3513 2838 3513 2113 
z
" transform="scale(0.015625)"/>
      </defs>
      <use xlink:href="#DejaVuSans-6c"/>
      <use xlink:href="#DejaVuSans-6f" transform="translate(27.783203 0)"/>
      <use xlink:href="#DejaVuSans-63" transform="translate(88.964844 0)"/>
      <use xlink:href="#DejaVuSans-61" transform="translate(143.945312 0)"/>
      <use xlink:href="#DejaVuSans-6c" transform="translate(205.224609 0)"/>
      <use xlink:href="#DejaVuSans-5f" transform="translate(233.007812 0)"/>
      <use xlink:href="#DejaVuSans-4d" transform="translate(283.007812 0)"/>
      <use xlink:href="#DejaVuSans-69" transform="translate(369.287109 0)"/>
      <use xlink:href="#DejaVuSans-6e" transform="translate(397.070312 0)"/>
     </g>
    </g>
   </g>
  </g>
 </g>
 <defs>
  <clipPath id="p277ae7eee5">
   <rect x="34.976" y="7.2" width="892.8" height="293.76"/>
  </clipPath>
 </defs>
</svg>
