<?xml version="1.0" encoding="utf-8" standalone="no"?>
<!DOCTYPE svg PUBLIC "-//W3C//DTD SVG 1.1//EN"
  "http://www.w3.org/Graphics/SVG/1.1/DTD/svg11.dtd">
<svg xmlns:xlink="http://www.w3.org/1999/xlink" width="934.976pt" height="358.290693pt" viewBox="0 0 934.976 358.290693" xmlns="http://www.w3.org/2000/svg" version="1.1">
 <metadata>
  <rdf:RDF xmlns:dc="http://purl.org/dc/elements/1.1/" xmlns:cc="http://creativecommons.org/ns#" xmlns:rdf="http://www.w3.org/1999/02/22-rdf-syntax-ns#">
   <cc:Work>
    <dc:type rdf:resource="http://purl.org/dc/dcmitype/StillImage"/>
    <dc:date>2025-11-13T20:00:11.545319</dc:date>
    <dc:format>image/svg+xml</dc:format>
    <dc:creator>
     <cc:Agent>
      <dc:title>Matplotlib v3.10.7, https://matplotlib.org/</dc:title>
     </cc:Agent>
    </dc:creator>
   </cc:Work>
  </rdf:RDF>
 </metadata>
 <defs>
  <style type="text/css">*{stroke-linejoin: round; stroke-linecap: butt}</style>
 </defs>
 <g id="figure_1">
  <g id="patch_1">
   <path d="M 0 358.290693 
L 934.976 358.290693 
L 934.976 0 
L 0 0 
z
" style="fill: #373e4b"/>
  </g>
  <g id="axes_1">
   <g id="patch_2">
    <path d="M 34.976 300.96 
L 927.776 300.96 
L 927.776 7.2 
L 34.976 7.2 
z
" style="fill: #373e4b"/>
   </g>
   <g id="matplotlib.axis_1">
    <g id="xtick_1">
     <g id="line2d_1">
      <path d="M 138.379875 300.96 
L 138.379875 7.2 
" clip-path="url(#p59498a0f7b)" style="fill: none; stroke: #546379; stroke-width: 1.12; stroke-linecap: square"/>
     </g>
     <g id="line2d_2"/>
     <g id="text_1">
      <!-- 2012 -->
      <g style="fill: #b1bed6" transform="translate(109.298836 330.884854) rotate(-30) scale(0.126 -0.126)">
       <defs>
        <path id="DejaVuSans-32" d="M 1228 531 
L 3431 531 
L 3431 0 
L 469 0 
L 469 531 
Q 828 903 1448 1529 
Q 2069 2156 2228 2338 
Q 2531 2678 2651 2914 
Q 2772 3150 2772 3378 
Q 2772 3750 2511 3984 
Q 2250 4219 1831 4219 
Q 1534 4219 1204 4116 
Q 875 4013 500 3803 
L 500 4441 
Q 881 4594 1212 4672 
Q 1544 4750 1819 4750 
Q 2544 4750 2975 4387 
Q 3406 4025 3406 3419 
Q 3406 3131 3298 2873 
Q 3191 2616 2906 2266 
Q 2828 2175 2409 1742 
Q 1991 1309 1228 531 
z
" transform="scale(0.015625)"/>
        <path id="DejaVuSans-30" d="M 2034 4250 
Q 1547 4250 1301 3770 
Q 1056 3291 1056 2328 
Q 1056 1369 1301 889 
Q 1547 409 2034 409 
Q 2525 409 2770 889 
Q 3016 1369 3016 2328 
Q 3016 3291 2770 3770 
Q 2525 4250 2034 4250 
z
M 2034 4750 
Q 2819 4750 3233 4129 
Q 3647 3509 3647 2328 
Q 3647 1150 3233 529 
Q 2819 -91 2034 -91 
Q 1250 -91 836 529 
Q 422 1150 422 2328 
Q 422 3509 836 4129 
Q 1250 4750 2034 4750 
z
" transform="scale(0.015625)"/>
        <path id="DejaVuSans-31" d="M 794 531 
L 1825 531 
L 1825 4091 
L 703 3866 
L 703 4441 
L 1819 4666 
L 2450 4666 
L 2450 531 
L 3481 531 
L 3481 0 
L 794 0 
L 794 531 
z
" transform="scale(0.015625)"/>
       </defs>
       <use xlink:href="#DejaVuSans-32"/>
       <use xlink:href="#DejaVuSans-30" transform="translate(63.623047 0)"/>
       <use xlink:href="#DejaVuSans-31" transform="translate(127.246094 0)"/>
       <use xlink:href="#DejaVuSans-32" transform="translate(190.869141 0)"/>
      </g>
     </g>
    </g>
    <g id="xtick_2">
     <g id="line2d_3">
      <path d="M 246.433814 300.96 
L 246.433814 7.2 
" clip-path="url(#p59498a0f7b)" style="fill: none; stroke: #546379; stroke-width: 1.12; stroke-linecap: square"/>
     </g>
     <g id="line2d_4"/>
     <g id="text_2">
      <!-- 2014 -->
      <g style="fill: #b1bed6" transform="translate(217.352774 330.884854) rotate(-30) scale(0.126 -0.126)">
       <defs>
        <path id="DejaVuSans-34" d="M 2419 4116 
L 825 1625 
L 2419 1625 
L 2419 4116 
z
M 2253 4666 
L 3047 4666 
L 3047 1625 
L 3713 1625 
L 3713 1100 
L 3047 1100 
L 3047 0 
L 2419 0 
L 2419 1100 
L 313 1100 
L 313 1709 
L 2253 4666 
z
" transform="scale(0.015625)"/>
       </defs>
       <use xlink:href="#DejaVuSans-32"/>
       <use xlink:href="#DejaVuSans-30" transform="translate(63.623047 0)"/>
       <use xlink:href="#DejaVuSans-31" transform="translate(127.246094 0)"/>
       <use xlink:href="#DejaVuSans-34" transform="translate(190.869141 0)"/>
      </g>
     </g>
    </g>
    <g id="xtick_3">
     <g id="line2d_5">
      <path d="M 354.339936 300.96 
L 354.339936 7.2 
" clip-path="url(#p59498a0f7b)" style="fill: none; stroke: #546379; stroke-width: 1.12; stroke-linecap: square"/>
     </g>
     <g id="line2d_6"/>
     <g id="text_3">
      <!-- 2016 -->
      <g style="fill: #b1bed6" transform="translate(325.258896 330.884854) rotate(-30) scale(0.126 -0.126)">
       <defs>
        <path id="DejaVuSans-36" d="M 2113 2584 
Q 1688 2584 1439 2293 
Q 1191 2003 1191 1497 
Q 1191 994 1439 701 
Q 1688 409 2113 409 
Q 2538 409 2786 701 
Q 3034 994 3034 1497 
Q 3034 2003 2786 2293 
Q 2538 2584 2113 2584 
z
M 3366 4563 
L 3366 3988 
Q 3128 4100 2886 4159 
Q 2644 4219 2406 4219 
Q 1781 4219 1451 3797 
Q 1122 3375 1075 2522 
Q 1259 2794 1537 2939 
Q 1816 3084 2150 3084 
Q 2853 3084 3261 2657 
Q 3669 2231 3669 1497 
Q 3669 778 3244 343 
Q 2819 -91 2113 -91 
Q 1303 -91 875 529 
Q 447 1150 447 2328 
Q 447 3434 972 4092 
Q 1497 4750 2381 4750 
Q 2619 4750 2861 4703 
Q 3103 4656 3366 4563 
z
" transform="scale(0.015625)"/>
       </defs>
       <use xlink:href="#DejaVuSans-32"/>
       <use xlink:href="#DejaVuSans-30" transform="translate(63.623047 0)"/>
       <use xlink:href="#DejaVuSans-31" transform="translate(127.246094 0)"/>
       <use xlink:href="#DejaVuSans-36" transform="translate(190.869141 0)"/>
      </g>
     </g>
    </g>
    <g id="xtick_4">
     <g id="line2d_7">
      <path d="M 462.393875 300.96 
L 462.393875 7.2 
" clip-path="url(#p59498a0f7b)" style="fill: none; stroke: #546379; stroke-width: 1.12; stroke-linecap: square"/>
     </g>
     <g id="line2d_8"/>
     <g id="text_4">
      <!-- 2018 -->
      <g style="fill: #b1bed6" transform="translate(433.312835 330.884854) rotate(-30) scale(0.126 -0.126)">
       <defs>
        <path id="DejaVuSans-38" d="M 2034 2216 
Q 1584 2216 1326 1975 
Q 1069 1734 1069 1313 
Q 1069 891 1326 650 
Q 1584 409 2034 409 
Q 2484 409 2743 651 
Q 3003 894 3003 1313 
Q 3003 1734 2745 1975 
Q 2488 2216 2034 2216 
z
M 1403 2484 
Q 997 2584 770 2862 
Q 544 3141 544 3541 
Q 544 4100 942 4425 
Q 1341 4750 2034 4750 
Q 2731 4750 3128 4425 
Q 3525 4100 3525 3541 
Q 3525 3141 3298 2862 
Q 3072 2584 2669 2484 
Q 3125 2378 3379 2068 
Q 3634 1759 3634 1313 
Q 3634 634 3220 271 
Q 2806 -91 2034 -91 
Q 1263 -91 848 271 
Q 434 634 434 1313 
Q 434 1759 690 2068 
Q 947 2378 1403 2484 
z
M 1172 3481 
Q 1172 3119 1398 2916 
Q 1625 2713 2034 2713 
Q 2441 2713 2670 2916 
Q 2900 3119 2900 3481 
Q 2900 3844 2670 4047 
Q 2441 4250 2034 4250 
Q 1625 4250 1398 4047 
Q 1172 3844 1172 3481 
z
" transform="scale(0.015625)"/>
       </defs>
       <use xlink:href="#DejaVuSans-32"/>
       <use xlink:href="#DejaVuSans-30" transform="translate(63.623047 0)"/>
       <use xlink:href="#DejaVuSans-31" transform="translate(127.246094 0)"/>
       <use xlink:href="#DejaVuSans-38" transform="translate(190.869141 0)"/>
      </g>
     </g>
    </g>
    <g id="xtick_5">
     <g id="line2d_9">
      <path d="M 570.299997 300.96 
L 570.299997 7.2 
" clip-path="url(#p59498a0f7b)" style="fill: none; stroke: #546379; stroke-width: 1.12; stroke-linecap: square"/>
     </g>
     <g id="line2d_10"/>
     <g id="text_5">
      <!-- 2020 -->
      <g style="fill: #b1bed6" transform="translate(541.218957 330.884854) rotate(-30) scale(0.126 -0.126)">
       <use xlink:href="#DejaVuSans-32"/>
       <use xlink:href="#DejaVuSans-30" transform="translate(63.623047 0)"/>
       <use xlink:href="#DejaVuSans-32" transform="translate(127.246094 0)"/>
       <use xlink:href="#DejaVuSans-30" transform="translate(190.869141 0)"/>
      </g>
     </g>
    </g>
    <g id="xtick_6">
     <g id="line2d_11">
      <path d="M 678.353935 300.96 
L 678.353935 7.2 
" clip-path="url(#p59498a0f7b)" style="fill: none; stroke: #546379; stroke-width: 1.12; stroke-linecap: square"/>
     </g>
     <g id="line2d_12"/>
     <g id="text_6">
      <!-- 2022 -->
      <g style="fill: #b1bed6" transform="translate(649.272895 330.884854) rotate(-30) scale(0.126 -0.126)">
       <use xlink:href="#DejaVuSans-32"/>
       <use xlink:href="#DejaVuSans-30" transform="translate(63.623047 0)"/>
       <use xlink:href="#DejaVuSans-32" transform="translate(127.246094 0)"/>
       <use xlink:href="#DejaVuSans-32" transform="translate(190.869141 0)"/>
      </g>
     </g>
    </g>
    <g id="xtick_7">
     <g id="line2d_13">
      <path d="M 786.260057 300.96 
L 786.260057 7.2 
" clip-path="url(#p59498a0f7b)" style="fill: none; stroke: #546379; stroke-width: 1.12; stroke-linecap: square"/>
     </g>
     <g id="line2d_14"/>
     <g id="text_7">
      <!-- 2024 -->
      <g style="fill: #b1bed6" transform="translate(757.179017 330.884854) rotate(-30) scale(0.126 -0.126)">
       <use xlink:href="#DejaVuSans-32"/>
       <use xlink:href="#DejaVuSans-30" transform="translate(63.623047 0)"/>
       <use xlink:href="#DejaVuSans-32" transform="translate(127.246094 0)"/>
       <use xlink:href="#DejaVuSans-34" transform="translate(190.869141 0)"/>
      </g>
     </g>
    </g>
    <g id="xtick_8">
     <g id="line2d_15">
      <path d="M 894.313996 300.96 
L 894.313996 7.2 
" clip-path="url(#p59498a0f7b)" style="fill: none; stroke: #546379; stroke-width: 1.12; stroke-linecap: square"/>
     </g>
     <g id="line2d_16"/>
     <g id="text_8">
      <!-- 2026 -->
      <g style="fill: #b1bed6" transform="translate(865.232956 330.884854) rotate(-30) scale(0.126 -0.126)">
       <use xlink:href="#DejaVuSans-32"/>
       <use xlink:href="#DejaVuSans-30" transform="translate(63.623047 0)"/>
       <use xlink:href="#DejaVuSans-32" transform="translate(127.246094 0)"/>
       <use xlink:href="#DejaVuSans-36" transform="translate(190.869141 0)"/>
      </g>
     </g>
    </g>
    <g id="text_9">
     <!-- Date -->
     <g style="fill: #b1bed6" transform="translate(464.166875 348.095943) scale(0.144 -0.144)">
      <defs>
       <path id="DejaVuSans-44" d="M 1259 4147 
L 1259 519 
L 2022 519 
Q 2988 519 3436 956 
Q 3884 1394 3884 2338 
Q 3884 3275 3436 3711 
Q 2988 4147 2022 4147 
L 1259 4147 
z
M 628 4666 
L 1925 4666 
Q 3281 4666 3915 4102 
Q 4550 3538 4550 2338 
Q 4550 1131 3912 565 
Q 3275 0 1925 0 
L 628 0 
L 628 4666 
z
" transform="scale(0.015625)"/>
       <path id="DejaVuSans-61" d="M 2194 1759 
Q 1497 1759 1228 1600 
Q 959 1441 959 1056 
Q 959 750 1161 570 
Q 1363 391 1709 391 
Q 2188 391 2477 730 
Q 2766 1069 2766 1631 
L 2766 1759 
L 2194 1759 
z
M 3341 1997 
L 3341 0 
L 2766 0 
L 2766 531 
Q 2569 213 2275 61 
Q 1981 -91 1556 -91 
Q 1019 -91 701 211 
Q 384 513 384 1019 
Q 384 1609 779 1909 
Q 1175 2209 1959 2209 
L 2766 2209 
L 2766 2266 
Q 2766 2663 2505 2880 
Q 2244 3097 1772 3097 
Q 1472 3097 1187 3025 
Q 903 2953 641 2809 
L 641 3341 
Q 956 3463 1253 3523 
Q 1550 3584 1831 3584 
Q 2591 3584 2966 3190 
Q 3341 2797 3341 1997 
z
" transform="scale(0.015625)"/>
       <path id="DejaVuSans-74" d="M 1172 4494 
L 1172 3500 
L 2356 3500 
L 2356 3053 
L 1172 3053 
L 1172 1153 
Q 1172 725 1289 603 
Q 1406 481 1766 481 
L 2356 481 
L 2356 0 
L 1766 0 
Q 1100 0 847 248 
Q 594 497 594 1153 
L 594 3053 
L 172 3053 
L 172 3500 
L 594 3500 
L 594 4494 
L 1172 4494 
z
" transform="scale(0.015625)"/>
       <path id="DejaVuSans-65" d="M 3597 1894 
L 3597 1613 
L 953 1613 
Q 991 1019 1311 708 
Q 1631 397 2203 397 
Q 2534 397 2845 478 
Q 3156 559 3463 722 
L 3463 178 
Q 3153 47 2828 -22 
Q 2503 -91 2169 -91 
Q 1331 -91 842 396 
Q 353 884 353 1716 
Q 353 2575 817 3079 
Q 1281 3584 2069 3584 
Q 2775 3584 3186 3129 
Q 3597 2675 3597 1894 
z
M 3022 2063 
Q 3016 2534 2758 2815 
Q 2500 3097 2075 3097 
Q 1594 3097 1305 2825 
Q 1016 2553 972 2059 
L 3022 2063 
z
" transform="scale(0.015625)"/>
      </defs>
      <use xlink:href="#DejaVuSans-44"/>
      <use xlink:href="#DejaVuSans-61" transform="translate(77.001953 0)"/>
      <use xlink:href="#DejaVuSans-74" transform="translate(138.28125 0)"/>
      <use xlink:href="#DejaVuSans-65" transform="translate(177.490234 0)"/>
     </g>
    </g>
   </g>
   <g id="matplotlib.axis_2">
    <g id="ytick_1">
     <g id="line2d_17">
      <path d="M 34.976 255.37232 
L 927.776 255.37232 
" clip-path="url(#p59498a0f7b)" style="fill: none; stroke: #546379; stroke-width: 1.12; stroke-linecap: square"/>
     </g>
     <g id="line2d_18"/>
     <g id="text_10">
      <!-- $\mathdefault{10^{0}}$ -->
      <g style="fill: #b1bed6" transform="translate(7.2 260.159335) scale(0.126 -0.126)">
       <use xlink:href="#DejaVuSans-31" transform="translate(0 0.765625)"/>
       <use xlink:href="#DejaVuSans-30" transform="translate(63.623047 0.765625)"/>
       <use xlink:href="#DejaVuSans-30" transform="translate(128.203125 39.046875) scale(0.7)"/>
      </g>
     </g>
    </g>
    <g id="ytick_2">
     <g id="line2d_19">
      <path d="M 34.976 209.254528 
L 927.776 209.254528 
" clip-path="url(#p59498a0f7b)" style="fill: none; stroke: #546379; stroke-width: 1.12; stroke-linecap: square"/>
     </g>
     <g id="line2d_20"/>
     <g id="text_11">
      <!-- $\mathdefault{10^{1}}$ -->
      <g style="fill: #b1bed6" transform="translate(7.2 214.041544) scale(0.126 -0.126)">
       <use xlink:href="#DejaVuSans-31" transform="translate(0 0.684375)"/>
       <use xlink:href="#DejaVuSans-30" transform="translate(63.623047 0.684375)"/>
       <use xlink:href="#DejaVuSans-31" transform="translate(128.203125 38.965625) scale(0.7)"/>
      </g>
     </g>
    </g>
    <g id="ytick_3">
     <g id="line2d_21">
      <path d="M 34.976 163.136737 
L 927.776 163.136737 
" clip-path="url(#p59498a0f7b)" style="fill: none; stroke: #546379; stroke-width: 1.12; stroke-linecap: square"/>
     </g>
     <g id="line2d_22"/>
     <g id="text_12">
      <!-- $\mathdefault{10^{2}}$ -->
      <g style="fill: #b1bed6" transform="translate(7.2 167.923752) scale(0.126 -0.126)">
       <use xlink:href="#DejaVuSans-31" transform="translate(0 0.765625)"/>
       <use xlink:href="#DejaVuSans-30" transform="translate(63.623047 0.765625)"/>
       <use xlink:href="#DejaVuSans-32" transform="translate(128.203125 39.046875) scale(0.7)"/>
      </g>
     </g>
    </g>
    <g id="ytick_4">
     <g id="line2d_23">
      <path d="M 34.976 117.018945 
L 927.776 117.018945 
" clip-path="url(#p59498a0f7b)" style="fill: none; stroke: #546379; stroke-width: 1.12; stroke-linecap: square"/>
     </g>
     <g id="line2d_24"/>
     <g id="text_13">
      <!-- $\mathdefault{10^{3}}$ -->
      <g style="fill: #b1bed6" transform="translate(7.2 121.805961) scale(0.126 -0.126)">
       <defs>
        <path id="DejaVuSans-33" d="M 2597 2516 
Q 3050 2419 3304 2112 
Q 3559 1806 3559 1356 
Q 3559 666 3084 287 
Q 2609 -91 1734 -91 
Q 1441 -91 1130 -33 
Q 819 25 488 141 
L 488 750 
Q 750 597 1062 519 
Q 1375 441 1716 441 
Q 2309 441 2620 675 
Q 2931 909 2931 1356 
Q 2931 1769 2642 2001 
Q 2353 2234 1838 2234 
L 1294 2234 
L 1294 2753 
L 1863 2753 
Q 2328 2753 2575 2939 
Q 2822 3125 2822 3475 
Q 2822 3834 2567 4026 
Q 2313 4219 1838 4219 
Q 1578 4219 1281 4162 
Q 984 4106 628 3988 
L 628 4550 
Q 988 4650 1302 4700 
Q 1616 4750 1894 4750 
Q 2613 4750 3031 4423 
Q 3450 4097 3450 3541 
Q 3450 3153 3228 2886 
Q 3006 2619 2597 2516 
z
" transform="scale(0.015625)"/>
       </defs>
       <use xlink:href="#DejaVuSans-31" transform="translate(0 0.765625)"/>
       <use xlink:href="#DejaVuSans-30" transform="translate(63.623047 0.765625)"/>
       <use xlink:href="#DejaVuSans-33" transform="translate(128.203125 39.046875) scale(0.7)"/>
      </g>
     </g>
    </g>
    <g id="ytick_5">
     <g id="line2d_25">
      <path d="M 34.976 70.901154 
L 927.776 70.901154 
" clip-path="url(#p59498a0f7b)" style="fill: none; stroke: #546379; stroke-width: 1.12; stroke-linecap: square"/>
     </g>
     <g id="line2d_26"/>
     <g id="text_14">
      <!-- $\mathdefault{10^{4}}$ -->
      <g style="fill: #b1bed6" transform="translate(7.2 75.688169) scale(0.126 -0.126)">
       <use xlink:href="#DejaVuSans-31" transform="translate(0 0.684375)"/>
       <use xlink:href="#DejaVuSans-30" transform="translate(63.623047 0.684375)"/>
       <use xlink:href="#DejaVuSans-34" transform="translate(128.203125 38.965625) scale(0.7)"/>
      </g>
     </g>
    </g>
    <g id="ytick_6">
     <g id="line2d_27">
      <path d="M 34.976 24.783362 
L 927.776 24.783362 
" clip-path="url(#p59498a0f7b)" style="fill: none; stroke: #546379; stroke-width: 1.12; stroke-linecap: square"/>
     </g>
     <g id="line2d_28"/>
     <g id="text_15">
      <!-- $\mathdefault{10^{5}}$ -->
      <g style="fill: #b1bed6" transform="translate(7.2 29.570378) scale(0.126 -0.126)">
       <defs>
        <path id="DejaVuSans-35" d="M 691 4666 
L 3169 4666 
L 3169 4134 
L 1269 4134 
L 1269 2991 
Q 1406 3038 1543 3061 
Q 1681 3084 1819 3084 
Q 2600 3084 3056 2656 
Q 3513 2228 3513 1497 
Q 3513 744 3044 326 
Q 2575 -91 1722 -91 
Q 1428 -91 1123 -41 
Q 819 9 494 109 
L 494 744 
Q 775 591 1075 516 
Q 1375 441 1709 441 
Q 2250 441 2565 725 
Q 2881 1009 2881 1497 
Q 2881 1984 2565 2268 
Q 2250 2553 1709 2553 
Q 1456 2553 1204 2497 
Q 953 2441 691 2322 
L 691 4666 
z
" transform="scale(0.015625)"/>
       </defs>
       <use xlink:href="#DejaVuSans-31" transform="translate(0 0.684375)"/>
       <use xlink:href="#DejaVuSans-30" transform="translate(63.623047 0.684375)"/>
       <use xlink:href="#DejaVuSans-35" transform="translate(128.203125 38.965625) scale(0.7)"/>
      </g>
     </g>
    </g>
    <g id="ytick_7">
     <g id="line2d_29"/>
    </g>
    <g id="ytick_8">
     <g id="line2d_30"/>
    </g>
    <g id="ytick_9">
     <g id="line2d_31"/>
    </g>
    <g id="ytick_10">
     <g id="line2d_32"/>
    </g>
    <g id="ytick_11">
     <g id="line2d_33"/>
    </g>
    <g id="ytick_12">
     <g id="line2d_34"/>
    </g>
    <g id="ytick_13">
     <g id="line2d_35"/>
    </g>
    <g id="ytick_14">
     <g id="line2d_36"/>
    </g>
    <g id="ytick_15">
     <g id="line2d_37"/>
    </g>
    <g id="ytick_16">
     <g id="line2d_38"/>
    </g>
    <g id="ytick_17">
     <g id="line2d_39"/>
    </g>
    <g id="ytick_18">
     <g id="line2d_40"/>
    </g>
    <g id="ytick_19">
     <g id="line2d_41"/>
    </g>
    <g id="ytick_20">
     <g id="line2d_42"/>
    </g>
    <g id="ytick_21">
     <g id="line2d_43"/>
    </g>
    <g id="ytick_22">
     <g id="line2d_44"/>
    </g>
    <g id="ytick_23">
     <g id="line2d_45"/>
    </g>
    <g id="ytick_24">
     <g id="line2d_46"/>
    </g>
    <g id="ytick_25">
     <g id="line2d_47"/>
    </g>
    <g id="ytick_26">
     <g id="line2d_48"/>
    </g>
    <g id="ytick_27">
     <g id="line2d_49"/>
    </g>
    <g id="ytick_28">
     <g id="line2d_50"/>
    </g>
    <g id="ytick_29">
     <g id="line2d_51"/>
    </g>
    <g id="ytick_30">
     <g id="line2d_52"/>
    </g>
    <g id="ytick_31">
     <g id="line2d_53"/>
    </g>
    <g id="ytick_32">
     <g id="line2d_54"/>
    </g>
    <g id="ytick_33">
     <g id="line2d_55"/>
    </g>
    <g id="ytick_34">
     <g id="line2d_56"/>
    </g>
    <g id="ytick_35">
     <g id="line2d_57"/>
    </g>
    <g id="ytick_36">
     <g id="line2d_58"/>
    </g>
    <g id="ytick_37">
     <g id="line2d_59"/>
    </g>
    <g id="ytick_38">
     <g id="line2d_60"/>
    </g>
    <g id="ytick_39">
     <g id="line2d_61"/>
    </g>
    <g id="ytick_40">
     <g id="line2d_62"/>
    </g>
    <g id="ytick_41">
     <g id="line2d_63"/>
    </g>
    <g id="ytick_42">
     <g id="line2d_64"/>
    </g>
    <g id="ytick_43">
     <g id="line2d_65"/>
    </g>
    <g id="ytick_44">
     <g id="line2d_66"/>
    </g>
    <g id="ytick_45">
     <g id="line2d_67"/>
    </g>
    <g id="ytick_46">
     <g id="line2d_68"/>
    </g>
    <g id="ytick_47">
     <g id="line2d_69"/>
    </g>
    <g id="ytick_48">
     <g id="line2d_70"/>
    </g>
    <g id="ytick_49">
     <g id="line2d_71"/>
    </g>
    <g id="ytick_50">
     <g id="line2d_72"/>
    </g>
    <g id="ytick_51">
     <g id="line2d_73"/>
    </g>
    <g id="ytick_52">
     <g id="line2d_74"/>
    </g>
    <g id="ytick_53">
     <g id="line2d_75"/>
    </g>
    <g id="ytick_54">
     <g id="line2d_76"/>
    </g>
    <g id="ytick_55">
     <g id="line2d_77"/>
    </g>
   </g>
   <g id="line2d_78">
    <path d="M 75.557818 287.607273 
L 75.557818 283.137997 
L 76.149085 283.137997 
L 76.149085 278.19371 
L 76.740351 278.19371 
L 76.740351 279.486333 
L 77.331617 279.486333 
L 77.331617 280.86817 
L 77.922884 280.86817 
L 77.922884 280.165337 
L 78.51415 280.165337 
L 78.51415 280.86817 
L 79.696683 280.86817 
L 79.696683 282.352457 
L 80.28795 282.352457 
L 80.28795 284.808022 
L 81.470482 284.808022 
L 81.470482 283.137997 
L 82.061749 283.137997 
L 82.061749 282.352457 
L 82.653015 282.352457 
L 82.653015 283.137997 
L 83.244282 283.137997 
L 83.244282 281.596567 
L 83.835548 281.596567 
L 83.835548 279.486333 
L 85.018081 279.486333 
L 85.018081 278.19371 
L 85.609347 278.19371 
L 85.609347 275.834669 
L 86.200614 275.834669 
L 86.200614 273.724434 
L 86.79188 273.724434 
L 86.79188 274.751772 
L 87.383147 274.751772 
L 87.383147 271.815495 
L 87.974413 271.815495 
L 87.974413 271.365393 
L 88.565679 271.365393 
L 88.565679 257.042345 
L 89.748212 257.042345 
L 89.748212 255.982378 
L 90.339479 255.982378 
L 90.339479 253.83089 
L 90.930745 253.83089 
L 90.930745 254.395116 
L 91.522012 254.395116 
L 91.522012 257.932656 
L 92.113278 257.932656 
L 92.113278 255.37232 
L 92.704544 255.37232 
L 92.704544 255.982378 
L 93.295811 255.982378 
L 93.295811 257.042345 
L 93.887077 257.042345 
L 93.887077 257.932656 
L 94.478344 257.932656 
L 94.478344 257.26124 
L 95.06961 257.26124 
L 95.06961 258.161558 
L 95.660877 258.161558 
L 95.660877 260.093532 
L 96.252143 260.093532 
L 96.252143 257.706341 
L 96.843409 257.706341 
L 96.843409 259.841596 
L 98.025942 259.841596 
L 98.025942 261.134218 
L 98.617209 261.134218 
L 98.617209 260.868934 
L 99.208475 260.868934 
L 99.208475 255.776954 
L 99.799741 255.776954 
L 99.799741 251.720656 
L 100.391008 251.720656 
L 100.391008 248.921405 
L 100.982274 248.921405 
L 100.982274 243.823502 
L 101.573541 243.823502 
L 101.573541 226.917627 
L 102.164807 226.917627 
L 102.164807 229.940664 
L 102.756074 229.940664 
L 102.756074 228.062436 
L 103.34734 228.062436 
L 103.34734 217.729074 
L 103.938606 217.729074 
L 103.938606 212.580386 
L 104.529873 212.580386 
L 104.529873 216.455571 
L 105.121139 216.455571 
L 105.121139 215.640255 
L 105.712406 215.640255 
L 105.712406 212.089863 
L 106.303672 212.089863 
L 106.303672 209.926627 
L 106.894939 209.926627 
L 106.894939 196.34639 
L 107.486205 196.34639 
L 107.486205 185.746445 
L 108.077471 185.746445 
L 108.077471 192.005794 
L 108.668738 192.005794 
L 108.668738 196.536537 
L 109.260004 196.536537 
L 109.260004 200.619497 
L 109.851271 200.619497 
L 109.851271 197.954799 
L 110.442537 197.954799 
L 110.442537 198.218565 
L 111.033803 198.218565 
L 111.033803 200.169105 
L 111.62507 200.169105 
L 111.62507 199.716176 
L 112.216336 199.716176 
L 112.216336 201.040338 
L 112.807603 201.040338 
L 112.807603 202.160926 
L 113.398869 202.160926 
L 113.398869 201.757417 
L 113.990136 201.757417 
L 113.990136 202.615821 
L 114.581402 202.615821 
L 114.581402 202.372872 
L 115.172668 202.372872 
L 115.172668 201.702393 
L 115.763935 201.702393 
L 115.763935 206.455278 
L 116.355201 206.455278 
L 116.355201 209.94735 
L 116.946468 209.94735 
L 116.946468 209.395222 
L 117.537734 209.395222 
L 117.537734 206.700602 
L 118.129001 206.700602 
L 118.129001 206.024537 
L 118.720267 206.024537 
L 118.720267 206.806668 
L 119.311533 206.806668 
L 119.311533 210.324077 
L 119.9028 210.324077 
L 119.9028 212.604047 
L 120.494066 212.604047 
L 120.494066 213.058992 
L 121.085333 213.058992 
L 121.085333 217.097011 
L 121.676599 217.097011 
L 121.676599 218.861295 
L 122.267865 218.861295 
L 122.267865 223.057412 
L 122.859132 223.057412 
L 122.859132 218.893678 
L 123.450398 218.893678 
L 123.450398 221.264877 
L 124.041665 221.264877 
L 124.041665 223.379165 
L 124.632931 223.379165 
L 124.632931 222.898453 
L 125.224198 222.898453 
L 125.224198 223.996748 
L 125.815464 223.996748 
L 125.815464 226.821103 
L 126.40673 226.821103 
L 126.40673 227.556633 
L 126.997997 227.556633 
L 126.997997 236.311847 
L 127.589263 236.311847 
L 127.589263 231.338582 
L 128.18053 231.338582 
L 128.18053 232.711804 
L 128.771796 232.711804 
L 128.771796 230.97985 
L 129.363063 230.97985 
L 129.363063 231.951129 
L 129.954329 231.951129 
L 129.954329 232.138606 
L 130.545595 232.138606 
L 130.545595 232.647299 
L 131.136862 232.647299 
L 131.136862 236.234665 
L 131.728128 236.234665 
L 131.728128 237.424839 
L 132.319395 237.424839 
L 132.319395 237.181079 
L 132.910661 237.181079 
L 132.910661 235.928878 
L 133.501928 235.928878 
L 133.501928 232.455022 
L 134.093194 232.455022 
L 134.093194 232.97192 
L 134.68446 232.97192 
L 134.68446 232.583001 
L 135.275727 232.583001 
L 135.275727 231.703858 
L 135.866993 231.703858 
L 135.866993 231.098715 
L 136.45826 231.098715 
L 136.45826 227.707037 
L 137.049526 227.707037 
L 137.049526 226.39241 
L 137.640792 226.39241 
L 137.640792 225.381573 
L 138.232059 225.381573 
L 138.232059 221.707518 
L 138.823325 221.707518 
L 138.823325 216.227322 
L 139.414592 216.227322 
L 139.414592 216.114165 
L 140.005858 216.114165 
L 140.005858 216.284141 
L 140.597125 216.284141 
L 140.597125 218.287185 
L 141.188391 218.287185 
L 141.188391 217.975205 
L 141.779657 217.975205 
L 141.779657 220.513041 
L 142.370924 220.513041 
L 142.370924 220.689506 
L 142.96219 220.689506 
L 142.96219 219.519112 
L 143.553457 219.519112 
L 143.553457 220.027052 
L 144.73599 220.095761 
L 144.73599 224.206915 
L 145.327256 224.206915 
L 145.327256 225.247601 
L 145.918522 225.247601 
L 145.918522 222.467712 
L 146.509789 222.467712 
L 146.509789 223.217642 
L 147.101055 223.217642 
L 147.101055 223.913295 
L 147.692322 223.913295 
L 147.692322 222.938075 
L 148.283588 222.938075 
L 148.283588 223.217642 
L 148.874854 223.217642 
L 148.874854 221.448123 
L 149.466121 221.448123 
L 149.466121 222.236609 
L 150.057387 222.236609 
L 150.057387 223.913295 
L 150.648654 223.913295 
L 150.648654 224.080551 
L 151.23992 224.080551 
L 151.23992 223.379165 
L 152.422453 223.298241 
L 152.422453 223.954978 
L 153.013719 223.954978 
L 153.013719 223.257901 
L 154.196252 223.177464 
L 154.196252 222.198349 
L 154.787519 222.198349 
L 154.787519 222.390381 
L 155.378785 222.390381 
L 155.378785 222.780056 
L 155.970052 222.780056 
L 155.970052 222.429009 
L 156.561318 222.429009 
L 156.561318 222.740746 
L 157.743851 222.740746 
L 157.743851 222.938075 
L 158.335117 222.938075 
L 158.335117 222.623275 
L 160.108916 222.545342 
L 160.108916 222.429009 
L 160.700183 222.429009 
L 160.700183 222.084008 
L 161.291449 222.084008 
L 161.291449 221.011116 
L 162.473982 220.939199 
L 162.473982 218.604102 
L 163.065249 218.604102 
L 163.065249 217.698519 
L 163.656515 217.698519 
L 163.656515 217.455744 
L 164.247781 217.455744 
L 164.247781 217.637549 
L 164.839048 217.637549 
L 164.839048 217.245703 
L 165.430314 217.245703 
L 165.430314 217.097011 
L 166.021581 217.097011 
L 166.021581 216.455571 
L 166.612847 216.455571 
L 166.612847 214.102908 
L 167.204114 214.102908 
L 167.204114 210.345215 
L 167.79538 210.345215 
L 167.79538 210.218718 
L 168.386646 210.218718 
L 168.386646 211.814865 
L 168.977913 211.814865 
L 168.977913 211.476343 
L 169.569179 211.476343 
L 169.569179 209.015614 
L 170.160446 209.015614 
L 170.160446 206.931125 
L 170.751712 206.931125 
L 170.751712 206.281868 
L 171.342978 206.281868 
L 171.342978 205.108303 
L 171.934245 205.108303 
L 171.934245 201.840237 
L 172.525511 201.840237 
L 172.525511 208.740437 
L 173.116778 208.740437 
L 173.116778 207.363805 
L 173.708044 207.363805 
L 173.708044 207.510134 
L 174.299311 207.510134 
L 174.299311 208.239211 
L 174.890577 208.239211 
L 174.890577 206.859912 
L 176.07311 206.913298 
L 176.07311 205.87171 
L 176.664376 205.87171 
L 176.664376 204.57803 
L 177.255643 204.57803 
L 177.255643 205.140897 
L 177.846909 205.140897 
L 177.846909 204.849447 
L 178.438176 204.849447 
L 178.438176 204.657477 
L 179.029442 204.657477 
L 179.029442 204.045986 
L 179.620708 204.045986 
L 179.620708 205.108303 
L 180.211975 205.108303 
L 180.211975 205.43665 
L 180.803241 205.43665 
L 180.803241 205.636273 
L 181.394508 205.636273 
L 181.394508 205.939489 
L 181.985774 205.939489 
L 181.985774 206.351052 
L 182.577041 206.351052 
L 182.577041 207.473452 
L 183.168307 207.473452 
L 183.168307 207.236638 
L 183.759573 207.236638 
L 183.759573 207.400287 
L 184.942106 207.436836 
L 184.942106 207.218538 
L 185.533373 207.218538 
L 185.533373 205.905571 
L 186.124639 205.905571 
L 186.124639 205.075763 
L 186.715905 205.075763 
L 186.715905 204.593894 
L 187.898438 204.530512 
L 187.898438 203.86153 
L 188.489705 203.86153 
L 188.489705 203.169779 
L 189.080971 203.169779 
L 189.080971 202.803614 
L 189.672238 202.803614 
L 189.672238 203.051876 
L 190.85477 202.949278 
L 190.85477 203.318141 
L 191.446037 203.318141 
L 191.446037 203.022509 
L 192.037303 203.022509 
L 192.037303 203.214173 
L 193.219836 203.184566 
L 193.219836 202.529737 
L 193.811103 202.529737 
L 193.811103 202.076772 
L 194.402369 202.076772 
L 194.402369 200.438123 
L 194.993635 200.438123 
L 194.993635 198.474155 
L 195.584902 198.474155 
L 195.584902 196.8899 
L 196.176168 196.8899 
L 196.176168 195.593226 
L 196.767435 195.593226 
L 196.767435 194.394486 
L 197.358701 194.394486 
L 197.358701 193.895273 
L 197.949967 193.895273 
L 197.949967 191.745077 
L 198.541234 191.745077 
L 198.541234 189.21317 
L 199.1325 189.21317 
L 199.1325 189.375826 
L 199.723767 189.375826 
L 199.723767 186.90656 
L 200.315033 186.90656 
L 200.315033 186.46521 
L 200.9063 186.46521 
L 200.9063 184.597163 
L 201.497566 184.597163 
L 201.497566 180.511647 
L 202.088832 180.511647 
L 202.088832 178.864525 
L 202.680099 178.864525 
L 202.680099 178.318608 
L 203.271365 178.318608 
L 203.271365 176.187869 
L 203.862632 176.187869 
L 203.862632 170.209069 
L 204.453898 170.209069 
L 204.453898 167.911261 
L 205.045165 167.911261 
L 205.045165 164.698205 
L 205.636431 164.698205 
L 205.636431 157.728444 
L 206.227697 157.728444 
L 206.227697 153.314284 
L 206.818964 153.314284 
L 206.818964 158.68349 
L 207.41023 158.68349 
L 207.41023 170.831623 
L 208.001497 170.831623 
L 208.001497 159.666147 
L 208.592763 159.666147 
L 208.592763 156.043135 
L 209.184029 156.043135 
L 209.184029 158.114365 
L 209.775296 158.114365 
L 209.775296 159.992155 
L 210.366562 159.992155 
L 210.366562 160.16753 
L 210.957829 160.16753 
L 210.957829 160.743898 
L 211.549095 160.743898 
L 211.549095 159.823395 
L 212.140362 159.823395 
L 212.140362 158.938472 
L 213.322894 159.039422 
L 213.322894 157.577651 
L 214.505427 157.530665 
L 214.505427 159.085179 
L 215.096694 159.085179 
L 215.096694 159.657728 
L 215.68796 159.657728 
L 215.68796 161.9508 
L 216.279227 161.9508 
L 216.279227 163.140743 
L 216.870493 163.140743 
L 216.870493 161.708753 
L 217.461759 161.708753 
L 217.461759 161.530504 
L 218.053026 161.530504 
L 218.053026 162.351197 
L 218.644292 162.351197 
L 218.644292 163.695241 
L 219.235559 163.695241 
L 219.235559 167.596001 
L 219.826825 167.596001 
L 219.826825 168.504633 
L 220.418091 168.504633 
L 220.418091 164.378152 
L 221.009358 164.378152 
L 221.009358 163.736474 
L 221.600624 163.736474 
L 221.600624 165.383183 
L 222.191891 165.383183 
L 222.191891 164.267648 
L 222.783157 164.267648 
L 222.783157 163.398817 
L 223.374424 163.398817 
L 223.374424 162.232149 
L 223.96569 162.232149 
L 223.96569 161.834102 
L 224.556956 161.834102 
L 224.556956 162.583641 
L 225.148223 162.583641 
L 225.148223 161.3465 
L 225.739489 161.3465 
L 225.739489 163.194904 
L 226.330756 163.194904 
L 226.330756 161.149656 
L 226.922022 161.149656 
L 226.922022 160.639309 
L 227.513289 160.639309 
L 227.513289 159.737009 
L 228.104555 159.737009 
L 228.104555 157.86806 
L 228.695821 157.86806 
L 228.695821 159.888004 
L 229.287088 159.888004 
L 229.287088 159.150729 
L 229.878354 159.150729 
L 229.878354 158.820261 
L 230.469621 158.820261 
L 230.469621 158.330623 
L 231.060887 158.330623 
L 231.060887 159.001913 
L 231.652154 159.001913 
L 231.652154 158.72362 
L 232.24342 158.72362 
L 232.24342 158.468169 
L 232.834686 158.468169 
L 232.834686 159.163865 
L 233.425953 159.163865 
L 233.425953 158.808962 
L 234.017219 158.808962 
L 234.017219 158.256707 
L 234.608486 158.256707 
L 234.608486 156.658265 
L 235.199752 156.658265 
L 235.199752 150.694477 
L 235.791018 150.694477 
L 235.791018 149.727115 
L 236.382285 149.727115 
L 236.382285 148.57456 
L 236.973551 148.57456 
L 236.973551 148.955699 
L 237.564818 148.955699 
L 237.564818 144.578193 
L 238.156084 144.578193 
L 238.156084 139.224019 
L 238.747351 139.224019 
L 238.747351 135.724665 
L 239.338617 135.724665 
L 239.338617 131.929122 
L 239.929883 131.929122 
L 239.929883 123.688509 
L 240.52115 123.688509 
L 240.52115 121.126976 
L 241.112416 121.126976 
L 241.112416 114.501195 
L 241.703683 114.501195 
L 241.703683 116.037736 
L 242.294949 116.037736 
L 242.294949 123.994292 
L 242.886216 123.994292 
L 242.886216 119.650419 
L 243.477482 119.650419 
L 243.477482 119.97045 
L 244.068748 119.97045 
L 244.068748 124.587763 
L 244.660015 124.587763 
L 244.660015 125.341484 
L 245.251281 125.341484 
L 245.251281 123.488046 
L 245.842548 123.488046 
L 245.842548 123.267395 
L 246.433814 123.267395 
L 246.433814 120.781313 
L 247.02508 120.781313 
L 247.02508 120.913218 
L 247.616347 120.913218 
L 247.616347 120.41492 
L 248.207613 120.41492 
L 248.207613 121.063393 
L 248.79888 121.063393 
L 248.79888 120.803802 
L 249.390146 120.803802 
L 249.390146 121.99479 
L 249.981413 121.99479 
L 249.981413 121.852022 
L 250.572679 121.852022 
L 250.572679 121.065109 
L 251.163945 121.065109 
L 251.163945 121.969642 
L 251.755212 121.969642 
L 251.755212 124.527356 
L 252.346478 124.527356 
L 252.346478 126.919059 
L 252.937745 126.919059 
L 252.937745 126.274188 
L 253.529011 126.274188 
L 253.529011 127.946397 
L 254.120278 127.946397 
L 254.120278 128.649132 
L 254.711544 128.649132 
L 254.711544 128.366202 
L 255.30281 128.366202 
L 255.30281 125.019077 
L 255.894077 125.019077 
L 255.894077 125.960627 
L 257.07661 125.925914 
L 257.07661 126.441804 
L 257.667876 126.441804 
L 257.667876 128.176165 
L 258.259142 128.176165 
L 258.259142 127.730173 
L 258.850409 127.730173 
L 258.850409 131.306418 
L 259.441675 131.306418 
L 259.441675 133.502218 
L 260.032942 133.502218 
L 260.032942 132.65908 
L 260.624208 132.65908 
L 260.624208 136.986733 
L 261.215475 136.986733 
L 261.215475 132.58749 
L 261.806741 132.58749 
L 261.806741 131.631546 
L 262.398007 131.631546 
L 262.398007 131.367004 
L 262.989274 131.367004 
L 262.989274 132.507473 
L 263.58054 132.507473 
L 263.58054 132.92187 
L 264.171807 132.92187 
L 264.171807 133.610609 
L 265.35434 133.571209 
L 265.35434 133.350906 
L 265.945606 133.350906 
L 265.945606 133.051224 
L 266.536872 133.051224 
L 266.536872 131.38341 
L 267.128139 131.38341 
L 267.128139 129.81387 
L 267.719405 129.81387 
L 267.719405 127.894621 
L 268.310672 127.894621 
L 268.310672 126.250357 
L 268.901938 126.250357 
L 268.901938 125.296318 
L 269.493204 125.296318 
L 269.493204 125.68367 
L 270.084471 125.68367 
L 270.084471 127.534196 
L 270.675737 127.534196 
L 270.675737 126.984835 
L 271.267004 126.984835 
L 271.267004 127.554182 
L 271.85827 127.554182 
L 271.85827 128.604794 
L 272.449537 128.604794 
L 272.449537 127.250453 
L 273.040803 127.250453 
L 273.040803 125.790765 
L 273.632069 125.790765 
L 273.632069 126.453349 
L 274.223336 126.453349 
L 274.223336 126.146152 
L 274.814602 126.146152 
L 274.814602 126.462333 
L 275.405869 126.462333 
L 275.405869 126.272916 
L 275.997135 126.272916 
L 275.997135 126.579496 
L 276.588402 126.579496 
L 276.588402 127.462208 
L 277.179668 127.462208 
L 277.179668 127.858802 
L 277.770934 127.858802 
L 277.770934 127.63773 
L 278.953467 127.6214 
L 278.953467 128.312275 
L 279.544734 128.312275 
L 279.544734 129.967354 
L 280.136 129.967354 
L 280.136 130.161745 
L 280.727267 130.161745 
L 280.727267 130.582678 
L 281.909799 130.638739 
L 281.909799 131.871859 
L 282.501066 131.871859 
L 282.501066 131.474298 
L 283.092332 131.474298 
L 283.092332 131.998816 
L 283.683599 131.998816 
L 283.683599 131.848327 
L 284.274865 131.848327 
L 284.274865 132.839184 
L 284.866131 132.839184 
L 284.866131 135.31356 
L 285.457398 135.31356 
L 285.457398 134.867219 
L 286.048664 134.867219 
L 286.048664 136.724127 
L 286.639931 136.724127 
L 286.639931 137.542587 
L 287.231197 137.542587 
L 287.231197 138.979109 
L 287.822464 138.979109 
L 287.822464 137.373098 
L 288.41373 137.373098 
L 288.41373 135.631111 
L 289.004996 135.631111 
L 289.004996 135.906922 
L 289.596263 135.906922 
L 289.596263 137.637682 
L 290.187529 137.637682 
L 290.187529 137.994084 
L 290.778796 137.994084 
L 290.778796 138.756714 
L 291.370062 138.756714 
L 291.370062 139.210064 
L 291.961329 139.210064 
L 291.961329 138.221398 
L 292.552595 138.221398 
L 292.552595 134.384797 
L 293.143861 134.384797 
L 293.143861 135.88482 
L 293.735128 135.88482 
L 293.735128 137.678656 
L 294.326394 137.678656 
L 294.326394 136.686127 
L 294.917661 136.686127 
L 294.917661 136.558209 
L 295.508927 136.558209 
L 295.508927 136.418436 
L 296.100193 136.418436 
L 296.100193 136.661012 
L 296.69146 136.661012 
L 296.69146 138.114882 
L 297.282726 138.114882 
L 297.282726 137.604067 
L 297.873993 137.604067 
L 297.873993 140.330735 
L 298.465259 140.330735 
L 298.465259 139.104206 
L 299.056526 139.104206 
L 299.056526 139.227661 
L 299.647792 139.227661 
L 299.647792 140.411716 
L 300.239058 140.411716 
L 300.239058 142.153972 
L 300.830325 142.153972 
L 300.830325 141.267602 
L 301.421591 141.267602 
L 301.421591 143.266944 
L 302.012858 143.266944 
L 302.012858 148.256676 
L 302.604124 148.256676 
L 302.604124 147.711541 
L 303.195391 147.711541 
L 303.195391 146.134154 
L 303.786657 146.134154 
L 303.786657 143.729744 
L 304.377923 143.729744 
L 304.377923 147.413355 
L 304.96919 147.413355 
L 304.96919 146.743214 
L 305.560456 146.743214 
L 305.560456 146.990332 
L 306.151723 146.990332 
L 306.151723 147.133952 
L 306.742989 147.133952 
L 306.742989 146.066566 
L 307.334255 146.066566 
L 307.334255 145.125593 
L 307.925522 145.125593 
L 307.925522 145.607242 
L 308.516788 145.607242 
L 308.516788 144.506165 
L 309.108055 144.506165 
L 309.108055 143.238742 
L 309.699321 143.238742 
L 309.699321 142.875683 
L 310.290588 142.875683 
L 310.290588 141.476374 
L 310.881854 141.476374 
L 310.881854 141.861751 
L 311.47312 141.861751 
L 311.47312 143.837962 
L 312.064387 143.837962 
L 312.064387 145.189256 
L 312.655653 145.189256 
L 312.655653 144.548875 
L 313.24692 144.548875 
L 313.24692 145.067818 
L 313.838186 145.067818 
L 313.838186 143.959065 
L 314.429453 143.959065 
L 314.429453 145.353427 
L 315.020719 145.353427 
L 315.020719 147.072788 
L 316.203252 147.106045 
L 316.203252 145.951593 
L 316.794518 145.951593 
L 316.794518 146.780354 
L 317.977051 146.839743 
L 317.977051 145.646513 
L 318.568317 145.646513 
L 318.568317 145.840654 
L 319.159584 145.840654 
L 319.159584 145.52311 
L 319.75085 145.52311 
L 319.75085 145.822927 
L 320.342117 145.822927 
L 320.342117 146.333104 
L 320.933383 146.333104 
L 320.933383 145.790046 
L 321.52465 145.790046 
L 321.52465 145.997503 
L 322.115916 145.997503 
L 322.115916 146.599727 
L 322.707182 146.599727 
L 322.707182 147.084466 
L 323.298449 147.084466 
L 323.298449 146.659462 
L 323.889715 146.659462 
L 323.889715 146.489511 
L 324.480982 146.489511 
L 324.480982 144.786225 
L 325.072248 144.786225 
L 325.072248 145.209704 
L 325.663515 145.209704 
L 325.663515 145.58555 
L 326.254781 145.58555 
L 326.254781 144.899515 
L 326.846047 144.899515 
L 326.846047 144.413151 
L 327.437314 144.413151 
L 327.437314 143.352536 
L 328.02858 143.352536 
L 328.02858 142.165919 
L 328.619847 142.165919 
L 328.619847 141.956134 
L 329.211113 141.956134 
L 329.211113 142.749355 
L 330.393646 142.660533 
L 330.393646 141.618141 
L 330.984912 141.618141 
L 330.984912 141.919299 
L 331.576179 141.919299 
L 331.576179 142.434841 
L 332.167445 142.434841 
L 332.167445 142.563496 
L 332.758712 142.563496 
L 332.758712 143.170627 
L 333.349978 143.170627 
L 333.349978 143.889226 
L 333.941244 143.889226 
L 333.941244 146.783894 
L 334.532511 146.783894 
L 334.532511 146.617278 
L 335.123777 146.617278 
L 335.123777 146.885067 
L 335.715044 146.885067 
L 335.715044 146.432889 
L 336.897577 146.391179 
L 336.897577 145.253943 
L 337.488843 145.253943 
L 337.488843 146.046931 
L 338.080109 146.046931 
L 338.080109 146.600604 
L 338.671376 146.600604 
L 338.671376 146.44072 
L 339.262642 146.44072 
L 339.262642 146.109317 
L 339.853909 146.109317 
L 339.853909 145.674132 
L 340.445175 145.674132 
L 340.445175 145.789204 
L 341.036442 145.789204 
L 341.036442 145.042645 
L 342.218974 145.130483 
L 342.218974 144.58771 
L 342.810241 144.58771 
L 342.810241 143.919127 
L 343.401507 143.919127 
L 343.401507 142.92308 
L 343.992774 142.92308 
L 343.992774 142.04188 
L 344.58404 142.04188 
L 344.58404 139.335396 
L 345.175306 139.335396 
L 345.175306 135.146995 
L 345.766573 135.146995 
L 345.766573 136.03177 
L 346.357839 136.03177 
L 346.357839 140.54223 
L 346.949106 140.54223 
L 346.949106 139.904907 
L 347.540372 139.904907 
L 347.540372 139.474419 
L 348.131639 139.474419 
L 348.131639 139.623699 
L 348.722905 139.623699 
L 348.722905 137.592875 
L 349.314171 137.592875 
L 349.314171 137.338267 
L 349.905438 137.338267 
L 349.905438 136.035393 
L 350.496704 136.035393 
L 350.496704 134.561942 
L 351.087971 134.561942 
L 351.087971 133.765289 
L 351.679237 133.765289 
L 351.679237 132.721275 
L 352.270504 132.721275 
L 352.270504 133.537369 
L 352.86177 133.537369 
L 352.86177 132.768707 
L 353.453036 132.768707 
L 353.453036 133.772685 
L 354.635569 133.794425 
L 354.635569 133.957068 
L 355.226836 133.957068 
L 355.226836 133.082018 
L 355.818102 133.082018 
L 355.818102 133.943542 
L 356.409368 133.943542 
L 356.409368 136.111106 
L 357.000635 136.111106 
L 357.000635 136.319493 
L 357.591901 136.319493 
L 357.591901 135.793073 
L 358.183168 135.793073 
L 358.183168 136.578408 
L 358.774434 136.578408 
L 358.774434 137.016065 
L 359.365701 137.016065 
L 359.365701 136.663682 
L 359.956967 136.663682 
L 359.956967 136.503031 
L 360.548233 136.503031 
L 360.548233 135.410655 
L 361.1395 135.410655 
L 361.1395 134.39481 
L 362.322033 134.429653 
L 362.322033 133.848648 
L 362.913299 133.848648 
L 362.913299 134.274991 
L 363.504566 134.274991 
L 363.504566 135.088159 
L 364.095832 135.088159 
L 364.095832 134.58552 
L 365.278365 134.634206 
L 365.278365 134.976402 
L 365.869631 134.976402 
L 365.869631 134.566752 
L 367.052164 134.539353 
L 367.052164 134.694626 
L 367.64343 134.694626 
L 367.64343 134.465036 
L 368.825963 134.39624 
L 368.825963 134.268829 
L 369.41723 134.268829 
L 369.41723 133.948205 
L 370.008496 133.948205 
L 370.008496 133.647329 
L 370.599763 133.647329 
L 370.599763 132.926744 
L 371.191029 132.926744 
L 371.191029 133.222757 
L 371.782295 133.222757 
L 371.782295 132.878937 
L 372.373562 132.878937 
L 372.373562 133.040078 
L 372.964828 133.040078 
L 372.964828 132.543093 
L 373.556095 132.543093 
L 373.556095 132.754641 
L 374.147361 132.754641 
L 374.147361 132.8754 
L 374.738628 132.8754 
L 374.738628 133.316532 
L 375.329894 133.316532 
L 375.329894 133.069963 
L 375.92116 133.069963 
L 375.92116 130.454174 
L 376.512427 130.454174 
L 376.512427 129.434672 
L 377.103693 129.434672 
L 377.103693 127.801074 
L 377.69496 127.801074 
L 377.69496 128.00004 
L 378.286226 128.00004 
L 378.286226 124.590979 
L 378.877493 124.590979 
L 378.877493 122.72857 
L 379.468759 122.72857 
L 379.468759 127.49158 
L 380.060025 127.49158 
L 380.060025 126.266876 
L 380.651292 126.266876 
L 380.651292 125.101367 
L 381.242558 125.101367 
L 381.242558 124.68503 
L 381.833825 124.68503 
L 381.833825 125.250347 
L 383.607624 125.301163 
L 383.607624 125.114865 
L 384.19889 125.114865 
L 384.19889 125.296318 
L 384.790157 125.296318 
L 384.790157 125.476985 
L 385.381423 125.476985 
L 385.381423 127.065375 
L 385.97269 127.065375 
L 385.97269 128.18211 
L 386.563956 128.18211 
L 386.563956 127.757887 
L 387.746489 127.814117 
L 387.746489 128.245157 
L 388.337755 128.245157 
L 388.337755 128.02466 
L 389.520288 128.076426 
L 389.520288 128.22482 
L 390.702821 128.207305 
L 390.702821 126.979565 
L 391.294087 126.979565 
L 391.294087 126.540151 
L 391.885354 126.540151 
L 391.885354 126.952249 
L 393.067887 127.007578 
L 393.067887 127.448718 
L 393.659153 127.448718 
L 393.659153 127.024734 
L 395.432952 127.011866 
L 395.432952 126.773153 
L 396.024219 126.773153 
L 396.024219 126.10954 
L 396.615485 126.10954 
L 396.615485 125.989756 
L 397.206752 125.989756 
L 397.206752 126.308236 
L 397.798018 126.308236 
L 397.798018 125.834884 
L 398.389284 125.834884 
L 398.389284 124.569943 
L 398.980551 124.569943 
L 398.980551 123.415695 
L 399.571817 123.415695 
L 399.571817 124.063357 
L 400.163084 124.063357 
L 400.163084 123.556772 
L 400.75435 123.556772 
L 400.75435 124.151812 
L 401.345617 124.151812 
L 401.345617 123.135401 
L 403.119416 123.12915 
L 403.119416 123.321644 
L 403.710682 123.321644 
L 403.710682 122.437442 
L 404.893215 122.345512 
L 404.893215 122.300878 
L 405.484481 122.300878 
L 405.484481 122.101377 
L 406.075748 122.101377 
L 406.075748 121.714061 
L 406.667014 121.714061 
L 406.667014 118.821554 
L 407.258281 118.821554 
L 407.258281 118.465121 
L 407.849547 118.465121 
L 407.849547 117.735832 
L 408.440814 117.735832 
L 408.440814 114.943912 
L 409.03208 114.943912 
L 409.03208 118.897084 
L 409.623346 118.897084 
L 409.623346 121.350498 
L 410.214613 121.350498 
L 410.214613 120.737376 
L 410.805879 120.737376 
L 410.805879 119.226443 
L 411.397146 119.226443 
L 411.397146 119.49774 
L 411.988412 119.49774 
L 411.988412 118.719036 
L 412.579679 118.719036 
L 412.579679 117.353805 
L 413.170945 117.353805 
L 413.170945 116.798248 
L 413.762211 116.798248 
L 413.762211 117.31474 
L 414.353478 117.31474 
L 414.353478 116.994925 
L 414.944744 116.994925 
L 414.944744 115.955138 
L 415.536011 115.955138 
L 415.536011 114.659904 
L 416.127277 114.659904 
L 416.127277 114.213252 
L 416.718543 114.213252 
L 416.718543 112.95463 
L 417.30981 112.95463 
L 417.30981 112.215352 
L 417.901076 112.215352 
L 417.901076 113.499741 
L 418.492343 113.499741 
L 418.492343 112.698917 
L 419.083609 112.698917 
L 419.083609 115.695677 
L 419.674876 115.695677 
L 419.674876 114.874691 
L 420.266142 114.874691 
L 420.266142 117.79883 
L 420.857408 117.79883 
L 420.857408 116.237835 
L 421.448675 116.237835 
L 421.448675 115.477701 
L 422.039941 115.477701 
L 422.039941 113.472205 
L 422.631208 113.472205 
L 422.631208 113.201232 
L 423.222474 113.201232 
L 423.222474 113.868202 
L 423.813741 113.868202 
L 423.813741 113.347262 
L 424.405007 113.347262 
L 424.405007 112.820031 
L 424.996273 112.820031 
L 424.996273 111.949557 
L 425.58754 111.949557 
L 425.58754 110.937153 
L 426.178806 110.937153 
L 426.178806 108.406962 
L 426.770073 108.406962 
L 426.770073 106.975718 
L 427.361339 106.975718 
L 427.361339 106.475211 
L 427.952606 106.475211 
L 427.952606 106.285513 
L 428.543872 106.285513 
L 428.543872 103.047775 
L 429.135138 103.047775 
L 429.135138 99.3059 
L 429.726405 99.3059 
L 429.726405 101.434165 
L 430.317671 101.434165 
L 430.317671 99.401745 
L 430.908938 99.401745 
L 430.908938 97.13193 
L 431.500204 97.13193 
L 431.500204 96.217978 
L 432.09147 96.217978 
L 432.09147 97.080942 
L 432.682737 97.080942 
L 432.682737 97.653341 
L 433.274003 97.653341 
L 433.274003 97.434209 
L 433.86527 97.434209 
L 433.86527 98.650574 
L 434.456536 98.650574 
L 434.456536 98.335587 
L 435.639069 98.27076 
L 435.639069 98.643931 
L 436.230335 98.643931 
L 436.230335 100.241902 
L 436.821602 100.241902 
L 436.821602 103.415545 
L 437.412868 103.415545 
L 437.412868 100.642127 
L 438.004135 100.642127 
L 438.004135 96.76984 
L 438.595401 96.76984 
L 438.595401 97.450487 
L 439.186668 97.450487 
L 439.186668 95.952053 
L 440.3692 95.996737 
L 440.3692 92.456833 
L 440.960467 92.456833 
L 440.960467 89.922675 
L 441.551733 89.922675 
L 441.551733 87.454791 
L 442.143 87.454791 
L 442.143 88.981725 
L 442.734266 88.981725 
L 442.734266 87.657344 
L 443.325532 87.657344 
L 443.325532 87.450855 
L 443.916799 87.450855 
L 443.916799 85.15428 
L 444.508065 85.15428 
L 444.508065 87.412634 
L 445.099332 87.412634 
L 445.099332 87.661505 
L 445.690598 87.661505 
L 445.690598 89.939767 
L 446.281865 89.939767 
L 446.281865 90.931296 
L 446.873131 90.931296 
L 446.873131 91.358385 
L 447.464397 91.358385 
L 447.464397 89.596785 
L 448.055664 89.596785 
L 448.055664 88.44718 
L 448.64693 88.44718 
L 448.64693 87.766017 
L 449.238197 87.766017 
L 449.238197 87.165508 
L 449.829463 87.165508 
L 449.829463 85.509309 
L 450.42073 85.509309 
L 450.42073 82.188887 
L 451.603262 82.169648 
L 451.603262 81.46695 
L 452.194529 81.46695 
L 452.194529 81.91558 
L 452.785795 81.91558 
L 452.785795 79.789478 
L 453.377062 79.789478 
L 453.377062 77.024161 
L 453.968328 77.024161 
L 453.968328 76.747511 
L 454.559594 76.747511 
L 454.559594 81.502657 
L 455.150861 81.502657 
L 455.150861 75.7017 
L 455.742127 75.7017 
L 455.742127 74.771576 
L 456.92466 74.844677 
L 456.92466 71.064047 
L 457.515927 71.064047 
L 457.515927 69.151492 
L 458.107193 69.151492 
L 458.107193 64.386582 
L 458.698459 64.386582 
L 458.698459 62.688359 
L 459.289726 62.688359 
L 459.289726 60.983079 
L 459.880992 60.983079 
L 459.880992 58.138856 
L 460.472259 58.138856 
L 460.472259 64.484215 
L 461.063525 64.484215 
L 461.063525 61.894793 
L 461.654792 61.894793 
L 461.654792 66.252362 
L 462.246058 66.252362 
L 462.246058 62.727887 
L 462.837324 62.727887 
L 462.837324 61.247552 
L 463.428591 61.247552 
L 463.428591 65.211162 
L 464.019857 65.211162 
L 464.019857 64.810286 
L 464.611124 64.810286 
L 464.611124 68.090569 
L 465.20239 68.090569 
L 465.20239 69.30141 
L 465.793656 69.30141 
L 465.793656 68.221789 
L 466.384923 68.221789 
L 466.384923 70.49668 
L 466.976189 70.49668 
L 466.976189 74.870838 
L 468.158722 74.766061 
L 468.158722 73.244809 
L 468.749989 73.244809 
L 468.749989 70.546677 
L 469.341255 70.546677 
L 469.341255 68.549271 
L 469.932521 68.549271 
L 469.932521 71.511708 
L 470.523788 71.511708 
L 470.523788 70.246729 
L 471.115054 70.246729 
L 471.115054 68.072613 
L 471.706321 68.072613 
L 471.706321 72.301956 
L 472.297587 72.301956 
L 472.297587 72.724154 
L 472.888854 72.724154 
L 472.888854 74.638186 
L 473.48012 74.638186 
L 473.48012 73.212796 
L 474.071386 73.212796 
L 474.071386 74.076805 
L 474.662653 74.076805 
L 474.662653 75.494465 
L 475.253919 75.494465 
L 475.253919 78.54452 
L 475.845186 78.54452 
L 475.845186 78.664803 
L 477.027719 78.671444 
L 477.027719 75.634412 
L 478.210251 75.604146 
L 478.210251 73.16643 
L 478.801518 73.16643 
L 478.801518 73.302485 
L 479.392784 73.302485 
L 479.392784 72.143847 
L 479.984051 72.143847 
L 479.984051 71.401356 
L 480.575317 71.401356 
L 480.575317 72.206257 
L 481.166583 72.206257 
L 481.166583 74.400786 
L 481.75785 74.400786 
L 481.75785 74.224505 
L 482.349116 74.224505 
L 482.349116 74.773374 
L 482.940383 74.773374 
L 482.940383 76.631272 
L 483.531649 76.631272 
L 483.531649 77.082516 
L 484.122916 77.082516 
L 484.122916 76.690684 
L 485.305448 76.675153 
L 485.305448 76.356856 
L 485.896715 76.356856 
L 485.896715 79.366528 
L 486.487981 79.366528 
L 486.487981 79.564088 
L 487.079248 79.564088 
L 487.079248 78.741178 
L 487.670514 78.741178 
L 487.670514 80.614853 
L 488.261781 80.614853 
L 488.261781 81.543299 
L 488.853047 81.543299 
L 488.853047 79.143313 
L 490.03558 79.136816 
L 490.03558 80.062286 
L 490.626846 80.062286 
L 490.626846 80.318434 
L 491.218113 80.318434 
L 491.218113 77.010244 
L 492.400645 76.91388 
L 492.400645 75.52169 
L 492.991912 75.52169 
L 492.991912 74.945626 
L 493.583178 74.945626 
L 493.583178 76.891962 
L 494.174445 76.891962 
L 494.174445 78.867778 
L 494.765711 78.867778 
L 494.765711 80.385824 
L 495.356978 80.385824 
L 495.356978 80.248587 
L 495.948244 80.248587 
L 495.948244 79.570571 
L 496.53951 79.570571 
L 496.53951 79.449344 
L 497.130777 79.449344 
L 497.130777 78.329421 
L 497.722043 78.329421 
L 497.722043 77.991228 
L 498.31331 77.991228 
L 498.31331 77.042659 
L 498.904576 77.042659 
L 498.904576 80.52715 
L 499.495843 80.52715 
L 499.495843 80.07251 
L 500.087109 80.07251 
L 500.087109 79.537282 
L 501.269642 79.541444 
L 501.269642 79.273675 
L 501.860908 79.273675 
L 501.860908 79.136604 
L 502.452175 79.136604 
L 502.452175 79.463621 
L 503.043441 79.463621 
L 503.043441 79.303603 
L 504.225974 79.280917 
L 504.225974 80.266194 
L 504.81724 80.266194 
L 504.81724 79.499587 
L 505.999773 79.548012 
L 505.999773 79.615114 
L 506.59104 79.615114 
L 506.59104 80.150007 
L 507.182306 80.150007 
L 507.182306 79.961184 
L 507.773572 79.961184 
L 507.773572 79.416011 
L 508.364839 79.416011 
L 508.364839 79.813029 
L 508.956105 79.813029 
L 508.956105 82.305209 
L 509.547372 82.305209 
L 509.547372 85.39909 
L 510.138638 85.39909 
L 510.138638 87.559515 
L 510.729905 87.559515 
L 510.729905 90.131213 
L 511.321171 90.131213 
L 511.321171 88.332941 
L 511.912437 88.332941 
L 511.912437 90.572721 
L 512.503704 90.572721 
L 512.503704 91.42792 
L 513.09497 91.42792 
L 513.09497 93.057066 
L 513.686237 93.057066 
L 513.686237 91.606765 
L 514.277503 91.606765 
L 514.277503 89.761224 
L 514.868769 89.761224 
L 514.868769 90.1675 
L 515.460036 90.1675 
L 515.460036 90.437443 
L 516.051302 90.437443 
L 516.051302 89.600198 
L 516.642569 89.600198 
L 516.642569 88.897089 
L 517.233835 88.897089 
L 517.233835 91.107828 
L 517.825102 91.107828 
L 517.825102 90.9098 
L 518.416368 90.9098 
L 518.416368 91.220862 
L 519.007634 91.220862 
L 519.007634 91.434005 
L 520.190167 91.495794 
L 520.190167 92.100143 
L 521.3727 92.180998 
L 521.3727 92.539203 
L 521.963967 92.539203 
L 521.963967 91.200213 
L 522.555233 91.200213 
L 522.555233 91.317933 
L 523.146499 91.317933 
L 523.146499 89.624566 
L 523.737766 89.624566 
L 523.737766 88.566187 
L 524.329032 88.566187 
L 524.329032 90.106222 
L 525.511565 90.203906 
L 525.511565 89.828152 
L 526.694098 89.857701 
L 526.694098 89.573775 
L 527.285364 89.573775 
L 527.285364 89.108037 
L 529.059164 89.011831 
L 529.059164 88.689654 
L 529.65043 88.689654 
L 529.65043 85.142736 
L 530.241696 85.142736 
L 530.241696 83.735537 
L 530.832963 83.735537 
L 530.832963 84.49428 
L 531.424229 84.49428 
L 531.424229 84.01136 
L 532.015496 84.01136 
L 532.015496 83.581903 
L 532.606762 83.581903 
L 532.606762 83.116151 
L 533.198029 83.116151 
L 533.198029 83.612067 
L 533.789295 83.612067 
L 533.789295 83.279093 
L 534.380561 83.279093 
L 534.380561 82.21431 
L 534.971828 82.21431 
L 534.971828 80.00304 
L 535.563094 80.00304 
L 535.563094 75.388739 
L 536.154361 75.388739 
L 536.154361 77.300523 
L 536.745627 77.300523 
L 536.745627 76.329549 
L 537.336894 76.329549 
L 537.336894 73.588391 
L 537.92816 73.588391 
L 537.92816 74.699661 
L 538.519426 74.699661 
L 538.519426 75.035462 
L 539.110693 75.035462 
L 539.110693 75.374711 
L 539.701959 75.374711 
L 539.701959 75.577846 
L 540.293226 75.577846 
L 540.293226 73.326593 
L 540.884492 73.326593 
L 540.884492 72.394101 
L 541.475758 72.394101 
L 541.475758 69.332889 
L 542.067025 69.332889 
L 542.067025 68.751771 
L 542.658291 68.751771 
L 542.658291 69.774352 
L 543.249558 69.774352 
L 543.249558 69.074026 
L 543.840824 69.074026 
L 543.840824 66.293311 
L 544.432091 66.293311 
L 544.432091 68.295987 
L 545.023357 68.295987 
L 545.023357 71.56439 
L 545.614623 71.56439 
L 545.614623 69.757906 
L 546.20589 69.757906 
L 546.20589 71.152746 
L 546.797156 71.152746 
L 546.797156 71.925688 
L 547.388423 71.925688 
L 547.388423 69.867663 
L 547.979689 69.867663 
L 547.979689 68.161783 
L 548.570956 68.161783 
L 548.570956 68.484832 
L 549.162222 68.484832 
L 549.162222 70.867214 
L 549.753488 70.867214 
L 549.753488 70.274935 
L 550.344755 70.274935 
L 550.344755 70.678119 
L 550.936021 70.678119 
L 550.936021 70.192254 
L 551.527288 70.192254 
L 551.527288 71.764738 
L 552.118554 71.764738 
L 552.118554 69.693916 
L 552.70982 69.693916 
L 552.70982 69.948362 
L 553.301087 69.948362 
L 553.301087 70.584572 
L 553.892353 70.584572 
L 553.892353 70.288858 
L 555.074886 70.356086 
L 555.074886 71.545559 
L 555.666153 71.545559 
L 555.666153 74.890773 
L 556.257419 74.890773 
L 556.257419 74.577861 
L 556.848685 74.577861 
L 556.848685 75.004046 
L 557.439952 75.004046 
L 557.439952 73.950094 
L 558.031218 73.950094 
L 558.031218 74.67232 
L 558.622485 74.67232 
L 558.622485 75.179121 
L 559.213751 75.179121 
L 559.213751 74.820938 
L 559.805018 74.820938 
L 559.805018 73.766993 
L 560.396284 73.766993 
L 560.396284 72.069504 
L 560.98755 72.069504 
L 560.98755 72.352109 
L 562.170083 72.261529 
L 562.170083 72.928951 
L 562.76135 72.928951 
L 562.76135 73.846811 
L 563.352616 73.846811 
L 563.352616 74.9346 
L 563.943882 74.9346 
L 563.943882 77.241888 
L 564.535149 77.241888 
L 564.535149 77.582093 
L 565.126415 77.582093 
L 565.126415 76.509502 
L 565.717682 76.509502 
L 565.717682 77.500563 
L 566.308948 77.500563 
L 566.308948 76.603349 
L 566.900215 76.603349 
L 566.900215 77.510841 
L 567.491481 77.510841 
L 567.491481 78.392555 
L 568.082747 78.392555 
L 568.082747 77.508027 
L 568.674014 77.508027 
L 568.674014 77.34015 
L 569.26528 77.34015 
L 569.26528 77.201466 
L 569.856547 77.201466 
L 569.856547 77.548431 
L 570.447813 77.548431 
L 570.447813 77.063409 
L 571.03908 77.063409 
L 571.03908 75.83155 
L 571.630346 75.83155 
L 571.630346 75.10867 
L 572.221612 75.10867 
L 572.221612 73.23441 
L 572.812879 73.23441 
L 572.812879 73.639212 
L 573.404145 73.639212 
L 573.404145 74.56718 
L 573.995412 74.56718 
L 573.995412 72.398179 
L 575.177945 72.323318 
L 575.177945 71.396613 
L 575.769211 71.396613 
L 575.769211 71.194123 
L 576.360477 71.194123 
L 576.360477 70.176312 
L 576.951744 70.176312 
L 576.951744 70.542565 
L 577.54301 70.542565 
L 577.54301 71.574019 
L 578.134277 71.574019 
L 578.134277 73.494474 
L 578.725543 73.494474 
L 578.725543 74.075843 
L 579.316809 74.075843 
L 579.316809 72.861976 
L 579.908076 72.861976 
L 579.908076 75.541553 
L 580.499342 75.541553 
L 580.499342 82.481896 
L 581.090609 82.481896 
L 581.090609 83.400408 
L 581.681875 83.400408 
L 581.681875 80.508406 
L 582.273142 80.508406 
L 582.273142 78.926804 
L 582.864408 78.926804 
L 582.864408 81.518543 
L 583.455674 81.518543 
L 583.455674 78.598658 
L 584.046941 78.598658 
L 584.046941 77.086225 
L 584.638207 77.086225 
L 584.638207 78.410905 
L 585.82074 78.414665 
L 585.82074 77.316215 
L 586.412007 77.316215 
L 586.412007 77.673559 
L 587.003273 77.673559 
L 587.003273 76.13785 
L 587.594539 76.13785 
L 587.594539 73.855049 
L 588.185806 73.855049 
L 588.185806 73.266863 
L 588.777072 73.266863 
L 588.777072 71.261284 
L 589.368339 71.261284 
L 589.368339 73.428447 
L 589.959605 73.428447 
L 589.959605 72.17093 
L 590.550871 72.17093 
L 590.550871 71.906009 
L 591.142138 71.906009 
L 591.142138 73.619772 
L 591.733404 73.619772 
L 591.733404 71.783106 
L 592.324671 71.783106 
L 592.324671 70.496229 
L 592.915937 70.496229 
L 592.915937 71.669276 
L 593.507204 71.669276 
L 593.507204 71.356639 
L 594.09847 71.356639 
L 594.09847 71.984439 
L 595.281003 72.023993 
L 595.281003 72.387456 
L 596.463536 72.482444 
L 596.463536 72.603098 
L 597.054802 72.603098 
L 597.054802 72.850869 
L 597.646069 72.850869 
L 597.646069 72.449137 
L 598.828601 72.493046 
L 598.828601 72.585313 
L 600.011134 72.539289 
L 600.011134 71.691432 
L 600.602401 71.691432 
L 600.602401 68.915161 
L 601.193667 68.915161 
L 601.193667 68.375669 
L 601.784933 68.375669 
L 601.784933 68.641612 
L 602.3762 68.641612 
L 602.3762 67.641184 
L 602.967466 67.641184 
L 602.967466 67.974976 
L 603.558733 67.974976 
L 603.558733 67.393529 
L 604.741266 67.474705 
L 604.741266 67.647431 
L 605.332532 67.647431 
L 605.332532 68.041473 
L 605.923798 68.041473 
L 605.923798 67.378001 
L 606.515065 67.378001 
L 606.515065 70.58398 
L 607.106331 70.58398 
L 607.106331 70.44996 
L 607.697598 70.44996 
L 607.697598 70.249385 
L 608.288864 70.249385 
L 608.288864 69.094641 
L 608.880131 69.094641 
L 608.880131 70.057038 
L 609.471397 70.057038 
L 609.471397 69.559446 
L 610.062663 69.559446 
L 610.062663 69.284203 
L 610.65393 69.284203 
L 610.65393 69.825442 
L 611.245196 69.825442 
L 611.245196 69.600771 
L 611.836463 69.600771 
L 611.836463 68.317964 
L 612.427729 68.317964 
L 612.427729 68.095408 
L 613.018995 68.095408 
L 613.018995 67.657258 
L 613.610262 67.657258 
L 613.610262 65.731997 
L 614.201528 65.731997 
L 614.201528 64.666977 
L 614.792795 64.666977 
L 614.792795 64.435267 
L 615.384061 64.435267 
L 615.384061 63.940689 
L 615.975328 63.940689 
L 615.975328 62.135626 
L 616.566594 62.135626 
L 616.566594 61.120974 
L 617.15786 61.120974 
L 617.15786 60.599822 
L 617.749127 60.599822 
L 617.749127 58.377865 
L 618.340393 58.377865 
L 618.340393 57.864613 
L 618.93166 57.864613 
L 618.93166 59.428523 
L 619.522926 59.428523 
L 619.522926 57.807812 
L 620.114193 57.807812 
L 620.114193 57.651451 
L 620.705459 57.651451 
L 620.705459 58.854746 
L 621.296725 58.854746 
L 621.296725 57.75619 
L 621.887992 57.75619 
L 621.887992 54.088183 
L 622.479258 54.088183 
L 622.479258 53.513237 
L 623.070525 53.513237 
L 623.070525 51.424957 
L 623.661791 51.424957 
L 623.661791 49.67567 
L 624.253058 49.67567 
L 624.253058 46.987963 
L 624.844324 46.987963 
L 624.844324 43.394493 
L 625.43559 43.394493 
L 625.43559 45.500499 
L 626.026857 45.500499 
L 626.026857 44.789986 
L 626.618123 44.789986 
L 626.618123 45.234515 
L 627.20939 45.234515 
L 627.20939 47.542422 
L 627.800656 47.542422 
L 627.800656 48.619465 
L 628.391922 48.619465 
L 628.391922 46.905785 
L 628.983189 46.905785 
L 628.983189 44.695814 
L 629.574455 44.695814 
L 629.574455 40.178232 
L 630.165722 40.178232 
L 630.165722 39.705602 
L 630.756988 39.705602 
L 630.756988 39.005501 
L 631.348255 39.005501 
L 631.348255 36.395945 
L 631.939521 36.395945 
L 631.939521 38.417457 
L 632.530787 38.417457 
L 632.530787 40.725796 
L 633.122054 40.725796 
L 633.122054 39.297369 
L 633.71332 39.297369 
L 633.71332 37.765699 
L 634.304587 37.765699 
L 634.304587 35.953074 
L 634.895853 35.953074 
L 634.895853 36.086768 
L 635.48712 36.086768 
L 635.48712 35.663934 
L 636.078386 35.663934 
L 636.078386 37.685858 
L 636.669652 37.685858 
L 636.669652 36.473881 
L 637.260919 36.473881 
L 637.260919 35.440669 
L 638.443452 35.332804 
L 638.443452 35.658149 
L 639.034718 35.658149 
L 639.034718 33.861839 
L 639.625984 33.861839 
L 639.625984 34.985486 
L 640.217251 34.985486 
L 640.217251 37.195813 
L 640.808517 37.195813 
L 640.808517 39.039965 
L 641.399784 39.039965 
L 641.399784 37.279608 
L 641.99105 37.279608 
L 641.99105 35.967055 
L 643.173583 35.908699 
L 643.173583 36.129913 
L 643.764849 36.129913 
L 643.764849 40.018055 
L 644.356116 40.018055 
L 644.356116 44.716296 
L 644.947382 44.716296 
L 644.947382 45.950896 
L 645.538649 45.950896 
L 645.538649 43.92948 
L 646.129915 43.92948 
L 646.129915 44.529546 
L 646.721182 44.529546 
L 646.721182 44.759016 
L 647.312448 44.759016 
L 647.312448 46.717049 
L 647.903714 46.717049 
L 647.903714 45.528715 
L 648.494981 45.528715 
L 648.494981 43.992313 
L 649.086247 43.992313 
L 649.086247 45.473802 
L 649.677514 45.473802 
L 649.677514 46.017372 
L 650.860046 46.123296 
L 650.860046 46.475019 
L 651.451313 46.475019 
L 651.451313 46.266602 
L 652.042579 46.266602 
L 652.042579 46.67794 
L 652.633846 46.67794 
L 652.633846 47.101272 
L 653.225112 47.101272 
L 653.225112 47.740726 
L 653.816379 47.740726 
L 653.816379 47.419166 
L 654.407645 47.419166 
L 654.407645 44.525467 
L 654.998911 44.525467 
L 654.998911 42.05641 
L 655.590178 42.05641 
L 655.590178 44.090211 
L 656.181444 44.090211 
L 656.181444 40.939943 
L 656.772711 40.939943 
L 656.772711 40.506118 
L 657.363977 40.506118 
L 657.363977 39.881461 
L 657.955244 39.881461 
L 657.955244 40.018882 
L 658.54651 40.018882 
L 658.54651 38.85799 
L 659.137776 38.85799 
L 659.137776 39.047607 
L 659.729043 39.047607 
L 659.729043 39.839172 
L 660.320309 39.839172 
L 660.320309 38.68729 
L 660.911576 38.68729 
L 660.911576 40.302128 
L 662.094108 40.310502 
L 662.094108 39.573617 
L 662.685375 39.573617 
L 662.685375 41.732892 
L 663.867908 41.773082 
L 663.867908 42.635465 
L 664.459174 42.635465 
L 664.459174 39.598009 
L 665.050441 39.598009 
L 665.050441 36.632468 
L 665.641707 36.632468 
L 665.641707 36.894017 
L 666.232973 36.894017 
L 666.232973 35.902602 
L 666.82424 35.902602 
L 666.82424 34.366979 
L 667.415506 34.366979 
L 667.415506 34.783191 
L 668.006773 34.783191 
L 668.006773 34.899645 
L 668.598039 34.899645 
L 668.598039 34.444793 
L 669.189306 34.444793 
L 669.189306 34.051689 
L 670.371838 33.94433 
L 670.371838 33.461115 
L 670.963105 33.461115 
L 670.963105 33.852447 
L 671.554371 33.852447 
L 671.554371 35.647658 
L 672.145638 35.647658 
L 672.145638 35.839723 
L 672.736904 35.839723 
L 672.736904 36.829806 
L 673.328171 36.829806 
L 673.328171 35.961304 
L 673.919437 35.961304 
L 673.919437 38.915935 
L 674.510703 38.915935 
L 674.510703 39.626322 
L 675.10197 39.626322 
L 675.10197 40.009268 
L 675.693236 40.009268 
L 675.693236 40.260821 
L 676.284503 40.260821 
L 676.284503 39.097597 
L 676.875769 39.097597 
L 676.875769 38.478457 
L 677.467035 38.478457 
L 677.467035 40.158988 
L 678.058302 40.158988 
L 678.058302 39.766251 
L 678.649568 39.766251 
L 678.649568 41.630879 
L 679.240835 41.630879 
L 679.240835 42.230411 
L 679.832101 42.230411 
L 679.832101 41.640756 
L 680.423368 41.640756 
L 680.423368 41.977176 
L 681.014634 41.977176 
L 681.014634 45.769103 
L 681.6059 45.769103 
L 681.6059 44.792716 
L 682.197167 44.792716 
L 682.197167 44.205754 
L 682.788433 44.205754 
L 682.788433 44.64699 
L 683.3797 44.64699 
L 683.3797 41.302234 
L 683.970966 41.302234 
L 683.970966 41.967826 
L 684.562233 41.967826 
L 684.562233 40.983936 
L 685.153499 40.983936 
L 685.153499 43.077952 
L 685.744765 43.077952 
L 685.744765 44.53978 
L 686.336032 44.53978 
L 686.336032 44.319141 
L 686.927298 44.319141 
L 686.927298 41.938028 
L 687.518565 41.938028 
L 687.518565 44.145692 
L 688.109831 44.145692 
L 688.109831 43.775993 
L 688.701097 43.775993 
L 688.701097 43.478474 
L 689.292364 43.478474 
L 689.292364 42.052534 
L 689.88363 42.052534 
L 689.88363 41.731258 
L 690.474897 41.731258 
L 690.474897 39.965862 
L 691.066163 39.965862 
L 691.066163 40.537864 
L 691.65743 40.537864 
L 691.65743 40.071832 
L 692.248696 40.071832 
L 692.248696 42.025693 
L 692.839962 42.025693 
L 692.839962 43.084369 
L 693.431229 43.084369 
L 693.431229 42.941748 
L 694.022495 42.941748 
L 694.022495 42.458177 
L 694.613762 42.458177 
L 694.613762 43.404879 
L 695.205028 43.404879 
L 695.205028 43.250954 
L 695.796295 43.250954 
L 695.796295 43.895458 
L 696.387561 43.895458 
L 696.387561 45.238463 
L 696.978827 45.238463 
L 696.978827 48.238099 
L 697.570094 48.238099 
L 697.570094 48.847626 
L 698.16136 48.847626 
L 698.16136 49.797937 
L 698.752627 49.797937 
L 698.752627 48.712009 
L 699.343893 48.712009 
L 699.343893 49.442895 
L 699.935159 49.442895 
L 699.935159 47.783566 
L 700.526426 47.783566 
L 700.526426 49.110975 
L 701.117692 49.110975 
L 701.117692 48.164653 
L 701.708959 48.164653 
L 701.708959 50.034292 
L 702.300225 50.034292 
L 702.300225 54.614113 
L 702.891492 54.614113 
L 702.891492 56.484341 
L 703.482758 56.484341 
L 703.482758 55.957072 
L 704.074024 55.957072 
L 704.074024 56.327142 
L 704.665291 56.327142 
L 704.665291 57.808094 
L 705.256557 57.808094 
L 705.256557 56.836968 
L 705.847824 56.836968 
L 705.847824 55.493026 
L 706.43909 55.493026 
L 706.43909 56.795548 
L 707.030357 56.795548 
L 707.030357 56.257605 
L 707.621623 56.257605 
L 707.621623 54.085329 
L 708.212889 54.085329 
L 708.212889 55.756335 
L 708.804156 55.756335 
L 708.804156 53.54099 
L 709.395422 53.54099 
L 709.395422 54.234946 
L 710.577955 54.265105 
L 710.577955 53.400127 
L 711.169221 53.400127 
L 711.169221 53.105575 
L 711.760488 53.105575 
L 711.760488 54.050844 
L 712.351754 54.050844 
L 712.351754 55.660458 
L 712.943021 55.660458 
L 712.943021 56.786013 
L 713.534287 56.786013 
L 713.534287 57.226672 
L 714.71682 57.184298 
L 714.71682 57.752564 
L 715.308086 57.752564 
L 715.308086 55.297323 
L 715.899353 55.297323 
L 715.899353 57.326421 
L 716.490619 57.326421 
L 716.490619 57.482101 
L 717.081886 57.482101 
L 717.081886 57.752045 
L 717.673152 57.752045 
L 717.673152 57.935388 
L 718.264419 57.935388 
L 718.264419 57.716642 
L 718.855685 57.716642 
L 718.855685 56.850985 
L 719.446951 56.850985 
L 719.446951 57.585183 
L 721.220751 57.475163 
L 721.220751 57.865846 
L 721.812017 57.865846 
L 721.812017 56.917156 
L 722.403284 56.917156 
L 722.403284 56.21722 
L 722.99455 56.21722 
L 722.99455 56.864695 
L 723.585816 56.864695 
L 723.585816 56.117241 
L 724.177083 56.117241 
L 724.177083 59.63537 
L 724.768349 59.63537 
L 724.768349 60.764787 
L 725.359616 60.764787 
L 725.359616 60.650097 
L 725.950882 60.650097 
L 725.950882 61.245276 
L 726.542148 61.245276 
L 726.542148 60.927835 
L 727.133415 60.927835 
L 727.133415 60.073343 
L 729.498481 60.031104 
L 729.498481 60.70494 
L 730.089747 60.70494 
L 730.089747 60.386024 
L 731.27228 60.465016 
L 731.27228 60.823651 
L 732.454813 60.73372 
L 732.454813 60.478926 
L 733.046079 60.478926 
L 733.046079 60.048338 
L 733.637346 60.048338 
L 733.637346 57.085162 
L 734.228612 57.085162 
L 734.228612 55.903123 
L 734.819878 55.903123 
L 734.819878 54.418161 
L 735.411145 54.418161 
L 735.411145 54.14107 
L 736.002411 54.14107 
L 736.002411 53.571445 
L 736.593678 53.571445 
L 736.593678 53.827217 
L 737.184944 53.827217 
L 737.184944 54.425867 
L 737.77621 54.425867 
L 737.77621 55.441172 
L 738.367477 55.441172 
L 738.367477 54.917476 
L 738.958743 54.917476 
L 738.958743 52.837973 
L 739.55001 52.837973 
L 739.55001 53.2123 
L 740.141276 53.2123 
L 740.141276 53.734608 
L 741.323809 53.816161 
L 741.323809 54.738995 
L 741.915075 54.738995 
L 741.915075 56.794399 
L 742.506342 56.794399 
L 742.506342 52.73621 
L 743.097608 52.73621 
L 743.097608 51.025874 
L 743.688875 51.025874 
L 743.688875 50.78166 
L 744.280141 50.78166 
L 744.280141 50.279327 
L 745.462674 50.255579 
L 745.462674 50.421182 
L 746.645207 50.332539 
L 746.645207 48.741108 
L 747.82774 48.685316 
L 747.82774 49.694433 
L 748.419006 49.694433 
L 748.419006 50.574259 
L 749.010272 50.574259 
L 749.010272 49.247346 
L 749.601539 49.247346 
L 749.601539 50.217327 
L 750.192805 50.217327 
L 750.192805 49.209993 
L 750.784072 49.209993 
L 750.784072 50.538329 
L 751.375338 50.538329 
L 751.375338 51.167033 
L 751.966605 51.167033 
L 751.966605 50.714329 
L 752.557871 50.714329 
L 752.557871 51.189006 
L 753.149137 51.189006 
L 753.149137 51.39916 
L 753.740404 51.39916 
L 753.740404 50.462698 
L 754.33167 50.462698 
L 754.33167 50.821593 
L 755.514203 50.827687 
L 755.514203 51.877199 
L 756.10547 51.877199 
L 756.10547 52.447519 
L 756.696736 52.447519 
L 756.696736 51.505504 
L 757.288002 51.505504 
L 757.288002 48.961751 
L 757.879269 48.961751 
L 757.879269 48.720107 
L 758.470535 48.720107 
L 758.470535 48.585039 
L 759.061802 48.585039 
L 759.061802 48.386622 
L 759.653068 48.386622 
L 759.653068 48.754646 
L 760.244334 48.754646 
L 760.244334 48.637599 
L 761.426867 48.737598 
L 761.426867 49.029808 
L 762.018134 49.029808 
L 762.018134 49.453532 
L 763.200667 49.359234 
L 763.200667 49.109726 
L 763.791933 49.109726 
L 763.791933 49.543249 
L 764.383199 49.543249 
L 764.383199 49.189362 
L 764.974466 49.189362 
L 764.974466 49.3813 
L 765.565732 49.3813 
L 765.565732 51.259884 
L 766.156999 51.259884 
L 766.156999 51.668657 
L 767.339532 51.725466 
L 767.339532 50.472396 
L 767.930798 50.472396 
L 767.930798 51.864599 
L 769.704597 51.8927 
L 769.704597 51.354783 
L 770.295864 51.354783 
L 770.295864 51.183624 
L 770.88713 51.183624 
L 770.88713 51.320214 
L 771.478397 51.320214 
L 771.478397 51.600224 
L 772.069663 51.600224 
L 772.069663 51.029557 
L 772.660929 51.029557 
L 772.660929 50.424546 
L 773.843462 50.324199 
L 773.843462 51.187441 
L 774.434729 51.187441 
L 774.434729 49.912545 
L 775.025995 49.912545 
L 775.025995 49.110408 
L 775.617261 49.110408 
L 775.617261 46.447949 
L 776.799794 46.337173 
L 776.799794 45.559429 
L 777.391061 45.559429 
L 777.391061 45.782288 
L 777.982327 45.782288 
L 777.982327 44.862049 
L 779.756126 44.901357 
L 779.756126 45.352285 
L 780.347393 45.352285 
L 780.347393 44.268009 
L 781.529926 44.232842 
L 781.529926 43.147477 
L 782.121192 43.147477 
L 782.121192 41.548339 
L 782.712459 41.548339 
L 782.712459 42.524837 
L 783.303725 42.524837 
L 783.303725 42.189432 
L 783.894991 42.189432 
L 783.894991 42.033426 
L 784.486258 42.033426 
L 784.486258 41.344173 
L 785.077524 41.344173 
L 785.077524 41.468907 
L 785.668791 41.468907 
L 785.668791 42.039555 
L 786.260057 42.039555 
L 786.260057 41.140191 
L 786.851323 41.140191 
L 786.851323 39.917241 
L 787.44259 39.917241 
L 787.44259 41.759791 
L 788.033856 41.759791 
L 788.033856 41.625413 
L 788.625123 41.625413 
L 788.625123 42.321358 
L 789.216389 42.321358 
L 789.216389 43.101212 
L 789.807656 43.101212 
L 789.807656 42.143586 
L 790.398922 42.143586 
L 790.398922 41.65852 
L 790.990188 41.65852 
L 790.990188 41.849134 
L 791.581455 41.849134 
L 791.581455 39.848234 
L 792.172721 39.848234 
L 792.172721 38.770928 
L 792.763988 38.770928 
L 792.763988 38.002222 
L 794.537787 37.985794 
L 794.537787 34.626921 
L 795.129053 34.626921 
L 795.129053 32.39675 
L 796.311586 32.41749 
L 796.311586 31.505466 
L 796.902853 31.505466 
L 796.902853 33.318032 
L 797.494119 33.318032 
L 797.494119 32.549792 
L 798.085385 32.549792 
L 798.085385 32.736864 
L 798.676652 32.736864 
L 798.676652 31.712319 
L 799.267918 31.712319 
L 799.267918 32.012747 
L 799.859185 32.012747 
L 799.859185 32.549721 
L 800.450451 32.549721 
L 800.450451 32.174183 
L 801.041718 32.174183 
L 801.041718 33.715737 
L 801.632984 33.715737 
L 801.632984 34.591585 
L 802.22425 34.591585 
L 802.22425 33.426862 
L 802.815517 33.426862 
L 802.815517 33.570305 
L 803.406783 33.570305 
L 803.406783 33.774332 
L 803.99805 33.774332 
L 803.99805 34.073841 
L 804.589316 34.073841 
L 804.589316 34.253605 
L 805.180583 34.253605 
L 805.180583 34.747348 
L 805.771849 34.747348 
L 805.771849 33.033161 
L 806.954382 33.025017 
L 806.954382 32.524704 
L 807.545648 32.524704 
L 807.545648 32.106969 
L 808.136915 32.106969 
L 808.136915 32.659967 
L 808.728181 32.659967 
L 808.728181 31.769425 
L 809.319447 31.769425 
L 809.319447 32.128992 
L 809.910714 32.128992 
L 809.910714 32.437178 
L 810.50198 32.437178 
L 810.50198 32.913262 
L 811.093247 32.913262 
L 811.093247 33.463747 
L 811.684513 33.463747 
L 811.684513 34.92144 
L 812.867046 34.909438 
L 812.867046 34.348633 
L 813.458312 34.348633 
L 813.458312 35.602153 
L 814.049579 35.602153 
L 814.049579 35.782448 
L 814.640845 35.782448 
L 814.640845 34.749858 
L 815.232112 34.749858 
L 815.232112 33.73174 
L 815.823378 33.73174 
L 815.823378 32.626657 
L 817.005911 32.532774 
L 817.005911 33.051048 
L 817.597177 33.051048 
L 817.597177 34.789917 
L 818.188444 34.789917 
L 818.188444 36.745077 
L 818.77971 36.745077 
L 818.77971 35.447462 
L 819.370977 35.447462 
L 819.370977 35.858777 
L 819.962243 35.858777 
L 819.962243 35.190253 
L 820.55351 35.190253 
L 820.55351 33.696253 
L 821.144776 33.696253 
L 821.144776 35.193314 
L 821.736042 35.193314 
L 821.736042 35.361718 
L 822.327309 35.361718 
L 822.327309 35.705012 
L 822.918575 35.705012 
L 822.918575 36.809342 
L 823.509842 36.809342 
L 823.509842 35.64646 
L 824.692374 35.626323 
L 824.692374 33.969671 
L 825.283641 33.969671 
L 825.283641 33.634778 
L 825.874907 33.634778 
L 825.874907 33.139462 
L 826.466174 33.139462 
L 826.466174 34.802204 
L 827.05744 34.802204 
L 827.05744 34.096256 
L 827.648707 34.096256 
L 827.648707 34.924862 
L 828.239973 34.924862 
L 828.239973 33.090867 
L 828.831239 33.090867 
L 828.831239 32.38254 
L 829.422506 32.38254 
L 829.422506 32.694641 
L 830.605039 32.798795 
L 830.605039 31.27132 
L 831.196305 31.27132 
L 831.196305 32.289673 
L 831.787572 32.289673 
L 831.787572 30.299405 
L 832.378838 30.299405 
L 832.378838 27.180553 
L 832.970104 27.180553 
L 832.970104 26.658369 
L 833.561371 26.658369 
L 833.561371 26.373116 
L 834.152637 26.373116 
L 834.152637 25.233636 
L 834.743904 25.233636 
L 834.743904 25.609949 
L 835.33517 25.609949 
L 835.33517 25.337003 
L 837.108969 25.297523 
L 837.108969 24.491571 
L 837.700236 24.491571 
L 837.700236 23.586855 
L 838.291502 23.586855 
L 838.291502 25.346699 
L 838.882769 25.346699 
L 838.882769 24.924032 
L 839.474035 24.924032 
L 839.474035 26.121666 
L 840.065301 26.121666 
L 840.065301 25.423666 
L 840.656568 25.423666 
L 840.656568 24.337063 
L 841.247834 24.337063 
L 841.247834 25.873486 
L 841.839101 25.873486 
L 841.839101 25.491296 
L 842.430367 25.491296 
L 842.430367 23.919231 
L 843.021634 23.919231 
L 843.021634 24.067841 
L 843.6129 24.067841 
L 843.6129 24.270709 
L 844.204166 24.270709 
L 844.204166 23.855056 
L 844.795433 23.855056 
L 844.795433 24.50199 
L 845.386699 24.50199 
L 845.386699 25.488483 
L 845.977966 25.488483 
L 845.977966 25.652782 
L 846.569232 25.652782 
L 846.569232 25.271223 
L 847.160498 25.271223 
L 847.160498 25.467314 
L 848.343031 25.543726 
L 848.343031 28.122026 
L 848.934298 28.122026 
L 848.934298 27.78511 
L 849.525564 27.78511 
L 849.525564 27.631272 
L 850.116831 27.631272 
L 850.116831 28.549278 
L 850.708097 28.549278 
L 850.708097 28.194622 
L 851.299363 28.194622 
L 851.299363 27.603109 
L 851.89063 27.603109 
L 851.89063 27.79086 
L 852.481896 27.79086 
L 852.481896 27.52942 
L 853.073163 27.52942 
L 853.073163 28.628761 
L 853.664429 28.628761 
L 853.664429 28.31314 
L 854.255696 28.31314 
L 854.255696 30.209848 
L 854.846962 30.209848 
L 854.846962 27.971769 
L 855.438228 27.971769 
L 855.438228 28.267427 
L 856.029495 28.267427 
L 856.029495 27.997767 
L 856.620761 27.997767 
L 856.620761 26.028875 
L 857.212028 26.028875 
L 857.212028 25.81108 
L 857.803294 25.81108 
L 857.803294 25.408497 
L 858.985827 25.430955 
L 858.985827 23.850792 
L 859.577093 23.850792 
L 859.577093 24.084244 
L 860.16836 24.084244 
L 860.16836 23.536214 
L 860.759626 23.536214 
L 860.759626 22.563278 
L 861.350893 22.563278 
L 861.350893 22.969087 
L 861.942159 22.969087 
L 861.942159 23.992494 
L 862.533425 23.992494 
L 862.533425 23.723455 
L 863.715958 23.685773 
L 863.715958 23.114651 
L 864.307225 23.114651 
L 864.307225 23.699869 
L 864.898491 23.699869 
L 864.898491 23.867227 
L 865.489758 23.867227 
L 865.489758 23.733748 
L 866.081024 23.733748 
L 866.081024 23.407606 
L 866.67229 23.407606 
L 866.67229 23.67197 
L 867.263557 23.67197 
L 867.263557 23.196894 
L 867.854823 23.196894 
L 867.854823 22.63816 
L 868.44609 22.63816 
L 868.44609 21.283255 
L 869.628623 21.252761 
L 869.628623 21.562443 
L 871.402422 21.480964 
L 871.402422 22.420458 
L 871.993688 22.420458 
L 871.993688 21.979852 
L 872.584955 21.979852 
L 872.584955 21.249643 
L 873.176221 21.249643 
L 873.176221 21.402591 
L 873.767487 21.402591 
L 873.767487 21.76739 
L 874.95002 21.66157 
L 874.95002 22.548708 
L 875.541287 22.548708 
L 875.541287 23.095814 
L 876.132553 23.095814 
L 876.132553 22.560524 
L 877.315086 22.661532 
L 877.315086 21.894154 
L 879.088885 21.864056 
L 879.088885 22.511697 
L 879.680152 22.511697 
L 879.680152 22.931157 
L 880.271418 22.931157 
L 880.271418 21.363749 
L 880.862685 21.363749 
L 880.862685 20.552727 
L 881.453951 20.552727 
L 881.453951 20.852518 
L 882.045217 20.852518 
L 882.045217 21.946446 
L 882.636484 21.946446 
L 882.636484 23.528444 
L 883.22775 23.528444 
L 883.22775 23.159011 
L 883.819017 23.159011 
L 883.819017 22.578441 
L 884.410283 22.578441 
L 884.410283 22.861951 
L 885.592816 22.765112 
L 885.592816 24.528115 
L 886.184082 24.528115 
L 886.184082 23.623438 
L 886.775349 23.623438 
L 886.775349 25.073829 
L 887.194182 25.073829 
L 887.194182 25.073829 
" clip-path="url(#p59498a0f7b)" style="fill: none; stroke: #3572c6; stroke-width: 1.2; stroke-linecap: square"/>
   </g>
   <g id="line2d_79">
    <path d="M 75.557818 20.552727 
L 887.194182 20.552727 
L 887.194182 20.552727 
" clip-path="url(#p59498a0f7b)" style="fill: none; stroke: #83a83b; stroke-width: 1.2; stroke-linecap: square"/>
   </g>
   <g id="line2d_80">
    <path d="M 75.557818 25.073829 
L 887.194182 25.073829 
L 887.194182 25.073829 
" clip-path="url(#p59498a0f7b)" style="fill: none; stroke: #c44e52; stroke-width: 1.2; stroke-linecap: square"/>
   </g>
   <g id="line2d_81">
    <path d="M 881.453951 300.96 
L 881.453951 7.2 
" clip-path="url(#p59498a0f7b)" style="fill: none; stroke: #83a83b; stroke-width: 1.2; stroke-linecap: square"/>
   </g>
   <g id="line2d_82">
    <path d="M 887.194182 300.96 
L 887.194182 7.2 
" clip-path="url(#p59498a0f7b)" style="fill: none; stroke: #c44e52; stroke-width: 1.2; stroke-linecap: square"/>
   </g>
   <g id="patch_3">
    <path d="M 34.976 300.96 
L 34.976 7.2 
" style="fill: none; stroke: #899ab8; stroke-width: 1.12; stroke-linejoin: miter; stroke-linecap: square"/>
   </g>
   <g id="patch_4">
    <path d="M 927.776 300.96 
L 927.776 7.2 
" style="fill: none; stroke: #899ab8; stroke-width: 1.12; stroke-linejoin: miter; stroke-linecap: square"/>
   </g>
   <g id="patch_5">
    <path d="M 34.976 300.96 
L 927.776 300.96 
" style="fill: none; stroke: #899ab8; stroke-width: 1.12; stroke-linejoin: miter; stroke-linecap: square"/>
   </g>
   <g id="patch_6">
    <path d="M 34.976 7.2 
L 927.776 7.2 
" style="fill: none; stroke: #899ab8; stroke-width: 1.12; stroke-linejoin: miter; stroke-linecap: square"/>
   </g>
   <g id="text_16">
    <!-- 123519.47 -->
    <g style="fill: #83a83b" transform="translate(183.46394 20.552727) scale(0.132 -0.132)">
     <defs>
      <path id="DejaVuSans-39" d="M 703 97 
L 703 672 
Q 941 559 1184 500 
Q 1428 441 1663 441 
Q 2288 441 2617 861 
Q 2947 1281 2994 2138 
Q 2813 1869 2534 1725 
Q 2256 1581 1919 1581 
Q 1219 1581 811 2004 
Q 403 2428 403 3163 
Q 403 3881 828 4315 
Q 1253 4750 1959 4750 
Q 2769 4750 3195 4129 
Q 3622 3509 3622 2328 
Q 3622 1225 3098 567 
Q 2575 -91 1691 -91 
Q 1453 -91 1209 -44 
Q 966 3 703 97 
z
M 1959 2075 
Q 2384 2075 2632 2365 
Q 2881 2656 2881 3163 
Q 2881 3666 2632 3958 
Q 2384 4250 1959 4250 
Q 1534 4250 1286 3958 
Q 1038 3666 1038 3163 
Q 1038 2656 1286 2365 
Q 1534 2075 1959 2075 
z
" transform="scale(0.015625)"/>
      <path id="DejaVuSans-2e" d="M 684 794 
L 1344 794 
L 1344 0 
L 684 0 
L 684 794 
z
" transform="scale(0.015625)"/>
      <path id="DejaVuSans-37" d="M 525 4666 
L 3525 4666 
L 3525 4397 
L 1831 0 
L 1172 0 
L 2766 4134 
L 525 4134 
L 525 4666 
z
" transform="scale(0.015625)"/>
     </defs>
     <use xlink:href="#DejaVuSans-31"/>
     <use xlink:href="#DejaVuSans-32" transform="translate(63.623047 0)"/>
     <use xlink:href="#DejaVuSans-33" transform="translate(127.246094 0)"/>
     <use xlink:href="#DejaVuSans-35" transform="translate(190.869141 0)"/>
     <use xlink:href="#DejaVuSans-31" transform="translate(254.492188 0)"/>
     <use xlink:href="#DejaVuSans-39" transform="translate(318.115234 0)"/>
     <use xlink:href="#DejaVuSans-2e" transform="translate(381.738281 0)"/>
     <use xlink:href="#DejaVuSans-34" transform="translate(413.525391 0)"/>
     <use xlink:href="#DejaVuSans-37" transform="translate(477.148438 0)"/>
    </g>
   </g>
   <g id="text_17">
    <!-- 98560.2112077374 -->
    <g style="fill: #c44e52" transform="translate(183.46394 25.073829) scale(0.132 -0.132)">
     <use xlink:href="#DejaVuSans-39"/>
     <use xlink:href="#DejaVuSans-38" transform="translate(63.623047 0)"/>
     <use xlink:href="#DejaVuSans-35" transform="translate(127.246094 0)"/>
     <use xlink:href="#DejaVuSans-36" transform="translate(190.869141 0)"/>
     <use xlink:href="#DejaVuSans-30" transform="translate(254.492188 0)"/>
     <use xlink:href="#DejaVuSans-2e" transform="translate(318.115234 0)"/>
     <use xlink:href="#DejaVuSans-32" transform="translate(349.902344 0)"/>
     <use xlink:href="#DejaVuSans-31" transform="translate(413.525391 0)"/>
     <use xlink:href="#DejaVuSans-31" transform="translate(477.148438 0)"/>
     <use xlink:href="#DejaVuSans-32" transform="translate(540.771484 0)"/>
     <use xlink:href="#DejaVuSans-30" transform="translate(604.394531 0)"/>
     <use xlink:href="#DejaVuSans-37" transform="translate(668.017578 0)"/>
     <use xlink:href="#DejaVuSans-37" transform="translate(731.640625 0)"/>
     <use xlink:href="#DejaVuSans-33" transform="translate(795.263672 0)"/>
     <use xlink:href="#DejaVuSans-37" transform="translate(858.886719 0)"/>
     <use xlink:href="#DejaVuSans-34" transform="translate(922.509766 0)"/>
    </g>
   </g>
   <g id="legend_1">
    <g id="patch_7">
     <path d="M 43.796 183.886875 
L 142.133094 183.886875 
Q 144.653094 183.886875 144.653094 181.366875 
L 144.653094 126.793125 
Q 144.653094 124.273125 142.133094 124.273125 
L 43.796 124.273125 
Q 41.276 124.273125 41.276 126.793125 
L 41.276 181.366875 
Q 41.276 183.886875 43.796 183.886875 
z
" style="fill: #373e4b; opacity: 0.8; stroke: #cccccc; stroke-width: 0.16; stroke-linejoin: miter"/>
    </g>
    <g id="line2d_83">
     <path d="M 46.316 134.477156 
L 46.316 134.477156 
L 58.916 134.477156 
L 58.916 134.477156 
L 71.516 134.477156 
" style="fill: none; stroke: #3572c6; stroke-width: 1.2; stroke-linecap: square"/>
    </g>
    <g id="text_18">
     <!-- USD/BTC -->
     <g style="fill: #b1bed6" transform="translate(81.596 138.887156) scale(0.126 -0.126)">
      <defs>
       <path id="DejaVuSans-55" d="M 556 4666 
L 1191 4666 
L 1191 1831 
Q 1191 1081 1462 751 
Q 1734 422 2344 422 
Q 2950 422 3222 751 
Q 3494 1081 3494 1831 
L 3494 4666 
L 4128 4666 
L 4128 1753 
Q 4128 841 3676 375 
Q 3225 -91 2344 -91 
Q 1459 -91 1007 375 
Q 556 841 556 1753 
L 556 4666 
z
" transform="scale(0.015625)"/>
       <path id="DejaVuSans-53" d="M 3425 4513 
L 3425 3897 
Q 3066 4069 2747 4153 
Q 2428 4238 2131 4238 
Q 1616 4238 1336 4038 
Q 1056 3838 1056 3469 
Q 1056 3159 1242 3001 
Q 1428 2844 1947 2747 
L 2328 2669 
Q 3034 2534 3370 2195 
Q 3706 1856 3706 1288 
Q 3706 609 3251 259 
Q 2797 -91 1919 -91 
Q 1588 -91 1214 -16 
Q 841 59 441 206 
L 441 856 
Q 825 641 1194 531 
Q 1563 422 1919 422 
Q 2459 422 2753 634 
Q 3047 847 3047 1241 
Q 3047 1584 2836 1778 
Q 2625 1972 2144 2069 
L 1759 2144 
Q 1053 2284 737 2584 
Q 422 2884 422 3419 
Q 422 4038 858 4394 
Q 1294 4750 2059 4750 
Q 2388 4750 2728 4690 
Q 3069 4631 3425 4513 
z
" transform="scale(0.015625)"/>
       <path id="DejaVuSans-2f" d="M 1625 4666 
L 2156 4666 
L 531 -594 
L 0 -594 
L 1625 4666 
z
" transform="scale(0.015625)"/>
       <path id="DejaVuSans-42" d="M 1259 2228 
L 1259 519 
L 2272 519 
Q 2781 519 3026 730 
Q 3272 941 3272 1375 
Q 3272 1813 3026 2020 
Q 2781 2228 2272 2228 
L 1259 2228 
z
M 1259 4147 
L 1259 2741 
L 2194 2741 
Q 2656 2741 2882 2914 
Q 3109 3088 3109 3444 
Q 3109 3797 2882 3972 
Q 2656 4147 2194 4147 
L 1259 4147 
z
M 628 4666 
L 2241 4666 
Q 2963 4666 3353 4366 
Q 3744 4066 3744 3513 
Q 3744 3084 3544 2831 
Q 3344 2578 2956 2516 
Q 3422 2416 3680 2098 
Q 3938 1781 3938 1306 
Q 3938 681 3513 340 
Q 3088 0 2303 0 
L 628 0 
L 628 4666 
z
" transform="scale(0.015625)"/>
       <path id="DejaVuSans-54" d="M -19 4666 
L 3928 4666 
L 3928 4134 
L 2272 4134 
L 2272 0 
L 1638 0 
L 1638 4134 
L -19 4134 
L -19 4666 
z
" transform="scale(0.015625)"/>
       <path id="DejaVuSans-43" d="M 4122 4306 
L 4122 3641 
Q 3803 3938 3442 4084 
Q 3081 4231 2675 4231 
Q 1875 4231 1450 3742 
Q 1025 3253 1025 2328 
Q 1025 1406 1450 917 
Q 1875 428 2675 428 
Q 3081 428 3442 575 
Q 3803 722 4122 1019 
L 4122 359 
Q 3791 134 3420 21 
Q 3050 -91 2638 -91 
Q 1578 -91 968 557 
Q 359 1206 359 2328 
Q 359 3453 968 4101 
Q 1578 4750 2638 4750 
Q 3056 4750 3426 4639 
Q 3797 4528 4122 4306 
z
" transform="scale(0.015625)"/>
      </defs>
      <use xlink:href="#DejaVuSans-55"/>
      <use xlink:href="#DejaVuSans-53" transform="translate(73.193359 0)"/>
      <use xlink:href="#DejaVuSans-44" transform="translate(136.669922 0)"/>
      <use xlink:href="#DejaVuSans-2f" transform="translate(213.671875 0)"/>
      <use xlink:href="#DejaVuSans-42" transform="translate(247.363281 0)"/>
      <use xlink:href="#DejaVuSans-54" transform="translate(315.966797 0)"/>
      <use xlink:href="#DejaVuSans-43" transform="translate(371.175781 0)"/>
     </g>
    </g>
    <g id="line2d_84">
     <path d="M 46.316 152.971594 
L 46.316 152.971594 
L 58.916 152.971594 
L 58.916 152.971594 
L 71.516 152.971594 
" style="fill: none; stroke: #83a83b; stroke-width: 1.2; stroke-linecap: square"/>
    </g>
    <g id="text_19">
     <!-- Max -->
     <g style="fill: #b1bed6" transform="translate(81.596 157.381594) scale(0.126 -0.126)">
      <defs>
       <path id="DejaVuSans-4d" d="M 628 4666 
L 1569 4666 
L 2759 1491 
L 3956 4666 
L 4897 4666 
L 4897 0 
L 4281 0 
L 4281 4097 
L 3078 897 
L 2444 897 
L 1241 4097 
L 1241 0 
L 628 0 
L 628 4666 
z
" transform="scale(0.015625)"/>
       <path id="DejaVuSans-78" d="M 3513 3500 
L 2247 1797 
L 3578 0 
L 2900 0 
L 1881 1375 
L 863 0 
L 184 0 
L 1544 1831 
L 300 3500 
L 978 3500 
L 1906 2253 
L 2834 3500 
L 3513 3500 
z
" transform="scale(0.015625)"/>
      </defs>
      <use xlink:href="#DejaVuSans-4d"/>
      <use xlink:href="#DejaVuSans-61" transform="translate(86.279297 0)"/>
      <use xlink:href="#DejaVuSans-78" transform="translate(147.558594 0)"/>
     </g>
    </g>
    <g id="line2d_85">
     <path d="M 46.316 171.466031 
L 46.316 171.466031 
L 58.916 171.466031 
L 58.916 171.466031 
L 71.516 171.466031 
" style="fill: none; stroke: #c44e52; stroke-width: 1.2; stroke-linecap: square"/>
    </g>
    <g id="text_20">
     <!-- local_Min -->
     <g style="fill: #b1bed6" transform="translate(81.596 175.876031) scale(0.126 -0.126)">
      <defs>
       <path id="DejaVuSans-6c" d="M 603 4863 
L 1178 4863 
L 1178 0 
L 603 0 
L 603 4863 
z
" transform="scale(0.015625)"/>
       <path id="DejaVuSans-6f" d="M 1959 3097 
Q 1497 3097 1228 2736 
Q 959 2375 959 1747 
Q 959 1119 1226 758 
Q 1494 397 1959 397 
Q 2419 397 2687 759 
Q 2956 1122 2956 1747 
Q 2956 2369 2687 2733 
Q 2419 3097 1959 3097 
z
M 1959 3584 
Q 2709 3584 3137 3096 
Q 3566 2609 3566 1747 
Q 3566 888 3137 398 
Q 2709 -91 1959 -91 
Q 1206 -91 779 398 
Q 353 888 353 1747 
Q 353 2609 779 3096 
Q 1206 3584 1959 3584 
z
" transform="scale(0.015625)"/>
       <path id="DejaVuSans-63" d="M 3122 3366 
L 3122 2828 
Q 2878 2963 2633 3030 
Q 2388 3097 2138 3097 
Q 1578 3097 1268 2742 
Q 959 2388 959 1747 
Q 959 1106 1268 751 
Q 1578 397 2138 397 
Q 2388 397 2633 464 
Q 2878 531 3122 666 
L 3122 134 
Q 2881 22 2623 -34 
Q 2366 -91 2075 -91 
Q 1284 -91 818 406 
Q 353 903 353 1747 
Q 353 2603 823 3093 
Q 1294 3584 2113 3584 
Q 2378 3584 2631 3529 
Q 2884 3475 3122 3366 
z
" transform="scale(0.015625)"/>
       <path id="DejaVuSans-5f" d="M 3263 -1063 
L 3263 -1509 
L -63 -1509 
L -63 -1063 
L 3263 -1063 
z
" transform="scale(0.015625)"/>
       <path id="DejaVuSans-69" d="M 603 3500 
L 1178 3500 
L 1178 0 
L 603 0 
L 603 3500 
z
M 603 4863 
L 1178 4863 
L 1178 4134 
L 603 4134 
L 603 4863 
z
" transform="scale(0.015625)"/>
       <path id="DejaVuSans-6e" d="M 3513 2113 
L 3513 0 
L 2938 0 
L 2938 2094 
Q 2938 2591 2744 2837 
Q 2550 3084 2163 3084 
Q 1697 3084 1428 2787 
Q 1159 2491 1159 1978 
L 1159 0 
L 581 0 
L 581 3500 
L 1159 3500 
L 1159 2956 
Q 1366 3272 1645 3428 
Q 1925 3584 2291 3584 
Q 2894 3584 3203 3211 
Q 3513 2838 3513 2113 
z
" transform="scale(0.015625)"/>
      </defs>
      <use xlink:href="#DejaVuSans-6c"/>
      <use xlink:href="#DejaVuSans-6f" transform="translate(27.783203 0)"/>
      <use xlink:href="#DejaVuSans-63" transform="translate(88.964844 0)"/>
      <use xlink:href="#DejaVuSans-61" transform="translate(143.945312 0)"/>
      <use xlink:href="#DejaVuSans-6c" transform="translate(205.224609 0)"/>
      <use xlink:href="#DejaVuSans-5f" transform="translate(233.007812 0)"/>
      <use xlink:href="#DejaVuSans-4d" transform="translate(283.007812 0)"/>
      <use xlink:href="#DejaVuSans-69" transform="translate(369.287109 0)"/>
      <use xlink:href="#DejaVuSans-6e" transform="translate(397.070312 0)"/>
     </g>
    </g>
   </g>
  </g>
 </g>
 <defs>
  <clipPath id="p59498a0f7b">
   <rect x="34.976" y="7.2" width="892.8" height="293.76"/>
  </clipPath>
 </defs>
</svg>
