<?xml version="1.0" encoding="utf-8" standalone="no"?>
<!DOCTYPE svg PUBLIC "-//W3C//DTD SVG 1.1//EN"
  "http://www.w3.org/Graphics/SVG/1.1/DTD/svg11.dtd">
<svg xmlns:xlink="http://www.w3.org/1999/xlink" width="952.88375pt" height="368.580365pt" viewBox="0 0 952.88375 368.580365" xmlns="http://www.w3.org/2000/svg" version="1.1">
 <metadata>
  <rdf:RDF xmlns:dc="http://purl.org/dc/elements/1.1/" xmlns:cc="http://creativecommons.org/ns#" xmlns:rdf="http://www.w3.org/1999/02/22-rdf-syntax-ns#">
   <cc:Work>
    <dc:type rdf:resource="http://purl.org/dc/dcmitype/StillImage"/>
    <dc:date>2024-08-06T05:55:38.591750</dc:date>
    <dc:format>image/svg+xml</dc:format>
    <dc:creator>
     <cc:Agent>
      <dc:title>Matplotlib v3.9.0, https://matplotlib.org/</dc:title>
     </cc:Agent>
    </dc:creator>
   </cc:Work>
  </rdf:RDF>
 </metadata>
 <defs>
  <style type="text/css">*{stroke-linejoin: round; stroke-linecap: butt}</style>
 </defs>
 <g id="figure_1">
  <g id="patch_1">
   <path d="M 0 368.580365 
L 952.88375 368.580365 
L 952.88375 0 
L 0 0 
z
" style="fill: #373e4b"/>
  </g>
  <g id="axes_1">
   <g id="patch_2">
    <path d="M 52.88375 300.96 
L 945.68375 300.96 
L 945.68375 7.2 
L 52.88375 7.2 
z
" style="fill: #373e4b"/>
   </g>
   <g id="matplotlib.axis_1">
    <g id="xtick_1">
     <g id="line2d_1">
      <path d="M 125.480283 300.96 
L 125.480283 7.2 
" clip-path="url(#p3c3b6ed4b3)" style="fill: none; stroke: #546379; stroke-width: 1.12; stroke-linecap: square"/>
     </g>
     <g id="line2d_2"/>
     <g id="text_1">
      <!-- 2021-05 -->
      <g style="fill: #b1bed6" transform="translate(78.577009 341.174526) rotate(-30) scale(0.126 -0.126)">
       <defs>
        <path id="DejaVuSans-32" d="M 1228 531 
L 3431 531 
L 3431 0 
L 469 0 
L 469 531 
Q 828 903 1448 1529 
Q 2069 2156 2228 2338 
Q 2531 2678 2651 2914 
Q 2772 3150 2772 3378 
Q 2772 3750 2511 3984 
Q 2250 4219 1831 4219 
Q 1534 4219 1204 4116 
Q 875 4013 500 3803 
L 500 4441 
Q 881 4594 1212 4672 
Q 1544 4750 1819 4750 
Q 2544 4750 2975 4387 
Q 3406 4025 3406 3419 
Q 3406 3131 3298 2873 
Q 3191 2616 2906 2266 
Q 2828 2175 2409 1742 
Q 1991 1309 1228 531 
z
" transform="scale(0.015625)"/>
        <path id="DejaVuSans-30" d="M 2034 4250 
Q 1547 4250 1301 3770 
Q 1056 3291 1056 2328 
Q 1056 1369 1301 889 
Q 1547 409 2034 409 
Q 2525 409 2770 889 
Q 3016 1369 3016 2328 
Q 3016 3291 2770 3770 
Q 2525 4250 2034 4250 
z
M 2034 4750 
Q 2819 4750 3233 4129 
Q 3647 3509 3647 2328 
Q 3647 1150 3233 529 
Q 2819 -91 2034 -91 
Q 1250 -91 836 529 
Q 422 1150 422 2328 
Q 422 3509 836 4129 
Q 1250 4750 2034 4750 
z
" transform="scale(0.015625)"/>
        <path id="DejaVuSans-31" d="M 794 531 
L 1825 531 
L 1825 4091 
L 703 3866 
L 703 4441 
L 1819 4666 
L 2450 4666 
L 2450 531 
L 3481 531 
L 3481 0 
L 794 0 
L 794 531 
z
" transform="scale(0.015625)"/>
        <path id="DejaVuSans-2d" d="M 313 2009 
L 1997 2009 
L 1997 1497 
L 313 1497 
L 313 2009 
z
" transform="scale(0.015625)"/>
        <path id="DejaVuSans-35" d="M 691 4666 
L 3169 4666 
L 3169 4134 
L 1269 4134 
L 1269 2991 
Q 1406 3038 1543 3061 
Q 1681 3084 1819 3084 
Q 2600 3084 3056 2656 
Q 3513 2228 3513 1497 
Q 3513 744 3044 326 
Q 2575 -91 1722 -91 
Q 1428 -91 1123 -41 
Q 819 9 494 109 
L 494 744 
Q 775 591 1075 516 
Q 1375 441 1709 441 
Q 2250 441 2565 725 
Q 2881 1009 2881 1497 
Q 2881 1984 2565 2268 
Q 2250 2553 1709 2553 
Q 1456 2553 1204 2497 
Q 953 2441 691 2322 
L 691 4666 
z
" transform="scale(0.015625)"/>
       </defs>
       <use xlink:href="#DejaVuSans-32"/>
       <use xlink:href="#DejaVuSans-30" x="63.623047"/>
       <use xlink:href="#DejaVuSans-32" x="127.246094"/>
       <use xlink:href="#DejaVuSans-31" x="190.869141"/>
       <use xlink:href="#DejaVuSans-2d" x="254.492188"/>
       <use xlink:href="#DejaVuSans-30" x="290.576172"/>
       <use xlink:href="#DejaVuSans-35" x="354.199219"/>
      </g>
     </g>
    </g>
    <g id="xtick_2">
     <g id="line2d_3">
      <path d="M 205.843751 300.96 
L 205.843751 7.2 
" clip-path="url(#p3c3b6ed4b3)" style="fill: none; stroke: #546379; stroke-width: 1.12; stroke-linecap: square"/>
     </g>
     <g id="line2d_4"/>
     <g id="text_2">
      <!-- 2021-09 -->
      <g style="fill: #b1bed6" transform="translate(158.940477 341.174526) rotate(-30) scale(0.126 -0.126)">
       <defs>
        <path id="DejaVuSans-39" d="M 703 97 
L 703 672 
Q 941 559 1184 500 
Q 1428 441 1663 441 
Q 2288 441 2617 861 
Q 2947 1281 2994 2138 
Q 2813 1869 2534 1725 
Q 2256 1581 1919 1581 
Q 1219 1581 811 2004 
Q 403 2428 403 3163 
Q 403 3881 828 4315 
Q 1253 4750 1959 4750 
Q 2769 4750 3195 4129 
Q 3622 3509 3622 2328 
Q 3622 1225 3098 567 
Q 2575 -91 1691 -91 
Q 1453 -91 1209 -44 
Q 966 3 703 97 
z
M 1959 2075 
Q 2384 2075 2632 2365 
Q 2881 2656 2881 3163 
Q 2881 3666 2632 3958 
Q 2384 4250 1959 4250 
Q 1534 4250 1286 3958 
Q 1038 3666 1038 3163 
Q 1038 2656 1286 2365 
Q 1534 2075 1959 2075 
z
" transform="scale(0.015625)"/>
       </defs>
       <use xlink:href="#DejaVuSans-32"/>
       <use xlink:href="#DejaVuSans-30" x="63.623047"/>
       <use xlink:href="#DejaVuSans-32" x="127.246094"/>
       <use xlink:href="#DejaVuSans-31" x="190.869141"/>
       <use xlink:href="#DejaVuSans-2d" x="254.492188"/>
       <use xlink:href="#DejaVuSans-30" x="290.576172"/>
       <use xlink:href="#DejaVuSans-39" x="354.199219"/>
      </g>
     </g>
    </g>
    <g id="xtick_3">
     <g id="line2d_5">
      <path d="M 285.553858 300.96 
L 285.553858 7.2 
" clip-path="url(#p3c3b6ed4b3)" style="fill: none; stroke: #546379; stroke-width: 1.12; stroke-linecap: square"/>
     </g>
     <g id="line2d_6"/>
     <g id="text_3">
      <!-- 2022-01 -->
      <g style="fill: #b1bed6" transform="translate(238.650584 341.174526) rotate(-30) scale(0.126 -0.126)">
       <use xlink:href="#DejaVuSans-32"/>
       <use xlink:href="#DejaVuSans-30" x="63.623047"/>
       <use xlink:href="#DejaVuSans-32" x="127.246094"/>
       <use xlink:href="#DejaVuSans-32" x="190.869141"/>
       <use xlink:href="#DejaVuSans-2d" x="254.492188"/>
       <use xlink:href="#DejaVuSans-30" x="290.576172"/>
       <use xlink:href="#DejaVuSans-31" x="354.199219"/>
      </g>
     </g>
    </g>
    <g id="xtick_4">
     <g id="line2d_7">
      <path d="M 363.957241 300.96 
L 363.957241 7.2 
" clip-path="url(#p3c3b6ed4b3)" style="fill: none; stroke: #546379; stroke-width: 1.12; stroke-linecap: square"/>
     </g>
     <g id="line2d_8"/>
     <g id="text_4">
      <!-- 2022-05 -->
      <g style="fill: #b1bed6" transform="translate(317.053967 341.174526) rotate(-30) scale(0.126 -0.126)">
       <use xlink:href="#DejaVuSans-32"/>
       <use xlink:href="#DejaVuSans-30" x="63.623047"/>
       <use xlink:href="#DejaVuSans-32" x="127.246094"/>
       <use xlink:href="#DejaVuSans-32" x="190.869141"/>
       <use xlink:href="#DejaVuSans-2d" x="254.492188"/>
       <use xlink:href="#DejaVuSans-30" x="290.576172"/>
       <use xlink:href="#DejaVuSans-35" x="354.199219"/>
      </g>
     </g>
    </g>
    <g id="xtick_5">
     <g id="line2d_9">
      <path d="M 444.32071 300.96 
L 444.32071 7.2 
" clip-path="url(#p3c3b6ed4b3)" style="fill: none; stroke: #546379; stroke-width: 1.12; stroke-linecap: square"/>
     </g>
     <g id="line2d_10"/>
     <g id="text_5">
      <!-- 2022-09 -->
      <g style="fill: #b1bed6" transform="translate(397.417435 341.174526) rotate(-30) scale(0.126 -0.126)">
       <use xlink:href="#DejaVuSans-32"/>
       <use xlink:href="#DejaVuSans-30" x="63.623047"/>
       <use xlink:href="#DejaVuSans-32" x="127.246094"/>
       <use xlink:href="#DejaVuSans-32" x="190.869141"/>
       <use xlink:href="#DejaVuSans-2d" x="254.492188"/>
       <use xlink:href="#DejaVuSans-30" x="290.576172"/>
       <use xlink:href="#DejaVuSans-39" x="354.199219"/>
      </g>
     </g>
    </g>
    <g id="xtick_6">
     <g id="line2d_11">
      <path d="M 524.030816 300.96 
L 524.030816 7.2 
" clip-path="url(#p3c3b6ed4b3)" style="fill: none; stroke: #546379; stroke-width: 1.12; stroke-linecap: square"/>
     </g>
     <g id="line2d_12"/>
     <g id="text_6">
      <!-- 2023-01 -->
      <g style="fill: #b1bed6" transform="translate(477.127542 341.174526) rotate(-30) scale(0.126 -0.126)">
       <defs>
        <path id="DejaVuSans-33" d="M 2597 2516 
Q 3050 2419 3304 2112 
Q 3559 1806 3559 1356 
Q 3559 666 3084 287 
Q 2609 -91 1734 -91 
Q 1441 -91 1130 -33 
Q 819 25 488 141 
L 488 750 
Q 750 597 1062 519 
Q 1375 441 1716 441 
Q 2309 441 2620 675 
Q 2931 909 2931 1356 
Q 2931 1769 2642 2001 
Q 2353 2234 1838 2234 
L 1294 2234 
L 1294 2753 
L 1863 2753 
Q 2328 2753 2575 2939 
Q 2822 3125 2822 3475 
Q 2822 3834 2567 4026 
Q 2313 4219 1838 4219 
Q 1578 4219 1281 4162 
Q 984 4106 628 3988 
L 628 4550 
Q 988 4650 1302 4700 
Q 1616 4750 1894 4750 
Q 2613 4750 3031 4423 
Q 3450 4097 3450 3541 
Q 3450 3153 3228 2886 
Q 3006 2619 2597 2516 
z
" transform="scale(0.015625)"/>
       </defs>
       <use xlink:href="#DejaVuSans-32"/>
       <use xlink:href="#DejaVuSans-30" x="63.623047"/>
       <use xlink:href="#DejaVuSans-32" x="127.246094"/>
       <use xlink:href="#DejaVuSans-33" x="190.869141"/>
       <use xlink:href="#DejaVuSans-2d" x="254.492188"/>
       <use xlink:href="#DejaVuSans-30" x="290.576172"/>
       <use xlink:href="#DejaVuSans-31" x="354.199219"/>
      </g>
     </g>
    </g>
    <g id="xtick_7">
     <g id="line2d_13">
      <path d="M 602.4342 300.96 
L 602.4342 7.2 
" clip-path="url(#p3c3b6ed4b3)" style="fill: none; stroke: #546379; stroke-width: 1.12; stroke-linecap: square"/>
     </g>
     <g id="line2d_14"/>
     <g id="text_7">
      <!-- 2023-05 -->
      <g style="fill: #b1bed6" transform="translate(555.530925 341.174526) rotate(-30) scale(0.126 -0.126)">
       <use xlink:href="#DejaVuSans-32"/>
       <use xlink:href="#DejaVuSans-30" x="63.623047"/>
       <use xlink:href="#DejaVuSans-32" x="127.246094"/>
       <use xlink:href="#DejaVuSans-33" x="190.869141"/>
       <use xlink:href="#DejaVuSans-2d" x="254.492188"/>
       <use xlink:href="#DejaVuSans-30" x="290.576172"/>
       <use xlink:href="#DejaVuSans-35" x="354.199219"/>
      </g>
     </g>
    </g>
    <g id="xtick_8">
     <g id="line2d_15">
      <path d="M 682.797668 300.96 
L 682.797668 7.2 
" clip-path="url(#p3c3b6ed4b3)" style="fill: none; stroke: #546379; stroke-width: 1.12; stroke-linecap: square"/>
     </g>
     <g id="line2d_16"/>
     <g id="text_8">
      <!-- 2023-09 -->
      <g style="fill: #b1bed6" transform="translate(635.894394 341.174526) rotate(-30) scale(0.126 -0.126)">
       <use xlink:href="#DejaVuSans-32"/>
       <use xlink:href="#DejaVuSans-30" x="63.623047"/>
       <use xlink:href="#DejaVuSans-32" x="127.246094"/>
       <use xlink:href="#DejaVuSans-33" x="190.869141"/>
       <use xlink:href="#DejaVuSans-2d" x="254.492188"/>
       <use xlink:href="#DejaVuSans-30" x="290.576172"/>
       <use xlink:href="#DejaVuSans-39" x="354.199219"/>
      </g>
     </g>
    </g>
    <g id="xtick_9">
     <g id="line2d_17">
      <path d="M 762.507774 300.96 
L 762.507774 7.2 
" clip-path="url(#p3c3b6ed4b3)" style="fill: none; stroke: #546379; stroke-width: 1.12; stroke-linecap: square"/>
     </g>
     <g id="line2d_18"/>
     <g id="text_9">
      <!-- 2024-01 -->
      <g style="fill: #b1bed6" transform="translate(715.6045 341.174526) rotate(-30) scale(0.126 -0.126)">
       <defs>
        <path id="DejaVuSans-34" d="M 2419 4116 
L 825 1625 
L 2419 1625 
L 2419 4116 
z
M 2253 4666 
L 3047 4666 
L 3047 1625 
L 3713 1625 
L 3713 1100 
L 3047 1100 
L 3047 0 
L 2419 0 
L 2419 1100 
L 313 1100 
L 313 1709 
L 2253 4666 
z
" transform="scale(0.015625)"/>
       </defs>
       <use xlink:href="#DejaVuSans-32"/>
       <use xlink:href="#DejaVuSans-30" x="63.623047"/>
       <use xlink:href="#DejaVuSans-32" x="127.246094"/>
       <use xlink:href="#DejaVuSans-34" x="190.869141"/>
       <use xlink:href="#DejaVuSans-2d" x="254.492188"/>
       <use xlink:href="#DejaVuSans-30" x="290.576172"/>
       <use xlink:href="#DejaVuSans-31" x="354.199219"/>
      </g>
     </g>
    </g>
    <g id="xtick_10">
     <g id="line2d_19">
      <path d="M 841.564519 300.96 
L 841.564519 7.2 
" clip-path="url(#p3c3b6ed4b3)" style="fill: none; stroke: #546379; stroke-width: 1.12; stroke-linecap: square"/>
     </g>
     <g id="line2d_20"/>
     <g id="text_10">
      <!-- 2024-05 -->
      <g style="fill: #b1bed6" transform="translate(794.661245 341.174526) rotate(-30) scale(0.126 -0.126)">
       <use xlink:href="#DejaVuSans-32"/>
       <use xlink:href="#DejaVuSans-30" x="63.623047"/>
       <use xlink:href="#DejaVuSans-32" x="127.246094"/>
       <use xlink:href="#DejaVuSans-34" x="190.869141"/>
       <use xlink:href="#DejaVuSans-2d" x="254.492188"/>
       <use xlink:href="#DejaVuSans-30" x="290.576172"/>
       <use xlink:href="#DejaVuSans-35" x="354.199219"/>
      </g>
     </g>
    </g>
    <g id="xtick_11">
     <g id="line2d_21">
      <path d="M 921.927988 300.96 
L 921.927988 7.2 
" clip-path="url(#p3c3b6ed4b3)" style="fill: none; stroke: #546379; stroke-width: 1.12; stroke-linecap: square"/>
     </g>
     <g id="line2d_22"/>
     <g id="text_11">
      <!-- 2024-09 -->
      <g style="fill: #b1bed6" transform="translate(875.024713 341.174526) rotate(-30) scale(0.126 -0.126)">
       <use xlink:href="#DejaVuSans-32"/>
       <use xlink:href="#DejaVuSans-30" x="63.623047"/>
       <use xlink:href="#DejaVuSans-32" x="127.246094"/>
       <use xlink:href="#DejaVuSans-34" x="190.869141"/>
       <use xlink:href="#DejaVuSans-2d" x="254.492188"/>
       <use xlink:href="#DejaVuSans-30" x="290.576172"/>
       <use xlink:href="#DejaVuSans-39" x="354.199219"/>
      </g>
     </g>
    </g>
    <g id="text_12">
     <!-- Date -->
     <g style="fill: #b1bed6" transform="translate(482.074625 358.385615) scale(0.144 -0.144)">
      <defs>
       <path id="DejaVuSans-44" d="M 1259 4147 
L 1259 519 
L 2022 519 
Q 2988 519 3436 956 
Q 3884 1394 3884 2338 
Q 3884 3275 3436 3711 
Q 2988 4147 2022 4147 
L 1259 4147 
z
M 628 4666 
L 1925 4666 
Q 3281 4666 3915 4102 
Q 4550 3538 4550 2338 
Q 4550 1131 3912 565 
Q 3275 0 1925 0 
L 628 0 
L 628 4666 
z
" transform="scale(0.015625)"/>
       <path id="DejaVuSans-61" d="M 2194 1759 
Q 1497 1759 1228 1600 
Q 959 1441 959 1056 
Q 959 750 1161 570 
Q 1363 391 1709 391 
Q 2188 391 2477 730 
Q 2766 1069 2766 1631 
L 2766 1759 
L 2194 1759 
z
M 3341 1997 
L 3341 0 
L 2766 0 
L 2766 531 
Q 2569 213 2275 61 
Q 1981 -91 1556 -91 
Q 1019 -91 701 211 
Q 384 513 384 1019 
Q 384 1609 779 1909 
Q 1175 2209 1959 2209 
L 2766 2209 
L 2766 2266 
Q 2766 2663 2505 2880 
Q 2244 3097 1772 3097 
Q 1472 3097 1187 3025 
Q 903 2953 641 2809 
L 641 3341 
Q 956 3463 1253 3523 
Q 1550 3584 1831 3584 
Q 2591 3584 2966 3190 
Q 3341 2797 3341 1997 
z
" transform="scale(0.015625)"/>
       <path id="DejaVuSans-74" d="M 1172 4494 
L 1172 3500 
L 2356 3500 
L 2356 3053 
L 1172 3053 
L 1172 1153 
Q 1172 725 1289 603 
Q 1406 481 1766 481 
L 2356 481 
L 2356 0 
L 1766 0 
Q 1100 0 847 248 
Q 594 497 594 1153 
L 594 3053 
L 172 3053 
L 172 3500 
L 594 3500 
L 594 4494 
L 1172 4494 
z
" transform="scale(0.015625)"/>
       <path id="DejaVuSans-65" d="M 3597 1894 
L 3597 1613 
L 953 1613 
Q 991 1019 1311 708 
Q 1631 397 2203 397 
Q 2534 397 2845 478 
Q 3156 559 3463 722 
L 3463 178 
Q 3153 47 2828 -22 
Q 2503 -91 2169 -91 
Q 1331 -91 842 396 
Q 353 884 353 1716 
Q 353 2575 817 3079 
Q 1281 3584 2069 3584 
Q 2775 3584 3186 3129 
Q 3597 2675 3597 1894 
z
M 3022 2063 
Q 3016 2534 2758 2815 
Q 2500 3097 2075 3097 
Q 1594 3097 1305 2825 
Q 1016 2553 972 2059 
L 3022 2063 
z
" transform="scale(0.015625)"/>
      </defs>
      <use xlink:href="#DejaVuSans-44"/>
      <use xlink:href="#DejaVuSans-61" x="77.001953"/>
      <use xlink:href="#DejaVuSans-74" x="138.28125"/>
      <use xlink:href="#DejaVuSans-65" x="177.490234"/>
     </g>
    </g>
   </g>
   <g id="matplotlib.axis_2">
    <g id="ytick_1">
     <g id="line2d_23">
      <path d="M 52.88375 269.229136 
L 945.68375 269.229136 
" clip-path="url(#p3c3b6ed4b3)" style="fill: none; stroke: #546379; stroke-width: 1.12; stroke-linecap: square"/>
     </g>
     <g id="line2d_24"/>
     <g id="text_13">
      <!-- 20000 -->
      <g style="fill: #b1bed6" transform="translate(7.2 274.016152) scale(0.126 -0.126)">
       <use xlink:href="#DejaVuSans-32"/>
       <use xlink:href="#DejaVuSans-30" x="63.623047"/>
       <use xlink:href="#DejaVuSans-30" x="127.246094"/>
       <use xlink:href="#DejaVuSans-30" x="190.869141"/>
       <use xlink:href="#DejaVuSans-30" x="254.492188"/>
      </g>
     </g>
    </g>
    <g id="ytick_2">
     <g id="line2d_25">
      <path d="M 52.88375 220.932345 
L 945.68375 220.932345 
" clip-path="url(#p3c3b6ed4b3)" style="fill: none; stroke: #546379; stroke-width: 1.12; stroke-linecap: square"/>
     </g>
     <g id="line2d_26"/>
     <g id="text_14">
      <!-- 30000 -->
      <g style="fill: #b1bed6" transform="translate(7.2 225.719361) scale(0.126 -0.126)">
       <use xlink:href="#DejaVuSans-33"/>
       <use xlink:href="#DejaVuSans-30" x="63.623047"/>
       <use xlink:href="#DejaVuSans-30" x="127.246094"/>
       <use xlink:href="#DejaVuSans-30" x="190.869141"/>
       <use xlink:href="#DejaVuSans-30" x="254.492188"/>
      </g>
     </g>
    </g>
    <g id="ytick_3">
     <g id="line2d_27">
      <path d="M 52.88375 172.635555 
L 945.68375 172.635555 
" clip-path="url(#p3c3b6ed4b3)" style="fill: none; stroke: #546379; stroke-width: 1.12; stroke-linecap: square"/>
     </g>
     <g id="line2d_28"/>
     <g id="text_15">
      <!-- 40000 -->
      <g style="fill: #b1bed6" transform="translate(7.2 177.42257) scale(0.126 -0.126)">
       <use xlink:href="#DejaVuSans-34"/>
       <use xlink:href="#DejaVuSans-30" x="63.623047"/>
       <use xlink:href="#DejaVuSans-30" x="127.246094"/>
       <use xlink:href="#DejaVuSans-30" x="190.869141"/>
       <use xlink:href="#DejaVuSans-30" x="254.492188"/>
      </g>
     </g>
    </g>
    <g id="ytick_4">
     <g id="line2d_29">
      <path d="M 52.88375 124.338764 
L 945.68375 124.338764 
" clip-path="url(#p3c3b6ed4b3)" style="fill: none; stroke: #546379; stroke-width: 1.12; stroke-linecap: square"/>
     </g>
     <g id="line2d_30"/>
     <g id="text_16">
      <!-- 50000 -->
      <g style="fill: #b1bed6" transform="translate(7.2 129.125779) scale(0.126 -0.126)">
       <use xlink:href="#DejaVuSans-35"/>
       <use xlink:href="#DejaVuSans-30" x="63.623047"/>
       <use xlink:href="#DejaVuSans-30" x="127.246094"/>
       <use xlink:href="#DejaVuSans-30" x="190.869141"/>
       <use xlink:href="#DejaVuSans-30" x="254.492188"/>
      </g>
     </g>
    </g>
    <g id="ytick_5">
     <g id="line2d_31">
      <path d="M 52.88375 76.041973 
L 945.68375 76.041973 
" clip-path="url(#p3c3b6ed4b3)" style="fill: none; stroke: #546379; stroke-width: 1.12; stroke-linecap: square"/>
     </g>
     <g id="line2d_32"/>
     <g id="text_17">
      <!-- 60000 -->
      <g style="fill: #b1bed6" transform="translate(7.2 80.828988) scale(0.126 -0.126)">
       <defs>
        <path id="DejaVuSans-36" d="M 2113 2584 
Q 1688 2584 1439 2293 
Q 1191 2003 1191 1497 
Q 1191 994 1439 701 
Q 1688 409 2113 409 
Q 2538 409 2786 701 
Q 3034 994 3034 1497 
Q 3034 2003 2786 2293 
Q 2538 2584 2113 2584 
z
M 3366 4563 
L 3366 3988 
Q 3128 4100 2886 4159 
Q 2644 4219 2406 4219 
Q 1781 4219 1451 3797 
Q 1122 3375 1075 2522 
Q 1259 2794 1537 2939 
Q 1816 3084 2150 3084 
Q 2853 3084 3261 2657 
Q 3669 2231 3669 1497 
Q 3669 778 3244 343 
Q 2819 -91 2113 -91 
Q 1303 -91 875 529 
Q 447 1150 447 2328 
Q 447 3434 972 4092 
Q 1497 4750 2381 4750 
Q 2619 4750 2861 4703 
Q 3103 4656 3366 4563 
z
" transform="scale(0.015625)"/>
       </defs>
       <use xlink:href="#DejaVuSans-36"/>
       <use xlink:href="#DejaVuSans-30" x="63.623047"/>
       <use xlink:href="#DejaVuSans-30" x="127.246094"/>
       <use xlink:href="#DejaVuSans-30" x="190.869141"/>
       <use xlink:href="#DejaVuSans-30" x="254.492188"/>
      </g>
     </g>
    </g>
    <g id="ytick_6">
     <g id="line2d_33">
      <path d="M 52.88375 27.745182 
L 945.68375 27.745182 
" clip-path="url(#p3c3b6ed4b3)" style="fill: none; stroke: #546379; stroke-width: 1.12; stroke-linecap: square"/>
     </g>
     <g id="line2d_34"/>
     <g id="text_18">
      <!-- 70000 -->
      <g style="fill: #b1bed6" transform="translate(7.2 32.532198) scale(0.126 -0.126)">
       <defs>
        <path id="DejaVuSans-37" d="M 525 4666 
L 3525 4666 
L 3525 4397 
L 1831 0 
L 1172 0 
L 2766 4134 
L 525 4134 
L 525 4666 
z
" transform="scale(0.015625)"/>
       </defs>
       <use xlink:href="#DejaVuSans-37"/>
       <use xlink:href="#DejaVuSans-30" x="63.623047"/>
       <use xlink:href="#DejaVuSans-30" x="127.246094"/>
       <use xlink:href="#DejaVuSans-30" x="190.869141"/>
       <use xlink:href="#DejaVuSans-30" x="254.492188"/>
      </g>
     </g>
    </g>
   </g>
   <g id="line2d_35">
    <path d="M 93.465568 89.307749 
L 93.465568 91.147374 
L 96.079014 91.147374 
L 96.079014 85.286945 
L 98.69246 85.286945 
L 98.69246 112.224818 
L 101.305907 112.224818 
L 101.305907 96.4053 
L 103.919353 96.4053 
L 103.919353 82.142244 
L 106.532799 82.142244 
L 106.532799 80.610366 
L 109.146245 80.610366 
L 109.146245 85.205903 
L 111.759691 85.205903 
L 111.759691 58.875168 
L 114.373137 58.875168 
L 114.373137 75.621356 
L 116.986583 75.621356 
L 116.986583 105.943482 
L 119.600029 105.943482 
L 119.600029 128.803416 
L 122.213475 128.803416 
L 122.213475 107.028469 
L 124.826922 107.028469 
L 124.826922 89.500695 
L 127.440368 89.500695 
L 127.440368 88.694428 
L 130.053814 88.694428 
L 130.053814 91.73843 
L 132.66726 91.73843 
L 132.66726 140.100035 
L 135.280706 140.100035 
L 135.280706 187.297156 
L 137.894152 187.297156 
L 137.894152 197.969443 
L 140.507598 197.969443 
L 140.507598 180.144305 
L 143.121044 180.144305 
L 143.121044 185.624783 
L 145.734491 185.624783 
L 145.734491 187.677542 
L 148.347937 187.677542 
L 148.347937 204.269035 
L 150.961383 204.269035 
L 150.961383 194.393742 
L 153.574829 194.393742 
L 153.574829 180.725895 
L 156.188275 180.725895 
L 156.188275 193.92309 
L 158.801721 193.92309 
L 158.801721 198.525629 
L 161.415167 198.525629 
L 161.415167 199.40806 
L 164.028613 199.40806 
L 164.028613 202.304949 
L 166.642059 202.304949 
L 166.642059 200.594519 
L 169.255506 200.594519 
L 169.255506 203.953271 
L 171.868952 203.953271 
L 171.868952 207.338682 
L 174.482398 207.338682 
L 174.482398 212.318661 
L 177.095844 212.318661 
L 177.095844 209.834274 
L 179.70929 209.834274 
L 179.70929 185.588078 
L 182.322736 185.588078 
L 182.322736 161.941921 
L 184.936182 161.941921 
L 184.936182 181.628417 
L 187.549628 181.628417 
L 187.549628 150.254194 
L 190.163075 150.254194 
L 190.163075 145.534004 
L 192.776521 145.534004 
L 192.776521 138.555359 
L 195.389967 138.555359 
L 195.389967 140.109356 
L 198.003413 140.109356 
L 198.003413 126.640106 
L 200.616859 126.640106 
L 200.616859 128.893827 
L 203.230305 128.893827 
L 203.230305 138.074999 
L 205.843751 138.074999 
L 205.843751 124.592901 
L 208.457197 124.592901 
L 208.457197 143.27893 
L 213.68409 143.371949 
L 213.68409 135.035247 
L 216.297536 135.035247 
L 216.297536 158.621951 
L 218.910982 158.621951 
L 218.910982 159.037303 
L 221.524428 159.037303 
L 221.524428 167.751976 
L 224.137874 167.751976 
L 224.137874 135.316141 
L 226.75132 135.316141 
L 226.75132 98.530118 
L 229.364766 98.530118 
L 229.364766 101.997924 
L 231.978212 101.997924 
L 231.978212 88.610054 
L 234.591659 88.610054 
L 234.591659 66.519826 
L 237.205105 66.519826 
L 237.205105 72.675397 
L 239.818551 72.675397 
L 239.818551 74.374913 
L 242.431997 74.374913 
L 242.431997 67.680398 
L 245.045443 67.680398 
L 245.045443 61.770947 
L 247.658889 61.770947 
L 247.658889 60.136777 
L 250.272335 60.136777 
L 250.272335 52.672073 
L 252.885781 52.672073 
L 252.885781 58.731196 
L 255.499227 58.731196 
L 255.499227 85.058887 
L 258.112674 85.058887 
L 258.112674 87.738393 
L 260.72612 87.738393 
L 260.72612 101.15075 
L 263.339566 101.15075 
L 263.339566 89.421343 
L 265.953012 89.421343 
L 265.953012 127.331088 
L 268.566458 127.331088 
L 268.566458 135.641758 
L 271.179904 135.641758 
L 271.179904 140.000978 
L 273.79335 140.000978 
L 273.79335 142.819482 
L 276.406796 142.819482 
L 276.406796 129.484449 
L 279.020243 129.484449 
L 279.020243 122.064516 
L 281.633689 122.064516 
L 281.633689 141.682769 
L 284.247135 141.682769 
L 284.247135 137.244294 
L 286.860581 137.244294 
L 286.860581 157.563913 
L 289.474027 157.563913 
L 289.474027 163.705478 
L 292.087473 163.705478 
L 292.087473 157.666592 
L 294.700919 157.666592 
L 294.700919 161.13377 
L 297.314365 161.13377 
L 297.314365 196.438966 
L 299.927812 196.438966 
L 299.927812 187.97703 
L 302.541258 187.97703 
L 302.541258 182.687952 
L 305.154704 182.687952 
L 305.154704 186.67833 
L 307.76815 186.67833 
L 307.76815 154.118468 
L 310.381596 154.118468 
L 310.381596 161.038191 
L 312.995042 161.038191 
L 312.995042 150.727164 
L 315.608488 150.727164 
L 315.608488 172.0799 
L 318.221934 172.0799 
L 318.221934 185.716837 
L 320.83538 185.716837 
L 320.83538 183.721793 
L 323.448827 183.721793 
L 323.448827 160.733293 
L 326.062273 160.733293 
L 326.062273 182.137948 
L 328.675719 182.137948 
L 328.675719 178.715927 
L 331.289165 178.715927 
L 331.289165 175.915776 
L 333.902611 175.915776 
L 333.902611 161.902462 
L 336.516057 161.902462 
L 336.516057 158.605047 
L 339.129503 158.605047 
L 339.129503 139.511056 
L 341.742949 139.511056 
L 341.742949 145.8829 
L 344.356396 145.8829 
L 344.356396 140.70529 
L 346.969842 140.70529 
L 346.969842 161.629006 
L 349.583288 161.629006 
L 349.583288 172.141961 
L 352.196734 172.141961 
L 352.196734 170.757872 
L 354.81018 170.757872 
L 354.81018 165.99093 
L 357.423626 165.99093 
L 357.423626 175.21668 
L 360.037072 175.21668 
L 360.037072 173.746188 
L 362.650518 173.746188 
L 362.650518 179.828637 
L 365.263964 179.828637 
L 365.263964 191.89134 
L 367.877411 191.89134 
L 367.877411 216.083686 
L 370.490857 216.083686 
L 370.490857 220.572003 
L 373.104303 220.572003 
L 373.104303 227.302837 
L 375.717749 227.302837 
L 375.717749 219.585155 
L 378.331195 219.585155 
L 378.331195 224.825453 
L 380.944641 224.825453 
L 380.944641 212.646645 
L 383.558087 212.646645 
L 383.558087 222.469343 
L 386.171533 222.469343 
L 386.171533 215.533585 
L 388.78498 215.533585 
L 388.78498 228.927879 
L 391.398426 228.927879 
L 391.398426 256.909639 
L 394.011872 256.909639 
L 394.011872 266.619274 
L 396.625318 266.619274 
L 396.625318 263.972997 
L 399.238764 263.972997 
L 399.238764 265.837591 
L 401.85221 265.837591 
L 401.85221 272.963927 
L 404.465656 272.963927 
L 404.465656 268.350569 
L 407.079102 268.350569 
L 407.079102 261.585686 
L 409.692548 261.585686 
L 409.692548 268.148785 
L 412.305995 268.148785 
L 412.305995 265.489854 
L 414.919441 265.489854 
L 414.919441 253.995894 
L 417.532887 253.995894 
L 417.532887 262.947076 
L 420.146333 262.947076 
L 420.146333 250.914993 
L 422.759779 250.914993 
L 422.759779 254.828144 
L 425.373225 254.828144 
L 425.373225 254.995154 
L 427.986671 254.995154 
L 427.986671 250.103994 
L 430.600117 250.103994 
L 430.600117 248.389602 
L 433.213564 248.389602 
L 433.213564 253.80319 
L 435.82701 253.80319 
L 435.82701 262.453435 
L 438.440456 262.453435 
L 438.440456 268.102276 
L 441.053902 268.102276 
L 441.053902 270.228783 
L 443.667348 270.228783 
L 443.667348 270.026323 
L 446.280794 270.026323 
L 446.280794 272.706119 
L 448.89424 272.706119 
L 448.89424 260.562181 
L 451.507686 260.562181 
L 451.507686 270.703686 
L 454.121132 270.703686 
L 454.121132 271.440163 
L 456.734579 271.440163 
L 456.734579 272.703704 
L 459.348025 272.703704 
L 459.348025 273.55223 
L 461.961471 273.55223 
L 461.961471 272.538964 
L 464.574917 272.538964 
L 464.574917 268.418765 
L 467.188363 268.418765 
L 467.188363 271.924677 
L 469.801809 271.924677 
L 469.801809 272.207455 
L 472.415255 272.207455 
L 472.415255 271.407467 
L 475.028701 271.407467 
L 475.028701 273.231298 
L 477.642148 273.231298 
L 477.642148 268.740035 
L 480.255594 268.740035 
L 480.255594 265.287345 
L 482.86904 265.287345 
L 482.86904 268.485414 
L 485.482486 268.485414 
L 485.482486 264.784238 
L 488.095932 264.784238 
L 488.095932 281.060739 
L 490.709378 281.060739 
L 490.709378 285.708195 
L 493.322824 285.708195 
L 493.322824 285.248119 
L 495.93627 285.248119 
L 495.93627 287.607273 
L 498.549716 287.607273 
L 498.549716 286.357738 
L 501.163163 286.357738 
L 501.163163 282.894134 
L 503.776609 282.894134 
L 503.776609 283.150348 
L 506.390055 283.150348 
L 506.390055 282.585228 
L 509.003501 282.585228 
L 509.003501 282.719058 
L 511.616947 282.719058 
L 511.616947 285.468449 
L 514.230393 285.468449 
L 514.230393 284.178732 
L 516.843839 284.178732 
L 516.843839 284.500099 
L 519.457285 284.500099 
L 519.457285 285.943303 
L 522.070732 285.943303 
L 522.070732 285.58383 
L 524.684178 285.58383 
L 524.684178 284.556558 
L 527.297624 284.556558 
L 527.297624 282.790537 
L 529.91107 282.790537 
L 529.91107 269.550986 
L 532.524516 269.550986 
L 532.524516 263.698284 
L 535.137962 263.698284 
L 535.137962 255.838851 
L 537.751408 255.838851 
L 537.751408 254.306684 
L 540.364854 254.306684 
L 540.364854 251.089586 
L 542.9783 251.089586 
L 542.9783 252.545445 
L 545.591747 252.545445 
L 545.591747 255.881159 
L 548.205193 255.881159 
L 548.205193 261.315466 
L 550.818639 261.315466 
L 550.818639 258.546852 
L 553.432085 258.546852 
L 553.432085 246.810056 
L 556.045531 246.810056 
L 556.045531 249.013694 
L 558.658977 249.013694 
L 558.658977 252.020459 
L 561.272423 252.020459 
L 561.272423 252.4829 
L 563.885869 252.4829 
L 563.885869 257.586615 
L 566.499316 257.586615 
L 566.499316 268.143183 
L 569.112762 268.143183 
L 569.112762 246.203835 
L 571.726208 246.203835 
L 571.726208 235.540241 
L 574.339654 235.540241 
L 574.339654 233.941955 
L 576.9531 233.941955 
L 576.9531 230.592476 
L 579.566546 230.592476 
L 579.566546 230.432034 
L 582.179992 230.432034 
L 582.179992 231.546869 
L 584.793438 231.546869 
L 584.793438 230.951273 
L 587.406884 230.951273 
L 587.406884 219.797468 
L 590.020331 219.797468 
L 590.020331 219.390132 
L 592.633777 219.390132 
L 592.633777 226.585147 
L 595.247223 226.585147 
L 595.247223 232.569216 
L 597.860669 232.569216 
L 597.860669 223.442088 
L 600.474115 223.442088 
L 600.474115 230.173212 
L 603.087561 230.173212 
L 603.087561 223.176311 
L 605.701007 223.176311 
L 605.701007 232.329953 
L 608.314453 232.329953 
L 608.314453 236.455224 
L 610.9279 236.455224 
L 610.9279 233.497866 
L 613.541346 233.497866 
L 613.541346 236.597072 
L 616.154792 236.597072 
L 616.154792 237.945904 
L 618.768238 237.945904 
L 618.768238 231.824914 
L 621.381684 231.824914 
L 621.381684 234.204642 
L 626.608576 234.24468 
L 626.608576 240.961894 
L 629.222022 240.961894 
L 629.222022 244.467179 
L 631.835468 244.467179 
L 631.835468 238.623074 
L 634.448915 238.623074 
L 634.448915 221.397299 
L 637.062361 221.397299 
L 637.062361 219.64427 
L 639.675807 219.64427 
L 639.675807 218.655152 
L 642.289253 218.655152 
L 642.289253 217.189972 
L 644.902699 217.189972 
L 644.902699 219.896138 
L 647.516145 219.896138 
L 647.516145 219.04085 
L 650.129591 219.04085 
L 650.129591 219.77187 
L 652.743037 219.77187 
L 652.743037 221.887221 
L 655.356484 221.887221 
L 655.356484 224.900313 
L 657.96993 224.900313 
L 657.96993 224.235266 
L 660.583376 224.235266 
L 660.583376 222.460408 
L 663.196822 222.460408 
L 663.196822 225.530152 
L 665.810268 225.530152 
L 665.810268 223.029296 
L 668.423714 223.029296 
L 668.423714 224.391168 
L 671.03716 224.391168 
L 671.03716 237.053573 
L 673.650606 237.053573 
L 673.650606 239.655031 
L 676.264052 239.655031 
L 676.264052 240.012379 
L 678.877499 240.012379 
L 678.877499 231.889777 
L 681.490945 231.889777 
L 681.490945 240.883315 
L 684.104391 240.883315 
L 684.104391 241.442495 
L 686.717837 241.442495 
L 686.717837 241.058488 
L 689.331283 241.058488 
L 689.331283 237.662257 
L 691.944729 237.662257 
L 691.944729 236.562346 
L 694.558175 236.562346 
L 694.558175 237.440865 
L 697.171621 237.440865 
L 697.171621 239.22321 
L 699.785068 239.22321 
L 699.785068 235.564196 
L 702.398514 235.564196 
L 702.398514 231.569424 
L 705.01196 231.569424 
L 705.01196 230.895104 
L 707.625406 230.895104 
L 707.625406 236.586978 
L 710.238852 236.586978 
L 710.238852 228.093214 
L 712.852298 228.093214 
L 712.852298 222.465286 
L 715.465744 222.465286 
L 715.465744 202.083798 
L 718.07919 202.083798 
L 718.07919 201.175674 
L 720.692636 201.175674 
L 720.692636 194.656428 
L 723.306083 194.656428 
L 723.306083 196.550435 
L 725.919529 196.550435 
L 725.919529 188.591607 
L 728.532975 188.591607 
L 728.532975 189.55223 
L 731.146421 189.55223 
L 731.146421 188.939102 
L 733.759867 188.939102 
L 733.759867 192.876981 
L 736.373313 192.876981 
L 736.373313 183.256309 
L 738.986759 183.256309 
L 738.986759 182.935473 
L 741.600205 182.935473 
L 741.600205 172.751274 
L 744.213652 172.751274 
L 744.213652 156.703892 
L 746.827098 156.703892 
L 746.827098 166.654915 
L 749.440544 166.654915 
L 749.440544 163.291526 
L 752.05399 163.291526 
L 752.05399 161.707826 
L 754.667436 161.707826 
L 754.667436 154.561302 
L 757.280882 154.561302 
L 757.280882 155.872898 
L 759.894328 155.872898 
L 759.894328 161.770274 
L 762.507774 161.770274 
L 762.507774 152.398716 
L 765.121221 152.398716 
L 765.121221 138.961004 
L 767.734667 138.961004 
L 767.734667 158.900044 
L 770.348113 158.900044 
L 770.348113 157.507068 
L 772.961559 157.507068 
L 772.961559 164.621185 
L 775.575005 164.621185 
L 775.575005 172.30477 
L 778.188451 172.30477 
L 778.188451 162.827394 
L 780.801897 162.827394 
L 780.801897 157.851134 
L 783.415343 157.851134 
L 783.415343 159.821015 
L 786.028789 159.821015 
L 786.028789 138.178016 
L 788.642236 138.178016 
L 788.642236 125.598151 
L 791.255682 125.598151 
L 791.255682 116.199064 
L 793.869128 116.199064 
L 793.869128 115.341748 
L 796.482574 115.341748 
L 796.482574 115.994237 
L 799.09602 115.994237 
L 799.09602 70.379222 
L 801.709466 70.379222 
L 801.709466 35.580515 
L 804.322912 35.580515 
L 804.322912 35.922312 
L 806.936358 35.922312 
L 806.936358 20.552727 
L 809.549805 20.552727 
L 809.549805 50.426949 
L 812.163251 50.426949 
L 812.163251 38.094315 
L 814.776697 38.094315 
L 814.776697 41.141118 
L 817.390143 41.141118 
L 817.390143 24.100271 
L 820.003589 24.100271 
L 820.003589 29.187807 
L 822.617035 29.187807 
L 822.617035 38.093156 
L 825.230481 38.093156 
L 825.230481 31.890254 
L 827.843927 31.890254 
L 827.843927 56.627919 
L 830.457373 56.627919 
L 830.457373 69.85752 
L 833.07082 69.85752 
L 833.07082 52.136076 
L 835.684266 52.136076 
L 835.684266 54.374632 
L 838.297712 54.374632 
L 838.297712 57.531165 
L 840.911158 57.531165 
L 840.911158 62.107045 
L 843.524604 62.107045 
L 843.524604 64.820793 
L 846.13805 64.820793 
L 846.13805 72.150314 
L 848.751496 72.150314 
L 848.751496 45.908977 
L 851.364942 45.908977 
L 851.364942 45.778866 
L 853.978389 45.778866 
L 853.978389 37.683551 
L 856.591835 37.683551 
L 856.591835 30.76774 
L 859.205281 30.76774 
L 859.205281 39.892163 
L 861.818727 39.892163 
L 861.818727 25.07321 
L 864.432173 25.07321 
L 864.432173 31.135955 
L 867.045619 31.135955 
L 867.045619 36.246431 
L 869.659065 36.246431 
L 869.659065 43.988117 
L 872.272511 43.988117 
L 872.272511 52.713222 
L 874.885957 52.713222 
L 874.885957 74.691884 
L 877.499404 74.691884 
L 877.499404 74.517388 
L 880.11285 74.517388 
L 880.11285 66.245548 
L 882.726296 66.245548 
L 882.726296 84.420259 
L 885.339742 84.420259 
L 885.339742 86.942027 
L 887.953188 86.942027 
L 887.953188 72.187116 
L 890.566634 72.187116 
L 890.566634 56.87486 
L 893.18008 56.87486 
L 893.18008 39.349645 
L 895.793526 39.349645 
L 895.793526 37.815739 
L 898.406973 37.815739 
L 898.406973 46.194556 
L 901.020419 46.194556 
L 901.020419 72.773826 
L 903.633865 72.773826 
L 903.633865 95.232118 
L 905.101932 95.232118 
L 905.101932 95.232118 
" clip-path="url(#p3c3b6ed4b3)" style="fill: none; stroke: #3572c6; stroke-width: 1.2; stroke-linecap: square"/>
   </g>
   <g id="patch_3">
    <path d="M 52.88375 300.96 
L 52.88375 7.2 
" style="fill: none; stroke: #899ab8; stroke-width: 1.12; stroke-linejoin: miter; stroke-linecap: square"/>
   </g>
   <g id="patch_4">
    <path d="M 945.68375 300.96 
L 945.68375 7.2 
" style="fill: none; stroke: #899ab8; stroke-width: 1.12; stroke-linejoin: miter; stroke-linecap: square"/>
   </g>
   <g id="patch_5">
    <path d="M 52.88375 300.96 
L 945.68375 300.96 
" style="fill: none; stroke: #899ab8; stroke-width: 1.12; stroke-linejoin: miter; stroke-linecap: square"/>
   </g>
   <g id="patch_6">
    <path d="M 52.88375 7.2 
L 945.68375 7.2 
" style="fill: none; stroke: #899ab8; stroke-width: 1.12; stroke-linejoin: miter; stroke-linecap: square"/>
   </g>
  </g>
 </g>
 <defs>
  <clipPath id="p3c3b6ed4b3">
   <rect x="52.88375" y="7.2" width="892.8" height="293.76"/>
  </clipPath>
 </defs>
</svg>
