<?xml version="1.0" encoding="utf-8" standalone="no"?>
<!DOCTYPE svg PUBLIC "-//W3C//DTD SVG 1.1//EN"
  "http://www.w3.org/Graphics/SVG/1.1/DTD/svg11.dtd">
<svg xmlns:xlink="http://www.w3.org/1999/xlink" width="934.976pt" height="358.290693pt" viewBox="0 0 934.976 358.290693" xmlns="http://www.w3.org/2000/svg" version="1.1">
 <metadata>
  <rdf:RDF xmlns:dc="http://purl.org/dc/elements/1.1/" xmlns:cc="http://creativecommons.org/ns#" xmlns:rdf="http://www.w3.org/1999/02/22-rdf-syntax-ns#">
   <cc:Work>
    <dc:type rdf:resource="http://purl.org/dc/dcmitype/StillImage"/>
    <dc:date>2024-06-28T11:40:12.781880</dc:date>
    <dc:format>image/svg+xml</dc:format>
    <dc:creator>
     <cc:Agent>
      <dc:title>Matplotlib v3.9.0, https://matplotlib.org/</dc:title>
     </cc:Agent>
    </dc:creator>
   </cc:Work>
  </rdf:RDF>
 </metadata>
 <defs>
  <style type="text/css">*{stroke-linejoin: round; stroke-linecap: butt}</style>
 </defs>
 <g id="figure_1">
  <g id="patch_1">
   <path d="M 0 358.290693 
L 934.976 358.290693 
L 934.976 0 
L 0 0 
z
" style="fill: #373e4b"/>
  </g>
  <g id="axes_1">
   <g id="patch_2">
    <path d="M 34.976 300.96 
L 927.776 300.96 
L 927.776 7.2 
L 34.976 7.2 
z
" style="fill: #373e4b"/>
   </g>
   <g id="matplotlib.axis_1">
    <g id="xtick_1">
     <g id="line2d_1">
      <path d="M 144.720006 300.96 
L 144.720006 7.2 
" clip-path="url(#p7c1b6b8def)" style="fill: none; stroke: #546379; stroke-width: 1.12; stroke-linecap: square"/>
     </g>
     <g id="line2d_2"/>
     <g id="text_1">
      <!-- 2012 -->
      <g style="fill: #b1bed6" transform="translate(115.638966 330.884854) rotate(-30) scale(0.126 -0.126)">
       <defs>
        <path id="DejaVuSans-32" d="M 1228 531 
L 3431 531 
L 3431 0 
L 469 0 
L 469 531 
Q 828 903 1448 1529 
Q 2069 2156 2228 2338 
Q 2531 2678 2651 2914 
Q 2772 3150 2772 3378 
Q 2772 3750 2511 3984 
Q 2250 4219 1831 4219 
Q 1534 4219 1204 4116 
Q 875 4013 500 3803 
L 500 4441 
Q 881 4594 1212 4672 
Q 1544 4750 1819 4750 
Q 2544 4750 2975 4387 
Q 3406 4025 3406 3419 
Q 3406 3131 3298 2873 
Q 3191 2616 2906 2266 
Q 2828 2175 2409 1742 
Q 1991 1309 1228 531 
z
" transform="scale(0.015625)"/>
        <path id="DejaVuSans-30" d="M 2034 4250 
Q 1547 4250 1301 3770 
Q 1056 3291 1056 2328 
Q 1056 1369 1301 889 
Q 1547 409 2034 409 
Q 2525 409 2770 889 
Q 3016 1369 3016 2328 
Q 3016 3291 2770 3770 
Q 2525 4250 2034 4250 
z
M 2034 4750 
Q 2819 4750 3233 4129 
Q 3647 3509 3647 2328 
Q 3647 1150 3233 529 
Q 2819 -91 2034 -91 
Q 1250 -91 836 529 
Q 422 1150 422 2328 
Q 422 3509 836 4129 
Q 1250 4750 2034 4750 
z
" transform="scale(0.015625)"/>
        <path id="DejaVuSans-31" d="M 794 531 
L 1825 531 
L 1825 4091 
L 703 3866 
L 703 4441 
L 1819 4666 
L 2450 4666 
L 2450 531 
L 3481 531 
L 3481 0 
L 794 0 
L 794 531 
z
" transform="scale(0.015625)"/>
       </defs>
       <use xlink:href="#DejaVuSans-32"/>
       <use xlink:href="#DejaVuSans-30" x="63.623047"/>
       <use xlink:href="#DejaVuSans-31" x="127.246094"/>
       <use xlink:href="#DejaVuSans-32" x="190.869141"/>
      </g>
     </g>
    </g>
    <g id="xtick_2">
     <g id="line2d_3">
      <path d="M 263.678969 300.96 
L 263.678969 7.2 
" clip-path="url(#p7c1b6b8def)" style="fill: none; stroke: #546379; stroke-width: 1.12; stroke-linecap: square"/>
     </g>
     <g id="line2d_4"/>
     <g id="text_2">
      <!-- 2014 -->
      <g style="fill: #b1bed6" transform="translate(234.597929 330.884854) rotate(-30) scale(0.126 -0.126)">
       <defs>
        <path id="DejaVuSans-34" d="M 2419 4116 
L 825 1625 
L 2419 1625 
L 2419 4116 
z
M 2253 4666 
L 3047 4666 
L 3047 1625 
L 3713 1625 
L 3713 1100 
L 3047 1100 
L 3047 0 
L 2419 0 
L 2419 1100 
L 313 1100 
L 313 1709 
L 2253 4666 
z
" transform="scale(0.015625)"/>
       </defs>
       <use xlink:href="#DejaVuSans-32"/>
       <use xlink:href="#DejaVuSans-30" x="63.623047"/>
       <use xlink:href="#DejaVuSans-31" x="127.246094"/>
       <use xlink:href="#DejaVuSans-34" x="190.869141"/>
      </g>
     </g>
    </g>
    <g id="xtick_3">
     <g id="line2d_5">
      <path d="M 382.475198 300.96 
L 382.475198 7.2 
" clip-path="url(#p7c1b6b8def)" style="fill: none; stroke: #546379; stroke-width: 1.12; stroke-linecap: square"/>
     </g>
     <g id="line2d_6"/>
     <g id="text_3">
      <!-- 2016 -->
      <g style="fill: #b1bed6" transform="translate(353.394158 330.884854) rotate(-30) scale(0.126 -0.126)">
       <defs>
        <path id="DejaVuSans-36" d="M 2113 2584 
Q 1688 2584 1439 2293 
Q 1191 2003 1191 1497 
Q 1191 994 1439 701 
Q 1688 409 2113 409 
Q 2538 409 2786 701 
Q 3034 994 3034 1497 
Q 3034 2003 2786 2293 
Q 2538 2584 2113 2584 
z
M 3366 4563 
L 3366 3988 
Q 3128 4100 2886 4159 
Q 2644 4219 2406 4219 
Q 1781 4219 1451 3797 
Q 1122 3375 1075 2522 
Q 1259 2794 1537 2939 
Q 1816 3084 2150 3084 
Q 2853 3084 3261 2657 
Q 3669 2231 3669 1497 
Q 3669 778 3244 343 
Q 2819 -91 2113 -91 
Q 1303 -91 875 529 
Q 447 1150 447 2328 
Q 447 3434 972 4092 
Q 1497 4750 2381 4750 
Q 2619 4750 2861 4703 
Q 3103 4656 3366 4563 
z
" transform="scale(0.015625)"/>
       </defs>
       <use xlink:href="#DejaVuSans-32"/>
       <use xlink:href="#DejaVuSans-30" x="63.623047"/>
       <use xlink:href="#DejaVuSans-31" x="127.246094"/>
       <use xlink:href="#DejaVuSans-36" x="190.869141"/>
      </g>
     </g>
    </g>
    <g id="xtick_4">
     <g id="line2d_7">
      <path d="M 501.434161 300.96 
L 501.434161 7.2 
" clip-path="url(#p7c1b6b8def)" style="fill: none; stroke: #546379; stroke-width: 1.12; stroke-linecap: square"/>
     </g>
     <g id="line2d_8"/>
     <g id="text_4">
      <!-- 2018 -->
      <g style="fill: #b1bed6" transform="translate(472.353121 330.884854) rotate(-30) scale(0.126 -0.126)">
       <defs>
        <path id="DejaVuSans-38" d="M 2034 2216 
Q 1584 2216 1326 1975 
Q 1069 1734 1069 1313 
Q 1069 891 1326 650 
Q 1584 409 2034 409 
Q 2484 409 2743 651 
Q 3003 894 3003 1313 
Q 3003 1734 2745 1975 
Q 2488 2216 2034 2216 
z
M 1403 2484 
Q 997 2584 770 2862 
Q 544 3141 544 3541 
Q 544 4100 942 4425 
Q 1341 4750 2034 4750 
Q 2731 4750 3128 4425 
Q 3525 4100 3525 3541 
Q 3525 3141 3298 2862 
Q 3072 2584 2669 2484 
Q 3125 2378 3379 2068 
Q 3634 1759 3634 1313 
Q 3634 634 3220 271 
Q 2806 -91 2034 -91 
Q 1263 -91 848 271 
Q 434 634 434 1313 
Q 434 1759 690 2068 
Q 947 2378 1403 2484 
z
M 1172 3481 
Q 1172 3119 1398 2916 
Q 1625 2713 2034 2713 
Q 2441 2713 2670 2916 
Q 2900 3119 2900 3481 
Q 2900 3844 2670 4047 
Q 2441 4250 2034 4250 
Q 1625 4250 1398 4047 
Q 1172 3844 1172 3481 
z
" transform="scale(0.015625)"/>
       </defs>
       <use xlink:href="#DejaVuSans-32"/>
       <use xlink:href="#DejaVuSans-30" x="63.623047"/>
       <use xlink:href="#DejaVuSans-31" x="127.246094"/>
       <use xlink:href="#DejaVuSans-38" x="190.869141"/>
      </g>
     </g>
    </g>
    <g id="xtick_5">
     <g id="line2d_9">
      <path d="M 620.230389 300.96 
L 620.230389 7.2 
" clip-path="url(#p7c1b6b8def)" style="fill: none; stroke: #546379; stroke-width: 1.12; stroke-linecap: square"/>
     </g>
     <g id="line2d_10"/>
     <g id="text_5">
      <!-- 2020 -->
      <g style="fill: #b1bed6" transform="translate(591.14935 330.884854) rotate(-30) scale(0.126 -0.126)">
       <use xlink:href="#DejaVuSans-32"/>
       <use xlink:href="#DejaVuSans-30" x="63.623047"/>
       <use xlink:href="#DejaVuSans-32" x="127.246094"/>
       <use xlink:href="#DejaVuSans-30" x="190.869141"/>
      </g>
     </g>
    </g>
    <g id="xtick_6">
     <g id="line2d_11">
      <path d="M 739.189352 300.96 
L 739.189352 7.2 
" clip-path="url(#p7c1b6b8def)" style="fill: none; stroke: #546379; stroke-width: 1.12; stroke-linecap: square"/>
     </g>
     <g id="line2d_12"/>
     <g id="text_6">
      <!-- 2022 -->
      <g style="fill: #b1bed6" transform="translate(710.108313 330.884854) rotate(-30) scale(0.126 -0.126)">
       <use xlink:href="#DejaVuSans-32"/>
       <use xlink:href="#DejaVuSans-30" x="63.623047"/>
       <use xlink:href="#DejaVuSans-32" x="127.246094"/>
       <use xlink:href="#DejaVuSans-32" x="190.869141"/>
      </g>
     </g>
    </g>
    <g id="xtick_7">
     <g id="line2d_13">
      <path d="M 857.985581 300.96 
L 857.985581 7.2 
" clip-path="url(#p7c1b6b8def)" style="fill: none; stroke: #546379; stroke-width: 1.12; stroke-linecap: square"/>
     </g>
     <g id="line2d_14"/>
     <g id="text_7">
      <!-- 2024 -->
      <g style="fill: #b1bed6" transform="translate(828.904541 330.884854) rotate(-30) scale(0.126 -0.126)">
       <use xlink:href="#DejaVuSans-32"/>
       <use xlink:href="#DejaVuSans-30" x="63.623047"/>
       <use xlink:href="#DejaVuSans-32" x="127.246094"/>
       <use xlink:href="#DejaVuSans-34" x="190.869141"/>
      </g>
     </g>
    </g>
    <g id="text_8">
     <!-- Date -->
     <g style="fill: #b1bed6" transform="translate(464.166875 348.095943) scale(0.144 -0.144)">
      <defs>
       <path id="DejaVuSans-44" d="M 1259 4147 
L 1259 519 
L 2022 519 
Q 2988 519 3436 956 
Q 3884 1394 3884 2338 
Q 3884 3275 3436 3711 
Q 2988 4147 2022 4147 
L 1259 4147 
z
M 628 4666 
L 1925 4666 
Q 3281 4666 3915 4102 
Q 4550 3538 4550 2338 
Q 4550 1131 3912 565 
Q 3275 0 1925 0 
L 628 0 
L 628 4666 
z
" transform="scale(0.015625)"/>
       <path id="DejaVuSans-61" d="M 2194 1759 
Q 1497 1759 1228 1600 
Q 959 1441 959 1056 
Q 959 750 1161 570 
Q 1363 391 1709 391 
Q 2188 391 2477 730 
Q 2766 1069 2766 1631 
L 2766 1759 
L 2194 1759 
z
M 3341 1997 
L 3341 0 
L 2766 0 
L 2766 531 
Q 2569 213 2275 61 
Q 1981 -91 1556 -91 
Q 1019 -91 701 211 
Q 384 513 384 1019 
Q 384 1609 779 1909 
Q 1175 2209 1959 2209 
L 2766 2209 
L 2766 2266 
Q 2766 2663 2505 2880 
Q 2244 3097 1772 3097 
Q 1472 3097 1187 3025 
Q 903 2953 641 2809 
L 641 3341 
Q 956 3463 1253 3523 
Q 1550 3584 1831 3584 
Q 2591 3584 2966 3190 
Q 3341 2797 3341 1997 
z
" transform="scale(0.015625)"/>
       <path id="DejaVuSans-74" d="M 1172 4494 
L 1172 3500 
L 2356 3500 
L 2356 3053 
L 1172 3053 
L 1172 1153 
Q 1172 725 1289 603 
Q 1406 481 1766 481 
L 2356 481 
L 2356 0 
L 1766 0 
Q 1100 0 847 248 
Q 594 497 594 1153 
L 594 3053 
L 172 3053 
L 172 3500 
L 594 3500 
L 594 4494 
L 1172 4494 
z
" transform="scale(0.015625)"/>
       <path id="DejaVuSans-65" d="M 3597 1894 
L 3597 1613 
L 953 1613 
Q 991 1019 1311 708 
Q 1631 397 2203 397 
Q 2534 397 2845 478 
Q 3156 559 3463 722 
L 3463 178 
Q 3153 47 2828 -22 
Q 2503 -91 2169 -91 
Q 1331 -91 842 396 
Q 353 884 353 1716 
Q 353 2575 817 3079 
Q 1281 3584 2069 3584 
Q 2775 3584 3186 3129 
Q 3597 2675 3597 1894 
z
M 3022 2063 
Q 3016 2534 2758 2815 
Q 2500 3097 2075 3097 
Q 1594 3097 1305 2825 
Q 1016 2553 972 2059 
L 3022 2063 
z
" transform="scale(0.015625)"/>
      </defs>
      <use xlink:href="#DejaVuSans-44"/>
      <use xlink:href="#DejaVuSans-61" x="77.001953"/>
      <use xlink:href="#DejaVuSans-74" x="138.28125"/>
      <use xlink:href="#DejaVuSans-65" x="177.490234"/>
     </g>
    </g>
   </g>
   <g id="matplotlib.axis_2">
    <g id="ytick_1">
     <g id="line2d_15">
      <path d="M 34.976 253.993723 
L 927.776 253.993723 
" clip-path="url(#p7c1b6b8def)" style="fill: none; stroke: #546379; stroke-width: 1.12; stroke-linecap: square"/>
     </g>
     <g id="line2d_16"/>
     <g id="text_9">
      <!-- $\mathdefault{10^{0}}$ -->
      <g style="fill: #b1bed6" transform="translate(7.2 258.780739) scale(0.126 -0.126)">
       <use xlink:href="#DejaVuSans-31" transform="translate(0 0.765625)"/>
       <use xlink:href="#DejaVuSans-30" transform="translate(63.623047 0.765625)"/>
       <use xlink:href="#DejaVuSans-30" transform="translate(128.203125 39.046875) scale(0.7)"/>
      </g>
     </g>
    </g>
    <g id="ytick_2">
     <g id="line2d_17">
      <path d="M 34.976 205.903607 
L 927.776 205.903607 
" clip-path="url(#p7c1b6b8def)" style="fill: none; stroke: #546379; stroke-width: 1.12; stroke-linecap: square"/>
     </g>
     <g id="line2d_18"/>
     <g id="text_10">
      <!-- $\mathdefault{10^{1}}$ -->
      <g style="fill: #b1bed6" transform="translate(7.2 210.690622) scale(0.126 -0.126)">
       <use xlink:href="#DejaVuSans-31" transform="translate(0 0.684375)"/>
       <use xlink:href="#DejaVuSans-30" transform="translate(63.623047 0.684375)"/>
       <use xlink:href="#DejaVuSans-31" transform="translate(128.203125 38.965625) scale(0.7)"/>
      </g>
     </g>
    </g>
    <g id="ytick_3">
     <g id="line2d_19">
      <path d="M 34.976 157.81349 
L 927.776 157.81349 
" clip-path="url(#p7c1b6b8def)" style="fill: none; stroke: #546379; stroke-width: 1.12; stroke-linecap: square"/>
     </g>
     <g id="line2d_20"/>
     <g id="text_11">
      <!-- $\mathdefault{10^{2}}$ -->
      <g style="fill: #b1bed6" transform="translate(7.2 162.600505) scale(0.126 -0.126)">
       <use xlink:href="#DejaVuSans-31" transform="translate(0 0.765625)"/>
       <use xlink:href="#DejaVuSans-30" transform="translate(63.623047 0.765625)"/>
       <use xlink:href="#DejaVuSans-32" transform="translate(128.203125 39.046875) scale(0.7)"/>
      </g>
     </g>
    </g>
    <g id="ytick_4">
     <g id="line2d_21">
      <path d="M 34.976 109.723373 
L 927.776 109.723373 
" clip-path="url(#p7c1b6b8def)" style="fill: none; stroke: #546379; stroke-width: 1.12; stroke-linecap: square"/>
     </g>
     <g id="line2d_22"/>
     <g id="text_12">
      <!-- $\mathdefault{10^{3}}$ -->
      <g style="fill: #b1bed6" transform="translate(7.2 114.510388) scale(0.126 -0.126)">
       <defs>
        <path id="DejaVuSans-33" d="M 2597 2516 
Q 3050 2419 3304 2112 
Q 3559 1806 3559 1356 
Q 3559 666 3084 287 
Q 2609 -91 1734 -91 
Q 1441 -91 1130 -33 
Q 819 25 488 141 
L 488 750 
Q 750 597 1062 519 
Q 1375 441 1716 441 
Q 2309 441 2620 675 
Q 2931 909 2931 1356 
Q 2931 1769 2642 2001 
Q 2353 2234 1838 2234 
L 1294 2234 
L 1294 2753 
L 1863 2753 
Q 2328 2753 2575 2939 
Q 2822 3125 2822 3475 
Q 2822 3834 2567 4026 
Q 2313 4219 1838 4219 
Q 1578 4219 1281 4162 
Q 984 4106 628 3988 
L 628 4550 
Q 988 4650 1302 4700 
Q 1616 4750 1894 4750 
Q 2613 4750 3031 4423 
Q 3450 4097 3450 3541 
Q 3450 3153 3228 2886 
Q 3006 2619 2597 2516 
z
" transform="scale(0.015625)"/>
       </defs>
       <use xlink:href="#DejaVuSans-31" transform="translate(0 0.765625)"/>
       <use xlink:href="#DejaVuSans-30" transform="translate(63.623047 0.765625)"/>
       <use xlink:href="#DejaVuSans-33" transform="translate(128.203125 39.046875) scale(0.7)"/>
      </g>
     </g>
    </g>
    <g id="ytick_5">
     <g id="line2d_23">
      <path d="M 34.976 61.633256 
L 927.776 61.633256 
" clip-path="url(#p7c1b6b8def)" style="fill: none; stroke: #546379; stroke-width: 1.12; stroke-linecap: square"/>
     </g>
     <g id="line2d_24"/>
     <g id="text_13">
      <!-- $\mathdefault{10^{4}}$ -->
      <g style="fill: #b1bed6" transform="translate(7.2 66.420271) scale(0.126 -0.126)">
       <use xlink:href="#DejaVuSans-31" transform="translate(0 0.684375)"/>
       <use xlink:href="#DejaVuSans-30" transform="translate(63.623047 0.684375)"/>
       <use xlink:href="#DejaVuSans-34" transform="translate(128.203125 38.965625) scale(0.7)"/>
      </g>
     </g>
    </g>
    <g id="ytick_6">
     <g id="line2d_25">
      <path d="M 34.976 13.543139 
L 927.776 13.543139 
" clip-path="url(#p7c1b6b8def)" style="fill: none; stroke: #546379; stroke-width: 1.12; stroke-linecap: square"/>
     </g>
     <g id="line2d_26"/>
     <g id="text_14">
      <!-- $\mathdefault{10^{5}}$ -->
      <g style="fill: #b1bed6" transform="translate(7.2 18.330154) scale(0.126 -0.126)">
       <defs>
        <path id="DejaVuSans-35" d="M 691 4666 
L 3169 4666 
L 3169 4134 
L 1269 4134 
L 1269 2991 
Q 1406 3038 1543 3061 
Q 1681 3084 1819 3084 
Q 2600 3084 3056 2656 
Q 3513 2228 3513 1497 
Q 3513 744 3044 326 
Q 2575 -91 1722 -91 
Q 1428 -91 1123 -41 
Q 819 9 494 109 
L 494 744 
Q 775 591 1075 516 
Q 1375 441 1709 441 
Q 2250 441 2565 725 
Q 2881 1009 2881 1497 
Q 2881 1984 2565 2268 
Q 2250 2553 1709 2553 
Q 1456 2553 1204 2497 
Q 953 2441 691 2322 
L 691 4666 
z
" transform="scale(0.015625)"/>
       </defs>
       <use xlink:href="#DejaVuSans-31" transform="translate(0 0.684375)"/>
       <use xlink:href="#DejaVuSans-30" transform="translate(63.623047 0.684375)"/>
       <use xlink:href="#DejaVuSans-35" transform="translate(128.203125 38.965625) scale(0.7)"/>
      </g>
     </g>
    </g>
    <g id="ytick_7">
     <g id="line2d_27"/>
    </g>
    <g id="ytick_8">
     <g id="line2d_28"/>
    </g>
    <g id="ytick_9">
     <g id="line2d_29"/>
    </g>
    <g id="ytick_10">
     <g id="line2d_30"/>
    </g>
    <g id="ytick_11">
     <g id="line2d_31"/>
    </g>
    <g id="ytick_12">
     <g id="line2d_32"/>
    </g>
    <g id="ytick_13">
     <g id="line2d_33"/>
    </g>
    <g id="ytick_14">
     <g id="line2d_34"/>
    </g>
    <g id="ytick_15">
     <g id="line2d_35"/>
    </g>
    <g id="ytick_16">
     <g id="line2d_36"/>
    </g>
    <g id="ytick_17">
     <g id="line2d_37"/>
    </g>
    <g id="ytick_18">
     <g id="line2d_38"/>
    </g>
    <g id="ytick_19">
     <g id="line2d_39"/>
    </g>
    <g id="ytick_20">
     <g id="line2d_40"/>
    </g>
    <g id="ytick_21">
     <g id="line2d_41"/>
    </g>
    <g id="ytick_22">
     <g id="line2d_42"/>
    </g>
    <g id="ytick_23">
     <g id="line2d_43"/>
    </g>
    <g id="ytick_24">
     <g id="line2d_44"/>
    </g>
    <g id="ytick_25">
     <g id="line2d_45"/>
    </g>
    <g id="ytick_26">
     <g id="line2d_46"/>
    </g>
    <g id="ytick_27">
     <g id="line2d_47"/>
    </g>
    <g id="ytick_28">
     <g id="line2d_48"/>
    </g>
    <g id="ytick_29">
     <g id="line2d_49"/>
    </g>
    <g id="ytick_30">
     <g id="line2d_50"/>
    </g>
    <g id="ytick_31">
     <g id="line2d_51"/>
    </g>
    <g id="ytick_32">
     <g id="line2d_52"/>
    </g>
    <g id="ytick_33">
     <g id="line2d_53"/>
    </g>
    <g id="ytick_34">
     <g id="line2d_54"/>
    </g>
    <g id="ytick_35">
     <g id="line2d_55"/>
    </g>
    <g id="ytick_36">
     <g id="line2d_56"/>
    </g>
    <g id="ytick_37">
     <g id="line2d_57"/>
    </g>
    <g id="ytick_38">
     <g id="line2d_58"/>
    </g>
    <g id="ytick_39">
     <g id="line2d_59"/>
    </g>
    <g id="ytick_40">
     <g id="line2d_60"/>
    </g>
    <g id="ytick_41">
     <g id="line2d_61"/>
    </g>
    <g id="ytick_42">
     <g id="line2d_62"/>
    </g>
    <g id="ytick_43">
     <g id="line2d_63"/>
    </g>
    <g id="ytick_44">
     <g id="line2d_64"/>
    </g>
    <g id="ytick_45">
     <g id="line2d_65"/>
    </g>
    <g id="ytick_46">
     <g id="line2d_66"/>
    </g>
    <g id="ytick_47">
     <g id="line2d_67"/>
    </g>
    <g id="ytick_48">
     <g id="line2d_68"/>
    </g>
    <g id="ytick_49">
     <g id="line2d_69"/>
    </g>
    <g id="ytick_50">
     <g id="line2d_70"/>
    </g>
    <g id="ytick_51">
     <g id="line2d_71"/>
    </g>
    <g id="ytick_52">
     <g id="line2d_72"/>
    </g>
    <g id="ytick_53">
     <g id="line2d_73"/>
    </g>
    <g id="ytick_54">
     <g id="line2d_74"/>
    </g>
   </g>
   <g id="line2d_75">
    <path d="M 75.557818 287.607273 
L 75.557818 282.946859 
L 76.208756 282.946859 
L 76.208756 277.791119 
L 76.859695 277.791119 
L 76.859695 279.139023 
L 77.510633 279.139023 
L 77.510633 280.579958 
L 78.161571 280.579958 
L 78.161571 279.847067 
L 78.812509 279.847067 
L 78.812509 280.579958 
L 80.114386 280.579958 
L 80.114386 282.127724 
L 80.765324 282.127724 
L 80.765324 284.688306 
L 82.067201 284.688306 
L 82.067201 282.946859 
L 82.718139 282.946859 
L 82.718139 282.127724 
L 83.369077 282.127724 
L 83.369077 282.946859 
L 84.020015 282.946859 
L 84.020015 281.339507 
L 84.670954 281.339507 
L 84.670954 279.139023 
L 85.97283 279.139023 
L 85.97283 277.791119 
L 86.623768 277.791119 
L 86.623768 275.331188 
L 87.274706 275.331188 
L 87.274706 273.130705 
L 87.925645 273.130705 
L 87.925645 274.201979 
L 88.576583 274.201979 
L 88.576583 271.140126 
L 89.227521 271.140126 
L 89.227521 270.670774 
L 89.878459 270.670774 
L 89.878459 255.735171 
L 91.180336 255.735171 
L 91.180336 254.629872 
L 91.831274 254.629872 
L 91.831274 252.386371 
L 92.482212 252.386371 
L 92.482212 252.974728 
L 93.133151 252.974728 
L 93.133151 256.663558 
L 93.784089 256.663558 
L 93.784089 253.993723 
L 94.435027 253.993723 
L 94.435027 254.629872 
L 95.085965 254.629872 
L 95.085965 255.735171 
L 95.736904 255.735171 
L 95.736904 256.663558 
L 96.387842 256.663558 
L 96.387842 255.963428 
L 97.03878 255.963428 
L 97.03878 256.90225 
L 97.689718 256.90225 
L 97.689718 258.916849 
L 98.340657 258.916849 
L 98.340657 256.427564 
L 98.991595 256.427564 
L 98.991595 258.654137 
L 100.293471 258.654137 
L 100.293471 260.002042 
L 100.944409 260.002042 
L 100.944409 259.725412 
L 101.595348 259.725412 
L 101.595348 254.415663 
L 102.246286 254.415663 
L 102.246286 250.185888 
L 102.897224 250.185888 
L 102.897224 247.266922 
L 103.548162 247.266922 
L 103.548162 241.950996 
L 104.199101 241.950996 
L 104.199101 224.322105 
L 104.850039 224.322105 
L 104.850039 227.474429 
L 105.500977 227.474429 
L 105.500977 225.515874 
L 106.151915 225.515874 
L 106.151915 214.740584 
L 106.802854 214.740584 
L 106.802854 209.371702 
L 107.453792 209.371702 
L 107.453792 213.412618 
L 108.10473 213.412618 
L 108.10473 212.562433 
L 108.755668 212.562433 
L 108.755668 208.8602 
L 109.406607 208.8602 
L 109.406607 206.604449 
L 110.057545 206.604449 
L 110.057545 192.443424 
L 110.708483 192.443424 
L 110.708483 181.39015 
L 111.359421 181.39015 
L 111.359421 187.917194 
L 112.01036 187.917194 
L 112.01036 192.641704 
L 112.661298 192.641704 
L 112.661298 196.899279 
L 113.312236 196.899279 
L 113.312236 194.12062 
L 113.963174 194.12062 
L 113.963174 194.395667 
L 114.614113 194.395667 
L 114.614113 196.429626 
L 115.265051 196.429626 
L 115.265051 195.957326 
L 115.915989 195.957326 
L 115.915989 197.338119 
L 116.566927 197.338119 
L 116.566927 198.506632 
L 117.217865 198.506632 
L 117.217865 198.085865 
L 117.868804 198.085865 
L 117.868804 198.98098 
L 118.519742 198.98098 
L 118.519742 198.727642 
L 119.17068 198.727642 
L 119.17068 198.028488 
L 119.821618 198.028488 
L 119.821618 202.98464 
L 120.472557 202.98464 
L 120.472557 206.626058 
L 121.123495 206.626058 
L 121.123495 206.050318 
L 121.774433 206.050318 
L 121.774433 203.240456 
L 122.425371 203.240456 
L 122.425371 202.535477 
L 123.07631 202.535477 
L 123.07631 203.351058 
L 123.727248 203.351058 
L 123.727248 207.018896 
L 124.378186 207.018896 
L 124.378186 209.396374 
L 125.029124 209.396374 
L 125.029124 209.870776 
L 125.680063 209.870776 
L 125.680063 214.08149 
L 126.331001 214.08149 
L 126.331001 215.921228 
L 126.981939 215.921228 
L 126.981939 220.2968 
L 127.632877 220.2968 
L 127.632877 215.954995 
L 128.283816 215.954995 
L 128.283816 218.427603 
L 128.934754 218.427603 
L 128.934754 220.632313 
L 129.585692 220.632313 
L 129.585692 220.131043 
L 130.23663 220.131043 
L 130.23663 221.276309 
L 130.887568 221.276309 
L 130.887568 224.221453 
L 131.538507 224.221453 
L 131.538507 224.98844 
L 132.189445 224.98844 
L 132.189445 234.118089 
L 132.840383 234.118089 
L 132.840383 228.932132 
L 133.491321 228.932132 
L 133.491321 230.364082 
L 134.14226 230.364082 
L 134.14226 228.558057 
L 134.793198 228.558057 
L 134.793198 229.570875 
L 135.444136 229.570875 
L 135.444136 229.766371 
L 136.095074 229.766371 
L 136.095074 230.296819 
L 136.746013 230.296819 
L 136.746013 234.037607 
L 137.396951 234.037607 
L 137.396951 235.278681 
L 138.047889 235.278681 
L 138.047889 235.024496 
L 138.698827 235.024496 
L 138.698827 233.718741 
L 139.349766 233.718741 
L 139.349766 230.096319 
L 140.000704 230.096319 
L 140.000704 230.635323 
L 140.651642 230.635323 
L 140.651642 230.229771 
L 141.30258 230.229771 
L 141.30258 229.313029 
L 141.953519 229.313029 
L 141.953519 228.682006 
L 142.604457 228.682006 
L 142.604457 225.145276 
L 143.255395 225.145276 
L 143.255395 223.774426 
L 143.906333 223.774426 
L 143.906333 222.720359 
L 144.557271 222.720359 
L 144.557271 218.889175 
L 145.20821 218.889175 
L 145.20821 213.174606 
L 145.859148 213.174606 
L 145.859148 213.05661 
L 146.510086 213.05661 
L 146.510086 213.233855 
L 147.161024 213.233855 
L 147.161024 215.322564 
L 147.811963 215.322564 
L 147.811963 214.997242 
L 148.462901 214.997242 
L 148.462901 217.643613 
L 149.113839 217.643613 
L 149.113839 217.827626 
L 149.764777 217.827626 
L 149.764777 216.607177 
L 150.415716 216.607177 
L 150.415716 217.13684 
L 151.717592 217.208488 
L 151.717592 221.495464 
L 152.36853 221.495464 
L 152.36853 222.580657 
L 153.019469 222.580657 
L 153.019469 219.68188 
L 153.670407 219.68188 
L 153.670407 220.463883 
L 154.321345 220.463883 
L 154.321345 221.189287 
L 154.972283 221.189287 
L 154.972283 220.172359 
L 155.623222 220.172359 
L 155.623222 220.463883 
L 156.27416 220.463883 
L 156.27416 218.618686 
L 156.925098 218.618686 
L 156.925098 219.440893 
L 157.576036 219.440893 
L 157.576036 221.189287 
L 158.226974 221.189287 
L 158.226974 221.363695 
L 158.877913 221.363695 
L 158.877913 220.632313 
L 160.179789 220.547928 
L 160.179789 221.232753 
L 160.830727 221.232753 
L 160.830727 220.505863 
L 162.132604 220.421987 
L 162.132604 219.400998 
L 162.783542 219.400998 
L 162.783542 219.601242 
L 163.43448 219.601242 
L 163.43448 220.007583 
L 164.085419 220.007583 
L 164.085419 219.641522 
L 164.736357 219.641522 
L 164.736357 219.966591 
L 166.038233 219.966591 
L 166.038233 220.172359 
L 166.689172 220.172359 
L 166.689172 219.844096 
L 168.641986 219.762831 
L 168.641986 219.641522 
L 169.292925 219.641522 
L 169.292925 219.281767 
L 169.943863 219.281767 
L 169.943863 218.16299 
L 171.245739 218.087998 
L 171.245739 215.653034 
L 171.896678 215.653034 
L 171.896678 214.708722 
L 172.547616 214.708722 
L 172.547616 214.455564 
L 173.198554 214.455564 
L 173.198554 214.645145 
L 173.849492 214.645145 
L 173.849492 214.236541 
L 174.50043 214.236541 
L 174.50043 214.08149 
L 175.151369 214.08149 
L 175.151369 213.412618 
L 175.802307 213.412618 
L 175.802307 210.959337 
L 176.453245 210.959337 
L 176.453245 207.040939 
L 177.104183 207.040939 
L 177.104183 206.909031 
L 177.755122 206.909031 
L 177.755122 208.573441 
L 178.40606 208.573441 
L 178.40606 208.220442 
L 179.056998 208.220442 
L 179.056998 205.654475 
L 179.707936 205.654475 
L 179.707936 203.480838 
L 180.358875 203.480838 
L 180.358875 202.803814 
L 181.009813 202.803814 
L 181.009813 201.580059 
L 181.660751 201.580059 
L 181.660751 198.172228 
L 182.311689 198.172228 
L 182.311689 205.367529 
L 182.962628 205.367529 
L 182.962628 203.932023 
L 183.613566 203.932023 
L 183.613566 204.08461 
L 184.264504 204.08461 
L 184.264504 204.844867 
L 184.915442 204.844867 
L 184.915442 203.406579 
L 186.217319 203.462249 
L 186.217319 202.376115 
L 186.868257 202.376115 
L 186.868257 201.027108 
L 187.519195 201.027108 
L 187.519195 201.614047 
L 188.170133 201.614047 
L 188.170133 201.310133 
L 188.821072 201.310133 
L 188.821072 201.109953 
L 189.47201 201.109953 
L 189.47201 200.47231 
L 190.122948 200.47231 
L 190.122948 201.580059 
L 190.773886 201.580059 
L 190.773886 201.922448 
L 191.424825 201.922448 
L 191.424825 202.130609 
L 192.075763 202.130609 
L 192.075763 202.446792 
L 192.726701 202.446792 
L 192.726701 202.875957 
L 193.377639 202.875957 
L 193.377639 204.046358 
L 194.028578 204.046358 
L 194.028578 203.799417 
L 194.679516 203.799417 
L 194.679516 203.970065 
L 195.981392 204.008177 
L 195.981392 203.780542 
L 196.632331 203.780542 
L 196.632331 202.411424 
L 197.283269 202.411424 
L 197.283269 201.546127 
L 197.934207 201.546127 
L 197.934207 201.04365 
L 199.236084 200.977558 
L 199.236084 200.279965 
L 199.887022 200.279965 
L 199.887022 199.55863 
L 200.53796 199.55863 
L 200.53796 199.176805 
L 201.188898 199.176805 
L 201.188898 199.435685 
L 202.490775 199.328698 
L 202.490775 199.713337 
L 203.141713 199.713337 
L 203.141713 199.405062 
L 203.792651 199.405062 
L 203.792651 199.604922 
L 205.094528 199.57405 
L 205.094528 198.891216 
L 205.745466 198.891216 
L 205.745466 198.418878 
L 206.396404 198.418878 
L 206.396404 196.710149 
L 207.047342 196.710149 
L 207.047342 194.662188 
L 207.698281 194.662188 
L 207.698281 193.010178 
L 208.349219 193.010178 
L 208.349219 191.65805 
L 209.000157 191.65805 
L 209.000157 190.408043 
L 209.651095 190.408043 
L 209.651095 189.88748 
L 210.302034 189.88748 
L 210.302034 187.645326 
L 210.952972 187.645326 
L 210.952972 185.005137 
L 211.60391 185.005137 
L 211.60391 185.174749 
L 212.254848 185.174749 
L 212.254848 182.59988 
L 212.905787 182.59988 
L 212.905787 182.139654 
L 213.556725 182.139654 
L 213.556725 180.191717 
L 214.207663 180.191717 
L 214.207663 175.931475 
L 214.858601 175.931475 
L 214.858601 174.21391 
L 215.509539 174.21391 
L 215.509539 173.644646 
L 216.160478 173.644646 
L 216.160478 171.422781 
L 216.811416 171.422781 
L 216.811416 165.188286 
L 217.462354 165.188286 
L 217.462354 162.792206 
L 218.113292 162.792206 
L 218.113292 159.441738 
L 218.764231 159.441738 
L 218.764231 152.173899 
L 219.415169 152.173899 
L 219.415169 147.570959 
L 220.066107 147.570959 
L 220.066107 153.169791 
L 220.717045 153.169791 
L 220.717045 165.837464 
L 221.367984 165.837464 
L 221.367984 154.194473 
L 222.018922 154.194473 
L 222.018922 150.416515 
L 222.66986 150.416515 
L 222.66986 152.576325 
L 223.320798 152.576325 
L 223.320798 154.534423 
L 223.971737 154.534423 
L 223.971737 154.717299 
L 224.622675 154.717299 
L 224.622675 155.318316 
L 225.273613 155.318316 
L 225.273613 154.358445 
L 225.924551 154.358445 
L 225.924551 153.435677 
L 227.226428 153.540944 
L 227.226428 152.016657 
L 228.528304 151.967662 
L 228.528304 153.588659 
L 229.179243 153.588659 
L 229.179243 154.185693 
L 229.830181 154.185693 
L 229.830181 156.576834 
L 230.481119 156.576834 
L 230.481119 157.817667 
L 231.132057 157.817667 
L 231.132057 156.324435 
L 231.782995 156.324435 
L 231.782995 156.138563 
L 232.433934 156.138563 
L 232.433934 156.994354 
L 233.084872 156.994354 
L 233.084872 158.39588 
L 233.73581 158.39588 
L 233.73581 162.463463 
L 234.386748 162.463463 
L 234.386748 163.410955 
L 235.037687 163.410955 
L 235.037687 159.107996 
L 235.688625 159.107996 
L 235.688625 158.438876 
L 236.339563 158.438876 
L 236.339563 160.15601 
L 236.990501 160.15601 
L 236.990501 158.992767 
L 237.64144 158.992767 
L 237.64144 158.086778 
L 238.292378 158.086778 
L 238.292378 156.870216 
L 238.943316 156.870216 
L 238.943316 156.455145 
L 239.594254 156.455145 
L 239.594254 157.236739 
L 240.245193 157.236739 
L 240.245193 155.94669 
L 240.896131 155.94669 
L 240.896131 157.874145 
L 241.547069 157.874145 
L 241.547069 155.741427 
L 242.198007 155.741427 
L 242.198007 155.209254 
L 242.848946 155.209254 
L 242.848946 154.268365 
L 243.499884 154.268365 
L 243.499884 152.319486 
L 244.150822 152.319486 
L 244.150822 154.425817 
L 244.80176 154.425817 
L 244.80176 153.657012 
L 245.452698 153.657012 
L 245.452698 153.31241 
L 246.103637 153.31241 
L 246.103637 152.801832 
L 246.754575 152.801832 
L 246.754575 153.501832 
L 247.405513 153.501832 
L 247.405513 153.211636 
L 248.056451 153.211636 
L 248.056451 152.94526 
L 248.70739 152.94526 
L 248.70739 153.670709 
L 249.358328 153.670709 
L 249.358328 153.300628 
L 250.009266 153.300628 
L 250.009266 152.724755 
L 250.660204 152.724755 
L 250.660204 151.057953 
L 251.311143 151.057953 
L 251.311143 144.839111 
L 251.962081 144.839111 
L 251.962081 143.830377 
L 252.613019 143.830377 
L 252.613019 142.628531 
L 253.263957 142.628531 
L 253.263957 143.025969 
L 253.914896 143.025969 
L 253.914896 138.46125 
L 254.565834 138.46125 
L 254.565834 132.878094 
L 255.216772 132.878094 
L 255.216772 129.229082 
L 255.86771 129.229082 
L 255.86771 125.271215 
L 256.518649 125.271215 
L 256.518649 116.678174 
L 257.169587 116.678174 
L 257.169587 114.007092 
L 257.820525 114.007092 
L 257.820525 107.097945 
L 258.471463 107.097945 
L 258.471463 108.7002 
L 259.122401 108.7002 
L 259.122401 116.997035 
L 259.77334 116.997035 
L 259.77334 112.467387 
L 260.424278 112.467387 
L 260.424278 112.801105 
L 261.075216 112.801105 
L 261.075216 117.615887 
L 261.726154 117.615887 
L 261.726154 118.401842 
L 262.377093 118.401842 
L 262.377093 116.469138 
L 263.028031 116.469138 
L 263.028031 116.239051 
L 263.678969 116.239051 
L 263.678969 113.646646 
L 264.329907 113.646646 
L 264.329907 113.784193 
L 264.980846 113.784193 
L 264.980846 113.264583 
L 265.631784 113.264583 
L 265.631784 113.94079 
L 266.282722 113.94079 
L 266.282722 113.670096 
L 266.93366 113.670096 
L 266.93366 114.91202 
L 267.584599 114.91202 
L 267.584599 114.763146 
L 268.235537 114.763146 
L 268.235537 113.942579 
L 268.886475 113.942579 
L 268.886475 114.885797 
L 269.537413 114.885797 
L 269.537413 117.552897 
L 270.188352 117.552897 
L 270.188352 120.046886 
L 270.83929 120.046886 
L 270.83929 119.374435 
L 271.490228 119.374435 
L 271.490228 121.11816 
L 272.141166 121.11816 
L 272.141166 121.850949 
L 272.792104 121.850949 
L 272.792104 121.555919 
L 273.443043 121.555919 
L 273.443043 118.065647 
L 274.093981 118.065647 
L 274.093981 119.047464 
L 275.395857 119.011267 
L 275.395857 119.549219 
L 276.046796 119.549219 
L 276.046796 121.357755 
L 276.697734 121.357755 
L 276.697734 120.892689 
L 277.348672 120.892689 
L 277.348672 124.621879 
L 277.99961 124.621879 
L 277.99961 126.911587 
L 278.650549 126.911587 
L 278.650549 126.032391 
L 279.301487 126.032391 
L 279.301487 130.545125 
L 279.952425 130.545125 
L 279.952425 125.957739 
L 280.603363 125.957739 
L 280.603363 124.960912 
L 281.254302 124.960912 
L 281.254302 124.685057 
L 281.90524 124.685057 
L 281.90524 125.8743 
L 282.556178 125.8743 
L 282.556178 126.306419 
L 283.207116 126.306419 
L 283.207116 127.024614 
L 284.508993 126.983529 
L 284.508993 126.753805 
L 285.159931 126.753805 
L 285.159931 126.441306 
L 285.810869 126.441306 
L 285.810869 124.702165 
L 286.461808 124.702165 
L 286.461808 123.0655 
L 287.112746 123.0655 
L 287.112746 121.06417 
L 287.763684 121.06417 
L 287.763684 119.349585 
L 288.414622 119.349585 
L 288.414622 118.354745 
L 289.06556 118.354745 
L 289.06556 118.758662 
L 289.716499 118.758662 
L 289.716499 120.68833 
L 290.367437 120.68833 
L 290.367437 120.115475 
L 291.018375 120.115475 
L 291.018375 120.709171 
L 291.669313 120.709171 
L 291.669313 121.804715 
L 292.320252 121.804715 
L 292.320252 120.392453 
L 292.97119 120.392453 
L 292.97119 118.870338 
L 293.622128 118.870338 
L 293.622128 119.561258 
L 294.273066 119.561258 
L 294.273066 119.240923 
L 294.924005 119.240923 
L 294.924005 119.570627 
L 295.574943 119.570627 
L 295.574943 119.373109 
L 296.225881 119.373109 
L 296.225881 119.692801 
L 296.876819 119.692801 
L 296.876819 120.613263 
L 297.527758 120.613263 
L 297.527758 121.026818 
L 298.178696 121.026818 
L 298.178696 120.796292 
L 299.480572 120.779264 
L 299.480572 121.499685 
L 300.131511 121.499685 
L 300.131511 123.225547 
L 300.782449 123.225547 
L 300.782449 123.428252 
L 301.433387 123.428252 
L 301.433387 123.867188 
L 302.735263 123.925646 
L 302.735263 125.211502 
L 303.386202 125.211502 
L 303.386202 124.796939 
L 304.03714 124.796939 
L 304.03714 125.34389 
L 304.688078 125.34389 
L 304.688078 125.186964 
L 305.339016 125.186964 
L 305.339016 126.220198 
L 305.989955 126.220198 
L 305.989955 128.800395 
L 306.640893 128.800395 
L 306.640893 128.334966 
L 307.291831 128.334966 
L 307.291831 130.271288 
L 307.942769 130.271288 
L 307.942769 131.124751 
L 308.593708 131.124751 
L 308.593708 132.622709 
L 309.244646 132.622709 
L 309.244646 130.948014 
L 309.895584 130.948014 
L 309.895584 129.131527 
L 310.546522 129.131527 
L 310.546522 129.419134 
L 311.197461 129.419134 
L 311.197461 131.223913 
L 311.848399 131.223913 
L 311.848399 131.595558 
L 312.499337 131.595558 
L 312.499337 132.390804 
L 313.150275 132.390804 
L 313.150275 132.863542 
L 313.801214 132.863542 
L 313.801214 131.832594 
L 314.452152 131.832594 
L 314.452152 127.831912 
L 315.10309 127.831912 
L 315.10309 129.396086 
L 315.754028 129.396086 
L 315.754028 131.26664 
L 316.404966 131.26664 
L 316.404966 130.231663 
L 317.055905 130.231663 
L 317.055905 130.098275 
L 317.706843 130.098275 
L 317.706843 129.952524 
L 318.357781 129.952524 
L 318.357781 130.205474 
L 319.008719 130.205474 
L 319.008719 131.721522 
L 319.659658 131.721522 
L 319.659658 131.188861 
L 320.310596 131.188861 
L 320.310596 134.03214 
L 320.961534 134.03214 
L 320.961534 132.753156 
L 321.612472 132.753156 
L 321.612472 132.881891 
L 322.263411 132.881891 
L 322.263411 134.116585 
L 322.914349 134.116585 
L 322.914349 135.933353 
L 323.565287 135.933353 
L 323.565287 135.009075 
L 324.216225 135.009075 
L 324.216225 137.093923 
L 324.867164 137.093923 
L 324.867164 142.297051 
L 325.518102 142.297051 
L 325.518102 141.728603 
L 326.16904 141.728603 
L 326.16904 140.083755 
L 326.819978 140.083755 
L 326.819978 137.576515 
L 327.470917 137.576515 
L 327.470917 141.417664 
L 328.121855 141.417664 
L 328.121855 140.718863 
L 328.772793 140.718863 
L 328.772793 140.976549 
L 329.423731 140.976549 
L 329.423731 141.126312 
L 330.074669 141.126312 
L 330.074669 140.013277 
L 330.725608 140.013277 
L 330.725608 139.032061 
L 331.376546 139.032061 
L 331.376546 139.534308 
L 332.027484 139.534308 
L 332.027484 138.386142 
L 332.678422 138.386142 
L 332.678422 137.064515 
L 333.329361 137.064515 
L 333.329361 136.685929 
L 333.980299 136.685929 
L 333.980299 135.226775 
L 334.631237 135.226775 
L 334.631237 135.628633 
L 335.282175 135.628633 
L 335.282175 137.689362 
L 335.933114 137.689362 
L 335.933114 139.098447 
L 336.584052 139.098447 
L 336.584052 138.430679 
L 337.23499 138.430679 
L 337.23499 138.971815 
L 337.885928 138.971815 
L 337.885928 137.815644 
L 338.536867 137.815644 
L 338.536867 139.269639 
L 339.187805 139.269639 
L 339.187805 141.062531 
L 340.489681 141.097211 
L 340.489681 139.893386 
L 341.14062 139.893386 
L 341.14062 140.757591 
L 342.442496 140.81952 
L 342.442496 139.575259 
L 343.093434 139.575259 
L 343.093434 139.777703 
L 343.744373 139.777703 
L 343.744373 139.446579 
L 344.395311 139.446579 
L 344.395311 139.759217 
L 345.046249 139.759217 
L 345.046249 140.291213 
L 345.697187 140.291213 
L 345.697187 139.724931 
L 346.348125 139.724931 
L 346.348125 139.94126 
L 346.999064 139.94126 
L 346.999064 140.569239 
L 347.650002 140.569239 
L 347.650002 141.07471 
L 348.30094 141.07471 
L 348.30094 140.631529 
L 348.951878 140.631529 
L 348.951878 140.454309 
L 349.602817 140.454309 
L 349.602817 138.678179 
L 350.253755 138.678179 
L 350.253755 139.119769 
L 350.904693 139.119769 
L 350.904693 139.511689 
L 351.555631 139.511689 
L 351.555631 138.796315 
L 352.20657 138.796315 
L 352.20657 138.28915 
L 352.857508 138.28915 
L 352.857508 137.183175 
L 353.508446 137.183175 
L 353.508446 135.94581 
L 354.159384 135.94581 
L 354.159384 135.727053 
L 354.810323 135.727053 
L 354.810323 136.554198 
L 356.112199 136.461577 
L 356.112199 135.374606 
L 356.763137 135.374606 
L 356.763137 135.688643 
L 357.414076 135.688643 
L 357.414076 136.226233 
L 358.065014 136.226233 
L 358.065014 136.360391 
L 358.715952 136.360391 
L 358.715952 136.993487 
L 359.36689 136.993487 
L 359.36689 137.742818 
L 360.017828 137.742818 
L 360.017828 140.761283 
L 360.668767 140.761283 
L 360.668767 140.587541 
L 361.319705 140.587541 
L 361.319705 140.866783 
L 361.970643 140.866783 
L 361.970643 140.395267 
L 363.27252 140.351773 
L 363.27252 139.1659 
L 363.923458 139.1659 
L 363.923458 139.992802 
L 364.574396 139.992802 
L 364.574396 140.570154 
L 365.225334 140.570154 
L 365.225334 140.403432 
L 365.876273 140.403432 
L 365.876273 140.057856 
L 366.527211 140.057856 
L 366.527211 139.60406 
L 367.178149 139.60406 
L 367.178149 139.724053 
L 367.829087 139.724053 
L 367.829087 138.945565 
L 369.130964 139.03716 
L 369.130964 138.471174 
L 369.781902 138.471174 
L 369.781902 137.773998 
L 370.43284 137.773998 
L 370.43284 136.735353 
L 371.083779 136.735353 
L 371.083779 135.816467 
L 371.734717 135.816467 
L 371.734717 132.994234 
L 372.385655 132.994234 
L 372.385655 128.626707 
L 373.036593 128.626707 
L 373.036593 129.549321 
L 373.687531 129.549321 
L 373.687531 134.252681 
L 374.33847 134.252681 
L 374.33847 133.588101 
L 374.989408 133.588101 
L 374.989408 133.139203 
L 375.640346 133.139203 
L 375.640346 133.294867 
L 376.291284 133.294867 
L 376.291284 131.17719 
L 376.942223 131.17719 
L 376.942223 130.911693 
L 377.593161 130.911693 
L 377.593161 129.553099 
L 378.244099 129.553099 
L 378.244099 128.016633 
L 378.895037 128.016633 
L 378.895037 127.185909 
L 379.545976 127.185909 
L 379.545976 126.097245 
L 380.196914 126.097245 
L 380.196914 126.948242 
L 380.847852 126.948242 
L 380.847852 126.146706 
L 381.49879 126.146706 
L 381.49879 127.193621 
L 382.800667 127.216292 
L 382.800667 127.385891 
L 383.451605 127.385891 
L 383.451605 126.473417 
L 384.102543 126.473417 
L 384.102543 127.371786 
L 384.753482 127.371786 
L 384.753482 129.63205 
L 385.40442 129.63205 
L 385.40442 129.849349 
L 386.055358 129.849349 
L 386.055358 129.300416 
L 386.706296 129.300416 
L 386.706296 130.119338 
L 387.357234 130.119338 
L 387.357234 130.575711 
L 388.008173 130.575711 
L 388.008173 130.208259 
L 388.659111 130.208259 
L 388.659111 130.040736 
L 389.310049 130.040736 
L 389.310049 128.901643 
L 389.960987 128.901643 
L 389.960987 127.842353 
L 391.262864 127.878687 
L 391.262864 127.272833 
L 391.913802 127.272833 
L 391.913802 127.71741 
L 392.56474 127.71741 
L 392.56474 128.565354 
L 393.215679 128.565354 
L 393.215679 128.041219 
L 394.517555 128.091988 
L 394.517555 128.448819 
L 395.168493 128.448819 
L 395.168493 128.021648 
L 396.47037 127.993078 
L 396.47037 128.154991 
L 397.121308 128.154991 
L 397.121308 127.915583 
L 398.423185 127.843845 
L 398.423185 127.710984 
L 399.074123 127.710984 
L 399.074123 127.376648 
L 399.725061 127.376648 
L 399.725061 127.062905 
L 400.375999 127.062905 
L 400.375999 126.311502 
L 401.026938 126.311502 
L 401.026938 126.620175 
L 401.677876 126.620175 
L 401.677876 126.26165 
L 402.328814 126.26165 
L 402.328814 126.429683 
L 402.979752 126.429683 
L 402.979752 125.911444 
L 403.63069 125.911444 
L 403.63069 126.132039 
L 404.281629 126.132039 
L 404.281629 126.257962 
L 404.932567 126.257962 
L 404.932567 126.717961 
L 405.583505 126.717961 
L 405.583505 126.460846 
L 406.234443 126.460846 
L 406.234443 123.733188 
L 406.885382 123.733188 
L 406.885382 122.670084 
L 407.53632 122.670084 
L 407.53632 120.966622 
L 408.187258 120.966622 
L 408.187258 121.174097 
L 408.838196 121.174097 
L 408.838196 117.61924 
L 409.489135 117.61924 
L 409.489135 115.677182 
L 410.140073 115.677182 
L 410.140073 120.643892 
L 410.791011 120.643892 
L 410.791011 119.366811 
L 411.441949 119.366811 
L 411.441949 118.151456 
L 412.092888 118.151456 
L 412.092888 117.717314 
L 412.743826 117.717314 
L 412.743826 118.306808 
L 414.696641 118.359797 
L 414.696641 118.165532 
L 415.347579 118.165532 
L 415.347579 118.354745 
L 415.998517 118.354745 
L 415.998517 118.543139 
L 416.649455 118.543139 
L 416.649455 120.199459 
L 417.300393 120.199459 
L 417.300393 121.363953 
L 417.951332 121.363953 
L 417.951332 120.921588 
L 419.253208 120.980223 
L 419.253208 121.429697 
L 419.904146 121.429697 
L 419.904146 121.19977 
L 421.206023 121.25375 
L 421.206023 121.40849 
L 422.507899 121.390226 
L 422.507899 120.109979 
L 423.158838 120.109979 
L 423.158838 119.651773 
L 423.809776 119.651773 
L 423.809776 120.081495 
L 425.111652 120.13919 
L 425.111652 120.599196 
L 425.762591 120.599196 
L 425.762591 120.157081 
L 427.715405 120.143661 
L 427.715405 119.894739 
L 428.366344 119.894739 
L 428.366344 119.202745 
L 429.017282 119.202745 
L 429.017282 119.07784 
L 429.66822 119.07784 
L 429.66822 119.409939 
L 430.319158 119.409939 
L 430.319158 118.916344 
L 430.970096 118.916344 
L 430.970096 117.597305 
L 431.621035 117.597305 
L 431.621035 116.393693 
L 432.271973 116.393693 
L 432.271973 117.069054 
L 432.922911 117.069054 
L 432.922911 116.540804 
L 433.573849 116.540804 
L 433.573849 117.161291 
L 434.224788 117.161291 
L 434.224788 116.101411 
L 436.177602 116.094893 
L 436.177602 116.29562 
L 436.828541 116.29562 
L 436.828541 115.373603 
L 438.130417 115.277741 
L 438.130417 115.231199 
L 438.781355 115.231199 
L 438.781355 115.023165 
L 439.432294 115.023165 
L 439.432294 114.619285 
L 440.083232 114.619285 
L 440.083232 111.603074 
L 440.73417 111.603074 
L 440.73417 111.231397 
L 441.385108 111.231397 
L 441.385108 110.470919 
L 442.036047 110.470919 
L 442.036047 107.559596 
L 442.686985 107.559596 
L 442.686985 111.681834 
L 443.337923 111.681834 
L 443.337923 114.240173 
L 443.988861 114.240173 
L 443.988861 113.60083 
L 444.639799 113.60083 
L 444.639799 112.025279 
L 445.290738 112.025279 
L 445.290738 112.308178 
L 445.941676 112.308178 
L 445.941676 111.496172 
L 446.592614 111.496172 
L 446.592614 110.072553 
L 447.243552 110.072553 
L 447.243552 109.493236 
L 447.894491 109.493236 
L 447.894491 110.031817 
L 448.545429 110.031817 
L 448.545429 109.698325 
L 449.196367 109.698325 
L 449.196367 108.614069 
L 449.847305 108.614069 
L 449.847305 107.263442 
L 450.498244 107.263442 
L 450.498244 106.797688 
L 451.149182 106.797688 
L 451.149182 105.485239 
L 451.80012 105.485239 
L 451.80012 104.714344 
L 452.451058 104.714344 
L 452.451058 106.053662 
L 453.101997 106.053662 
L 453.101997 105.218589 
L 453.752935 105.218589 
L 453.752935 108.343512 
L 454.403873 108.343512 
L 454.403873 107.487415 
L 455.054811 107.487415 
L 455.054811 110.536611 
L 455.70575 110.536611 
L 455.70575 108.908857 
L 456.356688 108.908857 
L 456.356688 108.116214 
L 457.007626 108.116214 
L 457.007626 106.024949 
L 457.658564 106.024949 
L 457.658564 105.742387 
L 458.309503 105.742387 
L 458.309503 106.437881 
L 458.960441 106.437881 
L 458.960441 105.894662 
L 459.611379 105.894662 
L 459.611379 105.344883 
L 460.262317 105.344883 
L 460.262317 104.437182 
L 460.913255 104.437182 
L 460.913255 103.381479 
L 461.564194 103.381479 
L 461.564194 100.743079 
L 462.215132 100.743079 
L 462.215132 99.250625 
L 462.86607 99.250625 
L 462.86607 98.728713 
L 463.517008 98.728713 
L 463.517008 98.530902 
L 464.167947 98.530902 
L 464.167947 95.154695 
L 464.818885 95.154695 
L 464.818885 91.252792 
L 465.469823 91.252792 
L 465.469823 93.472076 
L 466.120761 93.472076 
L 466.120761 91.352735 
L 466.7717 91.352735 
L 466.7717 88.985847 
L 467.422638 88.985847 
L 467.422638 88.032807 
L 468.073576 88.032807 
L 468.073576 88.932679 
L 468.724514 88.932679 
L 468.724514 89.529558 
L 469.375453 89.529558 
L 469.375453 89.301053 
L 470.026391 89.301053 
L 470.026391 90.569439 
L 470.677329 90.569439 
L 470.677329 90.24098 
L 471.979206 90.173381 
L 471.979206 90.562512 
L 472.630144 90.562512 
L 472.630144 92.228823 
L 473.281082 92.228823 
L 473.281082 95.538194 
L 473.93202 95.538194 
L 473.93202 92.646165 
L 474.582958 92.646165 
L 474.582958 88.608271 
L 475.233897 88.608271 
L 475.233897 89.318028 
L 475.884835 89.318028 
L 475.884835 87.75551 
L 477.186711 87.802105 
L 477.186711 84.11081 
L 477.83765 84.11081 
L 477.83765 81.468272 
L 478.488588 81.468272 
L 478.488588 78.894844 
L 479.139526 78.894844 
L 479.139526 80.487081 
L 479.790464 80.487081 
L 479.790464 79.10606 
L 480.441403 79.10606 
L 480.441403 78.89074 
L 481.092341 78.89074 
L 481.092341 76.495947 
L 481.743279 76.495947 
L 481.743279 78.850884 
L 482.394217 78.850884 
L 482.394217 79.110399 
L 483.045156 79.110399 
L 483.045156 81.486096 
L 483.696094 81.486096 
L 483.696094 82.520029 
L 484.347032 82.520029 
L 484.347032 82.965384 
L 484.99797 82.965384 
L 484.99797 81.128446 
L 485.648909 81.128446 
L 485.648909 79.929675 
L 486.299847 79.929675 
L 486.299847 79.21938 
L 486.950785 79.21938 
L 486.950785 78.59319 
L 487.601723 78.59319 
L 487.601723 76.86616 
L 488.252661 76.86616 
L 488.252661 73.403733 
L 489.554538 73.383671 
L 489.554538 72.650921 
L 490.205476 72.650921 
L 490.205476 73.118737 
L 490.856414 73.118737 
L 490.856414 70.901707 
L 491.507353 70.901707 
L 491.507353 68.018126 
L 492.158291 68.018126 
L 492.158291 67.729645 
L 492.809229 67.729645 
L 492.809229 72.688154 
L 493.460167 72.688154 
L 493.460167 66.639107 
L 494.111106 66.639107 
L 494.111106 65.669205 
L 495.412982 65.745432 
L 495.412982 61.803115 
L 496.06392 61.803115 
L 496.06392 59.808766 
L 496.714859 59.808766 
L 496.714859 54.840075 
L 497.365797 54.840075 
L 497.365797 53.069224 
L 498.016735 53.069224 
L 498.016735 51.291013 
L 498.667673 51.291013 
L 498.667673 48.325151 
L 499.318612 48.325151 
L 499.318612 54.941883 
L 499.96955 54.941883 
L 499.96955 52.241718 
L 500.620488 52.241718 
L 500.620488 56.785649 
L 501.271426 56.785649 
L 501.271426 53.110442 
L 501.922364 53.110442 
L 501.922364 51.566797 
L 502.573303 51.566797 
L 502.573303 55.699919 
L 503.224241 55.699919 
L 503.224241 55.281899 
L 503.875179 55.281899 
L 503.875179 58.70247 
L 504.526117 58.70247 
L 504.526117 59.965096 
L 505.177056 59.965096 
L 505.177056 58.839302 
L 505.827994 58.839302 
L 505.827994 61.211484 
L 506.478932 61.211484 
L 506.478932 65.772711 
L 507.780809 65.663454 
L 507.780809 64.077142 
L 508.431747 64.077142 
L 508.431747 61.263619 
L 509.082685 61.263619 
L 509.082685 59.180789 
L 509.733623 59.180789 
L 509.733623 62.269921 
L 510.384562 62.269921 
L 510.384562 60.950843 
L 511.0355 60.950843 
L 511.0355 58.683747 
L 511.686438 58.683747 
L 511.686438 63.093966 
L 512.337376 63.093966 
L 512.337376 63.534221 
L 512.988315 63.534221 
L 512.988315 65.53011 
L 513.639253 65.53011 
L 513.639253 64.04376 
L 514.290191 64.04376 
L 514.290191 64.944721 
L 514.941129 64.944721 
L 514.941129 66.42301 
L 515.592068 66.42301 
L 515.592068 69.603507 
L 516.243006 69.603507 
L 516.243006 69.728934 
L 517.544882 69.735859 
L 517.544882 66.568942 
L 518.846759 66.537381 
L 518.846759 63.995412 
L 519.497697 63.995412 
L 519.497697 64.137285 
L 520.148635 64.137285 
L 520.148635 62.929096 
L 520.799573 62.929096 
L 520.799573 62.15485 
L 521.450512 62.15485 
L 521.450512 62.994174 
L 522.10145 62.994174 
L 522.10145 65.282557 
L 522.752388 65.282557 
L 522.752388 65.098737 
L 523.403326 65.098737 
L 523.403326 65.67108 
L 524.054265 65.67108 
L 524.054265 67.608435 
L 524.705203 67.608435 
L 524.705203 68.078977 
L 525.356141 68.078977 
L 525.356141 67.670388 
L 526.658018 67.654193 
L 526.658018 67.322283 
L 527.308956 67.322283 
L 527.308956 70.460669 
L 527.959894 70.460669 
L 527.959894 70.666678 
L 528.610832 70.666678 
L 528.610832 69.808575 
L 529.261771 69.808575 
L 529.261771 71.762382 
L 529.912709 71.762382 
L 529.912709 72.730535 
L 530.563647 72.730535 
L 530.563647 70.227908 
L 531.865523 70.221133 
L 531.865523 71.186183 
L 532.516462 71.186183 
L 532.516462 71.453286 
L 533.1674 71.453286 
L 533.1674 68.003614 
L 534.469276 67.903129 
L 534.469276 66.451399 
L 535.120215 66.451399 
L 535.120215 65.850699 
L 535.771153 65.850699 
L 535.771153 67.880273 
L 536.422091 67.880273 
L 536.422091 69.940589 
L 537.073029 69.940589 
L 537.073029 71.523558 
L 537.723968 71.523558 
L 537.723968 71.380452 
L 538.374906 71.380452 
L 538.374906 70.673439 
L 539.025844 70.673439 
L 539.025844 70.547028 
L 539.676782 70.547028 
L 539.676782 69.379208 
L 540.327721 69.379208 
L 540.327721 69.026552 
L 540.978659 69.026552 
L 540.978659 68.037416 
L 541.629597 68.037416 
L 541.629597 71.670928 
L 542.280535 71.670928 
L 542.280535 71.196844 
L 542.931474 71.196844 
L 542.931474 70.638726 
L 544.23335 70.643066 
L 544.23335 70.363846 
L 544.884288 70.363846 
L 544.884288 70.220913 
L 545.535226 70.220913 
L 545.535226 70.561915 
L 546.186165 70.561915 
L 546.186165 70.395054 
L 547.488041 70.371398 
L 547.488041 71.398812 
L 548.138979 71.398812 
L 548.138979 70.599419 
L 549.440856 70.649916 
L 549.440856 70.719887 
L 550.091794 70.719887 
L 550.091794 71.277655 
L 550.742732 71.277655 
L 550.742732 71.080757 
L 551.393671 71.080757 
L 551.393671 70.512269 
L 552.044609 70.512269 
L 552.044609 70.926266 
L 552.695547 70.926266 
L 552.695547 73.525029 
L 553.346485 73.525029 
L 553.346485 76.751226 
L 553.997424 76.751226 
L 553.997424 79.004047 
L 554.648362 79.004047 
L 554.648362 81.685729 
L 555.2993 81.685729 
L 555.2993 79.81055 
L 555.950238 79.81055 
L 555.950238 82.146119 
L 556.601177 82.146119 
L 556.601177 83.037893 
L 557.252115 83.037893 
L 557.252115 84.736712 
L 557.903053 84.736712 
L 557.903053 83.224386 
L 558.553991 83.224386 
L 558.553991 81.299917 
L 559.204929 81.299917 
L 559.204929 81.723569 
L 559.855868 81.723569 
L 559.855868 82.005055 
L 560.506806 82.005055 
L 560.506806 81.132005 
L 561.157744 81.132005 
L 561.157744 80.398825 
L 561.808682 80.398825 
L 561.808682 82.704111 
L 562.459621 82.704111 
L 562.459621 82.497615 
L 563.110559 82.497615 
L 563.110559 82.82198 
L 563.761497 82.82198 
L 563.761497 83.044238 
L 565.063374 83.10867 
L 565.063374 83.738865 
L 566.36525 83.823178 
L 566.36525 84.196702 
L 567.016188 84.196702 
L 567.016188 82.800447 
L 567.667127 82.800447 
L 567.667127 82.923202 
L 568.318065 82.923202 
L 568.318065 81.157414 
L 568.969003 81.157414 
L 568.969003 80.053772 
L 569.619941 80.053772 
L 569.619941 81.659669 
L 570.921818 81.761531 
L 570.921818 81.369708 
L 572.223694 81.40052 
L 572.223694 81.104451 
L 572.874633 81.104451 
L 572.874633 80.618795 
L 574.827447 80.518475 
L 574.827447 80.182519 
L 575.478385 80.182519 
L 575.478385 76.483909 
L 576.129324 76.483909 
L 576.129324 75.016529 
L 576.780262 75.016529 
L 576.780262 75.80772 
L 577.4312 75.80772 
L 577.4312 75.304147 
L 578.082138 75.304147 
L 578.082138 74.856324 
L 578.733077 74.856324 
L 578.733077 74.370653 
L 579.384015 74.370653 
L 579.384015 74.887779 
L 580.034953 74.887779 
L 580.034953 74.540563 
L 580.685891 74.540563 
L 580.685891 73.430243 
L 581.33683 73.430243 
L 581.33683 71.124404 
L 581.987768 71.124404 
L 581.987768 66.312762 
L 582.638706 66.312762 
L 582.638706 68.306307 
L 583.289644 68.306307 
L 583.289644 67.293808 
L 583.940583 67.293808 
L 583.940583 64.435418 
L 584.591521 64.435418 
L 584.591521 65.594214 
L 585.242459 65.594214 
L 585.242459 65.944377 
L 585.893397 65.944377 
L 585.893397 66.298134 
L 586.544336 66.298134 
L 586.544336 66.509956 
L 587.195274 66.509956 
L 587.195274 64.162423 
L 587.846212 64.162423 
L 587.846212 63.190052 
L 588.49715 63.190052 
L 588.49715 59.99792 
L 589.148088 59.99792 
L 589.148088 59.39195 
L 589.799027 59.39195 
L 589.799027 60.458264 
L 590.449965 60.458264 
L 590.449965 59.727987 
L 591.100903 59.727987 
L 591.100903 56.828349 
L 591.751841 56.828349 
L 591.751841 58.916673 
L 592.40278 58.916673 
L 592.40278 62.324856 
L 593.053718 62.324856 
L 593.053718 60.441115 
L 593.704656 60.441115 
L 593.704656 61.895607 
L 594.355594 61.895607 
L 594.355594 62.701606 
L 595.006533 62.701606 
L 595.006533 60.555565 
L 595.657471 60.555565 
L 595.657471 58.77673 
L 596.308409 58.77673 
L 596.308409 59.113595 
L 596.959347 59.113595 
L 596.959347 61.597864 
L 597.610286 61.597864 
L 597.610286 60.980255 
L 598.261224 60.980255 
L 598.261224 61.400682 
L 598.912162 61.400682 
L 598.912162 60.894039 
L 599.5631 60.894039 
L 599.5631 62.533773 
L 600.214039 62.533773 
L 600.214039 60.374388 
L 600.864977 60.374388 
L 600.864977 60.639716 
L 601.515915 60.639716 
L 601.515915 61.303134 
L 602.166853 61.303134 
L 602.166853 60.994774 
L 603.46873 61.064877 
L 603.46873 62.30522 
L 604.119668 62.30522 
L 604.119668 65.7935 
L 604.770606 65.7935 
L 604.770606 65.467206 
L 605.421544 65.467206 
L 605.421544 65.911617 
L 606.072483 65.911617 
L 606.072483 64.81259 
L 606.723421 64.81259 
L 606.723421 65.565704 
L 607.374359 65.565704 
L 607.374359 66.094179 
L 608.025297 66.094179 
L 608.025297 65.720678 
L 608.676236 65.720678 
L 608.676236 64.621659 
L 609.327174 64.621659 
L 609.327174 62.851573 
L 609.978112 62.851573 
L 609.978112 63.146265 
L 611.279989 63.051811 
L 611.279989 63.747776 
L 611.930927 63.747776 
L 611.930927 64.70489 
L 612.581865 64.70489 
L 612.581865 65.8392 
L 613.232803 65.8392 
L 613.232803 68.245164 
L 613.883742 68.245164 
L 613.883742 68.59992 
L 614.53468 68.59992 
L 614.53468 67.481456 
L 615.185618 67.481456 
L 615.185618 68.514903 
L 615.836556 68.514903 
L 615.836556 67.579317 
L 616.487494 67.579317 
L 616.487494 68.52562 
L 617.138433 68.52562 
L 617.138433 69.445043 
L 617.789371 69.445043 
L 617.789371 68.522686 
L 618.440309 68.522686 
L 618.440309 68.34763 
L 619.091247 68.34763 
L 619.091247 68.203014 
L 619.742186 68.203014 
L 619.742186 68.564818 
L 620.393124 68.564818 
L 620.393124 68.059052 
L 621.044062 68.059052 
L 621.044062 66.774511 
L 621.695 66.774511 
L 621.695 66.020715 
L 622.345939 66.020715 
L 622.345939 64.066298 
L 622.996877 64.066298 
L 622.996877 64.488413 
L 623.647815 64.488413 
L 623.647815 65.456067 
L 624.298753 65.456067 
L 624.298753 63.194305 
L 625.60063 63.116242 
L 625.60063 62.149904 
L 626.251568 62.149904 
L 626.251568 61.938754 
L 626.902506 61.938754 
L 626.902506 60.877414 
L 627.553445 60.877414 
L 627.553445 61.259331 
L 628.204383 61.259331 
L 628.204383 62.334897 
L 628.855321 62.334897 
L 628.855321 64.337485 
L 629.506259 64.337485 
L 629.506259 64.943717 
L 630.157198 64.943717 
L 630.157198 63.677937 
L 630.808136 63.677937 
L 630.808136 66.472111 
L 631.459074 66.472111 
L 631.459074 73.709272 
L 632.110012 73.709272 
L 632.110012 74.667067 
L 632.76095 74.667067 
L 632.76095 71.651383 
L 633.411889 71.651383 
L 633.411889 70.00214 
L 634.062827 70.00214 
L 634.062827 72.70472 
L 634.713765 72.70472 
L 634.713765 69.65996 
L 635.364703 69.65996 
L 635.364703 68.082845 
L 636.015642 68.082845 
L 636.015642 69.464178 
L 637.317518 69.468098 
L 637.317518 68.322671 
L 637.968456 68.322671 
L 637.968456 68.695298 
L 638.619395 68.695298 
L 638.619395 67.09391 
L 639.270333 67.09391 
L 639.270333 64.713481 
L 639.921271 64.713481 
L 639.921271 64.10014 
L 640.572209 64.10014 
L 640.572209 62.008787 
L 641.223148 62.008787 
L 641.223148 64.268634 
L 641.874086 64.268634 
L 641.874086 62.957337 
L 642.525024 62.957337 
L 642.525024 62.681086 
L 643.175962 62.681086 
L 643.175962 64.468141 
L 643.826901 64.468141 
L 643.826901 62.552927 
L 644.477839 62.552927 
L 644.477839 61.211013 
L 645.128777 61.211013 
L 645.128777 62.434229 
L 645.779715 62.434229 
L 645.779715 62.108221 
L 646.430653 62.108221 
L 646.430653 62.76287 
L 647.73253 62.804115 
L 647.73253 63.183122 
L 649.034406 63.282173 
L 649.034406 63.407987 
L 649.685345 63.407987 
L 649.685345 63.666354 
L 650.336283 63.666354 
L 650.336283 63.247442 
L 651.638159 63.293228 
L 651.638159 63.389442 
L 652.940036 63.34145 
L 652.940036 62.457332 
L 653.590974 62.457332 
L 653.590974 59.562328 
L 654.241912 59.562328 
L 654.241912 58.999763 
L 654.892851 58.999763 
L 654.892851 59.27708 
L 655.543789 59.27708 
L 655.543789 58.233866 
L 656.194727 58.233866 
L 656.194727 58.581934 
L 656.845665 58.581934 
L 656.845665 57.975619 
L 658.147542 58.060268 
L 658.147542 58.240381 
L 658.79848 58.240381 
L 658.79848 58.651275 
L 659.449418 58.651275 
L 659.449418 57.959428 
L 660.100356 57.959428 
L 660.100356 61.302518 
L 660.751295 61.302518 
L 660.751295 61.162766 
L 661.402233 61.162766 
L 661.402233 60.953613 
L 662.053171 60.953613 
L 662.053171 59.749483 
L 662.704109 59.749483 
L 662.704109 60.75304 
L 663.355048 60.75304 
L 663.355048 60.234167 
L 664.005986 60.234167 
L 664.005986 59.947152 
L 664.656924 59.947152 
L 664.656924 60.511538 
L 665.307862 60.511538 
L 665.307862 60.27726 
L 665.958801 60.27726 
L 665.958801 58.93959 
L 666.609739 58.93959 
L 666.609739 58.707516 
L 667.260677 58.707516 
L 667.260677 58.250627 
L 667.911615 58.250627 
L 667.911615 56.243029 
L 668.562554 56.243029 
L 668.562554 55.132462 
L 669.213492 55.132462 
L 669.213492 54.890841 
L 669.86443 54.890841 
L 669.86443 54.375112 
L 670.515368 54.375112 
L 670.515368 52.492852 
L 671.166307 52.492852 
L 671.166307 51.434806 
L 671.817245 51.434806 
L 671.817245 50.891365 
L 672.468183 50.891365 
L 672.468183 48.574382 
L 673.119121 48.574382 
L 673.119121 48.03918 
L 673.770059 48.03918 
L 673.770059 49.669973 
L 674.420998 49.669973 
L 674.420998 47.97995 
L 675.071936 47.97995 
L 675.071936 47.816901 
L 675.722874 47.816901 
L 675.722874 49.071657 
L 676.373812 49.071657 
L 676.373812 47.926119 
L 677.024751 47.926119 
L 677.024751 44.101243 
L 677.675689 44.101243 
L 677.675689 43.501708 
L 678.326627 43.501708 
L 678.326627 41.324118 
L 678.977565 41.324118 
L 678.977565 39.500019 
L 679.628504 39.500019 
L 679.628504 36.697366 
L 680.279442 36.697366 
L 680.279442 32.950214 
L 680.93038 32.950214 
L 680.93038 35.146288 
L 681.581318 35.146288 
L 681.581318 34.405388 
L 682.232257 34.405388 
L 682.232257 34.868928 
L 682.883195 34.868928 
L 682.883195 37.275539 
L 683.534133 37.275539 
L 683.534133 38.398643 
L 684.185071 38.398643 
L 684.185071 36.611674 
L 684.83601 36.611674 
L 684.83601 34.307189 
L 685.486948 34.307189 
L 685.486948 29.596403 
L 686.137886 29.596403 
L 686.137886 29.10356 
L 686.788824 29.10356 
L 686.788824 28.373517 
L 687.439763 28.373517 
L 687.439763 25.652358 
L 688.090701 25.652358 
L 688.090701 27.760325 
L 688.741639 27.760325 
L 688.741639 30.167384 
L 689.392577 30.167384 
L 689.392577 28.677867 
L 690.043515 28.677867 
L 690.043515 27.080693 
L 690.694454 27.080693 
L 690.694454 25.190547 
L 691.345392 25.190547 
L 691.345392 25.329959 
L 691.99633 25.329959 
L 691.99633 24.889041 
L 692.647268 24.889041 
L 692.647268 26.997437 
L 693.298207 26.997437 
L 693.298207 25.733628 
L 693.949145 25.733628 
L 693.949145 24.656228 
L 694.600083 24.656228 
L 694.600083 24.54375 
L 695.251021 24.54375 
L 695.251021 24.883009 
L 695.90196 24.883009 
L 695.90196 23.009876 
L 696.552898 23.009876 
L 696.552898 24.181578 
L 697.203836 24.181578 
L 697.203836 26.486435 
L 697.854774 26.486435 
L 697.854774 28.409456 
L 698.505713 28.409456 
L 698.505713 26.573813 
L 699.156651 26.573813 
L 699.156651 25.205125 
L 700.458527 25.144274 
L 700.458527 25.374949 
L 701.109466 25.374949 
L 701.109466 29.429376 
L 701.760404 29.429376 
L 701.760404 34.328546 
L 702.411342 34.328546 
L 702.411342 35.615947 
L 703.06228 35.615947 
L 703.06228 33.508081 
L 703.713218 33.508081 
L 703.713218 34.13381 
L 704.364157 34.13381 
L 704.364157 34.373094 
L 705.015095 34.373094 
L 705.015095 36.414866 
L 705.666033 36.414866 
L 705.666033 35.17571 
L 706.316971 35.17571 
L 706.316971 33.573601 
L 706.96791 33.573601 
L 706.96791 35.118449 
L 707.618848 35.118449 
L 707.618848 35.685266 
L 708.920724 35.79572 
L 708.920724 36.162485 
L 709.571663 36.162485 
L 709.571663 35.945155 
L 710.222601 35.945155 
L 710.222601 36.374085 
L 710.873539 36.374085 
L 710.873539 36.815521 
L 711.524477 36.815521 
L 711.524477 37.482323 
L 712.175416 37.482323 
L 712.175416 37.147011 
L 712.826354 37.147011 
L 712.826354 34.129556 
L 713.477292 34.129556 
L 713.477292 31.554905 
L 714.12823 31.554905 
L 714.12823 33.675686 
L 714.779169 33.675686 
L 714.779169 30.39069 
L 715.430107 30.39069 
L 715.430107 29.938311 
L 716.081045 29.938311 
L 716.081045 29.286939 
L 716.731983 29.286939 
L 716.731983 29.430238 
L 717.382921 29.430238 
L 717.382921 28.219698 
L 718.03386 28.219698 
L 718.03386 28.417424 
L 718.684798 28.417424 
L 718.684798 29.242842 
L 719.335736 29.242842 
L 719.335736 28.041698 
L 719.986674 28.041698 
L 719.986674 29.725598 
L 721.288551 29.734329 
L 721.288551 28.96593 
L 721.939489 28.96593 
L 721.939489 31.217551 
L 723.241366 31.259459 
L 723.241366 32.158724 
L 723.892304 32.158724 
L 723.892304 28.991365 
L 724.543242 28.991365 
L 724.543242 25.898997 
L 725.19418 25.898997 
L 725.19418 26.171732 
L 725.845119 26.171732 
L 725.845119 25.137916 
L 726.496057 25.137916 
L 726.496057 23.536619 
L 727.146995 23.536619 
L 727.146995 23.970631 
L 727.797933 23.970631 
L 727.797933 24.092066 
L 728.448872 24.092066 
L 728.448872 23.617761 
L 729.09981 23.617761 
L 729.09981 23.207845 
L 729.750748 23.207845 
L 729.750748 23.095895 
L 730.401686 23.095895 
L 730.401686 22.592014 
L 731.052624 22.592014 
L 731.052624 23.000082 
L 731.703563 23.000082 
L 731.703563 24.87207 
L 732.354501 24.87207 
L 732.354501 25.072348 
L 733.005439 25.072348 
L 733.005439 26.104774 
L 733.656377 26.104774 
L 733.656377 25.199129 
L 734.307316 25.199129 
L 734.307316 28.280121 
L 734.958254 28.280121 
L 734.958254 29.020889 
L 735.609192 29.020889 
L 735.609192 29.420212 
L 736.26013 29.420212 
L 736.26013 29.682524 
L 736.911069 29.682524 
L 736.911069 28.469552 
L 737.562007 28.469552 
L 737.562007 27.823934 
L 738.212945 27.823934 
L 738.212945 29.576336 
L 738.863883 29.576336 
L 738.863883 29.166802 
L 739.514822 29.166802 
L 739.514822 31.111175 
L 740.16576 31.111175 
L 740.16576 31.736347 
L 740.816698 31.736347 
L 740.816698 31.121475 
L 741.467636 31.121475 
L 741.467636 31.472283 
L 742.118575 31.472283 
L 742.118575 35.426379 
L 742.769513 35.426379 
L 742.769513 34.408235 
L 743.420451 34.408235 
L 743.420451 33.79617 
L 744.071389 33.79617 
L 744.071389 34.256277 
L 744.722328 34.256277 
L 744.722328 30.768475 
L 745.373266 30.768475 
L 745.373266 31.462533 
L 746.024204 31.462533 
L 746.024204 30.436564 
L 746.675142 30.436564 
L 746.675142 32.620135 
L 747.32608 32.620135 
L 747.32608 34.144482 
L 747.977019 34.144482 
L 747.977019 33.914407 
L 748.627957 33.914407 
L 748.627957 31.43146 
L 749.278895 31.43146 
L 749.278895 33.73354 
L 749.929833 33.73354 
L 749.929833 33.34803 
L 750.580772 33.34803 
L 750.580772 33.037787 
L 751.23171 33.037787 
L 751.23171 31.550863 
L 751.882648 31.550863 
L 751.882648 31.215847 
L 752.533586 31.215847 
L 752.533586 29.374951 
L 753.184525 29.374951 
L 753.184525 29.971416 
L 753.835463 29.971416 
L 753.835463 29.485453 
L 754.486401 29.485453 
L 754.486401 31.522875 
L 755.137339 31.522875 
L 755.137339 32.626826 
L 755.788278 32.626826 
L 755.788278 32.478106 
L 756.439216 32.478106 
L 756.439216 31.973854 
L 757.090154 31.973854 
L 757.090154 32.961044 
L 757.741092 32.961044 
L 757.741092 32.800536 
L 758.392031 32.800536 
L 758.392031 33.472604 
L 759.042969 33.472604 
L 759.042969 34.873045 
L 759.693907 34.873045 
L 759.693907 38.000967 
L 760.344845 38.000967 
L 760.344845 38.636562 
L 760.995783 38.636562 
L 760.995783 39.627515 
L 761.646722 39.627515 
L 761.646722 38.495145 
L 762.29766 38.495145 
L 762.29766 39.257289 
L 762.948598 39.257289 
L 762.948598 37.526995 
L 763.599536 37.526995 
L 763.599536 38.911173 
L 764.250475 38.911173 
L 764.250475 37.924381 
L 764.901413 37.924381 
L 764.901413 39.873978 
L 765.552351 39.873978 
L 765.552351 44.649665 
L 766.203289 44.649665 
L 766.203289 46.599878 
L 766.854228 46.599878 
L 766.854228 46.050059 
L 767.505166 46.050059 
L 767.505166 46.435955 
L 768.156104 46.435955 
L 768.156104 47.980243 
L 768.807042 47.980243 
L 768.807042 46.967585 
L 769.457981 46.967585 
L 769.457981 45.566167 
L 770.108919 45.566167 
L 770.108919 46.924393 
L 770.759857 46.924393 
L 770.759857 46.363444 
L 771.410795 46.363444 
L 771.410795 44.098266 
L 772.061734 44.098266 
L 772.061734 45.840736 
L 772.712672 45.840736 
L 772.712672 43.530647 
L 773.36361 43.530647 
L 773.36361 44.254282 
L 774.665486 44.285731 
L 774.665486 43.38376 
L 775.316425 43.38376 
L 775.316425 43.076611 
L 775.967363 43.076611 
L 775.967363 44.062307 
L 776.618301 44.062307 
L 776.618301 45.740759 
L 777.269239 45.740759 
L 777.269239 46.914451 
L 777.920178 46.914451 
L 777.920178 47.373956 
L 779.222054 47.329769 
L 779.222054 47.922339 
L 779.872992 47.922339 
L 779.872992 45.362094 
L 780.523931 45.362094 
L 780.523931 47.477971 
L 781.174869 47.477971 
L 781.174869 47.640308 
L 781.825807 47.640308 
L 781.825807 47.921797 
L 782.476745 47.921797 
L 782.476745 48.112982 
L 783.127684 48.112982 
L 783.127684 47.884881 
L 783.778622 47.884881 
L 783.778622 46.982202 
L 784.42956 46.982202 
L 784.42956 47.747799 
L 785.731437 47.810791 
L 785.731437 47.633074 
L 786.382375 47.633074 
L 786.382375 48.040465 
L 787.033313 48.040465 
L 787.033313 47.051202 
L 787.684251 47.051202 
L 787.684251 46.321333 
L 788.335189 46.321333 
L 788.335189 46.996498 
L 788.986128 46.996498 
L 788.986128 46.217078 
L 789.637066 46.217078 
L 789.637066 49.885667 
L 790.288004 49.885667 
L 790.288004 51.063386 
L 790.938942 51.063386 
L 790.938942 50.94379 
L 791.589881 50.94379 
L 791.589881 51.564424 
L 792.240819 51.564424 
L 792.240819 51.233407 
L 792.891757 51.233407 
L 792.891757 50.342371 
L 795.49551 50.298325 
L 795.49551 51.000979 
L 796.146448 51.000979 
L 796.146448 50.668424 
L 797.448325 50.750795 
L 797.448325 51.124767 
L 798.750201 51.03099 
L 798.750201 50.7653 
L 799.40114 50.7653 
L 799.40114 50.316296 
L 800.052078 50.316296 
L 800.052078 47.226394 
L 800.703016 47.226394 
L 800.703016 45.993802 
L 801.353954 45.993802 
L 801.353954 44.445333 
L 802.004893 44.445333 
L 802.004893 44.156391 
L 802.655831 44.156391 
L 802.655831 43.562405 
L 803.306769 43.562405 
L 803.306769 43.829116 
L 803.957707 43.829116 
L 803.957707 44.453368 
L 804.608645 44.453368 
L 804.608645 45.512094 
L 805.259584 45.512094 
L 805.259584 44.966002 
L 805.910522 44.966002 
L 805.910522 42.797564 
L 806.56146 42.797564 
L 806.56146 43.187901 
L 807.212398 43.187901 
L 807.212398 43.732546 
L 808.514275 43.817587 
L 808.514275 44.779888 
L 809.165213 44.779888 
L 809.165213 46.923195 
L 809.816151 46.923195 
L 809.816151 42.69145 
L 810.46709 42.69145 
L 810.46709 40.907967 
L 811.118028 40.907967 
L 811.118028 40.653309 
L 811.768966 40.653309 
L 811.768966 40.129493 
L 813.070843 40.104729 
L 813.070843 40.277414 
L 814.372719 40.18498 
L 814.372719 38.525489 
L 815.674596 38.467311 
L 815.674596 39.519585 
L 816.325534 39.519585 
L 816.325534 40.437038 
L 816.976472 40.437038 
L 816.976472 39.053376 
L 817.62741 39.053376 
L 817.62741 40.064841 
L 818.278348 40.064841 
L 818.278348 39.014427 
L 818.929287 39.014427 
L 818.929287 40.399572 
L 819.580225 40.399572 
L 819.580225 41.055163 
L 820.231163 41.055163 
L 820.231163 40.583099 
L 820.882101 40.583099 
L 820.882101 41.078076 
L 821.53304 41.078076 
L 821.53304 41.297218 
L 822.183978 41.297218 
L 822.183978 40.320706 
L 822.834916 40.320706 
L 822.834916 40.69495 
L 824.136793 40.701305 
L 824.136793 41.795701 
L 824.787731 41.795701 
L 824.787731 42.390412 
L 825.438669 42.390412 
L 825.438669 41.408109 
L 826.089607 41.408109 
L 826.089607 38.755567 
L 826.740546 38.755567 
L 826.740546 38.503589 
L 827.391484 38.503589 
L 827.391484 38.362745 
L 828.042422 38.362745 
L 828.042422 38.155842 
L 828.69336 38.155842 
L 828.69336 38.539606 
L 829.344299 38.539606 
L 829.344299 38.417553 
L 830.646175 38.521828 
L 830.646175 38.826535 
L 831.297113 38.826535 
L 831.297113 39.268381 
L 832.59899 39.17005 
L 832.59899 38.909871 
L 833.249928 38.909871 
L 833.249928 39.361935 
L 833.900866 39.361935 
L 833.900866 38.992913 
L 834.551804 38.992913 
L 834.551804 39.193059 
L 835.202743 39.193059 
L 835.202743 41.151986 
L 835.853681 41.151986 
L 835.853681 41.578241 
L 837.155557 41.637478 
L 837.155557 40.330818 
L 837.806496 40.330818 
L 837.806496 41.782562 
L 839.75931 41.811865 
L 839.75931 41.250943 
L 840.410249 41.250943 
L 840.410249 41.072464 
L 841.061187 41.072464 
L 841.061187 41.214896 
L 841.712125 41.214896 
L 841.712125 41.506881 
L 842.363063 41.506881 
L 842.363063 40.911808 
L 843.014002 40.911808 
L 843.014002 40.280923 
L 844.315878 40.176284 
L 844.315878 41.076445 
L 844.966816 41.076445 
L 844.966816 39.747025 
L 845.617754 39.747025 
L 845.617754 38.910582 
L 846.268693 38.910582 
L 846.268693 36.134258 
L 846.919631 36.134258 
L 846.919631 36.018744 
L 847.570569 36.018744 
L 847.570569 35.207738 
L 848.221507 35.207738 
L 848.221507 35.440128 
L 848.872446 35.440128 
L 848.872446 34.480533 
L 849.523384 34.480533 
L 849.523384 34.594042 
L 850.82526 34.521522 
L 850.82526 34.991735 
L 851.476199 34.991735 
L 851.476199 33.861088 
L 852.778075 33.824417 
L 852.778075 32.692634 
L 853.429013 32.692634 
L 853.429013 31.025105 
L 854.079952 31.025105 
L 854.079952 32.043365 
L 854.73089 32.043365 
L 854.73089 31.693616 
L 855.381828 31.693616 
L 855.381828 31.530938 
L 856.032766 31.530938 
L 856.032766 30.812208 
L 856.683705 30.812208 
L 856.683705 30.942276 
L 857.334643 30.942276 
L 857.334643 31.537329 
L 857.985581 31.537329 
L 857.985581 30.599502 
L 858.636519 30.599502 
L 858.636519 29.32425 
L 859.287458 29.32425 
L 859.287458 31.245601 
L 859.938396 31.245601 
L 859.938396 31.105475 
L 860.589334 31.105475 
L 860.589334 31.831184 
L 861.240272 31.831184 
L 861.240272 32.64439 
L 861.89121 32.64439 
L 861.89121 31.645809 
L 862.542149 31.645809 
L 862.542149 31.139999 
L 863.193087 31.139999 
L 863.193087 31.338765 
L 863.844025 31.338765 
L 863.844025 29.252291 
L 864.494963 29.252291 
L 864.494963 28.128912 
L 865.145902 28.128912 
L 865.145902 27.327331 
L 867.098716 27.310201 
L 867.098716 23.807678 
L 867.749655 23.807678 
L 867.749655 21.482129 
L 869.051531 21.503757 
L 869.051531 20.552727 
L 869.702469 20.552727 
L 869.702469 22.442812 
L 870.353408 22.442812 
L 870.353408 21.641716 
L 871.004346 21.641716 
L 871.004346 21.836789 
L 871.655284 21.836789 
L 871.655284 20.768427 
L 872.306222 20.768427 
L 872.306222 21.081703 
L 872.957161 21.081703 
L 872.957161 21.641642 
L 873.608099 21.641642 
L 873.608099 21.250043 
L 874.259037 21.250043 
L 874.259037 22.857526 
L 874.909975 22.857526 
L 874.909975 23.770831 
L 875.560913 23.770831 
L 875.560913 22.556297 
L 876.211852 22.556297 
L 876.211852 22.705874 
L 876.86279 22.705874 
L 876.86279 22.918627 
L 877.513728 22.918627 
L 877.513728 23.230944 
L 878.164666 23.230944 
L 878.164666 23.418396 
L 878.815605 23.418396 
L 878.815605 23.933255 
L 879.466543 23.933255 
L 879.466543 22.145758 
L 880.768419 22.137265 
L 880.768419 21.615555 
L 881.419358 21.615555 
L 881.419358 21.179955 
L 882.070296 21.179955 
L 882.070296 21.756604 
L 882.721234 21.756604 
L 882.721234 20.827976 
L 883.372172 20.827976 
L 883.372172 21.20292 
L 884.023111 21.20292 
L 884.023111 21.524286 
L 884.674049 21.524286 
L 884.674049 22.020731 
L 885.324987 22.020731 
L 885.324987 22.594758 
L 885.975925 22.594758 
L 885.975925 24.114792 
L 886.626864 24.114792 
L 886.626864 23.632959 
L 887.194182 23.632959 
L 887.194182 23.632959 
" clip-path="url(#p7c1b6b8def)" style="fill: none; stroke: #3572c6; stroke-width: 1.2; stroke-linecap: square"/>
   </g>
   <g id="line2d_76">
    <path d="M 75.557818 20.552727 
L 887.194182 20.552727 
L 887.194182 20.552727 
" clip-path="url(#p7c1b6b8def)" style="fill: none; stroke: #83a83b; stroke-width: 1.2; stroke-linecap: square"/>
   </g>
   <g id="line2d_77">
    <path d="M 75.557818 24.114792 
L 887.194182 24.114792 
L 887.194182 24.114792 
" clip-path="url(#p7c1b6b8def)" style="fill: none; stroke: #c44e52; stroke-width: 1.2; stroke-linecap: square"/>
   </g>
   <g id="line2d_78">
    <path d="M 869.702469 300.96 
L 869.702469 7.2 
" clip-path="url(#p7c1b6b8def)" style="fill: none; stroke: #83a83b; stroke-width: 1.2; stroke-linecap: square"/>
   </g>
   <g id="line2d_79">
    <path d="M 886.626864 300.96 
L 886.626864 7.2 
" clip-path="url(#p7c1b6b8def)" style="fill: none; stroke: #c44e52; stroke-width: 1.2; stroke-linecap: square"/>
   </g>
   <g id="patch_3">
    <path d="M 34.976 300.96 
L 34.976 7.2 
" style="fill: none; stroke: #899ab8; stroke-width: 1.12; stroke-linejoin: miter; stroke-linecap: square"/>
   </g>
   <g id="patch_4">
    <path d="M 927.776 300.96 
L 927.776 7.2 
" style="fill: none; stroke: #899ab8; stroke-width: 1.12; stroke-linejoin: miter; stroke-linecap: square"/>
   </g>
   <g id="patch_5">
    <path d="M 34.976 300.96 
L 927.776 300.96 
" style="fill: none; stroke: #899ab8; stroke-width: 1.12; stroke-linejoin: miter; stroke-linecap: square"/>
   </g>
   <g id="patch_6">
    <path d="M 34.976 7.2 
L 927.776 7.2 
" style="fill: none; stroke: #899ab8; stroke-width: 1.12; stroke-linejoin: miter; stroke-linecap: square"/>
   </g>
   <g id="text_15">
    <!-- 71489.22 -->
    <g style="fill: #83a83b" transform="translate(194.354047 20.552727) scale(0.132 -0.132)">
     <defs>
      <path id="DejaVuSans-37" d="M 525 4666 
L 3525 4666 
L 3525 4397 
L 1831 0 
L 1172 0 
L 2766 4134 
L 525 4134 
L 525 4666 
z
" transform="scale(0.015625)"/>
      <path id="DejaVuSans-39" d="M 703 97 
L 703 672 
Q 941 559 1184 500 
Q 1428 441 1663 441 
Q 2288 441 2617 861 
Q 2947 1281 2994 2138 
Q 2813 1869 2534 1725 
Q 2256 1581 1919 1581 
Q 1219 1581 811 2004 
Q 403 2428 403 3163 
Q 403 3881 828 4315 
Q 1253 4750 1959 4750 
Q 2769 4750 3195 4129 
Q 3622 3509 3622 2328 
Q 3622 1225 3098 567 
Q 2575 -91 1691 -91 
Q 1453 -91 1209 -44 
Q 966 3 703 97 
z
M 1959 2075 
Q 2384 2075 2632 2365 
Q 2881 2656 2881 3163 
Q 2881 3666 2632 3958 
Q 2384 4250 1959 4250 
Q 1534 4250 1286 3958 
Q 1038 3666 1038 3163 
Q 1038 2656 1286 2365 
Q 1534 2075 1959 2075 
z
" transform="scale(0.015625)"/>
      <path id="DejaVuSans-2e" d="M 684 794 
L 1344 794 
L 1344 0 
L 684 0 
L 684 794 
z
" transform="scale(0.015625)"/>
     </defs>
     <use xlink:href="#DejaVuSans-37"/>
     <use xlink:href="#DejaVuSans-31" x="63.623047"/>
     <use xlink:href="#DejaVuSans-34" x="127.246094"/>
     <use xlink:href="#DejaVuSans-38" x="190.869141"/>
     <use xlink:href="#DejaVuSans-39" x="254.492188"/>
     <use xlink:href="#DejaVuSans-2e" x="318.115234"/>
     <use xlink:href="#DejaVuSans-32" x="349.902344"/>
     <use xlink:href="#DejaVuSans-32" x="413.525391"/>
    </g>
   </g>
   <g id="text_16">
    <!-- 60279.54 -->
    <g style="fill: #c44e52" transform="translate(194.354047 24.114792) scale(0.132 -0.132)">
     <use xlink:href="#DejaVuSans-36"/>
     <use xlink:href="#DejaVuSans-30" x="63.623047"/>
     <use xlink:href="#DejaVuSans-32" x="127.246094"/>
     <use xlink:href="#DejaVuSans-37" x="190.869141"/>
     <use xlink:href="#DejaVuSans-39" x="254.492188"/>
     <use xlink:href="#DejaVuSans-2e" x="318.115234"/>
     <use xlink:href="#DejaVuSans-35" x="349.902344"/>
     <use xlink:href="#DejaVuSans-34" x="413.525391"/>
    </g>
   </g>
   <g id="legend_1">
    <g id="patch_7">
     <path d="M 432.207453 294.66 
L 530.544547 294.66 
Q 533.064547 294.66 533.064547 292.14 
L 533.064547 237.56625 
Q 533.064547 235.04625 530.544547 235.04625 
L 432.207453 235.04625 
Q 429.687453 235.04625 429.687453 237.56625 
L 429.687453 292.14 
Q 429.687453 294.66 432.207453 294.66 
z
" style="fill: #373e4b; opacity: 0.8; stroke: #cccccc; stroke-width: 0.16; stroke-linejoin: miter"/>
    </g>
    <g id="line2d_80">
     <path d="M 434.727453 245.250281 
L 434.727453 245.250281 
L 447.327453 245.250281 
L 447.327453 245.250281 
L 459.927453 245.250281 
" style="fill: none; stroke: #3572c6; stroke-width: 1.2; stroke-linecap: square"/>
    </g>
    <g id="text_17">
     <!-- USD/BTC -->
     <g style="fill: #b1bed6" transform="translate(470.007453 249.660281) scale(0.126 -0.126)">
      <defs>
       <path id="DejaVuSans-55" d="M 556 4666 
L 1191 4666 
L 1191 1831 
Q 1191 1081 1462 751 
Q 1734 422 2344 422 
Q 2950 422 3222 751 
Q 3494 1081 3494 1831 
L 3494 4666 
L 4128 4666 
L 4128 1753 
Q 4128 841 3676 375 
Q 3225 -91 2344 -91 
Q 1459 -91 1007 375 
Q 556 841 556 1753 
L 556 4666 
z
" transform="scale(0.015625)"/>
       <path id="DejaVuSans-53" d="M 3425 4513 
L 3425 3897 
Q 3066 4069 2747 4153 
Q 2428 4238 2131 4238 
Q 1616 4238 1336 4038 
Q 1056 3838 1056 3469 
Q 1056 3159 1242 3001 
Q 1428 2844 1947 2747 
L 2328 2669 
Q 3034 2534 3370 2195 
Q 3706 1856 3706 1288 
Q 3706 609 3251 259 
Q 2797 -91 1919 -91 
Q 1588 -91 1214 -16 
Q 841 59 441 206 
L 441 856 
Q 825 641 1194 531 
Q 1563 422 1919 422 
Q 2459 422 2753 634 
Q 3047 847 3047 1241 
Q 3047 1584 2836 1778 
Q 2625 1972 2144 2069 
L 1759 2144 
Q 1053 2284 737 2584 
Q 422 2884 422 3419 
Q 422 4038 858 4394 
Q 1294 4750 2059 4750 
Q 2388 4750 2728 4690 
Q 3069 4631 3425 4513 
z
" transform="scale(0.015625)"/>
       <path id="DejaVuSans-2f" d="M 1625 4666 
L 2156 4666 
L 531 -594 
L 0 -594 
L 1625 4666 
z
" transform="scale(0.015625)"/>
       <path id="DejaVuSans-42" d="M 1259 2228 
L 1259 519 
L 2272 519 
Q 2781 519 3026 730 
Q 3272 941 3272 1375 
Q 3272 1813 3026 2020 
Q 2781 2228 2272 2228 
L 1259 2228 
z
M 1259 4147 
L 1259 2741 
L 2194 2741 
Q 2656 2741 2882 2914 
Q 3109 3088 3109 3444 
Q 3109 3797 2882 3972 
Q 2656 4147 2194 4147 
L 1259 4147 
z
M 628 4666 
L 2241 4666 
Q 2963 4666 3353 4366 
Q 3744 4066 3744 3513 
Q 3744 3084 3544 2831 
Q 3344 2578 2956 2516 
Q 3422 2416 3680 2098 
Q 3938 1781 3938 1306 
Q 3938 681 3513 340 
Q 3088 0 2303 0 
L 628 0 
L 628 4666 
z
" transform="scale(0.015625)"/>
       <path id="DejaVuSans-54" d="M -19 4666 
L 3928 4666 
L 3928 4134 
L 2272 4134 
L 2272 0 
L 1638 0 
L 1638 4134 
L -19 4134 
L -19 4666 
z
" transform="scale(0.015625)"/>
       <path id="DejaVuSans-43" d="M 4122 4306 
L 4122 3641 
Q 3803 3938 3442 4084 
Q 3081 4231 2675 4231 
Q 1875 4231 1450 3742 
Q 1025 3253 1025 2328 
Q 1025 1406 1450 917 
Q 1875 428 2675 428 
Q 3081 428 3442 575 
Q 3803 722 4122 1019 
L 4122 359 
Q 3791 134 3420 21 
Q 3050 -91 2638 -91 
Q 1578 -91 968 557 
Q 359 1206 359 2328 
Q 359 3453 968 4101 
Q 1578 4750 2638 4750 
Q 3056 4750 3426 4639 
Q 3797 4528 4122 4306 
z
" transform="scale(0.015625)"/>
      </defs>
      <use xlink:href="#DejaVuSans-55"/>
      <use xlink:href="#DejaVuSans-53" x="73.193359"/>
      <use xlink:href="#DejaVuSans-44" x="136.669922"/>
      <use xlink:href="#DejaVuSans-2f" x="213.671875"/>
      <use xlink:href="#DejaVuSans-42" x="247.363281"/>
      <use xlink:href="#DejaVuSans-54" x="315.966797"/>
      <use xlink:href="#DejaVuSans-43" x="371.175781"/>
     </g>
    </g>
    <g id="line2d_81">
     <path d="M 434.727453 263.744719 
L 434.727453 263.744719 
L 447.327453 263.744719 
L 447.327453 263.744719 
L 459.927453 263.744719 
" style="fill: none; stroke: #83a83b; stroke-width: 1.2; stroke-linecap: square"/>
    </g>
    <g id="text_18">
     <!-- Max -->
     <g style="fill: #b1bed6" transform="translate(470.007453 268.154719) scale(0.126 -0.126)">
      <defs>
       <path id="DejaVuSans-4d" d="M 628 4666 
L 1569 4666 
L 2759 1491 
L 3956 4666 
L 4897 4666 
L 4897 0 
L 4281 0 
L 4281 4097 
L 3078 897 
L 2444 897 
L 1241 4097 
L 1241 0 
L 628 0 
L 628 4666 
z
" transform="scale(0.015625)"/>
       <path id="DejaVuSans-78" d="M 3513 3500 
L 2247 1797 
L 3578 0 
L 2900 0 
L 1881 1375 
L 863 0 
L 184 0 
L 1544 1831 
L 300 3500 
L 978 3500 
L 1906 2253 
L 2834 3500 
L 3513 3500 
z
" transform="scale(0.015625)"/>
      </defs>
      <use xlink:href="#DejaVuSans-4d"/>
      <use xlink:href="#DejaVuSans-61" x="86.279297"/>
      <use xlink:href="#DejaVuSans-78" x="147.558594"/>
     </g>
    </g>
    <g id="line2d_82">
     <path d="M 434.727453 282.239156 
L 434.727453 282.239156 
L 447.327453 282.239156 
L 447.327453 282.239156 
L 459.927453 282.239156 
" style="fill: none; stroke: #c44e52; stroke-width: 1.2; stroke-linecap: square"/>
    </g>
    <g id="text_19">
     <!-- local_Min -->
     <g style="fill: #b1bed6" transform="translate(470.007453 286.649156) scale(0.126 -0.126)">
      <defs>
       <path id="DejaVuSans-6c" d="M 603 4863 
L 1178 4863 
L 1178 0 
L 603 0 
L 603 4863 
z
" transform="scale(0.015625)"/>
       <path id="DejaVuSans-6f" d="M 1959 3097 
Q 1497 3097 1228 2736 
Q 959 2375 959 1747 
Q 959 1119 1226 758 
Q 1494 397 1959 397 
Q 2419 397 2687 759 
Q 2956 1122 2956 1747 
Q 2956 2369 2687 2733 
Q 2419 3097 1959 3097 
z
M 1959 3584 
Q 2709 3584 3137 3096 
Q 3566 2609 3566 1747 
Q 3566 888 3137 398 
Q 2709 -91 1959 -91 
Q 1206 -91 779 398 
Q 353 888 353 1747 
Q 353 2609 779 3096 
Q 1206 3584 1959 3584 
z
" transform="scale(0.015625)"/>
       <path id="DejaVuSans-63" d="M 3122 3366 
L 3122 2828 
Q 2878 2963 2633 3030 
Q 2388 3097 2138 3097 
Q 1578 3097 1268 2742 
Q 959 2388 959 1747 
Q 959 1106 1268 751 
Q 1578 397 2138 397 
Q 2388 397 2633 464 
Q 2878 531 3122 666 
L 3122 134 
Q 2881 22 2623 -34 
Q 2366 -91 2075 -91 
Q 1284 -91 818 406 
Q 353 903 353 1747 
Q 353 2603 823 3093 
Q 1294 3584 2113 3584 
Q 2378 3584 2631 3529 
Q 2884 3475 3122 3366 
z
" transform="scale(0.015625)"/>
       <path id="DejaVuSans-5f" d="M 3263 -1063 
L 3263 -1509 
L -63 -1509 
L -63 -1063 
L 3263 -1063 
z
" transform="scale(0.015625)"/>
       <path id="DejaVuSans-69" d="M 603 3500 
L 1178 3500 
L 1178 0 
L 603 0 
L 603 3500 
z
M 603 4863 
L 1178 4863 
L 1178 4134 
L 603 4134 
L 603 4863 
z
" transform="scale(0.015625)"/>
       <path id="DejaVuSans-6e" d="M 3513 2113 
L 3513 0 
L 2938 0 
L 2938 2094 
Q 2938 2591 2744 2837 
Q 2550 3084 2163 3084 
Q 1697 3084 1428 2787 
Q 1159 2491 1159 1978 
L 1159 0 
L 581 0 
L 581 3500 
L 1159 3500 
L 1159 2956 
Q 1366 3272 1645 3428 
Q 1925 3584 2291 3584 
Q 2894 3584 3203 3211 
Q 3513 2838 3513 2113 
z
" transform="scale(0.015625)"/>
      </defs>
      <use xlink:href="#DejaVuSans-6c"/>
      <use xlink:href="#DejaVuSans-6f" x="27.783203"/>
      <use xlink:href="#DejaVuSans-63" x="88.964844"/>
      <use xlink:href="#DejaVuSans-61" x="143.945312"/>
      <use xlink:href="#DejaVuSans-6c" x="205.224609"/>
      <use xlink:href="#DejaVuSans-5f" x="233.007812"/>
      <use xlink:href="#DejaVuSans-4d" x="283.007812"/>
      <use xlink:href="#DejaVuSans-69" x="369.287109"/>
      <use xlink:href="#DejaVuSans-6e" x="397.070312"/>
     </g>
    </g>
   </g>
  </g>
 </g>
 <defs>
  <clipPath id="p7c1b6b8def">
   <rect x="34.976" y="7.2" width="892.8" height="293.76"/>
  </clipPath>
 </defs>
</svg>
