<?xml version="1.0" encoding="utf-8" standalone="no"?>
<!DOCTYPE svg PUBLIC "-//W3C//DTD SVG 1.1//EN"
  "http://www.w3.org/Graphics/SVG/1.1/DTD/svg11.dtd">
<svg xmlns:xlink="http://www.w3.org/1999/xlink" width="960.9005pt" height="368.580365pt" viewBox="0 0 960.9005 368.580365" xmlns="http://www.w3.org/2000/svg" version="1.1">
 <metadata>
  <rdf:RDF xmlns:dc="http://purl.org/dc/elements/1.1/" xmlns:cc="http://creativecommons.org/ns#" xmlns:rdf="http://www.w3.org/1999/02/22-rdf-syntax-ns#">
   <cc:Work>
    <dc:type rdf:resource="http://purl.org/dc/dcmitype/StillImage"/>
    <dc:date>2026-02-26T23:59:05.643994</dc:date>
    <dc:format>image/svg+xml</dc:format>
    <dc:creator>
     <cc:Agent>
      <dc:title>Matplotlib v3.10.8, https://matplotlib.org/</dc:title>
     </cc:Agent>
    </dc:creator>
   </cc:Work>
  </rdf:RDF>
 </metadata>
 <defs>
  <style type="text/css">*{stroke-linejoin: round; stroke-linecap: butt}</style>
 </defs>
 <g id="figure_1">
  <g id="patch_1">
   <path d="M 0 368.580365 
L 960.9005 368.580365 
L 960.9005 0 
L 0 0 
z
" style="fill: #373e4b"/>
  </g>
  <g id="axes_1">
   <g id="patch_2">
    <path d="M 60.9005 300.96 
L 953.7005 300.96 
L 953.7005 7.2 
L 60.9005 7.2 
z
" style="fill: #373e4b"/>
   </g>
   <g id="matplotlib.axis_1">
    <g id="xtick_1">
     <g id="line2d_1">
      <path d="M 131.750552 300.96 
L 131.750552 7.2 
" clip-path="url(#p32d2a76118)" style="fill: none; stroke: #546379; stroke-width: 1.12; stroke-linecap: square"/>
     </g>
     <g id="line2d_2"/>
     <g id="text_1">
      <!-- 2024-04 -->
      <g style="fill: #b1bed6" transform="translate(84.847277 341.174526) rotate(-30) scale(0.126 -0.126)">
       <defs>
        <path id="DejaVuSans-32" d="M 1228 531 
L 3431 531 
L 3431 0 
L 469 0 
L 469 531 
Q 828 903 1448 1529 
Q 2069 2156 2228 2338 
Q 2531 2678 2651 2914 
Q 2772 3150 2772 3378 
Q 2772 3750 2511 3984 
Q 2250 4219 1831 4219 
Q 1534 4219 1204 4116 
Q 875 4013 500 3803 
L 500 4441 
Q 881 4594 1212 4672 
Q 1544 4750 1819 4750 
Q 2544 4750 2975 4387 
Q 3406 4025 3406 3419 
Q 3406 3131 3298 2873 
Q 3191 2616 2906 2266 
Q 2828 2175 2409 1742 
Q 1991 1309 1228 531 
z
" transform="scale(0.015625)"/>
        <path id="DejaVuSans-30" d="M 2034 4250 
Q 1547 4250 1301 3770 
Q 1056 3291 1056 2328 
Q 1056 1369 1301 889 
Q 1547 409 2034 409 
Q 2525 409 2770 889 
Q 3016 1369 3016 2328 
Q 3016 3291 2770 3770 
Q 2525 4250 2034 4250 
z
M 2034 4750 
Q 2819 4750 3233 4129 
Q 3647 3509 3647 2328 
Q 3647 1150 3233 529 
Q 2819 -91 2034 -91 
Q 1250 -91 836 529 
Q 422 1150 422 2328 
Q 422 3509 836 4129 
Q 1250 4750 2034 4750 
z
" transform="scale(0.015625)"/>
        <path id="DejaVuSans-34" d="M 2419 4116 
L 825 1625 
L 2419 1625 
L 2419 4116 
z
M 2253 4666 
L 3047 4666 
L 3047 1625 
L 3713 1625 
L 3713 1100 
L 3047 1100 
L 3047 0 
L 2419 0 
L 2419 1100 
L 313 1100 
L 313 1709 
L 2253 4666 
z
" transform="scale(0.015625)"/>
        <path id="DejaVuSans-2d" d="M 313 2009 
L 1997 2009 
L 1997 1497 
L 313 1497 
L 313 2009 
z
" transform="scale(0.015625)"/>
       </defs>
       <use xlink:href="#DejaVuSans-32"/>
       <use xlink:href="#DejaVuSans-30" transform="translate(63.623047 0)"/>
       <use xlink:href="#DejaVuSans-32" transform="translate(127.246094 0)"/>
       <use xlink:href="#DejaVuSans-34" transform="translate(190.869141 0)"/>
       <use xlink:href="#DejaVuSans-2d" transform="translate(254.492188 0)"/>
       <use xlink:href="#DejaVuSans-30" transform="translate(290.576172 0)"/>
       <use xlink:href="#DejaVuSans-34" transform="translate(354.199219 0)"/>
      </g>
     </g>
    </g>
    <g id="xtick_2">
     <g id="line2d_3">
      <path d="M 233.765709 300.96 
L 233.765709 7.2 
" clip-path="url(#p32d2a76118)" style="fill: none; stroke: #546379; stroke-width: 1.12; stroke-linecap: square"/>
     </g>
     <g id="line2d_4"/>
     <g id="text_2">
      <!-- 2024-07 -->
      <g style="fill: #b1bed6" transform="translate(186.862435 341.174526) rotate(-30) scale(0.126 -0.126)">
       <defs>
        <path id="DejaVuSans-37" d="M 525 4666 
L 3525 4666 
L 3525 4397 
L 1831 0 
L 1172 0 
L 2766 4134 
L 525 4134 
L 525 4666 
z
" transform="scale(0.015625)"/>
       </defs>
       <use xlink:href="#DejaVuSans-32"/>
       <use xlink:href="#DejaVuSans-30" transform="translate(63.623047 0)"/>
       <use xlink:href="#DejaVuSans-32" transform="translate(127.246094 0)"/>
       <use xlink:href="#DejaVuSans-34" transform="translate(190.869141 0)"/>
       <use xlink:href="#DejaVuSans-2d" transform="translate(254.492188 0)"/>
       <use xlink:href="#DejaVuSans-30" transform="translate(290.576172 0)"/>
       <use xlink:href="#DejaVuSans-37" transform="translate(354.199219 0)"/>
      </g>
     </g>
    </g>
    <g id="xtick_3">
     <g id="line2d_5">
      <path d="M 336.901912 300.96 
L 336.901912 7.2 
" clip-path="url(#p32d2a76118)" style="fill: none; stroke: #546379; stroke-width: 1.12; stroke-linecap: square"/>
     </g>
     <g id="line2d_6"/>
     <g id="text_3">
      <!-- 2024-10 -->
      <g style="fill: #b1bed6" transform="translate(289.998637 341.174526) rotate(-30) scale(0.126 -0.126)">
       <defs>
        <path id="DejaVuSans-31" d="M 794 531 
L 1825 531 
L 1825 4091 
L 703 3866 
L 703 4441 
L 1819 4666 
L 2450 4666 
L 2450 531 
L 3481 531 
L 3481 0 
L 794 0 
L 794 531 
z
" transform="scale(0.015625)"/>
       </defs>
       <use xlink:href="#DejaVuSans-32"/>
       <use xlink:href="#DejaVuSans-30" transform="translate(63.623047 0)"/>
       <use xlink:href="#DejaVuSans-32" transform="translate(127.246094 0)"/>
       <use xlink:href="#DejaVuSans-34" transform="translate(190.869141 0)"/>
       <use xlink:href="#DejaVuSans-2d" transform="translate(254.492188 0)"/>
       <use xlink:href="#DejaVuSans-31" transform="translate(290.576172 0)"/>
       <use xlink:href="#DejaVuSans-30" transform="translate(354.199219 0)"/>
      </g>
     </g>
    </g>
    <g id="xtick_4">
     <g id="line2d_7">
      <path d="M 440.038114 300.96 
L 440.038114 7.2 
" clip-path="url(#p32d2a76118)" style="fill: none; stroke: #546379; stroke-width: 1.12; stroke-linecap: square"/>
     </g>
     <g id="line2d_8"/>
     <g id="text_4">
      <!-- 2025-01 -->
      <g style="fill: #b1bed6" transform="translate(393.13484 341.174526) rotate(-30) scale(0.126 -0.126)">
       <defs>
        <path id="DejaVuSans-35" d="M 691 4666 
L 3169 4666 
L 3169 4134 
L 1269 4134 
L 1269 2991 
Q 1406 3038 1543 3061 
Q 1681 3084 1819 3084 
Q 2600 3084 3056 2656 
Q 3513 2228 3513 1497 
Q 3513 744 3044 326 
Q 2575 -91 1722 -91 
Q 1428 -91 1123 -41 
Q 819 9 494 109 
L 494 744 
Q 775 591 1075 516 
Q 1375 441 1709 441 
Q 2250 441 2565 725 
Q 2881 1009 2881 1497 
Q 2881 1984 2565 2268 
Q 2250 2553 1709 2553 
Q 1456 2553 1204 2497 
Q 953 2441 691 2322 
L 691 4666 
z
" transform="scale(0.015625)"/>
       </defs>
       <use xlink:href="#DejaVuSans-32"/>
       <use xlink:href="#DejaVuSans-30" transform="translate(63.623047 0)"/>
       <use xlink:href="#DejaVuSans-32" transform="translate(127.246094 0)"/>
       <use xlink:href="#DejaVuSans-35" transform="translate(190.869141 0)"/>
       <use xlink:href="#DejaVuSans-2d" transform="translate(254.492188 0)"/>
       <use xlink:href="#DejaVuSans-30" transform="translate(290.576172 0)"/>
       <use xlink:href="#DejaVuSans-31" transform="translate(354.199219 0)"/>
      </g>
     </g>
    </g>
    <g id="xtick_5">
     <g id="line2d_9">
      <path d="M 540.932226 300.96 
L 540.932226 7.2 
" clip-path="url(#p32d2a76118)" style="fill: none; stroke: #546379; stroke-width: 1.12; stroke-linecap: square"/>
     </g>
     <g id="line2d_10"/>
     <g id="text_5">
      <!-- 2025-04 -->
      <g style="fill: #b1bed6" transform="translate(494.028952 341.174526) rotate(-30) scale(0.126 -0.126)">
       <use xlink:href="#DejaVuSans-32"/>
       <use xlink:href="#DejaVuSans-30" transform="translate(63.623047 0)"/>
       <use xlink:href="#DejaVuSans-32" transform="translate(127.246094 0)"/>
       <use xlink:href="#DejaVuSans-35" transform="translate(190.869141 0)"/>
       <use xlink:href="#DejaVuSans-2d" transform="translate(254.492188 0)"/>
       <use xlink:href="#DejaVuSans-30" transform="translate(290.576172 0)"/>
       <use xlink:href="#DejaVuSans-34" transform="translate(354.199219 0)"/>
      </g>
     </g>
    </g>
    <g id="xtick_6">
     <g id="line2d_11">
      <path d="M 642.947383 300.96 
L 642.947383 7.2 
" clip-path="url(#p32d2a76118)" style="fill: none; stroke: #546379; stroke-width: 1.12; stroke-linecap: square"/>
     </g>
     <g id="line2d_12"/>
     <g id="text_6">
      <!-- 2025-07 -->
      <g style="fill: #b1bed6" transform="translate(596.044109 341.174526) rotate(-30) scale(0.126 -0.126)">
       <use xlink:href="#DejaVuSans-32"/>
       <use xlink:href="#DejaVuSans-30" transform="translate(63.623047 0)"/>
       <use xlink:href="#DejaVuSans-32" transform="translate(127.246094 0)"/>
       <use xlink:href="#DejaVuSans-35" transform="translate(190.869141 0)"/>
       <use xlink:href="#DejaVuSans-2d" transform="translate(254.492188 0)"/>
       <use xlink:href="#DejaVuSans-30" transform="translate(290.576172 0)"/>
       <use xlink:href="#DejaVuSans-37" transform="translate(354.199219 0)"/>
      </g>
     </g>
    </g>
    <g id="xtick_7">
     <g id="line2d_13">
      <path d="M 746.083586 300.96 
L 746.083586 7.2 
" clip-path="url(#p32d2a76118)" style="fill: none; stroke: #546379; stroke-width: 1.12; stroke-linecap: square"/>
     </g>
     <g id="line2d_14"/>
     <g id="text_7">
      <!-- 2025-10 -->
      <g style="fill: #b1bed6" transform="translate(699.180312 341.174526) rotate(-30) scale(0.126 -0.126)">
       <use xlink:href="#DejaVuSans-32"/>
       <use xlink:href="#DejaVuSans-30" transform="translate(63.623047 0)"/>
       <use xlink:href="#DejaVuSans-32" transform="translate(127.246094 0)"/>
       <use xlink:href="#DejaVuSans-35" transform="translate(190.869141 0)"/>
       <use xlink:href="#DejaVuSans-2d" transform="translate(254.492188 0)"/>
       <use xlink:href="#DejaVuSans-31" transform="translate(290.576172 0)"/>
       <use xlink:href="#DejaVuSans-30" transform="translate(354.199219 0)"/>
      </g>
     </g>
    </g>
    <g id="xtick_8">
     <g id="line2d_15">
      <path d="M 849.219789 300.96 
L 849.219789 7.2 
" clip-path="url(#p32d2a76118)" style="fill: none; stroke: #546379; stroke-width: 1.12; stroke-linecap: square"/>
     </g>
     <g id="line2d_16"/>
     <g id="text_8">
      <!-- 2026-01 -->
      <g style="fill: #b1bed6" transform="translate(802.316514 341.174526) rotate(-30) scale(0.126 -0.126)">
       <defs>
        <path id="DejaVuSans-36" d="M 2113 2584 
Q 1688 2584 1439 2293 
Q 1191 2003 1191 1497 
Q 1191 994 1439 701 
Q 1688 409 2113 409 
Q 2538 409 2786 701 
Q 3034 994 3034 1497 
Q 3034 2003 2786 2293 
Q 2538 2584 2113 2584 
z
M 3366 4563 
L 3366 3988 
Q 3128 4100 2886 4159 
Q 2644 4219 2406 4219 
Q 1781 4219 1451 3797 
Q 1122 3375 1075 2522 
Q 1259 2794 1537 2939 
Q 1816 3084 2150 3084 
Q 2853 3084 3261 2657 
Q 3669 2231 3669 1497 
Q 3669 778 3244 343 
Q 2819 -91 2113 -91 
Q 1303 -91 875 529 
Q 447 1150 447 2328 
Q 447 3434 972 4092 
Q 1497 4750 2381 4750 
Q 2619 4750 2861 4703 
Q 3103 4656 3366 4563 
z
" transform="scale(0.015625)"/>
       </defs>
       <use xlink:href="#DejaVuSans-32"/>
       <use xlink:href="#DejaVuSans-30" transform="translate(63.623047 0)"/>
       <use xlink:href="#DejaVuSans-32" transform="translate(127.246094 0)"/>
       <use xlink:href="#DejaVuSans-36" transform="translate(190.869141 0)"/>
       <use xlink:href="#DejaVuSans-2d" transform="translate(254.492188 0)"/>
       <use xlink:href="#DejaVuSans-30" transform="translate(290.576172 0)"/>
       <use xlink:href="#DejaVuSans-31" transform="translate(354.199219 0)"/>
      </g>
     </g>
    </g>
    <g id="xtick_9">
     <g id="line2d_17">
      <path d="M 950.1139 300.96 
L 950.1139 7.2 
" clip-path="url(#p32d2a76118)" style="fill: none; stroke: #546379; stroke-width: 1.12; stroke-linecap: square"/>
     </g>
     <g id="line2d_18"/>
     <g id="text_9">
      <!-- 2026-04 -->
      <g style="fill: #b1bed6" transform="translate(903.210626 341.174526) rotate(-30) scale(0.126 -0.126)">
       <use xlink:href="#DejaVuSans-32"/>
       <use xlink:href="#DejaVuSans-30" transform="translate(63.623047 0)"/>
       <use xlink:href="#DejaVuSans-32" transform="translate(127.246094 0)"/>
       <use xlink:href="#DejaVuSans-36" transform="translate(190.869141 0)"/>
       <use xlink:href="#DejaVuSans-2d" transform="translate(254.492188 0)"/>
       <use xlink:href="#DejaVuSans-30" transform="translate(290.576172 0)"/>
       <use xlink:href="#DejaVuSans-34" transform="translate(354.199219 0)"/>
      </g>
     </g>
    </g>
    <g id="text_10">
     <!-- Date -->
     <g style="fill: #b1bed6" transform="translate(490.091375 358.385615) scale(0.144 -0.144)">
      <defs>
       <path id="DejaVuSans-44" d="M 1259 4147 
L 1259 519 
L 2022 519 
Q 2988 519 3436 956 
Q 3884 1394 3884 2338 
Q 3884 3275 3436 3711 
Q 2988 4147 2022 4147 
L 1259 4147 
z
M 628 4666 
L 1925 4666 
Q 3281 4666 3915 4102 
Q 4550 3538 4550 2338 
Q 4550 1131 3912 565 
Q 3275 0 1925 0 
L 628 0 
L 628 4666 
z
" transform="scale(0.015625)"/>
       <path id="DejaVuSans-61" d="M 2194 1759 
Q 1497 1759 1228 1600 
Q 959 1441 959 1056 
Q 959 750 1161 570 
Q 1363 391 1709 391 
Q 2188 391 2477 730 
Q 2766 1069 2766 1631 
L 2766 1759 
L 2194 1759 
z
M 3341 1997 
L 3341 0 
L 2766 0 
L 2766 531 
Q 2569 213 2275 61 
Q 1981 -91 1556 -91 
Q 1019 -91 701 211 
Q 384 513 384 1019 
Q 384 1609 779 1909 
Q 1175 2209 1959 2209 
L 2766 2209 
L 2766 2266 
Q 2766 2663 2505 2880 
Q 2244 3097 1772 3097 
Q 1472 3097 1187 3025 
Q 903 2953 641 2809 
L 641 3341 
Q 956 3463 1253 3523 
Q 1550 3584 1831 3584 
Q 2591 3584 2966 3190 
Q 3341 2797 3341 1997 
z
" transform="scale(0.015625)"/>
       <path id="DejaVuSans-74" d="M 1172 4494 
L 1172 3500 
L 2356 3500 
L 2356 3053 
L 1172 3053 
L 1172 1153 
Q 1172 725 1289 603 
Q 1406 481 1766 481 
L 2356 481 
L 2356 0 
L 1766 0 
Q 1100 0 847 248 
Q 594 497 594 1153 
L 594 3053 
L 172 3053 
L 172 3500 
L 594 3500 
L 594 4494 
L 1172 4494 
z
" transform="scale(0.015625)"/>
       <path id="DejaVuSans-65" d="M 3597 1894 
L 3597 1613 
L 953 1613 
Q 991 1019 1311 708 
Q 1631 397 2203 397 
Q 2534 397 2845 478 
Q 3156 559 3463 722 
L 3463 178 
Q 3153 47 2828 -22 
Q 2503 -91 2169 -91 
Q 1331 -91 842 396 
Q 353 884 353 1716 
Q 353 2575 817 3079 
Q 1281 3584 2069 3584 
Q 2775 3584 3186 3129 
Q 3597 2675 3597 1894 
z
M 3022 2063 
Q 3016 2534 2758 2815 
Q 2500 3097 2075 3097 
Q 1594 3097 1305 2825 
Q 1016 2553 972 2059 
L 3022 2063 
z
" transform="scale(0.015625)"/>
      </defs>
      <use xlink:href="#DejaVuSans-44"/>
      <use xlink:href="#DejaVuSans-61" transform="translate(77.001953 0)"/>
      <use xlink:href="#DejaVuSans-74" transform="translate(138.28125 0)"/>
      <use xlink:href="#DejaVuSans-65" transform="translate(177.490234 0)"/>
     </g>
    </g>
   </g>
   <g id="matplotlib.axis_2">
    <g id="ytick_1">
     <g id="line2d_19">
      <path d="M 60.9005 267.604795 
L 953.7005 267.604795 
" clip-path="url(#p32d2a76118)" style="fill: none; stroke: #546379; stroke-width: 1.12; stroke-linecap: square"/>
     </g>
     <g id="line2d_20"/>
     <g id="text_11">
      <!-- 60000 -->
      <g style="fill: #b1bed6" transform="translate(15.21675 272.391811) scale(0.126 -0.126)">
       <use xlink:href="#DejaVuSans-36"/>
       <use xlink:href="#DejaVuSans-30" transform="translate(63.623047 0)"/>
       <use xlink:href="#DejaVuSans-30" transform="translate(127.246094 0)"/>
       <use xlink:href="#DejaVuSans-30" transform="translate(190.869141 0)"/>
       <use xlink:href="#DejaVuSans-30" transform="translate(254.492188 0)"/>
      </g>
     </g>
    </g>
    <g id="ytick_2">
     <g id="line2d_21">
      <path d="M 60.9005 228.710883 
L 953.7005 228.710883 
" clip-path="url(#p32d2a76118)" style="fill: none; stroke: #546379; stroke-width: 1.12; stroke-linecap: square"/>
     </g>
     <g id="line2d_22"/>
     <g id="text_12">
      <!-- 70000 -->
      <g style="fill: #b1bed6" transform="translate(15.21675 233.497899) scale(0.126 -0.126)">
       <use xlink:href="#DejaVuSans-37"/>
       <use xlink:href="#DejaVuSans-30" transform="translate(63.623047 0)"/>
       <use xlink:href="#DejaVuSans-30" transform="translate(127.246094 0)"/>
       <use xlink:href="#DejaVuSans-30" transform="translate(190.869141 0)"/>
       <use xlink:href="#DejaVuSans-30" transform="translate(254.492188 0)"/>
      </g>
     </g>
    </g>
    <g id="ytick_3">
     <g id="line2d_23">
      <path d="M 60.9005 189.816971 
L 953.7005 189.816971 
" clip-path="url(#p32d2a76118)" style="fill: none; stroke: #546379; stroke-width: 1.12; stroke-linecap: square"/>
     </g>
     <g id="line2d_24"/>
     <g id="text_13">
      <!-- 80000 -->
      <g style="fill: #b1bed6" transform="translate(15.21675 194.603987) scale(0.126 -0.126)">
       <defs>
        <path id="DejaVuSans-38" d="M 2034 2216 
Q 1584 2216 1326 1975 
Q 1069 1734 1069 1313 
Q 1069 891 1326 650 
Q 1584 409 2034 409 
Q 2484 409 2743 651 
Q 3003 894 3003 1313 
Q 3003 1734 2745 1975 
Q 2488 2216 2034 2216 
z
M 1403 2484 
Q 997 2584 770 2862 
Q 544 3141 544 3541 
Q 544 4100 942 4425 
Q 1341 4750 2034 4750 
Q 2731 4750 3128 4425 
Q 3525 4100 3525 3541 
Q 3525 3141 3298 2862 
Q 3072 2584 2669 2484 
Q 3125 2378 3379 2068 
Q 3634 1759 3634 1313 
Q 3634 634 3220 271 
Q 2806 -91 2034 -91 
Q 1263 -91 848 271 
Q 434 634 434 1313 
Q 434 1759 690 2068 
Q 947 2378 1403 2484 
z
M 1172 3481 
Q 1172 3119 1398 2916 
Q 1625 2713 2034 2713 
Q 2441 2713 2670 2916 
Q 2900 3119 2900 3481 
Q 2900 3844 2670 4047 
Q 2441 4250 2034 4250 
Q 1625 4250 1398 4047 
Q 1172 3844 1172 3481 
z
" transform="scale(0.015625)"/>
       </defs>
       <use xlink:href="#DejaVuSans-38"/>
       <use xlink:href="#DejaVuSans-30" transform="translate(63.623047 0)"/>
       <use xlink:href="#DejaVuSans-30" transform="translate(127.246094 0)"/>
       <use xlink:href="#DejaVuSans-30" transform="translate(190.869141 0)"/>
       <use xlink:href="#DejaVuSans-30" transform="translate(254.492188 0)"/>
      </g>
     </g>
    </g>
    <g id="ytick_4">
     <g id="line2d_25">
      <path d="M 60.9005 150.923059 
L 953.7005 150.923059 
" clip-path="url(#p32d2a76118)" style="fill: none; stroke: #546379; stroke-width: 1.12; stroke-linecap: square"/>
     </g>
     <g id="line2d_26"/>
     <g id="text_14">
      <!-- 90000 -->
      <g style="fill: #b1bed6" transform="translate(15.21675 155.710075) scale(0.126 -0.126)">
       <defs>
        <path id="DejaVuSans-39" d="M 703 97 
L 703 672 
Q 941 559 1184 500 
Q 1428 441 1663 441 
Q 2288 441 2617 861 
Q 2947 1281 2994 2138 
Q 2813 1869 2534 1725 
Q 2256 1581 1919 1581 
Q 1219 1581 811 2004 
Q 403 2428 403 3163 
Q 403 3881 828 4315 
Q 1253 4750 1959 4750 
Q 2769 4750 3195 4129 
Q 3622 3509 3622 2328 
Q 3622 1225 3098 567 
Q 2575 -91 1691 -91 
Q 1453 -91 1209 -44 
Q 966 3 703 97 
z
M 1959 2075 
Q 2384 2075 2632 2365 
Q 2881 2656 2881 3163 
Q 2881 3666 2632 3958 
Q 2384 4250 1959 4250 
Q 1534 4250 1286 3958 
Q 1038 3666 1038 3163 
Q 1038 2656 1286 2365 
Q 1534 2075 1959 2075 
z
" transform="scale(0.015625)"/>
       </defs>
       <use xlink:href="#DejaVuSans-39"/>
       <use xlink:href="#DejaVuSans-30" transform="translate(63.623047 0)"/>
       <use xlink:href="#DejaVuSans-30" transform="translate(127.246094 0)"/>
       <use xlink:href="#DejaVuSans-30" transform="translate(190.869141 0)"/>
       <use xlink:href="#DejaVuSans-30" transform="translate(254.492188 0)"/>
      </g>
     </g>
    </g>
    <g id="ytick_5">
     <g id="line2d_27">
      <path d="M 60.9005 112.029147 
L 953.7005 112.029147 
" clip-path="url(#p32d2a76118)" style="fill: none; stroke: #546379; stroke-width: 1.12; stroke-linecap: square"/>
     </g>
     <g id="line2d_28"/>
     <g id="text_15">
      <!-- 100000 -->
      <g style="fill: #b1bed6" transform="translate(7.2 116.816163) scale(0.126 -0.126)">
       <use xlink:href="#DejaVuSans-31"/>
       <use xlink:href="#DejaVuSans-30" transform="translate(63.623047 0)"/>
       <use xlink:href="#DejaVuSans-30" transform="translate(127.246094 0)"/>
       <use xlink:href="#DejaVuSans-30" transform="translate(190.869141 0)"/>
       <use xlink:href="#DejaVuSans-30" transform="translate(254.492188 0)"/>
       <use xlink:href="#DejaVuSans-30" transform="translate(318.115234 0)"/>
      </g>
     </g>
    </g>
    <g id="ytick_6">
     <g id="line2d_29">
      <path d="M 60.9005 73.135235 
L 953.7005 73.135235 
" clip-path="url(#p32d2a76118)" style="fill: none; stroke: #546379; stroke-width: 1.12; stroke-linecap: square"/>
     </g>
     <g id="line2d_30"/>
     <g id="text_16">
      <!-- 110000 -->
      <g style="fill: #b1bed6" transform="translate(7.2 77.922251) scale(0.126 -0.126)">
       <use xlink:href="#DejaVuSans-31"/>
       <use xlink:href="#DejaVuSans-31" transform="translate(63.623047 0)"/>
       <use xlink:href="#DejaVuSans-30" transform="translate(127.246094 0)"/>
       <use xlink:href="#DejaVuSans-30" transform="translate(190.869141 0)"/>
       <use xlink:href="#DejaVuSans-30" transform="translate(254.492188 0)"/>
       <use xlink:href="#DejaVuSans-30" transform="translate(318.115234 0)"/>
      </g>
     </g>
    </g>
    <g id="ytick_7">
     <g id="line2d_31">
      <path d="M 60.9005 34.241323 
L 953.7005 34.241323 
" clip-path="url(#p32d2a76118)" style="fill: none; stroke: #546379; stroke-width: 1.12; stroke-linecap: square"/>
     </g>
     <g id="line2d_32"/>
     <g id="text_17">
      <!-- 120000 -->
      <g style="fill: #b1bed6" transform="translate(7.2 39.028339) scale(0.126 -0.126)">
       <use xlink:href="#DejaVuSans-31"/>
       <use xlink:href="#DejaVuSans-32" transform="translate(63.623047 0)"/>
       <use xlink:href="#DejaVuSans-30" transform="translate(127.246094 0)"/>
       <use xlink:href="#DejaVuSans-30" transform="translate(190.869141 0)"/>
       <use xlink:href="#DejaVuSans-30" transform="translate(254.492188 0)"/>
       <use xlink:href="#DejaVuSans-30" transform="translate(318.115234 0)"/>
      </g>
     </g>
    </g>
   </g>
   <g id="line2d_33">
    <path d="M 101.482318 235.020759 
L 101.482318 235.296011 
L 105.966501 235.296011 
L 105.966501 222.918724 
L 110.450684 222.918724 
L 110.450684 246.976748 
L 114.934866 246.976748 
L 114.934866 237.045148 
L 119.419049 237.045148 
L 119.419049 239.498771 
L 123.903232 239.498771 
L 123.903232 225.775598 
L 128.387415 225.775598 
L 128.387415 229.872644 
L 132.871597 229.872644 
L 132.871597 237.044215 
L 137.35578 237.044215 
L 137.35578 232.048953 
L 141.839963 232.048953 
L 141.839963 251.970454 
L 146.324145 251.970454 
L 146.324145 262.624391 
L 150.808328 262.624391 
L 150.808328 248.353125 
L 155.292511 248.353125 
L 155.292511 250.155858 
L 159.776694 250.155858 
L 159.776694 252.697848 
L 164.260876 252.697848 
L 164.260876 256.382851 
L 168.745059 256.382851 
L 168.745059 258.568261 
L 173.229242 258.568261 
L 173.229242 264.470801 
L 177.713425 264.470801 
L 177.713425 243.338378 
L 186.68179 243.233597 
L 186.68179 236.714355 
L 191.165973 236.714355 
L 191.165973 231.144981 
L 195.650156 231.144981 
L 195.650156 238.492974 
L 200.134338 238.492974 
L 200.134338 226.559116 
L 204.618521 226.559116 
L 204.618521 231.441508 
L 209.102704 231.441508 
L 209.102704 235.557028 
L 213.586886 235.557028 
L 213.586886 241.791489 
L 218.071069 241.791489 
L 218.071069 248.817908 
L 222.555252 248.817908 
L 222.555252 266.517555 
L 227.039435 266.517555 
L 227.039435 266.377031 
L 231.523617 266.377031 
L 231.523617 259.715632 
L 236.0078 259.715632 
L 236.0078 274.351916 
L 240.491983 274.351916 
L 240.491983 276.382723 
L 244.976166 276.382723 
L 244.976166 264.500438 
L 249.460348 264.500438 
L 249.460348 252.169318 
L 253.944531 252.169318 
L 253.944531 238.056079 
L 258.428714 238.056079 
L 258.428714 236.820808 
L 262.912897 236.820808 
L 262.912897 243.568357 
L 267.397079 243.568357 
L 267.397079 264.972922 
L 271.881262 264.972922 
L 271.881262 286.921573 
L 276.365445 286.921573 
L 276.365445 272.594884 
L 280.849627 272.594884 
L 280.849627 277.236989 
L 285.33381 277.236989 
L 285.33381 269.643186 
L 289.817993 269.643186 
L 289.817993 251.728106 
L 294.302176 251.728106 
L 294.302176 269.678541 
L 298.786358 269.678541 
L 298.786358 271.615107 
L 303.270541 271.615107 
L 303.270541 275.512744 
L 307.754724 275.512744 
L 307.754724 287.607273 
L 312.238907 287.607273 
L 312.238907 274.852675 
L 316.723089 274.852675 
L 316.723089 274.625224 
L 321.207272 274.625224 
L 321.207272 255.107442 
L 325.691455 255.107442 
L 325.691455 250.961934 
L 330.175637 250.961934 
L 330.175637 244.702115 
L 334.65982 244.702115 
L 334.65982 265.117646 
L 339.144003 265.117646 
L 339.144003 256.656431 
L 343.628186 256.656431 
L 343.628186 266.557615 
L 348.112368 266.557615 
L 348.112368 244.079579 
L 352.596551 244.079579 
L 352.596551 234.832007 
L 357.080734 234.832007 
L 357.080734 238.946983 
L 361.564917 238.946983 
L 361.564917 240.306014 
L 366.049099 240.306014 
L 366.049099 219.649107 
L 370.533282 219.649107 
L 370.533282 233.595142 
L 375.017465 233.595142 
L 375.017465 205.661145 
L 379.501648 205.661145 
L 379.501648 155.902491 
L 383.98583 155.902491 
L 383.98583 146.787703 
L 388.470013 146.787703 
L 388.470013 141.707302 
L 392.954196 141.707302 
L 392.954196 120.675497 
L 397.438378 120.675497 
L 397.438378 127.753994 
L 401.922561 127.753994 
L 401.922561 122.633105 
L 406.406744 122.633105 
L 406.406744 123.387958 
L 410.890927 123.387958 
L 410.890927 121.886614 
L 415.375109 121.886614 
L 415.375109 106.321349 
L 419.859292 106.321349 
L 419.859292 88.086016 
L 424.343475 88.086016 
L 424.343475 122.816218 
L 428.827658 122.816218 
L 428.827658 114.751254 
L 433.31184 114.751254 
L 433.31184 137.168538 
L 437.796023 137.168538 
L 437.796023 124.266611 
L 442.280206 124.266611 
L 442.280206 103.265143 
L 446.764389 103.265143 
L 446.764389 132.632575 
L 451.248571 132.632575 
L 451.248571 125.536458 
L 455.732754 125.536458 
L 455.732754 94.881249 
L 460.216937 94.881249 
L 460.216937 97.883198 
L 464.701119 97.883198 
L 464.701119 101.945395 
L 469.185302 101.945395 
L 469.185302 93.577992 
L 473.669485 93.577992 
L 473.669485 106.526592 
L 478.153668 106.526592 
L 478.153668 125.483718 
L 482.63785 125.483718 
L 482.63785 128.551281 
L 487.122033 128.551281 
L 487.122033 121.3885 
L 491.606216 121.3885 
L 491.606216 125.08665 
L 496.090399 125.08665 
L 496.090399 126.517946 
L 500.574581 126.517946 
L 500.574581 171.747404 
L 505.058764 171.747404 
L 505.058764 166.16251 
L 509.542947 166.16251 
L 509.542947 163.581005 
L 514.027129 163.581005 
L 514.027129 178.695957 
L 518.511312 178.695957 
L 518.511312 172.93853 
L 522.995495 172.93853 
L 522.995495 163.106266 
L 527.479678 163.106266 
L 527.479678 166.258617 
L 531.96386 166.258617 
L 531.96386 161.860922 
L 536.448043 161.860922 
L 536.448043 179.972338 
L 540.932226 179.972338 
L 540.932226 174.873891 
L 545.416409 174.873891 
L 545.416409 204.337741 
L 549.900591 204.337741 
L 549.900591 169.268267 
L 554.384774 169.268267 
L 554.384774 174.128762 
L 558.868957 174.128762 
L 558.868957 169.69855 
L 563.35314 169.69855 
L 563.35314 135.479181 
L 567.837322 135.479181 
L 567.837322 131.483104 
L 572.321505 131.483104 
L 572.321505 123.981207 
L 576.805688 123.981207 
L 576.805688 124.403673 
L 581.28987 124.403673 
L 581.28987 93.491258 
L 585.774053 93.491258 
L 585.774053 98.213174 
L 590.258236 98.213174 
L 590.258236 87.040742 
L 594.742419 87.040742 
L 594.742419 66.436964 
L 599.226601 66.436964 
L 599.226601 75.152584 
L 603.710784 75.152584 
L 603.710784 96.363963 
L 608.194967 96.363963 
L 608.194967 90.892367 
L 612.67915 90.892367 
L 612.67915 90.120129 
L 617.163332 90.120129 
L 617.163332 78.236094 
L 621.647515 78.236094 
L 621.647515 90.409188 
L 626.131698 90.409188 
L 626.131698 93.825474 
L 630.615881 93.825474 
L 630.615881 91.103055 
L 635.100063 91.103055 
L 635.100063 84.374292 
L 639.584246 84.374292 
L 639.584246 89.836903 
L 644.068429 89.836903 
L 644.068429 79.96839 
L 648.552611 79.96839 
L 648.552611 68.058529 
L 653.036794 68.058529 
L 653.036794 37.759705 
L 657.520977 37.759705 
L 657.520977 37.053936 
L 662.00516 37.053936 
L 662.00516 44.171755 
L 666.489342 44.171755 
L 666.489342 43.387888 
L 670.973525 43.387888 
L 670.973525 42.30967 
L 675.457708 42.30967 
L 675.457708 63.327357 
L 679.941891 63.327357 
L 679.941891 53.593144 
L 684.426073 53.593144 
L 684.426073 36.98171 
L 688.910256 36.98171 
L 688.910256 40.51141 
L 693.394439 40.51141 
L 693.394439 48.822184 
L 697.878621 48.822184 
L 697.878621 46.42698 
L 702.362804 46.42698 
L 702.362804 66.120757 
L 706.846987 66.120757 
L 706.846987 77.838326 
L 711.33117 77.838326 
L 711.33117 66.377223 
L 715.815352 66.377223 
L 715.815352 68.563411 
L 720.299535 68.563411 
L 720.299535 51.674819 
L 724.783718 51.674819 
L 724.783718 52.123188 
L 729.267901 52.123188 
L 729.267901 50.999154 
L 733.752083 50.999154 
L 733.752083 65.31647 
L 738.236266 65.31647 
L 738.236266 74.345419 
L 742.720449 74.345419 
L 742.720449 39.617589 
L 747.204632 39.617589 
L 747.204632 20.552727 
L 751.688814 20.552727 
L 751.688814 27.690071 
L 756.172997 27.690071 
L 756.172997 52.846342 
L 760.65718 52.846342 
L 760.65718 86.880149 
L 765.141362 86.880149 
L 765.141362 79.171337 
L 769.625545 79.171337 
L 769.625545 66.765812 
L 774.109728 66.765812 
L 774.109728 72.868734 
L 778.593911 72.868734 
L 778.593911 70.79386 
L 783.078093 70.79386 
L 783.078093 107.040769 
L 787.562276 107.040769 
L 787.562276 88.839469 
L 792.046459 88.839469 
L 792.046459 133.812732 
L 796.530642 133.812732 
L 796.530642 139.336135 
L 801.014824 139.336135 
L 801.014824 171.623838 
L 805.499007 171.623838 
L 805.499007 148.910105 
L 809.98319 148.910105 
L 809.98319 149.458975 
L 814.467373 149.458975 
L 814.467373 142.592022 
L 818.951555 142.592022 
L 818.951555 148.419963 
L 823.435738 148.419963 
L 823.435738 149.874518 
L 827.919921 149.874518 
L 827.919921 159.342074 
L 832.404103 159.342074 
L 832.404103 157.389522 
L 836.888286 157.389522 
L 836.888286 160.227338 
L 841.372469 160.227338 
L 841.372469 159.343124 
L 845.856652 159.343124 
L 845.856652 155.843139 
L 850.340834 155.843139 
L 850.340834 135.822925 
L 854.825017 135.822925 
L 854.825017 148.995166 
L 859.3092 148.995166 
L 859.3092 130.177785 
L 863.793383 130.177785 
L 863.793383 131.09537 
L 868.277565 131.09537 
L 868.277565 153.35494 
L 872.761748 153.35494 
L 872.761748 164.260015 
L 877.245931 164.260015 
L 877.245931 172.068123 
L 881.730113 172.068123 
L 881.730113 194.951823 
L 886.214296 194.951823 
L 886.214296 226.687155 
L 890.698479 226.687155 
L 890.698479 233.400516 
L 895.182662 233.400516 
L 895.182662 229.665028 
L 899.666844 229.665028 
L 899.666844 242.604566 
L 904.151027 242.604566 
L 904.151027 237.98747 
L 908.63521 237.98747 
L 908.63521 238.544515 
L 913.118682 238.544515 
L 913.118682 238.544515 
" clip-path="url(#p32d2a76118)" style="fill: none; stroke: #3572c6; stroke-width: 1.2; stroke-linecap: square"/>
   </g>
   <g id="patch_3">
    <path d="M 60.9005 300.96 
L 60.9005 7.2 
" style="fill: none; stroke: #899ab8; stroke-width: 1.12; stroke-linejoin: miter; stroke-linecap: square"/>
   </g>
   <g id="patch_4">
    <path d="M 953.7005 300.96 
L 953.7005 7.2 
" style="fill: none; stroke: #899ab8; stroke-width: 1.12; stroke-linejoin: miter; stroke-linecap: square"/>
   </g>
   <g id="patch_5">
    <path d="M 60.9005 300.96 
L 953.7005 300.96 
" style="fill: none; stroke: #899ab8; stroke-width: 1.12; stroke-linejoin: miter; stroke-linecap: square"/>
   </g>
   <g id="patch_6">
    <path d="M 60.9005 7.2 
L 953.7005 7.2 
" style="fill: none; stroke: #899ab8; stroke-width: 1.12; stroke-linejoin: miter; stroke-linecap: square"/>
   </g>
  </g>
 </g>
 <defs>
  <clipPath id="p32d2a76118">
   <rect x="60.9005" y="7.2" width="892.8" height="293.76"/>
  </clipPath>
 </defs>
</svg>
