<?xml version="1.0" encoding="utf-8" standalone="no"?>
<!DOCTYPE svg PUBLIC "-//W3C//DTD SVG 1.1//EN"
  "http://www.w3.org/Graphics/SVG/1.1/DTD/svg11.dtd">
<svg xmlns:xlink="http://www.w3.org/1999/xlink" width="934.976pt" height="358.470384pt" viewBox="0 0 934.976 358.470384" xmlns="http://www.w3.org/2000/svg" version="1.1">
 <metadata>
  <rdf:RDF xmlns:dc="http://purl.org/dc/elements/1.1/" xmlns:cc="http://creativecommons.org/ns#" xmlns:rdf="http://www.w3.org/1999/02/22-rdf-syntax-ns#">
   <cc:Work>
    <dc:type rdf:resource="http://purl.org/dc/dcmitype/StillImage"/>
    <dc:date>2021-12-18T21:46:13.478265</dc:date>
    <dc:format>image/svg+xml</dc:format>
    <dc:creator>
     <cc:Agent>
      <dc:title>Matplotlib v3.5.1, https://matplotlib.org/</dc:title>
     </cc:Agent>
    </dc:creator>
   </cc:Work>
  </rdf:RDF>
 </metadata>
 <defs>
  <style type="text/css">*{stroke-linejoin: round; stroke-linecap: butt}</style>
 </defs>
 <g id="figure_1">
  <g id="patch_1">
   <path d="M 0 358.470384 
L 934.976 358.470384 
L 934.976 0 
L 0 0 
z
" style="fill: #373e4b"/>
  </g>
  <g id="axes_1">
   <g id="patch_2">
    <path d="M 34.976 301.139691 
L 927.776 301.139691 
L 927.776 7.379691 
L 34.976 7.379691 
z
" style="fill: #373e4b"/>
   </g>
   <g id="matplotlib.axis_1">
    <g id="xtick_1">
     <g id="line2d_1">
      <path d="M 160.238369 301.139691 
L 160.238369 7.379691 
" clip-path="url(#pc4cb8966e0)" style="fill: none; stroke: #546379; stroke-width: 1.12; stroke-linecap: square"/>
     </g>
     <g id="line2d_2"/>
     <g id="text_1">
      <!-- 2012 -->
      <g style="fill: #b1bed6" transform="translate(131.157329 331.064545)rotate(-30)scale(0.126 -0.126)">
       <defs>
        <path id="DejaVuSans-32" d="M 1228 531 
L 3431 531 
L 3431 0 
L 469 0 
L 469 531 
Q 828 903 1448 1529 
Q 2069 2156 2228 2338 
Q 2531 2678 2651 2914 
Q 2772 3150 2772 3378 
Q 2772 3750 2511 3984 
Q 2250 4219 1831 4219 
Q 1534 4219 1204 4116 
Q 875 4013 500 3803 
L 500 4441 
Q 881 4594 1212 4672 
Q 1544 4750 1819 4750 
Q 2544 4750 2975 4387 
Q 3406 4025 3406 3419 
Q 3406 3131 3298 2873 
Q 3191 2616 2906 2266 
Q 2828 2175 2409 1742 
Q 1991 1309 1228 531 
z
" transform="scale(0.015625)"/>
        <path id="DejaVuSans-30" d="M 2034 4250 
Q 1547 4250 1301 3770 
Q 1056 3291 1056 2328 
Q 1056 1369 1301 889 
Q 1547 409 2034 409 
Q 2525 409 2770 889 
Q 3016 1369 3016 2328 
Q 3016 3291 2770 3770 
Q 2525 4250 2034 4250 
z
M 2034 4750 
Q 2819 4750 3233 4129 
Q 3647 3509 3647 2328 
Q 3647 1150 3233 529 
Q 2819 -91 2034 -91 
Q 1250 -91 836 529 
Q 422 1150 422 2328 
Q 422 3509 836 4129 
Q 1250 4750 2034 4750 
z
" transform="scale(0.015625)"/>
        <path id="DejaVuSans-31" d="M 794 531 
L 1825 531 
L 1825 4091 
L 703 3866 
L 703 4441 
L 1819 4666 
L 2450 4666 
L 2450 531 
L 3481 531 
L 3481 0 
L 794 0 
L 794 531 
z
" transform="scale(0.015625)"/>
       </defs>
       <use xlink:href="#DejaVuSans-32"/>
       <use xlink:href="#DejaVuSans-30" x="63.623047"/>
       <use xlink:href="#DejaVuSans-31" x="127.246094"/>
       <use xlink:href="#DejaVuSans-32" x="190.869141"/>
      </g>
     </g>
    </g>
    <g id="xtick_2">
     <g id="line2d_3">
      <path d="M 306.232431 301.139691 
L 306.232431 7.379691 
" clip-path="url(#pc4cb8966e0)" style="fill: none; stroke: #546379; stroke-width: 1.12; stroke-linecap: square"/>
     </g>
     <g id="line2d_4"/>
     <g id="text_2">
      <!-- 2014 -->
      <g style="fill: #b1bed6" transform="translate(277.151391 331.064545)rotate(-30)scale(0.126 -0.126)">
       <defs>
        <path id="DejaVuSans-34" d="M 2419 4116 
L 825 1625 
L 2419 1625 
L 2419 4116 
z
M 2253 4666 
L 3047 4666 
L 3047 1625 
L 3713 1625 
L 3713 1100 
L 3047 1100 
L 3047 0 
L 2419 0 
L 2419 1100 
L 313 1100 
L 313 1709 
L 2253 4666 
z
" transform="scale(0.015625)"/>
       </defs>
       <use xlink:href="#DejaVuSans-32"/>
       <use xlink:href="#DejaVuSans-30" x="63.623047"/>
       <use xlink:href="#DejaVuSans-31" x="127.246094"/>
       <use xlink:href="#DejaVuSans-34" x="190.869141"/>
      </g>
     </g>
    </g>
    <g id="xtick_3">
     <g id="line2d_5">
      <path d="M 452.026775 301.139691 
L 452.026775 7.379691 
" clip-path="url(#pc4cb8966e0)" style="fill: none; stroke: #546379; stroke-width: 1.12; stroke-linecap: square"/>
     </g>
     <g id="line2d_6"/>
     <g id="text_3">
      <!-- 2016 -->
      <g style="fill: #b1bed6" transform="translate(422.945735 331.064545)rotate(-30)scale(0.126 -0.126)">
       <defs>
        <path id="DejaVuSans-36" d="M 2113 2584 
Q 1688 2584 1439 2293 
Q 1191 2003 1191 1497 
Q 1191 994 1439 701 
Q 1688 409 2113 409 
Q 2538 409 2786 701 
Q 3034 994 3034 1497 
Q 3034 2003 2786 2293 
Q 2538 2584 2113 2584 
z
M 3366 4563 
L 3366 3988 
Q 3128 4100 2886 4159 
Q 2644 4219 2406 4219 
Q 1781 4219 1451 3797 
Q 1122 3375 1075 2522 
Q 1259 2794 1537 2939 
Q 1816 3084 2150 3084 
Q 2853 3084 3261 2657 
Q 3669 2231 3669 1497 
Q 3669 778 3244 343 
Q 2819 -91 2113 -91 
Q 1303 -91 875 529 
Q 447 1150 447 2328 
Q 447 3434 972 4092 
Q 1497 4750 2381 4750 
Q 2619 4750 2861 4703 
Q 3103 4656 3366 4563 
z
" transform="scale(0.015625)"/>
       </defs>
       <use xlink:href="#DejaVuSans-32"/>
       <use xlink:href="#DejaVuSans-30" x="63.623047"/>
       <use xlink:href="#DejaVuSans-31" x="127.246094"/>
       <use xlink:href="#DejaVuSans-36" x="190.869141"/>
      </g>
     </g>
    </g>
    <g id="xtick_4">
     <g id="line2d_7">
      <path d="M 598.020837 301.139691 
L 598.020837 7.379691 
" clip-path="url(#pc4cb8966e0)" style="fill: none; stroke: #546379; stroke-width: 1.12; stroke-linecap: square"/>
     </g>
     <g id="line2d_8"/>
     <g id="text_4">
      <!-- 2018 -->
      <g style="fill: #b1bed6" transform="translate(568.939797 331.064545)rotate(-30)scale(0.126 -0.126)">
       <defs>
        <path id="DejaVuSans-38" d="M 2034 2216 
Q 1584 2216 1326 1975 
Q 1069 1734 1069 1313 
Q 1069 891 1326 650 
Q 1584 409 2034 409 
Q 2484 409 2743 651 
Q 3003 894 3003 1313 
Q 3003 1734 2745 1975 
Q 2488 2216 2034 2216 
z
M 1403 2484 
Q 997 2584 770 2862 
Q 544 3141 544 3541 
Q 544 4100 942 4425 
Q 1341 4750 2034 4750 
Q 2731 4750 3128 4425 
Q 3525 4100 3525 3541 
Q 3525 3141 3298 2862 
Q 3072 2584 2669 2484 
Q 3125 2378 3379 2068 
Q 3634 1759 3634 1313 
Q 3634 634 3220 271 
Q 2806 -91 2034 -91 
Q 1263 -91 848 271 
Q 434 634 434 1313 
Q 434 1759 690 2068 
Q 947 2378 1403 2484 
z
M 1172 3481 
Q 1172 3119 1398 2916 
Q 1625 2713 2034 2713 
Q 2441 2713 2670 2916 
Q 2900 3119 2900 3481 
Q 2900 3844 2670 4047 
Q 2441 4250 2034 4250 
Q 1625 4250 1398 4047 
Q 1172 3844 1172 3481 
z
" transform="scale(0.015625)"/>
       </defs>
       <use xlink:href="#DejaVuSans-32"/>
       <use xlink:href="#DejaVuSans-30" x="63.623047"/>
       <use xlink:href="#DejaVuSans-31" x="127.246094"/>
       <use xlink:href="#DejaVuSans-38" x="190.869141"/>
      </g>
     </g>
    </g>
    <g id="xtick_5">
     <g id="line2d_9">
      <path d="M 743.815181 301.139691 
L 743.815181 7.379691 
" clip-path="url(#pc4cb8966e0)" style="fill: none; stroke: #546379; stroke-width: 1.12; stroke-linecap: square"/>
     </g>
     <g id="line2d_10"/>
     <g id="text_5">
      <!-- 2020 -->
      <g style="fill: #b1bed6" transform="translate(714.734141 331.064545)rotate(-30)scale(0.126 -0.126)">
       <use xlink:href="#DejaVuSans-32"/>
       <use xlink:href="#DejaVuSans-30" x="63.623047"/>
       <use xlink:href="#DejaVuSans-32" x="127.246094"/>
       <use xlink:href="#DejaVuSans-30" x="190.869141"/>
      </g>
     </g>
    </g>
    <g id="xtick_6">
     <g id="line2d_11">
      <path d="M 889.809243 301.139691 
L 889.809243 7.379691 
" clip-path="url(#pc4cb8966e0)" style="fill: none; stroke: #546379; stroke-width: 1.12; stroke-linecap: square"/>
     </g>
     <g id="line2d_12"/>
     <g id="text_6">
      <!-- 2022 -->
      <g style="fill: #b1bed6" transform="translate(860.728203 331.064545)rotate(-30)scale(0.126 -0.126)">
       <use xlink:href="#DejaVuSans-32"/>
       <use xlink:href="#DejaVuSans-30" x="63.623047"/>
       <use xlink:href="#DejaVuSans-32" x="127.246094"/>
       <use xlink:href="#DejaVuSans-32" x="190.869141"/>
      </g>
     </g>
    </g>
    <g id="text_7">
     <!-- Date -->
     <g style="fill: #b1bed6" transform="translate(464.166875 348.275634)scale(0.144 -0.144)">
      <defs>
       <path id="DejaVuSans-44" d="M 1259 4147 
L 1259 519 
L 2022 519 
Q 2988 519 3436 956 
Q 3884 1394 3884 2338 
Q 3884 3275 3436 3711 
Q 2988 4147 2022 4147 
L 1259 4147 
z
M 628 4666 
L 1925 4666 
Q 3281 4666 3915 4102 
Q 4550 3538 4550 2338 
Q 4550 1131 3912 565 
Q 3275 0 1925 0 
L 628 0 
L 628 4666 
z
" transform="scale(0.015625)"/>
       <path id="DejaVuSans-61" d="M 2194 1759 
Q 1497 1759 1228 1600 
Q 959 1441 959 1056 
Q 959 750 1161 570 
Q 1363 391 1709 391 
Q 2188 391 2477 730 
Q 2766 1069 2766 1631 
L 2766 1759 
L 2194 1759 
z
M 3341 1997 
L 3341 0 
L 2766 0 
L 2766 531 
Q 2569 213 2275 61 
Q 1981 -91 1556 -91 
Q 1019 -91 701 211 
Q 384 513 384 1019 
Q 384 1609 779 1909 
Q 1175 2209 1959 2209 
L 2766 2209 
L 2766 2266 
Q 2766 2663 2505 2880 
Q 2244 3097 1772 3097 
Q 1472 3097 1187 3025 
Q 903 2953 641 2809 
L 641 3341 
Q 956 3463 1253 3523 
Q 1550 3584 1831 3584 
Q 2591 3584 2966 3190 
Q 3341 2797 3341 1997 
z
" transform="scale(0.015625)"/>
       <path id="DejaVuSans-74" d="M 1172 4494 
L 1172 3500 
L 2356 3500 
L 2356 3053 
L 1172 3053 
L 1172 1153 
Q 1172 725 1289 603 
Q 1406 481 1766 481 
L 2356 481 
L 2356 0 
L 1766 0 
Q 1100 0 847 248 
Q 594 497 594 1153 
L 594 3053 
L 172 3053 
L 172 3500 
L 594 3500 
L 594 4494 
L 1172 4494 
z
" transform="scale(0.015625)"/>
       <path id="DejaVuSans-65" d="M 3597 1894 
L 3597 1613 
L 953 1613 
Q 991 1019 1311 708 
Q 1631 397 2203 397 
Q 2534 397 2845 478 
Q 3156 559 3463 722 
L 3463 178 
Q 3153 47 2828 -22 
Q 2503 -91 2169 -91 
Q 1331 -91 842 396 
Q 353 884 353 1716 
Q 353 2575 817 3079 
Q 1281 3584 2069 3584 
Q 2775 3584 3186 3129 
Q 3597 2675 3597 1894 
z
M 3022 2063 
Q 3016 2534 2758 2815 
Q 2500 3097 2075 3097 
Q 1594 3097 1305 2825 
Q 1016 2553 972 2059 
L 3022 2063 
z
" transform="scale(0.015625)"/>
      </defs>
      <use xlink:href="#DejaVuSans-44"/>
      <use xlink:href="#DejaVuSans-61" x="77.001953"/>
      <use xlink:href="#DejaVuSans-74" x="138.28125"/>
      <use xlink:href="#DejaVuSans-65" x="177.490234"/>
     </g>
    </g>
   </g>
   <g id="matplotlib.axis_2">
    <g id="ytick_1">
     <g id="line2d_13">
      <path d="M 34.976 254.863557 
L 927.776 254.863557 
" clip-path="url(#pc4cb8966e0)" style="fill: none; stroke: #546379; stroke-width: 1.12; stroke-linecap: square"/>
     </g>
     <g id="line2d_14"/>
     <g id="text_8">
      <!-- $\mathdefault{10^{0}}$ -->
      <g style="fill: #b1bed6" transform="translate(7.2 259.650573)scale(0.126 -0.126)">
       <use xlink:href="#DejaVuSans-31" transform="translate(0 0.765625)"/>
       <use xlink:href="#DejaVuSans-30" transform="translate(63.623047 0.765625)"/>
       <use xlink:href="#DejaVuSans-30" transform="translate(128.203125 39.046875)scale(0.7)"/>
      </g>
     </g>
    </g>
    <g id="ytick_2">
     <g id="line2d_15">
      <path d="M 34.976 206.288249 
L 927.776 206.288249 
" clip-path="url(#pc4cb8966e0)" style="fill: none; stroke: #546379; stroke-width: 1.12; stroke-linecap: square"/>
     </g>
     <g id="line2d_16"/>
     <g id="text_9">
      <!-- $\mathdefault{10^{1}}$ -->
      <g style="fill: #b1bed6" transform="translate(7.2 211.075264)scale(0.126 -0.126)">
       <use xlink:href="#DejaVuSans-31" transform="translate(0 0.684375)"/>
       <use xlink:href="#DejaVuSans-30" transform="translate(63.623047 0.684375)"/>
       <use xlink:href="#DejaVuSans-31" transform="translate(128.203125 38.965625)scale(0.7)"/>
      </g>
     </g>
    </g>
    <g id="ytick_3">
     <g id="line2d_17">
      <path d="M 34.976 157.71294 
L 927.776 157.71294 
" clip-path="url(#pc4cb8966e0)" style="fill: none; stroke: #546379; stroke-width: 1.12; stroke-linecap: square"/>
     </g>
     <g id="line2d_18"/>
     <g id="text_10">
      <!-- $\mathdefault{10^{2}}$ -->
      <g style="fill: #b1bed6" transform="translate(7.2 162.499956)scale(0.126 -0.126)">
       <use xlink:href="#DejaVuSans-31" transform="translate(0 0.765625)"/>
       <use xlink:href="#DejaVuSans-30" transform="translate(63.623047 0.765625)"/>
       <use xlink:href="#DejaVuSans-32" transform="translate(128.203125 39.046875)scale(0.7)"/>
      </g>
     </g>
    </g>
    <g id="ytick_4">
     <g id="line2d_19">
      <path d="M 34.976 109.137632 
L 927.776 109.137632 
" clip-path="url(#pc4cb8966e0)" style="fill: none; stroke: #546379; stroke-width: 1.12; stroke-linecap: square"/>
     </g>
     <g id="line2d_20"/>
     <g id="text_11">
      <!-- $\mathdefault{10^{3}}$ -->
      <g style="fill: #b1bed6" transform="translate(7.2 113.924648)scale(0.126 -0.126)">
       <defs>
        <path id="DejaVuSans-33" d="M 2597 2516 
Q 3050 2419 3304 2112 
Q 3559 1806 3559 1356 
Q 3559 666 3084 287 
Q 2609 -91 1734 -91 
Q 1441 -91 1130 -33 
Q 819 25 488 141 
L 488 750 
Q 750 597 1062 519 
Q 1375 441 1716 441 
Q 2309 441 2620 675 
Q 2931 909 2931 1356 
Q 2931 1769 2642 2001 
Q 2353 2234 1838 2234 
L 1294 2234 
L 1294 2753 
L 1863 2753 
Q 2328 2753 2575 2939 
Q 2822 3125 2822 3475 
Q 2822 3834 2567 4026 
Q 2313 4219 1838 4219 
Q 1578 4219 1281 4162 
Q 984 4106 628 3988 
L 628 4550 
Q 988 4650 1302 4700 
Q 1616 4750 1894 4750 
Q 2613 4750 3031 4423 
Q 3450 4097 3450 3541 
Q 3450 3153 3228 2886 
Q 3006 2619 2597 2516 
z
" transform="scale(0.015625)"/>
       </defs>
       <use xlink:href="#DejaVuSans-31" transform="translate(0 0.765625)"/>
       <use xlink:href="#DejaVuSans-30" transform="translate(63.623047 0.765625)"/>
       <use xlink:href="#DejaVuSans-33" transform="translate(128.203125 39.046875)scale(0.7)"/>
      </g>
     </g>
    </g>
    <g id="ytick_5">
     <g id="line2d_21">
      <path d="M 34.976 60.562324 
L 927.776 60.562324 
" clip-path="url(#pc4cb8966e0)" style="fill: none; stroke: #546379; stroke-width: 1.12; stroke-linecap: square"/>
     </g>
     <g id="line2d_22"/>
     <g id="text_12">
      <!-- $\mathdefault{10^{4}}$ -->
      <g style="fill: #b1bed6" transform="translate(7.2 65.34934)scale(0.126 -0.126)">
       <use xlink:href="#DejaVuSans-31" transform="translate(0 0.684375)"/>
       <use xlink:href="#DejaVuSans-30" transform="translate(63.623047 0.684375)"/>
       <use xlink:href="#DejaVuSans-34" transform="translate(128.203125 38.965625)scale(0.7)"/>
      </g>
     </g>
    </g>
    <g id="ytick_6">
     <g id="line2d_23">
      <path d="M 34.976 11.987016 
L 927.776 11.987016 
" clip-path="url(#pc4cb8966e0)" style="fill: none; stroke: #546379; stroke-width: 1.12; stroke-linecap: square"/>
     </g>
     <g id="line2d_24"/>
     <g id="text_13">
      <!-- $\mathdefault{10^{5}}$ -->
      <g style="fill: #b1bed6" transform="translate(7.2 16.774031)scale(0.126 -0.126)">
       <defs>
        <path id="DejaVuSans-35" d="M 691 4666 
L 3169 4666 
L 3169 4134 
L 1269 4134 
L 1269 2991 
Q 1406 3038 1543 3061 
Q 1681 3084 1819 3084 
Q 2600 3084 3056 2656 
Q 3513 2228 3513 1497 
Q 3513 744 3044 326 
Q 2575 -91 1722 -91 
Q 1428 -91 1123 -41 
Q 819 9 494 109 
L 494 744 
Q 775 591 1075 516 
Q 1375 441 1709 441 
Q 2250 441 2565 725 
Q 2881 1009 2881 1497 
Q 2881 1984 2565 2268 
Q 2250 2553 1709 2553 
Q 1456 2553 1204 2497 
Q 953 2441 691 2322 
L 691 4666 
z
" transform="scale(0.015625)"/>
       </defs>
       <use xlink:href="#DejaVuSans-31" transform="translate(0 0.684375)"/>
       <use xlink:href="#DejaVuSans-30" transform="translate(63.623047 0.684375)"/>
       <use xlink:href="#DejaVuSans-35" transform="translate(128.203125 38.965625)scale(0.7)"/>
      </g>
     </g>
    </g>
    <g id="ytick_7">
     <g id="line2d_25"/>
    </g>
    <g id="ytick_8">
     <g id="line2d_26"/>
    </g>
    <g id="ytick_9">
     <g id="line2d_27"/>
    </g>
    <g id="ytick_10">
     <g id="line2d_28"/>
    </g>
    <g id="ytick_11">
     <g id="line2d_29"/>
    </g>
    <g id="ytick_12">
     <g id="line2d_30"/>
    </g>
    <g id="ytick_13">
     <g id="line2d_31"/>
    </g>
    <g id="ytick_14">
     <g id="line2d_32"/>
    </g>
    <g id="ytick_15">
     <g id="line2d_33"/>
    </g>
    <g id="ytick_16">
     <g id="line2d_34"/>
    </g>
    <g id="ytick_17">
     <g id="line2d_35"/>
    </g>
    <g id="ytick_18">
     <g id="line2d_36"/>
    </g>
    <g id="ytick_19">
     <g id="line2d_37"/>
    </g>
    <g id="ytick_20">
     <g id="line2d_38"/>
    </g>
    <g id="ytick_21">
     <g id="line2d_39"/>
    </g>
    <g id="ytick_22">
     <g id="line2d_40"/>
    </g>
    <g id="ytick_23">
     <g id="line2d_41"/>
    </g>
    <g id="ytick_24">
     <g id="line2d_42"/>
    </g>
    <g id="ytick_25">
     <g id="line2d_43"/>
    </g>
    <g id="ytick_26">
     <g id="line2d_44"/>
    </g>
    <g id="ytick_27">
     <g id="line2d_45"/>
    </g>
    <g id="ytick_28">
     <g id="line2d_46"/>
    </g>
    <g id="ytick_29">
     <g id="line2d_47"/>
    </g>
    <g id="ytick_30">
     <g id="line2d_48"/>
    </g>
    <g id="ytick_31">
     <g id="line2d_49"/>
    </g>
    <g id="ytick_32">
     <g id="line2d_50"/>
    </g>
    <g id="ytick_33">
     <g id="line2d_51"/>
    </g>
    <g id="ytick_34">
     <g id="line2d_52"/>
    </g>
    <g id="ytick_35">
     <g id="line2d_53"/>
    </g>
    <g id="ytick_36">
     <g id="line2d_54"/>
    </g>
    <g id="ytick_37">
     <g id="line2d_55"/>
    </g>
    <g id="ytick_38">
     <g id="line2d_56"/>
    </g>
    <g id="ytick_39">
     <g id="line2d_57"/>
    </g>
    <g id="ytick_40">
     <g id="line2d_58"/>
    </g>
    <g id="ytick_41">
     <g id="line2d_59"/>
    </g>
    <g id="ytick_42">
     <g id="line2d_60"/>
    </g>
    <g id="ytick_43">
     <g id="line2d_61"/>
    </g>
    <g id="ytick_44">
     <g id="line2d_62"/>
    </g>
    <g id="ytick_45">
     <g id="line2d_63"/>
    </g>
    <g id="ytick_46">
     <g id="line2d_64"/>
    </g>
    <g id="ytick_47">
     <g id="line2d_65"/>
    </g>
    <g id="ytick_48">
     <g id="line2d_66"/>
    </g>
    <g id="ytick_49">
     <g id="line2d_67"/>
    </g>
    <g id="ytick_50">
     <g id="line2d_68"/>
    </g>
    <g id="ytick_51">
     <g id="line2d_69"/>
    </g>
    <g id="ytick_52">
     <g id="line2d_70"/>
    </g>
    <g id="ytick_53">
     <g id="line2d_71"/>
    </g>
    <g id="ytick_54">
     <g id="line2d_72"/>
    </g>
   </g>
   <g id="line2d_73">
    <path d="M 75.557818 287.786964 
L 75.557818 284.108807 
L 76.156973 284.108807 
L 76.156973 276.4163 
L 76.756128 276.4163 
L 76.756128 284.969987 
L 77.355283 284.969987 
L 77.355283 280.262553 
L 77.954438 280.262553 
L 77.954438 281.718026 
L 78.553592 281.718026 
L 78.553592 280.97774 
L 80.351057 280.97774 
L 80.351057 281.718026 
L 80.950212 281.718026 
L 80.950212 284.108807 
L 81.549367 284.108807 
L 81.549367 285.867824 
L 82.148521 285.867824 
L 82.148521 284.108807 
L 82.747676 284.108807 
L 82.747676 285.867824 
L 83.945986 285.867824 
L 83.945986 284.108807 
L 84.545141 284.108807 
L 84.545141 282.485237 
L 85.144296 282.485237 
L 85.144296 284.108807 
L 85.74345 284.108807 
L 85.74345 282.485237 
L 86.342605 282.485237 
L 86.342605 280.262553 
L 88.14007 280.262553 
L 88.14007 278.901049 
L 88.739225 278.901049 
L 88.739225 278.251891 
L 89.338379 278.251891 
L 89.338379 273.164339 
L 89.937534 273.164339 
L 89.937534 274.193616 
L 90.536689 274.193616 
L 90.536689 277.010592 
L 91.135844 277.010592 
L 91.135844 272.66794 
L 92.334154 272.66794 
L 92.334154 271.708866 
L 92.933308 271.708866 
L 92.933308 265.291226 
L 93.532463 265.291226 
L 93.532463 260.105095 
L 94.131618 260.105095 
L 94.131618 256.622574 
L 94.730773 256.622574 
L 94.730773 255.506124 
L 95.329928 255.506124 
L 95.329928 253.045553 
L 95.929083 253.045553 
L 95.929083 253.239988 
L 96.528238 253.239988 
L 96.528238 254.036157 
L 97.127392 254.036157 
L 97.127392 257.560328 
L 97.726547 257.560328 
L 97.726547 255.724737 
L 98.924857 255.724737 
L 98.924857 255.94564 
L 99.524012 255.94564 
L 99.524012 256.622574 
L 100.123167 256.622574 
L 100.123167 257.086241 
L 100.722321 257.086241 
L 100.722321 256.394508 
L 101.321476 256.394508 
L 101.321476 257.086241 
L 101.920631 257.086241 
L 101.920631 257.801428 
L 102.519786 257.801428 
L 102.519786 259.836353 
L 103.118941 259.836353 
L 103.118941 258.045315 
L 103.718096 258.045315 
L 103.718096 257.086241 
L 104.31725 257.086241 
L 104.31725 259.570991 
L 105.51556 259.570991 
L 105.51556 260.377305 
L 106.114715 260.377305 
L 106.114715 260.105095 
L 106.71387 260.105095 
L 106.71387 260.653074 
L 107.313025 260.653074 
L 107.313025 255.075579 
L 107.912179 255.075579 
L 107.912179 253.045553 
L 108.511334 253.045553 
L 108.511334 251.19384 
L 109.110489 251.19384 
L 109.110489 248.068887 
L 109.709644 248.068887 
L 109.709644 243.545699 
L 110.308799 243.545699 
L 110.308799 234.224801 
L 110.907954 234.224801 
L 110.907954 225.883669 
L 111.507108 225.883669 
L 111.507108 228.076703 
L 112.106263 228.076703 
L 112.106263 226.979811 
L 112.705418 226.979811 
L 112.705418 219.248274 
L 113.304573 219.248274 
L 113.304573 209.568356 
L 113.903728 209.568356 
L 113.903728 209.791334 
L 114.502883 209.791334 
L 114.502883 212.98526 
L 115.102037 212.98526 
L 115.102037 214.393179 
L 115.701192 214.393179 
L 115.701192 211.127946 
L 116.300347 211.127946 
L 116.300347 209.274672 
L 116.899502 209.274672 
L 116.899502 207.437056 
L 117.498657 207.437056 
L 117.498657 197.664359 
L 118.097812 197.664359 
L 118.097812 192.537795 
L 118.696967 192.537795 
L 118.696967 181.52747 
L 119.296121 181.52747 
L 119.296121 187.068176 
L 119.895276 187.068176 
L 119.895276 191.676175 
L 120.494431 191.676175 
L 120.494431 194.362395 
L 121.093586 194.362395 
L 121.093586 197.193075 
L 121.692741 197.193075 
L 121.692741 195.15626 
L 122.291896 195.15626 
L 122.291896 194.017624 
L 122.89105 194.017624 
L 122.89105 194.627757 
L 123.490205 194.627757 
L 123.490205 196.718683 
L 124.08936 196.718683 
L 124.08936 195.800752 
L 124.688515 195.800752 
L 124.688515 197.510729 
L 125.28767 197.510729 
L 125.28767 198.42067 
L 125.886825 198.42067 
L 125.886825 198.816644 
L 126.485979 198.816644 
L 126.485979 199.295779 
L 127.684289 199.28064 
L 127.684289 198.950305 
L 128.882599 199.039884 
L 128.882599 199.099816 
L 129.481754 199.099816 
L 129.481754 200.161377 
L 130.080908 200.161377 
L 130.080908 203.4871 
L 130.680063 203.4871 
L 130.680063 207.017989 
L 131.279218 207.017989 
L 131.279218 205.562517 
L 131.878373 205.562517 
L 131.878373 203.524078 
L 133.076683 203.542591 
L 133.076683 202.886138 
L 133.675837 202.886138 
L 133.675837 203.394937 
L 134.274992 203.394937 
L 134.274992 206.267163 
L 134.874147 206.267163 
L 134.874147 207.593572 
L 135.473302 207.593572 
L 135.473302 209.816256 
L 136.072457 209.816256 
L 136.072457 209.568356 
L 136.671612 209.568356 
L 136.671612 212.272971 
L 137.270766 212.272971 
L 137.270766 215.40852 
L 137.869921 215.40852 
L 137.869921 216.40694 
L 138.469076 216.40694 
L 138.469076 220.164769 
L 139.068231 220.164769 
L 139.068231 217.454969 
L 139.667386 217.454969 
L 139.667386 217.779807 
L 140.266541 217.779807 
L 140.266541 218.938602 
L 140.865696 218.938602 
L 140.865696 221.122895 
L 141.46485 221.122895 
L 141.46485 219.801384 
L 142.064005 219.801384 
L 142.064005 220.784676 
L 142.66316 220.784676 
L 142.66316 221.81605 
L 143.262315 221.81605 
L 143.262315 224.438881 
L 143.86147 224.438881 
L 143.86147 223.751974 
L 144.460625 223.751974 
L 144.460625 226.315316 
L 145.059779 226.315316 
L 145.059779 234.787394 
L 145.658934 234.787394 
L 145.658934 229.612752 
L 146.258089 229.612752 
L 146.258089 231.687245 
L 146.857244 231.687245 
L 146.857244 229.108943 
L 148.055554 229.171265 
L 148.055554 229.804826 
L 148.654708 229.804826 
L 148.654708 231.407824 
L 149.253863 231.407824 
L 149.253863 231.063673 
L 149.853018 231.063673 
L 149.853018 230.927569 
L 150.452173 230.927569 
L 150.452173 234.145641 
L 151.051328 234.145641 
L 151.051328 236.660041 
L 151.650483 236.660041 
L 151.650483 237.292516 
L 152.249637 237.292516 
L 152.249637 235.702945 
L 152.848792 235.702945 
L 152.848792 235.449283 
L 153.447947 235.449283 
L 153.447947 231.687245 
L 154.047102 231.687245 
L 154.047102 230.995511 
L 154.646257 230.995511 
L 154.646257 231.269489 
L 155.245412 231.269489 
L 155.245412 231.407824 
L 155.844566 231.407824 
L 155.844566 229.485667 
L 156.443721 229.485667 
L 156.443721 230.325741 
L 157.042876 230.325741 
L 157.042876 229.296464 
L 157.642031 229.296464 
L 157.642031 225.200551 
L 159.439496 225.148909 
L 159.439496 223.274669 
L 160.03865 223.274669 
L 160.03865 219.09287 
L 160.637805 219.09287 
L 160.637805 215.053958 
L 161.23696 215.053958 
L 161.23696 213.218367 
L 161.836115 213.218367 
L 161.836115 213.51342 
L 162.43527 213.51342 
L 162.43527 214.393179 
L 163.034425 214.393179 
L 163.034425 213.903265 
L 163.633579 213.903265 
L 163.633579 215.150067 
L 164.232734 215.150067 
L 164.232734 215.473632 
L 164.831889 215.473632 
L 164.831889 216.785199 
L 165.431044 216.785199 
L 165.431044 218.072811 
L 166.030199 218.072811 
L 166.030199 217.889207 
L 166.629354 217.889207 
L 166.629354 217.099809 
L 167.228508 217.099809 
L 167.228508 217.999178 
L 167.827663 217.999178 
L 167.827663 217.276642 
L 168.426818 217.276642 
L 168.426818 218.183746 
L 169.025973 218.183746 
L 169.025973 222.037416 
L 169.625128 222.037416 
L 169.625128 223.703754 
L 170.224283 223.703754 
L 170.224283 222.532755 
L 170.823437 222.532755 
L 170.823437 220.700962 
L 171.422592 220.700962 
L 171.422592 220.995427 
L 172.021747 220.995427 
L 172.021747 221.165557 
L 172.620902 221.165557 
L 172.620902 220.742777 
L 173.220057 220.742777 
L 173.220057 220.953108 
L 174.418366 220.995427 
L 174.418366 219.09287 
L 175.017521 219.09287 
L 175.017521 219.287304 
L 175.616676 219.287304 
L 175.616676 221.122895 
L 176.215831 221.122895 
L 176.215831 221.72815 
L 176.814986 221.72815 
L 176.814986 222.037416 
L 177.414141 222.037416 
L 177.414141 221.553441 
L 178.013295 221.553441 
L 178.013295 221.037831 
L 179.211605 221.08032 
L 179.211605 221.165557 
L 179.81076 221.165557 
L 179.81076 221.33707 
L 180.409915 221.33707 
L 180.409915 221.037831 
L 181.608225 220.953108 
L 181.608225 220.124082 
L 182.207379 220.124082 
L 182.207379 219.681633 
L 182.806534 219.681633 
L 182.806534 220.246378 
L 183.405689 220.246378 
L 183.405689 220.534523 
L 184.004844 220.534523 
L 184.004844 220.742777 
L 184.603999 220.742777 
L 184.603999 220.287301 
L 185.203154 220.287301 
L 185.203154 220.493118 
L 186.401463 220.493118 
L 186.401463 220.868724 
L 187.000618 220.868724 
L 187.000618 220.493118 
L 187.599773 220.493118 
L 187.599773 220.328304 
L 189.996392 220.246378 
L 189.996392 220.042944 
L 190.595547 220.042944 
L 190.595547 219.801384 
L 191.194702 219.801384 
L 191.194702 218.977064 
L 191.793857 218.977064 
L 191.793857 218.220854 
L 192.393012 218.220854 
L 192.393012 217.9258 
L 192.992166 217.9258 
L 192.992166 216.13604 
L 193.591321 216.13604 
L 193.591321 215.441051 
L 194.190476 215.441051 
L 194.190476 214.42418 
L 194.789631 214.42418 
L 194.789631 215.182201 
L 195.987941 215.117982 
L 195.987941 214.768229 
L 197.18625 214.705256 
L 197.18625 214.611147 
L 197.785405 214.611147 
L 197.785405 213.87302 
L 198.38456 213.87302 
L 198.38456 212.469999 
L 198.983715 212.469999 
L 198.983715 211.529787 
L 199.58287 211.529787 
L 199.58287 207.661007 
L 200.182024 207.661007 
L 200.182024 207.303818 
L 200.781179 207.303818 
L 200.781179 208.722955 
L 201.979489 208.62846 
L 201.979489 208.001455 
L 202.578644 208.001455 
L 202.578644 206.036604 
L 203.177799 206.036604 
L 203.177799 203.878641 
L 203.776954 203.878641 
L 203.776954 203.616808 
L 204.376108 203.616808 
L 204.376108 203.084562 
L 204.975263 203.084562 
L 204.975263 201.92108 
L 205.574418 201.92108 
L 205.574418 197.220508 
L 206.173573 197.220508 
L 206.173573 205.359669 
L 206.772728 205.359669 
L 206.772728 205.767334 
L 207.371883 205.767334 
L 207.371883 204.296773 
L 207.971037 204.296773 
L 207.971037 204.010786 
L 208.570192 204.010786 
L 208.570192 205.542144 
L 209.169347 205.542144 
L 209.169347 205.07892 
L 209.768502 205.07892 
L 209.768502 203.766029 
L 210.367657 203.766029 
L 210.367657 204.010786 
L 210.966812 204.010786 
L 210.966812 203.376553 
L 211.565966 203.376553 
L 211.565966 202.477185 
L 212.165121 202.477185 
L 212.165121 201.36255 
L 212.764276 201.36255 
L 212.764276 201.750262 
L 213.363431 201.750262 
L 213.363431 202.024239 
L 213.962586 202.024239 
L 213.962586 201.64843 
L 214.561741 201.64843 
L 214.561741 201.446231 
L 215.160895 201.446231 
L 215.160895 200.640126 
L 215.76005 200.640126 
L 215.76005 201.446231 
L 216.359205 201.446231 
L 216.359205 202.162574 
L 217.557515 202.266924 
L 217.557515 202.459583 
L 218.755824 202.54774 
L 218.755824 202.689562 
L 219.354979 202.689562 
L 219.354979 203.230053 
L 219.954134 203.230053 
L 219.954134 204.880648 
L 220.553289 204.880648 
L 220.553289 203.954051 
L 221.152444 203.954051 
L 221.152444 205.019242 
L 221.751599 205.019242 
L 221.751599 204.335199 
L 222.350753 204.335199 
L 222.350753 204.201013 
L 222.949908 204.201013 
L 222.949908 203.954051 
L 223.549063 203.954051 
L 223.549063 203.747318 
L 224.148218 203.747318 
L 224.148218 202.760832 
L 224.747373 202.760832 
L 224.747373 202.618532 
L 225.346528 202.618532 
L 225.346528 201.64843 
L 226.544837 201.580815 
L 226.544837 201.3125 
L 227.143992 201.3125 
L 227.143992 201.163059 
L 227.743147 201.163059 
L 227.743147 199.662409 
L 228.342302 199.662409 
L 228.342302 199.910418 
L 228.941457 199.910418 
L 228.941457 199.493579 
L 230.139766 199.570153 
L 230.139766 200.114094 
L 230.738921 200.114094 
L 230.738921 199.755071 
L 231.338076 199.755071 
L 231.338076 200.035524 
L 232.536386 199.941625 
L 232.536386 199.848142 
L 233.135541 199.848142 
L 233.135541 200.082631 
L 233.734695 200.082631 
L 233.734695 199.894832 
L 234.33385 199.894832 
L 234.33385 199.43252 
L 234.933005 199.43252 
L 234.933005 198.728006 
L 236.131315 198.683825 
L 236.131315 197.002036 
L 236.73047 197.002036 
L 236.73047 196.176204 
L 237.329624 196.176204 
L 237.329624 193.923497 
L 237.928779 193.923497 
L 237.928779 194.230956 
L 238.527934 194.230956 
L 238.527934 191.898966 
L 239.127089 191.898966 
L 239.127089 190.386688 
L 239.726244 190.386688 
L 239.726244 190.646395 
L 240.325399 190.646395 
L 240.325399 189.511613 
L 240.924553 189.511613 
L 240.924553 187.845757 
L 241.523708 187.845757 
L 241.523708 187.557305 
L 242.122863 187.557305 
L 242.122863 185.032081 
L 242.722018 185.032081 
L 242.722018 183.480807 
L 243.321173 183.480807 
L 243.321173 182.749406 
L 244.519483 182.832516 
L 244.519483 180.872382 
L 245.118637 180.872382 
L 245.118637 180.316946 
L 245.717792 180.316946 
L 245.717792 176.013722 
L 246.316947 176.013722 
L 246.316947 173.672331 
L 246.916102 173.672331 
L 246.916102 174.879466 
L 247.515257 174.879466 
L 247.515257 173.685821 
L 248.114412 173.685821 
L 248.114412 171.459539 
L 248.713566 171.459539 
L 248.713566 165.162142 
L 249.312721 165.162142 
L 249.312721 164.663578 
L 249.911876 164.663578 
L 249.911876 160.218797 
L 250.511031 160.218797 
L 250.511031 159.357616 
L 251.110186 159.357616 
L 251.110186 154.339576 
L 251.709341 154.339576 
L 251.709341 150.300636 
L 252.308495 150.300636 
L 252.308495 144.512664 
L 252.90765 144.512664 
L 252.90765 153.02239 
L 253.506805 153.02239 
L 253.506805 157.71294 
L 254.10596 157.71294 
L 254.10596 159.040718 
L 254.705115 159.040718 
L 254.705115 152.587751 
L 255.30427 152.587751 
L 255.30427 150.241336 
L 255.903424 150.241336 
L 255.903424 151.071697 
L 256.502579 151.071697 
L 256.502579 149.941472 
L 257.101734 149.941472 
L 257.101734 157.028013 
L 257.700889 157.028013 
L 257.700889 154.585511 
L 258.300044 154.585511 
L 258.300044 155.069398 
L 258.899199 155.069398 
L 258.899199 154.64015 
L 259.498353 154.64015 
L 259.498353 155.32216 
L 260.097508 155.32216 
L 260.097508 153.290959 
L 260.696663 153.290959 
L 260.696663 153.514527 
L 261.295818 153.514527 
L 261.295818 152.720535 
L 261.894973 152.720535 
L 261.894973 151.617649 
L 262.494128 151.617649 
L 262.494128 151.808134 
L 263.093282 151.808134 
L 263.093282 152.292008 
L 263.692437 152.292008 
L 263.692437 153.618517 
L 264.291592 153.618517 
L 264.291592 155.416549 
L 264.890747 155.416549 
L 264.890747 156.463808 
L 265.489902 156.463808 
L 265.489902 156.905835 
L 266.089057 156.905835 
L 266.089057 157.734047 
L 266.688212 157.734047 
L 266.688212 156.151971 
L 267.287366 156.151971 
L 267.287366 156.021115 
L 267.886521 156.021115 
L 267.886521 156.907866 
L 268.485676 156.907866 
L 268.485676 158.872889 
L 269.084831 158.872889 
L 269.084831 160.650811 
L 269.683986 160.650811 
L 269.683986 162.409829 
L 270.283141 162.409829 
L 270.283141 163.781878 
L 270.882295 163.781878 
L 270.882295 160.433698 
L 271.48145 160.433698 
L 271.48145 158.139137 
L 272.080605 158.139137 
L 272.080605 158.344636 
L 272.67976 158.344636 
L 272.67976 159.471958 
L 273.87807 159.474251 
L 273.87807 158.355508 
L 274.477224 158.355508 
L 274.477224 157.988987 
L 275.076379 157.988987 
L 275.076379 156.443934 
L 275.675534 156.443934 
L 275.675534 156.693712 
L 276.274689 156.693712 
L 276.274689 156.372543 
L 276.873844 156.372543 
L 276.873844 157.130371 
L 277.472999 157.130371 
L 277.472999 156.356711 
L 278.072153 156.356711 
L 278.072153 158.121922 
L 278.671308 158.121922 
L 278.671308 157.861132 
L 279.270463 157.861132 
L 279.270463 155.619973 
L 279.869618 155.619973 
L 279.869618 155.887197 
L 280.468773 155.887197 
L 280.468773 154.271368 
L 281.067928 154.271368 
L 281.067928 153.032527 
L 281.667082 153.032527 
L 281.667082 152.163507 
L 282.266237 152.163507 
L 282.266237 153.409327 
L 282.865392 153.409327 
L 282.865392 154.189094 
L 283.464547 154.189094 
L 283.464547 152.747192 
L 284.063702 152.747192 
L 284.063702 153.166449 
L 284.662857 153.166449 
L 284.662857 150.743199 
L 285.262011 150.743199 
L 285.262011 153.338913 
L 286.460321 153.405887 
L 286.460321 153.064658 
L 287.059476 153.064658 
L 287.059476 152.668982 
L 287.658631 152.668982 
L 287.658631 156.91599 
L 288.257786 156.91599 
L 288.257786 153.656775 
L 288.856941 153.656775 
L 288.856941 153.154548 
L 289.456095 153.154548 
L 289.456095 152.602647 
L 290.05525 152.602647 
L 290.05525 151.355389 
L 290.654405 151.355389 
L 290.654405 150.029225 
L 291.25356 150.029225 
L 291.25356 144.60766 
L 291.852715 144.60766 
L 291.852715 142.703606 
L 292.45187 142.703606 
L 292.45187 145.364631 
L 293.051024 145.364631 
L 293.051024 141.466746 
L 293.650179 141.466746 
L 293.650179 142.776226 
L 294.249334 142.776226 
L 294.249334 140.146486 
L 294.848489 140.146486 
L 294.848489 135.177746 
L 295.447644 135.177746 
L 295.447644 132.654209 
L 296.046799 132.654209 
L 296.046799 128.840139 
L 296.645953 128.840139 
L 296.645953 126.589775 
L 297.245108 126.589775 
L 297.245108 121.864979 
L 297.844263 121.864979 
L 297.844263 113.97733 
L 298.443418 113.97733 
L 298.443418 113.464571 
L 299.042573 113.464571 
L 299.042573 108.842256 
L 299.641728 108.842256 
L 299.641728 110.108754 
L 300.240882 110.108754 
L 300.240882 106.430906 
L 300.840037 106.430906 
L 300.840037 116.48468 
L 301.439192 116.48468 
L 301.439192 109.590538 
L 302.038347 109.590538 
L 302.038347 111.714879 
L 302.637502 111.714879 
L 302.637502 116.965587 
L 303.236657 116.965587 
L 303.236657 117.109776 
L 303.835811 117.109776 
L 303.835811 119.42364 
L 304.434966 119.42364 
L 304.434966 117.303988 
L 305.034121 117.303988 
L 305.034121 116.214761 
L 305.633276 116.214761 
L 305.633276 115.719048 
L 306.232431 115.719048 
L 306.232431 113.651086 
L 306.831586 113.651086 
L 306.831586 110.995712 
L 307.43074 110.995712 
L 307.43074 113.163202 
L 308.029895 113.163202 
L 308.029895 112.714571 
L 309.228205 112.76988 
L 309.228205 113.55177 
L 309.82736 113.55177 
L 309.82736 113.201534 
L 310.426515 113.201534 
L 310.426515 114.378629 
L 311.02567 114.378629 
L 311.02567 115.275032 
L 311.624824 115.275032 
L 311.624824 113.845066 
L 312.223979 113.845066 
L 312.223979 113.47027 
L 312.823134 113.47027 
L 312.823134 114.352141 
L 313.422289 114.352141 
L 313.422289 117.248759 
L 314.021444 117.248759 
L 314.021444 117.426129 
L 314.620599 117.426129 
L 314.620599 117.576973 
L 315.219753 117.576973 
L 315.219753 118.886066 
L 315.818908 118.886066 
L 315.818908 121.256764 
L 316.418063 121.256764 
L 316.418063 119.52902 
L 317.017218 119.52902 
L 317.017218 120.440536 
L 317.616373 120.440536 
L 317.616373 121.08956 
L 318.215528 121.08956 
L 318.215528 117.483078 
L 318.814682 117.483078 
L 318.814682 118.818195 
L 320.012992 118.907174 
L 320.012992 118.519234 
L 320.612147 118.519234 
L 320.612147 118.718292 
L 321.211302 118.718292 
L 321.211302 119.523842 
L 321.810457 119.523842 
L 321.810457 121.256389 
L 322.409611 121.256389 
L 322.409611 120.419638 
L 323.008766 120.419638 
L 323.008766 123.777141 
L 323.607921 123.777141 
L 323.607921 125.6347 
L 324.207076 125.6347 
L 324.207076 126.043033 
L 324.806231 126.043033 
L 324.806231 125.611196 
L 325.405386 125.611196 
L 325.405386 126.364696 
L 326.00454 126.364696 
L 326.00454 127.269819 
L 326.603695 127.269819 
L 326.603695 122.811499 
L 327.20285 122.811499 
L 327.20285 124.528906 
L 327.802005 124.528906 
L 327.802005 123.828719 
L 328.40116 123.828719 
L 328.40116 123.669739 
L 329.000315 123.669739 
L 329.000315 126.514641 
L 329.599469 126.514641 
L 329.599469 125.887989 
L 330.198624 125.887989 
L 330.198624 126.457028 
L 330.797779 126.457028 
L 330.797779 127.039872 
L 331.396934 127.039872 
L 331.396934 126.029873 
L 331.996089 126.029873 
L 331.996089 126.339888 
L 332.595244 126.339888 
L 332.595244 126.146245 
L 333.793553 126.129244 
L 333.793553 124.016221 
L 334.392708 124.016221 
L 334.392708 122.614371 
L 334.991863 122.614371 
L 334.991863 120.896394 
L 335.591018 120.896394 
L 335.591018 119.178083 
L 336.190173 119.178083 
L 336.190173 117.839511 
L 337.388482 117.856088 
L 337.388482 117.995919 
L 337.987637 117.995919 
L 337.987637 119.053836 
L 338.586792 119.053836 
L 338.586792 120.911871 
L 339.185947 120.911871 
L 339.185947 119.634582 
L 339.785102 119.634582 
L 339.785102 120.144501 
L 340.384257 120.144501 
L 340.384257 120.331232 
L 340.983411 120.331232 
L 340.983411 120.726163 
L 341.582566 120.726163 
L 341.582566 119.914355 
L 342.181721 119.914355 
L 342.181721 118.209526 
L 342.780876 118.209526 
L 342.780876 118.851268 
L 343.380031 118.851268 
L 343.380031 119.053836 
L 343.979186 119.053836 
L 343.979186 118.751208 
L 344.57834 118.751208 
L 344.57834 119.181139 
L 345.177495 119.181139 
L 345.177495 119.025838 
L 346.375805 118.985424 
L 346.375805 119.207644 
L 346.97496 119.207644 
L 346.97496 120.058654 
L 347.574115 120.058654 
L 347.574115 120.430085 
L 348.173269 120.430085 
L 348.173269 120.063611 
L 348.772424 120.063611 
L 348.772424 120.322269 
L 349.371579 120.322269 
L 349.371579 120.447387 
L 349.970734 120.447387 
L 349.970734 120.242124 
L 350.569889 120.242124 
L 350.569889 121.750362 
L 351.169044 121.750362 
L 351.169044 122.776033 
L 351.768199 122.776033 
L 351.768199 124.186453 
L 352.367353 124.186453 
L 352.367353 123.108439 
L 352.966508 123.108439 
L 352.966508 123.694961 
L 353.565663 123.694961 
L 353.565663 123.483195 
L 354.164818 123.483195 
L 354.164818 124.671159 
L 354.763973 124.671159 
L 354.763973 124.864558 
L 355.363128 124.864558 
L 355.363128 124.639465 
L 355.962282 124.639465 
L 355.962282 124.915748 
L 357.160592 124.859223 
L 357.160592 125.028358 
L 357.759747 125.028358 
L 357.759747 127.160976 
L 358.358902 127.160976 
L 358.358902 128.407127 
L 358.958057 128.407127 
L 358.958057 127.254378 
L 359.557211 127.254378 
L 359.557211 128.447132 
L 360.156366 128.447132 
L 360.156366 128.992061 
L 360.755521 128.992061 
L 360.755521 130.754934 
L 361.354676 130.754934 
L 361.354676 132.679308 
L 361.953831 132.679308 
L 361.953831 130.479883 
L 362.552986 130.479883 
L 362.552986 129.505408 
L 363.15214 129.505408 
L 363.15214 128.7416 
L 363.751295 128.7416 
L 363.751295 128.947772 
L 364.35045 128.947772 
L 364.35045 129.225294 
L 364.949605 129.225294 
L 364.949605 130.779047 
L 365.54876 130.779047 
L 365.54876 131.23049 
L 366.147915 131.23049 
L 366.147915 131.569876 
L 366.747069 131.569876 
L 366.747069 132.889632 
L 367.346224 132.889632 
L 367.346224 131.981364 
L 367.945379 131.981364 
L 367.945379 131.469918 
L 368.544534 131.469918 
L 368.544534 130.146033 
L 369.143689 130.146033 
L 369.143689 128.514682 
L 369.742844 128.514682 
L 369.742844 129.063008 
L 370.341998 129.063008 
L 370.341998 130.898254 
L 370.941153 130.898254 
L 370.941153 130.277216 
L 372.139463 130.292161 
L 372.139463 129.79603 
L 372.738618 129.79603 
L 372.738618 129.57088 
L 373.337773 129.57088 
L 373.337773 129.773014 
L 373.936928 129.773014 
L 373.936928 130.515885 
L 374.536082 130.515885 
L 374.536082 131.346842 
L 375.135237 131.346842 
L 375.135237 130.81969 
L 375.734392 130.81969 
L 375.734392 133.08697 
L 376.333547 133.08697 
L 376.333547 132.42902 
L 376.932702 132.42902 
L 376.932702 132.086286 
L 377.531857 132.086286 
L 377.531857 132.529802 
L 378.131011 132.529802 
L 378.131011 133.614779 
L 379.329321 133.52008 
L 379.329321 137.299829 
L 379.928476 137.299829 
L 379.928476 134.678447 
L 380.527631 134.678447 
L 380.527631 136.297939 
L 381.126786 136.297939 
L 381.126786 140.888738 
L 381.72594 140.888738 
L 381.72594 142.249735 
L 382.325095 142.249735 
L 382.325095 141.46577 
L 382.92425 141.46577 
L 382.92425 139.822388 
L 383.523405 139.822388 
L 383.523405 138.021457 
L 384.12256 138.021457 
L 384.12256 139.580755 
L 384.721715 139.580755 
L 384.721715 141.151694 
L 385.320869 141.151694 
L 385.320869 140.369677 
L 385.920024 140.369677 
L 385.920024 140.854556 
L 386.519179 140.854556 
L 386.519179 141.086367 
L 387.118334 141.086367 
L 387.118334 140.857402 
L 387.717489 140.857402 
L 387.717489 139.761945 
L 388.316644 139.761945 
L 388.316644 139.470295 
L 388.915798 139.470295 
L 388.915798 138.773804 
L 389.514953 138.773804 
L 389.514953 139.249337 
L 390.114108 139.249337 
L 390.114108 138.205579 
L 390.713263 138.205579 
L 390.713263 136.305585 
L 391.312418 136.305585 
L 391.312418 136.517707 
L 391.911573 136.517707 
L 391.911573 136.372219 
L 392.510727 136.372219 
L 392.510727 134.779927 
L 393.109882 134.779927 
L 393.109882 135.826995 
L 393.709037 135.826995 
L 393.709037 135.657237 
L 394.308192 135.657237 
L 394.308192 137.385776 
L 394.907347 137.385776 
L 394.907347 137.074977 
L 395.506502 137.074977 
L 395.506502 138.447958 
L 396.105657 138.447958 
L 396.105657 139.039373 
L 396.704811 139.039373 
L 396.704811 138.681168 
L 397.303966 138.681168 
L 397.303966 138.075444 
L 398.502276 138.056325 
L 398.502276 139.598625 
L 399.101431 139.598625 
L 399.101431 140.792978 
L 399.700586 140.792978 
L 399.700586 140.372459 
L 400.29974 140.372459 
L 400.29974 140.830851 
L 400.898895 140.830851 
L 400.898895 139.815162 
L 401.49805 139.815162 
L 401.49805 140.484961 
L 402.69636 140.586822 
L 402.69636 140.053116 
L 403.295515 140.053116 
L 403.295515 139.398451 
L 405.092979 139.322439 
L 405.092979 139.601307 
L 406.291289 139.542384 
L 406.291289 140.013878 
L 406.890444 140.013878 
L 406.890444 139.349807 
L 407.489598 139.349807 
L 407.489598 139.635307 
L 408.687908 139.55933 
L 408.687908 140.294709 
L 409.287063 140.294709 
L 409.287063 140.568095 
L 410.485373 140.606504 
L 410.485373 140.244879 
L 411.683682 140.17862 
L 411.683682 139.598625 
L 412.282837 139.598625 
L 412.282837 138.530223 
L 412.881992 138.530223 
L 412.881992 138.934303 
L 413.481147 138.934303 
L 413.481147 139.22649 
L 414.080302 139.22649 
L 414.080302 138.281024 
L 414.679456 138.281024 
L 414.679456 137.359231 
L 415.278611 137.359231 
L 415.278611 137.872672 
L 415.877766 137.872672 
L 415.877766 136.874482 
L 417.076076 136.837591 
L 417.076076 133.8075 
L 417.675231 133.8075 
L 417.675231 135.569914 
L 418.274386 135.569914 
L 418.274386 136.23916 
L 419.472695 136.237635 
L 419.472695 135.324686 
L 420.07185 135.324686 
L 420.07185 134.967848 
L 420.671005 134.967848 
L 420.671005 135.364872 
L 421.27016 135.364872 
L 421.27016 135.82251 
L 422.468469 135.916893 
L 422.468469 137.37612 
L 423.067624 137.37612 
L 423.067624 136.682881 
L 423.666779 136.682881 
L 423.666779 137.079736 
L 424.265934 137.079736 
L 424.265934 137.82824 
L 424.865089 137.82824 
L 424.865089 139.660394 
L 425.464244 139.660394 
L 425.464244 140.313195 
L 426.063398 140.313195 
L 426.063398 140.601816 
L 426.662553 140.601816 
L 426.662553 140.175864 
L 427.261708 140.175864 
L 427.261708 140.328921 
L 427.860863 140.328921 
L 427.860863 140.075049 
L 428.460018 140.075049 
L 428.460018 139.20279 
L 429.059173 139.20279 
L 429.059173 139.348923 
L 429.658327 139.348923 
L 429.658327 140.141899 
L 430.257482 140.141899 
L 430.257482 140.295633 
L 430.856637 140.295633 
L 430.856637 140.118981 
L 432.054947 140.103411 
L 432.054947 139.668464 
L 432.654102 139.668464 
L 432.654102 139.319792 
L 434.451566 139.385173 
L 434.451566 138.981129 
L 435.050721 138.981129 
L 435.050721 138.747172 
L 435.649876 138.747172 
L 435.649876 138.38457 
L 436.249031 138.38457 
L 436.249031 137.372902 
L 437.44734 137.266188 
L 437.44734 136.422142 
L 438.046495 136.422142 
L 438.046495 135.782189 
L 438.64565 135.782189 
L 438.64565 134.202457 
L 439.244805 134.202457 
L 439.244805 133.832649 
L 439.84396 133.832649 
L 439.84396 128.231686 
L 440.443115 128.231686 
L 440.443115 129.903019 
L 441.042269 129.903019 
L 441.042269 129.515382 
L 441.641424 129.515382 
L 441.641424 131.84599 
L 442.240579 131.84599 
L 442.240579 133.243137 
L 442.839734 133.243137 
L 442.839734 132.29328 
L 443.438889 132.29328 
L 443.438889 132.763186 
L 444.038044 132.763186 
L 444.038044 133.198871 
L 444.637198 133.198871 
L 444.637198 130.807902 
L 445.236353 130.807902 
L 445.236353 129.701879 
L 445.835508 129.701879 
L 445.835508 130.604408 
L 446.434663 130.604408 
L 446.434663 129.148352 
L 447.033818 129.148352 
L 447.033818 127.615457 
L 447.632973 127.615457 
L 447.632973 126.640012 
L 448.232127 126.640012 
L 448.232127 125.337533 
L 449.430437 125.382139 
L 449.430437 126.536287 
L 450.029592 126.536287 
L 450.029592 125.70352 
L 450.628747 125.70352 
L 450.628747 127.31721 
L 451.227902 127.31721 
L 451.227902 127.029031 
L 451.827056 127.029031 
L 451.827056 126.807041 
L 453.025366 126.823134 
L 453.025366 125.85954 
L 453.624521 125.85954 
L 453.624521 126.077852 
L 454.223676 126.077852 
L 454.223676 126.964104 
L 454.822831 126.964104 
L 454.822831 129.540893 
L 455.421985 129.540893 
L 455.421985 127.420841 
L 456.02114 127.420841 
L 456.02114 129.269074 
L 456.620295 129.269074 
L 456.620295 128.912192 
L 457.21945 128.912192 
L 457.21945 129.651055 
L 457.818605 129.651055 
L 457.818605 129.999208 
L 458.41776 129.999208 
L 458.41776 129.110258 
L 459.016915 129.110258 
L 459.016915 129.829195 
L 459.616069 129.829195 
L 459.616069 129.597571 
L 460.215224 129.597571 
L 460.215224 129.008287 
L 460.814379 129.008287 
L 460.814379 128.101704 
L 461.413534 128.101704 
L 461.413534 127.439419 
L 462.012689 127.439419 
L 462.012689 126.612946 
L 462.611844 126.612946 
L 462.611844 127.265335 
L 463.210998 127.265335 
L 463.210998 126.849494 
L 463.810153 126.849494 
L 463.810153 127.313215 
L 464.409308 127.313215 
L 464.409308 128.51151 
L 465.008463 128.51151 
L 465.008463 127.836439 
L 465.607618 127.836439 
L 465.607618 127.43289 
L 466.206773 127.43289 
L 466.206773 127.691572 
L 466.805927 127.691572 
L 466.805927 127.514396 
L 467.405082 127.514396 
L 467.405082 127.85385 
L 468.004237 127.85385 
L 468.004237 127.54113 
L 471.599166 127.440926 
L 471.599166 127.400776 
L 472.198321 127.400776 
L 472.198321 127.24492 
L 472.797476 127.24492 
L 472.797476 126.913579 
L 473.396631 126.913579 
L 473.396631 126.652107 
L 473.995785 126.652107 
L 473.995785 126.091042 
L 474.59494 126.091042 
L 474.59494 125.404933 
L 475.194095 125.404933 
L 475.194095 125.983879 
L 475.79325 125.983879 
L 475.79325 125.842768 
L 476.392405 125.842768 
L 476.392405 126.131605 
L 476.99156 126.131605 
L 476.99156 125.564266 
L 477.590714 125.564266 
L 477.590714 125.946407 
L 478.189869 125.946407 
L 478.189869 125.711849 
L 479.388179 125.79625 
L 479.388179 126.647268 
L 479.987334 126.647268 
L 479.987334 126.530513 
L 480.586489 126.530513 
L 480.586489 126.043973 
L 481.185644 126.043973 
L 481.185644 122.665183 
L 481.784798 122.665183 
L 481.784798 122.452749 
L 482.383953 122.452749 
L 482.383953 121.074695 
L 482.983108 121.074695 
L 482.983108 120.494317 
L 483.582263 120.494317 
L 483.582263 120.836804 
L 484.181418 120.836804 
L 484.181418 117.717178 
L 484.780573 117.717178 
L 484.780573 116.847293 
L 485.379727 116.847293 
L 485.379727 115.151511 
L 485.978882 115.151511 
L 485.978882 117.761263 
L 487.177192 117.744125 
L 487.177192 118.165466 
L 487.776347 118.165466 
L 487.776347 117.650749 
L 488.375502 117.650749 
L 488.375502 118.000414 
L 488.974656 118.000414 
L 488.974656 117.468044 
L 489.573811 117.468044 
L 489.573811 118.309651 
L 490.172966 118.309651 
L 490.172966 117.759993 
L 491.371276 117.801623 
L 491.371276 117.477439 
L 491.970431 117.477439 
L 491.970431 117.775873 
L 493.16874 117.856088 
L 493.16874 118.051854 
L 494.36705 118.074077 
L 494.36705 122.501583 
L 494.966205 122.501583 
L 494.966205 120.895657 
L 495.56536 120.895657 
L 495.56536 120.208225 
L 496.164514 120.208225 
L 496.164514 120.411717 
L 496.763669 120.411717 
L 496.763669 121.094765 
L 497.362824 121.094765 
L 497.362824 120.962064 
L 497.961979 120.962064 
L 497.961979 120.719587 
L 498.561134 120.719587 
L 498.561134 120.557296 
L 499.160289 120.557296 
L 499.160289 120.710457 
L 499.759443 120.710457 
L 499.759443 120.940643 
L 500.957753 120.959108 
L 500.957753 119.775577 
L 501.556908 119.775577 
L 501.556908 119.381772 
L 502.156063 119.381772 
L 502.156063 119.166202 
L 502.755218 119.166202 
L 502.755218 119.60615 
L 504.552682 119.611695 
L 504.552682 120.123184 
L 505.151837 120.123184 
L 505.151837 119.949897 
L 505.750992 119.949897 
L 505.750992 119.77907 
L 506.350147 119.77907 
L 506.350147 119.462493 
L 506.949302 119.462493 
L 506.949302 119.663053 
L 507.548456 119.663053 
L 507.548456 119.402009 
L 508.746766 119.40098 
L 508.746766 118.750542 
L 509.345921 118.750542 
L 509.345921 118.586478 
L 509.945076 118.586478 
L 509.945076 118.961213 
L 510.544231 118.961213 
L 510.544231 118.120206 
L 511.74254 118.178416 
L 511.74254 117.091007 
L 512.341695 117.091007 
L 512.341695 116.752346 
L 512.94085 116.752346 
L 512.94085 117.159396 
L 513.540005 117.159396 
L 513.540005 116.363992 
L 514.13916 116.363992 
L 514.13916 116.023846 
L 514.738314 116.023846 
L 514.738314 116.593442 
L 515.337469 116.593442 
L 515.337469 116.311463 
L 515.936624 116.311463 
L 515.936624 115.23528 
L 516.535779 115.23528 
L 516.535779 115.576299 
L 517.734089 115.614405 
L 517.734089 115.854647 
L 518.333243 115.854647 
L 518.333243 115.431381 
L 518.932398 115.431381 
L 518.932398 114.844868 
L 520.130708 114.955203 
L 520.130708 114.676601 
L 520.729863 114.676601 
L 520.729863 114.433603 
L 521.928172 114.490896 
L 521.928172 114.145974 
L 522.527327 114.145974 
L 522.527327 112.942494 
L 523.126482 112.942494 
L 523.126482 111.534489 
L 523.725637 111.534489 
L 523.725637 110.660872 
L 524.324792 110.660872 
L 524.324792 110.040166 
L 524.923947 110.040166 
L 524.923947 108.856407 
L 525.523102 108.856407 
L 525.523102 109.145017 
L 526.122256 109.145017 
L 526.122256 111.115853 
L 526.721411 111.115853 
L 526.721411 114.354302 
L 527.320566 114.354302 
L 527.320566 113.335731 
L 527.919721 113.335731 
L 527.919721 111.206177 
L 528.518876 111.206177 
L 528.518876 111.462763 
L 529.118031 111.462763 
L 529.118031 110.897338 
L 529.717185 110.897338 
L 529.717185 111.010462 
L 530.915495 111.076501 
L 530.915495 109.490336 
L 531.51465 109.490336 
L 531.51465 108.430864 
L 532.113805 108.430864 
L 532.113805 108.051373 
L 532.71296 108.051373 
L 532.71296 109.188535 
L 533.911269 109.112332 
L 533.911269 108.407824 
L 534.510424 108.407824 
L 534.510424 108.090883 
L 535.109579 108.090883 
L 535.109579 106.559144 
L 535.708734 106.559144 
L 535.708734 106.18243 
L 536.307889 106.18243 
L 536.307889 105.452143 
L 536.907043 105.452143 
L 536.907043 103.81482 
L 537.506198 103.81482 
L 537.506198 103.938117 
L 538.105353 103.938117 
L 538.105353 105.430897 
L 538.704508 105.430897 
L 538.704508 104.810292 
L 539.303663 104.810292 
L 539.303663 104.31239 
L 539.902818 104.31239 
L 539.902818 109.830498 
L 540.501972 109.830498 
L 540.501972 106.879115 
L 541.101127 106.879115 
L 541.101127 110.715591 
L 541.700282 110.715591 
L 541.700282 108.289147 
L 542.299437 108.289147 
L 542.299437 108.4172 
L 542.898592 108.4172 
L 542.898592 107.514258 
L 543.497747 107.514258 
L 543.497747 106.493532 
L 544.096902 106.493532 
L 544.096902 105.574016 
L 544.696056 105.574016 
L 544.696056 104.958418 
L 545.295211 104.958418 
L 545.295211 105.818993 
L 545.894366 105.818993 
L 545.894366 105.700181 
L 546.493521 105.700181 
L 546.493521 104.657057 
L 547.691831 104.585359 
L 547.691831 103.798108 
L 548.290985 103.798108 
L 548.290985 103.073969 
L 548.89014 103.073969 
L 548.89014 101.334807 
L 549.489295 101.334807 
L 549.489295 100.32188 
L 550.08845 100.32188 
L 550.08845 98.559223 
L 550.687605 98.559223 
L 550.687605 96.400521 
L 551.28676 96.400521 
L 551.28676 96.973403 
L 552.485069 96.926286 
L 552.485069 94.421969 
L 553.084224 94.421969 
L 553.084224 91.971085 
L 553.683379 91.971085 
L 553.683379 91.752502 
L 554.881689 91.658328 
L 554.881689 90.581649 
L 555.480843 90.581649 
L 555.480843 89.559848 
L 556.079998 89.559848 
L 556.079998 88.317015 
L 556.679153 88.317015 
L 556.679153 86.686475 
L 557.278308 86.686475 
L 557.278308 88.137176 
L 557.877463 88.137176 
L 557.877463 89.994551 
L 558.476618 89.994551 
L 558.476618 88.980174 
L 559.075772 88.980174 
L 559.075772 88.078943 
L 559.674927 88.078943 
L 559.674927 89.790451 
L 560.274082 89.790451 
L 560.274082 89.321264 
L 560.873237 89.321264 
L 560.873237 90.482701 
L 561.472392 90.482701 
L 561.472392 88.989182 
L 562.071547 88.989182 
L 562.071547 89.783454 
L 562.670701 89.783454 
L 562.670701 91.319569 
L 563.869011 91.216476 
L 563.869011 95.475749 
L 564.468166 95.475749 
L 564.468166 91.888129 
L 565.067321 91.888129 
L 565.067321 87.225464 
L 565.666476 87.225464 
L 565.666476 89.271845 
L 566.265631 89.271845 
L 566.265631 87.531626 
L 566.864785 87.531626 
L 566.864785 86.948131 
L 567.46394 86.948131 
L 567.46394 87.492271 
L 568.063095 87.492271 
L 568.063095 84.53268 
L 568.66225 84.53268 
L 568.66225 83.694718 
L 569.261405 83.694718 
L 569.261405 80.59746 
L 569.86056 80.59746 
L 569.86056 78.963954 
L 570.459714 78.963954 
L 570.459714 79.347247 
L 571.058869 79.347247 
L 571.058869 79.964866 
L 571.658024 79.964866 
L 571.658024 78.211415 
L 572.856334 78.17599 
L 572.856334 77.024284 
L 574.054643 77.010247 
L 574.054643 77.953665 
L 574.653798 77.953665 
L 574.653798 78.306644 
L 575.252953 78.306644 
L 575.252953 78.870189 
L 575.852108 78.870189 
L 575.852108 84.491779 
L 576.451263 84.491779 
L 576.451263 81.659829 
L 577.050418 81.659829 
L 577.050418 80.456367 
L 577.649572 80.456367 
L 577.649572 81.099077 
L 578.248727 81.099077 
L 578.248727 80.529513 
L 578.847882 80.529513 
L 578.847882 79.04334 
L 579.447037 79.04334 
L 579.447037 77.910171 
L 580.046192 77.910171 
L 580.046192 78.275749 
L 580.645347 78.275749 
L 580.645347 76.918025 
L 581.244501 76.918025 
L 581.244501 75.948916 
L 581.843656 75.948916 
L 581.843656 71.959561 
L 582.442811 71.959561 
L 582.442811 72.814294 
L 583.041966 72.814294 
L 583.041966 71.386426 
L 583.641121 71.386426 
L 583.641121 71.691149 
L 584.83943 71.729689 
L 584.83943 70.864174 
L 585.438585 70.864174 
L 585.438585 68.847759 
L 586.03774 68.847759 
L 586.03774 67.011613 
L 586.636895 67.011613 
L 586.636895 67.70257 
L 587.23605 67.70257 
L 587.23605 69.426647 
L 587.835205 69.426647 
L 587.835205 69.670799 
L 588.43436 69.670799 
L 588.43436 65.618681 
L 589.033514 65.618681 
L 589.033514 65.139052 
L 589.632669 65.139052 
L 589.632669 64.654585 
L 590.231824 64.654585 
L 590.231824 63.334023 
L 590.830979 63.334023 
L 590.830979 60.733897 
L 591.430134 60.733897 
L 591.430134 58.783297 
L 592.029289 58.783297 
L 592.029289 57.447231 
L 592.628443 57.447231 
L 592.628443 49.541546 
L 593.227598 49.541546 
L 593.227598 51.911888 
L 593.826753 51.911888 
L 593.826753 50.317058 
L 594.425908 50.317058 
L 594.425908 46.713271 
L 595.025063 46.713271 
L 595.025063 48.898264 
L 595.624218 48.898264 
L 595.624218 53.803441 
L 596.822527 53.858133 
L 596.822527 53.144067 
L 597.421682 53.144067 
L 597.421682 53.77377 
L 598.020837 53.77377 
L 598.020837 51.953522 
L 598.619992 51.953522 
L 598.619992 49.175554 
L 599.219147 49.175554 
L 599.219147 52.815068 
L 599.818301 52.815068 
L 599.818301 53.781126 
L 600.417456 53.781126 
L 600.417456 54.146887 
L 601.016611 54.146887 
L 601.016611 58.219025 
L 601.615766 58.219025 
L 601.615766 57.589304 
L 602.214921 57.589304 
L 602.214921 57.812907 
L 603.41323 57.740182 
L 603.41323 60.388954 
L 604.012385 60.388954 
L 604.012385 63.133064 
L 604.61154 63.133064 
L 604.61154 68.312581 
L 605.210695 68.312581 
L 605.210695 64.633184 
L 605.80985 64.633184 
L 605.80985 65.091147 
L 606.409005 65.091147 
L 606.409005 61.707478 
L 607.008159 61.707478 
L 607.008159 58.387694 
L 607.607314 58.387694 
L 607.607314 58.085114 
L 608.206469 58.085114 
L 608.206469 60.20401 
L 608.805624 60.20401 
L 608.805624 59.898932 
L 609.404779 59.898932 
L 609.404779 58.684176 
L 610.003934 58.684176 
L 610.003934 57.583057 
L 610.603089 57.583057 
L 610.603089 60.730792 
L 611.202243 60.730792 
L 611.202243 63.313415 
L 611.801398 63.313415 
L 611.801398 62.428146 
L 612.400553 62.428146 
L 612.400553 64.498494 
L 612.999708 64.498494 
L 612.999708 63.730251 
L 613.598863 63.730251 
L 613.598863 63.438767 
L 614.198018 63.438767 
L 614.198018 64.095419 
L 614.797172 64.095419 
L 614.797172 65.400403 
L 615.396327 65.400403 
L 615.396327 68.275755 
L 615.995482 68.275755 
L 615.995482 66.839079 
L 616.594637 66.839079 
L 616.594637 69.217473 
L 617.193792 69.217473 
L 617.193792 68.746676 
L 617.792947 68.746676 
L 617.792947 65.424695 
L 618.392101 65.424695 
L 618.392101 64.320748 
L 618.991256 64.320748 
L 618.991256 64.810781 
L 619.590411 64.810781 
L 619.590411 62.948312 
L 620.189566 62.948312 
L 620.189566 61.296193 
L 620.788721 61.296193 
L 620.788721 62.953155 
L 621.387876 62.953155 
L 621.387876 62.230846 
L 621.98703 62.230846 
L 621.98703 61.089181 
L 622.586185 61.089181 
L 622.586185 61.354528 
L 623.18534 61.354528 
L 623.18534 62.069764 
L 623.784495 62.069764 
L 623.784495 64.081555 
L 624.982805 64.06277 
L 624.982805 64.648541 
L 625.581959 64.648541 
L 625.581959 64.248946 
L 626.181114 64.248946 
L 626.181114 66.416393 
L 626.780269 66.416393 
L 626.780269 67.073077 
L 627.379424 67.073077 
L 627.379424 66.952326 
L 627.978579 66.952326 
L 627.978579 66.248999 
L 629.776043 66.308749 
L 629.776043 68.453631 
L 630.375198 68.453631 
L 630.375198 69.208795 
L 630.974353 69.208795 
L 630.974353 69.826794 
L 631.573508 69.826794 
L 631.573508 68.820126 
L 632.172663 68.820126 
L 632.172663 70.747714 
L 632.771818 70.747714 
L 632.771818 70.998779 
L 633.370972 70.998779 
L 633.370972 70.567898 
L 633.970127 70.567898 
L 633.970127 69.24369 
L 634.569282 69.24369 
L 634.569282 69.47072 
L 635.168437 69.47072 
L 635.168437 68.935236 
L 635.767592 68.935236 
L 635.767592 69.966712 
L 636.366747 69.966712 
L 636.366747 70.481431 
L 636.965901 70.481431 
L 636.965901 67.139072 
L 638.164211 67.100583 
L 638.164211 66.034742 
L 638.763366 66.034742 
L 638.763366 65.429079 
L 639.362521 65.429079 
L 639.362521 64.695116 
L 639.961676 64.695116 
L 639.961676 66.330478 
L 640.56083 66.330478 
L 640.56083 68.052767 
L 641.159985 68.052767 
L 641.159985 68.953472 
L 641.75914 68.953472 
L 641.75914 70.855684 
L 642.358295 70.855684 
L 642.358295 70.470327 
L 642.95745 70.470327 
L 642.95745 70.266767 
L 643.556605 70.266767 
L 643.556605 69.693715 
L 644.155759 69.693715 
L 644.155759 70.127474 
L 644.754914 70.127474 
L 644.754914 68.890638 
L 645.354069 68.890638 
L 645.354069 67.852399 
L 645.953224 67.852399 
L 645.953224 68.030213 
L 646.552379 68.030213 
L 646.552379 67.302614 
L 647.151534 67.302614 
L 647.151534 69.646253 
L 647.750688 69.646253 
L 647.750688 70.507983 
L 648.349843 70.507983 
L 648.349843 70.222402 
L 648.948998 70.222402 
L 648.948998 69.577573 
L 649.548153 69.577573 
L 649.548153 70.167948 
L 650.147308 70.167948 
L 650.147308 68.834827 
L 650.746463 68.834827 
L 650.746463 69.380999 
L 651.345618 69.380999 
L 651.345618 69.054669 
L 651.944772 69.054669 
L 651.944772 69.292838 
L 652.543927 69.292838 
L 652.543927 69.702986 
L 653.143082 69.702986 
L 653.143082 69.412522 
L 653.742237 69.412522 
L 653.742237 69.242385 
L 654.341392 69.242385 
L 654.341392 70.487643 
L 654.940547 70.487643 
L 654.940547 69.330686 
L 655.539701 69.330686 
L 655.539701 69.618949 
L 657.337166 69.683343 
L 657.337166 69.789451 
L 657.936321 69.789451 
L 657.936321 70.304028 
L 658.535476 70.304028 
L 658.535476 70.008793 
L 659.13463 70.008793 
L 659.13463 69.853091 
L 660.932095 69.949093 
L 660.932095 72.211709 
L 661.53125 72.211709 
L 661.53125 72.898247 
L 662.130405 72.898247 
L 662.130405 77.445264 
L 662.729559 77.445264 
L 662.729559 78.108373 
L 663.328714 78.108373 
L 663.328714 81.011416 
L 663.927869 81.011416 
L 663.927869 78.47112 
L 664.527024 78.47112 
L 664.527024 79.163593 
L 665.126179 79.163593 
L 665.126179 81.282146 
L 665.725334 81.282146 
L 665.725334 82.990536 
L 666.324488 82.990536 
L 666.324488 83.275758 
L 666.923643 83.275758 
L 666.923643 84.322 
L 667.522798 84.322 
L 667.522798 82.371292 
L 668.121953 82.371292 
L 668.121953 79.191175 
L 668.721108 79.191175 
L 668.721108 79.917871 
L 669.320263 79.917871 
L 669.320263 80.708507 
L 669.919417 80.708507 
L 669.919417 81.139659 
L 670.518572 81.139659 
L 670.518572 80.666502 
L 671.716882 80.662454 
L 671.716882 79.722978 
L 672.316037 79.722978 
L 672.316037 81.845768 
L 672.915192 81.845768 
L 672.915192 82.517597 
L 673.514347 82.517597 
L 673.514347 81.989859 
L 674.113501 81.989859 
L 674.113501 81.514378 
L 674.712656 81.514378 
L 674.712656 82.189326 
L 675.910966 82.24562 
L 675.910966 83.021589 
L 677.70843 82.976125 
L 677.70843 83.285543 
L 678.307585 83.285543 
L 678.307585 81.741134 
L 678.90674 81.741134 
L 678.90674 81.925936 
L 679.505895 81.925936 
L 679.505895 82.067069 
L 680.10505 82.067069 
L 680.10505 80.368148 
L 680.704205 80.368148 
L 680.704205 80.185107 
L 681.303359 80.185107 
L 681.303359 81.159083 
L 681.902514 81.159083 
L 681.902514 80.790788 
L 683.100824 80.800642 
L 683.100824 80.577129 
L 685.497443 80.506641 
L 685.497443 79.919191 
L 686.096598 79.919191 
L 686.096598 79.597007 
L 686.695753 79.597007 
L 686.695753 79.82961 
L 687.294908 79.82961 
L 687.294908 80.169818 
L 687.894063 80.169818 
L 687.894063 79.291608 
L 688.493217 79.291608 
L 688.493217 79.102898 
L 689.092372 79.102898 
L 689.092372 75.562809 
L 689.691527 75.562809 
L 689.691527 74.400637 
L 690.290682 74.400637 
L 690.290682 73.915227 
L 690.889837 73.915227 
L 690.889837 74.914051 
L 691.488992 74.914051 
L 691.488992 74.371144 
L 692.088146 74.371144 
L 692.088146 74.047296 
L 692.687301 74.047296 
L 692.687301 73.650679 
L 693.286456 73.650679 
L 693.286456 74.375366 
L 693.885611 74.375366 
L 693.885611 73.950574 
L 695.083921 73.849818 
L 695.083921 72.159334 
L 696.28223 72.215557 
L 696.28223 70.14923 
L 696.881385 70.14923 
L 696.881385 65.741451 
L 697.48054 65.741451 
L 697.48054 65.572645 
L 698.079695 65.572645 
L 698.079695 64.765057 
L 698.67885 64.765057 
L 698.67885 66.279987 
L 699.278005 66.279987 
L 699.278005 65.082181 
L 699.877159 65.082181 
L 699.877159 63.452044 
L 700.476314 63.452044 
L 700.476314 63.857692 
L 701.075469 63.857692 
L 701.075469 64.916941 
L 701.674624 64.916941 
L 701.674624 65.795128 
L 702.273779 65.795128 
L 702.273779 66.239416 
L 702.872934 66.239416 
L 702.872934 64.818265 
L 703.472088 64.818265 
L 703.472088 63.117009 
L 704.071243 63.117009 
L 704.071243 62.607194 
L 704.670398 62.607194 
L 704.670398 60.125177 
L 705.269553 60.125177 
L 705.269553 58.518126 
L 705.868708 58.518126 
L 705.868708 58.298406 
L 706.467863 58.298406 
L 706.467863 59.060741 
L 707.067017 59.060741 
L 707.067017 56.742879 
L 707.666172 56.742879 
L 707.666172 58.11128 
L 708.265327 58.11128 
L 708.265327 55.708939 
L 708.864482 55.708939 
L 708.864482 57.063537 
L 709.463637 57.063537 
L 709.463637 58.795671 
L 710.062792 58.795671 
L 710.062792 59.256481 
L 711.261101 59.358155 
L 711.261101 61.048514 
L 711.860256 61.048514 
L 711.860256 61.702244 
L 712.459411 61.702244 
L 712.459411 61.447405 
L 713.058566 61.447405 
L 713.058566 59.47376 
L 713.657721 59.47376 
L 713.657721 57.092116 
L 714.256876 57.092116 
L 714.256876 56.722383 
L 714.85603 56.722383 
L 714.85603 57.491649 
L 715.455185 57.491649 
L 715.455185 60.526575 
L 716.05434 60.526575 
L 716.05434 60.114559 
L 716.653495 60.114559 
L 716.653495 59.015935 
L 717.25265 59.015935 
L 717.25265 59.723142 
L 718.450959 59.815649 
L 718.450959 61.678743 
L 719.050114 61.678743 
L 719.050114 61.053652 
L 719.649269 61.053652 
L 719.649269 59.364632 
L 720.248424 59.364632 
L 720.248424 59.55876 
L 720.847579 59.55876 
L 720.847579 60.350261 
L 721.446734 60.350261 
L 721.446734 59.808279 
L 722.045888 59.808279 
L 722.045888 60.009265 
L 723.244198 59.988211 
L 723.244198 60.492717 
L 723.843353 60.492717 
L 723.843353 64.159693 
L 724.442508 64.159693 
L 724.442508 64.684623 
L 725.041663 64.684623 
L 725.041663 64.434955 
L 725.640817 64.434955 
L 725.640817 64.86369 
L 726.239972 64.86369 
L 726.239972 64.717942 
L 726.839127 64.717942 
L 726.839127 63.776241 
L 727.438282 63.776241 
L 727.438282 64.534448 
L 728.037437 64.534448 
L 728.037437 65.26314 
L 728.636592 65.26314 
L 728.636592 65.375396 
L 729.235746 65.375396 
L 729.235746 65.199309 
L 729.834901 65.199309 
L 729.834901 63.580877 
L 730.434056 63.580877 
L 730.434056 62.278368 
L 731.033211 62.278368 
L 731.033211 62.440964 
L 731.632366 62.440964 
L 731.632366 62.307221 
L 732.231521 62.307221 
L 732.231521 61.995191 
L 732.830675 61.995191 
L 732.830675 63.236549 
L 734.028985 63.255452 
L 734.028985 64.096092 
L 734.62814 64.096092 
L 734.62814 64.810703 
L 735.227295 64.810703 
L 735.227295 66.304511 
L 735.82645 66.304511 
L 735.82645 68.367666 
L 736.425605 68.367666 
L 736.425605 66.564339 
L 737.623914 66.469528 
L 737.623914 67.210794 
L 738.223069 67.210794 
L 738.223069 66.498941 
L 738.822224 66.498941 
L 738.822224 67.093596 
L 739.421379 67.093596 
L 739.421379 67.524227 
L 740.020534 67.524227 
L 740.020534 67.754422 
L 740.619688 67.754422 
L 740.619688 67.246907 
L 741.218843 67.246907 
L 741.218843 67.659526 
L 741.817998 67.659526 
L 741.817998 67.344441 
L 743.615463 67.435092 
L 743.615463 68.255178 
L 744.214617 68.255178 
L 744.214617 67.052952 
L 744.813772 67.052952 
L 744.813772 65.157588 
L 746.012082 65.213165 
L 746.012082 63.157647 
L 746.611237 63.157647 
L 746.611237 63.019914 
L 747.210392 63.019914 
L 747.210392 63.67925 
L 747.809546 63.67925 
L 747.809546 64.270363 
L 748.408701 64.270363 
L 748.408701 63.772507 
L 749.007856 63.772507 
L 749.007856 62.139123 
L 749.607011 62.139123 
L 749.607011 61.916876 
L 750.206166 61.916876 
L 750.206166 62.408335 
L 750.805321 62.408335 
L 750.805321 60.972295 
L 752.00363 60.870905 
L 752.00363 60.056995 
L 752.602785 60.056995 
L 752.602785 60.694227 
L 753.20194 60.694227 
L 753.20194 61.413135 
L 753.801095 61.413135 
L 753.801095 61.271045 
L 754.40025 61.271045 
L 754.40025 62.072529 
L 754.999404 62.072529 
L 754.999404 63.470269 
L 755.598559 63.470269 
L 755.598559 62.990354 
L 756.197714 62.990354 
L 756.197714 62.627635 
L 756.796869 62.627635 
L 756.796869 65.166167 
L 757.396024 65.166167 
L 757.396024 65.437476 
L 757.995179 65.437476 
L 757.995179 74.494876 
L 758.594334 74.494876 
L 758.594334 73.727636 
L 759.193488 73.727636 
L 759.193488 70.557189 
L 759.792643 70.557189 
L 759.792643 69.643106 
L 760.391798 69.643106 
L 760.391798 68.811016 
L 760.990953 68.811016 
L 760.990953 71.745491 
L 761.590108 71.745491 
L 761.590108 69.159714 
L 762.189263 69.159714 
L 762.189263 68.477012 
L 762.788417 68.477012 
L 762.788417 67.476187 
L 763.387572 67.476187 
L 763.387572 68.472254 
L 764.585882 68.520128 
L 764.585882 67.75107 
L 766.383346 67.695616 
L 766.383346 66.49243 
L 766.982501 66.49243 
L 766.982501 65.89784 
L 767.581656 65.89784 
L 767.581656 63.200061 
L 768.180811 63.200061 
L 768.180811 63.054097 
L 768.779966 63.054097 
L 768.779966 60.557093 
L 769.379121 60.557093 
L 769.379121 63.36855 
L 769.978275 63.36855 
L 769.978275 62.079827 
L 770.57743 62.079827 
L 770.57743 61.899764 
L 771.176585 61.899764 
L 771.176585 61.019239 
L 771.77574 61.019239 
L 771.77574 62.396549 
L 772.374895 62.396549 
L 772.374895 63.021526 
L 772.97405 63.021526 
L 772.97405 61.491274 
L 773.573204 61.491274 
L 773.573204 61.753856 
L 774.172359 61.753856 
L 774.172359 61.296345 
L 775.370669 61.269299 
L 775.370669 61.042081 
L 775.969824 61.042081 
L 775.969824 61.733486 
L 777.168133 61.80781 
L 777.168133 61.912512 
L 777.767288 61.912512 
L 777.767288 62.127828 
L 778.965598 62.146467 
L 778.965598 62.775095 
L 779.564753 62.775095 
L 779.564753 62.473297 
L 780.163908 62.473297 
L 780.163908 62.615935 
L 780.763063 62.615935 
L 780.763063 61.982618 
L 781.362217 61.982618 
L 781.362217 62.234294 
L 781.961372 62.234294 
L 781.961372 62.102577 
L 782.560527 62.102577 
L 782.560527 62.336228 
L 783.758837 62.379412 
L 783.758837 61.884126 
L 784.357992 61.884126 
L 784.357992 61.530839 
L 784.957146 61.530839 
L 784.957146 58.470502 
L 785.556301 58.470502 
L 785.556301 58.33239 
L 786.754611 58.403038 
L 786.754611 57.15971 
L 787.952921 57.128637 
L 787.952921 57.812166 
L 788.552075 57.812166 
L 788.552075 57.116486 
L 789.15123 57.116486 
L 789.15123 56.205929 
L 789.750385 56.205929 
L 789.750385 56.953288 
L 790.34954 56.953288 
L 790.34954 57.335054 
L 790.948695 57.335054 
L 790.948695 57.67385 
L 792.147004 57.647615 
L 792.147004 56.85143 
L 792.746159 56.85143 
L 792.746159 59.59766 
L 793.345314 59.59766 
L 793.345314 59.800464 
L 795.142779 59.875824 
L 795.142779 58.650796 
L 795.741933 58.650796 
L 795.741933 58.396069 
L 796.341088 58.396069 
L 796.341088 59.468412 
L 796.940243 59.468412 
L 796.940243 59.149119 
L 798.138553 59.150125 
L 798.138553 59.294827 
L 799.936017 59.192647 
L 799.936017 57.979038 
L 800.535172 57.979038 
L 800.535172 57.745959 
L 801.134327 57.745959 
L 801.134327 57.932614 
L 801.733482 57.932614 
L 801.733482 57.145568 
L 802.332637 57.145568 
L 802.332637 55.043318 
L 803.530946 54.967905 
L 803.530946 54.563647 
L 804.130101 54.563647 
L 804.130101 53.751884 
L 804.729256 53.751884 
L 804.729256 53.429014 
L 805.328411 53.429014 
L 805.328411 51.186958 
L 805.927566 51.186958 
L 805.927566 51.55158 
L 806.526721 51.55158 
L 806.526721 50.26098 
L 807.125875 50.26098 
L 807.125875 50.689156 
L 807.72503 50.689156 
L 807.72503 48.399932 
L 808.324185 48.399932 
L 808.324185 47.357816 
L 808.92334 47.357816 
L 808.92334 46.831095 
L 809.522495 46.831095 
L 809.522495 49.196567 
L 810.12165 49.196567 
L 810.12165 46.248119 
L 810.720804 46.248119 
L 810.720804 46.523041 
L 811.919114 46.606573 
L 811.919114 47.522717 
L 812.518269 47.522717 
L 812.518269 47.241162 
L 813.117424 47.241162 
L 813.117424 46.539085 
L 813.716579 46.539085 
L 813.716579 42.853427 
L 814.315733 42.853427 
L 814.315733 43.226034 
L 814.914888 43.226034 
L 814.914888 42.344988 
L 815.514043 42.344988 
L 815.514043 40.205737 
L 816.113198 40.205737 
L 816.113198 38.205781 
L 816.712353 38.205781 
L 816.712353 35.896043 
L 817.311508 35.896043 
L 817.311508 34.716634 
L 817.910662 34.716634 
L 817.910662 30.966513 
L 818.509817 30.966513 
L 818.509817 33.808123 
L 819.108972 33.808123 
L 819.108972 31.765632 
L 819.708127 31.765632 
L 819.708127 33.661405 
L 820.307282 33.661405 
L 820.307282 33.811661 
L 820.906437 33.811661 
L 820.906437 35.958857 
L 821.505592 35.958857 
L 821.505592 35.670317 
L 822.104746 35.670317 
L 822.104746 34.551478 
L 822.703901 34.551478 
L 822.703901 35.043695 
L 823.303056 35.043695 
L 823.303056 32.960558 
L 823.902211 32.960558 
L 823.902211 31.890107 
L 824.501366 31.890107 
L 824.501366 28.889516 
L 825.100521 28.889516 
L 825.100521 27.832004 
L 825.699675 27.832004 
L 825.699675 26.967021 
L 826.29883 26.967021 
L 826.29883 24.250339 
L 826.897985 24.250339 
L 826.897985 24.937918 
L 827.49714 24.937918 
L 827.49714 28.004736 
L 828.096295 28.004736 
L 828.096295 28.778986 
L 828.69545 28.778986 
L 828.69545 26.409046 
L 829.294604 26.409046 
L 829.294604 27.086877 
L 829.893759 27.086877 
L 829.893759 24.644472 
L 830.492914 24.644472 
L 830.492914 23.751937 
L 831.092069 23.751937 
L 831.092069 24.311463 
L 831.691224 24.311463 
L 831.691224 23.600445 
L 832.889533 23.69384 
L 832.889533 25.577057 
L 833.488688 25.577057 
L 833.488688 24.270182 
L 834.087843 24.270182 
L 834.087843 23.214666 
L 835.286153 23.106754 
L 835.286153 23.098615 
L 835.885308 23.098615 
L 835.885308 23.460908 
L 836.484462 23.460908 
L 836.484462 22.775742 
L 837.083617 22.775742 
L 837.083617 21.744453 
L 837.682772 21.744453 
L 837.682772 22.732788 
L 838.281927 22.732788 
L 838.281927 24.028385 
L 838.881082 24.028385 
L 838.881082 26.128638 
L 839.480237 26.128638 
L 839.480237 24.963955 
L 840.079391 24.963955 
L 840.079391 25.149159 
L 840.678546 25.149159 
L 840.678546 23.990135 
L 841.277701 23.990135 
L 841.277701 23.671048 
L 841.876856 23.671048 
L 841.876856 23.14342 
L 842.476011 23.14342 
L 842.476011 23.9382 
L 843.075166 23.9382 
L 843.075166 26.642356 
L 843.674321 26.642356 
L 843.674321 29.50089 
L 844.273475 29.50089 
L 844.273475 30.907427 
L 844.87263 30.907427 
L 844.87263 34.282521 
L 845.471785 34.282521 
L 845.471785 31.70776 
L 846.07094 31.70776 
L 846.07094 34.347491 
L 846.670095 34.347491 
L 846.670095 33.154982 
L 847.26925 33.154982 
L 847.26925 33.027129 
L 847.868404 33.027129 
L 847.868404 35.048749 
L 848.467559 35.048749 
L 848.467559 33.130869 
L 849.066714 33.130869 
L 849.066714 31.815065 
L 849.665869 31.815065 
L 849.665869 32.219569 
L 850.265024 32.219569 
L 850.265024 33.820454 
L 850.864179 33.820454 
L 850.864179 35.731479 
L 851.463333 35.731479 
L 851.463333 36.262796 
L 852.062488 36.262796 
L 852.062488 34.464108 
L 852.661643 34.464108 
L 852.661643 35.034899 
L 853.260798 35.034899 
L 853.260798 33.948442 
L 853.859953 33.948442 
L 853.859953 34.84568 
L 854.459108 34.84568 
L 854.459108 35.048308 
L 855.058262 35.048308 
L 855.058262 35.576681 
L 855.657417 35.576681 
L 855.657417 36.409541 
L 856.256572 36.409541 
L 856.256572 36.819907 
L 856.855727 36.819907 
L 856.855727 35.829033 
L 857.454882 35.829033 
L 857.454882 33.91507 
L 858.054037 33.91507 
L 858.054037 31.31574 
L 858.653191 31.31574 
L 858.653191 30.459746 
L 859.252346 30.459746 
L 859.252346 32.322684 
L 859.851501 32.322684 
L 859.851501 29.876961 
L 860.450656 29.876961 
L 860.450656 28.216282 
L 861.049811 28.216282 
L 861.049811 29.10705 
L 861.648966 29.10705 
L 861.648966 27.889659 
L 862.24812 27.889659 
L 862.24812 28.936722 
L 862.847275 28.936722 
L 862.847275 27.065124 
L 863.44643 27.065124 
L 863.44643 27.583378 
L 864.045585 27.583378 
L 864.045585 27.011371 
L 864.64474 27.011371 
L 864.64474 27.881429 
L 865.243895 27.881429 
L 865.243895 26.894661 
L 865.84305 26.894661 
L 865.84305 25.87614 
L 866.442204 25.87614 
L 866.442204 28.332743 
L 867.041359 28.332743 
L 867.041359 28.764556 
L 867.640514 28.764556 
L 867.640514 27.882617 
L 868.838824 27.796977 
L 868.838824 29.839749 
L 869.437979 29.839749 
L 869.437979 28.884445 
L 870.037133 28.884445 
L 870.037133 29.701989 
L 870.636288 29.701989 
L 870.636288 30.529074 
L 871.235443 30.529074 
L 871.235443 27.591103 
L 871.834598 27.591103 
L 871.834598 25.98368 
L 872.433753 25.98368 
L 872.433753 25.037976 
L 873.032908 25.037976 
L 873.032908 23.678838 
L 874.231217 23.698775 
L 874.231217 22.226627 
L 874.830372 22.226627 
L 874.830372 20.732418 
L 875.429527 20.732418 
L 875.429527 22.319009 
L 876.028682 22.319009 
L 876.028682 22.642373 
L 876.627837 22.642373 
L 876.627837 21.987038 
L 877.226991 21.987038 
L 877.226991 22.404485 
L 877.826146 22.404485 
L 877.826146 22.262435 
L 878.425301 22.262435 
L 878.425301 21.636151 
L 879.024456 21.636151 
L 879.024456 21.082361 
L 879.623611 21.082361 
L 879.623611 21.263585 
L 880.222766 21.263585 
L 880.222766 22.702907 
L 880.82192 22.702907 
L 880.82192 23.430247 
L 881.421075 23.430247 
L 881.421075 24.105578 
L 882.02023 24.105578 
L 882.02023 23.141043 
L 882.619385 23.141043 
L 882.619385 23.737572 
L 883.817695 23.760605 
L 883.817695 26.926824 
L 884.416849 26.926824 
L 884.416849 26.339072 
L 885.016004 26.339072 
L 885.016004 27.853354 
L 885.615159 27.853354 
L 885.615159 28.024276 
L 886.214314 28.024276 
L 886.214314 27.6215 
L 886.813469 27.6215 
L 886.813469 27.952082 
L 887.194182 27.952082 
L 887.194182 27.952082 
" clip-path="url(#pc4cb8966e0)" style="fill: none; stroke: #3572c6; stroke-width: 1.2; stroke-linecap: square"/>
   </g>
   <g id="line2d_74">
    <path d="M 75.557818 20.732418 
L 887.194182 20.732418 
L 887.194182 20.732418 
" clip-path="url(#pc4cb8966e0)" style="fill: none; stroke: #83a83b; stroke-width: 1.2; stroke-linecap: square"/>
   </g>
   <g id="line2d_75">
    <path d="M 75.557818 28.024276 
L 887.194182 28.024276 
L 887.194182 28.024276 
" clip-path="url(#pc4cb8966e0)" style="fill: none; stroke: #c44e52; stroke-width: 1.2; stroke-linecap: square"/>
   </g>
   <g id="line2d_76">
    <path d="M 875.429527 301.139691 
L 875.429527 7.379691 
" clip-path="url(#pc4cb8966e0)" style="fill: none; stroke: #83a83b; stroke-width: 1.2; stroke-linecap: square"/>
   </g>
   <g id="line2d_77">
    <path d="M 886.214314 301.139691 
L 886.214314 7.379691 
" clip-path="url(#pc4cb8966e0)" style="fill: none; stroke: #c44e52; stroke-width: 1.2; stroke-linecap: square"/>
   </g>
   <g id="patch_3">
    <path d="M 34.976 301.139691 
L 34.976 7.379691 
" style="fill: none; stroke: #899ab8; stroke-width: 1.12; stroke-linejoin: miter; stroke-linecap: square"/>
   </g>
   <g id="patch_4">
    <path d="M 927.776 301.139691 
L 927.776 7.379691 
" style="fill: none; stroke: #899ab8; stroke-width: 1.12; stroke-linejoin: miter; stroke-linecap: square"/>
   </g>
   <g id="patch_5">
    <path d="M 34.976 301.139691 
L 927.776 301.139691 
" style="fill: none; stroke: #899ab8; stroke-width: 1.12; stroke-linejoin: miter; stroke-linecap: square"/>
   </g>
   <g id="patch_6">
    <path d="M 34.976 7.379691 
L 927.776 7.379691 
" style="fill: none; stroke: #899ab8; stroke-width: 1.12; stroke-linejoin: miter; stroke-linecap: square"/>
   </g>
   <g id="text_14">
    <!-- 66063.56 -->
    <g style="fill: #83a83b" transform="translate(221.152444 20.732418)scale(0.132 -0.132)">
     <defs>
      <path id="DejaVuSans-2e" d="M 684 794 
L 1344 794 
L 1344 0 
L 684 0 
L 684 794 
z
" transform="scale(0.015625)"/>
     </defs>
     <use xlink:href="#DejaVuSans-36"/>
     <use xlink:href="#DejaVuSans-36" x="63.623047"/>
     <use xlink:href="#DejaVuSans-30" x="127.246094"/>
     <use xlink:href="#DejaVuSans-36" x="190.869141"/>
     <use xlink:href="#DejaVuSans-33" x="254.492188"/>
     <use xlink:href="#DejaVuSans-2e" x="318.115234"/>
     <use xlink:href="#DejaVuSans-35" x="349.902344"/>
     <use xlink:href="#DejaVuSans-36" x="413.525391"/>
    </g>
   </g>
   <g id="text_15">
    <!-- 46757.09 -->
    <g style="fill: #c44e52" transform="translate(221.152444 28.024276)scale(0.132 -0.132)">
     <defs>
      <path id="DejaVuSans-37" d="M 525 4666 
L 3525 4666 
L 3525 4397 
L 1831 0 
L 1172 0 
L 2766 4134 
L 525 4134 
L 525 4666 
z
" transform="scale(0.015625)"/>
      <path id="DejaVuSans-39" d="M 703 97 
L 703 672 
Q 941 559 1184 500 
Q 1428 441 1663 441 
Q 2288 441 2617 861 
Q 2947 1281 2994 2138 
Q 2813 1869 2534 1725 
Q 2256 1581 1919 1581 
Q 1219 1581 811 2004 
Q 403 2428 403 3163 
Q 403 3881 828 4315 
Q 1253 4750 1959 4750 
Q 2769 4750 3195 4129 
Q 3622 3509 3622 2328 
Q 3622 1225 3098 567 
Q 2575 -91 1691 -91 
Q 1453 -91 1209 -44 
Q 966 3 703 97 
z
M 1959 2075 
Q 2384 2075 2632 2365 
Q 2881 2656 2881 3163 
Q 2881 3666 2632 3958 
Q 2384 4250 1959 4250 
Q 1534 4250 1286 3958 
Q 1038 3666 1038 3163 
Q 1038 2656 1286 2365 
Q 1534 2075 1959 2075 
z
" transform="scale(0.015625)"/>
     </defs>
     <use xlink:href="#DejaVuSans-34"/>
     <use xlink:href="#DejaVuSans-36" x="63.623047"/>
     <use xlink:href="#DejaVuSans-37" x="127.246094"/>
     <use xlink:href="#DejaVuSans-35" x="190.869141"/>
     <use xlink:href="#DejaVuSans-37" x="254.492188"/>
     <use xlink:href="#DejaVuSans-2e" x="318.115234"/>
     <use xlink:href="#DejaVuSans-30" x="349.902344"/>
     <use xlink:href="#DejaVuSans-39" x="413.525391"/>
    </g>
   </g>
   <g id="legend_1">
    <g id="patch_7">
     <path d="M 432.207453 294.839691 
L 530.544547 294.839691 
Q 533.064547 294.839691 533.064547 292.319691 
L 533.064547 237.745941 
Q 533.064547 235.225941 530.544547 235.225941 
L 432.207453 235.225941 
Q 429.687453 235.225941 429.687453 237.745941 
L 429.687453 292.319691 
Q 429.687453 294.839691 432.207453 294.839691 
z
" style="fill: #373e4b; opacity: 0.8; stroke: #cccccc; stroke-width: 0.16; stroke-linejoin: miter"/>
    </g>
    <g id="line2d_78">
     <path d="M 434.727453 245.429972 
L 434.727453 245.429972 
L 447.327453 245.429972 
L 447.327453 245.429972 
L 459.927453 245.429972 
" style="fill: none; stroke: #3572c6; stroke-width: 1.2; stroke-linecap: square"/>
    </g>
    <g id="text_16">
     <!-- USD/BTC -->
     <g style="fill: #b1bed6" transform="translate(470.007453 249.839972)scale(0.126 -0.126)">
      <defs>
       <path id="DejaVuSans-55" d="M 556 4666 
L 1191 4666 
L 1191 1831 
Q 1191 1081 1462 751 
Q 1734 422 2344 422 
Q 2950 422 3222 751 
Q 3494 1081 3494 1831 
L 3494 4666 
L 4128 4666 
L 4128 1753 
Q 4128 841 3676 375 
Q 3225 -91 2344 -91 
Q 1459 -91 1007 375 
Q 556 841 556 1753 
L 556 4666 
z
" transform="scale(0.015625)"/>
       <path id="DejaVuSans-53" d="M 3425 4513 
L 3425 3897 
Q 3066 4069 2747 4153 
Q 2428 4238 2131 4238 
Q 1616 4238 1336 4038 
Q 1056 3838 1056 3469 
Q 1056 3159 1242 3001 
Q 1428 2844 1947 2747 
L 2328 2669 
Q 3034 2534 3370 2195 
Q 3706 1856 3706 1288 
Q 3706 609 3251 259 
Q 2797 -91 1919 -91 
Q 1588 -91 1214 -16 
Q 841 59 441 206 
L 441 856 
Q 825 641 1194 531 
Q 1563 422 1919 422 
Q 2459 422 2753 634 
Q 3047 847 3047 1241 
Q 3047 1584 2836 1778 
Q 2625 1972 2144 2069 
L 1759 2144 
Q 1053 2284 737 2584 
Q 422 2884 422 3419 
Q 422 4038 858 4394 
Q 1294 4750 2059 4750 
Q 2388 4750 2728 4690 
Q 3069 4631 3425 4513 
z
" transform="scale(0.015625)"/>
       <path id="DejaVuSans-2f" d="M 1625 4666 
L 2156 4666 
L 531 -594 
L 0 -594 
L 1625 4666 
z
" transform="scale(0.015625)"/>
       <path id="DejaVuSans-42" d="M 1259 2228 
L 1259 519 
L 2272 519 
Q 2781 519 3026 730 
Q 3272 941 3272 1375 
Q 3272 1813 3026 2020 
Q 2781 2228 2272 2228 
L 1259 2228 
z
M 1259 4147 
L 1259 2741 
L 2194 2741 
Q 2656 2741 2882 2914 
Q 3109 3088 3109 3444 
Q 3109 3797 2882 3972 
Q 2656 4147 2194 4147 
L 1259 4147 
z
M 628 4666 
L 2241 4666 
Q 2963 4666 3353 4366 
Q 3744 4066 3744 3513 
Q 3744 3084 3544 2831 
Q 3344 2578 2956 2516 
Q 3422 2416 3680 2098 
Q 3938 1781 3938 1306 
Q 3938 681 3513 340 
Q 3088 0 2303 0 
L 628 0 
L 628 4666 
z
" transform="scale(0.015625)"/>
       <path id="DejaVuSans-54" d="M -19 4666 
L 3928 4666 
L 3928 4134 
L 2272 4134 
L 2272 0 
L 1638 0 
L 1638 4134 
L -19 4134 
L -19 4666 
z
" transform="scale(0.015625)"/>
       <path id="DejaVuSans-43" d="M 4122 4306 
L 4122 3641 
Q 3803 3938 3442 4084 
Q 3081 4231 2675 4231 
Q 1875 4231 1450 3742 
Q 1025 3253 1025 2328 
Q 1025 1406 1450 917 
Q 1875 428 2675 428 
Q 3081 428 3442 575 
Q 3803 722 4122 1019 
L 4122 359 
Q 3791 134 3420 21 
Q 3050 -91 2638 -91 
Q 1578 -91 968 557 
Q 359 1206 359 2328 
Q 359 3453 968 4101 
Q 1578 4750 2638 4750 
Q 3056 4750 3426 4639 
Q 3797 4528 4122 4306 
z
" transform="scale(0.015625)"/>
      </defs>
      <use xlink:href="#DejaVuSans-55"/>
      <use xlink:href="#DejaVuSans-53" x="73.193359"/>
      <use xlink:href="#DejaVuSans-44" x="136.669922"/>
      <use xlink:href="#DejaVuSans-2f" x="213.671875"/>
      <use xlink:href="#DejaVuSans-42" x="247.363281"/>
      <use xlink:href="#DejaVuSans-54" x="315.966797"/>
      <use xlink:href="#DejaVuSans-43" x="371.175781"/>
     </g>
    </g>
    <g id="line2d_79">
     <path d="M 434.727453 263.92441 
L 434.727453 263.92441 
L 447.327453 263.92441 
L 447.327453 263.92441 
L 459.927453 263.92441 
" style="fill: none; stroke: #83a83b; stroke-width: 1.2; stroke-linecap: square"/>
    </g>
    <g id="text_17">
     <!-- Max -->
     <g style="fill: #b1bed6" transform="translate(470.007453 268.33441)scale(0.126 -0.126)">
      <defs>
       <path id="DejaVuSans-4d" d="M 628 4666 
L 1569 4666 
L 2759 1491 
L 3956 4666 
L 4897 4666 
L 4897 0 
L 4281 0 
L 4281 4097 
L 3078 897 
L 2444 897 
L 1241 4097 
L 1241 0 
L 628 0 
L 628 4666 
z
" transform="scale(0.015625)"/>
       <path id="DejaVuSans-78" d="M 3513 3500 
L 2247 1797 
L 3578 0 
L 2900 0 
L 1881 1375 
L 863 0 
L 184 0 
L 1544 1831 
L 300 3500 
L 978 3500 
L 1906 2253 
L 2834 3500 
L 3513 3500 
z
" transform="scale(0.015625)"/>
      </defs>
      <use xlink:href="#DejaVuSans-4d"/>
      <use xlink:href="#DejaVuSans-61" x="86.279297"/>
      <use xlink:href="#DejaVuSans-78" x="147.558594"/>
     </g>
    </g>
    <g id="line2d_80">
     <path d="M 434.727453 282.418847 
L 434.727453 282.418847 
L 447.327453 282.418847 
L 447.327453 282.418847 
L 459.927453 282.418847 
" style="fill: none; stroke: #c44e52; stroke-width: 1.2; stroke-linecap: square"/>
    </g>
    <g id="text_18">
     <!-- local_Min -->
     <g style="fill: #b1bed6" transform="translate(470.007453 286.828847)scale(0.126 -0.126)">
      <defs>
       <path id="DejaVuSans-6c" d="M 603 4863 
L 1178 4863 
L 1178 0 
L 603 0 
L 603 4863 
z
" transform="scale(0.015625)"/>
       <path id="DejaVuSans-6f" d="M 1959 3097 
Q 1497 3097 1228 2736 
Q 959 2375 959 1747 
Q 959 1119 1226 758 
Q 1494 397 1959 397 
Q 2419 397 2687 759 
Q 2956 1122 2956 1747 
Q 2956 2369 2687 2733 
Q 2419 3097 1959 3097 
z
M 1959 3584 
Q 2709 3584 3137 3096 
Q 3566 2609 3566 1747 
Q 3566 888 3137 398 
Q 2709 -91 1959 -91 
Q 1206 -91 779 398 
Q 353 888 353 1747 
Q 353 2609 779 3096 
Q 1206 3584 1959 3584 
z
" transform="scale(0.015625)"/>
       <path id="DejaVuSans-63" d="M 3122 3366 
L 3122 2828 
Q 2878 2963 2633 3030 
Q 2388 3097 2138 3097 
Q 1578 3097 1268 2742 
Q 959 2388 959 1747 
Q 959 1106 1268 751 
Q 1578 397 2138 397 
Q 2388 397 2633 464 
Q 2878 531 3122 666 
L 3122 134 
Q 2881 22 2623 -34 
Q 2366 -91 2075 -91 
Q 1284 -91 818 406 
Q 353 903 353 1747 
Q 353 2603 823 3093 
Q 1294 3584 2113 3584 
Q 2378 3584 2631 3529 
Q 2884 3475 3122 3366 
z
" transform="scale(0.015625)"/>
       <path id="DejaVuSans-5f" d="M 3263 -1063 
L 3263 -1509 
L -63 -1509 
L -63 -1063 
L 3263 -1063 
z
" transform="scale(0.015625)"/>
       <path id="DejaVuSans-69" d="M 603 3500 
L 1178 3500 
L 1178 0 
L 603 0 
L 603 3500 
z
M 603 4863 
L 1178 4863 
L 1178 4134 
L 603 4134 
L 603 4863 
z
" transform="scale(0.015625)"/>
       <path id="DejaVuSans-6e" d="M 3513 2113 
L 3513 0 
L 2938 0 
L 2938 2094 
Q 2938 2591 2744 2837 
Q 2550 3084 2163 3084 
Q 1697 3084 1428 2787 
Q 1159 2491 1159 1978 
L 1159 0 
L 581 0 
L 581 3500 
L 1159 3500 
L 1159 2956 
Q 1366 3272 1645 3428 
Q 1925 3584 2291 3584 
Q 2894 3584 3203 3211 
Q 3513 2838 3513 2113 
z
" transform="scale(0.015625)"/>
      </defs>
      <use xlink:href="#DejaVuSans-6c"/>
      <use xlink:href="#DejaVuSans-6f" x="27.783203"/>
      <use xlink:href="#DejaVuSans-63" x="88.964844"/>
      <use xlink:href="#DejaVuSans-61" x="143.945312"/>
      <use xlink:href="#DejaVuSans-6c" x="205.224609"/>
      <use xlink:href="#DejaVuSans-5f" x="233.007812"/>
      <use xlink:href="#DejaVuSans-4d" x="283.007812"/>
      <use xlink:href="#DejaVuSans-69" x="369.287109"/>
      <use xlink:href="#DejaVuSans-6e" x="397.070312"/>
     </g>
    </g>
   </g>
  </g>
 </g>
 <defs>
  <clipPath id="pc4cb8966e0">
   <rect x="34.976" y="7.379691" width="892.8" height="293.76"/>
  </clipPath>
 </defs>
</svg>
