<?xml version="1.0" encoding="utf-8" standalone="no"?>
<!DOCTYPE svg PUBLIC "-//W3C//DTD SVG 1.1//EN"
  "http://www.w3.org/Graphics/SVG/1.1/DTD/svg11.dtd">
<svg xmlns:xlink="http://www.w3.org/1999/xlink" width="934.976pt" height="358.843487pt" viewBox="0 0 934.976 358.843487" xmlns="http://www.w3.org/2000/svg" version="1.1">
 <metadata>
  <rdf:RDF xmlns:dc="http://purl.org/dc/elements/1.1/" xmlns:cc="http://creativecommons.org/ns#" xmlns:rdf="http://www.w3.org/1999/02/22-rdf-syntax-ns#">
   <cc:Work>
    <dc:type rdf:resource="http://purl.org/dc/dcmitype/StillImage"/>
    <dc:date>2023-11-01T09:52:51.723467</dc:date>
    <dc:format>image/svg+xml</dc:format>
    <dc:creator>
     <cc:Agent>
      <dc:title>Matplotlib v3.8.1, https://matplotlib.org/</dc:title>
     </cc:Agent>
    </dc:creator>
   </cc:Work>
  </rdf:RDF>
 </metadata>
 <defs>
  <style type="text/css">*{stroke-linejoin: round; stroke-linecap: butt}</style>
 </defs>
 <g id="figure_1">
  <g id="patch_1">
   <path d="M 0 358.843487 
L 934.976 358.843487 
L 934.976 0 
L 0 0 
z
" style="fill: #373e4b"/>
  </g>
  <g id="axes_1">
   <g id="patch_2">
    <path d="M 34.976 301.512794 
L 927.776 301.512794 
L 927.776 7.752794 
L 34.976 7.752794 
z
" style="fill: #373e4b"/>
   </g>
   <g id="matplotlib.axis_1">
    <g id="xtick_1">
     <g id="line2d_1">
      <path d="M 148.217516 301.512794 
L 148.217516 7.752794 
" clip-path="url(#p536467dca4)" style="fill: none; stroke: #546379; stroke-width: 1.12; stroke-linecap: square"/>
     </g>
     <g id="line2d_2"/>
     <g id="text_1">
      <!-- 2012 -->
      <g style="fill: #b1bed6" transform="translate(119.136476 331.437649) rotate(-30) scale(0.126 -0.126)">
       <defs>
        <path id="DejaVuSans-32" d="M 1228 531 
L 3431 531 
L 3431 0 
L 469 0 
L 469 531 
Q 828 903 1448 1529 
Q 2069 2156 2228 2338 
Q 2531 2678 2651 2914 
Q 2772 3150 2772 3378 
Q 2772 3750 2511 3984 
Q 2250 4219 1831 4219 
Q 1534 4219 1204 4116 
Q 875 4013 500 3803 
L 500 4441 
Q 881 4594 1212 4672 
Q 1544 4750 1819 4750 
Q 2544 4750 2975 4387 
Q 3406 4025 3406 3419 
Q 3406 3131 3298 2873 
Q 3191 2616 2906 2266 
Q 2828 2175 2409 1742 
Q 1991 1309 1228 531 
z
" transform="scale(0.015625)"/>
        <path id="DejaVuSans-30" d="M 2034 4250 
Q 1547 4250 1301 3770 
Q 1056 3291 1056 2328 
Q 1056 1369 1301 889 
Q 1547 409 2034 409 
Q 2525 409 2770 889 
Q 3016 1369 3016 2328 
Q 3016 3291 2770 3770 
Q 2525 4250 2034 4250 
z
M 2034 4750 
Q 2819 4750 3233 4129 
Q 3647 3509 3647 2328 
Q 3647 1150 3233 529 
Q 2819 -91 2034 -91 
Q 1250 -91 836 529 
Q 422 1150 422 2328 
Q 422 3509 836 4129 
Q 1250 4750 2034 4750 
z
" transform="scale(0.015625)"/>
        <path id="DejaVuSans-31" d="M 794 531 
L 1825 531 
L 1825 4091 
L 703 3866 
L 703 4441 
L 1819 4666 
L 2450 4666 
L 2450 531 
L 3481 531 
L 3481 0 
L 794 0 
L 794 531 
z
" transform="scale(0.015625)"/>
       </defs>
       <use xlink:href="#DejaVuSans-32"/>
       <use xlink:href="#DejaVuSans-30" x="63.623047"/>
       <use xlink:href="#DejaVuSans-31" x="127.246094"/>
       <use xlink:href="#DejaVuSans-32" x="190.869141"/>
      </g>
     </g>
    </g>
    <g id="xtick_2">
     <g id="line2d_3">
      <path d="M 273.192195 301.512794 
L 273.192195 7.752794 
" clip-path="url(#p536467dca4)" style="fill: none; stroke: #546379; stroke-width: 1.12; stroke-linecap: square"/>
     </g>
     <g id="line2d_4"/>
     <g id="text_2">
      <!-- 2014 -->
      <g style="fill: #b1bed6" transform="translate(244.111155 331.437649) rotate(-30) scale(0.126 -0.126)">
       <defs>
        <path id="DejaVuSans-34" d="M 2419 4116 
L 825 1625 
L 2419 1625 
L 2419 4116 
z
M 2253 4666 
L 3047 4666 
L 3047 1625 
L 3713 1625 
L 3713 1100 
L 3047 1100 
L 3047 0 
L 2419 0 
L 2419 1100 
L 313 1100 
L 313 1709 
L 2253 4666 
z
" transform="scale(0.015625)"/>
       </defs>
       <use xlink:href="#DejaVuSans-32"/>
       <use xlink:href="#DejaVuSans-30" x="63.623047"/>
       <use xlink:href="#DejaVuSans-31" x="127.246094"/>
       <use xlink:href="#DejaVuSans-34" x="190.869141"/>
      </g>
     </g>
    </g>
    <g id="xtick_3">
     <g id="line2d_5">
      <path d="M 397.99591 301.512794 
L 397.99591 7.752794 
" clip-path="url(#p536467dca4)" style="fill: none; stroke: #546379; stroke-width: 1.12; stroke-linecap: square"/>
     </g>
     <g id="line2d_6"/>
     <g id="text_3">
      <!-- 2016 -->
      <g style="fill: #b1bed6" transform="translate(368.914871 331.437649) rotate(-30) scale(0.126 -0.126)">
       <defs>
        <path id="DejaVuSans-36" d="M 2113 2584 
Q 1688 2584 1439 2293 
Q 1191 2003 1191 1497 
Q 1191 994 1439 701 
Q 1688 409 2113 409 
Q 2538 409 2786 701 
Q 3034 994 3034 1497 
Q 3034 2003 2786 2293 
Q 2538 2584 2113 2584 
z
M 3366 4563 
L 3366 3988 
Q 3128 4100 2886 4159 
Q 2644 4219 2406 4219 
Q 1781 4219 1451 3797 
Q 1122 3375 1075 2522 
Q 1259 2794 1537 2939 
Q 1816 3084 2150 3084 
Q 2853 3084 3261 2657 
Q 3669 2231 3669 1497 
Q 3669 778 3244 343 
Q 2819 -91 2113 -91 
Q 1303 -91 875 529 
Q 447 1150 447 2328 
Q 447 3434 972 4092 
Q 1497 4750 2381 4750 
Q 2619 4750 2861 4703 
Q 3103 4656 3366 4563 
z
" transform="scale(0.015625)"/>
       </defs>
       <use xlink:href="#DejaVuSans-32"/>
       <use xlink:href="#DejaVuSans-30" x="63.623047"/>
       <use xlink:href="#DejaVuSans-31" x="127.246094"/>
       <use xlink:href="#DejaVuSans-36" x="190.869141"/>
      </g>
     </g>
    </g>
    <g id="xtick_4">
     <g id="line2d_7">
      <path d="M 522.97059 301.512794 
L 522.97059 7.752794 
" clip-path="url(#p536467dca4)" style="fill: none; stroke: #546379; stroke-width: 1.12; stroke-linecap: square"/>
     </g>
     <g id="line2d_8"/>
     <g id="text_4">
      <!-- 2018 -->
      <g style="fill: #b1bed6" transform="translate(493.88955 331.437649) rotate(-30) scale(0.126 -0.126)">
       <defs>
        <path id="DejaVuSans-38" d="M 2034 2216 
Q 1584 2216 1326 1975 
Q 1069 1734 1069 1313 
Q 1069 891 1326 650 
Q 1584 409 2034 409 
Q 2484 409 2743 651 
Q 3003 894 3003 1313 
Q 3003 1734 2745 1975 
Q 2488 2216 2034 2216 
z
M 1403 2484 
Q 997 2584 770 2862 
Q 544 3141 544 3541 
Q 544 4100 942 4425 
Q 1341 4750 2034 4750 
Q 2731 4750 3128 4425 
Q 3525 4100 3525 3541 
Q 3525 3141 3298 2862 
Q 3072 2584 2669 2484 
Q 3125 2378 3379 2068 
Q 3634 1759 3634 1313 
Q 3634 634 3220 271 
Q 2806 -91 2034 -91 
Q 1263 -91 848 271 
Q 434 634 434 1313 
Q 434 1759 690 2068 
Q 947 2378 1403 2484 
z
M 1172 3481 
Q 1172 3119 1398 2916 
Q 1625 2713 2034 2713 
Q 2441 2713 2670 2916 
Q 2900 3119 2900 3481 
Q 2900 3844 2670 4047 
Q 2441 4250 2034 4250 
Q 1625 4250 1398 4047 
Q 1172 3844 1172 3481 
z
" transform="scale(0.015625)"/>
       </defs>
       <use xlink:href="#DejaVuSans-32"/>
       <use xlink:href="#DejaVuSans-30" x="63.623047"/>
       <use xlink:href="#DejaVuSans-31" x="127.246094"/>
       <use xlink:href="#DejaVuSans-38" x="190.869141"/>
      </g>
     </g>
    </g>
    <g id="xtick_5">
     <g id="line2d_9">
      <path d="M 647.774305 301.512794 
L 647.774305 7.752794 
" clip-path="url(#p536467dca4)" style="fill: none; stroke: #546379; stroke-width: 1.12; stroke-linecap: square"/>
     </g>
     <g id="line2d_10"/>
     <g id="text_5">
      <!-- 2020 -->
      <g style="fill: #b1bed6" transform="translate(618.693266 331.437649) rotate(-30) scale(0.126 -0.126)">
       <use xlink:href="#DejaVuSans-32"/>
       <use xlink:href="#DejaVuSans-30" x="63.623047"/>
       <use xlink:href="#DejaVuSans-32" x="127.246094"/>
       <use xlink:href="#DejaVuSans-30" x="190.869141"/>
      </g>
     </g>
    </g>
    <g id="xtick_6">
     <g id="line2d_11">
      <path d="M 772.748985 301.512794 
L 772.748985 7.752794 
" clip-path="url(#p536467dca4)" style="fill: none; stroke: #546379; stroke-width: 1.12; stroke-linecap: square"/>
     </g>
     <g id="line2d_12"/>
     <g id="text_6">
      <!-- 2022 -->
      <g style="fill: #b1bed6" transform="translate(743.667945 331.437649) rotate(-30) scale(0.126 -0.126)">
       <use xlink:href="#DejaVuSans-32"/>
       <use xlink:href="#DejaVuSans-30" x="63.623047"/>
       <use xlink:href="#DejaVuSans-32" x="127.246094"/>
       <use xlink:href="#DejaVuSans-32" x="190.869141"/>
      </g>
     </g>
    </g>
    <g id="xtick_7">
     <g id="line2d_13">
      <path d="M 897.5527 301.512794 
L 897.5527 7.752794 
" clip-path="url(#p536467dca4)" style="fill: none; stroke: #546379; stroke-width: 1.12; stroke-linecap: square"/>
     </g>
     <g id="line2d_14"/>
     <g id="text_7">
      <!-- 2024 -->
      <g style="fill: #b1bed6" transform="translate(868.47166 331.437649) rotate(-30) scale(0.126 -0.126)">
       <use xlink:href="#DejaVuSans-32"/>
       <use xlink:href="#DejaVuSans-30" x="63.623047"/>
       <use xlink:href="#DejaVuSans-32" x="127.246094"/>
       <use xlink:href="#DejaVuSans-34" x="190.869141"/>
      </g>
     </g>
    </g>
    <g id="text_8">
     <!-- Date -->
     <g style="fill: #b1bed6" transform="translate(464.166875 348.648737) scale(0.144 -0.144)">
      <defs>
       <path id="DejaVuSans-44" d="M 1259 4147 
L 1259 519 
L 2022 519 
Q 2988 519 3436 956 
Q 3884 1394 3884 2338 
Q 3884 3275 3436 3711 
Q 2988 4147 2022 4147 
L 1259 4147 
z
M 628 4666 
L 1925 4666 
Q 3281 4666 3915 4102 
Q 4550 3538 4550 2338 
Q 4550 1131 3912 565 
Q 3275 0 1925 0 
L 628 0 
L 628 4666 
z
" transform="scale(0.015625)"/>
       <path id="DejaVuSans-61" d="M 2194 1759 
Q 1497 1759 1228 1600 
Q 959 1441 959 1056 
Q 959 750 1161 570 
Q 1363 391 1709 391 
Q 2188 391 2477 730 
Q 2766 1069 2766 1631 
L 2766 1759 
L 2194 1759 
z
M 3341 1997 
L 3341 0 
L 2766 0 
L 2766 531 
Q 2569 213 2275 61 
Q 1981 -91 1556 -91 
Q 1019 -91 701 211 
Q 384 513 384 1019 
Q 384 1609 779 1909 
Q 1175 2209 1959 2209 
L 2766 2209 
L 2766 2266 
Q 2766 2663 2505 2880 
Q 2244 3097 1772 3097 
Q 1472 3097 1187 3025 
Q 903 2953 641 2809 
L 641 3341 
Q 956 3463 1253 3523 
Q 1550 3584 1831 3584 
Q 2591 3584 2966 3190 
Q 3341 2797 3341 1997 
z
" transform="scale(0.015625)"/>
       <path id="DejaVuSans-74" d="M 1172 4494 
L 1172 3500 
L 2356 3500 
L 2356 3053 
L 1172 3053 
L 1172 1153 
Q 1172 725 1289 603 
Q 1406 481 1766 481 
L 2356 481 
L 2356 0 
L 1766 0 
Q 1100 0 847 248 
Q 594 497 594 1153 
L 594 3053 
L 172 3053 
L 172 3500 
L 594 3500 
L 594 4494 
L 1172 4494 
z
" transform="scale(0.015625)"/>
       <path id="DejaVuSans-65" d="M 3597 1894 
L 3597 1613 
L 953 1613 
Q 991 1019 1311 708 
Q 1631 397 2203 397 
Q 2534 397 2845 478 
Q 3156 559 3463 722 
L 3463 178 
Q 3153 47 2828 -22 
Q 2503 -91 2169 -91 
Q 1331 -91 842 396 
Q 353 884 353 1716 
Q 353 2575 817 3079 
Q 1281 3584 2069 3584 
Q 2775 3584 3186 3129 
Q 3597 2675 3597 1894 
z
M 3022 2063 
Q 3016 2534 2758 2815 
Q 2500 3097 2075 3097 
Q 1594 3097 1305 2825 
Q 1016 2553 972 2059 
L 3022 2063 
z
" transform="scale(0.015625)"/>
      </defs>
      <use xlink:href="#DejaVuSans-44"/>
      <use xlink:href="#DejaVuSans-61" x="77.001953"/>
      <use xlink:href="#DejaVuSans-74" x="138.28125"/>
      <use xlink:href="#DejaVuSans-65" x="177.490234"/>
     </g>
    </g>
   </g>
   <g id="matplotlib.axis_2">
    <g id="ytick_1">
     <g id="line2d_15">
      <path d="M 34.976 254.287862 
L 927.776 254.287862 
" clip-path="url(#p536467dca4)" style="fill: none; stroke: #546379; stroke-width: 1.12; stroke-linecap: square"/>
     </g>
     <g id="line2d_16"/>
     <g id="text_9">
      <!-- $\mathdefault{10^{0}}$ -->
      <g style="fill: #b1bed6" transform="translate(7.2 259.074878) scale(0.126 -0.126)">
       <use xlink:href="#DejaVuSans-31" transform="translate(0 0.765625)"/>
       <use xlink:href="#DejaVuSans-30" transform="translate(63.623047 0.765625)"/>
       <use xlink:href="#DejaVuSans-30" transform="translate(128.203125 39.046875) scale(0.7)"/>
      </g>
     </g>
    </g>
    <g id="ytick_2">
     <g id="line2d_17">
      <path d="M 34.976 205.827693 
L 927.776 205.827693 
" clip-path="url(#p536467dca4)" style="fill: none; stroke: #546379; stroke-width: 1.12; stroke-linecap: square"/>
     </g>
     <g id="line2d_18"/>
     <g id="text_10">
      <!-- $\mathdefault{10^{1}}$ -->
      <g style="fill: #b1bed6" transform="translate(7.2 210.614709) scale(0.126 -0.126)">
       <use xlink:href="#DejaVuSans-31" transform="translate(0 0.684375)"/>
       <use xlink:href="#DejaVuSans-30" transform="translate(63.623047 0.684375)"/>
       <use xlink:href="#DejaVuSans-31" transform="translate(128.203125 38.965625) scale(0.7)"/>
      </g>
     </g>
    </g>
    <g id="ytick_3">
     <g id="line2d_19">
      <path d="M 34.976 157.367524 
L 927.776 157.367524 
" clip-path="url(#p536467dca4)" style="fill: none; stroke: #546379; stroke-width: 1.12; stroke-linecap: square"/>
     </g>
     <g id="line2d_20"/>
     <g id="text_11">
      <!-- $\mathdefault{10^{2}}$ -->
      <g style="fill: #b1bed6" transform="translate(7.2 162.154539) scale(0.126 -0.126)">
       <use xlink:href="#DejaVuSans-31" transform="translate(0 0.765625)"/>
       <use xlink:href="#DejaVuSans-30" transform="translate(63.623047 0.765625)"/>
       <use xlink:href="#DejaVuSans-32" transform="translate(128.203125 39.046875) scale(0.7)"/>
      </g>
     </g>
    </g>
    <g id="ytick_4">
     <g id="line2d_21">
      <path d="M 34.976 108.907354 
L 927.776 108.907354 
" clip-path="url(#p536467dca4)" style="fill: none; stroke: #546379; stroke-width: 1.12; stroke-linecap: square"/>
     </g>
     <g id="line2d_22"/>
     <g id="text_12">
      <!-- $\mathdefault{10^{3}}$ -->
      <g style="fill: #b1bed6" transform="translate(7.2 113.69437) scale(0.126 -0.126)">
       <defs>
        <path id="DejaVuSans-33" d="M 2597 2516 
Q 3050 2419 3304 2112 
Q 3559 1806 3559 1356 
Q 3559 666 3084 287 
Q 2609 -91 1734 -91 
Q 1441 -91 1130 -33 
Q 819 25 488 141 
L 488 750 
Q 750 597 1062 519 
Q 1375 441 1716 441 
Q 2309 441 2620 675 
Q 2931 909 2931 1356 
Q 2931 1769 2642 2001 
Q 2353 2234 1838 2234 
L 1294 2234 
L 1294 2753 
L 1863 2753 
Q 2328 2753 2575 2939 
Q 2822 3125 2822 3475 
Q 2822 3834 2567 4026 
Q 2313 4219 1838 4219 
Q 1578 4219 1281 4162 
Q 984 4106 628 3988 
L 628 4550 
Q 988 4650 1302 4700 
Q 1616 4750 1894 4750 
Q 2613 4750 3031 4423 
Q 3450 4097 3450 3541 
Q 3450 3153 3228 2886 
Q 3006 2619 2597 2516 
z
" transform="scale(0.015625)"/>
       </defs>
       <use xlink:href="#DejaVuSans-31" transform="translate(0 0.765625)"/>
       <use xlink:href="#DejaVuSans-30" transform="translate(63.623047 0.765625)"/>
       <use xlink:href="#DejaVuSans-33" transform="translate(128.203125 39.046875) scale(0.7)"/>
      </g>
     </g>
    </g>
    <g id="ytick_5">
     <g id="line2d_23">
      <path d="M 34.976 60.447185 
L 927.776 60.447185 
" clip-path="url(#p536467dca4)" style="fill: none; stroke: #546379; stroke-width: 1.12; stroke-linecap: square"/>
     </g>
     <g id="line2d_24"/>
     <g id="text_13">
      <!-- $\mathdefault{10^{4}}$ -->
      <g style="fill: #b1bed6" transform="translate(7.2 65.234201) scale(0.126 -0.126)">
       <use xlink:href="#DejaVuSans-31" transform="translate(0 0.684375)"/>
       <use xlink:href="#DejaVuSans-30" transform="translate(63.623047 0.684375)"/>
       <use xlink:href="#DejaVuSans-34" transform="translate(128.203125 38.965625) scale(0.7)"/>
      </g>
     </g>
    </g>
    <g id="ytick_6">
     <g id="line2d_25">
      <path d="M 34.976 11.987016 
L 927.776 11.987016 
" clip-path="url(#p536467dca4)" style="fill: none; stroke: #546379; stroke-width: 1.12; stroke-linecap: square"/>
     </g>
     <g id="line2d_26"/>
     <g id="text_14">
      <!-- $\mathdefault{10^{5}}$ -->
      <g style="fill: #b1bed6" transform="translate(7.2 16.774031) scale(0.126 -0.126)">
       <defs>
        <path id="DejaVuSans-35" d="M 691 4666 
L 3169 4666 
L 3169 4134 
L 1269 4134 
L 1269 2991 
Q 1406 3038 1543 3061 
Q 1681 3084 1819 3084 
Q 2600 3084 3056 2656 
Q 3513 2228 3513 1497 
Q 3513 744 3044 326 
Q 2575 -91 1722 -91 
Q 1428 -91 1123 -41 
Q 819 9 494 109 
L 494 744 
Q 775 591 1075 516 
Q 1375 441 1709 441 
Q 2250 441 2565 725 
Q 2881 1009 2881 1497 
Q 2881 1984 2565 2268 
Q 2250 2553 1709 2553 
Q 1456 2553 1204 2497 
Q 953 2441 691 2322 
L 691 4666 
z
" transform="scale(0.015625)"/>
       </defs>
       <use xlink:href="#DejaVuSans-31" transform="translate(0 0.684375)"/>
       <use xlink:href="#DejaVuSans-30" transform="translate(63.623047 0.684375)"/>
       <use xlink:href="#DejaVuSans-35" transform="translate(128.203125 38.965625) scale(0.7)"/>
      </g>
     </g>
    </g>
    <g id="ytick_7">
     <g id="line2d_27"/>
    </g>
    <g id="ytick_8">
     <g id="line2d_28"/>
    </g>
    <g id="ytick_9">
     <g id="line2d_29"/>
    </g>
    <g id="ytick_10">
     <g id="line2d_30"/>
    </g>
    <g id="ytick_11">
     <g id="line2d_31"/>
    </g>
    <g id="ytick_12">
     <g id="line2d_32"/>
    </g>
    <g id="ytick_13">
     <g id="line2d_33"/>
    </g>
    <g id="ytick_14">
     <g id="line2d_34"/>
    </g>
    <g id="ytick_15">
     <g id="line2d_35"/>
    </g>
    <g id="ytick_16">
     <g id="line2d_36"/>
    </g>
    <g id="ytick_17">
     <g id="line2d_37"/>
    </g>
    <g id="ytick_18">
     <g id="line2d_38"/>
    </g>
    <g id="ytick_19">
     <g id="line2d_39"/>
    </g>
    <g id="ytick_20">
     <g id="line2d_40"/>
    </g>
    <g id="ytick_21">
     <g id="line2d_41"/>
    </g>
    <g id="ytick_22">
     <g id="line2d_42"/>
    </g>
    <g id="ytick_23">
     <g id="line2d_43"/>
    </g>
    <g id="ytick_24">
     <g id="line2d_44"/>
    </g>
    <g id="ytick_25">
     <g id="line2d_45"/>
    </g>
    <g id="ytick_26">
     <g id="line2d_46"/>
    </g>
    <g id="ytick_27">
     <g id="line2d_47"/>
    </g>
    <g id="ytick_28">
     <g id="line2d_48"/>
    </g>
    <g id="ytick_29">
     <g id="line2d_49"/>
    </g>
    <g id="ytick_30">
     <g id="line2d_50"/>
    </g>
    <g id="ytick_31">
     <g id="line2d_51"/>
    </g>
    <g id="ytick_32">
     <g id="line2d_52"/>
    </g>
    <g id="ytick_33">
     <g id="line2d_53"/>
    </g>
    <g id="ytick_34">
     <g id="line2d_54"/>
    </g>
    <g id="ytick_35">
     <g id="line2d_55"/>
    </g>
    <g id="ytick_36">
     <g id="line2d_56"/>
    </g>
    <g id="ytick_37">
     <g id="line2d_57"/>
    </g>
    <g id="ytick_38">
     <g id="line2d_58"/>
    </g>
    <g id="ytick_39">
     <g id="line2d_59"/>
    </g>
    <g id="ytick_40">
     <g id="line2d_60"/>
    </g>
    <g id="ytick_41">
     <g id="line2d_61"/>
    </g>
    <g id="ytick_42">
     <g id="line2d_62"/>
    </g>
    <g id="ytick_43">
     <g id="line2d_63"/>
    </g>
    <g id="ytick_44">
     <g id="line2d_64"/>
    </g>
    <g id="ytick_45">
     <g id="line2d_65"/>
    </g>
    <g id="ytick_46">
     <g id="line2d_66"/>
    </g>
    <g id="ytick_47">
     <g id="line2d_67"/>
    </g>
    <g id="ytick_48">
     <g id="line2d_68"/>
    </g>
    <g id="ytick_49">
     <g id="line2d_69"/>
    </g>
    <g id="ytick_50">
     <g id="line2d_70"/>
    </g>
    <g id="ytick_51">
     <g id="line2d_71"/>
    </g>
    <g id="ytick_52">
     <g id="line2d_72"/>
    </g>
    <g id="ytick_53">
     <g id="line2d_73"/>
    </g>
    <g id="ytick_54">
     <g id="line2d_74"/>
    </g>
   </g>
   <g id="line2d_75">
    <path d="M 75.557818 288.160067 
L 75.557818 283.463791 
L 76.241674 283.463791 
L 76.241674 278.268378 
L 76.92553 278.268378 
L 76.92553 279.626655 
L 77.609386 279.626655 
L 77.609386 281.078678 
L 78.293242 281.078678 
L 78.293242 280.340146 
L 78.977098 280.340146 
L 78.977098 281.078678 
L 80.34481 281.078678 
L 80.34481 282.638353 
L 81.028666 282.638353 
L 81.028666 285.218639 
L 82.396378 285.218639 
L 82.396378 283.463791 
L 83.080234 283.463791 
L 83.080234 282.638353 
L 83.76409 282.638353 
L 83.76409 283.463791 
L 84.447946 283.463791 
L 84.447946 281.844071 
L 85.131802 281.844071 
L 85.131802 279.626655 
L 86.499514 279.626655 
L 86.499514 278.268378 
L 87.18337 278.268378 
L 87.18337 275.789518 
L 87.867226 275.789518 
L 87.867226 273.572103 
L 88.551082 273.572103 
L 88.551082 274.65162 
L 89.234938 274.65162 
L 89.234938 271.566206 
L 89.918794 271.566206 
L 89.918794 271.093243 
L 90.60265 271.093243 
L 90.60265 256.04271 
L 91.970362 256.04271 
L 91.970362 254.928906 
L 92.654218 254.928906 
L 92.654218 252.668141 
L 93.338074 252.668141 
L 93.338074 253.261025 
L 94.02193 253.261025 
L 94.02193 256.978241 
L 94.705785 256.978241 
L 94.705785 254.287862 
L 95.389641 254.287862 
L 95.389641 254.928906 
L 96.073497 254.928906 
L 96.073497 256.04271 
L 96.757353 256.04271 
L 96.757353 256.978241 
L 97.441209 256.978241 
L 97.441209 256.272723 
L 98.125065 256.272723 
L 98.125065 257.21877 
L 98.808921 257.21877 
L 98.808921 259.248871 
L 99.492777 259.248871 
L 99.492777 256.740431 
L 100.176633 256.740431 
L 100.176633 258.984138 
L 101.544345 258.984138 
L 101.544345 260.342415 
L 102.228201 260.342415 
L 102.228201 260.063656 
L 102.912057 260.063656 
L 102.912057 254.713048 
L 103.595913 254.713048 
L 103.595913 250.450726 
L 104.279769 250.450726 
L 104.279769 247.509298 
L 104.963625 247.509298 
L 104.963625 242.152467 
L 105.647481 242.152467 
L 105.647481 224.387921 
L 106.331337 224.387921 
L 106.331337 227.564502 
L 107.015193 227.564502 
L 107.015193 225.590876 
L 107.699049 225.590876 
L 107.699049 214.732671 
L 108.382905 214.732671 
L 108.382905 209.322475 
L 109.066761 209.322475 
L 109.066761 213.394486 
L 109.750617 213.394486 
L 109.750617 212.537759 
L 110.434473 212.537759 
L 110.434473 208.807038 
L 111.118329 208.807038 
L 111.118329 206.533929 
L 111.802185 206.533929 
L 111.802185 192.263935 
L 112.486041 192.263935 
L 112.486041 181.125606 
L 113.169897 181.125606 
L 113.169897 187.702875 
L 113.853753 187.702875 
L 113.853753 192.46374 
L 114.537609 192.46374 
L 114.537609 196.754078 
L 115.221465 196.754078 
L 115.221465 193.954037 
L 115.905321 193.954037 
L 115.905321 194.2312 
L 116.589177 194.2312 
L 116.589177 196.280811 
L 117.273033 196.280811 
L 117.273033 195.804876 
L 117.956889 195.804876 
L 117.956889 197.196295 
L 118.640745 197.196295 
L 118.640745 198.373799 
L 119.324601 198.373799 
L 119.324601 197.949794 
L 120.008457 197.949794 
L 120.008457 198.851798 
L 120.692313 198.851798 
L 120.692313 198.59651 
L 121.376169 198.59651 
L 121.376169 197.891976 
L 122.060024 197.891976 
L 122.060024 202.886265 
L 122.74388 202.886265 
L 122.74388 206.555704 
L 123.427736 206.555704 
L 123.427736 205.975533 
L 124.111592 205.975533 
L 124.111592 203.14405 
L 124.795448 203.14405 
L 124.795448 202.433646 
L 125.479304 202.433646 
L 125.479304 203.255503 
L 126.16316 203.255503 
L 126.16316 206.951565 
L 126.847016 206.951565 
L 126.847016 209.347338 
L 127.530872 209.347338 
L 127.530872 209.82539 
L 128.214728 209.82539 
L 128.214728 214.068505 
L 128.898584 214.068505 
L 128.898584 215.922399 
L 129.58244 215.922399 
L 129.58244 220.331642 
L 130.266296 220.331642 
L 130.266296 215.956427 
L 130.950152 215.956427 
L 130.950152 218.448061 
L 131.634008 218.448061 
L 131.634008 220.669737 
L 132.317864 220.669737 
L 132.317864 220.164609 
L 133.00172 220.164609 
L 133.00172 221.318688 
L 133.685576 221.318688 
L 133.685576 224.286495 
L 134.369432 224.286495 
L 134.369432 225.059384 
L 135.053288 225.059384 
L 135.053288 234.259286 
L 135.737144 234.259286 
L 135.737144 229.033423 
L 136.421 229.033423 
L 136.421 230.476391 
L 137.104856 230.476391 
L 137.104856 228.656469 
L 137.788712 228.656469 
L 137.788712 229.677081 
L 138.472568 229.677081 
L 138.472568 229.874081 
L 139.156424 229.874081 
L 139.156424 230.40861 
L 139.84028 230.40861 
L 139.84028 234.178184 
L 140.524136 234.178184 
L 140.524136 235.428808 
L 141.207992 235.428808 
L 141.207992 235.172667 
L 141.891848 235.172667 
L 141.891848 233.856865 
L 142.575704 233.856865 
L 142.575704 230.206567 
L 143.25956 230.206567 
L 143.25956 230.74972 
L 143.943416 230.74972 
L 143.943416 230.341047 
L 144.627272 230.341047 
L 144.627272 229.417251 
L 145.311128 229.417251 
L 145.311128 228.781372 
L 145.994984 228.781372 
L 145.994984 225.217427 
L 146.67884 225.217427 
L 146.67884 223.836028 
L 147.362696 223.836028 
L 147.362696 222.77385 
L 148.046552 222.77385 
L 148.046552 218.913185 
L 148.730408 218.913185 
L 148.730408 213.154643 
L 149.414263 213.154643 
L 149.414263 213.035739 
L 150.098119 213.035739 
L 150.098119 213.214348 
L 150.781975 213.214348 
L 150.781975 215.319129 
L 151.465831 215.319129 
L 151.465831 214.991304 
L 152.149687 214.991304 
L 152.149687 217.658039 
L 152.833543 217.658039 
L 152.833543 217.843467 
L 153.517399 217.843467 
L 153.517399 216.613627 
L 154.201255 216.613627 
L 154.201255 217.147366 
L 155.568967 217.219565 
L 155.568967 221.539529 
L 156.252823 221.539529 
L 156.252823 222.633073 
L 156.936679 222.633073 
L 156.936679 219.71199 
L 157.620535 219.71199 
L 157.620535 220.50001 
L 158.304391 220.50001 
L 158.304391 221.230996 
L 158.988247 221.230996 
L 158.988247 220.206243 
L 159.672103 220.206243 
L 159.672103 220.50001 
L 160.355959 220.50001 
L 160.355959 218.640615 
L 161.039815 218.640615 
L 161.039815 219.469149 
L 161.723671 219.469149 
L 161.723671 221.230996 
L 162.407527 221.230996 
L 162.407527 221.406747 
L 163.091383 221.406747 
L 163.091383 220.669737 
L 164.459095 220.584703 
L 164.459095 221.274797 
L 165.142951 221.274797 
L 165.142951 220.542314 
L 166.510663 220.457792 
L 166.510663 219.428946 
L 167.194519 219.428946 
L 167.194519 219.630731 
L 167.878375 219.630731 
L 167.878375 220.040199 
L 168.562231 220.040199 
L 168.562231 219.671321 
L 169.246087 219.671321 
L 169.246087 219.998892 
L 170.613799 219.998892 
L 170.613799 220.206243 
L 171.297655 220.206243 
L 171.297655 219.875455 
L 173.349223 219.793563 
L 173.349223 219.671321 
L 174.033079 219.671321 
L 174.033079 219.308798 
L 174.716935 219.308798 
L 174.716935 218.181412 
L 176.084647 218.105843 
L 176.084647 215.652142 
L 176.768502 215.652142 
L 176.768502 214.700564 
L 177.452358 214.700564 
L 177.452358 214.445458 
L 178.136214 214.445458 
L 178.136214 214.636497 
L 178.82007 214.636497 
L 178.82007 214.224749 
L 179.503926 214.224749 
L 179.503926 214.068505 
L 180.187782 214.068505 
L 180.187782 213.394486 
L 180.871638 213.394486 
L 180.871638 210.922327 
L 181.555494 210.922327 
L 181.555494 206.973777 
L 182.23935 206.973777 
L 182.23935 206.840855 
L 182.923206 206.840855 
L 182.923206 208.518072 
L 183.607062 208.518072 
L 183.607062 208.162357 
L 184.290918 208.162357 
L 184.290918 205.576644 
L 184.974774 205.576644 
L 184.974774 203.386281 
L 185.65863 203.386281 
L 185.65863 202.704048 
L 186.342486 202.704048 
L 186.342486 201.470876 
L 187.026342 201.470876 
L 187.026342 198.036821 
L 187.710198 198.036821 
L 187.710198 205.28749 
L 188.394054 205.28749 
L 188.394054 203.840938 
L 189.07791 203.840938 
L 189.07791 203.994699 
L 189.761766 203.994699 
L 189.761766 204.760807 
L 190.445622 204.760807 
L 190.445622 203.311451 
L 191.813334 203.367549 
L 191.813334 202.273057 
L 192.49719 202.273057 
L 192.49719 200.913669 
L 193.181046 200.913669 
L 193.181046 201.505125 
L 193.864902 201.505125 
L 193.864902 201.198872 
L 194.548758 201.198872 
L 194.548758 200.997152 
L 195.232614 200.997152 
L 195.232614 200.354603 
L 195.91647 200.354603 
L 195.91647 201.470876 
L 196.600326 201.470876 
L 196.600326 201.8159 
L 197.284182 201.8159 
L 197.284182 202.025662 
L 197.968038 202.025662 
L 197.968038 202.344279 
L 198.651894 202.344279 
L 198.651894 202.776746 
L 199.33575 202.776746 
L 199.33575 203.956153 
L 200.019606 203.956153 
L 200.019606 203.707312 
L 200.703462 203.707312 
L 200.703462 203.879273 
L 202.071174 203.917678 
L 202.071174 203.688292 
L 202.75503 203.688292 
L 202.75503 202.308638 
L 203.438886 202.308638 
L 203.438886 201.436683 
L 204.122741 201.436683 
L 204.122741 200.93034 
L 205.490453 200.863738 
L 205.490453 200.160778 
L 206.174309 200.160778 
L 206.174309 199.433892 
L 206.858165 199.433892 
L 206.858165 199.049129 
L 207.542021 199.049129 
L 207.542021 199.310001 
L 208.909733 199.202191 
L 208.909733 199.589789 
L 209.593589 199.589789 
L 209.593589 199.279142 
L 210.277445 199.279142 
L 210.277445 199.48054 
L 211.645157 199.44943 
L 211.645157 198.761342 
L 212.329013 198.761342 
L 212.329013 198.28537 
L 213.012869 198.28537 
L 213.012869 196.563492 
L 213.696725 196.563492 
L 213.696725 194.499772 
L 214.380581 194.499772 
L 214.380581 192.83505 
L 215.064437 192.83505 
L 215.064437 191.472517 
L 215.748293 191.472517 
L 215.748293 190.212891 
L 216.432149 190.212891 
L 216.432149 189.688323 
L 217.116005 189.688323 
L 217.116005 187.428916 
L 217.799861 187.428916 
L 217.799861 184.76841 
L 218.483717 184.76841 
L 218.483717 184.939327 
L 219.167573 184.939327 
L 219.167573 182.344645 
L 219.851429 182.344645 
L 219.851429 181.880878 
L 220.535285 181.880878 
L 220.535285 179.917951 
L 221.219141 179.917951 
L 221.219141 175.624927 
L 221.902997 175.624927 
L 221.902997 173.894145 
L 222.586853 173.894145 
L 222.586853 173.320501 
L 223.270709 173.320501 
L 223.270709 171.081538 
L 223.954565 171.081538 
L 223.954565 164.799069 
L 224.638421 164.799069 
L 224.638421 162.384552 
L 225.322277 162.384552 
L 225.322277 159.008301 
L 226.006133 159.008301 
L 226.006133 151.684537 
L 226.689989 151.684537 
L 226.689989 147.046177 
L 227.373845 147.046177 
L 227.373845 152.688092 
L 228.057701 152.688092 
L 228.057701 165.453243 
L 228.741557 165.453243 
L 228.741557 153.720658 
L 229.425413 153.720658 
L 229.425413 149.913629 
L 230.109269 149.913629 
L 230.109269 152.09006 
L 230.793125 152.09006 
L 230.793125 154.063225 
L 231.476981 154.063225 
L 231.476981 154.247508 
L 232.160836 154.247508 
L 232.160836 154.853149 
L 232.844692 154.853149 
L 232.844692 153.885893 
L 233.528548 153.885893 
L 233.528548 152.956024 
L 234.89626 153.062101 
L 234.89626 151.526085 
L 236.263972 151.476713 
L 236.263972 153.110183 
L 236.947828 153.110183 
L 236.947828 153.711811 
L 237.631684 153.711811 
L 237.631684 156.121352 
L 238.31554 156.121352 
L 238.31554 157.371733 
L 238.999396 157.371733 
L 238.999396 155.867011 
L 239.683252 155.867011 
L 239.683252 155.679709 
L 240.367108 155.679709 
L 240.367108 156.542085 
L 241.050964 156.542085 
L 241.050964 157.954395 
L 241.73482 157.954395 
L 241.73482 162.053279 
L 242.418676 162.053279 
L 242.418676 163.008061 
L 243.102532 163.008061 
L 243.102532 158.671991 
L 243.786388 158.671991 
L 243.786388 157.997722 
L 244.470244 157.997722 
L 244.470244 159.72807 
L 245.1541 159.72807 
L 245.1541 158.555875 
L 245.837956 158.555875 
L 245.837956 157.642915 
L 246.521812 157.642915 
L 246.521812 156.416991 
L 247.205668 156.416991 
L 247.205668 155.998727 
L 247.889524 155.998727 
L 247.889524 156.786335 
L 248.57338 156.786335 
L 248.57338 155.486359 
L 249.257236 155.486359 
L 249.257236 157.428646 
L 249.941092 157.428646 
L 249.941092 155.279517 
L 250.624948 155.279517 
L 250.624948 154.743248 
L 251.308804 154.743248 
L 251.308804 153.79512 
L 251.99266 153.79512 
L 251.99266 151.831244 
L 252.676516 151.831244 
L 252.676516 153.953783 
L 253.360372 153.953783 
L 253.360372 153.179062 
L 254.044228 153.179062 
L 254.044228 152.831808 
L 254.728084 152.831808 
L 254.728084 152.317301 
L 255.41194 152.317301 
L 255.41194 153.022688 
L 256.095796 153.022688 
L 256.095796 152.730259 
L 256.779652 152.730259 
L 256.779652 152.461834 
L 257.463508 152.461834 
L 257.463508 153.192865 
L 258.147364 153.192865 
L 258.147364 152.819936 
L 258.83122 152.819936 
L 258.83122 152.239631 
L 259.515075 152.239631 
L 259.515075 150.560003 
L 260.198931 150.560003 
L 260.198931 144.293307 
L 260.882787 144.293307 
L 260.882787 143.276811 
L 261.566643 143.276811 
L 261.566643 142.065717 
L 262.250499 142.065717 
L 262.250499 142.466214 
L 262.934355 142.466214 
L 262.934355 137.866369 
L 263.618211 137.866369 
L 263.618211 132.24025 
L 264.302067 132.24025 
L 264.302067 128.56316 
L 264.985923 128.56316 
L 264.985923 124.574837 
L 265.669779 124.574837 
L 265.669779 115.915673 
L 266.353635 115.915673 
L 266.353635 113.224037 
L 267.037491 113.224037 
L 267.037491 106.261724 
L 267.721347 106.261724 
L 267.721347 107.876309 
L 268.405203 107.876309 
L 268.405203 116.236987 
L 269.089059 116.236987 
L 269.089059 111.672484 
L 269.772915 111.672484 
L 269.772915 112.00877 
L 270.456771 112.00877 
L 270.456771 116.860602 
L 271.140627 116.860602 
L 271.140627 117.652605 
L 271.824483 117.652605 
L 271.824483 115.705029 
L 272.508339 115.705029 
L 272.508339 115.47317 
L 273.192195 115.47317 
L 273.192195 112.860817 
L 273.876051 112.860817 
L 273.876051 112.999422 
L 274.559907 112.999422 
L 274.559907 112.475814 
L 275.243763 112.475814 
L 275.243763 113.157225 
L 275.927619 113.157225 
L 275.927619 112.884448 
L 276.611475 112.884448 
L 276.611475 114.135929 
L 277.295331 114.135929 
L 277.295331 113.985909 
L 277.979187 113.985909 
L 277.979187 113.159028 
L 278.663043 113.159028 
L 278.663043 114.109503 
L 279.346899 114.109503 
L 279.346899 116.797127 
L 280.030755 116.797127 
L 280.030755 119.310307 
L 280.714611 119.310307 
L 280.714611 118.632682 
L 281.398467 118.632682 
L 281.398467 120.389825 
L 282.082323 120.389825 
L 282.082323 121.128252 
L 282.766179 121.128252 
L 282.766179 120.830952 
L 283.450035 120.830952 
L 283.450035 117.313822 
L 284.133891 117.313822 
L 284.133891 118.303194 
L 285.501603 118.266719 
L 285.501603 118.808811 
L 286.185459 118.808811 
L 286.185459 120.631263 
L 286.869314 120.631263 
L 286.869314 120.162619 
L 287.55317 120.162619 
L 287.55317 123.920505 
L 288.237026 123.920505 
L 288.237026 126.227832 
L 288.920882 126.227832 
L 288.920882 125.341871 
L 289.604738 125.341871 
L 289.604738 129.88933 
L 290.288594 129.88933 
L 290.288594 125.266644 
L 290.97245 125.266644 
L 290.97245 124.262146 
L 291.656306 124.262146 
L 291.656306 123.984168 
L 292.340162 123.984168 
L 292.340162 125.182562 
L 293.024018 125.182562 
L 293.024018 125.618007 
L 293.707874 125.618007 
L 293.707874 126.341728 
L 295.075586 126.300328 
L 295.075586 126.068835 
L 295.759442 126.068835 
L 295.759442 125.753932 
L 296.443298 125.753932 
L 296.443298 124.001408 
L 297.127154 124.001408 
L 297.127154 122.352149 
L 297.81101 122.352149 
L 297.81101 120.335419 
L 298.494866 120.335419 
L 298.494866 118.60764 
L 299.178722 118.60764 
L 299.178722 117.605145 
L 299.862578 117.605145 
L 299.862578 118.01217 
L 300.546434 118.01217 
L 300.546434 119.956687 
L 301.23029 119.956687 
L 301.23029 119.379423 
L 301.914146 119.379423 
L 301.914146 119.977688 
L 302.598002 119.977688 
L 302.598002 121.081662 
L 303.281858 121.081662 
L 303.281858 119.658533 
L 303.965714 119.658533 
L 303.965714 118.124706 
L 304.64957 118.124706 
L 304.64957 118.820942 
L 305.333426 118.820942 
L 305.333426 118.498142 
L 306.017282 118.498142 
L 306.017282 118.830383 
L 306.701138 118.830383 
L 306.701138 118.631345 
L 307.384994 118.631345 
L 307.384994 118.953497 
L 308.06885 118.953497 
L 308.06885 119.881042 
L 308.752706 119.881042 
L 308.752706 120.29778 
L 309.436562 120.29778 
L 309.436562 120.06548 
L 310.804274 120.048321 
L 310.804274 120.774285 
L 311.48813 120.774285 
L 311.48813 122.513428 
L 312.171986 122.513428 
L 312.171986 122.717693 
L 312.855842 122.717693 
L 312.855842 123.160006 
L 314.223553 123.218914 
L 314.223553 124.514665 
L 314.907409 124.514665 
L 314.907409 124.096912 
L 315.591265 124.096912 
L 315.591265 124.648071 
L 316.275121 124.648071 
L 316.275121 124.489938 
L 316.958977 124.489938 
L 316.958977 125.531122 
L 317.642833 125.531122 
L 317.642833 128.131174 
L 318.326689 128.131174 
L 318.326689 127.662163 
L 319.010545 127.662163 
L 319.010545 129.613386 
L 319.694401 129.613386 
L 319.694401 130.473416 
L 320.378257 130.473416 
L 320.378257 131.982901 
L 321.062113 131.982901 
L 321.062113 130.295319 
L 321.745969 130.295319 
L 321.745969 128.464854 
L 322.429825 128.464854 
L 322.429825 128.754674 
L 323.113681 128.754674 
L 323.113681 130.573341 
L 323.797537 130.573341 
L 323.797537 130.947845 
L 324.481393 130.947845 
L 324.481393 131.749211 
L 325.165249 131.749211 
L 325.165249 132.225587 
L 325.849105 132.225587 
L 325.849105 131.186705 
L 326.532961 131.186705 
L 326.532961 127.155239 
L 327.216817 127.155239 
L 327.216817 128.731449 
L 327.900673 128.731449 
L 327.900673 130.616396 
L 328.584529 130.616396 
L 328.584529 129.573456 
L 329.268385 129.573456 
L 329.268385 129.439041 
L 329.952241 129.439041 
L 329.952241 129.292169 
L 330.636097 129.292169 
L 330.636097 129.547065 
L 331.319953 129.547065 
L 331.319953 131.074779 
L 332.003809 131.074779 
L 332.003809 130.538019 
L 332.687665 130.538019 
L 332.687665 133.403177 
L 333.371521 133.403177 
L 333.371521 132.114352 
L 334.055377 132.114352 
L 334.055377 132.244077 
L 334.739233 132.244077 
L 334.739233 133.488272 
L 335.423089 133.488272 
L 335.423089 135.31902 
L 336.106945 135.31902 
L 336.106945 134.387629 
L 336.790801 134.387629 
L 336.790801 136.488521 
L 337.474657 136.488521 
L 337.474657 141.731687 
L 338.158513 141.731687 
L 338.158513 141.158864 
L 338.842369 141.158864 
L 338.842369 139.501359 
L 339.526225 139.501359 
L 339.526225 136.974826 
L 340.210081 136.974826 
L 340.210081 140.845533 
L 340.893937 140.845533 
L 340.893937 140.141354 
L 341.577792 140.141354 
L 341.577792 140.401023 
L 342.261648 140.401023 
L 342.261648 140.551939 
L 342.945504 140.551939 
L 342.945504 139.430339 
L 343.62936 139.430339 
L 343.62936 138.441572 
L 344.313216 138.441572 
L 344.313216 138.947685 
L 344.997072 138.947685 
L 344.997072 137.790683 
L 345.680928 137.790683 
L 345.680928 136.458886 
L 346.364784 136.458886 
L 346.364784 136.077387 
L 347.04864 136.077387 
L 347.04864 134.607005 
L 347.732496 134.607005 
L 347.732496 135.011955 
L 348.416352 135.011955 
L 348.416352 137.088541 
L 349.100208 137.088541 
L 349.100208 138.508469 
L 349.784064 138.508469 
L 349.784064 137.835563 
L 350.46792 137.835563 
L 350.46792 138.380863 
L 351.151776 138.380863 
L 351.151776 137.215795 
L 351.835632 137.215795 
L 351.835632 138.680978 
L 352.519488 138.680978 
L 352.519488 140.487667 
L 353.8872 140.522614 
L 353.8872 139.309526 
L 354.571056 139.309526 
L 354.571056 140.18038 
L 355.938768 140.242786 
L 355.938768 138.98895 
L 356.622624 138.98895 
L 356.622624 139.192952 
L 357.30648 139.192952 
L 357.30648 138.85928 
L 357.990336 138.85928 
L 357.990336 139.174324 
L 358.674192 139.174324 
L 358.674192 139.710414 
L 359.358048 139.710414 
L 359.358048 139.139774 
L 360.041904 139.139774 
L 360.041904 139.357768 
L 360.72576 139.357768 
L 360.72576 139.990579 
L 361.409616 139.990579 
L 361.409616 140.499939 
L 362.093472 140.499939 
L 362.093472 140.053348 
L 362.777328 140.053348 
L 362.777328 139.874765 
L 363.461184 139.874765 
L 363.461184 138.084967 
L 364.14504 138.084967 
L 364.14504 138.529956 
L 364.828896 138.529956 
L 364.828896 138.924891 
L 365.512752 138.924891 
L 365.512752 138.204012 
L 366.196608 138.204012 
L 366.196608 137.692945 
L 366.880464 137.692945 
L 366.880464 136.578459 
L 367.56432 136.578459 
L 367.56432 135.331573 
L 368.248176 135.331573 
L 368.248176 135.111133 
L 368.932031 135.111133 
L 368.932031 135.944643 
L 370.299743 135.851309 
L 370.299743 134.755973 
L 370.983599 134.755973 
L 370.983599 135.072427 
L 371.667455 135.072427 
L 371.667455 135.614154 
L 372.351311 135.614154 
L 372.351311 135.749344 
L 373.035167 135.749344 
L 373.035167 136.387312 
L 373.719023 136.387312 
L 373.719023 137.142409 
L 374.402879 137.142409 
L 374.402879 140.184101 
L 375.086735 140.184101 
L 375.086735 140.009021 
L 375.770591 140.009021 
L 375.770591 140.290413 
L 376.454447 140.290413 
L 376.454447 139.815268 
L 377.822159 139.771439 
L 377.822159 138.576442 
L 378.506015 138.576442 
L 378.506015 139.409707 
L 379.189871 139.409707 
L 379.189871 139.991501 
L 379.873727 139.991501 
L 379.873727 139.823496 
L 380.557583 139.823496 
L 380.557583 139.475261 
L 381.241439 139.475261 
L 381.241439 139.017973 
L 381.925295 139.017973 
L 381.925295 139.138889 
L 382.609151 139.138889 
L 382.609151 138.354411 
L 383.976863 138.446711 
L 383.976863 137.87637 
L 384.660719 137.87637 
L 384.660719 137.173829 
L 385.344575 137.173829 
L 385.344575 136.127191 
L 386.028431 136.127191 
L 386.028431 135.201234 
L 386.712287 135.201234 
L 386.712287 132.357285 
L 387.396143 132.357285 
L 387.396143 127.956149 
L 388.079999 127.956149 
L 388.079999 128.885863 
L 388.763855 128.885863 
L 388.763855 133.625415 
L 389.447711 133.625415 
L 389.447711 132.955721 
L 390.131567 132.955721 
L 390.131567 132.503369 
L 390.815423 132.503369 
L 390.815423 132.660231 
L 391.499279 132.660231 
L 391.499279 130.526258 
L 392.183135 130.526258 
L 392.183135 130.258719 
L 392.866991 130.258719 
L 392.866991 128.88967 
L 393.550847 128.88967 
L 393.550847 127.341381 
L 394.234703 127.341381 
L 394.234703 126.504265 
L 394.918559 126.504265 
L 394.918559 125.407224 
L 395.602415 125.407224 
L 395.602415 126.264769 
L 396.28627 126.264769 
L 396.28627 125.457065 
L 396.970126 125.457065 
L 396.970126 126.512036 
L 398.337838 126.534881 
L 398.337838 126.705785 
L 399.021694 126.705785 
L 399.021694 125.78629 
L 399.70555 125.78629 
L 399.70555 126.691571 
L 400.389406 126.691571 
L 400.389406 128.969229 
L 401.073262 128.969229 
L 401.073262 129.1882 
L 401.757118 129.1882 
L 401.757118 128.635042 
L 402.440974 128.635042 
L 402.440974 129.460266 
L 403.12483 129.460266 
L 403.12483 129.920151 
L 403.808686 129.920151 
L 403.808686 129.549871 
L 404.492542 129.549871 
L 404.492542 129.38106 
L 405.176398 129.38106 
L 405.176398 128.233201 
L 405.860254 128.233201 
L 405.860254 127.16576 
L 407.227966 127.202373 
L 407.227966 126.591857 
L 407.911822 126.591857 
L 407.911822 127.039855 
L 408.595678 127.039855 
L 408.595678 127.894325 
L 409.279534 127.894325 
L 409.279534 127.366156 
L 410.647246 127.417315 
L 410.647246 127.776892 
L 411.331102 127.776892 
L 411.331102 127.346435 
L 412.698814 127.317644 
L 412.698814 127.480804 
L 413.38267 127.480804 
L 413.38267 127.239553 
L 414.750382 127.167263 
L 414.750382 127.03338 
L 415.434238 127.03338 
L 415.434238 126.696472 
L 416.118094 126.696472 
L 416.118094 126.380314 
L 416.80195 126.380314 
L 416.80195 125.623129 
L 417.485806 125.623129 
L 417.485806 125.934177 
L 418.169662 125.934177 
L 418.169662 125.572894 
L 418.853518 125.572894 
L 418.853518 125.74222 
L 419.537374 125.74222 
L 419.537374 125.219992 
L 420.22123 125.219992 
L 420.22123 125.442285 
L 420.905086 125.442285 
L 420.905086 125.569177 
L 421.588942 125.569177 
L 421.588942 126.032715 
L 422.272798 126.032715 
L 422.272798 125.773622 
L 422.956654 125.773622 
L 422.956654 123.024975 
L 423.64051 123.024975 
L 423.64051 121.953691 
L 424.324365 121.953691 
L 424.324365 120.23712 
L 425.008221 120.23712 
L 425.008221 120.446192 
L 425.692077 120.446192 
L 425.692077 116.86398 
L 426.375933 116.86398 
L 426.375933 114.906978 
L 427.059789 114.906978 
L 427.059789 119.911907 
L 427.743645 119.911907 
L 427.743645 118.624999 
L 428.427501 118.624999 
L 428.427501 117.400292 
L 429.111357 117.400292 
L 429.111357 116.962809 
L 429.795213 116.962809 
L 429.795213 117.556839 
L 431.846781 117.610236 
L 431.846781 117.414475 
L 432.530637 117.414475 
L 432.530637 117.605145 
L 433.214493 117.605145 
L 433.214493 117.794988 
L 433.898349 117.794988 
L 433.898349 119.464054 
L 434.582205 119.464054 
L 434.582205 120.637509 
L 435.266061 120.637509 
L 435.266061 120.19174 
L 436.633773 120.250826 
L 436.633773 120.703759 
L 437.317629 120.703759 
L 437.317629 120.472063 
L 438.685341 120.526458 
L 438.685341 120.682389 
L 440.053053 120.663984 
L 440.053053 119.373886 
L 440.736909 119.373886 
L 440.736909 118.912153 
L 441.420765 118.912153 
L 441.420765 119.345182 
L 442.788477 119.403321 
L 442.788477 119.866867 
L 443.472333 119.866867 
L 443.472333 119.421349 
L 445.523901 119.407827 
L 445.523901 119.156989 
L 446.207757 119.156989 
L 446.207757 118.459671 
L 446.891613 118.459671 
L 446.891613 118.333804 
L 447.575469 118.333804 
L 447.575469 118.668459 
L 448.259325 118.668459 
L 448.259325 118.171065 
L 448.943181 118.171065 
L 448.943181 116.841877 
L 449.627037 116.841877 
L 449.627037 115.629003 
L 450.310893 115.629003 
L 450.310893 116.30956 
L 450.994749 116.30956 
L 450.994749 115.777246 
L 451.678604 115.777246 
L 451.678604 116.402508 
L 452.36246 116.402508 
L 452.36246 115.334472 
L 454.414028 115.327903 
L 454.414028 115.530175 
L 455.097884 115.530175 
L 455.097884 114.601063 
L 456.465596 114.504464 
L 456.465596 114.457563 
L 457.149452 114.457563 
L 457.149452 114.247929 
L 457.833308 114.247929 
L 457.833308 113.840941 
L 458.517164 113.840941 
L 458.517164 110.80152 
L 459.20102 110.80152 
L 459.20102 110.426983 
L 459.884876 110.426983 
L 459.884876 109.660653 
L 460.568732 109.660653 
L 460.568732 106.726928 
L 461.252588 106.726928 
L 461.252588 110.880886 
L 461.936444 110.880886 
L 461.936444 113.458911 
L 462.6203 113.458911 
L 462.6203 112.814649 
L 463.304156 112.814649 
L 463.304156 111.226974 
L 463.988012 111.226974 
L 463.988012 111.51205 
L 464.671868 111.51205 
L 464.671868 110.693795 
L 465.355724 110.693795 
L 465.355724 109.259222 
L 466.03958 109.259222 
L 466.03958 108.675447 
L 466.723436 108.675447 
L 466.723436 109.218172 
L 467.407292 109.218172 
L 467.407292 108.882114 
L 468.091148 108.882114 
L 468.091148 107.789515 
L 468.775004 107.789515 
L 468.775004 106.428494 
L 469.45886 106.428494 
L 469.45886 105.959156 
L 470.142716 105.959156 
L 470.142716 104.636608 
L 470.826572 104.636608 
L 470.826572 103.859781 
L 471.510428 103.859781 
L 471.510428 105.209405 
L 472.194284 105.209405 
L 472.194284 104.367907 
L 472.87814 104.367907 
L 472.87814 107.516876 
L 473.561996 107.516876 
L 473.561996 106.654191 
L 474.245852 106.654191 
L 474.245852 109.72685 
L 474.929708 109.72685 
L 474.929708 108.086571 
L 475.613564 108.086571 
L 475.613564 107.287828 
L 476.29742 107.287828 
L 476.29742 105.180471 
L 476.981276 105.180471 
L 476.981276 104.895735 
L 477.665132 104.895735 
L 477.665132 105.596581 
L 478.348988 105.596581 
L 478.348988 105.049182 
L 479.032843 105.049182 
L 479.032843 104.495172 
L 479.716699 104.495172 
L 479.716699 103.580486 
L 480.400555 103.580486 
L 480.400555 102.51666 
L 481.084411 102.51666 
L 481.084411 99.857958 
L 481.768267 99.857958 
L 481.768267 98.35402 
L 482.452123 98.35402 
L 482.452123 97.828091 
L 483.135979 97.828091 
L 483.135979 97.628758 
L 483.819835 97.628758 
L 483.819835 94.226571 
L 484.503691 94.226571 
L 484.503691 90.294643 
L 485.187547 90.294643 
L 485.187547 92.531004 
L 485.871403 92.531004 
L 485.871403 90.395355 
L 486.555259 90.395355 
L 486.555259 88.010254 
L 487.239115 88.010254 
L 487.239115 87.049881 
L 487.922971 87.049881 
L 487.922971 87.956676 
L 488.606827 87.956676 
L 488.606827 88.558148 
L 489.290683 88.558148 
L 489.290683 88.327886 
L 489.974539 88.327886 
L 489.974539 89.606032 
L 490.658395 89.606032 
L 490.658395 89.275045 
L 492.026107 89.206926 
L 492.026107 89.599051 
L 492.709963 89.599051 
L 492.709963 91.278185 
L 493.393819 91.278185 
L 493.393819 94.613021 
L 494.077675 94.613021 
L 494.077675 91.698738 
L 494.761531 91.698738 
L 494.761531 87.629772 
L 495.445387 87.629772 
L 495.445387 88.344991 
L 496.129243 88.344991 
L 496.129243 86.77045 
L 497.496955 86.817403 
L 497.496955 83.097703 
L 498.180811 83.097703 
L 498.180811 80.434832 
L 498.864667 80.434832 
L 498.864667 77.841601 
L 499.548523 77.841601 
L 499.548523 79.446091 
L 500.232379 79.446091 
L 500.232379 78.054442 
L 500.916235 78.054442 
L 500.916235 77.837465 
L 501.600091 77.837465 
L 501.600091 75.424245 
L 502.283947 75.424245 
L 502.283947 77.797303 
L 502.967803 77.797303 
L 502.967803 78.058815 
L 503.651659 78.058815 
L 503.651659 80.452792 
L 504.335515 80.452792 
L 504.335515 81.494682 
L 505.019371 81.494682 
L 505.019371 81.943463 
L 505.703227 81.943463 
L 505.703227 80.09239 
L 506.387082 80.09239 
L 506.387082 78.884395 
L 507.070938 78.884395 
L 507.070938 78.168635 
L 507.754794 78.168635 
L 507.754794 77.537626 
L 508.43865 77.537626 
L 508.43865 75.797306 
L 509.122506 75.797306 
L 509.122506 72.308236 
L 510.490218 72.288019 
L 510.490218 71.549631 
L 511.174074 71.549631 
L 511.174074 72.021047 
L 511.85793 72.021047 
L 511.85793 69.786957 
L 512.541786 69.786957 
L 512.541786 66.881187 
L 513.225642 66.881187 
L 513.225642 66.590486 
L 513.909498 66.590486 
L 513.909498 71.587151 
L 514.593354 71.587151 
L 514.593354 65.491557 
L 515.27721 65.491557 
L 515.27721 64.514191 
L 516.644922 64.591005 
L 516.644922 60.618352 
L 517.328778 60.618352 
L 517.328778 58.608655 
L 518.012634 58.608655 
L 518.012634 53.601731 
L 518.69649 53.601731 
L 518.69649 51.817253 
L 519.380346 51.817253 
L 519.380346 50.025359 
L 520.064202 50.025359 
L 520.064202 47.036675 
L 520.748058 47.036675 
L 520.748058 53.704322 
L 521.431914 53.704322 
L 521.431914 50.98338 
L 522.11577 50.98338 
L 522.11577 55.562276 
L 522.799626 55.562276 
L 522.799626 51.858788 
L 523.483482 51.858788 
L 523.483482 50.303265 
L 524.167338 50.303265 
L 524.167338 54.468192 
L 524.851194 54.468192 
L 524.851194 54.046955 
L 525.53505 54.046955 
L 525.53505 57.493847 
L 526.218906 57.493847 
L 526.218906 58.766189 
L 526.902762 58.766189 
L 526.902762 57.631732 
L 527.586618 57.631732 
L 527.586618 60.022167 
L 528.270474 60.022167 
L 528.270474 64.618494 
L 529.638186 64.508396 
L 529.638186 62.909877 
L 530.322042 62.909877 
L 530.322042 60.074704 
L 531.005898 60.074704 
L 531.005898 57.975847 
L 531.689754 57.975847 
L 531.689754 61.08875 
L 532.37361 61.08875 
L 532.37361 59.759521 
L 533.057466 59.759521 
L 533.057466 57.47498 
L 533.741321 57.47498 
L 533.741321 61.919136 
L 534.425177 61.919136 
L 534.425177 62.362778 
L 535.109033 62.362778 
L 535.109033 64.374025 
L 535.792889 64.374025 
L 535.792889 62.876238 
L 536.476745 62.876238 
L 536.476745 63.784132 
L 537.160601 63.784132 
L 537.160601 65.273796 
L 537.844457 65.273796 
L 537.844457 68.478767 
L 538.528313 68.478767 
L 538.528313 68.605159 
L 539.896025 68.612138 
L 539.896025 65.420851 
L 541.263737 65.389048 
L 541.263737 62.827518 
L 541.947593 62.827518 
L 541.947593 62.970483 
L 542.631449 62.970483 
L 542.631449 61.752996 
L 543.315305 61.752996 
L 543.315305 60.972793 
L 543.999161 60.972793 
L 543.999161 61.818576 
L 544.683017 61.818576 
L 544.683017 64.124567 
L 545.366873 64.124567 
L 545.366873 63.939333 
L 546.050729 63.939333 
L 546.050729 64.51608 
L 546.734585 64.51608 
L 546.734585 66.468343 
L 547.418441 66.468343 
L 547.418441 66.942506 
L 548.102297 66.942506 
L 548.102297 66.530773 
L 549.470009 66.514453 
L 549.470009 66.179989 
L 550.153865 66.179989 
L 550.153865 69.342526 
L 550.837721 69.342526 
L 550.837721 69.55012 
L 551.521577 69.55012 
L 551.521577 68.685413 
L 552.205433 68.685413 
L 552.205433 70.654255 
L 552.889289 70.654255 
L 552.889289 71.629857 
L 553.573145 71.629857 
L 553.573145 69.107973 
L 554.940857 69.101146 
L 554.940857 70.073622 
L 555.624713 70.073622 
L 555.624713 70.34278 
L 556.308569 70.34278 
L 556.308569 66.866563 
L 557.676281 66.765305 
L 557.676281 65.302404 
L 558.360137 65.302404 
L 558.360137 64.697081 
L 559.043993 64.697081 
L 559.043993 66.742273 
L 559.727849 66.742273 
L 559.727849 68.818443 
L 560.411705 68.818443 
L 560.411705 70.413593 
L 561.09556 70.413593 
L 561.09556 70.269385 
L 561.779416 70.269385 
L 561.779416 69.556932 
L 562.463272 69.556932 
L 562.463272 69.429548 
L 563.147128 69.429548 
L 563.147128 68.252742 
L 563.830984 68.252742 
L 563.830984 67.897372 
L 564.51484 67.897372 
L 564.51484 66.900625 
L 565.198696 66.900625 
L 565.198696 70.562097 
L 565.882552 70.562097 
L 565.882552 70.084365 
L 566.566408 70.084365 
L 566.566408 69.521953 
L 567.93412 69.526326 
L 567.93412 69.244957 
L 568.617976 69.244957 
L 568.617976 69.100924 
L 569.301832 69.100924 
L 569.301832 69.44455 
L 569.985688 69.44455 
L 569.985688 69.276405 
L 571.3534 69.252567 
L 571.3534 70.287887 
L 572.037256 70.287887 
L 572.037256 69.482343 
L 573.404968 69.533228 
L 573.404968 69.603738 
L 574.088824 69.603738 
L 574.088824 70.165798 
L 574.77268 70.165798 
L 574.77268 69.967385 
L 575.456536 69.967385 
L 575.456536 69.394522 
L 576.140392 69.394522 
L 576.140392 69.811705 
L 576.824248 69.811705 
L 576.824248 72.430465 
L 577.508104 72.430465 
L 577.508104 75.681488 
L 578.19196 75.681488 
L 578.19196 77.951644 
L 578.875816 77.951644 
L 578.875816 80.653962 
L 579.559672 80.653962 
L 579.559672 78.764353 
L 580.243528 78.764353 
L 580.243528 81.117894 
L 580.927384 81.117894 
L 580.927384 82.016531 
L 581.61124 82.016531 
L 581.61124 83.728422 
L 582.295096 83.728422 
L 582.295096 82.204459 
L 582.978952 82.204459 
L 582.978952 80.265181 
L 583.662808 80.265181 
L 583.662808 80.692093 
L 584.346664 80.692093 
L 584.346664 80.975745 
L 585.03052 80.975745 
L 585.03052 80.095977 
L 585.714376 80.095977 
L 585.714376 79.357155 
L 586.398232 79.357155 
L 586.398232 81.680181 
L 587.082088 81.680181 
L 587.082088 81.472095 
L 587.765944 81.472095 
L 587.765944 81.798956 
L 588.449799 81.798956 
L 588.449799 82.022924 
L 589.817511 82.087852 
L 589.817511 82.722896 
L 591.185223 82.807858 
L 591.185223 83.184257 
L 591.869079 83.184257 
L 591.869079 81.777258 
L 592.552935 81.777258 
L 592.552935 81.900957 
L 593.236791 81.900957 
L 593.236791 80.121581 
L 593.920647 80.121581 
L 593.920647 79.009447 
L 594.604503 79.009447 
L 594.604503 80.627701 
L 595.972215 80.730347 
L 595.972215 80.335508 
L 597.339927 80.366558 
L 597.339927 80.068211 
L 598.023783 80.068211 
L 598.023783 79.578818 
L 600.075351 79.477725 
L 600.075351 79.139184 
L 600.759207 79.139184 
L 600.759207 75.412114 
L 601.443063 75.412114 
L 601.443063 73.933442 
L 602.126919 73.933442 
L 602.126919 74.730722 
L 602.810775 74.730722 
L 602.810775 74.223274 
L 603.494631 74.223274 
L 603.494631 73.772005 
L 604.178487 73.772005 
L 604.178487 73.282596 
L 604.862343 73.282596 
L 604.862343 73.803701 
L 605.546199 73.803701 
L 605.546199 73.453814 
L 606.230055 73.453814 
L 606.230055 72.33495 
L 606.913911 72.33495 
L 606.913911 70.011367 
L 607.597767 70.011367 
L 607.597767 65.1627 
L 608.281623 65.1627 
L 608.281623 67.171586 
L 608.965479 67.171586 
L 608.965479 66.151295 
L 609.649335 66.151295 
L 609.649335 63.27091 
L 610.333191 63.27091 
L 610.333191 64.438623 
L 611.017047 64.438623 
L 611.017047 64.79148 
L 611.700903 64.79148 
L 611.700903 65.14796 
L 612.384759 65.14796 
L 612.384759 65.361412 
L 613.068615 65.361412 
L 613.068615 62.995815 
L 613.752471 62.995815 
L 613.752471 62.01596 
L 614.436327 62.01596 
L 614.436327 58.799266 
L 615.120183 58.799266 
L 615.120183 58.188633 
L 615.804039 58.188633 
L 615.804039 59.263152 
L 616.487894 59.263152 
L 616.487894 58.527255 
L 617.17175 58.527255 
L 617.17175 55.605305 
L 617.855606 55.605305 
L 617.855606 57.709699 
L 618.539462 57.709699 
L 618.539462 61.144107 
L 619.223318 61.144107 
L 619.223318 59.24587 
L 619.907174 59.24587 
L 619.907174 60.711556 
L 620.59103 60.711556 
L 620.59103 61.523757 
L 621.274886 61.523757 
L 621.274886 59.361202 
L 621.958742 59.361202 
L 621.958742 57.568678 
L 622.642598 57.568678 
L 622.642598 57.908136 
L 623.326454 57.908136 
L 623.326454 60.411521 
L 624.01031 60.411521 
L 624.01031 59.78916 
L 624.694166 59.78916 
L 624.694166 60.212822 
L 625.378022 60.212822 
L 625.378022 59.70228 
L 626.061878 59.70228 
L 626.061878 61.354632 
L 626.745734 61.354632 
L 626.745734 59.17863 
L 627.42959 59.17863 
L 627.42959 59.446 
L 628.113446 59.446 
L 628.113446 60.114523 
L 628.797302 60.114523 
L 628.797302 59.80379 
L 630.165014 59.874433 
L 630.165014 61.12432 
L 630.84887 61.12432 
L 630.84887 64.639442 
L 631.532726 64.639442 
L 631.532726 64.310637 
L 632.216582 64.310637 
L 632.216582 64.758468 
L 632.900438 64.758468 
L 632.900438 63.650984 
L 633.584294 63.650984 
L 633.584294 64.409894 
L 634.26815 64.409894 
L 634.26815 64.942435 
L 634.952006 64.942435 
L 634.952006 64.56606 
L 635.635862 64.56606 
L 635.635862 63.458584 
L 636.319718 63.458584 
L 636.319718 61.674877 
L 637.003574 61.674877 
L 637.003574 61.971836 
L 638.371286 61.876656 
L 638.371286 62.577976 
L 639.055142 62.577976 
L 639.055142 63.542456 
L 639.738998 63.542456 
L 639.738998 64.685494 
L 640.422854 64.685494 
L 640.422854 67.109972 
L 641.10671 67.109972 
L 641.10671 67.467457 
L 641.790566 67.467457 
L 641.790566 66.340387 
L 642.474422 66.340387 
L 642.474422 67.381787 
L 643.158278 67.381787 
L 643.158278 66.439002 
L 643.842133 66.439002 
L 643.842133 67.392586 
L 644.525989 67.392586 
L 644.525989 68.319084 
L 645.209845 68.319084 
L 645.209845 67.38963 
L 645.893701 67.38963 
L 645.893701 67.213226 
L 646.577557 67.213226 
L 646.577557 67.067498 
L 647.261413 67.067498 
L 647.261413 67.432085 
L 647.945269 67.432085 
L 647.945269 66.922428 
L 648.629125 66.922428 
L 648.629125 65.628002 
L 649.312981 65.628002 
L 649.312981 64.868406 
L 649.996837 64.868406 
L 649.996837 62.89895 
L 650.680693 62.89895 
L 650.680693 63.324312 
L 651.364549 63.324312 
L 651.364549 64.299413 
L 652.048405 64.299413 
L 652.048405 62.020246 
L 653.416117 61.941583 
L 653.416117 60.967809 
L 654.099973 60.967809 
L 654.099973 60.755034 
L 654.783829 60.755034 
L 654.783829 59.685527 
L 655.467685 59.685527 
L 655.467685 60.070383 
L 656.151541 60.070383 
L 656.151541 61.154226 
L 656.835397 61.154226 
L 656.835397 63.172223 
L 657.519253 63.172223 
L 657.519253 63.783121 
L 658.203109 63.783121 
L 658.203109 62.5076 
L 658.886965 62.5076 
L 658.886965 65.323275 
L 659.570821 65.323275 
L 659.570821 72.616127 
L 660.254677 72.616127 
L 660.254677 73.581292 
L 660.938533 73.581292 
L 660.938533 70.542401 
L 661.622389 70.542401 
L 661.622389 68.880467 
L 662.306245 68.880467 
L 662.306245 71.603844 
L 662.990101 71.603844 
L 662.990101 68.535655 
L 663.673957 68.535655 
L 663.673957 66.946403 
L 664.357813 66.946403 
L 664.357813 68.338366 
L 665.725525 68.342316 
L 665.725525 67.188075 
L 666.409381 67.188075 
L 666.409381 67.563569 
L 667.093237 67.563569 
L 667.093237 65.949859 
L 667.777093 65.949859 
L 667.777093 63.551112 
L 668.460949 63.551112 
L 668.460949 62.933052 
L 669.144805 62.933052 
L 669.144805 60.825606 
L 669.828661 60.825606 
L 669.828661 63.102843 
L 670.512517 63.102843 
L 670.512517 61.781455 
L 671.196372 61.781455 
L 671.196372 61.503078 
L 671.880228 61.503078 
L 671.880228 63.303885 
L 672.564084 63.303885 
L 672.564084 61.373933 
L 673.24794 61.373933 
L 673.24794 60.021693 
L 673.931796 60.021693 
L 673.931796 61.254321 
L 674.615652 61.254321 
L 674.615652 60.925805 
L 675.299508 60.925805 
L 675.299508 61.585492 
L 676.66722 61.627054 
L 676.66722 62.008978 
L 678.034932 62.108791 
L 678.034932 62.235573 
L 678.718788 62.235573 
L 678.718788 62.495928 
L 679.402644 62.495928 
L 679.402644 62.073792 
L 680.770356 62.119931 
L 680.770356 62.216885 
L 682.138068 62.168523 
L 682.138068 61.277603 
L 682.821924 61.277603 
L 682.821924 58.360322 
L 683.50578 58.360322 
L 683.50578 57.793427 
L 684.189636 57.793427 
L 684.189636 58.072879 
L 684.873492 58.072879 
L 684.873492 57.021637 
L 685.557348 57.021637 
L 685.557348 57.372383 
L 686.241204 57.372383 
L 686.241204 56.761403 
L 687.608916 56.846703 
L 687.608916 57.028202 
L 688.292772 57.028202 
L 688.292772 57.442258 
L 688.976628 57.442258 
L 688.976628 56.745087 
L 689.660484 56.745087 
L 689.660484 60.113902 
L 690.34434 60.113902 
L 690.34434 59.973075 
L 691.028196 59.973075 
L 691.028196 59.762312 
L 691.712052 59.762312 
L 691.712052 58.548917 
L 692.395908 58.548917 
L 692.395908 59.560196 
L 693.079764 59.560196 
L 693.079764 59.03733 
L 693.76362 59.03733 
L 693.76362 58.748107 
L 694.447476 58.748107 
L 694.447476 59.316836 
L 695.131332 59.316836 
L 695.131332 59.080755 
L 695.815188 59.080755 
L 695.815188 57.732792 
L 696.499044 57.732792 
L 696.499044 57.498932 
L 697.1829 57.498932 
L 697.1829 57.038527 
L 697.866756 57.038527 
L 697.866756 55.015481 
L 698.550611 55.015481 
L 698.550611 53.896367 
L 699.234467 53.896367 
L 699.234467 53.652888 
L 699.918323 53.652888 
L 699.918323 53.13319 
L 700.602179 53.13319 
L 700.602179 51.236446 
L 701.286035 51.236446 
L 701.286035 50.170258 
L 701.969891 50.170258 
L 701.969891 49.622636 
L 702.653747 49.622636 
L 702.653747 47.287824 
L 703.337603 47.287824 
L 703.337603 46.748503 
L 704.021459 46.748503 
L 704.021459 48.391845 
L 704.705315 48.391845 
L 704.705315 46.688817 
L 705.389171 46.688817 
L 705.389171 46.524514 
L 706.073027 46.524514 
L 706.073027 47.788925 
L 706.756883 47.788925 
L 706.756883 46.634573 
L 707.440739 46.634573 
L 707.440739 42.780264 
L 708.124595 42.780264 
L 708.124595 42.176115 
L 708.808451 42.176115 
L 708.808451 39.981769 
L 709.492307 39.981769 
L 709.492307 38.143634 
L 710.176163 38.143634 
L 710.176163 35.319414 
L 710.860019 35.319414 
L 710.860019 31.543428 
L 711.543875 31.543428 
L 711.543875 33.7564 
L 712.227731 33.7564 
L 712.227731 33.0098 
L 712.911587 33.0098 
L 712.911587 33.476907 
L 713.595443 33.476907 
L 713.595443 35.902036 
L 714.279299 35.902036 
L 714.279299 37.033782 
L 714.963155 37.033782 
L 714.963155 35.233063 
L 715.647011 35.233063 
L 715.647011 32.910844 
L 716.330867 32.910844 
L 716.330867 28.16381 
L 717.014723 28.16381 
L 717.014723 27.667174 
L 717.698579 27.667174 
L 717.698579 26.931514 
L 718.382435 26.931514 
L 718.382435 24.189415 
L 719.066291 24.189415 
L 719.066291 26.313603 
L 719.750147 26.313603 
L 719.750147 28.739184 
L 720.434003 28.739184 
L 720.434003 27.238206 
L 721.117859 27.238206 
L 721.117859 25.628741 
L 721.801715 25.628741 
L 721.801715 23.724051 
L 722.485571 23.724051 
L 722.485571 23.864535 
L 723.169427 23.864535 
L 723.169427 23.420225 
L 723.853283 23.420225 
L 723.853283 25.544844 
L 724.537139 25.544844 
L 724.537139 24.27131 
L 725.220995 24.27131 
L 725.220995 23.185619 
L 725.90485 23.185619 
L 725.90485 23.072277 
L 726.588706 23.072277 
L 726.588706 23.414146 
L 727.272562 23.414146 
L 727.272562 21.526599 
L 727.956418 21.526599 
L 727.956418 22.707318 
L 728.640274 22.707318 
L 728.640274 25.02991 
L 729.32413 25.02991 
L 729.32413 26.967729 
L 730.007986 26.967729 
L 730.007986 25.11796 
L 730.691842 25.11796 
L 730.691842 23.738741 
L 732.059554 23.677421 
L 732.059554 23.909871 
L 732.74341 23.909871 
L 732.74341 27.995497 
L 733.427266 27.995497 
L 733.427266 32.932367 
L 734.111122 32.932367 
L 734.111122 34.229674 
L 734.794978 34.229674 
L 734.794978 32.105587 
L 735.478834 32.105587 
L 735.478834 32.736132 
L 736.16269 32.736132 
L 736.16269 32.977257 
L 736.846546 32.977257 
L 736.846546 35.034741 
L 737.530402 35.034741 
L 737.530402 33.78605 
L 738.214258 33.78605 
L 738.214258 32.171612 
L 738.898114 32.171612 
L 738.898114 33.728348 
L 739.58197 33.728348 
L 739.58197 34.299526 
L 740.265826 34.299526 
L 740.265826 34.41083 
L 740.949682 34.41083 
L 740.949682 34.780417 
L 741.633538 34.780417 
L 741.633538 34.561415 
L 742.317394 34.561415 
L 742.317394 34.993645 
L 743.00125 34.993645 
L 743.00125 35.438479 
L 743.685106 35.438479 
L 743.685106 36.110411 
L 744.368962 36.110411 
L 744.368962 35.772519 
L 745.052818 35.772519 
L 745.052818 32.731845 
L 745.736674 32.731845 
L 745.736674 30.137382 
L 746.42053 30.137382 
L 746.42053 32.274482 
L 747.104386 32.274482 
L 747.104386 28.964209 
L 747.788242 28.964209 
L 747.788242 28.508349 
L 748.472098 28.508349 
L 748.472098 27.851964 
L 749.155954 27.851964 
L 749.155954 27.996366 
L 749.83981 27.996366 
L 749.83981 26.77651 
L 750.523666 26.77651 
L 750.523666 26.975758 
L 751.207522 26.975758 
L 751.207522 27.807528 
L 751.891378 27.807528 
L 751.891378 26.597141 
L 752.575234 26.597141 
L 752.575234 28.293998 
L 753.942945 28.302797 
L 753.942945 27.528485 
L 754.626801 27.528485 
L 754.626801 29.797432 
L 755.994513 29.839663 
L 755.994513 30.745848 
L 756.678369 30.745848 
L 756.678369 27.554116 
L 757.362225 27.554116 
L 757.362225 24.437952 
L 758.046081 24.437952 
L 758.046081 24.712785 
L 758.729937 24.712785 
L 758.729937 23.671015 
L 759.413793 23.671015 
L 759.413793 22.057396 
L 760.097649 22.057396 
L 760.097649 22.494748 
L 760.781505 22.494748 
L 760.781505 22.617116 
L 761.465361 22.617116 
L 761.465361 22.139162 
L 762.149217 22.139162 
L 762.149217 21.726092 
L 762.833073 21.726092 
L 762.833073 21.61328 
L 763.516929 21.61328 
L 763.516929 21.105522 
L 764.200785 21.105522 
L 764.200785 21.51673 
L 764.884641 21.51673 
L 764.884641 23.403123 
L 765.568497 23.403123 
L 765.568497 23.604942 
L 766.252353 23.604942 
L 766.252353 24.645312 
L 766.936209 24.645312 
L 766.936209 23.732698 
L 767.620065 23.732698 
L 767.620065 26.837399 
L 768.303921 26.837399 
L 768.303921 27.583867 
L 768.987777 27.583867 
L 768.987777 27.986263 
L 769.671633 27.986263 
L 769.671633 28.250593 
L 770.355489 28.250593 
L 770.355489 27.028288 
L 771.039345 27.028288 
L 771.039345 26.377701 
L 771.723201 26.377701 
L 771.723201 28.143588 
L 772.407057 28.143588 
L 772.407057 27.730903 
L 773.090913 27.730903 
L 773.090913 29.690238 
L 773.774769 29.690238 
L 773.774769 30.32022 
L 774.458625 30.32022 
L 774.458625 29.700617 
L 775.142481 29.700617 
L 775.142481 30.054124 
L 775.826337 30.054124 
L 775.826337 34.038647 
L 776.510193 34.038647 
L 776.510193 33.012668 
L 777.194049 33.012668 
L 777.194049 32.395894 
L 777.877905 32.395894 
L 777.877905 32.859541 
L 778.561761 32.859541 
L 778.561761 29.344901 
L 779.245617 29.344901 
L 779.245617 30.044299 
L 779.929473 30.044299 
L 779.929473 29.010435 
L 780.613329 29.010435 
L 780.613329 31.210809 
L 781.297184 31.210809 
L 781.297184 32.746886 
L 781.98104 32.746886 
L 781.98104 32.51504 
L 782.664896 32.51504 
L 782.664896 30.012987 
L 783.348752 30.012987 
L 783.348752 32.332782 
L 784.032608 32.332782 
L 784.032608 31.944305 
L 784.716464 31.944305 
L 784.716464 31.631675 
L 785.40032 31.631675 
L 785.40032 30.133309 
L 786.084176 30.133309 
L 786.084176 29.795715 
L 786.768032 29.795715 
L 786.768032 27.940653 
L 787.451888 27.940653 
L 787.451888 28.541708 
L 788.135744 28.541708 
L 788.135744 28.052006 
L 788.8196 28.052006 
L 788.8196 30.105106 
L 789.503456 30.105106 
L 789.503456 31.217552 
L 790.187312 31.217552 
L 790.187312 31.067687 
L 790.871168 31.067687 
L 790.871168 30.559555 
L 791.555024 30.559555 
L 791.555024 31.554341 
L 792.23888 31.554341 
L 792.23888 31.392598 
L 792.922736 31.392598 
L 792.922736 32.069838 
L 793.606592 32.069838 
L 793.606592 33.481055 
L 794.290448 33.481055 
L 794.290448 36.633046 
L 794.974304 36.633046 
L 794.974304 37.273532 
L 795.65816 37.273532 
L 795.65816 38.27211 
L 796.342016 38.27211 
L 796.342016 37.131027 
L 797.025872 37.131027 
L 797.025872 37.899036 
L 797.709728 37.899036 
L 797.709728 36.155427 
L 798.393584 36.155427 
L 798.393584 37.550257 
L 799.07744 37.550257 
L 799.07744 36.555871 
L 799.761296 36.555871 
L 799.761296 38.52047 
L 800.445152 38.52047 
L 800.445152 43.332906 
L 801.129008 43.332906 
L 801.129008 45.298125 
L 801.812864 45.298125 
L 801.812864 44.744076 
L 802.49672 44.744076 
L 802.49672 45.132941 
L 803.180576 45.132941 
L 803.180576 46.689113 
L 803.864432 46.689113 
L 803.864432 45.668662 
L 804.548288 45.668662 
L 804.548288 44.25646 
L 805.232144 44.25646 
L 805.232144 45.625138 
L 805.916 45.625138 
L 805.916 45.059873 
L 806.599856 45.059873 
L 806.599856 42.777264 
L 807.283712 42.777264 
L 807.283712 44.533142 
L 807.967568 44.533142 
L 807.967568 42.205277 
L 808.651423 42.205277 
L 808.651423 42.934481 
L 810.019135 42.966172 
L 810.019135 42.05726 
L 810.702991 42.05726 
L 810.702991 41.747748 
L 811.386847 41.747748 
L 811.386847 42.741028 
L 812.070703 42.741028 
L 812.070703 44.432396 
L 812.754559 44.432396 
L 812.754559 45.615119 
L 813.438415 45.615119 
L 813.438415 46.07816 
L 814.806127 46.033634 
L 814.806127 46.630763 
L 815.489983 46.630763 
L 815.489983 44.050817 
L 816.173839 44.050817 
L 816.173839 46.182975 
L 816.857695 46.182975 
L 816.857695 46.346562 
L 817.541551 46.346562 
L 817.541551 46.630217 
L 818.225407 46.630217 
L 818.225407 46.822873 
L 818.909263 46.822873 
L 818.909263 46.593017 
L 819.593119 46.593017 
L 819.593119 45.683392 
L 820.276975 45.683392 
L 820.276975 46.45488 
L 821.644687 46.518357 
L 821.644687 46.339272 
L 822.328543 46.339272 
L 822.328543 46.749798 
L 823.012399 46.749798 
L 823.012399 45.752923 
L 823.696255 45.752923 
L 823.696255 45.017437 
L 824.380111 45.017437 
L 824.380111 45.697797 
L 825.063967 45.697797 
L 825.063967 44.91238 
L 825.747823 44.91238 
L 825.747823 48.609199 
L 826.431679 48.609199 
L 826.431679 49.79598 
L 827.115535 49.79598 
L 827.115535 49.675464 
L 827.799391 49.675464 
L 827.799391 50.300873 
L 828.483247 50.300873 
L 828.483247 49.96731 
L 829.167103 49.96731 
L 829.167103 49.069417 
L 831.902527 49.025032 
L 831.902527 49.733093 
L 832.586383 49.733093 
L 832.586383 49.397979 
L 833.954095 49.480984 
L 833.954095 49.857834 
L 835.321807 49.763335 
L 835.321807 49.4956 
L 836.005662 49.4956 
L 836.005662 49.043142 
L 836.689518 49.043142 
L 836.689518 45.929463 
L 837.373374 45.929463 
L 837.373374 44.687386 
L 838.05723 44.687386 
L 838.05723 43.127001 
L 838.741086 43.127001 
L 838.741086 42.835837 
L 839.424942 42.835837 
L 839.424942 42.237279 
L 840.108798 42.237279 
L 840.108798 42.506042 
L 840.792654 42.506042 
L 840.792654 43.135099 
L 841.47651 43.135099 
L 841.47651 44.201972 
L 842.160366 44.201972 
L 842.160366 43.651678 
L 842.844222 43.651678 
L 842.844222 41.466553 
L 843.528078 41.466553 
L 843.528078 41.859893 
L 844.211934 41.859893 
L 844.211934 42.40873 
L 845.579646 42.494425 
L 845.579646 43.464131 
L 846.263502 43.464131 
L 846.263502 45.623931 
L 846.947358 45.623931 
L 846.947358 41.359622 
L 847.631214 41.359622 
L 847.631214 39.562416 
L 848.31507 39.562416 
L 848.31507 39.305798 
L 848.998926 39.305798 
L 848.998926 38.777951 
L 850.366638 38.752996 
L 850.366638 38.927011 
L 851.73435 38.833865 
L 851.73435 37.161604 
L 853.102062 37.102979 
L 853.102062 38.16335 
L 853.785918 38.16335 
L 853.785918 39.087863 
L 854.469774 39.087863 
L 854.469774 37.693554 
L 855.15363 37.693554 
L 855.15363 38.712802 
L 855.837486 38.712802 
L 855.837486 37.654305 
L 856.521342 37.654305 
L 856.521342 39.050108 
L 857.205198 39.050108 
L 857.205198 39.710745 
L 857.889054 39.710745 
L 857.889054 39.235047 
L 858.57291 39.235047 
L 858.57291 39.733834 
L 859.256766 39.733834 
L 859.256766 39.954662 
L 859.940622 39.954662 
L 859.940622 38.970636 
L 860.624478 38.970636 
L 860.624478 39.34776 
L 861.99219 39.354163 
L 861.99219 40.456981 
L 862.676046 40.456981 
L 862.676046 41.056268 
L 863.359901 41.056268 
L 863.359901 40.066407 
L 864.043757 40.066407 
L 864.043757 37.393453 
L 864.727613 37.393453 
L 864.727613 37.139536 
L 865.411469 37.139536 
L 865.411469 36.997608 
L 866.095325 36.997608 
L 866.095325 36.789113 
L 866.779181 36.789113 
L 866.779181 37.17583 
L 867.463037 37.17583 
L 867.463037 37.052838 
L 868.830749 37.157915 
L 868.830749 37.464967 
L 869.514605 37.464967 
L 869.514605 37.910213 
L 870.882317 37.811125 
L 870.882317 37.548945 
L 871.566173 37.548945 
L 871.566173 38.004487 
L 872.250029 38.004487 
L 872.250029 37.632625 
L 872.933885 37.632625 
L 872.933885 37.834312 
L 873.617741 37.834312 
L 873.617741 39.808312 
L 874.301597 39.808312 
L 874.301597 40.237847 
L 875.669309 40.297541 
L 875.669309 38.980826 
L 876.353165 38.980826 
L 876.353165 40.44374 
L 878.404733 40.473269 
L 878.404733 39.908031 
L 879.088589 39.908031 
L 879.088589 39.728179 
L 879.772445 39.728179 
L 879.772445 39.871706 
L 880.456301 39.871706 
L 880.456301 40.165938 
L 881.140157 40.165938 
L 881.140157 39.566286 
L 881.824013 39.566286 
L 881.824013 38.930546 
L 883.191725 38.825102 
L 883.191725 39.73219 
L 883.875581 39.73219 
L 883.875581 38.39254 
L 884.559437 38.39254 
L 884.559437 37.549661 
L 885.243293 37.549661 
L 885.243293 34.751973 
L 885.927149 34.751973 
L 885.927149 34.63557 
L 886.611005 34.63557 
L 886.611005 34.407575 
L 887.194182 34.407575 
L 887.194182 34.407575 
" clip-path="url(#p536467dca4)" style="fill: none; stroke: #3572c6; stroke-width: 1.2; stroke-linecap: square"/>
   </g>
   <g id="line2d_76">
    <path d="M 75.557818 21.105522 
L 887.194182 21.105522 
L 887.194182 21.105522 
" clip-path="url(#p536467dca4)" style="fill: none; stroke: #83a83b; stroke-width: 1.2; stroke-linecap: square"/>
   </g>
   <g id="line2d_77">
    <path d="M 75.557818 50.300873 
L 887.194182 50.300873 
L 887.194182 50.300873 
" clip-path="url(#p536467dca4)" style="fill: none; stroke: #c44e52; stroke-width: 1.2; stroke-linecap: square"/>
   </g>
   <g id="line2d_78">
    <path d="M 764.200785 301.512794 
L 764.200785 7.752794 
" clip-path="url(#p536467dca4)" style="fill: none; stroke: #83a83b; stroke-width: 1.2; stroke-linecap: square"/>
   </g>
   <g id="line2d_79">
    <path d="M 828.483247 301.512794 
L 828.483247 7.752794 
" clip-path="url(#p536467dca4)" style="fill: none; stroke: #c44e52; stroke-width: 1.2; stroke-linecap: square"/>
   </g>
   <g id="patch_3">
    <path d="M 34.976 301.512794 
L 34.976 7.752794 
" style="fill: none; stroke: #899ab8; stroke-width: 1.12; stroke-linejoin: miter; stroke-linecap: square"/>
   </g>
   <g id="patch_4">
    <path d="M 927.776 301.512794 
L 927.776 7.752794 
" style="fill: none; stroke: #899ab8; stroke-width: 1.12; stroke-linejoin: miter; stroke-linecap: square"/>
   </g>
   <g id="patch_5">
    <path d="M 34.976 301.512794 
L 927.776 301.512794 
" style="fill: none; stroke: #899ab8; stroke-width: 1.12; stroke-linejoin: miter; stroke-linecap: square"/>
   </g>
   <g id="patch_6">
    <path d="M 34.976 7.752794 
L 927.776 7.752794 
" style="fill: none; stroke: #899ab8; stroke-width: 1.12; stroke-linejoin: miter; stroke-linecap: square"/>
   </g>
   <g id="text_15">
    <!-- 64838.81 -->
    <g style="fill: #83a83b" transform="translate(200.361534 21.105522) scale(0.132 -0.132)">
     <defs>
      <path id="DejaVuSans-2e" d="M 684 794 
L 1344 794 
L 1344 0 
L 684 0 
L 684 794 
z
" transform="scale(0.015625)"/>
     </defs>
     <use xlink:href="#DejaVuSans-36"/>
     <use xlink:href="#DejaVuSans-34" x="63.623047"/>
     <use xlink:href="#DejaVuSans-38" x="127.246094"/>
     <use xlink:href="#DejaVuSans-33" x="190.869141"/>
     <use xlink:href="#DejaVuSans-38" x="254.492188"/>
     <use xlink:href="#DejaVuSans-2e" x="318.115234"/>
     <use xlink:href="#DejaVuSans-38" x="349.902344"/>
     <use xlink:href="#DejaVuSans-31" x="413.525391"/>
    </g>
   </g>
   <g id="text_16">
    <!-- 16194.75 -->
    <g style="fill: #c44e52" transform="translate(200.361534 50.300873) scale(0.132 -0.132)">
     <defs>
      <path id="DejaVuSans-39" d="M 703 97 
L 703 672 
Q 941 559 1184 500 
Q 1428 441 1663 441 
Q 2288 441 2617 861 
Q 2947 1281 2994 2138 
Q 2813 1869 2534 1725 
Q 2256 1581 1919 1581 
Q 1219 1581 811 2004 
Q 403 2428 403 3163 
Q 403 3881 828 4315 
Q 1253 4750 1959 4750 
Q 2769 4750 3195 4129 
Q 3622 3509 3622 2328 
Q 3622 1225 3098 567 
Q 2575 -91 1691 -91 
Q 1453 -91 1209 -44 
Q 966 3 703 97 
z
M 1959 2075 
Q 2384 2075 2632 2365 
Q 2881 2656 2881 3163 
Q 2881 3666 2632 3958 
Q 2384 4250 1959 4250 
Q 1534 4250 1286 3958 
Q 1038 3666 1038 3163 
Q 1038 2656 1286 2365 
Q 1534 2075 1959 2075 
z
" transform="scale(0.015625)"/>
      <path id="DejaVuSans-37" d="M 525 4666 
L 3525 4666 
L 3525 4397 
L 1831 0 
L 1172 0 
L 2766 4134 
L 525 4134 
L 525 4666 
z
" transform="scale(0.015625)"/>
     </defs>
     <use xlink:href="#DejaVuSans-31"/>
     <use xlink:href="#DejaVuSans-36" x="63.623047"/>
     <use xlink:href="#DejaVuSans-31" x="127.246094"/>
     <use xlink:href="#DejaVuSans-39" x="190.869141"/>
     <use xlink:href="#DejaVuSans-34" x="254.492188"/>
     <use xlink:href="#DejaVuSans-2e" x="318.115234"/>
     <use xlink:href="#DejaVuSans-37" x="349.902344"/>
     <use xlink:href="#DejaVuSans-35" x="413.525391"/>
    </g>
   </g>
   <g id="legend_1">
    <g id="patch_7">
     <path d="M 432.207453 295.212794 
L 530.544547 295.212794 
Q 533.064547 295.212794 533.064547 292.692794 
L 533.064547 238.119044 
Q 533.064547 235.599044 530.544547 235.599044 
L 432.207453 235.599044 
Q 429.687453 235.599044 429.687453 238.119044 
L 429.687453 292.692794 
Q 429.687453 295.212794 432.207453 295.212794 
z
" style="fill: #373e4b; opacity: 0.8; stroke: #cccccc; stroke-width: 0.16; stroke-linejoin: miter"/>
    </g>
    <g id="line2d_80">
     <path d="M 434.727453 245.803076 
L 434.727453 245.803076 
L 447.327453 245.803076 
L 447.327453 245.803076 
L 459.927453 245.803076 
" style="fill: none; stroke: #3572c6; stroke-width: 1.2; stroke-linecap: square"/>
    </g>
    <g id="text_17">
     <!-- USD/BTC -->
     <g style="fill: #b1bed6" transform="translate(470.007453 250.213076) scale(0.126 -0.126)">
      <defs>
       <path id="DejaVuSans-55" d="M 556 4666 
L 1191 4666 
L 1191 1831 
Q 1191 1081 1462 751 
Q 1734 422 2344 422 
Q 2950 422 3222 751 
Q 3494 1081 3494 1831 
L 3494 4666 
L 4128 4666 
L 4128 1753 
Q 4128 841 3676 375 
Q 3225 -91 2344 -91 
Q 1459 -91 1007 375 
Q 556 841 556 1753 
L 556 4666 
z
" transform="scale(0.015625)"/>
       <path id="DejaVuSans-53" d="M 3425 4513 
L 3425 3897 
Q 3066 4069 2747 4153 
Q 2428 4238 2131 4238 
Q 1616 4238 1336 4038 
Q 1056 3838 1056 3469 
Q 1056 3159 1242 3001 
Q 1428 2844 1947 2747 
L 2328 2669 
Q 3034 2534 3370 2195 
Q 3706 1856 3706 1288 
Q 3706 609 3251 259 
Q 2797 -91 1919 -91 
Q 1588 -91 1214 -16 
Q 841 59 441 206 
L 441 856 
Q 825 641 1194 531 
Q 1563 422 1919 422 
Q 2459 422 2753 634 
Q 3047 847 3047 1241 
Q 3047 1584 2836 1778 
Q 2625 1972 2144 2069 
L 1759 2144 
Q 1053 2284 737 2584 
Q 422 2884 422 3419 
Q 422 4038 858 4394 
Q 1294 4750 2059 4750 
Q 2388 4750 2728 4690 
Q 3069 4631 3425 4513 
z
" transform="scale(0.015625)"/>
       <path id="DejaVuSans-2f" d="M 1625 4666 
L 2156 4666 
L 531 -594 
L 0 -594 
L 1625 4666 
z
" transform="scale(0.015625)"/>
       <path id="DejaVuSans-42" d="M 1259 2228 
L 1259 519 
L 2272 519 
Q 2781 519 3026 730 
Q 3272 941 3272 1375 
Q 3272 1813 3026 2020 
Q 2781 2228 2272 2228 
L 1259 2228 
z
M 1259 4147 
L 1259 2741 
L 2194 2741 
Q 2656 2741 2882 2914 
Q 3109 3088 3109 3444 
Q 3109 3797 2882 3972 
Q 2656 4147 2194 4147 
L 1259 4147 
z
M 628 4666 
L 2241 4666 
Q 2963 4666 3353 4366 
Q 3744 4066 3744 3513 
Q 3744 3084 3544 2831 
Q 3344 2578 2956 2516 
Q 3422 2416 3680 2098 
Q 3938 1781 3938 1306 
Q 3938 681 3513 340 
Q 3088 0 2303 0 
L 628 0 
L 628 4666 
z
" transform="scale(0.015625)"/>
       <path id="DejaVuSans-54" d="M -19 4666 
L 3928 4666 
L 3928 4134 
L 2272 4134 
L 2272 0 
L 1638 0 
L 1638 4134 
L -19 4134 
L -19 4666 
z
" transform="scale(0.015625)"/>
       <path id="DejaVuSans-43" d="M 4122 4306 
L 4122 3641 
Q 3803 3938 3442 4084 
Q 3081 4231 2675 4231 
Q 1875 4231 1450 3742 
Q 1025 3253 1025 2328 
Q 1025 1406 1450 917 
Q 1875 428 2675 428 
Q 3081 428 3442 575 
Q 3803 722 4122 1019 
L 4122 359 
Q 3791 134 3420 21 
Q 3050 -91 2638 -91 
Q 1578 -91 968 557 
Q 359 1206 359 2328 
Q 359 3453 968 4101 
Q 1578 4750 2638 4750 
Q 3056 4750 3426 4639 
Q 3797 4528 4122 4306 
z
" transform="scale(0.015625)"/>
      </defs>
      <use xlink:href="#DejaVuSans-55"/>
      <use xlink:href="#DejaVuSans-53" x="73.193359"/>
      <use xlink:href="#DejaVuSans-44" x="136.669922"/>
      <use xlink:href="#DejaVuSans-2f" x="213.671875"/>
      <use xlink:href="#DejaVuSans-42" x="247.363281"/>
      <use xlink:href="#DejaVuSans-54" x="315.966797"/>
      <use xlink:href="#DejaVuSans-43" x="371.175781"/>
     </g>
    </g>
    <g id="line2d_81">
     <path d="M 434.727453 264.297513 
L 434.727453 264.297513 
L 447.327453 264.297513 
L 447.327453 264.297513 
L 459.927453 264.297513 
" style="fill: none; stroke: #83a83b; stroke-width: 1.2; stroke-linecap: square"/>
    </g>
    <g id="text_18">
     <!-- Max -->
     <g style="fill: #b1bed6" transform="translate(470.007453 268.707513) scale(0.126 -0.126)">
      <defs>
       <path id="DejaVuSans-4d" d="M 628 4666 
L 1569 4666 
L 2759 1491 
L 3956 4666 
L 4897 4666 
L 4897 0 
L 4281 0 
L 4281 4097 
L 3078 897 
L 2444 897 
L 1241 4097 
L 1241 0 
L 628 0 
L 628 4666 
z
" transform="scale(0.015625)"/>
       <path id="DejaVuSans-78" d="M 3513 3500 
L 2247 1797 
L 3578 0 
L 2900 0 
L 1881 1375 
L 863 0 
L 184 0 
L 1544 1831 
L 300 3500 
L 978 3500 
L 1906 2253 
L 2834 3500 
L 3513 3500 
z
" transform="scale(0.015625)"/>
      </defs>
      <use xlink:href="#DejaVuSans-4d"/>
      <use xlink:href="#DejaVuSans-61" x="86.279297"/>
      <use xlink:href="#DejaVuSans-78" x="147.558594"/>
     </g>
    </g>
    <g id="line2d_82">
     <path d="M 434.727453 282.791951 
L 434.727453 282.791951 
L 447.327453 282.791951 
L 447.327453 282.791951 
L 459.927453 282.791951 
" style="fill: none; stroke: #c44e52; stroke-width: 1.2; stroke-linecap: square"/>
    </g>
    <g id="text_19">
     <!-- local_Min -->
     <g style="fill: #b1bed6" transform="translate(470.007453 287.201951) scale(0.126 -0.126)">
      <defs>
       <path id="DejaVuSans-6c" d="M 603 4863 
L 1178 4863 
L 1178 0 
L 603 0 
L 603 4863 
z
" transform="scale(0.015625)"/>
       <path id="DejaVuSans-6f" d="M 1959 3097 
Q 1497 3097 1228 2736 
Q 959 2375 959 1747 
Q 959 1119 1226 758 
Q 1494 397 1959 397 
Q 2419 397 2687 759 
Q 2956 1122 2956 1747 
Q 2956 2369 2687 2733 
Q 2419 3097 1959 3097 
z
M 1959 3584 
Q 2709 3584 3137 3096 
Q 3566 2609 3566 1747 
Q 3566 888 3137 398 
Q 2709 -91 1959 -91 
Q 1206 -91 779 398 
Q 353 888 353 1747 
Q 353 2609 779 3096 
Q 1206 3584 1959 3584 
z
" transform="scale(0.015625)"/>
       <path id="DejaVuSans-63" d="M 3122 3366 
L 3122 2828 
Q 2878 2963 2633 3030 
Q 2388 3097 2138 3097 
Q 1578 3097 1268 2742 
Q 959 2388 959 1747 
Q 959 1106 1268 751 
Q 1578 397 2138 397 
Q 2388 397 2633 464 
Q 2878 531 3122 666 
L 3122 134 
Q 2881 22 2623 -34 
Q 2366 -91 2075 -91 
Q 1284 -91 818 406 
Q 353 903 353 1747 
Q 353 2603 823 3093 
Q 1294 3584 2113 3584 
Q 2378 3584 2631 3529 
Q 2884 3475 3122 3366 
z
" transform="scale(0.015625)"/>
       <path id="DejaVuSans-5f" d="M 3263 -1063 
L 3263 -1509 
L -63 -1509 
L -63 -1063 
L 3263 -1063 
z
" transform="scale(0.015625)"/>
       <path id="DejaVuSans-69" d="M 603 3500 
L 1178 3500 
L 1178 0 
L 603 0 
L 603 3500 
z
M 603 4863 
L 1178 4863 
L 1178 4134 
L 603 4134 
L 603 4863 
z
" transform="scale(0.015625)"/>
       <path id="DejaVuSans-6e" d="M 3513 2113 
L 3513 0 
L 2938 0 
L 2938 2094 
Q 2938 2591 2744 2837 
Q 2550 3084 2163 3084 
Q 1697 3084 1428 2787 
Q 1159 2491 1159 1978 
L 1159 0 
L 581 0 
L 581 3500 
L 1159 3500 
L 1159 2956 
Q 1366 3272 1645 3428 
Q 1925 3584 2291 3584 
Q 2894 3584 3203 3211 
Q 3513 2838 3513 2113 
z
" transform="scale(0.015625)"/>
      </defs>
      <use xlink:href="#DejaVuSans-6c"/>
      <use xlink:href="#DejaVuSans-6f" x="27.783203"/>
      <use xlink:href="#DejaVuSans-63" x="88.964844"/>
      <use xlink:href="#DejaVuSans-61" x="143.945312"/>
      <use xlink:href="#DejaVuSans-6c" x="205.224609"/>
      <use xlink:href="#DejaVuSans-5f" x="233.007812"/>
      <use xlink:href="#DejaVuSans-4d" x="283.007812"/>
      <use xlink:href="#DejaVuSans-69" x="369.287109"/>
      <use xlink:href="#DejaVuSans-6e" x="397.070312"/>
     </g>
    </g>
   </g>
  </g>
 </g>
 <defs>
  <clipPath id="p536467dca4">
   <rect x="34.976" y="7.752794" width="892.8" height="293.76"/>
  </clipPath>
 </defs>
</svg>
