<?xml version="1.0" encoding="utf-8" standalone="no"?>
<!DOCTYPE svg PUBLIC "-//W3C//DTD SVG 1.1//EN"
  "http://www.w3.org/Graphics/SVG/1.1/DTD/svg11.dtd">
<svg xmlns:xlink="http://www.w3.org/1999/xlink" width="952.88375pt" height="358.290693pt" viewBox="0 0 952.88375 358.290693" xmlns="http://www.w3.org/2000/svg" version="1.1">
 <metadata>
  <rdf:RDF xmlns:dc="http://purl.org/dc/elements/1.1/" xmlns:cc="http://creativecommons.org/ns#" xmlns:rdf="http://www.w3.org/1999/02/22-rdf-syntax-ns#">
   <cc:Work>
    <dc:type rdf:resource="http://purl.org/dc/dcmitype/StillImage"/>
    <dc:date>2023-03-22T12:45:33.274975</dc:date>
    <dc:format>image/svg+xml</dc:format>
    <dc:creator>
     <cc:Agent>
      <dc:title>Matplotlib v3.7.1, https://matplotlib.org/</dc:title>
     </cc:Agent>
    </dc:creator>
   </cc:Work>
  </rdf:RDF>
 </metadata>
 <defs>
  <style type="text/css">*{stroke-linejoin: round; stroke-linecap: butt}</style>
 </defs>
 <g id="figure_1">
  <g id="patch_1">
   <path d="M 0 358.290693 
L 952.88375 358.290693 
L 952.88375 0 
L 0 0 
z
" style="fill: #373e4b"/>
  </g>
  <g id="axes_1">
   <g id="patch_2">
    <path d="M 52.88375 300.96 
L 945.68375 300.96 
L 945.68375 7.2 
L 52.88375 7.2 
z
" style="fill: #373e4b"/>
   </g>
   <g id="matplotlib.axis_1">
    <g id="xtick_1">
     <g id="line2d_1">
      <path d="M 103.555678 300.96 
L 103.555678 7.2 
" clip-path="url(#p0a239e74f7)" style="fill: none; stroke: #546379; stroke-width: 1.12; stroke-linecap: square"/>
     </g>
     <g id="line2d_2"/>
     <g id="text_1">
      <!-- 2018 -->
      <g style="fill: #b1bed6" transform="translate(74.474638 330.884854) rotate(-30) scale(0.126 -0.126)">
       <defs>
        <path id="DejaVuSans-32" d="M 1228 531 
L 3431 531 
L 3431 0 
L 469 0 
L 469 531 
Q 828 903 1448 1529 
Q 2069 2156 2228 2338 
Q 2531 2678 2651 2914 
Q 2772 3150 2772 3378 
Q 2772 3750 2511 3984 
Q 2250 4219 1831 4219 
Q 1534 4219 1204 4116 
Q 875 4013 500 3803 
L 500 4441 
Q 881 4594 1212 4672 
Q 1544 4750 1819 4750 
Q 2544 4750 2975 4387 
Q 3406 4025 3406 3419 
Q 3406 3131 3298 2873 
Q 3191 2616 2906 2266 
Q 2828 2175 2409 1742 
Q 1991 1309 1228 531 
z
" transform="scale(0.015625)"/>
        <path id="DejaVuSans-30" d="M 2034 4250 
Q 1547 4250 1301 3770 
Q 1056 3291 1056 2328 
Q 1056 1369 1301 889 
Q 1547 409 2034 409 
Q 2525 409 2770 889 
Q 3016 1369 3016 2328 
Q 3016 3291 2770 3770 
Q 2525 4250 2034 4250 
z
M 2034 4750 
Q 2819 4750 3233 4129 
Q 3647 3509 3647 2328 
Q 3647 1150 3233 529 
Q 2819 -91 2034 -91 
Q 1250 -91 836 529 
Q 422 1150 422 2328 
Q 422 3509 836 4129 
Q 1250 4750 2034 4750 
z
" transform="scale(0.015625)"/>
        <path id="DejaVuSans-31" d="M 794 531 
L 1825 531 
L 1825 4091 
L 703 3866 
L 703 4441 
L 1819 4666 
L 2450 4666 
L 2450 531 
L 3481 531 
L 3481 0 
L 794 0 
L 794 531 
z
" transform="scale(0.015625)"/>
        <path id="DejaVuSans-38" d="M 2034 2216 
Q 1584 2216 1326 1975 
Q 1069 1734 1069 1313 
Q 1069 891 1326 650 
Q 1584 409 2034 409 
Q 2484 409 2743 651 
Q 3003 894 3003 1313 
Q 3003 1734 2745 1975 
Q 2488 2216 2034 2216 
z
M 1403 2484 
Q 997 2584 770 2862 
Q 544 3141 544 3541 
Q 544 4100 942 4425 
Q 1341 4750 2034 4750 
Q 2731 4750 3128 4425 
Q 3525 4100 3525 3541 
Q 3525 3141 3298 2862 
Q 3072 2584 2669 2484 
Q 3125 2378 3379 2068 
Q 3634 1759 3634 1313 
Q 3634 634 3220 271 
Q 2806 -91 2034 -91 
Q 1263 -91 848 271 
Q 434 634 434 1313 
Q 434 1759 690 2068 
Q 947 2378 1403 2484 
z
M 1172 3481 
Q 1172 3119 1398 2916 
Q 1625 2713 2034 2713 
Q 2441 2713 2670 2916 
Q 2900 3119 2900 3481 
Q 2900 3844 2670 4047 
Q 2441 4250 2034 4250 
Q 1625 4250 1398 4047 
Q 1172 3844 1172 3481 
z
" transform="scale(0.015625)"/>
       </defs>
       <use xlink:href="#DejaVuSans-32"/>
       <use xlink:href="#DejaVuSans-30" x="63.623047"/>
       <use xlink:href="#DejaVuSans-31" x="127.246094"/>
       <use xlink:href="#DejaVuSans-38" x="190.869141"/>
      </g>
     </g>
    </g>
    <g id="xtick_2">
     <g id="line2d_3">
      <path d="M 257.009435 300.96 
L 257.009435 7.2 
" clip-path="url(#p0a239e74f7)" style="fill: none; stroke: #546379; stroke-width: 1.12; stroke-linecap: square"/>
     </g>
     <g id="line2d_4"/>
     <g id="text_2">
      <!-- 2019 -->
      <g style="fill: #b1bed6" transform="translate(227.928395 330.884854) rotate(-30) scale(0.126 -0.126)">
       <defs>
        <path id="DejaVuSans-39" d="M 703 97 
L 703 672 
Q 941 559 1184 500 
Q 1428 441 1663 441 
Q 2288 441 2617 861 
Q 2947 1281 2994 2138 
Q 2813 1869 2534 1725 
Q 2256 1581 1919 1581 
Q 1219 1581 811 2004 
Q 403 2428 403 3163 
Q 403 3881 828 4315 
Q 1253 4750 1959 4750 
Q 2769 4750 3195 4129 
Q 3622 3509 3622 2328 
Q 3622 1225 3098 567 
Q 2575 -91 1691 -91 
Q 1453 -91 1209 -44 
Q 966 3 703 97 
z
M 1959 2075 
Q 2384 2075 2632 2365 
Q 2881 2656 2881 3163 
Q 2881 3666 2632 3958 
Q 2384 4250 1959 4250 
Q 1534 4250 1286 3958 
Q 1038 3666 1038 3163 
Q 1038 2656 1286 2365 
Q 1534 2075 1959 2075 
z
" transform="scale(0.015625)"/>
       </defs>
       <use xlink:href="#DejaVuSans-32"/>
       <use xlink:href="#DejaVuSans-30" x="63.623047"/>
       <use xlink:href="#DejaVuSans-31" x="127.246094"/>
       <use xlink:href="#DejaVuSans-39" x="190.869141"/>
      </g>
     </g>
    </g>
    <g id="xtick_3">
     <g id="line2d_5">
      <path d="M 410.463192 300.96 
L 410.463192 7.2 
" clip-path="url(#p0a239e74f7)" style="fill: none; stroke: #546379; stroke-width: 1.12; stroke-linecap: square"/>
     </g>
     <g id="line2d_6"/>
     <g id="text_3">
      <!-- 2020 -->
      <g style="fill: #b1bed6" transform="translate(381.382152 330.884854) rotate(-30) scale(0.126 -0.126)">
       <use xlink:href="#DejaVuSans-32"/>
       <use xlink:href="#DejaVuSans-30" x="63.623047"/>
       <use xlink:href="#DejaVuSans-32" x="127.246094"/>
       <use xlink:href="#DejaVuSans-30" x="190.869141"/>
      </g>
     </g>
    </g>
    <g id="xtick_4">
     <g id="line2d_7">
      <path d="M 564.33737 300.96 
L 564.33737 7.2 
" clip-path="url(#p0a239e74f7)" style="fill: none; stroke: #546379; stroke-width: 1.12; stroke-linecap: square"/>
     </g>
     <g id="line2d_8"/>
     <g id="text_4">
      <!-- 2021 -->
      <g style="fill: #b1bed6" transform="translate(535.25633 330.884854) rotate(-30) scale(0.126 -0.126)">
       <use xlink:href="#DejaVuSans-32"/>
       <use xlink:href="#DejaVuSans-30" x="63.623047"/>
       <use xlink:href="#DejaVuSans-32" x="127.246094"/>
       <use xlink:href="#DejaVuSans-31" x="190.869141"/>
      </g>
     </g>
    </g>
    <g id="xtick_5">
     <g id="line2d_9">
      <path d="M 717.791126 300.96 
L 717.791126 7.2 
" clip-path="url(#p0a239e74f7)" style="fill: none; stroke: #546379; stroke-width: 1.12; stroke-linecap: square"/>
     </g>
     <g id="line2d_10"/>
     <g id="text_5">
      <!-- 2022 -->
      <g style="fill: #b1bed6" transform="translate(688.710086 330.884854) rotate(-30) scale(0.126 -0.126)">
       <use xlink:href="#DejaVuSans-32"/>
       <use xlink:href="#DejaVuSans-30" x="63.623047"/>
       <use xlink:href="#DejaVuSans-32" x="127.246094"/>
       <use xlink:href="#DejaVuSans-32" x="190.869141"/>
      </g>
     </g>
    </g>
    <g id="xtick_6">
     <g id="line2d_11">
      <path d="M 871.244883 300.96 
L 871.244883 7.2 
" clip-path="url(#p0a239e74f7)" style="fill: none; stroke: #546379; stroke-width: 1.12; stroke-linecap: square"/>
     </g>
     <g id="line2d_12"/>
     <g id="text_6">
      <!-- 2023 -->
      <g style="fill: #b1bed6" transform="translate(842.163843 330.884854) rotate(-30) scale(0.126 -0.126)">
       <defs>
        <path id="DejaVuSans-33" d="M 2597 2516 
Q 3050 2419 3304 2112 
Q 3559 1806 3559 1356 
Q 3559 666 3084 287 
Q 2609 -91 1734 -91 
Q 1441 -91 1130 -33 
Q 819 25 488 141 
L 488 750 
Q 750 597 1062 519 
Q 1375 441 1716 441 
Q 2309 441 2620 675 
Q 2931 909 2931 1356 
Q 2931 1769 2642 2001 
Q 2353 2234 1838 2234 
L 1294 2234 
L 1294 2753 
L 1863 2753 
Q 2328 2753 2575 2939 
Q 2822 3125 2822 3475 
Q 2822 3834 2567 4026 
Q 2313 4219 1838 4219 
Q 1578 4219 1281 4162 
Q 984 4106 628 3988 
L 628 4550 
Q 988 4650 1302 4700 
Q 1616 4750 1894 4750 
Q 2613 4750 3031 4423 
Q 3450 4097 3450 3541 
Q 3450 3153 3228 2886 
Q 3006 2619 2597 2516 
z
" transform="scale(0.015625)"/>
       </defs>
       <use xlink:href="#DejaVuSans-32"/>
       <use xlink:href="#DejaVuSans-30" x="63.623047"/>
       <use xlink:href="#DejaVuSans-32" x="127.246094"/>
       <use xlink:href="#DejaVuSans-33" x="190.869141"/>
      </g>
     </g>
    </g>
    <g id="text_7">
     <!-- Date -->
     <g style="fill: #b1bed6" transform="translate(482.074625 348.095943) scale(0.144 -0.144)">
      <defs>
       <path id="DejaVuSans-44" d="M 1259 4147 
L 1259 519 
L 2022 519 
Q 2988 519 3436 956 
Q 3884 1394 3884 2338 
Q 3884 3275 3436 3711 
Q 2988 4147 2022 4147 
L 1259 4147 
z
M 628 4666 
L 1925 4666 
Q 3281 4666 3915 4102 
Q 4550 3538 4550 2338 
Q 4550 1131 3912 565 
Q 3275 0 1925 0 
L 628 0 
L 628 4666 
z
" transform="scale(0.015625)"/>
       <path id="DejaVuSans-61" d="M 2194 1759 
Q 1497 1759 1228 1600 
Q 959 1441 959 1056 
Q 959 750 1161 570 
Q 1363 391 1709 391 
Q 2188 391 2477 730 
Q 2766 1069 2766 1631 
L 2766 1759 
L 2194 1759 
z
M 3341 1997 
L 3341 0 
L 2766 0 
L 2766 531 
Q 2569 213 2275 61 
Q 1981 -91 1556 -91 
Q 1019 -91 701 211 
Q 384 513 384 1019 
Q 384 1609 779 1909 
Q 1175 2209 1959 2209 
L 2766 2209 
L 2766 2266 
Q 2766 2663 2505 2880 
Q 2244 3097 1772 3097 
Q 1472 3097 1187 3025 
Q 903 2953 641 2809 
L 641 3341 
Q 956 3463 1253 3523 
Q 1550 3584 1831 3584 
Q 2591 3584 2966 3190 
Q 3341 2797 3341 1997 
z
" transform="scale(0.015625)"/>
       <path id="DejaVuSans-74" d="M 1172 4494 
L 1172 3500 
L 2356 3500 
L 2356 3053 
L 1172 3053 
L 1172 1153 
Q 1172 725 1289 603 
Q 1406 481 1766 481 
L 2356 481 
L 2356 0 
L 1766 0 
Q 1100 0 847 248 
Q 594 497 594 1153 
L 594 3053 
L 172 3053 
L 172 3500 
L 594 3500 
L 594 4494 
L 1172 4494 
z
" transform="scale(0.015625)"/>
       <path id="DejaVuSans-65" d="M 3597 1894 
L 3597 1613 
L 953 1613 
Q 991 1019 1311 708 
Q 1631 397 2203 397 
Q 2534 397 2845 478 
Q 3156 559 3463 722 
L 3463 178 
Q 3153 47 2828 -22 
Q 2503 -91 2169 -91 
Q 1331 -91 842 396 
Q 353 884 353 1716 
Q 353 2575 817 3079 
Q 1281 3584 2069 3584 
Q 2775 3584 3186 3129 
Q 3597 2675 3597 1894 
z
M 3022 2063 
Q 3016 2534 2758 2815 
Q 2500 3097 2075 3097 
Q 1594 3097 1305 2825 
Q 1016 2553 972 2059 
L 3022 2063 
z
" transform="scale(0.015625)"/>
      </defs>
      <use xlink:href="#DejaVuSans-44"/>
      <use xlink:href="#DejaVuSans-61" x="77.001953"/>
      <use xlink:href="#DejaVuSans-74" x="138.28125"/>
      <use xlink:href="#DejaVuSans-65" x="177.490234"/>
     </g>
    </g>
   </g>
   <g id="matplotlib.axis_2">
    <g id="ytick_1">
     <g id="line2d_13">
      <path d="M 52.88375 258.880598 
L 945.68375 258.880598 
" clip-path="url(#p0a239e74f7)" style="fill: none; stroke: #546379; stroke-width: 1.12; stroke-linecap: square"/>
     </g>
     <g id="line2d_14"/>
     <g id="text_8">
      <!-- 10000 -->
      <g style="fill: #b1bed6" transform="translate(7.2 263.667614) scale(0.126 -0.126)">
       <use xlink:href="#DejaVuSans-31"/>
       <use xlink:href="#DejaVuSans-30" x="63.623047"/>
       <use xlink:href="#DejaVuSans-30" x="127.246094"/>
       <use xlink:href="#DejaVuSans-30" x="190.869141"/>
       <use xlink:href="#DejaVuSans-30" x="254.492188"/>
      </g>
     </g>
    </g>
    <g id="ytick_2">
     <g id="line2d_15">
      <path d="M 52.88375 216.370299 
L 945.68375 216.370299 
" clip-path="url(#p0a239e74f7)" style="fill: none; stroke: #546379; stroke-width: 1.12; stroke-linecap: square"/>
     </g>
     <g id="line2d_16"/>
     <g id="text_9">
      <!-- 20000 -->
      <g style="fill: #b1bed6" transform="translate(7.2 221.157314) scale(0.126 -0.126)">
       <use xlink:href="#DejaVuSans-32"/>
       <use xlink:href="#DejaVuSans-30" x="63.623047"/>
       <use xlink:href="#DejaVuSans-30" x="127.246094"/>
       <use xlink:href="#DejaVuSans-30" x="190.869141"/>
       <use xlink:href="#DejaVuSans-30" x="254.492188"/>
      </g>
     </g>
    </g>
    <g id="ytick_3">
     <g id="line2d_17">
      <path d="M 52.88375 173.86 
L 945.68375 173.86 
" clip-path="url(#p0a239e74f7)" style="fill: none; stroke: #546379; stroke-width: 1.12; stroke-linecap: square"/>
     </g>
     <g id="line2d_18"/>
     <g id="text_10">
      <!-- 30000 -->
      <g style="fill: #b1bed6" transform="translate(7.2 178.647015) scale(0.126 -0.126)">
       <use xlink:href="#DejaVuSans-33"/>
       <use xlink:href="#DejaVuSans-30" x="63.623047"/>
       <use xlink:href="#DejaVuSans-30" x="127.246094"/>
       <use xlink:href="#DejaVuSans-30" x="190.869141"/>
       <use xlink:href="#DejaVuSans-30" x="254.492188"/>
      </g>
     </g>
    </g>
    <g id="ytick_4">
     <g id="line2d_19">
      <path d="M 52.88375 131.349701 
L 945.68375 131.349701 
" clip-path="url(#p0a239e74f7)" style="fill: none; stroke: #546379; stroke-width: 1.12; stroke-linecap: square"/>
     </g>
     <g id="line2d_20"/>
     <g id="text_11">
      <!-- 40000 -->
      <g style="fill: #b1bed6" transform="translate(7.2 136.136716) scale(0.126 -0.126)">
       <defs>
        <path id="DejaVuSans-34" d="M 2419 4116 
L 825 1625 
L 2419 1625 
L 2419 4116 
z
M 2253 4666 
L 3047 4666 
L 3047 1625 
L 3713 1625 
L 3713 1100 
L 3047 1100 
L 3047 0 
L 2419 0 
L 2419 1100 
L 313 1100 
L 313 1709 
L 2253 4666 
z
" transform="scale(0.015625)"/>
       </defs>
       <use xlink:href="#DejaVuSans-34"/>
       <use xlink:href="#DejaVuSans-30" x="63.623047"/>
       <use xlink:href="#DejaVuSans-30" x="127.246094"/>
       <use xlink:href="#DejaVuSans-30" x="190.869141"/>
       <use xlink:href="#DejaVuSans-30" x="254.492188"/>
      </g>
     </g>
    </g>
    <g id="ytick_5">
     <g id="line2d_21">
      <path d="M 52.88375 88.839401 
L 945.68375 88.839401 
" clip-path="url(#p0a239e74f7)" style="fill: none; stroke: #546379; stroke-width: 1.12; stroke-linecap: square"/>
     </g>
     <g id="line2d_22"/>
     <g id="text_12">
      <!-- 50000 -->
      <g style="fill: #b1bed6" transform="translate(7.2 93.626417) scale(0.126 -0.126)">
       <defs>
        <path id="DejaVuSans-35" d="M 691 4666 
L 3169 4666 
L 3169 4134 
L 1269 4134 
L 1269 2991 
Q 1406 3038 1543 3061 
Q 1681 3084 1819 3084 
Q 2600 3084 3056 2656 
Q 3513 2228 3513 1497 
Q 3513 744 3044 326 
Q 2575 -91 1722 -91 
Q 1428 -91 1123 -41 
Q 819 9 494 109 
L 494 744 
Q 775 591 1075 516 
Q 1375 441 1709 441 
Q 2250 441 2565 725 
Q 2881 1009 2881 1497 
Q 2881 1984 2565 2268 
Q 2250 2553 1709 2553 
Q 1456 2553 1204 2497 
Q 953 2441 691 2322 
L 691 4666 
z
" transform="scale(0.015625)"/>
       </defs>
       <use xlink:href="#DejaVuSans-35"/>
       <use xlink:href="#DejaVuSans-30" x="63.623047"/>
       <use xlink:href="#DejaVuSans-30" x="127.246094"/>
       <use xlink:href="#DejaVuSans-30" x="190.869141"/>
       <use xlink:href="#DejaVuSans-30" x="254.492188"/>
      </g>
     </g>
    </g>
    <g id="ytick_6">
     <g id="line2d_23">
      <path d="M 52.88375 46.329102 
L 945.68375 46.329102 
" clip-path="url(#p0a239e74f7)" style="fill: none; stroke: #546379; stroke-width: 1.12; stroke-linecap: square"/>
     </g>
     <g id="line2d_24"/>
     <g id="text_13">
      <!-- 60000 -->
      <g style="fill: #b1bed6" transform="translate(7.2 51.116118) scale(0.126 -0.126)">
       <defs>
        <path id="DejaVuSans-36" d="M 2113 2584 
Q 1688 2584 1439 2293 
Q 1191 2003 1191 1497 
Q 1191 994 1439 701 
Q 1688 409 2113 409 
Q 2538 409 2786 701 
Q 3034 994 3034 1497 
Q 3034 2003 2786 2293 
Q 2538 2584 2113 2584 
z
M 3366 4563 
L 3366 3988 
Q 3128 4100 2886 4159 
Q 2644 4219 2406 4219 
Q 1781 4219 1451 3797 
Q 1122 3375 1075 2522 
Q 1259 2794 1537 2939 
Q 1816 3084 2150 3084 
Q 2853 3084 3261 2657 
Q 3669 2231 3669 1497 
Q 3669 778 3244 343 
Q 2819 -91 2113 -91 
Q 1303 -91 875 529 
Q 447 1150 447 2328 
Q 447 3434 972 4092 
Q 1497 4750 2381 4750 
Q 2619 4750 2861 4703 
Q 3103 4656 3366 4563 
z
" transform="scale(0.015625)"/>
       </defs>
       <use xlink:href="#DejaVuSans-36"/>
       <use xlink:href="#DejaVuSans-30" x="63.623047"/>
       <use xlink:href="#DejaVuSans-30" x="127.246094"/>
       <use xlink:href="#DejaVuSans-30" x="190.869141"/>
       <use xlink:href="#DejaVuSans-30" x="254.492188"/>
      </g>
     </g>
    </g>
   </g>
   <g id="line2d_25">
    <path d="M 93.465568 229.714792 
L 93.465568 237.33234 
L 94.726832 237.33234 
L 94.726832 232.301841 
L 95.988096 232.301841 
L 95.988096 219.431465 
L 97.249359 219.431465 
L 97.249359 227.495499 
L 98.510623 227.495499 
L 98.510623 242.826116 
L 99.771887 242.826116 
L 99.771887 242.97775 
L 101.033151 242.97775 
L 101.033151 240.966715 
L 102.294414 240.966715 
L 102.294414 242.743688 
L 103.555678 242.743688 
L 103.555678 237.458638 
L 104.816942 237.458638 
L 104.816942 228.46044 
L 106.078206 228.46044 
L 106.078206 240.016993 
L 107.339469 240.016993 
L 107.339469 242.764136 
L 108.600733 242.764136 
L 108.600733 243.771843 
L 109.861997 243.771843 
L 109.861997 253.886403 
L 111.123261 253.886403 
L 111.123261 252.447004 
L 112.384524 252.447004 
L 112.384524 252.963037 
L 113.645788 252.963037 
L 113.645788 252.795801 
L 114.907052 252.795801 
L 114.907052 258.529803 
L 116.168316 258.529803 
L 116.168316 263.757677 
L 117.42958 263.757677 
L 117.42958 271.95056 
L 118.690843 271.95056 
L 118.690843 266.340815 
L 119.952107 266.340815 
L 119.952107 267.093503 
L 121.213371 267.093503 
L 121.213371 261.126672 
L 122.474635 261.126672 
L 122.474635 254.264702 
L 123.735898 254.264702 
L 123.735898 253.5839 
L 124.997162 253.5839 
L 124.997162 258.152397 
L 126.258426 258.152397 
L 126.258426 257.522564 
L 127.51969 257.522564 
L 127.51969 254.922379 
L 128.780953 254.922379 
L 128.780953 252.432508 
L 130.042217 252.432508 
L 130.042217 259.218725 
L 131.303481 259.218725 
L 131.303481 264.078035 
L 132.564745 264.078035 
L 132.564745 262.478925 
L 133.826008 262.478925 
L 133.826008 266.116319 
L 135.087272 266.116319 
L 135.087272 264.808064 
L 136.348536 264.808064 
L 136.348536 264.299088 
L 137.6098 264.299088 
L 137.6098 265.435856 
L 138.871063 265.435856 
L 138.871063 267.592616 
L 140.132327 267.592616 
L 140.132327 271.899122 
L 141.393591 271.899122 
L 141.393591 269.820708 
L 142.654855 269.820708 
L 142.654855 273.186674 
L 143.916118 273.186674 
L 143.916118 272.550167 
L 145.177382 272.550167 
L 145.177382 267.631513 
L 146.438646 267.631513 
L 146.438646 265.817854 
L 147.69991 265.817854 
L 147.69991 266.634647 
L 148.961173 266.634647 
L 148.961173 263.426649 
L 150.222437 263.426649 
L 150.222437 260.333983 
L 151.483701 260.333983 
L 151.483701 263.435364 
L 152.744965 263.435364 
L 152.744965 262.113294 
L 154.006228 262.113294 
L 154.006228 259.929115 
L 155.267492 259.929115 
L 155.267492 260.447358 
L 156.528756 260.447358 
L 156.528756 261.812236 
L 157.79002 261.812236 
L 157.79002 265.41222 
L 160.312547 265.380168 
L 160.312547 266.366322 
L 161.573811 266.366322 
L 161.573811 265.696572 
L 162.835075 265.696572 
L 162.835075 269.181779 
L 164.096338 269.181779 
L 164.096338 270.168953 
L 165.357602 270.168953 
L 165.357602 269.989729 
L 166.618866 269.989729 
L 166.618866 268.925187 
L 170.402657 269.017009 
L 170.402657 272.146745 
L 171.663921 272.146745 
L 171.663921 273.175069 
L 172.925185 273.175069 
L 172.925185 273.989651 
L 174.186448 273.989651 
L 174.186448 272.650407 
L 175.447712 272.650407 
L 175.447712 275.160087 
L 176.708976 275.160087 
L 176.708976 275.470412 
L 177.97024 275.470412 
L 177.97024 274.935548 
L 179.231503 274.935548 
L 179.231503 273.221702 
L 180.492767 273.221702 
L 180.492767 273.523228 
L 181.754031 273.523228 
L 181.754031 272.806802 
L 183.015295 272.806802 
L 183.015295 274.170787 
L 184.276558 274.170787 
L 184.276558 274.826891 
L 185.537822 274.826891 
L 185.537822 270.266471 
L 188.06035 270.209635 
L 188.06035 268.593776 
L 189.321613 268.593776 
L 189.321613 267.638527 
L 190.582877 267.638527 
L 190.582877 266.443563 
L 191.844141 266.443563 
L 191.844141 269.050337 
L 193.105405 269.050337 
L 193.105405 271.585736 
L 194.366668 271.585736 
L 194.366668 272.8315 
L 195.627932 272.8315 
L 195.627932 275.293995 
L 196.889196 275.293995 
L 196.889196 274.812905 
L 198.15046 274.812905 
L 198.15046 274.555208 
L 199.411723 274.555208 
L 199.411723 273.816252 
L 200.672987 273.816252 
L 200.672987 274.37743 
L 201.934251 274.37743 
L 201.934251 272.74631 
L 203.195515 272.74631 
L 203.195515 271.3013 
L 204.456779 271.3013 
L 204.456779 271.553853 
L 205.718042 271.553853 
L 205.718042 270.506825 
L 206.979306 270.506825 
L 206.979306 273.754144 
L 208.24057 273.754144 
L 208.24057 274.860304 
L 209.501834 274.860304 
L 209.501834 274.498712 
L 210.763097 274.498712 
L 210.763097 273.664022 
L 212.024361 273.664022 
L 212.024361 274.429208 
L 213.285625 274.429208 
L 213.285625 272.670429 
L 214.546889 272.670429 
L 214.546889 273.404454 
L 215.808152 273.404454 
L 215.808152 272.968171 
L 217.069416 272.968171 
L 217.069416 273.287253 
L 218.33068 273.287253 
L 218.33068 273.828367 
L 219.591944 273.828367 
L 219.591944 273.446242 
L 220.853207 273.446242 
L 220.853207 273.21996 
L 222.114471 273.21996 
L 222.114471 274.834713 
L 223.375735 274.834713 
L 223.375735 273.337628 
L 224.636999 273.337628 
L 224.636999 273.71835 
L 228.42079 273.802691 
L 228.42079 273.941104 
L 229.682054 273.941104 
L 229.682054 274.602565 
L 230.943317 274.602565 
L 230.943317 274.225031 
L 232.204581 274.225031 
L 232.204581 274.023787 
L 234.727109 273.993137 
L 234.727109 274.148044 
L 235.988372 274.148044 
L 235.988372 276.918696 
L 237.249636 276.918696 
L 237.249636 277.702288 
L 238.5109 277.702288 
L 238.5109 282.295356 
L 239.772164 282.295356 
L 239.772164 282.886249 
L 241.033427 282.886249 
L 241.033427 285.265253 
L 242.294691 285.265253 
L 242.294691 283.201718 
L 243.555955 283.201718 
L 243.555955 283.789083 
L 244.817219 283.789083 
L 244.817219 285.470875 
L 246.078482 285.470875 
L 246.078482 286.709285 
L 247.339746 286.709285 
L 247.339746 286.906448 
L 248.60101 286.906448 
L 248.60101 287.607273 
L 249.862274 287.607273 
L 249.862274 286.271939 
L 251.123537 286.271939 
L 251.123537 283.812081 
L 252.384801 283.812081 
L 252.384801 284.40731 
L 253.646065 284.40731 
L 253.646065 285.032041 
L 254.907329 285.032041 
L 254.907329 285.362984 
L 256.168592 285.362984 
L 256.168592 284.999436 
L 258.69112 284.99629 
L 258.69112 284.249682 
L 259.952384 284.249682 
L 259.952384 285.890579 
L 261.213647 285.890579 
L 261.213647 286.37643 
L 262.474911 286.37643 
L 262.474911 285.99609 
L 263.736175 285.99609 
L 263.736175 285.645167 
L 264.997439 285.645167 
L 264.997439 286.140965 
L 267.519966 286.181605 
L 267.519966 286.73088 
L 271.303757 286.699253 
L 271.303757 286.913165 
L 272.565021 286.913165 
L 272.565021 285.813508 
L 273.826285 285.813508 
L 273.826285 285.949371 
L 276.348812 286.052331 
L 276.348812 284.765969 
L 277.610076 284.765969 
L 277.610076 284.621094 
L 278.87134 284.621094 
L 278.87134 285.377735 
L 280.132604 285.377735 
L 280.132604 285.095722 
L 282.655131 285.103331 
L 282.655131 284.929847 
L 287.700186 284.874753 
L 287.700186 284.408373 
L 288.96145 284.408373 
L 288.96145 284.147019 
L 290.222714 284.147019 
L 290.222714 284.336105 
L 291.483978 284.336105 
L 291.483978 284.608936 
L 292.745241 284.608936 
L 292.745241 283.895571 
L 294.006505 283.895571 
L 294.006505 283.738368 
L 295.267769 283.738368 
L 295.267769 280.513069 
L 296.529033 280.513069 
L 296.529033 279.330645 
L 297.790296 279.330645 
L 297.790296 278.817163 
L 299.05156 278.817163 
L 299.05156 279.861046 
L 300.312824 279.861046 
L 300.312824 279.299783 
L 301.574088 279.299783 
L 301.574088 278.958042 
L 302.835351 278.958042 
L 302.835351 278.532302 
L 304.096615 278.532302 
L 304.096615 279.304204 
L 305.357879 279.304204 
L 305.357879 278.854955 
L 307.880406 278.747064 
L 307.880406 276.857863 
L 310.402934 276.923159 
L 310.402934 274.405274 
L 311.664198 274.405274 
L 311.664198 268.134623 
L 312.925461 268.134623 
L 312.925461 267.867445 
L 314.186725 267.867445 
L 314.186725 266.559233 
L 315.447989 266.559233 
L 315.447989 268.972841 
L 316.709253 268.972841 
L 316.709253 267.078922 
L 317.970516 267.078922 
L 317.970516 264.322426 
L 319.23178 264.322426 
L 319.23178 265.028395 
L 320.493044 265.028395 
L 320.493044 266.809109 
L 321.754308 266.809109 
L 321.754308 268.219133 
L 323.015571 268.219133 
L 323.015571 268.910435 
L 324.276835 268.910435 
L 324.276835 266.646975 
L 325.538099 266.646975 
L 325.538099 263.729025 
L 326.799363 263.729025 
L 326.799363 262.807784 
L 328.060626 262.807784 
L 328.060626 257.990517 
L 329.32189 257.990517 
L 329.32189 254.555175 
L 330.583154 254.555175 
L 330.583154 254.064819 
L 331.844418 254.064819 
L 331.844418 255.744486 
L 333.105681 255.744486 
L 333.105681 250.443324 
L 334.366945 250.443324 
L 334.366945 253.643159 
L 335.628209 253.643159 
L 335.628209 247.884119 
L 336.889473 247.884119 
L 336.889473 251.211868 
L 338.150736 251.211868 
L 338.150736 255.167323 
L 339.412 255.167323 
L 339.412 256.16606 
L 340.673264 256.16606 
L 340.673264 256.383501 
L 341.934528 256.383501 
L 341.934528 259.84911 
L 343.195791 259.84911 
L 343.195791 261.116682 
L 344.457055 261.116682 
L 344.457055 260.627219 
L 345.718319 260.627219 
L 345.718319 256.629465 
L 346.979583 256.629465 
L 346.979583 251.279799 
L 348.240846 251.279799 
L 348.240846 250.393799 
L 349.50211 250.393799 
L 349.50211 252.219914 
L 350.763374 252.219914 
L 350.763374 258.808501 
L 352.024638 258.808501 
L 352.024638 257.968667 
L 353.285901 257.968667 
L 353.285901 255.647435 
L 354.547165 255.647435 
L 354.547165 257.155488 
L 355.808429 257.155488 
L 355.808429 257.349037 
L 357.069693 257.349037 
L 357.069693 261.071791 
L 358.330956 261.071791 
L 358.330956 259.859228 
L 359.59222 259.859228 
L 359.59222 256.397316 
L 360.853484 256.397316 
L 360.853484 256.809454 
L 362.114748 256.809454 
L 362.114748 258.451116 
L 363.376011 258.451116 
L 363.376011 257.333648 
L 364.637275 257.333648 
L 364.637275 257.751397 
L 367.159803 257.707824 
L 367.159803 258.740101 
L 368.421066 258.740101 
L 368.421066 265.545235 
L 369.68233 265.545235 
L 369.68233 266.426176 
L 370.943594 266.426176 
L 370.943594 266.009915 
L 372.204858 266.009915 
L 372.204858 266.721708 
L 373.466121 266.721708 
L 373.466121 266.481354 
L 374.727385 266.481354 
L 374.727385 264.887728 
L 375.988649 264.887728 
L 375.988649 266.176386 
L 377.249913 266.176386 
L 377.249913 267.371988 
L 378.511177 267.371988 
L 378.511177 267.552529 
L 379.77244 267.552529 
L 379.77244 267.2689 
L 381.033704 267.2689 
L 381.033704 264.548114 
L 382.294968 264.548114 
L 382.294968 262.201673 
L 383.556232 262.201673 
L 383.556232 262.502561 
L 384.817495 262.502561 
L 384.817495 262.255236 
L 386.078759 262.255236 
L 386.078759 261.672079 
L 387.340023 261.672079 
L 387.340023 263.941832 
L 389.86255 263.975372 
L 389.86255 265.437004 
L 391.123814 265.437004 
L 391.123814 266.634519 
L 392.385078 266.634519 
L 392.385078 269.010505 
L 393.646342 269.010505 
L 393.646342 272.027333 
L 394.907605 272.027333 
L 394.907605 269.406871 
L 396.168869 269.406871 
L 396.168869 269.262803 
L 397.430133 269.262803 
L 397.430133 270.37211 
L 398.691397 270.37211 
L 398.691397 269.307567 
L 399.95266 269.307567 
L 399.95266 270.199305 
L 401.213924 270.199305 
L 401.213924 270.829563 
L 402.475188 270.829563 
L 402.475188 271.161228 
L 403.736452 271.161228 
L 403.736452 270.425162 
L 404.997715 270.425162 
L 404.997715 271.02494 
L 406.258979 271.02494 
L 406.258979 270.567997 
L 408.781507 270.596734 
L 408.781507 270.700162 
L 410.04277 270.700162 
L 410.04277 271.870343 
L 411.304034 271.870343 
L 411.304034 270.139153 
L 412.565298 270.139153 
L 412.565298 267.201351 
L 415.087825 267.291303 
L 415.087825 263.801505 
L 416.349089 263.801505 
L 416.349089 263.555286 
L 417.610353 263.555286 
L 417.610353 264.719515 
L 418.871617 264.719515 
L 418.871617 265.732791 
L 420.13288 265.732791 
L 420.13288 264.881267 
L 421.394144 264.881267 
L 421.394144 261.942147 
L 422.655408 261.942147 
L 422.655408 261.524356 
L 423.916672 261.524356 
L 423.916672 262.442366 
L 425.177935 262.442366 
L 425.177935 259.698751 
L 426.439199 259.698751 
L 426.439199 259.49789 
L 427.700463 259.49789 
L 427.700463 257.850021 
L 428.961727 257.850021 
L 428.961727 259.145565 
L 430.22299 259.145565 
L 430.22299 260.560945 
L 431.484254 260.560945 
L 431.484254 260.285011 
L 432.745518 260.285011 
L 432.745518 261.817422 
L 434.006782 261.817422 
L 434.006782 264.354437 
L 435.268045 264.354437 
L 435.268045 263.502233 
L 436.529309 263.502233 
L 436.529309 262.845151 
L 437.790573 262.845151 
L 437.790573 267.215252 
L 439.051837 267.215252 
L 439.051837 267.651961 
L 440.3131 267.651961 
L 440.3131 279.428971 
L 441.574364 279.428971 
L 441.574364 278.615537 
L 442.835628 278.615537 
L 442.835628 274.922114 
L 444.096892 274.922114 
L 444.096892 273.75002 
L 445.358155 273.75002 
L 445.358155 272.637994 
L 446.619419 272.637994 
L 446.619419 276.371843 
L 447.880683 276.371843 
L 447.880683 273.109348 
L 449.141947 273.109348 
L 449.141947 272.179137 
L 450.40321 272.179137 
L 450.40321 270.759889 
L 451.664474 270.759889 
L 451.664474 272.172548 
L 454.187002 272.238779 
L 454.187002 271.156425 
L 457.970793 271.076845 
L 457.970793 269.297662 
L 459.232057 269.297662 
L 459.232057 268.380247 
L 460.49332 268.380247 
L 460.49332 263.877003 
L 461.754584 263.877003 
L 461.754584 263.616543 
L 463.015848 263.616543 
L 463.015848 258.870055 
L 464.277112 258.870055 
L 464.277112 264.175426 
L 465.538376 264.175426 
L 465.538376 261.83111 
L 466.799639 261.83111 
L 466.799639 261.492006 
L 468.060903 261.492006 
L 468.060903 259.791424 
L 469.322167 259.791424 
L 469.322167 262.420601 
L 470.583431 262.420601 
L 470.583431 263.558176 
L 471.844694 263.558176 
L 471.844694 260.711899 
L 473.105958 260.711899 
L 473.105958 261.215094 
L 474.367222 261.215094 
L 474.367222 260.33428 
L 476.889749 260.28161 
L 476.889749 259.836442 
L 478.151013 259.836442 
L 478.151013 261.176282 
L 479.412277 261.176282 
L 479.412277 261.317713 
L 480.673541 261.317713 
L 480.673541 261.516109 
L 481.934804 261.516109 
L 481.934804 261.92102 
L 484.457332 261.955878 
L 484.457332 263.113646 
L 485.718596 263.113646 
L 485.718596 262.562117 
L 486.979859 262.562117 
L 486.979859 262.823768 
L 488.241123 262.823768 
L 488.241123 261.648401 
L 489.502387 261.648401 
L 489.502387 262.119713 
L 490.763651 262.119713 
L 490.763651 261.873748 
L 492.024914 261.873748 
L 492.024914 262.309011 
L 494.547442 262.38893 
L 494.547442 261.462419 
L 495.808706 261.462419 
L 495.808706 260.78812 
L 497.069969 260.78812 
L 497.069969 254.449324 
L 498.331233 254.449324 
L 498.331233 254.140997 
L 499.592497 254.140997 
L 499.592497 254.298965 
L 500.853761 254.298965 
L 500.853761 251.440105 
L 503.376288 251.366478 
L 503.376288 252.961336 
L 504.637552 252.961336 
L 504.637552 251.337656 
L 505.898816 251.337656 
L 505.898816 249.129926 
L 507.160079 249.129926 
L 507.160079 250.948941 
L 508.421343 250.948941 
L 508.421343 251.853561 
L 509.682607 251.853561 
L 509.682607 252.642764 
L 512.205134 252.582102 
L 512.205134 250.704805 
L 513.466398 250.704805 
L 513.466398 256.891584 
L 514.727662 256.891584 
L 514.727662 257.317324 
L 517.250189 257.38143 
L 517.250189 257.474485 
L 518.511453 257.474485 
L 518.511453 254.848794 
L 519.772717 254.848794 
L 519.772717 254.283407 
L 521.033981 254.283407 
L 521.033981 256.618115 
L 522.295244 256.618115 
L 522.295244 255.935314 
L 524.817772 255.937482 
L 524.817772 256.24819 
L 526.079036 256.24819 
L 526.079036 256.017699 
L 528.601563 256.029007 
L 528.601563 253.342909 
L 529.862827 253.342909 
L 529.862827 252.809107 
L 531.124091 252.809107 
L 531.124091 253.237058 
L 532.385354 253.237058 
L 532.385354 251.406607 
L 533.646618 251.406607 
L 533.646618 246.168956 
L 534.907882 246.168956 
L 534.907882 245.971198 
L 536.169146 245.971198 
L 536.169146 244.898961 
L 537.430409 244.898961 
L 537.430409 242.682814 
L 538.691673 242.682814 
L 538.691673 241.777387 
L 539.952937 241.777387 
L 539.952937 235.092812 
L 541.214201 235.092812 
L 541.214201 236.228858 
L 542.475464 236.228858 
L 542.475464 232.117942 
L 543.736728 232.117942 
L 543.736728 233.509771 
L 544.997992 233.509771 
L 544.997992 225.729154 
L 546.259256 225.729154 
L 546.259256 221.8977 
L 547.520519 221.8977 
L 547.520519 219.887941 
L 548.781783 219.887941 
L 548.781783 228.533048 
L 550.043047 228.533048 
L 550.043047 217.604245 
L 551.304311 217.604245 
L 551.304311 218.689066 
L 552.565575 218.689066 
L 552.565575 219.015885 
L 553.826838 219.015885 
L 553.826838 222.51665 
L 555.088102 222.51665 
L 555.088102 221.456911 
L 556.349366 221.456911 
L 556.349366 218.751938 
L 557.61063 218.751938 
L 557.61063 202.976196 
L 558.871893 202.976196 
L 558.871893 204.699181 
L 560.133157 204.699181 
L 560.133157 200.57547 
L 561.394421 200.57547 
L 561.394421 189.8159 
L 562.655685 189.8159 
L 562.655685 178.72067 
L 563.916948 178.72067 
L 563.916948 164.527034 
L 565.178212 164.527034 
L 565.178212 156.657484 
L 566.439476 156.657484 
L 566.439476 128.500448 
L 567.70074 128.500448 
L 567.70074 150.288294 
L 568.962003 150.288294 
L 568.962003 134.92707 
L 570.223267 134.92707 
L 570.223267 149.233741 
L 571.484531 149.233741 
L 571.484531 150.31363 
L 572.745795 150.31363 
L 572.745795 164.933942 
L 574.007058 164.933942 
L 574.007058 163.054732 
L 575.268322 163.054732 
L 575.268322 155.519951 
L 576.529586 155.519951 
L 576.529586 158.884046 
L 577.79085 158.884046 
L 577.79085 144.093906 
L 579.052113 144.093906 
L 579.052113 135.906379 
L 580.313377 135.906379 
L 580.313377 110.612454 
L 581.574641 110.612454 
L 581.574641 100.805243 
L 582.835905 100.805243 
L 582.835905 92.409841 
L 584.097168 92.409841 
L 584.097168 63.688183 
L 585.358432 63.688183 
L 585.358432 71.310705 
L 586.619696 71.310705 
L 586.619696 102.440912 
L 587.88096 102.440912 
L 587.88096 109.610274 
L 589.142223 109.610274 
L 589.142223 86.808684 
L 590.403487 86.808684 
L 590.403487 93.593796 
L 591.664751 93.593796 
L 591.664751 68.087914 
L 592.926015 68.087914 
L 592.926015 58.005491 
L 594.187278 58.005491 
L 594.187278 64.375915 
L 595.448542 64.375915 
L 595.448542 56.251431 
L 596.709806 56.251431 
L 596.709806 57.334296 
L 597.97107 57.334296 
L 597.97107 78.176841 
L 599.232333 78.176841 
L 599.232333 63.91166 
L 600.493597 63.91166 
L 600.493597 51.727358 
L 601.754861 51.727358 
L 601.754861 50.44699 
L 604.277388 50.350151 
L 604.277388 54.624605 
L 605.538652 54.624605 
L 605.538652 46.478441 
L 606.799916 46.478441 
L 606.799916 33.707284 
L 608.06118 33.707284 
L 608.06118 45.95888 
L 609.322443 45.95888 
L 609.322443 61.174081 
L 610.583707 61.174081 
L 610.583707 83.937411 
L 611.844971 83.937411 
L 611.844971 71.594503 
L 613.106235 71.594503 
L 613.106235 73.603073 
L 614.367498 73.603073 
L 614.367498 60.738138 
L 615.628762 60.738138 
L 615.628762 57.070477 
L 616.890026 57.070477 
L 616.890026 50.882763 
L 618.15129 50.882763 
L 618.15129 60.144949 
L 619.412553 60.144949 
L 619.412553 89.168771 
L 620.673817 89.168771 
L 620.673817 116.061977 
L 621.935081 116.061977 
L 621.935081 128.015533 
L 623.196345 128.015533 
L 623.196345 153.648308 
L 624.457608 153.648308 
L 624.457608 134.469786 
L 625.718872 134.469786 
L 625.718872 154.102615 
L 626.980136 154.102615 
L 626.980136 145.536918 
L 628.2414 145.536918 
L 628.2414 144.589491 
L 629.502663 144.589491 
L 629.502663 158.918182 
L 630.763927 158.918182 
L 630.763927 145.358672 
L 632.025191 145.358672 
L 632.025191 135.316677 
L 633.286455 135.316677 
L 633.286455 138.470728 
L 634.547718 138.470728 
L 634.547718 150.376588 
L 635.808982 150.376588 
L 635.808982 163.455221 
L 637.070246 163.455221 
L 637.070246 166.885845 
L 638.33151 166.885845 
L 638.33151 154.914562 
L 639.592774 154.914562 
L 639.592774 158.824617 
L 640.854037 158.824617 
L 640.854037 151.290007 
L 642.115301 151.290007 
L 642.115301 157.540126 
L 643.376565 157.540126 
L 643.376565 158.915206 
L 644.637829 158.915206 
L 644.637829 162.439353 
L 645.899092 162.439353 
L 645.899092 167.818223 
L 647.160356 167.818223 
L 647.160356 170.391414 
L 648.42162 170.391414 
L 648.42162 164.091601 
L 649.682884 164.091601 
L 649.682884 151.052374 
L 650.944147 151.052374 
L 650.944147 131.338945 
L 652.205411 131.338945 
L 652.205411 124.296987 
L 653.466675 124.296987 
L 653.466675 139.265118 
L 654.727939 139.265118 
L 654.727939 119.336503 
L 655.989202 119.336503 
L 655.989202 104.425973 
L 657.250466 104.425973 
L 657.250466 112.569586 
L 658.51173 112.569586 
L 658.51173 101.352691 
L 659.772994 101.352691 
L 659.772994 111.038875 
L 661.034257 111.038875 
L 661.034257 93.379416 
L 662.295521 93.379416 
L 662.295521 98.427259 
L 663.556785 98.427259 
L 663.556785 92.848718 
L 664.818049 92.848718 
L 664.818049 101.274642 
L 666.079312 101.274642 
L 666.079312 91.6918 
L 667.340576 91.6918 
L 667.340576 81.319074 
L 668.60184 81.319074 
L 668.60184 105.510325 
L 669.863104 105.510325 
L 669.863104 109.479044 
L 671.124367 109.479044 
L 671.124367 101.285907 
L 672.385631 101.285907 
L 672.385631 100.47192 
L 673.646895 100.47192 
L 673.646895 119.015082 
L 674.908159 119.015082 
L 674.908159 110.566585 
L 676.169422 110.566585 
L 676.169422 117.820245 
L 677.430686 117.820245 
L 677.430686 124.878018 
L 678.69195 124.878018 
L 678.69195 98.501567 
L 679.953214 98.501567 
L 679.953214 82.438073 
L 681.214477 82.438073 
L 681.214477 72.399393 
L 682.475741 72.399393 
L 682.475741 57.160684 
L 683.737005 57.160684 
L 683.737005 57.391387 
L 684.998269 57.391387 
L 684.998269 39.756117 
L 686.259532 39.756117 
L 686.259532 20.552727 
L 687.520796 20.552727 
L 687.520796 40.899347 
L 688.78206 40.899347 
L 688.78206 44.861774 
L 690.043324 44.861774 
L 690.043324 36.767771 
L 691.304587 36.767771 
L 691.304587 41.952667 
L 692.565851 41.952667 
L 692.565851 40.19984 
L 693.827115 40.19984 
L 693.827115 32.329525 
L 695.088379 32.329525 
L 695.088379 25.172874 
L 696.349642 25.172874 
L 696.349642 27.535554 
L 697.610906 27.535554 
L 697.610906 45.59682 
L 698.87217 45.59682 
L 698.87217 54.26569 
L 700.133434 54.26569 
L 700.133434 62.051451 
L 701.394697 62.051451 
L 701.394697 50.854536 
L 702.655961 50.854536 
L 702.655961 57.839701 
L 703.917225 57.839701 
L 703.917225 58.105475 
L 705.178489 58.105475 
L 705.178489 92.011265 
L 706.439752 92.011265 
L 706.439752 86.095744 
L 707.701016 86.095744 
L 707.701016 101.008145 
L 708.96228 101.008145 
L 708.96228 102.625109 
L 710.223544 102.625109 
L 710.223544 98.793698 
L 711.484807 98.793698 
L 711.484807 102.913371 
L 712.746071 102.913371 
L 712.746071 94.670327 
L 714.007335 94.670327 
L 714.007335 86.837634 
L 715.268599 86.837634 
L 715.268599 99.036517 
L 716.529862 99.036517 
L 716.529862 104.782634 
L 717.791126 104.782634 
L 717.791126 103.964608 
L 719.05239 103.964608 
L 719.05239 118.083809 
L 720.313654 118.083809 
L 720.313654 123.42391 
L 721.574917 123.42391 
L 721.574917 114.660157 
L 722.836181 114.660157 
L 722.836181 117.973707 
L 724.097445 117.973707 
L 724.097445 121.225958 
L 725.358709 121.225958 
L 725.358709 146.309712 
L 726.619973 146.309712 
L 726.619973 145.468136 
L 727.881236 145.468136 
L 727.881236 143.478527 
L 729.1425 143.478527 
L 729.1425 140.197709 
L 730.403764 140.197709 
L 730.403764 144.47399 
L 731.665028 144.47399 
L 731.665028 125.247645 
L 732.926291 125.247645 
L 732.926291 113.779004 
L 734.187555 113.779004 
L 734.187555 121.14183 
L 735.448819 121.14183 
L 735.448819 120.378047 
L 736.710083 120.378047 
L 736.710083 128.944935 
L 737.971346 128.944935 
L 737.971346 138.226507 
L 739.23261 138.226507 
L 739.23261 142.8637 
L 740.493874 142.8637 
L 740.493874 135.159006 
L 741.755138 135.159006 
L 741.755138 112.565122 
L 743.016401 112.565122 
L 743.016401 135.000272 
L 744.277665 135.000272 
L 744.277665 139.713602 
L 745.538929 139.713602 
L 745.538929 133.739247 
L 746.800193 133.739247 
L 746.800193 140.615288 
L 748.061456 140.615288 
L 748.061456 126.532944 
L 749.32272 126.532944 
L 749.32272 121.902552 
L 750.583984 121.902552 
L 750.583984 121.263409 
L 751.845248 121.263409 
L 751.845248 112.924334 
L 753.106511 112.924334 
L 753.106511 101.099669 
L 754.367775 101.099669 
L 754.367775 107.802311 
L 755.629039 107.802311 
L 755.629039 104.034623 
L 756.890303 104.034623 
L 756.890303 117.78815 
L 758.151566 117.78815 
L 758.151566 119.499147 
L 759.41283 119.499147 
L 759.41283 130.915245 
L 760.674094 130.915245 
L 760.674094 128.942767 
L 761.935358 128.942767 
L 761.935358 127.924561 
L 763.196621 127.924561 
L 763.196621 129.164629 
L 764.457885 129.164629 
L 764.457885 133.621578 
L 765.719149 133.621578 
L 765.719149 134.541034 
L 766.980413 134.541034 
L 766.980413 141.292052 
L 768.241676 141.292052 
L 768.241676 141.011484 
L 769.50294 141.011484 
L 769.50294 148.298429 
L 770.764204 148.298429 
L 770.764204 173.113051 
L 772.025468 173.113051 
L 772.025468 178.403756 
L 773.286731 178.403756 
L 773.286731 168.429607 
L 774.547995 168.429607 
L 774.547995 179.467236 
L 775.809259 179.467236 
L 775.809259 176.368447 
L 777.070523 176.368447 
L 777.070523 175.413454 
L 778.331786 175.413454 
L 778.331786 179.901181 
L 779.59305 179.901181 
L 779.59305 166.567018 
L 780.854314 166.567018 
L 780.854314 172.032567 
L 782.115578 172.032567 
L 782.115578 174.279364 
L 783.376841 174.279364 
L 783.376841 173.055492 
L 784.638105 173.055492 
L 784.638105 180.89758 
L 785.899369 180.89758 
L 785.899369 207.063562 
L 787.160633 207.063562 
L 787.160633 214.522164 
L 788.421896 214.522164 
L 788.421896 213.894967 
L 789.68316 213.894967 
L 789.68316 211.743903 
L 790.944424 211.743903 
L 790.944424 212.034078 
L 792.205688 212.034078 
L 792.205688 216.005008 
L 793.466951 216.005008 
L 793.466951 219.66591 
L 794.728215 219.66591 
L 794.728215 215.596994 
L 795.989479 215.596994 
L 795.989479 209.413701 
L 797.250743 209.413701 
L 797.250743 216.598537 
L 798.512006 216.598537 
L 798.512006 213.951888 
L 799.77327 213.951888 
L 799.77327 213.079024 
L 801.034534 213.079024 
L 801.034534 202.65129 
L 802.295798 202.65129 
L 802.295798 205.905538 
L 803.557061 205.905538 
L 803.557061 210.982841 
L 804.818325 210.982841 
L 804.818325 200.250393 
L 806.079589 200.250393 
L 806.079589 202.346406 
L 807.340853 202.346406 
L 807.340853 205.282338 
L 808.602117 205.282338 
L 808.602117 202.876467 
L 809.86338 202.876467 
L 809.86338 199.53656 
L 811.124644 199.53656 
L 811.124644 197.465416 
L 812.385908 197.465416 
L 812.385908 199.892074 
L 813.647172 199.892074 
L 813.647172 212.785745 
L 814.908435 212.785745 
L 814.908435 210.406401 
L 816.169699 210.406401 
L 816.169699 209.577451 
L 817.430963 209.577451 
L 817.430963 218.282965 
L 818.692227 218.282965 
L 818.692227 216.16761 
L 819.95349 216.16761 
L 819.95349 217.071974 
L 821.214754 217.071974 
L 821.214754 221.443053 
L 822.476018 221.443053 
L 822.476018 210.471655 
L 823.737282 210.471655 
L 823.737282 206.198817 
L 824.998545 206.198817 
L 824.998545 217.668181 
L 826.259809 217.668181 
L 826.259809 218.853495 
L 827.521073 218.853495 
L 827.521073 222.715556 
L 828.782337 222.715556 
L 828.782337 220.911292 
L 830.0436 220.911292 
L 830.0436 220.175438 
L 831.304864 220.175438 
L 831.304864 218.805289 
L 832.566128 218.805289 
L 832.566128 217.932085 
L 833.827392 217.932085 
L 833.827392 216.555261 
L 835.088655 216.555261 
L 835.088655 218.742884 
L 836.349919 218.742884 
L 836.349919 219.957275 
L 837.611183 219.957275 
L 837.611183 220.353089 
L 838.872447 220.353089 
L 838.872447 219.215343 
L 840.13371 219.215343 
L 840.13371 219.892957 
L 841.394974 219.892957 
L 841.394974 219.180655 
L 842.656238 219.180655 
L 842.656238 215.143792 
L 843.917502 215.143792 
L 843.917502 213.698527 
L 845.178765 213.698527 
L 845.178765 215.715683 
L 846.440029 215.715683 
L 846.440029 210.87512 
L 847.701293 210.87512 
L 847.701293 222.576335 
L 848.962557 222.576335 
L 848.962557 229.164794 
L 850.22382 229.164794 
L 850.22382 230.874983 
L 851.485084 230.874983 
L 851.485084 230.473346 
L 852.746348 230.473346 
L 852.746348 232.267408 
L 854.007612 232.267408 
L 854.007612 230.795021 
L 855.268875 230.795021 
L 855.268875 231.446704 
L 857.791403 231.53487 
L 857.791403 228.735567 
L 859.052667 228.735567 
L 859.052667 229.263588 
L 860.31393 229.263588 
L 860.31393 228.126182 
L 861.575194 228.126182 
L 861.575194 228.704195 
L 862.836458 228.704195 
L 862.836458 225.712192 
L 864.097722 225.712192 
L 864.097722 230.043311 
L 865.358985 230.043311 
L 865.358985 229.528767 
L 866.620249 229.528767 
L 866.620249 230.059848 
L 867.881513 230.059848 
L 867.881513 229.48175 
L 869.142777 229.48175 
L 869.142777 230.694187 
L 871.665304 230.765519 
L 871.665304 229.758365 
L 872.926568 229.758365 
L 872.926568 229.356345 
L 874.187832 229.356345 
L 874.187832 227.237292 
L 875.449095 227.237292 
L 875.449095 216.653587 
L 876.710359 216.653587 
L 876.710359 211.30949 
L 877.971623 211.30949 
L 877.971623 211.746199 
L 879.232887 211.746199 
L 879.232887 204.789516 
L 880.49415 204.789516 
L 880.49415 203.235722 
L 881.755414 203.235722 
L 881.755414 203.480198 
L 883.016678 203.480198 
L 883.016678 203.047954 
L 884.277942 203.047954 
L 884.277942 201.746373 
L 885.539205 201.746373 
L 885.539205 204.621557 
L 886.800469 204.621557 
L 886.800469 208.743739 
L 889.322997 208.772646 
L 889.322997 197.917726 
L 890.58426 197.917726 
L 890.58426 196.637273 
L 891.845524 196.637273 
L 891.845524 197.503803 
L 893.106788 197.503803 
L 893.106788 202.800926 
L 894.368052 202.800926 
L 894.368052 201.501812 
L 895.629316 201.501812 
L 895.629316 201.630448 
L 896.890579 201.630448 
L 896.890579 206.050669 
L 898.151843 206.050669 
L 898.151843 209.150647 
L 899.413107 209.150647 
L 899.413107 213.578307 
L 900.674371 213.578307 
L 900.674371 196.103684 
L 901.935634 196.103684 
L 901.935634 184.64584 
L 903.196898 184.64584 
L 903.196898 183.250992 
L 904.458162 183.250992 
L 904.458162 181.252872 
L 905.101932 181.252872 
L 905.101932 181.252872 
" clip-path="url(#p0a239e74f7)" style="fill: none; stroke: #3572c6; stroke-width: 1.2; stroke-linecap: square"/>
   </g>
   <g id="patch_3">
    <path d="M 52.88375 300.96 
L 52.88375 7.2 
" style="fill: none; stroke: #899ab8; stroke-width: 1.12; stroke-linejoin: miter; stroke-linecap: square"/>
   </g>
   <g id="patch_4">
    <path d="M 945.68375 300.96 
L 945.68375 7.2 
" style="fill: none; stroke: #899ab8; stroke-width: 1.12; stroke-linejoin: miter; stroke-linecap: square"/>
   </g>
   <g id="patch_5">
    <path d="M 52.88375 300.96 
L 945.68375 300.96 
" style="fill: none; stroke: #899ab8; stroke-width: 1.12; stroke-linejoin: miter; stroke-linecap: square"/>
   </g>
   <g id="patch_6">
    <path d="M 52.88375 7.2 
L 945.68375 7.2 
" style="fill: none; stroke: #899ab8; stroke-width: 1.12; stroke-linejoin: miter; stroke-linecap: square"/>
   </g>
  </g>
 </g>
 <defs>
  <clipPath id="p0a239e74f7">
   <rect x="52.88375" y="7.2" width="892.8" height="293.76"/>
  </clipPath>
 </defs>
</svg>
