<?xml version="1.0" encoding="utf-8" standalone="no"?>
<!DOCTYPE svg PUBLIC "-//W3C//DTD SVG 1.1//EN"
  "http://www.w3.org/Graphics/SVG/1.1/DTD/svg11.dtd">
<svg xmlns:xlink="http://www.w3.org/1999/xlink" width="934.976pt" height="358.470384pt" viewBox="0 0 934.976 358.470384" xmlns="http://www.w3.org/2000/svg" version="1.1">
 <metadata>
  <rdf:RDF xmlns:dc="http://purl.org/dc/elements/1.1/" xmlns:cc="http://creativecommons.org/ns#" xmlns:rdf="http://www.w3.org/1999/02/22-rdf-syntax-ns#">
   <cc:Work>
    <dc:type rdf:resource="http://purl.org/dc/dcmitype/StillImage"/>
    <dc:date>2022-10-09T22:57:14.368658</dc:date>
    <dc:format>image/svg+xml</dc:format>
    <dc:creator>
     <cc:Agent>
      <dc:title>Matplotlib v3.6.1, https://matplotlib.org/</dc:title>
     </cc:Agent>
    </dc:creator>
   </cc:Work>
  </rdf:RDF>
 </metadata>
 <defs>
  <style type="text/css">*{stroke-linejoin: round; stroke-linecap: butt}</style>
 </defs>
 <g id="figure_1">
  <g id="patch_1">
   <path d="M 0 358.470384 
L 934.976 358.470384 
L 934.976 0 
L 0 0 
z
" style="fill: #373e4b"/>
  </g>
  <g id="axes_1">
   <g id="patch_2">
    <path d="M 34.976 301.139691 
L 927.776 301.139691 
L 927.776 7.379691 
L 34.976 7.379691 
z
" style="fill: #373e4b"/>
   </g>
   <g id="matplotlib.axis_1">
    <g id="xtick_1">
     <g id="line2d_1">
      <path d="M 154.506505 301.139691 
L 154.506505 7.379691 
" clip-path="url(#pbae23891d0)" style="fill: none; stroke: #546379; stroke-width: 1.12; stroke-linecap: square"/>
     </g>
     <g id="line2d_2"/>
     <g id="text_1">
      <!-- 2012 -->
      <g style="fill: #b1bed6" transform="translate(125.425466 331.064545) rotate(-30) scale(0.126 -0.126)">
       <defs>
        <path id="DejaVuSans-32" d="M 1228 531 
L 3431 531 
L 3431 0 
L 469 0 
L 469 531 
Q 828 903 1448 1529 
Q 2069 2156 2228 2338 
Q 2531 2678 2651 2914 
Q 2772 3150 2772 3378 
Q 2772 3750 2511 3984 
Q 2250 4219 1831 4219 
Q 1534 4219 1204 4116 
Q 875 4013 500 3803 
L 500 4441 
Q 881 4594 1212 4672 
Q 1544 4750 1819 4750 
Q 2544 4750 2975 4387 
Q 3406 4025 3406 3419 
Q 3406 3131 3298 2873 
Q 3191 2616 2906 2266 
Q 2828 2175 2409 1742 
Q 1991 1309 1228 531 
z
" transform="scale(0.015625)"/>
        <path id="DejaVuSans-30" d="M 2034 4250 
Q 1547 4250 1301 3770 
Q 1056 3291 1056 2328 
Q 1056 1369 1301 889 
Q 1547 409 2034 409 
Q 2525 409 2770 889 
Q 3016 1369 3016 2328 
Q 3016 3291 2770 3770 
Q 2525 4250 2034 4250 
z
M 2034 4750 
Q 2819 4750 3233 4129 
Q 3647 3509 3647 2328 
Q 3647 1150 3233 529 
Q 2819 -91 2034 -91 
Q 1250 -91 836 529 
Q 422 1150 422 2328 
Q 422 3509 836 4129 
Q 1250 4750 2034 4750 
z
" transform="scale(0.015625)"/>
        <path id="DejaVuSans-31" d="M 794 531 
L 1825 531 
L 1825 4091 
L 703 3866 
L 703 4441 
L 1819 4666 
L 2450 4666 
L 2450 531 
L 3481 531 
L 3481 0 
L 794 0 
L 794 531 
z
" transform="scale(0.015625)"/>
       </defs>
       <use xlink:href="#DejaVuSans-32"/>
       <use xlink:href="#DejaVuSans-30" x="63.623047"/>
       <use xlink:href="#DejaVuSans-31" x="127.246094"/>
       <use xlink:href="#DejaVuSans-32" x="190.869141"/>
      </g>
     </g>
    </g>
    <g id="xtick_2">
     <g id="line2d_3">
      <path d="M 290.618511 301.139691 
L 290.618511 7.379691 
" clip-path="url(#pbae23891d0)" style="fill: none; stroke: #546379; stroke-width: 1.12; stroke-linecap: square"/>
     </g>
     <g id="line2d_4"/>
     <g id="text_2">
      <!-- 2014 -->
      <g style="fill: #b1bed6" transform="translate(261.537471 331.064545) rotate(-30) scale(0.126 -0.126)">
       <defs>
        <path id="DejaVuSans-34" d="M 2419 4116 
L 825 1625 
L 2419 1625 
L 2419 4116 
z
M 2253 4666 
L 3047 4666 
L 3047 1625 
L 3713 1625 
L 3713 1100 
L 3047 1100 
L 3047 0 
L 2419 0 
L 2419 1100 
L 313 1100 
L 313 1709 
L 2253 4666 
z
" transform="scale(0.015625)"/>
       </defs>
       <use xlink:href="#DejaVuSans-32"/>
       <use xlink:href="#DejaVuSans-30" x="63.623047"/>
       <use xlink:href="#DejaVuSans-31" x="127.246094"/>
       <use xlink:href="#DejaVuSans-34" x="190.869141"/>
      </g>
     </g>
    </g>
    <g id="xtick_3">
     <g id="line2d_5">
      <path d="M 426.544316 301.139691 
L 426.544316 7.379691 
" clip-path="url(#pbae23891d0)" style="fill: none; stroke: #546379; stroke-width: 1.12; stroke-linecap: square"/>
     </g>
     <g id="line2d_6"/>
     <g id="text_3">
      <!-- 2016 -->
      <g style="fill: #b1bed6" transform="translate(397.463276 331.064545) rotate(-30) scale(0.126 -0.126)">
       <defs>
        <path id="DejaVuSans-36" d="M 2113 2584 
Q 1688 2584 1439 2293 
Q 1191 2003 1191 1497 
Q 1191 994 1439 701 
Q 1688 409 2113 409 
Q 2538 409 2786 701 
Q 3034 994 3034 1497 
Q 3034 2003 2786 2293 
Q 2538 2584 2113 2584 
z
M 3366 4563 
L 3366 3988 
Q 3128 4100 2886 4159 
Q 2644 4219 2406 4219 
Q 1781 4219 1451 3797 
Q 1122 3375 1075 2522 
Q 1259 2794 1537 2939 
Q 1816 3084 2150 3084 
Q 2853 3084 3261 2657 
Q 3669 2231 3669 1497 
Q 3669 778 3244 343 
Q 2819 -91 2113 -91 
Q 1303 -91 875 529 
Q 447 1150 447 2328 
Q 447 3434 972 4092 
Q 1497 4750 2381 4750 
Q 2619 4750 2861 4703 
Q 3103 4656 3366 4563 
z
" transform="scale(0.015625)"/>
       </defs>
       <use xlink:href="#DejaVuSans-32"/>
       <use xlink:href="#DejaVuSans-30" x="63.623047"/>
       <use xlink:href="#DejaVuSans-31" x="127.246094"/>
       <use xlink:href="#DejaVuSans-36" x="190.869141"/>
      </g>
     </g>
    </g>
    <g id="xtick_4">
     <g id="line2d_7">
      <path d="M 562.656322 301.139691 
L 562.656322 7.379691 
" clip-path="url(#pbae23891d0)" style="fill: none; stroke: #546379; stroke-width: 1.12; stroke-linecap: square"/>
     </g>
     <g id="line2d_8"/>
     <g id="text_4">
      <!-- 2018 -->
      <g style="fill: #b1bed6" transform="translate(533.575282 331.064545) rotate(-30) scale(0.126 -0.126)">
       <defs>
        <path id="DejaVuSans-38" d="M 2034 2216 
Q 1584 2216 1326 1975 
Q 1069 1734 1069 1313 
Q 1069 891 1326 650 
Q 1584 409 2034 409 
Q 2484 409 2743 651 
Q 3003 894 3003 1313 
Q 3003 1734 2745 1975 
Q 2488 2216 2034 2216 
z
M 1403 2484 
Q 997 2584 770 2862 
Q 544 3141 544 3541 
Q 544 4100 942 4425 
Q 1341 4750 2034 4750 
Q 2731 4750 3128 4425 
Q 3525 4100 3525 3541 
Q 3525 3141 3298 2862 
Q 3072 2584 2669 2484 
Q 3125 2378 3379 2068 
Q 3634 1759 3634 1313 
Q 3634 634 3220 271 
Q 2806 -91 2034 -91 
Q 1263 -91 848 271 
Q 434 634 434 1313 
Q 434 1759 690 2068 
Q 947 2378 1403 2484 
z
M 1172 3481 
Q 1172 3119 1398 2916 
Q 1625 2713 2034 2713 
Q 2441 2713 2670 2916 
Q 2900 3119 2900 3481 
Q 2900 3844 2670 4047 
Q 2441 4250 2034 4250 
Q 1625 4250 1398 4047 
Q 1172 3844 1172 3481 
z
" transform="scale(0.015625)"/>
       </defs>
       <use xlink:href="#DejaVuSans-32"/>
       <use xlink:href="#DejaVuSans-30" x="63.623047"/>
       <use xlink:href="#DejaVuSans-31" x="127.246094"/>
       <use xlink:href="#DejaVuSans-38" x="190.869141"/>
      </g>
     </g>
    </g>
    <g id="xtick_5">
     <g id="line2d_9">
      <path d="M 698.582127 301.139691 
L 698.582127 7.379691 
" clip-path="url(#pbae23891d0)" style="fill: none; stroke: #546379; stroke-width: 1.12; stroke-linecap: square"/>
     </g>
     <g id="line2d_10"/>
     <g id="text_5">
      <!-- 2020 -->
      <g style="fill: #b1bed6" transform="translate(669.501087 331.064545) rotate(-30) scale(0.126 -0.126)">
       <use xlink:href="#DejaVuSans-32"/>
       <use xlink:href="#DejaVuSans-30" x="63.623047"/>
       <use xlink:href="#DejaVuSans-32" x="127.246094"/>
       <use xlink:href="#DejaVuSans-30" x="190.869141"/>
      </g>
     </g>
    </g>
    <g id="xtick_6">
     <g id="line2d_11">
      <path d="M 834.694132 301.139691 
L 834.694132 7.379691 
" clip-path="url(#pbae23891d0)" style="fill: none; stroke: #546379; stroke-width: 1.12; stroke-linecap: square"/>
     </g>
     <g id="line2d_12"/>
     <g id="text_6">
      <!-- 2022 -->
      <g style="fill: #b1bed6" transform="translate(805.613093 331.064545) rotate(-30) scale(0.126 -0.126)">
       <use xlink:href="#DejaVuSans-32"/>
       <use xlink:href="#DejaVuSans-30" x="63.623047"/>
       <use xlink:href="#DejaVuSans-32" x="127.246094"/>
       <use xlink:href="#DejaVuSans-32" x="190.869141"/>
      </g>
     </g>
    </g>
    <g id="text_7">
     <!-- Date -->
     <g style="fill: #b1bed6" transform="translate(464.166875 348.275634) scale(0.144 -0.144)">
      <defs>
       <path id="DejaVuSans-44" d="M 1259 4147 
L 1259 519 
L 2022 519 
Q 2988 519 3436 956 
Q 3884 1394 3884 2338 
Q 3884 3275 3436 3711 
Q 2988 4147 2022 4147 
L 1259 4147 
z
M 628 4666 
L 1925 4666 
Q 3281 4666 3915 4102 
Q 4550 3538 4550 2338 
Q 4550 1131 3912 565 
Q 3275 0 1925 0 
L 628 0 
L 628 4666 
z
" transform="scale(0.015625)"/>
       <path id="DejaVuSans-61" d="M 2194 1759 
Q 1497 1759 1228 1600 
Q 959 1441 959 1056 
Q 959 750 1161 570 
Q 1363 391 1709 391 
Q 2188 391 2477 730 
Q 2766 1069 2766 1631 
L 2766 1759 
L 2194 1759 
z
M 3341 1997 
L 3341 0 
L 2766 0 
L 2766 531 
Q 2569 213 2275 61 
Q 1981 -91 1556 -91 
Q 1019 -91 701 211 
Q 384 513 384 1019 
Q 384 1609 779 1909 
Q 1175 2209 1959 2209 
L 2766 2209 
L 2766 2266 
Q 2766 2663 2505 2880 
Q 2244 3097 1772 3097 
Q 1472 3097 1187 3025 
Q 903 2953 641 2809 
L 641 3341 
Q 956 3463 1253 3523 
Q 1550 3584 1831 3584 
Q 2591 3584 2966 3190 
Q 3341 2797 3341 1997 
z
" transform="scale(0.015625)"/>
       <path id="DejaVuSans-74" d="M 1172 4494 
L 1172 3500 
L 2356 3500 
L 2356 3053 
L 1172 3053 
L 1172 1153 
Q 1172 725 1289 603 
Q 1406 481 1766 481 
L 2356 481 
L 2356 0 
L 1766 0 
Q 1100 0 847 248 
Q 594 497 594 1153 
L 594 3053 
L 172 3053 
L 172 3500 
L 594 3500 
L 594 4494 
L 1172 4494 
z
" transform="scale(0.015625)"/>
       <path id="DejaVuSans-65" d="M 3597 1894 
L 3597 1613 
L 953 1613 
Q 991 1019 1311 708 
Q 1631 397 2203 397 
Q 2534 397 2845 478 
Q 3156 559 3463 722 
L 3463 178 
Q 3153 47 2828 -22 
Q 2503 -91 2169 -91 
Q 1331 -91 842 396 
Q 353 884 353 1716 
Q 353 2575 817 3079 
Q 1281 3584 2069 3584 
Q 2775 3584 3186 3129 
Q 3597 2675 3597 1894 
z
M 3022 2063 
Q 3016 2534 2758 2815 
Q 2500 3097 2075 3097 
Q 1594 3097 1305 2825 
Q 1016 2553 972 2059 
L 3022 2063 
z
" transform="scale(0.015625)"/>
      </defs>
      <use xlink:href="#DejaVuSans-44"/>
      <use xlink:href="#DejaVuSans-61" x="77.001953"/>
      <use xlink:href="#DejaVuSans-74" x="138.28125"/>
      <use xlink:href="#DejaVuSans-65" x="177.490234"/>
     </g>
    </g>
   </g>
   <g id="matplotlib.axis_2">
    <g id="ytick_1">
     <g id="line2d_13">
      <path d="M 34.976 254.863557 
L 927.776 254.863557 
" clip-path="url(#pbae23891d0)" style="fill: none; stroke: #546379; stroke-width: 1.12; stroke-linecap: square"/>
     </g>
     <g id="line2d_14"/>
     <g id="text_8">
      <!-- $\mathdefault{10^{0}}$ -->
      <g style="fill: #b1bed6" transform="translate(7.2 259.650573) scale(0.126 -0.126)">
       <use xlink:href="#DejaVuSans-31" transform="translate(0 0.765625)"/>
       <use xlink:href="#DejaVuSans-30" transform="translate(63.623047 0.765625)"/>
       <use xlink:href="#DejaVuSans-30" transform="translate(128.203125 39.046875) scale(0.7)"/>
      </g>
     </g>
    </g>
    <g id="ytick_2">
     <g id="line2d_15">
      <path d="M 34.976 206.288249 
L 927.776 206.288249 
" clip-path="url(#pbae23891d0)" style="fill: none; stroke: #546379; stroke-width: 1.12; stroke-linecap: square"/>
     </g>
     <g id="line2d_16"/>
     <g id="text_9">
      <!-- $\mathdefault{10^{1}}$ -->
      <g style="fill: #b1bed6" transform="translate(7.2 211.075264) scale(0.126 -0.126)">
       <use xlink:href="#DejaVuSans-31" transform="translate(0 0.684375)"/>
       <use xlink:href="#DejaVuSans-30" transform="translate(63.623047 0.684375)"/>
       <use xlink:href="#DejaVuSans-31" transform="translate(128.203125 38.965625) scale(0.7)"/>
      </g>
     </g>
    </g>
    <g id="ytick_3">
     <g id="line2d_17">
      <path d="M 34.976 157.71294 
L 927.776 157.71294 
" clip-path="url(#pbae23891d0)" style="fill: none; stroke: #546379; stroke-width: 1.12; stroke-linecap: square"/>
     </g>
     <g id="line2d_18"/>
     <g id="text_10">
      <!-- $\mathdefault{10^{2}}$ -->
      <g style="fill: #b1bed6" transform="translate(7.2 162.499956) scale(0.126 -0.126)">
       <use xlink:href="#DejaVuSans-31" transform="translate(0 0.765625)"/>
       <use xlink:href="#DejaVuSans-30" transform="translate(63.623047 0.765625)"/>
       <use xlink:href="#DejaVuSans-32" transform="translate(128.203125 39.046875) scale(0.7)"/>
      </g>
     </g>
    </g>
    <g id="ytick_4">
     <g id="line2d_19">
      <path d="M 34.976 109.137632 
L 927.776 109.137632 
" clip-path="url(#pbae23891d0)" style="fill: none; stroke: #546379; stroke-width: 1.12; stroke-linecap: square"/>
     </g>
     <g id="line2d_20"/>
     <g id="text_11">
      <!-- $\mathdefault{10^{3}}$ -->
      <g style="fill: #b1bed6" transform="translate(7.2 113.924648) scale(0.126 -0.126)">
       <defs>
        <path id="DejaVuSans-33" d="M 2597 2516 
Q 3050 2419 3304 2112 
Q 3559 1806 3559 1356 
Q 3559 666 3084 287 
Q 2609 -91 1734 -91 
Q 1441 -91 1130 -33 
Q 819 25 488 141 
L 488 750 
Q 750 597 1062 519 
Q 1375 441 1716 441 
Q 2309 441 2620 675 
Q 2931 909 2931 1356 
Q 2931 1769 2642 2001 
Q 2353 2234 1838 2234 
L 1294 2234 
L 1294 2753 
L 1863 2753 
Q 2328 2753 2575 2939 
Q 2822 3125 2822 3475 
Q 2822 3834 2567 4026 
Q 2313 4219 1838 4219 
Q 1578 4219 1281 4162 
Q 984 4106 628 3988 
L 628 4550 
Q 988 4650 1302 4700 
Q 1616 4750 1894 4750 
Q 2613 4750 3031 4423 
Q 3450 4097 3450 3541 
Q 3450 3153 3228 2886 
Q 3006 2619 2597 2516 
z
" transform="scale(0.015625)"/>
       </defs>
       <use xlink:href="#DejaVuSans-31" transform="translate(0 0.765625)"/>
       <use xlink:href="#DejaVuSans-30" transform="translate(63.623047 0.765625)"/>
       <use xlink:href="#DejaVuSans-33" transform="translate(128.203125 39.046875) scale(0.7)"/>
      </g>
     </g>
    </g>
    <g id="ytick_5">
     <g id="line2d_21">
      <path d="M 34.976 60.562324 
L 927.776 60.562324 
" clip-path="url(#pbae23891d0)" style="fill: none; stroke: #546379; stroke-width: 1.12; stroke-linecap: square"/>
     </g>
     <g id="line2d_22"/>
     <g id="text_12">
      <!-- $\mathdefault{10^{4}}$ -->
      <g style="fill: #b1bed6" transform="translate(7.2 65.34934) scale(0.126 -0.126)">
       <use xlink:href="#DejaVuSans-31" transform="translate(0 0.684375)"/>
       <use xlink:href="#DejaVuSans-30" transform="translate(63.623047 0.684375)"/>
       <use xlink:href="#DejaVuSans-34" transform="translate(128.203125 38.965625) scale(0.7)"/>
      </g>
     </g>
    </g>
    <g id="ytick_6">
     <g id="line2d_23">
      <path d="M 34.976 11.987016 
L 927.776 11.987016 
" clip-path="url(#pbae23891d0)" style="fill: none; stroke: #546379; stroke-width: 1.12; stroke-linecap: square"/>
     </g>
     <g id="line2d_24"/>
     <g id="text_13">
      <!-- $\mathdefault{10^{5}}$ -->
      <g style="fill: #b1bed6" transform="translate(7.2 16.774031) scale(0.126 -0.126)">
       <defs>
        <path id="DejaVuSans-35" d="M 691 4666 
L 3169 4666 
L 3169 4134 
L 1269 4134 
L 1269 2991 
Q 1406 3038 1543 3061 
Q 1681 3084 1819 3084 
Q 2600 3084 3056 2656 
Q 3513 2228 3513 1497 
Q 3513 744 3044 326 
Q 2575 -91 1722 -91 
Q 1428 -91 1123 -41 
Q 819 9 494 109 
L 494 744 
Q 775 591 1075 516 
Q 1375 441 1709 441 
Q 2250 441 2565 725 
Q 2881 1009 2881 1497 
Q 2881 1984 2565 2268 
Q 2250 2553 1709 2553 
Q 1456 2553 1204 2497 
Q 953 2441 691 2322 
L 691 4666 
z
" transform="scale(0.015625)"/>
       </defs>
       <use xlink:href="#DejaVuSans-31" transform="translate(0 0.684375)"/>
       <use xlink:href="#DejaVuSans-30" transform="translate(63.623047 0.684375)"/>
       <use xlink:href="#DejaVuSans-35" transform="translate(128.203125 38.965625) scale(0.7)"/>
      </g>
     </g>
    </g>
    <g id="ytick_7">
     <g id="line2d_25"/>
    </g>
    <g id="ytick_8">
     <g id="line2d_26"/>
    </g>
    <g id="ytick_9">
     <g id="line2d_27"/>
    </g>
    <g id="ytick_10">
     <g id="line2d_28"/>
    </g>
    <g id="ytick_11">
     <g id="line2d_29"/>
    </g>
    <g id="ytick_12">
     <g id="line2d_30"/>
    </g>
    <g id="ytick_13">
     <g id="line2d_31"/>
    </g>
    <g id="ytick_14">
     <g id="line2d_32"/>
    </g>
    <g id="ytick_15">
     <g id="line2d_33"/>
    </g>
    <g id="ytick_16">
     <g id="line2d_34"/>
    </g>
    <g id="ytick_17">
     <g id="line2d_35"/>
    </g>
    <g id="ytick_18">
     <g id="line2d_36"/>
    </g>
    <g id="ytick_19">
     <g id="line2d_37"/>
    </g>
    <g id="ytick_20">
     <g id="line2d_38"/>
    </g>
    <g id="ytick_21">
     <g id="line2d_39"/>
    </g>
    <g id="ytick_22">
     <g id="line2d_40"/>
    </g>
    <g id="ytick_23">
     <g id="line2d_41"/>
    </g>
    <g id="ytick_24">
     <g id="line2d_42"/>
    </g>
    <g id="ytick_25">
     <g id="line2d_43"/>
    </g>
    <g id="ytick_26">
     <g id="line2d_44"/>
    </g>
    <g id="ytick_27">
     <g id="line2d_45"/>
    </g>
    <g id="ytick_28">
     <g id="line2d_46"/>
    </g>
    <g id="ytick_29">
     <g id="line2d_47"/>
    </g>
    <g id="ytick_30">
     <g id="line2d_48"/>
    </g>
    <g id="ytick_31">
     <g id="line2d_49"/>
    </g>
    <g id="ytick_32">
     <g id="line2d_50"/>
    </g>
    <g id="ytick_33">
     <g id="line2d_51"/>
    </g>
    <g id="ytick_34">
     <g id="line2d_52"/>
    </g>
    <g id="ytick_35">
     <g id="line2d_53"/>
    </g>
    <g id="ytick_36">
     <g id="line2d_54"/>
    </g>
    <g id="ytick_37">
     <g id="line2d_55"/>
    </g>
    <g id="ytick_38">
     <g id="line2d_56"/>
    </g>
    <g id="ytick_39">
     <g id="line2d_57"/>
    </g>
    <g id="ytick_40">
     <g id="line2d_58"/>
    </g>
    <g id="ytick_41">
     <g id="line2d_59"/>
    </g>
    <g id="ytick_42">
     <g id="line2d_60"/>
    </g>
    <g id="ytick_43">
     <g id="line2d_61"/>
    </g>
    <g id="ytick_44">
     <g id="line2d_62"/>
    </g>
    <g id="ytick_45">
     <g id="line2d_63"/>
    </g>
    <g id="ytick_46">
     <g id="line2d_64"/>
    </g>
    <g id="ytick_47">
     <g id="line2d_65"/>
    </g>
    <g id="ytick_48">
     <g id="line2d_66"/>
    </g>
    <g id="ytick_49">
     <g id="line2d_67"/>
    </g>
    <g id="ytick_50">
     <g id="line2d_68"/>
    </g>
    <g id="ytick_51">
     <g id="line2d_69"/>
    </g>
    <g id="ytick_52">
     <g id="line2d_70"/>
    </g>
    <g id="ytick_53">
     <g id="line2d_71"/>
    </g>
    <g id="ytick_54">
     <g id="line2d_72"/>
    </g>
   </g>
   <g id="line2d_73">
    <path d="M 75.557818 287.786964 
L 75.557818 284.108807 
L 76.116417 284.108807 
L 76.116417 276.4163 
L 76.675017 276.4163 
L 76.675017 284.969987 
L 77.233616 284.969987 
L 77.233616 280.262553 
L 77.792215 280.262553 
L 77.792215 281.718026 
L 78.350814 281.718026 
L 78.350814 280.97774 
L 80.026612 280.97774 
L 80.026612 281.718026 
L 80.585211 281.718026 
L 80.585211 284.108807 
L 81.14381 284.108807 
L 81.14381 285.867824 
L 81.702409 285.867824 
L 81.702409 284.108807 
L 82.261009 284.108807 
L 82.261009 285.867824 
L 83.378207 285.867824 
L 83.378207 284.108807 
L 83.936806 284.108807 
L 83.936806 282.485237 
L 84.495405 282.485237 
L 84.495405 284.108807 
L 85.054005 284.108807 
L 85.054005 282.485237 
L 85.612604 282.485237 
L 85.612604 280.262553 
L 87.288401 280.262553 
L 87.288401 278.901049 
L 87.847001 278.901049 
L 87.847001 278.251891 
L 88.4056 278.251891 
L 88.4056 273.164339 
L 88.964199 273.164339 
L 88.964199 274.193616 
L 89.522798 274.193616 
L 89.522798 277.010592 
L 90.081397 277.010592 
L 90.081397 272.66794 
L 91.198596 272.66794 
L 91.198596 271.708866 
L 91.757195 271.708866 
L 91.757195 265.291226 
L 92.315794 265.291226 
L 92.315794 260.105095 
L 92.874393 260.105095 
L 92.874393 256.622574 
L 93.432993 256.622574 
L 93.432993 255.506124 
L 93.991592 255.506124 
L 93.991592 253.045553 
L 94.550191 253.045553 
L 94.550191 253.239988 
L 95.10879 253.239988 
L 95.10879 254.036157 
L 95.667389 254.036157 
L 95.667389 257.560328 
L 96.225989 257.560328 
L 96.225989 255.724737 
L 97.343187 255.724737 
L 97.343187 255.94564 
L 97.901786 255.94564 
L 97.901786 256.622574 
L 98.460385 256.622574 
L 98.460385 257.086241 
L 99.018985 257.086241 
L 99.018985 256.394508 
L 99.577584 256.394508 
L 99.577584 257.086241 
L 100.136183 257.086241 
L 100.136183 257.801428 
L 100.694782 257.801428 
L 100.694782 259.836353 
L 101.253381 259.836353 
L 101.253381 258.045315 
L 101.811981 258.045315 
L 101.811981 257.086241 
L 102.37058 257.086241 
L 102.37058 259.570991 
L 103.487778 259.570991 
L 103.487778 260.377305 
L 104.046377 260.377305 
L 104.046377 260.105095 
L 104.604977 260.105095 
L 104.604977 260.653074 
L 105.163576 260.653074 
L 105.163576 255.075579 
L 105.722175 255.075579 
L 105.722175 253.045553 
L 106.280774 253.045553 
L 106.280774 251.19384 
L 106.839373 251.19384 
L 106.839373 248.068887 
L 107.397973 248.068887 
L 107.397973 243.545699 
L 107.956572 243.545699 
L 107.956572 234.224801 
L 108.515171 234.224801 
L 108.515171 225.883669 
L 109.07377 225.883669 
L 109.07377 228.076703 
L 109.632369 228.076703 
L 109.632369 226.979811 
L 110.190969 226.979811 
L 110.190969 219.248274 
L 110.749568 219.248274 
L 110.749568 209.568356 
L 111.308167 209.568356 
L 111.308167 209.791334 
L 111.866766 209.791334 
L 111.866766 212.98526 
L 112.425365 212.98526 
L 112.425365 214.393179 
L 112.983965 214.393179 
L 112.983965 211.127946 
L 113.542564 211.127946 
L 113.542564 209.274672 
L 114.101163 209.274672 
L 114.101163 207.437056 
L 114.659762 207.437056 
L 114.659762 197.664359 
L 115.218361 197.664359 
L 115.218361 192.537795 
L 115.776961 192.537795 
L 115.776961 181.52747 
L 116.33556 181.52747 
L 116.33556 187.068176 
L 116.894159 187.068176 
L 116.894159 191.676175 
L 117.452758 191.676175 
L 117.452758 194.362395 
L 118.011357 194.362395 
L 118.011357 197.193075 
L 118.569957 197.193075 
L 118.569957 195.15626 
L 119.128556 195.15626 
L 119.128556 194.017624 
L 119.687155 194.017624 
L 119.687155 194.627757 
L 120.245754 194.627757 
L 120.245754 196.718683 
L 120.804353 196.718683 
L 120.804353 195.800752 
L 121.362953 195.800752 
L 121.362953 197.510729 
L 121.921552 197.510729 
L 121.921552 198.42067 
L 122.480151 198.42067 
L 122.480151 198.816644 
L 123.03875 198.816644 
L 123.03875 199.295779 
L 124.155949 199.28064 
L 124.155949 198.950305 
L 125.273147 199.039884 
L 125.273147 199.099816 
L 125.831746 199.099816 
L 125.831746 200.161377 
L 126.390345 200.161377 
L 126.390345 203.4871 
L 126.948945 203.4871 
L 126.948945 207.017989 
L 127.507544 207.017989 
L 127.507544 205.562517 
L 128.066143 205.562517 
L 128.066143 203.524078 
L 129.183341 203.542591 
L 129.183341 202.886138 
L 129.741941 202.886138 
L 129.741941 203.394937 
L 130.30054 203.394937 
L 130.30054 206.267163 
L 130.859139 206.267163 
L 130.859139 207.593572 
L 131.417738 207.593572 
L 131.417738 209.816256 
L 131.976337 209.816256 
L 131.976337 209.568356 
L 132.534937 209.568356 
L 132.534937 212.272971 
L 133.093536 212.272971 
L 133.093536 215.40852 
L 133.652135 215.40852 
L 133.652135 216.40694 
L 134.210734 216.40694 
L 134.210734 220.164769 
L 134.769333 220.164769 
L 134.769333 217.454969 
L 135.327933 217.454969 
L 135.327933 217.779807 
L 135.886532 217.779807 
L 135.886532 218.938602 
L 136.445131 218.938602 
L 136.445131 221.122895 
L 137.00373 221.122895 
L 137.00373 219.801384 
L 137.56233 219.801384 
L 137.56233 220.784676 
L 138.120929 220.784676 
L 138.120929 221.81605 
L 138.679528 221.81605 
L 138.679528 224.438881 
L 139.238127 224.438881 
L 139.238127 223.751974 
L 139.796726 223.751974 
L 139.796726 226.315316 
L 140.355326 226.315316 
L 140.355326 234.787394 
L 140.913925 234.787394 
L 140.913925 229.612752 
L 141.472524 229.612752 
L 141.472524 231.687245 
L 142.031123 231.687245 
L 142.031123 229.108943 
L 143.148322 229.171265 
L 143.148322 229.804826 
L 143.706921 229.804826 
L 143.706921 231.407824 
L 144.26552 231.407824 
L 144.26552 231.063673 
L 144.824119 231.063673 
L 144.824119 230.927569 
L 145.382718 230.927569 
L 145.382718 234.145641 
L 145.941318 234.145641 
L 145.941318 236.660041 
L 146.499917 236.660041 
L 146.499917 237.292516 
L 147.058516 237.292516 
L 147.058516 235.702945 
L 147.617115 235.702945 
L 147.617115 235.449283 
L 148.175714 235.449283 
L 148.175714 231.687245 
L 148.734314 231.687245 
L 148.734314 230.995511 
L 149.292913 230.995511 
L 149.292913 231.269489 
L 149.851512 231.269489 
L 149.851512 231.407824 
L 150.410111 231.407824 
L 150.410111 229.485667 
L 150.96871 229.485667 
L 150.96871 230.325741 
L 151.52731 230.325741 
L 151.52731 229.296464 
L 152.085909 229.296464 
L 152.085909 225.200551 
L 153.761706 225.148909 
L 153.761706 223.274669 
L 154.320306 223.274669 
L 154.320306 219.09287 
L 154.878905 219.09287 
L 154.878905 215.053958 
L 155.437504 215.053958 
L 155.437504 213.218367 
L 155.996103 213.218367 
L 155.996103 213.51342 
L 156.554702 213.51342 
L 156.554702 214.393179 
L 157.113302 214.393179 
L 157.113302 213.903265 
L 157.671901 213.903265 
L 157.671901 215.150067 
L 158.2305 215.150067 
L 158.2305 215.473632 
L 158.789099 215.473632 
L 158.789099 216.785199 
L 159.347698 216.785199 
L 159.347698 218.072811 
L 159.906298 218.072811 
L 159.906298 217.889207 
L 160.464897 217.889207 
L 160.464897 217.099809 
L 161.023496 217.099809 
L 161.023496 217.999178 
L 161.582095 217.999178 
L 161.582095 217.276642 
L 162.140694 217.276642 
L 162.140694 218.183746 
L 162.699294 218.183746 
L 162.699294 222.037416 
L 163.257893 222.037416 
L 163.257893 223.703754 
L 163.816492 223.703754 
L 163.816492 222.532755 
L 164.375091 222.532755 
L 164.375091 220.700962 
L 164.93369 220.700962 
L 164.93369 220.995427 
L 165.49229 220.995427 
L 165.49229 221.165557 
L 166.050889 221.165557 
L 166.050889 220.742777 
L 166.609488 220.742777 
L 166.609488 220.953108 
L 167.726686 220.995427 
L 167.726686 219.09287 
L 168.285286 219.09287 
L 168.285286 219.287304 
L 168.843885 219.287304 
L 168.843885 221.122895 
L 169.402484 221.122895 
L 169.402484 221.72815 
L 169.961083 221.72815 
L 169.961083 222.037416 
L 170.519682 222.037416 
L 170.519682 221.553441 
L 171.078282 221.553441 
L 171.078282 221.037831 
L 172.19548 221.08032 
L 172.19548 221.165557 
L 172.754079 221.165557 
L 172.754079 221.33707 
L 173.312678 221.33707 
L 173.312678 221.037831 
L 174.429877 220.953108 
L 174.429877 220.124082 
L 174.988476 220.124082 
L 174.988476 219.681633 
L 175.547075 219.681633 
L 175.547075 220.246378 
L 176.105674 220.246378 
L 176.105674 220.534523 
L 176.664274 220.534523 
L 176.664274 220.742777 
L 177.222873 220.742777 
L 177.222873 220.287301 
L 177.781472 220.287301 
L 177.781472 220.493118 
L 178.89867 220.493118 
L 178.89867 220.868724 
L 179.45727 220.868724 
L 179.45727 220.493118 
L 180.015869 220.493118 
L 180.015869 220.328304 
L 182.250266 220.246378 
L 182.250266 220.042944 
L 182.808865 220.042944 
L 182.808865 219.801384 
L 183.367464 219.801384 
L 183.367464 218.977064 
L 183.926063 218.977064 
L 183.926063 218.220854 
L 184.484662 218.220854 
L 184.484662 217.9258 
L 185.043262 217.9258 
L 185.043262 216.13604 
L 185.601861 216.13604 
L 185.601861 215.441051 
L 186.16046 215.441051 
L 186.16046 214.42418 
L 186.719059 214.42418 
L 186.719059 215.182201 
L 187.836258 215.117982 
L 187.836258 214.768229 
L 188.953456 214.705256 
L 188.953456 214.611147 
L 189.512055 214.611147 
L 189.512055 213.87302 
L 190.070654 213.87302 
L 190.070654 212.469999 
L 190.629254 212.469999 
L 190.629254 211.529787 
L 191.187853 211.529787 
L 191.187853 207.661007 
L 191.746452 207.661007 
L 191.746452 207.303818 
L 192.305051 207.303818 
L 192.305051 208.722955 
L 193.42225 208.62846 
L 193.42225 208.001455 
L 193.980849 208.001455 
L 193.980849 206.036604 
L 194.539448 206.036604 
L 194.539448 203.878641 
L 195.098047 203.878641 
L 195.098047 203.616808 
L 195.656646 203.616808 
L 195.656646 203.084562 
L 196.215246 203.084562 
L 196.215246 201.92108 
L 196.773845 201.92108 
L 196.773845 197.220508 
L 197.332444 197.220508 
L 197.332444 205.359669 
L 197.891043 205.359669 
L 197.891043 205.767334 
L 198.449642 205.767334 
L 198.449642 204.296773 
L 199.008242 204.296773 
L 199.008242 204.010786 
L 199.566841 204.010786 
L 199.566841 205.542144 
L 200.12544 205.542144 
L 200.12544 205.07892 
L 200.684039 205.07892 
L 200.684039 203.766029 
L 201.242638 203.766029 
L 201.242638 204.010786 
L 201.801238 204.010786 
L 201.801238 203.376553 
L 202.359837 203.376553 
L 202.359837 202.477185 
L 202.918436 202.477185 
L 202.918436 201.36255 
L 203.477035 201.36255 
L 203.477035 201.750262 
L 204.035634 201.750262 
L 204.035634 202.024239 
L 204.594234 202.024239 
L 204.594234 201.64843 
L 205.152833 201.64843 
L 205.152833 201.446231 
L 205.711432 201.446231 
L 205.711432 200.640126 
L 206.270031 200.640126 
L 206.270031 201.446231 
L 206.82863 201.446231 
L 206.82863 202.162574 
L 207.945829 202.266924 
L 207.945829 202.459583 
L 209.063027 202.54774 
L 209.063027 202.689562 
L 209.621626 202.689562 
L 209.621626 203.230053 
L 210.180226 203.230053 
L 210.180226 204.880648 
L 210.738825 204.880648 
L 210.738825 203.954051 
L 211.297424 203.954051 
L 211.297424 205.019242 
L 211.856023 205.019242 
L 211.856023 204.335199 
L 212.414622 204.335199 
L 212.414622 204.201013 
L 212.973222 204.201013 
L 212.973222 203.954051 
L 213.531821 203.954051 
L 213.531821 203.747318 
L 214.09042 203.747318 
L 214.09042 202.760832 
L 214.649019 202.760832 
L 214.649019 202.618532 
L 215.207618 202.618532 
L 215.207618 201.64843 
L 216.324817 201.580815 
L 216.324817 201.3125 
L 216.883416 201.3125 
L 216.883416 201.163059 
L 217.442015 201.163059 
L 217.442015 199.662409 
L 218.000614 199.662409 
L 218.000614 199.910418 
L 218.559214 199.910418 
L 218.559214 199.493579 
L 219.676412 199.570153 
L 219.676412 200.114094 
L 220.235011 200.114094 
L 220.235011 199.755071 
L 220.79361 199.755071 
L 220.79361 200.035524 
L 221.910809 199.941625 
L 221.910809 199.848142 
L 222.469408 199.848142 
L 222.469408 200.082631 
L 223.028007 200.082631 
L 223.028007 199.894832 
L 223.586606 199.894832 
L 223.586606 199.43252 
L 224.145206 199.43252 
L 224.145206 198.728006 
L 225.262404 198.683825 
L 225.262404 197.002036 
L 225.821003 197.002036 
L 225.821003 196.176204 
L 226.379602 196.176204 
L 226.379602 193.923497 
L 226.938202 193.923497 
L 226.938202 194.230956 
L 227.496801 194.230956 
L 227.496801 191.898966 
L 228.0554 191.898966 
L 228.0554 190.386688 
L 228.613999 190.386688 
L 228.613999 190.646395 
L 229.172598 190.646395 
L 229.172598 189.511613 
L 229.731198 189.511613 
L 229.731198 187.845757 
L 230.289797 187.845757 
L 230.289797 187.557305 
L 230.848396 187.557305 
L 230.848396 185.032081 
L 231.406995 185.032081 
L 231.406995 183.480807 
L 231.965594 183.480807 
L 231.965594 182.749406 
L 233.082793 182.832516 
L 233.082793 180.872382 
L 233.641392 180.872382 
L 233.641392 180.316946 
L 234.199991 180.316946 
L 234.199991 176.013722 
L 234.75859 176.013722 
L 234.75859 173.672331 
L 235.31719 173.672331 
L 235.31719 174.879466 
L 235.875789 174.879466 
L 235.875789 173.685821 
L 236.434388 173.685821 
L 236.434388 171.459539 
L 236.992987 171.459539 
L 236.992987 165.162142 
L 237.551586 165.162142 
L 237.551586 164.663578 
L 238.110186 164.663578 
L 238.110186 160.218797 
L 238.668785 160.218797 
L 238.668785 159.357616 
L 239.227384 159.357616 
L 239.227384 154.339576 
L 239.785983 154.339576 
L 239.785983 150.300636 
L 240.344583 150.300636 
L 240.344583 144.512664 
L 240.903182 144.512664 
L 240.903182 153.02239 
L 241.461781 153.02239 
L 241.461781 157.71294 
L 242.02038 157.71294 
L 242.02038 159.040718 
L 242.578979 159.040718 
L 242.578979 152.587751 
L 243.137579 152.587751 
L 243.137579 150.241336 
L 243.696178 150.241336 
L 243.696178 151.071697 
L 244.254777 151.071697 
L 244.254777 149.941472 
L 244.813376 149.941472 
L 244.813376 157.028013 
L 245.371975 157.028013 
L 245.371975 154.585511 
L 245.930575 154.585511 
L 245.930575 155.069398 
L 246.489174 155.069398 
L 246.489174 154.64015 
L 247.047773 154.64015 
L 247.047773 155.32216 
L 247.606372 155.32216 
L 247.606372 153.290959 
L 248.164971 153.290959 
L 248.164971 153.514527 
L 248.723571 153.514527 
L 248.723571 152.720535 
L 249.28217 152.720535 
L 249.28217 151.617649 
L 249.840769 151.617649 
L 249.840769 151.808134 
L 250.399368 151.808134 
L 250.399368 152.292008 
L 250.957967 152.292008 
L 250.957967 153.618517 
L 251.516567 153.618517 
L 251.516567 155.416549 
L 252.075166 155.416549 
L 252.075166 156.463808 
L 252.633765 156.463808 
L 252.633765 156.905835 
L 253.192364 156.905835 
L 253.192364 157.734047 
L 253.750963 157.734047 
L 253.750963 156.151971 
L 254.309563 156.151971 
L 254.309563 156.021115 
L 254.868162 156.021115 
L 254.868162 156.907866 
L 255.426761 156.907866 
L 255.426761 158.872889 
L 255.98536 158.872889 
L 255.98536 160.650811 
L 256.543959 160.650811 
L 256.543959 162.409829 
L 257.102559 162.409829 
L 257.102559 163.781878 
L 257.661158 163.781878 
L 257.661158 160.433698 
L 258.219757 160.433698 
L 258.219757 158.139137 
L 258.778356 158.139137 
L 258.778356 158.344636 
L 259.336955 158.344636 
L 259.336955 159.471958 
L 260.454154 159.474251 
L 260.454154 158.355508 
L 261.012753 158.355508 
L 261.012753 157.988987 
L 261.571352 157.988987 
L 261.571352 156.443934 
L 262.129951 156.443934 
L 262.129951 156.693712 
L 262.688551 156.693712 
L 262.688551 156.372543 
L 263.24715 156.372543 
L 263.24715 157.130371 
L 263.805749 157.130371 
L 263.805749 156.356711 
L 264.364348 156.356711 
L 264.364348 158.121922 
L 264.922947 158.121922 
L 264.922947 157.861132 
L 265.481547 157.861132 
L 265.481547 155.619973 
L 266.040146 155.619973 
L 266.040146 155.887197 
L 266.598745 155.887197 
L 266.598745 154.271368 
L 267.157344 154.271368 
L 267.157344 153.032527 
L 267.715943 153.032527 
L 267.715943 152.163507 
L 268.274543 152.163507 
L 268.274543 153.409327 
L 268.833142 153.409327 
L 268.833142 154.189094 
L 269.391741 154.189094 
L 269.391741 152.747192 
L 269.95034 152.747192 
L 269.95034 153.166449 
L 270.508939 153.166449 
L 270.508939 150.743199 
L 271.067539 150.743199 
L 271.067539 153.338913 
L 272.184737 153.405887 
L 272.184737 153.064658 
L 272.743336 153.064658 
L 272.743336 152.668982 
L 273.301935 152.668982 
L 273.301935 156.91599 
L 273.860535 156.91599 
L 273.860535 153.656775 
L 274.419134 153.656775 
L 274.419134 153.154548 
L 274.977733 153.154548 
L 274.977733 152.602647 
L 275.536332 152.602647 
L 275.536332 151.355389 
L 276.094931 151.355389 
L 276.094931 150.029225 
L 276.653531 150.029225 
L 276.653531 144.60766 
L 277.21213 144.60766 
L 277.21213 142.703606 
L 277.770729 142.703606 
L 277.770729 145.364631 
L 278.329328 145.364631 
L 278.329328 141.466746 
L 278.887927 141.466746 
L 278.887927 142.776226 
L 279.446527 142.776226 
L 279.446527 140.146486 
L 280.005126 140.146486 
L 280.005126 135.177746 
L 280.563725 135.177746 
L 280.563725 132.654209 
L 281.122324 132.654209 
L 281.122324 128.840139 
L 281.680923 128.840139 
L 281.680923 126.589775 
L 282.239523 126.589775 
L 282.239523 121.864979 
L 282.798122 121.864979 
L 282.798122 113.97733 
L 283.356721 113.97733 
L 283.356721 113.464571 
L 283.91532 113.464571 
L 283.91532 108.842256 
L 284.473919 108.842256 
L 284.473919 110.108754 
L 285.032519 110.108754 
L 285.032519 106.430906 
L 285.591118 106.430906 
L 285.591118 116.48468 
L 286.149717 116.48468 
L 286.149717 109.590538 
L 286.708316 109.590538 
L 286.708316 111.714879 
L 287.266915 111.714879 
L 287.266915 116.965587 
L 287.825515 116.965587 
L 287.825515 117.109776 
L 288.384114 117.109776 
L 288.384114 119.42364 
L 288.942713 119.42364 
L 288.942713 117.303988 
L 289.501312 117.303988 
L 289.501312 116.214761 
L 290.059911 116.214761 
L 290.059911 115.719048 
L 290.618511 115.719048 
L 290.618511 113.651086 
L 291.17711 113.651086 
L 291.17711 110.995712 
L 291.735709 110.995712 
L 291.735709 113.163202 
L 292.294308 113.163202 
L 292.294308 112.714571 
L 293.411507 112.76988 
L 293.411507 113.55177 
L 293.970106 113.55177 
L 293.970106 113.201534 
L 294.528705 113.201534 
L 294.528705 114.378629 
L 295.087304 114.378629 
L 295.087304 115.275032 
L 295.645903 115.275032 
L 295.645903 113.845066 
L 296.204503 113.845066 
L 296.204503 113.47027 
L 296.763102 113.47027 
L 296.763102 114.352141 
L 297.321701 114.352141 
L 297.321701 117.248759 
L 297.8803 117.248759 
L 297.8803 117.426129 
L 298.438899 117.426129 
L 298.438899 117.576973 
L 298.997499 117.576973 
L 298.997499 118.886066 
L 299.556098 118.886066 
L 299.556098 121.256764 
L 300.114697 121.256764 
L 300.114697 119.52902 
L 300.673296 119.52902 
L 300.673296 120.440536 
L 301.231895 120.440536 
L 301.231895 121.08956 
L 301.790495 121.08956 
L 301.790495 117.483078 
L 302.349094 117.483078 
L 302.349094 118.818195 
L 303.466292 118.907174 
L 303.466292 118.519234 
L 304.024891 118.519234 
L 304.024891 118.718292 
L 304.583491 118.718292 
L 304.583491 119.523842 
L 305.14209 119.523842 
L 305.14209 121.256389 
L 305.700689 121.256389 
L 305.700689 120.419638 
L 306.259288 120.419638 
L 306.259288 123.777141 
L 306.817887 123.777141 
L 306.817887 125.6347 
L 307.376487 125.6347 
L 307.376487 126.043033 
L 307.935086 126.043033 
L 307.935086 125.611196 
L 308.493685 125.611196 
L 308.493685 126.364696 
L 309.052284 126.364696 
L 309.052284 127.269819 
L 309.610883 127.269819 
L 309.610883 122.811499 
L 310.169483 122.811499 
L 310.169483 124.528906 
L 310.728082 124.528906 
L 310.728082 123.828719 
L 311.286681 123.828719 
L 311.286681 123.669739 
L 311.84528 123.669739 
L 311.84528 126.514641 
L 312.403879 126.514641 
L 312.403879 125.887989 
L 312.962479 125.887989 
L 312.962479 126.457028 
L 313.521078 126.457028 
L 313.521078 127.039872 
L 314.079677 127.039872 
L 314.079677 126.029873 
L 314.638276 126.029873 
L 314.638276 126.339888 
L 315.196875 126.339888 
L 315.196875 126.146245 
L 316.314074 126.129244 
L 316.314074 124.016221 
L 316.872673 124.016221 
L 316.872673 122.614371 
L 317.431272 122.614371 
L 317.431272 120.896394 
L 317.989871 120.896394 
L 317.989871 119.178083 
L 318.548471 119.178083 
L 318.548471 117.839511 
L 319.665669 117.856088 
L 319.665669 117.995919 
L 320.224268 117.995919 
L 320.224268 119.053836 
L 320.782867 119.053836 
L 320.782867 120.911871 
L 321.341467 120.911871 
L 321.341467 119.634582 
L 321.900066 119.634582 
L 321.900066 120.144501 
L 322.458665 120.144501 
L 322.458665 120.331232 
L 323.017264 120.331232 
L 323.017264 120.726163 
L 323.575863 120.726163 
L 323.575863 119.914355 
L 324.134463 119.914355 
L 324.134463 118.209526 
L 324.693062 118.209526 
L 324.693062 118.851268 
L 325.251661 118.851268 
L 325.251661 119.053836 
L 325.81026 119.053836 
L 325.81026 118.751208 
L 326.368859 118.751208 
L 326.368859 119.181139 
L 326.927459 119.181139 
L 326.927459 119.025838 
L 328.044657 118.985424 
L 328.044657 119.207644 
L 328.603256 119.207644 
L 328.603256 120.058654 
L 329.161855 120.058654 
L 329.161855 120.430085 
L 329.720455 120.430085 
L 329.720455 120.063611 
L 330.279054 120.063611 
L 330.279054 120.322269 
L 330.837653 120.322269 
L 330.837653 120.447387 
L 331.396252 120.447387 
L 331.396252 120.242124 
L 331.954851 120.242124 
L 331.954851 121.750362 
L 332.513451 121.750362 
L 332.513451 122.776033 
L 333.07205 122.776033 
L 333.07205 124.186453 
L 333.630649 124.186453 
L 333.630649 123.108439 
L 334.189248 123.108439 
L 334.189248 123.694961 
L 334.747847 123.694961 
L 334.747847 123.483195 
L 335.306447 123.483195 
L 335.306447 124.671159 
L 335.865046 124.671159 
L 335.865046 124.864558 
L 336.423645 124.864558 
L 336.423645 124.639465 
L 336.982244 124.639465 
L 336.982244 124.915748 
L 338.099443 124.859223 
L 338.099443 125.028358 
L 338.658042 125.028358 
L 338.658042 127.160976 
L 339.216641 127.160976 
L 339.216641 128.407127 
L 339.77524 128.407127 
L 339.77524 127.254378 
L 340.333839 127.254378 
L 340.333839 128.447132 
L 340.892439 128.447132 
L 340.892439 128.992061 
L 341.451038 128.992061 
L 341.451038 130.754934 
L 342.009637 130.754934 
L 342.009637 132.679308 
L 342.568236 132.679308 
L 342.568236 130.479883 
L 343.126836 130.479883 
L 343.126836 129.505408 
L 343.685435 129.505408 
L 343.685435 128.7416 
L 344.244034 128.7416 
L 344.244034 128.947772 
L 344.802633 128.947772 
L 344.802633 129.225294 
L 345.361232 129.225294 
L 345.361232 130.779047 
L 345.919832 130.779047 
L 345.919832 131.23049 
L 346.478431 131.23049 
L 346.478431 131.569876 
L 347.03703 131.569876 
L 347.03703 132.889632 
L 347.595629 132.889632 
L 347.595629 131.981364 
L 348.154228 131.981364 
L 348.154228 131.469918 
L 348.712828 131.469918 
L 348.712828 130.146033 
L 349.271427 130.146033 
L 349.271427 128.514682 
L 349.830026 128.514682 
L 349.830026 129.063008 
L 350.388625 129.063008 
L 350.388625 130.898254 
L 350.947224 130.898254 
L 350.947224 130.277216 
L 352.064423 130.292161 
L 352.064423 129.79603 
L 352.623022 129.79603 
L 352.623022 129.57088 
L 353.181621 129.57088 
L 353.181621 129.773014 
L 353.74022 129.773014 
L 353.74022 130.515885 
L 354.29882 130.515885 
L 354.29882 131.346842 
L 354.857419 131.346842 
L 354.857419 130.81969 
L 355.416018 130.81969 
L 355.416018 133.08697 
L 355.974617 133.08697 
L 355.974617 132.42902 
L 356.533216 132.42902 
L 356.533216 132.086286 
L 357.091816 132.086286 
L 357.091816 132.529802 
L 357.650415 132.529802 
L 357.650415 133.614779 
L 358.767613 133.52008 
L 358.767613 137.299829 
L 359.326212 137.299829 
L 359.326212 134.678447 
L 359.884812 134.678447 
L 359.884812 136.297939 
L 360.443411 136.297939 
L 360.443411 140.888738 
L 361.00201 140.888738 
L 361.00201 142.249735 
L 361.560609 142.249735 
L 361.560609 141.46577 
L 362.119208 141.46577 
L 362.119208 139.822388 
L 362.677808 139.822388 
L 362.677808 138.021457 
L 363.236407 138.021457 
L 363.236407 139.580755 
L 363.795006 139.580755 
L 363.795006 141.151694 
L 364.353605 141.151694 
L 364.353605 140.369677 
L 364.912204 140.369677 
L 364.912204 140.854556 
L 365.470804 140.854556 
L 365.470804 141.086367 
L 366.029403 141.086367 
L 366.029403 140.857402 
L 366.588002 140.857402 
L 366.588002 139.761945 
L 367.146601 139.761945 
L 367.146601 139.470295 
L 367.7052 139.470295 
L 367.7052 138.773804 
L 368.2638 138.773804 
L 368.2638 139.249337 
L 368.822399 139.249337 
L 368.822399 138.205579 
L 369.380998 138.205579 
L 369.380998 136.305585 
L 369.939597 136.305585 
L 369.939597 136.517707 
L 370.498196 136.517707 
L 370.498196 136.372219 
L 371.056796 136.372219 
L 371.056796 134.779927 
L 371.615395 134.779927 
L 371.615395 135.826995 
L 372.173994 135.826995 
L 372.173994 135.657237 
L 372.732593 135.657237 
L 372.732593 137.385776 
L 373.291192 137.385776 
L 373.291192 137.074977 
L 373.849792 137.074977 
L 373.849792 138.447958 
L 374.408391 138.447958 
L 374.408391 139.039373 
L 374.96699 139.039373 
L 374.96699 138.681168 
L 375.525589 138.681168 
L 375.525589 138.075444 
L 376.642788 138.056325 
L 376.642788 139.598625 
L 377.201387 139.598625 
L 377.201387 140.792978 
L 377.759986 140.792978 
L 377.759986 140.372459 
L 378.318585 140.372459 
L 378.318585 140.830851 
L 378.877184 140.830851 
L 378.877184 139.815162 
L 379.435784 139.815162 
L 379.435784 140.484961 
L 380.552982 140.586822 
L 380.552982 140.053116 
L 381.111581 140.053116 
L 381.111581 139.398451 
L 382.787379 139.322439 
L 382.787379 139.601307 
L 383.904577 139.542384 
L 383.904577 140.013878 
L 384.463176 140.013878 
L 384.463176 139.349807 
L 385.021776 139.349807 
L 385.021776 139.635307 
L 386.138974 139.55933 
L 386.138974 140.294709 
L 386.697573 140.294709 
L 386.697573 140.568095 
L 387.814772 140.606504 
L 387.814772 140.244879 
L 388.93197 140.17862 
L 388.93197 139.598625 
L 389.490569 139.598625 
L 389.490569 138.530223 
L 390.049168 138.530223 
L 390.049168 138.934303 
L 390.607768 138.934303 
L 390.607768 139.22649 
L 391.166367 139.22649 
L 391.166367 138.281024 
L 391.724966 138.281024 
L 391.724966 137.359231 
L 392.283565 137.359231 
L 392.283565 137.872672 
L 392.842164 137.872672 
L 392.842164 136.874482 
L 393.959363 136.837591 
L 393.959363 133.8075 
L 394.517962 133.8075 
L 394.517962 135.569914 
L 395.076561 135.569914 
L 395.076561 136.23916 
L 396.19376 136.237635 
L 396.19376 135.324686 
L 396.752359 135.324686 
L 396.752359 134.967848 
L 397.310958 134.967848 
L 397.310958 135.364872 
L 397.869557 135.364872 
L 397.869557 135.82251 
L 398.986756 135.916893 
L 398.986756 137.37612 
L 399.545355 137.37612 
L 399.545355 136.682881 
L 400.103954 136.682881 
L 400.103954 137.079736 
L 400.662553 137.079736 
L 400.662553 137.82824 
L 401.221152 137.82824 
L 401.221152 139.660394 
L 401.779752 139.660394 
L 401.779752 140.313195 
L 402.338351 140.313195 
L 402.338351 140.601816 
L 402.89695 140.601816 
L 402.89695 140.175864 
L 403.455549 140.175864 
L 403.455549 140.328921 
L 404.014148 140.328921 
L 404.014148 140.075049 
L 404.572748 140.075049 
L 404.572748 139.20279 
L 405.131347 139.20279 
L 405.131347 139.348923 
L 405.689946 139.348923 
L 405.689946 140.141899 
L 406.248545 140.141899 
L 406.248545 140.295633 
L 406.807144 140.295633 
L 406.807144 140.118981 
L 407.924343 140.103411 
L 407.924343 139.668464 
L 408.482942 139.668464 
L 408.482942 139.319792 
L 410.15874 139.385173 
L 410.15874 138.981129 
L 410.717339 138.981129 
L 410.717339 138.747172 
L 411.275938 138.747172 
L 411.275938 138.38457 
L 411.834537 138.38457 
L 411.834537 137.372902 
L 412.951736 137.266188 
L 412.951736 136.422142 
L 413.510335 136.422142 
L 413.510335 135.782189 
L 414.068934 135.782189 
L 414.068934 134.202457 
L 414.627533 134.202457 
L 414.627533 133.832649 
L 415.186132 133.832649 
L 415.186132 128.231686 
L 415.744732 128.231686 
L 415.744732 129.903019 
L 416.303331 129.903019 
L 416.303331 129.515382 
L 416.86193 129.515382 
L 416.86193 131.84599 
L 417.420529 131.84599 
L 417.420529 133.243137 
L 417.979128 133.243137 
L 417.979128 132.29328 
L 418.537728 132.29328 
L 418.537728 132.763186 
L 419.096327 132.763186 
L 419.096327 133.198871 
L 419.654926 133.198871 
L 419.654926 130.807902 
L 420.213525 130.807902 
L 420.213525 129.701879 
L 420.772124 129.701879 
L 420.772124 130.604408 
L 421.330724 130.604408 
L 421.330724 129.148352 
L 421.889323 129.148352 
L 421.889323 127.615457 
L 422.447922 127.615457 
L 422.447922 126.640012 
L 423.006521 126.640012 
L 423.006521 125.337533 
L 424.12372 125.382139 
L 424.12372 126.536287 
L 424.682319 126.536287 
L 424.682319 125.70352 
L 425.240918 125.70352 
L 425.240918 127.31721 
L 425.799517 127.31721 
L 425.799517 127.029031 
L 426.358116 127.029031 
L 426.358116 126.807041 
L 427.475315 126.823134 
L 427.475315 125.85954 
L 428.033914 125.85954 
L 428.033914 126.077852 
L 428.592513 126.077852 
L 428.592513 126.964104 
L 429.151112 126.964104 
L 429.151112 129.540893 
L 429.709712 129.540893 
L 429.709712 127.420841 
L 430.268311 127.420841 
L 430.268311 129.269074 
L 430.82691 129.269074 
L 430.82691 128.912192 
L 431.385509 128.912192 
L 431.385509 129.651055 
L 431.944108 129.651055 
L 431.944108 129.999208 
L 432.502708 129.999208 
L 432.502708 129.110258 
L 433.061307 129.110258 
L 433.061307 129.829195 
L 433.619906 129.829195 
L 433.619906 129.597571 
L 434.178505 129.597571 
L 434.178505 129.008287 
L 434.737104 129.008287 
L 434.737104 128.101704 
L 435.295704 128.101704 
L 435.295704 127.439419 
L 435.854303 127.439419 
L 435.854303 126.612946 
L 436.412902 126.612946 
L 436.412902 127.265335 
L 436.971501 127.265335 
L 436.971501 126.849494 
L 437.5301 126.849494 
L 437.5301 127.313215 
L 438.0887 127.313215 
L 438.0887 128.51151 
L 438.647299 128.51151 
L 438.647299 127.836439 
L 439.205898 127.836439 
L 439.205898 127.43289 
L 439.764497 127.43289 
L 439.764497 127.691572 
L 440.323096 127.691572 
L 440.323096 127.514396 
L 440.881696 127.514396 
L 440.881696 127.85385 
L 441.440295 127.85385 
L 441.440295 127.54113 
L 444.79189 127.440926 
L 444.79189 127.400776 
L 445.350489 127.400776 
L 445.350489 127.24492 
L 445.909089 127.24492 
L 445.909089 126.913579 
L 446.467688 126.913579 
L 446.467688 126.652107 
L 447.026287 126.652107 
L 447.026287 126.091042 
L 447.584886 126.091042 
L 447.584886 125.404933 
L 448.143485 125.404933 
L 448.143485 125.983879 
L 448.702085 125.983879 
L 448.702085 125.842768 
L 449.260684 125.842768 
L 449.260684 126.131605 
L 449.819283 126.131605 
L 449.819283 125.564266 
L 450.377882 125.564266 
L 450.377882 125.946407 
L 450.936481 125.946407 
L 450.936481 125.711849 
L 452.05368 125.79625 
L 452.05368 126.647268 
L 452.612279 126.647268 
L 452.612279 126.530513 
L 453.170878 126.530513 
L 453.170878 126.043973 
L 453.729477 126.043973 
L 453.729477 122.665183 
L 454.288077 122.665183 
L 454.288077 122.452749 
L 454.846676 122.452749 
L 454.846676 121.074695 
L 455.405275 121.074695 
L 455.405275 120.494317 
L 455.963874 120.494317 
L 455.963874 120.836804 
L 456.522473 120.836804 
L 456.522473 117.717178 
L 457.081073 117.717178 
L 457.081073 116.847293 
L 457.639672 116.847293 
L 457.639672 115.151511 
L 458.198271 115.151511 
L 458.198271 117.761263 
L 459.315469 117.744125 
L 459.315469 118.165466 
L 459.874069 118.165466 
L 459.874069 117.650749 
L 460.432668 117.650749 
L 460.432668 118.000414 
L 460.991267 118.000414 
L 460.991267 117.468044 
L 461.549866 117.468044 
L 461.549866 118.309651 
L 462.108465 118.309651 
L 462.108465 117.759993 
L 463.225664 117.801623 
L 463.225664 117.477439 
L 463.784263 117.477439 
L 463.784263 117.775873 
L 464.901461 117.856088 
L 464.901461 118.051854 
L 466.01866 118.074077 
L 466.01866 122.501583 
L 466.577259 122.501583 
L 466.577259 120.895657 
L 467.135858 120.895657 
L 467.135858 120.208225 
L 467.694457 120.208225 
L 467.694457 120.411717 
L 468.253057 120.411717 
L 468.253057 121.094765 
L 468.811656 121.094765 
L 468.811656 120.962064 
L 469.370255 120.962064 
L 469.370255 120.719587 
L 469.928854 120.719587 
L 469.928854 120.557296 
L 470.487453 120.557296 
L 470.487453 120.710457 
L 471.046053 120.710457 
L 471.046053 120.940643 
L 472.163251 120.959108 
L 472.163251 119.775577 
L 472.72185 119.775577 
L 472.72185 119.381772 
L 473.280449 119.381772 
L 473.280449 119.166202 
L 473.839049 119.166202 
L 473.839049 119.60615 
L 475.514846 119.611695 
L 475.514846 120.123184 
L 476.073445 120.123184 
L 476.073445 119.949897 
L 476.632045 119.949897 
L 476.632045 119.77907 
L 477.190644 119.77907 
L 477.190644 119.462493 
L 477.749243 119.462493 
L 477.749243 119.663053 
L 478.307842 119.663053 
L 478.307842 119.402009 
L 479.425041 119.40098 
L 479.425041 118.750542 
L 479.98364 118.750542 
L 479.98364 118.586478 
L 480.542239 118.586478 
L 480.542239 118.961213 
L 481.100838 118.961213 
L 481.100838 118.120206 
L 482.218037 118.178416 
L 482.218037 117.091007 
L 482.776636 117.091007 
L 482.776636 116.752346 
L 483.335235 116.752346 
L 483.335235 117.159396 
L 483.893834 117.159396 
L 483.893834 116.363992 
L 484.452433 116.363992 
L 484.452433 116.023846 
L 485.011033 116.023846 
L 485.011033 116.593442 
L 485.569632 116.593442 
L 485.569632 116.311463 
L 486.128231 116.311463 
L 486.128231 115.23528 
L 486.68683 115.23528 
L 486.68683 115.576299 
L 487.804029 115.614405 
L 487.804029 115.854647 
L 488.362628 115.854647 
L 488.362628 115.431381 
L 488.921227 115.431381 
L 488.921227 114.844868 
L 490.038425 114.955203 
L 490.038425 114.676601 
L 490.597025 114.676601 
L 490.597025 114.433603 
L 491.714223 114.490896 
L 491.714223 114.145974 
L 492.272822 114.145974 
L 492.272822 112.942494 
L 492.831421 112.942494 
L 492.831421 111.534489 
L 493.390021 111.534489 
L 493.390021 110.660872 
L 493.94862 110.660872 
L 493.94862 110.040166 
L 494.507219 110.040166 
L 494.507219 108.856407 
L 495.065818 108.856407 
L 495.065818 109.145017 
L 495.624417 109.145017 
L 495.624417 111.115853 
L 496.183017 111.115853 
L 496.183017 114.354302 
L 496.741616 114.354302 
L 496.741616 113.335731 
L 497.300215 113.335731 
L 497.300215 111.206177 
L 497.858814 111.206177 
L 497.858814 111.462763 
L 498.417413 111.462763 
L 498.417413 110.897338 
L 498.976013 110.897338 
L 498.976013 111.010462 
L 500.093211 111.076501 
L 500.093211 109.490336 
L 500.65181 109.490336 
L 500.65181 108.430864 
L 501.210409 108.430864 
L 501.210409 108.051373 
L 501.769009 108.051373 
L 501.769009 109.188535 
L 502.886207 109.112332 
L 502.886207 108.407824 
L 503.444806 108.407824 
L 503.444806 108.090883 
L 504.003405 108.090883 
L 504.003405 106.559144 
L 504.562005 106.559144 
L 504.562005 106.18243 
L 505.120604 106.18243 
L 505.120604 105.452143 
L 505.679203 105.452143 
L 505.679203 103.81482 
L 506.237802 103.81482 
L 506.237802 103.938117 
L 506.796401 103.938117 
L 506.796401 105.430897 
L 507.355001 105.430897 
L 507.355001 104.810292 
L 507.9136 104.810292 
L 507.9136 104.31239 
L 508.472199 104.31239 
L 508.472199 109.830498 
L 509.030798 109.830498 
L 509.030798 106.879115 
L 509.589397 106.879115 
L 509.589397 110.715591 
L 510.147997 110.715591 
L 510.147997 108.289147 
L 510.706596 108.289147 
L 510.706596 108.4172 
L 511.265195 108.4172 
L 511.265195 107.514258 
L 511.823794 107.514258 
L 511.823794 106.493532 
L 512.382393 106.493532 
L 512.382393 105.574016 
L 512.940993 105.574016 
L 512.940993 104.958418 
L 513.499592 104.958418 
L 513.499592 105.818993 
L 514.058191 105.818993 
L 514.058191 105.700181 
L 514.61679 105.700181 
L 514.61679 104.657057 
L 515.733989 104.585359 
L 515.733989 103.798108 
L 516.292588 103.798108 
L 516.292588 103.073969 
L 516.851187 103.073969 
L 516.851187 101.334807 
L 517.409786 101.334807 
L 517.409786 100.32188 
L 517.968385 100.32188 
L 517.968385 98.559223 
L 518.526985 98.559223 
L 518.526985 96.400521 
L 519.085584 96.400521 
L 519.085584 96.973403 
L 520.202782 96.926286 
L 520.202782 94.421969 
L 520.761381 94.421969 
L 520.761381 91.971085 
L 521.319981 91.971085 
L 521.319981 91.752502 
L 522.437179 91.658328 
L 522.437179 90.581649 
L 522.995778 90.581649 
L 522.995778 89.559848 
L 523.554377 89.559848 
L 523.554377 88.317015 
L 524.112977 88.317015 
L 524.112977 86.686475 
L 524.671576 86.686475 
L 524.671576 88.137176 
L 525.230175 88.137176 
L 525.230175 89.994551 
L 525.788774 89.994551 
L 525.788774 88.980174 
L 526.347373 88.980174 
L 526.347373 88.078943 
L 526.905973 88.078943 
L 526.905973 89.790451 
L 527.464572 89.790451 
L 527.464572 89.321264 
L 528.023171 89.321264 
L 528.023171 90.482701 
L 528.58177 90.482701 
L 528.58177 88.989182 
L 529.140369 88.989182 
L 529.140369 89.783454 
L 529.698969 89.783454 
L 529.698969 91.319569 
L 530.816167 91.216476 
L 530.816167 95.475749 
L 531.374766 95.475749 
L 531.374766 91.888129 
L 531.933365 91.888129 
L 531.933365 87.225464 
L 532.491965 87.225464 
L 532.491965 89.271845 
L 533.050564 89.271845 
L 533.050564 87.531626 
L 533.609163 87.531626 
L 533.609163 86.948131 
L 534.167762 86.948131 
L 534.167762 87.492271 
L 534.726361 87.492271 
L 534.726361 84.53268 
L 535.284961 84.53268 
L 535.284961 83.694718 
L 535.84356 83.694718 
L 535.84356 80.59746 
L 536.402159 80.59746 
L 536.402159 78.963954 
L 536.960758 78.963954 
L 536.960758 79.347247 
L 537.519357 79.347247 
L 537.519357 79.964866 
L 538.077957 79.964866 
L 538.077957 78.211415 
L 539.195155 78.17599 
L 539.195155 77.024284 
L 540.312353 77.010247 
L 540.312353 77.953665 
L 540.870953 77.953665 
L 540.870953 78.306644 
L 541.429552 78.306644 
L 541.429552 78.870189 
L 541.988151 78.870189 
L 541.988151 84.491779 
L 542.54675 84.491779 
L 542.54675 81.659829 
L 543.105349 81.659829 
L 543.105349 80.456367 
L 543.663949 80.456367 
L 543.663949 81.099077 
L 544.222548 81.099077 
L 544.222548 80.529513 
L 544.781147 80.529513 
L 544.781147 79.04334 
L 545.339746 79.04334 
L 545.339746 77.910171 
L 545.898345 77.910171 
L 545.898345 78.275749 
L 546.456945 78.275749 
L 546.456945 76.918025 
L 547.015544 76.918025 
L 547.015544 75.948916 
L 547.574143 75.948916 
L 547.574143 71.959561 
L 548.132742 71.959561 
L 548.132742 72.814294 
L 548.691342 72.814294 
L 548.691342 71.386426 
L 549.249941 71.386426 
L 549.249941 71.691149 
L 550.367139 71.729689 
L 550.367139 70.864174 
L 550.925738 70.864174 
L 550.925738 68.847759 
L 551.484338 68.847759 
L 551.484338 67.011613 
L 552.042937 67.011613 
L 552.042937 67.70257 
L 552.601536 67.70257 
L 552.601536 69.426647 
L 553.160135 69.426647 
L 553.160135 69.670799 
L 553.718734 69.670799 
L 553.718734 65.618681 
L 554.277334 65.618681 
L 554.277334 65.139052 
L 554.835933 65.139052 
L 554.835933 64.654585 
L 555.394532 64.654585 
L 555.394532 63.334023 
L 555.953131 63.334023 
L 555.953131 60.733897 
L 556.51173 60.733897 
L 556.51173 58.783297 
L 557.07033 58.783297 
L 557.07033 57.447231 
L 557.628929 57.447231 
L 557.628929 49.541546 
L 558.187528 49.541546 
L 558.187528 51.911888 
L 558.746127 51.911888 
L 558.746127 50.317058 
L 559.304726 50.317058 
L 559.304726 46.713271 
L 559.863326 46.713271 
L 559.863326 48.898264 
L 560.421925 48.898264 
L 560.421925 53.803441 
L 561.539123 53.858133 
L 561.539123 53.144067 
L 562.097722 53.144067 
L 562.097722 53.77377 
L 562.656322 53.77377 
L 562.656322 51.953522 
L 563.214921 51.953522 
L 563.214921 49.175554 
L 563.77352 49.175554 
L 563.77352 52.815068 
L 564.332119 52.815068 
L 564.332119 53.781126 
L 564.890718 53.781126 
L 564.890718 54.146887 
L 565.449318 54.146887 
L 565.449318 58.219025 
L 566.007917 58.219025 
L 566.007917 57.589304 
L 566.566516 57.589304 
L 566.566516 57.812907 
L 567.683714 57.740182 
L 567.683714 60.388954 
L 568.242314 60.388954 
L 568.242314 63.133064 
L 568.800913 63.133064 
L 568.800913 68.312581 
L 569.359512 68.312581 
L 569.359512 64.633184 
L 569.918111 64.633184 
L 569.918111 65.091147 
L 570.47671 65.091147 
L 570.47671 61.707478 
L 571.03531 61.707478 
L 571.03531 58.387694 
L 571.593909 58.387694 
L 571.593909 58.085114 
L 572.152508 58.085114 
L 572.152508 60.20401 
L 572.711107 60.20401 
L 572.711107 59.898932 
L 573.269706 59.898932 
L 573.269706 58.684176 
L 573.828306 58.684176 
L 573.828306 57.583057 
L 574.386905 57.583057 
L 574.386905 60.730792 
L 574.945504 60.730792 
L 574.945504 63.313415 
L 575.504103 63.313415 
L 575.504103 62.428146 
L 576.062702 62.428146 
L 576.062702 64.498494 
L 576.621302 64.498494 
L 576.621302 63.730251 
L 577.179901 63.730251 
L 577.179901 63.438767 
L 577.7385 63.438767 
L 577.7385 64.095419 
L 578.297099 64.095419 
L 578.297099 65.400403 
L 578.855698 65.400403 
L 578.855698 68.275755 
L 579.414298 68.275755 
L 579.414298 66.839079 
L 579.972897 66.839079 
L 579.972897 69.217473 
L 580.531496 69.217473 
L 580.531496 68.746676 
L 581.090095 68.746676 
L 581.090095 65.424695 
L 581.648694 65.424695 
L 581.648694 64.320748 
L 582.207294 64.320748 
L 582.207294 64.810781 
L 582.765893 64.810781 
L 582.765893 62.948312 
L 583.324492 62.948312 
L 583.324492 61.296193 
L 583.883091 61.296193 
L 583.883091 62.953155 
L 584.44169 62.953155 
L 584.44169 62.230846 
L 585.00029 62.230846 
L 585.00029 61.089181 
L 585.558889 61.089181 
L 585.558889 61.354528 
L 586.117488 61.354528 
L 586.117488 62.069764 
L 586.676087 62.069764 
L 586.676087 64.081555 
L 587.793286 64.06277 
L 587.793286 64.648541 
L 588.351885 64.648541 
L 588.351885 64.248946 
L 588.910484 64.248946 
L 588.910484 66.416393 
L 589.469083 66.416393 
L 589.469083 67.073077 
L 590.027682 67.073077 
L 590.027682 66.952326 
L 590.586282 66.952326 
L 590.586282 66.248999 
L 592.262079 66.308749 
L 592.262079 68.453631 
L 592.820678 68.453631 
L 592.820678 69.208795 
L 593.379278 69.208795 
L 593.379278 69.826794 
L 593.937877 69.826794 
L 593.937877 68.820126 
L 594.496476 68.820126 
L 594.496476 70.747714 
L 595.055075 70.747714 
L 595.055075 70.998779 
L 595.613674 70.998779 
L 595.613674 70.567898 
L 596.172274 70.567898 
L 596.172274 69.24369 
L 596.730873 69.24369 
L 596.730873 69.47072 
L 597.289472 69.47072 
L 597.289472 68.935236 
L 597.848071 68.935236 
L 597.848071 69.966712 
L 598.40667 69.966712 
L 598.40667 70.481431 
L 598.96527 70.481431 
L 598.96527 67.139072 
L 600.082468 67.100583 
L 600.082468 66.034742 
L 600.641067 66.034742 
L 600.641067 65.429079 
L 601.199666 65.429079 
L 601.199666 64.695116 
L 601.758266 64.695116 
L 601.758266 66.330478 
L 602.316865 66.330478 
L 602.316865 68.052767 
L 602.875464 68.052767 
L 602.875464 68.953472 
L 603.434063 68.953472 
L 603.434063 70.855684 
L 603.992662 70.855684 
L 603.992662 70.470327 
L 604.551262 70.470327 
L 604.551262 70.266767 
L 605.109861 70.266767 
L 605.109861 69.693715 
L 605.66846 69.693715 
L 605.66846 70.127474 
L 606.227059 70.127474 
L 606.227059 68.890638 
L 606.785658 68.890638 
L 606.785658 67.852399 
L 607.344258 67.852399 
L 607.344258 68.030213 
L 607.902857 68.030213 
L 607.902857 67.302614 
L 608.461456 67.302614 
L 608.461456 69.646253 
L 609.020055 69.646253 
L 609.020055 70.507983 
L 609.578654 70.507983 
L 609.578654 70.222402 
L 610.137254 70.222402 
L 610.137254 69.577573 
L 610.695853 69.577573 
L 610.695853 70.167948 
L 611.254452 70.167948 
L 611.254452 68.834827 
L 611.813051 68.834827 
L 611.813051 69.380999 
L 612.37165 69.380999 
L 612.37165 69.054669 
L 612.93025 69.054669 
L 612.93025 69.292838 
L 613.488849 69.292838 
L 613.488849 69.702986 
L 614.047448 69.702986 
L 614.047448 69.412522 
L 614.606047 69.412522 
L 614.606047 69.242385 
L 615.164646 69.242385 
L 615.164646 70.487643 
L 615.723246 70.487643 
L 615.723246 69.330686 
L 616.281845 69.330686 
L 616.281845 69.618949 
L 617.957642 69.683343 
L 617.957642 69.789451 
L 618.516242 69.789451 
L 618.516242 70.304028 
L 619.074841 70.304028 
L 619.074841 70.008793 
L 619.63344 70.008793 
L 619.63344 69.853091 
L 621.309238 69.949093 
L 621.309238 72.211709 
L 621.867837 72.211709 
L 621.867837 72.898247 
L 622.426436 72.898247 
L 622.426436 77.445264 
L 622.985035 77.445264 
L 622.985035 78.108373 
L 623.543634 78.108373 
L 623.543634 81.011416 
L 624.102234 81.011416 
L 624.102234 78.47112 
L 624.660833 78.47112 
L 624.660833 79.163593 
L 625.219432 79.163593 
L 625.219432 81.282146 
L 625.778031 81.282146 
L 625.778031 82.990536 
L 626.33663 82.990536 
L 626.33663 83.275758 
L 626.89523 83.275758 
L 626.89523 84.322 
L 627.453829 84.322 
L 627.453829 82.371292 
L 628.012428 82.371292 
L 628.012428 79.191175 
L 628.571027 79.191175 
L 628.571027 79.917871 
L 629.129626 79.917871 
L 629.129626 80.708507 
L 629.688226 80.708507 
L 629.688226 81.139659 
L 630.246825 81.139659 
L 630.246825 80.666502 
L 631.364023 80.662454 
L 631.364023 79.722978 
L 631.922622 79.722978 
L 631.922622 81.845768 
L 632.481222 81.845768 
L 632.481222 82.517597 
L 633.039821 82.517597 
L 633.039821 81.989859 
L 633.59842 81.989859 
L 633.59842 81.514378 
L 634.157019 81.514378 
L 634.157019 82.189326 
L 635.274218 82.24562 
L 635.274218 83.021589 
L 636.950015 82.976125 
L 636.950015 83.285543 
L 637.508614 83.285543 
L 637.508614 81.741134 
L 638.067214 81.741134 
L 638.067214 81.925936 
L 638.625813 81.925936 
L 638.625813 82.067069 
L 639.184412 82.067069 
L 639.184412 80.368148 
L 639.743011 80.368148 
L 639.743011 80.185107 
L 640.30161 80.185107 
L 640.30161 81.159083 
L 640.86021 81.159083 
L 640.86021 80.790788 
L 641.977408 80.800642 
L 641.977408 80.577129 
L 644.211805 80.506641 
L 644.211805 79.919191 
L 644.770404 79.919191 
L 644.770404 79.597007 
L 645.329003 79.597007 
L 645.329003 79.82961 
L 645.887602 79.82961 
L 645.887602 80.169818 
L 646.446202 80.169818 
L 646.446202 79.291608 
L 647.004801 79.291608 
L 647.004801 79.102898 
L 647.5634 79.102898 
L 647.5634 75.562809 
L 648.121999 75.562809 
L 648.121999 74.400637 
L 648.680598 74.400637 
L 648.680598 73.915227 
L 649.239198 73.915227 
L 649.239198 74.914051 
L 649.797797 74.914051 
L 649.797797 74.371144 
L 650.356396 74.371144 
L 650.356396 74.047296 
L 650.914995 74.047296 
L 650.914995 73.650679 
L 651.473595 73.650679 
L 651.473595 74.375366 
L 652.032194 74.375366 
L 652.032194 73.950574 
L 653.149392 73.849818 
L 653.149392 72.159334 
L 654.266591 72.215557 
L 654.266591 70.14923 
L 654.82519 70.14923 
L 654.82519 65.741451 
L 655.383789 65.741451 
L 655.383789 65.572645 
L 655.942388 65.572645 
L 655.942388 64.765057 
L 656.500987 64.765057 
L 656.500987 66.279987 
L 657.059587 66.279987 
L 657.059587 65.082181 
L 657.618186 65.082181 
L 657.618186 63.452044 
L 658.176785 63.452044 
L 658.176785 63.857692 
L 658.735384 63.857692 
L 658.735384 64.916941 
L 659.293983 64.916941 
L 659.293983 65.795128 
L 659.852583 65.795128 
L 659.852583 66.239416 
L 660.411182 66.239416 
L 660.411182 64.818265 
L 660.969781 64.818265 
L 660.969781 63.117009 
L 661.52838 63.117009 
L 661.52838 62.607194 
L 662.086979 62.607194 
L 662.086979 60.125177 
L 662.645579 60.125177 
L 662.645579 58.518126 
L 663.204178 58.518126 
L 663.204178 58.298406 
L 663.762777 58.298406 
L 663.762777 59.060741 
L 664.321376 59.060741 
L 664.321376 56.742879 
L 664.879975 56.742879 
L 664.879975 58.11128 
L 665.438575 58.11128 
L 665.438575 55.708939 
L 665.997174 55.708939 
L 665.997174 57.063537 
L 666.555773 57.063537 
L 666.555773 58.795671 
L 667.114372 58.795671 
L 667.114372 59.256481 
L 668.231571 59.358155 
L 668.231571 61.048514 
L 668.79017 61.048514 
L 668.79017 61.702244 
L 669.348769 61.702244 
L 669.348769 61.447405 
L 669.907368 61.447405 
L 669.907368 59.47376 
L 670.465967 59.47376 
L 670.465967 57.092116 
L 671.024567 57.092116 
L 671.024567 56.722383 
L 671.583166 56.722383 
L 671.583166 57.491649 
L 672.141765 57.491649 
L 672.141765 60.526575 
L 672.700364 60.526575 
L 672.700364 60.114559 
L 673.258963 60.114559 
L 673.258963 59.015935 
L 673.817563 59.015935 
L 673.817563 59.723142 
L 674.934761 59.815649 
L 674.934761 61.678743 
L 675.49336 61.678743 
L 675.49336 61.053652 
L 676.051959 61.053652 
L 676.051959 59.364632 
L 676.610559 59.364632 
L 676.610559 59.55876 
L 677.169158 59.55876 
L 677.169158 60.350261 
L 677.727757 60.350261 
L 677.727757 59.808279 
L 678.286356 59.808279 
L 678.286356 60.009265 
L 679.403555 59.988211 
L 679.403555 60.492717 
L 679.962154 60.492717 
L 679.962154 64.159693 
L 680.520753 64.159693 
L 680.520753 64.684623 
L 681.079352 64.684623 
L 681.079352 64.434955 
L 681.637951 64.434955 
L 681.637951 64.86369 
L 682.196551 64.86369 
L 682.196551 64.717942 
L 682.75515 64.717942 
L 682.75515 63.776241 
L 683.313749 63.776241 
L 683.313749 64.534448 
L 683.872348 64.534448 
L 683.872348 65.26314 
L 684.430947 65.26314 
L 684.430947 65.375396 
L 684.989547 65.375396 
L 684.989547 65.199309 
L 685.548146 65.199309 
L 685.548146 63.580877 
L 686.106745 63.580877 
L 686.106745 62.278368 
L 686.665344 62.278368 
L 686.665344 62.440964 
L 687.223943 62.440964 
L 687.223943 62.307221 
L 687.782543 62.307221 
L 687.782543 61.995191 
L 688.341142 61.995191 
L 688.341142 63.236549 
L 689.45834 63.255452 
L 689.45834 64.096092 
L 690.016939 64.096092 
L 690.016939 64.810703 
L 690.575539 64.810703 
L 690.575539 66.304511 
L 691.134138 66.304511 
L 691.134138 68.367666 
L 691.692737 68.367666 
L 691.692737 66.564339 
L 692.809935 66.469528 
L 692.809935 67.210794 
L 693.368535 67.210794 
L 693.368535 66.498941 
L 693.927134 66.498941 
L 693.927134 67.093596 
L 694.485733 67.093596 
L 694.485733 67.524227 
L 695.044332 67.524227 
L 695.044332 67.754422 
L 695.602931 67.754422 
L 695.602931 67.246907 
L 696.161531 67.246907 
L 696.161531 67.659526 
L 696.72013 67.659526 
L 696.72013 67.344441 
L 698.395927 67.435092 
L 698.395927 68.255178 
L 698.954527 68.255178 
L 698.954527 67.052952 
L 699.513126 67.052952 
L 699.513126 65.157588 
L 700.630324 65.213165 
L 700.630324 63.157647 
L 701.188923 63.157647 
L 701.188923 63.019914 
L 701.747523 63.019914 
L 701.747523 63.67925 
L 702.306122 63.67925 
L 702.306122 64.270363 
L 702.864721 64.270363 
L 702.864721 63.772507 
L 703.42332 63.772507 
L 703.42332 62.139123 
L 703.981919 62.139123 
L 703.981919 61.916876 
L 704.540519 61.916876 
L 704.540519 62.408335 
L 705.099118 62.408335 
L 705.099118 60.972295 
L 706.216316 60.870905 
L 706.216316 60.056995 
L 706.774915 60.056995 
L 706.774915 60.694227 
L 707.333515 60.694227 
L 707.333515 61.413135 
L 707.892114 61.413135 
L 707.892114 61.271045 
L 708.450713 61.271045 
L 708.450713 62.072529 
L 709.009312 62.072529 
L 709.009312 63.470269 
L 709.567911 63.470269 
L 709.567911 62.990354 
L 710.126511 62.990354 
L 710.126511 62.627635 
L 710.68511 62.627635 
L 710.68511 65.166167 
L 711.243709 65.166167 
L 711.243709 65.437476 
L 711.802308 65.437476 
L 711.802308 74.494876 
L 712.360907 74.494876 
L 712.360907 73.727636 
L 712.919507 73.727636 
L 712.919507 70.557189 
L 713.478106 70.557189 
L 713.478106 69.643106 
L 714.036705 69.643106 
L 714.036705 68.811016 
L 714.595304 68.811016 
L 714.595304 71.745491 
L 715.153903 71.745491 
L 715.153903 69.159714 
L 715.712503 69.159714 
L 715.712503 68.477012 
L 716.271102 68.477012 
L 716.271102 67.476187 
L 716.829701 67.476187 
L 716.829701 68.472254 
L 717.946899 68.520128 
L 717.946899 67.75107 
L 719.622697 67.695616 
L 719.622697 66.49243 
L 720.181296 66.49243 
L 720.181296 65.89784 
L 720.739895 65.89784 
L 720.739895 63.200061 
L 721.298495 63.200061 
L 721.298495 63.054097 
L 721.857094 63.054097 
L 721.857094 60.557093 
L 722.415693 60.557093 
L 722.415693 63.36855 
L 722.974292 63.36855 
L 722.974292 62.079827 
L 723.532891 62.079827 
L 723.532891 61.899764 
L 724.091491 61.899764 
L 724.091491 61.019239 
L 724.65009 61.019239 
L 724.65009 62.396549 
L 725.208689 62.396549 
L 725.208689 63.021526 
L 725.767288 63.021526 
L 725.767288 61.491274 
L 726.325887 61.491274 
L 726.325887 61.753856 
L 726.884487 61.753856 
L 726.884487 61.296345 
L 728.001685 61.269299 
L 728.001685 61.042081 
L 728.560284 61.042081 
L 728.560284 61.733486 
L 729.677483 61.80781 
L 729.677483 61.912512 
L 730.236082 61.912512 
L 730.236082 62.127828 
L 731.35328 62.146467 
L 731.35328 62.775095 
L 731.911879 62.775095 
L 731.911879 62.473297 
L 732.470479 62.473297 
L 732.470479 62.615935 
L 733.029078 62.615935 
L 733.029078 61.982618 
L 733.587677 61.982618 
L 733.587677 62.234294 
L 734.146276 62.234294 
L 734.146276 62.102577 
L 734.704875 62.102577 
L 734.704875 62.336228 
L 735.822074 62.379412 
L 735.822074 61.884126 
L 736.380673 61.884126 
L 736.380673 61.530839 
L 736.939272 61.530839 
L 736.939272 58.470502 
L 737.497871 58.470502 
L 737.497871 58.33239 
L 738.61507 58.403038 
L 738.61507 57.15971 
L 739.732268 57.128637 
L 739.732268 57.812166 
L 740.290867 57.812166 
L 740.290867 57.116486 
L 740.849467 57.116486 
L 740.849467 56.205929 
L 741.408066 56.205929 
L 741.408066 56.953288 
L 741.966665 56.953288 
L 741.966665 57.335054 
L 742.525264 57.335054 
L 742.525264 57.67385 
L 743.642463 57.647615 
L 743.642463 56.85143 
L 744.201062 56.85143 
L 744.201062 59.59766 
L 744.759661 59.59766 
L 744.759661 59.800464 
L 746.435459 59.875824 
L 746.435459 58.650796 
L 746.994058 58.650796 
L 746.994058 58.396069 
L 747.552657 58.396069 
L 747.552657 59.468412 
L 748.111256 59.468412 
L 748.111256 59.149119 
L 749.228455 59.150125 
L 749.228455 59.294827 
L 750.904252 59.192647 
L 750.904252 57.979038 
L 751.462851 57.979038 
L 751.462851 57.745959 
L 752.021451 57.745959 
L 752.021451 57.932614 
L 752.58005 57.932614 
L 752.58005 57.145568 
L 753.138649 57.145568 
L 753.138649 55.043318 
L 754.255848 54.967905 
L 754.255848 54.563647 
L 754.814447 54.563647 
L 754.814447 53.751884 
L 755.373046 53.751884 
L 755.373046 53.429014 
L 755.931645 53.429014 
L 755.931645 51.186958 
L 756.490244 51.186958 
L 756.490244 51.55158 
L 757.048844 51.55158 
L 757.048844 50.26098 
L 757.607443 50.26098 
L 757.607443 50.689156 
L 758.166042 50.689156 
L 758.166042 48.399932 
L 758.724641 48.399932 
L 758.724641 47.357816 
L 759.28324 47.357816 
L 759.28324 46.831095 
L 759.84184 46.831095 
L 759.84184 49.196567 
L 760.400439 49.196567 
L 760.400439 46.248119 
L 760.959038 46.248119 
L 760.959038 46.523041 
L 762.076236 46.606573 
L 762.076236 47.522717 
L 762.634836 47.522717 
L 762.634836 47.241162 
L 763.193435 47.241162 
L 763.193435 46.539085 
L 763.752034 46.539085 
L 763.752034 42.853427 
L 764.310633 42.853427 
L 764.310633 43.226034 
L 764.869232 43.226034 
L 764.869232 42.344988 
L 765.427832 42.344988 
L 765.427832 40.205737 
L 765.986431 40.205737 
L 765.986431 38.205781 
L 766.54503 38.205781 
L 766.54503 35.896043 
L 767.103629 35.896043 
L 767.103629 34.716634 
L 767.662228 34.716634 
L 767.662228 30.966513 
L 768.220828 30.966513 
L 768.220828 33.808123 
L 768.779427 33.808123 
L 768.779427 31.765632 
L 769.338026 31.765632 
L 769.338026 33.661405 
L 769.896625 33.661405 
L 769.896625 33.811661 
L 770.455224 33.811661 
L 770.455224 35.958857 
L 771.013824 35.958857 
L 771.013824 35.670317 
L 771.572423 35.670317 
L 771.572423 34.551478 
L 772.131022 34.551478 
L 772.131022 35.043695 
L 772.689621 35.043695 
L 772.689621 32.960558 
L 773.24822 32.960558 
L 773.24822 31.890107 
L 773.80682 31.890107 
L 773.80682 28.889516 
L 774.365419 28.889516 
L 774.365419 27.832004 
L 774.924018 27.832004 
L 774.924018 26.967021 
L 775.482617 26.967021 
L 775.482617 24.250339 
L 776.041216 24.250339 
L 776.041216 24.937918 
L 776.599816 24.937918 
L 776.599816 28.004736 
L 777.158415 28.004736 
L 777.158415 28.778986 
L 777.717014 28.778986 
L 777.717014 26.409046 
L 778.275613 26.409046 
L 778.275613 27.086877 
L 778.834212 27.086877 
L 778.834212 24.644472 
L 779.392812 24.644472 
L 779.392812 23.751937 
L 779.951411 23.751937 
L 779.951411 24.311463 
L 780.51001 24.311463 
L 780.51001 23.600445 
L 781.627208 23.69384 
L 781.627208 25.577057 
L 782.185808 25.577057 
L 782.185808 24.270182 
L 782.744407 24.270182 
L 782.744407 23.214666 
L 783.861605 23.106754 
L 783.861605 23.098615 
L 784.420204 23.098615 
L 784.420204 23.460908 
L 784.978804 23.460908 
L 784.978804 22.775742 
L 785.537403 22.775742 
L 785.537403 21.744453 
L 786.096002 21.744453 
L 786.096002 22.732788 
L 786.654601 22.732788 
L 786.654601 24.028385 
L 787.2132 24.028385 
L 787.2132 26.128638 
L 787.7718 26.128638 
L 787.7718 24.963955 
L 788.330399 24.963955 
L 788.330399 25.149159 
L 788.888998 25.149159 
L 788.888998 23.990135 
L 789.447597 23.990135 
L 789.447597 23.671048 
L 790.006196 23.671048 
L 790.006196 23.14342 
L 790.564796 23.14342 
L 790.564796 23.9382 
L 791.123395 23.9382 
L 791.123395 26.642356 
L 791.681994 26.642356 
L 791.681994 29.50089 
L 792.240593 29.50089 
L 792.240593 30.907427 
L 792.799192 30.907427 
L 792.799192 34.282521 
L 793.357792 34.282521 
L 793.357792 31.70776 
L 793.916391 31.70776 
L 793.916391 34.347491 
L 794.47499 34.347491 
L 794.47499 33.154982 
L 795.033589 33.154982 
L 795.033589 33.027129 
L 795.592188 33.027129 
L 795.592188 35.048749 
L 796.150788 35.048749 
L 796.150788 33.130869 
L 796.709387 33.130869 
L 796.709387 31.815065 
L 797.267986 31.815065 
L 797.267986 32.219569 
L 797.826585 32.219569 
L 797.826585 33.820454 
L 798.385184 33.820454 
L 798.385184 35.731479 
L 798.943784 35.731479 
L 798.943784 36.262796 
L 799.502383 36.262796 
L 799.502383 34.464108 
L 800.060982 34.464108 
L 800.060982 35.034899 
L 800.619581 35.034899 
L 800.619581 33.948442 
L 801.17818 33.948442 
L 801.17818 34.84568 
L 801.73678 34.84568 
L 801.73678 35.048308 
L 802.295379 35.048308 
L 802.295379 35.576681 
L 802.853978 35.576681 
L 802.853978 36.409541 
L 803.412577 36.409541 
L 803.412577 36.819907 
L 803.971176 36.819907 
L 803.971176 35.829033 
L 804.529776 35.829033 
L 804.529776 33.91507 
L 805.088375 33.91507 
L 805.088375 31.31574 
L 805.646974 31.31574 
L 805.646974 30.459746 
L 806.205573 30.459746 
L 806.205573 32.322684 
L 806.764172 32.322684 
L 806.764172 29.876961 
L 807.322772 29.876961 
L 807.322772 28.216282 
L 807.881371 28.216282 
L 807.881371 29.10705 
L 808.43997 29.10705 
L 808.43997 27.889659 
L 808.998569 27.889659 
L 808.998569 28.936722 
L 809.557168 28.936722 
L 809.557168 27.065124 
L 810.115768 27.065124 
L 810.115768 27.583378 
L 810.674367 27.583378 
L 810.674367 27.011371 
L 811.232966 27.011371 
L 811.232966 27.881429 
L 811.791565 27.881429 
L 811.791565 26.894661 
L 812.350164 26.894661 
L 812.350164 25.87614 
L 812.908764 25.87614 
L 812.908764 28.332743 
L 813.467363 28.332743 
L 813.467363 28.764556 
L 814.025962 28.764556 
L 814.025962 27.882617 
L 815.14316 27.796977 
L 815.14316 29.839749 
L 815.70176 29.839749 
L 815.70176 28.884445 
L 816.260359 28.884445 
L 816.260359 29.701989 
L 816.818958 29.701989 
L 816.818958 30.529074 
L 817.377557 30.529074 
L 817.377557 27.591103 
L 817.936156 27.591103 
L 817.936156 25.98368 
L 818.494756 25.98368 
L 818.494756 25.037976 
L 819.053355 25.037976 
L 819.053355 23.678838 
L 820.170553 23.698775 
L 820.170553 22.226627 
L 820.729152 22.226627 
L 820.729152 20.732418 
L 821.287752 20.732418 
L 821.287752 22.319009 
L 821.846351 22.319009 
L 821.846351 22.642373 
L 822.40495 22.642373 
L 822.40495 21.987038 
L 822.963549 21.987038 
L 822.963549 22.404485 
L 823.522148 22.404485 
L 823.522148 22.262435 
L 824.080748 22.262435 
L 824.080748 21.636151 
L 824.639347 21.636151 
L 824.639347 21.082361 
L 825.197946 21.082361 
L 825.197946 21.263585 
L 825.756545 21.263585 
L 825.756545 22.702907 
L 826.315144 22.702907 
L 826.315144 23.430247 
L 826.873744 23.430247 
L 826.873744 24.105578 
L 827.432343 24.105578 
L 827.432343 23.141043 
L 827.990942 23.141043 
L 827.990942 23.737572 
L 829.10814 23.760605 
L 829.10814 26.926824 
L 829.66674 26.926824 
L 829.66674 26.339072 
L 830.225339 26.339072 
L 830.225339 27.853354 
L 830.783938 27.853354 
L 830.783938 28.024276 
L 831.342537 28.024276 
L 831.342537 27.6215 
L 831.901136 27.6215 
L 831.901136 28.054893 
L 832.459736 28.054893 
L 832.459736 27.196453 
L 833.018335 27.196453 
L 833.018335 26.411892 
L 833.576934 26.411892 
L 833.576934 27.646799 
L 834.135533 27.646799 
L 834.135533 28.254517 
L 835.252732 28.166925 
L 835.252732 29.7323 
L 835.811331 29.7323 
L 835.811331 30.355997 
L 836.36993 30.355997 
L 836.36993 29.341921 
L 836.928529 29.341921 
L 836.928529 29.719632 
L 837.487128 29.719632 
L 837.487128 30.097051 
L 838.045728 30.097051 
L 838.045728 33.259846 
L 838.604327 33.259846 
L 838.604327 33.145674 
L 839.162926 33.145674 
L 839.162926 32.878187 
L 839.721525 32.878187 
L 839.721525 32.444384 
L 840.280124 32.444384 
L 840.280124 33.011595 
L 840.838724 33.011595 
L 840.838724 30.573296 
L 841.397323 30.573296 
L 841.397323 29.242607 
L 841.955922 29.242607 
L 841.955922 30.087202 
L 843.07312 29.997999 
L 843.07312 31.020819 
L 843.63172 31.020819 
L 843.63172 32.18797 
L 844.190319 32.18797 
L 844.190319 32.79621 
L 844.748918 32.79621 
L 844.748918 31.795046 
L 845.307517 31.795046 
L 845.307517 29.106552 
L 845.866116 29.106552 
L 845.866116 31.774911 
L 846.424716 31.774911 
L 846.424716 32.381122 
L 846.983315 32.381122 
L 846.983315 31.615634 
L 847.541914 31.615634 
L 847.541914 32.499105 
L 848.100513 32.499105 
L 848.100513 30.727796 
L 848.659112 30.727796 
L 848.659112 30.176424 
L 849.776311 30.101436 
L 849.776311 29.146722 
L 850.33491 29.146722 
L 850.33491 27.862992 
L 850.893509 27.862992 
L 850.893509 28.581041 
L 851.452108 28.581041 
L 851.452108 28.174408 
L 852.010708 28.174408 
L 852.010708 29.698301 
L 852.569307 29.698301 
L 852.569307 29.895817 
L 853.127906 29.895817 
L 853.127906 31.263243 
L 853.686505 31.263243 
L 853.686505 31.020554 
L 854.245104 31.020554 
L 854.245104 30.896361 
L 854.803704 30.896361 
L 854.803704 31.047712 
L 855.362303 31.047712 
L 855.362303 31.600832 
L 855.920902 31.600832 
L 855.920902 31.716766 
L 856.479501 31.716766 
L 856.479501 32.588093 
L 857.5967 32.551156 
L 857.5967 33.532124 
L 858.155299 33.532124 
L 858.155299 37.262813 
L 858.713898 37.262813 
L 858.713898 38.15135 
L 859.272497 38.15135 
L 859.272497 36.506322 
L 859.831097 36.506322 
L 859.831097 38.334562 
L 860.389696 38.334562 
L 860.389696 37.805091 
L 860.948295 37.805091 
L 860.948295 37.64456 
L 861.506894 37.64456 
L 861.506894 38.40978 
L 862.065493 38.40978 
L 862.065493 36.21285 
L 862.624093 36.21285 
L 862.624093 37.085866 
L 863.182692 37.085866 
L 863.182692 37.455497 
L 863.741291 37.455497 
L 863.741291 37.253349 
L 864.29989 37.253349 
L 864.29989 38.583512 
L 864.858489 38.583512 
L 864.858489 43.748301 
L 865.417089 43.748301 
L 865.417089 45.486038 
L 865.975688 45.486038 
L 865.975688 45.334271 
L 866.534287 45.334271 
L 866.534287 44.821905 
L 867.651485 44.8903 
L 867.651485 45.849254 
L 868.210085 45.849254 
L 868.210085 46.773703 
L 868.768684 46.773703 
L 868.768684 45.748688 
L 869.327283 45.748688 
L 869.327283 44.28056 
L 869.885882 44.28056 
L 869.885882 45.996407 
L 870.444481 45.996407 
L 870.444481 45.348 
L 871.003081 45.348 
L 871.003081 45.138452 
L 871.56168 45.138452 
L 871.56168 42.783895 
L 872.120279 42.783895 
L 872.120279 43.49089 
L 872.678878 43.49089 
L 872.678878 44.643565 
L 873.237477 44.643565 
L 873.237477 42.277074 
L 873.796077 42.277074 
L 873.796077 42.718857 
L 874.354676 42.718857 
L 874.354676 43.353651 
L 874.913275 43.353651 
L 874.913275 42.83206 
L 875.471874 42.83206 
L 875.471874 42.128705 
L 876.030473 42.128705 
L 876.030473 41.704035 
L 876.589073 41.704035 
L 876.589073 42.202468 
L 877.147672 42.202468 
L 877.147672 45.06851 
L 877.706271 45.06851 
L 877.706271 44.509485 
L 878.26487 44.509485 
L 878.26487 44.318152 
L 878.823469 44.318152 
L 878.823469 46.419705 
L 879.382069 46.419705 
L 879.382069 45.889466 
L 879.940668 45.889466 
L 879.940668 46.114527 
L 880.499267 46.114527 
L 880.499267 47.237505 
L 881.057866 47.237505 
L 881.057866 44.52462 
L 881.616465 44.52462 
L 881.616465 43.555785 
L 882.175065 43.555785 
L 882.175065 46.264223 
L 882.733664 46.264223 
L 882.733664 46.565027 
L 883.292263 46.565027 
L 883.292263 47.575984 
L 883.850862 47.575984 
L 883.850862 47.097653 
L 884.409461 47.097653 
L 884.409461 46.905641 
L 884.968061 46.905641 
L 884.968061 46.552709 
L 885.52666 46.552709 
L 885.52666 46.330825 
L 886.085259 46.330825 
L 886.085259 45.985643 
L 886.643858 45.985643 
L 886.643858 46.583018 
L 887.194182 46.583018 
L 887.194182 46.583018 
" clip-path="url(#pbae23891d0)" style="fill: none; stroke: #3572c6; stroke-width: 1.2; stroke-linecap: square"/>
   </g>
   <g id="line2d_74">
    <path d="M 75.557818 20.732418 
L 887.194182 20.732418 
L 887.194182 20.732418 
" clip-path="url(#pbae23891d0)" style="fill: none; stroke: #83a83b; stroke-width: 1.2; stroke-linecap: square"/>
   </g>
   <g id="line2d_75">
    <path d="M 75.557818 47.575984 
L 887.194182 47.575984 
L 887.194182 47.575984 
" clip-path="url(#pbae23891d0)" style="fill: none; stroke: #c44e52; stroke-width: 1.2; stroke-linecap: square"/>
   </g>
   <g id="line2d_76">
    <path d="M 821.287752 301.139691 
L 821.287752 7.379691 
" clip-path="url(#pbae23891d0)" style="fill: none; stroke: #83a83b; stroke-width: 1.2; stroke-linecap: square"/>
   </g>
   <g id="line2d_77">
    <path d="M 883.850862 301.139691 
L 883.850862 7.379691 
" clip-path="url(#pbae23891d0)" style="fill: none; stroke: #c44e52; stroke-width: 1.2; stroke-linecap: square"/>
   </g>
   <g id="patch_3">
    <path d="M 34.976 301.139691 
L 34.976 7.379691 
" style="fill: none; stroke: #899ab8; stroke-width: 1.12; stroke-linejoin: miter; stroke-linecap: square"/>
   </g>
   <g id="patch_4">
    <path d="M 927.776 301.139691 
L 927.776 7.379691 
" style="fill: none; stroke: #899ab8; stroke-width: 1.12; stroke-linejoin: miter; stroke-linecap: square"/>
   </g>
   <g id="patch_5">
    <path d="M 34.976 301.139691 
L 927.776 301.139691 
" style="fill: none; stroke: #899ab8; stroke-width: 1.12; stroke-linejoin: miter; stroke-linecap: square"/>
   </g>
   <g id="patch_6">
    <path d="M 34.976 7.379691 
L 927.776 7.379691 
" style="fill: none; stroke: #899ab8; stroke-width: 1.12; stroke-linejoin: miter; stroke-linecap: square"/>
   </g>
   <g id="text_14">
    <!-- 66063.56 -->
    <g style="fill: #83a83b" transform="translate(211.297424 20.732418) scale(0.132 -0.132)">
     <defs>
      <path id="DejaVuSans-2e" d="M 684 794 
L 1344 794 
L 1344 0 
L 684 0 
L 684 794 
z
" transform="scale(0.015625)"/>
     </defs>
     <use xlink:href="#DejaVuSans-36"/>
     <use xlink:href="#DejaVuSans-36" x="63.623047"/>
     <use xlink:href="#DejaVuSans-30" x="127.246094"/>
     <use xlink:href="#DejaVuSans-36" x="190.869141"/>
     <use xlink:href="#DejaVuSans-33" x="254.492188"/>
     <use xlink:href="#DejaVuSans-2e" x="318.115234"/>
     <use xlink:href="#DejaVuSans-35" x="349.902344"/>
     <use xlink:href="#DejaVuSans-36" x="413.525391"/>
    </g>
   </g>
   <g id="text_15">
    <!-- 18507.36 -->
    <g style="fill: #c44e52" transform="translate(211.297424 47.575984) scale(0.132 -0.132)">
     <defs>
      <path id="DejaVuSans-37" d="M 525 4666 
L 3525 4666 
L 3525 4397 
L 1831 0 
L 1172 0 
L 2766 4134 
L 525 4134 
L 525 4666 
z
" transform="scale(0.015625)"/>
     </defs>
     <use xlink:href="#DejaVuSans-31"/>
     <use xlink:href="#DejaVuSans-38" x="63.623047"/>
     <use xlink:href="#DejaVuSans-35" x="127.246094"/>
     <use xlink:href="#DejaVuSans-30" x="190.869141"/>
     <use xlink:href="#DejaVuSans-37" x="254.492188"/>
     <use xlink:href="#DejaVuSans-2e" x="318.115234"/>
     <use xlink:href="#DejaVuSans-33" x="349.902344"/>
     <use xlink:href="#DejaVuSans-36" x="413.525391"/>
    </g>
   </g>
   <g id="legend_1">
    <g id="patch_7">
     <path d="M 432.207453 294.839691 
L 530.544547 294.839691 
Q 533.064547 294.839691 533.064547 292.319691 
L 533.064547 237.745941 
Q 533.064547 235.225941 530.544547 235.225941 
L 432.207453 235.225941 
Q 429.687453 235.225941 429.687453 237.745941 
L 429.687453 292.319691 
Q 429.687453 294.839691 432.207453 294.839691 
z
" style="fill: #373e4b; opacity: 0.8; stroke: #cccccc; stroke-width: 0.16; stroke-linejoin: miter"/>
    </g>
    <g id="line2d_78">
     <path d="M 434.727453 245.429972 
L 434.727453 245.429972 
L 447.327453 245.429972 
L 447.327453 245.429972 
L 459.927453 245.429972 
" style="fill: none; stroke: #3572c6; stroke-width: 1.2; stroke-linecap: square"/>
    </g>
    <g id="text_16">
     <!-- USD/BTC -->
     <g style="fill: #b1bed6" transform="translate(470.007453 249.839972) scale(0.126 -0.126)">
      <defs>
       <path id="DejaVuSans-55" d="M 556 4666 
L 1191 4666 
L 1191 1831 
Q 1191 1081 1462 751 
Q 1734 422 2344 422 
Q 2950 422 3222 751 
Q 3494 1081 3494 1831 
L 3494 4666 
L 4128 4666 
L 4128 1753 
Q 4128 841 3676 375 
Q 3225 -91 2344 -91 
Q 1459 -91 1007 375 
Q 556 841 556 1753 
L 556 4666 
z
" transform="scale(0.015625)"/>
       <path id="DejaVuSans-53" d="M 3425 4513 
L 3425 3897 
Q 3066 4069 2747 4153 
Q 2428 4238 2131 4238 
Q 1616 4238 1336 4038 
Q 1056 3838 1056 3469 
Q 1056 3159 1242 3001 
Q 1428 2844 1947 2747 
L 2328 2669 
Q 3034 2534 3370 2195 
Q 3706 1856 3706 1288 
Q 3706 609 3251 259 
Q 2797 -91 1919 -91 
Q 1588 -91 1214 -16 
Q 841 59 441 206 
L 441 856 
Q 825 641 1194 531 
Q 1563 422 1919 422 
Q 2459 422 2753 634 
Q 3047 847 3047 1241 
Q 3047 1584 2836 1778 
Q 2625 1972 2144 2069 
L 1759 2144 
Q 1053 2284 737 2584 
Q 422 2884 422 3419 
Q 422 4038 858 4394 
Q 1294 4750 2059 4750 
Q 2388 4750 2728 4690 
Q 3069 4631 3425 4513 
z
" transform="scale(0.015625)"/>
       <path id="DejaVuSans-2f" d="M 1625 4666 
L 2156 4666 
L 531 -594 
L 0 -594 
L 1625 4666 
z
" transform="scale(0.015625)"/>
       <path id="DejaVuSans-42" d="M 1259 2228 
L 1259 519 
L 2272 519 
Q 2781 519 3026 730 
Q 3272 941 3272 1375 
Q 3272 1813 3026 2020 
Q 2781 2228 2272 2228 
L 1259 2228 
z
M 1259 4147 
L 1259 2741 
L 2194 2741 
Q 2656 2741 2882 2914 
Q 3109 3088 3109 3444 
Q 3109 3797 2882 3972 
Q 2656 4147 2194 4147 
L 1259 4147 
z
M 628 4666 
L 2241 4666 
Q 2963 4666 3353 4366 
Q 3744 4066 3744 3513 
Q 3744 3084 3544 2831 
Q 3344 2578 2956 2516 
Q 3422 2416 3680 2098 
Q 3938 1781 3938 1306 
Q 3938 681 3513 340 
Q 3088 0 2303 0 
L 628 0 
L 628 4666 
z
" transform="scale(0.015625)"/>
       <path id="DejaVuSans-54" d="M -19 4666 
L 3928 4666 
L 3928 4134 
L 2272 4134 
L 2272 0 
L 1638 0 
L 1638 4134 
L -19 4134 
L -19 4666 
z
" transform="scale(0.015625)"/>
       <path id="DejaVuSans-43" d="M 4122 4306 
L 4122 3641 
Q 3803 3938 3442 4084 
Q 3081 4231 2675 4231 
Q 1875 4231 1450 3742 
Q 1025 3253 1025 2328 
Q 1025 1406 1450 917 
Q 1875 428 2675 428 
Q 3081 428 3442 575 
Q 3803 722 4122 1019 
L 4122 359 
Q 3791 134 3420 21 
Q 3050 -91 2638 -91 
Q 1578 -91 968 557 
Q 359 1206 359 2328 
Q 359 3453 968 4101 
Q 1578 4750 2638 4750 
Q 3056 4750 3426 4639 
Q 3797 4528 4122 4306 
z
" transform="scale(0.015625)"/>
      </defs>
      <use xlink:href="#DejaVuSans-55"/>
      <use xlink:href="#DejaVuSans-53" x="73.193359"/>
      <use xlink:href="#DejaVuSans-44" x="136.669922"/>
      <use xlink:href="#DejaVuSans-2f" x="213.671875"/>
      <use xlink:href="#DejaVuSans-42" x="247.363281"/>
      <use xlink:href="#DejaVuSans-54" x="315.966797"/>
      <use xlink:href="#DejaVuSans-43" x="371.175781"/>
     </g>
    </g>
    <g id="line2d_79">
     <path d="M 434.727453 263.92441 
L 434.727453 263.92441 
L 447.327453 263.92441 
L 447.327453 263.92441 
L 459.927453 263.92441 
" style="fill: none; stroke: #83a83b; stroke-width: 1.2; stroke-linecap: square"/>
    </g>
    <g id="text_17">
     <!-- Max -->
     <g style="fill: #b1bed6" transform="translate(470.007453 268.33441) scale(0.126 -0.126)">
      <defs>
       <path id="DejaVuSans-4d" d="M 628 4666 
L 1569 4666 
L 2759 1491 
L 3956 4666 
L 4897 4666 
L 4897 0 
L 4281 0 
L 4281 4097 
L 3078 897 
L 2444 897 
L 1241 4097 
L 1241 0 
L 628 0 
L 628 4666 
z
" transform="scale(0.015625)"/>
       <path id="DejaVuSans-78" d="M 3513 3500 
L 2247 1797 
L 3578 0 
L 2900 0 
L 1881 1375 
L 863 0 
L 184 0 
L 1544 1831 
L 300 3500 
L 978 3500 
L 1906 2253 
L 2834 3500 
L 3513 3500 
z
" transform="scale(0.015625)"/>
      </defs>
      <use xlink:href="#DejaVuSans-4d"/>
      <use xlink:href="#DejaVuSans-61" x="86.279297"/>
      <use xlink:href="#DejaVuSans-78" x="147.558594"/>
     </g>
    </g>
    <g id="line2d_80">
     <path d="M 434.727453 282.418847 
L 434.727453 282.418847 
L 447.327453 282.418847 
L 447.327453 282.418847 
L 459.927453 282.418847 
" style="fill: none; stroke: #c44e52; stroke-width: 1.2; stroke-linecap: square"/>
    </g>
    <g id="text_18">
     <!-- local_Min -->
     <g style="fill: #b1bed6" transform="translate(470.007453 286.828847) scale(0.126 -0.126)">
      <defs>
       <path id="DejaVuSans-6c" d="M 603 4863 
L 1178 4863 
L 1178 0 
L 603 0 
L 603 4863 
z
" transform="scale(0.015625)"/>
       <path id="DejaVuSans-6f" d="M 1959 3097 
Q 1497 3097 1228 2736 
Q 959 2375 959 1747 
Q 959 1119 1226 758 
Q 1494 397 1959 397 
Q 2419 397 2687 759 
Q 2956 1122 2956 1747 
Q 2956 2369 2687 2733 
Q 2419 3097 1959 3097 
z
M 1959 3584 
Q 2709 3584 3137 3096 
Q 3566 2609 3566 1747 
Q 3566 888 3137 398 
Q 2709 -91 1959 -91 
Q 1206 -91 779 398 
Q 353 888 353 1747 
Q 353 2609 779 3096 
Q 1206 3584 1959 3584 
z
" transform="scale(0.015625)"/>
       <path id="DejaVuSans-63" d="M 3122 3366 
L 3122 2828 
Q 2878 2963 2633 3030 
Q 2388 3097 2138 3097 
Q 1578 3097 1268 2742 
Q 959 2388 959 1747 
Q 959 1106 1268 751 
Q 1578 397 2138 397 
Q 2388 397 2633 464 
Q 2878 531 3122 666 
L 3122 134 
Q 2881 22 2623 -34 
Q 2366 -91 2075 -91 
Q 1284 -91 818 406 
Q 353 903 353 1747 
Q 353 2603 823 3093 
Q 1294 3584 2113 3584 
Q 2378 3584 2631 3529 
Q 2884 3475 3122 3366 
z
" transform="scale(0.015625)"/>
       <path id="DejaVuSans-5f" d="M 3263 -1063 
L 3263 -1509 
L -63 -1509 
L -63 -1063 
L 3263 -1063 
z
" transform="scale(0.015625)"/>
       <path id="DejaVuSans-69" d="M 603 3500 
L 1178 3500 
L 1178 0 
L 603 0 
L 603 3500 
z
M 603 4863 
L 1178 4863 
L 1178 4134 
L 603 4134 
L 603 4863 
z
" transform="scale(0.015625)"/>
       <path id="DejaVuSans-6e" d="M 3513 2113 
L 3513 0 
L 2938 0 
L 2938 2094 
Q 2938 2591 2744 2837 
Q 2550 3084 2163 3084 
Q 1697 3084 1428 2787 
Q 1159 2491 1159 1978 
L 1159 0 
L 581 0 
L 581 3500 
L 1159 3500 
L 1159 2956 
Q 1366 3272 1645 3428 
Q 1925 3584 2291 3584 
Q 2894 3584 3203 3211 
Q 3513 2838 3513 2113 
z
" transform="scale(0.015625)"/>
      </defs>
      <use xlink:href="#DejaVuSans-6c"/>
      <use xlink:href="#DejaVuSans-6f" x="27.783203"/>
      <use xlink:href="#DejaVuSans-63" x="88.964844"/>
      <use xlink:href="#DejaVuSans-61" x="143.945312"/>
      <use xlink:href="#DejaVuSans-6c" x="205.224609"/>
      <use xlink:href="#DejaVuSans-5f" x="233.007812"/>
      <use xlink:href="#DejaVuSans-4d" x="283.007812"/>
      <use xlink:href="#DejaVuSans-69" x="369.287109"/>
      <use xlink:href="#DejaVuSans-6e" x="397.070312"/>
     </g>
    </g>
   </g>
  </g>
 </g>
 <defs>
  <clipPath id="pbae23891d0">
   <rect x="34.976" y="7.379691" width="892.8" height="293.76"/>
  </clipPath>
 </defs>
</svg>
