<?xml version="1.0" encoding="utf-8" standalone="no"?>
<!DOCTYPE svg PUBLIC "-//W3C//DTD SVG 1.1//EN"
  "http://www.w3.org/Graphics/SVG/1.1/DTD/svg11.dtd">
<svg xmlns:xlink="http://www.w3.org/1999/xlink" width="952.88375pt" height="358.290693pt" viewBox="0 0 952.88375 358.290693" xmlns="http://www.w3.org/2000/svg" version="1.1">
 <metadata>
  <rdf:RDF xmlns:dc="http://purl.org/dc/elements/1.1/" xmlns:cc="http://creativecommons.org/ns#" xmlns:rdf="http://www.w3.org/1999/02/22-rdf-syntax-ns#">
   <cc:Work>
    <dc:type rdf:resource="http://purl.org/dc/dcmitype/StillImage"/>
    <dc:date>2024-01-31T05:07:17.754852</dc:date>
    <dc:format>image/svg+xml</dc:format>
    <dc:creator>
     <cc:Agent>
      <dc:title>Matplotlib v3.8.2, https://matplotlib.org/</dc:title>
     </cc:Agent>
    </dc:creator>
   </cc:Work>
  </rdf:RDF>
 </metadata>
 <defs>
  <style type="text/css">*{stroke-linejoin: round; stroke-linecap: butt}</style>
 </defs>
 <g id="figure_1">
  <g id="patch_1">
   <path d="M 0 358.290693 
L 952.88375 358.290693 
L 952.88375 0 
L 0 0 
z
" style="fill: #373e4b"/>
  </g>
  <g id="axes_1">
   <g id="patch_2">
    <path d="M 52.88375 300.96 
L 945.68375 300.96 
L 945.68375 7.2 
L 52.88375 7.2 
z
" style="fill: #373e4b"/>
   </g>
   <g id="matplotlib.axis_1">
    <g id="xtick_1">
     <g id="line2d_1">
      <path d="M 99.630226 300.96 
L 99.630226 7.2 
" clip-path="url(#p866d53821b)" style="fill: none; stroke: #546379; stroke-width: 1.12; stroke-linecap: square"/>
     </g>
     <g id="line2d_2"/>
     <g id="text_1">
      <!-- 2018 -->
      <g style="fill: #b1bed6" transform="translate(70.549186 330.884854) rotate(-30) scale(0.126 -0.126)">
       <defs>
        <path id="DejaVuSans-32" d="M 1228 531 
L 3431 531 
L 3431 0 
L 469 0 
L 469 531 
Q 828 903 1448 1529 
Q 2069 2156 2228 2338 
Q 2531 2678 2651 2914 
Q 2772 3150 2772 3378 
Q 2772 3750 2511 3984 
Q 2250 4219 1831 4219 
Q 1534 4219 1204 4116 
Q 875 4013 500 3803 
L 500 4441 
Q 881 4594 1212 4672 
Q 1544 4750 1819 4750 
Q 2544 4750 2975 4387 
Q 3406 4025 3406 3419 
Q 3406 3131 3298 2873 
Q 3191 2616 2906 2266 
Q 2828 2175 2409 1742 
Q 1991 1309 1228 531 
z
" transform="scale(0.015625)"/>
        <path id="DejaVuSans-30" d="M 2034 4250 
Q 1547 4250 1301 3770 
Q 1056 3291 1056 2328 
Q 1056 1369 1301 889 
Q 1547 409 2034 409 
Q 2525 409 2770 889 
Q 3016 1369 3016 2328 
Q 3016 3291 2770 3770 
Q 2525 4250 2034 4250 
z
M 2034 4750 
Q 2819 4750 3233 4129 
Q 3647 3509 3647 2328 
Q 3647 1150 3233 529 
Q 2819 -91 2034 -91 
Q 1250 -91 836 529 
Q 422 1150 422 2328 
Q 422 3509 836 4129 
Q 1250 4750 2034 4750 
z
" transform="scale(0.015625)"/>
        <path id="DejaVuSans-31" d="M 794 531 
L 1825 531 
L 1825 4091 
L 703 3866 
L 703 4441 
L 1819 4666 
L 2450 4666 
L 2450 531 
L 3481 531 
L 3481 0 
L 794 0 
L 794 531 
z
" transform="scale(0.015625)"/>
        <path id="DejaVuSans-38" d="M 2034 2216 
Q 1584 2216 1326 1975 
Q 1069 1734 1069 1313 
Q 1069 891 1326 650 
Q 1584 409 2034 409 
Q 2484 409 2743 651 
Q 3003 894 3003 1313 
Q 3003 1734 2745 1975 
Q 2488 2216 2034 2216 
z
M 1403 2484 
Q 997 2584 770 2862 
Q 544 3141 544 3541 
Q 544 4100 942 4425 
Q 1341 4750 2034 4750 
Q 2731 4750 3128 4425 
Q 3525 4100 3525 3541 
Q 3525 3141 3298 2862 
Q 3072 2584 2669 2484 
Q 3125 2378 3379 2068 
Q 3634 1759 3634 1313 
Q 3634 634 3220 271 
Q 2806 -91 2034 -91 
Q 1263 -91 848 271 
Q 434 634 434 1313 
Q 434 1759 690 2068 
Q 947 2378 1403 2484 
z
M 1172 3481 
Q 1172 3119 1398 2916 
Q 1625 2713 2034 2713 
Q 2441 2713 2670 2916 
Q 2900 3119 2900 3481 
Q 2900 3844 2670 4047 
Q 2441 4250 2034 4250 
Q 1625 4250 1398 4047 
Q 1172 3844 1172 3481 
z
" transform="scale(0.015625)"/>
       </defs>
       <use xlink:href="#DejaVuSans-32"/>
       <use xlink:href="#DejaVuSans-30" x="63.623047"/>
       <use xlink:href="#DejaVuSans-31" x="127.246094"/>
       <use xlink:href="#DejaVuSans-38" x="190.869141"/>
      </g>
     </g>
    </g>
    <g id="xtick_2">
     <g id="line2d_3">
      <path d="M 231.989058 300.96 
L 231.989058 7.2 
" clip-path="url(#p866d53821b)" style="fill: none; stroke: #546379; stroke-width: 1.12; stroke-linecap: square"/>
     </g>
     <g id="line2d_4"/>
     <g id="text_2">
      <!-- 2019 -->
      <g style="fill: #b1bed6" transform="translate(202.908018 330.884854) rotate(-30) scale(0.126 -0.126)">
       <defs>
        <path id="DejaVuSans-39" d="M 703 97 
L 703 672 
Q 941 559 1184 500 
Q 1428 441 1663 441 
Q 2288 441 2617 861 
Q 2947 1281 2994 2138 
Q 2813 1869 2534 1725 
Q 2256 1581 1919 1581 
Q 1219 1581 811 2004 
Q 403 2428 403 3163 
Q 403 3881 828 4315 
Q 1253 4750 1959 4750 
Q 2769 4750 3195 4129 
Q 3622 3509 3622 2328 
Q 3622 1225 3098 567 
Q 2575 -91 1691 -91 
Q 1453 -91 1209 -44 
Q 966 3 703 97 
z
M 1959 2075 
Q 2384 2075 2632 2365 
Q 2881 2656 2881 3163 
Q 2881 3666 2632 3958 
Q 2384 4250 1959 4250 
Q 1534 4250 1286 3958 
Q 1038 3666 1038 3163 
Q 1038 2656 1286 2365 
Q 1534 2075 1959 2075 
z
" transform="scale(0.015625)"/>
       </defs>
       <use xlink:href="#DejaVuSans-32"/>
       <use xlink:href="#DejaVuSans-30" x="63.623047"/>
       <use xlink:href="#DejaVuSans-31" x="127.246094"/>
       <use xlink:href="#DejaVuSans-39" x="190.869141"/>
      </g>
     </g>
    </g>
    <g id="xtick_3">
     <g id="line2d_5">
      <path d="M 364.347889 300.96 
L 364.347889 7.2 
" clip-path="url(#p866d53821b)" style="fill: none; stroke: #546379; stroke-width: 1.12; stroke-linecap: square"/>
     </g>
     <g id="line2d_6"/>
     <g id="text_3">
      <!-- 2020 -->
      <g style="fill: #b1bed6" transform="translate(335.26685 330.884854) rotate(-30) scale(0.126 -0.126)">
       <use xlink:href="#DejaVuSans-32"/>
       <use xlink:href="#DejaVuSans-30" x="63.623047"/>
       <use xlink:href="#DejaVuSans-32" x="127.246094"/>
       <use xlink:href="#DejaVuSans-30" x="190.869141"/>
      </g>
     </g>
    </g>
    <g id="xtick_4">
     <g id="line2d_7">
      <path d="M 497.069348 300.96 
L 497.069348 7.2 
" clip-path="url(#p866d53821b)" style="fill: none; stroke: #546379; stroke-width: 1.12; stroke-linecap: square"/>
     </g>
     <g id="line2d_8"/>
     <g id="text_4">
      <!-- 2021 -->
      <g style="fill: #b1bed6" transform="translate(467.988308 330.884854) rotate(-30) scale(0.126 -0.126)">
       <use xlink:href="#DejaVuSans-32"/>
       <use xlink:href="#DejaVuSans-30" x="63.623047"/>
       <use xlink:href="#DejaVuSans-32" x="127.246094"/>
       <use xlink:href="#DejaVuSans-31" x="190.869141"/>
      </g>
     </g>
    </g>
    <g id="xtick_5">
     <g id="line2d_9">
      <path d="M 629.42818 300.96 
L 629.42818 7.2 
" clip-path="url(#p866d53821b)" style="fill: none; stroke: #546379; stroke-width: 1.12; stroke-linecap: square"/>
     </g>
     <g id="line2d_10"/>
     <g id="text_5">
      <!-- 2022 -->
      <g style="fill: #b1bed6" transform="translate(600.34714 330.884854) rotate(-30) scale(0.126 -0.126)">
       <use xlink:href="#DejaVuSans-32"/>
       <use xlink:href="#DejaVuSans-30" x="63.623047"/>
       <use xlink:href="#DejaVuSans-32" x="127.246094"/>
       <use xlink:href="#DejaVuSans-32" x="190.869141"/>
      </g>
     </g>
    </g>
    <g id="xtick_6">
     <g id="line2d_11">
      <path d="M 761.787011 300.96 
L 761.787011 7.2 
" clip-path="url(#p866d53821b)" style="fill: none; stroke: #546379; stroke-width: 1.12; stroke-linecap: square"/>
     </g>
     <g id="line2d_12"/>
     <g id="text_6">
      <!-- 2023 -->
      <g style="fill: #b1bed6" transform="translate(732.705972 330.884854) rotate(-30) scale(0.126 -0.126)">
       <defs>
        <path id="DejaVuSans-33" d="M 2597 2516 
Q 3050 2419 3304 2112 
Q 3559 1806 3559 1356 
Q 3559 666 3084 287 
Q 2609 -91 1734 -91 
Q 1441 -91 1130 -33 
Q 819 25 488 141 
L 488 750 
Q 750 597 1062 519 
Q 1375 441 1716 441 
Q 2309 441 2620 675 
Q 2931 909 2931 1356 
Q 2931 1769 2642 2001 
Q 2353 2234 1838 2234 
L 1294 2234 
L 1294 2753 
L 1863 2753 
Q 2328 2753 2575 2939 
Q 2822 3125 2822 3475 
Q 2822 3834 2567 4026 
Q 2313 4219 1838 4219 
Q 1578 4219 1281 4162 
Q 984 4106 628 3988 
L 628 4550 
Q 988 4650 1302 4700 
Q 1616 4750 1894 4750 
Q 2613 4750 3031 4423 
Q 3450 4097 3450 3541 
Q 3450 3153 3228 2886 
Q 3006 2619 2597 2516 
z
" transform="scale(0.015625)"/>
       </defs>
       <use xlink:href="#DejaVuSans-32"/>
       <use xlink:href="#DejaVuSans-30" x="63.623047"/>
       <use xlink:href="#DejaVuSans-32" x="127.246094"/>
       <use xlink:href="#DejaVuSans-33" x="190.869141"/>
      </g>
     </g>
    </g>
    <g id="xtick_7">
     <g id="line2d_13">
      <path d="M 894.145843 300.96 
L 894.145843 7.2 
" clip-path="url(#p866d53821b)" style="fill: none; stroke: #546379; stroke-width: 1.12; stroke-linecap: square"/>
     </g>
     <g id="line2d_14"/>
     <g id="text_7">
      <!-- 2024 -->
      <g style="fill: #b1bed6" transform="translate(865.064803 330.884854) rotate(-30) scale(0.126 -0.126)">
       <defs>
        <path id="DejaVuSans-34" d="M 2419 4116 
L 825 1625 
L 2419 1625 
L 2419 4116 
z
M 2253 4666 
L 3047 4666 
L 3047 1625 
L 3713 1625 
L 3713 1100 
L 3047 1100 
L 3047 0 
L 2419 0 
L 2419 1100 
L 313 1100 
L 313 1709 
L 2253 4666 
z
" transform="scale(0.015625)"/>
       </defs>
       <use xlink:href="#DejaVuSans-32"/>
       <use xlink:href="#DejaVuSans-30" x="63.623047"/>
       <use xlink:href="#DejaVuSans-32" x="127.246094"/>
       <use xlink:href="#DejaVuSans-34" x="190.869141"/>
      </g>
     </g>
    </g>
    <g id="text_8">
     <!-- Date -->
     <g style="fill: #b1bed6" transform="translate(482.074625 348.095943) scale(0.144 -0.144)">
      <defs>
       <path id="DejaVuSans-44" d="M 1259 4147 
L 1259 519 
L 2022 519 
Q 2988 519 3436 956 
Q 3884 1394 3884 2338 
Q 3884 3275 3436 3711 
Q 2988 4147 2022 4147 
L 1259 4147 
z
M 628 4666 
L 1925 4666 
Q 3281 4666 3915 4102 
Q 4550 3538 4550 2338 
Q 4550 1131 3912 565 
Q 3275 0 1925 0 
L 628 0 
L 628 4666 
z
" transform="scale(0.015625)"/>
       <path id="DejaVuSans-61" d="M 2194 1759 
Q 1497 1759 1228 1600 
Q 959 1441 959 1056 
Q 959 750 1161 570 
Q 1363 391 1709 391 
Q 2188 391 2477 730 
Q 2766 1069 2766 1631 
L 2766 1759 
L 2194 1759 
z
M 3341 1997 
L 3341 0 
L 2766 0 
L 2766 531 
Q 2569 213 2275 61 
Q 1981 -91 1556 -91 
Q 1019 -91 701 211 
Q 384 513 384 1019 
Q 384 1609 779 1909 
Q 1175 2209 1959 2209 
L 2766 2209 
L 2766 2266 
Q 2766 2663 2505 2880 
Q 2244 3097 1772 3097 
Q 1472 3097 1187 3025 
Q 903 2953 641 2809 
L 641 3341 
Q 956 3463 1253 3523 
Q 1550 3584 1831 3584 
Q 2591 3584 2966 3190 
Q 3341 2797 3341 1997 
z
" transform="scale(0.015625)"/>
       <path id="DejaVuSans-74" d="M 1172 4494 
L 1172 3500 
L 2356 3500 
L 2356 3053 
L 1172 3053 
L 1172 1153 
Q 1172 725 1289 603 
Q 1406 481 1766 481 
L 2356 481 
L 2356 0 
L 1766 0 
Q 1100 0 847 248 
Q 594 497 594 1153 
L 594 3053 
L 172 3053 
L 172 3500 
L 594 3500 
L 594 4494 
L 1172 4494 
z
" transform="scale(0.015625)"/>
       <path id="DejaVuSans-65" d="M 3597 1894 
L 3597 1613 
L 953 1613 
Q 991 1019 1311 708 
Q 1631 397 2203 397 
Q 2534 397 2845 478 
Q 3156 559 3463 722 
L 3463 178 
Q 3153 47 2828 -22 
Q 2503 -91 2169 -91 
Q 1331 -91 842 396 
Q 353 884 353 1716 
Q 353 2575 817 3079 
Q 1281 3584 2069 3584 
Q 2775 3584 3186 3129 
Q 3597 2675 3597 1894 
z
M 3022 2063 
Q 3016 2534 2758 2815 
Q 2500 3097 2075 3097 
Q 1594 3097 1305 2825 
Q 1016 2553 972 2059 
L 3022 2063 
z
" transform="scale(0.015625)"/>
      </defs>
      <use xlink:href="#DejaVuSans-44"/>
      <use xlink:href="#DejaVuSans-61" x="77.001953"/>
      <use xlink:href="#DejaVuSans-74" x="138.28125"/>
      <use xlink:href="#DejaVuSans-65" x="177.490234"/>
     </g>
    </g>
   </g>
   <g id="matplotlib.axis_2">
    <g id="ytick_1">
     <g id="line2d_15">
      <path d="M 52.88375 258.56324 
L 945.68375 258.56324 
" clip-path="url(#p866d53821b)" style="fill: none; stroke: #546379; stroke-width: 1.12; stroke-linecap: square"/>
     </g>
     <g id="line2d_16"/>
     <g id="text_9">
      <!-- 10000 -->
      <g style="fill: #b1bed6" transform="translate(7.2 263.350256) scale(0.126 -0.126)">
       <use xlink:href="#DejaVuSans-31"/>
       <use xlink:href="#DejaVuSans-30" x="63.623047"/>
       <use xlink:href="#DejaVuSans-30" x="127.246094"/>
       <use xlink:href="#DejaVuSans-30" x="190.869141"/>
       <use xlink:href="#DejaVuSans-30" x="254.492188"/>
      </g>
     </g>
    </g>
    <g id="ytick_2">
     <g id="line2d_17">
      <path d="M 52.88375 215.161403 
L 945.68375 215.161403 
" clip-path="url(#p866d53821b)" style="fill: none; stroke: #546379; stroke-width: 1.12; stroke-linecap: square"/>
     </g>
     <g id="line2d_18"/>
     <g id="text_10">
      <!-- 20000 -->
      <g style="fill: #b1bed6" transform="translate(7.2 219.948418) scale(0.126 -0.126)">
       <use xlink:href="#DejaVuSans-32"/>
       <use xlink:href="#DejaVuSans-30" x="63.623047"/>
       <use xlink:href="#DejaVuSans-30" x="127.246094"/>
       <use xlink:href="#DejaVuSans-30" x="190.869141"/>
       <use xlink:href="#DejaVuSans-30" x="254.492188"/>
      </g>
     </g>
    </g>
    <g id="ytick_3">
     <g id="line2d_19">
      <path d="M 52.88375 171.759565 
L 945.68375 171.759565 
" clip-path="url(#p866d53821b)" style="fill: none; stroke: #546379; stroke-width: 1.12; stroke-linecap: square"/>
     </g>
     <g id="line2d_20"/>
     <g id="text_11">
      <!-- 30000 -->
      <g style="fill: #b1bed6" transform="translate(7.2 176.546581) scale(0.126 -0.126)">
       <use xlink:href="#DejaVuSans-33"/>
       <use xlink:href="#DejaVuSans-30" x="63.623047"/>
       <use xlink:href="#DejaVuSans-30" x="127.246094"/>
       <use xlink:href="#DejaVuSans-30" x="190.869141"/>
       <use xlink:href="#DejaVuSans-30" x="254.492188"/>
      </g>
     </g>
    </g>
    <g id="ytick_4">
     <g id="line2d_21">
      <path d="M 52.88375 128.357727 
L 945.68375 128.357727 
" clip-path="url(#p866d53821b)" style="fill: none; stroke: #546379; stroke-width: 1.12; stroke-linecap: square"/>
     </g>
     <g id="line2d_22"/>
     <g id="text_12">
      <!-- 40000 -->
      <g style="fill: #b1bed6" transform="translate(7.2 133.144743) scale(0.126 -0.126)">
       <use xlink:href="#DejaVuSans-34"/>
       <use xlink:href="#DejaVuSans-30" x="63.623047"/>
       <use xlink:href="#DejaVuSans-30" x="127.246094"/>
       <use xlink:href="#DejaVuSans-30" x="190.869141"/>
       <use xlink:href="#DejaVuSans-30" x="254.492188"/>
      </g>
     </g>
    </g>
    <g id="ytick_5">
     <g id="line2d_23">
      <path d="M 52.88375 84.95589 
L 945.68375 84.95589 
" clip-path="url(#p866d53821b)" style="fill: none; stroke: #546379; stroke-width: 1.12; stroke-linecap: square"/>
     </g>
     <g id="line2d_24"/>
     <g id="text_13">
      <!-- 50000 -->
      <g style="fill: #b1bed6" transform="translate(7.2 89.742905) scale(0.126 -0.126)">
       <defs>
        <path id="DejaVuSans-35" d="M 691 4666 
L 3169 4666 
L 3169 4134 
L 1269 4134 
L 1269 2991 
Q 1406 3038 1543 3061 
Q 1681 3084 1819 3084 
Q 2600 3084 3056 2656 
Q 3513 2228 3513 1497 
Q 3513 744 3044 326 
Q 2575 -91 1722 -91 
Q 1428 -91 1123 -41 
Q 819 9 494 109 
L 494 744 
Q 775 591 1075 516 
Q 1375 441 1709 441 
Q 2250 441 2565 725 
Q 2881 1009 2881 1497 
Q 2881 1984 2565 2268 
Q 2250 2553 1709 2553 
Q 1456 2553 1204 2497 
Q 953 2441 691 2322 
L 691 4666 
z
" transform="scale(0.015625)"/>
       </defs>
       <use xlink:href="#DejaVuSans-35"/>
       <use xlink:href="#DejaVuSans-30" x="63.623047"/>
       <use xlink:href="#DejaVuSans-30" x="127.246094"/>
       <use xlink:href="#DejaVuSans-30" x="190.869141"/>
       <use xlink:href="#DejaVuSans-30" x="254.492188"/>
      </g>
     </g>
    </g>
    <g id="ytick_6">
     <g id="line2d_25">
      <path d="M 52.88375 41.554052 
L 945.68375 41.554052 
" clip-path="url(#p866d53821b)" style="fill: none; stroke: #546379; stroke-width: 1.12; stroke-linecap: square"/>
     </g>
     <g id="line2d_26"/>
     <g id="text_14">
      <!-- 60000 -->
      <g style="fill: #b1bed6" transform="translate(7.2 46.341068) scale(0.126 -0.126)">
       <defs>
        <path id="DejaVuSans-36" d="M 2113 2584 
Q 1688 2584 1439 2293 
Q 1191 2003 1191 1497 
Q 1191 994 1439 701 
Q 1688 409 2113 409 
Q 2538 409 2786 701 
Q 3034 994 3034 1497 
Q 3034 2003 2786 2293 
Q 2538 2584 2113 2584 
z
M 3366 4563 
L 3366 3988 
Q 3128 4100 2886 4159 
Q 2644 4219 2406 4219 
Q 1781 4219 1451 3797 
Q 1122 3375 1075 2522 
Q 1259 2794 1537 2939 
Q 1816 3084 2150 3084 
Q 2853 3084 3261 2657 
Q 3669 2231 3669 1497 
Q 3669 778 3244 343 
Q 2819 -91 2113 -91 
Q 1303 -91 875 529 
Q 447 1150 447 2328 
Q 447 3434 972 4092 
Q 1497 4750 2381 4750 
Q 2619 4750 2861 4703 
Q 3103 4656 3366 4563 
z
" transform="scale(0.015625)"/>
       </defs>
       <use xlink:href="#DejaVuSans-36"/>
       <use xlink:href="#DejaVuSans-30" x="63.623047"/>
       <use xlink:href="#DejaVuSans-30" x="127.246094"/>
       <use xlink:href="#DejaVuSans-30" x="190.869141"/>
       <use xlink:href="#DejaVuSans-30" x="254.492188"/>
      </g>
     </g>
    </g>
   </g>
   <g id="line2d_27">
    <path d="M 93.465568 230.750692 
L 93.465568 219.884434 
L 94.916076 219.884434 
L 94.916076 242.172059 
L 96.366584 242.172059 
L 96.366584 233.91972 
L 97.817091 233.91972 
L 97.817091 247.224337 
L 99.267599 247.224337 
L 99.267599 236.692013 
L 100.718107 236.692013 
L 100.718107 231.684873 
L 102.168615 231.684873 
L 102.168615 244.30335 
L 103.619122 244.30335 
L 103.619122 243.13762 
L 105.06963 243.13762 
L 105.06963 252.02471 
L 106.520138 252.02471 
L 106.520138 254.954421 
L 107.970646 254.954421 
L 107.970646 252.350832 
L 109.421153 252.350832 
L 109.421153 257.677843 
L 110.871661 257.677843 
L 110.871661 266.36663 
L 112.322169 266.36663 
L 112.322169 266.179916 
L 113.772677 266.179916 
L 113.772677 263.356018 
L 115.223184 263.356018 
L 115.223184 257.788257 
L 116.673692 257.788257 
L 116.673692 253.155458 
L 118.1242 253.155458 
L 118.1242 259.866337 
L 119.574708 259.866337 
L 119.574708 257.121692 
L 121.025215 257.121692 
L 121.025215 251.979919 
L 122.475723 251.979919 
L 122.475723 261.495034 
L 123.926231 261.495034 
L 123.926231 262.3392 
L 125.376739 262.3392 
L 125.376739 265.950711 
L 126.827246 265.950711 
L 126.827246 263.294258 
L 128.277754 263.294258 
L 128.277754 264.926991 
L 129.728262 264.926991 
L 129.728262 267.45797 
L 131.17877 267.45797 
L 131.17877 272.3323 
L 132.629277 272.3323 
L 132.629277 272.509726 
L 135.530293 272.519492 
L 135.530293 267.698242 
L 138.431308 267.64642 
L 138.431308 263.204633 
L 139.881816 263.204633 
L 139.881816 263.46704 
L 141.332324 263.46704 
L 141.332324 261.174295 
L 142.782831 261.174295 
L 142.782831 259.633747 
L 144.233339 259.633747 
L 144.233339 261.301202 
L 145.683847 261.301202 
L 145.683847 265.521293 
L 147.134355 265.521293 
L 147.134355 265.199121 
L 148.584862 265.199121 
L 148.584862 266.19298 
L 150.03537 266.19298 
L 150.03537 269.362008 
L 151.485878 269.362008 
L 151.485878 270.088338 
L 152.936386 270.088338 
L 152.936386 269.458577 
L 155.837401 269.433361 
L 155.837401 268.912235 
L 157.287909 268.912235 
L 157.287909 273.523854 
L 158.738417 273.523854 
L 158.738417 273.803014 
L 160.188924 273.803014 
L 160.188924 272.621833 
L 161.639432 272.621833 
L 161.639432 275.242393 
L 163.08994 275.242393 
L 163.08994 276.45287 
L 164.540448 276.45287 
L 164.540448 273.205111 
L 167.441463 273.195779 
L 167.441463 274.494883 
L 168.891971 274.494883 
L 168.891971 274.843964 
L 170.342479 274.843964 
L 170.342479 269.973106 
L 171.792986 269.973106 
L 171.792986 269.818813 
L 173.243494 269.818813 
L 173.243494 267.504844 
L 174.694002 267.504844 
L 174.694002 266.49931 
L 176.14451 266.49931 
L 176.14451 269.783614 
L 177.595017 269.783614 
L 177.595017 272.806725 
L 179.045525 272.806725 
L 179.045525 274.935065 
L 180.496033 274.935065 
L 180.496033 274.749218 
L 181.946541 274.749218 
L 181.946541 273.812129 
L 183.397048 273.812129 
L 183.397048 273.641212 
L 184.847556 273.641212 
L 184.847556 272.012341 
L 186.298064 272.012341 
L 186.298064 271.502283 
L 187.748572 271.502283 
L 187.748572 270.024841 
L 189.199079 270.024841 
L 189.199079 275.125121 
L 190.649587 275.125121 
L 190.649587 274.508902 
L 192.100095 274.508902 
L 192.100095 273.765298 
L 195.00111 273.771157 
L 195.00111 273.391695 
L 196.451618 273.391695 
L 196.451618 273.195476 
L 197.902126 273.195476 
L 197.902126 273.661394 
L 199.352634 273.661394 
L 199.352634 273.434359 
L 202.253649 273.402025 
L 202.253649 274.773132 
L 203.704157 274.773132 
L 203.704157 273.712174 
L 206.605172 273.780402 
L 206.605172 273.874671 
L 208.05568 273.874671 
L 208.05568 274.614933 
L 209.506188 274.614933 
L 209.506188 274.355867 
L 210.956695 274.355867 
L 210.956695 273.594035 
L 212.407203 273.594035 
L 212.407203 274.15088 
L 213.857711 274.15088 
L 213.857711 277.40515 
L 215.308219 277.40515 
L 215.308219 280.920482 
L 216.758726 280.920482 
L 216.758726 283.072345 
L 218.209234 283.072345 
L 218.209234 285.348902 
L 219.659742 285.348902 
L 219.659742 283.787998 
L 221.11025 283.787998 
L 221.11025 285.711177 
L 222.560757 285.711177 
L 222.560757 286.390589 
L 224.011265 286.390589 
L 224.011265 287.607273 
L 225.461773 287.607273 
L 225.461773 286.529041 
L 226.912281 286.529041 
L 226.912281 285.039099 
L 228.362788 285.039099 
L 228.362788 285.378979 
L 229.813296 285.378979 
L 229.813296 285.601023 
L 231.263804 285.601023 
L 231.263804 284.90247 
L 232.714312 284.90247 
L 232.714312 284.292848 
L 234.164819 284.292848 
L 234.164819 286.139683 
L 235.615327 286.139683 
L 235.615327 285.982438 
L 237.065835 285.982438 
L 237.065835 286.228744 
L 238.516343 286.228744 
L 238.516343 286.39532 
L 241.417358 286.443279 
L 241.417358 286.90464 
L 244.318374 286.965316 
L 244.318374 287.231196 
L 245.768881 287.231196 
L 245.768881 286.212511 
L 248.669897 286.304827 
L 248.669897 284.923216 
L 250.120405 284.923216 
L 250.120405 283.998453 
L 251.570912 283.998453 
L 251.570912 285.328155 
L 254.471928 285.4091 
L 254.471928 285.095565 
L 257.372943 285.120434 
L 257.372943 284.879945 
L 258.823451 284.879945 
L 258.823451 284.478 
L 263.174974 284.393801 
L 263.174974 284.108868 
L 264.625482 284.108868 
L 264.625482 280.649394 
L 266.07599 280.649394 
L 266.07599 279.097908 
L 267.526498 279.097908 
L 267.526498 279.947977 
L 268.977005 279.947977 
L 268.977005 279.410662 
L 270.427513 279.410662 
L 270.427513 278.921827 
L 271.878021 278.921827 
L 271.878021 278.379695 
L 273.328528 278.379695 
L 273.328528 278.956505 
L 274.779036 278.956505 
L 274.779036 278.570793 
L 276.229544 278.570793 
L 276.229544 277.293434 
L 277.680052 277.293434 
L 277.680052 274.413505 
L 279.130559 274.413505 
L 279.130559 267.275335 
L 280.581067 267.275335 
L 280.581067 270.433426 
L 282.031575 270.433426 
L 282.031575 268.86714 
L 283.482083 268.86714 
L 283.482083 264.012688 
L 284.93259 264.012688 
L 284.93259 266.061081 
L 286.383098 266.061081 
L 286.383098 266.65803 
L 287.833606 266.65803 
L 287.833606 267.25103 
L 289.284114 267.25103 
L 289.284114 267.601326 
L 290.734621 267.601326 
L 290.734621 263.51335 
L 292.185129 263.51335 
L 292.185129 261.680794 
L 293.635637 261.680794 
L 293.635637 255.028247 
L 295.086145 255.028247 
L 295.086145 253.646463 
L 296.536652 253.646463 
L 296.536652 256.051489 
L 297.98716 256.051489 
L 297.98716 254.41767 
L 299.437668 254.41767 
L 299.437668 247.33614 
L 300.888176 247.33614 
L 300.888176 252.534291 
L 302.338683 252.534291 
L 302.338683 259.976925 
L 303.789191 259.976925 
L 303.789191 256.013773 
L 305.239699 256.013773 
L 305.239699 259.105026 
L 306.690207 259.105026 
L 306.690207 260.72756 
L 308.140714 260.72756 
L 308.140714 256.264896 
L 309.591222 256.264896 
L 309.591222 252.201963 
L 311.04173 252.201963 
L 311.04173 252.99817 
L 312.492238 252.99817 
L 312.492238 258.489631 
L 313.942745 258.489631 
L 313.942745 257.184798 
L 315.393253 257.184798 
L 315.393253 258.077227 
L 316.843761 258.077227 
L 316.843761 256.999559 
L 318.294269 256.999559 
L 318.294269 260.394841 
L 319.744776 260.394841 
L 319.744776 255.866728 
L 321.195284 255.866728 
L 321.195284 256.448659 
L 322.645792 256.448659 
L 322.645792 257.871762 
L 324.0963 257.871762 
L 324.0963 257.215917 
L 325.546807 257.215917 
L 325.546807 257.36587 
L 326.997315 257.36587 
L 326.997315 259.937429 
L 328.447823 259.937429 
L 328.447823 266.402046 
L 329.898331 266.402046 
L 329.898331 265.842076 
L 331.348838 265.842076 
L 331.348838 266.602606 
L 332.799346 266.602606 
L 332.799346 264.691927 
L 334.249854 264.691927 
L 334.249854 266.012037 
L 335.700361 266.012037 
L 335.700361 266.910369 
L 337.150869 266.910369 
L 337.150869 266.27783 
L 338.601377 266.27783 
L 338.601377 264.349617 
L 340.051885 264.349617 
L 340.051885 261.022605 
L 341.502392 261.022605 
L 341.502392 261.596248 
L 342.9529 261.596248 
L 342.9529 261.413265 
L 344.403408 261.413265 
L 344.403408 262.742317 
L 345.853916 262.742317 
L 345.853916 264.499223 
L 347.304423 264.499223 
L 347.304423 266.479779 
L 348.754931 266.479779 
L 348.754931 270.34098 
L 350.205439 270.34098 
L 350.205439 270.873607 
L 351.655947 270.873607 
L 351.655947 269.163184 
L 353.106454 269.163184 
L 353.106454 270.746787 
L 354.556962 270.746787 
L 354.556962 269.316523 
L 356.00747 269.316523 
L 356.00747 270.762803 
L 357.457978 270.762803 
L 357.457978 272.10661 
L 358.908485 272.10661 
L 358.908485 270.758419 
L 360.358993 270.758419 
L 360.358993 270.495751 
L 361.809501 270.495751 
L 361.809501 270.277093 
L 363.260009 270.277093 
L 363.260009 270.821308 
L 364.710516 270.821308 
L 364.710516 270.057913 
L 366.161024 270.057913 
L 366.161024 268.033869 
L 367.611532 268.033869 
L 367.611532 266.786847 
L 369.06204 266.786847 
L 369.06204 263.335967 
L 370.512547 263.335967 
L 370.512547 264.108867 
L 371.963055 264.108867 
L 371.963055 265.822805 
L 373.413563 265.822805 
L 373.413563 261.688997 
L 374.864071 261.688997 
L 374.864071 261.538176 
L 376.314578 261.538176 
L 376.314578 259.623721 
L 377.765086 259.623721 
L 377.765086 259.193478 
L 379.215594 259.193478 
L 379.215594 256.963752 
L 380.666102 256.963752 
L 380.666102 257.779186 
L 382.116609 257.779186 
L 382.116609 259.997107 
L 383.567117 259.997107 
L 383.567117 263.834307 
L 385.017625 263.834307 
L 385.017625 264.925212 
L 386.468133 264.925212 
L 386.468133 262.610939 
L 387.91864 262.610939 
L 387.91864 267.539001 
L 389.369148 267.539001 
L 389.369148 277.620857 
L 390.819656 277.620857 
L 390.819656 278.712066 
L 392.270164 278.712066 
L 392.270164 275.099992 
L 393.720671 275.099992 
L 393.720671 272.892531 
L 395.171179 272.892531 
L 395.171179 276.421317 
L 396.621687 276.421317 
L 396.621687 272.412289 
L 398.072194 272.412289 
L 398.072194 270.094241 
L 399.522702 270.094241 
L 399.522702 272.133953 
L 402.423718 272.139552 
L 402.423718 270.458122 
L 403.874225 270.458122 
L 403.874225 271.015271 
L 405.324733 271.015271 
L 405.324733 268.548831 
L 406.775241 268.548831 
L 406.775241 264.514631 
L 408.225749 264.514631 
L 408.225749 263.398509 
L 409.676256 263.398509 
L 409.676256 259.336661 
L 411.126764 259.336661 
L 411.126764 263.708398 
L 412.577272 263.708398 
L 412.577272 261.229415 
L 414.02778 261.229415 
L 414.02778 260.687022 
L 415.478287 260.687022 
L 415.478287 264.072105 
L 416.928795 264.072105 
L 416.928795 260.432948 
L 418.379303 260.432948 
L 418.379303 257.676845 
L 419.829811 257.676845 
L 419.829811 260.196235 
L 421.280318 260.196235 
L 421.280318 259.539131 
L 422.730826 259.539131 
L 422.730826 260.848347 
L 425.631842 260.929465 
L 425.631842 261.667427 
L 427.082349 261.667427 
L 427.082349 261.858091 
L 428.532857 261.858091 
L 428.532857 262.098971 
L 429.983365 262.098971 
L 429.983365 262.589108 
L 431.433873 262.589108 
L 431.433873 261.791339 
L 434.334888 261.879314 
L 434.334888 262.063555 
L 437.235904 261.97176 
L 437.235904 260.242414 
L 438.686411 260.242414 
L 438.686411 254.039033 
L 440.136919 254.039033 
L 440.136919 252.730554 
L 441.587427 252.730554 
L 441.587427 253.379976 
L 443.037935 253.379976 
L 443.037935 250.891532 
L 444.488442 250.891532 
L 444.488442 251.735654 
L 445.93895 251.735654 
L 445.93895 250.256085 
L 447.389458 250.256085 
L 447.389458 250.465239 
L 448.839966 250.465239 
L 448.839966 250.90746 
L 450.290473 250.90746 
L 450.290473 251.902143 
L 451.740981 251.902143 
L 451.740981 250.215982 
L 453.191489 250.215982 
L 453.191489 257.87046 
L 454.641997 257.87046 
L 454.641997 257.574416 
L 456.092504 257.574416 
L 456.092504 257.127638 
L 457.543012 257.127638 
L 457.543012 254.466584 
L 458.99352 254.466584 
L 458.99352 256.694965 
L 460.444028 256.694965 
L 460.444028 255.556187 
L 461.894535 255.556187 
L 461.894535 254.914014 
L 463.345043 254.914014 
L 463.345043 256.168457 
L 464.795551 256.168457 
L 464.795551 255.651845 
L 466.246058 255.651845 
L 466.246058 252.5885 
L 467.696566 252.5885 
L 467.696566 252.036776 
L 469.147074 252.036776 
L 469.147074 250.932503 
L 470.597582 250.932503 
L 470.597582 245.783482 
L 472.048089 245.783482 
L 472.048089 242.71519 
L 473.498597 242.71519 
L 473.498597 242.025751 
L 474.949105 242.025751 
L 474.949105 240.527216 
L 476.399613 240.527216 
L 476.399613 234.733027 
L 477.85012 234.733027 
L 477.85012 231.23931 
L 479.300628 231.23931 
L 479.300628 229.374853 
L 480.751136 229.374853 
L 480.751136 220.858111 
L 482.201644 220.858111 
L 482.201644 218.752818 
L 483.652151 218.752818 
L 483.652151 225.003117 
L 485.102659 225.003117 
L 485.102659 218.516495 
L 486.553167 218.516495 
L 486.553167 217.862473 
L 488.003675 217.862473 
L 488.003675 222.766446 
L 489.454182 222.766446 
L 489.454182 218.301135 
L 490.90469 218.301135 
L 490.90469 201.486395 
L 492.355198 201.486395 
L 492.355198 198.560243 
L 493.805706 198.560243 
L 493.805706 187.196687 
L 495.256213 187.196687 
L 495.256213 176.722175 
L 496.706721 176.722175 
L 496.706721 158.735628 
L 498.157229 158.735628 
L 498.157229 130.588408 
L 499.607737 130.588408 
L 499.607737 147.693506 
L 501.058244 147.693506 
L 501.058244 142.122533 
L 502.508752 142.122533 
L 502.508752 145.631094 
L 503.95926 145.631094 
L 503.95926 162.646308 
L 505.409768 162.646308 
L 505.409768 169.94029 
L 506.860275 169.94029 
L 506.860275 158.146752 
L 508.310783 158.146752 
L 508.310783 141.369208 
L 509.761291 141.369208 
L 509.761291 100.735496 
L 511.211799 100.735496 
L 511.211799 95.930478 
L 512.662306 95.930478 
L 512.662306 88.60121 
L 514.112814 88.60121 
L 514.112814 58.909579 
L 515.563322 58.909579 
L 515.563322 82.243969 
L 517.01383 82.243969 
L 517.01383 106.162375 
L 518.464337 106.162375 
L 518.464337 91.687905 
L 519.914845 91.687905 
L 519.914845 74.976375 
L 521.365353 74.976375 
L 521.365353 53.475321 
L 522.815861 53.475321 
L 522.815861 55.128497 
L 524.266368 55.128497 
L 524.266368 49.862032 
L 525.716876 49.862032 
L 525.716876 74.06971 
L 527.167384 74.06971 
L 527.167384 59.853525 
L 528.617891 59.853525 
L 528.617891 47.036051 
L 530.068399 47.036051 
L 530.068399 45.659432 
L 531.518907 45.659432 
L 531.518907 49.789203 
L 532.969415 49.789203 
L 532.969415 26.127129 
L 534.419922 26.127129 
L 534.419922 41.176065 
L 535.87043 41.176065 
L 535.87043 68.424998 
L 537.320938 68.424998 
L 537.320938 88.968042 
L 538.771446 88.968042 
L 538.771446 69.40002 
L 540.221953 69.40002 
L 540.221953 53.648712 
L 541.672461 53.648712 
L 541.672461 52.924162 
L 543.122969 52.924162 
L 543.122969 55.659649 
L 544.573477 55.659649 
L 544.573477 99.119732 
L 546.023984 99.119732 
L 546.023984 141.533353 
L 547.474492 141.533353 
L 547.474492 151.123988 
L 548.925 151.123988 
L 548.925 135.105454 
L 550.375508 135.105454 
L 550.375508 140.030478 
L 551.826015 140.030478 
L 551.826015 141.875186 
L 553.276523 141.875186 
L 553.276523 156.785106 
L 554.727031 156.785106 
L 554.727031 147.910689 
L 556.177539 147.910689 
L 556.177539 135.628099 
L 557.628046 135.628099 
L 557.628046 147.487738 
L 559.078554 147.487738 
L 559.078554 151.623803 
L 560.529062 151.623803 
L 560.529062 152.416798 
L 561.97957 152.416798 
L 561.97957 155.020084 
L 563.430077 155.020084 
L 563.430077 153.483008 
L 564.880585 153.483008 
L 564.880585 156.501345 
L 566.331093 156.501345 
L 566.331093 159.54364 
L 567.781601 159.54364 
L 567.781601 164.018891 
L 569.232108 164.018891 
L 569.232108 161.7863 
L 570.682616 161.7863 
L 570.682616 139.997493 
L 572.133124 139.997493 
L 572.133124 118.747909 
L 573.583632 118.747909 
L 573.583632 136.439149 
L 575.034139 136.439149 
L 575.034139 108.244751 
L 576.484647 108.244751 
L 576.484647 104.00296 
L 577.935155 104.00296 
L 577.935155 97.731611 
L 579.385663 97.731611 
L 579.385663 99.128109 
L 580.83617 99.128109 
L 580.83617 87.023987 
L 582.286678 87.023987 
L 582.286678 89.049291 
L 583.737186 89.049291 
L 583.737186 97.299936 
L 585.187694 97.299936 
L 585.187694 85.18427 
L 586.638201 85.18427 
L 586.638201 101.976441 
L 589.539217 102.060033 
L 589.539217 94.568268 
L 590.989724 94.568268 
L 590.989724 115.764424 
L 592.440232 115.764424 
L 592.440232 116.137679 
L 593.89074 116.137679 
L 593.89074 123.969107 
L 595.341248 123.969107 
L 595.341248 94.820693 
L 596.791755 94.820693 
L 596.791755 61.762989 
L 598.242263 61.762989 
L 598.242263 64.879328 
L 599.692771 64.879328 
L 599.692771 52.848339 
L 601.143279 52.848339 
L 601.143279 32.996989 
L 602.593786 32.996989 
L 602.593786 38.528683 
L 604.044294 38.528683 
L 604.044294 40.055951 
L 605.494802 40.055951 
L 605.494802 34.039935 
L 606.94531 34.039935 
L 606.94531 28.729416 
L 608.395817 28.729416 
L 608.395817 27.260872 
L 609.846325 27.260872 
L 609.846325 20.552727 
L 611.296833 20.552727 
L 611.296833 25.997748 
L 612.747341 25.997748 
L 612.747341 49.657088 
L 614.197848 49.657088 
L 614.197848 52.065022 
L 615.648356 52.065022 
L 615.648356 64.118016 
L 617.098864 64.118016 
L 617.098864 53.577403 
L 618.549372 53.577403 
L 618.549372 87.644937 
L 619.999879 87.644937 
L 619.999879 95.113308 
L 621.450387 95.113308 
L 621.450387 99.030715 
L 622.900895 99.030715 
L 622.900895 101.563559 
L 624.351403 101.563559 
L 624.351403 89.580052 
L 625.80191 89.580052 
L 625.80191 82.91214 
L 627.252418 82.91214 
L 627.252418 100.542054 
L 628.702926 100.542054 
L 628.702926 96.553425 
L 630.153434 96.553425 
L 630.153434 114.81362 
L 631.603941 114.81362 
L 631.603941 120.332727 
L 633.054449 120.332727 
L 633.054449 114.905892 
L 634.504957 114.905892 
L 634.504957 118.021666 
L 635.955465 118.021666 
L 635.955465 149.748627 
L 637.405972 149.748627 
L 637.405972 142.144321 
L 638.85648 142.144321 
L 638.85648 137.391299 
L 640.306988 137.391299 
L 640.306988 140.977246 
L 641.757496 140.977246 
L 641.757496 111.717376 
L 643.208003 111.717376 
L 643.208003 117.935774 
L 644.658511 117.935774 
L 644.658511 108.669786 
L 646.109019 108.669786 
L 646.109019 127.858389 
L 647.559527 127.858389 
L 647.559527 140.113202 
L 649.010034 140.113202 
L 649.010034 138.320359 
L 650.460542 138.320359 
L 650.460542 117.661778 
L 651.91105 117.661778 
L 651.91105 136.897039 
L 653.361558 136.897039 
L 653.361558 133.821845 
L 654.812065 133.821845 
L 654.812065 131.305493 
L 656.262573 131.305493 
L 656.262573 118.71245 
L 657.713081 118.71245 
L 657.713081 115.749233 
L 659.163588 115.749233 
L 659.163588 98.590447 
L 660.614096 98.590447 
L 660.614096 104.316495 
L 662.064604 104.316495 
L 662.064604 99.663644 
L 663.515112 99.663644 
L 663.515112 118.466709 
L 664.965619 118.466709 
L 664.965619 127.914161 
L 666.416127 127.914161 
L 666.416127 126.670351 
L 667.866635 126.670351 
L 667.866635 122.386546 
L 669.317143 122.386546 
L 669.317143 130.677252 
L 670.76765 130.677252 
L 670.76765 129.355796 
L 672.218158 129.355796 
L 672.218158 134.82178 
L 673.668666 134.82178 
L 673.668666 145.66191 
L 675.119174 145.66191 
L 675.119174 167.402324 
L 676.569681 167.402324 
L 676.569681 171.435744 
L 678.020189 171.435744 
L 678.020189 177.484398 
L 679.470697 177.484398 
L 679.470697 170.548914 
L 680.921205 170.548914 
L 680.921205 175.2581 
L 682.371712 175.2581 
L 682.371712 164.313633 
L 683.82222 164.313633 
L 683.82222 173.140785 
L 685.272728 173.140785 
L 685.272728 166.907977 
L 686.723236 166.907977 
L 686.723236 178.944739 
L 688.173743 178.944739 
L 688.173743 204.090505 
L 689.624251 204.090505 
L 689.624251 212.816054 
L 691.074759 212.816054 
L 691.074759 210.437981 
L 692.525267 210.437981 
L 692.525267 212.113595 
L 693.975774 212.113595 
L 693.975774 218.517667 
L 695.426282 218.517667 
L 695.426282 214.37188 
L 696.87679 214.37188 
L 696.87679 208.292628 
L 698.327298 208.292628 
L 698.327298 214.190547 
L 699.777805 214.190547 
L 699.777805 211.801102 
L 701.228313 211.801102 
L 701.228313 201.472072 
L 702.678821 201.472072 
L 702.678821 209.516039 
L 704.129329 209.516039 
L 704.129329 198.703426 
L 705.579836 198.703426 
L 705.579836 202.219973 
L 707.030344 202.219973 
L 707.030344 202.370056 
L 708.480852 202.370056 
L 708.480852 197.974622 
L 709.93136 197.974622 
L 709.93136 196.433987 
L 711.381867 196.433987 
L 711.381867 201.298899 
L 712.832375 201.298899 
L 712.832375 209.072429 
L 714.282883 209.072429 
L 714.282883 214.148751 
L 715.733391 214.148751 
L 715.733391 216.059734 
L 717.183898 216.059734 
L 717.183898 215.877793 
L 718.634406 215.877793 
L 718.634406 218.285988 
L 720.084914 218.285988 
L 720.084914 207.372856 
L 721.535421 207.372856 
L 721.535421 216.486504 
L 722.985929 216.486504 
L 722.985929 217.148339 
L 724.436437 217.148339 
L 724.436437 218.283818 
L 725.886945 218.283818 
L 725.886945 219.046345 
L 727.337452 219.046345 
L 727.337452 218.135774 
L 728.78796 218.135774 
L 728.78796 214.433163 
L 730.238468 214.433163 
L 730.238468 217.583746 
L 731.688976 217.583746 
L 731.688976 217.837864 
L 733.139483 217.837864 
L 733.139483 217.118956 
L 734.589991 217.118956 
L 734.589991 218.757939 
L 736.040499 218.757939 
L 736.040499 214.721872 
L 737.491007 214.721872 
L 737.491007 211.619118 
L 738.941514 211.619118 
L 738.941514 214.493058 
L 740.392022 214.493058 
L 740.392022 211.167001 
L 741.84253 211.167001 
L 741.84253 225.793855 
L 743.293038 225.793855 
L 743.293038 229.970283 
L 744.743545 229.970283 
L 744.743545 229.556837 
L 746.194053 229.556837 
L 746.194053 231.676887 
L 747.644561 231.676887 
L 747.644561 230.553995 
L 749.095069 230.553995 
L 749.095069 227.441432 
L 750.545576 227.441432 
L 750.545576 227.671679 
L 751.996084 227.671679 
L 751.996084 227.163834 
L 753.446592 227.163834 
L 753.446592 227.2841 
L 754.8971 227.2841 
L 754.8971 229.754837 
L 756.347607 229.754837 
L 756.347607 228.595834 
L 757.798115 228.595834 
L 757.798115 228.88463 
L 759.248623 228.88463 
L 759.248623 230.181563 
L 760.699131 230.181563 
L 760.699131 229.858524 
L 762.149638 229.858524 
L 762.149638 228.935366 
L 763.600146 228.935366 
L 763.600146 227.348335 
L 765.050654 227.348335 
L 765.050654 215.450633 
L 766.501162 215.450633 
L 766.501162 210.191111 
L 767.951669 210.191111 
L 767.951669 203.128243 
L 769.402177 203.128243 
L 769.402177 201.751363 
L 770.852685 201.751363 
L 770.852685 198.860323 
L 772.303193 198.860323 
L 772.303193 200.168628 
L 773.7537 200.168628 
L 773.7537 203.166263 
L 775.204208 203.166263 
L 775.204208 208.049795 
L 776.654716 208.049795 
L 776.654716 205.561784 
L 778.105224 205.561784 
L 778.105224 195.01453 
L 779.555731 195.01453 
L 779.555731 196.994826 
L 781.006239 196.994826 
L 781.006239 199.69685 
L 782.456747 199.69685 
L 782.456747 200.112423 
L 783.907254 200.112423 
L 783.907254 204.698869 
L 785.357762 204.698869 
L 785.357762 214.185512 
L 786.80827 214.185512 
L 786.80827 194.46975 
L 788.258778 194.46975 
L 788.258778 184.886928 
L 789.709285 184.886928 
L 789.709285 183.450631 
L 791.159793 183.450631 
L 791.159793 180.440627 
L 792.610301 180.440627 
L 792.610301 180.296446 
L 794.060809 180.296446 
L 794.060809 181.298291 
L 795.511316 181.298291 
L 795.511316 180.763059 
L 796.961824 180.763059 
L 796.961824 170.739709 
L 798.412332 170.739709 
L 798.412332 170.373657 
L 799.86284 170.373657 
L 799.86284 176.839446 
L 801.313347 176.839446 
L 801.313347 182.217021 
L 802.763855 182.217021 
L 802.763855 174.014941 
L 804.214363 174.014941 
L 804.214363 180.063856 
L 805.664871 180.063856 
L 805.664871 173.776101 
L 807.115378 173.776101 
L 807.115378 182.002008 
L 808.565886 182.002008 
L 808.565886 185.709176 
L 810.016394 185.709176 
L 810.016394 183.051551 
L 811.466902 183.051551 
L 811.466902 185.836647 
L 812.917409 185.836647 
L 812.917409 187.048774 
L 814.367917 187.048774 
L 814.367917 181.548155 
L 815.818425 181.548155 
L 815.818425 183.686694 
L 818.71944 183.722674 
L 818.71944 189.759088 
L 820.169948 189.759088 
L 820.169948 192.909107 
L 821.620456 192.909107 
L 821.620456 187.657311 
L 823.070964 187.657311 
L 823.070964 172.177394 
L 824.521471 172.177394 
L 824.521471 170.602038 
L 825.971979 170.602038 
L 825.971979 169.713168 
L 827.422487 169.713168 
L 827.422487 168.396487 
L 828.872995 168.396487 
L 828.872995 170.828379 
L 830.323502 170.828379 
L 830.323502 170.059775 
L 831.77401 170.059775 
L 831.77401 170.716706 
L 833.224518 170.716706 
L 833.224518 172.617663 
L 834.675026 172.617663 
L 834.675026 175.325373 
L 836.125533 175.325373 
L 836.125533 174.72773 
L 837.576041 174.72773 
L 837.576041 173.132756 
L 839.026549 173.132756 
L 839.026549 175.891377 
L 840.477057 175.891377 
L 840.477057 173.643986 
L 841.927564 173.643986 
L 841.927564 174.867831 
L 843.378072 174.867831 
L 843.378072 186.246881 
L 844.82858 186.246881 
L 844.82858 188.584678 
L 846.279088 188.584678 
L 846.279088 188.905808 
L 847.729595 188.905808 
L 847.729595 181.606444 
L 849.180103 181.606444 
L 849.180103 189.688474 
L 850.630611 189.688474 
L 850.630611 190.19098 
L 852.081118 190.19098 
L 852.081118 189.845892 
L 853.531626 189.845892 
L 853.531626 186.793875 
L 854.982134 186.793875 
L 854.982134 185.805441 
L 856.432642 185.805441 
L 856.432642 186.594921 
L 857.883149 186.594921 
L 857.883149 188.196622 
L 859.333657 188.196622 
L 859.333657 184.908456 
L 860.784165 184.908456 
L 860.784165 181.318559 
L 862.234673 181.318559 
L 862.234673 180.712583 
L 863.68518 180.712583 
L 863.68518 185.827576 
L 865.135688 185.827576 
L 865.135688 178.194669 
L 866.586196 178.194669 
L 866.586196 173.137139 
L 868.036704 173.137139 
L 868.036704 154.821347 
L 869.487211 154.821347 
L 869.487211 154.005262 
L 870.937719 154.005262 
L 870.937719 148.146752 
L 872.388227 148.146752 
L 872.388227 149.848798 
L 873.838735 149.848798 
L 873.838735 142.696609 
L 875.289242 142.696609 
L 875.289242 143.559872 
L 876.73975 143.559872 
L 876.73975 143.008886 
L 878.190258 143.008886 
L 878.190258 146.547654 
L 879.640766 146.547654 
L 879.640766 137.902052 
L 881.091273 137.902052 
L 881.091273 137.613733 
L 882.541781 137.613733 
L 882.541781 128.461718 
L 883.992289 128.461718 
L 883.992289 114.040763 
L 885.442797 114.040763 
L 885.442797 122.983234 
L 886.893304 122.983234 
L 886.893304 119.96073 
L 888.343812 119.96073 
L 888.343812 118.537541 
L 889.79432 118.537541 
L 889.79432 112.115327 
L 891.244828 112.115327 
L 891.244828 113.293991 
L 892.695335 113.293991 
L 892.695335 118.593659 
L 894.145843 118.593659 
L 894.145843 110.171923 
L 895.596351 110.171923 
L 895.596351 98.096143 
L 897.046859 98.096143 
L 897.046859 116.014331 
L 898.497366 116.014331 
L 898.497366 114.762536 
L 899.947874 114.762536 
L 899.947874 121.155626 
L 901.398382 121.155626 
L 901.398382 128.060468 
L 902.84889 128.060468 
L 902.84889 119.543639 
L 904.299397 119.543639 
L 904.299397 115.291982 
L 905.101932 115.291982 
L 905.101932 115.291982 
" clip-path="url(#p866d53821b)" style="fill: none; stroke: #3572c6; stroke-width: 1.2; stroke-linecap: square"/>
   </g>
   <g id="patch_3">
    <path d="M 52.88375 300.96 
L 52.88375 7.2 
" style="fill: none; stroke: #899ab8; stroke-width: 1.12; stroke-linejoin: miter; stroke-linecap: square"/>
   </g>
   <g id="patch_4">
    <path d="M 945.68375 300.96 
L 945.68375 7.2 
" style="fill: none; stroke: #899ab8; stroke-width: 1.12; stroke-linejoin: miter; stroke-linecap: square"/>
   </g>
   <g id="patch_5">
    <path d="M 52.88375 300.96 
L 945.68375 300.96 
" style="fill: none; stroke: #899ab8; stroke-width: 1.12; stroke-linejoin: miter; stroke-linecap: square"/>
   </g>
   <g id="patch_6">
    <path d="M 52.88375 7.2 
L 945.68375 7.2 
" style="fill: none; stroke: #899ab8; stroke-width: 1.12; stroke-linejoin: miter; stroke-linecap: square"/>
   </g>
  </g>
 </g>
 <defs>
  <clipPath id="p866d53821b">
   <rect x="52.88375" y="7.2" width="892.8" height="293.76"/>
  </clipPath>
 </defs>
</svg>
