<?xml version="1.0" encoding="utf-8" standalone="no"?>
<!DOCTYPE svg PUBLIC "-//W3C//DTD SVG 1.1//EN"
  "http://www.w3.org/Graphics/SVG/1.1/DTD/svg11.dtd">
<svg xmlns:xlink="http://www.w3.org/1999/xlink" width="934.976pt" height="358.843487pt" viewBox="0 0 934.976 358.843487" xmlns="http://www.w3.org/2000/svg" version="1.1">
 <metadata>
  <rdf:RDF xmlns:dc="http://purl.org/dc/elements/1.1/" xmlns:cc="http://creativecommons.org/ns#" xmlns:rdf="http://www.w3.org/1999/02/22-rdf-syntax-ns#">
   <cc:Work>
    <dc:type rdf:resource="http://purl.org/dc/dcmitype/StillImage"/>
    <dc:date>2023-08-27T17:26:34.833853</dc:date>
    <dc:format>image/svg+xml</dc:format>
    <dc:creator>
     <cc:Agent>
      <dc:title>Matplotlib v3.7.2, https://matplotlib.org/</dc:title>
     </cc:Agent>
    </dc:creator>
   </cc:Work>
  </rdf:RDF>
 </metadata>
 <defs>
  <style type="text/css">*{stroke-linejoin: round; stroke-linecap: butt}</style>
 </defs>
 <g id="figure_1">
  <g id="patch_1">
   <path d="M 0 358.843487 
L 934.976 358.843487 
L 934.976 0 
L 0 0 
z
" style="fill: #373e4b"/>
  </g>
  <g id="axes_1">
   <g id="patch_2">
    <path d="M 34.976 301.512794 
L 927.776 301.512794 
L 927.776 7.752794 
L 34.976 7.752794 
z
" style="fill: #373e4b"/>
   </g>
   <g id="matplotlib.axis_1">
    <g id="xtick_1">
     <g id="line2d_1">
      <path d="M 149.236944 301.512794 
L 149.236944 7.752794 
" clip-path="url(#p6947e823d5)" style="fill: none; stroke: #546379; stroke-width: 1.12; stroke-linecap: square"/>
     </g>
     <g id="line2d_2"/>
     <g id="text_1">
      <!-- 2012 -->
      <g style="fill: #b1bed6" transform="translate(120.155904 331.437649) rotate(-30) scale(0.126 -0.126)">
       <defs>
        <path id="DejaVuSans-32" d="M 1228 531 
L 3431 531 
L 3431 0 
L 469 0 
L 469 531 
Q 828 903 1448 1529 
Q 2069 2156 2228 2338 
Q 2531 2678 2651 2914 
Q 2772 3150 2772 3378 
Q 2772 3750 2511 3984 
Q 2250 4219 1831 4219 
Q 1534 4219 1204 4116 
Q 875 4013 500 3803 
L 500 4441 
Q 881 4594 1212 4672 
Q 1544 4750 1819 4750 
Q 2544 4750 2975 4387 
Q 3406 4025 3406 3419 
Q 3406 3131 3298 2873 
Q 3191 2616 2906 2266 
Q 2828 2175 2409 1742 
Q 1991 1309 1228 531 
z
" transform="scale(0.015625)"/>
        <path id="DejaVuSans-30" d="M 2034 4250 
Q 1547 4250 1301 3770 
Q 1056 3291 1056 2328 
Q 1056 1369 1301 889 
Q 1547 409 2034 409 
Q 2525 409 2770 889 
Q 3016 1369 3016 2328 
Q 3016 3291 2770 3770 
Q 2525 4250 2034 4250 
z
M 2034 4750 
Q 2819 4750 3233 4129 
Q 3647 3509 3647 2328 
Q 3647 1150 3233 529 
Q 2819 -91 2034 -91 
Q 1250 -91 836 529 
Q 422 1150 422 2328 
Q 422 3509 836 4129 
Q 1250 4750 2034 4750 
z
" transform="scale(0.015625)"/>
        <path id="DejaVuSans-31" d="M 794 531 
L 1825 531 
L 1825 4091 
L 703 3866 
L 703 4441 
L 1819 4666 
L 2450 4666 
L 2450 531 
L 3481 531 
L 3481 0 
L 794 0 
L 794 531 
z
" transform="scale(0.015625)"/>
       </defs>
       <use xlink:href="#DejaVuSans-32"/>
       <use xlink:href="#DejaVuSans-30" x="63.623047"/>
       <use xlink:href="#DejaVuSans-31" x="127.246094"/>
       <use xlink:href="#DejaVuSans-32" x="190.869141"/>
      </g>
     </g>
    </g>
    <g id="xtick_2">
     <g id="line2d_3">
      <path d="M 275.965039 301.512794 
L 275.965039 7.752794 
" clip-path="url(#p6947e823d5)" style="fill: none; stroke: #546379; stroke-width: 1.12; stroke-linecap: square"/>
     </g>
     <g id="line2d_4"/>
     <g id="text_2">
      <!-- 2014 -->
      <g style="fill: #b1bed6" transform="translate(246.884 331.437649) rotate(-30) scale(0.126 -0.126)">
       <defs>
        <path id="DejaVuSans-34" d="M 2419 4116 
L 825 1625 
L 2419 1625 
L 2419 4116 
z
M 2253 4666 
L 3047 4666 
L 3047 1625 
L 3713 1625 
L 3713 1100 
L 3047 1100 
L 3047 0 
L 2419 0 
L 2419 1100 
L 313 1100 
L 313 1709 
L 2253 4666 
z
" transform="scale(0.015625)"/>
       </defs>
       <use xlink:href="#DejaVuSans-32"/>
       <use xlink:href="#DejaVuSans-30" x="63.623047"/>
       <use xlink:href="#DejaVuSans-31" x="127.246094"/>
       <use xlink:href="#DejaVuSans-34" x="190.869141"/>
      </g>
     </g>
    </g>
    <g id="xtick_3">
     <g id="line2d_5">
      <path d="M 402.519772 301.512794 
L 402.519772 7.752794 
" clip-path="url(#p6947e823d5)" style="fill: none; stroke: #546379; stroke-width: 1.12; stroke-linecap: square"/>
     </g>
     <g id="line2d_6"/>
     <g id="text_3">
      <!-- 2016 -->
      <g style="fill: #b1bed6" transform="translate(373.438733 331.437649) rotate(-30) scale(0.126 -0.126)">
       <defs>
        <path id="DejaVuSans-36" d="M 2113 2584 
Q 1688 2584 1439 2293 
Q 1191 2003 1191 1497 
Q 1191 994 1439 701 
Q 1688 409 2113 409 
Q 2538 409 2786 701 
Q 3034 994 3034 1497 
Q 3034 2003 2786 2293 
Q 2538 2584 2113 2584 
z
M 3366 4563 
L 3366 3988 
Q 3128 4100 2886 4159 
Q 2644 4219 2406 4219 
Q 1781 4219 1451 3797 
Q 1122 3375 1075 2522 
Q 1259 2794 1537 2939 
Q 1816 3084 2150 3084 
Q 2853 3084 3261 2657 
Q 3669 2231 3669 1497 
Q 3669 778 3244 343 
Q 2819 -91 2113 -91 
Q 1303 -91 875 529 
Q 447 1150 447 2328 
Q 447 3434 972 4092 
Q 1497 4750 2381 4750 
Q 2619 4750 2861 4703 
Q 3103 4656 3366 4563 
z
" transform="scale(0.015625)"/>
       </defs>
       <use xlink:href="#DejaVuSans-32"/>
       <use xlink:href="#DejaVuSans-30" x="63.623047"/>
       <use xlink:href="#DejaVuSans-31" x="127.246094"/>
       <use xlink:href="#DejaVuSans-36" x="190.869141"/>
      </g>
     </g>
    </g>
    <g id="xtick_4">
     <g id="line2d_7">
      <path d="M 529.247868 301.512794 
L 529.247868 7.752794 
" clip-path="url(#p6947e823d5)" style="fill: none; stroke: #546379; stroke-width: 1.12; stroke-linecap: square"/>
     </g>
     <g id="line2d_8"/>
     <g id="text_4">
      <!-- 2018 -->
      <g style="fill: #b1bed6" transform="translate(500.166828 331.437649) rotate(-30) scale(0.126 -0.126)">
       <defs>
        <path id="DejaVuSans-38" d="M 2034 2216 
Q 1584 2216 1326 1975 
Q 1069 1734 1069 1313 
Q 1069 891 1326 650 
Q 1584 409 2034 409 
Q 2484 409 2743 651 
Q 3003 894 3003 1313 
Q 3003 1734 2745 1975 
Q 2488 2216 2034 2216 
z
M 1403 2484 
Q 997 2584 770 2862 
Q 544 3141 544 3541 
Q 544 4100 942 4425 
Q 1341 4750 2034 4750 
Q 2731 4750 3128 4425 
Q 3525 4100 3525 3541 
Q 3525 3141 3298 2862 
Q 3072 2584 2669 2484 
Q 3125 2378 3379 2068 
Q 3634 1759 3634 1313 
Q 3634 634 3220 271 
Q 2806 -91 2034 -91 
Q 1263 -91 848 271 
Q 434 634 434 1313 
Q 434 1759 690 2068 
Q 947 2378 1403 2484 
z
M 1172 3481 
Q 1172 3119 1398 2916 
Q 1625 2713 2034 2713 
Q 2441 2713 2670 2916 
Q 2900 3119 2900 3481 
Q 2900 3844 2670 4047 
Q 2441 4250 2034 4250 
Q 1625 4250 1398 4047 
Q 1172 3844 1172 3481 
z
" transform="scale(0.015625)"/>
       </defs>
       <use xlink:href="#DejaVuSans-32"/>
       <use xlink:href="#DejaVuSans-30" x="63.623047"/>
       <use xlink:href="#DejaVuSans-31" x="127.246094"/>
       <use xlink:href="#DejaVuSans-38" x="190.869141"/>
      </g>
     </g>
    </g>
    <g id="xtick_5">
     <g id="line2d_9">
      <path d="M 655.802601 301.512794 
L 655.802601 7.752794 
" clip-path="url(#p6947e823d5)" style="fill: none; stroke: #546379; stroke-width: 1.12; stroke-linecap: square"/>
     </g>
     <g id="line2d_10"/>
     <g id="text_5">
      <!-- 2020 -->
      <g style="fill: #b1bed6" transform="translate(626.721561 331.437649) rotate(-30) scale(0.126 -0.126)">
       <use xlink:href="#DejaVuSans-32"/>
       <use xlink:href="#DejaVuSans-30" x="63.623047"/>
       <use xlink:href="#DejaVuSans-32" x="127.246094"/>
       <use xlink:href="#DejaVuSans-30" x="190.869141"/>
      </g>
     </g>
    </g>
    <g id="xtick_6">
     <g id="line2d_11">
      <path d="M 782.530697 301.512794 
L 782.530697 7.752794 
" clip-path="url(#p6947e823d5)" style="fill: none; stroke: #546379; stroke-width: 1.12; stroke-linecap: square"/>
     </g>
     <g id="line2d_12"/>
     <g id="text_6">
      <!-- 2022 -->
      <g style="fill: #b1bed6" transform="translate(753.449657 331.437649) rotate(-30) scale(0.126 -0.126)">
       <use xlink:href="#DejaVuSans-32"/>
       <use xlink:href="#DejaVuSans-30" x="63.623047"/>
       <use xlink:href="#DejaVuSans-32" x="127.246094"/>
       <use xlink:href="#DejaVuSans-32" x="190.869141"/>
      </g>
     </g>
    </g>
    <g id="xtick_7">
     <g id="line2d_13">
      <path d="M 909.08543 301.512794 
L 909.08543 7.752794 
" clip-path="url(#p6947e823d5)" style="fill: none; stroke: #546379; stroke-width: 1.12; stroke-linecap: square"/>
     </g>
     <g id="line2d_14"/>
     <g id="text_7">
      <!-- 2024 -->
      <g style="fill: #b1bed6" transform="translate(880.00439 331.437649) rotate(-30) scale(0.126 -0.126)">
       <use xlink:href="#DejaVuSans-32"/>
       <use xlink:href="#DejaVuSans-30" x="63.623047"/>
       <use xlink:href="#DejaVuSans-32" x="127.246094"/>
       <use xlink:href="#DejaVuSans-34" x="190.869141"/>
      </g>
     </g>
    </g>
    <g id="text_8">
     <!-- Date -->
     <g style="fill: #b1bed6" transform="translate(464.166875 348.648737) scale(0.144 -0.144)">
      <defs>
       <path id="DejaVuSans-44" d="M 1259 4147 
L 1259 519 
L 2022 519 
Q 2988 519 3436 956 
Q 3884 1394 3884 2338 
Q 3884 3275 3436 3711 
Q 2988 4147 2022 4147 
L 1259 4147 
z
M 628 4666 
L 1925 4666 
Q 3281 4666 3915 4102 
Q 4550 3538 4550 2338 
Q 4550 1131 3912 565 
Q 3275 0 1925 0 
L 628 0 
L 628 4666 
z
" transform="scale(0.015625)"/>
       <path id="DejaVuSans-61" d="M 2194 1759 
Q 1497 1759 1228 1600 
Q 959 1441 959 1056 
Q 959 750 1161 570 
Q 1363 391 1709 391 
Q 2188 391 2477 730 
Q 2766 1069 2766 1631 
L 2766 1759 
L 2194 1759 
z
M 3341 1997 
L 3341 0 
L 2766 0 
L 2766 531 
Q 2569 213 2275 61 
Q 1981 -91 1556 -91 
Q 1019 -91 701 211 
Q 384 513 384 1019 
Q 384 1609 779 1909 
Q 1175 2209 1959 2209 
L 2766 2209 
L 2766 2266 
Q 2766 2663 2505 2880 
Q 2244 3097 1772 3097 
Q 1472 3097 1187 3025 
Q 903 2953 641 2809 
L 641 3341 
Q 956 3463 1253 3523 
Q 1550 3584 1831 3584 
Q 2591 3584 2966 3190 
Q 3341 2797 3341 1997 
z
" transform="scale(0.015625)"/>
       <path id="DejaVuSans-74" d="M 1172 4494 
L 1172 3500 
L 2356 3500 
L 2356 3053 
L 1172 3053 
L 1172 1153 
Q 1172 725 1289 603 
Q 1406 481 1766 481 
L 2356 481 
L 2356 0 
L 1766 0 
Q 1100 0 847 248 
Q 594 497 594 1153 
L 594 3053 
L 172 3053 
L 172 3500 
L 594 3500 
L 594 4494 
L 1172 4494 
z
" transform="scale(0.015625)"/>
       <path id="DejaVuSans-65" d="M 3597 1894 
L 3597 1613 
L 953 1613 
Q 991 1019 1311 708 
Q 1631 397 2203 397 
Q 2534 397 2845 478 
Q 3156 559 3463 722 
L 3463 178 
Q 3153 47 2828 -22 
Q 2503 -91 2169 -91 
Q 1331 -91 842 396 
Q 353 884 353 1716 
Q 353 2575 817 3079 
Q 1281 3584 2069 3584 
Q 2775 3584 3186 3129 
Q 3597 2675 3597 1894 
z
M 3022 2063 
Q 3016 2534 2758 2815 
Q 2500 3097 2075 3097 
Q 1594 3097 1305 2825 
Q 1016 2553 972 2059 
L 3022 2063 
z
" transform="scale(0.015625)"/>
      </defs>
      <use xlink:href="#DejaVuSans-44"/>
      <use xlink:href="#DejaVuSans-61" x="77.001953"/>
      <use xlink:href="#DejaVuSans-74" x="138.28125"/>
      <use xlink:href="#DejaVuSans-65" x="177.490234"/>
     </g>
    </g>
   </g>
   <g id="matplotlib.axis_2">
    <g id="ytick_1">
     <g id="line2d_15">
      <path d="M 34.976 254.287862 
L 927.776 254.287862 
" clip-path="url(#p6947e823d5)" style="fill: none; stroke: #546379; stroke-width: 1.12; stroke-linecap: square"/>
     </g>
     <g id="line2d_16"/>
     <g id="text_9">
      <!-- $\mathdefault{10^{0}}$ -->
      <g style="fill: #b1bed6" transform="translate(7.2 259.074878) scale(0.126 -0.126)">
       <use xlink:href="#DejaVuSans-31" transform="translate(0 0.765625)"/>
       <use xlink:href="#DejaVuSans-30" transform="translate(63.623047 0.765625)"/>
       <use xlink:href="#DejaVuSans-30" transform="translate(128.203125 39.046875) scale(0.7)"/>
      </g>
     </g>
    </g>
    <g id="ytick_2">
     <g id="line2d_17">
      <path d="M 34.976 205.827693 
L 927.776 205.827693 
" clip-path="url(#p6947e823d5)" style="fill: none; stroke: #546379; stroke-width: 1.12; stroke-linecap: square"/>
     </g>
     <g id="line2d_18"/>
     <g id="text_10">
      <!-- $\mathdefault{10^{1}}$ -->
      <g style="fill: #b1bed6" transform="translate(7.2 210.614709) scale(0.126 -0.126)">
       <use xlink:href="#DejaVuSans-31" transform="translate(0 0.684375)"/>
       <use xlink:href="#DejaVuSans-30" transform="translate(63.623047 0.684375)"/>
       <use xlink:href="#DejaVuSans-31" transform="translate(128.203125 38.965625) scale(0.7)"/>
      </g>
     </g>
    </g>
    <g id="ytick_3">
     <g id="line2d_19">
      <path d="M 34.976 157.367524 
L 927.776 157.367524 
" clip-path="url(#p6947e823d5)" style="fill: none; stroke: #546379; stroke-width: 1.12; stroke-linecap: square"/>
     </g>
     <g id="line2d_20"/>
     <g id="text_11">
      <!-- $\mathdefault{10^{2}}$ -->
      <g style="fill: #b1bed6" transform="translate(7.2 162.154539) scale(0.126 -0.126)">
       <use xlink:href="#DejaVuSans-31" transform="translate(0 0.765625)"/>
       <use xlink:href="#DejaVuSans-30" transform="translate(63.623047 0.765625)"/>
       <use xlink:href="#DejaVuSans-32" transform="translate(128.203125 39.046875) scale(0.7)"/>
      </g>
     </g>
    </g>
    <g id="ytick_4">
     <g id="line2d_21">
      <path d="M 34.976 108.907354 
L 927.776 108.907354 
" clip-path="url(#p6947e823d5)" style="fill: none; stroke: #546379; stroke-width: 1.12; stroke-linecap: square"/>
     </g>
     <g id="line2d_22"/>
     <g id="text_12">
      <!-- $\mathdefault{10^{3}}$ -->
      <g style="fill: #b1bed6" transform="translate(7.2 113.69437) scale(0.126 -0.126)">
       <defs>
        <path id="DejaVuSans-33" d="M 2597 2516 
Q 3050 2419 3304 2112 
Q 3559 1806 3559 1356 
Q 3559 666 3084 287 
Q 2609 -91 1734 -91 
Q 1441 -91 1130 -33 
Q 819 25 488 141 
L 488 750 
Q 750 597 1062 519 
Q 1375 441 1716 441 
Q 2309 441 2620 675 
Q 2931 909 2931 1356 
Q 2931 1769 2642 2001 
Q 2353 2234 1838 2234 
L 1294 2234 
L 1294 2753 
L 1863 2753 
Q 2328 2753 2575 2939 
Q 2822 3125 2822 3475 
Q 2822 3834 2567 4026 
Q 2313 4219 1838 4219 
Q 1578 4219 1281 4162 
Q 984 4106 628 3988 
L 628 4550 
Q 988 4650 1302 4700 
Q 1616 4750 1894 4750 
Q 2613 4750 3031 4423 
Q 3450 4097 3450 3541 
Q 3450 3153 3228 2886 
Q 3006 2619 2597 2516 
z
" transform="scale(0.015625)"/>
       </defs>
       <use xlink:href="#DejaVuSans-31" transform="translate(0 0.765625)"/>
       <use xlink:href="#DejaVuSans-30" transform="translate(63.623047 0.765625)"/>
       <use xlink:href="#DejaVuSans-33" transform="translate(128.203125 39.046875) scale(0.7)"/>
      </g>
     </g>
    </g>
    <g id="ytick_5">
     <g id="line2d_23">
      <path d="M 34.976 60.447185 
L 927.776 60.447185 
" clip-path="url(#p6947e823d5)" style="fill: none; stroke: #546379; stroke-width: 1.12; stroke-linecap: square"/>
     </g>
     <g id="line2d_24"/>
     <g id="text_13">
      <!-- $\mathdefault{10^{4}}$ -->
      <g style="fill: #b1bed6" transform="translate(7.2 65.234201) scale(0.126 -0.126)">
       <use xlink:href="#DejaVuSans-31" transform="translate(0 0.684375)"/>
       <use xlink:href="#DejaVuSans-30" transform="translate(63.623047 0.684375)"/>
       <use xlink:href="#DejaVuSans-34" transform="translate(128.203125 38.965625) scale(0.7)"/>
      </g>
     </g>
    </g>
    <g id="ytick_6">
     <g id="line2d_25">
      <path d="M 34.976 11.987016 
L 927.776 11.987016 
" clip-path="url(#p6947e823d5)" style="fill: none; stroke: #546379; stroke-width: 1.12; stroke-linecap: square"/>
     </g>
     <g id="line2d_26"/>
     <g id="text_14">
      <!-- $\mathdefault{10^{5}}$ -->
      <g style="fill: #b1bed6" transform="translate(7.2 16.774031) scale(0.126 -0.126)">
       <defs>
        <path id="DejaVuSans-35" d="M 691 4666 
L 3169 4666 
L 3169 4134 
L 1269 4134 
L 1269 2991 
Q 1406 3038 1543 3061 
Q 1681 3084 1819 3084 
Q 2600 3084 3056 2656 
Q 3513 2228 3513 1497 
Q 3513 744 3044 326 
Q 2575 -91 1722 -91 
Q 1428 -91 1123 -41 
Q 819 9 494 109 
L 494 744 
Q 775 591 1075 516 
Q 1375 441 1709 441 
Q 2250 441 2565 725 
Q 2881 1009 2881 1497 
Q 2881 1984 2565 2268 
Q 2250 2553 1709 2553 
Q 1456 2553 1204 2497 
Q 953 2441 691 2322 
L 691 4666 
z
" transform="scale(0.015625)"/>
       </defs>
       <use xlink:href="#DejaVuSans-31" transform="translate(0 0.684375)"/>
       <use xlink:href="#DejaVuSans-30" transform="translate(63.623047 0.684375)"/>
       <use xlink:href="#DejaVuSans-35" transform="translate(128.203125 38.965625) scale(0.7)"/>
      </g>
     </g>
    </g>
    <g id="ytick_7">
     <g id="line2d_27"/>
    </g>
    <g id="ytick_8">
     <g id="line2d_28"/>
    </g>
    <g id="ytick_9">
     <g id="line2d_29"/>
    </g>
    <g id="ytick_10">
     <g id="line2d_30"/>
    </g>
    <g id="ytick_11">
     <g id="line2d_31"/>
    </g>
    <g id="ytick_12">
     <g id="line2d_32"/>
    </g>
    <g id="ytick_13">
     <g id="line2d_33"/>
    </g>
    <g id="ytick_14">
     <g id="line2d_34"/>
    </g>
    <g id="ytick_15">
     <g id="line2d_35"/>
    </g>
    <g id="ytick_16">
     <g id="line2d_36"/>
    </g>
    <g id="ytick_17">
     <g id="line2d_37"/>
    </g>
    <g id="ytick_18">
     <g id="line2d_38"/>
    </g>
    <g id="ytick_19">
     <g id="line2d_39"/>
    </g>
    <g id="ytick_20">
     <g id="line2d_40"/>
    </g>
    <g id="ytick_21">
     <g id="line2d_41"/>
    </g>
    <g id="ytick_22">
     <g id="line2d_42"/>
    </g>
    <g id="ytick_23">
     <g id="line2d_43"/>
    </g>
    <g id="ytick_24">
     <g id="line2d_44"/>
    </g>
    <g id="ytick_25">
     <g id="line2d_45"/>
    </g>
    <g id="ytick_26">
     <g id="line2d_46"/>
    </g>
    <g id="ytick_27">
     <g id="line2d_47"/>
    </g>
    <g id="ytick_28">
     <g id="line2d_48"/>
    </g>
    <g id="ytick_29">
     <g id="line2d_49"/>
    </g>
    <g id="ytick_30">
     <g id="line2d_50"/>
    </g>
    <g id="ytick_31">
     <g id="line2d_51"/>
    </g>
    <g id="ytick_32">
     <g id="line2d_52"/>
    </g>
    <g id="ytick_33">
     <g id="line2d_53"/>
    </g>
    <g id="ytick_34">
     <g id="line2d_54"/>
    </g>
    <g id="ytick_35">
     <g id="line2d_55"/>
    </g>
    <g id="ytick_36">
     <g id="line2d_56"/>
    </g>
    <g id="ytick_37">
     <g id="line2d_57"/>
    </g>
    <g id="ytick_38">
     <g id="line2d_58"/>
    </g>
    <g id="ytick_39">
     <g id="line2d_59"/>
    </g>
    <g id="ytick_40">
     <g id="line2d_60"/>
    </g>
    <g id="ytick_41">
     <g id="line2d_61"/>
    </g>
    <g id="ytick_42">
     <g id="line2d_62"/>
    </g>
    <g id="ytick_43">
     <g id="line2d_63"/>
    </g>
    <g id="ytick_44">
     <g id="line2d_64"/>
    </g>
    <g id="ytick_45">
     <g id="line2d_65"/>
    </g>
    <g id="ytick_46">
     <g id="line2d_66"/>
    </g>
    <g id="ytick_47">
     <g id="line2d_67"/>
    </g>
    <g id="ytick_48">
     <g id="line2d_68"/>
    </g>
    <g id="ytick_49">
     <g id="line2d_69"/>
    </g>
    <g id="ytick_50">
     <g id="line2d_70"/>
    </g>
    <g id="ytick_51">
     <g id="line2d_71"/>
    </g>
    <g id="ytick_52">
     <g id="line2d_72"/>
    </g>
    <g id="ytick_53">
     <g id="line2d_73"/>
    </g>
    <g id="ytick_54">
     <g id="line2d_74"/>
    </g>
   </g>
   <g id="line2d_75">
    <path d="M 75.557818 288.160067 
L 75.557818 283.463791 
L 76.251269 283.463791 
L 76.251269 278.268378 
L 76.944719 278.268378 
L 76.944719 279.626655 
L 77.63817 279.626655 
L 77.63817 281.078678 
L 78.331621 281.078678 
L 78.331621 280.340146 
L 79.025071 280.340146 
L 79.025071 281.078678 
L 80.411972 281.078678 
L 80.411972 282.638353 
L 81.105423 282.638353 
L 81.105423 285.218639 
L 82.492324 285.218639 
L 82.492324 283.463791 
L 83.185775 283.463791 
L 83.185775 282.638353 
L 83.879225 282.638353 
L 83.879225 283.463791 
L 84.572676 283.463791 
L 84.572676 281.844071 
L 85.266126 281.844071 
L 85.266126 279.626655 
L 86.653028 279.626655 
L 86.653028 278.268378 
L 87.346478 278.268378 
L 87.346478 275.789518 
L 88.039929 275.789518 
L 88.039929 273.572103 
L 88.733379 273.572103 
L 88.733379 274.65162 
L 89.42683 274.65162 
L 89.42683 271.566206 
L 90.120281 271.566206 
L 90.120281 271.093243 
L 90.813731 271.093243 
L 90.813731 256.04271 
L 92.200632 256.04271 
L 92.200632 254.928906 
L 92.894083 254.928906 
L 92.894083 252.668141 
L 93.587534 252.668141 
L 93.587534 253.261025 
L 94.280984 253.261025 
L 94.280984 256.978241 
L 94.974435 256.978241 
L 94.974435 254.287862 
L 95.667885 254.287862 
L 95.667885 254.928906 
L 96.361336 254.928906 
L 96.361336 256.04271 
L 97.054787 256.04271 
L 97.054787 256.978241 
L 97.748237 256.978241 
L 97.748237 256.272723 
L 98.441688 256.272723 
L 98.441688 257.21877 
L 99.135138 257.21877 
L 99.135138 259.248871 
L 99.828589 259.248871 
L 99.828589 256.740431 
L 100.522039 256.740431 
L 100.522039 258.984138 
L 101.908941 258.984138 
L 101.908941 260.342415 
L 102.602391 260.342415 
L 102.602391 260.063656 
L 103.295842 260.063656 
L 103.295842 254.713048 
L 103.989292 254.713048 
L 103.989292 250.450726 
L 104.682743 250.450726 
L 104.682743 247.509298 
L 105.376194 247.509298 
L 105.376194 242.152467 
L 106.069644 242.152467 
L 106.069644 224.387921 
L 106.763095 224.387921 
L 106.763095 227.564502 
L 107.456545 227.564502 
L 107.456545 225.590876 
L 108.149996 225.590876 
L 108.149996 214.732671 
L 108.843447 214.732671 
L 108.843447 209.322475 
L 109.536897 209.322475 
L 109.536897 213.394486 
L 110.230348 213.394486 
L 110.230348 212.537759 
L 110.923798 212.537759 
L 110.923798 208.807038 
L 111.617249 208.807038 
L 111.617249 206.533929 
L 112.3107 206.533929 
L 112.3107 192.263935 
L 113.00415 192.263935 
L 113.00415 181.125606 
L 113.697601 181.125606 
L 113.697601 187.702875 
L 114.391051 187.702875 
L 114.391051 192.46374 
L 115.084502 192.46374 
L 115.084502 196.754078 
L 115.777953 196.754078 
L 115.777953 193.954037 
L 116.471403 193.954037 
L 116.471403 194.2312 
L 117.164854 194.2312 
L 117.164854 196.280811 
L 117.858304 196.280811 
L 117.858304 195.804876 
L 118.551755 195.804876 
L 118.551755 197.196295 
L 119.245205 197.196295 
L 119.245205 198.373799 
L 119.938656 198.373799 
L 119.938656 197.949794 
L 120.632107 197.949794 
L 120.632107 198.851798 
L 121.325557 198.851798 
L 121.325557 198.59651 
L 122.019008 198.59651 
L 122.019008 197.891976 
L 122.712458 197.891976 
L 122.712458 202.886265 
L 123.405909 202.886265 
L 123.405909 206.555704 
L 124.09936 206.555704 
L 124.09936 205.975533 
L 124.79281 205.975533 
L 124.79281 203.14405 
L 125.486261 203.14405 
L 125.486261 202.433646 
L 126.179711 202.433646 
L 126.179711 203.255503 
L 126.873162 203.255503 
L 126.873162 206.951565 
L 127.566613 206.951565 
L 127.566613 209.347338 
L 128.260063 209.347338 
L 128.260063 209.82539 
L 128.953514 209.82539 
L 128.953514 214.068505 
L 129.646964 214.068505 
L 129.646964 215.922399 
L 130.340415 215.922399 
L 130.340415 220.331642 
L 131.033866 220.331642 
L 131.033866 215.956427 
L 131.727316 215.956427 
L 131.727316 218.448061 
L 132.420767 218.448061 
L 132.420767 220.669737 
L 133.114217 220.669737 
L 133.114217 220.164609 
L 133.807668 220.164609 
L 133.807668 221.318688 
L 134.501119 221.318688 
L 134.501119 224.286495 
L 135.194569 224.286495 
L 135.194569 225.059384 
L 135.88802 225.059384 
L 135.88802 234.259286 
L 136.58147 234.259286 
L 136.58147 229.033423 
L 137.274921 229.033423 
L 137.274921 230.476391 
L 137.968371 230.476391 
L 137.968371 228.656469 
L 138.661822 228.656469 
L 138.661822 229.677081 
L 139.355273 229.677081 
L 139.355273 229.874081 
L 140.048723 229.874081 
L 140.048723 230.40861 
L 140.742174 230.40861 
L 140.742174 234.178184 
L 141.435624 234.178184 
L 141.435624 235.428808 
L 142.129075 235.428808 
L 142.129075 235.172667 
L 142.822526 235.172667 
L 142.822526 233.856865 
L 143.515976 233.856865 
L 143.515976 230.206567 
L 144.209427 230.206567 
L 144.209427 230.74972 
L 144.902877 230.74972 
L 144.902877 230.341047 
L 145.596328 230.341047 
L 145.596328 229.417251 
L 146.289779 229.417251 
L 146.289779 228.781372 
L 146.983229 228.781372 
L 146.983229 225.217427 
L 147.67668 225.217427 
L 147.67668 223.836028 
L 148.37013 223.836028 
L 148.37013 222.77385 
L 149.063581 222.77385 
L 149.063581 218.913185 
L 149.757032 218.913185 
L 149.757032 213.154643 
L 150.450482 213.154643 
L 150.450482 213.035739 
L 151.143933 213.035739 
L 151.143933 213.214348 
L 151.837383 213.214348 
L 151.837383 215.319129 
L 152.530834 215.319129 
L 152.530834 214.991304 
L 153.224284 214.991304 
L 153.224284 217.658039 
L 153.917735 217.658039 
L 153.917735 217.843467 
L 154.611186 217.843467 
L 154.611186 216.613627 
L 155.304636 216.613627 
L 155.304636 217.147366 
L 156.691537 217.219565 
L 156.691537 221.539529 
L 157.384988 221.539529 
L 157.384988 222.633073 
L 158.078439 222.633073 
L 158.078439 219.71199 
L 158.771889 219.71199 
L 158.771889 220.50001 
L 159.46534 220.50001 
L 159.46534 221.230996 
L 160.15879 221.230996 
L 160.15879 220.206243 
L 160.852241 220.206243 
L 160.852241 220.50001 
L 161.545692 220.50001 
L 161.545692 218.640615 
L 162.239142 218.640615 
L 162.239142 219.469149 
L 162.932593 219.469149 
L 162.932593 221.230996 
L 163.626043 221.230996 
L 163.626043 221.406747 
L 164.319494 221.406747 
L 164.319494 220.669737 
L 165.706395 220.584703 
L 165.706395 221.274797 
L 166.399846 221.274797 
L 166.399846 220.542314 
L 167.786747 220.457792 
L 167.786747 219.428946 
L 168.480198 219.428946 
L 168.480198 219.630731 
L 169.173648 219.630731 
L 169.173648 220.040199 
L 169.867099 220.040199 
L 169.867099 219.671321 
L 170.560549 219.671321 
L 170.560549 219.998892 
L 171.94745 219.998892 
L 171.94745 220.206243 
L 172.640901 220.206243 
L 172.640901 219.875455 
L 174.721253 219.793563 
L 174.721253 219.671321 
L 175.414703 219.671321 
L 175.414703 219.308798 
L 176.108154 219.308798 
L 176.108154 218.181412 
L 177.495055 218.105843 
L 177.495055 215.652142 
L 178.188506 215.652142 
L 178.188506 214.700564 
L 178.881956 214.700564 
L 178.881956 214.445458 
L 179.575407 214.445458 
L 179.575407 214.636497 
L 180.268858 214.636497 
L 180.268858 214.224749 
L 180.962308 214.224749 
L 180.962308 214.068505 
L 181.655759 214.068505 
L 181.655759 213.394486 
L 182.349209 213.394486 
L 182.349209 210.922327 
L 183.04266 210.922327 
L 183.04266 206.973777 
L 183.736111 206.973777 
L 183.736111 206.840855 
L 184.429561 206.840855 
L 184.429561 208.518072 
L 185.123012 208.518072 
L 185.123012 208.162357 
L 185.816462 208.162357 
L 185.816462 205.576644 
L 186.509913 205.576644 
L 186.509913 203.386281 
L 187.203363 203.386281 
L 187.203363 202.704048 
L 187.896814 202.704048 
L 187.896814 201.470876 
L 188.590265 201.470876 
L 188.590265 198.036821 
L 189.283715 198.036821 
L 189.283715 205.28749 
L 189.977166 205.28749 
L 189.977166 203.840938 
L 190.670616 203.840938 
L 190.670616 203.994699 
L 191.364067 203.994699 
L 191.364067 204.760807 
L 192.057518 204.760807 
L 192.057518 203.311451 
L 193.444419 203.367549 
L 193.444419 202.273057 
L 194.137869 202.273057 
L 194.137869 200.913669 
L 194.83132 200.913669 
L 194.83132 201.505125 
L 195.524771 201.505125 
L 195.524771 201.198872 
L 196.218221 201.198872 
L 196.218221 200.997152 
L 196.911672 200.997152 
L 196.911672 200.354603 
L 197.605122 200.354603 
L 197.605122 201.470876 
L 198.298573 201.470876 
L 198.298573 201.8159 
L 198.992024 201.8159 
L 198.992024 202.025662 
L 199.685474 202.025662 
L 199.685474 202.344279 
L 200.378925 202.344279 
L 200.378925 202.776746 
L 201.072375 202.776746 
L 201.072375 203.956153 
L 201.765826 203.956153 
L 201.765826 203.707312 
L 202.459277 203.707312 
L 202.459277 203.879273 
L 203.846178 203.917678 
L 203.846178 203.688292 
L 204.539628 203.688292 
L 204.539628 202.308638 
L 205.233079 202.308638 
L 205.233079 201.436683 
L 205.926529 201.436683 
L 205.926529 200.93034 
L 207.313431 200.863738 
L 207.313431 200.160778 
L 208.006881 200.160778 
L 208.006881 199.433892 
L 208.700332 199.433892 
L 208.700332 199.049129 
L 209.393782 199.049129 
L 209.393782 199.310001 
L 210.780684 199.202191 
L 210.780684 199.589789 
L 211.474134 199.589789 
L 211.474134 199.279142 
L 212.167585 199.279142 
L 212.167585 199.48054 
L 213.554486 199.44943 
L 213.554486 198.761342 
L 214.247937 198.761342 
L 214.247937 198.28537 
L 214.941387 198.28537 
L 214.941387 196.563492 
L 215.634838 196.563492 
L 215.634838 194.499772 
L 216.328288 194.499772 
L 216.328288 192.83505 
L 217.021739 192.83505 
L 217.021739 191.472517 
L 217.71519 191.472517 
L 217.71519 190.212891 
L 218.40864 190.212891 
L 218.40864 189.688323 
L 219.102091 189.688323 
L 219.102091 187.428916 
L 219.795541 187.428916 
L 219.795541 184.76841 
L 220.488992 184.76841 
L 220.488992 184.939327 
L 221.182443 184.939327 
L 221.182443 182.344645 
L 221.875893 182.344645 
L 221.875893 181.880878 
L 222.569344 181.880878 
L 222.569344 179.917951 
L 223.262794 179.917951 
L 223.262794 175.624927 
L 223.956245 175.624927 
L 223.956245 173.894145 
L 224.649695 173.894145 
L 224.649695 173.320501 
L 225.343146 173.320501 
L 225.343146 171.081538 
L 226.036597 171.081538 
L 226.036597 164.799069 
L 226.730047 164.799069 
L 226.730047 162.384552 
L 227.423498 162.384552 
L 227.423498 159.008301 
L 228.116948 159.008301 
L 228.116948 151.684537 
L 228.810399 151.684537 
L 228.810399 147.046177 
L 229.50385 147.046177 
L 229.50385 152.688092 
L 230.1973 152.688092 
L 230.1973 165.453243 
L 230.890751 165.453243 
L 230.890751 153.720658 
L 231.584201 153.720658 
L 231.584201 149.913629 
L 232.277652 149.913629 
L 232.277652 152.09006 
L 232.971103 152.09006 
L 232.971103 154.063225 
L 233.664553 154.063225 
L 233.664553 154.247508 
L 234.358004 154.247508 
L 234.358004 154.853149 
L 235.051454 154.853149 
L 235.051454 153.885893 
L 235.744905 153.885893 
L 235.744905 152.956024 
L 237.131806 153.062101 
L 237.131806 151.526085 
L 238.518707 151.476713 
L 238.518707 153.110183 
L 239.212158 153.110183 
L 239.212158 153.711811 
L 239.905608 153.711811 
L 239.905608 156.121352 
L 240.599059 156.121352 
L 240.599059 157.371733 
L 241.29251 157.371733 
L 241.29251 155.867011 
L 241.98596 155.867011 
L 241.98596 155.679709 
L 242.679411 155.679709 
L 242.679411 156.542085 
L 243.372861 156.542085 
L 243.372861 157.954395 
L 244.066312 157.954395 
L 244.066312 162.053279 
L 244.759763 162.053279 
L 244.759763 163.008061 
L 245.453213 163.008061 
L 245.453213 158.671991 
L 246.146664 158.671991 
L 246.146664 157.997722 
L 246.840114 157.997722 
L 246.840114 159.72807 
L 247.533565 159.72807 
L 247.533565 158.555875 
L 248.227016 158.555875 
L 248.227016 157.642915 
L 248.920466 157.642915 
L 248.920466 156.416991 
L 249.613917 156.416991 
L 249.613917 155.998727 
L 250.307367 155.998727 
L 250.307367 156.786335 
L 251.000818 156.786335 
L 251.000818 155.486359 
L 251.694269 155.486359 
L 251.694269 157.428646 
L 252.387719 157.428646 
L 252.387719 155.279517 
L 253.08117 155.279517 
L 253.08117 154.743248 
L 253.77462 154.743248 
L 253.77462 153.79512 
L 254.468071 153.79512 
L 254.468071 151.831244 
L 255.161522 151.831244 
L 255.161522 153.953783 
L 255.854972 153.953783 
L 255.854972 153.179062 
L 256.548423 153.179062 
L 256.548423 152.831808 
L 257.241873 152.831808 
L 257.241873 152.317301 
L 257.935324 152.317301 
L 257.935324 153.022688 
L 258.628774 153.022688 
L 258.628774 152.730259 
L 259.322225 152.730259 
L 259.322225 152.461834 
L 260.015676 152.461834 
L 260.015676 153.192865 
L 260.709126 153.192865 
L 260.709126 152.819936 
L 261.402577 152.819936 
L 261.402577 152.239631 
L 262.096027 152.239631 
L 262.096027 150.560003 
L 262.789478 150.560003 
L 262.789478 144.293307 
L 263.482929 144.293307 
L 263.482929 143.276811 
L 264.176379 143.276811 
L 264.176379 142.065717 
L 264.86983 142.065717 
L 264.86983 142.466214 
L 265.56328 142.466214 
L 265.56328 137.866369 
L 266.256731 137.866369 
L 266.256731 132.24025 
L 266.950182 132.24025 
L 266.950182 128.56316 
L 267.643632 128.56316 
L 267.643632 124.574837 
L 268.337083 124.574837 
L 268.337083 115.915673 
L 269.030533 115.915673 
L 269.030533 113.224037 
L 269.723984 113.224037 
L 269.723984 106.261724 
L 270.417435 106.261724 
L 270.417435 107.876309 
L 271.110885 107.876309 
L 271.110885 116.236987 
L 271.804336 116.236987 
L 271.804336 111.672484 
L 272.497786 111.672484 
L 272.497786 112.00877 
L 273.191237 112.00877 
L 273.191237 116.860602 
L 273.884688 116.860602 
L 273.884688 117.652605 
L 274.578138 117.652605 
L 274.578138 115.705029 
L 275.271589 115.705029 
L 275.271589 115.47317 
L 275.965039 115.47317 
L 275.965039 112.860817 
L 276.65849 112.860817 
L 276.65849 112.999422 
L 277.35194 112.999422 
L 277.35194 112.475814 
L 278.045391 112.475814 
L 278.045391 113.157225 
L 278.738842 113.157225 
L 278.738842 112.884448 
L 279.432292 112.884448 
L 279.432292 114.135929 
L 280.125743 114.135929 
L 280.125743 113.985909 
L 280.819193 113.985909 
L 280.819193 113.159028 
L 281.512644 113.159028 
L 281.512644 114.109503 
L 282.206095 114.109503 
L 282.206095 116.797127 
L 282.899545 116.797127 
L 282.899545 119.310307 
L 283.592996 119.310307 
L 283.592996 118.632682 
L 284.286446 118.632682 
L 284.286446 120.389825 
L 284.979897 120.389825 
L 284.979897 121.128252 
L 285.673348 121.128252 
L 285.673348 120.830952 
L 286.366798 120.830952 
L 286.366798 117.313822 
L 287.060249 117.313822 
L 287.060249 118.303194 
L 288.44715 118.266719 
L 288.44715 118.808811 
L 289.140601 118.808811 
L 289.140601 120.631263 
L 289.834051 120.631263 
L 289.834051 120.162619 
L 290.527502 120.162619 
L 290.527502 123.920505 
L 291.220952 123.920505 
L 291.220952 126.227832 
L 291.914403 126.227832 
L 291.914403 125.341871 
L 292.607853 125.341871 
L 292.607853 129.88933 
L 293.301304 129.88933 
L 293.301304 125.266644 
L 293.994755 125.266644 
L 293.994755 124.262146 
L 294.688205 124.262146 
L 294.688205 123.984168 
L 295.381656 123.984168 
L 295.381656 125.182562 
L 296.075106 125.182562 
L 296.075106 125.618007 
L 296.768557 125.618007 
L 296.768557 126.341728 
L 298.155458 126.300328 
L 298.155458 126.068835 
L 298.848909 126.068835 
L 298.848909 125.753932 
L 299.542359 125.753932 
L 299.542359 124.001408 
L 300.23581 124.001408 
L 300.23581 122.352149 
L 300.929261 122.352149 
L 300.929261 120.335419 
L 301.622711 120.335419 
L 301.622711 118.60764 
L 302.316162 118.60764 
L 302.316162 117.605145 
L 303.009612 117.605145 
L 303.009612 118.01217 
L 303.703063 118.01217 
L 303.703063 119.956687 
L 304.396514 119.956687 
L 304.396514 119.379423 
L 305.089964 119.379423 
L 305.089964 119.977688 
L 305.783415 119.977688 
L 305.783415 121.081662 
L 306.476865 121.081662 
L 306.476865 119.658533 
L 307.170316 119.658533 
L 307.170316 118.124706 
L 307.863767 118.124706 
L 307.863767 118.820942 
L 308.557217 118.820942 
L 308.557217 118.498142 
L 309.250668 118.498142 
L 309.250668 118.830383 
L 309.944118 118.830383 
L 309.944118 118.631345 
L 310.637569 118.631345 
L 310.637569 118.953497 
L 311.331019 118.953497 
L 311.331019 119.881042 
L 312.02447 119.881042 
L 312.02447 120.29778 
L 312.717921 120.29778 
L 312.717921 120.06548 
L 314.104822 120.048321 
L 314.104822 120.774285 
L 314.798272 120.774285 
L 314.798272 122.513428 
L 315.491723 122.513428 
L 315.491723 122.717693 
L 316.185174 122.717693 
L 316.185174 123.160006 
L 317.572075 123.218914 
L 317.572075 124.514665 
L 318.265525 124.514665 
L 318.265525 124.096912 
L 318.958976 124.096912 
L 318.958976 124.648071 
L 319.652427 124.648071 
L 319.652427 124.489938 
L 320.345877 124.489938 
L 320.345877 125.531122 
L 321.039328 125.531122 
L 321.039328 128.131174 
L 321.732778 128.131174 
L 321.732778 127.662163 
L 322.426229 127.662163 
L 322.426229 129.613386 
L 323.11968 129.613386 
L 323.11968 130.473416 
L 323.81313 130.473416 
L 323.81313 131.982901 
L 324.506581 131.982901 
L 324.506581 130.295319 
L 325.200031 130.295319 
L 325.200031 128.464854 
L 325.893482 128.464854 
L 325.893482 128.754674 
L 326.586932 128.754674 
L 326.586932 130.573341 
L 327.280383 130.573341 
L 327.280383 130.947845 
L 327.973834 130.947845 
L 327.973834 131.749211 
L 328.667284 131.749211 
L 328.667284 132.225587 
L 329.360735 132.225587 
L 329.360735 131.186705 
L 330.054185 131.186705 
L 330.054185 127.155239 
L 330.747636 127.155239 
L 330.747636 128.731449 
L 331.441087 128.731449 
L 331.441087 130.616396 
L 332.134537 130.616396 
L 332.134537 129.573456 
L 332.827988 129.573456 
L 332.827988 129.439041 
L 333.521438 129.439041 
L 333.521438 129.292169 
L 334.214889 129.292169 
L 334.214889 129.547065 
L 334.90834 129.547065 
L 334.90834 131.074779 
L 335.60179 131.074779 
L 335.60179 130.538019 
L 336.295241 130.538019 
L 336.295241 133.403177 
L 336.988691 133.403177 
L 336.988691 132.114352 
L 337.682142 132.114352 
L 337.682142 132.244077 
L 338.375593 132.244077 
L 338.375593 133.488272 
L 339.069043 133.488272 
L 339.069043 135.31902 
L 339.762494 135.31902 
L 339.762494 134.387629 
L 340.455944 134.387629 
L 340.455944 136.488521 
L 341.149395 136.488521 
L 341.149395 141.731687 
L 341.842846 141.731687 
L 341.842846 141.158864 
L 342.536296 141.158864 
L 342.536296 139.501359 
L 343.229747 139.501359 
L 343.229747 136.974826 
L 343.923197 136.974826 
L 343.923197 140.845533 
L 344.616648 140.845533 
L 344.616648 140.141354 
L 345.310098 140.141354 
L 345.310098 140.401023 
L 346.003549 140.401023 
L 346.003549 140.551939 
L 346.697 140.551939 
L 346.697 139.430339 
L 347.39045 139.430339 
L 347.39045 138.441572 
L 348.083901 138.441572 
L 348.083901 138.947685 
L 348.777351 138.947685 
L 348.777351 137.790683 
L 349.470802 137.790683 
L 349.470802 136.458886 
L 350.164253 136.458886 
L 350.164253 136.077387 
L 350.857703 136.077387 
L 350.857703 134.607005 
L 351.551154 134.607005 
L 351.551154 135.011955 
L 352.244604 135.011955 
L 352.244604 137.088541 
L 352.938055 137.088541 
L 352.938055 138.508469 
L 353.631506 138.508469 
L 353.631506 137.835563 
L 354.324956 137.835563 
L 354.324956 138.380863 
L 355.018407 138.380863 
L 355.018407 137.215795 
L 355.711857 137.215795 
L 355.711857 138.680978 
L 356.405308 138.680978 
L 356.405308 140.487667 
L 357.792209 140.522614 
L 357.792209 139.309526 
L 358.48566 139.309526 
L 358.48566 140.18038 
L 359.872561 140.242786 
L 359.872561 138.98895 
L 360.566012 138.98895 
L 360.566012 139.192952 
L 361.259462 139.192952 
L 361.259462 138.85928 
L 361.952913 138.85928 
L 361.952913 139.174324 
L 362.646363 139.174324 
L 362.646363 139.710414 
L 363.339814 139.710414 
L 363.339814 139.139774 
L 364.033264 139.139774 
L 364.033264 139.357768 
L 364.726715 139.357768 
L 364.726715 139.990579 
L 365.420166 139.990579 
L 365.420166 140.499939 
L 366.113616 140.499939 
L 366.113616 140.053348 
L 366.807067 140.053348 
L 366.807067 139.874765 
L 367.500517 139.874765 
L 367.500517 138.084967 
L 368.193968 138.084967 
L 368.193968 138.529956 
L 368.887419 138.529956 
L 368.887419 138.924891 
L 369.580869 138.924891 
L 369.580869 138.204012 
L 370.27432 138.204012 
L 370.27432 137.692945 
L 370.96777 137.692945 
L 370.96777 136.578459 
L 371.661221 136.578459 
L 371.661221 135.331573 
L 372.354672 135.331573 
L 372.354672 135.111133 
L 373.048122 135.111133 
L 373.048122 135.944643 
L 374.435023 135.851309 
L 374.435023 134.755973 
L 375.128474 134.755973 
L 375.128474 135.072427 
L 375.821925 135.072427 
L 375.821925 135.614154 
L 376.515375 135.614154 
L 376.515375 135.749344 
L 377.208826 135.749344 
L 377.208826 136.387312 
L 377.902276 136.387312 
L 377.902276 137.142409 
L 378.595727 137.142409 
L 378.595727 140.184101 
L 379.289177 140.184101 
L 379.289177 140.009021 
L 379.982628 140.009021 
L 379.982628 140.290413 
L 380.676079 140.290413 
L 380.676079 139.815268 
L 382.06298 139.771439 
L 382.06298 138.576442 
L 382.75643 138.576442 
L 382.75643 139.409707 
L 383.449881 139.409707 
L 383.449881 139.991501 
L 384.143332 139.991501 
L 384.143332 139.823496 
L 384.836782 139.823496 
L 384.836782 139.475261 
L 385.530233 139.475261 
L 385.530233 139.017973 
L 386.223683 139.017973 
L 386.223683 139.138889 
L 386.917134 139.138889 
L 386.917134 138.354411 
L 388.304035 138.446711 
L 388.304035 137.87637 
L 388.997486 137.87637 
L 388.997486 137.173829 
L 389.690936 137.173829 
L 389.690936 136.127191 
L 390.384387 136.127191 
L 390.384387 135.201234 
L 391.077838 135.201234 
L 391.077838 132.357285 
L 391.771288 132.357285 
L 391.771288 127.956149 
L 392.464739 127.956149 
L 392.464739 128.885863 
L 393.158189 128.885863 
L 393.158189 133.625415 
L 393.85164 133.625415 
L 393.85164 132.955721 
L 394.545091 132.955721 
L 394.545091 132.503369 
L 395.238541 132.503369 
L 395.238541 132.660231 
L 395.931992 132.660231 
L 395.931992 130.526258 
L 396.625442 130.526258 
L 396.625442 130.258719 
L 397.318893 130.258719 
L 397.318893 128.88967 
L 398.012343 128.88967 
L 398.012343 127.341381 
L 398.705794 127.341381 
L 398.705794 126.504265 
L 399.399245 126.504265 
L 399.399245 125.407224 
L 400.092695 125.407224 
L 400.092695 126.264769 
L 400.786146 126.264769 
L 400.786146 125.457065 
L 401.479596 125.457065 
L 401.479596 126.512036 
L 402.866498 126.534881 
L 402.866498 126.705785 
L 403.559948 126.705785 
L 403.559948 125.78629 
L 404.253399 125.78629 
L 404.253399 126.691571 
L 404.946849 126.691571 
L 404.946849 128.969229 
L 405.6403 128.969229 
L 405.6403 129.1882 
L 406.333751 129.1882 
L 406.333751 128.635042 
L 407.027201 128.635042 
L 407.027201 129.460266 
L 407.720652 129.460266 
L 407.720652 129.920151 
L 408.414102 129.920151 
L 408.414102 129.549871 
L 409.107553 129.549871 
L 409.107553 129.38106 
L 409.801004 129.38106 
L 409.801004 128.233201 
L 410.494454 128.233201 
L 410.494454 127.16576 
L 411.881355 127.202373 
L 411.881355 126.591857 
L 412.574806 126.591857 
L 412.574806 127.039855 
L 413.268257 127.039855 
L 413.268257 127.894325 
L 413.961707 127.894325 
L 413.961707 127.366156 
L 415.348608 127.417315 
L 415.348608 127.776892 
L 416.042059 127.776892 
L 416.042059 127.346435 
L 417.42896 127.317644 
L 417.42896 127.480804 
L 418.122411 127.480804 
L 418.122411 127.239553 
L 419.509312 127.167263 
L 419.509312 127.03338 
L 420.202762 127.03338 
L 420.202762 126.696472 
L 420.896213 126.696472 
L 420.896213 126.380314 
L 421.589664 126.380314 
L 421.589664 125.623129 
L 422.283114 125.623129 
L 422.283114 125.934177 
L 422.976565 125.934177 
L 422.976565 125.572894 
L 423.670015 125.572894 
L 423.670015 125.74222 
L 424.363466 125.74222 
L 424.363466 125.219992 
L 425.056917 125.219992 
L 425.056917 125.442285 
L 425.750367 125.442285 
L 425.750367 125.569177 
L 426.443818 125.569177 
L 426.443818 126.032715 
L 427.137268 126.032715 
L 427.137268 125.773622 
L 427.830719 125.773622 
L 427.830719 123.024975 
L 428.52417 123.024975 
L 428.52417 121.953691 
L 429.21762 121.953691 
L 429.21762 120.23712 
L 429.911071 120.23712 
L 429.911071 120.446192 
L 430.604521 120.446192 
L 430.604521 116.86398 
L 431.297972 116.86398 
L 431.297972 114.906978 
L 431.991422 114.906978 
L 431.991422 119.911907 
L 432.684873 119.911907 
L 432.684873 118.624999 
L 433.378324 118.624999 
L 433.378324 117.400292 
L 434.071774 117.400292 
L 434.071774 116.962809 
L 434.765225 116.962809 
L 434.765225 117.556839 
L 436.845577 117.610236 
L 436.845577 117.414475 
L 437.539027 117.414475 
L 437.539027 117.605145 
L 438.232478 117.605145 
L 438.232478 117.794988 
L 438.925928 117.794988 
L 438.925928 119.464054 
L 439.619379 119.464054 
L 439.619379 120.637509 
L 440.31283 120.637509 
L 440.31283 120.19174 
L 441.699731 120.250826 
L 441.699731 120.703759 
L 442.393181 120.703759 
L 442.393181 120.472063 
L 443.780083 120.526458 
L 443.780083 120.682389 
L 445.166984 120.663984 
L 445.166984 119.373886 
L 445.860434 119.373886 
L 445.860434 118.912153 
L 446.553885 118.912153 
L 446.553885 119.345182 
L 447.940786 119.403321 
L 447.940786 119.866867 
L 448.634237 119.866867 
L 448.634237 119.421349 
L 450.714588 119.407827 
L 450.714588 119.156989 
L 451.408039 119.156989 
L 451.408039 118.459671 
L 452.10149 118.459671 
L 452.10149 118.333804 
L 452.79494 118.333804 
L 452.79494 118.668459 
L 453.488391 118.668459 
L 453.488391 118.171065 
L 454.181841 118.171065 
L 454.181841 116.841877 
L 454.875292 116.841877 
L 454.875292 115.629003 
L 455.568743 115.629003 
L 455.568743 116.30956 
L 456.262193 116.30956 
L 456.262193 115.777246 
L 456.955644 115.777246 
L 456.955644 116.402508 
L 457.649094 116.402508 
L 457.649094 115.334472 
L 459.729446 115.327903 
L 459.729446 115.530175 
L 460.422897 115.530175 
L 460.422897 114.601063 
L 461.809798 114.504464 
L 461.809798 114.457563 
L 462.503249 114.457563 
L 462.503249 114.247929 
L 463.196699 114.247929 
L 463.196699 113.840941 
L 463.89015 113.840941 
L 463.89015 110.80152 
L 464.5836 110.80152 
L 464.5836 110.426983 
L 465.277051 110.426983 
L 465.277051 109.660653 
L 465.970501 109.660653 
L 465.970501 106.726928 
L 466.663952 106.726928 
L 466.663952 110.880886 
L 467.357403 110.880886 
L 467.357403 113.458911 
L 468.050853 113.458911 
L 468.050853 112.814649 
L 468.744304 112.814649 
L 468.744304 111.226974 
L 469.437754 111.226974 
L 469.437754 111.51205 
L 470.131205 111.51205 
L 470.131205 110.693795 
L 470.824656 110.693795 
L 470.824656 109.259222 
L 471.518106 109.259222 
L 471.518106 108.675447 
L 472.211557 108.675447 
L 472.211557 109.218172 
L 472.905007 109.218172 
L 472.905007 108.882114 
L 473.598458 108.882114 
L 473.598458 107.789515 
L 474.291909 107.789515 
L 474.291909 106.428494 
L 474.985359 106.428494 
L 474.985359 105.959156 
L 475.67881 105.959156 
L 475.67881 104.636608 
L 476.37226 104.636608 
L 476.37226 103.859781 
L 477.065711 103.859781 
L 477.065711 105.209405 
L 477.759162 105.209405 
L 477.759162 104.367907 
L 478.452612 104.367907 
L 478.452612 107.516876 
L 479.146063 107.516876 
L 479.146063 106.654191 
L 479.839513 106.654191 
L 479.839513 109.72685 
L 480.532964 109.72685 
L 480.532964 108.086571 
L 481.226415 108.086571 
L 481.226415 107.287828 
L 481.919865 107.287828 
L 481.919865 105.180471 
L 482.613316 105.180471 
L 482.613316 104.895735 
L 483.306766 104.895735 
L 483.306766 105.596581 
L 484.000217 105.596581 
L 484.000217 105.049182 
L 484.693667 105.049182 
L 484.693667 104.495172 
L 485.387118 104.495172 
L 485.387118 103.580486 
L 486.080569 103.580486 
L 486.080569 102.51666 
L 486.774019 102.51666 
L 486.774019 99.857958 
L 487.46747 99.857958 
L 487.46747 98.35402 
L 488.16092 98.35402 
L 488.16092 97.828091 
L 488.854371 97.828091 
L 488.854371 97.628758 
L 489.547822 97.628758 
L 489.547822 94.226571 
L 490.241272 94.226571 
L 490.241272 90.294643 
L 490.934723 90.294643 
L 490.934723 92.531004 
L 491.628173 92.531004 
L 491.628173 90.395355 
L 492.321624 90.395355 
L 492.321624 88.010254 
L 493.015075 88.010254 
L 493.015075 87.049881 
L 493.708525 87.049881 
L 493.708525 87.956676 
L 494.401976 87.956676 
L 494.401976 88.558148 
L 495.095426 88.558148 
L 495.095426 88.327886 
L 495.788877 88.327886 
L 495.788877 89.606032 
L 496.482328 89.606032 
L 496.482328 89.275045 
L 497.869229 89.206926 
L 497.869229 89.599051 
L 498.562679 89.599051 
L 498.562679 91.278185 
L 499.25613 91.278185 
L 499.25613 94.613021 
L 499.949581 94.613021 
L 499.949581 91.698738 
L 500.643031 91.698738 
L 500.643031 87.629772 
L 501.336482 87.629772 
L 501.336482 88.344991 
L 502.029932 88.344991 
L 502.029932 86.77045 
L 503.416833 86.817403 
L 503.416833 83.097703 
L 504.110284 83.097703 
L 504.110284 80.434832 
L 504.803735 80.434832 
L 504.803735 77.841601 
L 505.497185 77.841601 
L 505.497185 79.446091 
L 506.190636 79.446091 
L 506.190636 78.054442 
L 506.884086 78.054442 
L 506.884086 77.837465 
L 507.577537 77.837465 
L 507.577537 75.424245 
L 508.270988 75.424245 
L 508.270988 77.797303 
L 508.964438 77.797303 
L 508.964438 78.058815 
L 509.657889 78.058815 
L 509.657889 80.452792 
L 510.351339 80.452792 
L 510.351339 81.494682 
L 511.04479 81.494682 
L 511.04479 81.943463 
L 511.738241 81.943463 
L 511.738241 80.09239 
L 512.431691 80.09239 
L 512.431691 78.884395 
L 513.125142 78.884395 
L 513.125142 78.168635 
L 513.818592 78.168635 
L 513.818592 77.537626 
L 514.512043 77.537626 
L 514.512043 75.797306 
L 515.205494 75.797306 
L 515.205494 72.308236 
L 516.592395 72.288019 
L 516.592395 71.549631 
L 517.285845 71.549631 
L 517.285845 72.021047 
L 517.979296 72.021047 
L 517.979296 69.786957 
L 518.672746 69.786957 
L 518.672746 66.881187 
L 519.366197 66.881187 
L 519.366197 66.590486 
L 520.059648 66.590486 
L 520.059648 71.587151 
L 520.753098 71.587151 
L 520.753098 65.491557 
L 521.446549 65.491557 
L 521.446549 64.514191 
L 522.83345 64.591005 
L 522.83345 60.618352 
L 523.526901 60.618352 
L 523.526901 58.608655 
L 524.220351 58.608655 
L 524.220351 53.601731 
L 524.913802 53.601731 
L 524.913802 51.817253 
L 525.607252 51.817253 
L 525.607252 50.025359 
L 526.300703 50.025359 
L 526.300703 47.036675 
L 526.994154 47.036675 
L 526.994154 53.704322 
L 527.687604 53.704322 
L 527.687604 50.98338 
L 528.381055 50.98338 
L 528.381055 55.562276 
L 529.074505 55.562276 
L 529.074505 51.858788 
L 529.767956 51.858788 
L 529.767956 50.303265 
L 530.461407 50.303265 
L 530.461407 54.468192 
L 531.154857 54.468192 
L 531.154857 54.046955 
L 531.848308 54.046955 
L 531.848308 57.493847 
L 532.541758 57.493847 
L 532.541758 58.766189 
L 533.235209 58.766189 
L 533.235209 57.631732 
L 533.92866 57.631732 
L 533.92866 60.022167 
L 534.62211 60.022167 
L 534.62211 64.618494 
L 536.009011 64.508396 
L 536.009011 62.909877 
L 536.702462 62.909877 
L 536.702462 60.074704 
L 537.395912 60.074704 
L 537.395912 57.975847 
L 538.089363 57.975847 
L 538.089363 61.08875 
L 538.782814 61.08875 
L 538.782814 59.759521 
L 539.476264 59.759521 
L 539.476264 57.47498 
L 540.169715 57.47498 
L 540.169715 61.919136 
L 540.863165 61.919136 
L 540.863165 62.362778 
L 541.556616 62.362778 
L 541.556616 64.374025 
L 542.250067 64.374025 
L 542.250067 62.876238 
L 542.943517 62.876238 
L 542.943517 63.784132 
L 543.636968 63.784132 
L 543.636968 65.273796 
L 544.330418 65.273796 
L 544.330418 68.478767 
L 545.023869 68.478767 
L 545.023869 68.605159 
L 546.41077 68.612138 
L 546.41077 65.420851 
L 547.797671 65.389048 
L 547.797671 62.827518 
L 548.491122 62.827518 
L 548.491122 62.970483 
L 549.184573 62.970483 
L 549.184573 61.752996 
L 549.878023 61.752996 
L 549.878023 60.972793 
L 550.571474 60.972793 
L 550.571474 61.818576 
L 551.264924 61.818576 
L 551.264924 64.124567 
L 551.958375 64.124567 
L 551.958375 63.939333 
L 552.651826 63.939333 
L 552.651826 64.51608 
L 553.345276 64.51608 
L 553.345276 66.468343 
L 554.038727 66.468343 
L 554.038727 66.942506 
L 554.732177 66.942506 
L 554.732177 66.530773 
L 556.119078 66.514453 
L 556.119078 66.179989 
L 556.812529 66.179989 
L 556.812529 69.342526 
L 557.50598 69.342526 
L 557.50598 69.55012 
L 558.19943 69.55012 
L 558.19943 68.685413 
L 558.892881 68.685413 
L 558.892881 70.654255 
L 559.586331 70.654255 
L 559.586331 71.629857 
L 560.279782 71.629857 
L 560.279782 69.107973 
L 561.666683 69.101146 
L 561.666683 70.073622 
L 562.360134 70.073622 
L 562.360134 70.34278 
L 563.053584 70.34278 
L 563.053584 66.866563 
L 564.440486 66.765305 
L 564.440486 65.302404 
L 565.133936 65.302404 
L 565.133936 64.697081 
L 565.827387 64.697081 
L 565.827387 66.742273 
L 566.520837 66.742273 
L 566.520837 68.818443 
L 567.214288 68.818443 
L 567.214288 70.413593 
L 567.907739 70.413593 
L 567.907739 70.269385 
L 568.601189 70.269385 
L 568.601189 69.556932 
L 569.29464 69.556932 
L 569.29464 69.429548 
L 569.98809 69.429548 
L 569.98809 68.252742 
L 570.681541 68.252742 
L 570.681541 67.897372 
L 571.374991 67.897372 
L 571.374991 66.900625 
L 572.068442 66.900625 
L 572.068442 70.562097 
L 572.761893 70.562097 
L 572.761893 70.084365 
L 573.455343 70.084365 
L 573.455343 69.521953 
L 574.842244 69.526326 
L 574.842244 69.244957 
L 575.535695 69.244957 
L 575.535695 69.100924 
L 576.229146 69.100924 
L 576.229146 69.44455 
L 576.922596 69.44455 
L 576.922596 69.276405 
L 578.309497 69.252567 
L 578.309497 70.287887 
L 579.002948 70.287887 
L 579.002948 69.482343 
L 580.389849 69.533228 
L 580.389849 69.603738 
L 581.0833 69.603738 
L 581.0833 70.165798 
L 581.77675 70.165798 
L 581.77675 69.967385 
L 582.470201 69.967385 
L 582.470201 69.394522 
L 583.163652 69.394522 
L 583.163652 69.811705 
L 583.857102 69.811705 
L 583.857102 72.430465 
L 584.550553 72.430465 
L 584.550553 75.681488 
L 585.244003 75.681488 
L 585.244003 77.951644 
L 585.937454 77.951644 
L 585.937454 80.653962 
L 586.630905 80.653962 
L 586.630905 78.764353 
L 587.324355 78.764353 
L 587.324355 81.117894 
L 588.017806 81.117894 
L 588.017806 82.016531 
L 588.711256 82.016531 
L 588.711256 83.728422 
L 589.404707 83.728422 
L 589.404707 82.204459 
L 590.098157 82.204459 
L 590.098157 80.265181 
L 590.791608 80.265181 
L 590.791608 80.692093 
L 591.485059 80.692093 
L 591.485059 80.975745 
L 592.178509 80.975745 
L 592.178509 80.095977 
L 592.87196 80.095977 
L 592.87196 79.357155 
L 593.56541 79.357155 
L 593.56541 81.680181 
L 594.258861 81.680181 
L 594.258861 81.472095 
L 594.952312 81.472095 
L 594.952312 81.798956 
L 595.645762 81.798956 
L 595.645762 82.022924 
L 597.032663 82.087852 
L 597.032663 82.722896 
L 598.419565 82.807858 
L 598.419565 83.184257 
L 599.113015 83.184257 
L 599.113015 81.777258 
L 599.806466 81.777258 
L 599.806466 81.900957 
L 600.499916 81.900957 
L 600.499916 80.121581 
L 601.193367 80.121581 
L 601.193367 79.009447 
L 601.886818 79.009447 
L 601.886818 80.627701 
L 603.273719 80.730347 
L 603.273719 80.335508 
L 604.66062 80.366558 
L 604.66062 80.068211 
L 605.35407 80.068211 
L 605.35407 79.578818 
L 607.434422 79.477725 
L 607.434422 79.139184 
L 608.127873 79.139184 
L 608.127873 75.412114 
L 608.821323 75.412114 
L 608.821323 73.933442 
L 609.514774 73.933442 
L 609.514774 74.730722 
L 610.208225 74.730722 
L 610.208225 74.223274 
L 610.901675 74.223274 
L 610.901675 73.772005 
L 611.595126 73.772005 
L 611.595126 73.282596 
L 612.288576 73.282596 
L 612.288576 73.803701 
L 612.982027 73.803701 
L 612.982027 73.453814 
L 613.675478 73.453814 
L 613.675478 72.33495 
L 614.368928 72.33495 
L 614.368928 70.011367 
L 615.062379 70.011367 
L 615.062379 65.1627 
L 615.755829 65.1627 
L 615.755829 67.171586 
L 616.44928 67.171586 
L 616.44928 66.151295 
L 617.142731 66.151295 
L 617.142731 63.27091 
L 617.836181 63.27091 
L 617.836181 64.438623 
L 618.529632 64.438623 
L 618.529632 64.79148 
L 619.223082 64.79148 
L 619.223082 65.14796 
L 619.916533 65.14796 
L 619.916533 65.361412 
L 620.609984 65.361412 
L 620.609984 62.995815 
L 621.303434 62.995815 
L 621.303434 62.01596 
L 621.996885 62.01596 
L 621.996885 58.799266 
L 622.690335 58.799266 
L 622.690335 58.188633 
L 623.383786 58.188633 
L 623.383786 59.263152 
L 624.077236 59.263152 
L 624.077236 58.527255 
L 624.770687 58.527255 
L 624.770687 55.605305 
L 625.464138 55.605305 
L 625.464138 57.709699 
L 626.157588 57.709699 
L 626.157588 61.144107 
L 626.851039 61.144107 
L 626.851039 59.24587 
L 627.544489 59.24587 
L 627.544489 60.711556 
L 628.23794 60.711556 
L 628.23794 61.523757 
L 628.931391 61.523757 
L 628.931391 59.361202 
L 629.624841 59.361202 
L 629.624841 57.568678 
L 630.318292 57.568678 
L 630.318292 57.908136 
L 631.011742 57.908136 
L 631.011742 60.411521 
L 631.705193 60.411521 
L 631.705193 59.78916 
L 632.398644 59.78916 
L 632.398644 60.212822 
L 633.092094 60.212822 
L 633.092094 59.70228 
L 633.785545 59.70228 
L 633.785545 61.354632 
L 634.478995 61.354632 
L 634.478995 59.17863 
L 635.172446 59.17863 
L 635.172446 59.446 
L 635.865897 59.446 
L 635.865897 60.114523 
L 636.559347 60.114523 
L 636.559347 59.80379 
L 637.946248 59.874433 
L 637.946248 61.12432 
L 638.639699 61.12432 
L 638.639699 64.639442 
L 639.33315 64.639442 
L 639.33315 64.310637 
L 640.0266 64.310637 
L 640.0266 64.758468 
L 640.720051 64.758468 
L 640.720051 63.650984 
L 641.413501 63.650984 
L 641.413501 64.409894 
L 642.106952 64.409894 
L 642.106952 64.942435 
L 642.800402 64.942435 
L 642.800402 64.56606 
L 643.493853 64.56606 
L 643.493853 63.458584 
L 644.187304 63.458584 
L 644.187304 61.674877 
L 644.880754 61.674877 
L 644.880754 61.971836 
L 646.267655 61.876656 
L 646.267655 62.577976 
L 646.961106 62.577976 
L 646.961106 63.542456 
L 647.654557 63.542456 
L 647.654557 64.685494 
L 648.348007 64.685494 
L 648.348007 67.109972 
L 649.041458 67.109972 
L 649.041458 67.467457 
L 649.734908 67.467457 
L 649.734908 66.340387 
L 650.428359 66.340387 
L 650.428359 67.381787 
L 651.12181 67.381787 
L 651.12181 66.439002 
L 651.81526 66.439002 
L 651.81526 67.392586 
L 652.508711 67.392586 
L 652.508711 68.319084 
L 653.202161 68.319084 
L 653.202161 67.38963 
L 653.895612 67.38963 
L 653.895612 67.213226 
L 654.589063 67.213226 
L 654.589063 67.067498 
L 655.282513 67.067498 
L 655.282513 67.432085 
L 655.975964 67.432085 
L 655.975964 66.922428 
L 656.669414 66.922428 
L 656.669414 65.628002 
L 657.362865 65.628002 
L 657.362865 64.868406 
L 658.056315 64.868406 
L 658.056315 62.89895 
L 658.749766 62.89895 
L 658.749766 63.324312 
L 659.443217 63.324312 
L 659.443217 64.299413 
L 660.136667 64.299413 
L 660.136667 62.020246 
L 661.523568 61.941583 
L 661.523568 60.967809 
L 662.217019 60.967809 
L 662.217019 60.755034 
L 662.91047 60.755034 
L 662.91047 59.685527 
L 663.60392 59.685527 
L 663.60392 60.070383 
L 664.297371 60.070383 
L 664.297371 61.154226 
L 664.990821 61.154226 
L 664.990821 63.172223 
L 665.684272 63.172223 
L 665.684272 63.783121 
L 666.377723 63.783121 
L 666.377723 62.5076 
L 667.071173 62.5076 
L 667.071173 65.323275 
L 667.764624 65.323275 
L 667.764624 72.616127 
L 668.458074 72.616127 
L 668.458074 73.581292 
L 669.151525 73.581292 
L 669.151525 70.542401 
L 669.844976 70.542401 
L 669.844976 68.880467 
L 670.538426 68.880467 
L 670.538426 71.603844 
L 671.231877 71.603844 
L 671.231877 68.535655 
L 671.925327 68.535655 
L 671.925327 66.946403 
L 672.618778 66.946403 
L 672.618778 68.338366 
L 674.005679 68.342316 
L 674.005679 67.188075 
L 674.69913 67.188075 
L 674.69913 67.563569 
L 675.39258 67.563569 
L 675.39258 65.949859 
L 676.086031 65.949859 
L 676.086031 63.551112 
L 676.779481 63.551112 
L 676.779481 62.933052 
L 677.472932 62.933052 
L 677.472932 60.825606 
L 678.166383 60.825606 
L 678.166383 63.102843 
L 678.859833 63.102843 
L 678.859833 61.781455 
L 679.553284 61.781455 
L 679.553284 61.503078 
L 680.246734 61.503078 
L 680.246734 63.303885 
L 680.940185 63.303885 
L 680.940185 61.373933 
L 681.633636 61.373933 
L 681.633636 60.021693 
L 682.327086 60.021693 
L 682.327086 61.254321 
L 683.020537 61.254321 
L 683.020537 60.925805 
L 683.713987 60.925805 
L 683.713987 61.585492 
L 685.100889 61.627054 
L 685.100889 62.008978 
L 686.48779 62.108791 
L 686.48779 62.235573 
L 687.18124 62.235573 
L 687.18124 62.495928 
L 687.874691 62.495928 
L 687.874691 62.073792 
L 689.261592 62.119931 
L 689.261592 62.216885 
L 690.648493 62.168523 
L 690.648493 61.277603 
L 691.341944 61.277603 
L 691.341944 58.360322 
L 692.035394 58.360322 
L 692.035394 57.793427 
L 692.728845 57.793427 
L 692.728845 58.072879 
L 693.422296 58.072879 
L 693.422296 57.021637 
L 694.115746 57.021637 
L 694.115746 57.372383 
L 694.809197 57.372383 
L 694.809197 56.761403 
L 696.196098 56.846703 
L 696.196098 57.028202 
L 696.889549 57.028202 
L 696.889549 57.442258 
L 697.582999 57.442258 
L 697.582999 56.745087 
L 698.27645 56.745087 
L 698.27645 60.113902 
L 698.9699 60.113902 
L 698.9699 59.973075 
L 699.663351 59.973075 
L 699.663351 59.762312 
L 700.356802 59.762312 
L 700.356802 58.548917 
L 701.050252 58.548917 
L 701.050252 59.560196 
L 701.743703 59.560196 
L 701.743703 59.03733 
L 702.437153 59.03733 
L 702.437153 58.748107 
L 703.130604 58.748107 
L 703.130604 59.316836 
L 703.824055 59.316836 
L 703.824055 59.080755 
L 704.517505 59.080755 
L 704.517505 57.732792 
L 705.210956 57.732792 
L 705.210956 57.498932 
L 705.904406 57.498932 
L 705.904406 57.038527 
L 706.597857 57.038527 
L 706.597857 55.015481 
L 707.291308 55.015481 
L 707.291308 53.896367 
L 707.984758 53.896367 
L 707.984758 53.652888 
L 708.678209 53.652888 
L 708.678209 53.13319 
L 709.371659 53.13319 
L 709.371659 51.236446 
L 710.06511 51.236446 
L 710.06511 50.170258 
L 710.75856 50.170258 
L 710.75856 49.622636 
L 711.452011 49.622636 
L 711.452011 47.287824 
L 712.145462 47.287824 
L 712.145462 46.748503 
L 712.838912 46.748503 
L 712.838912 48.391845 
L 713.532363 48.391845 
L 713.532363 46.688817 
L 714.225813 46.688817 
L 714.225813 46.524514 
L 714.919264 46.524514 
L 714.919264 47.788925 
L 715.612715 47.788925 
L 715.612715 46.634573 
L 716.306165 46.634573 
L 716.306165 42.780264 
L 716.999616 42.780264 
L 716.999616 42.176115 
L 717.693066 42.176115 
L 717.693066 39.981769 
L 718.386517 39.981769 
L 718.386517 38.143634 
L 719.079968 38.143634 
L 719.079968 35.319414 
L 719.773418 35.319414 
L 719.773418 31.543428 
L 720.466869 31.543428 
L 720.466869 33.7564 
L 721.160319 33.7564 
L 721.160319 33.0098 
L 721.85377 33.0098 
L 721.85377 33.476907 
L 722.547221 33.476907 
L 722.547221 35.902036 
L 723.240671 35.902036 
L 723.240671 37.033782 
L 723.934122 37.033782 
L 723.934122 35.233063 
L 724.627572 35.233063 
L 724.627572 32.910844 
L 725.321023 32.910844 
L 725.321023 28.16381 
L 726.014474 28.16381 
L 726.014474 27.667174 
L 726.707924 27.667174 
L 726.707924 26.931514 
L 727.401375 26.931514 
L 727.401375 24.189415 
L 728.094825 24.189415 
L 728.094825 26.313603 
L 728.788276 26.313603 
L 728.788276 28.739184 
L 729.481726 28.739184 
L 729.481726 27.238206 
L 730.175177 27.238206 
L 730.175177 25.628741 
L 730.868628 25.628741 
L 730.868628 23.724051 
L 731.562078 23.724051 
L 731.562078 23.864535 
L 732.255529 23.864535 
L 732.255529 23.420225 
L 732.948979 23.420225 
L 732.948979 25.544844 
L 733.64243 25.544844 
L 733.64243 24.27131 
L 734.335881 24.27131 
L 734.335881 23.185619 
L 735.029331 23.185619 
L 735.029331 23.072277 
L 735.722782 23.072277 
L 735.722782 23.414146 
L 736.416232 23.414146 
L 736.416232 21.526599 
L 737.109683 21.526599 
L 737.109683 22.707318 
L 737.803134 22.707318 
L 737.803134 25.02991 
L 738.496584 25.02991 
L 738.496584 26.967729 
L 739.190035 26.967729 
L 739.190035 25.11796 
L 739.883485 25.11796 
L 739.883485 23.738741 
L 741.270387 23.677421 
L 741.270387 23.909871 
L 741.963837 23.909871 
L 741.963837 27.995497 
L 742.657288 27.995497 
L 742.657288 32.932367 
L 743.350738 32.932367 
L 743.350738 34.229674 
L 744.044189 34.229674 
L 744.044189 32.105587 
L 744.737639 32.105587 
L 744.737639 32.736132 
L 745.43109 32.736132 
L 745.43109 32.977257 
L 746.124541 32.977257 
L 746.124541 35.034741 
L 746.817991 35.034741 
L 746.817991 33.78605 
L 747.511442 33.78605 
L 747.511442 32.171612 
L 748.204892 32.171612 
L 748.204892 33.728348 
L 748.898343 33.728348 
L 748.898343 34.299526 
L 749.591794 34.299526 
L 749.591794 34.41083 
L 750.285244 34.41083 
L 750.285244 34.780417 
L 750.978695 34.780417 
L 750.978695 34.561415 
L 751.672145 34.561415 
L 751.672145 34.993645 
L 752.365596 34.993645 
L 752.365596 35.438479 
L 753.059047 35.438479 
L 753.059047 36.110411 
L 753.752497 36.110411 
L 753.752497 35.772519 
L 754.445948 35.772519 
L 754.445948 32.731845 
L 755.139398 32.731845 
L 755.139398 30.137382 
L 755.832849 30.137382 
L 755.832849 32.274482 
L 756.5263 32.274482 
L 756.5263 28.964209 
L 757.21975 28.964209 
L 757.21975 28.508349 
L 757.913201 28.508349 
L 757.913201 27.851964 
L 758.606651 27.851964 
L 758.606651 27.996366 
L 759.300102 27.996366 
L 759.300102 26.77651 
L 759.993553 26.77651 
L 759.993553 26.975758 
L 760.687003 26.975758 
L 760.687003 27.807528 
L 761.380454 27.807528 
L 761.380454 26.597141 
L 762.073904 26.597141 
L 762.073904 28.293998 
L 763.460805 28.302797 
L 763.460805 27.528485 
L 764.154256 27.528485 
L 764.154256 29.797432 
L 765.541157 29.839663 
L 765.541157 30.745848 
L 766.234608 30.745848 
L 766.234608 27.554116 
L 766.928058 27.554116 
L 766.928058 24.437952 
L 767.621509 24.437952 
L 767.621509 24.712785 
L 768.31496 24.712785 
L 768.31496 23.671015 
L 769.00841 23.671015 
L 769.00841 22.057396 
L 769.701861 22.057396 
L 769.701861 22.494748 
L 770.395311 22.494748 
L 770.395311 22.617116 
L 771.088762 22.617116 
L 771.088762 22.139162 
L 771.782213 22.139162 
L 771.782213 21.726092 
L 772.475663 21.726092 
L 772.475663 21.61328 
L 773.169114 21.61328 
L 773.169114 21.105522 
L 773.862564 21.105522 
L 773.862564 21.51673 
L 774.556015 21.51673 
L 774.556015 23.403123 
L 775.249466 23.403123 
L 775.249466 23.604942 
L 775.942916 23.604942 
L 775.942916 24.645312 
L 776.636367 24.645312 
L 776.636367 23.732698 
L 777.329817 23.732698 
L 777.329817 26.837399 
L 778.023268 26.837399 
L 778.023268 27.583867 
L 778.716719 27.583867 
L 778.716719 27.986263 
L 779.410169 27.986263 
L 779.410169 28.250593 
L 780.10362 28.250593 
L 780.10362 27.028288 
L 780.79707 27.028288 
L 780.79707 26.377701 
L 781.490521 26.377701 
L 781.490521 28.143588 
L 782.183971 28.143588 
L 782.183971 27.730903 
L 782.877422 27.730903 
L 782.877422 29.690238 
L 783.570873 29.690238 
L 783.570873 30.32022 
L 784.264323 30.32022 
L 784.264323 29.700617 
L 784.957774 29.700617 
L 784.957774 30.054124 
L 785.651224 30.054124 
L 785.651224 34.038647 
L 786.344675 34.038647 
L 786.344675 33.012668 
L 787.038126 33.012668 
L 787.038126 32.395894 
L 787.731576 32.395894 
L 787.731576 32.859541 
L 788.425027 32.859541 
L 788.425027 29.344901 
L 789.118477 29.344901 
L 789.118477 30.044299 
L 789.811928 30.044299 
L 789.811928 29.010435 
L 790.505379 29.010435 
L 790.505379 31.210809 
L 791.198829 31.210809 
L 791.198829 32.746886 
L 791.89228 32.746886 
L 791.89228 32.51504 
L 792.58573 32.51504 
L 792.58573 30.012987 
L 793.279181 30.012987 
L 793.279181 32.332782 
L 793.972632 32.332782 
L 793.972632 31.944305 
L 794.666082 31.944305 
L 794.666082 31.631675 
L 795.359533 31.631675 
L 795.359533 30.133309 
L 796.052983 30.133309 
L 796.052983 29.795715 
L 796.746434 29.795715 
L 796.746434 27.940653 
L 797.439884 27.940653 
L 797.439884 28.541708 
L 798.133335 28.541708 
L 798.133335 28.052006 
L 798.826786 28.052006 
L 798.826786 30.105106 
L 799.520236 30.105106 
L 799.520236 31.217552 
L 800.213687 31.217552 
L 800.213687 31.067687 
L 800.907137 31.067687 
L 800.907137 30.559555 
L 801.600588 30.559555 
L 801.600588 31.554341 
L 802.294039 31.554341 
L 802.294039 31.392598 
L 802.987489 31.392598 
L 802.987489 32.069838 
L 803.68094 32.069838 
L 803.68094 33.481055 
L 804.37439 33.481055 
L 804.37439 36.633046 
L 805.067841 36.633046 
L 805.067841 37.273532 
L 805.761292 37.273532 
L 805.761292 38.27211 
L 806.454742 38.27211 
L 806.454742 37.131027 
L 807.148193 37.131027 
L 807.148193 37.899036 
L 807.841643 37.899036 
L 807.841643 36.155427 
L 808.535094 36.155427 
L 808.535094 37.550257 
L 809.228545 37.550257 
L 809.228545 36.555871 
L 809.921995 36.555871 
L 809.921995 38.52047 
L 810.615446 38.52047 
L 810.615446 43.332906 
L 811.308896 43.332906 
L 811.308896 45.298125 
L 812.002347 45.298125 
L 812.002347 44.744076 
L 812.695798 44.744076 
L 812.695798 45.132941 
L 813.389248 45.132941 
L 813.389248 46.689113 
L 814.082699 46.689113 
L 814.082699 45.668662 
L 814.776149 45.668662 
L 814.776149 44.25646 
L 815.4696 44.25646 
L 815.4696 45.625138 
L 816.16305 45.625138 
L 816.16305 45.059873 
L 816.856501 45.059873 
L 816.856501 42.777264 
L 817.549952 42.777264 
L 817.549952 44.533142 
L 818.243402 44.533142 
L 818.243402 42.205277 
L 818.936853 42.205277 
L 818.936853 42.934481 
L 820.323754 42.966172 
L 820.323754 42.05726 
L 821.017205 42.05726 
L 821.017205 41.747748 
L 821.710655 41.747748 
L 821.710655 42.741028 
L 822.404106 42.741028 
L 822.404106 44.432396 
L 823.097556 44.432396 
L 823.097556 45.615119 
L 823.791007 45.615119 
L 823.791007 46.07816 
L 825.177908 46.033634 
L 825.177908 46.630763 
L 825.871359 46.630763 
L 825.871359 44.050817 
L 826.564809 44.050817 
L 826.564809 46.182975 
L 827.25826 46.182975 
L 827.25826 46.346562 
L 827.951711 46.346562 
L 827.951711 46.630217 
L 828.645161 46.630217 
L 828.645161 46.822873 
L 829.338612 46.822873 
L 829.338612 46.593017 
L 830.032062 46.593017 
L 830.032062 45.683392 
L 830.725513 45.683392 
L 830.725513 46.45488 
L 832.112414 46.518357 
L 832.112414 46.339272 
L 832.805865 46.339272 
L 832.805865 46.749798 
L 833.499315 46.749798 
L 833.499315 45.752923 
L 834.192766 45.752923 
L 834.192766 45.017437 
L 834.886216 45.017437 
L 834.886216 45.697797 
L 835.579667 45.697797 
L 835.579667 44.91238 
L 836.273118 44.91238 
L 836.273118 48.609199 
L 836.966568 48.609199 
L 836.966568 49.79598 
L 837.660019 49.79598 
L 837.660019 49.675464 
L 838.353469 49.675464 
L 838.353469 50.300873 
L 839.04692 50.300873 
L 839.04692 49.96731 
L 839.740371 49.96731 
L 839.740371 49.069417 
L 842.514173 49.025032 
L 842.514173 49.733093 
L 843.207624 49.733093 
L 843.207624 49.397979 
L 844.594525 49.480984 
L 844.594525 49.857834 
L 845.981426 49.763335 
L 845.981426 49.4956 
L 846.674877 49.4956 
L 846.674877 49.043142 
L 847.368327 49.043142 
L 847.368327 45.929463 
L 848.061778 45.929463 
L 848.061778 44.687386 
L 848.755228 44.687386 
L 848.755228 43.127001 
L 849.448679 43.127001 
L 849.448679 42.835837 
L 850.142129 42.835837 
L 850.142129 42.237279 
L 850.83558 42.237279 
L 850.83558 42.506042 
L 851.529031 42.506042 
L 851.529031 43.135099 
L 852.222481 43.135099 
L 852.222481 44.201972 
L 852.915932 44.201972 
L 852.915932 43.651678 
L 853.609382 43.651678 
L 853.609382 41.466553 
L 854.302833 41.466553 
L 854.302833 41.859893 
L 854.996284 41.859893 
L 854.996284 42.40873 
L 856.383185 42.494425 
L 856.383185 43.464131 
L 857.076635 43.464131 
L 857.076635 45.623931 
L 857.770086 45.623931 
L 857.770086 41.359622 
L 858.463537 41.359622 
L 858.463537 39.562416 
L 859.156987 39.562416 
L 859.156987 39.305798 
L 859.850438 39.305798 
L 859.850438 38.777951 
L 861.237339 38.752996 
L 861.237339 38.927011 
L 862.62424 38.833865 
L 862.62424 37.161604 
L 864.011141 37.102979 
L 864.011141 38.16335 
L 864.704592 38.16335 
L 864.704592 39.087863 
L 865.398043 39.087863 
L 865.398043 37.693554 
L 866.091493 37.693554 
L 866.091493 38.712802 
L 866.784944 38.712802 
L 866.784944 37.654305 
L 867.478394 37.654305 
L 867.478394 39.050108 
L 868.171845 39.050108 
L 868.171845 39.710745 
L 868.865295 39.710745 
L 868.865295 39.235047 
L 869.558746 39.235047 
L 869.558746 39.733834 
L 870.252197 39.733834 
L 870.252197 39.954662 
L 870.945647 39.954662 
L 870.945647 38.970636 
L 871.639098 38.970636 
L 871.639098 39.34776 
L 873.025999 39.354163 
L 873.025999 40.456981 
L 873.71945 40.456981 
L 873.71945 41.056268 
L 874.4129 41.056268 
L 874.4129 40.066407 
L 875.106351 40.066407 
L 875.106351 37.393453 
L 875.799801 37.393453 
L 875.799801 37.139536 
L 876.493252 37.139536 
L 876.493252 36.997608 
L 877.186703 36.997608 
L 877.186703 36.789113 
L 877.880153 36.789113 
L 877.880153 37.17583 
L 878.573604 37.17583 
L 878.573604 37.052838 
L 879.960505 37.157915 
L 879.960505 37.464967 
L 880.653956 37.464967 
L 880.653956 37.910213 
L 882.040857 37.811125 
L 882.040857 37.548945 
L 882.734307 37.548945 
L 882.734307 38.004487 
L 883.427758 38.004487 
L 883.427758 37.632625 
L 884.121208 37.632625 
L 884.121208 37.834312 
L 884.814659 37.834312 
L 884.814659 39.808312 
L 885.50811 39.808312 
L 885.50811 40.237847 
L 887.194182 40.210328 
L 887.194182 40.210328 
" clip-path="url(#p6947e823d5)" style="fill: none; stroke: #3572c6; stroke-width: 1.2; stroke-linecap: square"/>
   </g>
   <g id="line2d_76">
    <path d="M 75.557818 21.105522 
L 887.194182 21.105522 
L 887.194182 21.105522 
" clip-path="url(#p6947e823d5)" style="fill: none; stroke: #83a83b; stroke-width: 1.2; stroke-linecap: square"/>
   </g>
   <g id="line2d_77">
    <path d="M 75.557818 50.300873 
L 887.194182 50.300873 
L 887.194182 50.300873 
" clip-path="url(#p6947e823d5)" style="fill: none; stroke: #c44e52; stroke-width: 1.2; stroke-linecap: square"/>
   </g>
   <g id="line2d_78">
    <path d="M 773.862564 301.512794 
L 773.862564 7.752794 
" clip-path="url(#p6947e823d5)" style="fill: none; stroke: #83a83b; stroke-width: 1.2; stroke-linecap: square"/>
   </g>
   <g id="line2d_79">
    <path d="M 839.04692 301.512794 
L 839.04692 7.752794 
" clip-path="url(#p6947e823d5)" style="fill: none; stroke: #c44e52; stroke-width: 1.2; stroke-linecap: square"/>
   </g>
   <g id="patch_3">
    <path d="M 34.976 301.512794 
L 34.976 7.752794 
" style="fill: none; stroke: #899ab8; stroke-width: 1.12; stroke-linejoin: miter; stroke-linecap: square"/>
   </g>
   <g id="patch_4">
    <path d="M 927.776 301.512794 
L 927.776 7.752794 
" style="fill: none; stroke: #899ab8; stroke-width: 1.12; stroke-linejoin: miter; stroke-linecap: square"/>
   </g>
   <g id="patch_5">
    <path d="M 34.976 301.512794 
L 927.776 301.512794 
" style="fill: none; stroke: #899ab8; stroke-width: 1.12; stroke-linejoin: miter; stroke-linecap: square"/>
   </g>
   <g id="patch_6">
    <path d="M 34.976 7.752794 
L 927.776 7.752794 
" style="fill: none; stroke: #899ab8; stroke-width: 1.12; stroke-linejoin: miter; stroke-linecap: square"/>
   </g>
   <g id="text_15">
    <!-- 64838.81 -->
    <g style="fill: #83a83b" transform="translate(202.112551 21.105522) scale(0.132 -0.132)">
     <defs>
      <path id="DejaVuSans-2e" d="M 684 794 
L 1344 794 
L 1344 0 
L 684 0 
L 684 794 
z
" transform="scale(0.015625)"/>
     </defs>
     <use xlink:href="#DejaVuSans-36"/>
     <use xlink:href="#DejaVuSans-34" x="63.623047"/>
     <use xlink:href="#DejaVuSans-38" x="127.246094"/>
     <use xlink:href="#DejaVuSans-33" x="190.869141"/>
     <use xlink:href="#DejaVuSans-38" x="254.492188"/>
     <use xlink:href="#DejaVuSans-2e" x="318.115234"/>
     <use xlink:href="#DejaVuSans-38" x="349.902344"/>
     <use xlink:href="#DejaVuSans-31" x="413.525391"/>
    </g>
   </g>
   <g id="text_16">
    <!-- 16194.75 -->
    <g style="fill: #c44e52" transform="translate(202.112551 50.300873) scale(0.132 -0.132)">
     <defs>
      <path id="DejaVuSans-39" d="M 703 97 
L 703 672 
Q 941 559 1184 500 
Q 1428 441 1663 441 
Q 2288 441 2617 861 
Q 2947 1281 2994 2138 
Q 2813 1869 2534 1725 
Q 2256 1581 1919 1581 
Q 1219 1581 811 2004 
Q 403 2428 403 3163 
Q 403 3881 828 4315 
Q 1253 4750 1959 4750 
Q 2769 4750 3195 4129 
Q 3622 3509 3622 2328 
Q 3622 1225 3098 567 
Q 2575 -91 1691 -91 
Q 1453 -91 1209 -44 
Q 966 3 703 97 
z
M 1959 2075 
Q 2384 2075 2632 2365 
Q 2881 2656 2881 3163 
Q 2881 3666 2632 3958 
Q 2384 4250 1959 4250 
Q 1534 4250 1286 3958 
Q 1038 3666 1038 3163 
Q 1038 2656 1286 2365 
Q 1534 2075 1959 2075 
z
" transform="scale(0.015625)"/>
      <path id="DejaVuSans-37" d="M 525 4666 
L 3525 4666 
L 3525 4397 
L 1831 0 
L 1172 0 
L 2766 4134 
L 525 4134 
L 525 4666 
z
" transform="scale(0.015625)"/>
     </defs>
     <use xlink:href="#DejaVuSans-31"/>
     <use xlink:href="#DejaVuSans-36" x="63.623047"/>
     <use xlink:href="#DejaVuSans-31" x="127.246094"/>
     <use xlink:href="#DejaVuSans-39" x="190.869141"/>
     <use xlink:href="#DejaVuSans-34" x="254.492188"/>
     <use xlink:href="#DejaVuSans-2e" x="318.115234"/>
     <use xlink:href="#DejaVuSans-37" x="349.902344"/>
     <use xlink:href="#DejaVuSans-35" x="413.525391"/>
    </g>
   </g>
   <g id="legend_1">
    <g id="patch_7">
     <path d="M 432.207453 295.212794 
L 530.544547 295.212794 
Q 533.064547 295.212794 533.064547 292.692794 
L 533.064547 238.119044 
Q 533.064547 235.599044 530.544547 235.599044 
L 432.207453 235.599044 
Q 429.687453 235.599044 429.687453 238.119044 
L 429.687453 292.692794 
Q 429.687453 295.212794 432.207453 295.212794 
z
" style="fill: #373e4b; opacity: 0.8; stroke: #cccccc; stroke-width: 0.16; stroke-linejoin: miter"/>
    </g>
    <g id="line2d_80">
     <path d="M 434.727453 245.803076 
L 434.727453 245.803076 
L 447.327453 245.803076 
L 447.327453 245.803076 
L 459.927453 245.803076 
" style="fill: none; stroke: #3572c6; stroke-width: 1.2; stroke-linecap: square"/>
    </g>
    <g id="text_17">
     <!-- USD/BTC -->
     <g style="fill: #b1bed6" transform="translate(470.007453 250.213076) scale(0.126 -0.126)">
      <defs>
       <path id="DejaVuSans-55" d="M 556 4666 
L 1191 4666 
L 1191 1831 
Q 1191 1081 1462 751 
Q 1734 422 2344 422 
Q 2950 422 3222 751 
Q 3494 1081 3494 1831 
L 3494 4666 
L 4128 4666 
L 4128 1753 
Q 4128 841 3676 375 
Q 3225 -91 2344 -91 
Q 1459 -91 1007 375 
Q 556 841 556 1753 
L 556 4666 
z
" transform="scale(0.015625)"/>
       <path id="DejaVuSans-53" d="M 3425 4513 
L 3425 3897 
Q 3066 4069 2747 4153 
Q 2428 4238 2131 4238 
Q 1616 4238 1336 4038 
Q 1056 3838 1056 3469 
Q 1056 3159 1242 3001 
Q 1428 2844 1947 2747 
L 2328 2669 
Q 3034 2534 3370 2195 
Q 3706 1856 3706 1288 
Q 3706 609 3251 259 
Q 2797 -91 1919 -91 
Q 1588 -91 1214 -16 
Q 841 59 441 206 
L 441 856 
Q 825 641 1194 531 
Q 1563 422 1919 422 
Q 2459 422 2753 634 
Q 3047 847 3047 1241 
Q 3047 1584 2836 1778 
Q 2625 1972 2144 2069 
L 1759 2144 
Q 1053 2284 737 2584 
Q 422 2884 422 3419 
Q 422 4038 858 4394 
Q 1294 4750 2059 4750 
Q 2388 4750 2728 4690 
Q 3069 4631 3425 4513 
z
" transform="scale(0.015625)"/>
       <path id="DejaVuSans-2f" d="M 1625 4666 
L 2156 4666 
L 531 -594 
L 0 -594 
L 1625 4666 
z
" transform="scale(0.015625)"/>
       <path id="DejaVuSans-42" d="M 1259 2228 
L 1259 519 
L 2272 519 
Q 2781 519 3026 730 
Q 3272 941 3272 1375 
Q 3272 1813 3026 2020 
Q 2781 2228 2272 2228 
L 1259 2228 
z
M 1259 4147 
L 1259 2741 
L 2194 2741 
Q 2656 2741 2882 2914 
Q 3109 3088 3109 3444 
Q 3109 3797 2882 3972 
Q 2656 4147 2194 4147 
L 1259 4147 
z
M 628 4666 
L 2241 4666 
Q 2963 4666 3353 4366 
Q 3744 4066 3744 3513 
Q 3744 3084 3544 2831 
Q 3344 2578 2956 2516 
Q 3422 2416 3680 2098 
Q 3938 1781 3938 1306 
Q 3938 681 3513 340 
Q 3088 0 2303 0 
L 628 0 
L 628 4666 
z
" transform="scale(0.015625)"/>
       <path id="DejaVuSans-54" d="M -19 4666 
L 3928 4666 
L 3928 4134 
L 2272 4134 
L 2272 0 
L 1638 0 
L 1638 4134 
L -19 4134 
L -19 4666 
z
" transform="scale(0.015625)"/>
       <path id="DejaVuSans-43" d="M 4122 4306 
L 4122 3641 
Q 3803 3938 3442 4084 
Q 3081 4231 2675 4231 
Q 1875 4231 1450 3742 
Q 1025 3253 1025 2328 
Q 1025 1406 1450 917 
Q 1875 428 2675 428 
Q 3081 428 3442 575 
Q 3803 722 4122 1019 
L 4122 359 
Q 3791 134 3420 21 
Q 3050 -91 2638 -91 
Q 1578 -91 968 557 
Q 359 1206 359 2328 
Q 359 3453 968 4101 
Q 1578 4750 2638 4750 
Q 3056 4750 3426 4639 
Q 3797 4528 4122 4306 
z
" transform="scale(0.015625)"/>
      </defs>
      <use xlink:href="#DejaVuSans-55"/>
      <use xlink:href="#DejaVuSans-53" x="73.193359"/>
      <use xlink:href="#DejaVuSans-44" x="136.669922"/>
      <use xlink:href="#DejaVuSans-2f" x="213.671875"/>
      <use xlink:href="#DejaVuSans-42" x="247.363281"/>
      <use xlink:href="#DejaVuSans-54" x="315.966797"/>
      <use xlink:href="#DejaVuSans-43" x="371.175781"/>
     </g>
    </g>
    <g id="line2d_81">
     <path d="M 434.727453 264.297513 
L 434.727453 264.297513 
L 447.327453 264.297513 
L 447.327453 264.297513 
L 459.927453 264.297513 
" style="fill: none; stroke: #83a83b; stroke-width: 1.2; stroke-linecap: square"/>
    </g>
    <g id="text_18">
     <!-- Max -->
     <g style="fill: #b1bed6" transform="translate(470.007453 268.707513) scale(0.126 -0.126)">
      <defs>
       <path id="DejaVuSans-4d" d="M 628 4666 
L 1569 4666 
L 2759 1491 
L 3956 4666 
L 4897 4666 
L 4897 0 
L 4281 0 
L 4281 4097 
L 3078 897 
L 2444 897 
L 1241 4097 
L 1241 0 
L 628 0 
L 628 4666 
z
" transform="scale(0.015625)"/>
       <path id="DejaVuSans-78" d="M 3513 3500 
L 2247 1797 
L 3578 0 
L 2900 0 
L 1881 1375 
L 863 0 
L 184 0 
L 1544 1831 
L 300 3500 
L 978 3500 
L 1906 2253 
L 2834 3500 
L 3513 3500 
z
" transform="scale(0.015625)"/>
      </defs>
      <use xlink:href="#DejaVuSans-4d"/>
      <use xlink:href="#DejaVuSans-61" x="86.279297"/>
      <use xlink:href="#DejaVuSans-78" x="147.558594"/>
     </g>
    </g>
    <g id="line2d_82">
     <path d="M 434.727453 282.791951 
L 434.727453 282.791951 
L 447.327453 282.791951 
L 447.327453 282.791951 
L 459.927453 282.791951 
" style="fill: none; stroke: #c44e52; stroke-width: 1.2; stroke-linecap: square"/>
    </g>
    <g id="text_19">
     <!-- local_Min -->
     <g style="fill: #b1bed6" transform="translate(470.007453 287.201951) scale(0.126 -0.126)">
      <defs>
       <path id="DejaVuSans-6c" d="M 603 4863 
L 1178 4863 
L 1178 0 
L 603 0 
L 603 4863 
z
" transform="scale(0.015625)"/>
       <path id="DejaVuSans-6f" d="M 1959 3097 
Q 1497 3097 1228 2736 
Q 959 2375 959 1747 
Q 959 1119 1226 758 
Q 1494 397 1959 397 
Q 2419 397 2687 759 
Q 2956 1122 2956 1747 
Q 2956 2369 2687 2733 
Q 2419 3097 1959 3097 
z
M 1959 3584 
Q 2709 3584 3137 3096 
Q 3566 2609 3566 1747 
Q 3566 888 3137 398 
Q 2709 -91 1959 -91 
Q 1206 -91 779 398 
Q 353 888 353 1747 
Q 353 2609 779 3096 
Q 1206 3584 1959 3584 
z
" transform="scale(0.015625)"/>
       <path id="DejaVuSans-63" d="M 3122 3366 
L 3122 2828 
Q 2878 2963 2633 3030 
Q 2388 3097 2138 3097 
Q 1578 3097 1268 2742 
Q 959 2388 959 1747 
Q 959 1106 1268 751 
Q 1578 397 2138 397 
Q 2388 397 2633 464 
Q 2878 531 3122 666 
L 3122 134 
Q 2881 22 2623 -34 
Q 2366 -91 2075 -91 
Q 1284 -91 818 406 
Q 353 903 353 1747 
Q 353 2603 823 3093 
Q 1294 3584 2113 3584 
Q 2378 3584 2631 3529 
Q 2884 3475 3122 3366 
z
" transform="scale(0.015625)"/>
       <path id="DejaVuSans-5f" d="M 3263 -1063 
L 3263 -1509 
L -63 -1509 
L -63 -1063 
L 3263 -1063 
z
" transform="scale(0.015625)"/>
       <path id="DejaVuSans-69" d="M 603 3500 
L 1178 3500 
L 1178 0 
L 603 0 
L 603 3500 
z
M 603 4863 
L 1178 4863 
L 1178 4134 
L 603 4134 
L 603 4863 
z
" transform="scale(0.015625)"/>
       <path id="DejaVuSans-6e" d="M 3513 2113 
L 3513 0 
L 2938 0 
L 2938 2094 
Q 2938 2591 2744 2837 
Q 2550 3084 2163 3084 
Q 1697 3084 1428 2787 
Q 1159 2491 1159 1978 
L 1159 0 
L 581 0 
L 581 3500 
L 1159 3500 
L 1159 2956 
Q 1366 3272 1645 3428 
Q 1925 3584 2291 3584 
Q 2894 3584 3203 3211 
Q 3513 2838 3513 2113 
z
" transform="scale(0.015625)"/>
      </defs>
      <use xlink:href="#DejaVuSans-6c"/>
      <use xlink:href="#DejaVuSans-6f" x="27.783203"/>
      <use xlink:href="#DejaVuSans-63" x="88.964844"/>
      <use xlink:href="#DejaVuSans-61" x="143.945312"/>
      <use xlink:href="#DejaVuSans-6c" x="205.224609"/>
      <use xlink:href="#DejaVuSans-5f" x="233.007812"/>
      <use xlink:href="#DejaVuSans-4d" x="283.007812"/>
      <use xlink:href="#DejaVuSans-69" x="369.287109"/>
      <use xlink:href="#DejaVuSans-6e" x="397.070312"/>
     </g>
    </g>
   </g>
  </g>
 </g>
 <defs>
  <clipPath id="p6947e823d5">
   <rect x="34.976" y="7.752794" width="892.8" height="293.76"/>
  </clipPath>
 </defs>
</svg>
