<?xml version="1.0" encoding="utf-8" standalone="no"?>
<!DOCTYPE svg PUBLIC "-//W3C//DTD SVG 1.1//EN"
  "http://www.w3.org/Graphics/SVG/1.1/DTD/svg11.dtd">
<svg xmlns:xlink="http://www.w3.org/1999/xlink" width="934.976pt" height="358.290693pt" viewBox="0 0 934.976 358.290693" xmlns="http://www.w3.org/2000/svg" version="1.1">
 <metadata>
  <rdf:RDF xmlns:dc="http://purl.org/dc/elements/1.1/" xmlns:cc="http://creativecommons.org/ns#" xmlns:rdf="http://www.w3.org/1999/02/22-rdf-syntax-ns#">
   <cc:Work>
    <dc:type rdf:resource="http://purl.org/dc/dcmitype/StillImage"/>
    <dc:date>2025-08-24T11:47:14.581750</dc:date>
    <dc:format>image/svg+xml</dc:format>
    <dc:creator>
     <cc:Agent>
      <dc:title>Matplotlib v3.10.5, https://matplotlib.org/</dc:title>
     </cc:Agent>
    </dc:creator>
   </cc:Work>
  </rdf:RDF>
 </metadata>
 <defs>
  <style type="text/css">*{stroke-linejoin: round; stroke-linecap: butt}</style>
 </defs>
 <g id="figure_1">
  <g id="patch_1">
   <path d="M 0 358.290693 
L 934.976 358.290693 
L 934.976 0 
L 0 0 
z
" style="fill: #373e4b"/>
  </g>
  <g id="axes_1">
   <g id="patch_2">
    <path d="M 34.976 300.96 
L 927.776 300.96 
L 927.776 7.2 
L 34.976 7.2 
z
" style="fill: #373e4b"/>
   </g>
   <g id="matplotlib.axis_1">
    <g id="xtick_1">
     <g id="line2d_1">
      <path d="M 139.324529 300.96 
L 139.324529 7.2 
" clip-path="url(#p5504013847)" style="fill: none; stroke: #546379; stroke-width: 1.12; stroke-linecap: square"/>
     </g>
     <g id="line2d_2"/>
     <g id="text_1">
      <!-- 2012 -->
      <g style="fill: #b1bed6" transform="translate(110.243489 330.884854) rotate(-30) scale(0.126 -0.126)">
       <defs>
        <path id="DejaVuSans-32" d="M 1228 531 
L 3431 531 
L 3431 0 
L 469 0 
L 469 531 
Q 828 903 1448 1529 
Q 2069 2156 2228 2338 
Q 2531 2678 2651 2914 
Q 2772 3150 2772 3378 
Q 2772 3750 2511 3984 
Q 2250 4219 1831 4219 
Q 1534 4219 1204 4116 
Q 875 4013 500 3803 
L 500 4441 
Q 881 4594 1212 4672 
Q 1544 4750 1819 4750 
Q 2544 4750 2975 4387 
Q 3406 4025 3406 3419 
Q 3406 3131 3298 2873 
Q 3191 2616 2906 2266 
Q 2828 2175 2409 1742 
Q 1991 1309 1228 531 
z
" transform="scale(0.015625)"/>
        <path id="DejaVuSans-30" d="M 2034 4250 
Q 1547 4250 1301 3770 
Q 1056 3291 1056 2328 
Q 1056 1369 1301 889 
Q 1547 409 2034 409 
Q 2525 409 2770 889 
Q 3016 1369 3016 2328 
Q 3016 3291 2770 3770 
Q 2525 4250 2034 4250 
z
M 2034 4750 
Q 2819 4750 3233 4129 
Q 3647 3509 3647 2328 
Q 3647 1150 3233 529 
Q 2819 -91 2034 -91 
Q 1250 -91 836 529 
Q 422 1150 422 2328 
Q 422 3509 836 4129 
Q 1250 4750 2034 4750 
z
" transform="scale(0.015625)"/>
        <path id="DejaVuSans-31" d="M 794 531 
L 1825 531 
L 1825 4091 
L 703 3866 
L 703 4441 
L 1819 4666 
L 2450 4666 
L 2450 531 
L 3481 531 
L 3481 0 
L 794 0 
L 794 531 
z
" transform="scale(0.015625)"/>
       </defs>
       <use xlink:href="#DejaVuSans-32"/>
       <use xlink:href="#DejaVuSans-30" transform="translate(63.623047 0)"/>
       <use xlink:href="#DejaVuSans-31" transform="translate(127.246094 0)"/>
       <use xlink:href="#DejaVuSans-32" transform="translate(190.869141 0)"/>
      </g>
     </g>
    </g>
    <g id="xtick_2">
     <g id="line2d_3">
      <path d="M 249.00327 300.96 
L 249.00327 7.2 
" clip-path="url(#p5504013847)" style="fill: none; stroke: #546379; stroke-width: 1.12; stroke-linecap: square"/>
     </g>
     <g id="line2d_4"/>
     <g id="text_2">
      <!-- 2014 -->
      <g style="fill: #b1bed6" transform="translate(219.922231 330.884854) rotate(-30) scale(0.126 -0.126)">
       <defs>
        <path id="DejaVuSans-34" d="M 2419 4116 
L 825 1625 
L 2419 1625 
L 2419 4116 
z
M 2253 4666 
L 3047 4666 
L 3047 1625 
L 3713 1625 
L 3713 1100 
L 3047 1100 
L 3047 0 
L 2419 0 
L 2419 1100 
L 313 1100 
L 313 1709 
L 2253 4666 
z
" transform="scale(0.015625)"/>
       </defs>
       <use xlink:href="#DejaVuSans-32"/>
       <use xlink:href="#DejaVuSans-30" transform="translate(63.623047 0)"/>
       <use xlink:href="#DejaVuSans-31" transform="translate(127.246094 0)"/>
       <use xlink:href="#DejaVuSans-34" transform="translate(190.869141 0)"/>
      </g>
     </g>
    </g>
    <g id="xtick_3">
     <g id="line2d_5">
      <path d="M 358.531973 300.96 
L 358.531973 7.2 
" clip-path="url(#p5504013847)" style="fill: none; stroke: #546379; stroke-width: 1.12; stroke-linecap: square"/>
     </g>
     <g id="line2d_6"/>
     <g id="text_3">
      <!-- 2016 -->
      <g style="fill: #b1bed6" transform="translate(329.450933 330.884854) rotate(-30) scale(0.126 -0.126)">
       <defs>
        <path id="DejaVuSans-36" d="M 2113 2584 
Q 1688 2584 1439 2293 
Q 1191 2003 1191 1497 
Q 1191 994 1439 701 
Q 1688 409 2113 409 
Q 2538 409 2786 701 
Q 3034 994 3034 1497 
Q 3034 2003 2786 2293 
Q 2538 2584 2113 2584 
z
M 3366 4563 
L 3366 3988 
Q 3128 4100 2886 4159 
Q 2644 4219 2406 4219 
Q 1781 4219 1451 3797 
Q 1122 3375 1075 2522 
Q 1259 2794 1537 2939 
Q 1816 3084 2150 3084 
Q 2853 3084 3261 2657 
Q 3669 2231 3669 1497 
Q 3669 778 3244 343 
Q 2819 -91 2113 -91 
Q 1303 -91 875 529 
Q 447 1150 447 2328 
Q 447 3434 972 4092 
Q 1497 4750 2381 4750 
Q 2619 4750 2861 4703 
Q 3103 4656 3366 4563 
z
" transform="scale(0.015625)"/>
       </defs>
       <use xlink:href="#DejaVuSans-32"/>
       <use xlink:href="#DejaVuSans-30" transform="translate(63.623047 0)"/>
       <use xlink:href="#DejaVuSans-31" transform="translate(127.246094 0)"/>
       <use xlink:href="#DejaVuSans-36" transform="translate(190.869141 0)"/>
      </g>
     </g>
    </g>
    <g id="xtick_4">
     <g id="line2d_7">
      <path d="M 468.210715 300.96 
L 468.210715 7.2 
" clip-path="url(#p5504013847)" style="fill: none; stroke: #546379; stroke-width: 1.12; stroke-linecap: square"/>
     </g>
     <g id="line2d_8"/>
     <g id="text_4">
      <!-- 2018 -->
      <g style="fill: #b1bed6" transform="translate(439.129675 330.884854) rotate(-30) scale(0.126 -0.126)">
       <defs>
        <path id="DejaVuSans-38" d="M 2034 2216 
Q 1584 2216 1326 1975 
Q 1069 1734 1069 1313 
Q 1069 891 1326 650 
Q 1584 409 2034 409 
Q 2484 409 2743 651 
Q 3003 894 3003 1313 
Q 3003 1734 2745 1975 
Q 2488 2216 2034 2216 
z
M 1403 2484 
Q 997 2584 770 2862 
Q 544 3141 544 3541 
Q 544 4100 942 4425 
Q 1341 4750 2034 4750 
Q 2731 4750 3128 4425 
Q 3525 4100 3525 3541 
Q 3525 3141 3298 2862 
Q 3072 2584 2669 2484 
Q 3125 2378 3379 2068 
Q 3634 1759 3634 1313 
Q 3634 634 3220 271 
Q 2806 -91 2034 -91 
Q 1263 -91 848 271 
Q 434 634 434 1313 
Q 434 1759 690 2068 
Q 947 2378 1403 2484 
z
M 1172 3481 
Q 1172 3119 1398 2916 
Q 1625 2713 2034 2713 
Q 2441 2713 2670 2916 
Q 2900 3119 2900 3481 
Q 2900 3844 2670 4047 
Q 2441 4250 2034 4250 
Q 1625 4250 1398 4047 
Q 1172 3844 1172 3481 
z
" transform="scale(0.015625)"/>
       </defs>
       <use xlink:href="#DejaVuSans-32"/>
       <use xlink:href="#DejaVuSans-30" transform="translate(63.623047 0)"/>
       <use xlink:href="#DejaVuSans-31" transform="translate(127.246094 0)"/>
       <use xlink:href="#DejaVuSans-38" transform="translate(190.869141 0)"/>
      </g>
     </g>
    </g>
    <g id="xtick_5">
     <g id="line2d_9">
      <path d="M 577.739417 300.96 
L 577.739417 7.2 
" clip-path="url(#p5504013847)" style="fill: none; stroke: #546379; stroke-width: 1.12; stroke-linecap: square"/>
     </g>
     <g id="line2d_10"/>
     <g id="text_5">
      <!-- 2020 -->
      <g style="fill: #b1bed6" transform="translate(548.658377 330.884854) rotate(-30) scale(0.126 -0.126)">
       <use xlink:href="#DejaVuSans-32"/>
       <use xlink:href="#DejaVuSans-30" transform="translate(63.623047 0)"/>
       <use xlink:href="#DejaVuSans-32" transform="translate(127.246094 0)"/>
       <use xlink:href="#DejaVuSans-30" transform="translate(190.869141 0)"/>
      </g>
     </g>
    </g>
    <g id="xtick_6">
     <g id="line2d_11">
      <path d="M 687.418159 300.96 
L 687.418159 7.2 
" clip-path="url(#p5504013847)" style="fill: none; stroke: #546379; stroke-width: 1.12; stroke-linecap: square"/>
     </g>
     <g id="line2d_12"/>
     <g id="text_6">
      <!-- 2022 -->
      <g style="fill: #b1bed6" transform="translate(658.337119 330.884854) rotate(-30) scale(0.126 -0.126)">
       <use xlink:href="#DejaVuSans-32"/>
       <use xlink:href="#DejaVuSans-30" transform="translate(63.623047 0)"/>
       <use xlink:href="#DejaVuSans-32" transform="translate(127.246094 0)"/>
       <use xlink:href="#DejaVuSans-32" transform="translate(190.869141 0)"/>
      </g>
     </g>
    </g>
    <g id="xtick_7">
     <g id="line2d_13">
      <path d="M 796.946861 300.96 
L 796.946861 7.2 
" clip-path="url(#p5504013847)" style="fill: none; stroke: #546379; stroke-width: 1.12; stroke-linecap: square"/>
     </g>
     <g id="line2d_14"/>
     <g id="text_7">
      <!-- 2024 -->
      <g style="fill: #b1bed6" transform="translate(767.865822 330.884854) rotate(-30) scale(0.126 -0.126)">
       <use xlink:href="#DejaVuSans-32"/>
       <use xlink:href="#DejaVuSans-30" transform="translate(63.623047 0)"/>
       <use xlink:href="#DejaVuSans-32" transform="translate(127.246094 0)"/>
       <use xlink:href="#DejaVuSans-34" transform="translate(190.869141 0)"/>
      </g>
     </g>
    </g>
    <g id="xtick_8">
     <g id="line2d_15">
      <path d="M 906.625603 300.96 
L 906.625603 7.2 
" clip-path="url(#p5504013847)" style="fill: none; stroke: #546379; stroke-width: 1.12; stroke-linecap: square"/>
     </g>
     <g id="line2d_16"/>
     <g id="text_8">
      <!-- 2026 -->
      <g style="fill: #b1bed6" transform="translate(877.544563 330.884854) rotate(-30) scale(0.126 -0.126)">
       <use xlink:href="#DejaVuSans-32"/>
       <use xlink:href="#DejaVuSans-30" transform="translate(63.623047 0)"/>
       <use xlink:href="#DejaVuSans-32" transform="translate(127.246094 0)"/>
       <use xlink:href="#DejaVuSans-36" transform="translate(190.869141 0)"/>
      </g>
     </g>
    </g>
    <g id="text_9">
     <!-- Date -->
     <g style="fill: #b1bed6" transform="translate(464.166875 348.095943) scale(0.144 -0.144)">
      <defs>
       <path id="DejaVuSans-44" d="M 1259 4147 
L 1259 519 
L 2022 519 
Q 2988 519 3436 956 
Q 3884 1394 3884 2338 
Q 3884 3275 3436 3711 
Q 2988 4147 2022 4147 
L 1259 4147 
z
M 628 4666 
L 1925 4666 
Q 3281 4666 3915 4102 
Q 4550 3538 4550 2338 
Q 4550 1131 3912 565 
Q 3275 0 1925 0 
L 628 0 
L 628 4666 
z
" transform="scale(0.015625)"/>
       <path id="DejaVuSans-61" d="M 2194 1759 
Q 1497 1759 1228 1600 
Q 959 1441 959 1056 
Q 959 750 1161 570 
Q 1363 391 1709 391 
Q 2188 391 2477 730 
Q 2766 1069 2766 1631 
L 2766 1759 
L 2194 1759 
z
M 3341 1997 
L 3341 0 
L 2766 0 
L 2766 531 
Q 2569 213 2275 61 
Q 1981 -91 1556 -91 
Q 1019 -91 701 211 
Q 384 513 384 1019 
Q 384 1609 779 1909 
Q 1175 2209 1959 2209 
L 2766 2209 
L 2766 2266 
Q 2766 2663 2505 2880 
Q 2244 3097 1772 3097 
Q 1472 3097 1187 3025 
Q 903 2953 641 2809 
L 641 3341 
Q 956 3463 1253 3523 
Q 1550 3584 1831 3584 
Q 2591 3584 2966 3190 
Q 3341 2797 3341 1997 
z
" transform="scale(0.015625)"/>
       <path id="DejaVuSans-74" d="M 1172 4494 
L 1172 3500 
L 2356 3500 
L 2356 3053 
L 1172 3053 
L 1172 1153 
Q 1172 725 1289 603 
Q 1406 481 1766 481 
L 2356 481 
L 2356 0 
L 1766 0 
Q 1100 0 847 248 
Q 594 497 594 1153 
L 594 3053 
L 172 3053 
L 172 3500 
L 594 3500 
L 594 4494 
L 1172 4494 
z
" transform="scale(0.015625)"/>
       <path id="DejaVuSans-65" d="M 3597 1894 
L 3597 1613 
L 953 1613 
Q 991 1019 1311 708 
Q 1631 397 2203 397 
Q 2534 397 2845 478 
Q 3156 559 3463 722 
L 3463 178 
Q 3153 47 2828 -22 
Q 2503 -91 2169 -91 
Q 1331 -91 842 396 
Q 353 884 353 1716 
Q 353 2575 817 3079 
Q 1281 3584 2069 3584 
Q 2775 3584 3186 3129 
Q 3597 2675 3597 1894 
z
M 3022 2063 
Q 3016 2534 2758 2815 
Q 2500 3097 2075 3097 
Q 1594 3097 1305 2825 
Q 1016 2553 972 2059 
L 3022 2063 
z
" transform="scale(0.015625)"/>
      </defs>
      <use xlink:href="#DejaVuSans-44"/>
      <use xlink:href="#DejaVuSans-61" transform="translate(77.001953 0)"/>
      <use xlink:href="#DejaVuSans-74" transform="translate(138.28125 0)"/>
      <use xlink:href="#DejaVuSans-65" transform="translate(177.490234 0)"/>
     </g>
    </g>
   </g>
   <g id="matplotlib.axis_2">
    <g id="ytick_1">
     <g id="line2d_17">
      <path d="M 34.976 255.287978 
L 927.776 255.287978 
" clip-path="url(#p5504013847)" style="fill: none; stroke: #546379; stroke-width: 1.12; stroke-linecap: square"/>
     </g>
     <g id="line2d_18"/>
     <g id="text_10">
      <!-- $\mathdefault{10^{0}}$ -->
      <g style="fill: #b1bed6" transform="translate(7.2 260.074994) scale(0.126 -0.126)">
       <use xlink:href="#DejaVuSans-31" transform="translate(0 0.765625)"/>
       <use xlink:href="#DejaVuSans-30" transform="translate(63.623047 0.765625)"/>
       <use xlink:href="#DejaVuSans-30" transform="translate(128.203125 39.046875) scale(0.7)"/>
      </g>
     </g>
    </g>
    <g id="ytick_2">
     <g id="line2d_19">
      <path d="M 34.976 209.049521 
L 927.776 209.049521 
" clip-path="url(#p5504013847)" style="fill: none; stroke: #546379; stroke-width: 1.12; stroke-linecap: square"/>
     </g>
     <g id="line2d_20"/>
     <g id="text_11">
      <!-- $\mathdefault{10^{1}}$ -->
      <g style="fill: #b1bed6" transform="translate(7.2 213.836537) scale(0.126 -0.126)">
       <use xlink:href="#DejaVuSans-31" transform="translate(0 0.684375)"/>
       <use xlink:href="#DejaVuSans-30" transform="translate(63.623047 0.684375)"/>
       <use xlink:href="#DejaVuSans-31" transform="translate(128.203125 38.965625) scale(0.7)"/>
      </g>
     </g>
    </g>
    <g id="ytick_3">
     <g id="line2d_21">
      <path d="M 34.976 162.811064 
L 927.776 162.811064 
" clip-path="url(#p5504013847)" style="fill: none; stroke: #546379; stroke-width: 1.12; stroke-linecap: square"/>
     </g>
     <g id="line2d_22"/>
     <g id="text_12">
      <!-- $\mathdefault{10^{2}}$ -->
      <g style="fill: #b1bed6" transform="translate(7.2 167.598079) scale(0.126 -0.126)">
       <use xlink:href="#DejaVuSans-31" transform="translate(0 0.765625)"/>
       <use xlink:href="#DejaVuSans-30" transform="translate(63.623047 0.765625)"/>
       <use xlink:href="#DejaVuSans-32" transform="translate(128.203125 39.046875) scale(0.7)"/>
      </g>
     </g>
    </g>
    <g id="ytick_4">
     <g id="line2d_23">
      <path d="M 34.976 116.572607 
L 927.776 116.572607 
" clip-path="url(#p5504013847)" style="fill: none; stroke: #546379; stroke-width: 1.12; stroke-linecap: square"/>
     </g>
     <g id="line2d_24"/>
     <g id="text_13">
      <!-- $\mathdefault{10^{3}}$ -->
      <g style="fill: #b1bed6" transform="translate(7.2 121.359622) scale(0.126 -0.126)">
       <defs>
        <path id="DejaVuSans-33" d="M 2597 2516 
Q 3050 2419 3304 2112 
Q 3559 1806 3559 1356 
Q 3559 666 3084 287 
Q 2609 -91 1734 -91 
Q 1441 -91 1130 -33 
Q 819 25 488 141 
L 488 750 
Q 750 597 1062 519 
Q 1375 441 1716 441 
Q 2309 441 2620 675 
Q 2931 909 2931 1356 
Q 2931 1769 2642 2001 
Q 2353 2234 1838 2234 
L 1294 2234 
L 1294 2753 
L 1863 2753 
Q 2328 2753 2575 2939 
Q 2822 3125 2822 3475 
Q 2822 3834 2567 4026 
Q 2313 4219 1838 4219 
Q 1578 4219 1281 4162 
Q 984 4106 628 3988 
L 628 4550 
Q 988 4650 1302 4700 
Q 1616 4750 1894 4750 
Q 2613 4750 3031 4423 
Q 3450 4097 3450 3541 
Q 3450 3153 3228 2886 
Q 3006 2619 2597 2516 
z
" transform="scale(0.015625)"/>
       </defs>
       <use xlink:href="#DejaVuSans-31" transform="translate(0 0.765625)"/>
       <use xlink:href="#DejaVuSans-30" transform="translate(63.623047 0.765625)"/>
       <use xlink:href="#DejaVuSans-33" transform="translate(128.203125 39.046875) scale(0.7)"/>
      </g>
     </g>
    </g>
    <g id="ytick_5">
     <g id="line2d_25">
      <path d="M 34.976 70.334149 
L 927.776 70.334149 
" clip-path="url(#p5504013847)" style="fill: none; stroke: #546379; stroke-width: 1.12; stroke-linecap: square"/>
     </g>
     <g id="line2d_26"/>
     <g id="text_14">
      <!-- $\mathdefault{10^{4}}$ -->
      <g style="fill: #b1bed6" transform="translate(7.2 75.121165) scale(0.126 -0.126)">
       <use xlink:href="#DejaVuSans-31" transform="translate(0 0.684375)"/>
       <use xlink:href="#DejaVuSans-30" transform="translate(63.623047 0.684375)"/>
       <use xlink:href="#DejaVuSans-34" transform="translate(128.203125 38.965625) scale(0.7)"/>
      </g>
     </g>
    </g>
    <g id="ytick_6">
     <g id="line2d_27">
      <path d="M 34.976 24.095692 
L 927.776 24.095692 
" clip-path="url(#p5504013847)" style="fill: none; stroke: #546379; stroke-width: 1.12; stroke-linecap: square"/>
     </g>
     <g id="line2d_28"/>
     <g id="text_15">
      <!-- $\mathdefault{10^{5}}$ -->
      <g style="fill: #b1bed6" transform="translate(7.2 28.882708) scale(0.126 -0.126)">
       <defs>
        <path id="DejaVuSans-35" d="M 691 4666 
L 3169 4666 
L 3169 4134 
L 1269 4134 
L 1269 2991 
Q 1406 3038 1543 3061 
Q 1681 3084 1819 3084 
Q 2600 3084 3056 2656 
Q 3513 2228 3513 1497 
Q 3513 744 3044 326 
Q 2575 -91 1722 -91 
Q 1428 -91 1123 -41 
Q 819 9 494 109 
L 494 744 
Q 775 591 1075 516 
Q 1375 441 1709 441 
Q 2250 441 2565 725 
Q 2881 1009 2881 1497 
Q 2881 1984 2565 2268 
Q 2250 2553 1709 2553 
Q 1456 2553 1204 2497 
Q 953 2441 691 2322 
L 691 4666 
z
" transform="scale(0.015625)"/>
       </defs>
       <use xlink:href="#DejaVuSans-31" transform="translate(0 0.684375)"/>
       <use xlink:href="#DejaVuSans-30" transform="translate(63.623047 0.684375)"/>
       <use xlink:href="#DejaVuSans-35" transform="translate(128.203125 38.965625) scale(0.7)"/>
      </g>
     </g>
    </g>
    <g id="ytick_7">
     <g id="line2d_29"/>
    </g>
    <g id="ytick_8">
     <g id="line2d_30"/>
    </g>
    <g id="ytick_9">
     <g id="line2d_31"/>
    </g>
    <g id="ytick_10">
     <g id="line2d_32"/>
    </g>
    <g id="ytick_11">
     <g id="line2d_33"/>
    </g>
    <g id="ytick_12">
     <g id="line2d_34"/>
    </g>
    <g id="ytick_13">
     <g id="line2d_35"/>
    </g>
    <g id="ytick_14">
     <g id="line2d_36"/>
    </g>
    <g id="ytick_15">
     <g id="line2d_37"/>
    </g>
    <g id="ytick_16">
     <g id="line2d_38"/>
    </g>
    <g id="ytick_17">
     <g id="line2d_39"/>
    </g>
    <g id="ytick_18">
     <g id="line2d_40"/>
    </g>
    <g id="ytick_19">
     <g id="line2d_41"/>
    </g>
    <g id="ytick_20">
     <g id="line2d_42"/>
    </g>
    <g id="ytick_21">
     <g id="line2d_43"/>
    </g>
    <g id="ytick_22">
     <g id="line2d_44"/>
    </g>
    <g id="ytick_23">
     <g id="line2d_45"/>
    </g>
    <g id="ytick_24">
     <g id="line2d_46"/>
    </g>
    <g id="ytick_25">
     <g id="line2d_47"/>
    </g>
    <g id="ytick_26">
     <g id="line2d_48"/>
    </g>
    <g id="ytick_27">
     <g id="line2d_49"/>
    </g>
    <g id="ytick_28">
     <g id="line2d_50"/>
    </g>
    <g id="ytick_29">
     <g id="line2d_51"/>
    </g>
    <g id="ytick_30">
     <g id="line2d_52"/>
    </g>
    <g id="ytick_31">
     <g id="line2d_53"/>
    </g>
    <g id="ytick_32">
     <g id="line2d_54"/>
    </g>
    <g id="ytick_33">
     <g id="line2d_55"/>
    </g>
    <g id="ytick_34">
     <g id="line2d_56"/>
    </g>
    <g id="ytick_35">
     <g id="line2d_57"/>
    </g>
    <g id="ytick_36">
     <g id="line2d_58"/>
    </g>
    <g id="ytick_37">
     <g id="line2d_59"/>
    </g>
    <g id="ytick_38">
     <g id="line2d_60"/>
    </g>
    <g id="ytick_39">
     <g id="line2d_61"/>
    </g>
    <g id="ytick_40">
     <g id="line2d_62"/>
    </g>
    <g id="ytick_41">
     <g id="line2d_63"/>
    </g>
    <g id="ytick_42">
     <g id="line2d_64"/>
    </g>
    <g id="ytick_43">
     <g id="line2d_65"/>
    </g>
    <g id="ytick_44">
     <g id="line2d_66"/>
    </g>
    <g id="ytick_45">
     <g id="line2d_67"/>
    </g>
    <g id="ytick_46">
     <g id="line2d_68"/>
    </g>
    <g id="ytick_47">
     <g id="line2d_69"/>
    </g>
    <g id="ytick_48">
     <g id="line2d_70"/>
    </g>
    <g id="ytick_49">
     <g id="line2d_71"/>
    </g>
    <g id="ytick_50">
     <g id="line2d_72"/>
    </g>
    <g id="ytick_51">
     <g id="line2d_73"/>
    </g>
    <g id="ytick_52">
     <g id="line2d_74"/>
    </g>
    <g id="ytick_53">
     <g id="line2d_75"/>
    </g>
    <g id="ytick_54">
     <g id="line2d_76"/>
    </g>
    <g id="ytick_55">
     <g id="line2d_77"/>
    </g>
   </g>
   <g id="line2d_78">
    <path d="M 75.557818 287.607273 
L 75.557818 283.126303 
L 76.157975 283.126303 
L 76.157975 278.16908 
L 76.758133 278.16908 
L 76.758133 279.465085 
L 77.35829 279.465085 
L 77.35829 280.850538 
L 77.958447 280.850538 
L 77.958447 280.145865 
L 78.558605 280.145865 
L 78.558605 280.850538 
L 79.758919 280.850538 
L 79.758919 282.338708 
L 80.359076 282.338708 
L 80.359076 284.800698 
L 81.559391 284.800698 
L 81.559391 283.126303 
L 82.159548 283.126303 
L 82.159548 282.338708 
L 82.759705 282.338708 
L 82.759705 283.126303 
L 83.359863 283.126303 
L 83.359863 281.58084 
L 83.96002 281.58084 
L 83.96002 279.465085 
L 85.160335 279.465085 
L 85.160335 278.16908 
L 85.760492 278.16908 
L 85.760492 275.803866 
L 86.360649 275.803866 
L 86.360649 273.68811 
L 86.960806 273.68811 
L 86.960806 274.718136 
L 87.560964 274.718136 
L 87.560964 271.774176 
L 88.161121 271.774176 
L 88.161121 271.322896 
L 88.761278 271.322896 
L 88.761278 256.962373 
L 89.961593 256.962373 
L 89.961593 255.899633 
L 90.56175 255.899633 
L 90.56175 253.742515 
L 91.161907 253.742515 
L 91.161907 254.308218 
L 91.762065 254.308218 
L 91.762065 257.855014 
L 92.362222 257.855014 
L 92.362222 255.287978 
L 92.962379 255.287978 
L 92.962379 255.899633 
L 93.562536 255.899633 
L 93.562536 256.962373 
L 94.162694 256.962373 
L 94.162694 257.855014 
L 94.762851 257.855014 
L 94.762851 257.181841 
L 95.363008 257.181841 
L 95.363008 258.084515 
L 95.963165 258.084515 
L 95.963165 260.021543 
L 96.563323 260.021543 
L 96.563323 257.628106 
L 97.16348 257.628106 
L 97.16348 259.768948 
L 98.363795 259.768948 
L 98.363795 261.064953 
L 98.963952 261.064953 
L 98.963952 260.798974 
L 99.564109 260.798974 
L 99.564109 255.693671 
L 100.164266 255.693671 
L 100.164266 251.626759 
L 100.764424 251.626759 
L 100.764424 248.820185 
L 101.364581 248.820185 
L 101.364581 243.708944 
L 101.964738 243.708944 
L 101.964738 226.758834 
L 102.564896 226.758834 
L 102.564896 229.789781 
L 103.165053 229.789781 
L 103.165053 227.906638 
L 103.76521 227.906638 
L 103.76521 217.54624 
L 104.365367 217.54624 
L 104.365367 212.384081 
L 104.965525 212.384081 
L 104.965525 216.269405 
L 105.565682 216.269405 
L 105.565682 215.451956 
L 106.165839 215.451956 
L 106.165839 211.892274 
L 106.765996 211.892274 
L 106.765996 209.723378 
L 107.366154 209.723378 
L 107.366154 196.107609 
L 107.966311 196.107609 
L 107.966311 185.479929 
L 108.566468 185.479929 
L 108.566468 191.755656 
L 109.166626 191.755656 
L 109.166626 196.298254 
L 109.766783 196.298254 
L 109.766783 200.391896 
L 110.36694 200.391896 
L 110.36694 197.720226 
L 110.967097 197.720226 
L 110.967097 197.984682 
L 111.567255 197.984682 
L 111.567255 199.940326 
L 112.167412 199.940326 
L 112.167412 199.486212 
L 112.767569 199.486212 
L 112.767569 200.813839 
L 113.367726 200.813839 
L 113.367726 201.937359 
L 113.967884 201.937359 
L 113.967884 201.532794 
L 114.568041 201.532794 
L 114.568041 202.393443 
L 115.168198 202.393443 
L 115.168198 202.149859 
L 115.768356 202.149859 
L 115.768356 201.477626 
L 116.368513 201.477626 
L 116.368513 206.242946 
L 116.96867 206.242946 
L 116.96867 209.744155 
L 117.568827 209.744155 
L 117.568827 209.190583 
L 118.168985 209.190583 
L 118.168985 206.488912 
L 118.769142 206.488912 
L 118.769142 205.811078 
L 119.369299 205.811078 
L 119.369299 206.595256 
L 119.969456 206.595256 
L 119.969456 210.121868 
L 120.569614 210.121868 
L 120.569614 212.407803 
L 121.169771 212.407803 
L 121.169771 212.863939 
L 121.769928 212.863939 
L 121.769928 216.912523 
L 122.370086 216.912523 
L 122.370086 218.681424 
L 122.970243 218.681424 
L 122.970243 222.888519 
L 123.5704 222.888519 
L 123.5704 218.713891 
L 124.170557 218.713891 
L 124.170557 221.091294 
L 124.770715 221.091294 
L 124.770715 223.211114 
L 125.370872 223.211114 
L 125.370872 222.729145 
L 125.971029 222.729145 
L 125.971029 223.830314 
L 126.571186 223.830314 
L 126.571186 226.662058 
L 127.171344 226.662058 
L 127.171344 227.399513 
L 127.771501 227.399513 
L 127.771501 236.177635 
L 128.371658 236.177635 
L 128.371658 231.191357 
L 128.971816 231.191357 
L 128.971816 232.568171 
L 129.571973 232.568171 
L 129.571973 230.831686 
L 130.17213 230.831686 
L 130.17213 231.805506 
L 130.772287 231.805506 
L 130.772287 231.993474 
L 131.372445 231.993474 
L 131.372445 232.503498 
L 131.972602 232.503498 
L 131.972602 236.100251 
L 132.572759 236.100251 
L 132.572759 237.293539 
L 133.172916 237.293539 
L 133.172916 237.049141 
L 133.773074 237.049141 
L 133.773074 235.793663 
L 134.373231 235.793663 
L 134.373231 232.310718 
L 134.973388 232.310718 
L 134.973388 232.828969 
L 135.573546 232.828969 
L 135.573546 232.439032 
L 136.173703 232.439032 
L 136.173703 231.557588 
L 136.77386 231.557588 
L 136.77386 230.950862 
L 137.374017 230.950862 
L 137.374017 227.55031 
L 137.974175 227.55031 
L 137.974175 226.232243 
L 138.574332 226.232243 
L 138.574332 225.218762 
L 139.174489 225.218762 
L 139.174489 221.535093 
L 139.774646 221.535093 
L 139.774646 216.040558 
L 140.374804 216.040558 
L 140.374804 215.927105 
L 140.974961 215.927105 
L 140.974961 216.097526 
L 141.575118 216.097526 
L 141.575118 218.105811 
L 142.175276 218.105811 
L 142.175276 217.793015 
L 142.775433 217.793015 
L 142.775433 220.337491 
L 143.37559 220.337491 
L 143.37559 220.514418 
L 143.975747 220.514418 
L 143.975747 219.340961 
L 144.575905 219.340961 
L 144.575905 219.85023 
L 145.776219 219.919119 
L 145.776219 224.04103 
L 146.376377 224.04103 
L 146.376377 225.084439 
L 146.976534 225.084439 
L 146.976534 222.297276 
L 147.576691 222.297276 
L 147.576691 223.049169 
L 148.176848 223.049169 
L 148.176848 223.746642 
L 148.777006 223.746642 
L 148.777006 222.76887 
L 149.377163 222.76887 
L 149.377163 223.049169 
L 149.97732 223.049169 
L 149.97732 221.27502 
L 150.577477 221.27502 
L 150.577477 222.065569 
L 151.177635 222.065569 
L 151.177635 223.746642 
L 151.777792 223.746642 
L 151.777792 223.914335 
L 152.377949 223.914335 
L 152.377949 223.211114 
L 153.578264 223.129978 
L 153.578264 223.788434 
L 154.178421 223.788434 
L 154.178421 223.089533 
L 155.378736 223.008886 
L 155.378736 222.027209 
L 155.978893 222.027209 
L 155.978893 222.219743 
L 156.57905 222.219743 
L 156.57905 222.610438 
L 157.179207 222.610438 
L 157.179207 222.258472 
L 157.779365 222.258472 
L 157.779365 222.571025 
L 158.979679 222.571025 
L 158.979679 222.76887 
L 159.579837 222.76887 
L 159.579837 222.453247 
L 161.380308 222.37511 
L 161.380308 222.258472 
L 161.980466 222.258472 
L 161.980466 221.912569 
L 162.580623 221.912569 
L 162.580623 220.836869 
L 163.780937 220.764765 
L 163.780937 218.423557 
L 164.381095 218.423557 
L 164.381095 217.515605 
L 164.981252 217.515605 
L 164.981252 217.272195 
L 165.581409 217.272195 
L 165.581409 217.454475 
L 166.181567 217.454475 
L 166.181567 217.061604 
L 166.781724 217.061604 
L 166.781724 216.912523 
L 167.381881 216.912523 
L 167.381881 216.269405 
L 167.982038 216.269405 
L 167.982038 213.910586 
L 168.582196 213.910586 
L 168.582196 210.143061 
L 169.182353 210.143061 
L 169.182353 210.016233 
L 169.78251 210.016233 
L 169.78251 211.616557 
L 170.382667 211.616557 
L 170.382667 211.277149 
L 170.982825 211.277149 
L 170.982825 208.809982 
L 171.582982 208.809982 
L 171.582982 206.720039 
L 172.183139 206.720039 
L 172.183139 206.069083 
L 172.783297 206.069083 
L 172.783297 204.892447 
L 173.383454 204.892447 
L 173.383454 201.615831 
L 173.983611 201.615831 
L 173.983611 208.534084 
L 174.583768 208.534084 
L 174.583768 207.153851 
L 175.183926 207.153851 
L 175.183926 207.300563 
L 175.784083 207.300563 
L 175.784083 208.031547 
L 176.38424 208.031547 
L 176.38424 206.648639 
L 177.584555 206.702165 
L 177.584555 205.657851 
L 178.184712 205.657851 
L 178.184712 204.360786 
L 178.784869 204.360786 
L 178.784869 204.925126 
L 179.385027 204.925126 
L 179.385027 204.632914 
L 179.985184 204.632914 
L 179.985184 204.440442 
L 180.585341 204.440442 
L 180.585341 203.827351 
L 181.185498 203.827351 
L 181.185498 204.892447 
L 181.785656 204.892447 
L 181.785656 205.221653 
L 182.385813 205.221653 
L 182.385813 205.421799 
L 182.98597 205.421799 
L 182.98597 205.725808 
L 183.586127 205.725808 
L 183.586127 206.138448 
L 184.186285 206.138448 
L 184.186285 207.263784 
L 184.786442 207.263784 
L 184.786442 207.026351 
L 185.386599 207.026351 
L 185.386599 207.190429 
L 186.586914 207.227073 
L 186.586914 207.008203 
L 187.187071 207.008203 
L 187.187071 205.691801 
L 187.787228 205.691801 
L 187.787228 204.859822 
L 188.387386 204.859822 
L 188.387386 204.376692 
L 189.5877 204.313144 
L 189.5877 203.642412 
L 190.187857 203.642412 
L 190.187857 202.948851 
L 190.788015 202.948851 
L 190.788015 202.581728 
L 191.388172 202.581728 
L 191.388172 202.83064 
L 192.588487 202.727773 
L 192.588487 203.097601 
L 193.188644 203.097601 
L 193.188644 202.801196 
L 193.788801 202.801196 
L 193.788801 202.993361 
L 194.989116 202.963677 
L 194.989116 202.307135 
L 195.589273 202.307135 
L 195.589273 201.852984 
L 196.18943 201.852984 
L 196.18943 200.210048 
L 196.789588 200.210048 
L 196.789588 198.240941 
L 197.389745 198.240941 
L 197.389745 196.652541 
L 197.989902 196.652541 
L 197.989902 195.352474 
L 198.590059 195.352474 
L 198.590059 194.150598 
L 199.190217 194.150598 
L 199.190217 193.650079 
L 199.790374 193.650079 
L 199.790374 191.494257 
L 200.390531 191.494257 
L 200.390531 188.955725 
L 200.990688 188.955725 
L 200.990688 189.118806 
L 201.590846 189.118806 
L 201.590846 186.64308 
L 202.191003 186.64308 
L 202.191003 186.200575 
L 202.79116 186.200575 
L 202.79116 184.327641 
L 203.391318 184.327641 
L 203.391318 180.231435 
L 203.991475 180.231435 
L 203.991475 178.580003 
L 204.591632 178.580003 
L 204.591632 178.032658 
L 205.191789 178.032658 
L 205.191789 175.896343 
L 205.791947 175.896343 
L 205.791947 169.901901 
L 206.392104 169.901901 
L 206.392104 167.59808 
L 206.992261 167.59808 
L 206.992261 164.376618 
L 207.592418 164.376618 
L 207.592418 157.38862 
L 208.192576 157.38862 
L 208.192576 152.962911 
L 208.792733 152.962911 
L 208.792733 158.346166 
L 209.39289 158.346166 
L 209.39289 170.526084 
L 209.993048 170.526084 
L 209.993048 159.331393 
L 210.593205 159.331393 
L 210.593205 155.698902 
L 211.193362 155.698902 
L 211.193362 157.775551 
L 211.793519 157.775551 
L 211.793519 159.658255 
L 212.393677 159.658255 
L 212.393677 159.834088 
L 212.993834 159.834088 
L 212.993834 160.411964 
L 213.593991 160.411964 
L 213.593991 159.489052 
L 214.194148 159.489052 
L 214.194148 158.601814 
L 215.394463 158.703028 
L 215.394463 157.237433 
L 216.594778 157.190324 
L 216.594778 158.748905 
L 217.194935 158.748905 
L 217.194935 159.322952 
L 217.795092 159.322952 
L 217.795092 161.622024 
L 218.395249 161.622024 
L 218.395249 162.81508 
L 218.995407 162.81508 
L 218.995407 161.379343 
L 219.595564 161.379343 
L 219.595564 161.200628 
L 220.195721 161.200628 
L 220.195721 162.023468 
L 220.795878 162.023468 
L 220.795878 163.371029 
L 221.396036 163.371029 
L 221.396036 167.281995 
L 221.996193 167.281995 
L 221.996193 168.193005 
L 222.59635 168.193005 
L 222.59635 164.055727 
L 223.196508 164.055727 
L 223.196508 163.41237 
L 223.796665 163.41237 
L 223.796665 165.063388 
L 224.396822 165.063388 
L 224.396822 163.944934 
L 224.996979 163.944934 
L 224.996979 163.07383 
L 225.597137 163.07383 
L 225.597137 161.90411 
L 226.197294 161.90411 
L 226.197294 161.505021 
L 226.797451 161.505021 
L 226.797451 162.256521 
L 227.397608 162.256521 
L 227.397608 161.016143 
L 227.997766 161.016143 
L 227.997766 162.869384 
L 228.597923 162.869384 
L 228.597923 160.818784 
L 229.19808 160.818784 
L 229.19808 160.307101 
L 229.798238 160.307101 
L 229.798238 159.402441 
L 230.398395 159.402441 
L 230.398395 157.528601 
L 230.998552 157.528601 
L 230.998552 159.55383 
L 231.598709 159.55383 
L 231.598709 158.814627 
L 232.198867 158.814627 
L 232.198867 158.483294 
L 232.799024 158.483294 
L 232.799024 157.992375 
L 233.399181 157.992375 
L 233.399181 158.665422 
L 233.999338 158.665422 
L 233.999338 158.3864 
L 234.599496 158.3864 
L 234.599496 158.130281 
L 235.199653 158.130281 
L 235.199653 158.827797 
L 235.79981 158.827797 
L 235.79981 158.471965 
L 236.399968 158.471965 
L 236.399968 157.918266 
L 237.000125 157.918266 
L 237.000125 156.315642 
L 237.600282 156.315642 
L 237.600282 150.33625 
L 238.200439 150.33625 
L 238.200439 149.366356 
L 238.800597 149.366356 
L 238.800597 148.210786 
L 239.400754 148.210786 
L 239.400754 148.592921 
L 240.000911 148.592921 
L 240.000911 144.203962 
L 240.601069 144.203962 
L 240.601069 138.835779 
L 241.201226 138.835779 
L 241.201226 135.327269 
L 241.801383 135.327269 
L 241.801383 131.521795 
L 242.40154 131.521795 
L 242.40154 123.259621 
L 243.001698 123.259621 
L 243.001698 120.691386 
L 243.601855 120.691386 
L 243.601855 114.048269 
L 244.202012 114.048269 
L 244.202012 115.58883 
L 244.802169 115.58883 
L 244.802169 123.566204 
L 245.402327 123.566204 
L 245.402327 119.210965 
L 246.002484 119.210965 
L 246.002484 119.531834 
L 246.602641 119.531834 
L 246.602641 124.161228 
L 247.202799 124.161228 
L 247.202799 124.916921 
L 247.802956 124.916921 
L 247.802956 123.058634 
L 248.403113 123.058634 
L 248.403113 122.837405 
L 249.00327 122.837405 
L 249.00327 120.344818 
L 249.603428 120.344818 
L 249.603428 120.477069 
L 250.203585 120.477069 
L 250.203585 119.977467 
L 250.803742 119.977467 
L 250.803742 120.627637 
L 251.403899 120.627637 
L 251.403899 120.367366 
L 252.004057 120.367366 
L 252.004057 121.561471 
L 252.604214 121.561471 
L 252.604214 121.418329 
L 253.204371 121.418329 
L 253.204371 120.629357 
L 253.804529 120.629357 
L 253.804529 121.536257 
L 254.404686 121.536257 
L 254.404686 124.100663 
L 255.004843 124.100663 
L 255.004843 126.498624 
L 255.605 126.498624 
L 255.605 125.852065 
L 256.205158 125.852065 
L 256.205158 127.52865 
L 256.805315 127.52865 
L 256.805315 128.233223 
L 257.405472 128.233223 
L 257.405472 127.949553 
L 258.005629 127.949553 
L 258.005629 124.59367 
L 258.605787 124.59367 
L 258.605787 125.537683 
L 259.806101 125.50288 
L 259.806101 126.020119 
L 260.406259 126.020119 
L 260.406259 127.759019 
L 261.006416 127.759019 
L 261.006416 127.31186 
L 261.606573 127.31186 
L 261.606573 130.897462 
L 262.20673 130.897462 
L 262.20673 133.099007 
L 262.806888 133.099007 
L 262.806888 132.253664 
L 263.407045 132.253664 
L 263.407045 136.592639 
L 264.007202 136.592639 
L 264.007202 132.181886 
L 264.607359 132.181886 
L 264.607359 131.22344 
L 265.207517 131.22344 
L 265.207517 130.958207 
L 265.807674 130.958207 
L 265.807674 132.101659 
L 266.407831 132.101659 
L 266.407831 132.517141 
L 267.007989 132.517141 
L 267.007989 133.207682 
L 268.208303 133.168179 
L 268.208303 132.9473 
L 268.80846 132.9473 
L 268.80846 132.646833 
L 269.408618 132.646833 
L 269.408618 130.974656 
L 270.008775 130.974656 
L 270.008775 129.401009 
L 270.608932 129.401009 
L 270.608932 127.476738 
L 271.209089 127.476738 
L 271.209089 125.828172 
L 271.809247 125.828172 
L 271.809247 124.871637 
L 272.409404 124.871637 
L 272.409404 125.260002 
L 273.009561 125.260002 
L 273.009561 127.11537 
L 273.609719 127.11537 
L 273.609719 126.564572 
L 274.209876 126.564572 
L 274.209876 127.135408 
L 274.810033 127.135408 
L 274.810033 128.188769 
L 275.41019 128.188769 
L 275.41019 126.830885 
L 276.010348 126.830885 
L 276.010348 125.367378 
L 276.610505 125.367378 
L 276.610505 126.031695 
L 277.210662 126.031695 
L 277.210662 125.723694 
L 277.810819 125.723694 
L 277.810819 126.040703 
L 278.410977 126.040703 
L 278.410977 125.85079 
L 279.011134 125.85079 
L 279.011134 126.158172 
L 279.611291 126.158172 
L 279.611291 127.043193 
L 280.211449 127.043193 
L 280.211449 127.440825 
L 280.811606 127.440825 
L 280.811606 127.219175 
L 282.01192 127.202803 
L 282.01192 127.895485 
L 282.612078 127.895485 
L 282.612078 129.554894 
L 283.212235 129.554894 
L 283.212235 129.749794 
L 283.812392 129.749794 
L 283.812392 130.171829 
L 285.012707 130.228036 
L 285.012707 131.464382 
L 285.612864 131.464382 
L 285.612864 131.065781 
L 286.213021 131.065781 
L 286.213021 131.591672 
L 286.813179 131.591672 
L 286.813179 131.440789 
L 287.413336 131.440789 
L 287.413336 132.434238 
L 288.013493 132.434238 
L 288.013493 134.915088 
L 288.61365 134.915088 
L 288.61365 134.46758 
L 289.213808 134.46758 
L 289.213808 136.329346 
L 289.813965 136.329346 
L 289.813965 137.149947 
L 290.414122 137.149947 
L 290.414122 138.590228 
L 291.01428 138.590228 
L 291.01428 136.980015 
L 291.614437 136.980015 
L 291.614437 135.23347 
L 292.214594 135.23347 
L 292.214594 135.510003 
L 292.814751 135.510003 
L 292.814751 137.245291 
L 293.414909 137.245291 
L 293.414909 137.602626 
L 294.015066 137.602626 
L 294.015066 138.367252 
L 294.615223 138.367252 
L 294.615223 138.821788 
L 295.21538 138.821788 
L 295.21538 137.830535 
L 295.815538 137.830535 
L 295.815538 133.983896 
L 296.415695 133.983896 
L 296.415695 135.487843 
L 297.015852 135.487843 
L 297.015852 137.286373 
L 297.61601 137.286373 
L 297.61601 136.291247 
L 298.216167 136.291247 
L 298.216167 136.162994 
L 298.816324 136.162994 
L 298.816324 136.022856 
L 299.416481 136.022856 
L 299.416481 136.266066 
L 300.016639 136.266066 
L 300.016639 137.72374 
L 300.616796 137.72374 
L 300.616796 137.211589 
L 301.216953 137.211589 
L 301.216953 139.94539 
L 301.81711 139.94539 
L 301.81711 138.715653 
L 302.417268 138.715653 
L 302.417268 138.839431 
L 303.017425 138.839431 
L 303.017425 140.026584 
L 303.617582 140.026584 
L 303.617582 141.773399 
L 304.21774 141.773399 
L 304.21774 140.884709 
L 304.817897 140.884709 
L 304.817897 142.889283 
L 305.418054 142.889283 
L 305.418054 147.89207 
L 306.018211 147.89207 
L 306.018211 147.345509 
L 306.618369 147.345509 
L 306.618369 145.763994 
L 307.218526 145.763994 
L 307.218526 143.353293 
L 307.818683 143.353293 
L 307.818683 147.046543 
L 308.41884 147.046543 
L 308.41884 146.374648 
L 309.018998 146.374648 
L 309.018998 146.622412 
L 309.619155 146.622412 
L 309.619155 146.766408 
L 310.219312 146.766408 
L 310.219312 145.69623 
L 310.81947 145.69623 
L 310.81947 144.752794 
L 311.419627 144.752794 
L 311.419627 145.235703 
L 312.019784 145.235703 
L 312.019784 144.131746 
L 312.619941 144.131746 
L 312.619941 142.861007 
L 313.220099 142.861007 
L 313.220099 142.496998 
L 313.820256 142.496998 
L 313.820256 141.094027 
L 314.420413 141.094027 
L 314.420413 141.480412 
L 315.02057 141.480412 
L 315.02057 143.461794 
L 315.620728 143.461794 
L 315.620728 144.816624 
L 316.220885 144.816624 
L 316.220885 144.174568 
L 316.821042 144.174568 
L 316.821042 144.694868 
L 317.4212 144.694868 
L 317.4212 143.583214 
L 318.021357 143.583214 
L 318.021357 144.981225 
L 318.621514 144.981225 
L 318.621514 146.705084 
L 319.821829 146.738428 
L 319.821829 145.580956 
L 320.421986 145.580956 
L 320.421986 146.411885 
L 321.6223 146.471429 
L 321.6223 145.275077 
L 322.222458 145.275077 
L 322.222458 145.469726 
L 322.822615 145.469726 
L 322.822615 145.151352 
L 323.422772 145.151352 
L 323.422772 145.451953 
L 324.02293 145.451953 
L 324.02293 145.963464 
L 324.623087 145.963464 
L 324.623087 145.418986 
L 325.223244 145.418986 
L 325.223244 145.626986 
L 325.823401 145.626986 
L 325.823401 146.230785 
L 326.423559 146.230785 
L 326.423559 146.716793 
L 327.023716 146.716793 
L 327.023716 146.290677 
L 327.623873 146.290677 
L 327.623873 146.120281 
L 328.22403 146.120281 
L 328.22403 144.412538 
L 328.824188 144.412538 
L 328.824188 144.837126 
L 329.424345 144.837126 
L 329.424345 145.213955 
L 330.024502 145.213955 
L 330.024502 144.526125 
L 330.62466 144.526125 
L 330.62466 144.038489 
L 331.224817 144.038489 
L 331.224817 142.975098 
L 331.824974 142.975098 
L 331.824974 141.785377 
L 332.425131 141.785377 
L 332.425131 141.575043 
L 333.025289 141.575043 
L 333.025289 142.370339 
L 334.225603 142.281285 
L 334.225603 141.236166 
L 334.825761 141.236166 
L 334.825761 141.538112 
L 335.425918 141.538112 
L 335.425918 142.055002 
L 336.026075 142.055002 
L 336.026075 142.183994 
L 336.626232 142.183994 
L 336.626232 142.792714 
L 337.22639 142.792714 
L 337.22639 143.513193 
L 337.826547 143.513193 
L 337.826547 146.415435 
L 338.426704 146.415435 
L 338.426704 146.248382 
L 339.026861 146.248382 
L 339.026861 146.516872 
L 339.627019 146.516872 
L 339.627019 146.063511 
L 340.827333 146.021692 
L 340.827333 144.88148 
L 341.427491 144.88148 
L 341.427491 145.676543 
L 342.027648 145.676543 
L 342.027648 146.231665 
L 342.627805 146.231665 
L 342.627805 146.071362 
L 343.227962 146.071362 
L 343.227962 145.739092 
L 343.82812 145.739092 
L 343.82812 145.302769 
L 344.428277 145.302769 
L 344.428277 145.418142 
L 345.028434 145.418142 
L 345.028434 144.669629 
L 346.228749 144.757697 
L 346.228749 144.213504 
L 346.828906 144.213504 
L 346.828906 143.543172 
L 347.429063 143.543172 
L 347.429063 142.544518 
L 348.029221 142.544518 
L 348.029221 141.661013 
L 348.629378 141.661013 
L 348.629378 138.947448 
L 349.229535 138.947448 
L 349.229535 134.748087 
L 349.829692 134.748087 
L 349.829692 135.635178 
L 350.42985 135.635178 
L 350.42985 140.157439 
L 351.030007 140.157439 
L 351.030007 139.518448 
L 351.630164 139.518448 
L 351.630164 139.086835 
L 352.230321 139.086835 
L 352.230321 139.236505 
L 352.830479 139.236505 
L 352.830479 137.200367 
L 353.430636 137.200367 
L 353.430636 136.945093 
L 354.030793 136.945093 
L 354.030793 135.63881 
L 354.630951 135.63881 
L 354.630951 134.161504 
L 355.231108 134.161504 
L 355.231108 133.362767 
L 355.831265 133.362767 
L 355.831265 132.316021 
L 356.431422 132.316021 
L 356.431422 133.13425 
L 357.03158 133.13425 
L 357.03158 132.363577 
L 357.631737 132.363577 
L 357.631737 133.370182 
L 358.832051 133.391979 
L 358.832051 133.555048 
L 359.432209 133.555048 
L 359.432209 132.677708 
L 360.032366 132.677708 
L 360.032366 133.541486 
L 360.632523 133.541486 
L 360.632523 135.714721 
L 361.232681 135.714721 
L 361.232681 135.923653 
L 361.832838 135.923653 
L 361.832838 135.395856 
L 362.432995 135.395856 
L 362.432995 136.183246 
L 363.033152 136.183246 
L 363.033152 136.622048 
L 363.63331 136.622048 
L 363.63331 136.268744 
L 364.233467 136.268744 
L 364.233467 136.107671 
L 364.833624 136.107671 
L 364.833624 135.012438 
L 365.433781 135.012438 
L 365.433781 133.993934 
L 366.634096 134.028869 
L 366.634096 133.446343 
L 367.234253 133.446343 
L 367.234253 133.873802 
L 367.834411 133.873802 
L 367.834411 134.689098 
L 368.434568 134.689098 
L 368.434568 134.185143 
L 369.634882 134.233957 
L 369.634882 134.577049 
L 370.23504 134.577049 
L 370.23504 134.166326 
L 371.435354 134.138856 
L 371.435354 134.294535 
L 372.035511 134.294535 
L 372.035511 134.064345 
L 373.235826 133.995369 
L 373.235826 133.867624 
L 373.835983 133.867624 
L 373.835983 133.546161 
L 374.436141 133.546161 
L 374.436141 133.244498 
L 375.036298 133.244498 
L 375.036298 132.522028 
L 375.636455 132.522028 
L 375.636455 132.818815 
L 376.236612 132.818815 
L 376.236612 132.474095 
L 376.83677 132.474095 
L 376.83677 132.635658 
L 377.436927 132.635658 
L 377.436927 132.137373 
L 378.037084 132.137373 
L 378.037084 132.349474 
L 378.637241 132.349474 
L 378.637241 132.470549 
L 379.237399 132.470549 
L 379.237399 132.912836 
L 379.837556 132.912836 
L 379.837556 132.665621 
L 380.437713 132.665621 
L 380.437713 130.042988 
L 381.037871 130.042988 
L 381.037871 129.020819 
L 381.638028 129.020819 
L 381.638028 127.382946 
L 382.238185 127.382946 
L 382.238185 127.582433 
L 382.838342 127.582433 
L 382.838342 124.164452 
L 383.4385 124.164452 
L 383.4385 122.297171 
L 384.038657 122.297171 
L 384.038657 127.072643 
L 384.638814 127.072643 
L 384.638814 125.844735 
L 385.238972 125.844735 
L 385.238972 124.676176 
L 385.839129 124.676176 
L 385.839129 124.25875 
L 386.439286 124.25875 
L 386.439286 124.825546 
L 388.239758 124.876494 
L 388.239758 124.689709 
L 388.839915 124.689709 
L 388.839915 124.871637 
L 389.440072 124.871637 
L 389.440072 125.052777 
L 390.04023 125.052777 
L 390.04023 126.645322 
L 390.640387 126.645322 
L 390.640387 127.764979 
L 391.240544 127.764979 
L 391.240544 127.339647 
L 392.440859 127.396023 
L 392.440859 127.828191 
L 393.041016 127.828191 
L 393.041016 127.607118 
L 394.241331 127.659019 
L 394.241331 127.807801 
L 395.441645 127.79024 
L 395.441645 126.559288 
L 396.041802 126.559288 
L 396.041802 126.118724 
L 396.64196 126.118724 
L 396.64196 126.5319 
L 397.842274 126.587374 
L 397.842274 127.029668 
L 398.442432 127.029668 
L 398.442432 126.604576 
L 400.242903 126.591673 
L 400.242903 126.352335 
L 400.843061 126.352335 
L 400.843061 125.686986 
L 401.443218 125.686986 
L 401.443218 125.56689 
L 402.043375 125.56689 
L 402.043375 125.886202 
L 402.643532 125.886202 
L 402.643532 125.411612 
L 403.24369 125.411612 
L 403.24369 124.143362 
L 403.843847 124.143362 
L 403.843847 122.986094 
L 404.444004 122.986094 
L 404.444004 123.63545 
L 405.044162 123.63545 
L 405.044162 123.12754 
L 405.644319 123.12754 
L 405.644319 123.724136 
L 406.244476 123.724136 
L 406.244476 122.705065 
L 408.044948 122.698798 
L 408.044948 122.891796 
L 408.645105 122.891796 
L 408.645105 122.00528 
L 409.84542 121.91311 
L 409.84542 121.86836 
L 410.445577 121.86836 
L 410.445577 121.668336 
L 411.045734 121.668336 
L 411.045734 121.280007 
L 411.645892 121.280007 
L 411.645892 118.379932 
L 412.246049 118.379932 
L 412.246049 118.022566 
L 412.846206 118.022566 
L 412.846206 117.29137 
L 413.446363 117.29137 
L 413.446363 114.492144 
L 414.046521 114.492144 
L 414.046521 118.455659 
L 414.646678 118.455659 
L 414.646678 120.915492 
L 415.246835 120.915492 
L 415.246835 120.300767 
L 415.846992 120.300767 
L 415.846992 118.785881 
L 416.44715 118.785881 
L 416.44715 119.057887 
L 417.047307 119.057887 
L 417.047307 118.277146 
L 417.647464 118.277146 
L 417.647464 116.908342 
L 418.247622 116.908342 
L 418.247622 116.351332 
L 418.847779 116.351332 
L 418.847779 116.869175 
L 419.447936 116.869175 
L 419.447936 116.548524 
L 420.048093 116.548524 
L 420.048093 115.506016 
L 420.648251 115.506016 
L 420.648251 114.207393 
L 421.248408 114.207393 
L 421.248408 113.759572 
L 421.848565 113.759572 
L 421.848565 112.497658 
L 422.448722 112.497658 
L 422.448722 111.756445 
L 423.04888 111.756445 
L 423.04888 113.044194 
L 423.649037 113.044194 
L 423.649037 112.241275 
L 424.249194 112.241275 
L 424.249194 115.245876 
L 424.849352 115.245876 
L 424.849352 114.422742 
L 425.449509 114.422742 
L 425.449509 117.354532 
L 426.049666 117.354532 
L 426.049666 115.789453 
L 426.649823 115.789453 
L 426.649823 115.02733 
L 427.249981 115.02733 
L 427.249981 113.016587 
L 427.850138 113.016587 
L 427.850138 112.744905 
L 428.450295 112.744905 
L 428.450295 113.41362 
L 429.050453 113.41362 
L 429.050453 112.891317 
L 429.65061 112.891317 
L 429.65061 112.362706 
L 430.250767 112.362706 
L 430.250767 111.489955 
L 430.850924 111.489955 
L 430.850924 110.474901 
L 431.451082 110.474901 
L 431.451082 107.93809 
L 432.051239 107.93809 
L 432.051239 106.503102 
L 432.651396 106.503102 
L 432.651396 106.001285 
L 433.251553 106.001285 
L 433.251553 105.81109 
L 433.851711 105.81109 
L 433.851711 102.564881 
L 434.451868 102.564881 
L 434.451868 98.813216 
L 435.052025 98.813216 
L 435.052025 100.947049 
L 435.652183 100.947049 
L 435.652183 98.909311 
L 436.25234 98.909311 
L 436.25234 96.633558 
L 436.852497 96.633558 
L 436.852497 95.717214 
L 437.452654 95.717214 
L 437.452654 96.582436 
L 438.052812 96.582436 
L 438.052812 97.156333 
L 438.652969 97.156333 
L 438.652969 96.936627 
L 439.253126 96.936627 
L 439.253126 98.156175 
L 439.853283 98.156175 
L 439.853283 97.840363 
L 441.053598 97.775367 
L 441.053598 98.149515 
L 441.653755 98.149515 
L 441.653755 99.751667 
L 442.253913 99.751667 
L 442.253913 102.933613 
L 442.85407 102.933613 
L 442.85407 100.152939 
L 443.454227 100.152939 
L 443.454227 96.27052 
L 444.054384 96.27052 
L 444.054384 96.952948 
L 444.654542 96.952948 
L 444.654542 95.450594 
L 445.854856 95.495395 
L 445.854856 91.946228 
L 446.455013 91.946228 
L 446.455013 89.405439 
L 447.055171 89.405439 
L 447.055171 86.931098 
L 447.655328 86.931098 
L 447.655328 88.462028 
L 448.255485 88.462028 
L 448.255485 87.134181 
L 448.855643 87.134181 
L 448.855643 86.927152 
L 449.4558 86.927152 
L 449.4558 84.624568 
L 450.055957 84.624568 
L 450.055957 86.888831 
L 450.656114 86.888831 
L 450.656114 87.138354 
L 451.256272 87.138354 
L 451.256272 89.422577 
L 451.856429 89.422577 
L 451.856429 90.4167 
L 452.456586 90.4167 
L 452.456586 90.844906 
L 453.056743 90.844906 
L 453.056743 89.078697 
L 453.656901 89.078697 
L 453.656901 87.926085 
L 454.257058 87.926085 
L 454.257058 87.243139 
L 454.857215 87.243139 
L 454.857215 86.641059 
L 455.457373 86.641059 
L 455.457373 84.980527 
L 456.05753 84.980527 
L 456.05753 81.651417 
L 457.257844 81.632127 
L 457.257844 80.927591 
L 457.858002 80.927591 
L 457.858002 81.377394 
L 458.458159 81.377394 
L 458.458159 79.245729 
L 459.058316 79.245729 
L 459.058316 76.473177 
L 459.658473 76.473177 
L 459.658473 76.195803 
L 460.258631 76.195803 
L 460.258631 80.963391 
L 460.858788 80.963391 
L 460.858788 75.147256 
L 461.458945 75.147256 
L 461.458945 74.214699 
L 462.65926 74.287991 
L 462.65926 70.497469 
L 463.259417 70.497469 
L 463.259417 68.579909 
L 463.859574 68.579909 
L 463.859574 63.802533 
L 464.459732 63.802533 
L 464.459732 62.099867 
L 465.059889 62.099867 
L 465.059889 60.390124 
L 465.660046 60.390124 
L 465.660046 57.538459 
L 466.260203 57.538459 
L 466.260203 63.900421 
L 466.860361 63.900421 
L 466.860361 61.304223 
L 467.460518 61.304223 
L 467.460518 65.673195 
L 468.060675 65.673195 
L 468.060675 62.139498 
L 468.660833 62.139498 
L 468.660833 60.655289 
L 469.26099 60.655289 
L 469.26099 64.62927 
L 469.861147 64.62927 
L 469.861147 64.227345 
L 470.461304 64.227345 
L 470.461304 67.51621 
L 471.061462 67.51621 
L 471.061462 68.73022 
L 471.661619 68.73022 
L 471.661619 67.647774 
L 472.261776 67.647774 
L 472.261776 69.928617 
L 472.861933 69.928617 
L 472.861933 74.31422 
L 474.062248 74.209169 
L 474.062248 72.683937 
L 474.662405 72.683937 
L 474.662405 69.978745 
L 475.262563 69.978745 
L 475.262563 67.976113 
L 475.86272 67.976113 
L 475.86272 70.946301 
L 476.462877 70.946301 
L 476.462877 69.678013 
L 477.063034 69.678013 
L 477.063034 67.498208 
L 477.663192 67.498208 
L 477.663192 71.738617 
L 478.263349 71.738617 
L 478.263349 72.16192 
L 478.863506 72.16192 
L 478.863506 74.080959 
L 479.463664 74.080959 
L 479.463664 72.65184 
L 480.063821 72.65184 
L 480.063821 73.51811 
L 480.663978 73.51811 
L 480.663978 74.939479 
L 481.264135 74.939479 
L 481.264135 77.997515 
L 481.864293 77.997515 
L 481.864293 78.118112 
L 483.064607 78.124771 
L 483.064607 75.079792 
L 484.264922 75.049447 
L 484.264922 72.605353 
L 484.865079 72.605353 
L 484.865079 72.741764 
L 485.465236 72.741764 
L 485.465236 71.580094 
L 486.065394 71.580094 
L 486.065394 70.835661 
L 486.665551 70.835661 
L 486.665551 71.642667 
L 487.265708 71.642667 
L 487.265708 73.842938 
L 487.865865 73.842938 
L 487.865865 73.666196 
L 488.466023 73.666196 
L 488.466023 74.216501 
L 489.06618 74.216501 
L 489.06618 76.07926 
L 489.666337 76.07926 
L 489.666337 76.531685 
L 490.266494 76.531685 
L 490.266494 76.138828 
L 491.466809 76.123256 
L 491.466809 75.804126 
L 492.066966 75.804126 
L 492.066966 78.821673 
L 492.667124 78.821673 
L 492.667124 79.01975 
L 493.267281 79.01975 
L 493.267281 78.194686 
L 493.867438 78.194686 
L 493.867438 80.073264 
L 494.467595 80.073264 
L 494.467595 81.004139 
L 495.067753 81.004139 
L 495.067753 78.597874 
L 496.268067 78.59136 
L 496.268067 79.519251 
L 496.868224 79.519251 
L 496.868224 79.77607 
L 497.468382 79.77607 
L 497.468382 76.459224 
L 498.668696 76.362608 
L 498.668696 74.966775 
L 499.268854 74.966775 
L 499.268854 74.389204 
L 499.869011 74.389204 
L 499.869011 76.340632 
L 500.469168 76.340632 
L 500.469168 78.321618 
L 501.069325 78.321618 
L 501.069325 79.843636 
L 501.669483 79.843636 
L 501.669483 79.70604 
L 502.26964 79.70604 
L 502.26964 79.02625 
L 502.869797 79.02625 
L 502.869797 78.904706 
L 503.469954 78.904706 
L 503.469954 77.781852 
L 504.070112 77.781852 
L 504.070112 77.442774 
L 504.670269 77.442774 
L 504.670269 76.491724 
L 505.270426 76.491724 
L 505.270426 79.985332 
L 505.870584 79.985332 
L 505.870584 79.529502 
L 506.470741 79.529502 
L 506.470741 78.992874 
L 507.671055 78.997047 
L 507.671055 78.728578 
L 508.271213 78.728578 
L 508.271213 78.591147 
L 508.87137 78.591147 
L 508.87137 78.91902 
L 509.471527 78.91902 
L 509.471527 78.758584 
L 510.671842 78.735838 
L 510.671842 79.723693 
L 511.271999 79.723693 
L 511.271999 78.95508 
L 512.472314 79.003632 
L 512.472314 79.07091 
L 513.072471 79.07091 
L 513.072471 79.607202 
L 513.672628 79.607202 
L 513.672628 79.417885 
L 514.272785 79.417885 
L 514.272785 78.871286 
L 514.872943 78.871286 
L 514.872943 79.269342 
L 515.4731 79.269342 
L 515.4731 81.768043 
L 516.073257 81.768043 
L 516.073257 84.870019 
L 516.673414 84.870019 
L 516.673414 87.036096 
L 517.273572 87.036096 
L 517.273572 89.614523 
L 517.873729 89.614523 
L 517.873729 87.811546 
L 518.473886 87.811546 
L 518.473886 90.057186 
L 519.074044 90.057186 
L 519.074044 90.914624 
L 519.674201 90.914624 
L 519.674201 92.548032 
L 520.274358 92.548032 
L 520.274358 91.093936 
L 520.874515 91.093936 
L 520.874515 89.243566 
L 521.474673 89.243566 
L 521.474673 89.650906 
L 522.07483 89.650906 
L 522.07483 89.921554 
L 522.674987 89.921554 
L 522.674987 89.082119 
L 523.275145 89.082119 
L 523.275145 88.37717 
L 523.875302 88.37717 
L 523.875302 90.593694 
L 524.475459 90.593694 
L 524.475459 90.395148 
L 525.075616 90.395148 
L 525.075616 90.707024 
L 525.675774 90.707024 
L 525.675774 90.920724 
L 526.876088 90.982675 
L 526.876088 91.588605 
L 528.076403 91.669672 
L 528.076403 92.028814 
L 528.67656 92.028814 
L 528.67656 90.68632 
L 529.276717 90.68632 
L 529.276717 90.804349 
L 529.876875 90.804349 
L 529.876875 89.106551 
L 530.477032 89.106551 
L 530.477032 88.045403 
L 531.077189 88.045403 
L 531.077189 89.589467 
L 532.277504 89.687407 
L 532.277504 89.31067 
L 533.477818 89.340295 
L 533.477818 89.055626 
L 534.077975 89.055626 
L 534.077975 88.58867 
L 535.878447 88.492213 
L 535.878447 88.169193 
L 536.478605 88.169193 
L 536.478605 84.612994 
L 537.078762 84.612994 
L 537.078762 83.202113 
L 537.678919 83.202113 
L 537.678919 83.962841 
L 538.279076 83.962841 
L 538.279076 83.478658 
L 538.879234 83.478658 
L 538.879234 83.048078 
L 539.479391 83.048078 
L 539.479391 82.581107 
L 540.079548 82.581107 
L 540.079548 83.078321 
L 540.679705 83.078321 
L 540.679705 82.744475 
L 541.279863 82.744475 
L 541.279863 81.676906 
L 541.88002 81.676906 
L 541.88002 79.459851 
L 542.480177 79.459851 
L 542.480177 74.833476 
L 543.080335 74.833476 
L 543.080335 76.750262 
L 543.680492 76.750262 
L 543.680492 75.776748 
L 544.280649 75.776748 
L 544.280649 73.028418 
L 544.880806 73.028418 
L 544.880806 74.142595 
L 545.480964 74.142595 
L 545.480964 74.479275 
L 546.081121 74.479275 
L 546.081121 74.819412 
L 546.681278 74.819412 
L 546.681278 75.023078 
L 547.281435 75.023078 
L 547.281435 72.765934 
L 547.881593 72.765934 
L 547.881593 71.831003 
L 548.48175 71.831003 
L 548.48175 68.761781 
L 549.081907 68.761781 
L 549.081907 68.179143 
L 549.682065 68.179143 
L 549.682065 69.2044 
L 550.282222 69.2044 
L 550.282222 68.502241 
L 550.882379 68.502241 
L 550.882379 65.714251 
L 551.482536 65.714251 
L 551.482536 67.722166 
L 552.082694 67.722166 
L 552.082694 70.999121 
L 552.682851 70.999121 
L 552.682851 69.18791 
L 553.283008 69.18791 
L 553.283008 70.5864 
L 553.883165 70.5864 
L 553.883165 71.361364 
L 554.483323 71.361364 
L 554.483323 69.297954 
L 555.08348 69.297954 
L 555.08348 67.587611 
L 555.683637 67.587611 
L 555.683637 67.911506 
L 556.283795 67.911506 
L 556.283795 70.300121 
L 556.883952 70.300121 
L 556.883952 69.706292 
L 557.484109 69.706292 
L 557.484109 70.110531 
L 558.084266 70.110531 
L 558.084266 69.623395 
L 558.684424 69.623395 
L 558.684424 71.199993 
L 559.284581 71.199993 
L 559.284581 69.123753 
L 559.884738 69.123753 
L 559.884738 69.378864 
L 560.484895 69.378864 
L 560.484895 70.016739 
L 561.085053 70.016739 
L 561.085053 69.720252 
L 562.285367 69.787656 
L 562.285367 70.980241 
L 562.885525 70.980241 
L 562.885525 74.334208 
L 563.485682 74.334208 
L 563.485682 74.020477 
L 564.085839 74.020477 
L 564.085839 74.447777 
L 564.685996 74.447777 
L 564.685996 73.391067 
L 565.286154 73.391067 
L 565.286154 74.115183 
L 565.886311 74.115183 
L 565.886311 74.623309 
L 566.486468 74.623309 
L 566.486468 74.26419 
L 567.086626 74.26419 
L 567.086626 73.207487 
L 567.686783 73.207487 
L 567.686783 71.505557 
L 568.28694 71.505557 
L 568.28694 71.788901 
L 569.487255 71.698084 
L 569.487255 72.367252 
L 570.087412 72.367252 
L 570.087412 73.287514 
L 570.687569 73.287514 
L 570.687569 74.378149 
L 571.287726 74.378149 
L 571.287726 76.691474 
L 571.887884 76.691474 
L 571.887884 77.032569 
L 572.488041 77.032569 
L 572.488041 75.957171 
L 573.088198 75.957171 
L 573.088198 76.950826 
L 573.688356 76.950826 
L 573.688356 76.051264 
L 574.288513 76.051264 
L 574.288513 76.961131 
L 574.88867 76.961131 
L 574.88867 77.845152 
L 575.488827 77.845152 
L 575.488827 76.95831 
L 576.088985 76.95831 
L 576.088985 76.789993 
L 576.689142 76.789993 
L 576.689142 76.650946 
L 577.289299 76.650946 
L 577.289299 76.998819 
L 577.889456 76.998819 
L 577.889456 76.512528 
L 578.489614 76.512528 
L 578.489614 75.277446 
L 579.089771 75.277446 
L 579.089771 74.552674 
L 579.689928 74.552674 
L 579.689928 72.67351 
L 580.290086 72.67351 
L 580.290086 73.079372 
L 580.890243 73.079372 
L 580.890243 74.009767 
L 581.4904 74.009767 
L 581.4904 71.835092 
L 582.690715 71.760035 
L 582.690715 70.830905 
L 583.290872 70.830905 
L 583.290872 70.627885 
L 583.891029 70.627885 
L 583.891029 69.607411 
L 584.491186 69.607411 
L 584.491186 69.974622 
L 585.091344 69.974622 
L 585.091344 71.008775 
L 585.691501 71.008775 
L 585.691501 72.934255 
L 586.291658 72.934255 
L 586.291658 73.517145 
L 586.891816 73.517145 
L 586.891816 72.300102 
L 587.491973 72.300102 
L 587.491973 74.98669 
L 588.09213 74.98669 
L 588.09213 81.945192 
L 588.692287 81.945192 
L 588.692287 82.866108 
L 589.292445 82.866108 
L 589.292445 79.966539 
L 589.892602 79.966539 
L 589.892602 78.380798 
L 590.492759 78.380798 
L 590.492759 80.979319 
L 591.092916 80.979319 
L 591.092916 78.051794 
L 591.693074 78.051794 
L 591.693074 76.535404 
L 592.293231 76.535404 
L 592.293231 77.86355 
L 593.493546 77.867319 
L 593.493546 76.765996 
L 594.093703 76.765996 
L 594.093703 77.124275 
L 594.69386 77.124275 
L 594.69386 75.584547 
L 595.294017 75.584547 
L 595.294017 73.295774 
L 595.894175 73.295774 
L 595.894175 72.706049 
L 596.494332 72.706049 
L 596.494332 70.695222 
L 597.094489 70.695222 
L 597.094489 72.868056 
L 597.694646 72.868056 
L 597.694646 71.607248 
L 598.294804 71.607248 
L 598.294804 71.341634 
L 598.894961 71.341634 
L 598.894961 73.059881 
L 599.495118 73.059881 
L 599.495118 71.21841 
L 600.095276 71.21841 
L 600.095276 69.928165 
L 600.695433 69.928165 
L 600.695433 71.104282 
L 601.29559 71.104282 
L 601.29559 70.790827 
L 601.895747 70.790827 
L 601.895747 71.42027 
L 603.096062 71.459926 
L 603.096062 71.82434 
L 604.296376 71.919577 
L 604.296376 72.040547 
L 604.896534 72.040547 
L 604.896534 72.288966 
L 605.496691 72.288966 
L 605.496691 71.886183 
L 606.697006 71.930206 
L 606.697006 72.022715 
L 607.89732 71.976571 
L 607.89732 71.126496 
L 608.497477 71.126496 
L 608.497477 68.342961 
L 609.097635 68.342961 
L 609.097635 67.802056 
L 609.697792 67.802056 
L 609.697792 68.068696 
L 610.297949 68.068696 
L 610.297949 67.06565 
L 610.898106 67.06565 
L 610.898106 67.400316 
L 611.498264 67.400316 
L 611.498264 66.817347 
L 612.698578 66.898736 
L 612.698578 67.071914 
L 613.298736 67.071914 
L 613.298736 67.466987 
L 613.898893 67.466987 
L 613.898893 66.801779 
L 614.49905 66.801779 
L 614.49905 70.016146 
L 615.099207 70.016146 
L 615.099207 69.881775 
L 615.699365 69.881775 
L 615.699365 69.680675 
L 616.299522 69.680675 
L 616.299522 68.52291 
L 616.899679 68.52291 
L 616.899679 69.487826 
L 617.499837 69.487826 
L 617.499837 68.988931 
L 618.099994 68.988931 
L 618.099994 68.712967 
L 618.700151 68.712967 
L 618.700151 69.255623 
L 619.300308 69.255623 
L 619.300308 69.030365 
L 619.900466 69.030365 
L 619.900466 67.744201 
L 620.500623 67.744201 
L 620.500623 67.521063 
L 621.10078 67.521063 
L 621.10078 67.081766 
L 621.700937 67.081766 
L 621.700937 65.151468 
L 622.301095 65.151468 
L 622.301095 64.083662 
L 622.901252 64.083662 
L 622.901252 63.851345 
L 623.501409 63.851345 
L 623.501409 63.355473 
L 624.101567 63.355473 
L 624.101567 61.545687 
L 624.701724 61.545687 
L 624.701724 60.52838 
L 625.301881 60.52838 
L 625.301881 60.005864 
L 625.902038 60.005864 
L 625.902038 57.778094 
L 626.502196 57.778094 
L 626.502196 57.263499 
L 627.102353 57.263499 
L 627.102353 58.8315 
L 627.70251 58.8315 
L 627.70251 57.20655 
L 628.302667 57.20655 
L 628.302667 57.049779 
L 628.902825 57.049779 
L 628.902825 58.256222 
L 629.502982 58.256222 
L 629.502982 57.154792 
L 630.103139 57.154792 
L 630.103139 53.477189 
L 630.703297 53.477189 
L 630.703297 52.900738 
L 631.303454 52.900738 
L 631.303454 50.806994 
L 631.903611 50.806994 
L 631.903611 49.05313 
L 632.503768 49.05313 
L 632.503768 46.35839 
L 633.103926 46.35839 
L 633.103926 42.755518 
L 633.704083 42.755518 
L 633.704083 44.867034 
L 634.30424 44.867034 
L 634.30424 44.154662 
L 634.904397 44.154662 
L 634.904397 44.600354 
L 635.504555 44.600354 
L 635.504555 46.914301 
L 636.104712 46.914301 
L 636.104712 47.994161 
L 636.704869 47.994161 
L 636.704869 46.275998 
L 637.305027 46.275998 
L 637.305027 44.060244 
L 637.905184 44.060244 
L 637.905184 39.530843 
L 638.505341 39.530843 
L 638.505341 39.056975 
L 639.105498 39.056975 
L 639.105498 38.355043 
L 639.705656 38.355043 
L 639.705656 35.738659 
L 640.305813 35.738659 
L 640.305813 37.76546 
L 640.90597 37.76546 
L 640.90597 40.079838 
L 641.506127 40.079838 
L 641.506127 38.647674 
L 642.106285 38.647674 
L 642.106285 37.111997 
L 642.706442 37.111997 
L 642.706442 35.294629 
L 643.306599 35.294629 
L 643.306599 35.428673 
L 643.906757 35.428673 
L 643.906757 35.004733 
L 644.506914 35.004733 
L 644.506914 37.031947 
L 645.107071 37.031947 
L 645.107071 35.816799 
L 645.707228 35.816799 
L 645.707228 34.780883 
L 646.907543 34.672737 
L 646.907543 34.998932 
L 647.5077 34.998932 
L 647.5077 33.197922 
L 648.107857 33.197922 
L 648.107857 34.32451 
L 648.708015 34.32451 
L 648.708015 36.54062 
L 649.308172 36.54062 
L 649.308172 38.389597 
L 649.908329 38.389597 
L 649.908329 36.624634 
L 650.508487 36.624634 
L 650.508487 35.308646 
L 651.708801 35.250138 
L 651.708801 35.471931 
L 652.308958 35.471931 
L 652.308958 39.370246 
L 652.909116 39.370246 
L 652.909116 44.08078 
L 653.509273 44.08078 
L 653.509273 45.31861 
L 654.10943 45.31861 
L 654.10943 43.291905 
L 654.709587 43.291905 
L 654.709587 43.893541 
L 655.309745 43.893541 
L 655.309745 44.123612 
L 655.909902 44.123612 
L 655.909902 46.086768 
L 656.510059 46.086768 
L 656.510059 44.895324 
L 657.110217 44.895324 
L 657.110217 43.354902 
L 657.710374 43.354902 
L 657.710374 44.840268 
L 658.310531 44.840268 
L 658.310531 45.38526 
L 659.510846 45.491461 
L 659.510846 45.844104 
L 660.111003 45.844104 
L 660.111003 45.635142 
L 660.71116 45.635142 
L 660.71116 46.047557 
L 661.311318 46.047557 
L 661.311318 46.471996 
L 661.911475 46.471996 
L 661.911475 47.113123 
L 662.511632 47.113123 
L 662.511632 46.790722 
L 663.111789 46.790722 
L 663.111789 43.889451 
L 663.711947 43.889451 
L 663.711947 41.413934 
L 664.312104 41.413934 
L 664.312104 43.453056 
L 664.912261 43.453056 
L 664.912261 40.294546 
L 665.512418 40.294546 
L 665.512418 39.859586 
L 666.112576 39.859586 
L 666.112576 39.233294 
L 666.712733 39.233294 
L 666.712733 39.371075 
L 667.31289 39.371075 
L 667.31289 38.207145 
L 667.913048 38.207145 
L 667.913048 38.397259 
L 668.513205 38.397259 
L 668.513205 39.190895 
L 669.113362 39.190895 
L 669.113362 38.035999 
L 669.713519 38.035999 
L 669.713519 39.655062 
L 670.913834 39.663458 
L 670.913834 38.924645 
L 671.513991 38.924645 
L 671.513991 41.08957 
L 672.714306 41.129865 
L 672.714306 41.994504 
L 673.314463 41.994504 
L 673.314463 38.949101 
L 673.91462 38.949101 
L 673.91462 35.975801 
L 674.514778 35.975801 
L 674.514778 36.238034 
L 675.114935 36.238034 
L 675.114935 35.244025 
L 675.715092 35.244025 
L 675.715092 33.704384 
L 676.315249 33.704384 
L 676.315249 34.121685 
L 676.915407 34.121685 
L 676.915407 34.238444 
L 677.515564 34.238444 
L 677.515564 33.782401 
L 678.115721 33.782401 
L 678.115721 33.388269 
L 679.316036 33.280629 
L 679.316036 32.79615 
L 679.916193 32.79615 
L 679.916193 33.188505 
L 680.51635 33.188505 
L 680.51635 34.988415 
L 681.116508 34.988415 
L 681.116508 35.180982 
L 681.716665 35.180982 
L 681.716665 36.173655 
L 682.316822 36.173655 
L 682.316822 35.30288 
L 682.916979 35.30288 
L 682.916979 38.265242 
L 683.517137 38.265242 
L 683.517137 38.977488 
L 684.117294 38.977488 
L 684.117294 39.361436 
L 684.717451 39.361436 
L 684.717451 39.613647 
L 685.317608 39.613647 
L 685.317608 38.44738 
L 685.917766 38.44738 
L 685.917766 37.82662 
L 686.517923 37.82662 
L 686.517923 39.511548 
L 687.11808 39.511548 
L 687.11808 39.117783 
L 687.718238 39.117783 
L 687.718238 40.98729 
L 688.318395 40.98729 
L 688.318395 41.58839 
L 688.918552 41.58839 
L 688.918552 40.997193 
L 689.518709 40.997193 
L 689.518709 41.334493 
L 690.118867 41.334493 
L 690.118867 45.136342 
L 690.719024 45.136342 
L 690.719024 44.1574 
L 691.319181 44.1574 
L 691.319181 43.568902 
L 691.919338 43.568902 
L 691.919338 44.011292 
L 692.519496 44.011292 
L 692.519496 40.657785 
L 693.119653 40.657785 
L 693.119653 41.325119 
L 693.71981 41.325119 
L 693.71981 40.338654 
L 694.319968 40.338654 
L 694.319968 42.438149 
L 694.920125 42.438149 
L 694.920125 43.903802 
L 695.520282 43.903802 
L 695.520282 43.682586 
L 696.120439 43.682586 
L 696.120439 41.295243 
L 696.720597 41.295243 
L 696.720597 43.508683 
L 697.320754 43.508683 
L 697.320754 43.138017 
L 697.920911 43.138017 
L 697.920911 42.839719 
L 698.521068 42.839719 
L 698.521068 41.410048 
L 699.121226 41.410048 
L 699.121226 41.087932 
L 699.721383 41.087932 
L 699.721383 39.317917 
L 700.32154 39.317917 
L 700.32154 39.891416 
L 700.921698 39.891416 
L 700.921698 39.424164 
L 701.521855 39.424164 
L 701.521855 41.383137 
L 702.122012 41.383137 
L 702.122012 42.444582 
L 702.722169 42.444582 
L 702.722169 42.301588 
L 703.322327 42.301588 
L 703.322327 41.816752 
L 703.922484 41.816752 
L 703.922484 42.765931 
L 704.522641 42.765931 
L 704.522641 42.611604 
L 705.122798 42.611604 
L 705.122798 43.257794 
L 705.722956 43.257794 
L 705.722956 44.604313 
L 706.323113 44.604313 
L 706.323113 47.611797 
L 706.92327 47.611797 
L 706.92327 48.222919 
L 707.523428 48.222919 
L 707.523428 49.175716 
L 708.123585 49.175716 
L 708.123585 48.086947 
L 708.723742 48.086947 
L 708.723742 48.819746 
L 709.323899 48.819746 
L 709.323899 47.156075 
L 709.924057 47.156075 
L 709.924057 48.486957 
L 710.524214 48.486957 
L 710.524214 47.53816 
L 711.124371 47.53816 
L 711.124371 49.41269 
L 711.724529 49.41269 
L 711.724529 54.004494 
L 712.324686 54.004494 
L 712.324686 55.879616 
L 712.924843 55.879616 
L 712.924843 55.350967 
L 713.525 55.350967 
L 713.525 55.722005 
L 714.125158 55.722005 
L 714.125158 57.206832 
L 714.725315 57.206832 
L 714.725315 56.233165 
L 715.325472 56.233165 
L 715.325472 54.885707 
L 715.925629 54.885707 
L 715.925629 56.191636 
L 716.525787 56.191636 
L 716.525787 55.652286 
L 717.125944 55.652286 
L 717.125944 53.474326 
L 717.726101 53.474326 
L 717.726101 55.149704 
L 718.326259 55.149704 
L 718.326259 52.928563 
L 718.926416 52.928563 
L 718.926416 53.624335 
L 720.12673 53.654573 
L 720.12673 52.787332 
L 720.726888 52.787332 
L 720.726888 52.492009 
L 721.327045 52.492009 
L 721.327045 53.439752 
L 721.927202 53.439752 
L 721.927202 55.053577 
L 722.527359 55.053577 
L 722.527359 56.182077 
L 723.127517 56.182077 
L 723.127517 56.623889 
L 724.327831 56.581404 
L 724.327831 57.151157 
L 724.927989 57.151157 
L 724.927989 54.689492 
L 725.528146 54.689492 
L 725.528146 56.723899 
L 726.128303 56.723899 
L 726.128303 56.879986 
L 726.72846 56.879986 
L 726.72846 57.150636 
L 727.328618 57.150636 
L 727.328618 57.33446 
L 727.928775 57.33446 
L 727.928775 57.115141 
L 728.528932 57.115141 
L 728.528932 56.247219 
L 729.129089 56.247219 
L 729.129089 56.983338 
L 730.929561 56.87303 
L 730.929561 57.264735 
L 731.529719 57.264735 
L 731.529719 56.313563 
L 732.129876 56.313563 
L 732.129876 55.611796 
L 732.730033 55.611796 
L 732.730033 56.260965 
L 733.33019 56.260965 
L 733.33019 55.511555 
L 733.930348 55.511555 
L 733.930348 59.038889 
L 734.530505 59.038889 
L 734.530505 60.171261 
L 735.130662 60.171261 
L 735.130662 60.056271 
L 735.730819 60.056271 
L 735.730819 60.653007 
L 736.330977 60.653007 
L 736.330977 60.334736 
L 736.931134 60.334736 
L 736.931134 59.478008 
L 739.331763 59.435658 
L 739.331763 60.111258 
L 739.93192 60.111258 
L 739.93192 59.791507 
L 741.132235 59.870706 
L 741.132235 60.230279 
L 742.332549 60.140113 
L 742.332549 59.884653 
L 742.932707 59.884653 
L 742.932707 59.452938 
L 743.532864 59.452938 
L 743.532864 56.482009 
L 744.133021 56.482009 
L 744.133021 55.296877 
L 744.733179 55.296877 
L 744.733179 53.80803 
L 745.333336 53.80803 
L 745.333336 53.530214 
L 745.933493 53.530214 
L 745.933493 52.959098 
L 746.53365 52.959098 
L 746.53365 53.215539 
L 747.133808 53.215539 
L 747.133808 53.815756 
L 747.733965 53.815756 
L 747.733965 54.833717 
L 748.334122 54.833717 
L 748.334122 54.308651 
L 748.934279 54.308651 
L 748.934279 52.223706 
L 749.534437 52.223706 
L 749.534437 52.599014 
L 750.134594 52.599014 
L 750.134594 53.122688 
L 751.334909 53.204455 
L 751.334909 54.129703 
L 751.935066 54.129703 
L 751.935066 56.190485 
L 752.535223 56.190485 
L 752.535223 52.121678 
L 753.13538 52.121678 
L 753.13538 50.406866 
L 753.735538 50.406866 
L 753.735538 50.162013 
L 754.335695 50.162013 
L 754.335695 49.658367 
L 755.53601 49.634556 
L 755.53601 49.800592 
L 756.736324 49.711717 
L 756.736324 48.116123 
L 757.936639 48.060185 
L 757.936639 49.071942 
L 758.536796 49.071942 
L 758.536796 49.95407 
L 759.136953 49.95407 
L 759.136953 48.623685 
L 759.73711 48.623685 
L 759.73711 49.596204 
L 760.337268 49.596204 
L 760.337268 48.586235 
L 760.937425 48.586235 
L 760.937425 49.918046 
L 761.537582 49.918046 
L 761.537582 50.548395 
L 762.13774 50.548395 
L 762.13774 50.094507 
L 762.737897 50.094507 
L 762.737897 50.570425 
L 763.338054 50.570425 
L 763.338054 50.78113 
L 763.938211 50.78113 
L 763.938211 49.842217 
L 764.538369 49.842217 
L 764.538369 50.202052 
L 765.738683 50.208161 
L 765.738683 51.260419 
L 766.33884 51.260419 
L 766.33884 51.832232 
L 766.938998 51.832232 
L 766.938998 50.887751 
L 767.539155 50.887751 
L 767.539155 48.337343 
L 768.139312 48.337343 
L 768.139312 48.095066 
L 768.73947 48.095066 
L 768.73947 47.959645 
L 769.339627 47.959645 
L 769.339627 47.760709 
L 769.939784 47.760709 
L 769.939784 48.129696 
L 770.539941 48.129696 
L 770.539941 48.012343 
L 771.740256 48.112603 
L 771.740256 48.405578 
L 772.340413 48.405578 
L 772.340413 48.830411 
L 773.540728 48.735866 
L 773.540728 48.485705 
L 774.140885 48.485705 
L 774.140885 48.920362 
L 774.741042 48.920362 
L 774.741042 48.565549 
L 775.3412 48.565549 
L 775.3412 48.757989 
L 775.941357 48.757989 
L 775.941357 50.641489 
L 776.541514 50.641489 
L 776.541514 51.051332 
L 777.741829 51.108289 
L 777.741829 49.85194 
L 778.341986 49.85194 
L 778.341986 51.247786 
L 780.142458 51.27596 
L 780.142458 50.736637 
L 780.742615 50.736637 
L 780.742615 50.56503 
L 781.342772 50.56503 
L 781.342772 50.701977 
L 781.94293 50.701977 
L 781.94293 50.982719 
L 782.543087 50.982719 
L 782.543087 50.410559 
L 783.143244 50.410559 
L 783.143244 49.803966 
L 784.343559 49.703356 
L 784.343559 50.568857 
L 784.943716 50.568857 
L 784.943716 49.290625 
L 785.543873 49.290625 
L 785.543873 48.486389 
L 786.14403 48.486389 
L 786.14403 45.816964 
L 787.344345 45.705898 
L 787.344345 44.926119 
L 787.944502 44.926119 
L 787.944502 45.149561 
L 788.54466 45.149561 
L 788.54466 44.226914 
L 790.345131 44.266325 
L 790.345131 44.718433 
L 790.945289 44.718433 
L 790.945289 43.63132 
L 792.145603 43.596061 
L 792.145603 42.507856 
L 792.74576 42.507856 
L 792.74576 40.904534 
L 793.345918 40.904534 
L 793.345918 41.883587 
L 793.946075 41.883587 
L 793.946075 41.547305 
L 794.546232 41.547305 
L 794.546232 41.39089 
L 795.14639 41.39089 
L 795.14639 40.699834 
L 795.746547 40.699834 
L 795.746547 40.824894 
L 796.346704 40.824894 
L 796.346704 41.397035 
L 796.946861 41.397035 
L 796.946861 40.495318 
L 797.547019 40.495318 
L 797.547019 39.269169 
L 798.147176 39.269169 
L 798.147176 41.11654 
L 798.747333 41.11654 
L 798.747333 40.981809 
L 799.34749 40.981809 
L 799.34749 41.679576 
L 799.947648 41.679576 
L 799.947648 42.46147 
L 800.547805 42.46147 
L 800.547805 41.501338 
L 801.147962 41.501338 
L 801.147962 41.015004 
L 801.74812 41.015004 
L 801.74812 41.206116 
L 802.348277 41.206116 
L 802.348277 39.19998 
L 802.948434 39.19998 
L 802.948434 38.119856 
L 803.548591 38.119856 
L 803.548591 37.349139 
L 805.349063 37.332668 
L 805.349063 33.965006 
L 805.949221 33.965006 
L 805.949221 31.729 
L 807.149535 31.749795 
L 807.149535 30.835384 
L 807.749692 30.835384 
L 807.749692 32.652693 
L 808.34985 32.652693 
L 808.34985 31.882442 
L 808.950007 31.882442 
L 808.950007 32.070004 
L 809.550164 32.070004 
L 809.550164 31.042778 
L 810.150321 31.042778 
L 810.150321 31.343992 
L 810.750479 31.343992 
L 810.750479 31.882371 
L 811.350636 31.882371 
L 811.350636 31.50585 
L 811.950793 31.50585 
L 811.950793 33.051438 
L 812.550951 33.051438 
L 812.550951 33.929578 
L 813.151108 33.929578 
L 813.151108 32.761808 
L 813.751265 32.761808 
L 813.751265 32.905626 
L 814.351422 32.905626 
L 814.351422 33.110187 
L 814.95158 33.110187 
L 814.95158 33.410479 
L 815.551737 33.410479 
L 815.551737 33.590713 
L 816.151894 33.590713 
L 816.151894 34.085748 
L 816.752051 34.085748 
L 816.752051 32.367076 
L 817.952366 32.358911 
L 817.952366 31.857289 
L 818.552523 31.857289 
L 818.552523 31.438461 
L 819.152681 31.438461 
L 819.152681 31.992906 
L 819.752838 31.992906 
L 819.752838 31.100034 
L 820.352995 31.100034 
L 820.352995 31.460542 
L 820.953152 31.460542 
L 820.953152 31.769534 
L 821.55331 31.769534 
L 821.55331 32.246864 
L 822.153467 32.246864 
L 822.153467 32.798789 
L 822.753624 32.798789 
L 822.753624 34.260296 
L 823.953939 34.248263 
L 823.953939 33.68599 
L 824.554096 33.68599 
L 824.554096 34.94279 
L 825.154253 34.94279 
L 825.154253 35.123556 
L 825.754411 35.123556 
L 825.754411 34.088265 
L 826.354568 34.088265 
L 826.354568 33.067483 
L 826.954725 33.067483 
L 826.954725 31.959509 
L 828.15504 31.86538 
L 828.15504 32.38501 
L 828.755197 32.38501 
L 828.755197 34.128429 
L 829.355354 34.128429 
L 829.355354 36.088704 
L 829.955511 36.088704 
L 829.955511 34.787695 
L 830.555669 34.787695 
L 830.555669 35.200085 
L 831.155826 35.200085 
L 831.155826 34.529812 
L 831.755983 34.529812 
L 831.755983 33.031903 
L 832.356141 33.031903 
L 832.356141 34.532881 
L 832.956298 34.532881 
L 832.956298 34.701726 
L 833.556455 34.701726 
L 833.556455 35.045918 
L 834.156612 35.045918 
L 834.156612 36.153138 
L 834.75677 36.153138 
L 834.75677 34.987212 
L 835.957084 34.967023 
L 835.957084 33.306037 
L 836.557241 33.306037 
L 836.557241 32.970268 
L 837.157399 32.970268 
L 837.157399 32.473656 
L 837.757556 32.473656 
L 837.757556 34.140747 
L 838.357713 34.140747 
L 838.357713 33.432953 
L 838.957871 33.432953 
L 838.957871 34.263727 
L 839.558028 34.263727 
L 839.558028 32.424933 
L 840.158185 32.424933 
L 840.158185 31.714753 
L 840.758342 31.714753 
L 840.758342 32.027671 
L 841.958657 32.132097 
L 841.958657 30.600625 
L 842.558814 30.600625 
L 842.558814 31.621643 
L 843.158971 31.621643 
L 843.158971 29.626168 
L 843.759129 29.626168 
L 843.759129 26.499155 
L 844.359286 26.499155 
L 844.359286 25.975605 
L 844.959443 25.975605 
L 844.959443 25.689606 
L 845.559601 25.689606 
L 845.559601 24.547144 
L 846.159758 24.547144 
L 846.159758 24.924442 
L 846.759915 24.924442 
L 846.759915 24.650781 
L 848.560387 24.611198 
L 848.560387 23.803137 
L 849.160544 23.803137 
L 849.160544 22.896055 
L 849.760702 22.896055 
L 849.760702 24.660503 
L 850.360859 24.660503 
L 850.360859 24.23673 
L 850.961016 24.23673 
L 850.961016 25.437498 
L 851.561173 25.437498 
L 851.561173 24.737671 
L 852.161331 24.737671 
L 852.161331 23.648225 
L 852.761488 23.648225 
L 852.761488 25.188669 
L 853.361645 25.188669 
L 853.361645 24.805478 
L 853.961802 24.805478 
L 853.961802 23.2293 
L 854.56196 23.2293 
L 854.56196 23.378299 
L 855.162117 23.378299 
L 855.162117 23.581698 
L 855.762274 23.581698 
L 855.762274 23.164957 
L 856.362432 23.164957 
L 856.362432 23.813584 
L 856.962589 23.813584 
L 856.962589 24.802658 
L 857.562746 24.802658 
L 857.562746 24.967386 
L 858.162903 24.967386 
L 858.162903 24.584829 
L 858.763061 24.584829 
L 858.763061 24.781434 
L 859.963375 24.858045 
L 859.963375 27.443092 
L 860.563532 27.443092 
L 860.563532 27.105294 
L 861.16369 27.105294 
L 861.16369 26.951053 
L 861.763847 26.951053 
L 861.763847 27.871462 
L 862.364004 27.871462 
L 862.364004 27.515877 
L 862.964162 27.515877 
L 862.964162 26.922817 
L 863.564319 26.922817 
L 863.564319 27.111059 
L 864.164476 27.111059 
L 864.164476 26.848935 
L 864.764633 26.848935 
L 864.764633 27.951152 
L 865.364791 27.951152 
L 865.364791 27.634706 
L 865.964948 27.634706 
L 865.964948 29.536377 
L 866.565105 29.536377 
L 866.565105 27.292441 
L 867.165262 27.292441 
L 867.165262 27.588873 
L 867.76542 27.588873 
L 867.76542 27.318508 
L 868.365577 27.318508 
L 868.365577 25.344464 
L 868.965734 25.344464 
L 868.965734 25.126099 
L 869.565892 25.126099 
L 869.565892 24.722463 
L 870.766206 24.744979 
L 870.766206 23.160682 
L 871.366363 23.160682 
L 871.366363 23.394744 
L 871.966521 23.394744 
L 871.966521 22.84528 
L 872.566678 22.84528 
L 872.566678 21.869799 
L 873.166835 21.869799 
L 873.166835 22.27667 
L 873.766992 22.27667 
L 873.766992 23.302755 
L 874.36715 23.302755 
L 874.36715 23.033011 
L 875.567464 22.995231 
L 875.567464 22.422615 
L 876.167622 22.422615 
L 876.167622 23.009364 
L 876.767779 23.009364 
L 876.767779 23.177159 
L 877.367936 23.177159 
L 877.367936 23.043331 
L 877.968093 23.043331 
L 877.968093 22.716336 
L 878.568251 22.716336 
L 878.568251 22.981392 
L 879.168408 22.981392 
L 879.168408 22.505073 
L 879.768565 22.505073 
L 879.768565 21.944877 
L 880.368722 21.944877 
L 880.368722 20.586427 
L 881.569037 20.555853 
L 881.569037 20.866345 
L 883.369509 20.784653 
L 883.369509 21.726605 
L 883.969666 21.726605 
L 883.969666 21.284847 
L 884.569823 21.284847 
L 884.569823 20.552727 
L 885.169981 20.552727 
L 885.169981 20.706075 
L 885.770138 20.706075 
L 885.770138 21.071829 
L 886.970452 20.965732 
L 886.970452 21.350501 
L 887.194182 21.350501 
L 887.194182 21.350501 
" clip-path="url(#p5504013847)" style="fill: none; stroke: #3572c6; stroke-width: 1.2; stroke-linecap: square"/>
   </g>
   <g id="line2d_79">
    <path d="M 75.557818 20.552727 
L 887.194182 20.552727 
L 887.194182 20.552727 
" clip-path="url(#p5504013847)" style="fill: none; stroke: #83a83b; stroke-width: 1.2; stroke-linecap: square"/>
   </g>
   <g id="line2d_80">
    <path d="M 75.557818 21.350501 
L 887.194182 21.350501 
L 887.194182 21.350501 
" clip-path="url(#p5504013847)" style="fill: none; stroke: #c44e52; stroke-width: 1.2; stroke-linecap: square"/>
   </g>
   <g id="line2d_81">
    <path d="M 885.169981 300.96 
L 885.169981 7.2 
" clip-path="url(#p5504013847)" style="fill: none; stroke: #83a83b; stroke-width: 1.2; stroke-linecap: square"/>
   </g>
   <g id="line2d_82">
    <path d="M 887.194182 300.96 
L 887.194182 7.2 
" clip-path="url(#p5504013847)" style="fill: none; stroke: #c44e52; stroke-width: 1.2; stroke-linecap: square"/>
   </g>
   <g id="patch_3">
    <path d="M 34.976 300.96 
L 34.976 7.2 
" style="fill: none; stroke: #899ab8; stroke-width: 1.12; stroke-linejoin: miter; stroke-linecap: square"/>
   </g>
   <g id="patch_4">
    <path d="M 927.776 300.96 
L 927.776 7.2 
" style="fill: none; stroke: #899ab8; stroke-width: 1.12; stroke-linejoin: miter; stroke-linecap: square"/>
   </g>
   <g id="patch_5">
    <path d="M 34.976 300.96 
L 927.776 300.96 
" style="fill: none; stroke: #899ab8; stroke-width: 1.12; stroke-linejoin: miter; stroke-linecap: square"/>
   </g>
   <g id="patch_6">
    <path d="M 34.976 7.2 
L 927.776 7.2 
" style="fill: none; stroke: #899ab8; stroke-width: 1.12; stroke-linejoin: miter; stroke-linecap: square"/>
   </g>
   <g id="text_16">
    <!-- 119295.42 -->
    <g style="fill: #83a83b" transform="translate(185.086521 20.552727) scale(0.132 -0.132)">
     <defs>
      <path id="DejaVuSans-39" d="M 703 97 
L 703 672 
Q 941 559 1184 500 
Q 1428 441 1663 441 
Q 2288 441 2617 861 
Q 2947 1281 2994 2138 
Q 2813 1869 2534 1725 
Q 2256 1581 1919 1581 
Q 1219 1581 811 2004 
Q 403 2428 403 3163 
Q 403 3881 828 4315 
Q 1253 4750 1959 4750 
Q 2769 4750 3195 4129 
Q 3622 3509 3622 2328 
Q 3622 1225 3098 567 
Q 2575 -91 1691 -91 
Q 1453 -91 1209 -44 
Q 966 3 703 97 
z
M 1959 2075 
Q 2384 2075 2632 2365 
Q 2881 2656 2881 3163 
Q 2881 3666 2632 3958 
Q 2384 4250 1959 4250 
Q 1534 4250 1286 3958 
Q 1038 3666 1038 3163 
Q 1038 2656 1286 2365 
Q 1534 2075 1959 2075 
z
" transform="scale(0.015625)"/>
      <path id="DejaVuSans-2e" d="M 684 794 
L 1344 794 
L 1344 0 
L 684 0 
L 684 794 
z
" transform="scale(0.015625)"/>
     </defs>
     <use xlink:href="#DejaVuSans-31"/>
     <use xlink:href="#DejaVuSans-31" transform="translate(63.623047 0)"/>
     <use xlink:href="#DejaVuSans-39" transform="translate(127.246094 0)"/>
     <use xlink:href="#DejaVuSans-32" transform="translate(190.869141 0)"/>
     <use xlink:href="#DejaVuSans-39" transform="translate(254.492188 0)"/>
     <use xlink:href="#DejaVuSans-35" transform="translate(318.115234 0)"/>
     <use xlink:href="#DejaVuSans-2e" transform="translate(381.738281 0)"/>
     <use xlink:href="#DejaVuSans-34" transform="translate(413.525391 0)"/>
     <use xlink:href="#DejaVuSans-32" transform="translate(477.148438 0)"/>
    </g>
   </g>
   <g id="text_17">
    <!-- 114649.005835975 -->
    <g style="fill: #c44e52" transform="translate(185.086521 21.350501) scale(0.132 -0.132)">
     <defs>
      <path id="DejaVuSans-37" d="M 525 4666 
L 3525 4666 
L 3525 4397 
L 1831 0 
L 1172 0 
L 2766 4134 
L 525 4134 
L 525 4666 
z
" transform="scale(0.015625)"/>
     </defs>
     <use xlink:href="#DejaVuSans-31"/>
     <use xlink:href="#DejaVuSans-31" transform="translate(63.623047 0)"/>
     <use xlink:href="#DejaVuSans-34" transform="translate(127.246094 0)"/>
     <use xlink:href="#DejaVuSans-36" transform="translate(190.869141 0)"/>
     <use xlink:href="#DejaVuSans-34" transform="translate(254.492188 0)"/>
     <use xlink:href="#DejaVuSans-39" transform="translate(318.115234 0)"/>
     <use xlink:href="#DejaVuSans-2e" transform="translate(381.738281 0)"/>
     <use xlink:href="#DejaVuSans-30" transform="translate(413.525391 0)"/>
     <use xlink:href="#DejaVuSans-30" transform="translate(477.148438 0)"/>
     <use xlink:href="#DejaVuSans-35" transform="translate(540.771484 0)"/>
     <use xlink:href="#DejaVuSans-38" transform="translate(604.394531 0)"/>
     <use xlink:href="#DejaVuSans-33" transform="translate(668.017578 0)"/>
     <use xlink:href="#DejaVuSans-35" transform="translate(731.640625 0)"/>
     <use xlink:href="#DejaVuSans-39" transform="translate(795.263672 0)"/>
     <use xlink:href="#DejaVuSans-37" transform="translate(858.886719 0)"/>
     <use xlink:href="#DejaVuSans-35" transform="translate(922.509766 0)"/>
    </g>
   </g>
   <g id="legend_1">
    <g id="patch_7">
     <path d="M 43.796 183.886875 
L 142.133094 183.886875 
Q 144.653094 183.886875 144.653094 181.366875 
L 144.653094 126.793125 
Q 144.653094 124.273125 142.133094 124.273125 
L 43.796 124.273125 
Q 41.276 124.273125 41.276 126.793125 
L 41.276 181.366875 
Q 41.276 183.886875 43.796 183.886875 
z
" style="fill: #373e4b; opacity: 0.8; stroke: #cccccc; stroke-width: 0.16; stroke-linejoin: miter"/>
    </g>
    <g id="line2d_83">
     <path d="M 46.316 134.477156 
L 46.316 134.477156 
L 58.916 134.477156 
L 58.916 134.477156 
L 71.516 134.477156 
" style="fill: none; stroke: #3572c6; stroke-width: 1.2; stroke-linecap: square"/>
    </g>
    <g id="text_18">
     <!-- USD/BTC -->
     <g style="fill: #b1bed6" transform="translate(81.596 138.887156) scale(0.126 -0.126)">
      <defs>
       <path id="DejaVuSans-55" d="M 556 4666 
L 1191 4666 
L 1191 1831 
Q 1191 1081 1462 751 
Q 1734 422 2344 422 
Q 2950 422 3222 751 
Q 3494 1081 3494 1831 
L 3494 4666 
L 4128 4666 
L 4128 1753 
Q 4128 841 3676 375 
Q 3225 -91 2344 -91 
Q 1459 -91 1007 375 
Q 556 841 556 1753 
L 556 4666 
z
" transform="scale(0.015625)"/>
       <path id="DejaVuSans-53" d="M 3425 4513 
L 3425 3897 
Q 3066 4069 2747 4153 
Q 2428 4238 2131 4238 
Q 1616 4238 1336 4038 
Q 1056 3838 1056 3469 
Q 1056 3159 1242 3001 
Q 1428 2844 1947 2747 
L 2328 2669 
Q 3034 2534 3370 2195 
Q 3706 1856 3706 1288 
Q 3706 609 3251 259 
Q 2797 -91 1919 -91 
Q 1588 -91 1214 -16 
Q 841 59 441 206 
L 441 856 
Q 825 641 1194 531 
Q 1563 422 1919 422 
Q 2459 422 2753 634 
Q 3047 847 3047 1241 
Q 3047 1584 2836 1778 
Q 2625 1972 2144 2069 
L 1759 2144 
Q 1053 2284 737 2584 
Q 422 2884 422 3419 
Q 422 4038 858 4394 
Q 1294 4750 2059 4750 
Q 2388 4750 2728 4690 
Q 3069 4631 3425 4513 
z
" transform="scale(0.015625)"/>
       <path id="DejaVuSans-2f" d="M 1625 4666 
L 2156 4666 
L 531 -594 
L 0 -594 
L 1625 4666 
z
" transform="scale(0.015625)"/>
       <path id="DejaVuSans-42" d="M 1259 2228 
L 1259 519 
L 2272 519 
Q 2781 519 3026 730 
Q 3272 941 3272 1375 
Q 3272 1813 3026 2020 
Q 2781 2228 2272 2228 
L 1259 2228 
z
M 1259 4147 
L 1259 2741 
L 2194 2741 
Q 2656 2741 2882 2914 
Q 3109 3088 3109 3444 
Q 3109 3797 2882 3972 
Q 2656 4147 2194 4147 
L 1259 4147 
z
M 628 4666 
L 2241 4666 
Q 2963 4666 3353 4366 
Q 3744 4066 3744 3513 
Q 3744 3084 3544 2831 
Q 3344 2578 2956 2516 
Q 3422 2416 3680 2098 
Q 3938 1781 3938 1306 
Q 3938 681 3513 340 
Q 3088 0 2303 0 
L 628 0 
L 628 4666 
z
" transform="scale(0.015625)"/>
       <path id="DejaVuSans-54" d="M -19 4666 
L 3928 4666 
L 3928 4134 
L 2272 4134 
L 2272 0 
L 1638 0 
L 1638 4134 
L -19 4134 
L -19 4666 
z
" transform="scale(0.015625)"/>
       <path id="DejaVuSans-43" d="M 4122 4306 
L 4122 3641 
Q 3803 3938 3442 4084 
Q 3081 4231 2675 4231 
Q 1875 4231 1450 3742 
Q 1025 3253 1025 2328 
Q 1025 1406 1450 917 
Q 1875 428 2675 428 
Q 3081 428 3442 575 
Q 3803 722 4122 1019 
L 4122 359 
Q 3791 134 3420 21 
Q 3050 -91 2638 -91 
Q 1578 -91 968 557 
Q 359 1206 359 2328 
Q 359 3453 968 4101 
Q 1578 4750 2638 4750 
Q 3056 4750 3426 4639 
Q 3797 4528 4122 4306 
z
" transform="scale(0.015625)"/>
      </defs>
      <use xlink:href="#DejaVuSans-55"/>
      <use xlink:href="#DejaVuSans-53" transform="translate(73.193359 0)"/>
      <use xlink:href="#DejaVuSans-44" transform="translate(136.669922 0)"/>
      <use xlink:href="#DejaVuSans-2f" transform="translate(213.671875 0)"/>
      <use xlink:href="#DejaVuSans-42" transform="translate(247.363281 0)"/>
      <use xlink:href="#DejaVuSans-54" transform="translate(315.966797 0)"/>
      <use xlink:href="#DejaVuSans-43" transform="translate(371.175781 0)"/>
     </g>
    </g>
    <g id="line2d_84">
     <path d="M 46.316 152.971594 
L 46.316 152.971594 
L 58.916 152.971594 
L 58.916 152.971594 
L 71.516 152.971594 
" style="fill: none; stroke: #83a83b; stroke-width: 1.2; stroke-linecap: square"/>
    </g>
    <g id="text_19">
     <!-- Max -->
     <g style="fill: #b1bed6" transform="translate(81.596 157.381594) scale(0.126 -0.126)">
      <defs>
       <path id="DejaVuSans-4d" d="M 628 4666 
L 1569 4666 
L 2759 1491 
L 3956 4666 
L 4897 4666 
L 4897 0 
L 4281 0 
L 4281 4097 
L 3078 897 
L 2444 897 
L 1241 4097 
L 1241 0 
L 628 0 
L 628 4666 
z
" transform="scale(0.015625)"/>
       <path id="DejaVuSans-78" d="M 3513 3500 
L 2247 1797 
L 3578 0 
L 2900 0 
L 1881 1375 
L 863 0 
L 184 0 
L 1544 1831 
L 300 3500 
L 978 3500 
L 1906 2253 
L 2834 3500 
L 3513 3500 
z
" transform="scale(0.015625)"/>
      </defs>
      <use xlink:href="#DejaVuSans-4d"/>
      <use xlink:href="#DejaVuSans-61" transform="translate(86.279297 0)"/>
      <use xlink:href="#DejaVuSans-78" transform="translate(147.558594 0)"/>
     </g>
    </g>
    <g id="line2d_85">
     <path d="M 46.316 171.466031 
L 46.316 171.466031 
L 58.916 171.466031 
L 58.916 171.466031 
L 71.516 171.466031 
" style="fill: none; stroke: #c44e52; stroke-width: 1.2; stroke-linecap: square"/>
    </g>
    <g id="text_20">
     <!-- local_Min -->
     <g style="fill: #b1bed6" transform="translate(81.596 175.876031) scale(0.126 -0.126)">
      <defs>
       <path id="DejaVuSans-6c" d="M 603 4863 
L 1178 4863 
L 1178 0 
L 603 0 
L 603 4863 
z
" transform="scale(0.015625)"/>
       <path id="DejaVuSans-6f" d="M 1959 3097 
Q 1497 3097 1228 2736 
Q 959 2375 959 1747 
Q 959 1119 1226 758 
Q 1494 397 1959 397 
Q 2419 397 2687 759 
Q 2956 1122 2956 1747 
Q 2956 2369 2687 2733 
Q 2419 3097 1959 3097 
z
M 1959 3584 
Q 2709 3584 3137 3096 
Q 3566 2609 3566 1747 
Q 3566 888 3137 398 
Q 2709 -91 1959 -91 
Q 1206 -91 779 398 
Q 353 888 353 1747 
Q 353 2609 779 3096 
Q 1206 3584 1959 3584 
z
" transform="scale(0.015625)"/>
       <path id="DejaVuSans-63" d="M 3122 3366 
L 3122 2828 
Q 2878 2963 2633 3030 
Q 2388 3097 2138 3097 
Q 1578 3097 1268 2742 
Q 959 2388 959 1747 
Q 959 1106 1268 751 
Q 1578 397 2138 397 
Q 2388 397 2633 464 
Q 2878 531 3122 666 
L 3122 134 
Q 2881 22 2623 -34 
Q 2366 -91 2075 -91 
Q 1284 -91 818 406 
Q 353 903 353 1747 
Q 353 2603 823 3093 
Q 1294 3584 2113 3584 
Q 2378 3584 2631 3529 
Q 2884 3475 3122 3366 
z
" transform="scale(0.015625)"/>
       <path id="DejaVuSans-5f" d="M 3263 -1063 
L 3263 -1509 
L -63 -1509 
L -63 -1063 
L 3263 -1063 
z
" transform="scale(0.015625)"/>
       <path id="DejaVuSans-69" d="M 603 3500 
L 1178 3500 
L 1178 0 
L 603 0 
L 603 3500 
z
M 603 4863 
L 1178 4863 
L 1178 4134 
L 603 4134 
L 603 4863 
z
" transform="scale(0.015625)"/>
       <path id="DejaVuSans-6e" d="M 3513 2113 
L 3513 0 
L 2938 0 
L 2938 2094 
Q 2938 2591 2744 2837 
Q 2550 3084 2163 3084 
Q 1697 3084 1428 2787 
Q 1159 2491 1159 1978 
L 1159 0 
L 581 0 
L 581 3500 
L 1159 3500 
L 1159 2956 
Q 1366 3272 1645 3428 
Q 1925 3584 2291 3584 
Q 2894 3584 3203 3211 
Q 3513 2838 3513 2113 
z
" transform="scale(0.015625)"/>
      </defs>
      <use xlink:href="#DejaVuSans-6c"/>
      <use xlink:href="#DejaVuSans-6f" transform="translate(27.783203 0)"/>
      <use xlink:href="#DejaVuSans-63" transform="translate(88.964844 0)"/>
      <use xlink:href="#DejaVuSans-61" transform="translate(143.945312 0)"/>
      <use xlink:href="#DejaVuSans-6c" transform="translate(205.224609 0)"/>
      <use xlink:href="#DejaVuSans-5f" transform="translate(233.007812 0)"/>
      <use xlink:href="#DejaVuSans-4d" transform="translate(283.007812 0)"/>
      <use xlink:href="#DejaVuSans-69" transform="translate(369.287109 0)"/>
      <use xlink:href="#DejaVuSans-6e" transform="translate(397.070312 0)"/>
     </g>
    </g>
   </g>
  </g>
 </g>
 <defs>
  <clipPath id="p5504013847">
   <rect x="34.976" y="7.2" width="892.8" height="293.76"/>
  </clipPath>
 </defs>
</svg>
