<?xml version="1.0" encoding="utf-8" standalone="no"?>
<!DOCTYPE svg PUBLIC "-//W3C//DTD SVG 1.1//EN"
  "http://www.w3.org/Graphics/SVG/1.1/DTD/svg11.dtd">
<svg xmlns:xlink="http://www.w3.org/1999/xlink" width="934.976pt" height="358.470384pt" viewBox="0 0 934.976 358.470384" xmlns="http://www.w3.org/2000/svg" version="1.1">
 <metadata>
  <rdf:RDF xmlns:dc="http://purl.org/dc/elements/1.1/" xmlns:cc="http://creativecommons.org/ns#" xmlns:rdf="http://www.w3.org/1999/02/22-rdf-syntax-ns#">
   <cc:Work>
    <dc:type rdf:resource="http://purl.org/dc/dcmitype/StillImage"/>
    <dc:date>2023-04-01T04:34:28.014228</dc:date>
    <dc:format>image/svg+xml</dc:format>
    <dc:creator>
     <cc:Agent>
      <dc:title>Matplotlib v3.7.1, https://matplotlib.org/</dc:title>
     </cc:Agent>
    </dc:creator>
   </cc:Work>
  </rdf:RDF>
 </metadata>
 <defs>
  <style type="text/css">*{stroke-linejoin: round; stroke-linecap: butt}</style>
 </defs>
 <g id="figure_1">
  <g id="patch_1">
   <path d="M 0 358.470384 
L 934.976 358.470384 
L 934.976 0 
L 0 0 
z
" style="fill: #373e4b"/>
  </g>
  <g id="axes_1">
   <g id="patch_2">
    <path d="M 34.976 301.139691 
L 927.776 301.139691 
L 927.776 7.379691 
L 34.976 7.379691 
z
" style="fill: #373e4b"/>
   </g>
   <g id="matplotlib.axis_1">
    <g id="xtick_1">
     <g id="line2d_1">
      <path d="M 151.488847 301.139691 
L 151.488847 7.379691 
" clip-path="url(#p1a8297c6b4)" style="fill: none; stroke: #546379; stroke-width: 1.12; stroke-linecap: square"/>
     </g>
     <g id="line2d_2"/>
     <g id="text_1">
      <!-- 2012 -->
      <g style="fill: #b1bed6" transform="translate(122.407807 331.064545) rotate(-30) scale(0.126 -0.126)">
       <defs>
        <path id="DejaVuSans-32" d="M 1228 531 
L 3431 531 
L 3431 0 
L 469 0 
L 469 531 
Q 828 903 1448 1529 
Q 2069 2156 2228 2338 
Q 2531 2678 2651 2914 
Q 2772 3150 2772 3378 
Q 2772 3750 2511 3984 
Q 2250 4219 1831 4219 
Q 1534 4219 1204 4116 
Q 875 4013 500 3803 
L 500 4441 
Q 881 4594 1212 4672 
Q 1544 4750 1819 4750 
Q 2544 4750 2975 4387 
Q 3406 4025 3406 3419 
Q 3406 3131 3298 2873 
Q 3191 2616 2906 2266 
Q 2828 2175 2409 1742 
Q 1991 1309 1228 531 
z
" transform="scale(0.015625)"/>
        <path id="DejaVuSans-30" d="M 2034 4250 
Q 1547 4250 1301 3770 
Q 1056 3291 1056 2328 
Q 1056 1369 1301 889 
Q 1547 409 2034 409 
Q 2525 409 2770 889 
Q 3016 1369 3016 2328 
Q 3016 3291 2770 3770 
Q 2525 4250 2034 4250 
z
M 2034 4750 
Q 2819 4750 3233 4129 
Q 3647 3509 3647 2328 
Q 3647 1150 3233 529 
Q 2819 -91 2034 -91 
Q 1250 -91 836 529 
Q 422 1150 422 2328 
Q 422 3509 836 4129 
Q 1250 4750 2034 4750 
z
" transform="scale(0.015625)"/>
        <path id="DejaVuSans-31" d="M 794 531 
L 1825 531 
L 1825 4091 
L 703 3866 
L 703 4441 
L 1819 4666 
L 2450 4666 
L 2450 531 
L 3481 531 
L 3481 0 
L 794 0 
L 794 531 
z
" transform="scale(0.015625)"/>
       </defs>
       <use xlink:href="#DejaVuSans-32"/>
       <use xlink:href="#DejaVuSans-30" x="63.623047"/>
       <use xlink:href="#DejaVuSans-31" x="127.246094"/>
       <use xlink:href="#DejaVuSans-32" x="190.869141"/>
      </g>
     </g>
    </g>
    <g id="xtick_2">
     <g id="line2d_3">
      <path d="M 282.398239 301.139691 
L 282.398239 7.379691 
" clip-path="url(#p1a8297c6b4)" style="fill: none; stroke: #546379; stroke-width: 1.12; stroke-linecap: square"/>
     </g>
     <g id="line2d_4"/>
     <g id="text_2">
      <!-- 2014 -->
      <g style="fill: #b1bed6" transform="translate(253.317199 331.064545) rotate(-30) scale(0.126 -0.126)">
       <defs>
        <path id="DejaVuSans-34" d="M 2419 4116 
L 825 1625 
L 2419 1625 
L 2419 4116 
z
M 2253 4666 
L 3047 4666 
L 3047 1625 
L 3713 1625 
L 3713 1100 
L 3047 1100 
L 3047 0 
L 2419 0 
L 2419 1100 
L 313 1100 
L 313 1709 
L 2253 4666 
z
" transform="scale(0.015625)"/>
       </defs>
       <use xlink:href="#DejaVuSans-32"/>
       <use xlink:href="#DejaVuSans-30" x="63.623047"/>
       <use xlink:href="#DejaVuSans-31" x="127.246094"/>
       <use xlink:href="#DejaVuSans-34" x="190.869141"/>
      </g>
     </g>
    </g>
    <g id="xtick_3">
     <g id="line2d_5">
      <path d="M 413.128548 301.139691 
L 413.128548 7.379691 
" clip-path="url(#p1a8297c6b4)" style="fill: none; stroke: #546379; stroke-width: 1.12; stroke-linecap: square"/>
     </g>
     <g id="line2d_6"/>
     <g id="text_3">
      <!-- 2016 -->
      <g style="fill: #b1bed6" transform="translate(384.047508 331.064545) rotate(-30) scale(0.126 -0.126)">
       <defs>
        <path id="DejaVuSans-36" d="M 2113 2584 
Q 1688 2584 1439 2293 
Q 1191 2003 1191 1497 
Q 1191 994 1439 701 
Q 1688 409 2113 409 
Q 2538 409 2786 701 
Q 3034 994 3034 1497 
Q 3034 2003 2786 2293 
Q 2538 2584 2113 2584 
z
M 3366 4563 
L 3366 3988 
Q 3128 4100 2886 4159 
Q 2644 4219 2406 4219 
Q 1781 4219 1451 3797 
Q 1122 3375 1075 2522 
Q 1259 2794 1537 2939 
Q 1816 3084 2150 3084 
Q 2853 3084 3261 2657 
Q 3669 2231 3669 1497 
Q 3669 778 3244 343 
Q 2819 -91 2113 -91 
Q 1303 -91 875 529 
Q 447 1150 447 2328 
Q 447 3434 972 4092 
Q 1497 4750 2381 4750 
Q 2619 4750 2861 4703 
Q 3103 4656 3366 4563 
z
" transform="scale(0.015625)"/>
       </defs>
       <use xlink:href="#DejaVuSans-32"/>
       <use xlink:href="#DejaVuSans-30" x="63.623047"/>
       <use xlink:href="#DejaVuSans-31" x="127.246094"/>
       <use xlink:href="#DejaVuSans-36" x="190.869141"/>
      </g>
     </g>
    </g>
    <g id="xtick_4">
     <g id="line2d_7">
      <path d="M 544.03794 301.139691 
L 544.03794 7.379691 
" clip-path="url(#p1a8297c6b4)" style="fill: none; stroke: #546379; stroke-width: 1.12; stroke-linecap: square"/>
     </g>
     <g id="line2d_8"/>
     <g id="text_4">
      <!-- 2018 -->
      <g style="fill: #b1bed6" transform="translate(514.9569 331.064545) rotate(-30) scale(0.126 -0.126)">
       <defs>
        <path id="DejaVuSans-38" d="M 2034 2216 
Q 1584 2216 1326 1975 
Q 1069 1734 1069 1313 
Q 1069 891 1326 650 
Q 1584 409 2034 409 
Q 2484 409 2743 651 
Q 3003 894 3003 1313 
Q 3003 1734 2745 1975 
Q 2488 2216 2034 2216 
z
M 1403 2484 
Q 997 2584 770 2862 
Q 544 3141 544 3541 
Q 544 4100 942 4425 
Q 1341 4750 2034 4750 
Q 2731 4750 3128 4425 
Q 3525 4100 3525 3541 
Q 3525 3141 3298 2862 
Q 3072 2584 2669 2484 
Q 3125 2378 3379 2068 
Q 3634 1759 3634 1313 
Q 3634 634 3220 271 
Q 2806 -91 2034 -91 
Q 1263 -91 848 271 
Q 434 634 434 1313 
Q 434 1759 690 2068 
Q 947 2378 1403 2484 
z
M 1172 3481 
Q 1172 3119 1398 2916 
Q 1625 2713 2034 2713 
Q 2441 2713 2670 2916 
Q 2900 3119 2900 3481 
Q 2900 3844 2670 4047 
Q 2441 4250 2034 4250 
Q 1625 4250 1398 4047 
Q 1172 3844 1172 3481 
z
" transform="scale(0.015625)"/>
       </defs>
       <use xlink:href="#DejaVuSans-32"/>
       <use xlink:href="#DejaVuSans-30" x="63.623047"/>
       <use xlink:href="#DejaVuSans-31" x="127.246094"/>
       <use xlink:href="#DejaVuSans-38" x="190.869141"/>
      </g>
     </g>
    </g>
    <g id="xtick_5">
     <g id="line2d_9">
      <path d="M 674.768249 301.139691 
L 674.768249 7.379691 
" clip-path="url(#p1a8297c6b4)" style="fill: none; stroke: #546379; stroke-width: 1.12; stroke-linecap: square"/>
     </g>
     <g id="line2d_10"/>
     <g id="text_5">
      <!-- 2020 -->
      <g style="fill: #b1bed6" transform="translate(645.687209 331.064545) rotate(-30) scale(0.126 -0.126)">
       <use xlink:href="#DejaVuSans-32"/>
       <use xlink:href="#DejaVuSans-30" x="63.623047"/>
       <use xlink:href="#DejaVuSans-32" x="127.246094"/>
       <use xlink:href="#DejaVuSans-30" x="190.869141"/>
      </g>
     </g>
    </g>
    <g id="xtick_6">
     <g id="line2d_11">
      <path d="M 805.677641 301.139691 
L 805.677641 7.379691 
" clip-path="url(#p1a8297c6b4)" style="fill: none; stroke: #546379; stroke-width: 1.12; stroke-linecap: square"/>
     </g>
     <g id="line2d_12"/>
     <g id="text_6">
      <!-- 2022 -->
      <g style="fill: #b1bed6" transform="translate(776.596601 331.064545) rotate(-30) scale(0.126 -0.126)">
       <use xlink:href="#DejaVuSans-32"/>
       <use xlink:href="#DejaVuSans-30" x="63.623047"/>
       <use xlink:href="#DejaVuSans-32" x="127.246094"/>
       <use xlink:href="#DejaVuSans-32" x="190.869141"/>
      </g>
     </g>
    </g>
    <g id="text_7">
     <!-- Date -->
     <g style="fill: #b1bed6" transform="translate(464.166875 348.275634) scale(0.144 -0.144)">
      <defs>
       <path id="DejaVuSans-44" d="M 1259 4147 
L 1259 519 
L 2022 519 
Q 2988 519 3436 956 
Q 3884 1394 3884 2338 
Q 3884 3275 3436 3711 
Q 2988 4147 2022 4147 
L 1259 4147 
z
M 628 4666 
L 1925 4666 
Q 3281 4666 3915 4102 
Q 4550 3538 4550 2338 
Q 4550 1131 3912 565 
Q 3275 0 1925 0 
L 628 0 
L 628 4666 
z
" transform="scale(0.015625)"/>
       <path id="DejaVuSans-61" d="M 2194 1759 
Q 1497 1759 1228 1600 
Q 959 1441 959 1056 
Q 959 750 1161 570 
Q 1363 391 1709 391 
Q 2188 391 2477 730 
Q 2766 1069 2766 1631 
L 2766 1759 
L 2194 1759 
z
M 3341 1997 
L 3341 0 
L 2766 0 
L 2766 531 
Q 2569 213 2275 61 
Q 1981 -91 1556 -91 
Q 1019 -91 701 211 
Q 384 513 384 1019 
Q 384 1609 779 1909 
Q 1175 2209 1959 2209 
L 2766 2209 
L 2766 2266 
Q 2766 2663 2505 2880 
Q 2244 3097 1772 3097 
Q 1472 3097 1187 3025 
Q 903 2953 641 2809 
L 641 3341 
Q 956 3463 1253 3523 
Q 1550 3584 1831 3584 
Q 2591 3584 2966 3190 
Q 3341 2797 3341 1997 
z
" transform="scale(0.015625)"/>
       <path id="DejaVuSans-74" d="M 1172 4494 
L 1172 3500 
L 2356 3500 
L 2356 3053 
L 1172 3053 
L 1172 1153 
Q 1172 725 1289 603 
Q 1406 481 1766 481 
L 2356 481 
L 2356 0 
L 1766 0 
Q 1100 0 847 248 
Q 594 497 594 1153 
L 594 3053 
L 172 3053 
L 172 3500 
L 594 3500 
L 594 4494 
L 1172 4494 
z
" transform="scale(0.015625)"/>
       <path id="DejaVuSans-65" d="M 3597 1894 
L 3597 1613 
L 953 1613 
Q 991 1019 1311 708 
Q 1631 397 2203 397 
Q 2534 397 2845 478 
Q 3156 559 3463 722 
L 3463 178 
Q 3153 47 2828 -22 
Q 2503 -91 2169 -91 
Q 1331 -91 842 396 
Q 353 884 353 1716 
Q 353 2575 817 3079 
Q 1281 3584 2069 3584 
Q 2775 3584 3186 3129 
Q 3597 2675 3597 1894 
z
M 3022 2063 
Q 3016 2534 2758 2815 
Q 2500 3097 2075 3097 
Q 1594 3097 1305 2825 
Q 1016 2553 972 2059 
L 3022 2063 
z
" transform="scale(0.015625)"/>
      </defs>
      <use xlink:href="#DejaVuSans-44"/>
      <use xlink:href="#DejaVuSans-61" x="77.001953"/>
      <use xlink:href="#DejaVuSans-74" x="138.28125"/>
      <use xlink:href="#DejaVuSans-65" x="177.490234"/>
     </g>
    </g>
   </g>
   <g id="matplotlib.axis_2">
    <g id="ytick_1">
     <g id="line2d_13">
      <path d="M 34.976 254.863557 
L 927.776 254.863557 
" clip-path="url(#p1a8297c6b4)" style="fill: none; stroke: #546379; stroke-width: 1.12; stroke-linecap: square"/>
     </g>
     <g id="line2d_14"/>
     <g id="text_8">
      <!-- $\mathdefault{10^{0}}$ -->
      <g style="fill: #b1bed6" transform="translate(7.2 259.650573) scale(0.126 -0.126)">
       <use xlink:href="#DejaVuSans-31" transform="translate(0 0.765625)"/>
       <use xlink:href="#DejaVuSans-30" transform="translate(63.623047 0.765625)"/>
       <use xlink:href="#DejaVuSans-30" transform="translate(128.203125 39.046875) scale(0.7)"/>
      </g>
     </g>
    </g>
    <g id="ytick_2">
     <g id="line2d_15">
      <path d="M 34.976 206.288249 
L 927.776 206.288249 
" clip-path="url(#p1a8297c6b4)" style="fill: none; stroke: #546379; stroke-width: 1.12; stroke-linecap: square"/>
     </g>
     <g id="line2d_16"/>
     <g id="text_9">
      <!-- $\mathdefault{10^{1}}$ -->
      <g style="fill: #b1bed6" transform="translate(7.2 211.075264) scale(0.126 -0.126)">
       <use xlink:href="#DejaVuSans-31" transform="translate(0 0.684375)"/>
       <use xlink:href="#DejaVuSans-30" transform="translate(63.623047 0.684375)"/>
       <use xlink:href="#DejaVuSans-31" transform="translate(128.203125 38.965625) scale(0.7)"/>
      </g>
     </g>
    </g>
    <g id="ytick_3">
     <g id="line2d_17">
      <path d="M 34.976 157.71294 
L 927.776 157.71294 
" clip-path="url(#p1a8297c6b4)" style="fill: none; stroke: #546379; stroke-width: 1.12; stroke-linecap: square"/>
     </g>
     <g id="line2d_18"/>
     <g id="text_10">
      <!-- $\mathdefault{10^{2}}$ -->
      <g style="fill: #b1bed6" transform="translate(7.2 162.499956) scale(0.126 -0.126)">
       <use xlink:href="#DejaVuSans-31" transform="translate(0 0.765625)"/>
       <use xlink:href="#DejaVuSans-30" transform="translate(63.623047 0.765625)"/>
       <use xlink:href="#DejaVuSans-32" transform="translate(128.203125 39.046875) scale(0.7)"/>
      </g>
     </g>
    </g>
    <g id="ytick_4">
     <g id="line2d_19">
      <path d="M 34.976 109.137632 
L 927.776 109.137632 
" clip-path="url(#p1a8297c6b4)" style="fill: none; stroke: #546379; stroke-width: 1.12; stroke-linecap: square"/>
     </g>
     <g id="line2d_20"/>
     <g id="text_11">
      <!-- $\mathdefault{10^{3}}$ -->
      <g style="fill: #b1bed6" transform="translate(7.2 113.924648) scale(0.126 -0.126)">
       <defs>
        <path id="DejaVuSans-33" d="M 2597 2516 
Q 3050 2419 3304 2112 
Q 3559 1806 3559 1356 
Q 3559 666 3084 287 
Q 2609 -91 1734 -91 
Q 1441 -91 1130 -33 
Q 819 25 488 141 
L 488 750 
Q 750 597 1062 519 
Q 1375 441 1716 441 
Q 2309 441 2620 675 
Q 2931 909 2931 1356 
Q 2931 1769 2642 2001 
Q 2353 2234 1838 2234 
L 1294 2234 
L 1294 2753 
L 1863 2753 
Q 2328 2753 2575 2939 
Q 2822 3125 2822 3475 
Q 2822 3834 2567 4026 
Q 2313 4219 1838 4219 
Q 1578 4219 1281 4162 
Q 984 4106 628 3988 
L 628 4550 
Q 988 4650 1302 4700 
Q 1616 4750 1894 4750 
Q 2613 4750 3031 4423 
Q 3450 4097 3450 3541 
Q 3450 3153 3228 2886 
Q 3006 2619 2597 2516 
z
" transform="scale(0.015625)"/>
       </defs>
       <use xlink:href="#DejaVuSans-31" transform="translate(0 0.765625)"/>
       <use xlink:href="#DejaVuSans-30" transform="translate(63.623047 0.765625)"/>
       <use xlink:href="#DejaVuSans-33" transform="translate(128.203125 39.046875) scale(0.7)"/>
      </g>
     </g>
    </g>
    <g id="ytick_5">
     <g id="line2d_21">
      <path d="M 34.976 60.562324 
L 927.776 60.562324 
" clip-path="url(#p1a8297c6b4)" style="fill: none; stroke: #546379; stroke-width: 1.12; stroke-linecap: square"/>
     </g>
     <g id="line2d_22"/>
     <g id="text_12">
      <!-- $\mathdefault{10^{4}}$ -->
      <g style="fill: #b1bed6" transform="translate(7.2 65.34934) scale(0.126 -0.126)">
       <use xlink:href="#DejaVuSans-31" transform="translate(0 0.684375)"/>
       <use xlink:href="#DejaVuSans-30" transform="translate(63.623047 0.684375)"/>
       <use xlink:href="#DejaVuSans-34" transform="translate(128.203125 38.965625) scale(0.7)"/>
      </g>
     </g>
    </g>
    <g id="ytick_6">
     <g id="line2d_23">
      <path d="M 34.976 11.987016 
L 927.776 11.987016 
" clip-path="url(#p1a8297c6b4)" style="fill: none; stroke: #546379; stroke-width: 1.12; stroke-linecap: square"/>
     </g>
     <g id="line2d_24"/>
     <g id="text_13">
      <!-- $\mathdefault{10^{5}}$ -->
      <g style="fill: #b1bed6" transform="translate(7.2 16.774031) scale(0.126 -0.126)">
       <defs>
        <path id="DejaVuSans-35" d="M 691 4666 
L 3169 4666 
L 3169 4134 
L 1269 4134 
L 1269 2991 
Q 1406 3038 1543 3061 
Q 1681 3084 1819 3084 
Q 2600 3084 3056 2656 
Q 3513 2228 3513 1497 
Q 3513 744 3044 326 
Q 2575 -91 1722 -91 
Q 1428 -91 1123 -41 
Q 819 9 494 109 
L 494 744 
Q 775 591 1075 516 
Q 1375 441 1709 441 
Q 2250 441 2565 725 
Q 2881 1009 2881 1497 
Q 2881 1984 2565 2268 
Q 2250 2553 1709 2553 
Q 1456 2553 1204 2497 
Q 953 2441 691 2322 
L 691 4666 
z
" transform="scale(0.015625)"/>
       </defs>
       <use xlink:href="#DejaVuSans-31" transform="translate(0 0.684375)"/>
       <use xlink:href="#DejaVuSans-30" transform="translate(63.623047 0.684375)"/>
       <use xlink:href="#DejaVuSans-35" transform="translate(128.203125 38.965625) scale(0.7)"/>
      </g>
     </g>
    </g>
    <g id="ytick_7">
     <g id="line2d_25"/>
    </g>
    <g id="ytick_8">
     <g id="line2d_26"/>
    </g>
    <g id="ytick_9">
     <g id="line2d_27"/>
    </g>
    <g id="ytick_10">
     <g id="line2d_28"/>
    </g>
    <g id="ytick_11">
     <g id="line2d_29"/>
    </g>
    <g id="ytick_12">
     <g id="line2d_30"/>
    </g>
    <g id="ytick_13">
     <g id="line2d_31"/>
    </g>
    <g id="ytick_14">
     <g id="line2d_32"/>
    </g>
    <g id="ytick_15">
     <g id="line2d_33"/>
    </g>
    <g id="ytick_16">
     <g id="line2d_34"/>
    </g>
    <g id="ytick_17">
     <g id="line2d_35"/>
    </g>
    <g id="ytick_18">
     <g id="line2d_36"/>
    </g>
    <g id="ytick_19">
     <g id="line2d_37"/>
    </g>
    <g id="ytick_20">
     <g id="line2d_38"/>
    </g>
    <g id="ytick_21">
     <g id="line2d_39"/>
    </g>
    <g id="ytick_22">
     <g id="line2d_40"/>
    </g>
    <g id="ytick_23">
     <g id="line2d_41"/>
    </g>
    <g id="ytick_24">
     <g id="line2d_42"/>
    </g>
    <g id="ytick_25">
     <g id="line2d_43"/>
    </g>
    <g id="ytick_26">
     <g id="line2d_44"/>
    </g>
    <g id="ytick_27">
     <g id="line2d_45"/>
    </g>
    <g id="ytick_28">
     <g id="line2d_46"/>
    </g>
    <g id="ytick_29">
     <g id="line2d_47"/>
    </g>
    <g id="ytick_30">
     <g id="line2d_48"/>
    </g>
    <g id="ytick_31">
     <g id="line2d_49"/>
    </g>
    <g id="ytick_32">
     <g id="line2d_50"/>
    </g>
    <g id="ytick_33">
     <g id="line2d_51"/>
    </g>
    <g id="ytick_34">
     <g id="line2d_52"/>
    </g>
    <g id="ytick_35">
     <g id="line2d_53"/>
    </g>
    <g id="ytick_36">
     <g id="line2d_54"/>
    </g>
    <g id="ytick_37">
     <g id="line2d_55"/>
    </g>
    <g id="ytick_38">
     <g id="line2d_56"/>
    </g>
    <g id="ytick_39">
     <g id="line2d_57"/>
    </g>
    <g id="ytick_40">
     <g id="line2d_58"/>
    </g>
    <g id="ytick_41">
     <g id="line2d_59"/>
    </g>
    <g id="ytick_42">
     <g id="line2d_60"/>
    </g>
    <g id="ytick_43">
     <g id="line2d_61"/>
    </g>
    <g id="ytick_44">
     <g id="line2d_62"/>
    </g>
    <g id="ytick_45">
     <g id="line2d_63"/>
    </g>
    <g id="ytick_46">
     <g id="line2d_64"/>
    </g>
    <g id="ytick_47">
     <g id="line2d_65"/>
    </g>
    <g id="ytick_48">
     <g id="line2d_66"/>
    </g>
    <g id="ytick_49">
     <g id="line2d_67"/>
    </g>
    <g id="ytick_50">
     <g id="line2d_68"/>
    </g>
    <g id="ytick_51">
     <g id="line2d_69"/>
    </g>
    <g id="ytick_52">
     <g id="line2d_70"/>
    </g>
    <g id="ytick_53">
     <g id="line2d_71"/>
    </g>
    <g id="ytick_54">
     <g id="line2d_72"/>
    </g>
   </g>
   <g id="line2d_73">
    <path d="M 75.557818 287.786964 
L 75.557818 284.108807 
L 76.095066 284.108807 
L 76.095066 276.4163 
L 76.632314 276.4163 
L 76.632314 284.969987 
L 77.169562 284.969987 
L 77.169562 280.262553 
L 77.70681 280.262553 
L 77.70681 281.718026 
L 78.244057 281.718026 
L 78.244057 280.97774 
L 79.855801 280.97774 
L 79.855801 281.718026 
L 80.393049 281.718026 
L 80.393049 284.108807 
L 80.930297 284.108807 
L 80.930297 285.867824 
L 81.467544 285.867824 
L 81.467544 284.108807 
L 82.004792 284.108807 
L 82.004792 285.867824 
L 83.079288 285.867824 
L 83.079288 284.108807 
L 83.616536 284.108807 
L 83.616536 282.485237 
L 84.153784 282.485237 
L 84.153784 284.108807 
L 84.691032 284.108807 
L 84.691032 282.485237 
L 85.228279 282.485237 
L 85.228279 280.262553 
L 86.840023 280.262553 
L 86.840023 278.901049 
L 87.377271 278.901049 
L 87.377271 278.251891 
L 87.914519 278.251891 
L 87.914519 273.164339 
L 88.451766 273.164339 
L 88.451766 274.193616 
L 88.989014 274.193616 
L 88.989014 277.010592 
L 89.526262 277.010592 
L 89.526262 272.66794 
L 90.600758 272.66794 
L 90.600758 271.708866 
L 91.138006 271.708866 
L 91.138006 265.291226 
L 91.675254 265.291226 
L 91.675254 260.105095 
L 92.212501 260.105095 
L 92.212501 256.622574 
L 92.749749 256.622574 
L 92.749749 255.506124 
L 93.286997 255.506124 
L 93.286997 253.045553 
L 93.824245 253.045553 
L 93.824245 253.239988 
L 94.361493 253.239988 
L 94.361493 254.036157 
L 94.898741 254.036157 
L 94.898741 257.560328 
L 95.435988 257.560328 
L 95.435988 255.724737 
L 96.510484 255.724737 
L 96.510484 255.94564 
L 97.047732 255.94564 
L 97.047732 256.622574 
L 97.58498 256.622574 
L 97.58498 257.086241 
L 98.122228 257.086241 
L 98.122228 256.394508 
L 98.659476 256.394508 
L 98.659476 257.086241 
L 99.196723 257.086241 
L 99.196723 257.801428 
L 99.733971 257.801428 
L 99.733971 259.836353 
L 100.271219 259.836353 
L 100.271219 258.045315 
L 100.808467 258.045315 
L 100.808467 257.086241 
L 101.345715 257.086241 
L 101.345715 259.570991 
L 102.42021 259.570991 
L 102.42021 260.377305 
L 102.957458 260.377305 
L 102.957458 260.105095 
L 103.494706 260.105095 
L 103.494706 260.653074 
L 104.031954 260.653074 
L 104.031954 255.075579 
L 104.569202 255.075579 
L 104.569202 253.045553 
L 105.10645 253.045553 
L 105.10645 251.19384 
L 105.643698 251.19384 
L 105.643698 248.068887 
L 106.180945 248.068887 
L 106.180945 243.545699 
L 106.718193 243.545699 
L 106.718193 234.224801 
L 107.255441 234.224801 
L 107.255441 225.883669 
L 107.792689 225.883669 
L 107.792689 228.076703 
L 108.329937 228.076703 
L 108.329937 226.979811 
L 108.867185 226.979811 
L 108.867185 219.248274 
L 109.404432 219.248274 
L 109.404432 209.568356 
L 109.94168 209.568356 
L 109.94168 209.791334 
L 110.478928 209.791334 
L 110.478928 212.98526 
L 111.016176 212.98526 
L 111.016176 214.393179 
L 111.553424 214.393179 
L 111.553424 211.127946 
L 112.090672 211.127946 
L 112.090672 209.274672 
L 112.62792 209.274672 
L 112.62792 207.437056 
L 113.165167 207.437056 
L 113.165167 197.664359 
L 113.702415 197.664359 
L 113.702415 192.537795 
L 114.239663 192.537795 
L 114.239663 181.52747 
L 114.776911 181.52747 
L 114.776911 187.068176 
L 115.314159 187.068176 
L 115.314159 191.676175 
L 115.851407 191.676175 
L 115.851407 194.362395 
L 116.388654 194.362395 
L 116.388654 197.193075 
L 116.925902 197.193075 
L 116.925902 195.15626 
L 117.46315 195.15626 
L 117.46315 194.017624 
L 118.000398 194.017624 
L 118.000398 194.627757 
L 118.537646 194.627757 
L 118.537646 196.718683 
L 119.074894 196.718683 
L 119.074894 195.800752 
L 119.612142 195.800752 
L 119.612142 197.510729 
L 120.149389 197.510729 
L 120.149389 198.42067 
L 120.686637 198.42067 
L 120.686637 198.816644 
L 121.223885 198.816644 
L 121.223885 199.295779 
L 122.298381 199.28064 
L 122.298381 198.950305 
L 123.372876 199.039884 
L 123.372876 199.099816 
L 123.910124 199.099816 
L 123.910124 200.161377 
L 124.447372 200.161377 
L 124.447372 203.4871 
L 124.98462 203.4871 
L 124.98462 207.017989 
L 125.521868 207.017989 
L 125.521868 205.562517 
L 126.059116 205.562517 
L 126.059116 203.524078 
L 127.133611 203.542591 
L 127.133611 202.886138 
L 127.670859 202.886138 
L 127.670859 203.394937 
L 128.208107 203.394937 
L 128.208107 206.267163 
L 128.745355 206.267163 
L 128.745355 207.593572 
L 129.282603 207.593572 
L 129.282603 209.816256 
L 129.819851 209.816256 
L 129.819851 209.568356 
L 130.357098 209.568356 
L 130.357098 212.272971 
L 130.894346 212.272971 
L 130.894346 215.40852 
L 131.431594 215.40852 
L 131.431594 216.40694 
L 131.968842 216.40694 
L 131.968842 220.164769 
L 132.50609 220.164769 
L 132.50609 217.454969 
L 133.043338 217.454969 
L 133.043338 217.779807 
L 133.580586 217.779807 
L 133.580586 218.938602 
L 134.117833 218.938602 
L 134.117833 221.122895 
L 134.655081 221.122895 
L 134.655081 219.801384 
L 135.192329 219.801384 
L 135.192329 220.784676 
L 135.729577 220.784676 
L 135.729577 221.81605 
L 136.266825 221.81605 
L 136.266825 224.438881 
L 136.804073 224.438881 
L 136.804073 223.751974 
L 137.34132 223.751974 
L 137.34132 226.315316 
L 137.878568 226.315316 
L 137.878568 234.787394 
L 138.415816 234.787394 
L 138.415816 229.612752 
L 138.953064 229.612752 
L 138.953064 231.687245 
L 139.490312 231.687245 
L 139.490312 229.108943 
L 140.564808 229.171265 
L 140.564808 229.804826 
L 141.102055 229.804826 
L 141.102055 231.407824 
L 141.639303 231.407824 
L 141.639303 231.063673 
L 142.176551 231.063673 
L 142.176551 230.927569 
L 142.713799 230.927569 
L 142.713799 234.145641 
L 143.251047 234.145641 
L 143.251047 236.660041 
L 143.788295 236.660041 
L 143.788295 237.292516 
L 144.325542 237.292516 
L 144.325542 235.702945 
L 144.86279 235.702945 
L 144.86279 235.449283 
L 145.400038 235.449283 
L 145.400038 231.687245 
L 145.937286 231.687245 
L 145.937286 230.995511 
L 146.474534 230.995511 
L 146.474534 231.269489 
L 147.011782 231.269489 
L 147.011782 231.407824 
L 147.54903 231.407824 
L 147.54903 229.485667 
L 148.086277 229.485667 
L 148.086277 230.325741 
L 148.623525 230.325741 
L 148.623525 229.296464 
L 149.160773 229.296464 
L 149.160773 225.200551 
L 150.772517 225.148909 
L 150.772517 223.274669 
L 151.309764 223.274669 
L 151.309764 219.09287 
L 151.847012 219.09287 
L 151.847012 215.053958 
L 152.38426 215.053958 
L 152.38426 213.218367 
L 152.921508 213.218367 
L 152.921508 213.51342 
L 153.458756 213.51342 
L 153.458756 214.393179 
L 153.996004 214.393179 
L 153.996004 213.903265 
L 154.533252 213.903265 
L 154.533252 215.150067 
L 155.070499 215.150067 
L 155.070499 215.473632 
L 155.607747 215.473632 
L 155.607747 216.785199 
L 156.144995 216.785199 
L 156.144995 218.072811 
L 156.682243 218.072811 
L 156.682243 217.889207 
L 157.219491 217.889207 
L 157.219491 217.099809 
L 157.756739 217.099809 
L 157.756739 217.999178 
L 158.293986 217.999178 
L 158.293986 217.276642 
L 158.831234 217.276642 
L 158.831234 218.183746 
L 159.368482 218.183746 
L 159.368482 222.037416 
L 159.90573 222.037416 
L 159.90573 223.703754 
L 160.442978 223.703754 
L 160.442978 222.532755 
L 160.980226 222.532755 
L 160.980226 220.700962 
L 161.517474 220.700962 
L 161.517474 220.995427 
L 162.054721 220.995427 
L 162.054721 221.165557 
L 162.591969 221.165557 
L 162.591969 220.742777 
L 163.129217 220.742777 
L 163.129217 220.953108 
L 164.203713 220.995427 
L 164.203713 219.09287 
L 164.740961 219.09287 
L 164.740961 219.287304 
L 165.278208 219.287304 
L 165.278208 221.122895 
L 165.815456 221.122895 
L 165.815456 221.72815 
L 166.352704 221.72815 
L 166.352704 222.037416 
L 166.889952 222.037416 
L 166.889952 221.553441 
L 167.4272 221.553441 
L 167.4272 221.037831 
L 168.501696 221.08032 
L 168.501696 221.165557 
L 169.038943 221.165557 
L 169.038943 221.33707 
L 169.576191 221.33707 
L 169.576191 221.037831 
L 170.650687 220.953108 
L 170.650687 220.124082 
L 171.187935 220.124082 
L 171.187935 219.681633 
L 171.725183 219.681633 
L 171.725183 220.246378 
L 172.26243 220.246378 
L 172.26243 220.534523 
L 172.799678 220.534523 
L 172.799678 220.742777 
L 173.336926 220.742777 
L 173.336926 220.287301 
L 173.874174 220.287301 
L 173.874174 220.493118 
L 174.94867 220.493118 
L 174.94867 220.868724 
L 175.485918 220.868724 
L 175.485918 220.493118 
L 176.023165 220.493118 
L 176.023165 220.328304 
L 178.172157 220.246378 
L 178.172157 220.042944 
L 178.709405 220.042944 
L 178.709405 219.801384 
L 179.246652 219.801384 
L 179.246652 218.977064 
L 179.7839 218.977064 
L 179.7839 218.220854 
L 180.321148 218.220854 
L 180.321148 217.9258 
L 180.858396 217.9258 
L 180.858396 216.13604 
L 181.395644 216.13604 
L 181.395644 215.441051 
L 181.932892 215.441051 
L 181.932892 214.42418 
L 182.47014 214.42418 
L 182.47014 215.182201 
L 183.544635 215.117982 
L 183.544635 214.768229 
L 184.619131 214.705256 
L 184.619131 214.611147 
L 185.156379 214.611147 
L 185.156379 213.87302 
L 185.693627 213.87302 
L 185.693627 212.469999 
L 186.230874 212.469999 
L 186.230874 211.529787 
L 186.768122 211.529787 
L 186.768122 207.661007 
L 187.30537 207.661007 
L 187.30537 207.303818 
L 187.842618 207.303818 
L 187.842618 208.722955 
L 188.917114 208.62846 
L 188.917114 208.001455 
L 189.454362 208.001455 
L 189.454362 206.036604 
L 189.991609 206.036604 
L 189.991609 203.878641 
L 190.528857 203.878641 
L 190.528857 203.616808 
L 191.066105 203.616808 
L 191.066105 203.084562 
L 191.603353 203.084562 
L 191.603353 201.92108 
L 192.140601 201.92108 
L 192.140601 197.220508 
L 192.677849 197.220508 
L 192.677849 205.359669 
L 193.215096 205.359669 
L 193.215096 205.767334 
L 193.752344 205.767334 
L 193.752344 204.296773 
L 194.289592 204.296773 
L 194.289592 204.010786 
L 194.82684 204.010786 
L 194.82684 205.542144 
L 195.364088 205.542144 
L 195.364088 205.07892 
L 195.901336 205.07892 
L 195.901336 203.766029 
L 196.438584 203.766029 
L 196.438584 204.010786 
L 196.975831 204.010786 
L 196.975831 203.376553 
L 197.513079 203.376553 
L 197.513079 202.477185 
L 198.050327 202.477185 
L 198.050327 201.36255 
L 198.587575 201.36255 
L 198.587575 201.750262 
L 199.124823 201.750262 
L 199.124823 202.024239 
L 199.662071 202.024239 
L 199.662071 201.64843 
L 200.199318 201.64843 
L 200.199318 201.446231 
L 200.736566 201.446231 
L 200.736566 200.640126 
L 201.273814 200.640126 
L 201.273814 201.446231 
L 201.811062 201.446231 
L 201.811062 202.162574 
L 202.885558 202.266924 
L 202.885558 202.459583 
L 203.960053 202.54774 
L 203.960053 202.689562 
L 204.497301 202.689562 
L 204.497301 203.230053 
L 205.034549 203.230053 
L 205.034549 204.880648 
L 205.571797 204.880648 
L 205.571797 203.954051 
L 206.109045 203.954051 
L 206.109045 205.019242 
L 206.646293 205.019242 
L 206.646293 204.335199 
L 207.18354 204.335199 
L 207.18354 204.201013 
L 207.720788 204.201013 
L 207.720788 203.954051 
L 208.258036 203.954051 
L 208.258036 203.747318 
L 208.795284 203.747318 
L 208.795284 202.760832 
L 209.332532 202.760832 
L 209.332532 202.618532 
L 209.86978 202.618532 
L 209.86978 201.64843 
L 210.944275 201.580815 
L 210.944275 201.3125 
L 211.481523 201.3125 
L 211.481523 201.163059 
L 212.018771 201.163059 
L 212.018771 199.662409 
L 212.556019 199.662409 
L 212.556019 199.910418 
L 213.093267 199.910418 
L 213.093267 199.493579 
L 214.167762 199.570153 
L 214.167762 200.114094 
L 214.70501 200.114094 
L 214.70501 199.755071 
L 215.242258 199.755071 
L 215.242258 200.035524 
L 216.316754 199.941625 
L 216.316754 199.848142 
L 216.854002 199.848142 
L 216.854002 200.082631 
L 217.39125 200.082631 
L 217.39125 199.894832 
L 217.928497 199.894832 
L 217.928497 199.43252 
L 218.465745 199.43252 
L 218.465745 198.728006 
L 219.540241 198.683825 
L 219.540241 197.002036 
L 220.077489 197.002036 
L 220.077489 196.176204 
L 220.614737 196.176204 
L 220.614737 193.923497 
L 221.151984 193.923497 
L 221.151984 194.230956 
L 221.689232 194.230956 
L 221.689232 191.898966 
L 222.22648 191.898966 
L 222.22648 190.386688 
L 222.763728 190.386688 
L 222.763728 190.646395 
L 223.300976 190.646395 
L 223.300976 189.511613 
L 223.838224 189.511613 
L 223.838224 187.845757 
L 224.375471 187.845757 
L 224.375471 187.557305 
L 224.912719 187.557305 
L 224.912719 185.032081 
L 225.449967 185.032081 
L 225.449967 183.480807 
L 225.987215 183.480807 
L 225.987215 182.749406 
L 227.061711 182.832516 
L 227.061711 180.872382 
L 227.598959 180.872382 
L 227.598959 180.316946 
L 228.136206 180.316946 
L 228.136206 176.013722 
L 228.673454 176.013722 
L 228.673454 173.672331 
L 229.210702 173.672331 
L 229.210702 174.879466 
L 229.74795 174.879466 
L 229.74795 173.685821 
L 230.285198 173.685821 
L 230.285198 171.459539 
L 230.822446 171.459539 
L 230.822446 165.162142 
L 231.359693 165.162142 
L 231.359693 164.663578 
L 231.896941 164.663578 
L 231.896941 160.218797 
L 232.434189 160.218797 
L 232.434189 159.357616 
L 232.971437 159.357616 
L 232.971437 154.339576 
L 233.508685 154.339576 
L 233.508685 150.300636 
L 234.045933 150.300636 
L 234.045933 144.512664 
L 234.583181 144.512664 
L 234.583181 153.02239 
L 235.120428 153.02239 
L 235.120428 157.71294 
L 235.657676 157.71294 
L 235.657676 159.040718 
L 236.194924 159.040718 
L 236.194924 152.587751 
L 236.732172 152.587751 
L 236.732172 150.241336 
L 237.26942 150.241336 
L 237.26942 151.071697 
L 237.806668 151.071697 
L 237.806668 149.941472 
L 238.343915 149.941472 
L 238.343915 157.028013 
L 238.881163 157.028013 
L 238.881163 154.585511 
L 239.418411 154.585511 
L 239.418411 155.069398 
L 239.955659 155.069398 
L 239.955659 154.64015 
L 240.492907 154.64015 
L 240.492907 155.32216 
L 241.030155 155.32216 
L 241.030155 153.290959 
L 241.567403 153.290959 
L 241.567403 153.514527 
L 242.10465 153.514527 
L 242.10465 152.720535 
L 242.641898 152.720535 
L 242.641898 151.617649 
L 243.179146 151.617649 
L 243.179146 151.808134 
L 243.716394 151.808134 
L 243.716394 152.292008 
L 244.253642 152.292008 
L 244.253642 153.618517 
L 244.79089 153.618517 
L 244.79089 155.416549 
L 245.328137 155.416549 
L 245.328137 156.463808 
L 245.865385 156.463808 
L 245.865385 156.905835 
L 246.402633 156.905835 
L 246.402633 157.734047 
L 246.939881 157.734047 
L 246.939881 156.151971 
L 247.477129 156.151971 
L 247.477129 156.021115 
L 248.014377 156.021115 
L 248.014377 156.907866 
L 248.551625 156.907866 
L 248.551625 158.872889 
L 249.088872 158.872889 
L 249.088872 160.650811 
L 249.62612 160.650811 
L 249.62612 162.409829 
L 250.163368 162.409829 
L 250.163368 163.781878 
L 250.700616 163.781878 
L 250.700616 160.433698 
L 251.237864 160.433698 
L 251.237864 158.139137 
L 251.775112 158.139137 
L 251.775112 158.344636 
L 252.312359 158.344636 
L 252.312359 159.471958 
L 253.386855 159.474251 
L 253.386855 158.355508 
L 253.924103 158.355508 
L 253.924103 157.988987 
L 254.461351 157.988987 
L 254.461351 156.443934 
L 254.998599 156.443934 
L 254.998599 156.693712 
L 255.535847 156.693712 
L 255.535847 156.372543 
L 256.073094 156.372543 
L 256.073094 157.130371 
L 256.610342 157.130371 
L 256.610342 156.356711 
L 257.14759 156.356711 
L 257.14759 158.121922 
L 257.684838 158.121922 
L 257.684838 157.861132 
L 258.222086 157.861132 
L 258.222086 155.619973 
L 258.759334 155.619973 
L 258.759334 155.887197 
L 259.296581 155.887197 
L 259.296581 154.271368 
L 259.833829 154.271368 
L 259.833829 153.032527 
L 260.371077 153.032527 
L 260.371077 152.163507 
L 260.908325 152.163507 
L 260.908325 153.409327 
L 261.445573 153.409327 
L 261.445573 154.189094 
L 261.982821 154.189094 
L 261.982821 152.747192 
L 262.520069 152.747192 
L 262.520069 153.166449 
L 263.057316 153.166449 
L 263.057316 150.743199 
L 263.594564 150.743199 
L 263.594564 153.338913 
L 264.66906 153.405887 
L 264.66906 153.064658 
L 265.206308 153.064658 
L 265.206308 152.668982 
L 265.743556 152.668982 
L 265.743556 156.91599 
L 266.280803 156.91599 
L 266.280803 153.656775 
L 266.818051 153.656775 
L 266.818051 153.154548 
L 267.355299 153.154548 
L 267.355299 152.602647 
L 267.892547 152.602647 
L 267.892547 151.355389 
L 268.429795 151.355389 
L 268.429795 150.029225 
L 268.967043 150.029225 
L 268.967043 144.60766 
L 269.504291 144.60766 
L 269.504291 142.703606 
L 270.041538 142.703606 
L 270.041538 145.364631 
L 270.578786 145.364631 
L 270.578786 141.466746 
L 271.116034 141.466746 
L 271.116034 142.776226 
L 271.653282 142.776226 
L 271.653282 140.146486 
L 272.19053 140.146486 
L 272.19053 135.177746 
L 272.727778 135.177746 
L 272.727778 132.654209 
L 273.265025 132.654209 
L 273.265025 128.840139 
L 273.802273 128.840139 
L 273.802273 126.589775 
L 274.339521 126.589775 
L 274.339521 121.864979 
L 274.876769 121.864979 
L 274.876769 113.97733 
L 275.414017 113.97733 
L 275.414017 113.464571 
L 275.951265 113.464571 
L 275.951265 108.842256 
L 276.488513 108.842256 
L 276.488513 110.108754 
L 277.02576 110.108754 
L 277.02576 106.430906 
L 277.563008 106.430906 
L 277.563008 116.48468 
L 278.100256 116.48468 
L 278.100256 109.590538 
L 278.637504 109.590538 
L 278.637504 111.714879 
L 279.174752 111.714879 
L 279.174752 116.965587 
L 279.712 116.965587 
L 279.712 117.109776 
L 280.249247 117.109776 
L 280.249247 119.42364 
L 280.786495 119.42364 
L 280.786495 117.303988 
L 281.323743 117.303988 
L 281.323743 116.214761 
L 281.860991 116.214761 
L 281.860991 115.719048 
L 282.398239 115.719048 
L 282.398239 113.651086 
L 282.935487 113.651086 
L 282.935487 110.995712 
L 283.472735 110.995712 
L 283.472735 113.163202 
L 284.009982 113.163202 
L 284.009982 112.714571 
L 285.084478 112.76988 
L 285.084478 113.55177 
L 285.621726 113.55177 
L 285.621726 113.201534 
L 286.158974 113.201534 
L 286.158974 114.378629 
L 286.696222 114.378629 
L 286.696222 115.275032 
L 287.233469 115.275032 
L 287.233469 113.845066 
L 287.770717 113.845066 
L 287.770717 113.47027 
L 288.307965 113.47027 
L 288.307965 114.352141 
L 288.845213 114.352141 
L 288.845213 117.248759 
L 289.382461 117.248759 
L 289.382461 117.426129 
L 289.919709 117.426129 
L 289.919709 117.576973 
L 290.456957 117.576973 
L 290.456957 118.886066 
L 290.994204 118.886066 
L 290.994204 121.256764 
L 291.531452 121.256764 
L 291.531452 119.52902 
L 292.0687 119.52902 
L 292.0687 120.440536 
L 292.605948 120.440536 
L 292.605948 121.08956 
L 293.143196 121.08956 
L 293.143196 117.483078 
L 293.680444 117.483078 
L 293.680444 118.818195 
L 294.754939 118.907174 
L 294.754939 118.519234 
L 295.292187 118.519234 
L 295.292187 118.718292 
L 295.829435 118.718292 
L 295.829435 119.523842 
L 296.366683 119.523842 
L 296.366683 121.256389 
L 296.903931 121.256389 
L 296.903931 120.419638 
L 297.441179 120.419638 
L 297.441179 123.777141 
L 297.978426 123.777141 
L 297.978426 125.6347 
L 298.515674 125.6347 
L 298.515674 126.043033 
L 299.052922 126.043033 
L 299.052922 125.611196 
L 299.59017 125.611196 
L 299.59017 126.364696 
L 300.127418 126.364696 
L 300.127418 127.269819 
L 300.664666 127.269819 
L 300.664666 122.811499 
L 301.201913 122.811499 
L 301.201913 124.528906 
L 301.739161 124.528906 
L 301.739161 123.828719 
L 302.276409 123.828719 
L 302.276409 123.669739 
L 302.813657 123.669739 
L 302.813657 126.514641 
L 303.350905 126.514641 
L 303.350905 125.887989 
L 303.888153 125.887989 
L 303.888153 126.457028 
L 304.425401 126.457028 
L 304.425401 127.039872 
L 304.962648 127.039872 
L 304.962648 126.029873 
L 305.499896 126.029873 
L 305.499896 126.339888 
L 306.037144 126.339888 
L 306.037144 126.146245 
L 307.11164 126.129244 
L 307.11164 124.016221 
L 307.648888 124.016221 
L 307.648888 122.614371 
L 308.186135 122.614371 
L 308.186135 120.896394 
L 308.723383 120.896394 
L 308.723383 119.178083 
L 309.260631 119.178083 
L 309.260631 117.839511 
L 310.335127 117.856088 
L 310.335127 117.995919 
L 310.872375 117.995919 
L 310.872375 119.053836 
L 311.409623 119.053836 
L 311.409623 120.911871 
L 311.94687 120.911871 
L 311.94687 119.634582 
L 312.484118 119.634582 
L 312.484118 120.144501 
L 313.021366 120.144501 
L 313.021366 120.331232 
L 313.558614 120.331232 
L 313.558614 120.726163 
L 314.095862 120.726163 
L 314.095862 119.914355 
L 314.63311 119.914355 
L 314.63311 118.209526 
L 315.170357 118.209526 
L 315.170357 118.851268 
L 315.707605 118.851268 
L 315.707605 119.053836 
L 316.244853 119.053836 
L 316.244853 118.751208 
L 316.782101 118.751208 
L 316.782101 119.181139 
L 317.319349 119.181139 
L 317.319349 119.025838 
L 318.393845 118.985424 
L 318.393845 119.207644 
L 318.931092 119.207644 
L 318.931092 120.058654 
L 319.46834 120.058654 
L 319.46834 120.430085 
L 320.005588 120.430085 
L 320.005588 120.063611 
L 320.542836 120.063611 
L 320.542836 120.322269 
L 321.080084 120.322269 
L 321.080084 120.447387 
L 321.617332 120.447387 
L 321.617332 120.242124 
L 322.154579 120.242124 
L 322.154579 121.750362 
L 322.691827 121.750362 
L 322.691827 122.776033 
L 323.229075 122.776033 
L 323.229075 124.186453 
L 323.766323 124.186453 
L 323.766323 123.108439 
L 324.303571 123.108439 
L 324.303571 123.694961 
L 324.840819 123.694961 
L 324.840819 123.483195 
L 325.378067 123.483195 
L 325.378067 124.671159 
L 325.915314 124.671159 
L 325.915314 124.864558 
L 326.452562 124.864558 
L 326.452562 124.639465 
L 326.98981 124.639465 
L 326.98981 124.915748 
L 328.064306 124.859223 
L 328.064306 125.028358 
L 328.601554 125.028358 
L 328.601554 127.160976 
L 329.138801 127.160976 
L 329.138801 128.407127 
L 329.676049 128.407127 
L 329.676049 127.254378 
L 330.213297 127.254378 
L 330.213297 128.447132 
L 330.750545 128.447132 
L 330.750545 128.992061 
L 331.287793 128.992061 
L 331.287793 130.754934 
L 331.825041 130.754934 
L 331.825041 132.679308 
L 332.362289 132.679308 
L 332.362289 130.479883 
L 332.899536 130.479883 
L 332.899536 129.505408 
L 333.436784 129.505408 
L 333.436784 128.7416 
L 333.974032 128.7416 
L 333.974032 128.947772 
L 334.51128 128.947772 
L 334.51128 129.225294 
L 335.048528 129.225294 
L 335.048528 130.779047 
L 335.585776 130.779047 
L 335.585776 131.23049 
L 336.123023 131.23049 
L 336.123023 131.569876 
L 336.660271 131.569876 
L 336.660271 132.889632 
L 337.197519 132.889632 
L 337.197519 131.981364 
L 337.734767 131.981364 
L 337.734767 131.469918 
L 338.272015 131.469918 
L 338.272015 130.146033 
L 338.809263 130.146033 
L 338.809263 128.514682 
L 339.346511 128.514682 
L 339.346511 129.063008 
L 339.883758 129.063008 
L 339.883758 130.898254 
L 340.421006 130.898254 
L 340.421006 130.277216 
L 341.495502 130.292161 
L 341.495502 129.79603 
L 342.03275 129.79603 
L 342.03275 129.57088 
L 342.569998 129.57088 
L 342.569998 129.773014 
L 343.107245 129.773014 
L 343.107245 130.515885 
L 343.644493 130.515885 
L 343.644493 131.346842 
L 344.181741 131.346842 
L 344.181741 130.81969 
L 344.718989 130.81969 
L 344.718989 133.08697 
L 345.256237 133.08697 
L 345.256237 132.42902 
L 345.793485 132.42902 
L 345.793485 132.086286 
L 346.330733 132.086286 
L 346.330733 132.529802 
L 346.86798 132.529802 
L 346.86798 133.614779 
L 347.942476 133.52008 
L 347.942476 137.299829 
L 348.479724 137.299829 
L 348.479724 134.678447 
L 349.016972 134.678447 
L 349.016972 136.297939 
L 349.55422 136.297939 
L 349.55422 140.888738 
L 350.091467 140.888738 
L 350.091467 142.249735 
L 350.628715 142.249735 
L 350.628715 141.46577 
L 351.165963 141.46577 
L 351.165963 139.822388 
L 351.703211 139.822388 
L 351.703211 138.021457 
L 352.240459 138.021457 
L 352.240459 139.580755 
L 352.777707 139.580755 
L 352.777707 141.151694 
L 353.314955 141.151694 
L 353.314955 140.369677 
L 353.852202 140.369677 
L 353.852202 140.854556 
L 354.38945 140.854556 
L 354.38945 141.086367 
L 354.926698 141.086367 
L 354.926698 140.857402 
L 355.463946 140.857402 
L 355.463946 139.761945 
L 356.001194 139.761945 
L 356.001194 139.470295 
L 356.538442 139.470295 
L 356.538442 138.773804 
L 357.075689 138.773804 
L 357.075689 139.249337 
L 357.612937 139.249337 
L 357.612937 138.205579 
L 358.150185 138.205579 
L 358.150185 136.305585 
L 358.687433 136.305585 
L 358.687433 136.517707 
L 359.224681 136.517707 
L 359.224681 136.372219 
L 359.761929 136.372219 
L 359.761929 134.779927 
L 360.299177 134.779927 
L 360.299177 135.826995 
L 360.836424 135.826995 
L 360.836424 135.657237 
L 361.373672 135.657237 
L 361.373672 137.385776 
L 361.91092 137.385776 
L 361.91092 137.074977 
L 362.448168 137.074977 
L 362.448168 138.447958 
L 362.985416 138.447958 
L 362.985416 139.039373 
L 363.522664 139.039373 
L 363.522664 138.681168 
L 364.059911 138.681168 
L 364.059911 138.075444 
L 365.134407 138.056325 
L 365.134407 139.598625 
L 365.671655 139.598625 
L 365.671655 140.792978 
L 366.208903 140.792978 
L 366.208903 140.372459 
L 366.746151 140.372459 
L 366.746151 140.830851 
L 367.283399 140.830851 
L 367.283399 139.815162 
L 367.820646 139.815162 
L 367.820646 140.484961 
L 368.895142 140.586822 
L 368.895142 140.053116 
L 369.43239 140.053116 
L 369.43239 139.398451 
L 371.044133 139.322439 
L 371.044133 139.601307 
L 372.118629 139.542384 
L 372.118629 140.013878 
L 372.655877 140.013878 
L 372.655877 139.349807 
L 373.193125 139.349807 
L 373.193125 139.635307 
L 374.267621 139.55933 
L 374.267621 140.294709 
L 374.804868 140.294709 
L 374.804868 140.568095 
L 375.879364 140.606504 
L 375.879364 140.244879 
L 376.95386 140.17862 
L 376.95386 139.598625 
L 377.491108 139.598625 
L 377.491108 138.530223 
L 378.028355 138.530223 
L 378.028355 138.934303 
L 378.565603 138.934303 
L 378.565603 139.22649 
L 379.102851 139.22649 
L 379.102851 138.281024 
L 379.640099 138.281024 
L 379.640099 137.359231 
L 380.177347 137.359231 
L 380.177347 137.872672 
L 380.714595 137.872672 
L 380.714595 136.874482 
L 381.78909 136.837591 
L 381.78909 133.8075 
L 382.326338 133.8075 
L 382.326338 135.569914 
L 382.863586 135.569914 
L 382.863586 136.23916 
L 383.938082 136.237635 
L 383.938082 135.324686 
L 384.47533 135.324686 
L 384.47533 134.967848 
L 385.012577 134.967848 
L 385.012577 135.364872 
L 385.549825 135.364872 
L 385.549825 135.82251 
L 386.624321 135.916893 
L 386.624321 137.37612 
L 387.161569 137.37612 
L 387.161569 136.682881 
L 387.698817 136.682881 
L 387.698817 137.079736 
L 388.236065 137.079736 
L 388.236065 137.82824 
L 388.773312 137.82824 
L 388.773312 139.660394 
L 389.31056 139.660394 
L 389.31056 140.313195 
L 389.847808 140.313195 
L 389.847808 140.601816 
L 390.385056 140.601816 
L 390.385056 140.175864 
L 390.922304 140.175864 
L 390.922304 140.328921 
L 391.459552 140.328921 
L 391.459552 140.075049 
L 391.996799 140.075049 
L 391.996799 139.20279 
L 392.534047 139.20279 
L 392.534047 139.348923 
L 393.071295 139.348923 
L 393.071295 140.141899 
L 393.608543 140.141899 
L 393.608543 140.295633 
L 394.145791 140.295633 
L 394.145791 140.118981 
L 395.220286 140.103411 
L 395.220286 139.668464 
L 395.757534 139.668464 
L 395.757534 139.319792 
L 397.369278 139.385173 
L 397.369278 138.981129 
L 397.906526 138.981129 
L 397.906526 138.747172 
L 398.443774 138.747172 
L 398.443774 138.38457 
L 398.981021 138.38457 
L 398.981021 137.372902 
L 400.055517 137.266188 
L 400.055517 136.422142 
L 400.592765 136.422142 
L 400.592765 135.782189 
L 401.130013 135.782189 
L 401.130013 134.202457 
L 401.667261 134.202457 
L 401.667261 133.832649 
L 402.204508 133.832649 
L 402.204508 128.231686 
L 402.741756 128.231686 
L 402.741756 129.903019 
L 403.279004 129.903019 
L 403.279004 129.515382 
L 403.816252 129.515382 
L 403.816252 131.84599 
L 404.3535 131.84599 
L 404.3535 133.243137 
L 404.890748 133.243137 
L 404.890748 132.29328 
L 405.427996 132.29328 
L 405.427996 132.763186 
L 405.965243 132.763186 
L 405.965243 133.198871 
L 406.502491 133.198871 
L 406.502491 130.807902 
L 407.039739 130.807902 
L 407.039739 129.701879 
L 407.576987 129.701879 
L 407.576987 130.604408 
L 408.114235 130.604408 
L 408.114235 129.148352 
L 408.651483 129.148352 
L 408.651483 127.615457 
L 409.18873 127.615457 
L 409.18873 126.640012 
L 409.725978 126.640012 
L 409.725978 125.337533 
L 410.800474 125.382139 
L 410.800474 126.536287 
L 411.337722 126.536287 
L 411.337722 125.70352 
L 411.87497 125.70352 
L 411.87497 127.31721 
L 412.412218 127.31721 
L 412.412218 127.029031 
L 412.949465 127.029031 
L 412.949465 126.807041 
L 414.023961 126.823134 
L 414.023961 125.85954 
L 414.561209 125.85954 
L 414.561209 126.077852 
L 415.098457 126.077852 
L 415.098457 126.964104 
L 415.635705 126.964104 
L 415.635705 129.540893 
L 416.172952 129.540893 
L 416.172952 127.420841 
L 416.7102 127.420841 
L 416.7102 129.269074 
L 417.247448 129.269074 
L 417.247448 128.912192 
L 417.784696 128.912192 
L 417.784696 129.651055 
L 418.321944 129.651055 
L 418.321944 129.999208 
L 418.859192 129.999208 
L 418.859192 129.110258 
L 419.39644 129.110258 
L 419.39644 129.829195 
L 419.933687 129.829195 
L 419.933687 129.597571 
L 420.470935 129.597571 
L 420.470935 129.008287 
L 421.008183 129.008287 
L 421.008183 128.101704 
L 421.545431 128.101704 
L 421.545431 127.439419 
L 422.082679 127.439419 
L 422.082679 126.612946 
L 422.619927 126.612946 
L 422.619927 127.265335 
L 423.157174 127.265335 
L 423.157174 126.849494 
L 423.694422 126.849494 
L 423.694422 127.313215 
L 424.23167 127.313215 
L 424.23167 128.51151 
L 424.768918 128.51151 
L 424.768918 127.836439 
L 425.306166 127.836439 
L 425.306166 127.43289 
L 425.843414 127.43289 
L 425.843414 127.691572 
L 426.380662 127.691572 
L 426.380662 127.514396 
L 426.917909 127.514396 
L 426.917909 127.85385 
L 427.455157 127.85385 
L 427.455157 127.54113 
L 430.678644 127.440926 
L 430.678644 127.400776 
L 431.215892 127.400776 
L 431.215892 127.24492 
L 431.75314 127.24492 
L 431.75314 126.913579 
L 432.290388 126.913579 
L 432.290388 126.652107 
L 432.827636 126.652107 
L 432.827636 126.091042 
L 433.364884 126.091042 
L 433.364884 125.404933 
L 433.902131 125.404933 
L 433.902131 125.983879 
L 434.439379 125.983879 
L 434.439379 125.842768 
L 434.976627 125.842768 
L 434.976627 126.131605 
L 435.513875 126.131605 
L 435.513875 125.564266 
L 436.051123 125.564266 
L 436.051123 125.946407 
L 436.588371 125.946407 
L 436.588371 125.711849 
L 437.662866 125.79625 
L 437.662866 126.647268 
L 438.200114 126.647268 
L 438.200114 126.530513 
L 438.737362 126.530513 
L 438.737362 126.043973 
L 439.27461 126.043973 
L 439.27461 122.665183 
L 439.811858 122.665183 
L 439.811858 122.452749 
L 440.349106 122.452749 
L 440.349106 121.074695 
L 440.886353 121.074695 
L 440.886353 120.494317 
L 441.423601 120.494317 
L 441.423601 120.836804 
L 441.960849 120.836804 
L 441.960849 117.717178 
L 442.498097 117.717178 
L 442.498097 116.847293 
L 443.035345 116.847293 
L 443.035345 115.151511 
L 443.572593 115.151511 
L 443.572593 117.761263 
L 444.647088 117.744125 
L 444.647088 118.165466 
L 445.184336 118.165466 
L 445.184336 117.650749 
L 445.721584 117.650749 
L 445.721584 118.000414 
L 446.258832 118.000414 
L 446.258832 117.468044 
L 446.79608 117.468044 
L 446.79608 118.309651 
L 447.333328 118.309651 
L 447.333328 117.759993 
L 448.407823 117.801623 
L 448.407823 117.477439 
L 448.945071 117.477439 
L 448.945071 117.775873 
L 450.019567 117.856088 
L 450.019567 118.051854 
L 451.094062 118.074077 
L 451.094062 122.501583 
L 451.63131 122.501583 
L 451.63131 120.895657 
L 452.168558 120.895657 
L 452.168558 120.208225 
L 452.705806 120.208225 
L 452.705806 120.411717 
L 453.243054 120.411717 
L 453.243054 121.094765 
L 453.780302 121.094765 
L 453.780302 120.962064 
L 454.31755 120.962064 
L 454.31755 120.719587 
L 454.854797 120.719587 
L 454.854797 120.557296 
L 455.392045 120.557296 
L 455.392045 120.710457 
L 455.929293 120.710457 
L 455.929293 120.940643 
L 457.003789 120.959108 
L 457.003789 119.775577 
L 457.541037 119.775577 
L 457.541037 119.381772 
L 458.078284 119.381772 
L 458.078284 119.166202 
L 458.615532 119.166202 
L 458.615532 119.60615 
L 460.227276 119.611695 
L 460.227276 120.123184 
L 460.764524 120.123184 
L 460.764524 119.949897 
L 461.301772 119.949897 
L 461.301772 119.77907 
L 461.839019 119.77907 
L 461.839019 119.462493 
L 462.376267 119.462493 
L 462.376267 119.663053 
L 462.913515 119.663053 
L 462.913515 119.402009 
L 463.988011 119.40098 
L 463.988011 118.750542 
L 464.525259 118.750542 
L 464.525259 118.586478 
L 465.062506 118.586478 
L 465.062506 118.961213 
L 465.599754 118.961213 
L 465.599754 118.120206 
L 466.67425 118.178416 
L 466.67425 117.091007 
L 467.211498 117.091007 
L 467.211498 116.752346 
L 467.748746 116.752346 
L 467.748746 117.159396 
L 468.285994 117.159396 
L 468.285994 116.363992 
L 468.823241 116.363992 
L 468.823241 116.023846 
L 469.360489 116.023846 
L 469.360489 116.593442 
L 469.897737 116.593442 
L 469.897737 116.311463 
L 470.434985 116.311463 
L 470.434985 115.23528 
L 470.972233 115.23528 
L 470.972233 115.576299 
L 472.046728 115.614405 
L 472.046728 115.854647 
L 472.583976 115.854647 
L 472.583976 115.431381 
L 473.121224 115.431381 
L 473.121224 114.844868 
L 474.19572 114.955203 
L 474.19572 114.676601 
L 474.732968 114.676601 
L 474.732968 114.433603 
L 475.807463 114.490896 
L 475.807463 114.145974 
L 476.344711 114.145974 
L 476.344711 112.942494 
L 476.881959 112.942494 
L 476.881959 111.534489 
L 477.419207 111.534489 
L 477.419207 110.660872 
L 477.956455 110.660872 
L 477.956455 110.040166 
L 478.493703 110.040166 
L 478.493703 108.856407 
L 479.03095 108.856407 
L 479.03095 109.145017 
L 479.568198 109.145017 
L 479.568198 111.115853 
L 480.105446 111.115853 
L 480.105446 114.354302 
L 480.642694 114.354302 
L 480.642694 113.335731 
L 481.179942 113.335731 
L 481.179942 111.206177 
L 481.71719 111.206177 
L 481.71719 111.462763 
L 482.254438 111.462763 
L 482.254438 110.897338 
L 482.791685 110.897338 
L 482.791685 111.010462 
L 483.866181 111.076501 
L 483.866181 109.490336 
L 484.403429 109.490336 
L 484.403429 108.430864 
L 484.940677 108.430864 
L 484.940677 108.051373 
L 485.477925 108.051373 
L 485.477925 109.188535 
L 486.55242 109.112332 
L 486.55242 108.407824 
L 487.089668 108.407824 
L 487.089668 108.090883 
L 487.626916 108.090883 
L 487.626916 106.559144 
L 488.164164 106.559144 
L 488.164164 106.18243 
L 488.701412 106.18243 
L 488.701412 105.452143 
L 489.23866 105.452143 
L 489.23866 103.81482 
L 489.775907 103.81482 
L 489.775907 103.938117 
L 490.313155 103.938117 
L 490.313155 105.430897 
L 490.850403 105.430897 
L 490.850403 104.810292 
L 491.387651 104.810292 
L 491.387651 104.31239 
L 491.924899 104.31239 
L 491.924899 109.830498 
L 492.462147 109.830498 
L 492.462147 106.879115 
L 492.999394 106.879115 
L 492.999394 110.715591 
L 493.536642 110.715591 
L 493.536642 108.289147 
L 494.07389 108.289147 
L 494.07389 108.4172 
L 494.611138 108.4172 
L 494.611138 107.514258 
L 495.148386 107.514258 
L 495.148386 106.493532 
L 495.685634 106.493532 
L 495.685634 105.574016 
L 496.222882 105.574016 
L 496.222882 104.958418 
L 496.760129 104.958418 
L 496.760129 105.818993 
L 497.297377 105.818993 
L 497.297377 105.700181 
L 497.834625 105.700181 
L 497.834625 104.657057 
L 498.909121 104.585359 
L 498.909121 103.798108 
L 499.446369 103.798108 
L 499.446369 103.073969 
L 499.983616 103.073969 
L 499.983616 101.334807 
L 500.520864 101.334807 
L 500.520864 100.32188 
L 501.058112 100.32188 
L 501.058112 98.559223 
L 501.59536 98.559223 
L 501.59536 96.400521 
L 502.132608 96.400521 
L 502.132608 96.973403 
L 503.207104 96.926286 
L 503.207104 94.421969 
L 503.744351 94.421969 
L 503.744351 91.971085 
L 504.281599 91.971085 
L 504.281599 91.752502 
L 505.356095 91.658328 
L 505.356095 90.581649 
L 505.893343 90.581649 
L 505.893343 89.559848 
L 506.430591 89.559848 
L 506.430591 88.317015 
L 506.967838 88.317015 
L 506.967838 86.686475 
L 507.505086 86.686475 
L 507.505086 88.137176 
L 508.042334 88.137176 
L 508.042334 89.994551 
L 508.579582 89.994551 
L 508.579582 88.980174 
L 509.11683 88.980174 
L 509.11683 88.078943 
L 509.654078 88.078943 
L 509.654078 89.790451 
L 510.191326 89.790451 
L 510.191326 89.321264 
L 510.728573 89.321264 
L 510.728573 90.482701 
L 511.265821 90.482701 
L 511.265821 88.989182 
L 511.803069 88.989182 
L 511.803069 89.783454 
L 512.340317 89.783454 
L 512.340317 91.319569 
L 513.414813 91.216476 
L 513.414813 95.475749 
L 513.95206 95.475749 
L 513.95206 91.888129 
L 514.489308 91.888129 
L 514.489308 87.225464 
L 515.026556 87.225464 
L 515.026556 89.271845 
L 515.563804 89.271845 
L 515.563804 87.531626 
L 516.101052 87.531626 
L 516.101052 86.948131 
L 516.6383 86.948131 
L 516.6383 87.492271 
L 517.175548 87.492271 
L 517.175548 84.53268 
L 517.712795 84.53268 
L 517.712795 83.694718 
L 518.250043 83.694718 
L 518.250043 80.59746 
L 518.787291 80.59746 
L 518.787291 78.963954 
L 519.324539 78.963954 
L 519.324539 79.347247 
L 519.861787 79.347247 
L 519.861787 79.964866 
L 520.399035 79.964866 
L 520.399035 78.211415 
L 521.47353 78.17599 
L 521.47353 77.024284 
L 522.548026 77.010247 
L 522.548026 77.953665 
L 523.085274 77.953665 
L 523.085274 78.306644 
L 523.622522 78.306644 
L 523.622522 78.870189 
L 524.15977 78.870189 
L 524.15977 84.491779 
L 524.697017 84.491779 
L 524.697017 81.659829 
L 525.234265 81.659829 
L 525.234265 80.456367 
L 525.771513 80.456367 
L 525.771513 81.099077 
L 526.308761 81.099077 
L 526.308761 80.529513 
L 526.846009 80.529513 
L 526.846009 79.04334 
L 527.383257 79.04334 
L 527.383257 77.910171 
L 527.920504 77.910171 
L 527.920504 78.275749 
L 528.457752 78.275749 
L 528.457752 76.918025 
L 528.995 76.918025 
L 528.995 75.948916 
L 529.532248 75.948916 
L 529.532248 71.959561 
L 530.069496 71.959561 
L 530.069496 72.814294 
L 530.606744 72.814294 
L 530.606744 71.386426 
L 531.143992 71.386426 
L 531.143992 71.691149 
L 532.218487 71.729689 
L 532.218487 70.864174 
L 532.755735 70.864174 
L 532.755735 68.847759 
L 533.292983 68.847759 
L 533.292983 67.011613 
L 533.830231 67.011613 
L 533.830231 67.70257 
L 534.367479 67.70257 
L 534.367479 69.426647 
L 534.904726 69.426647 
L 534.904726 69.670799 
L 535.441974 69.670799 
L 535.441974 65.618681 
L 535.979222 65.618681 
L 535.979222 65.139052 
L 536.51647 65.139052 
L 536.51647 64.654585 
L 537.053718 64.654585 
L 537.053718 63.334023 
L 537.590966 63.334023 
L 537.590966 60.733897 
L 538.128214 60.733897 
L 538.128214 58.783297 
L 538.665461 58.783297 
L 538.665461 57.447231 
L 539.202709 57.447231 
L 539.202709 49.541546 
L 539.739957 49.541546 
L 539.739957 51.911888 
L 540.277205 51.911888 
L 540.277205 50.317058 
L 540.814453 50.317058 
L 540.814453 46.713271 
L 541.351701 46.713271 
L 541.351701 48.898264 
L 541.888948 48.898264 
L 541.888948 53.803441 
L 542.963444 53.858133 
L 542.963444 53.144067 
L 543.500692 53.144067 
L 543.500692 53.77377 
L 544.03794 53.77377 
L 544.03794 51.953522 
L 544.575188 51.953522 
L 544.575188 49.175554 
L 545.112436 49.175554 
L 545.112436 52.815068 
L 545.649683 52.815068 
L 545.649683 53.781126 
L 546.186931 53.781126 
L 546.186931 54.146887 
L 546.724179 54.146887 
L 546.724179 58.219025 
L 547.261427 58.219025 
L 547.261427 57.589304 
L 547.798675 57.589304 
L 547.798675 57.812907 
L 548.87317 57.740182 
L 548.87317 60.388954 
L 549.410418 60.388954 
L 549.410418 63.133064 
L 549.947666 63.133064 
L 549.947666 68.312581 
L 550.484914 68.312581 
L 550.484914 64.633184 
L 551.022162 64.633184 
L 551.022162 65.091147 
L 551.55941 65.091147 
L 551.55941 61.707478 
L 552.096658 61.707478 
L 552.096658 58.387694 
L 552.633905 58.387694 
L 552.633905 58.085114 
L 553.171153 58.085114 
L 553.171153 60.20401 
L 553.708401 60.20401 
L 553.708401 59.898932 
L 554.245649 59.898932 
L 554.245649 58.684176 
L 554.782897 58.684176 
L 554.782897 57.583057 
L 555.320145 57.583057 
L 555.320145 60.730792 
L 555.857392 60.730792 
L 555.857392 63.313415 
L 556.39464 63.313415 
L 556.39464 62.428146 
L 556.931888 62.428146 
L 556.931888 64.498494 
L 557.469136 64.498494 
L 557.469136 63.730251 
L 558.006384 63.730251 
L 558.006384 63.438767 
L 558.543632 63.438767 
L 558.543632 64.095419 
L 559.08088 64.095419 
L 559.08088 65.400403 
L 559.618127 65.400403 
L 559.618127 68.275755 
L 560.155375 68.275755 
L 560.155375 66.839079 
L 560.692623 66.839079 
L 560.692623 69.217473 
L 561.229871 69.217473 
L 561.229871 68.746676 
L 561.767119 68.746676 
L 561.767119 65.424695 
L 562.304367 65.424695 
L 562.304367 64.320748 
L 562.841614 64.320748 
L 562.841614 64.810781 
L 563.378862 64.810781 
L 563.378862 62.948312 
L 563.91611 62.948312 
L 563.91611 61.296193 
L 564.453358 61.296193 
L 564.453358 62.953155 
L 564.990606 62.953155 
L 564.990606 62.230846 
L 565.527854 62.230846 
L 565.527854 61.089181 
L 566.065101 61.089181 
L 566.065101 61.354528 
L 566.602349 61.354528 
L 566.602349 62.069764 
L 567.139597 62.069764 
L 567.139597 64.081555 
L 568.214093 64.06277 
L 568.214093 64.648541 
L 568.751341 64.648541 
L 568.751341 64.248946 
L 569.288589 64.248946 
L 569.288589 66.416393 
L 569.825836 66.416393 
L 569.825836 67.073077 
L 570.363084 67.073077 
L 570.363084 66.952326 
L 570.900332 66.952326 
L 570.900332 66.248999 
L 572.512076 66.308749 
L 572.512076 68.453631 
L 573.049323 68.453631 
L 573.049323 69.208795 
L 573.586571 69.208795 
L 573.586571 69.826794 
L 574.123819 69.826794 
L 574.123819 68.820126 
L 574.661067 68.820126 
L 574.661067 70.747714 
L 575.198315 70.747714 
L 575.198315 70.998779 
L 575.735563 70.998779 
L 575.735563 70.567898 
L 576.272811 70.567898 
L 576.272811 69.24369 
L 576.810058 69.24369 
L 576.810058 69.47072 
L 577.347306 69.47072 
L 577.347306 68.935236 
L 577.884554 68.935236 
L 577.884554 69.966712 
L 578.421802 69.966712 
L 578.421802 70.481431 
L 578.95905 70.481431 
L 578.95905 67.139072 
L 580.033545 67.100583 
L 580.033545 66.034742 
L 580.570793 66.034742 
L 580.570793 65.429079 
L 581.108041 65.429079 
L 581.108041 64.695116 
L 581.645289 64.695116 
L 581.645289 66.330478 
L 582.182537 66.330478 
L 582.182537 68.052767 
L 582.719785 68.052767 
L 582.719785 68.953472 
L 583.257033 68.953472 
L 583.257033 70.855684 
L 583.79428 70.855684 
L 583.79428 70.470327 
L 584.331528 70.470327 
L 584.331528 70.266767 
L 584.868776 70.266767 
L 584.868776 69.693715 
L 585.406024 69.693715 
L 585.406024 70.127474 
L 585.943272 70.127474 
L 585.943272 68.890638 
L 586.48052 68.890638 
L 586.48052 67.852399 
L 587.017767 67.852399 
L 587.017767 68.030213 
L 587.555015 68.030213 
L 587.555015 67.302614 
L 588.092263 67.302614 
L 588.092263 69.646253 
L 588.629511 69.646253 
L 588.629511 70.507983 
L 589.166759 70.507983 
L 589.166759 70.222402 
L 589.704007 70.222402 
L 589.704007 69.577573 
L 590.241255 69.577573 
L 590.241255 70.167948 
L 590.778502 70.167948 
L 590.778502 68.834827 
L 591.31575 68.834827 
L 591.31575 69.380999 
L 591.852998 69.380999 
L 591.852998 69.054669 
L 592.390246 69.054669 
L 592.390246 69.292838 
L 592.927494 69.292838 
L 592.927494 69.702986 
L 593.464742 69.702986 
L 593.464742 69.412522 
L 594.001989 69.412522 
L 594.001989 69.242385 
L 594.539237 69.242385 
L 594.539237 70.487643 
L 595.076485 70.487643 
L 595.076485 69.330686 
L 595.613733 69.330686 
L 595.613733 69.618949 
L 597.225477 69.683343 
L 597.225477 69.789451 
L 597.762724 69.789451 
L 597.762724 70.304028 
L 598.299972 70.304028 
L 598.299972 70.008793 
L 598.83722 70.008793 
L 598.83722 69.853091 
L 600.448964 69.949093 
L 600.448964 72.211709 
L 600.986211 72.211709 
L 600.986211 72.898247 
L 601.523459 72.898247 
L 601.523459 77.445264 
L 602.060707 77.445264 
L 602.060707 78.108373 
L 602.597955 78.108373 
L 602.597955 81.011416 
L 603.135203 81.011416 
L 603.135203 78.47112 
L 603.672451 78.47112 
L 603.672451 79.163593 
L 604.209699 79.163593 
L 604.209699 81.282146 
L 604.746946 81.282146 
L 604.746946 82.990536 
L 605.284194 82.990536 
L 605.284194 83.275758 
L 605.821442 83.275758 
L 605.821442 84.322 
L 606.35869 84.322 
L 606.35869 82.371292 
L 606.895938 82.371292 
L 606.895938 79.191175 
L 607.433186 79.191175 
L 607.433186 79.917871 
L 607.970433 79.917871 
L 607.970433 80.708507 
L 608.507681 80.708507 
L 608.507681 81.139659 
L 609.044929 81.139659 
L 609.044929 80.666502 
L 610.119425 80.662454 
L 610.119425 79.722978 
L 610.656673 79.722978 
L 610.656673 81.845768 
L 611.193921 81.845768 
L 611.193921 82.517597 
L 611.731168 82.517597 
L 611.731168 81.989859 
L 612.268416 81.989859 
L 612.268416 81.514378 
L 612.805664 81.514378 
L 612.805664 82.189326 
L 613.88016 82.24562 
L 613.88016 83.021589 
L 615.491903 82.976125 
L 615.491903 83.285543 
L 616.029151 83.285543 
L 616.029151 81.741134 
L 616.566399 81.741134 
L 616.566399 81.925936 
L 617.103647 81.925936 
L 617.103647 82.067069 
L 617.640895 82.067069 
L 617.640895 80.368148 
L 618.178143 80.368148 
L 618.178143 80.185107 
L 618.71539 80.185107 
L 618.71539 81.159083 
L 619.252638 81.159083 
L 619.252638 80.790788 
L 620.327134 80.800642 
L 620.327134 80.577129 
L 622.476125 80.506641 
L 622.476125 79.919191 
L 623.013373 79.919191 
L 623.013373 79.597007 
L 623.550621 79.597007 
L 623.550621 79.82961 
L 624.087869 79.82961 
L 624.087869 80.169818 
L 624.625117 80.169818 
L 624.625117 79.291608 
L 625.162365 79.291608 
L 625.162365 79.102898 
L 625.699612 79.102898 
L 625.699612 75.562809 
L 626.23686 75.562809 
L 626.23686 74.400637 
L 626.774108 74.400637 
L 626.774108 73.915227 
L 627.311356 73.915227 
L 627.311356 74.914051 
L 627.848604 74.914051 
L 627.848604 74.371144 
L 628.385852 74.371144 
L 628.385852 74.047296 
L 628.923099 74.047296 
L 628.923099 73.650679 
L 629.460347 73.650679 
L 629.460347 74.375366 
L 629.997595 74.375366 
L 629.997595 73.950574 
L 631.072091 73.849818 
L 631.072091 72.159334 
L 632.146587 72.215557 
L 632.146587 70.14923 
L 632.683834 70.14923 
L 632.683834 65.741451 
L 633.221082 65.741451 
L 633.221082 65.572645 
L 633.75833 65.572645 
L 633.75833 64.765057 
L 634.295578 64.765057 
L 634.295578 66.279987 
L 634.832826 66.279987 
L 634.832826 65.082181 
L 635.370074 65.082181 
L 635.370074 63.452044 
L 635.907321 63.452044 
L 635.907321 63.857692 
L 636.444569 63.857692 
L 636.444569 64.916941 
L 636.981817 64.916941 
L 636.981817 65.795128 
L 637.519065 65.795128 
L 637.519065 66.239416 
L 638.056313 66.239416 
L 638.056313 64.818265 
L 638.593561 64.818265 
L 638.593561 63.117009 
L 639.130809 63.117009 
L 639.130809 62.607194 
L 639.668056 62.607194 
L 639.668056 60.125177 
L 640.205304 60.125177 
L 640.205304 58.518126 
L 640.742552 58.518126 
L 640.742552 58.298406 
L 641.2798 58.298406 
L 641.2798 59.060741 
L 641.817048 59.060741 
L 641.817048 56.742879 
L 642.354296 56.742879 
L 642.354296 58.11128 
L 642.891543 58.11128 
L 642.891543 55.708939 
L 643.428791 55.708939 
L 643.428791 57.063537 
L 643.966039 57.063537 
L 643.966039 58.795671 
L 644.503287 58.795671 
L 644.503287 59.256481 
L 645.577783 59.358155 
L 645.577783 61.048514 
L 646.115031 61.048514 
L 646.115031 61.702244 
L 646.652278 61.702244 
L 646.652278 61.447405 
L 647.189526 61.447405 
L 647.189526 59.47376 
L 647.726774 59.47376 
L 647.726774 57.092116 
L 648.264022 57.092116 
L 648.264022 56.722383 
L 648.80127 56.722383 
L 648.80127 57.491649 
L 649.338518 57.491649 
L 649.338518 60.526575 
L 649.875765 60.526575 
L 649.875765 60.114559 
L 650.413013 60.114559 
L 650.413013 59.015935 
L 650.950261 59.015935 
L 650.950261 59.723142 
L 652.024757 59.815649 
L 652.024757 61.678743 
L 652.562005 61.678743 
L 652.562005 61.053652 
L 653.099253 61.053652 
L 653.099253 59.364632 
L 653.6365 59.364632 
L 653.6365 59.55876 
L 654.173748 59.55876 
L 654.173748 60.350261 
L 654.710996 60.350261 
L 654.710996 59.808279 
L 655.248244 59.808279 
L 655.248244 60.009265 
L 656.32274 59.988211 
L 656.32274 60.492717 
L 656.859987 60.492717 
L 656.859987 64.159693 
L 657.397235 64.159693 
L 657.397235 64.684623 
L 657.934483 64.684623 
L 657.934483 64.434955 
L 658.471731 64.434955 
L 658.471731 64.86369 
L 659.008979 64.86369 
L 659.008979 64.717942 
L 659.546227 64.717942 
L 659.546227 63.776241 
L 660.083475 63.776241 
L 660.083475 64.534448 
L 660.620722 64.534448 
L 660.620722 65.26314 
L 661.15797 65.26314 
L 661.15797 65.375396 
L 661.695218 65.375396 
L 661.695218 65.199309 
L 662.232466 65.199309 
L 662.232466 63.580877 
L 662.769714 63.580877 
L 662.769714 62.278368 
L 663.306962 62.278368 
L 663.306962 62.440964 
L 663.844209 62.440964 
L 663.844209 62.307221 
L 664.381457 62.307221 
L 664.381457 61.995191 
L 664.918705 61.995191 
L 664.918705 63.236549 
L 665.993201 63.255452 
L 665.993201 64.096092 
L 666.530449 64.096092 
L 666.530449 64.810703 
L 667.067697 64.810703 
L 667.067697 66.304511 
L 667.604944 66.304511 
L 667.604944 68.367666 
L 668.142192 68.367666 
L 668.142192 66.564339 
L 669.216688 66.469528 
L 669.216688 67.210794 
L 669.753936 67.210794 
L 669.753936 66.498941 
L 670.291184 66.498941 
L 670.291184 67.093596 
L 670.828431 67.093596 
L 670.828431 67.524227 
L 671.365679 67.524227 
L 671.365679 67.754422 
L 671.902927 67.754422 
L 671.902927 67.246907 
L 672.440175 67.246907 
L 672.440175 67.659526 
L 672.977423 67.659526 
L 672.977423 67.344441 
L 674.589166 67.435092 
L 674.589166 68.255178 
L 675.126414 68.255178 
L 675.126414 67.052952 
L 675.663662 67.052952 
L 675.663662 65.157588 
L 676.738158 65.213165 
L 676.738158 63.157647 
L 677.275406 63.157647 
L 677.275406 63.019914 
L 677.812653 63.019914 
L 677.812653 63.67925 
L 678.349901 63.67925 
L 678.349901 64.270363 
L 678.887149 64.270363 
L 678.887149 63.772507 
L 679.424397 63.772507 
L 679.424397 62.139123 
L 679.961645 62.139123 
L 679.961645 61.916876 
L 680.498893 61.916876 
L 680.498893 62.408335 
L 681.036141 62.408335 
L 681.036141 60.972295 
L 682.110636 60.870905 
L 682.110636 60.056995 
L 682.647884 60.056995 
L 682.647884 60.694227 
L 683.185132 60.694227 
L 683.185132 61.413135 
L 683.72238 61.413135 
L 683.72238 61.271045 
L 684.259628 61.271045 
L 684.259628 62.072529 
L 684.796875 62.072529 
L 684.796875 63.470269 
L 685.334123 63.470269 
L 685.334123 62.990354 
L 685.871371 62.990354 
L 685.871371 62.627635 
L 686.408619 62.627635 
L 686.408619 65.166167 
L 686.945867 65.166167 
L 686.945867 65.437476 
L 687.483115 65.437476 
L 687.483115 74.494876 
L 688.020363 74.494876 
L 688.020363 73.727636 
L 688.55761 73.727636 
L 688.55761 70.557189 
L 689.094858 70.557189 
L 689.094858 69.643106 
L 689.632106 69.643106 
L 689.632106 68.811016 
L 690.169354 68.811016 
L 690.169354 71.745491 
L 690.706602 71.745491 
L 690.706602 69.159714 
L 691.24385 69.159714 
L 691.24385 68.477012 
L 691.781097 68.477012 
L 691.781097 67.476187 
L 692.318345 67.476187 
L 692.318345 68.472254 
L 693.392841 68.520128 
L 693.392841 67.75107 
L 695.004585 67.695616 
L 695.004585 66.49243 
L 695.541832 66.49243 
L 695.541832 65.89784 
L 696.07908 65.89784 
L 696.07908 63.200061 
L 696.616328 63.200061 
L 696.616328 63.054097 
L 697.153576 63.054097 
L 697.153576 60.557093 
L 697.690824 60.557093 
L 697.690824 63.36855 
L 698.228072 63.36855 
L 698.228072 62.079827 
L 698.765319 62.079827 
L 698.765319 61.899764 
L 699.302567 61.899764 
L 699.302567 61.019239 
L 699.839815 61.019239 
L 699.839815 62.396549 
L 700.377063 62.396549 
L 700.377063 63.021526 
L 700.914311 63.021526 
L 700.914311 61.491274 
L 701.451559 61.491274 
L 701.451559 61.753856 
L 701.988807 61.753856 
L 701.988807 61.296345 
L 703.063302 61.269299 
L 703.063302 61.042081 
L 703.60055 61.042081 
L 703.60055 61.733486 
L 704.675046 61.80781 
L 704.675046 61.912512 
L 705.212294 61.912512 
L 705.212294 62.127828 
L 706.286789 62.146467 
L 706.286789 62.775095 
L 706.824037 62.775095 
L 706.824037 62.473297 
L 707.361285 62.473297 
L 707.361285 62.615935 
L 707.898533 62.615935 
L 707.898533 61.982618 
L 708.435781 61.982618 
L 708.435781 62.234294 
L 708.973029 62.234294 
L 708.973029 62.102577 
L 709.510276 62.102577 
L 709.510276 62.336228 
L 710.584772 62.379412 
L 710.584772 61.884126 
L 711.12202 61.884126 
L 711.12202 61.530839 
L 711.659268 61.530839 
L 711.659268 58.470502 
L 712.196516 58.470502 
L 712.196516 58.33239 
L 713.271011 58.403038 
L 713.271011 57.15971 
L 714.345507 57.128637 
L 714.345507 57.812166 
L 714.882755 57.812166 
L 714.882755 57.116486 
L 715.420003 57.116486 
L 715.420003 56.205929 
L 715.957251 56.205929 
L 715.957251 56.953288 
L 716.494498 56.953288 
L 716.494498 57.335054 
L 717.031746 57.335054 
L 717.031746 57.67385 
L 718.106242 57.647615 
L 718.106242 56.85143 
L 718.64349 56.85143 
L 718.64349 59.59766 
L 719.180738 59.59766 
L 719.180738 59.800464 
L 720.792481 59.875824 
L 720.792481 58.650796 
L 721.329729 58.650796 
L 721.329729 58.396069 
L 721.866977 58.396069 
L 721.866977 59.468412 
L 722.404225 59.468412 
L 722.404225 59.149119 
L 723.47872 59.150125 
L 723.47872 59.294827 
L 725.090464 59.192647 
L 725.090464 57.979038 
L 725.627712 57.979038 
L 725.627712 57.745959 
L 726.16496 57.745959 
L 726.16496 57.932614 
L 726.702207 57.932614 
L 726.702207 57.145568 
L 727.239455 57.145568 
L 727.239455 55.043318 
L 728.313951 54.967905 
L 728.313951 54.563647 
L 728.851199 54.563647 
L 728.851199 53.751884 
L 729.388447 53.751884 
L 729.388447 53.429014 
L 729.925695 53.429014 
L 729.925695 51.186958 
L 730.462942 51.186958 
L 730.462942 51.55158 
L 731.00019 51.55158 
L 731.00019 50.26098 
L 731.537438 50.26098 
L 731.537438 50.689156 
L 732.074686 50.689156 
L 732.074686 48.399932 
L 732.611934 48.399932 
L 732.611934 47.357816 
L 733.149182 47.357816 
L 733.149182 46.831095 
L 733.686429 46.831095 
L 733.686429 49.196567 
L 734.223677 49.196567 
L 734.223677 46.248119 
L 734.760925 46.248119 
L 734.760925 46.523041 
L 735.835421 46.606573 
L 735.835421 47.522717 
L 736.372669 47.522717 
L 736.372669 47.241162 
L 736.909916 47.241162 
L 736.909916 46.539085 
L 737.447164 46.539085 
L 737.447164 42.853427 
L 737.984412 42.853427 
L 737.984412 43.226034 
L 738.52166 43.226034 
L 738.52166 42.344988 
L 739.058908 42.344988 
L 739.058908 40.205737 
L 739.596156 40.205737 
L 739.596156 38.205781 
L 740.133404 38.205781 
L 740.133404 35.896043 
L 740.670651 35.896043 
L 740.670651 34.716634 
L 741.207899 34.716634 
L 741.207899 30.966513 
L 741.745147 30.966513 
L 741.745147 33.808123 
L 742.282395 33.808123 
L 742.282395 31.765632 
L 742.819643 31.765632 
L 742.819643 33.661405 
L 743.356891 33.661405 
L 743.356891 33.811661 
L 743.894138 33.811661 
L 743.894138 35.958857 
L 744.431386 35.958857 
L 744.431386 35.670317 
L 744.968634 35.670317 
L 744.968634 34.551478 
L 745.505882 34.551478 
L 745.505882 35.043695 
L 746.04313 35.043695 
L 746.04313 32.960558 
L 746.580378 32.960558 
L 746.580378 31.890107 
L 747.117626 31.890107 
L 747.117626 28.889516 
L 747.654873 28.889516 
L 747.654873 27.832004 
L 748.192121 27.832004 
L 748.192121 26.967021 
L 748.729369 26.967021 
L 748.729369 24.250339 
L 749.266617 24.250339 
L 749.266617 24.937918 
L 749.803865 24.937918 
L 749.803865 28.004736 
L 750.341113 28.004736 
L 750.341113 28.778986 
L 750.87836 28.778986 
L 750.87836 26.409046 
L 751.415608 26.409046 
L 751.415608 27.086877 
L 751.952856 27.086877 
L 751.952856 24.644472 
L 752.490104 24.644472 
L 752.490104 23.751937 
L 753.027352 23.751937 
L 753.027352 24.311463 
L 753.5646 24.311463 
L 753.5646 23.600445 
L 754.639095 23.69384 
L 754.639095 25.577057 
L 755.176343 25.577057 
L 755.176343 24.270182 
L 755.713591 24.270182 
L 755.713591 23.214666 
L 756.788087 23.106754 
L 756.788087 23.098615 
L 757.325335 23.098615 
L 757.325335 23.460908 
L 757.862582 23.460908 
L 757.862582 22.775742 
L 758.39983 22.775742 
L 758.39983 21.744453 
L 758.937078 21.744453 
L 758.937078 22.732788 
L 759.474326 22.732788 
L 759.474326 24.028385 
L 760.011574 24.028385 
L 760.011574 26.128638 
L 760.548822 26.128638 
L 760.548822 24.963955 
L 761.08607 24.963955 
L 761.08607 25.149159 
L 761.623317 25.149159 
L 761.623317 23.990135 
L 762.160565 23.990135 
L 762.160565 23.671048 
L 762.697813 23.671048 
L 762.697813 23.14342 
L 763.235061 23.14342 
L 763.235061 23.9382 
L 763.772309 23.9382 
L 763.772309 26.642356 
L 764.309557 26.642356 
L 764.309557 29.50089 
L 764.846804 29.50089 
L 764.846804 30.907427 
L 765.384052 30.907427 
L 765.384052 34.282521 
L 765.9213 34.282521 
L 765.9213 31.70776 
L 766.458548 31.70776 
L 766.458548 34.347491 
L 766.995796 34.347491 
L 766.995796 33.154982 
L 767.533044 33.154982 
L 767.533044 33.027129 
L 768.070292 33.027129 
L 768.070292 35.048749 
L 768.607539 35.048749 
L 768.607539 33.130869 
L 769.144787 33.130869 
L 769.144787 31.815065 
L 769.682035 31.815065 
L 769.682035 32.219569 
L 770.219283 32.219569 
L 770.219283 33.820454 
L 770.756531 33.820454 
L 770.756531 35.731479 
L 771.293779 35.731479 
L 771.293779 36.262796 
L 771.831026 36.262796 
L 771.831026 34.464108 
L 772.368274 34.464108 
L 772.368274 35.034899 
L 772.905522 35.034899 
L 772.905522 33.948442 
L 773.44277 33.948442 
L 773.44277 34.84568 
L 773.980018 34.84568 
L 773.980018 35.048308 
L 774.517266 35.048308 
L 774.517266 35.576681 
L 775.054514 35.576681 
L 775.054514 36.409541 
L 775.591761 36.409541 
L 775.591761 36.819907 
L 776.129009 36.819907 
L 776.129009 35.829033 
L 776.666257 35.829033 
L 776.666257 33.91507 
L 777.203505 33.91507 
L 777.203505 31.31574 
L 777.740753 31.31574 
L 777.740753 30.459746 
L 778.278001 30.459746 
L 778.278001 32.322684 
L 778.815248 32.322684 
L 778.815248 29.876961 
L 779.352496 29.876961 
L 779.352496 28.216282 
L 779.889744 28.216282 
L 779.889744 29.10705 
L 780.426992 29.10705 
L 780.426992 27.889659 
L 780.96424 27.889659 
L 780.96424 28.936722 
L 781.501488 28.936722 
L 781.501488 27.065124 
L 782.038736 27.065124 
L 782.038736 27.583378 
L 782.575983 27.583378 
L 782.575983 27.011371 
L 783.113231 27.011371 
L 783.113231 27.881429 
L 783.650479 27.881429 
L 783.650479 26.894661 
L 784.187727 26.894661 
L 784.187727 25.87614 
L 784.724975 25.87614 
L 784.724975 28.332743 
L 785.262223 28.332743 
L 785.262223 28.764556 
L 785.79947 28.764556 
L 785.79947 27.882617 
L 786.873966 27.796977 
L 786.873966 29.839749 
L 787.411214 29.839749 
L 787.411214 28.884445 
L 787.948462 28.884445 
L 787.948462 29.701989 
L 788.48571 29.701989 
L 788.48571 30.529074 
L 789.022958 30.529074 
L 789.022958 27.591103 
L 789.560205 27.591103 
L 789.560205 25.98368 
L 790.097453 25.98368 
L 790.097453 25.037976 
L 790.634701 25.037976 
L 790.634701 23.678838 
L 791.709197 23.698775 
L 791.709197 22.226627 
L 792.246445 22.226627 
L 792.246445 20.732418 
L 792.783692 20.732418 
L 792.783692 22.319009 
L 793.32094 22.319009 
L 793.32094 22.642373 
L 793.858188 22.642373 
L 793.858188 21.987038 
L 794.395436 21.987038 
L 794.395436 22.404485 
L 794.932684 22.404485 
L 794.932684 22.262435 
L 795.469932 22.262435 
L 795.469932 21.636151 
L 796.00718 21.636151 
L 796.00718 21.082361 
L 796.544427 21.082361 
L 796.544427 21.263585 
L 797.081675 21.263585 
L 797.081675 22.702907 
L 797.618923 22.702907 
L 797.618923 23.430247 
L 798.156171 23.430247 
L 798.156171 24.105578 
L 798.693419 24.105578 
L 798.693419 23.141043 
L 799.230667 23.141043 
L 799.230667 23.737572 
L 800.305162 23.760605 
L 800.305162 26.926824 
L 800.84241 26.926824 
L 800.84241 26.339072 
L 801.379658 26.339072 
L 801.379658 27.853354 
L 801.916906 27.853354 
L 801.916906 28.024276 
L 802.454154 28.024276 
L 802.454154 27.6215 
L 802.991402 27.6215 
L 802.991402 28.054893 
L 803.528649 28.054893 
L 803.528649 27.196453 
L 804.065897 27.196453 
L 804.065897 26.411892 
L 804.603145 26.411892 
L 804.603145 27.646799 
L 805.140393 27.646799 
L 805.140393 28.254517 
L 806.214889 28.166925 
L 806.214889 29.7323 
L 806.752136 29.7323 
L 806.752136 30.355997 
L 807.289384 30.355997 
L 807.289384 29.341921 
L 807.826632 29.341921 
L 807.826632 29.719632 
L 808.36388 29.719632 
L 808.36388 30.097051 
L 808.901128 30.097051 
L 808.901128 33.259846 
L 809.438376 33.259846 
L 809.438376 33.145674 
L 809.975624 33.145674 
L 809.975624 32.878187 
L 810.512871 32.878187 
L 810.512871 32.444384 
L 811.050119 32.444384 
L 811.050119 33.011595 
L 811.587367 33.011595 
L 811.587367 30.573296 
L 812.124615 30.573296 
L 812.124615 29.242607 
L 812.661863 29.242607 
L 812.661863 30.087202 
L 813.736358 29.997999 
L 813.736358 31.020819 
L 814.273606 31.020819 
L 814.273606 32.18797 
L 814.810854 32.18797 
L 814.810854 32.79621 
L 815.348102 32.79621 
L 815.348102 31.795046 
L 815.88535 31.795046 
L 815.88535 29.106552 
L 816.422598 29.106552 
L 816.422598 31.774911 
L 816.959846 31.774911 
L 816.959846 32.381122 
L 817.497093 32.381122 
L 817.497093 31.615634 
L 818.034341 31.615634 
L 818.034341 32.499105 
L 818.571589 32.499105 
L 818.571589 30.727796 
L 819.108837 30.727796 
L 819.108837 30.176424 
L 820.183333 30.101436 
L 820.183333 29.146722 
L 820.72058 29.146722 
L 820.72058 27.862992 
L 821.257828 27.862992 
L 821.257828 28.581041 
L 821.795076 28.581041 
L 821.795076 28.174408 
L 822.332324 28.174408 
L 822.332324 29.698301 
L 822.869572 29.698301 
L 822.869572 29.895817 
L 823.40682 29.895817 
L 823.40682 31.263243 
L 823.944068 31.263243 
L 823.944068 31.020554 
L 824.481315 31.020554 
L 824.481315 30.896361 
L 825.018563 30.896361 
L 825.018563 31.047712 
L 825.555811 31.047712 
L 825.555811 31.600832 
L 826.093059 31.600832 
L 826.093059 31.716766 
L 826.630307 31.716766 
L 826.630307 32.588093 
L 827.704802 32.551156 
L 827.704802 33.532124 
L 828.24205 33.532124 
L 828.24205 37.262813 
L 828.779298 37.262813 
L 828.779298 38.15135 
L 829.316546 38.15135 
L 829.316546 36.506322 
L 829.853794 36.506322 
L 829.853794 38.334562 
L 830.391042 38.334562 
L 830.391042 37.805091 
L 830.92829 37.805091 
L 830.92829 37.64456 
L 831.465537 37.64456 
L 831.465537 38.40978 
L 832.002785 38.40978 
L 832.002785 36.21285 
L 832.540033 36.21285 
L 832.540033 37.085866 
L 833.077281 37.085866 
L 833.077281 37.455497 
L 833.614529 37.455497 
L 833.614529 37.253349 
L 834.151777 37.253349 
L 834.151777 38.583512 
L 834.689024 38.583512 
L 834.689024 43.748301 
L 835.226272 43.748301 
L 835.226272 45.486038 
L 835.76352 45.486038 
L 835.76352 45.334271 
L 836.300768 45.334271 
L 836.300768 44.821905 
L 837.375264 44.8903 
L 837.375264 45.849254 
L 837.912512 45.849254 
L 837.912512 46.773703 
L 838.449759 46.773703 
L 838.449759 45.748688 
L 838.987007 45.748688 
L 838.987007 44.28056 
L 839.524255 44.28056 
L 839.524255 45.996407 
L 840.061503 45.996407 
L 840.061503 45.348 
L 840.598751 45.348 
L 840.598751 45.138452 
L 841.135999 45.138452 
L 841.135999 42.783895 
L 841.673246 42.783895 
L 841.673246 43.49089 
L 842.210494 43.49089 
L 842.210494 44.643565 
L 842.747742 44.643565 
L 842.747742 42.277074 
L 843.28499 42.277074 
L 843.28499 42.718857 
L 843.822238 42.718857 
L 843.822238 43.353651 
L 844.359486 43.353651 
L 844.359486 42.83206 
L 844.896734 42.83206 
L 844.896734 42.128705 
L 845.433981 42.128705 
L 845.433981 41.704035 
L 845.971229 41.704035 
L 845.971229 42.202468 
L 846.508477 42.202468 
L 846.508477 45.06851 
L 847.045725 45.06851 
L 847.045725 44.509485 
L 847.582973 44.509485 
L 847.582973 44.318152 
L 848.120221 44.318152 
L 848.120221 46.419705 
L 848.657468 46.419705 
L 848.657468 45.889466 
L 849.194716 45.889466 
L 849.194716 46.114527 
L 849.731964 46.114527 
L 849.731964 47.237505 
L 850.269212 47.237505 
L 850.269212 44.52462 
L 850.80646 44.52462 
L 850.80646 43.555785 
L 851.343708 43.555785 
L 851.343708 46.264223 
L 851.880956 46.264223 
L 851.880956 46.565027 
L 852.418203 46.565027 
L 852.418203 47.575984 
L 852.955451 47.575984 
L 852.955451 47.097653 
L 853.492699 47.097653 
L 853.492699 46.905641 
L 854.029947 46.905641 
L 854.029947 46.552709 
L 854.567195 46.552709 
L 854.567195 46.330825 
L 855.104443 46.330825 
L 855.104443 45.985643 
L 855.64169 45.985643 
L 855.64169 46.536774 
L 856.178938 46.536774 
L 856.178938 46.849049 
L 857.253434 46.951837 
L 857.253434 46.657716 
L 857.790682 46.657716 
L 857.790682 46.832393 
L 858.32793 46.832393 
L 858.32793 46.648812 
L 858.865178 46.648812 
L 858.865178 45.637543 
L 859.402425 45.637543 
L 859.402425 45.286961 
L 859.939673 45.286961 
L 859.939673 45.777893 
L 860.476921 45.777893 
L 860.476921 44.618444 
L 861.014169 44.618444 
L 861.014169 47.538686 
L 861.551417 47.538686 
L 861.551417 49.380287 
L 862.088665 49.380287 
L 862.088665 49.885812 
L 862.625912 49.885812 
L 862.625912 49.765997 
L 863.16316 49.765997 
L 863.16316 50.306547 
L 863.700408 50.306547 
L 863.700408 49.861904 
L 864.237656 49.861904 
L 864.237656 50.057549 
L 865.312152 50.084158 
L 865.312152 49.255288 
L 865.8494 49.255288 
L 865.8494 49.409162 
L 866.386647 49.409162 
L 866.386647 49.079087 
L 866.923895 49.079087 
L 866.923895 49.246181 
L 867.461143 49.246181 
L 867.461143 48.395203 
L 867.998391 48.395203 
L 867.998391 49.63846 
L 868.535639 49.63846 
L 868.535639 49.486866 
L 869.072887 49.486866 
L 869.072887 49.64335 
L 869.610134 49.64335 
L 869.610134 49.473068 
L 870.147382 49.473068 
L 870.147382 49.831793 
L 871.221878 49.85309 
L 871.221878 49.554375 
L 871.759126 49.554375 
L 871.759126 49.43631 
L 872.296374 49.43631 
L 872.296374 48.824678 
L 872.833622 48.824678 
L 872.833622 46.010108 
L 873.370869 46.010108 
L 873.370869 44.719924 
L 874.445365 44.822445 
L 874.445365 43.245752 
L 874.982613 43.245752 
L 874.982613 42.909132 
L 876.594356 42.868814 
L 876.594356 42.591438 
L 877.131604 42.591438 
L 877.131604 43.209105 
L 877.668852 43.209105 
L 877.668852 44.127454 
L 878.743348 44.134037 
L 878.743348 41.79605 
L 879.280596 41.79605 
L 879.280596 41.536595 
L 879.817844 41.536595 
L 879.817844 41.711828 
L 880.355091 41.711828 
L 880.355091 42.81589 
L 880.892339 42.81589 
L 880.892339 42.539725 
L 881.966835 42.566909 
L 881.966835 43.522979 
L 882.504083 43.522979 
L 882.504083 44.220312 
L 883.041331 44.220312 
L 883.041331 45.25806 
L 883.578578 45.25806 
L 883.578578 41.42941 
L 884.115826 41.42941 
L 884.115826 39.250182 
L 884.653074 39.250182 
L 884.653074 38.999625 
L 885.190322 38.999625 
L 885.190322 38.592505 
L 885.72757 38.592505 
L 885.72757 38.841605 
L 886.264818 38.841605 
L 886.264818 38.575015 
L 886.802066 38.575015 
L 886.802066 38.382978 
L 887.194182 38.382978 
L 887.194182 38.382978 
" clip-path="url(#p1a8297c6b4)" style="fill: none; stroke: #3572c6; stroke-width: 1.2; stroke-linecap: square"/>
   </g>
   <g id="line2d_74">
    <path d="M 75.557818 20.732418 
L 887.194182 20.732418 
L 887.194182 20.732418 
" clip-path="url(#p1a8297c6b4)" style="fill: none; stroke: #83a83b; stroke-width: 1.2; stroke-linecap: square"/>
   </g>
   <g id="line2d_75">
    <path d="M 75.557818 50.306547 
L 887.194182 50.306547 
L 887.194182 50.306547 
" clip-path="url(#p1a8297c6b4)" style="fill: none; stroke: #c44e52; stroke-width: 1.2; stroke-linecap: square"/>
   </g>
   <g id="line2d_76">
    <path d="M 792.783692 301.139691 
L 792.783692 7.379691 
" clip-path="url(#p1a8297c6b4)" style="fill: none; stroke: #83a83b; stroke-width: 1.2; stroke-linecap: square"/>
   </g>
   <g id="line2d_77">
    <path d="M 863.700408 301.139691 
L 863.700408 7.379691 
" clip-path="url(#p1a8297c6b4)" style="fill: none; stroke: #c44e52; stroke-width: 1.2; stroke-linecap: square"/>
   </g>
   <g id="patch_3">
    <path d="M 34.976 301.139691 
L 34.976 7.379691 
" style="fill: none; stroke: #899ab8; stroke-width: 1.12; stroke-linejoin: miter; stroke-linecap: square"/>
   </g>
   <g id="patch_4">
    <path d="M 927.776 301.139691 
L 927.776 7.379691 
" style="fill: none; stroke: #899ab8; stroke-width: 1.12; stroke-linejoin: miter; stroke-linecap: square"/>
   </g>
   <g id="patch_5">
    <path d="M 34.976 301.139691 
L 927.776 301.139691 
" style="fill: none; stroke: #899ab8; stroke-width: 1.12; stroke-linejoin: miter; stroke-linecap: square"/>
   </g>
   <g id="patch_6">
    <path d="M 34.976 7.379691 
L 927.776 7.379691 
" style="fill: none; stroke: #899ab8; stroke-width: 1.12; stroke-linejoin: miter; stroke-linecap: square"/>
   </g>
   <g id="text_14">
    <!-- 66063.56 -->
    <g style="fill: #83a83b" transform="translate(206.109045 20.732418) scale(0.132 -0.132)">
     <defs>
      <path id="DejaVuSans-2e" d="M 684 794 
L 1344 794 
L 1344 0 
L 684 0 
L 684 794 
z
" transform="scale(0.015625)"/>
     </defs>
     <use xlink:href="#DejaVuSans-36"/>
     <use xlink:href="#DejaVuSans-36" x="63.623047"/>
     <use xlink:href="#DejaVuSans-30" x="127.246094"/>
     <use xlink:href="#DejaVuSans-36" x="190.869141"/>
     <use xlink:href="#DejaVuSans-33" x="254.492188"/>
     <use xlink:href="#DejaVuSans-2e" x="318.115234"/>
     <use xlink:href="#DejaVuSans-35" x="349.902344"/>
     <use xlink:href="#DejaVuSans-36" x="413.525391"/>
    </g>
   </g>
   <g id="text_15">
    <!-- 16260.41 -->
    <g style="fill: #c44e52" transform="translate(206.109045 50.306547) scale(0.132 -0.132)">
     <use xlink:href="#DejaVuSans-31"/>
     <use xlink:href="#DejaVuSans-36" x="63.623047"/>
     <use xlink:href="#DejaVuSans-32" x="127.246094"/>
     <use xlink:href="#DejaVuSans-36" x="190.869141"/>
     <use xlink:href="#DejaVuSans-30" x="254.492188"/>
     <use xlink:href="#DejaVuSans-2e" x="318.115234"/>
     <use xlink:href="#DejaVuSans-34" x="349.902344"/>
     <use xlink:href="#DejaVuSans-31" x="413.525391"/>
    </g>
   </g>
   <g id="legend_1">
    <g id="patch_7">
     <path d="M 432.207453 294.839691 
L 530.544547 294.839691 
Q 533.064547 294.839691 533.064547 292.319691 
L 533.064547 237.745941 
Q 533.064547 235.225941 530.544547 235.225941 
L 432.207453 235.225941 
Q 429.687453 235.225941 429.687453 237.745941 
L 429.687453 292.319691 
Q 429.687453 294.839691 432.207453 294.839691 
z
" style="fill: #373e4b; opacity: 0.8; stroke: #cccccc; stroke-width: 0.16; stroke-linejoin: miter"/>
    </g>
    <g id="line2d_78">
     <path d="M 434.727453 245.429972 
L 434.727453 245.429972 
L 447.327453 245.429972 
L 447.327453 245.429972 
L 459.927453 245.429972 
" style="fill: none; stroke: #3572c6; stroke-width: 1.2; stroke-linecap: square"/>
    </g>
    <g id="text_16">
     <!-- USD/BTC -->
     <g style="fill: #b1bed6" transform="translate(470.007453 249.839972) scale(0.126 -0.126)">
      <defs>
       <path id="DejaVuSans-55" d="M 556 4666 
L 1191 4666 
L 1191 1831 
Q 1191 1081 1462 751 
Q 1734 422 2344 422 
Q 2950 422 3222 751 
Q 3494 1081 3494 1831 
L 3494 4666 
L 4128 4666 
L 4128 1753 
Q 4128 841 3676 375 
Q 3225 -91 2344 -91 
Q 1459 -91 1007 375 
Q 556 841 556 1753 
L 556 4666 
z
" transform="scale(0.015625)"/>
       <path id="DejaVuSans-53" d="M 3425 4513 
L 3425 3897 
Q 3066 4069 2747 4153 
Q 2428 4238 2131 4238 
Q 1616 4238 1336 4038 
Q 1056 3838 1056 3469 
Q 1056 3159 1242 3001 
Q 1428 2844 1947 2747 
L 2328 2669 
Q 3034 2534 3370 2195 
Q 3706 1856 3706 1288 
Q 3706 609 3251 259 
Q 2797 -91 1919 -91 
Q 1588 -91 1214 -16 
Q 841 59 441 206 
L 441 856 
Q 825 641 1194 531 
Q 1563 422 1919 422 
Q 2459 422 2753 634 
Q 3047 847 3047 1241 
Q 3047 1584 2836 1778 
Q 2625 1972 2144 2069 
L 1759 2144 
Q 1053 2284 737 2584 
Q 422 2884 422 3419 
Q 422 4038 858 4394 
Q 1294 4750 2059 4750 
Q 2388 4750 2728 4690 
Q 3069 4631 3425 4513 
z
" transform="scale(0.015625)"/>
       <path id="DejaVuSans-2f" d="M 1625 4666 
L 2156 4666 
L 531 -594 
L 0 -594 
L 1625 4666 
z
" transform="scale(0.015625)"/>
       <path id="DejaVuSans-42" d="M 1259 2228 
L 1259 519 
L 2272 519 
Q 2781 519 3026 730 
Q 3272 941 3272 1375 
Q 3272 1813 3026 2020 
Q 2781 2228 2272 2228 
L 1259 2228 
z
M 1259 4147 
L 1259 2741 
L 2194 2741 
Q 2656 2741 2882 2914 
Q 3109 3088 3109 3444 
Q 3109 3797 2882 3972 
Q 2656 4147 2194 4147 
L 1259 4147 
z
M 628 4666 
L 2241 4666 
Q 2963 4666 3353 4366 
Q 3744 4066 3744 3513 
Q 3744 3084 3544 2831 
Q 3344 2578 2956 2516 
Q 3422 2416 3680 2098 
Q 3938 1781 3938 1306 
Q 3938 681 3513 340 
Q 3088 0 2303 0 
L 628 0 
L 628 4666 
z
" transform="scale(0.015625)"/>
       <path id="DejaVuSans-54" d="M -19 4666 
L 3928 4666 
L 3928 4134 
L 2272 4134 
L 2272 0 
L 1638 0 
L 1638 4134 
L -19 4134 
L -19 4666 
z
" transform="scale(0.015625)"/>
       <path id="DejaVuSans-43" d="M 4122 4306 
L 4122 3641 
Q 3803 3938 3442 4084 
Q 3081 4231 2675 4231 
Q 1875 4231 1450 3742 
Q 1025 3253 1025 2328 
Q 1025 1406 1450 917 
Q 1875 428 2675 428 
Q 3081 428 3442 575 
Q 3803 722 4122 1019 
L 4122 359 
Q 3791 134 3420 21 
Q 3050 -91 2638 -91 
Q 1578 -91 968 557 
Q 359 1206 359 2328 
Q 359 3453 968 4101 
Q 1578 4750 2638 4750 
Q 3056 4750 3426 4639 
Q 3797 4528 4122 4306 
z
" transform="scale(0.015625)"/>
      </defs>
      <use xlink:href="#DejaVuSans-55"/>
      <use xlink:href="#DejaVuSans-53" x="73.193359"/>
      <use xlink:href="#DejaVuSans-44" x="136.669922"/>
      <use xlink:href="#DejaVuSans-2f" x="213.671875"/>
      <use xlink:href="#DejaVuSans-42" x="247.363281"/>
      <use xlink:href="#DejaVuSans-54" x="315.966797"/>
      <use xlink:href="#DejaVuSans-43" x="371.175781"/>
     </g>
    </g>
    <g id="line2d_79">
     <path d="M 434.727453 263.92441 
L 434.727453 263.92441 
L 447.327453 263.92441 
L 447.327453 263.92441 
L 459.927453 263.92441 
" style="fill: none; stroke: #83a83b; stroke-width: 1.2; stroke-linecap: square"/>
    </g>
    <g id="text_17">
     <!-- Max -->
     <g style="fill: #b1bed6" transform="translate(470.007453 268.33441) scale(0.126 -0.126)">
      <defs>
       <path id="DejaVuSans-4d" d="M 628 4666 
L 1569 4666 
L 2759 1491 
L 3956 4666 
L 4897 4666 
L 4897 0 
L 4281 0 
L 4281 4097 
L 3078 897 
L 2444 897 
L 1241 4097 
L 1241 0 
L 628 0 
L 628 4666 
z
" transform="scale(0.015625)"/>
       <path id="DejaVuSans-78" d="M 3513 3500 
L 2247 1797 
L 3578 0 
L 2900 0 
L 1881 1375 
L 863 0 
L 184 0 
L 1544 1831 
L 300 3500 
L 978 3500 
L 1906 2253 
L 2834 3500 
L 3513 3500 
z
" transform="scale(0.015625)"/>
      </defs>
      <use xlink:href="#DejaVuSans-4d"/>
      <use xlink:href="#DejaVuSans-61" x="86.279297"/>
      <use xlink:href="#DejaVuSans-78" x="147.558594"/>
     </g>
    </g>
    <g id="line2d_80">
     <path d="M 434.727453 282.418847 
L 434.727453 282.418847 
L 447.327453 282.418847 
L 447.327453 282.418847 
L 459.927453 282.418847 
" style="fill: none; stroke: #c44e52; stroke-width: 1.2; stroke-linecap: square"/>
    </g>
    <g id="text_18">
     <!-- local_Min -->
     <g style="fill: #b1bed6" transform="translate(470.007453 286.828847) scale(0.126 -0.126)">
      <defs>
       <path id="DejaVuSans-6c" d="M 603 4863 
L 1178 4863 
L 1178 0 
L 603 0 
L 603 4863 
z
" transform="scale(0.015625)"/>
       <path id="DejaVuSans-6f" d="M 1959 3097 
Q 1497 3097 1228 2736 
Q 959 2375 959 1747 
Q 959 1119 1226 758 
Q 1494 397 1959 397 
Q 2419 397 2687 759 
Q 2956 1122 2956 1747 
Q 2956 2369 2687 2733 
Q 2419 3097 1959 3097 
z
M 1959 3584 
Q 2709 3584 3137 3096 
Q 3566 2609 3566 1747 
Q 3566 888 3137 398 
Q 2709 -91 1959 -91 
Q 1206 -91 779 398 
Q 353 888 353 1747 
Q 353 2609 779 3096 
Q 1206 3584 1959 3584 
z
" transform="scale(0.015625)"/>
       <path id="DejaVuSans-63" d="M 3122 3366 
L 3122 2828 
Q 2878 2963 2633 3030 
Q 2388 3097 2138 3097 
Q 1578 3097 1268 2742 
Q 959 2388 959 1747 
Q 959 1106 1268 751 
Q 1578 397 2138 397 
Q 2388 397 2633 464 
Q 2878 531 3122 666 
L 3122 134 
Q 2881 22 2623 -34 
Q 2366 -91 2075 -91 
Q 1284 -91 818 406 
Q 353 903 353 1747 
Q 353 2603 823 3093 
Q 1294 3584 2113 3584 
Q 2378 3584 2631 3529 
Q 2884 3475 3122 3366 
z
" transform="scale(0.015625)"/>
       <path id="DejaVuSans-5f" d="M 3263 -1063 
L 3263 -1509 
L -63 -1509 
L -63 -1063 
L 3263 -1063 
z
" transform="scale(0.015625)"/>
       <path id="DejaVuSans-69" d="M 603 3500 
L 1178 3500 
L 1178 0 
L 603 0 
L 603 3500 
z
M 603 4863 
L 1178 4863 
L 1178 4134 
L 603 4134 
L 603 4863 
z
" transform="scale(0.015625)"/>
       <path id="DejaVuSans-6e" d="M 3513 2113 
L 3513 0 
L 2938 0 
L 2938 2094 
Q 2938 2591 2744 2837 
Q 2550 3084 2163 3084 
Q 1697 3084 1428 2787 
Q 1159 2491 1159 1978 
L 1159 0 
L 581 0 
L 581 3500 
L 1159 3500 
L 1159 2956 
Q 1366 3272 1645 3428 
Q 1925 3584 2291 3584 
Q 2894 3584 3203 3211 
Q 3513 2838 3513 2113 
z
" transform="scale(0.015625)"/>
      </defs>
      <use xlink:href="#DejaVuSans-6c"/>
      <use xlink:href="#DejaVuSans-6f" x="27.783203"/>
      <use xlink:href="#DejaVuSans-63" x="88.964844"/>
      <use xlink:href="#DejaVuSans-61" x="143.945312"/>
      <use xlink:href="#DejaVuSans-6c" x="205.224609"/>
      <use xlink:href="#DejaVuSans-5f" x="233.007812"/>
      <use xlink:href="#DejaVuSans-4d" x="283.007812"/>
      <use xlink:href="#DejaVuSans-69" x="369.287109"/>
      <use xlink:href="#DejaVuSans-6e" x="397.070312"/>
     </g>
    </g>
   </g>
  </g>
 </g>
 <defs>
  <clipPath id="p1a8297c6b4">
   <rect x="34.976" y="7.379691" width="892.8" height="293.76"/>
  </clipPath>
 </defs>
</svg>
