<?xml version="1.0" encoding="utf-8" standalone="no"?>
<!DOCTYPE svg PUBLIC "-//W3C//DTD SVG 1.1//EN"
  "http://www.w3.org/Graphics/SVG/1.1/DTD/svg11.dtd">
<svg xmlns:xlink="http://www.w3.org/1999/xlink" width="934.976pt" height="358.290693pt" viewBox="0 0 934.976 358.290693" xmlns="http://www.w3.org/2000/svg" version="1.1">
 <metadata>
  <rdf:RDF xmlns:dc="http://purl.org/dc/elements/1.1/" xmlns:cc="http://creativecommons.org/ns#" xmlns:rdf="http://www.w3.org/1999/02/22-rdf-syntax-ns#">
   <cc:Work>
    <dc:type rdf:resource="http://purl.org/dc/dcmitype/StillImage"/>
    <dc:date>2026-04-14T16:50:16.709969</dc:date>
    <dc:format>image/svg+xml</dc:format>
    <dc:creator>
     <cc:Agent>
      <dc:title>Matplotlib v3.10.8, https://matplotlib.org/</dc:title>
     </cc:Agent>
    </dc:creator>
   </cc:Work>
  </rdf:RDF>
 </metadata>
 <defs>
  <style type="text/css">*{stroke-linejoin: round; stroke-linecap: butt}</style>
 </defs>
 <g id="figure_1">
  <g id="patch_1">
   <path d="M 0 358.290693 
L 934.976 358.290693 
L 934.976 0 
L 0 0 
z
" style="fill: #373e4b"/>
  </g>
  <g id="axes_1">
   <g id="patch_2">
    <path d="M 34.976 300.96 
L 927.776 300.96 
L 927.776 7.2 
L 34.976 7.2 
z
" style="fill: #373e4b"/>
   </g>
   <g id="matplotlib.axis_1">
    <g id="xtick_1">
     <g id="line2d_1">
      <path d="M 136.689078 300.96 
L 136.689078 7.2 
" clip-path="url(#p04c73e524f)" style="fill: none; stroke: #546379; stroke-width: 1.12; stroke-linecap: square"/>
     </g>
     <g id="line2d_2"/>
     <g id="text_1">
      <!-- 2012 -->
      <g style="fill: #b1bed6" transform="translate(107.608038 330.884854) rotate(-30) scale(0.126 -0.126)">
       <defs>
        <path id="DejaVuSans-32" d="M 1228 531 
L 3431 531 
L 3431 0 
L 469 0 
L 469 531 
Q 828 903 1448 1529 
Q 2069 2156 2228 2338 
Q 2531 2678 2651 2914 
Q 2772 3150 2772 3378 
Q 2772 3750 2511 3984 
Q 2250 4219 1831 4219 
Q 1534 4219 1204 4116 
Q 875 4013 500 3803 
L 500 4441 
Q 881 4594 1212 4672 
Q 1544 4750 1819 4750 
Q 2544 4750 2975 4387 
Q 3406 4025 3406 3419 
Q 3406 3131 3298 2873 
Q 3191 2616 2906 2266 
Q 2828 2175 2409 1742 
Q 1991 1309 1228 531 
z
" transform="scale(0.015625)"/>
        <path id="DejaVuSans-30" d="M 2034 4250 
Q 1547 4250 1301 3770 
Q 1056 3291 1056 2328 
Q 1056 1369 1301 889 
Q 1547 409 2034 409 
Q 2525 409 2770 889 
Q 3016 1369 3016 2328 
Q 3016 3291 2770 3770 
Q 2525 4250 2034 4250 
z
M 2034 4750 
Q 2819 4750 3233 4129 
Q 3647 3509 3647 2328 
Q 3647 1150 3233 529 
Q 2819 -91 2034 -91 
Q 1250 -91 836 529 
Q 422 1150 422 2328 
Q 422 3509 836 4129 
Q 1250 4750 2034 4750 
z
" transform="scale(0.015625)"/>
        <path id="DejaVuSans-31" d="M 794 531 
L 1825 531 
L 1825 4091 
L 703 3866 
L 703 4441 
L 1819 4666 
L 2450 4666 
L 2450 531 
L 3481 531 
L 3481 0 
L 794 0 
L 794 531 
z
" transform="scale(0.015625)"/>
       </defs>
       <use xlink:href="#DejaVuSans-32"/>
       <use xlink:href="#DejaVuSans-30" transform="translate(63.623047 0)"/>
       <use xlink:href="#DejaVuSans-31" transform="translate(127.246094 0)"/>
       <use xlink:href="#DejaVuSans-32" transform="translate(190.869141 0)"/>
      </g>
     </g>
    </g>
    <g id="xtick_2">
     <g id="line2d_3">
      <path d="M 241.834844 300.96 
L 241.834844 7.2 
" clip-path="url(#p04c73e524f)" style="fill: none; stroke: #546379; stroke-width: 1.12; stroke-linecap: square"/>
     </g>
     <g id="line2d_4"/>
     <g id="text_2">
      <!-- 2014 -->
      <g style="fill: #b1bed6" transform="translate(212.753804 330.884854) rotate(-30) scale(0.126 -0.126)">
       <defs>
        <path id="DejaVuSans-34" d="M 2419 4116 
L 825 1625 
L 2419 1625 
L 2419 4116 
z
M 2253 4666 
L 3047 4666 
L 3047 1625 
L 3713 1625 
L 3713 1100 
L 3047 1100 
L 3047 0 
L 2419 0 
L 2419 1100 
L 313 1100 
L 313 1709 
L 2253 4666 
z
" transform="scale(0.015625)"/>
       </defs>
       <use xlink:href="#DejaVuSans-32"/>
       <use xlink:href="#DejaVuSans-30" transform="translate(63.623047 0)"/>
       <use xlink:href="#DejaVuSans-31" transform="translate(127.246094 0)"/>
       <use xlink:href="#DejaVuSans-34" transform="translate(190.869141 0)"/>
      </g>
     </g>
    </g>
    <g id="xtick_3">
     <g id="line2d_5">
      <path d="M 346.836772 300.96 
L 346.836772 7.2 
" clip-path="url(#p04c73e524f)" style="fill: none; stroke: #546379; stroke-width: 1.12; stroke-linecap: square"/>
     </g>
     <g id="line2d_6"/>
     <g id="text_3">
      <!-- 2016 -->
      <g style="fill: #b1bed6" transform="translate(317.755732 330.884854) rotate(-30) scale(0.126 -0.126)">
       <defs>
        <path id="DejaVuSans-36" d="M 2113 2584 
Q 1688 2584 1439 2293 
Q 1191 2003 1191 1497 
Q 1191 994 1439 701 
Q 1688 409 2113 409 
Q 2538 409 2786 701 
Q 3034 994 3034 1497 
Q 3034 2003 2786 2293 
Q 2538 2584 2113 2584 
z
M 3366 4563 
L 3366 3988 
Q 3128 4100 2886 4159 
Q 2644 4219 2406 4219 
Q 1781 4219 1451 3797 
Q 1122 3375 1075 2522 
Q 1259 2794 1537 2939 
Q 1816 3084 2150 3084 
Q 2853 3084 3261 2657 
Q 3669 2231 3669 1497 
Q 3669 778 3244 343 
Q 2819 -91 2113 -91 
Q 1303 -91 875 529 
Q 447 1150 447 2328 
Q 447 3434 972 4092 
Q 1497 4750 2381 4750 
Q 2619 4750 2861 4703 
Q 3103 4656 3366 4563 
z
" transform="scale(0.015625)"/>
       </defs>
       <use xlink:href="#DejaVuSans-32"/>
       <use xlink:href="#DejaVuSans-30" transform="translate(63.623047 0)"/>
       <use xlink:href="#DejaVuSans-31" transform="translate(127.246094 0)"/>
       <use xlink:href="#DejaVuSans-36" transform="translate(190.869141 0)"/>
      </g>
     </g>
    </g>
    <g id="xtick_4">
     <g id="line2d_7">
      <path d="M 451.982538 300.96 
L 451.982538 7.2 
" clip-path="url(#p04c73e524f)" style="fill: none; stroke: #546379; stroke-width: 1.12; stroke-linecap: square"/>
     </g>
     <g id="line2d_8"/>
     <g id="text_4">
      <!-- 2018 -->
      <g style="fill: #b1bed6" transform="translate(422.901499 330.884854) rotate(-30) scale(0.126 -0.126)">
       <defs>
        <path id="DejaVuSans-38" d="M 2034 2216 
Q 1584 2216 1326 1975 
Q 1069 1734 1069 1313 
Q 1069 891 1326 650 
Q 1584 409 2034 409 
Q 2484 409 2743 651 
Q 3003 894 3003 1313 
Q 3003 1734 2745 1975 
Q 2488 2216 2034 2216 
z
M 1403 2484 
Q 997 2584 770 2862 
Q 544 3141 544 3541 
Q 544 4100 942 4425 
Q 1341 4750 2034 4750 
Q 2731 4750 3128 4425 
Q 3525 4100 3525 3541 
Q 3525 3141 3298 2862 
Q 3072 2584 2669 2484 
Q 3125 2378 3379 2068 
Q 3634 1759 3634 1313 
Q 3634 634 3220 271 
Q 2806 -91 2034 -91 
Q 1263 -91 848 271 
Q 434 634 434 1313 
Q 434 1759 690 2068 
Q 947 2378 1403 2484 
z
M 1172 3481 
Q 1172 3119 1398 2916 
Q 1625 2713 2034 2713 
Q 2441 2713 2670 2916 
Q 2900 3119 2900 3481 
Q 2900 3844 2670 4047 
Q 2441 4250 2034 4250 
Q 1625 4250 1398 4047 
Q 1172 3844 1172 3481 
z
" transform="scale(0.015625)"/>
       </defs>
       <use xlink:href="#DejaVuSans-32"/>
       <use xlink:href="#DejaVuSans-30" transform="translate(63.623047 0)"/>
       <use xlink:href="#DejaVuSans-31" transform="translate(127.246094 0)"/>
       <use xlink:href="#DejaVuSans-38" transform="translate(190.869141 0)"/>
      </g>
     </g>
    </g>
    <g id="xtick_5">
     <g id="line2d_9">
      <path d="M 556.984467 300.96 
L 556.984467 7.2 
" clip-path="url(#p04c73e524f)" style="fill: none; stroke: #546379; stroke-width: 1.12; stroke-linecap: square"/>
     </g>
     <g id="line2d_10"/>
     <g id="text_5">
      <!-- 2020 -->
      <g style="fill: #b1bed6" transform="translate(527.903427 330.884854) rotate(-30) scale(0.126 -0.126)">
       <use xlink:href="#DejaVuSans-32"/>
       <use xlink:href="#DejaVuSans-30" transform="translate(63.623047 0)"/>
       <use xlink:href="#DejaVuSans-32" transform="translate(127.246094 0)"/>
       <use xlink:href="#DejaVuSans-30" transform="translate(190.869141 0)"/>
      </g>
     </g>
    </g>
    <g id="xtick_6">
     <g id="line2d_11">
      <path d="M 662.130233 300.96 
L 662.130233 7.2 
" clip-path="url(#p04c73e524f)" style="fill: none; stroke: #546379; stroke-width: 1.12; stroke-linecap: square"/>
     </g>
     <g id="line2d_12"/>
     <g id="text_6">
      <!-- 2022 -->
      <g style="fill: #b1bed6" transform="translate(633.049193 330.884854) rotate(-30) scale(0.126 -0.126)">
       <use xlink:href="#DejaVuSans-32"/>
       <use xlink:href="#DejaVuSans-30" transform="translate(63.623047 0)"/>
       <use xlink:href="#DejaVuSans-32" transform="translate(127.246094 0)"/>
       <use xlink:href="#DejaVuSans-32" transform="translate(190.869141 0)"/>
      </g>
     </g>
    </g>
    <g id="xtick_7">
     <g id="line2d_13">
      <path d="M 767.132161 300.96 
L 767.132161 7.2 
" clip-path="url(#p04c73e524f)" style="fill: none; stroke: #546379; stroke-width: 1.12; stroke-linecap: square"/>
     </g>
     <g id="line2d_14"/>
     <g id="text_7">
      <!-- 2024 -->
      <g style="fill: #b1bed6" transform="translate(738.051121 330.884854) rotate(-30) scale(0.126 -0.126)">
       <use xlink:href="#DejaVuSans-32"/>
       <use xlink:href="#DejaVuSans-30" transform="translate(63.623047 0)"/>
       <use xlink:href="#DejaVuSans-32" transform="translate(127.246094 0)"/>
       <use xlink:href="#DejaVuSans-34" transform="translate(190.869141 0)"/>
      </g>
     </g>
    </g>
    <g id="xtick_8">
     <g id="line2d_15">
      <path d="M 872.277927 300.96 
L 872.277927 7.2 
" clip-path="url(#p04c73e524f)" style="fill: none; stroke: #546379; stroke-width: 1.12; stroke-linecap: square"/>
     </g>
     <g id="line2d_16"/>
     <g id="text_8">
      <!-- 2026 -->
      <g style="fill: #b1bed6" transform="translate(843.196888 330.884854) rotate(-30) scale(0.126 -0.126)">
       <use xlink:href="#DejaVuSans-32"/>
       <use xlink:href="#DejaVuSans-30" transform="translate(63.623047 0)"/>
       <use xlink:href="#DejaVuSans-32" transform="translate(127.246094 0)"/>
       <use xlink:href="#DejaVuSans-36" transform="translate(190.869141 0)"/>
      </g>
     </g>
    </g>
    <g id="text_9">
     <!-- Date -->
     <g style="fill: #b1bed6" transform="translate(464.166875 348.095943) scale(0.144 -0.144)">
      <defs>
       <path id="DejaVuSans-44" d="M 1259 4147 
L 1259 519 
L 2022 519 
Q 2988 519 3436 956 
Q 3884 1394 3884 2338 
Q 3884 3275 3436 3711 
Q 2988 4147 2022 4147 
L 1259 4147 
z
M 628 4666 
L 1925 4666 
Q 3281 4666 3915 4102 
Q 4550 3538 4550 2338 
Q 4550 1131 3912 565 
Q 3275 0 1925 0 
L 628 0 
L 628 4666 
z
" transform="scale(0.015625)"/>
       <path id="DejaVuSans-61" d="M 2194 1759 
Q 1497 1759 1228 1600 
Q 959 1441 959 1056 
Q 959 750 1161 570 
Q 1363 391 1709 391 
Q 2188 391 2477 730 
Q 2766 1069 2766 1631 
L 2766 1759 
L 2194 1759 
z
M 3341 1997 
L 3341 0 
L 2766 0 
L 2766 531 
Q 2569 213 2275 61 
Q 1981 -91 1556 -91 
Q 1019 -91 701 211 
Q 384 513 384 1019 
Q 384 1609 779 1909 
Q 1175 2209 1959 2209 
L 2766 2209 
L 2766 2266 
Q 2766 2663 2505 2880 
Q 2244 3097 1772 3097 
Q 1472 3097 1187 3025 
Q 903 2953 641 2809 
L 641 3341 
Q 956 3463 1253 3523 
Q 1550 3584 1831 3584 
Q 2591 3584 2966 3190 
Q 3341 2797 3341 1997 
z
" transform="scale(0.015625)"/>
       <path id="DejaVuSans-74" d="M 1172 4494 
L 1172 3500 
L 2356 3500 
L 2356 3053 
L 1172 3053 
L 1172 1153 
Q 1172 725 1289 603 
Q 1406 481 1766 481 
L 2356 481 
L 2356 0 
L 1766 0 
Q 1100 0 847 248 
Q 594 497 594 1153 
L 594 3053 
L 172 3053 
L 172 3500 
L 594 3500 
L 594 4494 
L 1172 4494 
z
" transform="scale(0.015625)"/>
       <path id="DejaVuSans-65" d="M 3597 1894 
L 3597 1613 
L 953 1613 
Q 991 1019 1311 708 
Q 1631 397 2203 397 
Q 2534 397 2845 478 
Q 3156 559 3463 722 
L 3463 178 
Q 3153 47 2828 -22 
Q 2503 -91 2169 -91 
Q 1331 -91 842 396 
Q 353 884 353 1716 
Q 353 2575 817 3079 
Q 1281 3584 2069 3584 
Q 2775 3584 3186 3129 
Q 3597 2675 3597 1894 
z
M 3022 2063 
Q 3016 2534 2758 2815 
Q 2500 3097 2075 3097 
Q 1594 3097 1305 2825 
Q 1016 2553 972 2059 
L 3022 2063 
z
" transform="scale(0.015625)"/>
      </defs>
      <use xlink:href="#DejaVuSans-44"/>
      <use xlink:href="#DejaVuSans-61" transform="translate(77.001953 0)"/>
      <use xlink:href="#DejaVuSans-74" transform="translate(138.28125 0)"/>
      <use xlink:href="#DejaVuSans-65" transform="translate(177.490234 0)"/>
     </g>
    </g>
   </g>
   <g id="matplotlib.axis_2">
    <g id="ytick_1">
     <g id="line2d_17">
      <path d="M 34.976 255.37232 
L 927.776 255.37232 
" clip-path="url(#p04c73e524f)" style="fill: none; stroke: #546379; stroke-width: 1.12; stroke-linecap: square"/>
     </g>
     <g id="line2d_18"/>
     <g id="text_10">
      <!-- $\mathdefault{10^{0}}$ -->
      <g style="fill: #b1bed6" transform="translate(7.2 260.159335) scale(0.126 -0.126)">
       <use xlink:href="#DejaVuSans-31" transform="translate(0 0.765625)"/>
       <use xlink:href="#DejaVuSans-30" transform="translate(63.623047 0.765625)"/>
       <use xlink:href="#DejaVuSans-30" transform="translate(128.203125 39.046875) scale(0.7)"/>
      </g>
     </g>
    </g>
    <g id="ytick_2">
     <g id="line2d_19">
      <path d="M 34.976 209.254528 
L 927.776 209.254528 
" clip-path="url(#p04c73e524f)" style="fill: none; stroke: #546379; stroke-width: 1.12; stroke-linecap: square"/>
     </g>
     <g id="line2d_20"/>
     <g id="text_11">
      <!-- $\mathdefault{10^{1}}$ -->
      <g style="fill: #b1bed6" transform="translate(7.2 214.041544) scale(0.126 -0.126)">
       <use xlink:href="#DejaVuSans-31" transform="translate(0 0.684375)"/>
       <use xlink:href="#DejaVuSans-30" transform="translate(63.623047 0.684375)"/>
       <use xlink:href="#DejaVuSans-31" transform="translate(128.203125 38.965625) scale(0.7)"/>
      </g>
     </g>
    </g>
    <g id="ytick_3">
     <g id="line2d_21">
      <path d="M 34.976 163.136737 
L 927.776 163.136737 
" clip-path="url(#p04c73e524f)" style="fill: none; stroke: #546379; stroke-width: 1.12; stroke-linecap: square"/>
     </g>
     <g id="line2d_22"/>
     <g id="text_12">
      <!-- $\mathdefault{10^{2}}$ -->
      <g style="fill: #b1bed6" transform="translate(7.2 167.923752) scale(0.126 -0.126)">
       <use xlink:href="#DejaVuSans-31" transform="translate(0 0.765625)"/>
       <use xlink:href="#DejaVuSans-30" transform="translate(63.623047 0.765625)"/>
       <use xlink:href="#DejaVuSans-32" transform="translate(128.203125 39.046875) scale(0.7)"/>
      </g>
     </g>
    </g>
    <g id="ytick_4">
     <g id="line2d_23">
      <path d="M 34.976 117.018945 
L 927.776 117.018945 
" clip-path="url(#p04c73e524f)" style="fill: none; stroke: #546379; stroke-width: 1.12; stroke-linecap: square"/>
     </g>
     <g id="line2d_24"/>
     <g id="text_13">
      <!-- $\mathdefault{10^{3}}$ -->
      <g style="fill: #b1bed6" transform="translate(7.2 121.805961) scale(0.126 -0.126)">
       <defs>
        <path id="DejaVuSans-33" d="M 2597 2516 
Q 3050 2419 3304 2112 
Q 3559 1806 3559 1356 
Q 3559 666 3084 287 
Q 2609 -91 1734 -91 
Q 1441 -91 1130 -33 
Q 819 25 488 141 
L 488 750 
Q 750 597 1062 519 
Q 1375 441 1716 441 
Q 2309 441 2620 675 
Q 2931 909 2931 1356 
Q 2931 1769 2642 2001 
Q 2353 2234 1838 2234 
L 1294 2234 
L 1294 2753 
L 1863 2753 
Q 2328 2753 2575 2939 
Q 2822 3125 2822 3475 
Q 2822 3834 2567 4026 
Q 2313 4219 1838 4219 
Q 1578 4219 1281 4162 
Q 984 4106 628 3988 
L 628 4550 
Q 988 4650 1302 4700 
Q 1616 4750 1894 4750 
Q 2613 4750 3031 4423 
Q 3450 4097 3450 3541 
Q 3450 3153 3228 2886 
Q 3006 2619 2597 2516 
z
" transform="scale(0.015625)"/>
       </defs>
       <use xlink:href="#DejaVuSans-31" transform="translate(0 0.765625)"/>
       <use xlink:href="#DejaVuSans-30" transform="translate(63.623047 0.765625)"/>
       <use xlink:href="#DejaVuSans-33" transform="translate(128.203125 39.046875) scale(0.7)"/>
      </g>
     </g>
    </g>
    <g id="ytick_5">
     <g id="line2d_25">
      <path d="M 34.976 70.901154 
L 927.776 70.901154 
" clip-path="url(#p04c73e524f)" style="fill: none; stroke: #546379; stroke-width: 1.12; stroke-linecap: square"/>
     </g>
     <g id="line2d_26"/>
     <g id="text_14">
      <!-- $\mathdefault{10^{4}}$ -->
      <g style="fill: #b1bed6" transform="translate(7.2 75.688169) scale(0.126 -0.126)">
       <use xlink:href="#DejaVuSans-31" transform="translate(0 0.684375)"/>
       <use xlink:href="#DejaVuSans-30" transform="translate(63.623047 0.684375)"/>
       <use xlink:href="#DejaVuSans-34" transform="translate(128.203125 38.965625) scale(0.7)"/>
      </g>
     </g>
    </g>
    <g id="ytick_6">
     <g id="line2d_27">
      <path d="M 34.976 24.783362 
L 927.776 24.783362 
" clip-path="url(#p04c73e524f)" style="fill: none; stroke: #546379; stroke-width: 1.12; stroke-linecap: square"/>
     </g>
     <g id="line2d_28"/>
     <g id="text_15">
      <!-- $\mathdefault{10^{5}}$ -->
      <g style="fill: #b1bed6" transform="translate(7.2 29.570378) scale(0.126 -0.126)">
       <defs>
        <path id="DejaVuSans-35" d="M 691 4666 
L 3169 4666 
L 3169 4134 
L 1269 4134 
L 1269 2991 
Q 1406 3038 1543 3061 
Q 1681 3084 1819 3084 
Q 2600 3084 3056 2656 
Q 3513 2228 3513 1497 
Q 3513 744 3044 326 
Q 2575 -91 1722 -91 
Q 1428 -91 1123 -41 
Q 819 9 494 109 
L 494 744 
Q 775 591 1075 516 
Q 1375 441 1709 441 
Q 2250 441 2565 725 
Q 2881 1009 2881 1497 
Q 2881 1984 2565 2268 
Q 2250 2553 1709 2553 
Q 1456 2553 1204 2497 
Q 953 2441 691 2322 
L 691 4666 
z
" transform="scale(0.015625)"/>
       </defs>
       <use xlink:href="#DejaVuSans-31" transform="translate(0 0.684375)"/>
       <use xlink:href="#DejaVuSans-30" transform="translate(63.623047 0.684375)"/>
       <use xlink:href="#DejaVuSans-35" transform="translate(128.203125 38.965625) scale(0.7)"/>
      </g>
     </g>
    </g>
    <g id="ytick_7">
     <g id="line2d_29"/>
    </g>
    <g id="ytick_8">
     <g id="line2d_30"/>
    </g>
    <g id="ytick_9">
     <g id="line2d_31"/>
    </g>
    <g id="ytick_10">
     <g id="line2d_32"/>
    </g>
    <g id="ytick_11">
     <g id="line2d_33"/>
    </g>
    <g id="ytick_12">
     <g id="line2d_34"/>
    </g>
    <g id="ytick_13">
     <g id="line2d_35"/>
    </g>
    <g id="ytick_14">
     <g id="line2d_36"/>
    </g>
    <g id="ytick_15">
     <g id="line2d_37"/>
    </g>
    <g id="ytick_16">
     <g id="line2d_38"/>
    </g>
    <g id="ytick_17">
     <g id="line2d_39"/>
    </g>
    <g id="ytick_18">
     <g id="line2d_40"/>
    </g>
    <g id="ytick_19">
     <g id="line2d_41"/>
    </g>
    <g id="ytick_20">
     <g id="line2d_42"/>
    </g>
    <g id="ytick_21">
     <g id="line2d_43"/>
    </g>
    <g id="ytick_22">
     <g id="line2d_44"/>
    </g>
    <g id="ytick_23">
     <g id="line2d_45"/>
    </g>
    <g id="ytick_24">
     <g id="line2d_46"/>
    </g>
    <g id="ytick_25">
     <g id="line2d_47"/>
    </g>
    <g id="ytick_26">
     <g id="line2d_48"/>
    </g>
    <g id="ytick_27">
     <g id="line2d_49"/>
    </g>
    <g id="ytick_28">
     <g id="line2d_50"/>
    </g>
    <g id="ytick_29">
     <g id="line2d_51"/>
    </g>
    <g id="ytick_30">
     <g id="line2d_52"/>
    </g>
    <g id="ytick_31">
     <g id="line2d_53"/>
    </g>
    <g id="ytick_32">
     <g id="line2d_54"/>
    </g>
    <g id="ytick_33">
     <g id="line2d_55"/>
    </g>
    <g id="ytick_34">
     <g id="line2d_56"/>
    </g>
    <g id="ytick_35">
     <g id="line2d_57"/>
    </g>
    <g id="ytick_36">
     <g id="line2d_58"/>
    </g>
    <g id="ytick_37">
     <g id="line2d_59"/>
    </g>
    <g id="ytick_38">
     <g id="line2d_60"/>
    </g>
    <g id="ytick_39">
     <g id="line2d_61"/>
    </g>
    <g id="ytick_40">
     <g id="line2d_62"/>
    </g>
    <g id="ytick_41">
     <g id="line2d_63"/>
    </g>
    <g id="ytick_42">
     <g id="line2d_64"/>
    </g>
    <g id="ytick_43">
     <g id="line2d_65"/>
    </g>
    <g id="ytick_44">
     <g id="line2d_66"/>
    </g>
    <g id="ytick_45">
     <g id="line2d_67"/>
    </g>
    <g id="ytick_46">
     <g id="line2d_68"/>
    </g>
    <g id="ytick_47">
     <g id="line2d_69"/>
    </g>
    <g id="ytick_48">
     <g id="line2d_70"/>
    </g>
    <g id="ytick_49">
     <g id="line2d_71"/>
    </g>
    <g id="ytick_50">
     <g id="line2d_72"/>
    </g>
    <g id="ytick_51">
     <g id="line2d_73"/>
    </g>
    <g id="ytick_52">
     <g id="line2d_74"/>
    </g>
    <g id="ytick_53">
     <g id="line2d_75"/>
    </g>
    <g id="ytick_54">
     <g id="line2d_76"/>
    </g>
    <g id="ytick_55">
     <g id="line2d_77"/>
    </g>
   </g>
   <g id="line2d_78">
    <path d="M 75.557818 287.607273 
L 75.557818 283.137997 
L 76.133171 283.137997 
L 76.133171 278.19371 
L 76.708524 278.19371 
L 76.708524 279.486333 
L 77.283877 279.486333 
L 77.283877 280.86817 
L 77.85923 280.86817 
L 77.85923 280.165337 
L 78.434583 280.165337 
L 78.434583 280.86817 
L 79.585289 280.86817 
L 79.585289 282.352457 
L 80.160642 282.352457 
L 80.160642 284.808022 
L 81.311348 284.808022 
L 81.311348 283.137997 
L 81.886702 283.137997 
L 81.886702 282.352457 
L 82.462055 282.352457 
L 82.462055 283.137997 
L 83.037408 283.137997 
L 83.037408 281.596567 
L 83.612761 281.596567 
L 83.612761 279.486333 
L 84.763467 279.486333 
L 84.763467 278.19371 
L 85.33882 278.19371 
L 85.33882 275.834669 
L 85.914173 275.834669 
L 85.914173 273.724434 
L 86.489526 273.724434 
L 86.489526 274.751772 
L 87.064879 274.751772 
L 87.064879 271.815495 
L 87.640232 271.815495 
L 87.640232 271.365393 
L 88.215585 271.365393 
L 88.215585 257.042345 
L 89.366291 257.042345 
L 89.366291 255.982378 
L 89.941644 255.982378 
L 89.941644 253.83089 
L 90.516997 253.83089 
L 90.516997 254.395116 
L 91.09235 254.395116 
L 91.09235 257.932656 
L 91.667703 257.932656 
L 91.667703 255.37232 
L 92.243056 255.37232 
L 92.243056 255.982378 
L 92.818409 255.982378 
L 92.818409 257.042345 
L 93.393762 257.042345 
L 93.393762 257.932656 
L 93.969115 257.932656 
L 93.969115 257.26124 
L 94.544468 257.26124 
L 94.544468 258.161558 
L 95.119821 258.161558 
L 95.119821 260.093532 
L 95.695174 260.093532 
L 95.695174 257.706341 
L 96.270527 257.706341 
L 96.270527 259.841596 
L 97.421233 259.841596 
L 97.421233 261.134218 
L 97.996586 261.134218 
L 97.996586 260.868934 
L 98.571939 260.868934 
L 98.571939 255.776954 
L 99.147292 255.776954 
L 99.147292 251.720656 
L 99.722645 251.720656 
L 99.722645 248.921405 
L 100.297998 248.921405 
L 100.297998 243.823502 
L 100.873352 243.823502 
L 100.873352 226.917627 
L 101.448705 226.917627 
L 101.448705 229.940664 
L 102.024058 229.940664 
L 102.024058 228.062436 
L 102.599411 228.062436 
L 102.599411 217.729074 
L 103.174764 217.729074 
L 103.174764 212.580386 
L 103.750117 212.580386 
L 103.750117 216.455571 
L 104.32547 216.455571 
L 104.32547 215.640255 
L 104.900823 215.640255 
L 104.900823 212.089863 
L 105.476176 212.089863 
L 105.476176 209.926627 
L 106.051529 209.926627 
L 106.051529 196.34639 
L 106.626882 196.34639 
L 106.626882 185.746445 
L 107.202235 185.746445 
L 107.202235 192.005794 
L 107.777588 192.005794 
L 107.777588 196.536537 
L 108.352941 196.536537 
L 108.352941 200.619497 
L 108.928294 200.619497 
L 108.928294 197.954799 
L 109.503647 197.954799 
L 109.503647 198.218565 
L 110.079 198.218565 
L 110.079 200.169105 
L 110.654353 200.169105 
L 110.654353 199.716176 
L 111.229706 199.716176 
L 111.229706 201.040338 
L 111.805059 201.040338 
L 111.805059 202.160926 
L 112.380412 202.160926 
L 112.380412 201.757417 
L 112.955765 201.757417 
L 112.955765 202.615821 
L 113.531118 202.615821 
L 113.531118 202.372872 
L 114.106471 202.372872 
L 114.106471 201.702393 
L 114.681824 201.702393 
L 114.681824 206.455278 
L 115.257177 206.455278 
L 115.257177 209.94735 
L 115.83253 209.94735 
L 115.83253 209.395222 
L 116.407883 209.395222 
L 116.407883 206.700602 
L 116.983236 206.700602 
L 116.983236 206.024537 
L 117.558589 206.024537 
L 117.558589 206.806668 
L 118.133942 206.806668 
L 118.133942 210.324077 
L 118.709295 210.324077 
L 118.709295 212.604047 
L 119.284649 212.604047 
L 119.284649 213.058992 
L 119.860002 213.058992 
L 119.860002 217.097011 
L 120.435355 217.097011 
L 120.435355 218.861295 
L 121.010708 218.861295 
L 121.010708 223.057412 
L 121.586061 223.057412 
L 121.586061 218.893678 
L 122.161414 218.893678 
L 122.161414 221.264877 
L 122.736767 221.264877 
L 122.736767 223.379165 
L 123.31212 223.379165 
L 123.31212 222.898453 
L 123.887473 222.898453 
L 123.887473 223.996748 
L 124.462826 223.996748 
L 124.462826 226.821103 
L 125.038179 226.821103 
L 125.038179 227.556633 
L 125.613532 227.556633 
L 125.613532 236.311847 
L 126.188885 236.311847 
L 126.188885 231.338582 
L 126.764238 231.338582 
L 126.764238 232.711804 
L 127.339591 232.711804 
L 127.339591 230.97985 
L 127.914944 230.97985 
L 127.914944 231.951129 
L 128.490297 231.951129 
L 128.490297 232.138606 
L 129.06565 232.138606 
L 129.06565 232.647299 
L 129.641003 232.647299 
L 129.641003 236.234665 
L 130.216356 236.234665 
L 130.216356 237.424839 
L 130.791709 237.424839 
L 130.791709 237.181079 
L 131.367062 237.181079 
L 131.367062 235.928878 
L 131.942415 235.928878 
L 131.942415 232.455022 
L 132.517768 232.455022 
L 132.517768 232.97192 
L 133.093121 232.97192 
L 133.093121 232.583001 
L 133.668474 232.583001 
L 133.668474 231.703858 
L 134.243827 231.703858 
L 134.243827 231.098715 
L 134.81918 231.098715 
L 134.81918 227.707037 
L 135.394533 227.707037 
L 135.394533 226.39241 
L 135.969886 226.39241 
L 135.969886 225.381573 
L 136.545239 225.381573 
L 136.545239 221.707518 
L 137.120592 221.707518 
L 137.120592 216.227322 
L 137.695945 216.227322 
L 137.695945 216.114165 
L 138.271299 216.114165 
L 138.271299 216.284141 
L 138.846652 216.284141 
L 138.846652 218.287185 
L 139.422005 218.287185 
L 139.422005 217.975205 
L 139.997358 217.975205 
L 139.997358 220.513041 
L 140.572711 220.513041 
L 140.572711 220.689506 
L 141.148064 220.689506 
L 141.148064 219.519112 
L 141.723417 219.519112 
L 141.723417 220.027052 
L 142.874123 220.095761 
L 142.874123 224.206915 
L 143.449476 224.206915 
L 143.449476 225.247601 
L 144.024829 225.247601 
L 144.024829 222.467712 
L 144.600182 222.467712 
L 144.600182 223.217642 
L 145.175535 223.217642 
L 145.175535 223.913295 
L 145.750888 223.913295 
L 145.750888 222.938075 
L 146.326241 222.938075 
L 146.326241 223.217642 
L 146.901594 223.217642 
L 146.901594 221.448123 
L 147.476947 221.448123 
L 147.476947 222.236609 
L 148.0523 222.236609 
L 148.0523 223.913295 
L 148.627653 223.913295 
L 148.627653 224.080551 
L 149.203006 224.080551 
L 149.203006 223.379165 
L 150.353712 223.298241 
L 150.353712 223.954978 
L 150.929065 223.954978 
L 150.929065 223.257901 
L 152.079771 223.177464 
L 152.079771 222.198349 
L 152.655124 222.198349 
L 152.655124 222.390381 
L 153.230477 222.390381 
L 153.230477 222.780056 
L 153.80583 222.780056 
L 153.80583 222.429009 
L 154.381183 222.429009 
L 154.381183 222.740746 
L 155.531889 222.740746 
L 155.531889 222.938075 
L 156.107242 222.938075 
L 156.107242 222.623275 
L 157.833302 222.545342 
L 157.833302 222.429009 
L 158.408655 222.429009 
L 158.408655 222.084008 
L 158.984008 222.084008 
L 158.984008 221.011116 
L 160.134714 220.939199 
L 160.134714 218.604102 
L 160.710067 218.604102 
L 160.710067 217.698519 
L 161.28542 217.698519 
L 161.28542 217.455744 
L 161.860773 217.455744 
L 161.860773 217.637549 
L 162.436126 217.637549 
L 162.436126 217.245703 
L 163.011479 217.245703 
L 163.011479 217.097011 
L 163.586832 217.097011 
L 163.586832 216.455571 
L 164.162185 216.455571 
L 164.162185 214.102908 
L 164.737538 214.102908 
L 164.737538 210.345215 
L 165.312891 210.345215 
L 165.312891 210.218718 
L 165.888244 210.218718 
L 165.888244 211.814865 
L 166.463597 211.814865 
L 166.463597 211.476343 
L 167.03895 211.476343 
L 167.03895 209.015614 
L 167.614303 209.015614 
L 167.614303 206.931125 
L 168.189656 206.931125 
L 168.189656 206.281868 
L 168.765009 206.281868 
L 168.765009 205.108303 
L 169.340362 205.108303 
L 169.340362 201.840237 
L 169.915715 201.840237 
L 169.915715 208.740437 
L 170.491068 208.740437 
L 170.491068 207.363805 
L 171.066421 207.363805 
L 171.066421 207.510134 
L 171.641774 207.510134 
L 171.641774 208.239211 
L 172.217127 208.239211 
L 172.217127 206.859912 
L 173.367833 206.913298 
L 173.367833 205.87171 
L 173.943186 205.87171 
L 173.943186 204.57803 
L 174.518539 204.57803 
L 174.518539 205.140897 
L 175.093892 205.140897 
L 175.093892 204.849447 
L 175.669246 204.849447 
L 175.669246 204.657477 
L 176.244599 204.657477 
L 176.244599 204.045986 
L 176.819952 204.045986 
L 176.819952 205.108303 
L 177.395305 205.108303 
L 177.395305 205.43665 
L 177.970658 205.43665 
L 177.970658 205.636273 
L 178.546011 205.636273 
L 178.546011 205.939489 
L 179.121364 205.939489 
L 179.121364 206.351052 
L 179.696717 206.351052 
L 179.696717 207.473452 
L 180.27207 207.473452 
L 180.27207 207.236638 
L 180.847423 207.236638 
L 180.847423 207.400287 
L 181.998129 207.436836 
L 181.998129 207.218538 
L 182.573482 207.218538 
L 182.573482 205.905571 
L 183.148835 205.905571 
L 183.148835 205.075763 
L 183.724188 205.075763 
L 183.724188 204.593894 
L 184.874894 204.530512 
L 184.874894 203.86153 
L 185.450247 203.86153 
L 185.450247 203.169779 
L 186.0256 203.169779 
L 186.0256 202.803614 
L 186.600953 202.803614 
L 186.600953 203.051876 
L 187.751659 202.949278 
L 187.751659 203.318141 
L 188.327012 203.318141 
L 188.327012 203.022509 
L 188.902365 203.022509 
L 188.902365 203.214173 
L 190.053071 203.184566 
L 190.053071 202.529737 
L 190.628424 202.529737 
L 190.628424 202.076772 
L 191.203777 202.076772 
L 191.203777 200.438123 
L 191.77913 200.438123 
L 191.77913 198.474155 
L 192.354483 198.474155 
L 192.354483 196.8899 
L 192.929836 196.8899 
L 192.929836 195.593226 
L 193.505189 195.593226 
L 193.505189 194.394486 
L 194.080542 194.394486 
L 194.080542 193.895273 
L 194.655896 193.895273 
L 194.655896 191.745077 
L 195.231249 191.745077 
L 195.231249 189.21317 
L 195.806602 189.21317 
L 195.806602 189.375826 
L 196.381955 189.375826 
L 196.381955 186.90656 
L 196.957308 186.90656 
L 196.957308 186.46521 
L 197.532661 186.46521 
L 197.532661 184.597163 
L 198.108014 184.597163 
L 198.108014 180.511647 
L 198.683367 180.511647 
L 198.683367 178.864525 
L 199.25872 178.864525 
L 199.25872 178.318608 
L 199.834073 178.318608 
L 199.834073 176.187869 
L 200.409426 176.187869 
L 200.409426 170.209069 
L 200.984779 170.209069 
L 200.984779 167.911261 
L 201.560132 167.911261 
L 201.560132 164.698205 
L 202.135485 164.698205 
L 202.135485 157.728444 
L 202.710838 157.728444 
L 202.710838 153.314284 
L 203.286191 153.314284 
L 203.286191 158.68349 
L 203.861544 158.68349 
L 203.861544 170.831623 
L 204.436897 170.831623 
L 204.436897 159.666147 
L 205.01225 159.666147 
L 205.01225 156.043135 
L 205.587603 156.043135 
L 205.587603 158.114365 
L 206.162956 158.114365 
L 206.162956 159.992155 
L 206.738309 159.992155 
L 206.738309 160.16753 
L 207.313662 160.16753 
L 207.313662 160.743898 
L 207.889015 160.743898 
L 207.889015 159.823395 
L 208.464368 159.823395 
L 208.464368 158.938472 
L 209.615074 159.039422 
L 209.615074 157.577651 
L 210.76578 157.530665 
L 210.76578 159.085179 
L 211.341133 159.085179 
L 211.341133 159.657728 
L 211.916486 159.657728 
L 211.916486 161.9508 
L 212.491839 161.9508 
L 212.491839 163.140743 
L 213.067192 163.140743 
L 213.067192 161.708753 
L 213.642546 161.708753 
L 213.642546 161.530504 
L 214.217899 161.530504 
L 214.217899 162.351197 
L 214.793252 162.351197 
L 214.793252 163.695241 
L 215.368605 163.695241 
L 215.368605 167.596001 
L 215.943958 167.596001 
L 215.943958 168.504633 
L 216.519311 168.504633 
L 216.519311 164.378152 
L 217.094664 164.378152 
L 217.094664 163.736474 
L 217.670017 163.736474 
L 217.670017 165.383183 
L 218.24537 165.383183 
L 218.24537 164.267648 
L 218.820723 164.267648 
L 218.820723 163.398817 
L 219.396076 163.398817 
L 219.396076 162.232149 
L 219.971429 162.232149 
L 219.971429 161.834102 
L 220.546782 161.834102 
L 220.546782 162.583641 
L 221.122135 162.583641 
L 221.122135 161.3465 
L 221.697488 161.3465 
L 221.697488 163.194904 
L 222.272841 163.194904 
L 222.272841 161.149656 
L 222.848194 161.149656 
L 222.848194 160.639309 
L 223.423547 160.639309 
L 223.423547 159.737009 
L 223.9989 159.737009 
L 223.9989 157.86806 
L 224.574253 157.86806 
L 224.574253 159.888004 
L 225.149606 159.888004 
L 225.149606 159.150729 
L 225.724959 159.150729 
L 225.724959 158.820261 
L 226.300312 158.820261 
L 226.300312 158.330623 
L 226.875665 158.330623 
L 226.875665 159.001913 
L 227.451018 159.001913 
L 227.451018 158.72362 
L 228.026371 158.72362 
L 228.026371 158.468169 
L 228.601724 158.468169 
L 228.601724 159.163865 
L 229.177077 159.163865 
L 229.177077 158.808962 
L 229.75243 158.808962 
L 229.75243 158.256707 
L 230.327783 158.256707 
L 230.327783 156.658265 
L 230.903136 156.658265 
L 230.903136 150.694477 
L 231.478489 150.694477 
L 231.478489 149.727115 
L 232.053843 149.727115 
L 232.053843 148.57456 
L 232.629196 148.57456 
L 232.629196 148.955699 
L 233.204549 148.955699 
L 233.204549 144.578193 
L 233.779902 144.578193 
L 233.779902 139.224019 
L 234.355255 139.224019 
L 234.355255 135.724665 
L 234.930608 135.724665 
L 234.930608 131.929122 
L 235.505961 131.929122 
L 235.505961 123.688509 
L 236.081314 123.688509 
L 236.081314 121.126976 
L 236.656667 121.126976 
L 236.656667 114.501195 
L 237.23202 114.501195 
L 237.23202 116.037736 
L 237.807373 116.037736 
L 237.807373 123.994292 
L 238.382726 123.994292 
L 238.382726 119.650419 
L 238.958079 119.650419 
L 238.958079 119.97045 
L 239.533432 119.97045 
L 239.533432 124.587763 
L 240.108785 124.587763 
L 240.108785 125.341484 
L 240.684138 125.341484 
L 240.684138 123.488046 
L 241.259491 123.488046 
L 241.259491 123.267395 
L 241.834844 123.267395 
L 241.834844 120.781313 
L 242.410197 120.781313 
L 242.410197 120.913218 
L 242.98555 120.913218 
L 242.98555 120.41492 
L 243.560903 120.41492 
L 243.560903 121.063393 
L 244.136256 121.063393 
L 244.136256 120.803802 
L 244.711609 120.803802 
L 244.711609 121.99479 
L 245.286962 121.99479 
L 245.286962 121.852022 
L 245.862315 121.852022 
L 245.862315 121.065109 
L 246.437668 121.065109 
L 246.437668 121.969642 
L 247.013021 121.969642 
L 247.013021 124.527356 
L 247.588374 124.527356 
L 247.588374 126.919059 
L 248.163727 126.919059 
L 248.163727 126.274188 
L 248.73908 126.274188 
L 248.73908 127.946397 
L 249.314433 127.946397 
L 249.314433 128.649132 
L 249.889786 128.649132 
L 249.889786 128.366202 
L 250.465139 128.366202 
L 250.465139 125.019077 
L 251.040493 125.019077 
L 251.040493 125.960627 
L 252.191199 125.925914 
L 252.191199 126.441804 
L 252.766552 126.441804 
L 252.766552 128.176165 
L 253.341905 128.176165 
L 253.341905 127.730173 
L 253.917258 127.730173 
L 253.917258 131.306418 
L 254.492611 131.306418 
L 254.492611 133.502218 
L 255.067964 133.502218 
L 255.067964 132.65908 
L 255.643317 132.65908 
L 255.643317 136.986733 
L 256.21867 136.986733 
L 256.21867 132.58749 
L 256.794023 132.58749 
L 256.794023 131.631546 
L 257.369376 131.631546 
L 257.369376 131.367004 
L 257.944729 131.367004 
L 257.944729 132.507473 
L 258.520082 132.507473 
L 258.520082 132.92187 
L 259.095435 132.92187 
L 259.095435 133.610609 
L 260.246141 133.571209 
L 260.246141 133.350906 
L 260.821494 133.350906 
L 260.821494 133.051224 
L 261.396847 133.051224 
L 261.396847 131.38341 
L 261.9722 131.38341 
L 261.9722 129.81387 
L 262.547553 129.81387 
L 262.547553 127.894621 
L 263.122906 127.894621 
L 263.122906 126.250357 
L 263.698259 126.250357 
L 263.698259 125.296318 
L 264.273612 125.296318 
L 264.273612 125.68367 
L 264.848965 125.68367 
L 264.848965 127.534196 
L 265.424318 127.534196 
L 265.424318 126.984835 
L 265.999671 126.984835 
L 265.999671 127.554182 
L 266.575024 127.554182 
L 266.575024 128.604794 
L 267.150377 128.604794 
L 267.150377 127.250453 
L 267.72573 127.250453 
L 267.72573 125.790765 
L 268.301083 125.790765 
L 268.301083 126.453349 
L 268.876436 126.453349 
L 268.876436 126.146152 
L 269.451789 126.146152 
L 269.451789 126.462333 
L 270.027143 126.462333 
L 270.027143 126.272916 
L 270.602496 126.272916 
L 270.602496 126.579496 
L 271.177849 126.579496 
L 271.177849 127.462208 
L 271.753202 127.462208 
L 271.753202 127.858802 
L 272.328555 127.858802 
L 272.328555 127.63773 
L 273.479261 127.6214 
L 273.479261 128.312275 
L 274.054614 128.312275 
L 274.054614 129.967354 
L 274.629967 129.967354 
L 274.629967 130.161745 
L 275.20532 130.161745 
L 275.20532 130.582678 
L 276.356026 130.638739 
L 276.356026 131.871859 
L 276.931379 131.871859 
L 276.931379 131.474298 
L 277.506732 131.474298 
L 277.506732 131.998816 
L 278.082085 131.998816 
L 278.082085 131.848327 
L 278.657438 131.848327 
L 278.657438 132.839184 
L 279.232791 132.839184 
L 279.232791 135.31356 
L 279.808144 135.31356 
L 279.808144 134.867219 
L 280.383497 134.867219 
L 280.383497 136.724127 
L 280.95885 136.724127 
L 280.95885 137.542587 
L 281.534203 137.542587 
L 281.534203 138.979109 
L 282.109556 138.979109 
L 282.109556 137.373098 
L 282.684909 137.373098 
L 282.684909 135.631111 
L 283.260262 135.631111 
L 283.260262 135.906922 
L 283.835615 135.906922 
L 283.835615 137.637682 
L 284.410968 137.637682 
L 284.410968 137.994084 
L 284.986321 137.994084 
L 284.986321 138.756714 
L 285.561674 138.756714 
L 285.561674 139.210064 
L 286.137027 139.210064 
L 286.137027 138.221398 
L 286.71238 138.221398 
L 286.71238 134.384797 
L 287.287733 134.384797 
L 287.287733 135.88482 
L 287.863086 135.88482 
L 287.863086 137.678656 
L 288.43844 137.678656 
L 288.43844 136.686127 
L 289.013793 136.686127 
L 289.013793 136.558209 
L 289.589146 136.558209 
L 289.589146 136.418436 
L 290.164499 136.418436 
L 290.164499 136.661012 
L 290.739852 136.661012 
L 290.739852 138.114882 
L 291.315205 138.114882 
L 291.315205 137.604067 
L 291.890558 137.604067 
L 291.890558 140.330735 
L 292.465911 140.330735 
L 292.465911 139.104206 
L 293.041264 139.104206 
L 293.041264 139.227661 
L 293.616617 139.227661 
L 293.616617 140.411716 
L 294.19197 140.411716 
L 294.19197 142.153972 
L 294.767323 142.153972 
L 294.767323 141.267602 
L 295.342676 141.267602 
L 295.342676 143.266944 
L 295.918029 143.266944 
L 295.918029 148.256676 
L 296.493382 148.256676 
L 296.493382 147.711541 
L 297.068735 147.711541 
L 297.068735 146.134154 
L 297.644088 146.134154 
L 297.644088 143.729744 
L 298.219441 143.729744 
L 298.219441 147.413355 
L 298.794794 147.413355 
L 298.794794 146.743214 
L 299.370147 146.743214 
L 299.370147 146.990332 
L 299.9455 146.990332 
L 299.9455 147.133952 
L 300.520853 147.133952 
L 300.520853 146.066566 
L 301.096206 146.066566 
L 301.096206 145.125593 
L 301.671559 145.125593 
L 301.671559 145.607242 
L 302.246912 145.607242 
L 302.246912 144.506165 
L 302.822265 144.506165 
L 302.822265 143.238742 
L 303.397618 143.238742 
L 303.397618 142.875683 
L 303.972971 142.875683 
L 303.972971 141.476374 
L 304.548324 141.476374 
L 304.548324 141.861751 
L 305.123677 141.861751 
L 305.123677 143.837962 
L 305.69903 143.837962 
L 305.69903 145.189256 
L 306.274383 145.189256 
L 306.274383 144.548875 
L 306.849736 144.548875 
L 306.849736 145.067818 
L 307.42509 145.067818 
L 307.42509 143.959065 
L 308.000443 143.959065 
L 308.000443 145.353427 
L 308.575796 145.353427 
L 308.575796 147.072788 
L 309.726502 147.106045 
L 309.726502 145.951593 
L 310.301855 145.951593 
L 310.301855 146.780354 
L 311.452561 146.839743 
L 311.452561 145.646513 
L 312.027914 145.646513 
L 312.027914 145.840654 
L 312.603267 145.840654 
L 312.603267 145.52311 
L 313.17862 145.52311 
L 313.17862 145.822927 
L 313.753973 145.822927 
L 313.753973 146.333104 
L 314.329326 146.333104 
L 314.329326 145.790046 
L 314.904679 145.790046 
L 314.904679 145.997503 
L 315.480032 145.997503 
L 315.480032 146.599727 
L 316.055385 146.599727 
L 316.055385 147.084466 
L 316.630738 147.084466 
L 316.630738 146.659462 
L 317.206091 146.659462 
L 317.206091 146.489511 
L 317.781444 146.489511 
L 317.781444 144.786225 
L 318.356797 144.786225 
L 318.356797 145.209704 
L 318.93215 145.209704 
L 318.93215 145.58555 
L 319.507503 145.58555 
L 319.507503 144.899515 
L 320.082856 144.899515 
L 320.082856 144.413151 
L 320.658209 144.413151 
L 320.658209 143.352536 
L 321.233562 143.352536 
L 321.233562 142.165919 
L 321.808915 142.165919 
L 321.808915 141.956134 
L 322.384268 141.956134 
L 322.384268 142.749355 
L 323.534974 142.660533 
L 323.534974 141.618141 
L 324.110327 141.618141 
L 324.110327 141.919299 
L 324.68568 141.919299 
L 324.68568 142.434841 
L 325.261033 142.434841 
L 325.261033 142.563496 
L 325.836386 142.563496 
L 325.836386 143.170627 
L 326.41174 143.170627 
L 326.41174 143.889226 
L 326.987093 143.889226 
L 326.987093 146.783894 
L 327.562446 146.783894 
L 327.562446 146.617278 
L 328.137799 146.617278 
L 328.137799 146.885067 
L 328.713152 146.885067 
L 328.713152 146.432889 
L 329.863858 146.391179 
L 329.863858 145.253943 
L 330.439211 145.253943 
L 330.439211 146.046931 
L 331.014564 146.046931 
L 331.014564 146.600604 
L 331.589917 146.600604 
L 331.589917 146.44072 
L 332.16527 146.44072 
L 332.16527 146.109317 
L 332.740623 146.109317 
L 332.740623 145.674132 
L 333.315976 145.674132 
L 333.315976 145.789204 
L 333.891329 145.789204 
L 333.891329 145.042645 
L 335.042035 145.130483 
L 335.042035 144.58771 
L 335.617388 144.58771 
L 335.617388 143.919127 
L 336.192741 143.919127 
L 336.192741 142.92308 
L 336.768094 142.92308 
L 336.768094 142.04188 
L 337.343447 142.04188 
L 337.343447 139.335396 
L 337.9188 139.335396 
L 337.9188 135.146995 
L 338.494153 135.146995 
L 338.494153 136.03177 
L 339.069506 136.03177 
L 339.069506 140.54223 
L 339.644859 140.54223 
L 339.644859 139.904907 
L 340.220212 139.904907 
L 340.220212 139.474419 
L 340.795565 139.474419 
L 340.795565 139.623699 
L 341.370918 139.623699 
L 341.370918 137.592875 
L 341.946271 137.592875 
L 341.946271 137.338267 
L 342.521624 137.338267 
L 342.521624 136.035393 
L 343.096977 136.035393 
L 343.096977 134.561942 
L 343.67233 134.561942 
L 343.67233 133.765289 
L 344.247683 133.765289 
L 344.247683 132.721275 
L 344.823037 132.721275 
L 344.823037 133.537369 
L 345.39839 133.537369 
L 345.39839 132.768707 
L 345.973743 132.768707 
L 345.973743 133.772685 
L 347.124449 133.794425 
L 347.124449 133.957068 
L 347.699802 133.957068 
L 347.699802 133.082018 
L 348.275155 133.082018 
L 348.275155 133.943542 
L 348.850508 133.943542 
L 348.850508 136.111106 
L 349.425861 136.111106 
L 349.425861 136.319493 
L 350.001214 136.319493 
L 350.001214 135.793073 
L 350.576567 135.793073 
L 350.576567 136.578408 
L 351.15192 136.578408 
L 351.15192 137.016065 
L 351.727273 137.016065 
L 351.727273 136.663682 
L 352.302626 136.663682 
L 352.302626 136.503031 
L 352.877979 136.503031 
L 352.877979 135.410655 
L 353.453332 135.410655 
L 353.453332 134.39481 
L 354.604038 134.429653 
L 354.604038 133.848648 
L 355.179391 133.848648 
L 355.179391 134.274991 
L 355.754744 134.274991 
L 355.754744 135.088159 
L 356.330097 135.088159 
L 356.330097 134.58552 
L 357.480803 134.634206 
L 357.480803 134.976402 
L 358.056156 134.976402 
L 358.056156 134.566752 
L 359.206862 134.539353 
L 359.206862 134.694626 
L 359.782215 134.694626 
L 359.782215 134.465036 
L 360.932921 134.39624 
L 360.932921 134.268829 
L 361.508274 134.268829 
L 361.508274 133.948205 
L 362.083627 133.948205 
L 362.083627 133.647329 
L 362.65898 133.647329 
L 362.65898 132.926744 
L 363.234333 132.926744 
L 363.234333 133.222757 
L 363.809687 133.222757 
L 363.809687 132.878937 
L 364.38504 132.878937 
L 364.38504 133.040078 
L 364.960393 133.040078 
L 364.960393 132.543093 
L 365.535746 132.543093 
L 365.535746 132.754641 
L 366.111099 132.754641 
L 366.111099 132.8754 
L 366.686452 132.8754 
L 366.686452 133.316532 
L 367.261805 133.316532 
L 367.261805 133.069963 
L 367.837158 133.069963 
L 367.837158 130.454174 
L 368.412511 130.454174 
L 368.412511 129.434672 
L 368.987864 129.434672 
L 368.987864 127.801074 
L 369.563217 127.801074 
L 369.563217 128.00004 
L 370.13857 128.00004 
L 370.13857 124.590979 
L 370.713923 124.590979 
L 370.713923 122.72857 
L 371.289276 122.72857 
L 371.289276 127.49158 
L 371.864629 127.49158 
L 371.864629 126.266876 
L 372.439982 126.266876 
L 372.439982 125.101367 
L 373.015335 125.101367 
L 373.015335 124.68503 
L 373.590688 124.68503 
L 373.590688 125.250347 
L 375.316747 125.301163 
L 375.316747 125.114865 
L 375.8921 125.114865 
L 375.8921 125.296318 
L 376.467453 125.296318 
L 376.467453 125.476985 
L 377.042806 125.476985 
L 377.042806 127.065375 
L 377.618159 127.065375 
L 377.618159 128.18211 
L 378.193512 128.18211 
L 378.193512 127.757887 
L 379.344218 127.814117 
L 379.344218 128.245157 
L 379.919571 128.245157 
L 379.919571 128.02466 
L 381.070277 128.076426 
L 381.070277 128.22482 
L 382.220983 128.207305 
L 382.220983 126.979565 
L 382.796337 126.979565 
L 382.796337 126.540151 
L 383.37169 126.540151 
L 383.37169 126.952249 
L 384.522396 127.007578 
L 384.522396 127.448718 
L 385.097749 127.448718 
L 385.097749 127.024734 
L 386.823808 127.011866 
L 386.823808 126.773153 
L 387.399161 126.773153 
L 387.399161 126.10954 
L 387.974514 126.10954 
L 387.974514 125.989756 
L 388.549867 125.989756 
L 388.549867 126.308236 
L 389.12522 126.308236 
L 389.12522 125.834884 
L 389.700573 125.834884 
L 389.700573 124.569943 
L 390.275926 124.569943 
L 390.275926 123.415695 
L 390.851279 123.415695 
L 390.851279 124.063357 
L 391.426632 124.063357 
L 391.426632 123.556772 
L 392.001985 123.556772 
L 392.001985 124.151812 
L 392.577338 124.151812 
L 392.577338 123.135401 
L 394.303397 123.12915 
L 394.303397 123.321644 
L 394.87875 123.321644 
L 394.87875 122.437442 
L 396.029456 122.345512 
L 396.029456 122.300878 
L 396.604809 122.300878 
L 396.604809 122.101377 
L 397.180162 122.101377 
L 397.180162 121.714061 
L 397.755515 121.714061 
L 397.755515 118.821554 
L 398.330868 118.821554 
L 398.330868 118.465121 
L 398.906221 118.465121 
L 398.906221 117.735832 
L 399.481574 117.735832 
L 399.481574 114.943912 
L 400.056927 114.943912 
L 400.056927 118.897084 
L 400.63228 118.897084 
L 400.63228 121.350498 
L 401.207634 121.350498 
L 401.207634 120.737376 
L 401.782987 120.737376 
L 401.782987 119.226443 
L 402.35834 119.226443 
L 402.35834 119.49774 
L 402.933693 119.49774 
L 402.933693 118.719036 
L 403.509046 118.719036 
L 403.509046 117.353805 
L 404.084399 117.353805 
L 404.084399 116.798248 
L 404.659752 116.798248 
L 404.659752 117.31474 
L 405.235105 117.31474 
L 405.235105 116.994925 
L 405.810458 116.994925 
L 405.810458 115.955138 
L 406.385811 115.955138 
L 406.385811 114.659904 
L 406.961164 114.659904 
L 406.961164 114.213252 
L 407.536517 114.213252 
L 407.536517 112.95463 
L 408.11187 112.95463 
L 408.11187 112.215352 
L 408.687223 112.215352 
L 408.687223 113.499741 
L 409.262576 113.499741 
L 409.262576 112.698917 
L 409.837929 112.698917 
L 409.837929 115.695677 
L 410.413282 115.695677 
L 410.413282 114.874691 
L 410.988635 114.874691 
L 410.988635 117.79883 
L 411.563988 117.79883 
L 411.563988 116.237835 
L 412.139341 116.237835 
L 412.139341 115.477701 
L 412.714694 115.477701 
L 412.714694 113.472205 
L 413.290047 113.472205 
L 413.290047 113.201232 
L 413.8654 113.201232 
L 413.8654 113.868202 
L 414.440753 113.868202 
L 414.440753 113.347262 
L 415.016106 113.347262 
L 415.016106 112.820031 
L 415.591459 112.820031 
L 415.591459 111.949557 
L 416.166812 111.949557 
L 416.166812 110.937153 
L 416.742165 110.937153 
L 416.742165 108.406962 
L 417.317518 108.406962 
L 417.317518 106.975718 
L 417.892871 106.975718 
L 417.892871 106.475211 
L 418.468224 106.475211 
L 418.468224 106.285513 
L 419.043577 106.285513 
L 419.043577 103.047775 
L 419.61893 103.047775 
L 419.61893 99.3059 
L 420.194284 99.3059 
L 420.194284 101.434165 
L 420.769637 101.434165 
L 420.769637 99.401745 
L 421.34499 99.401745 
L 421.34499 97.13193 
L 421.920343 97.13193 
L 421.920343 96.217978 
L 422.495696 96.217978 
L 422.495696 97.080942 
L 423.071049 97.080942 
L 423.071049 97.653341 
L 423.646402 97.653341 
L 423.646402 97.434209 
L 424.221755 97.434209 
L 424.221755 98.650574 
L 424.797108 98.650574 
L 424.797108 98.335587 
L 425.947814 98.27076 
L 425.947814 98.643931 
L 426.523167 98.643931 
L 426.523167 100.241902 
L 427.09852 100.241902 
L 427.09852 103.415545 
L 427.673873 103.415545 
L 427.673873 100.642127 
L 428.249226 100.642127 
L 428.249226 96.76984 
L 428.824579 96.76984 
L 428.824579 97.450487 
L 429.399932 97.450487 
L 429.399932 95.952053 
L 430.550638 95.996737 
L 430.550638 92.456833 
L 431.125991 92.456833 
L 431.125991 89.922675 
L 431.701344 89.922675 
L 431.701344 87.454791 
L 432.276697 87.454791 
L 432.276697 88.981725 
L 432.85205 88.981725 
L 432.85205 87.657344 
L 433.427403 87.657344 
L 433.427403 87.450855 
L 434.002756 87.450855 
L 434.002756 85.15428 
L 434.578109 85.15428 
L 434.578109 87.412634 
L 435.153462 87.412634 
L 435.153462 87.661505 
L 435.728815 87.661505 
L 435.728815 89.939767 
L 436.304168 89.939767 
L 436.304168 90.931296 
L 436.879521 90.931296 
L 436.879521 91.358385 
L 437.454874 91.358385 
L 437.454874 89.596785 
L 438.030227 89.596785 
L 438.030227 88.44718 
L 438.605581 88.44718 
L 438.605581 87.766017 
L 439.180934 87.766017 
L 439.180934 87.165508 
L 439.756287 87.165508 
L 439.756287 85.509309 
L 440.33164 85.509309 
L 440.33164 82.188887 
L 441.482346 82.169648 
L 441.482346 81.46695 
L 442.057699 81.46695 
L 442.057699 81.91558 
L 442.633052 81.91558 
L 442.633052 79.789478 
L 443.208405 79.789478 
L 443.208405 77.024161 
L 443.783758 77.024161 
L 443.783758 76.747511 
L 444.359111 76.747511 
L 444.359111 81.502657 
L 444.934464 81.502657 
L 444.934464 75.7017 
L 445.509817 75.7017 
L 445.509817 74.771576 
L 446.660523 74.844677 
L 446.660523 71.064047 
L 447.235876 71.064047 
L 447.235876 69.151492 
L 447.811229 69.151492 
L 447.811229 64.386582 
L 448.386582 64.386582 
L 448.386582 62.688359 
L 448.961935 62.688359 
L 448.961935 60.983079 
L 449.537288 60.983079 
L 449.537288 58.138856 
L 450.112641 58.138856 
L 450.112641 64.484215 
L 450.687994 64.484215 
L 450.687994 61.894793 
L 451.263347 61.894793 
L 451.263347 66.252362 
L 451.8387 66.252362 
L 451.8387 62.727887 
L 452.414053 62.727887 
L 452.414053 61.247552 
L 452.989406 61.247552 
L 452.989406 65.211162 
L 453.564759 65.211162 
L 453.564759 64.810286 
L 454.140112 64.810286 
L 454.140112 68.090569 
L 454.715465 68.090569 
L 454.715465 69.30141 
L 455.290818 69.30141 
L 455.290818 68.221789 
L 455.866171 68.221789 
L 455.866171 70.49668 
L 456.441524 70.49668 
L 456.441524 74.870838 
L 457.592231 74.766061 
L 457.592231 73.244809 
L 458.167584 73.244809 
L 458.167584 70.546677 
L 458.742937 70.546677 
L 458.742937 68.549271 
L 459.31829 68.549271 
L 459.31829 71.511708 
L 459.893643 71.511708 
L 459.893643 70.246729 
L 460.468996 70.246729 
L 460.468996 68.072613 
L 461.044349 68.072613 
L 461.044349 72.301956 
L 461.619702 72.301956 
L 461.619702 72.724154 
L 462.195055 72.724154 
L 462.195055 74.638186 
L 462.770408 74.638186 
L 462.770408 73.212796 
L 463.345761 73.212796 
L 463.345761 74.076805 
L 463.921114 74.076805 
L 463.921114 75.494465 
L 464.496467 75.494465 
L 464.496467 78.54452 
L 465.07182 78.54452 
L 465.07182 78.664803 
L 466.222526 78.671444 
L 466.222526 75.634412 
L 467.373232 75.604146 
L 467.373232 73.16643 
L 467.948585 73.16643 
L 467.948585 73.302485 
L 468.523938 73.302485 
L 468.523938 72.143847 
L 469.099291 72.143847 
L 469.099291 71.401356 
L 469.674644 71.401356 
L 469.674644 72.206257 
L 470.249997 72.206257 
L 470.249997 74.400786 
L 470.82535 74.400786 
L 470.82535 74.224505 
L 471.400703 74.224505 
L 471.400703 74.773374 
L 471.976056 74.773374 
L 471.976056 76.631272 
L 472.551409 76.631272 
L 472.551409 77.082516 
L 473.126762 77.082516 
L 473.126762 76.690684 
L 474.277468 76.675153 
L 474.277468 76.356856 
L 474.852821 76.356856 
L 474.852821 79.366528 
L 475.428174 79.366528 
L 475.428174 79.564088 
L 476.003527 79.564088 
L 476.003527 78.741178 
L 476.578881 78.741178 
L 476.578881 80.614853 
L 477.154234 80.614853 
L 477.154234 81.543299 
L 477.729587 81.543299 
L 477.729587 79.143313 
L 478.880293 79.136816 
L 478.880293 80.062286 
L 479.455646 80.062286 
L 479.455646 80.318434 
L 480.030999 80.318434 
L 480.030999 77.010244 
L 481.181705 76.91388 
L 481.181705 75.52169 
L 481.757058 75.52169 
L 481.757058 74.945626 
L 482.332411 74.945626 
L 482.332411 76.891962 
L 482.907764 76.891962 
L 482.907764 78.867778 
L 483.483117 78.867778 
L 483.483117 80.385824 
L 484.05847 80.385824 
L 484.05847 80.248587 
L 484.633823 80.248587 
L 484.633823 79.570571 
L 485.209176 79.570571 
L 485.209176 79.449344 
L 485.784529 79.449344 
L 485.784529 78.329421 
L 486.359882 78.329421 
L 486.359882 77.991228 
L 486.935235 77.991228 
L 486.935235 77.042659 
L 487.510588 77.042659 
L 487.510588 80.52715 
L 488.085941 80.52715 
L 488.085941 80.07251 
L 488.661294 80.07251 
L 488.661294 79.537282 
L 489.812 79.541444 
L 489.812 79.273675 
L 490.387353 79.273675 
L 490.387353 79.136604 
L 490.962706 79.136604 
L 490.962706 79.463621 
L 491.538059 79.463621 
L 491.538059 79.303603 
L 492.688765 79.280917 
L 492.688765 80.266194 
L 493.264118 80.266194 
L 493.264118 79.499587 
L 494.414824 79.548012 
L 494.414824 79.615114 
L 494.990178 79.615114 
L 494.990178 80.150007 
L 495.565531 80.150007 
L 495.565531 79.961184 
L 496.140884 79.961184 
L 496.140884 79.416011 
L 496.716237 79.416011 
L 496.716237 79.813029 
L 497.29159 79.813029 
L 497.29159 82.305209 
L 497.866943 82.305209 
L 497.866943 85.39909 
L 498.442296 85.39909 
L 498.442296 87.559515 
L 499.017649 87.559515 
L 499.017649 90.131213 
L 499.593002 90.131213 
L 499.593002 88.332941 
L 500.168355 88.332941 
L 500.168355 90.572721 
L 500.743708 90.572721 
L 500.743708 91.42792 
L 501.319061 91.42792 
L 501.319061 93.057066 
L 501.894414 93.057066 
L 501.894414 91.606765 
L 502.469767 91.606765 
L 502.469767 89.761224 
L 503.04512 89.761224 
L 503.04512 90.1675 
L 503.620473 90.1675 
L 503.620473 90.437443 
L 504.195826 90.437443 
L 504.195826 89.600198 
L 504.771179 89.600198 
L 504.771179 88.897089 
L 505.346532 88.897089 
L 505.346532 91.107828 
L 505.921885 91.107828 
L 505.921885 90.9098 
L 506.497238 90.9098 
L 506.497238 91.220862 
L 507.072591 91.220862 
L 507.072591 91.434005 
L 508.223297 91.495794 
L 508.223297 92.100143 
L 509.374003 92.180998 
L 509.374003 92.539203 
L 509.949356 92.539203 
L 509.949356 91.200213 
L 510.524709 91.200213 
L 510.524709 91.317933 
L 511.100062 91.317933 
L 511.100062 89.624566 
L 511.675415 89.624566 
L 511.675415 88.566187 
L 512.250768 88.566187 
L 512.250768 90.106222 
L 513.401474 90.203906 
L 513.401474 89.828152 
L 514.552181 89.857701 
L 514.552181 89.573775 
L 515.127534 89.573775 
L 515.127534 89.108037 
L 516.853593 89.011831 
L 516.853593 88.689654 
L 517.428946 88.689654 
L 517.428946 85.142736 
L 518.004299 85.142736 
L 518.004299 83.735537 
L 518.579652 83.735537 
L 518.579652 84.49428 
L 519.155005 84.49428 
L 519.155005 84.01136 
L 519.730358 84.01136 
L 519.730358 83.581903 
L 520.305711 83.581903 
L 520.305711 83.116151 
L 520.881064 83.116151 
L 520.881064 83.612067 
L 521.456417 83.612067 
L 521.456417 83.279093 
L 522.03177 83.279093 
L 522.03177 82.21431 
L 522.607123 82.21431 
L 522.607123 80.00304 
L 523.182476 80.00304 
L 523.182476 75.388739 
L 523.757829 75.388739 
L 523.757829 77.300523 
L 524.333182 77.300523 
L 524.333182 76.329549 
L 524.908535 76.329549 
L 524.908535 73.588391 
L 525.483888 73.588391 
L 525.483888 74.699661 
L 526.059241 74.699661 
L 526.059241 75.035462 
L 526.634594 75.035462 
L 526.634594 75.374711 
L 527.209947 75.374711 
L 527.209947 75.577846 
L 527.7853 75.577846 
L 527.7853 73.326593 
L 528.360653 73.326593 
L 528.360653 72.394101 
L 528.936006 72.394101 
L 528.936006 69.332889 
L 529.511359 69.332889 
L 529.511359 68.751771 
L 530.086712 68.751771 
L 530.086712 69.774352 
L 530.662065 69.774352 
L 530.662065 69.074026 
L 531.237418 69.074026 
L 531.237418 66.293311 
L 531.812771 66.293311 
L 531.812771 68.295987 
L 532.388124 68.295987 
L 532.388124 71.56439 
L 532.963478 71.56439 
L 532.963478 69.757906 
L 533.538831 69.757906 
L 533.538831 71.152746 
L 534.114184 71.152746 
L 534.114184 71.925688 
L 534.689537 71.925688 
L 534.689537 69.867663 
L 535.26489 69.867663 
L 535.26489 68.161783 
L 535.840243 68.161783 
L 535.840243 68.484832 
L 536.415596 68.484832 
L 536.415596 70.867214 
L 536.990949 70.867214 
L 536.990949 70.274935 
L 537.566302 70.274935 
L 537.566302 70.678119 
L 538.141655 70.678119 
L 538.141655 70.192254 
L 538.717008 70.192254 
L 538.717008 71.764738 
L 539.292361 71.764738 
L 539.292361 69.693916 
L 539.867714 69.693916 
L 539.867714 69.948362 
L 540.443067 69.948362 
L 540.443067 70.584572 
L 541.01842 70.584572 
L 541.01842 70.288858 
L 542.169126 70.356086 
L 542.169126 71.545559 
L 542.744479 71.545559 
L 542.744479 74.890773 
L 543.319832 74.890773 
L 543.319832 74.577861 
L 543.895185 74.577861 
L 543.895185 75.004046 
L 544.470538 75.004046 
L 544.470538 73.950094 
L 545.045891 73.950094 
L 545.045891 74.67232 
L 545.621244 74.67232 
L 545.621244 75.179121 
L 546.196597 75.179121 
L 546.196597 74.820938 
L 546.77195 74.820938 
L 546.77195 73.766993 
L 547.347303 73.766993 
L 547.347303 72.069504 
L 547.922656 72.069504 
L 547.922656 72.352109 
L 549.073362 72.261529 
L 549.073362 72.928951 
L 549.648715 72.928951 
L 549.648715 73.846811 
L 550.224068 73.846811 
L 550.224068 74.9346 
L 550.799421 74.9346 
L 550.799421 77.241888 
L 551.374775 77.241888 
L 551.374775 77.582093 
L 551.950128 77.582093 
L 551.950128 76.509502 
L 552.525481 76.509502 
L 552.525481 77.500563 
L 553.100834 77.500563 
L 553.100834 76.603349 
L 553.676187 76.603349 
L 553.676187 77.510841 
L 554.25154 77.510841 
L 554.25154 78.392555 
L 554.826893 78.392555 
L 554.826893 77.508027 
L 555.402246 77.508027 
L 555.402246 77.34015 
L 555.977599 77.34015 
L 555.977599 77.201466 
L 556.552952 77.201466 
L 556.552952 77.548431 
L 557.128305 77.548431 
L 557.128305 77.063409 
L 557.703658 77.063409 
L 557.703658 75.83155 
L 558.279011 75.83155 
L 558.279011 75.10867 
L 558.854364 75.10867 
L 558.854364 73.23441 
L 559.429717 73.23441 
L 559.429717 73.639212 
L 560.00507 73.639212 
L 560.00507 74.56718 
L 560.580423 74.56718 
L 560.580423 72.398179 
L 561.731129 72.323318 
L 561.731129 71.396613 
L 562.306482 71.396613 
L 562.306482 71.194123 
L 562.881835 71.194123 
L 562.881835 70.176312 
L 563.457188 70.176312 
L 563.457188 70.542565 
L 564.032541 70.542565 
L 564.032541 71.574019 
L 564.607894 71.574019 
L 564.607894 73.494474 
L 565.183247 73.494474 
L 565.183247 74.075843 
L 565.7586 74.075843 
L 565.7586 72.861976 
L 566.333953 72.861976 
L 566.333953 75.541553 
L 566.909306 75.541553 
L 566.909306 82.481896 
L 567.484659 82.481896 
L 567.484659 83.400408 
L 568.060012 83.400408 
L 568.060012 80.508406 
L 568.635365 80.508406 
L 568.635365 78.926804 
L 569.210718 78.926804 
L 569.210718 81.518543 
L 569.786071 81.518543 
L 569.786071 78.598658 
L 570.361425 78.598658 
L 570.361425 77.086225 
L 570.936778 77.086225 
L 570.936778 78.410905 
L 572.087484 78.414665 
L 572.087484 77.316215 
L 572.662837 77.316215 
L 572.662837 77.673559 
L 573.23819 77.673559 
L 573.23819 76.13785 
L 573.813543 76.13785 
L 573.813543 73.855049 
L 574.388896 73.855049 
L 574.388896 73.266863 
L 574.964249 73.266863 
L 574.964249 71.261284 
L 575.539602 71.261284 
L 575.539602 73.428447 
L 576.114955 73.428447 
L 576.114955 72.17093 
L 576.690308 72.17093 
L 576.690308 71.906009 
L 577.265661 71.906009 
L 577.265661 73.619772 
L 577.841014 73.619772 
L 577.841014 71.783106 
L 578.416367 71.783106 
L 578.416367 70.496229 
L 578.99172 70.496229 
L 578.99172 71.669276 
L 579.567073 71.669276 
L 579.567073 71.356639 
L 580.142426 71.356639 
L 580.142426 71.984439 
L 581.293132 72.023993 
L 581.293132 72.387456 
L 582.443838 72.482444 
L 582.443838 72.603098 
L 583.019191 72.603098 
L 583.019191 72.850869 
L 583.594544 72.850869 
L 583.594544 72.449137 
L 584.74525 72.493046 
L 584.74525 72.585313 
L 585.895956 72.539289 
L 585.895956 71.691432 
L 586.471309 71.691432 
L 586.471309 68.915161 
L 587.046662 68.915161 
L 587.046662 68.375669 
L 587.622015 68.375669 
L 587.622015 68.641612 
L 588.197368 68.641612 
L 588.197368 67.641184 
L 588.772721 67.641184 
L 588.772721 67.974976 
L 589.348075 67.974976 
L 589.348075 67.393529 
L 590.498781 67.474705 
L 590.498781 67.647431 
L 591.074134 67.647431 
L 591.074134 68.041473 
L 591.649487 68.041473 
L 591.649487 67.378001 
L 592.22484 67.378001 
L 592.22484 70.58398 
L 592.800193 70.58398 
L 592.800193 70.44996 
L 593.375546 70.44996 
L 593.375546 70.249385 
L 593.950899 70.249385 
L 593.950899 69.094641 
L 594.526252 69.094641 
L 594.526252 70.057038 
L 595.101605 70.057038 
L 595.101605 69.559446 
L 595.676958 69.559446 
L 595.676958 69.284203 
L 596.252311 69.284203 
L 596.252311 69.825442 
L 596.827664 69.825442 
L 596.827664 69.600771 
L 597.403017 69.600771 
L 597.403017 68.317964 
L 597.97837 68.317964 
L 597.97837 68.095408 
L 598.553723 68.095408 
L 598.553723 67.657258 
L 599.129076 67.657258 
L 599.129076 65.731997 
L 599.704429 65.731997 
L 599.704429 64.666977 
L 600.279782 64.666977 
L 600.279782 64.435267 
L 600.855135 64.435267 
L 600.855135 63.940689 
L 601.430488 63.940689 
L 601.430488 62.135626 
L 602.005841 62.135626 
L 602.005841 61.120974 
L 602.581194 61.120974 
L 602.581194 60.599822 
L 603.156547 60.599822 
L 603.156547 58.377865 
L 603.7319 58.377865 
L 603.7319 57.864613 
L 604.307253 57.864613 
L 604.307253 59.428523 
L 604.882606 59.428523 
L 604.882606 57.807812 
L 605.457959 57.807812 
L 605.457959 57.651451 
L 606.033312 57.651451 
L 606.033312 58.854746 
L 606.608665 58.854746 
L 606.608665 57.75619 
L 607.184018 57.75619 
L 607.184018 54.088183 
L 607.759372 54.088183 
L 607.759372 53.513237 
L 608.334725 53.513237 
L 608.334725 51.424957 
L 608.910078 51.424957 
L 608.910078 49.67567 
L 609.485431 49.67567 
L 609.485431 46.987963 
L 610.060784 46.987963 
L 610.060784 43.394493 
L 610.636137 43.394493 
L 610.636137 45.500499 
L 611.21149 45.500499 
L 611.21149 44.789986 
L 611.786843 44.789986 
L 611.786843 45.234515 
L 612.362196 45.234515 
L 612.362196 47.542422 
L 612.937549 47.542422 
L 612.937549 48.619465 
L 613.512902 48.619465 
L 613.512902 46.905785 
L 614.088255 46.905785 
L 614.088255 44.695814 
L 614.663608 44.695814 
L 614.663608 40.178232 
L 615.238961 40.178232 
L 615.238961 39.705602 
L 615.814314 39.705602 
L 615.814314 39.005501 
L 616.389667 39.005501 
L 616.389667 36.395945 
L 616.96502 36.395945 
L 616.96502 38.417457 
L 617.540373 38.417457 
L 617.540373 40.725796 
L 618.115726 40.725796 
L 618.115726 39.297369 
L 618.691079 39.297369 
L 618.691079 37.765699 
L 619.266432 37.765699 
L 619.266432 35.953074 
L 619.841785 35.953074 
L 619.841785 36.086768 
L 620.417138 36.086768 
L 620.417138 35.663934 
L 620.992491 35.663934 
L 620.992491 37.685858 
L 621.567844 37.685858 
L 621.567844 36.473881 
L 622.143197 36.473881 
L 622.143197 35.440669 
L 623.293903 35.332804 
L 623.293903 35.658149 
L 623.869256 35.658149 
L 623.869256 33.861839 
L 624.444609 33.861839 
L 624.444609 34.985486 
L 625.019962 34.985486 
L 625.019962 37.195813 
L 625.595315 37.195813 
L 625.595315 39.039965 
L 626.170668 39.039965 
L 626.170668 37.279608 
L 626.746022 37.279608 
L 626.746022 35.967055 
L 627.896728 35.908699 
L 627.896728 36.129913 
L 628.472081 36.129913 
L 628.472081 40.018055 
L 629.047434 40.018055 
L 629.047434 44.716296 
L 629.622787 44.716296 
L 629.622787 45.950896 
L 630.19814 45.950896 
L 630.19814 43.92948 
L 630.773493 43.92948 
L 630.773493 44.529546 
L 631.348846 44.529546 
L 631.348846 44.759016 
L 631.924199 44.759016 
L 631.924199 46.717049 
L 632.499552 46.717049 
L 632.499552 45.528715 
L 633.074905 45.528715 
L 633.074905 43.992313 
L 633.650258 43.992313 
L 633.650258 45.473802 
L 634.225611 45.473802 
L 634.225611 46.017372 
L 635.376317 46.123296 
L 635.376317 46.475019 
L 635.95167 46.475019 
L 635.95167 46.266602 
L 636.527023 46.266602 
L 636.527023 46.67794 
L 637.102376 46.67794 
L 637.102376 47.101272 
L 637.677729 47.101272 
L 637.677729 47.740726 
L 638.253082 47.740726 
L 638.253082 47.419166 
L 638.828435 47.419166 
L 638.828435 44.525467 
L 639.403788 44.525467 
L 639.403788 42.05641 
L 639.979141 42.05641 
L 639.979141 44.090211 
L 640.554494 44.090211 
L 640.554494 40.939943 
L 641.129847 40.939943 
L 641.129847 40.506118 
L 641.7052 40.506118 
L 641.7052 39.881461 
L 642.280553 39.881461 
L 642.280553 40.018882 
L 642.855906 40.018882 
L 642.855906 38.85799 
L 643.431259 38.85799 
L 643.431259 39.047607 
L 644.006612 39.047607 
L 644.006612 39.839172 
L 644.581965 39.839172 
L 644.581965 38.68729 
L 645.157318 38.68729 
L 645.157318 40.302128 
L 646.308025 40.310502 
L 646.308025 39.573617 
L 646.883378 39.573617 
L 646.883378 41.732892 
L 648.034084 41.773082 
L 648.034084 42.635465 
L 648.609437 42.635465 
L 648.609437 39.598009 
L 649.18479 39.598009 
L 649.18479 36.632468 
L 649.760143 36.632468 
L 649.760143 36.894017 
L 650.335496 36.894017 
L 650.335496 35.902602 
L 650.910849 35.902602 
L 650.910849 34.366979 
L 651.486202 34.366979 
L 651.486202 34.783191 
L 652.061555 34.783191 
L 652.061555 34.899645 
L 652.636908 34.899645 
L 652.636908 34.444793 
L 653.212261 34.444793 
L 653.212261 34.051689 
L 654.362967 33.94433 
L 654.362967 33.461115 
L 654.93832 33.461115 
L 654.93832 33.852447 
L 655.513673 33.852447 
L 655.513673 35.647658 
L 656.089026 35.647658 
L 656.089026 35.839723 
L 656.664379 35.839723 
L 656.664379 36.829806 
L 657.239732 36.829806 
L 657.239732 35.961304 
L 657.815085 35.961304 
L 657.815085 38.915935 
L 658.390438 38.915935 
L 658.390438 39.626322 
L 658.965791 39.626322 
L 658.965791 40.009268 
L 659.541144 40.009268 
L 659.541144 40.260821 
L 660.116497 40.260821 
L 660.116497 39.097597 
L 660.69185 39.097597 
L 660.69185 38.478457 
L 661.267203 38.478457 
L 661.267203 40.158988 
L 661.842556 40.158988 
L 661.842556 39.766251 
L 662.417909 39.766251 
L 662.417909 41.630879 
L 662.993262 41.630879 
L 662.993262 42.230411 
L 663.568615 42.230411 
L 663.568615 41.640756 
L 664.143969 41.640756 
L 664.143969 41.977176 
L 664.719322 41.977176 
L 664.719322 45.769103 
L 665.294675 45.769103 
L 665.294675 44.792716 
L 665.870028 44.792716 
L 665.870028 44.205754 
L 666.445381 44.205754 
L 666.445381 44.64699 
L 667.020734 44.64699 
L 667.020734 41.302234 
L 667.596087 41.302234 
L 667.596087 41.967826 
L 668.17144 41.967826 
L 668.17144 40.983936 
L 668.746793 40.983936 
L 668.746793 43.077952 
L 669.322146 43.077952 
L 669.322146 44.53978 
L 669.897499 44.53978 
L 669.897499 44.319141 
L 670.472852 44.319141 
L 670.472852 41.938028 
L 671.048205 41.938028 
L 671.048205 44.145692 
L 671.623558 44.145692 
L 671.623558 43.775993 
L 672.198911 43.775993 
L 672.198911 43.478474 
L 672.774264 43.478474 
L 672.774264 42.052534 
L 673.349617 42.052534 
L 673.349617 41.731258 
L 673.92497 41.731258 
L 673.92497 39.965862 
L 674.500323 39.965862 
L 674.500323 40.537864 
L 675.075676 40.537864 
L 675.075676 40.071832 
L 675.651029 40.071832 
L 675.651029 42.025693 
L 676.226382 42.025693 
L 676.226382 43.084369 
L 676.801735 43.084369 
L 676.801735 42.941748 
L 677.377088 42.941748 
L 677.377088 42.458177 
L 677.952441 42.458177 
L 677.952441 43.404879 
L 678.527794 43.404879 
L 678.527794 43.250954 
L 679.103147 43.250954 
L 679.103147 43.895458 
L 679.6785 43.895458 
L 679.6785 45.238463 
L 680.253853 45.238463 
L 680.253853 48.238099 
L 680.829206 48.238099 
L 680.829206 48.847626 
L 681.404559 48.847626 
L 681.404559 49.797937 
L 681.979912 49.797937 
L 681.979912 48.712009 
L 682.555265 48.712009 
L 682.555265 49.442895 
L 683.130619 49.442895 
L 683.130619 47.783566 
L 683.705972 47.783566 
L 683.705972 49.110975 
L 684.281325 49.110975 
L 684.281325 48.164653 
L 684.856678 48.164653 
L 684.856678 50.034292 
L 685.432031 50.034292 
L 685.432031 54.614113 
L 686.007384 54.614113 
L 686.007384 56.484341 
L 686.582737 56.484341 
L 686.582737 55.957072 
L 687.15809 55.957072 
L 687.15809 56.327142 
L 687.733443 56.327142 
L 687.733443 57.808094 
L 688.308796 57.808094 
L 688.308796 56.836968 
L 688.884149 56.836968 
L 688.884149 55.493026 
L 689.459502 55.493026 
L 689.459502 56.795548 
L 690.034855 56.795548 
L 690.034855 56.257605 
L 690.610208 56.257605 
L 690.610208 54.085329 
L 691.185561 54.085329 
L 691.185561 55.756335 
L 691.760914 55.756335 
L 691.760914 53.54099 
L 692.336267 53.54099 
L 692.336267 54.234946 
L 693.486973 54.265105 
L 693.486973 53.400127 
L 694.062326 53.400127 
L 694.062326 53.105575 
L 694.637679 53.105575 
L 694.637679 54.050844 
L 695.213032 54.050844 
L 695.213032 55.660458 
L 695.788385 55.660458 
L 695.788385 56.786013 
L 696.363738 56.786013 
L 696.363738 57.226672 
L 697.514444 57.184298 
L 697.514444 57.752564 
L 698.089797 57.752564 
L 698.089797 55.297323 
L 698.66515 55.297323 
L 698.66515 57.326421 
L 699.240503 57.326421 
L 699.240503 57.482101 
L 699.815856 57.482101 
L 699.815856 57.752045 
L 700.391209 57.752045 
L 700.391209 57.935388 
L 700.966562 57.935388 
L 700.966562 57.716642 
L 701.541915 57.716642 
L 701.541915 56.850985 
L 702.117269 56.850985 
L 702.117269 57.585183 
L 703.843328 57.475163 
L 703.843328 57.865846 
L 704.418681 57.865846 
L 704.418681 56.917156 
L 704.994034 56.917156 
L 704.994034 56.21722 
L 705.569387 56.21722 
L 705.569387 56.864695 
L 706.14474 56.864695 
L 706.14474 56.117241 
L 706.720093 56.117241 
L 706.720093 59.63537 
L 707.295446 59.63537 
L 707.295446 60.764787 
L 707.870799 60.764787 
L 707.870799 60.650097 
L 708.446152 60.650097 
L 708.446152 61.245276 
L 709.021505 61.245276 
L 709.021505 60.927835 
L 709.596858 60.927835 
L 709.596858 60.073343 
L 711.89827 60.031104 
L 711.89827 60.70494 
L 712.473623 60.70494 
L 712.473623 60.386024 
L 713.624329 60.465016 
L 713.624329 60.823651 
L 714.775035 60.73372 
L 714.775035 60.478926 
L 715.350388 60.478926 
L 715.350388 60.048338 
L 715.925741 60.048338 
L 715.925741 57.085162 
L 716.501094 57.085162 
L 716.501094 55.903123 
L 717.076447 55.903123 
L 717.076447 54.418161 
L 717.6518 54.418161 
L 717.6518 54.14107 
L 718.227153 54.14107 
L 718.227153 53.571445 
L 718.802506 53.571445 
L 718.802506 53.827217 
L 719.377859 53.827217 
L 719.377859 54.425867 
L 719.953212 54.425867 
L 719.953212 55.441172 
L 720.528566 55.441172 
L 720.528566 54.917476 
L 721.103919 54.917476 
L 721.103919 52.837973 
L 721.679272 52.837973 
L 721.679272 53.2123 
L 722.254625 53.2123 
L 722.254625 53.734608 
L 723.405331 53.816161 
L 723.405331 54.738995 
L 723.980684 54.738995 
L 723.980684 56.794399 
L 724.556037 56.794399 
L 724.556037 52.73621 
L 725.13139 52.73621 
L 725.13139 51.025874 
L 725.706743 51.025874 
L 725.706743 50.78166 
L 726.282096 50.78166 
L 726.282096 50.279327 
L 727.432802 50.255579 
L 727.432802 50.421182 
L 728.583508 50.332539 
L 728.583508 48.741108 
L 729.734214 48.685316 
L 729.734214 49.694433 
L 730.309567 49.694433 
L 730.309567 50.574259 
L 730.88492 50.574259 
L 730.88492 49.247346 
L 731.460273 49.247346 
L 731.460273 50.217327 
L 732.035626 50.217327 
L 732.035626 49.209993 
L 732.610979 49.209993 
L 732.610979 50.538329 
L 733.186332 50.538329 
L 733.186332 51.167033 
L 733.761685 51.167033 
L 733.761685 50.714329 
L 734.337038 50.714329 
L 734.337038 51.189006 
L 734.912391 51.189006 
L 734.912391 51.39916 
L 735.487744 51.39916 
L 735.487744 50.462698 
L 736.063097 50.462698 
L 736.063097 50.821593 
L 737.213803 50.827687 
L 737.213803 51.877199 
L 737.789156 51.877199 
L 737.789156 52.447519 
L 738.364509 52.447519 
L 738.364509 51.505504 
L 738.939862 51.505504 
L 738.939862 48.961751 
L 739.515216 48.961751 
L 739.515216 48.720107 
L 740.090569 48.720107 
L 740.090569 48.585039 
L 740.665922 48.585039 
L 740.665922 48.386622 
L 741.241275 48.386622 
L 741.241275 48.754646 
L 741.816628 48.754646 
L 741.816628 48.637599 
L 742.967334 48.737598 
L 742.967334 49.029808 
L 743.542687 49.029808 
L 743.542687 49.453532 
L 744.693393 49.359234 
L 744.693393 49.109726 
L 745.268746 49.109726 
L 745.268746 49.543249 
L 745.844099 49.543249 
L 745.844099 49.189362 
L 746.419452 49.189362 
L 746.419452 49.3813 
L 746.994805 49.3813 
L 746.994805 51.259884 
L 747.570158 51.259884 
L 747.570158 51.668657 
L 748.720864 51.725466 
L 748.720864 50.472396 
L 749.296217 50.472396 
L 749.296217 51.864599 
L 751.022276 51.8927 
L 751.022276 51.354783 
L 751.597629 51.354783 
L 751.597629 51.183624 
L 752.172982 51.183624 
L 752.172982 51.320214 
L 752.748335 51.320214 
L 752.748335 51.600224 
L 753.323688 51.600224 
L 753.323688 51.029557 
L 753.899041 51.029557 
L 753.899041 50.424546 
L 755.049747 50.324199 
L 755.049747 51.187441 
L 755.6251 51.187441 
L 755.6251 49.912545 
L 756.200453 49.912545 
L 756.200453 49.110408 
L 756.775806 49.110408 
L 756.775806 46.447949 
L 757.926512 46.337173 
L 757.926512 45.559429 
L 758.501866 45.559429 
L 758.501866 45.782288 
L 759.077219 45.782288 
L 759.077219 44.862049 
L 760.803278 44.901357 
L 760.803278 45.352285 
L 761.378631 45.352285 
L 761.378631 44.268009 
L 762.529337 44.232842 
L 762.529337 43.147477 
L 763.10469 43.147477 
L 763.10469 41.548339 
L 763.680043 41.548339 
L 763.680043 42.524837 
L 764.255396 42.524837 
L 764.255396 42.189432 
L 764.830749 42.189432 
L 764.830749 42.033426 
L 765.406102 42.033426 
L 765.406102 41.344173 
L 765.981455 41.344173 
L 765.981455 41.468907 
L 766.556808 41.468907 
L 766.556808 42.039555 
L 767.132161 42.039555 
L 767.132161 41.140191 
L 767.707514 41.140191 
L 767.707514 39.917241 
L 768.282867 39.917241 
L 768.282867 41.759791 
L 768.85822 41.759791 
L 768.85822 41.625413 
L 769.433573 41.625413 
L 769.433573 42.321358 
L 770.008926 42.321358 
L 770.008926 43.101212 
L 770.584279 43.101212 
L 770.584279 42.143586 
L 771.159632 42.143586 
L 771.159632 41.65852 
L 771.734985 41.65852 
L 771.734985 41.849134 
L 772.310338 41.849134 
L 772.310338 39.848234 
L 772.885691 39.848234 
L 772.885691 38.770928 
L 773.461044 38.770928 
L 773.461044 38.002222 
L 775.187103 37.985794 
L 775.187103 34.626921 
L 775.762456 34.626921 
L 775.762456 32.39675 
L 776.913163 32.41749 
L 776.913163 31.505466 
L 777.488516 31.505466 
L 777.488516 33.318032 
L 778.063869 33.318032 
L 778.063869 32.549792 
L 778.639222 32.549792 
L 778.639222 32.736864 
L 779.214575 32.736864 
L 779.214575 31.712319 
L 779.789928 31.712319 
L 779.789928 32.012747 
L 780.365281 32.012747 
L 780.365281 32.549721 
L 780.940634 32.549721 
L 780.940634 32.174183 
L 781.515987 32.174183 
L 781.515987 33.715737 
L 782.09134 33.715737 
L 782.09134 34.591585 
L 782.666693 34.591585 
L 782.666693 33.426862 
L 783.242046 33.426862 
L 783.242046 33.570305 
L 783.817399 33.570305 
L 783.817399 33.774332 
L 784.392752 33.774332 
L 784.392752 34.073841 
L 784.968105 34.073841 
L 784.968105 34.253605 
L 785.543458 34.253605 
L 785.543458 34.747348 
L 786.118811 34.747348 
L 786.118811 33.033161 
L 787.269517 33.025017 
L 787.269517 32.524704 
L 787.84487 32.524704 
L 787.84487 32.106969 
L 788.420223 32.106969 
L 788.420223 32.659967 
L 788.995576 32.659967 
L 788.995576 31.769425 
L 789.570929 31.769425 
L 789.570929 32.128992 
L 790.146282 32.128992 
L 790.146282 32.437178 
L 790.721635 32.437178 
L 790.721635 32.913262 
L 791.296988 32.913262 
L 791.296988 33.463747 
L 791.872341 33.463747 
L 791.872341 34.92144 
L 793.023047 34.909438 
L 793.023047 34.348633 
L 793.5984 34.348633 
L 793.5984 35.602153 
L 794.173753 35.602153 
L 794.173753 35.782448 
L 794.749106 35.782448 
L 794.749106 34.749858 
L 795.324459 34.749858 
L 795.324459 33.73174 
L 795.899813 33.73174 
L 795.899813 32.626657 
L 797.050519 32.532774 
L 797.050519 33.051048 
L 797.625872 33.051048 
L 797.625872 34.789917 
L 798.201225 34.789917 
L 798.201225 36.745077 
L 798.776578 36.745077 
L 798.776578 35.447462 
L 799.351931 35.447462 
L 799.351931 35.858777 
L 799.927284 35.858777 
L 799.927284 35.190253 
L 800.502637 35.190253 
L 800.502637 33.696253 
L 801.07799 33.696253 
L 801.07799 35.193314 
L 801.653343 35.193314 
L 801.653343 35.361718 
L 802.228696 35.361718 
L 802.228696 35.705012 
L 802.804049 35.705012 
L 802.804049 36.809342 
L 803.379402 36.809342 
L 803.379402 35.64646 
L 804.530108 35.626323 
L 804.530108 33.969671 
L 805.105461 33.969671 
L 805.105461 33.634778 
L 805.680814 33.634778 
L 805.680814 33.139462 
L 806.256167 33.139462 
L 806.256167 34.802204 
L 806.83152 34.802204 
L 806.83152 34.096256 
L 807.406873 34.096256 
L 807.406873 34.924862 
L 807.982226 34.924862 
L 807.982226 33.090867 
L 808.557579 33.090867 
L 808.557579 32.38254 
L 809.132932 32.38254 
L 809.132932 32.694641 
L 810.283638 32.798795 
L 810.283638 31.27132 
L 810.858991 31.27132 
L 810.858991 32.289673 
L 811.434344 32.289673 
L 811.434344 30.299405 
L 812.009697 30.299405 
L 812.009697 27.180553 
L 812.58505 27.180553 
L 812.58505 26.658369 
L 813.160403 26.658369 
L 813.160403 26.373116 
L 813.735756 26.373116 
L 813.735756 25.233636 
L 814.311109 25.233636 
L 814.311109 25.609949 
L 814.886463 25.609949 
L 814.886463 25.337003 
L 816.612522 25.297523 
L 816.612522 24.491571 
L 817.187875 24.491571 
L 817.187875 23.586855 
L 817.763228 23.586855 
L 817.763228 25.346699 
L 818.338581 25.346699 
L 818.338581 24.924032 
L 818.913934 24.924032 
L 818.913934 26.121666 
L 819.489287 26.121666 
L 819.489287 25.423666 
L 820.06464 25.423666 
L 820.06464 24.337063 
L 820.639993 24.337063 
L 820.639993 25.873486 
L 821.215346 25.873486 
L 821.215346 25.491296 
L 821.790699 25.491296 
L 821.790699 23.919231 
L 822.366052 23.919231 
L 822.366052 24.067841 
L 822.941405 24.067841 
L 822.941405 24.270709 
L 823.516758 24.270709 
L 823.516758 23.855056 
L 824.092111 23.855056 
L 824.092111 24.50199 
L 824.667464 24.50199 
L 824.667464 25.488483 
L 825.242817 25.488483 
L 825.242817 25.652782 
L 825.81817 25.652782 
L 825.81817 25.271223 
L 826.393523 25.271223 
L 826.393523 25.467314 
L 827.544229 25.543726 
L 827.544229 28.122026 
L 828.119582 28.122026 
L 828.119582 27.78511 
L 828.694935 27.78511 
L 828.694935 27.631272 
L 829.270288 27.631272 
L 829.270288 28.549278 
L 829.845641 28.549278 
L 829.845641 28.194622 
L 830.420994 28.194622 
L 830.420994 27.603109 
L 830.996347 27.603109 
L 830.996347 27.79086 
L 831.5717 27.79086 
L 831.5717 27.52942 
L 832.147053 27.52942 
L 832.147053 28.628761 
L 832.722406 28.628761 
L 832.722406 28.31314 
L 833.29776 28.31314 
L 833.29776 30.209848 
L 833.873113 30.209848 
L 833.873113 27.971769 
L 834.448466 27.971769 
L 834.448466 28.267427 
L 835.023819 28.267427 
L 835.023819 27.997767 
L 835.599172 27.997767 
L 835.599172 26.028875 
L 836.174525 26.028875 
L 836.174525 25.81108 
L 836.749878 25.81108 
L 836.749878 25.408497 
L 837.900584 25.430955 
L 837.900584 23.850792 
L 838.475937 23.850792 
L 838.475937 24.084244 
L 839.05129 24.084244 
L 839.05129 23.536214 
L 839.626643 23.536214 
L 839.626643 22.563278 
L 840.201996 22.563278 
L 840.201996 22.969087 
L 840.777349 22.969087 
L 840.777349 23.992494 
L 841.352702 23.992494 
L 841.352702 23.723455 
L 842.503408 23.685773 
L 842.503408 23.114651 
L 843.078761 23.114651 
L 843.078761 23.699869 
L 843.654114 23.699869 
L 843.654114 23.867227 
L 844.229467 23.867227 
L 844.229467 23.733748 
L 844.80482 23.733748 
L 844.80482 23.407606 
L 845.380173 23.407606 
L 845.380173 23.67197 
L 845.955526 23.67197 
L 845.955526 23.196894 
L 846.530879 23.196894 
L 846.530879 22.63816 
L 847.106232 22.63816 
L 847.106232 21.283255 
L 848.256938 21.252761 
L 848.256938 21.562443 
L 849.982997 21.480964 
L 849.982997 22.420458 
L 850.55835 22.420458 
L 850.55835 21.979852 
L 851.133703 21.979852 
L 851.133703 21.249643 
L 851.709056 21.249643 
L 851.709056 21.402591 
L 852.28441 21.402591 
L 852.28441 21.76739 
L 853.435116 21.66157 
L 853.435116 22.548708 
L 854.010469 22.548708 
L 854.010469 23.095814 
L 854.585822 23.095814 
L 854.585822 22.560524 
L 855.736528 22.661532 
L 855.736528 21.894154 
L 857.462587 21.864056 
L 857.462587 22.511697 
L 858.03794 22.511697 
L 858.03794 22.931157 
L 858.613293 22.931157 
L 858.613293 21.363749 
L 859.188646 21.363749 
L 859.188646 20.552727 
L 859.763999 20.552727 
L 859.763999 20.852518 
L 860.339352 20.852518 
L 860.339352 21.946446 
L 860.914705 21.946446 
L 860.914705 23.528444 
L 861.490058 23.528444 
L 861.490058 23.159011 
L 862.065411 23.159011 
L 862.065411 22.578441 
L 862.640764 22.578441 
L 862.640764 22.861951 
L 863.79147 22.765112 
L 863.79147 24.528115 
L 864.366823 24.528115 
L 864.366823 23.623438 
L 864.942176 23.623438 
L 864.942176 25.937762 
L 865.517529 25.937762 
L 865.517529 26.241358 
L 866.092882 26.241358 
L 866.092882 28.114511 
L 866.668235 28.114511 
L 866.668235 26.77875 
L 867.818941 26.81 
L 867.818941 26.4225 
L 868.394294 26.4225 
L 868.394294 26.750885 
L 869.545 26.833691 
L 869.545 27.381199 
L 870.120353 27.381199 
L 870.120353 27.267051 
L 870.695706 27.267051 
L 870.695706 27.433167 
L 871.846413 27.38126 
L 871.846413 27.177108 
L 872.421766 27.177108 
L 872.421766 26.047721 
L 872.997119 26.047721 
L 872.997119 26.78359 
L 873.572472 26.78359 
L 873.572472 25.740447 
L 874.723178 25.790073 
L 874.723178 27.033228 
L 875.298531 27.033228 
L 875.298531 27.671621 
L 875.873884 27.671621 
L 875.873884 28.141547 
L 876.449237 28.141547 
L 876.449237 29.585924 
L 877.02459 29.585924 
L 877.02459 31.778773 
L 877.599943 31.778773 
L 877.599943 32.275099 
L 878.175296 32.275099 
L 878.175296 31.997414 
L 878.750649 31.997414 
L 878.750649 32.976194 
L 879.326002 32.976194 
L 879.326002 32.621431 
L 880.476708 32.664182 
L 880.476708 32.280477 
L 881.052061 32.280477 
L 881.052061 32.469842 
L 881.627414 32.469842 
L 881.627414 31.94932 
L 882.202767 31.94932 
L 882.202767 31.581416 
L 883.353473 31.568816 
L 883.353473 32.551997 
L 883.928826 32.551997 
L 883.928826 32.27942 
L 884.504179 32.27942 
L 884.504179 32.895954 
L 885.654885 32.824821 
L 885.654885 31.376903 
L 886.230238 31.376903 
L 886.230238 31.068738 
L 886.805591 31.068738 
L 886.805591 30.508996 
L 887.194182 30.508996 
L 887.194182 30.508996 
" clip-path="url(#p04c73e524f)" style="fill: none; stroke: #3572c6; stroke-width: 1.2; stroke-linecap: square"/>
   </g>
   <g id="line2d_79">
    <path d="M 75.557818 20.552727 
L 887.194182 20.552727 
L 887.194182 20.552727 
" clip-path="url(#p04c73e524f)" style="fill: none; stroke: #83a83b; stroke-width: 1.2; stroke-linecap: square"/>
   </g>
   <g id="line2d_80">
    <path d="M 75.557818 32.976194 
L 887.194182 32.976194 
L 887.194182 32.976194 
" clip-path="url(#p04c73e524f)" style="fill: none; stroke: #c44e52; stroke-width: 1.2; stroke-linecap: square"/>
   </g>
   <g id="line2d_81">
    <path d="M 859.763999 300.96 
L 859.763999 7.2 
" clip-path="url(#p04c73e524f)" style="fill: none; stroke: #83a83b; stroke-width: 1.2; stroke-linecap: square"/>
   </g>
   <g id="line2d_82">
    <path d="M 879.326002 300.96 
L 879.326002 7.2 
" clip-path="url(#p04c73e524f)" style="fill: none; stroke: #c44e52; stroke-width: 1.2; stroke-linecap: square"/>
   </g>
   <g id="patch_3">
    <path d="M 34.976 300.96 
L 34.976 7.2 
" style="fill: none; stroke: #899ab8; stroke-width: 1.12; stroke-linejoin: miter; stroke-linecap: square"/>
   </g>
   <g id="patch_4">
    <path d="M 927.776 300.96 
L 927.776 7.2 
" style="fill: none; stroke: #899ab8; stroke-width: 1.12; stroke-linejoin: miter; stroke-linecap: square"/>
   </g>
   <g id="patch_5">
    <path d="M 34.976 300.96 
L 927.776 300.96 
" style="fill: none; stroke: #899ab8; stroke-width: 1.12; stroke-linejoin: miter; stroke-linecap: square"/>
   </g>
   <g id="patch_6">
    <path d="M 34.976 7.2 
L 927.776 7.2 
" style="fill: none; stroke: #899ab8; stroke-width: 1.12; stroke-linejoin: miter; stroke-linecap: square"/>
   </g>
   <g id="text_16">
    <!-- 123519.47 -->
    <g style="fill: #83a83b" transform="translate(180.559746 20.552727) scale(0.132 -0.132)">
     <defs>
      <path id="DejaVuSans-39" d="M 703 97 
L 703 672 
Q 941 559 1184 500 
Q 1428 441 1663 441 
Q 2288 441 2617 861 
Q 2947 1281 2994 2138 
Q 2813 1869 2534 1725 
Q 2256 1581 1919 1581 
Q 1219 1581 811 2004 
Q 403 2428 403 3163 
Q 403 3881 828 4315 
Q 1253 4750 1959 4750 
Q 2769 4750 3195 4129 
Q 3622 3509 3622 2328 
Q 3622 1225 3098 567 
Q 2575 -91 1691 -91 
Q 1453 -91 1209 -44 
Q 966 3 703 97 
z
M 1959 2075 
Q 2384 2075 2632 2365 
Q 2881 2656 2881 3163 
Q 2881 3666 2632 3958 
Q 2384 4250 1959 4250 
Q 1534 4250 1286 3958 
Q 1038 3666 1038 3163 
Q 1038 2656 1286 2365 
Q 1534 2075 1959 2075 
z
" transform="scale(0.015625)"/>
      <path id="DejaVuSans-2e" d="M 684 794 
L 1344 794 
L 1344 0 
L 684 0 
L 684 794 
z
" transform="scale(0.015625)"/>
      <path id="DejaVuSans-37" d="M 525 4666 
L 3525 4666 
L 3525 4397 
L 1831 0 
L 1172 0 
L 2766 4134 
L 525 4134 
L 525 4666 
z
" transform="scale(0.015625)"/>
     </defs>
     <use xlink:href="#DejaVuSans-31"/>
     <use xlink:href="#DejaVuSans-32" transform="translate(63.623047 0)"/>
     <use xlink:href="#DejaVuSans-33" transform="translate(127.246094 0)"/>
     <use xlink:href="#DejaVuSans-35" transform="translate(190.869141 0)"/>
     <use xlink:href="#DejaVuSans-31" transform="translate(254.492188 0)"/>
     <use xlink:href="#DejaVuSans-39" transform="translate(318.115234 0)"/>
     <use xlink:href="#DejaVuSans-2e" transform="translate(381.738281 0)"/>
     <use xlink:href="#DejaVuSans-34" transform="translate(413.525391 0)"/>
     <use xlink:href="#DejaVuSans-37" transform="translate(477.148438 0)"/>
    </g>
   </g>
   <g id="text_17">
    <!-- 66427.8 -->
    <g style="fill: #c44e52" transform="translate(180.559746 32.976194) scale(0.132 -0.132)">
     <use xlink:href="#DejaVuSans-36"/>
     <use xlink:href="#DejaVuSans-36" transform="translate(63.623047 0)"/>
     <use xlink:href="#DejaVuSans-34" transform="translate(127.246094 0)"/>
     <use xlink:href="#DejaVuSans-32" transform="translate(190.869141 0)"/>
     <use xlink:href="#DejaVuSans-37" transform="translate(254.492188 0)"/>
     <use xlink:href="#DejaVuSans-2e" transform="translate(318.115234 0)"/>
     <use xlink:href="#DejaVuSans-38" transform="translate(349.902344 0)"/>
    </g>
   </g>
   <g id="legend_1">
    <g id="patch_7">
     <path d="M 43.796 183.886875 
L 142.133094 183.886875 
Q 144.653094 183.886875 144.653094 181.366875 
L 144.653094 126.793125 
Q 144.653094 124.273125 142.133094 124.273125 
L 43.796 124.273125 
Q 41.276 124.273125 41.276 126.793125 
L 41.276 181.366875 
Q 41.276 183.886875 43.796 183.886875 
z
" style="fill: #373e4b; opacity: 0.8; stroke: #cccccc; stroke-width: 0.16; stroke-linejoin: miter"/>
    </g>
    <g id="line2d_83">
     <path d="M 46.316 134.477156 
L 46.316 134.477156 
L 58.916 134.477156 
L 58.916 134.477156 
L 71.516 134.477156 
" style="fill: none; stroke: #3572c6; stroke-width: 1.2; stroke-linecap: square"/>
    </g>
    <g id="text_18">
     <!-- USD/BTC -->
     <g style="fill: #b1bed6" transform="translate(81.596 138.887156) scale(0.126 -0.126)">
      <defs>
       <path id="DejaVuSans-55" d="M 556 4666 
L 1191 4666 
L 1191 1831 
Q 1191 1081 1462 751 
Q 1734 422 2344 422 
Q 2950 422 3222 751 
Q 3494 1081 3494 1831 
L 3494 4666 
L 4128 4666 
L 4128 1753 
Q 4128 841 3676 375 
Q 3225 -91 2344 -91 
Q 1459 -91 1007 375 
Q 556 841 556 1753 
L 556 4666 
z
" transform="scale(0.015625)"/>
       <path id="DejaVuSans-53" d="M 3425 4513 
L 3425 3897 
Q 3066 4069 2747 4153 
Q 2428 4238 2131 4238 
Q 1616 4238 1336 4038 
Q 1056 3838 1056 3469 
Q 1056 3159 1242 3001 
Q 1428 2844 1947 2747 
L 2328 2669 
Q 3034 2534 3370 2195 
Q 3706 1856 3706 1288 
Q 3706 609 3251 259 
Q 2797 -91 1919 -91 
Q 1588 -91 1214 -16 
Q 841 59 441 206 
L 441 856 
Q 825 641 1194 531 
Q 1563 422 1919 422 
Q 2459 422 2753 634 
Q 3047 847 3047 1241 
Q 3047 1584 2836 1778 
Q 2625 1972 2144 2069 
L 1759 2144 
Q 1053 2284 737 2584 
Q 422 2884 422 3419 
Q 422 4038 858 4394 
Q 1294 4750 2059 4750 
Q 2388 4750 2728 4690 
Q 3069 4631 3425 4513 
z
" transform="scale(0.015625)"/>
       <path id="DejaVuSans-2f" d="M 1625 4666 
L 2156 4666 
L 531 -594 
L 0 -594 
L 1625 4666 
z
" transform="scale(0.015625)"/>
       <path id="DejaVuSans-42" d="M 1259 2228 
L 1259 519 
L 2272 519 
Q 2781 519 3026 730 
Q 3272 941 3272 1375 
Q 3272 1813 3026 2020 
Q 2781 2228 2272 2228 
L 1259 2228 
z
M 1259 4147 
L 1259 2741 
L 2194 2741 
Q 2656 2741 2882 2914 
Q 3109 3088 3109 3444 
Q 3109 3797 2882 3972 
Q 2656 4147 2194 4147 
L 1259 4147 
z
M 628 4666 
L 2241 4666 
Q 2963 4666 3353 4366 
Q 3744 4066 3744 3513 
Q 3744 3084 3544 2831 
Q 3344 2578 2956 2516 
Q 3422 2416 3680 2098 
Q 3938 1781 3938 1306 
Q 3938 681 3513 340 
Q 3088 0 2303 0 
L 628 0 
L 628 4666 
z
" transform="scale(0.015625)"/>
       <path id="DejaVuSans-54" d="M -19 4666 
L 3928 4666 
L 3928 4134 
L 2272 4134 
L 2272 0 
L 1638 0 
L 1638 4134 
L -19 4134 
L -19 4666 
z
" transform="scale(0.015625)"/>
       <path id="DejaVuSans-43" d="M 4122 4306 
L 4122 3641 
Q 3803 3938 3442 4084 
Q 3081 4231 2675 4231 
Q 1875 4231 1450 3742 
Q 1025 3253 1025 2328 
Q 1025 1406 1450 917 
Q 1875 428 2675 428 
Q 3081 428 3442 575 
Q 3803 722 4122 1019 
L 4122 359 
Q 3791 134 3420 21 
Q 3050 -91 2638 -91 
Q 1578 -91 968 557 
Q 359 1206 359 2328 
Q 359 3453 968 4101 
Q 1578 4750 2638 4750 
Q 3056 4750 3426 4639 
Q 3797 4528 4122 4306 
z
" transform="scale(0.015625)"/>
      </defs>
      <use xlink:href="#DejaVuSans-55"/>
      <use xlink:href="#DejaVuSans-53" transform="translate(73.193359 0)"/>
      <use xlink:href="#DejaVuSans-44" transform="translate(136.669922 0)"/>
      <use xlink:href="#DejaVuSans-2f" transform="translate(213.671875 0)"/>
      <use xlink:href="#DejaVuSans-42" transform="translate(247.363281 0)"/>
      <use xlink:href="#DejaVuSans-54" transform="translate(315.966797 0)"/>
      <use xlink:href="#DejaVuSans-43" transform="translate(371.175781 0)"/>
     </g>
    </g>
    <g id="line2d_84">
     <path d="M 46.316 152.971594 
L 46.316 152.971594 
L 58.916 152.971594 
L 58.916 152.971594 
L 71.516 152.971594 
" style="fill: none; stroke: #83a83b; stroke-width: 1.2; stroke-linecap: square"/>
    </g>
    <g id="text_19">
     <!-- Max -->
     <g style="fill: #b1bed6" transform="translate(81.596 157.381594) scale(0.126 -0.126)">
      <defs>
       <path id="DejaVuSans-4d" d="M 628 4666 
L 1569 4666 
L 2759 1491 
L 3956 4666 
L 4897 4666 
L 4897 0 
L 4281 0 
L 4281 4097 
L 3078 897 
L 2444 897 
L 1241 4097 
L 1241 0 
L 628 0 
L 628 4666 
z
" transform="scale(0.015625)"/>
       <path id="DejaVuSans-78" d="M 3513 3500 
L 2247 1797 
L 3578 0 
L 2900 0 
L 1881 1375 
L 863 0 
L 184 0 
L 1544 1831 
L 300 3500 
L 978 3500 
L 1906 2253 
L 2834 3500 
L 3513 3500 
z
" transform="scale(0.015625)"/>
      </defs>
      <use xlink:href="#DejaVuSans-4d"/>
      <use xlink:href="#DejaVuSans-61" transform="translate(86.279297 0)"/>
      <use xlink:href="#DejaVuSans-78" transform="translate(147.558594 0)"/>
     </g>
    </g>
    <g id="line2d_85">
     <path d="M 46.316 171.466031 
L 46.316 171.466031 
L 58.916 171.466031 
L 58.916 171.466031 
L 71.516 171.466031 
" style="fill: none; stroke: #c44e52; stroke-width: 1.2; stroke-linecap: square"/>
    </g>
    <g id="text_20">
     <!-- local_Min -->
     <g style="fill: #b1bed6" transform="translate(81.596 175.876031) scale(0.126 -0.126)">
      <defs>
       <path id="DejaVuSans-6c" d="M 603 4863 
L 1178 4863 
L 1178 0 
L 603 0 
L 603 4863 
z
" transform="scale(0.015625)"/>
       <path id="DejaVuSans-6f" d="M 1959 3097 
Q 1497 3097 1228 2736 
Q 959 2375 959 1747 
Q 959 1119 1226 758 
Q 1494 397 1959 397 
Q 2419 397 2687 759 
Q 2956 1122 2956 1747 
Q 2956 2369 2687 2733 
Q 2419 3097 1959 3097 
z
M 1959 3584 
Q 2709 3584 3137 3096 
Q 3566 2609 3566 1747 
Q 3566 888 3137 398 
Q 2709 -91 1959 -91 
Q 1206 -91 779 398 
Q 353 888 353 1747 
Q 353 2609 779 3096 
Q 1206 3584 1959 3584 
z
" transform="scale(0.015625)"/>
       <path id="DejaVuSans-63" d="M 3122 3366 
L 3122 2828 
Q 2878 2963 2633 3030 
Q 2388 3097 2138 3097 
Q 1578 3097 1268 2742 
Q 959 2388 959 1747 
Q 959 1106 1268 751 
Q 1578 397 2138 397 
Q 2388 397 2633 464 
Q 2878 531 3122 666 
L 3122 134 
Q 2881 22 2623 -34 
Q 2366 -91 2075 -91 
Q 1284 -91 818 406 
Q 353 903 353 1747 
Q 353 2603 823 3093 
Q 1294 3584 2113 3584 
Q 2378 3584 2631 3529 
Q 2884 3475 3122 3366 
z
" transform="scale(0.015625)"/>
       <path id="DejaVuSans-5f" d="M 3263 -1063 
L 3263 -1509 
L -63 -1509 
L -63 -1063 
L 3263 -1063 
z
" transform="scale(0.015625)"/>
       <path id="DejaVuSans-69" d="M 603 3500 
L 1178 3500 
L 1178 0 
L 603 0 
L 603 3500 
z
M 603 4863 
L 1178 4863 
L 1178 4134 
L 603 4134 
L 603 4863 
z
" transform="scale(0.015625)"/>
       <path id="DejaVuSans-6e" d="M 3513 2113 
L 3513 0 
L 2938 0 
L 2938 2094 
Q 2938 2591 2744 2837 
Q 2550 3084 2163 3084 
Q 1697 3084 1428 2787 
Q 1159 2491 1159 1978 
L 1159 0 
L 581 0 
L 581 3500 
L 1159 3500 
L 1159 2956 
Q 1366 3272 1645 3428 
Q 1925 3584 2291 3584 
Q 2894 3584 3203 3211 
Q 3513 2838 3513 2113 
z
" transform="scale(0.015625)"/>
      </defs>
      <use xlink:href="#DejaVuSans-6c"/>
      <use xlink:href="#DejaVuSans-6f" transform="translate(27.783203 0)"/>
      <use xlink:href="#DejaVuSans-63" transform="translate(88.964844 0)"/>
      <use xlink:href="#DejaVuSans-61" transform="translate(143.945312 0)"/>
      <use xlink:href="#DejaVuSans-6c" transform="translate(205.224609 0)"/>
      <use xlink:href="#DejaVuSans-5f" transform="translate(233.007812 0)"/>
      <use xlink:href="#DejaVuSans-4d" transform="translate(283.007812 0)"/>
      <use xlink:href="#DejaVuSans-69" transform="translate(369.287109 0)"/>
      <use xlink:href="#DejaVuSans-6e" transform="translate(397.070312 0)"/>
     </g>
    </g>
   </g>
  </g>
 </g>
 <defs>
  <clipPath id="p04c73e524f">
   <rect x="34.976" y="7.2" width="892.8" height="293.76"/>
  </clipPath>
 </defs>
</svg>
