<?xml version="1.0" encoding="utf-8" standalone="no"?>
<!DOCTYPE svg PUBLIC "-//W3C//DTD SVG 1.1//EN"
  "http://www.w3.org/Graphics/SVG/1.1/DTD/svg11.dtd">
<svg xmlns:xlink="http://www.w3.org/1999/xlink" width="952.88375pt" height="358.290693pt" viewBox="0 0 952.88375 358.290693" xmlns="http://www.w3.org/2000/svg" version="1.1">
 <metadata>
  <rdf:RDF xmlns:dc="http://purl.org/dc/elements/1.1/" xmlns:cc="http://creativecommons.org/ns#" xmlns:rdf="http://www.w3.org/1999/02/22-rdf-syntax-ns#">
   <cc:Work>
    <dc:type rdf:resource="http://purl.org/dc/dcmitype/StillImage"/>
    <dc:date>2023-11-10T08:30:20.843012</dc:date>
    <dc:format>image/svg+xml</dc:format>
    <dc:creator>
     <cc:Agent>
      <dc:title>Matplotlib v3.8.1, https://matplotlib.org/</dc:title>
     </cc:Agent>
    </dc:creator>
   </cc:Work>
  </rdf:RDF>
 </metadata>
 <defs>
  <style type="text/css">*{stroke-linejoin: round; stroke-linecap: butt}</style>
 </defs>
 <g id="figure_1">
  <g id="patch_1">
   <path d="M 0 358.290693 
L 952.88375 358.290693 
L 952.88375 0 
L 0 0 
z
" style="fill: #373e4b"/>
  </g>
  <g id="axes_1">
   <g id="patch_2">
    <path d="M 52.88375 300.96 
L 945.68375 300.96 
L 945.68375 7.2 
L 52.88375 7.2 
z
" style="fill: #373e4b"/>
   </g>
   <g id="matplotlib.axis_1">
    <g id="xtick_1">
     <g id="line2d_1">
      <path d="M 99.864249 300.96 
L 99.864249 7.2 
" clip-path="url(#p7408098b6a)" style="fill: none; stroke: #546379; stroke-width: 1.12; stroke-linecap: square"/>
     </g>
     <g id="line2d_2"/>
     <g id="text_1">
      <!-- 2018 -->
      <g style="fill: #b1bed6" transform="translate(70.78321 330.884854) rotate(-30) scale(0.126 -0.126)">
       <defs>
        <path id="DejaVuSans-32" d="M 1228 531 
L 3431 531 
L 3431 0 
L 469 0 
L 469 531 
Q 828 903 1448 1529 
Q 2069 2156 2228 2338 
Q 2531 2678 2651 2914 
Q 2772 3150 2772 3378 
Q 2772 3750 2511 3984 
Q 2250 4219 1831 4219 
Q 1534 4219 1204 4116 
Q 875 4013 500 3803 
L 500 4441 
Q 881 4594 1212 4672 
Q 1544 4750 1819 4750 
Q 2544 4750 2975 4387 
Q 3406 4025 3406 3419 
Q 3406 3131 3298 2873 
Q 3191 2616 2906 2266 
Q 2828 2175 2409 1742 
Q 1991 1309 1228 531 
z
" transform="scale(0.015625)"/>
        <path id="DejaVuSans-30" d="M 2034 4250 
Q 1547 4250 1301 3770 
Q 1056 3291 1056 2328 
Q 1056 1369 1301 889 
Q 1547 409 2034 409 
Q 2525 409 2770 889 
Q 3016 1369 3016 2328 
Q 3016 3291 2770 3770 
Q 2525 4250 2034 4250 
z
M 2034 4750 
Q 2819 4750 3233 4129 
Q 3647 3509 3647 2328 
Q 3647 1150 3233 529 
Q 2819 -91 2034 -91 
Q 1250 -91 836 529 
Q 422 1150 422 2328 
Q 422 3509 836 4129 
Q 1250 4750 2034 4750 
z
" transform="scale(0.015625)"/>
        <path id="DejaVuSans-31" d="M 794 531 
L 1825 531 
L 1825 4091 
L 703 3866 
L 703 4441 
L 1819 4666 
L 2450 4666 
L 2450 531 
L 3481 531 
L 3481 0 
L 794 0 
L 794 531 
z
" transform="scale(0.015625)"/>
        <path id="DejaVuSans-38" d="M 2034 2216 
Q 1584 2216 1326 1975 
Q 1069 1734 1069 1313 
Q 1069 891 1326 650 
Q 1584 409 2034 409 
Q 2484 409 2743 651 
Q 3003 894 3003 1313 
Q 3003 1734 2745 1975 
Q 2488 2216 2034 2216 
z
M 1403 2484 
Q 997 2584 770 2862 
Q 544 3141 544 3541 
Q 544 4100 942 4425 
Q 1341 4750 2034 4750 
Q 2731 4750 3128 4425 
Q 3525 4100 3525 3541 
Q 3525 3141 3298 2862 
Q 3072 2584 2669 2484 
Q 3125 2378 3379 2068 
Q 3634 1759 3634 1313 
Q 3634 634 3220 271 
Q 2806 -91 2034 -91 
Q 1263 -91 848 271 
Q 434 634 434 1313 
Q 434 1759 690 2068 
Q 947 2378 1403 2484 
z
M 1172 3481 
Q 1172 3119 1398 2916 
Q 1625 2713 2034 2713 
Q 2441 2713 2670 2916 
Q 2900 3119 2900 3481 
Q 2900 3844 2670 4047 
Q 2441 4250 2034 4250 
Q 1625 4250 1398 4047 
Q 1172 3844 1172 3481 
z
" transform="scale(0.015625)"/>
       </defs>
       <use xlink:href="#DejaVuSans-32"/>
       <use xlink:href="#DejaVuSans-30" x="63.623047"/>
       <use xlink:href="#DejaVuSans-31" x="127.246094"/>
       <use xlink:href="#DejaVuSans-38" x="190.869141"/>
      </g>
     </g>
    </g>
    <g id="xtick_2">
     <g id="line2d_3">
      <path d="M 237.247696 300.96 
L 237.247696 7.2 
" clip-path="url(#p7408098b6a)" style="fill: none; stroke: #546379; stroke-width: 1.12; stroke-linecap: square"/>
     </g>
     <g id="line2d_4"/>
     <g id="text_2">
      <!-- 2019 -->
      <g style="fill: #b1bed6" transform="translate(208.166656 330.884854) rotate(-30) scale(0.126 -0.126)">
       <defs>
        <path id="DejaVuSans-39" d="M 703 97 
L 703 672 
Q 941 559 1184 500 
Q 1428 441 1663 441 
Q 2288 441 2617 861 
Q 2947 1281 2994 2138 
Q 2813 1869 2534 1725 
Q 2256 1581 1919 1581 
Q 1219 1581 811 2004 
Q 403 2428 403 3163 
Q 403 3881 828 4315 
Q 1253 4750 1959 4750 
Q 2769 4750 3195 4129 
Q 3622 3509 3622 2328 
Q 3622 1225 3098 567 
Q 2575 -91 1691 -91 
Q 1453 -91 1209 -44 
Q 966 3 703 97 
z
M 1959 2075 
Q 2384 2075 2632 2365 
Q 2881 2656 2881 3163 
Q 2881 3666 2632 3958 
Q 2384 4250 1959 4250 
Q 1534 4250 1286 3958 
Q 1038 3666 1038 3163 
Q 1038 2656 1286 2365 
Q 1534 2075 1959 2075 
z
" transform="scale(0.015625)"/>
       </defs>
       <use xlink:href="#DejaVuSans-32"/>
       <use xlink:href="#DejaVuSans-30" x="63.623047"/>
       <use xlink:href="#DejaVuSans-31" x="127.246094"/>
       <use xlink:href="#DejaVuSans-39" x="190.869141"/>
      </g>
     </g>
    </g>
    <g id="xtick_3">
     <g id="line2d_5">
      <path d="M 374.631143 300.96 
L 374.631143 7.2 
" clip-path="url(#p7408098b6a)" style="fill: none; stroke: #546379; stroke-width: 1.12; stroke-linecap: square"/>
     </g>
     <g id="line2d_6"/>
     <g id="text_3">
      <!-- 2020 -->
      <g style="fill: #b1bed6" transform="translate(345.550103 330.884854) rotate(-30) scale(0.126 -0.126)">
       <use xlink:href="#DejaVuSans-32"/>
       <use xlink:href="#DejaVuSans-30" x="63.623047"/>
       <use xlink:href="#DejaVuSans-32" x="127.246094"/>
       <use xlink:href="#DejaVuSans-30" x="190.869141"/>
      </g>
     </g>
    </g>
    <g id="xtick_4">
     <g id="line2d_7">
      <path d="M 512.390983 300.96 
L 512.390983 7.2 
" clip-path="url(#p7408098b6a)" style="fill: none; stroke: #546379; stroke-width: 1.12; stroke-linecap: square"/>
     </g>
     <g id="line2d_8"/>
     <g id="text_4">
      <!-- 2021 -->
      <g style="fill: #b1bed6" transform="translate(483.309943 330.884854) rotate(-30) scale(0.126 -0.126)">
       <use xlink:href="#DejaVuSans-32"/>
       <use xlink:href="#DejaVuSans-30" x="63.623047"/>
       <use xlink:href="#DejaVuSans-32" x="127.246094"/>
       <use xlink:href="#DejaVuSans-31" x="190.869141"/>
      </g>
     </g>
    </g>
    <g id="xtick_5">
     <g id="line2d_9">
      <path d="M 649.77443 300.96 
L 649.77443 7.2 
" clip-path="url(#p7408098b6a)" style="fill: none; stroke: #546379; stroke-width: 1.12; stroke-linecap: square"/>
     </g>
     <g id="line2d_10"/>
     <g id="text_5">
      <!-- 2022 -->
      <g style="fill: #b1bed6" transform="translate(620.69339 330.884854) rotate(-30) scale(0.126 -0.126)">
       <use xlink:href="#DejaVuSans-32"/>
       <use xlink:href="#DejaVuSans-30" x="63.623047"/>
       <use xlink:href="#DejaVuSans-32" x="127.246094"/>
       <use xlink:href="#DejaVuSans-32" x="190.869141"/>
      </g>
     </g>
    </g>
    <g id="xtick_6">
     <g id="line2d_11">
      <path d="M 787.157877 300.96 
L 787.157877 7.2 
" clip-path="url(#p7408098b6a)" style="fill: none; stroke: #546379; stroke-width: 1.12; stroke-linecap: square"/>
     </g>
     <g id="line2d_12"/>
     <g id="text_6">
      <!-- 2023 -->
      <g style="fill: #b1bed6" transform="translate(758.076837 330.884854) rotate(-30) scale(0.126 -0.126)">
       <defs>
        <path id="DejaVuSans-33" d="M 2597 2516 
Q 3050 2419 3304 2112 
Q 3559 1806 3559 1356 
Q 3559 666 3084 287 
Q 2609 -91 1734 -91 
Q 1441 -91 1130 -33 
Q 819 25 488 141 
L 488 750 
Q 750 597 1062 519 
Q 1375 441 1716 441 
Q 2309 441 2620 675 
Q 2931 909 2931 1356 
Q 2931 1769 2642 2001 
Q 2353 2234 1838 2234 
L 1294 2234 
L 1294 2753 
L 1863 2753 
Q 2328 2753 2575 2939 
Q 2822 3125 2822 3475 
Q 2822 3834 2567 4026 
Q 2313 4219 1838 4219 
Q 1578 4219 1281 4162 
Q 984 4106 628 3988 
L 628 4550 
Q 988 4650 1302 4700 
Q 1616 4750 1894 4750 
Q 2613 4750 3031 4423 
Q 3450 4097 3450 3541 
Q 3450 3153 3228 2886 
Q 3006 2619 2597 2516 
z
" transform="scale(0.015625)"/>
       </defs>
       <use xlink:href="#DejaVuSans-32"/>
       <use xlink:href="#DejaVuSans-30" x="63.623047"/>
       <use xlink:href="#DejaVuSans-32" x="127.246094"/>
       <use xlink:href="#DejaVuSans-33" x="190.869141"/>
      </g>
     </g>
    </g>
    <g id="xtick_7">
     <g id="line2d_13">
      <path d="M 924.541324 300.96 
L 924.541324 7.2 
" clip-path="url(#p7408098b6a)" style="fill: none; stroke: #546379; stroke-width: 1.12; stroke-linecap: square"/>
     </g>
     <g id="line2d_14"/>
     <g id="text_7">
      <!-- 2024 -->
      <g style="fill: #b1bed6" transform="translate(895.460284 330.884854) rotate(-30) scale(0.126 -0.126)">
       <defs>
        <path id="DejaVuSans-34" d="M 2419 4116 
L 825 1625 
L 2419 1625 
L 2419 4116 
z
M 2253 4666 
L 3047 4666 
L 3047 1625 
L 3713 1625 
L 3713 1100 
L 3047 1100 
L 3047 0 
L 2419 0 
L 2419 1100 
L 313 1100 
L 313 1709 
L 2253 4666 
z
" transform="scale(0.015625)"/>
       </defs>
       <use xlink:href="#DejaVuSans-32"/>
       <use xlink:href="#DejaVuSans-30" x="63.623047"/>
       <use xlink:href="#DejaVuSans-32" x="127.246094"/>
       <use xlink:href="#DejaVuSans-34" x="190.869141"/>
      </g>
     </g>
    </g>
    <g id="text_8">
     <!-- Date -->
     <g style="fill: #b1bed6" transform="translate(482.074625 348.095943) scale(0.144 -0.144)">
      <defs>
       <path id="DejaVuSans-44" d="M 1259 4147 
L 1259 519 
L 2022 519 
Q 2988 519 3436 956 
Q 3884 1394 3884 2338 
Q 3884 3275 3436 3711 
Q 2988 4147 2022 4147 
L 1259 4147 
z
M 628 4666 
L 1925 4666 
Q 3281 4666 3915 4102 
Q 4550 3538 4550 2338 
Q 4550 1131 3912 565 
Q 3275 0 1925 0 
L 628 0 
L 628 4666 
z
" transform="scale(0.015625)"/>
       <path id="DejaVuSans-61" d="M 2194 1759 
Q 1497 1759 1228 1600 
Q 959 1441 959 1056 
Q 959 750 1161 570 
Q 1363 391 1709 391 
Q 2188 391 2477 730 
Q 2766 1069 2766 1631 
L 2766 1759 
L 2194 1759 
z
M 3341 1997 
L 3341 0 
L 2766 0 
L 2766 531 
Q 2569 213 2275 61 
Q 1981 -91 1556 -91 
Q 1019 -91 701 211 
Q 384 513 384 1019 
Q 384 1609 779 1909 
Q 1175 2209 1959 2209 
L 2766 2209 
L 2766 2266 
Q 2766 2663 2505 2880 
Q 2244 3097 1772 3097 
Q 1472 3097 1187 3025 
Q 903 2953 641 2809 
L 641 3341 
Q 956 3463 1253 3523 
Q 1550 3584 1831 3584 
Q 2591 3584 2966 3190 
Q 3341 2797 3341 1997 
z
" transform="scale(0.015625)"/>
       <path id="DejaVuSans-74" d="M 1172 4494 
L 1172 3500 
L 2356 3500 
L 2356 3053 
L 1172 3053 
L 1172 1153 
Q 1172 725 1289 603 
Q 1406 481 1766 481 
L 2356 481 
L 2356 0 
L 1766 0 
Q 1100 0 847 248 
Q 594 497 594 1153 
L 594 3053 
L 172 3053 
L 172 3500 
L 594 3500 
L 594 4494 
L 1172 4494 
z
" transform="scale(0.015625)"/>
       <path id="DejaVuSans-65" d="M 3597 1894 
L 3597 1613 
L 953 1613 
Q 991 1019 1311 708 
Q 1631 397 2203 397 
Q 2534 397 2845 478 
Q 3156 559 3463 722 
L 3463 178 
Q 3153 47 2828 -22 
Q 2503 -91 2169 -91 
Q 1331 -91 842 396 
Q 353 884 353 1716 
Q 353 2575 817 3079 
Q 1281 3584 2069 3584 
Q 2775 3584 3186 3129 
Q 3597 2675 3597 1894 
z
M 3022 2063 
Q 3016 2534 2758 2815 
Q 2500 3097 2075 3097 
Q 1594 3097 1305 2825 
Q 1016 2553 972 2059 
L 3022 2063 
z
" transform="scale(0.015625)"/>
      </defs>
      <use xlink:href="#DejaVuSans-44"/>
      <use xlink:href="#DejaVuSans-61" x="77.001953"/>
      <use xlink:href="#DejaVuSans-74" x="138.28125"/>
      <use xlink:href="#DejaVuSans-65" x="177.490234"/>
     </g>
    </g>
   </g>
   <g id="matplotlib.axis_2">
    <g id="ytick_1">
     <g id="line2d_15">
      <path d="M 52.88375 258.56324 
L 945.68375 258.56324 
" clip-path="url(#p7408098b6a)" style="fill: none; stroke: #546379; stroke-width: 1.12; stroke-linecap: square"/>
     </g>
     <g id="line2d_16"/>
     <g id="text_9">
      <!-- 10000 -->
      <g style="fill: #b1bed6" transform="translate(7.2 263.350256) scale(0.126 -0.126)">
       <use xlink:href="#DejaVuSans-31"/>
       <use xlink:href="#DejaVuSans-30" x="63.623047"/>
       <use xlink:href="#DejaVuSans-30" x="127.246094"/>
       <use xlink:href="#DejaVuSans-30" x="190.869141"/>
       <use xlink:href="#DejaVuSans-30" x="254.492188"/>
      </g>
     </g>
    </g>
    <g id="ytick_2">
     <g id="line2d_17">
      <path d="M 52.88375 215.161403 
L 945.68375 215.161403 
" clip-path="url(#p7408098b6a)" style="fill: none; stroke: #546379; stroke-width: 1.12; stroke-linecap: square"/>
     </g>
     <g id="line2d_18"/>
     <g id="text_10">
      <!-- 20000 -->
      <g style="fill: #b1bed6" transform="translate(7.2 219.948418) scale(0.126 -0.126)">
       <use xlink:href="#DejaVuSans-32"/>
       <use xlink:href="#DejaVuSans-30" x="63.623047"/>
       <use xlink:href="#DejaVuSans-30" x="127.246094"/>
       <use xlink:href="#DejaVuSans-30" x="190.869141"/>
       <use xlink:href="#DejaVuSans-30" x="254.492188"/>
      </g>
     </g>
    </g>
    <g id="ytick_3">
     <g id="line2d_19">
      <path d="M 52.88375 171.759565 
L 945.68375 171.759565 
" clip-path="url(#p7408098b6a)" style="fill: none; stroke: #546379; stroke-width: 1.12; stroke-linecap: square"/>
     </g>
     <g id="line2d_20"/>
     <g id="text_11">
      <!-- 30000 -->
      <g style="fill: #b1bed6" transform="translate(7.2 176.546581) scale(0.126 -0.126)">
       <use xlink:href="#DejaVuSans-33"/>
       <use xlink:href="#DejaVuSans-30" x="63.623047"/>
       <use xlink:href="#DejaVuSans-30" x="127.246094"/>
       <use xlink:href="#DejaVuSans-30" x="190.869141"/>
       <use xlink:href="#DejaVuSans-30" x="254.492188"/>
      </g>
     </g>
    </g>
    <g id="ytick_4">
     <g id="line2d_21">
      <path d="M 52.88375 128.357727 
L 945.68375 128.357727 
" clip-path="url(#p7408098b6a)" style="fill: none; stroke: #546379; stroke-width: 1.12; stroke-linecap: square"/>
     </g>
     <g id="line2d_22"/>
     <g id="text_12">
      <!-- 40000 -->
      <g style="fill: #b1bed6" transform="translate(7.2 133.144743) scale(0.126 -0.126)">
       <use xlink:href="#DejaVuSans-34"/>
       <use xlink:href="#DejaVuSans-30" x="63.623047"/>
       <use xlink:href="#DejaVuSans-30" x="127.246094"/>
       <use xlink:href="#DejaVuSans-30" x="190.869141"/>
       <use xlink:href="#DejaVuSans-30" x="254.492188"/>
      </g>
     </g>
    </g>
    <g id="ytick_5">
     <g id="line2d_23">
      <path d="M 52.88375 84.95589 
L 945.68375 84.95589 
" clip-path="url(#p7408098b6a)" style="fill: none; stroke: #546379; stroke-width: 1.12; stroke-linecap: square"/>
     </g>
     <g id="line2d_24"/>
     <g id="text_13">
      <!-- 50000 -->
      <g style="fill: #b1bed6" transform="translate(7.2 89.742905) scale(0.126 -0.126)">
       <defs>
        <path id="DejaVuSans-35" d="M 691 4666 
L 3169 4666 
L 3169 4134 
L 1269 4134 
L 1269 2991 
Q 1406 3038 1543 3061 
Q 1681 3084 1819 3084 
Q 2600 3084 3056 2656 
Q 3513 2228 3513 1497 
Q 3513 744 3044 326 
Q 2575 -91 1722 -91 
Q 1428 -91 1123 -41 
Q 819 9 494 109 
L 494 744 
Q 775 591 1075 516 
Q 1375 441 1709 441 
Q 2250 441 2565 725 
Q 2881 1009 2881 1497 
Q 2881 1984 2565 2268 
Q 2250 2553 1709 2553 
Q 1456 2553 1204 2497 
Q 953 2441 691 2322 
L 691 4666 
z
" transform="scale(0.015625)"/>
       </defs>
       <use xlink:href="#DejaVuSans-35"/>
       <use xlink:href="#DejaVuSans-30" x="63.623047"/>
       <use xlink:href="#DejaVuSans-30" x="127.246094"/>
       <use xlink:href="#DejaVuSans-30" x="190.869141"/>
       <use xlink:href="#DejaVuSans-30" x="254.492188"/>
      </g>
     </g>
    </g>
    <g id="ytick_6">
     <g id="line2d_25">
      <path d="M 52.88375 41.554052 
L 945.68375 41.554052 
" clip-path="url(#p7408098b6a)" style="fill: none; stroke: #546379; stroke-width: 1.12; stroke-linecap: square"/>
     </g>
     <g id="line2d_26"/>
     <g id="text_14">
      <!-- 60000 -->
      <g style="fill: #b1bed6" transform="translate(7.2 46.341068) scale(0.126 -0.126)">
       <defs>
        <path id="DejaVuSans-36" d="M 2113 2584 
Q 1688 2584 1439 2293 
Q 1191 2003 1191 1497 
Q 1191 994 1439 701 
Q 1688 409 2113 409 
Q 2538 409 2786 701 
Q 3034 994 3034 1497 
Q 3034 2003 2786 2293 
Q 2538 2584 2113 2584 
z
M 3366 4563 
L 3366 3988 
Q 3128 4100 2886 4159 
Q 2644 4219 2406 4219 
Q 1781 4219 1451 3797 
Q 1122 3375 1075 2522 
Q 1259 2794 1537 2939 
Q 1816 3084 2150 3084 
Q 2853 3084 3261 2657 
Q 3669 2231 3669 1497 
Q 3669 778 3244 343 
Q 2819 -91 2113 -91 
Q 1303 -91 875 529 
Q 447 1150 447 2328 
Q 447 3434 972 4092 
Q 1497 4750 2381 4750 
Q 2619 4750 2861 4703 
Q 3103 4656 3366 4563 
z
" transform="scale(0.015625)"/>
       </defs>
       <use xlink:href="#DejaVuSans-36"/>
       <use xlink:href="#DejaVuSans-30" x="63.623047"/>
       <use xlink:href="#DejaVuSans-30" x="127.246094"/>
       <use xlink:href="#DejaVuSans-30" x="190.869141"/>
       <use xlink:href="#DejaVuSans-30" x="254.492188"/>
      </g>
     </g>
    </g>
   </g>
   <g id="line2d_27">
    <path d="M 93.465568 230.750692 
L 93.465568 219.884434 
L 94.97114 219.884434 
L 94.97114 242.172059 
L 96.476712 242.172059 
L 96.476712 233.91972 
L 97.982284 233.91972 
L 97.982284 247.224337 
L 99.487856 247.224337 
L 99.487856 236.692013 
L 100.993428 236.692013 
L 100.993428 231.684873 
L 102.499 231.684873 
L 102.499 244.30335 
L 104.004572 244.30335 
L 104.004572 243.13762 
L 105.510144 243.13762 
L 105.510144 252.02471 
L 107.015716 252.02471 
L 107.015716 254.954421 
L 108.521288 254.954421 
L 108.521288 252.350832 
L 110.02686 252.350832 
L 110.02686 257.677843 
L 111.532432 257.677843 
L 111.532432 266.36663 
L 113.038004 266.36663 
L 113.038004 266.179916 
L 114.543576 266.179916 
L 114.543576 263.356018 
L 116.049148 263.356018 
L 116.049148 257.788257 
L 117.554721 257.788257 
L 117.554721 253.155458 
L 119.060293 253.155458 
L 119.060293 259.866337 
L 120.565865 259.866337 
L 120.565865 257.121692 
L 122.071437 257.121692 
L 122.071437 251.979919 
L 123.577009 251.979919 
L 123.577009 261.495034 
L 125.082581 261.495034 
L 125.082581 262.3392 
L 126.588153 262.3392 
L 126.588153 265.950711 
L 128.093725 265.950711 
L 128.093725 263.294258 
L 129.599297 263.294258 
L 129.599297 264.926991 
L 131.104869 264.926991 
L 131.104869 267.45797 
L 132.610441 267.45797 
L 132.610441 272.3323 
L 134.116013 272.3323 
L 134.116013 272.509726 
L 137.127157 272.519492 
L 137.127157 267.698242 
L 140.138301 267.64642 
L 140.138301 263.204633 
L 141.643873 263.204633 
L 141.643873 263.46704 
L 143.149445 263.46704 
L 143.149445 261.174295 
L 144.655017 261.174295 
L 144.655017 259.633747 
L 146.160589 259.633747 
L 146.160589 261.301202 
L 147.666161 261.301202 
L 147.666161 265.521293 
L 149.171733 265.521293 
L 149.171733 265.199121 
L 150.677305 265.199121 
L 150.677305 266.19298 
L 152.182877 266.19298 
L 152.182877 269.362008 
L 153.688449 269.362008 
L 153.688449 270.088338 
L 155.194021 270.088338 
L 155.194021 269.458577 
L 158.205165 269.433361 
L 158.205165 268.912235 
L 159.710737 268.912235 
L 159.710737 273.523854 
L 161.216309 273.523854 
L 161.216309 273.803014 
L 162.721881 273.803014 
L 162.721881 272.621833 
L 164.227453 272.621833 
L 164.227453 275.242393 
L 165.733025 275.242393 
L 165.733025 276.45287 
L 167.238597 276.45287 
L 167.238597 273.205111 
L 170.249741 273.195779 
L 170.249741 274.494883 
L 171.755313 274.494883 
L 171.755313 274.843964 
L 173.260885 274.843964 
L 173.260885 269.973106 
L 174.766457 269.973106 
L 174.766457 269.818813 
L 176.272029 269.818813 
L 176.272029 267.504844 
L 177.777601 267.504844 
L 177.777601 266.49931 
L 179.283173 266.49931 
L 179.283173 269.783614 
L 180.788745 269.783614 
L 180.788745 272.806725 
L 182.294317 272.806725 
L 182.294317 274.935065 
L 183.799889 274.935065 
L 183.799889 274.749218 
L 185.305461 274.749218 
L 185.305461 273.812129 
L 186.811033 273.812129 
L 186.811033 273.641212 
L 188.316605 273.641212 
L 188.316605 272.012341 
L 189.822178 272.012341 
L 189.822178 271.502283 
L 191.32775 271.502283 
L 191.32775 270.024841 
L 192.833322 270.024841 
L 192.833322 275.125121 
L 194.338894 275.125121 
L 194.338894 274.508902 
L 195.844466 274.508902 
L 195.844466 273.765298 
L 198.85561 273.771157 
L 198.85561 273.391695 
L 200.361182 273.391695 
L 200.361182 273.195476 
L 201.866754 273.195476 
L 201.866754 273.661394 
L 203.372326 273.661394 
L 203.372326 273.434359 
L 206.38347 273.402025 
L 206.38347 274.773132 
L 207.889042 274.773132 
L 207.889042 273.712174 
L 210.900186 273.780402 
L 210.900186 273.874671 
L 212.405758 273.874671 
L 212.405758 274.614933 
L 213.91133 274.614933 
L 213.91133 274.355867 
L 215.416902 274.355867 
L 215.416902 273.594035 
L 216.922474 273.594035 
L 216.922474 274.15088 
L 218.428046 274.15088 
L 218.428046 277.40515 
L 219.933618 277.40515 
L 219.933618 280.920482 
L 221.43919 280.920482 
L 221.43919 283.072345 
L 222.944762 283.072345 
L 222.944762 285.348902 
L 224.450334 285.348902 
L 224.450334 283.787998 
L 225.955906 283.787998 
L 225.955906 285.711177 
L 227.461478 285.711177 
L 227.461478 286.390589 
L 228.96705 286.390589 
L 228.96705 287.607273 
L 230.472622 287.607273 
L 230.472622 286.529041 
L 231.978194 286.529041 
L 231.978194 285.039099 
L 233.483766 285.039099 
L 233.483766 285.378979 
L 234.989338 285.378979 
L 234.989338 285.601023 
L 236.49491 285.601023 
L 236.49491 284.90247 
L 238.000482 284.90247 
L 238.000482 284.292848 
L 239.506054 284.292848 
L 239.506054 286.139683 
L 241.011626 286.139683 
L 241.011626 285.982438 
L 242.517198 285.982438 
L 242.517198 286.228744 
L 244.02277 286.228744 
L 244.02277 286.39532 
L 247.033914 286.443279 
L 247.033914 286.90464 
L 250.045058 286.965316 
L 250.045058 287.231196 
L 251.55063 287.231196 
L 251.55063 286.212511 
L 254.561774 286.304827 
L 254.561774 284.923216 
L 256.067346 284.923216 
L 256.067346 283.998453 
L 257.572918 283.998453 
L 257.572918 285.328155 
L 260.584062 285.4091 
L 260.584062 285.095565 
L 263.595207 285.120434 
L 263.595207 284.879945 
L 265.100779 284.879945 
L 265.100779 284.478 
L 269.617495 284.393801 
L 269.617495 284.108868 
L 271.123067 284.108868 
L 271.123067 280.649394 
L 272.628639 280.649394 
L 272.628639 279.097908 
L 274.134211 279.097908 
L 274.134211 279.947977 
L 275.639783 279.947977 
L 275.639783 279.410662 
L 277.145355 279.410662 
L 277.145355 278.921827 
L 278.650927 278.921827 
L 278.650927 278.379695 
L 280.156499 278.379695 
L 280.156499 278.956505 
L 281.662071 278.956505 
L 281.662071 278.570793 
L 283.167643 278.570793 
L 283.167643 277.293434 
L 284.673215 277.293434 
L 284.673215 274.413505 
L 286.178787 274.413505 
L 286.178787 267.275335 
L 287.684359 267.275335 
L 287.684359 270.433426 
L 289.189931 270.433426 
L 289.189931 268.86714 
L 290.695503 268.86714 
L 290.695503 264.012688 
L 292.201075 264.012688 
L 292.201075 266.061081 
L 293.706647 266.061081 
L 293.706647 266.65803 
L 295.212219 266.65803 
L 295.212219 267.25103 
L 296.717791 267.25103 
L 296.717791 267.601326 
L 298.223363 267.601326 
L 298.223363 263.51335 
L 299.728935 263.51335 
L 299.728935 261.680794 
L 301.234507 261.680794 
L 301.234507 255.028247 
L 302.740079 255.028247 
L 302.740079 253.646463 
L 304.245651 253.646463 
L 304.245651 256.051489 
L 305.751223 256.051489 
L 305.751223 254.41767 
L 307.256795 254.41767 
L 307.256795 247.33614 
L 308.762367 247.33614 
L 308.762367 252.534291 
L 310.267939 252.534291 
L 310.267939 259.976925 
L 311.773511 259.976925 
L 311.773511 256.013773 
L 313.279083 256.013773 
L 313.279083 259.105026 
L 314.784655 259.105026 
L 314.784655 260.72756 
L 316.290227 260.72756 
L 316.290227 256.264896 
L 317.795799 256.264896 
L 317.795799 252.201963 
L 319.301371 252.201963 
L 319.301371 252.99817 
L 320.806943 252.99817 
L 320.806943 258.489631 
L 322.312515 258.489631 
L 322.312515 257.184798 
L 323.818087 257.184798 
L 323.818087 258.077227 
L 325.323659 258.077227 
L 325.323659 256.999559 
L 326.829231 256.999559 
L 326.829231 260.394841 
L 328.334803 260.394841 
L 328.334803 255.866728 
L 329.840375 255.866728 
L 329.840375 256.448659 
L 331.345947 256.448659 
L 331.345947 257.871762 
L 332.851519 257.871762 
L 332.851519 257.215917 
L 334.357091 257.215917 
L 334.357091 257.36587 
L 335.862664 257.36587 
L 335.862664 259.937429 
L 337.368236 259.937429 
L 337.368236 266.402046 
L 338.873808 266.402046 
L 338.873808 265.842076 
L 340.37938 265.842076 
L 340.37938 266.602606 
L 341.884952 266.602606 
L 341.884952 264.691927 
L 343.390524 264.691927 
L 343.390524 266.012037 
L 344.896096 266.012037 
L 344.896096 266.910369 
L 346.401668 266.910369 
L 346.401668 266.27783 
L 347.90724 266.27783 
L 347.90724 264.349617 
L 349.412812 264.349617 
L 349.412812 261.022605 
L 350.918384 261.022605 
L 350.918384 261.596248 
L 352.423956 261.596248 
L 352.423956 261.413265 
L 353.929528 261.413265 
L 353.929528 262.742317 
L 355.4351 262.742317 
L 355.4351 264.499223 
L 356.940672 264.499223 
L 356.940672 266.479779 
L 358.446244 266.479779 
L 358.446244 270.34098 
L 359.951816 270.34098 
L 359.951816 270.873607 
L 361.457388 270.873607 
L 361.457388 269.163184 
L 362.96296 269.163184 
L 362.96296 270.746787 
L 364.468532 270.746787 
L 364.468532 269.316523 
L 365.974104 269.316523 
L 365.974104 270.762803 
L 367.479676 270.762803 
L 367.479676 272.10661 
L 368.985248 272.10661 
L 368.985248 270.758419 
L 370.49082 270.758419 
L 370.49082 270.495751 
L 371.996392 270.495751 
L 371.996392 270.277093 
L 373.501964 270.277093 
L 373.501964 270.821308 
L 375.007536 270.821308 
L 375.007536 270.057913 
L 376.513108 270.057913 
L 376.513108 268.033869 
L 378.01868 268.033869 
L 378.01868 266.786847 
L 379.524252 266.786847 
L 379.524252 263.335967 
L 381.029824 263.335967 
L 381.029824 264.108867 
L 382.535396 264.108867 
L 382.535396 265.822805 
L 384.040968 265.822805 
L 384.040968 261.688997 
L 385.54654 261.688997 
L 385.54654 261.538176 
L 387.052112 261.538176 
L 387.052112 259.623721 
L 388.557684 259.623721 
L 388.557684 259.193478 
L 390.063256 259.193478 
L 390.063256 256.963752 
L 391.568828 256.963752 
L 391.568828 257.779186 
L 393.0744 257.779186 
L 393.0744 259.997107 
L 394.579972 259.997107 
L 394.579972 263.834307 
L 396.085544 263.834307 
L 396.085544 264.925212 
L 397.591116 264.925212 
L 397.591116 262.610939 
L 399.096688 262.610939 
L 399.096688 267.539001 
L 400.60226 267.539001 
L 400.60226 277.620857 
L 402.107832 277.620857 
L 402.107832 278.712066 
L 403.613404 278.712066 
L 403.613404 275.099992 
L 405.118976 275.099992 
L 405.118976 272.892531 
L 406.624548 272.892531 
L 406.624548 276.421317 
L 408.130121 276.421317 
L 408.130121 272.412289 
L 409.635693 272.412289 
L 409.635693 270.094241 
L 411.141265 270.094241 
L 411.141265 272.133953 
L 414.152409 272.139552 
L 414.152409 270.458122 
L 415.657981 270.458122 
L 415.657981 271.015271 
L 417.163553 271.015271 
L 417.163553 268.548831 
L 418.669125 268.548831 
L 418.669125 264.514631 
L 420.174697 264.514631 
L 420.174697 263.398509 
L 421.680269 263.398509 
L 421.680269 259.336661 
L 423.185841 259.336661 
L 423.185841 263.708398 
L 424.691413 263.708398 
L 424.691413 261.229415 
L 426.196985 261.229415 
L 426.196985 260.687022 
L 427.702557 260.687022 
L 427.702557 264.072105 
L 429.208129 264.072105 
L 429.208129 260.432948 
L 430.713701 260.432948 
L 430.713701 257.676845 
L 432.219273 257.676845 
L 432.219273 260.196235 
L 433.724845 260.196235 
L 433.724845 259.539131 
L 435.230417 259.539131 
L 435.230417 260.848347 
L 438.241561 260.929465 
L 438.241561 261.667427 
L 439.747133 261.667427 
L 439.747133 261.858091 
L 441.252705 261.858091 
L 441.252705 262.098971 
L 442.758277 262.098971 
L 442.758277 262.589108 
L 444.263849 262.589108 
L 444.263849 261.791339 
L 447.274993 261.879314 
L 447.274993 262.063555 
L 450.286137 261.97176 
L 450.286137 260.242414 
L 451.791709 260.242414 
L 451.791709 254.039033 
L 453.297281 254.039033 
L 453.297281 252.730554 
L 454.802853 252.730554 
L 454.802853 253.379976 
L 456.308425 253.379976 
L 456.308425 250.891532 
L 457.813997 250.891532 
L 457.813997 251.735654 
L 459.319569 251.735654 
L 459.319569 250.256085 
L 460.825141 250.256085 
L 460.825141 250.465239 
L 462.330713 250.465239 
L 462.330713 250.90746 
L 463.836285 250.90746 
L 463.836285 251.902143 
L 465.341857 251.902143 
L 465.341857 250.215982 
L 466.847429 250.215982 
L 466.847429 257.87046 
L 468.353001 257.87046 
L 468.353001 257.574416 
L 469.858573 257.574416 
L 469.858573 257.127638 
L 471.364145 257.127638 
L 471.364145 254.466584 
L 472.869717 254.466584 
L 472.869717 256.694965 
L 474.375289 256.694965 
L 474.375289 255.556187 
L 475.880861 255.556187 
L 475.880861 254.914014 
L 477.386433 254.914014 
L 477.386433 256.168457 
L 478.892005 256.168457 
L 478.892005 255.651845 
L 480.397578 255.651845 
L 480.397578 252.5885 
L 481.90315 252.5885 
L 481.90315 252.036776 
L 483.408722 252.036776 
L 483.408722 250.932503 
L 484.914294 250.932503 
L 484.914294 245.783482 
L 486.419866 245.783482 
L 486.419866 242.71519 
L 487.925438 242.71519 
L 487.925438 242.025751 
L 489.43101 242.025751 
L 489.43101 240.527216 
L 490.936582 240.527216 
L 490.936582 234.733027 
L 492.442154 234.733027 
L 492.442154 231.23931 
L 493.947726 231.23931 
L 493.947726 229.374853 
L 495.453298 229.374853 
L 495.453298 220.858111 
L 496.95887 220.858111 
L 496.95887 218.752818 
L 498.464442 218.752818 
L 498.464442 225.003117 
L 499.970014 225.003117 
L 499.970014 218.516495 
L 501.475586 218.516495 
L 501.475586 217.862473 
L 502.981158 217.862473 
L 502.981158 222.766446 
L 504.48673 222.766446 
L 504.48673 218.301135 
L 505.992302 218.301135 
L 505.992302 201.486395 
L 507.497874 201.486395 
L 507.497874 198.560243 
L 509.003446 198.560243 
L 509.003446 187.196687 
L 510.509018 187.196687 
L 510.509018 176.722175 
L 512.01459 176.722175 
L 512.01459 158.735628 
L 513.520162 158.735628 
L 513.520162 130.588408 
L 515.025734 130.588408 
L 515.025734 147.693506 
L 516.531306 147.693506 
L 516.531306 142.122533 
L 518.036878 142.122533 
L 518.036878 145.631094 
L 519.54245 145.631094 
L 519.54245 162.646308 
L 521.048022 162.646308 
L 521.048022 169.94029 
L 522.553594 169.94029 
L 522.553594 158.146752 
L 524.059166 158.146752 
L 524.059166 141.369208 
L 525.564738 141.369208 
L 525.564738 100.735496 
L 527.07031 100.735496 
L 527.07031 95.930478 
L 528.575882 95.930478 
L 528.575882 88.60121 
L 530.081454 88.60121 
L 530.081454 58.909579 
L 531.587026 58.909579 
L 531.587026 82.243969 
L 533.092598 82.243969 
L 533.092598 106.162375 
L 534.59817 106.162375 
L 534.59817 91.687905 
L 536.103742 91.687905 
L 536.103742 74.976375 
L 537.609314 74.976375 
L 537.609314 53.475321 
L 539.114886 53.475321 
L 539.114886 55.128497 
L 540.620458 55.128497 
L 540.620458 49.862032 
L 542.12603 49.862032 
L 542.12603 74.06971 
L 543.631602 74.06971 
L 543.631602 59.853525 
L 545.137174 59.853525 
L 545.137174 47.036051 
L 546.642746 47.036051 
L 546.642746 45.659432 
L 548.148318 45.659432 
L 548.148318 49.789203 
L 549.65389 49.789203 
L 549.65389 26.127129 
L 551.159462 26.127129 
L 551.159462 41.176065 
L 552.665034 41.176065 
L 552.665034 68.424998 
L 554.170607 68.424998 
L 554.170607 88.968042 
L 555.676179 88.968042 
L 555.676179 69.40002 
L 557.181751 69.40002 
L 557.181751 53.648712 
L 558.687323 53.648712 
L 558.687323 52.924162 
L 560.192895 52.924162 
L 560.192895 55.659649 
L 561.698467 55.659649 
L 561.698467 99.119732 
L 563.204039 99.119732 
L 563.204039 141.533353 
L 564.709611 141.533353 
L 564.709611 151.123988 
L 566.215183 151.123988 
L 566.215183 135.105454 
L 567.720755 135.105454 
L 567.720755 140.030478 
L 569.226327 140.030478 
L 569.226327 141.875186 
L 570.731899 141.875186 
L 570.731899 156.785106 
L 572.237471 156.785106 
L 572.237471 147.910689 
L 573.743043 147.910689 
L 573.743043 135.628099 
L 575.248615 135.628099 
L 575.248615 147.487738 
L 576.754187 147.487738 
L 576.754187 151.623803 
L 578.259759 151.623803 
L 578.259759 152.416798 
L 579.765331 152.416798 
L 579.765331 155.020084 
L 581.270903 155.020084 
L 581.270903 153.483008 
L 582.776475 153.483008 
L 582.776475 156.501345 
L 584.282047 156.501345 
L 584.282047 159.54364 
L 585.787619 159.54364 
L 585.787619 164.018891 
L 587.293191 164.018891 
L 587.293191 161.7863 
L 588.798763 161.7863 
L 588.798763 139.997493 
L 590.304335 139.997493 
L 590.304335 118.747909 
L 591.809907 118.747909 
L 591.809907 136.439149 
L 593.315479 136.439149 
L 593.315479 108.244751 
L 594.821051 108.244751 
L 594.821051 104.00296 
L 596.326623 104.00296 
L 596.326623 97.731611 
L 597.832195 97.731611 
L 597.832195 99.128109 
L 599.337767 99.128109 
L 599.337767 87.023987 
L 600.843339 87.023987 
L 600.843339 89.049291 
L 602.348911 89.049291 
L 602.348911 97.299936 
L 603.854483 97.299936 
L 603.854483 85.18427 
L 605.360055 85.18427 
L 605.360055 101.976441 
L 608.371199 102.060033 
L 608.371199 94.568268 
L 609.876771 94.568268 
L 609.876771 115.764424 
L 611.382343 115.764424 
L 611.382343 116.137679 
L 612.887915 116.137679 
L 612.887915 123.969107 
L 614.393487 123.969107 
L 614.393487 94.820693 
L 615.899059 94.820693 
L 615.899059 61.762989 
L 617.404631 61.762989 
L 617.404631 64.879328 
L 618.910203 64.879328 
L 618.910203 52.848339 
L 620.415775 52.848339 
L 620.415775 32.996989 
L 621.921347 32.996989 
L 621.921347 38.528683 
L 623.426919 38.528683 
L 623.426919 40.055951 
L 624.932491 40.055951 
L 624.932491 34.039935 
L 626.438064 34.039935 
L 626.438064 28.729416 
L 627.943636 28.729416 
L 627.943636 27.260872 
L 629.449208 27.260872 
L 629.449208 20.552727 
L 630.95478 20.552727 
L 630.95478 25.997748 
L 632.460352 25.997748 
L 632.460352 49.657088 
L 633.965924 49.657088 
L 633.965924 52.065022 
L 635.471496 52.065022 
L 635.471496 64.118016 
L 636.977068 64.118016 
L 636.977068 53.577403 
L 638.48264 53.577403 
L 638.48264 87.644937 
L 639.988212 87.644937 
L 639.988212 95.113308 
L 641.493784 95.113308 
L 641.493784 99.030715 
L 642.999356 99.030715 
L 642.999356 101.563559 
L 644.504928 101.563559 
L 644.504928 89.580052 
L 646.0105 89.580052 
L 646.0105 82.91214 
L 647.516072 82.91214 
L 647.516072 100.542054 
L 649.021644 100.542054 
L 649.021644 96.553425 
L 650.527216 96.553425 
L 650.527216 114.81362 
L 652.032788 114.81362 
L 652.032788 120.332727 
L 653.53836 120.332727 
L 653.53836 114.905892 
L 655.043932 114.905892 
L 655.043932 118.021666 
L 656.549504 118.021666 
L 656.549504 149.748627 
L 658.055076 149.748627 
L 658.055076 142.144321 
L 659.560648 142.144321 
L 659.560648 137.391299 
L 661.06622 137.391299 
L 661.06622 140.977246 
L 662.571792 140.977246 
L 662.571792 111.717376 
L 664.077364 111.717376 
L 664.077364 117.935774 
L 665.582936 117.935774 
L 665.582936 108.669786 
L 667.088508 108.669786 
L 667.088508 127.858389 
L 668.59408 127.858389 
L 668.59408 140.113202 
L 670.099652 140.113202 
L 670.099652 138.320359 
L 671.605224 138.320359 
L 671.605224 117.661778 
L 673.110796 117.661778 
L 673.110796 136.897039 
L 674.616368 136.897039 
L 674.616368 133.821845 
L 676.12194 133.821845 
L 676.12194 131.305493 
L 677.627512 131.305493 
L 677.627512 118.71245 
L 679.133084 118.71245 
L 679.133084 115.749233 
L 680.638656 115.749233 
L 680.638656 98.590447 
L 682.144228 98.590447 
L 682.144228 104.316495 
L 683.6498 104.316495 
L 683.6498 99.663644 
L 685.155372 99.663644 
L 685.155372 118.466709 
L 686.660944 118.466709 
L 686.660944 127.914161 
L 688.166516 127.914161 
L 688.166516 126.670351 
L 689.672088 126.670351 
L 689.672088 122.386546 
L 691.17766 122.386546 
L 691.17766 130.677252 
L 692.683232 130.677252 
L 692.683232 129.355796 
L 694.188804 129.355796 
L 694.188804 134.82178 
L 695.694376 134.82178 
L 695.694376 145.66191 
L 697.199948 145.66191 
L 697.199948 167.402324 
L 698.705521 167.402324 
L 698.705521 171.435744 
L 700.211093 171.435744 
L 700.211093 177.484398 
L 701.716665 177.484398 
L 701.716665 170.548914 
L 703.222237 170.548914 
L 703.222237 175.2581 
L 704.727809 175.2581 
L 704.727809 164.313633 
L 706.233381 164.313633 
L 706.233381 173.140785 
L 707.738953 173.140785 
L 707.738953 166.907977 
L 709.244525 166.907977 
L 709.244525 178.944739 
L 710.750097 178.944739 
L 710.750097 204.090505 
L 712.255669 204.090505 
L 712.255669 212.816054 
L 713.761241 212.816054 
L 713.761241 210.437981 
L 715.266813 210.437981 
L 715.266813 212.113595 
L 716.772385 212.113595 
L 716.772385 218.517667 
L 718.277957 218.517667 
L 718.277957 214.37188 
L 719.783529 214.37188 
L 719.783529 208.292628 
L 721.289101 208.292628 
L 721.289101 214.190547 
L 722.794673 214.190547 
L 722.794673 211.801102 
L 724.300245 211.801102 
L 724.300245 201.472072 
L 725.805817 201.472072 
L 725.805817 209.516039 
L 727.311389 209.516039 
L 727.311389 198.703426 
L 728.816961 198.703426 
L 728.816961 202.219973 
L 730.322533 202.219973 
L 730.322533 202.370056 
L 731.828105 202.370056 
L 731.828105 197.974622 
L 733.333677 197.974622 
L 733.333677 196.433987 
L 734.839249 196.433987 
L 734.839249 201.298899 
L 736.344821 201.298899 
L 736.344821 209.072429 
L 737.850393 209.072429 
L 737.850393 214.148751 
L 739.355965 214.148751 
L 739.355965 216.059734 
L 740.861537 216.059734 
L 740.861537 215.877793 
L 742.367109 215.877793 
L 742.367109 218.285988 
L 743.872681 218.285988 
L 743.872681 207.372856 
L 745.378253 207.372856 
L 745.378253 216.486504 
L 746.883825 216.486504 
L 746.883825 217.148339 
L 748.389397 217.148339 
L 748.389397 218.283818 
L 749.894969 218.283818 
L 749.894969 219.046345 
L 751.400541 219.046345 
L 751.400541 218.135774 
L 752.906113 218.135774 
L 752.906113 214.433163 
L 754.411685 214.433163 
L 754.411685 217.583746 
L 755.917257 217.583746 
L 755.917257 217.837864 
L 757.422829 217.837864 
L 757.422829 217.118956 
L 758.928401 217.118956 
L 758.928401 218.757939 
L 760.433973 218.757939 
L 760.433973 214.721872 
L 761.939545 214.721872 
L 761.939545 211.619118 
L 763.445117 211.619118 
L 763.445117 214.493058 
L 764.950689 214.493058 
L 764.950689 211.167001 
L 766.456261 211.167001 
L 766.456261 225.793855 
L 767.961833 225.793855 
L 767.961833 229.970283 
L 769.467405 229.970283 
L 769.467405 229.556837 
L 770.972978 229.556837 
L 770.972978 231.676887 
L 772.47855 231.676887 
L 772.47855 230.553995 
L 773.984122 230.553995 
L 773.984122 227.441432 
L 775.489694 227.441432 
L 775.489694 227.671679 
L 776.995266 227.671679 
L 776.995266 227.163834 
L 778.500838 227.163834 
L 778.500838 227.2841 
L 780.00641 227.2841 
L 780.00641 229.754837 
L 781.511982 229.754837 
L 781.511982 228.595834 
L 783.017554 228.595834 
L 783.017554 228.88463 
L 784.523126 228.88463 
L 784.523126 230.181563 
L 786.028698 230.181563 
L 786.028698 229.858524 
L 787.53427 229.858524 
L 787.53427 228.935366 
L 789.039842 228.935366 
L 789.039842 227.348335 
L 790.545414 227.348335 
L 790.545414 215.450633 
L 792.050986 215.450633 
L 792.050986 210.191111 
L 793.556558 210.191111 
L 793.556558 203.128243 
L 795.06213 203.128243 
L 795.06213 201.751363 
L 796.567702 201.751363 
L 796.567702 198.860323 
L 798.073274 198.860323 
L 798.073274 200.168628 
L 799.578846 200.168628 
L 799.578846 203.166263 
L 801.084418 203.166263 
L 801.084418 208.049795 
L 802.58999 208.049795 
L 802.58999 205.561784 
L 804.095562 205.561784 
L 804.095562 195.01453 
L 805.601134 195.01453 
L 805.601134 196.994826 
L 807.106706 196.994826 
L 807.106706 199.69685 
L 808.612278 199.69685 
L 808.612278 200.112423 
L 810.11785 200.112423 
L 810.11785 204.698869 
L 811.623422 204.698869 
L 811.623422 214.185512 
L 813.128994 214.185512 
L 813.128994 194.46975 
L 814.634566 194.46975 
L 814.634566 184.886928 
L 816.140138 184.886928 
L 816.140138 183.450631 
L 817.64571 183.450631 
L 817.64571 180.440627 
L 819.151282 180.440627 
L 819.151282 180.296446 
L 820.656854 180.296446 
L 820.656854 181.298291 
L 822.162426 181.298291 
L 822.162426 180.763059 
L 823.667998 180.763059 
L 823.667998 170.739709 
L 825.17357 170.739709 
L 825.17357 170.373657 
L 826.679142 170.373657 
L 826.679142 176.839446 
L 828.184714 176.839446 
L 828.184714 182.217021 
L 829.690286 182.217021 
L 829.690286 174.014941 
L 831.195858 174.014941 
L 831.195858 180.063856 
L 832.70143 180.063856 
L 832.70143 173.776101 
L 834.207002 173.776101 
L 834.207002 182.002008 
L 835.712574 182.002008 
L 835.712574 185.709176 
L 837.218146 185.709176 
L 837.218146 183.051551 
L 838.723718 183.051551 
L 838.723718 185.836647 
L 840.22929 185.836647 
L 840.22929 187.048774 
L 841.734862 187.048774 
L 841.734862 181.548155 
L 843.240434 181.548155 
L 843.240434 183.686694 
L 846.251579 183.722674 
L 846.251579 189.759088 
L 847.757151 189.759088 
L 847.757151 192.909107 
L 849.262723 192.909107 
L 849.262723 187.657311 
L 850.768295 187.657311 
L 850.768295 172.177394 
L 852.273867 172.177394 
L 852.273867 170.602038 
L 853.779439 170.602038 
L 853.779439 169.713168 
L 855.285011 169.713168 
L 855.285011 168.396487 
L 856.790583 168.396487 
L 856.790583 170.828379 
L 858.296155 170.828379 
L 858.296155 170.059775 
L 859.801727 170.059775 
L 859.801727 170.716706 
L 861.307299 170.716706 
L 861.307299 172.617663 
L 862.812871 172.617663 
L 862.812871 175.325373 
L 864.318443 175.325373 
L 864.318443 174.72773 
L 865.824015 174.72773 
L 865.824015 173.132756 
L 867.329587 173.132756 
L 867.329587 175.891377 
L 868.835159 175.891377 
L 868.835159 173.643986 
L 870.340731 173.643986 
L 870.340731 174.867831 
L 871.846303 174.867831 
L 871.846303 186.246881 
L 873.351875 186.246881 
L 873.351875 188.584678 
L 874.857447 188.584678 
L 874.857447 188.905808 
L 876.363019 188.905808 
L 876.363019 181.606444 
L 877.868591 181.606444 
L 877.868591 189.688474 
L 879.374163 189.688474 
L 879.374163 190.19098 
L 880.879735 190.19098 
L 880.879735 189.845892 
L 882.385307 189.845892 
L 882.385307 186.793875 
L 883.890879 186.793875 
L 883.890879 185.805441 
L 885.396451 185.805441 
L 885.396451 186.594921 
L 886.902023 186.594921 
L 886.902023 188.196622 
L 888.407595 188.196622 
L 888.407595 184.908456 
L 889.913167 184.908456 
L 889.913167 181.318559 
L 891.418739 181.318559 
L 891.418739 180.712583 
L 892.924311 180.712583 
L 892.924311 185.827576 
L 894.429883 185.827576 
L 894.429883 178.194669 
L 895.935455 178.194669 
L 895.935455 173.137139 
L 897.441027 173.137139 
L 897.441027 154.821347 
L 898.946599 154.821347 
L 898.946599 154.005262 
L 900.452171 154.005262 
L 900.452171 148.146752 
L 901.957743 148.146752 
L 901.957743 149.848798 
L 903.463315 149.848798 
L 903.463315 143.86677 
L 905.101932 143.86677 
L 905.101932 143.86677 
" clip-path="url(#p7408098b6a)" style="fill: none; stroke: #3572c6; stroke-width: 1.2; stroke-linecap: square"/>
   </g>
   <g id="patch_3">
    <path d="M 52.88375 300.96 
L 52.88375 7.2 
" style="fill: none; stroke: #899ab8; stroke-width: 1.12; stroke-linejoin: miter; stroke-linecap: square"/>
   </g>
   <g id="patch_4">
    <path d="M 945.68375 300.96 
L 945.68375 7.2 
" style="fill: none; stroke: #899ab8; stroke-width: 1.12; stroke-linejoin: miter; stroke-linecap: square"/>
   </g>
   <g id="patch_5">
    <path d="M 52.88375 300.96 
L 945.68375 300.96 
" style="fill: none; stroke: #899ab8; stroke-width: 1.12; stroke-linejoin: miter; stroke-linecap: square"/>
   </g>
   <g id="patch_6">
    <path d="M 52.88375 7.2 
L 945.68375 7.2 
" style="fill: none; stroke: #899ab8; stroke-width: 1.12; stroke-linejoin: miter; stroke-linecap: square"/>
   </g>
  </g>
 </g>
 <defs>
  <clipPath id="p7408098b6a">
   <rect x="52.88375" y="7.2" width="892.8" height="293.76"/>
  </clipPath>
 </defs>
</svg>
