<?xml version="1.0" encoding="utf-8" standalone="no"?>
<!DOCTYPE svg PUBLIC "-//W3C//DTD SVG 1.1//EN"
  "http://www.w3.org/Graphics/SVG/1.1/DTD/svg11.dtd">
<svg xmlns:xlink="http://www.w3.org/1999/xlink" width="952.88375pt" height="358.290693pt" viewBox="0 0 952.88375 358.290693" xmlns="http://www.w3.org/2000/svg" version="1.1">
 <metadata>
  <rdf:RDF xmlns:dc="http://purl.org/dc/elements/1.1/" xmlns:cc="http://creativecommons.org/ns#" xmlns:rdf="http://www.w3.org/1999/02/22-rdf-syntax-ns#">
   <cc:Work>
    <dc:type rdf:resource="http://purl.org/dc/dcmitype/StillImage"/>
    <dc:date>2022-07-29T08:08:53.017340</dc:date>
    <dc:format>image/svg+xml</dc:format>
    <dc:creator>
     <cc:Agent>
      <dc:title>Matplotlib v3.5.2, https://matplotlib.org/</dc:title>
     </cc:Agent>
    </dc:creator>
   </cc:Work>
  </rdf:RDF>
 </metadata>
 <defs>
  <style type="text/css">*{stroke-linejoin: round; stroke-linecap: butt}</style>
 </defs>
 <g id="figure_1">
  <g id="patch_1">
   <path d="M 0 358.290693 
L 952.88375 358.290693 
L 952.88375 0 
L 0 0 
z
" style="fill: #373e4b"/>
  </g>
  <g id="axes_1">
   <g id="patch_2">
    <path d="M 52.88375 300.96 
L 945.68375 300.96 
L 945.68375 7.2 
L 52.88375 7.2 
z
" style="fill: #373e4b"/>
   </g>
   <g id="matplotlib.axis_1">
    <g id="xtick_1">
     <g id="line2d_1">
      <path d="M 100.689368 300.96 
L 100.689368 7.2 
" clip-path="url(#p9cf0b761ce)" style="fill: none; stroke: #546379; stroke-width: 1.12; stroke-linecap: square"/>
     </g>
     <g id="line2d_2"/>
     <g id="text_1">
      <!-- 2018 -->
      <g style="fill: #b1bed6" transform="translate(71.608328 330.884854)rotate(-30)scale(0.126 -0.126)">
       <defs>
        <path id="DejaVuSans-32" d="M 1228 531 
L 3431 531 
L 3431 0 
L 469 0 
L 469 531 
Q 828 903 1448 1529 
Q 2069 2156 2228 2338 
Q 2531 2678 2651 2914 
Q 2772 3150 2772 3378 
Q 2772 3750 2511 3984 
Q 2250 4219 1831 4219 
Q 1534 4219 1204 4116 
Q 875 4013 500 3803 
L 500 4441 
Q 881 4594 1212 4672 
Q 1544 4750 1819 4750 
Q 2544 4750 2975 4387 
Q 3406 4025 3406 3419 
Q 3406 3131 3298 2873 
Q 3191 2616 2906 2266 
Q 2828 2175 2409 1742 
Q 1991 1309 1228 531 
z
" transform="scale(0.015625)"/>
        <path id="DejaVuSans-30" d="M 2034 4250 
Q 1547 4250 1301 3770 
Q 1056 3291 1056 2328 
Q 1056 1369 1301 889 
Q 1547 409 2034 409 
Q 2525 409 2770 889 
Q 3016 1369 3016 2328 
Q 3016 3291 2770 3770 
Q 2525 4250 2034 4250 
z
M 2034 4750 
Q 2819 4750 3233 4129 
Q 3647 3509 3647 2328 
Q 3647 1150 3233 529 
Q 2819 -91 2034 -91 
Q 1250 -91 836 529 
Q 422 1150 422 2328 
Q 422 3509 836 4129 
Q 1250 4750 2034 4750 
z
" transform="scale(0.015625)"/>
        <path id="DejaVuSans-31" d="M 794 531 
L 1825 531 
L 1825 4091 
L 703 3866 
L 703 4441 
L 1819 4666 
L 2450 4666 
L 2450 531 
L 3481 531 
L 3481 0 
L 794 0 
L 794 531 
z
" transform="scale(0.015625)"/>
        <path id="DejaVuSans-38" d="M 2034 2216 
Q 1584 2216 1326 1975 
Q 1069 1734 1069 1313 
Q 1069 891 1326 650 
Q 1584 409 2034 409 
Q 2484 409 2743 651 
Q 3003 894 3003 1313 
Q 3003 1734 2745 1975 
Q 2488 2216 2034 2216 
z
M 1403 2484 
Q 997 2584 770 2862 
Q 544 3141 544 3541 
Q 544 4100 942 4425 
Q 1341 4750 2034 4750 
Q 2731 4750 3128 4425 
Q 3525 4100 3525 3541 
Q 3525 3141 3298 2862 
Q 3072 2584 2669 2484 
Q 3125 2378 3379 2068 
Q 3634 1759 3634 1313 
Q 3634 634 3220 271 
Q 2806 -91 2034 -91 
Q 1263 -91 848 271 
Q 434 634 434 1313 
Q 434 1759 690 2068 
Q 947 2378 1403 2484 
z
M 1172 3481 
Q 1172 3119 1398 2916 
Q 1625 2713 2034 2713 
Q 2441 2713 2670 2916 
Q 2900 3119 2900 3481 
Q 2900 3844 2670 4047 
Q 2441 4250 2034 4250 
Q 1625 4250 1398 4047 
Q 1172 3844 1172 3481 
z
" transform="scale(0.015625)"/>
       </defs>
       <use xlink:href="#DejaVuSans-32"/>
       <use xlink:href="#DejaVuSans-30" x="63.623047"/>
       <use xlink:href="#DejaVuSans-31" x="127.246094"/>
       <use xlink:href="#DejaVuSans-38" x="190.869141"/>
      </g>
     </g>
    </g>
    <g id="xtick_2">
     <g id="line2d_3">
      <path d="M 276.468493 300.96 
L 276.468493 7.2 
" clip-path="url(#p9cf0b761ce)" style="fill: none; stroke: #546379; stroke-width: 1.12; stroke-linecap: square"/>
     </g>
     <g id="line2d_4"/>
     <g id="text_2">
      <!-- 2019 -->
      <g style="fill: #b1bed6" transform="translate(247.387453 330.884854)rotate(-30)scale(0.126 -0.126)">
       <defs>
        <path id="DejaVuSans-39" d="M 703 97 
L 703 672 
Q 941 559 1184 500 
Q 1428 441 1663 441 
Q 2288 441 2617 861 
Q 2947 1281 2994 2138 
Q 2813 1869 2534 1725 
Q 2256 1581 1919 1581 
Q 1219 1581 811 2004 
Q 403 2428 403 3163 
Q 403 3881 828 4315 
Q 1253 4750 1959 4750 
Q 2769 4750 3195 4129 
Q 3622 3509 3622 2328 
Q 3622 1225 3098 567 
Q 2575 -91 1691 -91 
Q 1453 -91 1209 -44 
Q 966 3 703 97 
z
M 1959 2075 
Q 2384 2075 2632 2365 
Q 2881 2656 2881 3163 
Q 2881 3666 2632 3958 
Q 2384 4250 1959 4250 
Q 1534 4250 1286 3958 
Q 1038 3666 1038 3163 
Q 1038 2656 1286 2365 
Q 1534 2075 1959 2075 
z
" transform="scale(0.015625)"/>
       </defs>
       <use xlink:href="#DejaVuSans-32"/>
       <use xlink:href="#DejaVuSans-30" x="63.623047"/>
       <use xlink:href="#DejaVuSans-31" x="127.246094"/>
       <use xlink:href="#DejaVuSans-39" x="190.869141"/>
      </g>
     </g>
    </g>
    <g id="xtick_3">
     <g id="line2d_5">
      <path d="M 452.247617 300.96 
L 452.247617 7.2 
" clip-path="url(#p9cf0b761ce)" style="fill: none; stroke: #546379; stroke-width: 1.12; stroke-linecap: square"/>
     </g>
     <g id="line2d_6"/>
     <g id="text_3">
      <!-- 2020 -->
      <g style="fill: #b1bed6" transform="translate(423.166578 330.884854)rotate(-30)scale(0.126 -0.126)">
       <use xlink:href="#DejaVuSans-32"/>
       <use xlink:href="#DejaVuSans-30" x="63.623047"/>
       <use xlink:href="#DejaVuSans-32" x="127.246094"/>
       <use xlink:href="#DejaVuSans-30" x="190.869141"/>
      </g>
     </g>
    </g>
    <g id="xtick_4">
     <g id="line2d_7">
      <path d="M 628.508329 300.96 
L 628.508329 7.2 
" clip-path="url(#p9cf0b761ce)" style="fill: none; stroke: #546379; stroke-width: 1.12; stroke-linecap: square"/>
     </g>
     <g id="line2d_8"/>
     <g id="text_4">
      <!-- 2021 -->
      <g style="fill: #b1bed6" transform="translate(599.427289 330.884854)rotate(-30)scale(0.126 -0.126)">
       <use xlink:href="#DejaVuSans-32"/>
       <use xlink:href="#DejaVuSans-30" x="63.623047"/>
       <use xlink:href="#DejaVuSans-32" x="127.246094"/>
       <use xlink:href="#DejaVuSans-31" x="190.869141"/>
      </g>
     </g>
    </g>
    <g id="xtick_5">
     <g id="line2d_9">
      <path d="M 804.287453 300.96 
L 804.287453 7.2 
" clip-path="url(#p9cf0b761ce)" style="fill: none; stroke: #546379; stroke-width: 1.12; stroke-linecap: square"/>
     </g>
     <g id="line2d_10"/>
     <g id="text_5">
      <!-- 2022 -->
      <g style="fill: #b1bed6" transform="translate(775.206414 330.884854)rotate(-30)scale(0.126 -0.126)">
       <use xlink:href="#DejaVuSans-32"/>
       <use xlink:href="#DejaVuSans-30" x="63.623047"/>
       <use xlink:href="#DejaVuSans-32" x="127.246094"/>
       <use xlink:href="#DejaVuSans-32" x="190.869141"/>
      </g>
     </g>
    </g>
    <g id="text_6">
     <!-- Date -->
     <g style="fill: #b1bed6" transform="translate(482.074625 348.095943)scale(0.144 -0.144)">
      <defs>
       <path id="DejaVuSans-44" d="M 1259 4147 
L 1259 519 
L 2022 519 
Q 2988 519 3436 956 
Q 3884 1394 3884 2338 
Q 3884 3275 3436 3711 
Q 2988 4147 2022 4147 
L 1259 4147 
z
M 628 4666 
L 1925 4666 
Q 3281 4666 3915 4102 
Q 4550 3538 4550 2338 
Q 4550 1131 3912 565 
Q 3275 0 1925 0 
L 628 0 
L 628 4666 
z
" transform="scale(0.015625)"/>
       <path id="DejaVuSans-61" d="M 2194 1759 
Q 1497 1759 1228 1600 
Q 959 1441 959 1056 
Q 959 750 1161 570 
Q 1363 391 1709 391 
Q 2188 391 2477 730 
Q 2766 1069 2766 1631 
L 2766 1759 
L 2194 1759 
z
M 3341 1997 
L 3341 0 
L 2766 0 
L 2766 531 
Q 2569 213 2275 61 
Q 1981 -91 1556 -91 
Q 1019 -91 701 211 
Q 384 513 384 1019 
Q 384 1609 779 1909 
Q 1175 2209 1959 2209 
L 2766 2209 
L 2766 2266 
Q 2766 2663 2505 2880 
Q 2244 3097 1772 3097 
Q 1472 3097 1187 3025 
Q 903 2953 641 2809 
L 641 3341 
Q 956 3463 1253 3523 
Q 1550 3584 1831 3584 
Q 2591 3584 2966 3190 
Q 3341 2797 3341 1997 
z
" transform="scale(0.015625)"/>
       <path id="DejaVuSans-74" d="M 1172 4494 
L 1172 3500 
L 2356 3500 
L 2356 3053 
L 1172 3053 
L 1172 1153 
Q 1172 725 1289 603 
Q 1406 481 1766 481 
L 2356 481 
L 2356 0 
L 1766 0 
Q 1100 0 847 248 
Q 594 497 594 1153 
L 594 3053 
L 172 3053 
L 172 3500 
L 594 3500 
L 594 4494 
L 1172 4494 
z
" transform="scale(0.015625)"/>
       <path id="DejaVuSans-65" d="M 3597 1894 
L 3597 1613 
L 953 1613 
Q 991 1019 1311 708 
Q 1631 397 2203 397 
Q 2534 397 2845 478 
Q 3156 559 3463 722 
L 3463 178 
Q 3153 47 2828 -22 
Q 2503 -91 2169 -91 
Q 1331 -91 842 396 
Q 353 884 353 1716 
Q 353 2575 817 3079 
Q 1281 3584 2069 3584 
Q 2775 3584 3186 3129 
Q 3597 2675 3597 1894 
z
M 3022 2063 
Q 3016 2534 2758 2815 
Q 2500 3097 2075 3097 
Q 1594 3097 1305 2825 
Q 1016 2553 972 2059 
L 3022 2063 
z
" transform="scale(0.015625)"/>
      </defs>
      <use xlink:href="#DejaVuSans-44"/>
      <use xlink:href="#DejaVuSans-61" x="77.001953"/>
      <use xlink:href="#DejaVuSans-74" x="138.28125"/>
      <use xlink:href="#DejaVuSans-65" x="177.490234"/>
     </g>
    </g>
   </g>
   <g id="matplotlib.axis_2">
    <g id="ytick_1">
     <g id="line2d_11">
      <path d="M 52.88375 258.880598 
L 945.68375 258.880598 
" clip-path="url(#p9cf0b761ce)" style="fill: none; stroke: #546379; stroke-width: 1.12; stroke-linecap: square"/>
     </g>
     <g id="line2d_12"/>
     <g id="text_7">
      <!-- 10000 -->
      <g style="fill: #b1bed6" transform="translate(7.2 263.667614)scale(0.126 -0.126)">
       <use xlink:href="#DejaVuSans-31"/>
       <use xlink:href="#DejaVuSans-30" x="63.623047"/>
       <use xlink:href="#DejaVuSans-30" x="127.246094"/>
       <use xlink:href="#DejaVuSans-30" x="190.869141"/>
       <use xlink:href="#DejaVuSans-30" x="254.492188"/>
      </g>
     </g>
    </g>
    <g id="ytick_2">
     <g id="line2d_13">
      <path d="M 52.88375 216.370299 
L 945.68375 216.370299 
" clip-path="url(#p9cf0b761ce)" style="fill: none; stroke: #546379; stroke-width: 1.12; stroke-linecap: square"/>
     </g>
     <g id="line2d_14"/>
     <g id="text_8">
      <!-- 20000 -->
      <g style="fill: #b1bed6" transform="translate(7.2 221.157314)scale(0.126 -0.126)">
       <use xlink:href="#DejaVuSans-32"/>
       <use xlink:href="#DejaVuSans-30" x="63.623047"/>
       <use xlink:href="#DejaVuSans-30" x="127.246094"/>
       <use xlink:href="#DejaVuSans-30" x="190.869141"/>
       <use xlink:href="#DejaVuSans-30" x="254.492188"/>
      </g>
     </g>
    </g>
    <g id="ytick_3">
     <g id="line2d_15">
      <path d="M 52.88375 173.86 
L 945.68375 173.86 
" clip-path="url(#p9cf0b761ce)" style="fill: none; stroke: #546379; stroke-width: 1.12; stroke-linecap: square"/>
     </g>
     <g id="line2d_16"/>
     <g id="text_9">
      <!-- 30000 -->
      <g style="fill: #b1bed6" transform="translate(7.2 178.647015)scale(0.126 -0.126)">
       <defs>
        <path id="DejaVuSans-33" d="M 2597 2516 
Q 3050 2419 3304 2112 
Q 3559 1806 3559 1356 
Q 3559 666 3084 287 
Q 2609 -91 1734 -91 
Q 1441 -91 1130 -33 
Q 819 25 488 141 
L 488 750 
Q 750 597 1062 519 
Q 1375 441 1716 441 
Q 2309 441 2620 675 
Q 2931 909 2931 1356 
Q 2931 1769 2642 2001 
Q 2353 2234 1838 2234 
L 1294 2234 
L 1294 2753 
L 1863 2753 
Q 2328 2753 2575 2939 
Q 2822 3125 2822 3475 
Q 2822 3834 2567 4026 
Q 2313 4219 1838 4219 
Q 1578 4219 1281 4162 
Q 984 4106 628 3988 
L 628 4550 
Q 988 4650 1302 4700 
Q 1616 4750 1894 4750 
Q 2613 4750 3031 4423 
Q 3450 4097 3450 3541 
Q 3450 3153 3228 2886 
Q 3006 2619 2597 2516 
z
" transform="scale(0.015625)"/>
       </defs>
       <use xlink:href="#DejaVuSans-33"/>
       <use xlink:href="#DejaVuSans-30" x="63.623047"/>
       <use xlink:href="#DejaVuSans-30" x="127.246094"/>
       <use xlink:href="#DejaVuSans-30" x="190.869141"/>
       <use xlink:href="#DejaVuSans-30" x="254.492188"/>
      </g>
     </g>
    </g>
    <g id="ytick_4">
     <g id="line2d_17">
      <path d="M 52.88375 131.349701 
L 945.68375 131.349701 
" clip-path="url(#p9cf0b761ce)" style="fill: none; stroke: #546379; stroke-width: 1.12; stroke-linecap: square"/>
     </g>
     <g id="line2d_18"/>
     <g id="text_10">
      <!-- 40000 -->
      <g style="fill: #b1bed6" transform="translate(7.2 136.136716)scale(0.126 -0.126)">
       <defs>
        <path id="DejaVuSans-34" d="M 2419 4116 
L 825 1625 
L 2419 1625 
L 2419 4116 
z
M 2253 4666 
L 3047 4666 
L 3047 1625 
L 3713 1625 
L 3713 1100 
L 3047 1100 
L 3047 0 
L 2419 0 
L 2419 1100 
L 313 1100 
L 313 1709 
L 2253 4666 
z
" transform="scale(0.015625)"/>
       </defs>
       <use xlink:href="#DejaVuSans-34"/>
       <use xlink:href="#DejaVuSans-30" x="63.623047"/>
       <use xlink:href="#DejaVuSans-30" x="127.246094"/>
       <use xlink:href="#DejaVuSans-30" x="190.869141"/>
       <use xlink:href="#DejaVuSans-30" x="254.492188"/>
      </g>
     </g>
    </g>
    <g id="ytick_5">
     <g id="line2d_19">
      <path d="M 52.88375 88.839401 
L 945.68375 88.839401 
" clip-path="url(#p9cf0b761ce)" style="fill: none; stroke: #546379; stroke-width: 1.12; stroke-linecap: square"/>
     </g>
     <g id="line2d_20"/>
     <g id="text_11">
      <!-- 50000 -->
      <g style="fill: #b1bed6" transform="translate(7.2 93.626417)scale(0.126 -0.126)">
       <defs>
        <path id="DejaVuSans-35" d="M 691 4666 
L 3169 4666 
L 3169 4134 
L 1269 4134 
L 1269 2991 
Q 1406 3038 1543 3061 
Q 1681 3084 1819 3084 
Q 2600 3084 3056 2656 
Q 3513 2228 3513 1497 
Q 3513 744 3044 326 
Q 2575 -91 1722 -91 
Q 1428 -91 1123 -41 
Q 819 9 494 109 
L 494 744 
Q 775 591 1075 516 
Q 1375 441 1709 441 
Q 2250 441 2565 725 
Q 2881 1009 2881 1497 
Q 2881 1984 2565 2268 
Q 2250 2553 1709 2553 
Q 1456 2553 1204 2497 
Q 953 2441 691 2322 
L 691 4666 
z
" transform="scale(0.015625)"/>
       </defs>
       <use xlink:href="#DejaVuSans-35"/>
       <use xlink:href="#DejaVuSans-30" x="63.623047"/>
       <use xlink:href="#DejaVuSans-30" x="127.246094"/>
       <use xlink:href="#DejaVuSans-30" x="190.869141"/>
       <use xlink:href="#DejaVuSans-30" x="254.492188"/>
      </g>
     </g>
    </g>
    <g id="ytick_6">
     <g id="line2d_21">
      <path d="M 52.88375 46.329102 
L 945.68375 46.329102 
" clip-path="url(#p9cf0b761ce)" style="fill: none; stroke: #546379; stroke-width: 1.12; stroke-linecap: square"/>
     </g>
     <g id="line2d_22"/>
     <g id="text_12">
      <!-- 60000 -->
      <g style="fill: #b1bed6" transform="translate(7.2 51.116118)scale(0.126 -0.126)">
       <defs>
        <path id="DejaVuSans-36" d="M 2113 2584 
Q 1688 2584 1439 2293 
Q 1191 2003 1191 1497 
Q 1191 994 1439 701 
Q 1688 409 2113 409 
Q 2538 409 2786 701 
Q 3034 994 3034 1497 
Q 3034 2003 2786 2293 
Q 2538 2584 2113 2584 
z
M 3366 4563 
L 3366 3988 
Q 3128 4100 2886 4159 
Q 2644 4219 2406 4219 
Q 1781 4219 1451 3797 
Q 1122 3375 1075 2522 
Q 1259 2794 1537 2939 
Q 1816 3084 2150 3084 
Q 2853 3084 3261 2657 
Q 3669 2231 3669 1497 
Q 3669 778 3244 343 
Q 2819 -91 2113 -91 
Q 1303 -91 875 529 
Q 447 1150 447 2328 
Q 447 3434 972 4092 
Q 1497 4750 2381 4750 
Q 2619 4750 2861 4703 
Q 3103 4656 3366 4563 
z
" transform="scale(0.015625)"/>
       </defs>
       <use xlink:href="#DejaVuSans-36"/>
       <use xlink:href="#DejaVuSans-30" x="63.623047"/>
       <use xlink:href="#DejaVuSans-30" x="127.246094"/>
       <use xlink:href="#DejaVuSans-30" x="190.869141"/>
       <use xlink:href="#DejaVuSans-30" x="254.492188"/>
      </g>
     </g>
    </g>
   </g>
   <g id="line2d_23">
    <path d="M 93.465568 219.431465 
L 93.465568 227.495499 
L 94.910328 227.495499 
L 94.910328 242.826116 
L 96.355088 242.826116 
L 96.355088 242.97775 
L 97.799848 242.97775 
L 97.799848 240.966715 
L 99.244608 240.966715 
L 99.244608 242.743688 
L 100.689368 242.743688 
L 100.689368 237.458638 
L 102.134128 237.458638 
L 102.134128 228.46044 
L 103.578888 228.46044 
L 103.578888 240.016993 
L 105.023648 240.016993 
L 105.023648 242.764136 
L 106.468408 242.764136 
L 106.468408 243.771843 
L 107.913167 243.771843 
L 107.913167 253.886403 
L 109.357927 253.886403 
L 109.357927 252.447004 
L 110.802687 252.447004 
L 110.802687 252.963037 
L 112.247447 252.963037 
L 112.247447 252.795801 
L 113.692207 252.795801 
L 113.692207 258.529803 
L 115.136967 258.529803 
L 115.136967 263.757677 
L 116.581727 263.757677 
L 116.581727 271.95056 
L 118.026487 271.95056 
L 118.026487 266.340815 
L 119.471247 266.340815 
L 119.471247 267.093503 
L 120.916007 267.093503 
L 120.916007 261.126672 
L 122.360767 261.126672 
L 122.360767 254.264702 
L 123.805527 254.264702 
L 123.805527 253.5839 
L 125.250287 253.5839 
L 125.250287 258.152397 
L 126.695047 258.152397 
L 126.695047 257.522564 
L 128.139806 257.522564 
L 128.139806 254.922379 
L 129.584566 254.922379 
L 129.584566 252.432508 
L 131.029326 252.432508 
L 131.029326 259.218725 
L 132.474086 259.218725 
L 132.474086 264.078035 
L 133.918846 264.078035 
L 133.918846 262.478925 
L 135.363606 262.478925 
L 135.363606 266.116319 
L 136.808366 266.116319 
L 136.808366 264.808064 
L 138.253126 264.808064 
L 138.253126 264.299088 
L 139.697886 264.299088 
L 139.697886 265.435856 
L 141.142646 265.435856 
L 141.142646 267.592616 
L 142.587406 267.592616 
L 142.587406 271.899122 
L 144.032166 271.899122 
L 144.032166 269.820708 
L 145.476926 269.820708 
L 145.476926 273.186674 
L 146.921686 273.186674 
L 146.921686 272.550167 
L 148.366446 272.550167 
L 148.366446 267.631513 
L 149.811205 267.631513 
L 149.811205 265.817854 
L 151.255965 265.817854 
L 151.255965 266.634647 
L 152.700725 266.634647 
L 152.700725 263.426649 
L 154.145485 263.426649 
L 154.145485 260.333983 
L 155.590245 260.333983 
L 155.590245 263.435364 
L 157.035005 263.435364 
L 157.035005 262.113294 
L 158.479765 262.113294 
L 158.479765 259.929115 
L 159.924525 259.929115 
L 159.924525 260.447358 
L 161.369285 260.447358 
L 161.369285 261.812236 
L 162.814045 261.812236 
L 162.814045 265.41222 
L 165.703565 265.380168 
L 165.703565 266.366322 
L 167.148325 266.366322 
L 167.148325 265.696572 
L 168.593085 265.696572 
L 168.593085 269.181779 
L 170.037844 269.181779 
L 170.037844 270.168953 
L 171.482604 270.168953 
L 171.482604 269.989729 
L 172.927364 269.989729 
L 172.927364 268.925187 
L 177.261644 269.017009 
L 177.261644 272.146745 
L 178.706404 272.146745 
L 178.706404 273.175069 
L 180.151164 273.175069 
L 180.151164 273.989651 
L 181.595924 273.989651 
L 181.595924 272.650407 
L 183.040684 272.650407 
L 183.040684 275.160087 
L 184.485444 275.160087 
L 184.485444 275.470412 
L 185.930204 275.470412 
L 185.930204 274.935548 
L 187.374964 274.935548 
L 187.374964 273.221702 
L 188.819724 273.221702 
L 188.819724 273.523228 
L 190.264483 273.523228 
L 190.264483 272.806802 
L 191.709243 272.806802 
L 191.709243 274.170787 
L 193.154003 274.170787 
L 193.154003 274.826891 
L 194.598763 274.826891 
L 194.598763 270.266471 
L 197.488283 270.209635 
L 197.488283 268.593776 
L 198.933043 268.593776 
L 198.933043 267.638527 
L 200.377803 267.638527 
L 200.377803 266.443563 
L 201.822563 266.443563 
L 201.822563 269.050337 
L 203.267323 269.050337 
L 203.267323 271.585736 
L 204.712083 271.585736 
L 204.712083 272.8315 
L 206.156843 272.8315 
L 206.156843 275.293995 
L 207.601603 275.293995 
L 207.601603 274.812905 
L 209.046363 274.812905 
L 209.046363 274.555208 
L 210.491122 274.555208 
L 210.491122 273.816252 
L 211.935882 273.816252 
L 211.935882 274.37743 
L 213.380642 274.37743 
L 213.380642 272.74631 
L 214.825402 272.74631 
L 214.825402 271.3013 
L 216.270162 271.3013 
L 216.270162 271.553853 
L 217.714922 271.553853 
L 217.714922 270.506825 
L 219.159682 270.506825 
L 219.159682 273.754144 
L 220.604442 273.754144 
L 220.604442 274.860304 
L 222.049202 274.860304 
L 222.049202 274.498712 
L 223.493962 274.498712 
L 223.493962 273.664022 
L 224.938722 273.664022 
L 224.938722 274.429208 
L 226.383482 274.429208 
L 226.383482 272.670429 
L 227.828242 272.670429 
L 227.828242 273.404454 
L 229.273002 273.404454 
L 229.273002 272.968171 
L 230.717761 272.968171 
L 230.717761 273.287253 
L 232.162521 273.287253 
L 232.162521 273.828367 
L 233.607281 273.828367 
L 233.607281 273.446242 
L 235.052041 273.446242 
L 235.052041 273.21996 
L 236.496801 273.21996 
L 236.496801 274.834713 
L 237.941561 274.834713 
L 237.941561 273.337628 
L 239.386321 273.337628 
L 239.386321 273.71835 
L 243.720601 273.802691 
L 243.720601 273.941104 
L 245.165361 273.941104 
L 245.165361 274.602565 
L 246.610121 274.602565 
L 246.610121 274.225031 
L 248.054881 274.225031 
L 248.054881 274.023787 
L 250.9444 273.993137 
L 250.9444 274.148044 
L 252.38916 274.148044 
L 252.38916 276.918696 
L 253.83392 276.918696 
L 253.83392 277.702288 
L 255.27868 277.702288 
L 255.27868 282.295356 
L 256.72344 282.295356 
L 256.72344 282.886249 
L 258.1682 282.886249 
L 258.1682 285.265253 
L 259.61296 285.265253 
L 259.61296 283.201718 
L 261.05772 283.201718 
L 261.05772 283.789083 
L 262.50248 283.789083 
L 262.50248 285.470875 
L 263.94724 285.470875 
L 263.94724 286.709285 
L 265.392 286.709285 
L 265.392 286.906448 
L 266.83676 286.906448 
L 266.83676 287.607273 
L 268.28152 287.607273 
L 268.28152 286.271939 
L 269.72628 286.271939 
L 269.72628 283.812081 
L 271.17104 283.812081 
L 271.17104 284.40731 
L 272.615799 284.40731 
L 272.615799 285.032041 
L 274.060559 285.032041 
L 274.060559 285.362984 
L 275.505319 285.362984 
L 275.505319 284.999436 
L 278.394839 284.99629 
L 278.394839 284.249682 
L 279.839599 284.249682 
L 279.839599 285.890579 
L 281.284359 285.890579 
L 281.284359 286.37643 
L 282.729119 286.37643 
L 282.729119 285.99609 
L 284.173879 285.99609 
L 284.173879 285.645167 
L 285.618639 285.645167 
L 285.618639 286.140965 
L 288.508159 286.181605 
L 288.508159 286.73088 
L 292.842438 286.699253 
L 292.842438 286.913165 
L 294.287198 286.913165 
L 294.287198 285.813508 
L 295.731958 285.813508 
L 295.731958 285.949371 
L 298.621478 286.052331 
L 298.621478 284.765969 
L 300.066238 284.765969 
L 300.066238 284.621094 
L 301.510998 284.621094 
L 301.510998 285.377735 
L 302.955758 285.377735 
L 302.955758 285.095722 
L 305.845278 285.103331 
L 305.845278 284.929847 
L 311.624318 284.874753 
L 311.624318 284.408373 
L 313.069077 284.408373 
L 313.069077 284.147019 
L 314.513837 284.147019 
L 314.513837 284.336105 
L 315.958597 284.336105 
L 315.958597 284.608936 
L 317.403357 284.608936 
L 317.403357 283.895571 
L 318.848117 283.895571 
L 318.848117 283.738368 
L 320.292877 283.738368 
L 320.292877 280.513069 
L 321.737637 280.513069 
L 321.737637 279.330645 
L 323.182397 279.330645 
L 323.182397 278.817163 
L 324.627157 278.817163 
L 324.627157 279.861046 
L 326.071917 279.861046 
L 326.071917 279.299783 
L 327.516677 279.299783 
L 327.516677 278.958042 
L 328.961437 278.958042 
L 328.961437 278.532302 
L 330.406197 278.532302 
L 330.406197 279.304204 
L 331.850957 279.304204 
L 331.850957 278.854955 
L 334.740476 278.747064 
L 334.740476 276.857863 
L 337.629996 276.923159 
L 337.629996 274.405274 
L 339.074756 274.405274 
L 339.074756 268.134623 
L 340.519516 268.134623 
L 340.519516 267.867445 
L 341.964276 267.867445 
L 341.964276 266.559233 
L 343.409036 266.559233 
L 343.409036 268.972841 
L 344.853796 268.972841 
L 344.853796 267.078922 
L 346.298556 267.078922 
L 346.298556 264.322426 
L 347.743316 264.322426 
L 347.743316 265.028395 
L 349.188076 265.028395 
L 349.188076 266.809109 
L 350.632836 266.809109 
L 350.632836 268.219133 
L 352.077596 268.219133 
L 352.077596 268.910435 
L 353.522355 268.910435 
L 353.522355 266.646975 
L 354.967115 266.646975 
L 354.967115 263.729025 
L 356.411875 263.729025 
L 356.411875 262.807784 
L 357.856635 262.807784 
L 357.856635 257.990517 
L 359.301395 257.990517 
L 359.301395 254.555175 
L 360.746155 254.555175 
L 360.746155 254.064819 
L 362.190915 254.064819 
L 362.190915 255.744486 
L 363.635675 255.744486 
L 363.635675 250.443324 
L 365.080435 250.443324 
L 365.080435 253.643159 
L 366.525195 253.643159 
L 366.525195 247.884119 
L 367.969955 247.884119 
L 367.969955 251.211868 
L 369.414715 251.211868 
L 369.414715 255.167323 
L 370.859475 255.167323 
L 370.859475 256.16606 
L 372.304235 256.16606 
L 372.304235 256.383501 
L 373.748994 256.383501 
L 373.748994 259.84911 
L 375.193754 259.84911 
L 375.193754 261.116682 
L 376.638514 261.116682 
L 376.638514 260.627219 
L 378.083274 260.627219 
L 378.083274 256.629465 
L 379.528034 256.629465 
L 379.528034 251.279799 
L 380.972794 251.279799 
L 380.972794 250.393799 
L 382.417554 250.393799 
L 382.417554 252.219914 
L 383.862314 252.219914 
L 383.862314 258.808501 
L 385.307074 258.808501 
L 385.307074 257.968667 
L 386.751834 257.968667 
L 386.751834 255.647435 
L 388.196594 255.647435 
L 388.196594 257.155488 
L 389.641354 257.155488 
L 389.641354 257.349037 
L 391.086114 257.349037 
L 391.086114 261.071791 
L 392.530874 261.071791 
L 392.530874 259.859228 
L 393.975634 259.859228 
L 393.975634 256.397316 
L 395.420393 256.397316 
L 395.420393 256.809454 
L 396.865153 256.809454 
L 396.865153 258.451116 
L 398.309913 258.451116 
L 398.309913 257.333648 
L 399.754673 257.333648 
L 399.754673 257.751397 
L 402.644193 257.707824 
L 402.644193 258.740101 
L 404.088953 258.740101 
L 404.088953 265.545235 
L 405.533713 265.545235 
L 405.533713 266.426176 
L 406.978473 266.426176 
L 406.978473 266.009915 
L 408.423233 266.009915 
L 408.423233 266.721708 
L 409.867993 266.721708 
L 409.867993 266.481354 
L 411.312753 266.481354 
L 411.312753 264.887728 
L 412.757513 264.887728 
L 412.757513 266.176386 
L 414.202273 266.176386 
L 414.202273 267.371988 
L 415.647032 267.371988 
L 415.647032 267.552529 
L 417.091792 267.552529 
L 417.091792 267.2689 
L 418.536552 267.2689 
L 418.536552 264.548114 
L 419.981312 264.548114 
L 419.981312 262.201673 
L 421.426072 262.201673 
L 421.426072 262.502561 
L 422.870832 262.502561 
L 422.870832 262.255236 
L 424.315592 262.255236 
L 424.315592 261.672079 
L 425.760352 261.672079 
L 425.760352 263.941832 
L 428.649872 263.975372 
L 428.649872 265.437004 
L 430.094632 265.437004 
L 430.094632 266.634519 
L 431.539392 266.634519 
L 431.539392 269.010505 
L 432.984152 269.010505 
L 432.984152 272.027333 
L 434.428912 272.027333 
L 434.428912 269.406871 
L 435.873671 269.406871 
L 435.873671 269.262803 
L 437.318431 269.262803 
L 437.318431 270.37211 
L 438.763191 270.37211 
L 438.763191 269.307567 
L 440.207951 269.307567 
L 440.207951 270.199305 
L 441.652711 270.199305 
L 441.652711 270.829563 
L 443.097471 270.829563 
L 443.097471 271.161228 
L 444.542231 271.161228 
L 444.542231 270.425162 
L 445.986991 270.425162 
L 445.986991 271.02494 
L 447.431751 271.02494 
L 447.431751 270.567997 
L 450.321271 270.596734 
L 450.321271 270.700162 
L 451.766031 270.700162 
L 451.766031 271.870343 
L 453.210791 271.870343 
L 453.210791 270.139153 
L 454.655551 270.139153 
L 454.655551 267.201351 
L 457.54507 267.291303 
L 457.54507 263.801505 
L 458.98983 263.801505 
L 458.98983 263.555286 
L 460.43459 263.555286 
L 460.43459 264.719515 
L 461.87935 264.719515 
L 461.87935 265.732791 
L 463.32411 265.732791 
L 463.32411 264.881267 
L 464.76887 264.881267 
L 464.76887 261.942147 
L 466.21363 261.942147 
L 466.21363 261.524356 
L 467.65839 261.524356 
L 467.65839 262.442366 
L 469.10315 262.442366 
L 469.10315 259.698751 
L 470.54791 259.698751 
L 470.54791 259.49789 
L 471.99267 259.49789 
L 471.99267 257.850021 
L 473.43743 257.850021 
L 473.43743 259.145565 
L 474.88219 259.145565 
L 474.88219 260.560945 
L 476.326949 260.560945 
L 476.326949 260.285011 
L 477.771709 260.285011 
L 477.771709 261.817422 
L 479.216469 261.817422 
L 479.216469 264.354437 
L 480.661229 264.354437 
L 480.661229 263.502233 
L 482.105989 263.502233 
L 482.105989 262.845151 
L 483.550749 262.845151 
L 483.550749 267.215252 
L 484.995509 267.215252 
L 484.995509 267.651961 
L 486.440269 267.651961 
L 486.440269 279.428971 
L 487.885029 279.428971 
L 487.885029 278.615537 
L 489.329789 278.615537 
L 489.329789 274.922114 
L 490.774549 274.922114 
L 490.774549 273.75002 
L 492.219309 273.75002 
L 492.219309 272.637994 
L 493.664069 272.637994 
L 493.664069 276.371843 
L 495.108829 276.371843 
L 495.108829 273.109348 
L 496.553588 273.109348 
L 496.553588 272.179137 
L 497.998348 272.179137 
L 497.998348 270.759889 
L 499.443108 270.759889 
L 499.443108 272.172548 
L 502.332628 272.238779 
L 502.332628 271.156425 
L 506.666908 271.076845 
L 506.666908 269.297662 
L 508.111668 269.297662 
L 508.111668 268.380247 
L 509.556428 268.380247 
L 509.556428 263.877003 
L 511.001188 263.877003 
L 511.001188 263.616543 
L 512.445948 263.616543 
L 512.445948 258.870055 
L 513.890708 258.870055 
L 513.890708 264.175426 
L 515.335468 264.175426 
L 515.335468 261.83111 
L 516.780228 261.83111 
L 516.780228 261.492006 
L 518.224987 261.492006 
L 518.224987 259.791424 
L 519.669747 259.791424 
L 519.669747 262.420601 
L 521.114507 262.420601 
L 521.114507 263.558176 
L 522.559267 263.558176 
L 522.559267 260.711899 
L 524.004027 260.711899 
L 524.004027 261.215094 
L 525.448787 261.215094 
L 525.448787 260.33428 
L 528.338307 260.28161 
L 528.338307 259.836442 
L 529.783067 259.836442 
L 529.783067 261.176282 
L 531.227827 261.176282 
L 531.227827 261.317713 
L 532.672587 261.317713 
L 532.672587 261.516109 
L 534.117347 261.516109 
L 534.117347 261.92102 
L 537.006867 261.955878 
L 537.006867 263.113646 
L 538.451626 263.113646 
L 538.451626 262.562117 
L 539.896386 262.562117 
L 539.896386 262.823768 
L 541.341146 262.823768 
L 541.341146 261.648401 
L 542.785906 261.648401 
L 542.785906 262.119713 
L 544.230666 262.119713 
L 544.230666 261.873748 
L 545.675426 261.873748 
L 545.675426 262.309011 
L 548.564946 262.38893 
L 548.564946 261.462419 
L 550.009706 261.462419 
L 550.009706 260.78812 
L 551.454466 260.78812 
L 551.454466 254.449324 
L 552.899226 254.449324 
L 552.899226 254.140997 
L 554.343986 254.140997 
L 554.343986 254.298965 
L 555.788746 254.298965 
L 555.788746 251.440105 
L 558.678265 251.366478 
L 558.678265 252.961336 
L 560.123025 252.961336 
L 560.123025 251.337656 
L 561.567785 251.337656 
L 561.567785 249.129926 
L 563.012545 249.129926 
L 563.012545 250.948941 
L 564.457305 250.948941 
L 564.457305 251.853561 
L 565.902065 251.853561 
L 565.902065 252.642764 
L 568.791585 252.582102 
L 568.791585 250.704805 
L 570.236345 250.704805 
L 570.236345 256.891584 
L 571.681105 256.891584 
L 571.681105 257.317324 
L 574.570625 257.38143 
L 574.570625 257.474485 
L 576.015385 257.474485 
L 576.015385 254.848794 
L 577.460145 254.848794 
L 577.460145 254.283407 
L 578.904904 254.283407 
L 578.904904 256.618115 
L 580.349664 256.618115 
L 580.349664 255.935314 
L 583.239184 255.937482 
L 583.239184 256.24819 
L 584.683944 256.24819 
L 584.683944 256.017699 
L 587.573464 256.029007 
L 587.573464 253.342909 
L 589.018224 253.342909 
L 589.018224 252.809107 
L 590.462984 252.809107 
L 590.462984 253.237058 
L 591.907744 253.237058 
L 591.907744 251.406607 
L 593.352504 251.406607 
L 593.352504 246.168956 
L 594.797264 246.168956 
L 594.797264 245.971198 
L 596.242024 245.971198 
L 596.242024 244.898961 
L 597.686784 244.898961 
L 597.686784 242.682814 
L 599.131543 242.682814 
L 599.131543 241.777387 
L 600.576303 241.777387 
L 600.576303 235.092812 
L 602.021063 235.092812 
L 602.021063 236.228858 
L 603.465823 236.228858 
L 603.465823 232.117942 
L 604.910583 232.117942 
L 604.910583 233.509771 
L 606.355343 233.509771 
L 606.355343 225.729154 
L 607.800103 225.729154 
L 607.800103 221.8977 
L 609.244863 221.8977 
L 609.244863 219.887941 
L 610.689623 219.887941 
L 610.689623 228.533048 
L 612.134383 228.533048 
L 612.134383 217.604245 
L 613.579143 217.604245 
L 613.579143 218.689066 
L 615.023903 218.689066 
L 615.023903 219.015885 
L 616.468663 219.015885 
L 616.468663 222.51665 
L 617.913423 222.51665 
L 617.913423 221.456911 
L 619.358183 221.456911 
L 619.358183 218.751938 
L 620.802942 218.751938 
L 620.802942 202.976196 
L 622.247702 202.976196 
L 622.247702 204.699181 
L 623.692462 204.699181 
L 623.692462 200.57547 
L 625.137222 200.57547 
L 625.137222 189.8159 
L 626.581982 189.8159 
L 626.581982 178.72067 
L 628.026742 178.72067 
L 628.026742 164.527034 
L 629.471502 164.527034 
L 629.471502 156.657484 
L 630.916262 156.657484 
L 630.916262 128.500448 
L 632.361022 128.500448 
L 632.361022 150.288294 
L 633.805782 150.288294 
L 633.805782 134.92707 
L 635.250542 134.92707 
L 635.250542 149.233741 
L 636.695302 149.233741 
L 636.695302 150.31363 
L 638.140062 150.31363 
L 638.140062 164.933942 
L 639.584822 164.933942 
L 639.584822 163.054732 
L 641.029581 163.054732 
L 641.029581 155.519951 
L 642.474341 155.519951 
L 642.474341 158.884046 
L 643.919101 158.884046 
L 643.919101 144.093906 
L 645.363861 144.093906 
L 645.363861 135.906379 
L 646.808621 135.906379 
L 646.808621 110.612454 
L 648.253381 110.612454 
L 648.253381 100.805243 
L 649.698141 100.805243 
L 649.698141 92.409841 
L 651.142901 92.409841 
L 651.142901 63.688183 
L 652.587661 63.688183 
L 652.587661 71.310705 
L 654.032421 71.310705 
L 654.032421 102.440912 
L 655.477181 102.440912 
L 655.477181 109.610274 
L 656.921941 109.610274 
L 656.921941 86.808684 
L 658.366701 86.808684 
L 658.366701 93.593796 
L 659.811461 93.593796 
L 659.811461 68.087914 
L 661.25622 68.087914 
L 661.25622 58.005491 
L 662.70098 58.005491 
L 662.70098 64.375915 
L 664.14574 64.375915 
L 664.14574 56.251431 
L 665.5905 56.251431 
L 665.5905 57.334296 
L 667.03526 57.334296 
L 667.03526 78.176841 
L 668.48002 78.176841 
L 668.48002 63.91166 
L 669.92478 63.91166 
L 669.92478 51.727358 
L 671.36954 51.727358 
L 671.36954 50.44699 
L 674.25906 50.350151 
L 674.25906 54.624605 
L 675.70382 54.624605 
L 675.70382 46.478441 
L 677.14858 46.478441 
L 677.14858 33.707284 
L 678.59334 33.707284 
L 678.59334 45.95888 
L 680.0381 45.95888 
L 680.0381 61.174081 
L 681.482859 61.174081 
L 681.482859 83.937411 
L 682.927619 83.937411 
L 682.927619 71.594503 
L 684.372379 71.594503 
L 684.372379 73.603073 
L 685.817139 73.603073 
L 685.817139 60.738138 
L 687.261899 60.738138 
L 687.261899 57.070477 
L 688.706659 57.070477 
L 688.706659 50.882763 
L 690.151419 50.882763 
L 690.151419 60.144949 
L 691.596179 60.144949 
L 691.596179 89.168771 
L 693.040939 89.168771 
L 693.040939 116.061977 
L 694.485699 116.061977 
L 694.485699 128.015533 
L 695.930459 128.015533 
L 695.930459 153.648308 
L 697.375219 153.648308 
L 697.375219 134.469786 
L 698.819979 134.469786 
L 698.819979 154.102615 
L 700.264739 154.102615 
L 700.264739 145.536918 
L 701.709498 145.536918 
L 701.709498 144.589491 
L 703.154258 144.589491 
L 703.154258 158.918182 
L 704.599018 158.918182 
L 704.599018 145.358672 
L 706.043778 145.358672 
L 706.043778 135.316677 
L 707.488538 135.316677 
L 707.488538 138.470728 
L 708.933298 138.470728 
L 708.933298 150.376588 
L 710.378058 150.376588 
L 710.378058 163.455221 
L 711.822818 163.455221 
L 711.822818 166.885845 
L 713.267578 166.885845 
L 713.267578 154.914562 
L 714.712338 154.914562 
L 714.712338 158.824617 
L 716.157098 158.824617 
L 716.157098 151.290007 
L 717.601858 151.290007 
L 717.601858 157.540126 
L 719.046618 157.540126 
L 719.046618 158.915206 
L 720.491378 158.915206 
L 720.491378 162.439353 
L 721.936137 162.439353 
L 721.936137 167.818223 
L 723.380897 167.818223 
L 723.380897 170.391414 
L 724.825657 170.391414 
L 724.825657 164.091601 
L 726.270417 164.091601 
L 726.270417 151.052374 
L 727.715177 151.052374 
L 727.715177 131.338945 
L 729.159937 131.338945 
L 729.159937 124.296987 
L 730.604697 124.296987 
L 730.604697 139.265118 
L 732.049457 139.265118 
L 732.049457 119.336503 
L 733.494217 119.336503 
L 733.494217 104.425973 
L 734.938977 104.425973 
L 734.938977 112.569586 
L 736.383737 112.569586 
L 736.383737 101.352691 
L 737.828497 101.352691 
L 737.828497 111.038875 
L 739.273257 111.038875 
L 739.273257 93.379416 
L 740.718017 93.379416 
L 740.718017 98.427259 
L 742.162777 98.427259 
L 742.162777 92.848718 
L 743.607536 92.848718 
L 743.607536 101.274642 
L 745.052296 101.274642 
L 745.052296 91.6918 
L 746.497056 91.6918 
L 746.497056 81.319074 
L 747.941816 81.319074 
L 747.941816 105.510325 
L 749.386576 105.510325 
L 749.386576 109.479044 
L 750.831336 109.479044 
L 750.831336 101.285907 
L 752.276096 101.285907 
L 752.276096 100.47192 
L 753.720856 100.47192 
L 753.720856 119.015082 
L 755.165616 119.015082 
L 755.165616 110.566585 
L 756.610376 110.566585 
L 756.610376 117.820245 
L 758.055136 117.820245 
L 758.055136 124.878018 
L 759.499896 124.878018 
L 759.499896 98.501567 
L 760.944656 98.501567 
L 760.944656 82.438073 
L 762.389416 82.438073 
L 762.389416 72.399393 
L 763.834175 72.399393 
L 763.834175 57.160684 
L 765.278935 57.160684 
L 765.278935 57.391387 
L 766.723695 57.391387 
L 766.723695 39.756117 
L 768.168455 39.756117 
L 768.168455 20.552727 
L 769.613215 20.552727 
L 769.613215 40.899347 
L 771.057975 40.899347 
L 771.057975 44.861774 
L 772.502735 44.861774 
L 772.502735 36.767771 
L 773.947495 36.767771 
L 773.947495 41.952667 
L 775.392255 41.952667 
L 775.392255 40.19984 
L 776.837015 40.19984 
L 776.837015 32.329525 
L 778.281775 32.329525 
L 778.281775 25.172874 
L 779.726535 25.172874 
L 779.726535 27.535554 
L 781.171295 27.535554 
L 781.171295 45.59682 
L 782.616055 45.59682 
L 782.616055 54.26569 
L 784.060814 54.26569 
L 784.060814 62.051451 
L 785.505574 62.051451 
L 785.505574 50.854536 
L 786.950334 50.854536 
L 786.950334 57.839701 
L 788.395094 57.839701 
L 788.395094 58.105475 
L 789.839854 58.105475 
L 789.839854 92.011265 
L 791.284614 92.011265 
L 791.284614 86.095744 
L 792.729374 86.095744 
L 792.729374 101.008145 
L 794.174134 101.008145 
L 794.174134 102.625109 
L 795.618894 102.625109 
L 795.618894 98.793698 
L 797.063654 98.793698 
L 797.063654 102.913371 
L 798.508414 102.913371 
L 798.508414 94.670327 
L 799.953174 94.670327 
L 799.953174 86.837634 
L 801.397934 86.837634 
L 801.397934 99.036517 
L 802.842694 99.036517 
L 802.842694 104.782634 
L 804.287453 104.782634 
L 804.287453 103.964608 
L 805.732213 103.964608 
L 805.732213 118.083809 
L 807.176973 118.083809 
L 807.176973 123.42391 
L 808.621733 123.42391 
L 808.621733 114.660157 
L 810.066493 114.660157 
L 810.066493 117.973707 
L 811.511253 117.973707 
L 811.511253 121.225958 
L 812.956013 121.225958 
L 812.956013 146.309712 
L 814.400773 146.309712 
L 814.400773 145.468136 
L 815.845533 145.468136 
L 815.845533 143.478527 
L 817.290293 143.478527 
L 817.290293 140.197709 
L 818.735053 140.197709 
L 818.735053 144.47399 
L 820.179813 144.47399 
L 820.179813 125.247645 
L 821.624573 125.247645 
L 821.624573 113.779004 
L 823.069333 113.779004 
L 823.069333 121.14183 
L 824.514092 121.14183 
L 824.514092 120.378047 
L 825.958852 120.378047 
L 825.958852 128.944935 
L 827.403612 128.944935 
L 827.403612 138.226507 
L 828.848372 138.226507 
L 828.848372 142.8637 
L 830.293132 142.8637 
L 830.293132 135.159006 
L 831.737892 135.159006 
L 831.737892 112.565122 
L 833.182652 112.565122 
L 833.182652 135.000272 
L 834.627412 135.000272 
L 834.627412 139.713602 
L 836.072172 139.713602 
L 836.072172 133.739247 
L 837.516932 133.739247 
L 837.516932 140.615288 
L 838.961692 140.615288 
L 838.961692 126.532944 
L 840.406452 126.532944 
L 840.406452 121.902552 
L 841.851212 121.902552 
L 841.851212 121.263409 
L 843.295972 121.263409 
L 843.295972 112.924334 
L 844.740731 112.924334 
L 844.740731 101.099669 
L 846.185491 101.099669 
L 846.185491 107.802311 
L 847.630251 107.802311 
L 847.630251 104.034623 
L 849.075011 104.034623 
L 849.075011 117.78815 
L 850.519771 117.78815 
L 850.519771 119.499147 
L 851.964531 119.499147 
L 851.964531 130.915245 
L 853.409291 130.915245 
L 853.409291 128.942767 
L 854.854051 128.942767 
L 854.854051 127.924561 
L 856.298811 127.924561 
L 856.298811 129.164629 
L 857.743571 129.164629 
L 857.743571 133.621578 
L 859.188331 133.621578 
L 859.188331 134.541034 
L 860.633091 134.541034 
L 860.633091 141.292052 
L 862.077851 141.292052 
L 862.077851 141.011484 
L 863.522611 141.011484 
L 863.522611 148.298429 
L 864.967371 148.298429 
L 864.967371 173.113051 
L 866.41213 173.113051 
L 866.41213 178.403756 
L 867.85689 178.403756 
L 867.85689 168.429607 
L 869.30165 168.429607 
L 869.30165 179.467236 
L 870.74641 179.467236 
L 870.74641 176.368447 
L 872.19117 176.368447 
L 872.19117 175.413454 
L 873.63593 175.413454 
L 873.63593 179.901181 
L 875.08069 179.901181 
L 875.08069 166.567018 
L 876.52545 166.567018 
L 876.52545 172.032567 
L 877.97021 172.032567 
L 877.97021 174.279364 
L 879.41497 174.279364 
L 879.41497 173.055492 
L 880.85973 173.055492 
L 880.85973 180.89758 
L 882.30449 180.89758 
L 882.30449 207.063562 
L 883.74925 207.063562 
L 883.74925 214.522164 
L 885.19401 214.522164 
L 885.19401 213.894967 
L 886.638769 213.894967 
L 886.638769 211.743903 
L 888.083529 211.743903 
L 888.083529 212.034078 
L 889.528289 212.034078 
L 889.528289 216.005008 
L 890.973049 216.005008 
L 890.973049 219.66591 
L 892.417809 219.66591 
L 892.417809 215.596994 
L 893.862569 215.596994 
L 893.862569 209.413701 
L 895.307329 209.413701 
L 895.307329 216.598537 
L 896.752089 216.598537 
L 896.752089 213.951888 
L 898.196849 213.951888 
L 898.196849 213.079024 
L 899.641609 213.079024 
L 899.641609 202.65129 
L 901.086369 202.65129 
L 901.086369 205.905538 
L 902.531129 205.905538 
L 902.531129 210.982841 
L 903.975889 210.982841 
L 903.975889 199.819172 
L 905.101932 199.819172 
L 905.101932 199.819172 
" clip-path="url(#p9cf0b761ce)" style="fill: none; stroke: #3572c6; stroke-width: 1.2; stroke-linecap: square"/>
   </g>
   <g id="patch_3">
    <path d="M 52.88375 300.96 
L 52.88375 7.2 
" style="fill: none; stroke: #899ab8; stroke-width: 1.12; stroke-linejoin: miter; stroke-linecap: square"/>
   </g>
   <g id="patch_4">
    <path d="M 945.68375 300.96 
L 945.68375 7.2 
" style="fill: none; stroke: #899ab8; stroke-width: 1.12; stroke-linejoin: miter; stroke-linecap: square"/>
   </g>
   <g id="patch_5">
    <path d="M 52.88375 300.96 
L 945.68375 300.96 
" style="fill: none; stroke: #899ab8; stroke-width: 1.12; stroke-linejoin: miter; stroke-linecap: square"/>
   </g>
   <g id="patch_6">
    <path d="M 52.88375 7.2 
L 945.68375 7.2 
" style="fill: none; stroke: #899ab8; stroke-width: 1.12; stroke-linejoin: miter; stroke-linecap: square"/>
   </g>
  </g>
 </g>
 <defs>
  <clipPath id="p9cf0b761ce">
   <rect x="52.88375" y="7.2" width="892.8" height="293.76"/>
  </clipPath>
 </defs>
</svg>
