<?xml version="1.0" encoding="utf-8" standalone="no"?>
<!DOCTYPE svg PUBLIC "-//W3C//DTD SVG 1.1//EN"
  "http://www.w3.org/Graphics/SVG/1.1/DTD/svg11.dtd">
<svg xmlns:xlink="http://www.w3.org/1999/xlink" width="952.88375pt" height="358.290693pt" viewBox="0 0 952.88375 358.290693" xmlns="http://www.w3.org/2000/svg" version="1.1">
 <metadata>
  <rdf:RDF xmlns:dc="http://purl.org/dc/elements/1.1/" xmlns:cc="http://creativecommons.org/ns#" xmlns:rdf="http://www.w3.org/1999/02/22-rdf-syntax-ns#">
   <cc:Work>
    <dc:type rdf:resource="http://purl.org/dc/dcmitype/StillImage"/>
    <dc:date>2023-01-21T19:58:16.899653</dc:date>
    <dc:format>image/svg+xml</dc:format>
    <dc:creator>
     <cc:Agent>
      <dc:title>Matplotlib v3.6.3, https://matplotlib.org/</dc:title>
     </cc:Agent>
    </dc:creator>
   </cc:Work>
  </rdf:RDF>
 </metadata>
 <defs>
  <style type="text/css">*{stroke-linejoin: round; stroke-linecap: butt}</style>
 </defs>
 <g id="figure_1">
  <g id="patch_1">
   <path d="M 0 358.290693 
L 952.88375 358.290693 
L 952.88375 0 
L 0 0 
z
" style="fill: #373e4b"/>
  </g>
  <g id="axes_1">
   <g id="patch_2">
    <path d="M 52.88375 300.96 
L 945.68375 300.96 
L 945.68375 7.2 
L 52.88375 7.2 
z
" style="fill: #373e4b"/>
   </g>
   <g id="matplotlib.axis_1">
    <g id="xtick_1">
     <g id="line2d_1">
      <path d="M 103.877663 300.96 
L 103.877663 7.2 
" clip-path="url(#p015609a646)" style="fill: none; stroke: #546379; stroke-width: 1.12; stroke-linecap: square"/>
     </g>
     <g id="line2d_2"/>
     <g id="text_1">
      <!-- 2018 -->
      <g style="fill: #b1bed6" transform="translate(74.796623 330.884854) rotate(-30) scale(0.126 -0.126)">
       <defs>
        <path id="DejaVuSans-32" d="M 1228 531 
L 3431 531 
L 3431 0 
L 469 0 
L 469 531 
Q 828 903 1448 1529 
Q 2069 2156 2228 2338 
Q 2531 2678 2651 2914 
Q 2772 3150 2772 3378 
Q 2772 3750 2511 3984 
Q 2250 4219 1831 4219 
Q 1534 4219 1204 4116 
Q 875 4013 500 3803 
L 500 4441 
Q 881 4594 1212 4672 
Q 1544 4750 1819 4750 
Q 2544 4750 2975 4387 
Q 3406 4025 3406 3419 
Q 3406 3131 3298 2873 
Q 3191 2616 2906 2266 
Q 2828 2175 2409 1742 
Q 1991 1309 1228 531 
z
" transform="scale(0.015625)"/>
        <path id="DejaVuSans-30" d="M 2034 4250 
Q 1547 4250 1301 3770 
Q 1056 3291 1056 2328 
Q 1056 1369 1301 889 
Q 1547 409 2034 409 
Q 2525 409 2770 889 
Q 3016 1369 3016 2328 
Q 3016 3291 2770 3770 
Q 2525 4250 2034 4250 
z
M 2034 4750 
Q 2819 4750 3233 4129 
Q 3647 3509 3647 2328 
Q 3647 1150 3233 529 
Q 2819 -91 2034 -91 
Q 1250 -91 836 529 
Q 422 1150 422 2328 
Q 422 3509 836 4129 
Q 1250 4750 2034 4750 
z
" transform="scale(0.015625)"/>
        <path id="DejaVuSans-31" d="M 794 531 
L 1825 531 
L 1825 4091 
L 703 3866 
L 703 4441 
L 1819 4666 
L 2450 4666 
L 2450 531 
L 3481 531 
L 3481 0 
L 794 0 
L 794 531 
z
" transform="scale(0.015625)"/>
        <path id="DejaVuSans-38" d="M 2034 2216 
Q 1584 2216 1326 1975 
Q 1069 1734 1069 1313 
Q 1069 891 1326 650 
Q 1584 409 2034 409 
Q 2484 409 2743 651 
Q 3003 894 3003 1313 
Q 3003 1734 2745 1975 
Q 2488 2216 2034 2216 
z
M 1403 2484 
Q 997 2584 770 2862 
Q 544 3141 544 3541 
Q 544 4100 942 4425 
Q 1341 4750 2034 4750 
Q 2731 4750 3128 4425 
Q 3525 4100 3525 3541 
Q 3525 3141 3298 2862 
Q 3072 2584 2669 2484 
Q 3125 2378 3379 2068 
Q 3634 1759 3634 1313 
Q 3634 634 3220 271 
Q 2806 -91 2034 -91 
Q 1263 -91 848 271 
Q 434 634 434 1313 
Q 434 1759 690 2068 
Q 947 2378 1403 2484 
z
M 1172 3481 
Q 1172 3119 1398 2916 
Q 1625 2713 2034 2713 
Q 2441 2713 2670 2916 
Q 2900 3119 2900 3481 
Q 2900 3844 2670 4047 
Q 2441 4250 2034 4250 
Q 1625 4250 1398 4047 
Q 1172 3844 1172 3481 
z
" transform="scale(0.015625)"/>
       </defs>
       <use xlink:href="#DejaVuSans-32"/>
       <use xlink:href="#DejaVuSans-30" x="63.623047"/>
       <use xlink:href="#DejaVuSans-31" x="127.246094"/>
       <use xlink:href="#DejaVuSans-38" x="190.869141"/>
      </g>
     </g>
    </g>
    <g id="xtick_2">
     <g id="line2d_3">
      <path d="M 262.228275 300.96 
L 262.228275 7.2 
" clip-path="url(#p015609a646)" style="fill: none; stroke: #546379; stroke-width: 1.12; stroke-linecap: square"/>
     </g>
     <g id="line2d_4"/>
     <g id="text_2">
      <!-- 2019 -->
      <g style="fill: #b1bed6" transform="translate(233.147235 330.884854) rotate(-30) scale(0.126 -0.126)">
       <defs>
        <path id="DejaVuSans-39" d="M 703 97 
L 703 672 
Q 941 559 1184 500 
Q 1428 441 1663 441 
Q 2288 441 2617 861 
Q 2947 1281 2994 2138 
Q 2813 1869 2534 1725 
Q 2256 1581 1919 1581 
Q 1219 1581 811 2004 
Q 403 2428 403 3163 
Q 403 3881 828 4315 
Q 1253 4750 1959 4750 
Q 2769 4750 3195 4129 
Q 3622 3509 3622 2328 
Q 3622 1225 3098 567 
Q 2575 -91 1691 -91 
Q 1453 -91 1209 -44 
Q 966 3 703 97 
z
M 1959 2075 
Q 2384 2075 2632 2365 
Q 2881 2656 2881 3163 
Q 2881 3666 2632 3958 
Q 2384 4250 1959 4250 
Q 1534 4250 1286 3958 
Q 1038 3666 1038 3163 
Q 1038 2656 1286 2365 
Q 1534 2075 1959 2075 
z
" transform="scale(0.015625)"/>
       </defs>
       <use xlink:href="#DejaVuSans-32"/>
       <use xlink:href="#DejaVuSans-30" x="63.623047"/>
       <use xlink:href="#DejaVuSans-31" x="127.246094"/>
       <use xlink:href="#DejaVuSans-39" x="190.869141"/>
      </g>
     </g>
    </g>
    <g id="xtick_3">
     <g id="line2d_5">
      <path d="M 420.578886 300.96 
L 420.578886 7.2 
" clip-path="url(#p015609a646)" style="fill: none; stroke: #546379; stroke-width: 1.12; stroke-linecap: square"/>
     </g>
     <g id="line2d_6"/>
     <g id="text_3">
      <!-- 2020 -->
      <g style="fill: #b1bed6" transform="translate(391.497847 330.884854) rotate(-30) scale(0.126 -0.126)">
       <use xlink:href="#DejaVuSans-32"/>
       <use xlink:href="#DejaVuSans-30" x="63.623047"/>
       <use xlink:href="#DejaVuSans-32" x="127.246094"/>
       <use xlink:href="#DejaVuSans-30" x="190.869141"/>
      </g>
     </g>
    </g>
    <g id="xtick_4">
     <g id="line2d_7">
      <path d="M 579.363335 300.96 
L 579.363335 7.2 
" clip-path="url(#p015609a646)" style="fill: none; stroke: #546379; stroke-width: 1.12; stroke-linecap: square"/>
     </g>
     <g id="line2d_8"/>
     <g id="text_4">
      <!-- 2021 -->
      <g style="fill: #b1bed6" transform="translate(550.282296 330.884854) rotate(-30) scale(0.126 -0.126)">
       <use xlink:href="#DejaVuSans-32"/>
       <use xlink:href="#DejaVuSans-30" x="63.623047"/>
       <use xlink:href="#DejaVuSans-32" x="127.246094"/>
       <use xlink:href="#DejaVuSans-31" x="190.869141"/>
      </g>
     </g>
    </g>
    <g id="xtick_5">
     <g id="line2d_9">
      <path d="M 737.713947 300.96 
L 737.713947 7.2 
" clip-path="url(#p015609a646)" style="fill: none; stroke: #546379; stroke-width: 1.12; stroke-linecap: square"/>
     </g>
     <g id="line2d_10"/>
     <g id="text_5">
      <!-- 2022 -->
      <g style="fill: #b1bed6" transform="translate(708.632907 330.884854) rotate(-30) scale(0.126 -0.126)">
       <use xlink:href="#DejaVuSans-32"/>
       <use xlink:href="#DejaVuSans-30" x="63.623047"/>
       <use xlink:href="#DejaVuSans-32" x="127.246094"/>
       <use xlink:href="#DejaVuSans-32" x="190.869141"/>
      </g>
     </g>
    </g>
    <g id="xtick_6">
     <g id="line2d_11">
      <path d="M 896.064559 300.96 
L 896.064559 7.2 
" clip-path="url(#p015609a646)" style="fill: none; stroke: #546379; stroke-width: 1.12; stroke-linecap: square"/>
     </g>
     <g id="line2d_12"/>
     <g id="text_6">
      <!-- 2023 -->
      <g style="fill: #b1bed6" transform="translate(866.983519 330.884854) rotate(-30) scale(0.126 -0.126)">
       <defs>
        <path id="DejaVuSans-33" d="M 2597 2516 
Q 3050 2419 3304 2112 
Q 3559 1806 3559 1356 
Q 3559 666 3084 287 
Q 2609 -91 1734 -91 
Q 1441 -91 1130 -33 
Q 819 25 488 141 
L 488 750 
Q 750 597 1062 519 
Q 1375 441 1716 441 
Q 2309 441 2620 675 
Q 2931 909 2931 1356 
Q 2931 1769 2642 2001 
Q 2353 2234 1838 2234 
L 1294 2234 
L 1294 2753 
L 1863 2753 
Q 2328 2753 2575 2939 
Q 2822 3125 2822 3475 
Q 2822 3834 2567 4026 
Q 2313 4219 1838 4219 
Q 1578 4219 1281 4162 
Q 984 4106 628 3988 
L 628 4550 
Q 988 4650 1302 4700 
Q 1616 4750 1894 4750 
Q 2613 4750 3031 4423 
Q 3450 4097 3450 3541 
Q 3450 3153 3228 2886 
Q 3006 2619 2597 2516 
z
" transform="scale(0.015625)"/>
       </defs>
       <use xlink:href="#DejaVuSans-32"/>
       <use xlink:href="#DejaVuSans-30" x="63.623047"/>
       <use xlink:href="#DejaVuSans-32" x="127.246094"/>
       <use xlink:href="#DejaVuSans-33" x="190.869141"/>
      </g>
     </g>
    </g>
    <g id="text_7">
     <!-- Date -->
     <g style="fill: #b1bed6" transform="translate(482.074625 348.095943) scale(0.144 -0.144)">
      <defs>
       <path id="DejaVuSans-44" d="M 1259 4147 
L 1259 519 
L 2022 519 
Q 2988 519 3436 956 
Q 3884 1394 3884 2338 
Q 3884 3275 3436 3711 
Q 2988 4147 2022 4147 
L 1259 4147 
z
M 628 4666 
L 1925 4666 
Q 3281 4666 3915 4102 
Q 4550 3538 4550 2338 
Q 4550 1131 3912 565 
Q 3275 0 1925 0 
L 628 0 
L 628 4666 
z
" transform="scale(0.015625)"/>
       <path id="DejaVuSans-61" d="M 2194 1759 
Q 1497 1759 1228 1600 
Q 959 1441 959 1056 
Q 959 750 1161 570 
Q 1363 391 1709 391 
Q 2188 391 2477 730 
Q 2766 1069 2766 1631 
L 2766 1759 
L 2194 1759 
z
M 3341 1997 
L 3341 0 
L 2766 0 
L 2766 531 
Q 2569 213 2275 61 
Q 1981 -91 1556 -91 
Q 1019 -91 701 211 
Q 384 513 384 1019 
Q 384 1609 779 1909 
Q 1175 2209 1959 2209 
L 2766 2209 
L 2766 2266 
Q 2766 2663 2505 2880 
Q 2244 3097 1772 3097 
Q 1472 3097 1187 3025 
Q 903 2953 641 2809 
L 641 3341 
Q 956 3463 1253 3523 
Q 1550 3584 1831 3584 
Q 2591 3584 2966 3190 
Q 3341 2797 3341 1997 
z
" transform="scale(0.015625)"/>
       <path id="DejaVuSans-74" d="M 1172 4494 
L 1172 3500 
L 2356 3500 
L 2356 3053 
L 1172 3053 
L 1172 1153 
Q 1172 725 1289 603 
Q 1406 481 1766 481 
L 2356 481 
L 2356 0 
L 1766 0 
Q 1100 0 847 248 
Q 594 497 594 1153 
L 594 3053 
L 172 3053 
L 172 3500 
L 594 3500 
L 594 4494 
L 1172 4494 
z
" transform="scale(0.015625)"/>
       <path id="DejaVuSans-65" d="M 3597 1894 
L 3597 1613 
L 953 1613 
Q 991 1019 1311 708 
Q 1631 397 2203 397 
Q 2534 397 2845 478 
Q 3156 559 3463 722 
L 3463 178 
Q 3153 47 2828 -22 
Q 2503 -91 2169 -91 
Q 1331 -91 842 396 
Q 353 884 353 1716 
Q 353 2575 817 3079 
Q 1281 3584 2069 3584 
Q 2775 3584 3186 3129 
Q 3597 2675 3597 1894 
z
M 3022 2063 
Q 3016 2534 2758 2815 
Q 2500 3097 2075 3097 
Q 1594 3097 1305 2825 
Q 1016 2553 972 2059 
L 3022 2063 
z
" transform="scale(0.015625)"/>
      </defs>
      <use xlink:href="#DejaVuSans-44"/>
      <use xlink:href="#DejaVuSans-61" x="77.001953"/>
      <use xlink:href="#DejaVuSans-74" x="138.28125"/>
      <use xlink:href="#DejaVuSans-65" x="177.490234"/>
     </g>
    </g>
   </g>
   <g id="matplotlib.axis_2">
    <g id="ytick_1">
     <g id="line2d_13">
      <path d="M 52.88375 258.880598 
L 945.68375 258.880598 
" clip-path="url(#p015609a646)" style="fill: none; stroke: #546379; stroke-width: 1.12; stroke-linecap: square"/>
     </g>
     <g id="line2d_14"/>
     <g id="text_8">
      <!-- 10000 -->
      <g style="fill: #b1bed6" transform="translate(7.2 263.667614) scale(0.126 -0.126)">
       <use xlink:href="#DejaVuSans-31"/>
       <use xlink:href="#DejaVuSans-30" x="63.623047"/>
       <use xlink:href="#DejaVuSans-30" x="127.246094"/>
       <use xlink:href="#DejaVuSans-30" x="190.869141"/>
       <use xlink:href="#DejaVuSans-30" x="254.492188"/>
      </g>
     </g>
    </g>
    <g id="ytick_2">
     <g id="line2d_15">
      <path d="M 52.88375 216.370299 
L 945.68375 216.370299 
" clip-path="url(#p015609a646)" style="fill: none; stroke: #546379; stroke-width: 1.12; stroke-linecap: square"/>
     </g>
     <g id="line2d_16"/>
     <g id="text_9">
      <!-- 20000 -->
      <g style="fill: #b1bed6" transform="translate(7.2 221.157314) scale(0.126 -0.126)">
       <use xlink:href="#DejaVuSans-32"/>
       <use xlink:href="#DejaVuSans-30" x="63.623047"/>
       <use xlink:href="#DejaVuSans-30" x="127.246094"/>
       <use xlink:href="#DejaVuSans-30" x="190.869141"/>
       <use xlink:href="#DejaVuSans-30" x="254.492188"/>
      </g>
     </g>
    </g>
    <g id="ytick_3">
     <g id="line2d_17">
      <path d="M 52.88375 173.86 
L 945.68375 173.86 
" clip-path="url(#p015609a646)" style="fill: none; stroke: #546379; stroke-width: 1.12; stroke-linecap: square"/>
     </g>
     <g id="line2d_18"/>
     <g id="text_10">
      <!-- 30000 -->
      <g style="fill: #b1bed6" transform="translate(7.2 178.647015) scale(0.126 -0.126)">
       <use xlink:href="#DejaVuSans-33"/>
       <use xlink:href="#DejaVuSans-30" x="63.623047"/>
       <use xlink:href="#DejaVuSans-30" x="127.246094"/>
       <use xlink:href="#DejaVuSans-30" x="190.869141"/>
       <use xlink:href="#DejaVuSans-30" x="254.492188"/>
      </g>
     </g>
    </g>
    <g id="ytick_4">
     <g id="line2d_19">
      <path d="M 52.88375 131.349701 
L 945.68375 131.349701 
" clip-path="url(#p015609a646)" style="fill: none; stroke: #546379; stroke-width: 1.12; stroke-linecap: square"/>
     </g>
     <g id="line2d_20"/>
     <g id="text_11">
      <!-- 40000 -->
      <g style="fill: #b1bed6" transform="translate(7.2 136.136716) scale(0.126 -0.126)">
       <defs>
        <path id="DejaVuSans-34" d="M 2419 4116 
L 825 1625 
L 2419 1625 
L 2419 4116 
z
M 2253 4666 
L 3047 4666 
L 3047 1625 
L 3713 1625 
L 3713 1100 
L 3047 1100 
L 3047 0 
L 2419 0 
L 2419 1100 
L 313 1100 
L 313 1709 
L 2253 4666 
z
" transform="scale(0.015625)"/>
       </defs>
       <use xlink:href="#DejaVuSans-34"/>
       <use xlink:href="#DejaVuSans-30" x="63.623047"/>
       <use xlink:href="#DejaVuSans-30" x="127.246094"/>
       <use xlink:href="#DejaVuSans-30" x="190.869141"/>
       <use xlink:href="#DejaVuSans-30" x="254.492188"/>
      </g>
     </g>
    </g>
    <g id="ytick_5">
     <g id="line2d_21">
      <path d="M 52.88375 88.839401 
L 945.68375 88.839401 
" clip-path="url(#p015609a646)" style="fill: none; stroke: #546379; stroke-width: 1.12; stroke-linecap: square"/>
     </g>
     <g id="line2d_22"/>
     <g id="text_12">
      <!-- 50000 -->
      <g style="fill: #b1bed6" transform="translate(7.2 93.626417) scale(0.126 -0.126)">
       <defs>
        <path id="DejaVuSans-35" d="M 691 4666 
L 3169 4666 
L 3169 4134 
L 1269 4134 
L 1269 2991 
Q 1406 3038 1543 3061 
Q 1681 3084 1819 3084 
Q 2600 3084 3056 2656 
Q 3513 2228 3513 1497 
Q 3513 744 3044 326 
Q 2575 -91 1722 -91 
Q 1428 -91 1123 -41 
Q 819 9 494 109 
L 494 744 
Q 775 591 1075 516 
Q 1375 441 1709 441 
Q 2250 441 2565 725 
Q 2881 1009 2881 1497 
Q 2881 1984 2565 2268 
Q 2250 2553 1709 2553 
Q 1456 2553 1204 2497 
Q 953 2441 691 2322 
L 691 4666 
z
" transform="scale(0.015625)"/>
       </defs>
       <use xlink:href="#DejaVuSans-35"/>
       <use xlink:href="#DejaVuSans-30" x="63.623047"/>
       <use xlink:href="#DejaVuSans-30" x="127.246094"/>
       <use xlink:href="#DejaVuSans-30" x="190.869141"/>
       <use xlink:href="#DejaVuSans-30" x="254.492188"/>
      </g>
     </g>
    </g>
    <g id="ytick_6">
     <g id="line2d_23">
      <path d="M 52.88375 46.329102 
L 945.68375 46.329102 
" clip-path="url(#p015609a646)" style="fill: none; stroke: #546379; stroke-width: 1.12; stroke-linecap: square"/>
     </g>
     <g id="line2d_24"/>
     <g id="text_13">
      <!-- 60000 -->
      <g style="fill: #b1bed6" transform="translate(7.2 51.116118) scale(0.126 -0.126)">
       <defs>
        <path id="DejaVuSans-36" d="M 2113 2584 
Q 1688 2584 1439 2293 
Q 1191 2003 1191 1497 
Q 1191 994 1439 701 
Q 1688 409 2113 409 
Q 2538 409 2786 701 
Q 3034 994 3034 1497 
Q 3034 2003 2786 2293 
Q 2538 2584 2113 2584 
z
M 3366 4563 
L 3366 3988 
Q 3128 4100 2886 4159 
Q 2644 4219 2406 4219 
Q 1781 4219 1451 3797 
Q 1122 3375 1075 2522 
Q 1259 2794 1537 2939 
Q 1816 3084 2150 3084 
Q 2853 3084 3261 2657 
Q 3669 2231 3669 1497 
Q 3669 778 3244 343 
Q 2819 -91 2113 -91 
Q 1303 -91 875 529 
Q 447 1150 447 2328 
Q 447 3434 972 4092 
Q 1497 4750 2381 4750 
Q 2619 4750 2861 4703 
Q 3103 4656 3366 4563 
z
" transform="scale(0.015625)"/>
       </defs>
       <use xlink:href="#DejaVuSans-36"/>
       <use xlink:href="#DejaVuSans-30" x="63.623047"/>
       <use xlink:href="#DejaVuSans-30" x="127.246094"/>
       <use xlink:href="#DejaVuSans-30" x="190.869141"/>
       <use xlink:href="#DejaVuSans-30" x="254.492188"/>
      </g>
     </g>
    </g>
   </g>
   <g id="line2d_25">
    <path d="M 93.465568 229.714792 
L 93.465568 237.33234 
L 94.76708 237.33234 
L 94.76708 232.301841 
L 96.068592 232.301841 
L 96.068592 219.431465 
L 97.370104 219.431465 
L 97.370104 227.495499 
L 98.671616 227.495499 
L 98.671616 242.826116 
L 99.973128 242.826116 
L 99.973128 242.97775 
L 101.274639 242.97775 
L 101.274639 240.966715 
L 102.576151 240.966715 
L 102.576151 242.743688 
L 103.877663 242.743688 
L 103.877663 237.458638 
L 105.179175 237.458638 
L 105.179175 228.46044 
L 106.480687 228.46044 
L 106.480687 240.016993 
L 107.782199 240.016993 
L 107.782199 242.764136 
L 109.083711 242.764136 
L 109.083711 243.771843 
L 110.385223 243.771843 
L 110.385223 253.886403 
L 111.686734 253.886403 
L 111.686734 252.447004 
L 112.988246 252.447004 
L 112.988246 252.963037 
L 114.289758 252.963037 
L 114.289758 252.795801 
L 115.59127 252.795801 
L 115.59127 258.529803 
L 116.892782 258.529803 
L 116.892782 263.757677 
L 118.194294 263.757677 
L 118.194294 271.95056 
L 119.495806 271.95056 
L 119.495806 266.340815 
L 120.797318 266.340815 
L 120.797318 267.093503 
L 122.098829 267.093503 
L 122.098829 261.126672 
L 123.400341 261.126672 
L 123.400341 254.264702 
L 124.701853 254.264702 
L 124.701853 253.5839 
L 126.003365 253.5839 
L 126.003365 258.152397 
L 127.304877 258.152397 
L 127.304877 257.522564 
L 128.606389 257.522564 
L 128.606389 254.922379 
L 129.907901 254.922379 
L 129.907901 252.432508 
L 131.209413 252.432508 
L 131.209413 259.218725 
L 132.510924 259.218725 
L 132.510924 264.078035 
L 133.812436 264.078035 
L 133.812436 262.478925 
L 135.113948 262.478925 
L 135.113948 266.116319 
L 136.41546 266.116319 
L 136.41546 264.808064 
L 137.716972 264.808064 
L 137.716972 264.299088 
L 139.018484 264.299088 
L 139.018484 265.435856 
L 140.319996 265.435856 
L 140.319996 267.592616 
L 141.621508 267.592616 
L 141.621508 271.899122 
L 142.923019 271.899122 
L 142.923019 269.820708 
L 144.224531 269.820708 
L 144.224531 273.186674 
L 145.526043 273.186674 
L 145.526043 272.550167 
L 146.827555 272.550167 
L 146.827555 267.631513 
L 148.129067 267.631513 
L 148.129067 265.817854 
L 149.430579 265.817854 
L 149.430579 266.634647 
L 150.732091 266.634647 
L 150.732091 263.426649 
L 152.033603 263.426649 
L 152.033603 260.333983 
L 153.335115 260.333983 
L 153.335115 263.435364 
L 154.636626 263.435364 
L 154.636626 262.113294 
L 155.938138 262.113294 
L 155.938138 259.929115 
L 157.23965 259.929115 
L 157.23965 260.447358 
L 158.541162 260.447358 
L 158.541162 261.812236 
L 159.842674 261.812236 
L 159.842674 265.41222 
L 162.445698 265.380168 
L 162.445698 266.366322 
L 163.74721 266.366322 
L 163.74721 265.696572 
L 165.048721 265.696572 
L 165.048721 269.181779 
L 166.350233 269.181779 
L 166.350233 270.168953 
L 167.651745 270.168953 
L 167.651745 269.989729 
L 168.953257 269.989729 
L 168.953257 268.925187 
L 172.857793 269.017009 
L 172.857793 272.146745 
L 174.159305 272.146745 
L 174.159305 273.175069 
L 175.460816 273.175069 
L 175.460816 273.989651 
L 176.762328 273.989651 
L 176.762328 272.650407 
L 178.06384 272.650407 
L 178.06384 275.160087 
L 179.365352 275.160087 
L 179.365352 275.470412 
L 180.666864 275.470412 
L 180.666864 274.935548 
L 181.968376 274.935548 
L 181.968376 273.221702 
L 183.269888 273.221702 
L 183.269888 273.523228 
L 184.5714 273.523228 
L 184.5714 272.806802 
L 185.872911 272.806802 
L 185.872911 274.170787 
L 187.174423 274.170787 
L 187.174423 274.826891 
L 188.475935 274.826891 
L 188.475935 270.266471 
L 191.078959 270.209635 
L 191.078959 268.593776 
L 192.380471 268.593776 
L 192.380471 267.638527 
L 193.681983 267.638527 
L 193.681983 266.443563 
L 194.983495 266.443563 
L 194.983495 269.050337 
L 196.285006 269.050337 
L 196.285006 271.585736 
L 197.586518 271.585736 
L 197.586518 272.8315 
L 198.88803 272.8315 
L 198.88803 275.293995 
L 200.189542 275.293995 
L 200.189542 274.812905 
L 201.491054 274.812905 
L 201.491054 274.555208 
L 202.792566 274.555208 
L 202.792566 273.816252 
L 204.094078 273.816252 
L 204.094078 274.37743 
L 205.39559 274.37743 
L 205.39559 272.74631 
L 206.697101 272.74631 
L 206.697101 271.3013 
L 207.998613 271.3013 
L 207.998613 271.553853 
L 209.300125 271.553853 
L 209.300125 270.506825 
L 210.601637 270.506825 
L 210.601637 273.754144 
L 211.903149 273.754144 
L 211.903149 274.860304 
L 213.204661 274.860304 
L 213.204661 274.498712 
L 214.506173 274.498712 
L 214.506173 273.664022 
L 215.807685 273.664022 
L 215.807685 274.429208 
L 217.109196 274.429208 
L 217.109196 272.670429 
L 218.410708 272.670429 
L 218.410708 273.404454 
L 219.71222 273.404454 
L 219.71222 272.968171 
L 221.013732 272.968171 
L 221.013732 273.287253 
L 222.315244 273.287253 
L 222.315244 273.828367 
L 223.616756 273.828367 
L 223.616756 273.446242 
L 224.918268 273.446242 
L 224.918268 273.21996 
L 226.21978 273.21996 
L 226.21978 274.834713 
L 227.521291 274.834713 
L 227.521291 273.337628 
L 228.822803 273.337628 
L 228.822803 273.71835 
L 232.727339 273.802691 
L 232.727339 273.941104 
L 234.028851 273.941104 
L 234.028851 274.602565 
L 235.330363 274.602565 
L 235.330363 274.225031 
L 236.631875 274.225031 
L 236.631875 274.023787 
L 239.234898 273.993137 
L 239.234898 274.148044 
L 240.53641 274.148044 
L 240.53641 276.918696 
L 241.837922 276.918696 
L 241.837922 277.702288 
L 243.139434 277.702288 
L 243.139434 282.295356 
L 244.440946 282.295356 
L 244.440946 282.886249 
L 245.742458 282.886249 
L 245.742458 285.265253 
L 247.04397 285.265253 
L 247.04397 283.201718 
L 248.345481 283.201718 
L 248.345481 283.789083 
L 249.646993 283.789083 
L 249.646993 285.470875 
L 250.948505 285.470875 
L 250.948505 286.709285 
L 252.250017 286.709285 
L 252.250017 286.906448 
L 253.551529 286.906448 
L 253.551529 287.607273 
L 254.853041 287.607273 
L 254.853041 286.271939 
L 256.154553 286.271939 
L 256.154553 283.812081 
L 257.456065 283.812081 
L 257.456065 284.40731 
L 258.757577 284.40731 
L 258.757577 285.032041 
L 260.059088 285.032041 
L 260.059088 285.362984 
L 261.3606 285.362984 
L 261.3606 284.999436 
L 263.963624 284.99629 
L 263.963624 284.249682 
L 265.265136 284.249682 
L 265.265136 285.890579 
L 266.566648 285.890579 
L 266.566648 286.37643 
L 267.86816 286.37643 
L 267.86816 285.99609 
L 269.169672 285.99609 
L 269.169672 285.645167 
L 270.471183 285.645167 
L 270.471183 286.140965 
L 273.074207 286.181605 
L 273.074207 286.73088 
L 276.978743 286.699253 
L 276.978743 286.913165 
L 278.280255 286.913165 
L 278.280255 285.813508 
L 279.581767 285.813508 
L 279.581767 285.949371 
L 282.18479 286.052331 
L 282.18479 284.765969 
L 283.486302 284.765969 
L 283.486302 284.621094 
L 284.787814 284.621094 
L 284.787814 285.377735 
L 286.089326 285.377735 
L 286.089326 285.095722 
L 288.69235 285.103331 
L 288.69235 284.929847 
L 293.898397 284.874753 
L 293.898397 284.408373 
L 295.199909 284.408373 
L 295.199909 284.147019 
L 296.501421 284.147019 
L 296.501421 284.336105 
L 297.802933 284.336105 
L 297.802933 284.608936 
L 299.104445 284.608936 
L 299.104445 283.895571 
L 300.405957 283.895571 
L 300.405957 283.738368 
L 301.707468 283.738368 
L 301.707468 280.513069 
L 303.00898 280.513069 
L 303.00898 279.330645 
L 304.310492 279.330645 
L 304.310492 278.817163 
L 305.612004 278.817163 
L 305.612004 279.861046 
L 306.913516 279.861046 
L 306.913516 279.299783 
L 308.215028 279.299783 
L 308.215028 278.958042 
L 309.51654 278.958042 
L 309.51654 278.532302 
L 310.818052 278.532302 
L 310.818052 279.304204 
L 312.119563 279.304204 
L 312.119563 278.854955 
L 314.722587 278.747064 
L 314.722587 276.857863 
L 317.325611 276.923159 
L 317.325611 274.405274 
L 318.627123 274.405274 
L 318.627123 268.134623 
L 319.928635 268.134623 
L 319.928635 267.867445 
L 321.230147 267.867445 
L 321.230147 266.559233 
L 322.531658 266.559233 
L 322.531658 268.972841 
L 323.83317 268.972841 
L 323.83317 267.078922 
L 325.134682 267.078922 
L 325.134682 264.322426 
L 326.436194 264.322426 
L 326.436194 265.028395 
L 327.737706 265.028395 
L 327.737706 266.809109 
L 329.039218 266.809109 
L 329.039218 268.219133 
L 330.34073 268.219133 
L 330.34073 268.910435 
L 331.642242 268.910435 
L 331.642242 266.646975 
L 332.943753 266.646975 
L 332.943753 263.729025 
L 334.245265 263.729025 
L 334.245265 262.807784 
L 335.546777 262.807784 
L 335.546777 257.990517 
L 336.848289 257.990517 
L 336.848289 254.555175 
L 338.149801 254.555175 
L 338.149801 254.064819 
L 339.451313 254.064819 
L 339.451313 255.744486 
L 340.752825 255.744486 
L 340.752825 250.443324 
L 342.054337 250.443324 
L 342.054337 253.643159 
L 343.355848 253.643159 
L 343.355848 247.884119 
L 344.65736 247.884119 
L 344.65736 251.211868 
L 345.958872 251.211868 
L 345.958872 255.167323 
L 347.260384 255.167323 
L 347.260384 256.16606 
L 348.561896 256.16606 
L 348.561896 256.383501 
L 349.863408 256.383501 
L 349.863408 259.84911 
L 351.16492 259.84911 
L 351.16492 261.116682 
L 352.466432 261.116682 
L 352.466432 260.627219 
L 353.767943 260.627219 
L 353.767943 256.629465 
L 355.069455 256.629465 
L 355.069455 251.279799 
L 356.370967 251.279799 
L 356.370967 250.393799 
L 357.672479 250.393799 
L 357.672479 252.219914 
L 358.973991 252.219914 
L 358.973991 258.808501 
L 360.275503 258.808501 
L 360.275503 257.968667 
L 361.577015 257.968667 
L 361.577015 255.647435 
L 362.878527 255.647435 
L 362.878527 257.155488 
L 364.180039 257.155488 
L 364.180039 257.349037 
L 365.48155 257.349037 
L 365.48155 261.071791 
L 366.783062 261.071791 
L 366.783062 259.859228 
L 368.084574 259.859228 
L 368.084574 256.397316 
L 369.386086 256.397316 
L 369.386086 256.809454 
L 370.687598 256.809454 
L 370.687598 258.451116 
L 371.98911 258.451116 
L 371.98911 257.333648 
L 373.290622 257.333648 
L 373.290622 257.751397 
L 375.893645 257.707824 
L 375.893645 258.740101 
L 377.195157 258.740101 
L 377.195157 265.545235 
L 378.496669 265.545235 
L 378.496669 266.426176 
L 379.798181 266.426176 
L 379.798181 266.009915 
L 381.099693 266.009915 
L 381.099693 266.721708 
L 382.401205 266.721708 
L 382.401205 266.481354 
L 383.702717 266.481354 
L 383.702717 264.887728 
L 385.004229 264.887728 
L 385.004229 266.176386 
L 386.30574 266.176386 
L 386.30574 267.371988 
L 387.607252 267.371988 
L 387.607252 267.552529 
L 388.908764 267.552529 
L 388.908764 267.2689 
L 390.210276 267.2689 
L 390.210276 264.548114 
L 391.511788 264.548114 
L 391.511788 262.201673 
L 392.8133 262.201673 
L 392.8133 262.502561 
L 394.114812 262.502561 
L 394.114812 262.255236 
L 395.416324 262.255236 
L 395.416324 261.672079 
L 396.717835 261.672079 
L 396.717835 263.941832 
L 399.320859 263.975372 
L 399.320859 265.437004 
L 400.622371 265.437004 
L 400.622371 266.634519 
L 401.923883 266.634519 
L 401.923883 269.010505 
L 403.225395 269.010505 
L 403.225395 272.027333 
L 404.526907 272.027333 
L 404.526907 269.406871 
L 405.828419 269.406871 
L 405.828419 269.262803 
L 407.12993 269.262803 
L 407.12993 270.37211 
L 408.431442 270.37211 
L 408.431442 269.307567 
L 409.732954 269.307567 
L 409.732954 270.199305 
L 411.034466 270.199305 
L 411.034466 270.829563 
L 412.335978 270.829563 
L 412.335978 271.161228 
L 413.63749 271.161228 
L 413.63749 270.425162 
L 414.939002 270.425162 
L 414.939002 271.02494 
L 416.240514 271.02494 
L 416.240514 270.567997 
L 418.843537 270.596734 
L 418.843537 270.700162 
L 420.145049 270.700162 
L 420.145049 271.870343 
L 421.446561 271.870343 
L 421.446561 270.139153 
L 422.748073 270.139153 
L 422.748073 267.201351 
L 425.351097 267.291303 
L 425.351097 263.801505 
L 426.652609 263.801505 
L 426.652609 263.555286 
L 427.95412 263.555286 
L 427.95412 264.719515 
L 429.255632 264.719515 
L 429.255632 265.732791 
L 430.557144 265.732791 
L 430.557144 264.881267 
L 431.858656 264.881267 
L 431.858656 261.942147 
L 433.160168 261.942147 
L 433.160168 261.524356 
L 434.46168 261.524356 
L 434.46168 262.442366 
L 435.763192 262.442366 
L 435.763192 259.698751 
L 437.064704 259.698751 
L 437.064704 259.49789 
L 438.366215 259.49789 
L 438.366215 257.850021 
L 439.667727 257.850021 
L 439.667727 259.145565 
L 440.969239 259.145565 
L 440.969239 260.560945 
L 442.270751 260.560945 
L 442.270751 260.285011 
L 443.572263 260.285011 
L 443.572263 261.817422 
L 444.873775 261.817422 
L 444.873775 264.354437 
L 446.175287 264.354437 
L 446.175287 263.502233 
L 447.476799 263.502233 
L 447.476799 262.845151 
L 448.77831 262.845151 
L 448.77831 267.215252 
L 450.079822 267.215252 
L 450.079822 267.651961 
L 451.381334 267.651961 
L 451.381334 279.428971 
L 452.682846 279.428971 
L 452.682846 278.615537 
L 453.984358 278.615537 
L 453.984358 274.922114 
L 455.28587 274.922114 
L 455.28587 273.75002 
L 456.587382 273.75002 
L 456.587382 272.637994 
L 457.888894 272.637994 
L 457.888894 276.371843 
L 459.190405 276.371843 
L 459.190405 273.109348 
L 460.491917 273.109348 
L 460.491917 272.179137 
L 461.793429 272.179137 
L 461.793429 270.759889 
L 463.094941 270.759889 
L 463.094941 272.172548 
L 465.697965 272.238779 
L 465.697965 271.156425 
L 469.602501 271.076845 
L 469.602501 269.297662 
L 470.904012 269.297662 
L 470.904012 268.380247 
L 472.205524 268.380247 
L 472.205524 263.877003 
L 473.507036 263.877003 
L 473.507036 263.616543 
L 474.808548 263.616543 
L 474.808548 258.870055 
L 476.11006 258.870055 
L 476.11006 264.175426 
L 477.411572 264.175426 
L 477.411572 261.83111 
L 478.713084 261.83111 
L 478.713084 261.492006 
L 480.014596 261.492006 
L 480.014596 259.791424 
L 481.316107 259.791424 
L 481.316107 262.420601 
L 482.617619 262.420601 
L 482.617619 263.558176 
L 483.919131 263.558176 
L 483.919131 260.711899 
L 485.220643 260.711899 
L 485.220643 261.215094 
L 486.522155 261.215094 
L 486.522155 260.33428 
L 489.125179 260.28161 
L 489.125179 259.836442 
L 490.426691 259.836442 
L 490.426691 261.176282 
L 491.728202 261.176282 
L 491.728202 261.317713 
L 493.029714 261.317713 
L 493.029714 261.516109 
L 494.331226 261.516109 
L 494.331226 261.92102 
L 496.93425 261.955878 
L 496.93425 263.113646 
L 498.235762 263.113646 
L 498.235762 262.562117 
L 499.537274 262.562117 
L 499.537274 262.823768 
L 500.838786 262.823768 
L 500.838786 261.648401 
L 502.140297 261.648401 
L 502.140297 262.119713 
L 503.441809 262.119713 
L 503.441809 261.873748 
L 504.743321 261.873748 
L 504.743321 262.309011 
L 507.346345 262.38893 
L 507.346345 261.462419 
L 508.647857 261.462419 
L 508.647857 260.78812 
L 509.949369 260.78812 
L 509.949369 254.449324 
L 511.250881 254.449324 
L 511.250881 254.140997 
L 512.552392 254.140997 
L 512.552392 254.298965 
L 513.853904 254.298965 
L 513.853904 251.440105 
L 516.456928 251.366478 
L 516.456928 252.961336 
L 517.75844 252.961336 
L 517.75844 251.337656 
L 519.059952 251.337656 
L 519.059952 249.129926 
L 520.361464 249.129926 
L 520.361464 250.948941 
L 521.662976 250.948941 
L 521.662976 251.853561 
L 522.964487 251.853561 
L 522.964487 252.642764 
L 525.567511 252.582102 
L 525.567511 250.704805 
L 526.869023 250.704805 
L 526.869023 256.891584 
L 528.170535 256.891584 
L 528.170535 257.317324 
L 530.773559 257.38143 
L 530.773559 257.474485 
L 532.075071 257.474485 
L 532.075071 254.848794 
L 533.376582 254.848794 
L 533.376582 254.283407 
L 534.678094 254.283407 
L 534.678094 256.618115 
L 535.979606 256.618115 
L 535.979606 255.935314 
L 538.58263 255.937482 
L 538.58263 256.24819 
L 539.884142 256.24819 
L 539.884142 256.017699 
L 542.487166 256.029007 
L 542.487166 253.342909 
L 543.788677 253.342909 
L 543.788677 252.809107 
L 545.090189 252.809107 
L 545.090189 253.237058 
L 546.391701 253.237058 
L 546.391701 251.406607 
L 547.693213 251.406607 
L 547.693213 246.168956 
L 548.994725 246.168956 
L 548.994725 245.971198 
L 550.296237 245.971198 
L 550.296237 244.898961 
L 551.597749 244.898961 
L 551.597749 242.682814 
L 552.899261 242.682814 
L 552.899261 241.777387 
L 554.200772 241.777387 
L 554.200772 235.092812 
L 555.502284 235.092812 
L 555.502284 236.228858 
L 556.803796 236.228858 
L 556.803796 232.117942 
L 558.105308 232.117942 
L 558.105308 233.509771 
L 559.40682 233.509771 
L 559.40682 225.729154 
L 560.708332 225.729154 
L 560.708332 221.8977 
L 562.009844 221.8977 
L 562.009844 219.887941 
L 563.311356 219.887941 
L 563.311356 228.533048 
L 564.612867 228.533048 
L 564.612867 217.604245 
L 565.914379 217.604245 
L 565.914379 218.689066 
L 567.215891 218.689066 
L 567.215891 219.015885 
L 568.517403 219.015885 
L 568.517403 222.51665 
L 569.818915 222.51665 
L 569.818915 221.456911 
L 571.120427 221.456911 
L 571.120427 218.751938 
L 572.421939 218.751938 
L 572.421939 202.976196 
L 573.723451 202.976196 
L 573.723451 204.699181 
L 575.024963 204.699181 
L 575.024963 200.57547 
L 576.326474 200.57547 
L 576.326474 189.8159 
L 577.627986 189.8159 
L 577.627986 178.72067 
L 578.929498 178.72067 
L 578.929498 164.527034 
L 580.23101 164.527034 
L 580.23101 156.657484 
L 581.532522 156.657484 
L 581.532522 128.500448 
L 582.834034 128.500448 
L 582.834034 150.288294 
L 584.135546 150.288294 
L 584.135546 134.92707 
L 585.437058 134.92707 
L 585.437058 149.233741 
L 586.738569 149.233741 
L 586.738569 150.31363 
L 588.040081 150.31363 
L 588.040081 164.933942 
L 589.341593 164.933942 
L 589.341593 163.054732 
L 590.643105 163.054732 
L 590.643105 155.519951 
L 591.944617 155.519951 
L 591.944617 158.884046 
L 593.246129 158.884046 
L 593.246129 144.093906 
L 594.547641 144.093906 
L 594.547641 135.906379 
L 595.849153 135.906379 
L 595.849153 110.612454 
L 597.150664 110.612454 
L 597.150664 100.805243 
L 598.452176 100.805243 
L 598.452176 92.409841 
L 599.753688 92.409841 
L 599.753688 63.688183 
L 601.0552 63.688183 
L 601.0552 71.310705 
L 602.356712 71.310705 
L 602.356712 102.440912 
L 603.658224 102.440912 
L 603.658224 109.610274 
L 604.959736 109.610274 
L 604.959736 86.808684 
L 606.261248 86.808684 
L 606.261248 93.593796 
L 607.562759 93.593796 
L 607.562759 68.087914 
L 608.864271 68.087914 
L 608.864271 58.005491 
L 610.165783 58.005491 
L 610.165783 64.375915 
L 611.467295 64.375915 
L 611.467295 56.251431 
L 612.768807 56.251431 
L 612.768807 57.334296 
L 614.070319 57.334296 
L 614.070319 78.176841 
L 615.371831 78.176841 
L 615.371831 63.91166 
L 616.673343 63.91166 
L 616.673343 51.727358 
L 617.974854 51.727358 
L 617.974854 50.44699 
L 620.577878 50.350151 
L 620.577878 54.624605 
L 621.87939 54.624605 
L 621.87939 46.478441 
L 623.180902 46.478441 
L 623.180902 33.707284 
L 624.482414 33.707284 
L 624.482414 45.95888 
L 625.783926 45.95888 
L 625.783926 61.174081 
L 627.085438 61.174081 
L 627.085438 83.937411 
L 628.386949 83.937411 
L 628.386949 71.594503 
L 629.688461 71.594503 
L 629.688461 73.603073 
L 630.989973 73.603073 
L 630.989973 60.738138 
L 632.291485 60.738138 
L 632.291485 57.070477 
L 633.592997 57.070477 
L 633.592997 50.882763 
L 634.894509 50.882763 
L 634.894509 60.144949 
L 636.196021 60.144949 
L 636.196021 89.168771 
L 637.497533 89.168771 
L 637.497533 116.061977 
L 638.799044 116.061977 
L 638.799044 128.015533 
L 640.100556 128.015533 
L 640.100556 153.648308 
L 641.402068 153.648308 
L 641.402068 134.469786 
L 642.70358 134.469786 
L 642.70358 154.102615 
L 644.005092 154.102615 
L 644.005092 145.536918 
L 645.306604 145.536918 
L 645.306604 144.589491 
L 646.608116 144.589491 
L 646.608116 158.918182 
L 647.909628 158.918182 
L 647.909628 145.358672 
L 649.211139 145.358672 
L 649.211139 135.316677 
L 650.512651 135.316677 
L 650.512651 138.470728 
L 651.814163 138.470728 
L 651.814163 150.376588 
L 653.115675 150.376588 
L 653.115675 163.455221 
L 654.417187 163.455221 
L 654.417187 166.885845 
L 655.718699 166.885845 
L 655.718699 154.914562 
L 657.020211 154.914562 
L 657.020211 158.824617 
L 658.321723 158.824617 
L 658.321723 151.290007 
L 659.623234 151.290007 
L 659.623234 157.540126 
L 660.924746 157.540126 
L 660.924746 158.915206 
L 662.226258 158.915206 
L 662.226258 162.439353 
L 663.52777 162.439353 
L 663.52777 167.818223 
L 664.829282 167.818223 
L 664.829282 170.391414 
L 666.130794 170.391414 
L 666.130794 164.091601 
L 667.432306 164.091601 
L 667.432306 151.052374 
L 668.733818 151.052374 
L 668.733818 131.338945 
L 670.035329 131.338945 
L 670.035329 124.296987 
L 671.336841 124.296987 
L 671.336841 139.265118 
L 672.638353 139.265118 
L 672.638353 119.336503 
L 673.939865 119.336503 
L 673.939865 104.425973 
L 675.241377 104.425973 
L 675.241377 112.569586 
L 676.542889 112.569586 
L 676.542889 101.352691 
L 677.844401 101.352691 
L 677.844401 111.038875 
L 679.145913 111.038875 
L 679.145913 93.379416 
L 680.447425 93.379416 
L 680.447425 98.427259 
L 681.748936 98.427259 
L 681.748936 92.848718 
L 683.050448 92.848718 
L 683.050448 101.274642 
L 684.35196 101.274642 
L 684.35196 91.6918 
L 685.653472 91.6918 
L 685.653472 81.319074 
L 686.954984 81.319074 
L 686.954984 105.510325 
L 688.256496 105.510325 
L 688.256496 109.479044 
L 689.558008 109.479044 
L 689.558008 101.285907 
L 690.85952 101.285907 
L 690.85952 100.47192 
L 692.161031 100.47192 
L 692.161031 119.015082 
L 693.462543 119.015082 
L 693.462543 110.566585 
L 694.764055 110.566585 
L 694.764055 117.820245 
L 696.065567 117.820245 
L 696.065567 124.878018 
L 697.367079 124.878018 
L 697.367079 98.501567 
L 698.668591 98.501567 
L 698.668591 82.438073 
L 699.970103 82.438073 
L 699.970103 72.399393 
L 701.271615 72.399393 
L 701.271615 57.160684 
L 702.573126 57.160684 
L 702.573126 57.391387 
L 703.874638 57.391387 
L 703.874638 39.756117 
L 705.17615 39.756117 
L 705.17615 20.552727 
L 706.477662 20.552727 
L 706.477662 40.899347 
L 707.779174 40.899347 
L 707.779174 44.861774 
L 709.080686 44.861774 
L 709.080686 36.767771 
L 710.382198 36.767771 
L 710.382198 41.952667 
L 711.68371 41.952667 
L 711.68371 40.19984 
L 712.985221 40.19984 
L 712.985221 32.329525 
L 714.286733 32.329525 
L 714.286733 25.172874 
L 715.588245 25.172874 
L 715.588245 27.535554 
L 716.889757 27.535554 
L 716.889757 45.59682 
L 718.191269 45.59682 
L 718.191269 54.26569 
L 719.492781 54.26569 
L 719.492781 62.051451 
L 720.794293 62.051451 
L 720.794293 50.854536 
L 722.095805 50.854536 
L 722.095805 57.839701 
L 723.397316 57.839701 
L 723.397316 58.105475 
L 724.698828 58.105475 
L 724.698828 92.011265 
L 726.00034 92.011265 
L 726.00034 86.095744 
L 727.301852 86.095744 
L 727.301852 101.008145 
L 728.603364 101.008145 
L 728.603364 102.625109 
L 729.904876 102.625109 
L 729.904876 98.793698 
L 731.206388 98.793698 
L 731.206388 102.913371 
L 732.5079 102.913371 
L 732.5079 94.670327 
L 733.809411 94.670327 
L 733.809411 86.837634 
L 735.110923 86.837634 
L 735.110923 99.036517 
L 736.412435 99.036517 
L 736.412435 104.782634 
L 737.713947 104.782634 
L 737.713947 103.964608 
L 739.015459 103.964608 
L 739.015459 118.083809 
L 740.316971 118.083809 
L 740.316971 123.42391 
L 741.618483 123.42391 
L 741.618483 114.660157 
L 742.919995 114.660157 
L 742.919995 117.973707 
L 744.221506 117.973707 
L 744.221506 121.225958 
L 745.523018 121.225958 
L 745.523018 146.309712 
L 746.82453 146.309712 
L 746.82453 145.468136 
L 748.126042 145.468136 
L 748.126042 143.478527 
L 749.427554 143.478527 
L 749.427554 140.197709 
L 750.729066 140.197709 
L 750.729066 144.47399 
L 752.030578 144.47399 
L 752.030578 125.247645 
L 753.33209 125.247645 
L 753.33209 113.779004 
L 754.633601 113.779004 
L 754.633601 121.14183 
L 755.935113 121.14183 
L 755.935113 120.378047 
L 757.236625 120.378047 
L 757.236625 128.944935 
L 758.538137 128.944935 
L 758.538137 138.226507 
L 759.839649 138.226507 
L 759.839649 142.8637 
L 761.141161 142.8637 
L 761.141161 135.159006 
L 762.442673 135.159006 
L 762.442673 112.565122 
L 763.744185 112.565122 
L 763.744185 135.000272 
L 765.045696 135.000272 
L 765.045696 139.713602 
L 766.347208 139.713602 
L 766.347208 133.739247 
L 767.64872 133.739247 
L 767.64872 140.615288 
L 768.950232 140.615288 
L 768.950232 126.532944 
L 770.251744 126.532944 
L 770.251744 121.902552 
L 771.553256 121.902552 
L 771.553256 121.263409 
L 772.854768 121.263409 
L 772.854768 112.924334 
L 774.15628 112.924334 
L 774.15628 101.099669 
L 775.457791 101.099669 
L 775.457791 107.802311 
L 776.759303 107.802311 
L 776.759303 104.034623 
L 778.060815 104.034623 
L 778.060815 117.78815 
L 779.362327 117.78815 
L 779.362327 119.499147 
L 780.663839 119.499147 
L 780.663839 130.915245 
L 781.965351 130.915245 
L 781.965351 128.942767 
L 783.266863 128.942767 
L 783.266863 127.924561 
L 784.568375 127.924561 
L 784.568375 129.164629 
L 785.869887 129.164629 
L 785.869887 133.621578 
L 787.171398 133.621578 
L 787.171398 134.541034 
L 788.47291 134.541034 
L 788.47291 141.292052 
L 789.774422 141.292052 
L 789.774422 141.011484 
L 791.075934 141.011484 
L 791.075934 148.298429 
L 792.377446 148.298429 
L 792.377446 173.113051 
L 793.678958 173.113051 
L 793.678958 178.403756 
L 794.98047 178.403756 
L 794.98047 168.429607 
L 796.281982 168.429607 
L 796.281982 179.467236 
L 797.583493 179.467236 
L 797.583493 176.368447 
L 798.885005 176.368447 
L 798.885005 175.413454 
L 800.186517 175.413454 
L 800.186517 179.901181 
L 801.488029 179.901181 
L 801.488029 166.567018 
L 802.789541 166.567018 
L 802.789541 172.032567 
L 804.091053 172.032567 
L 804.091053 174.279364 
L 805.392565 174.279364 
L 805.392565 173.055492 
L 806.694077 173.055492 
L 806.694077 180.89758 
L 807.995588 180.89758 
L 807.995588 207.063562 
L 809.2971 207.063562 
L 809.2971 214.522164 
L 810.598612 214.522164 
L 810.598612 213.894967 
L 811.900124 213.894967 
L 811.900124 211.743903 
L 813.201636 211.743903 
L 813.201636 212.034078 
L 814.503148 212.034078 
L 814.503148 216.005008 
L 815.80466 216.005008 
L 815.80466 219.66591 
L 817.106172 219.66591 
L 817.106172 215.596994 
L 818.407683 215.596994 
L 818.407683 209.413701 
L 819.709195 209.413701 
L 819.709195 216.598537 
L 821.010707 216.598537 
L 821.010707 213.951888 
L 822.312219 213.951888 
L 822.312219 213.079024 
L 823.613731 213.079024 
L 823.613731 202.65129 
L 824.915243 202.65129 
L 824.915243 205.905538 
L 826.216755 205.905538 
L 826.216755 210.982841 
L 827.518267 210.982841 
L 827.518267 200.250393 
L 828.819778 200.250393 
L 828.819778 202.346406 
L 830.12129 202.346406 
L 830.12129 205.282338 
L 831.422802 205.282338 
L 831.422802 202.876467 
L 832.724314 202.876467 
L 832.724314 199.53656 
L 834.025826 199.53656 
L 834.025826 197.465416 
L 835.327338 197.465416 
L 835.327338 199.892074 
L 836.62885 199.892074 
L 836.62885 212.785745 
L 837.930362 212.785745 
L 837.930362 210.406401 
L 839.231873 210.406401 
L 839.231873 209.577451 
L 840.533385 209.577451 
L 840.533385 218.282965 
L 841.834897 218.282965 
L 841.834897 216.16761 
L 843.136409 216.16761 
L 843.136409 217.071974 
L 844.437921 217.071974 
L 844.437921 221.443053 
L 845.739433 221.443053 
L 845.739433 210.471655 
L 847.040945 210.471655 
L 847.040945 206.198817 
L 848.342457 206.198817 
L 848.342457 217.668181 
L 849.643968 217.668181 
L 849.643968 218.853495 
L 850.94548 218.853495 
L 850.94548 222.715556 
L 852.246992 222.715556 
L 852.246992 220.911292 
L 853.548504 220.911292 
L 853.548504 220.175438 
L 854.850016 220.175438 
L 854.850016 218.805289 
L 856.151528 218.805289 
L 856.151528 217.932085 
L 857.45304 217.932085 
L 857.45304 216.555261 
L 858.754552 216.555261 
L 858.754552 218.742884 
L 860.056063 218.742884 
L 860.056063 219.957275 
L 861.357575 219.957275 
L 861.357575 220.353089 
L 862.659087 220.353089 
L 862.659087 219.215343 
L 863.960599 219.215343 
L 863.960599 219.892957 
L 865.262111 219.892957 
L 865.262111 219.180655 
L 866.563623 219.180655 
L 866.563623 215.143792 
L 867.865135 215.143792 
L 867.865135 213.698527 
L 869.166647 213.698527 
L 869.166647 215.715683 
L 870.468158 215.715683 
L 870.468158 210.87512 
L 871.76967 210.87512 
L 871.76967 222.576335 
L 873.071182 222.576335 
L 873.071182 229.164794 
L 874.372694 229.164794 
L 874.372694 230.874983 
L 875.674206 230.874983 
L 875.674206 230.473346 
L 876.975718 230.473346 
L 876.975718 232.267408 
L 878.27723 232.267408 
L 878.27723 230.795021 
L 879.578742 230.795021 
L 879.578742 231.446704 
L 882.181765 231.53487 
L 882.181765 228.735567 
L 883.483277 228.735567 
L 883.483277 229.263588 
L 884.784789 229.263588 
L 884.784789 228.126182 
L 886.086301 228.126182 
L 886.086301 228.704195 
L 887.387813 228.704195 
L 887.387813 225.712192 
L 888.689325 225.712192 
L 888.689325 230.043311 
L 889.990837 230.043311 
L 889.990837 229.528767 
L 891.292349 229.528767 
L 891.292349 230.059848 
L 892.59386 230.059848 
L 892.59386 229.48175 
L 893.895372 229.48175 
L 893.895372 230.694187 
L 896.498396 230.765519 
L 896.498396 229.758365 
L 897.799908 229.758365 
L 897.799908 229.356345 
L 899.10142 229.356345 
L 899.10142 227.237292 
L 900.402932 227.237292 
L 900.402932 216.653587 
L 901.704444 216.653587 
L 901.704444 211.30949 
L 903.005955 211.30949 
L 903.005955 211.746199 
L 904.307467 211.746199 
L 904.307467 202.484933 
L 905.101932 202.484933 
L 905.101932 202.484933 
" clip-path="url(#p015609a646)" style="fill: none; stroke: #3572c6; stroke-width: 1.2; stroke-linecap: square"/>
   </g>
   <g id="patch_3">
    <path d="M 52.88375 300.96 
L 52.88375 7.2 
" style="fill: none; stroke: #899ab8; stroke-width: 1.12; stroke-linejoin: miter; stroke-linecap: square"/>
   </g>
   <g id="patch_4">
    <path d="M 945.68375 300.96 
L 945.68375 7.2 
" style="fill: none; stroke: #899ab8; stroke-width: 1.12; stroke-linejoin: miter; stroke-linecap: square"/>
   </g>
   <g id="patch_5">
    <path d="M 52.88375 300.96 
L 945.68375 300.96 
" style="fill: none; stroke: #899ab8; stroke-width: 1.12; stroke-linejoin: miter; stroke-linecap: square"/>
   </g>
   <g id="patch_6">
    <path d="M 52.88375 7.2 
L 945.68375 7.2 
" style="fill: none; stroke: #899ab8; stroke-width: 1.12; stroke-linejoin: miter; stroke-linecap: square"/>
   </g>
  </g>
 </g>
 <defs>
  <clipPath id="p015609a646">
   <rect x="52.88375" y="7.2" width="892.8" height="293.76"/>
  </clipPath>
 </defs>
</svg>
