<?xml version="1.0" encoding="utf-8" standalone="no"?>
<!DOCTYPE svg PUBLIC "-//W3C//DTD SVG 1.1//EN"
  "http://www.w3.org/Graphics/SVG/1.1/DTD/svg11.dtd">
<svg xmlns:xlink="http://www.w3.org/1999/xlink" width="952.88375pt" height="368.580365pt" viewBox="0 0 952.88375 368.580365" xmlns="http://www.w3.org/2000/svg" version="1.1">
 <metadata>
  <rdf:RDF xmlns:dc="http://purl.org/dc/elements/1.1/" xmlns:cc="http://creativecommons.org/ns#" xmlns:rdf="http://www.w3.org/1999/02/22-rdf-syntax-ns#">
   <cc:Work>
    <dc:type rdf:resource="http://purl.org/dc/dcmitype/StillImage"/>
    <dc:date>2022-06-19T05:01:56.370876</dc:date>
    <dc:format>image/svg+xml</dc:format>
    <dc:creator>
     <cc:Agent>
      <dc:title>Matplotlib v3.5.2, https://matplotlib.org/</dc:title>
     </cc:Agent>
    </dc:creator>
   </cc:Work>
  </rdf:RDF>
 </metadata>
 <defs>
  <style type="text/css">*{stroke-linejoin: round; stroke-linecap: butt}</style>
 </defs>
 <g id="figure_1">
  <g id="patch_1">
   <path d="M 0 368.580365 
L 952.88375 368.580365 
L 952.88375 0 
L 0 0 
z
" style="fill: #373e4b"/>
  </g>
  <g id="axes_1">
   <g id="patch_2">
    <path d="M 52.88375 300.96 
L 945.68375 300.96 
L 945.68375 7.2 
L 52.88375 7.2 
z
" style="fill: #373e4b"/>
   </g>
   <g id="matplotlib.axis_1">
    <g id="xtick_1">
     <g id="line2d_1">
      <path d="M 100.865567 300.96 
L 100.865567 7.2 
" clip-path="url(#p1b73632062)" style="fill: none; stroke: #546379; stroke-width: 1.12; stroke-linecap: square"/>
     </g>
     <g id="line2d_2"/>
     <g id="text_1">
      <!-- 2018-01 -->
      <g style="fill: #b1bed6" transform="translate(53.962293 341.174526)rotate(-30)scale(0.126 -0.126)">
       <defs>
        <path id="DejaVuSans-32" d="M 1228 531 
L 3431 531 
L 3431 0 
L 469 0 
L 469 531 
Q 828 903 1448 1529 
Q 2069 2156 2228 2338 
Q 2531 2678 2651 2914 
Q 2772 3150 2772 3378 
Q 2772 3750 2511 3984 
Q 2250 4219 1831 4219 
Q 1534 4219 1204 4116 
Q 875 4013 500 3803 
L 500 4441 
Q 881 4594 1212 4672 
Q 1544 4750 1819 4750 
Q 2544 4750 2975 4387 
Q 3406 4025 3406 3419 
Q 3406 3131 3298 2873 
Q 3191 2616 2906 2266 
Q 2828 2175 2409 1742 
Q 1991 1309 1228 531 
z
" transform="scale(0.015625)"/>
        <path id="DejaVuSans-30" d="M 2034 4250 
Q 1547 4250 1301 3770 
Q 1056 3291 1056 2328 
Q 1056 1369 1301 889 
Q 1547 409 2034 409 
Q 2525 409 2770 889 
Q 3016 1369 3016 2328 
Q 3016 3291 2770 3770 
Q 2525 4250 2034 4250 
z
M 2034 4750 
Q 2819 4750 3233 4129 
Q 3647 3509 3647 2328 
Q 3647 1150 3233 529 
Q 2819 -91 2034 -91 
Q 1250 -91 836 529 
Q 422 1150 422 2328 
Q 422 3509 836 4129 
Q 1250 4750 2034 4750 
z
" transform="scale(0.015625)"/>
        <path id="DejaVuSans-31" d="M 794 531 
L 1825 531 
L 1825 4091 
L 703 3866 
L 703 4441 
L 1819 4666 
L 2450 4666 
L 2450 531 
L 3481 531 
L 3481 0 
L 794 0 
L 794 531 
z
" transform="scale(0.015625)"/>
        <path id="DejaVuSans-38" d="M 2034 2216 
Q 1584 2216 1326 1975 
Q 1069 1734 1069 1313 
Q 1069 891 1326 650 
Q 1584 409 2034 409 
Q 2484 409 2743 651 
Q 3003 894 3003 1313 
Q 3003 1734 2745 1975 
Q 2488 2216 2034 2216 
z
M 1403 2484 
Q 997 2584 770 2862 
Q 544 3141 544 3541 
Q 544 4100 942 4425 
Q 1341 4750 2034 4750 
Q 2731 4750 3128 4425 
Q 3525 4100 3525 3541 
Q 3525 3141 3298 2862 
Q 3072 2584 2669 2484 
Q 3125 2378 3379 2068 
Q 3634 1759 3634 1313 
Q 3634 634 3220 271 
Q 2806 -91 2034 -91 
Q 1263 -91 848 271 
Q 434 634 434 1313 
Q 434 1759 690 2068 
Q 947 2378 1403 2484 
z
M 1172 3481 
Q 1172 3119 1398 2916 
Q 1625 2713 2034 2713 
Q 2441 2713 2670 2916 
Q 2900 3119 2900 3481 
Q 2900 3844 2670 4047 
Q 2441 4250 2034 4250 
Q 1625 4250 1398 4047 
Q 1172 3844 1172 3481 
z
" transform="scale(0.015625)"/>
        <path id="DejaVuSans-2d" d="M 313 2009 
L 1997 2009 
L 1997 1497 
L 313 1497 
L 313 2009 
z
" transform="scale(0.015625)"/>
       </defs>
       <use xlink:href="#DejaVuSans-32"/>
       <use xlink:href="#DejaVuSans-30" x="63.623047"/>
       <use xlink:href="#DejaVuSans-31" x="127.246094"/>
       <use xlink:href="#DejaVuSans-38" x="190.869141"/>
       <use xlink:href="#DejaVuSans-2d" x="254.492188"/>
       <use xlink:href="#DejaVuSans-30" x="290.576172"/>
       <use xlink:href="#DejaVuSans-31" x="354.199219"/>
      </g>
     </g>
    </g>
    <g id="xtick_2">
     <g id="line2d_3">
      <path d="M 190.158891 300.96 
L 190.158891 7.2 
" clip-path="url(#p1b73632062)" style="fill: none; stroke: #546379; stroke-width: 1.12; stroke-linecap: square"/>
     </g>
     <g id="line2d_4"/>
     <g id="text_2">
      <!-- 2018-07 -->
      <g style="fill: #b1bed6" transform="translate(143.255617 341.174526)rotate(-30)scale(0.126 -0.126)">
       <defs>
        <path id="DejaVuSans-37" d="M 525 4666 
L 3525 4666 
L 3525 4397 
L 1831 0 
L 1172 0 
L 2766 4134 
L 525 4134 
L 525 4666 
z
" transform="scale(0.015625)"/>
       </defs>
       <use xlink:href="#DejaVuSans-32"/>
       <use xlink:href="#DejaVuSans-30" x="63.623047"/>
       <use xlink:href="#DejaVuSans-31" x="127.246094"/>
       <use xlink:href="#DejaVuSans-38" x="190.869141"/>
       <use xlink:href="#DejaVuSans-2d" x="254.492188"/>
       <use xlink:href="#DejaVuSans-30" x="290.576172"/>
       <use xlink:href="#DejaVuSans-37" x="354.199219"/>
      </g>
     </g>
    </g>
    <g id="xtick_3">
     <g id="line2d_5">
      <path d="M 280.932214 300.96 
L 280.932214 7.2 
" clip-path="url(#p1b73632062)" style="fill: none; stroke: #546379; stroke-width: 1.12; stroke-linecap: square"/>
     </g>
     <g id="line2d_6"/>
     <g id="text_3">
      <!-- 2019-01 -->
      <g style="fill: #b1bed6" transform="translate(234.02894 341.174526)rotate(-30)scale(0.126 -0.126)">
       <defs>
        <path id="DejaVuSans-39" d="M 703 97 
L 703 672 
Q 941 559 1184 500 
Q 1428 441 1663 441 
Q 2288 441 2617 861 
Q 2947 1281 2994 2138 
Q 2813 1869 2534 1725 
Q 2256 1581 1919 1581 
Q 1219 1581 811 2004 
Q 403 2428 403 3163 
Q 403 3881 828 4315 
Q 1253 4750 1959 4750 
Q 2769 4750 3195 4129 
Q 3622 3509 3622 2328 
Q 3622 1225 3098 567 
Q 2575 -91 1691 -91 
Q 1453 -91 1209 -44 
Q 966 3 703 97 
z
M 1959 2075 
Q 2384 2075 2632 2365 
Q 2881 2656 2881 3163 
Q 2881 3666 2632 3958 
Q 2384 4250 1959 4250 
Q 1534 4250 1286 3958 
Q 1038 3666 1038 3163 
Q 1038 2656 1286 2365 
Q 1534 2075 1959 2075 
z
" transform="scale(0.015625)"/>
       </defs>
       <use xlink:href="#DejaVuSans-32"/>
       <use xlink:href="#DejaVuSans-30" x="63.623047"/>
       <use xlink:href="#DejaVuSans-31" x="127.246094"/>
       <use xlink:href="#DejaVuSans-39" x="190.869141"/>
       <use xlink:href="#DejaVuSans-2d" x="254.492188"/>
       <use xlink:href="#DejaVuSans-30" x="290.576172"/>
       <use xlink:href="#DejaVuSans-31" x="354.199219"/>
      </g>
     </g>
    </g>
    <g id="xtick_4">
     <g id="line2d_7">
      <path d="M 370.225537 300.96 
L 370.225537 7.2 
" clip-path="url(#p1b73632062)" style="fill: none; stroke: #546379; stroke-width: 1.12; stroke-linecap: square"/>
     </g>
     <g id="line2d_8"/>
     <g id="text_4">
      <!-- 2019-07 -->
      <g style="fill: #b1bed6" transform="translate(323.322263 341.174526)rotate(-30)scale(0.126 -0.126)">
       <use xlink:href="#DejaVuSans-32"/>
       <use xlink:href="#DejaVuSans-30" x="63.623047"/>
       <use xlink:href="#DejaVuSans-31" x="127.246094"/>
       <use xlink:href="#DejaVuSans-39" x="190.869141"/>
       <use xlink:href="#DejaVuSans-2d" x="254.492188"/>
       <use xlink:href="#DejaVuSans-30" x="290.576172"/>
       <use xlink:href="#DejaVuSans-37" x="354.199219"/>
      </g>
     </g>
    </g>
    <g id="xtick_5">
     <g id="line2d_9">
      <path d="M 460.998861 300.96 
L 460.998861 7.2 
" clip-path="url(#p1b73632062)" style="fill: none; stroke: #546379; stroke-width: 1.12; stroke-linecap: square"/>
     </g>
     <g id="line2d_10"/>
     <g id="text_5">
      <!-- 2020-01 -->
      <g style="fill: #b1bed6" transform="translate(414.095587 341.174526)rotate(-30)scale(0.126 -0.126)">
       <use xlink:href="#DejaVuSans-32"/>
       <use xlink:href="#DejaVuSans-30" x="63.623047"/>
       <use xlink:href="#DejaVuSans-32" x="127.246094"/>
       <use xlink:href="#DejaVuSans-30" x="190.869141"/>
       <use xlink:href="#DejaVuSans-2d" x="254.492188"/>
       <use xlink:href="#DejaVuSans-30" x="290.576172"/>
       <use xlink:href="#DejaVuSans-31" x="354.199219"/>
      </g>
     </g>
    </g>
    <g id="xtick_6">
     <g id="line2d_11">
      <path d="M 550.785517 300.96 
L 550.785517 7.2 
" clip-path="url(#p1b73632062)" style="fill: none; stroke: #546379; stroke-width: 1.12; stroke-linecap: square"/>
     </g>
     <g id="line2d_12"/>
     <g id="text_6">
      <!-- 2020-07 -->
      <g style="fill: #b1bed6" transform="translate(503.882243 341.174526)rotate(-30)scale(0.126 -0.126)">
       <use xlink:href="#DejaVuSans-32"/>
       <use xlink:href="#DejaVuSans-30" x="63.623047"/>
       <use xlink:href="#DejaVuSans-32" x="127.246094"/>
       <use xlink:href="#DejaVuSans-30" x="190.869141"/>
       <use xlink:href="#DejaVuSans-2d" x="254.492188"/>
       <use xlink:href="#DejaVuSans-30" x="290.576172"/>
       <use xlink:href="#DejaVuSans-37" x="354.199219"/>
      </g>
     </g>
    </g>
    <g id="xtick_7">
     <g id="line2d_13">
      <path d="M 641.558841 300.96 
L 641.558841 7.2 
" clip-path="url(#p1b73632062)" style="fill: none; stroke: #546379; stroke-width: 1.12; stroke-linecap: square"/>
     </g>
     <g id="line2d_14"/>
     <g id="text_7">
      <!-- 2021-01 -->
      <g style="fill: #b1bed6" transform="translate(594.655566 341.174526)rotate(-30)scale(0.126 -0.126)">
       <use xlink:href="#DejaVuSans-32"/>
       <use xlink:href="#DejaVuSans-30" x="63.623047"/>
       <use xlink:href="#DejaVuSans-32" x="127.246094"/>
       <use xlink:href="#DejaVuSans-31" x="190.869141"/>
       <use xlink:href="#DejaVuSans-2d" x="254.492188"/>
       <use xlink:href="#DejaVuSans-30" x="290.576172"/>
       <use xlink:href="#DejaVuSans-31" x="354.199219"/>
      </g>
     </g>
    </g>
    <g id="xtick_8">
     <g id="line2d_15">
      <path d="M 730.852164 300.96 
L 730.852164 7.2 
" clip-path="url(#p1b73632062)" style="fill: none; stroke: #546379; stroke-width: 1.12; stroke-linecap: square"/>
     </g>
     <g id="line2d_16"/>
     <g id="text_8">
      <!-- 2021-07 -->
      <g style="fill: #b1bed6" transform="translate(683.94889 341.174526)rotate(-30)scale(0.126 -0.126)">
       <use xlink:href="#DejaVuSans-32"/>
       <use xlink:href="#DejaVuSans-30" x="63.623047"/>
       <use xlink:href="#DejaVuSans-32" x="127.246094"/>
       <use xlink:href="#DejaVuSans-31" x="190.869141"/>
       <use xlink:href="#DejaVuSans-2d" x="254.492188"/>
       <use xlink:href="#DejaVuSans-30" x="290.576172"/>
       <use xlink:href="#DejaVuSans-37" x="354.199219"/>
      </g>
     </g>
    </g>
    <g id="xtick_9">
     <g id="line2d_17">
      <path d="M 821.625487 300.96 
L 821.625487 7.2 
" clip-path="url(#p1b73632062)" style="fill: none; stroke: #546379; stroke-width: 1.12; stroke-linecap: square"/>
     </g>
     <g id="line2d_18"/>
     <g id="text_9">
      <!-- 2022-01 -->
      <g style="fill: #b1bed6" transform="translate(774.722213 341.174526)rotate(-30)scale(0.126 -0.126)">
       <use xlink:href="#DejaVuSans-32"/>
       <use xlink:href="#DejaVuSans-30" x="63.623047"/>
       <use xlink:href="#DejaVuSans-32" x="127.246094"/>
       <use xlink:href="#DejaVuSans-32" x="190.869141"/>
       <use xlink:href="#DejaVuSans-2d" x="254.492188"/>
       <use xlink:href="#DejaVuSans-30" x="290.576172"/>
       <use xlink:href="#DejaVuSans-31" x="354.199219"/>
      </g>
     </g>
    </g>
    <g id="xtick_10">
     <g id="line2d_19">
      <path d="M 910.918811 300.96 
L 910.918811 7.2 
" clip-path="url(#p1b73632062)" style="fill: none; stroke: #546379; stroke-width: 1.12; stroke-linecap: square"/>
     </g>
     <g id="line2d_20"/>
     <g id="text_10">
      <!-- 2022-07 -->
      <g style="fill: #b1bed6" transform="translate(864.015537 341.174526)rotate(-30)scale(0.126 -0.126)">
       <use xlink:href="#DejaVuSans-32"/>
       <use xlink:href="#DejaVuSans-30" x="63.623047"/>
       <use xlink:href="#DejaVuSans-32" x="127.246094"/>
       <use xlink:href="#DejaVuSans-32" x="190.869141"/>
       <use xlink:href="#DejaVuSans-2d" x="254.492188"/>
       <use xlink:href="#DejaVuSans-30" x="290.576172"/>
       <use xlink:href="#DejaVuSans-37" x="354.199219"/>
      </g>
     </g>
    </g>
    <g id="text_11">
     <!-- Date -->
     <g style="fill: #b1bed6" transform="translate(482.074625 358.385615)scale(0.144 -0.144)">
      <defs>
       <path id="DejaVuSans-44" d="M 1259 4147 
L 1259 519 
L 2022 519 
Q 2988 519 3436 956 
Q 3884 1394 3884 2338 
Q 3884 3275 3436 3711 
Q 2988 4147 2022 4147 
L 1259 4147 
z
M 628 4666 
L 1925 4666 
Q 3281 4666 3915 4102 
Q 4550 3538 4550 2338 
Q 4550 1131 3912 565 
Q 3275 0 1925 0 
L 628 0 
L 628 4666 
z
" transform="scale(0.015625)"/>
       <path id="DejaVuSans-61" d="M 2194 1759 
Q 1497 1759 1228 1600 
Q 959 1441 959 1056 
Q 959 750 1161 570 
Q 1363 391 1709 391 
Q 2188 391 2477 730 
Q 2766 1069 2766 1631 
L 2766 1759 
L 2194 1759 
z
M 3341 1997 
L 3341 0 
L 2766 0 
L 2766 531 
Q 2569 213 2275 61 
Q 1981 -91 1556 -91 
Q 1019 -91 701 211 
Q 384 513 384 1019 
Q 384 1609 779 1909 
Q 1175 2209 1959 2209 
L 2766 2209 
L 2766 2266 
Q 2766 2663 2505 2880 
Q 2244 3097 1772 3097 
Q 1472 3097 1187 3025 
Q 903 2953 641 2809 
L 641 3341 
Q 956 3463 1253 3523 
Q 1550 3584 1831 3584 
Q 2591 3584 2966 3190 
Q 3341 2797 3341 1997 
z
" transform="scale(0.015625)"/>
       <path id="DejaVuSans-74" d="M 1172 4494 
L 1172 3500 
L 2356 3500 
L 2356 3053 
L 1172 3053 
L 1172 1153 
Q 1172 725 1289 603 
Q 1406 481 1766 481 
L 2356 481 
L 2356 0 
L 1766 0 
Q 1100 0 847 248 
Q 594 497 594 1153 
L 594 3053 
L 172 3053 
L 172 3500 
L 594 3500 
L 594 4494 
L 1172 4494 
z
" transform="scale(0.015625)"/>
       <path id="DejaVuSans-65" d="M 3597 1894 
L 3597 1613 
L 953 1613 
Q 991 1019 1311 708 
Q 1631 397 2203 397 
Q 2534 397 2845 478 
Q 3156 559 3463 722 
L 3463 178 
Q 3153 47 2828 -22 
Q 2503 -91 2169 -91 
Q 1331 -91 842 396 
Q 353 884 353 1716 
Q 353 2575 817 3079 
Q 1281 3584 2069 3584 
Q 2775 3584 3186 3129 
Q 3597 2675 3597 1894 
z
M 3022 2063 
Q 3016 2534 2758 2815 
Q 2500 3097 2075 3097 
Q 1594 3097 1305 2825 
Q 1016 2553 972 2059 
L 3022 2063 
z
" transform="scale(0.015625)"/>
      </defs>
      <use xlink:href="#DejaVuSans-44"/>
      <use xlink:href="#DejaVuSans-61" x="77.001953"/>
      <use xlink:href="#DejaVuSans-74" x="138.28125"/>
      <use xlink:href="#DejaVuSans-65" x="177.490234"/>
     </g>
    </g>
   </g>
   <g id="matplotlib.axis_2">
    <g id="ytick_1">
     <g id="line2d_21">
      <path d="M 52.88375 258.880598 
L 945.68375 258.880598 
" clip-path="url(#p1b73632062)" style="fill: none; stroke: #546379; stroke-width: 1.12; stroke-linecap: square"/>
     </g>
     <g id="line2d_22"/>
     <g id="text_12">
      <!-- 10000 -->
      <g style="fill: #b1bed6" transform="translate(7.2 263.667614)scale(0.126 -0.126)">
       <use xlink:href="#DejaVuSans-31"/>
       <use xlink:href="#DejaVuSans-30" x="63.623047"/>
       <use xlink:href="#DejaVuSans-30" x="127.246094"/>
       <use xlink:href="#DejaVuSans-30" x="190.869141"/>
       <use xlink:href="#DejaVuSans-30" x="254.492188"/>
      </g>
     </g>
    </g>
    <g id="ytick_2">
     <g id="line2d_23">
      <path d="M 52.88375 216.370299 
L 945.68375 216.370299 
" clip-path="url(#p1b73632062)" style="fill: none; stroke: #546379; stroke-width: 1.12; stroke-linecap: square"/>
     </g>
     <g id="line2d_24"/>
     <g id="text_13">
      <!-- 20000 -->
      <g style="fill: #b1bed6" transform="translate(7.2 221.157314)scale(0.126 -0.126)">
       <use xlink:href="#DejaVuSans-32"/>
       <use xlink:href="#DejaVuSans-30" x="63.623047"/>
       <use xlink:href="#DejaVuSans-30" x="127.246094"/>
       <use xlink:href="#DejaVuSans-30" x="190.869141"/>
       <use xlink:href="#DejaVuSans-30" x="254.492188"/>
      </g>
     </g>
    </g>
    <g id="ytick_3">
     <g id="line2d_25">
      <path d="M 52.88375 173.86 
L 945.68375 173.86 
" clip-path="url(#p1b73632062)" style="fill: none; stroke: #546379; stroke-width: 1.12; stroke-linecap: square"/>
     </g>
     <g id="line2d_26"/>
     <g id="text_14">
      <!-- 30000 -->
      <g style="fill: #b1bed6" transform="translate(7.2 178.647015)scale(0.126 -0.126)">
       <defs>
        <path id="DejaVuSans-33" d="M 2597 2516 
Q 3050 2419 3304 2112 
Q 3559 1806 3559 1356 
Q 3559 666 3084 287 
Q 2609 -91 1734 -91 
Q 1441 -91 1130 -33 
Q 819 25 488 141 
L 488 750 
Q 750 597 1062 519 
Q 1375 441 1716 441 
Q 2309 441 2620 675 
Q 2931 909 2931 1356 
Q 2931 1769 2642 2001 
Q 2353 2234 1838 2234 
L 1294 2234 
L 1294 2753 
L 1863 2753 
Q 2328 2753 2575 2939 
Q 2822 3125 2822 3475 
Q 2822 3834 2567 4026 
Q 2313 4219 1838 4219 
Q 1578 4219 1281 4162 
Q 984 4106 628 3988 
L 628 4550 
Q 988 4650 1302 4700 
Q 1616 4750 1894 4750 
Q 2613 4750 3031 4423 
Q 3450 4097 3450 3541 
Q 3450 3153 3228 2886 
Q 3006 2619 2597 2516 
z
" transform="scale(0.015625)"/>
       </defs>
       <use xlink:href="#DejaVuSans-33"/>
       <use xlink:href="#DejaVuSans-30" x="63.623047"/>
       <use xlink:href="#DejaVuSans-30" x="127.246094"/>
       <use xlink:href="#DejaVuSans-30" x="190.869141"/>
       <use xlink:href="#DejaVuSans-30" x="254.492188"/>
      </g>
     </g>
    </g>
    <g id="ytick_4">
     <g id="line2d_27">
      <path d="M 52.88375 131.349701 
L 945.68375 131.349701 
" clip-path="url(#p1b73632062)" style="fill: none; stroke: #546379; stroke-width: 1.12; stroke-linecap: square"/>
     </g>
     <g id="line2d_28"/>
     <g id="text_15">
      <!-- 40000 -->
      <g style="fill: #b1bed6" transform="translate(7.2 136.136716)scale(0.126 -0.126)">
       <defs>
        <path id="DejaVuSans-34" d="M 2419 4116 
L 825 1625 
L 2419 1625 
L 2419 4116 
z
M 2253 4666 
L 3047 4666 
L 3047 1625 
L 3713 1625 
L 3713 1100 
L 3047 1100 
L 3047 0 
L 2419 0 
L 2419 1100 
L 313 1100 
L 313 1709 
L 2253 4666 
z
" transform="scale(0.015625)"/>
       </defs>
       <use xlink:href="#DejaVuSans-34"/>
       <use xlink:href="#DejaVuSans-30" x="63.623047"/>
       <use xlink:href="#DejaVuSans-30" x="127.246094"/>
       <use xlink:href="#DejaVuSans-30" x="190.869141"/>
       <use xlink:href="#DejaVuSans-30" x="254.492188"/>
      </g>
     </g>
    </g>
    <g id="ytick_5">
     <g id="line2d_29">
      <path d="M 52.88375 88.839401 
L 945.68375 88.839401 
" clip-path="url(#p1b73632062)" style="fill: none; stroke: #546379; stroke-width: 1.12; stroke-linecap: square"/>
     </g>
     <g id="line2d_30"/>
     <g id="text_16">
      <!-- 50000 -->
      <g style="fill: #b1bed6" transform="translate(7.2 93.626417)scale(0.126 -0.126)">
       <defs>
        <path id="DejaVuSans-35" d="M 691 4666 
L 3169 4666 
L 3169 4134 
L 1269 4134 
L 1269 2991 
Q 1406 3038 1543 3061 
Q 1681 3084 1819 3084 
Q 2600 3084 3056 2656 
Q 3513 2228 3513 1497 
Q 3513 744 3044 326 
Q 2575 -91 1722 -91 
Q 1428 -91 1123 -41 
Q 819 9 494 109 
L 494 744 
Q 775 591 1075 516 
Q 1375 441 1709 441 
Q 2250 441 2565 725 
Q 2881 1009 2881 1497 
Q 2881 1984 2565 2268 
Q 2250 2553 1709 2553 
Q 1456 2553 1204 2497 
Q 953 2441 691 2322 
L 691 4666 
z
" transform="scale(0.015625)"/>
       </defs>
       <use xlink:href="#DejaVuSans-35"/>
       <use xlink:href="#DejaVuSans-30" x="63.623047"/>
       <use xlink:href="#DejaVuSans-30" x="127.246094"/>
       <use xlink:href="#DejaVuSans-30" x="190.869141"/>
       <use xlink:href="#DejaVuSans-30" x="254.492188"/>
      </g>
     </g>
    </g>
    <g id="ytick_6">
     <g id="line2d_31">
      <path d="M 52.88375 46.329102 
L 945.68375 46.329102 
" clip-path="url(#p1b73632062)" style="fill: none; stroke: #546379; stroke-width: 1.12; stroke-linecap: square"/>
     </g>
     <g id="line2d_32"/>
     <g id="text_17">
      <!-- 60000 -->
      <g style="fill: #b1bed6" transform="translate(7.2 51.116118)scale(0.126 -0.126)">
       <defs>
        <path id="DejaVuSans-36" d="M 2113 2584 
Q 1688 2584 1439 2293 
Q 1191 2003 1191 1497 
Q 1191 994 1439 701 
Q 1688 409 2113 409 
Q 2538 409 2786 701 
Q 3034 994 3034 1497 
Q 3034 2003 2786 2293 
Q 2538 2584 2113 2584 
z
M 3366 4563 
L 3366 3988 
Q 3128 4100 2886 4159 
Q 2644 4219 2406 4219 
Q 1781 4219 1451 3797 
Q 1122 3375 1075 2522 
Q 1259 2794 1537 2939 
Q 1816 3084 2150 3084 
Q 2853 3084 3261 2657 
Q 3669 2231 3669 1497 
Q 3669 778 3244 343 
Q 2819 -91 2113 -91 
Q 1303 -91 875 529 
Q 447 1150 447 2328 
Q 447 3434 972 4092 
Q 1497 4750 2381 4750 
Q 2619 4750 2861 4703 
Q 3103 4656 3366 4563 
z
" transform="scale(0.015625)"/>
       </defs>
       <use xlink:href="#DejaVuSans-36"/>
       <use xlink:href="#DejaVuSans-30" x="63.623047"/>
       <use xlink:href="#DejaVuSans-30" x="127.246094"/>
       <use xlink:href="#DejaVuSans-30" x="190.869141"/>
       <use xlink:href="#DejaVuSans-30" x="254.492188"/>
      </g>
     </g>
    </g>
   </g>
   <g id="line2d_33">
    <path d="M 93.465568 219.431465 
L 93.465568 227.495499 
L 94.945568 227.495499 
L 94.945568 242.826116 
L 96.425568 242.826116 
L 96.425568 242.97775 
L 97.905568 242.97775 
L 97.905568 240.966715 
L 99.385568 240.966715 
L 99.385568 242.743688 
L 100.865567 242.743688 
L 100.865567 237.458638 
L 102.345567 237.458638 
L 102.345567 228.46044 
L 103.825567 228.46044 
L 103.825567 240.016993 
L 105.305567 240.016993 
L 105.305567 242.764136 
L 106.785567 242.764136 
L 106.785567 243.771843 
L 108.265567 243.771843 
L 108.265567 253.886403 
L 109.745566 253.886403 
L 109.745566 252.447004 
L 111.225566 252.447004 
L 111.225566 252.963037 
L 112.705566 252.963037 
L 112.705566 252.795801 
L 114.185566 252.795801 
L 114.185566 258.529803 
L 115.665566 258.529803 
L 115.665566 263.757677 
L 117.145566 263.757677 
L 117.145566 271.95056 
L 118.625565 271.95056 
L 118.625565 266.340815 
L 120.105565 266.340815 
L 120.105565 267.093503 
L 121.585565 267.093503 
L 121.585565 261.126672 
L 123.065565 261.126672 
L 123.065565 254.264702 
L 124.545565 254.264702 
L 124.545565 253.5839 
L 126.025565 253.5839 
L 126.025565 258.152397 
L 127.505564 258.152397 
L 127.505564 257.522564 
L 128.985564 257.522564 
L 128.985564 254.922379 
L 130.465564 254.922379 
L 130.465564 252.432508 
L 131.945564 252.432508 
L 131.945564 259.218725 
L 133.425564 259.218725 
L 133.425564 264.078035 
L 134.905564 264.078035 
L 134.905564 262.478925 
L 136.385563 262.478925 
L 136.385563 266.116319 
L 137.865563 266.116319 
L 137.865563 264.808064 
L 139.345563 264.808064 
L 139.345563 264.299088 
L 140.825563 264.299088 
L 140.825563 265.435856 
L 142.305563 265.435856 
L 142.305563 267.592616 
L 143.785563 267.592616 
L 143.785563 271.899122 
L 145.265562 271.899122 
L 145.265562 269.820708 
L 146.745562 269.820708 
L 146.745562 273.186674 
L 148.225562 273.186674 
L 148.225562 272.550167 
L 149.705562 272.550167 
L 149.705562 267.631513 
L 151.185562 267.631513 
L 151.185562 265.817854 
L 152.665562 265.817854 
L 152.665562 266.634647 
L 154.145561 266.634647 
L 154.145561 263.426649 
L 155.625561 263.426649 
L 155.625561 260.333983 
L 157.105561 260.333983 
L 157.105561 263.435364 
L 158.585561 263.435364 
L 158.585561 262.113294 
L 160.065561 262.113294 
L 160.065561 259.929115 
L 161.545561 259.929115 
L 161.545561 260.447358 
L 163.02556 260.447358 
L 163.02556 261.812236 
L 164.50556 261.812236 
L 164.50556 265.41222 
L 167.46556 265.380168 
L 167.46556 266.366322 
L 168.94556 266.366322 
L 168.94556 265.696572 
L 170.42556 265.696572 
L 170.42556 269.181779 
L 171.905559 269.181779 
L 171.905559 270.168953 
L 173.385559 270.168953 
L 173.385559 269.989729 
L 174.865559 269.989729 
L 174.865559 268.925187 
L 179.305559 269.017009 
L 179.305559 272.146745 
L 180.785558 272.146745 
L 180.785558 273.175069 
L 182.265558 273.175069 
L 182.265558 273.989651 
L 183.745558 273.989651 
L 183.745558 272.650407 
L 185.225558 272.650407 
L 185.225558 275.160087 
L 186.705558 275.160087 
L 186.705558 275.470412 
L 188.185558 275.470412 
L 188.185558 274.935548 
L 189.665558 274.935548 
L 189.665558 273.221702 
L 191.145557 273.221702 
L 191.145557 273.523228 
L 192.625557 273.523228 
L 192.625557 272.806802 
L 194.105557 272.806802 
L 194.105557 274.170787 
L 195.585557 274.170787 
L 195.585557 274.826891 
L 197.065557 274.826891 
L 197.065557 270.266471 
L 200.025556 270.209635 
L 200.025556 268.593776 
L 201.505556 268.593776 
L 201.505556 267.638527 
L 202.985556 267.638527 
L 202.985556 266.443563 
L 204.465556 266.443563 
L 204.465556 269.050337 
L 205.945556 269.050337 
L 205.945556 271.585736 
L 207.425556 271.585736 
L 207.425556 272.8315 
L 208.905555 272.8315 
L 208.905555 275.293995 
L 210.385555 275.293995 
L 210.385555 274.812905 
L 211.865555 274.812905 
L 211.865555 274.555208 
L 213.345555 274.555208 
L 213.345555 273.816252 
L 214.825555 273.816252 
L 214.825555 274.37743 
L 216.305555 274.37743 
L 216.305555 272.74631 
L 217.785554 272.74631 
L 217.785554 271.3013 
L 219.265554 271.3013 
L 219.265554 271.553853 
L 220.745554 271.553853 
L 220.745554 270.506825 
L 222.225554 270.506825 
L 222.225554 273.754144 
L 223.705554 273.754144 
L 223.705554 274.860304 
L 225.185554 274.860304 
L 225.185554 274.498712 
L 226.665553 274.498712 
L 226.665553 273.664022 
L 228.145553 273.664022 
L 228.145553 274.429208 
L 229.625553 274.429208 
L 229.625553 272.670429 
L 231.105553 272.670429 
L 231.105553 273.404454 
L 232.585553 273.404454 
L 232.585553 272.968171 
L 234.065553 272.968171 
L 234.065553 273.287253 
L 235.545552 273.287253 
L 235.545552 273.828367 
L 237.025552 273.828367 
L 237.025552 273.446242 
L 238.505552 273.446242 
L 238.505552 273.21996 
L 239.985552 273.21996 
L 239.985552 274.834713 
L 241.465552 274.834713 
L 241.465552 273.337628 
L 242.945552 273.337628 
L 242.945552 273.71835 
L 247.385551 273.802691 
L 247.385551 273.941104 
L 248.865551 273.941104 
L 248.865551 274.602565 
L 250.345551 274.602565 
L 250.345551 274.225031 
L 251.825551 274.225031 
L 251.825551 274.023787 
L 254.78555 273.993137 
L 254.78555 274.148044 
L 256.26555 274.148044 
L 256.26555 276.918696 
L 257.74555 276.918696 
L 257.74555 277.702288 
L 259.22555 277.702288 
L 259.22555 282.295356 
L 260.70555 282.295356 
L 260.70555 282.886249 
L 262.185549 282.886249 
L 262.185549 285.265253 
L 263.665549 285.265253 
L 263.665549 283.201718 
L 265.145549 283.201718 
L 265.145549 283.789083 
L 266.625549 283.789083 
L 266.625549 285.470875 
L 268.105549 285.470875 
L 268.105549 286.709285 
L 269.585549 286.709285 
L 269.585549 286.906448 
L 271.065548 286.906448 
L 271.065548 287.607273 
L 272.545548 287.607273 
L 272.545548 286.271939 
L 274.025548 286.271939 
L 274.025548 283.812081 
L 275.505548 283.812081 
L 275.505548 284.40731 
L 276.985548 284.40731 
L 276.985548 285.032041 
L 278.465548 285.032041 
L 278.465548 285.362984 
L 279.945547 285.362984 
L 279.945547 284.999436 
L 282.905547 284.99629 
L 282.905547 284.249682 
L 284.385547 284.249682 
L 284.385547 285.890579 
L 285.865547 285.890579 
L 285.865547 286.37643 
L 287.345547 286.37643 
L 287.345547 285.99609 
L 288.825547 285.99609 
L 288.825547 285.645167 
L 290.305546 285.645167 
L 290.305546 286.140965 
L 293.265546 286.181605 
L 293.265546 286.73088 
L 297.705546 286.699253 
L 297.705546 286.913165 
L 299.185545 286.913165 
L 299.185545 285.813508 
L 300.665545 285.813508 
L 300.665545 285.949371 
L 303.625545 286.052331 
L 303.625545 284.765969 
L 305.105545 284.765969 
L 305.105545 284.621094 
L 306.585545 284.621094 
L 306.585545 285.377735 
L 308.065544 285.377735 
L 308.065544 285.095722 
L 311.025544 285.103331 
L 311.025544 284.929847 
L 316.945543 284.874753 
L 316.945543 284.408373 
L 318.425543 284.408373 
L 318.425543 284.147019 
L 319.905543 284.147019 
L 319.905543 284.336105 
L 321.385543 284.336105 
L 321.385543 284.608936 
L 322.865543 284.608936 
L 322.865543 283.895571 
L 324.345543 283.895571 
L 324.345543 283.738368 
L 325.825542 283.738368 
L 325.825542 280.513069 
L 327.305542 280.513069 
L 327.305542 279.330645 
L 328.785542 279.330645 
L 328.785542 278.817163 
L 330.265542 278.817163 
L 330.265542 279.861046 
L 331.745542 279.861046 
L 331.745542 279.299783 
L 333.225542 279.299783 
L 333.225542 278.958042 
L 334.705541 278.958042 
L 334.705541 278.532302 
L 336.185541 278.532302 
L 336.185541 279.304204 
L 337.665541 279.304204 
L 337.665541 278.854955 
L 340.625541 278.747064 
L 340.625541 276.857863 
L 343.58554 276.923159 
L 343.58554 274.405274 
L 345.06554 274.405274 
L 345.06554 268.134623 
L 346.54554 268.134623 
L 346.54554 267.867445 
L 348.02554 267.867445 
L 348.02554 266.559233 
L 349.50554 266.559233 
L 349.50554 268.972841 
L 350.98554 268.972841 
L 350.98554 267.078922 
L 352.465539 267.078922 
L 352.465539 264.322426 
L 353.945539 264.322426 
L 353.945539 265.028395 
L 355.425539 265.028395 
L 355.425539 266.809109 
L 356.905539 266.809109 
L 356.905539 268.219133 
L 358.385539 268.219133 
L 358.385539 268.910435 
L 359.865539 268.910435 
L 359.865539 266.646975 
L 361.345538 266.646975 
L 361.345538 263.729025 
L 362.825538 263.729025 
L 362.825538 262.807784 
L 364.305538 262.807784 
L 364.305538 257.990517 
L 365.785538 257.990517 
L 365.785538 254.555175 
L 367.265538 254.555175 
L 367.265538 254.064819 
L 368.745538 254.064819 
L 368.745538 255.744486 
L 370.225537 255.744486 
L 370.225537 250.443324 
L 371.705537 250.443324 
L 371.705537 253.643159 
L 373.185537 253.643159 
L 373.185537 247.884119 
L 374.665537 247.884119 
L 374.665537 251.211868 
L 376.145537 251.211868 
L 376.145537 255.167323 
L 377.625537 255.167323 
L 377.625537 256.16606 
L 379.105536 256.16606 
L 379.105536 256.383501 
L 380.585536 256.383501 
L 380.585536 259.84911 
L 382.065536 259.84911 
L 382.065536 261.116682 
L 383.545536 261.116682 
L 383.545536 260.627219 
L 385.025536 260.627219 
L 385.025536 256.629465 
L 386.505536 256.629465 
L 386.505536 251.279799 
L 387.985535 251.279799 
L 387.985535 250.393799 
L 389.465535 250.393799 
L 389.465535 252.219914 
L 390.945535 252.219914 
L 390.945535 258.808501 
L 392.425535 258.808501 
L 392.425535 257.968667 
L 393.905535 257.968667 
L 393.905535 255.647435 
L 395.385535 255.647435 
L 395.385535 257.155488 
L 396.865535 257.155488 
L 396.865535 257.349037 
L 398.345534 257.349037 
L 398.345534 261.071791 
L 399.825534 261.071791 
L 399.825534 259.859228 
L 401.305534 259.859228 
L 401.305534 256.397316 
L 402.785534 256.397316 
L 402.785534 256.809454 
L 404.265534 256.809454 
L 404.265534 258.451116 
L 405.745534 258.451116 
L 405.745534 257.333648 
L 407.225533 257.333648 
L 407.225533 257.751397 
L 410.185533 257.707824 
L 410.185533 258.740101 
L 411.665533 258.740101 
L 411.665533 265.545235 
L 413.145533 265.545235 
L 413.145533 266.426176 
L 414.625533 266.426176 
L 414.625533 266.009915 
L 416.105532 266.009915 
L 416.105532 266.721708 
L 417.585532 266.721708 
L 417.585532 266.481354 
L 419.065532 266.481354 
L 419.065532 264.887728 
L 420.545532 264.887728 
L 420.545532 266.176386 
L 422.025532 266.176386 
L 422.025532 267.371988 
L 423.505532 267.371988 
L 423.505532 267.552529 
L 424.985531 267.552529 
L 424.985531 267.2689 
L 426.465531 267.2689 
L 426.465531 264.548114 
L 427.945531 264.548114 
L 427.945531 262.201673 
L 429.425531 262.201673 
L 429.425531 262.502561 
L 430.905531 262.502561 
L 430.905531 262.255236 
L 432.385531 262.255236 
L 432.385531 261.672079 
L 433.86553 261.672079 
L 433.86553 263.941832 
L 436.82553 263.975372 
L 436.82553 265.437004 
L 438.30553 265.437004 
L 438.30553 266.634519 
L 439.78553 266.634519 
L 439.78553 269.010505 
L 441.26553 269.010505 
L 441.26553 272.027333 
L 442.745529 272.027333 
L 442.745529 269.406871 
L 444.225529 269.406871 
L 444.225529 269.262803 
L 445.705529 269.262803 
L 445.705529 270.37211 
L 447.185529 270.37211 
L 447.185529 269.307567 
L 448.665529 269.307567 
L 448.665529 270.199305 
L 450.145529 270.199305 
L 450.145529 270.829563 
L 451.625528 270.829563 
L 451.625528 271.161228 
L 453.105528 271.161228 
L 453.105528 270.425162 
L 454.585528 270.425162 
L 454.585528 271.02494 
L 456.065528 271.02494 
L 456.065528 270.567997 
L 459.025528 270.596734 
L 459.025528 270.700162 
L 460.505527 270.700162 
L 460.505527 271.870343 
L 461.985527 271.870343 
L 461.985527 270.139153 
L 463.465527 270.139153 
L 463.465527 267.201351 
L 466.425527 267.291303 
L 466.425527 263.801505 
L 467.905527 263.801505 
L 467.905527 263.555286 
L 469.385526 263.555286 
L 469.385526 264.719515 
L 470.865526 264.719515 
L 470.865526 265.732791 
L 472.345526 265.732791 
L 472.345526 264.881267 
L 473.825526 264.881267 
L 473.825526 261.942147 
L 475.305526 261.942147 
L 475.305526 261.524356 
L 476.785526 261.524356 
L 476.785526 262.442366 
L 478.265525 262.442366 
L 478.265525 259.698751 
L 479.745525 259.698751 
L 479.745525 259.49789 
L 481.225525 259.49789 
L 481.225525 257.850021 
L 482.705525 257.850021 
L 482.705525 259.145565 
L 484.185525 259.145565 
L 484.185525 260.560945 
L 485.665525 260.560945 
L 485.665525 260.285011 
L 487.145524 260.285011 
L 487.145524 261.817422 
L 488.625524 261.817422 
L 488.625524 264.354437 
L 490.105524 264.354437 
L 490.105524 263.502233 
L 491.585524 263.502233 
L 491.585524 262.845151 
L 493.065524 262.845151 
L 493.065524 267.215252 
L 494.545524 267.215252 
L 494.545524 267.651961 
L 496.025524 267.651961 
L 496.025524 279.428971 
L 497.505523 279.428971 
L 497.505523 278.615537 
L 498.985523 278.615537 
L 498.985523 274.922114 
L 500.465523 274.922114 
L 500.465523 273.75002 
L 501.945523 273.75002 
L 501.945523 272.637994 
L 503.425523 272.637994 
L 503.425523 276.371843 
L 504.905523 276.371843 
L 504.905523 273.109348 
L 506.385522 273.109348 
L 506.385522 272.179137 
L 507.865522 272.179137 
L 507.865522 270.759889 
L 509.345522 270.759889 
L 509.345522 272.172548 
L 512.305522 272.238779 
L 512.305522 271.156425 
L 516.745521 271.076845 
L 516.745521 269.297662 
L 518.225521 269.297662 
L 518.225521 268.380247 
L 519.705521 268.380247 
L 519.705521 263.877003 
L 521.185521 263.877003 
L 521.185521 263.616543 
L 522.665521 263.616543 
L 522.665521 258.870055 
L 524.14552 258.870055 
L 524.14552 264.175426 
L 525.62552 264.175426 
L 525.62552 261.83111 
L 527.10552 261.83111 
L 527.10552 261.492006 
L 528.58552 261.492006 
L 528.58552 259.791424 
L 530.06552 259.791424 
L 530.06552 262.420601 
L 531.54552 262.420601 
L 531.54552 263.558176 
L 533.025519 263.558176 
L 533.025519 260.711899 
L 534.505519 260.711899 
L 534.505519 261.215094 
L 535.985519 261.215094 
L 535.985519 260.33428 
L 538.945519 260.28161 
L 538.945519 259.836442 
L 540.425519 259.836442 
L 540.425519 261.176282 
L 541.905518 261.176282 
L 541.905518 261.317713 
L 543.385518 261.317713 
L 543.385518 261.516109 
L 544.865518 261.516109 
L 544.865518 261.92102 
L 547.825518 261.955878 
L 547.825518 263.113646 
L 549.305518 263.113646 
L 549.305518 262.562117 
L 550.785517 262.562117 
L 550.785517 262.823768 
L 552.265517 262.823768 
L 552.265517 261.648401 
L 553.745517 261.648401 
L 553.745517 262.119713 
L 555.225517 262.119713 
L 555.225517 261.873748 
L 556.705517 261.873748 
L 556.705517 262.309011 
L 559.665516 262.38893 
L 559.665516 261.462419 
L 561.145516 261.462419 
L 561.145516 260.78812 
L 562.625516 260.78812 
L 562.625516 254.449324 
L 564.105516 254.449324 
L 564.105516 254.140997 
L 565.585516 254.140997 
L 565.585516 254.298965 
L 567.065516 254.298965 
L 567.065516 251.440105 
L 570.025515 251.366478 
L 570.025515 252.961336 
L 571.505515 252.961336 
L 571.505515 251.337656 
L 572.985515 251.337656 
L 572.985515 249.129926 
L 574.465515 249.129926 
L 574.465515 250.948941 
L 575.945515 250.948941 
L 575.945515 251.853561 
L 577.425514 251.853561 
L 577.425514 252.642764 
L 580.385514 252.582102 
L 580.385514 250.704805 
L 581.865514 250.704805 
L 581.865514 256.891584 
L 583.345514 256.891584 
L 583.345514 257.317324 
L 586.305513 257.38143 
L 586.305513 257.474485 
L 587.785513 257.474485 
L 587.785513 254.848794 
L 589.265513 254.848794 
L 589.265513 254.283407 
L 590.745513 254.283407 
L 590.745513 256.618115 
L 592.225513 256.618115 
L 592.225513 255.935314 
L 595.185513 255.937482 
L 595.185513 256.24819 
L 596.665512 256.24819 
L 596.665512 256.017699 
L 599.625512 256.029007 
L 599.625512 253.342909 
L 601.105512 253.342909 
L 601.105512 252.809107 
L 602.585512 252.809107 
L 602.585512 253.237058 
L 604.065512 253.237058 
L 604.065512 251.406607 
L 605.545511 251.406607 
L 605.545511 246.168956 
L 607.025511 246.168956 
L 607.025511 245.971198 
L 608.505511 245.971198 
L 608.505511 244.898961 
L 609.985511 244.898961 
L 609.985511 242.682814 
L 611.465511 242.682814 
L 611.465511 241.777387 
L 612.945511 241.777387 
L 612.945511 235.092812 
L 614.42551 235.092812 
L 614.42551 236.228858 
L 615.90551 236.228858 
L 615.90551 232.117942 
L 617.38551 232.117942 
L 617.38551 233.509771 
L 618.86551 233.509771 
L 618.86551 225.729154 
L 620.34551 225.729154 
L 620.34551 221.8977 
L 621.82551 221.8977 
L 621.82551 219.887941 
L 623.305509 219.887941 
L 623.305509 228.533048 
L 624.785509 228.533048 
L 624.785509 217.604245 
L 626.265509 217.604245 
L 626.265509 218.689066 
L 627.745509 218.689066 
L 627.745509 219.015885 
L 629.225509 219.015885 
L 629.225509 222.51665 
L 630.705509 222.51665 
L 630.705509 221.456911 
L 632.185508 221.456911 
L 632.185508 218.751938 
L 633.665508 218.751938 
L 633.665508 202.976196 
L 635.145508 202.976196 
L 635.145508 204.699181 
L 636.625508 204.699181 
L 636.625508 200.57547 
L 638.105508 200.57547 
L 638.105508 189.8159 
L 639.585508 189.8159 
L 639.585508 178.72067 
L 641.065507 178.72067 
L 641.065507 164.527034 
L 642.545507 164.527034 
L 642.545507 156.657484 
L 644.025507 156.657484 
L 644.025507 128.500448 
L 645.505507 128.500448 
L 645.505507 150.288294 
L 646.985507 150.288294 
L 646.985507 134.92707 
L 648.465507 134.92707 
L 648.465507 149.233741 
L 649.945506 149.233741 
L 649.945506 150.31363 
L 651.425506 150.31363 
L 651.425506 164.933942 
L 652.905506 164.933942 
L 652.905506 163.054732 
L 654.385506 163.054732 
L 654.385506 155.519951 
L 655.865506 155.519951 
L 655.865506 158.884046 
L 657.345506 158.884046 
L 657.345506 144.093906 
L 658.825505 144.093906 
L 658.825505 135.906379 
L 660.305505 135.906379 
L 660.305505 110.612454 
L 661.785505 110.612454 
L 661.785505 100.805243 
L 663.265505 100.805243 
L 663.265505 92.409841 
L 664.745505 92.409841 
L 664.745505 63.688183 
L 666.225505 63.688183 
L 666.225505 71.310705 
L 667.705504 71.310705 
L 667.705504 102.440912 
L 669.185504 102.440912 
L 669.185504 109.610274 
L 670.665504 109.610274 
L 670.665504 86.808684 
L 672.145504 86.808684 
L 672.145504 93.593796 
L 673.625504 93.593796 
L 673.625504 68.087914 
L 675.105504 68.087914 
L 675.105504 58.005491 
L 676.585503 58.005491 
L 676.585503 64.375915 
L 678.065503 64.375915 
L 678.065503 56.251431 
L 679.545503 56.251431 
L 679.545503 57.334296 
L 681.025503 57.334296 
L 681.025503 78.176841 
L 682.505503 78.176841 
L 682.505503 63.91166 
L 683.985503 63.91166 
L 683.985503 51.727358 
L 685.465502 51.727358 
L 685.465502 50.44699 
L 688.425502 50.350151 
L 688.425502 54.624605 
L 689.905502 54.624605 
L 689.905502 46.478441 
L 691.385502 46.478441 
L 691.385502 33.707284 
L 692.865502 33.707284 
L 692.865502 45.95888 
L 694.345502 45.95888 
L 694.345502 61.174081 
L 695.825501 61.174081 
L 695.825501 83.937411 
L 697.305501 83.937411 
L 697.305501 71.594503 
L 698.785501 71.594503 
L 698.785501 73.603073 
L 700.265501 73.603073 
L 700.265501 60.738138 
L 701.745501 60.738138 
L 701.745501 57.070477 
L 703.225501 57.070477 
L 703.225501 50.882763 
L 704.7055 50.882763 
L 704.7055 60.144949 
L 706.1855 60.144949 
L 706.1855 89.168771 
L 707.6655 89.168771 
L 707.6655 116.061977 
L 709.1455 116.061977 
L 709.1455 128.015533 
L 710.6255 128.015533 
L 710.6255 153.648308 
L 712.1055 153.648308 
L 712.1055 134.469786 
L 713.585499 134.469786 
L 713.585499 154.102615 
L 715.065499 154.102615 
L 715.065499 145.536918 
L 716.545499 145.536918 
L 716.545499 144.589491 
L 718.025499 144.589491 
L 718.025499 158.918182 
L 719.505499 158.918182 
L 719.505499 145.358672 
L 720.985499 145.358672 
L 720.985499 135.316677 
L 722.465498 135.316677 
L 722.465498 138.470728 
L 723.945498 138.470728 
L 723.945498 150.376588 
L 725.425498 150.376588 
L 725.425498 163.455221 
L 726.905498 163.455221 
L 726.905498 166.885845 
L 728.385498 166.885845 
L 728.385498 154.914562 
L 729.865498 154.914562 
L 729.865498 158.824617 
L 731.345497 158.824617 
L 731.345497 151.290007 
L 732.825497 151.290007 
L 732.825497 157.540126 
L 734.305497 157.540126 
L 734.305497 158.915206 
L 735.785497 158.915206 
L 735.785497 162.439353 
L 737.265497 162.439353 
L 737.265497 167.818223 
L 738.745497 167.818223 
L 738.745497 170.391414 
L 740.225496 170.391414 
L 740.225496 164.091601 
L 741.705496 164.091601 
L 741.705496 151.052374 
L 743.185496 151.052374 
L 743.185496 131.338945 
L 744.665496 131.338945 
L 744.665496 124.296987 
L 746.145496 124.296987 
L 746.145496 139.265118 
L 747.625496 139.265118 
L 747.625496 119.336503 
L 749.105495 119.336503 
L 749.105495 104.425973 
L 750.585495 104.425973 
L 750.585495 112.569586 
L 752.065495 112.569586 
L 752.065495 101.352691 
L 753.545495 101.352691 
L 753.545495 111.038875 
L 755.025495 111.038875 
L 755.025495 93.379416 
L 756.505495 93.379416 
L 756.505495 98.427259 
L 757.985494 98.427259 
L 757.985494 92.848718 
L 759.465494 92.848718 
L 759.465494 101.274642 
L 760.945494 101.274642 
L 760.945494 91.6918 
L 762.425494 91.6918 
L 762.425494 81.319074 
L 763.905494 81.319074 
L 763.905494 105.510325 
L 765.385494 105.510325 
L 765.385494 109.479044 
L 766.865493 109.479044 
L 766.865493 101.285907 
L 768.345493 101.285907 
L 768.345493 100.47192 
L 769.825493 100.47192 
L 769.825493 119.015082 
L 771.305493 119.015082 
L 771.305493 110.566585 
L 772.785493 110.566585 
L 772.785493 117.820245 
L 774.265493 117.820245 
L 774.265493 124.878018 
L 775.745492 124.878018 
L 775.745492 98.501567 
L 777.225492 98.501567 
L 777.225492 82.438073 
L 778.705492 82.438073 
L 778.705492 72.399393 
L 780.185492 72.399393 
L 780.185492 57.160684 
L 781.665492 57.160684 
L 781.665492 57.391387 
L 783.145492 57.391387 
L 783.145492 39.756117 
L 784.625491 39.756117 
L 784.625491 20.552727 
L 786.105491 20.552727 
L 786.105491 40.899347 
L 787.585491 40.899347 
L 787.585491 44.861774 
L 789.065491 44.861774 
L 789.065491 36.767771 
L 790.545491 36.767771 
L 790.545491 41.952667 
L 792.025491 41.952667 
L 792.025491 40.19984 
L 793.50549 40.19984 
L 793.50549 32.329525 
L 794.98549 32.329525 
L 794.98549 25.172874 
L 796.46549 25.172874 
L 796.46549 27.535554 
L 797.94549 27.535554 
L 797.94549 45.59682 
L 799.42549 45.59682 
L 799.42549 54.26569 
L 800.90549 54.26569 
L 800.90549 62.051451 
L 802.38549 62.051451 
L 802.38549 50.854536 
L 803.865489 50.854536 
L 803.865489 57.839701 
L 805.345489 57.839701 
L 805.345489 58.105475 
L 806.825489 58.105475 
L 806.825489 92.011265 
L 808.305489 92.011265 
L 808.305489 86.095744 
L 809.785489 86.095744 
L 809.785489 101.008145 
L 811.265489 101.008145 
L 811.265489 102.625109 
L 812.745488 102.625109 
L 812.745488 98.793698 
L 814.225488 98.793698 
L 814.225488 102.913371 
L 815.705488 102.913371 
L 815.705488 94.670327 
L 817.185488 94.670327 
L 817.185488 86.837634 
L 818.665488 86.837634 
L 818.665488 99.036517 
L 820.145488 99.036517 
L 820.145488 104.782634 
L 821.625487 104.782634 
L 821.625487 103.964608 
L 823.105487 103.964608 
L 823.105487 118.083809 
L 824.585487 118.083809 
L 824.585487 123.42391 
L 826.065487 123.42391 
L 826.065487 114.660157 
L 827.545487 114.660157 
L 827.545487 117.973707 
L 829.025487 117.973707 
L 829.025487 121.225958 
L 830.505486 121.225958 
L 830.505486 146.309712 
L 831.985486 146.309712 
L 831.985486 145.468136 
L 833.465486 145.468136 
L 833.465486 143.478527 
L 834.945486 143.478527 
L 834.945486 140.197709 
L 836.425486 140.197709 
L 836.425486 144.47399 
L 837.905486 144.47399 
L 837.905486 125.247645 
L 839.385485 125.247645 
L 839.385485 113.779004 
L 840.865485 113.779004 
L 840.865485 121.14183 
L 842.345485 121.14183 
L 842.345485 120.378047 
L 843.825485 120.378047 
L 843.825485 128.944935 
L 845.305485 128.944935 
L 845.305485 138.226507 
L 846.785485 138.226507 
L 846.785485 142.8637 
L 848.265484 142.8637 
L 848.265484 135.159006 
L 849.745484 135.159006 
L 849.745484 112.565122 
L 851.225484 112.565122 
L 851.225484 135.000272 
L 852.705484 135.000272 
L 852.705484 139.713602 
L 854.185484 139.713602 
L 854.185484 133.739247 
L 855.665484 133.739247 
L 855.665484 140.615288 
L 857.145483 140.615288 
L 857.145483 126.532944 
L 858.625483 126.532944 
L 858.625483 121.902552 
L 860.105483 121.902552 
L 860.105483 121.263409 
L 861.585483 121.263409 
L 861.585483 112.924334 
L 863.065483 112.924334 
L 863.065483 101.099669 
L 864.545483 101.099669 
L 864.545483 107.802311 
L 866.025482 107.802311 
L 866.025482 104.034623 
L 867.505482 104.034623 
L 867.505482 117.78815 
L 868.985482 117.78815 
L 868.985482 119.499147 
L 870.465482 119.499147 
L 870.465482 130.915245 
L 871.945482 130.915245 
L 871.945482 128.942767 
L 873.425482 128.942767 
L 873.425482 127.924561 
L 874.905481 127.924561 
L 874.905481 129.164629 
L 876.385481 129.164629 
L 876.385481 133.621578 
L 877.865481 133.621578 
L 877.865481 134.541034 
L 879.345481 134.541034 
L 879.345481 141.292052 
L 880.825481 141.292052 
L 880.825481 141.011484 
L 882.305481 141.011484 
L 882.305481 148.298429 
L 883.78548 148.298429 
L 883.78548 173.113051 
L 885.26548 173.113051 
L 885.26548 178.403756 
L 886.74548 178.403756 
L 886.74548 168.429607 
L 888.22548 168.429607 
L 888.22548 179.467236 
L 889.70548 179.467236 
L 889.70548 176.368447 
L 891.18548 176.368447 
L 891.18548 175.413454 
L 892.665479 175.413454 
L 892.665479 179.901181 
L 894.145479 179.901181 
L 894.145479 166.567018 
L 895.625479 166.567018 
L 895.625479 172.032567 
L 897.105479 172.032567 
L 897.105479 174.279364 
L 898.585479 174.279364 
L 898.585479 173.055492 
L 900.065479 173.055492 
L 900.065479 180.89758 
L 901.545479 180.89758 
L 901.545479 207.063562 
L 903.025478 207.063562 
L 903.025478 214.522164 
L 904.505478 214.522164 
L 904.505478 222.716339 
L 905.101932 222.716339 
L 905.101932 222.716339 
" clip-path="url(#p1b73632062)" style="fill: none; stroke: #3572c6; stroke-width: 1.2; stroke-linecap: square"/>
   </g>
   <g id="patch_3">
    <path d="M 52.88375 300.96 
L 52.88375 7.2 
" style="fill: none; stroke: #899ab8; stroke-width: 1.12; stroke-linejoin: miter; stroke-linecap: square"/>
   </g>
   <g id="patch_4">
    <path d="M 945.68375 300.96 
L 945.68375 7.2 
" style="fill: none; stroke: #899ab8; stroke-width: 1.12; stroke-linejoin: miter; stroke-linecap: square"/>
   </g>
   <g id="patch_5">
    <path d="M 52.88375 300.96 
L 945.68375 300.96 
" style="fill: none; stroke: #899ab8; stroke-width: 1.12; stroke-linejoin: miter; stroke-linecap: square"/>
   </g>
   <g id="patch_6">
    <path d="M 52.88375 7.2 
L 945.68375 7.2 
" style="fill: none; stroke: #899ab8; stroke-width: 1.12; stroke-linejoin: miter; stroke-linecap: square"/>
   </g>
  </g>
 </g>
 <defs>
  <clipPath id="p1b73632062">
   <rect x="52.88375" y="7.2" width="892.8" height="293.76"/>
  </clipPath>
 </defs>
</svg>
