<?xml version="1.0" encoding="utf-8" standalone="no"?>
<!DOCTYPE svg PUBLIC "-//W3C//DTD SVG 1.1//EN"
  "http://www.w3.org/Graphics/SVG/1.1/DTD/svg11.dtd">
<svg height="359.519536pt" version="1.1" viewBox="0 0 934.976 359.519536" width="934.976pt" xmlns="http://www.w3.org/2000/svg" xmlns:xlink="http://www.w3.org/1999/xlink">
 <metadata>
  <rdf:RDF xmlns:cc="http://creativecommons.org/ns#" xmlns:dc="http://purl.org/dc/elements/1.1/" xmlns:rdf="http://www.w3.org/1999/02/22-rdf-syntax-ns#">
   <cc:Work>
    <dc:type rdf:resource="http://purl.org/dc/dcmitype/StillImage"/>
    <dc:date>2021-09-04T03:26:19.822147</dc:date>
    <dc:format>image/svg+xml</dc:format>
    <dc:creator>
     <cc:Agent>
      <dc:title>Matplotlib v3.4.3, https://matplotlib.org/</dc:title>
     </cc:Agent>
    </dc:creator>
   </cc:Work>
  </rdf:RDF>
 </metadata>
 <defs>
  <style type="text/css">*{stroke-linecap:butt;stroke-linejoin:round;}</style>
 </defs>
 <g id="figure_1">
  <g id="patch_1">
   <path d="M 0 359.519536 
L 934.976 359.519536 
L 934.976 0 
L 0 0 
z
" style="fill:#373e4b;"/>
  </g>
  <g id="axes_1">
   <g id="patch_2">
    <path d="M 34.976 302.188844 
L 927.776 302.188844 
L 927.776 8.428844 
L 34.976 8.428844 
z
" style="fill:#373e4b;"/>
   </g>
   <g id="matplotlib.axis_1">
    <g id="xtick_1">
     <g id="line2d_1">
      <path clip-path="url(#p3face9ef7f)" d="M 162.501067 302.188844 
L 162.501067 8.428844 
" style="fill:none;stroke:#546379;stroke-linecap:square;stroke-width:1.12;"/>
     </g>
     <g id="line2d_2"/>
     <g id="text_1">
      <!-- 2012 -->
      <g style="fill:#b1bed6;" transform="translate(133.420028 332.113698)rotate(-30)scale(0.126 -0.126)">
       <defs>
        <path d="M 1228 531 
L 3431 531 
L 3431 0 
L 469 0 
L 469 531 
Q 828 903 1448 1529 
Q 2069 2156 2228 2338 
Q 2531 2678 2651 2914 
Q 2772 3150 2772 3378 
Q 2772 3750 2511 3984 
Q 2250 4219 1831 4219 
Q 1534 4219 1204 4116 
Q 875 4013 500 3803 
L 500 4441 
Q 881 4594 1212 4672 
Q 1544 4750 1819 4750 
Q 2544 4750 2975 4387 
Q 3406 4025 3406 3419 
Q 3406 3131 3298 2873 
Q 3191 2616 2906 2266 
Q 2828 2175 2409 1742 
Q 1991 1309 1228 531 
z
" id="DejaVuSans-32" transform="scale(0.015625)"/>
        <path d="M 2034 4250 
Q 1547 4250 1301 3770 
Q 1056 3291 1056 2328 
Q 1056 1369 1301 889 
Q 1547 409 2034 409 
Q 2525 409 2770 889 
Q 3016 1369 3016 2328 
Q 3016 3291 2770 3770 
Q 2525 4250 2034 4250 
z
M 2034 4750 
Q 2819 4750 3233 4129 
Q 3647 3509 3647 2328 
Q 3647 1150 3233 529 
Q 2819 -91 2034 -91 
Q 1250 -91 836 529 
Q 422 1150 422 2328 
Q 422 3509 836 4129 
Q 1250 4750 2034 4750 
z
" id="DejaVuSans-30" transform="scale(0.015625)"/>
        <path d="M 794 531 
L 1825 531 
L 1825 4091 
L 703 3866 
L 703 4441 
L 1819 4666 
L 2450 4666 
L 2450 531 
L 3481 531 
L 3481 0 
L 794 0 
L 794 531 
z
" id="DejaVuSans-31" transform="scale(0.015625)"/>
       </defs>
       <use xlink:href="#DejaVuSans-32"/>
       <use x="63.623047" xlink:href="#DejaVuSans-30"/>
       <use x="127.246094" xlink:href="#DejaVuSans-31"/>
       <use x="190.869141" xlink:href="#DejaVuSans-32"/>
      </g>
     </g>
    </g>
    <g id="xtick_2">
     <g id="line2d_3">
      <path clip-path="url(#p3face9ef7f)" d="M 312.39615 302.188844 
L 312.39615 8.428844 
" style="fill:none;stroke:#546379;stroke-linecap:square;stroke-width:1.12;"/>
     </g>
     <g id="line2d_4"/>
     <g id="text_2">
      <!-- 2014 -->
      <g style="fill:#b1bed6;" transform="translate(283.315111 332.113698)rotate(-30)scale(0.126 -0.126)">
       <defs>
        <path d="M 2419 4116 
L 825 1625 
L 2419 1625 
L 2419 4116 
z
M 2253 4666 
L 3047 4666 
L 3047 1625 
L 3713 1625 
L 3713 1100 
L 3047 1100 
L 3047 0 
L 2419 0 
L 2419 1100 
L 313 1100 
L 313 1709 
L 2253 4666 
z
" id="DejaVuSans-34" transform="scale(0.015625)"/>
       </defs>
       <use xlink:href="#DejaVuSans-32"/>
       <use x="63.623047" xlink:href="#DejaVuSans-30"/>
       <use x="127.246094" xlink:href="#DejaVuSans-31"/>
       <use x="190.869141" xlink:href="#DejaVuSans-34"/>
      </g>
     </g>
    </g>
    <g id="xtick_3">
     <g id="line2d_5">
      <path clip-path="url(#p3face9ef7f)" d="M 462.086179 302.188844 
L 462.086179 8.428844 
" style="fill:none;stroke:#546379;stroke-linecap:square;stroke-width:1.12;"/>
     </g>
     <g id="line2d_6"/>
     <g id="text_3">
      <!-- 2016 -->
      <g style="fill:#b1bed6;" transform="translate(433.005139 332.113698)rotate(-30)scale(0.126 -0.126)">
       <defs>
        <path d="M 2113 2584 
Q 1688 2584 1439 2293 
Q 1191 2003 1191 1497 
Q 1191 994 1439 701 
Q 1688 409 2113 409 
Q 2538 409 2786 701 
Q 3034 994 3034 1497 
Q 3034 2003 2786 2293 
Q 2538 2584 2113 2584 
z
M 3366 4563 
L 3366 3988 
Q 3128 4100 2886 4159 
Q 2644 4219 2406 4219 
Q 1781 4219 1451 3797 
Q 1122 3375 1075 2522 
Q 1259 2794 1537 2939 
Q 1816 3084 2150 3084 
Q 2853 3084 3261 2657 
Q 3669 2231 3669 1497 
Q 3669 778 3244 343 
Q 2819 -91 2113 -91 
Q 1303 -91 875 529 
Q 447 1150 447 2328 
Q 447 3434 972 4092 
Q 1497 4750 2381 4750 
Q 2619 4750 2861 4703 
Q 3103 4656 3366 4563 
z
" id="DejaVuSans-36" transform="scale(0.015625)"/>
       </defs>
       <use xlink:href="#DejaVuSans-32"/>
       <use x="63.623047" xlink:href="#DejaVuSans-30"/>
       <use x="127.246094" xlink:href="#DejaVuSans-31"/>
       <use x="190.869141" xlink:href="#DejaVuSans-36"/>
      </g>
     </g>
    </g>
    <g id="xtick_4">
     <g id="line2d_7">
      <path clip-path="url(#p3face9ef7f)" d="M 611.981262 302.188844 
L 611.981262 8.428844 
" style="fill:none;stroke:#546379;stroke-linecap:square;stroke-width:1.12;"/>
     </g>
     <g id="line2d_8"/>
     <g id="text_4">
      <!-- 2018 -->
      <g style="fill:#b1bed6;" transform="translate(582.900222 332.113698)rotate(-30)scale(0.126 -0.126)">
       <defs>
        <path d="M 2034 2216 
Q 1584 2216 1326 1975 
Q 1069 1734 1069 1313 
Q 1069 891 1326 650 
Q 1584 409 2034 409 
Q 2484 409 2743 651 
Q 3003 894 3003 1313 
Q 3003 1734 2745 1975 
Q 2488 2216 2034 2216 
z
M 1403 2484 
Q 997 2584 770 2862 
Q 544 3141 544 3541 
Q 544 4100 942 4425 
Q 1341 4750 2034 4750 
Q 2731 4750 3128 4425 
Q 3525 4100 3525 3541 
Q 3525 3141 3298 2862 
Q 3072 2584 2669 2484 
Q 3125 2378 3379 2068 
Q 3634 1759 3634 1313 
Q 3634 634 3220 271 
Q 2806 -91 2034 -91 
Q 1263 -91 848 271 
Q 434 634 434 1313 
Q 434 1759 690 2068 
Q 947 2378 1403 2484 
z
M 1172 3481 
Q 1172 3119 1398 2916 
Q 1625 2713 2034 2713 
Q 2441 2713 2670 2916 
Q 2900 3119 2900 3481 
Q 2900 3844 2670 4047 
Q 2441 4250 2034 4250 
Q 1625 4250 1398 4047 
Q 1172 3844 1172 3481 
z
" id="DejaVuSans-38" transform="scale(0.015625)"/>
       </defs>
       <use xlink:href="#DejaVuSans-32"/>
       <use x="63.623047" xlink:href="#DejaVuSans-30"/>
       <use x="127.246094" xlink:href="#DejaVuSans-31"/>
       <use x="190.869141" xlink:href="#DejaVuSans-38"/>
      </g>
     </g>
    </g>
    <g id="xtick_5">
     <g id="line2d_9">
      <path clip-path="url(#p3face9ef7f)" d="M 761.67129 302.188844 
L 761.67129 8.428844 
" style="fill:none;stroke:#546379;stroke-linecap:square;stroke-width:1.12;"/>
     </g>
     <g id="line2d_10"/>
     <g id="text_5">
      <!-- 2020 -->
      <g style="fill:#b1bed6;" transform="translate(732.59025 332.113698)rotate(-30)scale(0.126 -0.126)">
       <use xlink:href="#DejaVuSans-32"/>
       <use x="63.623047" xlink:href="#DejaVuSans-30"/>
       <use x="127.246094" xlink:href="#DejaVuSans-32"/>
       <use x="190.869141" xlink:href="#DejaVuSans-30"/>
      </g>
     </g>
    </g>
    <g id="xtick_6">
     <g id="line2d_11">
      <path clip-path="url(#p3face9ef7f)" d="M 911.566373 302.188844 
L 911.566373 8.428844 
" style="fill:none;stroke:#546379;stroke-linecap:square;stroke-width:1.12;"/>
     </g>
     <g id="line2d_12"/>
     <g id="text_6">
      <!-- 2022 -->
      <g style="fill:#b1bed6;" transform="translate(882.485333 332.113698)rotate(-30)scale(0.126 -0.126)">
       <use xlink:href="#DejaVuSans-32"/>
       <use x="63.623047" xlink:href="#DejaVuSans-30"/>
       <use x="127.246094" xlink:href="#DejaVuSans-32"/>
       <use x="190.869141" xlink:href="#DejaVuSans-32"/>
      </g>
     </g>
    </g>
    <g id="text_7">
     <!-- Date -->
     <g style="fill:#b1bed6;" transform="translate(464.166875 349.324786)scale(0.144 -0.144)">
      <defs>
       <path d="M 1259 4147 
L 1259 519 
L 2022 519 
Q 2988 519 3436 956 
Q 3884 1394 3884 2338 
Q 3884 3275 3436 3711 
Q 2988 4147 2022 4147 
L 1259 4147 
z
M 628 4666 
L 1925 4666 
Q 3281 4666 3915 4102 
Q 4550 3538 4550 2338 
Q 4550 1131 3912 565 
Q 3275 0 1925 0 
L 628 0 
L 628 4666 
z
" id="DejaVuSans-44" transform="scale(0.015625)"/>
       <path d="M 2194 1759 
Q 1497 1759 1228 1600 
Q 959 1441 959 1056 
Q 959 750 1161 570 
Q 1363 391 1709 391 
Q 2188 391 2477 730 
Q 2766 1069 2766 1631 
L 2766 1759 
L 2194 1759 
z
M 3341 1997 
L 3341 0 
L 2766 0 
L 2766 531 
Q 2569 213 2275 61 
Q 1981 -91 1556 -91 
Q 1019 -91 701 211 
Q 384 513 384 1019 
Q 384 1609 779 1909 
Q 1175 2209 1959 2209 
L 2766 2209 
L 2766 2266 
Q 2766 2663 2505 2880 
Q 2244 3097 1772 3097 
Q 1472 3097 1187 3025 
Q 903 2953 641 2809 
L 641 3341 
Q 956 3463 1253 3523 
Q 1550 3584 1831 3584 
Q 2591 3584 2966 3190 
Q 3341 2797 3341 1997 
z
" id="DejaVuSans-61" transform="scale(0.015625)"/>
       <path d="M 1172 4494 
L 1172 3500 
L 2356 3500 
L 2356 3053 
L 1172 3053 
L 1172 1153 
Q 1172 725 1289 603 
Q 1406 481 1766 481 
L 2356 481 
L 2356 0 
L 1766 0 
Q 1100 0 847 248 
Q 594 497 594 1153 
L 594 3053 
L 172 3053 
L 172 3500 
L 594 3500 
L 594 4494 
L 1172 4494 
z
" id="DejaVuSans-74" transform="scale(0.015625)"/>
       <path d="M 3597 1894 
L 3597 1613 
L 953 1613 
Q 991 1019 1311 708 
Q 1631 397 2203 397 
Q 2534 397 2845 478 
Q 3156 559 3463 722 
L 3463 178 
Q 3153 47 2828 -22 
Q 2503 -91 2169 -91 
Q 1331 -91 842 396 
Q 353 884 353 1716 
Q 353 2575 817 3079 
Q 1281 3584 2069 3584 
Q 2775 3584 3186 3129 
Q 3597 2675 3597 1894 
z
M 3022 2063 
Q 3016 2534 2758 2815 
Q 2500 3097 2075 3097 
Q 1594 3097 1305 2825 
Q 1016 2553 972 2059 
L 3022 2063 
z
" id="DejaVuSans-65" transform="scale(0.015625)"/>
      </defs>
      <use xlink:href="#DejaVuSans-44"/>
      <use x="77.001953" xlink:href="#DejaVuSans-61"/>
      <use x="138.28125" xlink:href="#DejaVuSans-74"/>
      <use x="177.490234" xlink:href="#DejaVuSans-65"/>
     </g>
    </g>
   </g>
   <g id="matplotlib.axis_2">
    <g id="ytick_1">
     <g id="line2d_13">
      <path clip-path="url(#p3face9ef7f)" d="M 34.976 255.787468 
L 927.776 255.787468 
" style="fill:none;stroke:#546379;stroke-linecap:square;stroke-width:1.12;"/>
     </g>
     <g id="line2d_14"/>
     <g id="text_8">
      <!-- $\mathdefault{10^{0}}$ -->
      <g style="fill:#b1bed6;" transform="translate(7.2 260.574483)scale(0.126 -0.126)">
       <use transform="translate(0 0.765625)" xlink:href="#DejaVuSans-31"/>
       <use transform="translate(63.623047 0.765625)" xlink:href="#DejaVuSans-30"/>
       <use transform="translate(128.203125 39.046875)scale(0.7)" xlink:href="#DejaVuSans-30"/>
      </g>
     </g>
    </g>
    <g id="ytick_2">
     <g id="line2d_15">
      <path clip-path="url(#p3face9ef7f)" d="M 34.976 207.027377 
L 927.776 207.027377 
" style="fill:none;stroke:#546379;stroke-linecap:square;stroke-width:1.12;"/>
     </g>
     <g id="line2d_16"/>
     <g id="text_9">
      <!-- $\mathdefault{10^{1}}$ -->
      <g style="fill:#b1bed6;" transform="translate(7.2 211.814393)scale(0.126 -0.126)">
       <use transform="translate(0 0.684375)" xlink:href="#DejaVuSans-31"/>
       <use transform="translate(63.623047 0.684375)" xlink:href="#DejaVuSans-30"/>
       <use transform="translate(128.203125 38.965625)scale(0.7)" xlink:href="#DejaVuSans-31"/>
      </g>
     </g>
    </g>
    <g id="ytick_3">
     <g id="line2d_17">
      <path clip-path="url(#p3face9ef7f)" d="M 34.976 158.267287 
L 927.776 158.267287 
" style="fill:none;stroke:#546379;stroke-linecap:square;stroke-width:1.12;"/>
     </g>
     <g id="line2d_18"/>
     <g id="text_10">
      <!-- $\mathdefault{10^{2}}$ -->
      <g style="fill:#b1bed6;" transform="translate(7.2 163.054303)scale(0.126 -0.126)">
       <use transform="translate(0 0.765625)" xlink:href="#DejaVuSans-31"/>
       <use transform="translate(63.623047 0.765625)" xlink:href="#DejaVuSans-30"/>
       <use transform="translate(128.203125 39.046875)scale(0.7)" xlink:href="#DejaVuSans-32"/>
      </g>
     </g>
    </g>
    <g id="ytick_4">
     <g id="line2d_19">
      <path clip-path="url(#p3face9ef7f)" d="M 34.976 109.507196 
L 927.776 109.507196 
" style="fill:none;stroke:#546379;stroke-linecap:square;stroke-width:1.12;"/>
     </g>
     <g id="line2d_20"/>
     <g id="text_11">
      <!-- $\mathdefault{10^{3}}$ -->
      <g style="fill:#b1bed6;" transform="translate(7.2 114.294212)scale(0.126 -0.126)">
       <defs>
        <path d="M 2597 2516 
Q 3050 2419 3304 2112 
Q 3559 1806 3559 1356 
Q 3559 666 3084 287 
Q 2609 -91 1734 -91 
Q 1441 -91 1130 -33 
Q 819 25 488 141 
L 488 750 
Q 750 597 1062 519 
Q 1375 441 1716 441 
Q 2309 441 2620 675 
Q 2931 909 2931 1356 
Q 2931 1769 2642 2001 
Q 2353 2234 1838 2234 
L 1294 2234 
L 1294 2753 
L 1863 2753 
Q 2328 2753 2575 2939 
Q 2822 3125 2822 3475 
Q 2822 3834 2567 4026 
Q 2313 4219 1838 4219 
Q 1578 4219 1281 4162 
Q 984 4106 628 3988 
L 628 4550 
Q 988 4650 1302 4700 
Q 1616 4750 1894 4750 
Q 2613 4750 3031 4423 
Q 3450 4097 3450 3541 
Q 3450 3153 3228 2886 
Q 3006 2619 2597 2516 
z
" id="DejaVuSans-33" transform="scale(0.015625)"/>
       </defs>
       <use transform="translate(0 0.765625)" xlink:href="#DejaVuSans-31"/>
       <use transform="translate(63.623047 0.765625)" xlink:href="#DejaVuSans-30"/>
       <use transform="translate(128.203125 39.046875)scale(0.7)" xlink:href="#DejaVuSans-33"/>
      </g>
     </g>
    </g>
    <g id="ytick_5">
     <g id="line2d_21">
      <path clip-path="url(#p3face9ef7f)" d="M 34.976 60.747106 
L 927.776 60.747106 
" style="fill:none;stroke:#546379;stroke-linecap:square;stroke-width:1.12;"/>
     </g>
     <g id="line2d_22"/>
     <g id="text_12">
      <!-- $\mathdefault{10^{4}}$ -->
      <g style="fill:#b1bed6;" transform="translate(7.2 65.534122)scale(0.126 -0.126)">
       <use transform="translate(0 0.684375)" xlink:href="#DejaVuSans-31"/>
       <use transform="translate(63.623047 0.684375)" xlink:href="#DejaVuSans-30"/>
       <use transform="translate(128.203125 38.965625)scale(0.7)" xlink:href="#DejaVuSans-34"/>
      </g>
     </g>
    </g>
    <g id="ytick_6">
     <g id="line2d_23">
      <path clip-path="url(#p3face9ef7f)" d="M 34.976 11.987016 
L 927.776 11.987016 
" style="fill:none;stroke:#546379;stroke-linecap:square;stroke-width:1.12;"/>
     </g>
     <g id="line2d_24"/>
     <g id="text_13">
      <!-- $\mathdefault{10^{5}}$ -->
      <g style="fill:#b1bed6;" transform="translate(7.2 16.774031)scale(0.126 -0.126)">
       <defs>
        <path d="M 691 4666 
L 3169 4666 
L 3169 4134 
L 1269 4134 
L 1269 2991 
Q 1406 3038 1543 3061 
Q 1681 3084 1819 3084 
Q 2600 3084 3056 2656 
Q 3513 2228 3513 1497 
Q 3513 744 3044 326 
Q 2575 -91 1722 -91 
Q 1428 -91 1123 -41 
Q 819 9 494 109 
L 494 744 
Q 775 591 1075 516 
Q 1375 441 1709 441 
Q 2250 441 2565 725 
Q 2881 1009 2881 1497 
Q 2881 1984 2565 2268 
Q 2250 2553 1709 2553 
Q 1456 2553 1204 2497 
Q 953 2441 691 2322 
L 691 4666 
z
" id="DejaVuSans-35" transform="scale(0.015625)"/>
       </defs>
       <use transform="translate(0 0.684375)" xlink:href="#DejaVuSans-31"/>
       <use transform="translate(63.623047 0.684375)" xlink:href="#DejaVuSans-30"/>
       <use transform="translate(128.203125 38.965625)scale(0.7)" xlink:href="#DejaVuSans-35"/>
      </g>
     </g>
    </g>
    <g id="ytick_7">
     <g id="line2d_25"/>
    </g>
    <g id="ytick_8">
     <g id="line2d_26"/>
    </g>
    <g id="ytick_9">
     <g id="line2d_27"/>
    </g>
    <g id="ytick_10">
     <g id="line2d_28"/>
    </g>
    <g id="ytick_11">
     <g id="line2d_29"/>
    </g>
    <g id="ytick_12">
     <g id="line2d_30"/>
    </g>
    <g id="ytick_13">
     <g id="line2d_31"/>
    </g>
    <g id="ytick_14">
     <g id="line2d_32"/>
    </g>
    <g id="ytick_15">
     <g id="line2d_33"/>
    </g>
    <g id="ytick_16">
     <g id="line2d_34"/>
    </g>
    <g id="ytick_17">
     <g id="line2d_35"/>
    </g>
    <g id="ytick_18">
     <g id="line2d_36"/>
    </g>
    <g id="ytick_19">
     <g id="line2d_37"/>
    </g>
    <g id="ytick_20">
     <g id="line2d_38"/>
    </g>
    <g id="ytick_21">
     <g id="line2d_39"/>
    </g>
    <g id="ytick_22">
     <g id="line2d_40"/>
    </g>
    <g id="ytick_23">
     <g id="line2d_41"/>
    </g>
    <g id="ytick_24">
     <g id="line2d_42"/>
    </g>
    <g id="ytick_25">
     <g id="line2d_43"/>
    </g>
    <g id="ytick_26">
     <g id="line2d_44"/>
    </g>
    <g id="ytick_27">
     <g id="line2d_45"/>
    </g>
    <g id="ytick_28">
     <g id="line2d_46"/>
    </g>
    <g id="ytick_29">
     <g id="line2d_47"/>
    </g>
    <g id="ytick_30">
     <g id="line2d_48"/>
    </g>
    <g id="ytick_31">
     <g id="line2d_49"/>
    </g>
    <g id="ytick_32">
     <g id="line2d_50"/>
    </g>
    <g id="ytick_33">
     <g id="line2d_51"/>
    </g>
    <g id="ytick_34">
     <g id="line2d_52"/>
    </g>
    <g id="ytick_35">
     <g id="line2d_53"/>
    </g>
    <g id="ytick_36">
     <g id="line2d_54"/>
    </g>
    <g id="ytick_37">
     <g id="line2d_55"/>
    </g>
    <g id="ytick_38">
     <g id="line2d_56"/>
    </g>
    <g id="ytick_39">
     <g id="line2d_57"/>
    </g>
    <g id="ytick_40">
     <g id="line2d_58"/>
    </g>
    <g id="ytick_41">
     <g id="line2d_59"/>
    </g>
    <g id="ytick_42">
     <g id="line2d_60"/>
    </g>
    <g id="ytick_43">
     <g id="line2d_61"/>
    </g>
    <g id="ytick_44">
     <g id="line2d_62"/>
    </g>
    <g id="ytick_45">
     <g id="line2d_63"/>
    </g>
    <g id="ytick_46">
     <g id="line2d_64"/>
    </g>
    <g id="ytick_47">
     <g id="line2d_65"/>
    </g>
    <g id="ytick_48">
     <g id="line2d_66"/>
    </g>
    <g id="ytick_49">
     <g id="line2d_67"/>
    </g>
    <g id="ytick_50">
     <g id="line2d_68"/>
    </g>
    <g id="ytick_51">
     <g id="line2d_69"/>
    </g>
    <g id="ytick_52">
     <g id="line2d_70"/>
    </g>
    <g id="ytick_53">
     <g id="line2d_71"/>
    </g>
    <g id="ytick_54">
     <g id="line2d_72"/>
    </g>
   </g>
   <g id="line2d_73">
    <path clip-path="url(#p3face9ef7f)" d="M 75.557818 288.836116 
L 75.557818 285.143967 
L 76.172983 285.143967 
L 76.172983 277.422198 
L 76.788147 277.422198 
L 76.788147 286.008424 
L 77.403312 286.008424 
L 77.403312 281.283083 
L 78.018476 281.283083 
L 78.018476 282.744092 
L 78.633641 282.744092 
L 78.633641 282.00099 
L 80.479134 282.00099 
L 80.479134 282.744092 
L 81.094299 282.744092 
L 81.094299 285.143967 
L 81.709463 285.143967 
L 81.709463 286.909676 
L 82.324628 286.909676 
L 82.324628 285.143967 
L 82.939792 285.143967 
L 82.939792 286.909676 
L 84.170121 286.909676 
L 84.170121 285.143967 
L 84.785286 285.143967 
L 84.785286 283.514222 
L 85.40045 283.514222 
L 85.40045 285.143967 
L 86.015615 285.143967 
L 86.015615 283.514222 
L 86.630779 283.514222 
L 86.630779 281.283083 
L 88.476273 281.283083 
L 88.476273 279.9164 
L 89.091437 279.9164 
L 89.091437 279.264772 
L 89.706602 279.264772 
L 89.706602 274.157866 
L 90.321766 274.157866 
L 90.321766 275.191059 
L 90.936931 275.191059 
L 90.936931 278.018751 
L 91.552095 278.018751 
L 91.552095 273.659579 
L 92.782424 273.659579 
L 92.782424 272.696857 
L 93.397589 272.696857 
L 93.397589 266.254804 
L 94.012753 266.254804 
L 94.012753 261.048945 
L 94.627918 261.048945 
L 94.627918 257.553177 
L 95.243082 257.553177 
L 95.243082 256.432479 
L 95.858247 256.432479 
L 95.858247 253.962548 
L 96.473411 253.962548 
L 96.473411 254.157722 
L 97.088576 254.157722 
L 97.088576 254.956921 
L 97.70374 254.956921 
L 97.70374 258.494498 
L 98.318905 258.494498 
L 98.318905 256.651924 
L 99.549234 256.651924 
L 99.549234 256.873667 
L 100.164398 256.873667 
L 100.164398 257.553177 
L 100.779563 257.553177 
L 100.779563 258.018607 
L 101.394727 258.018607 
L 101.394727 257.324242 
L 102.009892 257.324242 
L 102.009892 258.018607 
L 102.625056 258.018607 
L 102.625056 258.736515 
L 103.240221 258.736515 
L 103.240221 260.77918 
L 103.855385 260.77918 
L 103.855385 258.981329 
L 104.47055 258.981329 
L 104.47055 258.018607 
L 105.085714 258.018607 
L 105.085714 260.512809 
L 106.316043 260.512809 
L 106.316043 261.32219 
L 106.931208 261.32219 
L 106.931208 261.048945 
L 107.546372 261.048945 
L 107.546372 261.599008 
L 108.161537 261.599008 
L 108.161537 256.000296 
L 108.776701 256.000296 
L 108.776701 253.962548 
L 109.391866 253.962548 
L 109.391866 252.103791 
L 110.00703 252.103791 
L 110.00703 248.966951 
L 110.622195 248.966951 
L 110.622195 244.426556 
L 111.237359 244.426556 
L 111.237359 235.070201 
L 111.852524 235.070201 
L 111.852524 226.697339 
L 112.467688 226.697339 
L 112.467688 228.898716 
L 113.082853 228.898716 
L 113.082853 227.797651 
L 113.698017 227.797651 
L 113.698017 220.036703 
L 114.313182 220.036703 
L 114.313182 210.319963 
L 114.928346 210.319963 
L 114.928346 210.543789 
L 115.543511 210.543789 
L 115.543511 213.749864 
L 116.158675 213.749864 
L 116.158675 215.163139 
L 116.77384 215.163139 
L 116.77384 211.885485 
L 117.389004 211.885485 
L 117.389004 210.025161 
L 118.004169 210.025161 
L 118.004169 208.180555 
L 118.619333 208.180555 
L 118.619333 198.370682 
L 119.234498 198.370682 
L 119.234498 193.224616 
L 119.849662 193.224616 
L 119.849662 182.172408 
L 120.464827 182.172408 
L 120.464827 187.73419 
L 121.079991 187.73419 
L 121.079991 192.359718 
L 121.695156 192.359718 
L 121.695156 195.056157 
L 122.31032 195.056157 
L 122.31032 197.897605 
L 122.925485 197.897605 
L 122.925485 195.853042 
L 123.540649 195.853042 
L 123.540649 194.710074 
L 124.155814 194.710074 
L 124.155814 195.322529 
L 124.770978 195.322529 
L 124.770978 197.421409 
L 125.386143 197.421409 
L 125.386143 196.499985 
L 126.001307 196.499985 
L 126.001307 198.216468 
L 126.616472 198.216468 
L 126.616472 199.129871 
L 127.231636 199.129871 
L 127.231636 199.527351 
L 127.846801 199.527351 
L 127.846801 200.008308 
L 129.07713 199.993111 
L 129.07713 199.661519 
L 130.307459 199.75144 
L 130.307459 199.8116 
L 130.922623 199.8116 
L 130.922623 200.877199 
L 131.537788 200.877199 
L 131.537788 204.215573 
L 132.152952 204.215573 
L 132.152952 207.759894 
L 132.768117 207.759894 
L 132.768117 206.298885 
L 133.383281 206.298885 
L 133.383281 204.252692 
L 134.61361 204.271275 
L 134.61361 203.612325 
L 135.228775 203.612325 
L 135.228775 204.12306 
L 135.843939 204.12306 
L 135.843939 207.006212 
L 136.459104 207.006212 
L 136.459104 208.337666 
L 137.074268 208.337666 
L 137.074268 210.568805 
L 137.689433 210.568805 
L 137.689433 210.319963 
L 138.304597 210.319963 
L 138.304597 213.034865 
L 138.919762 213.034865 
L 138.919762 216.182343 
L 139.534926 216.182343 
L 139.534926 217.18456 
L 140.150091 217.18456 
L 140.150091 220.956684 
L 140.765255 220.956684 
L 140.765255 218.236576 
L 141.38042 218.236576 
L 141.38042 218.56265 
L 141.995584 218.56265 
L 141.995584 219.725853 
L 142.610749 219.725853 
L 142.610749 221.918455 
L 143.225913 221.918455 
L 143.225913 220.591917 
L 143.841078 220.591917 
L 143.841078 221.578949 
L 144.456242 221.578949 
L 144.456242 222.614247 
L 145.071407 222.614247 
L 145.071407 225.247055 
L 145.686571 225.247055 
L 145.686571 224.557535 
L 146.301736 224.557535 
L 146.301736 227.130628 
L 146.9169 227.130628 
L 146.9169 235.634934 
L 147.532065 235.634934 
L 147.532065 230.440608 
L 148.147229 230.440608 
L 148.147229 232.522992 
L 148.762394 232.522992 
L 148.762394 229.934883 
L 149.992723 229.997442 
L 149.992723 230.633413 
L 150.607887 230.633413 
L 150.607887 232.242508 
L 151.223052 232.242508 
L 151.223052 231.897048 
L 151.838216 231.897048 
L 151.838216 231.760427 
L 152.453381 231.760427 
L 152.453381 234.99074 
L 153.068545 234.99074 
L 153.068545 237.514705 
L 153.68371 237.514705 
L 153.68371 238.149586 
L 154.298874 238.149586 
L 154.298874 236.553968 
L 154.914039 236.553968 
L 154.914039 236.299341 
L 155.529203 236.299341 
L 155.529203 232.522992 
L 156.144368 232.522992 
L 156.144368 231.828627 
L 156.759532 231.828627 
L 156.759532 232.103647 
L 157.374697 232.103647 
L 157.374697 232.242508 
L 157.989861 232.242508 
L 157.989861 230.31304 
L 158.605026 230.31304 
L 158.605026 231.156309 
L 159.22019 231.156309 
L 159.22019 230.123117 
L 159.835355 230.123117 
L 159.835355 226.011623 
L 161.680848 225.959784 
L 161.680848 224.078414 
L 162.296013 224.078414 
L 162.296013 219.880708 
L 162.911177 219.880708 
L 162.911177 215.826431 
L 163.526342 215.826431 
L 163.526342 213.983858 
L 164.141506 213.983858 
L 164.141506 214.280034 
L 164.756671 214.280034 
L 164.756671 215.163139 
L 165.371835 215.163139 
L 165.371835 214.671361 
L 165.987 214.671361 
L 165.987 215.922906 
L 166.602164 215.922906 
L 166.602164 216.247702 
L 167.217329 216.247702 
L 167.217329 217.564258 
L 167.832493 217.564258 
L 167.832493 218.856769 
L 168.447658 218.856769 
L 168.447658 218.672466 
L 169.062822 218.672466 
L 169.062822 217.880066 
L 169.677987 217.880066 
L 169.677987 218.782855 
L 170.293151 218.782855 
L 170.293151 218.057571 
L 170.908316 218.057571 
L 170.908316 218.968125 
L 171.52348 218.968125 
L 171.52348 222.836455 
L 172.138645 222.836455 
L 172.138645 224.509132 
L 172.753809 224.509132 
L 172.753809 223.333678 
L 173.368974 223.333678 
L 173.368974 221.494917 
L 173.984138 221.494917 
L 173.984138 221.790502 
L 174.599303 221.790502 
L 174.599303 221.961279 
L 175.214467 221.961279 
L 175.214467 221.536891 
L 175.829632 221.536891 
L 175.829632 221.748022 
L 177.059961 221.790502 
L 177.059961 219.880708 
L 177.675125 219.880708 
L 177.675125 220.075882 
L 178.29029 220.075882 
L 178.29029 221.918455 
L 178.905454 221.918455 
L 178.905454 222.526012 
L 179.520619 222.526012 
L 179.520619 222.836455 
L 180.135783 222.836455 
L 180.135783 222.350639 
L 180.750948 222.350639 
L 180.750948 221.833067 
L 181.981277 221.875718 
L 181.981277 221.961279 
L 182.596441 221.961279 
L 182.596441 222.133445 
L 183.211606 222.133445 
L 183.211606 221.833067 
L 184.441935 221.748022 
L 184.441935 220.915843 
L 185.057099 220.915843 
L 185.057099 220.471711 
L 185.672264 220.471711 
L 185.672264 221.038604 
L 186.287428 221.038604 
L 186.287428 221.327845 
L 186.902593 221.327845 
L 186.902593 221.536891 
L 187.517757 221.536891 
L 187.517757 221.079683 
L 188.132922 221.079683 
L 188.132922 221.286282 
L 189.363251 221.286282 
L 189.363251 221.663317 
L 189.978415 221.663317 
L 189.978415 221.286282 
L 190.59358 221.286282 
L 190.59358 221.120842 
L 193.054238 221.038604 
L 193.054238 220.834396 
L 193.669402 220.834396 
L 193.669402 220.591917 
L 194.284567 220.591917 
L 194.284567 219.764461 
L 194.899731 219.764461 
L 194.899731 219.005375 
L 195.514896 219.005375 
L 195.514896 218.709199 
L 196.13006 218.709199 
L 196.13006 216.91263 
L 196.745225 216.91263 
L 196.745225 216.214997 
L 197.360389 216.214997 
L 197.360389 215.194258 
L 197.975554 215.194258 
L 197.975554 215.955163 
L 199.205883 215.890699 
L 199.205883 215.539616 
L 200.436212 215.476403 
L 200.436212 215.381936 
L 201.051376 215.381936 
L 201.051376 214.641001 
L 201.666541 214.641001 
L 201.666541 213.232644 
L 202.281705 213.232644 
L 202.281705 212.288854 
L 202.89687 212.288854 
L 202.89687 208.405357 
L 203.512034 208.405357 
L 203.512034 208.046809 
L 204.127199 208.046809 
L 204.127199 209.471345 
L 205.357528 209.376491 
L 205.357528 208.747101 
L 205.972692 208.747101 
L 205.972692 206.774775 
L 206.587857 206.774775 
L 206.587857 204.608603 
L 207.203021 204.608603 
L 207.203021 204.345774 
L 207.818186 204.345774 
L 207.818186 203.811504 
L 208.43335 203.811504 
L 208.43335 202.643596 
L 209.048515 202.643596 
L 209.048515 197.925143 
L 209.663679 197.925143 
L 209.663679 206.095265 
L 210.278844 206.095265 
L 210.278844 206.504481 
L 210.894008 206.504481 
L 210.894008 205.028326 
L 211.509173 205.028326 
L 211.509173 204.741251 
L 212.124337 204.741251 
L 212.124337 206.278434 
L 212.739502 206.278434 
L 212.739502 205.813448 
L 213.354666 205.813448 
L 213.354666 204.495563 
L 213.969831 204.495563 
L 213.969831 204.741251 
L 214.584995 204.741251 
L 214.584995 204.104605 
L 215.20016 204.104605 
L 215.20016 203.201816 
L 215.815324 203.201816 
L 215.815324 202.082941 
L 216.430489 202.082941 
L 216.430489 202.472128 
L 217.045653 202.472128 
L 217.045653 202.747148 
L 217.660818 202.747148 
L 217.660818 202.369909 
L 218.275982 202.369909 
L 218.275982 202.16694 
L 218.891147 202.16694 
L 218.891147 201.357769 
L 219.506311 201.357769 
L 219.506311 202.16694 
L 220.121476 202.16694 
L 220.121476 202.886009 
L 221.351805 202.990755 
L 221.351805 203.184147 
L 222.582134 203.272639 
L 222.582134 203.415001 
L 223.197298 203.415001 
L 223.197298 203.957548 
L 223.812463 203.957548 
L 223.812463 205.614422 
L 224.427627 205.614422 
L 224.427627 204.6843 
L 225.042792 204.6843 
L 225.042792 205.753544 
L 225.657956 205.753544 
L 225.657956 205.066899 
L 226.273121 205.066899 
L 226.273121 204.932201 
L 226.888285 204.932201 
L 226.888285 204.6843 
L 227.50345 204.6843 
L 227.50345 204.476781 
L 228.118614 204.476781 
L 228.118614 203.486543 
L 228.733779 203.486543 
L 228.733779 203.343701 
L 229.348943 203.343701 
L 229.348943 202.369909 
L 230.579272 202.302036 
L 230.579272 202.032701 
L 231.194437 202.032701 
L 231.194437 201.882691 
L 231.809601 201.882691 
L 231.809601 200.376333 
L 232.424766 200.376333 
L 232.424766 200.625285 
L 233.03993 200.625285 
L 233.03993 200.20686 
L 234.270259 200.283725 
L 234.270259 200.829736 
L 234.885423 200.829736 
L 234.885423 200.469347 
L 235.500588 200.469347 
L 235.500588 200.750867 
L 236.730917 200.656611 
L 236.730917 200.562772 
L 237.346081 200.562772 
L 237.346081 200.798153 
L 237.961246 200.798153 
L 237.961246 200.609639 
L 238.57641 200.609639 
L 238.57641 200.145569 
L 239.191575 200.145569 
L 239.191575 199.438375 
L 240.421904 199.394027 
L 240.421904 197.70584 
L 241.037068 197.70584 
L 241.037068 196.876866 
L 241.652233 196.876866 
L 241.652233 194.61559 
L 242.267397 194.61559 
L 242.267397 194.924218 
L 242.882562 194.924218 
L 242.882562 192.583357 
L 243.497726 192.583357 
L 243.497726 191.065326 
L 244.112891 191.065326 
L 244.112891 191.326022 
L 244.728055 191.326022 
L 244.728055 190.186923 
L 245.34322 190.186923 
L 245.34322 188.51473 
L 245.958384 188.51473 
L 245.958384 188.225181 
L 246.573549 188.225181 
L 246.573549 185.69035 
L 247.188713 185.69035 
L 247.188713 184.133175 
L 247.803878 184.133175 
L 247.803878 183.398992 
L 249.034207 183.482418 
L 249.034207 181.514828 
L 249.649371 181.514828 
L 249.649371 180.957279 
L 250.264536 180.957279 
L 250.264536 176.637686 
L 250.8797 176.637686 
L 250.8797 174.287388 
L 251.494865 174.287388 
L 251.494865 175.499115 
L 252.110029 175.499115 
L 252.110029 174.300929 
L 252.725194 174.300929 
L 252.725194 172.066178 
L 253.340358 172.066178 
L 253.340358 165.744826 
L 253.955523 165.744826 
L 253.955523 165.244365 
L 254.570687 165.244365 
L 254.570687 160.782675 
L 255.185852 160.782675 
L 255.185852 159.918219 
L 255.801016 159.918219 
L 255.801016 154.88109 
L 256.416181 154.88109 
L 256.416181 150.826786 
L 257.031345 150.826786 
L 257.031345 145.016796 
L 257.64651 145.016796 
L 257.64651 153.558894 
L 258.261674 153.558894 
L 258.261674 158.267287 
L 258.876839 158.267287 
L 258.876839 159.600115 
L 259.492003 159.600115 
L 259.492003 153.122601 
L 260.107168 153.122601 
L 260.107168 150.76726 
L 260.722332 150.76726 
L 260.722332 151.60078 
L 261.337497 151.60078 
L 261.337497 150.466255 
L 261.952661 150.466255 
L 261.952661 157.579754 
L 262.567826 157.579754 
L 262.567826 155.127961 
L 263.18299 155.127961 
L 263.18299 155.613688 
L 263.798155 155.613688 
L 263.798155 155.182807 
L 264.413319 155.182807 
L 264.413319 155.867412 
L 265.028484 155.867412 
L 265.028484 153.828484 
L 265.643648 153.828484 
L 265.643648 154.052903 
L 266.258813 154.052903 
L 266.258813 153.25589 
L 266.873977 153.25589 
L 266.873977 152.148809 
L 267.489142 152.148809 
L 267.489142 152.340018 
L 268.104306 152.340018 
L 268.104306 152.825733 
L 268.719471 152.825733 
L 268.719471 154.157288 
L 269.334635 154.157288 
L 269.334635 155.96216 
L 269.9498 155.96216 
L 269.9498 157.013402 
L 270.564964 157.013402 
L 270.564964 157.457111 
L 271.180129 157.457111 
L 271.180129 158.288474 
L 271.795293 158.288474 
L 271.795293 156.700379 
L 272.410458 156.700379 
L 272.410458 156.569026 
L 273.025622 156.569026 
L 273.025622 157.45915 
L 273.640787 157.45915 
L 273.640787 159.431648 
L 274.255951 159.431648 
L 274.255951 161.216334 
L 274.871116 161.216334 
L 274.871116 162.982042 
L 275.48628 162.982042 
L 275.48628 164.359311 
L 276.101445 164.359311 
L 276.101445 160.998394 
L 276.716609 160.998394 
L 276.716609 158.695104 
L 277.331774 158.695104 
L 277.331774 158.901386 
L 277.946938 158.901386 
L 277.946938 160.032996 
L 279.177267 160.035298 
L 279.177267 158.912298 
L 279.792432 158.912298 
L 279.792432 158.544383 
L 280.407596 158.544383 
L 280.407596 156.993453 
L 281.022761 156.993453 
L 281.022761 157.244181 
L 281.637925 157.244181 
L 281.637925 156.921791 
L 282.25309 156.921791 
L 282.25309 157.682502 
L 282.868254 157.682502 
L 282.868254 156.905899 
L 283.483419 156.905899 
L 283.483419 158.677825 
L 284.098583 158.677825 
L 284.098583 158.416042 
L 284.713748 158.416042 
L 284.713748 156.166357 
L 285.328912 156.166357 
L 285.328912 156.434598 
L 285.944077 156.434598 
L 285.944077 154.812622 
L 286.559241 154.812622 
L 286.559241 153.569069 
L 287.174406 153.569069 
L 287.174406 152.696743 
L 287.78957 152.696743 
L 287.78957 153.947302 
L 288.404735 153.947302 
L 288.404735 154.730036 
L 289.019899 154.730036 
L 289.019899 153.282649 
L 289.635064 153.282649 
L 289.635064 153.7035 
L 290.250228 153.7035 
L 290.250228 151.271033 
L 290.865393 151.271033 
L 290.865393 153.87662 
L 292.095722 153.943849 
L 292.095722 153.601323 
L 292.710886 153.601323 
L 292.710886 153.204141 
L 293.326051 153.204141 
L 293.326051 157.467304 
L 293.941215 157.467304 
L 293.941215 154.195692 
L 294.55638 154.195692 
L 294.55638 153.691554 
L 295.171544 153.691554 
L 295.171544 153.137554 
L 295.786709 153.137554 
L 295.786709 151.885551 
L 296.401873 151.885551 
L 296.401873 150.554343 
L 297.017038 150.554343 
L 297.017038 145.112154 
L 297.632202 145.112154 
L 297.632202 143.200856 
L 298.247367 143.200856 
L 298.247367 145.872004 
L 298.862531 145.872004 
L 298.862531 141.959292 
L 299.477696 141.959292 
L 299.477696 143.273752 
L 300.09286 143.273752 
L 300.09286 140.634009 
L 300.708025 140.634009 
L 300.708025 135.646367 
L 301.323189 135.646367 
L 301.323189 133.113232 
L 301.938354 133.113232 
L 301.938354 129.284652 
L 302.553518 129.284652 
L 302.553518 127.025727 
L 303.168683 127.025727 
L 303.168683 122.282958 
L 303.783847 122.282958 
L 303.783847 114.365304 
L 304.399012 114.365304 
L 304.399012 113.850595 
L 305.014176 113.850595 
L 305.014176 109.210697 
L 305.629341 109.210697 
L 305.629341 110.482012 
L 306.244505 110.482012 
L 306.244505 106.790174 
L 306.85967 106.790174 
L 306.85967 116.882193 
L 307.474834 116.882193 
L 307.474834 109.961825 
L 308.089999 109.961825 
L 308.089999 112.094247 
L 308.705163 112.094247 
L 308.705163 117.364929 
L 309.320328 117.364929 
L 309.320328 117.509667 
L 309.935492 117.509667 
L 309.935492 119.832332 
L 310.550657 119.832332 
L 310.550657 117.704618 
L 311.165821 117.704618 
L 311.165821 116.611247 
L 311.780986 116.611247 
L 311.780986 116.113648 
L 312.39615 116.113648 
L 312.39615 114.03782 
L 313.011315 114.03782 
L 313.011315 111.372344 
L 313.626479 111.372344 
L 313.626479 113.54808 
L 314.241644 113.54808 
L 314.241644 113.097742 
L 315.471973 113.153262 
L 315.471973 113.938126 
L 316.087137 113.938126 
L 316.087137 113.586557 
L 316.702302 113.586557 
L 316.702302 114.76813 
L 317.317466 114.76813 
L 317.317466 115.667943 
L 317.932631 115.667943 
L 317.932631 114.232537 
L 318.547795 114.232537 
L 318.547795 113.856315 
L 319.16296 113.856315 
L 319.16296 114.741542 
L 319.778124 114.741542 
L 319.778124 117.649178 
L 320.393289 117.649178 
L 320.393289 117.827223 
L 321.008453 117.827223 
L 321.008453 117.978641 
L 321.623618 117.978641 
L 321.623618 119.292714 
L 322.238782 119.292714 
L 322.238782 121.67243 
L 322.853947 121.67243 
L 322.853947 119.938114 
L 323.469111 119.938114 
L 323.469111 120.853097 
L 324.084276 120.853097 
L 324.084276 121.504589 
L 324.69944 121.504589 
L 324.69944 117.884389 
L 325.314605 117.884389 
L 325.314605 119.224585 
L 326.544934 119.313902 
L 326.544934 118.924486 
L 327.160098 118.924486 
L 327.160098 119.124301 
L 327.775263 119.124301 
L 327.775263 119.932916 
L 328.390427 119.932916 
L 328.390427 121.672054 
L 329.005592 121.672054 
L 329.005592 120.83212 
L 329.620756 120.83212 
L 329.620756 124.202394 
L 330.235921 124.202394 
L 330.235921 126.06702 
L 330.851085 126.06702 
L 330.851085 126.476906 
L 331.46625 126.476906 
L 331.46625 126.043426 
L 332.081414 126.043426 
L 332.081414 126.799793 
L 332.696579 126.799793 
L 332.696579 127.708359 
L 333.311743 127.708359 
L 333.311743 123.23308 
L 333.926908 123.23308 
L 333.926908 124.957019 
L 334.542072 124.957019 
L 334.542072 124.254169 
L 335.157237 124.254169 
L 335.157237 124.094584 
L 335.772401 124.094584 
L 335.772401 126.950309 
L 336.387566 126.950309 
L 336.387566 126.321272 
L 337.00273 126.321272 
L 337.00273 126.892476 
L 337.617895 126.892476 
L 337.617895 127.477537 
L 338.233059 127.477537 
L 338.233059 126.463696 
L 338.848224 126.463696 
L 338.848224 126.77489 
L 339.463388 126.77489 
L 339.463388 126.580511 
L 340.693717 126.563445 
L 340.693717 124.442384 
L 341.308882 124.442384 
L 341.308882 123.035201 
L 341.924046 123.035201 
L 341.924046 121.310689 
L 342.539211 121.310689 
L 342.539211 119.585841 
L 343.154375 119.585841 
L 343.154375 118.242177 
L 344.384704 118.258818 
L 344.384704 118.39918 
L 344.999869 118.39918 
L 344.999869 119.461122 
L 345.615033 119.461122 
L 345.615033 121.326225 
L 346.230198 121.326225 
L 346.230198 120.044078 
L 346.845362 120.044078 
L 346.845362 120.555936 
L 347.460527 120.555936 
L 347.460527 120.743377 
L 348.075691 120.743377 
L 348.075691 121.139811 
L 348.690856 121.139811 
L 348.690856 120.324915 
L 349.30602 120.324915 
L 349.30602 118.613601 
L 349.921185 118.613601 
L 349.921185 119.257783 
L 350.536349 119.257783 
L 350.536349 119.461122 
L 351.151514 119.461122 
L 351.151514 119.157342 
L 351.766678 119.157342 
L 351.766678 119.588909 
L 352.381843 119.588909 
L 352.381843 119.433017 
L 353.612172 119.39245 
L 353.612172 119.615515 
L 354.227336 119.615515 
L 354.227336 120.469763 
L 354.842501 120.469763 
L 354.842501 120.842606 
L 355.457665 120.842606 
L 355.457665 120.474738 
L 356.07283 120.474738 
L 356.07283 120.73438 
L 356.687994 120.73438 
L 356.687994 120.859974 
L 357.303159 120.859974 
L 357.303159 120.65393 
L 357.918323 120.65393 
L 357.918323 122.167905 
L 358.533488 122.167905 
L 358.533488 123.197478 
L 359.148652 123.197478 
L 359.148652 124.613264 
L 359.763817 124.613264 
L 359.763817 123.531149 
L 360.378981 123.531149 
L 360.378981 124.119902 
L 360.994146 124.119902 
L 360.994146 123.907331 
L 361.60931 123.907331 
L 361.60931 125.099814 
L 362.224475 125.099814 
L 362.224475 125.293948 
L 362.839639 125.293948 
L 362.839639 125.067998 
L 363.454804 125.067998 
L 363.454804 125.345333 
L 364.685133 125.288593 
L 364.685133 125.458371 
L 365.300297 125.458371 
L 365.300297 127.599101 
L 365.915462 127.599101 
L 365.915462 128.849993 
L 366.530626 128.849993 
L 366.530626 127.692859 
L 367.145791 127.692859 
L 367.145791 128.890151 
L 367.760955 128.890151 
L 367.760955 129.437152 
L 368.37612 129.437152 
L 368.37612 131.206731 
L 368.991284 131.206731 
L 368.991284 133.138426 
L 369.606449 133.138426 
L 369.606449 130.930634 
L 370.221613 130.930634 
L 370.221613 129.952452 
L 370.836778 129.952452 
L 370.836778 129.185738 
L 371.451942 129.185738 
L 371.451942 129.392695 
L 372.067107 129.392695 
L 372.067107 129.671272 
L 372.682271 129.671272 
L 372.682271 131.230936 
L 373.297436 131.230936 
L 373.297436 131.684097 
L 373.9126 131.684097 
L 373.9126 132.024773 
L 374.527765 132.024773 
L 374.527765 133.34955 
L 375.142929 133.34955 
L 375.142929 132.437827 
L 375.758094 132.437827 
L 375.758094 131.924435 
L 376.373258 131.924435 
L 376.373258 130.595514 
L 376.988423 130.595514 
L 376.988423 128.957957 
L 377.603587 128.957957 
L 377.603587 129.508369 
L 378.218752 129.508369 
L 378.218752 131.350596 
L 378.833916 131.350596 
L 378.833916 130.727196 
L 380.064245 130.742198 
L 380.064245 130.244179 
L 380.67941 130.244179 
L 380.67941 130.018173 
L 381.294574 130.018173 
L 381.294574 130.221076 
L 381.909739 130.221076 
L 381.909739 130.966773 
L 382.524903 130.966773 
L 382.524903 131.80089 
L 383.140068 131.80089 
L 383.140068 131.271734 
L 383.755232 131.271734 
L 383.755232 133.547638 
L 384.370397 133.547638 
L 384.370397 132.887185 
L 384.985561 132.887185 
L 384.985561 132.543147 
L 385.600726 132.543147 
L 385.600726 132.988351 
L 386.21589 132.988351 
L 386.21589 134.077455 
L 387.446219 133.982396 
L 387.446219 137.776523 
L 388.061384 137.776523 
L 388.061384 135.14517 
L 388.676548 135.14517 
L 388.676548 136.770822 
L 389.291713 136.770822 
L 389.291713 141.379085 
L 389.906877 141.379085 
L 389.906877 142.745259 
L 390.522042 142.745259 
L 390.522042 141.958311 
L 391.137206 141.958311 
L 391.137206 140.308678 
L 391.752371 140.308678 
L 391.752371 138.500896 
L 392.367535 138.500896 
L 392.367535 140.066126 
L 392.9827 140.066126 
L 392.9827 141.643041 
L 393.597864 141.643041 
L 393.597864 140.858049 
L 394.213029 140.858049 
L 394.213029 141.344773 
L 394.828193 141.344773 
L 394.828193 141.577465 
L 395.443358 141.577465 
L 395.443358 141.34763 
L 396.058522 141.34763 
L 396.058522 140.248005 
L 396.673687 140.248005 
L 396.673687 139.955246 
L 397.288851 139.955246 
L 397.288851 139.256105 
L 397.904016 139.256105 
L 397.904016 139.733447 
L 398.51918 139.733447 
L 398.51918 138.685719 
L 399.134345 138.685719 
L 399.134345 136.778497 
L 399.749509 136.778497 
L 399.749509 136.991426 
L 400.364674 136.991426 
L 400.364674 136.845385 
L 400.979838 136.845385 
L 400.979838 135.247035 
L 401.595003 135.247035 
L 401.595003 136.298086 
L 402.210167 136.298086 
L 402.210167 136.127683 
L 402.825332 136.127683 
L 402.825332 137.862797 
L 403.440496 137.862797 
L 403.440496 137.550816 
L 404.055661 137.550816 
L 404.055661 138.92902 
L 404.670825 138.92902 
L 404.670825 139.522684 
L 405.28599 139.522684 
L 405.28599 139.163117 
L 405.901154 139.163117 
L 405.901154 138.555089 
L 407.131483 138.535897 
L 407.131483 140.084064 
L 407.746648 140.084064 
L 407.746648 141.282961 
L 408.361812 141.282961 
L 408.361812 140.860842 
L 408.976977 140.860842 
L 408.976977 141.320977 
L 409.592141 141.320977 
L 409.592141 140.301425 
L 410.207306 140.301425 
L 410.207306 140.973772 
L 411.437635 141.076021 
L 411.437635 140.540284 
L 412.052799 140.540284 
L 412.052799 139.883128 
L 413.898293 139.806827 
L 413.898293 140.086756 
L 415.128622 140.027609 
L 415.128622 140.500897 
L 415.743786 140.500897 
L 415.743786 139.834299 
L 416.358951 139.834299 
L 416.358951 140.120885 
L 417.58928 140.04462 
L 417.58928 140.782796 
L 418.204444 140.782796 
L 418.204444 141.057222 
L 419.434773 141.095777 
L 419.434773 140.732776 
L 420.665102 140.666265 
L 420.665102 140.084064 
L 421.280267 140.084064 
L 421.280267 139.011598 
L 421.895431 139.011598 
L 421.895431 139.417215 
L 422.510596 139.417215 
L 422.510596 139.710513 
L 423.12576 139.710513 
L 423.12576 138.76145 
L 423.740925 138.76145 
L 423.740925 137.836152 
L 424.356089 137.836152 
L 424.356089 138.351545 
L 424.971254 138.351545 
L 424.971254 137.349559 
L 426.201583 137.312527 
L 426.201583 134.270909 
L 426.816747 134.270909 
L 426.816747 136.040027 
L 427.431912 136.040027 
L 427.431912 136.711819 
L 428.662241 136.710289 
L 428.662241 135.793866 
L 429.277405 135.793866 
L 429.277405 135.435671 
L 429.89257 135.435671 
L 429.89257 135.834206 
L 430.507734 135.834206 
L 430.507734 136.293585 
L 431.738063 136.388326 
L 431.738063 137.853104 
L 432.353228 137.853104 
L 432.353228 137.157228 
L 432.968392 137.157228 
L 432.968392 137.555593 
L 433.583557 137.555593 
L 433.583557 138.306945 
L 434.198721 138.306945 
L 434.198721 140.146068 
L 434.813886 140.146068 
L 434.813886 140.801352 
L 435.42905 140.801352 
L 435.42905 141.091071 
L 436.044215 141.091071 
L 436.044215 140.663498 
L 436.659379 140.663498 
L 436.659379 140.817138 
L 437.274544 140.817138 
L 437.274544 140.5623 
L 437.889708 140.5623 
L 437.889708 139.686723 
L 438.504873 139.686723 
L 438.504873 139.833412 
L 439.120037 139.833412 
L 439.120037 140.629405 
L 439.735202 140.629405 
L 439.735202 140.783724 
L 440.350366 140.783724 
L 440.350366 140.6064 
L 441.580695 140.590771 
L 441.580695 140.154169 
L 442.19586 140.154169 
L 442.19586 139.80417 
L 444.041353 139.8698 
L 444.041353 139.464219 
L 444.656518 139.464219 
L 444.656518 139.229373 
L 445.271682 139.229373 
L 445.271682 138.86539 
L 445.886847 138.86539 
L 445.886847 137.849874 
L 447.117176 137.742754 
L 447.117176 136.895497 
L 447.73234 136.895497 
L 447.73234 136.25311 
L 448.347505 136.25311 
L 448.347505 134.667368 
L 448.962669 134.667368 
L 448.962669 134.296154 
L 449.577834 134.296154 
L 449.577834 128.673885 
L 450.192998 128.673885 
L 450.192998 130.351576 
L 450.808163 130.351576 
L 450.808163 129.962464 
L 451.423327 129.962464 
L 451.423327 132.301938 
L 452.038492 132.301938 
L 452.038492 133.704399 
L 452.653656 133.704399 
L 452.653656 132.750929 
L 453.268821 132.750929 
L 453.268821 133.222623 
L 453.883985 133.222623 
L 453.883985 133.659965 
L 454.49915 133.659965 
L 454.49915 131.2599 
L 455.114314 131.2599 
L 455.114314 130.14967 
L 455.729479 130.14967 
L 455.729479 131.055633 
L 456.344643 131.055633 
L 456.344643 129.594038 
L 456.959808 129.594038 
L 456.959808 128.055312 
L 457.574972 128.055312 
L 457.574972 127.076156 
L 458.190137 127.076156 
L 458.190137 125.768723 
L 459.420466 125.813498 
L 459.420466 126.972036 
L 460.03563 126.972036 
L 460.03563 126.136102 
L 460.650795 126.136102 
L 460.650795 127.75593 
L 461.265959 127.75593 
L 461.265959 127.466655 
L 461.881124 127.466655 
L 461.881124 127.24382 
L 463.111453 127.259974 
L 463.111453 126.292715 
L 463.726617 126.292715 
L 463.726617 126.511857 
L 464.341782 126.511857 
L 464.341782 127.401481 
L 464.956946 127.401481 
L 464.956946 129.988072 
L 465.572111 129.988072 
L 465.572111 127.859956 
L 466.187275 127.859956 
L 466.187275 129.715219 
L 466.80244 129.715219 
L 466.80244 129.35698 
L 467.417604 129.35698 
L 467.417604 130.098653 
L 468.032769 130.098653 
L 468.032769 130.448131 
L 468.647933 130.448131 
L 468.647933 129.555799 
L 469.263098 129.555799 
L 469.263098 130.27747 
L 469.878262 130.27747 
L 469.878262 130.044966 
L 470.493427 130.044966 
L 470.493427 129.45344 
L 471.108591 129.45344 
L 471.108591 128.543408 
L 471.723756 128.543408 
L 471.723756 127.878604 
L 472.33892 127.878604 
L 472.33892 127.048987 
L 472.954085 127.048987 
L 472.954085 127.703858 
L 473.569249 127.703858 
L 473.569249 127.286435 
L 474.184414 127.286435 
L 474.184414 127.75192 
L 474.799578 127.75192 
L 474.799578 128.954774 
L 475.414743 128.954774 
L 475.414743 128.277135 
L 476.029907 128.277135 
L 476.029907 127.87205 
L 476.645072 127.87205 
L 476.645072 128.131716 
L 477.260236 128.131716 
L 477.260236 127.953866 
L 477.875401 127.953866 
L 477.875401 128.294611 
L 478.490565 128.294611 
L 478.490565 127.980702 
L 482.181552 127.880116 
L 482.181552 127.839814 
L 482.796717 127.839814 
L 482.796717 127.683365 
L 483.411881 127.683365 
L 483.411881 127.350764 
L 484.027046 127.350764 
L 484.027046 127.088296 
L 484.64221 127.088296 
L 484.64221 126.525097 
L 485.257375 126.525097 
L 485.257375 125.836378 
L 485.872539 125.836378 
L 485.872539 126.417527 
L 486.487704 126.417527 
L 486.487704 126.275879 
L 487.102868 126.275879 
L 487.102868 126.565815 
L 487.718033 126.565815 
L 487.718033 125.996318 
L 488.333197 125.996318 
L 488.333197 126.379912 
L 488.948362 126.379912 
L 488.948362 126.144462 
L 490.178691 126.229184 
L 490.178691 127.08344 
L 490.793855 127.08344 
L 490.793855 126.96624 
L 491.40902 126.96624 
L 491.40902 126.47785 
L 492.024184 126.47785 
L 492.024184 123.086207 
L 492.639349 123.086207 
L 492.639349 122.872964 
L 493.254513 122.872964 
L 493.254513 121.489668 
L 493.869678 121.489668 
L 493.869678 120.907083 
L 494.484842 120.907083 
L 494.484842 121.250872 
L 495.100007 121.250872 
L 495.100007 118.119379 
L 495.715171 118.119379 
L 495.715171 117.246185 
L 496.330336 117.246185 
L 496.330336 115.543952 
L 496.9455 115.543952 
L 496.9455 118.163632 
L 498.175829 118.146429 
L 498.175829 118.569373 
L 498.790994 118.569373 
L 498.790994 118.052697 
L 499.406158 118.052697 
L 499.406158 118.403693 
L 500.021323 118.403693 
L 500.021323 117.869297 
L 500.636487 117.869297 
L 500.636487 118.714106 
L 501.251652 118.714106 
L 501.251652 118.162357 
L 502.481981 118.204145 
L 502.481981 117.878728 
L 503.097145 117.878728 
L 503.097145 118.178297 
L 504.327474 118.258818 
L 504.327474 118.455329 
L 505.557803 118.477636 
L 505.557803 122.921984 
L 506.172968 122.921984 
L 506.172968 121.309949 
L 506.788132 121.309949 
L 506.788132 120.619902 
L 507.403297 120.619902 
L 507.403297 120.824168 
L 508.018461 120.824168 
L 508.018461 121.509814 
L 508.633626 121.509814 
L 508.633626 121.376609 
L 509.24879 121.376609 
L 509.24879 121.13321 
L 509.863955 121.13321 
L 509.863955 120.970301 
L 510.479119 120.970301 
L 510.479119 121.124045 
L 511.094284 121.124045 
L 511.094284 121.355107 
L 512.324613 121.373642 
L 512.324613 120.185608 
L 512.939777 120.185608 
L 512.939777 119.790305 
L 513.554942 119.790305 
L 513.554942 119.573915 
L 514.170106 119.573915 
L 514.170106 120.015537 
L 516.0156 120.021103 
L 516.0156 120.534538 
L 516.630764 120.534538 
L 516.630764 120.360592 
L 517.245929 120.360592 
L 517.245929 120.189115 
L 517.861093 120.189115 
L 517.861093 119.871334 
L 518.476258 119.871334 
L 518.476258 120.072657 
L 519.091422 120.072657 
L 519.091422 119.810619 
L 520.321751 119.809586 
L 520.321751 119.156674 
L 520.936916 119.156674 
L 520.936916 118.991986 
L 521.55208 118.991986 
L 521.55208 119.368146 
L 522.167245 119.368146 
L 522.167245 118.523941 
L 523.397574 118.582371 
L 523.397574 117.490826 
L 524.012738 117.490826 
L 524.012738 117.150877 
L 524.627903 117.150877 
L 524.627903 117.559475 
L 525.243067 117.559475 
L 525.243067 116.761046 
L 525.858232 116.761046 
L 525.858232 116.419606 
L 526.473396 116.419606 
L 526.473396 116.991368 
L 527.088561 116.991368 
L 527.088561 116.708317 
L 527.703725 116.708317 
L 527.703725 115.62804 
L 528.31889 115.62804 
L 528.31889 115.970356 
L 529.549219 116.008607 
L 529.549219 116.249763 
L 530.164383 116.249763 
L 530.164383 115.824887 
L 530.779548 115.824887 
L 530.779548 115.236143 
L 532.009877 115.346897 
L 532.009877 115.067236 
L 532.625041 115.067236 
L 532.625041 114.823313 
L 533.85537 114.880824 
L 533.85537 114.53459 
L 534.470535 114.53459 
L 534.470535 113.326532 
L 535.085699 113.326532 
L 535.085699 111.913171 
L 535.700864 111.913171 
L 535.700864 111.03623 
L 536.316028 111.03623 
L 536.316028 110.413164 
L 536.931193 110.413164 
L 536.931193 109.224901 
L 537.546357 109.224901 
L 537.546357 109.514609 
L 538.161522 109.514609 
L 538.161522 111.492942 
L 538.776686 111.492942 
L 538.776686 114.743711 
L 539.391851 114.743711 
L 539.391851 113.721265 
L 540.007015 113.721265 
L 540.007015 111.58361 
L 540.62218 111.58361 
L 540.62218 111.841172 
L 541.237344 111.841172 
L 541.237344 111.273596 
L 541.852509 111.273596 
L 541.852509 111.38715 
L 543.082838 111.453441 
L 543.082838 109.861242 
L 543.698002 109.861242 
L 543.698002 108.79774 
L 544.313167 108.79774 
L 544.313167 108.416805 
L 544.928331 108.416805 
L 544.928331 109.558293 
L 546.15866 109.4818 
L 546.15866 108.774612 
L 546.773825 108.774612 
L 546.773825 108.456466 
L 547.388989 108.456466 
L 547.388989 106.918899 
L 548.004154 106.918899 
L 548.004154 106.540752 
L 548.619318 106.540752 
L 548.619318 105.807688 
L 549.234483 105.807688 
L 549.234483 104.164137 
L 549.849647 104.164137 
L 549.849647 104.287902 
L 550.464812 104.287902 
L 550.464812 105.786361 
L 551.079976 105.786361 
L 551.079976 105.163395 
L 551.695141 105.163395 
L 551.695141 104.663599 
L 552.310305 104.663599 
L 552.310305 110.202698 
L 552.92547 110.202698 
L 552.92547 107.240088 
L 553.540634 107.240088 
L 553.540634 111.091158 
L 554.155799 111.091158 
L 554.155799 108.655484 
L 554.770963 108.655484 
L 554.770963 108.784024 
L 555.386128 108.784024 
L 555.386128 107.877647 
L 556.001292 107.877647 
L 556.001292 106.853038 
L 556.616457 106.853038 
L 556.616457 105.930024 
L 557.231621 105.930024 
L 557.231621 105.312085 
L 557.846786 105.312085 
L 557.846786 106.175933 
L 558.46195 106.175933 
L 558.46195 106.05667 
L 559.077115 106.05667 
L 559.077115 105.009577 
L 560.307444 104.937606 
L 560.307444 104.14736 
L 560.922608 104.14736 
L 560.922608 103.420467 
L 561.537773 103.420467 
L 561.537773 101.674689 
L 562.152937 101.674689 
L 562.152937 100.657909 
L 562.768102 100.657909 
L 562.768102 98.888547 
L 563.383266 98.888547 
L 563.383266 96.721633 
L 563.998431 96.721633 
L 563.998431 97.296695 
L 565.22876 97.249398 
L 565.22876 94.735554 
L 565.843924 94.735554 
L 565.843924 92.275347 
L 566.459089 92.275347 
L 566.459089 92.055933 
L 567.689418 91.961401 
L 567.689418 90.880626 
L 568.304582 90.880626 
L 568.304582 89.854938 
L 568.919747 89.854938 
L 568.919747 88.607377 
L 569.534911 88.607377 
L 569.534911 86.970635 
L 570.150076 86.970635 
L 570.150076 88.426854 
L 570.76524 88.426854 
L 570.76524 90.291294 
L 571.380405 90.291294 
L 571.380405 89.273059 
L 571.995569 89.273059 
L 571.995569 88.368399 
L 572.610734 88.368399 
L 572.610734 90.086418 
L 573.225898 90.086418 
L 573.225898 89.615446 
L 573.841063 89.615446 
L 573.841063 90.781302 
L 574.456227 90.781302 
L 574.456227 89.282101 
L 575.071392 89.282101 
L 575.071392 90.079394 
L 575.686556 90.079394 
L 575.686556 91.621353 
L 576.916885 91.517867 
L 576.916885 95.793343 
L 577.53205 95.793343 
L 577.53205 92.192075 
L 578.147214 92.192075 
L 578.147214 87.511673 
L 578.762379 87.511673 
L 578.762379 89.565839 
L 579.377543 89.565839 
L 579.377543 87.819 
L 579.992708 87.819 
L 579.992708 87.233286 
L 580.607872 87.233286 
L 580.607872 87.779495 
L 581.223037 87.779495 
L 581.223037 84.808646 
L 581.838201 84.808646 
L 581.838201 83.967496 
L 582.453366 83.967496 
L 582.453366 80.858457 
L 583.06853 80.858457 
L 583.06853 79.218737 
L 583.683695 79.218737 
L 583.683695 79.603487 
L 584.298859 79.603487 
L 584.298859 80.223456 
L 584.914024 80.223456 
L 584.914024 78.463335 
L 586.144353 78.427775 
L 586.144353 77.271688 
L 587.374682 77.257598 
L 587.374682 78.204604 
L 587.989846 78.204604 
L 587.989846 78.558926 
L 588.605011 78.558926 
L 588.605011 79.124615 
L 589.220175 79.124615 
L 589.220175 84.767589 
L 589.83534 84.767589 
L 589.83534 81.924866 
L 590.450504 81.924866 
L 590.450504 80.716827 
L 591.065669 80.716827 
L 591.065669 81.361981 
L 591.680833 81.361981 
L 591.680833 80.790251 
L 592.295998 80.790251 
L 592.295998 79.298425 
L 592.911162 79.298425 
L 592.911162 78.160945 
L 593.526327 78.160945 
L 593.526327 78.527913 
L 594.141491 78.527913 
L 594.141491 77.165025 
L 594.756656 77.165025 
L 594.756656 76.19223 
L 595.37182 76.19223 
L 595.37182 72.187699 
L 595.986985 72.187699 
L 595.986985 73.045683 
L 596.602149 73.045683 
L 596.602149 71.612384 
L 597.217314 71.612384 
L 597.217314 71.918265 
L 598.447643 71.956952 
L 598.447643 71.088145 
L 599.062807 71.088145 
L 599.062807 69.064059 
L 599.677972 69.064059 
L 599.677972 67.220928 
L 600.293136 67.220928 
L 600.293136 67.914513 
L 600.908301 67.914513 
L 600.908301 69.645149 
L 601.523465 69.645149 
L 601.523465 69.890231 
L 602.13863 69.890231 
L 602.13863 65.822697 
L 602.753794 65.822697 
L 602.753794 65.341244 
L 603.368959 65.341244 
L 603.368959 64.854934 
L 603.984123 64.854934 
L 603.984123 63.529349 
L 604.599288 63.529349 
L 604.599288 60.919332 
L 605.214452 60.919332 
L 605.214452 58.961311 
L 605.829617 58.961311 
L 605.829617 57.620163 
L 606.444781 57.620163 
L 606.444781 49.684405 
L 607.059946 49.684405 
L 607.059946 52.063763 
L 607.67511 52.063763 
L 607.67511 50.462867 
L 608.290275 50.462867 
L 608.290275 46.845371 
L 608.905439 46.845371 
L 608.905439 49.038676 
L 609.520604 49.038676 
L 609.520604 53.962512 
L 610.750933 54.017412 
L 610.750933 53.30063 
L 611.366097 53.30063 
L 611.366097 53.932728 
L 611.981262 53.932728 
L 611.981262 52.105556 
L 612.596426 52.105556 
L 612.596426 49.317021 
L 613.211591 49.317021 
L 613.211591 52.970379 
L 613.826755 52.970379 
L 613.826755 53.940113 
L 614.44192 53.940113 
L 614.44192 54.307265 
L 615.057084 54.307265 
L 615.057084 58.394893 
L 615.672249 58.394893 
L 615.672249 57.762777 
L 616.287413 57.762777 
L 616.287413 57.98723 
L 617.517742 57.914229 
L 617.517742 60.573077 
L 618.132907 60.573077 
L 618.132907 63.327626 
L 618.748071 63.327626 
L 618.748071 68.526846 
L 619.363236 68.526846 
L 619.363236 64.833452 
L 619.9784 64.833452 
L 619.9784 65.293157 
L 620.593565 65.293157 
L 620.593565 61.896616 
L 621.208729 61.896616 
L 621.208729 58.564204 
L 621.823894 58.564204 
L 621.823894 58.260473 
L 622.439058 58.260473 
L 622.439058 60.387429 
L 623.054223 60.387429 
L 623.054223 60.081191 
L 623.669387 60.081191 
L 623.669387 58.861814 
L 624.284552 58.861814 
L 624.284552 57.756506 
L 624.899716 57.756506 
L 624.899716 60.916215 
L 625.514881 60.916215 
L 625.514881 63.508663 
L 626.130045 63.508663 
L 626.130045 62.620026 
L 626.74521 62.620026 
L 626.74521 64.69825 
L 627.360374 64.69825 
L 627.360374 63.927084 
L 627.975539 63.927084 
L 627.975539 63.634491 
L 628.590703 63.634491 
L 628.590703 64.293641 
L 629.205868 64.293641 
L 629.205868 65.603589 
L 629.821032 65.603589 
L 629.821032 68.489879 
L 630.436197 68.489879 
L 630.436197 67.047738 
L 631.051361 67.047738 
L 631.051361 69.43518 
L 631.666526 69.43518 
L 631.666526 68.962592 
L 632.28169 68.962592 
L 632.28169 65.627974 
L 632.896855 65.627974 
L 632.896855 64.519827 
L 633.512019 64.519827 
L 633.512019 65.011724 
L 634.127184 65.011724 
L 634.127184 63.142171 
L 634.742348 63.142171 
L 634.742348 61.483766 
L 635.357513 61.483766 
L 635.357513 63.147032 
L 635.972677 63.147032 
L 635.972677 62.421975 
L 636.587842 62.421975 
L 636.587842 61.275967 
L 637.203006 61.275967 
L 637.203006 61.542323 
L 637.818171 61.542323 
L 637.818171 62.260281 
L 638.433335 62.260281 
L 638.433335 64.279725 
L 639.663664 64.260868 
L 639.663664 64.848867 
L 640.278829 64.848867 
L 640.278829 64.447752 
L 640.893993 64.447752 
L 640.893993 66.623444 
L 641.509158 66.623444 
L 641.509158 67.282627 
L 642.124322 67.282627 
L 642.124322 67.161416 
L 642.739487 67.161416 
L 642.739487 66.455413 
L 644.58498 66.51539 
L 644.58498 68.668432 
L 645.200145 68.668432 
L 645.200145 69.426468 
L 645.815309 69.426468 
L 645.815309 70.046818 
L 646.430474 70.046818 
L 646.430474 69.036321 
L 647.045638 69.036321 
L 647.045638 70.971242 
L 647.660803 70.971242 
L 647.660803 71.223262 
L 648.275967 71.223262 
L 648.275967 70.790742 
L 648.891132 70.790742 
L 648.891132 69.461496 
L 649.506296 69.461496 
L 649.506296 69.68939 
L 650.121461 69.68939 
L 650.121461 69.151869 
L 650.736625 69.151869 
L 650.736625 70.187269 
L 651.35179 70.187269 
L 651.35179 70.703946 
L 651.966954 70.703946 
L 651.966954 67.348872 
L 653.197283 67.310237 
L 653.197283 66.240342 
L 653.812448 66.240342 
L 653.812448 65.632374 
L 654.427612 65.632374 
L 654.427612 64.89562 
L 655.042777 64.89562 
L 655.042777 66.537202 
L 655.657941 66.537202 
L 655.657941 68.266043 
L 656.273106 68.266043 
L 656.273106 69.170174 
L 656.88827 69.170174 
L 656.88827 71.079623 
L 657.503435 71.079623 
L 657.503435 70.692799 
L 658.118599 70.692799 
L 658.118599 70.488466 
L 658.733764 70.488466 
L 658.733764 69.913234 
L 659.348928 69.913234 
L 659.348928 70.348642 
L 659.964093 70.348642 
L 659.964093 69.107101 
L 660.579257 69.107101 
L 660.579257 68.064912 
L 661.194422 68.064912 
L 661.194422 68.243403 
L 661.809586 68.243403 
L 661.809586 67.513037 
L 662.424751 67.513037 
L 662.424751 69.865591 
L 663.039915 69.865591 
L 663.039915 70.730598 
L 663.65508 70.730598 
L 663.65508 70.443931 
L 664.270244 70.443931 
L 664.270244 69.796649 
L 664.885409 69.796649 
L 664.885409 70.38927 
L 665.500573 70.38927 
L 665.500573 69.051078 
L 666.115738 69.051078 
L 666.115738 69.599328 
L 666.730902 69.599328 
L 666.730902 69.271756 
L 667.346067 69.271756 
L 667.346067 69.510832 
L 667.961231 69.510832 
L 667.961231 69.92254 
L 668.576396 69.92254 
L 668.576396 69.63097 
L 669.19156 69.63097 
L 669.19156 69.460186 
L 669.806725 69.460186 
L 669.806725 70.710182 
L 670.421889 70.710182 
L 670.421889 69.548823 
L 671.037053 69.548823 
L 671.037053 69.838183 
L 672.882547 69.902822 
L 672.882547 70.009333 
L 673.497711 70.009333 
L 673.497711 70.525868 
L 674.112876 70.525868 
L 674.112876 70.22951 
L 674.72804 70.22951 
L 674.72804 70.073215 
L 676.573534 70.169583 
L 676.573534 72.440806 
L 677.188698 72.440806 
L 677.188698 73.129955 
L 677.803863 73.129955 
L 677.803863 77.69427 
L 678.419027 77.69427 
L 678.419027 78.359901 
L 679.034192 78.359901 
L 679.034192 81.273987 
L 679.649356 81.273987 
L 679.649356 78.724028 
L 680.264521 78.724028 
L 680.264521 79.419135 
L 680.879685 79.419135 
L 680.879685 81.545747 
L 681.49485 81.545747 
L 681.49485 83.260635 
L 682.110014 83.260635 
L 682.110014 83.546943 
L 682.725179 83.546943 
L 682.725179 84.597165 
L 683.340343 84.597165 
L 683.340343 82.639036 
L 683.955508 82.639036 
L 683.955508 79.446822 
L 684.570672 79.446822 
L 684.570672 80.176283 
L 685.185837 80.176283 
L 685.185837 80.969926 
L 685.801001 80.969926 
L 685.801001 81.402718 
L 686.416166 81.402718 
L 686.416166 80.927761 
L 687.646495 80.923698 
L 687.646495 79.980648 
L 688.261659 79.980648 
L 688.261659 82.111513 
L 688.876824 82.111513 
L 688.876824 82.785898 
L 689.491988 82.785898 
L 689.491988 82.256153 
L 690.107153 82.256153 
L 690.107153 81.778863 
L 690.722317 81.778863 
L 690.722317 82.456378 
L 691.952646 82.512887 
L 691.952646 83.291807 
L 693.79814 83.24617 
L 693.79814 83.556765 
L 694.413304 83.556765 
L 694.413304 82.006481 
L 695.028469 82.006481 
L 695.028469 82.191986 
L 695.643633 82.191986 
L 695.643633 82.333656 
L 696.258798 82.333656 
L 696.258798 80.628272 
L 696.873962 80.628272 
L 696.873962 80.444535 
L 697.489127 80.444535 
L 697.489127 81.422216 
L 698.104291 81.422216 
L 698.104291 81.05252 
L 699.33462 81.062411 
L 699.33462 80.838049 
L 701.795278 80.767292 
L 701.795278 80.177608 
L 702.410443 80.177608 
L 702.410443 79.854197 
L 703.025607 79.854197 
L 703.025607 80.087686 
L 703.640772 80.087686 
L 703.640772 80.429188 
L 704.255936 80.429188 
L 704.255936 79.547637 
L 704.871101 79.547637 
L 704.871101 79.358209 
L 705.486265 79.358209 
L 705.486265 75.804653 
L 706.10143 75.804653 
L 706.10143 74.638061 
L 706.716594 74.638061 
L 706.716594 74.150804 
L 707.331759 74.150804 
L 707.331759 75.153428 
L 707.946923 75.153428 
L 707.946923 74.608455 
L 708.562088 74.608455 
L 708.562088 74.283376 
L 709.177252 74.283376 
L 709.177252 73.88525 
L 709.792417 73.88525 
L 709.792417 74.612694 
L 710.407581 74.612694 
L 710.407581 74.186286 
L 711.63791 74.085146 
L 711.63791 72.388232 
L 712.868239 72.444668 
L 712.868239 70.370481 
L 713.483404 70.370481 
L 713.483404 65.945934 
L 714.098568 65.945934 
L 714.098568 65.776487 
L 714.713733 65.776487 
L 714.713733 64.965826 
L 715.328897 64.965826 
L 715.328897 66.486519 
L 715.944062 66.486519 
L 715.944062 65.284156 
L 716.559226 65.284156 
L 716.559226 63.647819 
L 717.174391 63.647819 
L 717.174391 64.05501 
L 717.789555 64.05501 
L 717.789555 65.118288 
L 718.40472 65.118288 
L 718.40472 65.999816 
L 719.019884 65.999816 
L 719.019884 66.445794 
L 719.635049 66.445794 
L 719.635049 65.019237 
L 720.250213 65.019237 
L 720.250213 63.311509 
L 720.865378 63.311509 
L 720.865378 62.799755 
L 721.480542 62.799755 
L 721.480542 60.308296 
L 722.095707 60.308296 
L 722.095707 58.695132 
L 722.710871 58.695132 
L 722.710871 58.474576 
L 723.326036 58.474576 
L 723.326036 59.239811 
L 723.9412 59.239811 
L 723.9412 56.913132 
L 724.556365 56.913132 
L 724.556365 58.286738 
L 725.171529 58.286738 
L 725.171529 55.875259 
L 725.786694 55.875259 
L 725.786694 57.23501 
L 726.401858 57.23501 
L 726.401858 58.973733 
L 727.017023 58.973733 
L 727.017023 59.436296 
L 728.247352 59.538357 
L 728.247352 61.235145 
L 728.862516 61.235145 
L 728.862516 61.891363 
L 729.477681 61.891363 
L 729.477681 61.635554 
L 730.092845 61.635554 
L 730.092845 59.654402 
L 730.70801 59.654402 
L 730.70801 57.263697 
L 731.323174 57.263697 
L 731.323174 56.892558 
L 731.938339 56.892558 
L 731.938339 57.66475 
L 732.553503 57.66475 
L 732.553503 60.711222 
L 733.168668 60.711222 
L 733.168668 60.297637 
L 733.783832 60.297637 
L 733.783832 59.194835 
L 734.398997 59.194835 
L 734.398997 59.904732 
L 735.629326 59.997591 
L 735.629326 61.867772 
L 736.24449 61.867772 
L 736.24449 61.240303 
L 736.859655 61.240303 
L 736.859655 59.544858 
L 737.474819 59.544858 
L 737.474819 59.739724 
L 738.089984 59.739724 
L 738.089984 60.534236 
L 738.705148 60.534236 
L 738.705148 59.990193 
L 739.320313 59.990193 
L 739.320313 60.191943 
L 740.550642 60.170809 
L 740.550642 60.677234 
L 741.165806 60.677234 
L 741.165806 64.358159 
L 741.780971 64.358159 
L 741.780971 64.885087 
L 742.396135 64.885087 
L 742.396135 64.634469 
L 743.0113 64.634469 
L 743.0113 65.064835 
L 743.626464 65.064835 
L 743.626464 64.918532 
L 744.241629 64.918532 
L 744.241629 63.973249 
L 744.856793 63.973249 
L 744.856793 64.73434 
L 745.471958 64.73434 
L 745.471958 65.465804 
L 746.087122 65.465804 
L 746.087122 65.578487 
L 746.702287 65.578487 
L 746.702287 65.401731 
L 747.317451 65.401731 
L 747.317451 63.777142 
L 747.932616 63.777142 
L 747.932616 62.469678 
L 748.54778 62.469678 
L 748.54778 62.632892 
L 749.162945 62.632892 
L 749.162945 62.498641 
L 749.778109 62.498641 
L 749.778109 62.185424 
L 750.393274 62.185424 
L 750.393274 63.431504 
L 751.623603 63.450479 
L 751.623603 64.294317 
L 752.238767 64.294317 
L 752.238767 65.011646 
L 752.853932 65.011646 
L 752.853932 66.511136 
L 753.469096 66.511136 
L 753.469096 68.58214 
L 754.084261 68.58214 
L 754.084261 66.771953 
L 755.31459 66.676782 
L 755.31459 67.420868 
L 755.929754 67.420868 
L 755.929754 66.706307 
L 756.544919 66.706307 
L 756.544919 67.303223 
L 757.160083 67.303223 
L 757.160083 67.735492 
L 757.775248 67.735492 
L 757.775248 67.966563 
L 758.390412 67.966563 
L 758.390412 67.457117 
L 759.005577 67.457117 
L 759.005577 67.871306 
L 759.620741 67.871306 
L 759.620741 67.555022 
L 761.466235 67.646018 
L 761.466235 68.469224 
L 762.081399 68.469224 
L 762.081399 67.262425 
L 762.696564 67.262425 
L 762.696564 65.359851 
L 763.926893 65.415639 
L 763.926893 63.352302 
L 764.542057 63.352302 
L 764.542057 63.214045 
L 765.157222 63.214045 
L 765.157222 63.875889 
L 765.772386 63.875889 
L 765.772386 64.469251 
L 766.387551 64.469251 
L 766.387551 63.969501 
L 767.002715 63.969501 
L 767.002715 62.329903 
L 767.61788 62.329903 
L 767.61788 62.106811 
L 768.233044 62.106811 
L 768.233044 62.60014 
L 768.848209 62.60014 
L 768.848209 61.158637 
L 770.078538 61.056861 
L 770.078538 60.239855 
L 770.693702 60.239855 
L 770.693702 60.879511 
L 771.308867 60.879511 
L 771.308867 61.601153 
L 771.924031 61.601153 
L 771.924031 61.458523 
L 772.539196 61.458523 
L 772.539196 62.263056 
L 773.15436 62.263056 
L 773.15436 63.666114 
L 773.769525 63.666114 
L 773.769525 63.184373 
L 774.384689 63.184373 
L 774.384689 62.820273 
L 774.999854 62.820273 
L 774.999854 65.368463 
L 775.615018 65.368463 
L 775.615018 65.640804 
L 776.230183 65.640804 
L 776.230183 74.732658 
L 776.845347 74.732658 
L 776.845347 73.9625 
L 777.460512 73.9625 
L 777.460512 70.779992 
L 778.075676 70.779992 
L 778.075676 69.862432 
L 778.690841 69.862432 
L 778.690841 69.027177 
L 779.306005 69.027177 
L 779.306005 71.972814 
L 779.92117 71.972814 
L 779.92117 69.377201 
L 780.536334 69.377201 
L 780.536334 68.691902 
L 781.151499 68.691902 
L 781.151499 67.687269 
L 781.766663 67.687269 
L 781.766663 68.687126 
L 782.996992 68.735182 
L 782.996992 67.963198 
L 784.842486 67.907534 
L 784.842486 66.69977 
L 785.45765 66.69977 
L 785.45765 66.102918 
L 786.072815 66.102918 
L 786.072815 63.394877 
L 786.687979 63.394877 
L 786.687979 63.248358 
L 787.303144 63.248358 
L 787.303144 60.741855 
L 787.918308 60.741855 
L 787.918308 63.564008 
L 788.533473 63.564008 
L 788.533473 62.270382 
L 789.148637 62.270382 
L 789.148637 62.089634 
L 789.763802 62.089634 
L 789.763802 61.205759 
L 790.378966 61.205759 
L 790.378966 62.588309 
L 790.994131 62.588309 
L 790.994131 63.215663 
L 791.609295 63.215663 
L 791.609295 61.67959 
L 792.22446 61.67959 
L 792.22446 61.943171 
L 792.839624 61.943171 
L 792.839624 61.48392 
L 794.069953 61.456771 
L 794.069953 61.228688 
L 794.685118 61.228688 
L 794.685118 61.922724 
L 795.915447 61.99733 
L 795.915447 62.10243 
L 796.530611 62.10243 
L 796.530611 62.318565 
L 797.76094 62.337275 
L 797.76094 62.968295 
L 798.376105 62.968295 
L 798.376105 62.665348 
L 798.991269 62.665348 
L 798.991269 62.808529 
L 799.606434 62.808529 
L 799.606434 62.172803 
L 800.221598 62.172803 
L 800.221598 62.425436 
L 800.836763 62.425436 
L 800.836763 62.293218 
L 801.451927 62.293218 
L 801.451927 62.527759 
L 802.682256 62.571107 
L 802.682256 62.073936 
L 803.297421 62.073936 
L 803.297421 61.719305 
L 803.912585 61.719305 
L 803.912585 58.647327 
L 804.52775 58.647327 
L 804.52775 58.50869 
L 805.758079 58.579606 
L 805.758079 57.331549 
L 806.988408 57.300358 
L 806.988408 57.986487 
L 807.603572 57.986487 
L 807.603572 57.28816 
L 808.218737 57.28816 
L 808.218737 56.374139 
L 808.833901 56.374139 
L 808.833901 57.124341 
L 809.449066 57.124341 
L 809.449066 57.507559 
L 810.06423 57.507559 
L 810.06423 57.847645 
L 811.294559 57.821309 
L 811.294559 57.022096 
L 811.909724 57.022096 
L 811.909724 59.778772 
L 812.524888 59.778772 
L 812.524888 59.982348 
L 814.370382 60.057995 
L 814.370382 58.828306 
L 814.985546 58.828306 
L 814.985546 58.57261 
L 815.600711 58.57261 
L 815.600711 59.649033 
L 816.215875 59.649033 
L 816.215875 59.328525 
L 817.446204 59.329535 
L 817.446204 59.474788 
L 819.291698 59.372219 
L 819.291698 58.153993 
L 819.906862 58.153993 
L 819.906862 57.920028 
L 820.522027 57.920028 
L 820.522027 58.107393 
L 821.137191 58.107393 
L 821.137191 57.317352 
L 821.752356 57.317352 
L 821.752356 55.207106 
L 822.982685 55.131406 
L 822.982685 54.72561 
L 823.597849 54.72561 
L 823.597849 53.910759 
L 824.213014 53.910759 
L 824.213014 53.586661 
L 824.828178 53.586661 
L 824.828178 51.336076 
L 825.443343 51.336076 
L 825.443343 51.702085 
L 826.058507 51.702085 
L 826.058507 50.406575 
L 826.673672 50.406575 
L 826.673672 50.83638 
L 827.288836 50.83638 
L 827.288836 48.538448 
L 827.904001 48.538448 
L 827.904001 47.492368 
L 828.519165 47.492368 
L 828.519165 46.963643 
L 829.13433 46.963643 
L 829.13433 49.338114 
L 829.749494 49.338114 
L 829.749494 46.37845 
L 830.364659 46.37845 
L 830.364659 46.654418 
L 831.594988 46.738267 
L 831.594988 47.657896 
L 832.210152 47.657896 
L 832.210152 47.37527 
L 832.825317 47.37527 
L 832.825317 46.670523 
L 833.440481 46.670523 
L 833.440481 42.970844 
L 834.055646 42.970844 
L 834.055646 43.344868 
L 834.67081 43.344868 
L 834.67081 42.460471 
L 835.285975 42.460471 
L 835.285975 40.313082 
L 835.901139 40.313082 
L 835.901139 38.305518 
L 836.516304 38.305518 
L 836.516304 35.986994 
L 837.131468 35.986994 
L 837.131468 34.803098 
L 837.746633 34.803098 
L 837.746633 31.038712 
L 838.361797 31.038712 
L 838.361797 33.891131 
L 838.976962 33.891131 
L 838.976962 31.840871 
L 839.592126 31.840871 
L 839.592126 33.743855 
L 840.207291 33.743855 
L 840.207291 33.894682 
L 840.822455 33.894682 
L 840.822455 36.050046 
L 841.43762 36.050046 
L 841.43762 35.760409 
L 842.052784 35.760409 
L 842.052784 34.637314 
L 842.667949 34.637314 
L 842.667949 35.131403 
L 843.283113 35.131403 
L 843.283113 33.040342 
L 843.898278 33.040342 
L 843.898278 31.965819 
L 844.513442 31.965819 
L 844.513442 28.953814 
L 845.128607 28.953814 
L 845.128607 27.892279 
L 845.743771 27.892279 
L 845.743771 27.024005 
L 846.358936 27.024005 
L 846.358936 24.296989 
L 846.9741 24.296989 
L 846.9741 24.987184 
L 847.589265 24.987184 
L 847.589265 28.065668 
L 848.204429 28.065668 
L 848.204429 28.842864 
L 848.819594 28.842864 
L 848.819594 26.463908 
L 849.434758 26.463908 
L 849.434758 27.144318 
L 850.049923 27.144318 
L 850.049923 24.692621 
L 850.665087 24.692621 
L 850.665087 23.796691 
L 851.280252 23.796691 
L 851.280252 24.358346 
L 851.895416 24.358346 
L 851.895416 23.644623 
L 853.125745 23.738373 
L 853.125745 25.628754 
L 853.74091 25.628754 
L 853.74091 24.316907 
L 854.356074 24.316907 
L 854.356074 23.257376 
L 855.586403 23.149054 
L 855.586403 23.140884 
L 856.201568 23.140884 
L 856.201568 23.504555 
L 856.816732 23.504555 
L 856.816732 22.816783 
L 857.431897 22.816783 
L 857.431897 21.781571 
L 858.047061 21.781571 
L 858.047061 22.773666 
L 858.662226 22.773666 
L 858.662226 24.074191 
L 859.27739 24.074191 
L 859.27739 26.182433 
L 859.892555 26.182433 
L 859.892555 25.01332 
L 860.507719 25.01332 
L 860.507719 25.199228 
L 861.122884 25.199228 
L 861.122884 24.035796 
L 861.738048 24.035796 
L 861.738048 23.715494 
L 862.353213 23.715494 
L 862.353213 23.185859 
L 862.968377 23.185859 
L 862.968377 23.983662 
L 863.583542 23.983662 
L 863.583542 26.698106 
L 864.198706 26.698106 
L 864.198706 29.567513 
L 864.813871 29.567513 
L 864.813871 30.979401 
L 865.429035 30.979401 
L 865.429035 34.367334 
L 866.0442 34.367334 
L 866.0442 31.782778 
L 866.659364 31.782778 
L 866.659364 34.432551 
L 867.274529 34.432551 
L 867.274529 33.235506 
L 867.889693 33.235506 
L 867.889693 33.107166 
L 868.504858 33.107166 
L 868.504858 35.136476 
L 869.120022 35.136476 
L 869.120022 33.211301 
L 869.735187 33.211301 
L 869.735187 31.890491 
L 870.350351 31.890491 
L 870.350351 32.296535 
L 870.965516 32.296535 
L 870.965516 33.903509 
L 871.58068 33.903509 
L 871.58068 35.821804 
L 872.195845 35.821804 
L 872.195845 36.355142 
L 872.811009 36.355142 
L 872.811009 34.549611 
L 873.426174 34.549611 
L 873.426174 35.122574 
L 874.041338 35.122574 
L 874.041338 34.031984 
L 874.656503 34.031984 
L 874.656503 34.932635 
L 875.271667 34.932635 
L 875.271667 35.136034 
L 875.886832 35.136034 
L 875.886832 35.666417 
L 876.501996 35.666417 
L 876.501996 36.502445 
L 877.117161 36.502445 
L 877.117161 36.914372 
L 877.732325 36.914372 
L 877.732325 35.919728 
L 878.34749 35.919728 
L 878.34749 33.998485 
L 878.962654 33.998485 
L 878.962654 31.389267 
L 879.577819 31.389267 
L 879.577819 30.530016 
L 880.192983 30.530016 
L 880.192983 32.400042 
L 880.808148 32.400042 
L 880.808148 29.945015 
L 881.423312 29.945015 
L 881.423312 28.278019 
L 882.038477 28.278019 
L 882.038477 29.172176 
L 882.653641 29.172176 
L 882.653641 27.950153 
L 883.268806 27.950153 
L 883.268806 29.001199 
L 883.88397 29.001199 
L 883.88397 27.122482 
L 884.499135 27.122482 
L 884.499135 27.642707 
L 885.114299 27.642707 
L 885.114299 27.068524 
L 885.729464 27.068524 
L 885.729464 27.941892 
L 886.344628 27.941892 
L 886.344628 26.95137 
L 886.959793 26.95137 
L 886.959793 26.614832 
L 887.194182 26.614832 
L 887.194182 26.614832 
" style="fill:none;stroke:#3572c6;stroke-linecap:square;stroke-width:1.2;"/>
   </g>
   <g id="line2d_74">
    <path clip-path="url(#p3face9ef7f)" d="M 75.557818 21.781571 
L 887.194182 21.781571 
L 887.194182 21.781571 
" style="fill:none;stroke:#83a83b;stroke-linecap:square;stroke-width:1.2;"/>
   </g>
   <g id="line2d_75">
    <path clip-path="url(#p3face9ef7f)" d="M 75.557818 36.914372 
L 887.194182 36.914372 
L 887.194182 36.914372 
" style="fill:none;stroke:#c44e52;stroke-linecap:square;stroke-width:1.2;"/>
   </g>
   <g id="line2d_76">
    <path clip-path="url(#p3face9ef7f)" d="M 858.047061 302.188844 
L 858.047061 8.428844 
" style="fill:none;stroke:#83a83b;stroke-linecap:square;stroke-width:1.2;"/>
   </g>
   <g id="line2d_77">
    <path clip-path="url(#p3face9ef7f)" d="M 877.732325 302.188844 
L 877.732325 8.428844 
" style="fill:none;stroke:#c44e52;stroke-linecap:square;stroke-width:1.2;"/>
   </g>
   <g id="patch_3">
    <path d="M 34.976 302.188844 
L 34.976 8.428844 
" style="fill:none;stroke:#899ab8;stroke-linecap:square;stroke-linejoin:miter;stroke-width:1.12;"/>
   </g>
   <g id="patch_4">
    <path d="M 927.776 302.188844 
L 927.776 8.428844 
" style="fill:none;stroke:#899ab8;stroke-linecap:square;stroke-linejoin:miter;stroke-width:1.12;"/>
   </g>
   <g id="patch_5">
    <path d="M 34.976 302.188844 
L 927.776 302.188844 
" style="fill:none;stroke:#899ab8;stroke-linecap:square;stroke-linejoin:miter;stroke-width:1.12;"/>
   </g>
   <g id="patch_6">
    <path d="M 34.976 8.428844 
L 927.776 8.428844 
" style="fill:none;stroke:#899ab8;stroke-linecap:square;stroke-linejoin:miter;stroke-width:1.12;"/>
   </g>
   <g id="text_14">
    <!-- 62969.12 -->
    <g style="fill:#83a83b;" transform="translate(225.042792 21.781571)scale(0.132 -0.132)">
     <defs>
      <path d="M 703 97 
L 703 672 
Q 941 559 1184 500 
Q 1428 441 1663 441 
Q 2288 441 2617 861 
Q 2947 1281 2994 2138 
Q 2813 1869 2534 1725 
Q 2256 1581 1919 1581 
Q 1219 1581 811 2004 
Q 403 2428 403 3163 
Q 403 3881 828 4315 
Q 1253 4750 1959 4750 
Q 2769 4750 3195 4129 
Q 3622 3509 3622 2328 
Q 3622 1225 3098 567 
Q 2575 -91 1691 -91 
Q 1453 -91 1209 -44 
Q 966 3 703 97 
z
M 1959 2075 
Q 2384 2075 2632 2365 
Q 2881 2656 2881 3163 
Q 2881 3666 2632 3958 
Q 2384 4250 1959 4250 
Q 1534 4250 1286 3958 
Q 1038 3666 1038 3163 
Q 1038 2656 1286 2365 
Q 1534 2075 1959 2075 
z
" id="DejaVuSans-39" transform="scale(0.015625)"/>
      <path d="M 684 794 
L 1344 794 
L 1344 0 
L 684 0 
L 684 794 
z
" id="DejaVuSans-2e" transform="scale(0.015625)"/>
     </defs>
     <use xlink:href="#DejaVuSans-36"/>
     <use x="63.623047" xlink:href="#DejaVuSans-32"/>
     <use x="127.246094" xlink:href="#DejaVuSans-39"/>
     <use x="190.869141" xlink:href="#DejaVuSans-36"/>
     <use x="254.492188" xlink:href="#DejaVuSans-39"/>
     <use x="318.115234" xlink:href="#DejaVuSans-2e"/>
     <use x="349.902344" xlink:href="#DejaVuSans-31"/>
     <use x="413.525391" xlink:href="#DejaVuSans-32"/>
    </g>
   </g>
   <g id="text_15">
    <!-- 30815.94 -->
    <g style="fill:#c44e52;" transform="translate(225.042792 36.914372)scale(0.132 -0.132)">
     <use xlink:href="#DejaVuSans-33"/>
     <use x="63.623047" xlink:href="#DejaVuSans-30"/>
     <use x="127.246094" xlink:href="#DejaVuSans-38"/>
     <use x="190.869141" xlink:href="#DejaVuSans-31"/>
     <use x="254.492188" xlink:href="#DejaVuSans-35"/>
     <use x="318.115234" xlink:href="#DejaVuSans-2e"/>
     <use x="349.902344" xlink:href="#DejaVuSans-39"/>
     <use x="413.525391" xlink:href="#DejaVuSans-34"/>
    </g>
   </g>
   <g id="legend_1">
    <g id="patch_7">
     <path d="M 432.207453 295.888844 
L 530.544547 295.888844 
Q 533.064547 295.888844 533.064547 293.368844 
L 533.064547 238.795094 
Q 533.064547 236.275094 530.544547 236.275094 
L 432.207453 236.275094 
Q 429.687453 236.275094 429.687453 238.795094 
L 429.687453 293.368844 
Q 429.687453 295.888844 432.207453 295.888844 
z
" style="fill:#373e4b;opacity:0.8;stroke:#cccccc;stroke-linejoin:miter;stroke-width:0.16;"/>
    </g>
    <g id="line2d_78">
     <path d="M 434.727453 246.479125 
L 459.927453 246.479125 
" style="fill:none;stroke:#3572c6;stroke-linecap:square;stroke-width:1.2;"/>
    </g>
    <g id="line2d_79"/>
    <g id="text_16">
     <!-- USD/BTC -->
     <g style="fill:#b1bed6;" transform="translate(470.007453 250.889125)scale(0.126 -0.126)">
      <defs>
       <path d="M 556 4666 
L 1191 4666 
L 1191 1831 
Q 1191 1081 1462 751 
Q 1734 422 2344 422 
Q 2950 422 3222 751 
Q 3494 1081 3494 1831 
L 3494 4666 
L 4128 4666 
L 4128 1753 
Q 4128 841 3676 375 
Q 3225 -91 2344 -91 
Q 1459 -91 1007 375 
Q 556 841 556 1753 
L 556 4666 
z
" id="DejaVuSans-55" transform="scale(0.015625)"/>
       <path d="M 3425 4513 
L 3425 3897 
Q 3066 4069 2747 4153 
Q 2428 4238 2131 4238 
Q 1616 4238 1336 4038 
Q 1056 3838 1056 3469 
Q 1056 3159 1242 3001 
Q 1428 2844 1947 2747 
L 2328 2669 
Q 3034 2534 3370 2195 
Q 3706 1856 3706 1288 
Q 3706 609 3251 259 
Q 2797 -91 1919 -91 
Q 1588 -91 1214 -16 
Q 841 59 441 206 
L 441 856 
Q 825 641 1194 531 
Q 1563 422 1919 422 
Q 2459 422 2753 634 
Q 3047 847 3047 1241 
Q 3047 1584 2836 1778 
Q 2625 1972 2144 2069 
L 1759 2144 
Q 1053 2284 737 2584 
Q 422 2884 422 3419 
Q 422 4038 858 4394 
Q 1294 4750 2059 4750 
Q 2388 4750 2728 4690 
Q 3069 4631 3425 4513 
z
" id="DejaVuSans-53" transform="scale(0.015625)"/>
       <path d="M 1625 4666 
L 2156 4666 
L 531 -594 
L 0 -594 
L 1625 4666 
z
" id="DejaVuSans-2f" transform="scale(0.015625)"/>
       <path d="M 1259 2228 
L 1259 519 
L 2272 519 
Q 2781 519 3026 730 
Q 3272 941 3272 1375 
Q 3272 1813 3026 2020 
Q 2781 2228 2272 2228 
L 1259 2228 
z
M 1259 4147 
L 1259 2741 
L 2194 2741 
Q 2656 2741 2882 2914 
Q 3109 3088 3109 3444 
Q 3109 3797 2882 3972 
Q 2656 4147 2194 4147 
L 1259 4147 
z
M 628 4666 
L 2241 4666 
Q 2963 4666 3353 4366 
Q 3744 4066 3744 3513 
Q 3744 3084 3544 2831 
Q 3344 2578 2956 2516 
Q 3422 2416 3680 2098 
Q 3938 1781 3938 1306 
Q 3938 681 3513 340 
Q 3088 0 2303 0 
L 628 0 
L 628 4666 
z
" id="DejaVuSans-42" transform="scale(0.015625)"/>
       <path d="M -19 4666 
L 3928 4666 
L 3928 4134 
L 2272 4134 
L 2272 0 
L 1638 0 
L 1638 4134 
L -19 4134 
L -19 4666 
z
" id="DejaVuSans-54" transform="scale(0.015625)"/>
       <path d="M 4122 4306 
L 4122 3641 
Q 3803 3938 3442 4084 
Q 3081 4231 2675 4231 
Q 1875 4231 1450 3742 
Q 1025 3253 1025 2328 
Q 1025 1406 1450 917 
Q 1875 428 2675 428 
Q 3081 428 3442 575 
Q 3803 722 4122 1019 
L 4122 359 
Q 3791 134 3420 21 
Q 3050 -91 2638 -91 
Q 1578 -91 968 557 
Q 359 1206 359 2328 
Q 359 3453 968 4101 
Q 1578 4750 2638 4750 
Q 3056 4750 3426 4639 
Q 3797 4528 4122 4306 
z
" id="DejaVuSans-43" transform="scale(0.015625)"/>
      </defs>
      <use xlink:href="#DejaVuSans-55"/>
      <use x="73.193359" xlink:href="#DejaVuSans-53"/>
      <use x="136.669922" xlink:href="#DejaVuSans-44"/>
      <use x="213.671875" xlink:href="#DejaVuSans-2f"/>
      <use x="247.363281" xlink:href="#DejaVuSans-42"/>
      <use x="315.966797" xlink:href="#DejaVuSans-54"/>
      <use x="371.175781" xlink:href="#DejaVuSans-43"/>
     </g>
    </g>
    <g id="line2d_80">
     <path d="M 434.727453 264.973562 
L 459.927453 264.973562 
" style="fill:none;stroke:#83a83b;stroke-linecap:square;stroke-width:1.2;"/>
    </g>
    <g id="line2d_81"/>
    <g id="text_17">
     <!-- Max -->
     <g style="fill:#b1bed6;" transform="translate(470.007453 269.383562)scale(0.126 -0.126)">
      <defs>
       <path d="M 628 4666 
L 1569 4666 
L 2759 1491 
L 3956 4666 
L 4897 4666 
L 4897 0 
L 4281 0 
L 4281 4097 
L 3078 897 
L 2444 897 
L 1241 4097 
L 1241 0 
L 628 0 
L 628 4666 
z
" id="DejaVuSans-4d" transform="scale(0.015625)"/>
       <path d="M 3513 3500 
L 2247 1797 
L 3578 0 
L 2900 0 
L 1881 1375 
L 863 0 
L 184 0 
L 1544 1831 
L 300 3500 
L 978 3500 
L 1906 2253 
L 2834 3500 
L 3513 3500 
z
" id="DejaVuSans-78" transform="scale(0.015625)"/>
      </defs>
      <use xlink:href="#DejaVuSans-4d"/>
      <use x="86.279297" xlink:href="#DejaVuSans-61"/>
      <use x="147.558594" xlink:href="#DejaVuSans-78"/>
     </g>
    </g>
    <g id="line2d_82">
     <path d="M 434.727453 283.468 
L 459.927453 283.468 
" style="fill:none;stroke:#c44e52;stroke-linecap:square;stroke-width:1.2;"/>
    </g>
    <g id="line2d_83"/>
    <g id="text_18">
     <!-- local_Min -->
     <g style="fill:#b1bed6;" transform="translate(470.007453 287.878)scale(0.126 -0.126)">
      <defs>
       <path d="M 603 4863 
L 1178 4863 
L 1178 0 
L 603 0 
L 603 4863 
z
" id="DejaVuSans-6c" transform="scale(0.015625)"/>
       <path d="M 1959 3097 
Q 1497 3097 1228 2736 
Q 959 2375 959 1747 
Q 959 1119 1226 758 
Q 1494 397 1959 397 
Q 2419 397 2687 759 
Q 2956 1122 2956 1747 
Q 2956 2369 2687 2733 
Q 2419 3097 1959 3097 
z
M 1959 3584 
Q 2709 3584 3137 3096 
Q 3566 2609 3566 1747 
Q 3566 888 3137 398 
Q 2709 -91 1959 -91 
Q 1206 -91 779 398 
Q 353 888 353 1747 
Q 353 2609 779 3096 
Q 1206 3584 1959 3584 
z
" id="DejaVuSans-6f" transform="scale(0.015625)"/>
       <path d="M 3122 3366 
L 3122 2828 
Q 2878 2963 2633 3030 
Q 2388 3097 2138 3097 
Q 1578 3097 1268 2742 
Q 959 2388 959 1747 
Q 959 1106 1268 751 
Q 1578 397 2138 397 
Q 2388 397 2633 464 
Q 2878 531 3122 666 
L 3122 134 
Q 2881 22 2623 -34 
Q 2366 -91 2075 -91 
Q 1284 -91 818 406 
Q 353 903 353 1747 
Q 353 2603 823 3093 
Q 1294 3584 2113 3584 
Q 2378 3584 2631 3529 
Q 2884 3475 3122 3366 
z
" id="DejaVuSans-63" transform="scale(0.015625)"/>
       <path d="M 3263 -1063 
L 3263 -1509 
L -63 -1509 
L -63 -1063 
L 3263 -1063 
z
" id="DejaVuSans-5f" transform="scale(0.015625)"/>
       <path d="M 603 3500 
L 1178 3500 
L 1178 0 
L 603 0 
L 603 3500 
z
M 603 4863 
L 1178 4863 
L 1178 4134 
L 603 4134 
L 603 4863 
z
" id="DejaVuSans-69" transform="scale(0.015625)"/>
       <path d="M 3513 2113 
L 3513 0 
L 2938 0 
L 2938 2094 
Q 2938 2591 2744 2837 
Q 2550 3084 2163 3084 
Q 1697 3084 1428 2787 
Q 1159 2491 1159 1978 
L 1159 0 
L 581 0 
L 581 3500 
L 1159 3500 
L 1159 2956 
Q 1366 3272 1645 3428 
Q 1925 3584 2291 3584 
Q 2894 3584 3203 3211 
Q 3513 2838 3513 2113 
z
" id="DejaVuSans-6e" transform="scale(0.015625)"/>
      </defs>
      <use xlink:href="#DejaVuSans-6c"/>
      <use x="27.783203" xlink:href="#DejaVuSans-6f"/>
      <use x="88.964844" xlink:href="#DejaVuSans-63"/>
      <use x="143.945312" xlink:href="#DejaVuSans-61"/>
      <use x="205.224609" xlink:href="#DejaVuSans-6c"/>
      <use x="233.007812" xlink:href="#DejaVuSans-5f"/>
      <use x="283.007812" xlink:href="#DejaVuSans-4d"/>
      <use x="369.287109" xlink:href="#DejaVuSans-69"/>
      <use x="397.070312" xlink:href="#DejaVuSans-6e"/>
     </g>
    </g>
   </g>
  </g>
 </g>
 <defs>
  <clipPath id="p3face9ef7f">
   <rect height="293.76" width="892.8" x="34.976" y="8.428844"/>
  </clipPath>
 </defs>
</svg>
