<?xml version="1.0" encoding="utf-8" standalone="no"?>
<!DOCTYPE svg PUBLIC "-//W3C//DTD SVG 1.1//EN"
  "http://www.w3.org/Graphics/SVG/1.1/DTD/svg11.dtd">
<svg xmlns:xlink="http://www.w3.org/1999/xlink" width="952.88375pt" height="358.290693pt" viewBox="0 0 952.88375 358.290693" xmlns="http://www.w3.org/2000/svg" version="1.1">
 <metadata>
  <rdf:RDF xmlns:dc="http://purl.org/dc/elements/1.1/" xmlns:cc="http://creativecommons.org/ns#" xmlns:rdf="http://www.w3.org/1999/02/22-rdf-syntax-ns#">
   <cc:Work>
    <dc:type rdf:resource="http://purl.org/dc/dcmitype/StillImage"/>
    <dc:date>2022-11-26T03:46:54.853189</dc:date>
    <dc:format>image/svg+xml</dc:format>
    <dc:creator>
     <cc:Agent>
      <dc:title>Matplotlib v3.6.2, https://matplotlib.org/</dc:title>
     </cc:Agent>
    </dc:creator>
   </cc:Work>
  </rdf:RDF>
 </metadata>
 <defs>
  <style type="text/css">*{stroke-linejoin: round; stroke-linecap: butt}</style>
 </defs>
 <g id="figure_1">
  <g id="patch_1">
   <path d="M 0 358.290693 
L 952.88375 358.290693 
L 952.88375 0 
L 0 0 
z
" style="fill: #373e4b"/>
  </g>
  <g id="axes_1">
   <g id="patch_2">
    <path d="M 52.88375 300.96 
L 945.68375 300.96 
L 945.68375 7.2 
L 52.88375 7.2 
z
" style="fill: #373e4b"/>
   </g>
   <g id="matplotlib.axis_1">
    <g id="xtick_1">
     <g id="line2d_1">
      <path d="M 104.202937 300.96 
L 104.202937 7.2 
" clip-path="url(#p8e48533afb)" style="fill: none; stroke: #546379; stroke-width: 1.12; stroke-linecap: square"/>
     </g>
     <g id="line2d_2"/>
     <g id="text_1">
      <!-- 2018 -->
      <g style="fill: #b1bed6" transform="translate(75.121898 330.884854) rotate(-30) scale(0.126 -0.126)">
       <defs>
        <path id="DejaVuSans-32" d="M 1228 531 
L 3431 531 
L 3431 0 
L 469 0 
L 469 531 
Q 828 903 1448 1529 
Q 2069 2156 2228 2338 
Q 2531 2678 2651 2914 
Q 2772 3150 2772 3378 
Q 2772 3750 2511 3984 
Q 2250 4219 1831 4219 
Q 1534 4219 1204 4116 
Q 875 4013 500 3803 
L 500 4441 
Q 881 4594 1212 4672 
Q 1544 4750 1819 4750 
Q 2544 4750 2975 4387 
Q 3406 4025 3406 3419 
Q 3406 3131 3298 2873 
Q 3191 2616 2906 2266 
Q 2828 2175 2409 1742 
Q 1991 1309 1228 531 
z
" transform="scale(0.015625)"/>
        <path id="DejaVuSans-30" d="M 2034 4250 
Q 1547 4250 1301 3770 
Q 1056 3291 1056 2328 
Q 1056 1369 1301 889 
Q 1547 409 2034 409 
Q 2525 409 2770 889 
Q 3016 1369 3016 2328 
Q 3016 3291 2770 3770 
Q 2525 4250 2034 4250 
z
M 2034 4750 
Q 2819 4750 3233 4129 
Q 3647 3509 3647 2328 
Q 3647 1150 3233 529 
Q 2819 -91 2034 -91 
Q 1250 -91 836 529 
Q 422 1150 422 2328 
Q 422 3509 836 4129 
Q 1250 4750 2034 4750 
z
" transform="scale(0.015625)"/>
        <path id="DejaVuSans-31" d="M 794 531 
L 1825 531 
L 1825 4091 
L 703 3866 
L 703 4441 
L 1819 4666 
L 2450 4666 
L 2450 531 
L 3481 531 
L 3481 0 
L 794 0 
L 794 531 
z
" transform="scale(0.015625)"/>
        <path id="DejaVuSans-38" d="M 2034 2216 
Q 1584 2216 1326 1975 
Q 1069 1734 1069 1313 
Q 1069 891 1326 650 
Q 1584 409 2034 409 
Q 2484 409 2743 651 
Q 3003 894 3003 1313 
Q 3003 1734 2745 1975 
Q 2488 2216 2034 2216 
z
M 1403 2484 
Q 997 2584 770 2862 
Q 544 3141 544 3541 
Q 544 4100 942 4425 
Q 1341 4750 2034 4750 
Q 2731 4750 3128 4425 
Q 3525 4100 3525 3541 
Q 3525 3141 3298 2862 
Q 3072 2584 2669 2484 
Q 3125 2378 3379 2068 
Q 3634 1759 3634 1313 
Q 3634 634 3220 271 
Q 2806 -91 2034 -91 
Q 1263 -91 848 271 
Q 434 634 434 1313 
Q 434 1759 690 2068 
Q 947 2378 1403 2484 
z
M 1172 3481 
Q 1172 3119 1398 2916 
Q 1625 2713 2034 2713 
Q 2441 2713 2670 2916 
Q 2900 3119 2900 3481 
Q 2900 3844 2670 4047 
Q 2441 4250 2034 4250 
Q 1625 4250 1398 4047 
Q 1172 3844 1172 3481 
z
" transform="scale(0.015625)"/>
       </defs>
       <use xlink:href="#DejaVuSans-32"/>
       <use xlink:href="#DejaVuSans-30" x="63.623047"/>
       <use xlink:href="#DejaVuSans-31" x="127.246094"/>
       <use xlink:href="#DejaVuSans-38" x="190.869141"/>
      </g>
     </g>
    </g>
    <g id="xtick_2">
     <g id="line2d_3">
      <path d="M 267.500426 300.96 
L 267.500426 7.2 
" clip-path="url(#p8e48533afb)" style="fill: none; stroke: #546379; stroke-width: 1.12; stroke-linecap: square"/>
     </g>
     <g id="line2d_4"/>
     <g id="text_2">
      <!-- 2019 -->
      <g style="fill: #b1bed6" transform="translate(238.419386 330.884854) rotate(-30) scale(0.126 -0.126)">
       <defs>
        <path id="DejaVuSans-39" d="M 703 97 
L 703 672 
Q 941 559 1184 500 
Q 1428 441 1663 441 
Q 2288 441 2617 861 
Q 2947 1281 2994 2138 
Q 2813 1869 2534 1725 
Q 2256 1581 1919 1581 
Q 1219 1581 811 2004 
Q 403 2428 403 3163 
Q 403 3881 828 4315 
Q 1253 4750 1959 4750 
Q 2769 4750 3195 4129 
Q 3622 3509 3622 2328 
Q 3622 1225 3098 567 
Q 2575 -91 1691 -91 
Q 1453 -91 1209 -44 
Q 966 3 703 97 
z
M 1959 2075 
Q 2384 2075 2632 2365 
Q 2881 2656 2881 3163 
Q 2881 3666 2632 3958 
Q 2384 4250 1959 4250 
Q 1534 4250 1286 3958 
Q 1038 3666 1038 3163 
Q 1038 2656 1286 2365 
Q 1534 2075 1959 2075 
z
" transform="scale(0.015625)"/>
       </defs>
       <use xlink:href="#DejaVuSans-32"/>
       <use xlink:href="#DejaVuSans-30" x="63.623047"/>
       <use xlink:href="#DejaVuSans-31" x="127.246094"/>
       <use xlink:href="#DejaVuSans-39" x="190.869141"/>
      </g>
     </g>
    </g>
    <g id="xtick_3">
     <g id="line2d_5">
      <path d="M 430.797914 300.96 
L 430.797914 7.2 
" clip-path="url(#p8e48533afb)" style="fill: none; stroke: #546379; stroke-width: 1.12; stroke-linecap: square"/>
     </g>
     <g id="line2d_6"/>
     <g id="text_3">
      <!-- 2020 -->
      <g style="fill: #b1bed6" transform="translate(401.716874 330.884854) rotate(-30) scale(0.126 -0.126)">
       <use xlink:href="#DejaVuSans-32"/>
       <use xlink:href="#DejaVuSans-30" x="63.623047"/>
       <use xlink:href="#DejaVuSans-32" x="127.246094"/>
       <use xlink:href="#DejaVuSans-30" x="190.869141"/>
      </g>
     </g>
    </g>
    <g id="xtick_4">
     <g id="line2d_7">
      <path d="M 594.542793 300.96 
L 594.542793 7.2 
" clip-path="url(#p8e48533afb)" style="fill: none; stroke: #546379; stroke-width: 1.12; stroke-linecap: square"/>
     </g>
     <g id="line2d_8"/>
     <g id="text_4">
      <!-- 2021 -->
      <g style="fill: #b1bed6" transform="translate(565.461753 330.884854) rotate(-30) scale(0.126 -0.126)">
       <use xlink:href="#DejaVuSans-32"/>
       <use xlink:href="#DejaVuSans-30" x="63.623047"/>
       <use xlink:href="#DejaVuSans-32" x="127.246094"/>
       <use xlink:href="#DejaVuSans-31" x="190.869141"/>
      </g>
     </g>
    </g>
    <g id="xtick_5">
     <g id="line2d_9">
      <path d="M 757.840282 300.96 
L 757.840282 7.2 
" clip-path="url(#p8e48533afb)" style="fill: none; stroke: #546379; stroke-width: 1.12; stroke-linecap: square"/>
     </g>
     <g id="line2d_10"/>
     <g id="text_5">
      <!-- 2022 -->
      <g style="fill: #b1bed6" transform="translate(728.759242 330.884854) rotate(-30) scale(0.126 -0.126)">
       <use xlink:href="#DejaVuSans-32"/>
       <use xlink:href="#DejaVuSans-30" x="63.623047"/>
       <use xlink:href="#DejaVuSans-32" x="127.246094"/>
       <use xlink:href="#DejaVuSans-32" x="190.869141"/>
      </g>
     </g>
    </g>
    <g id="xtick_6">
     <g id="line2d_11">
      <path d="M 921.13777 300.96 
L 921.13777 7.2 
" clip-path="url(#p8e48533afb)" style="fill: none; stroke: #546379; stroke-width: 1.12; stroke-linecap: square"/>
     </g>
     <g id="line2d_12"/>
     <g id="text_6">
      <!-- 2023 -->
      <g style="fill: #b1bed6" transform="translate(892.05673 330.884854) rotate(-30) scale(0.126 -0.126)">
       <defs>
        <path id="DejaVuSans-33" d="M 2597 2516 
Q 3050 2419 3304 2112 
Q 3559 1806 3559 1356 
Q 3559 666 3084 287 
Q 2609 -91 1734 -91 
Q 1441 -91 1130 -33 
Q 819 25 488 141 
L 488 750 
Q 750 597 1062 519 
Q 1375 441 1716 441 
Q 2309 441 2620 675 
Q 2931 909 2931 1356 
Q 2931 1769 2642 2001 
Q 2353 2234 1838 2234 
L 1294 2234 
L 1294 2753 
L 1863 2753 
Q 2328 2753 2575 2939 
Q 2822 3125 2822 3475 
Q 2822 3834 2567 4026 
Q 2313 4219 1838 4219 
Q 1578 4219 1281 4162 
Q 984 4106 628 3988 
L 628 4550 
Q 988 4650 1302 4700 
Q 1616 4750 1894 4750 
Q 2613 4750 3031 4423 
Q 3450 4097 3450 3541 
Q 3450 3153 3228 2886 
Q 3006 2619 2597 2516 
z
" transform="scale(0.015625)"/>
       </defs>
       <use xlink:href="#DejaVuSans-32"/>
       <use xlink:href="#DejaVuSans-30" x="63.623047"/>
       <use xlink:href="#DejaVuSans-32" x="127.246094"/>
       <use xlink:href="#DejaVuSans-33" x="190.869141"/>
      </g>
     </g>
    </g>
    <g id="text_7">
     <!-- Date -->
     <g style="fill: #b1bed6" transform="translate(482.074625 348.095943) scale(0.144 -0.144)">
      <defs>
       <path id="DejaVuSans-44" d="M 1259 4147 
L 1259 519 
L 2022 519 
Q 2988 519 3436 956 
Q 3884 1394 3884 2338 
Q 3884 3275 3436 3711 
Q 2988 4147 2022 4147 
L 1259 4147 
z
M 628 4666 
L 1925 4666 
Q 3281 4666 3915 4102 
Q 4550 3538 4550 2338 
Q 4550 1131 3912 565 
Q 3275 0 1925 0 
L 628 0 
L 628 4666 
z
" transform="scale(0.015625)"/>
       <path id="DejaVuSans-61" d="M 2194 1759 
Q 1497 1759 1228 1600 
Q 959 1441 959 1056 
Q 959 750 1161 570 
Q 1363 391 1709 391 
Q 2188 391 2477 730 
Q 2766 1069 2766 1631 
L 2766 1759 
L 2194 1759 
z
M 3341 1997 
L 3341 0 
L 2766 0 
L 2766 531 
Q 2569 213 2275 61 
Q 1981 -91 1556 -91 
Q 1019 -91 701 211 
Q 384 513 384 1019 
Q 384 1609 779 1909 
Q 1175 2209 1959 2209 
L 2766 2209 
L 2766 2266 
Q 2766 2663 2505 2880 
Q 2244 3097 1772 3097 
Q 1472 3097 1187 3025 
Q 903 2953 641 2809 
L 641 3341 
Q 956 3463 1253 3523 
Q 1550 3584 1831 3584 
Q 2591 3584 2966 3190 
Q 3341 2797 3341 1997 
z
" transform="scale(0.015625)"/>
       <path id="DejaVuSans-74" d="M 1172 4494 
L 1172 3500 
L 2356 3500 
L 2356 3053 
L 1172 3053 
L 1172 1153 
Q 1172 725 1289 603 
Q 1406 481 1766 481 
L 2356 481 
L 2356 0 
L 1766 0 
Q 1100 0 847 248 
Q 594 497 594 1153 
L 594 3053 
L 172 3053 
L 172 3500 
L 594 3500 
L 594 4494 
L 1172 4494 
z
" transform="scale(0.015625)"/>
       <path id="DejaVuSans-65" d="M 3597 1894 
L 3597 1613 
L 953 1613 
Q 991 1019 1311 708 
Q 1631 397 2203 397 
Q 2534 397 2845 478 
Q 3156 559 3463 722 
L 3463 178 
Q 3153 47 2828 -22 
Q 2503 -91 2169 -91 
Q 1331 -91 842 396 
Q 353 884 353 1716 
Q 353 2575 817 3079 
Q 1281 3584 2069 3584 
Q 2775 3584 3186 3129 
Q 3597 2675 3597 1894 
z
M 3022 2063 
Q 3016 2534 2758 2815 
Q 2500 3097 2075 3097 
Q 1594 3097 1305 2825 
Q 1016 2553 972 2059 
L 3022 2063 
z
" transform="scale(0.015625)"/>
      </defs>
      <use xlink:href="#DejaVuSans-44"/>
      <use xlink:href="#DejaVuSans-61" x="77.001953"/>
      <use xlink:href="#DejaVuSans-74" x="138.28125"/>
      <use xlink:href="#DejaVuSans-65" x="177.490234"/>
     </g>
    </g>
   </g>
   <g id="matplotlib.axis_2">
    <g id="ytick_1">
     <g id="line2d_13">
      <path d="M 52.88375 258.880598 
L 945.68375 258.880598 
" clip-path="url(#p8e48533afb)" style="fill: none; stroke: #546379; stroke-width: 1.12; stroke-linecap: square"/>
     </g>
     <g id="line2d_14"/>
     <g id="text_8">
      <!-- 10000 -->
      <g style="fill: #b1bed6" transform="translate(7.2 263.667614) scale(0.126 -0.126)">
       <use xlink:href="#DejaVuSans-31"/>
       <use xlink:href="#DejaVuSans-30" x="63.623047"/>
       <use xlink:href="#DejaVuSans-30" x="127.246094"/>
       <use xlink:href="#DejaVuSans-30" x="190.869141"/>
       <use xlink:href="#DejaVuSans-30" x="254.492188"/>
      </g>
     </g>
    </g>
    <g id="ytick_2">
     <g id="line2d_15">
      <path d="M 52.88375 216.370299 
L 945.68375 216.370299 
" clip-path="url(#p8e48533afb)" style="fill: none; stroke: #546379; stroke-width: 1.12; stroke-linecap: square"/>
     </g>
     <g id="line2d_16"/>
     <g id="text_9">
      <!-- 20000 -->
      <g style="fill: #b1bed6" transform="translate(7.2 221.157314) scale(0.126 -0.126)">
       <use xlink:href="#DejaVuSans-32"/>
       <use xlink:href="#DejaVuSans-30" x="63.623047"/>
       <use xlink:href="#DejaVuSans-30" x="127.246094"/>
       <use xlink:href="#DejaVuSans-30" x="190.869141"/>
       <use xlink:href="#DejaVuSans-30" x="254.492188"/>
      </g>
     </g>
    </g>
    <g id="ytick_3">
     <g id="line2d_17">
      <path d="M 52.88375 173.86 
L 945.68375 173.86 
" clip-path="url(#p8e48533afb)" style="fill: none; stroke: #546379; stroke-width: 1.12; stroke-linecap: square"/>
     </g>
     <g id="line2d_18"/>
     <g id="text_10">
      <!-- 30000 -->
      <g style="fill: #b1bed6" transform="translate(7.2 178.647015) scale(0.126 -0.126)">
       <use xlink:href="#DejaVuSans-33"/>
       <use xlink:href="#DejaVuSans-30" x="63.623047"/>
       <use xlink:href="#DejaVuSans-30" x="127.246094"/>
       <use xlink:href="#DejaVuSans-30" x="190.869141"/>
       <use xlink:href="#DejaVuSans-30" x="254.492188"/>
      </g>
     </g>
    </g>
    <g id="ytick_4">
     <g id="line2d_19">
      <path d="M 52.88375 131.349701 
L 945.68375 131.349701 
" clip-path="url(#p8e48533afb)" style="fill: none; stroke: #546379; stroke-width: 1.12; stroke-linecap: square"/>
     </g>
     <g id="line2d_20"/>
     <g id="text_11">
      <!-- 40000 -->
      <g style="fill: #b1bed6" transform="translate(7.2 136.136716) scale(0.126 -0.126)">
       <defs>
        <path id="DejaVuSans-34" d="M 2419 4116 
L 825 1625 
L 2419 1625 
L 2419 4116 
z
M 2253 4666 
L 3047 4666 
L 3047 1625 
L 3713 1625 
L 3713 1100 
L 3047 1100 
L 3047 0 
L 2419 0 
L 2419 1100 
L 313 1100 
L 313 1709 
L 2253 4666 
z
" transform="scale(0.015625)"/>
       </defs>
       <use xlink:href="#DejaVuSans-34"/>
       <use xlink:href="#DejaVuSans-30" x="63.623047"/>
       <use xlink:href="#DejaVuSans-30" x="127.246094"/>
       <use xlink:href="#DejaVuSans-30" x="190.869141"/>
       <use xlink:href="#DejaVuSans-30" x="254.492188"/>
      </g>
     </g>
    </g>
    <g id="ytick_5">
     <g id="line2d_21">
      <path d="M 52.88375 88.839401 
L 945.68375 88.839401 
" clip-path="url(#p8e48533afb)" style="fill: none; stroke: #546379; stroke-width: 1.12; stroke-linecap: square"/>
     </g>
     <g id="line2d_22"/>
     <g id="text_12">
      <!-- 50000 -->
      <g style="fill: #b1bed6" transform="translate(7.2 93.626417) scale(0.126 -0.126)">
       <defs>
        <path id="DejaVuSans-35" d="M 691 4666 
L 3169 4666 
L 3169 4134 
L 1269 4134 
L 1269 2991 
Q 1406 3038 1543 3061 
Q 1681 3084 1819 3084 
Q 2600 3084 3056 2656 
Q 3513 2228 3513 1497 
Q 3513 744 3044 326 
Q 2575 -91 1722 -91 
Q 1428 -91 1123 -41 
Q 819 9 494 109 
L 494 744 
Q 775 591 1075 516 
Q 1375 441 1709 441 
Q 2250 441 2565 725 
Q 2881 1009 2881 1497 
Q 2881 1984 2565 2268 
Q 2250 2553 1709 2553 
Q 1456 2553 1204 2497 
Q 953 2441 691 2322 
L 691 4666 
z
" transform="scale(0.015625)"/>
       </defs>
       <use xlink:href="#DejaVuSans-35"/>
       <use xlink:href="#DejaVuSans-30" x="63.623047"/>
       <use xlink:href="#DejaVuSans-30" x="127.246094"/>
       <use xlink:href="#DejaVuSans-30" x="190.869141"/>
       <use xlink:href="#DejaVuSans-30" x="254.492188"/>
      </g>
     </g>
    </g>
    <g id="ytick_6">
     <g id="line2d_23">
      <path d="M 52.88375 46.329102 
L 945.68375 46.329102 
" clip-path="url(#p8e48533afb)" style="fill: none; stroke: #546379; stroke-width: 1.12; stroke-linecap: square"/>
     </g>
     <g id="line2d_24"/>
     <g id="text_13">
      <!-- 60000 -->
      <g style="fill: #b1bed6" transform="translate(7.2 51.116118) scale(0.126 -0.126)">
       <defs>
        <path id="DejaVuSans-36" d="M 2113 2584 
Q 1688 2584 1439 2293 
Q 1191 2003 1191 1497 
Q 1191 994 1439 701 
Q 1688 409 2113 409 
Q 2538 409 2786 701 
Q 3034 994 3034 1497 
Q 3034 2003 2786 2293 
Q 2538 2584 2113 2584 
z
M 3366 4563 
L 3366 3988 
Q 3128 4100 2886 4159 
Q 2644 4219 2406 4219 
Q 1781 4219 1451 3797 
Q 1122 3375 1075 2522 
Q 1259 2794 1537 2939 
Q 1816 3084 2150 3084 
Q 2853 3084 3261 2657 
Q 3669 2231 3669 1497 
Q 3669 778 3244 343 
Q 2819 -91 2113 -91 
Q 1303 -91 875 529 
Q 447 1150 447 2328 
Q 447 3434 972 4092 
Q 1497 4750 2381 4750 
Q 2619 4750 2861 4703 
Q 3103 4656 3366 4563 
z
" transform="scale(0.015625)"/>
       </defs>
       <use xlink:href="#DejaVuSans-36"/>
       <use xlink:href="#DejaVuSans-30" x="63.623047"/>
       <use xlink:href="#DejaVuSans-30" x="127.246094"/>
       <use xlink:href="#DejaVuSans-30" x="190.869141"/>
       <use xlink:href="#DejaVuSans-30" x="254.492188"/>
      </g>
     </g>
    </g>
   </g>
   <g id="line2d_25">
    <path d="M 93.465568 229.714792 
L 93.465568 237.33234 
L 94.807739 237.33234 
L 94.807739 232.301841 
L 96.14991 232.301841 
L 96.14991 219.431465 
L 97.492082 219.431465 
L 97.492082 227.495499 
L 98.834253 227.495499 
L 98.834253 242.826116 
L 100.176424 242.826116 
L 100.176424 242.97775 
L 101.518595 242.97775 
L 101.518595 240.966715 
L 102.860766 240.966715 
L 102.860766 242.743688 
L 104.202937 242.743688 
L 104.202937 237.458638 
L 105.545108 237.458638 
L 105.545108 228.46044 
L 106.88728 228.46044 
L 106.88728 240.016993 
L 108.229451 240.016993 
L 108.229451 242.764136 
L 109.571622 242.764136 
L 109.571622 243.771843 
L 110.913793 243.771843 
L 110.913793 253.886403 
L 112.255964 253.886403 
L 112.255964 252.447004 
L 113.598135 252.447004 
L 113.598135 252.963037 
L 114.940306 252.963037 
L 114.940306 252.795801 
L 116.282478 252.795801 
L 116.282478 258.529803 
L 117.624649 258.529803 
L 117.624649 263.757677 
L 118.96682 263.757677 
L 118.96682 271.95056 
L 120.308991 271.95056 
L 120.308991 266.340815 
L 121.651162 266.340815 
L 121.651162 267.093503 
L 122.993333 267.093503 
L 122.993333 261.126672 
L 124.335504 261.126672 
L 124.335504 254.264702 
L 125.677675 254.264702 
L 125.677675 253.5839 
L 127.019847 253.5839 
L 127.019847 258.152397 
L 128.362018 258.152397 
L 128.362018 257.522564 
L 129.704189 257.522564 
L 129.704189 254.922379 
L 131.04636 254.922379 
L 131.04636 252.432508 
L 132.388531 252.432508 
L 132.388531 259.218725 
L 133.730702 259.218725 
L 133.730702 264.078035 
L 135.072873 264.078035 
L 135.072873 262.478925 
L 136.415045 262.478925 
L 136.415045 266.116319 
L 137.757216 266.116319 
L 137.757216 264.808064 
L 139.099387 264.808064 
L 139.099387 264.299088 
L 140.441558 264.299088 
L 140.441558 265.435856 
L 141.783729 265.435856 
L 141.783729 267.592616 
L 143.1259 267.592616 
L 143.1259 271.899122 
L 144.468071 271.899122 
L 144.468071 269.820708 
L 145.810243 269.820708 
L 145.810243 273.186674 
L 147.152414 273.186674 
L 147.152414 272.550167 
L 148.494585 272.550167 
L 148.494585 267.631513 
L 149.836756 267.631513 
L 149.836756 265.817854 
L 151.178927 265.817854 
L 151.178927 266.634647 
L 152.521098 266.634647 
L 152.521098 263.426649 
L 153.863269 263.426649 
L 153.863269 260.333983 
L 155.205441 260.333983 
L 155.205441 263.435364 
L 156.547612 263.435364 
L 156.547612 262.113294 
L 157.889783 262.113294 
L 157.889783 259.929115 
L 159.231954 259.929115 
L 159.231954 260.447358 
L 160.574125 260.447358 
L 160.574125 261.812236 
L 161.916296 261.812236 
L 161.916296 265.41222 
L 164.600639 265.380168 
L 164.600639 266.366322 
L 165.94281 266.366322 
L 165.94281 265.696572 
L 167.284981 265.696572 
L 167.284981 269.181779 
L 168.627152 269.181779 
L 168.627152 270.168953 
L 169.969323 270.168953 
L 169.969323 269.989729 
L 171.311494 269.989729 
L 171.311494 268.925187 
L 175.338008 269.017009 
L 175.338008 272.146745 
L 176.680179 272.146745 
L 176.680179 273.175069 
L 178.02235 273.175069 
L 178.02235 273.989651 
L 179.364521 273.989651 
L 179.364521 272.650407 
L 180.706692 272.650407 
L 180.706692 275.160087 
L 182.048863 275.160087 
L 182.048863 275.470412 
L 183.391034 275.470412 
L 183.391034 274.935548 
L 184.733206 274.935548 
L 184.733206 273.221702 
L 186.075377 273.221702 
L 186.075377 273.523228 
L 187.417548 273.523228 
L 187.417548 272.806802 
L 188.759719 272.806802 
L 188.759719 274.170787 
L 190.10189 274.170787 
L 190.10189 274.826891 
L 191.444061 274.826891 
L 191.444061 270.266471 
L 194.128404 270.209635 
L 194.128404 268.593776 
L 195.470575 268.593776 
L 195.470575 267.638527 
L 196.812746 267.638527 
L 196.812746 266.443563 
L 198.154917 266.443563 
L 198.154917 269.050337 
L 199.497088 269.050337 
L 199.497088 271.585736 
L 200.839259 271.585736 
L 200.839259 272.8315 
L 202.18143 272.8315 
L 202.18143 275.293995 
L 203.523602 275.293995 
L 203.523602 274.812905 
L 204.865773 274.812905 
L 204.865773 274.555208 
L 206.207944 274.555208 
L 206.207944 273.816252 
L 207.550115 273.816252 
L 207.550115 274.37743 
L 208.892286 274.37743 
L 208.892286 272.74631 
L 210.234457 272.74631 
L 210.234457 271.3013 
L 211.576628 271.3013 
L 211.576628 271.553853 
L 212.918799 271.553853 
L 212.918799 270.506825 
L 214.260971 270.506825 
L 214.260971 273.754144 
L 215.603142 273.754144 
L 215.603142 274.860304 
L 216.945313 274.860304 
L 216.945313 274.498712 
L 218.287484 274.498712 
L 218.287484 273.664022 
L 219.629655 273.664022 
L 219.629655 274.429208 
L 220.971826 274.429208 
L 220.971826 272.670429 
L 222.313997 272.670429 
L 222.313997 273.404454 
L 223.656169 273.404454 
L 223.656169 272.968171 
L 224.99834 272.968171 
L 224.99834 273.287253 
L 226.340511 273.287253 
L 226.340511 273.828367 
L 227.682682 273.828367 
L 227.682682 273.446242 
L 229.024853 273.446242 
L 229.024853 273.21996 
L 230.367024 273.21996 
L 230.367024 274.834713 
L 231.709195 274.834713 
L 231.709195 273.337628 
L 233.051367 273.337628 
L 233.051367 273.71835 
L 237.07788 273.802691 
L 237.07788 273.941104 
L 238.420051 273.941104 
L 238.420051 274.602565 
L 239.762222 274.602565 
L 239.762222 274.225031 
L 241.104393 274.225031 
L 241.104393 274.023787 
L 243.788736 273.993137 
L 243.788736 274.148044 
L 245.130907 274.148044 
L 245.130907 276.918696 
L 246.473078 276.918696 
L 246.473078 277.702288 
L 247.815249 277.702288 
L 247.815249 282.295356 
L 249.15742 282.295356 
L 249.15742 282.886249 
L 250.499591 282.886249 
L 250.499591 285.265253 
L 251.841762 285.265253 
L 251.841762 283.201718 
L 253.183934 283.201718 
L 253.183934 283.789083 
L 254.526105 283.789083 
L 254.526105 285.470875 
L 255.868276 285.470875 
L 255.868276 286.709285 
L 257.210447 286.709285 
L 257.210447 286.906448 
L 258.552618 286.906448 
L 258.552618 287.607273 
L 259.894789 287.607273 
L 259.894789 286.271939 
L 261.23696 286.271939 
L 261.23696 283.812081 
L 262.579132 283.812081 
L 262.579132 284.40731 
L 263.921303 284.40731 
L 263.921303 285.032041 
L 265.263474 285.032041 
L 265.263474 285.362984 
L 266.605645 285.362984 
L 266.605645 284.999436 
L 269.289987 284.99629 
L 269.289987 284.249682 
L 270.632158 284.249682 
L 270.632158 285.890579 
L 271.97433 285.890579 
L 271.97433 286.37643 
L 273.316501 286.37643 
L 273.316501 285.99609 
L 274.658672 285.99609 
L 274.658672 285.645167 
L 276.000843 285.645167 
L 276.000843 286.140965 
L 278.685185 286.181605 
L 278.685185 286.73088 
L 282.711699 286.699253 
L 282.711699 286.913165 
L 284.05387 286.913165 
L 284.05387 285.813508 
L 285.396041 285.813508 
L 285.396041 285.949371 
L 288.080383 286.052331 
L 288.080383 284.765969 
L 289.422554 284.765969 
L 289.422554 284.621094 
L 290.764725 284.621094 
L 290.764725 285.377735 
L 292.106897 285.377735 
L 292.106897 285.095722 
L 294.791239 285.103331 
L 294.791239 284.929847 
L 300.159923 284.874753 
L 300.159923 284.408373 
L 301.502095 284.408373 
L 301.502095 284.147019 
L 302.844266 284.147019 
L 302.844266 284.336105 
L 304.186437 284.336105 
L 304.186437 284.608936 
L 305.528608 284.608936 
L 305.528608 283.895571 
L 306.870779 283.895571 
L 306.870779 283.738368 
L 308.21295 283.738368 
L 308.21295 280.513069 
L 309.555121 280.513069 
L 309.555121 279.330645 
L 310.897293 279.330645 
L 310.897293 278.817163 
L 312.239464 278.817163 
L 312.239464 279.861046 
L 313.581635 279.861046 
L 313.581635 279.299783 
L 314.923806 279.299783 
L 314.923806 278.958042 
L 316.265977 278.958042 
L 316.265977 278.532302 
L 317.608148 278.532302 
L 317.608148 279.304204 
L 318.950319 279.304204 
L 318.950319 278.854955 
L 321.634662 278.747064 
L 321.634662 276.857863 
L 324.319004 276.923159 
L 324.319004 274.405274 
L 325.661175 274.405274 
L 325.661175 268.134623 
L 327.003346 268.134623 
L 327.003346 267.867445 
L 328.345517 267.867445 
L 328.345517 266.559233 
L 329.687688 266.559233 
L 329.687688 268.972841 
L 331.02986 268.972841 
L 331.02986 267.078922 
L 332.372031 267.078922 
L 332.372031 264.322426 
L 333.714202 264.322426 
L 333.714202 265.028395 
L 335.056373 265.028395 
L 335.056373 266.809109 
L 336.398544 266.809109 
L 336.398544 268.219133 
L 337.740715 268.219133 
L 337.740715 268.910435 
L 339.082886 268.910435 
L 339.082886 266.646975 
L 340.425058 266.646975 
L 340.425058 263.729025 
L 341.767229 263.729025 
L 341.767229 262.807784 
L 343.1094 262.807784 
L 343.1094 257.990517 
L 344.451571 257.990517 
L 344.451571 254.555175 
L 345.793742 254.555175 
L 345.793742 254.064819 
L 347.135913 254.064819 
L 347.135913 255.744486 
L 348.478084 255.744486 
L 348.478084 250.443324 
L 349.820256 250.443324 
L 349.820256 253.643159 
L 351.162427 253.643159 
L 351.162427 247.884119 
L 352.504598 247.884119 
L 352.504598 251.211868 
L 353.846769 251.211868 
L 353.846769 255.167323 
L 355.18894 255.167323 
L 355.18894 256.16606 
L 356.531111 256.16606 
L 356.531111 256.383501 
L 357.873282 256.383501 
L 357.873282 259.84911 
L 359.215454 259.84911 
L 359.215454 261.116682 
L 360.557625 261.116682 
L 360.557625 260.627219 
L 361.899796 260.627219 
L 361.899796 256.629465 
L 363.241967 256.629465 
L 363.241967 251.279799 
L 364.584138 251.279799 
L 364.584138 250.393799 
L 365.926309 250.393799 
L 365.926309 252.219914 
L 367.26848 252.219914 
L 367.26848 258.808501 
L 368.610652 258.808501 
L 368.610652 257.968667 
L 369.952823 257.968667 
L 369.952823 255.647435 
L 371.294994 255.647435 
L 371.294994 257.155488 
L 372.637165 257.155488 
L 372.637165 257.349037 
L 373.979336 257.349037 
L 373.979336 261.071791 
L 375.321507 261.071791 
L 375.321507 259.859228 
L 376.663678 259.859228 
L 376.663678 256.397316 
L 378.005849 256.397316 
L 378.005849 256.809454 
L 379.348021 256.809454 
L 379.348021 258.451116 
L 380.690192 258.451116 
L 380.690192 257.333648 
L 382.032363 257.333648 
L 382.032363 257.751397 
L 384.716705 257.707824 
L 384.716705 258.740101 
L 386.058876 258.740101 
L 386.058876 265.545235 
L 387.401047 265.545235 
L 387.401047 266.426176 
L 388.743219 266.426176 
L 388.743219 266.009915 
L 390.08539 266.009915 
L 390.08539 266.721708 
L 391.427561 266.721708 
L 391.427561 266.481354 
L 392.769732 266.481354 
L 392.769732 264.887728 
L 394.111903 264.887728 
L 394.111903 266.176386 
L 395.454074 266.176386 
L 395.454074 267.371988 
L 396.796245 267.371988 
L 396.796245 267.552529 
L 398.138417 267.552529 
L 398.138417 267.2689 
L 399.480588 267.2689 
L 399.480588 264.548114 
L 400.822759 264.548114 
L 400.822759 262.201673 
L 402.16493 262.201673 
L 402.16493 262.502561 
L 403.507101 262.502561 
L 403.507101 262.255236 
L 404.849272 262.255236 
L 404.849272 261.672079 
L 406.191443 261.672079 
L 406.191443 263.941832 
L 408.875786 263.975372 
L 408.875786 265.437004 
L 410.217957 265.437004 
L 410.217957 266.634519 
L 411.560128 266.634519 
L 411.560128 269.010505 
L 412.902299 269.010505 
L 412.902299 272.027333 
L 414.24447 272.027333 
L 414.24447 269.406871 
L 415.586641 269.406871 
L 415.586641 269.262803 
L 416.928812 269.262803 
L 416.928812 270.37211 
L 418.270984 270.37211 
L 418.270984 269.307567 
L 419.613155 269.307567 
L 419.613155 270.199305 
L 420.955326 270.199305 
L 420.955326 270.829563 
L 422.297497 270.829563 
L 422.297497 271.161228 
L 423.639668 271.161228 
L 423.639668 270.425162 
L 424.981839 270.425162 
L 424.981839 271.02494 
L 426.32401 271.02494 
L 426.32401 270.567997 
L 429.008353 270.596734 
L 429.008353 270.700162 
L 430.350524 270.700162 
L 430.350524 271.870343 
L 431.692695 271.870343 
L 431.692695 270.139153 
L 433.034866 270.139153 
L 433.034866 267.201351 
L 435.719208 267.291303 
L 435.719208 263.801505 
L 437.06138 263.801505 
L 437.06138 263.555286 
L 438.403551 263.555286 
L 438.403551 264.719515 
L 439.745722 264.719515 
L 439.745722 265.732791 
L 441.087893 265.732791 
L 441.087893 264.881267 
L 442.430064 264.881267 
L 442.430064 261.942147 
L 443.772235 261.942147 
L 443.772235 261.524356 
L 445.114406 261.524356 
L 445.114406 262.442366 
L 446.456578 262.442366 
L 446.456578 259.698751 
L 447.798749 259.698751 
L 447.798749 259.49789 
L 449.14092 259.49789 
L 449.14092 257.850021 
L 450.483091 257.850021 
L 450.483091 259.145565 
L 451.825262 259.145565 
L 451.825262 260.560945 
L 453.167433 260.560945 
L 453.167433 260.285011 
L 454.509604 260.285011 
L 454.509604 261.817422 
L 455.851775 261.817422 
L 455.851775 264.354437 
L 457.193947 264.354437 
L 457.193947 263.502233 
L 458.536118 263.502233 
L 458.536118 262.845151 
L 459.878289 262.845151 
L 459.878289 267.215252 
L 461.22046 267.215252 
L 461.22046 267.651961 
L 462.562631 267.651961 
L 462.562631 279.428971 
L 463.904802 279.428971 
L 463.904802 278.615537 
L 465.246973 278.615537 
L 465.246973 274.922114 
L 466.589145 274.922114 
L 466.589145 273.75002 
L 467.931316 273.75002 
L 467.931316 272.637994 
L 469.273487 272.637994 
L 469.273487 276.371843 
L 470.615658 276.371843 
L 470.615658 273.109348 
L 471.957829 273.109348 
L 471.957829 272.179137 
L 473.3 272.179137 
L 473.3 270.759889 
L 474.642171 270.759889 
L 474.642171 272.172548 
L 477.326514 272.238779 
L 477.326514 271.156425 
L 481.353027 271.076845 
L 481.353027 269.297662 
L 482.695198 269.297662 
L 482.695198 268.380247 
L 484.037369 268.380247 
L 484.037369 263.877003 
L 485.379541 263.877003 
L 485.379541 263.616543 
L 486.721712 263.616543 
L 486.721712 258.870055 
L 488.063883 258.870055 
L 488.063883 264.175426 
L 489.406054 264.175426 
L 489.406054 261.83111 
L 490.748225 261.83111 
L 490.748225 261.492006 
L 492.090396 261.492006 
L 492.090396 259.791424 
L 493.432567 259.791424 
L 493.432567 262.420601 
L 494.774738 262.420601 
L 494.774738 263.558176 
L 496.11691 263.558176 
L 496.11691 260.711899 
L 497.459081 260.711899 
L 497.459081 261.215094 
L 498.801252 261.215094 
L 498.801252 260.33428 
L 501.485594 260.28161 
L 501.485594 259.836442 
L 502.827765 259.836442 
L 502.827765 261.176282 
L 504.169936 261.176282 
L 504.169936 261.317713 
L 505.512108 261.317713 
L 505.512108 261.516109 
L 506.854279 261.516109 
L 506.854279 261.92102 
L 509.538621 261.955878 
L 509.538621 263.113646 
L 510.880792 263.113646 
L 510.880792 262.562117 
L 512.222963 262.562117 
L 512.222963 262.823768 
L 513.565134 262.823768 
L 513.565134 261.648401 
L 514.907306 261.648401 
L 514.907306 262.119713 
L 516.249477 262.119713 
L 516.249477 261.873748 
L 517.591648 261.873748 
L 517.591648 262.309011 
L 520.27599 262.38893 
L 520.27599 261.462419 
L 521.618161 261.462419 
L 521.618161 260.78812 
L 522.960332 260.78812 
L 522.960332 254.449324 
L 524.302504 254.449324 
L 524.302504 254.140997 
L 525.644675 254.140997 
L 525.644675 254.298965 
L 526.986846 254.298965 
L 526.986846 251.440105 
L 529.671188 251.366478 
L 529.671188 252.961336 
L 531.013359 252.961336 
L 531.013359 251.337656 
L 532.35553 251.337656 
L 532.35553 249.129926 
L 533.697701 249.129926 
L 533.697701 250.948941 
L 535.039873 250.948941 
L 535.039873 251.853561 
L 536.382044 251.853561 
L 536.382044 252.642764 
L 539.066386 252.582102 
L 539.066386 250.704805 
L 540.408557 250.704805 
L 540.408557 256.891584 
L 541.750728 256.891584 
L 541.750728 257.317324 
L 544.435071 257.38143 
L 544.435071 257.474485 
L 545.777242 257.474485 
L 545.777242 254.848794 
L 547.119413 254.848794 
L 547.119413 254.283407 
L 548.461584 254.283407 
L 548.461584 256.618115 
L 549.803755 256.618115 
L 549.803755 255.935314 
L 552.488097 255.937482 
L 552.488097 256.24819 
L 553.830269 256.24819 
L 553.830269 256.017699 
L 556.514611 256.029007 
L 556.514611 253.342909 
L 557.856782 253.342909 
L 557.856782 252.809107 
L 559.198953 252.809107 
L 559.198953 253.237058 
L 560.541124 253.237058 
L 560.541124 251.406607 
L 561.883295 251.406607 
L 561.883295 246.168956 
L 563.225467 246.168956 
L 563.225467 245.971198 
L 564.567638 245.971198 
L 564.567638 244.898961 
L 565.909809 244.898961 
L 565.909809 242.682814 
L 567.25198 242.682814 
L 567.25198 241.777387 
L 568.594151 241.777387 
L 568.594151 235.092812 
L 569.936322 235.092812 
L 569.936322 236.228858 
L 571.278493 236.228858 
L 571.278493 232.117942 
L 572.620665 232.117942 
L 572.620665 233.509771 
L 573.962836 233.509771 
L 573.962836 225.729154 
L 575.305007 225.729154 
L 575.305007 221.8977 
L 576.647178 221.8977 
L 576.647178 219.887941 
L 577.989349 219.887941 
L 577.989349 228.533048 
L 579.33152 228.533048 
L 579.33152 217.604245 
L 580.673691 217.604245 
L 580.673691 218.689066 
L 582.015862 218.689066 
L 582.015862 219.015885 
L 583.358034 219.015885 
L 583.358034 222.51665 
L 584.700205 222.51665 
L 584.700205 221.456911 
L 586.042376 221.456911 
L 586.042376 218.751938 
L 587.384547 218.751938 
L 587.384547 202.976196 
L 588.726718 202.976196 
L 588.726718 204.699181 
L 590.068889 204.699181 
L 590.068889 200.57547 
L 591.41106 200.57547 
L 591.41106 189.8159 
L 592.753232 189.8159 
L 592.753232 178.72067 
L 594.095403 178.72067 
L 594.095403 164.527034 
L 595.437574 164.527034 
L 595.437574 156.657484 
L 596.779745 156.657484 
L 596.779745 128.500448 
L 598.121916 128.500448 
L 598.121916 150.288294 
L 599.464087 150.288294 
L 599.464087 134.92707 
L 600.806258 134.92707 
L 600.806258 149.233741 
L 602.14843 149.233741 
L 602.14843 150.31363 
L 603.490601 150.31363 
L 603.490601 164.933942 
L 604.832772 164.933942 
L 604.832772 163.054732 
L 606.174943 163.054732 
L 606.174943 155.519951 
L 607.517114 155.519951 
L 607.517114 158.884046 
L 608.859285 158.884046 
L 608.859285 144.093906 
L 610.201456 144.093906 
L 610.201456 135.906379 
L 611.543628 135.906379 
L 611.543628 110.612454 
L 612.885799 110.612454 
L 612.885799 100.805243 
L 614.22797 100.805243 
L 614.22797 92.409841 
L 615.570141 92.409841 
L 615.570141 63.688183 
L 616.912312 63.688183 
L 616.912312 71.310705 
L 618.254483 71.310705 
L 618.254483 102.440912 
L 619.596654 102.440912 
L 619.596654 109.610274 
L 620.938825 109.610274 
L 620.938825 86.808684 
L 622.280997 86.808684 
L 622.280997 93.593796 
L 623.623168 93.593796 
L 623.623168 68.087914 
L 624.965339 68.087914 
L 624.965339 58.005491 
L 626.30751 58.005491 
L 626.30751 64.375915 
L 627.649681 64.375915 
L 627.649681 56.251431 
L 628.991852 56.251431 
L 628.991852 57.334296 
L 630.334023 57.334296 
L 630.334023 78.176841 
L 631.676195 78.176841 
L 631.676195 63.91166 
L 633.018366 63.91166 
L 633.018366 51.727358 
L 634.360537 51.727358 
L 634.360537 50.44699 
L 637.044879 50.350151 
L 637.044879 54.624605 
L 638.38705 54.624605 
L 638.38705 46.478441 
L 639.729221 46.478441 
L 639.729221 33.707284 
L 641.071393 33.707284 
L 641.071393 45.95888 
L 642.413564 45.95888 
L 642.413564 61.174081 
L 643.755735 61.174081 
L 643.755735 83.937411 
L 645.097906 83.937411 
L 645.097906 71.594503 
L 646.440077 71.594503 
L 646.440077 73.603073 
L 647.782248 73.603073 
L 647.782248 60.738138 
L 649.124419 60.738138 
L 649.124419 57.070477 
L 650.466591 57.070477 
L 650.466591 50.882763 
L 651.808762 50.882763 
L 651.808762 60.144949 
L 653.150933 60.144949 
L 653.150933 89.168771 
L 654.493104 89.168771 
L 654.493104 116.061977 
L 655.835275 116.061977 
L 655.835275 128.015533 
L 657.177446 128.015533 
L 657.177446 153.648308 
L 658.519617 153.648308 
L 658.519617 134.469786 
L 659.861788 134.469786 
L 659.861788 154.102615 
L 661.20396 154.102615 
L 661.20396 145.536918 
L 662.546131 145.536918 
L 662.546131 144.589491 
L 663.888302 144.589491 
L 663.888302 158.918182 
L 665.230473 158.918182 
L 665.230473 145.358672 
L 666.572644 145.358672 
L 666.572644 135.316677 
L 667.914815 135.316677 
L 667.914815 138.470728 
L 669.256986 138.470728 
L 669.256986 150.376588 
L 670.599158 150.376588 
L 670.599158 163.455221 
L 671.941329 163.455221 
L 671.941329 166.885845 
L 673.2835 166.885845 
L 673.2835 154.914562 
L 674.625671 154.914562 
L 674.625671 158.824617 
L 675.967842 158.824617 
L 675.967842 151.290007 
L 677.310013 151.290007 
L 677.310013 157.540126 
L 678.652184 157.540126 
L 678.652184 158.915206 
L 679.994356 158.915206 
L 679.994356 162.439353 
L 681.336527 162.439353 
L 681.336527 167.818223 
L 682.678698 167.818223 
L 682.678698 170.391414 
L 684.020869 170.391414 
L 684.020869 164.091601 
L 685.36304 164.091601 
L 685.36304 151.052374 
L 686.705211 151.052374 
L 686.705211 131.338945 
L 688.047382 131.338945 
L 688.047382 124.296987 
L 689.389554 124.296987 
L 689.389554 139.265118 
L 690.731725 139.265118 
L 690.731725 119.336503 
L 692.073896 119.336503 
L 692.073896 104.425973 
L 693.416067 104.425973 
L 693.416067 112.569586 
L 694.758238 112.569586 
L 694.758238 101.352691 
L 696.100409 101.352691 
L 696.100409 111.038875 
L 697.44258 111.038875 
L 697.44258 93.379416 
L 698.784751 93.379416 
L 698.784751 98.427259 
L 700.126923 98.427259 
L 700.126923 92.848718 
L 701.469094 92.848718 
L 701.469094 101.274642 
L 702.811265 101.274642 
L 702.811265 91.6918 
L 704.153436 91.6918 
L 704.153436 81.319074 
L 705.495607 81.319074 
L 705.495607 105.510325 
L 706.837778 105.510325 
L 706.837778 109.479044 
L 708.179949 109.479044 
L 708.179949 101.285907 
L 709.522121 101.285907 
L 709.522121 100.47192 
L 710.864292 100.47192 
L 710.864292 119.015082 
L 712.206463 119.015082 
L 712.206463 110.566585 
L 713.548634 110.566585 
L 713.548634 117.820245 
L 714.890805 117.820245 
L 714.890805 124.878018 
L 716.232976 124.878018 
L 716.232976 98.501567 
L 717.575147 98.501567 
L 717.575147 82.438073 
L 718.917319 82.438073 
L 718.917319 72.399393 
L 720.25949 72.399393 
L 720.25949 57.160684 
L 721.601661 57.160684 
L 721.601661 57.391387 
L 722.943832 57.391387 
L 722.943832 39.756117 
L 724.286003 39.756117 
L 724.286003 20.552727 
L 725.628174 20.552727 
L 725.628174 40.899347 
L 726.970345 40.899347 
L 726.970345 44.861774 
L 728.312517 44.861774 
L 728.312517 36.767771 
L 729.654688 36.767771 
L 729.654688 41.952667 
L 730.996859 41.952667 
L 730.996859 40.19984 
L 732.33903 40.19984 
L 732.33903 32.329525 
L 733.681201 32.329525 
L 733.681201 25.172874 
L 735.023372 25.172874 
L 735.023372 27.535554 
L 736.365543 27.535554 
L 736.365543 45.59682 
L 737.707714 45.59682 
L 737.707714 54.26569 
L 739.049886 54.26569 
L 739.049886 62.051451 
L 740.392057 62.051451 
L 740.392057 50.854536 
L 741.734228 50.854536 
L 741.734228 57.839701 
L 743.076399 57.839701 
L 743.076399 58.105475 
L 744.41857 58.105475 
L 744.41857 92.011265 
L 745.760741 92.011265 
L 745.760741 86.095744 
L 747.102912 86.095744 
L 747.102912 101.008145 
L 748.445084 101.008145 
L 748.445084 102.625109 
L 749.787255 102.625109 
L 749.787255 98.793698 
L 751.129426 98.793698 
L 751.129426 102.913371 
L 752.471597 102.913371 
L 752.471597 94.670327 
L 753.813768 94.670327 
L 753.813768 86.837634 
L 755.155939 86.837634 
L 755.155939 99.036517 
L 756.49811 99.036517 
L 756.49811 104.782634 
L 757.840282 104.782634 
L 757.840282 103.964608 
L 759.182453 103.964608 
L 759.182453 118.083809 
L 760.524624 118.083809 
L 760.524624 123.42391 
L 761.866795 123.42391 
L 761.866795 114.660157 
L 763.208966 114.660157 
L 763.208966 117.973707 
L 764.551137 117.973707 
L 764.551137 121.225958 
L 765.893308 121.225958 
L 765.893308 146.309712 
L 767.23548 146.309712 
L 767.23548 145.468136 
L 768.577651 145.468136 
L 768.577651 143.478527 
L 769.919822 143.478527 
L 769.919822 140.197709 
L 771.261993 140.197709 
L 771.261993 144.47399 
L 772.604164 144.47399 
L 772.604164 125.247645 
L 773.946335 125.247645 
L 773.946335 113.779004 
L 775.288506 113.779004 
L 775.288506 121.14183 
L 776.630678 121.14183 
L 776.630678 120.378047 
L 777.972849 120.378047 
L 777.972849 128.944935 
L 779.31502 128.944935 
L 779.31502 138.226507 
L 780.657191 138.226507 
L 780.657191 142.8637 
L 781.999362 142.8637 
L 781.999362 135.159006 
L 783.341533 135.159006 
L 783.341533 112.565122 
L 784.683704 112.565122 
L 784.683704 135.000272 
L 786.025875 135.000272 
L 786.025875 139.713602 
L 787.368047 139.713602 
L 787.368047 133.739247 
L 788.710218 133.739247 
L 788.710218 140.615288 
L 790.052389 140.615288 
L 790.052389 126.532944 
L 791.39456 126.532944 
L 791.39456 121.902552 
L 792.736731 121.902552 
L 792.736731 121.263409 
L 794.078902 121.263409 
L 794.078902 112.924334 
L 795.421073 112.924334 
L 795.421073 101.099669 
L 796.763245 101.099669 
L 796.763245 107.802311 
L 798.105416 107.802311 
L 798.105416 104.034623 
L 799.447587 104.034623 
L 799.447587 117.78815 
L 800.789758 117.78815 
L 800.789758 119.499147 
L 802.131929 119.499147 
L 802.131929 130.915245 
L 803.4741 130.915245 
L 803.4741 128.942767 
L 804.816271 128.942767 
L 804.816271 127.924561 
L 806.158443 127.924561 
L 806.158443 129.164629 
L 807.500614 129.164629 
L 807.500614 133.621578 
L 808.842785 133.621578 
L 808.842785 134.541034 
L 810.184956 134.541034 
L 810.184956 141.292052 
L 811.527127 141.292052 
L 811.527127 141.011484 
L 812.869298 141.011484 
L 812.869298 148.298429 
L 814.211469 148.298429 
L 814.211469 173.113051 
L 815.553641 173.113051 
L 815.553641 178.403756 
L 816.895812 178.403756 
L 816.895812 168.429607 
L 818.237983 168.429607 
L 818.237983 179.467236 
L 819.580154 179.467236 
L 819.580154 176.368447 
L 820.922325 176.368447 
L 820.922325 175.413454 
L 822.264496 175.413454 
L 822.264496 179.901181 
L 823.606667 179.901181 
L 823.606667 166.567018 
L 824.948838 166.567018 
L 824.948838 172.032567 
L 826.29101 172.032567 
L 826.29101 174.279364 
L 827.633181 174.279364 
L 827.633181 173.055492 
L 828.975352 173.055492 
L 828.975352 180.89758 
L 830.317523 180.89758 
L 830.317523 207.063562 
L 831.659694 207.063562 
L 831.659694 214.522164 
L 833.001865 214.522164 
L 833.001865 213.894967 
L 834.344036 213.894967 
L 834.344036 211.743903 
L 835.686208 211.743903 
L 835.686208 212.034078 
L 837.028379 212.034078 
L 837.028379 216.005008 
L 838.37055 216.005008 
L 838.37055 219.66591 
L 839.712721 219.66591 
L 839.712721 215.596994 
L 841.054892 215.596994 
L 841.054892 209.413701 
L 842.397063 209.413701 
L 842.397063 216.598537 
L 843.739234 216.598537 
L 843.739234 213.951888 
L 845.081406 213.951888 
L 845.081406 213.079024 
L 846.423577 213.079024 
L 846.423577 202.65129 
L 847.765748 202.65129 
L 847.765748 205.905538 
L 849.107919 205.905538 
L 849.107919 210.982841 
L 850.45009 210.982841 
L 850.45009 200.250393 
L 851.792261 200.250393 
L 851.792261 202.346406 
L 853.134432 202.346406 
L 853.134432 205.282338 
L 854.476604 205.282338 
L 854.476604 202.876467 
L 855.818775 202.876467 
L 855.818775 199.53656 
L 857.160946 199.53656 
L 857.160946 197.465416 
L 858.503117 197.465416 
L 858.503117 199.892074 
L 859.845288 199.892074 
L 859.845288 212.785745 
L 861.187459 212.785745 
L 861.187459 210.406401 
L 862.52963 210.406401 
L 862.52963 209.577451 
L 863.871801 209.577451 
L 863.871801 218.282965 
L 865.213973 218.282965 
L 865.213973 216.16761 
L 866.556144 216.16761 
L 866.556144 217.071974 
L 867.898315 217.071974 
L 867.898315 221.443053 
L 869.240486 221.443053 
L 869.240486 210.471655 
L 870.582657 210.471655 
L 870.582657 206.198817 
L 871.924828 206.198817 
L 871.924828 217.668181 
L 873.266999 217.668181 
L 873.266999 218.853495 
L 874.609171 218.853495 
L 874.609171 222.715556 
L 875.951342 222.715556 
L 875.951342 220.911292 
L 877.293513 220.911292 
L 877.293513 220.175438 
L 878.635684 220.175438 
L 878.635684 218.805289 
L 879.977855 218.805289 
L 879.977855 217.932085 
L 881.320026 217.932085 
L 881.320026 216.555261 
L 882.662197 216.555261 
L 882.662197 218.742884 
L 884.004369 218.742884 
L 884.004369 219.957275 
L 885.34654 219.957275 
L 885.34654 220.353089 
L 886.688711 220.353089 
L 886.688711 219.215343 
L 888.030882 219.215343 
L 888.030882 219.892957 
L 889.373053 219.892957 
L 889.373053 219.180655 
L 890.715224 219.180655 
L 890.715224 215.143792 
L 892.057395 215.143792 
L 892.057395 213.698527 
L 893.399567 213.698527 
L 893.399567 215.715683 
L 894.741738 215.715683 
L 894.741738 210.87512 
L 896.083909 210.87512 
L 896.083909 222.576335 
L 897.42608 222.576335 
L 897.42608 229.164794 
L 898.768251 229.164794 
L 898.768251 230.874983 
L 900.110422 230.874983 
L 900.110422 230.473346 
L 901.452593 230.473346 
L 901.452593 232.267408 
L 902.794764 232.267408 
L 902.794764 230.795021 
L 905.101932 230.688428 
L 905.101932 230.688428 
" clip-path="url(#p8e48533afb)" style="fill: none; stroke: #3572c6; stroke-width: 1.2; stroke-linecap: square"/>
   </g>
   <g id="patch_3">
    <path d="M 52.88375 300.96 
L 52.88375 7.2 
" style="fill: none; stroke: #899ab8; stroke-width: 1.12; stroke-linejoin: miter; stroke-linecap: square"/>
   </g>
   <g id="patch_4">
    <path d="M 945.68375 300.96 
L 945.68375 7.2 
" style="fill: none; stroke: #899ab8; stroke-width: 1.12; stroke-linejoin: miter; stroke-linecap: square"/>
   </g>
   <g id="patch_5">
    <path d="M 52.88375 300.96 
L 945.68375 300.96 
" style="fill: none; stroke: #899ab8; stroke-width: 1.12; stroke-linejoin: miter; stroke-linecap: square"/>
   </g>
   <g id="patch_6">
    <path d="M 52.88375 7.2 
L 945.68375 7.2 
" style="fill: none; stroke: #899ab8; stroke-width: 1.12; stroke-linejoin: miter; stroke-linecap: square"/>
   </g>
  </g>
 </g>
 <defs>
  <clipPath id="p8e48533afb">
   <rect x="52.88375" y="7.2" width="892.8" height="293.76"/>
  </clipPath>
 </defs>
</svg>
