<?xml version="1.0" encoding="utf-8" standalone="no"?>
<!DOCTYPE svg PUBLIC "-//W3C//DTD SVG 1.1//EN"
  "http://www.w3.org/Graphics/SVG/1.1/DTD/svg11.dtd">
<svg xmlns:xlink="http://www.w3.org/1999/xlink" width="934.976pt" height="358.290693pt" viewBox="0 0 934.976 358.290693" xmlns="http://www.w3.org/2000/svg" version="1.1">
 <metadata>
  <rdf:RDF xmlns:dc="http://purl.org/dc/elements/1.1/" xmlns:cc="http://creativecommons.org/ns#" xmlns:rdf="http://www.w3.org/1999/02/22-rdf-syntax-ns#">
   <cc:Work>
    <dc:type rdf:resource="http://purl.org/dc/dcmitype/StillImage"/>
    <dc:date>2025-07-20T07:53:46.755935</dc:date>
    <dc:format>image/svg+xml</dc:format>
    <dc:creator>
     <cc:Agent>
      <dc:title>Matplotlib v3.10.3, https://matplotlib.org/</dc:title>
     </cc:Agent>
    </dc:creator>
   </cc:Work>
  </rdf:RDF>
 </metadata>
 <defs>
  <style type="text/css">*{stroke-linejoin: round; stroke-linecap: butt}</style>
 </defs>
 <g id="figure_1">
  <g id="patch_1">
   <path d="M 0 358.290693 
L 934.976 358.290693 
L 934.976 0 
L 0 0 
z
" style="fill: #373e4b"/>
  </g>
  <g id="axes_1">
   <g id="patch_2">
    <path d="M 34.976 300.96 
L 927.776 300.96 
L 927.776 7.2 
L 34.976 7.2 
z
" style="fill: #373e4b"/>
   </g>
   <g id="matplotlib.axis_1">
    <g id="xtick_1">
     <g id="line2d_1">
      <path d="M 139.741729 300.96 
L 139.741729 7.2 
" clip-path="url(#p8b7cbbe13c)" style="fill: none; stroke: #546379; stroke-width: 1.12; stroke-linecap: square"/>
     </g>
     <g id="line2d_2"/>
     <g id="text_1">
      <!-- 2012 -->
      <g style="fill: #b1bed6" transform="translate(110.660689 330.884854) rotate(-30) scale(0.126 -0.126)">
       <defs>
        <path id="DejaVuSans-32" d="M 1228 531 
L 3431 531 
L 3431 0 
L 469 0 
L 469 531 
Q 828 903 1448 1529 
Q 2069 2156 2228 2338 
Q 2531 2678 2651 2914 
Q 2772 3150 2772 3378 
Q 2772 3750 2511 3984 
Q 2250 4219 1831 4219 
Q 1534 4219 1204 4116 
Q 875 4013 500 3803 
L 500 4441 
Q 881 4594 1212 4672 
Q 1544 4750 1819 4750 
Q 2544 4750 2975 4387 
Q 3406 4025 3406 3419 
Q 3406 3131 3298 2873 
Q 3191 2616 2906 2266 
Q 2828 2175 2409 1742 
Q 1991 1309 1228 531 
z
" transform="scale(0.015625)"/>
        <path id="DejaVuSans-30" d="M 2034 4250 
Q 1547 4250 1301 3770 
Q 1056 3291 1056 2328 
Q 1056 1369 1301 889 
Q 1547 409 2034 409 
Q 2525 409 2770 889 
Q 3016 1369 3016 2328 
Q 3016 3291 2770 3770 
Q 2525 4250 2034 4250 
z
M 2034 4750 
Q 2819 4750 3233 4129 
Q 3647 3509 3647 2328 
Q 3647 1150 3233 529 
Q 2819 -91 2034 -91 
Q 1250 -91 836 529 
Q 422 1150 422 2328 
Q 422 3509 836 4129 
Q 1250 4750 2034 4750 
z
" transform="scale(0.015625)"/>
        <path id="DejaVuSans-31" d="M 794 531 
L 1825 531 
L 1825 4091 
L 703 3866 
L 703 4441 
L 1819 4666 
L 2450 4666 
L 2450 531 
L 3481 531 
L 3481 0 
L 794 0 
L 794 531 
z
" transform="scale(0.015625)"/>
       </defs>
       <use xlink:href="#DejaVuSans-32"/>
       <use xlink:href="#DejaVuSans-30" transform="translate(63.623047 0)"/>
       <use xlink:href="#DejaVuSans-31" transform="translate(127.246094 0)"/>
       <use xlink:href="#DejaVuSans-32" transform="translate(190.869141 0)"/>
      </g>
     </g>
    </g>
    <g id="xtick_2">
     <g id="line2d_3">
      <path d="M 250.138056 300.96 
L 250.138056 7.2 
" clip-path="url(#p8b7cbbe13c)" style="fill: none; stroke: #546379; stroke-width: 1.12; stroke-linecap: square"/>
     </g>
     <g id="line2d_4"/>
     <g id="text_2">
      <!-- 2014 -->
      <g style="fill: #b1bed6" transform="translate(221.057016 330.884854) rotate(-30) scale(0.126 -0.126)">
       <defs>
        <path id="DejaVuSans-34" d="M 2419 4116 
L 825 1625 
L 2419 1625 
L 2419 4116 
z
M 2253 4666 
L 3047 4666 
L 3047 1625 
L 3713 1625 
L 3713 1100 
L 3047 1100 
L 3047 0 
L 2419 0 
L 2419 1100 
L 313 1100 
L 313 1709 
L 2253 4666 
z
" transform="scale(0.015625)"/>
       </defs>
       <use xlink:href="#DejaVuSans-32"/>
       <use xlink:href="#DejaVuSans-30" transform="translate(63.623047 0)"/>
       <use xlink:href="#DejaVuSans-31" transform="translate(127.246094 0)"/>
       <use xlink:href="#DejaVuSans-34" transform="translate(190.869141 0)"/>
      </g>
     </g>
    </g>
    <g id="xtick_3">
     <g id="line2d_5">
      <path d="M 360.383362 300.96 
L 360.383362 7.2 
" clip-path="url(#p8b7cbbe13c)" style="fill: none; stroke: #546379; stroke-width: 1.12; stroke-linecap: square"/>
     </g>
     <g id="line2d_6"/>
     <g id="text_3">
      <!-- 2016 -->
      <g style="fill: #b1bed6" transform="translate(331.302322 330.884854) rotate(-30) scale(0.126 -0.126)">
       <defs>
        <path id="DejaVuSans-36" d="M 2113 2584 
Q 1688 2584 1439 2293 
Q 1191 2003 1191 1497 
Q 1191 994 1439 701 
Q 1688 409 2113 409 
Q 2538 409 2786 701 
Q 3034 994 3034 1497 
Q 3034 2003 2786 2293 
Q 2538 2584 2113 2584 
z
M 3366 4563 
L 3366 3988 
Q 3128 4100 2886 4159 
Q 2644 4219 2406 4219 
Q 1781 4219 1451 3797 
Q 1122 3375 1075 2522 
Q 1259 2794 1537 2939 
Q 1816 3084 2150 3084 
Q 2853 3084 3261 2657 
Q 3669 2231 3669 1497 
Q 3669 778 3244 343 
Q 2819 -91 2113 -91 
Q 1303 -91 875 529 
Q 447 1150 447 2328 
Q 447 3434 972 4092 
Q 1497 4750 2381 4750 
Q 2619 4750 2861 4703 
Q 3103 4656 3366 4563 
z
" transform="scale(0.015625)"/>
       </defs>
       <use xlink:href="#DejaVuSans-32"/>
       <use xlink:href="#DejaVuSans-30" transform="translate(63.623047 0)"/>
       <use xlink:href="#DejaVuSans-31" transform="translate(127.246094 0)"/>
       <use xlink:href="#DejaVuSans-36" transform="translate(190.869141 0)"/>
      </g>
     </g>
    </g>
    <g id="xtick_4">
     <g id="line2d_7">
      <path d="M 470.779689 300.96 
L 470.779689 7.2 
" clip-path="url(#p8b7cbbe13c)" style="fill: none; stroke: #546379; stroke-width: 1.12; stroke-linecap: square"/>
     </g>
     <g id="line2d_8"/>
     <g id="text_4">
      <!-- 2018 -->
      <g style="fill: #b1bed6" transform="translate(441.698649 330.884854) rotate(-30) scale(0.126 -0.126)">
       <defs>
        <path id="DejaVuSans-38" d="M 2034 2216 
Q 1584 2216 1326 1975 
Q 1069 1734 1069 1313 
Q 1069 891 1326 650 
Q 1584 409 2034 409 
Q 2484 409 2743 651 
Q 3003 894 3003 1313 
Q 3003 1734 2745 1975 
Q 2488 2216 2034 2216 
z
M 1403 2484 
Q 997 2584 770 2862 
Q 544 3141 544 3541 
Q 544 4100 942 4425 
Q 1341 4750 2034 4750 
Q 2731 4750 3128 4425 
Q 3525 4100 3525 3541 
Q 3525 3141 3298 2862 
Q 3072 2584 2669 2484 
Q 3125 2378 3379 2068 
Q 3634 1759 3634 1313 
Q 3634 634 3220 271 
Q 2806 -91 2034 -91 
Q 1263 -91 848 271 
Q 434 634 434 1313 
Q 434 1759 690 2068 
Q 947 2378 1403 2484 
z
M 1172 3481 
Q 1172 3119 1398 2916 
Q 1625 2713 2034 2713 
Q 2441 2713 2670 2916 
Q 2900 3119 2900 3481 
Q 2900 3844 2670 4047 
Q 2441 4250 2034 4250 
Q 1625 4250 1398 4047 
Q 1172 3844 1172 3481 
z
" transform="scale(0.015625)"/>
       </defs>
       <use xlink:href="#DejaVuSans-32"/>
       <use xlink:href="#DejaVuSans-30" transform="translate(63.623047 0)"/>
       <use xlink:href="#DejaVuSans-31" transform="translate(127.246094 0)"/>
       <use xlink:href="#DejaVuSans-38" transform="translate(190.869141 0)"/>
      </g>
     </g>
    </g>
    <g id="xtick_5">
     <g id="line2d_9">
      <path d="M 581.024994 300.96 
L 581.024994 7.2 
" clip-path="url(#p8b7cbbe13c)" style="fill: none; stroke: #546379; stroke-width: 1.12; stroke-linecap: square"/>
     </g>
     <g id="line2d_10"/>
     <g id="text_5">
      <!-- 2020 -->
      <g style="fill: #b1bed6" transform="translate(551.943955 330.884854) rotate(-30) scale(0.126 -0.126)">
       <use xlink:href="#DejaVuSans-32"/>
       <use xlink:href="#DejaVuSans-30" transform="translate(63.623047 0)"/>
       <use xlink:href="#DejaVuSans-32" transform="translate(127.246094 0)"/>
       <use xlink:href="#DejaVuSans-30" transform="translate(190.869141 0)"/>
      </g>
     </g>
    </g>
    <g id="xtick_6">
     <g id="line2d_11">
      <path d="M 691.421321 300.96 
L 691.421321 7.2 
" clip-path="url(#p8b7cbbe13c)" style="fill: none; stroke: #546379; stroke-width: 1.12; stroke-linecap: square"/>
     </g>
     <g id="line2d_12"/>
     <g id="text_6">
      <!-- 2022 -->
      <g style="fill: #b1bed6" transform="translate(662.340282 330.884854) rotate(-30) scale(0.126 -0.126)">
       <use xlink:href="#DejaVuSans-32"/>
       <use xlink:href="#DejaVuSans-30" transform="translate(63.623047 0)"/>
       <use xlink:href="#DejaVuSans-32" transform="translate(127.246094 0)"/>
       <use xlink:href="#DejaVuSans-32" transform="translate(190.869141 0)"/>
      </g>
     </g>
    </g>
    <g id="xtick_7">
     <g id="line2d_13">
      <path d="M 801.666627 300.96 
L 801.666627 7.2 
" clip-path="url(#p8b7cbbe13c)" style="fill: none; stroke: #546379; stroke-width: 1.12; stroke-linecap: square"/>
     </g>
     <g id="line2d_14"/>
     <g id="text_7">
      <!-- 2024 -->
      <g style="fill: #b1bed6" transform="translate(772.585587 330.884854) rotate(-30) scale(0.126 -0.126)">
       <use xlink:href="#DejaVuSans-32"/>
       <use xlink:href="#DejaVuSans-30" transform="translate(63.623047 0)"/>
       <use xlink:href="#DejaVuSans-32" transform="translate(127.246094 0)"/>
       <use xlink:href="#DejaVuSans-34" transform="translate(190.869141 0)"/>
      </g>
     </g>
    </g>
    <g id="xtick_8">
     <g id="line2d_15">
      <path d="M 912.062954 300.96 
L 912.062954 7.2 
" clip-path="url(#p8b7cbbe13c)" style="fill: none; stroke: #546379; stroke-width: 1.12; stroke-linecap: square"/>
     </g>
     <g id="line2d_16"/>
     <g id="text_8">
      <!-- 2026 -->
      <g style="fill: #b1bed6" transform="translate(882.981914 330.884854) rotate(-30) scale(0.126 -0.126)">
       <use xlink:href="#DejaVuSans-32"/>
       <use xlink:href="#DejaVuSans-30" transform="translate(63.623047 0)"/>
       <use xlink:href="#DejaVuSans-32" transform="translate(127.246094 0)"/>
       <use xlink:href="#DejaVuSans-36" transform="translate(190.869141 0)"/>
      </g>
     </g>
    </g>
    <g id="text_9">
     <!-- Date -->
     <g style="fill: #b1bed6" transform="translate(464.166875 348.095943) scale(0.144 -0.144)">
      <defs>
       <path id="DejaVuSans-44" d="M 1259 4147 
L 1259 519 
L 2022 519 
Q 2988 519 3436 956 
Q 3884 1394 3884 2338 
Q 3884 3275 3436 3711 
Q 2988 4147 2022 4147 
L 1259 4147 
z
M 628 4666 
L 1925 4666 
Q 3281 4666 3915 4102 
Q 4550 3538 4550 2338 
Q 4550 1131 3912 565 
Q 3275 0 1925 0 
L 628 0 
L 628 4666 
z
" transform="scale(0.015625)"/>
       <path id="DejaVuSans-61" d="M 2194 1759 
Q 1497 1759 1228 1600 
Q 959 1441 959 1056 
Q 959 750 1161 570 
Q 1363 391 1709 391 
Q 2188 391 2477 730 
Q 2766 1069 2766 1631 
L 2766 1759 
L 2194 1759 
z
M 3341 1997 
L 3341 0 
L 2766 0 
L 2766 531 
Q 2569 213 2275 61 
Q 1981 -91 1556 -91 
Q 1019 -91 701 211 
Q 384 513 384 1019 
Q 384 1609 779 1909 
Q 1175 2209 1959 2209 
L 2766 2209 
L 2766 2266 
Q 2766 2663 2505 2880 
Q 2244 3097 1772 3097 
Q 1472 3097 1187 3025 
Q 903 2953 641 2809 
L 641 3341 
Q 956 3463 1253 3523 
Q 1550 3584 1831 3584 
Q 2591 3584 2966 3190 
Q 3341 2797 3341 1997 
z
" transform="scale(0.015625)"/>
       <path id="DejaVuSans-74" d="M 1172 4494 
L 1172 3500 
L 2356 3500 
L 2356 3053 
L 1172 3053 
L 1172 1153 
Q 1172 725 1289 603 
Q 1406 481 1766 481 
L 2356 481 
L 2356 0 
L 1766 0 
Q 1100 0 847 248 
Q 594 497 594 1153 
L 594 3053 
L 172 3053 
L 172 3500 
L 594 3500 
L 594 4494 
L 1172 4494 
z
" transform="scale(0.015625)"/>
       <path id="DejaVuSans-65" d="M 3597 1894 
L 3597 1613 
L 953 1613 
Q 991 1019 1311 708 
Q 1631 397 2203 397 
Q 2534 397 2845 478 
Q 3156 559 3463 722 
L 3463 178 
Q 3153 47 2828 -22 
Q 2503 -91 2169 -91 
Q 1331 -91 842 396 
Q 353 884 353 1716 
Q 353 2575 817 3079 
Q 1281 3584 2069 3584 
Q 2775 3584 3186 3129 
Q 3597 2675 3597 1894 
z
M 3022 2063 
Q 3016 2534 2758 2815 
Q 2500 3097 2075 3097 
Q 1594 3097 1305 2825 
Q 1016 2553 972 2059 
L 3022 2063 
z
" transform="scale(0.015625)"/>
      </defs>
      <use xlink:href="#DejaVuSans-44"/>
      <use xlink:href="#DejaVuSans-61" transform="translate(77.001953 0)"/>
      <use xlink:href="#DejaVuSans-74" transform="translate(138.28125 0)"/>
      <use xlink:href="#DejaVuSans-65" transform="translate(177.490234 0)"/>
     </g>
    </g>
   </g>
   <g id="matplotlib.axis_2">
    <g id="ytick_1">
     <g id="line2d_17">
      <path d="M 34.976 255.2876 
L 927.776 255.2876 
" clip-path="url(#p8b7cbbe13c)" style="fill: none; stroke: #546379; stroke-width: 1.12; stroke-linecap: square"/>
     </g>
     <g id="line2d_18"/>
     <g id="text_10">
      <!-- $\mathdefault{10^{0}}$ -->
      <g style="fill: #b1bed6" transform="translate(7.2 260.074615) scale(0.126 -0.126)">
       <use xlink:href="#DejaVuSans-31" transform="translate(0 0.765625)"/>
       <use xlink:href="#DejaVuSans-30" transform="translate(63.623047 0.765625)"/>
       <use xlink:href="#DejaVuSans-30" transform="translate(128.203125 39.046875) scale(0.7)"/>
      </g>
     </g>
    </g>
    <g id="ytick_2">
     <g id="line2d_19">
      <path d="M 34.976 209.048601 
L 927.776 209.048601 
" clip-path="url(#p8b7cbbe13c)" style="fill: none; stroke: #546379; stroke-width: 1.12; stroke-linecap: square"/>
     </g>
     <g id="line2d_20"/>
     <g id="text_11">
      <!-- $\mathdefault{10^{1}}$ -->
      <g style="fill: #b1bed6" transform="translate(7.2 213.835617) scale(0.126 -0.126)">
       <use xlink:href="#DejaVuSans-31" transform="translate(0 0.684375)"/>
       <use xlink:href="#DejaVuSans-30" transform="translate(63.623047 0.684375)"/>
       <use xlink:href="#DejaVuSans-31" transform="translate(128.203125 38.965625) scale(0.7)"/>
      </g>
     </g>
    </g>
    <g id="ytick_3">
     <g id="line2d_21">
      <path d="M 34.976 162.809603 
L 927.776 162.809603 
" clip-path="url(#p8b7cbbe13c)" style="fill: none; stroke: #546379; stroke-width: 1.12; stroke-linecap: square"/>
     </g>
     <g id="line2d_22"/>
     <g id="text_12">
      <!-- $\mathdefault{10^{2}}$ -->
      <g style="fill: #b1bed6" transform="translate(7.2 167.596618) scale(0.126 -0.126)">
       <use xlink:href="#DejaVuSans-31" transform="translate(0 0.765625)"/>
       <use xlink:href="#DejaVuSans-30" transform="translate(63.623047 0.765625)"/>
       <use xlink:href="#DejaVuSans-32" transform="translate(128.203125 39.046875) scale(0.7)"/>
      </g>
     </g>
    </g>
    <g id="ytick_4">
     <g id="line2d_23">
      <path d="M 34.976 116.570604 
L 927.776 116.570604 
" clip-path="url(#p8b7cbbe13c)" style="fill: none; stroke: #546379; stroke-width: 1.12; stroke-linecap: square"/>
     </g>
     <g id="line2d_24"/>
     <g id="text_13">
      <!-- $\mathdefault{10^{3}}$ -->
      <g style="fill: #b1bed6" transform="translate(7.2 121.35762) scale(0.126 -0.126)">
       <defs>
        <path id="DejaVuSans-33" d="M 2597 2516 
Q 3050 2419 3304 2112 
Q 3559 1806 3559 1356 
Q 3559 666 3084 287 
Q 2609 -91 1734 -91 
Q 1441 -91 1130 -33 
Q 819 25 488 141 
L 488 750 
Q 750 597 1062 519 
Q 1375 441 1716 441 
Q 2309 441 2620 675 
Q 2931 909 2931 1356 
Q 2931 1769 2642 2001 
Q 2353 2234 1838 2234 
L 1294 2234 
L 1294 2753 
L 1863 2753 
Q 2328 2753 2575 2939 
Q 2822 3125 2822 3475 
Q 2822 3834 2567 4026 
Q 2313 4219 1838 4219 
Q 1578 4219 1281 4162 
Q 984 4106 628 3988 
L 628 4550 
Q 988 4650 1302 4700 
Q 1616 4750 1894 4750 
Q 2613 4750 3031 4423 
Q 3450 4097 3450 3541 
Q 3450 3153 3228 2886 
Q 3006 2619 2597 2516 
z
" transform="scale(0.015625)"/>
       </defs>
       <use xlink:href="#DejaVuSans-31" transform="translate(0 0.765625)"/>
       <use xlink:href="#DejaVuSans-30" transform="translate(63.623047 0.765625)"/>
       <use xlink:href="#DejaVuSans-33" transform="translate(128.203125 39.046875) scale(0.7)"/>
      </g>
     </g>
    </g>
    <g id="ytick_5">
     <g id="line2d_25">
      <path d="M 34.976 70.331606 
L 927.776 70.331606 
" clip-path="url(#p8b7cbbe13c)" style="fill: none; stroke: #546379; stroke-width: 1.12; stroke-linecap: square"/>
     </g>
     <g id="line2d_26"/>
     <g id="text_14">
      <!-- $\mathdefault{10^{4}}$ -->
      <g style="fill: #b1bed6" transform="translate(7.2 75.118622) scale(0.126 -0.126)">
       <use xlink:href="#DejaVuSans-31" transform="translate(0 0.684375)"/>
       <use xlink:href="#DejaVuSans-30" transform="translate(63.623047 0.684375)"/>
       <use xlink:href="#DejaVuSans-34" transform="translate(128.203125 38.965625) scale(0.7)"/>
      </g>
     </g>
    </g>
    <g id="ytick_6">
     <g id="line2d_27">
      <path d="M 34.976 24.092607 
L 927.776 24.092607 
" clip-path="url(#p8b7cbbe13c)" style="fill: none; stroke: #546379; stroke-width: 1.12; stroke-linecap: square"/>
     </g>
     <g id="line2d_28"/>
     <g id="text_15">
      <!-- $\mathdefault{10^{5}}$ -->
      <g style="fill: #b1bed6" transform="translate(7.2 28.879623) scale(0.126 -0.126)">
       <defs>
        <path id="DejaVuSans-35" d="M 691 4666 
L 3169 4666 
L 3169 4134 
L 1269 4134 
L 1269 2991 
Q 1406 3038 1543 3061 
Q 1681 3084 1819 3084 
Q 2600 3084 3056 2656 
Q 3513 2228 3513 1497 
Q 3513 744 3044 326 
Q 2575 -91 1722 -91 
Q 1428 -91 1123 -41 
Q 819 9 494 109 
L 494 744 
Q 775 591 1075 516 
Q 1375 441 1709 441 
Q 2250 441 2565 725 
Q 2881 1009 2881 1497 
Q 2881 1984 2565 2268 
Q 2250 2553 1709 2553 
Q 1456 2553 1204 2497 
Q 953 2441 691 2322 
L 691 4666 
z
" transform="scale(0.015625)"/>
       </defs>
       <use xlink:href="#DejaVuSans-31" transform="translate(0 0.684375)"/>
       <use xlink:href="#DejaVuSans-30" transform="translate(63.623047 0.684375)"/>
       <use xlink:href="#DejaVuSans-35" transform="translate(128.203125 38.965625) scale(0.7)"/>
      </g>
     </g>
    </g>
    <g id="ytick_7">
     <g id="line2d_29"/>
    </g>
    <g id="ytick_8">
     <g id="line2d_30"/>
    </g>
    <g id="ytick_9">
     <g id="line2d_31"/>
    </g>
    <g id="ytick_10">
     <g id="line2d_32"/>
    </g>
    <g id="ytick_11">
     <g id="line2d_33"/>
    </g>
    <g id="ytick_12">
     <g id="line2d_34"/>
    </g>
    <g id="ytick_13">
     <g id="line2d_35"/>
    </g>
    <g id="ytick_14">
     <g id="line2d_36"/>
    </g>
    <g id="ytick_15">
     <g id="line2d_37"/>
    </g>
    <g id="ytick_16">
     <g id="line2d_38"/>
    </g>
    <g id="ytick_17">
     <g id="line2d_39"/>
    </g>
    <g id="ytick_18">
     <g id="line2d_40"/>
    </g>
    <g id="ytick_19">
     <g id="line2d_41"/>
    </g>
    <g id="ytick_20">
     <g id="line2d_42"/>
    </g>
    <g id="ytick_21">
     <g id="line2d_43"/>
    </g>
    <g id="ytick_22">
     <g id="line2d_44"/>
    </g>
    <g id="ytick_23">
     <g id="line2d_45"/>
    </g>
    <g id="ytick_24">
     <g id="line2d_46"/>
    </g>
    <g id="ytick_25">
     <g id="line2d_47"/>
    </g>
    <g id="ytick_26">
     <g id="line2d_48"/>
    </g>
    <g id="ytick_27">
     <g id="line2d_49"/>
    </g>
    <g id="ytick_28">
     <g id="line2d_50"/>
    </g>
    <g id="ytick_29">
     <g id="line2d_51"/>
    </g>
    <g id="ytick_30">
     <g id="line2d_52"/>
    </g>
    <g id="ytick_31">
     <g id="line2d_53"/>
    </g>
    <g id="ytick_32">
     <g id="line2d_54"/>
    </g>
    <g id="ytick_33">
     <g id="line2d_55"/>
    </g>
    <g id="ytick_34">
     <g id="line2d_56"/>
    </g>
    <g id="ytick_35">
     <g id="line2d_57"/>
    </g>
    <g id="ytick_36">
     <g id="line2d_58"/>
    </g>
    <g id="ytick_37">
     <g id="line2d_59"/>
    </g>
    <g id="ytick_38">
     <g id="line2d_60"/>
    </g>
    <g id="ytick_39">
     <g id="line2d_61"/>
    </g>
    <g id="ytick_40">
     <g id="line2d_62"/>
    </g>
    <g id="ytick_41">
     <g id="line2d_63"/>
    </g>
    <g id="ytick_42">
     <g id="line2d_64"/>
    </g>
    <g id="ytick_43">
     <g id="line2d_65"/>
    </g>
    <g id="ytick_44">
     <g id="line2d_66"/>
    </g>
    <g id="ytick_45">
     <g id="line2d_67"/>
    </g>
    <g id="ytick_46">
     <g id="line2d_68"/>
    </g>
    <g id="ytick_47">
     <g id="line2d_69"/>
    </g>
    <g id="ytick_48">
     <g id="line2d_70"/>
    </g>
    <g id="ytick_49">
     <g id="line2d_71"/>
    </g>
    <g id="ytick_50">
     <g id="line2d_72"/>
    </g>
    <g id="ytick_51">
     <g id="line2d_73"/>
    </g>
    <g id="ytick_52">
     <g id="line2d_74"/>
    </g>
    <g id="ytick_53">
     <g id="line2d_75"/>
    </g>
    <g id="ytick_54">
     <g id="line2d_76"/>
    </g>
    <g id="ytick_55">
     <g id="line2d_77"/>
    </g>
   </g>
   <g id="line2d_78">
    <path d="M 75.557818 287.607273 
L 75.557818 283.126251 
L 76.161902 283.126251 
L 76.161902 278.168969 
L 76.765986 278.168969 
L 76.765986 279.464989 
L 77.37007 279.464989 
L 77.37007 280.850459 
L 77.974154 280.850459 
L 77.974154 280.145778 
L 78.578238 280.145778 
L 78.578238 280.850459 
L 79.786405 280.850459 
L 79.786405 282.338646 
L 80.390489 282.338646 
L 80.390489 284.800665 
L 81.598657 284.800665 
L 81.598657 283.126251 
L 82.202741 283.126251 
L 82.202741 282.338646 
L 82.806825 282.338646 
L 82.806825 283.126251 
L 83.410908 283.126251 
L 83.410908 281.58077 
L 84.014992 281.58077 
L 84.014992 279.464989 
L 85.22316 279.464989 
L 85.22316 278.168969 
L 85.827244 278.168969 
L 85.827244 275.803728 
L 86.431328 275.803728 
L 86.431328 273.687947 
L 87.035412 273.687947 
L 87.035412 274.717985 
L 87.639496 274.717985 
L 87.639496 271.773991 
L 88.243579 271.773991 
L 88.243579 271.322706 
L 88.847663 271.322706 
L 88.847663 256.962014 
L 90.055831 256.962014 
L 90.055831 255.899262 
L 90.659915 255.899262 
L 90.659915 253.742119 
L 91.263999 253.742119 
L 91.263999 254.307828 
L 91.868083 254.307828 
L 91.868083 257.854665 
L 92.472166 257.854665 
L 92.472166 255.2876 
L 93.07625 255.2876 
L 93.07625 255.899262 
L 93.680334 255.899262 
L 93.680334 256.962014 
L 94.284418 256.962014 
L 94.284418 257.854665 
L 94.888502 257.854665 
L 94.888502 257.181485 
L 95.492586 257.181485 
L 95.492586 258.084169 
L 96.09667 258.084169 
L 96.09667 260.021221 
L 96.700754 260.021221 
L 96.700754 257.627755 
L 97.304837 257.627755 
L 97.304837 259.768622 
L 98.513005 259.768622 
L 98.513005 261.064642 
L 99.117089 261.064642 
L 99.117089 260.79866 
L 99.721173 260.79866 
L 99.721173 255.693297 
L 100.325257 255.693297 
L 100.325257 251.626338 
L 100.929341 251.626338 
L 100.929341 248.819731 
L 101.533424 248.819731 
L 101.533424 243.70843 
L 102.137508 243.70843 
L 102.137508 226.758122 
L 102.741592 226.758122 
L 102.741592 229.789104 
L 103.345676 229.789104 
L 103.345676 227.90594 
L 103.94976 227.90594 
L 103.94976 217.54542 
L 104.553844 217.54542 
L 104.553844 212.3832 
L 105.157928 212.3832 
L 105.157928 216.26857 
L 105.762012 216.26857 
L 105.762012 215.451111 
L 106.366095 215.451111 
L 106.366095 211.891388 
L 106.970179 211.891388 
L 106.970179 209.722467 
L 107.574263 209.722467 
L 107.574263 196.106538 
L 108.178347 196.106538 
L 108.178347 185.478734 
L 108.782431 185.478734 
L 108.782431 191.754534 
L 109.386515 191.754534 
L 109.386515 196.297185 
L 109.990599 196.297185 
L 109.990599 200.390875 
L 110.594683 200.390875 
L 110.594683 197.719174 
L 111.198766 197.719174 
L 111.198766 197.983633 
L 111.80285 197.983633 
L 111.80285 199.9393 
L 112.406934 199.9393 
L 112.406934 199.48518 
L 113.011018 199.48518 
L 113.011018 200.812823 
L 113.615102 200.812823 
L 113.615102 201.936356 
L 114.219186 201.936356 
L 114.219186 201.531786 
L 114.82327 201.531786 
L 114.82327 202.392446 
L 115.427353 202.392446 
L 115.427353 202.148859 
L 116.031437 202.148859 
L 116.031437 201.476617 
L 116.635521 201.476617 
L 116.635521 206.241994 
L 117.239605 206.241994 
L 117.239605 209.743244 
L 117.843689 209.743244 
L 117.843689 209.189665 
L 118.447773 209.189665 
L 118.447773 206.487963 
L 119.051857 206.487963 
L 119.051857 205.810121 
L 119.655941 205.810121 
L 119.655941 206.594307 
L 120.260024 206.594307 
L 120.260024 210.120961 
L 120.864108 210.120961 
L 120.864108 212.406923 
L 121.468192 212.406923 
L 121.468192 212.863064 
L 122.072276 212.863064 
L 122.072276 216.911696 
L 122.67636 216.911696 
L 122.67636 218.680617 
L 123.280444 218.680617 
L 123.280444 222.887762 
L 123.884528 222.887762 
L 123.884528 218.713085 
L 124.488611 218.713085 
L 124.488611 221.090515 
L 125.092695 221.090515 
L 125.092695 223.21036 
L 125.696779 223.21036 
L 125.696779 222.728385 
L 126.300863 222.728385 
L 126.300863 223.829567 
L 126.904947 223.829567 
L 126.904947 226.661344 
L 127.509031 226.661344 
L 127.509031 227.398808 
L 128.113115 227.398808 
L 128.113115 236.177033 
L 128.717199 236.177033 
L 128.717199 231.190697 
L 129.321282 231.190697 
L 129.321282 232.567527 
L 129.925366 232.567527 
L 129.925366 230.831021 
L 130.52945 230.831021 
L 130.52945 231.804853 
L 131.133534 231.804853 
L 131.133534 231.992823 
L 131.737618 231.992823 
L 131.737618 232.502853 
L 132.341702 232.502853 
L 132.341702 236.099648 
L 132.945786 236.099648 
L 132.945786 237.29295 
L 133.549869 237.29295 
L 133.549869 237.048549 
L 134.153953 237.048549 
L 134.153953 235.793056 
L 134.758037 235.793056 
L 134.758037 232.310071 
L 135.362121 232.310071 
L 135.362121 232.828327 
L 135.966205 232.828327 
L 135.966205 232.438386 
L 136.570289 232.438386 
L 136.570289 231.556932 
L 137.174373 231.556932 
L 137.174373 230.950199 
L 137.778457 230.950199 
L 137.778457 227.549607 
L 138.38254 227.549607 
L 138.38254 226.231525 
L 138.986624 226.231525 
L 138.986624 225.218031 
L 139.590708 225.218031 
L 139.590708 221.53432 
L 140.194792 221.53432 
L 140.194792 216.039721 
L 140.798876 216.039721 
L 140.798876 215.926266 
L 141.40296 215.926266 
L 141.40296 216.096689 
L 142.007044 216.096689 
L 142.007044 218.104998 
L 142.611127 218.104998 
L 142.611127 217.792198 
L 143.215211 217.792198 
L 143.215211 220.336703 
L 143.819295 220.336703 
L 143.819295 220.513633 
L 144.423379 220.513633 
L 144.423379 219.340162 
L 145.027463 219.340162 
L 145.027463 219.849437 
L 146.235631 219.918327 
L 146.235631 224.040286 
L 146.839715 224.040286 
L 146.839715 225.083707 
L 147.443798 225.083707 
L 147.443798 222.296512 
L 148.047882 222.296512 
L 148.047882 223.048413 
L 148.651966 223.048413 
L 148.651966 223.745895 
L 149.25605 223.745895 
L 149.25605 222.768111 
L 149.860134 222.768111 
L 149.860134 223.048413 
L 150.464218 223.048413 
L 150.464218 221.274243 
L 151.068302 221.274243 
L 151.068302 222.064801 
L 151.672386 222.064801 
L 151.672386 223.745895 
L 152.276469 223.745895 
L 152.276469 223.913589 
L 152.880553 223.913589 
L 152.880553 223.21036 
L 154.088721 223.129224 
L 154.088721 223.787687 
L 154.692805 223.787687 
L 154.692805 223.088778 
L 155.900973 223.00813 
L 155.900973 222.026442 
L 156.505056 222.026442 
L 156.505056 222.218977 
L 157.10914 222.218977 
L 157.10914 222.609677 
L 157.713224 222.609677 
L 157.713224 222.257707 
L 158.317308 222.257707 
L 158.317308 222.570263 
L 159.525476 222.570263 
L 159.525476 222.768111 
L 160.12956 222.768111 
L 160.12956 222.452484 
L 161.941811 222.374346 
L 161.941811 222.257707 
L 162.545895 222.257707 
L 162.545895 221.9118 
L 163.149979 221.9118 
L 163.149979 220.836088 
L 164.358147 220.763982 
L 164.358147 218.422747 
L 164.962231 218.422747 
L 164.962231 217.514784 
L 165.566314 217.514784 
L 165.566314 217.271371 
L 166.170398 217.271371 
L 166.170398 217.453654 
L 166.774482 217.453654 
L 166.774482 217.060778 
L 167.378566 217.060778 
L 167.378566 216.911696 
L 167.98265 216.911696 
L 167.98265 216.26857 
L 168.586734 216.26857 
L 168.586734 213.909723 
L 169.190818 213.909723 
L 169.190818 210.142155 
L 169.794902 210.142155 
L 169.794902 210.015325 
L 170.398985 210.015325 
L 170.398985 211.615667 
L 171.003069 211.615667 
L 171.003069 211.276256 
L 171.607153 211.276256 
L 171.607153 208.80906 
L 172.211237 208.80906 
L 172.211237 206.719092 
L 172.815321 206.719092 
L 172.815321 206.068128 
L 173.419405 206.068128 
L 173.419405 204.891479 
L 174.023489 204.891479 
L 174.023489 201.614824 
L 174.627572 201.614824 
L 174.627572 208.533159 
L 175.231656 208.533159 
L 175.231656 207.152909 
L 175.83574 207.152909 
L 175.83574 207.299623 
L 176.439824 207.299623 
L 176.439824 208.030616 
L 177.043908 208.030616 
L 177.043908 206.647691 
L 178.252076 206.701218 
L 178.252076 205.656892 
L 178.85616 205.656892 
L 178.85616 204.359812 
L 179.460243 204.359812 
L 179.460243 204.924158 
L 180.064327 204.924158 
L 180.064327 204.631943 
L 180.668411 204.631943 
L 180.668411 204.439468 
L 181.272495 204.439468 
L 181.272495 203.82637 
L 181.876579 203.82637 
L 181.876579 204.891479 
L 182.480663 204.891479 
L 182.480663 205.220689 
L 183.084747 205.220689 
L 183.084747 205.420837 
L 183.68883 205.420837 
L 183.68883 205.724849 
L 184.292914 205.724849 
L 184.292914 206.137494 
L 184.896998 206.137494 
L 184.896998 207.262844 
L 185.501082 207.262844 
L 185.501082 207.025408 
L 186.105166 207.025408 
L 186.105166 207.189487 
L 187.313334 207.226132 
L 187.313334 207.00726 
L 187.917418 207.00726 
L 187.917418 205.690842 
L 188.521501 205.690842 
L 188.521501 204.858853 
L 189.125585 204.858853 
L 189.125585 204.375718 
L 190.333753 204.312169 
L 190.333753 203.641429 
L 190.937837 203.641429 
L 190.937837 202.94786 
L 191.541921 202.94786 
L 191.541921 202.580732 
L 192.146005 202.580732 
L 192.146005 202.829648 
L 193.354172 202.726779 
L 193.354172 203.096612 
L 193.958256 203.096612 
L 193.958256 202.800203 
L 194.56234 202.800203 
L 194.56234 202.99237 
L 195.770508 202.962686 
L 195.770508 202.306136 
L 196.374592 202.306136 
L 196.374592 201.851981 
L 196.978676 201.851981 
L 196.978676 200.209025 
L 197.582759 200.209025 
L 197.582759 198.239895 
L 198.186843 198.239895 
L 198.186843 196.651476 
L 198.790927 196.651476 
L 198.790927 195.351394 
L 199.395011 195.351394 
L 199.395011 194.149504 
L 199.999095 194.149504 
L 199.999095 193.648979 
L 200.603179 193.648979 
L 200.603179 191.493132 
L 201.207263 191.493132 
L 201.207263 188.95457 
L 201.811347 188.95457 
L 201.811347 189.117653 
L 202.41543 189.117653 
L 202.41543 186.641898 
L 203.019514 186.641898 
L 203.019514 186.199388 
L 203.623598 186.199388 
L 203.623598 184.326432 
L 204.227682 184.326432 
L 204.227682 180.230178 
L 204.831766 180.230178 
L 204.831766 178.578727 
L 205.43585 178.578727 
L 205.43585 178.031376 
L 206.039934 178.031376 
L 206.039934 175.895036 
L 206.644017 175.895036 
L 206.644017 169.900523 
L 207.248101 169.900523 
L 207.248101 167.596675 
L 207.852185 167.596675 
L 207.852185 164.375175 
L 208.456269 164.375175 
L 208.456269 157.387096 
L 209.060353 157.387096 
L 209.060353 152.961335 
L 209.664437 152.961335 
L 209.664437 158.344652 
L 210.268521 158.344652 
L 210.268521 170.524713 
L 210.872605 170.524713 
L 210.872605 159.329892 
L 211.476688 159.329892 
L 211.476688 155.697358 
L 212.080772 155.697358 
L 212.080772 157.774031 
L 212.684856 157.774031 
L 212.684856 159.656757 
L 213.28894 159.656757 
L 213.28894 159.832593 
L 213.893024 159.832593 
L 213.893024 160.410475 
L 214.497108 160.410475 
L 214.497108 159.487553 
L 215.101192 159.487553 
L 215.101192 158.600304 
L 216.309359 158.701519 
L 216.309359 157.235906 
L 217.517527 157.188797 
L 217.517527 158.747397 
L 218.121611 158.747397 
L 218.121611 159.32145 
L 218.725695 159.32145 
L 218.725695 161.620549 
L 219.329779 161.620549 
L 219.329779 162.81362 
L 219.933863 162.81362 
L 219.933863 161.377866 
L 220.537946 161.377866 
L 220.537946 161.199149 
L 221.14203 161.199149 
L 221.14203 162.021998 
L 221.746114 162.021998 
L 221.746114 163.369575 
L 222.350198 163.369575 
L 222.350198 167.280587 
L 222.954282 167.280587 
L 222.954282 168.191607 
L 223.558366 168.191607 
L 223.558366 164.05428 
L 224.16245 164.05428 
L 224.16245 163.410916 
L 224.766533 163.410916 
L 224.766533 165.061954 
L 225.370617 165.061954 
L 225.370617 163.943487 
L 225.974701 163.943487 
L 225.974701 163.072372 
L 226.578785 163.072372 
L 226.578785 161.902638 
L 227.182869 161.902638 
L 227.182869 161.503545 
L 227.786953 161.503545 
L 227.786953 162.255053 
L 228.391037 162.255053 
L 228.391037 161.014661 
L 228.995121 161.014661 
L 228.995121 162.867923 
L 229.599204 162.867923 
L 229.599204 160.8173 
L 230.203288 160.8173 
L 230.203288 160.305611 
L 230.807372 160.305611 
L 230.807372 159.40094 
L 231.411456 159.40094 
L 231.411456 157.527079 
L 232.01554 157.527079 
L 232.01554 159.552331 
L 232.619624 159.552331 
L 232.619624 158.813119 
L 233.223708 158.813119 
L 233.223708 158.481782 
L 233.827792 158.481782 
L 233.827792 157.990857 
L 234.431875 157.990857 
L 234.431875 158.663912 
L 235.035959 158.663912 
L 235.035959 158.384888 
L 235.640043 158.384888 
L 235.640043 158.128765 
L 236.244127 158.128765 
L 236.244127 158.826289 
L 236.848211 158.826289 
L 236.848211 158.470454 
L 237.452295 158.470454 
L 237.452295 157.916748 
L 238.056379 157.916748 
L 238.056379 156.314105 
L 238.660462 156.314105 
L 238.660462 150.334643 
L 239.264546 150.334643 
L 239.264546 149.364738 
L 239.86863 149.364738 
L 239.86863 148.209154 
L 240.472714 148.209154 
L 240.472714 148.591294 
L 241.076798 148.591294 
L 241.076798 144.202283 
L 241.680882 144.202283 
L 241.680882 138.834038 
L 242.284966 138.834038 
L 242.284966 135.325487 
L 242.88905 135.325487 
L 242.88905 131.519968 
L 243.493133 131.519968 
L 243.493133 123.257697 
L 244.097217 123.257697 
L 244.097217 120.689432 
L 244.701301 120.689432 
L 244.701301 114.046237 
L 245.305385 114.046237 
L 245.305385 115.586817 
L 245.909469 115.586817 
L 245.909469 123.564284 
L 246.513553 123.564284 
L 246.513553 119.208994 
L 247.117637 119.208994 
L 247.117637 119.529867 
L 247.72172 119.529867 
L 247.72172 124.159315 
L 248.325804 124.159315 
L 248.325804 124.915016 
L 248.929888 124.915016 
L 248.929888 123.056707 
L 249.533972 123.056707 
L 249.533972 122.835476 
L 250.138056 122.835476 
L 250.138056 120.34286 
L 250.74214 120.34286 
L 250.74214 120.475113 
L 251.346224 120.475113 
L 251.346224 119.975504 
L 251.950308 119.975504 
L 251.950308 120.625682 
L 252.554391 120.625682 
L 252.554391 120.365408 
L 253.158475 120.365408 
L 253.158475 121.559527 
L 253.762559 121.559527 
L 253.762559 121.416383 
L 254.366643 121.416383 
L 254.366643 120.627402 
L 254.970727 120.627402 
L 254.970727 121.534313 
L 255.574811 121.534313 
L 255.574811 124.098749 
L 256.178895 124.098749 
L 256.178895 126.496738 
L 256.782978 126.496738 
L 256.782978 125.850171 
L 257.387062 125.850171 
L 257.387062 127.526776 
L 257.991146 127.526776 
L 257.991146 128.231358 
L 258.59523 128.231358 
L 258.59523 127.947684 
L 259.199314 127.947684 
L 259.199314 124.591762 
L 259.803398 124.591762 
L 259.803398 125.535786 
L 261.011566 125.500982 
L 261.011566 126.018228 
L 261.615649 126.018228 
L 261.615649 127.757148 
L 262.219733 127.757148 
L 262.219733 127.309984 
L 262.823817 127.309984 
L 262.823817 130.895627 
L 263.427901 130.895627 
L 263.427901 133.097198 
L 264.031985 133.097198 
L 264.031985 132.251845 
L 264.636069 132.251845 
L 264.636069 136.590872 
L 265.240153 136.590872 
L 265.240153 132.180066 
L 265.844236 132.180066 
L 265.844236 131.22161 
L 266.44832 131.22161 
L 266.44832 130.956373 
L 267.052404 130.956373 
L 267.052404 132.099839 
L 267.656488 132.099839 
L 267.656488 132.515325 
L 268.260572 132.515325 
L 268.260572 133.205874 
L 269.46874 133.166371 
L 269.46874 132.945489 
L 270.072824 132.945489 
L 270.072824 132.645019 
L 270.676907 132.645019 
L 270.676907 130.972822 
L 271.280991 130.972822 
L 271.280991 129.399157 
L 271.885075 129.399157 
L 271.885075 127.474864 
L 272.489159 127.474864 
L 272.489159 125.826278 
L 273.093243 125.826278 
L 273.093243 124.869732 
L 273.697327 124.869732 
L 273.697327 125.258101 
L 274.301411 125.258101 
L 274.301411 127.113491 
L 274.905495 127.113491 
L 274.905495 126.562686 
L 275.509578 126.562686 
L 275.509578 127.13353 
L 276.113662 127.13353 
L 276.113662 128.186903 
L 276.717746 128.186903 
L 276.717746 126.829003 
L 277.32183 126.829003 
L 277.32183 125.365479 
L 277.925914 125.365479 
L 277.925914 126.029803 
L 278.529998 126.029803 
L 278.529998 125.721799 
L 279.134082 125.721799 
L 279.134082 126.038811 
L 279.738165 126.038811 
L 279.738165 125.848896 
L 280.342249 125.848896 
L 280.342249 126.156282 
L 280.946333 126.156282 
L 280.946333 127.041314 
L 281.550417 127.041314 
L 281.550417 127.43895 
L 282.154501 127.43895 
L 282.154501 127.217297 
L 283.362669 127.200925 
L 283.362669 127.893615 
L 283.966753 127.893615 
L 283.966753 129.553044 
L 284.570836 129.553044 
L 284.570836 129.747946 
L 285.17492 129.747946 
L 285.17492 130.169986 
L 286.383088 130.226194 
L 286.383088 131.462554 
L 286.987172 131.462554 
L 286.987172 131.063949 
L 287.591256 131.063949 
L 287.591256 131.589846 
L 288.19534 131.589846 
L 288.19534 131.438961 
L 288.799423 131.438961 
L 288.799423 132.432422 
L 289.403507 132.432422 
L 289.403507 134.913301 
L 290.007591 134.913301 
L 290.007591 134.465787 
L 290.611675 134.465787 
L 290.611675 136.327575 
L 291.215759 136.327575 
L 291.215759 137.148186 
L 291.819843 137.148186 
L 291.819843 138.588484 
L 292.423927 138.588484 
L 292.423927 136.978252 
L 293.028011 136.978252 
L 293.028011 135.231687 
L 293.632094 135.231687 
L 293.632094 135.508223 
L 294.236178 135.508223 
L 294.236178 137.243531 
L 294.840262 137.243531 
L 294.840262 137.60087 
L 295.444346 137.60087 
L 295.444346 138.365505 
L 296.04843 138.365505 
L 296.04843 138.820046 
L 296.652514 138.820046 
L 296.652514 137.828782 
L 297.256598 137.828782 
L 297.256598 133.982098 
L 297.860681 133.982098 
L 297.860681 135.486062 
L 298.464765 135.486062 
L 298.464765 137.284613 
L 299.068849 137.284613 
L 299.068849 136.289476 
L 299.672933 136.289476 
L 299.672933 136.161221 
L 300.277017 136.161221 
L 300.277017 136.021081 
L 300.881101 136.021081 
L 300.881101 136.264295 
L 301.485185 136.264295 
L 301.485185 137.721986 
L 302.089269 137.721986 
L 302.089269 137.209828 
L 302.693352 137.209828 
L 302.693352 139.943662 
L 303.297436 139.943662 
L 303.297436 138.71391 
L 303.90152 138.71391 
L 303.90152 138.837689 
L 304.505604 138.837689 
L 304.505604 140.024856 
L 305.109688 140.024856 
L 305.109688 141.771692 
L 305.713772 141.771692 
L 305.713772 140.882992 
L 306.317856 140.882992 
L 306.317856 142.887589 
L 306.921939 142.887589 
L 306.921939 147.890434 
L 307.526023 147.890434 
L 307.526023 147.343867 
L 308.130107 147.343867 
L 308.130107 145.762334 
L 308.734191 145.762334 
L 308.734191 143.351604 
L 309.338275 143.351604 
L 309.338275 147.044897 
L 309.942359 147.044897 
L 309.942359 146.372995 
L 310.546443 146.372995 
L 310.546443 146.620762 
L 311.150527 146.620762 
L 311.150527 146.76476 
L 311.75461 146.76476 
L 311.75461 145.694568 
L 312.358694 145.694568 
L 312.358694 144.751122 
L 312.962778 144.751122 
L 312.962778 145.234037 
L 313.566862 145.234037 
L 313.566862 144.130066 
L 314.170946 144.130066 
L 314.170946 142.859312 
L 314.77503 142.859312 
L 314.77503 142.495299 
L 315.379114 142.495299 
L 315.379114 141.092312 
L 315.983198 141.092312 
L 315.983198 141.478702 
L 316.587281 141.478702 
L 316.587281 143.460107 
L 317.191365 143.460107 
L 317.191365 144.814953 
L 317.795449 144.814953 
L 317.795449 144.172889 
L 318.399533 144.172889 
L 318.399533 144.693195 
L 319.003617 144.693195 
L 319.003617 143.581528 
L 319.607701 143.581528 
L 319.607701 144.979555 
L 320.211785 144.979555 
L 320.211785 146.703434 
L 321.419952 146.736779 
L 321.419952 145.579293 
L 322.024036 145.579293 
L 322.024036 146.410232 
L 323.232204 146.469777 
L 323.232204 145.273411 
L 323.836288 145.273411 
L 323.836288 145.468062 
L 324.440372 145.468062 
L 324.440372 145.149684 
L 325.044456 145.149684 
L 325.044456 145.450288 
L 325.648539 145.450288 
L 325.648539 145.961806 
L 326.252623 145.961806 
L 326.252623 145.417322 
L 326.856707 145.417322 
L 326.856707 145.625324 
L 327.460791 145.625324 
L 327.460791 146.22913 
L 328.064875 146.22913 
L 328.064875 146.715144 
L 328.668959 146.715144 
L 328.668959 146.289022 
L 329.273043 146.289022 
L 329.273043 146.118624 
L 329.877126 146.118624 
L 329.877126 144.410862 
L 330.48121 144.410862 
L 330.48121 144.835455 
L 331.085294 144.835455 
L 331.085294 145.212288 
L 331.689378 145.212288 
L 331.689378 144.52445 
L 332.293462 144.52445 
L 332.293462 144.036808 
L 332.897546 144.036808 
L 332.897546 142.973405 
L 333.50163 142.973405 
L 333.50163 141.78367 
L 334.105714 141.78367 
L 334.105714 141.573333 
L 334.709797 141.573333 
L 334.709797 142.368639 
L 335.917965 142.279583 
L 335.917965 141.234452 
L 336.522049 141.234452 
L 336.522049 141.536402 
L 337.126133 141.536402 
L 337.126133 142.053298 
L 337.730217 142.053298 
L 337.730217 142.182292 
L 338.334301 142.182292 
L 338.334301 142.791019 
L 338.938384 142.791019 
L 338.938384 143.511506 
L 339.542468 143.511506 
L 339.542468 146.413782 
L 340.146552 146.413782 
L 340.146552 146.246727 
L 340.750636 146.246727 
L 340.750636 146.515221 
L 341.35472 146.515221 
L 341.35472 146.061854 
L 342.562888 146.020035 
L 342.562888 144.87981 
L 343.166972 144.87981 
L 343.166972 145.674882 
L 343.771055 145.674882 
L 343.771055 146.23001 
L 344.375139 146.23001 
L 344.375139 146.069705 
L 344.979223 146.069705 
L 344.979223 145.737431 
L 345.583307 145.737431 
L 345.583307 145.301103 
L 346.187391 145.301103 
L 346.187391 145.416477 
L 346.791475 145.416477 
L 346.791475 144.667956 
L 347.999642 144.756025 
L 347.999642 144.211825 
L 348.603726 144.211825 
L 348.603726 143.541486 
L 349.20781 143.541486 
L 349.20781 142.54282 
L 349.811894 142.54282 
L 349.811894 141.659305 
L 350.415978 141.659305 
L 350.415978 138.945708 
L 351.020062 138.945708 
L 351.020062 134.746298 
L 351.624146 134.746298 
L 351.624146 135.633399 
L 352.22823 135.633399 
L 352.22823 140.155713 
L 352.832313 140.155713 
L 352.832313 139.516715 
L 353.436397 139.516715 
L 353.436397 139.085096 
L 354.040481 139.085096 
L 354.040481 139.234768 
L 354.644565 139.234768 
L 354.644565 137.198606 
L 355.248649 137.198606 
L 355.248649 136.943329 
L 355.852733 136.943329 
L 355.852733 135.637031 
L 356.456817 135.637031 
L 356.456817 134.159708 
L 357.060901 134.159708 
L 357.060901 133.360961 
L 357.664984 133.360961 
L 357.664984 132.314203 
L 358.269068 132.314203 
L 358.269068 133.132442 
L 358.873152 133.132442 
L 358.873152 132.36176 
L 359.477236 132.36176 
L 359.477236 133.368376 
L 360.685404 133.390174 
L 360.685404 133.553244 
L 361.289488 133.553244 
L 361.289488 132.675895 
L 361.893571 132.675895 
L 361.893571 133.539682 
L 362.497655 133.539682 
L 362.497655 135.712943 
L 363.101739 135.712943 
L 363.101739 135.921878 
L 363.705823 135.921878 
L 363.705823 135.394074 
L 364.309907 135.394074 
L 364.309907 136.181474 
L 364.913991 136.181474 
L 364.913991 136.62028 
L 365.518075 136.62028 
L 365.518075 136.266972 
L 366.122159 136.266972 
L 366.122159 136.105898 
L 366.726242 136.105898 
L 366.726242 135.010652 
L 367.330326 135.010652 
L 367.330326 133.992136 
L 368.538494 134.027071 
L 368.538494 133.444539 
L 369.142578 133.444539 
L 369.142578 133.872002 
L 369.746662 133.872002 
L 369.746662 134.687307 
L 370.350746 134.687307 
L 370.350746 134.183347 
L 371.558913 134.232162 
L 371.558913 134.575257 
L 372.162997 134.575257 
L 372.162997 134.16453 
L 373.371165 134.137059 
L 373.371165 134.29274 
L 373.975249 134.29274 
L 373.975249 134.062548 
L 375.183417 133.993571 
L 375.183417 133.865825 
L 375.7875 133.865825 
L 375.7875 133.544358 
L 376.391584 133.544358 
L 376.391584 133.242691 
L 376.995668 133.242691 
L 376.995668 132.520212 
L 377.599752 132.520212 
L 377.599752 132.817003 
L 378.203836 132.817003 
L 378.203836 132.472279 
L 378.80792 132.472279 
L 378.80792 132.633844 
L 379.412004 132.633844 
L 379.412004 132.135553 
L 380.016087 132.135553 
L 380.016087 132.347657 
L 380.620171 132.347657 
L 380.620171 132.468733 
L 381.224255 132.468733 
L 381.224255 132.911025 
L 381.828339 132.911025 
L 381.828339 132.663807 
L 382.432423 132.663807 
L 382.432423 130.041144 
L 383.036507 130.041144 
L 383.036507 129.018962 
L 383.640591 129.018962 
L 383.640591 127.381071 
L 384.244675 127.381071 
L 384.244675 127.58056 
L 384.848758 127.58056 
L 384.848758 124.162539 
L 385.452842 124.162539 
L 385.452842 122.295236 
L 386.056926 122.295236 
L 386.056926 127.070763 
L 386.66101 127.070763 
L 386.66101 125.842841 
L 387.265094 125.842841 
L 387.265094 124.674268 
L 387.869178 124.674268 
L 387.869178 124.256837 
L 388.473262 124.256837 
L 388.473262 124.82364 
L 390.285513 124.87459 
L 390.285513 124.687802 
L 390.889597 124.687802 
L 390.889597 124.869732 
L 391.493681 124.869732 
L 391.493681 125.050874 
L 392.097765 125.050874 
L 392.097765 126.643438 
L 392.701849 126.643438 
L 392.701849 127.763108 
L 393.305933 127.763108 
L 393.305933 127.337771 
L 394.5141 127.394148 
L 394.5141 127.826321 
L 395.118184 127.826321 
L 395.118184 127.605245 
L 396.326352 127.657147 
L 396.326352 127.80593 
L 397.53452 127.788369 
L 397.53452 126.557403 
L 398.138604 126.557403 
L 398.138604 126.116833 
L 398.742687 126.116833 
L 398.742687 126.530015 
L 399.950855 126.585489 
L 399.950855 127.027788 
L 400.554939 127.027788 
L 400.554939 126.602691 
L 402.367191 126.589788 
L 402.367191 126.350448 
L 402.971274 126.350448 
L 402.971274 125.685091 
L 403.575358 125.685091 
L 403.575358 125.564993 
L 404.179442 125.564993 
L 404.179442 125.884309 
L 404.783526 125.884309 
L 404.783526 125.409713 
L 405.38761 125.409713 
L 405.38761 124.141448 
L 405.991694 124.141448 
L 405.991694 122.984166 
L 406.595778 122.984166 
L 406.595778 123.63353 
L 407.199862 123.63353 
L 407.199862 123.125614 
L 407.803945 123.125614 
L 407.803945 123.722218 
L 408.408029 123.722218 
L 408.408029 122.703135 
L 410.220281 122.696868 
L 410.220281 122.889868 
L 410.824365 122.889868 
L 410.824365 122.003342 
L 412.032532 121.91117 
L 412.032532 121.866419 
L 412.636616 121.866419 
L 412.636616 121.666394 
L 413.2407 121.666394 
L 413.2407 121.27806 
L 413.844784 121.27806 
L 413.844784 118.377951 
L 414.448868 118.377951 
L 414.448868 118.020581 
L 415.052952 118.020581 
L 415.052952 117.289376 
L 415.657036 117.289376 
L 415.657036 114.490118 
L 416.26112 114.490118 
L 416.26112 118.453679 
L 416.865203 118.453679 
L 416.865203 120.913541 
L 417.469287 120.913541 
L 417.469287 120.298808 
L 418.073371 120.298808 
L 418.073371 118.783904 
L 418.677455 118.783904 
L 418.677455 119.055914 
L 419.281539 119.055914 
L 419.281539 118.275164 
L 419.885623 118.275164 
L 419.885623 116.906344 
L 420.489707 116.906344 
L 420.489707 116.349327 
L 421.09379 116.349327 
L 421.09379 116.867176 
L 421.697874 116.867176 
L 421.697874 116.546521 
L 422.301958 116.546521 
L 422.301958 115.504001 
L 422.906042 115.504001 
L 422.906042 114.205363 
L 423.510126 114.205363 
L 423.510126 113.757537 
L 424.11421 113.757537 
L 424.11421 112.495608 
L 424.718294 112.495608 
L 424.718294 111.754386 
L 425.322378 111.754386 
L 425.322378 113.042151 
L 425.926461 113.042151 
L 425.926461 112.239223 
L 426.530545 112.239223 
L 426.530545 115.243858 
L 427.134629 115.243858 
L 427.134629 114.420715 
L 427.738713 114.420715 
L 427.738713 117.352539 
L 428.342797 117.352539 
L 428.342797 115.787441 
L 428.946881 115.787441 
L 428.946881 115.025309 
L 429.550965 115.025309 
L 429.550965 113.014543 
L 430.155048 113.014543 
L 430.155048 112.742858 
L 430.759132 112.742858 
L 430.759132 113.411581 
L 431.363216 113.411581 
L 431.363216 112.889272 
L 431.9673 112.889272 
L 431.9673 112.360654 
L 432.571384 112.360654 
L 432.571384 111.487893 
L 433.175468 111.487893 
L 433.175468 110.472828 
L 433.779552 110.472828 
L 433.779552 107.935987 
L 434.383636 107.935987 
L 434.383636 106.500982 
L 434.987719 106.500982 
L 434.987719 105.999159 
L 435.591803 105.999159 
L 435.591803 105.808962 
L 436.195887 105.808962 
L 436.195887 102.562715 
L 436.799971 102.562715 
L 436.799971 98.811006 
L 437.404055 98.811006 
L 437.404055 100.944864 
L 438.008139 100.944864 
L 438.008139 98.907102 
L 438.612223 98.907102 
L 438.612223 96.631322 
L 439.216307 96.631322 
L 439.216307 95.714968 
L 439.82039 95.714968 
L 439.82039 96.5802 
L 440.424474 96.5802 
L 440.424474 97.154104 
L 441.028558 97.154104 
L 441.028558 96.934395 
L 441.632642 96.934395 
L 441.632642 98.153958 
L 442.236726 98.153958 
L 442.236726 97.838142 
L 443.444894 97.773145 
L 443.444894 98.147297 
L 444.048977 98.147297 
L 444.048977 99.749468 
L 444.653061 99.749468 
L 444.653061 102.931451 
L 445.257145 102.931451 
L 445.257145 100.150744 
L 445.861229 100.150744 
L 445.861229 96.26828 
L 446.465313 96.26828 
L 446.465313 96.950717 
L 447.069397 96.950717 
L 447.069397 95.448344 
L 448.277565 95.493146 
L 448.277565 91.943938 
L 448.881648 91.943938 
L 448.881648 89.403119 
L 449.485732 89.403119 
L 449.485732 86.928749 
L 450.089816 86.928749 
L 450.089816 88.459697 
L 450.6939 88.459697 
L 450.6939 87.131834 
L 451.297984 87.131834 
L 451.297984 86.924803 
L 451.902068 86.924803 
L 451.902068 84.622192 
L 452.506152 84.622192 
L 452.506152 86.886482 
L 453.110235 86.886482 
L 453.110235 87.136007 
L 453.714319 87.136007 
L 453.714319 89.420257 
L 454.318403 89.420257 
L 454.318403 90.414391 
L 454.922487 90.414391 
L 454.922487 90.842603 
L 455.526571 90.842603 
L 455.526571 89.076373 
L 456.130655 89.076373 
L 456.130655 87.923747 
L 456.734739 87.923747 
L 456.734739 87.240793 
L 457.338823 87.240793 
L 457.338823 86.638707 
L 457.942906 86.638707 
L 457.942906 84.978155 
L 458.54699 84.978155 
L 458.54699 81.649006 
L 459.755158 81.629716 
L 459.755158 80.925171 
L 460.359242 80.925171 
L 460.359242 81.37498 
L 460.963326 81.37498 
L 460.963326 79.24329 
L 461.56741 79.24329 
L 461.56741 76.470706 
L 462.171493 76.470706 
L 462.171493 76.193329 
L 462.775577 76.193329 
L 462.775577 80.960972 
L 463.379661 80.960972 
L 463.379661 75.144769 
L 463.983745 75.144769 
L 463.983745 74.212201 
L 465.191913 74.285494 
L 465.191913 70.494927 
L 465.795997 70.494927 
L 465.795997 68.577345 
L 466.400081 68.577345 
L 466.400081 63.799913 
L 467.004164 63.799913 
L 467.004164 62.097227 
L 467.608248 62.097227 
L 467.608248 60.387465 
L 468.212332 60.387465 
L 468.212332 57.535766 
L 468.816416 57.535766 
L 468.816416 63.897802 
L 469.4205 63.897802 
L 469.4205 61.301574 
L 470.024584 61.301574 
L 470.024584 65.670597 
L 470.628668 65.670597 
L 470.628668 62.136858 
L 471.232751 62.136858 
L 471.232751 60.652632 
L 471.836835 60.652632 
L 471.836835 64.62666 
L 472.440919 64.62666 
L 472.440919 64.22473 
L 473.045003 64.22473 
L 473.045003 67.513634 
L 473.649087 67.513634 
L 473.649087 68.727658 
L 474.253171 68.727658 
L 474.253171 67.6452 
L 474.857255 67.6452 
L 474.857255 69.926069 
L 475.461339 69.926069 
L 475.461339 74.311723 
L 476.669506 74.206671 
L 476.669506 72.681421 
L 477.27359 72.681421 
L 477.27359 69.976197 
L 477.877674 69.976197 
L 477.877674 67.973542 
L 478.481758 67.973542 
L 478.481758 70.943765 
L 479.085842 70.943765 
L 479.085842 69.675462 
L 479.689926 69.675462 
L 479.689926 67.495631 
L 480.29401 67.495631 
L 480.29401 71.73609 
L 480.898093 71.73609 
L 480.898093 72.159398 
L 481.502177 72.159398 
L 481.502177 74.07846 
L 482.106261 74.07846 
L 482.106261 72.649323 
L 482.710345 72.649323 
L 482.710345 73.515604 
L 483.314429 73.515604 
L 483.314429 74.936989 
L 483.918513 74.936989 
L 483.918513 77.995061 
L 484.522597 77.995061 
L 484.522597 78.11566 
L 485.730764 78.122318 
L 485.730764 75.077305 
L 486.938932 75.046958 
L 486.938932 72.602836 
L 487.543016 72.602836 
L 487.543016 72.739249 
L 488.1471 72.739249 
L 488.1471 71.577565 
L 488.751184 71.577565 
L 488.751184 70.833123 
L 489.355268 70.833123 
L 489.355268 71.640139 
L 489.959351 71.640139 
L 489.959351 73.840436 
L 490.563435 73.840436 
L 490.563435 73.663692 
L 491.167519 73.663692 
L 491.167519 74.214003 
L 491.771603 74.214003 
L 491.771603 76.076784 
L 492.375687 76.076784 
L 492.375687 76.529214 
L 492.979771 76.529214 
L 492.979771 76.136353 
L 494.187938 76.120781 
L 494.187938 75.801647 
L 494.792022 75.801647 
L 494.792022 78.819229 
L 495.396106 78.819229 
L 495.396106 79.017308 
L 496.00019 79.017308 
L 496.00019 78.192235 
L 496.604274 78.192235 
L 496.604274 80.070835 
L 497.208358 80.070835 
L 497.208358 81.001721 
L 497.812442 81.001721 
L 497.812442 78.595427 
L 499.020609 78.588913 
L 499.020609 79.516815 
L 499.624693 79.516815 
L 499.624693 79.773637 
L 500.228777 79.773637 
L 500.228777 76.456752 
L 501.436945 76.360135 
L 501.436945 74.964286 
L 502.041029 74.964286 
L 502.041029 74.386708 
L 502.645113 74.386708 
L 502.645113 76.338159 
L 503.249196 76.338159 
L 503.249196 78.319168 
L 503.85328 78.319168 
L 503.85328 79.841204 
L 504.457364 79.841204 
L 504.457364 79.703606 
L 505.061448 79.703606 
L 505.061448 79.023808 
L 505.665532 79.023808 
L 505.665532 78.902263 
L 506.269616 78.902263 
L 506.269616 77.779396 
L 506.8737 77.779396 
L 506.8737 77.440314 
L 507.477784 77.440314 
L 507.477784 76.489253 
L 508.081867 76.489253 
L 508.081867 79.982901 
L 508.685951 79.982901 
L 508.685951 79.527066 
L 509.290035 79.527066 
L 509.290035 78.990432 
L 510.498203 78.994605 
L 510.498203 78.726132 
L 511.102287 78.726132 
L 511.102287 78.588701 
L 511.706371 78.588701 
L 511.706371 78.916577 
L 512.310454 78.916577 
L 512.310454 78.756139 
L 513.518622 78.733393 
L 513.518622 79.721259 
L 514.122706 79.721259 
L 514.122706 78.952637 
L 515.330874 79.00119 
L 515.330874 79.068469 
L 515.934958 79.068469 
L 515.934958 79.604767 
L 516.539042 79.604767 
L 516.539042 79.415448 
L 517.143125 79.415448 
L 517.143125 78.868842 
L 517.747209 78.868842 
L 517.747209 79.266903 
L 518.351293 79.266903 
L 518.351293 81.765633 
L 518.955377 81.765633 
L 518.955377 84.867645 
L 519.559461 84.867645 
L 519.559461 87.033748 
L 520.163545 87.033748 
L 520.163545 89.612206 
L 520.767629 89.612206 
L 520.767629 87.809207 
L 521.371713 87.809207 
L 521.371713 90.054874 
L 521.975796 90.054874 
L 521.975796 90.912321 
L 522.57988 90.912321 
L 522.57988 92.545748 
L 523.183964 92.545748 
L 523.183964 91.091636 
L 523.788048 91.091636 
L 523.788048 89.241244 
L 524.392132 89.241244 
L 524.392132 89.648589 
L 524.996216 89.648589 
L 524.996216 89.91924 
L 525.6003 89.91924 
L 525.6003 89.079796 
L 526.204383 89.079796 
L 526.204383 88.374838 
L 526.808467 88.374838 
L 526.808467 90.591388 
L 527.412551 90.591388 
L 527.412551 90.392839 
L 528.016635 90.392839 
L 528.016635 90.704719 
L 528.620719 90.704719 
L 528.620719 90.918422 
L 529.828887 90.980373 
L 529.828887 91.586311 
L 531.037054 91.667378 
L 531.037054 92.026524 
L 531.641138 92.026524 
L 531.641138 90.684015 
L 532.245222 90.684015 
L 532.245222 90.802045 
L 532.849306 90.802045 
L 532.849306 89.104227 
L 533.45339 89.104227 
L 533.45339 88.043067 
L 534.057474 88.043067 
L 534.057474 89.587149 
L 535.265641 89.68509 
L 535.265641 89.308349 
L 536.473809 89.337975 
L 536.473809 89.053302 
L 537.077893 89.053302 
L 537.077893 88.586341 
L 538.890145 88.489882 
L 538.890145 88.166858 
L 539.494229 88.166858 
L 539.494229 84.610618 
L 540.098312 84.610618 
L 540.098312 83.199721 
L 540.702396 83.199721 
L 540.702396 83.960457 
L 541.30648 83.960457 
L 541.30648 83.476268 
L 541.910564 83.476268 
L 541.910564 83.045683 
L 542.514648 83.045683 
L 542.514648 82.578707 
L 543.118732 82.578707 
L 543.118732 83.075926 
L 543.722816 83.075926 
L 543.722816 82.742077 
L 544.326899 82.742077 
L 544.326899 81.674496 
L 544.930983 81.674496 
L 544.930983 79.457414 
L 545.535067 79.457414 
L 545.535067 74.830986 
L 546.139151 74.830986 
L 546.139151 76.747794 
L 546.743235 76.747794 
L 546.743235 75.774268 
L 547.347319 75.774268 
L 547.347319 73.025906 
L 547.951403 73.025906 
L 547.951403 74.140096 
L 548.555487 74.140096 
L 548.555487 74.47678 
L 549.15957 74.47678 
L 549.15957 74.816921 
L 549.763654 74.816921 
L 549.763654 75.020589 
L 550.367738 75.020589 
L 550.367738 72.763419 
L 550.971822 72.763419 
L 550.971822 71.828477 
L 551.575906 71.828477 
L 551.575906 68.759219 
L 552.17999 68.759219 
L 552.17999 68.176575 
L 552.784074 68.176575 
L 552.784074 69.201843 
L 553.388157 69.201843 
L 553.388157 68.499676 
L 553.992241 68.499676 
L 553.992241 65.711653 
L 554.596325 65.711653 
L 554.596325 67.719592 
L 555.200409 67.719592 
L 555.200409 70.996585 
L 555.804493 70.996585 
L 555.804493 69.185354 
L 556.408577 69.185354 
L 556.408577 70.583859 
L 557.012661 70.583859 
L 557.012661 71.358833 
L 557.616745 71.358833 
L 557.616745 69.295399 
L 558.220828 69.295399 
L 558.220828 67.585035 
L 558.824912 67.585035 
L 558.824912 67.908934 
L 559.428996 67.908934 
L 559.428996 70.297577 
L 560.03308 70.297577 
L 560.03308 69.703741 
L 560.637164 69.703741 
L 560.637164 70.107985 
L 561.241248 70.107985 
L 561.241248 69.620844 
L 561.845332 69.620844 
L 561.845332 71.19746 
L 562.449416 71.19746 
L 562.449416 69.121195 
L 563.053499 69.121195 
L 563.053499 69.37631 
L 563.657583 69.37631 
L 563.657583 70.014192 
L 564.261667 70.014192 
L 564.261667 69.717701 
L 565.469835 69.785106 
L 565.469835 70.977705 
L 566.073919 70.977705 
L 566.073919 74.331711 
L 566.678003 74.331711 
L 566.678003 74.017977 
L 567.282086 74.017977 
L 567.282086 74.445282 
L 567.88617 74.445282 
L 567.88617 73.388559 
L 568.490254 73.388559 
L 568.490254 74.112684 
L 569.094338 74.112684 
L 569.094338 74.620816 
L 569.698422 74.620816 
L 569.698422 74.261692 
L 570.302506 74.261692 
L 570.302506 73.204977 
L 570.90659 73.204977 
L 570.90659 71.503027 
L 571.510674 71.503027 
L 571.510674 71.786375 
L 572.718841 71.695557 
L 572.718841 72.364732 
L 573.322925 72.364732 
L 573.322925 73.285005 
L 573.927009 73.285005 
L 573.927009 74.375652 
L 574.531093 74.375652 
L 574.531093 76.689005 
L 575.135177 76.689005 
L 575.135177 77.030104 
L 575.739261 77.030104 
L 575.739261 75.954694 
L 576.343344 75.954694 
L 576.343344 76.94836 
L 576.947428 76.94836 
L 576.947428 76.048788 
L 577.551512 76.048788 
L 577.551512 76.958665 
L 578.155596 76.958665 
L 578.155596 77.842697 
L 578.75968 77.842697 
L 578.75968 76.955844 
L 579.363764 76.955844 
L 579.363764 76.787526 
L 579.967848 76.787526 
L 579.967848 76.648477 
L 580.571932 76.648477 
L 580.571932 76.996354 
L 581.176015 76.996354 
L 581.176015 76.510056 
L 581.780099 76.510056 
L 581.780099 75.274961 
L 582.384183 75.274961 
L 582.384183 74.55018 
L 582.988267 74.55018 
L 582.988267 72.670994 
L 583.592351 72.670994 
L 583.592351 73.07686 
L 584.196435 73.07686 
L 584.196435 74.007267 
L 584.800519 74.007267 
L 584.800519 71.832566 
L 586.008686 71.757508 
L 586.008686 70.828367 
L 586.61277 70.828367 
L 586.61277 70.625345 
L 587.216854 70.625345 
L 587.216854 69.604859 
L 587.820938 69.604859 
L 587.820938 69.972074 
L 588.425022 69.972074 
L 588.425022 71.00624 
L 589.029106 71.00624 
L 589.029106 72.931742 
L 589.63319 72.931742 
L 589.63319 73.514639 
L 590.237273 73.514639 
L 590.237273 72.297582 
L 590.841357 72.297582 
L 590.841357 74.984201 
L 591.445441 74.984201 
L 591.445441 81.942784 
L 592.049525 81.942784 
L 592.049525 82.863711 
L 592.653609 82.863711 
L 592.653609 79.964108 
L 593.257693 79.964108 
L 593.257693 78.378349 
L 593.861777 78.378349 
L 593.861777 80.9769 
L 594.46586 80.9769 
L 594.46586 78.049341 
L 595.069944 78.049341 
L 595.069944 76.532933 
L 595.674028 76.532933 
L 595.674028 77.861095 
L 596.882196 77.864864 
L 596.882196 76.763528 
L 597.48628 76.763528 
L 597.48628 77.121811 
L 598.090364 77.121811 
L 598.090364 75.582065 
L 598.694448 75.582065 
L 598.694448 73.293265 
L 599.298531 73.293265 
L 599.298531 72.703533 
L 599.902615 72.703533 
L 599.902615 70.692682 
L 600.506699 70.692682 
L 600.506699 72.865542 
L 601.110783 72.865542 
L 601.110783 71.60472 
L 601.714867 71.60472 
L 601.714867 71.339102 
L 602.318951 71.339102 
L 602.318951 73.057369 
L 602.923035 73.057369 
L 602.923035 71.215877 
L 603.527119 71.215877 
L 603.527119 69.925616 
L 604.131202 69.925616 
L 604.131202 71.101747 
L 604.735286 71.101747 
L 604.735286 70.788289 
L 605.33937 70.788289 
L 605.33937 71.417739 
L 606.547538 71.457396 
L 606.547538 71.821814 
L 607.755706 71.917052 
L 607.755706 72.038023 
L 608.359789 72.038023 
L 608.359789 72.286445 
L 608.963873 72.286445 
L 608.963873 71.883658 
L 610.172041 71.927682 
L 610.172041 72.020192 
L 611.380209 71.974047 
L 611.380209 71.123962 
L 611.984293 71.123962 
L 611.984293 68.340394 
L 612.588377 68.340394 
L 612.588377 67.799483 
L 613.19246 67.799483 
L 613.19246 68.066126 
L 613.796544 68.066126 
L 613.796544 67.063068 
L 614.400628 67.063068 
L 614.400628 67.397738 
L 615.004712 67.397738 
L 615.004712 66.814762 
L 616.21288 66.896152 
L 616.21288 67.069332 
L 616.816964 67.069332 
L 616.816964 67.46441 
L 617.421047 67.46441 
L 617.421047 66.799194 
L 618.025131 66.799194 
L 618.025131 70.013599 
L 618.629215 70.013599 
L 618.629215 69.879227 
L 619.233299 69.879227 
L 619.233299 69.678124 
L 619.837383 69.678124 
L 619.837383 68.520345 
L 620.441467 68.520345 
L 620.441467 69.485272 
L 621.045551 69.485272 
L 621.045551 68.986372 
L 621.649635 68.986372 
L 621.649635 68.710405 
L 622.253718 68.710405 
L 622.253718 69.253067 
L 622.857802 69.253067 
L 622.857802 69.027806 
L 623.461886 69.027806 
L 623.461886 67.741627 
L 624.06597 67.741627 
L 624.06597 67.518486 
L 624.670054 67.518486 
L 624.670054 67.079184 
L 625.274138 67.079184 
L 625.274138 65.148864 
L 625.878222 65.148864 
L 625.878222 64.081045 
L 626.482305 64.081045 
L 626.482305 63.848725 
L 627.086389 63.848725 
L 627.086389 63.352848 
L 627.690473 63.352848 
L 627.690473 61.543041 
L 628.294557 61.543041 
L 628.294557 60.525722 
L 628.898641 60.525722 
L 628.898641 60.0032 
L 629.502725 60.0032 
L 629.502725 57.775404 
L 630.106809 57.775404 
L 630.106809 57.260803 
L 630.710893 57.260803 
L 630.710893 58.828822 
L 631.314976 58.828822 
L 631.314976 57.203853 
L 631.91906 57.203853 
L 631.91906 57.04708 
L 632.523144 57.04708 
L 632.523144 58.253537 
L 633.127228 58.253537 
L 633.127228 57.152094 
L 633.731312 57.152094 
L 633.731312 53.474448 
L 634.335396 53.474448 
L 634.335396 52.89799 
L 634.93948 52.89799 
L 634.93948 50.804222 
L 635.543563 50.804222 
L 635.543563 49.050338 
L 636.147647 49.050338 
L 636.147647 46.355566 
L 636.751731 46.355566 
L 636.751731 42.752652 
L 637.355815 42.752652 
L 637.355815 44.864193 
L 637.959899 44.864193 
L 637.959899 44.151813 
L 638.563983 44.151813 
L 638.563983 44.59751 
L 639.168067 44.59751 
L 639.168067 46.911483 
L 639.772151 46.911483 
L 639.772151 47.991356 
L 640.376234 47.991356 
L 640.376234 46.273173 
L 640.980318 46.273173 
L 640.980318 44.057393 
L 641.584402 44.057393 
L 641.584402 39.527939 
L 642.188486 39.527939 
L 642.188486 39.054066 
L 642.79257 39.054066 
L 642.79257 38.352125 
L 643.396654 38.352125 
L 643.396654 35.735711 
L 644.000738 35.735711 
L 644.000738 37.762536 
L 644.604822 37.762536 
L 644.604822 40.076941 
L 645.208905 40.076941 
L 645.208905 38.64476 
L 645.812989 38.64476 
L 645.812989 37.109065 
L 646.417073 37.109065 
L 646.417073 35.291676 
L 647.021157 35.291676 
L 647.021157 35.425721 
L 647.625241 35.425721 
L 647.625241 35.001776 
L 648.229325 35.001776 
L 648.229325 37.029013 
L 648.833409 37.029013 
L 648.833409 35.813852 
L 649.437492 35.813852 
L 649.437492 34.777924 
L 650.64566 34.669776 
L 650.64566 34.995975 
L 651.249744 34.995975 
L 651.249744 33.194944 
L 651.853828 33.194944 
L 651.853828 34.321545 
L 652.457912 34.321545 
L 652.457912 36.537681 
L 653.061996 36.537681 
L 653.061996 38.38668 
L 653.66608 38.38668 
L 653.66608 36.621695 
L 654.270163 36.621695 
L 654.270163 35.305693 
L 655.478331 35.247184 
L 655.478331 35.468979 
L 656.082415 35.468979 
L 656.082415 39.36734 
L 656.686499 39.36734 
L 656.686499 44.077929 
L 657.290583 44.077929 
L 657.290583 45.315774 
L 657.894667 45.315774 
L 657.894667 43.289045 
L 658.49875 43.289045 
L 658.49875 43.890689 
L 659.102834 43.890689 
L 659.102834 44.120762 
L 659.706918 44.120762 
L 659.706918 46.08394 
L 660.311002 46.08394 
L 660.311002 44.892483 
L 660.915086 44.892483 
L 660.915086 43.352043 
L 661.51917 43.352043 
L 661.51917 44.837426 
L 662.123254 44.837426 
L 662.123254 45.382424 
L 663.331421 45.488626 
L 663.331421 45.841274 
L 663.935505 45.841274 
L 663.935505 45.63231 
L 664.539589 45.63231 
L 664.539589 46.044729 
L 665.143673 46.044729 
L 665.143673 46.469173 
L 665.747757 46.469173 
L 665.747757 47.110308 
L 666.351841 47.110308 
L 666.351841 46.787903 
L 666.955925 46.787903 
L 666.955925 43.886598 
L 667.560008 43.886598 
L 667.560008 41.411052 
L 668.164092 41.411052 
L 668.164092 43.450198 
L 668.768176 43.450198 
L 668.768176 40.291651 
L 669.37226 40.291651 
L 669.37226 39.856685 
L 669.976344 39.856685 
L 669.976344 39.230387 
L 670.580428 39.230387 
L 670.580428 39.36817 
L 671.184512 39.36817 
L 671.184512 38.204226 
L 671.788596 38.204226 
L 671.788596 38.394341 
L 672.392679 38.394341 
L 672.392679 39.187987 
L 672.996763 39.187987 
L 672.996763 38.033078 
L 673.600847 38.033078 
L 673.600847 39.65216 
L 674.809015 39.660555 
L 674.809015 38.921734 
L 675.413099 38.921734 
L 675.413099 41.086684 
L 676.621266 41.126979 
L 676.621266 41.991629 
L 677.22535 41.991629 
L 677.22535 38.94619 
L 677.829434 38.94619 
L 677.829434 35.972855 
L 678.433518 35.972855 
L 678.433518 36.235092 
L 679.037602 36.235092 
L 679.037602 35.241071 
L 679.641686 35.241071 
L 679.641686 33.701412 
L 680.24577 33.701412 
L 680.24577 34.118718 
L 680.849854 34.118718 
L 680.849854 34.235478 
L 681.453937 34.235478 
L 681.453937 33.77943 
L 682.058021 33.77943 
L 682.058021 33.385293 
L 683.266189 33.277652 
L 683.266189 32.793167 
L 683.870273 32.793167 
L 683.870273 33.185527 
L 684.474357 33.185527 
L 684.474357 34.985457 
L 685.078441 34.985457 
L 685.078441 35.178027 
L 685.682525 35.178027 
L 685.682525 36.170711 
L 686.286608 36.170711 
L 686.286608 35.299927 
L 686.890692 35.299927 
L 686.890692 38.262324 
L 687.494776 38.262324 
L 687.494776 38.974577 
L 688.09886 38.974577 
L 688.09886 39.35853 
L 688.702944 39.35853 
L 688.702944 39.610744 
L 689.307028 39.610744 
L 689.307028 38.444463 
L 689.911112 38.444463 
L 689.911112 37.823696 
L 690.515195 37.823696 
L 690.515195 39.508644 
L 691.119279 39.508644 
L 691.119279 39.114874 
L 691.723363 39.114874 
L 691.723363 40.984403 
L 692.327447 40.984403 
L 692.327447 41.58551 
L 692.931531 41.58551 
L 692.931531 40.994306 
L 693.535615 40.994306 
L 693.535615 41.33161 
L 694.139699 41.33161 
L 694.139699 45.133503 
L 694.743783 45.133503 
L 694.743783 44.15455 
L 695.347866 44.15455 
L 695.347866 43.566045 
L 695.95195 43.566045 
L 695.95195 44.008441 
L 696.556034 44.008441 
L 696.556034 40.654894 
L 697.160118 40.654894 
L 697.160118 41.322236 
L 697.764202 41.322236 
L 697.764202 40.335759 
L 698.368286 40.335759 
L 698.368286 42.435279 
L 698.97237 42.435279 
L 698.97237 43.90095 
L 699.576453 43.90095 
L 699.576453 43.67973 
L 700.180537 43.67973 
L 700.180537 41.292359 
L 700.784621 41.292359 
L 700.784621 43.505826 
L 701.388705 43.505826 
L 701.388705 43.135155 
L 701.992789 43.135155 
L 701.992789 42.836854 
L 702.596873 42.836854 
L 702.596873 41.407166 
L 703.200957 41.407166 
L 703.200957 41.085046 
L 703.805041 41.085046 
L 703.805041 39.31501 
L 704.409124 39.31501 
L 704.409124 39.888516 
L 705.013208 39.888516 
L 705.013208 39.421259 
L 705.617292 39.421259 
L 705.617292 41.380255 
L 706.221376 41.380255 
L 706.221376 42.441713 
L 706.82546 42.441713 
L 706.82546 42.298717 
L 707.429544 42.298717 
L 707.429544 41.813875 
L 708.033628 41.813875 
L 708.033628 42.763065 
L 708.637711 42.763065 
L 708.637711 42.608736 
L 709.241795 42.608736 
L 709.241795 43.254934 
L 709.845879 43.254934 
L 709.845879 44.601468 
L 710.449963 44.601468 
L 710.449963 47.608988 
L 711.054047 47.608988 
L 711.054047 48.220117 
L 711.658131 48.220117 
L 711.658131 49.172925 
L 712.262215 49.172925 
L 712.262215 48.084143 
L 712.866299 48.084143 
L 712.866299 48.816951 
L 713.470382 48.816951 
L 713.470382 47.15326 
L 714.074466 47.15326 
L 714.074466 48.484158 
L 714.67855 48.484158 
L 714.67855 47.53535 
L 715.282634 47.53535 
L 715.282634 49.409902 
L 715.886718 49.409902 
L 715.886718 54.00176 
L 716.490802 54.00176 
L 716.490802 55.876903 
L 717.094886 55.876903 
L 717.094886 55.348248 
L 717.698969 55.348248 
L 717.698969 55.71929 
L 718.303053 55.71929 
L 718.303053 57.204135 
L 718.907137 57.204135 
L 718.907137 56.230456 
L 719.511221 56.230456 
L 719.511221 54.882983 
L 720.115305 54.882983 
L 720.115305 56.188927 
L 720.719389 56.188927 
L 720.719389 55.649571 
L 721.323473 55.649571 
L 721.323473 53.471586 
L 721.927557 53.471586 
L 721.927557 55.146983 
L 722.53164 55.146983 
L 722.53164 52.925816 
L 723.135724 52.925816 
L 723.135724 53.621596 
L 724.343892 53.651835 
L 724.343892 52.784583 
L 724.947976 52.784583 
L 724.947976 52.489257 
L 725.55206 52.489257 
L 725.55206 53.43701 
L 726.156144 53.43701 
L 726.156144 55.050855 
L 726.760228 55.050855 
L 726.760228 56.179367 
L 727.364311 56.179367 
L 727.364311 56.621185 
L 728.572479 56.578699 
L 728.572479 57.148459 
L 729.176563 57.148459 
L 729.176563 54.686765 
L 729.780647 54.686765 
L 729.780647 56.721196 
L 730.384731 56.721196 
L 730.384731 56.877285 
L 730.988815 56.877285 
L 730.988815 57.147938 
L 731.592898 57.147938 
L 731.592898 57.331764 
L 732.196982 57.331764 
L 732.196982 57.112443 
L 732.801066 57.112443 
L 732.801066 56.244511 
L 733.40515 56.244511 
L 733.40515 56.980638 
L 735.217402 56.870329 
L 735.217402 57.262039 
L 735.821486 57.262039 
L 735.821486 56.310855 
L 736.425569 56.310855 
L 736.425569 55.60908 
L 737.029653 55.60908 
L 737.029653 56.258256 
L 737.633737 56.258256 
L 737.633737 55.508838 
L 738.237821 55.508838 
L 738.237821 59.036213 
L 738.841905 59.036213 
L 738.841905 60.168599 
L 739.445989 60.168599 
L 739.445989 60.053607 
L 740.050073 60.053607 
L 740.050073 60.65035 
L 740.654156 60.65035 
L 740.654156 60.332076 
L 741.25824 60.332076 
L 741.25824 59.475338 
L 743.674576 59.432987 
L 743.674576 60.108594 
L 744.27866 60.108594 
L 744.27866 59.78884 
L 745.486827 59.86804 
L 745.486827 60.227617 
L 746.694995 60.13745 
L 746.694995 59.881987 
L 747.299079 59.881987 
L 747.299079 59.450267 
L 747.903163 59.450267 
L 747.903163 56.479303 
L 748.507247 56.479303 
L 748.507247 55.294157 
L 749.111331 55.294157 
L 749.111331 53.805293 
L 749.715414 53.805293 
L 749.715414 53.527473 
L 750.319498 53.527473 
L 750.319498 52.956351 
L 750.923582 52.956351 
L 750.923582 53.212795 
L 751.527666 53.212795 
L 751.527666 53.813019 
L 752.13175 53.813019 
L 752.13175 54.830992 
L 752.735834 54.830992 
L 752.735834 54.30592 
L 753.339918 54.30592 
L 753.339918 52.220951 
L 753.944002 52.220951 
L 753.944002 52.596262 
L 754.548085 52.596262 
L 754.548085 53.119943 
L 755.756253 53.201711 
L 755.756253 54.12697 
L 756.360337 54.12697 
L 756.360337 56.187776 
L 756.964421 56.187776 
L 756.964421 52.118921 
L 757.568505 52.118921 
L 757.568505 50.40409 
L 758.172589 50.40409 
L 758.172589 50.159234 
L 758.776672 50.159234 
L 758.776672 49.655581 
L 759.98484 49.63177 
L 759.98484 49.797809 
L 761.193008 49.708932 
L 761.193008 48.113319 
L 762.401176 48.057381 
L 762.401176 49.06915 
L 763.00526 49.06915 
L 763.00526 49.951288 
L 763.609343 49.951288 
L 763.609343 48.620887 
L 764.213427 48.620887 
L 764.213427 49.593418 
L 764.817511 49.593418 
L 764.817511 48.583437 
L 765.421595 48.583437 
L 765.421595 49.915264 
L 766.025679 49.915264 
L 766.025679 50.54562 
L 766.629763 50.54562 
L 766.629763 50.091726 
L 767.233847 50.091726 
L 767.233847 50.567651 
L 767.837931 50.567651 
L 767.837931 50.778357 
L 768.442014 50.778357 
L 768.442014 49.839434 
L 769.046098 49.839434 
L 769.046098 50.199272 
L 770.254266 50.205382 
L 770.254266 51.257653 
L 770.85835 51.257653 
L 770.85835 51.829472 
L 771.462434 51.829472 
L 771.462434 50.88498 
L 772.066518 50.88498 
L 772.066518 48.334542 
L 772.670601 48.334542 
L 772.670601 48.092263 
L 773.274685 48.092263 
L 773.274685 47.95684 
L 773.878769 47.95684 
L 773.878769 47.757901 
L 774.482853 47.757901 
L 774.482853 48.126893 
L 775.086937 48.126893 
L 775.086937 48.009538 
L 776.295105 48.1098 
L 776.295105 48.402778 
L 776.899189 48.402778 
L 776.899189 48.827615 
L 778.107356 48.73307 
L 778.107356 48.482906 
L 778.71144 48.482906 
L 778.71144 48.917568 
L 779.315524 48.917568 
L 779.315524 48.562751 
L 779.919608 48.562751 
L 779.919608 48.755193 
L 780.523692 48.755193 
L 780.523692 50.638715 
L 781.127776 50.638715 
L 781.127776 51.048563 
L 782.335943 51.10552 
L 782.335943 49.849157 
L 782.940027 49.849157 
L 782.940027 51.245019 
L 784.752279 51.273194 
L 784.752279 50.733864 
L 785.356363 50.733864 
L 785.356363 50.562255 
L 785.960447 50.562255 
L 785.960447 50.699204 
L 786.56453 50.699204 
L 786.56453 50.97995 
L 787.168614 50.97995 
L 787.168614 50.407782 
L 787.772698 50.407782 
L 787.772698 49.801182 
L 788.980866 49.700571 
L 788.980866 50.566082 
L 789.58495 50.566082 
L 789.58495 49.287835 
L 790.189034 49.287835 
L 790.189034 48.483589 
L 790.793117 48.483589 
L 790.793117 45.814133 
L 792.001285 45.703066 
L 792.001285 44.923278 
L 792.605369 44.923278 
L 792.605369 45.146723 
L 793.209453 45.146723 
L 793.209453 44.224065 
L 795.021705 44.263477 
L 795.021705 44.71559 
L 795.625788 44.71559 
L 795.625788 43.628464 
L 796.833956 43.593205 
L 796.833956 42.504987 
L 797.43804 42.504987 
L 797.43804 40.901646 
L 798.042124 40.901646 
L 798.042124 41.88071 
L 798.646208 41.88071 
L 798.646208 41.544424 
L 799.250292 41.544424 
L 799.250292 41.388008 
L 799.854375 41.388008 
L 799.854375 40.696943 
L 800.458459 40.696943 
L 800.458459 40.822005 
L 801.062543 40.822005 
L 801.062543 41.394153 
L 801.666627 41.394153 
L 801.666627 40.492425 
L 802.270711 40.492425 
L 802.270711 39.266261 
L 802.874795 39.266261 
L 802.874795 41.113654 
L 803.478879 41.113654 
L 803.478879 40.978922 
L 804.082963 40.978922 
L 804.082963 41.676697 
L 804.687046 41.676697 
L 804.687046 42.4586 
L 805.29113 42.4586 
L 805.29113 41.498457 
L 805.895214 41.498457 
L 805.895214 41.012117 
L 806.499298 41.012117 
L 806.499298 41.203232 
L 807.103382 41.203232 
L 807.103382 39.197072 
L 807.707466 39.197072 
L 807.707466 38.116935 
L 808.31155 38.116935 
L 808.31155 37.346209 
L 810.123801 37.329738 
L 810.123801 33.962037 
L 810.727885 33.962037 
L 810.727885 31.726005 
L 811.936053 31.7468 
L 811.936053 30.832378 
L 812.540137 30.832378 
L 812.540137 32.649708 
L 813.144221 32.649708 
L 813.144221 31.879449 
L 813.748304 31.879449 
L 813.748304 32.067013 
L 814.352388 32.067013 
L 814.352388 31.039775 
L 814.956472 31.039775 
L 814.956472 31.340992 
L 815.560556 31.340992 
L 815.560556 31.879378 
L 816.16464 31.879378 
L 816.16464 31.502852 
L 816.768724 31.502852 
L 816.768724 33.048458 
L 817.372808 33.048458 
L 817.372808 33.926608 
L 817.976892 33.926608 
L 817.976892 32.758825 
L 818.580975 32.758825 
L 818.580975 32.902644 
L 819.185059 32.902644 
L 819.185059 33.107208 
L 819.789143 33.107208 
L 819.789143 33.407503 
L 820.393227 33.407503 
L 820.393227 33.58774 
L 820.997311 33.58774 
L 820.997311 34.082781 
L 821.601395 34.082781 
L 821.601395 32.364088 
L 822.809562 32.355923 
L 822.809562 31.854295 
L 823.413646 31.854295 
L 823.413646 31.435462 
L 824.01773 31.435462 
L 824.01773 31.989914 
L 824.621814 31.989914 
L 824.621814 31.097031 
L 825.225898 31.097031 
L 825.225898 31.457543 
L 825.829982 31.457543 
L 825.829982 31.766539 
L 826.434066 31.766539 
L 826.434066 32.243874 
L 827.03815 32.243874 
L 827.03815 32.795806 
L 827.642233 32.795806 
L 827.642233 34.25733 
L 828.850401 34.245297 
L 828.850401 33.683018 
L 829.454485 33.683018 
L 829.454485 34.939832 
L 830.058569 34.939832 
L 830.058569 35.120601 
L 830.662653 35.120601 
L 830.662653 34.085297 
L 831.266737 34.085297 
L 831.266737 33.064503 
L 831.87082 33.064503 
L 831.87082 31.956516 
L 833.078988 31.862386 
L 833.078988 32.382022 
L 833.683072 32.382022 
L 833.683072 34.125462 
L 834.287156 34.125462 
L 834.287156 36.08576 
L 834.89124 36.08576 
L 834.89124 34.784735 
L 835.495324 34.784735 
L 835.495324 35.197131 
L 836.099408 35.197131 
L 836.099408 34.526849 
L 836.703491 34.526849 
L 836.703491 33.028923 
L 837.307575 33.028923 
L 837.307575 34.529919 
L 837.911659 34.529919 
L 837.911659 34.698766 
L 838.515743 34.698766 
L 838.515743 35.042962 
L 839.119827 35.042962 
L 839.119827 36.150194 
L 839.723911 36.150194 
L 839.723911 34.984255 
L 840.932078 34.964065 
L 840.932078 33.30306 
L 841.536162 33.30306 
L 841.536162 32.967287 
L 842.140246 32.967287 
L 842.140246 32.470669 
L 842.74433 32.470669 
L 842.74433 34.13778 
L 843.348414 34.13778 
L 843.348414 33.429978 
L 843.952498 33.429978 
L 843.952498 34.260761 
L 844.556582 34.260761 
L 844.556582 32.421946 
L 845.160666 32.421946 
L 845.160666 31.711758 
L 845.764749 31.711758 
L 845.764749 32.024679 
L 846.972917 32.129106 
L 846.972917 30.597617 
L 847.577001 30.597617 
L 847.577001 31.618646 
L 848.181085 31.618646 
L 848.181085 29.623148 
L 848.785169 29.623148 
L 848.785169 26.496099 
L 849.389253 26.496099 
L 849.389253 25.972542 
L 849.993337 25.972542 
L 849.993337 25.68654 
L 850.59742 25.68654 
L 850.59742 24.544065 
L 851.201504 24.544065 
L 851.201504 24.921367 
L 851.805588 24.921367 
L 851.805588 24.647703 
L 853.61784 24.60812 
L 853.61784 23.800049 
L 854.221924 23.800049 
L 854.221924 22.892956 
L 854.826007 22.892956 
L 854.826007 24.657425 
L 855.430091 24.657425 
L 855.430091 24.233647 
L 856.034175 24.233647 
L 856.034175 25.434429 
L 856.638259 25.434429 
L 856.638259 24.734594 
L 857.242343 24.734594 
L 857.242343 23.645135 
L 857.846427 23.645135 
L 857.846427 25.185597 
L 858.450511 25.185597 
L 858.450511 24.802402 
L 859.054595 24.802402 
L 859.054595 23.226205 
L 859.658678 23.226205 
L 859.658678 23.375206 
L 860.262762 23.375206 
L 860.262762 23.578607 
L 860.866846 23.578607 
L 860.866846 23.161861 
L 861.47093 23.161861 
L 861.47093 23.810496 
L 862.075014 23.810496 
L 862.075014 24.799581 
L 862.679098 24.799581 
L 862.679098 24.964312 
L 863.283182 24.964312 
L 863.283182 24.58175 
L 863.887265 24.58175 
L 863.887265 24.778357 
L 865.095433 24.854969 
L 865.095433 27.440046 
L 865.699517 27.440046 
L 865.699517 27.102244 
L 866.303601 27.102244 
L 866.303601 26.948002 
L 866.907685 26.948002 
L 866.907685 27.868421 
L 867.511769 27.868421 
L 867.511769 27.512833 
L 868.115853 27.512833 
L 868.115853 26.919765 
L 868.719936 26.919765 
L 868.719936 27.10801 
L 869.32402 27.10801 
L 869.32402 26.845882 
L 869.928104 26.845882 
L 869.928104 27.948112 
L 870.532188 27.948112 
L 870.532188 27.631663 
L 871.136272 27.631663 
L 871.136272 29.533356 
L 871.740356 29.533356 
L 871.740356 27.289394 
L 872.34444 27.289394 
L 872.34444 27.585829 
L 872.948523 27.585829 
L 872.948523 27.315461 
L 873.552607 27.315461 
L 873.552607 25.341394 
L 874.156691 25.341394 
L 874.156691 25.123026 
L 874.760775 25.123026 
L 874.760775 24.719386 
L 875.968943 24.741902 
L 875.968943 23.157586 
L 876.573027 23.157586 
L 876.573027 23.391651 
L 877.177111 23.391651 
L 877.177111 22.842181 
L 877.781194 22.842181 
L 877.781194 21.866688 
L 878.385278 21.866688 
L 878.385278 22.273564 
L 878.989362 22.273564 
L 878.989362 23.299661 
L 879.593446 23.299661 
L 879.593446 23.029914 
L 880.801614 22.992133 
L 880.801614 22.419511 
L 881.405698 22.419511 
L 881.405698 23.006267 
L 882.009781 23.006267 
L 882.009781 23.174064 
L 882.613865 23.174064 
L 882.613865 23.040234 
L 883.217949 23.040234 
L 883.217949 22.713235 
L 883.822033 22.713235 
L 883.822033 22.978295 
L 884.426117 22.978295 
L 884.426117 22.50197 
L 885.030201 22.50197 
L 885.030201 21.941767 
L 885.634285 21.941767 
L 885.634285 20.583301 
L 886.842452 20.552727 
L 886.842452 20.747032 
L 887.194182 20.747032 
L 887.194182 20.747032 
" clip-path="url(#p8b7cbbe13c)" style="fill: none; stroke: #3572c6; stroke-width: 1.2; stroke-linecap: square"/>
   </g>
   <g id="line2d_79">
    <path d="M 75.557818 20.552727 
L 887.194182 20.552727 
L 887.194182 20.552727 
" clip-path="url(#p8b7cbbe13c)" style="fill: none; stroke: #83a83b; stroke-width: 1.2; stroke-linecap: square"/>
   </g>
   <g id="line2d_80">
    <path d="M 75.557818 20.747032 
L 887.194182 20.747032 
L 887.194182 20.747032 
" clip-path="url(#p8b7cbbe13c)" style="fill: none; stroke: #c44e52; stroke-width: 1.2; stroke-linecap: square"/>
   </g>
   <g id="line2d_81">
    <path d="M 886.842452 300.96 
L 886.842452 7.2 
" clip-path="url(#p8b7cbbe13c)" style="fill: none; stroke: #83a83b; stroke-width: 1.2; stroke-linecap: square"/>
   </g>
   <g id="line2d_82">
    <path d="M 887.194182 300.96 
L 887.194182 7.2 
" clip-path="url(#p8b7cbbe13c)" style="fill: none; stroke: #c44e52; stroke-width: 1.2; stroke-linecap: square"/>
   </g>
   <g id="patch_3">
    <path d="M 34.976 300.96 
L 34.976 7.2 
" style="fill: none; stroke: #899ab8; stroke-width: 1.12; stroke-linejoin: miter; stroke-linecap: square"/>
   </g>
   <g id="patch_4">
    <path d="M 927.776 300.96 
L 927.776 7.2 
" style="fill: none; stroke: #899ab8; stroke-width: 1.12; stroke-linejoin: miter; stroke-linecap: square"/>
   </g>
   <g id="patch_5">
    <path d="M 34.976 300.96 
L 927.776 300.96 
" style="fill: none; stroke: #899ab8; stroke-width: 1.12; stroke-linejoin: miter; stroke-linecap: square"/>
   </g>
   <g id="patch_6">
    <path d="M 34.976 7.2 
L 927.776 7.2 
" style="fill: none; stroke: #899ab8; stroke-width: 1.12; stroke-linejoin: miter; stroke-linecap: square"/>
   </g>
   <g id="text_16">
    <!-- 119276.85 -->
    <g style="fill: #83a83b" transform="translate(185.803124 20.552727) scale(0.132 -0.132)">
     <defs>
      <path id="DejaVuSans-39" d="M 703 97 
L 703 672 
Q 941 559 1184 500 
Q 1428 441 1663 441 
Q 2288 441 2617 861 
Q 2947 1281 2994 2138 
Q 2813 1869 2534 1725 
Q 2256 1581 1919 1581 
Q 1219 1581 811 2004 
Q 403 2428 403 3163 
Q 403 3881 828 4315 
Q 1253 4750 1959 4750 
Q 2769 4750 3195 4129 
Q 3622 3509 3622 2328 
Q 3622 1225 3098 567 
Q 2575 -91 1691 -91 
Q 1453 -91 1209 -44 
Q 966 3 703 97 
z
M 1959 2075 
Q 2384 2075 2632 2365 
Q 2881 2656 2881 3163 
Q 2881 3666 2632 3958 
Q 2384 4250 1959 4250 
Q 1534 4250 1286 3958 
Q 1038 3666 1038 3163 
Q 1038 2656 1286 2365 
Q 1534 2075 1959 2075 
z
" transform="scale(0.015625)"/>
      <path id="DejaVuSans-37" d="M 525 4666 
L 3525 4666 
L 3525 4397 
L 1831 0 
L 1172 0 
L 2766 4134 
L 525 4134 
L 525 4666 
z
" transform="scale(0.015625)"/>
      <path id="DejaVuSans-2e" d="M 684 794 
L 1344 794 
L 1344 0 
L 684 0 
L 684 794 
z
" transform="scale(0.015625)"/>
     </defs>
     <use xlink:href="#DejaVuSans-31"/>
     <use xlink:href="#DejaVuSans-31" transform="translate(63.623047 0)"/>
     <use xlink:href="#DejaVuSans-39" transform="translate(127.246094 0)"/>
     <use xlink:href="#DejaVuSans-32" transform="translate(190.869141 0)"/>
     <use xlink:href="#DejaVuSans-37" transform="translate(254.492188 0)"/>
     <use xlink:href="#DejaVuSans-36" transform="translate(318.115234 0)"/>
     <use xlink:href="#DejaVuSans-2e" transform="translate(381.738281 0)"/>
     <use xlink:href="#DejaVuSans-38" transform="translate(413.525391 0)"/>
     <use xlink:href="#DejaVuSans-35" transform="translate(477.148438 0)"/>
    </g>
   </g>
   <g id="text_17">
    <!-- 118128.304002248 -->
    <g style="fill: #c44e52" transform="translate(185.803124 20.747032) scale(0.132 -0.132)">
     <use xlink:href="#DejaVuSans-31"/>
     <use xlink:href="#DejaVuSans-31" transform="translate(63.623047 0)"/>
     <use xlink:href="#DejaVuSans-38" transform="translate(127.246094 0)"/>
     <use xlink:href="#DejaVuSans-31" transform="translate(190.869141 0)"/>
     <use xlink:href="#DejaVuSans-32" transform="translate(254.492188 0)"/>
     <use xlink:href="#DejaVuSans-38" transform="translate(318.115234 0)"/>
     <use xlink:href="#DejaVuSans-2e" transform="translate(381.738281 0)"/>
     <use xlink:href="#DejaVuSans-33" transform="translate(413.525391 0)"/>
     <use xlink:href="#DejaVuSans-30" transform="translate(477.148438 0)"/>
     <use xlink:href="#DejaVuSans-34" transform="translate(540.771484 0)"/>
     <use xlink:href="#DejaVuSans-30" transform="translate(604.394531 0)"/>
     <use xlink:href="#DejaVuSans-30" transform="translate(668.017578 0)"/>
     <use xlink:href="#DejaVuSans-32" transform="translate(731.640625 0)"/>
     <use xlink:href="#DejaVuSans-32" transform="translate(795.263672 0)"/>
     <use xlink:href="#DejaVuSans-34" transform="translate(858.886719 0)"/>
     <use xlink:href="#DejaVuSans-38" transform="translate(922.509766 0)"/>
    </g>
   </g>
   <g id="legend_1">
    <g id="patch_7">
     <path d="M 43.796 183.886875 
L 142.133094 183.886875 
Q 144.653094 183.886875 144.653094 181.366875 
L 144.653094 126.793125 
Q 144.653094 124.273125 142.133094 124.273125 
L 43.796 124.273125 
Q 41.276 124.273125 41.276 126.793125 
L 41.276 181.366875 
Q 41.276 183.886875 43.796 183.886875 
z
" style="fill: #373e4b; opacity: 0.8; stroke: #cccccc; stroke-width: 0.16; stroke-linejoin: miter"/>
    </g>
    <g id="line2d_83">
     <path d="M 46.316 134.477156 
L 46.316 134.477156 
L 58.916 134.477156 
L 58.916 134.477156 
L 71.516 134.477156 
" style="fill: none; stroke: #3572c6; stroke-width: 1.2; stroke-linecap: square"/>
    </g>
    <g id="text_18">
     <!-- USD/BTC -->
     <g style="fill: #b1bed6" transform="translate(81.596 138.887156) scale(0.126 -0.126)">
      <defs>
       <path id="DejaVuSans-55" d="M 556 4666 
L 1191 4666 
L 1191 1831 
Q 1191 1081 1462 751 
Q 1734 422 2344 422 
Q 2950 422 3222 751 
Q 3494 1081 3494 1831 
L 3494 4666 
L 4128 4666 
L 4128 1753 
Q 4128 841 3676 375 
Q 3225 -91 2344 -91 
Q 1459 -91 1007 375 
Q 556 841 556 1753 
L 556 4666 
z
" transform="scale(0.015625)"/>
       <path id="DejaVuSans-53" d="M 3425 4513 
L 3425 3897 
Q 3066 4069 2747 4153 
Q 2428 4238 2131 4238 
Q 1616 4238 1336 4038 
Q 1056 3838 1056 3469 
Q 1056 3159 1242 3001 
Q 1428 2844 1947 2747 
L 2328 2669 
Q 3034 2534 3370 2195 
Q 3706 1856 3706 1288 
Q 3706 609 3251 259 
Q 2797 -91 1919 -91 
Q 1588 -91 1214 -16 
Q 841 59 441 206 
L 441 856 
Q 825 641 1194 531 
Q 1563 422 1919 422 
Q 2459 422 2753 634 
Q 3047 847 3047 1241 
Q 3047 1584 2836 1778 
Q 2625 1972 2144 2069 
L 1759 2144 
Q 1053 2284 737 2584 
Q 422 2884 422 3419 
Q 422 4038 858 4394 
Q 1294 4750 2059 4750 
Q 2388 4750 2728 4690 
Q 3069 4631 3425 4513 
z
" transform="scale(0.015625)"/>
       <path id="DejaVuSans-2f" d="M 1625 4666 
L 2156 4666 
L 531 -594 
L 0 -594 
L 1625 4666 
z
" transform="scale(0.015625)"/>
       <path id="DejaVuSans-42" d="M 1259 2228 
L 1259 519 
L 2272 519 
Q 2781 519 3026 730 
Q 3272 941 3272 1375 
Q 3272 1813 3026 2020 
Q 2781 2228 2272 2228 
L 1259 2228 
z
M 1259 4147 
L 1259 2741 
L 2194 2741 
Q 2656 2741 2882 2914 
Q 3109 3088 3109 3444 
Q 3109 3797 2882 3972 
Q 2656 4147 2194 4147 
L 1259 4147 
z
M 628 4666 
L 2241 4666 
Q 2963 4666 3353 4366 
Q 3744 4066 3744 3513 
Q 3744 3084 3544 2831 
Q 3344 2578 2956 2516 
Q 3422 2416 3680 2098 
Q 3938 1781 3938 1306 
Q 3938 681 3513 340 
Q 3088 0 2303 0 
L 628 0 
L 628 4666 
z
" transform="scale(0.015625)"/>
       <path id="DejaVuSans-54" d="M -19 4666 
L 3928 4666 
L 3928 4134 
L 2272 4134 
L 2272 0 
L 1638 0 
L 1638 4134 
L -19 4134 
L -19 4666 
z
" transform="scale(0.015625)"/>
       <path id="DejaVuSans-43" d="M 4122 4306 
L 4122 3641 
Q 3803 3938 3442 4084 
Q 3081 4231 2675 4231 
Q 1875 4231 1450 3742 
Q 1025 3253 1025 2328 
Q 1025 1406 1450 917 
Q 1875 428 2675 428 
Q 3081 428 3442 575 
Q 3803 722 4122 1019 
L 4122 359 
Q 3791 134 3420 21 
Q 3050 -91 2638 -91 
Q 1578 -91 968 557 
Q 359 1206 359 2328 
Q 359 3453 968 4101 
Q 1578 4750 2638 4750 
Q 3056 4750 3426 4639 
Q 3797 4528 4122 4306 
z
" transform="scale(0.015625)"/>
      </defs>
      <use xlink:href="#DejaVuSans-55"/>
      <use xlink:href="#DejaVuSans-53" transform="translate(73.193359 0)"/>
      <use xlink:href="#DejaVuSans-44" transform="translate(136.669922 0)"/>
      <use xlink:href="#DejaVuSans-2f" transform="translate(213.671875 0)"/>
      <use xlink:href="#DejaVuSans-42" transform="translate(247.363281 0)"/>
      <use xlink:href="#DejaVuSans-54" transform="translate(315.966797 0)"/>
      <use xlink:href="#DejaVuSans-43" transform="translate(371.175781 0)"/>
     </g>
    </g>
    <g id="line2d_84">
     <path d="M 46.316 152.971594 
L 46.316 152.971594 
L 58.916 152.971594 
L 58.916 152.971594 
L 71.516 152.971594 
" style="fill: none; stroke: #83a83b; stroke-width: 1.2; stroke-linecap: square"/>
    </g>
    <g id="text_19">
     <!-- Max -->
     <g style="fill: #b1bed6" transform="translate(81.596 157.381594) scale(0.126 -0.126)">
      <defs>
       <path id="DejaVuSans-4d" d="M 628 4666 
L 1569 4666 
L 2759 1491 
L 3956 4666 
L 4897 4666 
L 4897 0 
L 4281 0 
L 4281 4097 
L 3078 897 
L 2444 897 
L 1241 4097 
L 1241 0 
L 628 0 
L 628 4666 
z
" transform="scale(0.015625)"/>
       <path id="DejaVuSans-78" d="M 3513 3500 
L 2247 1797 
L 3578 0 
L 2900 0 
L 1881 1375 
L 863 0 
L 184 0 
L 1544 1831 
L 300 3500 
L 978 3500 
L 1906 2253 
L 2834 3500 
L 3513 3500 
z
" transform="scale(0.015625)"/>
      </defs>
      <use xlink:href="#DejaVuSans-4d"/>
      <use xlink:href="#DejaVuSans-61" transform="translate(86.279297 0)"/>
      <use xlink:href="#DejaVuSans-78" transform="translate(147.558594 0)"/>
     </g>
    </g>
    <g id="line2d_85">
     <path d="M 46.316 171.466031 
L 46.316 171.466031 
L 58.916 171.466031 
L 58.916 171.466031 
L 71.516 171.466031 
" style="fill: none; stroke: #c44e52; stroke-width: 1.2; stroke-linecap: square"/>
    </g>
    <g id="text_20">
     <!-- local_Min -->
     <g style="fill: #b1bed6" transform="translate(81.596 175.876031) scale(0.126 -0.126)">
      <defs>
       <path id="DejaVuSans-6c" d="M 603 4863 
L 1178 4863 
L 1178 0 
L 603 0 
L 603 4863 
z
" transform="scale(0.015625)"/>
       <path id="DejaVuSans-6f" d="M 1959 3097 
Q 1497 3097 1228 2736 
Q 959 2375 959 1747 
Q 959 1119 1226 758 
Q 1494 397 1959 397 
Q 2419 397 2687 759 
Q 2956 1122 2956 1747 
Q 2956 2369 2687 2733 
Q 2419 3097 1959 3097 
z
M 1959 3584 
Q 2709 3584 3137 3096 
Q 3566 2609 3566 1747 
Q 3566 888 3137 398 
Q 2709 -91 1959 -91 
Q 1206 -91 779 398 
Q 353 888 353 1747 
Q 353 2609 779 3096 
Q 1206 3584 1959 3584 
z
" transform="scale(0.015625)"/>
       <path id="DejaVuSans-63" d="M 3122 3366 
L 3122 2828 
Q 2878 2963 2633 3030 
Q 2388 3097 2138 3097 
Q 1578 3097 1268 2742 
Q 959 2388 959 1747 
Q 959 1106 1268 751 
Q 1578 397 2138 397 
Q 2388 397 2633 464 
Q 2878 531 3122 666 
L 3122 134 
Q 2881 22 2623 -34 
Q 2366 -91 2075 -91 
Q 1284 -91 818 406 
Q 353 903 353 1747 
Q 353 2603 823 3093 
Q 1294 3584 2113 3584 
Q 2378 3584 2631 3529 
Q 2884 3475 3122 3366 
z
" transform="scale(0.015625)"/>
       <path id="DejaVuSans-5f" d="M 3263 -1063 
L 3263 -1509 
L -63 -1509 
L -63 -1063 
L 3263 -1063 
z
" transform="scale(0.015625)"/>
       <path id="DejaVuSans-69" d="M 603 3500 
L 1178 3500 
L 1178 0 
L 603 0 
L 603 3500 
z
M 603 4863 
L 1178 4863 
L 1178 4134 
L 603 4134 
L 603 4863 
z
" transform="scale(0.015625)"/>
       <path id="DejaVuSans-6e" d="M 3513 2113 
L 3513 0 
L 2938 0 
L 2938 2094 
Q 2938 2591 2744 2837 
Q 2550 3084 2163 3084 
Q 1697 3084 1428 2787 
Q 1159 2491 1159 1978 
L 1159 0 
L 581 0 
L 581 3500 
L 1159 3500 
L 1159 2956 
Q 1366 3272 1645 3428 
Q 1925 3584 2291 3584 
Q 2894 3584 3203 3211 
Q 3513 2838 3513 2113 
z
" transform="scale(0.015625)"/>
      </defs>
      <use xlink:href="#DejaVuSans-6c"/>
      <use xlink:href="#DejaVuSans-6f" transform="translate(27.783203 0)"/>
      <use xlink:href="#DejaVuSans-63" transform="translate(88.964844 0)"/>
      <use xlink:href="#DejaVuSans-61" transform="translate(143.945312 0)"/>
      <use xlink:href="#DejaVuSans-6c" transform="translate(205.224609 0)"/>
      <use xlink:href="#DejaVuSans-5f" transform="translate(233.007812 0)"/>
      <use xlink:href="#DejaVuSans-4d" transform="translate(283.007812 0)"/>
      <use xlink:href="#DejaVuSans-69" transform="translate(369.287109 0)"/>
      <use xlink:href="#DejaVuSans-6e" transform="translate(397.070312 0)"/>
     </g>
    </g>
   </g>
  </g>
 </g>
 <defs>
  <clipPath id="p8b7cbbe13c">
   <rect x="34.976" y="7.2" width="892.8" height="293.76"/>
  </clipPath>
 </defs>
</svg>
