<?xml version="1.0" encoding="utf-8" standalone="no"?>
<!DOCTYPE svg PUBLIC "-//W3C//DTD SVG 1.1//EN"
  "http://www.w3.org/Graphics/SVG/1.1/DTD/svg11.dtd">
<svg xmlns:xlink="http://www.w3.org/1999/xlink" width="934.976pt" height="358.470384pt" viewBox="0 0 934.976 358.470384" xmlns="http://www.w3.org/2000/svg" version="1.1">
 <metadata>
  <rdf:RDF xmlns:dc="http://purl.org/dc/elements/1.1/" xmlns:cc="http://creativecommons.org/ns#" xmlns:rdf="http://www.w3.org/1999/02/22-rdf-syntax-ns#">
   <cc:Work>
    <dc:type rdf:resource="http://purl.org/dc/dcmitype/StillImage"/>
    <dc:date>2022-04-23T18:57:26.179652</dc:date>
    <dc:format>image/svg+xml</dc:format>
    <dc:creator>
     <cc:Agent>
      <dc:title>Matplotlib v3.5.1, https://matplotlib.org/</dc:title>
     </cc:Agent>
    </dc:creator>
   </cc:Work>
  </rdf:RDF>
 </metadata>
 <defs>
  <style type="text/css">*{stroke-linejoin: round; stroke-linecap: butt}</style>
 </defs>
 <g id="figure_1">
  <g id="patch_1">
   <path d="M 0 358.470384 
L 934.976 358.470384 
L 934.976 0 
L 0 0 
z
" style="fill: #373e4b"/>
  </g>
  <g id="axes_1">
   <g id="patch_2">
    <path d="M 34.976 301.139691 
L 927.776 301.139691 
L 927.776 7.379691 
L 34.976 7.379691 
z
" style="fill: #373e4b"/>
   </g>
   <g id="matplotlib.axis_1">
    <g id="xtick_1">
     <g id="line2d_1">
      <path d="M 157.694133 301.139691 
L 157.694133 7.379691 
" clip-path="url(#pe6c5a36c80)" style="fill: none; stroke: #546379; stroke-width: 1.12; stroke-linecap: square"/>
     </g>
     <g id="line2d_2"/>
     <g id="text_1">
      <!-- 2012 -->
      <g style="fill: #b1bed6" transform="translate(128.613093 331.064545)rotate(-30)scale(0.126 -0.126)">
       <defs>
        <path id="DejaVuSans-32" d="M 1228 531 
L 3431 531 
L 3431 0 
L 469 0 
L 469 531 
Q 828 903 1448 1529 
Q 2069 2156 2228 2338 
Q 2531 2678 2651 2914 
Q 2772 3150 2772 3378 
Q 2772 3750 2511 3984 
Q 2250 4219 1831 4219 
Q 1534 4219 1204 4116 
Q 875 4013 500 3803 
L 500 4441 
Q 881 4594 1212 4672 
Q 1544 4750 1819 4750 
Q 2544 4750 2975 4387 
Q 3406 4025 3406 3419 
Q 3406 3131 3298 2873 
Q 3191 2616 2906 2266 
Q 2828 2175 2409 1742 
Q 1991 1309 1228 531 
z
" transform="scale(0.015625)"/>
        <path id="DejaVuSans-30" d="M 2034 4250 
Q 1547 4250 1301 3770 
Q 1056 3291 1056 2328 
Q 1056 1369 1301 889 
Q 1547 409 2034 409 
Q 2525 409 2770 889 
Q 3016 1369 3016 2328 
Q 3016 3291 2770 3770 
Q 2525 4250 2034 4250 
z
M 2034 4750 
Q 2819 4750 3233 4129 
Q 3647 3509 3647 2328 
Q 3647 1150 3233 529 
Q 2819 -91 2034 -91 
Q 1250 -91 836 529 
Q 422 1150 422 2328 
Q 422 3509 836 4129 
Q 1250 4750 2034 4750 
z
" transform="scale(0.015625)"/>
        <path id="DejaVuSans-31" d="M 794 531 
L 1825 531 
L 1825 4091 
L 703 3866 
L 703 4441 
L 1819 4666 
L 2450 4666 
L 2450 531 
L 3481 531 
L 3481 0 
L 794 0 
L 794 531 
z
" transform="scale(0.015625)"/>
       </defs>
       <use xlink:href="#DejaVuSans-32"/>
       <use xlink:href="#DejaVuSans-30" x="63.623047"/>
       <use xlink:href="#DejaVuSans-31" x="127.246094"/>
       <use xlink:href="#DejaVuSans-32" x="190.869141"/>
      </g>
     </g>
    </g>
    <g id="xtick_2">
     <g id="line2d_3">
      <path d="M 299.301788 301.139691 
L 299.301788 7.379691 
" clip-path="url(#pe6c5a36c80)" style="fill: none; stroke: #546379; stroke-width: 1.12; stroke-linecap: square"/>
     </g>
     <g id="line2d_4"/>
     <g id="text_2">
      <!-- 2014 -->
      <g style="fill: #b1bed6" transform="translate(270.220749 331.064545)rotate(-30)scale(0.126 -0.126)">
       <defs>
        <path id="DejaVuSans-34" d="M 2419 4116 
L 825 1625 
L 2419 1625 
L 2419 4116 
z
M 2253 4666 
L 3047 4666 
L 3047 1625 
L 3713 1625 
L 3713 1100 
L 3047 1100 
L 3047 0 
L 2419 0 
L 2419 1100 
L 313 1100 
L 313 1709 
L 2253 4666 
z
" transform="scale(0.015625)"/>
       </defs>
       <use xlink:href="#DejaVuSans-32"/>
       <use xlink:href="#DejaVuSans-30" x="63.623047"/>
       <use xlink:href="#DejaVuSans-31" x="127.246094"/>
       <use xlink:href="#DejaVuSans-34" x="190.869141"/>
      </g>
     </g>
    </g>
    <g id="xtick_3">
     <g id="line2d_5">
      <path d="M 440.715726 301.139691 
L 440.715726 7.379691 
" clip-path="url(#pe6c5a36c80)" style="fill: none; stroke: #546379; stroke-width: 1.12; stroke-linecap: square"/>
     </g>
     <g id="line2d_6"/>
     <g id="text_3">
      <!-- 2016 -->
      <g style="fill: #b1bed6" transform="translate(411.634686 331.064545)rotate(-30)scale(0.126 -0.126)">
       <defs>
        <path id="DejaVuSans-36" d="M 2113 2584 
Q 1688 2584 1439 2293 
Q 1191 2003 1191 1497 
Q 1191 994 1439 701 
Q 1688 409 2113 409 
Q 2538 409 2786 701 
Q 3034 994 3034 1497 
Q 3034 2003 2786 2293 
Q 2538 2584 2113 2584 
z
M 3366 4563 
L 3366 3988 
Q 3128 4100 2886 4159 
Q 2644 4219 2406 4219 
Q 1781 4219 1451 3797 
Q 1122 3375 1075 2522 
Q 1259 2794 1537 2939 
Q 1816 3084 2150 3084 
Q 2853 3084 3261 2657 
Q 3669 2231 3669 1497 
Q 3669 778 3244 343 
Q 2819 -91 2113 -91 
Q 1303 -91 875 529 
Q 447 1150 447 2328 
Q 447 3434 972 4092 
Q 1497 4750 2381 4750 
Q 2619 4750 2861 4703 
Q 3103 4656 3366 4563 
z
" transform="scale(0.015625)"/>
       </defs>
       <use xlink:href="#DejaVuSans-32"/>
       <use xlink:href="#DejaVuSans-30" x="63.623047"/>
       <use xlink:href="#DejaVuSans-31" x="127.246094"/>
       <use xlink:href="#DejaVuSans-36" x="190.869141"/>
      </g>
     </g>
    </g>
    <g id="xtick_4">
     <g id="line2d_7">
      <path d="M 582.323382 301.139691 
L 582.323382 7.379691 
" clip-path="url(#pe6c5a36c80)" style="fill: none; stroke: #546379; stroke-width: 1.12; stroke-linecap: square"/>
     </g>
     <g id="line2d_8"/>
     <g id="text_4">
      <!-- 2018 -->
      <g style="fill: #b1bed6" transform="translate(553.242342 331.064545)rotate(-30)scale(0.126 -0.126)">
       <defs>
        <path id="DejaVuSans-38" d="M 2034 2216 
Q 1584 2216 1326 1975 
Q 1069 1734 1069 1313 
Q 1069 891 1326 650 
Q 1584 409 2034 409 
Q 2484 409 2743 651 
Q 3003 894 3003 1313 
Q 3003 1734 2745 1975 
Q 2488 2216 2034 2216 
z
M 1403 2484 
Q 997 2584 770 2862 
Q 544 3141 544 3541 
Q 544 4100 942 4425 
Q 1341 4750 2034 4750 
Q 2731 4750 3128 4425 
Q 3525 4100 3525 3541 
Q 3525 3141 3298 2862 
Q 3072 2584 2669 2484 
Q 3125 2378 3379 2068 
Q 3634 1759 3634 1313 
Q 3634 634 3220 271 
Q 2806 -91 2034 -91 
Q 1263 -91 848 271 
Q 434 634 434 1313 
Q 434 1759 690 2068 
Q 947 2378 1403 2484 
z
M 1172 3481 
Q 1172 3119 1398 2916 
Q 1625 2713 2034 2713 
Q 2441 2713 2670 2916 
Q 2900 3119 2900 3481 
Q 2900 3844 2670 4047 
Q 2441 4250 2034 4250 
Q 1625 4250 1398 4047 
Q 1172 3844 1172 3481 
z
" transform="scale(0.015625)"/>
       </defs>
       <use xlink:href="#DejaVuSans-32"/>
       <use xlink:href="#DejaVuSans-30" x="63.623047"/>
       <use xlink:href="#DejaVuSans-31" x="127.246094"/>
       <use xlink:href="#DejaVuSans-38" x="190.869141"/>
      </g>
     </g>
    </g>
    <g id="xtick_5">
     <g id="line2d_9">
      <path d="M 723.73732 301.139691 
L 723.73732 7.379691 
" clip-path="url(#pe6c5a36c80)" style="fill: none; stroke: #546379; stroke-width: 1.12; stroke-linecap: square"/>
     </g>
     <g id="line2d_10"/>
     <g id="text_5">
      <!-- 2020 -->
      <g style="fill: #b1bed6" transform="translate(694.65628 331.064545)rotate(-30)scale(0.126 -0.126)">
       <use xlink:href="#DejaVuSans-32"/>
       <use xlink:href="#DejaVuSans-30" x="63.623047"/>
       <use xlink:href="#DejaVuSans-32" x="127.246094"/>
       <use xlink:href="#DejaVuSans-30" x="190.869141"/>
      </g>
     </g>
    </g>
    <g id="xtick_6">
     <g id="line2d_11">
      <path d="M 865.344975 301.139691 
L 865.344975 7.379691 
" clip-path="url(#pe6c5a36c80)" style="fill: none; stroke: #546379; stroke-width: 1.12; stroke-linecap: square"/>
     </g>
     <g id="line2d_12"/>
     <g id="text_6">
      <!-- 2022 -->
      <g style="fill: #b1bed6" transform="translate(836.263935 331.064545)rotate(-30)scale(0.126 -0.126)">
       <use xlink:href="#DejaVuSans-32"/>
       <use xlink:href="#DejaVuSans-30" x="63.623047"/>
       <use xlink:href="#DejaVuSans-32" x="127.246094"/>
       <use xlink:href="#DejaVuSans-32" x="190.869141"/>
      </g>
     </g>
    </g>
    <g id="text_7">
     <!-- Date -->
     <g style="fill: #b1bed6" transform="translate(464.166875 348.275634)scale(0.144 -0.144)">
      <defs>
       <path id="DejaVuSans-44" d="M 1259 4147 
L 1259 519 
L 2022 519 
Q 2988 519 3436 956 
Q 3884 1394 3884 2338 
Q 3884 3275 3436 3711 
Q 2988 4147 2022 4147 
L 1259 4147 
z
M 628 4666 
L 1925 4666 
Q 3281 4666 3915 4102 
Q 4550 3538 4550 2338 
Q 4550 1131 3912 565 
Q 3275 0 1925 0 
L 628 0 
L 628 4666 
z
" transform="scale(0.015625)"/>
       <path id="DejaVuSans-61" d="M 2194 1759 
Q 1497 1759 1228 1600 
Q 959 1441 959 1056 
Q 959 750 1161 570 
Q 1363 391 1709 391 
Q 2188 391 2477 730 
Q 2766 1069 2766 1631 
L 2766 1759 
L 2194 1759 
z
M 3341 1997 
L 3341 0 
L 2766 0 
L 2766 531 
Q 2569 213 2275 61 
Q 1981 -91 1556 -91 
Q 1019 -91 701 211 
Q 384 513 384 1019 
Q 384 1609 779 1909 
Q 1175 2209 1959 2209 
L 2766 2209 
L 2766 2266 
Q 2766 2663 2505 2880 
Q 2244 3097 1772 3097 
Q 1472 3097 1187 3025 
Q 903 2953 641 2809 
L 641 3341 
Q 956 3463 1253 3523 
Q 1550 3584 1831 3584 
Q 2591 3584 2966 3190 
Q 3341 2797 3341 1997 
z
" transform="scale(0.015625)"/>
       <path id="DejaVuSans-74" d="M 1172 4494 
L 1172 3500 
L 2356 3500 
L 2356 3053 
L 1172 3053 
L 1172 1153 
Q 1172 725 1289 603 
Q 1406 481 1766 481 
L 2356 481 
L 2356 0 
L 1766 0 
Q 1100 0 847 248 
Q 594 497 594 1153 
L 594 3053 
L 172 3053 
L 172 3500 
L 594 3500 
L 594 4494 
L 1172 4494 
z
" transform="scale(0.015625)"/>
       <path id="DejaVuSans-65" d="M 3597 1894 
L 3597 1613 
L 953 1613 
Q 991 1019 1311 708 
Q 1631 397 2203 397 
Q 2534 397 2845 478 
Q 3156 559 3463 722 
L 3463 178 
Q 3153 47 2828 -22 
Q 2503 -91 2169 -91 
Q 1331 -91 842 396 
Q 353 884 353 1716 
Q 353 2575 817 3079 
Q 1281 3584 2069 3584 
Q 2775 3584 3186 3129 
Q 3597 2675 3597 1894 
z
M 3022 2063 
Q 3016 2534 2758 2815 
Q 2500 3097 2075 3097 
Q 1594 3097 1305 2825 
Q 1016 2553 972 2059 
L 3022 2063 
z
" transform="scale(0.015625)"/>
      </defs>
      <use xlink:href="#DejaVuSans-44"/>
      <use xlink:href="#DejaVuSans-61" x="77.001953"/>
      <use xlink:href="#DejaVuSans-74" x="138.28125"/>
      <use xlink:href="#DejaVuSans-65" x="177.490234"/>
     </g>
    </g>
   </g>
   <g id="matplotlib.axis_2">
    <g id="ytick_1">
     <g id="line2d_13">
      <path d="M 34.976 254.863557 
L 927.776 254.863557 
" clip-path="url(#pe6c5a36c80)" style="fill: none; stroke: #546379; stroke-width: 1.12; stroke-linecap: square"/>
     </g>
     <g id="line2d_14"/>
     <g id="text_8">
      <!-- $\mathdefault{10^{0}}$ -->
      <g style="fill: #b1bed6" transform="translate(7.2 259.650573)scale(0.126 -0.126)">
       <use xlink:href="#DejaVuSans-31" transform="translate(0 0.765625)"/>
       <use xlink:href="#DejaVuSans-30" transform="translate(63.623047 0.765625)"/>
       <use xlink:href="#DejaVuSans-30" transform="translate(128.203125 39.046875)scale(0.7)"/>
      </g>
     </g>
    </g>
    <g id="ytick_2">
     <g id="line2d_15">
      <path d="M 34.976 206.288249 
L 927.776 206.288249 
" clip-path="url(#pe6c5a36c80)" style="fill: none; stroke: #546379; stroke-width: 1.12; stroke-linecap: square"/>
     </g>
     <g id="line2d_16"/>
     <g id="text_9">
      <!-- $\mathdefault{10^{1}}$ -->
      <g style="fill: #b1bed6" transform="translate(7.2 211.075264)scale(0.126 -0.126)">
       <use xlink:href="#DejaVuSans-31" transform="translate(0 0.684375)"/>
       <use xlink:href="#DejaVuSans-30" transform="translate(63.623047 0.684375)"/>
       <use xlink:href="#DejaVuSans-31" transform="translate(128.203125 38.965625)scale(0.7)"/>
      </g>
     </g>
    </g>
    <g id="ytick_3">
     <g id="line2d_17">
      <path d="M 34.976 157.71294 
L 927.776 157.71294 
" clip-path="url(#pe6c5a36c80)" style="fill: none; stroke: #546379; stroke-width: 1.12; stroke-linecap: square"/>
     </g>
     <g id="line2d_18"/>
     <g id="text_10">
      <!-- $\mathdefault{10^{2}}$ -->
      <g style="fill: #b1bed6" transform="translate(7.2 162.499956)scale(0.126 -0.126)">
       <use xlink:href="#DejaVuSans-31" transform="translate(0 0.765625)"/>
       <use xlink:href="#DejaVuSans-30" transform="translate(63.623047 0.765625)"/>
       <use xlink:href="#DejaVuSans-32" transform="translate(128.203125 39.046875)scale(0.7)"/>
      </g>
     </g>
    </g>
    <g id="ytick_4">
     <g id="line2d_19">
      <path d="M 34.976 109.137632 
L 927.776 109.137632 
" clip-path="url(#pe6c5a36c80)" style="fill: none; stroke: #546379; stroke-width: 1.12; stroke-linecap: square"/>
     </g>
     <g id="line2d_20"/>
     <g id="text_11">
      <!-- $\mathdefault{10^{3}}$ -->
      <g style="fill: #b1bed6" transform="translate(7.2 113.924648)scale(0.126 -0.126)">
       <defs>
        <path id="DejaVuSans-33" d="M 2597 2516 
Q 3050 2419 3304 2112 
Q 3559 1806 3559 1356 
Q 3559 666 3084 287 
Q 2609 -91 1734 -91 
Q 1441 -91 1130 -33 
Q 819 25 488 141 
L 488 750 
Q 750 597 1062 519 
Q 1375 441 1716 441 
Q 2309 441 2620 675 
Q 2931 909 2931 1356 
Q 2931 1769 2642 2001 
Q 2353 2234 1838 2234 
L 1294 2234 
L 1294 2753 
L 1863 2753 
Q 2328 2753 2575 2939 
Q 2822 3125 2822 3475 
Q 2822 3834 2567 4026 
Q 2313 4219 1838 4219 
Q 1578 4219 1281 4162 
Q 984 4106 628 3988 
L 628 4550 
Q 988 4650 1302 4700 
Q 1616 4750 1894 4750 
Q 2613 4750 3031 4423 
Q 3450 4097 3450 3541 
Q 3450 3153 3228 2886 
Q 3006 2619 2597 2516 
z
" transform="scale(0.015625)"/>
       </defs>
       <use xlink:href="#DejaVuSans-31" transform="translate(0 0.765625)"/>
       <use xlink:href="#DejaVuSans-30" transform="translate(63.623047 0.765625)"/>
       <use xlink:href="#DejaVuSans-33" transform="translate(128.203125 39.046875)scale(0.7)"/>
      </g>
     </g>
    </g>
    <g id="ytick_5">
     <g id="line2d_21">
      <path d="M 34.976 60.562324 
L 927.776 60.562324 
" clip-path="url(#pe6c5a36c80)" style="fill: none; stroke: #546379; stroke-width: 1.12; stroke-linecap: square"/>
     </g>
     <g id="line2d_22"/>
     <g id="text_12">
      <!-- $\mathdefault{10^{4}}$ -->
      <g style="fill: #b1bed6" transform="translate(7.2 65.34934)scale(0.126 -0.126)">
       <use xlink:href="#DejaVuSans-31" transform="translate(0 0.684375)"/>
       <use xlink:href="#DejaVuSans-30" transform="translate(63.623047 0.684375)"/>
       <use xlink:href="#DejaVuSans-34" transform="translate(128.203125 38.965625)scale(0.7)"/>
      </g>
     </g>
    </g>
    <g id="ytick_6">
     <g id="line2d_23">
      <path d="M 34.976 11.987016 
L 927.776 11.987016 
" clip-path="url(#pe6c5a36c80)" style="fill: none; stroke: #546379; stroke-width: 1.12; stroke-linecap: square"/>
     </g>
     <g id="line2d_24"/>
     <g id="text_13">
      <!-- $\mathdefault{10^{5}}$ -->
      <g style="fill: #b1bed6" transform="translate(7.2 16.774031)scale(0.126 -0.126)">
       <defs>
        <path id="DejaVuSans-35" d="M 691 4666 
L 3169 4666 
L 3169 4134 
L 1269 4134 
L 1269 2991 
Q 1406 3038 1543 3061 
Q 1681 3084 1819 3084 
Q 2600 3084 3056 2656 
Q 3513 2228 3513 1497 
Q 3513 744 3044 326 
Q 2575 -91 1722 -91 
Q 1428 -91 1123 -41 
Q 819 9 494 109 
L 494 744 
Q 775 591 1075 516 
Q 1375 441 1709 441 
Q 2250 441 2565 725 
Q 2881 1009 2881 1497 
Q 2881 1984 2565 2268 
Q 2250 2553 1709 2553 
Q 1456 2553 1204 2497 
Q 953 2441 691 2322 
L 691 4666 
z
" transform="scale(0.015625)"/>
       </defs>
       <use xlink:href="#DejaVuSans-31" transform="translate(0 0.684375)"/>
       <use xlink:href="#DejaVuSans-30" transform="translate(63.623047 0.684375)"/>
       <use xlink:href="#DejaVuSans-35" transform="translate(128.203125 38.965625)scale(0.7)"/>
      </g>
     </g>
    </g>
    <g id="ytick_7">
     <g id="line2d_25"/>
    </g>
    <g id="ytick_8">
     <g id="line2d_26"/>
    </g>
    <g id="ytick_9">
     <g id="line2d_27"/>
    </g>
    <g id="ytick_10">
     <g id="line2d_28"/>
    </g>
    <g id="ytick_11">
     <g id="line2d_29"/>
    </g>
    <g id="ytick_12">
     <g id="line2d_30"/>
    </g>
    <g id="ytick_13">
     <g id="line2d_31"/>
    </g>
    <g id="ytick_14">
     <g id="line2d_32"/>
    </g>
    <g id="ytick_15">
     <g id="line2d_33"/>
    </g>
    <g id="ytick_16">
     <g id="line2d_34"/>
    </g>
    <g id="ytick_17">
     <g id="line2d_35"/>
    </g>
    <g id="ytick_18">
     <g id="line2d_36"/>
    </g>
    <g id="ytick_19">
     <g id="line2d_37"/>
    </g>
    <g id="ytick_20">
     <g id="line2d_38"/>
    </g>
    <g id="ytick_21">
     <g id="line2d_39"/>
    </g>
    <g id="ytick_22">
     <g id="line2d_40"/>
    </g>
    <g id="ytick_23">
     <g id="line2d_41"/>
    </g>
    <g id="ytick_24">
     <g id="line2d_42"/>
    </g>
    <g id="ytick_25">
     <g id="line2d_43"/>
    </g>
    <g id="ytick_26">
     <g id="line2d_44"/>
    </g>
    <g id="ytick_27">
     <g id="line2d_45"/>
    </g>
    <g id="ytick_28">
     <g id="line2d_46"/>
    </g>
    <g id="ytick_29">
     <g id="line2d_47"/>
    </g>
    <g id="ytick_30">
     <g id="line2d_48"/>
    </g>
    <g id="ytick_31">
     <g id="line2d_49"/>
    </g>
    <g id="ytick_32">
     <g id="line2d_50"/>
    </g>
    <g id="ytick_33">
     <g id="line2d_51"/>
    </g>
    <g id="ytick_34">
     <g id="line2d_52"/>
    </g>
    <g id="ytick_35">
     <g id="line2d_53"/>
    </g>
    <g id="ytick_36">
     <g id="line2d_54"/>
    </g>
    <g id="ytick_37">
     <g id="line2d_55"/>
    </g>
    <g id="ytick_38">
     <g id="line2d_56"/>
    </g>
    <g id="ytick_39">
     <g id="line2d_57"/>
    </g>
    <g id="ytick_40">
     <g id="line2d_58"/>
    </g>
    <g id="ytick_41">
     <g id="line2d_59"/>
    </g>
    <g id="ytick_42">
     <g id="line2d_60"/>
    </g>
    <g id="ytick_43">
     <g id="line2d_61"/>
    </g>
    <g id="ytick_44">
     <g id="line2d_62"/>
    </g>
    <g id="ytick_45">
     <g id="line2d_63"/>
    </g>
    <g id="ytick_46">
     <g id="line2d_64"/>
    </g>
    <g id="ytick_47">
     <g id="line2d_65"/>
    </g>
    <g id="ytick_48">
     <g id="line2d_66"/>
    </g>
    <g id="ytick_49">
     <g id="line2d_67"/>
    </g>
    <g id="ytick_50">
     <g id="line2d_68"/>
    </g>
    <g id="ytick_51">
     <g id="line2d_69"/>
    </g>
    <g id="ytick_52">
     <g id="line2d_70"/>
    </g>
    <g id="ytick_53">
     <g id="line2d_71"/>
    </g>
    <g id="ytick_54">
     <g id="line2d_72"/>
    </g>
   </g>
   <g id="line2d_73">
    <path d="M 75.557818 287.786964 
L 75.557818 284.108807 
L 76.138971 284.108807 
L 76.138971 276.4163 
L 76.720125 276.4163 
L 76.720125 284.969987 
L 77.301278 284.969987 
L 77.301278 280.262553 
L 77.882431 280.262553 
L 77.882431 281.718026 
L 78.463584 281.718026 
L 78.463584 280.97774 
L 80.207044 280.97774 
L 80.207044 281.718026 
L 80.788197 281.718026 
L 80.788197 284.108807 
L 81.36935 284.108807 
L 81.36935 285.867824 
L 81.950503 285.867824 
L 81.950503 284.108807 
L 82.531656 284.108807 
L 82.531656 285.867824 
L 83.693963 285.867824 
L 83.693963 284.108807 
L 84.275116 284.108807 
L 84.275116 282.485237 
L 84.856269 282.485237 
L 84.856269 284.108807 
L 85.437422 284.108807 
L 85.437422 282.485237 
L 86.018575 282.485237 
L 86.018575 280.262553 
L 87.762035 280.262553 
L 87.762035 278.901049 
L 88.343188 278.901049 
L 88.343188 278.251891 
L 88.924341 278.251891 
L 88.924341 273.164339 
L 89.505494 273.164339 
L 89.505494 274.193616 
L 90.086647 274.193616 
L 90.086647 277.010592 
L 90.667801 277.010592 
L 90.667801 272.66794 
L 91.830107 272.66794 
L 91.830107 271.708866 
L 92.41126 271.708866 
L 92.41126 265.291226 
L 92.992413 265.291226 
L 92.992413 260.105095 
L 93.573566 260.105095 
L 93.573566 256.622574 
L 94.15472 256.622574 
L 94.15472 255.506124 
L 94.735873 255.506124 
L 94.735873 253.045553 
L 95.317026 253.045553 
L 95.317026 253.239988 
L 95.898179 253.239988 
L 95.898179 254.036157 
L 96.479332 254.036157 
L 96.479332 257.560328 
L 97.060485 257.560328 
L 97.060485 255.724737 
L 98.222792 255.724737 
L 98.222792 255.94564 
L 98.803945 255.94564 
L 98.803945 256.622574 
L 99.385098 256.622574 
L 99.385098 257.086241 
L 99.966251 257.086241 
L 99.966251 256.394508 
L 100.547404 256.394508 
L 100.547404 257.086241 
L 101.128558 257.086241 
L 101.128558 257.801428 
L 101.709711 257.801428 
L 101.709711 259.836353 
L 102.290864 259.836353 
L 102.290864 258.045315 
L 102.872017 258.045315 
L 102.872017 257.086241 
L 103.45317 257.086241 
L 103.45317 259.570991 
L 104.615477 259.570991 
L 104.615477 260.377305 
L 105.19663 260.377305 
L 105.19663 260.105095 
L 105.777783 260.105095 
L 105.777783 260.653074 
L 106.358936 260.653074 
L 106.358936 255.075579 
L 106.940089 255.075579 
L 106.940089 253.045553 
L 107.521242 253.045553 
L 107.521242 251.19384 
L 108.102396 251.19384 
L 108.102396 248.068887 
L 108.683549 248.068887 
L 108.683549 243.545699 
L 109.264702 243.545699 
L 109.264702 234.224801 
L 109.845855 234.224801 
L 109.845855 225.883669 
L 110.427008 225.883669 
L 110.427008 228.076703 
L 111.008162 228.076703 
L 111.008162 226.979811 
L 111.589315 226.979811 
L 111.589315 219.248274 
L 112.170468 219.248274 
L 112.170468 209.568356 
L 112.751621 209.568356 
L 112.751621 209.791334 
L 113.332774 209.791334 
L 113.332774 212.98526 
L 113.913927 212.98526 
L 113.913927 214.393179 
L 114.495081 214.393179 
L 114.495081 211.127946 
L 115.076234 211.127946 
L 115.076234 209.274672 
L 115.657387 209.274672 
L 115.657387 207.437056 
L 116.23854 207.437056 
L 116.23854 197.664359 
L 116.819693 197.664359 
L 116.819693 192.537795 
L 117.400846 192.537795 
L 117.400846 181.52747 
L 117.982 181.52747 
L 117.982 187.068176 
L 118.563153 187.068176 
L 118.563153 191.676175 
L 119.144306 191.676175 
L 119.144306 194.362395 
L 119.725459 194.362395 
L 119.725459 197.193075 
L 120.306612 197.193075 
L 120.306612 195.15626 
L 120.887765 195.15626 
L 120.887765 194.017624 
L 121.468919 194.017624 
L 121.468919 194.627757 
L 122.050072 194.627757 
L 122.050072 196.718683 
L 122.631225 196.718683 
L 122.631225 195.800752 
L 123.212378 195.800752 
L 123.212378 197.510729 
L 123.793531 197.510729 
L 123.793531 198.42067 
L 124.374684 198.42067 
L 124.374684 198.816644 
L 124.955838 198.816644 
L 124.955838 199.295779 
L 126.118144 199.28064 
L 126.118144 198.950305 
L 127.28045 199.039884 
L 127.28045 199.099816 
L 127.861603 199.099816 
L 127.861603 200.161377 
L 128.442757 200.161377 
L 128.442757 203.4871 
L 129.02391 203.4871 
L 129.02391 207.017989 
L 129.605063 207.017989 
L 129.605063 205.562517 
L 130.186216 205.562517 
L 130.186216 203.524078 
L 131.348522 203.542591 
L 131.348522 202.886138 
L 131.929676 202.886138 
L 131.929676 203.394937 
L 132.510829 203.394937 
L 132.510829 206.267163 
L 133.091982 206.267163 
L 133.091982 207.593572 
L 133.673135 207.593572 
L 133.673135 209.816256 
L 134.254288 209.816256 
L 134.254288 209.568356 
L 134.835441 209.568356 
L 134.835441 212.272971 
L 135.416595 212.272971 
L 135.416595 215.40852 
L 135.997748 215.40852 
L 135.997748 216.40694 
L 136.578901 216.40694 
L 136.578901 220.164769 
L 137.160054 220.164769 
L 137.160054 217.454969 
L 137.741207 217.454969 
L 137.741207 217.779807 
L 138.32236 217.779807 
L 138.32236 218.938602 
L 138.903514 218.938602 
L 138.903514 221.122895 
L 139.484667 221.122895 
L 139.484667 219.801384 
L 140.06582 219.801384 
L 140.06582 220.784676 
L 140.646973 220.784676 
L 140.646973 221.81605 
L 141.228126 221.81605 
L 141.228126 224.438881 
L 141.809279 224.438881 
L 141.809279 223.751974 
L 142.390433 223.751974 
L 142.390433 226.315316 
L 142.971586 226.315316 
L 142.971586 234.787394 
L 143.552739 234.787394 
L 143.552739 229.612752 
L 144.133892 229.612752 
L 144.133892 231.687245 
L 144.715045 231.687245 
L 144.715045 229.108943 
L 145.877352 229.171265 
L 145.877352 229.804826 
L 146.458505 229.804826 
L 146.458505 231.407824 
L 147.039658 231.407824 
L 147.039658 231.063673 
L 147.620811 231.063673 
L 147.620811 230.927569 
L 148.201964 230.927569 
L 148.201964 234.145641 
L 148.783117 234.145641 
L 148.783117 236.660041 
L 149.364271 236.660041 
L 149.364271 237.292516 
L 149.945424 237.292516 
L 149.945424 235.702945 
L 150.526577 235.702945 
L 150.526577 235.449283 
L 151.10773 235.449283 
L 151.10773 231.687245 
L 151.688883 231.687245 
L 151.688883 230.995511 
L 152.270037 230.995511 
L 152.270037 231.269489 
L 152.85119 231.269489 
L 152.85119 231.407824 
L 153.432343 231.407824 
L 153.432343 229.485667 
L 154.013496 229.485667 
L 154.013496 230.325741 
L 154.594649 230.325741 
L 154.594649 229.296464 
L 155.175802 229.296464 
L 155.175802 225.200551 
L 156.919262 225.148909 
L 156.919262 223.274669 
L 157.500415 223.274669 
L 157.500415 219.09287 
L 158.081568 219.09287 
L 158.081568 215.053958 
L 158.662721 215.053958 
L 158.662721 213.218367 
L 159.243875 213.218367 
L 159.243875 213.51342 
L 159.825028 213.51342 
L 159.825028 214.393179 
L 160.406181 214.393179 
L 160.406181 213.903265 
L 160.987334 213.903265 
L 160.987334 215.150067 
L 161.568487 215.150067 
L 161.568487 215.473632 
L 162.14964 215.473632 
L 162.14964 216.785199 
L 162.730794 216.785199 
L 162.730794 218.072811 
L 163.311947 218.072811 
L 163.311947 217.889207 
L 163.8931 217.889207 
L 163.8931 217.099809 
L 164.474253 217.099809 
L 164.474253 217.999178 
L 165.055406 217.999178 
L 165.055406 217.276642 
L 165.636559 217.276642 
L 165.636559 218.183746 
L 166.217713 218.183746 
L 166.217713 222.037416 
L 166.798866 222.037416 
L 166.798866 223.703754 
L 167.380019 223.703754 
L 167.380019 222.532755 
L 167.961172 222.532755 
L 167.961172 220.700962 
L 168.542325 220.700962 
L 168.542325 220.995427 
L 169.123478 220.995427 
L 169.123478 221.165557 
L 169.704632 221.165557 
L 169.704632 220.742777 
L 170.285785 220.742777 
L 170.285785 220.953108 
L 171.448091 220.995427 
L 171.448091 219.09287 
L 172.029244 219.09287 
L 172.029244 219.287304 
L 172.610397 219.287304 
L 172.610397 221.122895 
L 173.191551 221.122895 
L 173.191551 221.72815 
L 173.772704 221.72815 
L 173.772704 222.037416 
L 174.353857 222.037416 
L 174.353857 221.553441 
L 174.93501 221.553441 
L 174.93501 221.037831 
L 176.097316 221.08032 
L 176.097316 221.165557 
L 176.67847 221.165557 
L 176.67847 221.33707 
L 177.259623 221.33707 
L 177.259623 221.037831 
L 178.421929 220.953108 
L 178.421929 220.124082 
L 179.003082 220.124082 
L 179.003082 219.681633 
L 179.584235 219.681633 
L 179.584235 220.246378 
L 180.165389 220.246378 
L 180.165389 220.534523 
L 180.746542 220.534523 
L 180.746542 220.742777 
L 181.327695 220.742777 
L 181.327695 220.287301 
L 181.908848 220.287301 
L 181.908848 220.493118 
L 183.071154 220.493118 
L 183.071154 220.868724 
L 183.652308 220.868724 
L 183.652308 220.493118 
L 184.233461 220.493118 
L 184.233461 220.328304 
L 186.558073 220.246378 
L 186.558073 220.042944 
L 187.139227 220.042944 
L 187.139227 219.801384 
L 187.72038 219.801384 
L 187.72038 218.977064 
L 188.301533 218.977064 
L 188.301533 218.220854 
L 188.882686 218.220854 
L 188.882686 217.9258 
L 189.463839 217.9258 
L 189.463839 216.13604 
L 190.044993 216.13604 
L 190.044993 215.441051 
L 190.626146 215.441051 
L 190.626146 214.42418 
L 191.207299 214.42418 
L 191.207299 215.182201 
L 192.369605 215.117982 
L 192.369605 214.768229 
L 193.531912 214.705256 
L 193.531912 214.611147 
L 194.113065 214.611147 
L 194.113065 213.87302 
L 194.694218 213.87302 
L 194.694218 212.469999 
L 195.275371 212.469999 
L 195.275371 211.529787 
L 195.856524 211.529787 
L 195.856524 207.661007 
L 196.437677 207.661007 
L 196.437677 207.303818 
L 197.018831 207.303818 
L 197.018831 208.722955 
L 198.181137 208.62846 
L 198.181137 208.001455 
L 198.76229 208.001455 
L 198.76229 206.036604 
L 199.343443 206.036604 
L 199.343443 203.878641 
L 199.924596 203.878641 
L 199.924596 203.616808 
L 200.50575 203.616808 
L 200.50575 203.084562 
L 201.086903 203.084562 
L 201.086903 201.92108 
L 201.668056 201.92108 
L 201.668056 197.220508 
L 202.249209 197.220508 
L 202.249209 205.359669 
L 202.830362 205.359669 
L 202.830362 205.767334 
L 203.411515 205.767334 
L 203.411515 204.296773 
L 203.992669 204.296773 
L 203.992669 204.010786 
L 204.573822 204.010786 
L 204.573822 205.542144 
L 205.154975 205.542144 
L 205.154975 205.07892 
L 205.736128 205.07892 
L 205.736128 203.766029 
L 206.317281 203.766029 
L 206.317281 204.010786 
L 206.898434 204.010786 
L 206.898434 203.376553 
L 207.479588 203.376553 
L 207.479588 202.477185 
L 208.060741 202.477185 
L 208.060741 201.36255 
L 208.641894 201.36255 
L 208.641894 201.750262 
L 209.223047 201.750262 
L 209.223047 202.024239 
L 209.8042 202.024239 
L 209.8042 201.64843 
L 210.385353 201.64843 
L 210.385353 201.446231 
L 210.966507 201.446231 
L 210.966507 200.640126 
L 211.54766 200.640126 
L 211.54766 201.446231 
L 212.128813 201.446231 
L 212.128813 202.162574 
L 213.291119 202.266924 
L 213.291119 202.459583 
L 214.453426 202.54774 
L 214.453426 202.689562 
L 215.034579 202.689562 
L 215.034579 203.230053 
L 215.615732 203.230053 
L 215.615732 204.880648 
L 216.196885 204.880648 
L 216.196885 203.954051 
L 216.778038 203.954051 
L 216.778038 205.019242 
L 217.359191 205.019242 
L 217.359191 204.335199 
L 217.940345 204.335199 
L 217.940345 204.201013 
L 218.521498 204.201013 
L 218.521498 203.954051 
L 219.102651 203.954051 
L 219.102651 203.747318 
L 219.683804 203.747318 
L 219.683804 202.760832 
L 220.264957 202.760832 
L 220.264957 202.618532 
L 220.84611 202.618532 
L 220.84611 201.64843 
L 222.008417 201.580815 
L 222.008417 201.3125 
L 222.58957 201.3125 
L 222.58957 201.163059 
L 223.170723 201.163059 
L 223.170723 199.662409 
L 223.751876 199.662409 
L 223.751876 199.910418 
L 224.333029 199.910418 
L 224.333029 199.493579 
L 225.495336 199.570153 
L 225.495336 200.114094 
L 226.076489 200.114094 
L 226.076489 199.755071 
L 226.657642 199.755071 
L 226.657642 200.035524 
L 227.819949 199.941625 
L 227.819949 199.848142 
L 228.401102 199.848142 
L 228.401102 200.082631 
L 228.982255 200.082631 
L 228.982255 199.894832 
L 229.563408 199.894832 
L 229.563408 199.43252 
L 230.144561 199.43252 
L 230.144561 198.728006 
L 231.306868 198.683825 
L 231.306868 197.002036 
L 231.888021 197.002036 
L 231.888021 196.176204 
L 232.469174 196.176204 
L 232.469174 193.923497 
L 233.050327 193.923497 
L 233.050327 194.230956 
L 233.63148 194.230956 
L 233.63148 191.898966 
L 234.212633 191.898966 
L 234.212633 190.386688 
L 234.793787 190.386688 
L 234.793787 190.646395 
L 235.37494 190.646395 
L 235.37494 189.511613 
L 235.956093 189.511613 
L 235.956093 187.845757 
L 236.537246 187.845757 
L 236.537246 187.557305 
L 237.118399 187.557305 
L 237.118399 185.032081 
L 237.699552 185.032081 
L 237.699552 183.480807 
L 238.280706 183.480807 
L 238.280706 182.749406 
L 239.443012 182.832516 
L 239.443012 180.872382 
L 240.024165 180.872382 
L 240.024165 180.316946 
L 240.605318 180.316946 
L 240.605318 176.013722 
L 241.186471 176.013722 
L 241.186471 173.672331 
L 241.767625 173.672331 
L 241.767625 174.879466 
L 242.348778 174.879466 
L 242.348778 173.685821 
L 242.929931 173.685821 
L 242.929931 171.459539 
L 243.511084 171.459539 
L 243.511084 165.162142 
L 244.092237 165.162142 
L 244.092237 164.663578 
L 244.67339 164.663578 
L 244.67339 160.218797 
L 245.254544 160.218797 
L 245.254544 159.357616 
L 245.835697 159.357616 
L 245.835697 154.339576 
L 246.41685 154.339576 
L 246.41685 150.300636 
L 246.998003 150.300636 
L 246.998003 144.512664 
L 247.579156 144.512664 
L 247.579156 153.02239 
L 248.160309 153.02239 
L 248.160309 157.71294 
L 248.741463 157.71294 
L 248.741463 159.040718 
L 249.322616 159.040718 
L 249.322616 152.587751 
L 249.903769 152.587751 
L 249.903769 150.241336 
L 250.484922 150.241336 
L 250.484922 151.071697 
L 251.066075 151.071697 
L 251.066075 149.941472 
L 251.647228 149.941472 
L 251.647228 157.028013 
L 252.228382 157.028013 
L 252.228382 154.585511 
L 252.809535 154.585511 
L 252.809535 155.069398 
L 253.390688 155.069398 
L 253.390688 154.64015 
L 253.971841 154.64015 
L 253.971841 155.32216 
L 254.552994 155.32216 
L 254.552994 153.290959 
L 255.134147 153.290959 
L 255.134147 153.514527 
L 255.715301 153.514527 
L 255.715301 152.720535 
L 256.296454 152.720535 
L 256.296454 151.617649 
L 256.877607 151.617649 
L 256.877607 151.808134 
L 257.45876 151.808134 
L 257.45876 152.292008 
L 258.039913 152.292008 
L 258.039913 153.618517 
L 258.621066 153.618517 
L 258.621066 155.416549 
L 259.20222 155.416549 
L 259.20222 156.463808 
L 259.783373 156.463808 
L 259.783373 156.905835 
L 260.364526 156.905835 
L 260.364526 157.734047 
L 260.945679 157.734047 
L 260.945679 156.151971 
L 261.526832 156.151971 
L 261.526832 156.021115 
L 262.107985 156.021115 
L 262.107985 156.907866 
L 262.689139 156.907866 
L 262.689139 158.872889 
L 263.270292 158.872889 
L 263.270292 160.650811 
L 263.851445 160.650811 
L 263.851445 162.409829 
L 264.432598 162.409829 
L 264.432598 163.781878 
L 265.013751 163.781878 
L 265.013751 160.433698 
L 265.594904 160.433698 
L 265.594904 158.139137 
L 266.176058 158.139137 
L 266.176058 158.344636 
L 266.757211 158.344636 
L 266.757211 159.471958 
L 267.919517 159.474251 
L 267.919517 158.355508 
L 268.50067 158.355508 
L 268.50067 157.988987 
L 269.081824 157.988987 
L 269.081824 156.443934 
L 269.662977 156.443934 
L 269.662977 156.693712 
L 270.24413 156.693712 
L 270.24413 156.372543 
L 270.825283 156.372543 
L 270.825283 157.130371 
L 271.406436 157.130371 
L 271.406436 156.356711 
L 271.987589 156.356711 
L 271.987589 158.121922 
L 272.568743 158.121922 
L 272.568743 157.861132 
L 273.149896 157.861132 
L 273.149896 155.619973 
L 273.731049 155.619973 
L 273.731049 155.887197 
L 274.312202 155.887197 
L 274.312202 154.271368 
L 274.893355 154.271368 
L 274.893355 153.032527 
L 275.474508 153.032527 
L 275.474508 152.163507 
L 276.055662 152.163507 
L 276.055662 153.409327 
L 276.636815 153.409327 
L 276.636815 154.189094 
L 277.217968 154.189094 
L 277.217968 152.747192 
L 277.799121 152.747192 
L 277.799121 153.166449 
L 278.380274 153.166449 
L 278.380274 150.743199 
L 278.961427 150.743199 
L 278.961427 153.338913 
L 280.123734 153.405887 
L 280.123734 153.064658 
L 280.704887 153.064658 
L 280.704887 152.668982 
L 281.28604 152.668982 
L 281.28604 156.91599 
L 281.867193 156.91599 
L 281.867193 153.656775 
L 282.448346 153.656775 
L 282.448346 153.154548 
L 283.0295 153.154548 
L 283.0295 152.602647 
L 283.610653 152.602647 
L 283.610653 151.355389 
L 284.191806 151.355389 
L 284.191806 150.029225 
L 284.772959 150.029225 
L 284.772959 144.60766 
L 285.354112 144.60766 
L 285.354112 142.703606 
L 285.935265 142.703606 
L 285.935265 145.364631 
L 286.516419 145.364631 
L 286.516419 141.466746 
L 287.097572 141.466746 
L 287.097572 142.776226 
L 287.678725 142.776226 
L 287.678725 140.146486 
L 288.259878 140.146486 
L 288.259878 135.177746 
L 288.841031 135.177746 
L 288.841031 132.654209 
L 289.422184 132.654209 
L 289.422184 128.840139 
L 290.003338 128.840139 
L 290.003338 126.589775 
L 290.584491 126.589775 
L 290.584491 121.864979 
L 291.165644 121.864979 
L 291.165644 113.97733 
L 291.746797 113.97733 
L 291.746797 113.464571 
L 292.32795 113.464571 
L 292.32795 108.842256 
L 292.909103 108.842256 
L 292.909103 110.108754 
L 293.490257 110.108754 
L 293.490257 106.430906 
L 294.07141 106.430906 
L 294.07141 116.48468 
L 294.652563 116.48468 
L 294.652563 109.590538 
L 295.233716 109.590538 
L 295.233716 111.714879 
L 295.814869 111.714879 
L 295.814869 116.965587 
L 296.396022 116.965587 
L 296.396022 117.109776 
L 296.977176 117.109776 
L 296.977176 119.42364 
L 297.558329 119.42364 
L 297.558329 117.303988 
L 298.139482 117.303988 
L 298.139482 116.214761 
L 298.720635 116.214761 
L 298.720635 115.719048 
L 299.301788 115.719048 
L 299.301788 113.651086 
L 299.882941 113.651086 
L 299.882941 110.995712 
L 300.464095 110.995712 
L 300.464095 113.163202 
L 301.045248 113.163202 
L 301.045248 112.714571 
L 302.207554 112.76988 
L 302.207554 113.55177 
L 302.788707 113.55177 
L 302.788707 113.201534 
L 303.36986 113.201534 
L 303.36986 114.378629 
L 303.951014 114.378629 
L 303.951014 115.275032 
L 304.532167 115.275032 
L 304.532167 113.845066 
L 305.11332 113.845066 
L 305.11332 113.47027 
L 305.694473 113.47027 
L 305.694473 114.352141 
L 306.275626 114.352141 
L 306.275626 117.248759 
L 306.85678 117.248759 
L 306.85678 117.426129 
L 307.437933 117.426129 
L 307.437933 117.576973 
L 308.019086 117.576973 
L 308.019086 118.886066 
L 308.600239 118.886066 
L 308.600239 121.256764 
L 309.181392 121.256764 
L 309.181392 119.52902 
L 309.762545 119.52902 
L 309.762545 120.440536 
L 310.343699 120.440536 
L 310.343699 121.08956 
L 310.924852 121.08956 
L 310.924852 117.483078 
L 311.506005 117.483078 
L 311.506005 118.818195 
L 312.668311 118.907174 
L 312.668311 118.519234 
L 313.249464 118.519234 
L 313.249464 118.718292 
L 313.830618 118.718292 
L 313.830618 119.523842 
L 314.411771 119.523842 
L 314.411771 121.256389 
L 314.992924 121.256389 
L 314.992924 120.419638 
L 315.574077 120.419638 
L 315.574077 123.777141 
L 316.15523 123.777141 
L 316.15523 125.6347 
L 316.736383 125.6347 
L 316.736383 126.043033 
L 317.317537 126.043033 
L 317.317537 125.611196 
L 317.89869 125.611196 
L 317.89869 126.364696 
L 318.479843 126.364696 
L 318.479843 127.269819 
L 319.060996 127.269819 
L 319.060996 122.811499 
L 319.642149 122.811499 
L 319.642149 124.528906 
L 320.223302 124.528906 
L 320.223302 123.828719 
L 320.804456 123.828719 
L 320.804456 123.669739 
L 321.385609 123.669739 
L 321.385609 126.514641 
L 321.966762 126.514641 
L 321.966762 125.887989 
L 322.547915 125.887989 
L 322.547915 126.457028 
L 323.129068 126.457028 
L 323.129068 127.039872 
L 323.710221 127.039872 
L 323.710221 126.029873 
L 324.291375 126.029873 
L 324.291375 126.339888 
L 324.872528 126.339888 
L 324.872528 126.146245 
L 326.034834 126.129244 
L 326.034834 124.016221 
L 326.615987 124.016221 
L 326.615987 122.614371 
L 327.19714 122.614371 
L 327.19714 120.896394 
L 327.778294 120.896394 
L 327.778294 119.178083 
L 328.359447 119.178083 
L 328.359447 117.839511 
L 329.521753 117.856088 
L 329.521753 117.995919 
L 330.102906 117.995919 
L 330.102906 119.053836 
L 330.684059 119.053836 
L 330.684059 120.911871 
L 331.265213 120.911871 
L 331.265213 119.634582 
L 331.846366 119.634582 
L 331.846366 120.144501 
L 332.427519 120.144501 
L 332.427519 120.331232 
L 333.008672 120.331232 
L 333.008672 120.726163 
L 333.589825 120.726163 
L 333.589825 119.914355 
L 334.170978 119.914355 
L 334.170978 118.209526 
L 334.752132 118.209526 
L 334.752132 118.851268 
L 335.333285 118.851268 
L 335.333285 119.053836 
L 335.914438 119.053836 
L 335.914438 118.751208 
L 336.495591 118.751208 
L 336.495591 119.181139 
L 337.076744 119.181139 
L 337.076744 119.025838 
L 338.239051 118.985424 
L 338.239051 119.207644 
L 338.820204 119.207644 
L 338.820204 120.058654 
L 339.401357 120.058654 
L 339.401357 120.430085 
L 339.98251 120.430085 
L 339.98251 120.063611 
L 340.563663 120.063611 
L 340.563663 120.322269 
L 341.144816 120.322269 
L 341.144816 120.447387 
L 341.72597 120.447387 
L 341.72597 120.242124 
L 342.307123 120.242124 
L 342.307123 121.750362 
L 342.888276 121.750362 
L 342.888276 122.776033 
L 343.469429 122.776033 
L 343.469429 124.186453 
L 344.050582 124.186453 
L 344.050582 123.108439 
L 344.631736 123.108439 
L 344.631736 123.694961 
L 345.212889 123.694961 
L 345.212889 123.483195 
L 345.794042 123.483195 
L 345.794042 124.671159 
L 346.375195 124.671159 
L 346.375195 124.864558 
L 346.956348 124.864558 
L 346.956348 124.639465 
L 347.537501 124.639465 
L 347.537501 124.915748 
L 348.699808 124.859223 
L 348.699808 125.028358 
L 349.280961 125.028358 
L 349.280961 127.160976 
L 349.862114 127.160976 
L 349.862114 128.407127 
L 350.443267 128.407127 
L 350.443267 127.254378 
L 351.02442 127.254378 
L 351.02442 128.447132 
L 351.605574 128.447132 
L 351.605574 128.992061 
L 352.186727 128.992061 
L 352.186727 130.754934 
L 352.76788 130.754934 
L 352.76788 132.679308 
L 353.349033 132.679308 
L 353.349033 130.479883 
L 353.930186 130.479883 
L 353.930186 129.505408 
L 354.511339 129.505408 
L 354.511339 128.7416 
L 355.092493 128.7416 
L 355.092493 128.947772 
L 355.673646 128.947772 
L 355.673646 129.225294 
L 356.254799 129.225294 
L 356.254799 130.779047 
L 356.835952 130.779047 
L 356.835952 131.23049 
L 357.417105 131.23049 
L 357.417105 131.569876 
L 357.998258 131.569876 
L 357.998258 132.889632 
L 358.579412 132.889632 
L 358.579412 131.981364 
L 359.160565 131.981364 
L 359.160565 131.469918 
L 359.741718 131.469918 
L 359.741718 130.146033 
L 360.322871 130.146033 
L 360.322871 128.514682 
L 360.904024 128.514682 
L 360.904024 129.063008 
L 361.485177 129.063008 
L 361.485177 130.898254 
L 362.066331 130.898254 
L 362.066331 130.277216 
L 363.228637 130.292161 
L 363.228637 129.79603 
L 363.80979 129.79603 
L 363.80979 129.57088 
L 364.390943 129.57088 
L 364.390943 129.773014 
L 364.972096 129.773014 
L 364.972096 130.515885 
L 365.55325 130.515885 
L 365.55325 131.346842 
L 366.134403 131.346842 
L 366.134403 130.81969 
L 366.715556 130.81969 
L 366.715556 133.08697 
L 367.296709 133.08697 
L 367.296709 132.42902 
L 367.877862 132.42902 
L 367.877862 132.086286 
L 368.459015 132.086286 
L 368.459015 132.529802 
L 369.040169 132.529802 
L 369.040169 133.614779 
L 370.202475 133.52008 
L 370.202475 137.299829 
L 370.783628 137.299829 
L 370.783628 134.678447 
L 371.364781 134.678447 
L 371.364781 136.297939 
L 371.945934 136.297939 
L 371.945934 140.888738 
L 372.527088 140.888738 
L 372.527088 142.249735 
L 373.108241 142.249735 
L 373.108241 141.46577 
L 373.689394 141.46577 
L 373.689394 139.822388 
L 374.270547 139.822388 
L 374.270547 138.021457 
L 374.8517 138.021457 
L 374.8517 139.580755 
L 375.432853 139.580755 
L 375.432853 141.151694 
L 376.014007 141.151694 
L 376.014007 140.369677 
L 376.59516 140.369677 
L 376.59516 140.854556 
L 377.176313 140.854556 
L 377.176313 141.086367 
L 377.757466 141.086367 
L 377.757466 140.857402 
L 378.338619 140.857402 
L 378.338619 139.761945 
L 378.919772 139.761945 
L 378.919772 139.470295 
L 379.500926 139.470295 
L 379.500926 138.773804 
L 380.082079 138.773804 
L 380.082079 139.249337 
L 380.663232 139.249337 
L 380.663232 138.205579 
L 381.244385 138.205579 
L 381.244385 136.305585 
L 381.825538 136.305585 
L 381.825538 136.517707 
L 382.406692 136.517707 
L 382.406692 136.372219 
L 382.987845 136.372219 
L 382.987845 134.779927 
L 383.568998 134.779927 
L 383.568998 135.826995 
L 384.150151 135.826995 
L 384.150151 135.657237 
L 384.731304 135.657237 
L 384.731304 137.385776 
L 385.312457 137.385776 
L 385.312457 137.074977 
L 385.893611 137.074977 
L 385.893611 138.447958 
L 386.474764 138.447958 
L 386.474764 139.039373 
L 387.055917 139.039373 
L 387.055917 138.681168 
L 387.63707 138.681168 
L 387.63707 138.075444 
L 388.799376 138.056325 
L 388.799376 139.598625 
L 389.38053 139.598625 
L 389.38053 140.792978 
L 389.961683 140.792978 
L 389.961683 140.372459 
L 390.542836 140.372459 
L 390.542836 140.830851 
L 391.123989 140.830851 
L 391.123989 139.815162 
L 391.705142 139.815162 
L 391.705142 140.484961 
L 392.867449 140.586822 
L 392.867449 140.053116 
L 393.448602 140.053116 
L 393.448602 139.398451 
L 395.192061 139.322439 
L 395.192061 139.601307 
L 396.354368 139.542384 
L 396.354368 140.013878 
L 396.935521 140.013878 
L 396.935521 139.349807 
L 397.516674 139.349807 
L 397.516674 139.635307 
L 398.67898 139.55933 
L 398.67898 140.294709 
L 399.260133 140.294709 
L 399.260133 140.568095 
L 400.42244 140.606504 
L 400.42244 140.244879 
L 401.584746 140.17862 
L 401.584746 139.598625 
L 402.165899 139.598625 
L 402.165899 138.530223 
L 402.747052 138.530223 
L 402.747052 138.934303 
L 403.328206 138.934303 
L 403.328206 139.22649 
L 403.909359 139.22649 
L 403.909359 138.281024 
L 404.490512 138.281024 
L 404.490512 137.359231 
L 405.071665 137.359231 
L 405.071665 137.872672 
L 405.652818 137.872672 
L 405.652818 136.874482 
L 406.815125 136.837591 
L 406.815125 133.8075 
L 407.396278 133.8075 
L 407.396278 135.569914 
L 407.977431 135.569914 
L 407.977431 136.23916 
L 409.139737 136.237635 
L 409.139737 135.324686 
L 409.72089 135.324686 
L 409.72089 134.967848 
L 410.302044 134.967848 
L 410.302044 135.364872 
L 410.883197 135.364872 
L 410.883197 135.82251 
L 412.045503 135.916893 
L 412.045503 137.37612 
L 412.626656 137.37612 
L 412.626656 136.682881 
L 413.207809 136.682881 
L 413.207809 137.079736 
L 413.788963 137.079736 
L 413.788963 137.82824 
L 414.370116 137.82824 
L 414.370116 139.660394 
L 414.951269 139.660394 
L 414.951269 140.313195 
L 415.532422 140.313195 
L 415.532422 140.601816 
L 416.113575 140.601816 
L 416.113575 140.175864 
L 416.694728 140.175864 
L 416.694728 140.328921 
L 417.275882 140.328921 
L 417.275882 140.075049 
L 417.857035 140.075049 
L 417.857035 139.20279 
L 418.438188 139.20279 
L 418.438188 139.348923 
L 419.019341 139.348923 
L 419.019341 140.141899 
L 419.600494 140.141899 
L 419.600494 140.295633 
L 420.181647 140.295633 
L 420.181647 140.118981 
L 421.343954 140.103411 
L 421.343954 139.668464 
L 421.925107 139.668464 
L 421.925107 139.319792 
L 423.668567 139.385173 
L 423.668567 138.981129 
L 424.24972 138.981129 
L 424.24972 138.747172 
L 424.830873 138.747172 
L 424.830873 138.38457 
L 425.412026 138.38457 
L 425.412026 137.372902 
L 426.574332 137.266188 
L 426.574332 136.422142 
L 427.155486 136.422142 
L 427.155486 135.782189 
L 427.736639 135.782189 
L 427.736639 134.202457 
L 428.317792 134.202457 
L 428.317792 133.832649 
L 428.898945 133.832649 
L 428.898945 128.231686 
L 429.480098 128.231686 
L 429.480098 129.903019 
L 430.061251 129.903019 
L 430.061251 129.515382 
L 430.642405 129.515382 
L 430.642405 131.84599 
L 431.223558 131.84599 
L 431.223558 133.243137 
L 431.804711 133.243137 
L 431.804711 132.29328 
L 432.385864 132.29328 
L 432.385864 132.763186 
L 432.967017 132.763186 
L 432.967017 133.198871 
L 433.54817 133.198871 
L 433.54817 130.807902 
L 434.129324 130.807902 
L 434.129324 129.701879 
L 434.710477 129.701879 
L 434.710477 130.604408 
L 435.29163 130.604408 
L 435.29163 129.148352 
L 435.872783 129.148352 
L 435.872783 127.615457 
L 436.453936 127.615457 
L 436.453936 126.640012 
L 437.035089 126.640012 
L 437.035089 125.337533 
L 438.197396 125.382139 
L 438.197396 126.536287 
L 438.778549 126.536287 
L 438.778549 125.70352 
L 439.359702 125.70352 
L 439.359702 127.31721 
L 439.940855 127.31721 
L 439.940855 127.029031 
L 440.522008 127.029031 
L 440.522008 126.807041 
L 441.684315 126.823134 
L 441.684315 125.85954 
L 442.265468 125.85954 
L 442.265468 126.077852 
L 442.846621 126.077852 
L 442.846621 126.964104 
L 443.427774 126.964104 
L 443.427774 129.540893 
L 444.008927 129.540893 
L 444.008927 127.420841 
L 444.590081 127.420841 
L 444.590081 129.269074 
L 445.171234 129.269074 
L 445.171234 128.912192 
L 445.752387 128.912192 
L 445.752387 129.651055 
L 446.33354 129.651055 
L 446.33354 129.999208 
L 446.914693 129.999208 
L 446.914693 129.110258 
L 447.495846 129.110258 
L 447.495846 129.829195 
L 448.077 129.829195 
L 448.077 129.597571 
L 448.658153 129.597571 
L 448.658153 129.008287 
L 449.239306 129.008287 
L 449.239306 128.101704 
L 449.820459 128.101704 
L 449.820459 127.439419 
L 450.401612 127.439419 
L 450.401612 126.612946 
L 450.982765 126.612946 
L 450.982765 127.265335 
L 451.563919 127.265335 
L 451.563919 126.849494 
L 452.145072 126.849494 
L 452.145072 127.313215 
L 452.726225 127.313215 
L 452.726225 128.51151 
L 453.307378 128.51151 
L 453.307378 127.836439 
L 453.888531 127.836439 
L 453.888531 127.43289 
L 454.469684 127.43289 
L 454.469684 127.691572 
L 455.050838 127.691572 
L 455.050838 127.514396 
L 455.631991 127.514396 
L 455.631991 127.85385 
L 456.213144 127.85385 
L 456.213144 127.54113 
L 459.700063 127.440926 
L 459.700063 127.400776 
L 460.281216 127.400776 
L 460.281216 127.24492 
L 460.862369 127.24492 
L 460.862369 126.913579 
L 461.443523 126.913579 
L 461.443523 126.652107 
L 462.024676 126.652107 
L 462.024676 126.091042 
L 462.605829 126.091042 
L 462.605829 125.404933 
L 463.186982 125.404933 
L 463.186982 125.983879 
L 463.768135 125.983879 
L 463.768135 125.842768 
L 464.349288 125.842768 
L 464.349288 126.131605 
L 464.930442 126.131605 
L 464.930442 125.564266 
L 465.511595 125.564266 
L 465.511595 125.946407 
L 466.092748 125.946407 
L 466.092748 125.711849 
L 467.255054 125.79625 
L 467.255054 126.647268 
L 467.836207 126.647268 
L 467.836207 126.530513 
L 468.417361 126.530513 
L 468.417361 126.043973 
L 468.998514 126.043973 
L 468.998514 122.665183 
L 469.579667 122.665183 
L 469.579667 122.452749 
L 470.16082 122.452749 
L 470.16082 121.074695 
L 470.741973 121.074695 
L 470.741973 120.494317 
L 471.323126 120.494317 
L 471.323126 120.836804 
L 471.90428 120.836804 
L 471.90428 117.717178 
L 472.485433 117.717178 
L 472.485433 116.847293 
L 473.066586 116.847293 
L 473.066586 115.151511 
L 473.647739 115.151511 
L 473.647739 117.761263 
L 474.810045 117.744125 
L 474.810045 118.165466 
L 475.391199 118.165466 
L 475.391199 117.650749 
L 475.972352 117.650749 
L 475.972352 118.000414 
L 476.553505 118.000414 
L 476.553505 117.468044 
L 477.134658 117.468044 
L 477.134658 118.309651 
L 477.715811 118.309651 
L 477.715811 117.759993 
L 478.878118 117.801623 
L 478.878118 117.477439 
L 479.459271 117.477439 
L 479.459271 117.775873 
L 480.621577 117.856088 
L 480.621577 118.051854 
L 481.783883 118.074077 
L 481.783883 122.501583 
L 482.365037 122.501583 
L 482.365037 120.895657 
L 482.94619 120.895657 
L 482.94619 120.208225 
L 483.527343 120.208225 
L 483.527343 120.411717 
L 484.108496 120.411717 
L 484.108496 121.094765 
L 484.689649 121.094765 
L 484.689649 120.962064 
L 485.270802 120.962064 
L 485.270802 120.719587 
L 485.851956 120.719587 
L 485.851956 120.557296 
L 486.433109 120.557296 
L 486.433109 120.710457 
L 487.014262 120.710457 
L 487.014262 120.940643 
L 488.176568 120.959108 
L 488.176568 119.775577 
L 488.757721 119.775577 
L 488.757721 119.381772 
L 489.338875 119.381772 
L 489.338875 119.166202 
L 489.920028 119.166202 
L 489.920028 119.60615 
L 491.663487 119.611695 
L 491.663487 120.123184 
L 492.24464 120.123184 
L 492.24464 119.949897 
L 492.825794 119.949897 
L 492.825794 119.77907 
L 493.406947 119.77907 
L 493.406947 119.462493 
L 493.9881 119.462493 
L 493.9881 119.663053 
L 494.569253 119.663053 
L 494.569253 119.402009 
L 495.731559 119.40098 
L 495.731559 118.750542 
L 496.312713 118.750542 
L 496.312713 118.586478 
L 496.893866 118.586478 
L 496.893866 118.961213 
L 497.475019 118.961213 
L 497.475019 118.120206 
L 498.637325 118.178416 
L 498.637325 117.091007 
L 499.218479 117.091007 
L 499.218479 116.752346 
L 499.799632 116.752346 
L 499.799632 117.159396 
L 500.380785 117.159396 
L 500.380785 116.363992 
L 500.961938 116.363992 
L 500.961938 116.023846 
L 501.543091 116.023846 
L 501.543091 116.593442 
L 502.124244 116.593442 
L 502.124244 116.311463 
L 502.705398 116.311463 
L 502.705398 115.23528 
L 503.286551 115.23528 
L 503.286551 115.576299 
L 504.448857 115.614405 
L 504.448857 115.854647 
L 505.03001 115.854647 
L 505.03001 115.431381 
L 505.611163 115.431381 
L 505.611163 114.844868 
L 506.77347 114.955203 
L 506.77347 114.676601 
L 507.354623 114.676601 
L 507.354623 114.433603 
L 508.516929 114.490896 
L 508.516929 114.145974 
L 509.098082 114.145974 
L 509.098082 112.942494 
L 509.679236 112.942494 
L 509.679236 111.534489 
L 510.260389 111.534489 
L 510.260389 110.660872 
L 510.841542 110.660872 
L 510.841542 110.040166 
L 511.422695 110.040166 
L 511.422695 108.856407 
L 512.003848 108.856407 
L 512.003848 109.145017 
L 512.585001 109.145017 
L 512.585001 111.115853 
L 513.166155 111.115853 
L 513.166155 114.354302 
L 513.747308 114.354302 
L 513.747308 113.335731 
L 514.328461 113.335731 
L 514.328461 111.206177 
L 514.909614 111.206177 
L 514.909614 111.462763 
L 515.490767 111.462763 
L 515.490767 110.897338 
L 516.07192 110.897338 
L 516.07192 111.010462 
L 517.234227 111.076501 
L 517.234227 109.490336 
L 517.81538 109.490336 
L 517.81538 108.430864 
L 518.396533 108.430864 
L 518.396533 108.051373 
L 518.977686 108.051373 
L 518.977686 109.188535 
L 520.139993 109.112332 
L 520.139993 108.407824 
L 520.721146 108.407824 
L 520.721146 108.090883 
L 521.302299 108.090883 
L 521.302299 106.559144 
L 521.883452 106.559144 
L 521.883452 106.18243 
L 522.464605 106.18243 
L 522.464605 105.452143 
L 523.045758 105.452143 
L 523.045758 103.81482 
L 523.626912 103.81482 
L 523.626912 103.938117 
L 524.208065 103.938117 
L 524.208065 105.430897 
L 524.789218 105.430897 
L 524.789218 104.810292 
L 525.370371 104.810292 
L 525.370371 104.31239 
L 525.951524 104.31239 
L 525.951524 109.830498 
L 526.532677 109.830498 
L 526.532677 106.879115 
L 527.113831 106.879115 
L 527.113831 110.715591 
L 527.694984 110.715591 
L 527.694984 108.289147 
L 528.276137 108.289147 
L 528.276137 108.4172 
L 528.85729 108.4172 
L 528.85729 107.514258 
L 529.438443 107.514258 
L 529.438443 106.493532 
L 530.019596 106.493532 
L 530.019596 105.574016 
L 530.60075 105.574016 
L 530.60075 104.958418 
L 531.181903 104.958418 
L 531.181903 105.818993 
L 531.763056 105.818993 
L 531.763056 105.700181 
L 532.344209 105.700181 
L 532.344209 104.657057 
L 533.506515 104.585359 
L 533.506515 103.798108 
L 534.087669 103.798108 
L 534.087669 103.073969 
L 534.668822 103.073969 
L 534.668822 101.334807 
L 535.249975 101.334807 
L 535.249975 100.32188 
L 535.831128 100.32188 
L 535.831128 98.559223 
L 536.412281 98.559223 
L 536.412281 96.400521 
L 536.993434 96.400521 
L 536.993434 96.973403 
L 538.155741 96.926286 
L 538.155741 94.421969 
L 538.736894 94.421969 
L 538.736894 91.971085 
L 539.318047 91.971085 
L 539.318047 91.752502 
L 540.480354 91.658328 
L 540.480354 90.581649 
L 541.061507 90.581649 
L 541.061507 89.559848 
L 541.64266 89.559848 
L 541.64266 88.317015 
L 542.223813 88.317015 
L 542.223813 86.686475 
L 542.804966 86.686475 
L 542.804966 88.137176 
L 543.386119 88.137176 
L 543.386119 89.994551 
L 543.967273 89.994551 
L 543.967273 88.980174 
L 544.548426 88.980174 
L 544.548426 88.078943 
L 545.129579 88.078943 
L 545.129579 89.790451 
L 545.710732 89.790451 
L 545.710732 89.321264 
L 546.291885 89.321264 
L 546.291885 90.482701 
L 546.873038 90.482701 
L 546.873038 88.989182 
L 547.454192 88.989182 
L 547.454192 89.783454 
L 548.035345 89.783454 
L 548.035345 91.319569 
L 549.197651 91.216476 
L 549.197651 95.475749 
L 549.778804 95.475749 
L 549.778804 91.888129 
L 550.359957 91.888129 
L 550.359957 87.225464 
L 550.941111 87.225464 
L 550.941111 89.271845 
L 551.522264 89.271845 
L 551.522264 87.531626 
L 552.103417 87.531626 
L 552.103417 86.948131 
L 552.68457 86.948131 
L 552.68457 87.492271 
L 553.265723 87.492271 
L 553.265723 84.53268 
L 553.846876 84.53268 
L 553.846876 83.694718 
L 554.42803 83.694718 
L 554.42803 80.59746 
L 555.009183 80.59746 
L 555.009183 78.963954 
L 555.590336 78.963954 
L 555.590336 79.347247 
L 556.171489 79.347247 
L 556.171489 79.964866 
L 556.752642 79.964866 
L 556.752642 78.211415 
L 557.914949 78.17599 
L 557.914949 77.024284 
L 559.077255 77.010247 
L 559.077255 77.953665 
L 559.658408 77.953665 
L 559.658408 78.306644 
L 560.239561 78.306644 
L 560.239561 78.870189 
L 560.820714 78.870189 
L 560.820714 84.491779 
L 561.401868 84.491779 
L 561.401868 81.659829 
L 561.983021 81.659829 
L 561.983021 80.456367 
L 562.564174 80.456367 
L 562.564174 81.099077 
L 563.145327 81.099077 
L 563.145327 80.529513 
L 563.72648 80.529513 
L 563.72648 79.04334 
L 564.307633 79.04334 
L 564.307633 77.910171 
L 564.888787 77.910171 
L 564.888787 78.275749 
L 565.46994 78.275749 
L 565.46994 76.918025 
L 566.051093 76.918025 
L 566.051093 75.948916 
L 566.632246 75.948916 
L 566.632246 71.959561 
L 567.213399 71.959561 
L 567.213399 72.814294 
L 567.794552 72.814294 
L 567.794552 71.386426 
L 568.375706 71.386426 
L 568.375706 71.691149 
L 569.538012 71.729689 
L 569.538012 70.864174 
L 570.119165 70.864174 
L 570.119165 68.847759 
L 570.700318 68.847759 
L 570.700318 67.011613 
L 571.281471 67.011613 
L 571.281471 67.70257 
L 571.862625 67.70257 
L 571.862625 69.426647 
L 572.443778 69.426647 
L 572.443778 69.670799 
L 573.024931 69.670799 
L 573.024931 65.618681 
L 573.606084 65.618681 
L 573.606084 65.139052 
L 574.187237 65.139052 
L 574.187237 64.654585 
L 574.76839 64.654585 
L 574.76839 63.334023 
L 575.349544 63.334023 
L 575.349544 60.733897 
L 575.930697 60.733897 
L 575.930697 58.783297 
L 576.51185 58.783297 
L 576.51185 57.447231 
L 577.093003 57.447231 
L 577.093003 49.541546 
L 577.674156 49.541546 
L 577.674156 51.911888 
L 578.25531 51.911888 
L 578.25531 50.317058 
L 578.836463 50.317058 
L 578.836463 46.713271 
L 579.417616 46.713271 
L 579.417616 48.898264 
L 579.998769 48.898264 
L 579.998769 53.803441 
L 581.161075 53.858133 
L 581.161075 53.144067 
L 581.742229 53.144067 
L 581.742229 53.77377 
L 582.323382 53.77377 
L 582.323382 51.953522 
L 582.904535 51.953522 
L 582.904535 49.175554 
L 583.485688 49.175554 
L 583.485688 52.815068 
L 584.066841 52.815068 
L 584.066841 53.781126 
L 584.647994 53.781126 
L 584.647994 54.146887 
L 585.229148 54.146887 
L 585.229148 58.219025 
L 585.810301 58.219025 
L 585.810301 57.589304 
L 586.391454 57.589304 
L 586.391454 57.812907 
L 587.55376 57.740182 
L 587.55376 60.388954 
L 588.134913 60.388954 
L 588.134913 63.133064 
L 588.716067 63.133064 
L 588.716067 68.312581 
L 589.29722 68.312581 
L 589.29722 64.633184 
L 589.878373 64.633184 
L 589.878373 65.091147 
L 590.459526 65.091147 
L 590.459526 61.707478 
L 591.040679 61.707478 
L 591.040679 58.387694 
L 591.621832 58.387694 
L 591.621832 58.085114 
L 592.202986 58.085114 
L 592.202986 60.20401 
L 592.784139 60.20401 
L 592.784139 59.898932 
L 593.365292 59.898932 
L 593.365292 58.684176 
L 593.946445 58.684176 
L 593.946445 57.583057 
L 594.527598 57.583057 
L 594.527598 60.730792 
L 595.108751 60.730792 
L 595.108751 63.313415 
L 595.689905 63.313415 
L 595.689905 62.428146 
L 596.271058 62.428146 
L 596.271058 64.498494 
L 596.852211 64.498494 
L 596.852211 63.730251 
L 597.433364 63.730251 
L 597.433364 63.438767 
L 598.014517 63.438767 
L 598.014517 64.095419 
L 598.59567 64.095419 
L 598.59567 65.400403 
L 599.176824 65.400403 
L 599.176824 68.275755 
L 599.757977 68.275755 
L 599.757977 66.839079 
L 600.33913 66.839079 
L 600.33913 69.217473 
L 600.920283 69.217473 
L 600.920283 68.746676 
L 601.501436 68.746676 
L 601.501436 65.424695 
L 602.082589 65.424695 
L 602.082589 64.320748 
L 602.663743 64.320748 
L 602.663743 64.810781 
L 603.244896 64.810781 
L 603.244896 62.948312 
L 603.826049 62.948312 
L 603.826049 61.296193 
L 604.407202 61.296193 
L 604.407202 62.953155 
L 604.988355 62.953155 
L 604.988355 62.230846 
L 605.569508 62.230846 
L 605.569508 61.089181 
L 606.150662 61.089181 
L 606.150662 61.354528 
L 606.731815 61.354528 
L 606.731815 62.069764 
L 607.312968 62.069764 
L 607.312968 64.081555 
L 608.475274 64.06277 
L 608.475274 64.648541 
L 609.056427 64.648541 
L 609.056427 64.248946 
L 609.637581 64.248946 
L 609.637581 66.416393 
L 610.218734 66.416393 
L 610.218734 67.073077 
L 610.799887 67.073077 
L 610.799887 66.952326 
L 611.38104 66.952326 
L 611.38104 66.248999 
L 613.1245 66.308749 
L 613.1245 68.453631 
L 613.705653 68.453631 
L 613.705653 69.208795 
L 614.286806 69.208795 
L 614.286806 69.826794 
L 614.867959 69.826794 
L 614.867959 68.820126 
L 615.449112 68.820126 
L 615.449112 70.747714 
L 616.030266 70.747714 
L 616.030266 70.998779 
L 616.611419 70.998779 
L 616.611419 70.567898 
L 617.192572 70.567898 
L 617.192572 69.24369 
L 617.773725 69.24369 
L 617.773725 69.47072 
L 618.354878 69.47072 
L 618.354878 68.935236 
L 618.936031 68.935236 
L 618.936031 69.966712 
L 619.517185 69.966712 
L 619.517185 70.481431 
L 620.098338 70.481431 
L 620.098338 67.139072 
L 621.260644 67.100583 
L 621.260644 66.034742 
L 621.841797 66.034742 
L 621.841797 65.429079 
L 622.42295 65.429079 
L 622.42295 64.695116 
L 623.004104 64.695116 
L 623.004104 66.330478 
L 623.585257 66.330478 
L 623.585257 68.052767 
L 624.16641 68.052767 
L 624.16641 68.953472 
L 624.747563 68.953472 
L 624.747563 70.855684 
L 625.328716 70.855684 
L 625.328716 70.470327 
L 625.909869 70.470327 
L 625.909869 70.266767 
L 626.491023 70.266767 
L 626.491023 69.693715 
L 627.072176 69.693715 
L 627.072176 70.127474 
L 627.653329 70.127474 
L 627.653329 68.890638 
L 628.234482 68.890638 
L 628.234482 67.852399 
L 628.815635 67.852399 
L 628.815635 68.030213 
L 629.396788 68.030213 
L 629.396788 67.302614 
L 629.977942 67.302614 
L 629.977942 69.646253 
L 630.559095 69.646253 
L 630.559095 70.507983 
L 631.140248 70.507983 
L 631.140248 70.222402 
L 631.721401 70.222402 
L 631.721401 69.577573 
L 632.302554 69.577573 
L 632.302554 70.167948 
L 632.883707 70.167948 
L 632.883707 68.834827 
L 633.464861 68.834827 
L 633.464861 69.380999 
L 634.046014 69.380999 
L 634.046014 69.054669 
L 634.627167 69.054669 
L 634.627167 69.292838 
L 635.20832 69.292838 
L 635.20832 69.702986 
L 635.789473 69.702986 
L 635.789473 69.412522 
L 636.370626 69.412522 
L 636.370626 69.242385 
L 636.95178 69.242385 
L 636.95178 70.487643 
L 637.532933 70.487643 
L 637.532933 69.330686 
L 638.114086 69.330686 
L 638.114086 69.618949 
L 639.857545 69.683343 
L 639.857545 69.789451 
L 640.438699 69.789451 
L 640.438699 70.304028 
L 641.019852 70.304028 
L 641.019852 70.008793 
L 641.601005 70.008793 
L 641.601005 69.853091 
L 643.344464 69.949093 
L 643.344464 72.211709 
L 643.925618 72.211709 
L 643.925618 72.898247 
L 644.506771 72.898247 
L 644.506771 77.445264 
L 645.087924 77.445264 
L 645.087924 78.108373 
L 645.669077 78.108373 
L 645.669077 81.011416 
L 646.25023 81.011416 
L 646.25023 78.47112 
L 646.831383 78.47112 
L 646.831383 79.163593 
L 647.412537 79.163593 
L 647.412537 81.282146 
L 647.99369 81.282146 
L 647.99369 82.990536 
L 648.574843 82.990536 
L 648.574843 83.275758 
L 649.155996 83.275758 
L 649.155996 84.322 
L 649.737149 84.322 
L 649.737149 82.371292 
L 650.318302 82.371292 
L 650.318302 79.191175 
L 650.899456 79.191175 
L 650.899456 79.917871 
L 651.480609 79.917871 
L 651.480609 80.708507 
L 652.061762 80.708507 
L 652.061762 81.139659 
L 652.642915 81.139659 
L 652.642915 80.666502 
L 653.805222 80.662454 
L 653.805222 79.722978 
L 654.386375 79.722978 
L 654.386375 81.845768 
L 654.967528 81.845768 
L 654.967528 82.517597 
L 655.548681 82.517597 
L 655.548681 81.989859 
L 656.129834 81.989859 
L 656.129834 81.514378 
L 656.710987 81.514378 
L 656.710987 82.189326 
L 657.873294 82.24562 
L 657.873294 83.021589 
L 659.616753 82.976125 
L 659.616753 83.285543 
L 660.197906 83.285543 
L 660.197906 81.741134 
L 660.77906 81.741134 
L 660.77906 81.925936 
L 661.360213 81.925936 
L 661.360213 82.067069 
L 661.941366 82.067069 
L 661.941366 80.368148 
L 662.522519 80.368148 
L 662.522519 80.185107 
L 663.103672 80.185107 
L 663.103672 81.159083 
L 663.684825 81.159083 
L 663.684825 80.790788 
L 664.847132 80.800642 
L 664.847132 80.577129 
L 667.171744 80.506641 
L 667.171744 79.919191 
L 667.752898 79.919191 
L 667.752898 79.597007 
L 668.334051 79.597007 
L 668.334051 79.82961 
L 668.915204 79.82961 
L 668.915204 80.169818 
L 669.496357 80.169818 
L 669.496357 79.291608 
L 670.07751 79.291608 
L 670.07751 79.102898 
L 670.658663 79.102898 
L 670.658663 75.562809 
L 671.239817 75.562809 
L 671.239817 74.400637 
L 671.82097 74.400637 
L 671.82097 73.915227 
L 672.402123 73.915227 
L 672.402123 74.914051 
L 672.983276 74.914051 
L 672.983276 74.371144 
L 673.564429 74.371144 
L 673.564429 74.047296 
L 674.145582 74.047296 
L 674.145582 73.650679 
L 674.726736 73.650679 
L 674.726736 74.375366 
L 675.307889 74.375366 
L 675.307889 73.950574 
L 676.470195 73.849818 
L 676.470195 72.159334 
L 677.632501 72.215557 
L 677.632501 70.14923 
L 678.213655 70.14923 
L 678.213655 65.741451 
L 678.794808 65.741451 
L 678.794808 65.572645 
L 679.375961 65.572645 
L 679.375961 64.765057 
L 679.957114 64.765057 
L 679.957114 66.279987 
L 680.538267 66.279987 
L 680.538267 65.082181 
L 681.11942 65.082181 
L 681.11942 63.452044 
L 681.700574 63.452044 
L 681.700574 63.857692 
L 682.281727 63.857692 
L 682.281727 64.916941 
L 682.86288 64.916941 
L 682.86288 65.795128 
L 683.444033 65.795128 
L 683.444033 66.239416 
L 684.025186 66.239416 
L 684.025186 64.818265 
L 684.606339 64.818265 
L 684.606339 63.117009 
L 685.187493 63.117009 
L 685.187493 62.607194 
L 685.768646 62.607194 
L 685.768646 60.125177 
L 686.349799 60.125177 
L 686.349799 58.518126 
L 686.930952 58.518126 
L 686.930952 58.298406 
L 687.512105 58.298406 
L 687.512105 59.060741 
L 688.093258 59.060741 
L 688.093258 56.742879 
L 688.674412 56.742879 
L 688.674412 58.11128 
L 689.255565 58.11128 
L 689.255565 55.708939 
L 689.836718 55.708939 
L 689.836718 57.063537 
L 690.417871 57.063537 
L 690.417871 58.795671 
L 690.999024 58.795671 
L 690.999024 59.256481 
L 692.161331 59.358155 
L 692.161331 61.048514 
L 692.742484 61.048514 
L 692.742484 61.702244 
L 693.323637 61.702244 
L 693.323637 61.447405 
L 693.90479 61.447405 
L 693.90479 59.47376 
L 694.485943 59.47376 
L 694.485943 57.092116 
L 695.067097 57.092116 
L 695.067097 56.722383 
L 695.64825 56.722383 
L 695.64825 57.491649 
L 696.229403 57.491649 
L 696.229403 60.526575 
L 696.810556 60.526575 
L 696.810556 60.114559 
L 697.391709 60.114559 
L 697.391709 59.015935 
L 697.972862 59.015935 
L 697.972862 59.723142 
L 699.135169 59.815649 
L 699.135169 61.678743 
L 699.716322 61.678743 
L 699.716322 61.053652 
L 700.297475 61.053652 
L 700.297475 59.364632 
L 700.878628 59.364632 
L 700.878628 59.55876 
L 701.459781 59.55876 
L 701.459781 60.350261 
L 702.040935 60.350261 
L 702.040935 59.808279 
L 702.622088 59.808279 
L 702.622088 60.009265 
L 703.784394 59.988211 
L 703.784394 60.492717 
L 704.365547 60.492717 
L 704.365547 64.159693 
L 704.9467 64.159693 
L 704.9467 64.684623 
L 705.527854 64.684623 
L 705.527854 64.434955 
L 706.109007 64.434955 
L 706.109007 64.86369 
L 706.69016 64.86369 
L 706.69016 64.717942 
L 707.271313 64.717942 
L 707.271313 63.776241 
L 707.852466 63.776241 
L 707.852466 64.534448 
L 708.433619 64.534448 
L 708.433619 65.26314 
L 709.014773 65.26314 
L 709.014773 65.375396 
L 709.595926 65.375396 
L 709.595926 65.199309 
L 710.177079 65.199309 
L 710.177079 63.580877 
L 710.758232 63.580877 
L 710.758232 62.278368 
L 711.339385 62.278368 
L 711.339385 62.440964 
L 711.920538 62.440964 
L 711.920538 62.307221 
L 712.501692 62.307221 
L 712.501692 61.995191 
L 713.082845 61.995191 
L 713.082845 63.236549 
L 714.245151 63.255452 
L 714.245151 64.096092 
L 714.826304 64.096092 
L 714.826304 64.810703 
L 715.407457 64.810703 
L 715.407457 66.304511 
L 715.988611 66.304511 
L 715.988611 68.367666 
L 716.569764 68.367666 
L 716.569764 66.564339 
L 717.73207 66.469528 
L 717.73207 67.210794 
L 718.313223 67.210794 
L 718.313223 66.498941 
L 718.894376 66.498941 
L 718.894376 67.093596 
L 719.47553 67.093596 
L 719.47553 67.524227 
L 720.056683 67.524227 
L 720.056683 67.754422 
L 720.637836 67.754422 
L 720.637836 67.246907 
L 721.218989 67.246907 
L 721.218989 67.659526 
L 721.800142 67.659526 
L 721.800142 67.344441 
L 723.543602 67.435092 
L 723.543602 68.255178 
L 724.124755 68.255178 
L 724.124755 67.052952 
L 724.705908 67.052952 
L 724.705908 65.157588 
L 725.868214 65.213165 
L 725.868214 63.157647 
L 726.449368 63.157647 
L 726.449368 63.019914 
L 727.030521 63.019914 
L 727.030521 63.67925 
L 727.611674 63.67925 
L 727.611674 64.270363 
L 728.192827 64.270363 
L 728.192827 63.772507 
L 728.77398 63.772507 
L 728.77398 62.139123 
L 729.355133 62.139123 
L 729.355133 61.916876 
L 729.936287 61.916876 
L 729.936287 62.408335 
L 730.51744 62.408335 
L 730.51744 60.972295 
L 731.679746 60.870905 
L 731.679746 60.056995 
L 732.260899 60.056995 
L 732.260899 60.694227 
L 732.842053 60.694227 
L 732.842053 61.413135 
L 733.423206 61.413135 
L 733.423206 61.271045 
L 734.004359 61.271045 
L 734.004359 62.072529 
L 734.585512 62.072529 
L 734.585512 63.470269 
L 735.166665 63.470269 
L 735.166665 62.990354 
L 735.747818 62.990354 
L 735.747818 62.627635 
L 736.328972 62.627635 
L 736.328972 65.166167 
L 736.910125 65.166167 
L 736.910125 65.437476 
L 737.491278 65.437476 
L 737.491278 74.494876 
L 738.072431 74.494876 
L 738.072431 73.727636 
L 738.653584 73.727636 
L 738.653584 70.557189 
L 739.234737 70.557189 
L 739.234737 69.643106 
L 739.815891 69.643106 
L 739.815891 68.811016 
L 740.397044 68.811016 
L 740.397044 71.745491 
L 740.978197 71.745491 
L 740.978197 69.159714 
L 741.55935 69.159714 
L 741.55935 68.477012 
L 742.140503 68.477012 
L 742.140503 67.476187 
L 742.721656 67.476187 
L 742.721656 68.472254 
L 743.883963 68.520128 
L 743.883963 67.75107 
L 745.627422 67.695616 
L 745.627422 66.49243 
L 746.208575 66.49243 
L 746.208575 65.89784 
L 746.789729 65.89784 
L 746.789729 63.200061 
L 747.370882 63.200061 
L 747.370882 63.054097 
L 747.952035 63.054097 
L 747.952035 60.557093 
L 748.533188 60.557093 
L 748.533188 63.36855 
L 749.114341 63.36855 
L 749.114341 62.079827 
L 749.695494 62.079827 
L 749.695494 61.899764 
L 750.276648 61.899764 
L 750.276648 61.019239 
L 750.857801 61.019239 
L 750.857801 62.396549 
L 751.438954 62.396549 
L 751.438954 63.021526 
L 752.020107 63.021526 
L 752.020107 61.491274 
L 752.60126 61.491274 
L 752.60126 61.753856 
L 753.182413 61.753856 
L 753.182413 61.296345 
L 754.34472 61.269299 
L 754.34472 61.042081 
L 754.925873 61.042081 
L 754.925873 61.733486 
L 756.088179 61.80781 
L 756.088179 61.912512 
L 756.669332 61.912512 
L 756.669332 62.127828 
L 757.831639 62.146467 
L 757.831639 62.775095 
L 758.412792 62.775095 
L 758.412792 62.473297 
L 758.993945 62.473297 
L 758.993945 62.615935 
L 759.575098 62.615935 
L 759.575098 61.982618 
L 760.156251 61.982618 
L 760.156251 62.234294 
L 760.737405 62.234294 
L 760.737405 62.102577 
L 761.318558 62.102577 
L 761.318558 62.336228 
L 762.480864 62.379412 
L 762.480864 61.884126 
L 763.062017 61.884126 
L 763.062017 61.530839 
L 763.64317 61.530839 
L 763.64317 58.470502 
L 764.224324 58.470502 
L 764.224324 58.33239 
L 765.38663 58.403038 
L 765.38663 57.15971 
L 766.548936 57.128637 
L 766.548936 57.812166 
L 767.130089 57.812166 
L 767.130089 57.116486 
L 767.711243 57.116486 
L 767.711243 56.205929 
L 768.292396 56.205929 
L 768.292396 56.953288 
L 768.873549 56.953288 
L 768.873549 57.335054 
L 769.454702 57.335054 
L 769.454702 57.67385 
L 770.617009 57.647615 
L 770.617009 56.85143 
L 771.198162 56.85143 
L 771.198162 59.59766 
L 771.779315 59.59766 
L 771.779315 59.800464 
L 773.522774 59.875824 
L 773.522774 58.650796 
L 774.103928 58.650796 
L 774.103928 58.396069 
L 774.685081 58.396069 
L 774.685081 59.468412 
L 775.266234 59.468412 
L 775.266234 59.149119 
L 776.42854 59.150125 
L 776.42854 59.294827 
L 778.172 59.192647 
L 778.172 57.979038 
L 778.753153 57.979038 
L 778.753153 57.745959 
L 779.334306 57.745959 
L 779.334306 57.932614 
L 779.915459 57.932614 
L 779.915459 57.145568 
L 780.496612 57.145568 
L 780.496612 55.043318 
L 781.658919 54.967905 
L 781.658919 54.563647 
L 782.240072 54.563647 
L 782.240072 53.751884 
L 782.821225 53.751884 
L 782.821225 53.429014 
L 783.402378 53.429014 
L 783.402378 51.186958 
L 783.983531 51.186958 
L 783.983531 51.55158 
L 784.564685 51.55158 
L 784.564685 50.26098 
L 785.145838 50.26098 
L 785.145838 50.689156 
L 785.726991 50.689156 
L 785.726991 48.399932 
L 786.308144 48.399932 
L 786.308144 47.357816 
L 786.889297 47.357816 
L 786.889297 46.831095 
L 787.47045 46.831095 
L 787.47045 49.196567 
L 788.051604 49.196567 
L 788.051604 46.248119 
L 788.632757 46.248119 
L 788.632757 46.523041 
L 789.795063 46.606573 
L 789.795063 47.522717 
L 790.376216 47.522717 
L 790.376216 47.241162 
L 790.957369 47.241162 
L 790.957369 46.539085 
L 791.538523 46.539085 
L 791.538523 42.853427 
L 792.119676 42.853427 
L 792.119676 43.226034 
L 792.700829 43.226034 
L 792.700829 42.344988 
L 793.281982 42.344988 
L 793.281982 40.205737 
L 793.863135 40.205737 
L 793.863135 38.205781 
L 794.444288 38.205781 
L 794.444288 35.896043 
L 795.025442 35.896043 
L 795.025442 34.716634 
L 795.606595 34.716634 
L 795.606595 30.966513 
L 796.187748 30.966513 
L 796.187748 33.808123 
L 796.768901 33.808123 
L 796.768901 31.765632 
L 797.350054 31.765632 
L 797.350054 33.661405 
L 797.931207 33.661405 
L 797.931207 33.811661 
L 798.512361 33.811661 
L 798.512361 35.958857 
L 799.093514 35.958857 
L 799.093514 35.670317 
L 799.674667 35.670317 
L 799.674667 34.551478 
L 800.25582 34.551478 
L 800.25582 35.043695 
L 800.836973 35.043695 
L 800.836973 32.960558 
L 801.418126 32.960558 
L 801.418126 31.890107 
L 801.99928 31.890107 
L 801.99928 28.889516 
L 802.580433 28.889516 
L 802.580433 27.832004 
L 803.161586 27.832004 
L 803.161586 26.967021 
L 803.742739 26.967021 
L 803.742739 24.250339 
L 804.323892 24.250339 
L 804.323892 24.937918 
L 804.905045 24.937918 
L 804.905045 28.004736 
L 805.486199 28.004736 
L 805.486199 28.778986 
L 806.067352 28.778986 
L 806.067352 26.409046 
L 806.648505 26.409046 
L 806.648505 27.086877 
L 807.229658 27.086877 
L 807.229658 24.644472 
L 807.810811 24.644472 
L 807.810811 23.751937 
L 808.391964 23.751937 
L 808.391964 24.311463 
L 808.973118 24.311463 
L 808.973118 23.600445 
L 810.135424 23.69384 
L 810.135424 25.577057 
L 810.716577 25.577057 
L 810.716577 24.270182 
L 811.29773 24.270182 
L 811.29773 23.214666 
L 812.460037 23.106754 
L 812.460037 23.098615 
L 813.04119 23.098615 
L 813.04119 23.460908 
L 813.622343 23.460908 
L 813.622343 22.775742 
L 814.203496 22.775742 
L 814.203496 21.744453 
L 814.784649 21.744453 
L 814.784649 22.732788 
L 815.365803 22.732788 
L 815.365803 24.028385 
L 815.946956 24.028385 
L 815.946956 26.128638 
L 816.528109 26.128638 
L 816.528109 24.963955 
L 817.109262 24.963955 
L 817.109262 25.149159 
L 817.690415 25.149159 
L 817.690415 23.990135 
L 818.271568 23.990135 
L 818.271568 23.671048 
L 818.852722 23.671048 
L 818.852722 23.14342 
L 819.433875 23.14342 
L 819.433875 23.9382 
L 820.015028 23.9382 
L 820.015028 26.642356 
L 820.596181 26.642356 
L 820.596181 29.50089 
L 821.177334 29.50089 
L 821.177334 30.907427 
L 821.758487 30.907427 
L 821.758487 34.282521 
L 822.339641 34.282521 
L 822.339641 31.70776 
L 822.920794 31.70776 
L 822.920794 34.347491 
L 823.501947 34.347491 
L 823.501947 33.154982 
L 824.0831 33.154982 
L 824.0831 33.027129 
L 824.664253 33.027129 
L 824.664253 35.048749 
L 825.245406 35.048749 
L 825.245406 33.130869 
L 825.82656 33.130869 
L 825.82656 31.815065 
L 826.407713 31.815065 
L 826.407713 32.219569 
L 826.988866 32.219569 
L 826.988866 33.820454 
L 827.570019 33.820454 
L 827.570019 35.731479 
L 828.151172 35.731479 
L 828.151172 36.262796 
L 828.732325 36.262796 
L 828.732325 34.464108 
L 829.313479 34.464108 
L 829.313479 35.034899 
L 829.894632 35.034899 
L 829.894632 33.948442 
L 830.475785 33.948442 
L 830.475785 34.84568 
L 831.056938 34.84568 
L 831.056938 35.048308 
L 831.638091 35.048308 
L 831.638091 35.576681 
L 832.219244 35.576681 
L 832.219244 36.409541 
L 832.800398 36.409541 
L 832.800398 36.819907 
L 833.381551 36.819907 
L 833.381551 35.829033 
L 833.962704 35.829033 
L 833.962704 33.91507 
L 834.543857 33.91507 
L 834.543857 31.31574 
L 835.12501 31.31574 
L 835.12501 30.459746 
L 835.706163 30.459746 
L 835.706163 32.322684 
L 836.287317 32.322684 
L 836.287317 29.876961 
L 836.86847 29.876961 
L 836.86847 28.216282 
L 837.449623 28.216282 
L 837.449623 29.10705 
L 838.030776 29.10705 
L 838.030776 27.889659 
L 838.611929 27.889659 
L 838.611929 28.936722 
L 839.193082 28.936722 
L 839.193082 27.065124 
L 839.774236 27.065124 
L 839.774236 27.583378 
L 840.355389 27.583378 
L 840.355389 27.011371 
L 840.936542 27.011371 
L 840.936542 27.881429 
L 841.517695 27.881429 
L 841.517695 26.894661 
L 842.098848 26.894661 
L 842.098848 25.87614 
L 842.680001 25.87614 
L 842.680001 28.332743 
L 843.261155 28.332743 
L 843.261155 28.764556 
L 843.842308 28.764556 
L 843.842308 27.882617 
L 845.004614 27.796977 
L 845.004614 29.839749 
L 845.585767 29.839749 
L 845.585767 28.884445 
L 846.16692 28.884445 
L 846.16692 29.701989 
L 846.748074 29.701989 
L 846.748074 30.529074 
L 847.329227 30.529074 
L 847.329227 27.591103 
L 847.91038 27.591103 
L 847.91038 25.98368 
L 848.491533 25.98368 
L 848.491533 25.037976 
L 849.072686 25.037976 
L 849.072686 23.678838 
L 850.234993 23.698775 
L 850.234993 22.226627 
L 850.816146 22.226627 
L 850.816146 20.732418 
L 851.397299 20.732418 
L 851.397299 22.319009 
L 851.978452 22.319009 
L 851.978452 22.642373 
L 852.559605 22.642373 
L 852.559605 21.987038 
L 853.140759 21.987038 
L 853.140759 22.404485 
L 853.721912 22.404485 
L 853.721912 22.262435 
L 854.303065 22.262435 
L 854.303065 21.636151 
L 854.884218 21.636151 
L 854.884218 21.082361 
L 855.465371 21.082361 
L 855.465371 21.263585 
L 856.046524 21.263585 
L 856.046524 22.702907 
L 856.627678 22.702907 
L 856.627678 23.430247 
L 857.208831 23.430247 
L 857.208831 24.105578 
L 857.789984 24.105578 
L 857.789984 23.141043 
L 858.371137 23.141043 
L 858.371137 23.737572 
L 859.533443 23.760605 
L 859.533443 26.926824 
L 860.114597 26.926824 
L 860.114597 26.339072 
L 860.69575 26.339072 
L 860.69575 27.853354 
L 861.276903 27.853354 
L 861.276903 28.024276 
L 861.858056 28.024276 
L 861.858056 27.6215 
L 862.439209 27.6215 
L 862.439209 28.054893 
L 863.020362 28.054893 
L 863.020362 27.196453 
L 863.601516 27.196453 
L 863.601516 26.411892 
L 864.182669 26.411892 
L 864.182669 27.646799 
L 864.763822 27.646799 
L 864.763822 28.254517 
L 865.926128 28.166925 
L 865.926128 29.7323 
L 866.507281 29.7323 
L 866.507281 30.355997 
L 867.088435 30.355997 
L 867.088435 29.341921 
L 867.669588 29.341921 
L 867.669588 29.719632 
L 868.250741 29.719632 
L 868.250741 30.097051 
L 868.831894 30.097051 
L 868.831894 33.259846 
L 869.413047 33.259846 
L 869.413047 33.145674 
L 869.9942 33.145674 
L 869.9942 32.878187 
L 870.575354 32.878187 
L 870.575354 32.444384 
L 871.156507 32.444384 
L 871.156507 33.011595 
L 871.73766 33.011595 
L 871.73766 30.573296 
L 872.318813 30.573296 
L 872.318813 29.242607 
L 872.899966 29.242607 
L 872.899966 30.087202 
L 874.062273 29.997999 
L 874.062273 31.020819 
L 874.643426 31.020819 
L 874.643426 32.18797 
L 875.224579 32.18797 
L 875.224579 32.79621 
L 875.805732 32.79621 
L 875.805732 31.795046 
L 876.386885 31.795046 
L 876.386885 29.106552 
L 876.968038 29.106552 
L 876.968038 31.774911 
L 877.549192 31.774911 
L 877.549192 32.381122 
L 878.130345 32.381122 
L 878.130345 31.615634 
L 878.711498 31.615634 
L 878.711498 32.499105 
L 879.292651 32.499105 
L 879.292651 30.727796 
L 879.873804 30.727796 
L 879.873804 30.176424 
L 881.036111 30.101436 
L 881.036111 29.146722 
L 881.617264 29.146722 
L 881.617264 27.862992 
L 882.198417 27.862992 
L 882.198417 28.581041 
L 882.77957 28.581041 
L 882.77957 28.174408 
L 883.360723 28.174408 
L 883.360723 29.698301 
L 883.941876 29.698301 
L 883.941876 29.895817 
L 884.52303 29.895817 
L 884.52303 31.263243 
L 885.104183 31.263243 
L 885.104183 31.020554 
L 885.685336 31.020554 
L 885.685336 30.896361 
L 886.266489 30.896361 
L 886.266489 31.047712 
L 886.847642 31.047712 
L 886.847642 31.475145 
L 887.194182 31.475145 
L 887.194182 31.475145 
" clip-path="url(#pe6c5a36c80)" style="fill: none; stroke: #3572c6; stroke-width: 1.2; stroke-linecap: square"/>
   </g>
   <g id="line2d_74">
    <path d="M 75.557818 20.732418 
L 887.194182 20.732418 
L 887.194182 20.732418 
" clip-path="url(#pe6c5a36c80)" style="fill: none; stroke: #83a83b; stroke-width: 1.2; stroke-linecap: square"/>
   </g>
   <g id="line2d_75">
    <path d="M 75.557818 33.259846 
L 887.194182 33.259846 
L 887.194182 33.259846 
" clip-path="url(#pe6c5a36c80)" style="fill: none; stroke: #c44e52; stroke-width: 1.2; stroke-linecap: square"/>
   </g>
   <g id="line2d_76">
    <path d="M 851.397299 301.139691 
L 851.397299 7.379691 
" clip-path="url(#pe6c5a36c80)" style="fill: none; stroke: #83a83b; stroke-width: 1.2; stroke-linecap: square"/>
   </g>
   <g id="line2d_77">
    <path d="M 869.413047 301.139691 
L 869.413047 7.379691 
" clip-path="url(#pe6c5a36c80)" style="fill: none; stroke: #c44e52; stroke-width: 1.2; stroke-linecap: square"/>
   </g>
   <g id="patch_3">
    <path d="M 34.976 301.139691 
L 34.976 7.379691 
" style="fill: none; stroke: #899ab8; stroke-width: 1.12; stroke-linejoin: miter; stroke-linecap: square"/>
   </g>
   <g id="patch_4">
    <path d="M 927.776 301.139691 
L 927.776 7.379691 
" style="fill: none; stroke: #899ab8; stroke-width: 1.12; stroke-linejoin: miter; stroke-linecap: square"/>
   </g>
   <g id="patch_5">
    <path d="M 34.976 301.139691 
L 927.776 301.139691 
" style="fill: none; stroke: #899ab8; stroke-width: 1.12; stroke-linejoin: miter; stroke-linecap: square"/>
   </g>
   <g id="patch_6">
    <path d="M 34.976 7.379691 
L 927.776 7.379691 
" style="fill: none; stroke: #899ab8; stroke-width: 1.12; stroke-linejoin: miter; stroke-linecap: square"/>
   </g>
   <g id="text_14">
    <!-- 66063.56 -->
    <g style="fill: #83a83b" transform="translate(216.778038 20.732418)scale(0.132 -0.132)">
     <defs>
      <path id="DejaVuSans-2e" d="M 684 794 
L 1344 794 
L 1344 0 
L 684 0 
L 684 794 
z
" transform="scale(0.015625)"/>
     </defs>
     <use xlink:href="#DejaVuSans-36"/>
     <use xlink:href="#DejaVuSans-36" x="63.623047"/>
     <use xlink:href="#DejaVuSans-30" x="127.246094"/>
     <use xlink:href="#DejaVuSans-36" x="190.869141"/>
     <use xlink:href="#DejaVuSans-33" x="254.492188"/>
     <use xlink:href="#DejaVuSans-2e" x="318.115234"/>
     <use xlink:href="#DejaVuSans-35" x="349.902344"/>
     <use xlink:href="#DejaVuSans-36" x="413.525391"/>
    </g>
   </g>
   <g id="text_15">
    <!-- 36480.85 -->
    <g style="fill: #c44e52" transform="translate(216.778038 33.259846)scale(0.132 -0.132)">
     <use xlink:href="#DejaVuSans-33"/>
     <use xlink:href="#DejaVuSans-36" x="63.623047"/>
     <use xlink:href="#DejaVuSans-34" x="127.246094"/>
     <use xlink:href="#DejaVuSans-38" x="190.869141"/>
     <use xlink:href="#DejaVuSans-30" x="254.492188"/>
     <use xlink:href="#DejaVuSans-2e" x="318.115234"/>
     <use xlink:href="#DejaVuSans-38" x="349.902344"/>
     <use xlink:href="#DejaVuSans-35" x="413.525391"/>
    </g>
   </g>
   <g id="legend_1">
    <g id="patch_7">
     <path d="M 432.207453 294.839691 
L 530.544547 294.839691 
Q 533.064547 294.839691 533.064547 292.319691 
L 533.064547 237.745941 
Q 533.064547 235.225941 530.544547 235.225941 
L 432.207453 235.225941 
Q 429.687453 235.225941 429.687453 237.745941 
L 429.687453 292.319691 
Q 429.687453 294.839691 432.207453 294.839691 
z
" style="fill: #373e4b; opacity: 0.8; stroke: #cccccc; stroke-width: 0.16; stroke-linejoin: miter"/>
    </g>
    <g id="line2d_78">
     <path d="M 434.727453 245.429972 
L 434.727453 245.429972 
L 447.327453 245.429972 
L 447.327453 245.429972 
L 459.927453 245.429972 
" style="fill: none; stroke: #3572c6; stroke-width: 1.2; stroke-linecap: square"/>
    </g>
    <g id="text_16">
     <!-- USD/BTC -->
     <g style="fill: #b1bed6" transform="translate(470.007453 249.839972)scale(0.126 -0.126)">
      <defs>
       <path id="DejaVuSans-55" d="M 556 4666 
L 1191 4666 
L 1191 1831 
Q 1191 1081 1462 751 
Q 1734 422 2344 422 
Q 2950 422 3222 751 
Q 3494 1081 3494 1831 
L 3494 4666 
L 4128 4666 
L 4128 1753 
Q 4128 841 3676 375 
Q 3225 -91 2344 -91 
Q 1459 -91 1007 375 
Q 556 841 556 1753 
L 556 4666 
z
" transform="scale(0.015625)"/>
       <path id="DejaVuSans-53" d="M 3425 4513 
L 3425 3897 
Q 3066 4069 2747 4153 
Q 2428 4238 2131 4238 
Q 1616 4238 1336 4038 
Q 1056 3838 1056 3469 
Q 1056 3159 1242 3001 
Q 1428 2844 1947 2747 
L 2328 2669 
Q 3034 2534 3370 2195 
Q 3706 1856 3706 1288 
Q 3706 609 3251 259 
Q 2797 -91 1919 -91 
Q 1588 -91 1214 -16 
Q 841 59 441 206 
L 441 856 
Q 825 641 1194 531 
Q 1563 422 1919 422 
Q 2459 422 2753 634 
Q 3047 847 3047 1241 
Q 3047 1584 2836 1778 
Q 2625 1972 2144 2069 
L 1759 2144 
Q 1053 2284 737 2584 
Q 422 2884 422 3419 
Q 422 4038 858 4394 
Q 1294 4750 2059 4750 
Q 2388 4750 2728 4690 
Q 3069 4631 3425 4513 
z
" transform="scale(0.015625)"/>
       <path id="DejaVuSans-2f" d="M 1625 4666 
L 2156 4666 
L 531 -594 
L 0 -594 
L 1625 4666 
z
" transform="scale(0.015625)"/>
       <path id="DejaVuSans-42" d="M 1259 2228 
L 1259 519 
L 2272 519 
Q 2781 519 3026 730 
Q 3272 941 3272 1375 
Q 3272 1813 3026 2020 
Q 2781 2228 2272 2228 
L 1259 2228 
z
M 1259 4147 
L 1259 2741 
L 2194 2741 
Q 2656 2741 2882 2914 
Q 3109 3088 3109 3444 
Q 3109 3797 2882 3972 
Q 2656 4147 2194 4147 
L 1259 4147 
z
M 628 4666 
L 2241 4666 
Q 2963 4666 3353 4366 
Q 3744 4066 3744 3513 
Q 3744 3084 3544 2831 
Q 3344 2578 2956 2516 
Q 3422 2416 3680 2098 
Q 3938 1781 3938 1306 
Q 3938 681 3513 340 
Q 3088 0 2303 0 
L 628 0 
L 628 4666 
z
" transform="scale(0.015625)"/>
       <path id="DejaVuSans-54" d="M -19 4666 
L 3928 4666 
L 3928 4134 
L 2272 4134 
L 2272 0 
L 1638 0 
L 1638 4134 
L -19 4134 
L -19 4666 
z
" transform="scale(0.015625)"/>
       <path id="DejaVuSans-43" d="M 4122 4306 
L 4122 3641 
Q 3803 3938 3442 4084 
Q 3081 4231 2675 4231 
Q 1875 4231 1450 3742 
Q 1025 3253 1025 2328 
Q 1025 1406 1450 917 
Q 1875 428 2675 428 
Q 3081 428 3442 575 
Q 3803 722 4122 1019 
L 4122 359 
Q 3791 134 3420 21 
Q 3050 -91 2638 -91 
Q 1578 -91 968 557 
Q 359 1206 359 2328 
Q 359 3453 968 4101 
Q 1578 4750 2638 4750 
Q 3056 4750 3426 4639 
Q 3797 4528 4122 4306 
z
" transform="scale(0.015625)"/>
      </defs>
      <use xlink:href="#DejaVuSans-55"/>
      <use xlink:href="#DejaVuSans-53" x="73.193359"/>
      <use xlink:href="#DejaVuSans-44" x="136.669922"/>
      <use xlink:href="#DejaVuSans-2f" x="213.671875"/>
      <use xlink:href="#DejaVuSans-42" x="247.363281"/>
      <use xlink:href="#DejaVuSans-54" x="315.966797"/>
      <use xlink:href="#DejaVuSans-43" x="371.175781"/>
     </g>
    </g>
    <g id="line2d_79">
     <path d="M 434.727453 263.92441 
L 434.727453 263.92441 
L 447.327453 263.92441 
L 447.327453 263.92441 
L 459.927453 263.92441 
" style="fill: none; stroke: #83a83b; stroke-width: 1.2; stroke-linecap: square"/>
    </g>
    <g id="text_17">
     <!-- Max -->
     <g style="fill: #b1bed6" transform="translate(470.007453 268.33441)scale(0.126 -0.126)">
      <defs>
       <path id="DejaVuSans-4d" d="M 628 4666 
L 1569 4666 
L 2759 1491 
L 3956 4666 
L 4897 4666 
L 4897 0 
L 4281 0 
L 4281 4097 
L 3078 897 
L 2444 897 
L 1241 4097 
L 1241 0 
L 628 0 
L 628 4666 
z
" transform="scale(0.015625)"/>
       <path id="DejaVuSans-78" d="M 3513 3500 
L 2247 1797 
L 3578 0 
L 2900 0 
L 1881 1375 
L 863 0 
L 184 0 
L 1544 1831 
L 300 3500 
L 978 3500 
L 1906 2253 
L 2834 3500 
L 3513 3500 
z
" transform="scale(0.015625)"/>
      </defs>
      <use xlink:href="#DejaVuSans-4d"/>
      <use xlink:href="#DejaVuSans-61" x="86.279297"/>
      <use xlink:href="#DejaVuSans-78" x="147.558594"/>
     </g>
    </g>
    <g id="line2d_80">
     <path d="M 434.727453 282.418847 
L 434.727453 282.418847 
L 447.327453 282.418847 
L 447.327453 282.418847 
L 459.927453 282.418847 
" style="fill: none; stroke: #c44e52; stroke-width: 1.2; stroke-linecap: square"/>
    </g>
    <g id="text_18">
     <!-- local_Min -->
     <g style="fill: #b1bed6" transform="translate(470.007453 286.828847)scale(0.126 -0.126)">
      <defs>
       <path id="DejaVuSans-6c" d="M 603 4863 
L 1178 4863 
L 1178 0 
L 603 0 
L 603 4863 
z
" transform="scale(0.015625)"/>
       <path id="DejaVuSans-6f" d="M 1959 3097 
Q 1497 3097 1228 2736 
Q 959 2375 959 1747 
Q 959 1119 1226 758 
Q 1494 397 1959 397 
Q 2419 397 2687 759 
Q 2956 1122 2956 1747 
Q 2956 2369 2687 2733 
Q 2419 3097 1959 3097 
z
M 1959 3584 
Q 2709 3584 3137 3096 
Q 3566 2609 3566 1747 
Q 3566 888 3137 398 
Q 2709 -91 1959 -91 
Q 1206 -91 779 398 
Q 353 888 353 1747 
Q 353 2609 779 3096 
Q 1206 3584 1959 3584 
z
" transform="scale(0.015625)"/>
       <path id="DejaVuSans-63" d="M 3122 3366 
L 3122 2828 
Q 2878 2963 2633 3030 
Q 2388 3097 2138 3097 
Q 1578 3097 1268 2742 
Q 959 2388 959 1747 
Q 959 1106 1268 751 
Q 1578 397 2138 397 
Q 2388 397 2633 464 
Q 2878 531 3122 666 
L 3122 134 
Q 2881 22 2623 -34 
Q 2366 -91 2075 -91 
Q 1284 -91 818 406 
Q 353 903 353 1747 
Q 353 2603 823 3093 
Q 1294 3584 2113 3584 
Q 2378 3584 2631 3529 
Q 2884 3475 3122 3366 
z
" transform="scale(0.015625)"/>
       <path id="DejaVuSans-5f" d="M 3263 -1063 
L 3263 -1509 
L -63 -1509 
L -63 -1063 
L 3263 -1063 
z
" transform="scale(0.015625)"/>
       <path id="DejaVuSans-69" d="M 603 3500 
L 1178 3500 
L 1178 0 
L 603 0 
L 603 3500 
z
M 603 4863 
L 1178 4863 
L 1178 4134 
L 603 4134 
L 603 4863 
z
" transform="scale(0.015625)"/>
       <path id="DejaVuSans-6e" d="M 3513 2113 
L 3513 0 
L 2938 0 
L 2938 2094 
Q 2938 2591 2744 2837 
Q 2550 3084 2163 3084 
Q 1697 3084 1428 2787 
Q 1159 2491 1159 1978 
L 1159 0 
L 581 0 
L 581 3500 
L 1159 3500 
L 1159 2956 
Q 1366 3272 1645 3428 
Q 1925 3584 2291 3584 
Q 2894 3584 3203 3211 
Q 3513 2838 3513 2113 
z
" transform="scale(0.015625)"/>
      </defs>
      <use xlink:href="#DejaVuSans-6c"/>
      <use xlink:href="#DejaVuSans-6f" x="27.783203"/>
      <use xlink:href="#DejaVuSans-63" x="88.964844"/>
      <use xlink:href="#DejaVuSans-61" x="143.945312"/>
      <use xlink:href="#DejaVuSans-6c" x="205.224609"/>
      <use xlink:href="#DejaVuSans-5f" x="233.007812"/>
      <use xlink:href="#DejaVuSans-4d" x="283.007812"/>
      <use xlink:href="#DejaVuSans-69" x="369.287109"/>
      <use xlink:href="#DejaVuSans-6e" x="397.070312"/>
     </g>
    </g>
   </g>
  </g>
 </g>
 <defs>
  <clipPath id="pe6c5a36c80">
   <rect x="34.976" y="7.379691" width="892.8" height="293.76"/>
  </clipPath>
 </defs>
</svg>
