<?xml version="1.0" encoding="utf-8" standalone="no"?>
<!DOCTYPE svg PUBLIC "-//W3C//DTD SVG 1.1//EN"
  "http://www.w3.org/Graphics/SVG/1.1/DTD/svg11.dtd">
<svg xmlns:xlink="http://www.w3.org/1999/xlink" width="934.976pt" height="358.290693pt" viewBox="0 0 934.976 358.290693" xmlns="http://www.w3.org/2000/svg" version="1.1">
 <metadata>
  <rdf:RDF xmlns:dc="http://purl.org/dc/elements/1.1/" xmlns:cc="http://creativecommons.org/ns#" xmlns:rdf="http://www.w3.org/1999/02/22-rdf-syntax-ns#">
   <cc:Work>
    <dc:type rdf:resource="http://purl.org/dc/dcmitype/StillImage"/>
    <dc:date>2025-01-25T01:04:47.864430</dc:date>
    <dc:format>image/svg+xml</dc:format>
    <dc:creator>
     <cc:Agent>
      <dc:title>Matplotlib v3.10.0, https://matplotlib.org/</dc:title>
     </cc:Agent>
    </dc:creator>
   </cc:Work>
  </rdf:RDF>
 </metadata>
 <defs>
  <style type="text/css">*{stroke-linejoin: round; stroke-linecap: butt}</style>
 </defs>
 <g id="figure_1">
  <g id="patch_1">
   <path d="M 0 358.290693 
L 934.976 358.290693 
L 934.976 0 
L 0 0 
z
" style="fill: #373e4b"/>
  </g>
  <g id="axes_1">
   <g id="patch_2">
    <path d="M 34.976 300.96 
L 927.776 300.96 
L 927.776 7.2 
L 34.976 7.2 
z
" style="fill: #373e4b"/>
   </g>
   <g id="matplotlib.axis_1">
    <g id="xtick_1">
     <g id="line2d_1">
      <path d="M 141.918434 300.96 
L 141.918434 7.2 
" clip-path="url(#p49f131f8ad)" style="fill: none; stroke: #546379; stroke-width: 1.12; stroke-linecap: square"/>
     </g>
     <g id="line2d_2"/>
     <g id="text_1">
      <!-- 2012 -->
      <g style="fill: #b1bed6" transform="translate(112.837395 330.884854) rotate(-30) scale(0.126 -0.126)">
       <defs>
        <path id="DejaVuSans-32" d="M 1228 531 
L 3431 531 
L 3431 0 
L 469 0 
L 469 531 
Q 828 903 1448 1529 
Q 2069 2156 2228 2338 
Q 2531 2678 2651 2914 
Q 2772 3150 2772 3378 
Q 2772 3750 2511 3984 
Q 2250 4219 1831 4219 
Q 1534 4219 1204 4116 
Q 875 4013 500 3803 
L 500 4441 
Q 881 4594 1212 4672 
Q 1544 4750 1819 4750 
Q 2544 4750 2975 4387 
Q 3406 4025 3406 3419 
Q 3406 3131 3298 2873 
Q 3191 2616 2906 2266 
Q 2828 2175 2409 1742 
Q 1991 1309 1228 531 
z
" transform="scale(0.015625)"/>
        <path id="DejaVuSans-30" d="M 2034 4250 
Q 1547 4250 1301 3770 
Q 1056 3291 1056 2328 
Q 1056 1369 1301 889 
Q 1547 409 2034 409 
Q 2525 409 2770 889 
Q 3016 1369 3016 2328 
Q 3016 3291 2770 3770 
Q 2525 4250 2034 4250 
z
M 2034 4750 
Q 2819 4750 3233 4129 
Q 3647 3509 3647 2328 
Q 3647 1150 3233 529 
Q 2819 -91 2034 -91 
Q 1250 -91 836 529 
Q 422 1150 422 2328 
Q 422 3509 836 4129 
Q 1250 4750 2034 4750 
z
" transform="scale(0.015625)"/>
        <path id="DejaVuSans-31" d="M 794 531 
L 1825 531 
L 1825 4091 
L 703 3866 
L 703 4441 
L 1819 4666 
L 2450 4666 
L 2450 531 
L 3481 531 
L 3481 0 
L 794 0 
L 794 531 
z
" transform="scale(0.015625)"/>
       </defs>
       <use xlink:href="#DejaVuSans-32"/>
       <use xlink:href="#DejaVuSans-30" transform="translate(63.623047 0)"/>
       <use xlink:href="#DejaVuSans-31" transform="translate(127.246094 0)"/>
       <use xlink:href="#DejaVuSans-32" transform="translate(190.869141 0)"/>
      </g>
     </g>
    </g>
    <g id="xtick_2">
     <g id="line2d_3">
      <path d="M 256.058694 300.96 
L 256.058694 7.2 
" clip-path="url(#p49f131f8ad)" style="fill: none; stroke: #546379; stroke-width: 1.12; stroke-linecap: square"/>
     </g>
     <g id="line2d_4"/>
     <g id="text_2">
      <!-- 2014 -->
      <g style="fill: #b1bed6" transform="translate(226.977654 330.884854) rotate(-30) scale(0.126 -0.126)">
       <defs>
        <path id="DejaVuSans-34" d="M 2419 4116 
L 825 1625 
L 2419 1625 
L 2419 4116 
z
M 2253 4666 
L 3047 4666 
L 3047 1625 
L 3713 1625 
L 3713 1100 
L 3047 1100 
L 3047 0 
L 2419 0 
L 2419 1100 
L 313 1100 
L 313 1709 
L 2253 4666 
z
" transform="scale(0.015625)"/>
       </defs>
       <use xlink:href="#DejaVuSans-32"/>
       <use xlink:href="#DejaVuSans-30" transform="translate(63.623047 0)"/>
       <use xlink:href="#DejaVuSans-31" transform="translate(127.246094 0)"/>
       <use xlink:href="#DejaVuSans-34" transform="translate(190.869141 0)"/>
      </g>
     </g>
    </g>
    <g id="xtick_3">
     <g id="line2d_5">
      <path d="M 370.042811 300.96 
L 370.042811 7.2 
" clip-path="url(#p49f131f8ad)" style="fill: none; stroke: #546379; stroke-width: 1.12; stroke-linecap: square"/>
     </g>
     <g id="line2d_6"/>
     <g id="text_3">
      <!-- 2016 -->
      <g style="fill: #b1bed6" transform="translate(340.961772 330.884854) rotate(-30) scale(0.126 -0.126)">
       <defs>
        <path id="DejaVuSans-36" d="M 2113 2584 
Q 1688 2584 1439 2293 
Q 1191 2003 1191 1497 
Q 1191 994 1439 701 
Q 1688 409 2113 409 
Q 2538 409 2786 701 
Q 3034 994 3034 1497 
Q 3034 2003 2786 2293 
Q 2538 2584 2113 2584 
z
M 3366 4563 
L 3366 3988 
Q 3128 4100 2886 4159 
Q 2644 4219 2406 4219 
Q 1781 4219 1451 3797 
Q 1122 3375 1075 2522 
Q 1259 2794 1537 2939 
Q 1816 3084 2150 3084 
Q 2853 3084 3261 2657 
Q 3669 2231 3669 1497 
Q 3669 778 3244 343 
Q 2819 -91 2113 -91 
Q 1303 -91 875 529 
Q 447 1150 447 2328 
Q 447 3434 972 4092 
Q 1497 4750 2381 4750 
Q 2619 4750 2861 4703 
Q 3103 4656 3366 4563 
z
" transform="scale(0.015625)"/>
       </defs>
       <use xlink:href="#DejaVuSans-32"/>
       <use xlink:href="#DejaVuSans-30" transform="translate(63.623047 0)"/>
       <use xlink:href="#DejaVuSans-31" transform="translate(127.246094 0)"/>
       <use xlink:href="#DejaVuSans-36" transform="translate(190.869141 0)"/>
      </g>
     </g>
    </g>
    <g id="xtick_4">
     <g id="line2d_7">
      <path d="M 484.183071 300.96 
L 484.183071 7.2 
" clip-path="url(#p49f131f8ad)" style="fill: none; stroke: #546379; stroke-width: 1.12; stroke-linecap: square"/>
     </g>
     <g id="line2d_8"/>
     <g id="text_4">
      <!-- 2018 -->
      <g style="fill: #b1bed6" transform="translate(455.102031 330.884854) rotate(-30) scale(0.126 -0.126)">
       <defs>
        <path id="DejaVuSans-38" d="M 2034 2216 
Q 1584 2216 1326 1975 
Q 1069 1734 1069 1313 
Q 1069 891 1326 650 
Q 1584 409 2034 409 
Q 2484 409 2743 651 
Q 3003 894 3003 1313 
Q 3003 1734 2745 1975 
Q 2488 2216 2034 2216 
z
M 1403 2484 
Q 997 2584 770 2862 
Q 544 3141 544 3541 
Q 544 4100 942 4425 
Q 1341 4750 2034 4750 
Q 2731 4750 3128 4425 
Q 3525 4100 3525 3541 
Q 3525 3141 3298 2862 
Q 3072 2584 2669 2484 
Q 3125 2378 3379 2068 
Q 3634 1759 3634 1313 
Q 3634 634 3220 271 
Q 2806 -91 2034 -91 
Q 1263 -91 848 271 
Q 434 634 434 1313 
Q 434 1759 690 2068 
Q 947 2378 1403 2484 
z
M 1172 3481 
Q 1172 3119 1398 2916 
Q 1625 2713 2034 2713 
Q 2441 2713 2670 2916 
Q 2900 3119 2900 3481 
Q 2900 3844 2670 4047 
Q 2441 4250 2034 4250 
Q 1625 4250 1398 4047 
Q 1172 3844 1172 3481 
z
" transform="scale(0.015625)"/>
       </defs>
       <use xlink:href="#DejaVuSans-32"/>
       <use xlink:href="#DejaVuSans-30" transform="translate(63.623047 0)"/>
       <use xlink:href="#DejaVuSans-31" transform="translate(127.246094 0)"/>
       <use xlink:href="#DejaVuSans-38" transform="translate(190.869141 0)"/>
      </g>
     </g>
    </g>
    <g id="xtick_5">
     <g id="line2d_9">
      <path d="M 598.167188 300.96 
L 598.167188 7.2 
" clip-path="url(#p49f131f8ad)" style="fill: none; stroke: #546379; stroke-width: 1.12; stroke-linecap: square"/>
     </g>
     <g id="line2d_10"/>
     <g id="text_5">
      <!-- 2020 -->
      <g style="fill: #b1bed6" transform="translate(569.086149 330.884854) rotate(-30) scale(0.126 -0.126)">
       <use xlink:href="#DejaVuSans-32"/>
       <use xlink:href="#DejaVuSans-30" transform="translate(63.623047 0)"/>
       <use xlink:href="#DejaVuSans-32" transform="translate(127.246094 0)"/>
       <use xlink:href="#DejaVuSans-30" transform="translate(190.869141 0)"/>
      </g>
     </g>
    </g>
    <g id="xtick_6">
     <g id="line2d_11">
      <path d="M 712.307448 300.96 
L 712.307448 7.2 
" clip-path="url(#p49f131f8ad)" style="fill: none; stroke: #546379; stroke-width: 1.12; stroke-linecap: square"/>
     </g>
     <g id="line2d_12"/>
     <g id="text_6">
      <!-- 2022 -->
      <g style="fill: #b1bed6" transform="translate(683.226409 330.884854) rotate(-30) scale(0.126 -0.126)">
       <use xlink:href="#DejaVuSans-32"/>
       <use xlink:href="#DejaVuSans-30" transform="translate(63.623047 0)"/>
       <use xlink:href="#DejaVuSans-32" transform="translate(127.246094 0)"/>
       <use xlink:href="#DejaVuSans-32" transform="translate(190.869141 0)"/>
      </g>
     </g>
    </g>
    <g id="xtick_7">
     <g id="line2d_13">
      <path d="M 826.291565 300.96 
L 826.291565 7.2 
" clip-path="url(#p49f131f8ad)" style="fill: none; stroke: #546379; stroke-width: 1.12; stroke-linecap: square"/>
     </g>
     <g id="line2d_14"/>
     <g id="text_7">
      <!-- 2024 -->
      <g style="fill: #b1bed6" transform="translate(797.210526 330.884854) rotate(-30) scale(0.126 -0.126)">
       <use xlink:href="#DejaVuSans-32"/>
       <use xlink:href="#DejaVuSans-30" transform="translate(63.623047 0)"/>
       <use xlink:href="#DejaVuSans-32" transform="translate(127.246094 0)"/>
       <use xlink:href="#DejaVuSans-34" transform="translate(190.869141 0)"/>
      </g>
     </g>
    </g>
    <g id="text_8">
     <!-- Date -->
     <g style="fill: #b1bed6" transform="translate(464.166875 348.095943) scale(0.144 -0.144)">
      <defs>
       <path id="DejaVuSans-44" d="M 1259 4147 
L 1259 519 
L 2022 519 
Q 2988 519 3436 956 
Q 3884 1394 3884 2338 
Q 3884 3275 3436 3711 
Q 2988 4147 2022 4147 
L 1259 4147 
z
M 628 4666 
L 1925 4666 
Q 3281 4666 3915 4102 
Q 4550 3538 4550 2338 
Q 4550 1131 3912 565 
Q 3275 0 1925 0 
L 628 0 
L 628 4666 
z
" transform="scale(0.015625)"/>
       <path id="DejaVuSans-61" d="M 2194 1759 
Q 1497 1759 1228 1600 
Q 959 1441 959 1056 
Q 959 750 1161 570 
Q 1363 391 1709 391 
Q 2188 391 2477 730 
Q 2766 1069 2766 1631 
L 2766 1759 
L 2194 1759 
z
M 3341 1997 
L 3341 0 
L 2766 0 
L 2766 531 
Q 2569 213 2275 61 
Q 1981 -91 1556 -91 
Q 1019 -91 701 211 
Q 384 513 384 1019 
Q 384 1609 779 1909 
Q 1175 2209 1959 2209 
L 2766 2209 
L 2766 2266 
Q 2766 2663 2505 2880 
Q 2244 3097 1772 3097 
Q 1472 3097 1187 3025 
Q 903 2953 641 2809 
L 641 3341 
Q 956 3463 1253 3523 
Q 1550 3584 1831 3584 
Q 2591 3584 2966 3190 
Q 3341 2797 3341 1997 
z
" transform="scale(0.015625)"/>
       <path id="DejaVuSans-74" d="M 1172 4494 
L 1172 3500 
L 2356 3500 
L 2356 3053 
L 1172 3053 
L 1172 1153 
Q 1172 725 1289 603 
Q 1406 481 1766 481 
L 2356 481 
L 2356 0 
L 1766 0 
Q 1100 0 847 248 
Q 594 497 594 1153 
L 594 3053 
L 172 3053 
L 172 3500 
L 594 3500 
L 594 4494 
L 1172 4494 
z
" transform="scale(0.015625)"/>
       <path id="DejaVuSans-65" d="M 3597 1894 
L 3597 1613 
L 953 1613 
Q 991 1019 1311 708 
Q 1631 397 2203 397 
Q 2534 397 2845 478 
Q 3156 559 3463 722 
L 3463 178 
Q 3153 47 2828 -22 
Q 2503 -91 2169 -91 
Q 1331 -91 842 396 
Q 353 884 353 1716 
Q 353 2575 817 3079 
Q 1281 3584 2069 3584 
Q 2775 3584 3186 3129 
Q 3597 2675 3597 1894 
z
M 3022 2063 
Q 3016 2534 2758 2815 
Q 2500 3097 2075 3097 
Q 1594 3097 1305 2825 
Q 1016 2553 972 2059 
L 3022 2063 
z
" transform="scale(0.015625)"/>
      </defs>
      <use xlink:href="#DejaVuSans-44"/>
      <use xlink:href="#DejaVuSans-61" transform="translate(77.001953 0)"/>
      <use xlink:href="#DejaVuSans-74" transform="translate(138.28125 0)"/>
      <use xlink:href="#DejaVuSans-65" transform="translate(177.490234 0)"/>
     </g>
    </g>
   </g>
   <g id="matplotlib.axis_2">
    <g id="ytick_1">
     <g id="line2d_15">
      <path d="M 34.976 255.001875 
L 927.776 255.001875 
" clip-path="url(#p49f131f8ad)" style="fill: none; stroke: #546379; stroke-width: 1.12; stroke-linecap: square"/>
     </g>
     <g id="line2d_16"/>
     <g id="text_9">
      <!-- $\mathdefault{10^{0}}$ -->
      <g style="fill: #b1bed6" transform="translate(7.2 259.788891) scale(0.126 -0.126)">
       <use xlink:href="#DejaVuSans-31" transform="translate(0 0.765625)"/>
       <use xlink:href="#DejaVuSans-30" transform="translate(63.623047 0.765625)"/>
       <use xlink:href="#DejaVuSans-30" transform="translate(128.203125 39.046875) scale(0.7)"/>
      </g>
     </g>
    </g>
    <g id="ytick_2">
     <g id="line2d_17">
      <path d="M 34.976 208.354097 
L 927.776 208.354097 
" clip-path="url(#p49f131f8ad)" style="fill: none; stroke: #546379; stroke-width: 1.12; stroke-linecap: square"/>
     </g>
     <g id="line2d_18"/>
     <g id="text_10">
      <!-- $\mathdefault{10^{1}}$ -->
      <g style="fill: #b1bed6" transform="translate(7.2 213.141113) scale(0.126 -0.126)">
       <use xlink:href="#DejaVuSans-31" transform="translate(0 0.684375)"/>
       <use xlink:href="#DejaVuSans-30" transform="translate(63.623047 0.684375)"/>
       <use xlink:href="#DejaVuSans-31" transform="translate(128.203125 38.965625) scale(0.7)"/>
      </g>
     </g>
    </g>
    <g id="ytick_3">
     <g id="line2d_19">
      <path d="M 34.976 161.706319 
L 927.776 161.706319 
" clip-path="url(#p49f131f8ad)" style="fill: none; stroke: #546379; stroke-width: 1.12; stroke-linecap: square"/>
     </g>
     <g id="line2d_20"/>
     <g id="text_11">
      <!-- $\mathdefault{10^{2}}$ -->
      <g style="fill: #b1bed6" transform="translate(7.2 166.493335) scale(0.126 -0.126)">
       <use xlink:href="#DejaVuSans-31" transform="translate(0 0.765625)"/>
       <use xlink:href="#DejaVuSans-30" transform="translate(63.623047 0.765625)"/>
       <use xlink:href="#DejaVuSans-32" transform="translate(128.203125 39.046875) scale(0.7)"/>
      </g>
     </g>
    </g>
    <g id="ytick_4">
     <g id="line2d_21">
      <path d="M 34.976 115.058541 
L 927.776 115.058541 
" clip-path="url(#p49f131f8ad)" style="fill: none; stroke: #546379; stroke-width: 1.12; stroke-linecap: square"/>
     </g>
     <g id="line2d_22"/>
     <g id="text_12">
      <!-- $\mathdefault{10^{3}}$ -->
      <g style="fill: #b1bed6" transform="translate(7.2 119.845556) scale(0.126 -0.126)">
       <defs>
        <path id="DejaVuSans-33" d="M 2597 2516 
Q 3050 2419 3304 2112 
Q 3559 1806 3559 1356 
Q 3559 666 3084 287 
Q 2609 -91 1734 -91 
Q 1441 -91 1130 -33 
Q 819 25 488 141 
L 488 750 
Q 750 597 1062 519 
Q 1375 441 1716 441 
Q 2309 441 2620 675 
Q 2931 909 2931 1356 
Q 2931 1769 2642 2001 
Q 2353 2234 1838 2234 
L 1294 2234 
L 1294 2753 
L 1863 2753 
Q 2328 2753 2575 2939 
Q 2822 3125 2822 3475 
Q 2822 3834 2567 4026 
Q 2313 4219 1838 4219 
Q 1578 4219 1281 4162 
Q 984 4106 628 3988 
L 628 4550 
Q 988 4650 1302 4700 
Q 1616 4750 1894 4750 
Q 2613 4750 3031 4423 
Q 3450 4097 3450 3541 
Q 3450 3153 3228 2886 
Q 3006 2619 2597 2516 
z
" transform="scale(0.015625)"/>
       </defs>
       <use xlink:href="#DejaVuSans-31" transform="translate(0 0.765625)"/>
       <use xlink:href="#DejaVuSans-30" transform="translate(63.623047 0.765625)"/>
       <use xlink:href="#DejaVuSans-33" transform="translate(128.203125 39.046875) scale(0.7)"/>
      </g>
     </g>
    </g>
    <g id="ytick_5">
     <g id="line2d_23">
      <path d="M 34.976 68.410763 
L 927.776 68.410763 
" clip-path="url(#p49f131f8ad)" style="fill: none; stroke: #546379; stroke-width: 1.12; stroke-linecap: square"/>
     </g>
     <g id="line2d_24"/>
     <g id="text_13">
      <!-- $\mathdefault{10^{4}}$ -->
      <g style="fill: #b1bed6" transform="translate(7.2 73.197778) scale(0.126 -0.126)">
       <use xlink:href="#DejaVuSans-31" transform="translate(0 0.684375)"/>
       <use xlink:href="#DejaVuSans-30" transform="translate(63.623047 0.684375)"/>
       <use xlink:href="#DejaVuSans-34" transform="translate(128.203125 38.965625) scale(0.7)"/>
      </g>
     </g>
    </g>
    <g id="ytick_6">
     <g id="line2d_25">
      <path d="M 34.976 21.762985 
L 927.776 21.762985 
" clip-path="url(#p49f131f8ad)" style="fill: none; stroke: #546379; stroke-width: 1.12; stroke-linecap: square"/>
     </g>
     <g id="line2d_26"/>
     <g id="text_14">
      <!-- $\mathdefault{10^{5}}$ -->
      <g style="fill: #b1bed6" transform="translate(7.2 26.55) scale(0.126 -0.126)">
       <defs>
        <path id="DejaVuSans-35" d="M 691 4666 
L 3169 4666 
L 3169 4134 
L 1269 4134 
L 1269 2991 
Q 1406 3038 1543 3061 
Q 1681 3084 1819 3084 
Q 2600 3084 3056 2656 
Q 3513 2228 3513 1497 
Q 3513 744 3044 326 
Q 2575 -91 1722 -91 
Q 1428 -91 1123 -41 
Q 819 9 494 109 
L 494 744 
Q 775 591 1075 516 
Q 1375 441 1709 441 
Q 2250 441 2565 725 
Q 2881 1009 2881 1497 
Q 2881 1984 2565 2268 
Q 2250 2553 1709 2553 
Q 1456 2553 1204 2497 
Q 953 2441 691 2322 
L 691 4666 
z
" transform="scale(0.015625)"/>
       </defs>
       <use xlink:href="#DejaVuSans-31" transform="translate(0 0.684375)"/>
       <use xlink:href="#DejaVuSans-30" transform="translate(63.623047 0.684375)"/>
       <use xlink:href="#DejaVuSans-35" transform="translate(128.203125 38.965625) scale(0.7)"/>
      </g>
     </g>
    </g>
    <g id="ytick_7">
     <g id="line2d_27"/>
    </g>
    <g id="ytick_8">
     <g id="line2d_28"/>
    </g>
    <g id="ytick_9">
     <g id="line2d_29"/>
    </g>
    <g id="ytick_10">
     <g id="line2d_30"/>
    </g>
    <g id="ytick_11">
     <g id="line2d_31"/>
    </g>
    <g id="ytick_12">
     <g id="line2d_32"/>
    </g>
    <g id="ytick_13">
     <g id="line2d_33"/>
    </g>
    <g id="ytick_14">
     <g id="line2d_34"/>
    </g>
    <g id="ytick_15">
     <g id="line2d_35"/>
    </g>
    <g id="ytick_16">
     <g id="line2d_36"/>
    </g>
    <g id="ytick_17">
     <g id="line2d_37"/>
    </g>
    <g id="ytick_18">
     <g id="line2d_38"/>
    </g>
    <g id="ytick_19">
     <g id="line2d_39"/>
    </g>
    <g id="ytick_20">
     <g id="line2d_40"/>
    </g>
    <g id="ytick_21">
     <g id="line2d_41"/>
    </g>
    <g id="ytick_22">
     <g id="line2d_42"/>
    </g>
    <g id="ytick_23">
     <g id="line2d_43"/>
    </g>
    <g id="ytick_24">
     <g id="line2d_44"/>
    </g>
    <g id="ytick_25">
     <g id="line2d_45"/>
    </g>
    <g id="ytick_26">
     <g id="line2d_46"/>
    </g>
    <g id="ytick_27">
     <g id="line2d_47"/>
    </g>
    <g id="ytick_28">
     <g id="line2d_48"/>
    </g>
    <g id="ytick_29">
     <g id="line2d_49"/>
    </g>
    <g id="ytick_30">
     <g id="line2d_50"/>
    </g>
    <g id="ytick_31">
     <g id="line2d_51"/>
    </g>
    <g id="ytick_32">
     <g id="line2d_52"/>
    </g>
    <g id="ytick_33">
     <g id="line2d_53"/>
    </g>
    <g id="ytick_34">
     <g id="line2d_54"/>
    </g>
    <g id="ytick_35">
     <g id="line2d_55"/>
    </g>
    <g id="ytick_36">
     <g id="line2d_56"/>
    </g>
    <g id="ytick_37">
     <g id="line2d_57"/>
    </g>
    <g id="ytick_38">
     <g id="line2d_58"/>
    </g>
    <g id="ytick_39">
     <g id="line2d_59"/>
    </g>
    <g id="ytick_40">
     <g id="line2d_60"/>
    </g>
    <g id="ytick_41">
     <g id="line2d_61"/>
    </g>
    <g id="ytick_42">
     <g id="line2d_62"/>
    </g>
    <g id="ytick_43">
     <g id="line2d_63"/>
    </g>
    <g id="ytick_44">
     <g id="line2d_64"/>
    </g>
    <g id="ytick_45">
     <g id="line2d_65"/>
    </g>
    <g id="ytick_46">
     <g id="line2d_66"/>
    </g>
    <g id="ytick_47">
     <g id="line2d_67"/>
    </g>
    <g id="ytick_48">
     <g id="line2d_68"/>
    </g>
    <g id="ytick_49">
     <g id="line2d_69"/>
    </g>
    <g id="ytick_50">
     <g id="line2d_70"/>
    </g>
    <g id="ytick_51">
     <g id="line2d_71"/>
    </g>
    <g id="ytick_52">
     <g id="line2d_72"/>
    </g>
    <g id="ytick_53">
     <g id="line2d_73"/>
    </g>
    <g id="ytick_54">
     <g id="line2d_74"/>
    </g>
    <g id="ytick_55">
     <g id="line2d_75"/>
    </g>
   </g>
   <g id="line2d_76">
    <path d="M 75.557818 287.607273 
L 75.557818 283.086636 
L 76.182389 283.086636 
L 76.182389 278.085529 
L 76.806959 278.085529 
L 76.806959 279.393007 
L 77.43153 279.393007 
L 77.43153 280.790725 
L 78.0561 280.790725 
L 78.0561 280.079814 
L 78.680671 280.079814 
L 78.680671 280.790725 
L 79.929812 280.790725 
L 79.929812 282.292069 
L 80.554382 282.292069 
L 80.554382 284.775853 
L 81.803523 284.775853 
L 81.803523 283.086636 
L 82.428094 283.086636 
L 82.428094 282.292069 
L 83.052664 282.292069 
L 83.052664 283.086636 
L 83.677235 283.086636 
L 83.677235 281.527492 
L 84.301805 281.527492 
L 84.301805 279.393007 
L 85.550946 279.393007 
L 85.550946 278.085529 
L 86.175517 278.085529 
L 86.175517 275.699378 
L 86.800087 275.699378 
L 86.800087 273.564892 
L 87.424658 273.564892 
L 87.424658 274.604037 
L 88.049228 274.604037 
L 88.049228 271.634015 
L 88.673799 271.634015 
L 88.673799 271.178741 
L 89.298369 271.178741 
L 89.298369 256.691092 
L 90.54751 256.691092 
L 90.54751 255.618944 
L 91.172081 255.618944 
L 91.172081 253.442731 
L 91.796651 253.442731 
L 91.796651 254.013441 
L 92.421222 254.013441 
L 92.421222 257.591635 
L 93.045792 257.591635 
L 93.045792 255.001875 
L 93.670363 255.001875 
L 93.670363 255.618944 
L 94.294933 255.618944 
L 94.294933 256.691092 
L 94.919504 256.691092 
L 94.919504 257.591635 
L 95.544074 257.591635 
L 95.544074 256.912503 
L 96.168645 256.912503 
L 96.168645 257.823168 
L 96.793215 257.823168 
L 96.793215 259.777344 
L 97.417786 259.777344 
L 97.417786 257.362719 
L 98.042356 257.362719 
L 98.042356 259.522512 
L 99.291497 259.522512 
L 99.291497 260.82999 
L 99.916068 260.82999 
L 99.916068 260.561656 
L 100.540638 260.561656 
L 100.540638 255.411159 
L 101.165209 255.411159 
L 101.165209 251.308246 
L 101.789779 251.308246 
L 101.789779 248.476826 
L 102.41435 248.476826 
L 102.41435 243.320338 
L 103.03892 243.320338 
L 103.03892 226.22018 
L 103.663491 226.22018 
L 103.663491 229.277958 
L 104.288061 229.277958 
L 104.288061 227.378145 
L 104.912632 227.378145 
L 104.912632 216.926032 
L 105.537202 216.926032 
L 105.537202 211.718176 
L 106.161773 211.718176 
L 106.161773 215.637895 
L 106.786343 215.637895 
L 106.786343 214.813209 
L 107.410914 214.813209 
L 107.410914 211.222015 
L 108.035484 211.222015 
L 108.035484 209.03392 
L 108.660055 209.03392 
L 108.660055 195.297618 
L 109.284625 195.297618 
L 109.284625 184.575858 
L 109.909196 184.575858 
L 109.909196 190.90714 
L 110.533766 190.90714 
L 110.533766 195.489951 
L 111.158337 195.489951 
L 111.158337 199.619831 
L 111.782907 199.619831 
L 111.782907 196.924511 
L 112.407478 196.924511 
L 112.407478 197.191308 
L 113.032048 197.191308 
L 113.032048 199.164264 
L 113.656619 199.164264 
L 113.656619 198.706129 
L 114.28119 198.706129 
L 114.28119 200.04551 
L 114.90576 200.04551 
L 114.90576 201.178975 
L 115.530331 201.178975 
L 115.530331 200.770829 
L 116.154901 200.770829 
L 116.154901 201.639097 
L 116.779472 201.639097 
L 116.779472 201.393357 
L 117.404042 201.393357 
L 117.404042 200.715172 
L 118.028613 200.715172 
L 118.028613 205.522678 
L 118.653183 205.522678 
L 118.653183 209.054881 
L 119.277754 209.054881 
L 119.277754 208.496408 
L 119.902324 208.496408 
L 119.902324 205.770821 
L 120.526895 205.770821 
L 120.526895 205.086986 
L 121.151465 205.086986 
L 121.151465 205.878106 
L 121.776036 205.878106 
L 121.776036 209.435937 
L 122.400606 209.435937 
L 122.400606 211.742108 
L 123.025177 211.742108 
L 123.025177 212.202282 
L 123.649747 212.202282 
L 123.649747 216.286706 
L 124.274318 216.286706 
L 124.274318 218.071265 
L 124.898888 218.071265 
L 124.898888 222.315604 
L 125.523459 222.315604 
L 125.523459 218.10402 
L 126.148029 218.10402 
L 126.148029 220.502468 
L 126.7726 220.502468 
L 126.7726 222.641054 
L 127.39717 222.641054 
L 127.39717 222.154818 
L 128.021741 222.154818 
L 128.021741 223.265735 
L 128.646311 223.265735 
L 128.646311 226.122547 
L 129.270882 226.122547 
L 129.270882 226.86653 
L 129.895452 226.86653 
L 129.895452 235.722359 
L 130.520023 235.722359 
L 130.520023 230.691941 
L 131.144593 230.691941 
L 131.144593 232.080944 
L 131.769164 232.080944 
L 131.769164 230.329086 
L 132.393734 230.329086 
L 132.393734 231.311527 
L 133.018305 231.311527 
L 133.018305 231.501159 
L 133.642875 231.501159 
L 133.642875 232.015698 
L 134.267446 232.015698 
L 134.267446 235.64429 
L 134.892016 235.64429 
L 134.892016 236.848142 
L 135.516587 236.848142 
L 135.516587 236.601581 
L 136.141157 236.601581 
L 136.141157 235.334989 
L 136.765728 235.334989 
L 136.765728 231.821211 
L 137.390298 231.821211 
L 137.390298 232.34405 
L 138.014869 232.34405 
L 138.014869 231.950661 
L 138.639439 231.950661 
L 138.639439 231.061414 
L 139.26401 231.061414 
L 139.26401 230.449317 
L 139.88858 230.449317 
L 139.88858 227.018663 
L 140.513151 227.018663 
L 140.513151 225.688928 
L 141.137721 225.688928 
L 141.137721 224.666474 
L 141.762292 224.666474 
L 141.762292 220.950197 
L 142.386862 220.950197 
L 142.386862 215.407022 
L 143.011433 215.407022 
L 143.011433 215.292565 
L 143.636003 215.292565 
L 143.636003 215.464494 
L 144.260574 215.464494 
L 144.260574 217.490557 
L 144.885144 217.490557 
L 144.885144 217.174992 
L 145.509715 217.174992 
L 145.509715 219.741993 
L 146.134285 219.741993 
L 146.134285 219.920486 
L 146.758856 219.920486 
L 146.758856 218.736641 
L 147.383426 218.736641 
L 147.383426 219.250419 
L 148.632567 219.319917 
L 148.632567 223.478317 
L 149.257138 223.478317 
L 149.257138 224.530963 
L 149.881708 224.530963 
L 149.881708 221.719127 
L 150.506279 221.719127 
L 150.506279 222.477675 
L 151.130849 222.477675 
L 151.130849 223.181323 
L 151.75542 223.181323 
L 151.75542 222.194895 
L 152.37999 222.194895 
L 152.37999 222.477675 
L 153.004561 222.477675 
L 153.004561 220.687821 
L 153.629131 220.687821 
L 153.629131 221.485368 
L 154.253702 221.485368 
L 154.253702 223.181323 
L 154.878272 223.181323 
L 154.878272 223.3505 
L 155.502843 223.3505 
L 155.502843 222.641054 
L 156.751984 222.5592 
L 156.751984 223.223485 
L 157.376554 223.223485 
L 157.376554 222.518397 
L 158.625695 222.437036 
L 158.625695 221.446669 
L 159.250266 221.446669 
L 159.250266 221.640907 
L 159.874836 221.640907 
L 159.874836 222.035061 
L 160.499407 222.035061 
L 160.499407 221.679979 
L 161.123977 221.679979 
L 161.123977 221.995299 
L 162.373118 221.995299 
L 162.373118 222.194895 
L 162.997689 222.194895 
L 162.997689 221.876478 
L 164.8714 221.797649 
L 164.8714 221.679979 
L 165.495971 221.679979 
L 165.495971 221.331014 
L 166.120541 221.331014 
L 166.120541 220.245792 
L 167.369682 220.173049 
L 167.369682 217.811116 
L 167.994253 217.811116 
L 167.994253 216.895126 
L 168.618823 216.895126 
L 168.618823 216.649561 
L 169.243394 216.649561 
L 169.243394 216.833455 
L 169.867964 216.833455 
L 169.867964 216.437106 
L 170.492535 216.437106 
L 170.492535 216.286706 
L 171.117105 216.286706 
L 171.117105 215.637895 
L 171.741676 215.637895 
L 171.741676 213.258194 
L 172.366246 213.258194 
L 172.366246 209.457318 
L 172.990817 209.457318 
L 172.990817 209.329367 
L 173.615388 209.329367 
L 173.615388 210.943857 
L 174.239958 210.943857 
L 174.239958 210.601445 
L 174.864529 210.601445 
L 174.864529 208.112438 
L 175.489099 208.112438 
L 175.489099 206.003993 
L 176.11367 206.003993 
L 176.11367 205.347275 
L 176.73824 205.347275 
L 176.73824 204.160223 
L 177.362811 204.160223 
L 177.362811 200.854601 
L 177.987381 200.854601 
L 177.987381 207.834097 
L 178.611952 207.834097 
L 178.611952 206.441646 
L 179.236522 206.441646 
L 179.236522 206.589656 
L 179.861093 206.589656 
L 179.861093 207.327112 
L 180.485663 207.327112 
L 180.485663 205.931962 
L 181.734804 205.985961 
L 181.734804 204.932403 
L 182.359375 204.932403 
L 182.359375 203.623856 
L 182.983945 203.623856 
L 182.983945 204.193191 
L 183.608516 204.193191 
L 183.608516 203.898393 
L 184.233086 203.898393 
L 184.233086 203.704217 
L 184.857657 203.704217 
L 184.857657 203.085698 
L 185.482227 203.085698 
L 185.482227 204.160223 
L 186.106798 204.160223 
L 186.106798 204.492343 
L 186.731368 204.492343 
L 186.731368 204.694261 
L 187.355939 204.694261 
L 187.355939 205.000961 
L 187.980509 205.000961 
L 187.980509 205.417254 
L 188.60508 205.417254 
L 188.60508 206.552552 
L 189.22965 206.552552 
L 189.22965 206.313018 
L 189.854221 206.313018 
L 189.854221 206.478547 
L 191.103362 206.515516 
L 191.103362 206.294709 
L 191.727932 206.294709 
L 191.727932 204.966653 
L 192.352503 204.966653 
L 192.352503 204.127309 
L 192.977073 204.127309 
L 192.977073 203.639903 
L 194.226214 203.575792 
L 194.226214 202.899122 
L 194.850785 202.899122 
L 194.850785 202.199422 
L 195.475355 202.199422 
L 195.475355 201.829048 
L 196.099926 201.829048 
L 196.099926 202.080164 
L 197.349067 201.976386 
L 197.349067 202.349488 
L 197.973637 202.349488 
L 197.973637 202.050459 
L 198.598208 202.050459 
L 198.598208 202.244325 
L 199.847349 202.214379 
L 199.847349 201.552025 
L 200.471919 201.552025 
L 200.471919 201.093854 
L 201.09649 201.093854 
L 201.09649 199.436373 
L 201.72106 199.436373 
L 201.72106 197.449835 
L 202.345631 197.449835 
L 202.345631 195.847374 
L 202.970201 195.847374 
L 202.970201 194.535799 
L 203.594772 194.535799 
L 203.594772 193.323283 
L 204.219342 193.323283 
L 204.219342 192.818333 
L 204.843913 192.818333 
L 204.843913 190.643427 
L 205.468483 190.643427 
L 205.468483 188.082423 
L 206.093054 188.082423 
L 206.093054 188.246948 
L 206.717624 188.246948 
L 206.717624 185.749305 
L 207.342195 185.749305 
L 207.342195 185.302883 
L 207.966765 185.302883 
L 207.966765 183.413369 
L 208.591336 183.413369 
L 208.591336 179.280902 
L 209.215906 179.280902 
L 209.215906 177.614851 
L 209.840477 177.614851 
L 209.840477 177.062661 
L 210.465047 177.062661 
L 210.465047 174.907435 
L 211.089618 174.907435 
L 211.089618 168.859927 
L 211.714188 168.859927 
L 211.714188 166.535712 
L 212.338759 166.535712 
L 212.338759 163.285732 
L 212.963329 163.285732 
L 212.963329 156.235874 
L 213.5879 156.235874 
L 213.5879 151.770987 
L 214.21247 151.770987 
L 214.21247 157.201896 
L 214.837041 157.201896 
L 214.837041 169.489635 
L 215.461611 169.489635 
L 215.461611 158.195845 
L 216.086182 158.195845 
L 216.086182 154.531197 
L 216.710752 154.531197 
L 216.710752 156.62623 
L 217.335323 156.62623 
L 217.335323 158.5256 
L 217.959893 158.5256 
L 217.959893 158.70299 
L 218.584464 158.70299 
L 218.584464 159.285981 
L 219.209034 159.285981 
L 219.209034 158.3549 
L 219.833605 158.3549 
L 219.833605 157.459808 
L 221.082746 157.561917 
L 221.082746 156.083348 
L 222.331887 156.035822 
L 222.331887 157.608201 
L 222.956457 157.608201 
L 222.956457 158.187329 
L 223.581028 158.187329 
L 223.581028 160.506753 
L 224.205598 160.506753 
L 224.205598 161.710371 
L 224.830169 161.710371 
L 224.830169 160.261924 
L 225.454739 160.261924 
L 225.454739 160.081627 
L 226.07931 160.081627 
L 226.07931 160.911751 
L 226.70388 160.911751 
L 226.70388 162.271242 
L 227.328451 162.271242 
L 227.328451 166.216829 
L 227.953021 166.216829 
L 227.953021 167.135903 
L 228.577592 167.135903 
L 228.577592 162.962 
L 229.202162 162.962 
L 229.202162 162.312948 
L 229.826733 162.312948 
L 229.826733 163.978582 
L 230.451303 163.978582 
L 230.451303 162.850227 
L 231.075874 162.850227 
L 231.075874 161.971411 
L 231.700444 161.971411 
L 231.700444 160.791336 
L 232.325015 160.791336 
L 232.325015 160.388714 
L 232.949586 160.388714 
L 232.949586 161.146867 
L 233.574156 161.146867 
L 233.574156 159.895509 
L 234.198727 159.895509 
L 234.198727 161.765155 
L 234.823297 161.765155 
L 234.823297 159.696403 
L 235.447868 159.696403 
L 235.447868 159.180191 
L 236.072438 159.180191 
L 236.072438 158.267522 
L 236.697009 158.267522 
L 236.697009 156.377094 
L 237.321579 156.377094 
L 237.321579 158.420251 
L 237.94615 158.420251 
L 237.94615 157.674504 
L 238.57072 157.674504 
L 238.57072 157.340238 
L 239.195291 157.340238 
L 239.195291 156.844973 
L 239.819861 156.844973 
L 239.819861 157.523978 
L 240.444432 157.523978 
L 240.444432 157.242487 
L 241.069002 157.242487 
L 241.069002 156.9841 
L 241.693573 156.9841 
L 241.693573 157.68779 
L 242.318143 157.68779 
L 242.318143 157.328809 
L 242.942714 157.328809 
L 242.942714 156.770208 
L 243.567284 156.770208 
L 243.567284 155.153397 
L 244.191855 155.153397 
L 244.191855 149.121073 
L 244.816425 149.121073 
L 244.816425 148.142593 
L 245.440996 148.142593 
L 245.440996 146.976794 
L 246.065566 146.976794 
L 246.065566 147.362312 
L 246.690137 147.362312 
L 246.690137 142.934499 
L 247.314707 142.934499 
L 247.314707 137.518796 
L 247.939278 137.518796 
L 247.939278 133.979227 
L 248.563848 133.979227 
L 248.563848 130.140066 
L 249.188419 130.140066 
L 249.188419 121.804751 
L 249.812989 121.804751 
L 249.812989 119.213781 
L 250.43756 119.213781 
L 250.43756 112.511856 
L 251.06213 112.511856 
L 251.06213 114.066056 
L 251.686701 114.066056 
L 251.686701 122.114048 
L 252.311271 122.114048 
L 252.311271 117.720255 
L 252.935842 117.720255 
L 252.935842 118.043964 
L 253.560412 118.043964 
L 253.560412 122.71434 
L 254.184983 122.71434 
L 254.184983 123.476722 
L 254.809553 123.476722 
L 254.809553 121.601985 
L 255.434124 121.601985 
L 255.434124 121.378798 
L 256.058694 121.378798 
L 256.058694 118.864146 
L 256.683265 118.864146 
L 256.683265 118.997567 
L 257.307835 118.997567 
L 257.307835 118.493542 
L 257.932406 118.493542 
L 257.932406 119.149468 
L 258.556976 119.149468 
L 258.556976 118.886893 
L 259.181547 118.886893 
L 259.181547 120.091568 
L 259.806117 120.091568 
L 259.806117 119.947159 
L 260.430688 119.947159 
L 260.430688 119.151203 
L 261.055258 119.151203 
L 261.055258 120.066132 
L 261.679829 120.066132 
L 261.679829 122.653239 
L 262.304399 122.653239 
L 262.304399 125.072427 
L 262.92897 125.072427 
L 262.92897 124.420145 
L 263.55354 124.420145 
L 263.55354 126.111571 
L 264.178111 126.111571 
L 264.178111 126.822382 
L 264.802681 126.822382 
L 264.802681 126.5362 
L 265.427252 126.5362 
L 265.427252 123.15061 
L 266.051822 123.15061 
L 266.051822 124.10298 
L 267.300963 124.067869 
L 267.300963 124.589687 
L 267.925534 124.589687 
L 267.925534 126.34398 
L 268.550104 126.34398 
L 268.550104 125.892863 
L 269.174675 125.892863 
L 269.174675 129.510205 
L 269.799245 129.510205 
L 269.799245 131.73124 
L 270.423816 131.73124 
L 270.423816 130.878413 
L 271.048386 130.878413 
L 271.048386 135.255799 
L 271.672957 135.255799 
L 271.672957 130.806 
L 272.297527 130.806 
L 272.297527 129.839069 
L 272.922098 129.839069 
L 272.922098 129.571488 
L 273.546668 129.571488 
L 273.546668 130.725063 
L 274.171239 130.725063 
L 274.171239 131.144222 
L 274.795809 131.144222 
L 274.795809 131.840876 
L 276.04495 131.801024 
L 276.04495 131.578189 
L 276.669521 131.578189 
L 276.669521 131.275063 
L 277.294091 131.275063 
L 277.294091 129.588083 
L 277.918662 129.588083 
L 277.918662 128.000506 
L 278.543232 128.000506 
L 278.543232 126.0592 
L 279.167803 126.0592 
L 279.167803 124.39604 
L 279.792373 124.39604 
L 279.792373 123.431037 
L 280.416944 123.431037 
L 280.416944 123.82284 
L 281.041514 123.82284 
L 281.041514 125.694633 
L 281.666085 125.694633 
L 281.666085 125.138959 
L 282.290655 125.138959 
L 282.290655 125.714848 
L 282.915226 125.714848 
L 282.915226 126.777534 
L 283.539796 126.777534 
L 283.539796 125.40763 
L 284.164367 125.40763 
L 284.164367 123.931167 
L 284.788937 123.931167 
L 284.788937 124.601365 
L 285.413508 124.601365 
L 285.413508 124.290637 
L 286.038078 124.290637 
L 286.038078 124.610452 
L 286.662649 124.610452 
L 286.662649 124.418858 
L 287.287219 124.418858 
L 287.287219 124.728962 
L 287.91179 124.728962 
L 287.91179 125.621817 
L 288.53636 125.621817 
L 288.53636 126.022969 
L 289.160931 126.022969 
L 289.160931 125.799356 
L 290.410072 125.782839 
L 290.410072 126.481653 
L 291.034642 126.481653 
L 291.034642 128.155753 
L 291.659213 128.155753 
L 291.659213 128.352378 
L 292.283783 128.352378 
L 292.283783 128.778149 
L 293.532925 128.834854 
L 293.532925 130.082144 
L 294.157495 130.082144 
L 294.157495 129.680015 
L 294.782066 129.680015 
L 294.782066 130.210561 
L 295.406636 130.210561 
L 295.406636 130.058342 
L 296.031207 130.058342 
L 296.031207 131.060586 
L 296.655777 131.060586 
L 296.655777 133.563397 
L 297.280348 133.563397 
L 297.280348 133.111927 
L 297.904918 133.111927 
L 297.904918 134.990175 
L 298.529489 134.990175 
L 298.529489 135.81804 
L 299.154059 135.81804 
L 299.154059 137.271071 
L 299.77863 137.271071 
L 299.77863 135.646604 
L 300.4032 135.646604 
L 300.4032 133.884598 
L 301.027771 133.884598 
L 301.027771 134.163579 
L 301.652341 134.163579 
L 301.652341 135.914228 
L 302.276912 135.914228 
L 302.276912 136.274726 
L 302.901482 136.274726 
L 302.901482 137.046121 
L 303.526053 137.046121 
L 303.526053 137.504681 
L 304.150623 137.504681 
L 304.150623 136.504653 
L 304.775194 136.504653 
L 304.775194 132.623962 
L 305.399764 132.623962 
L 305.399764 134.141222 
L 306.024335 134.141222 
L 306.024335 135.955673 
L 306.648905 135.955673 
L 306.648905 134.951738 
L 307.273476 134.951738 
L 307.273476 134.82235 
L 307.898046 134.82235 
L 307.898046 134.680971 
L 308.522617 134.680971 
L 308.522617 134.926335 
L 309.147187 134.926335 
L 309.147187 136.396913 
L 309.771758 136.396913 
L 309.771758 135.880227 
L 310.396328 135.880227 
L 310.396328 138.63823 
L 311.020899 138.63823 
L 311.020899 137.397606 
L 311.645469 137.397606 
L 311.645469 137.522479 
L 312.27004 137.522479 
L 312.27004 138.720142 
L 312.89461 138.720142 
L 312.89461 140.48242 
L 313.519181 140.48242 
L 313.519181 139.585864 
L 314.143751 139.585864 
L 314.143751 141.608182 
L 314.768322 141.608182 
L 314.768322 146.655256 
L 315.392892 146.655256 
L 315.392892 146.103857 
L 316.017463 146.103857 
L 316.017463 144.508342 
L 316.642033 144.508342 
L 316.642033 142.0763 
L 317.266604 142.0763 
L 317.266604 145.802244 
L 317.891174 145.802244 
L 317.891174 145.124402 
L 318.515745 145.124402 
L 318.515745 145.374359 
L 319.140315 145.374359 
L 319.140315 145.51963 
L 319.764886 145.51963 
L 319.764886 144.439977 
L 320.389456 144.439977 
L 320.389456 143.488191 
L 321.014027 143.488191 
L 321.014027 143.975375 
L 321.638597 143.975375 
L 321.638597 142.861644 
L 322.263168 142.861644 
L 322.263168 141.579656 
L 322.887738 141.579656 
L 322.887738 141.212425 
L 323.512309 141.212425 
L 323.512309 139.797034 
L 324.136879 139.797034 
L 324.136879 140.18684 
L 324.76145 140.18684 
L 324.76145 142.185762 
L 325.38602 142.185762 
L 325.38602 143.552586 
L 326.010591 143.552586 
L 326.010591 142.904845 
L 326.635161 142.904845 
L 326.635161 143.429752 
L 327.259732 143.429752 
L 327.259732 142.308257 
L 327.884302 142.308257 
L 327.884302 143.718643 
L 328.508873 143.718643 
L 328.508873 145.457762 
L 329.758014 145.491402 
L 329.758014 144.323683 
L 330.382584 144.323683 
L 330.382584 145.161968 
L 331.631725 145.222039 
L 331.631725 144.015097 
L 332.256296 144.015097 
L 332.256296 144.211469 
L 332.880866 144.211469 
L 332.880866 143.890276 
L 333.505437 143.890276 
L 333.505437 144.193538 
L 334.130007 144.193538 
L 334.130007 144.709578 
L 334.754578 144.709578 
L 334.754578 144.16028 
L 335.379148 144.16028 
L 335.379148 144.370121 
L 336.003719 144.370121 
L 336.003719 144.979265 
L 336.628289 144.979265 
L 336.628289 145.469575 
L 337.25286 145.469575 
L 337.25286 145.039687 
L 337.87743 145.039687 
L 337.87743 144.867783 
L 338.502001 144.867783 
L 338.502001 143.144922 
L 339.126571 143.144922 
L 339.126571 143.573269 
L 339.751142 143.573269 
L 339.751142 143.953434 
L 340.375712 143.953434 
L 340.375712 143.259515 
L 341.000283 143.259515 
L 341.000283 142.767562 
L 341.624853 142.767562 
L 341.624853 141.694757 
L 342.249424 141.694757 
L 342.249424 140.494504 
L 342.873994 140.494504 
L 342.873994 140.282308 
L 343.498565 140.282308 
L 343.498565 141.084645 
L 344.747706 140.994802 
L 344.747706 139.940431 
L 345.372276 139.940431 
L 345.372276 140.24505 
L 345.996847 140.24505 
L 345.996847 140.766516 
L 346.621417 140.766516 
L 346.621417 140.89665 
L 347.245988 140.89665 
L 347.245988 141.510759 
L 347.870558 141.510759 
L 347.870558 142.237616 
L 348.495129 142.237616 
L 348.495129 145.165549 
L 349.119699 145.165549 
L 349.119699 144.997018 
L 349.74427 144.997018 
L 349.74427 145.267885 
L 350.36884 145.267885 
L 350.36884 144.810511 
L 351.617981 144.768321 
L 351.617981 143.618016 
L 352.242552 143.618016 
L 352.242552 144.420117 
L 352.867123 144.420117 
L 352.867123 144.980153 
L 353.491693 144.980153 
L 353.491693 144.818431 
L 354.116264 144.818431 
L 354.116264 144.483219 
L 354.740834 144.483219 
L 354.740834 144.043034 
L 355.365405 144.043034 
L 355.365405 144.159428 
L 355.989975 144.159428 
L 355.989975 143.404289 
L 357.239116 143.493137 
L 357.239116 142.944126 
L 357.863687 142.944126 
L 357.863687 142.26786 
L 358.488257 142.26786 
L 358.488257 141.260366 
L 359.112828 141.260366 
L 359.112828 140.36904 
L 359.737398 140.36904 
L 359.737398 137.631453 
L 360.361969 137.631453 
L 360.361969 133.394918 
L 360.986539 133.394918 
L 360.986539 134.289861 
L 361.61111 134.289861 
L 361.61111 138.852156 
L 362.23568 138.852156 
L 362.23568 138.207508 
L 362.860251 138.207508 
L 362.860251 137.772073 
L 363.484821 137.772073 
L 363.484821 137.923069 
L 364.109392 137.923069 
L 364.109392 135.868906 
L 364.733962 135.868906 
L 364.733962 135.611372 
L 365.358533 135.611372 
L 365.358533 134.293526 
L 365.983103 134.293526 
L 365.983103 132.803142 
L 366.607674 132.803142 
L 366.607674 131.997334 
L 367.232244 131.997334 
L 367.232244 130.941322 
L 367.856815 130.941322 
L 367.856815 131.766795 
L 368.481385 131.766795 
L 368.481385 130.989299 
L 369.105956 130.989299 
L 369.105956 132.004815 
L 370.355097 132.026805 
L 370.355097 132.191317 
L 370.979667 132.191317 
L 370.979667 131.306211 
L 371.604238 131.306211 
L 371.604238 132.177635 
L 372.228808 132.177635 
L 372.228808 134.370109 
L 372.853379 134.370109 
L 372.853379 134.580891 
L 373.477949 134.580891 
L 373.477949 134.048421 
L 374.10252 134.048421 
L 374.10252 134.842782 
L 374.72709 134.842782 
L 374.72709 135.285468 
L 375.351661 135.285468 
L 375.351661 134.929036 
L 375.976231 134.929036 
L 375.976231 134.766538 
L 376.600802 134.766538 
L 376.600802 133.661609 
L 377.225372 133.661609 
L 377.225372 132.634089 
L 378.474513 132.669333 
L 378.474513 132.08165 
L 379.099084 132.08165 
L 379.099084 132.512893 
L 379.723654 132.512893 
L 379.723654 133.335406 
L 380.348225 133.335406 
L 380.348225 132.826991 
L 381.597366 132.876237 
L 381.597366 133.222365 
L 382.221936 133.222365 
L 382.221936 132.808007 
L 383.471077 132.780293 
L 383.471077 132.937351 
L 384.095648 132.937351 
L 384.095648 132.705123 
L 385.344789 132.635536 
L 385.344789 132.506661 
L 385.969359 132.506661 
L 385.969359 132.182352 
L 386.59393 132.182352 
L 386.59393 131.878018 
L 387.2185 131.878018 
L 387.2185 131.149153 
L 387.843071 131.149153 
L 387.843071 131.448567 
L 388.467641 131.448567 
L 388.467641 131.100796 
L 389.092212 131.100796 
L 389.092212 131.263789 
L 389.716782 131.263789 
L 389.716782 130.761092 
L 390.341353 130.761092 
L 390.341353 130.975072 
L 390.965923 130.975072 
L 390.965923 131.097218 
L 391.590494 131.097218 
L 391.590494 131.54342 
L 392.215064 131.54342 
L 392.215064 131.294017 
L 392.839635 131.294017 
L 392.839635 128.648168 
L 393.464205 128.648168 
L 393.464205 127.616949 
L 394.088776 127.616949 
L 394.088776 125.964578 
L 394.713346 125.964578 
L 394.713346 126.165831 
L 395.337917 126.165831 
L 395.337917 122.717592 
L 395.962487 122.717592 
L 395.962487 120.833781 
L 396.587058 120.833781 
L 396.587058 125.651527 
L 397.211628 125.651527 
L 397.211628 124.412749 
L 397.836199 124.412749 
L 397.836199 123.233846 
L 398.460769 123.233846 
L 398.460769 122.812725 
L 399.08534 122.812725 
L 399.08534 123.384538 
L 400.959051 123.435938 
L 400.959051 123.247499 
L 401.583622 123.247499 
L 401.583622 123.431037 
L 402.208192 123.431037 
L 402.208192 123.613781 
L 402.832763 123.613781 
L 402.832763 125.220424 
L 403.457333 125.220424 
L 403.457333 126.349992 
L 404.081904 126.349992 
L 404.081904 125.920895 
L 405.331045 125.977771 
L 405.331045 126.413764 
L 405.955615 126.413764 
L 405.955615 126.190734 
L 407.204756 126.243094 
L 407.204756 126.393194 
L 408.453897 126.375477 
L 408.453897 125.133628 
L 409.078468 125.133628 
L 409.078468 124.689164 
L 409.703038 124.689164 
L 409.703038 125.105998 
L 410.952179 125.161963 
L 410.952179 125.608172 
L 411.57675 125.608172 
L 411.57675 125.179317 
L 413.450462 125.1663 
L 413.450462 124.924844 
L 414.075032 124.924844 
L 414.075032 124.253604 
L 414.699603 124.253604 
L 414.699603 124.132445 
L 415.324173 124.132445 
L 415.324173 124.454584 
L 415.948744 124.454584 
L 415.948744 123.975793 
L 416.573314 123.975793 
L 416.573314 122.696315 
L 417.197885 122.696315 
L 417.197885 121.528802 
L 417.822455 121.528802 
L 417.822455 122.183907 
L 418.447026 122.183907 
L 418.447026 121.671501 
L 419.071596 121.671501 
L 419.071596 122.273378 
L 419.696167 122.273378 
L 419.696167 121.245287 
L 421.569878 121.238964 
L 421.569878 121.433671 
L 422.194449 121.433671 
L 422.194449 120.539307 
L 423.44359 120.446321 
L 423.44359 120.401174 
L 424.06816 120.401174 
L 424.06816 120.19938 
L 424.692731 120.19938 
L 424.692731 119.807613 
L 425.317301 119.807613 
L 425.317301 116.881866 
L 425.941872 116.881866 
L 425.941872 116.521336 
L 426.566442 116.521336 
L 426.566442 115.783667 
L 427.191013 115.783667 
L 427.191013 112.959661 
L 427.815583 112.959661 
L 427.815583 116.958263 
L 428.440154 116.958263 
L 428.440154 119.439871 
L 429.064724 119.439871 
L 429.064724 118.819704 
L 429.689295 118.819704 
L 429.689295 117.291408 
L 430.313865 117.291408 
L 430.313865 117.565822 
L 430.938436 117.565822 
L 430.938436 116.778169 
L 431.563006 116.778169 
L 431.563006 115.397249 
L 432.187577 115.397249 
L 432.187577 114.835307 
L 432.812147 114.835307 
L 432.812147 115.357734 
L 433.436718 115.357734 
L 433.436718 115.034245 
L 434.061288 115.034245 
L 434.061288 113.982508 
L 434.685859 113.982508 
L 434.685859 112.672389 
L 435.310429 112.672389 
L 435.310429 112.220604 
L 435.935 112.220604 
L 435.935 110.947519 
L 436.55957 110.947519 
L 436.55957 110.199745 
L 437.184141 110.199745 
L 437.184141 111.498893 
L 437.808711 111.498893 
L 437.808711 110.688867 
L 438.433282 110.688867 
L 438.433282 113.720065 
L 439.057852 113.720065 
L 439.057852 112.889645 
L 439.682423 112.889645 
L 439.682423 115.847388 
L 440.306993 115.847388 
L 440.306993 114.268454 
L 440.931564 114.268454 
L 440.931564 113.499584 
L 441.556134 113.499584 
L 441.556134 111.471042 
L 442.180705 111.471042 
L 442.180705 111.196955 
L 442.805275 111.196955 
L 442.805275 111.871589 
L 443.429846 111.871589 
L 443.429846 111.344663 
L 444.054416 111.344663 
L 444.054416 110.811372 
L 444.678987 110.811372 
L 444.678987 109.930895 
L 445.303557 109.930895 
L 445.303557 108.906856 
L 445.928128 108.906856 
L 445.928128 106.347588 
L 446.552698 106.347588 
L 446.552698 104.899897 
L 447.177269 104.899897 
L 447.177269 104.393638 
L 447.801839 104.393638 
L 447.801839 104.201759 
L 448.42641 104.201759 
L 448.42641 100.926813 
L 449.05098 100.926813 
L 449.05098 97.141937 
L 449.675551 97.141937 
L 449.675551 99.29466 
L 450.300121 99.29466 
L 450.300121 97.238883 
L 450.924692 97.238883 
L 450.924692 94.942984 
L 451.549262 94.942984 
L 451.549262 94.018528 
L 452.173833 94.018528 
L 452.173833 94.89141 
L 452.798403 94.89141 
L 452.798403 95.470387 
L 453.422974 95.470387 
L 453.422974 95.248736 
L 454.047544 95.248736 
L 454.047544 96.47908 
L 454.672115 96.47908 
L 454.672115 96.160473 
L 455.921256 96.094901 
L 455.921256 96.472361 
L 456.545826 96.472361 
L 456.545826 98.088695 
L 457.170397 98.088695 
L 457.170397 101.29881 
L 457.794967 101.29881 
L 457.794967 98.49352 
L 458.419538 98.49352 
L 458.419538 94.576732 
L 459.044108 94.576732 
L 459.044108 95.265202 
L 459.668679 95.265202 
L 459.668679 93.749548 
L 460.91782 93.794745 
L 460.91782 90.21416 
L 461.54239 90.21416 
L 461.54239 87.650879 
L 462.166961 87.650879 
L 462.166961 85.154634 
L 462.791531 85.154634 
L 462.791531 86.699117 
L 463.416102 86.699117 
L 463.416102 85.359515 
L 464.040672 85.359515 
L 464.040672 85.150653 
L 464.665243 85.150653 
L 464.665243 82.827686 
L 465.289813 82.827686 
L 465.289813 85.111993 
L 465.914384 85.111993 
L 465.914384 85.363725 
L 466.538954 85.363725 
L 466.538954 87.668168 
L 467.163525 87.668168 
L 467.163525 88.671091 
L 467.788095 88.671091 
L 467.788095 89.103089 
L 468.412666 89.103089 
L 468.412666 87.321245 
L 469.037236 87.321245 
L 469.037236 86.158429 
L 469.661807 86.158429 
L 469.661807 85.469437 
L 470.286377 85.469437 
L 470.286377 84.862028 
L 470.910948 84.862028 
L 470.910948 83.186795 
L 471.535519 83.186795 
L 471.535519 79.828215 
L 472.78466 79.808755 
L 472.78466 79.097981 
L 473.40923 79.097981 
L 473.40923 79.551767 
L 474.033801 79.551767 
L 474.033801 77.401231 
L 474.658371 77.401231 
L 474.658371 74.604136 
L 475.282942 74.604136 
L 475.282942 74.324306 
L 475.907512 74.324306 
L 475.907512 79.134098 
L 476.532083 79.134098 
L 476.532083 73.266477 
L 477.156653 73.266477 
L 477.156653 72.325664 
L 478.405794 72.399605 
L 478.405794 68.575528 
L 479.030365 68.575528 
L 479.030365 66.640993 
L 479.654935 66.640993 
L 479.654935 61.821326 
L 480.279506 61.821326 
L 480.279506 60.103587 
L 480.904076 60.103587 
L 480.904076 58.378709 
L 481.528647 58.378709 
L 481.528647 55.5018 
L 482.153217 55.5018 
L 482.153217 61.920081 
L 482.777788 61.920081 
L 482.777788 59.3009 
L 483.402358 59.3009 
L 483.402358 63.708547 
L 484.026929 63.708547 
L 484.026929 60.143569 
L 484.651499 60.143569 
L 484.651499 58.646221 
L 485.27607 58.646221 
L 485.27607 62.655381 
L 485.90064 62.655381 
L 485.90064 62.249899 
L 486.525211 62.249899 
L 486.525211 65.567878 
L 487.149781 65.567878 
L 487.149781 66.792635 
L 487.774352 66.792635 
L 487.774352 65.700607 
L 488.398922 65.700607 
L 488.398922 68.001641 
L 489.023493 68.001641 
L 489.023493 72.426066 
L 490.272634 72.320086 
L 490.272634 70.781351 
L 490.897204 70.781351 
L 490.897204 68.052212 
L 491.521775 68.052212 
L 491.521775 66.031852 
L 492.146345 66.031852 
L 492.146345 69.028333 
L 492.770916 69.028333 
L 492.770916 67.748818 
L 493.395486 67.748818 
L 493.395486 65.549717 
L 494.020057 65.549717 
L 494.020057 69.827663 
L 494.644627 69.827663 
L 494.644627 70.254713 
L 495.269198 70.254713 
L 495.269198 72.190741 
L 495.893768 72.190741 
L 495.893768 70.74897 
L 496.518339 70.74897 
L 496.518339 71.622909 
L 497.142909 71.622909 
L 497.142909 73.05686 
L 497.76748 73.05686 
L 497.76748 76.141967 
L 498.39205 76.141967 
L 498.39205 76.263632 
L 499.641191 76.27035 
L 499.641191 73.198416 
L 500.890332 73.167802 
L 500.890332 70.702072 
L 501.514903 70.702072 
L 501.514903 70.83969 
L 502.139473 70.83969 
L 502.139473 69.667737 
L 502.764044 69.667737 
L 502.764044 68.916713 
L 503.388614 68.916713 
L 503.388614 69.730864 
L 504.013185 69.730864 
L 504.013185 71.950613 
L 504.637755 71.950613 
L 504.637755 71.772306 
L 505.262326 71.772306 
L 505.262326 72.327483 
L 505.886896 72.327483 
L 505.886896 74.206732 
L 506.511467 74.206732 
L 506.511467 74.663161 
L 507.136037 74.663161 
L 507.136037 74.266827 
L 508.385178 74.251117 
L 508.385178 73.929162 
L 509.009749 73.929162 
L 509.009749 76.973421 
L 509.634319 76.973421 
L 509.634319 77.173251 
L 510.25889 77.173251 
L 510.25889 76.340884 
L 510.88346 76.340884 
L 510.88346 78.236092 
L 511.508031 78.236092 
L 511.508031 79.175207 
L 512.132601 79.175207 
L 512.132601 76.747641 
L 513.381742 76.741069 
L 513.381742 77.677175 
L 514.006313 77.677175 
L 514.006313 77.936267 
L 514.630883 77.936267 
L 514.630883 74.590059 
L 515.880024 74.492588 
L 515.880024 73.084398 
L 516.504595 73.084398 
L 516.504595 72.501714 
L 517.129165 72.501714 
L 517.129165 74.470417 
L 517.753736 74.470417 
L 517.753736 76.468939 
L 518.378306 76.468939 
L 518.378306 78.004431 
L 519.002877 78.004431 
L 519.002877 77.865617 
L 519.627447 77.865617 
L 519.627447 77.179809 
L 520.252018 77.179809 
L 520.252018 77.057189 
L 520.876588 77.057189 
L 520.876588 75.924395 
L 521.501159 75.924395 
L 521.501159 75.582316 
L 522.125729 75.582316 
L 522.125729 74.622847 
L 522.7503 74.622847 
L 522.7503 78.147381 
L 523.37487 78.147381 
L 523.37487 77.687516 
L 523.999441 77.687516 
L 523.999441 77.146138 
L 525.248582 77.150347 
L 525.248582 76.879502 
L 525.873152 76.879502 
L 525.873152 76.740855 
L 526.497723 76.740855 
L 526.497723 77.07163 
L 527.122293 77.07163 
L 527.122293 76.909773 
L 528.371434 76.886827 
L 528.371434 77.883426 
L 528.996005 77.883426 
L 528.996005 77.108009 
L 530.245146 77.156991 
L 530.245146 77.224864 
L 530.869716 77.224864 
L 530.869716 77.765904 
L 531.494287 77.765904 
L 531.494287 77.574911 
L 532.118858 77.574911 
L 532.118858 77.023473 
L 532.743428 77.023473 
L 532.743428 77.425053 
L 533.367999 77.425053 
L 533.367999 79.945873 
L 533.992569 79.945873 
L 533.992569 83.075309 
L 534.61714 83.075309 
L 534.61714 85.260562 
L 535.24171 85.260562 
L 535.24171 87.861814 
L 535.866281 87.861814 
L 535.866281 86.042876 
L 536.490851 86.042876 
L 536.490851 88.308396 
L 537.115422 88.308396 
L 537.115422 89.173423 
L 537.739992 89.173423 
L 537.739992 90.821291 
L 538.364563 90.821291 
L 538.364563 89.354323 
L 538.989133 89.354323 
L 538.989133 87.487573 
L 539.613704 87.487573 
L 539.613704 87.898519 
L 540.238274 87.898519 
L 540.238274 88.171563 
L 540.862845 88.171563 
L 540.862845 87.324697 
L 541.487415 87.324697 
L 541.487415 86.613508 
L 542.111986 86.613508 
L 542.111986 88.849653 
L 542.736556 88.849653 
L 542.736556 88.649349 
L 543.361127 88.649349 
L 543.361127 88.963985 
L 543.985697 88.963985 
L 543.985697 89.179578 
L 545.234838 89.242077 
L 545.234838 89.853371 
L 546.483979 89.935156 
L 546.483979 90.297477 
L 547.10855 90.297477 
L 547.10855 88.943099 
L 547.73312 88.943099 
L 547.73312 89.062172 
L 548.357691 89.062172 
L 548.357691 87.349345 
L 548.982261 87.349345 
L 548.982261 86.278803 
L 549.606832 86.278803 
L 549.606832 87.836536 
L 550.855973 87.935343 
L 550.855973 87.555271 
L 552.105114 87.585159 
L 552.105114 87.29797 
L 552.729684 87.29797 
L 552.729684 86.82688 
L 554.603396 86.729568 
L 554.603396 86.403689 
L 555.227966 86.403689 
L 555.227966 82.816009 
L 555.852537 82.816009 
L 555.852537 81.392639 
L 556.477107 81.392639 
L 556.477107 82.160101 
L 557.101678 82.160101 
L 557.101678 81.671631 
L 557.726248 81.671631 
L 557.726248 81.23724 
L 558.350819 81.23724 
L 558.350819 80.766135 
L 558.975389 80.766135 
L 558.975389 81.26775 
L 559.59996 81.26775 
L 559.59996 80.930949 
L 560.22453 80.930949 
L 560.22453 79.85393 
L 560.849101 79.85393 
L 560.849101 77.617248 
L 561.473671 77.617248 
L 561.473671 72.949919 
L 562.098242 72.949919 
L 562.098242 74.883673 
L 562.722812 74.883673 
L 562.722812 73.901541 
L 563.347383 73.901541 
L 563.347383 71.128882 
L 563.971953 71.128882 
L 563.971953 72.252922 
L 564.596524 72.252922 
L 564.596524 72.592583 
L 565.221094 72.592583 
L 565.221094 72.93573 
L 565.845665 72.93573 
L 565.845665 73.141199 
L 566.470235 73.141199 
L 566.470235 70.864075 
L 567.094806 70.864075 
L 567.094806 69.920867 
L 567.719376 69.920867 
L 567.719376 66.824475 
L 568.343947 66.824475 
L 568.343947 66.23668 
L 568.968517 66.23668 
L 568.968517 67.271012 
L 569.593088 67.271012 
L 569.593088 66.562637 
L 570.217658 66.562637 
L 570.217658 63.749967 
L 570.842229 63.749967 
L 570.842229 65.775657 
L 571.466799 65.775657 
L 571.466799 69.081621 
L 572.09137 69.081621 
L 572.09137 67.254377 
L 572.71594 67.254377 
L 572.71594 68.665246 
L 573.340511 68.665246 
L 573.340511 69.447071 
L 573.965081 69.447071 
L 573.965081 67.365395 
L 574.589652 67.365395 
L 574.589652 65.639911 
L 575.214222 65.639911 
L 575.214222 65.966673 
L 575.838793 65.966673 
L 575.838793 68.376433 
L 576.463363 68.376433 
L 576.463363 67.777347 
L 577.087934 67.777347 
L 577.087934 68.185165 
L 577.712504 68.185165 
L 577.712504 67.693717 
L 578.337075 67.693717 
L 578.337075 69.284271 
L 578.961645 69.284271 
L 578.961645 67.189651 
L 579.586216 67.189651 
L 579.586216 67.447021 
L 580.210786 67.447021 
L 580.210786 68.090542 
L 580.835357 68.090542 
L 580.835357 67.79143 
L 582.084498 67.859431 
L 582.084498 69.062573 
L 582.709068 69.062573 
L 582.709068 72.446231 
L 583.333639 72.446231 
L 583.333639 72.129723 
L 583.958209 72.129723 
L 583.958209 72.560806 
L 584.58278 72.560806 
L 584.58278 71.494741 
L 585.20735 71.494741 
L 585.20735 72.225268 
L 585.831921 72.225268 
L 585.831921 72.737892 
L 586.456491 72.737892 
L 586.456491 72.375593 
L 587.081062 72.375593 
L 587.081062 71.309536 
L 587.705632 71.309536 
L 587.705632 69.59254 
L 588.330203 69.59254 
L 588.330203 69.878393 
L 589.579344 69.786772 
L 589.579344 70.461863 
L 590.203914 70.461863 
L 590.203914 71.390271 
L 590.828485 71.390271 
L 590.828485 72.490561 
L 591.453056 72.490561 
L 591.453056 74.824364 
L 592.077626 74.824364 
L 592.077626 75.16848 
L 592.702197 75.16848 
L 592.702197 74.083562 
L 593.326767 74.083562 
L 593.326767 75.086013 
L 593.951338 75.086013 
L 593.951338 74.178488 
L 594.575908 74.178488 
L 594.575908 75.096409 
L 595.200479 75.096409 
L 595.200479 75.988256 
L 595.825049 75.988256 
L 595.825049 75.093563 
L 596.44962 75.093563 
L 596.44962 74.923756 
L 597.07419 74.923756 
L 597.07419 74.783478 
L 597.698761 74.783478 
L 597.698761 75.134431 
L 598.323331 75.134431 
L 598.323331 74.643834 
L 598.947902 74.643834 
L 598.947902 73.39782 
L 599.572472 73.39782 
L 599.572472 72.666632 
L 600.197043 72.666632 
L 600.197043 70.770833 
L 600.821613 70.770833 
L 600.821613 71.180287 
L 601.446184 71.180287 
L 601.446184 72.118919 
L 602.070754 72.118919 
L 602.070754 69.924992 
L 603.319895 69.849271 
L 603.319895 68.911916 
L 603.944466 68.911916 
L 603.944466 68.707099 
L 604.569036 68.707099 
L 604.569036 67.677591 
L 605.193607 67.677591 
L 605.193607 68.048053 
L 605.818177 68.048053 
L 605.818177 69.09136 
L 606.442748 69.09136 
L 606.442748 71.033885 
L 607.067318 71.033885 
L 607.067318 71.621936 
L 607.691889 71.621936 
L 607.691889 70.394119 
L 608.316459 70.394119 
L 608.316459 73.104489 
L 608.94103 73.104489 
L 608.94103 80.124591 
L 609.5656 80.124591 
L 609.5656 81.053659 
L 610.190171 81.053659 
L 610.190171 78.128422 
L 610.814741 78.128422 
L 610.814741 76.528644 
L 611.439312 76.528644 
L 611.439312 79.150167 
L 612.063882 79.150167 
L 612.063882 76.196727 
L 612.688453 76.196727 
L 612.688453 74.666913 
L 613.313023 74.666913 
L 613.313023 76.006816 
L 614.562164 76.010619 
L 614.562164 74.899546 
L 615.186735 74.899546 
L 615.186735 75.260997 
L 615.811305 75.260997 
L 615.811305 73.707639 
L 616.435876 73.707639 
L 616.435876 71.398605 
L 617.060446 71.398605 
L 617.060446 70.803659 
L 617.685017 70.803659 
L 617.685017 68.775031 
L 618.309587 68.775031 
L 618.309587 70.9671 
L 618.934158 70.9671 
L 618.934158 69.695131 
L 619.558728 69.695131 
L 619.558728 69.427166 
L 620.183299 69.427166 
L 620.183299 71.160623 
L 620.807869 71.160623 
L 620.807869 69.302851 
L 621.43244 69.302851 
L 621.43244 68.001184 
L 622.05701 68.001184 
L 622.05701 69.187713 
L 622.681581 69.187713 
L 622.681581 68.871483 
L 623.306151 68.871483 
L 623.306151 69.506498 
L 624.555292 69.546505 
L 624.555292 69.914145 
L 625.804433 70.010225 
L 625.804433 70.132266 
L 626.429004 70.132266 
L 626.429004 70.382884 
L 627.053574 70.382884 
L 627.053574 69.976536 
L 628.302715 70.020949 
L 628.302715 70.114276 
L 629.551856 70.067724 
L 629.551856 69.210123 
L 630.176427 69.210123 
L 630.176427 66.401947 
L 630.800997 66.401947 
L 630.800997 65.856255 
L 631.425568 65.856255 
L 631.425568 66.125255 
L 632.050138 66.125255 
L 632.050138 65.113329 
L 632.674709 65.113329 
L 632.674709 65.450957 
L 633.299279 65.450957 
L 633.299279 64.862828 
L 634.54842 64.944937 
L 634.54842 65.119649 
L 635.172991 65.119649 
L 635.172991 65.518219 
L 635.797561 65.518219 
L 635.797561 64.847122 
L 636.422132 64.847122 
L 636.422132 68.089944 
L 637.046702 68.089944 
L 637.046702 67.954384 
L 637.671273 67.954384 
L 637.671273 67.751504 
L 638.295843 67.751504 
L 638.295843 66.583489 
L 638.920414 66.583489 
L 638.920414 67.556947 
L 639.544984 67.556947 
L 639.544984 67.053636 
L 640.169555 67.053636 
L 640.169555 66.775229 
L 640.794125 66.775229 
L 640.794125 67.322689 
L 641.418696 67.322689 
L 641.418696 67.095436 
L 642.043266 67.095436 
L 642.043266 65.797887 
L 642.667837 65.797887 
L 642.667837 65.572773 
L 643.292407 65.572773 
L 643.292407 65.129588 
L 643.916978 65.129588 
L 643.916978 63.182202 
L 644.541548 63.182202 
L 644.541548 62.104943 
L 645.166119 62.104943 
L 645.166119 61.87057 
L 645.790689 61.87057 
L 645.790689 61.370308 
L 646.41526 61.370308 
L 646.41526 59.544502 
L 647.03983 59.544502 
L 647.03983 58.518189 
L 647.664401 58.518189 
L 647.664401 57.991047 
L 648.288971 57.991047 
L 648.288971 55.743557 
L 648.913542 55.743557 
L 648.913542 55.224406 
L 649.538112 55.224406 
L 649.538112 56.806288 
L 650.162683 56.806288 
L 650.162683 55.166952 
L 650.787254 55.166952 
L 650.787254 55.008794 
L 651.411824 55.008794 
L 651.411824 56.225917 
L 652.036395 56.225917 
L 652.036395 55.114737 
L 652.660965 55.114737 
L 652.660965 51.404577 
L 653.285536 51.404577 
L 653.285536 50.823024 
L 653.910106 50.823024 
L 653.910106 48.710745 
L 654.534677 48.710745 
L 654.534677 46.941356 
L 655.159247 46.941356 
L 655.159247 44.222761 
L 655.783818 44.222761 
L 655.783818 40.587995 
L 656.408388 40.587995 
L 656.408388 42.718203 
L 657.032959 42.718203 
L 657.032959 41.999525 
L 657.657529 41.999525 
L 657.657529 42.449162 
L 658.2821 42.449162 
L 658.2821 44.783592 
L 658.90667 44.783592 
L 658.90667 45.873012 
L 659.531241 45.873012 
L 659.531241 44.139639 
L 660.155811 44.139639 
L 660.155811 41.90427 
L 660.780382 41.90427 
L 660.780382 37.334773 
L 661.404952 37.334773 
L 661.404952 36.856711 
L 662.029523 36.856711 
L 662.029523 36.148564 
L 662.654093 36.148564 
L 662.654093 33.50902 
L 663.278664 33.50902 
L 663.278664 35.553763 
L 663.903234 35.553763 
L 663.903234 37.888629 
L 664.527805 37.888629 
L 664.527805 36.443786 
L 665.152375 36.443786 
L 665.152375 34.894515 
L 665.776946 34.894515 
L 665.776946 33.061059 
L 666.401516 33.061059 
L 666.401516 33.19629 
L 667.026087 33.19629 
L 667.026087 32.768596 
L 667.650657 32.768596 
L 667.650657 34.813756 
L 668.275228 34.813756 
L 668.275228 33.587851 
L 668.899798 33.587851 
L 668.899798 32.542765 
L 670.148939 32.433661 
L 670.148939 32.762744 
L 670.77351 32.762744 
L 670.77351 30.945791 
L 671.39808 30.945791 
L 671.39808 32.082351 
L 672.022651 32.082351 
L 672.022651 34.31808 
L 672.647221 34.31808 
L 672.647221 36.183425 
L 673.271792 36.183425 
L 673.271792 34.402837 
L 673.896362 34.402837 
L 673.896362 33.0752 
L 675.145503 33.016174 
L 675.145503 33.23993 
L 675.770074 33.23993 
L 675.770074 37.172755 
L 676.394644 37.172755 
L 676.394644 41.924988 
L 677.019215 41.924988 
L 677.019215 43.173776 
L 677.643785 43.173776 
L 677.643785 41.12913 
L 678.268356 41.12913 
L 678.268356 41.736092 
L 678.892926 41.736092 
L 678.892926 41.968199 
L 679.517497 41.968199 
L 679.517497 43.948734 
L 680.142067 43.948734 
L 680.142067 42.746743 
L 680.766638 42.746743 
L 680.766638 41.192685 
L 681.391208 41.192685 
L 681.391208 42.691199 
L 682.015779 42.691199 
L 682.015779 43.241016 
L 683.26492 43.348157 
L 683.26492 43.703922 
L 683.88949 43.703922 
L 683.88949 43.493111 
L 684.514061 43.493111 
L 684.514061 43.909175 
L 685.138631 43.909175 
L 685.138631 44.337372 
L 685.763202 44.337372 
L 685.763202 44.984175 
L 686.387772 44.984175 
L 686.387772 44.65892 
L 687.012343 44.65892 
L 687.012343 41.731966 
L 687.636913 41.731966 
L 687.636913 39.234534 
L 688.261484 39.234534 
L 688.261484 41.291708 
L 688.886054 41.291708 
L 688.886054 38.105237 
L 689.510625 38.105237 
L 689.510625 37.666426 
L 690.135195 37.666426 
L 690.135195 37.034591 
L 690.759766 37.034591 
L 690.759766 37.173591 
L 691.384336 37.173591 
L 691.384336 35.999358 
L 692.008907 35.999358 
L 692.008907 36.191154 
L 692.633477 36.191154 
L 692.633477 36.991816 
L 693.258048 36.991816 
L 693.258048 35.826697 
L 693.882618 35.826697 
L 693.882618 37.460092 
L 695.131759 37.468562 
L 695.131759 36.723209 
L 695.75633 36.723209 
L 695.75633 38.907299 
L 697.005471 38.94795 
L 697.005471 39.820244 
L 697.630041 39.820244 
L 697.630041 36.747881 
L 698.254612 36.747881 
L 698.254612 33.748261 
L 698.879182 33.748261 
L 698.879182 34.012816 
L 699.503753 34.012816 
L 699.503753 33.010007 
L 700.128323 33.010007 
L 700.128323 31.456736 
L 700.752894 31.456736 
L 700.752894 31.877732 
L 701.377464 31.877732 
L 701.377464 31.995524 
L 702.002035 31.995524 
L 702.002035 31.535444 
L 702.626605 31.535444 
L 702.626605 31.137823 
L 703.875746 31.02923 
L 703.875746 30.540462 
L 704.500317 30.540462 
L 704.500317 30.936291 
L 705.124887 30.936291 
L 705.124887 32.752134 
L 705.749458 32.752134 
L 705.749458 32.946405 
L 706.374028 32.946405 
L 706.374028 33.947866 
L 706.998599 33.947866 
L 706.998599 33.069383 
L 707.623169 33.069383 
L 707.623169 36.057969 
L 708.24774 36.057969 
L 708.24774 36.77652 
L 708.87231 36.77652 
L 708.87231 37.163866 
L 709.496881 37.163866 
L 709.496881 37.418311 
L 710.121452 37.418311 
L 710.121452 36.241719 
L 710.746022 36.241719 
L 710.746022 35.615464 
L 711.370593 35.615464 
L 711.370593 37.315307 
L 711.995163 37.315307 
L 711.995163 36.918057 
L 712.619734 36.918057 
L 712.619734 38.804113 
L 713.244304 38.804113 
L 713.244304 39.410535 
L 713.868875 39.410535 
L 713.868875 38.814104 
L 714.493445 38.814104 
L 714.493445 39.15439 
L 715.118016 39.15439 
L 715.118016 42.989894 
L 715.742586 42.989894 
L 715.742586 42.002286 
L 716.367157 42.002286 
L 716.367157 41.408579 
L 716.991727 41.408579 
L 716.991727 41.854885 
L 717.616298 41.854885 
L 717.616298 38.471692 
L 718.240868 38.471692 
L 718.240868 39.144933 
L 718.865439 39.144933 
L 718.865439 38.149735 
L 719.490009 38.149735 
L 719.490009 40.267816 
L 720.11458 40.267816 
L 720.11458 41.746444 
L 720.73915 41.746444 
L 720.73915 41.523269 
L 721.363721 41.523269 
L 721.363721 39.114792 
L 721.988291 39.114792 
L 721.988291 41.347827 
L 722.612862 41.347827 
L 722.612862 40.97388 
L 723.237432 40.97388 
L 723.237432 40.672941 
L 723.862003 40.672941 
L 723.862003 39.230614 
L 724.486573 39.230614 
L 724.486573 38.905646 
L 725.111144 38.905646 
L 725.111144 37.119962 
L 725.735714 37.119962 
L 725.735714 37.698538 
L 726.360285 37.698538 
L 726.360285 37.22715 
L 726.984855 37.22715 
L 726.984855 39.203465 
L 727.609426 39.203465 
L 727.609426 40.274306 
L 728.233996 40.274306 
L 728.233996 40.130046 
L 728.858567 40.130046 
L 728.858567 39.640918 
L 729.483137 39.640918 
L 729.483137 40.5985 
L 730.107708 40.5985 
L 730.107708 40.442806 
L 730.732278 40.442806 
L 730.732278 41.094717 
L 731.356849 41.094717 
L 731.356849 42.453156 
L 731.981419 42.453156 
L 731.981419 45.487263 
L 732.60599 45.487263 
L 732.60599 46.103795 
L 733.23056 46.103795 
L 733.23056 47.065027 
L 733.855131 47.065027 
L 733.855131 45.96662 
L 734.479701 45.96662 
L 734.479701 46.705905 
L 735.104272 46.705905 
L 735.104272 45.027507 
L 735.728842 45.027507 
L 735.728842 46.37017 
L 736.353413 46.37017 
L 736.353413 45.412974 
L 736.977983 45.412974 
L 736.977983 47.304098 
L 737.602554 47.304098 
L 737.602554 51.936551 
L 738.227124 51.936551 
L 738.227124 53.828272 
L 738.851695 53.828272 
L 738.851695 53.294943 
L 739.476265 53.294943 
L 739.476265 53.669266 
L 740.100836 53.669266 
L 740.100836 55.167237 
L 740.725406 55.167237 
L 740.725406 54.184951 
L 741.349977 54.184951 
L 741.349977 52.825565 
L 741.974547 52.825565 
L 741.974547 54.143055 
L 742.599118 54.143055 
L 742.599118 53.59893 
L 743.223688 53.59893 
L 743.223688 51.40169 
L 743.848259 51.40169 
L 743.848259 53.091899 
L 744.472829 53.091899 
L 744.472829 50.851095 
L 745.0974 50.851095 
L 745.0974 51.553027 
L 746.346541 51.583532 
L 746.346541 50.708614 
L 746.971111 50.708614 
L 746.971111 50.410677 
L 747.595682 50.410677 
L 747.595682 51.366809 
L 748.220252 51.366809 
L 748.220252 52.994921 
L 748.844823 52.994921 
L 748.844823 54.13341 
L 749.469393 54.13341 
L 749.469393 54.579134 
L 750.718534 54.536272 
L 750.718534 55.111069 
L 751.343105 55.111069 
L 751.343105 52.627613 
L 751.967675 52.627613 
L 751.967675 54.680029 
L 752.592246 54.680029 
L 752.592246 54.837498 
L 753.216816 54.837498 
L 753.216816 55.110544 
L 753.841387 55.110544 
L 753.841387 55.295995 
L 754.465957 55.295995 
L 754.465957 55.074735 
L 755.090528 55.074735 
L 755.090528 54.199129 
L 755.715098 54.199129 
L 755.715098 54.941764 
L 756.964239 55.002867 
L 756.964239 54.830481 
L 757.58881 54.830481 
L 757.58881 55.225653 
L 758.21338 55.225653 
L 758.21338 54.26606 
L 758.837951 54.26606 
L 758.837951 53.558081 
L 759.462521 53.558081 
L 759.462521 54.212996 
L 760.087092 54.212996 
L 760.087092 53.456953 
L 760.711662 53.456953 
L 760.711662 57.015512 
L 761.336233 57.015512 
L 761.336233 58.157909 
L 761.960803 58.157909 
L 761.960803 58.0419 
L 762.585374 58.0419 
L 762.585374 58.643919 
L 763.209944 58.643919 
L 763.209944 58.322831 
L 763.834515 58.322831 
L 763.834515 57.458519 
L 766.332797 57.415794 
L 766.332797 58.097374 
L 766.957367 58.097374 
L 766.957367 57.774793 
L 768.206508 57.854693 
L 768.206508 58.217449 
L 769.455649 58.126484 
L 769.455649 57.868763 
L 770.08022 57.868763 
L 770.08022 57.433226 
L 770.704791 57.433226 
L 770.704791 54.435998 
L 771.329361 54.435998 
L 771.329361 53.240374 
L 771.953932 53.240374 
L 771.953932 51.738347 
L 772.578502 51.738347 
L 772.578502 51.458072 
L 773.203073 51.458072 
L 773.203073 50.8819 
L 773.827643 50.8819 
L 773.827643 51.140612 
L 774.452214 51.140612 
L 774.452214 51.746142 
L 775.076784 51.746142 
L 775.076784 52.773114 
L 775.701355 52.773114 
L 775.701355 52.243401 
L 776.325925 52.243401 
L 776.325925 50.139999 
L 776.950496 50.139999 
L 776.950496 50.518628 
L 777.575066 50.518628 
L 777.575066 51.046938 
L 778.824207 51.129429 
L 778.824207 52.062868 
L 779.448778 52.062868 
L 779.448778 54.141893 
L 780.073348 54.141893 
L 780.073348 50.037067 
L 780.697919 50.037067 
L 780.697919 48.307076 
L 781.322489 48.307076 
L 781.322489 48.060055 
L 781.94706 48.060055 
L 781.94706 47.55195 
L 783.196201 47.527928 
L 783.196201 47.695435 
L 784.445342 47.605773 
L 784.445342 45.996054 
L 785.694483 45.93962 
L 785.694483 46.960334 
L 786.319053 46.960334 
L 786.319053 47.850271 
L 786.943624 47.850271 
L 786.943624 46.508109 
L 787.568194 46.508109 
L 787.568194 47.489237 
L 788.192765 47.489237 
L 788.192765 46.470327 
L 788.817335 46.470327 
L 788.817335 47.813928 
L 789.441906 47.813928 
L 789.441906 48.449857 
L 790.066476 48.449857 
L 790.066476 47.991951 
L 790.691047 47.991951 
L 790.691047 48.472082 
L 791.315617 48.472082 
L 791.315617 48.684652 
L 791.940188 48.684652 
L 791.940188 47.737428 
L 792.564758 47.737428 
L 792.564758 48.100448 
L 793.813899 48.106611 
L 793.813899 49.168185 
L 794.43847 49.168185 
L 794.43847 49.745059 
L 795.06304 49.745059 
L 795.06304 48.792218 
L 795.687611 48.792218 
L 795.687611 46.219232 
L 796.312181 46.219232 
L 796.312181 45.974811 
L 796.936752 45.974811 
L 796.936752 45.838191 
L 797.561322 45.838191 
L 797.561322 45.637493 
L 798.185893 45.637493 
L 798.185893 46.009747 
L 798.810463 46.009747 
L 798.810463 45.891355 
L 800.059604 45.992503 
L 800.059604 46.288071 
L 800.684175 46.288071 
L 800.684175 46.716664 
L 801.933316 46.621283 
L 801.933316 46.368908 
L 802.557886 46.368908 
L 802.557886 46.807412 
L 803.182457 46.807412 
L 803.182457 46.449459 
L 803.807027 46.449459 
L 803.807027 46.643602 
L 804.431598 46.643602 
L 804.431598 48.543775 
L 805.056168 48.543775 
L 805.056168 48.957246 
L 806.305309 49.014707 
L 806.305309 47.747237 
L 806.92988 47.747237 
L 806.92988 49.155439 
L 808.803591 49.183863 
L 808.803591 48.639765 
L 809.428162 48.639765 
L 809.428162 48.466639 
L 810.052732 48.466639 
L 810.052732 48.604799 
L 810.677303 48.604799 
L 810.677303 48.888026 
L 811.301873 48.888026 
L 811.301873 48.310801 
L 811.926444 48.310801 
L 811.926444 47.698838 
L 813.175585 47.597337 
L 813.175585 48.4705 
L 813.800155 48.4705 
L 813.800155 47.180953 
L 814.424726 47.180953 
L 814.424726 46.369597 
L 815.049296 46.369597 
L 815.049296 43.676541 
L 815.673867 43.676541 
L 815.673867 43.564492 
L 816.298437 43.564492 
L 816.298437 42.77781 
L 816.923008 42.77781 
L 816.923008 43.00323 
L 817.547578 43.00323 
L 817.547578 42.072416 
L 819.42129 42.112176 
L 819.42129 42.568286 
L 820.04586 42.568286 
L 820.04586 41.47155 
L 821.295001 41.435979 
L 821.295001 40.338141 
L 821.919572 40.338141 
L 821.919572 38.720625 
L 822.544142 38.720625 
L 822.544142 39.708345 
L 823.168713 39.708345 
L 823.168713 39.369085 
L 823.793283 39.369085 
L 823.793283 39.211287 
L 824.417854 39.211287 
L 824.417854 38.514112 
L 825.042424 38.514112 
L 825.042424 38.64028 
L 825.666995 38.64028 
L 825.666995 39.217486 
L 826.291565 39.217486 
L 826.291565 38.307786 
L 826.916136 38.307786 
L 826.916136 37.070783 
L 827.540706 37.070783 
L 827.540706 38.934507 
L 828.165277 38.934507 
L 828.165277 38.798584 
L 828.789847 38.798584 
L 828.789847 39.502528 
L 829.414418 39.502528 
L 829.414418 40.291343 
L 830.038989 40.291343 
L 830.038989 39.322712 
L 830.663559 39.322712 
L 830.663559 38.832073 
L 831.28813 38.832073 
L 831.28813 39.024877 
L 831.9127 39.024877 
L 831.9127 37.000982 
L 832.537271 37.000982 
L 832.537271 35.911296 
L 833.161841 35.911296 
L 833.161841 35.133756 
L 835.035553 35.117139 
L 835.035553 31.719666 
L 835.660123 31.719666 
L 835.660123 29.463866 
L 836.909264 29.484844 
L 836.909264 28.562339 
L 837.533835 28.562339 
L 837.533835 30.395735 
L 838.158405 30.395735 
L 838.158405 29.618666 
L 838.782976 29.618666 
L 838.782976 29.807888 
L 839.407546 29.807888 
L 839.407546 28.771569 
L 840.032117 28.771569 
L 840.032117 29.075449 
L 840.656687 29.075449 
L 840.656687 29.618594 
L 841.281258 29.618594 
L 841.281258 29.23874 
L 841.905828 29.23874 
L 841.905828 30.798011 
L 842.530399 30.798011 
L 842.530399 31.683923 
L 843.154969 31.683923 
L 843.154969 30.505816 
L 843.77954 30.505816 
L 843.77954 30.650907 
L 844.40411 30.650907 
L 844.40411 30.857279 
L 845.028681 30.857279 
L 845.028681 31.160229 
L 845.653251 31.160229 
L 845.653251 31.342059 
L 846.277822 31.342059 
L 846.277822 31.841477 
L 846.902392 31.841477 
L 846.902392 30.10759 
L 848.151533 30.099352 
L 848.151533 29.59329 
L 848.776104 29.59329 
L 848.776104 29.170754 
L 849.400674 29.170754 
L 849.400674 29.730108 
L 850.025245 29.730108 
L 850.025245 28.829332 
L 850.649815 28.829332 
L 850.649815 29.19303 
L 851.274386 29.19303 
L 851.274386 29.504758 
L 851.898956 29.504758 
L 851.898956 29.986313 
L 852.523527 29.986313 
L 852.523527 30.543124 
L 853.148097 30.543124 
L 853.148097 32.017569 
L 854.397238 32.00543 
L 854.397238 31.43818 
L 855.021809 31.43818 
L 855.021809 32.706105 
L 855.646379 32.706105 
L 855.646379 32.888472 
L 856.27095 32.888472 
L 856.27095 31.844016 
L 856.89552 31.844016 
L 856.89552 30.814197 
L 857.520091 30.814197 
L 857.520091 29.696415 
L 858.769232 29.601453 
L 858.769232 30.125683 
L 859.393802 30.125683 
L 859.393802 31.884535 
L 860.018373 31.884535 
L 860.018373 33.862164 
L 860.642943 33.862164 
L 860.642943 32.549637 
L 861.267514 32.549637 
L 861.267514 32.965678 
L 861.892084 32.965678 
L 861.892084 32.289471 
L 862.516655 32.289471 
L 862.516655 30.778302 
L 863.141225 30.778302 
L 863.141225 32.292568 
L 863.765796 32.292568 
L 863.765796 32.462907 
L 864.390366 32.462907 
L 864.390366 32.810146 
L 865.014937 32.810146 
L 865.014937 33.927167 
L 865.639507 33.927167 
L 865.639507 32.750921 
L 866.888648 32.730553 
L 866.888648 31.054862 
L 867.513219 31.054862 
L 867.513219 30.716121 
L 868.137789 30.716121 
L 868.137789 30.215113 
L 868.76236 30.215113 
L 868.76236 31.896963 
L 869.38693 31.896963 
L 869.38693 31.182903 
L 870.011501 31.182903 
L 870.011501 32.021031 
L 870.636071 32.021031 
L 870.636071 30.165959 
L 871.260642 30.165959 
L 871.260642 29.449492 
L 871.885212 29.449492 
L 871.885212 29.76518 
L 873.134353 29.870531 
L 873.134353 28.325502 
L 873.758924 28.325502 
L 873.758924 29.355558 
L 874.383494 29.355558 
L 874.383494 27.342418 
L 875.008065 27.342418 
L 875.008065 24.187724 
L 875.632635 24.187724 
L 875.632635 23.659539 
L 876.257206 23.659539 
L 876.257206 23.371008 
L 876.881776 23.371008 
L 876.881776 22.218433 
L 877.506347 22.218433 
L 877.506347 22.599071 
L 878.130917 22.599071 
L 878.130917 22.322988 
L 880.004629 22.283054 
L 880.004629 21.46784 
L 880.629199 21.46784 
L 880.629199 20.552727 
L 881.25377 20.552727 
L 881.25377 22.332795 
L 881.87834 22.332795 
L 881.87834 21.905271 
L 882.502911 21.905271 
L 882.502911 23.116668 
L 883.127481 23.116668 
L 883.127481 22.410647 
L 883.752052 22.410647 
L 883.752052 21.311557 
L 884.376622 21.311557 
L 884.376622 22.865636 
L 885.001193 22.865636 
L 885.001193 22.479054 
L 885.625763 22.479054 
L 885.625763 20.888923 
L 886.250334 20.888923 
L 886.250334 21.03924 
L 887.194182 21.004612 
L 887.194182 21.004612 
" clip-path="url(#p49f131f8ad)" style="fill: none; stroke: #3572c6; stroke-width: 1.2; stroke-linecap: square"/>
   </g>
   <g id="line2d_77">
    <path d="M 75.557818 20.552727 
L 887.194182 20.552727 
L 887.194182 20.552727 
" clip-path="url(#p49f131f8ad)" style="fill: none; stroke: #83a83b; stroke-width: 1.2; stroke-linecap: square"/>
   </g>
   <g id="line2d_78">
    <path d="M 75.557818 23.116668 
L 887.194182 23.116668 
L 887.194182 23.116668 
" clip-path="url(#p49f131f8ad)" style="fill: none; stroke: #c44e52; stroke-width: 1.2; stroke-linecap: square"/>
   </g>
   <g id="line2d_79">
    <path d="M 881.25377 300.96 
L 881.25377 7.2 
" clip-path="url(#p49f131f8ad)" style="fill: none; stroke: #83a83b; stroke-width: 1.2; stroke-linecap: square"/>
   </g>
   <g id="line2d_80">
    <path d="M 883.127481 300.96 
L 883.127481 7.2 
" clip-path="url(#p49f131f8ad)" style="fill: none; stroke: #c44e52; stroke-width: 1.2; stroke-linecap: square"/>
   </g>
   <g id="patch_3">
    <path d="M 34.976 300.96 
L 34.976 7.2 
" style="fill: none; stroke: #899ab8; stroke-width: 1.12; stroke-linejoin: miter; stroke-linecap: square"/>
   </g>
   <g id="patch_4">
    <path d="M 927.776 300.96 
L 927.776 7.2 
" style="fill: none; stroke: #899ab8; stroke-width: 1.12; stroke-linejoin: miter; stroke-linecap: square"/>
   </g>
   <g id="patch_5">
    <path d="M 34.976 300.96 
L 927.776 300.96 
" style="fill: none; stroke: #899ab8; stroke-width: 1.12; stroke-linejoin: miter; stroke-linecap: square"/>
   </g>
   <g id="patch_6">
    <path d="M 34.976 7.2 
L 927.776 7.2 
" style="fill: none; stroke: #899ab8; stroke-width: 1.12; stroke-linejoin: miter; stroke-linecap: square"/>
   </g>
   <g id="text_15">
    <!-- 106156.01 -->
    <g style="fill: #83a83b" transform="translate(189.541935 20.552727) scale(0.132 -0.132)">
     <defs>
      <path id="DejaVuSans-2e" d="M 684 794 
L 1344 794 
L 1344 0 
L 684 0 
L 684 794 
z
" transform="scale(0.015625)"/>
     </defs>
     <use xlink:href="#DejaVuSans-31"/>
     <use xlink:href="#DejaVuSans-30" transform="translate(63.623047 0)"/>
     <use xlink:href="#DejaVuSans-36" transform="translate(127.246094 0)"/>
     <use xlink:href="#DejaVuSans-31" transform="translate(190.869141 0)"/>
     <use xlink:href="#DejaVuSans-35" transform="translate(254.492188 0)"/>
     <use xlink:href="#DejaVuSans-36" transform="translate(318.115234 0)"/>
     <use xlink:href="#DejaVuSans-2e" transform="translate(381.738281 0)"/>
     <use xlink:href="#DejaVuSans-30" transform="translate(413.525391 0)"/>
     <use xlink:href="#DejaVuSans-31" transform="translate(477.148438 0)"/>
    </g>
   </g>
   <g id="text_16">
    <!-- 93536.42 -->
    <g style="fill: #c44e52" transform="translate(189.541935 23.116668) scale(0.132 -0.132)">
     <defs>
      <path id="DejaVuSans-39" d="M 703 97 
L 703 672 
Q 941 559 1184 500 
Q 1428 441 1663 441 
Q 2288 441 2617 861 
Q 2947 1281 2994 2138 
Q 2813 1869 2534 1725 
Q 2256 1581 1919 1581 
Q 1219 1581 811 2004 
Q 403 2428 403 3163 
Q 403 3881 828 4315 
Q 1253 4750 1959 4750 
Q 2769 4750 3195 4129 
Q 3622 3509 3622 2328 
Q 3622 1225 3098 567 
Q 2575 -91 1691 -91 
Q 1453 -91 1209 -44 
Q 966 3 703 97 
z
M 1959 2075 
Q 2384 2075 2632 2365 
Q 2881 2656 2881 3163 
Q 2881 3666 2632 3958 
Q 2384 4250 1959 4250 
Q 1534 4250 1286 3958 
Q 1038 3666 1038 3163 
Q 1038 2656 1286 2365 
Q 1534 2075 1959 2075 
z
" transform="scale(0.015625)"/>
     </defs>
     <use xlink:href="#DejaVuSans-39"/>
     <use xlink:href="#DejaVuSans-33" transform="translate(63.623047 0)"/>
     <use xlink:href="#DejaVuSans-35" transform="translate(127.246094 0)"/>
     <use xlink:href="#DejaVuSans-33" transform="translate(190.869141 0)"/>
     <use xlink:href="#DejaVuSans-36" transform="translate(254.492188 0)"/>
     <use xlink:href="#DejaVuSans-2e" transform="translate(318.115234 0)"/>
     <use xlink:href="#DejaVuSans-34" transform="translate(349.902344 0)"/>
     <use xlink:href="#DejaVuSans-32" transform="translate(413.525391 0)"/>
    </g>
   </g>
   <g id="legend_1">
    <g id="patch_7">
     <path d="M 43.796 183.886875 
L 142.133094 183.886875 
Q 144.653094 183.886875 144.653094 181.366875 
L 144.653094 126.793125 
Q 144.653094 124.273125 142.133094 124.273125 
L 43.796 124.273125 
Q 41.276 124.273125 41.276 126.793125 
L 41.276 181.366875 
Q 41.276 183.886875 43.796 183.886875 
z
" style="fill: #373e4b; opacity: 0.8; stroke: #cccccc; stroke-width: 0.16; stroke-linejoin: miter"/>
    </g>
    <g id="line2d_81">
     <path d="M 46.316 134.477156 
L 46.316 134.477156 
L 58.916 134.477156 
L 58.916 134.477156 
L 71.516 134.477156 
" style="fill: none; stroke: #3572c6; stroke-width: 1.2; stroke-linecap: square"/>
    </g>
    <g id="text_17">
     <!-- USD/BTC -->
     <g style="fill: #b1bed6" transform="translate(81.596 138.887156) scale(0.126 -0.126)">
      <defs>
       <path id="DejaVuSans-55" d="M 556 4666 
L 1191 4666 
L 1191 1831 
Q 1191 1081 1462 751 
Q 1734 422 2344 422 
Q 2950 422 3222 751 
Q 3494 1081 3494 1831 
L 3494 4666 
L 4128 4666 
L 4128 1753 
Q 4128 841 3676 375 
Q 3225 -91 2344 -91 
Q 1459 -91 1007 375 
Q 556 841 556 1753 
L 556 4666 
z
" transform="scale(0.015625)"/>
       <path id="DejaVuSans-53" d="M 3425 4513 
L 3425 3897 
Q 3066 4069 2747 4153 
Q 2428 4238 2131 4238 
Q 1616 4238 1336 4038 
Q 1056 3838 1056 3469 
Q 1056 3159 1242 3001 
Q 1428 2844 1947 2747 
L 2328 2669 
Q 3034 2534 3370 2195 
Q 3706 1856 3706 1288 
Q 3706 609 3251 259 
Q 2797 -91 1919 -91 
Q 1588 -91 1214 -16 
Q 841 59 441 206 
L 441 856 
Q 825 641 1194 531 
Q 1563 422 1919 422 
Q 2459 422 2753 634 
Q 3047 847 3047 1241 
Q 3047 1584 2836 1778 
Q 2625 1972 2144 2069 
L 1759 2144 
Q 1053 2284 737 2584 
Q 422 2884 422 3419 
Q 422 4038 858 4394 
Q 1294 4750 2059 4750 
Q 2388 4750 2728 4690 
Q 3069 4631 3425 4513 
z
" transform="scale(0.015625)"/>
       <path id="DejaVuSans-2f" d="M 1625 4666 
L 2156 4666 
L 531 -594 
L 0 -594 
L 1625 4666 
z
" transform="scale(0.015625)"/>
       <path id="DejaVuSans-42" d="M 1259 2228 
L 1259 519 
L 2272 519 
Q 2781 519 3026 730 
Q 3272 941 3272 1375 
Q 3272 1813 3026 2020 
Q 2781 2228 2272 2228 
L 1259 2228 
z
M 1259 4147 
L 1259 2741 
L 2194 2741 
Q 2656 2741 2882 2914 
Q 3109 3088 3109 3444 
Q 3109 3797 2882 3972 
Q 2656 4147 2194 4147 
L 1259 4147 
z
M 628 4666 
L 2241 4666 
Q 2963 4666 3353 4366 
Q 3744 4066 3744 3513 
Q 3744 3084 3544 2831 
Q 3344 2578 2956 2516 
Q 3422 2416 3680 2098 
Q 3938 1781 3938 1306 
Q 3938 681 3513 340 
Q 3088 0 2303 0 
L 628 0 
L 628 4666 
z
" transform="scale(0.015625)"/>
       <path id="DejaVuSans-54" d="M -19 4666 
L 3928 4666 
L 3928 4134 
L 2272 4134 
L 2272 0 
L 1638 0 
L 1638 4134 
L -19 4134 
L -19 4666 
z
" transform="scale(0.015625)"/>
       <path id="DejaVuSans-43" d="M 4122 4306 
L 4122 3641 
Q 3803 3938 3442 4084 
Q 3081 4231 2675 4231 
Q 1875 4231 1450 3742 
Q 1025 3253 1025 2328 
Q 1025 1406 1450 917 
Q 1875 428 2675 428 
Q 3081 428 3442 575 
Q 3803 722 4122 1019 
L 4122 359 
Q 3791 134 3420 21 
Q 3050 -91 2638 -91 
Q 1578 -91 968 557 
Q 359 1206 359 2328 
Q 359 3453 968 4101 
Q 1578 4750 2638 4750 
Q 3056 4750 3426 4639 
Q 3797 4528 4122 4306 
z
" transform="scale(0.015625)"/>
      </defs>
      <use xlink:href="#DejaVuSans-55"/>
      <use xlink:href="#DejaVuSans-53" transform="translate(73.193359 0)"/>
      <use xlink:href="#DejaVuSans-44" transform="translate(136.669922 0)"/>
      <use xlink:href="#DejaVuSans-2f" transform="translate(213.671875 0)"/>
      <use xlink:href="#DejaVuSans-42" transform="translate(247.363281 0)"/>
      <use xlink:href="#DejaVuSans-54" transform="translate(315.966797 0)"/>
      <use xlink:href="#DejaVuSans-43" transform="translate(371.175781 0)"/>
     </g>
    </g>
    <g id="line2d_82">
     <path d="M 46.316 152.971594 
L 46.316 152.971594 
L 58.916 152.971594 
L 58.916 152.971594 
L 71.516 152.971594 
" style="fill: none; stroke: #83a83b; stroke-width: 1.2; stroke-linecap: square"/>
    </g>
    <g id="text_18">
     <!-- Max -->
     <g style="fill: #b1bed6" transform="translate(81.596 157.381594) scale(0.126 -0.126)">
      <defs>
       <path id="DejaVuSans-4d" d="M 628 4666 
L 1569 4666 
L 2759 1491 
L 3956 4666 
L 4897 4666 
L 4897 0 
L 4281 0 
L 4281 4097 
L 3078 897 
L 2444 897 
L 1241 4097 
L 1241 0 
L 628 0 
L 628 4666 
z
" transform="scale(0.015625)"/>
       <path id="DejaVuSans-78" d="M 3513 3500 
L 2247 1797 
L 3578 0 
L 2900 0 
L 1881 1375 
L 863 0 
L 184 0 
L 1544 1831 
L 300 3500 
L 978 3500 
L 1906 2253 
L 2834 3500 
L 3513 3500 
z
" transform="scale(0.015625)"/>
      </defs>
      <use xlink:href="#DejaVuSans-4d"/>
      <use xlink:href="#DejaVuSans-61" transform="translate(86.279297 0)"/>
      <use xlink:href="#DejaVuSans-78" transform="translate(147.558594 0)"/>
     </g>
    </g>
    <g id="line2d_83">
     <path d="M 46.316 171.466031 
L 46.316 171.466031 
L 58.916 171.466031 
L 58.916 171.466031 
L 71.516 171.466031 
" style="fill: none; stroke: #c44e52; stroke-width: 1.2; stroke-linecap: square"/>
    </g>
    <g id="text_19">
     <!-- local_Min -->
     <g style="fill: #b1bed6" transform="translate(81.596 175.876031) scale(0.126 -0.126)">
      <defs>
       <path id="DejaVuSans-6c" d="M 603 4863 
L 1178 4863 
L 1178 0 
L 603 0 
L 603 4863 
z
" transform="scale(0.015625)"/>
       <path id="DejaVuSans-6f" d="M 1959 3097 
Q 1497 3097 1228 2736 
Q 959 2375 959 1747 
Q 959 1119 1226 758 
Q 1494 397 1959 397 
Q 2419 397 2687 759 
Q 2956 1122 2956 1747 
Q 2956 2369 2687 2733 
Q 2419 3097 1959 3097 
z
M 1959 3584 
Q 2709 3584 3137 3096 
Q 3566 2609 3566 1747 
Q 3566 888 3137 398 
Q 2709 -91 1959 -91 
Q 1206 -91 779 398 
Q 353 888 353 1747 
Q 353 2609 779 3096 
Q 1206 3584 1959 3584 
z
" transform="scale(0.015625)"/>
       <path id="DejaVuSans-63" d="M 3122 3366 
L 3122 2828 
Q 2878 2963 2633 3030 
Q 2388 3097 2138 3097 
Q 1578 3097 1268 2742 
Q 959 2388 959 1747 
Q 959 1106 1268 751 
Q 1578 397 2138 397 
Q 2388 397 2633 464 
Q 2878 531 3122 666 
L 3122 134 
Q 2881 22 2623 -34 
Q 2366 -91 2075 -91 
Q 1284 -91 818 406 
Q 353 903 353 1747 
Q 353 2603 823 3093 
Q 1294 3584 2113 3584 
Q 2378 3584 2631 3529 
Q 2884 3475 3122 3366 
z
" transform="scale(0.015625)"/>
       <path id="DejaVuSans-5f" d="M 3263 -1063 
L 3263 -1509 
L -63 -1509 
L -63 -1063 
L 3263 -1063 
z
" transform="scale(0.015625)"/>
       <path id="DejaVuSans-69" d="M 603 3500 
L 1178 3500 
L 1178 0 
L 603 0 
L 603 3500 
z
M 603 4863 
L 1178 4863 
L 1178 4134 
L 603 4134 
L 603 4863 
z
" transform="scale(0.015625)"/>
       <path id="DejaVuSans-6e" d="M 3513 2113 
L 3513 0 
L 2938 0 
L 2938 2094 
Q 2938 2591 2744 2837 
Q 2550 3084 2163 3084 
Q 1697 3084 1428 2787 
Q 1159 2491 1159 1978 
L 1159 0 
L 581 0 
L 581 3500 
L 1159 3500 
L 1159 2956 
Q 1366 3272 1645 3428 
Q 1925 3584 2291 3584 
Q 2894 3584 3203 3211 
Q 3513 2838 3513 2113 
z
" transform="scale(0.015625)"/>
      </defs>
      <use xlink:href="#DejaVuSans-6c"/>
      <use xlink:href="#DejaVuSans-6f" transform="translate(27.783203 0)"/>
      <use xlink:href="#DejaVuSans-63" transform="translate(88.964844 0)"/>
      <use xlink:href="#DejaVuSans-61" transform="translate(143.945312 0)"/>
      <use xlink:href="#DejaVuSans-6c" transform="translate(205.224609 0)"/>
      <use xlink:href="#DejaVuSans-5f" transform="translate(233.007812 0)"/>
      <use xlink:href="#DejaVuSans-4d" transform="translate(283.007812 0)"/>
      <use xlink:href="#DejaVuSans-69" transform="translate(369.287109 0)"/>
      <use xlink:href="#DejaVuSans-6e" transform="translate(397.070312 0)"/>
     </g>
    </g>
   </g>
  </g>
 </g>
 <defs>
  <clipPath id="p49f131f8ad">
   <rect x="34.976" y="7.2" width="892.8" height="293.76"/>
  </clipPath>
 </defs>
</svg>
