<?xml version="1.0" encoding="utf-8" standalone="no"?>
<!DOCTYPE svg PUBLIC "-//W3C//DTD SVG 1.1//EN"
  "http://www.w3.org/Graphics/SVG/1.1/DTD/svg11.dtd">
<svg xmlns:xlink="http://www.w3.org/1999/xlink" width="934.976pt" height="358.290693pt" viewBox="0 0 934.976 358.290693" xmlns="http://www.w3.org/2000/svg" version="1.1">
 <metadata>
  <rdf:RDF xmlns:dc="http://purl.org/dc/elements/1.1/" xmlns:cc="http://creativecommons.org/ns#" xmlns:rdf="http://www.w3.org/1999/02/22-rdf-syntax-ns#">
   <cc:Work>
    <dc:type rdf:resource="http://purl.org/dc/dcmitype/StillImage"/>
    <dc:date>2026-02-28T17:10:30.269614</dc:date>
    <dc:format>image/svg+xml</dc:format>
    <dc:creator>
     <cc:Agent>
      <dc:title>Matplotlib v3.10.8, https://matplotlib.org/</dc:title>
     </cc:Agent>
    </dc:creator>
   </cc:Work>
  </rdf:RDF>
 </metadata>
 <defs>
  <style type="text/css">*{stroke-linejoin: round; stroke-linecap: butt}</style>
 </defs>
 <g id="figure_1">
  <g id="patch_1">
   <path d="M 0 358.290693 
L 934.976 358.290693 
L 934.976 0 
L 0 0 
z
" style="fill: #373e4b"/>
  </g>
  <g id="axes_1">
   <g id="patch_2">
    <path d="M 34.976 300.96 
L 927.776 300.96 
L 927.776 7.2 
L 34.976 7.2 
z
" style="fill: #373e4b"/>
   </g>
   <g id="matplotlib.axis_1">
    <g id="xtick_1">
     <g id="line2d_1">
      <path d="M 137.180358 300.96 
L 137.180358 7.2 
" clip-path="url(#p138918502c)" style="fill: none; stroke: #546379; stroke-width: 1.12; stroke-linecap: square"/>
     </g>
     <g id="line2d_2"/>
     <g id="text_1">
      <!-- 2012 -->
      <g style="fill: #b1bed6" transform="translate(108.099318 330.884854) rotate(-30) scale(0.126 -0.126)">
       <defs>
        <path id="DejaVuSans-32" d="M 1228 531 
L 3431 531 
L 3431 0 
L 469 0 
L 469 531 
Q 828 903 1448 1529 
Q 2069 2156 2228 2338 
Q 2531 2678 2651 2914 
Q 2772 3150 2772 3378 
Q 2772 3750 2511 3984 
Q 2250 4219 1831 4219 
Q 1534 4219 1204 4116 
Q 875 4013 500 3803 
L 500 4441 
Q 881 4594 1212 4672 
Q 1544 4750 1819 4750 
Q 2544 4750 2975 4387 
Q 3406 4025 3406 3419 
Q 3406 3131 3298 2873 
Q 3191 2616 2906 2266 
Q 2828 2175 2409 1742 
Q 1991 1309 1228 531 
z
" transform="scale(0.015625)"/>
        <path id="DejaVuSans-30" d="M 2034 4250 
Q 1547 4250 1301 3770 
Q 1056 3291 1056 2328 
Q 1056 1369 1301 889 
Q 1547 409 2034 409 
Q 2525 409 2770 889 
Q 3016 1369 3016 2328 
Q 3016 3291 2770 3770 
Q 2525 4250 2034 4250 
z
M 2034 4750 
Q 2819 4750 3233 4129 
Q 3647 3509 3647 2328 
Q 3647 1150 3233 529 
Q 2819 -91 2034 -91 
Q 1250 -91 836 529 
Q 422 1150 422 2328 
Q 422 3509 836 4129 
Q 1250 4750 2034 4750 
z
" transform="scale(0.015625)"/>
        <path id="DejaVuSans-31" d="M 794 531 
L 1825 531 
L 1825 4091 
L 703 3866 
L 703 4441 
L 1819 4666 
L 2450 4666 
L 2450 531 
L 3481 531 
L 3481 0 
L 794 0 
L 794 531 
z
" transform="scale(0.015625)"/>
       </defs>
       <use xlink:href="#DejaVuSans-32"/>
       <use xlink:href="#DejaVuSans-30" transform="translate(63.623047 0)"/>
       <use xlink:href="#DejaVuSans-31" transform="translate(127.246094 0)"/>
       <use xlink:href="#DejaVuSans-32" transform="translate(190.869141 0)"/>
      </g>
     </g>
    </g>
    <g id="xtick_2">
     <g id="line2d_3">
      <path d="M 243.171127 300.96 
L 243.171127 7.2 
" clip-path="url(#p138918502c)" style="fill: none; stroke: #546379; stroke-width: 1.12; stroke-linecap: square"/>
     </g>
     <g id="line2d_4"/>
     <g id="text_2">
      <!-- 2014 -->
      <g style="fill: #b1bed6" transform="translate(214.090087 330.884854) rotate(-30) scale(0.126 -0.126)">
       <defs>
        <path id="DejaVuSans-34" d="M 2419 4116 
L 825 1625 
L 2419 1625 
L 2419 4116 
z
M 2253 4666 
L 3047 4666 
L 3047 1625 
L 3713 1625 
L 3713 1100 
L 3047 1100 
L 3047 0 
L 2419 0 
L 2419 1100 
L 313 1100 
L 313 1709 
L 2253 4666 
z
" transform="scale(0.015625)"/>
       </defs>
       <use xlink:href="#DejaVuSans-32"/>
       <use xlink:href="#DejaVuSans-30" transform="translate(63.623047 0)"/>
       <use xlink:href="#DejaVuSans-31" transform="translate(127.246094 0)"/>
       <use xlink:href="#DejaVuSans-34" transform="translate(190.869141 0)"/>
      </g>
     </g>
    </g>
    <g id="xtick_3">
     <g id="line2d_5">
      <path d="M 349.016901 300.96 
L 349.016901 7.2 
" clip-path="url(#p138918502c)" style="fill: none; stroke: #546379; stroke-width: 1.12; stroke-linecap: square"/>
     </g>
     <g id="line2d_6"/>
     <g id="text_3">
      <!-- 2016 -->
      <g style="fill: #b1bed6" transform="translate(319.935861 330.884854) rotate(-30) scale(0.126 -0.126)">
       <defs>
        <path id="DejaVuSans-36" d="M 2113 2584 
Q 1688 2584 1439 2293 
Q 1191 2003 1191 1497 
Q 1191 994 1439 701 
Q 1688 409 2113 409 
Q 2538 409 2786 701 
Q 3034 994 3034 1497 
Q 3034 2003 2786 2293 
Q 2538 2584 2113 2584 
z
M 3366 4563 
L 3366 3988 
Q 3128 4100 2886 4159 
Q 2644 4219 2406 4219 
Q 1781 4219 1451 3797 
Q 1122 3375 1075 2522 
Q 1259 2794 1537 2939 
Q 1816 3084 2150 3084 
Q 2853 3084 3261 2657 
Q 3669 2231 3669 1497 
Q 3669 778 3244 343 
Q 2819 -91 2113 -91 
Q 1303 -91 875 529 
Q 447 1150 447 2328 
Q 447 3434 972 4092 
Q 1497 4750 2381 4750 
Q 2619 4750 2861 4703 
Q 3103 4656 3366 4563 
z
" transform="scale(0.015625)"/>
       </defs>
       <use xlink:href="#DejaVuSans-32"/>
       <use xlink:href="#DejaVuSans-30" transform="translate(63.623047 0)"/>
       <use xlink:href="#DejaVuSans-31" transform="translate(127.246094 0)"/>
       <use xlink:href="#DejaVuSans-36" transform="translate(190.869141 0)"/>
      </g>
     </g>
    </g>
    <g id="xtick_4">
     <g id="line2d_7">
      <path d="M 455.00767 300.96 
L 455.00767 7.2 
" clip-path="url(#p138918502c)" style="fill: none; stroke: #546379; stroke-width: 1.12; stroke-linecap: square"/>
     </g>
     <g id="line2d_8"/>
     <g id="text_4">
      <!-- 2018 -->
      <g style="fill: #b1bed6" transform="translate(425.92663 330.884854) rotate(-30) scale(0.126 -0.126)">
       <defs>
        <path id="DejaVuSans-38" d="M 2034 2216 
Q 1584 2216 1326 1975 
Q 1069 1734 1069 1313 
Q 1069 891 1326 650 
Q 1584 409 2034 409 
Q 2484 409 2743 651 
Q 3003 894 3003 1313 
Q 3003 1734 2745 1975 
Q 2488 2216 2034 2216 
z
M 1403 2484 
Q 997 2584 770 2862 
Q 544 3141 544 3541 
Q 544 4100 942 4425 
Q 1341 4750 2034 4750 
Q 2731 4750 3128 4425 
Q 3525 4100 3525 3541 
Q 3525 3141 3298 2862 
Q 3072 2584 2669 2484 
Q 3125 2378 3379 2068 
Q 3634 1759 3634 1313 
Q 3634 634 3220 271 
Q 2806 -91 2034 -91 
Q 1263 -91 848 271 
Q 434 634 434 1313 
Q 434 1759 690 2068 
Q 947 2378 1403 2484 
z
M 1172 3481 
Q 1172 3119 1398 2916 
Q 1625 2713 2034 2713 
Q 2441 2713 2670 2916 
Q 2900 3119 2900 3481 
Q 2900 3844 2670 4047 
Q 2441 4250 2034 4250 
Q 1625 4250 1398 4047 
Q 1172 3844 1172 3481 
z
" transform="scale(0.015625)"/>
       </defs>
       <use xlink:href="#DejaVuSans-32"/>
       <use xlink:href="#DejaVuSans-30" transform="translate(63.623047 0)"/>
       <use xlink:href="#DejaVuSans-31" transform="translate(127.246094 0)"/>
       <use xlink:href="#DejaVuSans-38" transform="translate(190.869141 0)"/>
      </g>
     </g>
    </g>
    <g id="xtick_5">
     <g id="line2d_9">
      <path d="M 560.853444 300.96 
L 560.853444 7.2 
" clip-path="url(#p138918502c)" style="fill: none; stroke: #546379; stroke-width: 1.12; stroke-linecap: square"/>
     </g>
     <g id="line2d_10"/>
     <g id="text_5">
      <!-- 2020 -->
      <g style="fill: #b1bed6" transform="translate(531.772405 330.884854) rotate(-30) scale(0.126 -0.126)">
       <use xlink:href="#DejaVuSans-32"/>
       <use xlink:href="#DejaVuSans-30" transform="translate(63.623047 0)"/>
       <use xlink:href="#DejaVuSans-32" transform="translate(127.246094 0)"/>
       <use xlink:href="#DejaVuSans-30" transform="translate(190.869141 0)"/>
      </g>
     </g>
    </g>
    <g id="xtick_6">
     <g id="line2d_11">
      <path d="M 666.844213 300.96 
L 666.844213 7.2 
" clip-path="url(#p138918502c)" style="fill: none; stroke: #546379; stroke-width: 1.12; stroke-linecap: square"/>
     </g>
     <g id="line2d_12"/>
     <g id="text_6">
      <!-- 2022 -->
      <g style="fill: #b1bed6" transform="translate(637.763173 330.884854) rotate(-30) scale(0.126 -0.126)">
       <use xlink:href="#DejaVuSans-32"/>
       <use xlink:href="#DejaVuSans-30" transform="translate(63.623047 0)"/>
       <use xlink:href="#DejaVuSans-32" transform="translate(127.246094 0)"/>
       <use xlink:href="#DejaVuSans-32" transform="translate(190.869141 0)"/>
      </g>
     </g>
    </g>
    <g id="xtick_7">
     <g id="line2d_13">
      <path d="M 772.689987 300.96 
L 772.689987 7.2 
" clip-path="url(#p138918502c)" style="fill: none; stroke: #546379; stroke-width: 1.12; stroke-linecap: square"/>
     </g>
     <g id="line2d_14"/>
     <g id="text_7">
      <!-- 2024 -->
      <g style="fill: #b1bed6" transform="translate(743.608948 330.884854) rotate(-30) scale(0.126 -0.126)">
       <use xlink:href="#DejaVuSans-32"/>
       <use xlink:href="#DejaVuSans-30" transform="translate(63.623047 0)"/>
       <use xlink:href="#DejaVuSans-32" transform="translate(127.246094 0)"/>
       <use xlink:href="#DejaVuSans-34" transform="translate(190.869141 0)"/>
      </g>
     </g>
    </g>
    <g id="xtick_8">
     <g id="line2d_15">
      <path d="M 878.680756 300.96 
L 878.680756 7.2 
" clip-path="url(#p138918502c)" style="fill: none; stroke: #546379; stroke-width: 1.12; stroke-linecap: square"/>
     </g>
     <g id="line2d_16"/>
     <g id="text_8">
      <!-- 2026 -->
      <g style="fill: #b1bed6" transform="translate(849.599716 330.884854) rotate(-30) scale(0.126 -0.126)">
       <use xlink:href="#DejaVuSans-32"/>
       <use xlink:href="#DejaVuSans-30" transform="translate(63.623047 0)"/>
       <use xlink:href="#DejaVuSans-32" transform="translate(127.246094 0)"/>
       <use xlink:href="#DejaVuSans-36" transform="translate(190.869141 0)"/>
      </g>
     </g>
    </g>
    <g id="text_9">
     <!-- Date -->
     <g style="fill: #b1bed6" transform="translate(464.166875 348.095943) scale(0.144 -0.144)">
      <defs>
       <path id="DejaVuSans-44" d="M 1259 4147 
L 1259 519 
L 2022 519 
Q 2988 519 3436 956 
Q 3884 1394 3884 2338 
Q 3884 3275 3436 3711 
Q 2988 4147 2022 4147 
L 1259 4147 
z
M 628 4666 
L 1925 4666 
Q 3281 4666 3915 4102 
Q 4550 3538 4550 2338 
Q 4550 1131 3912 565 
Q 3275 0 1925 0 
L 628 0 
L 628 4666 
z
" transform="scale(0.015625)"/>
       <path id="DejaVuSans-61" d="M 2194 1759 
Q 1497 1759 1228 1600 
Q 959 1441 959 1056 
Q 959 750 1161 570 
Q 1363 391 1709 391 
Q 2188 391 2477 730 
Q 2766 1069 2766 1631 
L 2766 1759 
L 2194 1759 
z
M 3341 1997 
L 3341 0 
L 2766 0 
L 2766 531 
Q 2569 213 2275 61 
Q 1981 -91 1556 -91 
Q 1019 -91 701 211 
Q 384 513 384 1019 
Q 384 1609 779 1909 
Q 1175 2209 1959 2209 
L 2766 2209 
L 2766 2266 
Q 2766 2663 2505 2880 
Q 2244 3097 1772 3097 
Q 1472 3097 1187 3025 
Q 903 2953 641 2809 
L 641 3341 
Q 956 3463 1253 3523 
Q 1550 3584 1831 3584 
Q 2591 3584 2966 3190 
Q 3341 2797 3341 1997 
z
" transform="scale(0.015625)"/>
       <path id="DejaVuSans-74" d="M 1172 4494 
L 1172 3500 
L 2356 3500 
L 2356 3053 
L 1172 3053 
L 1172 1153 
Q 1172 725 1289 603 
Q 1406 481 1766 481 
L 2356 481 
L 2356 0 
L 1766 0 
Q 1100 0 847 248 
Q 594 497 594 1153 
L 594 3053 
L 172 3053 
L 172 3500 
L 594 3500 
L 594 4494 
L 1172 4494 
z
" transform="scale(0.015625)"/>
       <path id="DejaVuSans-65" d="M 3597 1894 
L 3597 1613 
L 953 1613 
Q 991 1019 1311 708 
Q 1631 397 2203 397 
Q 2534 397 2845 478 
Q 3156 559 3463 722 
L 3463 178 
Q 3153 47 2828 -22 
Q 2503 -91 2169 -91 
Q 1331 -91 842 396 
Q 353 884 353 1716 
Q 353 2575 817 3079 
Q 1281 3584 2069 3584 
Q 2775 3584 3186 3129 
Q 3597 2675 3597 1894 
z
M 3022 2063 
Q 3016 2534 2758 2815 
Q 2500 3097 2075 3097 
Q 1594 3097 1305 2825 
Q 1016 2553 972 2059 
L 3022 2063 
z
" transform="scale(0.015625)"/>
      </defs>
      <use xlink:href="#DejaVuSans-44"/>
      <use xlink:href="#DejaVuSans-61" transform="translate(77.001953 0)"/>
      <use xlink:href="#DejaVuSans-74" transform="translate(138.28125 0)"/>
      <use xlink:href="#DejaVuSans-65" transform="translate(177.490234 0)"/>
     </g>
    </g>
   </g>
   <g id="matplotlib.axis_2">
    <g id="ytick_1">
     <g id="line2d_17">
      <path d="M 34.976 255.37232 
L 927.776 255.37232 
" clip-path="url(#p138918502c)" style="fill: none; stroke: #546379; stroke-width: 1.12; stroke-linecap: square"/>
     </g>
     <g id="line2d_18"/>
     <g id="text_10">
      <!-- $\mathdefault{10^{0}}$ -->
      <g style="fill: #b1bed6" transform="translate(7.2 260.159335) scale(0.126 -0.126)">
       <use xlink:href="#DejaVuSans-31" transform="translate(0 0.765625)"/>
       <use xlink:href="#DejaVuSans-30" transform="translate(63.623047 0.765625)"/>
       <use xlink:href="#DejaVuSans-30" transform="translate(128.203125 39.046875) scale(0.7)"/>
      </g>
     </g>
    </g>
    <g id="ytick_2">
     <g id="line2d_19">
      <path d="M 34.976 209.254528 
L 927.776 209.254528 
" clip-path="url(#p138918502c)" style="fill: none; stroke: #546379; stroke-width: 1.12; stroke-linecap: square"/>
     </g>
     <g id="line2d_20"/>
     <g id="text_11">
      <!-- $\mathdefault{10^{1}}$ -->
      <g style="fill: #b1bed6" transform="translate(7.2 214.041544) scale(0.126 -0.126)">
       <use xlink:href="#DejaVuSans-31" transform="translate(0 0.684375)"/>
       <use xlink:href="#DejaVuSans-30" transform="translate(63.623047 0.684375)"/>
       <use xlink:href="#DejaVuSans-31" transform="translate(128.203125 38.965625) scale(0.7)"/>
      </g>
     </g>
    </g>
    <g id="ytick_3">
     <g id="line2d_21">
      <path d="M 34.976 163.136737 
L 927.776 163.136737 
" clip-path="url(#p138918502c)" style="fill: none; stroke: #546379; stroke-width: 1.12; stroke-linecap: square"/>
     </g>
     <g id="line2d_22"/>
     <g id="text_12">
      <!-- $\mathdefault{10^{2}}$ -->
      <g style="fill: #b1bed6" transform="translate(7.2 167.923752) scale(0.126 -0.126)">
       <use xlink:href="#DejaVuSans-31" transform="translate(0 0.765625)"/>
       <use xlink:href="#DejaVuSans-30" transform="translate(63.623047 0.765625)"/>
       <use xlink:href="#DejaVuSans-32" transform="translate(128.203125 39.046875) scale(0.7)"/>
      </g>
     </g>
    </g>
    <g id="ytick_4">
     <g id="line2d_23">
      <path d="M 34.976 117.018945 
L 927.776 117.018945 
" clip-path="url(#p138918502c)" style="fill: none; stroke: #546379; stroke-width: 1.12; stroke-linecap: square"/>
     </g>
     <g id="line2d_24"/>
     <g id="text_13">
      <!-- $\mathdefault{10^{3}}$ -->
      <g style="fill: #b1bed6" transform="translate(7.2 121.805961) scale(0.126 -0.126)">
       <defs>
        <path id="DejaVuSans-33" d="M 2597 2516 
Q 3050 2419 3304 2112 
Q 3559 1806 3559 1356 
Q 3559 666 3084 287 
Q 2609 -91 1734 -91 
Q 1441 -91 1130 -33 
Q 819 25 488 141 
L 488 750 
Q 750 597 1062 519 
Q 1375 441 1716 441 
Q 2309 441 2620 675 
Q 2931 909 2931 1356 
Q 2931 1769 2642 2001 
Q 2353 2234 1838 2234 
L 1294 2234 
L 1294 2753 
L 1863 2753 
Q 2328 2753 2575 2939 
Q 2822 3125 2822 3475 
Q 2822 3834 2567 4026 
Q 2313 4219 1838 4219 
Q 1578 4219 1281 4162 
Q 984 4106 628 3988 
L 628 4550 
Q 988 4650 1302 4700 
Q 1616 4750 1894 4750 
Q 2613 4750 3031 4423 
Q 3450 4097 3450 3541 
Q 3450 3153 3228 2886 
Q 3006 2619 2597 2516 
z
" transform="scale(0.015625)"/>
       </defs>
       <use xlink:href="#DejaVuSans-31" transform="translate(0 0.765625)"/>
       <use xlink:href="#DejaVuSans-30" transform="translate(63.623047 0.765625)"/>
       <use xlink:href="#DejaVuSans-33" transform="translate(128.203125 39.046875) scale(0.7)"/>
      </g>
     </g>
    </g>
    <g id="ytick_5">
     <g id="line2d_25">
      <path d="M 34.976 70.901154 
L 927.776 70.901154 
" clip-path="url(#p138918502c)" style="fill: none; stroke: #546379; stroke-width: 1.12; stroke-linecap: square"/>
     </g>
     <g id="line2d_26"/>
     <g id="text_14">
      <!-- $\mathdefault{10^{4}}$ -->
      <g style="fill: #b1bed6" transform="translate(7.2 75.688169) scale(0.126 -0.126)">
       <use xlink:href="#DejaVuSans-31" transform="translate(0 0.684375)"/>
       <use xlink:href="#DejaVuSans-30" transform="translate(63.623047 0.684375)"/>
       <use xlink:href="#DejaVuSans-34" transform="translate(128.203125 38.965625) scale(0.7)"/>
      </g>
     </g>
    </g>
    <g id="ytick_6">
     <g id="line2d_27">
      <path d="M 34.976 24.783362 
L 927.776 24.783362 
" clip-path="url(#p138918502c)" style="fill: none; stroke: #546379; stroke-width: 1.12; stroke-linecap: square"/>
     </g>
     <g id="line2d_28"/>
     <g id="text_15">
      <!-- $\mathdefault{10^{5}}$ -->
      <g style="fill: #b1bed6" transform="translate(7.2 29.570378) scale(0.126 -0.126)">
       <defs>
        <path id="DejaVuSans-35" d="M 691 4666 
L 3169 4666 
L 3169 4134 
L 1269 4134 
L 1269 2991 
Q 1406 3038 1543 3061 
Q 1681 3084 1819 3084 
Q 2600 3084 3056 2656 
Q 3513 2228 3513 1497 
Q 3513 744 3044 326 
Q 2575 -91 1722 -91 
Q 1428 -91 1123 -41 
Q 819 9 494 109 
L 494 744 
Q 775 591 1075 516 
Q 1375 441 1709 441 
Q 2250 441 2565 725 
Q 2881 1009 2881 1497 
Q 2881 1984 2565 2268 
Q 2250 2553 1709 2553 
Q 1456 2553 1204 2497 
Q 953 2441 691 2322 
L 691 4666 
z
" transform="scale(0.015625)"/>
       </defs>
       <use xlink:href="#DejaVuSans-31" transform="translate(0 0.684375)"/>
       <use xlink:href="#DejaVuSans-30" transform="translate(63.623047 0.684375)"/>
       <use xlink:href="#DejaVuSans-35" transform="translate(128.203125 38.965625) scale(0.7)"/>
      </g>
     </g>
    </g>
    <g id="ytick_7">
     <g id="line2d_29"/>
    </g>
    <g id="ytick_8">
     <g id="line2d_30"/>
    </g>
    <g id="ytick_9">
     <g id="line2d_31"/>
    </g>
    <g id="ytick_10">
     <g id="line2d_32"/>
    </g>
    <g id="ytick_11">
     <g id="line2d_33"/>
    </g>
    <g id="ytick_12">
     <g id="line2d_34"/>
    </g>
    <g id="ytick_13">
     <g id="line2d_35"/>
    </g>
    <g id="ytick_14">
     <g id="line2d_36"/>
    </g>
    <g id="ytick_15">
     <g id="line2d_37"/>
    </g>
    <g id="ytick_16">
     <g id="line2d_38"/>
    </g>
    <g id="ytick_17">
     <g id="line2d_39"/>
    </g>
    <g id="ytick_18">
     <g id="line2d_40"/>
    </g>
    <g id="ytick_19">
     <g id="line2d_41"/>
    </g>
    <g id="ytick_20">
     <g id="line2d_42"/>
    </g>
    <g id="ytick_21">
     <g id="line2d_43"/>
    </g>
    <g id="ytick_22">
     <g id="line2d_44"/>
    </g>
    <g id="ytick_23">
     <g id="line2d_45"/>
    </g>
    <g id="ytick_24">
     <g id="line2d_46"/>
    </g>
    <g id="ytick_25">
     <g id="line2d_47"/>
    </g>
    <g id="ytick_26">
     <g id="line2d_48"/>
    </g>
    <g id="ytick_27">
     <g id="line2d_49"/>
    </g>
    <g id="ytick_28">
     <g id="line2d_50"/>
    </g>
    <g id="ytick_29">
     <g id="line2d_51"/>
    </g>
    <g id="ytick_30">
     <g id="line2d_52"/>
    </g>
    <g id="ytick_31">
     <g id="line2d_53"/>
    </g>
    <g id="ytick_32">
     <g id="line2d_54"/>
    </g>
    <g id="ytick_33">
     <g id="line2d_55"/>
    </g>
    <g id="ytick_34">
     <g id="line2d_56"/>
    </g>
    <g id="ytick_35">
     <g id="line2d_57"/>
    </g>
    <g id="ytick_36">
     <g id="line2d_58"/>
    </g>
    <g id="ytick_37">
     <g id="line2d_59"/>
    </g>
    <g id="ytick_38">
     <g id="line2d_60"/>
    </g>
    <g id="ytick_39">
     <g id="line2d_61"/>
    </g>
    <g id="ytick_40">
     <g id="line2d_62"/>
    </g>
    <g id="ytick_41">
     <g id="line2d_63"/>
    </g>
    <g id="ytick_42">
     <g id="line2d_64"/>
    </g>
    <g id="ytick_43">
     <g id="line2d_65"/>
    </g>
    <g id="ytick_44">
     <g id="line2d_66"/>
    </g>
    <g id="ytick_45">
     <g id="line2d_67"/>
    </g>
    <g id="ytick_46">
     <g id="line2d_68"/>
    </g>
    <g id="ytick_47">
     <g id="line2d_69"/>
    </g>
    <g id="ytick_48">
     <g id="line2d_70"/>
    </g>
    <g id="ytick_49">
     <g id="line2d_71"/>
    </g>
    <g id="ytick_50">
     <g id="line2d_72"/>
    </g>
    <g id="ytick_51">
     <g id="line2d_73"/>
    </g>
    <g id="ytick_52">
     <g id="line2d_74"/>
    </g>
    <g id="ytick_53">
     <g id="line2d_75"/>
    </g>
    <g id="ytick_54">
     <g id="line2d_76"/>
    </g>
    <g id="ytick_55">
     <g id="line2d_77"/>
    </g>
   </g>
   <g id="line2d_78">
    <path d="M 75.557818 287.607273 
L 75.557818 283.137997 
L 76.137795 283.137997 
L 76.137795 278.19371 
L 76.717772 278.19371 
L 76.717772 279.486333 
L 77.297749 279.486333 
L 77.297749 280.86817 
L 77.877726 280.86817 
L 77.877726 280.165337 
L 78.457702 280.165337 
L 78.457702 280.86817 
L 79.617656 280.86817 
L 79.617656 282.352457 
L 80.197633 282.352457 
L 80.197633 284.808022 
L 81.357587 284.808022 
L 81.357587 283.137997 
L 81.937563 283.137997 
L 81.937563 282.352457 
L 82.51754 282.352457 
L 82.51754 283.137997 
L 83.097517 283.137997 
L 83.097517 281.596567 
L 83.677494 281.596567 
L 83.677494 279.486333 
L 84.837448 279.486333 
L 84.837448 278.19371 
L 85.417425 278.19371 
L 85.417425 275.834669 
L 85.997401 275.834669 
L 85.997401 273.724434 
L 86.577378 273.724434 
L 86.577378 274.751772 
L 87.157355 274.751772 
L 87.157355 271.815495 
L 87.737332 271.815495 
L 87.737332 271.365393 
L 88.317309 271.365393 
L 88.317309 257.042345 
L 89.477262 257.042345 
L 89.477262 255.982378 
L 90.057239 255.982378 
L 90.057239 253.83089 
L 90.637216 253.83089 
L 90.637216 254.395116 
L 91.217193 254.395116 
L 91.217193 257.932656 
L 91.79717 257.932656 
L 91.79717 255.37232 
L 92.377147 255.37232 
L 92.377147 255.982378 
L 92.957124 255.982378 
L 92.957124 257.042345 
L 93.5371 257.042345 
L 93.5371 257.932656 
L 94.117077 257.932656 
L 94.117077 257.26124 
L 94.697054 257.26124 
L 94.697054 258.161558 
L 95.277031 258.161558 
L 95.277031 260.093532 
L 95.857008 260.093532 
L 95.857008 257.706341 
L 96.436985 257.706341 
L 96.436985 259.841596 
L 97.596938 259.841596 
L 97.596938 261.134218 
L 98.176915 261.134218 
L 98.176915 260.868934 
L 98.756892 260.868934 
L 98.756892 255.776954 
L 99.336869 255.776954 
L 99.336869 251.720656 
L 99.916846 251.720656 
L 99.916846 248.921405 
L 100.496823 248.921405 
L 100.496823 243.823502 
L 101.076799 243.823502 
L 101.076799 226.917627 
L 101.656776 226.917627 
L 101.656776 229.940664 
L 102.236753 229.940664 
L 102.236753 228.062436 
L 102.81673 228.062436 
L 102.81673 217.729074 
L 103.396707 217.729074 
L 103.396707 212.580386 
L 103.976684 212.580386 
L 103.976684 216.455571 
L 104.55666 216.455571 
L 104.55666 215.640255 
L 105.136637 215.640255 
L 105.136637 212.089863 
L 105.716614 212.089863 
L 105.716614 209.926627 
L 106.296591 209.926627 
L 106.296591 196.34639 
L 106.876568 196.34639 
L 106.876568 185.746445 
L 107.456545 185.746445 
L 107.456545 192.005794 
L 108.036522 192.005794 
L 108.036522 196.536537 
L 108.616498 196.536537 
L 108.616498 200.619497 
L 109.196475 200.619497 
L 109.196475 197.954799 
L 109.776452 197.954799 
L 109.776452 198.218565 
L 110.356429 198.218565 
L 110.356429 200.169105 
L 110.936406 200.169105 
L 110.936406 199.716176 
L 111.516383 199.716176 
L 111.516383 201.040338 
L 112.096359 201.040338 
L 112.096359 202.160926 
L 112.676336 202.160926 
L 112.676336 201.757417 
L 113.256313 201.757417 
L 113.256313 202.615821 
L 113.83629 202.615821 
L 113.83629 202.372872 
L 114.416267 202.372872 
L 114.416267 201.702393 
L 114.996244 201.702393 
L 114.996244 206.455278 
L 115.576221 206.455278 
L 115.576221 209.94735 
L 116.156197 209.94735 
L 116.156197 209.395222 
L 116.736174 209.395222 
L 116.736174 206.700602 
L 117.316151 206.700602 
L 117.316151 206.024537 
L 117.896128 206.024537 
L 117.896128 206.806668 
L 118.476105 206.806668 
L 118.476105 210.324077 
L 119.056082 210.324077 
L 119.056082 212.604047 
L 119.636058 212.604047 
L 119.636058 213.058992 
L 120.216035 213.058992 
L 120.216035 217.097011 
L 120.796012 217.097011 
L 120.796012 218.861295 
L 121.375989 218.861295 
L 121.375989 223.057412 
L 121.955966 223.057412 
L 121.955966 218.893678 
L 122.535943 218.893678 
L 122.535943 221.264877 
L 123.11592 221.264877 
L 123.11592 223.379165 
L 123.695896 223.379165 
L 123.695896 222.898453 
L 124.275873 222.898453 
L 124.275873 223.996748 
L 124.85585 223.996748 
L 124.85585 226.821103 
L 125.435827 226.821103 
L 125.435827 227.556633 
L 126.015804 227.556633 
L 126.015804 236.311847 
L 126.595781 236.311847 
L 126.595781 231.338582 
L 127.175757 231.338582 
L 127.175757 232.711804 
L 127.755734 232.711804 
L 127.755734 230.97985 
L 128.335711 230.97985 
L 128.335711 231.951129 
L 128.915688 231.951129 
L 128.915688 232.138606 
L 129.495665 232.138606 
L 129.495665 232.647299 
L 130.075642 232.647299 
L 130.075642 236.234665 
L 130.655619 236.234665 
L 130.655619 237.424839 
L 131.235595 237.424839 
L 131.235595 237.181079 
L 131.815572 237.181079 
L 131.815572 235.928878 
L 132.395549 235.928878 
L 132.395549 232.455022 
L 132.975526 232.455022 
L 132.975526 232.97192 
L 133.555503 232.97192 
L 133.555503 232.583001 
L 134.13548 232.583001 
L 134.13548 231.703858 
L 134.715456 231.703858 
L 134.715456 231.098715 
L 135.295433 231.098715 
L 135.295433 227.707037 
L 135.87541 227.707037 
L 135.87541 226.39241 
L 136.455387 226.39241 
L 136.455387 225.381573 
L 137.035364 225.381573 
L 137.035364 221.707518 
L 137.615341 221.707518 
L 137.615341 216.227322 
L 138.195318 216.227322 
L 138.195318 216.114165 
L 138.775294 216.114165 
L 138.775294 216.284141 
L 139.355271 216.284141 
L 139.355271 218.287185 
L 139.935248 218.287185 
L 139.935248 217.975205 
L 140.515225 217.975205 
L 140.515225 220.513041 
L 141.095202 220.513041 
L 141.095202 220.689506 
L 141.675179 220.689506 
L 141.675179 219.519112 
L 142.255155 219.519112 
L 142.255155 220.027052 
L 143.415109 220.095761 
L 143.415109 224.206915 
L 143.995086 224.206915 
L 143.995086 225.247601 
L 144.575063 225.247601 
L 144.575063 222.467712 
L 145.15504 222.467712 
L 145.15504 223.217642 
L 145.735017 223.217642 
L 145.735017 223.913295 
L 146.314993 223.913295 
L 146.314993 222.938075 
L 146.89497 222.938075 
L 146.89497 223.217642 
L 147.474947 223.217642 
L 147.474947 221.448123 
L 148.054924 221.448123 
L 148.054924 222.236609 
L 148.634901 222.236609 
L 148.634901 223.913295 
L 149.214878 223.913295 
L 149.214878 224.080551 
L 149.794854 224.080551 
L 149.794854 223.379165 
L 150.954808 223.298241 
L 150.954808 223.954978 
L 151.534785 223.954978 
L 151.534785 223.257901 
L 152.694739 223.177464 
L 152.694739 222.198349 
L 153.274716 222.198349 
L 153.274716 222.390381 
L 153.854692 222.390381 
L 153.854692 222.780056 
L 154.434669 222.780056 
L 154.434669 222.429009 
L 155.014646 222.429009 
L 155.014646 222.740746 
L 156.1746 222.740746 
L 156.1746 222.938075 
L 156.754577 222.938075 
L 156.754577 222.623275 
L 158.494507 222.545342 
L 158.494507 222.429009 
L 159.074484 222.429009 
L 159.074484 222.084008 
L 159.654461 222.084008 
L 159.654461 221.011116 
L 160.814415 220.939199 
L 160.814415 218.604102 
L 161.394391 218.604102 
L 161.394391 217.698519 
L 161.974368 217.698519 
L 161.974368 217.455744 
L 162.554345 217.455744 
L 162.554345 217.637549 
L 163.134322 217.637549 
L 163.134322 217.245703 
L 163.714299 217.245703 
L 163.714299 217.097011 
L 164.294276 217.097011 
L 164.294276 216.455571 
L 164.874253 216.455571 
L 164.874253 214.102908 
L 165.454229 214.102908 
L 165.454229 210.345215 
L 166.034206 210.345215 
L 166.034206 210.218718 
L 166.614183 210.218718 
L 166.614183 211.814865 
L 167.19416 211.814865 
L 167.19416 211.476343 
L 167.774137 211.476343 
L 167.774137 209.015614 
L 168.354114 209.015614 
L 168.354114 206.931125 
L 168.93409 206.931125 
L 168.93409 206.281868 
L 169.514067 206.281868 
L 169.514067 205.108303 
L 170.094044 205.108303 
L 170.094044 201.840237 
L 170.674021 201.840237 
L 170.674021 208.740437 
L 171.253998 208.740437 
L 171.253998 207.363805 
L 171.833975 207.363805 
L 171.833975 207.510134 
L 172.413952 207.510134 
L 172.413952 208.239211 
L 172.993928 208.239211 
L 172.993928 206.859912 
L 174.153882 206.913298 
L 174.153882 205.87171 
L 174.733859 205.87171 
L 174.733859 204.57803 
L 175.313836 204.57803 
L 175.313836 205.140897 
L 175.893813 205.140897 
L 175.893813 204.849447 
L 176.473789 204.849447 
L 176.473789 204.657477 
L 177.053766 204.657477 
L 177.053766 204.045986 
L 177.633743 204.045986 
L 177.633743 205.108303 
L 178.21372 205.108303 
L 178.21372 205.43665 
L 178.793697 205.43665 
L 178.793697 205.636273 
L 179.373674 205.636273 
L 179.373674 205.939489 
L 179.953651 205.939489 
L 179.953651 206.351052 
L 180.533627 206.351052 
L 180.533627 207.473452 
L 181.113604 207.473452 
L 181.113604 207.236638 
L 181.693581 207.236638 
L 181.693581 207.400287 
L 182.853535 207.436836 
L 182.853535 207.218538 
L 183.433512 207.218538 
L 183.433512 205.905571 
L 184.013488 205.905571 
L 184.013488 205.075763 
L 184.593465 205.075763 
L 184.593465 204.593894 
L 185.753419 204.530512 
L 185.753419 203.86153 
L 186.333396 203.86153 
L 186.333396 203.169779 
L 186.913373 203.169779 
L 186.913373 202.803614 
L 187.49335 202.803614 
L 187.49335 203.051876 
L 188.653303 202.949278 
L 188.653303 203.318141 
L 189.23328 203.318141 
L 189.23328 203.022509 
L 189.813257 203.022509 
L 189.813257 203.214173 
L 190.973211 203.184566 
L 190.973211 202.529737 
L 191.553187 202.529737 
L 191.553187 202.076772 
L 192.133164 202.076772 
L 192.133164 200.438123 
L 192.713141 200.438123 
L 192.713141 198.474155 
L 193.293118 198.474155 
L 193.293118 196.8899 
L 193.873095 196.8899 
L 193.873095 195.593226 
L 194.453072 195.593226 
L 194.453072 194.394486 
L 195.033049 194.394486 
L 195.033049 193.895273 
L 195.613025 193.895273 
L 195.613025 191.745077 
L 196.193002 191.745077 
L 196.193002 189.21317 
L 196.772979 189.21317 
L 196.772979 189.375826 
L 197.352956 189.375826 
L 197.352956 186.90656 
L 197.932933 186.90656 
L 197.932933 186.46521 
L 198.51291 186.46521 
L 198.51291 184.597163 
L 199.092886 184.597163 
L 199.092886 180.511647 
L 199.672863 180.511647 
L 199.672863 178.864525 
L 200.25284 178.864525 
L 200.25284 178.318608 
L 200.832817 178.318608 
L 200.832817 176.187869 
L 201.412794 176.187869 
L 201.412794 170.209069 
L 201.992771 170.209069 
L 201.992771 167.911261 
L 202.572748 167.911261 
L 202.572748 164.698205 
L 203.152724 164.698205 
L 203.152724 157.728444 
L 203.732701 157.728444 
L 203.732701 153.314284 
L 204.312678 153.314284 
L 204.312678 158.68349 
L 204.892655 158.68349 
L 204.892655 170.831623 
L 205.472632 170.831623 
L 205.472632 159.666147 
L 206.052609 159.666147 
L 206.052609 156.043135 
L 206.632585 156.043135 
L 206.632585 158.114365 
L 207.212562 158.114365 
L 207.212562 159.992155 
L 207.792539 159.992155 
L 207.792539 160.16753 
L 208.372516 160.16753 
L 208.372516 160.743898 
L 208.952493 160.743898 
L 208.952493 159.823395 
L 209.53247 159.823395 
L 209.53247 158.938472 
L 210.692423 159.039422 
L 210.692423 157.577651 
L 211.852377 157.530665 
L 211.852377 159.085179 
L 212.432354 159.085179 
L 212.432354 159.657728 
L 213.012331 159.657728 
L 213.012331 161.9508 
L 213.592308 161.9508 
L 213.592308 163.140743 
L 214.172284 163.140743 
L 214.172284 161.708753 
L 214.752261 161.708753 
L 214.752261 161.530504 
L 215.332238 161.530504 
L 215.332238 162.351197 
L 215.912215 162.351197 
L 215.912215 163.695241 
L 216.492192 163.695241 
L 216.492192 167.596001 
L 217.072169 167.596001 
L 217.072169 168.504633 
L 217.652146 168.504633 
L 217.652146 164.378152 
L 218.232122 164.378152 
L 218.232122 163.736474 
L 218.812099 163.736474 
L 218.812099 165.383183 
L 219.392076 165.383183 
L 219.392076 164.267648 
L 219.972053 164.267648 
L 219.972053 163.398817 
L 220.55203 163.398817 
L 220.55203 162.232149 
L 221.132007 162.232149 
L 221.132007 161.834102 
L 221.711983 161.834102 
L 221.711983 162.583641 
L 222.29196 162.583641 
L 222.29196 161.3465 
L 222.871937 161.3465 
L 222.871937 163.194904 
L 223.451914 163.194904 
L 223.451914 161.149656 
L 224.031891 161.149656 
L 224.031891 160.639309 
L 224.611868 160.639309 
L 224.611868 159.737009 
L 225.191845 159.737009 
L 225.191845 157.86806 
L 225.771821 157.86806 
L 225.771821 159.888004 
L 226.351798 159.888004 
L 226.351798 159.150729 
L 226.931775 159.150729 
L 226.931775 158.820261 
L 227.511752 158.820261 
L 227.511752 158.330623 
L 228.091729 158.330623 
L 228.091729 159.001913 
L 228.671706 159.001913 
L 228.671706 158.72362 
L 229.251682 158.72362 
L 229.251682 158.468169 
L 229.831659 158.468169 
L 229.831659 159.163865 
L 230.411636 159.163865 
L 230.411636 158.808962 
L 230.991613 158.808962 
L 230.991613 158.256707 
L 231.57159 158.256707 
L 231.57159 156.658265 
L 232.151567 156.658265 
L 232.151567 150.694477 
L 232.731544 150.694477 
L 232.731544 149.727115 
L 233.31152 149.727115 
L 233.31152 148.57456 
L 233.891497 148.57456 
L 233.891497 148.955699 
L 234.471474 148.955699 
L 234.471474 144.578193 
L 235.051451 144.578193 
L 235.051451 139.224019 
L 235.631428 139.224019 
L 235.631428 135.724665 
L 236.211405 135.724665 
L 236.211405 131.929122 
L 236.791381 131.929122 
L 236.791381 123.688509 
L 237.371358 123.688509 
L 237.371358 121.126976 
L 237.951335 121.126976 
L 237.951335 114.501195 
L 238.531312 114.501195 
L 238.531312 116.037736 
L 239.111289 116.037736 
L 239.111289 123.994292 
L 239.691266 123.994292 
L 239.691266 119.650419 
L 240.271243 119.650419 
L 240.271243 119.97045 
L 240.851219 119.97045 
L 240.851219 124.587763 
L 241.431196 124.587763 
L 241.431196 125.341484 
L 242.011173 125.341484 
L 242.011173 123.488046 
L 242.59115 123.488046 
L 242.59115 123.267395 
L 243.171127 123.267395 
L 243.171127 120.781313 
L 243.751104 120.781313 
L 243.751104 120.913218 
L 244.33108 120.913218 
L 244.33108 120.41492 
L 244.911057 120.41492 
L 244.911057 121.063393 
L 245.491034 121.063393 
L 245.491034 120.803802 
L 246.071011 120.803802 
L 246.071011 121.99479 
L 246.650988 121.99479 
L 246.650988 121.852022 
L 247.230965 121.852022 
L 247.230965 121.065109 
L 247.810942 121.065109 
L 247.810942 121.969642 
L 248.390918 121.969642 
L 248.390918 124.527356 
L 248.970895 124.527356 
L 248.970895 126.919059 
L 249.550872 126.919059 
L 249.550872 126.274188 
L 250.130849 126.274188 
L 250.130849 127.946397 
L 250.710826 127.946397 
L 250.710826 128.649132 
L 251.290803 128.649132 
L 251.290803 128.366202 
L 251.870779 128.366202 
L 251.870779 125.019077 
L 252.450756 125.019077 
L 252.450756 125.960627 
L 253.61071 125.925914 
L 253.61071 126.441804 
L 254.190687 126.441804 
L 254.190687 128.176165 
L 254.770664 128.176165 
L 254.770664 127.730173 
L 255.350641 127.730173 
L 255.350641 131.306418 
L 255.930617 131.306418 
L 255.930617 133.502218 
L 256.510594 133.502218 
L 256.510594 132.65908 
L 257.090571 132.65908 
L 257.090571 136.986733 
L 257.670548 136.986733 
L 257.670548 132.58749 
L 258.250525 132.58749 
L 258.250525 131.631546 
L 258.830502 131.631546 
L 258.830502 131.367004 
L 259.410478 131.367004 
L 259.410478 132.507473 
L 259.990455 132.507473 
L 259.990455 132.92187 
L 260.570432 132.92187 
L 260.570432 133.610609 
L 261.730386 133.571209 
L 261.730386 133.350906 
L 262.310363 133.350906 
L 262.310363 133.051224 
L 262.89034 133.051224 
L 262.89034 131.38341 
L 263.470316 131.38341 
L 263.470316 129.81387 
L 264.050293 129.81387 
L 264.050293 127.894621 
L 264.63027 127.894621 
L 264.63027 126.250357 
L 265.210247 126.250357 
L 265.210247 125.296318 
L 265.790224 125.296318 
L 265.790224 125.68367 
L 266.370201 125.68367 
L 266.370201 127.534196 
L 266.950177 127.534196 
L 266.950177 126.984835 
L 267.530154 126.984835 
L 267.530154 127.554182 
L 268.110131 127.554182 
L 268.110131 128.604794 
L 268.690108 128.604794 
L 268.690108 127.250453 
L 269.270085 127.250453 
L 269.270085 125.790765 
L 269.850062 125.790765 
L 269.850062 126.453349 
L 270.430039 126.453349 
L 270.430039 126.146152 
L 271.010015 126.146152 
L 271.010015 126.462333 
L 271.589992 126.462333 
L 271.589992 126.272916 
L 272.169969 126.272916 
L 272.169969 126.579496 
L 272.749946 126.579496 
L 272.749946 127.462208 
L 273.329923 127.462208 
L 273.329923 127.858802 
L 273.9099 127.858802 
L 273.9099 127.63773 
L 275.069853 127.6214 
L 275.069853 128.312275 
L 275.64983 128.312275 
L 275.64983 129.967354 
L 276.229807 129.967354 
L 276.229807 130.161745 
L 276.809784 130.161745 
L 276.809784 130.582678 
L 277.969738 130.638739 
L 277.969738 131.871859 
L 278.549714 131.871859 
L 278.549714 131.474298 
L 279.129691 131.474298 
L 279.129691 131.998816 
L 279.709668 131.998816 
L 279.709668 131.848327 
L 280.289645 131.848327 
L 280.289645 132.839184 
L 280.869622 132.839184 
L 280.869622 135.31356 
L 281.449599 135.31356 
L 281.449599 134.867219 
L 282.029575 134.867219 
L 282.029575 136.724127 
L 282.609552 136.724127 
L 282.609552 137.542587 
L 283.189529 137.542587 
L 283.189529 138.979109 
L 283.769506 138.979109 
L 283.769506 137.373098 
L 284.349483 137.373098 
L 284.349483 135.631111 
L 284.92946 135.631111 
L 284.92946 135.906922 
L 285.509437 135.906922 
L 285.509437 137.637682 
L 286.089413 137.637682 
L 286.089413 137.994084 
L 286.66939 137.994084 
L 286.66939 138.756714 
L 287.249367 138.756714 
L 287.249367 139.210064 
L 287.829344 139.210064 
L 287.829344 138.221398 
L 288.409321 138.221398 
L 288.409321 134.384797 
L 288.989298 134.384797 
L 288.989298 135.88482 
L 289.569274 135.88482 
L 289.569274 137.678656 
L 290.149251 137.678656 
L 290.149251 136.686127 
L 290.729228 136.686127 
L 290.729228 136.558209 
L 291.309205 136.558209 
L 291.309205 136.418436 
L 291.889182 136.418436 
L 291.889182 136.661012 
L 292.469159 136.661012 
L 292.469159 138.114882 
L 293.049136 138.114882 
L 293.049136 137.604067 
L 293.629112 137.604067 
L 293.629112 140.330735 
L 294.209089 140.330735 
L 294.209089 139.104206 
L 294.789066 139.104206 
L 294.789066 139.227661 
L 295.369043 139.227661 
L 295.369043 140.411716 
L 295.94902 140.411716 
L 295.94902 142.153972 
L 296.528997 142.153972 
L 296.528997 141.267602 
L 297.108973 141.267602 
L 297.108973 143.266944 
L 297.68895 143.266944 
L 297.68895 148.256676 
L 298.268927 148.256676 
L 298.268927 147.711541 
L 298.848904 147.711541 
L 298.848904 146.134154 
L 299.428881 146.134154 
L 299.428881 143.729744 
L 300.008858 143.729744 
L 300.008858 147.413355 
L 300.588835 147.413355 
L 300.588835 146.743214 
L 301.168811 146.743214 
L 301.168811 146.990332 
L 301.748788 146.990332 
L 301.748788 147.133952 
L 302.328765 147.133952 
L 302.328765 146.066566 
L 302.908742 146.066566 
L 302.908742 145.125593 
L 303.488719 145.125593 
L 303.488719 145.607242 
L 304.068696 145.607242 
L 304.068696 144.506165 
L 304.648672 144.506165 
L 304.648672 143.238742 
L 305.228649 143.238742 
L 305.228649 142.875683 
L 305.808626 142.875683 
L 305.808626 141.476374 
L 306.388603 141.476374 
L 306.388603 141.861751 
L 306.96858 141.861751 
L 306.96858 143.837962 
L 307.548557 143.837962 
L 307.548557 145.189256 
L 308.128534 145.189256 
L 308.128534 144.548875 
L 308.70851 144.548875 
L 308.70851 145.067818 
L 309.288487 145.067818 
L 309.288487 143.959065 
L 309.868464 143.959065 
L 309.868464 145.353427 
L 310.448441 145.353427 
L 310.448441 147.072788 
L 311.608395 147.106045 
L 311.608395 145.951593 
L 312.188371 145.951593 
L 312.188371 146.780354 
L 313.348325 146.839743 
L 313.348325 145.646513 
L 313.928302 145.646513 
L 313.928302 145.840654 
L 314.508279 145.840654 
L 314.508279 145.52311 
L 315.088256 145.52311 
L 315.088256 145.822927 
L 315.668233 145.822927 
L 315.668233 146.333104 
L 316.248209 146.333104 
L 316.248209 145.790046 
L 316.828186 145.790046 
L 316.828186 145.997503 
L 317.408163 145.997503 
L 317.408163 146.599727 
L 317.98814 146.599727 
L 317.98814 147.084466 
L 318.568117 147.084466 
L 318.568117 146.659462 
L 319.148094 146.659462 
L 319.148094 146.489511 
L 319.72807 146.489511 
L 319.72807 144.786225 
L 320.308047 144.786225 
L 320.308047 145.209704 
L 320.888024 145.209704 
L 320.888024 145.58555 
L 321.468001 145.58555 
L 321.468001 144.899515 
L 322.047978 144.899515 
L 322.047978 144.413151 
L 322.627955 144.413151 
L 322.627955 143.352536 
L 323.207932 143.352536 
L 323.207932 142.165919 
L 323.787908 142.165919 
L 323.787908 141.956134 
L 324.367885 141.956134 
L 324.367885 142.749355 
L 325.527839 142.660533 
L 325.527839 141.618141 
L 326.107816 141.618141 
L 326.107816 141.919299 
L 326.687793 141.919299 
L 326.687793 142.434841 
L 327.267769 142.434841 
L 327.267769 142.563496 
L 327.847746 142.563496 
L 327.847746 143.170627 
L 328.427723 143.170627 
L 328.427723 143.889226 
L 329.0077 143.889226 
L 329.0077 146.783894 
L 329.587677 146.783894 
L 329.587677 146.617278 
L 330.167654 146.617278 
L 330.167654 146.885067 
L 330.747631 146.885067 
L 330.747631 146.432889 
L 331.907584 146.391179 
L 331.907584 145.253943 
L 332.487561 145.253943 
L 332.487561 146.046931 
L 333.067538 146.046931 
L 333.067538 146.600604 
L 333.647515 146.600604 
L 333.647515 146.44072 
L 334.227492 146.44072 
L 334.227492 146.109317 
L 334.807468 146.109317 
L 334.807468 145.674132 
L 335.387445 145.674132 
L 335.387445 145.789204 
L 335.967422 145.789204 
L 335.967422 145.042645 
L 337.127376 145.130483 
L 337.127376 144.58771 
L 337.707353 144.58771 
L 337.707353 143.919127 
L 338.28733 143.919127 
L 338.28733 142.92308 
L 338.867306 142.92308 
L 338.867306 142.04188 
L 339.447283 142.04188 
L 339.447283 139.335396 
L 340.02726 139.335396 
L 340.02726 135.146995 
L 340.607237 135.146995 
L 340.607237 136.03177 
L 341.187214 136.03177 
L 341.187214 140.54223 
L 341.767191 140.54223 
L 341.767191 139.904907 
L 342.347167 139.904907 
L 342.347167 139.474419 
L 342.927144 139.474419 
L 342.927144 139.623699 
L 343.507121 139.623699 
L 343.507121 137.592875 
L 344.087098 137.592875 
L 344.087098 137.338267 
L 344.667075 137.338267 
L 344.667075 136.035393 
L 345.247052 136.035393 
L 345.247052 134.561942 
L 345.827029 134.561942 
L 345.827029 133.765289 
L 346.407005 133.765289 
L 346.407005 132.721275 
L 346.986982 132.721275 
L 346.986982 133.537369 
L 347.566959 133.537369 
L 347.566959 132.768707 
L 348.146936 132.768707 
L 348.146936 133.772685 
L 349.30689 133.794425 
L 349.30689 133.957068 
L 349.886866 133.957068 
L 349.886866 133.082018 
L 350.466843 133.082018 
L 350.466843 133.943542 
L 351.04682 133.943542 
L 351.04682 136.111106 
L 351.626797 136.111106 
L 351.626797 136.319493 
L 352.206774 136.319493 
L 352.206774 135.793073 
L 352.786751 135.793073 
L 352.786751 136.578408 
L 353.366728 136.578408 
L 353.366728 137.016065 
L 353.946704 137.016065 
L 353.946704 136.663682 
L 354.526681 136.663682 
L 354.526681 136.503031 
L 355.106658 136.503031 
L 355.106658 135.410655 
L 355.686635 135.410655 
L 355.686635 134.39481 
L 356.846589 134.429653 
L 356.846589 133.848648 
L 357.426565 133.848648 
L 357.426565 134.274991 
L 358.006542 134.274991 
L 358.006542 135.088159 
L 358.586519 135.088159 
L 358.586519 134.58552 
L 359.746473 134.634206 
L 359.746473 134.976402 
L 360.32645 134.976402 
L 360.32645 134.566752 
L 361.486403 134.539353 
L 361.486403 134.694626 
L 362.06638 134.694626 
L 362.06638 134.465036 
L 363.226334 134.39624 
L 363.226334 134.268829 
L 363.806311 134.268829 
L 363.806311 133.948205 
L 364.386288 133.948205 
L 364.386288 133.647329 
L 364.966264 133.647329 
L 364.966264 132.926744 
L 365.546241 132.926744 
L 365.546241 133.222757 
L 366.126218 133.222757 
L 366.126218 132.878937 
L 366.706195 132.878937 
L 366.706195 133.040078 
L 367.286172 133.040078 
L 367.286172 132.543093 
L 367.866149 132.543093 
L 367.866149 132.754641 
L 368.446126 132.754641 
L 368.446126 132.8754 
L 369.026102 132.8754 
L 369.026102 133.316532 
L 369.606079 133.316532 
L 369.606079 133.069963 
L 370.186056 133.069963 
L 370.186056 130.454174 
L 370.766033 130.454174 
L 370.766033 129.434672 
L 371.34601 129.434672 
L 371.34601 127.801074 
L 371.925987 127.801074 
L 371.925987 128.00004 
L 372.505963 128.00004 
L 372.505963 124.590979 
L 373.08594 124.590979 
L 373.08594 122.72857 
L 373.665917 122.72857 
L 373.665917 127.49158 
L 374.245894 127.49158 
L 374.245894 126.266876 
L 374.825871 126.266876 
L 374.825871 125.101367 
L 375.405848 125.101367 
L 375.405848 124.68503 
L 375.985825 124.68503 
L 375.985825 125.250347 
L 377.725755 125.301163 
L 377.725755 125.114865 
L 378.305732 125.114865 
L 378.305732 125.296318 
L 378.885709 125.296318 
L 378.885709 125.476985 
L 379.465686 125.476985 
L 379.465686 127.065375 
L 380.045662 127.065375 
L 380.045662 128.18211 
L 380.625639 128.18211 
L 380.625639 127.757887 
L 381.785593 127.814117 
L 381.785593 128.245157 
L 382.36557 128.245157 
L 382.36557 128.02466 
L 383.525524 128.076426 
L 383.525524 128.22482 
L 384.685477 128.207305 
L 384.685477 126.979565 
L 385.265454 126.979565 
L 385.265454 126.540151 
L 385.845431 126.540151 
L 385.845431 126.952249 
L 387.005385 127.007578 
L 387.005385 127.448718 
L 387.585361 127.448718 
L 387.585361 127.024734 
L 389.325292 127.011866 
L 389.325292 126.773153 
L 389.905269 126.773153 
L 389.905269 126.10954 
L 390.485246 126.10954 
L 390.485246 125.989756 
L 391.065223 125.989756 
L 391.065223 126.308236 
L 391.645199 126.308236 
L 391.645199 125.834884 
L 392.225176 125.834884 
L 392.225176 124.569943 
L 392.805153 124.569943 
L 392.805153 123.415695 
L 393.38513 123.415695 
L 393.38513 124.063357 
L 393.965107 124.063357 
L 393.965107 123.556772 
L 394.545084 123.556772 
L 394.545084 124.151812 
L 395.12506 124.151812 
L 395.12506 123.135401 
L 396.864991 123.12915 
L 396.864991 123.321644 
L 397.444968 123.321644 
L 397.444968 122.437442 
L 398.604922 122.345512 
L 398.604922 122.300878 
L 399.184898 122.300878 
L 399.184898 122.101377 
L 399.764875 122.101377 
L 399.764875 121.714061 
L 400.344852 121.714061 
L 400.344852 118.821554 
L 400.924829 118.821554 
L 400.924829 118.465121 
L 401.504806 118.465121 
L 401.504806 117.735832 
L 402.084783 117.735832 
L 402.084783 114.943912 
L 402.664759 114.943912 
L 402.664759 118.897084 
L 403.244736 118.897084 
L 403.244736 121.350498 
L 403.824713 121.350498 
L 403.824713 120.737376 
L 404.40469 120.737376 
L 404.40469 119.226443 
L 404.984667 119.226443 
L 404.984667 119.49774 
L 405.564644 119.49774 
L 405.564644 118.719036 
L 406.144621 118.719036 
L 406.144621 117.353805 
L 406.724597 117.353805 
L 406.724597 116.798248 
L 407.304574 116.798248 
L 407.304574 117.31474 
L 407.884551 117.31474 
L 407.884551 116.994925 
L 408.464528 116.994925 
L 408.464528 115.955138 
L 409.044505 115.955138 
L 409.044505 114.659904 
L 409.624482 114.659904 
L 409.624482 114.213252 
L 410.204458 114.213252 
L 410.204458 112.95463 
L 410.784435 112.95463 
L 410.784435 112.215352 
L 411.364412 112.215352 
L 411.364412 113.499741 
L 411.944389 113.499741 
L 411.944389 112.698917 
L 412.524366 112.698917 
L 412.524366 115.695677 
L 413.104343 115.695677 
L 413.104343 114.874691 
L 413.68432 114.874691 
L 413.68432 117.79883 
L 414.264296 117.79883 
L 414.264296 116.237835 
L 414.844273 116.237835 
L 414.844273 115.477701 
L 415.42425 115.477701 
L 415.42425 113.472205 
L 416.004227 113.472205 
L 416.004227 113.201232 
L 416.584204 113.201232 
L 416.584204 113.868202 
L 417.164181 113.868202 
L 417.164181 113.347262 
L 417.744157 113.347262 
L 417.744157 112.820031 
L 418.324134 112.820031 
L 418.324134 111.949557 
L 418.904111 111.949557 
L 418.904111 110.937153 
L 419.484088 110.937153 
L 419.484088 108.406962 
L 420.064065 108.406962 
L 420.064065 106.975718 
L 420.644042 106.975718 
L 420.644042 106.475211 
L 421.224019 106.475211 
L 421.224019 106.285513 
L 421.803995 106.285513 
L 421.803995 103.047775 
L 422.383972 103.047775 
L 422.383972 99.3059 
L 422.963949 99.3059 
L 422.963949 101.434165 
L 423.543926 101.434165 
L 423.543926 99.401745 
L 424.123903 99.401745 
L 424.123903 97.13193 
L 424.70388 97.13193 
L 424.70388 96.217978 
L 425.283856 96.217978 
L 425.283856 97.080942 
L 425.863833 97.080942 
L 425.863833 97.653341 
L 426.44381 97.653341 
L 426.44381 97.434209 
L 427.023787 97.434209 
L 427.023787 98.650574 
L 427.603764 98.650574 
L 427.603764 98.335587 
L 428.763718 98.27076 
L 428.763718 98.643931 
L 429.343694 98.643931 
L 429.343694 100.241902 
L 429.923671 100.241902 
L 429.923671 103.415545 
L 430.503648 103.415545 
L 430.503648 100.642127 
L 431.083625 100.642127 
L 431.083625 96.76984 
L 431.663602 96.76984 
L 431.663602 97.450487 
L 432.243579 97.450487 
L 432.243579 95.952053 
L 433.403532 95.996737 
L 433.403532 92.456833 
L 433.983509 92.456833 
L 433.983509 89.922675 
L 434.563486 89.922675 
L 434.563486 87.454791 
L 435.143463 87.454791 
L 435.143463 88.981725 
L 435.72344 88.981725 
L 435.72344 87.657344 
L 436.303417 87.657344 
L 436.303417 87.450855 
L 436.883393 87.450855 
L 436.883393 85.15428 
L 437.46337 85.15428 
L 437.46337 87.412634 
L 438.043347 87.412634 
L 438.043347 87.661505 
L 438.623324 87.661505 
L 438.623324 89.939767 
L 439.203301 89.939767 
L 439.203301 90.931296 
L 439.783278 90.931296 
L 439.783278 91.358385 
L 440.363254 91.358385 
L 440.363254 89.596785 
L 440.943231 89.596785 
L 440.943231 88.44718 
L 441.523208 88.44718 
L 441.523208 87.766017 
L 442.103185 87.766017 
L 442.103185 87.165508 
L 442.683162 87.165508 
L 442.683162 85.509309 
L 443.263139 85.509309 
L 443.263139 82.188887 
L 444.423092 82.169648 
L 444.423092 81.46695 
L 445.003069 81.46695 
L 445.003069 81.91558 
L 445.583046 81.91558 
L 445.583046 79.789478 
L 446.163023 79.789478 
L 446.163023 77.024161 
L 446.743 77.024161 
L 446.743 76.747511 
L 447.322977 76.747511 
L 447.322977 81.502657 
L 447.902953 81.502657 
L 447.902953 75.7017 
L 448.48293 75.7017 
L 448.48293 74.771576 
L 449.642884 74.844677 
L 449.642884 71.064047 
L 450.222861 71.064047 
L 450.222861 69.151492 
L 450.802838 69.151492 
L 450.802838 64.386582 
L 451.382815 64.386582 
L 451.382815 62.688359 
L 451.962791 62.688359 
L 451.962791 60.983079 
L 452.542768 60.983079 
L 452.542768 58.138856 
L 453.122745 58.138856 
L 453.122745 64.484215 
L 453.702722 64.484215 
L 453.702722 61.894793 
L 454.282699 61.894793 
L 454.282699 66.252362 
L 454.862676 66.252362 
L 454.862676 62.727887 
L 455.442652 62.727887 
L 455.442652 61.247552 
L 456.022629 61.247552 
L 456.022629 65.211162 
L 456.602606 65.211162 
L 456.602606 64.810286 
L 457.182583 64.810286 
L 457.182583 68.090569 
L 457.76256 68.090569 
L 457.76256 69.30141 
L 458.342537 69.30141 
L 458.342537 68.221789 
L 458.922514 68.221789 
L 458.922514 70.49668 
L 459.50249 70.49668 
L 459.50249 74.870838 
L 460.662444 74.766061 
L 460.662444 73.244809 
L 461.242421 73.244809 
L 461.242421 70.546677 
L 461.822398 70.546677 
L 461.822398 68.549271 
L 462.402375 68.549271 
L 462.402375 71.511708 
L 462.982351 71.511708 
L 462.982351 70.246729 
L 463.562328 70.246729 
L 463.562328 68.072613 
L 464.142305 68.072613 
L 464.142305 72.301956 
L 464.722282 72.301956 
L 464.722282 72.724154 
L 465.302259 72.724154 
L 465.302259 74.638186 
L 465.882236 74.638186 
L 465.882236 73.212796 
L 466.462213 73.212796 
L 466.462213 74.076805 
L 467.042189 74.076805 
L 467.042189 75.494465 
L 467.622166 75.494465 
L 467.622166 78.54452 
L 468.202143 78.54452 
L 468.202143 78.664803 
L 469.362097 78.671444 
L 469.362097 75.634412 
L 470.52205 75.604146 
L 470.52205 73.16643 
L 471.102027 73.16643 
L 471.102027 73.302485 
L 471.682004 73.302485 
L 471.682004 72.143847 
L 472.261981 72.143847 
L 472.261981 71.401356 
L 472.841958 71.401356 
L 472.841958 72.206257 
L 473.421935 72.206257 
L 473.421935 74.400786 
L 474.001912 74.400786 
L 474.001912 74.224505 
L 474.581888 74.224505 
L 474.581888 74.773374 
L 475.161865 74.773374 
L 475.161865 76.631272 
L 475.741842 76.631272 
L 475.741842 77.082516 
L 476.321819 77.082516 
L 476.321819 76.690684 
L 477.481773 76.675153 
L 477.481773 76.356856 
L 478.061749 76.356856 
L 478.061749 79.366528 
L 478.641726 79.366528 
L 478.641726 79.564088 
L 479.221703 79.564088 
L 479.221703 78.741178 
L 479.80168 78.741178 
L 479.80168 80.614853 
L 480.381657 80.614853 
L 480.381657 81.543299 
L 480.961634 81.543299 
L 480.961634 79.143313 
L 482.121587 79.136816 
L 482.121587 80.062286 
L 482.701564 80.062286 
L 482.701564 80.318434 
L 483.281541 80.318434 
L 483.281541 77.010244 
L 484.441495 76.91388 
L 484.441495 75.52169 
L 485.021472 75.52169 
L 485.021472 74.945626 
L 485.601448 74.945626 
L 485.601448 76.891962 
L 486.181425 76.891962 
L 486.181425 78.867778 
L 486.761402 78.867778 
L 486.761402 80.385824 
L 487.341379 80.385824 
L 487.341379 80.248587 
L 487.921356 80.248587 
L 487.921356 79.570571 
L 488.501333 79.570571 
L 488.501333 79.449344 
L 489.08131 79.449344 
L 489.08131 78.329421 
L 489.661286 78.329421 
L 489.661286 77.991228 
L 490.241263 77.991228 
L 490.241263 77.042659 
L 490.82124 77.042659 
L 490.82124 80.52715 
L 491.401217 80.52715 
L 491.401217 80.07251 
L 491.981194 80.07251 
L 491.981194 79.537282 
L 493.141147 79.541444 
L 493.141147 79.273675 
L 493.721124 79.273675 
L 493.721124 79.136604 
L 494.301101 79.136604 
L 494.301101 79.463621 
L 494.881078 79.463621 
L 494.881078 79.303603 
L 496.041032 79.280917 
L 496.041032 80.266194 
L 496.621009 80.266194 
L 496.621009 79.499587 
L 497.780962 79.548012 
L 497.780962 79.615114 
L 498.360939 79.615114 
L 498.360939 80.150007 
L 498.940916 80.150007 
L 498.940916 79.961184 
L 499.520893 79.961184 
L 499.520893 79.416011 
L 500.10087 79.416011 
L 500.10087 79.813029 
L 500.680846 79.813029 
L 500.680846 82.305209 
L 501.260823 82.305209 
L 501.260823 85.39909 
L 501.8408 85.39909 
L 501.8408 87.559515 
L 502.420777 87.559515 
L 502.420777 90.131213 
L 503.000754 90.131213 
L 503.000754 88.332941 
L 503.580731 88.332941 
L 503.580731 90.572721 
L 504.160708 90.572721 
L 504.160708 91.42792 
L 504.740684 91.42792 
L 504.740684 93.057066 
L 505.320661 93.057066 
L 505.320661 91.606765 
L 505.900638 91.606765 
L 505.900638 89.761224 
L 506.480615 89.761224 
L 506.480615 90.1675 
L 507.060592 90.1675 
L 507.060592 90.437443 
L 507.640569 90.437443 
L 507.640569 89.600198 
L 508.220545 89.600198 
L 508.220545 88.897089 
L 508.800522 88.897089 
L 508.800522 91.107828 
L 509.380499 91.107828 
L 509.380499 90.9098 
L 509.960476 90.9098 
L 509.960476 91.220862 
L 510.540453 91.220862 
L 510.540453 91.434005 
L 511.700407 91.495794 
L 511.700407 92.100143 
L 512.86036 92.180998 
L 512.86036 92.539203 
L 513.440337 92.539203 
L 513.440337 91.200213 
L 514.020314 91.200213 
L 514.020314 91.317933 
L 514.600291 91.317933 
L 514.600291 89.624566 
L 515.180268 89.624566 
L 515.180268 88.566187 
L 515.760244 88.566187 
L 515.760244 90.106222 
L 516.920198 90.203906 
L 516.920198 89.828152 
L 518.080152 89.857701 
L 518.080152 89.573775 
L 518.660129 89.573775 
L 518.660129 89.108037 
L 520.400059 89.011831 
L 520.400059 88.689654 
L 520.980036 88.689654 
L 520.980036 85.142736 
L 521.560013 85.142736 
L 521.560013 83.735537 
L 522.13999 83.735537 
L 522.13999 84.49428 
L 522.719967 84.49428 
L 522.719967 84.01136 
L 523.299943 84.01136 
L 523.299943 83.581903 
L 523.87992 83.581903 
L 523.87992 83.116151 
L 524.459897 83.116151 
L 524.459897 83.612067 
L 525.039874 83.612067 
L 525.039874 83.279093 
L 525.619851 83.279093 
L 525.619851 82.21431 
L 526.199828 82.21431 
L 526.199828 80.00304 
L 526.779805 80.00304 
L 526.779805 75.388739 
L 527.359781 75.388739 
L 527.359781 77.300523 
L 527.939758 77.300523 
L 527.939758 76.329549 
L 528.519735 76.329549 
L 528.519735 73.588391 
L 529.099712 73.588391 
L 529.099712 74.699661 
L 529.679689 74.699661 
L 529.679689 75.035462 
L 530.259666 75.035462 
L 530.259666 75.374711 
L 530.839642 75.374711 
L 530.839642 75.577846 
L 531.419619 75.577846 
L 531.419619 73.326593 
L 531.999596 73.326593 
L 531.999596 72.394101 
L 532.579573 72.394101 
L 532.579573 69.332889 
L 533.15955 69.332889 
L 533.15955 68.751771 
L 533.739527 68.751771 
L 533.739527 69.774352 
L 534.319504 69.774352 
L 534.319504 69.074026 
L 534.89948 69.074026 
L 534.89948 66.293311 
L 535.479457 66.293311 
L 535.479457 68.295987 
L 536.059434 68.295987 
L 536.059434 71.56439 
L 536.639411 71.56439 
L 536.639411 69.757906 
L 537.219388 69.757906 
L 537.219388 71.152746 
L 537.799365 71.152746 
L 537.799365 71.925688 
L 538.379341 71.925688 
L 538.379341 69.867663 
L 538.959318 69.867663 
L 538.959318 68.161783 
L 539.539295 68.161783 
L 539.539295 68.484832 
L 540.119272 68.484832 
L 540.119272 70.867214 
L 540.699249 70.867214 
L 540.699249 70.274935 
L 541.279226 70.274935 
L 541.279226 70.678119 
L 541.859203 70.678119 
L 541.859203 70.192254 
L 542.439179 70.192254 
L 542.439179 71.764738 
L 543.019156 71.764738 
L 543.019156 69.693916 
L 543.599133 69.693916 
L 543.599133 69.948362 
L 544.17911 69.948362 
L 544.17911 70.584572 
L 544.759087 70.584572 
L 544.759087 70.288858 
L 545.91904 70.356086 
L 545.91904 71.545559 
L 546.499017 71.545559 
L 546.499017 74.890773 
L 547.078994 74.890773 
L 547.078994 74.577861 
L 547.658971 74.577861 
L 547.658971 75.004046 
L 548.238948 75.004046 
L 548.238948 73.950094 
L 548.818925 73.950094 
L 548.818925 74.67232 
L 549.398902 74.67232 
L 549.398902 75.179121 
L 549.978878 75.179121 
L 549.978878 74.820938 
L 550.558855 74.820938 
L 550.558855 73.766993 
L 551.138832 73.766993 
L 551.138832 72.069504 
L 551.718809 72.069504 
L 551.718809 72.352109 
L 552.878763 72.261529 
L 552.878763 72.928951 
L 553.458739 72.928951 
L 553.458739 73.846811 
L 554.038716 73.846811 
L 554.038716 74.9346 
L 554.618693 74.9346 
L 554.618693 77.241888 
L 555.19867 77.241888 
L 555.19867 77.582093 
L 555.778647 77.582093 
L 555.778647 76.509502 
L 556.358624 76.509502 
L 556.358624 77.500563 
L 556.938601 77.500563 
L 556.938601 76.603349 
L 557.518577 76.603349 
L 557.518577 77.510841 
L 558.098554 77.510841 
L 558.098554 78.392555 
L 558.678531 78.392555 
L 558.678531 77.508027 
L 559.258508 77.508027 
L 559.258508 77.34015 
L 559.838485 77.34015 
L 559.838485 77.201466 
L 560.418462 77.201466 
L 560.418462 77.548431 
L 560.998438 77.548431 
L 560.998438 77.063409 
L 561.578415 77.063409 
L 561.578415 75.83155 
L 562.158392 75.83155 
L 562.158392 75.10867 
L 562.738369 75.10867 
L 562.738369 73.23441 
L 563.318346 73.23441 
L 563.318346 73.639212 
L 563.898323 73.639212 
L 563.898323 74.56718 
L 564.4783 74.56718 
L 564.4783 72.398179 
L 565.638253 72.323318 
L 565.638253 71.396613 
L 566.21823 71.396613 
L 566.21823 71.194123 
L 566.798207 71.194123 
L 566.798207 70.176312 
L 567.378184 70.176312 
L 567.378184 70.542565 
L 567.958161 70.542565 
L 567.958161 71.574019 
L 568.538137 71.574019 
L 568.538137 73.494474 
L 569.118114 73.494474 
L 569.118114 74.075843 
L 569.698091 74.075843 
L 569.698091 72.861976 
L 570.278068 72.861976 
L 570.278068 75.541553 
L 570.858045 75.541553 
L 570.858045 82.481896 
L 571.438022 82.481896 
L 571.438022 83.400408 
L 572.017999 83.400408 
L 572.017999 80.508406 
L 572.597975 80.508406 
L 572.597975 78.926804 
L 573.177952 78.926804 
L 573.177952 81.518543 
L 573.757929 81.518543 
L 573.757929 78.598658 
L 574.337906 78.598658 
L 574.337906 77.086225 
L 574.917883 77.086225 
L 574.917883 78.410905 
L 576.077836 78.414665 
L 576.077836 77.316215 
L 576.657813 77.316215 
L 576.657813 77.673559 
L 577.23779 77.673559 
L 577.23779 76.13785 
L 577.817767 76.13785 
L 577.817767 73.855049 
L 578.397744 73.855049 
L 578.397744 73.266863 
L 578.977721 73.266863 
L 578.977721 71.261284 
L 579.557698 71.261284 
L 579.557698 73.428447 
L 580.137674 73.428447 
L 580.137674 72.17093 
L 580.717651 72.17093 
L 580.717651 71.906009 
L 581.297628 71.906009 
L 581.297628 73.619772 
L 581.877605 73.619772 
L 581.877605 71.783106 
L 582.457582 71.783106 
L 582.457582 70.496229 
L 583.037559 70.496229 
L 583.037559 71.669276 
L 583.617535 71.669276 
L 583.617535 71.356639 
L 584.197512 71.356639 
L 584.197512 71.984439 
L 585.357466 72.023993 
L 585.357466 72.387456 
L 586.51742 72.482444 
L 586.51742 72.603098 
L 587.097397 72.603098 
L 587.097397 72.850869 
L 587.677373 72.850869 
L 587.677373 72.449137 
L 588.837327 72.493046 
L 588.837327 72.585313 
L 589.997281 72.539289 
L 589.997281 71.691432 
L 590.577258 71.691432 
L 590.577258 68.915161 
L 591.157234 68.915161 
L 591.157234 68.375669 
L 591.737211 68.375669 
L 591.737211 68.641612 
L 592.317188 68.641612 
L 592.317188 67.641184 
L 592.897165 67.641184 
L 592.897165 67.974976 
L 593.477142 67.974976 
L 593.477142 67.393529 
L 594.637096 67.474705 
L 594.637096 67.647431 
L 595.217072 67.647431 
L 595.217072 68.041473 
L 595.797049 68.041473 
L 595.797049 67.378001 
L 596.377026 67.378001 
L 596.377026 70.58398 
L 596.957003 70.58398 
L 596.957003 70.44996 
L 597.53698 70.44996 
L 597.53698 70.249385 
L 598.116957 70.249385 
L 598.116957 69.094641 
L 598.696933 69.094641 
L 598.696933 70.057038 
L 599.27691 70.057038 
L 599.27691 69.559446 
L 599.856887 69.559446 
L 599.856887 69.284203 
L 600.436864 69.284203 
L 600.436864 69.825442 
L 601.016841 69.825442 
L 601.016841 69.600771 
L 601.596818 69.600771 
L 601.596818 68.317964 
L 602.176795 68.317964 
L 602.176795 68.095408 
L 602.756771 68.095408 
L 602.756771 67.657258 
L 603.336748 67.657258 
L 603.336748 65.731997 
L 603.916725 65.731997 
L 603.916725 64.666977 
L 604.496702 64.666977 
L 604.496702 64.435267 
L 605.076679 64.435267 
L 605.076679 63.940689 
L 605.656656 63.940689 
L 605.656656 62.135626 
L 606.236632 62.135626 
L 606.236632 61.120974 
L 606.816609 61.120974 
L 606.816609 60.599822 
L 607.396586 60.599822 
L 607.396586 58.377865 
L 607.976563 58.377865 
L 607.976563 57.864613 
L 608.55654 57.864613 
L 608.55654 59.428523 
L 609.136517 59.428523 
L 609.136517 57.807812 
L 609.716494 57.807812 
L 609.716494 57.651451 
L 610.29647 57.651451 
L 610.29647 58.854746 
L 610.876447 58.854746 
L 610.876447 57.75619 
L 611.456424 57.75619 
L 611.456424 54.088183 
L 612.036401 54.088183 
L 612.036401 53.513237 
L 612.616378 53.513237 
L 612.616378 51.424957 
L 613.196355 51.424957 
L 613.196355 49.67567 
L 613.776331 49.67567 
L 613.776331 46.987963 
L 614.356308 46.987963 
L 614.356308 43.394493 
L 614.936285 43.394493 
L 614.936285 45.500499 
L 615.516262 45.500499 
L 615.516262 44.789986 
L 616.096239 44.789986 
L 616.096239 45.234515 
L 616.676216 45.234515 
L 616.676216 47.542422 
L 617.256193 47.542422 
L 617.256193 48.619465 
L 617.836169 48.619465 
L 617.836169 46.905785 
L 618.416146 46.905785 
L 618.416146 44.695814 
L 618.996123 44.695814 
L 618.996123 40.178232 
L 619.5761 40.178232 
L 619.5761 39.705602 
L 620.156077 39.705602 
L 620.156077 39.005501 
L 620.736054 39.005501 
L 620.736054 36.395945 
L 621.31603 36.395945 
L 621.31603 38.417457 
L 621.896007 38.417457 
L 621.896007 40.725796 
L 622.475984 40.725796 
L 622.475984 39.297369 
L 623.055961 39.297369 
L 623.055961 37.765699 
L 623.635938 37.765699 
L 623.635938 35.953074 
L 624.215915 35.953074 
L 624.215915 36.086768 
L 624.795892 36.086768 
L 624.795892 35.663934 
L 625.375868 35.663934 
L 625.375868 37.685858 
L 625.955845 37.685858 
L 625.955845 36.473881 
L 626.535822 36.473881 
L 626.535822 35.440669 
L 627.695776 35.332804 
L 627.695776 35.658149 
L 628.275753 35.658149 
L 628.275753 33.861839 
L 628.855729 33.861839 
L 628.855729 34.985486 
L 629.435706 34.985486 
L 629.435706 37.195813 
L 630.015683 37.195813 
L 630.015683 39.039965 
L 630.59566 39.039965 
L 630.59566 37.279608 
L 631.175637 37.279608 
L 631.175637 35.967055 
L 632.335591 35.908699 
L 632.335591 36.129913 
L 632.915567 36.129913 
L 632.915567 40.018055 
L 633.495544 40.018055 
L 633.495544 44.716296 
L 634.075521 44.716296 
L 634.075521 45.950896 
L 634.655498 45.950896 
L 634.655498 43.92948 
L 635.235475 43.92948 
L 635.235475 44.529546 
L 635.815452 44.529546 
L 635.815452 44.759016 
L 636.395428 44.759016 
L 636.395428 46.717049 
L 636.975405 46.717049 
L 636.975405 45.528715 
L 637.555382 45.528715 
L 637.555382 43.992313 
L 638.135359 43.992313 
L 638.135359 45.473802 
L 638.715336 45.473802 
L 638.715336 46.017372 
L 639.87529 46.123296 
L 639.87529 46.475019 
L 640.455266 46.475019 
L 640.455266 46.266602 
L 641.035243 46.266602 
L 641.035243 46.67794 
L 641.61522 46.67794 
L 641.61522 47.101272 
L 642.195197 47.101272 
L 642.195197 47.740726 
L 642.775174 47.740726 
L 642.775174 47.419166 
L 643.355151 47.419166 
L 643.355151 44.525467 
L 643.935127 44.525467 
L 643.935127 42.05641 
L 644.515104 42.05641 
L 644.515104 44.090211 
L 645.095081 44.090211 
L 645.095081 40.939943 
L 645.675058 40.939943 
L 645.675058 40.506118 
L 646.255035 40.506118 
L 646.255035 39.881461 
L 646.835012 39.881461 
L 646.835012 40.018882 
L 647.414989 40.018882 
L 647.414989 38.85799 
L 647.994965 38.85799 
L 647.994965 39.047607 
L 648.574942 39.047607 
L 648.574942 39.839172 
L 649.154919 39.839172 
L 649.154919 38.68729 
L 649.734896 38.68729 
L 649.734896 40.302128 
L 650.89485 40.310502 
L 650.89485 39.573617 
L 651.474826 39.573617 
L 651.474826 41.732892 
L 652.63478 41.773082 
L 652.63478 42.635465 
L 653.214757 42.635465 
L 653.214757 39.598009 
L 653.794734 39.598009 
L 653.794734 36.632468 
L 654.374711 36.632468 
L 654.374711 36.894017 
L 654.954688 36.894017 
L 654.954688 35.902602 
L 655.534664 35.902602 
L 655.534664 34.366979 
L 656.114641 34.366979 
L 656.114641 34.783191 
L 656.694618 34.783191 
L 656.694618 34.899645 
L 657.274595 34.899645 
L 657.274595 34.444793 
L 657.854572 34.444793 
L 657.854572 34.051689 
L 659.014525 33.94433 
L 659.014525 33.461115 
L 659.594502 33.461115 
L 659.594502 33.852447 
L 660.174479 33.852447 
L 660.174479 35.647658 
L 660.754456 35.647658 
L 660.754456 35.839723 
L 661.334433 35.839723 
L 661.334433 36.829806 
L 661.91441 36.829806 
L 661.91441 35.961304 
L 662.494387 35.961304 
L 662.494387 38.915935 
L 663.074363 38.915935 
L 663.074363 39.626322 
L 663.65434 39.626322 
L 663.65434 40.009268 
L 664.234317 40.009268 
L 664.234317 40.260821 
L 664.814294 40.260821 
L 664.814294 39.097597 
L 665.394271 39.097597 
L 665.394271 38.478457 
L 665.974248 38.478457 
L 665.974248 40.158988 
L 666.554224 40.158988 
L 666.554224 39.766251 
L 667.134201 39.766251 
L 667.134201 41.630879 
L 667.714178 41.630879 
L 667.714178 42.230411 
L 668.294155 42.230411 
L 668.294155 41.640756 
L 668.874132 41.640756 
L 668.874132 41.977176 
L 669.454109 41.977176 
L 669.454109 45.769103 
L 670.034086 45.769103 
L 670.034086 44.792716 
L 670.614062 44.792716 
L 670.614062 44.205754 
L 671.194039 44.205754 
L 671.194039 44.64699 
L 671.774016 44.64699 
L 671.774016 41.302234 
L 672.353993 41.302234 
L 672.353993 41.967826 
L 672.93397 41.967826 
L 672.93397 40.983936 
L 673.513947 40.983936 
L 673.513947 43.077952 
L 674.093923 43.077952 
L 674.093923 44.53978 
L 674.6739 44.53978 
L 674.6739 44.319141 
L 675.253877 44.319141 
L 675.253877 41.938028 
L 675.833854 41.938028 
L 675.833854 44.145692 
L 676.413831 44.145692 
L 676.413831 43.775993 
L 676.993808 43.775993 
L 676.993808 43.478474 
L 677.573785 43.478474 
L 677.573785 42.052534 
L 678.153761 42.052534 
L 678.153761 41.731258 
L 678.733738 41.731258 
L 678.733738 39.965862 
L 679.313715 39.965862 
L 679.313715 40.537864 
L 679.893692 40.537864 
L 679.893692 40.071832 
L 680.473669 40.071832 
L 680.473669 42.025693 
L 681.053646 42.025693 
L 681.053646 43.084369 
L 681.633622 43.084369 
L 681.633622 42.941748 
L 682.213599 42.941748 
L 682.213599 42.458177 
L 682.793576 42.458177 
L 682.793576 43.404879 
L 683.373553 43.404879 
L 683.373553 43.250954 
L 683.95353 43.250954 
L 683.95353 43.895458 
L 684.533507 43.895458 
L 684.533507 45.238463 
L 685.113484 45.238463 
L 685.113484 48.238099 
L 685.69346 48.238099 
L 685.69346 48.847626 
L 686.273437 48.847626 
L 686.273437 49.797937 
L 686.853414 49.797937 
L 686.853414 48.712009 
L 687.433391 48.712009 
L 687.433391 49.442895 
L 688.013368 49.442895 
L 688.013368 47.783566 
L 688.593345 47.783566 
L 688.593345 49.110975 
L 689.173321 49.110975 
L 689.173321 48.164653 
L 689.753298 48.164653 
L 689.753298 50.034292 
L 690.333275 50.034292 
L 690.333275 54.614113 
L 690.913252 54.614113 
L 690.913252 56.484341 
L 691.493229 56.484341 
L 691.493229 55.957072 
L 692.073206 55.957072 
L 692.073206 56.327142 
L 692.653183 56.327142 
L 692.653183 57.808094 
L 693.233159 57.808094 
L 693.233159 56.836968 
L 693.813136 56.836968 
L 693.813136 55.493026 
L 694.393113 55.493026 
L 694.393113 56.795548 
L 694.97309 56.795548 
L 694.97309 56.257605 
L 695.553067 56.257605 
L 695.553067 54.085329 
L 696.133044 54.085329 
L 696.133044 55.756335 
L 696.71302 55.756335 
L 696.71302 53.54099 
L 697.292997 53.54099 
L 697.292997 54.234946 
L 698.452951 54.265105 
L 698.452951 53.400127 
L 699.032928 53.400127 
L 699.032928 53.105575 
L 699.612905 53.105575 
L 699.612905 54.050844 
L 700.192882 54.050844 
L 700.192882 55.660458 
L 700.772858 55.660458 
L 700.772858 56.786013 
L 701.352835 56.786013 
L 701.352835 57.226672 
L 702.512789 57.184298 
L 702.512789 57.752564 
L 703.092766 57.752564 
L 703.092766 55.297323 
L 703.672743 55.297323 
L 703.672743 57.326421 
L 704.25272 57.326421 
L 704.25272 57.482101 
L 704.832696 57.482101 
L 704.832696 57.752045 
L 705.412673 57.752045 
L 705.412673 57.935388 
L 705.99265 57.935388 
L 705.99265 57.716642 
L 706.572627 57.716642 
L 706.572627 56.850985 
L 707.152604 56.850985 
L 707.152604 57.585183 
L 708.892534 57.475163 
L 708.892534 57.865846 
L 709.472511 57.865846 
L 709.472511 56.917156 
L 710.052488 56.917156 
L 710.052488 56.21722 
L 710.632465 56.21722 
L 710.632465 56.864695 
L 711.212442 56.864695 
L 711.212442 56.117241 
L 711.792419 56.117241 
L 711.792419 59.63537 
L 712.372395 59.63537 
L 712.372395 60.764787 
L 712.952372 60.764787 
L 712.952372 60.650097 
L 713.532349 60.650097 
L 713.532349 61.245276 
L 714.112326 61.245276 
L 714.112326 60.927835 
L 714.692303 60.927835 
L 714.692303 60.073343 
L 717.01221 60.031104 
L 717.01221 60.70494 
L 717.592187 60.70494 
L 717.592187 60.386024 
L 718.752141 60.465016 
L 718.752141 60.823651 
L 719.912094 60.73372 
L 719.912094 60.478926 
L 720.492071 60.478926 
L 720.492071 60.048338 
L 721.072048 60.048338 
L 721.072048 57.085162 
L 721.652025 57.085162 
L 721.652025 55.903123 
L 722.232002 55.903123 
L 722.232002 54.418161 
L 722.811979 54.418161 
L 722.811979 54.14107 
L 723.391955 54.14107 
L 723.391955 53.571445 
L 723.971932 53.571445 
L 723.971932 53.827217 
L 724.551909 53.827217 
L 724.551909 54.425867 
L 725.131886 54.425867 
L 725.131886 55.441172 
L 725.711863 55.441172 
L 725.711863 54.917476 
L 726.29184 54.917476 
L 726.29184 52.837973 
L 726.871817 52.837973 
L 726.871817 53.2123 
L 727.451793 53.2123 
L 727.451793 53.734608 
L 728.611747 53.816161 
L 728.611747 54.738995 
L 729.191724 54.738995 
L 729.191724 56.794399 
L 729.771701 56.794399 
L 729.771701 52.73621 
L 730.351678 52.73621 
L 730.351678 51.025874 
L 730.931654 51.025874 
L 730.931654 50.78166 
L 731.511631 50.78166 
L 731.511631 50.279327 
L 732.671585 50.255579 
L 732.671585 50.421182 
L 733.831539 50.332539 
L 733.831539 48.741108 
L 734.991492 48.685316 
L 734.991492 49.694433 
L 735.571469 49.694433 
L 735.571469 50.574259 
L 736.151446 50.574259 
L 736.151446 49.247346 
L 736.731423 49.247346 
L 736.731423 50.217327 
L 737.3114 50.217327 
L 737.3114 49.209993 
L 737.891377 49.209993 
L 737.891377 50.538329 
L 738.471353 50.538329 
L 738.471353 51.167033 
L 739.05133 51.167033 
L 739.05133 50.714329 
L 739.631307 50.714329 
L 739.631307 51.189006 
L 740.211284 51.189006 
L 740.211284 51.39916 
L 740.791261 51.39916 
L 740.791261 50.462698 
L 741.371238 50.462698 
L 741.371238 50.821593 
L 742.531191 50.827687 
L 742.531191 51.877199 
L 743.111168 51.877199 
L 743.111168 52.447519 
L 743.691145 52.447519 
L 743.691145 51.505504 
L 744.271122 51.505504 
L 744.271122 48.961751 
L 744.851099 48.961751 
L 744.851099 48.720107 
L 745.431076 48.720107 
L 745.431076 48.585039 
L 746.011052 48.585039 
L 746.011052 48.386622 
L 746.591029 48.386622 
L 746.591029 48.754646 
L 747.171006 48.754646 
L 747.171006 48.637599 
L 748.33096 48.737598 
L 748.33096 49.029808 
L 748.910937 49.029808 
L 748.910937 49.453532 
L 750.07089 49.359234 
L 750.07089 49.109726 
L 750.650867 49.109726 
L 750.650867 49.543249 
L 751.230844 49.543249 
L 751.230844 49.189362 
L 751.810821 49.189362 
L 751.810821 49.3813 
L 752.390798 49.3813 
L 752.390798 51.259884 
L 752.970775 51.259884 
L 752.970775 51.668657 
L 754.130728 51.725466 
L 754.130728 50.472396 
L 754.710705 50.472396 
L 754.710705 51.864599 
L 756.450636 51.8927 
L 756.450636 51.354783 
L 757.030613 51.354783 
L 757.030613 51.183624 
L 757.610589 51.183624 
L 757.610589 51.320214 
L 758.190566 51.320214 
L 758.190566 51.600224 
L 758.770543 51.600224 
L 758.770543 51.029557 
L 759.35052 51.029557 
L 759.35052 50.424546 
L 760.510474 50.324199 
L 760.510474 51.187441 
L 761.09045 51.187441 
L 761.09045 49.912545 
L 761.670427 49.912545 
L 761.670427 49.110408 
L 762.250404 49.110408 
L 762.250404 46.447949 
L 763.410358 46.337173 
L 763.410358 45.559429 
L 763.990335 45.559429 
L 763.990335 45.782288 
L 764.570312 45.782288 
L 764.570312 44.862049 
L 766.310242 44.901357 
L 766.310242 45.352285 
L 766.890219 45.352285 
L 766.890219 44.268009 
L 768.050173 44.232842 
L 768.050173 43.147477 
L 768.630149 43.147477 
L 768.630149 41.548339 
L 769.210126 41.548339 
L 769.210126 42.524837 
L 769.790103 42.524837 
L 769.790103 42.189432 
L 770.37008 42.189432 
L 770.37008 42.033426 
L 770.950057 42.033426 
L 770.950057 41.344173 
L 771.530034 41.344173 
L 771.530034 41.468907 
L 772.110011 41.468907 
L 772.110011 42.039555 
L 772.689987 42.039555 
L 772.689987 41.140191 
L 773.269964 41.140191 
L 773.269964 39.917241 
L 773.849941 39.917241 
L 773.849941 41.759791 
L 774.429918 41.759791 
L 774.429918 41.625413 
L 775.009895 41.625413 
L 775.009895 42.321358 
L 775.589872 42.321358 
L 775.589872 43.101212 
L 776.169848 43.101212 
L 776.169848 42.143586 
L 776.749825 42.143586 
L 776.749825 41.65852 
L 777.329802 41.65852 
L 777.329802 41.849134 
L 777.909779 41.849134 
L 777.909779 39.848234 
L 778.489756 39.848234 
L 778.489756 38.770928 
L 779.069733 38.770928 
L 779.069733 38.002222 
L 780.809663 37.985794 
L 780.809663 34.626921 
L 781.38964 34.626921 
L 781.38964 32.39675 
L 782.549594 32.41749 
L 782.549594 31.505466 
L 783.129571 31.505466 
L 783.129571 33.318032 
L 783.709547 33.318032 
L 783.709547 32.549792 
L 784.289524 32.549792 
L 784.289524 32.736864 
L 784.869501 32.736864 
L 784.869501 31.712319 
L 785.449478 31.712319 
L 785.449478 32.012747 
L 786.029455 32.012747 
L 786.029455 32.549721 
L 786.609432 32.549721 
L 786.609432 32.174183 
L 787.189409 32.174183 
L 787.189409 33.715737 
L 787.769385 33.715737 
L 787.769385 34.591585 
L 788.349362 34.591585 
L 788.349362 33.426862 
L 788.929339 33.426862 
L 788.929339 33.570305 
L 789.509316 33.570305 
L 789.509316 33.774332 
L 790.089293 33.774332 
L 790.089293 34.073841 
L 790.66927 34.073841 
L 790.66927 34.253605 
L 791.249246 34.253605 
L 791.249246 34.747348 
L 791.829223 34.747348 
L 791.829223 33.033161 
L 792.989177 33.025017 
L 792.989177 32.524704 
L 793.569154 32.524704 
L 793.569154 32.106969 
L 794.149131 32.106969 
L 794.149131 32.659967 
L 794.729108 32.659967 
L 794.729108 31.769425 
L 795.309084 31.769425 
L 795.309084 32.128992 
L 795.889061 32.128992 
L 795.889061 32.437178 
L 796.469038 32.437178 
L 796.469038 32.913262 
L 797.049015 32.913262 
L 797.049015 33.463747 
L 797.628992 33.463747 
L 797.628992 34.92144 
L 798.788945 34.909438 
L 798.788945 34.348633 
L 799.368922 34.348633 
L 799.368922 35.602153 
L 799.948899 35.602153 
L 799.948899 35.782448 
L 800.528876 35.782448 
L 800.528876 34.749858 
L 801.108853 34.749858 
L 801.108853 33.73174 
L 801.68883 33.73174 
L 801.68883 32.626657 
L 802.848783 32.532774 
L 802.848783 33.051048 
L 803.42876 33.051048 
L 803.42876 34.789917 
L 804.008737 34.789917 
L 804.008737 36.745077 
L 804.588714 36.745077 
L 804.588714 35.447462 
L 805.168691 35.447462 
L 805.168691 35.858777 
L 805.748668 35.858777 
L 805.748668 35.190253 
L 806.328644 35.190253 
L 806.328644 33.696253 
L 806.908621 33.696253 
L 806.908621 35.193314 
L 807.488598 35.193314 
L 807.488598 35.361718 
L 808.068575 35.361718 
L 808.068575 35.705012 
L 808.648552 35.705012 
L 808.648552 36.809342 
L 809.228529 36.809342 
L 809.228529 35.64646 
L 810.388482 35.626323 
L 810.388482 33.969671 
L 810.968459 33.969671 
L 810.968459 33.634778 
L 811.548436 33.634778 
L 811.548436 33.139462 
L 812.128413 33.139462 
L 812.128413 34.802204 
L 812.70839 34.802204 
L 812.70839 34.096256 
L 813.288367 34.096256 
L 813.288367 34.924862 
L 813.868343 34.924862 
L 813.868343 33.090867 
L 814.44832 33.090867 
L 814.44832 32.38254 
L 815.028297 32.38254 
L 815.028297 32.694641 
L 816.188251 32.798795 
L 816.188251 31.27132 
L 816.768228 31.27132 
L 816.768228 32.289673 
L 817.348205 32.289673 
L 817.348205 30.299405 
L 817.928181 30.299405 
L 817.928181 27.180553 
L 818.508158 27.180553 
L 818.508158 26.658369 
L 819.088135 26.658369 
L 819.088135 26.373116 
L 819.668112 26.373116 
L 819.668112 25.233636 
L 820.248089 25.233636 
L 820.248089 25.609949 
L 820.828066 25.609949 
L 820.828066 25.337003 
L 822.567996 25.297523 
L 822.567996 24.491571 
L 823.147973 24.491571 
L 823.147973 23.586855 
L 823.72795 23.586855 
L 823.72795 25.346699 
L 824.307927 25.346699 
L 824.307927 24.924032 
L 824.887904 24.924032 
L 824.887904 26.121666 
L 825.46788 26.121666 
L 825.46788 25.423666 
L 826.047857 25.423666 
L 826.047857 24.337063 
L 826.627834 24.337063 
L 826.627834 25.873486 
L 827.207811 25.873486 
L 827.207811 25.491296 
L 827.787788 25.491296 
L 827.787788 23.919231 
L 828.367765 23.919231 
L 828.367765 24.067841 
L 828.947741 24.067841 
L 828.947741 24.270709 
L 829.527718 24.270709 
L 829.527718 23.855056 
L 830.107695 23.855056 
L 830.107695 24.50199 
L 830.687672 24.50199 
L 830.687672 25.488483 
L 831.267649 25.488483 
L 831.267649 25.652782 
L 831.847626 25.652782 
L 831.847626 25.271223 
L 832.427603 25.271223 
L 832.427603 25.467314 
L 833.587556 25.543726 
L 833.587556 28.122026 
L 834.167533 28.122026 
L 834.167533 27.78511 
L 834.74751 27.78511 
L 834.74751 27.631272 
L 835.327487 27.631272 
L 835.327487 28.549278 
L 835.907464 28.549278 
L 835.907464 28.194622 
L 836.48744 28.194622 
L 836.48744 27.603109 
L 837.067417 27.603109 
L 837.067417 27.79086 
L 837.647394 27.79086 
L 837.647394 27.52942 
L 838.227371 27.52942 
L 838.227371 28.628761 
L 838.807348 28.628761 
L 838.807348 28.31314 
L 839.387325 28.31314 
L 839.387325 30.209848 
L 839.967302 30.209848 
L 839.967302 27.971769 
L 840.547278 27.971769 
L 840.547278 28.267427 
L 841.127255 28.267427 
L 841.127255 27.997767 
L 841.707232 27.997767 
L 841.707232 26.028875 
L 842.287209 26.028875 
L 842.287209 25.81108 
L 842.867186 25.81108 
L 842.867186 25.408497 
L 844.027139 25.430955 
L 844.027139 23.850792 
L 844.607116 23.850792 
L 844.607116 24.084244 
L 845.187093 24.084244 
L 845.187093 23.536214 
L 845.76707 23.536214 
L 845.76707 22.563278 
L 846.347047 22.563278 
L 846.347047 22.969087 
L 846.927024 22.969087 
L 846.927024 23.992494 
L 847.507001 23.992494 
L 847.507001 23.723455 
L 848.666954 23.685773 
L 848.666954 23.114651 
L 849.246931 23.114651 
L 849.246931 23.699869 
L 849.826908 23.699869 
L 849.826908 23.867227 
L 850.406885 23.867227 
L 850.406885 23.733748 
L 850.986862 23.733748 
L 850.986862 23.407606 
L 851.566838 23.407606 
L 851.566838 23.67197 
L 852.146815 23.67197 
L 852.146815 23.196894 
L 852.726792 23.196894 
L 852.726792 22.63816 
L 853.306769 22.63816 
L 853.306769 21.283255 
L 854.466723 21.252761 
L 854.466723 21.562443 
L 856.206653 21.480964 
L 856.206653 22.420458 
L 856.78663 22.420458 
L 856.78663 21.979852 
L 857.366607 21.979852 
L 857.366607 21.249643 
L 857.946584 21.249643 
L 857.946584 21.402591 
L 858.526561 21.402591 
L 858.526561 21.76739 
L 859.686514 21.66157 
L 859.686514 22.548708 
L 860.266491 22.548708 
L 860.266491 23.095814 
L 860.846468 23.095814 
L 860.846468 22.560524 
L 862.006422 22.661532 
L 862.006422 21.894154 
L 863.746352 21.864056 
L 863.746352 22.511697 
L 864.326329 22.511697 
L 864.326329 22.931157 
L 864.906306 22.931157 
L 864.906306 21.363749 
L 865.486283 21.363749 
L 865.486283 20.552727 
L 866.06626 20.552727 
L 866.06626 20.852518 
L 866.646236 20.852518 
L 866.646236 21.946446 
L 867.226213 21.946446 
L 867.226213 23.528444 
L 867.80619 23.528444 
L 867.80619 23.159011 
L 868.386167 23.159011 
L 868.386167 22.578441 
L 868.966144 22.578441 
L 868.966144 22.861951 
L 870.126098 22.765112 
L 870.126098 24.528115 
L 870.706074 24.528115 
L 870.706074 23.623438 
L 871.286051 23.623438 
L 871.286051 25.937762 
L 871.866028 25.937762 
L 871.866028 26.241358 
L 872.446005 26.241358 
L 872.446005 28.114511 
L 873.025982 28.114511 
L 873.025982 26.77875 
L 874.185935 26.81 
L 874.185935 26.4225 
L 874.765912 26.4225 
L 874.765912 26.750885 
L 875.925866 26.833691 
L 875.925866 27.381199 
L 876.505843 27.381199 
L 876.505843 27.267051 
L 877.08582 27.267051 
L 877.08582 27.433167 
L 878.245773 27.38126 
L 878.245773 27.177108 
L 878.82575 27.177108 
L 878.82575 26.047721 
L 879.405727 26.047721 
L 879.405727 26.78359 
L 879.985704 26.78359 
L 879.985704 25.740447 
L 881.145658 25.790073 
L 881.145658 27.033228 
L 881.725634 27.033228 
L 881.725634 27.671621 
L 882.305611 27.671621 
L 882.305611 28.141547 
L 882.885588 28.141547 
L 882.885588 29.585924 
L 883.465565 29.585924 
L 883.465565 31.778773 
L 884.045542 31.778773 
L 884.045542 32.275099 
L 884.625519 32.275099 
L 884.625519 31.997414 
L 885.205496 31.997414 
L 885.205496 32.976194 
L 885.785472 32.976194 
L 885.785472 32.621431 
L 886.945426 32.664182 
L 886.945426 33.409639 
L 887.194182 33.409639 
L 887.194182 33.409639 
" clip-path="url(#p138918502c)" style="fill: none; stroke: #3572c6; stroke-width: 1.2; stroke-linecap: square"/>
   </g>
   <g id="line2d_79">
    <path d="M 75.557818 20.552727 
L 887.194182 20.552727 
L 887.194182 20.552727 
" clip-path="url(#p138918502c)" style="fill: none; stroke: #83a83b; stroke-width: 1.2; stroke-linecap: square"/>
   </g>
   <g id="line2d_80">
    <path d="M 75.557818 33.409639 
L 887.194182 33.409639 
L 887.194182 33.409639 
" clip-path="url(#p138918502c)" style="fill: none; stroke: #c44e52; stroke-width: 1.2; stroke-linecap: square"/>
   </g>
   <g id="line2d_81">
    <path d="M 866.06626 300.96 
L 866.06626 7.2 
" clip-path="url(#p138918502c)" style="fill: none; stroke: #83a83b; stroke-width: 1.2; stroke-linecap: square"/>
   </g>
   <g id="line2d_82">
    <path d="M 887.194182 300.96 
L 887.194182 7.2 
" clip-path="url(#p138918502c)" style="fill: none; stroke: #c44e52; stroke-width: 1.2; stroke-linecap: square"/>
   </g>
   <g id="patch_3">
    <path d="M 34.976 300.96 
L 34.976 7.2 
" style="fill: none; stroke: #899ab8; stroke-width: 1.12; stroke-linejoin: miter; stroke-linecap: square"/>
   </g>
   <g id="patch_4">
    <path d="M 927.776 300.96 
L 927.776 7.2 
" style="fill: none; stroke: #899ab8; stroke-width: 1.12; stroke-linejoin: miter; stroke-linecap: square"/>
   </g>
   <g id="patch_5">
    <path d="M 34.976 300.96 
L 927.776 300.96 
" style="fill: none; stroke: #899ab8; stroke-width: 1.12; stroke-linejoin: miter; stroke-linecap: square"/>
   </g>
   <g id="patch_6">
    <path d="M 34.976 7.2 
L 927.776 7.2 
" style="fill: none; stroke: #899ab8; stroke-width: 1.12; stroke-linejoin: miter; stroke-linecap: square"/>
   </g>
   <g id="text_16">
    <!-- 123519.47 -->
    <g style="fill: #83a83b" transform="translate(181.403593 20.552727) scale(0.132 -0.132)">
     <defs>
      <path id="DejaVuSans-39" d="M 703 97 
L 703 672 
Q 941 559 1184 500 
Q 1428 441 1663 441 
Q 2288 441 2617 861 
Q 2947 1281 2994 2138 
Q 2813 1869 2534 1725 
Q 2256 1581 1919 1581 
Q 1219 1581 811 2004 
Q 403 2428 403 3163 
Q 403 3881 828 4315 
Q 1253 4750 1959 4750 
Q 2769 4750 3195 4129 
Q 3622 3509 3622 2328 
Q 3622 1225 3098 567 
Q 2575 -91 1691 -91 
Q 1453 -91 1209 -44 
Q 966 3 703 97 
z
M 1959 2075 
Q 2384 2075 2632 2365 
Q 2881 2656 2881 3163 
Q 2881 3666 2632 3958 
Q 2384 4250 1959 4250 
Q 1534 4250 1286 3958 
Q 1038 3666 1038 3163 
Q 1038 2656 1286 2365 
Q 1534 2075 1959 2075 
z
" transform="scale(0.015625)"/>
      <path id="DejaVuSans-2e" d="M 684 794 
L 1344 794 
L 1344 0 
L 684 0 
L 684 794 
z
" transform="scale(0.015625)"/>
      <path id="DejaVuSans-37" d="M 525 4666 
L 3525 4666 
L 3525 4397 
L 1831 0 
L 1172 0 
L 2766 4134 
L 525 4134 
L 525 4666 
z
" transform="scale(0.015625)"/>
     </defs>
     <use xlink:href="#DejaVuSans-31"/>
     <use xlink:href="#DejaVuSans-32" transform="translate(63.623047 0)"/>
     <use xlink:href="#DejaVuSans-33" transform="translate(127.246094 0)"/>
     <use xlink:href="#DejaVuSans-35" transform="translate(190.869141 0)"/>
     <use xlink:href="#DejaVuSans-31" transform="translate(254.492188 0)"/>
     <use xlink:href="#DejaVuSans-39" transform="translate(318.115234 0)"/>
     <use xlink:href="#DejaVuSans-2e" transform="translate(381.738281 0)"/>
     <use xlink:href="#DejaVuSans-34" transform="translate(413.525391 0)"/>
     <use xlink:href="#DejaVuSans-37" transform="translate(477.148438 0)"/>
    </g>
   </g>
   <g id="text_17">
    <!-- 65005.6678132957 -->
    <g style="fill: #c44e52" transform="translate(181.403593 33.409639) scale(0.132 -0.132)">
     <use xlink:href="#DejaVuSans-36"/>
     <use xlink:href="#DejaVuSans-35" transform="translate(63.623047 0)"/>
     <use xlink:href="#DejaVuSans-30" transform="translate(127.246094 0)"/>
     <use xlink:href="#DejaVuSans-30" transform="translate(190.869141 0)"/>
     <use xlink:href="#DejaVuSans-35" transform="translate(254.492188 0)"/>
     <use xlink:href="#DejaVuSans-2e" transform="translate(318.115234 0)"/>
     <use xlink:href="#DejaVuSans-36" transform="translate(349.902344 0)"/>
     <use xlink:href="#DejaVuSans-36" transform="translate(413.525391 0)"/>
     <use xlink:href="#DejaVuSans-37" transform="translate(477.148438 0)"/>
     <use xlink:href="#DejaVuSans-38" transform="translate(540.771484 0)"/>
     <use xlink:href="#DejaVuSans-31" transform="translate(604.394531 0)"/>
     <use xlink:href="#DejaVuSans-33" transform="translate(668.017578 0)"/>
     <use xlink:href="#DejaVuSans-32" transform="translate(731.640625 0)"/>
     <use xlink:href="#DejaVuSans-39" transform="translate(795.263672 0)"/>
     <use xlink:href="#DejaVuSans-35" transform="translate(858.886719 0)"/>
     <use xlink:href="#DejaVuSans-37" transform="translate(922.509766 0)"/>
    </g>
   </g>
   <g id="legend_1">
    <g id="patch_7">
     <path d="M 43.796 183.886875 
L 142.133094 183.886875 
Q 144.653094 183.886875 144.653094 181.366875 
L 144.653094 126.793125 
Q 144.653094 124.273125 142.133094 124.273125 
L 43.796 124.273125 
Q 41.276 124.273125 41.276 126.793125 
L 41.276 181.366875 
Q 41.276 183.886875 43.796 183.886875 
z
" style="fill: #373e4b; opacity: 0.8; stroke: #cccccc; stroke-width: 0.16; stroke-linejoin: miter"/>
    </g>
    <g id="line2d_83">
     <path d="M 46.316 134.477156 
L 46.316 134.477156 
L 58.916 134.477156 
L 58.916 134.477156 
L 71.516 134.477156 
" style="fill: none; stroke: #3572c6; stroke-width: 1.2; stroke-linecap: square"/>
    </g>
    <g id="text_18">
     <!-- USD/BTC -->
     <g style="fill: #b1bed6" transform="translate(81.596 138.887156) scale(0.126 -0.126)">
      <defs>
       <path id="DejaVuSans-55" d="M 556 4666 
L 1191 4666 
L 1191 1831 
Q 1191 1081 1462 751 
Q 1734 422 2344 422 
Q 2950 422 3222 751 
Q 3494 1081 3494 1831 
L 3494 4666 
L 4128 4666 
L 4128 1753 
Q 4128 841 3676 375 
Q 3225 -91 2344 -91 
Q 1459 -91 1007 375 
Q 556 841 556 1753 
L 556 4666 
z
" transform="scale(0.015625)"/>
       <path id="DejaVuSans-53" d="M 3425 4513 
L 3425 3897 
Q 3066 4069 2747 4153 
Q 2428 4238 2131 4238 
Q 1616 4238 1336 4038 
Q 1056 3838 1056 3469 
Q 1056 3159 1242 3001 
Q 1428 2844 1947 2747 
L 2328 2669 
Q 3034 2534 3370 2195 
Q 3706 1856 3706 1288 
Q 3706 609 3251 259 
Q 2797 -91 1919 -91 
Q 1588 -91 1214 -16 
Q 841 59 441 206 
L 441 856 
Q 825 641 1194 531 
Q 1563 422 1919 422 
Q 2459 422 2753 634 
Q 3047 847 3047 1241 
Q 3047 1584 2836 1778 
Q 2625 1972 2144 2069 
L 1759 2144 
Q 1053 2284 737 2584 
Q 422 2884 422 3419 
Q 422 4038 858 4394 
Q 1294 4750 2059 4750 
Q 2388 4750 2728 4690 
Q 3069 4631 3425 4513 
z
" transform="scale(0.015625)"/>
       <path id="DejaVuSans-2f" d="M 1625 4666 
L 2156 4666 
L 531 -594 
L 0 -594 
L 1625 4666 
z
" transform="scale(0.015625)"/>
       <path id="DejaVuSans-42" d="M 1259 2228 
L 1259 519 
L 2272 519 
Q 2781 519 3026 730 
Q 3272 941 3272 1375 
Q 3272 1813 3026 2020 
Q 2781 2228 2272 2228 
L 1259 2228 
z
M 1259 4147 
L 1259 2741 
L 2194 2741 
Q 2656 2741 2882 2914 
Q 3109 3088 3109 3444 
Q 3109 3797 2882 3972 
Q 2656 4147 2194 4147 
L 1259 4147 
z
M 628 4666 
L 2241 4666 
Q 2963 4666 3353 4366 
Q 3744 4066 3744 3513 
Q 3744 3084 3544 2831 
Q 3344 2578 2956 2516 
Q 3422 2416 3680 2098 
Q 3938 1781 3938 1306 
Q 3938 681 3513 340 
Q 3088 0 2303 0 
L 628 0 
L 628 4666 
z
" transform="scale(0.015625)"/>
       <path id="DejaVuSans-54" d="M -19 4666 
L 3928 4666 
L 3928 4134 
L 2272 4134 
L 2272 0 
L 1638 0 
L 1638 4134 
L -19 4134 
L -19 4666 
z
" transform="scale(0.015625)"/>
       <path id="DejaVuSans-43" d="M 4122 4306 
L 4122 3641 
Q 3803 3938 3442 4084 
Q 3081 4231 2675 4231 
Q 1875 4231 1450 3742 
Q 1025 3253 1025 2328 
Q 1025 1406 1450 917 
Q 1875 428 2675 428 
Q 3081 428 3442 575 
Q 3803 722 4122 1019 
L 4122 359 
Q 3791 134 3420 21 
Q 3050 -91 2638 -91 
Q 1578 -91 968 557 
Q 359 1206 359 2328 
Q 359 3453 968 4101 
Q 1578 4750 2638 4750 
Q 3056 4750 3426 4639 
Q 3797 4528 4122 4306 
z
" transform="scale(0.015625)"/>
      </defs>
      <use xlink:href="#DejaVuSans-55"/>
      <use xlink:href="#DejaVuSans-53" transform="translate(73.193359 0)"/>
      <use xlink:href="#DejaVuSans-44" transform="translate(136.669922 0)"/>
      <use xlink:href="#DejaVuSans-2f" transform="translate(213.671875 0)"/>
      <use xlink:href="#DejaVuSans-42" transform="translate(247.363281 0)"/>
      <use xlink:href="#DejaVuSans-54" transform="translate(315.966797 0)"/>
      <use xlink:href="#DejaVuSans-43" transform="translate(371.175781 0)"/>
     </g>
    </g>
    <g id="line2d_84">
     <path d="M 46.316 152.971594 
L 46.316 152.971594 
L 58.916 152.971594 
L 58.916 152.971594 
L 71.516 152.971594 
" style="fill: none; stroke: #83a83b; stroke-width: 1.2; stroke-linecap: square"/>
    </g>
    <g id="text_19">
     <!-- Max -->
     <g style="fill: #b1bed6" transform="translate(81.596 157.381594) scale(0.126 -0.126)">
      <defs>
       <path id="DejaVuSans-4d" d="M 628 4666 
L 1569 4666 
L 2759 1491 
L 3956 4666 
L 4897 4666 
L 4897 0 
L 4281 0 
L 4281 4097 
L 3078 897 
L 2444 897 
L 1241 4097 
L 1241 0 
L 628 0 
L 628 4666 
z
" transform="scale(0.015625)"/>
       <path id="DejaVuSans-78" d="M 3513 3500 
L 2247 1797 
L 3578 0 
L 2900 0 
L 1881 1375 
L 863 0 
L 184 0 
L 1544 1831 
L 300 3500 
L 978 3500 
L 1906 2253 
L 2834 3500 
L 3513 3500 
z
" transform="scale(0.015625)"/>
      </defs>
      <use xlink:href="#DejaVuSans-4d"/>
      <use xlink:href="#DejaVuSans-61" transform="translate(86.279297 0)"/>
      <use xlink:href="#DejaVuSans-78" transform="translate(147.558594 0)"/>
     </g>
    </g>
    <g id="line2d_85">
     <path d="M 46.316 171.466031 
L 46.316 171.466031 
L 58.916 171.466031 
L 58.916 171.466031 
L 71.516 171.466031 
" style="fill: none; stroke: #c44e52; stroke-width: 1.2; stroke-linecap: square"/>
    </g>
    <g id="text_20">
     <!-- local_Min -->
     <g style="fill: #b1bed6" transform="translate(81.596 175.876031) scale(0.126 -0.126)">
      <defs>
       <path id="DejaVuSans-6c" d="M 603 4863 
L 1178 4863 
L 1178 0 
L 603 0 
L 603 4863 
z
" transform="scale(0.015625)"/>
       <path id="DejaVuSans-6f" d="M 1959 3097 
Q 1497 3097 1228 2736 
Q 959 2375 959 1747 
Q 959 1119 1226 758 
Q 1494 397 1959 397 
Q 2419 397 2687 759 
Q 2956 1122 2956 1747 
Q 2956 2369 2687 2733 
Q 2419 3097 1959 3097 
z
M 1959 3584 
Q 2709 3584 3137 3096 
Q 3566 2609 3566 1747 
Q 3566 888 3137 398 
Q 2709 -91 1959 -91 
Q 1206 -91 779 398 
Q 353 888 353 1747 
Q 353 2609 779 3096 
Q 1206 3584 1959 3584 
z
" transform="scale(0.015625)"/>
       <path id="DejaVuSans-63" d="M 3122 3366 
L 3122 2828 
Q 2878 2963 2633 3030 
Q 2388 3097 2138 3097 
Q 1578 3097 1268 2742 
Q 959 2388 959 1747 
Q 959 1106 1268 751 
Q 1578 397 2138 397 
Q 2388 397 2633 464 
Q 2878 531 3122 666 
L 3122 134 
Q 2881 22 2623 -34 
Q 2366 -91 2075 -91 
Q 1284 -91 818 406 
Q 353 903 353 1747 
Q 353 2603 823 3093 
Q 1294 3584 2113 3584 
Q 2378 3584 2631 3529 
Q 2884 3475 3122 3366 
z
" transform="scale(0.015625)"/>
       <path id="DejaVuSans-5f" d="M 3263 -1063 
L 3263 -1509 
L -63 -1509 
L -63 -1063 
L 3263 -1063 
z
" transform="scale(0.015625)"/>
       <path id="DejaVuSans-69" d="M 603 3500 
L 1178 3500 
L 1178 0 
L 603 0 
L 603 3500 
z
M 603 4863 
L 1178 4863 
L 1178 4134 
L 603 4134 
L 603 4863 
z
" transform="scale(0.015625)"/>
       <path id="DejaVuSans-6e" d="M 3513 2113 
L 3513 0 
L 2938 0 
L 2938 2094 
Q 2938 2591 2744 2837 
Q 2550 3084 2163 3084 
Q 1697 3084 1428 2787 
Q 1159 2491 1159 1978 
L 1159 0 
L 581 0 
L 581 3500 
L 1159 3500 
L 1159 2956 
Q 1366 3272 1645 3428 
Q 1925 3584 2291 3584 
Q 2894 3584 3203 3211 
Q 3513 2838 3513 2113 
z
" transform="scale(0.015625)"/>
      </defs>
      <use xlink:href="#DejaVuSans-6c"/>
      <use xlink:href="#DejaVuSans-6f" transform="translate(27.783203 0)"/>
      <use xlink:href="#DejaVuSans-63" transform="translate(88.964844 0)"/>
      <use xlink:href="#DejaVuSans-61" transform="translate(143.945312 0)"/>
      <use xlink:href="#DejaVuSans-6c" transform="translate(205.224609 0)"/>
      <use xlink:href="#DejaVuSans-5f" transform="translate(233.007812 0)"/>
      <use xlink:href="#DejaVuSans-4d" transform="translate(283.007812 0)"/>
      <use xlink:href="#DejaVuSans-69" transform="translate(369.287109 0)"/>
      <use xlink:href="#DejaVuSans-6e" transform="translate(397.070312 0)"/>
     </g>
    </g>
   </g>
  </g>
 </g>
 <defs>
  <clipPath id="p138918502c">
   <rect x="34.976" y="7.2" width="892.8" height="293.76"/>
  </clipPath>
 </defs>
</svg>
