<?xml version="1.0" encoding="utf-8" standalone="no"?>
<!DOCTYPE svg PUBLIC "-//W3C//DTD SVG 1.1//EN"
  "http://www.w3.org/Graphics/SVG/1.1/DTD/svg11.dtd">
<svg xmlns:xlink="http://www.w3.org/1999/xlink" width="934.976pt" height="358.290693pt" viewBox="0 0 934.976 358.290693" xmlns="http://www.w3.org/2000/svg" version="1.1">
 <metadata>
  <rdf:RDF xmlns:dc="http://purl.org/dc/elements/1.1/" xmlns:cc="http://creativecommons.org/ns#" xmlns:rdf="http://www.w3.org/1999/02/22-rdf-syntax-ns#">
   <cc:Work>
    <dc:type rdf:resource="http://purl.org/dc/dcmitype/StillImage"/>
    <dc:date>2026-03-11T08:24:09.363036</dc:date>
    <dc:format>image/svg+xml</dc:format>
    <dc:creator>
     <cc:Agent>
      <dc:title>Matplotlib v3.10.8, https://matplotlib.org/</dc:title>
     </cc:Agent>
    </dc:creator>
   </cc:Work>
  </rdf:RDF>
 </metadata>
 <defs>
  <style type="text/css">*{stroke-linejoin: round; stroke-linecap: butt}</style>
 </defs>
 <g id="figure_1">
  <g id="patch_1">
   <path d="M 0 358.290693 
L 934.976 358.290693 
L 934.976 0 
L 0 0 
z
" style="fill: #373e4b"/>
  </g>
  <g id="axes_1">
   <g id="patch_2">
    <path d="M 34.976 300.96 
L 927.776 300.96 
L 927.776 7.2 
L 34.976 7.2 
z
" style="fill: #373e4b"/>
   </g>
   <g id="matplotlib.axis_1">
    <g id="xtick_1">
     <g id="line2d_1">
      <path d="M 137.06351 300.96 
L 137.06351 7.2 
" clip-path="url(#pe577085752)" style="fill: none; stroke: #546379; stroke-width: 1.12; stroke-linecap: square"/>
     </g>
     <g id="line2d_2"/>
     <g id="text_1">
      <!-- 2012 -->
      <g style="fill: #b1bed6" transform="translate(107.98247 330.884854) rotate(-30) scale(0.126 -0.126)">
       <defs>
        <path id="DejaVuSans-32" d="M 1228 531 
L 3431 531 
L 3431 0 
L 469 0 
L 469 531 
Q 828 903 1448 1529 
Q 2069 2156 2228 2338 
Q 2531 2678 2651 2914 
Q 2772 3150 2772 3378 
Q 2772 3750 2511 3984 
Q 2250 4219 1831 4219 
Q 1534 4219 1204 4116 
Q 875 4013 500 3803 
L 500 4441 
Q 881 4594 1212 4672 
Q 1544 4750 1819 4750 
Q 2544 4750 2975 4387 
Q 3406 4025 3406 3419 
Q 3406 3131 3298 2873 
Q 3191 2616 2906 2266 
Q 2828 2175 2409 1742 
Q 1991 1309 1228 531 
z
" transform="scale(0.015625)"/>
        <path id="DejaVuSans-30" d="M 2034 4250 
Q 1547 4250 1301 3770 
Q 1056 3291 1056 2328 
Q 1056 1369 1301 889 
Q 1547 409 2034 409 
Q 2525 409 2770 889 
Q 3016 1369 3016 2328 
Q 3016 3291 2770 3770 
Q 2525 4250 2034 4250 
z
M 2034 4750 
Q 2819 4750 3233 4129 
Q 3647 3509 3647 2328 
Q 3647 1150 3233 529 
Q 2819 -91 2034 -91 
Q 1250 -91 836 529 
Q 422 1150 422 2328 
Q 422 3509 836 4129 
Q 1250 4750 2034 4750 
z
" transform="scale(0.015625)"/>
        <path id="DejaVuSans-31" d="M 794 531 
L 1825 531 
L 1825 4091 
L 703 3866 
L 703 4441 
L 1819 4666 
L 2450 4666 
L 2450 531 
L 3481 531 
L 3481 0 
L 794 0 
L 794 531 
z
" transform="scale(0.015625)"/>
       </defs>
       <use xlink:href="#DejaVuSans-32"/>
       <use xlink:href="#DejaVuSans-30" transform="translate(63.623047 0)"/>
       <use xlink:href="#DejaVuSans-31" transform="translate(127.246094 0)"/>
       <use xlink:href="#DejaVuSans-32" transform="translate(190.869141 0)"/>
      </g>
     </g>
    </g>
    <g id="xtick_2">
     <g id="line2d_3">
      <path d="M 242.853301 300.96 
L 242.853301 7.2 
" clip-path="url(#pe577085752)" style="fill: none; stroke: #546379; stroke-width: 1.12; stroke-linecap: square"/>
     </g>
     <g id="line2d_4"/>
     <g id="text_2">
      <!-- 2014 -->
      <g style="fill: #b1bed6" transform="translate(213.772261 330.884854) rotate(-30) scale(0.126 -0.126)">
       <defs>
        <path id="DejaVuSans-34" d="M 2419 4116 
L 825 1625 
L 2419 1625 
L 2419 4116 
z
M 2253 4666 
L 3047 4666 
L 3047 1625 
L 3713 1625 
L 3713 1100 
L 3047 1100 
L 3047 0 
L 2419 0 
L 2419 1100 
L 313 1100 
L 313 1709 
L 2253 4666 
z
" transform="scale(0.015625)"/>
       </defs>
       <use xlink:href="#DejaVuSans-32"/>
       <use xlink:href="#DejaVuSans-30" transform="translate(63.623047 0)"/>
       <use xlink:href="#DejaVuSans-31" transform="translate(127.246094 0)"/>
       <use xlink:href="#DejaVuSans-34" transform="translate(190.869141 0)"/>
      </g>
     </g>
    </g>
    <g id="xtick_3">
     <g id="line2d_5">
      <path d="M 348.498372 300.96 
L 348.498372 7.2 
" clip-path="url(#pe577085752)" style="fill: none; stroke: #546379; stroke-width: 1.12; stroke-linecap: square"/>
     </g>
     <g id="line2d_6"/>
     <g id="text_3">
      <!-- 2016 -->
      <g style="fill: #b1bed6" transform="translate(319.417332 330.884854) rotate(-30) scale(0.126 -0.126)">
       <defs>
        <path id="DejaVuSans-36" d="M 2113 2584 
Q 1688 2584 1439 2293 
Q 1191 2003 1191 1497 
Q 1191 994 1439 701 
Q 1688 409 2113 409 
Q 2538 409 2786 701 
Q 3034 994 3034 1497 
Q 3034 2003 2786 2293 
Q 2538 2584 2113 2584 
z
M 3366 4563 
L 3366 3988 
Q 3128 4100 2886 4159 
Q 2644 4219 2406 4219 
Q 1781 4219 1451 3797 
Q 1122 3375 1075 2522 
Q 1259 2794 1537 2939 
Q 1816 3084 2150 3084 
Q 2853 3084 3261 2657 
Q 3669 2231 3669 1497 
Q 3669 778 3244 343 
Q 2819 -91 2113 -91 
Q 1303 -91 875 529 
Q 447 1150 447 2328 
Q 447 3434 972 4092 
Q 1497 4750 2381 4750 
Q 2619 4750 2861 4703 
Q 3103 4656 3366 4563 
z
" transform="scale(0.015625)"/>
       </defs>
       <use xlink:href="#DejaVuSans-32"/>
       <use xlink:href="#DejaVuSans-30" transform="translate(63.623047 0)"/>
       <use xlink:href="#DejaVuSans-31" transform="translate(127.246094 0)"/>
       <use xlink:href="#DejaVuSans-36" transform="translate(190.869141 0)"/>
      </g>
     </g>
    </g>
    <g id="xtick_4">
     <g id="line2d_7">
      <path d="M 454.288162 300.96 
L 454.288162 7.2 
" clip-path="url(#pe577085752)" style="fill: none; stroke: #546379; stroke-width: 1.12; stroke-linecap: square"/>
     </g>
     <g id="line2d_8"/>
     <g id="text_4">
      <!-- 2018 -->
      <g style="fill: #b1bed6" transform="translate(425.207122 330.884854) rotate(-30) scale(0.126 -0.126)">
       <defs>
        <path id="DejaVuSans-38" d="M 2034 2216 
Q 1584 2216 1326 1975 
Q 1069 1734 1069 1313 
Q 1069 891 1326 650 
Q 1584 409 2034 409 
Q 2484 409 2743 651 
Q 3003 894 3003 1313 
Q 3003 1734 2745 1975 
Q 2488 2216 2034 2216 
z
M 1403 2484 
Q 997 2584 770 2862 
Q 544 3141 544 3541 
Q 544 4100 942 4425 
Q 1341 4750 2034 4750 
Q 2731 4750 3128 4425 
Q 3525 4100 3525 3541 
Q 3525 3141 3298 2862 
Q 3072 2584 2669 2484 
Q 3125 2378 3379 2068 
Q 3634 1759 3634 1313 
Q 3634 634 3220 271 
Q 2806 -91 2034 -91 
Q 1263 -91 848 271 
Q 434 634 434 1313 
Q 434 1759 690 2068 
Q 947 2378 1403 2484 
z
M 1172 3481 
Q 1172 3119 1398 2916 
Q 1625 2713 2034 2713 
Q 2441 2713 2670 2916 
Q 2900 3119 2900 3481 
Q 2900 3844 2670 4047 
Q 2441 4250 2034 4250 
Q 1625 4250 1398 4047 
Q 1172 3844 1172 3481 
z
" transform="scale(0.015625)"/>
       </defs>
       <use xlink:href="#DejaVuSans-32"/>
       <use xlink:href="#DejaVuSans-30" transform="translate(63.623047 0)"/>
       <use xlink:href="#DejaVuSans-31" transform="translate(127.246094 0)"/>
       <use xlink:href="#DejaVuSans-38" transform="translate(190.869141 0)"/>
      </g>
     </g>
    </g>
    <g id="xtick_5">
     <g id="line2d_9">
      <path d="M 559.933233 300.96 
L 559.933233 7.2 
" clip-path="url(#pe577085752)" style="fill: none; stroke: #546379; stroke-width: 1.12; stroke-linecap: square"/>
     </g>
     <g id="line2d_10"/>
     <g id="text_5">
      <!-- 2020 -->
      <g style="fill: #b1bed6" transform="translate(530.852193 330.884854) rotate(-30) scale(0.126 -0.126)">
       <use xlink:href="#DejaVuSans-32"/>
       <use xlink:href="#DejaVuSans-30" transform="translate(63.623047 0)"/>
       <use xlink:href="#DejaVuSans-32" transform="translate(127.246094 0)"/>
       <use xlink:href="#DejaVuSans-30" transform="translate(190.869141 0)"/>
      </g>
     </g>
    </g>
    <g id="xtick_6">
     <g id="line2d_11">
      <path d="M 665.723023 300.96 
L 665.723023 7.2 
" clip-path="url(#pe577085752)" style="fill: none; stroke: #546379; stroke-width: 1.12; stroke-linecap: square"/>
     </g>
     <g id="line2d_12"/>
     <g id="text_6">
      <!-- 2022 -->
      <g style="fill: #b1bed6" transform="translate(636.641984 330.884854) rotate(-30) scale(0.126 -0.126)">
       <use xlink:href="#DejaVuSans-32"/>
       <use xlink:href="#DejaVuSans-30" transform="translate(63.623047 0)"/>
       <use xlink:href="#DejaVuSans-32" transform="translate(127.246094 0)"/>
       <use xlink:href="#DejaVuSans-32" transform="translate(190.869141 0)"/>
      </g>
     </g>
    </g>
    <g id="xtick_7">
     <g id="line2d_13">
      <path d="M 771.368094 300.96 
L 771.368094 7.2 
" clip-path="url(#pe577085752)" style="fill: none; stroke: #546379; stroke-width: 1.12; stroke-linecap: square"/>
     </g>
     <g id="line2d_14"/>
     <g id="text_7">
      <!-- 2024 -->
      <g style="fill: #b1bed6" transform="translate(742.287055 330.884854) rotate(-30) scale(0.126 -0.126)">
       <use xlink:href="#DejaVuSans-32"/>
       <use xlink:href="#DejaVuSans-30" transform="translate(63.623047 0)"/>
       <use xlink:href="#DejaVuSans-32" transform="translate(127.246094 0)"/>
       <use xlink:href="#DejaVuSans-34" transform="translate(190.869141 0)"/>
      </g>
     </g>
    </g>
    <g id="xtick_8">
     <g id="line2d_15">
      <path d="M 877.157885 300.96 
L 877.157885 7.2 
" clip-path="url(#pe577085752)" style="fill: none; stroke: #546379; stroke-width: 1.12; stroke-linecap: square"/>
     </g>
     <g id="line2d_16"/>
     <g id="text_8">
      <!-- 2026 -->
      <g style="fill: #b1bed6" transform="translate(848.076845 330.884854) rotate(-30) scale(0.126 -0.126)">
       <use xlink:href="#DejaVuSans-32"/>
       <use xlink:href="#DejaVuSans-30" transform="translate(63.623047 0)"/>
       <use xlink:href="#DejaVuSans-32" transform="translate(127.246094 0)"/>
       <use xlink:href="#DejaVuSans-36" transform="translate(190.869141 0)"/>
      </g>
     </g>
    </g>
    <g id="text_9">
     <!-- Date -->
     <g style="fill: #b1bed6" transform="translate(464.166875 348.095943) scale(0.144 -0.144)">
      <defs>
       <path id="DejaVuSans-44" d="M 1259 4147 
L 1259 519 
L 2022 519 
Q 2988 519 3436 956 
Q 3884 1394 3884 2338 
Q 3884 3275 3436 3711 
Q 2988 4147 2022 4147 
L 1259 4147 
z
M 628 4666 
L 1925 4666 
Q 3281 4666 3915 4102 
Q 4550 3538 4550 2338 
Q 4550 1131 3912 565 
Q 3275 0 1925 0 
L 628 0 
L 628 4666 
z
" transform="scale(0.015625)"/>
       <path id="DejaVuSans-61" d="M 2194 1759 
Q 1497 1759 1228 1600 
Q 959 1441 959 1056 
Q 959 750 1161 570 
Q 1363 391 1709 391 
Q 2188 391 2477 730 
Q 2766 1069 2766 1631 
L 2766 1759 
L 2194 1759 
z
M 3341 1997 
L 3341 0 
L 2766 0 
L 2766 531 
Q 2569 213 2275 61 
Q 1981 -91 1556 -91 
Q 1019 -91 701 211 
Q 384 513 384 1019 
Q 384 1609 779 1909 
Q 1175 2209 1959 2209 
L 2766 2209 
L 2766 2266 
Q 2766 2663 2505 2880 
Q 2244 3097 1772 3097 
Q 1472 3097 1187 3025 
Q 903 2953 641 2809 
L 641 3341 
Q 956 3463 1253 3523 
Q 1550 3584 1831 3584 
Q 2591 3584 2966 3190 
Q 3341 2797 3341 1997 
z
" transform="scale(0.015625)"/>
       <path id="DejaVuSans-74" d="M 1172 4494 
L 1172 3500 
L 2356 3500 
L 2356 3053 
L 1172 3053 
L 1172 1153 
Q 1172 725 1289 603 
Q 1406 481 1766 481 
L 2356 481 
L 2356 0 
L 1766 0 
Q 1100 0 847 248 
Q 594 497 594 1153 
L 594 3053 
L 172 3053 
L 172 3500 
L 594 3500 
L 594 4494 
L 1172 4494 
z
" transform="scale(0.015625)"/>
       <path id="DejaVuSans-65" d="M 3597 1894 
L 3597 1613 
L 953 1613 
Q 991 1019 1311 708 
Q 1631 397 2203 397 
Q 2534 397 2845 478 
Q 3156 559 3463 722 
L 3463 178 
Q 3153 47 2828 -22 
Q 2503 -91 2169 -91 
Q 1331 -91 842 396 
Q 353 884 353 1716 
Q 353 2575 817 3079 
Q 1281 3584 2069 3584 
Q 2775 3584 3186 3129 
Q 3597 2675 3597 1894 
z
M 3022 2063 
Q 3016 2534 2758 2815 
Q 2500 3097 2075 3097 
Q 1594 3097 1305 2825 
Q 1016 2553 972 2059 
L 3022 2063 
z
" transform="scale(0.015625)"/>
      </defs>
      <use xlink:href="#DejaVuSans-44"/>
      <use xlink:href="#DejaVuSans-61" transform="translate(77.001953 0)"/>
      <use xlink:href="#DejaVuSans-74" transform="translate(138.28125 0)"/>
      <use xlink:href="#DejaVuSans-65" transform="translate(177.490234 0)"/>
     </g>
    </g>
   </g>
   <g id="matplotlib.axis_2">
    <g id="ytick_1">
     <g id="line2d_17">
      <path d="M 34.976 255.37232 
L 927.776 255.37232 
" clip-path="url(#pe577085752)" style="fill: none; stroke: #546379; stroke-width: 1.12; stroke-linecap: square"/>
     </g>
     <g id="line2d_18"/>
     <g id="text_10">
      <!-- $\mathdefault{10^{0}}$ -->
      <g style="fill: #b1bed6" transform="translate(7.2 260.159335) scale(0.126 -0.126)">
       <use xlink:href="#DejaVuSans-31" transform="translate(0 0.765625)"/>
       <use xlink:href="#DejaVuSans-30" transform="translate(63.623047 0.765625)"/>
       <use xlink:href="#DejaVuSans-30" transform="translate(128.203125 39.046875) scale(0.7)"/>
      </g>
     </g>
    </g>
    <g id="ytick_2">
     <g id="line2d_19">
      <path d="M 34.976 209.254528 
L 927.776 209.254528 
" clip-path="url(#pe577085752)" style="fill: none; stroke: #546379; stroke-width: 1.12; stroke-linecap: square"/>
     </g>
     <g id="line2d_20"/>
     <g id="text_11">
      <!-- $\mathdefault{10^{1}}$ -->
      <g style="fill: #b1bed6" transform="translate(7.2 214.041544) scale(0.126 -0.126)">
       <use xlink:href="#DejaVuSans-31" transform="translate(0 0.684375)"/>
       <use xlink:href="#DejaVuSans-30" transform="translate(63.623047 0.684375)"/>
       <use xlink:href="#DejaVuSans-31" transform="translate(128.203125 38.965625) scale(0.7)"/>
      </g>
     </g>
    </g>
    <g id="ytick_3">
     <g id="line2d_21">
      <path d="M 34.976 163.136737 
L 927.776 163.136737 
" clip-path="url(#pe577085752)" style="fill: none; stroke: #546379; stroke-width: 1.12; stroke-linecap: square"/>
     </g>
     <g id="line2d_22"/>
     <g id="text_12">
      <!-- $\mathdefault{10^{2}}$ -->
      <g style="fill: #b1bed6" transform="translate(7.2 167.923752) scale(0.126 -0.126)">
       <use xlink:href="#DejaVuSans-31" transform="translate(0 0.765625)"/>
       <use xlink:href="#DejaVuSans-30" transform="translate(63.623047 0.765625)"/>
       <use xlink:href="#DejaVuSans-32" transform="translate(128.203125 39.046875) scale(0.7)"/>
      </g>
     </g>
    </g>
    <g id="ytick_4">
     <g id="line2d_23">
      <path d="M 34.976 117.018945 
L 927.776 117.018945 
" clip-path="url(#pe577085752)" style="fill: none; stroke: #546379; stroke-width: 1.12; stroke-linecap: square"/>
     </g>
     <g id="line2d_24"/>
     <g id="text_13">
      <!-- $\mathdefault{10^{3}}$ -->
      <g style="fill: #b1bed6" transform="translate(7.2 121.805961) scale(0.126 -0.126)">
       <defs>
        <path id="DejaVuSans-33" d="M 2597 2516 
Q 3050 2419 3304 2112 
Q 3559 1806 3559 1356 
Q 3559 666 3084 287 
Q 2609 -91 1734 -91 
Q 1441 -91 1130 -33 
Q 819 25 488 141 
L 488 750 
Q 750 597 1062 519 
Q 1375 441 1716 441 
Q 2309 441 2620 675 
Q 2931 909 2931 1356 
Q 2931 1769 2642 2001 
Q 2353 2234 1838 2234 
L 1294 2234 
L 1294 2753 
L 1863 2753 
Q 2328 2753 2575 2939 
Q 2822 3125 2822 3475 
Q 2822 3834 2567 4026 
Q 2313 4219 1838 4219 
Q 1578 4219 1281 4162 
Q 984 4106 628 3988 
L 628 4550 
Q 988 4650 1302 4700 
Q 1616 4750 1894 4750 
Q 2613 4750 3031 4423 
Q 3450 4097 3450 3541 
Q 3450 3153 3228 2886 
Q 3006 2619 2597 2516 
z
" transform="scale(0.015625)"/>
       </defs>
       <use xlink:href="#DejaVuSans-31" transform="translate(0 0.765625)"/>
       <use xlink:href="#DejaVuSans-30" transform="translate(63.623047 0.765625)"/>
       <use xlink:href="#DejaVuSans-33" transform="translate(128.203125 39.046875) scale(0.7)"/>
      </g>
     </g>
    </g>
    <g id="ytick_5">
     <g id="line2d_25">
      <path d="M 34.976 70.901154 
L 927.776 70.901154 
" clip-path="url(#pe577085752)" style="fill: none; stroke: #546379; stroke-width: 1.12; stroke-linecap: square"/>
     </g>
     <g id="line2d_26"/>
     <g id="text_14">
      <!-- $\mathdefault{10^{4}}$ -->
      <g style="fill: #b1bed6" transform="translate(7.2 75.688169) scale(0.126 -0.126)">
       <use xlink:href="#DejaVuSans-31" transform="translate(0 0.684375)"/>
       <use xlink:href="#DejaVuSans-30" transform="translate(63.623047 0.684375)"/>
       <use xlink:href="#DejaVuSans-34" transform="translate(128.203125 38.965625) scale(0.7)"/>
      </g>
     </g>
    </g>
    <g id="ytick_6">
     <g id="line2d_27">
      <path d="M 34.976 24.783362 
L 927.776 24.783362 
" clip-path="url(#pe577085752)" style="fill: none; stroke: #546379; stroke-width: 1.12; stroke-linecap: square"/>
     </g>
     <g id="line2d_28"/>
     <g id="text_15">
      <!-- $\mathdefault{10^{5}}$ -->
      <g style="fill: #b1bed6" transform="translate(7.2 29.570378) scale(0.126 -0.126)">
       <defs>
        <path id="DejaVuSans-35" d="M 691 4666 
L 3169 4666 
L 3169 4134 
L 1269 4134 
L 1269 2991 
Q 1406 3038 1543 3061 
Q 1681 3084 1819 3084 
Q 2600 3084 3056 2656 
Q 3513 2228 3513 1497 
Q 3513 744 3044 326 
Q 2575 -91 1722 -91 
Q 1428 -91 1123 -41 
Q 819 9 494 109 
L 494 744 
Q 775 591 1075 516 
Q 1375 441 1709 441 
Q 2250 441 2565 725 
Q 2881 1009 2881 1497 
Q 2881 1984 2565 2268 
Q 2250 2553 1709 2553 
Q 1456 2553 1204 2497 
Q 953 2441 691 2322 
L 691 4666 
z
" transform="scale(0.015625)"/>
       </defs>
       <use xlink:href="#DejaVuSans-31" transform="translate(0 0.684375)"/>
       <use xlink:href="#DejaVuSans-30" transform="translate(63.623047 0.684375)"/>
       <use xlink:href="#DejaVuSans-35" transform="translate(128.203125 38.965625) scale(0.7)"/>
      </g>
     </g>
    </g>
    <g id="ytick_7">
     <g id="line2d_29"/>
    </g>
    <g id="ytick_8">
     <g id="line2d_30"/>
    </g>
    <g id="ytick_9">
     <g id="line2d_31"/>
    </g>
    <g id="ytick_10">
     <g id="line2d_32"/>
    </g>
    <g id="ytick_11">
     <g id="line2d_33"/>
    </g>
    <g id="ytick_12">
     <g id="line2d_34"/>
    </g>
    <g id="ytick_13">
     <g id="line2d_35"/>
    </g>
    <g id="ytick_14">
     <g id="line2d_36"/>
    </g>
    <g id="ytick_15">
     <g id="line2d_37"/>
    </g>
    <g id="ytick_16">
     <g id="line2d_38"/>
    </g>
    <g id="ytick_17">
     <g id="line2d_39"/>
    </g>
    <g id="ytick_18">
     <g id="line2d_40"/>
    </g>
    <g id="ytick_19">
     <g id="line2d_41"/>
    </g>
    <g id="ytick_20">
     <g id="line2d_42"/>
    </g>
    <g id="ytick_21">
     <g id="line2d_43"/>
    </g>
    <g id="ytick_22">
     <g id="line2d_44"/>
    </g>
    <g id="ytick_23">
     <g id="line2d_45"/>
    </g>
    <g id="ytick_24">
     <g id="line2d_46"/>
    </g>
    <g id="ytick_25">
     <g id="line2d_47"/>
    </g>
    <g id="ytick_26">
     <g id="line2d_48"/>
    </g>
    <g id="ytick_27">
     <g id="line2d_49"/>
    </g>
    <g id="ytick_28">
     <g id="line2d_50"/>
    </g>
    <g id="ytick_29">
     <g id="line2d_51"/>
    </g>
    <g id="ytick_30">
     <g id="line2d_52"/>
    </g>
    <g id="ytick_31">
     <g id="line2d_53"/>
    </g>
    <g id="ytick_32">
     <g id="line2d_54"/>
    </g>
    <g id="ytick_33">
     <g id="line2d_55"/>
    </g>
    <g id="ytick_34">
     <g id="line2d_56"/>
    </g>
    <g id="ytick_35">
     <g id="line2d_57"/>
    </g>
    <g id="ytick_36">
     <g id="line2d_58"/>
    </g>
    <g id="ytick_37">
     <g id="line2d_59"/>
    </g>
    <g id="ytick_38">
     <g id="line2d_60"/>
    </g>
    <g id="ytick_39">
     <g id="line2d_61"/>
    </g>
    <g id="ytick_40">
     <g id="line2d_62"/>
    </g>
    <g id="ytick_41">
     <g id="line2d_63"/>
    </g>
    <g id="ytick_42">
     <g id="line2d_64"/>
    </g>
    <g id="ytick_43">
     <g id="line2d_65"/>
    </g>
    <g id="ytick_44">
     <g id="line2d_66"/>
    </g>
    <g id="ytick_45">
     <g id="line2d_67"/>
    </g>
    <g id="ytick_46">
     <g id="line2d_68"/>
    </g>
    <g id="ytick_47">
     <g id="line2d_69"/>
    </g>
    <g id="ytick_48">
     <g id="line2d_70"/>
    </g>
    <g id="ytick_49">
     <g id="line2d_71"/>
    </g>
    <g id="ytick_50">
     <g id="line2d_72"/>
    </g>
    <g id="ytick_51">
     <g id="line2d_73"/>
    </g>
    <g id="ytick_52">
     <g id="line2d_74"/>
    </g>
    <g id="ytick_53">
     <g id="line2d_75"/>
    </g>
    <g id="ytick_54">
     <g id="line2d_76"/>
    </g>
    <g id="ytick_55">
     <g id="line2d_77"/>
    </g>
   </g>
   <g id="line2d_78">
    <path d="M 75.557818 287.607273 
L 75.557818 283.137997 
L 76.136695 283.137997 
L 76.136695 278.19371 
L 76.715572 278.19371 
L 76.715572 279.486333 
L 77.294449 279.486333 
L 77.294449 280.86817 
L 77.873327 280.86817 
L 77.873327 280.165337 
L 78.452204 280.165337 
L 78.452204 280.86817 
L 79.609958 280.86817 
L 79.609958 282.352457 
L 80.188835 282.352457 
L 80.188835 284.808022 
L 81.346589 284.808022 
L 81.346589 283.137997 
L 81.925466 283.137997 
L 81.925466 282.352457 
L 82.504343 282.352457 
L 82.504343 283.137997 
L 83.083221 283.137997 
L 83.083221 281.596567 
L 83.662098 281.596567 
L 83.662098 279.486333 
L 84.819852 279.486333 
L 84.819852 278.19371 
L 85.398729 278.19371 
L 85.398729 275.834669 
L 85.977606 275.834669 
L 85.977606 273.724434 
L 86.556483 273.724434 
L 86.556483 274.751772 
L 87.13536 274.751772 
L 87.13536 271.815495 
L 87.714237 271.815495 
L 87.714237 271.365393 
L 88.293114 271.365393 
L 88.293114 257.042345 
L 89.450869 257.042345 
L 89.450869 255.982378 
L 90.029746 255.982378 
L 90.029746 253.83089 
L 90.608623 253.83089 
L 90.608623 254.395116 
L 91.1875 254.395116 
L 91.1875 257.932656 
L 91.766377 257.932656 
L 91.766377 255.37232 
L 92.345254 255.37232 
L 92.345254 255.982378 
L 92.924131 255.982378 
L 92.924131 257.042345 
L 93.503008 257.042345 
L 93.503008 257.932656 
L 94.081885 257.932656 
L 94.081885 257.26124 
L 94.660763 257.26124 
L 94.660763 258.161558 
L 95.23964 258.161558 
L 95.23964 260.093532 
L 95.818517 260.093532 
L 95.818517 257.706341 
L 96.397394 257.706341 
L 96.397394 259.841596 
L 97.555148 259.841596 
L 97.555148 261.134218 
L 98.134025 261.134218 
L 98.134025 260.868934 
L 98.712902 260.868934 
L 98.712902 255.776954 
L 99.291779 255.776954 
L 99.291779 251.720656 
L 99.870656 251.720656 
L 99.870656 248.921405 
L 100.449534 248.921405 
L 100.449534 243.823502 
L 101.028411 243.823502 
L 101.028411 226.917627 
L 101.607288 226.917627 
L 101.607288 229.940664 
L 102.186165 229.940664 
L 102.186165 228.062436 
L 102.765042 228.062436 
L 102.765042 217.729074 
L 103.343919 217.729074 
L 103.343919 212.580386 
L 103.922796 212.580386 
L 103.922796 216.455571 
L 104.501673 216.455571 
L 104.501673 215.640255 
L 105.08055 215.640255 
L 105.08055 212.089863 
L 105.659427 212.089863 
L 105.659427 209.926627 
L 106.238305 209.926627 
L 106.238305 196.34639 
L 106.817182 196.34639 
L 106.817182 185.746445 
L 107.396059 185.746445 
L 107.396059 192.005794 
L 107.974936 192.005794 
L 107.974936 196.536537 
L 108.553813 196.536537 
L 108.553813 200.619497 
L 109.13269 200.619497 
L 109.13269 197.954799 
L 109.711567 197.954799 
L 109.711567 198.218565 
L 110.290444 198.218565 
L 110.290444 200.169105 
L 110.869321 200.169105 
L 110.869321 199.716176 
L 111.448198 199.716176 
L 111.448198 201.040338 
L 112.027076 201.040338 
L 112.027076 202.160926 
L 112.605953 202.160926 
L 112.605953 201.757417 
L 113.18483 201.757417 
L 113.18483 202.615821 
L 113.763707 202.615821 
L 113.763707 202.372872 
L 114.342584 202.372872 
L 114.342584 201.702393 
L 114.921461 201.702393 
L 114.921461 206.455278 
L 115.500338 206.455278 
L 115.500338 209.94735 
L 116.079215 209.94735 
L 116.079215 209.395222 
L 116.658092 209.395222 
L 116.658092 206.700602 
L 117.23697 206.700602 
L 117.23697 206.024537 
L 117.815847 206.024537 
L 117.815847 206.806668 
L 118.394724 206.806668 
L 118.394724 210.324077 
L 118.973601 210.324077 
L 118.973601 212.604047 
L 119.552478 212.604047 
L 119.552478 213.058992 
L 120.131355 213.058992 
L 120.131355 217.097011 
L 120.710232 217.097011 
L 120.710232 218.861295 
L 121.289109 218.861295 
L 121.289109 223.057412 
L 121.867986 223.057412 
L 121.867986 218.893678 
L 122.446863 218.893678 
L 122.446863 221.264877 
L 123.025741 221.264877 
L 123.025741 223.379165 
L 123.604618 223.379165 
L 123.604618 222.898453 
L 124.183495 222.898453 
L 124.183495 223.996748 
L 124.762372 223.996748 
L 124.762372 226.821103 
L 125.341249 226.821103 
L 125.341249 227.556633 
L 125.920126 227.556633 
L 125.920126 236.311847 
L 126.499003 236.311847 
L 126.499003 231.338582 
L 127.07788 231.338582 
L 127.07788 232.711804 
L 127.656757 232.711804 
L 127.656757 230.97985 
L 128.235634 230.97985 
L 128.235634 231.951129 
L 128.814512 231.951129 
L 128.814512 232.138606 
L 129.393389 232.138606 
L 129.393389 232.647299 
L 129.972266 232.647299 
L 129.972266 236.234665 
L 130.551143 236.234665 
L 130.551143 237.424839 
L 131.13002 237.424839 
L 131.13002 237.181079 
L 131.708897 237.181079 
L 131.708897 235.928878 
L 132.287774 235.928878 
L 132.287774 232.455022 
L 132.866651 232.455022 
L 132.866651 232.97192 
L 133.445528 232.97192 
L 133.445528 232.583001 
L 134.024405 232.583001 
L 134.024405 231.703858 
L 134.603283 231.703858 
L 134.603283 231.098715 
L 135.18216 231.098715 
L 135.18216 227.707037 
L 135.761037 227.707037 
L 135.761037 226.39241 
L 136.339914 226.39241 
L 136.339914 225.381573 
L 136.918791 225.381573 
L 136.918791 221.707518 
L 137.497668 221.707518 
L 137.497668 216.227322 
L 138.076545 216.227322 
L 138.076545 216.114165 
L 138.655422 216.114165 
L 138.655422 216.284141 
L 139.234299 216.284141 
L 139.234299 218.287185 
L 139.813176 218.287185 
L 139.813176 217.975205 
L 140.392054 217.975205 
L 140.392054 220.513041 
L 140.970931 220.513041 
L 140.970931 220.689506 
L 141.549808 220.689506 
L 141.549808 219.519112 
L 142.128685 219.519112 
L 142.128685 220.027052 
L 143.286439 220.095761 
L 143.286439 224.206915 
L 143.865316 224.206915 
L 143.865316 225.247601 
L 144.444193 225.247601 
L 144.444193 222.467712 
L 145.02307 222.467712 
L 145.02307 223.217642 
L 145.601947 223.217642 
L 145.601947 223.913295 
L 146.180825 223.913295 
L 146.180825 222.938075 
L 146.759702 222.938075 
L 146.759702 223.217642 
L 147.338579 223.217642 
L 147.338579 221.448123 
L 147.917456 221.448123 
L 147.917456 222.236609 
L 148.496333 222.236609 
L 148.496333 223.913295 
L 149.07521 223.913295 
L 149.07521 224.080551 
L 149.654087 224.080551 
L 149.654087 223.379165 
L 150.811841 223.298241 
L 150.811841 223.954978 
L 151.390719 223.954978 
L 151.390719 223.257901 
L 152.548473 223.177464 
L 152.548473 222.198349 
L 153.12735 222.198349 
L 153.12735 222.390381 
L 153.706227 222.390381 
L 153.706227 222.780056 
L 154.285104 222.780056 
L 154.285104 222.429009 
L 154.863981 222.429009 
L 154.863981 222.740746 
L 156.021735 222.740746 
L 156.021735 222.938075 
L 156.600612 222.938075 
L 156.600612 222.623275 
L 158.337244 222.545342 
L 158.337244 222.429009 
L 158.916121 222.429009 
L 158.916121 222.084008 
L 159.494998 222.084008 
L 159.494998 221.011116 
L 160.652752 220.939199 
L 160.652752 218.604102 
L 161.231629 218.604102 
L 161.231629 217.698519 
L 161.810506 217.698519 
L 161.810506 217.455744 
L 162.389383 217.455744 
L 162.389383 217.637549 
L 162.968261 217.637549 
L 162.968261 217.245703 
L 163.547138 217.245703 
L 163.547138 217.097011 
L 164.126015 217.097011 
L 164.126015 216.455571 
L 164.704892 216.455571 
L 164.704892 214.102908 
L 165.283769 214.102908 
L 165.283769 210.345215 
L 165.862646 210.345215 
L 165.862646 210.218718 
L 166.441523 210.218718 
L 166.441523 211.814865 
L 167.0204 211.814865 
L 167.0204 211.476343 
L 167.599277 211.476343 
L 167.599277 209.015614 
L 168.178154 209.015614 
L 168.178154 206.931125 
L 168.757032 206.931125 
L 168.757032 206.281868 
L 169.335909 206.281868 
L 169.335909 205.108303 
L 169.914786 205.108303 
L 169.914786 201.840237 
L 170.493663 201.840237 
L 170.493663 208.740437 
L 171.07254 208.740437 
L 171.07254 207.363805 
L 171.651417 207.363805 
L 171.651417 207.510134 
L 172.230294 207.510134 
L 172.230294 208.239211 
L 172.809171 208.239211 
L 172.809171 206.859912 
L 173.966925 206.913298 
L 173.966925 205.87171 
L 174.545803 205.87171 
L 174.545803 204.57803 
L 175.12468 204.57803 
L 175.12468 205.140897 
L 175.703557 205.140897 
L 175.703557 204.849447 
L 176.282434 204.849447 
L 176.282434 204.657477 
L 176.861311 204.657477 
L 176.861311 204.045986 
L 177.440188 204.045986 
L 177.440188 205.108303 
L 178.019065 205.108303 
L 178.019065 205.43665 
L 178.597942 205.43665 
L 178.597942 205.636273 
L 179.176819 205.636273 
L 179.176819 205.939489 
L 179.755696 205.939489 
L 179.755696 206.351052 
L 180.334574 206.351052 
L 180.334574 207.473452 
L 180.913451 207.473452 
L 180.913451 207.236638 
L 181.492328 207.236638 
L 181.492328 207.400287 
L 182.650082 207.436836 
L 182.650082 207.218538 
L 183.228959 207.218538 
L 183.228959 205.905571 
L 183.807836 205.905571 
L 183.807836 205.075763 
L 184.386713 205.075763 
L 184.386713 204.593894 
L 185.544468 204.530512 
L 185.544468 203.86153 
L 186.123345 203.86153 
L 186.123345 203.169779 
L 186.702222 203.169779 
L 186.702222 202.803614 
L 187.281099 202.803614 
L 187.281099 203.051876 
L 188.438853 202.949278 
L 188.438853 203.318141 
L 189.01773 203.318141 
L 189.01773 203.022509 
L 189.596607 203.022509 
L 189.596607 203.214173 
L 190.754361 203.184566 
L 190.754361 202.529737 
L 191.333239 202.529737 
L 191.333239 202.076772 
L 191.912116 202.076772 
L 191.912116 200.438123 
L 192.490993 200.438123 
L 192.490993 198.474155 
L 193.06987 198.474155 
L 193.06987 196.8899 
L 193.648747 196.8899 
L 193.648747 195.593226 
L 194.227624 195.593226 
L 194.227624 194.394486 
L 194.806501 194.394486 
L 194.806501 193.895273 
L 195.385378 193.895273 
L 195.385378 191.745077 
L 195.964255 191.745077 
L 195.964255 189.21317 
L 196.543132 189.21317 
L 196.543132 189.375826 
L 197.12201 189.375826 
L 197.12201 186.90656 
L 197.700887 186.90656 
L 197.700887 186.46521 
L 198.279764 186.46521 
L 198.279764 184.597163 
L 198.858641 184.597163 
L 198.858641 180.511647 
L 199.437518 180.511647 
L 199.437518 178.864525 
L 200.016395 178.864525 
L 200.016395 178.318608 
L 200.595272 178.318608 
L 200.595272 176.187869 
L 201.174149 176.187869 
L 201.174149 170.209069 
L 201.753026 170.209069 
L 201.753026 167.911261 
L 202.331903 167.911261 
L 202.331903 164.698205 
L 202.910781 164.698205 
L 202.910781 157.728444 
L 203.489658 157.728444 
L 203.489658 153.314284 
L 204.068535 153.314284 
L 204.068535 158.68349 
L 204.647412 158.68349 
L 204.647412 170.831623 
L 205.226289 170.831623 
L 205.226289 159.666147 
L 205.805166 159.666147 
L 205.805166 156.043135 
L 206.384043 156.043135 
L 206.384043 158.114365 
L 206.96292 158.114365 
L 206.96292 159.992155 
L 207.541797 159.992155 
L 207.541797 160.16753 
L 208.120674 160.16753 
L 208.120674 160.743898 
L 208.699552 160.743898 
L 208.699552 159.823395 
L 209.278429 159.823395 
L 209.278429 158.938472 
L 210.436183 159.039422 
L 210.436183 157.577651 
L 211.593937 157.530665 
L 211.593937 159.085179 
L 212.172814 159.085179 
L 212.172814 159.657728 
L 212.751691 159.657728 
L 212.751691 161.9508 
L 213.330568 161.9508 
L 213.330568 163.140743 
L 213.909446 163.140743 
L 213.909446 161.708753 
L 214.488323 161.708753 
L 214.488323 161.530504 
L 215.0672 161.530504 
L 215.0672 162.351197 
L 215.646077 162.351197 
L 215.646077 163.695241 
L 216.224954 163.695241 
L 216.224954 167.596001 
L 216.803831 167.596001 
L 216.803831 168.504633 
L 217.382708 168.504633 
L 217.382708 164.378152 
L 217.961585 164.378152 
L 217.961585 163.736474 
L 218.540462 163.736474 
L 218.540462 165.383183 
L 219.119339 165.383183 
L 219.119339 164.267648 
L 219.698217 164.267648 
L 219.698217 163.398817 
L 220.277094 163.398817 
L 220.277094 162.232149 
L 220.855971 162.232149 
L 220.855971 161.834102 
L 221.434848 161.834102 
L 221.434848 162.583641 
L 222.013725 162.583641 
L 222.013725 161.3465 
L 222.592602 161.3465 
L 222.592602 163.194904 
L 223.171479 163.194904 
L 223.171479 161.149656 
L 223.750356 161.149656 
L 223.750356 160.639309 
L 224.329233 160.639309 
L 224.329233 159.737009 
L 224.90811 159.737009 
L 224.90811 157.86806 
L 225.486988 157.86806 
L 225.486988 159.888004 
L 226.065865 159.888004 
L 226.065865 159.150729 
L 226.644742 159.150729 
L 226.644742 158.820261 
L 227.223619 158.820261 
L 227.223619 158.330623 
L 227.802496 158.330623 
L 227.802496 159.001913 
L 228.381373 159.001913 
L 228.381373 158.72362 
L 228.96025 158.72362 
L 228.96025 158.468169 
L 229.539127 158.468169 
L 229.539127 159.163865 
L 230.118004 159.163865 
L 230.118004 158.808962 
L 230.696881 158.808962 
L 230.696881 158.256707 
L 231.275759 158.256707 
L 231.275759 156.658265 
L 231.854636 156.658265 
L 231.854636 150.694477 
L 232.433513 150.694477 
L 232.433513 149.727115 
L 233.01239 149.727115 
L 233.01239 148.57456 
L 233.591267 148.57456 
L 233.591267 148.955699 
L 234.170144 148.955699 
L 234.170144 144.578193 
L 234.749021 144.578193 
L 234.749021 139.224019 
L 235.327898 139.224019 
L 235.327898 135.724665 
L 235.906775 135.724665 
L 235.906775 131.929122 
L 236.485652 131.929122 
L 236.485652 123.688509 
L 237.06453 123.688509 
L 237.06453 121.126976 
L 237.643407 121.126976 
L 237.643407 114.501195 
L 238.222284 114.501195 
L 238.222284 116.037736 
L 238.801161 116.037736 
L 238.801161 123.994292 
L 239.380038 123.994292 
L 239.380038 119.650419 
L 239.958915 119.650419 
L 239.958915 119.97045 
L 240.537792 119.97045 
L 240.537792 124.587763 
L 241.116669 124.587763 
L 241.116669 125.341484 
L 241.695546 125.341484 
L 241.695546 123.488046 
L 242.274423 123.488046 
L 242.274423 123.267395 
L 242.853301 123.267395 
L 242.853301 120.781313 
L 243.432178 120.781313 
L 243.432178 120.913218 
L 244.011055 120.913218 
L 244.011055 120.41492 
L 244.589932 120.41492 
L 244.589932 121.063393 
L 245.168809 121.063393 
L 245.168809 120.803802 
L 245.747686 120.803802 
L 245.747686 121.99479 
L 246.326563 121.99479 
L 246.326563 121.852022 
L 246.90544 121.852022 
L 246.90544 121.065109 
L 247.484317 121.065109 
L 247.484317 121.969642 
L 248.063195 121.969642 
L 248.063195 124.527356 
L 248.642072 124.527356 
L 248.642072 126.919059 
L 249.220949 126.919059 
L 249.220949 126.274188 
L 249.799826 126.274188 
L 249.799826 127.946397 
L 250.378703 127.946397 
L 250.378703 128.649132 
L 250.95758 128.649132 
L 250.95758 128.366202 
L 251.536457 128.366202 
L 251.536457 125.019077 
L 252.115334 125.019077 
L 252.115334 125.960627 
L 253.273088 125.925914 
L 253.273088 126.441804 
L 253.851966 126.441804 
L 253.851966 128.176165 
L 254.430843 128.176165 
L 254.430843 127.730173 
L 255.00972 127.730173 
L 255.00972 131.306418 
L 255.588597 131.306418 
L 255.588597 133.502218 
L 256.167474 133.502218 
L 256.167474 132.65908 
L 256.746351 132.65908 
L 256.746351 136.986733 
L 257.325228 136.986733 
L 257.325228 132.58749 
L 257.904105 132.58749 
L 257.904105 131.631546 
L 258.482982 131.631546 
L 258.482982 131.367004 
L 259.061859 131.367004 
L 259.061859 132.507473 
L 259.640737 132.507473 
L 259.640737 132.92187 
L 260.219614 132.92187 
L 260.219614 133.610609 
L 261.377368 133.571209 
L 261.377368 133.350906 
L 261.956245 133.350906 
L 261.956245 133.051224 
L 262.535122 133.051224 
L 262.535122 131.38341 
L 263.113999 131.38341 
L 263.113999 129.81387 
L 263.692876 129.81387 
L 263.692876 127.894621 
L 264.271753 127.894621 
L 264.271753 126.250357 
L 264.85063 126.250357 
L 264.85063 125.296318 
L 265.429508 125.296318 
L 265.429508 125.68367 
L 266.008385 125.68367 
L 266.008385 127.534196 
L 266.587262 127.534196 
L 266.587262 126.984835 
L 267.166139 126.984835 
L 267.166139 127.554182 
L 267.745016 127.554182 
L 267.745016 128.604794 
L 268.323893 128.604794 
L 268.323893 127.250453 
L 268.90277 127.250453 
L 268.90277 125.790765 
L 269.481647 125.790765 
L 269.481647 126.453349 
L 270.060524 126.453349 
L 270.060524 126.146152 
L 270.639401 126.146152 
L 270.639401 126.462333 
L 271.218279 126.462333 
L 271.218279 126.272916 
L 271.797156 126.272916 
L 271.797156 126.579496 
L 272.376033 126.579496 
L 272.376033 127.462208 
L 272.95491 127.462208 
L 272.95491 127.858802 
L 273.533787 127.858802 
L 273.533787 127.63773 
L 274.691541 127.6214 
L 274.691541 128.312275 
L 275.270418 128.312275 
L 275.270418 129.967354 
L 275.849295 129.967354 
L 275.849295 130.161745 
L 276.428172 130.161745 
L 276.428172 130.582678 
L 277.585927 130.638739 
L 277.585927 131.871859 
L 278.164804 131.871859 
L 278.164804 131.474298 
L 278.743681 131.474298 
L 278.743681 131.998816 
L 279.322558 131.998816 
L 279.322558 131.848327 
L 279.901435 131.848327 
L 279.901435 132.839184 
L 280.480312 132.839184 
L 280.480312 135.31356 
L 281.059189 135.31356 
L 281.059189 134.867219 
L 281.638066 134.867219 
L 281.638066 136.724127 
L 282.216944 136.724127 
L 282.216944 137.542587 
L 282.795821 137.542587 
L 282.795821 138.979109 
L 283.374698 138.979109 
L 283.374698 137.373098 
L 283.953575 137.373098 
L 283.953575 135.631111 
L 284.532452 135.631111 
L 284.532452 135.906922 
L 285.111329 135.906922 
L 285.111329 137.637682 
L 285.690206 137.637682 
L 285.690206 137.994084 
L 286.269083 137.994084 
L 286.269083 138.756714 
L 286.84796 138.756714 
L 286.84796 139.210064 
L 287.426837 139.210064 
L 287.426837 138.221398 
L 288.005715 138.221398 
L 288.005715 134.384797 
L 288.584592 134.384797 
L 288.584592 135.88482 
L 289.163469 135.88482 
L 289.163469 137.678656 
L 289.742346 137.678656 
L 289.742346 136.686127 
L 290.321223 136.686127 
L 290.321223 136.558209 
L 290.9001 136.558209 
L 290.9001 136.418436 
L 291.478977 136.418436 
L 291.478977 136.661012 
L 292.057854 136.661012 
L 292.057854 138.114882 
L 292.636731 138.114882 
L 292.636731 137.604067 
L 293.215608 137.604067 
L 293.215608 140.330735 
L 293.794486 140.330735 
L 293.794486 139.104206 
L 294.373363 139.104206 
L 294.373363 139.227661 
L 294.95224 139.227661 
L 294.95224 140.411716 
L 295.531117 140.411716 
L 295.531117 142.153972 
L 296.109994 142.153972 
L 296.109994 141.267602 
L 296.688871 141.267602 
L 296.688871 143.266944 
L 297.267748 143.266944 
L 297.267748 148.256676 
L 297.846625 148.256676 
L 297.846625 147.711541 
L 298.425502 147.711541 
L 298.425502 146.134154 
L 299.004379 146.134154 
L 299.004379 143.729744 
L 299.583257 143.729744 
L 299.583257 147.413355 
L 300.162134 147.413355 
L 300.162134 146.743214 
L 300.741011 146.743214 
L 300.741011 146.990332 
L 301.319888 146.990332 
L 301.319888 147.133952 
L 301.898765 147.133952 
L 301.898765 146.066566 
L 302.477642 146.066566 
L 302.477642 145.125593 
L 303.056519 145.125593 
L 303.056519 145.607242 
L 303.635396 145.607242 
L 303.635396 144.506165 
L 304.214273 144.506165 
L 304.214273 143.238742 
L 304.79315 143.238742 
L 304.79315 142.875683 
L 305.372028 142.875683 
L 305.372028 141.476374 
L 305.950905 141.476374 
L 305.950905 141.861751 
L 306.529782 141.861751 
L 306.529782 143.837962 
L 307.108659 143.837962 
L 307.108659 145.189256 
L 307.687536 145.189256 
L 307.687536 144.548875 
L 308.266413 144.548875 
L 308.266413 145.067818 
L 308.84529 145.067818 
L 308.84529 143.959065 
L 309.424167 143.959065 
L 309.424167 145.353427 
L 310.003044 145.353427 
L 310.003044 147.072788 
L 311.160799 147.106045 
L 311.160799 145.951593 
L 311.739676 145.951593 
L 311.739676 146.780354 
L 312.89743 146.839743 
L 312.89743 145.646513 
L 313.476307 145.646513 
L 313.476307 145.840654 
L 314.055184 145.840654 
L 314.055184 145.52311 
L 314.634061 145.52311 
L 314.634061 145.822927 
L 315.212938 145.822927 
L 315.212938 146.333104 
L 315.791815 146.333104 
L 315.791815 145.790046 
L 316.370693 145.790046 
L 316.370693 145.997503 
L 316.94957 145.997503 
L 316.94957 146.599727 
L 317.528447 146.599727 
L 317.528447 147.084466 
L 318.107324 147.084466 
L 318.107324 146.659462 
L 318.686201 146.659462 
L 318.686201 146.489511 
L 319.265078 146.489511 
L 319.265078 144.786225 
L 319.843955 144.786225 
L 319.843955 145.209704 
L 320.422832 145.209704 
L 320.422832 145.58555 
L 321.001709 145.58555 
L 321.001709 144.899515 
L 321.580586 144.899515 
L 321.580586 144.413151 
L 322.159464 144.413151 
L 322.159464 143.352536 
L 322.738341 143.352536 
L 322.738341 142.165919 
L 323.317218 142.165919 
L 323.317218 141.956134 
L 323.896095 141.956134 
L 323.896095 142.749355 
L 325.053849 142.660533 
L 325.053849 141.618141 
L 325.632726 141.618141 
L 325.632726 141.919299 
L 326.211603 141.919299 
L 326.211603 142.434841 
L 326.79048 142.434841 
L 326.79048 142.563496 
L 327.369357 142.563496 
L 327.369357 143.170627 
L 327.948235 143.170627 
L 327.948235 143.889226 
L 328.527112 143.889226 
L 328.527112 146.783894 
L 329.105989 146.783894 
L 329.105989 146.617278 
L 329.684866 146.617278 
L 329.684866 146.885067 
L 330.263743 146.885067 
L 330.263743 146.432889 
L 331.421497 146.391179 
L 331.421497 145.253943 
L 332.000374 145.253943 
L 332.000374 146.046931 
L 332.579251 146.046931 
L 332.579251 146.600604 
L 333.158128 146.600604 
L 333.158128 146.44072 
L 333.737006 146.44072 
L 333.737006 146.109317 
L 334.315883 146.109317 
L 334.315883 145.674132 
L 334.89476 145.674132 
L 334.89476 145.789204 
L 335.473637 145.789204 
L 335.473637 145.042645 
L 336.631391 145.130483 
L 336.631391 144.58771 
L 337.210268 144.58771 
L 337.210268 143.919127 
L 337.789145 143.919127 
L 337.789145 142.92308 
L 338.368022 142.92308 
L 338.368022 142.04188 
L 338.946899 142.04188 
L 338.946899 139.335396 
L 339.525777 139.335396 
L 339.525777 135.146995 
L 340.104654 135.146995 
L 340.104654 136.03177 
L 340.683531 136.03177 
L 340.683531 140.54223 
L 341.262408 140.54223 
L 341.262408 139.904907 
L 341.841285 139.904907 
L 341.841285 139.474419 
L 342.420162 139.474419 
L 342.420162 139.623699 
L 342.999039 139.623699 
L 342.999039 137.592875 
L 343.577916 137.592875 
L 343.577916 137.338267 
L 344.156793 137.338267 
L 344.156793 136.035393 
L 344.73567 136.035393 
L 344.73567 134.561942 
L 345.314548 134.561942 
L 345.314548 133.765289 
L 345.893425 133.765289 
L 345.893425 132.721275 
L 346.472302 132.721275 
L 346.472302 133.537369 
L 347.051179 133.537369 
L 347.051179 132.768707 
L 347.630056 132.768707 
L 347.630056 133.772685 
L 348.78781 133.794425 
L 348.78781 133.957068 
L 349.366687 133.957068 
L 349.366687 133.082018 
L 349.945564 133.082018 
L 349.945564 133.943542 
L 350.524442 133.943542 
L 350.524442 136.111106 
L 351.103319 136.111106 
L 351.103319 136.319493 
L 351.682196 136.319493 
L 351.682196 135.793073 
L 352.261073 135.793073 
L 352.261073 136.578408 
L 352.83995 136.578408 
L 352.83995 137.016065 
L 353.418827 137.016065 
L 353.418827 136.663682 
L 353.997704 136.663682 
L 353.997704 136.503031 
L 354.576581 136.503031 
L 354.576581 135.410655 
L 355.155458 135.410655 
L 355.155458 134.39481 
L 356.313213 134.429653 
L 356.313213 133.848648 
L 356.89209 133.848648 
L 356.89209 134.274991 
L 357.470967 134.274991 
L 357.470967 135.088159 
L 358.049844 135.088159 
L 358.049844 134.58552 
L 359.207598 134.634206 
L 359.207598 134.976402 
L 359.786475 134.976402 
L 359.786475 134.566752 
L 360.944229 134.539353 
L 360.944229 134.694626 
L 361.523106 134.694626 
L 361.523106 134.465036 
L 362.680861 134.39624 
L 362.680861 134.268829 
L 363.259738 134.268829 
L 363.259738 133.948205 
L 363.838615 133.948205 
L 363.838615 133.647329 
L 364.417492 133.647329 
L 364.417492 132.926744 
L 364.996369 132.926744 
L 364.996369 133.222757 
L 365.575246 133.222757 
L 365.575246 132.878937 
L 366.154123 132.878937 
L 366.154123 133.040078 
L 366.733 133.040078 
L 366.733 132.543093 
L 367.311877 132.543093 
L 367.311877 132.754641 
L 367.890755 132.754641 
L 367.890755 132.8754 
L 368.469632 132.8754 
L 368.469632 133.316532 
L 369.048509 133.316532 
L 369.048509 133.069963 
L 369.627386 133.069963 
L 369.627386 130.454174 
L 370.206263 130.454174 
L 370.206263 129.434672 
L 370.78514 129.434672 
L 370.78514 127.801074 
L 371.364017 127.801074 
L 371.364017 128.00004 
L 371.942894 128.00004 
L 371.942894 124.590979 
L 372.521771 124.590979 
L 372.521771 122.72857 
L 373.100648 122.72857 
L 373.100648 127.49158 
L 373.679526 127.49158 
L 373.679526 126.266876 
L 374.258403 126.266876 
L 374.258403 125.101367 
L 374.83728 125.101367 
L 374.83728 124.68503 
L 375.416157 124.68503 
L 375.416157 125.250347 
L 377.152788 125.301163 
L 377.152788 125.114865 
L 377.731665 125.114865 
L 377.731665 125.296318 
L 378.310542 125.296318 
L 378.310542 125.476985 
L 378.889419 125.476985 
L 378.889419 127.065375 
L 379.468297 127.065375 
L 379.468297 128.18211 
L 380.047174 128.18211 
L 380.047174 127.757887 
L 381.204928 127.814117 
L 381.204928 128.245157 
L 381.783805 128.245157 
L 381.783805 128.02466 
L 382.941559 128.076426 
L 382.941559 128.22482 
L 384.099313 128.207305 
L 384.099313 126.979565 
L 384.678191 126.979565 
L 384.678191 126.540151 
L 385.257068 126.540151 
L 385.257068 126.952249 
L 386.414822 127.007578 
L 386.414822 127.448718 
L 386.993699 127.448718 
L 386.993699 127.024734 
L 388.73033 127.011866 
L 388.73033 126.773153 
L 389.309207 126.773153 
L 389.309207 126.10954 
L 389.888084 126.10954 
L 389.888084 125.989756 
L 390.466962 125.989756 
L 390.466962 126.308236 
L 391.045839 126.308236 
L 391.045839 125.834884 
L 391.624716 125.834884 
L 391.624716 124.569943 
L 392.203593 124.569943 
L 392.203593 123.415695 
L 392.78247 123.415695 
L 392.78247 124.063357 
L 393.361347 124.063357 
L 393.361347 123.556772 
L 393.940224 123.556772 
L 393.940224 124.151812 
L 394.519101 124.151812 
L 394.519101 123.135401 
L 396.255733 123.12915 
L 396.255733 123.321644 
L 396.83461 123.321644 
L 396.83461 122.437442 
L 397.992364 122.345512 
L 397.992364 122.300878 
L 398.571241 122.300878 
L 398.571241 122.101377 
L 399.150118 122.101377 
L 399.150118 121.714061 
L 399.728995 121.714061 
L 399.728995 118.821554 
L 400.307872 118.821554 
L 400.307872 118.465121 
L 400.886749 118.465121 
L 400.886749 117.735832 
L 401.465626 117.735832 
L 401.465626 114.943912 
L 402.044504 114.943912 
L 402.044504 118.897084 
L 402.623381 118.897084 
L 402.623381 121.350498 
L 403.202258 121.350498 
L 403.202258 120.737376 
L 403.781135 120.737376 
L 403.781135 119.226443 
L 404.360012 119.226443 
L 404.360012 119.49774 
L 404.938889 119.49774 
L 404.938889 118.719036 
L 405.517766 118.719036 
L 405.517766 117.353805 
L 406.096643 117.353805 
L 406.096643 116.798248 
L 406.67552 116.798248 
L 406.67552 117.31474 
L 407.254397 117.31474 
L 407.254397 116.994925 
L 407.833275 116.994925 
L 407.833275 115.955138 
L 408.412152 115.955138 
L 408.412152 114.659904 
L 408.991029 114.659904 
L 408.991029 114.213252 
L 409.569906 114.213252 
L 409.569906 112.95463 
L 410.148783 112.95463 
L 410.148783 112.215352 
L 410.72766 112.215352 
L 410.72766 113.499741 
L 411.306537 113.499741 
L 411.306537 112.698917 
L 411.885414 112.698917 
L 411.885414 115.695677 
L 412.464291 115.695677 
L 412.464291 114.874691 
L 413.043169 114.874691 
L 413.043169 117.79883 
L 413.622046 117.79883 
L 413.622046 116.237835 
L 414.200923 116.237835 
L 414.200923 115.477701 
L 414.7798 115.477701 
L 414.7798 113.472205 
L 415.358677 113.472205 
L 415.358677 113.201232 
L 415.937554 113.201232 
L 415.937554 113.868202 
L 416.516431 113.868202 
L 416.516431 113.347262 
L 417.095308 113.347262 
L 417.095308 112.820031 
L 417.674185 112.820031 
L 417.674185 111.949557 
L 418.253062 111.949557 
L 418.253062 110.937153 
L 418.83194 110.937153 
L 418.83194 108.406962 
L 419.410817 108.406962 
L 419.410817 106.975718 
L 419.989694 106.975718 
L 419.989694 106.475211 
L 420.568571 106.475211 
L 420.568571 106.285513 
L 421.147448 106.285513 
L 421.147448 103.047775 
L 421.726325 103.047775 
L 421.726325 99.3059 
L 422.305202 99.3059 
L 422.305202 101.434165 
L 422.884079 101.434165 
L 422.884079 99.401745 
L 423.462956 99.401745 
L 423.462956 97.13193 
L 424.041833 97.13193 
L 424.041833 96.217978 
L 424.620711 96.217978 
L 424.620711 97.080942 
L 425.199588 97.080942 
L 425.199588 97.653341 
L 425.778465 97.653341 
L 425.778465 97.434209 
L 426.357342 97.434209 
L 426.357342 98.650574 
L 426.936219 98.650574 
L 426.936219 98.335587 
L 428.093973 98.27076 
L 428.093973 98.643931 
L 428.67285 98.643931 
L 428.67285 100.241902 
L 429.251727 100.241902 
L 429.251727 103.415545 
L 429.830604 103.415545 
L 429.830604 100.642127 
L 430.409482 100.642127 
L 430.409482 96.76984 
L 430.988359 96.76984 
L 430.988359 97.450487 
L 431.567236 97.450487 
L 431.567236 95.952053 
L 432.72499 95.996737 
L 432.72499 92.456833 
L 433.303867 92.456833 
L 433.303867 89.922675 
L 433.882744 89.922675 
L 433.882744 87.454791 
L 434.461621 87.454791 
L 434.461621 88.981725 
L 435.040498 88.981725 
L 435.040498 87.657344 
L 435.619375 87.657344 
L 435.619375 87.450855 
L 436.198253 87.450855 
L 436.198253 85.15428 
L 436.77713 85.15428 
L 436.77713 87.412634 
L 437.356007 87.412634 
L 437.356007 87.661505 
L 437.934884 87.661505 
L 437.934884 89.939767 
L 438.513761 89.939767 
L 438.513761 90.931296 
L 439.092638 90.931296 
L 439.092638 91.358385 
L 439.671515 91.358385 
L 439.671515 89.596785 
L 440.250392 89.596785 
L 440.250392 88.44718 
L 440.829269 88.44718 
L 440.829269 87.766017 
L 441.408146 87.766017 
L 441.408146 87.165508 
L 441.987024 87.165508 
L 441.987024 85.509309 
L 442.565901 85.509309 
L 442.565901 82.188887 
L 443.723655 82.169648 
L 443.723655 81.46695 
L 444.302532 81.46695 
L 444.302532 81.91558 
L 444.881409 81.91558 
L 444.881409 79.789478 
L 445.460286 79.789478 
L 445.460286 77.024161 
L 446.039163 77.024161 
L 446.039163 76.747511 
L 446.61804 76.747511 
L 446.61804 81.502657 
L 447.196918 81.502657 
L 447.196918 75.7017 
L 447.775795 75.7017 
L 447.775795 74.771576 
L 448.933549 74.844677 
L 448.933549 71.064047 
L 449.512426 71.064047 
L 449.512426 69.151492 
L 450.091303 69.151492 
L 450.091303 64.386582 
L 450.67018 64.386582 
L 450.67018 62.688359 
L 451.249057 62.688359 
L 451.249057 60.983079 
L 451.827934 60.983079 
L 451.827934 58.138856 
L 452.406811 58.138856 
L 452.406811 64.484215 
L 452.985689 64.484215 
L 452.985689 61.894793 
L 453.564566 61.894793 
L 453.564566 66.252362 
L 454.143443 66.252362 
L 454.143443 62.727887 
L 454.72232 62.727887 
L 454.72232 61.247552 
L 455.301197 61.247552 
L 455.301197 65.211162 
L 455.880074 65.211162 
L 455.880074 64.810286 
L 456.458951 64.810286 
L 456.458951 68.090569 
L 457.037828 68.090569 
L 457.037828 69.30141 
L 457.616705 69.30141 
L 457.616705 68.221789 
L 458.195582 68.221789 
L 458.195582 70.49668 
L 458.77446 70.49668 
L 458.77446 74.870838 
L 459.932214 74.766061 
L 459.932214 73.244809 
L 460.511091 73.244809 
L 460.511091 70.546677 
L 461.089968 70.546677 
L 461.089968 68.549271 
L 461.668845 68.549271 
L 461.668845 71.511708 
L 462.247722 71.511708 
L 462.247722 70.246729 
L 462.826599 70.246729 
L 462.826599 68.072613 
L 463.405476 68.072613 
L 463.405476 72.301956 
L 463.984353 72.301956 
L 463.984353 72.724154 
L 464.563231 72.724154 
L 464.563231 74.638186 
L 465.142108 74.638186 
L 465.142108 73.212796 
L 465.720985 73.212796 
L 465.720985 74.076805 
L 466.299862 74.076805 
L 466.299862 75.494465 
L 466.878739 75.494465 
L 466.878739 78.54452 
L 467.457616 78.54452 
L 467.457616 78.664803 
L 468.61537 78.671444 
L 468.61537 75.634412 
L 469.773124 75.604146 
L 469.773124 73.16643 
L 470.352002 73.16643 
L 470.352002 73.302485 
L 470.930879 73.302485 
L 470.930879 72.143847 
L 471.509756 72.143847 
L 471.509756 71.401356 
L 472.088633 71.401356 
L 472.088633 72.206257 
L 472.66751 72.206257 
L 472.66751 74.400786 
L 473.246387 74.400786 
L 473.246387 74.224505 
L 473.825264 74.224505 
L 473.825264 74.773374 
L 474.404141 74.773374 
L 474.404141 76.631272 
L 474.983018 76.631272 
L 474.983018 77.082516 
L 475.561895 77.082516 
L 475.561895 76.690684 
L 476.71965 76.675153 
L 476.71965 76.356856 
L 477.298527 76.356856 
L 477.298527 79.366528 
L 477.877404 79.366528 
L 477.877404 79.564088 
L 478.456281 79.564088 
L 478.456281 78.741178 
L 479.035158 78.741178 
L 479.035158 80.614853 
L 479.614035 80.614853 
L 479.614035 81.543299 
L 480.192912 81.543299 
L 480.192912 79.143313 
L 481.350667 79.136816 
L 481.350667 80.062286 
L 481.929544 80.062286 
L 481.929544 80.318434 
L 482.508421 80.318434 
L 482.508421 77.010244 
L 483.666175 76.91388 
L 483.666175 75.52169 
L 484.245052 75.52169 
L 484.245052 74.945626 
L 484.823929 74.945626 
L 484.823929 76.891962 
L 485.402806 76.891962 
L 485.402806 78.867778 
L 485.981683 78.867778 
L 485.981683 80.385824 
L 486.56056 80.385824 
L 486.56056 80.248587 
L 487.139438 80.248587 
L 487.139438 79.570571 
L 487.718315 79.570571 
L 487.718315 79.449344 
L 488.297192 79.449344 
L 488.297192 78.329421 
L 488.876069 78.329421 
L 488.876069 77.991228 
L 489.454946 77.991228 
L 489.454946 77.042659 
L 490.033823 77.042659 
L 490.033823 80.52715 
L 490.6127 80.52715 
L 490.6127 80.07251 
L 491.191577 80.07251 
L 491.191577 79.537282 
L 492.349331 79.541444 
L 492.349331 79.273675 
L 492.928209 79.273675 
L 492.928209 79.136604 
L 493.507086 79.136604 
L 493.507086 79.463621 
L 494.085963 79.463621 
L 494.085963 79.303603 
L 495.243717 79.280917 
L 495.243717 80.266194 
L 495.822594 80.266194 
L 495.822594 79.499587 
L 496.980348 79.548012 
L 496.980348 79.615114 
L 497.559225 79.615114 
L 497.559225 80.150007 
L 498.138102 80.150007 
L 498.138102 79.961184 
L 498.71698 79.961184 
L 498.71698 79.416011 
L 499.295857 79.416011 
L 499.295857 79.813029 
L 499.874734 79.813029 
L 499.874734 82.305209 
L 500.453611 82.305209 
L 500.453611 85.39909 
L 501.032488 85.39909 
L 501.032488 87.559515 
L 501.611365 87.559515 
L 501.611365 90.131213 
L 502.190242 90.131213 
L 502.190242 88.332941 
L 502.769119 88.332941 
L 502.769119 90.572721 
L 503.347996 90.572721 
L 503.347996 91.42792 
L 503.926873 91.42792 
L 503.926873 93.057066 
L 504.505751 93.057066 
L 504.505751 91.606765 
L 505.084628 91.606765 
L 505.084628 89.761224 
L 505.663505 89.761224 
L 505.663505 90.1675 
L 506.242382 90.1675 
L 506.242382 90.437443 
L 506.821259 90.437443 
L 506.821259 89.600198 
L 507.400136 89.600198 
L 507.400136 88.897089 
L 507.979013 88.897089 
L 507.979013 91.107828 
L 508.55789 91.107828 
L 508.55789 90.9098 
L 509.136767 90.9098 
L 509.136767 91.220862 
L 509.715644 91.220862 
L 509.715644 91.434005 
L 510.873399 91.495794 
L 510.873399 92.100143 
L 512.031153 92.180998 
L 512.031153 92.539203 
L 512.61003 92.539203 
L 512.61003 91.200213 
L 513.188907 91.200213 
L 513.188907 91.317933 
L 513.767784 91.317933 
L 513.767784 89.624566 
L 514.346661 89.624566 
L 514.346661 88.566187 
L 514.925538 88.566187 
L 514.925538 90.106222 
L 516.083293 90.203906 
L 516.083293 89.828152 
L 517.241047 89.857701 
L 517.241047 89.573775 
L 517.819924 89.573775 
L 517.819924 89.108037 
L 519.556555 89.011831 
L 519.556555 88.689654 
L 520.135432 88.689654 
L 520.135432 85.142736 
L 520.714309 85.142736 
L 520.714309 83.735537 
L 521.293187 83.735537 
L 521.293187 84.49428 
L 521.872064 84.49428 
L 521.872064 84.01136 
L 522.450941 84.01136 
L 522.450941 83.581903 
L 523.029818 83.581903 
L 523.029818 83.116151 
L 523.608695 83.116151 
L 523.608695 83.612067 
L 524.187572 83.612067 
L 524.187572 83.279093 
L 524.766449 83.279093 
L 524.766449 82.21431 
L 525.345326 82.21431 
L 525.345326 80.00304 
L 525.924203 80.00304 
L 525.924203 75.388739 
L 526.50308 75.388739 
L 526.50308 77.300523 
L 527.081958 77.300523 
L 527.081958 76.329549 
L 527.660835 76.329549 
L 527.660835 73.588391 
L 528.239712 73.588391 
L 528.239712 74.699661 
L 528.818589 74.699661 
L 528.818589 75.035462 
L 529.397466 75.035462 
L 529.397466 75.374711 
L 529.976343 75.374711 
L 529.976343 75.577846 
L 530.55522 75.577846 
L 530.55522 73.326593 
L 531.134097 73.326593 
L 531.134097 72.394101 
L 531.712974 72.394101 
L 531.712974 69.332889 
L 532.291851 69.332889 
L 532.291851 68.751771 
L 532.870729 68.751771 
L 532.870729 69.774352 
L 533.449606 69.774352 
L 533.449606 69.074026 
L 534.028483 69.074026 
L 534.028483 66.293311 
L 534.60736 66.293311 
L 534.60736 68.295987 
L 535.186237 68.295987 
L 535.186237 71.56439 
L 535.765114 71.56439 
L 535.765114 69.757906 
L 536.343991 69.757906 
L 536.343991 71.152746 
L 536.922868 71.152746 
L 536.922868 71.925688 
L 537.501745 71.925688 
L 537.501745 69.867663 
L 538.080622 69.867663 
L 538.080622 68.161783 
L 538.6595 68.161783 
L 538.6595 68.484832 
L 539.238377 68.484832 
L 539.238377 70.867214 
L 539.817254 70.867214 
L 539.817254 70.274935 
L 540.396131 70.274935 
L 540.396131 70.678119 
L 540.975008 70.678119 
L 540.975008 70.192254 
L 541.553885 70.192254 
L 541.553885 71.764738 
L 542.132762 71.764738 
L 542.132762 69.693916 
L 542.711639 69.693916 
L 542.711639 69.948362 
L 543.290516 69.948362 
L 543.290516 70.584572 
L 543.869393 70.584572 
L 543.869393 70.288858 
L 545.027148 70.356086 
L 545.027148 71.545559 
L 545.606025 71.545559 
L 545.606025 74.890773 
L 546.184902 74.890773 
L 546.184902 74.577861 
L 546.763779 74.577861 
L 546.763779 75.004046 
L 547.342656 75.004046 
L 547.342656 73.950094 
L 547.921533 73.950094 
L 547.921533 74.67232 
L 548.50041 74.67232 
L 548.50041 75.179121 
L 549.079287 75.179121 
L 549.079287 74.820938 
L 549.658165 74.820938 
L 549.658165 73.766993 
L 550.237042 73.766993 
L 550.237042 72.069504 
L 550.815919 72.069504 
L 550.815919 72.352109 
L 551.973673 72.261529 
L 551.973673 72.928951 
L 552.55255 72.928951 
L 552.55255 73.846811 
L 553.131427 73.846811 
L 553.131427 74.9346 
L 553.710304 74.9346 
L 553.710304 77.241888 
L 554.289181 77.241888 
L 554.289181 77.582093 
L 554.868058 77.582093 
L 554.868058 76.509502 
L 555.446936 76.509502 
L 555.446936 77.500563 
L 556.025813 77.500563 
L 556.025813 76.603349 
L 556.60469 76.603349 
L 556.60469 77.510841 
L 557.183567 77.510841 
L 557.183567 78.392555 
L 557.762444 78.392555 
L 557.762444 77.508027 
L 558.341321 77.508027 
L 558.341321 77.34015 
L 558.920198 77.34015 
L 558.920198 77.201466 
L 559.499075 77.201466 
L 559.499075 77.548431 
L 560.077952 77.548431 
L 560.077952 77.063409 
L 560.656829 77.063409 
L 560.656829 75.83155 
L 561.235707 75.83155 
L 561.235707 75.10867 
L 561.814584 75.10867 
L 561.814584 73.23441 
L 562.393461 73.23441 
L 562.393461 73.639212 
L 562.972338 73.639212 
L 562.972338 74.56718 
L 563.551215 74.56718 
L 563.551215 72.398179 
L 564.708969 72.323318 
L 564.708969 71.396613 
L 565.287846 71.396613 
L 565.287846 71.194123 
L 565.866723 71.194123 
L 565.866723 70.176312 
L 566.4456 70.176312 
L 566.4456 70.542565 
L 567.024478 70.542565 
L 567.024478 71.574019 
L 567.603355 71.574019 
L 567.603355 73.494474 
L 568.182232 73.494474 
L 568.182232 74.075843 
L 568.761109 74.075843 
L 568.761109 72.861976 
L 569.339986 72.861976 
L 569.339986 75.541553 
L 569.918863 75.541553 
L 569.918863 82.481896 
L 570.49774 82.481896 
L 570.49774 83.400408 
L 571.076617 83.400408 
L 571.076617 80.508406 
L 571.655494 80.508406 
L 571.655494 78.926804 
L 572.234371 78.926804 
L 572.234371 81.518543 
L 572.813249 81.518543 
L 572.813249 78.598658 
L 573.392126 78.598658 
L 573.392126 77.086225 
L 573.971003 77.086225 
L 573.971003 78.410905 
L 575.128757 78.414665 
L 575.128757 77.316215 
L 575.707634 77.316215 
L 575.707634 77.673559 
L 576.286511 77.673559 
L 576.286511 76.13785 
L 576.865388 76.13785 
L 576.865388 73.855049 
L 577.444265 73.855049 
L 577.444265 73.266863 
L 578.023143 73.266863 
L 578.023143 71.261284 
L 578.60202 71.261284 
L 578.60202 73.428447 
L 579.180897 73.428447 
L 579.180897 72.17093 
L 579.759774 72.17093 
L 579.759774 71.906009 
L 580.338651 71.906009 
L 580.338651 73.619772 
L 580.917528 73.619772 
L 580.917528 71.783106 
L 581.496405 71.783106 
L 581.496405 70.496229 
L 582.075282 70.496229 
L 582.075282 71.669276 
L 582.654159 71.669276 
L 582.654159 71.356639 
L 583.233036 71.356639 
L 583.233036 71.984439 
L 584.390791 72.023993 
L 584.390791 72.387456 
L 585.548545 72.482444 
L 585.548545 72.603098 
L 586.127422 72.603098 
L 586.127422 72.850869 
L 586.706299 72.850869 
L 586.706299 72.449137 
L 587.864053 72.493046 
L 587.864053 72.585313 
L 589.021807 72.539289 
L 589.021807 71.691432 
L 589.600685 71.691432 
L 589.600685 68.915161 
L 590.179562 68.915161 
L 590.179562 68.375669 
L 590.758439 68.375669 
L 590.758439 68.641612 
L 591.337316 68.641612 
L 591.337316 67.641184 
L 591.916193 67.641184 
L 591.916193 67.974976 
L 592.49507 67.974976 
L 592.49507 67.393529 
L 593.652824 67.474705 
L 593.652824 67.647431 
L 594.231701 67.647431 
L 594.231701 68.041473 
L 594.810578 68.041473 
L 594.810578 67.378001 
L 595.389456 67.378001 
L 595.389456 70.58398 
L 595.968333 70.58398 
L 595.968333 70.44996 
L 596.54721 70.44996 
L 596.54721 70.249385 
L 597.126087 70.249385 
L 597.126087 69.094641 
L 597.704964 69.094641 
L 597.704964 70.057038 
L 598.283841 70.057038 
L 598.283841 69.559446 
L 598.862718 69.559446 
L 598.862718 69.284203 
L 599.441595 69.284203 
L 599.441595 69.825442 
L 600.020472 69.825442 
L 600.020472 69.600771 
L 600.599349 69.600771 
L 600.599349 68.317964 
L 601.178227 68.317964 
L 601.178227 68.095408 
L 601.757104 68.095408 
L 601.757104 67.657258 
L 602.335981 67.657258 
L 602.335981 65.731997 
L 602.914858 65.731997 
L 602.914858 64.666977 
L 603.493735 64.666977 
L 603.493735 64.435267 
L 604.072612 64.435267 
L 604.072612 63.940689 
L 604.651489 63.940689 
L 604.651489 62.135626 
L 605.230366 62.135626 
L 605.230366 61.120974 
L 605.809243 61.120974 
L 605.809243 60.599822 
L 606.38812 60.599822 
L 606.38812 58.377865 
L 606.966998 58.377865 
L 606.966998 57.864613 
L 607.545875 57.864613 
L 607.545875 59.428523 
L 608.124752 59.428523 
L 608.124752 57.807812 
L 608.703629 57.807812 
L 608.703629 57.651451 
L 609.282506 57.651451 
L 609.282506 58.854746 
L 609.861383 58.854746 
L 609.861383 57.75619 
L 610.44026 57.75619 
L 610.44026 54.088183 
L 611.019137 54.088183 
L 611.019137 53.513237 
L 611.598014 53.513237 
L 611.598014 51.424957 
L 612.176892 51.424957 
L 612.176892 49.67567 
L 612.755769 49.67567 
L 612.755769 46.987963 
L 613.334646 46.987963 
L 613.334646 43.394493 
L 613.913523 43.394493 
L 613.913523 45.500499 
L 614.4924 45.500499 
L 614.4924 44.789986 
L 615.071277 44.789986 
L 615.071277 45.234515 
L 615.650154 45.234515 
L 615.650154 47.542422 
L 616.229031 47.542422 
L 616.229031 48.619465 
L 616.807908 48.619465 
L 616.807908 46.905785 
L 617.386785 46.905785 
L 617.386785 44.695814 
L 617.965663 44.695814 
L 617.965663 40.178232 
L 618.54454 40.178232 
L 618.54454 39.705602 
L 619.123417 39.705602 
L 619.123417 39.005501 
L 619.702294 39.005501 
L 619.702294 36.395945 
L 620.281171 36.395945 
L 620.281171 38.417457 
L 620.860048 38.417457 
L 620.860048 40.725796 
L 621.438925 40.725796 
L 621.438925 39.297369 
L 622.017802 39.297369 
L 622.017802 37.765699 
L 622.596679 37.765699 
L 622.596679 35.953074 
L 623.175556 35.953074 
L 623.175556 36.086768 
L 623.754434 36.086768 
L 623.754434 35.663934 
L 624.333311 35.663934 
L 624.333311 37.685858 
L 624.912188 37.685858 
L 624.912188 36.473881 
L 625.491065 36.473881 
L 625.491065 35.440669 
L 626.648819 35.332804 
L 626.648819 35.658149 
L 627.227696 35.658149 
L 627.227696 33.861839 
L 627.806573 33.861839 
L 627.806573 34.985486 
L 628.38545 34.985486 
L 628.38545 37.195813 
L 628.964327 37.195813 
L 628.964327 39.039965 
L 629.543205 39.039965 
L 629.543205 37.279608 
L 630.122082 37.279608 
L 630.122082 35.967055 
L 631.279836 35.908699 
L 631.279836 36.129913 
L 631.858713 36.129913 
L 631.858713 40.018055 
L 632.43759 40.018055 
L 632.43759 44.716296 
L 633.016467 44.716296 
L 633.016467 45.950896 
L 633.595344 45.950896 
L 633.595344 43.92948 
L 634.174221 43.92948 
L 634.174221 44.529546 
L 634.753098 44.529546 
L 634.753098 44.759016 
L 635.331976 44.759016 
L 635.331976 46.717049 
L 635.910853 46.717049 
L 635.910853 45.528715 
L 636.48973 45.528715 
L 636.48973 43.992313 
L 637.068607 43.992313 
L 637.068607 45.473802 
L 637.647484 45.473802 
L 637.647484 46.017372 
L 638.805238 46.123296 
L 638.805238 46.475019 
L 639.384115 46.475019 
L 639.384115 46.266602 
L 639.962992 46.266602 
L 639.962992 46.67794 
L 640.541869 46.67794 
L 640.541869 47.101272 
L 641.120747 47.101272 
L 641.120747 47.740726 
L 641.699624 47.740726 
L 641.699624 47.419166 
L 642.278501 47.419166 
L 642.278501 44.525467 
L 642.857378 44.525467 
L 642.857378 42.05641 
L 643.436255 42.05641 
L 643.436255 44.090211 
L 644.015132 44.090211 
L 644.015132 40.939943 
L 644.594009 40.939943 
L 644.594009 40.506118 
L 645.172886 40.506118 
L 645.172886 39.881461 
L 645.751763 39.881461 
L 645.751763 40.018882 
L 646.330641 40.018882 
L 646.330641 38.85799 
L 646.909518 38.85799 
L 646.909518 39.047607 
L 647.488395 39.047607 
L 647.488395 39.839172 
L 648.067272 39.839172 
L 648.067272 38.68729 
L 648.646149 38.68729 
L 648.646149 40.302128 
L 649.803903 40.310502 
L 649.803903 39.573617 
L 650.38278 39.573617 
L 650.38278 41.732892 
L 651.540534 41.773082 
L 651.540534 42.635465 
L 652.119412 42.635465 
L 652.119412 39.598009 
L 652.698289 39.598009 
L 652.698289 36.632468 
L 653.277166 36.632468 
L 653.277166 36.894017 
L 653.856043 36.894017 
L 653.856043 35.902602 
L 654.43492 35.902602 
L 654.43492 34.366979 
L 655.013797 34.366979 
L 655.013797 34.783191 
L 655.592674 34.783191 
L 655.592674 34.899645 
L 656.171551 34.899645 
L 656.171551 34.444793 
L 656.750428 34.444793 
L 656.750428 34.051689 
L 657.908183 33.94433 
L 657.908183 33.461115 
L 658.48706 33.461115 
L 658.48706 33.852447 
L 659.065937 33.852447 
L 659.065937 35.647658 
L 659.644814 35.647658 
L 659.644814 35.839723 
L 660.223691 35.839723 
L 660.223691 36.829806 
L 660.802568 36.829806 
L 660.802568 35.961304 
L 661.381445 35.961304 
L 661.381445 38.915935 
L 661.960322 38.915935 
L 661.960322 39.626322 
L 662.539199 39.626322 
L 662.539199 40.009268 
L 663.118076 40.009268 
L 663.118076 40.260821 
L 663.696954 40.260821 
L 663.696954 39.097597 
L 664.275831 39.097597 
L 664.275831 38.478457 
L 664.854708 38.478457 
L 664.854708 40.158988 
L 665.433585 40.158988 
L 665.433585 39.766251 
L 666.012462 39.766251 
L 666.012462 41.630879 
L 666.591339 41.630879 
L 666.591339 42.230411 
L 667.170216 42.230411 
L 667.170216 41.640756 
L 667.749093 41.640756 
L 667.749093 41.977176 
L 668.32797 41.977176 
L 668.32797 45.769103 
L 668.906847 45.769103 
L 668.906847 44.792716 
L 669.485725 44.792716 
L 669.485725 44.205754 
L 670.064602 44.205754 
L 670.064602 44.64699 
L 670.643479 44.64699 
L 670.643479 41.302234 
L 671.222356 41.302234 
L 671.222356 41.967826 
L 671.801233 41.967826 
L 671.801233 40.983936 
L 672.38011 40.983936 
L 672.38011 43.077952 
L 672.958987 43.077952 
L 672.958987 44.53978 
L 673.537864 44.53978 
L 673.537864 44.319141 
L 674.116741 44.319141 
L 674.116741 41.938028 
L 674.695618 41.938028 
L 674.695618 44.145692 
L 675.274496 44.145692 
L 675.274496 43.775993 
L 675.853373 43.775993 
L 675.853373 43.478474 
L 676.43225 43.478474 
L 676.43225 42.052534 
L 677.011127 42.052534 
L 677.011127 41.731258 
L 677.590004 41.731258 
L 677.590004 39.965862 
L 678.168881 39.965862 
L 678.168881 40.537864 
L 678.747758 40.537864 
L 678.747758 40.071832 
L 679.326635 40.071832 
L 679.326635 42.025693 
L 679.905512 42.025693 
L 679.905512 43.084369 
L 680.48439 43.084369 
L 680.48439 42.941748 
L 681.063267 42.941748 
L 681.063267 42.458177 
L 681.642144 42.458177 
L 681.642144 43.404879 
L 682.221021 43.404879 
L 682.221021 43.250954 
L 682.799898 43.250954 
L 682.799898 43.895458 
L 683.378775 43.895458 
L 683.378775 45.238463 
L 683.957652 45.238463 
L 683.957652 48.238099 
L 684.536529 48.238099 
L 684.536529 48.847626 
L 685.115406 48.847626 
L 685.115406 49.797937 
L 685.694283 49.797937 
L 685.694283 48.712009 
L 686.273161 48.712009 
L 686.273161 49.442895 
L 686.852038 49.442895 
L 686.852038 47.783566 
L 687.430915 47.783566 
L 687.430915 49.110975 
L 688.009792 49.110975 
L 688.009792 48.164653 
L 688.588669 48.164653 
L 688.588669 50.034292 
L 689.167546 50.034292 
L 689.167546 54.614113 
L 689.746423 54.614113 
L 689.746423 56.484341 
L 690.3253 56.484341 
L 690.3253 55.957072 
L 690.904177 55.957072 
L 690.904177 56.327142 
L 691.483054 56.327142 
L 691.483054 57.808094 
L 692.061932 57.808094 
L 692.061932 56.836968 
L 692.640809 56.836968 
L 692.640809 55.493026 
L 693.219686 55.493026 
L 693.219686 56.795548 
L 693.798563 56.795548 
L 693.798563 56.257605 
L 694.37744 56.257605 
L 694.37744 54.085329 
L 694.956317 54.085329 
L 694.956317 55.756335 
L 695.535194 55.756335 
L 695.535194 53.54099 
L 696.114071 53.54099 
L 696.114071 54.234946 
L 697.271825 54.265105 
L 697.271825 53.400127 
L 697.850703 53.400127 
L 697.850703 53.105575 
L 698.42958 53.105575 
L 698.42958 54.050844 
L 699.008457 54.050844 
L 699.008457 55.660458 
L 699.587334 55.660458 
L 699.587334 56.786013 
L 700.166211 56.786013 
L 700.166211 57.226672 
L 701.323965 57.184298 
L 701.323965 57.752564 
L 701.902842 57.752564 
L 701.902842 55.297323 
L 702.481719 55.297323 
L 702.481719 57.326421 
L 703.060596 57.326421 
L 703.060596 57.482101 
L 703.639474 57.482101 
L 703.639474 57.752045 
L 704.218351 57.752045 
L 704.218351 57.935388 
L 704.797228 57.935388 
L 704.797228 57.716642 
L 705.376105 57.716642 
L 705.376105 56.850985 
L 705.954982 56.850985 
L 705.954982 57.585183 
L 707.691613 57.475163 
L 707.691613 57.865846 
L 708.27049 57.865846 
L 708.27049 56.917156 
L 708.849367 56.917156 
L 708.849367 56.21722 
L 709.428245 56.21722 
L 709.428245 56.864695 
L 710.007122 56.864695 
L 710.007122 56.117241 
L 710.585999 56.117241 
L 710.585999 59.63537 
L 711.164876 59.63537 
L 711.164876 60.764787 
L 711.743753 60.764787 
L 711.743753 60.650097 
L 712.32263 60.650097 
L 712.32263 61.245276 
L 712.901507 61.245276 
L 712.901507 60.927835 
L 713.480384 60.927835 
L 713.480384 60.073343 
L 715.795893 60.031104 
L 715.795893 60.70494 
L 716.37477 60.70494 
L 716.37477 60.386024 
L 717.532524 60.465016 
L 717.532524 60.823651 
L 718.690278 60.73372 
L 718.690278 60.478926 
L 719.269155 60.478926 
L 719.269155 60.048338 
L 719.848032 60.048338 
L 719.848032 57.085162 
L 720.42691 57.085162 
L 720.42691 55.903123 
L 721.005787 55.903123 
L 721.005787 54.418161 
L 721.584664 54.418161 
L 721.584664 54.14107 
L 722.163541 54.14107 
L 722.163541 53.571445 
L 722.742418 53.571445 
L 722.742418 53.827217 
L 723.321295 53.827217 
L 723.321295 54.425867 
L 723.900172 54.425867 
L 723.900172 55.441172 
L 724.479049 55.441172 
L 724.479049 54.917476 
L 725.057926 54.917476 
L 725.057926 52.837973 
L 725.636803 52.837973 
L 725.636803 53.2123 
L 726.215681 53.2123 
L 726.215681 53.734608 
L 727.373435 53.816161 
L 727.373435 54.738995 
L 727.952312 54.738995 
L 727.952312 56.794399 
L 728.531189 56.794399 
L 728.531189 52.73621 
L 729.110066 52.73621 
L 729.110066 51.025874 
L 729.688943 51.025874 
L 729.688943 50.78166 
L 730.26782 50.78166 
L 730.26782 50.279327 
L 731.425574 50.255579 
L 731.425574 50.421182 
L 732.583329 50.332539 
L 732.583329 48.741108 
L 733.741083 48.685316 
L 733.741083 49.694433 
L 734.31996 49.694433 
L 734.31996 50.574259 
L 734.898837 50.574259 
L 734.898837 49.247346 
L 735.477714 49.247346 
L 735.477714 50.217327 
L 736.056591 50.217327 
L 736.056591 49.209993 
L 736.635468 49.209993 
L 736.635468 50.538329 
L 737.214345 50.538329 
L 737.214345 51.167033 
L 737.793223 51.167033 
L 737.793223 50.714329 
L 738.3721 50.714329 
L 738.3721 51.189006 
L 738.950977 51.189006 
L 738.950977 51.39916 
L 739.529854 51.39916 
L 739.529854 50.462698 
L 740.108731 50.462698 
L 740.108731 50.821593 
L 741.266485 50.827687 
L 741.266485 51.877199 
L 741.845362 51.877199 
L 741.845362 52.447519 
L 742.424239 52.447519 
L 742.424239 51.505504 
L 743.003117 51.505504 
L 743.003117 48.961751 
L 743.581994 48.961751 
L 743.581994 48.720107 
L 744.160871 48.720107 
L 744.160871 48.585039 
L 744.739748 48.585039 
L 744.739748 48.386622 
L 745.318625 48.386622 
L 745.318625 48.754646 
L 745.897502 48.754646 
L 745.897502 48.637599 
L 747.055256 48.737598 
L 747.055256 49.029808 
L 747.634133 49.029808 
L 747.634133 49.453532 
L 748.791888 49.359234 
L 748.791888 49.109726 
L 749.370765 49.109726 
L 749.370765 49.543249 
L 749.949642 49.543249 
L 749.949642 49.189362 
L 750.528519 49.189362 
L 750.528519 49.3813 
L 751.107396 49.3813 
L 751.107396 51.259884 
L 751.686273 51.259884 
L 751.686273 51.668657 
L 752.844027 51.725466 
L 752.844027 50.472396 
L 753.422904 50.472396 
L 753.422904 51.864599 
L 755.159536 51.8927 
L 755.159536 51.354783 
L 755.738413 51.354783 
L 755.738413 51.183624 
L 756.31729 51.183624 
L 756.31729 51.320214 
L 756.896167 51.320214 
L 756.896167 51.600224 
L 757.475044 51.600224 
L 757.475044 51.029557 
L 758.053921 51.029557 
L 758.053921 50.424546 
L 759.211675 50.324199 
L 759.211675 51.187441 
L 759.790552 51.187441 
L 759.790552 49.912545 
L 760.36943 49.912545 
L 760.36943 49.110408 
L 760.948307 49.110408 
L 760.948307 46.447949 
L 762.106061 46.337173 
L 762.106061 45.559429 
L 762.684938 45.559429 
L 762.684938 45.782288 
L 763.263815 45.782288 
L 763.263815 44.862049 
L 765.000446 44.901357 
L 765.000446 45.352285 
L 765.579323 45.352285 
L 765.579323 44.268009 
L 766.737078 44.232842 
L 766.737078 43.147477 
L 767.315955 43.147477 
L 767.315955 41.548339 
L 767.894832 41.548339 
L 767.894832 42.524837 
L 768.473709 42.524837 
L 768.473709 42.189432 
L 769.052586 42.189432 
L 769.052586 42.033426 
L 769.631463 42.033426 
L 769.631463 41.344173 
L 770.21034 41.344173 
L 770.21034 41.468907 
L 770.789217 41.468907 
L 770.789217 42.039555 
L 771.368094 42.039555 
L 771.368094 41.140191 
L 771.946972 41.140191 
L 771.946972 39.917241 
L 772.525849 39.917241 
L 772.525849 41.759791 
L 773.104726 41.759791 
L 773.104726 41.625413 
L 773.683603 41.625413 
L 773.683603 42.321358 
L 774.26248 42.321358 
L 774.26248 43.101212 
L 774.841357 43.101212 
L 774.841357 42.143586 
L 775.420234 42.143586 
L 775.420234 41.65852 
L 775.999111 41.65852 
L 775.999111 41.849134 
L 776.577988 41.849134 
L 776.577988 39.848234 
L 777.156866 39.848234 
L 777.156866 38.770928 
L 777.735743 38.770928 
L 777.735743 38.002222 
L 779.472374 37.985794 
L 779.472374 34.626921 
L 780.051251 34.626921 
L 780.051251 32.39675 
L 781.209005 32.41749 
L 781.209005 31.505466 
L 781.787882 31.505466 
L 781.787882 33.318032 
L 782.366759 33.318032 
L 782.366759 32.549792 
L 782.945637 32.549792 
L 782.945637 32.736864 
L 783.524514 32.736864 
L 783.524514 31.712319 
L 784.103391 31.712319 
L 784.103391 32.012747 
L 784.682268 32.012747 
L 784.682268 32.549721 
L 785.261145 32.549721 
L 785.261145 32.174183 
L 785.840022 32.174183 
L 785.840022 33.715737 
L 786.418899 33.715737 
L 786.418899 34.591585 
L 786.997776 34.591585 
L 786.997776 33.426862 
L 787.576653 33.426862 
L 787.576653 33.570305 
L 788.15553 33.570305 
L 788.15553 33.774332 
L 788.734408 33.774332 
L 788.734408 34.073841 
L 789.313285 34.073841 
L 789.313285 34.253605 
L 789.892162 34.253605 
L 789.892162 34.747348 
L 790.471039 34.747348 
L 790.471039 33.033161 
L 791.628793 33.025017 
L 791.628793 32.524704 
L 792.20767 32.524704 
L 792.20767 32.106969 
L 792.786547 32.106969 
L 792.786547 32.659967 
L 793.365424 32.659967 
L 793.365424 31.769425 
L 793.944301 31.769425 
L 793.944301 32.128992 
L 794.523179 32.128992 
L 794.523179 32.437178 
L 795.102056 32.437178 
L 795.102056 32.913262 
L 795.680933 32.913262 
L 795.680933 33.463747 
L 796.25981 33.463747 
L 796.25981 34.92144 
L 797.417564 34.909438 
L 797.417564 34.348633 
L 797.996441 34.348633 
L 797.996441 35.602153 
L 798.575318 35.602153 
L 798.575318 35.782448 
L 799.154195 35.782448 
L 799.154195 34.749858 
L 799.733072 34.749858 
L 799.733072 33.73174 
L 800.31195 33.73174 
L 800.31195 32.626657 
L 801.469704 32.532774 
L 801.469704 33.051048 
L 802.048581 33.051048 
L 802.048581 34.789917 
L 802.627458 34.789917 
L 802.627458 36.745077 
L 803.206335 36.745077 
L 803.206335 35.447462 
L 803.785212 35.447462 
L 803.785212 35.858777 
L 804.364089 35.858777 
L 804.364089 35.190253 
L 804.942966 35.190253 
L 804.942966 33.696253 
L 805.521843 33.696253 
L 805.521843 35.193314 
L 806.100721 35.193314 
L 806.100721 35.361718 
L 806.679598 35.361718 
L 806.679598 35.705012 
L 807.258475 35.705012 
L 807.258475 36.809342 
L 807.837352 36.809342 
L 807.837352 35.64646 
L 808.995106 35.626323 
L 808.995106 33.969671 
L 809.573983 33.969671 
L 809.573983 33.634778 
L 810.15286 33.634778 
L 810.15286 33.139462 
L 810.731737 33.139462 
L 810.731737 34.802204 
L 811.310615 34.802204 
L 811.310615 34.096256 
L 811.889492 34.096256 
L 811.889492 34.924862 
L 812.468369 34.924862 
L 812.468369 33.090867 
L 813.047246 33.090867 
L 813.047246 32.38254 
L 813.626123 32.38254 
L 813.626123 32.694641 
L 814.783877 32.798795 
L 814.783877 31.27132 
L 815.362754 31.27132 
L 815.362754 32.289673 
L 815.941631 32.289673 
L 815.941631 30.299405 
L 816.520508 30.299405 
L 816.520508 27.180553 
L 817.099386 27.180553 
L 817.099386 26.658369 
L 817.678263 26.658369 
L 817.678263 26.373116 
L 818.25714 26.373116 
L 818.25714 25.233636 
L 818.836017 25.233636 
L 818.836017 25.609949 
L 819.414894 25.609949 
L 819.414894 25.337003 
L 821.151525 25.297523 
L 821.151525 24.491571 
L 821.730402 24.491571 
L 821.730402 23.586855 
L 822.309279 23.586855 
L 822.309279 25.346699 
L 822.888157 25.346699 
L 822.888157 24.924032 
L 823.467034 24.924032 
L 823.467034 26.121666 
L 824.045911 26.121666 
L 824.045911 25.423666 
L 824.624788 25.423666 
L 824.624788 24.337063 
L 825.203665 24.337063 
L 825.203665 25.873486 
L 825.782542 25.873486 
L 825.782542 25.491296 
L 826.361419 25.491296 
L 826.361419 23.919231 
L 826.940296 23.919231 
L 826.940296 24.067841 
L 827.519173 24.067841 
L 827.519173 24.270709 
L 828.09805 24.270709 
L 828.09805 23.855056 
L 828.676928 23.855056 
L 828.676928 24.50199 
L 829.255805 24.50199 
L 829.255805 25.488483 
L 829.834682 25.488483 
L 829.834682 25.652782 
L 830.413559 25.652782 
L 830.413559 25.271223 
L 830.992436 25.271223 
L 830.992436 25.467314 
L 832.15019 25.543726 
L 832.15019 28.122026 
L 832.729067 28.122026 
L 832.729067 27.78511 
L 833.307944 27.78511 
L 833.307944 27.631272 
L 833.886821 27.631272 
L 833.886821 28.549278 
L 834.465699 28.549278 
L 834.465699 28.194622 
L 835.044576 28.194622 
L 835.044576 27.603109 
L 835.623453 27.603109 
L 835.623453 27.79086 
L 836.20233 27.79086 
L 836.20233 27.52942 
L 836.781207 27.52942 
L 836.781207 28.628761 
L 837.360084 28.628761 
L 837.360084 28.31314 
L 837.938961 28.31314 
L 837.938961 30.209848 
L 838.517838 30.209848 
L 838.517838 27.971769 
L 839.096715 27.971769 
L 839.096715 28.267427 
L 839.675592 28.267427 
L 839.675592 27.997767 
L 840.25447 27.997767 
L 840.25447 26.028875 
L 840.833347 26.028875 
L 840.833347 25.81108 
L 841.412224 25.81108 
L 841.412224 25.408497 
L 842.569978 25.430955 
L 842.569978 23.850792 
L 843.148855 23.850792 
L 843.148855 24.084244 
L 843.727732 24.084244 
L 843.727732 23.536214 
L 844.306609 23.536214 
L 844.306609 22.563278 
L 844.885486 22.563278 
L 844.885486 22.969087 
L 845.464364 22.969087 
L 845.464364 23.992494 
L 846.043241 23.992494 
L 846.043241 23.723455 
L 847.200995 23.685773 
L 847.200995 23.114651 
L 847.779872 23.114651 
L 847.779872 23.699869 
L 848.358749 23.699869 
L 848.358749 23.867227 
L 848.937626 23.867227 
L 848.937626 23.733748 
L 849.516503 23.733748 
L 849.516503 23.407606 
L 850.09538 23.407606 
L 850.09538 23.67197 
L 850.674257 23.67197 
L 850.674257 23.196894 
L 851.253135 23.196894 
L 851.253135 22.63816 
L 851.832012 22.63816 
L 851.832012 21.283255 
L 852.989766 21.252761 
L 852.989766 21.562443 
L 854.726397 21.480964 
L 854.726397 22.420458 
L 855.305274 22.420458 
L 855.305274 21.979852 
L 855.884151 21.979852 
L 855.884151 21.249643 
L 856.463028 21.249643 
L 856.463028 21.402591 
L 857.041906 21.402591 
L 857.041906 21.76739 
L 858.19966 21.66157 
L 858.19966 22.548708 
L 858.778537 22.548708 
L 858.778537 23.095814 
L 859.357414 23.095814 
L 859.357414 22.560524 
L 860.515168 22.661532 
L 860.515168 21.894154 
L 862.251799 21.864056 
L 862.251799 22.511697 
L 862.830677 22.511697 
L 862.830677 22.931157 
L 863.409554 22.931157 
L 863.409554 21.363749 
L 863.988431 21.363749 
L 863.988431 20.552727 
L 864.567308 20.552727 
L 864.567308 20.852518 
L 865.146185 20.852518 
L 865.146185 21.946446 
L 865.725062 21.946446 
L 865.725062 23.528444 
L 866.303939 23.528444 
L 866.303939 23.159011 
L 866.882816 23.159011 
L 866.882816 22.578441 
L 867.461693 22.578441 
L 867.461693 22.861951 
L 868.619448 22.765112 
L 868.619448 24.528115 
L 869.198325 24.528115 
L 869.198325 23.623438 
L 869.777202 23.623438 
L 869.777202 25.937762 
L 870.356079 25.937762 
L 870.356079 26.241358 
L 870.934956 26.241358 
L 870.934956 28.114511 
L 871.513833 28.114511 
L 871.513833 26.77875 
L 872.671587 26.81 
L 872.671587 26.4225 
L 873.250464 26.4225 
L 873.250464 26.750885 
L 874.408219 26.833691 
L 874.408219 27.381199 
L 874.987096 27.381199 
L 874.987096 27.267051 
L 875.565973 27.267051 
L 875.565973 27.433167 
L 876.723727 27.38126 
L 876.723727 27.177108 
L 877.302604 27.177108 
L 877.302604 26.047721 
L 877.881481 26.047721 
L 877.881481 26.78359 
L 878.460358 26.78359 
L 878.460358 25.740447 
L 879.618113 25.790073 
L 879.618113 27.033228 
L 880.19699 27.033228 
L 880.19699 27.671621 
L 880.775867 27.671621 
L 880.775867 28.141547 
L 881.354744 28.141547 
L 881.354744 29.585924 
L 881.933621 29.585924 
L 881.933621 31.778773 
L 882.512498 31.778773 
L 882.512498 32.275099 
L 883.091375 32.275099 
L 883.091375 31.997414 
L 883.670252 31.997414 
L 883.670252 32.976194 
L 884.249129 32.976194 
L 884.249129 32.621431 
L 885.406884 32.664182 
L 885.406884 32.280477 
L 885.985761 32.280477 
L 885.985761 32.469842 
L 886.564638 32.469842 
L 886.564638 32.050348 
L 887.194182 32.050348 
L 887.194182 32.050348 
" clip-path="url(#pe577085752)" style="fill: none; stroke: #3572c6; stroke-width: 1.2; stroke-linecap: square"/>
   </g>
   <g id="line2d_79">
    <path d="M 75.557818 20.552727 
L 887.194182 20.552727 
L 887.194182 20.552727 
" clip-path="url(#pe577085752)" style="fill: none; stroke: #83a83b; stroke-width: 1.2; stroke-linecap: square"/>
   </g>
   <g id="line2d_80">
    <path d="M 75.557818 32.976194 
L 887.194182 32.976194 
L 887.194182 32.976194 
" clip-path="url(#pe577085752)" style="fill: none; stroke: #c44e52; stroke-width: 1.2; stroke-linecap: square"/>
   </g>
   <g id="line2d_81">
    <path d="M 864.567308 300.96 
L 864.567308 7.2 
" clip-path="url(#pe577085752)" style="fill: none; stroke: #83a83b; stroke-width: 1.2; stroke-linecap: square"/>
   </g>
   <g id="line2d_82">
    <path d="M 884.249129 300.96 
L 884.249129 7.2 
" clip-path="url(#pe577085752)" style="fill: none; stroke: #c44e52; stroke-width: 1.2; stroke-linecap: square"/>
   </g>
   <g id="patch_3">
    <path d="M 34.976 300.96 
L 34.976 7.2 
" style="fill: none; stroke: #899ab8; stroke-width: 1.12; stroke-linejoin: miter; stroke-linecap: square"/>
   </g>
   <g id="patch_4">
    <path d="M 927.776 300.96 
L 927.776 7.2 
" style="fill: none; stroke: #899ab8; stroke-width: 1.12; stroke-linejoin: miter; stroke-linecap: square"/>
   </g>
   <g id="patch_5">
    <path d="M 34.976 300.96 
L 927.776 300.96 
" style="fill: none; stroke: #899ab8; stroke-width: 1.12; stroke-linejoin: miter; stroke-linecap: square"/>
   </g>
   <g id="patch_6">
    <path d="M 34.976 7.2 
L 927.776 7.2 
" style="fill: none; stroke: #899ab8; stroke-width: 1.12; stroke-linejoin: miter; stroke-linecap: square"/>
   </g>
   <g id="text_16">
    <!-- 123519.47 -->
    <g style="fill: #83a83b" transform="translate(181.202889 20.552727) scale(0.132 -0.132)">
     <defs>
      <path id="DejaVuSans-39" d="M 703 97 
L 703 672 
Q 941 559 1184 500 
Q 1428 441 1663 441 
Q 2288 441 2617 861 
Q 2947 1281 2994 2138 
Q 2813 1869 2534 1725 
Q 2256 1581 1919 1581 
Q 1219 1581 811 2004 
Q 403 2428 403 3163 
Q 403 3881 828 4315 
Q 1253 4750 1959 4750 
Q 2769 4750 3195 4129 
Q 3622 3509 3622 2328 
Q 3622 1225 3098 567 
Q 2575 -91 1691 -91 
Q 1453 -91 1209 -44 
Q 966 3 703 97 
z
M 1959 2075 
Q 2384 2075 2632 2365 
Q 2881 2656 2881 3163 
Q 2881 3666 2632 3958 
Q 2384 4250 1959 4250 
Q 1534 4250 1286 3958 
Q 1038 3666 1038 3163 
Q 1038 2656 1286 2365 
Q 1534 2075 1959 2075 
z
" transform="scale(0.015625)"/>
      <path id="DejaVuSans-2e" d="M 684 794 
L 1344 794 
L 1344 0 
L 684 0 
L 684 794 
z
" transform="scale(0.015625)"/>
      <path id="DejaVuSans-37" d="M 525 4666 
L 3525 4666 
L 3525 4397 
L 1831 0 
L 1172 0 
L 2766 4134 
L 525 4134 
L 525 4666 
z
" transform="scale(0.015625)"/>
     </defs>
     <use xlink:href="#DejaVuSans-31"/>
     <use xlink:href="#DejaVuSans-32" transform="translate(63.623047 0)"/>
     <use xlink:href="#DejaVuSans-33" transform="translate(127.246094 0)"/>
     <use xlink:href="#DejaVuSans-35" transform="translate(190.869141 0)"/>
     <use xlink:href="#DejaVuSans-31" transform="translate(254.492188 0)"/>
     <use xlink:href="#DejaVuSans-39" transform="translate(318.115234 0)"/>
     <use xlink:href="#DejaVuSans-2e" transform="translate(381.738281 0)"/>
     <use xlink:href="#DejaVuSans-34" transform="translate(413.525391 0)"/>
     <use xlink:href="#DejaVuSans-37" transform="translate(477.148438 0)"/>
    </g>
   </g>
   <g id="text_17">
    <!-- 66427.8 -->
    <g style="fill: #c44e52" transform="translate(181.202889 32.976194) scale(0.132 -0.132)">
     <use xlink:href="#DejaVuSans-36"/>
     <use xlink:href="#DejaVuSans-36" transform="translate(63.623047 0)"/>
     <use xlink:href="#DejaVuSans-34" transform="translate(127.246094 0)"/>
     <use xlink:href="#DejaVuSans-32" transform="translate(190.869141 0)"/>
     <use xlink:href="#DejaVuSans-37" transform="translate(254.492188 0)"/>
     <use xlink:href="#DejaVuSans-2e" transform="translate(318.115234 0)"/>
     <use xlink:href="#DejaVuSans-38" transform="translate(349.902344 0)"/>
    </g>
   </g>
   <g id="legend_1">
    <g id="patch_7">
     <path d="M 43.796 183.886875 
L 142.133094 183.886875 
Q 144.653094 183.886875 144.653094 181.366875 
L 144.653094 126.793125 
Q 144.653094 124.273125 142.133094 124.273125 
L 43.796 124.273125 
Q 41.276 124.273125 41.276 126.793125 
L 41.276 181.366875 
Q 41.276 183.886875 43.796 183.886875 
z
" style="fill: #373e4b; opacity: 0.8; stroke: #cccccc; stroke-width: 0.16; stroke-linejoin: miter"/>
    </g>
    <g id="line2d_83">
     <path d="M 46.316 134.477156 
L 46.316 134.477156 
L 58.916 134.477156 
L 58.916 134.477156 
L 71.516 134.477156 
" style="fill: none; stroke: #3572c6; stroke-width: 1.2; stroke-linecap: square"/>
    </g>
    <g id="text_18">
     <!-- USD/BTC -->
     <g style="fill: #b1bed6" transform="translate(81.596 138.887156) scale(0.126 -0.126)">
      <defs>
       <path id="DejaVuSans-55" d="M 556 4666 
L 1191 4666 
L 1191 1831 
Q 1191 1081 1462 751 
Q 1734 422 2344 422 
Q 2950 422 3222 751 
Q 3494 1081 3494 1831 
L 3494 4666 
L 4128 4666 
L 4128 1753 
Q 4128 841 3676 375 
Q 3225 -91 2344 -91 
Q 1459 -91 1007 375 
Q 556 841 556 1753 
L 556 4666 
z
" transform="scale(0.015625)"/>
       <path id="DejaVuSans-53" d="M 3425 4513 
L 3425 3897 
Q 3066 4069 2747 4153 
Q 2428 4238 2131 4238 
Q 1616 4238 1336 4038 
Q 1056 3838 1056 3469 
Q 1056 3159 1242 3001 
Q 1428 2844 1947 2747 
L 2328 2669 
Q 3034 2534 3370 2195 
Q 3706 1856 3706 1288 
Q 3706 609 3251 259 
Q 2797 -91 1919 -91 
Q 1588 -91 1214 -16 
Q 841 59 441 206 
L 441 856 
Q 825 641 1194 531 
Q 1563 422 1919 422 
Q 2459 422 2753 634 
Q 3047 847 3047 1241 
Q 3047 1584 2836 1778 
Q 2625 1972 2144 2069 
L 1759 2144 
Q 1053 2284 737 2584 
Q 422 2884 422 3419 
Q 422 4038 858 4394 
Q 1294 4750 2059 4750 
Q 2388 4750 2728 4690 
Q 3069 4631 3425 4513 
z
" transform="scale(0.015625)"/>
       <path id="DejaVuSans-2f" d="M 1625 4666 
L 2156 4666 
L 531 -594 
L 0 -594 
L 1625 4666 
z
" transform="scale(0.015625)"/>
       <path id="DejaVuSans-42" d="M 1259 2228 
L 1259 519 
L 2272 519 
Q 2781 519 3026 730 
Q 3272 941 3272 1375 
Q 3272 1813 3026 2020 
Q 2781 2228 2272 2228 
L 1259 2228 
z
M 1259 4147 
L 1259 2741 
L 2194 2741 
Q 2656 2741 2882 2914 
Q 3109 3088 3109 3444 
Q 3109 3797 2882 3972 
Q 2656 4147 2194 4147 
L 1259 4147 
z
M 628 4666 
L 2241 4666 
Q 2963 4666 3353 4366 
Q 3744 4066 3744 3513 
Q 3744 3084 3544 2831 
Q 3344 2578 2956 2516 
Q 3422 2416 3680 2098 
Q 3938 1781 3938 1306 
Q 3938 681 3513 340 
Q 3088 0 2303 0 
L 628 0 
L 628 4666 
z
" transform="scale(0.015625)"/>
       <path id="DejaVuSans-54" d="M -19 4666 
L 3928 4666 
L 3928 4134 
L 2272 4134 
L 2272 0 
L 1638 0 
L 1638 4134 
L -19 4134 
L -19 4666 
z
" transform="scale(0.015625)"/>
       <path id="DejaVuSans-43" d="M 4122 4306 
L 4122 3641 
Q 3803 3938 3442 4084 
Q 3081 4231 2675 4231 
Q 1875 4231 1450 3742 
Q 1025 3253 1025 2328 
Q 1025 1406 1450 917 
Q 1875 428 2675 428 
Q 3081 428 3442 575 
Q 3803 722 4122 1019 
L 4122 359 
Q 3791 134 3420 21 
Q 3050 -91 2638 -91 
Q 1578 -91 968 557 
Q 359 1206 359 2328 
Q 359 3453 968 4101 
Q 1578 4750 2638 4750 
Q 3056 4750 3426 4639 
Q 3797 4528 4122 4306 
z
" transform="scale(0.015625)"/>
      </defs>
      <use xlink:href="#DejaVuSans-55"/>
      <use xlink:href="#DejaVuSans-53" transform="translate(73.193359 0)"/>
      <use xlink:href="#DejaVuSans-44" transform="translate(136.669922 0)"/>
      <use xlink:href="#DejaVuSans-2f" transform="translate(213.671875 0)"/>
      <use xlink:href="#DejaVuSans-42" transform="translate(247.363281 0)"/>
      <use xlink:href="#DejaVuSans-54" transform="translate(315.966797 0)"/>
      <use xlink:href="#DejaVuSans-43" transform="translate(371.175781 0)"/>
     </g>
    </g>
    <g id="line2d_84">
     <path d="M 46.316 152.971594 
L 46.316 152.971594 
L 58.916 152.971594 
L 58.916 152.971594 
L 71.516 152.971594 
" style="fill: none; stroke: #83a83b; stroke-width: 1.2; stroke-linecap: square"/>
    </g>
    <g id="text_19">
     <!-- Max -->
     <g style="fill: #b1bed6" transform="translate(81.596 157.381594) scale(0.126 -0.126)">
      <defs>
       <path id="DejaVuSans-4d" d="M 628 4666 
L 1569 4666 
L 2759 1491 
L 3956 4666 
L 4897 4666 
L 4897 0 
L 4281 0 
L 4281 4097 
L 3078 897 
L 2444 897 
L 1241 4097 
L 1241 0 
L 628 0 
L 628 4666 
z
" transform="scale(0.015625)"/>
       <path id="DejaVuSans-78" d="M 3513 3500 
L 2247 1797 
L 3578 0 
L 2900 0 
L 1881 1375 
L 863 0 
L 184 0 
L 1544 1831 
L 300 3500 
L 978 3500 
L 1906 2253 
L 2834 3500 
L 3513 3500 
z
" transform="scale(0.015625)"/>
      </defs>
      <use xlink:href="#DejaVuSans-4d"/>
      <use xlink:href="#DejaVuSans-61" transform="translate(86.279297 0)"/>
      <use xlink:href="#DejaVuSans-78" transform="translate(147.558594 0)"/>
     </g>
    </g>
    <g id="line2d_85">
     <path d="M 46.316 171.466031 
L 46.316 171.466031 
L 58.916 171.466031 
L 58.916 171.466031 
L 71.516 171.466031 
" style="fill: none; stroke: #c44e52; stroke-width: 1.2; stroke-linecap: square"/>
    </g>
    <g id="text_20">
     <!-- local_Min -->
     <g style="fill: #b1bed6" transform="translate(81.596 175.876031) scale(0.126 -0.126)">
      <defs>
       <path id="DejaVuSans-6c" d="M 603 4863 
L 1178 4863 
L 1178 0 
L 603 0 
L 603 4863 
z
" transform="scale(0.015625)"/>
       <path id="DejaVuSans-6f" d="M 1959 3097 
Q 1497 3097 1228 2736 
Q 959 2375 959 1747 
Q 959 1119 1226 758 
Q 1494 397 1959 397 
Q 2419 397 2687 759 
Q 2956 1122 2956 1747 
Q 2956 2369 2687 2733 
Q 2419 3097 1959 3097 
z
M 1959 3584 
Q 2709 3584 3137 3096 
Q 3566 2609 3566 1747 
Q 3566 888 3137 398 
Q 2709 -91 1959 -91 
Q 1206 -91 779 398 
Q 353 888 353 1747 
Q 353 2609 779 3096 
Q 1206 3584 1959 3584 
z
" transform="scale(0.015625)"/>
       <path id="DejaVuSans-63" d="M 3122 3366 
L 3122 2828 
Q 2878 2963 2633 3030 
Q 2388 3097 2138 3097 
Q 1578 3097 1268 2742 
Q 959 2388 959 1747 
Q 959 1106 1268 751 
Q 1578 397 2138 397 
Q 2388 397 2633 464 
Q 2878 531 3122 666 
L 3122 134 
Q 2881 22 2623 -34 
Q 2366 -91 2075 -91 
Q 1284 -91 818 406 
Q 353 903 353 1747 
Q 353 2603 823 3093 
Q 1294 3584 2113 3584 
Q 2378 3584 2631 3529 
Q 2884 3475 3122 3366 
z
" transform="scale(0.015625)"/>
       <path id="DejaVuSans-5f" d="M 3263 -1063 
L 3263 -1509 
L -63 -1509 
L -63 -1063 
L 3263 -1063 
z
" transform="scale(0.015625)"/>
       <path id="DejaVuSans-69" d="M 603 3500 
L 1178 3500 
L 1178 0 
L 603 0 
L 603 3500 
z
M 603 4863 
L 1178 4863 
L 1178 4134 
L 603 4134 
L 603 4863 
z
" transform="scale(0.015625)"/>
       <path id="DejaVuSans-6e" d="M 3513 2113 
L 3513 0 
L 2938 0 
L 2938 2094 
Q 2938 2591 2744 2837 
Q 2550 3084 2163 3084 
Q 1697 3084 1428 2787 
Q 1159 2491 1159 1978 
L 1159 0 
L 581 0 
L 581 3500 
L 1159 3500 
L 1159 2956 
Q 1366 3272 1645 3428 
Q 1925 3584 2291 3584 
Q 2894 3584 3203 3211 
Q 3513 2838 3513 2113 
z
" transform="scale(0.015625)"/>
      </defs>
      <use xlink:href="#DejaVuSans-6c"/>
      <use xlink:href="#DejaVuSans-6f" transform="translate(27.783203 0)"/>
      <use xlink:href="#DejaVuSans-63" transform="translate(88.964844 0)"/>
      <use xlink:href="#DejaVuSans-61" transform="translate(143.945312 0)"/>
      <use xlink:href="#DejaVuSans-6c" transform="translate(205.224609 0)"/>
      <use xlink:href="#DejaVuSans-5f" transform="translate(233.007812 0)"/>
      <use xlink:href="#DejaVuSans-4d" transform="translate(283.007812 0)"/>
      <use xlink:href="#DejaVuSans-69" transform="translate(369.287109 0)"/>
      <use xlink:href="#DejaVuSans-6e" transform="translate(397.070312 0)"/>
     </g>
    </g>
   </g>
  </g>
 </g>
 <defs>
  <clipPath id="pe577085752">
   <rect x="34.976" y="7.2" width="892.8" height="293.76"/>
  </clipPath>
 </defs>
</svg>
