<?xml version="1.0" encoding="utf-8" standalone="no"?>
<!DOCTYPE svg PUBLIC "-//W3C//DTD SVG 1.1//EN"
  "http://www.w3.org/Graphics/SVG/1.1/DTD/svg11.dtd">
<svg xmlns:xlink="http://www.w3.org/1999/xlink" width="934.976pt" height="358.290693pt" viewBox="0 0 934.976 358.290693" xmlns="http://www.w3.org/2000/svg" version="1.1">
 <metadata>
  <rdf:RDF xmlns:dc="http://purl.org/dc/elements/1.1/" xmlns:cc="http://creativecommons.org/ns#" xmlns:rdf="http://www.w3.org/1999/02/22-rdf-syntax-ns#">
   <cc:Work>
    <dc:type rdf:resource="http://purl.org/dc/dcmitype/StillImage"/>
    <dc:date>2024-04-28T05:59:45.900860</dc:date>
    <dc:format>image/svg+xml</dc:format>
    <dc:creator>
     <cc:Agent>
      <dc:title>Matplotlib v3.8.4, https://matplotlib.org/</dc:title>
     </cc:Agent>
    </dc:creator>
   </cc:Work>
  </rdf:RDF>
 </metadata>
 <defs>
  <style type="text/css">*{stroke-linejoin: round; stroke-linecap: butt}</style>
 </defs>
 <g id="figure_1">
  <g id="patch_1">
   <path d="M 0 358.290693 
L 934.976 358.290693 
L 934.976 0 
L 0 0 
z
" style="fill: #373e4b"/>
  </g>
  <g id="axes_1">
   <g id="patch_2">
    <path d="M 34.976 300.96 
L 927.776 300.96 
L 927.776 7.2 
L 34.976 7.2 
z
" style="fill: #373e4b"/>
   </g>
   <g id="matplotlib.axis_1">
    <g id="xtick_1">
     <g id="line2d_1">
      <path d="M 145.579736 300.96 
L 145.579736 7.2 
" clip-path="url(#paa9861e7fc)" style="fill: none; stroke: #546379; stroke-width: 1.12; stroke-linecap: square"/>
     </g>
     <g id="line2d_2"/>
     <g id="text_1">
      <!-- 2012 -->
      <g style="fill: #b1bed6" transform="translate(116.498697 330.884854) rotate(-30) scale(0.126 -0.126)">
       <defs>
        <path id="DejaVuSans-32" d="M 1228 531 
L 3431 531 
L 3431 0 
L 469 0 
L 469 531 
Q 828 903 1448 1529 
Q 2069 2156 2228 2338 
Q 2531 2678 2651 2914 
Q 2772 3150 2772 3378 
Q 2772 3750 2511 3984 
Q 2250 4219 1831 4219 
Q 1534 4219 1204 4116 
Q 875 4013 500 3803 
L 500 4441 
Q 881 4594 1212 4672 
Q 1544 4750 1819 4750 
Q 2544 4750 2975 4387 
Q 3406 4025 3406 3419 
Q 3406 3131 3298 2873 
Q 3191 2616 2906 2266 
Q 2828 2175 2409 1742 
Q 1991 1309 1228 531 
z
" transform="scale(0.015625)"/>
        <path id="DejaVuSans-30" d="M 2034 4250 
Q 1547 4250 1301 3770 
Q 1056 3291 1056 2328 
Q 1056 1369 1301 889 
Q 1547 409 2034 409 
Q 2525 409 2770 889 
Q 3016 1369 3016 2328 
Q 3016 3291 2770 3770 
Q 2525 4250 2034 4250 
z
M 2034 4750 
Q 2819 4750 3233 4129 
Q 3647 3509 3647 2328 
Q 3647 1150 3233 529 
Q 2819 -91 2034 -91 
Q 1250 -91 836 529 
Q 422 1150 422 2328 
Q 422 3509 836 4129 
Q 1250 4750 2034 4750 
z
" transform="scale(0.015625)"/>
        <path id="DejaVuSans-31" d="M 794 531 
L 1825 531 
L 1825 4091 
L 703 3866 
L 703 4441 
L 1819 4666 
L 2450 4666 
L 2450 531 
L 3481 531 
L 3481 0 
L 794 0 
L 794 531 
z
" transform="scale(0.015625)"/>
       </defs>
       <use xlink:href="#DejaVuSans-32"/>
       <use xlink:href="#DejaVuSans-30" x="63.623047"/>
       <use xlink:href="#DejaVuSans-31" x="127.246094"/>
       <use xlink:href="#DejaVuSans-32" x="190.869141"/>
      </g>
     </g>
    </g>
    <g id="xtick_2">
     <g id="line2d_3">
      <path d="M 266.017436 300.96 
L 266.017436 7.2 
" clip-path="url(#paa9861e7fc)" style="fill: none; stroke: #546379; stroke-width: 1.12; stroke-linecap: square"/>
     </g>
     <g id="line2d_4"/>
     <g id="text_2">
      <!-- 2014 -->
      <g style="fill: #b1bed6" transform="translate(236.936396 330.884854) rotate(-30) scale(0.126 -0.126)">
       <defs>
        <path id="DejaVuSans-34" d="M 2419 4116 
L 825 1625 
L 2419 1625 
L 2419 4116 
z
M 2253 4666 
L 3047 4666 
L 3047 1625 
L 3713 1625 
L 3713 1100 
L 3047 1100 
L 3047 0 
L 2419 0 
L 2419 1100 
L 313 1100 
L 313 1709 
L 2253 4666 
z
" transform="scale(0.015625)"/>
       </defs>
       <use xlink:href="#DejaVuSans-32"/>
       <use xlink:href="#DejaVuSans-30" x="63.623047"/>
       <use xlink:href="#DejaVuSans-31" x="127.246094"/>
       <use xlink:href="#DejaVuSans-34" x="190.869141"/>
      </g>
     </g>
    </g>
    <g id="xtick_3">
     <g id="line2d_5">
      <path d="M 386.290378 300.96 
L 386.290378 7.2 
" clip-path="url(#paa9861e7fc)" style="fill: none; stroke: #546379; stroke-width: 1.12; stroke-linecap: square"/>
     </g>
     <g id="line2d_6"/>
     <g id="text_3">
      <!-- 2016 -->
      <g style="fill: #b1bed6" transform="translate(357.209338 330.884854) rotate(-30) scale(0.126 -0.126)">
       <defs>
        <path id="DejaVuSans-36" d="M 2113 2584 
Q 1688 2584 1439 2293 
Q 1191 2003 1191 1497 
Q 1191 994 1439 701 
Q 1688 409 2113 409 
Q 2538 409 2786 701 
Q 3034 994 3034 1497 
Q 3034 2003 2786 2293 
Q 2538 2584 2113 2584 
z
M 3366 4563 
L 3366 3988 
Q 3128 4100 2886 4159 
Q 2644 4219 2406 4219 
Q 1781 4219 1451 3797 
Q 1122 3375 1075 2522 
Q 1259 2794 1537 2939 
Q 1816 3084 2150 3084 
Q 2853 3084 3261 2657 
Q 3669 2231 3669 1497 
Q 3669 778 3244 343 
Q 2819 -91 2113 -91 
Q 1303 -91 875 529 
Q 447 1150 447 2328 
Q 447 3434 972 4092 
Q 1497 4750 2381 4750 
Q 2619 4750 2861 4703 
Q 3103 4656 3366 4563 
z
" transform="scale(0.015625)"/>
       </defs>
       <use xlink:href="#DejaVuSans-32"/>
       <use xlink:href="#DejaVuSans-30" x="63.623047"/>
       <use xlink:href="#DejaVuSans-31" x="127.246094"/>
       <use xlink:href="#DejaVuSans-36" x="190.869141"/>
      </g>
     </g>
    </g>
    <g id="xtick_4">
     <g id="line2d_7">
      <path d="M 506.728077 300.96 
L 506.728077 7.2 
" clip-path="url(#paa9861e7fc)" style="fill: none; stroke: #546379; stroke-width: 1.12; stroke-linecap: square"/>
     </g>
     <g id="line2d_8"/>
     <g id="text_4">
      <!-- 2018 -->
      <g style="fill: #b1bed6" transform="translate(477.647037 330.884854) rotate(-30) scale(0.126 -0.126)">
       <defs>
        <path id="DejaVuSans-38" d="M 2034 2216 
Q 1584 2216 1326 1975 
Q 1069 1734 1069 1313 
Q 1069 891 1326 650 
Q 1584 409 2034 409 
Q 2484 409 2743 651 
Q 3003 894 3003 1313 
Q 3003 1734 2745 1975 
Q 2488 2216 2034 2216 
z
M 1403 2484 
Q 997 2584 770 2862 
Q 544 3141 544 3541 
Q 544 4100 942 4425 
Q 1341 4750 2034 4750 
Q 2731 4750 3128 4425 
Q 3525 4100 3525 3541 
Q 3525 3141 3298 2862 
Q 3072 2584 2669 2484 
Q 3125 2378 3379 2068 
Q 3634 1759 3634 1313 
Q 3634 634 3220 271 
Q 2806 -91 2034 -91 
Q 1263 -91 848 271 
Q 434 634 434 1313 
Q 434 1759 690 2068 
Q 947 2378 1403 2484 
z
M 1172 3481 
Q 1172 3119 1398 2916 
Q 1625 2713 2034 2713 
Q 2441 2713 2670 2916 
Q 2900 3119 2900 3481 
Q 2900 3844 2670 4047 
Q 2441 4250 2034 4250 
Q 1625 4250 1398 4047 
Q 1172 3844 1172 3481 
z
" transform="scale(0.015625)"/>
       </defs>
       <use xlink:href="#DejaVuSans-32"/>
       <use xlink:href="#DejaVuSans-30" x="63.623047"/>
       <use xlink:href="#DejaVuSans-31" x="127.246094"/>
       <use xlink:href="#DejaVuSans-38" x="190.869141"/>
      </g>
     </g>
    </g>
    <g id="xtick_5">
     <g id="line2d_9">
      <path d="M 627.001019 300.96 
L 627.001019 7.2 
" clip-path="url(#paa9861e7fc)" style="fill: none; stroke: #546379; stroke-width: 1.12; stroke-linecap: square"/>
     </g>
     <g id="line2d_10"/>
     <g id="text_5">
      <!-- 2020 -->
      <g style="fill: #b1bed6" transform="translate(597.919979 330.884854) rotate(-30) scale(0.126 -0.126)">
       <use xlink:href="#DejaVuSans-32"/>
       <use xlink:href="#DejaVuSans-30" x="63.623047"/>
       <use xlink:href="#DejaVuSans-32" x="127.246094"/>
       <use xlink:href="#DejaVuSans-30" x="190.869141"/>
      </g>
     </g>
    </g>
    <g id="xtick_6">
     <g id="line2d_11">
      <path d="M 747.438719 300.96 
L 747.438719 7.2 
" clip-path="url(#paa9861e7fc)" style="fill: none; stroke: #546379; stroke-width: 1.12; stroke-linecap: square"/>
     </g>
     <g id="line2d_12"/>
     <g id="text_6">
      <!-- 2022 -->
      <g style="fill: #b1bed6" transform="translate(718.357679 330.884854) rotate(-30) scale(0.126 -0.126)">
       <use xlink:href="#DejaVuSans-32"/>
       <use xlink:href="#DejaVuSans-30" x="63.623047"/>
       <use xlink:href="#DejaVuSans-32" x="127.246094"/>
       <use xlink:href="#DejaVuSans-32" x="190.869141"/>
      </g>
     </g>
    </g>
    <g id="xtick_7">
     <g id="line2d_13">
      <path d="M 867.71166 300.96 
L 867.71166 7.2 
" clip-path="url(#paa9861e7fc)" style="fill: none; stroke: #546379; stroke-width: 1.12; stroke-linecap: square"/>
     </g>
     <g id="line2d_14"/>
     <g id="text_7">
      <!-- 2024 -->
      <g style="fill: #b1bed6" transform="translate(838.630621 330.884854) rotate(-30) scale(0.126 -0.126)">
       <use xlink:href="#DejaVuSans-32"/>
       <use xlink:href="#DejaVuSans-30" x="63.623047"/>
       <use xlink:href="#DejaVuSans-32" x="127.246094"/>
       <use xlink:href="#DejaVuSans-34" x="190.869141"/>
      </g>
     </g>
    </g>
    <g id="text_8">
     <!-- Date -->
     <g style="fill: #b1bed6" transform="translate(464.166875 348.095943) scale(0.144 -0.144)">
      <defs>
       <path id="DejaVuSans-44" d="M 1259 4147 
L 1259 519 
L 2022 519 
Q 2988 519 3436 956 
Q 3884 1394 3884 2338 
Q 3884 3275 3436 3711 
Q 2988 4147 2022 4147 
L 1259 4147 
z
M 628 4666 
L 1925 4666 
Q 3281 4666 3915 4102 
Q 4550 3538 4550 2338 
Q 4550 1131 3912 565 
Q 3275 0 1925 0 
L 628 0 
L 628 4666 
z
" transform="scale(0.015625)"/>
       <path id="DejaVuSans-61" d="M 2194 1759 
Q 1497 1759 1228 1600 
Q 959 1441 959 1056 
Q 959 750 1161 570 
Q 1363 391 1709 391 
Q 2188 391 2477 730 
Q 2766 1069 2766 1631 
L 2766 1759 
L 2194 1759 
z
M 3341 1997 
L 3341 0 
L 2766 0 
L 2766 531 
Q 2569 213 2275 61 
Q 1981 -91 1556 -91 
Q 1019 -91 701 211 
Q 384 513 384 1019 
Q 384 1609 779 1909 
Q 1175 2209 1959 2209 
L 2766 2209 
L 2766 2266 
Q 2766 2663 2505 2880 
Q 2244 3097 1772 3097 
Q 1472 3097 1187 3025 
Q 903 2953 641 2809 
L 641 3341 
Q 956 3463 1253 3523 
Q 1550 3584 1831 3584 
Q 2591 3584 2966 3190 
Q 3341 2797 3341 1997 
z
" transform="scale(0.015625)"/>
       <path id="DejaVuSans-74" d="M 1172 4494 
L 1172 3500 
L 2356 3500 
L 2356 3053 
L 1172 3053 
L 1172 1153 
Q 1172 725 1289 603 
Q 1406 481 1766 481 
L 2356 481 
L 2356 0 
L 1766 0 
Q 1100 0 847 248 
Q 594 497 594 1153 
L 594 3053 
L 172 3053 
L 172 3500 
L 594 3500 
L 594 4494 
L 1172 4494 
z
" transform="scale(0.015625)"/>
       <path id="DejaVuSans-65" d="M 3597 1894 
L 3597 1613 
L 953 1613 
Q 991 1019 1311 708 
Q 1631 397 2203 397 
Q 2534 397 2845 478 
Q 3156 559 3463 722 
L 3463 178 
Q 3153 47 2828 -22 
Q 2503 -91 2169 -91 
Q 1331 -91 842 396 
Q 353 884 353 1716 
Q 353 2575 817 3079 
Q 1281 3584 2069 3584 
Q 2775 3584 3186 3129 
Q 3597 2675 3597 1894 
z
M 3022 2063 
Q 3016 2534 2758 2815 
Q 2500 3097 2075 3097 
Q 1594 3097 1305 2825 
Q 1016 2553 972 2059 
L 3022 2063 
z
" transform="scale(0.015625)"/>
      </defs>
      <use xlink:href="#DejaVuSans-44"/>
      <use xlink:href="#DejaVuSans-61" x="77.001953"/>
      <use xlink:href="#DejaVuSans-74" x="138.28125"/>
      <use xlink:href="#DejaVuSans-65" x="177.490234"/>
     </g>
    </g>
   </g>
   <g id="matplotlib.axis_2">
    <g id="ytick_1">
     <g id="line2d_15">
      <path d="M 34.976 253.993723 
L 927.776 253.993723 
" clip-path="url(#paa9861e7fc)" style="fill: none; stroke: #546379; stroke-width: 1.12; stroke-linecap: square"/>
     </g>
     <g id="line2d_16"/>
     <g id="text_9">
      <!-- $\mathdefault{10^{0}}$ -->
      <g style="fill: #b1bed6" transform="translate(7.2 258.780739) scale(0.126 -0.126)">
       <use xlink:href="#DejaVuSans-31" transform="translate(0 0.765625)"/>
       <use xlink:href="#DejaVuSans-30" transform="translate(63.623047 0.765625)"/>
       <use xlink:href="#DejaVuSans-30" transform="translate(128.203125 39.046875) scale(0.7)"/>
      </g>
     </g>
    </g>
    <g id="ytick_2">
     <g id="line2d_17">
      <path d="M 34.976 205.903607 
L 927.776 205.903607 
" clip-path="url(#paa9861e7fc)" style="fill: none; stroke: #546379; stroke-width: 1.12; stroke-linecap: square"/>
     </g>
     <g id="line2d_18"/>
     <g id="text_10">
      <!-- $\mathdefault{10^{1}}$ -->
      <g style="fill: #b1bed6" transform="translate(7.2 210.690622) scale(0.126 -0.126)">
       <use xlink:href="#DejaVuSans-31" transform="translate(0 0.684375)"/>
       <use xlink:href="#DejaVuSans-30" transform="translate(63.623047 0.684375)"/>
       <use xlink:href="#DejaVuSans-31" transform="translate(128.203125 38.965625) scale(0.7)"/>
      </g>
     </g>
    </g>
    <g id="ytick_3">
     <g id="line2d_19">
      <path d="M 34.976 157.81349 
L 927.776 157.81349 
" clip-path="url(#paa9861e7fc)" style="fill: none; stroke: #546379; stroke-width: 1.12; stroke-linecap: square"/>
     </g>
     <g id="line2d_20"/>
     <g id="text_11">
      <!-- $\mathdefault{10^{2}}$ -->
      <g style="fill: #b1bed6" transform="translate(7.2 162.600505) scale(0.126 -0.126)">
       <use xlink:href="#DejaVuSans-31" transform="translate(0 0.765625)"/>
       <use xlink:href="#DejaVuSans-30" transform="translate(63.623047 0.765625)"/>
       <use xlink:href="#DejaVuSans-32" transform="translate(128.203125 39.046875) scale(0.7)"/>
      </g>
     </g>
    </g>
    <g id="ytick_4">
     <g id="line2d_21">
      <path d="M 34.976 109.723373 
L 927.776 109.723373 
" clip-path="url(#paa9861e7fc)" style="fill: none; stroke: #546379; stroke-width: 1.12; stroke-linecap: square"/>
     </g>
     <g id="line2d_22"/>
     <g id="text_12">
      <!-- $\mathdefault{10^{3}}$ -->
      <g style="fill: #b1bed6" transform="translate(7.2 114.510388) scale(0.126 -0.126)">
       <defs>
        <path id="DejaVuSans-33" d="M 2597 2516 
Q 3050 2419 3304 2112 
Q 3559 1806 3559 1356 
Q 3559 666 3084 287 
Q 2609 -91 1734 -91 
Q 1441 -91 1130 -33 
Q 819 25 488 141 
L 488 750 
Q 750 597 1062 519 
Q 1375 441 1716 441 
Q 2309 441 2620 675 
Q 2931 909 2931 1356 
Q 2931 1769 2642 2001 
Q 2353 2234 1838 2234 
L 1294 2234 
L 1294 2753 
L 1863 2753 
Q 2328 2753 2575 2939 
Q 2822 3125 2822 3475 
Q 2822 3834 2567 4026 
Q 2313 4219 1838 4219 
Q 1578 4219 1281 4162 
Q 984 4106 628 3988 
L 628 4550 
Q 988 4650 1302 4700 
Q 1616 4750 1894 4750 
Q 2613 4750 3031 4423 
Q 3450 4097 3450 3541 
Q 3450 3153 3228 2886 
Q 3006 2619 2597 2516 
z
" transform="scale(0.015625)"/>
       </defs>
       <use xlink:href="#DejaVuSans-31" transform="translate(0 0.765625)"/>
       <use xlink:href="#DejaVuSans-30" transform="translate(63.623047 0.765625)"/>
       <use xlink:href="#DejaVuSans-33" transform="translate(128.203125 39.046875) scale(0.7)"/>
      </g>
     </g>
    </g>
    <g id="ytick_5">
     <g id="line2d_23">
      <path d="M 34.976 61.633256 
L 927.776 61.633256 
" clip-path="url(#paa9861e7fc)" style="fill: none; stroke: #546379; stroke-width: 1.12; stroke-linecap: square"/>
     </g>
     <g id="line2d_24"/>
     <g id="text_13">
      <!-- $\mathdefault{10^{4}}$ -->
      <g style="fill: #b1bed6" transform="translate(7.2 66.420271) scale(0.126 -0.126)">
       <use xlink:href="#DejaVuSans-31" transform="translate(0 0.684375)"/>
       <use xlink:href="#DejaVuSans-30" transform="translate(63.623047 0.684375)"/>
       <use xlink:href="#DejaVuSans-34" transform="translate(128.203125 38.965625) scale(0.7)"/>
      </g>
     </g>
    </g>
    <g id="ytick_6">
     <g id="line2d_25">
      <path d="M 34.976 13.543139 
L 927.776 13.543139 
" clip-path="url(#paa9861e7fc)" style="fill: none; stroke: #546379; stroke-width: 1.12; stroke-linecap: square"/>
     </g>
     <g id="line2d_26"/>
     <g id="text_14">
      <!-- $\mathdefault{10^{5}}$ -->
      <g style="fill: #b1bed6" transform="translate(7.2 18.330154) scale(0.126 -0.126)">
       <defs>
        <path id="DejaVuSans-35" d="M 691 4666 
L 3169 4666 
L 3169 4134 
L 1269 4134 
L 1269 2991 
Q 1406 3038 1543 3061 
Q 1681 3084 1819 3084 
Q 2600 3084 3056 2656 
Q 3513 2228 3513 1497 
Q 3513 744 3044 326 
Q 2575 -91 1722 -91 
Q 1428 -91 1123 -41 
Q 819 9 494 109 
L 494 744 
Q 775 591 1075 516 
Q 1375 441 1709 441 
Q 2250 441 2565 725 
Q 2881 1009 2881 1497 
Q 2881 1984 2565 2268 
Q 2250 2553 1709 2553 
Q 1456 2553 1204 2497 
Q 953 2441 691 2322 
L 691 4666 
z
" transform="scale(0.015625)"/>
       </defs>
       <use xlink:href="#DejaVuSans-31" transform="translate(0 0.684375)"/>
       <use xlink:href="#DejaVuSans-30" transform="translate(63.623047 0.684375)"/>
       <use xlink:href="#DejaVuSans-35" transform="translate(128.203125 38.965625) scale(0.7)"/>
      </g>
     </g>
    </g>
    <g id="ytick_7">
     <g id="line2d_27"/>
    </g>
    <g id="ytick_8">
     <g id="line2d_28"/>
    </g>
    <g id="ytick_9">
     <g id="line2d_29"/>
    </g>
    <g id="ytick_10">
     <g id="line2d_30"/>
    </g>
    <g id="ytick_11">
     <g id="line2d_31"/>
    </g>
    <g id="ytick_12">
     <g id="line2d_32"/>
    </g>
    <g id="ytick_13">
     <g id="line2d_33"/>
    </g>
    <g id="ytick_14">
     <g id="line2d_34"/>
    </g>
    <g id="ytick_15">
     <g id="line2d_35"/>
    </g>
    <g id="ytick_16">
     <g id="line2d_36"/>
    </g>
    <g id="ytick_17">
     <g id="line2d_37"/>
    </g>
    <g id="ytick_18">
     <g id="line2d_38"/>
    </g>
    <g id="ytick_19">
     <g id="line2d_39"/>
    </g>
    <g id="ytick_20">
     <g id="line2d_40"/>
    </g>
    <g id="ytick_21">
     <g id="line2d_41"/>
    </g>
    <g id="ytick_22">
     <g id="line2d_42"/>
    </g>
    <g id="ytick_23">
     <g id="line2d_43"/>
    </g>
    <g id="ytick_24">
     <g id="line2d_44"/>
    </g>
    <g id="ytick_25">
     <g id="line2d_45"/>
    </g>
    <g id="ytick_26">
     <g id="line2d_46"/>
    </g>
    <g id="ytick_27">
     <g id="line2d_47"/>
    </g>
    <g id="ytick_28">
     <g id="line2d_48"/>
    </g>
    <g id="ytick_29">
     <g id="line2d_49"/>
    </g>
    <g id="ytick_30">
     <g id="line2d_50"/>
    </g>
    <g id="ytick_31">
     <g id="line2d_51"/>
    </g>
    <g id="ytick_32">
     <g id="line2d_52"/>
    </g>
    <g id="ytick_33">
     <g id="line2d_53"/>
    </g>
    <g id="ytick_34">
     <g id="line2d_54"/>
    </g>
    <g id="ytick_35">
     <g id="line2d_55"/>
    </g>
    <g id="ytick_36">
     <g id="line2d_56"/>
    </g>
    <g id="ytick_37">
     <g id="line2d_57"/>
    </g>
    <g id="ytick_38">
     <g id="line2d_58"/>
    </g>
    <g id="ytick_39">
     <g id="line2d_59"/>
    </g>
    <g id="ytick_40">
     <g id="line2d_60"/>
    </g>
    <g id="ytick_41">
     <g id="line2d_61"/>
    </g>
    <g id="ytick_42">
     <g id="line2d_62"/>
    </g>
    <g id="ytick_43">
     <g id="line2d_63"/>
    </g>
    <g id="ytick_44">
     <g id="line2d_64"/>
    </g>
    <g id="ytick_45">
     <g id="line2d_65"/>
    </g>
    <g id="ytick_46">
     <g id="line2d_66"/>
    </g>
    <g id="ytick_47">
     <g id="line2d_67"/>
    </g>
    <g id="ytick_48">
     <g id="line2d_68"/>
    </g>
    <g id="ytick_49">
     <g id="line2d_69"/>
    </g>
    <g id="ytick_50">
     <g id="line2d_70"/>
    </g>
    <g id="ytick_51">
     <g id="line2d_71"/>
    </g>
    <g id="ytick_52">
     <g id="line2d_72"/>
    </g>
    <g id="ytick_53">
     <g id="line2d_73"/>
    </g>
    <g id="ytick_54">
     <g id="line2d_74"/>
    </g>
   </g>
   <g id="line2d_75">
    <path d="M 75.557818 287.607273 
L 75.557818 282.946859 
L 76.216848 282.946859 
L 76.216848 277.791119 
L 76.875878 277.791119 
L 76.875878 279.139023 
L 77.534908 279.139023 
L 77.534908 280.579958 
L 78.193937 280.579958 
L 78.193937 279.847067 
L 78.852967 279.847067 
L 78.852967 280.579958 
L 80.171027 280.579958 
L 80.171027 282.127724 
L 80.830057 282.127724 
L 80.830057 284.688306 
L 82.148116 284.688306 
L 82.148116 282.946859 
L 82.807146 282.946859 
L 82.807146 282.127724 
L 83.466176 282.127724 
L 83.466176 282.946859 
L 84.125206 282.946859 
L 84.125206 281.339507 
L 84.784236 281.339507 
L 84.784236 279.139023 
L 86.102295 279.139023 
L 86.102295 277.791119 
L 86.761325 277.791119 
L 86.761325 275.331188 
L 87.420355 275.331188 
L 87.420355 273.130705 
L 88.079385 273.130705 
L 88.079385 274.201979 
L 88.738415 274.201979 
L 88.738415 271.140126 
L 89.397444 271.140126 
L 89.397444 270.670774 
L 90.056474 270.670774 
L 90.056474 255.735171 
L 91.374534 255.735171 
L 91.374534 254.629872 
L 92.033564 254.629872 
L 92.033564 252.386371 
L 92.692593 252.386371 
L 92.692593 252.974728 
L 93.351623 252.974728 
L 93.351623 256.663558 
L 94.010653 256.663558 
L 94.010653 253.993723 
L 94.669683 253.993723 
L 94.669683 254.629872 
L 95.328713 254.629872 
L 95.328713 255.735171 
L 95.987743 255.735171 
L 95.987743 256.663558 
L 96.646772 256.663558 
L 96.646772 255.963428 
L 97.305802 255.963428 
L 97.305802 256.90225 
L 97.964832 256.90225 
L 97.964832 258.916849 
L 98.623862 258.916849 
L 98.623862 256.427564 
L 99.282892 256.427564 
L 99.282892 258.654137 
L 100.600951 258.654137 
L 100.600951 260.002042 
L 101.259981 260.002042 
L 101.259981 259.725412 
L 101.919011 259.725412 
L 101.919011 254.415663 
L 102.578041 254.415663 
L 102.578041 250.185888 
L 103.237071 250.185888 
L 103.237071 247.266922 
L 103.8961 247.266922 
L 103.8961 241.950996 
L 104.55513 241.950996 
L 104.55513 224.322105 
L 105.21416 224.322105 
L 105.21416 227.474429 
L 105.87319 227.474429 
L 105.87319 225.515874 
L 106.53222 225.515874 
L 106.53222 214.740584 
L 107.191249 214.740584 
L 107.191249 209.371702 
L 107.850279 209.371702 
L 107.850279 213.412618 
L 108.509309 213.412618 
L 108.509309 212.562433 
L 109.168339 212.562433 
L 109.168339 208.8602 
L 109.827369 208.8602 
L 109.827369 206.604449 
L 110.486399 206.604449 
L 110.486399 192.443424 
L 111.145428 192.443424 
L 111.145428 181.39015 
L 111.804458 181.39015 
L 111.804458 187.917194 
L 112.463488 187.917194 
L 112.463488 192.641704 
L 113.122518 192.641704 
L 113.122518 196.899279 
L 113.781548 196.899279 
L 113.781548 194.12062 
L 114.440577 194.12062 
L 114.440577 194.395667 
L 115.099607 194.395667 
L 115.099607 196.429626 
L 115.758637 196.429626 
L 115.758637 195.957326 
L 116.417667 195.957326 
L 116.417667 197.338119 
L 117.076697 197.338119 
L 117.076697 198.506632 
L 117.735727 198.506632 
L 117.735727 198.085865 
L 118.394756 198.085865 
L 118.394756 198.98098 
L 119.053786 198.98098 
L 119.053786 198.727642 
L 119.712816 198.727642 
L 119.712816 198.028488 
L 120.371846 198.028488 
L 120.371846 202.98464 
L 121.030876 202.98464 
L 121.030876 206.626058 
L 121.689906 206.626058 
L 121.689906 206.050318 
L 122.348935 206.050318 
L 122.348935 203.240456 
L 123.007965 203.240456 
L 123.007965 202.535477 
L 123.666995 202.535477 
L 123.666995 203.351058 
L 124.326025 203.351058 
L 124.326025 207.018896 
L 124.985055 207.018896 
L 124.985055 209.396374 
L 125.644084 209.396374 
L 125.644084 209.870776 
L 126.303114 209.870776 
L 126.303114 214.08149 
L 126.962144 214.08149 
L 126.962144 215.921228 
L 127.621174 215.921228 
L 127.621174 220.2968 
L 128.280204 220.2968 
L 128.280204 215.954995 
L 128.939234 215.954995 
L 128.939234 218.427603 
L 129.598263 218.427603 
L 129.598263 220.632313 
L 130.257293 220.632313 
L 130.257293 220.131043 
L 130.916323 220.131043 
L 130.916323 221.276309 
L 131.575353 221.276309 
L 131.575353 224.221453 
L 132.234383 224.221453 
L 132.234383 224.98844 
L 132.893412 224.98844 
L 132.893412 234.118089 
L 133.552442 234.118089 
L 133.552442 228.932132 
L 134.211472 228.932132 
L 134.211472 230.364082 
L 134.870502 230.364082 
L 134.870502 228.558057 
L 135.529532 228.558057 
L 135.529532 229.570875 
L 136.188562 229.570875 
L 136.188562 229.766371 
L 136.847591 229.766371 
L 136.847591 230.296819 
L 137.506621 230.296819 
L 137.506621 234.037607 
L 138.165651 234.037607 
L 138.165651 235.278681 
L 138.824681 235.278681 
L 138.824681 235.024496 
L 139.483711 235.024496 
L 139.483711 233.718741 
L 140.14274 233.718741 
L 140.14274 230.096319 
L 140.80177 230.096319 
L 140.80177 230.635323 
L 141.4608 230.635323 
L 141.4608 230.229771 
L 142.11983 230.229771 
L 142.11983 229.313029 
L 142.77886 229.313029 
L 142.77886 228.682006 
L 143.43789 228.682006 
L 143.43789 225.145276 
L 144.096919 225.145276 
L 144.096919 223.774426 
L 144.755949 223.774426 
L 144.755949 222.720359 
L 145.414979 222.720359 
L 145.414979 218.889175 
L 146.074009 218.889175 
L 146.074009 213.174606 
L 146.733039 213.174606 
L 146.733039 213.05661 
L 147.392068 213.05661 
L 147.392068 213.233855 
L 148.051098 213.233855 
L 148.051098 215.322564 
L 148.710128 215.322564 
L 148.710128 214.997242 
L 149.369158 214.997242 
L 149.369158 217.643613 
L 150.028188 217.643613 
L 150.028188 217.827626 
L 150.687218 217.827626 
L 150.687218 216.607177 
L 151.346247 216.607177 
L 151.346247 217.13684 
L 152.664307 217.208488 
L 152.664307 221.495464 
L 153.323337 221.495464 
L 153.323337 222.580657 
L 153.982367 222.580657 
L 153.982367 219.68188 
L 154.641396 219.68188 
L 154.641396 220.463883 
L 155.300426 220.463883 
L 155.300426 221.189287 
L 155.959456 221.189287 
L 155.959456 220.172359 
L 156.618486 220.172359 
L 156.618486 220.463883 
L 157.277516 220.463883 
L 157.277516 218.618686 
L 157.936546 218.618686 
L 157.936546 219.440893 
L 158.595575 219.440893 
L 158.595575 221.189287 
L 159.254605 221.189287 
L 159.254605 221.363695 
L 159.913635 221.363695 
L 159.913635 220.632313 
L 161.231695 220.547928 
L 161.231695 221.232753 
L 161.890724 221.232753 
L 161.890724 220.505863 
L 163.208784 220.421987 
L 163.208784 219.400998 
L 163.867814 219.400998 
L 163.867814 219.601242 
L 164.526844 219.601242 
L 164.526844 220.007583 
L 165.185874 220.007583 
L 165.185874 219.641522 
L 165.844903 219.641522 
L 165.844903 219.966591 
L 167.162963 219.966591 
L 167.162963 220.172359 
L 167.821993 220.172359 
L 167.821993 219.844096 
L 169.799082 219.762831 
L 169.799082 219.641522 
L 170.458112 219.641522 
L 170.458112 219.281767 
L 171.117142 219.281767 
L 171.117142 218.16299 
L 172.435202 218.087998 
L 172.435202 215.653034 
L 173.094231 215.653034 
L 173.094231 214.708722 
L 173.753261 214.708722 
L 173.753261 214.455564 
L 174.412291 214.455564 
L 174.412291 214.645145 
L 175.071321 214.645145 
L 175.071321 214.236541 
L 175.730351 214.236541 
L 175.730351 214.08149 
L 176.38938 214.08149 
L 176.38938 213.412618 
L 177.04841 213.412618 
L 177.04841 210.959337 
L 177.70744 210.959337 
L 177.70744 207.040939 
L 178.36647 207.040939 
L 178.36647 206.909031 
L 179.0255 206.909031 
L 179.0255 208.573441 
L 179.68453 208.573441 
L 179.68453 208.220442 
L 180.343559 208.220442 
L 180.343559 205.654475 
L 181.002589 205.654475 
L 181.002589 203.480838 
L 181.661619 203.480838 
L 181.661619 202.803814 
L 182.320649 202.803814 
L 182.320649 201.580059 
L 182.979679 201.580059 
L 182.979679 198.172228 
L 183.638708 198.172228 
L 183.638708 205.367529 
L 184.297738 205.367529 
L 184.297738 203.932023 
L 184.956768 203.932023 
L 184.956768 204.08461 
L 185.615798 204.08461 
L 185.615798 204.844867 
L 186.274828 204.844867 
L 186.274828 203.406579 
L 187.592887 203.462249 
L 187.592887 202.376115 
L 188.251917 202.376115 
L 188.251917 201.027108 
L 188.910947 201.027108 
L 188.910947 201.614047 
L 189.569977 201.614047 
L 189.569977 201.310133 
L 190.229007 201.310133 
L 190.229007 201.109953 
L 190.888036 201.109953 
L 190.888036 200.47231 
L 191.547066 200.47231 
L 191.547066 201.580059 
L 192.206096 201.580059 
L 192.206096 201.922448 
L 192.865126 201.922448 
L 192.865126 202.130609 
L 193.524156 202.130609 
L 193.524156 202.446792 
L 194.183186 202.446792 
L 194.183186 202.875957 
L 194.842215 202.875957 
L 194.842215 204.046358 
L 195.501245 204.046358 
L 195.501245 203.799417 
L 196.160275 203.799417 
L 196.160275 203.970065 
L 197.478335 204.008177 
L 197.478335 203.780542 
L 198.137364 203.780542 
L 198.137364 202.411424 
L 198.796394 202.411424 
L 198.796394 201.546127 
L 199.455424 201.546127 
L 199.455424 201.04365 
L 200.773484 200.977558 
L 200.773484 200.279965 
L 201.432514 200.279965 
L 201.432514 199.55863 
L 202.091543 199.55863 
L 202.091543 199.176805 
L 202.750573 199.176805 
L 202.750573 199.435685 
L 204.068633 199.328698 
L 204.068633 199.713337 
L 204.727663 199.713337 
L 204.727663 199.405062 
L 205.386693 199.405062 
L 205.386693 199.604922 
L 206.704752 199.57405 
L 206.704752 198.891216 
L 207.363782 198.891216 
L 207.363782 198.418878 
L 208.022812 198.418878 
L 208.022812 196.710149 
L 208.681842 196.710149 
L 208.681842 194.662188 
L 209.340871 194.662188 
L 209.340871 193.010178 
L 209.999901 193.010178 
L 209.999901 191.65805 
L 210.658931 191.65805 
L 210.658931 190.408043 
L 211.317961 190.408043 
L 211.317961 189.88748 
L 211.976991 189.88748 
L 211.976991 187.645326 
L 212.636021 187.645326 
L 212.636021 185.005137 
L 213.29505 185.005137 
L 213.29505 185.174749 
L 213.95408 185.174749 
L 213.95408 182.59988 
L 214.61311 182.59988 
L 214.61311 182.139654 
L 215.27214 182.139654 
L 215.27214 180.191717 
L 215.93117 180.191717 
L 215.93117 175.931475 
L 216.590199 175.931475 
L 216.590199 174.21391 
L 217.249229 174.21391 
L 217.249229 173.644646 
L 217.908259 173.644646 
L 217.908259 171.422781 
L 218.567289 171.422781 
L 218.567289 165.188286 
L 219.226319 165.188286 
L 219.226319 162.792206 
L 219.885349 162.792206 
L 219.885349 159.441738 
L 220.544378 159.441738 
L 220.544378 152.173899 
L 221.203408 152.173899 
L 221.203408 147.570959 
L 221.862438 147.570959 
L 221.862438 153.169791 
L 222.521468 153.169791 
L 222.521468 165.837464 
L 223.180498 165.837464 
L 223.180498 154.194473 
L 223.839527 154.194473 
L 223.839527 150.416515 
L 224.498557 150.416515 
L 224.498557 152.576325 
L 225.157587 152.576325 
L 225.157587 154.534423 
L 225.816617 154.534423 
L 225.816617 154.717299 
L 226.475647 154.717299 
L 226.475647 155.318316 
L 227.134677 155.318316 
L 227.134677 154.358445 
L 227.793706 154.358445 
L 227.793706 153.435677 
L 229.111766 153.540944 
L 229.111766 152.016657 
L 230.429826 151.967662 
L 230.429826 153.588659 
L 231.088855 153.588659 
L 231.088855 154.185693 
L 231.747885 154.185693 
L 231.747885 156.576834 
L 232.406915 156.576834 
L 232.406915 157.817667 
L 233.065945 157.817667 
L 233.065945 156.324435 
L 233.724975 156.324435 
L 233.724975 156.138563 
L 234.384005 156.138563 
L 234.384005 156.994354 
L 235.043034 156.994354 
L 235.043034 158.39588 
L 235.702064 158.39588 
L 235.702064 162.463463 
L 236.361094 162.463463 
L 236.361094 163.410955 
L 237.020124 163.410955 
L 237.020124 159.107996 
L 237.679154 159.107996 
L 237.679154 158.438876 
L 238.338183 158.438876 
L 238.338183 160.15601 
L 238.997213 160.15601 
L 238.997213 158.992767 
L 239.656243 158.992767 
L 239.656243 158.086778 
L 240.315273 158.086778 
L 240.315273 156.870216 
L 240.974303 156.870216 
L 240.974303 156.455145 
L 241.633333 156.455145 
L 241.633333 157.236739 
L 242.292362 157.236739 
L 242.292362 155.94669 
L 242.951392 155.94669 
L 242.951392 157.874145 
L 243.610422 157.874145 
L 243.610422 155.741427 
L 244.269452 155.741427 
L 244.269452 155.209254 
L 244.928482 155.209254 
L 244.928482 154.268365 
L 245.587511 154.268365 
L 245.587511 152.319486 
L 246.246541 152.319486 
L 246.246541 154.425817 
L 246.905571 154.425817 
L 246.905571 153.657012 
L 247.564601 153.657012 
L 247.564601 153.31241 
L 248.223631 153.31241 
L 248.223631 152.801832 
L 248.882661 152.801832 
L 248.882661 153.501832 
L 249.54169 153.501832 
L 249.54169 153.211636 
L 250.20072 153.211636 
L 250.20072 152.94526 
L 250.85975 152.94526 
L 250.85975 153.670709 
L 251.51878 153.670709 
L 251.51878 153.300628 
L 252.17781 153.300628 
L 252.17781 152.724755 
L 252.836839 152.724755 
L 252.836839 151.057953 
L 253.495869 151.057953 
L 253.495869 144.839111 
L 254.154899 144.839111 
L 254.154899 143.830377 
L 254.813929 143.830377 
L 254.813929 142.628531 
L 255.472959 142.628531 
L 255.472959 143.025969 
L 256.131989 143.025969 
L 256.131989 138.46125 
L 256.791018 138.46125 
L 256.791018 132.878094 
L 257.450048 132.878094 
L 257.450048 129.229082 
L 258.109078 129.229082 
L 258.109078 125.271215 
L 258.768108 125.271215 
L 258.768108 116.678174 
L 259.427138 116.678174 
L 259.427138 114.007092 
L 260.086167 114.007092 
L 260.086167 107.097945 
L 260.745197 107.097945 
L 260.745197 108.7002 
L 261.404227 108.7002 
L 261.404227 116.997035 
L 262.063257 116.997035 
L 262.063257 112.467387 
L 262.722287 112.467387 
L 262.722287 112.801105 
L 263.381317 112.801105 
L 263.381317 117.615887 
L 264.040346 117.615887 
L 264.040346 118.401842 
L 264.699376 118.401842 
L 264.699376 116.469138 
L 265.358406 116.469138 
L 265.358406 116.239051 
L 266.017436 116.239051 
L 266.017436 113.646646 
L 266.676466 113.646646 
L 266.676466 113.784193 
L 267.335495 113.784193 
L 267.335495 113.264583 
L 267.994525 113.264583 
L 267.994525 113.94079 
L 268.653555 113.94079 
L 268.653555 113.670096 
L 269.312585 113.670096 
L 269.312585 114.91202 
L 269.971615 114.91202 
L 269.971615 114.763146 
L 270.630645 114.763146 
L 270.630645 113.942579 
L 271.289674 113.942579 
L 271.289674 114.885797 
L 271.948704 114.885797 
L 271.948704 117.552897 
L 272.607734 117.552897 
L 272.607734 120.046886 
L 273.266764 120.046886 
L 273.266764 119.374435 
L 273.925794 119.374435 
L 273.925794 121.11816 
L 274.584823 121.11816 
L 274.584823 121.850949 
L 275.243853 121.850949 
L 275.243853 121.555919 
L 275.902883 121.555919 
L 275.902883 118.065647 
L 276.561913 118.065647 
L 276.561913 119.047464 
L 277.879973 119.011267 
L 277.879973 119.549219 
L 278.539002 119.549219 
L 278.539002 121.357755 
L 279.198032 121.357755 
L 279.198032 120.892689 
L 279.857062 120.892689 
L 279.857062 124.621879 
L 280.516092 124.621879 
L 280.516092 126.911587 
L 281.175122 126.911587 
L 281.175122 126.032391 
L 281.834151 126.032391 
L 281.834151 130.545125 
L 282.493181 130.545125 
L 282.493181 125.957739 
L 283.152211 125.957739 
L 283.152211 124.960912 
L 283.811241 124.960912 
L 283.811241 124.685057 
L 284.470271 124.685057 
L 284.470271 125.8743 
L 285.129301 125.8743 
L 285.129301 126.306419 
L 285.78833 126.306419 
L 285.78833 127.024614 
L 287.10639 126.983529 
L 287.10639 126.753805 
L 287.76542 126.753805 
L 287.76542 126.441306 
L 288.42445 126.441306 
L 288.42445 124.702165 
L 289.083479 124.702165 
L 289.083479 123.0655 
L 289.742509 123.0655 
L 289.742509 121.06417 
L 290.401539 121.06417 
L 290.401539 119.349585 
L 291.060569 119.349585 
L 291.060569 118.354745 
L 291.719599 118.354745 
L 291.719599 118.758662 
L 292.378629 118.758662 
L 292.378629 120.68833 
L 293.037658 120.68833 
L 293.037658 120.115475 
L 293.696688 120.115475 
L 293.696688 120.709171 
L 294.355718 120.709171 
L 294.355718 121.804715 
L 295.014748 121.804715 
L 295.014748 120.392453 
L 295.673778 120.392453 
L 295.673778 118.870338 
L 296.332808 118.870338 
L 296.332808 119.561258 
L 296.991837 119.561258 
L 296.991837 119.240923 
L 297.650867 119.240923 
L 297.650867 119.570627 
L 298.309897 119.570627 
L 298.309897 119.373109 
L 298.968927 119.373109 
L 298.968927 119.692801 
L 299.627957 119.692801 
L 299.627957 120.613263 
L 300.286986 120.613263 
L 300.286986 121.026818 
L 300.946016 121.026818 
L 300.946016 120.796292 
L 302.264076 120.779264 
L 302.264076 121.499685 
L 302.923106 121.499685 
L 302.923106 123.225547 
L 303.582136 123.225547 
L 303.582136 123.428252 
L 304.241165 123.428252 
L 304.241165 123.867188 
L 305.559225 123.925646 
L 305.559225 125.211502 
L 306.218255 125.211502 
L 306.218255 124.796939 
L 306.877285 124.796939 
L 306.877285 125.34389 
L 307.536314 125.34389 
L 307.536314 125.186964 
L 308.195344 125.186964 
L 308.195344 126.220198 
L 308.854374 126.220198 
L 308.854374 128.800395 
L 309.513404 128.800395 
L 309.513404 128.334966 
L 310.172434 128.334966 
L 310.172434 130.271288 
L 310.831464 130.271288 
L 310.831464 131.124751 
L 311.490493 131.124751 
L 311.490493 132.622709 
L 312.149523 132.622709 
L 312.149523 130.948014 
L 312.808553 130.948014 
L 312.808553 129.131527 
L 313.467583 129.131527 
L 313.467583 129.419134 
L 314.126613 129.419134 
L 314.126613 131.223913 
L 314.785642 131.223913 
L 314.785642 131.595558 
L 315.444672 131.595558 
L 315.444672 132.390804 
L 316.103702 132.390804 
L 316.103702 132.863542 
L 316.762732 132.863542 
L 316.762732 131.832594 
L 317.421762 131.832594 
L 317.421762 127.831912 
L 318.080792 127.831912 
L 318.080792 129.396086 
L 318.739821 129.396086 
L 318.739821 131.26664 
L 319.398851 131.26664 
L 319.398851 130.231663 
L 320.057881 130.231663 
L 320.057881 130.098275 
L 320.716911 130.098275 
L 320.716911 129.952524 
L 321.375941 129.952524 
L 321.375941 130.205474 
L 322.03497 130.205474 
L 322.03497 131.721522 
L 322.694 131.721522 
L 322.694 131.188861 
L 323.35303 131.188861 
L 323.35303 134.03214 
L 324.01206 134.03214 
L 324.01206 132.753156 
L 324.67109 132.753156 
L 324.67109 132.881891 
L 325.33012 132.881891 
L 325.33012 134.116585 
L 325.989149 134.116585 
L 325.989149 135.933353 
L 326.648179 135.933353 
L 326.648179 135.009075 
L 327.307209 135.009075 
L 327.307209 137.093923 
L 327.966239 137.093923 
L 327.966239 142.297051 
L 328.625269 142.297051 
L 328.625269 141.728603 
L 329.284298 141.728603 
L 329.284298 140.083755 
L 329.943328 140.083755 
L 329.943328 137.576515 
L 330.602358 137.576515 
L 330.602358 141.417664 
L 331.261388 141.417664 
L 331.261388 140.718863 
L 331.920418 140.718863 
L 331.920418 140.976549 
L 332.579448 140.976549 
L 332.579448 141.126312 
L 333.238477 141.126312 
L 333.238477 140.013277 
L 333.897507 140.013277 
L 333.897507 139.032061 
L 334.556537 139.032061 
L 334.556537 139.534308 
L 335.215567 139.534308 
L 335.215567 138.386142 
L 335.874597 138.386142 
L 335.874597 137.064515 
L 336.533626 137.064515 
L 336.533626 136.685929 
L 337.192656 136.685929 
L 337.192656 135.226775 
L 337.851686 135.226775 
L 337.851686 135.628633 
L 338.510716 135.628633 
L 338.510716 137.689362 
L 339.169746 137.689362 
L 339.169746 139.098447 
L 339.828776 139.098447 
L 339.828776 138.430679 
L 340.487805 138.430679 
L 340.487805 138.971815 
L 341.146835 138.971815 
L 341.146835 137.815644 
L 341.805865 137.815644 
L 341.805865 139.269639 
L 342.464895 139.269639 
L 342.464895 141.062531 
L 343.782954 141.097211 
L 343.782954 139.893386 
L 344.441984 139.893386 
L 344.441984 140.757591 
L 345.760044 140.81952 
L 345.760044 139.575259 
L 346.419074 139.575259 
L 346.419074 139.777703 
L 347.078104 139.777703 
L 347.078104 139.446579 
L 347.737133 139.446579 
L 347.737133 139.759217 
L 348.396163 139.759217 
L 348.396163 140.291213 
L 349.055193 140.291213 
L 349.055193 139.724931 
L 349.714223 139.724931 
L 349.714223 139.94126 
L 350.373253 139.94126 
L 350.373253 140.569239 
L 351.032282 140.569239 
L 351.032282 141.07471 
L 351.691312 141.07471 
L 351.691312 140.631529 
L 352.350342 140.631529 
L 352.350342 140.454309 
L 353.009372 140.454309 
L 353.009372 138.678179 
L 353.668402 138.678179 
L 353.668402 139.119769 
L 354.327432 139.119769 
L 354.327432 139.511689 
L 354.986461 139.511689 
L 354.986461 138.796315 
L 355.645491 138.796315 
L 355.645491 138.28915 
L 356.304521 138.28915 
L 356.304521 137.183175 
L 356.963551 137.183175 
L 356.963551 135.94581 
L 357.622581 135.94581 
L 357.622581 135.727053 
L 358.28161 135.727053 
L 358.28161 136.554198 
L 359.59967 136.461577 
L 359.59967 135.374606 
L 360.2587 135.374606 
L 360.2587 135.688643 
L 360.91773 135.688643 
L 360.91773 136.226233 
L 361.57676 136.226233 
L 361.57676 136.360391 
L 362.235789 136.360391 
L 362.235789 136.993487 
L 362.894819 136.993487 
L 362.894819 137.742818 
L 363.553849 137.742818 
L 363.553849 140.761283 
L 364.212879 140.761283 
L 364.212879 140.587541 
L 364.871909 140.587541 
L 364.871909 140.866783 
L 365.530938 140.866783 
L 365.530938 140.395267 
L 366.848998 140.351773 
L 366.848998 139.1659 
L 367.508028 139.1659 
L 367.508028 139.992802 
L 368.167058 139.992802 
L 368.167058 140.570154 
L 368.826088 140.570154 
L 368.826088 140.403432 
L 369.485117 140.403432 
L 369.485117 140.057856 
L 370.144147 140.057856 
L 370.144147 139.60406 
L 370.803177 139.60406 
L 370.803177 139.724053 
L 371.462207 139.724053 
L 371.462207 138.945565 
L 372.780266 139.03716 
L 372.780266 138.471174 
L 373.439296 138.471174 
L 373.439296 137.773998 
L 374.098326 137.773998 
L 374.098326 136.735353 
L 374.757356 136.735353 
L 374.757356 135.816467 
L 375.416386 135.816467 
L 375.416386 132.994234 
L 376.075416 132.994234 
L 376.075416 128.626707 
L 376.734445 128.626707 
L 376.734445 129.549321 
L 377.393475 129.549321 
L 377.393475 134.252681 
L 378.052505 134.252681 
L 378.052505 133.588101 
L 378.711535 133.588101 
L 378.711535 133.139203 
L 379.370565 133.139203 
L 379.370565 133.294867 
L 380.029595 133.294867 
L 380.029595 131.17719 
L 380.688624 131.17719 
L 380.688624 130.911693 
L 381.347654 130.911693 
L 381.347654 129.553099 
L 382.006684 129.553099 
L 382.006684 128.016633 
L 382.665714 128.016633 
L 382.665714 127.185909 
L 383.324744 127.185909 
L 383.324744 126.097245 
L 383.983773 126.097245 
L 383.983773 126.948242 
L 384.642803 126.948242 
L 384.642803 126.146706 
L 385.301833 126.146706 
L 385.301833 127.193621 
L 386.619893 127.216292 
L 386.619893 127.385891 
L 387.278923 127.385891 
L 387.278923 126.473417 
L 387.937952 126.473417 
L 387.937952 127.371786 
L 388.596982 127.371786 
L 388.596982 129.63205 
L 389.256012 129.63205 
L 389.256012 129.849349 
L 389.915042 129.849349 
L 389.915042 129.300416 
L 390.574072 129.300416 
L 390.574072 130.119338 
L 391.233101 130.119338 
L 391.233101 130.575711 
L 391.892131 130.575711 
L 391.892131 130.208259 
L 392.551161 130.208259 
L 392.551161 130.040736 
L 393.210191 130.040736 
L 393.210191 128.901643 
L 393.869221 128.901643 
L 393.869221 127.842353 
L 395.18728 127.878687 
L 395.18728 127.272833 
L 395.84631 127.272833 
L 395.84631 127.71741 
L 396.50534 127.71741 
L 396.50534 128.565354 
L 397.16437 128.565354 
L 397.16437 128.041219 
L 398.482429 128.091988 
L 398.482429 128.448819 
L 399.141459 128.448819 
L 399.141459 128.021648 
L 400.459519 127.993078 
L 400.459519 128.154991 
L 401.118549 128.154991 
L 401.118549 127.915583 
L 402.436608 127.843845 
L 402.436608 127.710984 
L 403.095638 127.710984 
L 403.095638 127.376648 
L 403.754668 127.376648 
L 403.754668 127.062905 
L 404.413698 127.062905 
L 404.413698 126.311502 
L 405.072728 126.311502 
L 405.072728 126.620175 
L 405.731757 126.620175 
L 405.731757 126.26165 
L 406.390787 126.26165 
L 406.390787 126.429683 
L 407.049817 126.429683 
L 407.049817 125.911444 
L 407.708847 125.911444 
L 407.708847 126.132039 
L 408.367877 126.132039 
L 408.367877 126.257962 
L 409.026907 126.257962 
L 409.026907 126.717961 
L 409.685936 126.717961 
L 409.685936 126.460846 
L 410.344966 126.460846 
L 410.344966 123.733188 
L 411.003996 123.733188 
L 411.003996 122.670084 
L 411.663026 122.670084 
L 411.663026 120.966622 
L 412.322056 120.966622 
L 412.322056 121.174097 
L 412.981085 121.174097 
L 412.981085 117.61924 
L 413.640115 117.61924 
L 413.640115 115.677182 
L 414.299145 115.677182 
L 414.299145 120.643892 
L 414.958175 120.643892 
L 414.958175 119.366811 
L 415.617205 119.366811 
L 415.617205 118.151456 
L 416.276235 118.151456 
L 416.276235 117.717314 
L 416.935264 117.717314 
L 416.935264 118.306808 
L 418.912354 118.359797 
L 418.912354 118.165532 
L 419.571384 118.165532 
L 419.571384 118.354745 
L 420.230413 118.354745 
L 420.230413 118.543139 
L 420.889443 118.543139 
L 420.889443 120.199459 
L 421.548473 120.199459 
L 421.548473 121.363953 
L 422.207503 121.363953 
L 422.207503 120.921588 
L 423.525563 120.980223 
L 423.525563 121.429697 
L 424.184592 121.429697 
L 424.184592 121.19977 
L 425.502652 121.25375 
L 425.502652 121.40849 
L 426.820712 121.390226 
L 426.820712 120.109979 
L 427.479741 120.109979 
L 427.479741 119.651773 
L 428.138771 119.651773 
L 428.138771 120.081495 
L 429.456831 120.13919 
L 429.456831 120.599196 
L 430.115861 120.599196 
L 430.115861 120.157081 
L 432.09295 120.143661 
L 432.09295 119.894739 
L 432.75198 119.894739 
L 432.75198 119.202745 
L 433.41101 119.202745 
L 433.41101 119.07784 
L 434.07004 119.07784 
L 434.07004 119.409939 
L 434.729069 119.409939 
L 434.729069 118.916344 
L 435.388099 118.916344 
L 435.388099 117.597305 
L 436.047129 117.597305 
L 436.047129 116.393693 
L 436.706159 116.393693 
L 436.706159 117.069054 
L 437.365189 117.069054 
L 437.365189 116.540804 
L 438.024219 116.540804 
L 438.024219 117.161291 
L 438.683248 117.161291 
L 438.683248 116.101411 
L 440.660338 116.094893 
L 440.660338 116.29562 
L 441.319368 116.29562 
L 441.319368 115.373603 
L 442.637427 115.277741 
L 442.637427 115.231199 
L 443.296457 115.231199 
L 443.296457 115.023165 
L 443.955487 115.023165 
L 443.955487 114.619285 
L 444.614517 114.619285 
L 444.614517 111.603074 
L 445.273547 111.603074 
L 445.273547 111.231397 
L 445.932576 111.231397 
L 445.932576 110.470919 
L 446.591606 110.470919 
L 446.591606 107.559596 
L 447.250636 107.559596 
L 447.250636 111.681834 
L 447.909666 111.681834 
L 447.909666 114.240173 
L 448.568696 114.240173 
L 448.568696 113.60083 
L 449.227725 113.60083 
L 449.227725 112.025279 
L 449.886755 112.025279 
L 449.886755 112.308178 
L 450.545785 112.308178 
L 450.545785 111.496172 
L 451.204815 111.496172 
L 451.204815 110.072553 
L 451.863845 110.072553 
L 451.863845 109.493236 
L 452.522875 109.493236 
L 452.522875 110.031817 
L 453.181904 110.031817 
L 453.181904 109.698325 
L 453.840934 109.698325 
L 453.840934 108.614069 
L 454.499964 108.614069 
L 454.499964 107.263442 
L 455.158994 107.263442 
L 455.158994 106.797688 
L 455.818024 106.797688 
L 455.818024 105.485239 
L 456.477053 105.485239 
L 456.477053 104.714344 
L 457.136083 104.714344 
L 457.136083 106.053662 
L 457.795113 106.053662 
L 457.795113 105.218589 
L 458.454143 105.218589 
L 458.454143 108.343512 
L 459.113173 108.343512 
L 459.113173 107.487415 
L 459.772203 107.487415 
L 459.772203 110.536611 
L 460.431232 110.536611 
L 460.431232 108.908857 
L 461.090262 108.908857 
L 461.090262 108.116214 
L 461.749292 108.116214 
L 461.749292 106.024949 
L 462.408322 106.024949 
L 462.408322 105.742387 
L 463.067352 105.742387 
L 463.067352 106.437881 
L 463.726381 106.437881 
L 463.726381 105.894662 
L 464.385411 105.894662 
L 464.385411 105.344883 
L 465.044441 105.344883 
L 465.044441 104.437182 
L 465.703471 104.437182 
L 465.703471 103.381479 
L 466.362501 103.381479 
L 466.362501 100.743079 
L 467.021531 100.743079 
L 467.021531 99.250625 
L 467.68056 99.250625 
L 467.68056 98.728713 
L 468.33959 98.728713 
L 468.33959 98.530902 
L 468.99862 98.530902 
L 468.99862 95.154695 
L 469.65765 95.154695 
L 469.65765 91.252792 
L 470.31668 91.252792 
L 470.31668 93.472076 
L 470.97571 93.472076 
L 470.97571 91.352735 
L 471.634739 91.352735 
L 471.634739 88.985847 
L 472.293769 88.985847 
L 472.293769 88.032807 
L 472.952799 88.032807 
L 472.952799 88.932679 
L 473.611829 88.932679 
L 473.611829 89.529558 
L 474.270859 89.529558 
L 474.270859 89.301053 
L 474.929888 89.301053 
L 474.929888 90.569439 
L 475.588918 90.569439 
L 475.588918 90.24098 
L 476.906978 90.173381 
L 476.906978 90.562512 
L 477.566008 90.562512 
L 477.566008 92.228823 
L 478.225038 92.228823 
L 478.225038 95.538194 
L 478.884067 95.538194 
L 478.884067 92.646165 
L 479.543097 92.646165 
L 479.543097 88.608271 
L 480.202127 88.608271 
L 480.202127 89.318028 
L 480.861157 89.318028 
L 480.861157 87.75551 
L 482.179216 87.802105 
L 482.179216 84.11081 
L 482.838246 84.11081 
L 482.838246 81.468272 
L 483.497276 81.468272 
L 483.497276 78.894844 
L 484.156306 78.894844 
L 484.156306 80.487081 
L 484.815336 80.487081 
L 484.815336 79.10606 
L 485.474366 79.10606 
L 485.474366 78.89074 
L 486.133395 78.89074 
L 486.133395 76.495947 
L 486.792425 76.495947 
L 486.792425 78.850884 
L 487.451455 78.850884 
L 487.451455 79.110399 
L 488.110485 79.110399 
L 488.110485 81.486096 
L 488.769515 81.486096 
L 488.769515 82.520029 
L 489.428544 82.520029 
L 489.428544 82.965384 
L 490.087574 82.965384 
L 490.087574 81.128446 
L 490.746604 81.128446 
L 490.746604 79.929675 
L 491.405634 79.929675 
L 491.405634 79.21938 
L 492.064664 79.21938 
L 492.064664 78.59319 
L 492.723694 78.59319 
L 492.723694 76.86616 
L 493.382723 76.86616 
L 493.382723 73.403733 
L 494.700783 73.383671 
L 494.700783 72.650921 
L 495.359813 72.650921 
L 495.359813 73.118737 
L 496.018843 73.118737 
L 496.018843 70.901707 
L 496.677872 70.901707 
L 496.677872 68.018126 
L 497.336902 68.018126 
L 497.336902 67.729645 
L 497.995932 67.729645 
L 497.995932 72.688154 
L 498.654962 72.688154 
L 498.654962 66.639107 
L 499.313992 66.639107 
L 499.313992 65.669205 
L 500.632051 65.745432 
L 500.632051 61.803115 
L 501.291081 61.803115 
L 501.291081 59.808766 
L 501.950111 59.808766 
L 501.950111 54.840075 
L 502.609141 54.840075 
L 502.609141 53.069224 
L 503.268171 53.069224 
L 503.268171 51.291013 
L 503.9272 51.291013 
L 503.9272 48.325151 
L 504.58623 48.325151 
L 504.58623 54.941883 
L 505.24526 54.941883 
L 505.24526 52.241718 
L 505.90429 52.241718 
L 505.90429 56.785649 
L 506.56332 56.785649 
L 506.56332 53.110442 
L 507.22235 53.110442 
L 507.22235 51.566797 
L 507.881379 51.566797 
L 507.881379 55.699919 
L 508.540409 55.699919 
L 508.540409 55.281899 
L 509.199439 55.281899 
L 509.199439 58.70247 
L 509.858469 58.70247 
L 509.858469 59.965096 
L 510.517499 59.965096 
L 510.517499 58.839302 
L 511.176528 58.839302 
L 511.176528 61.211484 
L 511.835558 61.211484 
L 511.835558 65.772711 
L 513.153618 65.663454 
L 513.153618 64.077142 
L 513.812648 64.077142 
L 513.812648 61.263619 
L 514.471678 61.263619 
L 514.471678 59.180789 
L 515.130707 59.180789 
L 515.130707 62.269921 
L 515.789737 62.269921 
L 515.789737 60.950843 
L 516.448767 60.950843 
L 516.448767 58.683747 
L 517.107797 58.683747 
L 517.107797 63.093966 
L 517.766827 63.093966 
L 517.766827 63.534221 
L 518.425856 63.534221 
L 518.425856 65.53011 
L 519.084886 65.53011 
L 519.084886 64.04376 
L 519.743916 64.04376 
L 519.743916 64.944721 
L 520.402946 64.944721 
L 520.402946 66.42301 
L 521.061976 66.42301 
L 521.061976 69.603507 
L 521.721006 69.603507 
L 521.721006 69.728934 
L 523.039065 69.735859 
L 523.039065 66.568942 
L 524.357125 66.537381 
L 524.357125 63.995412 
L 525.016155 63.995412 
L 525.016155 64.137285 
L 525.675184 64.137285 
L 525.675184 62.929096 
L 526.334214 62.929096 
L 526.334214 62.15485 
L 526.993244 62.15485 
L 526.993244 62.994174 
L 527.652274 62.994174 
L 527.652274 65.282557 
L 528.311304 65.282557 
L 528.311304 65.098737 
L 528.970334 65.098737 
L 528.970334 65.67108 
L 529.629363 65.67108 
L 529.629363 67.608435 
L 530.288393 67.608435 
L 530.288393 68.078977 
L 530.947423 68.078977 
L 530.947423 67.670388 
L 532.265483 67.654193 
L 532.265483 67.322283 
L 532.924512 67.322283 
L 532.924512 70.460669 
L 533.583542 70.460669 
L 533.583542 70.666678 
L 534.242572 70.666678 
L 534.242572 69.808575 
L 534.901602 69.808575 
L 534.901602 71.762382 
L 535.560632 71.762382 
L 535.560632 72.730535 
L 536.219662 72.730535 
L 536.219662 70.227908 
L 537.537721 70.221133 
L 537.537721 71.186183 
L 538.196751 71.186183 
L 538.196751 71.453286 
L 538.855781 71.453286 
L 538.855781 68.003614 
L 540.17384 67.903129 
L 540.17384 66.451399 
L 540.83287 66.451399 
L 540.83287 65.850699 
L 541.4919 65.850699 
L 541.4919 67.880273 
L 542.15093 67.880273 
L 542.15093 69.940589 
L 542.80996 69.940589 
L 542.80996 71.523558 
L 543.46899 71.523558 
L 543.46899 71.380452 
L 544.128019 71.380452 
L 544.128019 70.673439 
L 544.787049 70.673439 
L 544.787049 70.547028 
L 545.446079 70.547028 
L 545.446079 69.379208 
L 546.105109 69.379208 
L 546.105109 69.026552 
L 546.764139 69.026552 
L 546.764139 68.037416 
L 547.423168 68.037416 
L 547.423168 71.670928 
L 548.082198 71.670928 
L 548.082198 71.196844 
L 548.741228 71.196844 
L 548.741228 70.638726 
L 550.059288 70.643066 
L 550.059288 70.363846 
L 550.718318 70.363846 
L 550.718318 70.220913 
L 551.377347 70.220913 
L 551.377347 70.561915 
L 552.036377 70.561915 
L 552.036377 70.395054 
L 553.354437 70.371398 
L 553.354437 71.398812 
L 554.013467 71.398812 
L 554.013467 70.599419 
L 555.331526 70.649916 
L 555.331526 70.719887 
L 555.990556 70.719887 
L 555.990556 71.277655 
L 556.649586 71.277655 
L 556.649586 71.080757 
L 557.308616 71.080757 
L 557.308616 70.512269 
L 557.967646 70.512269 
L 557.967646 70.926266 
L 558.626675 70.926266 
L 558.626675 73.525029 
L 559.285705 73.525029 
L 559.285705 76.751226 
L 559.944735 76.751226 
L 559.944735 79.004047 
L 560.603765 79.004047 
L 560.603765 81.685729 
L 561.262795 81.685729 
L 561.262795 79.81055 
L 561.921825 79.81055 
L 561.921825 82.146119 
L 562.580854 82.146119 
L 562.580854 83.037893 
L 563.239884 83.037893 
L 563.239884 84.736712 
L 563.898914 84.736712 
L 563.898914 83.224386 
L 564.557944 83.224386 
L 564.557944 81.299917 
L 565.216974 81.299917 
L 565.216974 81.723569 
L 565.876003 81.723569 
L 565.876003 82.005055 
L 566.535033 82.005055 
L 566.535033 81.132005 
L 567.194063 81.132005 
L 567.194063 80.398825 
L 567.853093 80.398825 
L 567.853093 82.704111 
L 568.512123 82.704111 
L 568.512123 82.497615 
L 569.171153 82.497615 
L 569.171153 82.82198 
L 569.830182 82.82198 
L 569.830182 83.044238 
L 571.148242 83.10867 
L 571.148242 83.738865 
L 572.466302 83.823178 
L 572.466302 84.196702 
L 573.125331 84.196702 
L 573.125331 82.800447 
L 573.784361 82.800447 
L 573.784361 82.923202 
L 574.443391 82.923202 
L 574.443391 81.157414 
L 575.102421 81.157414 
L 575.102421 80.053772 
L 575.761451 80.053772 
L 575.761451 81.659669 
L 577.07951 81.761531 
L 577.07951 81.369708 
L 578.39757 81.40052 
L 578.39757 81.104451 
L 579.0566 81.104451 
L 579.0566 80.618795 
L 581.033689 80.518475 
L 581.033689 80.182519 
L 581.692719 80.182519 
L 581.692719 76.483909 
L 582.351749 76.483909 
L 582.351749 75.016529 
L 583.010779 75.016529 
L 583.010779 75.80772 
L 583.669809 75.80772 
L 583.669809 75.304147 
L 584.328838 75.304147 
L 584.328838 74.856324 
L 584.987868 74.856324 
L 584.987868 74.370653 
L 585.646898 74.370653 
L 585.646898 74.887779 
L 586.305928 74.887779 
L 586.305928 74.540563 
L 586.964958 74.540563 
L 586.964958 73.430243 
L 587.623987 73.430243 
L 587.623987 71.124404 
L 588.283017 71.124404 
L 588.283017 66.312762 
L 588.942047 66.312762 
L 588.942047 68.306307 
L 589.601077 68.306307 
L 589.601077 67.293808 
L 590.260107 67.293808 
L 590.260107 64.435418 
L 590.919137 64.435418 
L 590.919137 65.594214 
L 591.578166 65.594214 
L 591.578166 65.944377 
L 592.237196 65.944377 
L 592.237196 66.298134 
L 592.896226 66.298134 
L 592.896226 66.509956 
L 593.555256 66.509956 
L 593.555256 64.162423 
L 594.214286 64.162423 
L 594.214286 63.190052 
L 594.873315 63.190052 
L 594.873315 59.99792 
L 595.532345 59.99792 
L 595.532345 59.39195 
L 596.191375 59.39195 
L 596.191375 60.458264 
L 596.850405 60.458264 
L 596.850405 59.727987 
L 597.509435 59.727987 
L 597.509435 56.828349 
L 598.168465 56.828349 
L 598.168465 58.916673 
L 598.827494 58.916673 
L 598.827494 62.324856 
L 599.486524 62.324856 
L 599.486524 60.441115 
L 600.145554 60.441115 
L 600.145554 61.895607 
L 600.804584 61.895607 
L 600.804584 62.701606 
L 601.463614 62.701606 
L 601.463614 60.555565 
L 602.122643 60.555565 
L 602.122643 58.77673 
L 602.781673 58.77673 
L 602.781673 59.113595 
L 603.440703 59.113595 
L 603.440703 61.597864 
L 604.099733 61.597864 
L 604.099733 60.980255 
L 604.758763 60.980255 
L 604.758763 61.400682 
L 605.417793 61.400682 
L 605.417793 60.894039 
L 606.076822 60.894039 
L 606.076822 62.533773 
L 606.735852 62.533773 
L 606.735852 60.374388 
L 607.394882 60.374388 
L 607.394882 60.639716 
L 608.053912 60.639716 
L 608.053912 61.303134 
L 608.712942 61.303134 
L 608.712942 60.994774 
L 610.031001 61.064877 
L 610.031001 62.30522 
L 610.690031 62.30522 
L 610.690031 65.7935 
L 611.349061 65.7935 
L 611.349061 65.467206 
L 612.008091 65.467206 
L 612.008091 65.911617 
L 612.667121 65.911617 
L 612.667121 64.81259 
L 613.32615 64.81259 
L 613.32615 65.565704 
L 613.98518 65.565704 
L 613.98518 66.094179 
L 614.64421 66.094179 
L 614.64421 65.720678 
L 615.30324 65.720678 
L 615.30324 64.621659 
L 615.96227 64.621659 
L 615.96227 62.851573 
L 616.621299 62.851573 
L 616.621299 63.146265 
L 617.939359 63.051811 
L 617.939359 63.747776 
L 618.598389 63.747776 
L 618.598389 64.70489 
L 619.257419 64.70489 
L 619.257419 65.8392 
L 619.916449 65.8392 
L 619.916449 68.245164 
L 620.575478 68.245164 
L 620.575478 68.59992 
L 621.234508 68.59992 
L 621.234508 67.481456 
L 621.893538 67.481456 
L 621.893538 68.514903 
L 622.552568 68.514903 
L 622.552568 67.579317 
L 623.211598 67.579317 
L 623.211598 68.52562 
L 623.870627 68.52562 
L 623.870627 69.445043 
L 624.529657 69.445043 
L 624.529657 68.522686 
L 625.188687 68.522686 
L 625.188687 68.34763 
L 625.847717 68.34763 
L 625.847717 68.203014 
L 626.506747 68.203014 
L 626.506747 68.564818 
L 627.165777 68.564818 
L 627.165777 68.059052 
L 627.824806 68.059052 
L 627.824806 66.774511 
L 628.483836 66.774511 
L 628.483836 66.020715 
L 629.142866 66.020715 
L 629.142866 64.066298 
L 629.801896 64.066298 
L 629.801896 64.488413 
L 630.460926 64.488413 
L 630.460926 65.456067 
L 631.119955 65.456067 
L 631.119955 63.194305 
L 632.438015 63.116242 
L 632.438015 62.149904 
L 633.097045 62.149904 
L 633.097045 61.938754 
L 633.756075 61.938754 
L 633.756075 60.877414 
L 634.415105 60.877414 
L 634.415105 61.259331 
L 635.074134 61.259331 
L 635.074134 62.334897 
L 635.733164 62.334897 
L 635.733164 64.337485 
L 636.392194 64.337485 
L 636.392194 64.943717 
L 637.051224 64.943717 
L 637.051224 63.677937 
L 637.710254 63.677937 
L 637.710254 66.472111 
L 638.369284 66.472111 
L 638.369284 73.709272 
L 639.028313 73.709272 
L 639.028313 74.667067 
L 639.687343 74.667067 
L 639.687343 71.651383 
L 640.346373 71.651383 
L 640.346373 70.00214 
L 641.005403 70.00214 
L 641.005403 72.70472 
L 641.664433 72.70472 
L 641.664433 69.65996 
L 642.323462 69.65996 
L 642.323462 68.082845 
L 642.982492 68.082845 
L 642.982492 69.464178 
L 644.300552 69.468098 
L 644.300552 68.322671 
L 644.959582 68.322671 
L 644.959582 68.695298 
L 645.618612 68.695298 
L 645.618612 67.09391 
L 646.277641 67.09391 
L 646.277641 64.713481 
L 646.936671 64.713481 
L 646.936671 64.10014 
L 647.595701 64.10014 
L 647.595701 62.008787 
L 648.254731 62.008787 
L 648.254731 64.268634 
L 648.913761 64.268634 
L 648.913761 62.957337 
L 649.57279 62.957337 
L 649.57279 62.681086 
L 650.23182 62.681086 
L 650.23182 64.468141 
L 650.89085 64.468141 
L 650.89085 62.552927 
L 651.54988 62.552927 
L 651.54988 61.211013 
L 652.20891 61.211013 
L 652.20891 62.434229 
L 652.86794 62.434229 
L 652.86794 62.108221 
L 653.526969 62.108221 
L 653.526969 62.76287 
L 654.845029 62.804115 
L 654.845029 63.183122 
L 656.163089 63.282173 
L 656.163089 63.407987 
L 656.822118 63.407987 
L 656.822118 63.666354 
L 657.481148 63.666354 
L 657.481148 63.247442 
L 658.799208 63.293228 
L 658.799208 63.389442 
L 660.117268 63.34145 
L 660.117268 62.457332 
L 660.776297 62.457332 
L 660.776297 59.562328 
L 661.435327 59.562328 
L 661.435327 58.999763 
L 662.094357 58.999763 
L 662.094357 59.27708 
L 662.753387 59.27708 
L 662.753387 58.233866 
L 663.412417 58.233866 
L 663.412417 58.581934 
L 664.071446 58.581934 
L 664.071446 57.975619 
L 665.389506 58.060268 
L 665.389506 58.240381 
L 666.048536 58.240381 
L 666.048536 58.651275 
L 666.707566 58.651275 
L 666.707566 57.959428 
L 667.366596 57.959428 
L 667.366596 61.302518 
L 668.025625 61.302518 
L 668.025625 61.162766 
L 668.684655 61.162766 
L 668.684655 60.953613 
L 669.343685 60.953613 
L 669.343685 59.749483 
L 670.002715 59.749483 
L 670.002715 60.75304 
L 670.661745 60.75304 
L 670.661745 60.234167 
L 671.320774 60.234167 
L 671.320774 59.947152 
L 671.979804 59.947152 
L 671.979804 60.511538 
L 672.638834 60.511538 
L 672.638834 60.27726 
L 673.297864 60.27726 
L 673.297864 58.93959 
L 673.956894 58.93959 
L 673.956894 58.707516 
L 674.615924 58.707516 
L 674.615924 58.250627 
L 675.274953 58.250627 
L 675.274953 56.243029 
L 675.933983 56.243029 
L 675.933983 55.132462 
L 676.593013 55.132462 
L 676.593013 54.890841 
L 677.252043 54.890841 
L 677.252043 54.375112 
L 677.911073 54.375112 
L 677.911073 52.492852 
L 678.570102 52.492852 
L 678.570102 51.434806 
L 679.229132 51.434806 
L 679.229132 50.891365 
L 679.888162 50.891365 
L 679.888162 48.574382 
L 680.547192 48.574382 
L 680.547192 48.03918 
L 681.206222 48.03918 
L 681.206222 49.669973 
L 681.865252 49.669973 
L 681.865252 47.97995 
L 682.524281 47.97995 
L 682.524281 47.816901 
L 683.183311 47.816901 
L 683.183311 49.071657 
L 683.842341 49.071657 
L 683.842341 47.926119 
L 684.501371 47.926119 
L 684.501371 44.101243 
L 685.160401 44.101243 
L 685.160401 43.501708 
L 685.81943 43.501708 
L 685.81943 41.324118 
L 686.47846 41.324118 
L 686.47846 39.500019 
L 687.13749 39.500019 
L 687.13749 36.697366 
L 687.79652 36.697366 
L 687.79652 32.950214 
L 688.45555 32.950214 
L 688.45555 35.146288 
L 689.11458 35.146288 
L 689.11458 34.405388 
L 689.773609 34.405388 
L 689.773609 34.868928 
L 690.432639 34.868928 
L 690.432639 37.275539 
L 691.091669 37.275539 
L 691.091669 38.398643 
L 691.750699 38.398643 
L 691.750699 36.611674 
L 692.409729 36.611674 
L 692.409729 34.307189 
L 693.068758 34.307189 
L 693.068758 29.596403 
L 693.727788 29.596403 
L 693.727788 29.10356 
L 694.386818 29.10356 
L 694.386818 28.373517 
L 695.045848 28.373517 
L 695.045848 25.652358 
L 695.704878 25.652358 
L 695.704878 27.760325 
L 696.363908 27.760325 
L 696.363908 30.167384 
L 697.022937 30.167384 
L 697.022937 28.677867 
L 697.681967 28.677867 
L 697.681967 27.080693 
L 698.340997 27.080693 
L 698.340997 25.190547 
L 699.000027 25.190547 
L 699.000027 25.329959 
L 699.659057 25.329959 
L 699.659057 24.889041 
L 700.318086 24.889041 
L 700.318086 26.997437 
L 700.977116 26.997437 
L 700.977116 25.733628 
L 701.636146 25.733628 
L 701.636146 24.656228 
L 702.295176 24.656228 
L 702.295176 24.54375 
L 702.954206 24.54375 
L 702.954206 24.883009 
L 703.613236 24.883009 
L 703.613236 23.009876 
L 704.272265 23.009876 
L 704.272265 24.181578 
L 704.931295 24.181578 
L 704.931295 26.486435 
L 705.590325 26.486435 
L 705.590325 28.409456 
L 706.249355 28.409456 
L 706.249355 26.573813 
L 706.908385 26.573813 
L 706.908385 25.205125 
L 708.226444 25.144274 
L 708.226444 25.374949 
L 708.885474 25.374949 
L 708.885474 29.429376 
L 709.544504 29.429376 
L 709.544504 34.328546 
L 710.203534 34.328546 
L 710.203534 35.615947 
L 710.862564 35.615947 
L 710.862564 33.508081 
L 711.521593 33.508081 
L 711.521593 34.13381 
L 712.180623 34.13381 
L 712.180623 34.373094 
L 712.839653 34.373094 
L 712.839653 36.414866 
L 713.498683 36.414866 
L 713.498683 35.17571 
L 714.157713 35.17571 
L 714.157713 33.573601 
L 714.816742 33.573601 
L 714.816742 35.118449 
L 715.475772 35.118449 
L 715.475772 35.685266 
L 716.793832 35.79572 
L 716.793832 36.162485 
L 717.452862 36.162485 
L 717.452862 35.945155 
L 718.111892 35.945155 
L 718.111892 36.374085 
L 718.770921 36.374085 
L 718.770921 36.815521 
L 719.429951 36.815521 
L 719.429951 37.482323 
L 720.088981 37.482323 
L 720.088981 37.147011 
L 720.748011 37.147011 
L 720.748011 34.129556 
L 721.407041 34.129556 
L 721.407041 31.554905 
L 722.06607 31.554905 
L 722.06607 33.675686 
L 722.7251 33.675686 
L 722.7251 30.39069 
L 723.38413 30.39069 
L 723.38413 29.938311 
L 724.04316 29.938311 
L 724.04316 29.286939 
L 724.70219 29.286939 
L 724.70219 29.430238 
L 725.36122 29.430238 
L 725.36122 28.219698 
L 726.020249 28.219698 
L 726.020249 28.417424 
L 726.679279 28.417424 
L 726.679279 29.242842 
L 727.338309 29.242842 
L 727.338309 28.041698 
L 727.997339 28.041698 
L 727.997339 29.725598 
L 729.315399 29.734329 
L 729.315399 28.96593 
L 729.974428 28.96593 
L 729.974428 31.217551 
L 731.292488 31.259459 
L 731.292488 32.158724 
L 731.951518 32.158724 
L 731.951518 28.991365 
L 732.610548 28.991365 
L 732.610548 25.898997 
L 733.269577 25.898997 
L 733.269577 26.171732 
L 733.928607 26.171732 
L 733.928607 25.137916 
L 734.587637 25.137916 
L 734.587637 23.536619 
L 735.246667 23.536619 
L 735.246667 23.970631 
L 735.905697 23.970631 
L 735.905697 24.092066 
L 736.564727 24.092066 
L 736.564727 23.617761 
L 737.223756 23.617761 
L 737.223756 23.207845 
L 737.882786 23.207845 
L 737.882786 23.095895 
L 738.541816 23.095895 
L 738.541816 22.592014 
L 739.200846 22.592014 
L 739.200846 23.000082 
L 739.859876 23.000082 
L 739.859876 24.87207 
L 740.518905 24.87207 
L 740.518905 25.072348 
L 741.177935 25.072348 
L 741.177935 26.104774 
L 741.836965 26.104774 
L 741.836965 25.199129 
L 742.495995 25.199129 
L 742.495995 28.280121 
L 743.155025 28.280121 
L 743.155025 29.020889 
L 743.814055 29.020889 
L 743.814055 29.420212 
L 744.473084 29.420212 
L 744.473084 29.682524 
L 745.132114 29.682524 
L 745.132114 28.469552 
L 745.791144 28.469552 
L 745.791144 27.823934 
L 746.450174 27.823934 
L 746.450174 29.576336 
L 747.109204 29.576336 
L 747.109204 29.166802 
L 747.768233 29.166802 
L 747.768233 31.111175 
L 748.427263 31.111175 
L 748.427263 31.736347 
L 749.086293 31.736347 
L 749.086293 31.121475 
L 749.745323 31.121475 
L 749.745323 31.472283 
L 750.404353 31.472283 
L 750.404353 35.426379 
L 751.063383 35.426379 
L 751.063383 34.408235 
L 751.722412 34.408235 
L 751.722412 33.79617 
L 752.381442 33.79617 
L 752.381442 34.256277 
L 753.040472 34.256277 
L 753.040472 30.768475 
L 753.699502 30.768475 
L 753.699502 31.462533 
L 754.358532 31.462533 
L 754.358532 30.436564 
L 755.017561 30.436564 
L 755.017561 32.620135 
L 755.676591 32.620135 
L 755.676591 34.144482 
L 756.335621 34.144482 
L 756.335621 33.914407 
L 756.994651 33.914407 
L 756.994651 31.43146 
L 757.653681 31.43146 
L 757.653681 33.73354 
L 758.312711 33.73354 
L 758.312711 33.34803 
L 758.97174 33.34803 
L 758.97174 33.037787 
L 759.63077 33.037787 
L 759.63077 31.550863 
L 760.2898 31.550863 
L 760.2898 31.215847 
L 760.94883 31.215847 
L 760.94883 29.374951 
L 761.60786 29.374951 
L 761.60786 29.971416 
L 762.266889 29.971416 
L 762.266889 29.485453 
L 762.925919 29.485453 
L 762.925919 31.522875 
L 763.584949 31.522875 
L 763.584949 32.626826 
L 764.243979 32.626826 
L 764.243979 32.478106 
L 764.903009 32.478106 
L 764.903009 31.973854 
L 765.562039 31.973854 
L 765.562039 32.961044 
L 766.221068 32.961044 
L 766.221068 32.800536 
L 766.880098 32.800536 
L 766.880098 33.472604 
L 767.539128 33.472604 
L 767.539128 34.873045 
L 768.198158 34.873045 
L 768.198158 38.000967 
L 768.857188 38.000967 
L 768.857188 38.636562 
L 769.516217 38.636562 
L 769.516217 39.627515 
L 770.175247 39.627515 
L 770.175247 38.495145 
L 770.834277 38.495145 
L 770.834277 39.257289 
L 771.493307 39.257289 
L 771.493307 37.526995 
L 772.152337 37.526995 
L 772.152337 38.911173 
L 772.811367 38.911173 
L 772.811367 37.924381 
L 773.470396 37.924381 
L 773.470396 39.873978 
L 774.129426 39.873978 
L 774.129426 44.649665 
L 774.788456 44.649665 
L 774.788456 46.599878 
L 775.447486 46.599878 
L 775.447486 46.050059 
L 776.106516 46.050059 
L 776.106516 46.435955 
L 776.765545 46.435955 
L 776.765545 47.980243 
L 777.424575 47.980243 
L 777.424575 46.967585 
L 778.083605 46.967585 
L 778.083605 45.566167 
L 778.742635 45.566167 
L 778.742635 46.924393 
L 779.401665 46.924393 
L 779.401665 46.363444 
L 780.060695 46.363444 
L 780.060695 44.098266 
L 780.719724 44.098266 
L 780.719724 45.840736 
L 781.378754 45.840736 
L 781.378754 43.530647 
L 782.037784 43.530647 
L 782.037784 44.254282 
L 783.355844 44.285731 
L 783.355844 43.38376 
L 784.014873 43.38376 
L 784.014873 43.076611 
L 784.673903 43.076611 
L 784.673903 44.062307 
L 785.332933 44.062307 
L 785.332933 45.740759 
L 785.991963 45.740759 
L 785.991963 46.914451 
L 786.650993 46.914451 
L 786.650993 47.373956 
L 787.969052 47.329769 
L 787.969052 47.922339 
L 788.628082 47.922339 
L 788.628082 45.362094 
L 789.287112 45.362094 
L 789.287112 47.477971 
L 789.946142 47.477971 
L 789.946142 47.640308 
L 790.605172 47.640308 
L 790.605172 47.921797 
L 791.264201 47.921797 
L 791.264201 48.112982 
L 791.923231 48.112982 
L 791.923231 47.884881 
L 792.582261 47.884881 
L 792.582261 46.982202 
L 793.241291 46.982202 
L 793.241291 47.747799 
L 794.559351 47.810791 
L 794.559351 47.633074 
L 795.21838 47.633074 
L 795.21838 48.040465 
L 795.87741 48.040465 
L 795.87741 47.051202 
L 796.53644 47.051202 
L 796.53644 46.321333 
L 797.19547 46.321333 
L 797.19547 46.996498 
L 797.8545 46.996498 
L 797.8545 46.217078 
L 798.513529 46.217078 
L 798.513529 49.885667 
L 799.172559 49.885667 
L 799.172559 51.063386 
L 799.831589 51.063386 
L 799.831589 50.94379 
L 800.490619 50.94379 
L 800.490619 51.564424 
L 801.149649 51.564424 
L 801.149649 51.233407 
L 801.808679 51.233407 
L 801.808679 50.342371 
L 804.444798 50.298325 
L 804.444798 51.000979 
L 805.103828 51.000979 
L 805.103828 50.668424 
L 806.421887 50.750795 
L 806.421887 51.124767 
L 807.739947 51.03099 
L 807.739947 50.7653 
L 808.398977 50.7653 
L 808.398977 50.316296 
L 809.058007 50.316296 
L 809.058007 47.226394 
L 809.717036 47.226394 
L 809.717036 45.993802 
L 810.376066 45.993802 
L 810.376066 44.445333 
L 811.035096 44.445333 
L 811.035096 44.156391 
L 811.694126 44.156391 
L 811.694126 43.562405 
L 812.353156 43.562405 
L 812.353156 43.829116 
L 813.012186 43.829116 
L 813.012186 44.453368 
L 813.671215 44.453368 
L 813.671215 45.512094 
L 814.330245 45.512094 
L 814.330245 44.966002 
L 814.989275 44.966002 
L 814.989275 42.797564 
L 815.648305 42.797564 
L 815.648305 43.187901 
L 816.307335 43.187901 
L 816.307335 43.732546 
L 817.625394 43.817587 
L 817.625394 44.779888 
L 818.284424 44.779888 
L 818.284424 46.923195 
L 818.943454 46.923195 
L 818.943454 42.69145 
L 819.602484 42.69145 
L 819.602484 40.907967 
L 820.261514 40.907967 
L 820.261514 40.653309 
L 820.920543 40.653309 
L 820.920543 40.129493 
L 822.238603 40.104729 
L 822.238603 40.277414 
L 823.556663 40.18498 
L 823.556663 38.525489 
L 824.874722 38.467311 
L 824.874722 39.519585 
L 825.533752 39.519585 
L 825.533752 40.437038 
L 826.192782 40.437038 
L 826.192782 39.053376 
L 826.851812 39.053376 
L 826.851812 40.064841 
L 827.510842 40.064841 
L 827.510842 39.014427 
L 828.169871 39.014427 
L 828.169871 40.399572 
L 828.828901 40.399572 
L 828.828901 41.055163 
L 829.487931 41.055163 
L 829.487931 40.583099 
L 830.146961 40.583099 
L 830.146961 41.078076 
L 830.805991 41.078076 
L 830.805991 41.297218 
L 831.46502 41.297218 
L 831.46502 40.320706 
L 832.12405 40.320706 
L 832.12405 40.69495 
L 833.44211 40.701305 
L 833.44211 41.795701 
L 834.10114 41.795701 
L 834.10114 42.390412 
L 834.76017 42.390412 
L 834.76017 41.408109 
L 835.419199 41.408109 
L 835.419199 38.755567 
L 836.078229 38.755567 
L 836.078229 38.503589 
L 836.737259 38.503589 
L 836.737259 38.362745 
L 837.396289 38.362745 
L 837.396289 38.155842 
L 838.055319 38.155842 
L 838.055319 38.539606 
L 838.714348 38.539606 
L 838.714348 38.417553 
L 840.032408 38.521828 
L 840.032408 38.826535 
L 840.691438 38.826535 
L 840.691438 39.268381 
L 842.009498 39.17005 
L 842.009498 38.909871 
L 842.668527 38.909871 
L 842.668527 39.361935 
L 843.327557 39.361935 
L 843.327557 38.992913 
L 843.986587 38.992913 
L 843.986587 39.193059 
L 844.645617 39.193059 
L 844.645617 41.151986 
L 845.304647 41.151986 
L 845.304647 41.578241 
L 846.622706 41.637478 
L 846.622706 40.330818 
L 847.281736 40.330818 
L 847.281736 41.782562 
L 849.258826 41.811865 
L 849.258826 41.250943 
L 849.917855 41.250943 
L 849.917855 41.072464 
L 850.576885 41.072464 
L 850.576885 41.214896 
L 851.235915 41.214896 
L 851.235915 41.506881 
L 851.894945 41.506881 
L 851.894945 40.911808 
L 852.553975 40.911808 
L 852.553975 40.280923 
L 853.872034 40.176284 
L 853.872034 41.076445 
L 854.531064 41.076445 
L 854.531064 39.747025 
L 855.190094 39.747025 
L 855.190094 38.910582 
L 855.849124 38.910582 
L 855.849124 36.134258 
L 856.508154 36.134258 
L 856.508154 36.018744 
L 857.167183 36.018744 
L 857.167183 35.207738 
L 857.826213 35.207738 
L 857.826213 35.440128 
L 858.485243 35.440128 
L 858.485243 34.480533 
L 859.144273 34.480533 
L 859.144273 34.594042 
L 860.462332 34.521522 
L 860.462332 34.991735 
L 861.121362 34.991735 
L 861.121362 33.861088 
L 862.439422 33.824417 
L 862.439422 32.692634 
L 863.098452 32.692634 
L 863.098452 31.025105 
L 863.757482 31.025105 
L 863.757482 32.043365 
L 864.416511 32.043365 
L 864.416511 31.693616 
L 865.075541 31.693616 
L 865.075541 31.530938 
L 865.734571 31.530938 
L 865.734571 30.812208 
L 866.393601 30.812208 
L 866.393601 30.942276 
L 867.052631 30.942276 
L 867.052631 31.537329 
L 867.71166 31.537329 
L 867.71166 30.599502 
L 868.37069 30.599502 
L 868.37069 29.32425 
L 869.02972 29.32425 
L 869.02972 31.245601 
L 869.68875 31.245601 
L 869.68875 31.105475 
L 870.34778 31.105475 
L 870.34778 31.831184 
L 871.00681 31.831184 
L 871.00681 32.64439 
L 871.665839 32.64439 
L 871.665839 31.645809 
L 872.324869 31.645809 
L 872.324869 31.139999 
L 872.983899 31.139999 
L 872.983899 31.338765 
L 873.642929 31.338765 
L 873.642929 29.252291 
L 874.301959 29.252291 
L 874.301959 28.128912 
L 874.960988 28.128912 
L 874.960988 27.327331 
L 876.938078 27.310201 
L 876.938078 23.807678 
L 877.597108 23.807678 
L 877.597108 21.482129 
L 878.915167 21.503757 
L 878.915167 20.552727 
L 879.574197 20.552727 
L 879.574197 22.442812 
L 880.233227 22.442812 
L 880.233227 21.641716 
L 880.892257 21.641716 
L 880.892257 21.836789 
L 881.551287 21.836789 
L 881.551287 20.768427 
L 882.210316 20.768427 
L 882.210316 21.081703 
L 882.869346 21.081703 
L 882.869346 21.641642 
L 883.528376 21.641642 
L 883.528376 21.250043 
L 884.187406 21.250043 
L 884.187406 22.857526 
L 884.846436 22.857526 
L 884.846436 23.770831 
L 885.505466 23.770831 
L 885.505466 22.556297 
L 886.164495 22.556297 
L 886.164495 22.705874 
L 886.823525 22.705874 
L 886.823525 22.8753 
L 887.194182 22.8753 
L 887.194182 22.8753 
" clip-path="url(#paa9861e7fc)" style="fill: none; stroke: #3572c6; stroke-width: 1.2; stroke-linecap: square"/>
   </g>
   <g id="line2d_76">
    <path d="M 75.557818 20.552727 
L 887.194182 20.552727 
L 887.194182 20.552727 
" clip-path="url(#paa9861e7fc)" style="fill: none; stroke: #83a83b; stroke-width: 1.2; stroke-linecap: square"/>
   </g>
   <g id="line2d_77">
    <path d="M 75.557818 23.770831 
L 887.194182 23.770831 
L 887.194182 23.770831 
" clip-path="url(#paa9861e7fc)" style="fill: none; stroke: #c44e52; stroke-width: 1.2; stroke-linecap: square"/>
   </g>
   <g id="line2d_78">
    <path d="M 879.574197 300.96 
L 879.574197 7.2 
" clip-path="url(#paa9861e7fc)" style="fill: none; stroke: #83a83b; stroke-width: 1.2; stroke-linecap: square"/>
   </g>
   <g id="line2d_79">
    <path d="M 885.505466 300.96 
L 885.505466 7.2 
" clip-path="url(#paa9861e7fc)" style="fill: none; stroke: #c44e52; stroke-width: 1.2; stroke-linecap: square"/>
   </g>
   <g id="patch_3">
    <path d="M 34.976 300.96 
L 34.976 7.2 
" style="fill: none; stroke: #899ab8; stroke-width: 1.12; stroke-linejoin: miter; stroke-linecap: square"/>
   </g>
   <g id="patch_4">
    <path d="M 927.776 300.96 
L 927.776 7.2 
" style="fill: none; stroke: #899ab8; stroke-width: 1.12; stroke-linejoin: miter; stroke-linecap: square"/>
   </g>
   <g id="patch_5">
    <path d="M 34.976 300.96 
L 927.776 300.96 
" style="fill: none; stroke: #899ab8; stroke-width: 1.12; stroke-linejoin: miter; stroke-linecap: square"/>
   </g>
   <g id="patch_6">
    <path d="M 34.976 7.2 
L 927.776 7.2 
" style="fill: none; stroke: #899ab8; stroke-width: 1.12; stroke-linejoin: miter; stroke-linecap: square"/>
   </g>
   <g id="text_15">
    <!-- 71489.22 -->
    <g style="fill: #83a83b" transform="translate(195.83076 20.552727) scale(0.132 -0.132)">
     <defs>
      <path id="DejaVuSans-37" d="M 525 4666 
L 3525 4666 
L 3525 4397 
L 1831 0 
L 1172 0 
L 2766 4134 
L 525 4134 
L 525 4666 
z
" transform="scale(0.015625)"/>
      <path id="DejaVuSans-39" d="M 703 97 
L 703 672 
Q 941 559 1184 500 
Q 1428 441 1663 441 
Q 2288 441 2617 861 
Q 2947 1281 2994 2138 
Q 2813 1869 2534 1725 
Q 2256 1581 1919 1581 
Q 1219 1581 811 2004 
Q 403 2428 403 3163 
Q 403 3881 828 4315 
Q 1253 4750 1959 4750 
Q 2769 4750 3195 4129 
Q 3622 3509 3622 2328 
Q 3622 1225 3098 567 
Q 2575 -91 1691 -91 
Q 1453 -91 1209 -44 
Q 966 3 703 97 
z
M 1959 2075 
Q 2384 2075 2632 2365 
Q 2881 2656 2881 3163 
Q 2881 3666 2632 3958 
Q 2384 4250 1959 4250 
Q 1534 4250 1286 3958 
Q 1038 3666 1038 3163 
Q 1038 2656 1286 2365 
Q 1534 2075 1959 2075 
z
" transform="scale(0.015625)"/>
      <path id="DejaVuSans-2e" d="M 684 794 
L 1344 794 
L 1344 0 
L 684 0 
L 684 794 
z
" transform="scale(0.015625)"/>
     </defs>
     <use xlink:href="#DejaVuSans-37"/>
     <use xlink:href="#DejaVuSans-31" x="63.623047"/>
     <use xlink:href="#DejaVuSans-34" x="127.246094"/>
     <use xlink:href="#DejaVuSans-38" x="190.869141"/>
     <use xlink:href="#DejaVuSans-39" x="254.492188"/>
     <use xlink:href="#DejaVuSans-2e" x="318.115234"/>
     <use xlink:href="#DejaVuSans-32" x="349.902344"/>
     <use xlink:href="#DejaVuSans-32" x="413.525391"/>
    </g>
   </g>
   <g id="text_16">
    <!-- 61280.51 -->
    <g style="fill: #c44e52" transform="translate(195.83076 23.770831) scale(0.132 -0.132)">
     <use xlink:href="#DejaVuSans-36"/>
     <use xlink:href="#DejaVuSans-31" x="63.623047"/>
     <use xlink:href="#DejaVuSans-32" x="127.246094"/>
     <use xlink:href="#DejaVuSans-38" x="190.869141"/>
     <use xlink:href="#DejaVuSans-30" x="254.492188"/>
     <use xlink:href="#DejaVuSans-2e" x="318.115234"/>
     <use xlink:href="#DejaVuSans-35" x="349.902344"/>
     <use xlink:href="#DejaVuSans-31" x="413.525391"/>
    </g>
   </g>
   <g id="legend_1">
    <g id="patch_7">
     <path d="M 432.207453 294.66 
L 530.544547 294.66 
Q 533.064547 294.66 533.064547 292.14 
L 533.064547 237.56625 
Q 533.064547 235.04625 530.544547 235.04625 
L 432.207453 235.04625 
Q 429.687453 235.04625 429.687453 237.56625 
L 429.687453 292.14 
Q 429.687453 294.66 432.207453 294.66 
z
" style="fill: #373e4b; opacity: 0.8; stroke: #cccccc; stroke-width: 0.16; stroke-linejoin: miter"/>
    </g>
    <g id="line2d_80">
     <path d="M 434.727453 245.250281 
L 434.727453 245.250281 
L 447.327453 245.250281 
L 447.327453 245.250281 
L 459.927453 245.250281 
" style="fill: none; stroke: #3572c6; stroke-width: 1.2; stroke-linecap: square"/>
    </g>
    <g id="text_17">
     <!-- USD/BTC -->
     <g style="fill: #b1bed6" transform="translate(470.007453 249.660281) scale(0.126 -0.126)">
      <defs>
       <path id="DejaVuSans-55" d="M 556 4666 
L 1191 4666 
L 1191 1831 
Q 1191 1081 1462 751 
Q 1734 422 2344 422 
Q 2950 422 3222 751 
Q 3494 1081 3494 1831 
L 3494 4666 
L 4128 4666 
L 4128 1753 
Q 4128 841 3676 375 
Q 3225 -91 2344 -91 
Q 1459 -91 1007 375 
Q 556 841 556 1753 
L 556 4666 
z
" transform="scale(0.015625)"/>
       <path id="DejaVuSans-53" d="M 3425 4513 
L 3425 3897 
Q 3066 4069 2747 4153 
Q 2428 4238 2131 4238 
Q 1616 4238 1336 4038 
Q 1056 3838 1056 3469 
Q 1056 3159 1242 3001 
Q 1428 2844 1947 2747 
L 2328 2669 
Q 3034 2534 3370 2195 
Q 3706 1856 3706 1288 
Q 3706 609 3251 259 
Q 2797 -91 1919 -91 
Q 1588 -91 1214 -16 
Q 841 59 441 206 
L 441 856 
Q 825 641 1194 531 
Q 1563 422 1919 422 
Q 2459 422 2753 634 
Q 3047 847 3047 1241 
Q 3047 1584 2836 1778 
Q 2625 1972 2144 2069 
L 1759 2144 
Q 1053 2284 737 2584 
Q 422 2884 422 3419 
Q 422 4038 858 4394 
Q 1294 4750 2059 4750 
Q 2388 4750 2728 4690 
Q 3069 4631 3425 4513 
z
" transform="scale(0.015625)"/>
       <path id="DejaVuSans-2f" d="M 1625 4666 
L 2156 4666 
L 531 -594 
L 0 -594 
L 1625 4666 
z
" transform="scale(0.015625)"/>
       <path id="DejaVuSans-42" d="M 1259 2228 
L 1259 519 
L 2272 519 
Q 2781 519 3026 730 
Q 3272 941 3272 1375 
Q 3272 1813 3026 2020 
Q 2781 2228 2272 2228 
L 1259 2228 
z
M 1259 4147 
L 1259 2741 
L 2194 2741 
Q 2656 2741 2882 2914 
Q 3109 3088 3109 3444 
Q 3109 3797 2882 3972 
Q 2656 4147 2194 4147 
L 1259 4147 
z
M 628 4666 
L 2241 4666 
Q 2963 4666 3353 4366 
Q 3744 4066 3744 3513 
Q 3744 3084 3544 2831 
Q 3344 2578 2956 2516 
Q 3422 2416 3680 2098 
Q 3938 1781 3938 1306 
Q 3938 681 3513 340 
Q 3088 0 2303 0 
L 628 0 
L 628 4666 
z
" transform="scale(0.015625)"/>
       <path id="DejaVuSans-54" d="M -19 4666 
L 3928 4666 
L 3928 4134 
L 2272 4134 
L 2272 0 
L 1638 0 
L 1638 4134 
L -19 4134 
L -19 4666 
z
" transform="scale(0.015625)"/>
       <path id="DejaVuSans-43" d="M 4122 4306 
L 4122 3641 
Q 3803 3938 3442 4084 
Q 3081 4231 2675 4231 
Q 1875 4231 1450 3742 
Q 1025 3253 1025 2328 
Q 1025 1406 1450 917 
Q 1875 428 2675 428 
Q 3081 428 3442 575 
Q 3803 722 4122 1019 
L 4122 359 
Q 3791 134 3420 21 
Q 3050 -91 2638 -91 
Q 1578 -91 968 557 
Q 359 1206 359 2328 
Q 359 3453 968 4101 
Q 1578 4750 2638 4750 
Q 3056 4750 3426 4639 
Q 3797 4528 4122 4306 
z
" transform="scale(0.015625)"/>
      </defs>
      <use xlink:href="#DejaVuSans-55"/>
      <use xlink:href="#DejaVuSans-53" x="73.193359"/>
      <use xlink:href="#DejaVuSans-44" x="136.669922"/>
      <use xlink:href="#DejaVuSans-2f" x="213.671875"/>
      <use xlink:href="#DejaVuSans-42" x="247.363281"/>
      <use xlink:href="#DejaVuSans-54" x="315.966797"/>
      <use xlink:href="#DejaVuSans-43" x="371.175781"/>
     </g>
    </g>
    <g id="line2d_81">
     <path d="M 434.727453 263.744719 
L 434.727453 263.744719 
L 447.327453 263.744719 
L 447.327453 263.744719 
L 459.927453 263.744719 
" style="fill: none; stroke: #83a83b; stroke-width: 1.2; stroke-linecap: square"/>
    </g>
    <g id="text_18">
     <!-- Max -->
     <g style="fill: #b1bed6" transform="translate(470.007453 268.154719) scale(0.126 -0.126)">
      <defs>
       <path id="DejaVuSans-4d" d="M 628 4666 
L 1569 4666 
L 2759 1491 
L 3956 4666 
L 4897 4666 
L 4897 0 
L 4281 0 
L 4281 4097 
L 3078 897 
L 2444 897 
L 1241 4097 
L 1241 0 
L 628 0 
L 628 4666 
z
" transform="scale(0.015625)"/>
       <path id="DejaVuSans-78" d="M 3513 3500 
L 2247 1797 
L 3578 0 
L 2900 0 
L 1881 1375 
L 863 0 
L 184 0 
L 1544 1831 
L 300 3500 
L 978 3500 
L 1906 2253 
L 2834 3500 
L 3513 3500 
z
" transform="scale(0.015625)"/>
      </defs>
      <use xlink:href="#DejaVuSans-4d"/>
      <use xlink:href="#DejaVuSans-61" x="86.279297"/>
      <use xlink:href="#DejaVuSans-78" x="147.558594"/>
     </g>
    </g>
    <g id="line2d_82">
     <path d="M 434.727453 282.239156 
L 434.727453 282.239156 
L 447.327453 282.239156 
L 447.327453 282.239156 
L 459.927453 282.239156 
" style="fill: none; stroke: #c44e52; stroke-width: 1.2; stroke-linecap: square"/>
    </g>
    <g id="text_19">
     <!-- local_Min -->
     <g style="fill: #b1bed6" transform="translate(470.007453 286.649156) scale(0.126 -0.126)">
      <defs>
       <path id="DejaVuSans-6c" d="M 603 4863 
L 1178 4863 
L 1178 0 
L 603 0 
L 603 4863 
z
" transform="scale(0.015625)"/>
       <path id="DejaVuSans-6f" d="M 1959 3097 
Q 1497 3097 1228 2736 
Q 959 2375 959 1747 
Q 959 1119 1226 758 
Q 1494 397 1959 397 
Q 2419 397 2687 759 
Q 2956 1122 2956 1747 
Q 2956 2369 2687 2733 
Q 2419 3097 1959 3097 
z
M 1959 3584 
Q 2709 3584 3137 3096 
Q 3566 2609 3566 1747 
Q 3566 888 3137 398 
Q 2709 -91 1959 -91 
Q 1206 -91 779 398 
Q 353 888 353 1747 
Q 353 2609 779 3096 
Q 1206 3584 1959 3584 
z
" transform="scale(0.015625)"/>
       <path id="DejaVuSans-63" d="M 3122 3366 
L 3122 2828 
Q 2878 2963 2633 3030 
Q 2388 3097 2138 3097 
Q 1578 3097 1268 2742 
Q 959 2388 959 1747 
Q 959 1106 1268 751 
Q 1578 397 2138 397 
Q 2388 397 2633 464 
Q 2878 531 3122 666 
L 3122 134 
Q 2881 22 2623 -34 
Q 2366 -91 2075 -91 
Q 1284 -91 818 406 
Q 353 903 353 1747 
Q 353 2603 823 3093 
Q 1294 3584 2113 3584 
Q 2378 3584 2631 3529 
Q 2884 3475 3122 3366 
z
" transform="scale(0.015625)"/>
       <path id="DejaVuSans-5f" d="M 3263 -1063 
L 3263 -1509 
L -63 -1509 
L -63 -1063 
L 3263 -1063 
z
" transform="scale(0.015625)"/>
       <path id="DejaVuSans-69" d="M 603 3500 
L 1178 3500 
L 1178 0 
L 603 0 
L 603 3500 
z
M 603 4863 
L 1178 4863 
L 1178 4134 
L 603 4134 
L 603 4863 
z
" transform="scale(0.015625)"/>
       <path id="DejaVuSans-6e" d="M 3513 2113 
L 3513 0 
L 2938 0 
L 2938 2094 
Q 2938 2591 2744 2837 
Q 2550 3084 2163 3084 
Q 1697 3084 1428 2787 
Q 1159 2491 1159 1978 
L 1159 0 
L 581 0 
L 581 3500 
L 1159 3500 
L 1159 2956 
Q 1366 3272 1645 3428 
Q 1925 3584 2291 3584 
Q 2894 3584 3203 3211 
Q 3513 2838 3513 2113 
z
" transform="scale(0.015625)"/>
      </defs>
      <use xlink:href="#DejaVuSans-6c"/>
      <use xlink:href="#DejaVuSans-6f" x="27.783203"/>
      <use xlink:href="#DejaVuSans-63" x="88.964844"/>
      <use xlink:href="#DejaVuSans-61" x="143.945312"/>
      <use xlink:href="#DejaVuSans-6c" x="205.224609"/>
      <use xlink:href="#DejaVuSans-5f" x="233.007812"/>
      <use xlink:href="#DejaVuSans-4d" x="283.007812"/>
      <use xlink:href="#DejaVuSans-69" x="369.287109"/>
      <use xlink:href="#DejaVuSans-6e" x="397.070312"/>
     </g>
    </g>
   </g>
  </g>
 </g>
 <defs>
  <clipPath id="paa9861e7fc">
   <rect x="34.976" y="7.2" width="892.8" height="293.76"/>
  </clipPath>
 </defs>
</svg>
