<?xml version="1.0" encoding="utf-8" standalone="no"?>
<!DOCTYPE svg PUBLIC "-//W3C//DTD SVG 1.1//EN"
  "http://www.w3.org/Graphics/SVG/1.1/DTD/svg11.dtd">
<svg xmlns:xlink="http://www.w3.org/1999/xlink" width="934.976pt" height="358.290693pt" viewBox="0 0 934.976 358.290693" xmlns="http://www.w3.org/2000/svg" version="1.1">
 <metadata>
  <rdf:RDF xmlns:dc="http://purl.org/dc/elements/1.1/" xmlns:cc="http://creativecommons.org/ns#" xmlns:rdf="http://www.w3.org/1999/02/22-rdf-syntax-ns#">
   <cc:Work>
    <dc:type rdf:resource="http://purl.org/dc/dcmitype/StillImage"/>
    <dc:date>2025-01-19T10:32:33.684745</dc:date>
    <dc:format>image/svg+xml</dc:format>
    <dc:creator>
     <cc:Agent>
      <dc:title>Matplotlib v3.10.0, https://matplotlib.org/</dc:title>
     </cc:Agent>
    </dc:creator>
   </cc:Work>
  </rdf:RDF>
 </metadata>
 <defs>
  <style type="text/css">*{stroke-linejoin: round; stroke-linecap: butt}</style>
 </defs>
 <g id="figure_1">
  <g id="patch_1">
   <path d="M 0 358.290693 
L 934.976 358.290693 
L 934.976 0 
L 0 0 
z
" style="fill: #373e4b"/>
  </g>
  <g id="axes_1">
   <g id="patch_2">
    <path d="M 34.976 300.96 
L 927.776 300.96 
L 927.776 7.2 
L 34.976 7.2 
z
" style="fill: #373e4b"/>
   </g>
   <g id="matplotlib.axis_1">
    <g id="xtick_1">
     <g id="line2d_1">
      <path d="M 141.990077 300.96 
L 141.990077 7.2 
" clip-path="url(#p762dc75dbe)" style="fill: none; stroke: #546379; stroke-width: 1.12; stroke-linecap: square"/>
     </g>
     <g id="line2d_2"/>
     <g id="text_1">
      <!-- 2012 -->
      <g style="fill: #b1bed6" transform="translate(112.909038 330.884854) rotate(-30) scale(0.126 -0.126)">
       <defs>
        <path id="DejaVuSans-32" d="M 1228 531 
L 3431 531 
L 3431 0 
L 469 0 
L 469 531 
Q 828 903 1448 1529 
Q 2069 2156 2228 2338 
Q 2531 2678 2651 2914 
Q 2772 3150 2772 3378 
Q 2772 3750 2511 3984 
Q 2250 4219 1831 4219 
Q 1534 4219 1204 4116 
Q 875 4013 500 3803 
L 500 4441 
Q 881 4594 1212 4672 
Q 1544 4750 1819 4750 
Q 2544 4750 2975 4387 
Q 3406 4025 3406 3419 
Q 3406 3131 3298 2873 
Q 3191 2616 2906 2266 
Q 2828 2175 2409 1742 
Q 1991 1309 1228 531 
z
" transform="scale(0.015625)"/>
        <path id="DejaVuSans-30" d="M 2034 4250 
Q 1547 4250 1301 3770 
Q 1056 3291 1056 2328 
Q 1056 1369 1301 889 
Q 1547 409 2034 409 
Q 2525 409 2770 889 
Q 3016 1369 3016 2328 
Q 3016 3291 2770 3770 
Q 2525 4250 2034 4250 
z
M 2034 4750 
Q 2819 4750 3233 4129 
Q 3647 3509 3647 2328 
Q 3647 1150 3233 529 
Q 2819 -91 2034 -91 
Q 1250 -91 836 529 
Q 422 1150 422 2328 
Q 422 3509 836 4129 
Q 1250 4750 2034 4750 
z
" transform="scale(0.015625)"/>
        <path id="DejaVuSans-31" d="M 794 531 
L 1825 531 
L 1825 4091 
L 703 3866 
L 703 4441 
L 1819 4666 
L 2450 4666 
L 2450 531 
L 3481 531 
L 3481 0 
L 794 0 
L 794 531 
z
" transform="scale(0.015625)"/>
       </defs>
       <use xlink:href="#DejaVuSans-32"/>
       <use xlink:href="#DejaVuSans-30" transform="translate(63.623047 0)"/>
       <use xlink:href="#DejaVuSans-31" transform="translate(127.246094 0)"/>
       <use xlink:href="#DejaVuSans-32" transform="translate(190.869141 0)"/>
      </g>
     </g>
    </g>
    <g id="xtick_2">
     <g id="line2d_3">
      <path d="M 256.253563 300.96 
L 256.253563 7.2 
" clip-path="url(#p762dc75dbe)" style="fill: none; stroke: #546379; stroke-width: 1.12; stroke-linecap: square"/>
     </g>
     <g id="line2d_4"/>
     <g id="text_2">
      <!-- 2014 -->
      <g style="fill: #b1bed6" transform="translate(227.172523 330.884854) rotate(-30) scale(0.126 -0.126)">
       <defs>
        <path id="DejaVuSans-34" d="M 2419 4116 
L 825 1625 
L 2419 1625 
L 2419 4116 
z
M 2253 4666 
L 3047 4666 
L 3047 1625 
L 3713 1625 
L 3713 1100 
L 3047 1100 
L 3047 0 
L 2419 0 
L 2419 1100 
L 313 1100 
L 313 1709 
L 2253 4666 
z
" transform="scale(0.015625)"/>
       </defs>
       <use xlink:href="#DejaVuSans-32"/>
       <use xlink:href="#DejaVuSans-30" transform="translate(63.623047 0)"/>
       <use xlink:href="#DejaVuSans-31" transform="translate(127.246094 0)"/>
       <use xlink:href="#DejaVuSans-34" transform="translate(190.869141 0)"/>
      </g>
     </g>
    </g>
    <g id="xtick_3">
     <g id="line2d_5">
      <path d="M 370.360738 300.96 
L 370.360738 7.2 
" clip-path="url(#p762dc75dbe)" style="fill: none; stroke: #546379; stroke-width: 1.12; stroke-linecap: square"/>
     </g>
     <g id="line2d_6"/>
     <g id="text_3">
      <!-- 2016 -->
      <g style="fill: #b1bed6" transform="translate(341.279698 330.884854) rotate(-30) scale(0.126 -0.126)">
       <defs>
        <path id="DejaVuSans-36" d="M 2113 2584 
Q 1688 2584 1439 2293 
Q 1191 2003 1191 1497 
Q 1191 994 1439 701 
Q 1688 409 2113 409 
Q 2538 409 2786 701 
Q 3034 994 3034 1497 
Q 3034 2003 2786 2293 
Q 2538 2584 2113 2584 
z
M 3366 4563 
L 3366 3988 
Q 3128 4100 2886 4159 
Q 2644 4219 2406 4219 
Q 1781 4219 1451 3797 
Q 1122 3375 1075 2522 
Q 1259 2794 1537 2939 
Q 1816 3084 2150 3084 
Q 2853 3084 3261 2657 
Q 3669 2231 3669 1497 
Q 3669 778 3244 343 
Q 2819 -91 2113 -91 
Q 1303 -91 875 529 
Q 447 1150 447 2328 
Q 447 3434 972 4092 
Q 1497 4750 2381 4750 
Q 2619 4750 2861 4703 
Q 3103 4656 3366 4563 
z
" transform="scale(0.015625)"/>
       </defs>
       <use xlink:href="#DejaVuSans-32"/>
       <use xlink:href="#DejaVuSans-30" transform="translate(63.623047 0)"/>
       <use xlink:href="#DejaVuSans-31" transform="translate(127.246094 0)"/>
       <use xlink:href="#DejaVuSans-36" transform="translate(190.869141 0)"/>
      </g>
     </g>
    </g>
    <g id="xtick_4">
     <g id="line2d_7">
      <path d="M 484.624224 300.96 
L 484.624224 7.2 
" clip-path="url(#p762dc75dbe)" style="fill: none; stroke: #546379; stroke-width: 1.12; stroke-linecap: square"/>
     </g>
     <g id="line2d_8"/>
     <g id="text_4">
      <!-- 2018 -->
      <g style="fill: #b1bed6" transform="translate(455.543184 330.884854) rotate(-30) scale(0.126 -0.126)">
       <defs>
        <path id="DejaVuSans-38" d="M 2034 2216 
Q 1584 2216 1326 1975 
Q 1069 1734 1069 1313 
Q 1069 891 1326 650 
Q 1584 409 2034 409 
Q 2484 409 2743 651 
Q 3003 894 3003 1313 
Q 3003 1734 2745 1975 
Q 2488 2216 2034 2216 
z
M 1403 2484 
Q 997 2584 770 2862 
Q 544 3141 544 3541 
Q 544 4100 942 4425 
Q 1341 4750 2034 4750 
Q 2731 4750 3128 4425 
Q 3525 4100 3525 3541 
Q 3525 3141 3298 2862 
Q 3072 2584 2669 2484 
Q 3125 2378 3379 2068 
Q 3634 1759 3634 1313 
Q 3634 634 3220 271 
Q 2806 -91 2034 -91 
Q 1263 -91 848 271 
Q 434 634 434 1313 
Q 434 1759 690 2068 
Q 947 2378 1403 2484 
z
M 1172 3481 
Q 1172 3119 1398 2916 
Q 1625 2713 2034 2713 
Q 2441 2713 2670 2916 
Q 2900 3119 2900 3481 
Q 2900 3844 2670 4047 
Q 2441 4250 2034 4250 
Q 1625 4250 1398 4047 
Q 1172 3844 1172 3481 
z
" transform="scale(0.015625)"/>
       </defs>
       <use xlink:href="#DejaVuSans-32"/>
       <use xlink:href="#DejaVuSans-30" transform="translate(63.623047 0)"/>
       <use xlink:href="#DejaVuSans-31" transform="translate(127.246094 0)"/>
       <use xlink:href="#DejaVuSans-38" transform="translate(190.869141 0)"/>
      </g>
     </g>
    </g>
    <g id="xtick_5">
     <g id="line2d_9">
      <path d="M 598.731398 300.96 
L 598.731398 7.2 
" clip-path="url(#p762dc75dbe)" style="fill: none; stroke: #546379; stroke-width: 1.12; stroke-linecap: square"/>
     </g>
     <g id="line2d_10"/>
     <g id="text_5">
      <!-- 2020 -->
      <g style="fill: #b1bed6" transform="translate(569.650358 330.884854) rotate(-30) scale(0.126 -0.126)">
       <use xlink:href="#DejaVuSans-32"/>
       <use xlink:href="#DejaVuSans-30" transform="translate(63.623047 0)"/>
       <use xlink:href="#DejaVuSans-32" transform="translate(127.246094 0)"/>
       <use xlink:href="#DejaVuSans-30" transform="translate(190.869141 0)"/>
      </g>
     </g>
    </g>
    <g id="xtick_6">
     <g id="line2d_11">
      <path d="M 712.994884 300.96 
L 712.994884 7.2 
" clip-path="url(#p762dc75dbe)" style="fill: none; stroke: #546379; stroke-width: 1.12; stroke-linecap: square"/>
     </g>
     <g id="line2d_12"/>
     <g id="text_6">
      <!-- 2022 -->
      <g style="fill: #b1bed6" transform="translate(683.913844 330.884854) rotate(-30) scale(0.126 -0.126)">
       <use xlink:href="#DejaVuSans-32"/>
       <use xlink:href="#DejaVuSans-30" transform="translate(63.623047 0)"/>
       <use xlink:href="#DejaVuSans-32" transform="translate(127.246094 0)"/>
       <use xlink:href="#DejaVuSans-32" transform="translate(190.869141 0)"/>
      </g>
     </g>
    </g>
    <g id="xtick_7">
     <g id="line2d_13">
      <path d="M 827.102059 300.96 
L 827.102059 7.2 
" clip-path="url(#p762dc75dbe)" style="fill: none; stroke: #546379; stroke-width: 1.12; stroke-linecap: square"/>
     </g>
     <g id="line2d_14"/>
     <g id="text_7">
      <!-- 2024 -->
      <g style="fill: #b1bed6" transform="translate(798.021019 330.884854) rotate(-30) scale(0.126 -0.126)">
       <use xlink:href="#DejaVuSans-32"/>
       <use xlink:href="#DejaVuSans-30" transform="translate(63.623047 0)"/>
       <use xlink:href="#DejaVuSans-32" transform="translate(127.246094 0)"/>
       <use xlink:href="#DejaVuSans-34" transform="translate(190.869141 0)"/>
      </g>
     </g>
    </g>
    <g id="text_8">
     <!-- Date -->
     <g style="fill: #b1bed6" transform="translate(464.166875 348.095943) scale(0.144 -0.144)">
      <defs>
       <path id="DejaVuSans-44" d="M 1259 4147 
L 1259 519 
L 2022 519 
Q 2988 519 3436 956 
Q 3884 1394 3884 2338 
Q 3884 3275 3436 3711 
Q 2988 4147 2022 4147 
L 1259 4147 
z
M 628 4666 
L 1925 4666 
Q 3281 4666 3915 4102 
Q 4550 3538 4550 2338 
Q 4550 1131 3912 565 
Q 3275 0 1925 0 
L 628 0 
L 628 4666 
z
" transform="scale(0.015625)"/>
       <path id="DejaVuSans-61" d="M 2194 1759 
Q 1497 1759 1228 1600 
Q 959 1441 959 1056 
Q 959 750 1161 570 
Q 1363 391 1709 391 
Q 2188 391 2477 730 
Q 2766 1069 2766 1631 
L 2766 1759 
L 2194 1759 
z
M 3341 1997 
L 3341 0 
L 2766 0 
L 2766 531 
Q 2569 213 2275 61 
Q 1981 -91 1556 -91 
Q 1019 -91 701 211 
Q 384 513 384 1019 
Q 384 1609 779 1909 
Q 1175 2209 1959 2209 
L 2766 2209 
L 2766 2266 
Q 2766 2663 2505 2880 
Q 2244 3097 1772 3097 
Q 1472 3097 1187 3025 
Q 903 2953 641 2809 
L 641 3341 
Q 956 3463 1253 3523 
Q 1550 3584 1831 3584 
Q 2591 3584 2966 3190 
Q 3341 2797 3341 1997 
z
" transform="scale(0.015625)"/>
       <path id="DejaVuSans-74" d="M 1172 4494 
L 1172 3500 
L 2356 3500 
L 2356 3053 
L 1172 3053 
L 1172 1153 
Q 1172 725 1289 603 
Q 1406 481 1766 481 
L 2356 481 
L 2356 0 
L 1766 0 
Q 1100 0 847 248 
Q 594 497 594 1153 
L 594 3053 
L 172 3053 
L 172 3500 
L 594 3500 
L 594 4494 
L 1172 4494 
z
" transform="scale(0.015625)"/>
       <path id="DejaVuSans-65" d="M 3597 1894 
L 3597 1613 
L 953 1613 
Q 991 1019 1311 708 
Q 1631 397 2203 397 
Q 2534 397 2845 478 
Q 3156 559 3463 722 
L 3463 178 
Q 3153 47 2828 -22 
Q 2503 -91 2169 -91 
Q 1331 -91 842 396 
Q 353 884 353 1716 
Q 353 2575 817 3079 
Q 1281 3584 2069 3584 
Q 2775 3584 3186 3129 
Q 3597 2675 3597 1894 
z
M 3022 2063 
Q 3016 2534 2758 2815 
Q 2500 3097 2075 3097 
Q 1594 3097 1305 2825 
Q 1016 2553 972 2059 
L 3022 2063 
z
" transform="scale(0.015625)"/>
      </defs>
      <use xlink:href="#DejaVuSans-44"/>
      <use xlink:href="#DejaVuSans-61" transform="translate(77.001953 0)"/>
      <use xlink:href="#DejaVuSans-74" transform="translate(138.28125 0)"/>
      <use xlink:href="#DejaVuSans-65" transform="translate(177.490234 0)"/>
     </g>
    </g>
   </g>
   <g id="matplotlib.axis_2">
    <g id="ytick_1">
     <g id="line2d_15">
      <path d="M 34.976 255.001875 
L 927.776 255.001875 
" clip-path="url(#p762dc75dbe)" style="fill: none; stroke: #546379; stroke-width: 1.12; stroke-linecap: square"/>
     </g>
     <g id="line2d_16"/>
     <g id="text_9">
      <!-- $\mathdefault{10^{0}}$ -->
      <g style="fill: #b1bed6" transform="translate(7.2 259.788891) scale(0.126 -0.126)">
       <use xlink:href="#DejaVuSans-31" transform="translate(0 0.765625)"/>
       <use xlink:href="#DejaVuSans-30" transform="translate(63.623047 0.765625)"/>
       <use xlink:href="#DejaVuSans-30" transform="translate(128.203125 39.046875) scale(0.7)"/>
      </g>
     </g>
    </g>
    <g id="ytick_2">
     <g id="line2d_17">
      <path d="M 34.976 208.354097 
L 927.776 208.354097 
" clip-path="url(#p762dc75dbe)" style="fill: none; stroke: #546379; stroke-width: 1.12; stroke-linecap: square"/>
     </g>
     <g id="line2d_18"/>
     <g id="text_10">
      <!-- $\mathdefault{10^{1}}$ -->
      <g style="fill: #b1bed6" transform="translate(7.2 213.141113) scale(0.126 -0.126)">
       <use xlink:href="#DejaVuSans-31" transform="translate(0 0.684375)"/>
       <use xlink:href="#DejaVuSans-30" transform="translate(63.623047 0.684375)"/>
       <use xlink:href="#DejaVuSans-31" transform="translate(128.203125 38.965625) scale(0.7)"/>
      </g>
     </g>
    </g>
    <g id="ytick_3">
     <g id="line2d_19">
      <path d="M 34.976 161.706319 
L 927.776 161.706319 
" clip-path="url(#p762dc75dbe)" style="fill: none; stroke: #546379; stroke-width: 1.12; stroke-linecap: square"/>
     </g>
     <g id="line2d_20"/>
     <g id="text_11">
      <!-- $\mathdefault{10^{2}}$ -->
      <g style="fill: #b1bed6" transform="translate(7.2 166.493335) scale(0.126 -0.126)">
       <use xlink:href="#DejaVuSans-31" transform="translate(0 0.765625)"/>
       <use xlink:href="#DejaVuSans-30" transform="translate(63.623047 0.765625)"/>
       <use xlink:href="#DejaVuSans-32" transform="translate(128.203125 39.046875) scale(0.7)"/>
      </g>
     </g>
    </g>
    <g id="ytick_4">
     <g id="line2d_21">
      <path d="M 34.976 115.058541 
L 927.776 115.058541 
" clip-path="url(#p762dc75dbe)" style="fill: none; stroke: #546379; stroke-width: 1.12; stroke-linecap: square"/>
     </g>
     <g id="line2d_22"/>
     <g id="text_12">
      <!-- $\mathdefault{10^{3}}$ -->
      <g style="fill: #b1bed6" transform="translate(7.2 119.845556) scale(0.126 -0.126)">
       <defs>
        <path id="DejaVuSans-33" d="M 2597 2516 
Q 3050 2419 3304 2112 
Q 3559 1806 3559 1356 
Q 3559 666 3084 287 
Q 2609 -91 1734 -91 
Q 1441 -91 1130 -33 
Q 819 25 488 141 
L 488 750 
Q 750 597 1062 519 
Q 1375 441 1716 441 
Q 2309 441 2620 675 
Q 2931 909 2931 1356 
Q 2931 1769 2642 2001 
Q 2353 2234 1838 2234 
L 1294 2234 
L 1294 2753 
L 1863 2753 
Q 2328 2753 2575 2939 
Q 2822 3125 2822 3475 
Q 2822 3834 2567 4026 
Q 2313 4219 1838 4219 
Q 1578 4219 1281 4162 
Q 984 4106 628 3988 
L 628 4550 
Q 988 4650 1302 4700 
Q 1616 4750 1894 4750 
Q 2613 4750 3031 4423 
Q 3450 4097 3450 3541 
Q 3450 3153 3228 2886 
Q 3006 2619 2597 2516 
z
" transform="scale(0.015625)"/>
       </defs>
       <use xlink:href="#DejaVuSans-31" transform="translate(0 0.765625)"/>
       <use xlink:href="#DejaVuSans-30" transform="translate(63.623047 0.765625)"/>
       <use xlink:href="#DejaVuSans-33" transform="translate(128.203125 39.046875) scale(0.7)"/>
      </g>
     </g>
    </g>
    <g id="ytick_5">
     <g id="line2d_23">
      <path d="M 34.976 68.410763 
L 927.776 68.410763 
" clip-path="url(#p762dc75dbe)" style="fill: none; stroke: #546379; stroke-width: 1.12; stroke-linecap: square"/>
     </g>
     <g id="line2d_24"/>
     <g id="text_13">
      <!-- $\mathdefault{10^{4}}$ -->
      <g style="fill: #b1bed6" transform="translate(7.2 73.197778) scale(0.126 -0.126)">
       <use xlink:href="#DejaVuSans-31" transform="translate(0 0.684375)"/>
       <use xlink:href="#DejaVuSans-30" transform="translate(63.623047 0.684375)"/>
       <use xlink:href="#DejaVuSans-34" transform="translate(128.203125 38.965625) scale(0.7)"/>
      </g>
     </g>
    </g>
    <g id="ytick_6">
     <g id="line2d_25">
      <path d="M 34.976 21.762985 
L 927.776 21.762985 
" clip-path="url(#p762dc75dbe)" style="fill: none; stroke: #546379; stroke-width: 1.12; stroke-linecap: square"/>
     </g>
     <g id="line2d_26"/>
     <g id="text_14">
      <!-- $\mathdefault{10^{5}}$ -->
      <g style="fill: #b1bed6" transform="translate(7.2 26.55) scale(0.126 -0.126)">
       <defs>
        <path id="DejaVuSans-35" d="M 691 4666 
L 3169 4666 
L 3169 4134 
L 1269 4134 
L 1269 2991 
Q 1406 3038 1543 3061 
Q 1681 3084 1819 3084 
Q 2600 3084 3056 2656 
Q 3513 2228 3513 1497 
Q 3513 744 3044 326 
Q 2575 -91 1722 -91 
Q 1428 -91 1123 -41 
Q 819 9 494 109 
L 494 744 
Q 775 591 1075 516 
Q 1375 441 1709 441 
Q 2250 441 2565 725 
Q 2881 1009 2881 1497 
Q 2881 1984 2565 2268 
Q 2250 2553 1709 2553 
Q 1456 2553 1204 2497 
Q 953 2441 691 2322 
L 691 4666 
z
" transform="scale(0.015625)"/>
       </defs>
       <use xlink:href="#DejaVuSans-31" transform="translate(0 0.684375)"/>
       <use xlink:href="#DejaVuSans-30" transform="translate(63.623047 0.684375)"/>
       <use xlink:href="#DejaVuSans-35" transform="translate(128.203125 38.965625) scale(0.7)"/>
      </g>
     </g>
    </g>
    <g id="ytick_7">
     <g id="line2d_27"/>
    </g>
    <g id="ytick_8">
     <g id="line2d_28"/>
    </g>
    <g id="ytick_9">
     <g id="line2d_29"/>
    </g>
    <g id="ytick_10">
     <g id="line2d_30"/>
    </g>
    <g id="ytick_11">
     <g id="line2d_31"/>
    </g>
    <g id="ytick_12">
     <g id="line2d_32"/>
    </g>
    <g id="ytick_13">
     <g id="line2d_33"/>
    </g>
    <g id="ytick_14">
     <g id="line2d_34"/>
    </g>
    <g id="ytick_15">
     <g id="line2d_35"/>
    </g>
    <g id="ytick_16">
     <g id="line2d_36"/>
    </g>
    <g id="ytick_17">
     <g id="line2d_37"/>
    </g>
    <g id="ytick_18">
     <g id="line2d_38"/>
    </g>
    <g id="ytick_19">
     <g id="line2d_39"/>
    </g>
    <g id="ytick_20">
     <g id="line2d_40"/>
    </g>
    <g id="ytick_21">
     <g id="line2d_41"/>
    </g>
    <g id="ytick_22">
     <g id="line2d_42"/>
    </g>
    <g id="ytick_23">
     <g id="line2d_43"/>
    </g>
    <g id="ytick_24">
     <g id="line2d_44"/>
    </g>
    <g id="ytick_25">
     <g id="line2d_45"/>
    </g>
    <g id="ytick_26">
     <g id="line2d_46"/>
    </g>
    <g id="ytick_27">
     <g id="line2d_47"/>
    </g>
    <g id="ytick_28">
     <g id="line2d_48"/>
    </g>
    <g id="ytick_29">
     <g id="line2d_49"/>
    </g>
    <g id="ytick_30">
     <g id="line2d_50"/>
    </g>
    <g id="ytick_31">
     <g id="line2d_51"/>
    </g>
    <g id="ytick_32">
     <g id="line2d_52"/>
    </g>
    <g id="ytick_33">
     <g id="line2d_53"/>
    </g>
    <g id="ytick_34">
     <g id="line2d_54"/>
    </g>
    <g id="ytick_35">
     <g id="line2d_55"/>
    </g>
    <g id="ytick_36">
     <g id="line2d_56"/>
    </g>
    <g id="ytick_37">
     <g id="line2d_57"/>
    </g>
    <g id="ytick_38">
     <g id="line2d_58"/>
    </g>
    <g id="ytick_39">
     <g id="line2d_59"/>
    </g>
    <g id="ytick_40">
     <g id="line2d_60"/>
    </g>
    <g id="ytick_41">
     <g id="line2d_61"/>
    </g>
    <g id="ytick_42">
     <g id="line2d_62"/>
    </g>
    <g id="ytick_43">
     <g id="line2d_63"/>
    </g>
    <g id="ytick_44">
     <g id="line2d_64"/>
    </g>
    <g id="ytick_45">
     <g id="line2d_65"/>
    </g>
    <g id="ytick_46">
     <g id="line2d_66"/>
    </g>
    <g id="ytick_47">
     <g id="line2d_67"/>
    </g>
    <g id="ytick_48">
     <g id="line2d_68"/>
    </g>
    <g id="ytick_49">
     <g id="line2d_69"/>
    </g>
    <g id="ytick_50">
     <g id="line2d_70"/>
    </g>
    <g id="ytick_51">
     <g id="line2d_71"/>
    </g>
    <g id="ytick_52">
     <g id="line2d_72"/>
    </g>
    <g id="ytick_53">
     <g id="line2d_73"/>
    </g>
    <g id="ytick_54">
     <g id="line2d_74"/>
    </g>
    <g id="ytick_55">
     <g id="line2d_75"/>
    </g>
   </g>
   <g id="line2d_76">
    <path d="M 75.557818 287.607273 
L 75.557818 283.086636 
L 76.183063 283.086636 
L 76.183063 278.085529 
L 76.808308 278.085529 
L 76.808308 279.393007 
L 77.433553 279.393007 
L 77.433553 280.790725 
L 78.058797 280.790725 
L 78.058797 280.079814 
L 78.684042 280.079814 
L 78.684042 280.790725 
L 79.934532 280.790725 
L 79.934532 282.292069 
L 80.559777 282.292069 
L 80.559777 284.775853 
L 81.810266 284.775853 
L 81.810266 283.086636 
L 82.435511 283.086636 
L 82.435511 282.292069 
L 83.060756 282.292069 
L 83.060756 283.086636 
L 83.686 283.086636 
L 83.686 281.527492 
L 84.311245 281.527492 
L 84.311245 279.393007 
L 85.561735 279.393007 
L 85.561735 278.085529 
L 86.18698 278.085529 
L 86.18698 275.699378 
L 86.812224 275.699378 
L 86.812224 273.564892 
L 87.437469 273.564892 
L 87.437469 274.604037 
L 88.062714 274.604037 
L 88.062714 271.634015 
L 88.687959 271.634015 
L 88.687959 271.178741 
L 89.313204 271.178741 
L 89.313204 256.691092 
L 90.563693 256.691092 
L 90.563693 255.618944 
L 91.188938 255.618944 
L 91.188938 253.442731 
L 91.814183 253.442731 
L 91.814183 254.013441 
L 92.439428 254.013441 
L 92.439428 257.591635 
L 93.064672 257.591635 
L 93.064672 255.001875 
L 93.689917 255.001875 
L 93.689917 255.618944 
L 94.315162 255.618944 
L 94.315162 256.691092 
L 94.940407 256.691092 
L 94.940407 257.591635 
L 95.565652 257.591635 
L 95.565652 256.912503 
L 96.190896 256.912503 
L 96.190896 257.823168 
L 96.816141 257.823168 
L 96.816141 259.777344 
L 97.441386 259.777344 
L 97.441386 257.362719 
L 98.066631 257.362719 
L 98.066631 259.522512 
L 99.31712 259.522512 
L 99.31712 260.82999 
L 99.942365 260.82999 
L 99.942365 260.561656 
L 100.56761 260.561656 
L 100.56761 255.411159 
L 101.192855 255.411159 
L 101.192855 251.308246 
L 101.818099 251.308246 
L 101.818099 248.476826 
L 102.443344 248.476826 
L 102.443344 243.320338 
L 103.068589 243.320338 
L 103.068589 226.22018 
L 103.693834 226.22018 
L 103.693834 229.277958 
L 104.319079 229.277958 
L 104.319079 227.378145 
L 104.944323 227.378145 
L 104.944323 216.926032 
L 105.569568 216.926032 
L 105.569568 211.718176 
L 106.194813 211.718176 
L 106.194813 215.637895 
L 106.820058 215.637895 
L 106.820058 214.813209 
L 107.445303 214.813209 
L 107.445303 211.222015 
L 108.070547 211.222015 
L 108.070547 209.03392 
L 108.695792 209.03392 
L 108.695792 195.297618 
L 109.321037 195.297618 
L 109.321037 184.575858 
L 109.946282 184.575858 
L 109.946282 190.90714 
L 110.571527 190.90714 
L 110.571527 195.489951 
L 111.196771 195.489951 
L 111.196771 199.619831 
L 111.822016 199.619831 
L 111.822016 196.924511 
L 112.447261 196.924511 
L 112.447261 197.191308 
L 113.072506 197.191308 
L 113.072506 199.164264 
L 113.697751 199.164264 
L 113.697751 198.706129 
L 114.322995 198.706129 
L 114.322995 200.04551 
L 114.94824 200.04551 
L 114.94824 201.178975 
L 115.573485 201.178975 
L 115.573485 200.770829 
L 116.19873 200.770829 
L 116.19873 201.639097 
L 116.823974 201.639097 
L 116.823974 201.393357 
L 117.449219 201.393357 
L 117.449219 200.715172 
L 118.074464 200.715172 
L 118.074464 205.522678 
L 118.699709 205.522678 
L 118.699709 209.054881 
L 119.324954 209.054881 
L 119.324954 208.496408 
L 119.950198 208.496408 
L 119.950198 205.770821 
L 120.575443 205.770821 
L 120.575443 205.086986 
L 121.200688 205.086986 
L 121.200688 205.878106 
L 121.825933 205.878106 
L 121.825933 209.435937 
L 122.451178 209.435937 
L 122.451178 211.742108 
L 123.076422 211.742108 
L 123.076422 212.202282 
L 123.701667 212.202282 
L 123.701667 216.286706 
L 124.326912 216.286706 
L 124.326912 218.071265 
L 124.952157 218.071265 
L 124.952157 222.315604 
L 125.577402 222.315604 
L 125.577402 218.10402 
L 126.202646 218.10402 
L 126.202646 220.502468 
L 126.827891 220.502468 
L 126.827891 222.641054 
L 127.453136 222.641054 
L 127.453136 222.154818 
L 128.078381 222.154818 
L 128.078381 223.265735 
L 128.703626 223.265735 
L 128.703626 226.122547 
L 129.32887 226.122547 
L 129.32887 226.86653 
L 129.954115 226.86653 
L 129.954115 235.722359 
L 130.57936 235.722359 
L 130.57936 230.691941 
L 131.204605 230.691941 
L 131.204605 232.080944 
L 131.829849 232.080944 
L 131.829849 230.329086 
L 132.455094 230.329086 
L 132.455094 231.311527 
L 133.080339 231.311527 
L 133.080339 231.501159 
L 133.705584 231.501159 
L 133.705584 232.015698 
L 134.330829 232.015698 
L 134.330829 235.64429 
L 134.956073 235.64429 
L 134.956073 236.848142 
L 135.581318 236.848142 
L 135.581318 236.601581 
L 136.206563 236.601581 
L 136.206563 235.334989 
L 136.831808 235.334989 
L 136.831808 231.821211 
L 137.457053 231.821211 
L 137.457053 232.34405 
L 138.082297 232.34405 
L 138.082297 231.950661 
L 138.707542 231.950661 
L 138.707542 231.061414 
L 139.332787 231.061414 
L 139.332787 230.449317 
L 139.958032 230.449317 
L 139.958032 227.018663 
L 140.583277 227.018663 
L 140.583277 225.688928 
L 141.208521 225.688928 
L 141.208521 224.666474 
L 141.833766 224.666474 
L 141.833766 220.950197 
L 142.459011 220.950197 
L 142.459011 215.407022 
L 143.084256 215.407022 
L 143.084256 215.292565 
L 143.709501 215.292565 
L 143.709501 215.464494 
L 144.334745 215.464494 
L 144.334745 217.490557 
L 144.95999 217.490557 
L 144.95999 217.174992 
L 145.585235 217.174992 
L 145.585235 219.741993 
L 146.21048 219.741993 
L 146.21048 219.920486 
L 146.835725 219.920486 
L 146.835725 218.736641 
L 147.460969 218.736641 
L 147.460969 219.250419 
L 148.711459 219.319917 
L 148.711459 223.478317 
L 149.336704 223.478317 
L 149.336704 224.530963 
L 149.961948 224.530963 
L 149.961948 221.719127 
L 150.587193 221.719127 
L 150.587193 222.477675 
L 151.212438 222.477675 
L 151.212438 223.181323 
L 151.837683 223.181323 
L 151.837683 222.194895 
L 152.462928 222.194895 
L 152.462928 222.477675 
L 153.088172 222.477675 
L 153.088172 220.687821 
L 153.713417 220.687821 
L 153.713417 221.485368 
L 154.338662 221.485368 
L 154.338662 223.181323 
L 154.963907 223.181323 
L 154.963907 223.3505 
L 155.589152 223.3505 
L 155.589152 222.641054 
L 156.839641 222.5592 
L 156.839641 223.223485 
L 157.464886 223.223485 
L 157.464886 222.518397 
L 158.715376 222.437036 
L 158.715376 221.446669 
L 159.34062 221.446669 
L 159.34062 221.640907 
L 159.965865 221.640907 
L 159.965865 222.035061 
L 160.59111 222.035061 
L 160.59111 221.679979 
L 161.216355 221.679979 
L 161.216355 221.995299 
L 162.466844 221.995299 
L 162.466844 222.194895 
L 163.092089 222.194895 
L 163.092089 221.876478 
L 164.967823 221.797649 
L 164.967823 221.679979 
L 165.593068 221.679979 
L 165.593068 221.331014 
L 166.218313 221.331014 
L 166.218313 220.245792 
L 167.468803 220.173049 
L 167.468803 217.811116 
L 168.094047 217.811116 
L 168.094047 216.895126 
L 168.719292 216.895126 
L 168.719292 216.649561 
L 169.344537 216.649561 
L 169.344537 216.833455 
L 169.969782 216.833455 
L 169.969782 216.437106 
L 170.595027 216.437106 
L 170.595027 216.286706 
L 171.220271 216.286706 
L 171.220271 215.637895 
L 171.845516 215.637895 
L 171.845516 213.258194 
L 172.470761 213.258194 
L 172.470761 209.457318 
L 173.096006 209.457318 
L 173.096006 209.329367 
L 173.721251 209.329367 
L 173.721251 210.943857 
L 174.346495 210.943857 
L 174.346495 210.601445 
L 174.97174 210.601445 
L 174.97174 208.112438 
L 175.596985 208.112438 
L 175.596985 206.003993 
L 176.22223 206.003993 
L 176.22223 205.347275 
L 176.847475 205.347275 
L 176.847475 204.160223 
L 177.472719 204.160223 
L 177.472719 200.854601 
L 178.097964 200.854601 
L 178.097964 207.834097 
L 178.723209 207.834097 
L 178.723209 206.441646 
L 179.348454 206.441646 
L 179.348454 206.589656 
L 179.973699 206.589656 
L 179.973699 207.327112 
L 180.598943 207.327112 
L 180.598943 205.931962 
L 181.849433 205.985961 
L 181.849433 204.932403 
L 182.474678 204.932403 
L 182.474678 203.623856 
L 183.099922 203.623856 
L 183.099922 204.193191 
L 183.725167 204.193191 
L 183.725167 203.898393 
L 184.350412 203.898393 
L 184.350412 203.704217 
L 184.975657 203.704217 
L 184.975657 203.085698 
L 185.600902 203.085698 
L 185.600902 204.160223 
L 186.226146 204.160223 
L 186.226146 204.492343 
L 186.851391 204.492343 
L 186.851391 204.694261 
L 187.476636 204.694261 
L 187.476636 205.000961 
L 188.101881 205.000961 
L 188.101881 205.417254 
L 188.727126 205.417254 
L 188.727126 206.552552 
L 189.35237 206.552552 
L 189.35237 206.313018 
L 189.977615 206.313018 
L 189.977615 206.478547 
L 191.228105 206.515516 
L 191.228105 206.294709 
L 191.85335 206.294709 
L 191.85335 204.966653 
L 192.478594 204.966653 
L 192.478594 204.127309 
L 193.103839 204.127309 
L 193.103839 203.639903 
L 194.354329 203.575792 
L 194.354329 202.899122 
L 194.979574 202.899122 
L 194.979574 202.199422 
L 195.604818 202.199422 
L 195.604818 201.829048 
L 196.230063 201.829048 
L 196.230063 202.080164 
L 197.480553 201.976386 
L 197.480553 202.349488 
L 198.105797 202.349488 
L 198.105797 202.050459 
L 198.731042 202.050459 
L 198.731042 202.244325 
L 199.981532 202.214379 
L 199.981532 201.552025 
L 200.606777 201.552025 
L 200.606777 201.093854 
L 201.232021 201.093854 
L 201.232021 199.436373 
L 201.857266 199.436373 
L 201.857266 197.449835 
L 202.482511 197.449835 
L 202.482511 195.847374 
L 203.107756 195.847374 
L 203.107756 194.535799 
L 203.733001 194.535799 
L 203.733001 193.323283 
L 204.358245 193.323283 
L 204.358245 192.818333 
L 204.98349 192.818333 
L 204.98349 190.643427 
L 205.608735 190.643427 
L 205.608735 188.082423 
L 206.23398 188.082423 
L 206.23398 188.246948 
L 206.859225 188.246948 
L 206.859225 185.749305 
L 207.484469 185.749305 
L 207.484469 185.302883 
L 208.109714 185.302883 
L 208.109714 183.413369 
L 208.734959 183.413369 
L 208.734959 179.280902 
L 209.360204 179.280902 
L 209.360204 177.614851 
L 209.985449 177.614851 
L 209.985449 177.062661 
L 210.610693 177.062661 
L 210.610693 174.907435 
L 211.235938 174.907435 
L 211.235938 168.859927 
L 211.861183 168.859927 
L 211.861183 166.535712 
L 212.486428 166.535712 
L 212.486428 163.285732 
L 213.111673 163.285732 
L 213.111673 156.235874 
L 213.736917 156.235874 
L 213.736917 151.770987 
L 214.362162 151.770987 
L 214.362162 157.201896 
L 214.987407 157.201896 
L 214.987407 169.489635 
L 215.612652 169.489635 
L 215.612652 158.195845 
L 216.237896 158.195845 
L 216.237896 154.531197 
L 216.863141 154.531197 
L 216.863141 156.62623 
L 217.488386 156.62623 
L 217.488386 158.5256 
L 218.113631 158.5256 
L 218.113631 158.70299 
L 218.738876 158.70299 
L 218.738876 159.285981 
L 219.36412 159.285981 
L 219.36412 158.3549 
L 219.989365 158.3549 
L 219.989365 157.459808 
L 221.239855 157.561917 
L 221.239855 156.083348 
L 222.490344 156.035822 
L 222.490344 157.608201 
L 223.115589 157.608201 
L 223.115589 158.187329 
L 223.740834 158.187329 
L 223.740834 160.506753 
L 224.366079 160.506753 
L 224.366079 161.710371 
L 224.991324 161.710371 
L 224.991324 160.261924 
L 225.616568 160.261924 
L 225.616568 160.081627 
L 226.241813 160.081627 
L 226.241813 160.911751 
L 226.867058 160.911751 
L 226.867058 162.271242 
L 227.492303 162.271242 
L 227.492303 166.216829 
L 228.117548 166.216829 
L 228.117548 167.135903 
L 228.742792 167.135903 
L 228.742792 162.962 
L 229.368037 162.962 
L 229.368037 162.312948 
L 229.993282 162.312948 
L 229.993282 163.978582 
L 230.618527 163.978582 
L 230.618527 162.850227 
L 231.243771 162.850227 
L 231.243771 161.971411 
L 231.869016 161.971411 
L 231.869016 160.791336 
L 232.494261 160.791336 
L 232.494261 160.388714 
L 233.119506 160.388714 
L 233.119506 161.146867 
L 233.744751 161.146867 
L 233.744751 159.895509 
L 234.369995 159.895509 
L 234.369995 161.765155 
L 234.99524 161.765155 
L 234.99524 159.696403 
L 235.620485 159.696403 
L 235.620485 159.180191 
L 236.24573 159.180191 
L 236.24573 158.267522 
L 236.870975 158.267522 
L 236.870975 156.377094 
L 237.496219 156.377094 
L 237.496219 158.420251 
L 238.121464 158.420251 
L 238.121464 157.674504 
L 238.746709 157.674504 
L 238.746709 157.340238 
L 239.371954 157.340238 
L 239.371954 156.844973 
L 239.997199 156.844973 
L 239.997199 157.523978 
L 240.622443 157.523978 
L 240.622443 157.242487 
L 241.247688 157.242487 
L 241.247688 156.9841 
L 241.872933 156.9841 
L 241.872933 157.68779 
L 242.498178 157.68779 
L 242.498178 157.328809 
L 243.123423 157.328809 
L 243.123423 156.770208 
L 243.748667 156.770208 
L 243.748667 155.153397 
L 244.373912 155.153397 
L 244.373912 149.121073 
L 244.999157 149.121073 
L 244.999157 148.142593 
L 245.624402 148.142593 
L 245.624402 146.976794 
L 246.249646 146.976794 
L 246.249646 147.362312 
L 246.874891 147.362312 
L 246.874891 142.934499 
L 247.500136 142.934499 
L 247.500136 137.518796 
L 248.125381 137.518796 
L 248.125381 133.979227 
L 248.750626 133.979227 
L 248.750626 130.140066 
L 249.37587 130.140066 
L 249.37587 121.804751 
L 250.001115 121.804751 
L 250.001115 119.213781 
L 250.62636 119.213781 
L 250.62636 112.511856 
L 251.251605 112.511856 
L 251.251605 114.066056 
L 251.87685 114.066056 
L 251.87685 122.114048 
L 252.502094 122.114048 
L 252.502094 117.720255 
L 253.127339 117.720255 
L 253.127339 118.043964 
L 253.752584 118.043964 
L 253.752584 122.71434 
L 254.377829 122.71434 
L 254.377829 123.476722 
L 255.003074 123.476722 
L 255.003074 121.601985 
L 255.628318 121.601985 
L 255.628318 121.378798 
L 256.253563 121.378798 
L 256.253563 118.864146 
L 256.878808 118.864146 
L 256.878808 118.997567 
L 257.504053 118.997567 
L 257.504053 118.493542 
L 258.129298 118.493542 
L 258.129298 119.149468 
L 258.754542 119.149468 
L 258.754542 118.886893 
L 259.379787 118.886893 
L 259.379787 120.091568 
L 260.005032 120.091568 
L 260.005032 119.947159 
L 260.630277 119.947159 
L 260.630277 119.151203 
L 261.255522 119.151203 
L 261.255522 120.066132 
L 261.880766 120.066132 
L 261.880766 122.653239 
L 262.506011 122.653239 
L 262.506011 125.072427 
L 263.131256 125.072427 
L 263.131256 124.420145 
L 263.756501 124.420145 
L 263.756501 126.111571 
L 264.381745 126.111571 
L 264.381745 126.822382 
L 265.00699 126.822382 
L 265.00699 126.5362 
L 265.632235 126.5362 
L 265.632235 123.15061 
L 266.25748 123.15061 
L 266.25748 124.10298 
L 267.507969 124.067869 
L 267.507969 124.589687 
L 268.133214 124.589687 
L 268.133214 126.34398 
L 268.758459 126.34398 
L 268.758459 125.892863 
L 269.383704 125.892863 
L 269.383704 129.510205 
L 270.008949 129.510205 
L 270.008949 131.73124 
L 270.634193 131.73124 
L 270.634193 130.878413 
L 271.259438 130.878413 
L 271.259438 135.255799 
L 271.884683 135.255799 
L 271.884683 130.806 
L 272.509928 130.806 
L 272.509928 129.839069 
L 273.135173 129.839069 
L 273.135173 129.571488 
L 273.760417 129.571488 
L 273.760417 130.725063 
L 274.385662 130.725063 
L 274.385662 131.144222 
L 275.010907 131.144222 
L 275.010907 131.840876 
L 276.261397 131.801024 
L 276.261397 131.578189 
L 276.886641 131.578189 
L 276.886641 131.275063 
L 277.511886 131.275063 
L 277.511886 129.588083 
L 278.137131 129.588083 
L 278.137131 128.000506 
L 278.762376 128.000506 
L 278.762376 126.0592 
L 279.38762 126.0592 
L 279.38762 124.39604 
L 280.012865 124.39604 
L 280.012865 123.431037 
L 280.63811 123.431037 
L 280.63811 123.82284 
L 281.263355 123.82284 
L 281.263355 125.694633 
L 281.8886 125.694633 
L 281.8886 125.138959 
L 282.513844 125.138959 
L 282.513844 125.714848 
L 283.139089 125.714848 
L 283.139089 126.777534 
L 283.764334 126.777534 
L 283.764334 125.40763 
L 284.389579 125.40763 
L 284.389579 123.931167 
L 285.014824 123.931167 
L 285.014824 124.601365 
L 285.640068 124.601365 
L 285.640068 124.290637 
L 286.265313 124.290637 
L 286.265313 124.610452 
L 286.890558 124.610452 
L 286.890558 124.418858 
L 287.515803 124.418858 
L 287.515803 124.728962 
L 288.141048 124.728962 
L 288.141048 125.621817 
L 288.766292 125.621817 
L 288.766292 126.022969 
L 289.391537 126.022969 
L 289.391537 125.799356 
L 290.642027 125.782839 
L 290.642027 126.481653 
L 291.267272 126.481653 
L 291.267272 128.155753 
L 291.892516 128.155753 
L 291.892516 128.352378 
L 292.517761 128.352378 
L 292.517761 128.778149 
L 293.768251 128.834854 
L 293.768251 130.082144 
L 294.393496 130.082144 
L 294.393496 129.680015 
L 295.01874 129.680015 
L 295.01874 130.210561 
L 295.643985 130.210561 
L 295.643985 130.058342 
L 296.26923 130.058342 
L 296.26923 131.060586 
L 296.894475 131.060586 
L 296.894475 133.563397 
L 297.519719 133.563397 
L 297.519719 133.111927 
L 298.144964 133.111927 
L 298.144964 134.990175 
L 298.770209 134.990175 
L 298.770209 135.81804 
L 299.395454 135.81804 
L 299.395454 137.271071 
L 300.020699 137.271071 
L 300.020699 135.646604 
L 300.645943 135.646604 
L 300.645943 133.884598 
L 301.271188 133.884598 
L 301.271188 134.163579 
L 301.896433 134.163579 
L 301.896433 135.914228 
L 302.521678 135.914228 
L 302.521678 136.274726 
L 303.146923 136.274726 
L 303.146923 137.046121 
L 303.772167 137.046121 
L 303.772167 137.504681 
L 304.397412 137.504681 
L 304.397412 136.504653 
L 305.022657 136.504653 
L 305.022657 132.623962 
L 305.647902 132.623962 
L 305.647902 134.141222 
L 306.273147 134.141222 
L 306.273147 135.955673 
L 306.898391 135.955673 
L 306.898391 134.951738 
L 307.523636 134.951738 
L 307.523636 134.82235 
L 308.148881 134.82235 
L 308.148881 134.680971 
L 308.774126 134.680971 
L 308.774126 134.926335 
L 309.399371 134.926335 
L 309.399371 136.396913 
L 310.024615 136.396913 
L 310.024615 135.880227 
L 310.64986 135.880227 
L 310.64986 138.63823 
L 311.275105 138.63823 
L 311.275105 137.397606 
L 311.90035 137.397606 
L 311.90035 137.522479 
L 312.525594 137.522479 
L 312.525594 138.720142 
L 313.150839 138.720142 
L 313.150839 140.48242 
L 313.776084 140.48242 
L 313.776084 139.585864 
L 314.401329 139.585864 
L 314.401329 141.608182 
L 315.026574 141.608182 
L 315.026574 146.655256 
L 315.651818 146.655256 
L 315.651818 146.103857 
L 316.277063 146.103857 
L 316.277063 144.508342 
L 316.902308 144.508342 
L 316.902308 142.0763 
L 317.527553 142.0763 
L 317.527553 145.802244 
L 318.152798 145.802244 
L 318.152798 145.124402 
L 318.778042 145.124402 
L 318.778042 145.374359 
L 319.403287 145.374359 
L 319.403287 145.51963 
L 320.028532 145.51963 
L 320.028532 144.439977 
L 320.653777 144.439977 
L 320.653777 143.488191 
L 321.279022 143.488191 
L 321.279022 143.975375 
L 321.904266 143.975375 
L 321.904266 142.861644 
L 322.529511 142.861644 
L 322.529511 141.579656 
L 323.154756 141.579656 
L 323.154756 141.212425 
L 323.780001 141.212425 
L 323.780001 139.797034 
L 324.405246 139.797034 
L 324.405246 140.18684 
L 325.03049 140.18684 
L 325.03049 142.185762 
L 325.655735 142.185762 
L 325.655735 143.552586 
L 326.28098 143.552586 
L 326.28098 142.904845 
L 326.906225 142.904845 
L 326.906225 143.429752 
L 327.53147 143.429752 
L 327.53147 142.308257 
L 328.156714 142.308257 
L 328.156714 143.718643 
L 328.781959 143.718643 
L 328.781959 145.457762 
L 330.032449 145.491402 
L 330.032449 144.323683 
L 330.657693 144.323683 
L 330.657693 145.161968 
L 331.908183 145.222039 
L 331.908183 144.015097 
L 332.533428 144.015097 
L 332.533428 144.211469 
L 333.158673 144.211469 
L 333.158673 143.890276 
L 333.783917 143.890276 
L 333.783917 144.193538 
L 334.409162 144.193538 
L 334.409162 144.709578 
L 335.034407 144.709578 
L 335.034407 144.16028 
L 335.659652 144.16028 
L 335.659652 144.370121 
L 336.284897 144.370121 
L 336.284897 144.979265 
L 336.910141 144.979265 
L 336.910141 145.469575 
L 337.535386 145.469575 
L 337.535386 145.039687 
L 338.160631 145.039687 
L 338.160631 144.867783 
L 338.785876 144.867783 
L 338.785876 143.144922 
L 339.411121 143.144922 
L 339.411121 143.573269 
L 340.036365 143.573269 
L 340.036365 143.953434 
L 340.66161 143.953434 
L 340.66161 143.259515 
L 341.286855 143.259515 
L 341.286855 142.767562 
L 341.9121 142.767562 
L 341.9121 141.694757 
L 342.537345 141.694757 
L 342.537345 140.494504 
L 343.162589 140.494504 
L 343.162589 140.282308 
L 343.787834 140.282308 
L 343.787834 141.084645 
L 345.038324 140.994802 
L 345.038324 139.940431 
L 345.663568 139.940431 
L 345.663568 140.24505 
L 346.288813 140.24505 
L 346.288813 140.766516 
L 346.914058 140.766516 
L 346.914058 140.89665 
L 347.539303 140.89665 
L 347.539303 141.510759 
L 348.164548 141.510759 
L 348.164548 142.237616 
L 348.789792 142.237616 
L 348.789792 145.165549 
L 349.415037 145.165549 
L 349.415037 144.997018 
L 350.040282 144.997018 
L 350.040282 145.267885 
L 350.665527 145.267885 
L 350.665527 144.810511 
L 351.916016 144.768321 
L 351.916016 143.618016 
L 352.541261 143.618016 
L 352.541261 144.420117 
L 353.166506 144.420117 
L 353.166506 144.980153 
L 353.791751 144.980153 
L 353.791751 144.818431 
L 354.416996 144.818431 
L 354.416996 144.483219 
L 355.04224 144.483219 
L 355.04224 144.043034 
L 355.667485 144.043034 
L 355.667485 144.159428 
L 356.29273 144.159428 
L 356.29273 143.404289 
L 357.54322 143.493137 
L 357.54322 142.944126 
L 358.168464 142.944126 
L 358.168464 142.26786 
L 358.793709 142.26786 
L 358.793709 141.260366 
L 359.418954 141.260366 
L 359.418954 140.36904 
L 360.044199 140.36904 
L 360.044199 137.631453 
L 360.669443 137.631453 
L 360.669443 133.394918 
L 361.294688 133.394918 
L 361.294688 134.289861 
L 361.919933 134.289861 
L 361.919933 138.852156 
L 362.545178 138.852156 
L 362.545178 138.207508 
L 363.170423 138.207508 
L 363.170423 137.772073 
L 363.795667 137.772073 
L 363.795667 137.923069 
L 364.420912 137.923069 
L 364.420912 135.868906 
L 365.046157 135.868906 
L 365.046157 135.611372 
L 365.671402 135.611372 
L 365.671402 134.293526 
L 366.296647 134.293526 
L 366.296647 132.803142 
L 366.921891 132.803142 
L 366.921891 131.997334 
L 367.547136 131.997334 
L 367.547136 130.941322 
L 368.172381 130.941322 
L 368.172381 131.766795 
L 368.797626 131.766795 
L 368.797626 130.989299 
L 369.422871 130.989299 
L 369.422871 132.004815 
L 370.67336 132.026805 
L 370.67336 132.191317 
L 371.298605 132.191317 
L 371.298605 131.306211 
L 371.92385 131.306211 
L 371.92385 132.177635 
L 372.549095 132.177635 
L 372.549095 134.370109 
L 373.174339 134.370109 
L 373.174339 134.580891 
L 373.799584 134.580891 
L 373.799584 134.048421 
L 374.424829 134.048421 
L 374.424829 134.842782 
L 375.050074 134.842782 
L 375.050074 135.285468 
L 375.675319 135.285468 
L 375.675319 134.929036 
L 376.300563 134.929036 
L 376.300563 134.766538 
L 376.925808 134.766538 
L 376.925808 133.661609 
L 377.551053 133.661609 
L 377.551053 132.634089 
L 378.801542 132.669333 
L 378.801542 132.08165 
L 379.426787 132.08165 
L 379.426787 132.512893 
L 380.052032 132.512893 
L 380.052032 133.335406 
L 380.677277 133.335406 
L 380.677277 132.826991 
L 381.927766 132.876237 
L 381.927766 133.222365 
L 382.553011 133.222365 
L 382.553011 132.808007 
L 383.803501 132.780293 
L 383.803501 132.937351 
L 384.428746 132.937351 
L 384.428746 132.705123 
L 385.679235 132.635536 
L 385.679235 132.506661 
L 386.30448 132.506661 
L 386.30448 132.182352 
L 386.929725 132.182352 
L 386.929725 131.878018 
L 387.55497 131.878018 
L 387.55497 131.149153 
L 388.180214 131.149153 
L 388.180214 131.448567 
L 388.805459 131.448567 
L 388.805459 131.100796 
L 389.430704 131.100796 
L 389.430704 131.263789 
L 390.055949 131.263789 
L 390.055949 130.761092 
L 390.681194 130.761092 
L 390.681194 130.975072 
L 391.306438 130.975072 
L 391.306438 131.097218 
L 391.931683 131.097218 
L 391.931683 131.54342 
L 392.556928 131.54342 
L 392.556928 131.294017 
L 393.182173 131.294017 
L 393.182173 128.648168 
L 393.807417 128.648168 
L 393.807417 127.616949 
L 394.432662 127.616949 
L 394.432662 125.964578 
L 395.057907 125.964578 
L 395.057907 126.165831 
L 395.683152 126.165831 
L 395.683152 122.717592 
L 396.308397 122.717592 
L 396.308397 120.833781 
L 396.933641 120.833781 
L 396.933641 125.651527 
L 397.558886 125.651527 
L 397.558886 124.412749 
L 398.184131 124.412749 
L 398.184131 123.233846 
L 398.809376 123.233846 
L 398.809376 122.812725 
L 399.434621 122.812725 
L 399.434621 123.384538 
L 401.310355 123.435938 
L 401.310355 123.247499 
L 401.9356 123.247499 
L 401.9356 123.431037 
L 402.560845 123.431037 
L 402.560845 123.613781 
L 403.186089 123.613781 
L 403.186089 125.220424 
L 403.811334 125.220424 
L 403.811334 126.349992 
L 404.436579 126.349992 
L 404.436579 125.920895 
L 405.687069 125.977771 
L 405.687069 126.413764 
L 406.312313 126.413764 
L 406.312313 126.190734 
L 407.562803 126.243094 
L 407.562803 126.393194 
L 408.813293 126.375477 
L 408.813293 125.133628 
L 409.438537 125.133628 
L 409.438537 124.689164 
L 410.063782 124.689164 
L 410.063782 125.105998 
L 411.314272 125.161963 
L 411.314272 125.608172 
L 411.939516 125.608172 
L 411.939516 125.179317 
L 413.815251 125.1663 
L 413.815251 124.924844 
L 414.440496 124.924844 
L 414.440496 124.253604 
L 415.06574 124.253604 
L 415.06574 124.132445 
L 415.690985 124.132445 
L 415.690985 124.454584 
L 416.31623 124.454584 
L 416.31623 123.975793 
L 416.941475 123.975793 
L 416.941475 122.696315 
L 417.56672 122.696315 
L 417.56672 121.528802 
L 418.191964 121.528802 
L 418.191964 122.183907 
L 418.817209 122.183907 
L 418.817209 121.671501 
L 419.442454 121.671501 
L 419.442454 122.273378 
L 420.067699 122.273378 
L 420.067699 121.245287 
L 421.943433 121.238964 
L 421.943433 121.433671 
L 422.568678 121.433671 
L 422.568678 120.539307 
L 423.819168 120.446321 
L 423.819168 120.401174 
L 424.444412 120.401174 
L 424.444412 120.19938 
L 425.069657 120.19938 
L 425.069657 119.807613 
L 425.694902 119.807613 
L 425.694902 116.881866 
L 426.320147 116.881866 
L 426.320147 116.521336 
L 426.945391 116.521336 
L 426.945391 115.783667 
L 427.570636 115.783667 
L 427.570636 112.959661 
L 428.195881 112.959661 
L 428.195881 116.958263 
L 428.821126 116.958263 
L 428.821126 119.439871 
L 429.446371 119.439871 
L 429.446371 118.819704 
L 430.071615 118.819704 
L 430.071615 117.291408 
L 430.69686 117.291408 
L 430.69686 117.565822 
L 431.322105 117.565822 
L 431.322105 116.778169 
L 431.94735 116.778169 
L 431.94735 115.397249 
L 432.572595 115.397249 
L 432.572595 114.835307 
L 433.197839 114.835307 
L 433.197839 115.357734 
L 433.823084 115.357734 
L 433.823084 115.034245 
L 434.448329 115.034245 
L 434.448329 113.982508 
L 435.073574 113.982508 
L 435.073574 112.672389 
L 435.698819 112.672389 
L 435.698819 112.220604 
L 436.324063 112.220604 
L 436.324063 110.947519 
L 436.949308 110.947519 
L 436.949308 110.199745 
L 437.574553 110.199745 
L 437.574553 111.498893 
L 438.199798 111.498893 
L 438.199798 110.688867 
L 438.825043 110.688867 
L 438.825043 113.720065 
L 439.450287 113.720065 
L 439.450287 112.889645 
L 440.075532 112.889645 
L 440.075532 115.847388 
L 440.700777 115.847388 
L 440.700777 114.268454 
L 441.326022 114.268454 
L 441.326022 113.499584 
L 441.951267 113.499584 
L 441.951267 111.471042 
L 442.576511 111.471042 
L 442.576511 111.196955 
L 443.201756 111.196955 
L 443.201756 111.871589 
L 443.827001 111.871589 
L 443.827001 111.344663 
L 444.452246 111.344663 
L 444.452246 110.811372 
L 445.07749 110.811372 
L 445.07749 109.930895 
L 445.702735 109.930895 
L 445.702735 108.906856 
L 446.32798 108.906856 
L 446.32798 106.347588 
L 446.953225 106.347588 
L 446.953225 104.899897 
L 447.57847 104.899897 
L 447.57847 104.393638 
L 448.203714 104.393638 
L 448.203714 104.201759 
L 448.828959 104.201759 
L 448.828959 100.926813 
L 449.454204 100.926813 
L 449.454204 97.141937 
L 450.079449 97.141937 
L 450.079449 99.29466 
L 450.704694 99.29466 
L 450.704694 97.238883 
L 451.329938 97.238883 
L 451.329938 94.942984 
L 451.955183 94.942984 
L 451.955183 94.018528 
L 452.580428 94.018528 
L 452.580428 94.89141 
L 453.205673 94.89141 
L 453.205673 95.470387 
L 453.830918 95.470387 
L 453.830918 95.248736 
L 454.456162 95.248736 
L 454.456162 96.47908 
L 455.081407 96.47908 
L 455.081407 96.160473 
L 456.331897 96.094901 
L 456.331897 96.472361 
L 456.957142 96.472361 
L 456.957142 98.088695 
L 457.582386 98.088695 
L 457.582386 101.29881 
L 458.207631 101.29881 
L 458.207631 98.49352 
L 458.832876 98.49352 
L 458.832876 94.576732 
L 459.458121 94.576732 
L 459.458121 95.265202 
L 460.083365 95.265202 
L 460.083365 93.749548 
L 461.333855 93.794745 
L 461.333855 90.21416 
L 461.9591 90.21416 
L 461.9591 87.650879 
L 462.584345 87.650879 
L 462.584345 85.154634 
L 463.209589 85.154634 
L 463.209589 86.699117 
L 463.834834 86.699117 
L 463.834834 85.359515 
L 464.460079 85.359515 
L 464.460079 85.150653 
L 465.085324 85.150653 
L 465.085324 82.827686 
L 465.710569 82.827686 
L 465.710569 85.111993 
L 466.335813 85.111993 
L 466.335813 85.363725 
L 466.961058 85.363725 
L 466.961058 87.668168 
L 467.586303 87.668168 
L 467.586303 88.671091 
L 468.211548 88.671091 
L 468.211548 89.103089 
L 468.836793 89.103089 
L 468.836793 87.321245 
L 469.462037 87.321245 
L 469.462037 86.158429 
L 470.087282 86.158429 
L 470.087282 85.469437 
L 470.712527 85.469437 
L 470.712527 84.862028 
L 471.337772 84.862028 
L 471.337772 83.186795 
L 471.963017 83.186795 
L 471.963017 79.828215 
L 473.213506 79.808755 
L 473.213506 79.097981 
L 473.838751 79.097981 
L 473.838751 79.551767 
L 474.463996 79.551767 
L 474.463996 77.401231 
L 475.089241 77.401231 
L 475.089241 74.604136 
L 475.714485 74.604136 
L 475.714485 74.324306 
L 476.33973 74.324306 
L 476.33973 79.134098 
L 476.964975 79.134098 
L 476.964975 73.266477 
L 477.59022 73.266477 
L 477.59022 72.325664 
L 478.840709 72.399605 
L 478.840709 68.575528 
L 479.465954 68.575528 
L 479.465954 66.640993 
L 480.091199 66.640993 
L 480.091199 61.821326 
L 480.716444 61.821326 
L 480.716444 60.103587 
L 481.341688 60.103587 
L 481.341688 58.378709 
L 481.966933 58.378709 
L 481.966933 55.5018 
L 482.592178 55.5018 
L 482.592178 61.920081 
L 483.217423 61.920081 
L 483.217423 59.3009 
L 483.842668 59.3009 
L 483.842668 63.708547 
L 484.467912 63.708547 
L 484.467912 60.143569 
L 485.093157 60.143569 
L 485.093157 58.646221 
L 485.718402 58.646221 
L 485.718402 62.655381 
L 486.343647 62.655381 
L 486.343647 62.249899 
L 486.968892 62.249899 
L 486.968892 65.567878 
L 487.594136 65.567878 
L 487.594136 66.792635 
L 488.219381 66.792635 
L 488.219381 65.700607 
L 488.844626 65.700607 
L 488.844626 68.001641 
L 489.469871 68.001641 
L 489.469871 72.426066 
L 490.72036 72.320086 
L 490.72036 70.781351 
L 491.345605 70.781351 
L 491.345605 68.052212 
L 491.97085 68.052212 
L 491.97085 66.031852 
L 492.596095 66.031852 
L 492.596095 69.028333 
L 493.221339 69.028333 
L 493.221339 67.748818 
L 493.846584 67.748818 
L 493.846584 65.549717 
L 494.471829 65.549717 
L 494.471829 69.827663 
L 495.097074 69.827663 
L 495.097074 70.254713 
L 495.722319 70.254713 
L 495.722319 72.190741 
L 496.347563 72.190741 
L 496.347563 70.74897 
L 496.972808 70.74897 
L 496.972808 71.622909 
L 497.598053 71.622909 
L 497.598053 73.05686 
L 498.223298 73.05686 
L 498.223298 76.141967 
L 498.848543 76.141967 
L 498.848543 76.263632 
L 500.099032 76.27035 
L 500.099032 73.198416 
L 501.349522 73.167802 
L 501.349522 70.702072 
L 501.974767 70.702072 
L 501.974767 70.83969 
L 502.600011 70.83969 
L 502.600011 69.667737 
L 503.225256 69.667737 
L 503.225256 68.916713 
L 503.850501 68.916713 
L 503.850501 69.730864 
L 504.475746 69.730864 
L 504.475746 71.950613 
L 505.100991 71.950613 
L 505.100991 71.772306 
L 505.726235 71.772306 
L 505.726235 72.327483 
L 506.35148 72.327483 
L 506.35148 74.206732 
L 506.976725 74.206732 
L 506.976725 74.663161 
L 507.60197 74.663161 
L 507.60197 74.266827 
L 508.852459 74.251117 
L 508.852459 73.929162 
L 509.477704 73.929162 
L 509.477704 76.973421 
L 510.102949 76.973421 
L 510.102949 77.173251 
L 510.728194 77.173251 
L 510.728194 76.340884 
L 511.353438 76.340884 
L 511.353438 78.236092 
L 511.978683 78.236092 
L 511.978683 79.175207 
L 512.603928 79.175207 
L 512.603928 76.747641 
L 513.854418 76.741069 
L 513.854418 77.677175 
L 514.479662 77.677175 
L 514.479662 77.936267 
L 515.104907 77.936267 
L 515.104907 74.590059 
L 516.355397 74.492588 
L 516.355397 73.084398 
L 516.980642 73.084398 
L 516.980642 72.501714 
L 517.605886 72.501714 
L 517.605886 74.470417 
L 518.231131 74.470417 
L 518.231131 76.468939 
L 518.856376 76.468939 
L 518.856376 78.004431 
L 519.481621 78.004431 
L 519.481621 77.865617 
L 520.106866 77.865617 
L 520.106866 77.179809 
L 520.73211 77.179809 
L 520.73211 77.057189 
L 521.357355 77.057189 
L 521.357355 75.924395 
L 521.9826 75.924395 
L 521.9826 75.582316 
L 522.607845 75.582316 
L 522.607845 74.622847 
L 523.23309 74.622847 
L 523.23309 78.147381 
L 523.858334 78.147381 
L 523.858334 77.687516 
L 524.483579 77.687516 
L 524.483579 77.146138 
L 525.734069 77.150347 
L 525.734069 76.879502 
L 526.359313 76.879502 
L 526.359313 76.740855 
L 526.984558 76.740855 
L 526.984558 77.07163 
L 527.609803 77.07163 
L 527.609803 76.909773 
L 528.860293 76.886827 
L 528.860293 77.883426 
L 529.485537 77.883426 
L 529.485537 77.108009 
L 530.736027 77.156991 
L 530.736027 77.224864 
L 531.361272 77.224864 
L 531.361272 77.765904 
L 531.986517 77.765904 
L 531.986517 77.574911 
L 532.611761 77.574911 
L 532.611761 77.023473 
L 533.237006 77.023473 
L 533.237006 77.425053 
L 533.862251 77.425053 
L 533.862251 79.945873 
L 534.487496 79.945873 
L 534.487496 83.075309 
L 535.112741 83.075309 
L 535.112741 85.260562 
L 535.737985 85.260562 
L 535.737985 87.861814 
L 536.36323 87.861814 
L 536.36323 86.042876 
L 536.988475 86.042876 
L 536.988475 88.308396 
L 537.61372 88.308396 
L 537.61372 89.173423 
L 538.238965 89.173423 
L 538.238965 90.821291 
L 538.864209 90.821291 
L 538.864209 89.354323 
L 539.489454 89.354323 
L 539.489454 87.487573 
L 540.114699 87.487573 
L 540.114699 87.898519 
L 540.739944 87.898519 
L 540.739944 88.171563 
L 541.365188 88.171563 
L 541.365188 87.324697 
L 541.990433 87.324697 
L 541.990433 86.613508 
L 542.615678 86.613508 
L 542.615678 88.849653 
L 543.240923 88.849653 
L 543.240923 88.649349 
L 543.866168 88.649349 
L 543.866168 88.963985 
L 544.491412 88.963985 
L 544.491412 89.179578 
L 545.741902 89.242077 
L 545.741902 89.853371 
L 546.992392 89.935156 
L 546.992392 90.297477 
L 547.617636 90.297477 
L 547.617636 88.943099 
L 548.242881 88.943099 
L 548.242881 89.062172 
L 548.868126 89.062172 
L 548.868126 87.349345 
L 549.493371 87.349345 
L 549.493371 86.278803 
L 550.118616 86.278803 
L 550.118616 87.836536 
L 551.369105 87.935343 
L 551.369105 87.555271 
L 552.619595 87.585159 
L 552.619595 87.29797 
L 553.24484 87.29797 
L 553.24484 86.82688 
L 555.120574 86.729568 
L 555.120574 86.403689 
L 555.745819 86.403689 
L 555.745819 82.816009 
L 556.371064 82.816009 
L 556.371064 81.392639 
L 556.996308 81.392639 
L 556.996308 82.160101 
L 557.621553 82.160101 
L 557.621553 81.671631 
L 558.246798 81.671631 
L 558.246798 81.23724 
L 558.872043 81.23724 
L 558.872043 80.766135 
L 559.497287 80.766135 
L 559.497287 81.26775 
L 560.122532 81.26775 
L 560.122532 80.930949 
L 560.747777 80.930949 
L 560.747777 79.85393 
L 561.373022 79.85393 
L 561.373022 77.617248 
L 561.998267 77.617248 
L 561.998267 72.949919 
L 562.623511 72.949919 
L 562.623511 74.883673 
L 563.248756 74.883673 
L 563.248756 73.901541 
L 563.874001 73.901541 
L 563.874001 71.128882 
L 564.499246 71.128882 
L 564.499246 72.252922 
L 565.124491 72.252922 
L 565.124491 72.592583 
L 565.749735 72.592583 
L 565.749735 72.93573 
L 566.37498 72.93573 
L 566.37498 73.141199 
L 567.000225 73.141199 
L 567.000225 70.864075 
L 567.62547 70.864075 
L 567.62547 69.920867 
L 568.250715 69.920867 
L 568.250715 66.824475 
L 568.875959 66.824475 
L 568.875959 66.23668 
L 569.501204 66.23668 
L 569.501204 67.271012 
L 570.126449 67.271012 
L 570.126449 66.562637 
L 570.751694 66.562637 
L 570.751694 63.749967 
L 571.376939 63.749967 
L 571.376939 65.775657 
L 572.002183 65.775657 
L 572.002183 69.081621 
L 572.627428 69.081621 
L 572.627428 67.254377 
L 573.252673 67.254377 
L 573.252673 68.665246 
L 573.877918 68.665246 
L 573.877918 69.447071 
L 574.503162 69.447071 
L 574.503162 67.365395 
L 575.128407 67.365395 
L 575.128407 65.639911 
L 575.753652 65.639911 
L 575.753652 65.966673 
L 576.378897 65.966673 
L 576.378897 68.376433 
L 577.004142 68.376433 
L 577.004142 67.777347 
L 577.629386 67.777347 
L 577.629386 68.185165 
L 578.254631 68.185165 
L 578.254631 67.693717 
L 578.879876 67.693717 
L 578.879876 69.284271 
L 579.505121 69.284271 
L 579.505121 67.189651 
L 580.130366 67.189651 
L 580.130366 67.447021 
L 580.75561 67.447021 
L 580.75561 68.090542 
L 581.380855 68.090542 
L 581.380855 67.79143 
L 582.631345 67.859431 
L 582.631345 69.062573 
L 583.25659 69.062573 
L 583.25659 72.446231 
L 583.881834 72.446231 
L 583.881834 72.129723 
L 584.507079 72.129723 
L 584.507079 72.560806 
L 585.132324 72.560806 
L 585.132324 71.494741 
L 585.757569 71.494741 
L 585.757569 72.225268 
L 586.382814 72.225268 
L 586.382814 72.737892 
L 587.008058 72.737892 
L 587.008058 72.375593 
L 587.633303 72.375593 
L 587.633303 71.309536 
L 588.258548 71.309536 
L 588.258548 69.59254 
L 588.883793 69.59254 
L 588.883793 69.878393 
L 590.134282 69.786772 
L 590.134282 70.461863 
L 590.759527 70.461863 
L 590.759527 71.390271 
L 591.384772 71.390271 
L 591.384772 72.490561 
L 592.010017 72.490561 
L 592.010017 74.824364 
L 592.635261 74.824364 
L 592.635261 75.16848 
L 593.260506 75.16848 
L 593.260506 74.083562 
L 593.885751 74.083562 
L 593.885751 75.086013 
L 594.510996 75.086013 
L 594.510996 74.178488 
L 595.136241 74.178488 
L 595.136241 75.096409 
L 595.761485 75.096409 
L 595.761485 75.988256 
L 596.38673 75.988256 
L 596.38673 75.093563 
L 597.011975 75.093563 
L 597.011975 74.923756 
L 597.63722 74.923756 
L 597.63722 74.783478 
L 598.262465 74.783478 
L 598.262465 75.134431 
L 598.887709 75.134431 
L 598.887709 74.643834 
L 599.512954 74.643834 
L 599.512954 73.39782 
L 600.138199 73.39782 
L 600.138199 72.666632 
L 600.763444 72.666632 
L 600.763444 70.770833 
L 601.388689 70.770833 
L 601.388689 71.180287 
L 602.013933 71.180287 
L 602.013933 72.118919 
L 602.639178 72.118919 
L 602.639178 69.924992 
L 603.889668 69.849271 
L 603.889668 68.911916 
L 604.514913 68.911916 
L 604.514913 68.707099 
L 605.140157 68.707099 
L 605.140157 67.677591 
L 605.765402 67.677591 
L 605.765402 68.048053 
L 606.390647 68.048053 
L 606.390647 69.09136 
L 607.015892 69.09136 
L 607.015892 71.033885 
L 607.641136 71.033885 
L 607.641136 71.621936 
L 608.266381 71.621936 
L 608.266381 70.394119 
L 608.891626 70.394119 
L 608.891626 73.104489 
L 609.516871 73.104489 
L 609.516871 80.124591 
L 610.142116 80.124591 
L 610.142116 81.053659 
L 610.76736 81.053659 
L 610.76736 78.128422 
L 611.392605 78.128422 
L 611.392605 76.528644 
L 612.01785 76.528644 
L 612.01785 79.150167 
L 612.643095 79.150167 
L 612.643095 76.196727 
L 613.26834 76.196727 
L 613.26834 74.666913 
L 613.893584 74.666913 
L 613.893584 76.006816 
L 615.144074 76.010619 
L 615.144074 74.899546 
L 615.769319 74.899546 
L 615.769319 75.260997 
L 616.394564 75.260997 
L 616.394564 73.707639 
L 617.019808 73.707639 
L 617.019808 71.398605 
L 617.645053 71.398605 
L 617.645053 70.803659 
L 618.270298 70.803659 
L 618.270298 68.775031 
L 618.895543 68.775031 
L 618.895543 70.9671 
L 619.520788 70.9671 
L 619.520788 69.695131 
L 620.146032 69.695131 
L 620.146032 69.427166 
L 620.771277 69.427166 
L 620.771277 71.160623 
L 621.396522 71.160623 
L 621.396522 69.302851 
L 622.021767 69.302851 
L 622.021767 68.001184 
L 622.647011 68.001184 
L 622.647011 69.187713 
L 623.272256 69.187713 
L 623.272256 68.871483 
L 623.897501 68.871483 
L 623.897501 69.506498 
L 625.147991 69.546505 
L 625.147991 69.914145 
L 626.39848 70.010225 
L 626.39848 70.132266 
L 627.023725 70.132266 
L 627.023725 70.382884 
L 627.64897 70.382884 
L 627.64897 69.976536 
L 628.899459 70.020949 
L 628.899459 70.114276 
L 630.149949 70.067724 
L 630.149949 69.210123 
L 630.775194 69.210123 
L 630.775194 66.401947 
L 631.400439 66.401947 
L 631.400439 65.856255 
L 632.025683 65.856255 
L 632.025683 66.125255 
L 632.650928 66.125255 
L 632.650928 65.113329 
L 633.276173 65.113329 
L 633.276173 65.450957 
L 633.901418 65.450957 
L 633.901418 64.862828 
L 635.151907 64.944937 
L 635.151907 65.119649 
L 635.777152 65.119649 
L 635.777152 65.518219 
L 636.402397 65.518219 
L 636.402397 64.847122 
L 637.027642 64.847122 
L 637.027642 68.089944 
L 637.652887 68.089944 
L 637.652887 67.954384 
L 638.278131 67.954384 
L 638.278131 67.751504 
L 638.903376 67.751504 
L 638.903376 66.583489 
L 639.528621 66.583489 
L 639.528621 67.556947 
L 640.153866 67.556947 
L 640.153866 67.053636 
L 640.77911 67.053636 
L 640.77911 66.775229 
L 641.404355 66.775229 
L 641.404355 67.322689 
L 642.0296 67.322689 
L 642.0296 67.095436 
L 642.654845 67.095436 
L 642.654845 65.797887 
L 643.28009 65.797887 
L 643.28009 65.572773 
L 643.905334 65.572773 
L 643.905334 65.129588 
L 644.530579 65.129588 
L 644.530579 63.182202 
L 645.155824 63.182202 
L 645.155824 62.104943 
L 645.781069 62.104943 
L 645.781069 61.87057 
L 646.406314 61.87057 
L 646.406314 61.370308 
L 647.031558 61.370308 
L 647.031558 59.544502 
L 647.656803 59.544502 
L 647.656803 58.518189 
L 648.282048 58.518189 
L 648.282048 57.991047 
L 648.907293 57.991047 
L 648.907293 55.743557 
L 649.532538 55.743557 
L 649.532538 55.224406 
L 650.157782 55.224406 
L 650.157782 56.806288 
L 650.783027 56.806288 
L 650.783027 55.166952 
L 651.408272 55.166952 
L 651.408272 55.008794 
L 652.033517 55.008794 
L 652.033517 56.225917 
L 652.658762 56.225917 
L 652.658762 55.114737 
L 653.284006 55.114737 
L 653.284006 51.404577 
L 653.909251 51.404577 
L 653.909251 50.823024 
L 654.534496 50.823024 
L 654.534496 48.710745 
L 655.159741 48.710745 
L 655.159741 46.941356 
L 655.784985 46.941356 
L 655.784985 44.222761 
L 656.41023 44.222761 
L 656.41023 40.587995 
L 657.035475 40.587995 
L 657.035475 42.718203 
L 657.66072 42.718203 
L 657.66072 41.999525 
L 658.285965 41.999525 
L 658.285965 42.449162 
L 658.911209 42.449162 
L 658.911209 44.783592 
L 659.536454 44.783592 
L 659.536454 45.873012 
L 660.161699 45.873012 
L 660.161699 44.139639 
L 660.786944 44.139639 
L 660.786944 41.90427 
L 661.412189 41.90427 
L 661.412189 37.334773 
L 662.037433 37.334773 
L 662.037433 36.856711 
L 662.662678 36.856711 
L 662.662678 36.148564 
L 663.287923 36.148564 
L 663.287923 33.50902 
L 663.913168 33.50902 
L 663.913168 35.553763 
L 664.538413 35.553763 
L 664.538413 37.888629 
L 665.163657 37.888629 
L 665.163657 36.443786 
L 665.788902 36.443786 
L 665.788902 34.894515 
L 666.414147 34.894515 
L 666.414147 33.061059 
L 667.039392 33.061059 
L 667.039392 33.19629 
L 667.664637 33.19629 
L 667.664637 32.768596 
L 668.289881 32.768596 
L 668.289881 34.813756 
L 668.915126 34.813756 
L 668.915126 33.587851 
L 669.540371 33.587851 
L 669.540371 32.542765 
L 670.790861 32.433661 
L 670.790861 32.762744 
L 671.416105 32.762744 
L 671.416105 30.945791 
L 672.04135 30.945791 
L 672.04135 32.082351 
L 672.666595 32.082351 
L 672.666595 34.31808 
L 673.29184 34.31808 
L 673.29184 36.183425 
L 673.917084 36.183425 
L 673.917084 34.402837 
L 674.542329 34.402837 
L 674.542329 33.0752 
L 675.792819 33.016174 
L 675.792819 33.23993 
L 676.418064 33.23993 
L 676.418064 37.172755 
L 677.043308 37.172755 
L 677.043308 41.924988 
L 677.668553 41.924988 
L 677.668553 43.173776 
L 678.293798 43.173776 
L 678.293798 41.12913 
L 678.919043 41.12913 
L 678.919043 41.736092 
L 679.544288 41.736092 
L 679.544288 41.968199 
L 680.169532 41.968199 
L 680.169532 43.948734 
L 680.794777 43.948734 
L 680.794777 42.746743 
L 681.420022 42.746743 
L 681.420022 41.192685 
L 682.045267 41.192685 
L 682.045267 42.691199 
L 682.670512 42.691199 
L 682.670512 43.241016 
L 683.921001 43.348157 
L 683.921001 43.703922 
L 684.546246 43.703922 
L 684.546246 43.493111 
L 685.171491 43.493111 
L 685.171491 43.909175 
L 685.796736 43.909175 
L 685.796736 44.337372 
L 686.42198 44.337372 
L 686.42198 44.984175 
L 687.047225 44.984175 
L 687.047225 44.65892 
L 687.67247 44.65892 
L 687.67247 41.731966 
L 688.297715 41.731966 
L 688.297715 39.234534 
L 688.922959 39.234534 
L 688.922959 41.291708 
L 689.548204 41.291708 
L 689.548204 38.105237 
L 690.173449 38.105237 
L 690.173449 37.666426 
L 690.798694 37.666426 
L 690.798694 37.034591 
L 691.423939 37.034591 
L 691.423939 37.173591 
L 692.049183 37.173591 
L 692.049183 35.999358 
L 692.674428 35.999358 
L 692.674428 36.191154 
L 693.299673 36.191154 
L 693.299673 36.991816 
L 693.924918 36.991816 
L 693.924918 35.826697 
L 694.550163 35.826697 
L 694.550163 37.460092 
L 695.800652 37.468562 
L 695.800652 36.723209 
L 696.425897 36.723209 
L 696.425897 38.907299 
L 697.676387 38.94795 
L 697.676387 39.820244 
L 698.301631 39.820244 
L 698.301631 36.747881 
L 698.926876 36.747881 
L 698.926876 33.748261 
L 699.552121 33.748261 
L 699.552121 34.012816 
L 700.177366 34.012816 
L 700.177366 33.010007 
L 700.802611 33.010007 
L 700.802611 31.456736 
L 701.427855 31.456736 
L 701.427855 31.877732 
L 702.0531 31.877732 
L 702.0531 31.995524 
L 702.678345 31.995524 
L 702.678345 31.535444 
L 703.30359 31.535444 
L 703.30359 31.137823 
L 704.554079 31.02923 
L 704.554079 30.540462 
L 705.179324 30.540462 
L 705.179324 30.936291 
L 705.804569 30.936291 
L 705.804569 32.752134 
L 706.429814 32.752134 
L 706.429814 32.946405 
L 707.055058 32.946405 
L 707.055058 33.947866 
L 707.680303 33.947866 
L 707.680303 33.069383 
L 708.305548 33.069383 
L 708.305548 36.057969 
L 708.930793 36.057969 
L 708.930793 36.77652 
L 709.556038 36.77652 
L 709.556038 37.163866 
L 710.181282 37.163866 
L 710.181282 37.418311 
L 710.806527 37.418311 
L 710.806527 36.241719 
L 711.431772 36.241719 
L 711.431772 35.615464 
L 712.057017 35.615464 
L 712.057017 37.315307 
L 712.682262 37.315307 
L 712.682262 36.918057 
L 713.307506 36.918057 
L 713.307506 38.804113 
L 713.932751 38.804113 
L 713.932751 39.410535 
L 714.557996 39.410535 
L 714.557996 38.814104 
L 715.183241 38.814104 
L 715.183241 39.15439 
L 715.808486 39.15439 
L 715.808486 42.989894 
L 716.43373 42.989894 
L 716.43373 42.002286 
L 717.058975 42.002286 
L 717.058975 41.408579 
L 717.68422 41.408579 
L 717.68422 41.854885 
L 718.309465 41.854885 
L 718.309465 38.471692 
L 718.93471 38.471692 
L 718.93471 39.144933 
L 719.559954 39.144933 
L 719.559954 38.149735 
L 720.185199 38.149735 
L 720.185199 40.267816 
L 720.810444 40.267816 
L 720.810444 41.746444 
L 721.435689 41.746444 
L 721.435689 41.523269 
L 722.060933 41.523269 
L 722.060933 39.114792 
L 722.686178 39.114792 
L 722.686178 41.347827 
L 723.311423 41.347827 
L 723.311423 40.97388 
L 723.936668 40.97388 
L 723.936668 40.672941 
L 724.561913 40.672941 
L 724.561913 39.230614 
L 725.187157 39.230614 
L 725.187157 38.905646 
L 725.812402 38.905646 
L 725.812402 37.119962 
L 726.437647 37.119962 
L 726.437647 37.698538 
L 727.062892 37.698538 
L 727.062892 37.22715 
L 727.688137 37.22715 
L 727.688137 39.203465 
L 728.313381 39.203465 
L 728.313381 40.274306 
L 728.938626 40.274306 
L 728.938626 40.130046 
L 729.563871 40.130046 
L 729.563871 39.640918 
L 730.189116 39.640918 
L 730.189116 40.5985 
L 730.814361 40.5985 
L 730.814361 40.442806 
L 731.439605 40.442806 
L 731.439605 41.094717 
L 732.06485 41.094717 
L 732.06485 42.453156 
L 732.690095 42.453156 
L 732.690095 45.487263 
L 733.31534 45.487263 
L 733.31534 46.103795 
L 733.940585 46.103795 
L 733.940585 47.065027 
L 734.565829 47.065027 
L 734.565829 45.96662 
L 735.191074 45.96662 
L 735.191074 46.705905 
L 735.816319 46.705905 
L 735.816319 45.027507 
L 736.441564 45.027507 
L 736.441564 46.37017 
L 737.066809 46.37017 
L 737.066809 45.412974 
L 737.692053 45.412974 
L 737.692053 47.304098 
L 738.317298 47.304098 
L 738.317298 51.936551 
L 738.942543 51.936551 
L 738.942543 53.828272 
L 739.567788 53.828272 
L 739.567788 53.294943 
L 740.193032 53.294943 
L 740.193032 53.669266 
L 740.818277 53.669266 
L 740.818277 55.167237 
L 741.443522 55.167237 
L 741.443522 54.184951 
L 742.068767 54.184951 
L 742.068767 52.825565 
L 742.694012 52.825565 
L 742.694012 54.143055 
L 743.319256 54.143055 
L 743.319256 53.59893 
L 743.944501 53.59893 
L 743.944501 51.40169 
L 744.569746 51.40169 
L 744.569746 53.091899 
L 745.194991 53.091899 
L 745.194991 50.851095 
L 745.820236 50.851095 
L 745.820236 51.553027 
L 747.070725 51.583532 
L 747.070725 50.708614 
L 747.69597 50.708614 
L 747.69597 50.410677 
L 748.321215 50.410677 
L 748.321215 51.366809 
L 748.94646 51.366809 
L 748.94646 52.994921 
L 749.571704 52.994921 
L 749.571704 54.13341 
L 750.196949 54.13341 
L 750.196949 54.579134 
L 751.447439 54.536272 
L 751.447439 55.111069 
L 752.072684 55.111069 
L 752.072684 52.627613 
L 752.697928 52.627613 
L 752.697928 54.680029 
L 753.323173 54.680029 
L 753.323173 54.837498 
L 753.948418 54.837498 
L 753.948418 55.110544 
L 754.573663 55.110544 
L 754.573663 55.295995 
L 755.198907 55.295995 
L 755.198907 55.074735 
L 755.824152 55.074735 
L 755.824152 54.199129 
L 756.449397 54.199129 
L 756.449397 54.941764 
L 757.699887 55.002867 
L 757.699887 54.830481 
L 758.325131 54.830481 
L 758.325131 55.225653 
L 758.950376 55.225653 
L 758.950376 54.26606 
L 759.575621 54.26606 
L 759.575621 53.558081 
L 760.200866 53.558081 
L 760.200866 54.212996 
L 760.826111 54.212996 
L 760.826111 53.456953 
L 761.451355 53.456953 
L 761.451355 57.015512 
L 762.0766 57.015512 
L 762.0766 58.157909 
L 762.701845 58.157909 
L 762.701845 58.0419 
L 763.32709 58.0419 
L 763.32709 58.643919 
L 763.952335 58.643919 
L 763.952335 58.322831 
L 764.577579 58.322831 
L 764.577579 57.458519 
L 767.078559 57.415794 
L 767.078559 58.097374 
L 767.703803 58.097374 
L 767.703803 57.774793 
L 768.954293 57.854693 
L 768.954293 58.217449 
L 770.204782 58.126484 
L 770.204782 57.868763 
L 770.830027 57.868763 
L 770.830027 57.433226 
L 771.455272 57.433226 
L 771.455272 54.435998 
L 772.080517 54.435998 
L 772.080517 53.240374 
L 772.705762 53.240374 
L 772.705762 51.738347 
L 773.331006 51.738347 
L 773.331006 51.458072 
L 773.956251 51.458072 
L 773.956251 50.8819 
L 774.581496 50.8819 
L 774.581496 51.140612 
L 775.206741 51.140612 
L 775.206741 51.746142 
L 775.831986 51.746142 
L 775.831986 52.773114 
L 776.45723 52.773114 
L 776.45723 52.243401 
L 777.082475 52.243401 
L 777.082475 50.139999 
L 777.70772 50.139999 
L 777.70772 50.518628 
L 778.332965 50.518628 
L 778.332965 51.046938 
L 779.583454 51.129429 
L 779.583454 52.062868 
L 780.208699 52.062868 
L 780.208699 54.141893 
L 780.833944 54.141893 
L 780.833944 50.037067 
L 781.459189 50.037067 
L 781.459189 48.307076 
L 782.084434 48.307076 
L 782.084434 48.060055 
L 782.709678 48.060055 
L 782.709678 47.55195 
L 783.960168 47.527928 
L 783.960168 47.695435 
L 785.210658 47.605773 
L 785.210658 45.996054 
L 786.461147 45.93962 
L 786.461147 46.960334 
L 787.086392 46.960334 
L 787.086392 47.850271 
L 787.711637 47.850271 
L 787.711637 46.508109 
L 788.336881 46.508109 
L 788.336881 47.489237 
L 788.962126 47.489237 
L 788.962126 46.470327 
L 789.587371 46.470327 
L 789.587371 47.813928 
L 790.212616 47.813928 
L 790.212616 48.449857 
L 790.837861 48.449857 
L 790.837861 47.991951 
L 791.463105 47.991951 
L 791.463105 48.472082 
L 792.08835 48.472082 
L 792.08835 48.684652 
L 792.713595 48.684652 
L 792.713595 47.737428 
L 793.33884 47.737428 
L 793.33884 48.100448 
L 794.589329 48.106611 
L 794.589329 49.168185 
L 795.214574 49.168185 
L 795.214574 49.745059 
L 795.839819 49.745059 
L 795.839819 48.792218 
L 796.465064 48.792218 
L 796.465064 46.219232 
L 797.090309 46.219232 
L 797.090309 45.974811 
L 797.715553 45.974811 
L 797.715553 45.838191 
L 798.340798 45.838191 
L 798.340798 45.637493 
L 798.966043 45.637493 
L 798.966043 46.009747 
L 799.591288 46.009747 
L 799.591288 45.891355 
L 800.841777 45.992503 
L 800.841777 46.288071 
L 801.467022 46.288071 
L 801.467022 46.716664 
L 802.717512 46.621283 
L 802.717512 46.368908 
L 803.342756 46.368908 
L 803.342756 46.807412 
L 803.968001 46.807412 
L 803.968001 46.449459 
L 804.593246 46.449459 
L 804.593246 46.643602 
L 805.218491 46.643602 
L 805.218491 48.543775 
L 805.843736 48.543775 
L 805.843736 48.957246 
L 807.094225 49.014707 
L 807.094225 47.747237 
L 807.71947 47.747237 
L 807.71947 49.155439 
L 809.595204 49.183863 
L 809.595204 48.639765 
L 810.220449 48.639765 
L 810.220449 48.466639 
L 810.845694 48.466639 
L 810.845694 48.604799 
L 811.470939 48.604799 
L 811.470939 48.888026 
L 812.096184 48.888026 
L 812.096184 48.310801 
L 812.721428 48.310801 
L 812.721428 47.698838 
L 813.971918 47.597337 
L 813.971918 48.4705 
L 814.597163 48.4705 
L 814.597163 47.180953 
L 815.222408 47.180953 
L 815.222408 46.369597 
L 815.847652 46.369597 
L 815.847652 43.676541 
L 816.472897 43.676541 
L 816.472897 43.564492 
L 817.098142 43.564492 
L 817.098142 42.77781 
L 817.723387 42.77781 
L 817.723387 43.00323 
L 818.348632 43.00323 
L 818.348632 42.072416 
L 820.224366 42.112176 
L 820.224366 42.568286 
L 820.849611 42.568286 
L 820.849611 41.47155 
L 822.1001 41.435979 
L 822.1001 40.338141 
L 822.725345 40.338141 
L 822.725345 38.720625 
L 823.35059 38.720625 
L 823.35059 39.708345 
L 823.975835 39.708345 
L 823.975835 39.369085 
L 824.601079 39.369085 
L 824.601079 39.211287 
L 825.226324 39.211287 
L 825.226324 38.514112 
L 825.851569 38.514112 
L 825.851569 38.64028 
L 826.476814 38.64028 
L 826.476814 39.217486 
L 827.102059 39.217486 
L 827.102059 38.307786 
L 827.727303 38.307786 
L 827.727303 37.070783 
L 828.352548 37.070783 
L 828.352548 38.934507 
L 828.977793 38.934507 
L 828.977793 38.798584 
L 829.603038 38.798584 
L 829.603038 39.502528 
L 830.228283 39.502528 
L 830.228283 40.291343 
L 830.853527 40.291343 
L 830.853527 39.322712 
L 831.478772 39.322712 
L 831.478772 38.832073 
L 832.104017 38.832073 
L 832.104017 39.024877 
L 832.729262 39.024877 
L 832.729262 37.000982 
L 833.354507 37.000982 
L 833.354507 35.911296 
L 833.979751 35.911296 
L 833.979751 35.133756 
L 835.855486 35.117139 
L 835.855486 31.719666 
L 836.48073 31.719666 
L 836.48073 29.463866 
L 837.73122 29.484844 
L 837.73122 28.562339 
L 838.356465 28.562339 
L 838.356465 30.395735 
L 838.98171 30.395735 
L 838.98171 29.618666 
L 839.606954 29.618666 
L 839.606954 29.807888 
L 840.232199 29.807888 
L 840.232199 28.771569 
L 840.857444 28.771569 
L 840.857444 29.075449 
L 841.482689 29.075449 
L 841.482689 29.618594 
L 842.107934 29.618594 
L 842.107934 29.23874 
L 842.733178 29.23874 
L 842.733178 30.798011 
L 843.358423 30.798011 
L 843.358423 31.683923 
L 843.983668 31.683923 
L 843.983668 30.505816 
L 844.608913 30.505816 
L 844.608913 30.650907 
L 845.234158 30.650907 
L 845.234158 30.857279 
L 845.859402 30.857279 
L 845.859402 31.160229 
L 846.484647 31.160229 
L 846.484647 31.342059 
L 847.109892 31.342059 
L 847.109892 31.841477 
L 847.735137 31.841477 
L 847.735137 30.10759 
L 848.985626 30.099352 
L 848.985626 29.59329 
L 849.610871 29.59329 
L 849.610871 29.170754 
L 850.236116 29.170754 
L 850.236116 29.730108 
L 850.861361 29.730108 
L 850.861361 28.829332 
L 851.486606 28.829332 
L 851.486606 29.19303 
L 852.11185 29.19303 
L 852.11185 29.504758 
L 852.737095 29.504758 
L 852.737095 29.986313 
L 853.36234 29.986313 
L 853.36234 30.543124 
L 853.987585 30.543124 
L 853.987585 32.017569 
L 855.238074 32.00543 
L 855.238074 31.43818 
L 855.863319 31.43818 
L 855.863319 32.706105 
L 856.488564 32.706105 
L 856.488564 32.888472 
L 857.113809 32.888472 
L 857.113809 31.844016 
L 857.739053 31.844016 
L 857.739053 30.814197 
L 858.364298 30.814197 
L 858.364298 29.696415 
L 859.614788 29.601453 
L 859.614788 30.125683 
L 860.240033 30.125683 
L 860.240033 31.884535 
L 860.865277 31.884535 
L 860.865277 33.862164 
L 861.490522 33.862164 
L 861.490522 32.549637 
L 862.115767 32.549637 
L 862.115767 32.965678 
L 862.741012 32.965678 
L 862.741012 32.289471 
L 863.366257 32.289471 
L 863.366257 30.778302 
L 863.991501 30.778302 
L 863.991501 32.292568 
L 864.616746 32.292568 
L 864.616746 32.462907 
L 865.241991 32.462907 
L 865.241991 32.810146 
L 865.867236 32.810146 
L 865.867236 33.927167 
L 866.492481 33.927167 
L 866.492481 32.750921 
L 867.74297 32.730553 
L 867.74297 31.054862 
L 868.368215 31.054862 
L 868.368215 30.716121 
L 868.99346 30.716121 
L 868.99346 30.215113 
L 869.618704 30.215113 
L 869.618704 31.896963 
L 870.243949 31.896963 
L 870.243949 31.182903 
L 870.869194 31.182903 
L 870.869194 32.021031 
L 871.494439 32.021031 
L 871.494439 30.165959 
L 872.119684 30.165959 
L 872.119684 29.449492 
L 872.744928 29.449492 
L 872.744928 29.76518 
L 873.995418 29.870531 
L 873.995418 28.325502 
L 874.620663 28.325502 
L 874.620663 29.355558 
L 875.245908 29.355558 
L 875.245908 27.342418 
L 875.871152 27.342418 
L 875.871152 24.187724 
L 876.496397 24.187724 
L 876.496397 23.659539 
L 877.121642 23.659539 
L 877.121642 23.371008 
L 877.746887 23.371008 
L 877.746887 22.218433 
L 878.372132 22.218433 
L 878.372132 22.599071 
L 878.997376 22.599071 
L 878.997376 22.322988 
L 880.873111 22.283054 
L 880.873111 21.46784 
L 881.498356 21.46784 
L 881.498356 20.552727 
L 882.1236 20.552727 
L 882.1236 22.332795 
L 882.748845 22.332795 
L 882.748845 21.905271 
L 883.37409 21.905271 
L 883.37409 23.116668 
L 883.999335 23.116668 
L 883.999335 22.410647 
L 884.624579 22.410647 
L 884.624579 21.311557 
L 885.249824 21.311557 
L 885.249824 22.865636 
L 885.875069 22.865636 
L 885.875069 22.479054 
L 886.500314 22.479054 
L 886.500314 20.888923 
L 887.125559 20.888923 
L 887.125559 20.621607 
L 887.194182 20.621607 
" clip-path="url(#p762dc75dbe)" style="fill: none; stroke: #3572c6; stroke-width: 1.2; stroke-linecap: square"/>
   </g>
   <g id="line2d_77">
    <path d="M 75.557818 20.552727 
L 887.194182 20.552727 
L 887.194182 20.552727 
" clip-path="url(#p762dc75dbe)" style="fill: none; stroke: #83a83b; stroke-width: 1.2; stroke-linecap: square"/>
   </g>
   <g id="line2d_78">
    <path d="M 75.557818 23.116668 
L 887.194182 23.116668 
L 887.194182 23.116668 
" clip-path="url(#p762dc75dbe)" style="fill: none; stroke: #c44e52; stroke-width: 1.2; stroke-linecap: square"/>
   </g>
   <g id="line2d_79">
    <path d="M 882.1236 300.96 
L 882.1236 7.2 
" clip-path="url(#p762dc75dbe)" style="fill: none; stroke: #83a83b; stroke-width: 1.2; stroke-linecap: square"/>
   </g>
   <g id="line2d_80">
    <path d="M 883.999335 300.96 
L 883.999335 7.2 
" clip-path="url(#p762dc75dbe)" style="fill: none; stroke: #c44e52; stroke-width: 1.2; stroke-linecap: square"/>
   </g>
   <g id="patch_3">
    <path d="M 34.976 300.96 
L 34.976 7.2 
" style="fill: none; stroke: #899ab8; stroke-width: 1.12; stroke-linejoin: miter; stroke-linecap: square"/>
   </g>
   <g id="patch_4">
    <path d="M 927.776 300.96 
L 927.776 7.2 
" style="fill: none; stroke: #899ab8; stroke-width: 1.12; stroke-linejoin: miter; stroke-linecap: square"/>
   </g>
   <g id="patch_5">
    <path d="M 34.976 300.96 
L 927.776 300.96 
" style="fill: none; stroke: #899ab8; stroke-width: 1.12; stroke-linejoin: miter; stroke-linecap: square"/>
   </g>
   <g id="patch_6">
    <path d="M 34.976 7.2 
L 927.776 7.2 
" style="fill: none; stroke: #899ab8; stroke-width: 1.12; stroke-linejoin: miter; stroke-linecap: square"/>
   </g>
   <g id="text_15">
    <!-- 106156.01 -->
    <g style="fill: #83a83b" transform="translate(189.664993 20.552727) scale(0.132 -0.132)">
     <defs>
      <path id="DejaVuSans-2e" d="M 684 794 
L 1344 794 
L 1344 0 
L 684 0 
L 684 794 
z
" transform="scale(0.015625)"/>
     </defs>
     <use xlink:href="#DejaVuSans-31"/>
     <use xlink:href="#DejaVuSans-30" transform="translate(63.623047 0)"/>
     <use xlink:href="#DejaVuSans-36" transform="translate(127.246094 0)"/>
     <use xlink:href="#DejaVuSans-31" transform="translate(190.869141 0)"/>
     <use xlink:href="#DejaVuSans-35" transform="translate(254.492188 0)"/>
     <use xlink:href="#DejaVuSans-36" transform="translate(318.115234 0)"/>
     <use xlink:href="#DejaVuSans-2e" transform="translate(381.738281 0)"/>
     <use xlink:href="#DejaVuSans-30" transform="translate(413.525391 0)"/>
     <use xlink:href="#DejaVuSans-31" transform="translate(477.148438 0)"/>
    </g>
   </g>
   <g id="text_16">
    <!-- 93536.42 -->
    <g style="fill: #c44e52" transform="translate(189.664993 23.116668) scale(0.132 -0.132)">
     <defs>
      <path id="DejaVuSans-39" d="M 703 97 
L 703 672 
Q 941 559 1184 500 
Q 1428 441 1663 441 
Q 2288 441 2617 861 
Q 2947 1281 2994 2138 
Q 2813 1869 2534 1725 
Q 2256 1581 1919 1581 
Q 1219 1581 811 2004 
Q 403 2428 403 3163 
Q 403 3881 828 4315 
Q 1253 4750 1959 4750 
Q 2769 4750 3195 4129 
Q 3622 3509 3622 2328 
Q 3622 1225 3098 567 
Q 2575 -91 1691 -91 
Q 1453 -91 1209 -44 
Q 966 3 703 97 
z
M 1959 2075 
Q 2384 2075 2632 2365 
Q 2881 2656 2881 3163 
Q 2881 3666 2632 3958 
Q 2384 4250 1959 4250 
Q 1534 4250 1286 3958 
Q 1038 3666 1038 3163 
Q 1038 2656 1286 2365 
Q 1534 2075 1959 2075 
z
" transform="scale(0.015625)"/>
     </defs>
     <use xlink:href="#DejaVuSans-39"/>
     <use xlink:href="#DejaVuSans-33" transform="translate(63.623047 0)"/>
     <use xlink:href="#DejaVuSans-35" transform="translate(127.246094 0)"/>
     <use xlink:href="#DejaVuSans-33" transform="translate(190.869141 0)"/>
     <use xlink:href="#DejaVuSans-36" transform="translate(254.492188 0)"/>
     <use xlink:href="#DejaVuSans-2e" transform="translate(318.115234 0)"/>
     <use xlink:href="#DejaVuSans-34" transform="translate(349.902344 0)"/>
     <use xlink:href="#DejaVuSans-32" transform="translate(413.525391 0)"/>
    </g>
   </g>
   <g id="legend_1">
    <g id="patch_7">
     <path d="M 43.796 183.886875 
L 142.133094 183.886875 
Q 144.653094 183.886875 144.653094 181.366875 
L 144.653094 126.793125 
Q 144.653094 124.273125 142.133094 124.273125 
L 43.796 124.273125 
Q 41.276 124.273125 41.276 126.793125 
L 41.276 181.366875 
Q 41.276 183.886875 43.796 183.886875 
z
" style="fill: #373e4b; opacity: 0.8; stroke: #cccccc; stroke-width: 0.16; stroke-linejoin: miter"/>
    </g>
    <g id="line2d_81">
     <path d="M 46.316 134.477156 
L 46.316 134.477156 
L 58.916 134.477156 
L 58.916 134.477156 
L 71.516 134.477156 
" style="fill: none; stroke: #3572c6; stroke-width: 1.2; stroke-linecap: square"/>
    </g>
    <g id="text_17">
     <!-- USD/BTC -->
     <g style="fill: #b1bed6" transform="translate(81.596 138.887156) scale(0.126 -0.126)">
      <defs>
       <path id="DejaVuSans-55" d="M 556 4666 
L 1191 4666 
L 1191 1831 
Q 1191 1081 1462 751 
Q 1734 422 2344 422 
Q 2950 422 3222 751 
Q 3494 1081 3494 1831 
L 3494 4666 
L 4128 4666 
L 4128 1753 
Q 4128 841 3676 375 
Q 3225 -91 2344 -91 
Q 1459 -91 1007 375 
Q 556 841 556 1753 
L 556 4666 
z
" transform="scale(0.015625)"/>
       <path id="DejaVuSans-53" d="M 3425 4513 
L 3425 3897 
Q 3066 4069 2747 4153 
Q 2428 4238 2131 4238 
Q 1616 4238 1336 4038 
Q 1056 3838 1056 3469 
Q 1056 3159 1242 3001 
Q 1428 2844 1947 2747 
L 2328 2669 
Q 3034 2534 3370 2195 
Q 3706 1856 3706 1288 
Q 3706 609 3251 259 
Q 2797 -91 1919 -91 
Q 1588 -91 1214 -16 
Q 841 59 441 206 
L 441 856 
Q 825 641 1194 531 
Q 1563 422 1919 422 
Q 2459 422 2753 634 
Q 3047 847 3047 1241 
Q 3047 1584 2836 1778 
Q 2625 1972 2144 2069 
L 1759 2144 
Q 1053 2284 737 2584 
Q 422 2884 422 3419 
Q 422 4038 858 4394 
Q 1294 4750 2059 4750 
Q 2388 4750 2728 4690 
Q 3069 4631 3425 4513 
z
" transform="scale(0.015625)"/>
       <path id="DejaVuSans-2f" d="M 1625 4666 
L 2156 4666 
L 531 -594 
L 0 -594 
L 1625 4666 
z
" transform="scale(0.015625)"/>
       <path id="DejaVuSans-42" d="M 1259 2228 
L 1259 519 
L 2272 519 
Q 2781 519 3026 730 
Q 3272 941 3272 1375 
Q 3272 1813 3026 2020 
Q 2781 2228 2272 2228 
L 1259 2228 
z
M 1259 4147 
L 1259 2741 
L 2194 2741 
Q 2656 2741 2882 2914 
Q 3109 3088 3109 3444 
Q 3109 3797 2882 3972 
Q 2656 4147 2194 4147 
L 1259 4147 
z
M 628 4666 
L 2241 4666 
Q 2963 4666 3353 4366 
Q 3744 4066 3744 3513 
Q 3744 3084 3544 2831 
Q 3344 2578 2956 2516 
Q 3422 2416 3680 2098 
Q 3938 1781 3938 1306 
Q 3938 681 3513 340 
Q 3088 0 2303 0 
L 628 0 
L 628 4666 
z
" transform="scale(0.015625)"/>
       <path id="DejaVuSans-54" d="M -19 4666 
L 3928 4666 
L 3928 4134 
L 2272 4134 
L 2272 0 
L 1638 0 
L 1638 4134 
L -19 4134 
L -19 4666 
z
" transform="scale(0.015625)"/>
       <path id="DejaVuSans-43" d="M 4122 4306 
L 4122 3641 
Q 3803 3938 3442 4084 
Q 3081 4231 2675 4231 
Q 1875 4231 1450 3742 
Q 1025 3253 1025 2328 
Q 1025 1406 1450 917 
Q 1875 428 2675 428 
Q 3081 428 3442 575 
Q 3803 722 4122 1019 
L 4122 359 
Q 3791 134 3420 21 
Q 3050 -91 2638 -91 
Q 1578 -91 968 557 
Q 359 1206 359 2328 
Q 359 3453 968 4101 
Q 1578 4750 2638 4750 
Q 3056 4750 3426 4639 
Q 3797 4528 4122 4306 
z
" transform="scale(0.015625)"/>
      </defs>
      <use xlink:href="#DejaVuSans-55"/>
      <use xlink:href="#DejaVuSans-53" transform="translate(73.193359 0)"/>
      <use xlink:href="#DejaVuSans-44" transform="translate(136.669922 0)"/>
      <use xlink:href="#DejaVuSans-2f" transform="translate(213.671875 0)"/>
      <use xlink:href="#DejaVuSans-42" transform="translate(247.363281 0)"/>
      <use xlink:href="#DejaVuSans-54" transform="translate(315.966797 0)"/>
      <use xlink:href="#DejaVuSans-43" transform="translate(371.175781 0)"/>
     </g>
    </g>
    <g id="line2d_82">
     <path d="M 46.316 152.971594 
L 46.316 152.971594 
L 58.916 152.971594 
L 58.916 152.971594 
L 71.516 152.971594 
" style="fill: none; stroke: #83a83b; stroke-width: 1.2; stroke-linecap: square"/>
    </g>
    <g id="text_18">
     <!-- Max -->
     <g style="fill: #b1bed6" transform="translate(81.596 157.381594) scale(0.126 -0.126)">
      <defs>
       <path id="DejaVuSans-4d" d="M 628 4666 
L 1569 4666 
L 2759 1491 
L 3956 4666 
L 4897 4666 
L 4897 0 
L 4281 0 
L 4281 4097 
L 3078 897 
L 2444 897 
L 1241 4097 
L 1241 0 
L 628 0 
L 628 4666 
z
" transform="scale(0.015625)"/>
       <path id="DejaVuSans-78" d="M 3513 3500 
L 2247 1797 
L 3578 0 
L 2900 0 
L 1881 1375 
L 863 0 
L 184 0 
L 1544 1831 
L 300 3500 
L 978 3500 
L 1906 2253 
L 2834 3500 
L 3513 3500 
z
" transform="scale(0.015625)"/>
      </defs>
      <use xlink:href="#DejaVuSans-4d"/>
      <use xlink:href="#DejaVuSans-61" transform="translate(86.279297 0)"/>
      <use xlink:href="#DejaVuSans-78" transform="translate(147.558594 0)"/>
     </g>
    </g>
    <g id="line2d_83">
     <path d="M 46.316 171.466031 
L 46.316 171.466031 
L 58.916 171.466031 
L 58.916 171.466031 
L 71.516 171.466031 
" style="fill: none; stroke: #c44e52; stroke-width: 1.2; stroke-linecap: square"/>
    </g>
    <g id="text_19">
     <!-- local_Min -->
     <g style="fill: #b1bed6" transform="translate(81.596 175.876031) scale(0.126 -0.126)">
      <defs>
       <path id="DejaVuSans-6c" d="M 603 4863 
L 1178 4863 
L 1178 0 
L 603 0 
L 603 4863 
z
" transform="scale(0.015625)"/>
       <path id="DejaVuSans-6f" d="M 1959 3097 
Q 1497 3097 1228 2736 
Q 959 2375 959 1747 
Q 959 1119 1226 758 
Q 1494 397 1959 397 
Q 2419 397 2687 759 
Q 2956 1122 2956 1747 
Q 2956 2369 2687 2733 
Q 2419 3097 1959 3097 
z
M 1959 3584 
Q 2709 3584 3137 3096 
Q 3566 2609 3566 1747 
Q 3566 888 3137 398 
Q 2709 -91 1959 -91 
Q 1206 -91 779 398 
Q 353 888 353 1747 
Q 353 2609 779 3096 
Q 1206 3584 1959 3584 
z
" transform="scale(0.015625)"/>
       <path id="DejaVuSans-63" d="M 3122 3366 
L 3122 2828 
Q 2878 2963 2633 3030 
Q 2388 3097 2138 3097 
Q 1578 3097 1268 2742 
Q 959 2388 959 1747 
Q 959 1106 1268 751 
Q 1578 397 2138 397 
Q 2388 397 2633 464 
Q 2878 531 3122 666 
L 3122 134 
Q 2881 22 2623 -34 
Q 2366 -91 2075 -91 
Q 1284 -91 818 406 
Q 353 903 353 1747 
Q 353 2603 823 3093 
Q 1294 3584 2113 3584 
Q 2378 3584 2631 3529 
Q 2884 3475 3122 3366 
z
" transform="scale(0.015625)"/>
       <path id="DejaVuSans-5f" d="M 3263 -1063 
L 3263 -1509 
L -63 -1509 
L -63 -1063 
L 3263 -1063 
z
" transform="scale(0.015625)"/>
       <path id="DejaVuSans-69" d="M 603 3500 
L 1178 3500 
L 1178 0 
L 603 0 
L 603 3500 
z
M 603 4863 
L 1178 4863 
L 1178 4134 
L 603 4134 
L 603 4863 
z
" transform="scale(0.015625)"/>
       <path id="DejaVuSans-6e" d="M 3513 2113 
L 3513 0 
L 2938 0 
L 2938 2094 
Q 2938 2591 2744 2837 
Q 2550 3084 2163 3084 
Q 1697 3084 1428 2787 
Q 1159 2491 1159 1978 
L 1159 0 
L 581 0 
L 581 3500 
L 1159 3500 
L 1159 2956 
Q 1366 3272 1645 3428 
Q 1925 3584 2291 3584 
Q 2894 3584 3203 3211 
Q 3513 2838 3513 2113 
z
" transform="scale(0.015625)"/>
      </defs>
      <use xlink:href="#DejaVuSans-6c"/>
      <use xlink:href="#DejaVuSans-6f" transform="translate(27.783203 0)"/>
      <use xlink:href="#DejaVuSans-63" transform="translate(88.964844 0)"/>
      <use xlink:href="#DejaVuSans-61" transform="translate(143.945312 0)"/>
      <use xlink:href="#DejaVuSans-6c" transform="translate(205.224609 0)"/>
      <use xlink:href="#DejaVuSans-5f" transform="translate(233.007812 0)"/>
      <use xlink:href="#DejaVuSans-4d" transform="translate(283.007812 0)"/>
      <use xlink:href="#DejaVuSans-69" transform="translate(369.287109 0)"/>
      <use xlink:href="#DejaVuSans-6e" transform="translate(397.070312 0)"/>
     </g>
    </g>
   </g>
  </g>
 </g>
 <defs>
  <clipPath id="p762dc75dbe">
   <rect x="34.976" y="7.2" width="892.8" height="293.76"/>
  </clipPath>
 </defs>
</svg>
