<?xml version="1.0" encoding="utf-8" standalone="no"?>
<!DOCTYPE svg PUBLIC "-//W3C//DTD SVG 1.1//EN"
  "http://www.w3.org/Graphics/SVG/1.1/DTD/svg11.dtd">
<svg xmlns:xlink="http://www.w3.org/1999/xlink" width="934.976pt" height="358.290693pt" viewBox="0 0 934.976 358.290693" xmlns="http://www.w3.org/2000/svg" version="1.1">
 <metadata>
  <rdf:RDF xmlns:dc="http://purl.org/dc/elements/1.1/" xmlns:cc="http://creativecommons.org/ns#" xmlns:rdf="http://www.w3.org/1999/02/22-rdf-syntax-ns#">
   <cc:Work>
    <dc:type rdf:resource="http://purl.org/dc/dcmitype/StillImage"/>
    <dc:date>2025-05-01T11:38:12.097335</dc:date>
    <dc:format>image/svg+xml</dc:format>
    <dc:creator>
     <cc:Agent>
      <dc:title>Matplotlib v3.10.1, https://matplotlib.org/</dc:title>
     </cc:Agent>
    </dc:creator>
   </cc:Work>
  </rdf:RDF>
 </metadata>
 <defs>
  <style type="text/css">*{stroke-linejoin: round; stroke-linecap: butt}</style>
 </defs>
 <g id="figure_1">
  <g id="patch_1">
   <path d="M 0 358.290693 
L 934.976 358.290693 
L 934.976 0 
L 0 0 
z
" style="fill: #373e4b"/>
  </g>
  <g id="axes_1">
   <g id="patch_2">
    <path d="M 34.976 300.96 
L 927.776 300.96 
L 927.776 7.2 
L 34.976 7.2 
z
" style="fill: #373e4b"/>
   </g>
   <g id="matplotlib.axis_1">
    <g id="xtick_1">
     <g id="line2d_1">
      <path d="M 140.709663 300.96 
L 140.709663 7.2 
" clip-path="url(#pf95bc5389f)" style="fill: none; stroke: #546379; stroke-width: 1.12; stroke-linecap: square"/>
     </g>
     <g id="line2d_2"/>
     <g id="text_1">
      <!-- 2012 -->
      <g style="fill: #b1bed6" transform="translate(111.628623 330.884854) rotate(-30) scale(0.126 -0.126)">
       <defs>
        <path id="DejaVuSans-32" d="M 1228 531 
L 3431 531 
L 3431 0 
L 469 0 
L 469 531 
Q 828 903 1448 1529 
Q 2069 2156 2228 2338 
Q 2531 2678 2651 2914 
Q 2772 3150 2772 3378 
Q 2772 3750 2511 3984 
Q 2250 4219 1831 4219 
Q 1534 4219 1204 4116 
Q 875 4013 500 3803 
L 500 4441 
Q 881 4594 1212 4672 
Q 1544 4750 1819 4750 
Q 2544 4750 2975 4387 
Q 3406 4025 3406 3419 
Q 3406 3131 3298 2873 
Q 3191 2616 2906 2266 
Q 2828 2175 2409 1742 
Q 1991 1309 1228 531 
z
" transform="scale(0.015625)"/>
        <path id="DejaVuSans-30" d="M 2034 4250 
Q 1547 4250 1301 3770 
Q 1056 3291 1056 2328 
Q 1056 1369 1301 889 
Q 1547 409 2034 409 
Q 2525 409 2770 889 
Q 3016 1369 3016 2328 
Q 3016 3291 2770 3770 
Q 2525 4250 2034 4250 
z
M 2034 4750 
Q 2819 4750 3233 4129 
Q 3647 3509 3647 2328 
Q 3647 1150 3233 529 
Q 2819 -91 2034 -91 
Q 1250 -91 836 529 
Q 422 1150 422 2328 
Q 422 3509 836 4129 
Q 1250 4750 2034 4750 
z
" transform="scale(0.015625)"/>
        <path id="DejaVuSans-31" d="M 794 531 
L 1825 531 
L 1825 4091 
L 703 3866 
L 703 4441 
L 1819 4666 
L 2450 4666 
L 2450 531 
L 3481 531 
L 3481 0 
L 794 0 
L 794 531 
z
" transform="scale(0.015625)"/>
       </defs>
       <use xlink:href="#DejaVuSans-32"/>
       <use xlink:href="#DejaVuSans-30" transform="translate(63.623047 0)"/>
       <use xlink:href="#DejaVuSans-31" transform="translate(127.246094 0)"/>
       <use xlink:href="#DejaVuSans-32" transform="translate(190.869141 0)"/>
      </g>
     </g>
    </g>
    <g id="xtick_2">
     <g id="line2d_3">
      <path d="M 252.770835 300.96 
L 252.770835 7.2 
" clip-path="url(#pf95bc5389f)" style="fill: none; stroke: #546379; stroke-width: 1.12; stroke-linecap: square"/>
     </g>
     <g id="line2d_4"/>
     <g id="text_2">
      <!-- 2014 -->
      <g style="fill: #b1bed6" transform="translate(223.689796 330.884854) rotate(-30) scale(0.126 -0.126)">
       <defs>
        <path id="DejaVuSans-34" d="M 2419 4116 
L 825 1625 
L 2419 1625 
L 2419 4116 
z
M 2253 4666 
L 3047 4666 
L 3047 1625 
L 3713 1625 
L 3713 1100 
L 3047 1100 
L 3047 0 
L 2419 0 
L 2419 1100 
L 313 1100 
L 313 1709 
L 2253 4666 
z
" transform="scale(0.015625)"/>
       </defs>
       <use xlink:href="#DejaVuSans-32"/>
       <use xlink:href="#DejaVuSans-30" transform="translate(63.623047 0)"/>
       <use xlink:href="#DejaVuSans-31" transform="translate(127.246094 0)"/>
       <use xlink:href="#DejaVuSans-34" transform="translate(190.869141 0)"/>
      </g>
     </g>
    </g>
    <g id="xtick_3">
     <g id="line2d_5">
      <path d="M 364.67871 300.96 
L 364.67871 7.2 
" clip-path="url(#pf95bc5389f)" style="fill: none; stroke: #546379; stroke-width: 1.12; stroke-linecap: square"/>
     </g>
     <g id="line2d_6"/>
     <g id="text_3">
      <!-- 2016 -->
      <g style="fill: #b1bed6" transform="translate(335.59767 330.884854) rotate(-30) scale(0.126 -0.126)">
       <defs>
        <path id="DejaVuSans-36" d="M 2113 2584 
Q 1688 2584 1439 2293 
Q 1191 2003 1191 1497 
Q 1191 994 1439 701 
Q 1688 409 2113 409 
Q 2538 409 2786 701 
Q 3034 994 3034 1497 
Q 3034 2003 2786 2293 
Q 2538 2584 2113 2584 
z
M 3366 4563 
L 3366 3988 
Q 3128 4100 2886 4159 
Q 2644 4219 2406 4219 
Q 1781 4219 1451 3797 
Q 1122 3375 1075 2522 
Q 1259 2794 1537 2939 
Q 1816 3084 2150 3084 
Q 2853 3084 3261 2657 
Q 3669 2231 3669 1497 
Q 3669 778 3244 343 
Q 2819 -91 2113 -91 
Q 1303 -91 875 529 
Q 447 1150 447 2328 
Q 447 3434 972 4092 
Q 1497 4750 2381 4750 
Q 2619 4750 2861 4703 
Q 3103 4656 3366 4563 
z
" transform="scale(0.015625)"/>
       </defs>
       <use xlink:href="#DejaVuSans-32"/>
       <use xlink:href="#DejaVuSans-30" transform="translate(63.623047 0)"/>
       <use xlink:href="#DejaVuSans-31" transform="translate(127.246094 0)"/>
       <use xlink:href="#DejaVuSans-36" transform="translate(190.869141 0)"/>
      </g>
     </g>
    </g>
    <g id="xtick_4">
     <g id="line2d_7">
      <path d="M 476.739882 300.96 
L 476.739882 7.2 
" clip-path="url(#pf95bc5389f)" style="fill: none; stroke: #546379; stroke-width: 1.12; stroke-linecap: square"/>
     </g>
     <g id="line2d_8"/>
     <g id="text_4">
      <!-- 2018 -->
      <g style="fill: #b1bed6" transform="translate(447.658842 330.884854) rotate(-30) scale(0.126 -0.126)">
       <defs>
        <path id="DejaVuSans-38" d="M 2034 2216 
Q 1584 2216 1326 1975 
Q 1069 1734 1069 1313 
Q 1069 891 1326 650 
Q 1584 409 2034 409 
Q 2484 409 2743 651 
Q 3003 894 3003 1313 
Q 3003 1734 2745 1975 
Q 2488 2216 2034 2216 
z
M 1403 2484 
Q 997 2584 770 2862 
Q 544 3141 544 3541 
Q 544 4100 942 4425 
Q 1341 4750 2034 4750 
Q 2731 4750 3128 4425 
Q 3525 4100 3525 3541 
Q 3525 3141 3298 2862 
Q 3072 2584 2669 2484 
Q 3125 2378 3379 2068 
Q 3634 1759 3634 1313 
Q 3634 634 3220 271 
Q 2806 -91 2034 -91 
Q 1263 -91 848 271 
Q 434 634 434 1313 
Q 434 1759 690 2068 
Q 947 2378 1403 2484 
z
M 1172 3481 
Q 1172 3119 1398 2916 
Q 1625 2713 2034 2713 
Q 2441 2713 2670 2916 
Q 2900 3119 2900 3481 
Q 2900 3844 2670 4047 
Q 2441 4250 2034 4250 
Q 1625 4250 1398 4047 
Q 1172 3844 1172 3481 
z
" transform="scale(0.015625)"/>
       </defs>
       <use xlink:href="#DejaVuSans-32"/>
       <use xlink:href="#DejaVuSans-30" transform="translate(63.623047 0)"/>
       <use xlink:href="#DejaVuSans-31" transform="translate(127.246094 0)"/>
       <use xlink:href="#DejaVuSans-38" transform="translate(190.869141 0)"/>
      </g>
     </g>
    </g>
    <g id="xtick_5">
     <g id="line2d_9">
      <path d="M 588.647756 300.96 
L 588.647756 7.2 
" clip-path="url(#pf95bc5389f)" style="fill: none; stroke: #546379; stroke-width: 1.12; stroke-linecap: square"/>
     </g>
     <g id="line2d_10"/>
     <g id="text_5">
      <!-- 2020 -->
      <g style="fill: #b1bed6" transform="translate(559.566717 330.884854) rotate(-30) scale(0.126 -0.126)">
       <use xlink:href="#DejaVuSans-32"/>
       <use xlink:href="#DejaVuSans-30" transform="translate(63.623047 0)"/>
       <use xlink:href="#DejaVuSans-32" transform="translate(127.246094 0)"/>
       <use xlink:href="#DejaVuSans-30" transform="translate(190.869141 0)"/>
      </g>
     </g>
    </g>
    <g id="xtick_6">
     <g id="line2d_11">
      <path d="M 700.708929 300.96 
L 700.708929 7.2 
" clip-path="url(#pf95bc5389f)" style="fill: none; stroke: #546379; stroke-width: 1.12; stroke-linecap: square"/>
     </g>
     <g id="line2d_12"/>
     <g id="text_6">
      <!-- 2022 -->
      <g style="fill: #b1bed6" transform="translate(671.627889 330.884854) rotate(-30) scale(0.126 -0.126)">
       <use xlink:href="#DejaVuSans-32"/>
       <use xlink:href="#DejaVuSans-30" transform="translate(63.623047 0)"/>
       <use xlink:href="#DejaVuSans-32" transform="translate(127.246094 0)"/>
       <use xlink:href="#DejaVuSans-32" transform="translate(190.869141 0)"/>
      </g>
     </g>
    </g>
    <g id="xtick_7">
     <g id="line2d_13">
      <path d="M 812.616803 300.96 
L 812.616803 7.2 
" clip-path="url(#pf95bc5389f)" style="fill: none; stroke: #546379; stroke-width: 1.12; stroke-linecap: square"/>
     </g>
     <g id="line2d_14"/>
     <g id="text_7">
      <!-- 2024 -->
      <g style="fill: #b1bed6" transform="translate(783.535763 330.884854) rotate(-30) scale(0.126 -0.126)">
       <use xlink:href="#DejaVuSans-32"/>
       <use xlink:href="#DejaVuSans-30" transform="translate(63.623047 0)"/>
       <use xlink:href="#DejaVuSans-32" transform="translate(127.246094 0)"/>
       <use xlink:href="#DejaVuSans-34" transform="translate(190.869141 0)"/>
      </g>
     </g>
    </g>
    <g id="xtick_8">
     <g id="line2d_15">
      <path d="M 924.677976 300.96 
L 924.677976 7.2 
" clip-path="url(#pf95bc5389f)" style="fill: none; stroke: #546379; stroke-width: 1.12; stroke-linecap: square"/>
     </g>
     <g id="line2d_16"/>
     <g id="text_8">
      <!-- 2026 -->
      <g style="fill: #b1bed6" transform="translate(895.596936 330.884854) rotate(-30) scale(0.126 -0.126)">
       <use xlink:href="#DejaVuSans-32"/>
       <use xlink:href="#DejaVuSans-30" transform="translate(63.623047 0)"/>
       <use xlink:href="#DejaVuSans-32" transform="translate(127.246094 0)"/>
       <use xlink:href="#DejaVuSans-36" transform="translate(190.869141 0)"/>
      </g>
     </g>
    </g>
    <g id="text_9">
     <!-- Date -->
     <g style="fill: #b1bed6" transform="translate(464.166875 348.095943) scale(0.144 -0.144)">
      <defs>
       <path id="DejaVuSans-44" d="M 1259 4147 
L 1259 519 
L 2022 519 
Q 2988 519 3436 956 
Q 3884 1394 3884 2338 
Q 3884 3275 3436 3711 
Q 2988 4147 2022 4147 
L 1259 4147 
z
M 628 4666 
L 1925 4666 
Q 3281 4666 3915 4102 
Q 4550 3538 4550 2338 
Q 4550 1131 3912 565 
Q 3275 0 1925 0 
L 628 0 
L 628 4666 
z
" transform="scale(0.015625)"/>
       <path id="DejaVuSans-61" d="M 2194 1759 
Q 1497 1759 1228 1600 
Q 959 1441 959 1056 
Q 959 750 1161 570 
Q 1363 391 1709 391 
Q 2188 391 2477 730 
Q 2766 1069 2766 1631 
L 2766 1759 
L 2194 1759 
z
M 3341 1997 
L 3341 0 
L 2766 0 
L 2766 531 
Q 2569 213 2275 61 
Q 1981 -91 1556 -91 
Q 1019 -91 701 211 
Q 384 513 384 1019 
Q 384 1609 779 1909 
Q 1175 2209 1959 2209 
L 2766 2209 
L 2766 2266 
Q 2766 2663 2505 2880 
Q 2244 3097 1772 3097 
Q 1472 3097 1187 3025 
Q 903 2953 641 2809 
L 641 3341 
Q 956 3463 1253 3523 
Q 1550 3584 1831 3584 
Q 2591 3584 2966 3190 
Q 3341 2797 3341 1997 
z
" transform="scale(0.015625)"/>
       <path id="DejaVuSans-74" d="M 1172 4494 
L 1172 3500 
L 2356 3500 
L 2356 3053 
L 1172 3053 
L 1172 1153 
Q 1172 725 1289 603 
Q 1406 481 1766 481 
L 2356 481 
L 2356 0 
L 1766 0 
Q 1100 0 847 248 
Q 594 497 594 1153 
L 594 3053 
L 172 3053 
L 172 3500 
L 594 3500 
L 594 4494 
L 1172 4494 
z
" transform="scale(0.015625)"/>
       <path id="DejaVuSans-65" d="M 3597 1894 
L 3597 1613 
L 953 1613 
Q 991 1019 1311 708 
Q 1631 397 2203 397 
Q 2534 397 2845 478 
Q 3156 559 3463 722 
L 3463 178 
Q 3153 47 2828 -22 
Q 2503 -91 2169 -91 
Q 1331 -91 842 396 
Q 353 884 353 1716 
Q 353 2575 817 3079 
Q 1281 3584 2069 3584 
Q 2775 3584 3186 3129 
Q 3597 2675 3597 1894 
z
M 3022 2063 
Q 3016 2534 2758 2815 
Q 2500 3097 2075 3097 
Q 1594 3097 1305 2825 
Q 1016 2553 972 2059 
L 3022 2063 
z
" transform="scale(0.015625)"/>
      </defs>
      <use xlink:href="#DejaVuSans-44"/>
      <use xlink:href="#DejaVuSans-61" transform="translate(77.001953 0)"/>
      <use xlink:href="#DejaVuSans-74" transform="translate(138.28125 0)"/>
      <use xlink:href="#DejaVuSans-65" transform="translate(177.490234 0)"/>
     </g>
    </g>
   </g>
   <g id="matplotlib.axis_2">
    <g id="ytick_1">
     <g id="line2d_17">
      <path d="M 34.976 255.001875 
L 927.776 255.001875 
" clip-path="url(#pf95bc5389f)" style="fill: none; stroke: #546379; stroke-width: 1.12; stroke-linecap: square"/>
     </g>
     <g id="line2d_18"/>
     <g id="text_10">
      <!-- $\mathdefault{10^{0}}$ -->
      <g style="fill: #b1bed6" transform="translate(7.2 259.788891) scale(0.126 -0.126)">
       <use xlink:href="#DejaVuSans-31" transform="translate(0 0.765625)"/>
       <use xlink:href="#DejaVuSans-30" transform="translate(63.623047 0.765625)"/>
       <use xlink:href="#DejaVuSans-30" transform="translate(128.203125 39.046875) scale(0.7)"/>
      </g>
     </g>
    </g>
    <g id="ytick_2">
     <g id="line2d_19">
      <path d="M 34.976 208.354097 
L 927.776 208.354097 
" clip-path="url(#pf95bc5389f)" style="fill: none; stroke: #546379; stroke-width: 1.12; stroke-linecap: square"/>
     </g>
     <g id="line2d_20"/>
     <g id="text_11">
      <!-- $\mathdefault{10^{1}}$ -->
      <g style="fill: #b1bed6" transform="translate(7.2 213.141113) scale(0.126 -0.126)">
       <use xlink:href="#DejaVuSans-31" transform="translate(0 0.684375)"/>
       <use xlink:href="#DejaVuSans-30" transform="translate(63.623047 0.684375)"/>
       <use xlink:href="#DejaVuSans-31" transform="translate(128.203125 38.965625) scale(0.7)"/>
      </g>
     </g>
    </g>
    <g id="ytick_3">
     <g id="line2d_21">
      <path d="M 34.976 161.706319 
L 927.776 161.706319 
" clip-path="url(#pf95bc5389f)" style="fill: none; stroke: #546379; stroke-width: 1.12; stroke-linecap: square"/>
     </g>
     <g id="line2d_22"/>
     <g id="text_12">
      <!-- $\mathdefault{10^{2}}$ -->
      <g style="fill: #b1bed6" transform="translate(7.2 166.493335) scale(0.126 -0.126)">
       <use xlink:href="#DejaVuSans-31" transform="translate(0 0.765625)"/>
       <use xlink:href="#DejaVuSans-30" transform="translate(63.623047 0.765625)"/>
       <use xlink:href="#DejaVuSans-32" transform="translate(128.203125 39.046875) scale(0.7)"/>
      </g>
     </g>
    </g>
    <g id="ytick_4">
     <g id="line2d_23">
      <path d="M 34.976 115.058541 
L 927.776 115.058541 
" clip-path="url(#pf95bc5389f)" style="fill: none; stroke: #546379; stroke-width: 1.12; stroke-linecap: square"/>
     </g>
     <g id="line2d_24"/>
     <g id="text_13">
      <!-- $\mathdefault{10^{3}}$ -->
      <g style="fill: #b1bed6" transform="translate(7.2 119.845556) scale(0.126 -0.126)">
       <defs>
        <path id="DejaVuSans-33" d="M 2597 2516 
Q 3050 2419 3304 2112 
Q 3559 1806 3559 1356 
Q 3559 666 3084 287 
Q 2609 -91 1734 -91 
Q 1441 -91 1130 -33 
Q 819 25 488 141 
L 488 750 
Q 750 597 1062 519 
Q 1375 441 1716 441 
Q 2309 441 2620 675 
Q 2931 909 2931 1356 
Q 2931 1769 2642 2001 
Q 2353 2234 1838 2234 
L 1294 2234 
L 1294 2753 
L 1863 2753 
Q 2328 2753 2575 2939 
Q 2822 3125 2822 3475 
Q 2822 3834 2567 4026 
Q 2313 4219 1838 4219 
Q 1578 4219 1281 4162 
Q 984 4106 628 3988 
L 628 4550 
Q 988 4650 1302 4700 
Q 1616 4750 1894 4750 
Q 2613 4750 3031 4423 
Q 3450 4097 3450 3541 
Q 3450 3153 3228 2886 
Q 3006 2619 2597 2516 
z
" transform="scale(0.015625)"/>
       </defs>
       <use xlink:href="#DejaVuSans-31" transform="translate(0 0.765625)"/>
       <use xlink:href="#DejaVuSans-30" transform="translate(63.623047 0.765625)"/>
       <use xlink:href="#DejaVuSans-33" transform="translate(128.203125 39.046875) scale(0.7)"/>
      </g>
     </g>
    </g>
    <g id="ytick_5">
     <g id="line2d_25">
      <path d="M 34.976 68.410763 
L 927.776 68.410763 
" clip-path="url(#pf95bc5389f)" style="fill: none; stroke: #546379; stroke-width: 1.12; stroke-linecap: square"/>
     </g>
     <g id="line2d_26"/>
     <g id="text_14">
      <!-- $\mathdefault{10^{4}}$ -->
      <g style="fill: #b1bed6" transform="translate(7.2 73.197778) scale(0.126 -0.126)">
       <use xlink:href="#DejaVuSans-31" transform="translate(0 0.684375)"/>
       <use xlink:href="#DejaVuSans-30" transform="translate(63.623047 0.684375)"/>
       <use xlink:href="#DejaVuSans-34" transform="translate(128.203125 38.965625) scale(0.7)"/>
      </g>
     </g>
    </g>
    <g id="ytick_6">
     <g id="line2d_27">
      <path d="M 34.976 21.762985 
L 927.776 21.762985 
" clip-path="url(#pf95bc5389f)" style="fill: none; stroke: #546379; stroke-width: 1.12; stroke-linecap: square"/>
     </g>
     <g id="line2d_28"/>
     <g id="text_15">
      <!-- $\mathdefault{10^{5}}$ -->
      <g style="fill: #b1bed6" transform="translate(7.2 26.55) scale(0.126 -0.126)">
       <defs>
        <path id="DejaVuSans-35" d="M 691 4666 
L 3169 4666 
L 3169 4134 
L 1269 4134 
L 1269 2991 
Q 1406 3038 1543 3061 
Q 1681 3084 1819 3084 
Q 2600 3084 3056 2656 
Q 3513 2228 3513 1497 
Q 3513 744 3044 326 
Q 2575 -91 1722 -91 
Q 1428 -91 1123 -41 
Q 819 9 494 109 
L 494 744 
Q 775 591 1075 516 
Q 1375 441 1709 441 
Q 2250 441 2565 725 
Q 2881 1009 2881 1497 
Q 2881 1984 2565 2268 
Q 2250 2553 1709 2553 
Q 1456 2553 1204 2497 
Q 953 2441 691 2322 
L 691 4666 
z
" transform="scale(0.015625)"/>
       </defs>
       <use xlink:href="#DejaVuSans-31" transform="translate(0 0.684375)"/>
       <use xlink:href="#DejaVuSans-30" transform="translate(63.623047 0.684375)"/>
       <use xlink:href="#DejaVuSans-35" transform="translate(128.203125 38.965625) scale(0.7)"/>
      </g>
     </g>
    </g>
    <g id="ytick_7">
     <g id="line2d_29"/>
    </g>
    <g id="ytick_8">
     <g id="line2d_30"/>
    </g>
    <g id="ytick_9">
     <g id="line2d_31"/>
    </g>
    <g id="ytick_10">
     <g id="line2d_32"/>
    </g>
    <g id="ytick_11">
     <g id="line2d_33"/>
    </g>
    <g id="ytick_12">
     <g id="line2d_34"/>
    </g>
    <g id="ytick_13">
     <g id="line2d_35"/>
    </g>
    <g id="ytick_14">
     <g id="line2d_36"/>
    </g>
    <g id="ytick_15">
     <g id="line2d_37"/>
    </g>
    <g id="ytick_16">
     <g id="line2d_38"/>
    </g>
    <g id="ytick_17">
     <g id="line2d_39"/>
    </g>
    <g id="ytick_18">
     <g id="line2d_40"/>
    </g>
    <g id="ytick_19">
     <g id="line2d_41"/>
    </g>
    <g id="ytick_20">
     <g id="line2d_42"/>
    </g>
    <g id="ytick_21">
     <g id="line2d_43"/>
    </g>
    <g id="ytick_22">
     <g id="line2d_44"/>
    </g>
    <g id="ytick_23">
     <g id="line2d_45"/>
    </g>
    <g id="ytick_24">
     <g id="line2d_46"/>
    </g>
    <g id="ytick_25">
     <g id="line2d_47"/>
    </g>
    <g id="ytick_26">
     <g id="line2d_48"/>
    </g>
    <g id="ytick_27">
     <g id="line2d_49"/>
    </g>
    <g id="ytick_28">
     <g id="line2d_50"/>
    </g>
    <g id="ytick_29">
     <g id="line2d_51"/>
    </g>
    <g id="ytick_30">
     <g id="line2d_52"/>
    </g>
    <g id="ytick_31">
     <g id="line2d_53"/>
    </g>
    <g id="ytick_32">
     <g id="line2d_54"/>
    </g>
    <g id="ytick_33">
     <g id="line2d_55"/>
    </g>
    <g id="ytick_34">
     <g id="line2d_56"/>
    </g>
    <g id="ytick_35">
     <g id="line2d_57"/>
    </g>
    <g id="ytick_36">
     <g id="line2d_58"/>
    </g>
    <g id="ytick_37">
     <g id="line2d_59"/>
    </g>
    <g id="ytick_38">
     <g id="line2d_60"/>
    </g>
    <g id="ytick_39">
     <g id="line2d_61"/>
    </g>
    <g id="ytick_40">
     <g id="line2d_62"/>
    </g>
    <g id="ytick_41">
     <g id="line2d_63"/>
    </g>
    <g id="ytick_42">
     <g id="line2d_64"/>
    </g>
    <g id="ytick_43">
     <g id="line2d_65"/>
    </g>
    <g id="ytick_44">
     <g id="line2d_66"/>
    </g>
    <g id="ytick_45">
     <g id="line2d_67"/>
    </g>
    <g id="ytick_46">
     <g id="line2d_68"/>
    </g>
    <g id="ytick_47">
     <g id="line2d_69"/>
    </g>
    <g id="ytick_48">
     <g id="line2d_70"/>
    </g>
    <g id="ytick_49">
     <g id="line2d_71"/>
    </g>
    <g id="ytick_50">
     <g id="line2d_72"/>
    </g>
    <g id="ytick_51">
     <g id="line2d_73"/>
    </g>
    <g id="ytick_52">
     <g id="line2d_74"/>
    </g>
    <g id="ytick_53">
     <g id="line2d_75"/>
    </g>
    <g id="ytick_54">
     <g id="line2d_76"/>
    </g>
    <g id="ytick_55">
     <g id="line2d_77"/>
    </g>
   </g>
   <g id="line2d_78">
    <path d="M 75.557818 287.607273 
L 75.557818 283.086636 
L 76.171012 283.086636 
L 76.171012 278.085529 
L 76.784206 278.085529 
L 76.784206 279.393007 
L 77.3974 279.393007 
L 77.3974 280.790725 
L 78.010594 280.790725 
L 78.010594 280.079814 
L 78.623787 280.079814 
L 78.623787 280.790725 
L 79.850175 280.790725 
L 79.850175 282.292069 
L 80.463369 282.292069 
L 80.463369 284.775853 
L 81.689756 284.775853 
L 81.689756 283.086636 
L 82.30295 283.086636 
L 82.30295 282.292069 
L 82.916144 282.292069 
L 82.916144 283.086636 
L 83.529338 283.086636 
L 83.529338 281.527492 
L 84.142532 281.527492 
L 84.142532 279.393007 
L 85.368919 279.393007 
L 85.368919 278.085529 
L 85.982113 278.085529 
L 85.982113 275.699378 
L 86.595307 275.699378 
L 86.595307 273.564892 
L 87.208501 273.564892 
L 87.208501 274.604037 
L 87.821695 274.604037 
L 87.821695 271.634015 
L 88.434889 271.634015 
L 88.434889 271.178741 
L 89.048082 271.178741 
L 89.048082 256.691092 
L 90.27447 256.691092 
L 90.27447 255.618944 
L 90.887664 255.618944 
L 90.887664 253.442731 
L 91.500858 253.442731 
L 91.500858 254.013441 
L 92.114052 254.013441 
L 92.114052 257.591635 
L 92.727245 257.591635 
L 92.727245 255.001875 
L 93.340439 255.001875 
L 93.340439 255.618944 
L 93.953633 255.618944 
L 93.953633 256.691092 
L 94.566827 256.691092 
L 94.566827 257.591635 
L 95.180021 257.591635 
L 95.180021 256.912503 
L 95.793215 256.912503 
L 95.793215 257.823168 
L 96.406408 257.823168 
L 96.406408 259.777344 
L 97.019602 259.777344 
L 97.019602 257.362719 
L 97.632796 257.362719 
L 97.632796 259.522512 
L 98.859184 259.522512 
L 98.859184 260.82999 
L 99.472378 260.82999 
L 99.472378 260.561656 
L 100.085571 260.561656 
L 100.085571 255.411159 
L 100.698765 255.411159 
L 100.698765 251.308246 
L 101.311959 251.308246 
L 101.311959 248.476826 
L 101.925153 248.476826 
L 101.925153 243.320338 
L 102.538347 243.320338 
L 102.538347 226.22018 
L 103.151541 226.22018 
L 103.151541 229.277958 
L 103.764734 229.277958 
L 103.764734 227.378145 
L 104.377928 227.378145 
L 104.377928 216.926032 
L 104.991122 216.926032 
L 104.991122 211.718176 
L 105.604316 211.718176 
L 105.604316 215.637895 
L 106.21751 215.637895 
L 106.21751 214.813209 
L 106.830704 214.813209 
L 106.830704 211.222015 
L 107.443897 211.222015 
L 107.443897 209.03392 
L 108.057091 209.03392 
L 108.057091 195.297618 
L 108.670285 195.297618 
L 108.670285 184.575858 
L 109.283479 184.575858 
L 109.283479 190.90714 
L 109.896673 190.90714 
L 109.896673 195.489951 
L 110.509867 195.489951 
L 110.509867 199.619831 
L 111.12306 199.619831 
L 111.12306 196.924511 
L 111.736254 196.924511 
L 111.736254 197.191308 
L 112.349448 197.191308 
L 112.349448 199.164264 
L 112.962642 199.164264 
L 112.962642 198.706129 
L 113.575836 198.706129 
L 113.575836 200.04551 
L 114.18903 200.04551 
L 114.18903 201.178975 
L 114.802223 201.178975 
L 114.802223 200.770829 
L 115.415417 200.770829 
L 115.415417 201.639097 
L 116.028611 201.639097 
L 116.028611 201.393357 
L 116.641805 201.393357 
L 116.641805 200.715172 
L 117.254999 200.715172 
L 117.254999 205.522678 
L 117.868193 205.522678 
L 117.868193 209.054881 
L 118.481386 209.054881 
L 118.481386 208.496408 
L 119.09458 208.496408 
L 119.09458 205.770821 
L 119.707774 205.770821 
L 119.707774 205.086986 
L 120.320968 205.086986 
L 120.320968 205.878106 
L 120.934162 205.878106 
L 120.934162 209.435937 
L 121.547356 209.435937 
L 121.547356 211.742108 
L 122.160549 211.742108 
L 122.160549 212.202282 
L 122.773743 212.202282 
L 122.773743 216.286706 
L 123.386937 216.286706 
L 123.386937 218.071265 
L 124.000131 218.071265 
L 124.000131 222.315604 
L 124.613325 222.315604 
L 124.613325 218.10402 
L 125.226519 218.10402 
L 125.226519 220.502468 
L 125.839712 220.502468 
L 125.839712 222.641054 
L 126.452906 222.641054 
L 126.452906 222.154818 
L 127.0661 222.154818 
L 127.0661 223.265735 
L 127.679294 223.265735 
L 127.679294 226.122547 
L 128.292488 226.122547 
L 128.292488 226.86653 
L 128.905681 226.86653 
L 128.905681 235.722359 
L 129.518875 235.722359 
L 129.518875 230.691941 
L 130.132069 230.691941 
L 130.132069 232.080944 
L 130.745263 232.080944 
L 130.745263 230.329086 
L 131.358457 230.329086 
L 131.358457 231.311527 
L 131.971651 231.311527 
L 131.971651 231.501159 
L 132.584844 231.501159 
L 132.584844 232.015698 
L 133.198038 232.015698 
L 133.198038 235.64429 
L 133.811232 235.64429 
L 133.811232 236.848142 
L 134.424426 236.848142 
L 134.424426 236.601581 
L 135.03762 236.601581 
L 135.03762 235.334989 
L 135.650814 235.334989 
L 135.650814 231.821211 
L 136.264007 231.821211 
L 136.264007 232.34405 
L 136.877201 232.34405 
L 136.877201 231.950661 
L 137.490395 231.950661 
L 137.490395 231.061414 
L 138.103589 231.061414 
L 138.103589 230.449317 
L 138.716783 230.449317 
L 138.716783 227.018663 
L 139.329977 227.018663 
L 139.329977 225.688928 
L 139.94317 225.688928 
L 139.94317 224.666474 
L 140.556364 224.666474 
L 140.556364 220.950197 
L 141.169558 220.950197 
L 141.169558 215.407022 
L 141.782752 215.407022 
L 141.782752 215.292565 
L 142.395946 215.292565 
L 142.395946 215.464494 
L 143.00914 215.464494 
L 143.00914 217.490557 
L 143.622333 217.490557 
L 143.622333 217.174992 
L 144.235527 217.174992 
L 144.235527 219.741993 
L 144.848721 219.741993 
L 144.848721 219.920486 
L 145.461915 219.920486 
L 145.461915 218.736641 
L 146.075109 218.736641 
L 146.075109 219.250419 
L 147.301496 219.319917 
L 147.301496 223.478317 
L 147.91469 223.478317 
L 147.91469 224.530963 
L 148.527884 224.530963 
L 148.527884 221.719127 
L 149.141078 221.719127 
L 149.141078 222.477675 
L 149.754272 222.477675 
L 149.754272 223.181323 
L 150.367466 223.181323 
L 150.367466 222.194895 
L 150.980659 222.194895 
L 150.980659 222.477675 
L 151.593853 222.477675 
L 151.593853 220.687821 
L 152.207047 220.687821 
L 152.207047 221.485368 
L 152.820241 221.485368 
L 152.820241 223.181323 
L 153.433435 223.181323 
L 153.433435 223.3505 
L 154.046629 223.3505 
L 154.046629 222.641054 
L 155.273016 222.5592 
L 155.273016 223.223485 
L 155.88621 223.223485 
L 155.88621 222.518397 
L 157.112598 222.437036 
L 157.112598 221.446669 
L 157.725792 221.446669 
L 157.725792 221.640907 
L 158.338985 221.640907 
L 158.338985 222.035061 
L 158.952179 222.035061 
L 158.952179 221.679979 
L 159.565373 221.679979 
L 159.565373 221.995299 
L 160.791761 221.995299 
L 160.791761 222.194895 
L 161.404955 222.194895 
L 161.404955 221.876478 
L 163.244536 221.797649 
L 163.244536 221.679979 
L 163.85773 221.679979 
L 163.85773 221.331014 
L 164.470924 221.331014 
L 164.470924 220.245792 
L 165.697311 220.173049 
L 165.697311 217.811116 
L 166.310505 217.811116 
L 166.310505 216.895126 
L 166.923699 216.895126 
L 166.923699 216.649561 
L 167.536893 216.649561 
L 167.536893 216.833455 
L 168.150087 216.833455 
L 168.150087 216.437106 
L 168.763281 216.437106 
L 168.763281 216.286706 
L 169.376474 216.286706 
L 169.376474 215.637895 
L 169.989668 215.637895 
L 169.989668 213.258194 
L 170.602862 213.258194 
L 170.602862 209.457318 
L 171.216056 209.457318 
L 171.216056 209.329367 
L 171.82925 209.329367 
L 171.82925 210.943857 
L 172.442443 210.943857 
L 172.442443 210.601445 
L 173.055637 210.601445 
L 173.055637 208.112438 
L 173.668831 208.112438 
L 173.668831 206.003993 
L 174.282025 206.003993 
L 174.282025 205.347275 
L 174.895219 205.347275 
L 174.895219 204.160223 
L 175.508413 204.160223 
L 175.508413 200.854601 
L 176.121606 200.854601 
L 176.121606 207.834097 
L 176.7348 207.834097 
L 176.7348 206.441646 
L 177.347994 206.441646 
L 177.347994 206.589656 
L 177.961188 206.589656 
L 177.961188 207.327112 
L 178.574382 207.327112 
L 178.574382 205.931962 
L 179.800769 205.985961 
L 179.800769 204.932403 
L 180.413963 204.932403 
L 180.413963 203.623856 
L 181.027157 203.623856 
L 181.027157 204.193191 
L 181.640351 204.193191 
L 181.640351 203.898393 
L 182.253545 203.898393 
L 182.253545 203.704217 
L 182.866739 203.704217 
L 182.866739 203.085698 
L 183.479932 203.085698 
L 183.479932 204.160223 
L 184.093126 204.160223 
L 184.093126 204.492343 
L 184.70632 204.492343 
L 184.70632 204.694261 
L 185.319514 204.694261 
L 185.319514 205.000961 
L 185.932708 205.000961 
L 185.932708 205.417254 
L 186.545902 205.417254 
L 186.545902 206.552552 
L 187.159095 206.552552 
L 187.159095 206.313018 
L 187.772289 206.313018 
L 187.772289 206.478547 
L 188.998677 206.515516 
L 188.998677 206.294709 
L 189.611871 206.294709 
L 189.611871 204.966653 
L 190.225065 204.966653 
L 190.225065 204.127309 
L 190.838258 204.127309 
L 190.838258 203.639903 
L 192.064646 203.575792 
L 192.064646 202.899122 
L 192.67784 202.899122 
L 192.67784 202.199422 
L 193.291034 202.199422 
L 193.291034 201.829048 
L 193.904228 201.829048 
L 193.904228 202.080164 
L 195.130615 201.976386 
L 195.130615 202.349488 
L 195.743809 202.349488 
L 195.743809 202.050459 
L 196.357003 202.050459 
L 196.357003 202.244325 
L 197.583391 202.214379 
L 197.583391 201.552025 
L 198.196584 201.552025 
L 198.196584 201.093854 
L 198.809778 201.093854 
L 198.809778 199.436373 
L 199.422972 199.436373 
L 199.422972 197.449835 
L 200.036166 197.449835 
L 200.036166 195.847374 
L 200.64936 195.847374 
L 200.64936 194.535799 
L 201.262554 194.535799 
L 201.262554 193.323283 
L 201.875747 193.323283 
L 201.875747 192.818333 
L 202.488941 192.818333 
L 202.488941 190.643427 
L 203.102135 190.643427 
L 203.102135 188.082423 
L 203.715329 188.082423 
L 203.715329 188.246948 
L 204.328523 188.246948 
L 204.328523 185.749305 
L 204.941717 185.749305 
L 204.941717 185.302883 
L 205.55491 185.302883 
L 205.55491 183.413369 
L 206.168104 183.413369 
L 206.168104 179.280902 
L 206.781298 179.280902 
L 206.781298 177.614851 
L 207.394492 177.614851 
L 207.394492 177.062661 
L 208.007686 177.062661 
L 208.007686 174.907435 
L 208.62088 174.907435 
L 208.62088 168.859927 
L 209.234073 168.859927 
L 209.234073 166.535712 
L 209.847267 166.535712 
L 209.847267 163.285732 
L 210.460461 163.285732 
L 210.460461 156.235874 
L 211.073655 156.235874 
L 211.073655 151.770987 
L 211.686849 151.770987 
L 211.686849 157.201896 
L 212.300043 157.201896 
L 212.300043 169.489635 
L 212.913236 169.489635 
L 212.913236 158.195845 
L 213.52643 158.195845 
L 213.52643 154.531197 
L 214.139624 154.531197 
L 214.139624 156.62623 
L 214.752818 156.62623 
L 214.752818 158.5256 
L 215.366012 158.5256 
L 215.366012 158.70299 
L 215.979206 158.70299 
L 215.979206 159.285981 
L 216.592399 159.285981 
L 216.592399 158.3549 
L 217.205593 158.3549 
L 217.205593 157.459808 
L 218.431981 157.561917 
L 218.431981 156.083348 
L 219.658368 156.035822 
L 219.658368 157.608201 
L 220.271562 157.608201 
L 220.271562 158.187329 
L 220.884756 158.187329 
L 220.884756 160.506753 
L 221.49795 160.506753 
L 221.49795 161.710371 
L 222.111144 161.710371 
L 222.111144 160.261924 
L 222.724338 160.261924 
L 222.724338 160.081627 
L 223.337531 160.081627 
L 223.337531 160.911751 
L 223.950725 160.911751 
L 223.950725 162.271242 
L 224.563919 162.271242 
L 224.563919 166.216829 
L 225.177113 166.216829 
L 225.177113 167.135903 
L 225.790307 167.135903 
L 225.790307 162.962 
L 226.403501 162.962 
L 226.403501 162.312948 
L 227.016694 162.312948 
L 227.016694 163.978582 
L 227.629888 163.978582 
L 227.629888 162.850227 
L 228.243082 162.850227 
L 228.243082 161.971411 
L 228.856276 161.971411 
L 228.856276 160.791336 
L 229.46947 160.791336 
L 229.46947 160.388714 
L 230.082664 160.388714 
L 230.082664 161.146867 
L 230.695857 161.146867 
L 230.695857 159.895509 
L 231.309051 159.895509 
L 231.309051 161.765155 
L 231.922245 161.765155 
L 231.922245 159.696403 
L 232.535439 159.696403 
L 232.535439 159.180191 
L 233.148633 159.180191 
L 233.148633 158.267522 
L 233.761827 158.267522 
L 233.761827 156.377094 
L 234.37502 156.377094 
L 234.37502 158.420251 
L 234.988214 158.420251 
L 234.988214 157.674504 
L 235.601408 157.674504 
L 235.601408 157.340238 
L 236.214602 157.340238 
L 236.214602 156.844973 
L 236.827796 156.844973 
L 236.827796 157.523978 
L 237.44099 157.523978 
L 237.44099 157.242487 
L 238.054183 157.242487 
L 238.054183 156.9841 
L 238.667377 156.9841 
L 238.667377 157.68779 
L 239.280571 157.68779 
L 239.280571 157.328809 
L 239.893765 157.328809 
L 239.893765 156.770208 
L 240.506959 156.770208 
L 240.506959 155.153397 
L 241.120153 155.153397 
L 241.120153 149.121073 
L 241.733346 149.121073 
L 241.733346 148.142593 
L 242.34654 148.142593 
L 242.34654 146.976794 
L 242.959734 146.976794 
L 242.959734 147.362312 
L 243.572928 147.362312 
L 243.572928 142.934499 
L 244.186122 142.934499 
L 244.186122 137.518796 
L 244.799316 137.518796 
L 244.799316 133.979227 
L 245.412509 133.979227 
L 245.412509 130.140066 
L 246.025703 130.140066 
L 246.025703 121.804751 
L 246.638897 121.804751 
L 246.638897 119.213781 
L 247.252091 119.213781 
L 247.252091 112.511856 
L 247.865285 112.511856 
L 247.865285 114.066056 
L 248.478479 114.066056 
L 248.478479 122.114048 
L 249.091672 122.114048 
L 249.091672 117.720255 
L 249.704866 117.720255 
L 249.704866 118.043964 
L 250.31806 118.043964 
L 250.31806 122.71434 
L 250.931254 122.71434 
L 250.931254 123.476722 
L 251.544448 123.476722 
L 251.544448 121.601985 
L 252.157642 121.601985 
L 252.157642 121.378798 
L 252.770835 121.378798 
L 252.770835 118.864146 
L 253.384029 118.864146 
L 253.384029 118.997567 
L 253.997223 118.997567 
L 253.997223 118.493542 
L 254.610417 118.493542 
L 254.610417 119.149468 
L 255.223611 119.149468 
L 255.223611 118.886893 
L 255.836805 118.886893 
L 255.836805 120.091568 
L 256.449998 120.091568 
L 256.449998 119.947159 
L 257.063192 119.947159 
L 257.063192 119.151203 
L 257.676386 119.151203 
L 257.676386 120.066132 
L 258.28958 120.066132 
L 258.28958 122.653239 
L 258.902774 122.653239 
L 258.902774 125.072427 
L 259.515968 125.072427 
L 259.515968 124.420145 
L 260.129161 124.420145 
L 260.129161 126.111571 
L 260.742355 126.111571 
L 260.742355 126.822382 
L 261.355549 126.822382 
L 261.355549 126.5362 
L 261.968743 126.5362 
L 261.968743 123.15061 
L 262.581937 123.15061 
L 262.581937 124.10298 
L 263.808324 124.067869 
L 263.808324 124.589687 
L 264.421518 124.589687 
L 264.421518 126.34398 
L 265.034712 126.34398 
L 265.034712 125.892863 
L 265.647906 125.892863 
L 265.647906 129.510205 
L 266.2611 129.510205 
L 266.2611 131.73124 
L 266.874293 131.73124 
L 266.874293 130.878413 
L 267.487487 130.878413 
L 267.487487 135.255799 
L 268.100681 135.255799 
L 268.100681 130.806 
L 268.713875 130.806 
L 268.713875 129.839069 
L 269.327069 129.839069 
L 269.327069 129.571488 
L 269.940263 129.571488 
L 269.940263 130.725063 
L 270.553456 130.725063 
L 270.553456 131.144222 
L 271.16665 131.144222 
L 271.16665 131.840876 
L 272.393038 131.801024 
L 272.393038 131.578189 
L 273.006232 131.578189 
L 273.006232 131.275063 
L 273.619426 131.275063 
L 273.619426 129.588083 
L 274.232619 129.588083 
L 274.232619 128.000506 
L 274.845813 128.000506 
L 274.845813 126.0592 
L 275.459007 126.0592 
L 275.459007 124.39604 
L 276.072201 124.39604 
L 276.072201 123.431037 
L 276.685395 123.431037 
L 276.685395 123.82284 
L 277.298589 123.82284 
L 277.298589 125.694633 
L 277.911782 125.694633 
L 277.911782 125.138959 
L 278.524976 125.138959 
L 278.524976 125.714848 
L 279.13817 125.714848 
L 279.13817 126.777534 
L 279.751364 126.777534 
L 279.751364 125.40763 
L 280.364558 125.40763 
L 280.364558 123.931167 
L 280.977752 123.931167 
L 280.977752 124.601365 
L 281.590945 124.601365 
L 281.590945 124.290637 
L 282.204139 124.290637 
L 282.204139 124.610452 
L 282.817333 124.610452 
L 282.817333 124.418858 
L 283.430527 124.418858 
L 283.430527 124.728962 
L 284.043721 124.728962 
L 284.043721 125.621817 
L 284.656915 125.621817 
L 284.656915 126.022969 
L 285.270108 126.022969 
L 285.270108 125.799356 
L 286.496496 125.782839 
L 286.496496 126.481653 
L 287.10969 126.481653 
L 287.10969 128.155753 
L 287.722884 128.155753 
L 287.722884 128.352378 
L 288.336078 128.352378 
L 288.336078 128.778149 
L 289.562465 128.834854 
L 289.562465 130.082144 
L 290.175659 130.082144 
L 290.175659 129.680015 
L 290.788853 129.680015 
L 290.788853 130.210561 
L 291.402047 130.210561 
L 291.402047 130.058342 
L 292.015241 130.058342 
L 292.015241 131.060586 
L 292.628434 131.060586 
L 292.628434 133.563397 
L 293.241628 133.563397 
L 293.241628 133.111927 
L 293.854822 133.111927 
L 293.854822 134.990175 
L 294.468016 134.990175 
L 294.468016 135.81804 
L 295.08121 135.81804 
L 295.08121 137.271071 
L 295.694404 137.271071 
L 295.694404 135.646604 
L 296.307597 135.646604 
L 296.307597 133.884598 
L 296.920791 133.884598 
L 296.920791 134.163579 
L 297.533985 134.163579 
L 297.533985 135.914228 
L 298.147179 135.914228 
L 298.147179 136.274726 
L 298.760373 136.274726 
L 298.760373 137.046121 
L 299.373567 137.046121 
L 299.373567 137.504681 
L 299.98676 137.504681 
L 299.98676 136.504653 
L 300.599954 136.504653 
L 300.599954 132.623962 
L 301.213148 132.623962 
L 301.213148 134.141222 
L 301.826342 134.141222 
L 301.826342 135.955673 
L 302.439536 135.955673 
L 302.439536 134.951738 
L 303.05273 134.951738 
L 303.05273 134.82235 
L 303.665923 134.82235 
L 303.665923 134.680971 
L 304.279117 134.680971 
L 304.279117 134.926335 
L 304.892311 134.926335 
L 304.892311 136.396913 
L 305.505505 136.396913 
L 305.505505 135.880227 
L 306.118699 135.880227 
L 306.118699 138.63823 
L 306.731893 138.63823 
L 306.731893 137.397606 
L 307.345086 137.397606 
L 307.345086 137.522479 
L 307.95828 137.522479 
L 307.95828 138.720142 
L 308.571474 138.720142 
L 308.571474 140.48242 
L 309.184668 140.48242 
L 309.184668 139.585864 
L 309.797862 139.585864 
L 309.797862 141.608182 
L 310.411055 141.608182 
L 310.411055 146.655256 
L 311.024249 146.655256 
L 311.024249 146.103857 
L 311.637443 146.103857 
L 311.637443 144.508342 
L 312.250637 144.508342 
L 312.250637 142.0763 
L 312.863831 142.0763 
L 312.863831 145.802244 
L 313.477025 145.802244 
L 313.477025 145.124402 
L 314.090218 145.124402 
L 314.090218 145.374359 
L 314.703412 145.374359 
L 314.703412 145.51963 
L 315.316606 145.51963 
L 315.316606 144.439977 
L 315.9298 144.439977 
L 315.9298 143.488191 
L 316.542994 143.488191 
L 316.542994 143.975375 
L 317.156188 143.975375 
L 317.156188 142.861644 
L 317.769381 142.861644 
L 317.769381 141.579656 
L 318.382575 141.579656 
L 318.382575 141.212425 
L 318.995769 141.212425 
L 318.995769 139.797034 
L 319.608963 139.797034 
L 319.608963 140.18684 
L 320.222157 140.18684 
L 320.222157 142.185762 
L 320.835351 142.185762 
L 320.835351 143.552586 
L 321.448544 143.552586 
L 321.448544 142.904845 
L 322.061738 142.904845 
L 322.061738 143.429752 
L 322.674932 143.429752 
L 322.674932 142.308257 
L 323.288126 142.308257 
L 323.288126 143.718643 
L 323.90132 143.718643 
L 323.90132 145.457762 
L 325.127707 145.491402 
L 325.127707 144.323683 
L 325.740901 144.323683 
L 325.740901 145.161968 
L 326.967289 145.222039 
L 326.967289 144.015097 
L 327.580483 144.015097 
L 327.580483 144.211469 
L 328.193677 144.211469 
L 328.193677 143.890276 
L 328.80687 143.890276 
L 328.80687 144.193538 
L 329.420064 144.193538 
L 329.420064 144.709578 
L 330.033258 144.709578 
L 330.033258 144.16028 
L 330.646452 144.16028 
L 330.646452 144.370121 
L 331.259646 144.370121 
L 331.259646 144.979265 
L 331.87284 144.979265 
L 331.87284 145.469575 
L 332.486033 145.469575 
L 332.486033 145.039687 
L 333.099227 145.039687 
L 333.099227 144.867783 
L 333.712421 144.867783 
L 333.712421 143.144922 
L 334.325615 143.144922 
L 334.325615 143.573269 
L 334.938809 143.573269 
L 334.938809 143.953434 
L 335.552003 143.953434 
L 335.552003 143.259515 
L 336.165196 143.259515 
L 336.165196 142.767562 
L 336.77839 142.767562 
L 336.77839 141.694757 
L 337.391584 141.694757 
L 337.391584 140.494504 
L 338.004778 140.494504 
L 338.004778 140.282308 
L 338.617972 140.282308 
L 338.617972 141.084645 
L 339.844359 140.994802 
L 339.844359 139.940431 
L 340.457553 139.940431 
L 340.457553 140.24505 
L 341.070747 140.24505 
L 341.070747 140.766516 
L 341.683941 140.766516 
L 341.683941 140.89665 
L 342.297135 140.89665 
L 342.297135 141.510759 
L 342.910329 141.510759 
L 342.910329 142.237616 
L 343.523522 142.237616 
L 343.523522 145.165549 
L 344.136716 145.165549 
L 344.136716 144.997018 
L 344.74991 144.997018 
L 344.74991 145.267885 
L 345.363104 145.267885 
L 345.363104 144.810511 
L 346.589492 144.768321 
L 346.589492 143.618016 
L 347.202685 143.618016 
L 347.202685 144.420117 
L 347.815879 144.420117 
L 347.815879 144.980153 
L 348.429073 144.980153 
L 348.429073 144.818431 
L 349.042267 144.818431 
L 349.042267 144.483219 
L 349.655461 144.483219 
L 349.655461 144.043034 
L 350.268655 144.043034 
L 350.268655 144.159428 
L 350.881848 144.159428 
L 350.881848 143.404289 
L 352.108236 143.493137 
L 352.108236 142.944126 
L 352.72143 142.944126 
L 352.72143 142.26786 
L 353.334624 142.26786 
L 353.334624 141.260366 
L 353.947818 141.260366 
L 353.947818 140.36904 
L 354.561011 140.36904 
L 354.561011 137.631453 
L 355.174205 137.631453 
L 355.174205 133.394918 
L 355.787399 133.394918 
L 355.787399 134.289861 
L 356.400593 134.289861 
L 356.400593 138.852156 
L 357.013787 138.852156 
L 357.013787 138.207508 
L 357.62698 138.207508 
L 357.62698 137.772073 
L 358.240174 137.772073 
L 358.240174 137.923069 
L 358.853368 137.923069 
L 358.853368 135.868906 
L 359.466562 135.868906 
L 359.466562 135.611372 
L 360.079756 135.611372 
L 360.079756 134.293526 
L 360.69295 134.293526 
L 360.69295 132.803142 
L 361.306143 132.803142 
L 361.306143 131.997334 
L 361.919337 131.997334 
L 361.919337 130.941322 
L 362.532531 130.941322 
L 362.532531 131.766795 
L 363.145725 131.766795 
L 363.145725 130.989299 
L 363.758919 130.989299 
L 363.758919 132.004815 
L 364.985306 132.026805 
L 364.985306 132.191317 
L 365.5985 132.191317 
L 365.5985 131.306211 
L 366.211694 131.306211 
L 366.211694 132.177635 
L 366.824888 132.177635 
L 366.824888 134.370109 
L 367.438082 134.370109 
L 367.438082 134.580891 
L 368.051276 134.580891 
L 368.051276 134.048421 
L 368.664469 134.048421 
L 368.664469 134.842782 
L 369.277663 134.842782 
L 369.277663 135.285468 
L 369.890857 135.285468 
L 369.890857 134.929036 
L 370.504051 134.929036 
L 370.504051 134.766538 
L 371.117245 134.766538 
L 371.117245 133.661609 
L 371.730439 133.661609 
L 371.730439 132.634089 
L 372.956826 132.669333 
L 372.956826 132.08165 
L 373.57002 132.08165 
L 373.57002 132.512893 
L 374.183214 132.512893 
L 374.183214 133.335406 
L 374.796408 133.335406 
L 374.796408 132.826991 
L 376.022795 132.876237 
L 376.022795 133.222365 
L 376.635989 133.222365 
L 376.635989 132.808007 
L 377.862377 132.780293 
L 377.862377 132.937351 
L 378.475571 132.937351 
L 378.475571 132.705123 
L 379.701958 132.635536 
L 379.701958 132.506661 
L 380.315152 132.506661 
L 380.315152 132.182352 
L 380.928346 132.182352 
L 380.928346 131.878018 
L 381.54154 131.878018 
L 381.54154 131.149153 
L 382.154734 131.149153 
L 382.154734 131.448567 
L 382.767928 131.448567 
L 382.767928 131.100796 
L 383.381121 131.100796 
L 383.381121 131.263789 
L 383.994315 131.263789 
L 383.994315 130.761092 
L 384.607509 130.761092 
L 384.607509 130.975072 
L 385.220703 130.975072 
L 385.220703 131.097218 
L 385.833897 131.097218 
L 385.833897 131.54342 
L 386.447091 131.54342 
L 386.447091 131.294017 
L 387.060284 131.294017 
L 387.060284 128.648168 
L 387.673478 128.648168 
L 387.673478 127.616949 
L 388.286672 127.616949 
L 388.286672 125.964578 
L 388.899866 125.964578 
L 388.899866 126.165831 
L 389.51306 126.165831 
L 389.51306 122.717592 
L 390.126254 122.717592 
L 390.126254 120.833781 
L 390.739447 120.833781 
L 390.739447 125.651527 
L 391.352641 125.651527 
L 391.352641 124.412749 
L 391.965835 124.412749 
L 391.965835 123.233846 
L 392.579029 123.233846 
L 392.579029 122.812725 
L 393.192223 122.812725 
L 393.192223 123.384538 
L 395.031804 123.435938 
L 395.031804 123.247499 
L 395.644998 123.247499 
L 395.644998 123.431037 
L 396.258192 123.431037 
L 396.258192 123.613781 
L 396.871386 123.613781 
L 396.871386 125.220424 
L 397.48458 125.220424 
L 397.48458 126.349992 
L 398.097773 126.349992 
L 398.097773 125.920895 
L 399.324161 125.977771 
L 399.324161 126.413764 
L 399.937355 126.413764 
L 399.937355 126.190734 
L 401.163742 126.243094 
L 401.163742 126.393194 
L 402.39013 126.375477 
L 402.39013 125.133628 
L 403.003324 125.133628 
L 403.003324 124.689164 
L 403.616518 124.689164 
L 403.616518 125.105998 
L 404.842905 125.161963 
L 404.842905 125.608172 
L 405.456099 125.608172 
L 405.456099 125.179317 
L 407.295681 125.1663 
L 407.295681 124.924844 
L 407.908875 124.924844 
L 407.908875 124.253604 
L 408.522068 124.253604 
L 408.522068 124.132445 
L 409.135262 124.132445 
L 409.135262 124.454584 
L 409.748456 124.454584 
L 409.748456 123.975793 
L 410.36165 123.975793 
L 410.36165 122.696315 
L 410.974844 122.696315 
L 410.974844 121.528802 
L 411.588038 121.528802 
L 411.588038 122.183907 
L 412.201231 122.183907 
L 412.201231 121.671501 
L 412.814425 121.671501 
L 412.814425 122.273378 
L 413.427619 122.273378 
L 413.427619 121.245287 
L 415.267201 121.238964 
L 415.267201 121.433671 
L 415.880394 121.433671 
L 415.880394 120.539307 
L 417.106782 120.446321 
L 417.106782 120.401174 
L 417.719976 120.401174 
L 417.719976 120.19938 
L 418.33317 120.19938 
L 418.33317 119.807613 
L 418.946364 119.807613 
L 418.946364 116.881866 
L 419.559557 116.881866 
L 419.559557 116.521336 
L 420.172751 116.521336 
L 420.172751 115.783667 
L 420.785945 115.783667 
L 420.785945 112.959661 
L 421.399139 112.959661 
L 421.399139 116.958263 
L 422.012333 116.958263 
L 422.012333 119.439871 
L 422.625527 119.439871 
L 422.625527 118.819704 
L 423.23872 118.819704 
L 423.23872 117.291408 
L 423.851914 117.291408 
L 423.851914 117.565822 
L 424.465108 117.565822 
L 424.465108 116.778169 
L 425.078302 116.778169 
L 425.078302 115.397249 
L 425.691496 115.397249 
L 425.691496 114.835307 
L 426.30469 114.835307 
L 426.30469 115.357734 
L 426.917883 115.357734 
L 426.917883 115.034245 
L 427.531077 115.034245 
L 427.531077 113.982508 
L 428.144271 113.982508 
L 428.144271 112.672389 
L 428.757465 112.672389 
L 428.757465 112.220604 
L 429.370659 112.220604 
L 429.370659 110.947519 
L 429.983853 110.947519 
L 429.983853 110.199745 
L 430.597046 110.199745 
L 430.597046 111.498893 
L 431.21024 111.498893 
L 431.21024 110.688867 
L 431.823434 110.688867 
L 431.823434 113.720065 
L 432.436628 113.720065 
L 432.436628 112.889645 
L 433.049822 112.889645 
L 433.049822 115.847388 
L 433.663016 115.847388 
L 433.663016 114.268454 
L 434.276209 114.268454 
L 434.276209 113.499584 
L 434.889403 113.499584 
L 434.889403 111.471042 
L 435.502597 111.471042 
L 435.502597 111.196955 
L 436.115791 111.196955 
L 436.115791 111.871589 
L 436.728985 111.871589 
L 436.728985 111.344663 
L 437.342179 111.344663 
L 437.342179 110.811372 
L 437.955372 110.811372 
L 437.955372 109.930895 
L 438.568566 109.930895 
L 438.568566 108.906856 
L 439.18176 108.906856 
L 439.18176 106.347588 
L 439.794954 106.347588 
L 439.794954 104.899897 
L 440.408148 104.899897 
L 440.408148 104.393638 
L 441.021342 104.393638 
L 441.021342 104.201759 
L 441.634535 104.201759 
L 441.634535 100.926813 
L 442.247729 100.926813 
L 442.247729 97.141937 
L 442.860923 97.141937 
L 442.860923 99.29466 
L 443.474117 99.29466 
L 443.474117 97.238883 
L 444.087311 97.238883 
L 444.087311 94.942984 
L 444.700505 94.942984 
L 444.700505 94.018528 
L 445.313698 94.018528 
L 445.313698 94.89141 
L 445.926892 94.89141 
L 445.926892 95.470387 
L 446.540086 95.470387 
L 446.540086 95.248736 
L 447.15328 95.248736 
L 447.15328 96.47908 
L 447.766474 96.47908 
L 447.766474 96.160473 
L 448.992861 96.094901 
L 448.992861 96.472361 
L 449.606055 96.472361 
L 449.606055 98.088695 
L 450.219249 98.088695 
L 450.219249 101.29881 
L 450.832443 101.29881 
L 450.832443 98.49352 
L 451.445637 98.49352 
L 451.445637 94.576732 
L 452.05883 94.576732 
L 452.05883 95.265202 
L 452.672024 95.265202 
L 452.672024 93.749548 
L 453.898412 93.794745 
L 453.898412 90.21416 
L 454.511606 90.21416 
L 454.511606 87.650879 
L 455.1248 87.650879 
L 455.1248 85.154634 
L 455.737993 85.154634 
L 455.737993 86.699117 
L 456.351187 86.699117 
L 456.351187 85.359515 
L 456.964381 85.359515 
L 456.964381 85.150653 
L 457.577575 85.150653 
L 457.577575 82.827686 
L 458.190769 82.827686 
L 458.190769 85.111993 
L 458.803963 85.111993 
L 458.803963 85.363725 
L 459.417156 85.363725 
L 459.417156 87.668168 
L 460.03035 87.668168 
L 460.03035 88.671091 
L 460.643544 88.671091 
L 460.643544 89.103089 
L 461.256738 89.103089 
L 461.256738 87.321245 
L 461.869932 87.321245 
L 461.869932 86.158429 
L 462.483126 86.158429 
L 462.483126 85.469437 
L 463.096319 85.469437 
L 463.096319 84.862028 
L 463.709513 84.862028 
L 463.709513 83.186795 
L 464.322707 83.186795 
L 464.322707 79.828215 
L 465.549095 79.808755 
L 465.549095 79.097981 
L 466.162289 79.097981 
L 466.162289 79.551767 
L 466.775482 79.551767 
L 466.775482 77.401231 
L 467.388676 77.401231 
L 467.388676 74.604136 
L 468.00187 74.604136 
L 468.00187 74.324306 
L 468.615064 74.324306 
L 468.615064 79.134098 
L 469.228258 79.134098 
L 469.228258 73.266477 
L 469.841452 73.266477 
L 469.841452 72.325664 
L 471.067839 72.399605 
L 471.067839 68.575528 
L 471.681033 68.575528 
L 471.681033 66.640993 
L 472.294227 66.640993 
L 472.294227 61.821326 
L 472.907421 61.821326 
L 472.907421 60.103587 
L 473.520615 60.103587 
L 473.520615 58.378709 
L 474.133808 58.378709 
L 474.133808 55.5018 
L 474.747002 55.5018 
L 474.747002 61.920081 
L 475.360196 61.920081 
L 475.360196 59.3009 
L 475.97339 59.3009 
L 475.97339 63.708547 
L 476.586584 63.708547 
L 476.586584 60.143569 
L 477.199778 60.143569 
L 477.199778 58.646221 
L 477.812971 58.646221 
L 477.812971 62.655381 
L 478.426165 62.655381 
L 478.426165 62.249899 
L 479.039359 62.249899 
L 479.039359 65.567878 
L 479.652553 65.567878 
L 479.652553 66.792635 
L 480.265747 66.792635 
L 480.265747 65.700607 
L 480.878941 65.700607 
L 480.878941 68.001641 
L 481.492134 68.001641 
L 481.492134 72.426066 
L 482.718522 72.320086 
L 482.718522 70.781351 
L 483.331716 70.781351 
L 483.331716 68.052212 
L 483.94491 68.052212 
L 483.94491 66.031852 
L 484.558104 66.031852 
L 484.558104 69.028333 
L 485.171297 69.028333 
L 485.171297 67.748818 
L 485.784491 67.748818 
L 485.784491 65.549717 
L 486.397685 65.549717 
L 486.397685 69.827663 
L 487.010879 69.827663 
L 487.010879 70.254713 
L 487.624073 70.254713 
L 487.624073 72.190741 
L 488.237267 72.190741 
L 488.237267 70.74897 
L 488.85046 70.74897 
L 488.85046 71.622909 
L 489.463654 71.622909 
L 489.463654 73.05686 
L 490.076848 73.05686 
L 490.076848 76.141967 
L 490.690042 76.141967 
L 490.690042 76.263632 
L 491.91643 76.27035 
L 491.91643 73.198416 
L 493.142817 73.167802 
L 493.142817 70.702072 
L 493.756011 70.702072 
L 493.756011 70.83969 
L 494.369205 70.83969 
L 494.369205 69.667737 
L 494.982399 69.667737 
L 494.982399 68.916713 
L 495.595592 68.916713 
L 495.595592 69.730864 
L 496.208786 69.730864 
L 496.208786 71.950613 
L 496.82198 71.950613 
L 496.82198 71.772306 
L 497.435174 71.772306 
L 497.435174 72.327483 
L 498.048368 72.327483 
L 498.048368 74.206732 
L 498.661562 74.206732 
L 498.661562 74.663161 
L 499.274755 74.663161 
L 499.274755 74.266827 
L 500.501143 74.251117 
L 500.501143 73.929162 
L 501.114337 73.929162 
L 501.114337 76.973421 
L 501.727531 76.973421 
L 501.727531 77.173251 
L 502.340725 77.173251 
L 502.340725 76.340884 
L 502.953918 76.340884 
L 502.953918 78.236092 
L 503.567112 78.236092 
L 503.567112 79.175207 
L 504.180306 79.175207 
L 504.180306 76.747641 
L 505.406694 76.741069 
L 505.406694 77.677175 
L 506.019888 77.677175 
L 506.019888 77.936267 
L 506.633081 77.936267 
L 506.633081 74.590059 
L 507.859469 74.492588 
L 507.859469 73.084398 
L 508.472663 73.084398 
L 508.472663 72.501714 
L 509.085857 72.501714 
L 509.085857 74.470417 
L 509.699051 74.470417 
L 509.699051 76.468939 
L 510.312244 76.468939 
L 510.312244 78.004431 
L 510.925438 78.004431 
L 510.925438 77.865617 
L 511.538632 77.865617 
L 511.538632 77.179809 
L 512.151826 77.179809 
L 512.151826 77.057189 
L 512.76502 77.057189 
L 512.76502 75.924395 
L 513.378214 75.924395 
L 513.378214 75.582316 
L 513.991407 75.582316 
L 513.991407 74.622847 
L 514.604601 74.622847 
L 514.604601 78.147381 
L 515.217795 78.147381 
L 515.217795 77.687516 
L 515.830989 77.687516 
L 515.830989 77.146138 
L 517.057377 77.150347 
L 517.057377 76.879502 
L 517.67057 76.879502 
L 517.67057 76.740855 
L 518.283764 76.740855 
L 518.283764 77.07163 
L 518.896958 77.07163 
L 518.896958 76.909773 
L 520.123346 76.886827 
L 520.123346 77.883426 
L 520.73654 77.883426 
L 520.73654 77.108009 
L 521.962927 77.156991 
L 521.962927 77.224864 
L 522.576121 77.224864 
L 522.576121 77.765904 
L 523.189315 77.765904 
L 523.189315 77.574911 
L 523.802509 77.574911 
L 523.802509 77.023473 
L 524.415703 77.023473 
L 524.415703 77.425053 
L 525.028896 77.425053 
L 525.028896 79.945873 
L 525.64209 79.945873 
L 525.64209 83.075309 
L 526.255284 83.075309 
L 526.255284 85.260562 
L 526.868478 85.260562 
L 526.868478 87.861814 
L 527.481672 87.861814 
L 527.481672 86.042876 
L 528.094866 86.042876 
L 528.094866 88.308396 
L 528.708059 88.308396 
L 528.708059 89.173423 
L 529.321253 89.173423 
L 529.321253 90.821291 
L 529.934447 90.821291 
L 529.934447 89.354323 
L 530.547641 89.354323 
L 530.547641 87.487573 
L 531.160835 87.487573 
L 531.160835 87.898519 
L 531.774029 87.898519 
L 531.774029 88.171563 
L 532.387222 88.171563 
L 532.387222 87.324697 
L 533.000416 87.324697 
L 533.000416 86.613508 
L 533.61361 86.613508 
L 533.61361 88.849653 
L 534.226804 88.849653 
L 534.226804 88.649349 
L 534.839998 88.649349 
L 534.839998 88.963985 
L 535.453192 88.963985 
L 535.453192 89.179578 
L 536.679579 89.242077 
L 536.679579 89.853371 
L 537.905967 89.935156 
L 537.905967 90.297477 
L 538.519161 90.297477 
L 538.519161 88.943099 
L 539.132354 88.943099 
L 539.132354 89.062172 
L 539.745548 89.062172 
L 539.745548 87.349345 
L 540.358742 87.349345 
L 540.358742 86.278803 
L 540.971936 86.278803 
L 540.971936 87.836536 
L 542.198324 87.935343 
L 542.198324 87.555271 
L 543.424711 87.585159 
L 543.424711 87.29797 
L 544.037905 87.29797 
L 544.037905 86.82688 
L 545.877487 86.729568 
L 545.877487 86.403689 
L 546.49068 86.403689 
L 546.49068 82.816009 
L 547.103874 82.816009 
L 547.103874 81.392639 
L 547.717068 81.392639 
L 547.717068 82.160101 
L 548.330262 82.160101 
L 548.330262 81.671631 
L 548.943456 81.671631 
L 548.943456 81.23724 
L 549.55665 81.23724 
L 549.55665 80.766135 
L 550.169843 80.766135 
L 550.169843 81.26775 
L 550.783037 81.26775 
L 550.783037 80.930949 
L 551.396231 80.930949 
L 551.396231 79.85393 
L 552.009425 79.85393 
L 552.009425 77.617248 
L 552.622619 77.617248 
L 552.622619 72.949919 
L 553.235813 72.949919 
L 553.235813 74.883673 
L 553.849006 74.883673 
L 553.849006 73.901541 
L 554.4622 73.901541 
L 554.4622 71.128882 
L 555.075394 71.128882 
L 555.075394 72.252922 
L 555.688588 72.252922 
L 555.688588 72.592583 
L 556.301782 72.592583 
L 556.301782 72.93573 
L 556.914976 72.93573 
L 556.914976 73.141199 
L 557.528169 73.141199 
L 557.528169 70.864075 
L 558.141363 70.864075 
L 558.141363 69.920867 
L 558.754557 69.920867 
L 558.754557 66.824475 
L 559.367751 66.824475 
L 559.367751 66.23668 
L 559.980945 66.23668 
L 559.980945 67.271012 
L 560.594139 67.271012 
L 560.594139 66.562637 
L 561.207332 66.562637 
L 561.207332 63.749967 
L 561.820526 63.749967 
L 561.820526 65.775657 
L 562.43372 65.775657 
L 562.43372 69.081621 
L 563.046914 69.081621 
L 563.046914 67.254377 
L 563.660108 67.254377 
L 563.660108 68.665246 
L 564.273302 68.665246 
L 564.273302 69.447071 
L 564.886495 69.447071 
L 564.886495 67.365395 
L 565.499689 67.365395 
L 565.499689 65.639911 
L 566.112883 65.639911 
L 566.112883 65.966673 
L 566.726077 65.966673 
L 566.726077 68.376433 
L 567.339271 68.376433 
L 567.339271 67.777347 
L 567.952465 67.777347 
L 567.952465 68.185165 
L 568.565658 68.185165 
L 568.565658 67.693717 
L 569.178852 67.693717 
L 569.178852 69.284271 
L 569.792046 69.284271 
L 569.792046 67.189651 
L 570.40524 67.189651 
L 570.40524 67.447021 
L 571.018434 67.447021 
L 571.018434 68.090542 
L 571.631628 68.090542 
L 571.631628 67.79143 
L 572.858015 67.859431 
L 572.858015 69.062573 
L 573.471209 69.062573 
L 573.471209 72.446231 
L 574.084403 72.446231 
L 574.084403 72.129723 
L 574.697597 72.129723 
L 574.697597 72.560806 
L 575.310791 72.560806 
L 575.310791 71.494741 
L 575.923984 71.494741 
L 575.923984 72.225268 
L 576.537178 72.225268 
L 576.537178 72.737892 
L 577.150372 72.737892 
L 577.150372 72.375593 
L 577.763566 72.375593 
L 577.763566 71.309536 
L 578.37676 71.309536 
L 578.37676 69.59254 
L 578.989954 69.59254 
L 578.989954 69.878393 
L 580.216341 69.786772 
L 580.216341 70.461863 
L 580.829535 70.461863 
L 580.829535 71.390271 
L 581.442729 71.390271 
L 581.442729 72.490561 
L 582.055923 72.490561 
L 582.055923 74.824364 
L 582.669117 74.824364 
L 582.669117 75.16848 
L 583.28231 75.16848 
L 583.28231 74.083562 
L 583.895504 74.083562 
L 583.895504 75.086013 
L 584.508698 75.086013 
L 584.508698 74.178488 
L 585.121892 74.178488 
L 585.121892 75.096409 
L 585.735086 75.096409 
L 585.735086 75.988256 
L 586.348279 75.988256 
L 586.348279 75.093563 
L 586.961473 75.093563 
L 586.961473 74.923756 
L 587.574667 74.923756 
L 587.574667 74.783478 
L 588.187861 74.783478 
L 588.187861 75.134431 
L 588.801055 75.134431 
L 588.801055 74.643834 
L 589.414249 74.643834 
L 589.414249 73.39782 
L 590.027442 73.39782 
L 590.027442 72.666632 
L 590.640636 72.666632 
L 590.640636 70.770833 
L 591.25383 70.770833 
L 591.25383 71.180287 
L 591.867024 71.180287 
L 591.867024 72.118919 
L 592.480218 72.118919 
L 592.480218 69.924992 
L 593.706605 69.849271 
L 593.706605 68.911916 
L 594.319799 68.911916 
L 594.319799 68.707099 
L 594.932993 68.707099 
L 594.932993 67.677591 
L 595.546187 67.677591 
L 595.546187 68.048053 
L 596.159381 68.048053 
L 596.159381 69.09136 
L 596.772575 69.09136 
L 596.772575 71.033885 
L 597.385768 71.033885 
L 597.385768 71.621936 
L 597.998962 71.621936 
L 597.998962 70.394119 
L 598.612156 70.394119 
L 598.612156 73.104489 
L 599.22535 73.104489 
L 599.22535 80.124591 
L 599.838544 80.124591 
L 599.838544 81.053659 
L 600.451738 81.053659 
L 600.451738 78.128422 
L 601.064931 78.128422 
L 601.064931 76.528644 
L 601.678125 76.528644 
L 601.678125 79.150167 
L 602.291319 79.150167 
L 602.291319 76.196727 
L 602.904513 76.196727 
L 602.904513 74.666913 
L 603.517707 74.666913 
L 603.517707 76.006816 
L 604.744094 76.010619 
L 604.744094 74.899546 
L 605.357288 74.899546 
L 605.357288 75.260997 
L 605.970482 75.260997 
L 605.970482 73.707639 
L 606.583676 73.707639 
L 606.583676 71.398605 
L 607.19687 71.398605 
L 607.19687 70.803659 
L 607.810064 70.803659 
L 607.810064 68.775031 
L 608.423257 68.775031 
L 608.423257 70.9671 
L 609.036451 70.9671 
L 609.036451 69.695131 
L 609.649645 69.695131 
L 609.649645 69.427166 
L 610.262839 69.427166 
L 610.262839 71.160623 
L 610.876033 71.160623 
L 610.876033 69.302851 
L 611.489227 69.302851 
L 611.489227 68.001184 
L 612.10242 68.001184 
L 612.10242 69.187713 
L 612.715614 69.187713 
L 612.715614 68.871483 
L 613.328808 68.871483 
L 613.328808 69.506498 
L 614.555196 69.546505 
L 614.555196 69.914145 
L 615.781583 70.010225 
L 615.781583 70.132266 
L 616.394777 70.132266 
L 616.394777 70.382884 
L 617.007971 70.382884 
L 617.007971 69.976536 
L 618.234359 70.020949 
L 618.234359 70.114276 
L 619.460746 70.067724 
L 619.460746 69.210123 
L 620.07394 69.210123 
L 620.07394 66.401947 
L 620.687134 66.401947 
L 620.687134 65.856255 
L 621.300328 65.856255 
L 621.300328 66.125255 
L 621.913522 66.125255 
L 621.913522 65.113329 
L 622.526716 65.113329 
L 622.526716 65.450957 
L 623.139909 65.450957 
L 623.139909 64.862828 
L 624.366297 64.944937 
L 624.366297 65.119649 
L 624.979491 65.119649 
L 624.979491 65.518219 
L 625.592685 65.518219 
L 625.592685 64.847122 
L 626.205879 64.847122 
L 626.205879 68.089944 
L 626.819072 68.089944 
L 626.819072 67.954384 
L 627.432266 67.954384 
L 627.432266 67.751504 
L 628.04546 67.751504 
L 628.04546 66.583489 
L 628.658654 66.583489 
L 628.658654 67.556947 
L 629.271848 67.556947 
L 629.271848 67.053636 
L 629.885042 67.053636 
L 629.885042 66.775229 
L 630.498235 66.775229 
L 630.498235 67.322689 
L 631.111429 67.322689 
L 631.111429 67.095436 
L 631.724623 67.095436 
L 631.724623 65.797887 
L 632.337817 65.797887 
L 632.337817 65.572773 
L 632.951011 65.572773 
L 632.951011 65.129588 
L 633.564204 65.129588 
L 633.564204 63.182202 
L 634.177398 63.182202 
L 634.177398 62.104943 
L 634.790592 62.104943 
L 634.790592 61.87057 
L 635.403786 61.87057 
L 635.403786 61.370308 
L 636.01698 61.370308 
L 636.01698 59.544502 
L 636.630174 59.544502 
L 636.630174 58.518189 
L 637.243367 58.518189 
L 637.243367 57.991047 
L 637.856561 57.991047 
L 637.856561 55.743557 
L 638.469755 55.743557 
L 638.469755 55.224406 
L 639.082949 55.224406 
L 639.082949 56.806288 
L 639.696143 56.806288 
L 639.696143 55.166952 
L 640.309337 55.166952 
L 640.309337 55.008794 
L 640.92253 55.008794 
L 640.92253 56.225917 
L 641.535724 56.225917 
L 641.535724 55.114737 
L 642.148918 55.114737 
L 642.148918 51.404577 
L 642.762112 51.404577 
L 642.762112 50.823024 
L 643.375306 50.823024 
L 643.375306 48.710745 
L 643.9885 48.710745 
L 643.9885 46.941356 
L 644.601693 46.941356 
L 644.601693 44.222761 
L 645.214887 44.222761 
L 645.214887 40.587995 
L 645.828081 40.587995 
L 645.828081 42.718203 
L 646.441275 42.718203 
L 646.441275 41.999525 
L 647.054469 41.999525 
L 647.054469 42.449162 
L 647.667663 42.449162 
L 647.667663 44.783592 
L 648.280856 44.783592 
L 648.280856 45.873012 
L 648.89405 45.873012 
L 648.89405 44.139639 
L 649.507244 44.139639 
L 649.507244 41.90427 
L 650.120438 41.90427 
L 650.120438 37.334773 
L 650.733632 37.334773 
L 650.733632 36.856711 
L 651.346826 36.856711 
L 651.346826 36.148564 
L 651.960019 36.148564 
L 651.960019 33.50902 
L 652.573213 33.50902 
L 652.573213 35.553763 
L 653.186407 35.553763 
L 653.186407 37.888629 
L 653.799601 37.888629 
L 653.799601 36.443786 
L 654.412795 36.443786 
L 654.412795 34.894515 
L 655.025989 34.894515 
L 655.025989 33.061059 
L 655.639182 33.061059 
L 655.639182 33.19629 
L 656.252376 33.19629 
L 656.252376 32.768596 
L 656.86557 32.768596 
L 656.86557 34.813756 
L 657.478764 34.813756 
L 657.478764 33.587851 
L 658.091958 33.587851 
L 658.091958 32.542765 
L 659.318345 32.433661 
L 659.318345 32.762744 
L 659.931539 32.762744 
L 659.931539 30.945791 
L 660.544733 30.945791 
L 660.544733 32.082351 
L 661.157927 32.082351 
L 661.157927 34.31808 
L 661.771121 34.31808 
L 661.771121 36.183425 
L 662.384315 36.183425 
L 662.384315 34.402837 
L 662.997508 34.402837 
L 662.997508 33.0752 
L 664.223896 33.016174 
L 664.223896 33.23993 
L 664.83709 33.23993 
L 664.83709 37.172755 
L 665.450284 37.172755 
L 665.450284 41.924988 
L 666.063478 41.924988 
L 666.063478 43.173776 
L 666.676671 43.173776 
L 666.676671 41.12913 
L 667.289865 41.12913 
L 667.289865 41.736092 
L 667.903059 41.736092 
L 667.903059 41.968199 
L 668.516253 41.968199 
L 668.516253 43.948734 
L 669.129447 43.948734 
L 669.129447 42.746743 
L 669.742641 42.746743 
L 669.742641 41.192685 
L 670.355834 41.192685 
L 670.355834 42.691199 
L 670.969028 42.691199 
L 670.969028 43.241016 
L 672.195416 43.348157 
L 672.195416 43.703922 
L 672.80861 43.703922 
L 672.80861 43.493111 
L 673.421804 43.493111 
L 673.421804 43.909175 
L 674.034997 43.909175 
L 674.034997 44.337372 
L 674.648191 44.337372 
L 674.648191 44.984175 
L 675.261385 44.984175 
L 675.261385 44.65892 
L 675.874579 44.65892 
L 675.874579 41.731966 
L 676.487773 41.731966 
L 676.487773 39.234534 
L 677.100966 39.234534 
L 677.100966 41.291708 
L 677.71416 41.291708 
L 677.71416 38.105237 
L 678.327354 38.105237 
L 678.327354 37.666426 
L 678.940548 37.666426 
L 678.940548 37.034591 
L 679.553742 37.034591 
L 679.553742 37.173591 
L 680.166936 37.173591 
L 680.166936 35.999358 
L 680.780129 35.999358 
L 680.780129 36.191154 
L 681.393323 36.191154 
L 681.393323 36.991816 
L 682.006517 36.991816 
L 682.006517 35.826697 
L 682.619711 35.826697 
L 682.619711 37.460092 
L 683.846099 37.468562 
L 683.846099 36.723209 
L 684.459292 36.723209 
L 684.459292 38.907299 
L 685.68568 38.94795 
L 685.68568 39.820244 
L 686.298874 39.820244 
L 686.298874 36.747881 
L 686.912068 36.747881 
L 686.912068 33.748261 
L 687.525262 33.748261 
L 687.525262 34.012816 
L 688.138455 34.012816 
L 688.138455 33.010007 
L 688.751649 33.010007 
L 688.751649 31.456736 
L 689.364843 31.456736 
L 689.364843 31.877732 
L 689.978037 31.877732 
L 689.978037 31.995524 
L 690.591231 31.995524 
L 690.591231 31.535444 
L 691.204425 31.535444 
L 691.204425 31.137823 
L 692.430812 31.02923 
L 692.430812 30.540462 
L 693.044006 30.540462 
L 693.044006 30.936291 
L 693.6572 30.936291 
L 693.6572 32.752134 
L 694.270394 32.752134 
L 694.270394 32.946405 
L 694.883588 32.946405 
L 694.883588 33.947866 
L 695.496781 33.947866 
L 695.496781 33.069383 
L 696.109975 33.069383 
L 696.109975 36.057969 
L 696.723169 36.057969 
L 696.723169 36.77652 
L 697.336363 36.77652 
L 697.336363 37.163866 
L 697.949557 37.163866 
L 697.949557 37.418311 
L 698.562751 37.418311 
L 698.562751 36.241719 
L 699.175944 36.241719 
L 699.175944 35.615464 
L 699.789138 35.615464 
L 699.789138 37.315307 
L 700.402332 37.315307 
L 700.402332 36.918057 
L 701.015526 36.918057 
L 701.015526 38.804113 
L 701.62872 38.804113 
L 701.62872 39.410535 
L 702.241914 39.410535 
L 702.241914 38.814104 
L 702.855107 38.814104 
L 702.855107 39.15439 
L 703.468301 39.15439 
L 703.468301 42.989894 
L 704.081495 42.989894 
L 704.081495 42.002286 
L 704.694689 42.002286 
L 704.694689 41.408579 
L 705.307883 41.408579 
L 705.307883 41.854885 
L 705.921077 41.854885 
L 705.921077 38.471692 
L 706.53427 38.471692 
L 706.53427 39.144933 
L 707.147464 39.144933 
L 707.147464 38.149735 
L 707.760658 38.149735 
L 707.760658 40.267816 
L 708.373852 40.267816 
L 708.373852 41.746444 
L 708.987046 41.746444 
L 708.987046 41.523269 
L 709.60024 41.523269 
L 709.60024 39.114792 
L 710.213433 39.114792 
L 710.213433 41.347827 
L 710.826627 41.347827 
L 710.826627 40.97388 
L 711.439821 40.97388 
L 711.439821 40.672941 
L 712.053015 40.672941 
L 712.053015 39.230614 
L 712.666209 39.230614 
L 712.666209 38.905646 
L 713.279403 38.905646 
L 713.279403 37.119962 
L 713.892596 37.119962 
L 713.892596 37.698538 
L 714.50579 37.698538 
L 714.50579 37.22715 
L 715.118984 37.22715 
L 715.118984 39.203465 
L 715.732178 39.203465 
L 715.732178 40.274306 
L 716.345372 40.274306 
L 716.345372 40.130046 
L 716.958566 40.130046 
L 716.958566 39.640918 
L 717.571759 39.640918 
L 717.571759 40.5985 
L 718.184953 40.5985 
L 718.184953 40.442806 
L 718.798147 40.442806 
L 718.798147 41.094717 
L 719.411341 41.094717 
L 719.411341 42.453156 
L 720.024535 42.453156 
L 720.024535 45.487263 
L 720.637729 45.487263 
L 720.637729 46.103795 
L 721.250922 46.103795 
L 721.250922 47.065027 
L 721.864116 47.065027 
L 721.864116 45.96662 
L 722.47731 45.96662 
L 722.47731 46.705905 
L 723.090504 46.705905 
L 723.090504 45.027507 
L 723.703698 45.027507 
L 723.703698 46.37017 
L 724.316891 46.37017 
L 724.316891 45.412974 
L 724.930085 45.412974 
L 724.930085 47.304098 
L 725.543279 47.304098 
L 725.543279 51.936551 
L 726.156473 51.936551 
L 726.156473 53.828272 
L 726.769667 53.828272 
L 726.769667 53.294943 
L 727.382861 53.294943 
L 727.382861 53.669266 
L 727.996054 53.669266 
L 727.996054 55.167237 
L 728.609248 55.167237 
L 728.609248 54.184951 
L 729.222442 54.184951 
L 729.222442 52.825565 
L 729.835636 52.825565 
L 729.835636 54.143055 
L 730.44883 54.143055 
L 730.44883 53.59893 
L 731.062024 53.59893 
L 731.062024 51.40169 
L 731.675217 51.40169 
L 731.675217 53.091899 
L 732.288411 53.091899 
L 732.288411 50.851095 
L 732.901605 50.851095 
L 732.901605 51.553027 
L 734.127993 51.583532 
L 734.127993 50.708614 
L 734.741187 50.708614 
L 734.741187 50.410677 
L 735.35438 50.410677 
L 735.35438 51.366809 
L 735.967574 51.366809 
L 735.967574 52.994921 
L 736.580768 52.994921 
L 736.580768 54.13341 
L 737.193962 54.13341 
L 737.193962 54.579134 
L 738.42035 54.536272 
L 738.42035 55.111069 
L 739.033543 55.111069 
L 739.033543 52.627613 
L 739.646737 52.627613 
L 739.646737 54.680029 
L 740.259931 54.680029 
L 740.259931 54.837498 
L 740.873125 54.837498 
L 740.873125 55.110544 
L 741.486319 55.110544 
L 741.486319 55.295995 
L 742.099513 55.295995 
L 742.099513 55.074735 
L 742.712706 55.074735 
L 742.712706 54.199129 
L 743.3259 54.199129 
L 743.3259 54.941764 
L 744.552288 55.002867 
L 744.552288 54.830481 
L 745.165482 54.830481 
L 745.165482 55.225653 
L 745.778676 55.225653 
L 745.778676 54.26606 
L 746.391869 54.26606 
L 746.391869 53.558081 
L 747.005063 53.558081 
L 747.005063 54.212996 
L 747.618257 54.212996 
L 747.618257 53.456953 
L 748.231451 53.456953 
L 748.231451 57.015512 
L 748.844645 57.015512 
L 748.844645 58.157909 
L 749.457839 58.157909 
L 749.457839 58.0419 
L 750.071032 58.0419 
L 750.071032 58.643919 
L 750.684226 58.643919 
L 750.684226 58.322831 
L 751.29742 58.322831 
L 751.29742 57.458519 
L 753.750195 57.415794 
L 753.750195 58.097374 
L 754.363389 58.097374 
L 754.363389 57.774793 
L 755.589777 57.854693 
L 755.589777 58.217449 
L 756.816165 58.126484 
L 756.816165 57.868763 
L 757.429358 57.868763 
L 757.429358 57.433226 
L 758.042552 57.433226 
L 758.042552 54.435998 
L 758.655746 54.435998 
L 758.655746 53.240374 
L 759.26894 53.240374 
L 759.26894 51.738347 
L 759.882134 51.738347 
L 759.882134 51.458072 
L 760.495328 51.458072 
L 760.495328 50.8819 
L 761.108521 50.8819 
L 761.108521 51.140612 
L 761.721715 51.140612 
L 761.721715 51.746142 
L 762.334909 51.746142 
L 762.334909 52.773114 
L 762.948103 52.773114 
L 762.948103 52.243401 
L 763.561297 52.243401 
L 763.561297 50.139999 
L 764.174491 50.139999 
L 764.174491 50.518628 
L 764.787684 50.518628 
L 764.787684 51.046938 
L 766.014072 51.129429 
L 766.014072 52.062868 
L 766.627266 52.062868 
L 766.627266 54.141893 
L 767.24046 54.141893 
L 767.24046 50.037067 
L 767.853654 50.037067 
L 767.853654 48.307076 
L 768.466847 48.307076 
L 768.466847 48.060055 
L 769.080041 48.060055 
L 769.080041 47.55195 
L 770.306429 47.527928 
L 770.306429 47.695435 
L 771.532816 47.605773 
L 771.532816 45.996054 
L 772.759204 45.93962 
L 772.759204 46.960334 
L 773.372398 46.960334 
L 773.372398 47.850271 
L 773.985592 47.850271 
L 773.985592 46.508109 
L 774.598786 46.508109 
L 774.598786 47.489237 
L 775.211979 47.489237 
L 775.211979 46.470327 
L 775.825173 46.470327 
L 775.825173 47.813928 
L 776.438367 47.813928 
L 776.438367 48.449857 
L 777.051561 48.449857 
L 777.051561 47.991951 
L 777.664755 47.991951 
L 777.664755 48.472082 
L 778.277949 48.472082 
L 778.277949 48.684652 
L 778.891142 48.684652 
L 778.891142 47.737428 
L 779.504336 47.737428 
L 779.504336 48.100448 
L 780.730724 48.106611 
L 780.730724 49.168185 
L 781.343918 49.168185 
L 781.343918 49.745059 
L 781.957112 49.745059 
L 781.957112 48.792218 
L 782.570305 48.792218 
L 782.570305 46.219232 
L 783.183499 46.219232 
L 783.183499 45.974811 
L 783.796693 45.974811 
L 783.796693 45.838191 
L 784.409887 45.838191 
L 784.409887 45.637493 
L 785.023081 45.637493 
L 785.023081 46.009747 
L 785.636275 46.009747 
L 785.636275 45.891355 
L 786.862662 45.992503 
L 786.862662 46.288071 
L 787.475856 46.288071 
L 787.475856 46.716664 
L 788.702244 46.621283 
L 788.702244 46.368908 
L 789.315438 46.368908 
L 789.315438 46.807412 
L 789.928631 46.807412 
L 789.928631 46.449459 
L 790.541825 46.449459 
L 790.541825 46.643602 
L 791.155019 46.643602 
L 791.155019 48.543775 
L 791.768213 48.543775 
L 791.768213 48.957246 
L 792.994601 49.014707 
L 792.994601 47.747237 
L 793.607794 47.747237 
L 793.607794 49.155439 
L 795.447376 49.183863 
L 795.447376 48.639765 
L 796.06057 48.639765 
L 796.06057 48.466639 
L 796.673764 48.466639 
L 796.673764 48.604799 
L 797.286957 48.604799 
L 797.286957 48.888026 
L 797.900151 48.888026 
L 797.900151 48.310801 
L 798.513345 48.310801 
L 798.513345 47.698838 
L 799.739733 47.597337 
L 799.739733 48.4705 
L 800.352927 48.4705 
L 800.352927 47.180953 
L 800.96612 47.180953 
L 800.96612 46.369597 
L 801.579314 46.369597 
L 801.579314 43.676541 
L 802.192508 43.676541 
L 802.192508 43.564492 
L 802.805702 43.564492 
L 802.805702 42.77781 
L 803.418896 42.77781 
L 803.418896 43.00323 
L 804.03209 43.00323 
L 804.03209 42.072416 
L 805.871671 42.112176 
L 805.871671 42.568286 
L 806.484865 42.568286 
L 806.484865 41.47155 
L 807.711253 41.435979 
L 807.711253 40.338141 
L 808.324446 40.338141 
L 808.324446 38.720625 
L 808.93764 38.720625 
L 808.93764 39.708345 
L 809.550834 39.708345 
L 809.550834 39.369085 
L 810.164028 39.369085 
L 810.164028 39.211287 
L 810.777222 39.211287 
L 810.777222 38.514112 
L 811.390416 38.514112 
L 811.390416 38.64028 
L 812.003609 38.64028 
L 812.003609 39.217486 
L 812.616803 39.217486 
L 812.616803 38.307786 
L 813.229997 38.307786 
L 813.229997 37.070783 
L 813.843191 37.070783 
L 813.843191 38.934507 
L 814.456385 38.934507 
L 814.456385 38.798584 
L 815.069578 38.798584 
L 815.069578 39.502528 
L 815.682772 39.502528 
L 815.682772 40.291343 
L 816.295966 40.291343 
L 816.295966 39.322712 
L 816.90916 39.322712 
L 816.90916 38.832073 
L 817.522354 38.832073 
L 817.522354 39.024877 
L 818.135548 39.024877 
L 818.135548 37.000982 
L 818.748741 37.000982 
L 818.748741 35.911296 
L 819.361935 35.911296 
L 819.361935 35.133756 
L 821.201517 35.117139 
L 821.201517 31.719666 
L 821.814711 31.719666 
L 821.814711 29.463866 
L 823.041098 29.484844 
L 823.041098 28.562339 
L 823.654292 28.562339 
L 823.654292 30.395735 
L 824.267486 30.395735 
L 824.267486 29.618666 
L 824.88068 29.618666 
L 824.88068 29.807888 
L 825.493874 29.807888 
L 825.493874 28.771569 
L 826.107067 28.771569 
L 826.107067 29.075449 
L 826.720261 29.075449 
L 826.720261 29.618594 
L 827.333455 29.618594 
L 827.333455 29.23874 
L 827.946649 29.23874 
L 827.946649 30.798011 
L 828.559843 30.798011 
L 828.559843 31.683923 
L 829.173037 31.683923 
L 829.173037 30.505816 
L 829.78623 30.505816 
L 829.78623 30.650907 
L 830.399424 30.650907 
L 830.399424 30.857279 
L 831.012618 30.857279 
L 831.012618 31.160229 
L 831.625812 31.160229 
L 831.625812 31.342059 
L 832.239006 31.342059 
L 832.239006 31.841477 
L 832.8522 31.841477 
L 832.8522 30.10759 
L 834.078587 30.099352 
L 834.078587 29.59329 
L 834.691781 29.59329 
L 834.691781 29.170754 
L 835.304975 29.170754 
L 835.304975 29.730108 
L 835.918169 29.730108 
L 835.918169 28.829332 
L 836.531363 28.829332 
L 836.531363 29.19303 
L 837.144556 29.19303 
L 837.144556 29.504758 
L 837.75775 29.504758 
L 837.75775 29.986313 
L 838.370944 29.986313 
L 838.370944 30.543124 
L 838.984138 30.543124 
L 838.984138 32.017569 
L 840.210526 32.00543 
L 840.210526 31.43818 
L 840.823719 31.43818 
L 840.823719 32.706105 
L 841.436913 32.706105 
L 841.436913 32.888472 
L 842.050107 32.888472 
L 842.050107 31.844016 
L 842.663301 31.844016 
L 842.663301 30.814197 
L 843.276495 30.814197 
L 843.276495 29.696415 
L 844.502882 29.601453 
L 844.502882 30.125683 
L 845.116076 30.125683 
L 845.116076 31.884535 
L 845.72927 31.884535 
L 845.72927 33.862164 
L 846.342464 33.862164 
L 846.342464 32.549637 
L 846.955658 32.549637 
L 846.955658 32.965678 
L 847.568852 32.965678 
L 847.568852 32.289471 
L 848.182045 32.289471 
L 848.182045 30.778302 
L 848.795239 30.778302 
L 848.795239 32.292568 
L 849.408433 32.292568 
L 849.408433 32.462907 
L 850.021627 32.462907 
L 850.021627 32.810146 
L 850.634821 32.810146 
L 850.634821 33.927167 
L 851.248015 33.927167 
L 851.248015 32.750921 
L 852.474402 32.730553 
L 852.474402 31.054862 
L 853.087596 31.054862 
L 853.087596 30.716121 
L 853.70079 30.716121 
L 853.70079 30.215113 
L 854.313984 30.215113 
L 854.313984 31.896963 
L 854.927178 31.896963 
L 854.927178 31.182903 
L 855.540371 31.182903 
L 855.540371 32.021031 
L 856.153565 32.021031 
L 856.153565 30.165959 
L 856.766759 30.165959 
L 856.766759 29.449492 
L 857.379953 29.449492 
L 857.379953 29.76518 
L 858.606341 29.870531 
L 858.606341 28.325502 
L 859.219534 28.325502 
L 859.219534 29.355558 
L 859.832728 29.355558 
L 859.832728 27.342418 
L 860.445922 27.342418 
L 860.445922 24.187724 
L 861.059116 24.187724 
L 861.059116 23.659539 
L 861.67231 23.659539 
L 861.67231 23.371008 
L 862.285503 23.371008 
L 862.285503 22.218433 
L 862.898697 22.218433 
L 862.898697 22.599071 
L 863.511891 22.599071 
L 863.511891 22.322988 
L 865.351473 22.283054 
L 865.351473 21.46784 
L 865.964666 21.46784 
L 865.964666 20.552727 
L 866.57786 20.552727 
L 866.57786 22.332795 
L 867.191054 22.332795 
L 867.191054 21.905271 
L 867.804248 21.905271 
L 867.804248 23.116668 
L 868.417442 23.116668 
L 868.417442 22.410647 
L 869.030636 22.410647 
L 869.030636 21.311557 
L 869.643829 21.311557 
L 869.643829 22.865636 
L 870.257023 22.865636 
L 870.257023 22.479054 
L 870.870217 22.479054 
L 870.870217 20.888923 
L 871.483411 20.888923 
L 871.483411 21.03924 
L 872.096605 21.03924 
L 872.096605 21.24444 
L 872.709799 21.24444 
L 872.709799 20.82401 
L 873.322992 20.82401 
L 873.322992 21.478379 
L 873.936186 21.478379 
L 873.936186 22.476208 
L 874.54938 22.476208 
L 874.54938 22.642395 
L 875.162574 22.642395 
L 875.162574 22.256452 
L 875.775768 22.256452 
L 875.775768 22.454796 
L 877.002155 22.532086 
L 877.002155 25.140017 
L 877.615349 25.140017 
L 877.615349 24.799228 
L 878.228543 24.799228 
L 878.228543 24.643622 
L 878.841737 24.643622 
L 878.841737 25.572178 
L 879.454931 25.572178 
L 879.454931 25.213447 
L 880.068125 25.213447 
L 880.068125 24.615136 
L 880.681318 24.615136 
L 880.681318 24.805045 
L 881.294512 24.805045 
L 881.294512 24.5406 
L 881.907706 24.5406 
L 881.907706 25.652574 
L 882.5209 25.652574 
L 882.5209 25.333327 
L 883.134094 25.333327 
L 883.134094 27.251832 
L 883.747288 27.251832 
L 883.747288 24.988033 
L 884.360481 24.988033 
L 884.360481 25.287088 
L 884.973675 25.287088 
L 884.973675 25.01433 
L 885.586869 25.01433 
L 885.586869 23.022811 
L 886.200063 23.022811 
L 886.200063 22.802513 
L 886.813257 22.802513 
L 886.813257 22.586082 
L 887.194182 22.586082 
L 887.194182 22.586082 
" clip-path="url(#pf95bc5389f)" style="fill: none; stroke: #3572c6; stroke-width: 1.2; stroke-linecap: square"/>
   </g>
   <g id="line2d_79">
    <path d="M 75.557818 20.552727 
L 887.194182 20.552727 
L 887.194182 20.552727 
" clip-path="url(#pf95bc5389f)" style="fill: none; stroke: #83a83b; stroke-width: 1.2; stroke-linecap: square"/>
   </g>
   <g id="line2d_80">
    <path d="M 75.557818 27.251832 
L 887.194182 27.251832 
L 887.194182 27.251832 
" clip-path="url(#pf95bc5389f)" style="fill: none; stroke: #c44e52; stroke-width: 1.2; stroke-linecap: square"/>
   </g>
   <g id="line2d_81">
    <path d="M 866.57786 300.96 
L 866.57786 7.2 
" clip-path="url(#pf95bc5389f)" style="fill: none; stroke: #83a83b; stroke-width: 1.2; stroke-linecap: square"/>
   </g>
   <g id="line2d_82">
    <path d="M 883.747288 300.96 
L 883.747288 7.2 
" clip-path="url(#pf95bc5389f)" style="fill: none; stroke: #c44e52; stroke-width: 1.2; stroke-linecap: square"/>
   </g>
   <g id="patch_3">
    <path d="M 34.976 300.96 
L 34.976 7.2 
" style="fill: none; stroke: #899ab8; stroke-width: 1.12; stroke-linejoin: miter; stroke-linecap: square"/>
   </g>
   <g id="patch_4">
    <path d="M 927.776 300.96 
L 927.776 7.2 
" style="fill: none; stroke: #899ab8; stroke-width: 1.12; stroke-linejoin: miter; stroke-linecap: square"/>
   </g>
   <g id="patch_5">
    <path d="M 34.976 300.96 
L 927.776 300.96 
" style="fill: none; stroke: #899ab8; stroke-width: 1.12; stroke-linejoin: miter; stroke-linecap: square"/>
   </g>
   <g id="patch_6">
    <path d="M 34.976 7.2 
L 927.776 7.2 
" style="fill: none; stroke: #899ab8; stroke-width: 1.12; stroke-linejoin: miter; stroke-linecap: square"/>
   </g>
   <g id="text_16">
    <!-- 106156.01 -->
    <g style="fill: #83a83b" transform="translate(187.465692 20.552727) scale(0.132 -0.132)">
     <defs>
      <path id="DejaVuSans-2e" d="M 684 794 
L 1344 794 
L 1344 0 
L 684 0 
L 684 794 
z
" transform="scale(0.015625)"/>
     </defs>
     <use xlink:href="#DejaVuSans-31"/>
     <use xlink:href="#DejaVuSans-30" transform="translate(63.623047 0)"/>
     <use xlink:href="#DejaVuSans-36" transform="translate(127.246094 0)"/>
     <use xlink:href="#DejaVuSans-31" transform="translate(190.869141 0)"/>
     <use xlink:href="#DejaVuSans-35" transform="translate(254.492188 0)"/>
     <use xlink:href="#DejaVuSans-36" transform="translate(318.115234 0)"/>
     <use xlink:href="#DejaVuSans-2e" transform="translate(381.738281 0)"/>
     <use xlink:href="#DejaVuSans-30" transform="translate(413.525391 0)"/>
     <use xlink:href="#DejaVuSans-31" transform="translate(477.148438 0)"/>
    </g>
   </g>
   <g id="text_17">
    <!-- 76266.57 -->
    <g style="fill: #c44e52" transform="translate(187.465692 27.251832) scale(0.132 -0.132)">
     <defs>
      <path id="DejaVuSans-37" d="M 525 4666 
L 3525 4666 
L 3525 4397 
L 1831 0 
L 1172 0 
L 2766 4134 
L 525 4134 
L 525 4666 
z
" transform="scale(0.015625)"/>
     </defs>
     <use xlink:href="#DejaVuSans-37"/>
     <use xlink:href="#DejaVuSans-36" transform="translate(63.623047 0)"/>
     <use xlink:href="#DejaVuSans-32" transform="translate(127.246094 0)"/>
     <use xlink:href="#DejaVuSans-36" transform="translate(190.869141 0)"/>
     <use xlink:href="#DejaVuSans-36" transform="translate(254.492188 0)"/>
     <use xlink:href="#DejaVuSans-2e" transform="translate(318.115234 0)"/>
     <use xlink:href="#DejaVuSans-35" transform="translate(349.902344 0)"/>
     <use xlink:href="#DejaVuSans-37" transform="translate(413.525391 0)"/>
    </g>
   </g>
   <g id="legend_1">
    <g id="patch_7">
     <path d="M 43.796 183.886875 
L 142.133094 183.886875 
Q 144.653094 183.886875 144.653094 181.366875 
L 144.653094 126.793125 
Q 144.653094 124.273125 142.133094 124.273125 
L 43.796 124.273125 
Q 41.276 124.273125 41.276 126.793125 
L 41.276 181.366875 
Q 41.276 183.886875 43.796 183.886875 
z
" style="fill: #373e4b; opacity: 0.8; stroke: #cccccc; stroke-width: 0.16; stroke-linejoin: miter"/>
    </g>
    <g id="line2d_83">
     <path d="M 46.316 134.477156 
L 46.316 134.477156 
L 58.916 134.477156 
L 58.916 134.477156 
L 71.516 134.477156 
" style="fill: none; stroke: #3572c6; stroke-width: 1.2; stroke-linecap: square"/>
    </g>
    <g id="text_18">
     <!-- USD/BTC -->
     <g style="fill: #b1bed6" transform="translate(81.596 138.887156) scale(0.126 -0.126)">
      <defs>
       <path id="DejaVuSans-55" d="M 556 4666 
L 1191 4666 
L 1191 1831 
Q 1191 1081 1462 751 
Q 1734 422 2344 422 
Q 2950 422 3222 751 
Q 3494 1081 3494 1831 
L 3494 4666 
L 4128 4666 
L 4128 1753 
Q 4128 841 3676 375 
Q 3225 -91 2344 -91 
Q 1459 -91 1007 375 
Q 556 841 556 1753 
L 556 4666 
z
" transform="scale(0.015625)"/>
       <path id="DejaVuSans-53" d="M 3425 4513 
L 3425 3897 
Q 3066 4069 2747 4153 
Q 2428 4238 2131 4238 
Q 1616 4238 1336 4038 
Q 1056 3838 1056 3469 
Q 1056 3159 1242 3001 
Q 1428 2844 1947 2747 
L 2328 2669 
Q 3034 2534 3370 2195 
Q 3706 1856 3706 1288 
Q 3706 609 3251 259 
Q 2797 -91 1919 -91 
Q 1588 -91 1214 -16 
Q 841 59 441 206 
L 441 856 
Q 825 641 1194 531 
Q 1563 422 1919 422 
Q 2459 422 2753 634 
Q 3047 847 3047 1241 
Q 3047 1584 2836 1778 
Q 2625 1972 2144 2069 
L 1759 2144 
Q 1053 2284 737 2584 
Q 422 2884 422 3419 
Q 422 4038 858 4394 
Q 1294 4750 2059 4750 
Q 2388 4750 2728 4690 
Q 3069 4631 3425 4513 
z
" transform="scale(0.015625)"/>
       <path id="DejaVuSans-2f" d="M 1625 4666 
L 2156 4666 
L 531 -594 
L 0 -594 
L 1625 4666 
z
" transform="scale(0.015625)"/>
       <path id="DejaVuSans-42" d="M 1259 2228 
L 1259 519 
L 2272 519 
Q 2781 519 3026 730 
Q 3272 941 3272 1375 
Q 3272 1813 3026 2020 
Q 2781 2228 2272 2228 
L 1259 2228 
z
M 1259 4147 
L 1259 2741 
L 2194 2741 
Q 2656 2741 2882 2914 
Q 3109 3088 3109 3444 
Q 3109 3797 2882 3972 
Q 2656 4147 2194 4147 
L 1259 4147 
z
M 628 4666 
L 2241 4666 
Q 2963 4666 3353 4366 
Q 3744 4066 3744 3513 
Q 3744 3084 3544 2831 
Q 3344 2578 2956 2516 
Q 3422 2416 3680 2098 
Q 3938 1781 3938 1306 
Q 3938 681 3513 340 
Q 3088 0 2303 0 
L 628 0 
L 628 4666 
z
" transform="scale(0.015625)"/>
       <path id="DejaVuSans-54" d="M -19 4666 
L 3928 4666 
L 3928 4134 
L 2272 4134 
L 2272 0 
L 1638 0 
L 1638 4134 
L -19 4134 
L -19 4666 
z
" transform="scale(0.015625)"/>
       <path id="DejaVuSans-43" d="M 4122 4306 
L 4122 3641 
Q 3803 3938 3442 4084 
Q 3081 4231 2675 4231 
Q 1875 4231 1450 3742 
Q 1025 3253 1025 2328 
Q 1025 1406 1450 917 
Q 1875 428 2675 428 
Q 3081 428 3442 575 
Q 3803 722 4122 1019 
L 4122 359 
Q 3791 134 3420 21 
Q 3050 -91 2638 -91 
Q 1578 -91 968 557 
Q 359 1206 359 2328 
Q 359 3453 968 4101 
Q 1578 4750 2638 4750 
Q 3056 4750 3426 4639 
Q 3797 4528 4122 4306 
z
" transform="scale(0.015625)"/>
      </defs>
      <use xlink:href="#DejaVuSans-55"/>
      <use xlink:href="#DejaVuSans-53" transform="translate(73.193359 0)"/>
      <use xlink:href="#DejaVuSans-44" transform="translate(136.669922 0)"/>
      <use xlink:href="#DejaVuSans-2f" transform="translate(213.671875 0)"/>
      <use xlink:href="#DejaVuSans-42" transform="translate(247.363281 0)"/>
      <use xlink:href="#DejaVuSans-54" transform="translate(315.966797 0)"/>
      <use xlink:href="#DejaVuSans-43" transform="translate(371.175781 0)"/>
     </g>
    </g>
    <g id="line2d_84">
     <path d="M 46.316 152.971594 
L 46.316 152.971594 
L 58.916 152.971594 
L 58.916 152.971594 
L 71.516 152.971594 
" style="fill: none; stroke: #83a83b; stroke-width: 1.2; stroke-linecap: square"/>
    </g>
    <g id="text_19">
     <!-- Max -->
     <g style="fill: #b1bed6" transform="translate(81.596 157.381594) scale(0.126 -0.126)">
      <defs>
       <path id="DejaVuSans-4d" d="M 628 4666 
L 1569 4666 
L 2759 1491 
L 3956 4666 
L 4897 4666 
L 4897 0 
L 4281 0 
L 4281 4097 
L 3078 897 
L 2444 897 
L 1241 4097 
L 1241 0 
L 628 0 
L 628 4666 
z
" transform="scale(0.015625)"/>
       <path id="DejaVuSans-78" d="M 3513 3500 
L 2247 1797 
L 3578 0 
L 2900 0 
L 1881 1375 
L 863 0 
L 184 0 
L 1544 1831 
L 300 3500 
L 978 3500 
L 1906 2253 
L 2834 3500 
L 3513 3500 
z
" transform="scale(0.015625)"/>
      </defs>
      <use xlink:href="#DejaVuSans-4d"/>
      <use xlink:href="#DejaVuSans-61" transform="translate(86.279297 0)"/>
      <use xlink:href="#DejaVuSans-78" transform="translate(147.558594 0)"/>
     </g>
    </g>
    <g id="line2d_85">
     <path d="M 46.316 171.466031 
L 46.316 171.466031 
L 58.916 171.466031 
L 58.916 171.466031 
L 71.516 171.466031 
" style="fill: none; stroke: #c44e52; stroke-width: 1.2; stroke-linecap: square"/>
    </g>
    <g id="text_20">
     <!-- local_Min -->
     <g style="fill: #b1bed6" transform="translate(81.596 175.876031) scale(0.126 -0.126)">
      <defs>
       <path id="DejaVuSans-6c" d="M 603 4863 
L 1178 4863 
L 1178 0 
L 603 0 
L 603 4863 
z
" transform="scale(0.015625)"/>
       <path id="DejaVuSans-6f" d="M 1959 3097 
Q 1497 3097 1228 2736 
Q 959 2375 959 1747 
Q 959 1119 1226 758 
Q 1494 397 1959 397 
Q 2419 397 2687 759 
Q 2956 1122 2956 1747 
Q 2956 2369 2687 2733 
Q 2419 3097 1959 3097 
z
M 1959 3584 
Q 2709 3584 3137 3096 
Q 3566 2609 3566 1747 
Q 3566 888 3137 398 
Q 2709 -91 1959 -91 
Q 1206 -91 779 398 
Q 353 888 353 1747 
Q 353 2609 779 3096 
Q 1206 3584 1959 3584 
z
" transform="scale(0.015625)"/>
       <path id="DejaVuSans-63" d="M 3122 3366 
L 3122 2828 
Q 2878 2963 2633 3030 
Q 2388 3097 2138 3097 
Q 1578 3097 1268 2742 
Q 959 2388 959 1747 
Q 959 1106 1268 751 
Q 1578 397 2138 397 
Q 2388 397 2633 464 
Q 2878 531 3122 666 
L 3122 134 
Q 2881 22 2623 -34 
Q 2366 -91 2075 -91 
Q 1284 -91 818 406 
Q 353 903 353 1747 
Q 353 2603 823 3093 
Q 1294 3584 2113 3584 
Q 2378 3584 2631 3529 
Q 2884 3475 3122 3366 
z
" transform="scale(0.015625)"/>
       <path id="DejaVuSans-5f" d="M 3263 -1063 
L 3263 -1509 
L -63 -1509 
L -63 -1063 
L 3263 -1063 
z
" transform="scale(0.015625)"/>
       <path id="DejaVuSans-69" d="M 603 3500 
L 1178 3500 
L 1178 0 
L 603 0 
L 603 3500 
z
M 603 4863 
L 1178 4863 
L 1178 4134 
L 603 4134 
L 603 4863 
z
" transform="scale(0.015625)"/>
       <path id="DejaVuSans-6e" d="M 3513 2113 
L 3513 0 
L 2938 0 
L 2938 2094 
Q 2938 2591 2744 2837 
Q 2550 3084 2163 3084 
Q 1697 3084 1428 2787 
Q 1159 2491 1159 1978 
L 1159 0 
L 581 0 
L 581 3500 
L 1159 3500 
L 1159 2956 
Q 1366 3272 1645 3428 
Q 1925 3584 2291 3584 
Q 2894 3584 3203 3211 
Q 3513 2838 3513 2113 
z
" transform="scale(0.015625)"/>
      </defs>
      <use xlink:href="#DejaVuSans-6c"/>
      <use xlink:href="#DejaVuSans-6f" transform="translate(27.783203 0)"/>
      <use xlink:href="#DejaVuSans-63" transform="translate(88.964844 0)"/>
      <use xlink:href="#DejaVuSans-61" transform="translate(143.945312 0)"/>
      <use xlink:href="#DejaVuSans-6c" transform="translate(205.224609 0)"/>
      <use xlink:href="#DejaVuSans-5f" transform="translate(233.007812 0)"/>
      <use xlink:href="#DejaVuSans-4d" transform="translate(283.007812 0)"/>
      <use xlink:href="#DejaVuSans-69" transform="translate(369.287109 0)"/>
      <use xlink:href="#DejaVuSans-6e" transform="translate(397.070312 0)"/>
     </g>
    </g>
   </g>
  </g>
 </g>
 <defs>
  <clipPath id="pf95bc5389f">
   <rect x="34.976" y="7.2" width="892.8" height="293.76"/>
  </clipPath>
 </defs>
</svg>
