<?xml version="1.0" encoding="utf-8" standalone="no"?>
<!DOCTYPE svg PUBLIC "-//W3C//DTD SVG 1.1//EN"
  "http://www.w3.org/Graphics/SVG/1.1/DTD/svg11.dtd">
<svg xmlns:xlink="http://www.w3.org/1999/xlink" width="934.976pt" height="358.290693pt" viewBox="0 0 934.976 358.290693" xmlns="http://www.w3.org/2000/svg" version="1.1">
 <metadata>
  <rdf:RDF xmlns:dc="http://purl.org/dc/elements/1.1/" xmlns:cc="http://creativecommons.org/ns#" xmlns:rdf="http://www.w3.org/1999/02/22-rdf-syntax-ns#">
   <cc:Work>
    <dc:type rdf:resource="http://purl.org/dc/dcmitype/StillImage"/>
    <dc:date>2025-11-16T10:19:56.027782</dc:date>
    <dc:format>image/svg+xml</dc:format>
    <dc:creator>
     <cc:Agent>
      <dc:title>Matplotlib v3.10.7, https://matplotlib.org/</dc:title>
     </cc:Agent>
    </dc:creator>
   </cc:Work>
  </rdf:RDF>
 </metadata>
 <defs>
  <style type="text/css">*{stroke-linejoin: round; stroke-linecap: butt}</style>
 </defs>
 <g id="figure_1">
  <g id="patch_1">
   <path d="M 0 358.290693 
L 934.976 358.290693 
L 934.976 0 
L 0 0 
z
" style="fill: #373e4b"/>
  </g>
  <g id="axes_1">
   <g id="patch_2">
    <path d="M 34.976 300.96 
L 927.776 300.96 
L 927.776 7.2 
L 34.976 7.2 
z
" style="fill: #373e4b"/>
   </g>
   <g id="matplotlib.axis_1">
    <g id="xtick_1">
     <g id="line2d_1">
      <path d="M 138.350176 300.96 
L 138.350176 7.2 
" clip-path="url(#p887cf9fc2d)" style="fill: none; stroke: #546379; stroke-width: 1.12; stroke-linecap: square"/>
     </g>
     <g id="line2d_2"/>
     <g id="text_1">
      <!-- 2012 -->
      <g style="fill: #b1bed6" transform="translate(109.269136 330.884854) rotate(-30) scale(0.126 -0.126)">
       <defs>
        <path id="DejaVuSans-32" d="M 1228 531 
L 3431 531 
L 3431 0 
L 469 0 
L 469 531 
Q 828 903 1448 1529 
Q 2069 2156 2228 2338 
Q 2531 2678 2651 2914 
Q 2772 3150 2772 3378 
Q 2772 3750 2511 3984 
Q 2250 4219 1831 4219 
Q 1534 4219 1204 4116 
Q 875 4013 500 3803 
L 500 4441 
Q 881 4594 1212 4672 
Q 1544 4750 1819 4750 
Q 2544 4750 2975 4387 
Q 3406 4025 3406 3419 
Q 3406 3131 3298 2873 
Q 3191 2616 2906 2266 
Q 2828 2175 2409 1742 
Q 1991 1309 1228 531 
z
" transform="scale(0.015625)"/>
        <path id="DejaVuSans-30" d="M 2034 4250 
Q 1547 4250 1301 3770 
Q 1056 3291 1056 2328 
Q 1056 1369 1301 889 
Q 1547 409 2034 409 
Q 2525 409 2770 889 
Q 3016 1369 3016 2328 
Q 3016 3291 2770 3770 
Q 2525 4250 2034 4250 
z
M 2034 4750 
Q 2819 4750 3233 4129 
Q 3647 3509 3647 2328 
Q 3647 1150 3233 529 
Q 2819 -91 2034 -91 
Q 1250 -91 836 529 
Q 422 1150 422 2328 
Q 422 3509 836 4129 
Q 1250 4750 2034 4750 
z
" transform="scale(0.015625)"/>
        <path id="DejaVuSans-31" d="M 794 531 
L 1825 531 
L 1825 4091 
L 703 3866 
L 703 4441 
L 1819 4666 
L 2450 4666 
L 2450 531 
L 3481 531 
L 3481 0 
L 794 0 
L 794 531 
z
" transform="scale(0.015625)"/>
       </defs>
       <use xlink:href="#DejaVuSans-32"/>
       <use xlink:href="#DejaVuSans-30" transform="translate(63.623047 0)"/>
       <use xlink:href="#DejaVuSans-31" transform="translate(127.246094 0)"/>
       <use xlink:href="#DejaVuSans-32" transform="translate(190.869141 0)"/>
      </g>
     </g>
    </g>
    <g id="xtick_2">
     <g id="line2d_3">
      <path d="M 246.353032 300.96 
L 246.353032 7.2 
" clip-path="url(#p887cf9fc2d)" style="fill: none; stroke: #546379; stroke-width: 1.12; stroke-linecap: square"/>
     </g>
     <g id="line2d_4"/>
     <g id="text_2">
      <!-- 2014 -->
      <g style="fill: #b1bed6" transform="translate(217.271992 330.884854) rotate(-30) scale(0.126 -0.126)">
       <defs>
        <path id="DejaVuSans-34" d="M 2419 4116 
L 825 1625 
L 2419 1625 
L 2419 4116 
z
M 2253 4666 
L 3047 4666 
L 3047 1625 
L 3713 1625 
L 3713 1100 
L 3047 1100 
L 3047 0 
L 2419 0 
L 2419 1100 
L 313 1100 
L 313 1709 
L 2253 4666 
z
" transform="scale(0.015625)"/>
       </defs>
       <use xlink:href="#DejaVuSans-32"/>
       <use xlink:href="#DejaVuSans-30" transform="translate(63.623047 0)"/>
       <use xlink:href="#DejaVuSans-31" transform="translate(127.246094 0)"/>
       <use xlink:href="#DejaVuSans-34" transform="translate(190.869141 0)"/>
      </g>
     </g>
    </g>
    <g id="xtick_3">
     <g id="line2d_5">
      <path d="M 354.208141 300.96 
L 354.208141 7.2 
" clip-path="url(#p887cf9fc2d)" style="fill: none; stroke: #546379; stroke-width: 1.12; stroke-linecap: square"/>
     </g>
     <g id="line2d_6"/>
     <g id="text_3">
      <!-- 2016 -->
      <g style="fill: #b1bed6" transform="translate(325.127101 330.884854) rotate(-30) scale(0.126 -0.126)">
       <defs>
        <path id="DejaVuSans-36" d="M 2113 2584 
Q 1688 2584 1439 2293 
Q 1191 2003 1191 1497 
Q 1191 994 1439 701 
Q 1688 409 2113 409 
Q 2538 409 2786 701 
Q 3034 994 3034 1497 
Q 3034 2003 2786 2293 
Q 2538 2584 2113 2584 
z
M 3366 4563 
L 3366 3988 
Q 3128 4100 2886 4159 
Q 2644 4219 2406 4219 
Q 1781 4219 1451 3797 
Q 1122 3375 1075 2522 
Q 1259 2794 1537 2939 
Q 1816 3084 2150 3084 
Q 2853 3084 3261 2657 
Q 3669 2231 3669 1497 
Q 3669 778 3244 343 
Q 2819 -91 2113 -91 
Q 1303 -91 875 529 
Q 447 1150 447 2328 
Q 447 3434 972 4092 
Q 1497 4750 2381 4750 
Q 2619 4750 2861 4703 
Q 3103 4656 3366 4563 
z
" transform="scale(0.015625)"/>
       </defs>
       <use xlink:href="#DejaVuSans-32"/>
       <use xlink:href="#DejaVuSans-30" transform="translate(63.623047 0)"/>
       <use xlink:href="#DejaVuSans-31" transform="translate(127.246094 0)"/>
       <use xlink:href="#DejaVuSans-36" transform="translate(190.869141 0)"/>
      </g>
     </g>
    </g>
    <g id="xtick_4">
     <g id="line2d_7">
      <path d="M 462.210996 300.96 
L 462.210996 7.2 
" clip-path="url(#p887cf9fc2d)" style="fill: none; stroke: #546379; stroke-width: 1.12; stroke-linecap: square"/>
     </g>
     <g id="line2d_8"/>
     <g id="text_4">
      <!-- 2018 -->
      <g style="fill: #b1bed6" transform="translate(433.129956 330.884854) rotate(-30) scale(0.126 -0.126)">
       <defs>
        <path id="DejaVuSans-38" d="M 2034 2216 
Q 1584 2216 1326 1975 
Q 1069 1734 1069 1313 
Q 1069 891 1326 650 
Q 1584 409 2034 409 
Q 2484 409 2743 651 
Q 3003 894 3003 1313 
Q 3003 1734 2745 1975 
Q 2488 2216 2034 2216 
z
M 1403 2484 
Q 997 2584 770 2862 
Q 544 3141 544 3541 
Q 544 4100 942 4425 
Q 1341 4750 2034 4750 
Q 2731 4750 3128 4425 
Q 3525 4100 3525 3541 
Q 3525 3141 3298 2862 
Q 3072 2584 2669 2484 
Q 3125 2378 3379 2068 
Q 3634 1759 3634 1313 
Q 3634 634 3220 271 
Q 2806 -91 2034 -91 
Q 1263 -91 848 271 
Q 434 634 434 1313 
Q 434 1759 690 2068 
Q 947 2378 1403 2484 
z
M 1172 3481 
Q 1172 3119 1398 2916 
Q 1625 2713 2034 2713 
Q 2441 2713 2670 2916 
Q 2900 3119 2900 3481 
Q 2900 3844 2670 4047 
Q 2441 4250 2034 4250 
Q 1625 4250 1398 4047 
Q 1172 3844 1172 3481 
z
" transform="scale(0.015625)"/>
       </defs>
       <use xlink:href="#DejaVuSans-32"/>
       <use xlink:href="#DejaVuSans-30" transform="translate(63.623047 0)"/>
       <use xlink:href="#DejaVuSans-31" transform="translate(127.246094 0)"/>
       <use xlink:href="#DejaVuSans-38" transform="translate(190.869141 0)"/>
      </g>
     </g>
    </g>
    <g id="xtick_5">
     <g id="line2d_9">
      <path d="M 570.066105 300.96 
L 570.066105 7.2 
" clip-path="url(#p887cf9fc2d)" style="fill: none; stroke: #546379; stroke-width: 1.12; stroke-linecap: square"/>
     </g>
     <g id="line2d_10"/>
     <g id="text_5">
      <!-- 2020 -->
      <g style="fill: #b1bed6" transform="translate(540.985065 330.884854) rotate(-30) scale(0.126 -0.126)">
       <use xlink:href="#DejaVuSans-32"/>
       <use xlink:href="#DejaVuSans-30" transform="translate(63.623047 0)"/>
       <use xlink:href="#DejaVuSans-32" transform="translate(127.246094 0)"/>
       <use xlink:href="#DejaVuSans-30" transform="translate(190.869141 0)"/>
      </g>
     </g>
    </g>
    <g id="xtick_6">
     <g id="line2d_11">
      <path d="M 678.068961 300.96 
L 678.068961 7.2 
" clip-path="url(#p887cf9fc2d)" style="fill: none; stroke: #546379; stroke-width: 1.12; stroke-linecap: square"/>
     </g>
     <g id="line2d_12"/>
     <g id="text_6">
      <!-- 2022 -->
      <g style="fill: #b1bed6" transform="translate(648.987921 330.884854) rotate(-30) scale(0.126 -0.126)">
       <use xlink:href="#DejaVuSans-32"/>
       <use xlink:href="#DejaVuSans-30" transform="translate(63.623047 0)"/>
       <use xlink:href="#DejaVuSans-32" transform="translate(127.246094 0)"/>
       <use xlink:href="#DejaVuSans-32" transform="translate(190.869141 0)"/>
      </g>
     </g>
    </g>
    <g id="xtick_7">
     <g id="line2d_13">
      <path d="M 785.92407 300.96 
L 785.92407 7.2 
" clip-path="url(#p887cf9fc2d)" style="fill: none; stroke: #546379; stroke-width: 1.12; stroke-linecap: square"/>
     </g>
     <g id="line2d_14"/>
     <g id="text_7">
      <!-- 2024 -->
      <g style="fill: #b1bed6" transform="translate(756.84303 330.884854) rotate(-30) scale(0.126 -0.126)">
       <use xlink:href="#DejaVuSans-32"/>
       <use xlink:href="#DejaVuSans-30" transform="translate(63.623047 0)"/>
       <use xlink:href="#DejaVuSans-32" transform="translate(127.246094 0)"/>
       <use xlink:href="#DejaVuSans-34" transform="translate(190.869141 0)"/>
      </g>
     </g>
    </g>
    <g id="xtick_8">
     <g id="line2d_15">
      <path d="M 893.926925 300.96 
L 893.926925 7.2 
" clip-path="url(#p887cf9fc2d)" style="fill: none; stroke: #546379; stroke-width: 1.12; stroke-linecap: square"/>
     </g>
     <g id="line2d_16"/>
     <g id="text_8">
      <!-- 2026 -->
      <g style="fill: #b1bed6" transform="translate(864.845885 330.884854) rotate(-30) scale(0.126 -0.126)">
       <use xlink:href="#DejaVuSans-32"/>
       <use xlink:href="#DejaVuSans-30" transform="translate(63.623047 0)"/>
       <use xlink:href="#DejaVuSans-32" transform="translate(127.246094 0)"/>
       <use xlink:href="#DejaVuSans-36" transform="translate(190.869141 0)"/>
      </g>
     </g>
    </g>
    <g id="text_9">
     <!-- Date -->
     <g style="fill: #b1bed6" transform="translate(464.166875 348.095943) scale(0.144 -0.144)">
      <defs>
       <path id="DejaVuSans-44" d="M 1259 4147 
L 1259 519 
L 2022 519 
Q 2988 519 3436 956 
Q 3884 1394 3884 2338 
Q 3884 3275 3436 3711 
Q 2988 4147 2022 4147 
L 1259 4147 
z
M 628 4666 
L 1925 4666 
Q 3281 4666 3915 4102 
Q 4550 3538 4550 2338 
Q 4550 1131 3912 565 
Q 3275 0 1925 0 
L 628 0 
L 628 4666 
z
" transform="scale(0.015625)"/>
       <path id="DejaVuSans-61" d="M 2194 1759 
Q 1497 1759 1228 1600 
Q 959 1441 959 1056 
Q 959 750 1161 570 
Q 1363 391 1709 391 
Q 2188 391 2477 730 
Q 2766 1069 2766 1631 
L 2766 1759 
L 2194 1759 
z
M 3341 1997 
L 3341 0 
L 2766 0 
L 2766 531 
Q 2569 213 2275 61 
Q 1981 -91 1556 -91 
Q 1019 -91 701 211 
Q 384 513 384 1019 
Q 384 1609 779 1909 
Q 1175 2209 1959 2209 
L 2766 2209 
L 2766 2266 
Q 2766 2663 2505 2880 
Q 2244 3097 1772 3097 
Q 1472 3097 1187 3025 
Q 903 2953 641 2809 
L 641 3341 
Q 956 3463 1253 3523 
Q 1550 3584 1831 3584 
Q 2591 3584 2966 3190 
Q 3341 2797 3341 1997 
z
" transform="scale(0.015625)"/>
       <path id="DejaVuSans-74" d="M 1172 4494 
L 1172 3500 
L 2356 3500 
L 2356 3053 
L 1172 3053 
L 1172 1153 
Q 1172 725 1289 603 
Q 1406 481 1766 481 
L 2356 481 
L 2356 0 
L 1766 0 
Q 1100 0 847 248 
Q 594 497 594 1153 
L 594 3053 
L 172 3053 
L 172 3500 
L 594 3500 
L 594 4494 
L 1172 4494 
z
" transform="scale(0.015625)"/>
       <path id="DejaVuSans-65" d="M 3597 1894 
L 3597 1613 
L 953 1613 
Q 991 1019 1311 708 
Q 1631 397 2203 397 
Q 2534 397 2845 478 
Q 3156 559 3463 722 
L 3463 178 
Q 3153 47 2828 -22 
Q 2503 -91 2169 -91 
Q 1331 -91 842 396 
Q 353 884 353 1716 
Q 353 2575 817 3079 
Q 1281 3584 2069 3584 
Q 2775 3584 3186 3129 
Q 3597 2675 3597 1894 
z
M 3022 2063 
Q 3016 2534 2758 2815 
Q 2500 3097 2075 3097 
Q 1594 3097 1305 2825 
Q 1016 2553 972 2059 
L 3022 2063 
z
" transform="scale(0.015625)"/>
      </defs>
      <use xlink:href="#DejaVuSans-44"/>
      <use xlink:href="#DejaVuSans-61" transform="translate(77.001953 0)"/>
      <use xlink:href="#DejaVuSans-74" transform="translate(138.28125 0)"/>
      <use xlink:href="#DejaVuSans-65" transform="translate(177.490234 0)"/>
     </g>
    </g>
   </g>
   <g id="matplotlib.axis_2">
    <g id="ytick_1">
     <g id="line2d_17">
      <path d="M 34.976 255.37232 
L 927.776 255.37232 
" clip-path="url(#p887cf9fc2d)" style="fill: none; stroke: #546379; stroke-width: 1.12; stroke-linecap: square"/>
     </g>
     <g id="line2d_18"/>
     <g id="text_10">
      <!-- $\mathdefault{10^{0}}$ -->
      <g style="fill: #b1bed6" transform="translate(7.2 260.159335) scale(0.126 -0.126)">
       <use xlink:href="#DejaVuSans-31" transform="translate(0 0.765625)"/>
       <use xlink:href="#DejaVuSans-30" transform="translate(63.623047 0.765625)"/>
       <use xlink:href="#DejaVuSans-30" transform="translate(128.203125 39.046875) scale(0.7)"/>
      </g>
     </g>
    </g>
    <g id="ytick_2">
     <g id="line2d_19">
      <path d="M 34.976 209.254528 
L 927.776 209.254528 
" clip-path="url(#p887cf9fc2d)" style="fill: none; stroke: #546379; stroke-width: 1.12; stroke-linecap: square"/>
     </g>
     <g id="line2d_20"/>
     <g id="text_11">
      <!-- $\mathdefault{10^{1}}$ -->
      <g style="fill: #b1bed6" transform="translate(7.2 214.041544) scale(0.126 -0.126)">
       <use xlink:href="#DejaVuSans-31" transform="translate(0 0.684375)"/>
       <use xlink:href="#DejaVuSans-30" transform="translate(63.623047 0.684375)"/>
       <use xlink:href="#DejaVuSans-31" transform="translate(128.203125 38.965625) scale(0.7)"/>
      </g>
     </g>
    </g>
    <g id="ytick_3">
     <g id="line2d_21">
      <path d="M 34.976 163.136737 
L 927.776 163.136737 
" clip-path="url(#p887cf9fc2d)" style="fill: none; stroke: #546379; stroke-width: 1.12; stroke-linecap: square"/>
     </g>
     <g id="line2d_22"/>
     <g id="text_12">
      <!-- $\mathdefault{10^{2}}$ -->
      <g style="fill: #b1bed6" transform="translate(7.2 167.923752) scale(0.126 -0.126)">
       <use xlink:href="#DejaVuSans-31" transform="translate(0 0.765625)"/>
       <use xlink:href="#DejaVuSans-30" transform="translate(63.623047 0.765625)"/>
       <use xlink:href="#DejaVuSans-32" transform="translate(128.203125 39.046875) scale(0.7)"/>
      </g>
     </g>
    </g>
    <g id="ytick_4">
     <g id="line2d_23">
      <path d="M 34.976 117.018945 
L 927.776 117.018945 
" clip-path="url(#p887cf9fc2d)" style="fill: none; stroke: #546379; stroke-width: 1.12; stroke-linecap: square"/>
     </g>
     <g id="line2d_24"/>
     <g id="text_13">
      <!-- $\mathdefault{10^{3}}$ -->
      <g style="fill: #b1bed6" transform="translate(7.2 121.805961) scale(0.126 -0.126)">
       <defs>
        <path id="DejaVuSans-33" d="M 2597 2516 
Q 3050 2419 3304 2112 
Q 3559 1806 3559 1356 
Q 3559 666 3084 287 
Q 2609 -91 1734 -91 
Q 1441 -91 1130 -33 
Q 819 25 488 141 
L 488 750 
Q 750 597 1062 519 
Q 1375 441 1716 441 
Q 2309 441 2620 675 
Q 2931 909 2931 1356 
Q 2931 1769 2642 2001 
Q 2353 2234 1838 2234 
L 1294 2234 
L 1294 2753 
L 1863 2753 
Q 2328 2753 2575 2939 
Q 2822 3125 2822 3475 
Q 2822 3834 2567 4026 
Q 2313 4219 1838 4219 
Q 1578 4219 1281 4162 
Q 984 4106 628 3988 
L 628 4550 
Q 988 4650 1302 4700 
Q 1616 4750 1894 4750 
Q 2613 4750 3031 4423 
Q 3450 4097 3450 3541 
Q 3450 3153 3228 2886 
Q 3006 2619 2597 2516 
z
" transform="scale(0.015625)"/>
       </defs>
       <use xlink:href="#DejaVuSans-31" transform="translate(0 0.765625)"/>
       <use xlink:href="#DejaVuSans-30" transform="translate(63.623047 0.765625)"/>
       <use xlink:href="#DejaVuSans-33" transform="translate(128.203125 39.046875) scale(0.7)"/>
      </g>
     </g>
    </g>
    <g id="ytick_5">
     <g id="line2d_25">
      <path d="M 34.976 70.901154 
L 927.776 70.901154 
" clip-path="url(#p887cf9fc2d)" style="fill: none; stroke: #546379; stroke-width: 1.12; stroke-linecap: square"/>
     </g>
     <g id="line2d_26"/>
     <g id="text_14">
      <!-- $\mathdefault{10^{4}}$ -->
      <g style="fill: #b1bed6" transform="translate(7.2 75.688169) scale(0.126 -0.126)">
       <use xlink:href="#DejaVuSans-31" transform="translate(0 0.684375)"/>
       <use xlink:href="#DejaVuSans-30" transform="translate(63.623047 0.684375)"/>
       <use xlink:href="#DejaVuSans-34" transform="translate(128.203125 38.965625) scale(0.7)"/>
      </g>
     </g>
    </g>
    <g id="ytick_6">
     <g id="line2d_27">
      <path d="M 34.976 24.783362 
L 927.776 24.783362 
" clip-path="url(#p887cf9fc2d)" style="fill: none; stroke: #546379; stroke-width: 1.12; stroke-linecap: square"/>
     </g>
     <g id="line2d_28"/>
     <g id="text_15">
      <!-- $\mathdefault{10^{5}}$ -->
      <g style="fill: #b1bed6" transform="translate(7.2 29.570378) scale(0.126 -0.126)">
       <defs>
        <path id="DejaVuSans-35" d="M 691 4666 
L 3169 4666 
L 3169 4134 
L 1269 4134 
L 1269 2991 
Q 1406 3038 1543 3061 
Q 1681 3084 1819 3084 
Q 2600 3084 3056 2656 
Q 3513 2228 3513 1497 
Q 3513 744 3044 326 
Q 2575 -91 1722 -91 
Q 1428 -91 1123 -41 
Q 819 9 494 109 
L 494 744 
Q 775 591 1075 516 
Q 1375 441 1709 441 
Q 2250 441 2565 725 
Q 2881 1009 2881 1497 
Q 2881 1984 2565 2268 
Q 2250 2553 1709 2553 
Q 1456 2553 1204 2497 
Q 953 2441 691 2322 
L 691 4666 
z
" transform="scale(0.015625)"/>
       </defs>
       <use xlink:href="#DejaVuSans-31" transform="translate(0 0.684375)"/>
       <use xlink:href="#DejaVuSans-30" transform="translate(63.623047 0.684375)"/>
       <use xlink:href="#DejaVuSans-35" transform="translate(128.203125 38.965625) scale(0.7)"/>
      </g>
     </g>
    </g>
    <g id="ytick_7">
     <g id="line2d_29"/>
    </g>
    <g id="ytick_8">
     <g id="line2d_30"/>
    </g>
    <g id="ytick_9">
     <g id="line2d_31"/>
    </g>
    <g id="ytick_10">
     <g id="line2d_32"/>
    </g>
    <g id="ytick_11">
     <g id="line2d_33"/>
    </g>
    <g id="ytick_12">
     <g id="line2d_34"/>
    </g>
    <g id="ytick_13">
     <g id="line2d_35"/>
    </g>
    <g id="ytick_14">
     <g id="line2d_36"/>
    </g>
    <g id="ytick_15">
     <g id="line2d_37"/>
    </g>
    <g id="ytick_16">
     <g id="line2d_38"/>
    </g>
    <g id="ytick_17">
     <g id="line2d_39"/>
    </g>
    <g id="ytick_18">
     <g id="line2d_40"/>
    </g>
    <g id="ytick_19">
     <g id="line2d_41"/>
    </g>
    <g id="ytick_20">
     <g id="line2d_42"/>
    </g>
    <g id="ytick_21">
     <g id="line2d_43"/>
    </g>
    <g id="ytick_22">
     <g id="line2d_44"/>
    </g>
    <g id="ytick_23">
     <g id="line2d_45"/>
    </g>
    <g id="ytick_24">
     <g id="line2d_46"/>
    </g>
    <g id="ytick_25">
     <g id="line2d_47"/>
    </g>
    <g id="ytick_26">
     <g id="line2d_48"/>
    </g>
    <g id="ytick_27">
     <g id="line2d_49"/>
    </g>
    <g id="ytick_28">
     <g id="line2d_50"/>
    </g>
    <g id="ytick_29">
     <g id="line2d_51"/>
    </g>
    <g id="ytick_30">
     <g id="line2d_52"/>
    </g>
    <g id="ytick_31">
     <g id="line2d_53"/>
    </g>
    <g id="ytick_32">
     <g id="line2d_54"/>
    </g>
    <g id="ytick_33">
     <g id="line2d_55"/>
    </g>
    <g id="ytick_34">
     <g id="line2d_56"/>
    </g>
    <g id="ytick_35">
     <g id="line2d_57"/>
    </g>
    <g id="ytick_36">
     <g id="line2d_58"/>
    </g>
    <g id="ytick_37">
     <g id="line2d_59"/>
    </g>
    <g id="ytick_38">
     <g id="line2d_60"/>
    </g>
    <g id="ytick_39">
     <g id="line2d_61"/>
    </g>
    <g id="ytick_40">
     <g id="line2d_62"/>
    </g>
    <g id="ytick_41">
     <g id="line2d_63"/>
    </g>
    <g id="ytick_42">
     <g id="line2d_64"/>
    </g>
    <g id="ytick_43">
     <g id="line2d_65"/>
    </g>
    <g id="ytick_44">
     <g id="line2d_66"/>
    </g>
    <g id="ytick_45">
     <g id="line2d_67"/>
    </g>
    <g id="ytick_46">
     <g id="line2d_68"/>
    </g>
    <g id="ytick_47">
     <g id="line2d_69"/>
    </g>
    <g id="ytick_48">
     <g id="line2d_70"/>
    </g>
    <g id="ytick_49">
     <g id="line2d_71"/>
    </g>
    <g id="ytick_50">
     <g id="line2d_72"/>
    </g>
    <g id="ytick_51">
     <g id="line2d_73"/>
    </g>
    <g id="ytick_52">
     <g id="line2d_74"/>
    </g>
    <g id="ytick_53">
     <g id="line2d_75"/>
    </g>
    <g id="ytick_54">
     <g id="line2d_76"/>
    </g>
    <g id="ytick_55">
     <g id="line2d_77"/>
    </g>
   </g>
   <g id="line2d_78">
    <path d="M 75.557818 287.607273 
L 75.557818 283.137997 
L 76.148805 283.137997 
L 76.148805 278.19371 
L 76.739792 278.19371 
L 76.739792 279.486333 
L 77.330779 279.486333 
L 77.330779 280.86817 
L 77.921766 280.86817 
L 77.921766 280.165337 
L 78.512753 280.165337 
L 78.512753 280.86817 
L 79.694726 280.86817 
L 79.694726 282.352457 
L 80.285713 282.352457 
L 80.285713 284.808022 
L 81.467687 284.808022 
L 81.467687 283.137997 
L 82.058674 283.137997 
L 82.058674 282.352457 
L 82.649661 282.352457 
L 82.649661 283.137997 
L 83.240648 283.137997 
L 83.240648 281.596567 
L 83.831635 281.596567 
L 83.831635 279.486333 
L 85.013609 279.486333 
L 85.013609 278.19371 
L 85.604595 278.19371 
L 85.604595 275.834669 
L 86.195582 275.834669 
L 86.195582 273.724434 
L 86.786569 273.724434 
L 86.786569 274.751772 
L 87.377556 274.751772 
L 87.377556 271.815495 
L 87.968543 271.815495 
L 87.968543 271.365393 
L 88.55953 271.365393 
L 88.55953 257.042345 
L 89.741504 257.042345 
L 89.741504 255.982378 
L 90.332491 255.982378 
L 90.332491 253.83089 
L 90.923478 253.83089 
L 90.923478 254.395116 
L 91.514464 254.395116 
L 91.514464 257.932656 
L 92.105451 257.932656 
L 92.105451 255.37232 
L 92.696438 255.37232 
L 92.696438 255.982378 
L 93.287425 255.982378 
L 93.287425 257.042345 
L 93.878412 257.042345 
L 93.878412 257.932656 
L 94.469399 257.932656 
L 94.469399 257.26124 
L 95.060386 257.26124 
L 95.060386 258.161558 
L 95.651373 258.161558 
L 95.651373 260.093532 
L 96.24236 260.093532 
L 96.24236 257.706341 
L 96.833347 257.706341 
L 96.833347 259.841596 
L 98.01532 259.841596 
L 98.01532 261.134218 
L 98.606307 261.134218 
L 98.606307 260.868934 
L 99.197294 260.868934 
L 99.197294 255.776954 
L 99.788281 255.776954 
L 99.788281 251.720656 
L 100.379268 251.720656 
L 100.379268 248.921405 
L 100.970255 248.921405 
L 100.970255 243.823502 
L 101.561242 243.823502 
L 101.561242 226.917627 
L 102.152229 226.917627 
L 102.152229 229.940664 
L 102.743215 229.940664 
L 102.743215 228.062436 
L 103.334202 228.062436 
L 103.334202 217.729074 
L 103.925189 217.729074 
L 103.925189 212.580386 
L 104.516176 212.580386 
L 104.516176 216.455571 
L 105.107163 216.455571 
L 105.107163 215.640255 
L 105.69815 215.640255 
L 105.69815 212.089863 
L 106.289137 212.089863 
L 106.289137 209.926627 
L 106.880124 209.926627 
L 106.880124 196.34639 
L 107.471111 196.34639 
L 107.471111 185.746445 
L 108.062098 185.746445 
L 108.062098 192.005794 
L 108.653084 192.005794 
L 108.653084 196.536537 
L 109.244071 196.536537 
L 109.244071 200.619497 
L 109.835058 200.619497 
L 109.835058 197.954799 
L 110.426045 197.954799 
L 110.426045 198.218565 
L 111.017032 198.218565 
L 111.017032 200.169105 
L 111.608019 200.169105 
L 111.608019 199.716176 
L 112.199006 199.716176 
L 112.199006 201.040338 
L 112.789993 201.040338 
L 112.789993 202.160926 
L 113.38098 202.160926 
L 113.38098 201.757417 
L 113.971967 201.757417 
L 113.971967 202.615821 
L 114.562953 202.615821 
L 114.562953 202.372872 
L 115.15394 202.372872 
L 115.15394 201.702393 
L 115.744927 201.702393 
L 115.744927 206.455278 
L 116.335914 206.455278 
L 116.335914 209.94735 
L 116.926901 209.94735 
L 116.926901 209.395222 
L 117.517888 209.395222 
L 117.517888 206.700602 
L 118.108875 206.700602 
L 118.108875 206.024537 
L 118.699862 206.024537 
L 118.699862 206.806668 
L 119.290849 206.806668 
L 119.290849 210.324077 
L 119.881836 210.324077 
L 119.881836 212.604047 
L 120.472822 212.604047 
L 120.472822 213.058992 
L 121.063809 213.058992 
L 121.063809 217.097011 
L 121.654796 217.097011 
L 121.654796 218.861295 
L 122.245783 218.861295 
L 122.245783 223.057412 
L 122.83677 223.057412 
L 122.83677 218.893678 
L 123.427757 218.893678 
L 123.427757 221.264877 
L 124.018744 221.264877 
L 124.018744 223.379165 
L 124.609731 223.379165 
L 124.609731 222.898453 
L 125.200718 222.898453 
L 125.200718 223.996748 
L 125.791705 223.996748 
L 125.791705 226.821103 
L 126.382691 226.821103 
L 126.382691 227.556633 
L 126.973678 227.556633 
L 126.973678 236.311847 
L 127.564665 236.311847 
L 127.564665 231.338582 
L 128.155652 231.338582 
L 128.155652 232.711804 
L 128.746639 232.711804 
L 128.746639 230.97985 
L 129.337626 230.97985 
L 129.337626 231.951129 
L 129.928613 231.951129 
L 129.928613 232.138606 
L 130.5196 232.138606 
L 130.5196 232.647299 
L 131.110587 232.647299 
L 131.110587 236.234665 
L 131.701573 236.234665 
L 131.701573 237.424839 
L 132.29256 237.424839 
L 132.29256 237.181079 
L 132.883547 237.181079 
L 132.883547 235.928878 
L 133.474534 235.928878 
L 133.474534 232.455022 
L 134.065521 232.455022 
L 134.065521 232.97192 
L 134.656508 232.97192 
L 134.656508 232.583001 
L 135.247495 232.583001 
L 135.247495 231.703858 
L 135.838482 231.703858 
L 135.838482 231.098715 
L 136.429469 231.098715 
L 136.429469 227.707037 
L 137.020456 227.707037 
L 137.020456 226.39241 
L 137.611442 226.39241 
L 137.611442 225.381573 
L 138.202429 225.381573 
L 138.202429 221.707518 
L 138.793416 221.707518 
L 138.793416 216.227322 
L 139.384403 216.227322 
L 139.384403 216.114165 
L 139.97539 216.114165 
L 139.97539 216.284141 
L 140.566377 216.284141 
L 140.566377 218.287185 
L 141.157364 218.287185 
L 141.157364 217.975205 
L 141.748351 217.975205 
L 141.748351 220.513041 
L 142.339338 220.513041 
L 142.339338 220.689506 
L 142.930325 220.689506 
L 142.930325 219.519112 
L 143.521311 219.519112 
L 143.521311 220.027052 
L 144.703285 220.095761 
L 144.703285 224.206915 
L 145.294272 224.206915 
L 145.294272 225.247601 
L 145.885259 225.247601 
L 145.885259 222.467712 
L 146.476246 222.467712 
L 146.476246 223.217642 
L 147.067233 223.217642 
L 147.067233 223.913295 
L 147.65822 223.913295 
L 147.65822 222.938075 
L 148.249207 222.938075 
L 148.249207 223.217642 
L 148.840194 223.217642 
L 148.840194 221.448123 
L 149.43118 221.448123 
L 149.43118 222.236609 
L 150.022167 222.236609 
L 150.022167 223.913295 
L 150.613154 223.913295 
L 150.613154 224.080551 
L 151.204141 224.080551 
L 151.204141 223.379165 
L 152.386115 223.298241 
L 152.386115 223.954978 
L 152.977102 223.954978 
L 152.977102 223.257901 
L 154.159076 223.177464 
L 154.159076 222.198349 
L 154.750063 222.198349 
L 154.750063 222.390381 
L 155.341049 222.390381 
L 155.341049 222.780056 
L 155.932036 222.780056 
L 155.932036 222.429009 
L 156.523023 222.429009 
L 156.523023 222.740746 
L 157.704997 222.740746 
L 157.704997 222.938075 
L 158.295984 222.938075 
L 158.295984 222.623275 
L 160.068945 222.545342 
L 160.068945 222.429009 
L 160.659931 222.429009 
L 160.659931 222.084008 
L 161.250918 222.084008 
L 161.250918 221.011116 
L 162.432892 220.939199 
L 162.432892 218.604102 
L 163.023879 218.604102 
L 163.023879 217.698519 
L 163.614866 217.698519 
L 163.614866 217.455744 
L 164.205853 217.455744 
L 164.205853 217.637549 
L 164.79684 217.637549 
L 164.79684 217.245703 
L 165.387827 217.245703 
L 165.387827 217.097011 
L 165.978814 217.097011 
L 165.978814 216.455571 
L 166.5698 216.455571 
L 166.5698 214.102908 
L 167.160787 214.102908 
L 167.160787 210.345215 
L 167.751774 210.345215 
L 167.751774 210.218718 
L 168.342761 210.218718 
L 168.342761 211.814865 
L 168.933748 211.814865 
L 168.933748 211.476343 
L 169.524735 211.476343 
L 169.524735 209.015614 
L 170.115722 209.015614 
L 170.115722 206.931125 
L 170.706709 206.931125 
L 170.706709 206.281868 
L 171.297696 206.281868 
L 171.297696 205.108303 
L 171.888683 205.108303 
L 171.888683 201.840237 
L 172.479669 201.840237 
L 172.479669 208.740437 
L 173.070656 208.740437 
L 173.070656 207.363805 
L 173.661643 207.363805 
L 173.661643 207.510134 
L 174.25263 207.510134 
L 174.25263 208.239211 
L 174.843617 208.239211 
L 174.843617 206.859912 
L 176.025591 206.913298 
L 176.025591 205.87171 
L 176.616578 205.87171 
L 176.616578 204.57803 
L 177.207565 204.57803 
L 177.207565 205.140897 
L 177.798552 205.140897 
L 177.798552 204.849447 
L 178.389538 204.849447 
L 178.389538 204.657477 
L 178.980525 204.657477 
L 178.980525 204.045986 
L 179.571512 204.045986 
L 179.571512 205.108303 
L 180.162499 205.108303 
L 180.162499 205.43665 
L 180.753486 205.43665 
L 180.753486 205.636273 
L 181.344473 205.636273 
L 181.344473 205.939489 
L 181.93546 205.939489 
L 181.93546 206.351052 
L 182.526447 206.351052 
L 182.526447 207.473452 
L 183.117434 207.473452 
L 183.117434 207.236638 
L 183.708421 207.236638 
L 183.708421 207.400287 
L 184.890394 207.436836 
L 184.890394 207.218538 
L 185.481381 207.218538 
L 185.481381 205.905571 
L 186.072368 205.905571 
L 186.072368 205.075763 
L 186.663355 205.075763 
L 186.663355 204.593894 
L 187.845329 204.530512 
L 187.845329 203.86153 
L 188.436316 203.86153 
L 188.436316 203.169779 
L 189.027303 203.169779 
L 189.027303 202.803614 
L 189.61829 202.803614 
L 189.61829 203.051876 
L 190.800263 202.949278 
L 190.800263 203.318141 
L 191.39125 203.318141 
L 191.39125 203.022509 
L 191.982237 203.022509 
L 191.982237 203.214173 
L 193.164211 203.184566 
L 193.164211 202.529737 
L 193.755198 202.529737 
L 193.755198 202.076772 
L 194.346185 202.076772 
L 194.346185 200.438123 
L 194.937172 200.438123 
L 194.937172 198.474155 
L 195.528158 198.474155 
L 195.528158 196.8899 
L 196.119145 196.8899 
L 196.119145 195.593226 
L 196.710132 195.593226 
L 196.710132 194.394486 
L 197.301119 194.394486 
L 197.301119 193.895273 
L 197.892106 193.895273 
L 197.892106 191.745077 
L 198.483093 191.745077 
L 198.483093 189.21317 
L 199.07408 189.21317 
L 199.07408 189.375826 
L 199.665067 189.375826 
L 199.665067 186.90656 
L 200.256054 186.90656 
L 200.256054 186.46521 
L 200.847041 186.46521 
L 200.847041 184.597163 
L 201.438027 184.597163 
L 201.438027 180.511647 
L 202.029014 180.511647 
L 202.029014 178.864525 
L 202.620001 178.864525 
L 202.620001 178.318608 
L 203.210988 178.318608 
L 203.210988 176.187869 
L 203.801975 176.187869 
L 203.801975 170.209069 
L 204.392962 170.209069 
L 204.392962 167.911261 
L 204.983949 167.911261 
L 204.983949 164.698205 
L 205.574936 164.698205 
L 205.574936 157.728444 
L 206.165923 157.728444 
L 206.165923 153.314284 
L 206.75691 153.314284 
L 206.75691 158.68349 
L 207.347896 158.68349 
L 207.347896 170.831623 
L 207.938883 170.831623 
L 207.938883 159.666147 
L 208.52987 159.666147 
L 208.52987 156.043135 
L 209.120857 156.043135 
L 209.120857 158.114365 
L 209.711844 158.114365 
L 209.711844 159.992155 
L 210.302831 159.992155 
L 210.302831 160.16753 
L 210.893818 160.16753 
L 210.893818 160.743898 
L 211.484805 160.743898 
L 211.484805 159.823395 
L 212.075792 159.823395 
L 212.075792 158.938472 
L 213.257765 159.039422 
L 213.257765 157.577651 
L 214.439739 157.530665 
L 214.439739 159.085179 
L 215.030726 159.085179 
L 215.030726 159.657728 
L 215.621713 159.657728 
L 215.621713 161.9508 
L 216.2127 161.9508 
L 216.2127 163.140743 
L 216.803687 163.140743 
L 216.803687 161.708753 
L 217.394674 161.708753 
L 217.394674 161.530504 
L 217.985661 161.530504 
L 217.985661 162.351197 
L 218.576648 162.351197 
L 218.576648 163.695241 
L 219.167634 163.695241 
L 219.167634 167.596001 
L 219.758621 167.596001 
L 219.758621 168.504633 
L 220.349608 168.504633 
L 220.349608 164.378152 
L 220.940595 164.378152 
L 220.940595 163.736474 
L 221.531582 163.736474 
L 221.531582 165.383183 
L 222.122569 165.383183 
L 222.122569 164.267648 
L 222.713556 164.267648 
L 222.713556 163.398817 
L 223.304543 163.398817 
L 223.304543 162.232149 
L 223.89553 162.232149 
L 223.89553 161.834102 
L 224.486516 161.834102 
L 224.486516 162.583641 
L 225.077503 162.583641 
L 225.077503 161.3465 
L 225.66849 161.3465 
L 225.66849 163.194904 
L 226.259477 163.194904 
L 226.259477 161.149656 
L 226.850464 161.149656 
L 226.850464 160.639309 
L 227.441451 160.639309 
L 227.441451 159.737009 
L 228.032438 159.737009 
L 228.032438 157.86806 
L 228.623425 157.86806 
L 228.623425 159.888004 
L 229.214412 159.888004 
L 229.214412 159.150729 
L 229.805399 159.150729 
L 229.805399 158.820261 
L 230.396385 158.820261 
L 230.396385 158.330623 
L 230.987372 158.330623 
L 230.987372 159.001913 
L 231.578359 159.001913 
L 231.578359 158.72362 
L 232.169346 158.72362 
L 232.169346 158.468169 
L 232.760333 158.468169 
L 232.760333 159.163865 
L 233.35132 159.163865 
L 233.35132 158.808962 
L 233.942307 158.808962 
L 233.942307 158.256707 
L 234.533294 158.256707 
L 234.533294 156.658265 
L 235.124281 156.658265 
L 235.124281 150.694477 
L 235.715268 150.694477 
L 235.715268 149.727115 
L 236.306254 149.727115 
L 236.306254 148.57456 
L 236.897241 148.57456 
L 236.897241 148.955699 
L 237.488228 148.955699 
L 237.488228 144.578193 
L 238.079215 144.578193 
L 238.079215 139.224019 
L 238.670202 139.224019 
L 238.670202 135.724665 
L 239.261189 135.724665 
L 239.261189 131.929122 
L 239.852176 131.929122 
L 239.852176 123.688509 
L 240.443163 123.688509 
L 240.443163 121.126976 
L 241.03415 121.126976 
L 241.03415 114.501195 
L 241.625137 114.501195 
L 241.625137 116.037736 
L 242.216123 116.037736 
L 242.216123 123.994292 
L 242.80711 123.994292 
L 242.80711 119.650419 
L 243.398097 119.650419 
L 243.398097 119.97045 
L 243.989084 119.97045 
L 243.989084 124.587763 
L 244.580071 124.587763 
L 244.580071 125.341484 
L 245.171058 125.341484 
L 245.171058 123.488046 
L 245.762045 123.488046 
L 245.762045 123.267395 
L 246.353032 123.267395 
L 246.353032 120.781313 
L 246.944019 120.781313 
L 246.944019 120.913218 
L 247.535006 120.913218 
L 247.535006 120.41492 
L 248.125992 120.41492 
L 248.125992 121.063393 
L 248.716979 121.063393 
L 248.716979 120.803802 
L 249.307966 120.803802 
L 249.307966 121.99479 
L 249.898953 121.99479 
L 249.898953 121.852022 
L 250.48994 121.852022 
L 250.48994 121.065109 
L 251.080927 121.065109 
L 251.080927 121.969642 
L 251.671914 121.969642 
L 251.671914 124.527356 
L 252.262901 124.527356 
L 252.262901 126.919059 
L 252.853888 126.919059 
L 252.853888 126.274188 
L 253.444874 126.274188 
L 253.444874 127.946397 
L 254.035861 127.946397 
L 254.035861 128.649132 
L 254.626848 128.649132 
L 254.626848 128.366202 
L 255.217835 128.366202 
L 255.217835 125.019077 
L 255.808822 125.019077 
L 255.808822 125.960627 
L 256.990796 125.925914 
L 256.990796 126.441804 
L 257.581783 126.441804 
L 257.581783 128.176165 
L 258.17277 128.176165 
L 258.17277 127.730173 
L 258.763757 127.730173 
L 258.763757 131.306418 
L 259.354743 131.306418 
L 259.354743 133.502218 
L 259.94573 133.502218 
L 259.94573 132.65908 
L 260.536717 132.65908 
L 260.536717 136.986733 
L 261.127704 136.986733 
L 261.127704 132.58749 
L 261.718691 132.58749 
L 261.718691 131.631546 
L 262.309678 131.631546 
L 262.309678 131.367004 
L 262.900665 131.367004 
L 262.900665 132.507473 
L 263.491652 132.507473 
L 263.491652 132.92187 
L 264.082639 132.92187 
L 264.082639 133.610609 
L 265.264612 133.571209 
L 265.264612 133.350906 
L 265.855599 133.350906 
L 265.855599 133.051224 
L 266.446586 133.051224 
L 266.446586 131.38341 
L 267.037573 131.38341 
L 267.037573 129.81387 
L 267.62856 129.81387 
L 267.62856 127.894621 
L 268.219547 127.894621 
L 268.219547 126.250357 
L 268.810534 126.250357 
L 268.810534 125.296318 
L 269.401521 125.296318 
L 269.401521 125.68367 
L 269.992508 125.68367 
L 269.992508 127.534196 
L 270.583495 127.534196 
L 270.583495 126.984835 
L 271.174481 126.984835 
L 271.174481 127.554182 
L 271.765468 127.554182 
L 271.765468 128.604794 
L 272.356455 128.604794 
L 272.356455 127.250453 
L 272.947442 127.250453 
L 272.947442 125.790765 
L 273.538429 125.790765 
L 273.538429 126.453349 
L 274.129416 126.453349 
L 274.129416 126.146152 
L 274.720403 126.146152 
L 274.720403 126.462333 
L 275.31139 126.462333 
L 275.31139 126.272916 
L 275.902377 126.272916 
L 275.902377 126.579496 
L 276.493364 126.579496 
L 276.493364 127.462208 
L 277.08435 127.462208 
L 277.08435 127.858802 
L 277.675337 127.858802 
L 277.675337 127.63773 
L 278.857311 127.6214 
L 278.857311 128.312275 
L 279.448298 128.312275 
L 279.448298 129.967354 
L 280.039285 129.967354 
L 280.039285 130.161745 
L 280.630272 130.161745 
L 280.630272 130.582678 
L 281.812246 130.638739 
L 281.812246 131.871859 
L 282.403232 131.871859 
L 282.403232 131.474298 
L 282.994219 131.474298 
L 282.994219 131.998816 
L 283.585206 131.998816 
L 283.585206 131.848327 
L 284.176193 131.848327 
L 284.176193 132.839184 
L 284.76718 132.839184 
L 284.76718 135.31356 
L 285.358167 135.31356 
L 285.358167 134.867219 
L 285.949154 134.867219 
L 285.949154 136.724127 
L 286.540141 136.724127 
L 286.540141 137.542587 
L 287.131128 137.542587 
L 287.131128 138.979109 
L 287.722115 138.979109 
L 287.722115 137.373098 
L 288.313101 137.373098 
L 288.313101 135.631111 
L 288.904088 135.631111 
L 288.904088 135.906922 
L 289.495075 135.906922 
L 289.495075 137.637682 
L 290.086062 137.637682 
L 290.086062 137.994084 
L 290.677049 137.994084 
L 290.677049 138.756714 
L 291.268036 138.756714 
L 291.268036 139.210064 
L 291.859023 139.210064 
L 291.859023 138.221398 
L 292.45001 138.221398 
L 292.45001 134.384797 
L 293.040997 134.384797 
L 293.040997 135.88482 
L 293.631984 135.88482 
L 293.631984 137.678656 
L 294.22297 137.678656 
L 294.22297 136.686127 
L 294.813957 136.686127 
L 294.813957 136.558209 
L 295.404944 136.558209 
L 295.404944 136.418436 
L 295.995931 136.418436 
L 295.995931 136.661012 
L 296.586918 136.661012 
L 296.586918 138.114882 
L 297.177905 138.114882 
L 297.177905 137.604067 
L 297.768892 137.604067 
L 297.768892 140.330735 
L 298.359879 140.330735 
L 298.359879 139.104206 
L 298.950866 139.104206 
L 298.950866 139.227661 
L 299.541853 139.227661 
L 299.541853 140.411716 
L 300.132839 140.411716 
L 300.132839 142.153972 
L 300.723826 142.153972 
L 300.723826 141.267602 
L 301.314813 141.267602 
L 301.314813 143.266944 
L 301.9058 143.266944 
L 301.9058 148.256676 
L 302.496787 148.256676 
L 302.496787 147.711541 
L 303.087774 147.711541 
L 303.087774 146.134154 
L 303.678761 146.134154 
L 303.678761 143.729744 
L 304.269748 143.729744 
L 304.269748 147.413355 
L 304.860735 147.413355 
L 304.860735 146.743214 
L 305.451722 146.743214 
L 305.451722 146.990332 
L 306.042708 146.990332 
L 306.042708 147.133952 
L 306.633695 147.133952 
L 306.633695 146.066566 
L 307.224682 146.066566 
L 307.224682 145.125593 
L 307.815669 145.125593 
L 307.815669 145.607242 
L 308.406656 145.607242 
L 308.406656 144.506165 
L 308.997643 144.506165 
L 308.997643 143.238742 
L 309.58863 143.238742 
L 309.58863 142.875683 
L 310.179617 142.875683 
L 310.179617 141.476374 
L 310.770604 141.476374 
L 310.770604 141.861751 
L 311.36159 141.861751 
L 311.36159 143.837962 
L 311.952577 143.837962 
L 311.952577 145.189256 
L 312.543564 145.189256 
L 312.543564 144.548875 
L 313.134551 144.548875 
L 313.134551 145.067818 
L 313.725538 145.067818 
L 313.725538 143.959065 
L 314.316525 143.959065 
L 314.316525 145.353427 
L 314.907512 145.353427 
L 314.907512 147.072788 
L 316.089486 147.106045 
L 316.089486 145.951593 
L 316.680473 145.951593 
L 316.680473 146.780354 
L 317.862446 146.839743 
L 317.862446 145.646513 
L 318.453433 145.646513 
L 318.453433 145.840654 
L 319.04442 145.840654 
L 319.04442 145.52311 
L 319.635407 145.52311 
L 319.635407 145.822927 
L 320.226394 145.822927 
L 320.226394 146.333104 
L 320.817381 146.333104 
L 320.817381 145.790046 
L 321.408368 145.790046 
L 321.408368 145.997503 
L 321.999355 145.997503 
L 321.999355 146.599727 
L 322.590342 146.599727 
L 322.590342 147.084466 
L 323.181328 147.084466 
L 323.181328 146.659462 
L 323.772315 146.659462 
L 323.772315 146.489511 
L 324.363302 146.489511 
L 324.363302 144.786225 
L 324.954289 144.786225 
L 324.954289 145.209704 
L 325.545276 145.209704 
L 325.545276 145.58555 
L 326.136263 145.58555 
L 326.136263 144.899515 
L 326.72725 144.899515 
L 326.72725 144.413151 
L 327.318237 144.413151 
L 327.318237 143.352536 
L 327.909224 143.352536 
L 327.909224 142.165919 
L 328.500211 142.165919 
L 328.500211 141.956134 
L 329.091197 141.956134 
L 329.091197 142.749355 
L 330.273171 142.660533 
L 330.273171 141.618141 
L 330.864158 141.618141 
L 330.864158 141.919299 
L 331.455145 141.919299 
L 331.455145 142.434841 
L 332.046132 142.434841 
L 332.046132 142.563496 
L 332.637119 142.563496 
L 332.637119 143.170627 
L 333.228106 143.170627 
L 333.228106 143.889226 
L 333.819093 143.889226 
L 333.819093 146.783894 
L 334.41008 146.783894 
L 334.41008 146.617278 
L 335.001066 146.617278 
L 335.001066 146.885067 
L 335.592053 146.885067 
L 335.592053 146.432889 
L 336.774027 146.391179 
L 336.774027 145.253943 
L 337.365014 145.253943 
L 337.365014 146.046931 
L 337.956001 146.046931 
L 337.956001 146.600604 
L 338.546988 146.600604 
L 338.546988 146.44072 
L 339.137975 146.44072 
L 339.137975 146.109317 
L 339.728962 146.109317 
L 339.728962 145.674132 
L 340.319948 145.674132 
L 340.319948 145.789204 
L 340.910935 145.789204 
L 340.910935 145.042645 
L 342.092909 145.130483 
L 342.092909 144.58771 
L 342.683896 144.58771 
L 342.683896 143.919127 
L 343.274883 143.919127 
L 343.274883 142.92308 
L 343.86587 142.92308 
L 343.86587 142.04188 
L 344.456857 142.04188 
L 344.456857 139.335396 
L 345.047844 139.335396 
L 345.047844 135.146995 
L 345.638831 135.146995 
L 345.638831 136.03177 
L 346.229817 136.03177 
L 346.229817 140.54223 
L 346.820804 140.54223 
L 346.820804 139.904907 
L 347.411791 139.904907 
L 347.411791 139.474419 
L 348.002778 139.474419 
L 348.002778 139.623699 
L 348.593765 139.623699 
L 348.593765 137.592875 
L 349.184752 137.592875 
L 349.184752 137.338267 
L 349.775739 137.338267 
L 349.775739 136.035393 
L 350.366726 136.035393 
L 350.366726 134.561942 
L 350.957713 134.561942 
L 350.957713 133.765289 
L 351.5487 133.765289 
L 351.5487 132.721275 
L 352.139686 132.721275 
L 352.139686 133.537369 
L 352.730673 133.537369 
L 352.730673 132.768707 
L 353.32166 132.768707 
L 353.32166 133.772685 
L 354.503634 133.794425 
L 354.503634 133.957068 
L 355.094621 133.957068 
L 355.094621 133.082018 
L 355.685608 133.082018 
L 355.685608 133.943542 
L 356.276595 133.943542 
L 356.276595 136.111106 
L 356.867582 136.111106 
L 356.867582 136.319493 
L 357.458569 136.319493 
L 357.458569 135.793073 
L 358.049555 135.793073 
L 358.049555 136.578408 
L 358.640542 136.578408 
L 358.640542 137.016065 
L 359.231529 137.016065 
L 359.231529 136.663682 
L 359.822516 136.663682 
L 359.822516 136.503031 
L 360.413503 136.503031 
L 360.413503 135.410655 
L 361.00449 135.410655 
L 361.00449 134.39481 
L 362.186464 134.429653 
L 362.186464 133.848648 
L 362.777451 133.848648 
L 362.777451 134.274991 
L 363.368438 134.274991 
L 363.368438 135.088159 
L 363.959424 135.088159 
L 363.959424 134.58552 
L 365.141398 134.634206 
L 365.141398 134.976402 
L 365.732385 134.976402 
L 365.732385 134.566752 
L 366.914359 134.539353 
L 366.914359 134.694626 
L 367.505346 134.694626 
L 367.505346 134.465036 
L 368.68732 134.39624 
L 368.68732 134.268829 
L 369.278307 134.268829 
L 369.278307 133.948205 
L 369.869293 133.948205 
L 369.869293 133.647329 
L 370.46028 133.647329 
L 370.46028 132.926744 
L 371.051267 132.926744 
L 371.051267 133.222757 
L 371.642254 133.222757 
L 371.642254 132.878937 
L 372.233241 132.878937 
L 372.233241 133.040078 
L 372.824228 133.040078 
L 372.824228 132.543093 
L 373.415215 132.543093 
L 373.415215 132.754641 
L 374.006202 132.754641 
L 374.006202 132.8754 
L 374.597189 132.8754 
L 374.597189 133.316532 
L 375.188175 133.316532 
L 375.188175 133.069963 
L 375.779162 133.069963 
L 375.779162 130.454174 
L 376.370149 130.454174 
L 376.370149 129.434672 
L 376.961136 129.434672 
L 376.961136 127.801074 
L 377.552123 127.801074 
L 377.552123 128.00004 
L 378.14311 128.00004 
L 378.14311 124.590979 
L 378.734097 124.590979 
L 378.734097 122.72857 
L 379.325084 122.72857 
L 379.325084 127.49158 
L 379.916071 127.49158 
L 379.916071 126.266876 
L 380.507058 126.266876 
L 380.507058 125.101367 
L 381.098044 125.101367 
L 381.098044 124.68503 
L 381.689031 124.68503 
L 381.689031 125.250347 
L 383.461992 125.301163 
L 383.461992 125.114865 
L 384.052979 125.114865 
L 384.052979 125.296318 
L 384.643966 125.296318 
L 384.643966 125.476985 
L 385.234953 125.476985 
L 385.234953 127.065375 
L 385.82594 127.065375 
L 385.82594 128.18211 
L 386.416927 128.18211 
L 386.416927 127.757887 
L 387.5989 127.814117 
L 387.5989 128.245157 
L 388.189887 128.245157 
L 388.189887 128.02466 
L 389.371861 128.076426 
L 389.371861 128.22482 
L 390.553835 128.207305 
L 390.553835 126.979565 
L 391.144822 126.979565 
L 391.144822 126.540151 
L 391.735809 126.540151 
L 391.735809 126.952249 
L 392.917782 127.007578 
L 392.917782 127.448718 
L 393.508769 127.448718 
L 393.508769 127.024734 
L 395.28173 127.011866 
L 395.28173 126.773153 
L 395.872717 126.773153 
L 395.872717 126.10954 
L 396.463704 126.10954 
L 396.463704 125.989756 
L 397.054691 125.989756 
L 397.054691 126.308236 
L 397.645678 126.308236 
L 397.645678 125.834884 
L 398.236665 125.834884 
L 398.236665 124.569943 
L 398.827651 124.569943 
L 398.827651 123.415695 
L 399.418638 123.415695 
L 399.418638 124.063357 
L 400.009625 124.063357 
L 400.009625 123.556772 
L 400.600612 123.556772 
L 400.600612 124.151812 
L 401.191599 124.151812 
L 401.191599 123.135401 
L 402.96456 123.12915 
L 402.96456 123.321644 
L 403.555547 123.321644 
L 403.555547 122.437442 
L 404.73752 122.345512 
L 404.73752 122.300878 
L 405.328507 122.300878 
L 405.328507 122.101377 
L 405.919494 122.101377 
L 405.919494 121.714061 
L 406.510481 121.714061 
L 406.510481 118.821554 
L 407.101468 118.821554 
L 407.101468 118.465121 
L 407.692455 118.465121 
L 407.692455 117.735832 
L 408.283442 117.735832 
L 408.283442 114.943912 
L 408.874429 114.943912 
L 408.874429 118.897084 
L 409.465416 118.897084 
L 409.465416 121.350498 
L 410.056402 121.350498 
L 410.056402 120.737376 
L 410.647389 120.737376 
L 410.647389 119.226443 
L 411.238376 119.226443 
L 411.238376 119.49774 
L 411.829363 119.49774 
L 411.829363 118.719036 
L 412.42035 118.719036 
L 412.42035 117.353805 
L 413.011337 117.353805 
L 413.011337 116.798248 
L 413.602324 116.798248 
L 413.602324 117.31474 
L 414.193311 117.31474 
L 414.193311 116.994925 
L 414.784298 116.994925 
L 414.784298 115.955138 
L 415.375285 115.955138 
L 415.375285 114.659904 
L 415.966271 114.659904 
L 415.966271 114.213252 
L 416.557258 114.213252 
L 416.557258 112.95463 
L 417.148245 112.95463 
L 417.148245 112.215352 
L 417.739232 112.215352 
L 417.739232 113.499741 
L 418.330219 113.499741 
L 418.330219 112.698917 
L 418.921206 112.698917 
L 418.921206 115.695677 
L 419.512193 115.695677 
L 419.512193 114.874691 
L 420.10318 114.874691 
L 420.10318 117.79883 
L 420.694167 117.79883 
L 420.694167 116.237835 
L 421.285154 116.237835 
L 421.285154 115.477701 
L 421.87614 115.477701 
L 421.87614 113.472205 
L 422.467127 113.472205 
L 422.467127 113.201232 
L 423.058114 113.201232 
L 423.058114 113.868202 
L 423.649101 113.868202 
L 423.649101 113.347262 
L 424.240088 113.347262 
L 424.240088 112.820031 
L 424.831075 112.820031 
L 424.831075 111.949557 
L 425.422062 111.949557 
L 425.422062 110.937153 
L 426.013049 110.937153 
L 426.013049 108.406962 
L 426.604036 108.406962 
L 426.604036 106.975718 
L 427.195023 106.975718 
L 427.195023 106.475211 
L 427.786009 106.475211 
L 427.786009 106.285513 
L 428.376996 106.285513 
L 428.376996 103.047775 
L 428.967983 103.047775 
L 428.967983 99.3059 
L 429.55897 99.3059 
L 429.55897 101.434165 
L 430.149957 101.434165 
L 430.149957 99.401745 
L 430.740944 99.401745 
L 430.740944 97.13193 
L 431.331931 97.13193 
L 431.331931 96.217978 
L 431.922918 96.217978 
L 431.922918 97.080942 
L 432.513905 97.080942 
L 432.513905 97.653341 
L 433.104891 97.653341 
L 433.104891 97.434209 
L 433.695878 97.434209 
L 433.695878 98.650574 
L 434.286865 98.650574 
L 434.286865 98.335587 
L 435.468839 98.27076 
L 435.468839 98.643931 
L 436.059826 98.643931 
L 436.059826 100.241902 
L 436.650813 100.241902 
L 436.650813 103.415545 
L 437.2418 103.415545 
L 437.2418 100.642127 
L 437.832787 100.642127 
L 437.832787 96.76984 
L 438.423774 96.76984 
L 438.423774 97.450487 
L 439.01476 97.450487 
L 439.01476 95.952053 
L 440.196734 95.996737 
L 440.196734 92.456833 
L 440.787721 92.456833 
L 440.787721 89.922675 
L 441.378708 89.922675 
L 441.378708 87.454791 
L 441.969695 87.454791 
L 441.969695 88.981725 
L 442.560682 88.981725 
L 442.560682 87.657344 
L 443.151669 87.657344 
L 443.151669 87.450855 
L 443.742656 87.450855 
L 443.742656 85.15428 
L 444.333643 85.15428 
L 444.333643 87.412634 
L 444.924629 87.412634 
L 444.924629 87.661505 
L 445.515616 87.661505 
L 445.515616 89.939767 
L 446.106603 89.939767 
L 446.106603 90.931296 
L 446.69759 90.931296 
L 446.69759 91.358385 
L 447.288577 91.358385 
L 447.288577 89.596785 
L 447.879564 89.596785 
L 447.879564 88.44718 
L 448.470551 88.44718 
L 448.470551 87.766017 
L 449.061538 87.766017 
L 449.061538 87.165508 
L 449.652525 87.165508 
L 449.652525 85.509309 
L 450.243512 85.509309 
L 450.243512 82.188887 
L 451.425485 82.169648 
L 451.425485 81.46695 
L 452.016472 81.46695 
L 452.016472 81.91558 
L 452.607459 81.91558 
L 452.607459 79.789478 
L 453.198446 79.789478 
L 453.198446 77.024161 
L 453.789433 77.024161 
L 453.789433 76.747511 
L 454.38042 76.747511 
L 454.38042 81.502657 
L 454.971407 81.502657 
L 454.971407 75.7017 
L 455.562394 75.7017 
L 455.562394 74.771576 
L 456.744367 74.844677 
L 456.744367 71.064047 
L 457.335354 71.064047 
L 457.335354 69.151492 
L 457.926341 69.151492 
L 457.926341 64.386582 
L 458.517328 64.386582 
L 458.517328 62.688359 
L 459.108315 62.688359 
L 459.108315 60.983079 
L 459.699302 60.983079 
L 459.699302 58.138856 
L 460.290289 58.138856 
L 460.290289 64.484215 
L 460.881276 64.484215 
L 460.881276 61.894793 
L 461.472263 61.894793 
L 461.472263 66.252362 
L 462.063249 66.252362 
L 462.063249 62.727887 
L 462.654236 62.727887 
L 462.654236 61.247552 
L 463.245223 61.247552 
L 463.245223 65.211162 
L 463.83621 65.211162 
L 463.83621 64.810286 
L 464.427197 64.810286 
L 464.427197 68.090569 
L 465.018184 68.090569 
L 465.018184 69.30141 
L 465.609171 69.30141 
L 465.609171 68.221789 
L 466.200158 68.221789 
L 466.200158 70.49668 
L 466.791145 70.49668 
L 466.791145 74.870838 
L 467.973118 74.766061 
L 467.973118 73.244809 
L 468.564105 73.244809 
L 468.564105 70.546677 
L 469.155092 70.546677 
L 469.155092 68.549271 
L 469.746079 68.549271 
L 469.746079 71.511708 
L 470.337066 71.511708 
L 470.337066 70.246729 
L 470.928053 70.246729 
L 470.928053 68.072613 
L 471.51904 68.072613 
L 471.51904 72.301956 
L 472.110027 72.301956 
L 472.110027 72.724154 
L 472.701014 72.724154 
L 472.701014 74.638186 
L 473.292001 74.638186 
L 473.292001 73.212796 
L 473.882987 73.212796 
L 473.882987 74.076805 
L 474.473974 74.076805 
L 474.473974 75.494465 
L 475.064961 75.494465 
L 475.064961 78.54452 
L 475.655948 78.54452 
L 475.655948 78.664803 
L 476.837922 78.671444 
L 476.837922 75.634412 
L 478.019896 75.604146 
L 478.019896 73.16643 
L 478.610883 73.16643 
L 478.610883 73.302485 
L 479.20187 73.302485 
L 479.20187 72.143847 
L 479.792856 72.143847 
L 479.792856 71.401356 
L 480.383843 71.401356 
L 480.383843 72.206257 
L 480.97483 72.206257 
L 480.97483 74.400786 
L 481.565817 74.400786 
L 481.565817 74.224505 
L 482.156804 74.224505 
L 482.156804 74.773374 
L 482.747791 74.773374 
L 482.747791 76.631272 
L 483.338778 76.631272 
L 483.338778 77.082516 
L 483.929765 77.082516 
L 483.929765 76.690684 
L 485.111739 76.675153 
L 485.111739 76.356856 
L 485.702725 76.356856 
L 485.702725 79.366528 
L 486.293712 79.366528 
L 486.293712 79.564088 
L 486.884699 79.564088 
L 486.884699 78.741178 
L 487.475686 78.741178 
L 487.475686 80.614853 
L 488.066673 80.614853 
L 488.066673 81.543299 
L 488.65766 81.543299 
L 488.65766 79.143313 
L 489.839634 79.136816 
L 489.839634 80.062286 
L 490.430621 80.062286 
L 490.430621 80.318434 
L 491.021607 80.318434 
L 491.021607 77.010244 
L 492.203581 76.91388 
L 492.203581 75.52169 
L 492.794568 75.52169 
L 492.794568 74.945626 
L 493.385555 74.945626 
L 493.385555 76.891962 
L 493.976542 76.891962 
L 493.976542 78.867778 
L 494.567529 78.867778 
L 494.567529 80.385824 
L 495.158516 80.385824 
L 495.158516 80.248587 
L 495.749503 80.248587 
L 495.749503 79.570571 
L 496.34049 79.570571 
L 496.34049 79.449344 
L 496.931476 79.449344 
L 496.931476 78.329421 
L 497.522463 78.329421 
L 497.522463 77.991228 
L 498.11345 77.991228 
L 498.11345 77.042659 
L 498.704437 77.042659 
L 498.704437 80.52715 
L 499.295424 80.52715 
L 499.295424 80.07251 
L 499.886411 80.07251 
L 499.886411 79.537282 
L 501.068385 79.541444 
L 501.068385 79.273675 
L 501.659372 79.273675 
L 501.659372 79.136604 
L 502.250359 79.136604 
L 502.250359 79.463621 
L 502.841345 79.463621 
L 502.841345 79.303603 
L 504.023319 79.280917 
L 504.023319 80.266194 
L 504.614306 80.266194 
L 504.614306 79.499587 
L 505.79628 79.548012 
L 505.79628 79.615114 
L 506.387267 79.615114 
L 506.387267 80.150007 
L 506.978254 80.150007 
L 506.978254 79.961184 
L 507.569241 79.961184 
L 507.569241 79.416011 
L 508.160228 79.416011 
L 508.160228 79.813029 
L 508.751214 79.813029 
L 508.751214 82.305209 
L 509.342201 82.305209 
L 509.342201 85.39909 
L 509.933188 85.39909 
L 509.933188 87.559515 
L 510.524175 87.559515 
L 510.524175 90.131213 
L 511.115162 90.131213 
L 511.115162 88.332941 
L 511.706149 88.332941 
L 511.706149 90.572721 
L 512.297136 90.572721 
L 512.297136 91.42792 
L 512.888123 91.42792 
L 512.888123 93.057066 
L 513.47911 93.057066 
L 513.47911 91.606765 
L 514.070097 91.606765 
L 514.070097 89.761224 
L 514.661083 89.761224 
L 514.661083 90.1675 
L 515.25207 90.1675 
L 515.25207 90.437443 
L 515.843057 90.437443 
L 515.843057 89.600198 
L 516.434044 89.600198 
L 516.434044 88.897089 
L 517.025031 88.897089 
L 517.025031 91.107828 
L 517.616018 91.107828 
L 517.616018 90.9098 
L 518.207005 90.9098 
L 518.207005 91.220862 
L 518.797992 91.220862 
L 518.797992 91.434005 
L 519.979965 91.495794 
L 519.979965 92.100143 
L 521.161939 92.180998 
L 521.161939 92.539203 
L 521.752926 92.539203 
L 521.752926 91.200213 
L 522.343913 91.200213 
L 522.343913 91.317933 
L 522.9349 91.317933 
L 522.9349 89.624566 
L 523.525887 89.624566 
L 523.525887 88.566187 
L 524.116874 88.566187 
L 524.116874 90.106222 
L 525.298848 90.203906 
L 525.298848 89.828152 
L 526.480821 89.857701 
L 526.480821 89.573775 
L 527.071808 89.573775 
L 527.071808 89.108037 
L 528.844769 89.011831 
L 528.844769 88.689654 
L 529.435756 88.689654 
L 529.435756 85.142736 
L 530.026743 85.142736 
L 530.026743 83.735537 
L 530.61773 83.735537 
L 530.61773 84.49428 
L 531.208717 84.49428 
L 531.208717 84.01136 
L 531.799703 84.01136 
L 531.799703 83.581903 
L 532.39069 83.581903 
L 532.39069 83.116151 
L 532.981677 83.116151 
L 532.981677 83.612067 
L 533.572664 83.612067 
L 533.572664 83.279093 
L 534.163651 83.279093 
L 534.163651 82.21431 
L 534.754638 82.21431 
L 534.754638 80.00304 
L 535.345625 80.00304 
L 535.345625 75.388739 
L 535.936612 75.388739 
L 535.936612 77.300523 
L 536.527599 77.300523 
L 536.527599 76.329549 
L 537.118586 76.329549 
L 537.118586 73.588391 
L 537.709572 73.588391 
L 537.709572 74.699661 
L 538.300559 74.699661 
L 538.300559 75.035462 
L 538.891546 75.035462 
L 538.891546 75.374711 
L 539.482533 75.374711 
L 539.482533 75.577846 
L 540.07352 75.577846 
L 540.07352 73.326593 
L 540.664507 73.326593 
L 540.664507 72.394101 
L 541.255494 72.394101 
L 541.255494 69.332889 
L 541.846481 69.332889 
L 541.846481 68.751771 
L 542.437468 68.751771 
L 542.437468 69.774352 
L 543.028455 69.774352 
L 543.028455 69.074026 
L 543.619441 69.074026 
L 543.619441 66.293311 
L 544.210428 66.293311 
L 544.210428 68.295987 
L 544.801415 68.295987 
L 544.801415 71.56439 
L 545.392402 71.56439 
L 545.392402 69.757906 
L 545.983389 69.757906 
L 545.983389 71.152746 
L 546.574376 71.152746 
L 546.574376 71.925688 
L 547.165363 71.925688 
L 547.165363 69.867663 
L 547.75635 69.867663 
L 547.75635 68.161783 
L 548.347337 68.161783 
L 548.347337 68.484832 
L 548.938324 68.484832 
L 548.938324 70.867214 
L 549.52931 70.867214 
L 549.52931 70.274935 
L 550.120297 70.274935 
L 550.120297 70.678119 
L 550.711284 70.678119 
L 550.711284 70.192254 
L 551.302271 70.192254 
L 551.302271 71.764738 
L 551.893258 71.764738 
L 551.893258 69.693916 
L 552.484245 69.693916 
L 552.484245 69.948362 
L 553.075232 69.948362 
L 553.075232 70.584572 
L 553.666219 70.584572 
L 553.666219 70.288858 
L 554.848192 70.356086 
L 554.848192 71.545559 
L 555.439179 71.545559 
L 555.439179 74.890773 
L 556.030166 74.890773 
L 556.030166 74.577861 
L 556.621153 74.577861 
L 556.621153 75.004046 
L 557.21214 75.004046 
L 557.21214 73.950094 
L 557.803127 73.950094 
L 557.803127 74.67232 
L 558.394114 74.67232 
L 558.394114 75.179121 
L 558.985101 75.179121 
L 558.985101 74.820938 
L 559.576088 74.820938 
L 559.576088 73.766993 
L 560.167075 73.766993 
L 560.167075 72.069504 
L 560.758061 72.069504 
L 560.758061 72.352109 
L 561.940035 72.261529 
L 561.940035 72.928951 
L 562.531022 72.928951 
L 562.531022 73.846811 
L 563.122009 73.846811 
L 563.122009 74.9346 
L 563.712996 74.9346 
L 563.712996 77.241888 
L 564.303983 77.241888 
L 564.303983 77.582093 
L 564.89497 77.582093 
L 564.89497 76.509502 
L 565.485957 76.509502 
L 565.485957 77.500563 
L 566.076944 77.500563 
L 566.076944 76.603349 
L 566.66793 76.603349 
L 566.66793 77.510841 
L 567.258917 77.510841 
L 567.258917 78.392555 
L 567.849904 78.392555 
L 567.849904 77.508027 
L 568.440891 77.508027 
L 568.440891 77.34015 
L 569.031878 77.34015 
L 569.031878 77.201466 
L 569.622865 77.201466 
L 569.622865 77.548431 
L 570.213852 77.548431 
L 570.213852 77.063409 
L 570.804839 77.063409 
L 570.804839 75.83155 
L 571.395826 75.83155 
L 571.395826 75.10867 
L 571.986813 75.10867 
L 571.986813 73.23441 
L 572.577799 73.23441 
L 572.577799 73.639212 
L 573.168786 73.639212 
L 573.168786 74.56718 
L 573.759773 74.56718 
L 573.759773 72.398179 
L 574.941747 72.323318 
L 574.941747 71.396613 
L 575.532734 71.396613 
L 575.532734 71.194123 
L 576.123721 71.194123 
L 576.123721 70.176312 
L 576.714708 70.176312 
L 576.714708 70.542565 
L 577.305695 70.542565 
L 577.305695 71.574019 
L 577.896682 71.574019 
L 577.896682 73.494474 
L 578.487668 73.494474 
L 578.487668 74.075843 
L 579.078655 74.075843 
L 579.078655 72.861976 
L 579.669642 72.861976 
L 579.669642 75.541553 
L 580.260629 75.541553 
L 580.260629 82.481896 
L 580.851616 82.481896 
L 580.851616 83.400408 
L 581.442603 83.400408 
L 581.442603 80.508406 
L 582.03359 80.508406 
L 582.03359 78.926804 
L 582.624577 78.926804 
L 582.624577 81.518543 
L 583.215564 81.518543 
L 583.215564 78.598658 
L 583.80655 78.598658 
L 583.80655 77.086225 
L 584.397537 77.086225 
L 584.397537 78.410905 
L 585.579511 78.414665 
L 585.579511 77.316215 
L 586.170498 77.316215 
L 586.170498 77.673559 
L 586.761485 77.673559 
L 586.761485 76.13785 
L 587.352472 76.13785 
L 587.352472 73.855049 
L 587.943459 73.855049 
L 587.943459 73.266863 
L 588.534446 73.266863 
L 588.534446 71.261284 
L 589.125433 71.261284 
L 589.125433 73.428447 
L 589.716419 73.428447 
L 589.716419 72.17093 
L 590.307406 72.17093 
L 590.307406 71.906009 
L 590.898393 71.906009 
L 590.898393 73.619772 
L 591.48938 73.619772 
L 591.48938 71.783106 
L 592.080367 71.783106 
L 592.080367 70.496229 
L 592.671354 70.496229 
L 592.671354 71.669276 
L 593.262341 71.669276 
L 593.262341 71.356639 
L 593.853328 71.356639 
L 593.853328 71.984439 
L 595.035302 72.023993 
L 595.035302 72.387456 
L 596.217275 72.482444 
L 596.217275 72.603098 
L 596.808262 72.603098 
L 596.808262 72.850869 
L 597.399249 72.850869 
L 597.399249 72.449137 
L 598.581223 72.493046 
L 598.581223 72.585313 
L 599.763197 72.539289 
L 599.763197 71.691432 
L 600.354184 71.691432 
L 600.354184 68.915161 
L 600.945171 68.915161 
L 600.945171 68.375669 
L 601.536157 68.375669 
L 601.536157 68.641612 
L 602.127144 68.641612 
L 602.127144 67.641184 
L 602.718131 67.641184 
L 602.718131 67.974976 
L 603.309118 67.974976 
L 603.309118 67.393529 
L 604.491092 67.474705 
L 604.491092 67.647431 
L 605.082079 67.647431 
L 605.082079 68.041473 
L 605.673066 68.041473 
L 605.673066 67.378001 
L 606.264053 67.378001 
L 606.264053 70.58398 
L 606.85504 70.58398 
L 606.85504 70.44996 
L 607.446026 70.44996 
L 607.446026 70.249385 
L 608.037013 70.249385 
L 608.037013 69.094641 
L 608.628 69.094641 
L 608.628 70.057038 
L 609.218987 70.057038 
L 609.218987 69.559446 
L 609.809974 69.559446 
L 609.809974 69.284203 
L 610.400961 69.284203 
L 610.400961 69.825442 
L 610.991948 69.825442 
L 610.991948 69.600771 
L 611.582935 69.600771 
L 611.582935 68.317964 
L 612.173922 68.317964 
L 612.173922 68.095408 
L 612.764908 68.095408 
L 612.764908 67.657258 
L 613.355895 67.657258 
L 613.355895 65.731997 
L 613.946882 65.731997 
L 613.946882 64.666977 
L 614.537869 64.666977 
L 614.537869 64.435267 
L 615.128856 64.435267 
L 615.128856 63.940689 
L 615.719843 63.940689 
L 615.719843 62.135626 
L 616.31083 62.135626 
L 616.31083 61.120974 
L 616.901817 61.120974 
L 616.901817 60.599822 
L 617.492804 60.599822 
L 617.492804 58.377865 
L 618.083791 58.377865 
L 618.083791 57.864613 
L 618.674777 57.864613 
L 618.674777 59.428523 
L 619.265764 59.428523 
L 619.265764 57.807812 
L 619.856751 57.807812 
L 619.856751 57.651451 
L 620.447738 57.651451 
L 620.447738 58.854746 
L 621.038725 58.854746 
L 621.038725 57.75619 
L 621.629712 57.75619 
L 621.629712 54.088183 
L 622.220699 54.088183 
L 622.220699 53.513237 
L 622.811686 53.513237 
L 622.811686 51.424957 
L 623.402673 51.424957 
L 623.402673 49.67567 
L 623.99366 49.67567 
L 623.99366 46.987963 
L 624.584646 46.987963 
L 624.584646 43.394493 
L 625.175633 43.394493 
L 625.175633 45.500499 
L 625.76662 45.500499 
L 625.76662 44.789986 
L 626.357607 44.789986 
L 626.357607 45.234515 
L 626.948594 45.234515 
L 626.948594 47.542422 
L 627.539581 47.542422 
L 627.539581 48.619465 
L 628.130568 48.619465 
L 628.130568 46.905785 
L 628.721555 46.905785 
L 628.721555 44.695814 
L 629.312542 44.695814 
L 629.312542 40.178232 
L 629.903529 40.178232 
L 629.903529 39.705602 
L 630.494515 39.705602 
L 630.494515 39.005501 
L 631.085502 39.005501 
L 631.085502 36.395945 
L 631.676489 36.395945 
L 631.676489 38.417457 
L 632.267476 38.417457 
L 632.267476 40.725796 
L 632.858463 40.725796 
L 632.858463 39.297369 
L 633.44945 39.297369 
L 633.44945 37.765699 
L 634.040437 37.765699 
L 634.040437 35.953074 
L 634.631424 35.953074 
L 634.631424 36.086768 
L 635.222411 36.086768 
L 635.222411 35.663934 
L 635.813398 35.663934 
L 635.813398 37.685858 
L 636.404384 37.685858 
L 636.404384 36.473881 
L 636.995371 36.473881 
L 636.995371 35.440669 
L 638.177345 35.332804 
L 638.177345 35.658149 
L 638.768332 35.658149 
L 638.768332 33.861839 
L 639.359319 33.861839 
L 639.359319 34.985486 
L 639.950306 34.985486 
L 639.950306 37.195813 
L 640.541293 37.195813 
L 640.541293 39.039965 
L 641.13228 39.039965 
L 641.13228 37.279608 
L 641.723266 37.279608 
L 641.723266 35.967055 
L 642.90524 35.908699 
L 642.90524 36.129913 
L 643.496227 36.129913 
L 643.496227 40.018055 
L 644.087214 40.018055 
L 644.087214 44.716296 
L 644.678201 44.716296 
L 644.678201 45.950896 
L 645.269188 45.950896 
L 645.269188 43.92948 
L 645.860175 43.92948 
L 645.860175 44.529546 
L 646.451162 44.529546 
L 646.451162 44.759016 
L 647.042149 44.759016 
L 647.042149 46.717049 
L 647.633135 46.717049 
L 647.633135 45.528715 
L 648.224122 45.528715 
L 648.224122 43.992313 
L 648.815109 43.992313 
L 648.815109 45.473802 
L 649.406096 45.473802 
L 649.406096 46.017372 
L 650.58807 46.123296 
L 650.58807 46.475019 
L 651.179057 46.475019 
L 651.179057 46.266602 
L 651.770044 46.266602 
L 651.770044 46.67794 
L 652.361031 46.67794 
L 652.361031 47.101272 
L 652.952018 47.101272 
L 652.952018 47.740726 
L 653.543004 47.740726 
L 653.543004 47.419166 
L 654.133991 47.419166 
L 654.133991 44.525467 
L 654.724978 44.525467 
L 654.724978 42.05641 
L 655.315965 42.05641 
L 655.315965 44.090211 
L 655.906952 44.090211 
L 655.906952 40.939943 
L 656.497939 40.939943 
L 656.497939 40.506118 
L 657.088926 40.506118 
L 657.088926 39.881461 
L 657.679913 39.881461 
L 657.679913 40.018882 
L 658.2709 40.018882 
L 658.2709 38.85799 
L 658.861887 38.85799 
L 658.861887 39.047607 
L 659.452873 39.047607 
L 659.452873 39.839172 
L 660.04386 39.839172 
L 660.04386 38.68729 
L 660.634847 38.68729 
L 660.634847 40.302128 
L 661.816821 40.310502 
L 661.816821 39.573617 
L 662.407808 39.573617 
L 662.407808 41.732892 
L 663.589782 41.773082 
L 663.589782 42.635465 
L 664.180769 42.635465 
L 664.180769 39.598009 
L 664.771756 39.598009 
L 664.771756 36.632468 
L 665.362742 36.632468 
L 665.362742 36.894017 
L 665.953729 36.894017 
L 665.953729 35.902602 
L 666.544716 35.902602 
L 666.544716 34.366979 
L 667.135703 34.366979 
L 667.135703 34.783191 
L 667.72669 34.783191 
L 667.72669 34.899645 
L 668.317677 34.899645 
L 668.317677 34.444793 
L 668.908664 34.444793 
L 668.908664 34.051689 
L 670.090638 33.94433 
L 670.090638 33.461115 
L 670.681624 33.461115 
L 670.681624 33.852447 
L 671.272611 33.852447 
L 671.272611 35.647658 
L 671.863598 35.647658 
L 671.863598 35.839723 
L 672.454585 35.839723 
L 672.454585 36.829806 
L 673.045572 36.829806 
L 673.045572 35.961304 
L 673.636559 35.961304 
L 673.636559 38.915935 
L 674.227546 38.915935 
L 674.227546 39.626322 
L 674.818533 39.626322 
L 674.818533 40.009268 
L 675.40952 40.009268 
L 675.40952 40.260821 
L 676.000507 40.260821 
L 676.000507 39.097597 
L 676.591493 39.097597 
L 676.591493 38.478457 
L 677.18248 38.478457 
L 677.18248 40.158988 
L 677.773467 40.158988 
L 677.773467 39.766251 
L 678.364454 39.766251 
L 678.364454 41.630879 
L 678.955441 41.630879 
L 678.955441 42.230411 
L 679.546428 42.230411 
L 679.546428 41.640756 
L 680.137415 41.640756 
L 680.137415 41.977176 
L 680.728402 41.977176 
L 680.728402 45.769103 
L 681.319389 45.769103 
L 681.319389 44.792716 
L 681.910376 44.792716 
L 681.910376 44.205754 
L 682.501362 44.205754 
L 682.501362 44.64699 
L 683.092349 44.64699 
L 683.092349 41.302234 
L 683.683336 41.302234 
L 683.683336 41.967826 
L 684.274323 41.967826 
L 684.274323 40.983936 
L 684.86531 40.983936 
L 684.86531 43.077952 
L 685.456297 43.077952 
L 685.456297 44.53978 
L 686.047284 44.53978 
L 686.047284 44.319141 
L 686.638271 44.319141 
L 686.638271 41.938028 
L 687.229258 41.938028 
L 687.229258 44.145692 
L 687.820245 44.145692 
L 687.820245 43.775993 
L 688.411231 43.775993 
L 688.411231 43.478474 
L 689.002218 43.478474 
L 689.002218 42.052534 
L 689.593205 42.052534 
L 689.593205 41.731258 
L 690.184192 41.731258 
L 690.184192 39.965862 
L 690.775179 39.965862 
L 690.775179 40.537864 
L 691.366166 40.537864 
L 691.366166 40.071832 
L 691.957153 40.071832 
L 691.957153 42.025693 
L 692.54814 42.025693 
L 692.54814 43.084369 
L 693.139127 43.084369 
L 693.139127 42.941748 
L 693.730114 42.941748 
L 693.730114 42.458177 
L 694.3211 42.458177 
L 694.3211 43.404879 
L 694.912087 43.404879 
L 694.912087 43.250954 
L 695.503074 43.250954 
L 695.503074 43.895458 
L 696.094061 43.895458 
L 696.094061 45.238463 
L 696.685048 45.238463 
L 696.685048 48.238099 
L 697.276035 48.238099 
L 697.276035 48.847626 
L 697.867022 48.847626 
L 697.867022 49.797937 
L 698.458009 49.797937 
L 698.458009 48.712009 
L 699.048996 48.712009 
L 699.048996 49.442895 
L 699.639983 49.442895 
L 699.639983 47.783566 
L 700.230969 47.783566 
L 700.230969 49.110975 
L 700.821956 49.110975 
L 700.821956 48.164653 
L 701.412943 48.164653 
L 701.412943 50.034292 
L 702.00393 50.034292 
L 702.00393 54.614113 
L 702.594917 54.614113 
L 702.594917 56.484341 
L 703.185904 56.484341 
L 703.185904 55.957072 
L 703.776891 55.957072 
L 703.776891 56.327142 
L 704.367878 56.327142 
L 704.367878 57.808094 
L 704.958865 57.808094 
L 704.958865 56.836968 
L 705.549851 56.836968 
L 705.549851 55.493026 
L 706.140838 55.493026 
L 706.140838 56.795548 
L 706.731825 56.795548 
L 706.731825 56.257605 
L 707.322812 56.257605 
L 707.322812 54.085329 
L 707.913799 54.085329 
L 707.913799 55.756335 
L 708.504786 55.756335 
L 708.504786 53.54099 
L 709.095773 53.54099 
L 709.095773 54.234946 
L 710.277747 54.265105 
L 710.277747 53.400127 
L 710.868734 53.400127 
L 710.868734 53.105575 
L 711.45972 53.105575 
L 711.45972 54.050844 
L 712.050707 54.050844 
L 712.050707 55.660458 
L 712.641694 55.660458 
L 712.641694 56.786013 
L 713.232681 56.786013 
L 713.232681 57.226672 
L 714.414655 57.184298 
L 714.414655 57.752564 
L 715.005642 57.752564 
L 715.005642 55.297323 
L 715.596629 55.297323 
L 715.596629 57.326421 
L 716.187616 57.326421 
L 716.187616 57.482101 
L 716.778603 57.482101 
L 716.778603 57.752045 
L 717.369589 57.752045 
L 717.369589 57.935388 
L 717.960576 57.935388 
L 717.960576 57.716642 
L 718.551563 57.716642 
L 718.551563 56.850985 
L 719.14255 56.850985 
L 719.14255 57.585183 
L 720.915511 57.475163 
L 720.915511 57.865846 
L 721.506498 57.865846 
L 721.506498 56.917156 
L 722.097485 56.917156 
L 722.097485 56.21722 
L 722.688472 56.21722 
L 722.688472 56.864695 
L 723.279458 56.864695 
L 723.279458 56.117241 
L 723.870445 56.117241 
L 723.870445 59.63537 
L 724.461432 59.63537 
L 724.461432 60.764787 
L 725.052419 60.764787 
L 725.052419 60.650097 
L 725.643406 60.650097 
L 725.643406 61.245276 
L 726.234393 61.245276 
L 726.234393 60.927835 
L 726.82538 60.927835 
L 726.82538 60.073343 
L 729.189327 60.031104 
L 729.189327 60.70494 
L 729.780314 60.70494 
L 729.780314 60.386024 
L 730.962288 60.465016 
L 730.962288 60.823651 
L 732.144262 60.73372 
L 732.144262 60.478926 
L 732.735249 60.478926 
L 732.735249 60.048338 
L 733.326236 60.048338 
L 733.326236 57.085162 
L 733.917223 57.085162 
L 733.917223 55.903123 
L 734.508209 55.903123 
L 734.508209 54.418161 
L 735.099196 54.418161 
L 735.099196 54.14107 
L 735.690183 54.14107 
L 735.690183 53.571445 
L 736.28117 53.571445 
L 736.28117 53.827217 
L 736.872157 53.827217 
L 736.872157 54.425867 
L 737.463144 54.425867 
L 737.463144 55.441172 
L 738.054131 55.441172 
L 738.054131 54.917476 
L 738.645118 54.917476 
L 738.645118 52.837973 
L 739.236105 52.837973 
L 739.236105 53.2123 
L 739.827092 53.2123 
L 739.827092 53.734608 
L 741.009065 53.816161 
L 741.009065 54.738995 
L 741.600052 54.738995 
L 741.600052 56.794399 
L 742.191039 56.794399 
L 742.191039 52.73621 
L 742.782026 52.73621 
L 742.782026 51.025874 
L 743.373013 51.025874 
L 743.373013 50.78166 
L 743.964 50.78166 
L 743.964 50.279327 
L 745.145974 50.255579 
L 745.145974 50.421182 
L 746.327947 50.332539 
L 746.327947 48.741108 
L 747.509921 48.685316 
L 747.509921 49.694433 
L 748.100908 49.694433 
L 748.100908 50.574259 
L 748.691895 50.574259 
L 748.691895 49.247346 
L 749.282882 49.247346 
L 749.282882 50.217327 
L 749.873869 50.217327 
L 749.873869 49.209993 
L 750.464856 49.209993 
L 750.464856 50.538329 
L 751.055843 50.538329 
L 751.055843 51.167033 
L 751.64683 51.167033 
L 751.64683 50.714329 
L 752.237816 50.714329 
L 752.237816 51.189006 
L 752.828803 51.189006 
L 752.828803 51.39916 
L 753.41979 51.39916 
L 753.41979 50.462698 
L 754.010777 50.462698 
L 754.010777 50.821593 
L 755.192751 50.827687 
L 755.192751 51.877199 
L 755.783738 51.877199 
L 755.783738 52.447519 
L 756.374725 52.447519 
L 756.374725 51.505504 
L 756.965712 51.505504 
L 756.965712 48.961751 
L 757.556699 48.961751 
L 757.556699 48.720107 
L 758.147685 48.720107 
L 758.147685 48.585039 
L 758.738672 48.585039 
L 758.738672 48.386622 
L 759.329659 48.386622 
L 759.329659 48.754646 
L 759.920646 48.754646 
L 759.920646 48.637599 
L 761.10262 48.737598 
L 761.10262 49.029808 
L 761.693607 49.029808 
L 761.693607 49.453532 
L 762.875581 49.359234 
L 762.875581 49.109726 
L 763.466567 49.109726 
L 763.466567 49.543249 
L 764.057554 49.543249 
L 764.057554 49.189362 
L 764.648541 49.189362 
L 764.648541 49.3813 
L 765.239528 49.3813 
L 765.239528 51.259884 
L 765.830515 51.259884 
L 765.830515 51.668657 
L 767.012489 51.725466 
L 767.012489 50.472396 
L 767.603476 50.472396 
L 767.603476 51.864599 
L 769.376436 51.8927 
L 769.376436 51.354783 
L 769.967423 51.354783 
L 769.967423 51.183624 
L 770.55841 51.183624 
L 770.55841 51.320214 
L 771.149397 51.320214 
L 771.149397 51.600224 
L 771.740384 51.600224 
L 771.740384 51.029557 
L 772.331371 51.029557 
L 772.331371 50.424546 
L 773.513345 50.324199 
L 773.513345 51.187441 
L 774.104332 51.187441 
L 774.104332 49.912545 
L 774.695319 49.912545 
L 774.695319 49.110408 
L 775.286305 49.110408 
L 775.286305 46.447949 
L 776.468279 46.337173 
L 776.468279 45.559429 
L 777.059266 45.559429 
L 777.059266 45.782288 
L 777.650253 45.782288 
L 777.650253 44.862049 
L 779.423214 44.901357 
L 779.423214 45.352285 
L 780.014201 45.352285 
L 780.014201 44.268009 
L 781.196174 44.232842 
L 781.196174 43.147477 
L 781.787161 43.147477 
L 781.787161 41.548339 
L 782.378148 41.548339 
L 782.378148 42.524837 
L 782.969135 42.524837 
L 782.969135 42.189432 
L 783.560122 42.189432 
L 783.560122 42.033426 
L 784.151109 42.033426 
L 784.151109 41.344173 
L 784.742096 41.344173 
L 784.742096 41.468907 
L 785.333083 41.468907 
L 785.333083 42.039555 
L 785.92407 42.039555 
L 785.92407 41.140191 
L 786.515057 41.140191 
L 786.515057 39.917241 
L 787.106043 39.917241 
L 787.106043 41.759791 
L 787.69703 41.759791 
L 787.69703 41.625413 
L 788.288017 41.625413 
L 788.288017 42.321358 
L 788.879004 42.321358 
L 788.879004 43.101212 
L 789.469991 43.101212 
L 789.469991 42.143586 
L 790.060978 42.143586 
L 790.060978 41.65852 
L 790.651965 41.65852 
L 790.651965 41.849134 
L 791.242952 41.849134 
L 791.242952 39.848234 
L 791.833939 39.848234 
L 791.833939 38.770928 
L 792.424925 38.770928 
L 792.424925 38.002222 
L 794.197886 37.985794 
L 794.197886 34.626921 
L 794.788873 34.626921 
L 794.788873 32.39675 
L 795.970847 32.41749 
L 795.970847 31.505466 
L 796.561834 31.505466 
L 796.561834 33.318032 
L 797.152821 33.318032 
L 797.152821 32.549792 
L 797.743808 32.549792 
L 797.743808 32.736864 
L 798.334794 32.736864 
L 798.334794 31.712319 
L 798.925781 31.712319 
L 798.925781 32.012747 
L 799.516768 32.012747 
L 799.516768 32.549721 
L 800.107755 32.549721 
L 800.107755 32.174183 
L 800.698742 32.174183 
L 800.698742 33.715737 
L 801.289729 33.715737 
L 801.289729 34.591585 
L 801.880716 34.591585 
L 801.880716 33.426862 
L 802.471703 33.426862 
L 802.471703 33.570305 
L 803.06269 33.570305 
L 803.06269 33.774332 
L 803.653677 33.774332 
L 803.653677 34.073841 
L 804.244663 34.073841 
L 804.244663 34.253605 
L 804.83565 34.253605 
L 804.83565 34.747348 
L 805.426637 34.747348 
L 805.426637 33.033161 
L 806.608611 33.025017 
L 806.608611 32.524704 
L 807.199598 32.524704 
L 807.199598 32.106969 
L 807.790585 32.106969 
L 807.790585 32.659967 
L 808.381572 32.659967 
L 808.381572 31.769425 
L 808.972559 31.769425 
L 808.972559 32.128992 
L 809.563546 32.128992 
L 809.563546 32.437178 
L 810.154532 32.437178 
L 810.154532 32.913262 
L 810.745519 32.913262 
L 810.745519 33.463747 
L 811.336506 33.463747 
L 811.336506 34.92144 
L 812.51848 34.909438 
L 812.51848 34.348633 
L 813.109467 34.348633 
L 813.109467 35.602153 
L 813.700454 35.602153 
L 813.700454 35.782448 
L 814.291441 35.782448 
L 814.291441 34.749858 
L 814.882428 34.749858 
L 814.882428 33.73174 
L 815.473415 33.73174 
L 815.473415 32.626657 
L 816.655388 32.532774 
L 816.655388 33.051048 
L 817.246375 33.051048 
L 817.246375 34.789917 
L 817.837362 34.789917 
L 817.837362 36.745077 
L 818.428349 36.745077 
L 818.428349 35.447462 
L 819.019336 35.447462 
L 819.019336 35.858777 
L 819.610323 35.858777 
L 819.610323 35.190253 
L 820.20131 35.190253 
L 820.20131 33.696253 
L 820.792297 33.696253 
L 820.792297 35.193314 
L 821.383283 35.193314 
L 821.383283 35.361718 
L 821.97427 35.361718 
L 821.97427 35.705012 
L 822.565257 35.705012 
L 822.565257 36.809342 
L 823.156244 36.809342 
L 823.156244 35.64646 
L 824.338218 35.626323 
L 824.338218 33.969671 
L 824.929205 33.969671 
L 824.929205 33.634778 
L 825.520192 33.634778 
L 825.520192 33.139462 
L 826.111179 33.139462 
L 826.111179 34.802204 
L 826.702166 34.802204 
L 826.702166 34.096256 
L 827.293152 34.096256 
L 827.293152 34.924862 
L 827.884139 34.924862 
L 827.884139 33.090867 
L 828.475126 33.090867 
L 828.475126 32.38254 
L 829.066113 32.38254 
L 829.066113 32.694641 
L 830.248087 32.798795 
L 830.248087 31.27132 
L 830.839074 31.27132 
L 830.839074 32.289673 
L 831.430061 32.289673 
L 831.430061 30.299405 
L 832.021048 30.299405 
L 832.021048 27.180553 
L 832.612035 27.180553 
L 832.612035 26.658369 
L 833.203021 26.658369 
L 833.203021 26.373116 
L 833.794008 26.373116 
L 833.794008 25.233636 
L 834.384995 25.233636 
L 834.384995 25.609949 
L 834.975982 25.609949 
L 834.975982 25.337003 
L 836.748943 25.297523 
L 836.748943 24.491571 
L 837.33993 24.491571 
L 837.33993 23.586855 
L 837.930917 23.586855 
L 837.930917 25.346699 
L 838.521904 25.346699 
L 838.521904 24.924032 
L 839.11289 24.924032 
L 839.11289 26.121666 
L 839.703877 26.121666 
L 839.703877 25.423666 
L 840.294864 25.423666 
L 840.294864 24.337063 
L 840.885851 24.337063 
L 840.885851 25.873486 
L 841.476838 25.873486 
L 841.476838 25.491296 
L 842.067825 25.491296 
L 842.067825 23.919231 
L 842.658812 23.919231 
L 842.658812 24.067841 
L 843.249799 24.067841 
L 843.249799 24.270709 
L 843.840786 24.270709 
L 843.840786 23.855056 
L 844.431773 23.855056 
L 844.431773 24.50199 
L 845.022759 24.50199 
L 845.022759 25.488483 
L 845.613746 25.488483 
L 845.613746 25.652782 
L 846.204733 25.652782 
L 846.204733 25.271223 
L 846.79572 25.271223 
L 846.79572 25.467314 
L 847.977694 25.543726 
L 847.977694 28.122026 
L 848.568681 28.122026 
L 848.568681 27.78511 
L 849.159668 27.78511 
L 849.159668 27.631272 
L 849.750655 27.631272 
L 849.750655 28.549278 
L 850.341641 28.549278 
L 850.341641 28.194622 
L 850.932628 28.194622 
L 850.932628 27.603109 
L 851.523615 27.603109 
L 851.523615 27.79086 
L 852.114602 27.79086 
L 852.114602 27.52942 
L 852.705589 27.52942 
L 852.705589 28.628761 
L 853.296576 28.628761 
L 853.296576 28.31314 
L 853.887563 28.31314 
L 853.887563 30.209848 
L 854.47855 30.209848 
L 854.47855 27.971769 
L 855.069537 27.971769 
L 855.069537 28.267427 
L 855.660524 28.267427 
L 855.660524 27.997767 
L 856.25151 27.997767 
L 856.25151 26.028875 
L 856.842497 26.028875 
L 856.842497 25.81108 
L 857.433484 25.81108 
L 857.433484 25.408497 
L 858.615458 25.430955 
L 858.615458 23.850792 
L 859.206445 23.850792 
L 859.206445 24.084244 
L 859.797432 24.084244 
L 859.797432 23.536214 
L 860.388419 23.536214 
L 860.388419 22.563278 
L 860.979406 22.563278 
L 860.979406 22.969087 
L 861.570393 22.969087 
L 861.570393 23.992494 
L 862.161379 23.992494 
L 862.161379 23.723455 
L 863.343353 23.685773 
L 863.343353 23.114651 
L 863.93434 23.114651 
L 863.93434 23.699869 
L 864.525327 23.699869 
L 864.525327 23.867227 
L 865.116314 23.867227 
L 865.116314 23.733748 
L 865.707301 23.733748 
L 865.707301 23.407606 
L 866.298288 23.407606 
L 866.298288 23.67197 
L 866.889275 23.67197 
L 866.889275 23.196894 
L 867.480262 23.196894 
L 867.480262 22.63816 
L 868.071248 22.63816 
L 868.071248 21.283255 
L 869.253222 21.252761 
L 869.253222 21.562443 
L 871.026183 21.480964 
L 871.026183 22.420458 
L 871.61717 22.420458 
L 871.61717 21.979852 
L 872.208157 21.979852 
L 872.208157 21.249643 
L 872.799144 21.249643 
L 872.799144 21.402591 
L 873.390131 21.402591 
L 873.390131 21.76739 
L 874.572104 21.66157 
L 874.572104 22.548708 
L 875.163091 22.548708 
L 875.163091 23.095814 
L 875.754078 23.095814 
L 875.754078 22.560524 
L 876.936052 22.661532 
L 876.936052 21.894154 
L 878.709013 21.864056 
L 878.709013 22.511697 
L 879.3 22.511697 
L 879.3 22.931157 
L 879.890986 22.931157 
L 879.890986 21.363749 
L 880.481973 21.363749 
L 880.481973 20.552727 
L 881.07296 20.552727 
L 881.07296 20.852518 
L 881.663947 20.852518 
L 881.663947 21.946446 
L 882.254934 21.946446 
L 882.254934 23.528444 
L 882.845921 23.528444 
L 882.845921 23.159011 
L 883.436908 23.159011 
L 883.436908 22.578441 
L 884.027895 22.578441 
L 884.027895 22.861951 
L 885.209868 22.765112 
L 885.209868 24.528115 
L 885.800855 24.528115 
L 885.800855 23.623438 
L 886.391842 23.623438 
L 886.391842 25.937762 
L 886.982829 25.937762 
L 886.982829 25.501838 
L 887.194182 25.501838 
L 887.194182 25.501838 
" clip-path="url(#p887cf9fc2d)" style="fill: none; stroke: #3572c6; stroke-width: 1.2; stroke-linecap: square"/>
   </g>
   <g id="line2d_79">
    <path d="M 75.557818 20.552727 
L 887.194182 20.552727 
L 887.194182 20.552727 
" clip-path="url(#p887cf9fc2d)" style="fill: none; stroke: #83a83b; stroke-width: 1.2; stroke-linecap: square"/>
   </g>
   <g id="line2d_80">
    <path d="M 75.557818 25.937762 
L 887.194182 25.937762 
L 887.194182 25.937762 
" clip-path="url(#p887cf9fc2d)" style="fill: none; stroke: #c44e52; stroke-width: 1.2; stroke-linecap: square"/>
   </g>
   <g id="line2d_81">
    <path d="M 881.07296 300.96 
L 881.07296 7.2 
" clip-path="url(#p887cf9fc2d)" style="fill: none; stroke: #83a83b; stroke-width: 1.2; stroke-linecap: square"/>
   </g>
   <g id="line2d_82">
    <path d="M 886.982829 300.96 
L 886.982829 7.2 
" clip-path="url(#p887cf9fc2d)" style="fill: none; stroke: #c44e52; stroke-width: 1.2; stroke-linecap: square"/>
   </g>
   <g id="patch_3">
    <path d="M 34.976 300.96 
L 34.976 7.2 
" style="fill: none; stroke: #899ab8; stroke-width: 1.12; stroke-linejoin: miter; stroke-linecap: square"/>
   </g>
   <g id="patch_4">
    <path d="M 927.776 300.96 
L 927.776 7.2 
" style="fill: none; stroke: #899ab8; stroke-width: 1.12; stroke-linejoin: miter; stroke-linecap: square"/>
   </g>
   <g id="patch_5">
    <path d="M 34.976 300.96 
L 927.776 300.96 
" style="fill: none; stroke: #899ab8; stroke-width: 1.12; stroke-linejoin: miter; stroke-linecap: square"/>
   </g>
   <g id="patch_6">
    <path d="M 34.976 7.2 
L 927.776 7.2 
" style="fill: none; stroke: #899ab8; stroke-width: 1.12; stroke-linejoin: miter; stroke-linecap: square"/>
   </g>
   <g id="text_16">
    <!-- 123519.47 -->
    <g style="fill: #83a83b" transform="translate(183.412927 20.552727) scale(0.132 -0.132)">
     <defs>
      <path id="DejaVuSans-39" d="M 703 97 
L 703 672 
Q 941 559 1184 500 
Q 1428 441 1663 441 
Q 2288 441 2617 861 
Q 2947 1281 2994 2138 
Q 2813 1869 2534 1725 
Q 2256 1581 1919 1581 
Q 1219 1581 811 2004 
Q 403 2428 403 3163 
Q 403 3881 828 4315 
Q 1253 4750 1959 4750 
Q 2769 4750 3195 4129 
Q 3622 3509 3622 2328 
Q 3622 1225 3098 567 
Q 2575 -91 1691 -91 
Q 1453 -91 1209 -44 
Q 966 3 703 97 
z
M 1959 2075 
Q 2384 2075 2632 2365 
Q 2881 2656 2881 3163 
Q 2881 3666 2632 3958 
Q 2384 4250 1959 4250 
Q 1534 4250 1286 3958 
Q 1038 3666 1038 3163 
Q 1038 2656 1286 2365 
Q 1534 2075 1959 2075 
z
" transform="scale(0.015625)"/>
      <path id="DejaVuSans-2e" d="M 684 794 
L 1344 794 
L 1344 0 
L 684 0 
L 684 794 
z
" transform="scale(0.015625)"/>
      <path id="DejaVuSans-37" d="M 525 4666 
L 3525 4666 
L 3525 4397 
L 1831 0 
L 1172 0 
L 2766 4134 
L 525 4134 
L 525 4666 
z
" transform="scale(0.015625)"/>
     </defs>
     <use xlink:href="#DejaVuSans-31"/>
     <use xlink:href="#DejaVuSans-32" transform="translate(63.623047 0)"/>
     <use xlink:href="#DejaVuSans-33" transform="translate(127.246094 0)"/>
     <use xlink:href="#DejaVuSans-35" transform="translate(190.869141 0)"/>
     <use xlink:href="#DejaVuSans-31" transform="translate(254.492188 0)"/>
     <use xlink:href="#DejaVuSans-39" transform="translate(318.115234 0)"/>
     <use xlink:href="#DejaVuSans-2e" transform="translate(381.738281 0)"/>
     <use xlink:href="#DejaVuSans-34" transform="translate(413.525391 0)"/>
     <use xlink:href="#DejaVuSans-37" transform="translate(477.148438 0)"/>
    </g>
   </g>
   <g id="text_17">
    <!-- 94399.23 -->
    <g style="fill: #c44e52" transform="translate(183.412927 25.937762) scale(0.132 -0.132)">
     <use xlink:href="#DejaVuSans-39"/>
     <use xlink:href="#DejaVuSans-34" transform="translate(63.623047 0)"/>
     <use xlink:href="#DejaVuSans-33" transform="translate(127.246094 0)"/>
     <use xlink:href="#DejaVuSans-39" transform="translate(190.869141 0)"/>
     <use xlink:href="#DejaVuSans-39" transform="translate(254.492188 0)"/>
     <use xlink:href="#DejaVuSans-2e" transform="translate(318.115234 0)"/>
     <use xlink:href="#DejaVuSans-32" transform="translate(349.902344 0)"/>
     <use xlink:href="#DejaVuSans-33" transform="translate(413.525391 0)"/>
    </g>
   </g>
   <g id="legend_1">
    <g id="patch_7">
     <path d="M 43.796 183.886875 
L 142.133094 183.886875 
Q 144.653094 183.886875 144.653094 181.366875 
L 144.653094 126.793125 
Q 144.653094 124.273125 142.133094 124.273125 
L 43.796 124.273125 
Q 41.276 124.273125 41.276 126.793125 
L 41.276 181.366875 
Q 41.276 183.886875 43.796 183.886875 
z
" style="fill: #373e4b; opacity: 0.8; stroke: #cccccc; stroke-width: 0.16; stroke-linejoin: miter"/>
    </g>
    <g id="line2d_83">
     <path d="M 46.316 134.477156 
L 46.316 134.477156 
L 58.916 134.477156 
L 58.916 134.477156 
L 71.516 134.477156 
" style="fill: none; stroke: #3572c6; stroke-width: 1.2; stroke-linecap: square"/>
    </g>
    <g id="text_18">
     <!-- USD/BTC -->
     <g style="fill: #b1bed6" transform="translate(81.596 138.887156) scale(0.126 -0.126)">
      <defs>
       <path id="DejaVuSans-55" d="M 556 4666 
L 1191 4666 
L 1191 1831 
Q 1191 1081 1462 751 
Q 1734 422 2344 422 
Q 2950 422 3222 751 
Q 3494 1081 3494 1831 
L 3494 4666 
L 4128 4666 
L 4128 1753 
Q 4128 841 3676 375 
Q 3225 -91 2344 -91 
Q 1459 -91 1007 375 
Q 556 841 556 1753 
L 556 4666 
z
" transform="scale(0.015625)"/>
       <path id="DejaVuSans-53" d="M 3425 4513 
L 3425 3897 
Q 3066 4069 2747 4153 
Q 2428 4238 2131 4238 
Q 1616 4238 1336 4038 
Q 1056 3838 1056 3469 
Q 1056 3159 1242 3001 
Q 1428 2844 1947 2747 
L 2328 2669 
Q 3034 2534 3370 2195 
Q 3706 1856 3706 1288 
Q 3706 609 3251 259 
Q 2797 -91 1919 -91 
Q 1588 -91 1214 -16 
Q 841 59 441 206 
L 441 856 
Q 825 641 1194 531 
Q 1563 422 1919 422 
Q 2459 422 2753 634 
Q 3047 847 3047 1241 
Q 3047 1584 2836 1778 
Q 2625 1972 2144 2069 
L 1759 2144 
Q 1053 2284 737 2584 
Q 422 2884 422 3419 
Q 422 4038 858 4394 
Q 1294 4750 2059 4750 
Q 2388 4750 2728 4690 
Q 3069 4631 3425 4513 
z
" transform="scale(0.015625)"/>
       <path id="DejaVuSans-2f" d="M 1625 4666 
L 2156 4666 
L 531 -594 
L 0 -594 
L 1625 4666 
z
" transform="scale(0.015625)"/>
       <path id="DejaVuSans-42" d="M 1259 2228 
L 1259 519 
L 2272 519 
Q 2781 519 3026 730 
Q 3272 941 3272 1375 
Q 3272 1813 3026 2020 
Q 2781 2228 2272 2228 
L 1259 2228 
z
M 1259 4147 
L 1259 2741 
L 2194 2741 
Q 2656 2741 2882 2914 
Q 3109 3088 3109 3444 
Q 3109 3797 2882 3972 
Q 2656 4147 2194 4147 
L 1259 4147 
z
M 628 4666 
L 2241 4666 
Q 2963 4666 3353 4366 
Q 3744 4066 3744 3513 
Q 3744 3084 3544 2831 
Q 3344 2578 2956 2516 
Q 3422 2416 3680 2098 
Q 3938 1781 3938 1306 
Q 3938 681 3513 340 
Q 3088 0 2303 0 
L 628 0 
L 628 4666 
z
" transform="scale(0.015625)"/>
       <path id="DejaVuSans-54" d="M -19 4666 
L 3928 4666 
L 3928 4134 
L 2272 4134 
L 2272 0 
L 1638 0 
L 1638 4134 
L -19 4134 
L -19 4666 
z
" transform="scale(0.015625)"/>
       <path id="DejaVuSans-43" d="M 4122 4306 
L 4122 3641 
Q 3803 3938 3442 4084 
Q 3081 4231 2675 4231 
Q 1875 4231 1450 3742 
Q 1025 3253 1025 2328 
Q 1025 1406 1450 917 
Q 1875 428 2675 428 
Q 3081 428 3442 575 
Q 3803 722 4122 1019 
L 4122 359 
Q 3791 134 3420 21 
Q 3050 -91 2638 -91 
Q 1578 -91 968 557 
Q 359 1206 359 2328 
Q 359 3453 968 4101 
Q 1578 4750 2638 4750 
Q 3056 4750 3426 4639 
Q 3797 4528 4122 4306 
z
" transform="scale(0.015625)"/>
      </defs>
      <use xlink:href="#DejaVuSans-55"/>
      <use xlink:href="#DejaVuSans-53" transform="translate(73.193359 0)"/>
      <use xlink:href="#DejaVuSans-44" transform="translate(136.669922 0)"/>
      <use xlink:href="#DejaVuSans-2f" transform="translate(213.671875 0)"/>
      <use xlink:href="#DejaVuSans-42" transform="translate(247.363281 0)"/>
      <use xlink:href="#DejaVuSans-54" transform="translate(315.966797 0)"/>
      <use xlink:href="#DejaVuSans-43" transform="translate(371.175781 0)"/>
     </g>
    </g>
    <g id="line2d_84">
     <path d="M 46.316 152.971594 
L 46.316 152.971594 
L 58.916 152.971594 
L 58.916 152.971594 
L 71.516 152.971594 
" style="fill: none; stroke: #83a83b; stroke-width: 1.2; stroke-linecap: square"/>
    </g>
    <g id="text_19">
     <!-- Max -->
     <g style="fill: #b1bed6" transform="translate(81.596 157.381594) scale(0.126 -0.126)">
      <defs>
       <path id="DejaVuSans-4d" d="M 628 4666 
L 1569 4666 
L 2759 1491 
L 3956 4666 
L 4897 4666 
L 4897 0 
L 4281 0 
L 4281 4097 
L 3078 897 
L 2444 897 
L 1241 4097 
L 1241 0 
L 628 0 
L 628 4666 
z
" transform="scale(0.015625)"/>
       <path id="DejaVuSans-78" d="M 3513 3500 
L 2247 1797 
L 3578 0 
L 2900 0 
L 1881 1375 
L 863 0 
L 184 0 
L 1544 1831 
L 300 3500 
L 978 3500 
L 1906 2253 
L 2834 3500 
L 3513 3500 
z
" transform="scale(0.015625)"/>
      </defs>
      <use xlink:href="#DejaVuSans-4d"/>
      <use xlink:href="#DejaVuSans-61" transform="translate(86.279297 0)"/>
      <use xlink:href="#DejaVuSans-78" transform="translate(147.558594 0)"/>
     </g>
    </g>
    <g id="line2d_85">
     <path d="M 46.316 171.466031 
L 46.316 171.466031 
L 58.916 171.466031 
L 58.916 171.466031 
L 71.516 171.466031 
" style="fill: none; stroke: #c44e52; stroke-width: 1.2; stroke-linecap: square"/>
    </g>
    <g id="text_20">
     <!-- local_Min -->
     <g style="fill: #b1bed6" transform="translate(81.596 175.876031) scale(0.126 -0.126)">
      <defs>
       <path id="DejaVuSans-6c" d="M 603 4863 
L 1178 4863 
L 1178 0 
L 603 0 
L 603 4863 
z
" transform="scale(0.015625)"/>
       <path id="DejaVuSans-6f" d="M 1959 3097 
Q 1497 3097 1228 2736 
Q 959 2375 959 1747 
Q 959 1119 1226 758 
Q 1494 397 1959 397 
Q 2419 397 2687 759 
Q 2956 1122 2956 1747 
Q 2956 2369 2687 2733 
Q 2419 3097 1959 3097 
z
M 1959 3584 
Q 2709 3584 3137 3096 
Q 3566 2609 3566 1747 
Q 3566 888 3137 398 
Q 2709 -91 1959 -91 
Q 1206 -91 779 398 
Q 353 888 353 1747 
Q 353 2609 779 3096 
Q 1206 3584 1959 3584 
z
" transform="scale(0.015625)"/>
       <path id="DejaVuSans-63" d="M 3122 3366 
L 3122 2828 
Q 2878 2963 2633 3030 
Q 2388 3097 2138 3097 
Q 1578 3097 1268 2742 
Q 959 2388 959 1747 
Q 959 1106 1268 751 
Q 1578 397 2138 397 
Q 2388 397 2633 464 
Q 2878 531 3122 666 
L 3122 134 
Q 2881 22 2623 -34 
Q 2366 -91 2075 -91 
Q 1284 -91 818 406 
Q 353 903 353 1747 
Q 353 2603 823 3093 
Q 1294 3584 2113 3584 
Q 2378 3584 2631 3529 
Q 2884 3475 3122 3366 
z
" transform="scale(0.015625)"/>
       <path id="DejaVuSans-5f" d="M 3263 -1063 
L 3263 -1509 
L -63 -1509 
L -63 -1063 
L 3263 -1063 
z
" transform="scale(0.015625)"/>
       <path id="DejaVuSans-69" d="M 603 3500 
L 1178 3500 
L 1178 0 
L 603 0 
L 603 3500 
z
M 603 4863 
L 1178 4863 
L 1178 4134 
L 603 4134 
L 603 4863 
z
" transform="scale(0.015625)"/>
       <path id="DejaVuSans-6e" d="M 3513 2113 
L 3513 0 
L 2938 0 
L 2938 2094 
Q 2938 2591 2744 2837 
Q 2550 3084 2163 3084 
Q 1697 3084 1428 2787 
Q 1159 2491 1159 1978 
L 1159 0 
L 581 0 
L 581 3500 
L 1159 3500 
L 1159 2956 
Q 1366 3272 1645 3428 
Q 1925 3584 2291 3584 
Q 2894 3584 3203 3211 
Q 3513 2838 3513 2113 
z
" transform="scale(0.015625)"/>
      </defs>
      <use xlink:href="#DejaVuSans-6c"/>
      <use xlink:href="#DejaVuSans-6f" transform="translate(27.783203 0)"/>
      <use xlink:href="#DejaVuSans-63" transform="translate(88.964844 0)"/>
      <use xlink:href="#DejaVuSans-61" transform="translate(143.945312 0)"/>
      <use xlink:href="#DejaVuSans-6c" transform="translate(205.224609 0)"/>
      <use xlink:href="#DejaVuSans-5f" transform="translate(233.007812 0)"/>
      <use xlink:href="#DejaVuSans-4d" transform="translate(283.007812 0)"/>
      <use xlink:href="#DejaVuSans-69" transform="translate(369.287109 0)"/>
      <use xlink:href="#DejaVuSans-6e" transform="translate(397.070312 0)"/>
     </g>
    </g>
   </g>
  </g>
 </g>
 <defs>
  <clipPath id="p887cf9fc2d">
   <rect x="34.976" y="7.2" width="892.8" height="293.76"/>
  </clipPath>
 </defs>
</svg>
